<?xml version="1.0" encoding="utf-8"?>
<!-- Generator: Adobe Illustrator 26.0.1, SVG Export Plug-In . SVG Version: 6.00 Build 0)  -->
<svg version="1.1" id="Layer_1" xmlns="http://www.w3.org/2000/svg" xmlns:xlink="http://www.w3.org/1999/xlink" x="0px" y="0px"
	 viewBox="0 0 95 35" style="enable-background:new 0 0 95 35;" xml:space="preserve">
<style type="text/css">
	.st0{fill:#343741;}
	.st1{fill-rule:evenodd;clip-rule:evenodd;fill:#343741;}
</style>
<g id="layer4">
	<path id="path12933" class="st0" d="M30.6,0c-4.2,0-7.7,3.4-7.7,7.7s3.4,7.7,7.7,7.7s7.7-3.4,7.7-7.7c0-3.3-2.1-6.1-5-7.2l-3.2,5.7
		h-0.9l3.4-6C31.9,0.1,31.3,0,30.6,0z"/>
	<path id="path12938" class="st1" d="M39.6,0.4H46l-3.4,5.8h0.9l3.2-5.8h4.2l-3.4,5.8h0.9l3.2-5.8H54v14.5H39.6V0.4z"/>
	<path id="path12940" class="st1" d="M55.2,0.4h10.5l-3.4,5.8h0.9l3.2-5.8h5.5l-8.5,14.4L55.2,0.4z"/>
	<rect id="rect12942" x="23.1" y="17.5" class="st0" width="49" height="0.8"/>
	<path id="path12946" class="st0" d="M30.2,21c-3.7,0-6.7,3.1-6.7,7s3,7,6.7,7s6.7-3.1,6.7-7S33.9,21,30.2,21z M30.2,23
		c2.5,0,4.4,2.2,4.4,5s-2,5-4.4,5s-4.4-2.2-4.4-5S27.7,23,30.2,23z"/>
	<path id="path12949" class="st1" d="M40.2,34.7V21.4l3,0l3.6,10l3.8-10h3v13.3h-2V24.1l-3.9,10.6h-1.5l-3.9-10.6v10.6H40.2z"/>
	<path id="path13920" class="st1" d="M62.6,34.7l-6.2-13.3H59l4.7,10.1l4.7-10.1h2.4l-6.3,13.3H62.6z"/>
</g>
</svg>
