<?xml version="1.0" encoding="utf-8"?>
<!-- Generator: Adobe Illustrator 26.0.1, SVG Export Plug-In . SVG Version: 6.00 Build 0)  -->
<svg version="1.1" id="Layer_1" xmlns="http://www.w3.org/2000/svg" xmlns:xlink="http://www.w3.org/1999/xlink" x="0px" y="0px"
	 viewBox="0 0 95 35" style="enable-background:new 0 0 95 35;" xml:space="preserve">
<style type="text/css">
	.st0{fill:#CCCCCC;}
</style>
<g>
	<path class="st0" d="M24.1,20.6l0.3-1.4h1.7l0.3,1.4h1.3l-1.7-6.1h-1.7l-1.7,6.1H24.1z M26,18.3h-1.2l0.6-2.6h0L26,18.3z
		 M30.6,16.3v0.5h0c-0.2-0.4-0.5-0.6-1-0.6c-1.2,0-1.3,1.2-1.3,2.1c0,1-0.1,2.2,1.3,2.2c0.4,0,0.7-0.2,0.9-0.5h0v0.8
		c0,0.4-0.1,0.7-0.4,0.7c-0.2,0-0.3-0.1-0.4-0.2c-0.1-0.1-0.1-0.3-0.1-0.4h-1.2c0,1,0.8,1.3,1.7,1.3c1.6,0,1.6-1.2,1.6-1.5v-4.4
		H30.6z M29.5,18.5c0-1.3,0.1-1.6,0.5-1.6c0.4,0,0.5,0.5,0.5,1.5c0,0.9-0.1,1.4-0.5,1.4C29.5,19.8,29.5,18.9,29.5,18.5 M34,15.4
		h-1.2v-0.9H34V15.4z M34,20.6h-1.2v-4.3H34V20.6z M36.3,20.6h-1.2v-6.1h1.2V20.6z M40.7,18.6c0-1.4-0.1-2.4-1.7-2.4
		c-1.6,0-1.7,1-1.7,2.2c0,1.3,0.2,2.3,1.7,2.3c0.6,0,1-0.2,1.3-0.4c0.3-0.3,0.4-0.6,0.5-1.1h-1.2c0,0.4-0.1,0.8-0.5,0.8
		c-0.5,0-0.5-0.8-0.5-1.3H40.7z M38.4,17.9c0-0.4,0-1,0.5-1c0.6,0,0.5,0.6,0.5,1H38.4z M42.8,16.7L42.8,16.7
		c0.1-0.2,0.3-0.3,0.4-0.4c0.2-0.1,0.4-0.1,0.6-0.1c0.6,0,1.1,0.3,1.1,0.9v3.4h-1.2v-2.9c0-0.4-0.1-0.7-0.4-0.7
		c-0.4,0-0.4,0.3-0.4,0.7v2.9h-1.2v-4.3h1.2V16.7z M45.5,16.3H46v-0.7l1.2-0.5v1.2h0.6V17h-0.6v2.3c0,0.3,0,0.5,0.4,0.5
		c0.1,0,0.2,0,0.2,0v0.7c-0.2,0-0.3,0-0.6,0c-1,0-1.2-0.7-1.2-0.9V17h-0.5V16.3z M53.9,14.5v1h-1.4v5.1h-1.3v-5.1h-1.4v-1H53.9z
		 M57,18.6c0-1.4-0.1-2.4-1.7-2.4c-1.6,0-1.7,1-1.7,2.2c0,1.3,0.2,2.3,1.7,2.3c0.6,0,1-0.2,1.3-0.4c0.3-0.3,0.4-0.6,0.5-1.1h-1.2
		c0,0.4-0.1,0.8-0.5,0.8c-0.5,0-0.5-0.8-0.5-1.3H57z M54.8,17.9c0-0.4,0-1,0.5-1c0.6,0,0.5,0.6,0.5,1H54.8z M60,17.8
		c0-0.6-0.2-0.8-0.5-0.8c-0.5,0-0.5,0.4-0.5,1.3c0,1.3,0.1,1.6,0.5,1.6c0.4,0,0.5-0.3,0.5-0.9h1.2c0,1.2-0.6,1.7-1.7,1.7
		c-1.5,0-1.7-0.9-1.7-2.3c0-1.2,0.2-2.2,1.7-2.2c1.1,0,1.7,0.5,1.7,1.6H60z M64.2,20.6v-2.9c0-0.4-0.1-0.7-0.4-0.7
		c-0.4,0-0.4,0.3-0.4,0.7v2.9h-1.2v-6.1h1.2v2.3h0c0.1-0.2,0.3-0.3,0.4-0.4c0.2-0.1,0.4-0.1,0.6-0.1c0.6,0,1.1,0.3,1.1,0.9v3.4H64.2
		z M67.5,16.7L67.5,16.7c0.1-0.2,0.3-0.3,0.4-0.4c0.2-0.1,0.4-0.1,0.6-0.1c0.6,0,1.1,0.3,1.1,0.9v3.4h-1.2v-2.9
		c0-0.4-0.1-0.7-0.4-0.7c-0.4,0-0.4,0.3-0.4,0.7v2.9h-1.2v-4.3h1.2V16.7z M72.2,20.6c1.5,0,1.7-0.9,1.7-2.3c0-1.2-0.2-2.2-1.7-2.2
		c-1.6,0-1.7,1-1.7,2.2C70.4,19.7,70.6,20.6,72.2,20.6 M72.2,19.9c-0.4,0-0.5-0.3-0.5-1.6c0-0.9,0-1.3,0.5-1.3
		c0.5,0,0.5,0.4,0.5,1.3C72.7,19.6,72.6,19.9,72.2,19.9 M76,20.6h-1.2v-6.1H76V20.6z M78.7,20.6c1.5,0,1.7-0.9,1.7-2.3
		c0-1.2-0.2-2.2-1.7-2.2c-1.6,0-1.7,1-1.7,2.2C76.9,19.7,77.1,20.6,78.7,20.6 M78.7,19.9c-0.4,0-0.5-0.3-0.5-1.6
		c0-0.9,0-1.3,0.5-1.3c0.5,0,0.5,0.4,0.5,1.3C79.2,19.6,79.1,19.9,78.7,19.9 M83.3,16.3v0.5h0c-0.2-0.4-0.5-0.6-1-0.6
		c-1.2,0-1.3,1.2-1.3,2.1c0,1-0.1,2.2,1.3,2.2c0.4,0,0.7-0.2,0.9-0.5h0v0.8c0,0.4-0.1,0.7-0.4,0.7c-0.2,0-0.3-0.1-0.4-0.2
		c-0.1-0.1-0.1-0.3-0.1-0.4h-1.2c0,1,0.8,1.3,1.7,1.3c1.6,0,1.6-1.2,1.6-1.5v-4.4H83.3z M82.3,18.5c0-1.3,0.1-1.6,0.5-1.6
		c0.4,0,0.5,0.5,0.5,1.5c0,0.9-0.1,1.4-0.5,1.4C82.2,19.8,82.3,18.9,82.3,18.5 M86.7,15.4h-1.2v-0.9h1.2V15.4z M86.7,20.6h-1.2v-4.3
		h1.2V20.6z M88.8,18.6c0,0.5,0,1.3,0.5,1.3c0.4,0,0.5-0.4,0.5-0.8h1.2c0,0.5-0.2,0.8-0.5,1.1c-0.3,0.3-0.7,0.4-1.3,0.4
		c-1.5,0-1.7-0.9-1.7-2.3c0-1.2,0.2-2.2,1.7-2.2c1.6,0,1.8,1,1.7,2.4H88.8z M89.9,17.9c0-0.4,0-1-0.5-1c-0.5,0-0.5,0.6-0.5,1H89.9z
		 M92.9,19.2c0,0.2,0,0.4,0.1,0.5c0.1,0.1,0.2,0.2,0.4,0.2c0.2,0,0.4-0.2,0.4-0.4c0-0.9-2.1-0.7-2.1-2.1c0-0.9,0.9-1.2,1.7-1.2
		c0.8,0,1.5,0.4,1.5,1.3h-1.2c0-0.3,0-0.5-0.1-0.5c-0.1-0.1-0.2-0.1-0.3-0.1c-0.3,0-0.4,0.2-0.4,0.5c0,0.7,2.1,0.6,2.1,2
		c0,0.7-0.6,1.3-1.6,1.3c-1,0-1.7-0.3-1.7-1.5H92.9z"/>
	<path class="st0" d="M10,14.5c0,0.5-0.4,0.8-0.8,0.8c-0.5,0-0.8-0.4-0.8-0.8c0-0.5,0.4-0.8,0.8-0.8C9.6,13.7,10,14.1,10,14.5
		 M9.7,12.2c0-0.3-0.3-0.6-0.6-0.6c-0.3,0-0.6,0.3-0.6,0.6c0,0.3,0.3,0.6,0.6,0.6C9.5,12.8,9.7,12.5,9.7,12.2 M9.5,10.3
		c0-0.2-0.2-0.4-0.4-0.4c-0.2,0-0.4,0.2-0.4,0.4c0,0.2,0.2,0.4,0.4,0.4C9.4,10.6,9.5,10.5,9.5,10.3 M9.4,8.6c0-0.1-0.1-0.2-0.2-0.2
		C9,8.3,8.9,8.5,8.9,8.6c0,0.1,0.1,0.2,0.2,0.2C9.3,8.8,9.4,8.7,9.4,8.6 M12.1,18.3c0.5,0,0.8-0.4,0.8-0.8c0-0.5-0.4-0.8-0.8-0.8
		c-0.5,0-0.8,0.4-0.8,0.8C11.3,18,11.7,18.3,12.1,18.3 M14.5,18.1c0.3,0,0.6-0.3,0.6-0.6c0-0.3-0.3-0.6-0.6-0.6
		c-0.3,0-0.6,0.3-0.6,0.6C13.9,17.8,14.2,18.1,14.5,18.1 M16.4,17.9c0.2,0,0.4-0.2,0.4-0.4c0-0.2-0.2-0.4-0.4-0.4
		c-0.2,0-0.4,0.2-0.4,0.4C16,17.7,16.2,17.9,16.4,17.9 M18.1,17.7c0.1,0,0.2-0.1,0.2-0.2c0-0.1-0.1-0.2-0.2-0.2
		c-0.1,0-0.2,0.1-0.2,0.2C17.8,17.6,17.9,17.7,18.1,17.7 M8.3,20.5c0,0.5,0.4,0.8,0.8,0.8c0.5,0,0.8-0.4,0.8-0.8
		c0-0.5-0.4-0.8-0.8-0.8C8.7,19.6,8.3,20,8.3,20.5 M8.6,22.8c0,0.3,0.3,0.6,0.6,0.6c0.3,0,0.6-0.3,0.6-0.6c0-0.3-0.3-0.6-0.6-0.6
		C8.8,22.2,8.6,22.5,8.6,22.8 M8.8,24.7c0,0.2,0.2,0.4,0.4,0.4c0.2,0,0.4-0.2,0.4-0.4c0-0.2-0.2-0.4-0.4-0.4
		C8.9,24.3,8.8,24.5,8.8,24.7 M8.9,26.4c0,0.1,0.1,0.2,0.2,0.2c0.1,0,0.2-0.1,0.2-0.2c0-0.1-0.1-0.2-0.2-0.2
		C9,26.2,8.9,26.3,8.9,26.4 M6.2,16.7c-0.5,0-0.8,0.4-0.8,0.8c0,0.5,0.4,0.8,0.8,0.8C6.7,18.3,7,18,7,17.5C7,17,6.7,16.7,6.2,16.7
		 M3.8,16.9c-0.3,0-0.6,0.3-0.6,0.6c0,0.3,0.3,0.6,0.6,0.6c0.3,0,0.6-0.3,0.6-0.6C4.4,17.2,4.2,16.9,3.8,16.9 M1.9,17.1
		c-0.2,0-0.4,0.2-0.4,0.4c0,0.2,0.2,0.4,0.4,0.4c0.2,0,0.4-0.2,0.4-0.4C2.3,17.3,2.1,17.1,1.9,17.1 M0.2,17.3
		c-0.1,0-0.2,0.1-0.2,0.2c0,0.1,0.1,0.2,0.2,0.2c0.1,0,0.2-0.1,0.2-0.2C0.5,17.4,0.4,17.3,0.2,17.3 M11.8,16c0.3-0.3,0.3-0.8,0-1.2
		c-0.3-0.3-0.8-0.3-1.2,0c-0.3,0.3-0.3,0.8,0,1.2C11,16.3,11.5,16.3,11.8,16 M13.3,14.1c0.2-0.2,0.2-0.6,0-0.8
		c-0.2-0.2-0.6-0.2-0.8,0c-0.2,0.2-0.2,0.6,0,0.8C12.7,14.4,13.1,14.4,13.3,14.1 M14.5,12.7c0.1-0.1,0.1-0.4,0-0.5
		c-0.1-0.1-0.4-0.1-0.5,0c-0.1,0.1-0.1,0.4,0,0.5C14.1,12.8,14.4,12.8,14.5,12.7 M15.6,11.4c0.1-0.1,0.1-0.2,0-0.3
		c-0.1-0.1-0.2-0.1-0.3,0c-0.1,0.1-0.1,0.2,0,0.3C15.4,11.5,15.5,11.5,15.6,11.4 M10.7,20.2c0.3,0.3,0.8,0.3,1.2,0
		c0.3-0.3,0.3-0.8,0-1.2c-0.3-0.3-0.8-0.3-1.2,0C10.3,19.3,10.3,19.9,10.7,20.2 M12.5,21.7c0.2,0.2,0.6,0.2,0.8,0
		c0.2-0.2,0.2-0.6,0-0.8c-0.2-0.2-0.6-0.2-0.8,0C12.3,21.1,12.3,21.4,12.5,21.7 M14,22.9c0.1,0.1,0.4,0.1,0.5,0
		c0.1-0.1,0.1-0.4,0-0.5c-0.1-0.1-0.4-0.1-0.5,0C13.8,22.5,13.8,22.7,14,22.9 M15.3,24c0.1,0.1,0.2,0.1,0.3,0c0.1-0.1,0.1-0.2,0-0.3
		c-0.1-0.1-0.2-0.1-0.3,0C15.2,23.7,15.2,23.9,15.3,24 M6.5,19c-0.3,0.3-0.3,0.8,0,1.2c0.3,0.3,0.8,0.3,1.2,0C8,19.9,8,19.3,7.6,19
		C7.3,18.7,6.8,18.7,6.5,19 M5,20.9c-0.2,0.2-0.2,0.6,0,0.8c0.2,0.2,0.6,0.2,0.8,0c0.2-0.2,0.2-0.6,0-0.8C5.6,20.6,5.2,20.6,5,20.9
		 M3.8,22.3c-0.1,0.1-0.1,0.4,0,0.5c0.1,0.1,0.4,0.1,0.5,0c0.2-0.1,0.2-0.4,0-0.5C4.2,22.2,3.9,22.2,3.8,22.3 M2.7,23.6
		c-0.1,0.1-0.1,0.2,0,0.3c0.1,0.1,0.2,0.1,0.3,0c0.1-0.1,0.1-0.2,0-0.3C2.9,23.5,2.8,23.5,2.7,23.6 M7.6,14.8
		c-0.3-0.3-0.8-0.3-1.2,0c-0.3,0.3-0.3,0.8,0,1.2c0.3,0.3,0.8,0.3,1.2,0C8,15.7,8,15.2,7.6,14.8 M5.8,13.3c-0.2-0.2-0.6-0.2-0.8,0
		c-0.2,0.2-0.2,0.6,0,0.8c0.2,0.2,0.6,0.2,0.8,0C6,13.9,6,13.6,5.8,13.3 M4.3,12.1c-0.1-0.1-0.4-0.1-0.5,0c-0.1,0.1-0.1,0.4,0,0.5
		c0.1,0.1,0.4,0.1,0.5,0C4.5,12.5,4.5,12.3,4.3,12.1 M3,11c-0.1-0.1-0.2-0.1-0.3,0c-0.1,0.1-0.1,0.2,0,0.3c0.1,0.1,0.2,0.1,0.3,0
		C3.1,11.3,3.1,11.1,3,11"/>
</g>
</svg>
