<?xml version="1.0" encoding="utf-8"?>
<!-- Generator: Adobe Illustrator 26.0.1, SVG Export Plug-In . SVG Version: 6.00 Build 0)  -->
<svg version="1.1" id="Layer_1" xmlns="http://www.w3.org/2000/svg" xmlns:xlink="http://www.w3.org/1999/xlink" x="0px" y="0px"
	 viewBox="0 0 95 35" style="enable-background:new 0 0 95 35;" xml:space="preserve">
<style type="text/css">
	.st0{fill:#CCCCCC;}
</style>
<g>
	<path class="st0" d="M57.1,18.6c0,5.3,4.6,7.1,4.7,7.1c0,0.1-0.7,2.5-2.4,5c-1.5,2.1-3,4.3-5.4,4.3c-2.3,0-3.1-1.4-5.8-1.4
		c-2.7,0-3.5,1.3-5.7,1.4c-2.3,0.1-4.1-2.3-5.5-4.4c-3-4.3-5.3-12.3-2.2-17.6c1.5-2.7,4.3-4.3,7.2-4.4c2.3,0,4.4,1.5,5.8,1.5
		c1.4,0,4-1.9,6.7-1.6c1.1,0,4.3,0.5,6.4,3.5C60.7,12,57,14.2,57.1,18.6 M52.6,5.6c1.2-1.5,2-3.5,1.8-5.6c-1.8,0.1-3.9,1.2-5.2,2.7
		c-1.1,1.3-2.1,3.4-1.9,5.4C49.4,8.2,51.4,7.1,52.6,5.6"/>
</g>
</svg>
