<?xml version="1.0" encoding="utf-8"?>
<!-- Generator: Adobe Illustrator 26.0.1, SVG Export Plug-In . SVG Version: 6.00 Build 0)  -->
<svg version="1.1" id="Layer_1" xmlns="http://www.w3.org/2000/svg" xmlns:xlink="http://www.w3.org/1999/xlink" x="0px" y="0px"
	 viewBox="0 0 95 35" style="enable-background:new 0 0 95 35;" xml:space="preserve">
<style type="text/css">
	.st0{fill:#CCCCCC;}
</style>
<g>
	<path class="st0" d="M54.26,13.38c0,0,2.12-0.57,3.42,1.49l6.32,8.77l6.51-9c0,0,1.15-1.49,3.07-1.23l-8.53,11.54
		c0,0-0.43,0.69-1.18,0.72c0,0-0.52,0-1.03-0.75C62.32,24.17,54.26,13.38,54.26,13.38z M75.27,13.44v10.94c0,0,0.14,1.18,1.69,1.09
		V14.73C76.96,14.73,76.96,13.64,75.27,13.44z M76.19,9.64c-0.56,0-1.02,0.53-1.02,1.17c0,0.65,0.46,1.17,1.02,1.17
		c0.56,0,1.02-0.53,1.02-1.17C77.21,10.17,76.75,9.64,76.19,9.64z M39.63,19.13c-0.04,4.85,4.14,4.73,4.14,4.73h5.78
		c3.74-0.93,3.46-4.48,3.46-4.48c0.12-3.89-3.46-4.38-3.46-4.38h-5.84C43.71,14.99,39.67,15.39,39.63,19.13z M39.67,15.14
		c0,0,1.54-1.7,4.08-1.73l5.78,0.03c0,0,5.32,0.85,5.23,5.96c-0.07,4.2-3.19,5.87-5.16,6h-5.9c0,0-5.9,0.22-5.75-6.33V9.33
		c0,0,1.54,0.03,1.73,0.93C39.68,11.89,39.67,15.14,39.67,15.14z M20.7,19.13c-0.04,4.85,4.14,4.73,4.14,4.73h5.78
		c3.74-0.93,3.47-4.48,3.47-4.48c0.12-3.89-3.47-4.38-3.47-4.38h-5.84C24.78,14.99,20.74,15.39,20.7,19.13z M20.74,15.14
		c0,0,1.54-1.7,4.08-1.73l5.78,0.03c0,0,5.32,0.85,5.23,5.96c-0.07,4.2-3.19,5.87-5.16,6h-5.9c0,0-5.9,0.22-5.75-6.33V9.33
		c0,0,1.54,0.03,1.73,0.93C20.75,11.89,20.74,15.14,20.74,15.14z M79.29,19.09c-0.27,6.42,5.74,6.31,5.74,6.31h9.69
		c-0.16-1.35-1.22-1.44-1.22-1.44h-8.39c-4.32-0.64-3.98-3.78-3.98-3.78l10.64-0.06c0.81-0.05,3.25-0.44,3.22-3.49
		c-0.02-3.1-3.22-3.17-3.22-3.17h-6.63C79.27,13.72,79.29,19.09,79.29,19.09z M81.14,18.44c0,0,0.3-2.93,3.63-3.41h6.69
		c0,0,1.83-0.02,1.91,1.62c0.07,1.37-0.91,1.75-1.91,1.78L81.14,18.44z M6,25.34c0.55,0.05,4.47-0.03,4.47-0.03
		c3.66,0.11,5.05-2.62,5.05-2.62c0.27,1.91,0.49,2.07,0.85,2.37c0.35,0.3,1.47,0.22,1.47,0.22l-1.25-6.58
		c-1.15-5.4-5.16-5.27-6.06-5.38s-4.47-0.03-4.47-0.03C-0.14,13.83,0,19.25,0,19.25C0.14,25.2,5.46,25.28,6,25.34z M1.72,19.3
		c0,0-0.05-4.2,4.34-4.37c0.49-0.11,3.52-0.05,4.47,0c0.95,0.05,4.2,0.74,4.23,4.34c0.03,3.6-2.56,4.42-4.26,4.5
		c-1.69,0.08-3.85,0.05-4.47,0C5.4,23.72,1.94,23.45,1.72,19.3z"/>
</g>
</svg>
