<?xml version="1.0" encoding="utf-8"?>
<!-- Generator: Adobe Illustrator 26.0.1, SVG Export Plug-In . SVG Version: 6.00 Build 0)  -->
<svg version="1.1" id="Layer_1" xmlns="http://www.w3.org/2000/svg" xmlns:xlink="http://www.w3.org/1999/xlink" x="0px" y="0px"
	 viewBox="0 0 95 35" style="enable-background:new 0 0 95 35;" xml:space="preserve">
<style type="text/css">
	.st0{fill:#FFFFFF;}
</style>
<g>
	<path class="st0" d="M25.68,5.65H0V9.6h24.4v0c0.7,0,1.27,0.57,1.27,1.27v13.25l-0.01,0.01c-0.01,0.7-0.58,1.27-1.27,1.27H5.22
		c-0.7,0-1.28-0.57-1.28-1.27v-5.36c0-0.7,0.57-1.27,1.28-1.27h16.5v-3.94H3.93C1.76,13.56,0,15.31,0,17.49v7.93
		c0,2.17,1.76,3.93,3.93,3.93h21.75c2.18,0,3.93-1.76,3.93-3.93V9.59C29.62,7.41,27.86,5.65,25.68,5.65"/>
	<path class="st0" d="M40.6,29.21h-0.57l-0.63-1.67h-2.47l-0.63,1.67h-0.59l2.25-5.52h0.44L40.6,29.21z M39.24,27.12l-1.06-2.82
		l-1.08,2.82H39.24z"/>
	<path class="st0" d="M43.93,29.21h-0.49v-5.52h1.88c0.84,0,1.21,0,1.53,0.15c0.43,0.2,0.74,0.69,0.74,1.36
		c0,0.33-0.1,1.24-1.06,1.45c-0.27,0.06-0.39,0.06-1.38,0.08h-1.23V29.21 M43.93,26.26h1.18h0.25c0.64-0.01,0.76-0.01,0.92-0.04
		c0.57-0.09,0.81-0.52,0.81-1.03c0-0.34-0.12-0.69-0.4-0.88c-0.26-0.17-0.44-0.17-1.42-0.18h-1.34V26.26z"/>
	<path class="st0" d="M48.59,29.21h-0.45v-3.73h0.45v0.59c0.24-0.49,0.63-0.66,1.09-0.66c0.11,0,0.16,0.01,0.26,0.02v0.42
		c-0.14-0.02-0.16-0.02-0.28-0.02c-0.13,0-0.49,0.01-0.77,0.3c-0.29,0.32-0.29,0.7-0.3,1.47V29.21"/>
	<path class="st0" d="M52.01,29.3c-1.09,0-1.68-0.86-1.68-1.91c0-0.97,0.49-2,1.7-2c1.18,0,1.68,0.97,1.69,1.93
		C53.73,28.45,53.07,29.3,52.01,29.3 M52.04,25.78c-0.33,0-0.65,0.13-0.86,0.38c-0.32,0.38-0.35,0.93-0.35,1.24
		c0,1.06,0.55,1.49,1.19,1.49c0.82,0,1.2-0.65,1.21-1.52C53.23,27.17,53.24,25.78,52.04,25.78"/>
	<path class="st0" d="M59.5,29.21h-0.46v-2.02c0-0.7,0-0.91-0.13-1.1c-0.12-0.19-0.35-0.27-0.58-0.27c-0.74,0-0.94,0.73-0.97,0.88
		c-0.05,0.22-0.06,0.45-0.06,0.95v1.55h-0.45v-2.06c-0.01-0.39-0.01-0.54-0.03-0.7c-0.02-0.12-0.09-0.62-0.7-0.62
		c-0.32,0-0.63,0.16-0.82,0.5c-0.19,0.34-0.19,0.72-0.19,1.39v1.49h-0.46v-3.72h0.46v0.77c0.21-0.84,0.95-0.85,1.1-0.85
		c0.42,0,0.98,0.2,1.03,0.93c0.02-0.1,0.07-0.27,0.19-0.45c0.23-0.35,0.6-0.49,0.97-0.49c0.45,0,0.71,0.18,0.85,0.35
		c0.23,0.3,0.23,0.7,0.24,1.62V29.21"/>
	<path class="st0" d="M61.13,24.6h-0.45v-0.71h0.45V24.6z M61.13,29.21h-0.45v-3.73h0.45V29.21z"/>
	<path class="st0" d="M63.85,27.1c0.24,0.06,0.56,0.14,0.79,0.4c0.16,0.18,0.25,0.42,0.25,0.66c0,0.55-0.43,1.14-1.4,1.14
		c-0.48,0-0.78-0.16-0.94-0.27c-0.27-0.18-0.43-0.42-0.56-0.74l0.45-0.16c0.09,0.34,0.41,0.74,1.05,0.74c0.64,0,0.95-0.34,0.95-0.74
		c0-0.48-0.49-0.6-0.8-0.66c-0.14-0.03-0.3-0.06-0.45-0.09c-0.34-0.08-0.97-0.23-0.97-0.96c0-0.38,0.22-1.04,1.34-1.04
		c0.37,0,0.66,0.09,0.87,0.21c0.34,0.2,0.43,0.52,0.46,0.63l-0.45,0.11c-0.02-0.1-0.07-0.28-0.32-0.42
		c-0.16-0.09-0.37-0.13-0.59-0.13c-0.28,0-0.86,0.07-0.86,0.63c0,0.41,0.37,0.51,0.78,0.6L63.85,27.1"/>
	<path class="st0" d="M69.05,28.22c-0.05,0.13-0.16,0.35-0.35,0.56c-0.11,0.12-0.47,0.52-1.28,0.52c-1.24,0-1.78-0.95-1.78-1.99
		c0-1.23,0.81-1.92,1.72-1.92c1.13,0,1.71,0.99,1.68,1.96h-2.89c-0.01,0.2,0.01,0.49,0.12,0.77c0.3,0.77,0.99,0.77,1.15,0.77
		c0.41,0,0.88-0.14,1.2-0.78L69.05,28.22 M68.53,26.97c-0.04-0.33-0.14-0.65-0.39-0.88c-0.16-0.14-0.41-0.28-0.77-0.28
		c-0.64,0-1.11,0.45-1.2,1.17H68.53z"/>
	<path class="st0" d="M73.81,25.87h-0.84v3.34H72.5v-3.34h-0.82v-0.39h0.82v-0.71c0.01-0.56,0.01-0.6,0.06-0.73
		c0.11-0.31,0.38-0.45,0.77-0.45c0.17,0,0.33,0.03,0.48,0.05v0.46c-0.12-0.05-0.22-0.09-0.44-0.09c-0.08,0-0.27,0-0.36,0.21
		c-0.04,0.09-0.04,0.12-0.05,0.52v0.75h0.84V25.87"/>
	<path class="st0" d="M75.97,29.3c-1.09,0-1.68-0.86-1.68-1.91c0-0.97,0.49-2,1.7-2c1.18,0,1.68,0.97,1.69,1.93
		C77.69,28.45,77.03,29.3,75.97,29.3 M76,25.78c-0.33,0-0.65,0.13-0.86,0.38c-0.32,0.38-0.35,0.93-0.35,1.24
		c0,1.06,0.55,1.49,1.19,1.49c0.82,0,1.21-0.65,1.21-1.52C77.19,27.17,77.2,25.78,76,25.78"/>
	<path class="st0" d="M79.07,29.21h-0.45v-3.73h0.45v0.59c0.24-0.49,0.63-0.66,1.09-0.66c0.11,0,0.16,0.01,0.26,0.02v0.42
		c-0.14-0.02-0.16-0.02-0.28-0.02c-0.13,0-0.49,0.01-0.77,0.3c-0.29,0.32-0.29,0.7-0.3,1.47V29.21"/>
	<polygon class="st0" points="86.81,29.21 83.23,29.21 83.23,23.68 83.76,23.68 83.76,28.72 86.81,28.72 	"/>
	<path class="st0" d="M88.03,24.6h-0.45v-0.71h0.45V24.6z M88.03,29.21h-0.45v-3.73h0.45V29.21z"/>
	<path class="st0" d="M90.92,25.87h-0.84v3.34h-0.46v-3.34H88.8v-0.39h0.82v-0.71c0.01-0.56,0.01-0.6,0.05-0.73
		c0.11-0.31,0.38-0.45,0.77-0.45c0.17,0,0.33,0.03,0.48,0.05v0.46c-0.12-0.05-0.22-0.09-0.44-0.09c-0.08,0-0.27,0-0.36,0.21
		c-0.04,0.09-0.04,0.12-0.05,0.52v0.75h0.84V25.87"/>
	<path class="st0" d="M94.66,28.22c-0.05,0.13-0.16,0.35-0.35,0.56c-0.11,0.12-0.47,0.52-1.27,0.52c-1.24,0-1.78-0.95-1.78-1.99
		c0-1.23,0.81-1.92,1.72-1.92c1.13,0,1.71,0.99,1.68,1.96h-2.89c-0.01,0.2,0.01,0.49,0.12,0.77c0.3,0.77,0.99,0.77,1.15,0.77
		c0.41,0,0.88-0.14,1.2-0.78L94.66,28.22 M94.13,26.97c-0.04-0.33-0.14-0.65-0.39-0.88c-0.16-0.14-0.41-0.28-0.78-0.28
		c-0.64,0-1.11,0.45-1.2,1.17H94.13z"/>
	<path class="st0" d="M44.29,5.66l3.09,9.23c0.37,1.13,0.63,1.39,1.27,1.39h0.63v1.62h-6.74v-1.62h0.55c0.56,0,1.02-0.07,1.02-0.28
		c0-0.19-0.02-0.39-0.09-0.66L43.63,14h-3.77l-0.22,0.74c-0.2,0.65-0.28,0.92-0.28,1.18c0,0.3,0.65,0.35,1.15,0.35h0.53v1.62h-5.43
		v-1.62h0.63c0.65,0,0.9-0.26,1.28-1.39l3.08-9.23H44.29 M40.39,12.38h2.68l-1.33-3.97h-0.04L40.39,12.38z"/>
	<path class="st0" d="M50.35,7.93c0-0.52-0.13-0.79-0.66-0.79h-0.85V5.66h4.58v4.6c0.68-0.78,1.55-1.27,2.38-1.27
		c2.77,0,3.8,2.16,3.8,4.6c0,2.43-1.03,4.59-3.8,4.59c-1.16,0-2.2-0.4-2.84-1.42l-0.53,1.15h-2.07V7.93 M53.41,13.58
		c0,1.88,0.42,3.01,1.46,3.01c1.04,0,1.46-1.13,1.46-3.01c0-1.88-0.42-3.01-1.46-3.01C53.83,10.57,53.41,11.7,53.41,13.58"/>
	<path class="st0" d="M60.7,7.93c0-0.52-0.13-0.79-0.66-0.79h-0.85V5.66h4.58v4.6c0.68-0.78,1.55-1.27,2.38-1.27
		c2.77,0,3.8,2.16,3.8,4.6c0,2.43-1.04,4.59-3.8,4.59c-1.17,0-2.2-0.4-2.84-1.42l-0.53,1.15H60.7V7.93 M63.77,13.58
		c0,1.88,0.42,3.01,1.46,3.01c1.03,0,1.46-1.13,1.46-3.01c0-1.88-0.42-3.01-1.46-3.01C64.19,10.57,63.77,11.7,63.77,13.58"/>
	<path class="st0" d="M80.36,13.58c0,2.95-2.01,4.59-4.76,4.59c-2.75,0-4.76-1.64-4.76-4.59c0-2.95,2.01-4.6,4.76-4.6
		C78.35,8.98,80.36,10.62,80.36,13.58 M74.1,13.58c0,2.18,0.39,3.12,1.5,3.12c1.11,0,1.5-0.94,1.5-3.12c0-2.18-0.39-3.12-1.5-3.12
		C74.49,10.46,74.1,11.4,74.1,13.58"/>
	<path class="st0" d="M93.52,13.73v1.44c0,0.85-0.18,1.35-0.89,1.35c-0.43,0-0.63-0.32-0.63-0.7v-5.08h2.27V9.26h-2.27V5.83h-1.83
		c-0.15,1.53-0.63,3.43-2.47,3.43h-2.88V5.83H83c-0.15,1.53-0.63,3.43-2.47,3.43v1.47h1.24v4.64c0,1.88,1.05,2.8,2.95,2.8
		c2.22,0,3.1-0.99,3.1-2.8v-1.64h-1.47v1.44c0,0.85-0.19,1.35-0.89,1.35c-0.42,0-0.63-0.32-0.63-0.7v-5.08h4.12v4.64
		c0,1.88,1.05,2.8,2.95,2.8c2.22,0,3.1-0.99,3.1-2.8v-1.64H93.52"/>
</g>
</svg>
