<?xml version="1.0" encoding="utf-8"?>
<!-- Generator: Adobe Illustrator 26.0.1, SVG Export Plug-In . SVG Version: 6.00 Build 0)  -->
<svg version="1.1" id="Layer_1" xmlns="http://www.w3.org/2000/svg" xmlns:xlink="http://www.w3.org/1999/xlink" x="0px" y="0px"
	 viewBox="0 0 95 35" style="enable-background:new 0 0 95 35;" xml:space="preserve">
<style type="text/css">
	.st0{fill:#343741;}
</style>
<g>
	<path class="st0" d="M6.93,25.34c0,1.58-0.63,3.69-2.58,3.72c-0.95-0.04-1.54-0.52-1.54-1.51C2.81,25.7,5.55,25.34,6.93,25.34
		L6.93,25.34z M9.67,30.81v-8.84c0.04-2.85-1.86-3.84-4.48-3.84c-2.58,0-4.71,1.11-4.71,3.92h2.81c0-1.23,0.67-1.9,1.9-1.9
		c1.43,0,1.74,1.03,1.74,2.26v1.23c-2.81,0.08-6.89,0.48-6.93,4.2c0.04,2.1,1.7,3.25,3.64,3.25c1.39,0,2.61-0.48,3.21-1.7h0.08v1.43
		H9.67L9.67,30.81z"/>
	<path class="st0" d="M18.22,22.65c0-1.27-0.36-2.5-1.86-2.5c-1.82,0-2.34,1.9-2.38,3.41c0.04,3.09,1.82,5.47,5.11,5.51
		c0.71-0.04,1.39-0.12,2.06-0.32v1.74c-1.15,0.36-2.38,0.59-3.61,0.59c-4.4,0-6.62-2.73-6.62-7.01c0-3.61,1.94-5.94,5.67-5.94
		c3.01,0,4.71,1.47,4.71,4.52H18.22L18.22,22.65z"/>
	<path class="st0" d="M29.32,22.65c0-1.27-0.36-2.5-1.86-2.5c-1.82,0-2.38,1.9-2.38,3.41c0,3.09,1.82,5.47,5.07,5.51
		c0.71-0.04,1.43-0.12,2.1-0.32v1.74c-1.15,0.36-2.38,0.59-3.6,0.59c-4.4,0-6.62-2.73-6.62-7.01c0-3.61,1.94-5.94,5.67-5.94
		c3.01,0,4.67,1.47,4.67,4.52H29.32L29.32,22.65z"/>
	<path class="st0" d="M40.61,22.14h-4.52C36.25,20.87,37.2,20,38.43,20C39.77,20,40.61,20.79,40.61,22.14L40.61,22.14z M43.34,23.88
		v-0.71c0-3.05-1.54-5.03-4.71-5.03c-3.68,0-5.27,2.3-5.31,5.82c0.04,4.08,1.86,7.13,6.26,7.13c1.19,0,2.34-0.16,3.45-0.52v-1.98
		c-0.71,0.24-1.58,0.44-2.38,0.48c-2.77-0.04-4.64-2.57-4.64-5.19H43.34L43.34,23.88z"/>
	<path class="st0" d="M51.9,30.81v-7.09c0-0.59,0.04-2.18-0.44-2.65c-0.2-0.2-0.56-0.24-0.83-0.24c-2.1,0-2.93,2.93-2.93,4.64v5.35
		h-2.89v-12.4h2.89v2.34h0.04c0.67-1.58,1.94-2.61,3.68-2.61c2.38,0,3.37,1.94,3.37,4.08v8.6H51.9L51.9,30.81z"/>
	<path class="st0" d="M60.77,20.43v5.86c0,1.43,0.16,2.73,1.94,2.77c0.48-0.04,0.91-0.12,1.35-0.24v2.06
		c-0.79,0.12-1.58,0.2-2.38,0.2c-2.5,0-3.76-0.83-3.8-3.41v-7.25h-2.42v-2.02h2.42v-2.93l2.89-1.15v4.08h3.68v2.02H60.77
		L60.77,20.43z"/>
	<path class="st0" d="M72.78,30.81v-2.34h-0.04c-0.63,1.55-1.9,2.61-3.68,2.61c-2.34,0-3.33-1.98-3.33-4.08v-8.6h2.89v7.09
		c0,0.6-0.04,2.18,0.44,2.65c0.2,0.2,0.55,0.2,0.83,0.24c2.06-0.04,2.89-2.97,2.89-4.6v-5.39h2.89v12.4H72.78L72.78,30.81z"/>
	<path class="st0" d="M80.38,25.38v5.43h-2.89v-12.4h2.89v2.3h0.04c0.99-1.7,1.94-2.57,4-2.57v3.01
		C81.49,21.15,80.38,22.45,80.38,25.38L80.38,25.38z"/>
	<path class="st0" d="M92.27,22.14h-4.52c0.16-1.27,1.11-2.14,2.34-2.14C91.43,20,92.31,20.79,92.27,22.14L92.27,22.14z M95,23.88
		v-0.71c0-3.05-1.54-5.03-4.67-5.03c-3.68,0-5.31,2.3-5.31,5.82c0,4.08,1.86,7.13,6.22,7.13c1.19,0,2.34-0.16,3.45-0.52v-1.98
		c-0.71,0.24-1.54,0.44-2.34,0.48c-2.81-0.04-4.64-2.57-4.67-5.19H95L95,23.88z"/>
	<path class="st0" d="M55.46,3.91v2.02c0,0,5.78,2.22,6.62,2.58c-0.83,0.32-6.62,2.54-6.62,2.54v2.02l8.99-3.64V7.56L55.46,3.91
		L55.46,3.91z"/>
</g>
</svg>
