<?xml version="1.0" encoding="utf-8"?>
<!-- Generator: Adobe Illustrator 26.0.1, SVG Export Plug-In . SVG Version: 6.00 Build 0)  -->
<svg version="1.1" id="Layer_1" xmlns="http://www.w3.org/2000/svg" xmlns:xlink="http://www.w3.org/1999/xlink" x="0px" y="0px"
	 viewBox="0 0 95 35" style="enable-background:new 0 0 95 35;" xml:space="preserve">
<style type="text/css">
	.st0{fill:#FFFFFF;}
</style>
<g>
	<path class="st0" d="M82.48,23.38c-4.36,0-4.31-3.35-4.31-3.35h1.97c0,0-0.15,1.63,2.05,1.77c0.54,0.03,2.32-0.2,2.32-1.43
		c0-1.43-1.8-1.36-2.93-1.67c-1.13-0.3-3.28-0.79-3.28-2.78c0-1.75,1.43-3.25,4.19-3.25c3.7,0.02,3.67,2.88,3.7,3.06h-1.9
		c-0.13-0.42-0.25-1.43-1.9-1.48c-0.81,0-2.04,0.27-2.04,1.23c0,1.21,1.38,1.38,2.83,1.6c2.19,0.42,3.45,1.09,3.37,3.1
		C86.5,21.95,84.92,23.38,82.48,23.38"/>
	<path class="st0" d="M84.4,10.22V9.24c-0.22,0.2-1.21,1.45-3.05,1.4c-6.31-0.15-6.33-10.49,0.3-10.62c1.6,0,2.93,1.01,3.45,1.72
		c0.62,0.81,0.66,1.5,0.69,1.68h-1.75c-0.39-0.64-1.01-1.72-2.46-1.72c-3.84-0.05-4.09,7.22-0.03,7.29c1.8,0.05,2.71-1.82,2.71-1.85
		V6.6h-2.46V5h4.24v5.22H84.4z"/>
	<polygon class="st0" points="70.51,23.11 70.51,12.81 77.82,12.81 77.82,14.68 72.48,14.68 72.48,16.8 77.21,16.8 77.21,18.65 
		72.5,18.65 72.5,21.36 78.07,21.36 78.07,23.11 	"/>
	<path class="st0" d="M65.61,23.35c-5.64,0.12-6.63-10.76,0.02-10.69c3.7,0,4.34,3.08,4.48,3.55h-2.04
		c-0.32-0.64-1.16-1.87-2.19-1.95c-3.65-0.25-3.65,7.46,0,7.46c1.75,0,2.17-1.75,2.27-1.95h2C70.14,19.81,69.89,23.3,65.61,23.35"/>
	<polygon class="st0" points="59.87,10.47 59.87,0.15 61.91,0.15 61.91,8.72 66.52,8.72 66.52,10.47 	"/>
	<rect x="57.97" y="12.83" class="st0" width="2.19" height="10.25"/>
	<polygon class="st0" points="54.03,23.08 52.06,23.08 48.66,13.35 48.66,12.81 50.73,12.81 53.04,20.35 55.31,12.83 57.33,12.83 
		57.33,13.38 	"/>
	<polygon class="st0" points="47.55,10.47 43.02,3.5 43.02,10.47 40.95,10.47 40.95,0.15 43.07,0.15 47.43,7.02 47.43,0.15 
		49.5,0.15 49.5,10.47 	"/>
	<polygon class="st0" points="40.41,23.11 40.41,12.81 47.99,12.81 47.99,14.53 42.47,14.53 42.47,16.73 47.35,16.73 47.35,18.6 
		42.5,18.6 42.5,21.36 48.17,21.36 48.17,23.11 	"/>
	<path class="st0" d="M5.92,31.24l0.59,1.99H5.27L5.92,31.24z M5.52,30.29l-1.58,4.67h0.77l0.36-1.12h1.62l0.34,1.12H7.8l-1.49-4.67
		H5.52z"/>
	<polygon class="st0" points="10.91,34.96 10.91,32.93 9.01,32.93 9.01,34.96 8.29,34.96 8.29,30.29 9.01,30.29 9.01,32.32 
		10.91,32.32 10.91,30.29 11.64,30.29 11.64,34.96 	"/>
	<polygon class="st0" points="12.55,34.96 12.55,30.29 15.39,30.29 15.39,30.9 13.27,30.9 13.27,32.32 14.83,32.32 14.83,32.93 
		13.27,32.93 13.27,34.35 15.39,34.35 15.39,34.96 	"/>
	<path class="st0" d="M18.72,34.96l-0.34-1.12h-1.62l-0.36,1.12h-0.77l1.58-4.67h0.79l1.49,4.67H18.72z M17.62,31.24l-0.64,1.99
		h1.23L17.62,31.24z"/>
	<path class="st0" d="M19.99,34.96v-4.67h1.86c0.13,0,0.25,0.01,0.36,0.03c0.11,0.02,0.21,0.04,0.29,0.08
		c0.09,0.03,0.17,0.07,0.24,0.12c0.07,0.05,0.14,0.1,0.2,0.16c0.08,0.08,0.14,0.17,0.19,0.28c0.05,0.11,0.09,0.24,0.13,0.4
		c0.03,0.16,0.05,0.34,0.07,0.55c0.01,0.21,0.02,0.45,0.02,0.72c0,0.27-0.01,0.51-0.02,0.72c-0.01,0.21-0.04,0.39-0.07,0.55
		c-0.03,0.16-0.07,0.29-0.13,0.4c-0.05,0.11-0.12,0.2-0.19,0.28c-0.06,0.06-0.13,0.11-0.2,0.16c-0.07,0.05-0.15,0.09-0.24,0.12
		c-0.09,0.03-0.19,0.06-0.29,0.08c-0.11,0.02-0.23,0.03-0.36,0.03H19.99z M21.87,34.35c0.15,0,0.26-0.02,0.35-0.06
		c0.09-0.04,0.16-0.1,0.22-0.18c0.03-0.04,0.06-0.09,0.08-0.15c0.02-0.06,0.04-0.14,0.05-0.25c0.01-0.11,0.03-0.25,0.03-0.42
		c0.01-0.17,0.01-0.39,0.01-0.66c0-0.27,0-0.49-0.01-0.66c-0.01-0.17-0.02-0.31-0.03-0.42c-0.01-0.11-0.03-0.19-0.05-0.25
		c-0.02-0.06-0.05-0.11-0.08-0.15c-0.06-0.08-0.13-0.14-0.22-0.18c-0.09-0.04-0.21-0.06-0.35-0.06h-1.15v3.46H21.87z"/>
	<path class="st0" d="M28.96,34.57c-0.06,0.07-0.14,0.13-0.22,0.18c-0.08,0.05-0.18,0.1-0.29,0.13c-0.11,0.04-0.24,0.07-0.38,0.08
		c-0.14,0.02-0.31,0.03-0.5,0.03c-0.19,0-0.35-0.01-0.5-0.03c-0.14-0.02-0.27-0.05-0.38-0.08c-0.11-0.04-0.21-0.08-0.29-0.13
		c-0.08-0.05-0.16-0.11-0.22-0.18c-0.07-0.07-0.14-0.17-0.19-0.28c-0.05-0.11-0.09-0.24-0.12-0.4c-0.03-0.16-0.05-0.34-0.07-0.55
		c-0.01-0.21-0.02-0.45-0.02-0.72c0-0.27,0.01-0.51,0.02-0.72c0.01-0.21,0.04-0.39,0.07-0.55c0.03-0.16,0.07-0.29,0.12-0.4
		c0.05-0.11,0.11-0.2,0.19-0.28c0.06-0.07,0.14-0.13,0.22-0.18c0.08-0.05,0.18-0.1,0.29-0.13c0.11-0.04,0.24-0.06,0.38-0.08
		c0.14-0.02,0.31-0.03,0.5-0.03c0.19,0,0.35,0.01,0.5,0.03c0.14,0.02,0.27,0.05,0.38,0.08c0.11,0.04,0.21,0.08,0.29,0.13
		c0.08,0.05,0.16,0.11,0.22,0.18c0.07,0.07,0.13,0.17,0.19,0.28c0.05,0.11,0.09,0.25,0.13,0.4c0.03,0.16,0.05,0.34,0.07,0.55
		c0.01,0.21,0.02,0.45,0.02,0.72c0,0.27-0.01,0.51-0.02,0.72c-0.01,0.21-0.04,0.39-0.07,0.55c-0.03,0.16-0.07,0.29-0.13,0.4
		C29.09,34.41,29.03,34.5,28.96,34.57 M28.43,34.09c0.03-0.04,0.06-0.09,0.09-0.16c0.02-0.06,0.04-0.15,0.06-0.25
		c0.01-0.11,0.03-0.25,0.03-0.41c0.01-0.17,0.01-0.38,0.01-0.64c0-0.26,0-0.47-0.01-0.64c-0.01-0.17-0.02-0.31-0.03-0.42
		c-0.01-0.11-0.03-0.19-0.06-0.25c-0.03-0.06-0.05-0.11-0.09-0.16c-0.08-0.1-0.18-0.17-0.31-0.22c-0.13-0.05-0.31-0.08-0.54-0.08
		c-0.23,0-0.41,0.03-0.54,0.08c-0.13,0.05-0.24,0.13-0.31,0.22c-0.03,0.04-0.06,0.09-0.09,0.16c-0.02,0.06-0.04,0.14-0.06,0.25
		c-0.02,0.11-0.03,0.25-0.04,0.42c-0.01,0.17-0.01,0.38-0.01,0.64c0,0.26,0,0.47,0.01,0.64c0.01,0.17,0.02,0.31,0.04,0.41
		c0.02,0.11,0.04,0.19,0.06,0.25c0.02,0.06,0.05,0.11,0.09,0.16c0.07,0.1,0.18,0.17,0.31,0.22c0.13,0.05,0.31,0.08,0.54,0.08
		c0.23,0,0.41-0.03,0.54-0.08C28.25,34.26,28.35,34.19,28.43,34.09"/>
	<polygon class="st0" points="30.21,34.96 30.21,30.29 33.05,30.29 33.05,30.9 30.93,30.9 30.93,32.32 32.49,32.32 32.49,32.93 
		30.93,32.93 30.93,34.96 	"/>
	<polygon class="st0" points="38.55,34.96 37.75,32.2 36.92,34.96 36.14,34.96 34.93,30.29 35.69,30.29 36.54,33.97 37.42,31.15 
		38.12,31.15 38.94,33.93 39.83,30.29 40.59,30.29 39.31,34.96 	"/>
	<polygon class="st0" points="43.74,34.96 43.74,32.93 41.84,32.93 41.84,34.96 41.12,34.96 41.12,30.29 41.84,30.29 41.84,32.32 
		43.74,32.32 43.74,30.29 44.47,30.29 44.47,34.96 	"/>
	<path class="st0" d="M48.04,34.96l-0.34-1.12h-1.61l-0.36,1.12h-0.77l1.58-4.67h0.78l1.49,4.67H48.04z M46.94,31.24l-0.64,1.99
		h1.23L46.94,31.24z"/>
	<polygon class="st0" points="49.73,34.96 49.73,30.9 48.55,30.9 48.55,30.29 51.64,30.29 51.64,30.9 50.46,30.9 50.46,34.96 	"/>
	<path class="st0" d="M52.06,31.52c0.07,0,0.13-0.01,0.17-0.03c0.04-0.01,0.08-0.04,0.1-0.07c0.02-0.03,0.04-0.07,0.05-0.12
		c0.01-0.05,0.01-0.12,0.01-0.19v-0.14h-0.3v-0.68h0.64v0.74c0,0.13-0.01,0.24-0.03,0.33c-0.02,0.09-0.05,0.16-0.1,0.22
		c-0.05,0.06-0.11,0.1-0.18,0.14c-0.07,0.03-0.16,0.06-0.27,0.08L52.06,31.52z"/>
	<path class="st0" d="M55.76,31.44c0-0.06-0.02-0.13-0.03-0.2c-0.02-0.07-0.06-0.13-0.11-0.19c-0.06-0.06-0.14-0.1-0.25-0.14
		c-0.11-0.04-0.26-0.05-0.46-0.05c-0.3,0-0.54,0.05-0.7,0.16c-0.16,0.1-0.24,0.27-0.24,0.5c0,0.12,0.03,0.21,0.09,0.28
		c0.06,0.07,0.13,0.12,0.23,0.16c0.1,0.04,0.21,0.07,0.33,0.09c0.13,0.02,0.26,0.04,0.4,0.05c0.11,0.01,0.22,0.03,0.34,0.05
		c0.12,0.02,0.24,0.05,0.35,0.08c0.11,0.04,0.22,0.08,0.33,0.14c0.1,0.06,0.19,0.14,0.27,0.23c0.08,0.1,0.14,0.21,0.19,0.35
		c0.05,0.14,0.07,0.3,0.07,0.5c0,0.25-0.04,0.47-0.12,0.67c-0.08,0.19-0.19,0.35-0.33,0.48c-0.15,0.13-0.32,0.23-0.53,0.29
		c-0.21,0.07-0.44,0.1-0.7,0.1c-0.27,0-0.49-0.03-0.67-0.1c-0.18-0.07-0.34-0.15-0.46-0.25c-0.12-0.1-0.22-0.21-0.28-0.33
		c-0.07-0.12-0.12-0.23-0.15-0.34c-0.03-0.11-0.05-0.21-0.06-0.29c-0.01-0.08-0.01-0.14-0.01-0.17h0.71c0,0.1,0.01,0.21,0.04,0.31
		c0.03,0.1,0.08,0.2,0.15,0.28c0.07,0.08,0.16,0.15,0.28,0.2c0.12,0.05,0.26,0.08,0.44,0.08c0.15,0,0.28-0.02,0.39-0.05
		c0.12-0.04,0.22-0.09,0.3-0.16c0.08-0.07,0.15-0.16,0.19-0.27c0.04-0.11,0.07-0.24,0.07-0.38c0-0.15-0.03-0.27-0.08-0.36
		c-0.05-0.09-0.13-0.16-0.23-0.21c-0.1-0.05-0.23-0.09-0.38-0.11c-0.15-0.03-0.33-0.05-0.53-0.08c-0.17-0.03-0.34-0.06-0.5-0.1
		c-0.16-0.04-0.31-0.1-0.44-0.19c-0.13-0.08-0.23-0.19-0.31-0.33c-0.08-0.14-0.12-0.32-0.12-0.54c0-0.04,0-0.11,0.01-0.2
		c0.01-0.09,0.03-0.18,0.07-0.28c0.03-0.1,0.09-0.2,0.16-0.31c0.07-0.1,0.16-0.2,0.28-0.28c0.12-0.08,0.27-0.15,0.45-0.21
		c0.18-0.05,0.39-0.08,0.65-0.08c0.22,0,0.4,0.01,0.55,0.04c0.15,0.02,0.27,0.05,0.37,0.09c0.1,0.04,0.18,0.08,0.24,0.13
		c0.06,0.05,0.11,0.1,0.16,0.15c0.1,0.11,0.18,0.23,0.22,0.36c0.04,0.13,0.07,0.27,0.07,0.41H55.76z"/>
	<path class="st0" d="M58.94,34.96v-4.67h1.79c0.22,0,0.41,0.04,0.58,0.11c0.17,0.07,0.32,0.17,0.44,0.3
		c0.12,0.13,0.21,0.29,0.27,0.47c0.06,0.18,0.09,0.39,0.09,0.62c0,0.23-0.04,0.44-0.11,0.62c-0.07,0.18-0.17,0.34-0.29,0.47
		c-0.12,0.13-0.27,0.23-0.44,0.3c-0.17,0.07-0.35,0.11-0.55,0.11h-1.06v1.67H58.94z M60.51,32.69c0.09,0,0.19-0.01,0.29-0.05
		c0.1-0.03,0.2-0.08,0.28-0.15c0.09-0.07,0.16-0.16,0.21-0.27c0.06-0.11,0.08-0.26,0.08-0.43c0-0.12-0.02-0.24-0.05-0.34
		c-0.03-0.11-0.08-0.2-0.14-0.29c-0.06-0.08-0.14-0.15-0.23-0.19c-0.09-0.05-0.2-0.07-0.31-0.07h-0.98v1.79H60.51z"/>
	<path class="st0" d="M65.9,34.57c-0.06,0.07-0.14,0.13-0.22,0.18c-0.08,0.05-0.18,0.1-0.29,0.13c-0.11,0.04-0.24,0.07-0.38,0.08
		C64.86,34.99,64.7,35,64.51,35c-0.19,0-0.35-0.01-0.5-0.03c-0.14-0.02-0.27-0.05-0.38-0.08c-0.11-0.04-0.21-0.08-0.29-0.13
		c-0.08-0.05-0.16-0.11-0.22-0.18c-0.07-0.07-0.14-0.17-0.19-0.28c-0.05-0.11-0.09-0.24-0.12-0.4c-0.03-0.16-0.05-0.34-0.07-0.55
		c-0.01-0.21-0.02-0.45-0.02-0.72c0-0.27,0.01-0.51,0.02-0.72c0.01-0.21,0.04-0.39,0.07-0.55c0.03-0.16,0.07-0.29,0.12-0.4
		c0.05-0.11,0.11-0.2,0.19-0.28c0.06-0.07,0.14-0.13,0.22-0.18c0.08-0.05,0.18-0.1,0.29-0.13c0.11-0.04,0.24-0.06,0.38-0.08
		c0.14-0.02,0.31-0.03,0.5-0.03c0.19,0,0.35,0.01,0.5,0.03c0.14,0.02,0.27,0.05,0.38,0.08c0.11,0.04,0.21,0.08,0.29,0.13
		c0.08,0.05,0.16,0.11,0.22,0.18c0.07,0.07,0.13,0.17,0.19,0.28c0.05,0.11,0.09,0.25,0.13,0.4c0.03,0.16,0.06,0.34,0.07,0.55
		c0.01,0.21,0.02,0.45,0.02,0.72c0,0.27-0.01,0.51-0.02,0.72c-0.01,0.21-0.04,0.39-0.07,0.55c-0.03,0.16-0.07,0.29-0.13,0.4
		C66.03,34.41,65.97,34.5,65.9,34.57 M65.36,34.09c0.03-0.04,0.06-0.09,0.08-0.16c0.02-0.06,0.04-0.15,0.06-0.25
		c0.02-0.11,0.03-0.25,0.03-0.41c0.01-0.17,0.01-0.38,0.01-0.64c0-0.26,0-0.47-0.01-0.64c-0.01-0.17-0.02-0.31-0.03-0.42
		c-0.02-0.11-0.04-0.19-0.06-0.25c-0.02-0.06-0.05-0.11-0.08-0.16c-0.08-0.1-0.18-0.17-0.31-0.22c-0.13-0.05-0.31-0.08-0.54-0.08
		c-0.23,0-0.41,0.03-0.54,0.08c-0.13,0.05-0.24,0.13-0.31,0.22c-0.03,0.04-0.06,0.09-0.09,0.16c-0.02,0.06-0.04,0.14-0.06,0.25
		c-0.02,0.11-0.03,0.25-0.04,0.42c-0.01,0.17-0.01,0.38-0.01,0.64c0,0.26,0,0.47,0.01,0.64c0.01,0.17,0.02,0.31,0.04,0.41
		c0.02,0.11,0.04,0.19,0.06,0.25c0.02,0.06,0.05,0.11,0.09,0.16c0.07,0.1,0.18,0.17,0.31,0.22c0.13,0.05,0.31,0.08,0.54,0.08
		c0.23,0,0.41-0.03,0.54-0.08C65.18,34.26,65.29,34.19,65.36,34.09"/>
	<path class="st0" d="M69.51,31.44c0-0.06-0.01-0.13-0.03-0.2c-0.02-0.07-0.06-0.13-0.11-0.19c-0.06-0.06-0.14-0.1-0.25-0.14
		c-0.11-0.04-0.26-0.05-0.46-0.05c-0.3,0-0.54,0.05-0.7,0.16c-0.16,0.1-0.24,0.27-0.24,0.5c0,0.12,0.03,0.21,0.09,0.28
		c0.06,0.07,0.13,0.12,0.23,0.16c0.1,0.04,0.21,0.07,0.33,0.09c0.13,0.02,0.26,0.04,0.4,0.05c0.11,0.01,0.22,0.03,0.34,0.05
		c0.12,0.02,0.24,0.05,0.35,0.08c0.11,0.04,0.22,0.08,0.33,0.14c0.1,0.06,0.19,0.14,0.27,0.23c0.08,0.1,0.14,0.21,0.19,0.35
		c0.05,0.14,0.07,0.3,0.07,0.5c0,0.25-0.04,0.47-0.12,0.67c-0.08,0.19-0.19,0.35-0.33,0.48c-0.15,0.13-0.32,0.23-0.53,0.29
		c-0.21,0.07-0.44,0.1-0.7,0.1c-0.27,0-0.49-0.03-0.67-0.1c-0.18-0.07-0.34-0.15-0.46-0.25c-0.12-0.1-0.22-0.21-0.28-0.33
		c-0.07-0.12-0.12-0.23-0.15-0.34C67.02,33.88,67,33.78,67,33.69c-0.01-0.08-0.01-0.14-0.01-0.17h0.71c0,0.1,0.01,0.21,0.05,0.31
		c0.03,0.1,0.08,0.2,0.15,0.28c0.07,0.08,0.16,0.15,0.28,0.2c0.12,0.05,0.26,0.08,0.44,0.08c0.14,0,0.28-0.02,0.39-0.05
		c0.12-0.04,0.22-0.09,0.3-0.16c0.08-0.07,0.15-0.16,0.19-0.27c0.04-0.11,0.07-0.24,0.07-0.38c0-0.15-0.03-0.27-0.08-0.36
		c-0.05-0.09-0.13-0.16-0.23-0.21c-0.1-0.05-0.23-0.09-0.38-0.11c-0.15-0.03-0.33-0.05-0.53-0.08c-0.17-0.03-0.34-0.06-0.5-0.1
		c-0.16-0.04-0.31-0.1-0.44-0.19c-0.13-0.08-0.23-0.19-0.31-0.33c-0.08-0.14-0.12-0.32-0.12-0.54c0-0.04,0-0.11,0.01-0.2
		c0.01-0.09,0.03-0.18,0.07-0.28c0.03-0.1,0.09-0.2,0.16-0.31c0.07-0.1,0.16-0.2,0.28-0.28c0.12-0.08,0.27-0.15,0.45-0.21
		c0.18-0.05,0.39-0.08,0.65-0.08c0.22,0,0.4,0.01,0.55,0.04c0.15,0.02,0.27,0.05,0.37,0.09c0.1,0.04,0.18,0.08,0.24,0.13
		c0.06,0.05,0.11,0.1,0.16,0.15c0.1,0.11,0.18,0.23,0.22,0.36c0.04,0.13,0.07,0.27,0.07,0.41H69.51z"/>
	<path class="st0" d="M73.41,31.44c0-0.06-0.02-0.13-0.03-0.2c-0.02-0.07-0.06-0.13-0.11-0.19c-0.06-0.06-0.14-0.1-0.25-0.14
		c-0.11-0.04-0.26-0.05-0.46-0.05c-0.3,0-0.54,0.05-0.7,0.16c-0.16,0.1-0.24,0.27-0.24,0.5c0,0.12,0.03,0.21,0.09,0.28
		c0.06,0.07,0.13,0.12,0.23,0.16c0.1,0.04,0.21,0.07,0.33,0.09c0.13,0.02,0.26,0.04,0.4,0.05c0.11,0.01,0.22,0.03,0.34,0.05
		c0.12,0.02,0.24,0.05,0.35,0.08c0.11,0.04,0.22,0.08,0.33,0.14c0.1,0.06,0.19,0.14,0.27,0.23c0.08,0.1,0.14,0.21,0.19,0.35
		c0.05,0.14,0.07,0.3,0.07,0.5c0,0.25-0.04,0.47-0.12,0.67c-0.08,0.19-0.19,0.35-0.33,0.48c-0.15,0.13-0.32,0.23-0.53,0.29
		c-0.21,0.07-0.44,0.1-0.7,0.1c-0.27,0-0.49-0.03-0.67-0.1c-0.18-0.07-0.34-0.15-0.46-0.25c-0.12-0.1-0.22-0.21-0.28-0.33
		c-0.07-0.12-0.12-0.23-0.15-0.34c-0.03-0.11-0.05-0.21-0.06-0.29c-0.01-0.08-0.01-0.14-0.01-0.17h0.71c0,0.1,0.01,0.21,0.04,0.31
		c0.03,0.1,0.08,0.2,0.15,0.28c0.07,0.08,0.16,0.15,0.28,0.2c0.12,0.05,0.26,0.08,0.44,0.08c0.15,0,0.28-0.02,0.39-0.05
		c0.12-0.04,0.22-0.09,0.3-0.16c0.08-0.07,0.15-0.16,0.19-0.27c0.04-0.11,0.07-0.24,0.07-0.38c0-0.15-0.03-0.27-0.08-0.36
		c-0.05-0.09-0.13-0.16-0.23-0.21c-0.1-0.05-0.23-0.09-0.38-0.11c-0.15-0.03-0.33-0.05-0.53-0.08c-0.17-0.03-0.34-0.06-0.5-0.1
		c-0.16-0.04-0.31-0.1-0.44-0.19c-0.13-0.08-0.23-0.19-0.31-0.33c-0.08-0.14-0.12-0.32-0.12-0.54c0-0.04,0-0.11,0.01-0.2
		c0.01-0.09,0.03-0.18,0.07-0.28c0.03-0.1,0.09-0.2,0.16-0.31c0.07-0.1,0.16-0.2,0.28-0.28c0.12-0.08,0.27-0.15,0.45-0.21
		c0.18-0.05,0.39-0.08,0.65-0.08c0.22,0,0.4,0.01,0.55,0.04c0.15,0.02,0.27,0.05,0.37,0.09c0.1,0.04,0.18,0.08,0.24,0.13
		c0.06,0.05,0.11,0.1,0.16,0.15c0.1,0.11,0.18,0.23,0.22,0.36c0.04,0.13,0.07,0.27,0.07,0.41H73.41z"/>
	<rect x="74.97" y="30.29" class="st0" width="0.72" height="4.67"/>
	<path class="st0" d="M76.62,34.96v-4.67h1.9c0.21,0,0.38,0.03,0.53,0.08c0.15,0.05,0.27,0.12,0.37,0.2
		c0.1,0.08,0.18,0.17,0.24,0.26c0.06,0.1,0.1,0.19,0.14,0.28c0.03,0.09,0.05,0.17,0.06,0.25c0.01,0.08,0.01,0.13,0.01,0.16
		c0,0.08-0.01,0.17-0.02,0.26c-0.02,0.09-0.05,0.19-0.09,0.28c-0.04,0.09-0.1,0.18-0.18,0.27c-0.07,0.09-0.17,0.16-0.29,0.23
		c0.21,0.1,0.37,0.24,0.48,0.42c0.11,0.18,0.16,0.38,0.16,0.61c0,0.05,0,0.12-0.01,0.21c-0.01,0.09-0.03,0.18-0.06,0.28
		c-0.03,0.1-0.08,0.2-0.14,0.31c-0.06,0.1-0.14,0.2-0.25,0.28c-0.11,0.08-0.23,0.15-0.39,0.2c-0.15,0.05-0.34,0.08-0.56,0.08H76.62z
		 M78.34,32.32c0.14,0,0.26-0.02,0.36-0.07c0.1-0.05,0.18-0.11,0.24-0.18c0.06-0.07,0.11-0.15,0.13-0.23
		c0.03-0.08,0.04-0.16,0.04-0.23c0-0.25-0.07-0.44-0.22-0.55c-0.14-0.11-0.35-0.17-0.62-0.17h-0.94v1.43H78.34z M78.5,34.35
		c0.11,0,0.21-0.02,0.29-0.07c0.09-0.05,0.16-0.1,0.21-0.17c0.06-0.07,0.1-0.15,0.13-0.23c0.03-0.09,0.04-0.17,0.04-0.25
		c0-0.11-0.02-0.21-0.05-0.29c-0.03-0.09-0.08-0.16-0.13-0.22c-0.06-0.06-0.13-0.11-0.2-0.14c-0.08-0.03-0.17-0.05-0.26-0.05h-1.2
		v1.42H78.5z"/>
	<polygon class="st0" points="80.67,34.96 80.67,30.29 81.39,30.29 81.39,34.35 83.21,34.35 83.21,34.96 	"/>
	<polygon class="st0" points="83.78,34.96 83.78,30.29 86.62,30.29 86.62,30.9 84.5,30.9 84.5,32.32 86.06,32.32 86.06,32.93 
		84.5,32.93 84.5,34.35 86.62,34.35 86.62,34.96 	"/>
	<polygon class="st0" points="87.86,32.53 87.86,30.58 87.29,30.58 87.29,30.28 88.78,30.28 88.78,30.58 88.21,30.58 88.21,32.53 	
		"/>
	<polygon class="st0" points="90.73,32.53 90.73,30.89 90.18,32.02 89.9,32.02 89.37,30.9 89.37,32.53 89.04,32.53 89.04,30.28 
		89.42,30.28 90.05,31.6 90.68,30.28 91.06,30.28 91.06,32.53 	"/>
	<path class="st0" d="M71.35,0c-6.45-0.05-6.7,10.64-0.07,10.64C77.75,10.64,77.58,0.05,71.35,0z M71.2,8.92
		c-3.77-0.03-3.65-7.19,0.07-7.17C75.02,1.8,75.02,8.94,71.2,8.92z"/>
	<path class="st0" d="M55.53,0.15h-2.09l-3.47,10.32h2.07l0.69-2.29h3.79l0.79,2.29h2.12L55.53,0.15z M55.83,6.72h-2.61V6.16
		l1.31-3.89l1.3,3.89c0.05,0.17,0.05,0.22,0.05,0.57H55.83z"/>
	<path class="st0" d="M36.66,0.15h-2.09l-3.47,10.32h2.07l0.69-2.29h3.79l0.79,2.29h2.12L36.66,0.15z M36.96,6.72h-2.56l0.07-0.64
		l1.16-3.77l1.31,3.79C36.98,6.31,36.96,6.38,36.96,6.72z"/>
	<path class="st0" d="M34.94,12.81h-3.99v10.3h3.97c3.18,0,4.75-2,4.75-4.98C39.67,15.15,37.89,12.81,34.94,12.81z M34.86,21.51
		h-1.75v-6.95h1.63c2.19,0,2.76,2.29,2.76,3.47C37.52,19.53,37.18,21.51,34.86,21.51z"/>
	<path class="st0" d="M4.19,0.25v23.11h22.98V0.25H4.19z M8.92,20.42V3.84l14.41,8.1L8.92,20.42z"/>
</g>
</svg>
