<?xml version="1.0" encoding="utf-8"?>
<!-- Generator: Adobe Illustrator 26.0.1, SVG Export Plug-In . SVG Version: 6.00 Build 0)  -->
<svg version="1.1" id="Layer_1" xmlns="http://www.w3.org/2000/svg" xmlns:xlink="http://www.w3.org/1999/xlink" x="0px" y="0px"
	 viewBox="0 0 95 35" style="enable-background:new 0 0 95 35;" xml:space="preserve">
<style type="text/css">
	.st0{fill:#FFFFFF;}
</style>
<g>
	<path class="st0" d="M47.68,33.13c-0.69,0.59-1.58,0.64-2.27,0.64h-1.07v-5.9h0.89c0.74,0,1.74,0.05,2.5,0.77
		c0.59,0.56,0.93,1.33,0.92,2.15c0,0.87-0.31,1.79-0.94,2.35 M48.09,27.18c-0.77-0.35-1.61-0.52-2.45-0.49h-2.89v8.3h2.83
		c0.85,0.05,1.69-0.12,2.45-0.49c1.51-0.77,2.17-2.27,2.17-3.75C50.21,29.27,49.57,27.89,48.09,27.18"/>
	<path class="st0" d="M59.22,26.69h-1.53l-2.15,4.83l-2.17-4.85h-1.58l-0.89,8.27h1.46l0.59-6.05l2.32,5.36
		c0.08,0.2,0.2,0.26,0.31,0.26s0.23-0.08,0.31-0.26l2.17-5.29l0.59,6.03h1.53L59.22,26.69z"/>
	<path class="st0" d="M39.1,32.26h-2.32v-0.08c0,0,0.77-1.74,1.23-2.89c0.41,1.17,1.05,2.89,1.05,2.89L39.1,32.26z M38.46,26.59
		c-0.1-0.23-0.18-0.31-0.33-0.31c-0.15,0-0.26,0.08-0.36,0.31l-3.68,8.4h1.51l0.61-1.43h3.37l0.56,1.43h1.63L38.46,26.59z"/>
	<path class="st0" d="M38.59,24.27c0.03-0.43,0.33-1.66,0.97-3.5c1.25-3.4,3.83-8.38,8.61-9.91v1.35c0,0-4.62,1.46-8.15,8.73
		c-0.72,1.46-1.2,2.99-1.38,3.32H38.59z M45.18,23.12c5.03-1.23,6.1-7.05,6.1-11.8c-0.01-2.18-0.22-4.35-0.61-6.49
		C39.43,9.17,36.9,13.31,36.88,16.12c-0.02,0.78,0.16,1.56,0.54,2.25h0.03c-0.12-0.44-0.19-0.9-0.2-1.35
		c-0.03-2.5,2.12-6.16,12.18-10.06c0.35,1.9,0.53,3.82,0.54,5.75c0,4.06-0.82,8.96-4.85,10.39L45.18,23.12z"/>
	<path class="st0" d="M51.15,3.96c-4.29,1.63-7.53,3.27-9.91,4.93c-2.38,1.66-3.88,3.35-4.57,5.16c-0.21,0.53-0.34,1.09-0.38,1.66
		l-0.92-0.77c-0.74-0.61-1.56-1.35-1.56-2.5s0.82-1.89,1.56-2.53l11.6-9.65c0.25-0.3,0.69-0.35,1-0.1l0.1,0.1l11.57,9.65
		c0.77,0.64,1.56,1.35,1.56,2.53s-0.82,1.89-1.56,2.53L48.06,24.6c-0.25,0.3-0.69,0.35-1,0.1l-0.1-0.1l-1.17-1
		c2.32-0.72,3.98-2.45,4.98-4.93c0.77-1.97,1.17-4.44,1.17-7.36c0-2.47-0.25-4.94-0.77-7.36"/>
	<path class="st0" d="M52.38,23.32h0.15c0.13,0,0.26,0,0.26-0.15c0-0.15-0.1-0.15-0.2-0.15h-0.2L52.38,23.32z M52.56,22.55
		c0.45,0.01,0.81,0.38,0.8,0.83c-0.01,0.45-0.38,0.81-0.83,0.8c-0.45-0.01-0.81-0.38-0.8-0.83c0.01-0.44,0.36-0.8,0.8-0.8H52.56
		 M52.56,24.09c0.38,0,0.69-0.31,0.69-0.69c0-0.38-0.31-0.69-0.69-0.69c-0.37,0-0.67,0.29-0.69,0.66c0,0.38,0.31,0.69,0.69,0.69
		 M52.25,22.89h0.36c0.23,0,0.33,0.08,0.33,0.28c0,0.14-0.11,0.26-0.26,0.26l0.28,0.41h-0.15l-0.26-0.41h-0.18v0.41h-0.13
		L52.25,22.89z"/>
</g>
</svg>
