<?xml version="1.0" encoding="utf-8"?>
<!-- Generator: Adobe Illustrator 26.0.1, SVG Export Plug-In . SVG Version: 6.00 Build 0)  -->
<svg version="1.1" id="Layer_1" xmlns="http://www.w3.org/2000/svg" xmlns:xlink="http://www.w3.org/1999/xlink" x="0px" y="0px"
	 viewBox="0 0 95 35" style="enable-background:new 0 0 95 35;" xml:space="preserve">
<style type="text/css">
	.st0{fill:#FFFFFF;}
</style>
<g>
	<path class="st0" d="M76.33,31.95v-0.82h0.6c0.4,0,0.51,0.12,0.51,0.36c0,0.25-0.11,0.44-0.58,0.46 M76.75,32.45
		c0.17,0.02,0.34,0,0.47,0.13c0.14,0.15,0.14,0.41,0.18,0.68c0.02,0.19,0.07,0.39,0.11,0.57h0.64c-0.11-0.29-0.14-0.62-0.19-0.93
		c-0.05-0.35-0.1-0.54-0.54-0.63v-0.02c0.43-0.09,0.65-0.38,0.65-0.75c0-0.72-0.61-0.88-1.2-0.88h-1.04v3.2h0.5v-1.38H76.75z
		 M76.91,35c1.51,0,2.72-1.22,2.72-2.73c0-1.5-1.21-2.72-2.72-2.72c-1.51,0-2.73,1.22-2.73,2.72C74.18,33.78,75.39,35,76.91,35z
		 M76.91,34.52c-1.25,0-2.25-1.01-2.25-2.25c0-1.23,1.01-2.24,2.25-2.24c1.24,0,2.24,1.01,2.24,2.24
		C79.15,33.52,78.15,34.52,76.91,34.52z"/>
	<path class="st0" d="M72.3,7.5h-4.38v4.37h4.38c1.04,0,1.87,0.85,1.87,1.88c0,1.04-0.84,1.88-1.87,1.88h-4.38V20h4.38
		c3.45,0,6.25-2.8,6.25-6.25C78.55,10.3,75.76,7.5,72.3,7.5 M47.36,30.63c5.24,0,9.75-3.07,11.86-7.51h5.58v7.51h3.12v-7.51h4.38
		c5.18,0,9.38-4.2,9.38-9.37c0-5.18-4.2-9.38-9.38-9.38h-7.5v11.25h-4.45C59.45,9.27,53.98,4.38,47.36,4.38H31.98L16.67,30.63h3.65
		l4.38-7.51h15.73v7.51H47.36z M86.06,13.75c0,7.59-6.16,13.75-13.75,13.75V35H60.43v-5.85C57.22,32.74,52.56,35,47.36,35H36.05
		v-7.5h-8.84L22.83,35H8.94L29.36,0h18.01c5.19,0,9.85,2.27,13.07,5.86V0H72.3C79.9,0,86.06,6.16,86.06,13.75z M36.05,7.5v8.12
		h-6.98L26.52,20h13.91V7.5H36.05z M57.37,17.5c0,5.52-4.48,10-10,10h-3.81v-4.37h3.81c3.11,0,5.63-2.52,5.63-5.63
		c0-3.1-2.52-5.63-5.63-5.63h-3.81V7.5h3.81C52.89,7.5,57.37,11.98,57.37,17.5z"/>
</g>
</svg>
