<?xml version="1.0" encoding="utf-8"?>
<!-- Generator: Adobe Illustrator 26.0.1, SVG Export Plug-In . SVG Version: 6.00 Build 0)  -->
<svg version="1.1" id="Layer_1" xmlns="http://www.w3.org/2000/svg" xmlns:xlink="http://www.w3.org/1999/xlink" x="0px" y="0px"
	 viewBox="0 0 95 35" style="enable-background:new 0 0 95 35;" xml:space="preserve">
<style type="text/css">
	.st0{fill-rule:evenodd;clip-rule:evenodd;fill:#CCCCCC;}
	.st1{fill:#CCCCCC;}
</style>
<g>
	<g>
		<path class="st0" d="M57.5,21.5c0-3.1,0-6.2,0-9.4c2.1,0.1,4.3-0.4,6.3,0.8c1.6,1,2.4,2.9,2,5c-0.3,1.7-2,3.4-3.8,3.6
			C60.6,21.6,59.1,21.5,57.5,21.5z M59.3,13.6c0,2.2,0,4.3,0,6.4c0.8,0,1.7,0.1,2.4,0c1.6-0.2,2.7-1.6,2.6-3.2
			c0-1.6-1.1-2.8-2.7-3.1C60.9,13.6,60.1,13.7,59.3,13.6z"/>
		<path class="st0" d="M45.8,16.8c0.1-2.7,2.4-4.9,5-4.8c2.7,0.1,4.9,2.4,4.8,5c-0.2,3-2.4,4.8-5,4.8C47.9,21.7,45.7,19.4,45.8,16.8
			z M47.4,16.8c-0.1,1.9,1.3,3.4,3.1,3.5c1.8,0.1,3.3-1.4,3.3-3.3c0.1-1.8-1.3-3.4-3.1-3.5C49,13.4,47.5,14.9,47.4,16.8z"/>
		<path class="st0" d="M74.5,20c0,0.6,0,1,0,1.5c-2.2,0-4.4,0-6.7,0c0-3.1,0-6.3,0-9.4c2.2,0,4.5,0,6.7,0c0,0.5,0,0.9,0,1.4
			c-1.6,0-3.3,0-5,0c0,0.8,0,1.6,0,2.5c1,0,2.1,0,3.2,0c0,0.5,0,1,0,1.5c-1.1,0-2.1,0-3.2,0c0,0.9,0,1.7,0,2.5
			C71.1,20,72.8,20,74.5,20z"/>
	</g>
</g>
<g>
	<path class="st1" d="M88.3,16.5c1.3-1.4,2.8-3.1,4.2-4.6h-2.2l-4.1,4.3c0-1.4,0-2.8,0-4.3c-0.6,0-1.1,0-1.6,0c0,3.2,0,6.3,0,9.4
		c0.6,0,1.1,0,1.6,0c0-1.6,0-3.1,0-4.7c0,0,3,3,4.5,4.7h2.2C91.4,19.8,89.6,17.9,88.3,16.5z"/>
</g>
<g>
	<path class="st1" d="M22.9,12l-1.6,0l-4.2,9.5h1.8l0.9-2.3h4.4l1,2.3H27L22.9,12z M20.5,17.7L22,14l1.6,3.8H20.5z"/>
</g>
<g>
	<polygon class="st1" points="37.8,13.4 40.8,13.4 40.8,21.4 42.4,21.4 42.4,13.4 44.8,13.4 45.5,12 37.8,12 	"/>
</g>
<g>
	<path class="st1" d="M79.6,16c-2.2-0.6-2-1.6-1.8-1.8c0.1-0.3,0.5-0.7,1.9-0.7c1.4,0,2.4,0.6,2.4,0.6l0.6-1.3c0-0.1-1.2-0.7-3-0.8
		c-1.9,0-3.5,1-3.5,2.5c0,1.5,0.9,2.2,2.7,2.7c2,0.6,2.6,1.1,2.6,1.8c0,0.7-0.4,1.3-1.9,1.3c-1.3,0-2.8-1-3.1-1.3l-0.6,1.3
		c0.5,0.3,2.3,1.3,3.8,1.3c1.8,0,3.3-0.9,3.3-2.7C83,17.2,81.6,16.6,79.6,16z"/>
</g>
<g>
	<path class="st1" d="M34.2,17.6c0,1.3-1.1,2.4-2.4,2.4s-2.4-1.1-2.4-2.4V12h-1.8v5.5c0,2.3,1.8,4.1,4.1,4.1c2.3,0,4.1-1.8,4.1-4.1
		V12h-1.8V17.6z"/>
</g>
<g>
	<path class="st1" d="M95,20.8c0,0.3-0.3,0.6-0.6,0.6c-0.3,0-0.6-0.3-0.6-0.6c0-0.3,0.3-0.6,0.6-0.6C94.7,20.2,95,20.5,95,20.8z
		 M93.9,20.8c0,0.3,0.2,0.5,0.5,0.5c0.3,0,0.5-0.2,0.5-0.5c0-0.3-0.2-0.5-0.5-0.5C94.1,20.3,93.9,20.6,93.9,20.8z M94.3,21.1h-0.1
		v-0.6c0.1,0,0.1,0,0.2,0c0.1,0,0.2,0,0.2,0c0,0,0.1,0.1,0.1,0.1c0,0.1-0.1,0.1-0.1,0.1v0c0.1,0,0.1,0.1,0.1,0.1c0,0.1,0,0.1,0,0.1
		h-0.1c0,0,0-0.1,0-0.1c0-0.1,0-0.1-0.1-0.1h-0.1V21.1z M94.3,20.8L94.3,20.8c0.1,0,0.2,0,0.2-0.1c0-0.1,0-0.1-0.1-0.1
		c0,0-0.1,0-0.1,0V20.8z"/>
</g>
<g>
	<path class="st1" d="M5.1,9.5c-0.4,0-0.6,0.3-0.6,0.3c0,0,0,0,0,0l0,0L0.1,20.2c0,0,0,0,0,0c-0.1,0.3-0.1,0.5,0,0.7l0,0.1
		c0.2,0.3,0.6,0.5,0.8,0.5c0.2,0,1.5,0,3.2,0l3.3-7.8c-0.8-2-1.5-3.5-1.6-3.7C5.7,9.5,5.3,9.5,5.1,9.5z"/>
	<path class="st1" d="M0.9,21.4c-0.2,0-0.6-0.2-0.8-0.5l1.2,2.3l1,1.9c0.2,0.4,0.8,0.4,0.8,0.4c0.6,0,1.6-0.5,1.9-0.6
		c0.2-0.1,5.1-3.1,5.7-3.5c-0.7,0-4,0-6.6,0C2.4,21.4,1.1,21.4,0.9,21.4z"/>
	<path class="st1" d="M0.1,21L0.1,21C0.1,20.9,0.1,21,0.1,21z"/>
	<polygon class="st1" points="4.5,9.8 4.5,9.8 4.5,9.8 	"/>
	<polygon class="st1" points="4.5,9.8 4.5,9.8 4.5,9.8 	"/>
	<polygon class="st1" points="4.5,9.8 4.5,9.8 4.5,9.8 	"/>
	<path class="st1" d="M10.4,9.8c0,0-0.1-0.4-0.7-0.4c0,0-0.8,0-1.7,0c-1.3,0-2.9,0-3,0c-0.3,0-0.5,0.2-0.6,0.3c0,0,0.2-0.3,0.6-0.3
		c0.2,0,0.6,0.1,0.8,0.4c0.1,0.2,0.7,1.7,1.6,3.7c1.8,4.4,4.7,11.1,5,12H17L10.4,9.8z"/>
</g>
</svg>
