<?xml version="1.0" encoding="utf-8"?>
<!-- Generator: Adobe Illustrator 26.0.1, SVG Export Plug-In . SVG Version: 6.00 Build 0)  -->
<svg version="1.1" id="Layer_1" xmlns="http://www.w3.org/2000/svg" xmlns:xlink="http://www.w3.org/1999/xlink" x="0px" y="0px"
	 viewBox="0 0 95 35" style="enable-background:new 0 0 95 35;" xml:space="preserve">
<style type="text/css">
	.st0{fill:#CCCCCC;}
</style>
<g>
	<path class="st0" d="M29.96,12.58h-2.64l3.32-6.89h2.76l1.53,6.89h-2.64l-0.12-0.85h-1.89L29.96,12.58z M31.95,10.09l-0.13-1.21
		c-0.04-0.3-0.04-0.59-0.05-0.89h-0.09l-0.74,2.1L31.95,10.09z"/>
	<path class="st0" d="M36.85,5.69h2.57l0.46,3.62h0.06c0.08-0.31,0.18-0.62,0.3-0.91l1.14-2.7h2.55l0.2,6.89H41.7l0.17-3.77h-0.05
		c-0.07,0.24-0.15,0.46-0.26,0.69l-1.41,3.08h-1.44l-0.5-2.92c-0.04-0.28-0.05-0.57-0.04-0.85h-0.08c-0.06,0.27-0.11,0.56-0.18,0.83
		l-0.69,2.94h-2.42L36.85,5.69z M45.72,5.69h4.63L50.1,7.58h-2.11L47.9,8.24h1.92l-0.24,1.79h-1.93l-0.09,0.68h2.18l-0.25,1.89
		h-4.71L45.72,5.69z M51.15,5.69h3.02c1.55,0,2.78,0.65,2.55,2.4c-0.14,1.04-0.6,1.48-1.58,1.79l-0.01,0.06
		c0.14,0.11,0.27,0.25,0.37,0.42l1.2,2.24h-2.88l-0.79-2.21h-0.05l-0.3,2.21h-2.44L51.15,5.69z M53.19,8.75h0.18
		c0.42,0,0.83-0.06,0.9-0.58c0.07-0.53-0.3-0.59-0.72-0.59h-0.19L53.19,8.75z M58.08,5.69h2.5l-0.93,6.89h-2.5L58.08,5.69z
		 M66.14,8.49c-0.36-0.37-0.81-0.7-1.38-0.7C64,7.8,63.35,8.37,63.23,9.13c-0.11,0.76,0.46,1.34,1.22,1.34
		c0.57,0,1.07-0.25,1.52-0.64l-0.42,2.57c-0.43,0.19-1.38,0.27-1.81,0.27c-1.97,0-3.3-1.53-3.02-3.49c0.27-2,2.06-3.62,4.09-3.62
		c0.56,0,1.11,0.09,1.64,0.28L66.14,8.49z M68.42,12.58h-2.64l3.32-6.89h2.76l1.53,6.89h-2.64l-0.12-0.85h-1.89L68.42,12.58z
		 M70.41,10.09l-0.13-1.21c-0.04-0.3-0.04-0.59-0.05-0.89h-0.09l-0.74,2.1L70.41,10.09z M74.73,5.69h2.41l1.73,3.82h0.07
		c-0.05-0.58-0.04-1.17,0.02-1.76l0.27-2.06h2.41l-0.93,6.89h-2.4l-1.72-3.62h-0.07c0.02,0.46,0.02,0.93-0.04,1.38l-0.31,2.24h-2.38
		L74.73,5.69z M27.38,14.05h4.64l-0.25,1.89h-2.11l-0.09,0.65h1.93l-0.24,1.79h-1.93l-0.09,0.68h2.18l-0.25,1.89h-4.71L27.38,14.05z
		 M32.77,14.05h2.5l-0.63,4.67h2.1l-0.3,2.21h-4.6L32.77,14.05z M38.04,14.05h4.64l-0.25,1.89h-2.11l-0.09,0.65h1.93l-0.24,1.79
		h-1.93l-0.09,0.68h2.18l-0.25,1.89h-4.71L38.04,14.05z M48.05,16.85c-0.36-0.38-0.81-0.7-1.38-0.7c-0.77,0.01-1.42,0.58-1.54,1.34
		c-0.11,0.76,0.47,1.34,1.22,1.34c0.58,0,1.07-0.25,1.52-0.64l-0.42,2.57c-0.43,0.19-1.38,0.27-1.81,0.27
		c-1.97,0-3.3-1.53-3.02-3.49c0.27-2,2.06-3.62,4.09-3.62c0.56,0,1.11,0.09,1.65,0.28L48.05,16.85z M48.92,14.05h5.27l-0.3,2.24
		l-1.38-0.06l-0.64,4.71h-2.5l0.64-4.71l-1.39,0.06L48.92,14.05z M54.73,14.05h3.02c1.55,0,2.78,0.66,2.55,2.4
		c-0.14,1.04-0.6,1.48-1.58,1.79l-0.01,0.06c0.14,0.11,0.27,0.25,0.37,0.42l1.2,2.24H57.4l-0.79-2.21h-0.05l-0.3,2.21h-2.44
		L54.73,14.05z M56.77,17.1h0.18c0.42,0,0.83-0.06,0.9-0.58c0.07-0.52-0.3-0.59-0.72-0.59h-0.19L56.77,17.1z M61.65,14.05h2.5
		l-0.93,6.89h-2.5L61.65,14.05z M69.73,16.85c-0.36-0.38-0.81-0.7-1.38-0.7c-0.77,0.01-1.42,0.58-1.54,1.34
		c-0.09,0.76,0.47,1.34,1.22,1.34c0.58,0,1.07-0.25,1.52-0.64l-0.42,2.57c-0.43,0.19-1.36,0.27-1.81,0.27
		c-1.97,0-3.3-1.53-3.02-3.49c0.27-2,2.06-3.62,4.09-3.62c0.56,0,1.11,0.09,1.64,0.28L69.73,16.85z M26.27,22.42h3.17
		c1.61,0,2.68,0.82,2.46,2.53c-0.19,1.41-1.19,2.28-2.59,2.28h-1.28l-0.28,2.08h-2.41L26.27,22.42z M28.26,25.5h0.25
		c0.44,0,0.93-0.07,1-0.63c0.07-0.53-0.44-0.57-0.84-0.57h-0.24L28.26,25.5z M39.64,25.88c-0.3,2.21-2.18,3.53-4.28,3.53
		c-2.1,0-3.63-1.32-3.33-3.53c0.3-2.16,2.19-3.57,4.29-3.57C38.41,22.31,39.93,23.72,39.64,25.88L39.64,25.88z M34.54,25.91
		c-0.11,0.78,0.36,1.33,1.11,1.33c0.76,0,1.36-0.53,1.47-1.33c0.09-0.74-0.31-1.34-1.1-1.34C35.22,24.57,34.63,25.19,34.54,25.91
		L34.54,25.91z M42.2,22.42l0.32,4.1h0.06c0.09-0.43,0.23-0.85,0.38-1.27l1.1-2.83h1.92l0.39,4.1h0.06c0.08-0.42,0.2-0.82,0.33-1.21
		l1.08-2.89h2.61l-3.36,6.89h-2.18l-0.28-3.75h-0.08c-0.06,0.36-0.15,0.7-0.27,1.04l-1.06,2.7H41.1l-1.48-6.89H42.2z M50.86,22.42
		h4.63l-0.25,1.89h-2.11l-0.09,0.65h1.93l-0.24,1.79h-1.93l-0.09,0.68h2.18l-0.25,1.89h-4.71L50.86,22.42z M56.3,22.42h3.02
		c1.55,0,2.78,0.65,2.55,2.4c-0.14,1.04-0.6,1.48-1.58,1.79l-0.01,0.06c0.14,0.11,0.27,0.25,0.37,0.42l1.2,2.24h-2.88l-0.79-2.21
		h-0.05l-0.3,2.21h-2.44L56.3,22.42z M58.34,25.48h0.18c0.42,0,0.83-0.06,0.9-0.58s-0.3-0.59-0.72-0.59h-0.19L58.34,25.48z"/>
	<path class="st0" d="M48.09,31.11l-0.28,2.11H15.39l4.23-31.43h32.41l-0.28,2.1h1.79L54.07,0H18.06l-4.71,35h36.02l0.52-3.89
		L48.09,31.11z"/>
</g>
</svg>
