<?xml version="1.0" encoding="utf-8"?>
<!-- Generator: Adobe Illustrator 26.0.1, SVG Export Plug-In . SVG Version: 6.00 Build 0)  -->
<svg version="1.1" id="Layer_1" xmlns="http://www.w3.org/2000/svg" xmlns:xlink="http://www.w3.org/1999/xlink" x="0px" y="0px"
	 viewBox="0 0 95 35" style="enable-background:new 0 0 95 35;" xml:space="preserve">
<style type="text/css">
	.st0{fill-rule:evenodd;clip-rule:evenodd;fill:#343741;}
</style>
<g>
	<path class="st0" d="M18.14,21.49h-6.33l0,0c-0.36,0-0.6,0.34-0.5,0.67l0,0l0.89,3.06l0,0c0.06,0.23,0.27,0.39,0.5,0.39l0,0h6.98
		l2.93,7.84l0,0c0.07,0.2,0.27,0.34,0.49,0.34l0,0h4.63l0,0c0.37,0,0.63-0.37,0.5-0.71l0,0L16.94,3.33l0,0
		c-0.07-0.2-0.27-0.34-0.49-0.34l0,0h-4.14l0,0c-0.21,0-0.41,0.13-0.49,0.33l0,0L0.04,33.06l0,0c-0.14,0.34,0.11,0.73,0.49,0.73l0,0
		h4.81l0,0c0.21,0,0.43-0.14,0.5-0.34l0,0l8.21-22.81L18.14,21.49L18.14,21.49 M36.38,12.71L36.38,12.71h5.14l0,0
		c0.36,0,0.61,0.36,0.5,0.69l0,0l-0.93,2.84l0,0c-0.07,0.21-0.27,0.36-0.5,0.36l0,0h-4.2v16.64l0,0c0,0.29-0.24,0.53-0.53,0.53l0,0
		h-4.36l0,0c-0.29,0-0.53-0.24-0.53-0.53l0,0V16.6h-4.04l0,0c-0.36,0-0.61-0.36-0.5-0.7l0,0l1-2.84l0,0
		c0.09-0.21,0.27-0.36,0.5-0.36l0,0h3.03v-1.81l0,0c0-5.2,3.11-9.94,9.17-9.94c2.13,0,3.61,0.73,3.6,2.11c0,0.66-0.5,1.56-1.54,1.56
		c-0.81,0-0.54-0.26-1.74-0.26c-3.61,0-4.07,3.74-4.07,6.53l0,0L36.38,12.71 M51.68,21.69c-0.14,0.11-0.3,0.23-0.44,0.34
		c-1.01,0.76-2.01,1.39-2.99,1.86c-1.37,0.67-3,0.96-4.39,0.2c-0.63-0.34-0.94-0.8-0.94-1.39l0,0l0,0v-0.01l0,0l0,0
		c0-0.57,0.33-1.16,0.99-1.76l0,0l0,0l0.26-0.23l0,0c-0.29-0.14-0.53-0.24-0.69-0.3c-0.39-0.13-0.74-0.2-1.09-0.2
		c-0.03,0-0.11,0.01-0.26,0.07c-0.21,0.07-0.39,0.1-0.5,0.1c-0.26,0-0.46-0.1-0.6-0.3c-0.11-0.16-0.17-0.36-0.17-0.63l0,0l0,0V19.4
		l0,0l0,0c0.01-0.37,0.3-0.77,0.86-1.2c1.13-0.86,3.23-2.46,3.39-2.6c0.73-0.64,1.26-1.37,1.6-2.16c0.19-0.46,0.34-1.04,0.47-1.76
		c0.5-2.97,2.41-6,5.67-6c6.44,0,7.37,10.53,7.37,16.78c0,3.39-0.1,6.77-0.83,10.08c-0.04,0.21,0.04,0.44,0.23,0.56
		c1.07,0.69,2.31,0.94,3.79,0.94c2.81,0,4.16-1.11,5.8-2.49l0,0l0.36-0.3l0,0c0.14,1.03,0.4,2.03,0.79,2.39
		c0.1,0.09,0.21,0.13,0.34,0.13l0,0h3.27l0,0c1.04,0,1.04-0.8,1.04-0.99c0-1.86-0.44-0.96-0.44-3.69l0,0v-9.64l0,0
		c0-4.3-2.41-7.27-7.93-7.27c-2.19,0-4.86,0.69-6.53,1.4c-0.14-0.73-0.33-1.43-0.53-2.07c-1.31-4.34-3.56-6.51-6.73-6.51
		c-0.31,0-0.63,0.03-0.93,0.07l0,0V1.97l0,0c0-0.29-0.24-0.53-0.53-0.53l0,0h-4.61l0,0c-0.29,0-0.53,0.24-0.53,0.53l0,0v10.81l0,0
		c-0.04,0.14-0.1,0.29-0.14,0.4c-0.3,0.7-0.79,1.34-1.43,1.93c-0.14,0.11-1.26,0.99-3.36,2.57c-0.73,0.56-1.1,1.13-1.13,1.7l0,0
		v0.01v0.04l0,0c0,0.4,0.1,0.73,0.29,1c0.27,0.39,0.66,0.59,1.14,0.59c0.19,0,0.43-0.04,0.7-0.14c0.04-0.01,0.09-0.03,0.11-0.04
		c0.17,0,0.34,0.03,0.53,0.09c-0.49,0.57-0.71,1.14-0.71,1.74l0,0v0.01l0,0c0,0.84,0.43,1.5,1.29,1.97
		c0.64,0.36,1.37,0.53,2.14,0.53c0.19,0,0.39-0.01,0.57-0.03l0,0v8.08l0,0c0,0.29,0.24,0.53,0.53,0.53l0,0h2.13l0,0
		c0.21,0,0.4-0.13,0.49-0.33C50.22,31.41,52.16,26.43,51.68,21.69L51.68,21.69 M69.42,26.78c0,1.61-2,3.26-3.91,3.26
		c-1.37,0-2.49-1.23-2.49-2.39c0-2.57,3.77-3.56,6.41-3.91l0,0v3.04H69.42 M89.2,15.69L89.2,15.69c-4.07,0.01-6.07,2.94-6.08,7.17
		c-0.01,3.56,1.97,7.18,7.14,7.18c3.17,0,3.03-0.69,4.1-0.7c0.34,0,0.64,0.24,0.64,0.59c0,0.36-0.1,1.6-1.37,3.39
		c-0.53,0.73-3.04,0.71-4.6,0.71c-8.56-0.01-11.47-6.26-11.47-10.74c-0.01-7.84,5.27-11.16,11.48-11.16c2.97,0,4.69,0.73,4.67,2.13
		c0,0.93-0.49,1.93-1.61,1.93C91.13,16.17,90.2,15.69,89.2,15.69 M55.48,9.73c0.4,0,0.73,0.47,0.73,1.07c0,0.59-0.33,1.07-0.73,1.07
		s-0.73-0.47-0.73-1.07C54.75,10.22,55.08,9.73,55.48,9.73L55.48,9.73 M60.88,23.1c0-0.21,0-0.41,0-0.64c0-1.66-0.06-3.21-0.19-4.64
		c1.66-1.01,3.63-1.79,5.29-1.79c2.27-0.01,3.44,1.61,3.44,3.53l0,0v1.1l0,0C66.35,21.16,62.86,22.09,60.88,23.1L60.88,23.1"/>
	<path class="st0" d="M44.92,21.07l-0.1-0.04l0,0c-0.1-0.04-0.2-0.03-0.29,0.04l0,0l-0.3,0.26l0,0c-0.39,0.34-0.81,0.84-0.8,1.37
		c0.01,0.83,1.14,1.24,1.91,1.24c2.81,0,8.71-4.67,8.71-6.31c0-1.39-1.9-1.53-2.17-3.86c-0.1-0.94-0.17-2.19-0.44-2.54
		c-0.06-0.06-0.11-0.09-0.2-0.09c-0.76,0.03-0.86,0.93-1.84,0.93c-0.87,0-0.53-1.11-1.06-1.11c-0.71,0,0.14,2.69-2.73,5.24
		c-1.33,1.19-4.24,2.46-4.26,3.23c-0.01,0.77,0.56,0.26,1,0.26c1.71,0,2.87,1.34,4.24,1.34c1.77,0,3.57-1.56,5.2-2.64l0,0l0.31-0.21
		l0,0c0.1-0.07,0.24-0.06,0.33,0.03l0,0l0.11,0.11l0,0c0.1,0.1,0.1,0.29,0,0.39l0,0l-0.71,0.64l0,0c-1.81,1.64-4.43,3.56-6.33,3.56
		c-0.63,0-1.71-0.2-0.89-1.07l0,0l0.31-0.33l0,0C45.13,21.36,45.09,21.14,44.92,21.07L44.92,21.07"/>
</g>
</svg>
