<?xml version="1.0" encoding="utf-8"?>
<!-- Generator: Adobe Illustrator 26.0.1, SVG Export Plug-In . SVG Version: 6.00 Build 0)  -->
<svg version="1.1" id="Layer_1" xmlns="http://www.w3.org/2000/svg" xmlns:xlink="http://www.w3.org/1999/xlink" x="0px" y="0px"
	 viewBox="0 0 95 35" style="enable-background:new 0 0 95 35;" xml:space="preserve">
<style type="text/css">
	.st0{fill:#CCCCCC;}
</style>
<g>
	<path class="st0" d="M30.83,7.68l-9.44,19.65h3.3l2.26-4.77h8.68l2.13,4.77h3.35L32,7.68H30.83z M31.37,13.09l3.01,6.68h-6.16
		L31.37,13.09z"/>
	<rect x="44.29" y="7.68" class="st0" width="3.06" height="19.65"/>
	<path class="st0" d="M63.4,17.1h8.38v0.65c0,1.48-0.18,2.78-0.54,3.92c-0.35,1.05-0.94,2.04-1.77,2.95
		c-1.88,2.05-4.28,3.08-7.18,3.08c-2.84,0-5.27-0.99-7.29-2.98c-2.02-1.99-3.03-4.39-3.03-7.18c0-2.85,1.03-5.27,3.09-7.25
		c2.06-1.99,4.56-2.99,7.51-2.99c1.59,0,3.06,0.31,4.44,0.94c1.31,0.62,2.6,1.64,3.87,3.05l-2.18,2.02
		c-1.66-2.15-3.69-3.22-6.08-3.22c-2.14,0-3.94,0.72-5.4,2.15c-1.45,1.41-2.18,3.17-2.18,5.29c0,2.19,0.81,3.99,2.43,5.41
		c1.51,1.32,3.16,1.97,4.92,1.97c1.51,0,2.86-0.49,4.06-1.47c1.2-0.99,1.87-2.18,2.01-3.55H63.4V17.1z"/>
	<path class="st0" d="M14.1,35H80.9V0H14.1V35z M16.88,2.7h61.23v29.6H16.88V2.7z"/>
</g>
</svg>
