<?xml version="1.0" encoding="utf-8"?>
<!-- Generator: Adobe Illustrator 26.0.1, SVG Export Plug-In . SVG Version: 6.00 Build 0)  -->
<svg version="1.1" id="Layer_1" xmlns="http://www.w3.org/2000/svg" xmlns:xlink="http://www.w3.org/1999/xlink" x="0px" y="0px"
	 viewBox="0 0 95 35" style="enable-background:new 0 0 95 35;" xml:space="preserve">
<style type="text/css">
	.st0{fill:#343741;}
</style>
<g>
	<polyline class="st0" points="28.91,32.89 28.91,34.16 28.47,34.16 28.47,32.89 27.34,31.03 27.78,30.93 28.69,32.49 29.58,30.96 
		30.07,30.96 28.91,32.89 	"/>
	<path class="st0" d="M30.96,34.2c-0.59,0-1.01-0.42-1.01-1.14c0-0.73,0.43-1.16,1.01-1.16c0.59,0,1.03,0.42,1.03,1.16
		C31.98,33.78,31.55,34.2,30.96,34.2 M30.96,32.25c-0.4,0-0.6,0.35-0.6,0.81c0,0.45,0.21,0.8,0.6,0.8c0.41,0,0.61-0.34,0.61-0.8
		C31.57,32.6,31.35,32.25,30.96,32.25z"/>
	<path class="st0" d="M33.91,34.16l-0.05-0.32c-0.21,0.2-0.47,0.36-0.78,0.36c-0.42,0-0.64-0.25-0.64-0.65v-1.61h0.41v1.5
		c0,0.23,0.1,0.38,0.34,0.38c0.22,0,0.44-0.15,0.64-0.36v-1.53h0.41v2.21H33.91"/>
	<polyline class="st0" points="34.93,32.04 34.7,31.99 34.83,30.96 35.31,30.96 34.93,32.04 	"/>
	<path class="st0" d="M36.03,32.85v1.31h-0.41v-2.21h0.33l0.07,0.45c0.15-0.25,0.41-0.48,0.77-0.5l0.07,0.39
		C36.49,32.32,36.18,32.56,36.03,32.85"/>
	<path class="st0" d="M38.97,33.1h-1.5c0.01,0.51,0.26,0.75,0.65,0.75c0.32,0,0.55-0.13,0.79-0.31l0.06,0.37
		c-0.24,0.19-0.52,0.29-0.88,0.29c-0.57,0-1.02-0.35-1.02-1.15c0-0.71,0.42-1.15,0.97-1.15c0.64,0,0.94,0.5,0.94,1.11
		C38.97,33.03,38.97,33.07,38.97,33.1 M38.03,32.22c-0.26,0-0.47,0.18-0.54,0.56h1.06C38.5,32.43,38.35,32.22,38.03,32.22z"/>
	<path class="st0" d="M40.66,31.51c-0.15,0-0.27-0.12-0.27-0.26c0-0.14,0.12-0.26,0.27-0.26c0.14,0,0.26,0.12,0.26,0.26
		C40.92,31.39,40.8,31.51,40.66,31.51 M40.45,31.95h0.41v2.21h-0.41V31.95z"/>
	<path class="st0" d="M42.85,34.16v-1.51c0-0.23-0.09-0.38-0.33-0.38c-0.22,0-0.44,0.15-0.64,0.36v1.53h-0.41v-2.21h0.33l0.05,0.32
		c0.21-0.18,0.47-0.36,0.79-0.36c0.41,0,0.64,0.25,0.64,0.65v1.61H42.85"/>
	<path class="st0" d="M46.7,31.92l0.06,0.37l-0.42,0.04c0.06,0.1,0.09,0.22,0.09,0.34c0,0.47-0.4,0.76-0.85,0.76
		c-0.06,0-0.12,0-0.17-0.01c-0.06,0.04-0.11,0.09-0.11,0.14c0,0.08,0.08,0.09,0.47,0.16l0.15,0.03c0.47,0.09,0.76,0.23,0.76,0.57
		c0,0.46-0.5,0.68-1.08,0.68c-0.57,0-1.03-0.18-1.03-0.57c0-0.23,0.16-0.4,0.47-0.57c-0.1-0.07-0.14-0.15-0.14-0.23
		c0-0.11,0.08-0.21,0.23-0.3c-0.25-0.12-0.41-0.35-0.41-0.66c0-0.48,0.4-0.77,0.84-0.77c0.23,0,0.42,0.07,0.57,0.19L46.7,31.92
		 M44.97,34.4c0,0.18,0.23,0.3,0.66,0.3c0.43,0,0.67-0.15,0.67-0.33c0-0.13-0.1-0.23-0.42-0.28l-0.26-0.05
		c-0.12-0.02-0.19-0.04-0.27-0.06C45.09,34.12,44.97,34.25,44.97,34.4z M45.57,32.21c-0.28,0-0.45,0.21-0.45,0.48
		c0,0.26,0.17,0.45,0.45,0.45c0.29,0,0.46-0.21,0.46-0.47C46.03,32.4,45.85,32.21,45.57,32.21z"/>
	<path class="st0" d="M47.96,34.2c-0.58,0-1.01-0.42-1.01-1.14c0-0.73,0.43-1.16,1.01-1.16c0.59,0,1.03,0.42,1.03,1.16
		C48.99,33.78,48.56,34.2,47.96,34.2 M47.96,32.25c-0.4,0-0.59,0.35-0.59,0.81c0,0.45,0.21,0.8,0.59,0.8c0.41,0,0.61-0.34,0.61-0.8
		C48.58,32.6,48.37,32.25,47.96,32.25z"/>
	<path class="st0" d="M50.35,34.2c-0.59,0-1.01-0.42-1.01-1.14c0-0.73,0.43-1.16,1.01-1.16c0.59,0,1.03,0.42,1.03,1.16
		C51.38,33.78,50.95,34.2,50.35,34.2 M50.35,32.25c-0.4,0-0.6,0.35-0.6,0.81c0,0.45,0.21,0.8,0.6,0.8c0.41,0,0.61-0.34,0.61-0.8
		C50.96,32.6,50.75,32.25,50.35,32.25z"/>
	<path class="st0" d="M53.36,34.16l-0.05-0.32c-0.17,0.2-0.39,0.36-0.72,0.36c-0.48,0-0.87-0.35-0.87-1.09c0-0.81,0.46-1.19,1-1.19
		c0.22,0,0.41,0.04,0.56,0.1v-1.14l0.41-0.06v3.34H53.36 M53.28,32.39c-0.17-0.09-0.3-0.13-0.54-0.13c-0.35,0-0.6,0.29-0.6,0.83
		c0,0.49,0.22,0.74,0.51,0.74c0.26,0,0.45-0.15,0.63-0.39V32.39z"/>
	<path class="st0" d="M56.65,34.16v-1.51c0-0.23-0.1-0.38-0.34-0.38c-0.22,0-0.44,0.15-0.64,0.36v1.53h-0.41v-3.28l0.41-0.06v1.42
		c0.18-0.16,0.44-0.34,0.75-0.34c0.42,0,0.64,0.25,0.64,0.65v1.61H56.65"/>
	<path class="st0" d="M58.97,34.16l-0.05-0.3c-0.18,0.18-0.42,0.34-0.78,0.34c-0.4,0-0.65-0.24-0.65-0.61
		c0-0.55,0.47-0.77,1.39-0.87v-0.09c0-0.28-0.17-0.38-0.42-0.38c-0.27,0-0.52,0.09-0.77,0.19l-0.05-0.36
		c0.26-0.11,0.51-0.19,0.86-0.19c0.54,0,0.79,0.22,0.79,0.71v1.55H58.97 M58.89,33.04c-0.82,0.08-0.99,0.3-0.99,0.53
		c0,0.18,0.12,0.29,0.33,0.29c0.24,0,0.47-0.12,0.66-0.31V33.04z"/>
	<path class="st0" d="M61.27,34.16v-1.51c0-0.23-0.1-0.38-0.34-0.38c-0.22,0-0.44,0.15-0.64,0.36v1.53h-0.41v-2.21h0.33l0.05,0.32
		c0.21-0.18,0.47-0.36,0.79-0.36c0.42,0,0.64,0.25,0.64,0.65v1.61H61.27"/>
	<path class="st0" d="M63.77,34.16l-0.05-0.32c-0.16,0.2-0.39,0.36-0.71,0.36c-0.48,0-0.87-0.35-0.87-1.09c0-0.81,0.46-1.19,1-1.19
		c0.22,0,0.42,0.04,0.55,0.1v-1.14l0.41-0.06v3.34H63.77 M63.69,32.39c-0.17-0.09-0.31-0.13-0.54-0.13c-0.35,0-0.6,0.29-0.6,0.83
		c0,0.49,0.22,0.74,0.51,0.74c0.25,0,0.45-0.15,0.62-0.39V32.39z"/>
	<path class="st0" d="M65.36,34.2c-0.29,0-0.62-0.1-0.8-0.2l0.06-0.39c0.21,0.14,0.48,0.25,0.78,0.25c0.28,0,0.45-0.11,0.45-0.29
		c0-0.21-0.13-0.28-0.52-0.38c-0.52-0.13-0.73-0.29-0.73-0.68c0-0.35,0.29-0.61,0.78-0.61c0.27,0,0.52,0.06,0.73,0.15l-0.07,0.39
		c-0.19-0.11-0.44-0.19-0.67-0.19c-0.25,0-0.38,0.1-0.38,0.26c0,0.15,0.11,0.23,0.46,0.32c0.55,0.14,0.79,0.3,0.79,0.72
		C66.23,33.95,65.93,34.2,65.36,34.2"/>
	<rect x="66.73" y="33.61" class="st0" width="0.46" height="0.55"/>
	<path class="st0" d="M71.14,28.68c-0.47,0-0.79-0.33-0.79-0.81c0-0.48,0.33-0.81,0.79-0.81c0.47,0,0.79,0.33,0.79,0.81
		C71.93,28.35,71.6,28.68,71.14,28.68 M71.14,27.15c-0.38,0-0.68,0.26-0.68,0.72c0,0.46,0.3,0.71,0.68,0.71
		c0.38,0,0.68-0.26,0.68-0.71C71.82,27.41,71.51,27.15,71.14,27.15z M71.37,28.3l-0.27-0.38h-0.09v0.37h-0.15v-0.9h0.27
		c0.19,0,0.31,0.09,0.31,0.26c0,0.13-0.07,0.21-0.18,0.25l0.26,0.37L71.37,28.3z M71.13,27.53h-0.12v0.26h0.11
		c0.1,0,0.16-0.04,0.16-0.13C71.29,27.57,71.23,27.53,71.13,27.53z"/>
	<path class="st0" d="M29.18,18.85l-6.11,9.82h2.08c0,0,1.51-2.45,1.56-2.53h3.51l0,2.53l1.97,0v-9.82H29.18 M30.21,24.41H27.8
		c0.15-0.24,2.41-3.91,2.41-3.91V24.41z"/>
	<rect x="33.59" y="18.85" class="st0" width="1.92" height="9.82"/>
	<rect x="36.9" y="18.85" class="st0" width="1.91" height="9.82"/>
	<path class="st0" d="M43.03,24.04c-1.04-0.27-1.26-0.42-1.23-0.86c0.02-0.39,0.34-0.62,0.88-0.62c0.66,0,1.47,0.23,2.17,0.62
		l0.11,0.06l0.26-1.64l-0.06-0.03c-0.71-0.33-1.57-0.5-2.48-0.5c-0.87,0-1.62,0.27-2.1,0.76c-0.38,0.39-0.58,0.9-0.57,1.46
		c0.03,1.52,0.75,1.94,2.47,2.38c1.13,0.28,1.36,0.45,1.35,0.98c-0.01,0.48-0.3,0.67-1.06,0.67c-0.8,0-1.71-0.3-2.5-0.81l-0.11-0.08
		l-0.27,1.65l0.06,0.03c0.61,0.34,1.66,0.69,2.76,0.69c1.07,0,1.86-0.25,2.35-0.75c0.38-0.39,0.57-0.91,0.56-1.56
		C45.58,24.87,44.76,24.49,43.03,24.04"/>
	<path class="st0" d="M50.26,27.02l-0.1,0.03c-0.13,0.04-0.3,0.06-0.53,0.06c-0.57,0-0.83-0.26-0.83-0.81c0,0,0-3.31,0-3.48
		c0.16,0,1.41,0,1.41,0l0.03-1.6c0,0-1.27,0-1.43,0c0-0.16,0-2.36,0-2.36h-1.88c0,0,0,2.2,0,2.36c-0.15,0-0.98,0-0.98,0v1.6
		c0,0,0.83,0,0.98,0c0,0.17,0,3.77,0,3.77c0,1.49,0.78,2.22,2.39,2.22c0.52,0,0.84-0.06,1.12-0.12l0.09-0.02L50.26,27.02"/>
	<path class="st0" d="M54.34,21.06c-1.19,0-2.09,0.29-2.81,0.57l-0.07,0.03l0.25,1.58l0.11-0.05c0.86-0.38,1.59-0.56,2.29-0.56
		c0.76,0,1.11,0.31,1.11,0.98c0,0,0,0.11,0,0.19c-2.83,0.29-4.21,1.26-4.21,2.95c0,1.25,0.81,2.06,2.07,2.06
		c0.87,0,1.6-0.32,2.26-0.97c0.04,0.22,0.13,0.82,0.13,0.82h1.66v-5.11C57.14,21.86,56.25,21.06,54.34,21.06 M53.68,27.33
		c-0.47,0-0.76-0.29-0.76-0.75c0-0.83,0.8-1.37,2.31-1.57v1.62C54.75,27.08,54.22,27.33,53.68,27.33z"/>
	<path class="st0" d="M62.05,27.02l-0.1,0.03c-0.13,0.04-0.3,0.06-0.52,0.06c-0.57,0-0.84-0.26-0.84-0.81c0,0,0-3.31,0-3.48
		c0.16,0,1.41,0,1.41,0l0.03-1.6c0,0-1.27,0-1.43,0c0-0.16,0-2.36,0-2.36H58.7c0,0,0,2.2,0,2.36c-0.14,0-0.98,0-0.98,0v1.6
		c0,0,0.84,0,0.98,0c0,0.17,0,3.77,0,3.77c0,1.49,0.78,2.22,2.39,2.22c0.52,0,0.85-0.06,1.12-0.12l0.08-0.02L62.05,27.02"/>
	<g>
		<path class="st0" d="M68.62,26.45c-0.86,0.59-1.56,0.85-2.35,0.85c-1.03,0-1.67-0.7-1.78-1.91c0.19,0,4.47,0,4.47,0l0.02-0.51
			c0-2.53-1.05-3.82-3.13-3.82c-0.91,0-1.66,0.28-2.22,0.85c-0.69,0.68-1.05,1.74-1.05,3.06c0,2.38,1.35,3.85,3.5,3.85
			c1.05,0,2.01-0.29,2.84-0.87l0.05-0.03l-0.23-1.56L68.62,26.45 M64.52,24.13c0.09-1.07,0.55-1.69,1.29-1.69
			c0.99,0,1.25,0.89,1.29,1.69H64.52z"/>
		<path class="st0" d="M47.32,0c-5.56,0-10.09,3.44-10.09,7.66c0,4.22,4.53,7.93,10.09,7.93c5.57,0,10.09-3.71,10.09-7.93
			C57.41,3.44,52.89,0,47.32,0 M47.32,15.07c-4.82,0-8.74-3.46-8.74-7.4c0-3.94,3.92-7.15,8.74-7.15c4.82,0,8.74,3.21,8.74,7.15
			C56.06,11.61,52.14,15.07,47.32,15.07z"/>
	</g>
	<path class="st0" d="M45.39,10.96l0.17,0.18c0,0,0.35,0.2,0.35,0.2l0.33,0.18l0.04,0.02l0.24,0.14l0.41,0.22
		c0.02,0.01,0.07,0.01,0.07,0.01l0.53-0.03c0.3-0.01,0.66,0,0.89,0.11c0.26,0.13,0.17,0.38,0.17,0.38s0.27-0.19,0.22-0.42
		c-0.03-0.19-0.26-0.45-1.03-0.49c-0.24-0.01-0.61,0.02-0.61,0.02s-0.03,0-0.03,0c0-0.01-0.34-0.23-0.34-0.23l-0.15-0.08
		c-0.02-0.01-0.48-0.25-0.48-0.25s-0.29-0.11-0.29-0.11c0-0.01-0.26-0.37-0.26-0.37l-0.1-0.13c0,0-0.28-0.4-0.28-0.4l-0.12-0.17
		C45.15,9.7,45,9.46,45,9.46c0.01,0,0.16-0.22,0.14-0.45c-0.02,0.03-0.04,0.04-0.14,0.13c-0.11,0.09-0.43,0.23-0.65,0.29l-0.1,0.03
		L45.39,10.96 M46.66,10.39l0.05,0.07c0.02,0.02,0.35,0.15,0.35,0.15c0.22,0.09,0.52,0.23,0.65,0.31l0.37,0.22
		c0.03,0.01,0.41-0.02,0.66,0c0.31,0.02,0.56,0.14,0.68,0.33c0.17,0.24-0.04,0.5-0.04,0.5c0.05-0.02,0.4-0.25,0.37-0.61
		c-0.02-0.34-0.32-0.67-1.42-0.65c0,0-0.3-0.18-0.3-0.18l-0.09-0.05l-0.49-0.25c0,0-0.4-0.14-0.4-0.14v0c0-0.01-0.09-0.18-0.09-0.18
		c-0.13-0.23-0.31-0.46-0.46-0.67l-0.05-0.06c0,0-0.27-0.37-0.3-0.42c0.09-0.18,0.01-0.45,0.01-0.45s-0.05,0.09-0.12,0.18
		c-0.08,0.1-0.28,0.25-0.42,0.33l-0.07,0.05l1,1.37L46.66,10.39z M47.11,7.94c0.06-0.22-0.06-0.44-0.06-0.44L47,7.64
		c-0.05,0.12-0.18,0.26-0.39,0.39l-0.06,0.03l0.81,1.16c0,0,0.05,0.08,0.05,0.08l0.15,0.21c0.02,0.02,0.34,0.2,0.34,0.2l0.12,0.07
		L48.38,10l0.33,0.22l0.02,0.01l0.5,0.03c0.3,0.03,0.47,0.14,0.57,0.2c0.31,0.23,0.15,0.57,0.15,0.57s0.42-0.4,0.14-0.83
		c-0.1-0.15-0.25-0.29-0.67-0.34c0,0-0.51-0.07-0.52-0.07c0,0-0.28-0.19-0.28-0.19l-0.36-0.22l-0.09-0.06l-0.3-0.13L47.11,7.94z
		 M43.75,1.07c0.03,0.03,0.11,0.11,0.11,0.11l0.41,0.37c0,0,0.23,0.22,0.23,0.22c0.17,0.16,0.21,0.25,0.21,0.28
		c-0.01,0.03-0.04,0.05-0.07,0.06c-0.03,0.02-0.08,0.03-0.08,0.03l-0.02,0.15l0.1,0c0.54-0.01,1.04,0.35,1.37,0.66
		c0.57,0.54,1,1.42,1.09,2.24l0.44,2.31l0.17,0.36l0.03,0.07l0.07,0.15c0.06,0.15,0.16,0.28,0.17,0.29C48,8.4,48.22,8.58,48.22,8.58
		l0.32,0.33l0.1,0.1l0.15,0.15c0.01,0.01,0.46,0.07,0.46,0.07c0.79,0.13,0.75,0.57,0.75,0.57s0.47-0.72-0.65-0.97
		c0,0-0.35-0.07-0.36-0.07c0,0,0,0,0,0c0-0.01-0.13-0.18-0.13-0.18c-0.01-0.02-0.04-0.05-0.04-0.05c-0.01-0.01-0.34-0.34-0.34-0.34
		l-0.15-0.15c0,0-0.14-0.38-0.14-0.38l-0.2-0.48c-0.05-0.15-0.08-0.38-0.13-0.71c0-0.01-0.03-0.23-0.03-0.23l-0.15-0.97
		c0-0.02,0.03-0.19,0.03-0.19c0.06-0.36,0.2-0.76,0.4-1.2c0.25-0.52,0.75-0.86,0.76-0.86c0.38-0.24,0.93-0.36,1.23-0.42
		c0.11-0.01,0.15-0.08,0.17-0.15l0.01-0.04l-0.04-0.01c-0.17-0.03-0.35-0.09-0.37-0.12c0-0.01-0.01-0.02-0.01-0.03
		c0-0.03,0.02-0.07,0.06-0.14c0,0,0.24-0.23,0.24-0.23l0.14-0.14c0,0,0.59-0.57,0.67-0.65l-0.55-0.19
		c-0.07,0.07-0.61,0.63-0.61,0.63c-0.4,0.43-0.86,0.92-1.06,1.01c-0.51,0.21-1.03,0.71-1.24,1.19c0,0-0.09,0.24-0.14,0.37
		c-0.15-0.45-0.35-0.81-0.61-1.14c-0.29-0.35-0.64-0.61-1.08-0.78c-0.24-0.23-1.02-0.94-1.44-1.29L43.75,1.07z M45.84,12.74
		c-0.72,0.37-1.12,0.05-0.94-0.34C45.13,12.56,45.49,12.68,45.84,12.74z M44.61,12.19c-0.49,0.13-0.67-0.21-0.56-0.49
		C44.14,11.81,44.49,12.12,44.61,12.19z M40.2,3.43c0.04,0.03,0.13,0.1,0.13,0.1c0.01,0.01,0.62,0.51,0.71,0.59
		c-0.01,0.04-0.26,0.73-0.26,0.73c-0.23,0.58-0.46,1.16-0.47,1.62l0,0.07c0,0.01,0.2,1.04,0.2,1.04l0.02,0.08
		c0.11,0.54,0.24,1.15,0.29,1.6c0.01,0.12,0.04,0.2,0.09,0.23c0.3,0.31,0.79,0.95,1.38,2.16c0.02,0.03,0.03,0.05,0.04,0.06
		c0.06,0.17,0.13,0.28,0.21,0.33c0.11,0.07,0.31,0.07,0.45,0c0.3-0.2,0.52-0.48,0.65-0.81c0.05,0.06,0.17,0.22,0.19,0.24
		c-0.51,0.88,0.39,1.21,0.71,1.08c-0.18,0.53,0.5,0.97,1.14,0.68c0.08,0.35,0.36,0.45,0.62,0.5c0.26,0.05,0.62,0.08,1.19,0.03
		c0.87-0.07,1.66-0.34,1.98-0.5c0.67-0.34,1.04-0.78,1.25-1.08c0-0.01,0.04-0.05,0.07-0.09c0.07,0.13,0.14,0.24,0.23,0.33
		c0.22,0.21,0.42,0.3,0.58,0.27c0.12-0.02,0.21-0.09,0.27-0.23c0.3-0.72,0.95-1.6,1.46-2.2c0,0,0.05-0.09,0.05-0.09
		c0.11-0.42,0.51-1.47,0.72-2.03l0.15-0.41c0,0,0.03-0.1,0.03-0.1c0.01-0.16,0.02-0.32,0.02-0.48c0-0.73-0.11-1.42-0.3-2.01
		c-0.1-0.3-0.2-0.48-0.29-0.65L53.6,4.3c0.14-0.22,0.57-0.5,0.91-0.73c0,0,0.02-0.01,0.03-0.01L54.12,3.1
		c-0.03,0.02-0.29,0.2-0.29,0.2c-0.3,0.21-0.61,0.29-0.8,0.21C53,3.5,52.75,3.36,52.75,3.36c-0.01-0.01-0.06-0.03-0.06-0.03
		c-0.01,0-0.09-0.01-0.09-0.01c-0.01,0-0.09,0.02-0.09,0.02l-0.05,0.01l0.09,0.1c0.18,0.21,0.27,0.39,0.4,0.64
		c0,0.01,0.08,0.14,0.08,0.14c0,0,0.07,0.17,0.07,0.17c0.15,0.38,0.29,0.79,0.38,1.18c0.17,0.72,0.26,1.31,0.26,1.82
		c0,0.01-0.01,0.06-0.01,0.06c0,0-0.24,0.67-0.24,0.67c-0.24,0.69-0.55,1.54-0.62,1.9l-0.01,0.04c-0.65,0.68-1.11,1.48-1.31,1.96
		c-0.03,0.06-0.05,0.07-0.06,0.07c-0.03,0.01-0.11-0.06-0.15-0.1c-0.16-0.15-0.26-0.45-0.25-0.78c0.02-0.4,0.19-0.75,0.47-0.97
		c0.05-0.04,0.03-0.1,0.02-0.14c-0.08-0.45,0.05-1.14,0.33-1.34l0.07-0.05l-0.07-0.05c-0.8-0.62-1.19-1.76-1.22-2.62l0-0.11
		l-0.12,0.05c-0.01,0.01-0.06,0.08-0.06,0.08c-0.03,0.17-0.05,0.34-0.05,0.5c0,0.44,0.08,0.82,0.12,0.96
		c0.11,0.47,0.34,0.91,0.69,1.3c0,0,0.01,0.01,0.01,0.02c-0.15,0.19-0.21,0.64-0.21,0.99c0,0.11,0,0.2,0.02,0.28
		c-0.37,0.32-0.48,0.73-0.5,1.02c0,0,0.01,0.31,0.01,0.31c0-0.01-0.18,0.23-0.18,0.23l-0.03,0.05c-0.36,0.49-0.6,0.83-1.2,1.13
		c-0.65,0.34-1.9,0.57-2.71,0.49c-0.3-0.03-0.27-0.3-0.27-0.31c0-0.04,0.01-0.08,0.04-0.11c0,0,0.06-0.06,0.08-0.08
		c0.77,0.09,1.5-0.01,1.81-0.17c0.01-0.01,0.11-0.15,0.11-0.15l0.04-0.07l-0.07,0.02c-0.65,0.16-1.95-0.05-2.64-0.34
		c-0.76-0.33-1-0.64-1.62-1.46l-0.17-0.23c0-0.23-0.07-0.46-0.18-0.66c-0.1-0.19-0.24-0.3-0.28-0.34c0.05-0.14,0.07-0.33,0.07-0.53
		c0-0.28-0.05-0.56-0.15-0.71c0.46-0.36,0.7-0.74,0.69-1.16c0-0.2-0.12-0.51-0.12-0.51l-0.18-0.08l0.01,0.12
		c0.07,0.72-0.6,1.19-1.05,1.51c0,0-0.13,0.09-0.13,0.09l0.09,0.05c0.35,0.22,0.36,0.95,0.28,1.37l0,0.02l0.02,0.03l0.02,0.01
		c0,0,0.17,0.14,0.17,0.14c0.35,0.47,0.32,1.21-0.06,1.64c-0.08,0.08-0.12,0.09-0.14,0.09c-0.06-0.01-0.1-0.15-0.12-0.19
		c0-0.01-0.11-0.23-0.11-0.23c-0.31-0.64-0.56-1.17-1.15-1.88c0,0-0.02-0.06-0.02-0.06c-0.12-0.93-0.26-1.62-0.4-2.28L40.94,6.5
		c0,0-0.01-0.09-0.01-0.09c0.04-0.71,0.26-1.26,0.52-1.9l0.15-0.4l0.13-0.31c0,0,0.02-0.04,0.02-0.04c0.15-0.21,0.35-0.42,0.6-0.61
		l0.11-0.08l-0.14-0.06c0,0-0.28,0.03-0.55,0.17L41.71,3.2c-0.2,0.1-0.44,0.17-0.61,0.1c0,0-0.47-0.28-0.49-0.29L40.2,3.43z"/>
</g>
</svg>
