<?xml version="1.0" encoding="utf-8"?>
<!-- Generator: Adobe Illustrator 26.0.1, SVG Export Plug-In . SVG Version: 6.00 Build 0)  -->
<svg version="1.1" id="Layer_1" xmlns="http://www.w3.org/2000/svg" xmlns:xlink="http://www.w3.org/1999/xlink" x="0px" y="0px"
	 viewBox="0 0 95 35" style="enable-background:new 0 0 95 35;" xml:space="preserve">
<style type="text/css">
	.st0{fill:#343741;}
</style>
<g>
	<path class="st0" d="M95,20.8c0,0.3-0.3,0.6-0.6,0.6c-0.3,0-0.6-0.3-0.6-0.6c0-0.3,0.3-0.6,0.6-0.6C94.7,20.2,95,20.5,95,20.8z
		 M93.9,20.8c0,0.3,0.2,0.5,0.5,0.5c0.3,0,0.5-0.2,0.5-0.5c0-0.3-0.2-0.5-0.5-0.5C94.1,20.3,93.9,20.6,93.9,20.8z M94.3,21.1h-0.1
		v-0.6c0.1,0,0.1,0,0.2,0c0.1,0,0.2,0,0.2,0c0,0,0.1,0.1,0.1,0.1c0,0.1-0.1,0.1-0.1,0.1v0c0.1,0,0.1,0.1,0.1,0.1c0,0.1,0,0.1,0,0.1
		h-0.1c0,0,0-0.1,0-0.1c0-0.1,0-0.1-0.1-0.1h-0.1V21.1z M94.3,20.8L94.3,20.8c0.1,0,0.2,0,0.2-0.1c0-0.1,0-0.1-0.1-0.1
		c0,0-0.1,0-0.1,0V20.8z"/>
</g>
<g>
	<path class="st0" d="M15.6,12.2H1.7L0,13.8v7.2c0,4.2,3.2,7.7,7.4,8.2l1.6-1.6l-0.4-0.1c-3.8,0-6.8-2.9-6.8-6.6v-7.2h1.7v7.2
		c0,2.7,2.3,4.9,5.1,4.9h2.1l1.6-1.6H8.5c-1.9,0-3.4-1.5-3.4-3.3v-7.2h1.7v7.2c0,0.9,0.8,1.7,1.7,1.7h5.4l1.6-1.7h-7v-7.2h7.1v15.5
		h1.7V13.8C17.2,12.9,16.5,12.2,15.6,12.2 M24,29.3V13.8c0-4.6-3.8-8.3-8.4-8.3H8.2L6.6,7.2h9c3.7,0,6.8,3,6.8,6.7v15.5H24z
		 M15.6,8.8H4.9l-1.7,1.7h12.3c1.8,0,3.3,1.5,3.3,3.3v15.5h1.7V13.8C20.6,11.1,18.3,8.8,15.6,8.8z"/>
	<path class="st0" d="M72.2,26.3l1.5-3.3l1.5,3.3 M74.2,21.6L74.2,21.6l-1.1-0.1l-0.1,0.1l-3.4,7.6l-0.1,0.2h1.2l0.1-0.1l0.9-1.9
		h3.9l0.8,1.9l0.1,0.1h1.2l-0.1-0.2L74.2,21.6z M45.1,21.6H45v1.1h2.6v6.8h1.2v-6.8h2.5v-1.1H51H45.1z M51.8,10.2h2.4
		c1.6,0,2.6,0.8,2.6,2.1v0.1c0,1.3-1.1,2.1-2.6,2.1h-2.3V10.2z M58.2,12.3c0-2.1-1.6-3.4-3.9-3.4h-3.9v10.4h1.4v-3.6h2.3
		C56.1,15.7,58.2,14.7,58.2,12.3z M67.5,21.6h-0.2v7.8h1.2v-7.8h-0.2H67.5z M53.5,28.3v-2.3h4.1v-1.1h-4.1v-2.3h4.6v-1.1h-5.7v7.8
		h5.8v-1.1H58H53.5z M60.7,25.4v-2.8h2.2c1.1,0,1.8,0.5,1.8,1.3V24c0,0.8-0.7,1.4-1.8,1.4H60.7z M63.9,26.2c1.2-0.3,1.9-1.1,1.9-2.3
		c0-0.6-0.2-1.2-0.6-1.6c-0.5-0.5-1.3-0.8-2.2-0.8h-3.4v7.8h1.1v-2.9h1.9l2.2,2.9v0.1h1.4l-0.2-0.3L63.9,26.2z M65.6,19.3v-1.3H61
		V8.9h-1.4v10.4h5.8H65.6z M40.6,26.3l1.5-3.3l1.5,3.3H40.6z M42.7,21.6L42.7,21.6l-1.1-0.1v0.1l-3.4,7.6l-0.1,0.2h1.2l0.1-0.1
		l0.8-1.9h3.9l0.8,1.9l0.1,0.1h1.2l-0.1-0.2L42.7,21.6z M81.8,10.2H84c2.4,0,4,1.6,4,3.9c0,2.3-1.6,3.8-4,3.8h-2.2V10.2z M84,19.3
		c3.2,0,5.5-2.2,5.5-5.2v-0.1c0-3-2.3-5.2-5.5-5.2h-3.7v10.4h0.2H84z M87,24.9c-1.7-0.3-1.9-0.7-1.9-1.3v-0.1c0-0.6,0.6-1.1,1.4-1.1
		c0.8,0,1.4,0.2,2.1,0.8l0.1,0.1l0.1-0.1l0.4-0.7l0.1-0.1l-0.1-0.1c-0.8-0.7-1.7-0.9-2.7-0.9c-1.6,0-2.6,0.9-2.6,2.2v0.1
		c0,1.4,1.1,1.9,2.6,2.3c1.6,0.3,1.8,0.7,1.8,1.3c0,0.7-0.6,1.2-1.5,1.2c-1,0-1.7-0.3-2.5-1.1l-0.1-0.1l-0.1,0.1l-0.5,0.7l-0.1,0.1
		l0.1,0.1c0.9,0.8,1.9,1.3,3.2,1.3c1.6,0,2.7-0.9,2.7-2.3v-0.1C89.6,26,88.8,25.3,87,24.9z M68.7,19.3V8.9h-1.4v10.4h1.3H68.7z
		 M42.5,10.2h2.4c1.7,0,2.6,0.8,2.6,2.1v0.1c0,1.3-1,2.1-2.6,2.1h-2.3V10.2z M42.3,19.3h0.2v-3.6h2.3c2,0,4.1-1.1,4.1-3.4
		c0-2.1-1.5-3.4-3.9-3.4H41v10.4h0.2H42.3z M34.4,10.7l2.1,4.7h-4.2L34.4,10.7z M30.5,19.3L30.5,19.3l1.2-2.7H37l1.2,2.6l0.1,0.1
		h1.5l-0.1-0.2L35,8.9L35,8.8h-1.2l-0.1,0.1l-4.6,10.1L29,19.3H30.5L30.5,19.3z M79.9,28.3v-6.7h-1.2v7.8h4.1v-1.1h-0.1H79.9z
		 M36.1,21.6H36v0.1l-2.7,3.9l-2.6-3.9l-0.1-0.1h-1.1v7.8h1.1v-5.8l2.5,3.6v0.1h0.2l0.1-0.1l2.4-3.6v5.8h1.2v-7.8h-0.2H36.1z
		 M72.3,17.9v-3.2h5.6v-1.3h-5.6v-3.2h6.2V8.9h-7.6v10.4h7.6v-1.3h-0.1H72.3z"/>
	<path class="st0" d="M93.3,27.6c0.3,0,0.4-0.1,0.4-0.3c0-0.2-0.2-0.3-0.4-0.3h-0.6v0.7 M92.5,26.7h0.8c0.2,0,0.4,0.1,0.6,0.2
		c0.1,0.1,0.2,0.2,0.2,0.4c0,0.3-0.2,0.5-0.5,0.6l0.6,0.7h-0.3l-0.6-0.7h-0.4v0.7h-0.3V26.7z M94.9,27.7L94.9,27.7
		c0-0.9-0.7-1.7-1.7-1.7c-0.9,0-1.7,0.7-1.7,1.7c0,0.9,0.7,1.7,1.7,1.7C94.2,29.3,94.9,28.6,94.9,27.7z M91.4,27.7
		c0-1,0.8-1.8,1.8-1.8c1,0,1.8,0.8,1.8,1.8v0.1c0,0.9-0.8,1.8-1.8,1.8C92.2,29.5,91.4,28.7,91.4,27.7z"/>
</g>
</svg>
