<?xml version="1.0" encoding="utf-8"?>
<!-- Generator: Adobe Illustrator 26.0.1, SVG Export Plug-In . SVG Version: 6.00 Build 0)  -->
<svg version="1.1" id="Layer_1" xmlns="http://www.w3.org/2000/svg" xmlns:xlink="http://www.w3.org/1999/xlink" x="0px" y="0px"
	 viewBox="0 0 95 35" style="enable-background:new 0 0 95 35;" xml:space="preserve">
<style type="text/css">
	.st0{fill:#FFFFFF;}
</style>
<g>
	<path class="st0" d="M22.3,27.3H17l-1.6-3.9H6.7l-1.5,3.9H0L7.9,7.7h5.7L22.3,27.3z M10.8,12.4L7.9,20h6L10.8,12.4z M41.5,7.7h4.3
		v19.6h-4.9V15.1l-5.3,6.2h-0.7l-5.3-6.2v12.3h-4.9V7.7h4.3l6.3,7.3L41.5,7.7z M58.1,7.7c7.2,0,10.9,4.5,10.9,9.8
		c0,5.6-3.6,9.8-11.4,9.8h-8.1V7.7H58.1z M54.3,23.7h3.2c4.9,0,6.4-3.3,6.4-6.2c0-3.4-1.8-6.2-6.4-6.2h-3.1L54.3,23.7L54.3,23.7z
		 M95,6.2v22.5l-6.2-6.2V12.3H78.7l-6.2-6.2H95z M72.3,28.8h8.9l6.4-6.4h-8.9v-8.9l-6.4,6.4V28.8z"/>
</g>
</svg>
