<?xml version="1.0" encoding="utf-8"?>
<!-- Generator: Adobe Illustrator 26.0.1, SVG Export Plug-In . SVG Version: 6.00 Build 0)  -->
<svg version="1.1" id="Layer_1" xmlns="http://www.w3.org/2000/svg" xmlns:xlink="http://www.w3.org/1999/xlink" x="0px" y="0px"
	 viewBox="0 0 95 35" style="enable-background:new 0 0 95 35;" xml:space="preserve">
<style type="text/css">
	.st0{fill:#CCCCCC;}
</style>
<g>
	<path id="path7" class="st0" d="M20.27,28.79V6.3c2.85,0.19,5.17,1.51,7.11,3.58c2.08,2.21,3.38,4.93,4.51,7.72
		c1.89-5.18,5.46-10.77,11.5-11.29v7.82c0.84-2.44,2.1-4.66,4.17-6.28c2.21-1.74,4.95-2.49,7.73-2.49c5.03,0,10.06,3.45,10.96,8.56
		h-5.8c-0.99-2.29-3.1-3.21-5.52-3.21c-3.84,0-6.78,2.85-6.78,6.72c0,4.02,2.67,6.96,6.74,6.96c1.72,0,3.36-0.53,4.6-1.76
		c0.69-0.69,1.11-1.55,1.47-2.44h-6.67v-5.37h12.36V6.3h11.59v5.41h-6.05v3.12h6.05v5.37h-6.05v3.18h6.05v5.41H66.65V20.2
		c-0.4,1.91-1.19,3.53-2.41,5.06c-2.32,2.91-5.74,4.39-9.44,4.39c-2.81,0-5.56-0.73-7.73-2.58c-1.92-1.63-3.06-3.74-3.68-6.13v7.85
		h-5.42V16.61c-2.6,3.46-3.48,7.93-3.56,12.18h-5.1c-0.09-4.29-1.23-8.58-3.6-12.18v12.18H20.27z"/>
	<path id="path11" class="st0" d="M89.58,6.3H95v22.49h-4.89c-0.72-3.72-2.48-8.46-5.54-10.82v10.82h-5.43V6.29
		c2.46,0.5,5.68,3.03,7.48,4.75c1.15,1.11,2.28,2.33,2.97,3.79V6.3z"/>
	<path id="path10" class="st0" d="M0,28.79l0.16-0.55l0.93-3.17c0.77-2.6,1.79-5.18,2.92-7.65C6.86,11.13,11.6,6.2,18.87,6.2
		c0.17,0,0.33,0.01,0.5,0.01v22.58h-5.46v-5.46H6.96L6.8,23.81l-0.33,1l-0.45,1.58L5.6,28.12l-0.17,0.66H0z M9.42,17.97h4.49v-5.14
		C11.53,13.94,10.53,15.71,9.42,17.97z"/>
</g>
</svg>
