<?xml version="1.0" encoding="utf-8"?>
<!-- Generator: Adobe Illustrator 26.0.1, SVG Export Plug-In . SVG Version: 6.00 Build 0)  -->
<svg version="1.1" id="Layer_1" xmlns="http://www.w3.org/2000/svg" xmlns:xlink="http://www.w3.org/1999/xlink" x="0px" y="0px"
	 viewBox="0 0 95 35" style="enable-background:new 0 0 95 35;" xml:space="preserve">
<style type="text/css">
	.st0{fill:#343741;}
</style>
<g>
	<path class="st0" d="M46.13,6.13v6.13l0.64,0.95c0.35,0.52,1.24,1.84,1.97,2.93c0.73,1.09,1.79,2.68,2.36,3.53
		c0.57,0.85,1.28,1.91,1.58,2.35l0.54,0.81l4.32,0c2.37,0,4.32-0.01,4.32-0.02c0-0.01-0.28-0.43-0.63-0.93
		c-0.35-0.5-1.24-1.8-1.99-2.89c-2.35-3.41-4.53-6.58-5.05-7.33c-0.27-0.4-0.81-1.18-1.2-1.74c-0.39-0.56-0.94-1.36-1.22-1.78
		c-0.29-0.42-1.22-1.77-2.07-3c-0.85-1.24-2-2.9-2.55-3.7C46.61,0.65,46.15,0,46.14,0C46.14,0,46.13,2.76,46.13,6.13"/>
	<path class="st0" d="M45.14,1.46c-0.55,0.8-1.7,2.47-2.55,3.71c-0.85,1.23-1.78,2.59-2.07,3c-0.29,0.42-0.84,1.21-1.22,1.78
		c-0.39,0.56-0.93,1.35-1.2,1.74c-0.52,0.75-2.7,3.91-5.05,7.33c-0.75,1.09-1.64,2.39-1.99,2.89c-0.35,0.5-0.63,0.92-0.63,0.93
		c0,0.01,1.94,0.02,4.32,0.02l4.32,0l0.54-0.81c0.56-0.84,2.1-3.14,4.28-6.38c0.68-1.02,1.47-2.19,1.75-2.62l0.52-0.77l-0.01-6.14
		L46.14,0L45.14,1.46z"/>
	<path class="st0" d="M86.38,30.81c-0.91,0.45-0.59,1.82,0.43,1.82c0.51,0,0.9-0.36,0.93-0.88c0.02-0.32-0.06-0.54-0.28-0.75
		C87.17,30.69,86.76,30.62,86.38,30.81 M87.22,30.99c0.43,0.3,0.46,0.95,0.07,1.3c-0.46,0.42-1.18,0.1-1.24-0.54
		c-0.03-0.35,0.15-0.68,0.44-0.81C86.71,30.84,87.04,30.87,87.22,30.99"/>
	<path class="st0" d="M86.55,31.13l-0.11,0.01v0.54c0,0.45,0.01,0.54,0.05,0.55c0.06,0.02,0.15-0.04,0.15-0.1c0-0.02,0-0.11,0-0.2
		l0-0.16l0.12,0.01c0.14,0.01,0.19,0.08,0.23,0.3c0.02,0.1,0.04,0.13,0.1,0.15c0.05,0.01,0.09,0.01,0.1,0.01
		c0.03-0.03-0.06-0.38-0.11-0.46c-0.06-0.08-0.06-0.08,0.02-0.16c0.11-0.11,0.09-0.33-0.03-0.42
		C86.99,31.14,86.75,31.11,86.55,31.13 M86.95,31.35c0.08,0.08,0.08,0.1,0.01,0.19c-0.04,0.05-0.08,0.07-0.18,0.07
		c-0.14,0-0.16-0.02-0.14-0.2c0.01-0.12,0.02-0.13,0.13-0.13C86.84,31.28,86.91,31.31,86.95,31.35"/>
	<path class="st0" d="M37.92,30.92c-1.71,0.17-2.83,0.99-2.83,2.07c0,0.99,0.84,1.68,2.31,1.93c0.45,0.08,1.4,0.1,1.94,0.05
		c0.4-0.04,0.79-0.11,0.83-0.14c0.02-0.02-0.2-0.79-0.23-0.82c-0.01-0.01-0.1,0-0.21,0.02c-0.11,0.02-0.44,0.05-0.75,0.06
		c-0.47,0.01-0.6,0.01-0.88-0.05c-0.78-0.16-1.17-0.54-1.18-1.12c0-0.54,0.43-0.95,1.16-1.09c0.44-0.08,1.34-0.05,1.83,0.06
		c0.02,0,0.11-0.18,0.2-0.41c0.13-0.31,0.16-0.42,0.13-0.44c-0.06-0.03-0.38-0.09-0.78-0.13C39.1,30.87,38.34,30.87,37.92,30.92"/>
	<path class="st0" d="M62.24,30.9c-0.23,0.03-0.65,0.12-0.91,0.2c-0.99,0.32-1.6,0.96-1.65,1.76c-0.04,0.5,0.13,0.92,0.52,1.3
		c0.42,0.42,1,0.67,1.81,0.79c0.51,0.08,1.46,0.04,1.96-0.07c1.31-0.29,2.03-1,2.03-1.99c0-0.48-0.18-0.86-0.55-1.22
		c-0.31-0.29-0.57-0.44-1.02-0.59c-0.49-0.16-0.98-0.23-1.6-0.22C62.57,30.89,62.3,30.89,62.24,30.9 M63.33,31.8
		c0.21,0.06,0.49,0.23,0.59,0.38c0.19,0.26,0.23,0.37,0.23,0.76c0,0.34-0.01,0.38-0.1,0.56c-0.12,0.23-0.3,0.4-0.55,0.52
		c-0.27,0.13-0.84,0.15-1.17,0.04c-0.31-0.09-0.53-0.27-0.68-0.54c-0.12-0.21-0.12-0.23-0.12-0.57c0-0.42,0.06-0.57,0.3-0.83
		C62.17,31.77,62.75,31.64,63.33,31.8"/>
	<path class="st0" d="M27.64,30.94c-0.19,0.01-0.42,0.03-0.49,0.03l-0.14,0v1.98v1.98h0.87h0.87l0-0.74v-0.74l0.33,0.01
		c0.53,0.01,0.68,0.11,0.88,0.6c0.16,0.4,0.29,0.67,0.37,0.78l0.07,0.1h0.89h0.89l-0.08-0.14c-0.04-0.08-0.16-0.35-0.27-0.59
		c-0.3-0.7-0.48-0.93-0.86-1.08l-0.14-0.05L31,33.01c0.39-0.12,0.75-0.41,0.86-0.65c0.16-0.39-0.06-0.87-0.5-1.09
		c-0.52-0.26-0.93-0.33-2.28-0.34C28.49,30.92,27.84,30.93,27.64,30.94 M29.88,31.8c0.31,0.13,0.4,0.4,0.2,0.6
		c-0.17,0.18-0.35,0.23-0.87,0.25l-0.46,0.02v-0.48v-0.48l0.5,0.01C29.62,31.73,29.77,31.75,29.88,31.8"/>
	<path class="st0" d="M80.59,30.95c-0.26,0.01-0.49,0.03-0.51,0.04c-0.03,0.01-0.04,0.42-0.04,1.93c0,1.05,0.01,1.94,0.02,1.96
		c0.02,0.04,0.14,0.05,0.87,0.05h0.85V34.2v-0.74h0.31c0.55,0,0.72,0.1,0.91,0.58c0.06,0.15,0.18,0.41,0.27,0.58l0.15,0.3l0.9,0.01
		l0.9,0.01l-0.08-0.16c-0.04-0.09-0.14-0.31-0.22-0.5c-0.32-0.75-0.53-1.02-0.87-1.15l-0.16-0.06l0.25-0.1
		c0.42-0.17,0.64-0.34,0.76-0.6c0.14-0.31,0.08-0.63-0.18-0.89c-0.28-0.28-0.8-0.46-1.53-0.53C82.76,30.9,81.29,30.91,80.59,30.95
		 M82.9,31.78c0.33,0.1,0.44,0.42,0.23,0.64c-0.16,0.16-0.36,0.21-0.88,0.23l-0.46,0.02v-0.45c0-0.25,0.01-0.46,0.03-0.48
		C81.85,31.69,82.75,31.73,82.9,31.78"/>
	<path class="st0" d="M9.07,31.03c-0.02,0.05-0.29,0.64-0.6,1.3c-0.91,1.94-1.06,2.24-1.14,2.42l-0.08,0.18h0.9h0.9l0.18-0.45
		l0.17-0.45l0.84,0.01l0.84,0.01l0.19,0.44l0.19,0.44l0.94,0.01l0.94,0.01l-0.24-0.51c-0.13-0.28-0.57-1.18-0.96-2l-0.71-1.48h-1.17
		H9.1L9.07,31.03z M10.52,32.48c0.16,0.39,0.29,0.72,0.29,0.73s-0.25,0.02-0.57,0.02c-0.31,0-0.57-0.01-0.57-0.03
		c0-0.03,0.43-1.18,0.51-1.38c0.02-0.04,0.04-0.07,0.04-0.07C10.22,31.76,10.36,32.09,10.52,32.48"/>
	<path class="st0" d="M14.18,31.07c-0.01,0.07-0.06,0.53-0.1,1.02c-0.05,0.49-0.09,0.95-0.1,1.02c-0.01,0.07-0.05,0.44-0.08,0.82
		c-0.04,0.38-0.08,0.76-0.09,0.85l-0.02,0.16h0.81h0.81l0-0.16c0-0.09,0.01-0.19,0.01-0.24c0.02-0.13,0.11-1.5,0.14-2.03
		c0.01-0.26,0.03-0.49,0.05-0.52c0.02-0.04,0.03-0.04,0.03,0.01c0,0.11,0.36,1.16,0.69,2.01l0.33,0.87h0.68h0.68l0.51-1.1
		c0.28-0.6,0.57-1.26,0.65-1.46c0.08-0.2,0.16-0.37,0.17-0.38c0.01-0.01,0.02,0.24,0.02,0.56c0,0.32,0.01,0.7,0.02,0.84
		c0.03,0.52,0.08,1.45,0.08,1.53v0.08h0.85h0.85l-0.06-0.7c-0.09-1.1-0.26-3.21-0.26-3.25c0-0.03-0.29-0.04-1.15-0.04l-1.15,0
		l-0.29,0.63c-0.15,0.35-0.39,0.9-0.52,1.24c-0.13,0.34-0.24,0.62-0.25,0.63c-0.01,0.01-0.07-0.16-0.14-0.38
		c-0.07-0.22-0.28-0.78-0.46-1.26l-0.34-0.86h-1.17H14.2L14.18,31.07z"/>
	<polygon class="st0" points="21.98,32.94 21.98,34.93 24.14,34.93 26.3,34.93 26.3,34.5 26.3,34.06 25.01,34.06 23.72,34.06 
		23.72,33.69 23.72,33.32 24.88,33.32 26.03,33.32 26.03,32.89 26.03,32.45 24.88,32.45 23.72,32.45 23.72,32.13 23.72,31.82 
		24.94,31.82 26.17,31.82 26.17,31.38 26.17,30.94 24.07,30.94 21.98,30.94 	"/>
	<polygon class="st0" points="32.68,32.94 32.68,34.93 33.55,34.93 34.42,34.93 34.42,32.94 34.42,30.94 33.55,30.94 32.68,30.94 	
		"/>
	<path class="st0" d="M42.31,31.15c-0.05,0.12-0.39,0.85-0.76,1.62c-0.37,0.77-0.68,1.46-0.71,1.52c-0.03,0.06-0.11,0.23-0.18,0.38
		l-0.13,0.27l0.91-0.01l0.91-0.01l0.17-0.45l0.17-0.44h0.84h0.84l0.2,0.45l0.2,0.45h0.93c0.52,0,0.94-0.01,0.94-0.01
		s-0.43-0.9-0.95-1.99l-0.95-1.97l-1.16-0.01l-1.17-0.01L42.31,31.15z M43.77,32.39c0.13,0.32,0.26,0.64,0.29,0.71l0.05,0.13h-0.59
		c-0.32,0-0.59-0.01-0.59-0.02c0-0.01,0.09-0.25,0.2-0.53c0.11-0.29,0.2-0.53,0.2-0.54c0-0.07,0.15-0.39,0.16-0.37
		C43.52,31.79,43.64,32.06,43.77,32.39"/>
	<path class="st0" d="M47.2,32.94v2h0.81h0.81l-0.02-1.2c-0.01-0.66-0.03-1.28-0.04-1.38c-0.01-0.09-0.01-0.17,0-0.17
		c0.01,0,0.08,0.09,0.16,0.21c0.26,0.38,0.56,0.77,1.3,1.66l0.73,0.88h0.92h0.91v-2v-2h-0.79h-0.79l0.02,1
		c0.01,0.55,0.04,1.14,0.07,1.31c0.02,0.17,0.04,0.31,0.04,0.3c0,0-0.12-0.18-0.26-0.39c-0.3-0.45-0.31-0.46-1.14-1.45l-0.64-0.76
		h-1.03H47.2V32.94z"/>
	<polygon class="st0" points="54.61,31.4 54.61,31.85 55.43,31.85 56.26,31.85 56.26,33.39 56.26,34.93 57.13,34.93 58,34.93 
		58,33.39 58,31.85 58.84,31.85 59.68,31.85 59.68,31.4 59.68,30.94 57.14,30.94 54.61,30.94 	"/>
	<path class="st0" d="M66.15,30.97c0,0.02,0.33,0.91,0.73,2l0.73,1.97h0.96h0.96l0.15-0.48c0.08-0.26,0.21-0.67,0.29-0.91
		c0.13-0.43,0.28-0.99,0.33-1.23c0.01-0.07,0.03-0.12,0.03-0.12c0.01,0.01,0.05,0.2,0.1,0.43c0.1,0.47,0.58,2.25,0.62,2.29
		c0.01,0.01,0.45,0.02,0.96,0.02l0.94-0.01l0.78-1.96c0.43-1.08,0.78-1.97,0.78-1.99c0-0.01-0.39-0.02-0.87-0.02h-0.87l-0.05,0.17
		c-0.03,0.1-0.17,0.67-0.33,1.28c-0.15,0.61-0.29,1.17-0.31,1.24c-0.03,0.13-0.04,0.11-0.15-0.4c-0.06-0.3-0.21-0.93-0.34-1.41
		l-0.23-0.87h-0.94h-0.93l-0.21,0.74c-0.11,0.41-0.29,1.02-0.38,1.38c-0.09,0.35-0.18,0.66-0.19,0.69
		c-0.01,0.03-0.09-0.26-0.18-0.64c-0.14-0.59-0.4-1.64-0.51-2.06l-0.03-0.12h-0.92C66.57,30.94,66.15,30.95,66.15,30.97"/>
	<polygon class="st0" points="75.01,32.94 75.01,34.93 77.17,34.93 79.33,34.93 79.33,34.5 79.33,34.06 78.04,34.06 76.75,34.06 
		76.75,33.69 76.75,33.32 77.91,33.32 79.06,33.32 79.06,32.89 79.06,32.45 77.91,32.45 76.75,32.45 76.75,32.13 76.75,31.82 
		77.97,31.82 79.2,31.82 79.2,31.38 79.2,30.94 77.1,30.94 75.01,30.94 	"/>
</g>
</svg>
