<?xml version="1.0" encoding="utf-8"?>
<!-- Generator: Adobe Illustrator 26.0.1, SVG Export Plug-In . SVG Version: 6.00 Build 0)  -->
<svg version="1.1" id="Layer_1" xmlns="http://www.w3.org/2000/svg" xmlns:xlink="http://www.w3.org/1999/xlink" x="0px" y="0px"
	 viewBox="0 0 95 35" style="enable-background:new 0 0 95 35;" xml:space="preserve">
<style type="text/css">
	.st0{fill-rule:evenodd;clip-rule:evenodd;fill:#FFFFFF;}
</style>
<g>
	<path class="st0" d="M58.9,25.6c-5.5,4.1-13.5,6.2-20.4,6.2c-9.7,0-18.4-3.6-24.9-9.5c-0.5-0.5-0.1-1.1,0.6-0.7
		c7.1,4.1,15.9,6.6,24.9,6.6c6.1,0,12.8-1.3,19-3.9C59.1,23.9,59.9,24.9,58.9,25.6"/>
	<path class="st0" d="M61.2,22.9c-0.7-0.9-4.7-0.4-6.4-0.2c-0.5,0.1-0.6-0.4-0.1-0.7c3.2-2.2,8.3-1.6,8.9-0.8
		c0.6,0.7-0.2,5.9-3.1,8.4c-0.5,0.4-0.9,0.2-0.7-0.3C60.4,27.6,61.9,23.9,61.2,22.9"/>
	<path class="st0" d="M54.9,6.3V4.2c0-0.3,0.2-0.5,0.5-0.5h9.7c0.3,0,0.6,0.2,0.6,0.5V6c0,0.3-0.3,0.7-0.7,1.4l-5,7.1
		c1.9,0,3.8,0.2,5.5,1.2c0.4,0.2,0.5,0.5,0.5,0.8v2.3c0,0.3-0.3,0.7-0.7,0.5c-3-1.6-6.9-1.7-10.2,0c-0.3,0.2-0.7-0.2-0.7-0.5v-2.2
		c0-0.4,0-1,0.4-1.5l5.8-8.3h-5C55.2,6.9,54.9,6.6,54.9,6.3 M19.7,19.8h-2.9c-0.3,0-0.5-0.2-0.5-0.5V4.2c0-0.3,0.3-0.5,0.6-0.5h2.7
		c0.3,0,0.5,0.2,0.5,0.5v2h0.1c0.7-1.9,2.1-2.8,3.9-2.8c1.8,0,3,0.9,3.8,2.8c0.7-1.9,2.3-2.8,4.1-2.8c1.2,0,2.6,0.5,3.4,1.6
		C36.2,6.3,36,8.1,36,9.7l0,9.5c0,0.3-0.3,0.5-0.6,0.5h-2.9c-0.3,0-0.5-0.3-0.5-0.5v-8c0-0.6,0.1-2.2-0.1-2.8
		c-0.2-1-0.9-1.3-1.7-1.3c-0.7,0-1.5,0.5-1.8,1.2c-0.3,0.8-0.3,2-0.3,2.9v8c0,0.3-0.3,0.5-0.6,0.5h-2.9c-0.3,0-0.5-0.3-0.5-0.5l0-8
		c0-1.7,0.3-4.2-1.8-4.2c-2.1,0-2,2.4-2,4.2v8C20.2,19.5,20,19.8,19.7,19.8 M74,3.3c4.4,0,6.7,3.7,6.7,8.5c0,4.6-2.6,8.3-6.7,8.3
		c-4.3,0-6.6-3.7-6.6-8.4C67.4,7,69.7,3.3,74,3.3 M74,6.4c-2.2,0-2.3,3-2.3,4.8c0,1.8,0,5.8,2.3,5.8c2.3,0,2.4-3.2,2.4-5.1
		c0-1.3-0.1-2.8-0.4-4C75.6,6.8,75,6.4,74,6.4 M86.4,19.8h-2.9c-0.3,0-0.5-0.3-0.5-0.5l0-15.1c0-0.3,0.3-0.5,0.6-0.5h2.7
		c0.3,0,0.5,0.2,0.5,0.4v2.3h0.1c0.8-2.1,2-3,4-3c1.3,0,2.6,0.5,3.4,1.8C95,6.3,95,8.3,95,9.8v9.5c0,0.3-0.3,0.5-0.6,0.5h-2.9
		c-0.3,0-0.5-0.2-0.5-0.5v-8.2C91,9.5,91.2,7,89.1,7c-0.7,0-1.4,0.5-1.7,1.2C87,9.2,87,10.1,87,11.1v8.1
		C87,19.5,86.7,19.8,86.4,19.8 M47.2,12.6c0,1.1,0,2.1-0.6,3.1c-0.5,0.8-1.2,1.3-2,1.3c-1.1,0-1.8-0.9-1.8-2.1c0-2.5,2.2-3,4.4-3
		L47.2,12.6 M50.2,19.7c-0.2,0.2-0.5,0.2-0.7,0.1c-1-0.8-1.2-1.2-1.7-2C46.2,19.5,45,20,42.9,20c-2.5,0-4.4-1.5-4.4-4.6
		c0-2.4,1.3-4,3.1-4.8c1.6-0.7,3.8-0.8,5.5-1V9.2c0-0.7,0.1-1.5-0.4-2.1c-0.4-0.5-1-0.8-1.6-0.8c-1.1,0-2.1,0.6-2.4,1.8
		c0,0.3-0.2,0.5-0.5,0.5l-2.8-0.3C39.2,8.2,39,8.1,39,7.7c0.7-3.5,3.8-4.5,6.6-4.5c1.4,0,3.3,0.4,4.4,1.5c1.4,1.3,1.3,3.1,1.3,5.1
		v4.6c0,1.4,0.6,2,1.1,2.7c0.2,0.3,0.2,0.6,0,0.8C51.8,18.3,50.8,19.2,50.2,19.7L50.2,19.7 M8.7,12.6c0,1.1,0,2.1-0.6,3.1
		c-0.5,0.8-1.2,1.3-2,1.3c-1.1,0-1.8-0.9-1.8-2.1c0-2.5,2.2-3,4.4-3V12.6 M11.6,19.7c-0.2,0.2-0.5,0.2-0.7,0.1c-1-0.8-1.1-1.2-1.7-2
		C7.6,19.5,6.5,20,4.4,20C1.9,20,0,18.5,0,15.4c0-2.4,1.3-4,3.1-4.8c1.6-0.7,3.8-0.8,5.5-1V9.2c0-0.7,0.1-1.5-0.4-2.1
		c-0.4-0.5-1-0.8-1.6-0.8c-1.1,0-2.1,0.6-2.4,1.8c0,0.3-0.2,0.5-0.5,0.5L0.9,8.3C0.7,8.2,0.4,8.1,0.5,7.7c0.7-3.5,3.8-4.5,6.6-4.5
		c1.4,0,3.3,0.4,4.4,1.5c1.4,1.3,1.3,3.1,1.3,5.1v4.6c0,1.4,0.6,2,1.1,2.7c0.2,0.3,0.2,0.6,0,0.8C13.3,18.3,12.2,19.2,11.6,19.7
		L11.6,19.7"/>
</g>
</svg>
