<?xml version="1.0" encoding="utf-8"?>
<!-- Generator: Adobe Illustrator 26.0.1, SVG Export Plug-In . SVG Version: 6.00 Build 0)  -->
<svg version="1.1" id="Layer_1" xmlns="http://www.w3.org/2000/svg" xmlns:xlink="http://www.w3.org/1999/xlink" x="0px" y="0px"
	 viewBox="0 0 95 35" style="enable-background:new 0 0 95 35;" xml:space="preserve">
<style type="text/css">
	.st0{fill:#FFFFFF;}
</style>
<g>
	<path id="Fill-4" class="st0" d="M65.1,20h-4.6v-1.3c0-0.9,0.2-1.6,0.7-2c0.4-0.4,1-0.6,1.6-0.6c1.5,0,2.3,0.9,2.3,2.7
		C65.1,18.7,65.1,19.7,65.1,20z M66.8,16.5c-1-0.9-2.4-1.3-4-1.3c-1.4,0-2.9,0.7-3.9,1.8c-1.1,1.2-1.8,2.9-1.8,4.7
		c0,1.8,0.6,3.4,1.8,4.6c1.1,1.1,2.6,1.8,4.3,1.8c3.1,0,4.9-2.3,5.2-4.4l0-0.1h-1l0,0.1c-0.2,1.7-1.7,3.6-4,3.6
		c-1.8,0-2.9-1.3-2.9-3.4v-2.9h8v-0.1C68.5,18.9,67.9,17.5,66.8,16.5z"/>
	<path id="Fill-6" class="st0" d="M41.6,25.3h-0.9l0,0.1c-0.1,0.6-0.5,1.5-1.6,1.5c-0.9,0-1.4-0.6-1.4-1.9v-8.7h3v-0.8h-3v-3.8
		l-0.1,0c-0.7,0.1-2.1,0.2-2.8,0.2h-0.1v3.6h-2v0.9h2v7.6c0,2.8,1.2,4.2,3.5,4.2c2.7,0,3.3-2.1,3.4-2.7L41.6,25.3"/>
	<path id="Fill-7" class="st0" d="M7.9,12.2l2.8,8.1H5.3L7.9,12.2z M30.9,26.9v-7.7c0-1.2-0.4-2.2-1.1-2.9c-0.7-0.7-1.8-1.1-3-1.1
		c-1.6,0-2.9,0.6-3.9,1.9l0-1.5v-0.1h-4.8v0.8H20v10.6h-3.4l-7-20l0-0.1H8.7L1.9,26.9H0v0.8h5.7v-0.8H3.1L5,21.2H11l1.9,5.7h-2.7
		v0.8h14.5v-0.8h-1.9v-5.9c0-3.5,1.9-4.8,3.1-4.8c1.2,0,1.8,0.8,1.8,2.3v8.3h-1.8v0.8h6.7v-0.8H30.9z"/>
	<path id="Fill-8" class="st0" d="M54.7,26.9v-7.8c0-1.8-1.1-3.9-4.2-3.9c-2.4,0-3.7,1.2-4.2,1.8v-10h-4.8v0.9h1.8v19.1h-2v0.8h6.9
		v-0.8h-1.9V21c0-2.1,0.7-3.2,1.3-3.8c0.6-0.6,1.3-0.9,2.1-0.9c1.7,0,2,1.4,2,2.5v8.1h-1.9v0.8h6.9v-0.8H54.7"/>
	<path id="Fill-9" class="st0" d="M91,26.9h-1.9v-8.3c0-2.1-1.5-3.5-3.8-3.5c-2.2,0-3.4,1.1-4,1.9c-0.6-1.2-1.8-1.9-3.5-1.9
		c-1.6,0-3,0.6-4,1.6l0-1.2v-0.1h-4.9v0.8h2v10.6h-2v0.8h6.7v-0.8h-1.7v-5.8c0.1-1.7,0.1-2.8,0.7-3.6c0.5-0.7,1.4-1.1,2.2-1.1
		c1,0,1.4,0.8,1.4,0.8c0.3,0.5,0.3,1.3,0.3,2.1v7.6h-1.8v0.8h6.6v-0.8h-1.7v-5.8c0.1-1.7,0.1-2.8,0.7-3.6c0.5-0.7,1.4-1.1,2.2-1.1
		c1,0,1.4,0.8,1.4,0.8c0.3,0.5,0.3,1.3,0.3,2.1v7.6h-1.8v0.8h6.7L91,26.9L91,26.9"/>
	<path id="Fill-10" class="st0" d="M93.4,26.1c0.2,0,0.6,0,0.6-0.3c0-0.2-0.2-0.3-0.4-0.3h-0.5v0.6H93.4z M93.1,27.1h-0.2v-1.8h0.8
		c0.5,0,0.6,0.2,0.6,0.5c0,0.3-0.2,0.5-0.6,0.5l0.5,0.8H94l-0.5-0.8h-0.4L93.1,27.1L93.1,27.1z M94.7,26.2c0-0.8-0.6-1.3-1.3-1.3
		c-0.8,0-1.3,0.6-1.3,1.3c0,0.8,0.6,1.3,1.3,1.3C94.2,27.5,94.7,26.9,94.7,26.2z M91.9,26.2c0-0.9,0.7-1.6,1.6-1.6
		c0.9,0,1.6,0.7,1.6,1.6s-0.7,1.6-1.6,1.6C92.6,27.7,91.9,27,91.9,26.2z"/>
</g>
</svg>
