<?xml version="1.0" encoding="utf-8"?>
<!-- Generator: Adobe Illustrator 26.0.1, SVG Export Plug-In . SVG Version: 6.00 Build 0)  -->
<svg version="1.1" id="Layer_1" xmlns="http://www.w3.org/2000/svg" xmlns:xlink="http://www.w3.org/1999/xlink" x="0px" y="0px"
	 viewBox="0 0 95 35" style="enable-background:new 0 0 95 35;" xml:space="preserve">
<style type="text/css">
	.st0{fill:#FFFFFF;}
</style>
<g>
	<path class="st0" d="M34.7,0l4.8,34.2h-7.6l-3.4-23.9l-0.1-0.1l-5.7,10.9h6.1l1,6.4H19.4l-3.6,6.7H7.4l3.3-6.7H6l3.3-6.4h4.8
		L25.3,0H34.7z M89,7.9l-4.6,26.3h-7.6L71,21c-0.9,4.4-1.6,8.8-2.3,13.2h-7.6c0.3-2,0.7-4.1,0.9-6.1c-2.5,4.4-6.9,6.9-11.8,6.8
		c-3.6,0-8-2.3-10-5.2l-2-13.8c1.8-4.6,6.6-8.2,11.5-8.6c5-0.3,9.3,1.8,12.2,6c1,1.5,1.6,3.2,2,5l1.9-10.4H73l5.9,13.3
		c0.8-4.4,1.6-8.8,2.3-13.3H89z M54.8,16.4c-1.5-1.9-3.9-2.4-6.1-1.7c-1.8,0.5-3.3,2.5-3.9,4.1c-1.1,2.9,0.2,6.8,2.1,8
		c1.3,0.8,2.9,1.3,4.5,0.8c1.6-0.5,3.2-1.8,3.9-3.5C56.5,21.9,56.6,18.4,54.8,16.4z"/>
</g>
</svg>
