<?xml version="1.0" encoding="utf-8"?>
<!-- Generator: Adobe Illustrator 26.0.1, SVG Export Plug-In . SVG Version: 6.00 Build 0)  -->
<svg version="1.1" id="Layer_1" xmlns="http://www.w3.org/2000/svg" xmlns:xlink="http://www.w3.org/1999/xlink" x="0px" y="0px"
	 viewBox="0 0 95 35" style="enable-background:new 0 0 95 35;" xml:space="preserve">
<style type="text/css">
	.st0{fill-rule:evenodd;clip-rule:evenodd;fill:#CCCCCC;}
</style>
<g id="layer1" transform="translate(-12.033482,-397.45528)">
	<path id="path22" class="st0" d="M93.04,404.88l-4.79,8.31h-3.72l-3.28,5.69h3.73l-3.41,5.95h23.01l1.95-3.47H87.32l3.3-5.73H86.9
		l1.39-2.43h3.73l4.79-8.31H93.04L93.04,404.88z M61.75,406.27l-5.25,8.74h2.84l0.78-1.4h3.1l0.24,1.4h2.49h0.08h2.63l1.78-8.74
		h-2.7l-1.75,8.52l-1.61-8.52H61.75z M71.45,406.27l-1.8,8.74h2.68l1.36-6.63h1.75c0.53,0,0.69,0.51,0.69,0.75
		c0,0.51-0.35,1.09-1.32,1.09h-1.49l1.68,4.79h2.87l-1.44-3.6c1.48-0.12,2.43-1.18,2.49-2.63c0.04-0.92-0.58-2.5-3-2.5H71.45
		L71.45,406.27z M62.52,409.17l0.42,2.55h-1.83L62.52,409.17z M96.94,409.66l-2.02,3.54h4.09L96.94,409.66z M93.55,415.63l-1.9,3.26
		h10.66l-1.93-3.26H93.55z M103.22,415.63l1.91,3.26l1.9-3.26H103.22z M60.73,415.8c-2.44,0-4.25,1.23-4.96,4.02
		c-0.66,2.58,0.61,4.5,2.52,5.04c0.07,0.02,0.14,0.04,0.22,0.05c0.29,0.06,0.59,0.1,0.9,0.1c2.59,0,4.15-1.29,4.86-3.55h-2.75
		c-0.29,0.91-0.74,1.42-1.72,1.42c-0.7,0-1.08-0.3-1.28-0.73c-0.02-0.03-0.03-0.07-0.04-0.1c-0.13-0.34-0.15-0.74-0.12-1.13
		c0.01-0.08,0.02-0.16,0.03-0.23c0.03-0.23,0.07-0.45,0.12-0.63c0.43-1.68,1.21-2.17,2.11-2.17c0.9,0,1.4,0.62,1.28,1.54l2.62,0
		c0.05-0.45,0.02-0.86-0.08-1.24h2.17l-1.37,6.65h2.74l1.36-6.65h2.15c-0.04,0.21-0.06,0.44-0.05,0.68c0.03,1.01,0.5,1.51,1.01,1.87
		c1.22,0.84,3.21,0.64,3.11,1.51c-0.03,0.26-0.19,0.48-0.48,0.6c-0.03,0.01-0.06,0.03-0.09,0.04c-0.16,0.05-0.35,0.08-0.57,0.08
		c-0.16,0-0.31-0.01-0.43-0.04c-0.06-0.01-0.12-0.03-0.17-0.04c-0.68-0.22-0.61-0.83-0.61-1.09h-2.74
		c-0.09,2.26,1.61,3.18,3.86,3.18c0.81,0,1.5-0.15,2.07-0.41c0.06-0.03,0.11-0.05,0.17-0.08c1.09-0.55,1.69-1.5,1.74-2.46
		c0-0.05,0-0.1,0-0.14c0-0.25-0.03-0.48-0.08-0.68c-0.01-0.04-0.02-0.08-0.03-0.12c-0.64-2.19-3.97-1.67-4.17-2.59
		c0-0.02-0.01-0.03-0.01-0.05c0-0.02,0-0.03,0-0.05c0.01-0.43,0.35-0.68,1.15-0.66c0.48,0.01,1.07,0.07,1.07,0.94h2.47
		c0.12-1.61-1.03-2.86-3.45-2.86c-0.61,0-1.19,0.08-1.7,0.24c-0.06,0.02-0.11,0.04-0.17,0.06c-0.71,0.26-1.28,0.69-1.62,1.28
		c0,0.01-0.01,0.01-0.01,0.02l0.26-1.3h-7.38l-0.34,1.69C63.75,416.52,62.39,415.8,60.73,415.8L60.73,415.8z M33.97,415.81
		c-0.6,0-1.16,0.08-1.68,0.25c-0.07,0.02-0.15,0.05-0.22,0.08c-1.72,0.64-2.89,2.19-3.19,4.3c-0.43,3.08,1.53,4.58,3.95,4.6
		c2.48,0.02,4.7-1.71,5.08-4.63C38.19,418.18,37.15,415.82,33.97,415.81z M13.8,416.09l-1.77,8.74h2.68l0.55-2.72h2.25
		c2.44-0.05,3.24-1.55,3.43-3.06c0.15-1.16-0.53-2.96-2.98-2.96H13.8z M21.66,416.09l-1.8,8.74h2.68l1.36-6.63h1.76
		c0.53,0,0.69,0.51,0.69,0.75c0,0.51-0.35,1.09-1.32,1.09h-1.49l1.69,4.79h2.85l-1.44-3.6c1.48-0.12,2.43-1.18,2.49-2.63
		c0.04-0.92-0.58-2.51-3-2.51H21.66z M39.22,416.09l-1.79,8.74l3.83,0c3.96,0,4.93-2.42,5.31-3.73c0.73-2.57-0.14-5.01-3.48-5.01
		L39.22,416.09L39.22,416.09z M48.01,416.09l-1.06,4.93c-0.75,3.06,1.68,4.01,3.73,4.01c1.61,0,3.7-0.42,4.31-3.18l1.24-5.76h-2.77
		l-1.12,5.41c-0.18,0.9-0.69,1.34-1.58,1.34c-1.12,0-1.3-0.69-1.17-1.34l1.12-5.41H48.01z M33.86,417.88
		c1.21-0.01,1.51,1.22,1.29,2.41c-0.29,1.56-1.01,2.66-2.19,2.63c-1.25-0.03-1.53-1.2-1.24-2.59
		C31.94,419.24,32.46,417.89,33.86,417.88z M41.51,418.13h1.16c1.4,0,1.58,1.15,1.32,2.29c-0.45,1.99-1.29,2.24-2.74,2.25H40.6
		L41.51,418.13z M16.06,418.2h1.23c1.09,0,0.99,0.56,1.01,0.79c0.03,0.29-0.18,0.91-0.89,0.99c-0.05,0.01-0.1,0.01-0.15,0.01h-1.59
		L16.06,418.2L16.06,418.2z"/>
</g>
</svg>
