<?xml version="1.0" encoding="utf-8"?>
<!-- Generator: Adobe Illustrator 26.0.1, SVG Export Plug-In . SVG Version: 6.00 Build 0)  -->
<svg version="1.1" id="Layer_1" xmlns="http://www.w3.org/2000/svg" xmlns:xlink="http://www.w3.org/1999/xlink" x="0px" y="0px"
	 viewBox="0 0 95 35" style="enable-background:new 0 0 95 35;" xml:space="preserve">
<style type="text/css">
	.st0{fill:#FFFFFF;fill-opacity:0.9569;}
</style>
<g>
	<path class="st0" d="M82.08,16.04c-1.7,0-2.21,1.47-2.21,2.94c0,1.45,0.51,2.92,2.21,2.92c1.71,0,2.23-1.47,2.23-2.92
		C84.3,17.51,83.79,16.04,82.08,16.04z"/>
	<path class="st0" d="M59.74,16.04c-1.59,0-2.05,1.24-2.08,1.94h4.08C61.51,16.71,60.96,16.04,59.74,16.04z"/>
	<polygon class="st0" points="8.44,14.02 6.8,18.65 10.07,18.65 8.48,14.02 	"/>
	<path class="st0" d="M37.49,16.04c-1.65,0-2.17,1.47-2.17,2.95c0,1.49,0.56,2.9,2.19,2.9c1.64,0,2.17-1.41,2.17-2.9
		C39.68,17.54,39.1,16.04,37.49,16.04z"/>
	<path class="st0" d="M0,7.68v19.63h95V7.68H0z M11.75,23.53l-0.95-2.81H6.07l-0.99,2.81H2.28l4.79-12.62h2.84l4.72,12.62H11.75z
		 M30.2,23.53h-2.51v-5.18c0-1.22-0.1-2.23-1.54-2.23c-1.41,0-1.68,1.17-1.68,2.32v5.09h-2.51v-5.13c0-1.06,0.07-2.28-1.52-2.28
		c-0.5,0-1.7,0.32-1.7,2.1v5.3h-2.51v-9.14h2.37v1.24h0.04c0.65-0.94,1.61-1.49,2.79-1.49c1.15,0,2.17,0.42,2.67,1.52
		c0.53-0.79,1.49-1.52,2.76-1.52c1.94,0,3.34,0.9,3.34,3.27V23.53z M38.18,23.78c-1.1,0-2.14-0.48-2.74-1.38H35.4v4.35h-2.51V14.39
		h2.39v1.17h0.03c0.6-0.97,1.59-1.41,2.72-1.41c2.87,0,4.16,2.32,4.16,4.91C42.19,21.5,40.85,23.78,38.18,23.78z M52.97,23.53h-2.51
		v-5.16c0-1.5-0.44-2.25-1.61-2.25c-1.36,0-1.95,0.76-1.95,2.62v4.79H44.4l0-12.62h2.51v4.75h0.05c0.64-1.02,1.74-1.52,2.67-1.52
		c2.67,0,3.34,1.5,3.34,3.77V23.53z M64.26,19.57h-6.6c0.07,1.59,0.84,2.32,2.25,2.32c1.01,0,1.82-0.62,1.98-1.18h2.21
		c-0.71,2.16-2.21,3.07-4.28,3.07c-2.88,0-4.67-1.98-4.67-4.81c0-2.74,1.89-4.83,4.67-4.83C62.93,14.15,64.43,16.76,64.26,19.57z
		 M75.02,23.53h-2.51v-5.16c0-1.5-0.44-2.25-1.6-2.25c-1.37,0-1.95,0.76-1.95,2.62v4.79h-2.51l0-9.14h2.38v1.27h0.05
		c0.63-1.02,1.73-1.52,2.8-1.52c2.66,0,3.34,1.5,3.34,3.77V23.53z M82.08,23.78c-2.87,0-4.72-1.91-4.72-4.81
		c0-2.92,1.85-4.83,4.72-4.83c2.88,0,4.74,1.91,4.74,4.83C86.81,21.87,84.95,23.78,82.08,23.78z M91.73,23.53h-2.51V10.91h2.51
		V23.53z"/>
</g>
</svg>
