<?xml version="1.0" encoding="utf-8"?>
<!-- Generator: Adobe Illustrator 26.0.1, SVG Export Plug-In . SVG Version: 6.00 Build 0)  -->
<svg version="1.1" id="Layer_1" xmlns="http://www.w3.org/2000/svg" xmlns:xlink="http://www.w3.org/1999/xlink" x="0px" y="0px"
	 viewBox="0 0 95 35" style="enable-background:new 0 0 95 35;" xml:space="preserve">
<style type="text/css">
	.st0{fill:#CCCCCC;}
</style>
<g>
	<g id="g3669" transform="matrix(1.2646009,0,0,1.2646009,-52.92018,0)">
		<g id="g3657">
			<g id="g3646" transform="translate(10.677828,-39.232605)">
				<path id="path47" class="st0" d="M65.2,42h1.6v6h-1.6V42z"/>
				<path id="path49" class="st0" d="M88.2,45.5V48l-1.6,0v-6.2l2.9,2.5V42h1.6v6.2L88.2,45.5"/>
				<path id="path51" class="st0" d="M57.3,45c0-1.7,1.4-3.1,3.1-3.1c0.8,0,1.5,0.3,2,0.7l-1,1.2c-0.3-0.2-0.6-0.4-1-0.4
					c-0.9,0-1.5,0.7-1.5,1.5s0.7,1.5,1.5,1.5c0.4,0,0.7-0.1,1-0.4l1,1.2c-0.5,0.5-1.3,0.8-2,0.8C58.6,48.1,57.3,46.7,57.3,45"/>
				<path id="path53" class="st0" d="M69.8,49.4l-3-7.9h-2.5v6.6h-1.6v-6.6H59l0.8-1.6h8.1l1.8,4.7l1.8-4.7h7.8l0.9,1.6h-7.5
					L69.8,49.4"/>
				<path id="path55" class="st0" d="M74.8,48v-1.3h1.1c0.2,0,0.5,0,0.6-0.3c0.2-0.6-1.6-1.5-1.6-3c0-1.1,0.8-1.4,1.3-1.4h1.6v1.3
					h-1c0,0-0.3,0-0.4,0.1c-0.4,0.6,1.6,1.5,1.6,3.2c0,0.9-0.8,1.3-1.5,1.3H74.8"/>
				<path id="path57" class="st0" d="M72.8,42h1.6v6h-1.6V42z"/>
				<path id="path59" class="st0" d="M78.3,42h1.6v6h-1.6V42z"/>
				<path id="path63" class="st0" d="M56.1,48l-0.4-1.1h-2L53.3,48h-1.7l3.1-8.8l3.1,8.8H56.1 M54.2,45.3h0.9l-0.5-1.5L54.2,45.3"/>
				<path id="path65" class="st0" d="M80.2,45c0-1.7,1.4-3.1,3.1-3.1c1.7,0,3.1,1.4,3.1,3.1c0,1.7-1.4,3.1-3.1,3.1
					C81.6,48.1,80.2,46.7,80.2,45 M81.8,45c0,0.8,0.7,1.5,1.5,1.5c0.8,0,1.5-0.7,1.5-1.5c0-0.8-0.7-1.5-1.5-1.5
					C82.4,43.5,81.8,44.2,81.8,45"/>
			</g>
		</g>
	</g>
	<path id="path4320" class="st0" d="M34.4,12.2c0.2,0.1,0.3,0.2,0.5,0.3c0.4,0,0.8,0,1.3,0c0.7,0.3,1.2,0.8,1.6,1.3
		c0,0.7,0,1.4-0.1,2.1c0.1,0.1,0.3,0.3,0.3,0.4c0,0.3-0.1,0.6-0.2,0.9c-0.1,1.3,0,2.5,0,3.8c0.1,0.1,0.2,0.2,0.4,0.4
		c0.2,1.3,0.1,2.7-0.1,4.1c-0.2,0.8,0.1,1.6,0.1,2.4c-0.1,0.2-0.4,0.4-0.3,0.7c0.1,0.5,0,1-0.1,1.5c-0.1,0.8-0.4,1.6-0.1,2.4
		c0.7,0.1,1.6,0.2,2.1-0.4c0.7,0.2,1.4,0.3,2.1,0.3c0.2-0.1,0.4-0.2,0.6-0.4c2-0.2,4,0,5.9-0.1c0.2,1-0.2,2,0.3,2.9
		c-1,0-2.1,0.1-3.1-0.3c-0.1,0-0.2-0.1-0.3-0.1c-0.7-0.1-1.4-0.1-2-0.1c-1.5-0.4-3.1-0.1-4.6-0.3c-0.5-0.2-1.1-0.3-1.6-0.3
		c-0.4,0.3-0.8,0.6-1.2,1c-0.6,0-1.2,0-1.8,0c0.1-0.2,0.2-0.3,0.3-0.5c0.4-0.2,0.7-0.5,1.1-0.7c0.3-1.2-0.2-2.4,0.3-3.6
		c0.1-0.2,0.1-0.4,0.2-0.7c-0.1-0.1-0.3-0.3-0.4-0.4c0-0.7,0-1.4,0-2.1c0.2-0.6,0.1-1.3,0.3-2c0-0.7,0-1.4,0.2-2
		c0.1-0.3,0-0.7-0.1-1c-0.1-0.9,0.1-1.9-0.2-2.8c0-0.4,0-0.9,0-1.3c0.1-0.1,0.3-0.3,0.4-0.3c0-0.5,0-1.1-0.1-1.6
		c0.4-0.7,0.2-1.4-0.2-2.1c-0.1,0-0.3,0-0.4,0c-0.3-0.3-0.5-0.6-0.8-0.9C34.4,12.6,34.4,12.4,34.4,12.2z"/>
	<path id="path4328" class="st0" d="M49.9,12.6c1.8,0,3.5,0,5.3,0c0.4,0,0.8,0.1,1.2,0.2c-0.2,0.5-0.5,1-0.8,1.5c0,0.2,0,0.5,0,0.7
		c-0.2,0.2-0.4,0.4-0.6,0.6c0,0.2,0,0.5,0,0.7c-0.1,0.1-0.3,0.3-0.3,0.3c-0.1,0.5-0.2,1-0.3,1.5c-0.5,0.9-0.1,2-0.4,3
		c-0.1,0.7-0.6,1.3-0.6,2c-0.2,0.3-0.4,0.6-0.6,1c-0.1,0.9,0.1,1.8-0.2,2.6c-0.4,1.1-0.2,2.3-0.9,3.3c-0.1,0.4-0.3,0.9-0.5,1.3
		c0.5,0,1,0,1.5-0.1c0.2-0.3,0.3-0.8,0.7-0.9c0.8-0.3,1.5-0.6,2.1-1.2c0.4,0.1,1,0,1.3,0.3c0,0.2-0.1,0.4-0.2,0.7
		c0.1,0.8,0.2,1.6,0.1,2.4c-0.1,0.1-0.2,0.2-0.2,0.2c-0.9,0.1-1.8,0.1-2.7-0.1c-0.3-0.1-0.6-0.1-0.9-0.2c-0.2,0.2-0.4,0.3-0.6,0.5
		c-0.9-0.1-1.8,0-2.6,0.4c-0.3-0.5-0.2-1.1,0-1.6c0-0.2,0-0.4,0.1-0.5c0.1-0.1,0.2-0.3,0.3-0.3c0.2-1.1,0.5-2.2,0.4-3.3
		c-0.5-0.6-0.4-1.5-0.4-2.2c0-1.2,0.7-2.2,1-3.3c0.2-0.5,0.1-1,0.2-1.5c0.1-0.7,0.6-1.4,0.7-2.1c0.1-1.3,1.3-2.2,1.5-3.6
		c-0.1,0-0.3-0.1-0.4-0.1c-0.4,0-0.8,0-1.2-0.3c-0.4,0.1-0.8,0.1-1,0.5c-0.4,0.7-0.4,1.6-0.6,2.4c-0.3,0.1-0.5,0.2-0.8,0.3
		c0-0.4,0-0.7,0-1.1C50.1,15.2,49.8,13.9,49.9,12.6z"/>
	<path id="path4330" class="st0" d="M38.2,12.9c1.3-0.1,2.5,0,3.8,0c0.1,0.1,0.1,0.3,0.2,0.4c-0.5,0.2-0.9,0.5-1.1,1
		c0.3,0.7-0.1,1.5,0,2.3c0.1,1.7-0.2,3.4,0.2,5c-0.1,0.1-0.2,0.3-0.3,0.4c0,0.8,0.1,1.5,0.2,2.3c0.1,0.4-0.2,0.7-0.4,1
		c0.2,0.7,0.3,1.4,0.5,2c-0.1,0.8-0.6,1.6-0.2,2.4c0.4,0.2,0.8,0.5,1.1,0.7c0,0.1,0,0.4,0,0.5c-0.9-0.1-1.8-0.1-2.7,0
		c-0.2,0.2-0.5,0.3-0.7,0.4c-0.1-0.6,0.4-0.9,0.8-1.2c0-1.2,0.3-2.3,0.1-3.5c0.5-1.4,0.2-2.9,0.2-4.3c0-1.4-0.1-2.8,0.1-4.2
		c-0.3-1.4-0.1-2.8-0.4-4.2C39.1,13.6,38.6,13.3,38.2,12.9z"/>
	<path class="st0" d="M68.7,28.9c-0.3-0.6-0.1-1.3-0.2-1.9c0-0.8-0.7-1.4-0.7-2.2c0-0.9-0.1-1.9-0.7-2.7c-0.3-0.3-0.5-0.5-0.8-0.8
		c-0.2,0-0.4,0-0.7,0c0-0.2,0-0.5,0-0.7c1.1,0,1.6-1,2.1-1.9c0-0.4,0.1-0.8,0.1-1.1c0.2-0.6,0.4-1.3,0.1-1.9c-0.4-1-0.8-2.2-2-2.5
		c-1.1-0.2-2.2-0.7-3.3-0.7c-0.8,0.1-1.6,0.1-2.5,0.1c0.7,0.4,1.4,0.9,1.7,1.7c0.4-0.2,0.8-0.1,1.3,0c-0.6,0.6-1.3,1.1-1.9,1.7
		c0,0.7,0,1.5,0.4,2.1c0.2,1.5,0.3,3,0.7,4.4c0.2,1.8,0,3.7,0,5.5c0.1,0.1,0.3,0.3,0.3,0.4c-0.2,1.1-0.8,2.2-1,3.3
		c1.1,0.7,2.1,1.5,2.4,2.8c0.2-0.9,0.4-1.9,0.2-2.8c-0.1-1,0.1-2-0.1-3c0.1-1.5-0.3-3-0.4-4.5c-0.1-0.7,0.3-1.3,0.5-2
		c0.4,0.5,0.8,1,1.1,1.5c0,0.5-0.1,1,0,1.5c0.3,0.7,0.6,1.3,0.7,2.1c0.3,1.2,0.3,2.4,0.1,3.7c-0.2,0.7-0.5,1.3-0.7,2
		c1.2-0.1,1.8,1.1,2.8,1.4c0.1-1.1,0.5-2.2,0.5-3.4C68.9,30.2,69,29.5,68.7,28.9z M65.2,19.7c-0.3,0.4-0.8,0.5-1.2,0.6
		c0-1.9,0-3.7,0-5.6c0.7,0.3,1.1,0.9,1.6,1.5c0.3,0.4,0.3,0.9,0.3,1.4C65.6,18.3,65.6,19.1,65.2,19.7z"/>
	<path id="path4332" class="st0" d="M43.2,15c0-0.7-0.1-1.5,0.2-2.2c1.7,0,3.5,0.1,5.2,0.1c0,0.8,0.2,1.6,0.2,2.5c0,1,0.1,2-0.4,2.8
		c0,0.1,0.1,0.3,0.2,0.4c-0.6,0.9-1.1,2-1.1,3.1c-0.3,0.2-0.6,0.4-0.9,0.7c-0.1,0.3,0,0.6-0.1,0.9c-0.8,1-1.3,2.1-1.5,3.4
		c-0.1,0.6-0.4,1.2-0.6,1.8c0,0.1-0.1,0.2-0.1,0.3c-0.1,0.4-0.3,0.8-0.4,1.1c0.8-0.2,1.5-0.4,2.2-0.7c0.5-0.6,0.9-1.3,1.6-1.7
		c0.1-0.2,0.2-0.4,0.3-0.6c0.1,0,0.3,0.1,0.4,0.1c0.2-0.4,0.4-0.8,0.8-1.1c0,0.3,0.1,0.7,0.1,1c-0.8,1-0.4,2.3-0.5,3.5
		c-0.9,0.5-1.9,0.3-2.9,0.1c-0.3-0.1-0.6,0.3-1,0.2c-0.6-0.1-1.3-0.1-1.9-0.2c0.1-0.5,0.1-1.1,0.2-1.6c0.1-0.1,0.2-0.3,0.3-0.4
		c-0.1-0.3-0.2-0.6-0.3-0.8c-0.3-1.2,0-2.4,0.4-3.6c0.2-0.4,0.4-0.8,0.7-1.2c0.1-0.6,0.4-1.1,0.8-1.5c0-0.2,0-0.3,0-0.5
		c0.2-0.6,0.4-1.1,0.6-1.7c0.4-0.4,0.8-0.8,1.1-1.3c0-0.4,0-0.7,0-1.1c0.5-0.6,1-1.2,1.4-1.8c0-0.4,0-0.9,0-1.3c-0.7,0-1.5,0-2.2,0
		c-0.5,0.3-1,0.7-1.1,1.4c-0.2,0.2-0.5,0.3-0.7,0.5c0,0.8,0.2,1.6-0.3,2.3c-0.4-0.9-0.5-1.9-0.2-2.8C43.4,15.3,43.3,15.1,43.2,15z"
		/>
	<path class="st0" d="M75.5,18.5c-0.3-1.1,0.2-2.2-0.5-3.2c-0.3-0.7-0.8-1.2-1.4-1.6c-0.3,0-0.6-0.1-0.9-0.1c-0.4,0-0.8-0.1-1.2-0.2
		c-0.2-0.1-0.5-0.1-0.7-0.2c-0.1,0-0.2-0.1-0.3-0.1c-0.5-0.3-1.1-0.5-1.6-0.9c-0.5-0.1-0.9-0.2-1.4-0.2c0.5,0.6,1.1,1.2,1.7,1.7
		c0,0.3,0,0.6-0.1,1c-0.5,1.6-0.3,3.4-0.4,5c0.1,0.8,0,1.6,0.2,2.4c0,0.7,0,1.4,0.1,2c0.1,0.9,0.4,1.7,0.8,2.4c0.1,1-0.2,2-0.2,3.1
		c0,0.7,0.4,1.3,0.8,1.9c-0.3,0.1-0.5,0.3-0.8,0.4c0.2,0.9,0.1,1.8-0.4,2.6c0.5-0.1,0.9-0.3,1.4-0.3c0.6,0.1,1.3-0.2,1.9-0.3
		c0.6-0.1,1-0.6,1.2-1.1c0.4-1,0.5-2.1,0.5-3.1c0.4-1.9-0.1-3.8,0.4-5.7c0.6-0.6,0.5-1.4,0.5-2.2C76,20.7,75.7,19.6,75.5,18.5z
		 M73.9,21.4c-0.2,0.4-0.3,0.8-0.4,1.2c-0.9,1.6-0.3,3.6-0.6,5.3c-0.5,1.1-0.5,2.4-1.3,3.3c0-2.7,0-5.3,0-8c0-1-0.5-1.8-0.5-2.8
		c0-1.1-0.3-2.2-0.1-3.3c0.4,0.1,0.8,0.1,1.2,0.2c0.5,0.5,1.2,1,1.4,1.8C74,19.8,74,20.6,73.9,21.4z"/>
	<path class="st0" d="M61.1,23.4c-0.2-0.7,0-1.5-0.2-2.3c-0.5-1.8-0.9-3.7-1.6-5.5c0.2-1.1-0.8-1.8-0.8-2.9c-0.2-0.1-0.7-0.4-0.7,0
		c0.1,0.5-0.2,0.9-0.6,1.2c0,1-0.7,1.8-1,2.8c0,0.1,0,0.3,0,0.4c-0.6,0.7-0.7,1.7-0.8,2.6c-0.1,0.1-0.2,0.2-0.2,0.3
		c-0.1,0.6-0.3,1.2-0.6,1.7c0,0.3,0,0.7,0,1c0,0.1,0.1,0.2,0.2,0.3c-0.3,1-0.4,2-0.5,3.1c0.1,0.1,0.1,0.2,0.2,0.3
		c-0.2,0.2-0.5,0.3-0.7,0.5c0,0.2,0,0.4,0,0.6c-0.2,0.3-0.5,0.5-0.7,0.8c0.1,0.2,0.1,0.4,0.2,0.7c0.7-0.3,1.4-0.5,2-0.8
		c0.4,0,0.8,0,1.2,0.1c0.1-0.1,0.3-0.3,0.4-0.4c-0.2-0.2-0.5-0.4-0.7-0.6c0-0.5,0-1.1,0-1.6c0.9,0.5,1.9,1,2.7,1.6
		c-0.1,1.1-0.7,2.2-1.3,3.1c0.3,0.4,0.7,0.8,0.9,1.2c0.1,1.1,0.7,2.1,0.6,3.3c0.1,0.1,0.3,0.2,0.4,0.2c0.2-0.6,0.3-1.3,0.3-1.9
		c0-0.1,0.1-0.2,0.2-0.3c0.1-0.4,0.2-0.7,0.3-1.1c-0.1-1.4,1-2.5,1-3.8C61.4,26.4,61.4,24.9,61.1,23.4z M59,25
		c-0.6-0.4-1.3-0.8-2.2-0.8c-0.1-0.9,0-1.9,0.2-2.8c0.3-0.5,0.6-1,0.6-1.6c0.3,0.4,0.7,0.7,1.1,0.9C59.1,22.1,59.2,23.6,59,25z"/>
	<path class="st0" d="M34.1,24.6c-0.7-0.7-0.4-1.7-0.4-2.6c-0.2-0.3-0.4-0.5-0.7-0.8c0-0.3,0.1-0.5,0.2-0.8c-0.4-0.1-0.8-0.2-1-0.6
		c0.7-0.7,1.2-1.5,1.6-2.4c0.3-0.5,0.5-1,0.2-1.5c0-0.4,0-0.8,0-1.2c-0.3-0.5-0.5-1.1-1-1.3c-0.4-0.2-0.8-0.3-1.1-0.7c-1,0-2,0-3,0
		c-0.9,0-1.9,0.2-2.8,0.2c-0.1,0.1-0.2,0.3-0.3,0.4c0,0.1,0.1,0.3,0.1,0.5c0.3,0.3,0.5,0.5,0.8,0.8c0.1,0,0.4,0,0.5,0
		c-0.1,0.3-0.1,0.6-0.2,0.9c-0.1,1.3,0,2.5,0,3.8c0,0.7,0.4,1.4,0,2c-0.1,0.9,0.1,1.8,0.2,2.7c-0.1,0.1-0.2,0.2-0.4,0.3
		c0,1.3-0.1,2.5,0,3.8c0.2,1.4,0.1,2.8,0.1,4.1c-0.1,0.8-0.1,1.9-1,2.2c0.8,0.4,1.8,0.1,2.7,0.2c0.2-0.1,0.4-0.3,0.6-0.4
		c0.1,0.1,0.2,0.3,0.3,0.4c0.2-0.1,0.4-0.2,0.6-0.3c0.2,0,0.4,0,0.6,0c0.6-0.7,1.4-1.1,2.2-1.6c-0.1-0.8,0.3-1.4,0.7-2
		c0.4-0.7,0.3-1.5,0.3-2.3C34.5,27.1,34.1,25.8,34.1,24.6z M31.6,28.7C31.6,28.7,31.6,28.8,31.6,28.7c0,0.2-0.1,0.4-0.2,0.5
		c-0.2,0.7,0,1.4-0.5,2c-0.5,0.6-1.1,1-1.8,1.3c0.1-0.2,0.2-0.5,0.3-0.7c-0.1-2.1,0.5-4.3,0.1-6.4c0.1-0.4,0.3-0.8,0.3-1.2
		c0-1,0-2.1,0-3.1c0.5,0.4,1,0.9,1.5,1.2c0.3,0.8,0.3,1.7,0.1,2.6c0.2,0.4,0.5,0.9,0.1,1.3C31.6,27.2,31.9,28,31.6,28.7z M31.6,15.9
		c0.2,0.7,0,1.4,0,2c-0.5,0.2-0.9,0.7-1.2,1.2c-0.1,0-0.4,0-0.5,0c0.1-1.2-0.1-2.5,0.1-3.7c0-0.1,0.1-0.2,0.1-0.3
		c0.3,0,0.7,0.1,1,0.1c0.3,0.1,0.5,0.3,0.8,0.4C31.8,15.7,31.6,15.8,31.6,15.9z"/>
	<g id="layer2">
	</g>
</g>
</svg>
