<?xml version="1.0" encoding="utf-8"?>
<!-- Generator: Adobe Illustrator 26.0.1, SVG Export Plug-In . SVG Version: 6.00 Build 0)  -->
<svg version="1.1" id="Layer_1" xmlns="http://www.w3.org/2000/svg" xmlns:xlink="http://www.w3.org/1999/xlink" x="0px" y="0px"
	 viewBox="0 0 95 35" style="enable-background:new 0 0 95 35;" xml:space="preserve">
<style type="text/css">
	.st0{fill-rule:evenodd;clip-rule:evenodd;fill:#FFFFFF;}
</style>
<g>
	<path class="st0" d="M83.36,30.61h-4.8c-2.02,0.01-4.54-2.77-7.9-2.73c-4.9,0.05-7.38,4.8-12.08,4.75
		c-3.2-0.03-3.25-2.07-4.44-4.08h-3.05c0.88,2.01,2.12,6.4,7.44,6.45c5.37,0.05,6.92-4.7,12.08-4.7c2.99,0,5.27,2.63,8,2.63h4.74
		V30.61L83.36,30.61z"/>
	<path class="st0" d="M11.63,30.61h3.72c2.01,0.01,4.54-2.77,7.9-2.73c4.9,0.05,7.39,4.8,12.08,4.75c3.2-0.03,3.25-2.07,4.44-4.08
		h3.05c-0.88,2.01-2.12,6.4-7.44,6.45c-5.37,0.05-6.92-4.7-12.08-4.7c-3,0-5.27,2.63-8,2.63h-3.67V30.61L11.63,30.61z"/>
	<path class="st0" d="M51.58,17.27h-2.89L47.46,4.35c-0.07-0.66-0.41-0.61-0.41-0.61s-0.34-0.05-0.42,0.61l-1.24,12.91H42.5
		l1.7-14.03C44.68-0.14,47.05,0,47.05,0s2.36-0.15,2.84,3.23L51.58,17.27L51.58,17.27z"/>
	<path class="st0" d="M18.9,23.53c0.8,0,1.38,0.05,1.26,0.73c-0.1,0.58-0.6,0.71-1.21,0.71h-1.1l0.25-1.45H18.9L18.9,23.53z
		 M19.46,20.83c0.54,0,1.03,0.01,0.93,0.61c-0.08,0.45-0.48,0.68-0.99,0.68h-1.05l0.23-1.29H19.46L19.46,20.83z M18.76,26.77
		c2,0,3.43-0.6,3.73-2.33c0.15-0.84-0.18-1.56-0.98-1.77c0.56-0.32,1.18-0.91,1.32-1.7c0.27-1.54-1.04-1.94-2.79-1.94h-3.7
		l-1.36,7.74H18.76L18.76,26.77z"/>
	<path class="st0" d="M26.17,20.83h1.18c0.59,0,0.98,0.26,0.88,0.81c-0.09,0.54-0.55,0.74-1.33,0.74h-1L26.17,20.83L26.17,20.83z
		 M26.37,24.08c1.18,0,1.3,0.33,1.12,1.35c-0.12,0.68-0.14,1.18-0.11,1.35h2.57l0.04-0.24c-0.3,0-0.21-0.35-0.03-1.35
		c0.28-1.56-0.19-1.75-0.95-2.05c0.95-0.25,1.48-1,1.64-1.9c0.26-1.5-0.46-2.2-3.04-2.2h-3.66l-1.37,7.74h2.54l0.48-2.7H26.37
		L26.37,24.08z"/>
	<path class="st0" d="M35.17,20.72c1.12-0.03,1.36,1.09,1.17,2.14c-0.23,1.28-0.82,2.22-1.92,2.22c-1.22,0-1.3-1.23-1.12-2.22
		C33.47,21.88,34.02,20.72,35.17,20.72L35.17,20.72z M35.52,18.83c-2.41,0-4.33,1.58-4.76,4.01c-0.47,2.63,0.89,4.14,3.32,4.14
		c2.29,0,4.33-1.48,4.79-4.11C39.23,20.82,38.28,18.83,35.52,18.83L35.52,18.83z"/>
	<path class="st0" d="M42.98,24.14h-1.61l1.28-2.77L42.98,24.14L42.98,24.14z M40.14,26.77l0.47-1.02h2.53l0.12,1.02h2.53
		l-1.41-7.74h-2.58l-4.14,7.74H40.14L40.14,26.77z"/>
	<path class="st0" d="M49.97,20.83h0.48c1.36,0,1.81,0.43,1.52,2.05c-0.26,1.47-1.01,2.09-2.2,2.09h-0.54L49.97,20.83L49.97,20.83z
		 M49.72,26.77c2.49,0,4.31-1.11,4.82-4.03c0.45-2.56-0.9-3.71-3.39-3.71h-3.4l-1.37,7.74H49.72L49.72,26.77z"/>
	<path class="st0" d="M60.49,21.99c0.07-0.8-0.35-1.26-1.15-1.26c-0.89,0-1.56,0.76-1.83,2.26c-0.19,1.09-0.13,2.1,1.16,2.1
		c0.82,0,1.31-0.57,1.53-1.31h2.44c-0.58,2-2.22,3.2-4.27,3.2c-2.56,0-3.83-1.57-3.39-4.08c0.44-2.51,2.42-4.06,4.58-4.06
		c2.36,0,3.48,1.17,3.34,3.16H60.49L60.49,21.99z"/>
	<path class="st0" d="M67.51,20.72c1.12-0.03,1.36,1.09,1.17,2.14c-0.22,1.28-0.82,2.22-1.92,2.22c-1.22,0-1.29-1.23-1.12-2.22
		C65.81,21.88,66.36,20.72,67.51,20.72L67.51,20.72z M67.86,18.83c-2.41,0-4.33,1.58-4.76,4.01c-0.46,2.63,0.9,4.14,3.32,4.14
		c2.29,0,4.33-1.48,4.79-4.11C71.58,20.82,70.63,18.83,67.86,18.83L67.86,18.83z"/>
	<polygon class="st0" points="71.16,26.77 72.53,19.03 75.6,19.03 76.11,23.86 78.32,19.03 81.39,19.03 80.03,26.77 77.74,26.77 
		78.16,24.41 78.41,23.2 78.78,21.81 78.76,21.81 76.48,26.77 74.71,26.77 74.19,21.81 74.17,21.81 74.07,22.94 73.91,24.14 
		73.45,26.77 71.16,26.77 	"/>
	<path class="st0" d="M82.24,26.55c-0.43,0-0.67-0.31-0.59-0.74c0.08-0.44,0.43-0.74,0.85-0.74c0.42,0,0.67,0.31,0.59,0.74
		C83.02,26.24,82.66,26.55,82.24,26.55L82.24,26.55z M82.2,26.78c0.54,0,1.06-0.44,1.15-0.98c0.1-0.54-0.27-0.98-0.8-0.98
		c-0.54,0-1.06,0.44-1.15,0.98C81.3,26.34,81.66,26.78,82.2,26.78L82.2,26.78z M82.59,25.89c0.19-0.01,0.31-0.09,0.34-0.29
		c0.04-0.25-0.08-0.32-0.35-0.32h-0.51l-0.19,1.06h0.22l0.08-0.45h0.18l0.16,0.45h0.25L82.59,25.89L82.59,25.89z M82.21,25.73
		l0.05-0.29h0.24c0.1,0,0.26-0.01,0.23,0.13c-0.02,0.14-0.11,0.16-0.23,0.16H82.21L82.21,25.73z"/>
</g>
</svg>
