<?xml version="1.0" encoding="utf-8"?>
<!-- Generator: Adobe Illustrator 26.0.1, SVG Export Plug-In . SVG Version: 6.00 Build 0)  -->
<svg version="1.1" id="Layer_1" xmlns="http://www.w3.org/2000/svg" xmlns:xlink="http://www.w3.org/1999/xlink" x="0px" y="0px"
	 viewBox="0 0 95 35" style="enable-background:new 0 0 95 35;" xml:space="preserve">
<style type="text/css">
	.st0{fill:#FFFFFF;}
</style>
<g>
	<path class="st0" d="M12.23,17.33l-1.35,3.91h0.63c0,0,0.38-1.13,0.4-1.2h1.3c0.02,0.06,0.41,1.2,0.41,1.2h0.64l-1.36-3.91H12.23z
		 M12.05,19.56c0.04-0.12,0.36-1.03,0.36-1.03c0,0,0.09-0.34,0.15-0.54c0.04,0.14,0.16,0.55,0.16,0.55c0,0,0.28,0.79,0.36,1.03
		H12.05z M17.8,18.34c-0.26,0-0.45,0.06-0.64,0.2c-0.13,0.09-0.21,0.2-0.29,0.33c-0.15-0.32-0.44-0.53-0.79-0.53
		c-0.37,0-0.64,0.17-0.85,0.45c-0.01-0.12-0.02-0.39-0.02-0.39h-0.54l0.02,0.79v2.04h0.6v-1.7l0.04-0.22
		c0.07-0.22,0.29-0.46,0.58-0.46c0.33,0,0.53,0.26,0.53,0.7v1.69h0.6v-1.74l0.04-0.23c0.07-0.19,0.26-0.41,0.56-0.41
		c0.46,0,0.55,0.43,0.55,0.79v1.6h0.6v-1.66C18.77,18.67,18.27,18.34,17.8,18.34z M20.64,18.34c-0.8,0-1.36,0.63-1.36,1.53
		c0,0.87,0.56,1.43,1.42,1.43c0.45,0,0.77-0.1,0.95-0.18l0.04-0.02l-0.12-0.45l-0.05,0.02c-0.16,0.07-0.38,0.13-0.75,0.13
		c-0.26,0-0.84-0.09-0.89-0.85c0.12,0,1.94,0.01,1.94,0.01l0.02-0.29C21.84,19.06,21.53,18.34,20.64,18.34z M19.89,19.5
		c0.06-0.34,0.27-0.7,0.71-0.7c0.18,0,0.33,0.06,0.44,0.17c0.17,0.17,0.19,0.42,0.2,0.54H19.89z M22.91,18.87
		c-0.01-0.15-0.02-0.46-0.02-0.46h-0.54l0.02,0.9c0,0-0.01,1.93-0.01,1.93h0.61v-1.51l0.02-0.23c0.07-0.36,0.31-0.59,0.63-0.59
		l0.21,0.01l0.02-0.05v-0.51l-0.19-0.02C23.33,18.34,23.07,18.56,22.91,18.87z M24.27,21.24h0.61V18.4h-0.61V21.24z M24.57,17.26
		c-0.22,0-0.38,0.16-0.38,0.37c0,0.21,0.16,0.37,0.37,0.37h0.01c0.22,0,0.38-0.16,0.38-0.37C24.95,17.42,24.79,17.26,24.57,17.26z
		 M26.96,18.84c0.21,0,0.4,0.04,0.56,0.12l0.05,0.03l0.15-0.48l-0.04-0.02c-0.13-0.07-0.4-0.15-0.73-0.15
		c-0.91,0-1.55,0.62-1.55,1.51c0,0.87,0.58,1.45,1.44,1.45c0.35,0,0.65-0.08,0.82-0.16l0.04-0.02l-0.11-0.47l-0.06,0.02
		c-0.14,0.06-0.33,0.13-0.6,0.13c-0.55,0-0.92-0.39-0.92-0.97C26.03,19.34,26.32,18.84,26.96,18.84z M30.26,19.51
		c0-0.53-0.19-1.17-1.12-1.17c-0.34,0-0.7,0.09-0.95,0.24l-0.03,0.02l0.15,0.43l0.06-0.04c0.18-0.12,0.45-0.19,0.7-0.19
		c0.19,0,0.34,0.05,0.43,0.14c0.1,0.1,0.15,0.25,0.15,0.44c0,0,0,0.01,0,0.01c-0.65,0-1.14,0.15-1.42,0.42
		c-0.17,0.17-0.26,0.39-0.26,0.65c0,0.42,0.31,0.84,0.9,0.84c0.4,0,0.67-0.18,0.83-0.37c0.01,0.09,0.04,0.31,0.04,0.31h0.55
		l-0.04-0.71V19.51z M29.67,20.27l-0.02,0.14c-0.07,0.19-0.28,0.42-0.64,0.42c-0.26,0-0.42-0.16-0.42-0.42
		c0-0.13,0.04-0.24,0.13-0.33c0.16-0.16,0.48-0.24,0.95-0.24C29.67,19.92,29.67,20.27,29.67,20.27z M32.41,18.34
		c-0.43,0-0.73,0.21-0.89,0.43c-0.01-0.13-0.02-0.37-0.02-0.37h-0.55l0.02,0.79v2.04h0.61v-1.7l0.03-0.21
		c0.08-0.24,0.3-0.47,0.63-0.47c0.49,0,0.59,0.41,0.59,0.76v1.63h0.61v-1.68C33.45,18.4,32.58,18.34,32.41,18.34z M39.49,17.33
		l-0.52,1.96c0,0-0.02,0.08-0.02,0.08s-0.18,0.76-0.24,1.04c-0.06-0.29-0.23-1.11-0.23-1.11c0,0-0.48-1.97-0.48-1.97h-0.6
		l-0.53,1.96c0,0-0.18,0.76-0.27,1.13c-0.06-0.28-0.25-1.12-0.25-1.12l-0.47-1.96h-0.64l1.01,3.91h0.6l0.56-2.02
		c0,0,0.17-0.69,0.25-1.05c0.06,0.29,0.21,1.05,0.21,1.05l0.5,2.01h0.6l1.13-3.91H39.49z M42.33,19.51c0-0.53-0.19-1.17-1.12-1.17
		c-0.34,0-0.7,0.09-0.95,0.24l-0.03,0.02l0.15,0.43l0.06-0.04c0.18-0.12,0.45-0.19,0.7-0.19c0.19,0,0.34,0.05,0.43,0.14
		c0.1,0.1,0.15,0.25,0.15,0.44c0,0,0,0.01,0,0.01c-0.65,0-1.14,0.15-1.42,0.42c-0.17,0.17-0.26,0.39-0.26,0.65
		c0,0.42,0.31,0.84,0.9,0.84c0.4,0,0.67-0.18,0.83-0.37c0.01,0.09,0.04,0.31,0.04,0.31h0.55l-0.04-0.71V19.51z M41.73,20.27
		l-0.02,0.14c-0.07,0.19-0.28,0.42-0.64,0.42c-0.26,0-0.42-0.16-0.42-0.42c0-0.13,0.04-0.24,0.13-0.33
		c0.16-0.16,0.48-0.24,0.95-0.24C41.73,19.92,41.73,20.27,41.73,20.27z M43.73,17.73l-0.6,0.18c0,0,0,0.41,0,0.49
		c-0.08,0-0.43,0-0.43,0v0.48c0,0,0.35,0,0.43,0c0,0.1,0,1.44,0,1.44c0,0.35,0.07,0.6,0.21,0.75c0.14,0.15,0.34,0.23,0.58,0.23
		l0.51-0.08l-0.01-0.04l-0.03-0.43l-0.06,0.01l-0.28,0.03c-0.23,0-0.33-0.14-0.33-0.48c0,0,0-1.33,0-1.42c0.09,0,0.73,0,0.73,0V18.4
		c0,0-0.64,0-0.73,0C43.73,18.32,43.73,17.73,43.73,17.73z M46.05,18.34c-0.8,0-1.36,0.63-1.36,1.53c0,0.87,0.56,1.43,1.42,1.43
		c0.45,0,0.77-0.1,0.95-0.18l0.04-0.02l-0.12-0.45l-0.05,0.02c-0.16,0.07-0.38,0.13-0.75,0.13c-0.26,0-0.84-0.09-0.89-0.85
		c0.12,0,1.94,0.01,1.94,0.01l0.02-0.29C47.24,19.06,46.93,18.34,46.05,18.34z M45.29,19.5c0.06-0.34,0.27-0.7,0.71-0.7
		c0.18,0,0.33,0.06,0.44,0.17c0.17,0.17,0.2,0.42,0.2,0.54H45.29z M48.31,18.87c-0.01-0.15-0.02-0.46-0.02-0.46h-0.54l0.02,0.9
		c0,0-0.01,1.93-0.01,1.93h0.61v-1.51l0.02-0.23c0.07-0.36,0.31-0.59,0.63-0.59l0.21,0.01l0.02-0.05v-0.51l-0.19-0.02
		C48.74,18.34,48.47,18.56,48.31,18.87z M55.79,17.33l-0.52,1.96c0,0.01-0.18,0.75-0.26,1.12c-0.06-0.29-0.23-1.11-0.23-1.11
		c0,0-0.48-1.97-0.48-1.97h-0.6l-0.53,1.96c0,0-0.18,0.76-0.27,1.13c-0.06-0.28-0.25-1.12-0.25-1.12l-0.47-1.96h-0.64l1.01,3.91h0.6
		l0.56-2.02c0,0,0.17-0.69,0.25-1.05c0.06,0.28,0.21,1.05,0.21,1.05l0.5,2.01h0.6l1.13-3.91H55.79z M57.79,18.34
		c-0.84,0-1.43,0.62-1.43,1.5c0,0.86,0.57,1.46,1.39,1.46h0.01c0.69,0,1.43-0.47,1.43-1.51C59.18,18.94,58.61,18.34,57.79,18.34z
		 M57.76,20.83L57.76,20.83c-0.46,0-0.79-0.42-0.79-1c0-0.5,0.25-1.01,0.8-1.01c0.54,0,0.78,0.51,0.78,0.99
		C58.56,20.4,58.22,20.83,57.76,20.83z M60.27,18.87c-0.01-0.15-0.02-0.46-0.02-0.46H59.7l0.02,0.9c0,0-0.01,1.93-0.01,1.93h0.61
		v-1.51l0.02-0.23c0.07-0.36,0.31-0.59,0.63-0.59l0.21,0.01l0.02-0.05v-0.51l-0.19-0.02C60.69,18.34,60.42,18.56,60.27,18.87z
		 M63.98,18.4h-0.72c-0.04,0.02-0.86,0.96-0.86,0.96s-0.09,0.12-0.16,0.21c0-0.24,0-2.45,0-2.45h-0.61v4.11h0.61c0,0,0-1.07,0-1.08
		c0.01,0,0.14-0.13,0.2-0.21c0.07,0.09,0.93,1.29,0.93,1.29h0.75c0,0-1.21-1.59-1.26-1.66C62.91,19.52,63.98,18.4,63.98,18.4z
		 M65.29,19.55c-0.38-0.14-0.49-0.24-0.49-0.42c0-0.2,0.16-0.32,0.41-0.32c0.18,0,0.37,0.05,0.54,0.15l0.05,0.03l0.15-0.45
		l-0.03-0.02c-0.17-0.11-0.44-0.18-0.71-0.18c-0.59,0-1.01,0.36-1.01,0.85c0,0.36,0.26,0.64,0.78,0.82
		c0.36,0.13,0.48,0.25,0.48,0.45c0,0.23-0.18,0.36-0.48,0.36c-0.24,0-0.5-0.1-0.65-0.18l-0.05-0.03l-0.15,0.47l0.04,0.02
		c0.22,0.13,0.51,0.2,0.81,0.2c0.66,0,1.09-0.34,1.09-0.88C66.05,20.02,65.82,19.75,65.29,19.55z M69.29,17.33l-1.35,3.91h0.63
		c0,0,0.38-1.13,0.4-1.2h1.3c0.02,0.06,0.41,1.2,0.41,1.2h0.64l-1.36-3.91H69.29z M69.1,19.56c0.04-0.12,0.36-1.03,0.36-1.03
		c0,0,0.09-0.34,0.15-0.54c0.04,0.14,0.16,0.55,0.16,0.55c0,0,0.28,0.79,0.36,1.03H69.1z M72.69,19.55
		c-0.38-0.14-0.49-0.24-0.49-0.42c0-0.2,0.16-0.32,0.41-0.32c0.18,0,0.37,0.05,0.54,0.15l0.05,0.03l0.15-0.45l-0.03-0.02
		c-0.17-0.11-0.44-0.18-0.71-0.18c-0.59,0-1.01,0.36-1.01,0.85c0,0.36,0.26,0.64,0.78,0.82c0.36,0.13,0.48,0.25,0.48,0.45
		c0,0.23-0.18,0.36-0.48,0.36c-0.24,0-0.5-0.1-0.65-0.18l-0.05-0.03l-0.15,0.47l0.04,0.02c0.22,0.13,0.51,0.2,0.81,0.2
		c0.66,0,1.09-0.34,1.09-0.88C73.45,20.02,73.21,19.75,72.69,19.55z M74.96,19.55c-0.38-0.14-0.49-0.24-0.49-0.42
		c0-0.2,0.16-0.32,0.41-0.32c0.18,0,0.37,0.05,0.54,0.15l0.05,0.03l0.15-0.45l-0.03-0.02c-0.17-0.11-0.44-0.18-0.71-0.18
		c-0.59,0-1.01,0.36-1.01,0.85c0,0.36,0.26,0.64,0.78,0.82c0.36,0.13,0.48,0.25,0.48,0.45c0,0.23-0.18,0.36-0.48,0.36
		c-0.24,0-0.5-0.1-0.65-0.18l-0.05-0.03l-0.15,0.47l0.04,0.02c0.22,0.13,0.51,0.2,0.81,0.2c0.66,0,1.09-0.34,1.09-0.88
		C75.73,20.02,75.49,19.75,74.96,19.55z M77.51,18.34c-0.84,0-1.43,0.62-1.43,1.5c0,0.86,0.57,1.46,1.39,1.46h0.01
		c0.69,0,1.43-0.47,1.43-1.51C78.9,18.94,78.33,18.34,77.51,18.34z M77.48,20.83L77.48,20.83c-0.46,0-0.79-0.42-0.79-1
		c0-0.5,0.25-1.01,0.8-1.01c0.54,0,0.78,0.51,0.78,0.99C78.27,20.4,77.94,20.83,77.48,20.83z M80.79,18.84
		c0.21,0,0.4,0.04,0.56,0.12l0.05,0.03l0.15-0.48l-0.04-0.02c-0.13-0.07-0.4-0.15-0.73-0.15c-0.91,0-1.55,0.62-1.55,1.51
		c0,0.87,0.58,1.45,1.44,1.45c0.35,0,0.65-0.08,0.82-0.16l0.04-0.02l-0.11-0.47l-0.06,0.02c-0.14,0.06-0.33,0.13-0.6,0.13
		c-0.55,0-0.92-0.39-0.92-0.97C79.85,19.34,80.14,18.84,80.79,18.84z M82.32,17.26c-0.22,0-0.38,0.16-0.38,0.37
		c0,0.21,0.16,0.37,0.37,0.37h0.01c0.22,0,0.38-0.16,0.38-0.37C82.7,17.42,82.54,17.26,82.32,17.26z M82.02,21.24h0.61V18.4h-0.61
		V21.24z M85.43,19.51c0-0.53-0.19-1.17-1.12-1.17c-0.34,0-0.7,0.09-0.95,0.24l-0.04,0.02l0.15,0.43l0.06-0.04
		c0.18-0.12,0.45-0.19,0.7-0.19c0.19,0,0.34,0.05,0.43,0.14c0.1,0.1,0.15,0.25,0.15,0.44c0,0,0,0.01,0,0.01
		c-0.65,0-1.14,0.15-1.42,0.42c-0.17,0.17-0.26,0.39-0.26,0.65c0,0.42,0.31,0.84,0.9,0.84c0.4,0,0.67-0.18,0.83-0.37
		c0.01,0.09,0.04,0.31,0.04,0.31h0.55l-0.04-0.71V19.51z M84.83,20.27l-0.02,0.14c-0.07,0.2-0.28,0.42-0.64,0.42
		c-0.26,0-0.42-0.16-0.42-0.42c0-0.13,0.04-0.24,0.13-0.33c0.16-0.16,0.48-0.24,0.95-0.24C84.83,19.92,84.83,20.27,84.83,20.27z
		 M86.83,17.73l-0.6,0.18c0,0,0,0.41,0,0.49c-0.08,0-0.43,0-0.43,0v0.48c0,0,0.35,0,0.43,0c0,0.1,0,1.44,0,1.44
		c0,0.35,0.07,0.6,0.21,0.75c0.14,0.15,0.34,0.23,0.58,0.23l0.51-0.08l-0.01-0.04l-0.03-0.43l-0.06,0.01l-0.28,0.03
		c-0.23,0-0.33-0.14-0.33-0.48c0,0,0-1.33,0-1.42c0.09,0,0.73,0,0.73,0V18.4c0,0-0.64,0-0.73,0C86.83,18.32,86.83,17.73,86.83,17.73
		z M88.02,21.24h0.61V18.4h-0.61V21.24z M88.33,17.26c-0.22,0-0.38,0.16-0.38,0.37c0,0.21,0.16,0.37,0.37,0.37h0.01
		c0.22,0,0.38-0.16,0.38-0.37C88.7,17.42,88.54,17.26,88.33,17.26z M90.6,18.34c-0.84,0-1.43,0.62-1.43,1.5
		c0,0.86,0.57,1.46,1.39,1.46h0.01c0.69,0,1.43-0.47,1.43-1.51C91.99,18.94,91.42,18.34,90.6,18.34z M90.57,20.83L90.57,20.83
		c-0.46,0-0.79-0.42-0.79-1c0-0.5,0.25-1.01,0.8-1.01c0.54,0,0.78,0.51,0.78,0.99C91.36,20.4,91.03,20.83,90.57,20.83z M93.97,18.34
		c-0.43,0-0.72,0.21-0.89,0.43c-0.01-0.13-0.02-0.37-0.02-0.37H92.5l0.02,0.79v2.04h0.61v-1.7l0.03-0.21
		c0.08-0.24,0.3-0.47,0.63-0.47c0.49,0,0.59,0.41,0.59,0.76v1.63H95v-1.68C95,18.4,94.14,18.34,93.97,18.34z"/>
	<polygon class="st0" points="6.08,21.14 4.9,21.14 1.26,13.67 2.44,13.67 	"/>
	<polygon class="st0" points="8.18,21.14 7,21.14 3.36,13.67 4.54,13.67 	"/>
	<g>
		<path class="st0" d="M9.02,19.8c0.42,0,0.75,0.34,0.75,0.76c0,0.43-0.33,0.77-0.75,0.77c-0.42,0-0.76-0.34-0.76-0.77
			C8.26,20.14,8.6,19.8,9.02,19.8L9.02,19.8z M9.02,19.92c-0.34,0-0.61,0.29-0.61,0.65c0,0.36,0.28,0.65,0.61,0.65
			c0.34,0,0.61-0.29,0.61-0.65C9.63,20.21,9.36,19.92,9.02,19.92L9.02,19.92z M8.87,21.01H8.74v-0.85c0.07-0.01,0.14-0.02,0.24-0.02
			c0.13,0,0.21,0.03,0.26,0.06c0.05,0.04,0.08,0.1,0.08,0.18c0,0.11-0.07,0.18-0.17,0.21v0.01c0.07,0.01,0.13,0.08,0.14,0.21
			c0.02,0.13,0.04,0.18,0.05,0.21H9.21c-0.02-0.03-0.04-0.11-0.06-0.22c-0.02-0.11-0.07-0.15-0.18-0.15h-0.1V21.01z M8.87,20.54h0.1
			c0.11,0,0.21-0.04,0.21-0.15c0-0.07-0.05-0.15-0.21-0.15c-0.04,0-0.07,0-0.1,0.01V20.54z"/>
	</g>
	<path class="st0" d="M1.42,16.05c-0.15,0.95-0.74,1.99-1.2,2.81c-0.6,1.07,0.09,2.25,1.2,2.3c1.24,0.06,2.01-1.22,1.33-2.3
		C2.27,18.1,1.65,16.92,1.42,16.05z"/>
</g>
</svg>
