<?xml version="1.0" encoding="utf-8"?>
<!-- Generator: Adobe Illustrator 26.0.1, SVG Export Plug-In . SVG Version: 6.00 Build 0)  -->
<svg version="1.1" id="Layer_1" xmlns="http://www.w3.org/2000/svg" xmlns:xlink="http://www.w3.org/1999/xlink" x="0px" y="0px"
	 viewBox="0 0 95 35" style="enable-background:new 0 0 95 35;" xml:space="preserve">
<style type="text/css">
	.st0{fill-rule:evenodd;clip-rule:evenodd;fill:#CCCCCC;}
</style>
<path class="st0" d="M30,0v14.75l1.31-3.06h2.27l0.74,1.71v-1.71h2.82l0.44,1.24l0.43-1.24h12.66v0.62c0,0,0.67-0.62,1.76-0.62
	l4.11,0.01l0.73,1.69v-1.71h2.36l0.65,0.97v-0.97h2.38v5.49h-2.38l-0.62-0.97v0.97H56.2l-0.35-0.87h-0.93l-0.34,0.87h-2.35
	c-0.94,0-1.54-0.61-1.54-0.61v0.61h-3.55l-0.7-0.87v0.87H33.24l-0.35-0.87h-0.93l-0.35,0.87H30V35h35V24.01c0,0-0.55,0.37-1.19,0.38
	H52.12l-0.7-0.87v0.87h-2.31v-1.48c0,0-0.32,0.21-1,0.21h-0.78v1.27h-3.49l-0.62-0.83l-0.63,0.83l-5.78,0v-5.49h5.82l0.62,0.81
	l0.64-0.81H65v0V0H30z"/>
<path class="st0" d="M31.78,12.37l-1.77,4.11h1.15l0.33-0.82h1.9l0.32,0.82h1.18l-1.77-4.11H31.78L31.78,12.37z M32.43,13.33
	l0.58,1.44h-1.16L32.43,13.33L32.43,13.33z"/>
<polygon class="st0" points="35.01,16.48 35.01,12.37 36.64,12.38 37.6,15.03 38.53,12.37 40.15,12.37 40.15,16.48 39.12,16.48 
	39.12,13.45 38.03,16.48 37.13,16.48 36.04,13.45 36.04,16.48 35.01,16.48 "/>
<polygon class="st0" points="40.85,16.48 40.85,12.37 44.21,12.37 44.21,13.29 41.89,13.29 41.89,13.99 44.16,13.99 44.16,14.86 
	41.89,14.86 41.89,15.59 44.21,15.59 44.21,16.48 40.85,16.48 "/>
<path class="st0" d="M44.81,12.37v4.11h1.03v-1.46h0.43l1.23,1.46h1.26l-1.35-1.52c0.56-0.05,1.13-0.52,1.13-1.26
	c0-0.87-0.68-1.33-1.44-1.33H44.81L44.81,12.37z M45.84,13.29h1.18c0.28,0,0.49,0.22,0.49,0.43c0,0.27-0.27,0.43-0.47,0.43h-1.19
	L45.84,13.29L45.84,13.29L45.84,13.29z"/>
<polygon class="st0" points="50,16.48 48.95,16.48 48.95,12.37 50,12.37 50,16.48 "/>
<path class="st0" d="M52.49,16.48h-0.23c-1.1,0-1.76-0.86-1.76-2.04c0-1.21,0.66-2.07,2.04-2.07h1.14v0.97h-1.18
	c-0.56,0-0.96,0.44-0.96,1.11c0,0.8,0.45,1.13,1.11,1.13h0.27L52.49,16.48L52.49,16.48z"/>
<path class="st0" d="M54.73,12.37l-1.77,4.11h1.15l0.33-0.82h1.9l0.32,0.82h1.18l-1.77-4.11H54.73L54.73,12.37z M55.39,13.33
	l0.58,1.44h-1.16L55.39,13.33L55.39,13.33z"/>
<polygon class="st0" points="57.96,16.48 57.96,12.37 59.27,12.37 60.94,14.96 60.94,12.37 61.97,12.37 61.97,16.48 60.7,16.48 
	58.99,13.83 58.99,16.48 57.96,16.48 "/>
<polygon class="st0" points="37.5,23.69 37.5,19.57 40.85,19.57 40.85,20.49 38.54,20.49 38.54,21.19 40.8,21.19 40.8,22.06 
	38.54,22.06 38.54,22.79 40.85,22.79 40.85,23.69 37.5,23.69 "/>
<polygon class="st0" points="53.95,23.69 53.95,19.57 57.3,19.57 57.3,20.49 54.98,20.49 54.98,21.19 57.24,21.19 57.24,22.06 
	54.98,22.06 54.98,22.79 57.3,22.79 57.3,23.69 53.95,23.69 "/>
<polygon class="st0" points="40.98,23.69 42.62,21.65 40.95,19.57 42.24,19.57 43.24,20.86 44.24,19.57 45.48,19.57 43.83,21.63 
	45.47,23.69 44.17,23.69 43.21,22.42 42.26,23.69 40.98,23.69 "/>
<path class="st0" d="M45.59,19.57v4.11h1.06v-1.3h1.08c0.92,0,1.61-0.49,1.61-1.43c0-0.78-0.54-1.38-1.48-1.38H45.59L45.59,19.57z
	 M46.65,20.5h1.14c0.3,0,0.51,0.18,0.51,0.47c0,0.27-0.21,0.47-0.51,0.47h-1.14V20.5L46.65,20.5L46.65,20.5z"/>
<path class="st0" d="M49.79,19.57v4.11h1.03v-1.46h0.43l1.23,1.46h1.26l-1.35-1.52c0.56-0.05,1.13-0.52,1.13-1.26
	c0-0.87-0.68-1.33-1.44-1.33L49.79,19.57L49.79,19.57L49.79,19.57z M50.82,20.49h1.18c0.28,0,0.49,0.22,0.49,0.43
	c0,0.27-0.27,0.43-0.47,0.43h-1.19V20.49L50.82,20.49z"/>
<path class="st0" d="M57.78,23.69v-0.89h2.06c0.3,0,0.44-0.16,0.44-0.35c0-0.17-0.13-0.35-0.44-0.35h-0.93
	c-0.81,0-1.26-0.49-1.26-1.23c0-0.66,0.41-1.3,1.61-1.3h2l-0.43,0.93H59.1c-0.33,0-0.43,0.17-0.43,0.34c0,0.17,0.13,0.36,0.38,0.36
	h0.97c0.9,0,1.29,0.51,1.29,1.18c0,0.72-0.44,1.31-1.34,1.31L57.78,23.69L57.78,23.69z"/>
<path class="st0" d="M61.55,23.69v-0.89h1.97c0.3,0,0.44-0.16,0.44-0.35c0-0.17-0.13-0.35-0.44-0.35h-0.84
	c-0.81,0-1.26-0.49-1.26-1.23c0-0.66,0.41-1.3,1.61-1.3H65l-0.43,0.93h-1.69c-0.33,0-0.43,0.17-0.43,0.34
	c0,0.17,0.13,0.36,0.38,0.36h0.89c0.9,0,1.29,0.51,1.29,1.18c0,0.72-0.44,1.31-1.34,1.31L61.55,23.69L61.55,23.69z"/>
</svg>
