<?xml version="1.0" encoding="utf-8"?>
<!-- Generator: Adobe Illustrator 26.0.1, SVG Export Plug-In . SVG Version: 6.00 Build 0)  -->
<svg version="1.1" id="Layer_1" xmlns="http://www.w3.org/2000/svg" xmlns:xlink="http://www.w3.org/1999/xlink" x="0px" y="0px"
	 viewBox="0 0 95 35" style="enable-background:new 0 0 95 35;" xml:space="preserve">
<style type="text/css">
	.st0{fill:#CCCCCC;}
</style>
<g>
	<path class="st0" d="M7.6,23.3c-1.6,0-3-0.5-4.1-1.4c1.3-3,4-7,7.7-10.9c1.9,1.2,3.1,3.3,3.1,5.6c0,1-0.2,2-0.6,2.8
		c-1.2-0.5-2.2-1.2-3.2-2.1l2,3.8C11.2,22.5,9.5,23.3,7.6,23.3 M0.9,16.6c0-3.7,3-6.7,6.7-6.7c1,0,1.9,0.2,2.8,0.6
		c-3.6,3.2-6.4,6.9-8.1,10.1C1.4,19.6,0.9,18.2,0.9,16.6 M14.5,19.8c0.5-1,0.7-2.1,0.7-3.2c0-2.6-1.3-5-3.4-6.3
		c1.2-1.3,2.5-2.5,3.9-3.7c-1.6,1-3.2,2.1-4.6,3.3C10,9.4,8.8,9.1,7.6,9.1C3.4,9.1,0,12.4,0,16.6c0,1.9,0.7,3.6,1.8,4.9
		c-1.5,3.1-1.7,5.7-0.4,6.5c1.4,0.9,4.3-0.7,6.1-3.4c0,0-2.8,2.5-4.3,1.9c-0.9-0.4-0.9-1.8-0.2-3.8c1.3,0.9,2.8,1.5,4.5,1.5
		c2.1,0,4-0.8,5.3-2.2l0.3,0.5c3.3-0.3,13.2-0.5,13.2-0.5C26.3,21.5,19.8,22,14.5,19.8"/>
	<polygon class="st0" points="59.7,15.9 60.9,14.3 56.6,14.3 57.7,12.9 62,12.9 63.2,11.2 54.6,11.2 48.7,19.1 57.3,19.1 58.5,17.4 
		54.2,17.4 55.4,15.9 	"/>
	<polygon class="st0" points="65.7,11.2 59.7,19.1 64,19.1 69.9,11.2 	"/>
	<polygon class="st0" points="79.9,11.2 76.9,15.2 76,11.2 72.7,11.2 66.8,19.1 69.6,19.1 72.6,15.2 73.5,19.1 76.9,19.1 82.8,11.2 
			"/>
	<path class="st0" d="M93.9,11.2l-6.9,0c-1.2,0-2.2,0.6-2.9,1.4l-3.6,4.7c-0.1,0.2-0.2,0.4-0.2,0.6c0,0.6,0.5,1.1,1,1.1h6.9
		c1.2,0,2.2-0.6,2.9-1.4l0.9-1.1h1l1.2-1.7H89l-1.7,2.2c-0.2,0.2-0.4,0.4-0.7,0.4h-1.2c-0.2,0-0.3-0.1-0.3-0.3c0-0.1,0-0.1,0.1-0.2
		l2.8-3.8c0.2-0.2,0.4-0.4,0.7-0.4H90c0.2,0,0.3,0.1,0.3,0.3c0,0.1,0,0.1-0.1,0.2l-0.5,0.6H94l0.8-1c0.1-0.2,0.2-0.4,0.2-0.6
		C95,11.7,94.5,11.2,93.9,11.2"/>
	<path class="st0" d="M46.3,13.3l-2.8,3.7c-0.2,0.2-0.4,0.4-0.7,0.4h-1.2c-0.1,0-0.3-0.1-0.3-0.3c0-0.1,0-0.1,0.1-0.2l2.8-3.7
		c0.2-0.2,0.4-0.4,0.7-0.4h1.2c0.2,0,0.3,0.1,0.3,0.3C46.4,13.2,46.4,13.3,46.3,13.3 M51.1,12.3c0-0.6-0.5-1.1-1.1-1.1h-6.9
		c-1.2,0-2.2,0.6-2.9,1.4l-3.6,4.7c-0.1,0.2-0.2,0.4-0.2,0.6c0,0.6,0.5,1.1,1,1.1h6.9c1.2,0,2.2-0.6,2.9-1.4l3.6-4.7
		C51,12.8,51.1,12.5,51.1,12.3"/>
	<path class="st0" d="M33.2,13.3l-0.5,0.6c-0.2,0.2-0.4,0.4-0.7,0.4l-1.8,0l1.1-1.4H33c0.1,0,0.3,0.1,0.3,0.3
		C33.3,13.2,33.3,13.3,33.2,13.3 M30.9,16.4l-0.5,0.7c-0.2,0.2-0.4,0.4-0.7,0.4h-1.8l1.1-1.5h1.7c0.2,0,0.3,0.1,0.3,0.3
		C31,16.3,31,16.3,30.9,16.4 M34.9,15.4c0.8-0.2,1.6-0.7,2.1-1.3l0.8-1.1c0.1-0.2,0.2-0.4,0.2-0.6c0-0.6-0.5-1.1-1-1.1h-4.4h-4.3
		l-5.9,7.8h4.2h4.8c1.2,0,2.2-0.6,2.9-1.4l0.8-1.1c0.1-0.1,0.2-0.3,0.2-0.5C35.3,15.8,35.1,15.5,34.9,15.4"/>
</g>
</svg>
