<?xml version="1.0" encoding="utf-8"?>
<!-- Generator: Adobe Illustrator 26.0.1, SVG Export Plug-In . SVG Version: 6.00 Build 0)  -->
<svg version="1.1" id="Layer_1" xmlns="http://www.w3.org/2000/svg" xmlns:xlink="http://www.w3.org/1999/xlink" x="0px" y="0px"
	 viewBox="0 0 95 35" style="enable-background:new 0 0 95 35;" xml:space="preserve">
<style type="text/css">
	.st0{fill-rule:evenodd;clip-rule:evenodd;fill:#FFFFFF;}
</style>
<g>
	<g>
		<path class="st0" d="M40.06,21.33h1.74v-2.54l0,0c0-1.04,0.14-1.44,0.55-1.44c0.41,0,0.55,0.4,0.55,1.04l0,0v2.95h1.74v-2.54l0,0
			c0-1.04,0.14-1.44,0.55-1.44c0.37,0,0.55,0.35,0.55,0.92l0,0v3.06h1.74V17.8l0,0c0-1.44-0.5-2.2-1.74-2.2
			c-0.6,0-1.01,0.23-1.33,0.69l0,0l-0.09,0.12l0,0c-0.32-0.52-0.64-0.87-1.33-0.87c-0.6,0-1.01,0.23-1.28,0.69l0,0l-0.27-0.52h-1.38
			V21.33L40.06,21.33z"/>
		<path class="st0" d="M37.28,13.48H35.4l-2.2,7.86h1.93l0.28-1.1h2.02l0.27,1.1h1.93L37.28,13.48L37.28,13.48L37.28,13.48z
			 M35.81,18.57l0.55-2.02l0.6,2.02H35.81L35.81,18.57L35.81,18.57z"/>
		<path class="st0" d="M4.95,17.35l-0.18-0.17l0,0c0.37-0.4,0.6-0.69,0.6-1.56c0-1.33-0.64-2.08-1.93-2.08l0,0H0v7.8h3.03l0,0
			c1.7,0,2.66-0.46,2.66-2.2C5.69,18.45,5.46,17.87,4.95,17.35L4.95,17.35L4.95,17.35L4.95,17.35z M2.06,15.46h1.01l0,0
			c0.41,0,0.5,0.17,0.5,0.64c0,0.46-0.14,0.46-0.55,0.46l0,0H2.06V15.46L2.06,15.46L2.06,15.46z M3.25,19.47H2.06v-1.21H3.3l0,0
			c0.37,0,0.55,0.17,0.55,0.64C3.85,19.41,3.71,19.47,3.25,19.47L3.25,19.47L3.25,19.47L3.25,19.47z"/>
		<polygon class="st0" points="16.67,21.34 18.41,21.34 18.41,18.97 19.65,21.34 21.62,21.34 19.88,17.99 21.48,15.73 19.46,15.73 
			18.41,17.24 18.41,13.65 16.67,13.65 16.67,21.34 		"/>
		<path class="st0" d="M11.25,21.33h1.74v-2.54l0,0c0-1.04,0.28-1.5,0.73-1.5c0.5,0,0.69,0.46,0.69,1.16l0,0v2.89h1.74v-3.18l0,0
			c0-1.68-0.55-2.66-1.74-2.66c-0.5,0-0.87,0.17-1.24,0.64l0,0l-0.09,0.11l-0.18-0.52h-1.65V21.33L11.25,21.33z"/>
		<path class="st0" d="M25.49,15.49c-1.42,0-2.38,1.33-2.38,3.12c0,1.79,0.96,2.95,2.52,2.95c1.6,0,2.34-1.16,2.34-2.83
			C27.97,16.64,27.1,15.49,25.49,15.49L25.49,15.49L25.49,15.49L25.49,15.49z M25.58,20.05c-0.73,0-0.73-1-0.73-1.52
			c0-0.78,0.17-1.43,0.73-1.43c0.5,0,0.68,0.44,0.69,1.37C26.28,19.64,26.02,20.05,25.58,20.05L25.58,20.05L25.58,20.05L25.58,20.05
			z"/>
		<path class="st0" d="M50.49,20.11c-0.41,0-0.64-0.29-0.73-0.92l0,0h3.03l0,0c0-2.2-0.73-3.7-2.34-3.7c-1.47,0-2.43,1.21-2.43,3.12
			c0,1.82,0.96,3.03,2.52,3.03c1.28,0,1.83-0.78,2.25-2.05l0,0h-1.51l0,0C51.22,19.88,50.95,20.11,50.49,20.11L50.49,20.11
			L50.49,20.11L50.49,20.11z M50.44,17.06c0.41,0,0.64,0.35,0.69,0.81l0,0h-1.42l0,0C49.8,17.35,50.03,17.06,50.44,17.06
			L50.44,17.06L50.44,17.06L50.44,17.06z"/>
		<path class="st0" d="M8.4,15.6c-1.51,0-2.2,0.81-2.2,2.14l0,0h1.47l0,0c0-0.35,0.23-0.75,0.73-0.75c0.23,0,0.41,0.23,0.41,0.52
			c0,0.98-2.89,0-2.89,2.43c0,1.04,0.55,1.68,1.47,1.68c0.69,0,1.19-0.29,1.47-0.64l0,0l0.27,0.35h1.51v-2.95l0,0
			C10.65,16.52,10.19,15.6,8.4,15.6L8.4,15.6L8.4,15.6L8.4,15.6z M8.81,19.58c0,0.35-0.37,0.69-0.64,0.69
			c-0.28,0-0.41-0.23-0.41-0.46c0-0.35,0.28-0.75,1.05-0.87l0,0V19.58L8.81,19.58L8.81,19.58z"/>
		<path class="st0" d="M66.83,15.6c-1.47,0-2.25,0.75-2.25,2.14l0,0h1.47l0,0c0-0.35,0.18-0.75,0.73-0.75
			c0.23,0,0.41,0.23,0.41,0.52c0,0.98-2.8,0-2.8,2.43c0,1.04,0.55,1.62,1.47,1.62c0.64,0,1.15-0.23,1.38-0.58l0,0l0.28,0.35h1.51
			v-2.95l0,0C69.03,16.58,68.62,15.6,66.83,15.6L66.83,15.6L66.83,15.6L66.83,15.6z M67.2,19.58c0,0.35-0.37,0.69-0.64,0.69
			c-0.28,0-0.41-0.23-0.41-0.46c0-0.35,0.27-0.75,1.05-0.87l0,0V19.58L67.2,19.58L67.2,19.58z"/>
		<path class="st0" d="M62.43,19.06c-0.05,0.75-0.18,0.92-0.64,0.92c-0.64,0-0.87-0.58-0.87-1.33c0-0.92,0.14-1.5,0.78-1.5
			c0.41,0,0.46,0.06,0.73,0.69l0,0h1.38l0,0c-0.09-1.44-0.6-2.25-2.11-2.25c-1.42,0-2.29,1.04-2.29,2.83c0,1.96,0.78,3.18,2.34,3.18
			c1.19,0,2.11-0.75,2.2-2.14l0,0l0.05-0.4H62.43L62.43,19.06z"/>
		<path class="st0" d="M53.37,21.33h1.74v-1.96l0,0c0-1.44,0.32-1.85,1.33-1.96l0,0h0.18v-1.73l0,0c-0.6,0-1.05,0-1.56,0.69l0,0
			l-0.28-0.64h-1.42V21.33L53.37,21.33z"/>
		<path class="st0" d="M28.52,17.12h0.6v4.22h1.74v-4.22h0.73v-1.39h-0.73l0,0c0-0.58,0.09-0.64,0.27-0.64l0,0h0.55v-1.5H30.5l0,0
			c-0.78,0-1.28,0.17-1.28,1.39l0,0v0.75h-0.69V17.12L28.52,17.12z"/>
		<polygon class="st0" points="57.12,21.33 58.86,21.33 58.86,15.72 57.12,15.72 57.12,21.33 		"/>
		<polygon class="st0" points="57.12,15.13 58.86,15.13 58.86,13.51 57.12,13.51 57.12,15.13 		"/>
	</g>
	<g>
		<path class="st0" d="M80.22,14.26c-0.87,0.37-4.65,2.05-6.06,2.88c-0.61-0.24-1.13-0.41-1.84-0.67c2.93-1.71,6.12-2.68,6.18-2.75
			C79.1,13.86,79.61,14.11,80.22,14.26z"/>
		<path class="st0" d="M83.05,15.44c-0.87,0.37-4.67,2.2-6.08,3.03c-0.66-0.33-1.3-0.66-1.96-0.92c2.93-1.71,5.98-2.85,6.03-2.92
			C81.61,14.84,82.46,15.22,83.05,15.44z"/>
		<path class="st0" d="M92.21,14.8c-0.87,0.37-6.83,2.3-12.48,6.05c-0.72-0.44-1.87-1.11-2.57-1.33c2.93-1.71,6.82-4.29,12.75-5.81
			C90.8,14.09,91.41,14.43,92.21,14.8z"/>
		<path class="st0" d="M95,16.36c-0.87,0.37-8.11,3.83-11.62,6.88c-0.64-0.38-2.04-1.43-2.69-1.77c2.82-1.82,6.39-4.45,12.25-6.22
			C93.84,15.64,94.28,15.94,95,16.36z"/>
		<path class="st0" d="M80.27,12.44c1.55,0.5,3.8,1.29,5.28,2.04c-0.47,0.26-1.1,0.43-1.66,0.66c-3.75-1.57-5.27-2.03-5.34-2.09
			C78.87,12.91,79.98,12.54,80.27,12.44z"/>
		<path class="st0" d="M83.01,11.75c1.55,0.5,3.9,1.18,5.38,1.93c-0.5,0.13-1.23,0.27-1.8,0.51c-3.75-1.57-5.13-1.98-5.2-2.04
			C81.71,12.02,82.72,11.85,83.01,11.75z"/>
	</g>
</g>
</svg>
