<?xml version="1.0" encoding="utf-8"?>
<!-- Generator: Adobe Illustrator 26.0.1, SVG Export Plug-In . SVG Version: 6.00 Build 0)  -->
<svg version="1.1" id="Layer_1" xmlns="http://www.w3.org/2000/svg" xmlns:xlink="http://www.w3.org/1999/xlink" x="0px" y="0px"
	 viewBox="0 0 95 35" style="enable-background:new 0 0 95 35;" xml:space="preserve">
<style type="text/css">
	.st0{fill-rule:evenodd;clip-rule:evenodd;fill:#343741;}
</style>
<g>
	<path class="st0" d="M49.9,23.65c0.45,0.81,0.66,1.23,1.08,1.78h-6.95c-0.24-1.3-0.9-2.11-1.44-3.07l-3,2.02
		c-0.41,0.28-0.76,0.52-1.25,1.05h-3.97c0.84-0.55,1.86-1.31,2.89-2.05l4.24-3.05l-2.19-4.07c-0.48-0.9-0.99-1.76-1.58-2.57h7.08
		c0.02,0.96,1.01,2.29,1.47,3.14c1.02-0.71,3.31-2.4,4.17-3.14l3.71,0.05c-0.8,0.43-1.57,1.17-2.42,1.78l-4.41,3.31L49.9,23.65"/>
	<path class="st0" d="M63.61,23.2l-0.51,2.24h-5.15c-2.83,0-5.63-0.76-4.78-3.98l0.18-0.71l2.5-9.47l5.79-0.24l-0.7,2.64h4.85
		l-0.59,2.24h-4.85l-1.44,5.45c-0.38,1.45-0.32,1.83,1.23,1.83H63.61"/>
	<path class="st0" d="M88.98,15.01c0.69-1.23,1.55-1.3,3.14-1.3H95l-1.02,3.64c-0.56-0.49-0.99-0.44-1.45-0.45h-1.93
		c-1.12,0-2.11,0.59-2.41,1.76l-1.01,3.83c-0.27,1.02-0.48,1.97-0.45,2.95h-6.39c0.47-0.77,0.8-1.76,1.04-2.69l0.07-0.26l1.54-5.83
		c0.17-0.64,0.34-1.28,0.41-1.9c0.05-0.38,0-0.74-0.1-1.05h5.68L88.98,15.01"/>
	<path class="st0" d="M71.22,20.12l-0.4,1.55c-0.36,1.38,0.09,1.55,1.35,1.55h5.21c0.86,0,1.81,0.05,2.47-0.09l-0.96,2.3H68.44
		c-2.85,0-4.1-0.88-3.28-3.97l1.29-4.89c0.57-2.46,1.49-2.84,3.6-2.87h8.36c2.88,0,3.96,0.86,3.15,3.92l-0.67,2.49H71.22z
		 M76.01,17.2c0.18-0.69,0.24-1.28-0.59-1.28h-2.26c-0.69,0-0.94,0.4-1.13,1.14l-0.23,1.02h4.02L76.01,17.2z"/>
	<path class="st0" d="M28.01,25.43h5.49c-0.06-0.55,0.01-1.15,0.23-2.11l1.65-6.29c0.53-2-0.5-3.33-2.49-3.35l-0.58,0.02H21.37
		l-0.77,2.07h9.41l-0.44,1.54H22.8c-1.69,0-3.3,1.05-3.49,1.97l-0.53,2c-0.7,2.97,1.42,4.15,3.72,4.15h3.03
		c0.82,0,1.8-0.48,2.21-0.86C27.79,24.81,27.84,25.19,28.01,25.43z M26.24,19.7c-1.09,0-1.39,0.09-1.66,1.11l-0.31,1.17
		c-0.26,1-0.04,1.23,1.03,1.23h1.4c1.09,0,1.48-0.48,1.75-1.5L29,19.7H26.24z"/>
	<path class="st0" d="M16.94,17.35c1.01,0.27,1.31,1.79,1.15,2.73l-0.58,2.19c-0.72,2.71-2.62,3.16-4.96,3.16H0
		c0.41-0.6,0.78-1.52,1-2.35l2.94-11.15c0.22-0.83,0.32-1.56,0.2-2.35h12.6c2.05,0,3.65,0.8,3,3.26l-0.39,1.69
		C18.92,16.16,18.11,17.07,16.94,17.35z M12.15,16.06c1.05,0,1.32-0.23,1.57-1.21l0.38-1.41c0.23-0.88-0.06-1.23-0.76-1.25H9.89
		l-1.02,3.88H12.15z M10.52,22.82c0.98,0,1.16-0.19,1.44-1.24l0.46-1.79c0.18-0.82,0.01-1.11-0.81-1.12H8.18l-1.09,4.14H10.52z"/>
</g>
</svg>
