<?xml version="1.0" encoding="utf-8"?>
<!-- Generator: Adobe Illustrator 26.0.1, SVG Export Plug-In . SVG Version: 6.00 Build 0)  -->
<svg version="1.1" id="Layer_1" xmlns="http://www.w3.org/2000/svg" xmlns:xlink="http://www.w3.org/1999/xlink" x="0px" y="0px"
	 viewBox="0 0 95 35" style="enable-background:new 0 0 95 35;" xml:space="preserve">
<style type="text/css">
	.st0{fill:#343741;}
</style>
<path id="path2998" class="st0" d="M17.56,0.43v15.11h7.91c3.11,0,5.99-1.09,5.99-4.3c0-2.17-1.56-3.16-3.28-3.68
	c1.05-0.42,2.24-1.3,2.24-3.15c0-2.37-2.35-3.97-5.51-3.97L17.56,0.43L17.56,0.43z M22.41,3.95h1.78c0.73,0,1.28,0.57,1.28,1.14
	c0,0.54-0.57,1.11-1.28,1.11h-1.78L22.41,3.95L22.41,3.95z M22.41,9.34h2.35c0.82,0,1.51,0.62,1.51,1.34c0,0.76-0.64,1.39-1.65,1.39
	h-2.21L22.41,9.34L22.41,9.34z"/>
<path id="path3005" class="st0" d="M21.48,17.19V32.3h7.91c3.11,0,5.99-1.09,5.99-4.3c0-2.17-1.56-3.16-3.28-3.68
	c1.05-0.42,2.24-1.3,2.24-3.15c0-2.37-2.35-3.97-5.51-3.97H21.48L21.48,17.19z M26.33,20.71h1.78c0.73,0,1.28,0.57,1.28,1.14
	c0,0.54-0.57,1.11-1.28,1.11h-1.78V20.71L26.33,20.71z M26.33,26.1h2.35c0.82,0,1.51,0.62,1.51,1.34c0,0.76-0.64,1.39-1.65,1.39
	h-2.21L26.33,26.1L26.33,26.1z"/>
<path id="path3007" class="st0" d="M31.84,15.54V0.43h12.19v3.65h-7.36v1.98h5.97v3.42h-5.97v2.42h7.36v3.63H31.84z"/>
<path id="path3009" class="st0" d="M50.63,15.97c3.43,0,6.17-1.96,6.17-5.13c0-5.12-6.66-4.33-6.66-5.92c0-0.62,0.65-0.94,1.31-0.94
	c1.14,0,1.97,0.75,1.97,0.75l2.86-2.73C55.15,0.92,53.34,0,50.9,0c-3.66,0-6.06,2.17-6.06,4.79c0,5.18,6.56,4.43,6.56,6.06
	c0,0.57-0.55,1.14-1.54,1.14c-1.13,0-2.02-0.68-2.72-1.26l-2.88,2.75C45.42,14.61,47.29,15.97,50.63,15.97z"/>
<path id="path3011" class="st0" d="M60.54,15.54V4.07h-3.99V0.43h12.83v3.63h-3.99v11.47H60.54z"/>
<path id="path3013" class="st0" d="M35.55,17.18h4.83v9.05c0,0.92,0.91,1.77,1.87,1.77c0.9,0,1.81-0.76,1.81-1.81v-9h4.82v8.94
	c0,3.55-2.95,6.38-6.75,6.38c-3.83,0-6.57-3.08-6.57-6.57L35.55,17.18z"/>
<path id="path3015" class="st0" d="M54.83,32.29v-5.4l-5.68-9.71h4.89l3.21,5.2l3.22-5.2h4.9l-5.7,9.77v5.34H54.83z"/>
<path class="st0" d="M65.38,25.45l-2.85,2.85v3.85L65.38,35h12.06v-9.55H65.38z M64.27,30.86c-0.35,0-0.64-0.29-0.64-0.64
	s0.29-0.64,0.64-0.64s0.64,0.29,0.64,0.64S64.63,30.86,64.27,30.86z"/>
</svg>
