<?xml version="1.0" encoding="utf-8"?>
<!-- Generator: Adobe Illustrator 26.0.1, SVG Export Plug-In . SVG Version: 6.00 Build 0)  -->
<svg version="1.1" id="Layer_1" xmlns="http://www.w3.org/2000/svg" xmlns:xlink="http://www.w3.org/1999/xlink" x="0px" y="0px"
	 viewBox="0 0 95 35" style="enable-background:new 0 0 95 35;" xml:space="preserve">
<style type="text/css">
	.st0{fill:#FFFFFF;}
</style>
<path id="path53" class="st0" d="M36.9,17.5C36.9,27.2,29,35,19.4,35C9.7,35,1.9,27.2,1.9,17.5C1.9,7.8,9.7,0,19.4,0
	C29,0,36.9,7.8,36.9,17.5"/>
<path id="path57" class="st0" d="M79.4,8.4h-4v18.4h4c6.1,0,9.6-3.6,9.6-9.2C89,12,85.6,8.4,79.4,8.4 M79.7,30.6h-6.4
	c-1.2,0-2.1-0.9-2.1-2.1V6.6c0-1.2,0.9-2.1,2.1-2.1h6.4c8.7,0,13.5,5.8,13.5,13C93.1,24.8,88.3,30.6,79.7,30.6 M58.9,18.7h-7.7v8
	h7.7c3.1,0,4.5-2,4.5-4C63.4,20.7,62,18.7,58.9,18.7 M58,8.4h-6.7v6.6H58c2.7,0,3.9-1.5,3.9-3.3C61.9,9.8,60.7,8.4,58,8.4
	 M58.8,30.6h-9.7c-1.2,0-2.1-0.9-2.1-2.1V6.6c0-1.2,0.9-2.1,2.1-2.1h9c5,0,7.9,2.9,7.9,6.6c0,3.8-2.3,5.1-3.1,5.4
	c1.3,0.3,4.7,1.8,4.7,6.5C67.6,27.2,64.3,30.6,58.8,30.6"/>
<path id="path61" class="st0" d="M25,12.7C25.1,12.7,25.1,12.7,25,12.7c0.2,0,10.2-2.5,10.2-2.5c-1.4-3-3.6-5.6-6.4-7.4
	c0,0-3.9,9.7-3.9,9.7C24.9,12.6,24.9,12.6,25,12.7C24.9,12.7,25,12.7,25,12.7 M21.4,10.3c0,0.1,0.1,0.1,0.1,0.1c0,0,0.1,0,0.1-0.1
	c0.2-0.2,7.2-7.6,7.2-7.6C26.1,1,22.9,0,19.4,0C19.4,0,21.3,9.8,21.4,10.3 M26.8,16.6c0.1,0,9.9,3.4,9.9,3.4
	c0.1-0.8,0.2-1.6,0.2-2.5c0-2.6-0.5-5-1.5-7.2c0,0-8.5,6-8.6,6c-0.1,0-0.1,0.1-0.1,0.1C26.7,16.5,26.7,16.6,26.8,16.6 M13.8,12.6
	C13.8,12.6,13.8,12.6,13.8,12.6c0-0.1-4-9.8-4-9.8c-2.8,1.8-5,4.4-6.4,7.4c0,0,10.1,2.5,10.2,2.5C13.6,12.7,13.7,12.7,13.8,12.6
	C13.7,12.7,13.8,12.7,13.8,12.6 M19.3,0c-3.4,0-6.7,1-9.4,2.8c0,0,6.9,7.4,7.2,7.6c0,0,0.1,0.1,0.1,0.1c0,0,0.1,0,0.1-0.1
	C17.4,9.8,19.3,0,19.3,0 M11.9,16.6C11.9,16.6,2,20,2,20c-0.1-0.8-0.2-1.6-0.2-2.5c0-2.6,0.5-5,1.5-7.2c0,0,8.5,6,8.6,6
	c0.1,0,0.1,0.1,0.1,0.1C12,16.5,12,16.6,11.9,16.6"/>
<path id="path65" class="st0" d="M19.4,35c8.8,0,16-6.5,17.3-14.9L30.1,21c-0.1,0-0.1,0.1-0.2,0.1c-1.3,3.8-4.6,6.6-8.6,7.4
	c1.5-0.7,2.6-2.3,2.6-4.2c0-2.6-2.1-4.6-4.6-4.6c-2.6,0-4.6,2.1-4.6,4.6c0,1.8,1.1,3.4,2.6,4.2c-4-0.7-7.3-3.6-8.6-7.4
	c0-0.1-0.1-0.1-0.2-0.1l-6.5-0.9C3.3,28.5,10.6,35,19.4,35"/>
</svg>
