<?xml version="1.0" encoding="utf-8"?>
<!-- Generator: Adobe Illustrator 26.0.1, SVG Export Plug-In . SVG Version: 6.00 Build 0)  -->
<svg version="1.1" id="Layer_1" xmlns="http://www.w3.org/2000/svg" xmlns:xlink="http://www.w3.org/1999/xlink" x="0px" y="0px"
	 viewBox="0 0 95 35" style="enable-background:new 0 0 95 35;" xml:space="preserve">
<style type="text/css">
	.st0{fill:#343741;}
</style>
<g id="layer1" transform="translate(-557.58463,-939.34567)">
	<g id="g2993" transform="matrix(1.25,0,0,-1.25,-7.5,1018.9724)">
		<g id="g3347" transform="matrix(0.96642798,0,0,0.96642798,15.190255,0.75793529)">
			<g>
				<g id="g3349">
					<g id="g3355" transform="translate(482.9877,52.781906)">
						<path id="path3357" class="st0" d="M-11.47,3.69l-9.33,3.65c-2.01-1.1-3.65-2.37-4.98-3.65c1.33-1.28,2.97-2.55,4.98-3.65
							L-11.47,3.69z"/>
					</g>
					<g id="g3359" transform="translate(452.4677,64.716095)">
						<path id="path3361" class="st0" d="M-0.41-0.64c0,0,0.99-3.21,4.23-6.67C5.25-6.21,6.99-5.2,9.05-4.34L-0.41-0.64z"/>
					</g>
					<g id="g3363" transform="translate(452.4677,40.850098)">
						<path id="path3365" class="st0" d="M-0.41,8.01c0,0,0.99,3.21,4.23,6.67c1.44-1.11,3.17-2.11,5.23-2.97L-0.41,8.01z"/>
					</g>
					<g id="g3367" transform="translate(526.9435,23.944397)">
						<path id="path3369" class="st0" d="M-27.41,14.14h-2.64v2.89h1.99v-0.87h0.67v2.38h-0.67v-0.86h-1.99v2.75h2.54v-0.97h0.66
							v1.95h-0.67V21.1h-4.65v-0.56h0.85v-6.49h-0.85v-0.57h5.43v1.66h-0.67V14.14z M1.33,21.1v-0.56h0.86v-4.83l-3.94,5.4h-1.98
							v-0.56h0.82l0.27-0.38v-6.11H-3.5v-0.57h2.43v0.57h-0.86v5.14l4.24-5.83H2.9v7.19h0.85v0.56H1.33L1.33,21.1z M-8.49,21.24
							c-2.09,0-3.8-1.78-3.8-3.96c0-2.18,1.71-3.95,3.8-3.95c2.08,0,3.77,1.78,3.77,3.96C-4.73,19.47-6.42,21.24-8.49,21.24
							 M-8.49,14.07c-1.41,0-2.4,1.33-2.4,3.22c0,1.89,0.99,3.21,2.41,3.21c1.39,0,2.36-1.32,2.36-3.21
							C-6.12,15.4-7.1,14.07-8.49,14.07 M-38.34,15.63l-2.57,5.48h-2.13v-0.56h0.86v-6.49h-0.86v-0.57h2.43v0.57h-0.86v5.29
							l2.84-6.07l2.7,5.94v-5.15h-0.85v-0.57h2.97v0.57h-0.85v6.49h0.85v0.56h-2.02L-38.34,15.63z M-20.26,14.14h-2.51v6.4h0.85
							v0.56h-2.98v-0.56h0.85v-6.49h-0.85v-0.57h5.3v1.66h-0.67V14.14z M-13.72,14.14h-2.51v6.4h0.85v0.56h-2.97v-0.56h0.85v-6.49
							h-0.85v-0.57h5.3v1.66h-0.66V14.14z M-49.82,20.54h0.98l-1.64-2.7l-1.76,2.7h0.88v0.56h-3.08v-0.56h0.69l2.32-3.56v-2.93
							h-0.85v-0.57h2.97v0.57h-0.86v2.99l2.14,3.5h0.62v0.56h-2.41V20.54z M-65.42,17.51c0.72,0.21,1.4,0.77,1.4,1.67
							c0,1.17-0.87,1.93-2.22,1.93h-3.5v-0.56h0.85v-6.49h-0.85v-0.57h3.7c1.43,0,2.38,0.81,2.38,2.02
							C-63.66,16.7-64.52,17.31-65.42,17.51 M-67.61,20.44h0.93c0.5,0,1.33-0.17,1.33-1.31c0-0.94-0.7-1.37-1.39-1.37h-0.87V20.44z
							 M-66.64,14.14h-0.98v2.97h0.98c1.02,0,1.67-0.61,1.67-1.54C-64.97,14.51-65.86,14.14-66.64,14.14 M-57.45,20.54h0.86v-4.83
							l-3.95,5.4h-1.97v-0.56h0.81l0.27-0.38v-6.11h-0.86v-0.57h2.44v0.57h-0.86v5.14l4.24-5.83h0.59v7.19h0.85v0.56h-2.43V20.54z"
							/>
					</g>
				</g>
			</g>
		</g>
	</g>
</g>
</svg>
