<?xml version="1.0" encoding="utf-8"?>
<!-- Generator: Adobe Illustrator 26.0.1, SVG Export Plug-In . SVG Version: 6.00 Build 0)  -->
<svg version="1.1" id="Layer_1" xmlns="http://www.w3.org/2000/svg" xmlns:xlink="http://www.w3.org/1999/xlink" x="0px" y="0px"
	 viewBox="0 0 95 35" style="enable-background:new 0 0 95 35;" xml:space="preserve">
<style type="text/css">
	.st0{fill:#343741;}
</style>
<g>
	<path class="st0" d="M24.3,6.7h3.1c1.7,0,2.9,0.8,2.9,2.2c0,0.7-0.4,1.4-1,1.8c0.8,0.3,1.4,1,1.3,1.9c0,1.9-1.5,2.5-3.2,2.5h-3.1
		V6.7z M27.5,9.9c0.4,0,0.7-0.3,0.8-0.7c0,0,0-0.1,0-0.1c0-0.4-0.3-0.7-0.7-0.7c0,0-0.1,0-0.1,0h-1v1.5H27.5z M27.7,13.4
		c0.5,0,0.9-0.3,0.9-0.8c0,0,0-0.1,0-0.1c0-0.4-0.3-0.8-0.8-0.9c0,0-0.1,0-0.1,0h-1.3v1.8L27.7,13.4z"/>
	<path class="st0" d="M38.4,6.5c2.4-0.1,4.4,1.8,4.5,4.2c0,0.1,0,0.1,0,0.2c0,2.5-2,4.5-4.5,4.5c-2.5,0-4.5-2-4.5-4.5
		c0-2.4,1.9-4.3,4.2-4.4C38.2,6.5,38.3,6.5,38.4,6.5 M38.4,13.4c1.3,0,2.3-1.1,2.3-2.5c0,0,0-0.1,0-0.1c0.1-1.3-0.9-2.3-2.2-2.4
		c-1.3-0.1-2.3,0.9-2.4,2.2c0,0.1,0,0.2,0,0.2c-0.1,1.3,0.9,2.5,2.2,2.6C38.3,13.4,38.4,13.4,38.4,13.4L38.4,13.4z"/>
	<path class="st0" d="M50.5,6.5c2.4-0.1,4.4,1.8,4.4,4.2c0,0.1,0,0.1,0,0.2c0,2.5-2,4.5-4.5,4.5c-2.5,0-4.5-2-4.5-4.5
		c0-2.4,1.9-4.3,4.3-4.3C50.4,6.5,50.4,6.5,50.5,6.5 M50.5,13.4c1.3,0,2.3-1.1,2.3-2.5c0,0,0-0.1,0-0.1c0.1-1.3-0.9-2.3-2.2-2.4
		c-1.3-0.1-2.3,0.9-2.4,2.2c0,0.1,0,0.2,0,0.2c-0.1,1.3,0.9,2.5,2.2,2.6C50.4,13.4,50.5,13.4,50.5,13.4L50.5,13.4z"/>
	<polygon class="st0" points="58.8,6.7 60.8,6.7 60.8,9.9 61.7,9.9 63.5,6.7 65.7,6.7 63.4,10.7 65.9,15.1 63.5,15.1 61.7,11.7 
		60.9,11.7 60.9,15.1 58.8,15.1 	"/>
	<polygon class="st0" points="69.4,6.7 71.4,6.7 71.4,15.2 69.3,15.2 	"/>
	<path class="st0" d="M75.8,6.7h2.1l2.4,4c0.3,0.5,0.5,1,0.7,1.5c0,0-0.1-0.9-0.1-1.4v-4H83v8.5H81l-2.4-4c-0.3-0.5-0.5-1-0.7-1.5
		c0,0,0.1,0.9,0.1,1.5v4h-2.1V6.7z"/>
	<path class="st0" d="M91.3,6.5c1.2-0.1,2.4,0.4,3.3,1.1l-1,1.6c-0.6-0.5-1.3-0.8-2.1-0.8c-1.8,0-2.5,1.1-2.5,2.4
		c-0.1,1.3,0.9,2.5,2.2,2.6c0.1,0,0.1,0,0.2,0c0.6,0,1.2-0.2,1.7-0.6v-0.7H92v-1.8h3v4.8h-1.7v-0.2v-0.4c-0.6,0.5-1.4,0.8-2.2,0.7
		c-2.3,0-4.2-1.9-4.2-4.2c0-0.1,0-0.2,0-0.3c0-2.4,1.9-4.3,4.2-4.4C91.2,6.5,91.2,6.5,91.3,6.5"/>
	<polygon class="st0" points="24.4,20.6 25.2,20.6 25.2,24.1 29.7,24.1 29.7,20.6 30.5,20.6 30.5,28.3 29.7,28.3 29.7,24.8 
		25.2,24.8 25.2,28.3 24.4,28.3 	"/>
	<path class="st0" d="M38.3,20.5c2.2,0,3.9,1.7,3.9,3.9c0,0,0,0,0,0.1c0,2.2-1.8,4-4,4c-2.2,0-4-1.8-4-4v0
		C34.3,22.3,36.1,20.5,38.3,20.5C38.3,20.5,38.3,20.5,38.3,20.5 M38.3,27.8c1.8,0,3.2-1.5,3.2-3.3c0,0,0,0,0-0.1
		c0.1-1.7-1.3-3.2-3-3.3c-1.7-0.1-3.2,1.3-3.3,3c0,0.1,0,0.2,0,0.3C35.1,26.2,36.5,27.7,38.3,27.8C38.3,27.8,38.3,27.8,38.3,27.8"/>
	<polygon class="st0" points="46.2,20.6 47,20.6 47,27.7 50.5,27.7 50.5,28.4 46.2,28.4 	"/>
	<path class="st0" d="M54.1,20.6h2.5c2.3,0,3.9,1.4,3.9,3.9c0,2.5-1.6,3.9-3.9,3.9h-2.5V20.6z M56.6,27.7c1.9,0,3.2-1.1,3.2-3.2
		c0-2.1-1.3-3.2-3.2-3.2h-1.7v6.4H56.6z"/>
	<rect x="64.5" y="20.6" class="st0" width="0.8" height="7.7"/>
	<path class="st0" d="M69.7,20.6h0.7l4,5.6c0.3,0.4,0.6,1.1,0.6,1.1S75,26.6,75,26.2v-5.6h0.8v7.7H75l-4-5.6c-0.3-0.4-0.6-1-0.6-1
		s0.1,0.6,0.1,1v5.6h-0.8L69.7,20.6z"/>
	<path class="st0" d="M83.6,20.5c1,0,2,0.3,2.7,0.9L85.9,22c-0.7-0.5-1.5-0.8-2.3-0.8c-1.7,0-3.1,1.4-3.2,3.1c0,0.1,0,0.1,0,0.2
		c-0.1,1.7,1.2,3.2,2.9,3.3c0.1,0,0.1,0,0.2,0c0.9,0,1.8-0.4,2.4-1.1v-1.3h-1.3v-0.7h2.1v3.7H86v-0.6v-0.3c-0.7,0.7-1.6,1.1-2.5,1.1
		c-2.1,0-3.8-1.8-3.8-3.9c0,0,0-0.1,0-0.1c-0.1-2.1,1.6-4,3.8-4C83.5,20.5,83.5,20.5,83.6,20.5"/>
	<path class="st0" d="M90.6,26.9c0.5,0.5,1.3,0.8,2,0.9c0.8,0.1,1.5-0.5,1.5-1.2c0,0,0-0.1,0-0.1c0-2-3.9-1.5-3.9-3.9
		c0-1.1,1-2.1,2.4-2.1c0.8,0,1.5,0.2,2.1,0.7l-0.4,0.6c-0.5-0.4-1.1-0.6-1.7-0.7c-0.8-0.1-1.5,0.5-1.6,1.3c0,0,0,0,0,0
		c0,1.8,3.9,1.3,3.9,3.9c0,1.2-0.9,2.1-2.4,2.1c-0.9,0-1.8-0.3-2.5-1L90.6,26.9z"/>
	<path class="st0" d="M0.6,14.2c0.3,0,0.6,0.3,0.6,0.6c0,0.3-0.3,0.6-0.6,0.6S0,15.1,0,14.8C0,14.5,0.3,14.2,0.6,14.2"/>
	<path class="st0" d="M0.6,11.5c0.3,0,0.6,0.3,0.6,0.6c0,0.3-0.3,0.6-0.6,0.6S0,12.4,0,12.1C0,11.8,0.3,11.5,0.6,11.5"/>
	<path class="st0" d="M0.6,8.8c0.3,0,0.6,0.3,0.6,0.6c0,0.3-0.3,0.6-0.6,0.6S0,9.7,0,9.4C0,9.1,0.3,8.8,0.6,8.8"/>
	<path class="st0" d="M0.6,6.1c0.3,0,0.6,0.3,0.6,0.6c0,0.3-0.3,0.6-0.6,0.6S0,7,0,6.7C0,6.4,0.3,6.1,0.6,6.1"/>
	<path class="st0" d="M2.7,14.2c0.3,0,0.6,0.3,0.6,0.6c0,0.3-0.3,0.6-0.6,0.6s-0.6-0.3-0.6-0.6C2.1,14.5,2.4,14.2,2.7,14.2"/>
	<path class="st0" d="M2.7,11.5c0.3,0,0.6,0.3,0.6,0.6c0,0.3-0.3,0.6-0.6,0.6s-0.6-0.3-0.6-0.6C2.1,11.8,2.4,11.5,2.7,11.5"/>
	<path class="st0" d="M2.7,8.8c0.3,0,0.6,0.3,0.6,0.6C3.3,9.7,3,10,2.7,10S2.1,9.7,2.1,9.4C2.1,9.1,2.4,8.8,2.7,8.8"/>
	<path class="st0" d="M2.7,6.1c0.3,0,0.6,0.3,0.6,0.6C3.3,7,3,7.3,2.7,7.3S2.1,7,2.1,6.7C2.1,6.4,2.4,6.1,2.7,6.1"/>
	<path class="st0" d="M4.8,14.2c0.3,0,0.6,0.3,0.6,0.6c0,0.3-0.3,0.6-0.6,0.6c-0.3,0-0.6-0.3-0.6-0.6C4.2,14.5,4.5,14.2,4.8,14.2"/>
	<path class="st0" d="M4.8,11.5c0.3,0,0.6,0.3,0.6,0.6c0,0.3-0.3,0.6-0.6,0.6c-0.3,0-0.6-0.3-0.6-0.6C4.2,11.8,4.5,11.5,4.8,11.5"/>
	<path class="st0" d="M4.8,8.8c0.3,0,0.6,0.3,0.6,0.6c0,0.3-0.3,0.6-0.6,0.6c-0.3,0-0.6-0.3-0.6-0.6C4.2,9.1,4.5,8.8,4.8,8.8"/>
	<path class="st0" d="M4.8,6.1c0.3,0,0.6,0.3,0.6,0.6c0,0.3-0.3,0.6-0.6,0.6C4.5,7.3,4.2,7,4.2,6.7C4.2,6.4,4.5,6.1,4.8,6.1"/>
	<path class="st0" d="M6.9,14.2c0.3,0,0.6,0.3,0.6,0.6c0,0.3-0.3,0.6-0.6,0.6c-0.3,0-0.6-0.3-0.6-0.6C6.3,14.5,6.5,14.2,6.9,14.2"/>
	<path class="st0" d="M9,14.2c0.3,0,0.6,0.3,0.6,0.6c0,0.3-0.3,0.6-0.6,0.6c-0.3,0-0.6-0.3-0.6-0.6C8.4,14.5,8.6,14.2,9,14.2"/>
	<path class="st0" d="M9,11.5c0.3,0,0.6,0.3,0.6,0.6c0,0.3-0.3,0.6-0.6,0.6c-0.3,0-0.6-0.3-0.6-0.6C8.4,11.8,8.6,11.5,9,11.5"/>
	<path class="st0" d="M9,8.8c0.3,0,0.6,0.3,0.6,0.6C9.6,9.7,9.3,10,9,10c-0.3,0-0.6-0.3-0.6-0.6C8.4,9.1,8.6,8.8,9,8.8"/>
	<path class="st0" d="M9,6.1c0.3,0,0.6,0.3,0.6,0.6C9.6,7,9.3,7.3,9,7.3C8.6,7.3,8.4,7,8.4,6.7C8.4,6.4,8.6,6.1,9,6.1"/>
	<path class="st0" d="M11.1,14.2c0.3,0,0.6,0.3,0.6,0.6c0,0.3-0.3,0.6-0.6,0.6c-0.3,0-0.6-0.3-0.6-0.6
		C10.5,14.5,10.7,14.2,11.1,14.2"/>
	<path class="st0" d="M11.1,11.5c0.3,0,0.6,0.3,0.6,0.6c0,0.3-0.3,0.6-0.6,0.6c-0.3,0-0.6-0.3-0.6-0.6
		C10.5,11.8,10.7,11.5,11.1,11.5"/>
	<path class="st0" d="M11.1,8.8c0.3,0,0.6,0.3,0.6,0.6c0,0.3-0.3,0.6-0.6,0.6c-0.3,0-0.6-0.3-0.6-0.6C10.5,9.1,10.7,8.8,11.1,8.8"/>
	<path class="st0" d="M11.1,6.1c0.3,0,0.6,0.3,0.6,0.6c0,0.3-0.3,0.6-0.6,0.6c-0.3,0-0.6-0.3-0.6-0.6C10.5,6.4,10.7,6.1,11.1,6.1"/>
	<path class="st0" d="M13.2,14.2c0.3,0,0.6,0.3,0.6,0.6c0,0.3-0.3,0.6-0.6,0.6c-0.3,0-0.6-0.3-0.6-0.6
		C12.6,14.5,12.8,14.2,13.2,14.2"/>
	<path class="st0" d="M13.2,11.5c0.3,0,0.6,0.3,0.6,0.6c0,0.3-0.3,0.6-0.6,0.6c-0.3,0-0.6-0.3-0.6-0.6
		C12.6,11.8,12.8,11.5,13.2,11.5"/>
	<path class="st0" d="M13.2,8.8c0.3,0,0.6,0.3,0.6,0.6c0,0.3-0.3,0.6-0.6,0.6c-0.3,0-0.6-0.3-0.6-0.6C12.6,9.1,12.8,8.8,13.2,8.8"/>
	<path class="st0" d="M13.2,6.1c0.3,0,0.6,0.3,0.6,0.6c0,0.3-0.3,0.6-0.6,0.6c-0.3,0-0.6-0.3-0.6-0.6C12.6,6.4,12.8,6.1,13.2,6.1"/>
	<path class="st0" d="M15.3,14.2c0.3,0,0.6,0.3,0.6,0.6c0,0.3-0.3,0.6-0.6,0.6c-0.3,0-0.6-0.3-0.6-0.6
		C14.7,14.5,14.9,14.2,15.3,14.2"/>
	<path class="st0" d="M15.3,11.5c0.3,0,0.6,0.3,0.6,0.6c0,0.3-0.3,0.6-0.6,0.6c-0.3,0-0.6-0.3-0.6-0.6
		C14.7,11.8,14.9,11.5,15.3,11.5"/>
	<path class="st0" d="M15.3,8.8c0.3,0,0.6,0.3,0.6,0.6c0,0.3-0.3,0.6-0.6,0.6c-0.3,0-0.6-0.3-0.6-0.6C14.7,9.1,14.9,8.8,15.3,8.8"/>
	<path class="st0" d="M6.9,11.5c0.3,0,0.6,0.3,0.6,0.6c0,0.3-0.3,0.6-0.6,0.6c-0.3,0-0.6-0.3-0.6-0.6C6.3,11.8,6.5,11.5,6.9,11.5"/>
	<path class="st0" d="M6.9,8.8c0.3,0,0.6,0.3,0.6,0.6c0,0.3-0.3,0.6-0.6,0.6c-0.3,0-0.6-0.3-0.6-0.6C6.3,9.1,6.5,8.8,6.9,8.8"/>
	<path class="st0" d="M6.9,6.1c0.3,0,0.6,0.3,0.6,0.6c0,0.3-0.3,0.6-0.6,0.6C6.5,7.3,6.3,7,6.3,6.7C6.3,6.4,6.5,6.1,6.9,6.1"/>
	<path class="st0" d="M0.6,16.9c0.3,0,0.6,0.3,0.6,0.6c0,0.3-0.3,0.6-0.6,0.6S0,17.8,0,17.5C0,17.2,0.3,16.9,0.6,16.9"/>
	<path class="st0" d="M0.6,19.6c0.3,0,0.6,0.3,0.6,0.6c0,0.3-0.3,0.6-0.6,0.6S0,20.5,0,20.2C0,19.9,0.3,19.6,0.6,19.6"/>
	<path class="st0" d="M0.6,22.3c0.3,0,0.6,0.3,0.6,0.6s-0.3,0.6-0.6,0.6S0,23.2,0,22.9S0.3,22.3,0.6,22.3"/>
	<path class="st0" d="M0.6,25c0.3,0,0.6,0.3,0.6,0.6c0,0.3-0.3,0.6-0.6,0.6S0,25.9,0,25.6C0,25.3,0.3,25,0.6,25"/>
	<path class="st0" d="M0.6,27.7c0.3,0,0.6,0.3,0.6,0.6c0,0.3-0.3,0.6-0.6,0.6S0,28.6,0,28.3C0,28,0.3,27.7,0.6,27.7"/>
	<path class="st0" d="M2.7,16.9c0.3,0,0.6,0.3,0.6,0.6c0,0.3-0.3,0.6-0.6,0.6s-0.6-0.3-0.6-0.6C2.1,17.2,2.4,16.9,2.7,16.9"/>
	<path class="st0" d="M2.7,19.6c0.3,0,0.6,0.3,0.6,0.6c0,0.3-0.3,0.6-0.6,0.6s-0.6-0.3-0.6-0.6C2.1,19.9,2.4,19.6,2.7,19.6"/>
	<path class="st0" d="M2.7,22.3c0.3,0,0.6,0.3,0.6,0.6S3,23.5,2.7,23.5s-0.6-0.3-0.6-0.6S2.4,22.3,2.7,22.3"/>
	<path class="st0" d="M2.7,25c0.3,0,0.6,0.3,0.6,0.6c0,0.3-0.3,0.6-0.6,0.6s-0.6-0.3-0.6-0.6C2.1,25.3,2.4,25,2.7,25"/>
	<path class="st0" d="M2.7,27.7c0.3,0,0.6,0.3,0.6,0.6c0,0.3-0.3,0.6-0.6,0.6s-0.6-0.3-0.6-0.6C2.1,28,2.4,27.7,2.7,27.7"/>
	<path class="st0" d="M4.8,16.9c0.3,0,0.6,0.3,0.6,0.6c0,0.3-0.3,0.6-0.6,0.6c-0.3,0-0.6-0.3-0.6-0.6C4.2,17.2,4.5,16.9,4.8,16.9"/>
	<path class="st0" d="M4.8,19.6c0.3,0,0.6,0.3,0.6,0.6c0,0.3-0.3,0.6-0.6,0.6c-0.3,0-0.6-0.3-0.6-0.6C4.2,19.9,4.5,19.6,4.8,19.6"/>
	<path class="st0" d="M4.8,22.3c0.3,0,0.6,0.3,0.6,0.6s-0.3,0.6-0.6,0.6c-0.3,0-0.6-0.3-0.6-0.6S4.5,22.3,4.8,22.3"/>
	<path class="st0" d="M4.8,25c0.3,0,0.6,0.3,0.6,0.6c0,0.3-0.3,0.6-0.6,0.6c-0.3,0-0.6-0.3-0.6-0.6C4.2,25.3,4.5,25,4.8,25"/>
	<path class="st0" d="M4.8,27.7c0.3,0,0.6,0.3,0.6,0.6c0,0.3-0.3,0.6-0.6,0.6c-0.3,0-0.6-0.3-0.6-0.6C4.2,28,4.5,27.7,4.8,27.7"/>
	<path class="st0" d="M6.9,16.9c0.3,0,0.6,0.3,0.6,0.6c0,0.3-0.3,0.6-0.6,0.6c-0.3,0-0.6-0.3-0.6-0.6C6.3,17.2,6.5,16.9,6.9,16.9"/>
	<path class="st0" d="M6.9,19.6c0.3,0,0.6,0.3,0.6,0.6c0,0.3-0.3,0.6-0.6,0.6c-0.3,0-0.6-0.3-0.6-0.6C6.3,19.9,6.5,19.6,6.9,19.6"/>
	<path class="st0" d="M9,19.6c0.3,0,0.6,0.3,0.6,0.6c0,0.3-0.3,0.6-0.6,0.6c-0.3,0-0.6-0.3-0.6-0.6C8.4,19.9,8.6,19.6,9,19.6"/>
	<path class="st0" d="M9,22.3c0.3,0,0.6,0.3,0.6,0.6S9.3,23.5,9,23.5c-0.3,0-0.6-0.3-0.6-0.6S8.6,22.3,9,22.3"/>
	<path class="st0" d="M9,25c0.3,0,0.6,0.3,0.6,0.6c0,0.3-0.3,0.6-0.6,0.6c-0.3,0-0.6-0.3-0.6-0.6C8.4,25.3,8.6,25,9,25"/>
	<path class="st0" d="M9,27.7c0.3,0,0.6,0.3,0.6,0.6c0,0.3-0.3,0.6-0.6,0.6c-0.3,0-0.6-0.3-0.6-0.6C8.4,28,8.6,27.7,9,27.7"/>
	<path class="st0" d="M11.1,19.6c0.3,0,0.6,0.3,0.6,0.6c0,0.3-0.3,0.6-0.6,0.6c-0.3,0-0.6-0.3-0.6-0.6
		C10.5,19.9,10.7,19.6,11.1,19.6"/>
	<path class="st0" d="M11.1,22.3c0.3,0,0.6,0.3,0.6,0.6s-0.3,0.6-0.6,0.6c-0.3,0-0.6-0.3-0.6-0.6S10.7,22.3,11.1,22.3"/>
	<path class="st0" d="M11.1,25c0.3,0,0.6,0.3,0.6,0.6c0,0.3-0.3,0.6-0.6,0.6c-0.3,0-0.6-0.3-0.6-0.6C10.5,25.3,10.7,25,11.1,25"/>
	<path class="st0" d="M11.1,27.7c0.3,0,0.6,0.3,0.6,0.6c0,0.3-0.3,0.6-0.6,0.6c-0.3,0-0.6-0.3-0.6-0.6C10.5,28,10.7,27.7,11.1,27.7"
		/>
	<path class="st0" d="M13.2,19.6c0.3,0,0.6,0.3,0.6,0.6c0,0.3-0.3,0.6-0.6,0.6c-0.3,0-0.6-0.3-0.6-0.6
		C12.6,19.9,12.8,19.6,13.2,19.6"/>
	<path class="st0" d="M13.2,22.3c0.3,0,0.6,0.3,0.6,0.6s-0.3,0.6-0.6,0.6c-0.3,0-0.6-0.3-0.6-0.6S12.8,22.3,13.2,22.3"/>
	<path class="st0" d="M13.2,25c0.3,0,0.6,0.3,0.6,0.6c0,0.3-0.3,0.6-0.6,0.6c-0.3,0-0.6-0.3-0.6-0.6C12.6,25.3,12.8,25,13.2,25"/>
	<path class="st0" d="M13.2,27.7c0.3,0,0.6,0.3,0.6,0.6c0,0.3-0.3,0.6-0.6,0.6c-0.3,0-0.6-0.3-0.6-0.6C12.6,28,12.8,27.7,13.2,27.7"
		/>
	<path class="st0" d="M15.3,19.6c0.3,0,0.6,0.3,0.6,0.6c0,0.3-0.3,0.6-0.6,0.6c-0.3,0-0.6-0.3-0.6-0.6
		C14.7,19.9,14.9,19.6,15.3,19.6"/>
	<path class="st0" d="M15.3,22.3c0.3,0,0.6,0.3,0.6,0.6s-0.3,0.6-0.6,0.6c-0.3,0-0.6-0.3-0.6-0.6S14.9,22.3,15.3,22.3"/>
	<path class="st0" d="M9,16.9c0.3,0,0.6,0.3,0.6,0.6c0,0.3-0.3,0.6-0.6,0.6c-0.3,0-0.6-0.3-0.6-0.6C8.4,17.2,8.6,16.9,9,16.9"/>
	<path class="st0" d="M11.1,16.9c0.3,0,0.6,0.3,0.6,0.6c0,0.3-0.3,0.6-0.6,0.6c-0.3,0-0.6-0.3-0.6-0.6
		C10.5,17.2,10.7,16.9,11.1,16.9"/>
	<path class="st0" d="M13.2,16.9c0.3,0,0.6,0.3,0.6,0.6c0,0.3-0.3,0.6-0.6,0.6c-0.3,0-0.6-0.3-0.6-0.6
		C12.6,17.2,12.8,16.9,13.2,16.9"/>
	<path class="st0" d="M15.3,25c0.3,0,0.6,0.3,0.6,0.6c0,0.3-0.3,0.6-0.6,0.6c-0.3,0-0.6-0.3-0.6-0.6C14.7,25.3,14.9,25,15.3,25"/>
	<path class="st0" d="M6.9,22.3c0.3,0,0.6,0.3,0.6,0.6s-0.3,0.6-0.6,0.6c-0.3,0-0.6-0.3-0.6-0.6S6.5,22.3,6.9,22.3"/>
	<path class="st0" d="M6.9,25c0.3,0,0.6,0.3,0.6,0.6c0,0.3-0.3,0.6-0.6,0.6c-0.3,0-0.6-0.3-0.6-0.6C6.3,25.3,6.5,25,6.9,25"/>
	<path class="st0" d="M6.9,27.7c0.3,0,0.6,0.3,0.6,0.6c0,0.3-0.3,0.6-0.6,0.6c-0.3,0-0.6-0.3-0.6-0.6C6.3,28,6.5,27.7,6.9,27.7"/>
</g>
</svg>
