<?xml version="1.0" encoding="utf-8"?>
<!-- Generator: Adobe Illustrator 26.0.1, SVG Export Plug-In . SVG Version: 6.00 Build 0)  -->
<svg version="1.1" id="Layer_1" xmlns="http://www.w3.org/2000/svg" xmlns:xlink="http://www.w3.org/1999/xlink" x="0px" y="0px"
	 viewBox="0 0 95 35" style="enable-background:new 0 0 95 35;" xml:space="preserve">
<style type="text/css">
	.st0{fill:#CCCCCC;}
</style>
<g>
	<path id="Fill-1" class="st0" d="M82.76,13.96c-0.52-0.19-0.78-0.76-0.59-1.28c0.19-0.52,0.76-0.78,1.28-0.59
		c-1.08-0.39-2.27,0.16-2.66,1.24c-0.39,1.08,0.16,2.27,1.24,2.66l10.22,3.72l-8.79,3.2c-1.08,0.39-2.27-0.16-2.66-1.24
		c-0.39-1.08,0.16-2.27,1.24-2.66c-1.64,0.6-2.49,2.41-1.89,4.05c0.6,1.64,2.41,2.49,4.05,1.89l9.59-3.49
		c0.96-0.35,1.46-1.42,1.11-2.38c-0.2-0.54-0.61-0.93-1.11-1.11L82.76,13.96"/>
	<path id="Fill-2" class="st0" d="M92.24,15.29l-8.79-3.2c-1.08-0.39-2.27,0.16-2.66,1.24c-0.39,1.08,0.16,2.27,1.24,2.66
		c-1.64-0.6-2.49-2.41-1.89-4.05c0.6-1.64,2.41-2.49,4.05-1.89l9.59,3.49c0.96,0.35,1.46,1.42,1.11,2.38
		c-0.2,0.54-0.61,0.93-1.11,1.11l-11.02,4.01c-0.52,0.19-0.78,0.76-0.59,1.28c0.19,0.52,0.76,0.78,1.28,0.59
		c-1.08,0.39-2.27-0.16-2.66-1.24c-0.39-1.08,0.16-2.27,1.24-2.66L92.24,15.29"/>
	<path id="Fill-3" class="st0" d="M94.89,24.12h-0.15l-0.22,0.66c-0.02,0.05-0.04,0.13-0.06,0.19h-0.01
		c-0.01-0.06-0.04-0.13-0.06-0.19l-0.22-0.66h-0.15l-0.12,1.02h0.12l0.06-0.61c0.01-0.08,0.02-0.17,0.02-0.25h0.01
		c0.02,0.08,0.06,0.18,0.08,0.26l0.2,0.61h0.11l0.2-0.59c0.03-0.08,0.06-0.19,0.09-0.27h0c0.01,0.07,0.02,0.19,0.02,0.27l0.06,0.59
		H95L94.89,24.12z M93.33,24.24h-0.27v-0.11h0.66v0.11h-0.27v0.91h-0.12V24.24z M3.22,17.31H1.74v2.54h1.55
		c0.9,0,1.39-0.48,1.39-1.29C4.69,17.82,4.16,17.31,3.22,17.31z M2.95,13.83H1.74v2.13h1.27c0.86,0,1.25-0.43,1.25-1.11
		C4.26,14.19,3.77,13.83,2.95,13.83z M0,12.45h3.04c1.82,0,3.04,0.73,3.04,2.22c0,0.98-0.71,1.64-1.57,1.84v0.03
		c1.34,0.18,2.04,1.13,2.04,2.18c0,1.62-1.32,2.53-3.07,2.53H0V12.45z M22.52,17.39h2.89c-0.08-0.72-0.63-1.32-1.44-1.32
		C23.12,16.07,22.59,16.7,22.52,17.39z M27.13,18.11c0,0.14,0,0.3-0.03,0.46h-4.59c0,0.85,0.72,1.59,1.6,1.59
		c0.57,0,0.97-0.25,1.24-0.64l1.44,0.52c-0.48,0.81-1.34,1.42-2.69,1.42c-1.84,0-3.29-1.34-3.29-3.35c0-1.77,1.16-3.25,3.17-3.25
		C26.02,14.86,27.13,16.38,27.13,18.11z M74.5,16.73c-0.04-0.44-0.32-0.7-0.71-0.7c-0.41,0-0.63,0.27-0.63,0.54
		c0,0.35,0.19,0.57,1.24,0.93c1.3,0.43,1.78,1.08,1.78,1.97c0,1.13-0.86,1.99-2.39,1.99c-1.57,0-2.32-0.83-2.39-2.02h1.56
		c0.04,0.49,0.3,0.84,0.86,0.84c0.44,0,0.71-0.3,0.71-0.66c0-0.43-0.3-0.68-1.23-0.99c-1.16-0.37-1.77-0.95-1.77-1.92
		c0-1.11,0.9-1.84,2.23-1.84c1.37,0,2.13,0.79,2.26,1.87H74.5z M66.3,17.39h2.89c-0.08-0.72-0.63-1.32-1.44-1.32
		C66.89,16.07,66.37,16.7,66.3,17.39z M70.9,18.11c0,0.14,0,0.3-0.03,0.46h-4.59c0,0.85,0.72,1.59,1.6,1.59
		c0.57,0,0.97-0.25,1.24-0.64l1.44,0.52c-0.48,0.81-1.34,1.42-2.69,1.42c-1.84,0-3.29-1.34-3.29-3.35c0-1.77,1.16-3.25,3.17-3.25
		C69.8,14.86,70.9,16.38,70.9,18.11z M57.83,11.96h1.74v3.88h0.05c0.43-0.68,1.12-0.97,1.82-0.97c1.38,0,2.35,0.92,2.35,2.82v3.55
		h-1.74V17.8c0-0.92-0.44-1.39-1.16-1.39c-0.76,0-1.32,0.53-1.32,1.57v3.26h-1.74V11.96z M53.4,19.86c0.86,0,1.57-0.71,1.57-1.73
		c0-1.06-0.68-1.75-1.56-1.75c-1.04,0-1.59,0.88-1.59,1.74C51.83,18.97,52.32,19.86,53.4,19.86z M56.61,21.05
		c0,2.3-1.03,3.51-3.31,3.51c-1.5,0-2.56-0.71-2.97-1.89l1.6-0.58c0.13,0.59,0.57,1.06,1.47,1.06c1.04,0,1.59-0.66,1.59-1.86v-0.79
		h-0.04c-0.41,0.49-1.02,0.89-1.97,0.89c-1.6,0-2.91-1.25-2.91-3.25c0-1.86,1.28-3.26,2.99-3.26c0.98,0,1.56,0.5,1.87,0.94h0.06
		v-0.75h1.62V21.05z M49.16,21.24h-1.73v-0.77h-0.04c-0.5,0.74-1.13,0.98-1.81,0.98c-1.01,0-2.24-0.62-2.24-2.72v-3.66h1.74v3.44
		c0,0.9,0.43,1.39,1.1,1.39c0.76,0,1.24-0.53,1.24-1.56v-3.28h1.74V21.24z M40.38,17.5h-3.38v3.74h-1.84v-8.79h1.84v3.46h3.38v-3.46
		h1.84v8.79h-1.84V17.5z M32.17,16.56c-0.22-0.04-0.48-0.08-0.83-0.08c-1.03,0-1.55,0.64-1.55,1.75v3h-1.74v-6.18h1.7v0.95h0.04
		c0.34-0.61,0.98-1.13,1.81-1.13c0.24,0,0.4,0.01,0.57,0.05V16.56z M17.2,18.7l-0.4,0.39v2.15h-1.74v-9.28h1.74v5.2l1.96-2.09h2.11
		L18.4,17.6l2.85,3.64h-2.1L17.2,18.7z M10.59,19.94c0.83,0,1.55-0.72,1.55-1.77c0-1.08-0.67-1.79-1.53-1.79
		c-1.08,0-1.6,0.89-1.6,1.78C9,19.06,9.51,19.94,10.59,19.94z M13.79,21.24h-1.68v-0.77h-0.05c-0.4,0.53-1.01,0.98-2.01,0.98
		c-1.2,0-2.81-0.97-2.81-3.3c0-1.99,1.37-3.25,2.94-3.25c0.97,0,1.55,0.48,1.88,0.97h0.05v-0.8h1.68V21.24L13.79,21.24z"/>
</g>
</svg>
