<?xml version="1.0" encoding="utf-8"?>
<!-- Generator: Adobe Illustrator 26.0.1, SVG Export Plug-In . SVG Version: 6.00 Build 0)  -->
<svg version="1.1" id="Layer_1" xmlns="http://www.w3.org/2000/svg" xmlns:xlink="http://www.w3.org/1999/xlink" x="0px" y="0px"
	 viewBox="0 0 95 35" style="enable-background:new 0 0 95 35;" xml:space="preserve">
<style type="text/css">
	.st0{fill:#343741;}
</style>
<g>
	<polygon class="st0" points="14.17,13.12 14.17,22.63 19.53,22.63 18.8,24.5 11.84,24.5 11.84,13.12 	"/>
	<path class="st0" d="M58.96,18.27c1.5-0.58,3.23-1.82,3.23-3.99c0-2.62-2.28-3.96-5.54-3.96h-4.23V24.5h2.49v-5.84h1.48l3.91,5.84
		h2.86L58.96,18.27z M56.18,16.86h-1.27v-4.85l1.54,0.01c2.09,0,3.17,0.65,3.17,2.38C59.62,16.29,58.28,16.86,56.18,16.86z"/>
	<path class="st0" d="M23.93,13.12L24.34,14L19.92,24.5h2.17l0.93-2.31h5l1,2.31h2.56l-5.01-11.38H23.93z M23.75,20.44l1.71-4.2
		l1.78,4.2L23.75,20.44z"/>
	<path class="st0" d="M7.48,16.9c1.25-0.39,2.44-1.34,2.44-3.11c0-3.46-4.13-3.46-5.48-3.46H0V24.5h4.27c2.43,0,6.46-0.63,6.46-4.09
		C10.73,18.47,9.6,17.25,7.48,16.9 M4.12,12.02c1.86,0,3.17,0.22,3.17,1.93c0,2.26-2.31,2.14-3.47,2.14H2.56v-4.07L4.12,12.02z
		 M4.17,22.63l-1.62,0v-4.69h1.47c2.24,0,4.07,0.33,4.07,2.36C8.1,22.24,6.62,22.63,4.17,22.63z"/>
	<path class="st0" d="M41.7,13.1h2.33v5.48v5.92H41.7V13.1z M48.97,13.11l-4.8,5.46l4.81,5.93h2.74l-4.9-6.09l4.52-5.3H48.97z"/>
	<path class="st0" d="M31.1,18.44c0,3.73,2.27,6.24,5.41,6.24c1.66,0,2.76-0.38,3.83-1.13l-0.55-1.14
		c-0.93,0.48-1.73,0.68-2.69,0.68c-2.02,0-3.48-1.5-3.48-4.59c0-2.48,0.92-3.97,2.71-3.97c0.93,0,1.72,0.37,2.05,1.33l2.03-0.57
		c-0.21-0.77-1.24-2.34-4.22-2.34C33.46,12.94,31.1,14.79,31.1,18.44"/>
	<path class="st0" d="M84.99,13.1h2.33v5.48v5.92h-2.33V13.1z M92.25,13.11l-4.8,5.46l4.81,5.93H95l-4.9-6.09l4.51-5.3H92.25z"/>
	<path class="st0" d="M74.31,18.44c0,3.73,2.27,6.24,5.41,6.24c1.66,0,2.76-0.38,3.83-1.13L83,22.4c-0.93,0.48-1.73,0.68-2.69,0.68
		c-2.02,0-3.48-1.5-3.48-4.59c0-2.48,0.92-3.97,2.71-3.97c0.93,0,1.71,0.37,2.05,1.33l2.03-0.57c-0.21-0.77-1.24-2.34-4.22-2.34
		C76.67,12.94,74.31,14.79,74.31,18.44"/>
	<path class="st0" d="M68.05,12.94c-3.1,0-5.33,1.87-5.33,5.88c0,4,2.14,5.86,5.33,5.86c3.19,0,5.33-1.86,5.33-5.86
		C73.38,14.81,71.14,12.94,68.05,12.94z M68.05,23.08c-2.38,0-2.91-1.93-2.91-4.26s0.54-4.36,2.91-4.36c2.37,0,2.91,2.03,2.91,4.36
		S70.43,23.08,68.05,23.08z"/>
</g>
</svg>
