<?xml version="1.0" encoding="utf-8"?>
<!-- Generator: Adobe Illustrator 26.0.1, SVG Export Plug-In . SVG Version: 6.00 Build 0)  -->
<svg version="1.1" id="Layer_1" xmlns="http://www.w3.org/2000/svg" xmlns:xlink="http://www.w3.org/1999/xlink" x="0px" y="0px"
	 viewBox="0 0 95 35" style="enable-background:new 0 0 95 35;" xml:space="preserve">
<style type="text/css">
	.st0{fill:#FFFFFF;}
</style>
<g>
	<path class="st0" d="M7.49,19.29L7.49,19.29c0,0.32,0.25,0.59,0.59,0.59c0.32,0,0.57-0.27,0.57-0.59v-3.93
		c0-0.32-0.25-0.59-0.57-0.59c-0.33,0-0.59,0.27-0.59,0.59V19.29z M5.62,18.51L5.62,18.51c0,0.33,0.25,0.59,0.59,0.59
		c0.33,0,0.62-0.25,0.62-0.59V12.7c0-0.33-0.27-0.62-0.62-0.62c-0.33,0-0.59,0.27-0.59,0.62V18.51z M3.74,18.05L3.74,18.05
		c0,0.33,0.29,0.62,0.62,0.62c0.32,0,0.6-0.27,0.6-0.62v-6.48c0-0.32-0.29-0.59-0.6-0.59c-0.33,0-0.62,0.27-0.62,0.59V18.05z
		 M1.87,18.2L1.87,18.2c0,0.33,0.27,0.62,0.62,0.62c0.33,0,0.6-0.27,0.6-0.62v-4.8c0-0.33-0.25-0.62-0.6-0.62
		c-0.33,0-0.62,0.27-0.62,0.62V18.2z M3.61,23.67L3.61,23.67c-0.08,0.22-0.3,0.33-0.52,0.33c-0.09,0-0.17-0.02-0.25-0.06
		C0.98,23.06,0,21.47,0,19.38v-2.34c0-0.33,0.25-0.59,0.6-0.59c0.32,0,0.57,0.25,0.57,0.59v2.34c0,1.65,0.73,2.8,2.17,3.52
		C3.63,23.04,3.77,23.39,3.61,23.67"/>
	<path class="st0" d="M82.51,15.3L82.51,15.3c0,0.43-0.19,0.63-0.54,0.63c-0.33,0-0.54-0.19-0.54-0.63c0-0.41,0.21-0.63,0.54-0.63
		C82.32,14.67,82.51,14.89,82.51,15.3 M91.96,19.65L91.96,19.65c0,1.33-0.47,1.76-1.24,1.76c-0.76,0-1.2-0.43-1.2-1.76v-0.7
		c0-1.3,0.46-1.74,1.2-1.74c0.74,0,1.24,0.43,1.24,1.74V19.65z M90.82,16.44L90.82,16.44c-0.57,0-1.03,0.27-1.27,0.78h-0.03v-0.67
		v-1.77h-0.87v7.33h0.87v-0.67h0.03c0.24,0.48,0.7,0.78,1.27,0.78c1.39,0,2.03-0.95,2.03-2.47v-0.81
		C92.85,17.39,92.21,16.44,90.82,16.44 M86.89,19.65L86.89,19.65c0,1.33-0.46,1.76-1.2,1.76c-0.76,0-1.2-0.43-1.2-1.76v-0.7
		c0-1.3,0.46-1.74,1.2-1.74c0.76,0,1.2,0.43,1.2,1.74V19.65z M85.78,16.44L85.78,16.44c-0.57,0-1.03,0.27-1.27,0.78h-0.03v-0.67
		v-1.77h-0.87v7.33h0.87v-0.67h0.03c0.24,0.48,0.7,0.78,1.27,0.78c1.39,0,2-0.95,2-2.47v-0.81C87.78,17.39,87.16,16.44,85.78,16.44
		 M81.54,16.53L81.54,16.53h0.87v5.56h-0.87V16.53z M79.53,16.53L79.53,16.53h0.89v5.56h-0.89v-0.71h-0.05
		c-0.19,0.43-0.65,0.81-1.36,0.81c-1.03,0-1.66-0.59-1.66-1.9v-3.75h0.89v3.64c0,0.89,0.36,1.27,1.03,1.27
		c0.63,0,1.16-0.41,1.16-1.5V16.53z M73.4,21.43L73.4,21.43c-0.76,0-1.2-0.43-1.2-1.76v-0.71c0-1.3,0.46-1.74,1.2-1.74
		c0.76,0,1.2,0.43,1.2,1.74v0.71C74.62,20.98,74.16,21.43,73.4,21.43 M74.62,17.22L74.62,17.22h-0.05c-0.24-0.49-0.7-0.78-1.27-0.78
		c-1.39,0-2,0.95-2,2.47v0.81c0,1.52,0.62,2.47,2,2.47c0.57,0,1.03-0.3,1.27-0.78h0.05v0.67v1.79h0.87v-7.33h-0.87V17.22z
		 M70.63,20.16L70.63,20.16c0,1.3-0.89,2.04-2.28,2.04c-1.3,0-2.38-0.63-2.52-2.04h0.97c0.13,0.82,0.71,1.22,1.52,1.22
		c0.93,0,1.35-0.55,1.35-1.19c0-2.07-3.72-0.87-3.72-3.59c0-1.17,0.93-1.93,2.23-1.93c1.25,0,2.3,0.62,2.36,2.06h-0.97
		c-0.08-0.89-0.65-1.25-1.41-1.25c-0.89,0-1.27,0.54-1.27,1.09C66.91,18.4,70.63,17.31,70.63,20.16 M63.65,20.56L63.65,20.56
		c0,1.06-0.79,1.65-1.96,1.65s-1.93-0.49-2.01-1.65h0.89c0.02,0.7,0.54,0.9,1.12,0.9c0.6,0,1.08-0.25,1.08-0.82
		c0-1.36-3.01-0.43-3.01-2.61c0-0.9,0.65-1.58,1.88-1.58c1.12,0,1.85,0.55,1.96,1.62h-0.89c-0.05-0.63-0.49-0.89-1.08-0.89
		c-0.63,0-1.03,0.3-1.03,0.85C60.61,19.32,63.65,18.51,63.65,20.56 M58.95,16.53L58.95,16.53h0.28v0.87h-0.24
		c-0.87,0-1.44,0.43-1.44,1.6v3.09h-0.87v-5.56h0.87v1.01h0.05C57.73,17.04,58.16,16.53,58.95,16.53 M53.67,17.22L53.67,17.22
		c0.71,0,1.11,0.41,1.11,1.69h-2.31C52.47,17.63,52.95,17.22,53.67,17.22 M53.67,16.44L53.67,16.44c-1.36,0-2.11,0.98-2.11,2.47
		v0.81c0,1.52,0.73,2.47,2.11,2.47c1.11,0,1.74-0.62,1.98-1.65h-0.9c-0.16,0.63-0.52,0.87-1.08,0.87c-0.76,0-1.2-0.43-1.2-1.76
		v-0.06h3.21v-0.7C55.67,17.42,55.04,16.44,53.67,16.44 M50.43,16.53L50.43,16.53h0.89l-2.47,7.33h-0.92l0.63-1.74l-1.81-5.59h0.93
		l1.33,4.32h0.05L50.43,16.53z M44.65,14.76L44.65,14.76h1.5v7.33h-0.93v-6.3h-0.05l-1.88,5.08h-1.12l-1.87-5.08h-0.06v6.3h-0.9
		v-7.33h1.57l1.84,5.1h0.06L44.65,14.76z M35.29,14.76L35.29,14.76h0.89v7.33h-0.89V14.76z M33.47,19.65L33.47,19.65
		c0,1.33-0.46,1.76-1.2,1.76s-1.2-0.43-1.2-1.76v-0.7c0-1.3,0.46-1.74,1.2-1.74s1.2,0.43,1.2,1.74V19.65z M32.27,16.44L32.27,16.44
		c-1.36,0-2.11,0.95-2.11,2.47v0.81c0,1.52,0.73,2.47,2.11,2.47c1.36,0,2.11-0.95,2.11-2.47v-0.81
		C34.36,17.39,33.63,16.44,32.27,16.44 M28.47,16.53L28.47,16.53h1.2v0.78h-1.2v3.06c0,0.81,0.22,0.98,0.74,0.98
		c0.14,0,0.32-0.02,0.46-0.03v0.74c-0.17,0.03-0.4,0.06-0.55,0.06c-1.09,0-1.52-0.43-1.52-1.62v-3.2h-0.93v-0.78h0.93v-1.77h0.87
		V16.53z M26.44,20.56L26.44,20.56c0,1.06-0.79,1.65-1.96,1.65c-1.17,0-1.95-0.49-2.03-1.65h0.89c0.02,0.7,0.54,0.9,1.12,0.9
		c0.59,0,1.06-0.25,1.06-0.82c0-1.36-3.01-0.43-3.01-2.61c0-0.9,0.65-1.58,1.88-1.58c1.12,0,1.88,0.55,1.96,1.62h-0.89
		c-0.03-0.63-0.49-0.89-1.06-0.89c-0.63,0-1.03,0.3-1.03,0.85C23.4,19.32,26.44,18.51,26.44,20.56 M21.66,15.3L21.66,15.3
		c0,0.43-0.19,0.63-0.54,0.63s-0.54-0.19-0.54-0.63c0-0.41,0.19-0.63,0.54-0.63S21.66,14.89,21.66,15.3 M20.68,16.53L20.68,16.53
		h0.87v5.56h-0.87V16.53z M19.63,16.53L19.63,16.53h0.25v0.87h-0.21c-0.87,0-1.44,0.43-1.44,1.6v3.09h-0.89v-5.56h0.89v1.01h0.03
		C18.43,17.04,18.84,16.53,19.63,16.53 M15.58,20.02L15.58,20.02c0,0.9-0.71,1.25-1.74,1.25h-1.2v-2.63h1.2
		c1.03,0,1.74,0.33,1.74,1.28C15.58,19.92,15.58,20.02,15.58,20.02z M12.64,15.58L12.64,15.58h1.09c1.01,0,1.54,0.4,1.54,1.09v0.08
		c0,0.82-0.73,1.11-1.68,1.11h-0.95V15.58z M14.93,18.18L14.93,18.18v-0.03c0.78-0.25,1.25-0.73,1.25-1.54V16.5
		c0-0.95-0.78-1.73-2.33-1.73H11.7v7.33h2.31c1.52,0,2.55-0.78,2.55-1.98v-0.08C16.55,19.08,15.99,18.4,14.93,18.18 M93.04,16.25
		L93.04,16.25v-1.3h0.4v-0.17h-0.97v0.17h0.38v1.3H93.04z M95,16.25L95,16.25v-1.49h-0.32l-0.36,1.14H94.3l-0.36-1.14h-0.32v1.49
		h0.19v-1.27l0.41,1.27h0.17l0.4-1.27h0.02v1.27H95z"/>
</g>
</svg>
