<?xml version="1.0" encoding="utf-8"?>
<!-- Generator: Adobe Illustrator 26.0.1, SVG Export Plug-In . SVG Version: 6.00 Build 0)  -->
<svg version="1.1" id="Layer_1" xmlns="http://www.w3.org/2000/svg" xmlns:xlink="http://www.w3.org/1999/xlink" x="0px" y="0px"
	 viewBox="0 0 95 35" style="enable-background:new 0 0 95 35;" xml:space="preserve">
<style type="text/css">
	.st0{fill:#CCCCCC;}
</style>
<g id="layer1" transform="translate(-21.204457,-449.52686)">
	<g id="g3363" transform="matrix(5.2626217,0,0,5.2626217,-1334.0806,-2076.457)">
		<path id="path3265" class="st0" d="M270.1,486.1h-0.4v0.1h1.2v-0.1h-0.3V484l0,0l-0.1,0l-0.1,0l-0.1,0h-0.5v0.1h0.3V486.1"/>
		<path id="path3267" class="st0" d="M262.5,486.1h-0.4v0.1h1.2v-0.1H263V484l0,0l-0.1,0l-0.1,0l-0.1,0h-0.5v0.1h0.4V486.1"/>
		<path id="path3269" class="st0" d="M271.5,486.1h-0.4v0.1h1.2v-0.1H272v-1.9h0.9v1.9h-0.3v0.1h1.2v-0.1h-0.4V484l0,0l-0.1,0
			l-0.1,0l-0.1,0h-1c0.1-0.4-0.1-1,0.2-1.4l0.1-0.1l0.1,0l0.1,0l0.1,0l0.1,0l0.1,0h0.1l0.1,0l0.1,0l0.1,0l0.1,0l0,0l0,0l0,0l0,0l0,0
			l-0.1,0l-0.1,0c-0.1,0.1-0.1,0.3,0.1,0.4c0.1,0.1,0.3,0,0.4-0.2c0.1-0.3-0.2-0.6-0.5-0.6c-1-0.1-1.4,0.8-1.3,1.6h-0.4v0.1h0.4
			V486.1"/>
		<path id="path3271" class="st0" d="M258.8,484.7c1,0.1,1,1.3,0,1.5c-0.7,0-1.1-0.6-1.1-1.2h-0.1v1.3h0.1l0-0.1l0-0.1l0,0l0.1,0
			c0.2,0,0.4,0.1,0.6,0.2c0.4,0.1,0.8,0,1.1-0.2c0.5-0.4,0.5-1.3,0-1.7c-0.6-0.5-2.1-0.3-1.6-1.4c0.6-0.7,1.5,0,1.6,0.8h0.1v-1.1
			h-0.1c-0.1,0.5-1-0.7-1.8,0.3c-0.2,0.3-0.2,0.6-0.1,1C257.8,484.5,258.2,484.6,258.8,484.7"/>
		<path id="path3273" class="st0" d="M268.5,485.9l0,0.1l0,0.1l0.1,0.1l0.1,0.1l0.1,0.1l0.1,0l0.1,0c0.3,0.1,0.6-0.1,0.7-0.3
			l-0.1-0.1l-0.1,0.1l-0.1,0.1l0,0l-0.1,0l-0.1,0h-0.1l0,0l-0.1,0l0,0l0,0l0-0.1l0-0.1l0-0.1v-1.6h0.6v-0.1H269v-0.6h-0.1
			c-0.1,0.5-0.3,0.7-0.8,0.6v0.1h0.4V485.9"/>
		<path id="path3275" class="st0" d="M267,486.1h0.3v-1.6l0-0.1l0-0.1l0,0l-0.1,0l-0.1,0l-0.1,0c-0.3,0-0.6,0.2-0.7,0.5v1.5h0.4v0.1
			h-1.2v-0.1h0.4v-1.9h-0.4v-0.1h0.6l0.1,0l0.1,0l0.1,0l0.1-0.1v0.4c0.2-0.3,0.5-0.5,0.9-0.4l0.1,0l0.1,0.1l0.1,0.1l0.1,0.1l0.1,0.1
			l0,0.1l0,0.1v1.4h0.4v0.1H267V486.1"/>
		<path id="path3277" class="st0" d="M261.8,485.6c-0.1,0.5-0.7,0.8-1.1,0.4l-0.1-0.1l-0.1-0.1l0-0.1v-0.8l0-0.1
			c0-0.2,0.2-0.4,0.4-0.5c0.1-0.1,0.3,0,0.5,0.1l0,0l0,0v0.1l0,0l-0.1,0l0,0.1c-0.1,0.2,0.2,0.4,0.4,0.2c0.5-0.8-1.6-1.2-1.7,0.3
			c-0.2,1.4,1.6,1.8,1.8,0.5H261.8"/>
		<path id="path3279" class="st0" d="M275.4,485.6c-0.1,0.5-0.7,0.8-1,0.4l-0.1-0.1l0-0.1l0-0.2l0-0.2V485l0-0.2l0-0.1
			c0-0.2,0.2-0.4,0.4-0.5c0.2,0,0.2,0,0.5,0.1l0,0l0,0v0.1l0,0l-0.1,0l0,0.1c-0.1,0.1,0,0.2,0.1,0.3l0,0l0.1,0h0.1l0.1,0l0,0l0,0
			c0.3-0.5-0.4-0.8-0.8-0.7c-0.5,0-0.9,0.5-0.9,1c-0.2,1.3,1.5,1.8,1.8,0.5H275.4"/>
		<path id="path3281" class="st0" d="M265.2,485.6c0,0.3-0.3,0.7-0.6,0.6c-0.6,0-0.6-0.8-0.5-1.2h1.3c0.1-0.4-0.3-0.8-0.7-0.9
			c-0.5-0.1-1,0.2-1.1,0.7c-0.2,0.5-0.1,1.1,0.3,1.4c0.6,0.4,1.3,0.1,1.4-0.6H265.2L265.2,485.6z M264.9,484.9L264.9,484.9
			L264.9,484.9l-0.8,0C263.9,484,265,484,264.9,484.9"/>
		<path id="path3283" class="st0" d="M260.7,480.4c1.2-0.1,1.1,1.4,0,1.3V480.4z M260.2,483.2h-0.3v0.1c0.7,0,2.2,0.3,2.3-0.8
			c0-0.6-0.3-0.8-0.9-0.9v0c0.5,0,0.8-0.4,0.7-0.9l0-0.1l0-0.1l0-0.1l0-0.1l-0.1-0.1l-0.1-0.1l-0.1,0l-0.1,0l-0.1,0l-0.2,0l-0.2,0
			h-1.2v0.1h0.3V483.2L260.2,483.2z M260.7,481.7c1.3-0.2,1.3,1.7,0,1.5V481.7"/>
		<path id="path3285" class="st0" d="M262.4,482.4c0,1.3,1.8,1.3,1.9,0C264.2,481.1,262.4,481.1,262.4,482.4z M263.8,482.5
			c0,0.4,0,0.8-0.5,0.7c-0.5-0.1-0.4-0.8-0.4-1.1c0-0.4,0.1-0.6,0.5-0.6l0.1,0l0.1,0l0.1,0l0.1,0l0,0.1l0,0
			C263.9,482,263.8,482.2,263.8,482.5"/>
		<path id="path3287" class="st0" d="M267.2,482.4c0,1.3,1.8,1.3,1.9,0C269,481.1,267.2,481.1,267.2,482.4z M268.6,482.5
			c0,0.4-0.1,0.8-0.5,0.7c-0.5-0.1-0.4-0.8-0.4-1.1c0-0.4,0.1-0.7,0.5-0.6l0.1,0l0.1,0l0.1,0l0.1,0l0,0.1l0,0
			C268.6,482,268.6,482.2,268.6,482.5"/>
		<path id="path3289" class="st0" d="M270.4,483.2h0.3v-1.4l0-0.1l0-0.1c-0.1-0.1-0.1-0.1-0.2-0.1l-0.1,0l-0.1,0l-0.1,0l-0.1,0.1
			l-0.1,0.1l-0.1,0.1l-0.1,0.1l0,0.1v1.2h0.3v0.1h-1.1v-0.1h0.4v-1.6h-0.4v-0.1h0.5l0.1,0l0.1,0l0.1,0l0,0l0,0v0.4h0l0.1-0.1
			l0.1-0.1l0.1-0.1c0.2-0.1,0.3-0.1,0.5-0.2l0.2,0l0.1,0l0.1,0.1l0.1,0.1l0.1,0.1l0,0.1l0,0.1v1.4h0.3v0.1h-1V483.2"/>
		<path id="path3291" class="st0" d="M265.2,482.6c0.4,0,0.5,0.5,0.2,0.7c-0.4,0.1-0.7-0.1-0.8-0.5h-0.1l0,0.7h0.1l0-0.1l0,0h0.1
			l0,0l0.1,0.1l0.1,0c0.2,0.1,0.5,0,0.7-0.2c0.3-0.4,0.2-1-0.3-1c-1.4-0.1,0-1.3,0.3-0.2h0.1l0-0.5h-0.1l0,0l0,0l0,0
			c-0.1,0-0.3-0.1-0.4-0.1c-0.3,0-0.4,0-0.6,0.2C264.3,482.1,264.6,482.6,265.2,482.6"/>
		<path id="path3293" class="st0" d="M267.1,483c-0.1,0.1-0.2,0.2-0.4,0.2l0,0l0,0l0,0l0,0l0-0.1v-1.5h0.5v-0.1h-0.5v-0.6h-0.1
			c0,0.3-0.3,0.7-0.7,0.6v0.1h0.3v1.4l0,0.1l0,0.1l0.1,0.1l0.1,0.1l0.1,0l0.1,0c0.2,0,0.5,0,0.6-0.3L267.1,483"/>
	</g>
</g>
</svg>
