<?xml version="1.0" encoding="utf-8"?>
<!-- Generator: Adobe Illustrator 26.0.1, SVG Export Plug-In . SVG Version: 6.00 Build 0)  -->
<svg version="1.1" id="Layer_1" xmlns="http://www.w3.org/2000/svg" xmlns:xlink="http://www.w3.org/1999/xlink" x="0px" y="0px"
	 viewBox="0 0 95 35" style="enable-background:new 0 0 95 35;" xml:space="preserve">
<style type="text/css">
	.st0{fill:#FFFFFF;}
</style>
<g id="g3185" transform="matrix(8.6571365,0,0,-8.6571365,-344.44623,6870.8815)">
	<g id="g3191" transform="translate(42.6884,743.9502)">
		<path id="path3193" class="st0" d="M-2.2,48.4L-2.2,48.4V49c0,0,0.2,0,0.2-0.2l0-0.3v0v0l0-0.3c0-0.3-0.2-0.2-0.2-0.2V48.4z
			 M-2.2,47.2l0.2,0c0.1,0,0.3,0,0.4,0.1c0.1,0,0.2,0.1,0.2,0.2c0,0.1,0.1,0.2,0.1,0.4v0.5c0,0,0,0.1,0,0.1c0,0,0,0,0,0v0.2
			c0,0.2,0,0.3,0,0.4c0,0.1-0.1,0.2-0.1,0.2c0,0.1-0.1,0.1-0.2,0.1c-0.1,0-0.2,0-0.4,0h-0.7v-2.8h0.7C-2.2,46.7-2.2,47.2-2.2,47.2z"
			/>
	</g>
	<g id="g3195" transform="translate(36.44,725.4607)">
		<path id="path3197" class="st0" d="M3.3,64.9c0-0.4,0.3-0.5,0.5-0.5c0,0,0.1,0,0.1,0c0,0,0,0,0,0h3.9V65L3.3,64.9L3.3,64.9z"/>
	</g>
	<path id="path3199" class="st0" d="M44.3,789.8h0.2v0.6h-0.2V789.8z"/>
	<path id="path3201" class="st0" d="M44.6,789.8h0.2v0.6h-0.2V789.8z"/>
	<g id="g3203" transform="translate(116.2744,737.4092)">
		<path id="path3205" class="st0" d="M-67.9,54.2L-67.9,54.2L-67.9,54.2L-67.9,54.2v0.4h0v0.1h0v0.2c0,0.1,0,0.2,0.1,0.2
			c0,0,0,0,0,0c0,0,0,0,0,0c0.1,0,0.1-0.1,0.1-0.2v-0.2v-0.1v-0.3v-0.1V54c0-0.1,0-0.2-0.1-0.2c0,0,0,0,0,0c0,0,0,0,0,0
			c-0.1,0-0.1,0.1-0.1,0.2V54.2z M-68.5,53.4c0-0.1,0.1-0.1,0.1-0.1c0.1,0,0.1,0,0.2,0c0,0,0,0,0.1,0c0.1,0,0.3,0.1,0.3,0.1v-0.1
			h0.6v0.9v0.4v1.4h-0.6v-0.5c0,0-0.2,0.1-0.3,0.1c0,0,0,0-0.1,0c-0.1,0-0.2,0-0.2,0c-0.1,0-0.1-0.1-0.1-0.1s-0.1-0.1-0.1-0.2
			c0-0.1,0-0.2,0-0.3v-0.3v-0.4v-0.3c0-0.2,0-0.3,0-0.3C-68.6,53.5-68.5,53.5-68.5,53.4"/>
	</g>
	<g id="g3207" transform="translate(72.2585,738.3393)">
		<path id="path3209" class="st0" d="M-28.6,53.4c0,0,0.1,0.1,0.1,0.1l0-0.4h0c0-0.1,0-0.2-0.1-0.2c0,0,0,0,0,0c0,0,0,0,0,0
			c-0.1,0-0.1,0.1-0.1,0.2l0,0v0.1C-28.7,53.2-28.7,53.3-28.6,53.4 M-29.2,52.5c0-0.1,0.1-0.1,0.1-0.1c0.1,0,0.1,0,0.2,0
			c0,0,0,0,0.1,0c0.1,0,0.3,0.1,0.3,0.1v-0.1h0.6v0.5h0v0.7c0,0.4,0,0.6,0,0.8c0,0.1-0.1,0.2-0.2,0.3c-0.1,0.1-0.3,0.1-0.5,0.1
			c-0.2,0-0.3,0-0.4-0.1c-0.1-0.1-0.2-0.2-0.2-0.3c0-0.1-0.1-0.2-0.1-0.4v-0.1h0.6v0.2h0c0,0.1,0,0.2,0.1,0.2c0,0,0,0,0,0
			c0,0,0,0,0,0c0.1,0,0.1-0.1,0.1-0.2v-0.1l-0.4-0.2c-0.2-0.1-0.2-0.1-0.3-0.2c-0.1-0.1-0.1-0.2-0.1-0.4v-0.2c0,0,0-0.2,0-0.2
			C-29.3,52.6-29.3,52.5-29.2,52.5"/>
	</g>
	<g id="g3211" transform="translate(56.9941,743.3381)">
		<path id="path3213" class="st0" d="M-15,48.9c0,0.1,0,0.2,0.1,0.2c0,0,0,0,0,0c0,0,0,0,0,0c0.1,0,0.1-0.1,0.1-0.2v-0.2H-15V48.9z
			 M-15.5,47.5c0.1-0.1,0.1-0.1,0.2-0.2c0.1,0,0.2-0.1,0.4-0.1c0.1,0,0.3,0,0.3,0.1c0.1,0,0.2,0.1,0.2,0.2c0.1,0.1,0.1,0.2,0.1,0.2
			c0,0.1,0,0.2,0,0.3h0v0.2h-0.6v-0.2c0-0.1,0-0.2-0.1-0.2c0,0,0,0,0,0c0,0,0,0,0,0c-0.1,0-0.1,0.1-0.1,0.2v0.4h0.8v0.3
			c0,0.2,0,0.4-0.1,0.5s-0.1,0.2-0.2,0.3c-0.1,0.1-0.3,0.1-0.4,0.1c-0.1,0-0.3,0-0.4-0.1c-0.1-0.1-0.2-0.2-0.2-0.3
			c0-0.1-0.1-0.3-0.1-0.5v-0.7c0-0.2,0-0.3,0-0.4C-15.6,47.7-15.5,47.6-15.5,47.5"/>
	</g>
	<g id="g3215" transform="translate(112.7962,724.0295)">
		<path id="path3217" class="st0" d="M-64.8,66.2H-65v0.1h0.2C-64.8,66.3-64.8,66.3-64.8,66.2C-64.7,66.2-64.7,66.2-64.8,66.2
			C-64.7,66.2-64.8,66.2-64.8,66.2 M-64.6,66.1c0,0,0,0.1,0,0.1c0,0.1,0,0.1-0.1,0.2c-0.1,0-0.1,0-0.2,0h-0.4v-0.6h0.2V66h0.1
			l0.1-0.2h0.2l-0.2,0.2C-64.6,66-64.6,66.1-64.6,66.1"/>
	</g>
	<g id="g3219" transform="translate(104.5316,722.8765)">
		<path id="path3221" class="st0" d="M-57.4,67.2h0.4v0.1h-0.4v0.1h0.4v0.1h-0.6V67h0.6v0.1L-57.4,67.2L-57.4,67.2z"/>
	</g>
	<g id="g3223" transform="translate(103.2449,738.0278)">
		<path id="path3225" class="st0" d="M-56.3,53.7v-0.3c0-0.1,0-0.2-0.1-0.2c0,0,0,0,0,0c0,0,0,0,0,0c-0.1,0-0.1,0.1-0.1,0.2V54l0,0
			v0.3c0,0.1,0,0.2,0.1,0.2c0,0,0,0,0,0c0,0,0,0,0,0c0.1,0,0.1-0.1,0.1-0.2V53.7z M-55.8,54.7c-0.1,0.1-0.1,0.1-0.2,0.2
			c-0.1,0-0.2,0.1-0.4,0.1c-0.2,0-0.3,0-0.4-0.1c-0.1-0.1-0.2-0.2-0.2-0.3c0-0.1-0.1-0.3-0.1-0.5v-0.6c0-0.2,0-0.3,0-0.4
			c0-0.1,0.1-0.2,0.1-0.2c0.1-0.1,0.1-0.1,0.2-0.2c0.1,0,0.2-0.1,0.4-0.1c0.1,0,0.2,0,0.3,0.1s0.2,0.1,0.2,0.2
			c0.1,0.1,0.1,0.2,0.1,0.3c0,0.1,0,0.2,0,0.5v0.6c0,0.2,0,0.3,0,0.4C-55.7,54.6-55.7,54.7-55.8,54.7"/>
	</g>
	<g id="g3227" transform="translate(127.4279,724.7542)">
		<path id="path3229" class="st0" d="M-77.9,65.5C-77.9,65.5-77.9,65.5-77.9,65.5C-77.9,65.5-77.9,65.5-77.9,65.5l-0.2,0.2h-0.3
			l0.3-0.4v-0.2h0.2v0.2l0.3,0.4h-0.2L-77.9,65.5z"/>
	</g>
	<path id="path3231" class="st0" d="M44.8,789.8H45v0.6h-0.1V789.8z"/>
	<g id="g3233" transform="translate(120.0399,722.8044)">
		<path id="path3235" class="st0" d="M-71.3,67.2h0.2c0-0.1-0.1-0.1-0.2-0.1c-0.1,0-0.2,0.1-0.2,0.2c0,0.1,0.1,0.2,0.2,0.2
			c0,0,0.1,0,0.1-0.1h0.2c0,0,0,0.1,0,0.1c0,0,0,0,0,0c0,0,0,0,0,0c0,0-0.1,0.1-0.1,0.1c0,0-0.1,0-0.1,0c-0.1,0-0.2,0-0.3-0.1
			c-0.1-0.1-0.1-0.1-0.1-0.2c0,0,0,0,0-0.1c0-0.2,0.2-0.3,0.3-0.3c0.1,0,0.2,0,0.2,0.1c0,0,0,0,0,0V67h0.2v0.4h-0.4V67.2z"/>
	</g>
	<g id="g3237" transform="translate(99.7162,725.0564)">
		<path id="path3239" class="st0" d="M-53.1,65.2c0-0.1,0-0.1,0-0.2c0,0.1-0.1,0.1-0.1,0.1l-0.2,0.2h-0.2v-0.6h0.2v0.1
			c0,0.1,0,0.1,0,0.2c0,0,0,0,0.1-0.1l0.2-0.2h0.2v0.6h-0.2V65.2z"/>
	</g>
	<g id="g3241" transform="translate(88.3332,741.5575)">
		<path id="path3243" class="st0" d="M-43,50.5L-43,50.5L-43,50.5L-43,50.5v-0.4h0v-0.1h0v-0.2c0-0.1,0-0.2-0.1-0.2c0,0,0,0,0,0
			c0,0,0,0,0,0c-0.1,0-0.1,0.1-0.1,0.2v0.2v0.1v0.3v0.1v0.2c0,0.1,0,0.2,0.1,0.2c0,0,0,0,0,0c0,0,0,0,0,0c0.1,0,0.1-0.1,0.1-0.2
			V50.5z M-42.8,49.1c0.1,0,0.2,0,0.2,0c0.1,0,0.1,0.1,0.1,0.1s0.1,0.1,0.1,0.2c0,0.1,0,0.2,0,0.3v0.3v0.4v0.3c0,0.2,0,0.3,0,0.3
			c0,0.1,0,0.1-0.1,0.2s-0.1,0.1-0.1,0.1c-0.1,0-0.1,0-0.2,0c0,0,0,0-0.1,0c-0.1,0-0.3-0.1-0.3-0.1v0.5h-0.6v-1.4v-0.4v-0.9h0.6v0.1
			C-43.2,49.2-43,49.1-42.8,49.1C-42.8,49.1-42.8,49.1-42.8,49.1"/>
	</g>
	<path id="path3245" class="st0" d="M45,789.8h0.1v0.6H45V789.8z"/>
	<g id="g3247" transform="translate(90.6294,722.8765)">
		<path id="path3249" class="st0" d="M-45,67.2h0.4v0.1H-45v0.1h0.4v0.1h-0.6V67h0.6v0.1L-45,67.2L-45,67.2z"/>
	</g>
	<g id="g3251" transform="translate(132.5183,749.7772)">
		<path id="path3253" class="st0" d="M-82.4,43.2v-1V42v-0.6c0,0-0.2,0-0.2,0.2V42v0.1v0v1h-0.6v-0.9l0-0.1v-0.7
			c0-0.2,0-0.3,0.1-0.4c0-0.1,0.1-0.1,0.2-0.2c0.1,0,0.2-0.1,0.4-0.1l0.2,0V40c0,0,0.7-0.1,0.7,0.5v2.6H-82.4z"/>
	</g>
</g>
</svg>
