<?xml version="1.0" encoding="utf-8"?>
<!-- Generator: Adobe Illustrator 26.0.1, SVG Export Plug-In . SVG Version: 6.00 Build 0)  -->
<svg version="1.1" id="Layer_1" xmlns="http://www.w3.org/2000/svg" xmlns:xlink="http://www.w3.org/1999/xlink" x="0px" y="0px"
	 viewBox="0 0 95 35" style="enable-background:new 0 0 95 35;" xml:space="preserve">
<style type="text/css">
	.st0{fill-rule:evenodd;clip-rule:evenodd;fill:#FFFFFF;}
</style>
<g>
	<path class="st0" d="M8.57,22.59l-0.06,0.06c-0.8,0.8-1.73,1.23-2.71,1.23c-2.03,0-3.51-1.48-3.51-3.58c0-2.16,1.48-3.64,3.51-3.64
		c0.99,0,1.91,0.43,2.71,1.23l0.06,0.06l1.29-1.54v-0.06c-1.11-1.29-2.4-1.91-4.01-1.91c-1.6,0-3.08,0.55-4.13,1.54
		C0.55,17.04,0,18.52,0,20.31c0,1.73,0.55,3.21,1.73,4.25c1.05,0.99,2.53,1.54,4.13,1.54c1.6,0,2.9-0.62,4.01-1.91v-0.06L8.57,22.59
		L8.57,22.59z"/>
	<polygon class="st0" points="11.28,25.85 13.56,25.85 13.56,14.63 11.28,14.63 11.28,25.85 	"/>
	<path class="st0" d="M22.19,23.45C21.64,23.82,21.02,24,20.53,24c-0.74,0-1.11-0.37-1.11-1.29v-5.92h2.34v-2.16h-2.34v-3.51
		l-2.22,1.23v2.28h-1.97v2.16h1.97v6.35c0,1.73,0.99,2.9,2.53,2.9c1.05,0.06,1.66-0.25,2.03-0.49h0.06v-0.06l0.55-2.16L22.19,23.45
		L22.19,23.45z"/>
	<polygon class="st0" points="23.86,25.85 26.2,25.85 26.2,14.63 23.86,14.63 23.86,25.85 	"/>
	<path class="st0" d="M83.78,4.95h-0.55L83.1,5.88c-9.19,0.25-11.03,7.4-11.03,7.4s1.66-1.05,4.13-1.05c2.53,0,3.51,0.99,3.51,0.99
		s1.6-1.29,3.82-1.29c2.22,0,3.82,1.29,3.82,1.29s0.99-0.99,3.45-0.99c2.53,0,4.19,1.05,4.19,1.05s-1.91-7.15-11.1-7.4L83.78,4.95
		L83.78,4.95z"/>
	<path class="st0" d="M82.12,26.16c1.42,0,2.16-0.86,2.16-2.47c0-0.68,0-10.79,0-10.79c-0.31-0.12-0.8-0.12-1.11,0
		c0,0,0,9.99,0,10.79c0,1.05-0.43,1.42-1.05,1.42c-0.68,0-1.11-0.37-1.11-1.42l0,0c0-0.31-0.25-0.55-0.49-0.55
		c-0.31,0-0.55,0.25-0.55,0.55C79.96,25.3,80.7,26.16,82.12,26.16L82.12,26.16z"/>
	<path class="st0" d="M35.39,22.65c-0.62,0.74-1.6,1.48-2.65,1.48c-1.73,0-2.65-1.23-2.65-4.13c0-2.34,0.86-3.58,2.53-3.58
		c1.17,0,2.22,0.8,2.77,1.48V22.65L35.39,22.65z M37.61,24.87V14.63h-2.28v1.05c-0.62-0.68-1.73-1.29-2.9-1.29
		c-2.4,0-4.62,1.85-4.62,5.67c0,4.32,1.97,6.1,4.5,6.1c1.23,0,2.16-0.55,3.02-1.29v0.18c0,2.28-0.74,3.14-4.01,3.33l0.8,1.6
		C36.31,29.86,37.61,28.26,37.61,24.87L37.61,24.87z"/>
	<path class="st0" d="M45.87,16.98c-0.49-0.25-1.05-0.43-1.79-0.43c-1.48,0-2.28,0.99-2.28,2.9v6.41h-2.28V14.63h2.28v1.05
		c0.49-0.74,1.48-1.29,2.65-1.29c0.92,0,1.54,0.18,2.03,0.49L45.87,16.98L45.87,16.98z"/>
	<path class="st0" d="M54.31,20.31c0,2.03-1.17,3.76-2.9,3.76c-1.73,0-2.96-1.36-2.96-3.82c0-2.28,1.11-3.76,2.84-3.76
		C53.14,16.48,54.31,17.96,54.31,20.31L54.31,20.31z M56.59,20.24c0-3.58-2.22-5.86-5.18-5.86c-2.96,0-5.24,2.16-5.24,5.92
		c0,3.51,2.22,5.86,5.18,5.86C54.37,26.16,56.59,23.94,56.59,20.24L56.59,20.24z"/>
	<path class="st0" d="M64.79,25.85v-0.99c-0.62,0.8-1.79,1.29-2.96,1.29c-2.77,0-4.19-1.73-4.19-5.06v-6.47h2.28v6.41
		c0,2.28,0.92,3.08,2.4,3.08c1.54,0,2.47-1.05,2.47-2.9v-6.6h2.28v11.22H64.79L64.79,25.85z"/>
	<path class="st0" d="M76.51,20.49c0,2.4-0.92,3.64-2.59,3.64c-1.17,0-2.22-0.8-2.77-1.48v-4.81c0.62-0.68,1.6-1.42,2.71-1.42
		C75.52,16.42,76.51,17.65,76.51,20.49L76.51,20.49z M78.79,20.43c0-4.25-1.97-6.04-4.5-6.04c-1.29,0-2.28,0.55-3.14,1.29v-1.05
		h-2.22v15.41l2.22-1.17v-4.01c0.68,0.68,1.79,1.29,3.02,1.29C76.57,26.16,78.79,24.31,78.79,20.43L78.79,20.43z"/>
</g>
</svg>
