<?xml version="1.0" encoding="utf-8"?>
<!-- Generator: Adobe Illustrator 26.0.1, SVG Export Plug-In . SVG Version: 6.00 Build 0)  -->
<svg version="1.1" id="Layer_1" xmlns="http://www.w3.org/2000/svg" xmlns:xlink="http://www.w3.org/1999/xlink" x="0px" y="0px"
	 viewBox="0 0 95 35" style="enable-background:new 0 0 95 35;" xml:space="preserve">
<style type="text/css">
	.st0{fill-rule:evenodd;clip-rule:evenodd;fill:#343741;}
</style>
<path class="st0" d="M77.65,4.95c-7.72-2.9-18.48-4.76-30.05-4.93C23.64-0.42,3.69,7.56,3.66,17.36C3.6,27.14,23.09,34.91,47.25,35
	c24.13,0.12,44.09-7.51,44.09-17.17C91.34,12.9,86.47,8.25,77.65,4.95z M47.43,33.06c-14.42,0-27.53-2.96-35.04-7.11
	c-4.5-2.47-7.11-5.6-6.87-8.67c0.26-3.16,2.64-6.03,6.93-8.64c7.37-4.53,20.62-6.96,35.16-6.9c23.12,0.09,42.09,7.31,42.06,15.95
	C89.66,26.3,70.6,33.08,47.43,33.06z"/>
<g>
	<path class="st0" d="M66.43,14.29c-1.45,0.78-2.03,2.52-2.41,3.92l0.41,0.06c0.96-0.15,1.94-0.38,2.67-0.99
		c0.61-0.67,0.99-1.57,0.73-2.49C67.62,14.29,66.95,14.09,66.43,14.29z"/>
	<path class="st0" d="M34.61,14.2c-1.86,0.49-2.99,2.61-3.68,4.32c-0.17,0.75-0.7,1.74,0.06,2.35c0.84,0.41,1.6-0.44,2.12-0.81
		c0.78-1.13,1.42-2.29,1.97-3.54c0.15-0.64,0.78-1.39,0.26-2.09C35.22,14.2,34.87,14.29,34.61,14.2z"/>
	<path class="st0" d="M89.14,17.65c-0.32-3.71-3.22-6.9-11.54-10.09c-7.54-2.9-17.2-4.41-29.99-4.52c-18.1-0.2-27.73,1.8-35.13,6.24
		c-3.36,2-6.24,5.02-6.5,7.95c-0.73,8.38,18.54,14.5,41.39,14.53c11.72,0.03,22.65-1.16,30.22-3.83
		C84.7,25.4,89.46,21.28,89.14,17.65z M28.05,11.91c-0.32-0.49,0.52-1.02,0-1.33c-2.76-0.46-4.96,1.04-6.64,3.1
		c-1.19,1.89-2.41,4.47-1.13,6.67c0.64,0.9,1.8,1.33,2.84,1.19c1.33-0.23,2.61-0.78,3.68-1.54c0.15,0.06,0.29,0.14,0.29,0.29
		c-0.09,0.35-0.35,0.49-0.58,0.73c-1.28,0.87-2.78,1.25-4.32,1.42c-1.74,0.12-3.45-0.7-4.35-2.29c-0.87-1.71-0.52-4.09,0.58-5.63
		c1.97-2.96,5.51-4.5,9.02-4.84c1.04,0.03,2.38,0.06,3.02,1.07c0.14,0.41,0.14,0.78-0.09,1.16c-0.29,0.38-0.7,0.55-1.19,0.64
		C28.78,12.55,28.31,12.32,28.05,11.91z M35.74,21.13c0.84-0.09,1.16-1.19,1.94-1.48c0.2,0.52-0.38,0.93-0.67,1.31
		c-0.87,0.78-1.89,1.94-3.13,1.51c-0.61-0.41-0.46-1.25-0.38-1.89c0.06,0,0.06,0,0.09-0.06H33.5c-1.16,0.99-2.12,2.35-3.71,1.97
		c-0.73-0.23-1.16-1.04-1.31-1.71c-0.2-2.76,1.51-5.4,3.94-6.73c0.9-0.26,1.91-0.7,2.81-0.38c0.23,0.17,0.49,0.41,0.64,0.61
		c0.23-0.26,0.26-0.78,0.75-0.67c0.41,0.06,0.96-0.09,1.25,0.15c-0.73,2.29-1.54,4.61-2.32,6.87
		C35.59,20.79,35.48,21.13,35.74,21.13z M47.43,15.8c-0.29,0.26-0.49,0.44-0.87,0.46c-0.41,0.03-0.7-0.14-0.84-0.46
		c-0.12-0.23,0.06-0.55-0.2-0.7c-0.9,0.52-1.25,1.48-1.77,2.26c-0.84,1.51-1.62,3.05-2.12,4.67c-0.41,0.64-1.1,0.26-1.65,0.29
		c-0.2-0.09-0.23-0.38-0.15-0.55L41.71,16c0-0.35,0.32-0.7,0-1.02c-0.44,0-0.58,0.46-0.93,0.73c-0.29,0.29-0.41,0.81-0.87,0.84
		c-0.23-0.09-0.09-0.29-0.03-0.44c0.64-1.13,1.74-2.12,2.99-2.44c0.2,0.03,0.52,0.03,0.67,0.2c0.46,1.07-0.17,2.26-0.38,3.28
		c0.2-0.09,0.29-0.49,0.46-0.75c0.78-1.02,1.42-2.52,2.84-2.73c0.32,0.09,0.81,0.12,0.96,0.46C47.63,14.67,47.75,15.3,47.43,15.8z
		 M54.65,16.26c-0.41-0.2-0.32-0.61-0.35-0.93c-0.06-0.17-0.29-0.09-0.38-0.03c-1.54,1.45-2.15,3.39-3.07,5.19
		c-0.38,0.64-0.29,1.57-1.02,2.03c-0.44-0.06-0.99,0.03-1.39-0.2l-0.06-0.29c0.67-2.26,1.6-4.35,2.09-6.67
		c0.03-0.12,0-0.23-0.09-0.29c-0.78,0.23-1.13,1.1-1.68,1.57c-0.17,0.03-0.26,0.03-0.32-0.12c0.29-0.96,1.16-1.62,1.91-2.26
		c0.52-0.29,1.02-0.64,1.71-0.41c0.67,0.61,0.14,1.65,0.09,2.38c-0.26,0.29-0.15,0.7-0.26,0.96c0.75-1.22,1.48-2.55,2.81-3.28
		c0.64-0.23,1.42-0.06,1.6,0.73c-0.03,0.58,0.03,1.39-0.64,1.6C55.26,16.38,54.94,16.41,54.65,16.26z M60.02,20.5
		c-0.81,1.22-2.26,2.41-3.89,2.32c-0.35-0.12-0.44-0.46-0.58-0.73l0.09-1.1l2.55-6.87c0.35-0.41,0.99-0.09,1.51-0.15l0.17,0.29
		l-0.09,0.46l-1.89,5.71c-0.06,0.32-0.32,0.93,0.09,1.07c0.67-0.32,1.19-1.02,1.83-1.39c0.23-0.09,0.17,0.12,0.23,0.14L60.02,20.5z
		 M60.89,11.68c-0.09,0.26-0.26,0.52-0.44,0.73c-0.26,0.2-0.55,0.35-0.9,0.35c-0.35-0.03-0.64-0.17-0.78-0.49
		c-0.23-0.64,0.17-1.22,0.58-1.65c0.44-0.26,0.96-0.44,1.39-0.03C60.97,10.84,61,11.33,60.89,11.68z M69.18,17.28
		c-0.75,0.58-1.57,1.02-2.44,1.19l-0.12,0.09l-2.87,0.52c-0.2,0.64-0.29,1.45,0.23,2.03c0.67,0.7,1.68,0.61,2.52,0.35
		c0.7-0.32,1.36-0.75,1.97-1.28l0.23,0.03c0.12,0.32-0.23,0.58-0.41,0.9c-1.16,1.22-2.87,2.06-4.61,1.71
		c-0.9-0.09-1.54-0.73-1.94-1.45c-0.17-0.44-0.26-0.87-0.35-1.36c0.03-2.41,1.36-4.84,3.51-5.92c1.57-0.64,4.06-0.87,4.9,0.81
		C70.05,15.71,69.85,16.7,69.18,17.28z M78.29,16.35c-0.32,0.2-0.87,0.23-1.25,0c-0.38-0.23,0.03-1.1-0.58-0.87
		c-1.51,1.51-2.26,3.6-3.19,5.4l-0.55,1.62c-0.41,0.29-1.07,0.09-1.57,0.09l-0.23-0.2c0.7-2.32,1.39-4.61,2.12-6.87
		c-0.03-0.12-0.09-0.2-0.17-0.26c-0.44,0.03-0.64,0.46-0.99,0.73l-0.58,0.84c-0.15,0.03-0.32,0.09-0.41-0.09
		c0.52-1.28,1.71-2.61,3.19-2.84c0.38,0.06,0.64,0.26,0.78,0.64c0,0.9-0.26,1.83-0.52,2.7c0.03,0.06,0.06,0,0.12-0.03
		c0.78-1.31,1.6-2.87,3.22-3.31c0.41,0.03,0.7,0.29,0.93,0.58C78.78,15.1,78.81,15.88,78.29,16.35z"/>
</g>
<path class="st0" d="M88.58,28.09h-0.51v0.97h0.51c0.29,0,0.49-0.04,0.6-0.11c0.12-0.07,0.17-0.19,0.17-0.36
	c0-0.18-0.06-0.31-0.18-0.38C89.05,28.13,88.86,28.09,88.58,28.09L88.58,28.09z M88.66,27.81c0.38,0,0.66,0.06,0.85,0.18
	c0.18,0.12,0.27,0.31,0.27,0.56c0,0.19-0.06,0.35-0.17,0.48c-0.12,0.13-0.27,0.21-0.47,0.23l0.6,1.25h-0.47l-0.57-1.19h-0.63v1.19
	h-0.41v-2.71H88.66L88.66,27.81z M90.68,29.21c0-0.29-0.05-0.56-0.15-0.81c-0.1-0.25-0.25-0.48-0.44-0.67
	c-0.2-0.2-0.43-0.35-0.69-0.46c-0.26-0.11-0.53-0.16-0.81-0.16c-0.28,0-0.54,0.05-0.79,0.15c-0.25,0.1-0.47,0.25-0.67,0.45
	c-0.2,0.21-0.36,0.44-0.47,0.69c-0.11,0.26-0.16,0.52-0.16,0.8c0,0.28,0.05,0.54,0.16,0.79c0.11,0.25,0.26,0.48,0.46,0.68
	c0.2,0.2,0.43,0.35,0.68,0.46c0.25,0.11,0.52,0.16,0.79,0.16c0.28,0,0.55-0.05,0.8-0.16c0.26-0.11,0.49-0.26,0.69-0.46
	c0.19-0.19,0.34-0.41,0.44-0.65C90.63,29.77,90.68,29.5,90.68,29.21L90.68,29.21z M88.59,26.85c0.32,0,0.63,0.06,0.92,0.18
	c0.29,0.12,0.54,0.29,0.76,0.51c0.22,0.22,0.39,0.47,0.5,0.76c0.12,0.29,0.18,0.59,0.18,0.91c0,0.32-0.06,0.62-0.17,0.9
	c-0.11,0.28-0.28,0.53-0.5,0.75c-0.23,0.23-0.49,0.4-0.78,0.52c-0.29,0.12-0.59,0.18-0.9,0.18c-0.32,0-0.61-0.06-0.9-0.18
	c-0.28-0.12-0.54-0.29-0.76-0.52c-0.22-0.22-0.4-0.48-0.51-0.76c-0.12-0.28-0.18-0.58-0.18-0.9c0-0.31,0.06-0.61,0.18-0.9
	c0.12-0.29,0.29-0.55,0.52-0.78c0.22-0.22,0.46-0.39,0.74-0.5C87.97,26.91,88.27,26.85,88.59,26.85L88.59,26.85z"/>
</svg>
