<?xml version="1.0" encoding="utf-8"?>
<!-- Generator: Adobe Illustrator 26.0.1, SVG Export Plug-In . SVG Version: 6.00 Build 0)  -->
<svg version="1.1" id="Layer_1" xmlns="http://www.w3.org/2000/svg" xmlns:xlink="http://www.w3.org/1999/xlink" x="0px" y="0px"
	 viewBox="0 0 95 35" style="enable-background:new 0 0 95 35;" xml:space="preserve">
<style type="text/css">
	.st0{fill:#CCCCCC;}
</style>
<g>
	<polyline class="st0" points="28.51,18.81 28.51,22.08 32.48,22.08 32.48,24.86 25.27,24.86 25.27,10.43 32.28,10.43 32.28,13.21 
		28.51,13.21 28.51,16.03 31.82,16.03 31.82,18.81 28.51,18.81 	"/>
	<path class="st0" d="M40.16,17.17c1.02,0.21,1.79,1.13,1.79,2.2v4.09c0,0.71,0.12,1.28,0.3,1.41h-3.18c-0.17-0.14-0.3-0.7-0.3-1.41
		v-3.95c0-0.56-0.46-1.02-1.02-1.02h-1.19v-2.45h1.29c0.35,0,0.67-0.21,0.81-0.52c0.12-0.27,0.18-0.67,0.18-1.11
		c0-0.38-0.05-0.75-0.14-1c-0.12-0.32-0.46-0.55-0.81-0.55h-0.94v12h-3.21V10.41h5.38c1.32,0,2.55,0.99,2.77,2.24
		c0.06,0.38,0.09,0.81,0.09,1.23c0,0.46-0.05,0.9-0.11,1.29C41.72,16.13,41.05,16.88,40.16,17.17"/>
	<path class="st0" d="M48.11,19.2c2.08,0,3.19-1.03,3.44-2.58c0.11-0.67,0.14-1.19,0.14-1.82c0-0.9-0.03-1.46-0.18-2.13
		c-0.29-1.25-1.46-2.24-2.77-2.24h-5.35v14.44h3.21V13.06h0.81c0.62,0,0.93,0.36,1.02,0.85c0.05,0.27,0.05,0.59,0.05,0.9
		c0,0.33,0,0.71-0.06,0.99c-0.09,0.47-0.52,0.84-1.02,0.84h-1.2v2.57L48.11,19.2L48.11,19.2z"/>
	<rect x="52.58" y="10.43" class="st0" width="3.21" height="14.44"/>
	<polygon class="st0" points="60.71,22.17 63.98,22.17 63.98,24.87 57.51,24.87 57.51,10.43 60.71,10.43 	"/>
	<path class="st0" d="M88.45,17.17c1.02,0.21,1.79,1.13,1.79,2.2v4.09c0,0.71,0.12,1.28,0.3,1.41h-3.18c-0.17-0.14-0.3-0.7-0.3-1.41
		v-3.95c0-0.56-0.46-1.02-1.02-1.02h-1.19v-2.43h1.29c0.35,0,0.67-0.21,0.81-0.52c0.12-0.27,0.18-0.67,0.18-1.11
		c0-0.38-0.05-0.75-0.14-1c-0.12-0.32-0.46-0.55-0.81-0.55h-0.93v12h-3.21V10.43h5.38c1.32,0,2.55,0.99,2.77,2.24
		c0.06,0.38,0.09,0.81,0.09,1.23c0,0.46-0.05,0.9-0.11,1.29C90.03,16.13,89.35,16.89,88.45,17.17"/>
	<polygon class="st0" points="77.84,24.87 81.21,24.87 78.61,10.43 74.35,10.43 71.71,24.87 74.92,24.87 76.5,12.88 77.26,19.84 
		75.22,19.84 74.81,22.43 77.53,22.43 	"/>
	<polygon class="st0" points="67.98,22.17 71.15,22.17 71.15,24.87 64.79,24.87 64.79,10.43 67.98,10.43 	"/>
	<path class="st0" d="M3.66,22.34c-0.29-0.09-0.52-0.38-0.52-0.62v-8.48c0.06-0.33,0.21-0.53,0.52-0.62v-0.02
		c0.06-0.02,0.14-0.02,0.21-0.02c0.06,0,0.14,0,0.2,0.02c0.33,0.05,0.59,0.3,0.59,0.64v3.06h3.06v-3.19
		c-0.09-1.41-0.97-2.45-2.34-2.81c-0.47-0.12-0.93-0.17-1.49-0.17c-0.53,0-0.99,0.05-1.52,0.17c-1.26,0.27-2.3,1.37-2.37,2.83v8.88
		c0,1.57,1.26,2.87,2.83,2.9h1.06l3.21-2.52c0.3-0.23,0.62-0.71,0.62-1.25v-2.43H4.67v2.98c0,0.33-0.27,0.64-0.61,0.68
		c-0.06,0.02-0.12,0.02-0.2,0.02C3.8,22.37,3.73,22.35,3.66,22.34"/>
	<polygon class="st0" points="12.7,17.35 17.81,21.71 15.16,10.43 10.81,10.43 8.33,21.38 13.12,17.64 14.22,17.64 14.22,16.98 
		12.19,16.98 13.02,12.94 13.93,17.35 	"/>
	<polygon class="st0" points="24.37,10.43 24.37,13.26 22.31,13.26 22.31,24.86 21.52,24.86 18.99,22.72 18.99,13.26 16.94,13.26 
		16.94,10.43 	"/>
	<path class="st0" d="M93.07,14.17c-1.06,0-1.93-0.87-1.93-1.93s0.87-1.93,1.93-1.93S95,11.18,95,12.24S94.13,14.17,93.07,14.17z
		 M93.07,10.67c-0.86,0-1.57,0.7-1.57,1.57c0,0.86,0.7,1.57,1.57,1.57s1.57-0.7,1.57-1.57C94.64,11.37,93.94,10.67,93.07,10.67z"/>
	<path class="st0" d="M92.74,13.32h-0.38v-2.1h0.76c0.3,0,0.62,0.12,0.62,0.55c0,0.27-0.15,0.46-0.38,0.5l0,0
		c0.29,0.05,0.29,0.24,0.33,0.53c0.02,0.14,0.03,0.38,0.11,0.5h-0.43c-0.03-0.18-0.05-0.38-0.06-0.56
		c-0.02-0.12-0.03-0.27-0.17-0.29h-0.41V13.32z M92.74,12.13h0.32c0.17,0,0.27-0.11,0.27-0.29c0-0.18-0.11-0.26-0.27-0.27h-0.32
		V12.13z"/>
	<polygon class="st0" points="6.14,24.5 19.35,24.5 13.04,19.1 	"/>
</g>
</svg>
