<?xml version="1.0" encoding="utf-8"?>
<!-- Generator: Adobe Illustrator 26.0.1, SVG Export Plug-In . SVG Version: 6.00 Build 0)  -->
<svg version="1.1" id="Layer_1" xmlns="http://www.w3.org/2000/svg" xmlns:xlink="http://www.w3.org/1999/xlink" x="0px" y="0px"
	 viewBox="0 0 95 35" style="enable-background:new 0 0 95 35;" xml:space="preserve">
<style type="text/css">
	.st0{fill:#CCCCCC;}
</style>
<g>
	<g>
		<g id="XMLID_10_">
			<path id="XMLID_11_" class="st0" d="M88.65,20.67H78.57v-2.4h10.08V20.67z M78.57,14.34h10.08v2.33H78.57V14.34z M87.9,22.3
				c1.78,0,2.61-0.74,2.61-2.02v-1.12c0-0.36-0.12-0.52-0.38-0.74l-1.15-0.99l1.15-0.99c0.26-0.22,0.38-0.38,0.38-0.74v-0.99
				c0-1.28-0.82-2.02-2.61-2.02H76.76v9.6H87.9z M69.18,20.67H59.1v-2.4h10.08V20.67z M59.1,14.34h10.08v2.33H59.1V14.34z
				 M68.42,22.3c1.78,0,2.61-0.74,2.61-2.02v-1.12c0-0.36-0.12-0.52-0.38-0.74l-1.15-0.99l1.15-0.99c0.26-0.22,0.38-0.38,0.38-0.74
				v-0.99c0-1.28-0.82-2.02-2.61-2.02H57.29v9.6H68.42z M49.24,12.7v7.89H39.7V12.7h-1.81v7.41c0,1.36,0.82,2.19,2.45,2.19h8.24
				c1.63,0,2.45-0.84,2.45-2.19V12.7H49.24z M20.17,16.63V12.7h-1.81v9.6h1.81v-3.99h9.67v3.99h1.81v-9.6h-1.81v3.92H20.17z
				 M13.08,14.42V12.7H2.45C0.82,12.7,0,13.54,0,14.9v5.21c0,1.36,0.82,2.19,2.45,2.19h10.63v-1.71H1.85v-6.17H13.08z"/>
		</g>
	</g>
	<g>
		<path class="st0" d="M94.21,12.8c0.16,0.07,0.3,0.16,0.42,0.28s0.21,0.26,0.28,0.42C94.97,13.65,95,13.82,95,14
			c0,0.19-0.03,0.36-0.1,0.52c-0.07,0.16-0.16,0.3-0.28,0.41c-0.12,0.12-0.26,0.21-0.42,0.28s-0.33,0.1-0.52,0.1
			s-0.36-0.03-0.52-0.1c-0.16-0.07-0.3-0.16-0.42-0.28c-0.12-0.12-0.21-0.26-0.28-0.41c-0.07-0.16-0.1-0.33-0.1-0.52
			c0-0.18,0.03-0.35,0.1-0.51c0.07-0.16,0.16-0.3,0.28-0.42s0.26-0.21,0.42-0.28c0.16-0.07,0.33-0.1,0.52-0.1
			S94.05,12.73,94.21,12.8z M93.25,12.97c-0.13,0.06-0.25,0.14-0.35,0.24c-0.1,0.1-0.18,0.22-0.23,0.36
			c-0.06,0.14-0.08,0.28-0.08,0.44c0,0.16,0.03,0.3,0.08,0.44c0.05,0.14,0.13,0.25,0.23,0.36c0.1,0.1,0.22,0.18,0.35,0.24
			c0.13,0.06,0.28,0.09,0.44,0.09c0.16,0,0.3-0.03,0.44-0.09c0.13-0.06,0.25-0.14,0.35-0.24c0.1-0.1,0.18-0.22,0.23-0.36
			c0.06-0.14,0.08-0.28,0.08-0.44c0-0.16-0.03-0.3-0.08-0.44c-0.06-0.14-0.13-0.25-0.23-0.36c-0.1-0.1-0.22-0.18-0.35-0.24
			c-0.13-0.06-0.28-0.09-0.44-0.09C93.53,12.88,93.38,12.91,93.25,12.97z M93.22,14.76v-1.51h0.58c0.17,0,0.3,0.04,0.37,0.11
			c0.08,0.07,0.12,0.18,0.12,0.31c0,0.07-0.01,0.12-0.03,0.17c-0.02,0.05-0.05,0.09-0.08,0.12c-0.04,0.03-0.08,0.06-0.12,0.08
			c-0.05,0.02-0.09,0.03-0.15,0.04l0.45,0.67h-0.22l-0.43-0.67H93.4v0.67H93.22z M93.82,13.93c0.06,0,0.1-0.01,0.15-0.03
			c0.04-0.02,0.08-0.04,0.1-0.08c0.03-0.04,0.04-0.09,0.04-0.15c0-0.05-0.01-0.1-0.03-0.13c-0.02-0.03-0.05-0.06-0.08-0.08
			c-0.03-0.02-0.07-0.03-0.11-0.04c-0.04-0.01-0.09-0.01-0.13-0.01H93.4v0.52h0.25C93.71,13.93,93.76,13.93,93.82,13.93z"/>
	</g>
</g>
</svg>
