<?xml version="1.0" encoding="utf-8"?>
<!-- Generator: Adobe Illustrator 26.0.1, SVG Export Plug-In . SVG Version: 6.00 Build 0)  -->
<svg version="1.1" id="Layer_1" xmlns="http://www.w3.org/2000/svg" xmlns:xlink="http://www.w3.org/1999/xlink" x="0px" y="0px"
	 viewBox="0 0 95 35" style="enable-background:new 0 0 95 35;" xml:space="preserve">
<style type="text/css">
	.st0{fill:#CCCCCC;}
	.st1{display:none;}
</style>
<g>
	<g id="CC_Logo">
		<g>
			<path class="st0" d="M41.69,24.59c-1.78,1.68-4.12,2.61-6.58,2.61c-2.43,0-4.75-0.91-6.52-2.56c-0.62-0.58-1.59-0.54-2.17,0.08
				s-0.54,1.59,0.08,2.17c2.35,2.18,5.41,3.39,8.62,3.39c3.24,0,6.32-1.22,8.68-3.45c0.62-0.58,0.64-1.55,0.06-2.17
				C43.28,24.04,42.31,24.01,41.69,24.59z"/>
			<path class="st0" d="M34.96,8.04c2.52,0,4.91,0.97,6.71,2.74c0.11,0.11,0.24,0.2,0.38,0.27c0.59,0.31,1.35,0.22,1.83-0.27
				c0.59-0.61,0.54-1.6-0.06-2.19c-2.38-2.33-5.52-3.62-8.86-3.62c-3.28,0-6.4,1.25-8.76,3.53c-2.35,2.26-3.72,5.29-3.87,8.53
				l-0.16,1.66c-0.54,4.85-4.63,8.51-9.52,8.51c-5.28,0-9.58-4.3-9.58-9.58s4.3-9.58,9.58-9.58c2.52,0,4.91,0.97,6.71,2.74
				c0.61,0.59,1.58,0.58,2.17-0.02c0.59-0.61,0.58-1.58-0.02-2.17c-2.38-2.33-5.52-3.62-8.86-3.62c-1.71,0-3.36,0.34-4.92,0.99
				C6.21,6.6,4.86,7.51,3.7,8.68c-1.16,1.16-2.07,2.51-2.71,4.02C0.33,14.26,0,15.92,0,17.63c0,1.71,0.34,3.36,0.99,4.92
				c0.64,1.51,1.55,2.86,2.71,4.02s2.51,2.07,4.02,2.71c1.56,0.66,3.22,0.99,4.92,0.99c3.13,0,6.14-1.15,8.47-3.25
				c2.31-2.08,3.77-4.92,4.11-8l0.17-1.73l0.01-0.09C25.61,12.07,29.81,8.04,34.96,8.04z"/>
		</g>
	</g>
	<g id="Crown">
		<g>
			<g>
				<path class="st0" d="M54.81,25.26L54.81,25.26c-0.72,0.66-1.36,1.07-2.39,1.07c-1.56,0-2.73-1.26-2.73-2.93v-0.03
					c0-1.64,1.2-2.92,2.73-2.92c0.84,0,1.55,0.32,2.32,1.03c0,0,0,0,0.01,0c0,0,0,0,0.01,0l0.94-1.08v-0.01
					c-0.67-0.64-1.58-1.3-3.26-1.3c-1.2,0-2.3,0.45-3.09,1.27c-0.77,0.8-1.2,1.88-1.2,3.04v0.02c0,1.17,0.43,2.24,1.21,3.04
					c0.79,0.8,1.86,1.25,3.03,1.25c0.74,0,1.38-0.13,1.95-0.4c0.5-0.23,0.95-0.58,1.43-1.08v-0.01L54.81,25.26z M49.03,26.08
					C49.03,26.08,49.03,26.09,49.03,26.08C49.03,26.09,49.03,26.08,49.03,26.08z M49.09,26.15c0.01,0.01,0.01,0.02,0.02,0.03
					C49.1,26.17,49.1,26.17,49.09,26.15z M49.15,26.23c0.01,0.01,0.02,0.02,0.03,0.03C49.17,26.25,49.16,26.24,49.15,26.23z
					 M49.22,26.31c0.01,0.01,0.02,0.02,0.03,0.03C49.23,26.33,49.23,26.32,49.22,26.31z M49.29,26.38c0.01,0.01,0.01,0.01,0.02,0.02
					C49.3,26.4,49.29,26.39,49.29,26.38z M49.36,26.46L49.36,26.46L49.36,26.46z"/>
				<path class="st0" d="M87.23,26.21h-4.36v-6.97c0-0.01,0-0.01-0.01-0.01H81.4c-0.01,0-0.01,0-0.01,0.01v8.31
					c0,0.01,0,0.01,0.01,0.01h5.83c0.01,0,0.01,0,0.01-0.01v-1.33C87.24,26.21,87.24,26.21,87.23,26.21z"/>
				<path class="st0" d="M94.97,26.23h-4.75v-2.21h4.16c0.01,0,0.01,0,0.01-0.01v-1.3c0-0.01,0-0.01-0.01-0.01h-4.16v-2.14h4.69
					c0.01,0,0.01,0,0.01-0.01v-1.3c0-0.01,0-0.01-0.01-0.01h-6.16c-0.01,0-0.01,0-0.01,0.01v8.31c0,0.01,0,0.01,0.01,0.01h6.22
					c0.01,0,0.01,0,0.01-0.01v-1.31C94.98,26.23,94.98,26.23,94.97,26.23z"/>
				<path class="st0" d="M79.86,19.23h-6.74c-0.01,0-0.01,0-0.01,0.01v1.35c0,0.01,0,0.01,0.01,0.01h2.63v6.95
					c0,0.01,0,0.01,0.01,0.01h1.47c0.01,0,0.01,0,0.01-0.01V20.6h2.63c0.01,0,0.01,0,0.01-0.01v-1.35
					C79.87,19.23,79.87,19.23,79.86,19.23z"/>
				<path class="st0" d="M71.5,23.58c-0.42-0.36-1.05-0.63-1.99-0.86c-1.55-0.37-1.98-0.65-1.98-1.3V21.4
					c0-0.27,0.12-0.51,0.35-0.69c0.24-0.19,0.58-0.29,0.99-0.29c0.75,0,1.48,0.28,2.25,0.85c0,0,0,0,0.01,0c0,0,0,0,0.01,0l0.78-1.1
					v-0.01c-0.88-0.7-1.87-1.05-3.02-1.05c-0.8,0-1.53,0.24-2.05,0.67c-0.52,0.44-0.8,1.06-0.8,1.75v0.02
					c0,0.74,0.23,1.27,0.72,1.66c0.42,0.34,1.03,0.58,2.05,0.83c1.59,0.36,1.87,0.7,1.87,1.26v0.03c0,0.62-0.59,1.03-1.46,1.03
					c-0.95,0-1.76-0.33-2.62-1.08c0,0,0,0-0.01,0c0,0,0,0-0.01,0l-0.88,1.04v0.01c0.98,0.87,2.18,1.33,3.47,1.33
					c1.81,0,2.98-0.98,2.98-2.49v-0.03C72.17,24.49,71.96,23.97,71.5,23.58z"/>
				<path class="st0" d="M61.36,19.17c0,0,0-0.01-0.01-0.01H60c0,0-0.01,0-0.01,0.01l-3.65,8.37v0.01c0,0,0,0,0.01,0h1.49
					c0,0,0.01,0,0.01-0.01l0.85-2h3.92l0.84,2c0,0,0,0.01,0.01,0.01h1.54l0,0c0.01,0,0.01,0,0.01-0.01c0,0,0,0,0-0.01L61.36,19.17z
					 M62.07,24.24h-2.83l1.41-3.29L62.07,24.24z"/>
			</g>
			<g>
				<path class="st0" d="M86.48,8.04h-1.52c0,0-0.01,0-0.01,0.01L83,14.12l-2.01-6.09c0,0,0-0.01-0.01-0.01h-1.23
					c0,0-0.01,0-0.01,0.01l-2.01,6.09l-1.95-6.07c0,0,0-0.01-0.01-0.01h-1.56H74.2v0.01l2.87,8.29c0,0,0,0.01,0.01,0.01h1.25
					c0,0,0.01,0,0.01-0.01l2.01-5.89l2.01,5.89c0,0,0,0.01,0.01,0.01h1.26c0,0,0.01,0,0.01-0.01l2.86-8.29
					C86.49,8.05,86.49,8.05,86.48,8.04C86.49,8.04,86.49,8.04,86.48,8.04z"/>
				<path class="st0" d="M54.74,14.02L54.74,14.02c-0.71,0.65-1.34,1.06-2.37,1.06c-1.54,0-2.7-1.25-2.7-2.9v-0.03
					c0-1.62,1.19-2.89,2.7-2.89c0.83,0,1.54,0.31,2.3,1.02c0,0,0,0,0.01,0c0,0,0,0,0.01,0l0.93-1.07V9.2
					c-0.67-0.65-1.57-1.29-3.23-1.29c-1.19,0-2.28,0.45-3.06,1.25c-0.77,0.79-1.19,1.86-1.19,3.01v0.02c0,1.15,0.42,2.22,1.19,3.01
					c0.78,0.8,1.84,1.23,3,1.23c0.73,0,1.37-0.13,1.93-0.39c0.49-0.23,0.94-0.57,1.42-1.07v-0.01L54.74,14.02z M49.28,15.13
					L49.28,15.13L49.28,15.13z"/>
				<path class="st0" d="M69.48,7.9c-1.21,0-2.31,0.45-3.11,1.26c-0.78,0.79-1.21,1.86-1.21,3v0.03c0,1.14,0.43,2.2,1.2,2.99
					c0.79,0.81,1.9,1.25,3.1,1.25c1.21,0,2.31-0.45,3.11-1.26c0.78-0.79,1.21-1.86,1.21-3v-0.03c0-1.14-0.43-2.2-1.2-2.99
					C71.79,8.35,70.69,7.9,69.48,7.9z M66.69,12.14c0-1.65,1.19-2.89,2.76-2.89c1.56,0,2.79,1.28,2.79,2.92v0.02
					c0,1.64-1.19,2.88-2.76,2.88c-1.59,0-2.79-1.25-2.79-2.9V12.14z"/>
				<path class="st0" d="M94.98,8.04h-1.42c-0.01,0-0.01,0-0.01,0.01v5.66l-4.39-5.67c0,0,0,0-0.01,0h-1.34
					c-0.01,0-0.01,0-0.01,0.01v8.23c0,0.01,0,0.01,0.01,0.01h1.42c0.01,0,0.01,0,0.01-0.01v-5.82l4.53,5.83c0,0,0,0,0.01,0h1.21
					c0.01,0,0.01,0,0.01-0.01V8.05C94.99,8.05,94.99,8.04,94.98,8.04z"/>
				<path class="st0" d="M62.04,13.17c1.25-0.37,1.94-1.25,1.94-2.5v-0.02c0-0.71-0.24-1.32-0.68-1.78
					c-0.55-0.54-1.38-0.83-2.38-0.83h-3.67c-0.01,0-0.01,0-0.01,0.01v8.23c0,0.01,0,0.01,0.01,0.01h1.45c0.01,0,0.01,0,0.01-0.01
					v-2.86h1.79l2.02,2.87c0,0,0,0,0.01,0h1.72l0,0c0.01,0,0.01,0,0.01-0.01v-0.01L62.04,13.17z M58.71,9.38h2.09
					c1.08,0,1.69,0.49,1.69,1.35v0.02c0,0.83-0.66,1.37-1.68,1.37h-2.1V9.38L58.71,9.38z"/>
			</g>
		</g>
	</g>
	<g id="Guides" class="st1">
	</g>
</g>
</svg>
