<?xml version="1.0" encoding="utf-8"?>
<!-- Generator: Adobe Illustrator 26.0.1, SVG Export Plug-In . SVG Version: 6.00 Build 0)  -->
<svg version="1.1" id="Layer_1" xmlns="http://www.w3.org/2000/svg" xmlns:xlink="http://www.w3.org/1999/xlink" x="0px" y="0px"
	 viewBox="0 0 95 35" style="enable-background:new 0 0 95 35;" xml:space="preserve">
<style type="text/css">
	.st0{fill:#CCCCCC;}
</style>
<g>
	<path class="st0" d="M55.8,16.7c2.4,0,4.4-2,4.4-4.4c0-2.4-2-4.4-4.4-4.4c-2.4,0-4.4,2-4.4,4.4C51.4,14.7,53.4,16.7,55.8,16.7"/>
	<path class="st0" d="M49.3,12.3c0-3,2.4-6.2,6.5-6l-2.5-2.4c-4.8,1.5-6.9,5-6.7,8.4v0c-0.1,3.4,2,6.8,6.7,8.4l2.5-2.4
		C51.7,18.4,49.3,15.3,49.3,12.3L49.3,12.3"/>
	<path class="st0" d="M42,12.3c0-0.6-0.4-6.5,7.4-12.3l2.4,2.3c-7,2.9-7,8.5-7.1,10.1v0c0.1,1.6,0.1,7.1,7.1,10.1l-2.4,2.3
		C41.6,18.8,42,12.9,42,12.3L42,12.3"/>
	<path class="st0" d="M36.8,12.3L41.3,8c-1.5,2.4-1.4,6.2-0.1,8.6L36.8,12.3"/>
	<path class="st0" d="M32.1,27.8c-0.4-1.6-1.5-2.9-3.4-2.9c-0.8,0-1.7,0.3-2.3,0.9c-0.6,0.6-1.3,1.6-1.3,3.8c0,3.3,1.9,4.7,3.8,4.7
		c1.9,0,3-1.1,3.5-1.6l0.3,0.3c0,0-1.4,2-4.2,2c-2.5,0-5.2-1.5-5.2-5.4c0-3.5,2.6-5.4,5.3-5.4c1.4,0,2.4,0.5,2.7,0.5
		c0.1,0,0.6,0,0.7-0.5h0.3l0.1,3.5L32.1,27.8"/>
	<path class="st0" d="M37.3,30.6c-2.3,0.8-2.5,1.6-2.5,2.2v0c0,0.7,0.5,1.2,1,1.2c0.3,0,0.8-0.2,1-0.3c0.5-0.2,0.5-0.4,0.5-0.9
		L37.3,30.6 M39.7,34.2c-0.7,0.8-1.1,0.8-1.4,0.8c-0.3,0-0.9,0-1-1.1c-0.6,0.5-1.4,1.1-2.3,1.1c-0.8,0-1.6-0.6-1.6-1.6
		c0-1.6,1.4-2.1,3.9-3.1v-0.9c0-1.1-0.7-1.3-1.2-1.3c-0.5,0-1.1,0.3-1.1,0.8c0,0.2,0.1,0.5,0.1,0.6c0,0.3-0.3,0.7-0.7,0.7
		c-0.5,0-0.7-0.4-0.7-0.7c0-0.6,0.7-1.7,2.5-1.7c2.3,0,2.3,1.6,2.3,2.5v3c0,0.5,0,0.9,0.5,0.9c0.3,0,0.5-0.2,0.7-0.3L39.7,34.2
		L39.7,34.2z"/>
	<path class="st0" d="M41.2,29.5c0-1-0.3-1-0.5-1c-0.2,0-0.4,0-0.5,0.1v-0.3c0.7-0.2,1.5-0.4,2.2-0.7l0.1,0v1.2
		c0.9-0.7,1.6-1.2,2.4-1.2c1,0,1.5,0.7,1.7,1.3c0.3-0.4,1.3-1.3,2.5-1.3c1.6,0,1.8,1.6,1.8,2.8v3.2c0,0.3,0,0.8,0.7,0.9l0.4,0v0.2
		h-3.4v-0.2c0.8-0.1,1-0.1,1-1.1v-3.3c0-0.8,0-1.7-1.1-1.7c-0.9,0-1.4,0.4-1.7,0.9v3.9c0,1.2,0.5,1.2,1.1,1.2v0.2h-3.5v-0.2
		c0.7,0,1.1-0.1,1.1-1.1v-3.4c0-1-0.3-1.6-1.1-1.6c-1.1,0-1.8,0.8-1.8,0.9v4.4c0,0.8,0.5,0.8,1.1,0.8v0.2h-3.5v-0.2
		c0.6,0,1.1,0,1.1-1.1L41.2,29.5"/>
	<path class="st0" d="M58,32.3c-0.2,0.5-1.1,2.6-3.3,2.6c-1.7,0-2.9-1.3-2.9-3.5c0-2.9,1.9-3.8,3.2-3.8c1.5,0,2.6,0.8,2.7,2.8h-4.8
		c0.2,2.8,1.4,3.4,2.5,3.4c1.4,0,2.1-1.1,2.4-1.6L58,32.3 M56.1,30c-0.1-0.7-0.3-1.8-1.5-1.8c-0.9,0-1.5,0.4-1.7,1.8H56.1z"/>
	<path class="st0" d="M64.6,32.5c-0.8,1.8-1.9,2.4-3.1,2.4c-1.2,0-2.9-1-2.9-3.5c0-2.6,1.8-3.8,3.5-3.8c0.6,0,1.3,0.2,1.6,0.5
		c0.5,0.3,0.7,0.8,0.7,1.1c0,0.4-0.2,0.7-0.7,0.7c-0.4,0-0.7-0.4-0.8-0.7l-0.1-0.3c-0.1-0.5-0.2-0.7-1-0.7c-0.6,0-2,0.5-2,2.8
		c0,1.8,1.1,3,2.4,3c1.1,0,1.7-0.7,2.2-1.5L64.6,32.5"/>
	<path class="st0" d="M71.8,31.2c0,1.5-1.1,3.7-3.5,3.7c-2,0-3.4-1.6-3.4-3.7c0-1.9,1.3-3.6,3.4-3.6C70.3,27.6,71.8,29,71.8,31.2
		 M70.4,31.7c0-1.9-0.8-3.6-2.2-3.6c-1,0-1.8,0.8-1.8,2.4c0,1.2,0.4,4,2.2,4C69.3,34.5,70.4,33.9,70.4,31.7z"/>
</g>
</svg>
