<?xml version="1.0" encoding="utf-8"?>
<!-- Generator: Adobe Illustrator 26.0.1, SVG Export Plug-In . SVG Version: 6.00 Build 0)  -->
<svg version="1.1" id="Layer_1" xmlns="http://www.w3.org/2000/svg" xmlns:xlink="http://www.w3.org/1999/xlink" x="0px" y="0px"
	 viewBox="0 0 95 35" style="enable-background:new 0 0 95 35;" xml:space="preserve">
<style type="text/css">
	.st0{fill:#FFFFFF;}
</style>
<g id="g1845">
	<g id="g1851" transform="translate(490.0297,748.8145)">
		<path id="path1853" class="st0" d="M-464.5-740.5c-1.9,0-3.4,0.6-4.7,1.8v-7.6h-2.8v22.3h2.8v-9.2c0-2.7,1.9-4.6,4.5-4.6
			c2.5,0,4,1.6,4,4.4v9.5h2.8v-9.7C-457.9-737.8-460.6-740.5-464.5-740.5"/>
	</g>
	<g id="g1855" transform="translate(503.2209,734.71)">
		<path id="path1857" class="st0" d="M-467-715c0-1.7,1.6-2.8,4.2-2.8c1.8,0,3.2,0.3,4.3,0.5v1.1c0,2.2-2.1,3.9-4.9,3.9
			C-465.2-712.2-467-713.1-467-715L-467-715z M-462.6-726.3c-2.3,0-4.1,0.7-5.5,1.3l-0.6,0.3l1.1,2.5l0.7-0.3
			c1.5-0.8,2.9-1.1,4.3-1.1c1.9,0,4.1,0.6,4.2,3.6c-1.1-0.3-2.4-0.5-4.2-0.5c-4.3,0-7.2,2.2-7.2,5.5v0.1c0,3.5,3.3,5.3,6.4,5.3
			c2.3,0,3.9-0.9,5-1.8v1.4h2.8v-9.9C-455.8-723.8-458.3-726.3-462.6-726.3"/>
	</g>
	<g id="g1859" transform="translate(522.6021,745.2665)">
		<path id="path1861" class="st0" d="M-470.8-734.1v-2.5h-2.8v16.2h2.8v-6.8c0-4.6,2.9-6.7,5.7-6.7h0.8v-2.9h-0.7
			C-467.1-736.8-469.2-735.9-470.8-734.1"/>
	</g>
	<g id="g1863" transform="translate(540.4329,731.3849)">
		<path id="path1865" class="st0" d="M-474.2-709c-1.6,0-2.3-0.7-2.3-2.2v-8.8h5.2v-2.9h-5.2v-4.5h-2.8v4.5h-1.9v2.9h1.9v9
			c0,2.9,1.9,4.7,4.8,4.7c1,0,1.8-0.2,2.7-0.6l0.4-0.2v-2.8l-1,0.4C-473-709.1-473.5-709-474.2-709"/>
	</g>
	<g id="g1867" transform="translate(553.2859,745.5115)">
		<path id="path1869" class="st0" d="M-476.6-734.5c2.9,0,4.2,2.2,4.5,4.4h-9.2C-480.8-732.7-479-734.5-476.6-734.5 M-476.6-737.2
			c-4.3,0-7.7,3.7-7.7,8.4v0.1c0,4.8,3.4,8.4,7.9,8.4c3.4,0,5.3-1.6,6.6-3l0.5-0.5l-2-1.8l-0.5,0.5c-1.3,1.4-2.8,2.1-4.6,2.1
			c-2.1,0-4.5-1.4-5-4.5h12.2l0-0.6l0-0.6v-0.1C-469.1-733.7-472.2-737.2-476.6-737.2"/>
	</g>
	<g id="g1871" transform="translate(575.1917,748.6702)">
		<path id="path1873" class="st0" d="M-480.8-740.2c-2.3-0.1-4.4,1-5.9,2.8v-2.5h-2.8v16.2h2.8v-6.8c0-4.6,2.9-6.7,5.7-6.7h0.8v-2.9
			L-480.8-740.2z"/>
	</g>
	<g id="g1875" transform="translate(476.5979,733.5817)">
		<path id="path1877" class="st0" d="M-461.9-712.9c-1.5,1.2-2.9,1.8-4.7,1.8c-4,0-7.1-3.7-7.1-8.4c0-4.8,3.1-8.4,7.1-8.4
			c1.7,0,3.1,0.5,4.5,1.6l0.5,0.4l2.1-2.1l-0.6-0.5c-1.2-1-3.1-2.3-6.5-2.3c-5.7,0-10,4.8-10,11.2c0,6.4,4.3,11.2,9.9,11.2
			c3.4,0,5.4-1.5,6.7-2.6l0.5-0.5l-1.9-1.9L-461.9-712.9z"/>
	</g>
	<g id="g1879" transform="translate(460.4977,721.6311)">
		<path id="path1881" class="st0" d="M-458.8-691.3L-458.8-691.3c0-1.2,0.9-2.2,2.2-2.2c0.8,0,1.2,0.3,1.6,0.7l-0.5,0.5
			c-0.3-0.3-0.7-0.5-1.2-0.5c-0.8,0-1.4,0.7-1.4,1.5v0c0,0.8,0.6,1.5,1.4,1.5c0.5,0,0.8-0.2,1.2-0.5l0.5,0.5
			c-0.4,0.5-0.9,0.7-1.7,0.7C-457.9-689.2-458.8-690.1-458.8-691.3"/>
	</g>
	<g id="g1883" transform="translate(473.0139,721.6311)">
		<path id="path1885" class="st0" d="M-461.2-691.3L-461.2-691.3c0-0.8-0.6-1.5-1.4-1.5c-0.8,0-1.4,0.7-1.4,1.5v0
			c0,0.8,0.6,1.5,1.4,1.5C-461.8-689.8-461.2-690.5-461.2-691.3 M-464.9-691.3L-464.9-691.3c0-1.2,0.9-2.2,2.2-2.2
			c1.3,0,2.2,1,2.2,2.2v0c0,1.2-0.9,2.2-2.2,2.2C-464-689.2-464.9-690.1-464.9-691.3"/>
	</g>
	<g id="g1887" transform="translate(477.7657,724.2513)">
		<path id="path1889" class="st0" d="M-462.1-696.1h0.8l1.3,2l1.3-2h0.8v4.2h-0.7v-3l-1.3,2h0l-1.3-2v3h-0.7V-696.1z"/>
	</g>
	<g id="g1891" transform="translate(486.9024,724.2513)">
		<path id="path1893" class="st0" d="M-463.9-696.1h0.8l1.3,2l1.3-2h0.8v4.2h-0.7v-3l-1.3,2h0l-1.3-2v3h-0.7V-696.1z"/>
	</g>
	<g id="g1895" transform="translate(495.9571,721.2515)">
		<path id="path1897" class="st0" d="M-465.6-690.6v-2.4h0.7v2.4c0,0.8,0.4,1.2,1.1,1.2c0.7,0,1.1-0.4,1.1-1.2v-2.4h0.7v2.4
			c0,1.3-0.7,1.9-1.8,1.9C-464.9-688.8-465.6-689.4-465.6-690.6"/>
	</g>
	<g id="g1899" transform="translate(504.349,724.2513)">
		<path id="path1901" class="st0" d="M-467.2-696.1h0.7l2.3,2.9v-2.9h0.7v4.2h-0.6l-2.3-3v3h-0.7V-696.1z"/>
	</g>
	<path id="path1903" class="st0" d="M44.1,28.2h0.7v4.2h-0.7V28.2z"/>
	<g id="g1905" transform="translate(517.7224,721.6311)">
		<path id="path1907" class="st0" d="M-469.8-691.3L-469.8-691.3c0-1.2,0.9-2.2,2.2-2.2c0.8,0,1.2,0.3,1.6,0.7l-0.5,0.5
			c-0.3-0.3-0.7-0.5-1.2-0.5c-0.8,0-1.4,0.7-1.4,1.5v0c0,0.8,0.6,1.5,1.4,1.5c0.5,0,0.8-0.2,1.2-0.5l0.5,0.5
			c-0.4,0.5-0.9,0.7-1.7,0.7C-468.9-689.2-469.8-690.1-469.8-691.3"/>
	</g>
	<g id="g1909" transform="translate(529.2858,721.1097)">
		<path id="path1911" class="st0" d="M-472-690.4l-0.7-1.7l-0.7,1.7H-472z M-473.1-693h0.7l1.9,4.2h-0.8l-0.4-1h-2l-0.4,1h-0.8
			L-473.1-693z"/>
	</g>
	<g id="g1913" transform="translate(535.3029,723.4028)">
		<path id="path1915" class="st0" d="M-473.2-694.5h-1.3v-0.7h3.4v0.7h-1.3v3.5h-0.7V-694.5z"/>
	</g>
	<path id="path1917" class="st0" d="M67.2,28.2h0.7v4.2h-0.7V28.2z"/>
	<g id="g1919" transform="translate(550.8201,721.6311)">
		<path id="path1921" class="st0" d="M-476.2-691.3L-476.2-691.3c0-0.8-0.6-1.5-1.4-1.5s-1.4,0.7-1.4,1.5v0c0,0.8,0.6,1.5,1.4,1.5
			C-476.8-689.8-476.2-690.5-476.2-691.3 M-479.8-691.3L-479.8-691.3c0-1.2,0.9-2.2,2.2-2.2c1.3,0,2.2,1,2.2,2.2v0
			c0,1.2-0.9,2.2-2.2,2.2C-478.9-689.2-479.8-690.1-479.8-691.3"/>
	</g>
	<g id="g1923" transform="translate(555.5715,724.2513)">
		<path id="path1925" class="st0" d="M-477.1-696.1h0.7l2.3,2.9v-2.9h0.7v4.2h-0.6l-2.3-3v3h-0.7V-696.1z"/>
	</g>
	<g id="g1927" transform="translate(563.7777,719.7997)">
		<path id="path1929" class="st0" d="M-478.7-688l0.4-0.5c0.4,0.3,0.8,0.5,1.3,0.5c0.5,0,0.7-0.2,0.7-0.5v0c0-0.3-0.2-0.5-1-0.6
			c-0.9-0.2-1.4-0.5-1.4-1.3v0c0-0.7,0.6-1.2,1.4-1.2c0.6,0,1.1,0.2,1.5,0.5l-0.4,0.6c-0.4-0.3-0.8-0.4-1.1-0.4
			c-0.4,0-0.7,0.2-0.7,0.5v0c0,0.3,0.2,0.5,1,0.7c0.9,0.2,1.3,0.5,1.3,1.2v0c0,0.8-0.6,1.3-1.5,1.3
			C-477.5-687.3-478.1-687.6-478.7-688"/>
	</g>
</g>
</svg>
