<?xml version="1.0" encoding="utf-8"?>
<!-- Generator: Adobe Illustrator 26.0.1, SVG Export Plug-In . SVG Version: 6.00 Build 0)  -->
<svg version="1.1" id="Layer_1" xmlns="http://www.w3.org/2000/svg" xmlns:xlink="http://www.w3.org/1999/xlink" x="0px" y="0px"
	 viewBox="0 0 95 35" style="enable-background:new 0 0 95 35;" xml:space="preserve">
<style type="text/css">
	.st0{fill:#343741;}
</style>
<g>
	<path class="st0" d="M23.35,15.25c0,0.24-0.25,0.51-0.58,0.92c-1.12,1.38-3.63,3.84-3.63,9.93c0,3.15,0.52,4.46,0.52,5.94
		c0,0.67-0.13,1.02-0.48,1.02c-0.79,0-2.14-3.33-2.14-7.31c0-8.35,5.26-10.67,6.08-10.67C23.28,15.07,23.35,15.16,23.35,15.25
		 M10.08,15.07c0.81,0,6.08,2.32,6.08,10.67c0,3.99-1.34,7.31-2.13,7.31c-0.35,0-0.48-0.35-0.48-1.02c0-1.48,0.52-2.78,0.52-5.94
		c0-6.09-2.51-8.54-3.63-9.93c-0.33-0.41-0.58-0.68-0.58-0.92C9.85,15.16,9.92,15.07,10.08,15.07z"/>
	<path class="st0" d="M14.67,16.74c0,1.09,0.86,1.97,1.92,1.97c1.06,0,1.92-0.88,1.92-1.97c0-1.09-0.86-1.97-1.92-1.97
		C15.53,14.76,14.67,15.65,14.67,16.74"/>
	<path class="st0" d="M33.04,29.13c-2.73-1.68-6.9-3.43-12.93-3.98c-0.01,0.07-0.06,0.52-0.06,0.95c0,0.2,0.04,0.46,0.04,0.52
		c5.89,0.38,10.08,1.63,12.92,2.65c0.06,0.02,0.11,0.04,0.14,0.04c0.03,0,0.05-0.02,0.05-0.04C33.19,29.22,33.15,29.2,33.04,29.13
		 M19.72,6.63c-0.46-0.42-0.85-1.04-0.55-2.01c0.29-0.92,1-1.68,1.75-1.88c0.51,0.59,0.67,1.62,0.39,2.54
		C21.01,6.25,20.34,6.55,19.72,6.63z M24.16,10.33c-0.16-0.58-0.15-1.28,0.6-1.91c0.71-0.6,1.67-0.84,2.39-0.62
		c0.11,0.74-0.29,1.66-1,2.26C25.4,10.68,24.7,10.58,24.16,10.33z M24.3,15.9c0.19-0.55,0.59-1.12,1.54-1.23
		c0.91-0.1,1.82,0.24,2.28,0.81c-0.32,0.66-1.15,1.18-2.05,1.28C25.12,16.88,24.6,16.41,24.3,15.9z M22.69,17.92
		c0.31-0.42,0.79-0.8,1.63-0.64c0.8,0.15,1.49,0.68,1.73,1.29c-0.45,0.48-1.29,0.7-2.08,0.55C23.13,18.96,22.82,18.43,22.69,17.92z
		 M17.86,12.65c-0.55-0.5-1.02-1.25-0.66-2.41c0.34-1.11,1.2-2.01,2.1-2.26c0.61,0.71,0.8,1.94,0.46,3.05
		C19.41,12.19,18.6,12.55,17.86,12.65z M19.97,13.88c-0.18-0.65-0.16-1.44,0.67-2.15c0.8-0.67,1.88-0.95,2.69-0.69
		c0.12,0.84-0.33,1.86-1.13,2.54C21.37,14.28,20.58,14.16,19.97,13.88z M21.38,9.37c-0.4-0.64-0.65-1.51,0.03-2.55
		c0.65-0.99,1.73-1.64,2.69-1.63c0.4,0.87,0.25,2.13-0.4,3.12C23.03,9.35,22.13,9.48,21.38,9.37z M24.23,13.29
		c0.01-0.71,0.25-1.51,1.3-1.99c1-0.45,2.18-0.42,2.93,0.07c-0.12,0.88-0.87,1.8-1.88,2.25C25.53,14.1,24.77,13.75,24.23,13.29z
		 M15.05,5.16c0-1.34,0.63-2.63,1.55-3.21c0.92,0.58,1.55,1.87,1.55,3.21c0,1.41-0.77,2.08-1.55,2.44
		C15.81,7.24,15.05,6.57,15.05,5.16z M0,29.26c0,0.03,0.02,0.04,0.05,0.04c0.03,0,0.08-0.02,0.14-0.04
		c2.84-1.02,7.04-2.27,12.92-2.65c0.01-0.05,0.04-0.31,0.04-0.52c0-0.43-0.05-0.87-0.06-0.95c-6.03,0.55-10.19,2.3-12.93,3.98
		C0.05,29.2,0,29.22,0,29.26z M11.89,5.28c-0.29-0.92-0.12-1.95,0.39-2.54c0.76,0.2,1.47,0.96,1.75,1.88
		c0.3,0.97-0.09,1.6-0.55,2.01C12.86,6.55,12.19,6.25,11.89,5.28z M7.05,10.05c-0.71-0.6-1.11-1.51-1-2.26
		c0.72-0.23,1.68,0.02,2.39,0.62c0.74,0.63,0.75,1.34,0.6,1.91C8.49,10.58,7.79,10.68,7.05,10.05z M7.13,16.77
		c-0.9-0.1-1.73-0.62-2.05-1.28c0.46-0.58,1.37-0.91,2.28-0.81c0.95,0.1,1.35,0.67,1.54,1.23C8.59,16.41,8.08,16.88,7.13,16.77z
		 M9.23,19.12c-0.8,0.15-1.63-0.07-2.08-0.55c0.24-0.61,0.93-1.14,1.73-1.29c0.83-0.16,1.32,0.22,1.63,0.64
		C10.38,18.43,10.06,18.96,9.23,19.12z M13.43,11.03c-0.34-1.11-0.15-2.34,0.46-3.05c0.91,0.25,1.76,1.15,2.1,2.26
		c0.36,1.16-0.1,1.92-0.66,2.41C14.6,12.55,13.79,12.19,13.43,11.03z M10.99,13.57c-0.8-0.68-1.24-1.7-1.13-2.54
		c0.81-0.25,1.89,0.02,2.69,0.69c0.84,0.71,0.85,1.51,0.67,2.15C12.61,14.16,11.83,14.28,10.99,13.57z M9.49,8.31
		C8.85,7.31,8.7,6.06,9.1,5.19c0.96-0.01,2.05,0.64,2.69,1.63c0.68,1.04,0.43,1.91,0.03,2.55C11.06,9.48,10.17,9.35,9.49,8.31z
		 M6.61,13.62c-1-0.45-1.76-1.37-1.88-2.25c0.74-0.49,1.92-0.53,2.93-0.07c1.05,0.48,1.3,1.28,1.3,1.99
		C8.43,13.75,7.66,14.1,6.61,13.62z"/>
	<path class="st0" d="M67.19,25.15v-7.72c0-1.03-0.1-3.02-0.12-3.47h2.4l0.12,1.57h0.05c0.28-0.44,1.18-1.82,3.27-1.82
		c2.53,0,3.93,1.86,3.93,4.17v7.27h-2.67v-6.74c0-1.42-0.79-2.5-2.15-2.5c-1.4,0-2.15,1.13-2.15,2.5v6.74H67.19 M51.59,14h-2.67
		v11.16h2.67V14z M89.66,25.15c-0.09-0.62-0.34-2.27-0.34-3.69v-7.25c-0.42-0.11-1.93-0.51-3.67-0.51c-4.53,0-6.47,3.03-6.47,6.31
		c0,3.02,1.51,5.38,4.42,5.38c2.13,0,3.08-1.37,3.44-2.11h0.07c0.03,0.35,0.12,1.53,0.15,1.86H89.66z M86.65,19.62
		c0,2.56-1,3.63-2.45,3.63c-1.46,0-2.28-1.24-2.28-3.41c0-2.22,1.27-4.05,3.62-4.05c0.48,0,0.82,0.05,1.11,0.12V19.62z M46.25,22.43
		c-0.73,0.34-1.89,0.56-3.01,0.56c-3.07,0-5.33-2.19-5.33-5.54c0-3.32,2.24-5.54,5.33-5.54c1.53,0,2.62,0.37,3.01,0.56v-2.39
		c-0.67-0.25-1.76-0.5-3.29-0.5c-4.76,0-7.96,3.29-7.96,7.87c0,4.33,2.94,7.87,7.96,7.87c1.47,0,2.58-0.23,3.29-0.5V22.43z
		 M61.64,23.82v0.83c0,2.28-1.41,3.17-3.15,3.17c-1.57,0-2.72-0.47-3.09-0.6v2.26c0.3,0.08,1.57,0.48,3.39,0.48
		c3.23,0,5.38-1.33,5.38-5.89v-9.85c-0.41-0.11-1.93-0.51-3.67-0.51c-4.52,0-6.47,3.03-6.47,6.31c0,3.02,1.52,5.38,4.42,5.38
		c1.92,0,2.84-1.16,3.14-1.59H61.64z M61.5,19.62c0,2.56-1,3.63-2.45,3.63c-1.46,0-2.28-1.24-2.28-3.41c0-2.22,1.27-4.05,3.62-4.05
		c0.48,0,0.82,0.05,1.11,0.12V19.62z M48.6,11.08c0,0.9,0.74,1.62,1.65,1.62c0.91,0,1.65-0.72,1.65-1.62c0-0.89-0.74-1.62-1.65-1.62
		C49.34,9.46,48.6,10.18,48.6,11.08z"/>
	<path class="st0" d="M94.56,24.83c-0.29,0.29-0.64,0.44-1.05,0.44c-0.41,0-0.76-0.15-1.05-0.44c-0.29-0.29-0.43-0.64-0.43-1.05
		c0-0.41,0.14-0.76,0.44-1.05c0.29-0.29,0.64-0.43,1.05-0.43c0.41,0,0.76,0.14,1.05,0.43c0.29,0.29,0.44,0.64,0.44,1.05
		C95,24.18,94.86,24.54,94.56,24.83 M92.61,22.87c-0.25,0.25-0.37,0.55-0.37,0.9c0,0.36,0.12,0.66,0.37,0.91
		c0.25,0.25,0.55,0.38,0.9,0.38c0.35,0,0.65-0.13,0.9-0.38c0.25-0.25,0.37-0.55,0.37-0.91c0-0.35-0.12-0.66-0.37-0.9
		c-0.25-0.25-0.55-0.38-0.9-0.38C93.16,22.49,92.86,22.62,92.61,22.87z M93.48,22.95c0.2,0,0.35,0.02,0.45,0.06
		c0.17,0.07,0.25,0.21,0.25,0.41c0,0.15-0.05,0.25-0.16,0.32c-0.06,0.04-0.13,0.06-0.24,0.08c0.13,0.02,0.22,0.07,0.28,0.16
		c0.06,0.09,0.09,0.17,0.09,0.25v0.12c0,0.04,0,0.08,0,0.12c0,0.04,0.01,0.07,0.01,0.09l0.01,0.02h-0.27c0-0.01,0-0.01,0-0.02
		c0,0,0-0.01,0-0.02l0-0.05v-0.13c0-0.19-0.05-0.31-0.15-0.37c-0.06-0.04-0.17-0.05-0.32-0.05H93.2v0.64h-0.29v-1.63H93.48z
		 M93.8,23.21c-0.07-0.04-0.19-0.06-0.35-0.06H93.2v0.59h0.26c0.12,0,0.21-0.01,0.27-0.04c0.11-0.04,0.17-0.13,0.17-0.25
		C93.9,23.33,93.87,23.25,93.8,23.21z"/>
</g>
</svg>
