<?xml version="1.0" encoding="utf-8"?>
<!-- Generator: Adobe Illustrator 26.0.1, SVG Export Plug-In . SVG Version: 6.00 Build 0)  -->
<svg version="1.1" id="Layer_1" xmlns="http://www.w3.org/2000/svg" xmlns:xlink="http://www.w3.org/1999/xlink" x="0px" y="0px"
	 viewBox="0 0 95 35" style="enable-background:new 0 0 95 35;" xml:space="preserve">
<style type="text/css">
	.st0{fill-rule:evenodd;clip-rule:evenodd;fill:#FFFFFF;}
</style>
<g>
	<path class="st0" d="M58.37,15.03c0-0.77-1.24-0.83-1.77-0.83h-1.63l-1.11,3.96h1.21l0.35-1.39
		C56.66,16.78,58.37,16.65,58.37,15.03L58.37,15.03z M56.97,15.6c-0.14,0.27-0.52,0.45-0.83,0.45h-0.43l0.27-1.18h0.33
		c0.3,0,0.71,0.09,0.71,0.46L56.97,15.6L56.97,15.6z"/>
	<polygon class="st0" points="51.43,17.04 53.08,17.04 53.31,16.21 51.64,16.21 51.43,17.04 	"/>
	<polygon class="st0" points="70.23,16.71 70.09,14.21 68.35,14.21 67.42,18.16 68.39,18.16 69.11,15.33 69.26,18.16 70.41,18.16 
		71.95,15.33 71.31,18.16 72.39,18.16 73.33,14.21 71.57,14.21 70.23,16.71 	"/>
	<path class="st0" d="M60.31,14.21c-1.02,1.29-1.94,2.66-2.95,3.96h1.44l0.76-1.13h1.53l0.17,1.13h1.41
		c-0.08-0.09-0.76-3.58-0.8-3.96H60.31L60.31,14.21z M60.06,16.19l0.8-1.1l0.16,1.1H60.06L60.06,16.19z"/>
	<polygon class="st0" points="65.62,14.21 64.28,14.21 63.35,18.16 66.59,18.16 66.8,17.31 64.9,17.31 65.62,14.21 	"/>
	<path class="st0" d="M35.66,15.86l-0.19,0.85h0.51l-0.15,0.6c-0.08,0.08-0.42,0.1-0.53,0.1c-0.54,0-1.03-0.17-1.03-0.79
		c0-1.01,0.91-1.59,1.85-1.59c0.47,0,0.85,0.14,1.29,0.22l0.15-0.96c-0.51-0.02-1-0.18-1.52-0.18c-1.53,0-3.07,0.97-3.07,2.61
		c0,0.94,0.75,1.53,1.68,1.53h0.67c0.53,0,1.1-0.1,1.63-0.17l0.51-2.24H35.66L35.66,15.86z"/>
	<path class="st0" d="M22.83,15.05c0.34,0,0.65,0.12,0.97,0.14l0.11-0.92c-0.35-0.04-0.73-0.14-1.08-0.14
		c-1.52,0-3.03,0.95-3.03,2.57c0,0.96,0.83,1.57,1.77,1.57h0.47c0.3,0,0.68-0.05,0.97-0.1l0.32-0.96c-0.31,0.07-0.65,0.14-0.97,0.14
		H21.9c-0.46,0-0.79-0.4-0.79-0.83C21.11,15.61,21.96,15.05,22.83,15.05L22.83,15.05z"/>
	<polygon class="st0" points="46.96,18.16 50.39,18.16 50.56,17.31 48.48,17.31 48.65,16.6 50.43,16.6 50.6,15.75 48.84,15.75 
		49.01,15.05 51.11,15.05 51.32,14.21 47.9,14.21 46.96,18.16 	"/>
	<polygon class="st0" points="47.2,14.21 43.24,14.21 43.06,15.05 44.36,15.05 43.64,18.16 44.93,18.16 45.68,15.05 46.97,15.05 
		47.2,14.21 	"/>
	<path class="st0" d="M26.91,14.13c-1.53,0-3.07,0.99-3.07,2.62c0,0.95,0.93,1.52,1.83,1.52h0.52c1.15,0,2.2-0.71,2.59-1.77
		c0.06-0.17,0.16-0.38,0.16-0.56v-0.45C28.94,14.53,27.71,14.13,26.91,14.13L26.91,14.13z M27.6,16.02c0,0.03-0.06,0.22-0.07,0.26
		c-0.14,0.49-0.33,0.79-0.83,0.98c-0.11,0.04-0.26,0.1-0.38,0.1h-0.37c-0.45,0-0.79-0.4-0.79-0.83c0-0.83,0.69-1.48,1.52-1.48
		c0.37,0,0.58,0.13,0.8,0.41c0.05,0.06,0.06,0.14,0.12,0.29V16.02L27.6,16.02z"/>
	<path class="st0" d="M41.86,14.21h-1.59c-0.91,1.34-1.92,2.68-2.92,3.96h1.44l0.76-1.13h1.55l0.19,1.13l1.39,0
		c-0.02-0.14-0.11-0.41-0.14-0.55C42.38,16.88,41.9,14.85,41.86,14.21L41.86,14.21z M40.06,16.19l0.76-1.1l0.21,1.1H40.06
		L40.06,16.19z"/>
	<polygon class="st0" points="31.39,14.21 30.11,14.21 29.18,18.16 32.37,18.16 32.58,17.31 30.69,17.31 31.39,14.21 	"/>
	<polygon class="st0" points="82.96,18.16 84.25,18.16 85.18,14.21 83.89,14.21 82.96,18.16 	"/>
	<path class="st0" d="M89.5,14.21l-1.95,2.96l-0.36-2.96h-1.36c0.04,1.02,0.47,2.03,0.57,3.04l0.11,0.92h1.55
		c0.97-1.3,1.83-2.69,2.84-3.96H89.5L89.5,14.21z"/>
	<polygon class="st0" points="81.08,14.21 79.78,14.21 78.85,18.16 82.09,18.16 82.26,17.31 80.36,17.31 81.08,14.21 	"/>
	<polygon class="st0" points="90.65,18.16 94.07,18.16 94.28,17.31 92.16,17.31 92.33,16.6 94.11,16.6 94.28,15.75 92.52,15.75 
		92.69,15.05 94.79,15.05 95,14.21 91.59,14.21 90.65,18.16 	"/>
	<path class="st0" d="M76.61,14.13c-1.45,0-3.04,0.96-3.04,2.53c0,1.01,0.82,1.61,1.81,1.61h0.52c1.2,0,2.73-1.05,2.73-2.33v-0.45
		C78.63,14.51,77.42,14.13,76.61,14.13L76.61,14.13z M76.02,17.35h-0.36c-0.33,0-0.77-0.34-0.77-0.68v-0.29
		c0-0.42,0.48-1.05,0.85-1.22c0.19-0.08,0.44-0.12,0.64-0.12c0.34,0,0.67,0.13,0.91,0.6c-0.01,0.08,0.03,0.19,0.03,0.28
		C77.31,16.58,76.74,17.35,76.02,17.35L76.02,17.35z"/>
	<path class="st0" d="M0,15.96c0,0,0.13-4.54,5.31-4.6H9.2l-0.87,3.84l-3.21,0.01c-1.07,0.01-1.27,0.89-1.27,0.89
		s-0.06,0.92,0.96,1.03l3.08,0L7,21.04l-1.8,0.01C-0.17,20.94,0,15.96,0,15.96L0,15.96z M17.2,15.96c0,0-0.23-4.54-5.41-4.6h-1.65
		l-0.86,3.84l2.71,0.01c1.07,0.01,1.27,0.89,1.27,0.89s0.06,0.92-0.96,1.03l-3.46,0l-1.5,6.5l3.66,0l0.61-2.59l0.29,0
		C17.26,20.94,17.2,15.96,17.2,15.96L17.2,15.96z"/>
</g>
</svg>
