<?xml version="1.0" encoding="utf-8"?>
<!-- Generator: Adobe Illustrator 26.0.1, SVG Export Plug-In . SVG Version: 6.00 Build 0)  -->
<svg version="1.1" id="Layer_1" xmlns="http://www.w3.org/2000/svg" xmlns:xlink="http://www.w3.org/1999/xlink" x="0px" y="0px"
	 viewBox="0 0 95 35" style="enable-background:new 0 0 95 35;" xml:space="preserve">
<style type="text/css">
	.st0{fill:#CCCCCC;}
</style>
<g id="layer1" transform="translate(160.3875,-1481.5407)">
	<g id="g3947" transform="matrix(0.24509671,0,0,0.24509671,-120.92607,1197.7672)">
		<path id="path3775" class="st0" d="M61.71,1239.69c-15.56,0-28.53,12.77-28.53,28.76c0,15.06,12.23,28.47,28.65,28.47
			c11.44,0,18.68-6.81,21.01-9.37l-3.95-3.88c-1.33,1.59-7.11,7.71-17.05,7.71c-13.41,0-23.1-10.85-23.1-22.92
			c0-12.99,10.45-23.21,22.98-23.21c10.68,0,16.24,6.63,16.24,6.63c1,1.16,2.75,1.3,3.91,0.31c1.17-1,1.3-2.75,0.31-3.91
			C82.17,1248.26,74.76,1239.69,61.71,1239.69z"/>
		<path id="path2998" class="st0" d="M-132.48,1239.69c-15.56,0-28.53,12.77-28.53,28.76c0,15.06,12.23,28.47,28.65,28.47
			c11.44,0,18.68-6.81,21.01-9.37l-3.95-3.88c-1.33,1.59-7.11,7.71-17.05,7.71c-13.41,0-23.1-10.85-23.1-22.92
			c0-12.99,10.45-23.21,22.98-23.21c10.68,0,16.24,6.63,16.24,6.63c1,1.16,2.75,1.3,3.91,0.31c1.17-1,1.3-2.75,0.31-3.91
			C-112.01,1248.26-119.43,1239.69-132.48,1239.69z"/>
		<path id="path3777" class="st0" d="M-73.64,1239.65c-14.19,0-28.62,11.17-28.62,28.87c0,16.12,13.31,28.38,28.84,28.38
			c17.76,0,28.38-15.06,28.38-28.58C-45.04,1253.48-57.09,1239.65-73.64,1239.65z M-73.64,1245.19c13.45,0,23.05,11.29,23.05,23.12
			c0,10.63-8.21,23.03-22.83,23.03c-12.63,0-23.29-9.75-23.29-22.83C-96.7,1253.8-84.97,1245.19-73.64,1245.19z"/>
		<path id="path3779" class="st0" d="M13.19,1239.61c-1.08,0.02-2.05,0.68-2.46,1.68l-16.69,40.9l-16.67-40.89
			c-0.57-1.38-2.14-2.04-3.52-1.47c-0.85,0.35-1.46,1.1-1.63,1.99l-9.56,51.99c-0.3,1.46,0.63,2.88,2.09,3.19
			c1.46,0.3,2.88-0.63,3.19-2.09c0.01-0.04,0.02-0.08,0.02-0.13l7.9-42.91l15.68,38.48c0.56,1.38,2.13,2.04,3.51,1.48
			c0.67-0.27,1.21-0.81,1.48-1.48l15.7-38.52l8.25,44.75h5.49l-10.11-54.78C15.64,1240.52,14.5,1239.59,13.19,1239.61z"/>
		<path id="path3794" class="st0" d="M115.03,1239.55c-1.08,0.02-2.04,0.68-2.45,1.67l-21.23,52.1c-0.56,1.38,0.1,2.95,1.48,3.52
			c1.38,0.56,2.95-0.1,3.52-1.48l0,0l18.74-45.99l19.25,47.24h5.83l-22.58-55.39C117.16,1240.19,116.15,1239.53,115.03,1239.55z"/>
		<path id="path3796" class="st0" d="M102.52,1269.96v5.55h24.09v-5.55H102.52z"/>
		<path id="path3811" class="st0" d="M165.32,1239.73c-3.97,0-7.95,1-11.11,3.32c-3.16,2.32-5.36,6.14-5.36,10.81
			c0,4.07,1.52,7.4,4.07,9.72c2.56,2.32,5.85,3.89,9.96,6.02c0.01,0.01,0.03,0.01,0.04,0.02c4.17,2.06,7.85,3.73,10.21,5.56
			c2.35,1.83,3.45,3.44,3.45,6.59c0,3.07-1.18,5.29-3.11,6.95c-1.93,1.65-4.69,2.65-7.7,2.65c-7.13,0-12.48-4.63-14.37-6.51
			l-4.1,3.75c2.34,2.41,9,8.31,18.47,8.31c4.21,0,8.25-1.36,11.31-3.97c3.06-2.61,5.05-6.56,5.05-11.17c0-4.78-2.4-8.47-5.59-10.96
			c-3.18-2.48-7.09-4.16-11.12-6.14c-0.01-0.01-0.03-0.01-0.04-0.02c-4.12-2.13-7.09-3.68-8.72-5.16c-1.64-1.49-2.26-2.67-2.26-5.62
			c0-3.07,1.16-4.92,3.1-6.34c1.94-1.42,4.8-2.24,7.82-2.24c5.35,0,9.87,2.92,9.87,2.92c1.23,0.91,2.97,0.65,3.88-0.58
			c0.91-1.23,0.65-2.97-0.58-3.88c-0.07-0.05-0.15-0.1-0.22-0.15C178.27,1243.59,172.65,1239.73,165.32,1239.73z"/>
		<path id="path3813" class="st0" d="M191.79,1240.01c-1.53-0.02-2.79,1.2-2.81,2.74c-0.02,1.53,1.2,2.79,2.73,2.81
			c0.03,0,0.05,0,0.08,0h32c1.53,0.02,2.79-1.2,2.81-2.74c0.02-1.53-1.2-2.79-2.74-2.81c-0.03,0-0.05,0-0.08,0H191.79z"/>
		<path id="path3815" class="st0" d="M205.21,1243.5v2.62v47.87v2.62h5.23v-2.62v-47.87v-2.62H205.21z"/>
		<g id="g3886" transform="matrix(1.1452003,0,0,1.1452003,388.66843,2039.8504)">
			<g id="g3898" transform="translate(-96.974644,-783.87837)">
				<path id="path3862" class="st0" d="M-247.02,30.86c-3.61,3.26-4.92,10.65,1.58,14.96l25.96,17.77l-12.59-28.77
					C-234.7,28.03-241.91,26.55-247.02,30.86"/>
				<path id="path3864" class="st0" d="M-224.67,16.87c-4.22,0.09-10.56,5.1-7.74,12.75l13.02,30.63l4.57-32.21
					C-213.76,20.03-219.83,16.34-224.67,16.87"/>
				<path id="path3866" class="st0" d="M-212.79,26.81h2.46c0,0,1.32,0,1.49,0.62c-0.97,0.79-3.61,0.89-3.26,5.1l4.14,27.72
					l12.93-30.71c2.65-6.86-2.91-12.58-7.83-12.76c-0.23-0.02-0.46-0.03-0.7-0.03C-207.97,16.75-213.03,19.96-212.79,26.81"/>
				<path id="path3868" class="st0" d="M-195.54,35.08l-12.23,28.42l25.95-17.86c5.98-4.23,5.02-11,1.67-14.35
					c-1.4-1.57-3.98-2.79-6.71-2.79C-190.09,28.51-193.54,30.21-195.54,35.08"/>
				<path id="path3870" class="st0" d="M-184.72,49.69l-24.37,16.98h30.01c6.16,0,10.11-6.33,8.35-12.14
					c-1.18-3.65-4.66-6.52-8.71-6.52C-181.14,48-182.95,48.51-184.72,49.69"/>
				<path id="path3872" class="st0" d="M-247.72,66.67h29.56l-24.38-16.98c-5.63-3.61-11.96-1.5-14.25,4.49
					C-258.72,61.04-253.88,66.67-247.72,66.67"/>
			</g>
		</g>
	</g>
</g>
</svg>
