<?xml version="1.0" encoding="utf-8"?>
<!-- Generator: Adobe Illustrator 26.0.1, SVG Export Plug-In . SVG Version: 6.00 Build 0)  -->
<svg version="1.1" id="Layer_1" xmlns="http://www.w3.org/2000/svg" xmlns:xlink="http://www.w3.org/1999/xlink" x="0px" y="0px"
	 viewBox="0 0 95 35" style="enable-background:new 0 0 95 35;" xml:space="preserve">
<style type="text/css">
	.st0{fill:#FFFFFF;}
</style>
<g>
	<path class="st0" d="M15.48,13.65v-0.03c0-3.14,2.49-5.57,5.75-5.57c1.87,0,3.1,0.64,4.12,1.59l-1.46,1.78
		c-0.83-0.78-1.58-1.19-2.82-1.19c-1.69,0-3.12,1.47-3.12,3.35v0.03c0,1.93,1.44,3.38,3.12,3.38c1.23,0,2.08-0.41,2.93-1.18
		l1.47,1.65c-1.17,1.13-2.4,1.72-4.48,1.72C18.37,19.19,15.48,17.11,15.48,13.65"/>
	<polyline class="st0" points="26.81,8.24 29.37,8.24 32.2,12.59 35.03,8.24 37.58,8.24 37.58,19 35.23,19 35.23,11.82 32.2,16.27 
		32.13,16.27 29.14,11.87 29.14,19 26.81,19 26.81,8.24 	"/>
	<polyline class="st0" points="39.73,8.24 47.85,8.24 47.85,10.34 42.12,10.34 42.12,12.53 47.31,12.53 47.31,14.64 42.12,14.64 
		42.12,16.9 47.93,16.9 47.93,19 39.73,19 39.73,8.24 	"/>
	<path class="st0" d="M51.36,13.65v-0.03c0-2.95,2.31-5.57,5.54-5.57c1.82,0,2.91,0.51,4.03,1.36l-0.74,0.96
		c-0.86-0.68-1.82-1.2-3.34-1.2c-2.38,0-4.23,2.01-4.23,4.41v0.03c0,2.57,1.83,4.48,4.45,4.48c1.18,0,2.37-0.44,3.06-1v-2.68h-3.18
		v-1.09h4.35v4.29c-0.96,0.85-2.51,1.57-4.28,1.57C53.63,19.19,51.36,16.73,51.36,13.65"/>
	<path class="st0" d="M63.39,11.05h1.19v1.68c0.65-1.24,1.82-1.88,3.25-1.82v1.28h-0.09c-0.85,0-1.74,0.3-2.31,0.88
		c-0.59,0.61-0.84,1.54-0.84,2.76v3.17h-1.19V11.05"/>
	<path class="st0" d="M68.31,15.07v-0.03c0-2.25,1.75-4.15,4.15-4.15c2.38,0,4.14,1.88,4.14,4.12v0.03c0,2.25-1.77,4.15-4.17,4.15
		C70.05,19.19,68.31,17.31,68.31,15.07 M75.39,15.07v-0.03c0-1.71-1.28-3.11-2.95-3.11c-1.72,0-2.91,1.4-2.91,3.08v0.03
		c0,1.71,1.26,3.09,2.94,3.09C74.19,18.13,75.39,16.74,75.39,15.07z"/>
	<path class="st0" d="M78.04,15.99v-4.94h1.19v4.65c0,1.48,0.8,2.4,2.2,2.4c0.67,0,1.31-0.23,1.73-0.66
		c0.43-0.44,0.65-1.08,0.65-1.83v-4.55h1.17V19h-1.17v-1.16c-0.58,0.82-1.4,1.33-2.72,1.33C79.17,19.17,78.04,17.88,78.04,15.99"/>
	<path class="st0" d="M86.97,11.05h1.18v1.48c0.65-0.95,1.63-1.65,3.05-1.65c1.91,0,3.8,1.51,3.8,4.12v0.03
		c0,2.6-1.88,4.14-3.8,4.14c-1.44,0-2.43-0.66-3.05-1.55v4.28h-1.18V11.05 M93.79,15.05v-0.03c0-1.88-1.29-3.08-2.8-3.08
		c-1.48,0-2.88,1.25-2.88,3.06v0.03c0,1.85,1.4,3.08,2.88,3.08C92.52,18.11,93.79,16.97,93.79,15.05z"/>
	<polyline class="st0" points="29.6,23.3 30.04,23.3 28.83,27.28 28.39,27.28 29.6,23.3 	"/>
	<path class="st0" d="M8.98,17.56h2.14l1.3-1.29v-0.35H9.55C9.41,16.54,9.21,17.09,8.98,17.56"/>
	<path class="st0" d="M7.67,19.36c-0.18,0.18-0.41,0.34-0.62,0.49h1.76l1.86-1.86H8.75C8.42,18.56,8.02,19.01,7.67,19.36"/>
	<path class="st0" d="M9.64,15.49h2.76v-1.64H9.8C9.79,14.45,9.73,14.99,9.64,15.49"/>
	<path class="st0" d="M9.55,11.36h2.86v-0.34l-1.3-1.3H8.97C9.2,10.19,9.4,10.73,9.55,11.36"/>
	<path class="st0" d="M3.66,17.99H1.72l1.87,1.86h1.76c-0.21-0.15-0.43-0.31-0.61-0.49C4.39,19.02,3.99,18.56,3.66,17.99"/>
	<path class="st0" d="M9.8,13.42h2.61v-1.64H9.64C9.73,12.28,9.79,12.83,9.8,13.42"/>
	<path class="st0" d="M4.74,7.94c0.19-0.19,0.42-0.35,0.65-0.5H3.59L1.73,9.29h1.94C4,8.72,4.4,8.28,4.74,7.94"/>
	<path class="st0" d="M7.39,8.26C7.07,7.94,6.74,7.69,6.42,7.49v1.8h1.8C7.96,8.87,7.66,8.52,7.39,8.26"/>
	<path class="st0" d="M8.74,9.29h1.94L8.82,7.44H7.03c0.22,0.15,0.46,0.32,0.65,0.5C8.01,8.28,8.41,8.72,8.74,9.29"/>
	<path class="st0" d="M2.85,15.92H0v0.35l1.29,1.29h2.14C3.2,17.09,3,16.54,2.85,15.92"/>
	<path class="st0" d="M3.44,9.72H1.3L0,11.02v0.34h2.86C3.01,10.73,3.21,10.19,3.44,9.72"/>
	<path class="st0" d="M2.77,11.79H0v1.64h2.61C2.62,12.83,2.68,12.28,2.77,11.79"/>
	<path class="st0" d="M2.61,13.85H0v1.64h2.76C2.67,14.99,2.62,14.45,2.61,13.85"/>
	<path class="st0" d="M3.31,11.36h2.68V9.72H3.93C3.69,10.18,3.47,10.72,3.31,11.36"/>
	<path class="st0" d="M6.42,17.56h2.06c0.08-0.15,0.15-0.31,0.23-0.48C8.87,16.71,9,16.32,9.1,15.92H6.42V17.56"/>
	<path class="st0" d="M6.42,15.49h2.77c0.1-0.52,0.16-1.07,0.17-1.64H6.42V15.49"/>
	<path class="st0" d="M6.42,19.81c0.33-0.2,0.66-0.46,0.99-0.77c0.23-0.23,0.53-0.58,0.83-1.05H6.42V19.81"/>
	<path class="st0" d="M6.42,9.72v1.64H9.1c-0.16-0.63-0.38-1.18-0.62-1.64H6.42"/>
	<path class="st0" d="M6.42,13.42h2.94c-0.01-0.6-0.07-1.14-0.17-1.64H6.42V13.42"/>
	<path class="st0" d="M4.18,9.29h1.8v-1.8c-0.32,0.2-0.65,0.45-0.97,0.76C4.74,8.53,4.45,8.87,4.18,9.29"/>
	<path class="st0" d="M3.92,17.56h2.06v-1.64H3.3C3.46,16.55,3.68,17.1,3.92,17.56"/>
	<path class="st0" d="M3.21,15.49h2.78v-1.64H3.04C3.05,14.45,3.11,15,3.21,15.49"/>
	<path class="st0" d="M3.04,13.42h2.94v-1.64H3.21C3.12,12.28,3.06,12.82,3.04,13.42"/>
	<path class="st0" d="M5.02,19.04c0.32,0.31,0.65,0.56,0.97,0.76v-1.82H4.17C4.44,18.42,4.74,18.77,5.02,19.04"/>
	<path class="st0" d="M16.64,23.67h0.5l1.08,3.05h-0.53L17.45,26H16.3l-0.25,0.72h-0.48L16.64,23.67 M17.3,25.54l-0.42-1.23h-0.01
		l-0.42,1.23H17.3z"/>
	<path class="st0" d="M19.42,25.24c0-0.99,0.55-1.52,1.29-1.52c0.68,0,1.01,0.38,1.14,0.91l-0.47,0.13
		c-0.11-0.39-0.28-0.59-0.67-0.59c-0.5,0-0.78,0.39-0.78,1.05c0,0.7,0.3,1.08,0.79,1.08c0.38,0,0.59-0.19,0.71-0.63l0.47,0.11
		c-0.14,0.58-0.5,0.98-1.18,0.98C19.96,26.77,19.42,26.25,19.42,25.24"/>
	<path class="st0" d="M22.41,23.78h0.65l0.78,2.33h0.01l0.76-2.33h0.67v2.94H24.8v-2.19h-0.01c-0.04,0.2-0.11,0.39-0.17,0.6
		l-0.57,1.59h-0.44l-0.57-1.59c-0.07-0.21-0.11-0.34-0.18-0.62h-0.01v2.21h-0.45V23.78"/>
	<polyline class="st0" points="25.95,23.78 27.84,23.78 27.84,24.24 26.45,24.24 26.45,24.97 27.47,24.97 27.47,25.41 26.45,25.41 
		26.45,26.27 27.92,26.27 27.92,26.72 25.95,26.72 25.95,23.78 	"/>
	<path class="st0" d="M30.4,25.19c0-1.02,0.57-1.57,1.33-1.57c0.71,0,1.04,0.39,1.18,0.95l-0.49,0.14c-0.12-0.4-0.29-0.61-0.69-0.61
		c-0.51,0-0.81,0.4-0.81,1.09c0,0.72,0.31,1.12,0.82,1.12c0.39,0,0.62-0.2,0.73-0.65l0.49,0.11c-0.15,0.6-0.52,1.01-1.22,1.01
		C30.95,26.78,30.4,26.24,30.4,25.19"/>
	<path class="st0" d="M33.43,23.68h0.51v1.15c0.14-0.15,0.4-0.34,0.8-0.34c0.38,0,0.63,0.23,0.63,0.66v1.56h-0.51v-1.44
		c0-0.24-0.1-0.35-0.32-0.35c-0.22,0-0.41,0.12-0.59,0.28v1.51h-0.51V23.68"/>
	<path class="st0" d="M35.92,23.72h0.52v0.44h-0.52V23.72z M35.92,24.54h0.51v2.18h-0.51V24.54z"/>
	<path class="st0" d="M36.9,25.63c0-0.83,0.56-1.13,1.05-1.13c0.54,0,0.77,0.3,0.9,0.64l-0.43,0.15c-0.09-0.25-0.24-0.37-0.48-0.37
		c-0.29,0-0.53,0.19-0.53,0.71c0,0.46,0.19,0.72,0.52,0.72c0.23,0,0.39-0.07,0.51-0.38l0.42,0.15c-0.16,0.35-0.41,0.64-0.94,0.64
		C37.41,26.77,36.9,26.43,36.9,25.63"/>
	<path class="st0" d="M39.1,26.19c0-0.47,0.4-0.79,1.42-0.9v-0.07c0-0.22-0.12-0.31-0.36-0.31c-0.3,0-0.55,0.15-0.74,0.3l-0.25-0.32
		c0.23-0.22,0.6-0.39,1.05-0.39c0.58,0,0.78,0.28,0.78,0.79v0.9c0,0.26,0.02,0.42,0.06,0.53h-0.51c-0.03-0.09-0.05-0.16-0.05-0.28
		c-0.22,0.23-0.48,0.31-0.8,0.31C39.36,26.75,39.1,26.55,39.1,26.19 M40.52,26.11v-0.48c-0.6,0.08-0.92,0.23-0.92,0.47
		c0,0.17,0.12,0.26,0.3,0.26C40.16,26.36,40.36,26.26,40.52,26.11z"/>
	<path class="st0" d="M41.33,27.03c0-0.22,0.14-0.37,0.36-0.46c-0.11-0.06-0.17-0.15-0.17-0.27c0-0.16,0.13-0.3,0.3-0.4
		c-0.22-0.14-0.34-0.36-0.34-0.63c0-0.45,0.34-0.78,0.92-0.78c0.3,0,0.52,0.1,0.67,0.23c0.14-0.11,0.36-0.2,0.54-0.21v0.41
		c-0.1,0-0.24,0.01-0.38,0.06c0.05,0.08,0.08,0.18,0.08,0.3c0,0.46-0.34,0.78-0.91,0.78c-0.12,0-0.2-0.02-0.3-0.05
		c-0.07,0.04-0.11,0.08-0.11,0.14c0,0.09,0.06,0.12,0.25,0.13l0.39,0.02c0.64,0.04,0.9,0.21,0.9,0.59c0,0.45-0.45,0.67-1.13,0.67
		C41.63,27.56,41.33,27.35,41.33,27.03 M43.06,26.95c0-0.16-0.11-0.21-0.55-0.24l-0.38-0.02c-0.04,0-0.09,0-0.13-0.01
		c-0.14,0.07-0.2,0.17-0.2,0.28c0,0.19,0.22,0.25,0.66,0.25C42.83,27.2,43.06,27.1,43.06,26.95z M42.83,25.29
		c0-0.27-0.16-0.42-0.44-0.42c-0.28,0-0.44,0.15-0.44,0.42c0,0.27,0.17,0.41,0.45,0.41C42.66,25.71,42.83,25.56,42.83,25.29z"/>
	<path class="st0" d="M43.76,25.63c0-0.8,0.53-1.13,1.06-1.13c0.53,0,1.06,0.33,1.06,1.13c0,0.8-0.53,1.13-1.06,1.13
		C44.3,26.77,43.76,26.43,43.76,25.63 M45.38,25.63c0-0.41-0.17-0.7-0.55-0.7c-0.36,0-0.55,0.26-0.55,0.7
		c0,0.42,0.17,0.71,0.55,0.71C45.19,26.34,45.38,26.08,45.38,25.63z"/>
	<path class="st0" d="M47.42,23.68h1.15c0.61,0,1.06,0.2,1.06,0.76c0,0.42-0.23,0.64-0.54,0.7v0.01c0.37,0.07,0.63,0.28,0.63,0.74
		c0,0.56-0.46,0.83-1.07,0.83h-1.22V23.68 M48.52,24.95c0.4,0,0.61-0.12,0.61-0.42c0-0.29-0.18-0.4-0.61-0.4h-0.6v0.82H48.52z
		 M48.59,26.28c0.44,0,0.62-0.14,0.62-0.44c0-0.32-0.25-0.45-0.68-0.45h-0.61v0.89H48.59z"/>
	<path class="st0" d="M50.09,25.63c0-0.8,0.53-1.13,1.06-1.13c0.53,0,1.06,0.33,1.06,1.13c0,0.8-0.53,1.13-1.06,1.13
		C50.62,26.77,50.09,26.43,50.09,25.63 M51.71,25.63c0-0.41-0.17-0.7-0.55-0.7c-0.37,0-0.55,0.26-0.55,0.7
		c0,0.42,0.17,0.71,0.55,0.71C51.52,26.34,51.71,26.08,51.71,25.63z"/>
	<path class="st0" d="M52.48,26.19c0-0.47,0.4-0.79,1.42-0.9v-0.07c0-0.22-0.11-0.31-0.36-0.31c-0.3,0-0.55,0.15-0.74,0.3
		l-0.25-0.32c0.24-0.22,0.6-0.39,1.05-0.39c0.58,0,0.78,0.28,0.78,0.79v0.9c0,0.26,0.02,0.42,0.06,0.53h-0.51
		c-0.03-0.09-0.05-0.16-0.05-0.28c-0.22,0.23-0.48,0.31-0.8,0.31C52.74,26.75,52.48,26.55,52.48,26.19 M53.9,26.11v-0.48
		c-0.6,0.08-0.92,0.23-0.92,0.47c0,0.17,0.12,0.26,0.3,0.26C53.54,26.36,53.74,26.26,53.9,26.11z"/>
	<path class="st0" d="M54.94,24.54h0.5v0.36h0.01c0.14-0.22,0.37-0.4,0.78-0.4h0.03l-0.02,0.46c-0.03,0-0.11-0.01-0.14-0.01
		c-0.33,0-0.53,0.15-0.67,0.39v1.38h-0.5V24.54"/>
	<path class="st0" d="M56.41,25.64c0-0.76,0.37-1.14,0.93-1.14c0.23,0,0.46,0.09,0.62,0.27v-1.09h0.51v2.5
		c0,0.26,0.01,0.42,0.07,0.53h-0.52c-0.03-0.06-0.05-0.19-0.05-0.3c-0.16,0.18-0.37,0.33-0.69,0.33
		C56.77,26.75,56.41,26.39,56.41,25.64 M57.96,26.06v-0.87c-0.14-0.18-0.33-0.27-0.51-0.27c-0.38,0-0.54,0.25-0.54,0.73
		c0,0.46,0.2,0.69,0.52,0.69C57.64,26.34,57.84,26.21,57.96,26.06z"/>
	<path class="st0" d="M59.88,25.63c0-0.8,0.53-1.13,1.06-1.13c0.53,0,1.06,0.33,1.06,1.13c0,0.8-0.53,1.13-1.06,1.13
		C60.41,26.77,59.88,26.43,59.88,25.63 M61.5,25.63c0-0.41-0.17-0.7-0.56-0.7c-0.36,0-0.55,0.26-0.55,0.7
		c0,0.42,0.17,0.71,0.55,0.71C61.31,26.34,61.5,26.08,61.5,25.63z"/>
	<path class="st0" d="M62.6,24.94h-0.38v-0.4h0.38v-0.22c0-0.36,0.15-0.65,0.71-0.65c0.09,0,0.26,0.02,0.3,0.02v0.39
		c-0.03-0.01-0.12-0.02-0.17-0.02c-0.18,0-0.33,0.05-0.33,0.28v0.19h0.48v0.4H63.1v1.78h-0.5V24.94"/>
	<polyline class="st0" points="65.61,24.16 64.67,24.16 64.67,23.68 67.06,23.68 67.06,24.16 66.12,24.16 66.12,26.72 65.61,26.72 
		65.61,24.16 	"/>
	<path class="st0" d="M66.94,24.54h0.5v0.36h0.01c0.14-0.22,0.37-0.4,0.78-0.4h0.03l-0.02,0.46c-0.02,0-0.11-0.01-0.14-0.01
		c-0.32,0-0.53,0.15-0.67,0.39v1.38h-0.5V24.54"/>
	<path class="st0" d="M68.42,26.19c0-0.47,0.4-0.79,1.42-0.9v-0.07c0-0.22-0.12-0.31-0.36-0.31c-0.3,0-0.55,0.15-0.73,0.3
		l-0.25-0.32c0.23-0.22,0.6-0.39,1.05-0.39c0.58,0,0.78,0.28,0.78,0.79v0.9c0,0.26,0.02,0.42,0.06,0.53h-0.51
		c-0.03-0.09-0.05-0.16-0.05-0.28c-0.22,0.23-0.48,0.31-0.81,0.31C68.68,26.75,68.42,26.55,68.42,26.19 M69.84,26.11v-0.48
		c-0.6,0.08-0.92,0.23-0.92,0.47c0,0.17,0.12,0.26,0.3,0.26C69.48,26.36,69.68,26.26,69.84,26.11z"/>
	<path class="st0" d="M70.76,25.64c0-0.76,0.37-1.14,0.93-1.14c0.24,0,0.47,0.09,0.62,0.27v-1.09h0.51v2.5
		c0,0.26,0.02,0.42,0.06,0.53h-0.52c-0.03-0.06-0.05-0.19-0.05-0.3c-0.16,0.18-0.37,0.33-0.7,0.33
		C71.12,26.75,70.76,26.39,70.76,25.64 M72.32,26.06v-0.87c-0.14-0.18-0.33-0.27-0.51-0.27c-0.38,0-0.54,0.25-0.54,0.73
		c0,0.46,0.2,0.69,0.52,0.69C71.99,26.34,72.2,26.21,72.32,26.06z"/>
	<path class="st0" d="M73.26,25.63c0-0.83,0.59-1.13,1.04-1.13c0.49,0,0.96,0.29,0.96,1.18v0.12h-1.49
		c0.02,0.39,0.26,0.57,0.58,0.57c0.28,0,0.45-0.1,0.61-0.26l0.27,0.26c-0.23,0.25-0.53,0.39-0.91,0.39
		C73.77,26.76,73.26,26.43,73.26,25.63 M74.8,25.42c-0.03-0.33-0.19-0.51-0.5-0.51c-0.25,0-0.47,0.14-0.52,0.51H74.8z"/>
	<path class="st0" d="M76.61,25.19c0-1.02,0.57-1.57,1.34-1.57c0.71,0,1.04,0.39,1.18,0.95l-0.49,0.14
		c-0.11-0.4-0.29-0.61-0.69-0.61c-0.51,0-0.81,0.4-0.81,1.09c0,0.72,0.31,1.12,0.82,1.12c0.39,0,0.62-0.2,0.73-0.65l0.49,0.11
		c-0.15,0.6-0.52,1.01-1.22,1.01C77.16,26.78,76.61,26.24,76.61,25.19"/>
	<path class="st0" d="M79.47,25.63c0-0.8,0.53-1.13,1.06-1.13c0.53,0,1.06,0.33,1.06,1.13c0,0.8-0.53,1.13-1.06,1.13
		C80.01,26.77,79.47,26.43,79.47,25.63 M81.09,25.63c0-0.41-0.17-0.7-0.55-0.7c-0.36,0-0.55,0.26-0.55,0.7
		c0,0.42,0.17,0.71,0.55,0.71C80.9,26.34,81.09,26.08,81.09,25.63z"/>
	<path class="st0" d="M82.04,24.54h0.51v0.3c0.17-0.19,0.42-0.34,0.75-0.34c0.37,0,0.51,0.14,0.59,0.36
		c0.17-0.19,0.43-0.36,0.76-0.36c0.44,0,0.64,0.27,0.64,0.66v1.56h-0.5v-1.44c0-0.24-0.07-0.35-0.31-0.35
		c-0.2,0-0.37,0.11-0.56,0.28v1.51h-0.51v-1.44c0-0.24-0.07-0.35-0.31-0.35c-0.2,0-0.37,0.11-0.56,0.28v1.51h-0.51V24.54"/>
	<path class="st0" d="M85.84,24.54h0.5v0.29c0.14-0.17,0.37-0.33,0.69-0.33c0.5,0,0.86,0.37,0.86,1.13c0,0.76-0.37,1.12-0.93,1.12
		c-0.23,0-0.46-0.09-0.62-0.27v1.06h-0.5V24.54 M87.39,25.63c0-0.46-0.2-0.7-0.52-0.7c-0.21,0-0.41,0.13-0.53,0.28v0.87
		c0.14,0.18,0.33,0.27,0.51,0.27C87.24,26.35,87.39,26.12,87.39,25.63z"/>
	<path class="st0" d="M88.16,26.19c0-0.47,0.4-0.79,1.42-0.9v-0.07c0-0.22-0.12-0.31-0.36-0.31c-0.3,0-0.55,0.15-0.73,0.3
		l-0.25-0.32c0.23-0.22,0.6-0.39,1.05-0.39c0.58,0,0.78,0.28,0.78,0.79v0.9c0,0.26,0.02,0.42,0.06,0.53h-0.51
		c-0.03-0.09-0.05-0.16-0.05-0.28c-0.22,0.23-0.48,0.31-0.8,0.31C88.43,26.75,88.16,26.55,88.16,26.19 M89.59,26.11v-0.48
		c-0.6,0.08-0.92,0.23-0.92,0.47c0,0.17,0.12,0.26,0.3,0.26C89.22,26.36,89.43,26.26,89.59,26.11z"/>
	<path class="st0" d="M90.62,24.54h0.51v0.3c0.14-0.15,0.4-0.34,0.8-0.34c0.38,0,0.63,0.23,0.63,0.66v1.56h-0.51v-1.44
		c0-0.24-0.1-0.35-0.32-0.35c-0.22,0-0.41,0.11-0.59,0.28v1.51h-0.51V24.54"/>
	<path class="st0" d="M92.77,27.5l0.12-0.41c0.06,0.02,0.19,0.04,0.37,0.04c0.18,0,0.27-0.07,0.34-0.25l0.06-0.16l-0.84-2.19h0.53
		l0.56,1.59h0.01l0.56-1.59h0.5l-0.93,2.42c-0.14,0.38-0.33,0.61-0.76,0.61C93.03,27.56,92.88,27.53,92.77,27.5"/>
</g>
</svg>
