<?xml version="1.0" encoding="utf-8"?>
<!-- Generator: Adobe Illustrator 26.0.1, SVG Export Plug-In . SVG Version: 6.00 Build 0)  -->
<svg version="1.1" id="Layer_1" xmlns="http://www.w3.org/2000/svg" xmlns:xlink="http://www.w3.org/1999/xlink" x="0px" y="0px"
	 viewBox="0 0 95 35" style="enable-background:new 0 0 95 35;" xml:space="preserve">
<style type="text/css">
	.st0{fill:#CCCCCC;}
</style>
<g>
	<path class="st0" d="M64.5,25.1C64.5,25.1,64.5,25.1,64.5,25.1c-4.1,2.9-8.8,5.9-14,9l-0.2,0.1c-0.1,0-0.1,0.1,0,0.2
		c0,0.1,0.1,0.1,0.2,0l0.2-0.1c4.4-2.3,9.4-5,14.4-7.8c0,0,0.1,0,0.1,0C64.9,26.2,64.6,25.7,64.5,25.1L64.5,25.1z M91,3.6
		c-6.4-7-47.4-0.7-64.9,3.1l-0.4,0.1c-0.1,0-0.1,0.1-0.1,0.2c0,0.1,0.1,0.1,0.2,0.1L26.2,7c14.5-2.6,44.5-6.1,51,0.3
		c2,2,1.5,4.5-0.8,7.5c1.2,0.8,2.1,2,2.5,3.6C87.9,12.4,93.9,6.8,91,3.6z"/>
	<g>
		<path class="st0" d="M67.1,23.3c0.1,2.5,1.6,4.5,3.7,4.5c4,0,5.6-4.9,5.5-8.1c-0.1-2.5-1.7-4.5-3.7-4.5
			C69.1,15.2,66.9,20,67.1,23.3z M65,23.1c-0.1-4.2,3.2-8.5,8-8.5c3.2,0,5.3,2.1,5.4,5.4c0.2,4.5-2.9,8.5-8,8.5
			C67.2,28.6,65.1,26.4,65,23.1z M19.4,22c-0.2,0.1-0.4,0.1-0.7,0.2c-0.3,0.1-0.8,0.1-1.5,0.3c-0.5,0.1-0.9,0.2-1,0.3
			c-0.2,0.1-0.3,0.3-0.3,0.5c0,0.2,0,0.4,0.2,0.5c0.2,0.1,0.5,0.2,1,0.2c0.3,0,0.7-0.1,1-0.2c0.3-0.1,0.6-0.3,0.8-0.4
			c0.2-0.1,0.3-0.3,0.4-0.5C19.3,22.8,19.4,22.5,19.4,22L19.4,22z M23.6,19.4c0,0.4-0.1,0.7-0.2,1.3l-0.7,4
			c-0.1,0.4,0.1,0.6,0.4,0.8l0,0.2l-4,0l0-1c-0.6,0.4-1.3,0.7-1.9,0.8c-0.6,0.2-1.2,0.2-1.9,0.2c-1.3,0-2.1-0.1-2.6-0.6
			c-0.5-0.5-0.8-0.8-0.8-1.4c0-0.4,0.2-0.8,0.5-1.2c0.3-0.3,0.7-0.6,1.1-0.8c0.4-0.2,0.9-0.3,1.6-0.5c0.7-0.1,1.7-0.2,3-0.3
			c0.7-0.1,1.1-0.2,1.3-0.3c0.3-0.1,0.4-0.2,0.4-0.5c0.1-0.4-0.1-0.6-0.6-0.7c-1.5-0.3-4.2,0.2-5.6,0.5l0.8-2.1
			c1.9-0.3,3.6-0.4,5.4-0.4C22.7,17.5,23.6,18.4,23.6,19.4L23.6,19.4z M35.3,25.7l1.4-7.9h3.9l-1.4,7.9L35.3,25.7z M37,15.9
			c0.1-0.7,1.1-1.2,2.3-1.2c1.2,0,2,0.5,1.9,1.2c-0.1,0.7-1.1,1.2-2.3,1.2C37.7,17.1,36.9,16.6,37,15.9L37,15.9z M54.4,22
			c-0.2,0.1-0.4,0.1-0.7,0.2c-0.3,0.1-0.8,0.1-1.5,0.3c-0.5,0.1-0.9,0.2-1,0.3c-0.2,0.1-0.3,0.3-0.3,0.5c0,0.2,0,0.4,0.2,0.5
			c0.2,0.1,0.5,0.2,1,0.2c0.3,0,0.7,0,1-0.1c0.3-0.1,0.6-0.3,0.8-0.4c0.1-0.1,0.3-0.3,0.3-0.5C54.2,22.8,54.3,22.5,54.4,22L54.4,22z
			 M58.6,19.4c0,0.4-0.1,0.7-0.2,1.3l-0.7,4c-0.1,0.3,0.1,0.6,0.4,0.8l0,0.1l-4,0l0-1c-0.6,0.4-1.3,0.7-1.9,0.8
			c-0.6,0.2-1.2,0.2-1.9,0.2c-1.3,0-2.1-0.1-2.6-0.6c-0.5-0.5-0.8-0.8-0.8-1.4c0-0.4,0.2-0.9,0.5-1.2c0.3-0.3,0.7-0.6,1.1-0.8
			c0.4-0.2,0.9-0.3,1.6-0.5c0.7-0.1,1.7-0.2,3.1-0.3c0.7-0.1,1.1-0.2,1.3-0.3c0.3-0.1,0.4-0.2,0.4-0.5c0.1-0.4-0.1-0.6-0.6-0.7
			c-1.5-0.3-4.2,0.2-5.6,0.5l0.8-2.1c1.9-0.3,3.6-0.4,5.4-0.4C57.7,17.5,58.6,18.4,58.6,19.4L58.6,19.4z M11.3,22.8
			c-1.3,0.3-2,0.3-3.2,0.3c-1.9,0-3.3-0.9-3.2-2.6c0.1-1.1,1.4-3.5,4.8-3.5c1.1,0,1.9,0.2,3,0.8l0.5-2.8c-1.5-0.6-2.5-0.7-3.8-0.6
			c-4.4,0-8.7,2.1-9.2,6.2c-0.5,4.2,4.5,5.2,6.8,5.2c1.3,0,2.7-0.1,3.9-0.2L11.3,22.8z M42.8,17.7l0.3-1.6l4.1-0.9l-0.4,2.5h2
			l-0.4,1.6l-1.9,0l-1.2,6.4c0,0-3.9,0-3.9,0l1.2-6.4H41l0.3-1.6L42.8,17.7L42.8,17.7z M58.6,25.7l2-11.1l3.8,0.1l-1.9,10.9
			L58.6,25.7z M30.2,19.6c-0.5,0-1,0.2-1.4,0.5c-0.4,0.3-0.7,0.8-0.8,1.4c-0.1,0.7,0,1.2,0.2,1.5c0.3,0.3,0.7,0.5,1.2,0.5
			c0.4,0,0.7-0.1,1-0.2c0.3-0.2,0.6-0.4,0.8-0.7c0.2-0.3,0.4-0.6,0.4-1c0.1-0.6,0-1.1-0.3-1.4C31.1,19.8,30.7,19.6,30.2,19.6
			L30.2,19.6z M23.2,28.4l1.9-10.6h3.4l-0.3,1.4c0.3-0.4,0.8-0.7,1.4-1c0.7-0.3,1.4-0.5,2.2-0.5c0.9,0,1.4,0,2.1,0.4
			c0.7,0.3,1.1,0.9,1.4,1.5c0.3,0.6,0.3,1.4,0.2,2.2c-0.2,1.3-0.9,2.3-1.9,3.1c-1,0.8-2,1-3.3,1c-0.5,0-0.9,0-1.2-0.1
			c-0.3-0.1-0.6-0.2-0.8-0.3c-0.2-0.1-0.4-0.3-0.6-0.6L27,28.4L23.2,28.4z M93.5,20.6c0-0.6-0.3-1.1-1-1.1c-1.6,0-3.3,3.1-3.6,4.4
			C91.6,23.9,93.6,22.3,93.5,20.6z M93.9,25.5l0.3,0.2c-0.8,1.6-2.4,2.8-4.2,2.8c-1.5,0-2.8-1-2.8-2.9c-0.1-3.4,3.1-6.6,5.7-6.6
			c1.1,0,2.2,0.5,2.2,1.7c0.1,2.7-3.7,3.5-6.2,3.6c-0.1,0.3-0.1,0.6-0.1,1c0,1.1,0.7,2.1,2.1,2.1C92,27.4,93.2,26.4,93.9,25.5
			L93.9,25.5z"/>
		<path class="st0" d="M78.3,20.5c0.3,0,0.7-0.1,0.9-0.1c0.3,0,0.6,0.1,0.6,0.3c0,0.2-0.3,1.4-0.4,1.6l-0.6,2.7
			c-0.2,1.1-0.5,2.2-0.7,3.1h1.6l0.9-4.2c2.7-2.8,3.7-3.7,4.3-3.7c0.3,0,0.5,0.1,0.5,0.5c0,0.5-0.3,1.6-0.4,1.9L84,25.8
			c-0.2,0.7-0.4,1.3-0.3,1.8c0,0.7,0.4,1,1,1c1.1,0,2-1.2,2.7-2.3l-0.2-0.4c-0.3,0.5-1,1.5-1.5,1.5c-0.2,0-0.3-0.1-0.3-0.4
			c0-0.4,0.1-0.9,0.2-1.3l1-3.6c0.3-1,0.4-1.6,0.4-2c0-0.7-0.4-1-1-1c-1,0-2.4,0.7-5.3,4.1h0l0.4-1.6c0.2-0.9,0.4-1.8,0.6-2.4
			c-1,0.4-2.4,0.8-3.3,0.9L78.3,20.5z"/>
	</g>
</g>
</svg>
