<?xml version="1.0" encoding="utf-8"?>
<!-- Generator: Adobe Illustrator 26.0.1, SVG Export Plug-In . SVG Version: 6.00 Build 0)  -->
<svg version="1.1" id="Layer_1" xmlns="http://www.w3.org/2000/svg" xmlns:xlink="http://www.w3.org/1999/xlink" x="0px" y="0px"
	 viewBox="0 0 95 35" style="enable-background:new 0 0 95 35;" xml:space="preserve">
<style type="text/css">
	.st0{fill-rule:evenodd;clip-rule:evenodd;fill:#FFFFFF;}
</style>
<g>
	<path class="st0" d="M8.6,23.2C8,23.5,7,23.7,6.1,23.7c-2.6,0-4.1-1.6-4.1-3.7c0-2.4,1.6-3.8,4.1-3.8c1,0,1.8,0.2,2.4,0.5L9,15
		c-0.4-0.2-1.5-0.5-2.9-0.5C2.5,14.5,0,16.8,0,20c0,3.1,2.2,5.3,5.8,5.3c1.5,0,2.6-0.3,3.1-0.5L8.6,23.2L8.6,23.2z"/>
	<path class="st0" d="M13.1,25.3c2.2,0,4.2-1.4,4.2-4c0-2.2-1.6-3.8-4.1-3.8c-2.5,0-4.3,1.6-4.3,4C8.9,23.8,10.8,25.3,13.1,25.3
		L13.1,25.3z M13.1,23.9c-1.2,0-2.1-1-2.1-2.5c0-1.3,0.7-2.5,2.2-2.5c1.5,0,2.1,1.3,2.1,2.5C15.2,23,14.3,23.9,13.1,23.9L13.1,23.9
		L13.1,23.9z M18,25.1h2v-4.3c0-0.2,0-0.4,0.1-0.6c0.2-0.6,0.8-1.2,1.7-1.2c1.1,0,1.6,0.8,1.6,2v4.1h2v-4.3c0-2.6-1.6-3.4-2.9-3.4
		c-1.4,0-2.3,0.8-2.6,1.4h0l-0.1-1.2h-1.7c0,0.6,0.1,1.4,0.1,2.3V25.1L18,25.1z M30,25.3c2.2,0,4.2-1.4,4.2-4c0-2.2-1.6-3.8-4.1-3.8
		c-2.5,0-4.3,1.6-4.3,4C25.9,23.8,27.7,25.3,30,25.3L30,25.3z M30.1,23.9c-1.2,0-2.1-1-2.1-2.5c0-1.3,0.7-2.5,2.2-2.5
		c1.5,0,2.1,1.3,2.1,2.5C32.2,23,31.3,23.9,30.1,23.9L30.1,23.9L30.1,23.9z M41.2,23.4c-0.5,0.2-1.1,0.3-1.7,0.3
		c-1.4,0-2.5-0.9-2.5-2.4c0-1.4,1-2.4,2.5-2.4c0.8,0,1.3,0.2,1.6,0.3l0.4-1.5c-0.5-0.2-1.3-0.4-2.1-0.4c-2.9,0-4.5,1.8-4.5,4
		c0,2.3,1.6,3.9,4.2,3.9c1.1,0,2-0.2,2.4-0.4L41.2,23.4L41.2,23.4z M45.6,25.3c2.2,0,4.2-1.4,4.2-4c0-2.2-1.6-3.8-4.1-3.8
		c-2.5,0-4.3,1.6-4.3,4C41.5,23.8,43.3,25.3,45.6,25.3L45.6,25.3z M45.7,23.9c-1.2,0-2.1-1-2.1-2.5c0-1.3,0.7-2.5,2.2-2.5
		c1.5,0,2.1,1.3,2.1,2.5C47.8,23,46.8,23.9,45.7,23.9L45.7,23.9L45.7,23.9z M58.6,25.1h2v-4.4c0-0.2,0-0.4,0.1-0.6
		c0.2-0.5,0.8-1.1,1.6-1.1c1.2,0,1.6,0.9,1.6,2v4.1h2v-4.3c0-2.6-1.6-3.4-2.9-3.4c-0.5,0-1,0.1-1.4,0.4c-0.4,0.2-0.8,0.5-1,0.9h0
		v-4.6h-2L58.6,25.1L58.6,25.1z M69.1,25.1v-7.5h-2v7.5H69.1z M68.1,16.4c0.7,0,1.2-0.5,1.2-1.1c0-0.6-0.4-1.1-1.2-1.1
		c-0.7,0-1.2,0.5-1.2,1.1C66.9,15.9,67.3,16.4,68.1,16.4L68.1,16.4L68.1,16.4z M70.4,25.1h2v-11h-2V25.1z M73.9,25.1h2v-11h-2V25.1z
		 M79.2,25.1v-7.5h-2v7.5H79.2z M78.3,16.4c0.7,0,1.2-0.5,1.2-1.1c0-0.6-0.4-1.1-1.2-1.1c-0.7,0-1.2,0.5-1.2,1.1
		C77.1,15.9,77.5,16.4,78.3,16.4L78.3,16.4L78.3,16.4z M80.8,28.2h2v-4h0c0.4,0.7,1.3,1.1,2.4,1.1c1.9,0,3.8-1.4,3.8-4.1
		c0-2.4-1.7-3.8-3.4-3.8c-1.3,0-2.3,0.5-2.9,1.4h0l-0.1-1.2h-1.7c0,0.7,0.1,1.6,0.1,2.5L80.8,28.2L80.8,28.2L80.8,28.2z M82.7,20.9
		c0-0.1,0-0.3,0.1-0.5c0.2-0.9,1-1.6,2-1.6c1.4,0,2.1,1.1,2.1,2.4c0,1.5-0.8,2.5-2.2,2.5c-1,0-1.7-0.7-1.9-1.5c0-0.2,0-0.3,0-0.5
		L82.7,20.9L82.7,20.9L82.7,20.9z M89.3,24.7c0.6,0.3,1.5,0.6,2.5,0.6c2.2,0,3.2-1.1,3.2-2.4c0-1.2-0.7-1.8-2.2-2.3
		c-1-0.3-1.4-0.5-1.4-1c0-0.5,0.4-0.8,1.1-0.8c0.8,0,1.4,0.3,1.8,0.5l0.4-1.4c-0.5-0.3-1.3-0.5-2.2-0.5c-1.9,0-3,1.1-3,2.4
		c0,0.9,0.7,1.8,2.3,2.2c1,0.3,1.3,0.5,1.3,1.1c0,0.5-0.4,0.8-1.3,0.8c-0.7,0-1.7-0.3-2.1-0.6L89.3,24.7L89.3,24.7z M50.6,25.1h2
		v-4.2c0.3,0.1,0.7,0.1,1.1,0.1c1.5,0,2.7-0.4,3.5-1.1c0.6-0.6,0.9-1.4,0.9-2.4c0-1-0.4-1.8-1.1-2.3c-0.7-0.6-1.7-0.9-3.2-0.9
		c-1.5,0-2.5,0.1-3.2,0.2V25.1L50.6,25.1z M52.5,15.9c0.2,0,0.7-0.1,1.3-0.1c1.4,0,2.3,0.5,2.3,1.7c0,1.2-1,1.9-2.5,1.9
		c-0.5,0-0.8,0-1.1-0.1L52.5,15.9L52.5,15.9z"/>
	<path class="st0" d="M59.3,6.8c-2.7,0.9-3.4,1.9-4.8,3c-4.1,1.1-7.7-0.7-10.8-2.1c1.5,1.1,2.9,3.3,3.6,6.6c2.4-0.7,5.2-2.6,7.7-4.4
		C56.4,9.3,57.9,8.4,59.3,6.8L59.3,6.8z"/>
</g>
</svg>
