<?xml version="1.0" encoding="utf-8"?>
<!-- Generator: Adobe Illustrator 26.0.1, SVG Export Plug-In . SVG Version: 6.00 Build 0)  -->
<svg version="1.1" id="Layer_1" xmlns="http://www.w3.org/2000/svg" xmlns:xlink="http://www.w3.org/1999/xlink" x="0px" y="0px"
	 viewBox="0 0 95 35" style="enable-background:new 0 0 95 35;" xml:space="preserve">
<style type="text/css">
	.st0{fill:#343741;}
</style>
<g>
	<path class="st0" d="M91.1,21.1h-0.3l0,0.2H91c0.1,0,0.2,0,0.2-0.1C91.3,21.1,91.2,21.1,91.1,21.1z"/>
	<path class="st0" d="M91.1,20.8c-0.5,0-0.8,0.3-0.9,0.6c-0.1,0.4,0.2,0.7,0.7,0.7c0.5,0,0.8-0.3,0.9-0.7
		C91.8,21,91.6,20.8,91.1,20.8z M91.2,21.5l0.2,0.4h-0.3l-0.2-0.4h-0.2l-0.1,0.4h-0.2l0.2-0.9h0.5c0.2,0,0.4,0.1,0.3,0.3
		C91.5,21.4,91.3,21.5,91.2,21.5z"/>
	<path class="st0" d="M26.5,17.9c1.9,0,3.4-1.1,3.7-2.7c0.3-1.5-0.7-2.7-2.7-2.7c-2,0-3.4,1.2-3.7,2.7
		C23.5,16.8,24.6,17.9,26.5,17.9z M25,15.5c0.2-0.9,1.1-1.8,2.6-1.8c0.6,0,1.1,0.2,1.4,0.5c0.2,0.3,0.2,0.6,0.2,0.9
		c-0.2,1-1.3,1.8-2.6,1.8c-0.6,0-1.2-0.2-1.4-0.5C25,16.1,24.9,15.8,25,15.5z"/>
	<path class="st0" d="M93.6,9.9c-1.6-2-4.5-3.1-7.9-3.1c-3.6,0-6.8,1.2-9,3.2l0.4-2.3l-1-0.3c-1.4-0.4-2.9-0.6-4.4-0.6
		c-2.6,0-5,0.8-7,2.1L65.3,7H49.8l-0.2,0.6c-1.4-0.6-2.9-0.8-4.6-0.8c-3.2,0-6.6,1.2-8.4,3.6c-0.1-0.2-0.2-0.3-0.4-0.5
		c-1.6-2-4.5-3.1-7.9-3.1c-3.5,0-6.6,1.1-8.8,3l0.9-5.2l-1-0.3c-1.7-0.5-3.5-0.7-5.4-0.7c-6.8,0-12.9,4.3-14,9.8
		c-0.5,2.3,0.1,4.6,1.5,6.4c1.2,1.5,3.1,2.6,5.2,3.1H0.2v8.6h34.1l0.1-0.1l0,0.1h4.1l0.6-0.9l-0.2,0.9h9.3l0.1-0.7
		c0.8,0.5,1.9,0.8,3.1,0.8c1.1,0,2.1-0.2,3-0.6l-0.1,0.5h13l0-0.1c0.6,0.1,1.2,0.2,1.8,0.2c0.4,0,0.7,0,1.1-0.1h5l0.4-0.8H76
		l0.1,0.8h15.3l0.8-4h-0.3l0.1-0.6h0.2l0.8-4h-0.4c0.3-0.3,0.6-0.7,0.7-1.2c0.1-0.5,0-1.1-0.4-1.5c-0.1-0.1-0.2-0.2-0.3-0.3
		c1.2-1.2,2.1-2.8,2.4-4.5C95.3,13.3,94.8,11.4,93.6,9.9z M71.7,7.9c1.4,0,2.8,0.2,4.1,0.6l-0.8,5.3c-0.8-0.8-2-1.4-3.4-1.4
		c-1.9,0-3.6,1.2-3.9,2.7c-0.3,1.5,1.1,2.7,2.9,2.7c1.4,0,2.7-0.5,3.8-1.3l-1.2,5.2c-1.1,0.4-3.4,0.6-4.5,0.6
		c-4.9,0-8.1-3.1-7.3-7.1C62.2,11.2,66.7,7.9,71.7,7.9z M73.9,14.4c0,0.2-0.1,0.3-0.1,0.5c0,0.2-0.1,0.5-0.1,0.7c-1,0.7-2,1-3,1
		c-0.7,0-1.3-0.2-1.6-0.6c-0.2-0.2-0.2-0.5-0.2-0.7c0.2-1,1.5-1.8,2.8-1.8C72.4,13.6,73.1,13.8,73.9,14.4z M74.8,20.1
		c0.1,0.1,0.2,0.2,0.2,0.3c0.9,1.1,2.1,1.9,3.6,2.4l-3.9,0l-0.5,0.8l-0.4-0.2c-0.3-0.2-0.6-0.3-0.9-0.4c0.2-0.1,0.4-0.1,0.6-0.2
		l0.6-0.2L74.8,20.1z M57.1,22.8l2.8-9.1l0.8,0c-0.2,0.4-0.3,0.8-0.4,1.3c-0.4,2,0.1,4,1.3,5.5c0.8,1,2,1.8,3.3,2.3h-3.5l-0.8,4.3
		l-0.5,0l0,0l0.8-4.3H57.1z M63.7,8.1l-1.4,4.5L59,12.6l-2.9,9.5h-6.2l2.9-9.5l-3.5,0.1l1.4-4.5H63.7z M55.8,23.2l-0.1,0.3
		c-0.2-0.1-0.4-0.2-0.6-0.3H55.8z M49.7,23.2h0.2C49.8,23.3,49.8,23.3,49.7,23.2L49.7,23.2z M49.3,13.8l1.9-0.1l-0.8,2.5
		c0-0.7-0.3-1.3-0.6-1.8C49.7,14.2,49.5,14,49.3,13.8z M36.7,13.1c0.6-3.3,4.7-5.2,8.4-5.2c1.9,0,3.7,0.4,5.2,1.2l-2.4,3.6
		c-0.9-0.6-2.1-1.1-3.4-1.1c-0.5,0-1.4,0.2-1.5,0.7c-0.1,0.5,0.7,0.6,1.1,0.7l1.4,0.3c2.5,0.5,4.2,1.6,3.7,4c-0.6,3.3-4.7,5-8.4,5
		c-2.1,0-4.5-0.5-6.3-1.3l2.7-3.9l0.3,0.2c1,0.7,2.2,1.3,3.6,1.3c0.6,0,1.6-0.2,1.7-0.8c0.1-0.6-0.7-0.7-1.2-0.8l-1.2-0.2
		C38.1,16.4,36.3,15.3,36.7,13.1z M49.4,19.9l-0.9,2.9H45C46.8,22.2,48.4,21.3,49.4,19.9z M38,23.2L38,23.2L38,23.2
		C37.9,23.2,37.9,23.2,38,23.2z M36.1,22.8H34l-0.2,0.4l0-0.4h-3.6c1-0.3,1.9-0.7,2.8-1.2l1.1,0.5C34.7,22.4,35.4,22.6,36.1,22.8z
		 M28.5,7.9c5.2,0,8.9,2.8,8,7.2c-0.9,4.5-5.6,7.2-10.8,7.2c-5.2,0-8.9-2.7-8-7.2C18.5,10.8,23.3,7.9,28.5,7.9z M21.4,22.8h-6.3
		c0.5-0.1,0.9-0.2,1.3-0.3l0.6-0.2l0.5-2.2c0.1,0.1,0.2,0.2,0.3,0.3C18.6,21.5,19.9,22.3,21.4,22.8z M1.3,13.5
		c1-4.9,6.6-8.9,12.9-8.9c1.7,0,3.5,0.2,5.1,0.7l-1.1,6.4c-1.1-0.9-2.5-1.7-4.2-1.7c-2.3,0-4.5,1.5-4.9,3.3
		c-0.4,1.9,1.3,3.3,3.7,3.3c1.8,0,3.3-0.6,4.7-1.6L16,21.4c-1.3,0.5-4.3,0.7-5.6,0.7C4.3,22.1,0.3,18.3,1.3,13.5z M17.3,12.6
		c-0.3,0.5-0.5,1.1-0.7,1.7c-1.3,0.8-2.6,1.2-3.9,1.2c-1,0-1.8-0.3-2.3-0.9c-0.3-0.3-0.3-0.7-0.3-1.1c0.3-1.3,2-2.4,3.7-2.4
		C15.2,11.2,16.3,11.7,17.3,12.6z M1.7,24h27.5l0.3,1.1l0.1,0.6H1.7V24z M1.7,26.4h28.1l0.4,1.6H1.7V26.4z M1.7,30.2v-1.6h28.6
		l0.4,1.6h0l0,0H1.7z M51.4,30.3c-2.3,0-3.9-1.2-3.6-3.2l-0.6,3.1h-2.6l0.4-2.2h-1.7L43,30.2h-2.6l1.1-5.8l-3.6,5.8h-2.4l-0.2-3.4
		h-0.1c-0.1,0.3-0.2,0.6-0.3,0.9l-1.2,2.5h-2.3L29.9,24h2.8l0.2,3.7H33c0.1-0.4,0.3-0.8,0.4-1.2l1.3-2.6h2.1l0.3,3.7h0.1
		c0.1-0.4,0.2-0.7,0.4-1.1l1.3-2.6h2.8l0,0h2.4l-0.4,2.1h1.7l0.4-2.1h2.6L47.9,27c0.4-1.9,2.5-3.2,4.8-3.2c2.3,0,3.9,1.3,3.5,3.3
		C55.8,29.1,53.7,30.3,51.4,30.3z M60.6,30.2h-5l1.2-6.3h2.7l-0.8,4.3H61L60.6,30.2z M84.7,30.2h-4.8l0,0H77l-0.1-0.8h-2.1l-0.4,0.8
		l0,0h-2.9l0.7-1.1c-0.7,0.8-2,1.2-3.2,1.2c-0.9,0-2-0.2-2.7-0.6l-0.1,0.5h-5.1l1.2-6.3h5.1l-0.3,1.7h-2.3l-0.1,0.6h2.1l-0.3,1.6
		h-2.1l-0.1,0.6h2.4l-0.2,1.1l1.1-1.6l0.1,0.1c0.4,0.3,1,0.6,1.6,0.6c0.3,0,0.7-0.1,0.8-0.4c0.1-0.3-0.3-0.3-0.5-0.3l-0.5-0.1
		c-1-0.2-1.8-0.7-1.7-1.7c0.3-1.5,2.1-2.3,3.7-2.3c0.9,0,1.6,0.2,2.3,0.5l-1,1.6c-0.4-0.3-0.9-0.5-1.5-0.5c-0.2,0-0.6,0.1-0.7,0.3
		c0,0.2,0.3,0.3,0.5,0.3l0.6,0.1c1.1,0.2,1.9,0.7,1.7,1.8c0,0.2-0.1,0.3-0.1,0.4l2.8-4.6h3l1.4,5.7l1.1-5.7h2.7l-0.8,4.3h2.3
		L84.7,30.2z M79.4,23c0.2,0,0.3,0.1,0.5,0.1l-0.2,1.1L79.4,23z M84.2,27.1l0.7-3.7c0.2,0,0.3,0,0.5-0.1l-0.7,3.8H84.2z M91.2,25.7
		h-2.3l-0.1,0.6h2.1l-0.3,1.6h-2.1l-0.1,0.6h2.4l-0.3,1.7h-5.1l1.2-6.3h5.1L91.2,25.7z M87.4,22.8c0.5-0.2,1-0.3,1.5-0.5
		c0.1,0.2,0.2,0.3,0.3,0.5c0,0,0.1,0.1,0.1,0.1H87.4z M90.8,22.3c-0.6,0-1-0.4-0.9-0.9c0.1-0.5,0.6-0.9,1.2-0.9c0.6,0,1,0.4,0.9,0.9
		C91.9,21.9,91.4,22.3,90.8,22.3z M93.7,15.2c-0.9,4.5-5.6,7.2-10.8,7.2c-5.2,0-8.9-2.7-8-7.2c0.8-4.4,5.7-7.2,10.8-7.2
		C90.9,7.9,94.6,10.8,93.7,15.2z"/>
	<path class="st0" d="M84.8,12.5c-2,0-3.4,1.2-3.7,2.7c-0.3,1.6,0.8,2.7,2.7,2.7c1.9,0,3.4-1.1,3.7-2.7
		C87.8,13.8,86.8,12.5,84.8,12.5z M86.3,15c-0.2,1-1.3,1.8-2.6,1.8c-0.6,0-1.2-0.2-1.4-0.5c-0.2-0.2-0.2-0.5-0.1-0.9
		c0.2-0.9,1.1-1.8,2.6-1.8c0.6,0,1.1,0.2,1.4,0.5C86.4,14.4,86.4,14.8,86.3,15z"/>
	<path class="st0" d="M76.7,26h-0.1L75.8,28h1.1l-0.1-1.1C76.7,26.6,76.7,26.3,76.7,26z"/>
	<path class="st0" d="M52.2,25.9c-0.9,0-1.5,0.6-1.6,1.2c-0.1,0.7,0.3,1.2,1.2,1.2c0.8,0,1.5-0.5,1.6-1.2
		C53.5,26.5,53.1,25.9,52.2,25.9z M51.8,27.2c0.1-0.1,0.2-0.1,0.4-0.1C52.1,27.1,52,27.2,51.8,27.2z"/>
</g>
</svg>
