<?xml version="1.0" encoding="utf-8"?>
<!-- Generator: Adobe Illustrator 26.0.1, SVG Export Plug-In . SVG Version: 6.00 Build 0)  -->
<svg version="1.1" id="Layer_1" xmlns="http://www.w3.org/2000/svg" xmlns:xlink="http://www.w3.org/1999/xlink" x="0px" y="0px"
	 viewBox="0 0 95 35" style="enable-background:new 0 0 95 35;" xml:space="preserve">
<style type="text/css">
	.st0{fill-rule:evenodd;clip-rule:evenodd;fill:#FFFFFF;}
</style>
<g>
	<polygon class="st0" points="55,16.4 55,16.4 55,16.4 	"/>
	<path class="st0" d="M42.3,14.8c-0.4,0-0.7,0.1-0.8,0.4c-0.1,0.2-0.2,0.4-0.2,0.7l2.1,0c0-0.3-0.1-0.5-0.2-0.7
		C42.9,15,42.7,14.8,42.3,14.8z"/>
	<polygon class="st0" points="41.2,15.9 41.2,15.9 41.2,15.9 	"/>
	<path class="st0" d="M53.9,14.9c-0.4,0-0.7,0.1-0.8,0.4c-0.2,0.3-0.3,0.7-0.3,1.2c0,0.5,0.1,0.9,0.3,1.2c0.2,0.3,0.5,0.4,0.8,0.4
		s0.7-0.1,0.8-0.4c0.2-0.3,0.3-0.7,0.3-1.2c0-0.5-0.1-0.9-0.3-1.2C54.6,15,54.3,14.9,53.9,14.9z"/>
	<path class="st0" d="M36.6,16.6c-0.3,0-0.5-0.1-0.8-0.1c-0.6,0-0.8,0.2-0.8,0.2c-0.2,0.1-0.3,0.3-0.3,0.6c0,0.2,0,0.3,0.1,0.4
		c0,0.1,0.1,0.1,0.2,0.2l0,0c0,0,0.3,0.2,0.8,0.2c0.4,0,0.8-0.1,0.8-0.1h0V16.6z"/>
	<path class="st0" d="M61.7,4.7c-1.5,0-3,0.3-4.4,0.9c-1.5-2.7-4.4-4.6-7.7-4.6c-2.5,0-4.7,1-6.3,2.7l0,0C41.5,1.5,38.7,0,35.6,0
		c-5.4,0-9.7,4.3-9.7,9.7c0,1.3,0.3,2.6,0.8,3.9c-2.5,1.5-4.2,4.2-4.2,7.3c0,4.6,3.7,8.4,8.3,8.4c0.6,0,1.2-0.1,1.7-0.2
		c1.3,3.4,4.6,5.9,8.4,5.9c3.7,0,6.9-2.3,8.3-5.5c1.1,0.5,2.3,0.8,3.5,0.8c2.9,0,5.5-1.6,6.9-4c0.7,0.1,1.4,0.2,2.1,0.2
		c6,0,10.8-4.9,10.8-10.9S67.7,4.7,61.7,4.7z M33.2,17.4c0,0.9-0.6,1.4-1.7,1.4c-0.5,0-1-0.1-1.5-0.3c-0.1-0.1-0.2-0.1-0.3-0.2
		c0,0-0.1,0,0-0.1l0,0l0.2-0.6c0-0.1,0.1-0.1,0.1,0c0.1,0,0.1,0.1,0.2,0.1c0.6,0.4,1.1,0.4,1.3,0.4c0.4,0,0.7-0.2,0.7-0.6v0
		c0-0.3-0.4-0.5-0.9-0.6l-0.1,0c-0.7-0.2-1.4-0.5-1.4-1.3v0c0-0.8,0.7-1.4,1.6-1.4l0.1,0c0.6,0,1.1,0.2,1.5,0.4c0,0,0.1,0.1,0,0.1
		c0,0.1-0.2,0.5-0.2,0.6c0,0.1-0.1,0-0.1,0c-0.3-0.2-0.9-0.3-1.3-0.3c-0.4,0-0.7,0.2-0.7,0.5v0c0,0.3,0.4,0.5,0.9,0.6l0.1,0
		C32.5,16.2,33.2,16.5,33.2,17.4L33.2,17.4z M37.5,18.5c0,0-0.1,0-0.2,0.1c-0.2,0.1-0.5,0.1-0.7,0.1c-0.3,0-0.6,0.1-0.9,0.1
		c-0.3,0-0.5,0-0.8-0.1c-0.2-0.1-0.4-0.1-0.6-0.3c-0.2-0.1-0.3-0.3-0.4-0.5c-0.1-0.2-0.1-0.4-0.1-0.7c0-0.3,0.1-0.5,0.2-0.7
		c0.1-0.2,0.2-0.4,0.4-0.5c0.2-0.1,0.4-0.2,0.6-0.3c0.2-0.1,0.5-0.1,0.7-0.1c0.2,0,0.3,0,0.5,0l0,0c0,0,0.2,0,0.5,0.1v-0.1
		c0-0.4-0.1-0.6-0.2-0.7c-0.2-0.1-0.4-0.2-0.7-0.2c0,0-0.7,0-1.3,0.3c0,0,0,0,0,0s-0.1,0-0.1,0L34,14.6c0-0.1,0-0.1,0-0.1
		c0.3-0.2,0.9-0.3,0.9-0.3c0.2,0,0.6-0.1,0.8-0.1c0.6,0,1,0.1,1.3,0.4c0.3,0.3,0.5,0.7,0.5,1.3L37.5,18.5
		C37.5,18.4,37.5,18.5,37.5,18.5z M39.4,18.6C39.4,18.6,39.4,18.7,39.4,18.6l-0.9,0.1c0,0-0.1,0-0.1-0.1v-6.2c0,0,0-0.1,0.1-0.1h0.8
		c0,0,0.1,0,0.1,0.1V18.6z M44.2,16.6C44.2,16.7,44.1,16.7,44.2,16.6l-3,0.1c0,0.4,0.1,0.8,0.3,1c0.2,0.2,0.5,0.3,1,0.3
		c0.7,0,1-0.1,1.2-0.2c0,0,0.1,0,0.1,0.1l0.2,0.5c0,0.1,0,0.1,0,0.1c-0.2,0.1-0.6,0.3-1.5,0.3c-0.4,0-0.8-0.1-1.1-0.2
		c-0.3-0.1-0.5-0.3-0.7-0.5c-0.2-0.2-0.3-0.5-0.4-0.7c-0.1-0.3-0.1-0.6-0.1-0.9c0-0.3,0-0.6,0.1-0.9c0.1-0.3,0.2-0.5,0.4-0.8
		c0.2-0.2,0.4-0.4,0.7-0.5c0.3-0.1,0.6-0.2,1-0.2c0.3,0,0.6,0.1,0.8,0.2c0.2,0.1,0.4,0.2,0.6,0.4c0.1,0.1,0.3,0.4,0.4,0.7l0,0
		C44.3,16,44.2,16.6,44.2,16.6z M46.6,18.8c-0.5,0-1-0.1-1.5-0.3c-0.1-0.1-0.2-0.1-0.3-0.2c0,0-0.1,0,0-0.1l0,0l0.2-0.6
		c0-0.1,0.1-0.1,0.1,0c0.1,0,0.1,0.1,0.2,0.1c0.6,0.4,1.1,0.4,1.3,0.4c0.4,0,0.7-0.2,0.7-0.6v0c0-0.3-0.4-0.5-0.9-0.6l-0.1,0
		c-0.7-0.2-1.4-0.5-1.4-1.3v0c0-0.8,0.7-1.4,1.6-1.4l0.1,0c0.6,0,1.1,0.2,1.5,0.4c0,0,0.1,0.1,0,0.1c0,0.1-0.2,0.5-0.2,0.6
		c0,0.1-0.1,0-0.1,0c-0.3-0.2-0.9-0.3-1.3-0.3c-0.4,0-0.7,0.2-0.7,0.5v0c0,0.3,0.4,0.5,0.9,0.6l0.1,0c0.7,0.2,1.4,0.5,1.4,1.3v0
		C48.3,18.2,47.6,18.8,46.6,18.8z M51.7,14.9C51.7,14.9,51.6,14.9,51.7,14.9l-1.1,0.1L50,18.6c-0.1,0.4-0.2,0.7-0.3,1
		c-0.1,0.3-0.2,0.5-0.4,0.6c-0.2,0.2-0.3,0.3-0.5,0.4c-0.2,0.1-0.4,0.1-0.7,0.1c-0.1,0-0.3,0-0.4,0c-0.1,0-0.2,0-0.3-0.1
		c0,0-0.1-0.1,0-0.1c0-0.1,0.2-0.5,0.2-0.6c0-0.1,0.1,0,0.1,0c0.1,0,0.1,0,0.2,0.1c0.1,0,0.2,0,0.2,0c0.1,0,0.2,0,0.3,0
		c0.1,0,0.2-0.1,0.3-0.2c0.1-0.1,0.1-0.2,0.2-0.4c0.1-0.2,0.1-0.4,0.2-0.7l0.6-3.6h-0.6c-0.1,0-0.1,0-0.1-0.1l0.1-0.6
		c0-0.1,0.1-0.1,0.1-0.1h0.7l0-0.2c0.1-0.6,0.3-1,0.6-1.3c0.3-0.3,0.7-0.4,1.2-0.4c0.1,0,0.3,0,0.4,0c0.1,0,0.2,0,0.3,0.1
		c0,0,0.1,0,0.1,0.1L52.2,13c0,0,0,0.1-0.1,0c0,0-0.1,0-0.1,0c-0.1,0-0.2,0-0.2,0c-0.1,0-0.2,0-0.3,0c-0.1,0-0.2,0.1-0.2,0.2
		c-0.1,0.1-0.2,0.2-0.2,0.3c-0.1,0.3-0.1,0.6-0.2,0.7h0.9c0.1,0,0.1,0,0.1,0.1L51.7,14.9z M55.9,17.3c-0.1,0.3-0.2,0.5-0.4,0.7
		c-0.2,0.2-0.4,0.4-0.7,0.5c-0.3,0.1-0.6,0.2-0.9,0.2c-0.3,0-0.7-0.1-0.9-0.2c-0.3-0.1-0.5-0.3-0.7-0.5c-0.2-0.2-0.3-0.5-0.4-0.7
		c-0.1-0.3-0.1-0.6-0.1-0.9c0-0.3,0-0.6,0.1-0.9c0.1-0.3,0.2-0.5,0.4-0.7c0.2-0.2,0.4-0.4,0.7-0.5c0.3-0.1,0.6-0.2,0.9-0.2
		c0.3,0,0.7,0.1,0.9,0.2c0.3,0.1,0.5,0.3,0.7,0.5c0.2,0.2,0.3,0.5,0.4,0.7h0c0.1,0.3,0.1,0.6,0.1,0.9C56,16.7,56,17.1,55.9,17.3z
		 M59.4,14.3C59.4,14.3,59.4,14.3,59.4,14.3c0,0.1-0.2,0.5-0.2,0.6c0,0.1,0,0.1-0.1,0.1c0,0-0.2,0-0.3,0c-0.1,0-0.3,0-0.4,0.1
		c-0.1,0-0.3,0.1-0.4,0.2c-0.1,0.1-0.2,0.2-0.3,0.4c-0.1,0.2-0.1,0.5-0.1,0.8v2.2c0,0,0,0.1-0.1,0.1h-0.8c0,0-0.1,0-0.1-0.1v-4.3
		c0,0,0-0.1,0.1-0.1h0.7c0,0,0.1,0,0.1,0.1l0,0.4c0.1-0.2,0.3-0.3,0.5-0.4c0.2-0.1,0.4-0.1,0.7-0.1c0.2,0,0.4,0.1,0.5,0.1
		c0,0,0,0,0,0C59.4,14.2,59.5,14.3,59.4,14.3C59.4,14.3,59.4,14.3,59.4,14.3L59.4,14.3z M63.1,18.5c-0.3,0.1-0.8,0.2-1.2,0.2
		c-0.7,0-1.3-0.2-1.7-0.6c-0.4-0.4-0.6-1-0.6-1.7c0-0.3,0-0.6,0.1-0.9c0.1-0.3,0.2-0.5,0.4-0.7s0.4-0.4,0.7-0.5
		c0.3-0.1,0.6-0.2,1-0.2c0.2,0,0.5,0,0.6,0c0.2,0,0.5,0.1,0.6,0.1c0,0,0.1,0,0.1,0.1c-0.1,0.2-0.1,0.4-0.2,0.6
		c0,0.1-0.1,0.1-0.1,0.1c-0.3-0.1-0.6-0.1-0.9-0.1c-0.4,0-0.7,0.1-0.9,0.4c-0.2,0.3-0.3,0.6-0.3,1.1c0,0.5,0.1,0.9,0.4,1.2
		c0.2,0.2,0.6,0.4,1,0.4c0.2,0,0.3,0,0.5,0c0.1,0,0.3-0.1,0.4-0.1c0,0,0.1,0,0.1,0.1h0l0.2,0.6C63.2,18.5,63.1,18.5,63.1,18.5z
		 M67.4,16.6C67.4,16.7,67.3,16.7,67.4,16.6l-3,0.1c0,0.4,0.1,0.8,0.3,1c0.2,0.2,0.5,0.3,1,0.3c0.7,0,1-0.1,1.2-0.2
		c0,0,0.1,0,0.1,0.1l0.2,0.5c0,0.1,0,0.1,0,0.1c-0.2,0.1-0.6,0.3-1.5,0.3c-0.4,0-0.8-0.1-1.1-0.2c-0.3-0.1-0.5-0.3-0.7-0.5
		c-0.2-0.2-0.3-0.5-0.4-0.7c-0.1-0.3-0.1-0.6-0.1-0.9c0-0.3,0-0.6,0.1-0.9c0.1-0.3,0.2-0.5,0.4-0.8c0.2-0.2,0.4-0.4,0.7-0.5
		c0.3-0.1,0.6-0.2,1-0.2c0.3,0,0.6,0.1,0.8,0.2c0.2,0.1,0.4,0.2,0.6,0.4c0.1,0.1,0.3,0.4,0.4,0.7l0,0C67.5,16,67.4,16.6,67.4,16.6z"
		/>
	<path class="st0" d="M65.5,14.8c-0.4,0-0.7,0.1-0.8,0.4c-0.1,0.2-0.2,0.4-0.2,0.7l2.1,0c0-0.3-0.1-0.5-0.2-0.7
		C66.1,15,65.9,14.8,65.5,14.8z"/>
	<polygon class="st0" points="64.4,15.9 64.4,15.9 64.4,15.9 	"/>
</g>
</svg>
