<?xml version="1.0" encoding="utf-8"?>
<!-- Generator: Adobe Illustrator 26.0.1, SVG Export Plug-In . SVG Version: 6.00 Build 0)  -->
<svg version="1.1" id="Layer_1" xmlns="http://www.w3.org/2000/svg" xmlns:xlink="http://www.w3.org/1999/xlink" x="0px" y="0px"
	 viewBox="0 0 95 35" style="enable-background:new 0 0 95 35;" xml:space="preserve">
<style type="text/css">
	.st0{fill:#343741;}
</style>
<g>
	<polygon class="st0" points="79,33.3 79,33.5 78.5,33.5 78.5,34.8 78.3,34.8 78.3,33.5 77.8,33.5 77.8,33.3 	"/>
	<polygon class="st0" points="79.1,33.3 79.5,33.3 79.9,34.5 79.9,34.5 80.4,33.3 80.7,33.3 80.7,34.8 80.5,34.8 80.5,33.5 
		80.5,33.5 80,34.8 79.8,34.8 79.4,33.5 79.4,33.5 79.4,34.8 79.1,34.8 	"/>
	<rect x="33.1" y="23.3" class="st0" width="2.9" height="11.5"/>
	<path class="st0" d="M59.5,26.6c-0.1-0.1-1.1-0.6-2.4-0.6c-1.9,0-3.2,1.3-3.2,3.1c0,1.7,1.3,3.1,3.2,3.1c1.4,0,2.3-0.5,2.4-0.6v3.1
		c-0.4,0.1-1.4,0.4-2.7,0.4c-3.3,0-6.1-2.3-6.1-6c0-3.4,2.6-6,6.1-6c1.4,0,2.4,0.3,2.7,0.4V26.6z"/>
	<path class="st0" d="M29.1,26.6c-0.1-0.1-1.1-0.6-2.4-0.6c-1.9,0-3.2,1.3-3.2,3.1c0,1.7,1.2,3.1,3.2,3.1c1.4,0,2.3-0.5,2.4-0.6v3.1
		c-0.4,0.1-1.4,0.4-2.7,0.4c-3.3,0-6.1-2.3-6.1-6c0-3.4,2.6-6,6.1-6c1.4,0,2.4,0.3,2.7,0.4V26.6z"/>
	<path class="st0" d="M74.7,29c0,3.3-2.5,6-6.1,6c-3.6,0-6.1-2.7-6.1-6c0-3.3,2.5-6,6.1-6C72.2,23.1,74.7,25.7,74.7,29z M68.6,26
		c-1.7,0-3,1.4-3,3c0,1.7,1.3,3,3,3c1.7,0,3-1.4,3-3C71.6,27.3,70.4,26,68.6,26z"/>
	<path class="st0" d="M47,25.9c0,0-1.3-0.4-2.3-0.4c-1.2,0-1.8,0.4-1.8,0.9c0,0.7,0.9,0.9,1.3,1.1l0.8,0.3c1.9,0.6,2.8,1.9,2.8,3.3
		c0,2.9-2.5,3.9-4.8,3.9c-1.5,0-3-0.3-3.1-0.3V32c0.3,0.1,1.5,0.4,2.8,0.4c1.4,0,2.1-0.4,2.1-1.1c0-0.6-0.6-0.9-1.3-1.1
		c-0.2-0.1-0.4-0.1-0.6-0.2c-1.6-0.5-3-1.5-3-3.4c0-2.2,1.6-3.6,4.3-3.6c1.4,0,2.8,0.3,2.8,0.4V25.9z"/>
	<path class="st0" d="M17.2,10.9c0-0.8-0.6-1.4-1.4-1.4c-0.8,0-1.4,0.6-1.4,1.4v3c0,0.8,0.7,1.4,1.4,1.4c0.8,0,1.4-0.6,1.4-1.4V10.9
		z"/>
	<path class="st0" d="M25.1,6.9c0-0.8-0.7-1.4-1.4-1.4c-0.8,0-1.4,0.6-1.4,1.4v7c0,0.8,0.6,1.4,1.4,1.4c0.8,0,1.4-0.6,1.4-1.4V6.9z"
		/>
	<path class="st0" d="M33.1,1.4c0-0.8-0.7-1.4-1.4-1.4c-0.8,0-1.5,0.6-1.5,1.4v15.3c0,0.8,0.7,1.4,1.5,1.4c0.8,0,1.4-0.6,1.4-1.4
		V1.4z"/>
	<path class="st0" d="M41,6.9c0-0.8-0.6-1.4-1.4-1.4c-0.8,0-1.4,0.6-1.4,1.4v7c0,0.8,0.7,1.4,1.4,1.4c0.8,0,1.4-0.6,1.4-1.4V6.9z"/>
	<path class="st0" d="M48.9,10.9c0-0.8-0.7-1.4-1.4-1.4c-0.8,0-1.4,0.6-1.4,1.4v3c0,0.8,0.6,1.4,1.4,1.4c0.8,0,1.4-0.6,1.4-1.4V10.9
		z"/>
	<path class="st0" d="M56.9,6.9c0-0.8-0.6-1.4-1.4-1.4c-0.8,0-1.4,0.6-1.4,1.4v7c0,0.8,0.6,1.4,1.4,1.4c0.8,0,1.4-0.6,1.4-1.4V6.9z"
		/>
	<path class="st0" d="M64.8,1.4c0-0.8-0.6-1.4-1.4-1.4c-0.8,0-1.4,0.6-1.4,1.4v15.3c0,0.8,0.6,1.4,1.4,1.4c0.8,0,1.4-0.6,1.4-1.4
		V1.4z"/>
	<path class="st0" d="M72.8,6.9c0-0.8-0.6-1.4-1.5-1.4c-0.8,0-1.4,0.6-1.4,1.4v7c0,0.8,0.6,1.4,1.4,1.4c0.8,0,1.5-0.6,1.5-1.4V6.9z"
		/>
	<path class="st0" d="M80.7,10.9c0-0.8-0.6-1.4-1.4-1.4c-0.8,0-1.4,0.6-1.4,1.4v3c0,0.8,0.6,1.4,1.4,1.4c0.8,0,1.4-0.6,1.4-1.4V10.9
		z"/>
</g>
</svg>
