<?xml version="1.0" encoding="utf-8"?>
<!-- Generator: Adobe Illustrator 26.0.1, SVG Export Plug-In . SVG Version: 6.00 Build 0)  -->
<svg version="1.1" id="Layer_1" xmlns="http://www.w3.org/2000/svg" xmlns:xlink="http://www.w3.org/1999/xlink" x="0px" y="0px"
	 viewBox="0 0 95 35" style="enable-background:new 0 0 95 35;" xml:space="preserve">
<style type="text/css">
	.st0{fill-rule:evenodd;clip-rule:evenodd;fill:#343741;}
</style>
<g>
	<polygon class="st0" points="14.9,30.1 15.7,30.1 15.7,30.9 16.6,30.9 16.6,29.1 12.1,29.1 12.1,30.9 13,30.9 13,30.1 13.8,30.1 
		13.8,34 13.2,34 13.2,34.9 15.5,34.9 15.5,34 14.9,34 14.9,30.1 	"/>
	<path class="st0" d="M38.1,17.2v8.9H43v-1.1c0,0,1.5,1.8,4.8,1.6c5.4-0.3,7.7-4.3,7.8-7.9c0.1-3.1-1.2-4.6-2.4-5.7
		c-0.7-0.6-1.7-1.3-3.9-2c-1.6-0.5-3-1-3.5-1.3c-0.4-0.2-0.8-0.4-1.1-0.9C44,7.9,44.4,6.6,45,5.9c0.9-0.9,2.8-0.8,3.4,0.1
		c0.4,0.6,0.9,0.9,0.9,4.1h5.5l0-9.5H50v0.9c0,0-1.4-1.5-4.1-1.5c-2.2,0-5.1,1-6.9,3.9c-1.3,2.3-1.5,5.2-0.1,7.6
		c1.3,1.9,2.2,2.3,3.2,2.9c1.8,1,1.9,0.7,4.8,1.9c1.2,0.5,1.8,0.9,2,1.3c0.7,1.1,0.2,2.7-1,3.2c-1.4,0.7-2.8,0.2-3.4-0.6
		c-0.3-0.6-0.8-0.6-0.7-3.7H31.4c0,0-1.7,3.7-6,3.7c-3.3,0-6.8-2.6-6.8-7.2c0-3.3,2.2-6.8,6.7-6.8c3.1,0,5.1,1.8,6.1,3.6h6.1V0.6
		h-5.3v2.3c0,0-2.4-2.8-7.1-2.8c-8.2,0-12.9,6.8-12.9,13.2c-0.1,6.4,5.1,13.3,13,13.4C35.1,26.8,38.1,17.2,38.1,17.2L38.1,17.2z"/>
	<polygon class="st0" points="65.1,21.3 68.5,17.6 71.8,21.3 68.7,21.3 68.7,26.1 82.8,26.1 82.8,21 78.8,21 72.2,13.3 78.8,5.8 
		82.6,5.8 82.6,0.6 68.4,0.6 68.4,5.5 71.5,5.5 68.5,9 65.5,5.5 67.7,5.5 67.7,0.6 55.3,0.6 55.3,5.8 58.3,5.8 64.7,13.3 57.9,21 
		55.6,21 55.6,26.1 68,26.1 68,21.3 65.1,21.3 	"/>
	<path class="st0" d="M21.1,34l-0.9-1.1c0.8-0.1,1.4-0.8,1.4-1.7c0-1.2-0.8-2-2.1-2h-2.7V30h0.6V34h-0.6v0.9h2.2V34h-0.5v-1.7
		l1.8,2.6h1.3V34H21.1L21.1,34z M18.6,32.2v-2.1h0.8c0.7,0,1.1,0.4,1.1,1c0,0.7-0.5,1.1-1.2,1.1H18.6L18.6,32.2z"/>
	<path class="st0" d="M27.7,34l-2-4.8h-1.9V30h0.6L22.7,34h-0.6v0.9h2.3v-0.8h-0.6l0.3-0.9h2l0.3,0.9h-0.6v0.8h2.4V34H27.7L27.7,34z
		 M24.4,32.4l0.7-2l0.7,2H24.4L24.4,32.4z"/>
	<polygon class="st0" points="34.1,30 34.7,30 34.7,29.1 32.4,29.1 32.4,30 33,30 33,33 30.3,29.1 28.7,29.1 28.7,30 29.3,30 
		29.3,34 28.7,34 28.7,34.9 31,34.9 31,34 30.4,34 30.4,31.1 33.1,34.9 34.1,34.9 34.1,30 	"/>
	<path class="st0" d="M35.1,34.9H36v-0.4c0.3,0.4,0.6,0.5,1.1,0.5c1,0,1.8-0.8,1.8-1.8c0-0.9-0.5-1.4-1.6-1.7l-0.4-0.1
		c-0.6-0.2-0.8-0.4-0.8-0.8c0-0.4,0.3-0.7,0.8-0.7c0.4,0,0.7,0.3,0.8,0.8h1v-1.6h-0.8v0.3c-0.3-0.3-0.6-0.5-1-0.5
		c-1,0-1.7,0.8-1.7,1.7c0,0.4,0.1,0.7,0.4,1c0.3,0.3,0.6,0.5,1.4,0.7c0.8,0.2,1,0.4,1,0.9c0,0.5-0.3,0.8-0.8,0.8
		c-0.5,0-0.8-0.3-0.9-0.9h-1V34.9L35.1,34.9z"/>
	<path class="st0" d="M41.4,29.1h-2.4V30h0.6V34h-0.6v0.9h2.3V34h-0.6v-1.1h0.9c1.1,0,1.9-0.8,1.9-1.9
		C43.6,29.8,42.8,29.1,41.4,29.1L41.4,29.1z M41.5,31.9h-0.8v-1.8h0.7c0.6,0,1,0.4,1,0.9C42.5,31.5,42.1,31.9,41.5,31.9L41.5,31.9z"
		/>
	<path class="st0" d="M46.9,29c-1.7,0-3,1.4-3,3c0,1.7,1.4,3,3,3c1.7,0,3-1.3,3-3C49.9,30.3,48.6,29,46.9,29L46.9,29z M46.9,33.9
		C45.9,33.9,45,33,45,32c0-1.1,0.9-1.9,1.9-1.9c1.1,0,1.9,0.9,1.9,1.9C48.8,33,48,33.9,46.9,33.9L46.9,33.9z"/>
	<path class="st0" d="M54,34l-0.9-1.1c0.8-0.1,1.4-0.8,1.4-1.7c0-1.2-0.8-2-2.1-2h-2.7V30h0.6V34h-0.6v0.9H52V34h-0.5v-1.7l1.8,2.6
		h1.3V34H54L54,34z M51.5,32.2v-2.1h0.8c0.7,0,1.1,0.4,1.1,1c0,0.7-0.5,1.1-1.2,1.1H51.5L51.5,32.2z"/>
	<polygon class="st0" points="57.6,30.1 58.5,30.1 58.5,30.9 59.3,30.9 59.3,29.1 54.8,29.1 54.8,30.9 55.7,30.9 55.7,30.1 
		56.5,30.1 56.5,34 55.9,34 55.9,34.9 58.2,34.9 58.2,34 57.6,34 57.6,30.1 	"/>
	<path class="st0" d="M64.1,34l-2-4.8h-1.9V30h0.6L59.2,34h-0.6v0.9h2.3v-0.8h-0.6l0.3-0.9h2l0.3,0.9h-0.6v0.8h2.4V34H64.1L64.1,34z
		 M60.9,32.4l0.7-2l0.7,2H60.9L60.9,32.4z"/>
	<polygon class="st0" points="66.8,30.1 67.6,30.1 67.6,30.9 68.5,30.9 68.5,29.1 64,29.1 64,30.9 64.8,30.9 64.8,30.1 65.7,30.1 
		65.7,34 65.1,34 65.1,34.9 67.4,34.9 67.4,34 66.8,34 66.8,30.1 	"/>
	<polygon class="st0" points="70.5,30 71.2,30 71.2,29.1 68.8,29.1 68.8,30 69.5,30 69.5,34 68.8,34 68.8,34.9 71.2,34.9 71.2,34 
		70.5,34 70.5,30 	"/>
	<path class="st0" d="M74,29c-1.7,0-3,1.4-3,3c0,1.7,1.4,3,3,3c1.7,0,3-1.3,3-3C77,30.3,75.7,29,74,29L74,29z M74,33.9
		c-1.1,0-1.9-0.9-1.9-1.9c0-1.1,0.9-1.9,1.9-1.9c1.1,0,1.9,0.9,1.9,1.9C75.9,33,75.1,33.9,74,33.9L74,33.9z"/>
	<polygon class="st0" points="82.3,30 82.9,30 82.9,29.1 80.6,29.1 80.6,30 81.2,30 81.2,33 78.5,29.1 76.9,29.1 76.9,30 77.5,30 
		77.5,34 76.9,34 76.9,34.9 79.2,34.9 79.2,34 78.6,34 78.6,31.1 81.3,34.9 82.3,34.9 82.3,30 	"/>
</g>
</svg>
