<?xml version="1.0" encoding="utf-8"?>
<!-- Generator: Adobe Illustrator 26.0.1, SVG Export Plug-In . SVG Version: 6.00 Build 0)  -->
<svg version="1.1" id="Layer_1" xmlns="http://www.w3.org/2000/svg" xmlns:xlink="http://www.w3.org/1999/xlink" x="0px" y="0px"
	 viewBox="0 0 95 35" style="enable-background:new 0 0 95 35;" xml:space="preserve">
<style type="text/css">
	.st0{fill:#FFFFFF;}
</style>
<g>
	<path class="st0" d="M55,19.8l5.7-5.6h-5.6v-2.6h9.6v2.7L59,19.9h5.8v2.6H55L55,19.8L55,19.8z"/>
	<rect x="51" y="8.1" class="st0" width="3" height="2.7"/>
	<rect x="50.9" y="11.7" class="st0" width="3" height="10.8"/>
	<path class="st0" d="M15,17c0-3.1,2.5-5.6,5.6-5.6c3.1,0,5.6,2.5,5.6,5.6c0,3.1-2.5,5.6-5.6,5.6C17.5,22.7,15,20.2,15,17
		C15,17.1,15,17.1,15,17z M23.4,17c0-1.5-1.2-2.8-2.7-2.8c-1.5,0-2.7,1.3-2.7,2.8s1.2,2.8,2.7,2.8C22.2,19.9,23.4,18.6,23.4,17
		L23.4,17z"/>
	<path class="st0" d="M39.6,11.6h2.9v1.2c0.7-0.9,1.8-1.4,3-1.4c2.6,0,4.1,1.6,4.1,4.4v6.6h-3v-6.2c0-1.5-0.7-2.3-2-2.3
		c-1.1,0-2.1,0.8-2.1,2.6v5.9h-3L39.6,11.6L39.6,11.6z"/>
	<path class="st0" d="M65,17c0-3.8,2.8-5.6,5.3-5.6c1.4,0,2.5,0.5,3.2,1.3v-1.1h3v10.8h-3v-1.2c-0.7,0.8-1.9,1.4-3.3,1.4
		C67.9,22.7,65,20.9,65,17z M73.6,17c0-1.6-1.2-2.9-2.8-2.9c-1.6,0-2.9,1.2-2.9,2.9s1.3,2.9,2.9,2.9C72.4,20,73.6,18.6,73.6,17
		L73.6,17z"/>
	<path class="st0" d="M77.6,11.6h2.9v1.2c0.7-0.9,1.8-1.4,3-1.4c2.6,0,4.1,1.6,4.1,4.4v6.6h-3v-6.2c0-1.5-0.7-2.3-2-2.3
		c-1.1,0-2.1,0.8-2.1,2.6v5.9h-3L77.6,11.6z"/>
	<path class="st0" d="M55,22.5v-2.6l5.7-5.6h-5.6v-2.6h9.6v2.7L59,19.8"/>
	<path class="st0" d="M11.8,16.9L11.8,16.9c-0.9,1.8-2.4,2.8-4.2,2.8C5.1,19.8,3,17.7,3,15c0-2.7,2-4.8,4.7-4.8c1.8,0,3.1,0.8,4,2.4
		l0,0.1l2.6-1.7l0-0.1C13,8.7,10.5,7.3,7.7,7.3C3.3,7.3,0,10.6,0,15.1c0,4.5,3.2,7.7,7.7,7.7c2.9,0,5.4-1.6,6.8-4.3l0-0.1L11.8,16.9
		z"/>
	<path class="st0" d="M27,17c0-3.8,2.8-5.6,5.3-5.6c1.4,0,2.5,0.6,3.2,1.4v-1.2h3v10.5c0,3.1-1.9,5.5-5.6,5.5
		c-2.8,0-4.8-1.4-5.6-3.1l2.6-1.5c0.6,1.1,1.6,1.8,3,1.8c1.6,0,2.6-1.3,2.6-2.7v-1c-0.7,0.8-1.9,1.4-3.3,1.4
		C29.9,22.7,27,20.9,27,17z M35.6,17c0-1.6-1.2-2.9-2.8-2.9c-1.6,0-2.9,1.2-2.9,2.9s1.3,2.9,2.9,2.9C34.4,20,35.6,18.6,35.6,17
		L35.6,17z"/>
	<path class="st0" d="M95,14.3v-2.7h-2V8.1h-3v3.6h-1.9v2.7H90v3.5c0,3.5,1.1,4.7,4.6,4.7H95v-2.8c-1.8,0-2-0.3-2-1.9v-3.4H95z"/>
</g>
</svg>
