<?xml version="1.0" encoding="utf-8"?>
<!-- Generator: Adobe Illustrator 26.0.1, SVG Export Plug-In . SVG Version: 6.00 Build 0)  -->
<svg version="1.1" id="Layer_1" xmlns="http://www.w3.org/2000/svg" xmlns:xlink="http://www.w3.org/1999/xlink" x="0px" y="0px"
	 viewBox="0 0 95 35" style="enable-background:new 0 0 95 35;" xml:space="preserve">
<style type="text/css">
	.st0{fill:#FFFFFF;}
</style>
<g>
	<g id="g15706" transform="translate(0 -.1)">
		<path id="path15698" class="st0" d="M20.6,11.8h0.5c1,0,2.1,0.2,3,0.8c0.7,0.5,1.3,1.2,1.6,2c0.2,0.5,0.3,1.1,0.4,1.7h-3.4
			c0-0.5-0.2-1-0.6-1.3c-0.4-0.3-0.9-0.4-1.4-0.4c-0.4,0-0.9,0.2-1.2,0.5c-0.4,0.4-0.6,0.9-0.7,1.4c-0.1,0.6-0.1,1.2-0.1,1.8
			c0.1,0.6,0.2,1.2,0.6,1.7c0.3,0.4,0.7,0.6,1.2,0.7c0.5,0.1,1,0,1.4-0.2c0.3-0.2,0.6-0.5,0.7-0.8c0.1-0.2,0.1-0.5,0.2-0.7h3.3
			c-0.1,1-0.3,1.9-0.9,2.7c-0.5,0.7-1.3,1.2-2.1,1.5c-0.6,0.2-1.3,0.3-2,0.3h-0.5c-0.9,0-1.8-0.2-2.6-0.6c-0.8-0.4-1.5-1-1.9-1.8
			c-0.6-0.9-0.8-2.1-0.8-3.1c-0.1-1.2,0.1-2.3,0.7-3.3c0.4-0.8,1-1.5,1.8-1.9C18.6,12.1,19.6,11.8,20.6,11.8z"/>
		<path id="path15700" class="st0" d="M40.2,11.8h0.5c1,0,2,0.2,2.9,0.8c0.4,0.3,0.8,0.7,1.1,1.1c0.3,0.5,0.4,1,0.5,1.6h-3.3
			c0-0.2-0.2-0.5-0.3-0.6c-0.2-0.2-0.6-0.3-0.9-0.3c-0.3,0-0.6,0-0.9,0.1c-0.2,0.1-0.4,0.2-0.4,0.4c-0.1,0.2-0.1,0.4,0.1,0.6
			c0.1,0.2,0.3,0.2,0.5,0.3c0.3,0.1,0.6,0.2,0.9,0.3c0.7,0.2,1.3,0.3,2,0.5c0.4,0.1,0.8,0.3,1.2,0.5c0.4,0.2,0.8,0.6,1.1,1
			s0.4,0.9,0.4,1.4c0,0.6-0.1,1.2-0.3,1.8c-0.2,0.4-0.5,0.8-0.9,1.2c-0.7,0.6-1.6,0.8-2.5,1c-0.3,0-0.7,0.1-1,0.1h-0.5
			c-0.8,0-1.6-0.2-2.4-0.5c-0.7-0.3-1.4-0.9-1.7-1.6c-0.3-0.5-0.4-1.1-0.5-1.7h3.4c0.1,0.2,0.2,0.5,0.3,0.7c0.2,0.2,0.3,0.3,0.6,0.3
			c0.3,0.1,0.6,0.1,0.9,0.1c0.3,0,0.6-0.1,0.8-0.2c0.2-0.1,0.3-0.3,0.3-0.5c0-0.2,0-0.4-0.2-0.6c-0.1-0.2-0.3-0.2-0.5-0.3
			c-0.3-0.1-0.7-0.2-1-0.3c-0.6-0.2-1.2-0.3-1.8-0.5c-0.4-0.2-0.9-0.3-1.3-0.5c-0.4-0.3-0.8-0.7-1.1-1.1c-0.2-0.5-0.3-1.1-0.3-1.7
			c0-0.5,0.2-1,0.4-1.5c0.2-0.4,0.6-0.8,1.1-1.1C38.1,12,39.2,11.8,40.2,11.8z"/>
		<path id="path15702" class="st0" d="M2.8,12.3c0.3-0.3,0.7-0.5,1.1-0.5s0.9,0.2,1.2,0.5L7,14.2l1.9-1.9c0.3-0.3,0.7-0.5,1.1-0.5
			c0.4,0,0.8,0.2,1.2,0.5l2.3,2.3c0.3,0.3,0.5,0.8,0.5,1.2c0,0.4-0.2,0.8-0.5,1.1C11.3,19,9.2,21.2,7,23.4c-2.2-2.1-4.3-4.3-6.5-6.5
			c-0.3-0.3-0.4-0.7-0.5-1v-0.2c0-0.4,0.2-0.7,0.5-1C1.2,13.8,2,13.1,2.8,12.3z"/>
		<path id="path15704" class="st0" d="M25.3,12.1h3.6c0.6,2.4,1.2,4.7,1.8,7.1c0.7-2.4,1.3-4.7,2-7.1h3.5c-1.2,3.6-2.5,7.3-3.7,10.9
			h-3.5C27.8,19.4,26.6,15.8,25.3,12.1z"/>
	</g>
	<g id="g15732" transform="translate(0 -.1)">
		<path id="path15708" class="st0" d="M46.4,13.1v-1h3.5v1h-1.1v3.6h5.5v-3.6h-1.1v-1h3.5v1h-1.1V22h1.1v1h-3.5v-1h1.1v-4.4h-5.5V22
			h1.1v1h-3.5v-1h1.1v-8.9H46.4z"/>
		<path id="path15710" class="st0" d="M75,12.1h2.3v9.1c0,0.2,0.1,0.5,0.2,0.7c0.1,0.2,0.3,0.2,0.5,0.2c0.2,0,0.4,0,0.6-0.1v1
			c-0.4,0.1-0.8,0.1-1.2,0.1c-0.3-0.1-0.7-0.2-0.9-0.4c-0.2-0.2-0.4-0.6-0.4-0.9c-0.1-0.4-0.1-0.8-0.1-1.2v-7.5h-1
			C75,12.8,75,12.4,75,12.1z"/>
		<path id="path15712" class="st0" d="M83.2,12.1h2.2v4.2c0.3-0.5,0.9-0.8,1.4-0.9c0.6-0.2,1.2-0.2,1.7,0c0.6,0.1,1.1,0.4,1.5,0.9
			c0.5,0.5,0.7,1.2,0.8,1.9c0,0.3,0,0.7,0,1v2.9h1v1h-3.3v-1h1v-3.5c0-0.6-0.2-1.2-0.5-1.7c-0.3-0.4-0.8-0.6-1.3-0.6
			c-0.5,0-1.1,0-1.6,0.3c-0.3,0.2-0.6,0.6-0.7,0.9c-0.1,0.3-0.2,0.7-0.2,1.1V22h1v1h-3.3v-1h1v-9h-1V12.1z"/>
		<path id="path15714" class="st0" d="M79.7,13.6H81v1.9h1.5v1H81v4.6c0,0.2,0,0.5,0.2,0.7c0.1,0.2,0.3,0.2,0.5,0.2
			c0.3,0,0.6,0,0.9,0v1c-0.4,0.1-0.8,0.1-1.2,0.1s-0.8-0.2-1.1-0.5c-0.4-0.4-0.5-1-0.5-1.6v-4.6h-1.2v-1h1.2V13.6z"/>
		<g id="g15718">
			<path id="path15716" class="st0" d="M60,15.4c0.7-0.2,1.4-0.2,2.1-0.1c0.8,0.2,1.6,0.6,2.1,1.2c0.4,0.5,0.6,1,0.7,1.6
				c0.1,0.5,0.1,1,0.1,1.5h-6.5c0,0.6,0.2,1.2,0.7,1.7c0.3,0.4,0.8,0.7,1.4,0.8c0.6,0.1,1.2,0.1,1.7-0.1c0.6-0.2,1.1-0.6,1.4-1.1
				h1.2c-0.3,0.8-0.9,1.4-1.7,1.8c-0.6,0.3-1.2,0.4-1.8,0.4c-1,0-1.9-0.2-2.7-0.8c-0.7-0.6-1.2-1.4-1.3-2.3c-0.2-1.1,0-2.3,0.6-3.2
				C58.3,16.2,59.1,15.6,60,15.4z M60.5,16.4c-0.5,0.1-1.1,0.3-1.4,0.7c-0.4,0.4-0.6,1-0.7,1.6h5.3c-0.1-0.6-0.2-1.1-0.6-1.6
				c-0.2-0.3-0.6-0.6-1-0.7C61.6,16.3,61,16.3,60.5,16.4z"/>
		</g>
		<g id="g15722">
			<path id="path15720" class="st0" d="M67.9,15.7c0.8-0.4,1.8-0.5,2.7-0.3c0.7,0.2,1.4,0.6,1.8,1.2v-1.1h2.2v1h-1v5.6h1v1h-2.2
				v-1.1c-0.5,0.6-1.2,1.1-1.9,1.2c-1,0.2-2.2,0-3-0.6c-0.7-0.6-1.3-1.4-1.5-2.3c-0.2-1-0.1-2,0.3-2.9
				C66.6,16.7,67.2,16.1,67.9,15.7L67.9,15.7z M69.5,16.3c-0.7,0.1-1.4,0.5-1.8,1.1c-0.5,0.8-0.7,1.8-0.5,2.7
				c0.2,0.7,0.6,1.5,1.3,1.8c0.8,0.4,1.9,0.4,2.7-0.2c0.4-0.3,0.7-0.7,0.9-1.1c0.3-0.7,0.4-1.6,0.2-2.4c-0.2-0.7-0.7-1.4-1.4-1.7
				C70.5,16.4,70,16.3,69.5,16.3z"/>
		</g>
		<g id="g15726">
			<path id="path15724" class="st0" d="M93.2,21.1c0.4-0.4,1.1-0.3,1.5,0.1c0.2,0.2,0.3,0.4,0.3,0.7v0.2c0,0.2-0.1,0.5-0.3,0.7
				c-0.3,0.3-0.8,0.4-1.2,0.3c-0.3-0.1-0.6-0.4-0.6-0.7C92.7,21.9,92.8,21.4,93.2,21.1z M93.7,21.1c-0.2,0-0.3,0.1-0.4,0.2
				c-0.4,0.3-0.4,1,0,1.4c0.3,0.3,0.8,0.3,1.2,0.1c0.4-0.4,0.4-1.1,0-1.5C94.2,21.1,93.9,21,93.7,21.1L93.7,21.1z"/>
		</g>
		<g id="g15730">
			<path id="path15728" class="st0" d="M93.5,21.4h0.6c0.1,0,0.3,0.1,0.3,0.2c0,0.1,0,0.2,0,0.4c-0.1,0.1-0.2,0.1-0.2,0.1
				c0.1,0.2,0.2,0.4,0.3,0.5h-0.2c-0.1-0.2-0.2-0.3-0.3-0.5h-0.2v0.5h-0.2C93.5,22.2,93.5,21.8,93.5,21.4L93.5,21.4z M93.7,21.6v0.4
				c0.1,0,0.3,0,0.4,0c0.2,0,0.2-0.3,0-0.3C93.9,21.5,93.8,21.6,93.7,21.6z"/>
		</g>
	</g>
</g>
</svg>
