<?xml version="1.0" encoding="utf-8"?>
<!-- Generator: Adobe Illustrator 26.0.1, SVG Export Plug-In . SVG Version: 6.00 Build 0)  -->
<svg version="1.1" id="Layer_1" xmlns="http://www.w3.org/2000/svg" xmlns:xlink="http://www.w3.org/1999/xlink" x="0px" y="0px"
	 viewBox="0 0 95 35" style="enable-background:new 0 0 95 35;" xml:space="preserve">
<style type="text/css">
	.st0{fill:#FFFFFF;}
</style>
<g>
	<path class="st0" d="M36.3,6c-0.2,0.1-0.7,0.3-1.4,0.3c-2,0-3.1-1.4-3.1-3.1C31.8,1.1,33.3,0,35,0c0.7,0,1.1,0.1,1.3,0.3l-0.2,1.2
		c-0.3-0.1-0.5-0.2-1-0.2c-0.9,0-1.8,0.5-1.8,1.9c0,1.2,0.7,1.8,1.8,1.8c0.4,0,0.7-0.1,1-0.2L36.3,6z M39.6,1.5
		c-0.5,0-1,0.2-1.3,0.6h0V0L37,0.5V6h1.3V3.4c0-0.4,0.2-0.8,0.7-0.8c0.5,0,0.7,0.4,0.7,1V6H41V3.4C41,2.1,40.5,1.5,39.6,1.5
		L39.6,1.5z M43,4.3c0,0.6,0.5,0.9,1.2,0.9c0.4,0,0.9-0.1,1.3-0.3l0.2,1c-0.5,0.3-1.1,0.4-1.7,0.4c-1.6,0-2.4-1-2.4-2.4
		c0-1.4,0.9-2.3,2.3-2.3c1.4,0,2,1,2,2.3c0,0.1,0,0.4,0,0.5L43,4.3 M44.6,3.3c0-0.3-0.2-0.9-0.8-0.9c-0.5,0-0.8,0.5-0.8,0.9H44.6z
		 M47.5,1.7l0.8,3.1h0l0.8-3.1h1.5L49.2,6h-1.6l-1.5-4.4L47.5,1.7z M51,3.1c0-0.6,0-1.1,0-1.4h1.3l0,0.8h0c0.2-0.6,0.6-0.9,1.1-0.9
		c0.2,0,0.3,0,0.4,0v1.3c-0.1,0-0.4-0.1-0.5,0c-0.5,0-0.8,0.4-0.9,0.9c0,0.1,0,0.2,0,0.3V6H51L51,3.1L51,3.1z M58.5,3.9
		c0,1.4-0.9,2.4-2.3,2.4c-1.4,0-2.3-0.9-2.3-2.4c0-1.4,0.9-2.4,2.3-2.4C57.7,1.5,58.5,2.4,58.5,3.9 M57.1,3.9c0-0.7-0.2-1.3-0.9-1.3
		c-0.6,0-0.9,0.6-0.9,1.3c0,0.7,0.2,1.3,0.9,1.3C56.9,5.2,57.1,4.6,57.1,3.9L57.1,3.9z M59.1,3.1c0-0.5,0-1,0-1.4h1.3l0,0.6h0
		C60.6,2,61,1.5,61.7,1.5c0.9,0,1.5,0.6,1.5,1.9V6h-1.3V3.6c0-0.6-0.2-0.9-0.7-0.9c-0.4,0-0.6,0.3-0.7,0.5c0,0.1,0,0.2,0,0.3V6h-1.3
		V3.1z"/>
	<path class="st0" d="M47.5,12.4l-15.7,5.2V7.2L47.5,12.4z"/>
	<path class="st0" d="M63.2,17.6V7.2l-15.7,5.2l-15.7,5.2l15.7,5.2L63.2,17.6z"/>
	<path class="st0" d="M47.5,24.6l-15.7,5.2l0-10.4L47.5,24.6z"/>
	<path class="st0" d="M31.9,29.8L47.5,35l15.7-5.2V19.3l-15.7,5.2L31.9,29.8z"/>
</g>
</svg>
