<?xml version="1.0" encoding="utf-8"?>
<!-- Generator: Adobe Illustrator 26.0.1, SVG Export Plug-In . SVG Version: 6.00 Build 0)  -->
<svg version="1.1" id="Layer_1" xmlns="http://www.w3.org/2000/svg" xmlns:xlink="http://www.w3.org/1999/xlink" x="0px" y="0px"
	 viewBox="0 0 95 35" style="enable-background:new 0 0 95 35;" xml:space="preserve">
<style type="text/css">
	.st0{fill:#CCCCCC;}
</style>
<g>
	<path class="st0" d="M22.6,3.5C19.1,0.9,14.5,0,10.1,1.4L0,4.5v5.9L22.6,3.5z"/>
	<path class="st0" d="M27.6,9.9C26.8,8,25.7,6.3,24.4,5L0,12.4v5.9L27.6,9.9z"/>
	<path class="st0" d="M28.3,17.6c0.4-1.9,0.3-3.9-0.1-5.9L0,20.4v5.9L28.3,17.6z"/>
	<path class="st0" d="M18.4,28.6c4.4-1.4,7.7-4.7,9.2-8.7L0,28.4v5.9L18.4,28.6z"/>
	<path class="st0" d="M35.5,5.6h3.6c3,0,4.8,1.9,4.8,4.8c0,2.9-1.8,4.8-4.8,4.8h-3.6V5.6z M39,13c1.6,0,2.5-1,2.5-2.6
		c0-1.6-0.9-2.6-2.5-2.6h-1V13L39,13L39,13z"/>
	<path class="st0" d="M48.2,15.3c-2.1,0-3.6-1.5-3.6-3.7c0-2.2,1.5-3.7,3.6-3.7c2.1,0,3.6,1.5,3.6,3.7S50.3,15.3,48.2,15.3 M48.2,10
		c-0.7,0-1.2,0.7-1.2,1.6s0.4,1.6,1.2,1.6c0.8,0,1.2-0.7,1.2-1.6C49.4,10.7,49,10,48.2,10"/>
	<path class="st0" d="M61.1,8c1.5,0,2.4,1,2.4,2.6v4.6H61v-4c0-0.6-0.3-1-0.8-1c-0.4,0-0.8,0.3-0.9,0.7v4.3h-2.4v-4
		c0-0.6-0.3-1-0.8-1c-0.4,0-0.8,0.3-0.9,0.7v4.3h-2.4v-7h2.4v0.6C55.6,8.3,56.2,8,57,8c0.9,0,1.5,0.3,1.9,0.8
		C59.4,8.4,60.1,8,61.1,8"/>
	<rect x="64.8" y="8.1" class="st0" width="2.4" height="7"/>
	<path class="st0" d="M68.6,8.1H71v0.6C71.4,8.3,72.1,8,72.9,8c1.6,0,2.5,1,2.5,2.6v4.6h-2.4v-4c0-0.6-0.3-1-0.9-1
		c-0.5,0-0.9,0.3-1,0.8v4.2h-2.4L68.6,8.1L68.6,8.1z"/>
	<rect x="76.7" y="8.1" class="st0" width="2.4" height="7"/>
	<path class="st0" d="M83.7,15.3c-2.1,0-3.6-1.5-3.6-3.7c0-2.2,1.5-3.7,3.6-3.7c2.1,0,3.6,1.5,3.6,3.7S85.8,15.3,83.7,15.3 M83.7,10
		c-0.7,0-1.2,0.7-1.2,1.6s0.4,1.6,1.2,1.6c0.8,0,1.2-0.7,1.2-1.6C84.8,10.7,84.4,10,83.7,10"/>
	<path class="st0" d="M88.2,8.1h2.4v0.6C91,8.3,91.7,8,92.5,8c1.6,0,2.5,1,2.5,2.6v4.6h-2.4v-4c0-0.6-0.3-1-0.9-1
		c-0.5,0-0.9,0.3-1,0.8v4.2h-2.4V8.1z"/>
	<rect x="76.7" y="5.6" class="st0" width="2.4" height="1.7"/>
	<rect x="64.8" y="5.6" class="st0" width="2.4" height="1.7"/>
	<path class="st0" d="M43.6,19.6h2.4v0.6c0.4-0.4,1.1-0.8,1.9-0.8c1.6,0,2.5,1,2.5,2.6v4.6H48v-4c0-0.6-0.3-1-0.9-1
		c-0.5,0-0.9,0.3-1,0.8v4.2h-2.4V19.6z"/>
	<path class="st0" d="M64.1,21.7c-0.3-0.1-0.6-0.2-1-0.2c-0.6,0-1.2,0.3-1.3,1v4.1h-2.4v-7h2.4v0.6c0.3-0.5,0.9-0.8,1.6-0.8
		c0.3,0,0.6,0.1,0.7,0.1V21.7z"/>
	<polygon class="st0" points="74.1,29.3 75.2,26.4 72.6,19.6 75.1,19.6 76.5,23.6 77.8,19.6 80.2,19.6 76.5,29.3 	"/>
	<path class="st0" d="M71.8,19.6h-2.4v0.5c-0.3-0.4-0.9-0.7-1.6-0.7c-2,0-3.1,1.5-3.1,3.4s1.1,3.5,3.1,3.5c0.7,0,1.2-0.3,1.6-0.6
		c0,0,0,0,0.1-0.1v0.5c0,0.9-0.8,1.4-1.7,1.4c-1,0-1.7-0.3-2.4-0.9v2.1c0.7,0.5,1.5,0.6,2.5,0.6c2.2,0,4.1-1.1,4.1-3.7L71.8,19.6z
		 M68.3,24.5c-1,0-1.4-0.7-1.4-1.6c0-0.9,0.4-1.6,1.3-1.6c0.5,0,1,0.4,1.2,0.7v1.9C69.2,24.1,68.8,24.5,68.3,24.5"/>
	<polygon class="st0" points="38,22.8 41.7,22.8 41.7,20.7 38,20.7 38,19.2 42.3,19.2 42.3,17 35.5,17 35.5,26.6 42.3,26.6 
		42.3,24.4 38,24.4 	"/>
	<path class="st0" d="M54.9,19.4c-2.1,0-3.6,1.6-3.6,3.7c0,2.5,1.5,3.7,3.9,3.7c1,0,1.9-0.2,2.5-0.5v-1.7c-0.8,0.4-1.5,0.5-2.1,0.5
		c-1.1,0-1.9-0.5-1.9-1.4h4.7c0-0.2,0-0.3,0-0.4C58.5,21.2,57.4,19.4,54.9,19.4 M53.7,22.3c0.1-0.8,0.7-1.2,1.2-1.2
		c0.5,0,1.2,0.4,1.3,1.2H53.7z"/>
	<path class="st0" d="M82.6,21.5c-0.7,0-1.2-0.6-1.2-1.2s0.6-1.2,1.2-1.2s1.2,0.6,1.2,1.2C83.8,21,83.3,21.5,82.6,21.5 M82.6,18.8
		c-0.8,0-1.4,0.6-1.4,1.4c0,0.8,0.6,1.4,1.4,1.4c0.8,0,1.4-0.6,1.4-1.4C84,19.5,83.4,18.8,82.6,18.8"/>
	<path class="st0" d="M82.5,20.2h-0.3v-0.4h0.4c0.2,0,0.4,0,0.4,0.2C83,20.2,82.7,20.2,82.5,20.2 M83.2,19.9c0-0.2-0.1-0.4-0.5-0.4
		h-0.6V21h0.2v-0.6h0.3l0.4,0.6h0.2l-0.4-0.6C83,20.3,83.2,20.2,83.2,19.9"/>
</g>
</svg>
