<?xml version="1.0" encoding="utf-8"?>
<!-- Generator: Adobe Illustrator 26.0.1, SVG Export Plug-In . SVG Version: 6.00 Build 0)  -->
<svg version="1.1" id="Layer_1" xmlns="http://www.w3.org/2000/svg" xmlns:xlink="http://www.w3.org/1999/xlink" x="0px" y="0px"
	 viewBox="0 0 95 35" style="enable-background:new 0 0 95 35;" xml:space="preserve">
<style type="text/css">
	.st0{fill:#343741;}
</style>
<g>
	<path id="logosvg_1_" class="st0" d="M31.4,4.1c0.7-0.1,2.9-0.3,3.6-0.3v22c0,3.7-2,5.5-5.2,5.1c-3.6-0.4-5.1-1.7-5.1-5.1V5
		c0.8-0.1,2.6-0.4,3.5-0.5v20.6c0,1.3,0.3,1.9,1.6,2c1.3,0.2,1.6-0.5,1.6-1.6V4.1z M22.1,11.2v12.6c0,2.8-1.5,4.5-4.1,4.5
		c-1.1,0-3.2-0.5-5.8-1.4V8c3-1,4.7-1.4,5.8-1.4C20.6,6.7,22.1,8.4,22.1,11.2z M18.9,11.7c0-1.1-0.6-1.5-1.3-1.5
		c-0.6,0-1.4,0.2-2.2,0.4v13.7c0.7,0.2,1.6,0.4,2.2,0.4c0.7,0,1.3-0.4,1.3-1.5V11.7z M0,17.5c0,2.6,2.4,5.1,6.5,7.2V10.3
		C2.4,12.4,0,14.9,0,17.5z M71.2,18.7l-4-14.1c-1.1-0.2-2.4-0.3-3.4-0.4v26.6c0.7-0.1,2.5-0.3,3.5-0.4L67,14.7l4.3,15.1
		c0.9-0.2,2.2-0.4,3.1-0.6V5.8c-0.9-0.2-2.6-0.5-3.3-0.6L71.2,18.7z M76.1,9.9c0.9,0.2,1.8,0.4,2.6,0.6v17.7
		c0.8-0.2,2.3-0.6,3.2-0.9V11.3c0.9,0.3,1.8,0.5,2.6,0.8V8.7c-2.6-1-5.3-1.7-8.5-2.5L76.1,9.9L76.1,9.9z M88.5,10.3L88.5,10.3v14.3
		c4.1-2.1,6.5-4.6,6.5-7.2C95,14.9,92.6,12.4,88.5,10.3z M48.2,8.6v8.2c0,3.5-1.6,5.4-5.4,5.4l-1.4,0v9.4c-1,0-2.9-0.1-3.6-0.2V3.6
		c2.1-0.1,4.4-0.2,5-0.2v0C46.5,3.4,48.2,5.1,48.2,8.6z M44.6,9.1c0-1.2-0.3-1.9-1.9-1.9c-0.3,0-0.6,0-1.2,0v10.9l1.3,0
		c1.5,0,1.9-0.6,1.9-1.8L44.6,9.1z M61.2,8.7v17.3c0,4.1-1.8,5.5-5.3,5.7c-3.5,0.2-5.4-1.4-5.4-5.3V8.3c0-3.7,2-5.2,5.4-5.1
		C59.5,3.4,61.2,4.8,61.2,8.7z M57.5,8.9c0-1.1-0.3-1.7-1.6-1.7c-1.3,0-1.7,0.6-1.7,1.7v17.3c0,1.1,0.4,1.7,1.7,1.7
		c1.3,0,1.6-0.6,1.6-1.7V8.9z"/>
</g>
</svg>
