<?xml version="1.0" encoding="utf-8"?>
<!-- Generator: Adobe Illustrator 26.0.1, SVG Export Plug-In . SVG Version: 6.00 Build 0)  -->
<svg version="1.1" id="Layer_1" xmlns="http://www.w3.org/2000/svg" xmlns:xlink="http://www.w3.org/1999/xlink" x="0px" y="0px"
	 viewBox="0 0 95 35" style="enable-background:new 0 0 95 35;" xml:space="preserve">
<style type="text/css">
	.st0{fill-rule:evenodd;clip-rule:evenodd;fill:#FFFFFF;}
</style>
<path class="st0" d="M58.2,2.3C55,0.8,51.3-0.1,47.5-0.1c-3.8,0-7.5,0.9-10.7,2.4c-1.1,2.7-1.7,5.7-1.7,8.8c0,3.1,0.6,6.1,1.7,8.8
	c3.2,1.5,6.9,2.4,10.7,2.4c3.8,0,7.5-0.9,10.7-2.4c1.1-2.7,1.8-5.7,1.8-8.8C59.9,8,59.3,5.1,58.2,2.3z M57.4,19.2
	c-2.9,1.4-6.4,2.2-9.9,2.2c-3.5,0-6.9-0.8-9.9-2.2c-1-2.5-1.5-5.3-1.5-8.1c0-2.9,0.5-5.6,1.5-8.1c3-1.4,6.4-2.2,9.9-2.2
	c3.5,0,6.9,0.8,9.9,2.2c1,2.5,1.6,5.3,1.6,8.1C59,14,58.4,16.7,57.4,19.2z"/>
<path class="st0" d="M44,8.5c-0.5,1.1-0.9,2.2-1,3.5c0,0-0.3,0-0.3,0c-1.1,0.1-2.2,0.2-3.3,0.6l0.1,0.4c1.8,2.2,4.5,3.6,4.5,3.6
	l-0.5-1c-0.1-0.1-0.5-0.2-0.5-0.2c-1.2-0.4-2.1-2-2.2-2.2c1,0,1.9,0.3,2.7,0.6c0.6,0.2,1.1,0.4,1.7,0.4c1,0.2,2,0,2.9-0.1
	c0.7-0.1,1.4-0.1,2.1,0c0.1,0.1,0.8,1,1.6,1.4c0.9,0.4,3.5,1.3,3.6,1.3c0.1,0,1.1,1.1,1.7,2.2c-2.9,1.3-6.3,2.1-9.6,2.1
	c-3.3,0-6.6-0.7-9.6-2.1c-1-2.5-1.5-5.1-1.5-7.8c0-2.7,0.5-5.3,1.5-7.8c2.9-1.3,6.3-2.1,9.6-2.1c3.3,0,6.6,0.7,9.6,2.1
	c1,2.5,1.5,5.1,1.5,7.8c0,2.5-0.4,4.9-1.2,7.1c-0.9-1.6-1.3-2.1-1.3-2.1c0,0-1.3-0.7-1.6-1C54.1,15,54,14.5,53.8,14
	c-0.2-0.7-0.4-1.6-1.2-2.4l0.8-0.3c-0.2-1.5-2-2.5-2.1-2.5l0,0c0.7,0.9,0.8,1.6,0.8,2c0,0.2,0,0.4-0.1,0.4c-0.2-0.1-1.5-0.5-4.6-0.4
	c-0.4,0-1.1,0-1.4-0.4c-0.2-0.2-0.3-0.5-0.3-0.9l0,0c0-1.1,0.4-2.5,0.5-2.7l0.8,0.1c1-0.5,1.3-1,1.3-1.1c-0.8,0.1-1.9,0.3-1.9,0.3
	c0.1-0.2,0.3-0.8,0.3-1.4c0-0.7-0.2-1.5-1.2-2l-0.1,0c0,0,0.5,0.6,0.5,1.4c0,0.2,0,0.5-0.1,0.7c-0.3-0.1-0.5-0.1-0.9-0.1
	c-0.2-0.6-0.7-1.2-1.5-1.4l0,0c0,0,0.8,0.6,0.8,1.4c-0.4,0-0.6,0.1-1.1,0.2c-0.2-0.3-0.7-0.6-1.3-0.6v0.1c0,0,0.7,0.2,0.8,0.8
	c-0.4,0.2-0.9,0.5-1.2,0.7l0,0c1.8-0.7,3.5-0.8,3.9-0.3c0.1,0.1,0.1,0.2,0.1,0.3c0,0.1-0.1,0.3-0.2,0.5c-0.9,0.2-2.2,0.5-3.3,1
	L42.5,8c0,0,1.1,0.2,1.5,0.3C44,8.4,44.1,8.4,44,8.5L44,8.5z"/>
<g>
	<path class="st0" d="M15.9,33.4c0,0,0.8,0.3,1.7,0.3c1,0,1.5-0.1,1.9-0.5c0.3-0.3,0.4-0.7,0.4-1.4v-4.5h1.4V32c0,2.1-1,3-3.4,3
		c-1.1,0-1.9-0.2-1.9-0.2V33.4L15.9,33.4z"/>
	<path class="st0" d="M25.3,28.6c2.2,0,3.6,1.2,3.6,3.2c0,1.4-0.9,3.1-3.6,3.1c-2.7,0-3.6-1.7-3.6-3.1
		C21.8,29.8,23.1,28.6,25.3,28.6L25.3,28.6z M27.5,31.7c0-1.2-0.8-1.9-2.2-1.9c-1.4,0-2.2,0.7-2.2,1.9c0,1.7,1.4,1.9,2.2,1.9
		C26.2,33.7,27.5,33.4,27.5,31.7L27.5,31.7z"/>
	<polygon class="st0" points="34.5,28.8 34.5,31.2 30.9,31.2 30.9,28.8 29.5,28.8 29.5,34.8 30.9,34.8 30.9,32.4 34.5,32.4 
		34.5,34.8 35.9,34.8 35.9,28.8 34.5,28.8 	"/>
	<polygon class="st0" points="55.5,33.5 55.5,32.4 58.7,32.4 58.7,31.2 55.5,31.2 55.5,30 59.6,30 59.6,28.8 54.1,28.8 54.1,34.8 
		59.6,34.8 59.6,33.5 55.5,33.5 	"/>
	<polygon class="st0" points="61.8,33.5 61.8,32.4 65,32.4 65,31.2 61.8,31.2 61.8,30 65.9,30 65.9,28.8 60.4,28.8 60.4,34.8 
		65.9,34.8 65.9,33.5 61.8,33.5 	"/>
	<polygon class="st0" points="74.9,33.5 74.9,32.4 78.1,32.4 78.1,31.2 74.9,31.2 74.9,30 79.1,30 79.1,28.8 73.5,28.8 73.5,34.8 
		79.1,34.8 79.1,33.5 74.9,33.5 	"/>
	<path class="st0" d="M49.3,28.5c1.8,0,2.9,0.9,2.9,2.5c0,2.2-1.8,2.6-2.9,2.6h-2v-5H49.3L49.3,28.5z M49.3,27.3H46v7.5h3.4
		c3.2,0,4.3-2,4.3-3.7C53.6,28.7,52,27.3,49.3,27.3L49.3,27.3z"/>
	<path class="st0" d="M71.3,32.5c1.1-0.3,1.5-1.1,1.5-1.8c0-1.2-0.8-1.9-2.2-1.9h-3.9v6h1.4v-2.2h1.6l1.7,2.2h1.7L71.3,32.5
		L71.3,32.5z M68.1,31.3V30h2.6c0.5,0,0.8,0.3,0.8,0.7c0,0.6-0.5,0.7-0.8,0.7H68.1L68.1,31.3z"/>
	<polygon class="st0" points="41.8,34.8 38.2,30.7 38.2,34.8 36.8,34.8 36.8,28.8 38.2,28.8 41.8,32.8 41.8,28.8 43.2,28.8 
		43.2,34.8 41.8,34.8 	"/>
</g>
</svg>
