<?xml version="1.0" encoding="utf-8"?>
<!-- Generator: Adobe Illustrator 26.0.1, SVG Export Plug-In . SVG Version: 6.00 Build 0)  -->
<svg version="1.1" id="Layer_1" xmlns="http://www.w3.org/2000/svg" xmlns:xlink="http://www.w3.org/1999/xlink" x="0px" y="0px"
	 viewBox="0 0 95 35" style="enable-background:new 0 0 95 35;" xml:space="preserve">
<style type="text/css">
	.st0{fill:#343741;}
</style>
<path class="st0" d="M93.1,9.1c0,0-0.1,0-0.1,0c-15.1,0.9-30.3,1.4-45.4,1.4c-15.2,0-30.3-0.5-45.4-1.4c0,0-0.1,0-0.1,0
	C0.9,9.1,0,9.9,0,11V24c0,1.1,0.9,1.9,1.9,1.9h0.1c15.1-0.9,30.3-1.4,45.4-1.4c15.1,0,30.3,0.5,45.4,1.4h0.1c1.1,0,1.9-0.8,1.9-1.9
	V11C95,9.9,94.1,9.1,93.1,9.1z M94.3,24c0,0.7-0.6,1.3-1.2,1.3c0,0-0.1,0-0.1,0c-15.1-0.9-30.4-1.4-45.5-1.4
	c-15.1,0-30.4,0.5-45.5,1.4c0,0-0.1,0-0.1,0c-0.7,0-1.2-0.6-1.2-1.3V11c0-0.7,0.5-1.3,1.2-1.3c0,0,0.1,0,0.1,0
	c15.1,0.9,30.4,1.4,45.5,1.4c15.1,0,30.4-0.5,45.5-1.4c0,0,0.1,0,0.1,0h0h0c0,0,0,0,0,0c0.3,0,0.6,0.1,0.9,0.4
	c0.2,0.2,0.4,0.6,0.4,0.9V24z"/>
<path class="st0" d="M49.8,13.9c-2.1,0-3.3,1.3-3.3,3.6c0,2,0.9,3.6,3.1,3.6c0.7,0,1.4-0.2,1.8-0.5l0.2,0.3h1.1v-3.5h-2.6v1.1h0.7
	v0.9c-0.2,0.1-0.5,0.2-0.8,0.2c-1,0-1.5-0.8-1.5-2.2c0-1.3,0.5-2,1.2-2c0.6,0,0.8,0.4,1,1l2-0.3C52.4,14.7,51.4,13.9,49.8,13.9
	L49.8,13.9z M15.5,13.9c-2.1,0-3.2,1.5-3.2,3.6c0,2.1,1.1,3.6,3.2,3.6c2.1,0,3.2-1.5,3.2-3.6C18.7,15.4,17.5,13.9,15.5,13.9z
	 M5,14.1v1.3h0.7v5.5H8c2.2,0,3.8-0.8,3.8-3.4c0-2.8-1.4-3.5-4-3.5L5,14.1L5,14.1z M19.4,14.1v6.8h4.7l0.1-1.3h-2.9v-5.5L19.4,14.1
	L19.4,14.1z M24.7,14.1v6.8h4.7l0.1-1.3h-2.9v-5.5L24.7,14.1L24.7,14.1z M32,14.1l-0.4,1.3l-1.8,5.5h1.9l0.4-1.3h2.3l0.4,1.3h2
	l-2.5-6.8L32,14.1L32,14.1z M37.2,14.1l0,6.8h1.9v-2.3h0.5l0.8,1.2c0.3,0.4,0.5,0.7,0.7,0.9c0.3,0.2,0.6,0.3,1.1,0.3
	c0.4,0,0.8-0.1,1-0.3l0.1-1.2c-0.1,0.1-0.3,0.2-0.5,0.2c-0.3,0-0.4-0.1-0.6-0.4l-0.6-0.9c0.8-0.3,1.3-1,1.3-2.1c0-0.8-0.3-1.5-1-1.9
	c-0.5-0.3-1.2-0.4-2.1-0.4L37.2,14.1L37.2,14.1z M53.6,14.1v6.8h4.7l0.1-1.3h-2.9v-1.5h2.2v-1.3h-2.2v-1.4h2.7v-1.3L53.6,14.1
	L53.6,14.1z M59.1,14.1v6.8h1.6v-3.7c0.1,0.1,0.2,0.3,0.3,0.5l2.8,3.3h1.2v-6.8h-1.5v3.8c-0.1-0.1-0.2-0.3-0.3-0.5l-2.8-3.3
	L59.1,14.1L59.1,14.1z M65.9,14.1v6.8h4.7l0.1-1.3h-2.9v-1.5H70v-1.3h-2.2v-1.4h2.7v-1.3L65.9,14.1L65.9,14.1z M71.4,14.1v6.8h1.9
	v-2.3h0.5l0.8,1.2c0.3,0.4,0.5,0.7,0.7,0.9c0.3,0.2,0.6,0.3,1.1,0.3c0.4,0,0.8-0.1,1-0.3l0.1-1.2c-0.1,0.1-0.3,0.2-0.5,0.2
	c-0.3,0-0.4-0.1-0.6-0.4l-0.6-0.9c0.8-0.3,1.3-1,1.3-2.1c0-0.8-0.3-1.5-1-1.9c-0.5-0.3-1.2-0.4-2.1-0.4L71.4,14.1L71.4,14.1z
	 M80,14.1l-0.4,1.3l-1.8,5.5h1.9l0.4-1.3h2.3l0.4,1.3h2l-2.5-6.8L80,14.1L80,14.1z M85.2,14.1v6.8h4.7l0.1-1.3h-2.9v-5.5L85.2,14.1
	L85.2,14.1z M15.5,15.4c0.8,0,1.2,0.6,1.2,2.1c0,1.5-0.4,2.1-1.2,2.1c-0.8,0-1.2-0.6-1.2-2.1C14.3,16,14.7,15.4,15.5,15.4z
	 M7.6,15.4H8c1.2,0,1.8,0.3,1.8,2c0,1.4-0.2,2.2-1.7,2.2H7.6L7.6,15.4L7.6,15.4z M39.1,15.4h0.5c0.5,0,0.9,0,1.1,0.2
	c0.2,0.2,0.2,0.4,0.2,0.8c0,0.7-0.3,1.1-1,1.1h-0.8V15.4L39.1,15.4z M73.3,15.4h0.5c0.5,0,0.9,0,1.1,0.2c0.2,0.2,0.2,0.4,0.2,0.8
	c0,0.7-0.3,1.1-1,1.1h-0.8V15.4L73.3,15.4z M33.1,15.7L33.1,15.7c0,0.3,0.1,0.6,0.3,1l0.5,1.6h-1.5l0.5-1.7C33,16.3,33,16,33.1,15.7
	L33.1,15.7z M81.1,15.7L81.1,15.7c0,0.3,0.2,0.6,0.3,1l0.5,1.6h-1.5l0.5-1.7C81,16.3,81.1,16,81.1,15.7L81.1,15.7z"/>
</svg>
