<?xml version="1.0" encoding="utf-8"?>
<!-- Generator: Adobe Illustrator 26.0.1, SVG Export Plug-In . SVG Version: 6.00 Build 0)  -->
<svg version="1.1" id="Layer_1" xmlns="http://www.w3.org/2000/svg" xmlns:xlink="http://www.w3.org/1999/xlink" x="0px" y="0px"
	 viewBox="0 0 95 35" style="enable-background:new 0 0 95 35;" xml:space="preserve">
<style type="text/css">
	.st0{fill:#343741;}
</style>
<g id="g20730" transform="matrix(0.35277778,0,0,0.35277778,-25.874536,-55.108257)">
	<path id="path20728" class="st0" d="M143.2,193.7c-2.4-8.1-18.6-10.4-36-5.2c-0.8,0.2-1.6,0.5-2.4,0.8c15.6-3.6,29.2-1.2,31.3,5.9
		c2.4,7.9-9.9,18.5-27.4,23.7c-0.4,0.1-0.8,0.2-1.2,0.3l8.1-28.1l0,0l0,0l-2.1,0.1c-4,0.4-8.2,1.2-12.6,2.5
		C83.4,199,71.2,209.9,73.7,218c2.4,8.1,18.6,10.4,36.1,5.2c0.8-0.2,1.6-0.5,2.4-0.8c-15.6,3.6-29.2,1.2-31.4-5.9
		c-2.4-7.9,9.9-18.5,27.4-23.7c0.4-0.1,0.7-0.2,1.1-0.3l-8,28.1l2.1-0.1c4-0.4,8.2-1.2,12.6-2.5
		C133.4,212.6,145.6,201.8,143.2,193.7"/>
</g>
<path id="path20732" class="st0" d="M30,20.4c0.2,0,0.5,0,0.8,0c0.9,0,1.8-0.2,2.3-0.6c0.5-0.4,0.8-0.9,0.8-1.5
	c0-0.8-0.7-1.2-2.1-1.2c-0.3,0-0.6,0-0.8,0L30,20.4z M29.5,16.4c0.7-0.1,1.4-0.1,2.2-0.1c1.3,0,2.3,0.2,3,0.5
	c0.7,0.3,1.1,0.8,1.1,1.5c0,1-0.7,1.8-1.7,2.3c-0.9,0.5-2.1,0.7-3.9,0.7c-1,0-1.8-0.1-2.2-0.1L29.5,16.4z"/>
<path id="path20734" class="st0" d="M42.8,19.1l-0.2-1.1c0-0.3-0.1-0.7-0.1-1h0c-0.2,0.3-0.4,0.7-0.6,1L41,19.1H42.8z M40.5,20
	l-0.9,1.3h-1.8l3.9-4.9h2.2l0.9,4.9H43L42.8,20H40.5z"/>
<path id="path20736" class="st0" d="M48.3,21.2l1.5-4.9h2l1.1,1.9c0.3,0.6,0.5,1.1,0.7,1.7h0c0-0.5,0.2-1,0.4-1.8l0.6-1.8h1.6
	l-1.5,4.9h-1.8l-1.1-2c-0.4-0.7-0.6-1.1-0.8-1.7h0c-0.1,0.5-0.3,1.2-0.5,2l-0.5,1.7H48.3z"/>
<path id="path20738" class="st0" d="M63.4,19.1l-0.2-1.1c0-0.3-0.1-0.7-0.1-1h0c-0.2,0.3-0.4,0.7-0.6,1l-0.8,1.1H63.4z M61.1,20
	l-0.9,1.3h-1.8l3.9-4.9h2.2l0.9,4.9h-1.8L63.4,20H61.1z"/>
<path id="path20740" class="st0" d="M72.2,16.3l-0.6,1.9h2.9l0.6-1.9h1.7l-1.5,4.9h-1.7l0.6-2.1h-2.9l-0.6,2.1h-1.7l1.5-4.9H72.2z"
	/>
<path id="path20742" class="st0" d="M84.7,19.1h-2.9l-0.4,1.2h3.2l-0.3,0.9h-4.9l1.5-4.9h4.8l-0.3,0.9h-3l-0.3,1H85L84.7,19.1z"/>
<g id="g20746" transform="matrix(0.35277778,0,0,0.35277778,-25.874536,-55.108257)">
	<path id="path20744" class="st0" d="M331,208.6h2c2.6,0,4.6-1,4.6-2.3c0-1.1-1.5-1.6-3.5-1.6c-0.9,0-1.5,0-1.9,0.1L331,208.6z
		 M328,202.7c1.5-0.2,3.8-0.4,6.1-0.4c2.2,0,4.4,0.2,6,0.8c1.5,0.5,2.5,1.4,2.5,2.7c0,2.1-2.2,3.4-5.2,4v0.1c1.4,0.4,2,1.3,2.2,2.6
		c0.3,1.6,0.5,3.4,0.9,4h-5c-0.2-0.4-0.4-1.6-0.6-3.3c-0.2-1.7-1.2-2.2-3.1-2.2h-1.5l-1.7,5.5h-4.8L328,202.7z"/>
</g>
</svg>
