<?xml version="1.0" encoding="utf-8"?>
<!-- Generator: Adobe Illustrator 26.0.1, SVG Export Plug-In . SVG Version: 6.00 Build 0)  -->
<svg version="1.1" id="Layer_1" xmlns="http://www.w3.org/2000/svg" xmlns:xlink="http://www.w3.org/1999/xlink" x="0px" y="0px"
	 viewBox="0 0 95 35" style="enable-background:new 0 0 95 35;" xml:space="preserve">
<style type="text/css">
	.st0{fill:#CCCCCC;}
</style>
<g>
	<path class="st0" d="M54.6,21.7h0.9L54.9,18h-1.2l-0.6,3.8h0.8l0.1-0.8h0.5L54.6,21.7z M54.1,20.4l0.2-1.8l0.2,1.8H54.1z
		 M55.7,21.7h1.1c0.8,0,1.1-0.6,1.1-1.9c0-1.3-0.4-1.9-1.1-1.9h-1.1V21.7z M57,19.8c0,1-0.1,1.2-0.4,1.2h-0.1v-2.5h0.1
		C56.9,18.6,57,18.8,57,19.8 M58.9,18H58l0.6,3.8h1.2l0.6-3.8h-0.8l-0.4,3.1L58.9,18z M60.7,21.7h0.9V18h-0.9V21.7z M62.6,18.8
		c0-0.2,0.1-0.3,0.2-0.3c0.2,0,0.3,0.2,0.3,0.4l0,0.2l0.7,0l0-0.2c0-0.8-0.4-1-0.9-1c-0.7,0-1,0.4-1,1c0,0.5,0.2,0.8,0.6,1.2
		c0.3,0.2,0.6,0.5,0.6,0.7c0,0.2-0.1,0.3-0.2,0.3c-0.2,0-0.3-0.1-0.3-0.5l0-0.2l-0.7,0l0,0.3c0,0.8,0.5,1,1,1c0.7,0,1-0.4,1-1
		c0-0.6-0.3-0.8-0.7-1.2C62.8,19.2,62.6,19.1,62.6,18.8 M65.2,21.8c0.8,0,1.2-0.5,1.2-1.9c0-1.4-0.4-1.9-1.2-1.9
		c-0.8,0-1.2,0.5-1.2,1.9C64.1,21.3,64.5,21.8,65.2,21.8 M65.2,21.1c-0.2,0-0.3-0.2-0.3-1.3c0-1.1,0.1-1.3,0.3-1.3s0.3,0.2,0.3,1.3
		C65.5,20.9,65.4,21.1,65.2,21.1 M68.9,21.7L68.4,20c0.3-0.2,0.4-0.5,0.4-1c0-0.7-0.4-1.1-1-1.1h-1.1v3.8h0.9v-1.5h0.1l0.3,1.5H68.9
		z M67.6,18.6h0.1c0.1,0,0.3,0.1,0.3,0.6c0,0.5-0.2,0.6-0.3,0.6h-0.1V18.6z M69.8,18.8c0-0.2,0.1-0.3,0.2-0.3c0.2,0,0.3,0.2,0.3,0.4
		l0,0.2l0.7,0l0-0.2c0-0.8-0.4-1-0.9-1c-0.7,0-1,0.4-1,1c0,0.5,0.2,0.8,0.6,1.2c0.3,0.2,0.6,0.5,0.6,0.7c0,0.2-0.1,0.3-0.2,0.3
		c-0.2,0-0.3-0.1-0.3-0.5l0-0.2l-0.7,0l0,0.3c0,0.8,0.5,1,1,1c0.7,0,1-0.4,1-1c0-0.6-0.3-0.8-0.7-1.2C70,19.2,69.8,19.1,69.8,18.8"
		/>
	<path class="st0" d="M55.3,14.4l0-0.2c0-0.6-0.4-1-0.9-1c-0.8,0-1.2,0.6-1.2,1.9c0,1.4,0.4,1.9,1.1,1.9c0.3,0,0.5-0.1,0.6-0.3
		L55,17h0.3v-2h-1v0.5h0.3v0.7c0,0.2-0.1,0.2-0.2,0.2c-0.2,0-0.3-0.2-0.3-1.3c0-1.1,0.1-1.3,0.3-1.3c0.1,0,0.2,0.1,0.3,0.4l0,0.2
		L55.3,14.4z M57.1,17v-0.7h-0.6v-3.1h-0.9V17H57.1z M58.4,17.1c0.8,0,1.2-0.5,1.2-1.9c0-1.4-0.4-1.9-1.2-1.9
		c-0.8,0-1.2,0.5-1.2,1.9C57.3,16.6,57.6,17.1,58.4,17.1 M58.4,16.4c-0.2,0-0.3-0.2-0.3-1.3c0-1.1,0.1-1.3,0.3-1.3s0.3,0.2,0.3,1.3
		C58.7,16.2,58.6,16.4,58.4,16.4 M59.9,17h1c0.8,0,1.1-0.4,1.1-1.2c0-0.4-0.1-0.7-0.5-0.9c0.3-0.1,0.5-0.4,0.5-0.8
		c0-0.6-0.4-0.9-1.1-0.9h-1V17z M61.2,14.3c0,0.4-0.1,0.5-0.3,0.5h-0.1v-0.9h0.1C61,13.9,61.2,14,61.2,14.3 M60.7,16.4v-1.1h0.1
		c0.2,0,0.3,0.1,0.3,0.5C61.2,16.3,61,16.4,60.7,16.4L60.7,16.4z M63.6,17h0.9l-0.6-3.8h-1.2L62.1,17h0.8l0.1-0.8h0.5L63.6,17z
		 M63.1,15.7l0.2-1.8l0.2,1.8H63.1z M66.2,17v-0.7h-0.6v-3.1h-0.9V17H66.2z"/>
	<path class="st0" d="M1.9,15.2c0-0.4,0.3-0.6,0.5-0.6C2.8,14.6,3,15,3,15.5l0,0.4l1.5-0.1l0-0.5c-0.1-1.7-1-2.2-2.1-2.2
		c-1.5,0-2.2,1-2.2,2.2c0,1.2,0.5,1.9,1.4,2.7c0.6,0.5,1.3,1.1,1.3,1.6c0,0.4-0.2,0.6-0.5,0.6c-0.4,0-0.7-0.3-0.8-1.1l0-0.4L0,18.9
		l0,0.7c0.1,1.8,1.2,2.2,2.3,2.2c1.6,0,2.3-1,2.3-2.3c0-1.3-0.7-1.9-1.5-2.6C2.2,16,1.9,15.8,1.9,15.2 M5.9,21.7h1.9v-7h1.1v-1.5
		H4.7v1.5h1.1V21.7z M12.1,21.7H14l-1.3-8.5h-2.7l-1.4,8.5h1.8l0.2-1.9h1.1L12.1,21.7z M10.9,18.7l0.5-4l0.4,4H10.9z M15,21.7H17v-7
		h1.1v-1.5h-4.2v1.5H15V21.7z M22,21.7v-1.5h-1.4v-2.4h1.2v-1.1h-1.2v-2H22v-1.5h-3.3v8.5H22z M26.4,15.2c0-0.4,0.3-0.6,0.5-0.6
		c0.5,0,0.6,0.4,0.6,0.9l0,0.4l1.5-0.1l0-0.5c-0.1-1.7-1-2.2-2.1-2.2c-1.5,0-2.2,1-2.2,2.2c0,1.2,0.5,1.9,1.4,2.7
		c0.6,0.5,1.3,1.1,1.3,1.6c0,0.4-0.2,0.6-0.5,0.6c-0.4,0-0.7-0.3-0.8-1.1l0-0.4l-1.5,0.1l0,0.7c0.1,1.8,1.2,2.2,2.3,2.2
		c1.6,0,2.3-1,2.3-2.3c0-1.3-0.7-1.9-1.5-2.6C26.7,16,26.4,15.8,26.4,15.2 M30.4,21.7h1.9v-7h1.1v-1.5h-4.2v1.5h1.1V21.7z
		 M38.6,21.7l-1-3.9c0.6-0.4,0.9-1.2,0.9-2.2c0-1.6-0.9-2.4-2.2-2.4h-2.5v8.5h1.9v-3.4h0.2l0.8,3.4H38.6z M35.8,14.7H36
		c0.3,0,0.6,0.2,0.6,1.3c0,1.1-0.3,1.2-0.7,1.2h-0.2V14.7z M42.5,21.7v-1.5h-1.4v-2.4h1.2v-1.1h-1.2v-2h1.4v-1.5h-3.3v8.5H42.5z
		 M46.5,21.7v-1.5h-1.4v-2.4h1.2v-1.1h-1.2v-2h1.4v-1.5h-3.3v8.5H46.5z M48.1,21.7H50v-7h1.1v-1.5H47v1.5h1.1V21.7z"/>
	<path class="st0" d="M81.7,18.8c1.5,0,2.4-0.9,2.4-2.8c0-2-0.9-2.8-2.2-2.8h-2.5v8.5h1.9v-2.9H81.7z M82.2,16.1
		c0,1.2-0.3,1.4-0.6,1.4h-0.3v-2.8h0.3C81.9,14.7,82.2,14.9,82.2,16.1 M84.6,21.7H87c1.7,0,2.6-1.4,2.6-4.2c0-2.9-0.9-4.2-2.6-4.2
		h-2.4V21.7z M87.7,17.5c0,2.3-0.3,2.8-0.9,2.8h-0.3v-5.6h0.3C87.4,14.7,87.7,15.2,87.7,17.5 M95,21.7l-1-3.9
		c0.6-0.4,0.9-1.2,0.9-2.2c0-1.6-0.9-2.4-2.2-2.4h-2.5v8.5h1.9v-3.4h0.2l0.8,3.4H95z M92.2,14.7h0.2c0.3,0,0.6,0.2,0.6,1.3
		c0,1.1-0.3,1.2-0.7,1.2h-0.2V14.7z M77.2,16.9c0.8,0.7,1.5,1.3,1.5,2.6c0,1.4-0.7,2.3-2.3,2.3c-1.1,0-2.2-0.5-2.3-2.2l0-0.7
		l1.5-0.1l0,0.4c0,0.8,0.3,1.1,0.8,1.1c0.4,0,0.5-0.2,0.5-0.6c0-0.6-0.6-1.1-1.3-1.6c-0.9-0.8-1.4-1.5-1.4-2.7
		c0-1.2,0.7-2.2,2.2-2.2c1.2,0,2.1,0.5,2.1,2.2l0,0.5l-1.5,0.1l0-0.4c0-0.5-0.2-0.9-0.6-0.9c-0.3,0-0.5,0.2-0.5,0.6
		C75.9,15.8,76.3,16,77.2,16.9"/>
</g>
</svg>
