<?xml version="1.0" encoding="utf-8"?>
<!-- Generator: Adobe Illustrator 26.0.1, SVG Export Plug-In . SVG Version: 6.00 Build 0)  -->
<svg version="1.1" id="Layer_1" xmlns="http://www.w3.org/2000/svg" xmlns:xlink="http://www.w3.org/1999/xlink" x="0px" y="0px"
	 viewBox="0 0 95 35" style="enable-background:new 0 0 95 35;" xml:space="preserve">
<style type="text/css">
	.st0{fill:#FFFFFF;}
</style>
<g id="layer1" transform="translate(-166.42593,-139.63095)">
	<g id="g4483" transform="matrix(2.1969678,0,0,2.1969678,-78.065187,-473.77994)">
		<g id="g3352" transform="matrix(1.25,0,0,-1.25,389.62821,311.07898)">
			<path id="path3354" class="st0" d="M-198.9,19c0,0.6,0.3,0.9,0.8,0.9c0.4,0,0.6-0.2,0.7-0.6l-0.3-0.1c-0.1,0.2-0.2,0.4-0.4,0.4
				c-0.3,0-0.5-0.2-0.5-0.7c0-0.4,0.2-0.7,0.5-0.7c0.2,0,0.4,0.1,0.4,0.4l0.3-0.1c-0.1-0.4-0.3-0.6-0.7-0.6
				C-198.6,18.1-198.9,18.4-198.9,19"/>
		</g>
		<g id="g3356" transform="matrix(1.25,0,0,-1.25,409.66571,314.18023)">
			<path id="path3358" class="st0" d="M-213.2,21.2c0,0.5,0.3,0.7,0.6,0.7c0.3,0,0.6-0.2,0.6-0.7c0-0.5-0.3-0.7-0.6-0.7
				C-212.9,20.6-213.2,20.8-213.2,21.2 M-212.2,21.2c0,0.2-0.1,0.4-0.3,0.4c-0.2,0-0.3-0.2-0.3-0.4c0-0.2,0.1-0.4,0.3-0.4
				C-212.4,20.8-212.2,21-212.2,21.2"/>
		</g>
		<g id="g3360" transform="matrix(1.25,0,0,-1.25,427.19571,321.86398)">
			<path id="path3362" class="st0" d="M-225.8,26.7V28h0.3v-0.2c0.1,0.1,0.3,0.2,0.5,0.2c0.2,0,0.3-0.1,0.4-0.2
				c0.1,0.1,0.3,0.2,0.5,0.2c0.3,0,0.4-0.2,0.4-0.4v-0.9h-0.3v0.9c0,0.1,0,0.2-0.2,0.2c-0.1,0-0.2-0.1-0.3-0.2v-0.9h-0.3v0.9
				c0,0.1,0,0.2-0.2,0.2c-0.1,0-0.2-0.1-0.3-0.2v-0.9H-225.8"/>
		</g>
		<g id="g3364" transform="matrix(1.25,0,0,-1.25,453.41571,327.66273)">
			<path id="path3366" class="st0" d="M-244.5,30.9v1.8h0.3v-0.2c0.1,0.1,0.2,0.2,0.4,0.2c0.3,0,0.5-0.2,0.5-0.7
				c0-0.5-0.2-0.7-0.6-0.7c-0.1,0-0.3,0.1-0.4,0.2v-0.6H-244.5 M-243.5,32c0,0.3-0.1,0.4-0.3,0.4c-0.1,0-0.2-0.1-0.3-0.2v-0.5
				c0.1-0.1,0.2-0.2,0.3-0.2C-243.6,31.6-243.5,31.7-243.5,32"/>
		</g>
		<g id="g3368" transform="matrix(1.25,0,0,-1.25,469.54821,318.15398)">
			<path id="path3370" class="st0" d="M-256,24.1c0,0.3,0.2,0.5,0.9,0.5v0c0,0.1-0.1,0.2-0.2,0.2c-0.2,0-0.3-0.1-0.4-0.2l-0.1,0.2
				c0.1,0.1,0.4,0.2,0.6,0.2c0.4,0,0.5-0.2,0.5-0.5v-0.5c0-0.2,0-0.3,0-0.3h-0.3c0,0.1,0,0.1,0,0.2c-0.1-0.1-0.3-0.2-0.5-0.2
				C-255.9,23.7-256,23.9-256,24.1 M-255.2,24.1v0.3c-0.4,0-0.6-0.1-0.6-0.3c0-0.1,0.1-0.2,0.2-0.2C-255.4,24-255.3,24-255.2,24.1"
				/>
		</g>
		<g id="g3372" transform="matrix(1.25,0,0,-1.25,486.30321,321.86398)">
			<path id="path3374" class="st0" d="M-268,26.7V28h0.3v-0.2c0.1,0.1,0.3,0.2,0.5,0.2c0.2,0,0.4-0.1,0.4-0.4v-1h-0.3v0.9
				c0,0.1-0.1,0.2-0.2,0.2c-0.1,0-0.2-0.1-0.4-0.2v-0.9H-268"/>
		</g>
		<g id="g3376" transform="matrix(1.25,0,0,-1.25,500.79321,327.37148)">
			<path id="path3378" class="st0" d="M-278.3,30.7l0.1,0.2c0,0,0.1,0,0.2,0c0.1,0,0.2,0,0.2,0.1l0,0.1l-0.5,1.3h0.3l0.3-1h0l0.3,1
				h0.3l-0.6-1.5c-0.1-0.2-0.2-0.4-0.5-0.4C-278.2,30.6-278.3,30.6-278.3,30.7"/>
		</g>
		<g id="g3380" transform="matrix(1.25,0,0,-1.25,117.89446,321.82898)">
			<path id="path3382" class="st0" d="M-4.7,26.7v1.5h-0.6v0.3h1.4v-0.3h-0.6v-1.5H-4.7"/>
		</g>
		<g id="g3384" transform="matrix(1.25,0,0,-1.25,130.27071,321.82898)">
			<path id="path3386" class="st0" d="M-13.6,26.7v1.8h0.3v-0.7c0.1,0.1,0.2,0.2,0.5,0.2c0.2,0,0.4-0.1,0.4-0.4v-0.9h-0.3v0.9
				c0,0.1-0.1,0.2-0.2,0.2c-0.1,0-0.2-0.1-0.4-0.2l0-0.9H-13.6"/>
		</g>
		<g id="g3388" transform="matrix(1.25,0,0,-1.25,146.35321,314.14648)">
			<path id="path3390" class="st0" d="M-25.1,21.2c0,0.5,0.4,0.7,0.6,0.7c0.3,0,0.6-0.2,0.6-0.7v-0.1h-0.9c0-0.2,0.2-0.3,0.4-0.3
				c0.2,0,0.3,0.1,0.4,0.2l0.2-0.2c-0.1-0.2-0.3-0.2-0.6-0.2C-24.8,20.5-25.1,20.7-25.1,21.2 M-24.1,21.3c0,0.2-0.1,0.3-0.3,0.3
				c-0.1,0-0.3-0.1-0.3-0.3H-24.1"/>
		</g>
		<g id="g3400" transform="matrix(1.25,0,0,-1.25,300.37571,295.60773)">
			<path id="path3402" class="st0" d="M-135.1,8c0,0,0,0.1,0.1,0.1c0.1,0.1,0.2,0.2,0.3,0.3c0,0,0.1,0.1,0.1,0.1s-0.1,0-0.1,0
				c-0.1,0-0.2-0.1-0.2-0.1C-135.1,8.2-135.2,8.1-135.1,8C-135.1,8-135.1,8-135.1,8 M-134.6,7.8c0.1,0,0.3,0,0.4,0.1
				c0.1,0.1,0.3,0.2,0.3,0.3c0,0,0,0.1-0.1,0.1c-0.1,0-0.1,0-0.1,0c0,0-0.1,0-0.1,0c-0.1-0.1-0.3-0.2-0.4-0.4c0,0,0-0.1-0.1-0.1
				c0,0,0,0,0,0C-134.8,7.8-134.7,7.8-134.6,7.8 M-135,7.6C-135,7.6-135,7.5-135,7.6c-0.1-0.1-0.1-0.1-0.1-0.1c0,0-0.1,0-0.1,0
				c0,0-0.1,0.1-0.1,0.2c0,0,0,0.1,0,0.1c0,0,0,0.1-0.1,0.1c0,0,0,0.1,0,0.2c0,0.2,0.1,0.3,0.2,0.4c0.1,0.1,0.3,0.2,0.4,0.3
				c0.1,0.1,0.4,0.1,0.5,0c0.1,0,0.1-0.1,0.2-0.1c0,0,0,0,0,0c0,0,0,0,0,0c0.1,0,0.1,0,0.2-0.1c0.1-0.1,0.1-0.1,0.1-0.2
				c0-0.1-0.1-0.3-0.1-0.4c-0.2-0.2-0.3-0.3-0.5-0.4c-0.1,0-0.2-0.1-0.3-0.1c0,0-0.1,0-0.1,0C-134.9,7.6-135,7.6-135,7.6
				C-135,7.6-135,7.6-135,7.6 M-140,7.2c0.1,0,0.1,0,0.2,0c0,0,0.1,0.1,0.1,0.1c0,0-0.1,0-0.1,0C-139.9,7.3-139.9,7.2-140,7.2
				C-140,7.2-140,7.2-140,7.2 M-139.6,7.4c0.1-0.1,0.1-0.1,0.1-0.2c0-0.1,0-0.2-0.1-0.2c-0.1-0.1-0.2-0.2-0.3-0.2c0,0-0.1,0-0.2,0
				c0,0,0,0,0,0c0,0,0-0.1,0-0.1c0-0.1,0-0.2,0-0.2c0-0.1,0-0.1,0-0.2c0-0.4,0-0.5,0-0.9c0,0,0,0,0-0.1c0,0,0-0.1-0.1-0.1
				c-0.1,0-0.2,0.1-0.3,0.2c-0.1,0.2-0.1,0.7-0.1,0.9c0,0.1,0.1,0.3,0.1,0.4c0,0,0,0.1,0,0.1c0,0-0.1,0-0.1,0.1c0,0-0.1,0-0.1,0.1
				c-0.1,0-0.1,0.1-0.2,0.1c0,0-0.1,0.1-0.1,0.1c0,0.1,0,0.2,0,0.2c0,0,0.1,0.1,0.1,0.1c0,0,0-0.1,0-0.1c0,0,0,0,0,0
				c0.1-0.1,0.3-0.1,0.3-0.2c0,0,0.1,0,0.2,0c0,0,0,0,0,0.1c0,0,0,0,0,0c0.1,0.1,0.2,0.2,0.3,0.2C-139.8,7.5-139.7,7.5-139.6,7.4
				C-139.7,7.4-139.6,7.4-139.6,7.4 M-140.8,6.4C-140.8,6.4-140.8,6.4-140.8,6.4c0.1,0,0.1-0.1,0.1-0.2c0-0.1-0.2-0.3-0.3-0.3
				c-0.1,0-0.2-0.1-0.3-0.1c-0.1,0-0.3,0-0.3,0.1c-0.1,0.1-0.1,0.2-0.1,0.3c0,0.3,0.1,0.8,0.2,1.1c0,0,0.1,0.2,0.2,0.2
				c0.1,0,0.1-0.1,0.1-0.1c0-0.1,0-0.2,0-0.3c0-0.2-0.1-0.4-0.1-0.5c0-0.1,0-0.2,0-0.3c0,0,0-0.1,0-0.1c0,0,0.2,0.1,0.4,0.1
				C-140.9,6.4-140.9,6.4-140.8,6.4 M-142.5,6.5C-142.5,6.5-142.4,6.5-142.5,6.5c0.1,0,0.3,0,0.3,0s0,0.1,0,0.2c0,0.1,0,0.1,0,0.1
				c0,0,0,0.1,0,0.1c0,0,0,0,0,0s-0.1-0.1-0.1-0.2C-142.4,6.7-142.4,6.6-142.5,6.5C-142.5,6.6-142.5,6.6-142.5,6.5
				C-142.5,6.5-142.5,6.5-142.5,6.5 M-142.9,6.5c0,0,0,0.1,0.1,0.2c0,0.1,0.2,0.4,0.3,0.5c0.1,0.1,0.2,0.3,0.2,0.3c0,0,0,0.1,0,0.1
				c0,0,0.1,0,0.1,0c0,0,0.1,0,0.1-0.1c0-0.1,0.1-0.3,0.1-0.3c0.1-0.2,0.1-0.7,0.2-0.9c0-0.1,0-0.4,0-0.5c0-0.1,0-0.1,0-0.2
				c0,0,0,0-0.1,0c0,0-0.1,0-0.1,0.1c-0.1,0.1-0.1,0.1-0.1,0.2c0,0.1,0,0.3,0,0.3l-0.3,0l-0.2,0c0,0,0,0,0-0.1
				c0-0.1-0.1-0.1-0.1-0.2c0-0.1-0.1-0.2-0.1-0.2c0,0,0-0.1-0.1-0.1c-0.1,0-0.1,0-0.1,0c-0.1,0-0.1,0.1-0.1,0.2c0,0.1,0,0.3,0.1,0.4
				c0,0.1,0,0.1-0.1,0.2c0,0,0,0,0,0c0,0,0,0,0,0c0,0,0,0,0,0L-142.9,6.5 M-144.6,7.5c0,0,0,0.1,0,0.1c0,0,0,0.1,0,0.1
				c0,0,0,0.1-0.1,0.1c0,0-0.1,0-0.1-0.1c0-0.1-0.1-0.2-0.1-0.2c0-0.1,0-0.2-0.1-0.3c0-0.2-0.1-0.5,0-0.7c0,0,0-0.1,0-0.1
				s0,0.1,0.1,0.1c0,0,0.1,0.1,0.1,0.1c0,0,0,0.1,0,0.1c0,0,0.1,0.1,0.1,0.1c0,0,0,0.1,0.1,0.2c0,0.1,0,0.2,0.1,0.3
				C-144.6,7.3-144.6,7.5-144.6,7.5C-144.6,7.5-144.6,7.5-144.6,7.5 M-144.9,6.1C-144.9,6.1-144.9,6.1-144.9,6.1
				c0.1-0.2,0.2-0.3,0.4-0.3c0.2,0,0.3,0.1,0.5,0.2c0.3,0.2,0.5,0.6,0.6,1c0.1,0.4,0.1,0.9,0,1.4c-0.1,0.3-0.2,0.6-0.4,0.8
				c-0.1,0.1-0.1,0.1-0.2,0.2c0,0,0,0.1,0,0.1c0,0,0.1,0,0.2-0.1c0.2-0.1,0.3-0.3,0.5-0.4c0,0,0.2-0.3,0.2-0.3
				c0.1-0.3,0.2-0.5,0.3-0.8c0-0.4,0-0.8-0.1-1.2c-0.1-0.2-0.1-0.3-0.2-0.5c0,0-0.2-0.2-0.2-0.2c0,0-0.2-0.1-0.2-0.2
				c-0.3-0.2-0.5-0.3-0.9-0.3c-0.2,0-0.3,0.1-0.5,0.2c-0.1,0-0.1,0.1-0.2,0.2c0,0-0.1,0.1-0.1,0.1c0,0,0,0,0,0c0,0-0.1,0-0.1-0.1
				c-0.2-0.1-0.5-0.1-0.7,0.1c-0.1,0.1-0.3,0.3-0.3,0.4c-0.1,0.2-0.1,0.5-0.1,0.7c0.1,0.4,0.2,0.8,0.4,1.2c0.1,0.2,0.3,0.4,0.6,0.6
				c0,0,0.2,0.1,0.2,0.1c0.1,0,0.1,0,0.2,0c0,0,0,0,0-0.1c0,0-0.1-0.1-0.1-0.1c0,0-0.2-0.2-0.2-0.3c0-0.1-0.2-0.3-0.2-0.3
				c-0.2-0.4-0.4-0.9-0.4-1.4c0-0.1,0-0.2,0-0.3c0-0.1,0.1-0.3,0.2-0.4c0.1-0.1,0.2-0.1,0.3,0c0,0,0.1,0,0.1,0s0,0.1-0.1,0.2
				c-0.1,0.2-0.1,0.5-0.1,0.8c0,0.2,0.1,0.3,0.1,0.5c0.1,0.1,0.2,0.2,0.3,0.3c0.1,0.1,0.3,0.2,0.4,0.2c0.1,0,0.3-0.1,0.3-0.2
				c0.1-0.2,0.1-0.5,0.1-0.7c0-0.3-0.2-0.6-0.4-0.8C-144.7,6.2-144.9,6.1-144.9,6.1 M-134.8,7.3C-134.8,7.3-134.8,7.3-134.8,7.3
				c0.1,0,0.1-0.1,0.1-0.2c0-0.2,0.1-0.6,0.1-0.7c0-0.1,0-0.2,0-0.3c0-0.1,0-0.2,0-0.3c0,0,0-0.1-0.1-0.1c0,0-0.1,0-0.2,0
				c-0.1,0-0.1,0.1-0.2,0.2c0,0.3,0,0.7,0,1C-135,6.9-134.9,7.1-134.8,7.3C-134.9,7.2-134.9,7.3-134.8,7.3 M-138.1,6.9
				c0,0-0.2,0-0.3,0c-0.1,0-0.4-0.1-0.6-0.1c0,0-0.1-0.1-0.1-0.1c0,0,0-0.1,0.1-0.1c0,0,0.1-0.1,0.2-0.2c0.1-0.1,0.4-0.3,0.6-0.4
				c0.1,0,0.2-0.1,0.2-0.1s0,0.3,0,0.6C-138.1,6.7-138.1,6.9-138.1,6.9 M-135.2,6.8c0-0.1,0-0.2,0-0.3c0,0,0-0.2,0-0.2
				c0-0.1-0.1-0.1-0.1-0.2c-0.1-0.1-0.2-0.2-0.2-0.3c-0.3-0.2-0.7-0.4-1.1-0.4c-0.2,0-0.5,0-0.8,0c-0.1,0-0.2,0-0.2,0s0-0.1,0-0.1
				c0,0,0-0.1,0-0.1c0,0-0.1-0.1-0.1-0.1c-0.1,0-0.1,0-0.2,0c-0.1,0-0.1,0.1-0.1,0.2c0,0.1,0,0.2,0,0.2s-0.1,0-0.1,0.1
				c-0.2,0.1-0.3,0.2-0.4,0.3c0,0-0.2,0.2-0.2,0.2c-0.1,0.1-0.2,0.2-0.3,0.3c-0.1,0.1-0.1,0.2,0,0.3c0.1,0.1,0.2,0.2,0.4,0.3
				c0.1,0,0.4,0.1,0.5,0.2c0.1,0,0.2,0,0.2,0c0,0,0,0,0,0c0,0,0,0.1,0,0.2c0,0,0,0.4,0,0.4c0,0,0,0.2,0.1,0.2c0,0,0.1,0,0.1,0
				c0.1-0.1,0.2-0.4,0.2-0.6c0-0.1,0-0.2,0-0.2s0.2,0,0.3,0c0.1,0,0.2,0,0.3,0c0.1,0,0.4-0.1,0.5-0.2c0.1-0.1,0.2-0.2,0.3-0.3
				c0-0.1,0-0.2,0-0.3c-0.1-0.1-0.2-0.2-0.3-0.2c0,0-0.2,0-0.2,0c0,0,0,0,0,0c0,0,0.1,0,0.1,0.1c0,0,0,0,0,0c0,0,0.1,0.1,0.1,0.1
				c0,0,0,0.1-0.1,0.1c-0.2,0.1-0.6,0.1-0.8,0.2c-0.1,0-0.2,0-0.2,0l0-1.1c0,0,0.1,0,0.2,0c0,0,0.2,0,0.3,0c0.3,0,0.7,0,1.1,0.2
				c0.1,0.1,0.3,0.1,0.4,0.3c0.1,0.1,0.2,0.3,0.2,0.6c0,0.2-0.2,0.5-0.3,0.7c-0.3,0.4-0.9,0.8-1.4,1c-0.5,0.2-1,0.3-1.6,0.4
				c-0.1,0-0.5,0-0.6,0c0,0,0,0-0.1,0c0,0,0,0,0,0c0,0,0,0,0,0s0,0,0,0c0,0,0.1,0,0.1,0c0,0,0.1,0,0.1,0c0,0,0,0,0-0.1
				c0,0-0.2,0-0.2,0c-0.1,0-0.1,0-0.2,0.1c0,0.1,0,0.1,0,0.2c0.1,0.1,0.2,0.2,0.3,0.2c0.2,0.1,0.4,0.1,0.6,0.1
				c0.4,0,0.8-0.1,1.2-0.2c0.2-0.1,0.5-0.2,0.8-0.3c0.2-0.1,0.4-0.2,0.5-0.3c0,0,0.3-0.2,0.3-0.3c0.1-0.1,0.2-0.2,0.3-0.2
				c0.2-0.2,0.3-0.4,0.4-0.6c0,0,0-0.1,0.1-0.1c0,0,0.1-0.1,0.1-0.2c0,0,0-0.1,0-0.1C-135.2,6.9-135.2,6.8-135.2,6.8L-135.2,6.8z
				 M-133.4,6.7C-133.4,6.7-133.4,6.7-133.4,6.7c0.1,0,0.3,0,0.4-0.1c0.1,0,0.1-0.1,0.2-0.2c0.1-0.1,0.1-0.3,0-0.5
				c0-0.1-0.2-0.2-0.3-0.2c-0.1,0-0.2-0.1-0.3-0.1c-0.2,0-0.4,0-0.6,0.1c-0.1,0.1-0.2,0.1-0.3,0.3c0,0.1,0,0.2,0,0.3
				c0.1,0.1,0.3,0.2,0.4,0.2c0.1,0,0.3,0,0.4-0.1c0,0,0.1-0.1,0.2-0.1c0,0,0,0,0-0.1c0-0.1-0.2-0.1-0.3-0.1c-0.1,0-0.2,0-0.4,0.1
				c0,0-0.1,0-0.1,0c-0.1,0-0.2,0-0.2-0.1c0,0,0-0.1,0.1-0.1C-134,6-134,6-133.9,6c0.3,0,0.5,0,0.7,0.2c0,0,0.1,0.1,0.1,0.1
				c0,0,0,0,0,0c0,0,0,0,0,0c0,0,0,0,0,0c0,0-0.1,0-0.1,0c-0.1,0.1-0.4,0.1-0.5,0.1c-0.1,0-0.4,0-0.4,0c-0.1,0-0.1,0-0.2,0
				c0,0-0.1,0.1-0.1,0.1c0,0.1,0,0.2,0.1,0.3c0.1,0.2,0.5,0.3,0.7,0.3c0.2,0,0.6,0,0.8-0.1c0,0,0.1,0,0-0.1c0-0.1-0.1-0.1-0.1-0.1
				c-0.1,0-0.2,0-0.3,0c-0.3,0-0.6,0-0.9-0.1c0,0-0.1,0-0.1,0c0,0,0.1-0.1,0.1-0.1c0,0,0,0,0,0L-133.4,6.7 M-132.5,5.6
				c-0.1,0-0.1,0.2-0.1,0.3c0,0.3,0.1,0.7,0.2,1c0,0.1,0.1,0.2,0.2,0.2c0.1,0,0.1-0.1,0.1-0.1c0.1-0.1,0.2-0.3,0.3-0.4
				c0.1-0.1,0.2-0.3,0.2-0.4c0,0,0,0,0,0c0,0,0,0,0,0c0,0,0,0.2,0,0.2c0,0,0,0.1,0,0.1c0,0.1-0.1,0.3-0.1,0.4c0,0.1-0.1,0.3-0.1,0.4
				c0,0,0,0.1,0,0.1c0,0.1,0,0.1,0.1,0.1c0.1,0,0.3-0.3,0.3-0.4c0,0,0.1-0.2,0.1-0.2c0-0.1,0.1-0.3,0.1-0.4c0-0.2,0-0.4-0.1-0.5
				c0-0.1-0.1-0.1-0.1-0.2c-0.1-0.1-0.2-0.1-0.3-0.1c-0.1,0.1-0.2,0.3-0.3,0.4c-0.1,0.2-0.2,0.5-0.3,0.5c0,0,0,0,0,0c0,0,0,0,0,0
				c0-0.1,0-0.5,0-0.5c0-0.1,0-0.2,0-0.3c0-0.1,0-0.1-0.1-0.1C-132.5,5.6-132.5,5.6-132.5,5.6 M-131,5.7C-131,5.7-131,5.7-131,5.7
				c0,0-0.1,0.1-0.1,0.1c0,0,0,0,0,0c0,0.1,0,0.2,0,0.3c0,0.1,0,0.1,0.1,0.2c0,0,0,0,0,0c0,0,0,0.1,0,0.2c0,0.1,0,0.1,0.1,0.1
				c0,0,0,0,0,0c0,0,0.1,0.1,0.1,0.1c0,0.1,0.1,0.2,0.1,0.2s-0.1,0-0.1,0c-0.1,0-0.1,0.1-0.1,0.1c0,0.1,0,0.1,0.1,0.1
				c0,0,0.2,0,0.3,0.1c0.1,0,0.1,0,0.2,0c0.1,0,0.3,0,0.4,0c0.1,0,0.2-0.1,0.3-0.2c0-0.1,0.1-0.1,0-0.2c-0.1-0.1-0.4-0.1-0.5-0.1
				c-0.1,0-0.2,0-0.2,0l-0.1-0.2c0,0,0.2,0,0.4,0c0,0,0.1,0,0.1,0c0.1,0,0.1-0.1,0.1-0.1c0-0.1,0-0.1-0.1-0.1c0,0-0.4,0-0.5,0
				c0,0-0.1,0-0.1,0s0-0.1-0.1-0.2c0-0.1,0-0.2,0-0.2s0,0,0,0c0,0,0.1,0,0.1,0c0.1,0,0.3,0,0.4,0.1c0.1,0,0.1,0,0.2,0
				c0,0,0.1-0.1,0.1-0.1c0-0.1,0-0.1-0.1-0.1c-0.2-0.1-0.4-0.2-0.6-0.3c-0.1,0-0.1,0-0.2,0C-130.9,5.6-130.9,5.6-131,5.7
				C-130.9,5.6-131,5.7-131,5.7L-131,5.7z M-128.5,6.8c-0.1-0.1-0.2-0.3-0.3-0.4c-0.1-0.1-0.2-0.3-0.2-0.4c0,0-0.1-0.1-0.1-0.1
				c0,0,0.1,0,0.1,0c0.1,0,0.3,0.1,0.3,0.2c0.1,0.1,0.2,0.2,0.2,0.4C-128.4,6.5-128.4,6.7-128.5,6.8C-128.4,6.8-128.5,6.8-128.5,6.8
				 M-129.3,5.5c0,0,0-0.1-0.1-0.2c0-0.1-0.1-0.5-0.2-0.6c0-0.2-0.1-0.6-0.1-0.6c0,0,0,0,0,0c0,0-0.1,0-0.1,0
				c-0.1,0-0.1,0.1-0.2,0.1c-0.1,0.1-0.1,0.3,0,0.5c0.1,0.4,0.1,0.6,0.3,1.1c0,0,0,0,0,0c-0.1,0.1-0.1,0.2-0.1,0.4
				c0,0.3,0.2,0.7,0.4,1c0,0,0.1,0.2,0.2,0.1c0,0,0.1-0.1,0-0.1c0-0.2-0.1-0.3-0.2-0.5c-0.1-0.1-0.1-0.2-0.1-0.3c0,0,0-0.1,0-0.1
				c0,0,0-0.1,0-0.1s0.1,0.2,0.2,0.3c0.1,0.1,0.1,0.1,0.1,0.2c0,0,0.2,0.2,0.3,0.3c0.1,0.1,0.1,0.1,0.2,0.2c0.1,0,0.2,0.1,0.2,0
				c0.1-0.1,0.2-0.3,0.2-0.4c0-0.2,0-0.4-0.1-0.5c-0.1-0.2-0.2-0.3-0.4-0.4C-128.8,5.6-129,5.5-129.3,5.5
				C-129.3,5.5-129.3,5.5-129.3,5.5"/>
		</g>
	</g>
</g>
</svg>
