<?xml version="1.0" encoding="utf-8"?>
<!-- Generator: Adobe Illustrator 26.0.1, SVG Export Plug-In . SVG Version: 6.00 Build 0)  -->
<svg version="1.1" id="Layer_1" xmlns="http://www.w3.org/2000/svg" xmlns:xlink="http://www.w3.org/1999/xlink" x="0px" y="0px"
	 viewBox="0 0 95 35" style="enable-background:new 0 0 95 35;" xml:space="preserve">
<style type="text/css">
	.st0{fill:#FFFFFF;}
</style>
<g>
	<path class="st0" d="M22.5,15.6h1.9c1.6,0,2.8,1.1,2.8,2.6v0c0,1.5-1.1,2.6-2.8,2.6h-1.9V15.6L22.5,15.6z M24.4,20
		c1.1,0,1.8-0.7,1.8-1.7v0c0-1-0.7-1.8-1.8-1.8h-1V20C23.4,20,24.4,20,24.4,20z M28.9,20.8h0.9v-5.2h-0.9L28.9,20.8L28.9,20.8z
		 M31.6,18.2c0,1.5,1.1,2.7,2.7,2.7c0.8,0,1.6-0.3,2.2-0.8l0-2.2h-2.2v0.8h1.3v1c-0.4,0.3-0.8,0.4-1.2,0.4h0c-1.1,0-1.8-0.8-1.8-1.9
		v0c0-1,0.7-1.8,1.7-1.8l0.1,0c0.5,0,1,0.2,1.4,0.6l0.6-0.7c-0.5-0.5-1.3-0.7-2-0.7l0,0C32.8,15.5,31.6,16.7,31.6,18.2
		C31.6,18.2,31.6,18.2,31.6,18.2L31.6,18.2L31.6,18.2z M38.5,20.8h0.9v-5.2h-0.9V20.8L38.5,20.8z M42.8,20.8h0.9v-4.3h1.6v-0.8h-4.2
		v0.8h1.6L42.8,20.8L42.8,20.8z M48.1,15.6H49l2.3,5.2h-1l-0.5-1.3h-2.5l-0.5,1.3h-0.9L48.1,15.6z M49.4,18.7l-0.9-2.1l-0.9,2.1
		H49.4L49.4,18.7z M52.8,20.8h3.6V20h-2.7v-4.3h-0.9L52.8,20.8L52.8,20.8z M61.3,15.6h2.3c0.5,0,1.1,0.2,1.5,0.5
		c0.3,0.3,0.4,0.7,0.4,1.1l0,0v0c0,0.9-0.5,1.4-1.2,1.6l1.4,2h-1.1L63.4,19h-1.1v1.8h-0.9L61.3,15.6L61.3,15.6z M63.5,18.2
		c0.6,0,1.1-0.3,1.1-0.9v0c0-0.6-0.4-0.9-1.1-0.9h-1.3v1.7L63.5,18.2L63.5,18.2z M67.2,20.8h3.9V20h-3v-1.4h2.6v-0.8h-2.6v-1.3h2.9
		v-0.8h-3.8L67.2,20.8L67.2,20.8z M74.8,15.6h0.8l2.3,5.2h-1l-0.5-1.3h-2.4l-0.5,1.3h-0.9L74.8,15.6z M76.1,18.7l-0.9-2.1l-0.9,2.1
		H76.1L76.1,18.7z M79.4,20.8H83V20h-2.7v-4.3h-0.9L79.4,20.8L79.4,20.8z M85.5,20.8h0.9v-4.3H88v-0.8h-4.2v0.8h1.6V20.8L85.5,20.8z
		 M92,20.8h0.9v-2.1l2.1-3.1h-1l-1.5,2.3L91,15.6H90l2.1,3.1L92,20.8L92,20.8z"/>
	<path class="st0" d="M14.2,10.9v1.5l1.1,0.3v1.5l-1.1-0.2v-1.3l-1.1-0.3v-2L9.7,9.1v3.1l-1.1-0.3V8.7L7.5,8.3v18.5l1.1-0.5v-2.4
		l1.1-0.3v2.2l6.7-2.7V11.8L14.2,10.9L14.2,10.9z M10.8,11.4l1.1,0.3v1.8l-1.1-0.2V11.4L10.8,11.4z M8.6,14l1.1,0.2V16l-1.1-0.1V14
		L8.6,14z M9.7,21.5l-1.1,0.2v-2l1.1-0.1V21.5L9.7,21.5z M11.9,21.8l-1.1,0.3v-3.5l-1.1,0.1V17l1.1,0v1.6l1.1-0.1V21.8z M11.9,15.3
		l1.1,0.1V17l-1.1,0V15.3L11.9,15.3z M14.2,22.2l-1.1,0.3v-1.7l1.1-0.2V22.2L14.2,22.2z M15.3,20.4l-1.1,0.2v-4.5l1.1,0.1V20.4
		L15.3,20.4z"/>
	<path class="st0" d="M0,11.8V23l6.5,3.4v-18L0,11.8z"/>
</g>
</svg>
