<?xml version="1.0" encoding="utf-8"?>
<!-- Generator: Adobe Illustrator 26.0.1, SVG Export Plug-In . SVG Version: 6.00 Build 0)  -->
<svg version="1.1" id="Layer_1" xmlns="http://www.w3.org/2000/svg" xmlns:xlink="http://www.w3.org/1999/xlink" x="0px" y="0px"
	 viewBox="0 0 95 35" style="enable-background:new 0 0 95 35;" xml:space="preserve">
<style type="text/css">
	.st0{fill:#CCCCCC;}
</style>
<path class="st0" d="M73.1,26.9c-1.4,0-2.5,1.1-2.5,2.5c0,1.4,1.2,2.5,2.5,2.5c1.4,0,2.5-1.1,2.5-2.5C75.6,28,74.4,26.9,73.1,26.9z
	 M73.1,31.5c-1.1,0-2-0.9-2-2.1c0-1.2,0.9-2.1,2-2.1c1.1,0,2,0.9,2,2.1C75.1,30.6,74.2,31.5,73.1,31.5z"/>
<path class="st0" d="M73.5,29.6c0.4-0.1,0.7-0.3,0.7-0.8c0-0.6-0.3-0.8-1-0.8h-1.1v2.9h0.4v-1.2h0.5l0.8,1.2h0.5L73.5,29.6z
	 M72.6,29.2v-0.9h0.6c0.3,0,0.6,0.1,0.6,0.4c0,0.4-0.3,0.5-0.7,0.5H72.6z"/>
<g>
	<path class="st0" d="M47.3,15.3c-2.4,0-3.9,1.5-3.9,3.3c0,1.8,1.5,3.3,3.9,3.3c2.4,0,3.9-1.5,3.9-3.3
		C51.2,16.8,49.6,15.3,47.3,15.3z"/>
	<path class="st0" d="M32.7,13.5h-5.1v7.4h5.1c1.3,0,2.9-1.2,2.9-3.6C35.5,14.8,33.7,13.5,32.7,13.5z"/>
	<path class="st0" d="M47.2,1.1L0,17.2l47.2,16.7L95,17.3L47.2,1.1z M32.9,23.8h-9.8v-0.7c0.7,0,1.4-0.2,1.4-0.5h0V11.9c0,0,0,0,0,0
		c0,0,0,0,0,0v0h0c-0.1-0.2-0.6-0.4-1.4-0.4h0v-0.6h9.8c2.5,0,5.4,3.1,5.4,6.6C38.3,21.2,35,23.8,32.9,23.8z M48.2,24.3h-1.8
		c-3.7-0.3-6-2.5-6-5.8c0-3.2,2.7-5.9,6.9-5.9c4.2,0,6.9,2.6,6.9,5.9C54.2,21.8,51.8,24,48.2,24.3z M74.4,14.1
		c-0.3,0.1-0.5,0.2-0.6,0.4c0,0-3.7,8.3-3.7,8.3c0,0.3,0,0.5,0.8,0.5V24l-5.1,0v-0.7c0.5,0,0.6-0.1,0.6-0.5c0-0.2-1.8-4.7-1.8-4.7
		l-2.1,4.6c0,0.1-0.1,0.1-0.1,0.2c0,0.4,0.2,0.5,0.8,0.5h0V24l-5.5,0v-0.7c0.5,0,0.8-0.1,0.8-0.5c0-0.1,0-0.2,0-0.2l-3.1-8
		c0,0,0,0,0,0c-0.1-0.3-0.1-0.4-0.9-0.4v-0.8h5.1V14c-0.4,0-0.7,0-0.7,0.4h0l1.7,5.1l2.1-6h1.8l1.7,0l2.3,6.2l2-5.3
		c0-0.2-0.1-0.4-0.7-0.4c0,0-0.1,0-0.2,0v-0.8l5.2,0V14C74.9,14,74.5,14,74.4,14.1z"/>
</g>
</svg>
