<?xml version="1.0" encoding="utf-8"?>
<!-- Generator: Adobe Illustrator 26.0.1, SVG Export Plug-In . SVG Version: 6.00 Build 0)  -->
<svg version="1.1" id="Layer_1" xmlns="http://www.w3.org/2000/svg" xmlns:xlink="http://www.w3.org/1999/xlink" x="0px" y="0px"
	 viewBox="0 0 95 35" style="enable-background:new 0 0 95 35;" xml:space="preserve">
<style type="text/css">
	.st0{fill:#CCCCCC;}
</style>
<g id="XMLID_1_">
	<g id="g3093" transform="matrix(1.25,0,0,-1.25,223.4962,517.27491)">
		<path id="path3095" class="st0" d="M-150.2,410.6h-2.1v-10h2.1c3.5,0,5.6,1.9,5.6,5.1C-144.7,408.7-146.8,410.6-150.2,410.6
			 M-150.9,409.3h0.3c2.1,0,4.5-0.6,4.5-3.6c0-3-2.5-3.6-4.5-3.6h-0.3V409.3z"/>
	</g>
	<g id="g3097" transform="matrix(1.25,0,0,-1.25,268.51307,538.69979)">
		<path id="path3099" class="st0" d="M-173.9,421.9c0-2-0.7-2.9-2.2-2.9c-1.5,0-2.2,0.9-2.2,2.9v5.9h-1.5v-6.3
			c0-2.3,1.5-3.9,3.7-3.9s3.7,1.6,3.7,3.9v6.3h-1.5C-173.9,427.8-173.9,421.9-173.9,421.9z"/>
	</g>
	<g id="g3101" transform="matrix(1.25,0,0,-1.25,289.1397,533.73791)">
		<path id="path3103" class="st0" d="M-184.7,419.3l4.5,4.5h-2l-4-4v4h-1.5v-10h1.5v4.1l0.3,0.3l3.6-4.5h2L-184.7,419.3z"/>
	</g>
	<g id="g3105" transform="matrix(1.25,0,0,-1.25,327.77082,548.73204)">
		<path id="path3107" class="st0" d="M-205,427.2h-4v3.4h3.9v1.4h-3.9v2.5h4v1.4h-5.5v-10h5.5L-205,427.2L-205,427.2z"/>
	</g>
	<g id="g3109" transform="matrix(1.25,0,0,-1.25,216.05595,600.21729)">
		<path id="path3111" class="st0" d="M-146.3,454.2h5.5v1.4h-4v3.4h3.9v1.4h-3.9v2.5h4v1.4h-5.5
			C-146.3,464.3-146.3,454.2-146.3,454.2z"/>
	</g>
	<g id="g3113" transform="matrix(1.25,0,0,-1.25,277.04645,600.21729)">
		<path id="path3115" class="st0" d="M-178.4,454.2h5.5v1.4h-4v3.4h3.9v1.4h-3.9v2.5h4v1.4h-5.5V454.2z"/>
	</g>
	<g id="g3117" transform="matrix(1.25,0,0,-1.25,277.04645,600.21729)">
		<path id="path3119" class="st0" d="M-178.4,454.2h5.5v1.4h-4v3.4h3.9v1.4h-3.9v2.5h4v1.4h-5.5V454.2z"/>
	</g>
	<g id="g3121" transform="matrix(1.25,0,0,-1.25,267.00683,563.77029)">
		<path id="path3123" class="st0" d="M-173.1,435.1v-7l0,0l-6.4,7h-0.9l0,0v-10l0,0h1.5v7.1l6.4-7.1h0.9v10L-173.1,435.1
			L-173.1,435.1z"/>
	</g>
	<g id="g3127">
		<g id="g3133" transform="translate(353.6649,119.0076)">
			<path id="path3135" class="st0" d="M-284.1-95.4c0-1.3-0.6-2.4-1.7-3.1c-1-0.6-2.3-0.6-3.3-0.6h-2v12.5h1.8v-5.1h0.4l3.6,5.1h2.2
				l-3.9-5.3C-285.3-92.2-284.1-93.6-284.1-95.4 M-285.9-95.4c0,1.4-0.9,2.1-3.1,2.1h-0.3v-4.1h0.2
				C-286.9-97.4-285.9-96.7-285.9-95.4"/>
		</g>
		<g id="g3137" transform="translate(372.4715,109.4051)">
			<path id="path3139" class="st0" d="M-294.9-81.7h3.1c-0.2,1.9-2.1,3.3-3.8,3.3c-2.4,0-4.6-2.2-4.6-4.8c0-2.7,2.1-4.8,4.7-4.8
				c1.4,0,2.8,0.7,3.7,1.9l0.1,0.2l1.3-1.2l-0.1-0.1c-1.2-1.5-3.1-2.4-5.1-2.4c-3.6,0-6.5,2.9-6.5,6.5c0,3.5,2.9,6.5,6.3,6.5
				c3.4,0,5.9-2.6,5.9-6.1v-0.6h-5.2V-81.7z"/>
		</g>
	</g>
	<g id="g3141" transform="matrix(1.25,0,0,-1.25,383.12345,563.77029)">
		<path id="path3143" class="st0" d="M-234.1,435.1l-2.3-4l-2.3,4h-1.7l3.3-5.7v-4.3h1.5v4.3l3.3,5.7H-234.1z"/>
	</g>
	<g id="g3153" transform="matrix(1.25,0,0,-1.25,173.70295,590.22241)">
		<path id="path3155" class="st0" d="M-124.1,449c-0.1-0.1-1-1-2.1-1.1c-1.2-0.1-2.4,0.7-2.7,3.4l-4.9,1.4c2.1-7.5,8-7.3,10-4
			c0.1,0.2,0.1,0.3,0,0.4C-123.8,449.1-124,449.1-124.1,449"/>
	</g>
	<g id="g3157" transform="matrix(1.25,0,0,-1.25,173.6837,517.86066)">
		<path id="path3159" class="st0" d="M-124.1,410.9c-2,4-8.9,0.1-10.1-10.1c-0.1-0.7,0.2-1,0.5-1.2c0.6-0.3,1-0.5,2-0.7
			c0.7-0.1,1.1-0.2,1.6-0.1c0.5,0,0.9,0.4,1,0.9c1,10.8,3.5,13.3,4.6,10.9C-124.3,410.5-123.9,410.6-124.1,410.9"/>
	</g>
	<g id="g3161" transform="matrix(1.25,0,0,-1.25,169.35695,530.30591)">
		<path id="path3163" class="st0" d="M-121.8,417.5c-0.6,0-1-0.1-1.2-0.6c-0.3-0.4-0.4-1-0.6-1.7c-0.1-0.6-0.2-1.5-0.1-1.8
			s0.3-0.5,0.7-0.6c2.2-0.1,8.7-1.1,9.6-3c0.6-1.3-1.2-1.6-2.5-2c-0.5-0.1-0.8-0.5-0.9-0.9c-0.2-1.1,0.1-1.6,0.4-2
			c0.2-0.2,0.5-0.4,0.9-0.2c1,0.6,1.8,1.6,1.8,1.7C-109.3,412.7-118.5,417.4-121.8,417.5"/>
	</g>
	<g id="g3165" transform="matrix(1.25,0,0,-1.25,177.4892,566.46316)">
		<path id="path3167" class="st0" d="M-126.1,436.5c-10.9-1.2-19.5,3.8-13,5c0,0,0.8,0.2,1,0.7s0.2,0.6,0.4,1.3
			c0.1,0.4,0.2,0.7,0.3,1c0.2,0.5-0.2,0.8-0.9,0.4c-6-2.9-4.2-8.3,0.7-11.1c5.3-3,10.1-1.9,10.6-1.7c0.5,0.1,0.9,0.2,1.4,1
			c0.3,0.5,0.7,1.1,0.6,2.5C-125,435.6-125,436.6-126.1,436.5"/>
	</g>
	<g id="g3169" transform="matrix(1.25,0,0,-1.25,385.16182,594.97291)">
		<path id="path3171" class="st0" d="M-235.2,451.5c0,0.8,0.7,1.5,1.5,1.5c0.8,0,1.5-0.7,1.5-1.5c0-0.8-0.7-1.5-1.5-1.5
			C-234.5,449.9-235.2,450.6-235.2,451.5 M-235,451.5c0-0.7,0.6-1.3,1.3-1.3c0.7,0,1.3,0.6,1.3,1.3s-0.6,1.3-1.3,1.3
			C-234.4,452.7-235,452.2-235,451.5 M-233,450.6h-0.3l-0.4,0.8h-0.3v-0.8h-0.2v1.7h0.7c0.3,0,0.6-0.1,0.6-0.4
			c0-0.3-0.2-0.4-0.4-0.5L-233,450.6z M-234,452.1v-0.4h0.3c0.2,0,0.6,0,0.6,0.2c0,0.2-0.2,0.2-0.4,0.2H-234z"/>
	</g>
</g>
</svg>
