<?xml version="1.0" encoding="utf-8"?>
<!-- Generator: Adobe Illustrator 26.0.1, SVG Export Plug-In . SVG Version: 6.00 Build 0)  -->
<svg version="1.1" id="Layer_1" xmlns="http://www.w3.org/2000/svg" xmlns:xlink="http://www.w3.org/1999/xlink" x="0px" y="0px"
	 viewBox="0 0 95 35" style="enable-background:new 0 0 95 35;" xml:space="preserve">
<style type="text/css">
	.st0{fill:#FFFFFF;}
</style>
<g>
	<path class="st0" d="M15.1,7.6C9,7.6,3.8,10.2,3.8,18.1c0,6.2,3.5,10.2,11.5,10.2c9.4,0,10-6.2,10-6.2h-4.6c0,0-1,3.3-5.7,3.3
		c-3.9,0-6.7-2.6-6.7-6.3h17.4v-2.3C25.8,13.2,23.5,7.6,15.1,7.6L15.1,7.6z M15,10.6c3.7,0,6.2,2.3,6.2,5.6H8.4
		C8.4,12.6,11.7,10.6,15,10.6z"/>
	<path class="st0" d="M25.8,0v24.4c0,1.4-0.1,3.3-0.1,3.3H30c0,0,0.2-1.4,0.2-2.7c0,0,2.2,3.4,8,3.4c6.2,0,10.3-4.3,10.3-10.4
		c0-5.7-3.8-10.3-10.3-10.3c-6.1,0-8,3.3-8,3.3V0H25.8z M37.1,10.7c4.2,0,6.8,3.1,6.8,7.3c0,4.5-3.1,7.4-6.8,7.4
		c-4.5,0-6.9-3.5-6.9-7.3C30.2,14.4,32.4,10.7,37.1,10.7L37.1,10.7z"/>
	<path class="st0" d="M59.3,7.6c-9.3,0-9.9,5.1-9.9,5.9h4.6c0,0,0.2-3,4.9-3c3,0,5.4,1.4,5.4,4.1v1H59c-7.2,0-11,2.1-11,6.4
		c0,4.2,3.5,6.5,8.2,6.5c6.5,0,8.5-3.6,8.5-3.6c0,1.4,0.1,2.8,0.1,2.8H69c0,0-0.2-1.7-0.2-2.8v-9.6C68.9,9,63.8,7.6,59.3,7.6z
		 M64.4,18.5v1.3c0,1.7-1,5.8-7.1,5.8c-3.3,0-4.7-1.6-4.7-3.6C52.7,18.5,57.4,18.5,64.4,18.5L64.4,18.5z"/>
	<path class="st0" d="M66.4,8.4h5.2L79,23.4l7.4-14.9h4.7L77.6,35h-4.9l3.9-7.4L66.4,8.4L66.4,8.4z"/>
</g>
</svg>
