<?xml version="1.0" encoding="utf-8"?>
<!-- Generator: Adobe Illustrator 26.0.1, SVG Export Plug-In . SVG Version: 6.00 Build 0)  -->
<svg version="1.1" id="Layer_1" xmlns="http://www.w3.org/2000/svg" xmlns:xlink="http://www.w3.org/1999/xlink" x="0px" y="0px"
	 viewBox="0 0 95 35" style="enable-background:new 0 0 95 35;" xml:space="preserve">
<style type="text/css">
	.st0{fill-rule:evenodd;clip-rule:evenodd;fill:#CCCCCC;}
	.st1{fill:#CCCCCC;}
</style>
<g>
	<path class="st0" d="M35.7,15.3c-0.4,0-0.6,0.1-0.8,0.1c-1.8-1.1-3.8-2.3-5.6-3.2c1.6,1.3,3.3,2.4,4.8,3.8c-0.2,0-0.1,0.3-0.3,0.3
		c-1.8-0.9-3.6-2.1-5.3-2.9c1.7,1.3,3.4,2.6,5.1,3.9c0,0.3,0.1,0.6,0.1,0.8c-1,1.9-2.3,3.8-3.1,5.7c1.2-1.6,2.4-3.3,3.8-4.8
		c0,0.2,0.3,0.1,0.3,0.3c-0.9,1.8-2.1,3.6-2.9,5.3c1.2-1.7,2.6-3.4,3.9-5.1c0.4,0,0.6,0,0.8-0.1c1.8,1.1,3.8,2.2,5.6,3.1
		c-1.6-1.2-3.2-2.4-4.8-3.7c0.2-0.1,0.2-0.3,0.3-0.4c1.8,0.9,3.6,2.1,5.3,2.9c-1.7-1.3-3.4-2.6-5-3.9c0-0.3-0.1-0.5-0.1-0.8
		c1-1.9,2.2-3.8,3.1-5.6c-1.2,1.6-2.4,3.3-3.8,4.8c-0.1-0.1-0.3-0.2-0.4-0.3c0.9-1.8,2.1-3.6,2.9-5.3C38.4,11.9,37.1,13.7,35.7,15.3
		 M35.1,8.4h1.1c3.3,0.3,5.6,1.8,7,4.1c1.5,2.3,2,5.8,0.7,8.8c-1.4,2.9-3.8,4.8-7.7,5.3h-1.1c-2.6-0.2-4.6-1.4-6-2.9
		c-1.5-1.5-2.5-3.6-2.5-6.3C26.6,12.2,30.4,9,35.1,8.4 M64.6,19.6h3.2c-0.6-1.9-1-4-1.6-5.9C65.7,15.6,65.2,17.6,64.6,19.6
		 M62.1,8.9h8.3c1.8,5.8,3.6,11.5,5.4,17.3h-6.3c-0.1-0.8-0.4-1.6-0.6-2.3h-5.4c-0.2,0.7-0.5,1.5-0.6,2.3h-6.3
		C58.5,20.4,60.2,14.5,62.1,8.9 M0,8.9C4.3,9,8.8,8.9,13,9c0,1.6,0.1,3.4-0.1,4.9H5.8v1.5h6.3c0,1.5,0.1,3.1-0.1,4.5H5.8v1.4
		c2.4,0,5-0.1,7.3,0.1c0,1.6,0.1,3.4-0.1,4.9H0V8.9z M26.3,8.9v4.9c-3.1-0.2-5.6,0.1-6.5,2.1c-0.8,1.9,0,3.9,1.5,4.7
		c1.2,0.7,3,0.6,5,0.5v5c-5.6,0.3-9.5-0.4-11.5-3.6c-1.6-2.5-1.7-6.4-0.5-9.1C16.1,9.6,20.2,8.4,26.3,8.9 M45.6,8.9h5.7v12.2
		c2,0.1,4.2,0,6.3,0.1c-0.5,1.7-1.1,3.3-1.6,5H45.5V9.1C45.5,9,45.5,9,45.6,8.9 M85.2,21.9c0.5-0.5,0.5-1.6,0.1-2.2
		c-0.6-0.7-2.1-0.4-3.3-0.5c-0.1,0.9,0,3.1-0.1,3.1C83.2,22.2,84.6,22.5,85.2,21.9 M84.8,15.1c0.7-0.6,0.5-1.8-0.2-2.2
		c-0.7-0.4-2.3-0.2-2.7-0.2v2.7C83,15.4,84.3,15.6,84.8,15.1 M76.3,8.9C77,9,85.8,8,88.7,9.7c1.7,1,2.9,3.7,1.6,6.1
		c-0.4,0.7-1,1.1-1.9,1.5c1.5,0.7,2.9,1.7,3,3.8c0.4,7-8.8,4.9-15.1,5.2V9.1C76.3,9,76.3,9,76.3,8.9"/>
	<path class="st1" d="M93.4,9.2c0.3,0,0.5,0.1,0.8,0.2c0.3,0.1,0.5,0.3,0.6,0.6c0.1,0.3,0.2,0.5,0.2,0.8c0,0.3-0.1,0.5-0.2,0.8
		c-0.1,0.3-0.3,0.4-0.6,0.6c-0.3,0.1-0.5,0.2-0.8,0.2s-0.5-0.1-0.8-0.2c-0.3-0.1-0.4-0.3-0.6-0.6c-0.1-0.3-0.2-0.5-0.2-0.8
		c0-0.3,0.1-0.5,0.2-0.8c0.1-0.3,0.3-0.4,0.6-0.6C92.9,9.2,93.2,9.2,93.4,9.2L93.4,9.2z M93.4,9.4c-0.2,0-0.4,0.1-0.6,0.2
		c-0.2,0.1-0.4,0.3-0.5,0.5c-0.1,0.2-0.2,0.4-0.2,0.7c0,0.2,0.1,0.4,0.2,0.7c0.1,0.2,0.3,0.4,0.5,0.5c0.2,0.1,0.4,0.2,0.7,0.2
		c0.2,0,0.4-0.1,0.7-0.2c0.2-0.1,0.4-0.3,0.5-0.5c0.1-0.2,0.2-0.4,0.2-0.7c0-0.2-0.1-0.5-0.2-0.7c-0.1-0.2-0.3-0.4-0.5-0.5
		C93.9,9.5,93.6,9.4,93.4,9.4z M92.7,11.6V9.9h0.6c0.2,0,0.3,0,0.4,0c0.1,0,0.2,0.1,0.2,0.2c0.1,0.1,0.1,0.2,0.1,0.2
		c0,0.1,0,0.2-0.1,0.3c-0.1,0.1-0.2,0.1-0.4,0.2c0.1,0,0.1,0.1,0.1,0.1c0.1,0.1,0.2,0.2,0.3,0.3l0.2,0.3h-0.3l-0.2-0.3
		c-0.1-0.2-0.2-0.3-0.3-0.4c-0.1,0-0.1-0.1-0.2-0.1H93v0.7L92.7,11.6z M93,10.7h0.3c0.2,0,0.3,0,0.3-0.1c0.1,0,0.1-0.1,0.1-0.2
		c0-0.1,0-0.1,0-0.1c0,0-0.1-0.1-0.1-0.1c0,0-0.1,0-0.3,0H93L93,10.7z"/>
</g>
</svg>
