<?xml version="1.0" encoding="utf-8"?>
<!-- Generator: Adobe Illustrator 26.0.1, SVG Export Plug-In . SVG Version: 6.00 Build 0)  -->
<svg version="1.1" id="Layer_1" xmlns="http://www.w3.org/2000/svg" xmlns:xlink="http://www.w3.org/1999/xlink" x="0px" y="0px"
	 viewBox="0 0 95 35" style="enable-background:new 0 0 95 35;" xml:space="preserve">
<style type="text/css">
	.st0{fill:#343741;}
</style>
<g id="XMLID_1_">
	<path id="XMLID_3_" class="st0" d="M32.7,19.9c-0.1,0.8-0.7,3-3.5,3c-2.9,0-3.6-2.2-3.6-3.9c0-2.5,1.1-4.3,3.7-4.3
		c1.2,0,3.2,0.5,3.4,3h-2.1c-0.1-0.5-0.4-1.3-1.4-1.2c-1.3,0-1.6,1.3-1.6,2.2c0,0.8,0,2.5,1.6,2.5c1,0,1.4-1,1.4-1.4H32.7z"/>
	<path id="XMLID_6_" class="st0" d="M39.1,18.9c0,1-0.3,2.4-1.9,2.4c-1.6,0-1.8-1.4-1.8-2.4s0.3-2.3,1.8-2.3
		C38.8,16.5,39.1,17.9,39.1,18.9 M41.1,18.9c0-2.8-1.9-4.1-4-4.1s-4,1.3-4,4.1s1.9,4.1,4,4.1C39.3,23,41.1,21.7,41.1,18.9"/>
	<path id="XMLID_7_" class="st0" d="M49.1,22.8h-2v-4.7c0-0.6,0-1.5-1.3-1.5c-0.9,0-1.6,0.6-1.6,1.8v4.4h-2V15h2v1.1h0
		c0.3-0.5,0.9-1.3,2.3-1.3c1.5,0,2.7,0.9,2.7,2.6V22.8L49.1,22.8z"/>
	<polygon id="XMLID_8_" class="st0" points="58.4,14.2 52.9,14.2 52.9,16.4 58,16.4 58,18.2 52.9,18.2 52.9,20.9 58.7,20.9 
		58.7,22.8 50.8,22.8 50.8,12.3 58.4,12.3 	"/>
	<path id="XMLID_11_" class="st0" d="M61.5,19c0-1.2,0.4-2.4,1.7-2.4c1.4,0,1.7,1.2,1.7,2.5c0,1.1-0.5,2.2-1.8,2.2
		C61.9,21.3,61.5,19.9,61.5,19 M66.9,12.3h-2V16h0c-0.3-0.5-0.9-1.2-2.2-1.2c-1.7,0-3.2,1.3-3.2,4c0,2.1,1,4.2,3.3,4.2
		c0.8,0,1.7-0.3,2.2-1.2h0v1h2L66.9,12.3L66.9,12.3z"/>
	<path id="XMLID_14_" class="st0" d="M70.4,12.2h-2v1.9h2V12.2z M68.3,22.8h2V15h-2V22.8z"/>
	<path id="XMLID_15_" class="st0" d="M76.3,17.4c-0.1-0.5-0.3-1-1.4-1c-1.1,0-1.2,0.4-1.2,0.8c0,1.2,4.8,0.3,4.8,3.2
		c0,2.3-2.2,2.7-3.4,2.7c-1.8,0-3.7-0.6-3.7-2.7h2.1c0,0.7,0.4,1.1,1.7,1.1c1,0,1.3-0.5,1.3-0.8c0-1.3-4.8-0.3-4.8-3.2
		c0-1.1,0.7-2.6,3.1-2.6c1.5,0,3.3,0.4,3.5,2.6L76.3,17.4L76.3,17.4z"/>
	<path id="XMLID_18_" class="st0" d="M84.9,18.9c0,1-0.3,2.4-1.9,2.4c-1.6,0-1.8-1.4-1.8-2.4s0.3-2.3,1.8-2.3
		C84.6,16.5,84.9,17.9,84.9,18.9 M87,18.9c0-2.8-1.9-4.1-4-4.1s-4,1.3-4,4.1s1.9,4.1,4,4.1C85.1,23,87,21.7,87,18.9"/>
	<path id="XMLID_19_" class="st0" d="M95,22.8h-2v-4.7c0-0.6,0-1.5-1.3-1.5c-0.9,0-1.6,0.6-1.6,1.8v4.4h-2V15h2v1.1h0
		c0.3-0.5,0.9-1.3,2.3-1.3c1.5,0,2.7,0.9,2.7,2.6V22.8L95,22.8z"/>
	<path id="XMLID_20_" class="st0" d="M21.8,24.3H9.1c-3.7,0-6.8-3-6.8-6.8c0-3.7,3-6.8,6.8-6.8h12.7V8.4H9.1c-5,0-9.1,4.1-9.1,9.1
		c0,5,4.1,9.1,9.1,9.1h12.7V24.3z"/>
	<path id="XMLID_21_" class="st0" d="M4.1,17.6c0,2.9,2.4,5.3,5.3,5.3h12.4v-2.4H9.3c-1.6,0-2.9-1.3-2.9-2.9c0-1.6,1.3-2.9,2.9-2.9
		h12.4v-2.4H9.3C6.5,12.3,4.1,14.6,4.1,17.6"/>
	<path id="XMLID_22_" class="st0" d="M21.8,16.4H9.3c-0.7,0-1.2,0.5-1.2,1.2c0,0.7,0.5,1.2,1.2,1.2h12.5V16.4z"/>
</g>
</svg>
