<?xml version="1.0" encoding="utf-8"?>
<!-- Generator: Adobe Illustrator 26.0.1, SVG Export Plug-In . SVG Version: 6.00 Build 0)  -->
<svg version="1.1" id="Layer_1" xmlns="http://www.w3.org/2000/svg" xmlns:xlink="http://www.w3.org/1999/xlink" x="0px" y="0px"
	 viewBox="0 0 95 35" style="enable-background:new 0 0 95 35;" xml:space="preserve">
<style type="text/css">
	.st0{fill:#CCCCCC;}
	.st1{fill:none;stroke:#CCCCCC;stroke-width:0.405;stroke-miterlimit:15.1181;}
</style>
<g>
	<path id="rect32630" class="st0" d="M0.9,4.7h23.7c0.5,0,0.9,0.4,0.9,0.9v23.8c0,0.5-0.4,0.9-0.9,0.9H0.9c-0.5,0-0.9-0.4-0.9-0.9
		V5.6C0,5.1,0.4,4.7,0.9,4.7z"/>
	<path id="path31966" class="st0" d="M31.5,26.7h0.9v-5h-0.9L31.5,26.7z"/>
	<path id="path31970" class="st0" d="M34.4,26.7v-5h0.8l2.6,3.4h0v-3.4h0.4v5h-0.4l-3-4h0v4H34.4"/>
	<path id="path31974" class="st0" d="M40.7,26.7V22h-1v-0.3h2.9V22h-1v4.7H40.7"/>
	<path id="path31978" class="st0" d="M44.2,26.7v-5h3V22h-2v1.9h1.9v0.3h-1.9v2.1h2v0.3H44.2"/>
	<path id="path31982" class="st0" d="M48.9,26.7v-5h2.2c0.9,0,1.4,0.7,1.4,1.5c0,0.8-0.6,1.1-1.3,1.2l1.3,2.3h-1l-1.4-2.6h0.1
		c0.8,0,1.4-0.3,1.4-1.1c0-0.6-0.3-1.1-1.2-1.1h-0.5v4.8L48.9,26.7"/>
	<path id="path31986" class="st0" d="M54.1,26.7v-5H55l2.6,3.4h0v-3.4H58v5h-0.4l-3-4h0v4H54.1"/>
	<path id="path31990" class="st0" d="M61,23.2L60.3,25h1.5L61,23.2z M63.4,26.7h-1l-0.5-1.3h-1.7l-0.5,1.3h-0.4l2-5.1h0L63.4,26.7"
		/>
	<path id="path31994" class="st0" d="M65,26.7V22h-1v-0.3h2.9V22h-1v4.7H65"/>
	<path id="path31996" class="st0" d="M68.5,26.7h0.9v-5h-0.9V26.7z"/>
	<path id="path32000" class="st0" d="M73.5,26.5c1.2,0,1.5-1.3,1.5-2.3c0-1-0.3-2.3-1.5-2.3c-1.2,0-1.5,1.3-1.5,2.3
		C72.1,25.1,72.3,26.5,73.5,26.5z M73.5,21.5c1.5,0,2.5,1.2,2.5,2.6c0,1.5-1,2.6-2.5,2.6c-1.4,0-2.5-1.2-2.5-2.6
		C71,22.7,72.1,21.5,73.5,21.5"/>
	<path id="path32004" class="st0" d="M77.6,26.7v-5h0.8l2.6,3.4h0v-3.4h0.4v5H81l-3-4h0v4H77.6"/>
	<path id="path32008" class="st0" d="M84.4,23.2L83.7,25h1.5L84.4,23.2z M86.8,26.7h-1l-0.5-1.3h-1.7L83,26.7h-0.4l2-5.1h0
		L86.8,26.7"/>
	<path id="path32012" class="st0" d="M88,26.7v-5H89v4.6h2v0.4H88"/>
	<path id="path32016" class="st0" d="M31.4,18.8l0-11.5h6.8V8h-4.7v4.5H38v0.7h-4.4V18h4.7v0.7L31.4,18.8"/>
	<path id="path32020" class="st0" d="M43.2,18h1.4c3.5,0,4.2-2.5,4.2-4.8c0-2.9-1.4-5.3-4.1-5.3h-1.5L43.2,18z M41.1,7.2h3.8
		c4.2,0,6.1,3,6.1,6c0,3.7-2.4,5.6-5.7,5.6h-4.2L41.1,7.2"/>
	<path id="path32024" class="st0" d="M53.6,18.8V7.2l2.2,0l0,11.5L53.6,18.8"/>
	<path id="path32028" class="st0" d="M59.7,16.7c0.6,1,1.2,1.5,2.4,1.5c1,0,2.1-0.8,2.1-2c0-3.4-5.4-1.8-5.4-5.9
		c0-1.9,1.5-3.4,3.7-3.4c1.4,0,2.9,0.8,3.5,2.1l-0.7,0.5c-0.4-0.9-1.1-1.6-2.4-1.6c-1.2,0-1.9,0.9-1.9,2c0,2.7,5.4,1.6,5.4,5.7
		c0,2.1-1.9,3.5-3.8,3.5c-1.6,0-2.8-0.5-3.6-1.8L59.7,16.7"/>
	<path id="path32032" class="st0" d="M73.9,18.3c2.8,0,3.4-3.1,3.4-5.3s-0.6-5.3-3.4-5.3c-2.8,0-3.4,3.1-3.4,5.3
		S71.1,18.3,73.9,18.3L73.9,18.3z M73.9,6.9c3.3,0,5.7,2.7,5.7,6.1c0,3.4-2.4,6.1-5.7,6.1c-3.3,0-5.7-2.7-5.7-6.1
		C68.2,9.6,70.6,6.9,73.9,6.9"/>
	<path id="path32036" class="st0" d="M82,18.8l0-11.5H84l6,7.9h0l0-7.9H91l0,11.5h-1l-7-9.2h0v9.2L82,18.8"/>
	<path id="path32040" class="st1" d="M93.5,24.1c0.7,0,1.3-0.6,1.3-1.3c0-0.7-0.6-1.3-1.3-1.3c-0.7,0-1.3,0.6-1.3,1.3
		C92.2,23.6,92.8,24.1,93.5,24.1z"/>
	<path id="path32044" class="st0" d="M92.9,23.6c0.1,0,0.2,0,0.3,0c0.1,0,0.2,0,0.3,0v-0.1h-0.1c-0.1,0-0.1,0-0.1-0.1v-0.5
		c0.2,0,0.2,0,0.3,0.1l0.4,0.6c0.1,0,0.1,0,0.2,0c0.1,0,0.1,0,0.2,0v-0.1c-0.1,0-0.1,0-0.2-0.1L93.8,23c0-0.1-0.1-0.1-0.1-0.1
		c0.3-0.1,0.4-0.2,0.4-0.4c0-0.4-0.3-0.4-0.6-0.4c-0.1,0-0.2,0-0.3,0c-0.1,0-0.2,0-0.3,0V22h0.1c0.1,0,0.1,0,0.1,0.1v1.2
		C93.1,23.5,93,23.6,92.9,23.6L92.9,23.6L92.9,23.6z M93.3,22.1C93.3,22.1,93.3,22.1,93.3,22.1c0.5-0.1,0.6,0.2,0.6,0.4
		c0,0.1-0.1,0.4-0.4,0.4c0,0-0.1,0-0.1,0L93.3,22.1"/>
	<path id="path32046" class="st0" d="M0,30.3h25.5V4.7H0V30.3z"/>
	<path id="path32050" class="st0" d="M0,20.4l10.7,0.9l-7.8-5.7l9,3.3L3.2,7.9l10.9,8.6l-3.3-8.9l5.4,7.6L15.8,4.7l3.4,10.4
		l2.5-10.4H0v21.8h0l10.5-2.4L0,20.4"/>
	<path id="path32054" class="st0" d="M0,26.5h21.8V4.7h3.8v25.6H0V26.5"/>
	<path id="path32056" class="st0" d="M31.5,26.7h0.9v-5h-0.9L31.5,26.7z"/>
	<path id="path32060" class="st0" d="M34.4,26.7v-5h0.8l2.6,3.4h0v-3.4h0.4v5h-0.4l-3-4h0v4H34.4"/>
	<path id="path32064" class="st0" d="M40.7,26.7V22h-1v-0.3h2.9V22h-1v4.7H40.7"/>
	<path id="path32068" class="st0" d="M44.2,26.7v-5h3V22h-2v1.9h1.9v0.3h-1.9v2.1h2v0.3H44.2"/>
	<path id="path32072" class="st0" d="M48.9,26.7v-5h2.2c0.9,0,1.4,0.7,1.4,1.5c0,0.8-0.6,1.1-1.3,1.2l1.3,2.3h-1l-1.4-2.6h0.1
		c0.8,0,1.4-0.3,1.4-1.1c0-0.6-0.3-1.1-1.2-1.1h-0.5v4.8L48.9,26.7"/>
	<path id="path32076" class="st0" d="M54.1,26.7v-5H55l2.6,3.4h0v-3.4H58v5h-0.4l-3-4h0v4H54.1"/>
	<path id="path32080" class="st0" d="M61,23.2L60.3,25h1.5L61,23.2z M63.4,26.7h-1l-0.5-1.3h-1.7l-0.5,1.3h-0.4l2-5.1h0L63.4,26.7"
		/>
	<path id="path32084" class="st0" d="M65,26.7V22h-1v-0.3h2.9V22h-1v4.7H65"/>
	<path id="path32086" class="st0" d="M68.5,26.7h0.9v-5h-0.9V26.7z"/>
	<path id="path32090" class="st0" d="M73.5,26.5c1.2,0,1.5-1.3,1.5-2.3c0-1-0.3-2.3-1.5-2.3c-1.2,0-1.5,1.3-1.5,2.3
		C72.1,25.1,72.3,26.5,73.5,26.5z M73.5,21.5c1.5,0,2.5,1.2,2.5,2.6c0,1.5-1,2.6-2.5,2.6c-1.4,0-2.5-1.2-2.5-2.6
		C71,22.7,72.1,21.5,73.5,21.5"/>
	<path id="path32094" class="st0" d="M77.6,26.7v-5h0.8l2.6,3.4h0v-3.4h0.4v5H81l-3-4h0v4H77.6"/>
	<path id="path32098" class="st0" d="M84.4,23.2L83.7,25h1.5L84.4,23.2z M86.8,26.7h-1l-0.5-1.3h-1.7L83,26.7h-0.4l2-5.1h0
		L86.8,26.7"/>
	<path id="path32102" class="st0" d="M88,26.7v-5H89v4.6h2v0.4H88"/>
	<path id="path32106" class="st0" d="M31.4,18.8l0-11.5h6.8V8h-4.7v4.5H38v0.7h-4.4V18h4.7v0.7L31.4,18.8"/>
	<path id="path32110" class="st0" d="M43.2,18h1.4c3.5,0,4.2-2.5,4.2-4.8c0-2.9-1.4-5.3-4.1-5.3h-1.5L43.2,18z M41.1,7.2h3.8
		c4.2,0,6.1,3,6.1,6c0,3.7-2.4,5.6-5.7,5.6h-4.2L41.1,7.2"/>
	<path id="path32114" class="st0" d="M53.6,18.8V7.2l2.2,0l0,11.5L53.6,18.8"/>
	<path id="path32118" class="st0" d="M59.7,16.7c0.6,1,1.2,1.5,2.4,1.5c1,0,2.1-0.8,2.1-2c0-3.4-5.4-1.8-5.4-5.9
		c0-1.9,1.5-3.4,3.7-3.4c1.4,0,2.9,0.8,3.5,2.1l-0.7,0.5c-0.4-0.9-1.1-1.6-2.4-1.6c-1.2,0-1.9,0.9-1.9,2c0,2.7,5.4,1.6,5.4,5.7
		c0,2.1-1.9,3.5-3.8,3.5c-1.6,0-2.8-0.5-3.6-1.8L59.7,16.7"/>
	<path id="path32122" class="st0" d="M73.9,18.3c2.8,0,3.4-3.1,3.4-5.3s-0.6-5.3-3.4-5.3c-2.8,0-3.4,3.1-3.4,5.3
		S71.1,18.3,73.9,18.3L73.9,18.3z M73.9,6.9c3.3,0,5.7,2.7,5.7,6.1c0,3.4-2.4,6.1-5.7,6.1c-3.3,0-5.7-2.7-5.7-6.1
		C68.2,9.6,70.6,6.9,73.9,6.9"/>
	<path id="path32126" class="st0" d="M82,18.8l0-11.5H84l6,7.9h0l0-7.9H91l0,11.5h-1l-7-9.2h0v9.2L82,18.8"/>
	<path class="st0" d="M93.5,24.3c-0.8,0-1.5-0.7-1.5-1.5c0-0.8,0.7-1.5,1.5-1.5S95,22,95,22.8C95,23.7,94.3,24.3,93.5,24.3z
		 M93.5,21.8c-0.6,0-1.1,0.5-1.1,1.1c0,0.6,0.5,1.1,1.1,1.1s1.1-0.5,1.1-1.1C94.6,22.2,94.1,21.8,93.5,21.8z"/>
	<path id="path32134" class="st0" d="M92.9,23.6c0.1,0,0.2,0,0.3,0c0.1,0,0.2,0,0.3,0v-0.1h-0.1c-0.1,0-0.1,0-0.1-0.1v-0.5
		c0.2,0,0.2,0,0.3,0.1l0.4,0.6c0.1,0,0.1,0,0.2,0c0.1,0,0.1,0,0.2,0v-0.1c-0.1,0-0.1,0-0.2-0.1L93.8,23c0-0.1-0.1-0.1-0.1-0.1
		c0.3-0.1,0.4-0.2,0.4-0.4c0-0.4-0.3-0.4-0.6-0.4c-0.1,0-0.2,0-0.3,0c-0.1,0-0.2,0-0.3,0V22h0.1c0.1,0,0.1,0,0.1,0.1v1.2
		C93.1,23.5,93,23.6,92.9,23.6L92.9,23.6L92.9,23.6z M93.3,22.1C93.3,22.1,93.3,22.1,93.3,22.1c0.5-0.1,0.6,0.2,0.6,0.4
		c0,0.1-0.1,0.4-0.4,0.4c0,0-0.1,0-0.1,0L93.3,22.1"/>
</g>
</svg>
