<?xml version="1.0" encoding="utf-8"?>
<!-- Generator: Adobe Illustrator 26.0.1, SVG Export Plug-In . SVG Version: 6.00 Build 0)  -->
<svg version="1.1" id="Layer_1" xmlns="http://www.w3.org/2000/svg" xmlns:xlink="http://www.w3.org/1999/xlink" x="0px" y="0px"
	 viewBox="0 0 95 35" style="enable-background:new 0 0 95 35;" xml:space="preserve">
<style type="text/css">
	.st0{fill:#343741;}
</style>
<g id="Layer_2_1_">
	<g id="Layer_1-2">
		<path id="path1212" class="st0" d="M37.3,16.4c0.2,0,0.5,0,0.8-0.1c-0.1,0.8-0.1,1.6-0.1,3.5v2.4c0,1.5,0.1,2.4,0.2,2.7
			c0.5,1.2,1.5,2.2,3.3,2.2c1.6-0.1,2.7-0.6,3.3-1.9c0.4-0.9,0.5-1.5,0.6-3.8v-1.5c-0.1-1.3-0.1-2.1-0.2-3.6c0.2,0,0.4,0.1,0.6,0.1
			c0.2,0,0.4,0,0.6-0.1c-0.1,0.5-0.1,3.3-0.1,3.3v1.7c0,2.3-0.1,2.8-0.4,3.6c-0.2,0.6-0.5,1.1-1,1.5c-0.8,0.9-2.1,1.3-3.6,1.3
			c-1.4,0-2.7-0.4-3.5-1.1c-0.8-0.8-1.2-1.6-1.2-3.3v-3.9c0-1.2-0.1-2.5-0.2-3.2C36.7,16.4,37,16.4,37.3,16.4z"/>
		<path id="path1214" class="st0" d="M30.7,15.9c0,0,0.4,1.2,0.8,2.1c0.7,1.3,1.7,3.7,2.1,4.6c0.4,0.9,1.4,3.1,1.4,3.1l0.9,1.9
			c-0.3,0-0.6-0.1-0.9-0.1c-0.3,0-0.6,0-0.9,0.1L33.5,26c-0.1-0.4-0.3-0.9-0.5-1.3c-0.2-0.6-0.4-1.1-0.7-1.6h-4.3
			c-0.1,0.2-0.4,1-0.6,1.5c-0.4,1-0.8,2-1.1,3.1c-0.2-0.1-0.4-0.1-0.6-0.1c-0.2,0-0.4,0-0.6,0.1c0,0,0.3-0.8,0.7-1.6
			c0.5-1.2,1.2-2.7,1.8-4c0.4-1,2.7-6,2.7-6.1L30.7,15.9L30.7,15.9z M29.7,19c-0.2,0.5-1.5,3.4-1.5,3.4H32c0,0-0.7-1.5-1-2.4
			c-0.6-1.3-0.8-1.8-0.8-1.7C30,18.5,29.9,18.8,29.7,19z"/>
		<path id="path1216" class="st0" d="M49.6,16.4h0.8l1.3-0.1l1.1-0.1h0.3c2.2,0,3.2,0.2,4.2,1.3c1.1,1,1.7,2.5,1.7,4
			c0,1.8-0.8,3.6-2.2,4.7c-1.2,1-2.4,1.3-5.3,1.2h-2.2c-0.3,0-0.6,0-0.9,0.1c0.1-0.2,0.1-2.7,0.1-3.3v-2.8c0-0.7,0-2.4-0.1-3.3
			c0-0.6-0.1-1.8-0.1-1.8C48.7,16.4,49.1,16.5,49.6,16.4L49.6,16.4z M51.7,27c0.6,0,1.2,0,1.8-0.1c0.9-0.1,1.7-0.5,2.4-1.2
			c1-0.9,1.4-2.3,1.4-3.9c-0.1-1.7-0.4-3.2-1.6-4.1c-0.9-0.6-1.4-0.8-3.2-0.8c-0.9,0-1.7,0.1-2.6,0.2l-0.1,0.1
			c0,0.3-0.1,1.9-0.1,3.2v4.9c0.1,0.8,0.1,1.2,0.1,1.7C50.5,27,51.1,27,51.7,27z"/>
		<path id="path1218" class="st0" d="M60.7,16.3c1.5,0.1,2.2,0.1,2.9,0.1h2.8c0,0.1-0.1,0.3-0.1,0.4c0,0.1,0,0.4,0.1,0.4
			c-0.4-0.1-0.8-0.1-1.3-0.1C63.6,17,63.2,17,62.7,17H62v2c-0.1,0.3-0.1,0.7-0.1,1c0,0.6,0.1,1.2,0.1,1.2h2.7c0.4,0,0.8-0.1,1.3-0.1
			c-0.1,0-0.1,0.2-0.1,0.4c0,0.2,0.1,0.4,0,0.4c-0.6-0.1-1.9-0.1-2.9-0.1H62v2.4c0,0.6,0.1,1.1,0.1,1.2c0,0.4,0,0.9,0.1,1.3l0,0
			c0.2,0.1,0.3,0.1,0.5,0.1c1.3,0,2.6-0.2,3.9-0.3c0,0.2-0.1,0.3-0.1,0.4v0.5H62c-0.5,0-1,0-1.5,0.1c0.1,0,0.2-1.3,0.2-2.2v-1.4
			l0.1-2.1c0,0-0.1-4.9-0.2-5.6L60.7,16.3L60.7,16.3z"/>
		<path id="path1220" class="st0" d="M20.6,26.9h0.8c0.4,0,0.9,0,1.3-0.1c0.9,0,1.5-0.1,1.7-0.1v0.9h-0.4c-0.4,0-0.9,0-1.3-0.1h-3.1
			c-0.9,0-1.3,0.1-1.4,0.1c0.1-0.6,0.2-3.5,0.2-5.6s-0.2-5.7-0.2-5.7c0.2,0,0.6,0.1,0.8,0.1s0.8-0.1,0.8-0.1
			c-0.2,1.7-0.2,3.3-0.2,4.9c0,0,0,4.1,0.1,5.3l0.1,0.2C19.9,26.9,20.2,26.9,20.6,26.9z"/>
		<path id="path1222" class="st0" d="M69.9,22.1v2l0.1,1.6l0.1,1.7v0.1c-0.3,0-0.6-0.1-0.8-0.1c-0.2,0-0.5,0-0.8,0.1l0.1-1.7
			c0.1-1.3,0.1-2.4,0.1-4.4c0-1.3,0-1.9-0.1-3.4c0-0.6-0.1-1.7-0.1-1.7c0.4,0.1,0.8,0.1,1.2,0.1c0.3,0,0.8-0.1,1.3-0.1
			c0.8-0.1,1.3-0.1,1.4-0.1c2.7,0,3.5,1.3,3.5,2.6c0,1.5-1.3,2.7-3.6,3.2v0.1l1.2,1.5l1.1,1.3l1.2,1.5c0.5,0.7,0.7,0.9,1,1.2h-1.8
			L72.9,25c-0.5-0.7-2.2-2.8-2.3-2.8L69.9,22.1z M70.8,21.6c1.3,0,1.7-0.2,2.3-0.5c0.7-0.4,1.2-1.2,1.2-2.1
			c-0.1-1.2-0.8-2.1-2.7-2.1c-0.6,0-1.1,0.1-1.7,0.2v4.4C70.2,21.6,70.5,21.6,70.8,21.6L70.8,21.6z"/>
		<path id="path1224" class="st0" d="M29.3,2.2C27.9,2.3,27,3.1,27,4.3c0,0.8,0.5,1.6,1.3,1.9c0.4,0.1,1,0.4,1.5,0.7
			c1.9,0.6,2.6,1.5,2.6,2.8c0,2.1-1.8,3.7-4.1,3.7c-1,0-2-0.3-2.8-1c0,0,0.2-0.9,0.2-1.3c0,0,1.2,1.8,2.8,1.7c1.4,0.1,2.5-1,2.6-2.4
			c0,0,0-0.1,0-0.1c0-1.2-0.7-1.9-2.4-2.4s-2.4-1.2-2.7-1.7c-0.2-0.4-0.4-0.9-0.4-1.4c0-1.8,1.5-3.1,3.6-3.1c1.7,0,2.6,0.8,2.6,0.8
			c-0.2,0.4-0.3,0.8-0.4,1.3C31.5,3.8,30.9,2.2,29.3,2.2z"/>
		<path id="path1226" class="st0" d="M38.1,2.7L38,4.6l-0.1,2.2c0,0.7,0,1.5,0,2.2c0,1.4,0,2.7,0.1,4.1c0,0-0.5-0.1-0.8-0.1
			c-0.2,0-0.5,0-0.8,0.1c0.1-0.9,0.1-1.9,0.1-4.1V4.6c0,0-0.1-1.4-0.1-1.9l0,0l-1.8,0.1c-0.6,0-1.2,0-1.8,0.1c0-0.2,0-0.3,0.1-0.5
			c0-0.2,0-0.3-0.1-0.4C33.1,2,37,2,37,2h0.5c1.4,0,4-0.1,4-0.1v0.5c0,0.2,0,0.3,0.1,0.5c-0.8-0.1-1.2-0.1-2-0.2L38.1,2.7L38.1,2.7z
			"/>
		<path id="path1228" class="st0" d="M18.6,2c1.5,0.1,2.1,0.1,2.9,0.1c0.4,0,2.3,0,2.6-0.1h0.2c0,0.1-0.1,0.3-0.1,0.4v0.4
			c-0.4,0-0.8,0-1.3-0.1c-1.5-0.1-2-0.1-2.4-0.1h-0.7v0.2l-0.1,1.8v2.1c0,0,0,0.1,0.1,0.1l0,0h1.5c0.2,0,0.5,0,1.2-0.1h1.2v0.8
			c-0.7,0-1.9-0.1-3-0.1c-0.3,0-0.7,0-1,0.1h0v1.1l0.1,1.3v1.2c0,0.2,0.1,0.8,0.1,1.3l0.1,0.1h0.5c1.3,0,3.3-0.2,3.9-0.2
			c0,0.2-0.1,0.3-0.1,0.4v0.5h-1.4l-1.1-0.1l-2.1,0.1h-1.5c0,0,0.1-1.3,0.1-2.2l0.1-1.4V7.6c0,0-0.1-4.9-0.1-5.6L18.6,2L18.6,2z"/>
		<polygon id="polygon1230" class="st0" points="43,0.7 49,0.7 49,0 43,0 		"/>
		<path id="path1232" class="st0" d="M43.3,2c1.5,0.1,2.2,0.1,2.9,0.1c0.4,0,2.4,0,2.6-0.1h0.2C49,2.2,49,2.3,49,2.4v0.4
			c-0.4,0-0.9,0-1.3-0.1c-1.5-0.1-1.9-0.1-2.4-0.1h-0.6v4.2h1.6c0.2,0,0.4,0,1.2-0.1h1.2c0,0.1,0,0.2-0.1,0.4c0,0.2,0,0.3,0.1,0.4
			c-0.7,0-1.9-0.1-3-0.1c-0.4,0-0.7,0-1.1,0.1l0,0v1.1l0.1,1.3v1.2c0,0.2,0.1,0.8,0.1,1.3v0.1h0.6c1.3,0,3.3-0.2,3.8-0.2
			c0,0.2-0.1,0.3-0.1,0.4c0,0.2,0,0.3,0.1,0.5h-1.4l-1.1-0.1l-2.1,0.1H43c0,0,0.1-1.3,0.1-2.2V9.6l0.1-2.1c0,0-0.1-4.9-0.2-5.6
			L43.3,2z"/>
		<path id="path1234" class="st0" d="M51.1,2c1.5,0.1,2.2,0.1,2.9,0.1c0.4,0,2.4,0,2.6-0.1h0.2c-0.1,0.2-0.1,0.3-0.1,0.4v0.4
			c-0.4,0-0.9,0-1.3-0.1C54,2.7,53.5,2.7,53,2.7h-0.6v4.2H54c0.2,0,0.4,0,1.2-0.1h1.2c0,0.1,0,0.2-0.1,0.4c0,0.2,0,0.3,0.1,0.4
			c-0.7,0-1.9-0.1-3-0.1c-0.4,0-0.7,0-1.1,0.1l0,0v1.1l0.1,1.3v1.2c0,0.2,0.1,0.8,0.1,1.3v0.1h0.6c1.3,0,3.3-0.2,3.8-0.2
			c0,0.2-0.1,0.3-0.1,0.4c0,0.2,0,0.3,0.1,0.5h-1.4l-1.1-0.1l-2.1,0.1h-1.5c0,0,0.1-1.3,0.1-2.2V9.6l0.1-2.1c0,0-0.1-4.9-0.2-5.6
			L51.1,2z"/>
		<path id="path1236" class="st0" d="M22.3,34.2l-0.1,0.4c-0.4,0.3-1,0.4-1.5,0.4c-1.5,0-2.4-0.9-2.4-2.4c0-0.7,0.2-1.3,0.7-1.8
			c0.5-0.4,1.2-0.6,1.9-0.6c0.5,0,1,0.1,1.4,0.2c-0.1,0.2-0.1,0.3-0.1,0.5h-0.1c-0.3-0.3-0.8-0.5-1.3-0.5c-0.5,0-1.1,0.2-1.4,0.6
			C19.1,31.5,19,32,19,32.6c0,0.6,0.2,1.1,0.5,1.5c0.3,0.4,0.8,0.6,1.3,0.6C21.3,34.7,21.8,34.5,22.3,34.2L22.3,34.2z"/>
		<path id="path1238" class="st0" d="M30.5,32.6c0,1.5-1,2.4-2.5,2.4c-1.6,0-2.6-0.9-2.6-2.4c0-1.5,1-2.4,2.6-2.4
			C29.5,30.2,30.5,31.1,30.5,32.6z M26.5,31.1c-0.3,0.4-0.4,1-0.4,1.5c0,0.5,0.1,1,0.4,1.4c0.3,0.5,0.9,0.8,1.5,0.8
			c0.6,0,1.1-0.3,1.4-0.8c0.3-0.4,0.4-0.9,0.4-1.4c0-0.5-0.1-1-0.4-1.5c-0.3-0.5-0.8-0.7-1.4-0.7C27.4,30.4,26.8,30.7,26.5,31.1
			L26.5,31.1z"/>
		<path id="path1240" class="st0" d="M34.6,30.2c0.1,0.1,0.1,0.1,0.2,0.4c0.1,0.2,0.2,0.4,0.3,0.6l0.1,0.3c0.4,0.8,0.3,0.7,0.6,1.2
			c0.2,0.4,0.4,0.8,0.7,1.2l0,0c0.2-0.3,0.3-0.6,0.5-0.8c0.1-0.3,0.3-0.6,0.4-0.9l0.1-0.3l0.2-0.2l0.2-0.3c0.1-0.3,0.3-0.6,0.4-0.8
			l0.1-0.1h0.1c0.1,0.1,0.1,0.1,0.1,0.4c0,0.3,0.1,0.7,0.1,1v0.2l0.1,0.2v0.5c0.1,0.2,0.1,0.5,0.1,0.7v0.2L39,34
			c0.1,0.4,0.1,0.6,0.1,0.8c-0.1,0-0.2-0.1-0.3-0.1s-0.2,0-0.3,0.1c0-0.3,0-0.7-0.1-1c-0.1-1-0.1-1-0.2-2.5
			c-0.2,0.2-0.3,0.4-0.4,0.7c-0.1,0.1,0,0-0.2,0.5c-0.1,0.3-0.3,0.5-0.4,0.8c-0.4,0.9-0.6,1.1-0.7,1.4h-0.1
			c-0.1-0.1-0.1-0.1-0.2-0.6c-0.1-0.1,0.1,0.2-0.5-1c-0.1-0.3-0.2-0.5-0.4-0.8L35,32.1l-0.1-0.2l-0.1-0.2l-0.1-0.1l0,0v0
			c-0.1,0.6-0.2,1.2-0.2,1.8c-0.1,0.9-0.1,1.2-0.1,1.6c-0.1-0.1-0.3-0.1-0.4,0c0.1-0.2,0.1-0.4,0.1-0.8c0.2-1.2,0.1-0.8,0.1-1
			c0.1-0.2,0.1-0.3,0.1-0.4l0.1-0.2c0.1-0.8,0.1-0.4,0.2-1.2C34.5,30.6,34.5,30.6,34.6,30.2L34.6,30.2z"/>
		<path id="path1242" class="st0" d="M43.5,32.9v1.6c0.1,0.1,0.1,0.2,0.1,0.4c-0.1,0-0.2-0.1-0.3-0.1c-0.1,0-0.2,0-0.4,0.1
			c0.1-0.3,0.1-0.6,0.1-0.8c0-0.4,0.1-1.2,0.1-1.5c0-0.6-0.1-1.1-0.1-1.5c0-0.2,0-0.5-0.1-0.7c0.2,0.1,0.4,0.1,0.6,0.1
			s0.3,0,0.5-0.1h0.4c1,0,1.5,0.4,1.5,1.2c0,0.4-0.2,0.8-0.6,1.1c-0.4,0.2-0.9,0.3-1.3,0.2h-0.4L43.5,32.9L43.5,32.9z M43.5,32.5
			h0.3c1,0,1.4-0.4,1.4-1.1c0-0.6-0.4-0.9-1.2-0.9c-0.2,0-0.3,0-0.5,0.1c0,0.2-0.1,0.3-0.1,0.4L43.5,32.5L43.5,32.5z"/>
		<path id="path1244" class="st0" d="M50.5,30.2c0.1,0.2,0,0,0.2,0.5c0.1,0.2,0.2,0.5,0.3,0.7c0.7,1.5,0.4,1,0.7,1.5l0.1,0.4
			c0.4,0.7,0.2,0.5,0.3,0.7c0.2,0.4,0.2,0.4,0.4,0.8c-0.1-0.1-0.2-0.1-0.3-0.1c-0.1,0-0.2,0-0.4,0.1c-0.1-0.3-0.2-0.6-0.3-0.9
			c-0.1-0.3-0.2-0.6-0.4-0.9h-1.7c-0.3,0.8-0.3,0.7-0.7,1.8c-0.1-0.1-0.1-0.1-0.2-0.1c-0.1,0-0.2,0-0.2,0.1c0.1-0.3,0.2-0.6,0.5-1.2
			c0.2-0.4,0.3-0.8,0.5-1.2c0.2-0.6,0.4-1,0.5-1.2c0.2-0.2,0.2-0.5,0.3-0.7c0.1-0.1,0.2-0.2,0.2-0.4l0,0l0.1-0.1v-0.1L50.5,30.2z
			 M49.6,32.8H51c-0.1-0.1-0.1-0.2-0.2-0.3c-0.3-0.8-0.2-0.6-0.3-0.8c-0.1-0.2-0.2-0.4-0.2-0.6L49.6,32.8L49.6,32.8z"/>
		<path id="path1246" class="st0" d="M55.8,30.2L55.8,30.2c0.3,0.2,0.5,0.4,0.6,0.6c0.2,0.2,0.4,0.5,0.7,0.7l0.2,0.2l0.2,0.2
			l0.2,0.2c0.2,0.2,0.5,0.5,0.7,0.8l0.7,0.7v-0.1c0.1-0.1,0,0.1,0.1-0.6v-0.8c0-0.5,0-1.1-0.1-1.6v-0.4c0.1,0,0.2,0.1,0.2,0.1
			c0.1,0,0.1,0,0.2-0.1v0.6c-0.1,0.4-0.1,0.8-0.1,1.2c-0.1,0.5-0.1,1-0.1,1.5v1c0,0.1,0,0.2,0.1,0.4h-0.1c-0.3-0.4-0.6-0.7-0.9-1
			c-0.3-0.3-0.7-0.8-1-1c-0.1-0.2,0.1,0.1-0.7-0.7l-0.4-0.4c-0.4-0.5-0.3-0.4-0.4-0.4L56,31.3l0,0V33c0,0.5,0,0.9,0.1,1.4v0.4
			c-0.1-0.1-0.1-0.1-0.2-0.1c-0.1,0-0.1,0-0.2,0.1c0-0.3,0-0.6,0.1-0.8v-1.5l0.1-0.2L55.8,30.2L55.8,30.2L55.8,30.2z"/>
		<path id="path1248" class="st0" d="M63.8,30.3c0.1,0,0.2,0,0.3-0.1c0,0.2,0,0.5-0.1,0.8v3c0,0.3,0.1,0.5,0.1,0.8
			c-0.1,0-0.2-0.1-0.3-0.1c-0.1,0-0.2,0-0.3,0.1v-0.8c0-0.2,0-0.5,0.1-0.8v-1c0-0.4,0-0.8-0.1-1.2v-0.8
			C63.6,30.3,63.7,30.3,63.8,30.3L63.8,30.3z"/>
		<path id="path1250" class="st0" d="M69.1,34.8h-0.7c-0.2,0-0.3,0-0.4,0.1c0-0.3,0.1-0.7,0.1-1.3v-2.6c0-0.2,0-0.5-0.1-0.8
			c0.2,0,0.2,0.1,0.5,0.1h1.5c0.2,0,0.2-0.1,0.4-0.1v0.4h-0.5c-0.1,0-0.3-0.1-0.6-0.1h-0.6v1.1c-0.1,0.4-0.1,0.2,0,0.2
			c-0.1,0.1-0.1,0.1-0.1,0.2c0,0.1,0,0.1,0.1,0.1c0.1,0.1,0.2,0.1,0.2,0.1c0.2,0,0.3,0,0.4-0.1h0.9v0.4c-0.4-0.1-0.8-0.1-1.2-0.1
			h-0.5c0,0,0.1,0.1,0.1,0.1l-0.1,0.5c0,0.2,0,0.4,0.1,0.6v0.7c0.1,0,0.2,0.1,0.2,0.1c0.2,0,0.4,0,0.6-0.1c0.3,0,0.7,0,1-0.1v0.4
			h-0.1v-0.1L69.1,34.8L69.1,34.8z"/>
		<path id="path1252" class="st0" d="M75.5,31.1c-0.1-0.3-0.5-0.6-0.8-0.6c-0.4,0-0.8,0.2-0.8,0.7c0,0,0,0.1,0,0.1
			c0,0.2,0.1,0.5,0.2,0.7c0.2,0.2,0.5,0.3,0.8,0.4c0.3,0.1,0.6,0.2,0.8,0.4c0.2,0.2,0.3,0.4,0.3,0.7c0,0.9-0.7,1.5-1.7,1.5
			c-0.4,0-0.8-0.1-1.1-0.4c0.1-0.2,0.1-0.4,0.1-0.6h0.1c0.2,0.4,0.6,0.6,1,0.7c0.5,0,0.9-0.3,1-0.8c0,0,0-0.1,0-0.1
			c0-0.2-0.1-0.5-0.2-0.7c-0.2-0.2-0.5-0.3-0.8-0.4c-0.8-0.3-1.1-0.6-1.1-1.3c0-0.3,0.1-0.7,0.4-0.9c0.3-0.2,0.7-0.3,1-0.3
			c0.4,0,0.7,0.1,1,0.3C75.6,30.8,75.5,30.9,75.5,31.1L75.5,31.1z"/>
	</g>
</g>
</svg>
