<?xml version="1.0" encoding="utf-8"?>
<!-- Generator: Adobe Illustrator 26.0.1, SVG Export Plug-In . SVG Version: 6.00 Build 0)  -->
<svg version="1.1" id="Layer_1" xmlns="http://www.w3.org/2000/svg" xmlns:xlink="http://www.w3.org/1999/xlink" x="0px" y="0px"
	 viewBox="0 0 95 35" style="enable-background:new 0 0 95 35;" xml:space="preserve">
<style type="text/css">
	.st0{fill:#343741;}
	.st1{clip-path:url(#SVGID_00000043427507383946694550000005913664226911135422_);}
	.st2{clip-path:url(#SVGID_00000031184419573940405400000012498767996192657071_);}
	.st3{clip-path:url(#SVGID_00000074429614600969223930000001685368958080334983_);}
	.st4{clip-path:url(#SVGID_00000044893543605258070950000007992716496482239161_);}
	.st5{clip-path:url(#SVGID_00000114774797867221237830000015912946481749347719_);}
	.st6{clip-path:url(#SVGID_00000044141298340363732540000003085520008864626081_);}
	.st7{clip-path:url(#SVGID_00000062873764784086664470000014482873636434773381_);}
	.st8{fill:url(#SVGID_00000047032034862682685130000010212047267306762932_);}
	.st9{clip-path:url(#SVGID_00000108271160759335437690000002411862863139578267_);}
	.st10{clip-path:url(#SVGID_00000134233277428020265520000003670041890098960019_);}
	.st11{clip-path:url(#SVGID_00000062885582419627268000000001469873852170850690_);}
	.st12{clip-path:url(#SVGID_00000004524589330379174190000004264212301834008482_);}
	.st13{clip-path:url(#SVGID_00000095325749805015006830000013936589098079490741_);}
</style>
<path class="st0" d="M44,29.3v-2.7h0.8c1.2,0,2.5,0,2.5,1.3c0,1.3-1.3,1.4-2.7,1.4L44,29.3 M44,30.8H45l3.3,4h3.4l-4-4.3
	c0.8-0.3,2.6-0.8,2.6-2.6c0-2.6-3.6-2.7-5.3-2.7h-3.7c-0.4,0-0.5,0-0.5,0.3v9.3H44V30.8z"/>
<path class="st0" d="M67.7,33.5c-1.7,0-2.4-1.4-2.4-3.6s0.7-3.6,2.4-3.6s2.4,1.4,2.4,3.6S69.4,33.5,67.7,33.5 M73.4,29.9
	c0-3.4-2.2-5-5.7-5s-5.7,1.6-5.7,5s2.1,5,5.7,5S73.4,33.3,73.4,29.9"/>
<path class="st0" d="M33.9,30.5h4.3V29h-4.3v-2.3h4.8l0.7-1.5h-8.1c-0.3,0-0.4,0-0.5,0.2v9.4h8.4v-1.5h-5.4V30.5z"/>
<path class="st0" d="M85,25.2h-2.1c0,0,0.1,5.8,0.1,6.2l-5.1-6.1c-0.1-0.1-0.2-0.2-0.5-0.2h-1.9c-0.3,0-0.4,0-0.4,0.2v9.4h2.6v-5.3
	c0-0.6,0-1.1,0-1.3c0,0,5.3,6.2,5.5,6.4c0.1,0.1,0.3,0.2,0.5,0.2h2v-9.6H85z"/>
<path class="st0" d="M8.9,30.5h4.3V29H8.9v-2.3h4.8l0.7-1.5H6.3c-0.3,0-0.5,0-0.5,0.3v9.3h8.4v-1.5H8.9V30.5z"/>
<path class="st0" d="M22.4,31.1l-3.7-5.7c-0.1-0.2-0.2-0.2-0.5-0.2h-2.4v9.6h2.6v-5.3c0-0.6,0-0.9,0-1.1c0,0,3.6,5.8,4,6.2l0,0
	c0.4-0.4,3.8-6.2,3.8-6.2c0,0.2,0,0.5,0,1.1v5.3h2.6v-9.6h-2.3c-0.3,0-0.4,0-0.5,0.2L22.4,31.1L22.4,31.1z"/>
<path class="st0" d="M59.5,29.6c-1.9-0.9-4.5-1-4.5-2.1c0-0.8,0.8-1.1,1.8-1.1c1,0,2.1,0.3,3,0.6c0.1,0,0.2-0.1,0.2-0.1l0.1-0.2
	l0.8-1l0,0h0l-0.4-0.2c-0.1,0-0.2-0.1-0.3-0.1c-1.2-0.4-2.4-0.5-3.6-0.5c-2.5,0-4.7,0.8-4.7,2.9c0,1.2,0.5,1.9,1.7,2.3
	c2.2,0.9,4.4,0.8,4.4,2.1c0,0.9-0.5,1.3-1.7,1.3c-1.2,0-2.4-0.2-3.6-0.6c-0.1,0-0.2,0.1-0.2,0.1l-0.2,0.5l-0.4,0.8l0.3,0.1
	c1.4,0.4,2.8,0.7,4.2,0.7c2.7,0,4.7-0.9,4.7-3C61.1,31,60.5,30,59.5,29.6"/>
<g>
	<defs>
		<path id="SVGID_1_" d="M50.6,14.9L50.6,14.9z"/>
	</defs>
	<use xlink:href="#SVGID_1_"  style="overflow:visible;fill:#FFFFFF;"/>
	<clipPath id="SVGID_00000066482834537326813940000015383690438888437905_">
		<use xlink:href="#SVGID_1_"  style="overflow:visible;"/>
	</clipPath>
	<g style="clip-path:url(#SVGID_00000066482834537326813940000015383690438888437905_);">
		<polygon class="st0" points="50.6,14.9 50.6,14.9 50.6,14.9 50.6,14.9 		"/>
	</g>
</g>
<g>
	<defs>
		<path id="SVGID_00000037668791849068226650000016122000953156532398_" d="M42.9,5c0,0,0,0.1,0,0.1c0.1,0.2,0.2,0.3,0.3,0.5
			l0.1,0.1l3.4,4.2l0,0l3.3,4.1c0.6,0.7,0.6,0.9,0.6,1l1.2-2c0-0.1-0.1-0.3-0.3-0.6l-0.1-0.1L48,8v0l-3.3-4.1
			c-0.6-0.8-0.6-0.9-0.6-1L42.9,5z"/>
	</defs>
	<use xlink:href="#SVGID_00000037668791849068226650000016122000953156532398_"  style="overflow:visible;fill:#FFFFFF;"/>
	<clipPath id="SVGID_00000022527419518050303590000008103499229082350469_">
		<use xlink:href="#SVGID_00000037668791849068226650000016122000953156532398_"  style="overflow:visible;"/>
	</clipPath>
	<g style="clip-path:url(#SVGID_00000022527419518050303590000008103499229082350469_);">
		<rect x="39.9" y="2" transform="matrix(0.5044 -0.8635 0.8635 0.5044 15.777 45.3434)" class="st0" width="14.9" height="13.8"/>
	</g>
</g>
<g>
	<defs>
		<path id="SVGID_00000182489869250786119280000004217313305689732490_" d="M44.6,2.1c0,0,0,0.1,0,0.1c0.1,0.2,0.2,0.3,0.3,0.5
			L45,2.7l3.4,4.2h0l3.3,4.1c0.6,0.7,0.6,0.9,0.6,1l1.2-2c0-0.1-0.1-0.3-0.3-0.6l-0.1-0.1l-3.4-4.2v0L46.4,1c-0.6-0.8-0.6-0.9-0.6-1
			L44.6,2.1z"/>
	</defs>
	<use xlink:href="#SVGID_00000182489869250786119280000004217313305689732490_"  style="overflow:visible;fill:#FFFFFF;"/>
	<clipPath id="SVGID_00000180336069146408753740000009366526107154073021_">
		<use xlink:href="#SVGID_00000182489869250786119280000004217313305689732490_"  style="overflow:visible;"/>
	</clipPath>
	<g style="clip-path:url(#SVGID_00000180336069146408753740000009366526107154073021_);">
		
			<rect x="41.2" y="-0.8" transform="matrix(0.5026 -0.8645 0.8645 0.5026 18.9761 45.0233)" class="st0" width="14.8" height="13.7"/>
	</g>
</g>
<g>
	<defs>
		<polyline id="SVGID_00000156550574317153469250000013240742539657553318_" points="52.3,12 52.3,12 52.3,12 		"/>
	</defs>
	<use xlink:href="#SVGID_00000156550574317153469250000013240742539657553318_"  style="overflow:visible;fill:#FFFFFF;"/>
	<clipPath id="SVGID_00000058577525917111180340000013757427872175654283_">
		<use xlink:href="#SVGID_00000156550574317153469250000013240742539657553318_"  style="overflow:visible;"/>
	</clipPath>
	<g style="clip-path:url(#SVGID_00000058577525917111180340000013757427872175654283_);">
		<polygon class="st0" points="52.3,12 52.3,12 52.3,12 52.3,12 		"/>
	</g>
</g>
<g>
	<defs>
		<path id="SVGID_00000055674246081191410020000003105895575923174805_" d="M39.5,10.7c-0.1,0.1,0.1,0.3,0.3,0.6l0.1,0.1l3.4,4.2
			l0,0l3.3,4.1c0.6,0.7,0.6,0.9,0.6,1l1.2-2c0,0,0-0.1,0-0.1c-0.1-0.2-0.2-0.3-0.3-0.5L48,17.9l-3.4-4.2v0l-3.3-4.1
			c-0.6-0.8-0.6-0.9-0.5-1L39.5,10.7z"/>
	</defs>
	<use xlink:href="#SVGID_00000055674246081191410020000003105895575923174805_"  style="overflow:visible;fill:#FFFFFF;"/>
	<clipPath id="SVGID_00000072245799417682596140000002545796061747822220_">
		<use xlink:href="#SVGID_00000055674246081191410020000003105895575923174805_"  style="overflow:visible;"/>
	</clipPath>
	<g style="clip-path:url(#SVGID_00000072245799417682596140000002545796061747822220_);">
		
			<rect x="36.5" y="7.8" transform="matrix(0.5042 -0.8636 0.8636 0.5042 9.0966 45.2218)" class="st0" width="14.9" height="13.8"/>
	</g>
</g>
<g>
	<defs>
		<path id="SVGID_00000146490013363142931180000012934568449334705033_" d="M47.2,20.7L47.2,20.7 M47.2,20.7L47.2,20.7z"/>
	</defs>
	<use xlink:href="#SVGID_00000146490013363142931180000012934568449334705033_"  style="overflow:visible;fill:#FFFFFF;"/>
	<clipPath id="SVGID_00000134237447540738068320000013363561384879216540_">
		<use xlink:href="#SVGID_00000146490013363142931180000012934568449334705033_"  style="overflow:visible;"/>
	</clipPath>
	<g style="clip-path:url(#SVGID_00000134237447540738068320000013363561384879216540_);">
		<polygon class="st0" points="47.2,20.7 47.2,20.7 47.2,20.7 47.2,20.7 		"/>
	</g>
</g>
<g>
	<defs>
		<path id="SVGID_00000110445939620428495660000016124201758934750345_" d="M45.5,23.6L45.5,23.6z"/>
	</defs>
	<clipPath id="SVGID_00000055697161614332541540000011289448480392694949_">
		<use xlink:href="#SVGID_00000110445939620428495660000016124201758934750345_"  style="overflow:visible;"/>
	</clipPath>
	<g style="clip-path:url(#SVGID_00000055697161614332541540000011289448480392694949_);">
		
			<linearGradient id="SVGID_00000170240344725774755720000009663356966170226586_" gradientUnits="userSpaceOnUse" x1="45.4715" y1="11.861" x2="45.4895" y2="11.861" gradientTransform="matrix(1 0 0 -1 0 35.433)">
			<stop  offset="0" style="stop-color:#8C9091"/>
			<stop  offset="0.1" style="stop-color:#999C9D"/>
			<stop  offset="0.29" style="stop-color:#BBBDBD"/>
			<stop  offset="0.5" style="stop-color:#E6E7E7"/>
			<stop  offset="0.59" style="stop-color:#DDDEDE"/>
			<stop  offset="0.74" style="stop-color:#C5C7C7"/>
			<stop  offset="0.93" style="stop-color:#9DA1A2"/>
			<stop  offset="1" style="stop-color:#8C9091"/>
		</linearGradient>
		<polygon style="fill:url(#SVGID_00000170240344725774755720000009663356966170226586_);" points="45.5,23.6 45.5,23.6 45.5,23.6 
			45.5,23.6 		"/>
	</g>
</g>
<g>
	<defs>
		<path id="SVGID_00000000924181116872719680000003515324139533285256_" d="M37.8,13.6c-0.1,0.1,0.1,0.3,0.3,0.6l0.1,0.1l3.4,4.2v0
			l3.3,4.1c0.6,0.7,0.6,0.9,0.6,1l1.2-2c0,0,0-0.1,0-0.2c-0.1-0.2-0.2-0.3-0.3-0.5l-0.1-0.1l-3.4-4.2l0,0l-3.3-4.1
			c-0.6-0.8-0.6-0.9-0.6-1L37.8,13.6z"/>
	</defs>
	<use xlink:href="#SVGID_00000000924181116872719680000003515324139533285256_"  style="overflow:visible;fill:#FFFFFF;"/>
	<clipPath id="SVGID_00000151501903204004532160000007169734503011122585_">
		<use xlink:href="#SVGID_00000000924181116872719680000003515324139533285256_"  style="overflow:visible;"/>
	</clipPath>
	<g style="clip-path:url(#SVGID_00000151501903204004532160000007169734503011122585_);">
		<rect x="34.8" y="10.7" transform="matrix(0.5044 -0.8635 0.8635 0.5044 5.75 45.1753)" class="st0" width="14.9" height="13.8"/>
	</g>
</g>
<g>
	<defs>
		<path id="SVGID_00000161626434772292550470000003896398167904167813_" d="M48.9,17.8L48.9,17.8 M48.9,17.8L48.9,17.8L48.9,17.8
			 M41.2,7.9c-0.1,0.1,0.1,0.3,0.3,0.6l0.1,0.1l3.4,4.2v0l3.3,4.1c0.6,0.7,0.6,0.9,0.6,1l1.2-2c0-0.1-0.1-0.3-0.3-0.6l-0.1-0.1
			l-3.4-4.2h0L43,6.8c-0.6-0.8-0.6-0.9-0.5-1L41.2,7.9z"/>
	</defs>
	<use xlink:href="#SVGID_00000161626434772292550470000003896398167904167813_"  style="overflow:visible;fill:#FFFFFF;"/>
	<clipPath id="SVGID_00000058578764064472512870000017881995950020709267_">
		<use xlink:href="#SVGID_00000161626434772292550470000003896398167904167813_"  style="overflow:visible;"/>
	</clipPath>
	<g style="clip-path:url(#SVGID_00000058578764064472512870000017881995950020709267_);">
		
			<rect x="38.2" y="4.9" transform="matrix(0.5044 -0.8635 0.8635 0.5044 12.4262 45.2853)" class="st0" width="14.9" height="13.8"/>
	</g>
</g>
<g>
	<defs>
		<path id="SVGID_00000131367266114151728580000015896535600493358744_" d="M39,11.6C39,11.6,39,11.6,39,11.6l-1.2,2.1
			c0-0.1,0.2-0.2,1.1,0.2l4.6,1.9h0l4.7,2l0.1,0c0.1,0,0.5,0.2,0.6,0.1c0,0,0,0,0.1-0.1l1.2-2c0,0.1-0.2,0.2-1.1-0.2l-4.6-1.9h0
			l-4.7-2l-0.1,0c-0.1-0.1-0.3-0.1-0.5-0.1C39.1,11.5,39.1,11.6,39,11.6"/>
	</defs>
	<use xlink:href="#SVGID_00000131367266114151728580000015896535600493358744_"  style="overflow:visible;fill:#FFFFFF;"/>
	<clipPath id="SVGID_00000059301101179403734900000007573100730080322439_">
		<use xlink:href="#SVGID_00000131367266114151728580000015896535600493358744_"  style="overflow:visible;"/>
	</clipPath>
	<g style="clip-path:url(#SVGID_00000059301101179403734900000007573100730080322439_);">
		
			<rect x="38.1" y="7.8" transform="matrix(0.5044 -0.8635 0.8635 0.5044 9.0619 45.2454)" class="st0" width="11.7" height="13.9"/>
	</g>
</g>
<g>
	<defs>
		<path id="SVGID_00000074426020856733946380000015834420589820876932_" d="M40.7,8.7C40.7,8.7,40.7,8.7,40.7,8.7l-1.2,2
			c0-0.1,0.2-0.2,1.1,0.2l4.6,1.9h0l4.7,2l0.1,0c0.1,0,0.5,0.2,0.6,0.1c0,0,0,0,0.1-0.1l1.2-2c0,0.1-0.2,0.2-1.1-0.2l-4.6-1.9h0
			l-4.7-2l-0.1,0c-0.1-0.1-0.3-0.1-0.5-0.1C40.8,8.7,40.8,8.7,40.7,8.7"/>
	</defs>
	<use xlink:href="#SVGID_00000074426020856733946380000015834420589820876932_"  style="overflow:visible;fill:#FFFFFF;"/>
	<clipPath id="SVGID_00000155851348317918637620000011842645580437472955_">
		<use xlink:href="#SVGID_00000074426020856733946380000015834420589820876932_"  style="overflow:visible;"/>
	</clipPath>
	<g style="clip-path:url(#SVGID_00000155851348317918637620000011842645580437472955_);">
		
			<rect x="39.8" y="4.9" transform="matrix(0.5044 -0.8635 0.8635 0.5044 12.4002 45.2956)" class="st0" width="11.7" height="13.9"/>
	</g>
</g>
<g>
	<defs>
		<path id="SVGID_00000160892028229974526830000009057368551249025700_" d="M42.4,5.8C42.4,5.8,42.4,5.8,42.4,5.8l-1.3,2.1
			c0.1-0.1,0.2-0.2,1.1,0.2l4.6,1.9h0l4.7,2l0.1,0c0.1,0,0.5,0.2,0.6,0.1c0,0,0,0,0.1-0.1l1.2-2c0,0.1-0.2,0.2-1.1-0.2l-4.6-1.9h0
			l-4.7-2l-0.1,0c-0.1-0.1-0.3-0.1-0.5-0.1C42.5,5.8,42.5,5.8,42.4,5.8"/>
	</defs>
	<use xlink:href="#SVGID_00000160892028229974526830000009057368551249025700_"  style="overflow:visible;fill:#FFFFFF;"/>
	<clipPath id="SVGID_00000049219961921749826150000018237078915090756491_">
		<use xlink:href="#SVGID_00000160892028229974526830000009057368551249025700_"  style="overflow:visible;"/>
	</clipPath>
	<g style="clip-path:url(#SVGID_00000049219961921749826150000018237078915090756491_);">
		<rect x="41.5" y="2" transform="matrix(0.5045 -0.8634 0.8634 0.5045 15.733 45.3389)" class="st0" width="11.7" height="13.9"/>
	</g>
</g>
<polygon class="st0" points="86.6,33.5 86.6,33.6 87,33.6 87,34.8 87.2,34.8 87.2,33.6 87.6,33.6 87.6,33.5 "/>
<polygon class="st0" points="89,34.8 89,33.6 88.6,34.8 88.4,34.8 88,33.7 88,34.8 87.8,34.8 87.8,33.5 88.1,33.5 88.5,34.6 
	88.9,33.5 89.2,33.5 89.2,34.8 "/>
</svg>
