<?xml version="1.0" encoding="utf-8"?>
<!-- Generator: Adobe Illustrator 26.0.1, SVG Export Plug-In . SVG Version: 6.00 Build 0)  -->
<svg version="1.1" id="Layer_1" xmlns="http://www.w3.org/2000/svg" xmlns:xlink="http://www.w3.org/1999/xlink" x="0px" y="0px"
	 viewBox="0 0 95 35" style="enable-background:new 0 0 95 35;" xml:space="preserve">
<style type="text/css">
	.st0{fill:#CCCCCC;}
</style>
<g>
	<path d="M19,24.8c0.4-2.1-0.6-3.6-2.8-3.6c-1.9,0-3.5,1.2-3.8,3.1c-0.3,1.9,0.9,3,2.8,3c1.3,0,2.9-0.5,3.5-1.9h-2.2
		c-0.2,0.3-0.6,0.5-1,0.5c-0.6,0-1.1-0.5-0.9-1.1L19,24.8z M14.9,23.6c0.1-0.6,0.6-1,1.2-1c0.5,0,0.9,0.5,0.8,1 M19.8,24.3
		c-0.3,2,0.9,3,2.8,3s3.5-1,3.8-3.1c0.3-1.8-0.7-3-2.8-3C21.7,21.2,20.2,22.3,19.8,24.3L19.8,24.3z M23.4,22.7
		c0.6,0,0.9,0.6,0.7,1.5c-0.2,1.1-0.7,1.6-1.3,1.6c-0.6,0-0.9-0.5-0.7-1.6C22.3,23.5,22.6,22.7,23.4,22.7L23.4,22.7z M26.9,27.4
		c0,0.9,0.7,1.7,2.7,1.7c2.8,0,3.3-1.4,3.6-3.1l0.8-4.6h-2l-0.1,0.8c-0.3-0.6-0.9-0.9-1.6-0.9c-1.9,0-2.8,1.5-3.1,2.9
		c-0.3,1.5,0.4,2.7,2,2.7c0.8,0,1.4-0.3,1.8-0.6l-0.1,0.5c-0.1,0.8-0.5,1.1-1.1,1.1c-0.2,0-0.4-0.1-0.5-0.1
		c-0.1-0.1-0.1-0.2-0.1-0.3H26.9z M30.6,22.8c0.7,0,0.9,0.6,0.8,1.2c-0.1,0.6-0.5,1.2-1.2,1.2c-0.6,0-0.8-0.6-0.7-1.1
		C29.6,23.4,29.9,22.8,30.6,22.8L30.6,22.8z M36.8,21.3h2.1l-0.2,1.2h0c0.5-0.9,1.1-1.3,2-1.3c0.1,0,0.2,0,0.3,0l-0.4,2.3
		c-0.2,0-0.3-0.1-0.5-0.1c-0.9,0-1.5,0.4-1.7,1.7l-0.4,2h-2.3 M47.4,24.7c0.4-2.1-0.6-3.6-2.8-3.6c-1.9,0-3.5,1.2-3.8,3.1
		c-0.3,1.9,0.9,3,2.8,3c1.3,0,2.9-0.5,3.5-1.9h-2.2c-0.2,0.3-0.6,0.5-0.9,0.5c-0.6,0-1.1-0.5-0.9-1.1H47.4z M43.2,23.5
		c0.1-0.6,0.6-1,1.2-1c0.5,0,0.9,0.5,0.8,1 M50.2,25.3c0,0.2,0,0.4,0.1,0.5c0.1,0.1,0.3,0.2,0.5,0.2c0.4,0,0.7-0.1,0.8-0.5
		c0.2-0.9-3.5-0.2-3.1-2.4c0.3-1.5,1.9-1.9,3.1-1.9c1.3,0,2.7,0.3,2.5,1.8h-2.1c0-0.2,0-0.3-0.1-0.4c-0.1-0.1-0.3-0.1-0.4-0.1
		c-0.4,0-0.7,0.1-0.7,0.4c-0.1,0.8,3.6,0.3,3.2,2.4c-0.2,1.2-1.3,2-3.5,2c-1.3,0-2.7-0.4-2.6-2 M54.9,24.3c-0.3,2,0.9,3,2.8,3
		c1.9,0,3.5-1,3.8-3.1c0.3-1.8-0.7-3-2.8-3C56.8,21.1,55.3,22.3,54.9,24.3z M58.5,22.7c0.6,0,0.9,0.6,0.7,1.5
		c-0.2,1.1-0.7,1.6-1.3,1.6c-0.6,0-0.9-0.5-0.7-1.6C57.3,23.5,57.7,22.7,58.5,22.7z M68.2,27.1h-2.1l0.2-0.8c-0.7,0.8-1.3,1-2.3,1
		c-1.3,0-1.9-0.8-1.6-2.4l0.6-3.5h2.3l-0.6,3.1c-0.1,0.8,0.1,1,0.6,1c0.7,0,1-0.5,1.1-1.4l0.5-2.8h2.3 M70.3,21.3h2.1l-0.2,1.2h0
		c0.5-0.9,1.1-1.3,2-1.3c0.1,0,0.2,0,0.3,0l-0.4,2.3c-0.1,0-0.3-0.1-0.5-0.1c-0.9,0-1.5,0.4-1.7,1.7l-0.4,2h-2.3 M78.5,23.5
		c0-0.3,0-0.5-0.1-0.6c-0.1-0.2-0.3-0.2-0.6-0.2c-0.9,0-1.2,0.9-1.3,1.6c-0.2,0.9,0.1,1.4,0.7,1.4c0.6,0,0.9-0.4,1-0.9h2.3
		c-0.5,1.8-2,2.4-3.6,2.4c-1.9,0-3.1-1-2.8-3c0.3-2,1.9-3.1,3.8-3.1c1.5,0,2.9,0.7,2.7,2.4 M88.2,24.7c0.4-2.1-0.6-3.6-2.8-3.6
		c-1.9,0-3.5,1.2-3.8,3.1c-0.3,1.9,0.9,3,2.8,3c1.3,0,2.9-0.5,3.5-1.9h-2.2c-0.2,0.3-0.6,0.5-0.9,0.5c-0.6,0-1.1-0.5-0.9-1.1H88.2z
		 M84,23.5c0.1-0.6,0.6-1,1.2-1c0.5,0,0.9,0.5,0.8,1 M91,25.3c0,0.2,0,0.4,0.1,0.5c0.1,0.1,0.3,0.2,0.5,0.2c0.4,0,0.7-0.1,0.8-0.5
		c0.2-0.9-3.5-0.2-3.1-2.4c0.3-1.5,1.9-1.9,3.1-1.9c1.3,0,2.7,0.3,2.5,1.8h-2.1c0-0.2,0-0.3-0.1-0.4c-0.1-0.1-0.3-0.1-0.4-0.1
		c-0.4,0-0.7,0.1-0.7,0.4c-0.1,0.8,3.6,0.3,3.2,2.4c-0.2,1.2-1.3,2-3.5,2c-1.3,0-2.7-0.4-2.6-2"/>
	<path d="M9.9,14.3c-0.3-0.7-0.7-1.9-0.4-3.4c0.4-2,1.5-3.8,3.1-5C9.5,6.3,6.8,9,6.3,12.2C6.1,13.4,6,15.4,8,17.3
		c1.2,1.2,2.4,2.5,2.1,4.8c-0.4,2.4-2.5,4.3-4.8,4.3c-2.3,0-3.8-2-3.5-4.4c0.4-3.1,3.7-4,4-5.9c0.1-0.7-0.1-1.5-0.2-2.1
		c-0.3-0.9-0.7-2.2-0.1-4c0,0-1.8,1.4-2.2,4.2C3.1,15,3,15.9,2.1,16.8c-0.9,0.9-1.8,2.4-2,4.3c-0.5,3.5,1.8,6.3,5.1,6.4
		c3.3,0,6.4-2.8,6.9-6.3C12.6,18.1,10.6,15.9,9.9,14.3L9.9,14.3z"/>
	<path d="M5.3,25.3L5.3,25.3c1.7,0,3.3-1.5,3.6-3.3c0.3-1.7-0.5-2.6-1.7-3.8c-1.2-1.2-1.2-1.8-1.3-2.6c0,1.7,0.1,2.8-0.8,3.7
		c-0.9,0.9-1.8,1.7-2,3c-0.1,0.9,0.1,1.7,0.6,2.3C4,25.1,4.6,25.3,5.3,25.3L5.3,25.3z"/>
</g>
</svg>
