<?xml version="1.0" encoding="utf-8"?>
<!-- Generator: Adobe Illustrator 26.0.1, SVG Export Plug-In . SVG Version: 6.00 Build 0)  -->
<svg version="1.1" id="Layer_1" xmlns="http://www.w3.org/2000/svg" xmlns:xlink="http://www.w3.org/1999/xlink" x="0px" y="0px"
	 viewBox="0 0 95 35" style="enable-background:new 0 0 95 35;" xml:space="preserve">
<style type="text/css">
	.st0{fill:#CCCCCC;}
</style>
<g>
	<polygon class="st0" points="61.1,4.6 61.1,13.3 59.1,14 59.1,3.8 53.1,1.7 53.1,16.1 51.1,16.8 51.1,1 48.1,0 45.1,1 45.1,16.8 
		43.1,16.1 43.1,1.7 37,3.8 37,14 35,13.3 35,4.6 33,5.2 33,14.8 39,16.9 39,5.3 41,4.6 41,17.6 47.1,19.7 47.1,2.5 48.1,2.1 
		49.1,2.5 49.1,19.7 55.1,17.6 55.1,4.6 57.1,5.3 57.1,16.9 63.1,14.8 63.1,5.2 	"/>
	<polygon class="st0" points="12.4,31.1 15.9,31.1 15.9,30.1 12.4,30.1 12.4,28 17.7,28 17.7,27 11.3,27 11.3,34.4 17.9,34.4 
		17.9,33.5 12.4,33.5 	"/>
	<path class="st0" d="M40.5,31.5c0,1.3-0.9,2.2-2.2,2.2c-1.3,0-2-0.9-2-2.2v-4.4h-1.1v4.5c0,2,1.5,3.1,3.1,3.1
		c2.4,0,3.2-1.7,3.2-3.1v-4.5h-1.1L40.5,31.5L40.5,31.5z"/>
	<rect x="47.5" y="27.1" class="st0" width="1.1" height="7.4"/>
	<polygon class="st0" points="61.3,32.8 56,27.1 55,27.1 55,34.4 56,34.4 56,28.6 61.3,34.4 62.3,34.4 62.3,27.1 61.3,27.1 	"/>
	<rect x="68.7" y="27.1" class="st0" width="1.1" height="7.4"/>
	<polygon class="st0" points="80.1,30.4 83.2,27 81.9,27 79.4,29.7 77.1,27 75.7,27 78.7,30.4 74.9,34.4 76.3,34.4 79.3,31.1 
		82.2,34.4 83.7,34.4 	"/>
	<path class="st0" d="M25.9,26.8c-2.2,0-3.9,1.7-3.9,4v0c0,2.3,1.7,3.9,3.9,3.9c0.6,0,1.2-0.2,1.7-0.4l0.6,0.7h1.2l-1.1-1.2
		c0.9-0.7,1.4-1.7,1.4-3.1v0C29.9,28.4,28.1,26.7,25.9,26.8 M28.8,30.7c0,1-0.3,1.7-1,2.3l-0.6-0.7H26l1,1.2c-0.2,0.1-0.7,0.2-1,0.2
		c-1.6,0-2.8-1.3-2.8-3v0c0-1.8,1.2-3,2.8-3C27.5,27.7,28.8,29,28.8,30.7L28.8,30.7L28.8,30.7z"/>
	<path class="st0" d="M67,14.1c1,0,1.8-0.8,1.8-1.8l0,0c0-1-0.8-1.8-1.8-1.8c-1,0-1.8,0.8-1.8,1.8v0C65.1,13.3,65.9,14.1,67,14.1
		 M67,13.9c-0.9,0-1.6-0.7-1.6-1.6v0c0-0.9,0.7-1.6,1.6-1.6c0.9,0,1.6,0.7,1.6,1.6v0C68.6,13.2,67.9,13.9,67,13.9 M66.2,13.2h0.5
		v-0.6H67l0.4,0.6h0.5l-0.5-0.7c0.2-0.1,0.4-0.3,0.4-0.6c0-0.4-0.3-0.6-0.8-0.6h-0.9V13.2z M66.7,12.2v-0.5h0.4
		c0.2,0,0.3,0.1,0.3,0.3c0,0.2-0.1,0.3-0.3,0.3L66.7,12.2L66.7,12.2z"/>
</g>
</svg>
