<?xml version="1.0" encoding="utf-8"?>
<!-- Generator: Adobe Illustrator 26.0.1, SVG Export Plug-In . SVG Version: 6.00 Build 0)  -->
<svg version="1.1" id="Layer_1" xmlns="http://www.w3.org/2000/svg" xmlns:xlink="http://www.w3.org/1999/xlink" x="0px" y="0px"
	 viewBox="0 0 95 35" style="enable-background:new 0 0 95 35;" xml:space="preserve">
<style type="text/css">
	.st0{fill:#CCCCCC;}
</style>
<g>
	<g transform="matrix(6.39607 0 0 -6.39607 -639.1 759.844)">
		<path class="st0" d="M103.5,117.9l0.3-1h-0.6L103.5,117.9z M103,116.2l-0.2-0.8h1.4l-0.2,0.8H103z M106.7,118.4H104v-0.9h0.9v-2.1
			h1.4c-0.1,0.1-0.7,0.5-0.7,1.4C105.5,117.6,106,118.3,106.7,118.4 M107.2,116.2c0.3,0,0.6,0.3,0.6,0.6s-0.2,0.6-0.6,0.6
			c-0.3,0-0.6-0.3-0.6-0.6S106.8,116.2,107.2,116.2 M110,116.6l-0.6,1.9h-1.4v-3h0.9v1.9h0l0.5-1.9h1.4v3H110L110,116.6L110,116.6z
			 M101.6,115.4l0.3,0.8h-0.9v0.3h1l0.2,0.8h-1.3v0.2h1.3l0.3,0.9h-2.6v-3H101.6z"/>
		<path class="st0" d="M102.5,114.7h0.2c0.1,0,0.2,0,0.1-0.2c0-0.2-0.1-0.2-0.2-0.2h-0.1l-0.1-0.4h-0.1L102.5,114.7z M102.5,114.4
			h0.1c0.1,0,0.1,0,0.2,0.2c0,0.1,0,0.2-0.1,0.2h-0.1L102.5,114.4z M102.9,114.1l0,0.1c0,0.1,0.1,0.2,0.2,0.2s0.2-0.2,0.2-0.2l0-0.1
			c0-0.1-0.1-0.2-0.3-0.2C102.9,113.9,102.8,114,102.9,114.1 M103.2,114c0,0,0,0.1,0.1,0.2c0,0.2,0,0.2-0.1,0.2
			c-0.1,0-0.1-0.1-0.2-0.2c0,0,0-0.1,0-0.2c0,0,0-0.1,0.1-0.1C103.1,113.9,103.2,114,103.2,114"/>
	</g>
	<g>
		<g>
			<path class="st0" d="M22.3,27.6h0.5l0.1,3.2h0l1.5-3.2h0.5l0.1,3.2h0l1.5-3.2H27l-1.8,3.7h-0.5l-0.1-3.2h0L23,31.3h-0.5
				L22.3,27.6z"/>
			<path class="st0" d="M27.4,29.6l-0.1,0.3C27.3,30.4,27.3,31,28,31c0.5,0,0.9-0.4,1-0.9h0.5c-0.2,0.9-0.8,1.2-1.5,1.2
				c-0.6,0-1.2-0.3-1-1.4l0.2-0.9c0.2-1.1,0.8-1.6,1.6-1.6c1.3,0,1.1,0.9,0.8,2L27.4,29.6z M29.2,29.2c0.2-0.8,0.1-1.3-0.6-1.3
				c-0.7,0-0.9,0.5-1.1,1.3H29.2z M31.1,28.1L31.1,28.1c0.3-0.4,0.7-0.6,1.2-0.6L32.2,28c-0.6-0.1-1.1,0.3-1.2,0.9l-0.5,2.4H30
				l0.8-3.7h0.4L31.1,28.1z"/>
			<path class="st0" d="M32,31.3l0.8-3.7h0.4l-0.8,3.7H32z M33,26.6l0.1-0.6h0.5l-0.1,0.6H33z"/>
			<path class="st0" d="M33.9,31.3h-0.4l0.8-3.7h0.4l-0.1,0.5h0c0.3-0.3,0.6-0.5,1-0.5c0.9,0,0.9,0.7,0.8,1.2l-0.6,2.6h-0.4l0.5-2.6
				c0.1-0.4,0-0.8-0.5-0.8c-0.4,0-0.9,0.3-1,1.1L33.9,31.3z M39.5,27.6H40c-0.1,0.4-0.1,0.5-0.2,0.7l-0.7,3.1
				c-0.2,0.8-0.5,1.3-1.6,1.3c-0.9,0-1-0.7-0.9-1h0.4c-0.1,0.4,0.1,0.7,0.6,0.7c0.9,0,0.9-0.5,1.1-1.6h0c-0.3,0.3-0.6,0.4-1,0.4
				c-1.1,0-0.9-0.9-0.8-1.7c0.2-0.9,0.2-0.9,0.4-1.3c0.1-0.2,0.5-0.7,1.2-0.7c0.4,0,0.7,0.2,0.8,0.5l0,0L39.5,27.6z M37.5,29.4
				c-0.2,0.8-0.3,1.5,0.5,1.5c0.4,0,0.7-0.2,0.8-0.4c0.2-0.3,0.2-0.5,0.5-1.5c0.2-0.8-0.2-1.1-0.6-1.1
				C37.9,27.9,37.7,28.8,37.5,29.4 M41.7,31.3l1.1-5.3h1.5c0.8,0,1.2,0.3,1,1.3c-0.1,0.6-0.3,1.1-1,1.3l0,0c0.7,0.1,0.8,0.6,0.6,1.3
				c-0.2,1-0.8,1.5-1.7,1.5L41.7,31.3z M42.3,30.9H43c0.8,0,1.2-0.3,1.4-1c0.1-0.5,0.1-1.1-0.7-1.1h-1L42.3,30.9z M43.7,28.4
				c0.7,0,1-0.5,1.1-1.1c0.2-0.9-0.3-0.9-0.7-0.9h-0.9l-0.4,2L43.7,28.4L43.7,28.4z M48.4,27.6l-0.8,3.7h-0.4l0.1-0.4h0
				c-0.3,0.3-0.6,0.5-1,0.5c-0.8,0-0.9-0.6-0.7-1.2l0.6-2.6h0.4L46,30.2c0,0.1-0.2,0.9,0.4,0.9c0.6,0,0.9-0.6,1-0.8l0.6-2.6
				L48.4,27.6L48.4,27.6z M49.5,31.4c-0.8,0-1-0.4-0.9-1.2h0.4c-0.1,0.5-0.1,0.8,0.5,0.8c0.4,0,0.7-0.2,0.8-0.7
				c0.2-1-1.5-0.7-1.3-1.9c0.1-0.7,0.7-0.9,1.3-0.9c0.7,0,0.9,0.5,0.7,1.1h-0.4c0.1-0.5,0-0.7-0.5-0.7c-0.3,0-0.6,0.2-0.7,0.5
				c-0.2,0.9,1.5,0.7,1.3,1.9C50.7,31,50.2,31.4,49.5,31.4"/>
			<path class="st0" d="M51.4,31.3l0.8-3.7h0.4l-0.8,3.7H51.4z M52.4,26.6l0.1-0.6H53l-0.1,0.6H52.4z"/>
			<path class="st0" d="M53.3,31.3h-0.4l0.8-3.7h0.4L54,28.1h0c0.3-0.3,0.6-0.5,1-0.5c0.9,0,0.9,0.7,0.8,1.2l-0.6,2.6h-0.4l0.5-2.6
				c0.1-0.4,0-0.8-0.5-0.8c-0.4,0-0.9,0.3-1,1.1L53.3,31.3z M56.9,29.6l-0.1,0.3c-0.1,0.5-0.1,1.2,0.6,1.2c0.5,0,0.9-0.4,1-0.9h0.5
				c-0.2,0.9-0.8,1.2-1.5,1.2c-0.6,0-1.2-0.3-1-1.4l0.2-0.9c0.2-1.1,0.8-1.6,1.6-1.6c1.3,0,1.1,0.9,0.8,2L56.9,29.6z M58.7,29.2
				c0.2-0.8,0.1-1.3-0.6-1.3c-0.7,0-0.9,0.5-1.1,1.3H58.7z M60.4,31.4c-0.8,0-1-0.4-0.9-1.2H60c-0.1,0.5-0.1,0.8,0.5,0.8
				c0.4,0,0.7-0.2,0.8-0.7c0.2-1-1.5-0.7-1.3-1.9c0.1-0.7,0.7-0.9,1.3-0.9c0.7,0,0.9,0.5,0.7,1.1h-0.4c0.1-0.5,0-0.7-0.5-0.7
				c-0.3,0-0.6,0.2-0.7,0.5c-0.2,0.9,1.5,0.7,1.3,1.9C61.6,31,61.1,31.4,60.4,31.4 M63.2,31.4c-0.8,0-1-0.4-0.9-1.2h0.4
				c-0.1,0.5-0.1,0.8,0.5,0.8c0.4,0,0.7-0.2,0.8-0.7c0.2-1-1.5-0.7-1.3-1.9c0.1-0.7,0.7-0.9,1.3-0.9c0.7,0,0.9,0.5,0.7,1.1h-0.4
				c0.1-0.5,0-0.7-0.5-0.7c-0.3,0-0.6,0.2-0.7,0.5c-0.2,0.9,1.5,0.7,1.3,1.9C64.4,31,63.9,31.4,63.2,31.4"/>
			<path class="st0" d="M69.7,26h0.6l0.1,4.6h0l2.1-4.6H73l-2.4,5.3h-0.6l-0.1-4.7h0l-2.1,4.7h-0.6L67,26h0.5l0.1,4.7h0L69.7,26z"/>
			<path class="st0" d="M72.4,29.9l0.2-0.9c0.1-0.5,0.3-1.4,1.6-1.4c1.3,0,1.1,1,1,1.4L75,29.9c-0.2,1-0.7,1.5-1.6,1.5
				C72.4,31.4,72.2,30.8,72.4,29.9 M74.3,30.6c0.1-0.2,0.3-0.9,0.3-1.1c0.2-1.1,0.2-1.6-0.5-1.6c-0.7,0-0.9,0.5-1.2,1.6
				c-0.1,0.2-0.2,0.9-0.1,1.1c0,0.1,0,0.5,0.6,0.5C74.1,31,74.2,30.6,74.3,30.6 M76.7,28.1L76.7,28.1c0.3-0.4,0.7-0.6,1.2-0.6
				L77.8,28c-0.6-0.1-1.1,0.3-1.2,0.9L76,31.3h-0.4l0.8-3.7h0.4L76.7,28.1z"/>
			<path class="st0" d="M77.6,31.3l1.1-5.3h0.4L78,31.3H77.6z"/>
		</g>
		<path class="st0" d="M81.1,30.9L81.1,30.9c-0.3,0.4-0.6,0.5-1.1,0.5c-1.1,0-0.9-1.1-0.7-1.9c0.2-0.7,0.4-1.9,1.5-1.9
			c0.3,0,0.6,0.2,0.8,0.4l0,0l0.4-2h0.4l-1,4.6c-0.1,0.4-0.1,0.6-0.1,0.7H81L81.1,30.9z M81.3,29.8l0.1-0.7c0-0.2,0.3-1.2-0.6-1.2
			c-0.8,0-0.9,0.7-1.1,1.6c-0.3,1.4,0,1.6,0.5,1.6C80.7,31,81.1,30.7,81.3,29.8"/>
		<path class="st0" d="M82.7,27.6h0.5l0.1,3.2h0l1.5-3.2h0.5l0.1,3.2h0l1.5-3.2h0.4l-1.8,3.7h-0.5L85,28.2h0l-1.5,3.2H83L82.7,27.6z
			 M87.2,31.3l0.8-3.7h0.4l-0.8,3.7H87.2z M88.2,26.6l0.1-0.6h0.5l-0.1,0.6H88.2z M90.7,30.9L90.7,30.9c-0.3,0.4-0.6,0.5-1.1,0.5
			c-1.1,0-0.9-1.1-0.7-1.9c0.2-0.7,0.4-1.9,1.5-1.9c0.3,0,0.6,0.2,0.8,0.4l0,0l0.4-2h0.4l-1,4.6c-0.1,0.4-0.1,0.6-0.1,0.7h-0.4
			L90.7,30.9z M90.9,29.8l0.1-0.7c0-0.2,0.3-1.2-0.6-1.2c-0.8,0-0.9,0.7-1.1,1.6c-0.3,1.4,0,1.6,0.5,1.6
			C90.3,31,90.8,30.7,90.9,29.8 M92.7,29.6l-0.1,0.3c-0.1,0.5-0.1,1.2,0.6,1.2c0.5,0,0.9-0.4,1-0.9h0.5c-0.2,0.9-0.8,1.2-1.5,1.2
			c-0.6,0-1.2-0.3-1-1.4l0.2-0.9c0.2-1.1,0.8-1.6,1.6-1.6c1.3,0,1.1,0.9,0.8,2L92.7,29.6L92.7,29.6z M94.5,29.2
			c0.2-0.8,0.1-1.3-0.6-1.3c-0.7,0-0.9,0.5-1.1,1.3H94.5z"/>
	</g>
</g>
</svg>
