<?xml version="1.0" encoding="utf-8"?>
<!-- Generator: Adobe Illustrator 26.0.1, SVG Export Plug-In . SVG Version: 6.00 Build 0)  -->
<svg version="1.1" id="Layer_1" xmlns="http://www.w3.org/2000/svg" xmlns:xlink="http://www.w3.org/1999/xlink" x="0px" y="0px"
	 viewBox="0 0 95 35" style="enable-background:new 0 0 95 35;" xml:space="preserve">
<style type="text/css">
	.st0{fill:#343741;}
</style>
<g>
	<path class="st0" d="M10.8,12.8c-0.3-0.1-0.6-0.1-0.9-0.1l0.2,2.3H9.5c0,0,0-0.2,0-0.4c-0.2-1-0.7-1.5-1.7-1.5H7.4
		c-0.1,0.3-0.1,0.6-0.1,0.9c0,0.7,0.3,1.5,0.7,2l0-0.1c0-0.1,0-0.2,0-0.3v-0.1h0.5v1.1c0.5,0.4,1.2,0.7,1.9,0.7L10.8,12.8z"/>
	<path class="st0" d="M10,22.4h-5c1.1,1.3,2.7,2.1,4.5,2.1c0.1,0,0.2,0,0.3,0L10,22.4z"/>
	<path class="st0" d="M14,13.9c0-0.4-0.1-0.9-0.3-1.3H11v0c1.2,0.3,2.2,0.9,3,1.8C14,14.3,14,14.1,14,13.9z"/>
	<path class="st0" d="M5.8,13.7C6.2,13.4,6.6,13.2,7,13H5.8V13.7z"/>
	<path class="st0" d="M11.2,10.6L11,12.5h2.7C13.2,11.5,12.3,10.8,11.2,10.6z"/>
	<path class="st0" d="M13.9,14.6c-0.8-0.9-1.8-1.5-3-1.8l-0.4,4.4c0,0,0.1,0,0.1,0C12.3,17.3,13.6,16.2,13.9,14.6z"/>
	<path class="st0" d="M10.4,17.4c-0.7,0-1.3-0.3-1.9-0.7v2.4H8V19c0-1-0.2-1.4-1.4-1.4H5.8v4.3h2c1.1,0,1.8-0.8,2-2.2
		c0-0.3,0-0.4,0-0.4h0.4L10.4,17.4z"/>
	<path class="st0" d="M5.8,13.9V17h0.8c0.7,0,1.1-0.3,1.3-0.9c-0.5-0.6-0.8-1.4-0.8-2.2c0-0.3,0-0.6,0.1-0.9
		C6.7,13.2,6.3,13.5,5.8,13.9z"/>
	<path class="st0" d="M14,22.4h-3.9l-0.2,2.1C11.6,24.3,13,23.5,14,22.4z"/>
	<polygon class="st0" points="3.5,10.5 3.5,12.5 5.7,12.5 5.7,10.5 5.7,10.5 3.5,10.5 	"/>
	<path class="st0" d="M7.6,12.5h2.3h1l0.2-1.9c-0.1,0-0.2,0-0.3,0C9.3,10.5,8.2,11.4,7.6,12.5z"/>
	<path class="st0" d="M7.4,12.5c0.5-1,1.4-1.8,2.6-2H5.8v0v2H7.4z"/>
	<path class="st0" d="M14.1,14.8C14.1,14.8,14.1,14.8,14.1,14.8c-0.4,1.5-1.8,2.6-3.4,2.6c0,0-0.1,0-0.1,0l-0.2,1.9h3.7h0L14.1,14.8
		C14.1,14.9,14.1,14.8,14.1,14.8L14.1,14.8z"/>
	<polygon class="st0" points="10.4,19.4 10.1,22.2 14.1,22.2 14.1,22.2 14.1,19.4 14.1,19.4 	"/>
	<path class="st0" d="M10.2,24.5L10.2,24.5l3.9,0v-2.1h0C13.1,23.6,11.8,24.4,10.2,24.5z"/>
	<path class="st0" d="M11.3,10.5c1.2,0.2,2.1,1,2.6,2h0.3v-2H11.3z"/>
	<path class="st0" d="M14.1,12.6h-0.1c0.1,0.2,0.1,0.4,0.2,0.7L14.1,12.6L14.1,12.6L14.1,12.6z"/>
	<path class="st0" d="M4.8,22.3H3.5v2.2v0v0h5.1v0C7.1,24.3,5.7,23.5,4.8,22.3z"/>
	<path class="st0" d="M4.4,15.6c-0.5,0.9-0.8,1.9-0.8,3c0,1.1,0.3,2.1,0.8,3V15.6z"/>
	<path class="st0" d="M4.3,21.8c-0.4-0.6-0.6-1.2-0.8-1.9v2L4.3,21.8L4.3,21.8z"/>
	<path class="st0" d="M4.3,13H3.5v4.2c0.2-0.7,0.4-1.3,0.8-1.9V13z"/>
	<polygon class="st0" points="3.4,12.6 0,12.6 0,12.6 0,12.6 0,22.2 3.4,22.2 	"/>
	<polygon class="st0" points="3.4,10.5 3.4,10.5 0,10.5 0,12.5 3.4,12.5 	"/>
	<polygon class="st0" points="3.4,22.3 0,22.3 0,22.4 0,22.4 0,24.6 3.4,24.6 3.4,24.5 3.4,24.5 	"/>
</g>
<path class="st0" d="M32.6,16.9c0.3,0,0.3,0.1,0.3,0.3c0,0.1,0,0.2-0.1,0.5l-0.7,2.1l-1-2.8h0.6v-0.2h-2v0.2h0.5l0.4,1.1L30,19.7
	l-1-2.8h0.4v-0.2h-1.8v0.2h0.5l1.5,4.2h0.1l1-2.8l1,2.8h0.1c0,0,1.1-3.1,1.2-3.5c0.2-0.6,0.3-0.7,0.7-0.7v-0.2h-1.3v0.2H32.6z
	 M41.1,17.2c0,0.3-0.2,0.5-0.4,0.5s-0.4-0.2-0.4-0.4c0-0.3,0.1-0.4,0.3-0.4c0,0,0,0-0.1,0c-0.4,0-1,1-1,2v1.9H40v0.2h-2v-0.2h0.6
	v-3.8h-0.6v-0.2h0.5c0.4,0,0.7-0.1,0.8-0.1v1.1h0c0.3-0.6,0.6-1.1,1.1-1.1C40.8,16.6,41.1,16.8,41.1,17.2 M46.3,21h0.2
	c0-0.2,0-0.3,0.2-0.3c0.1,0,0.4,0.4,1,0.4c0.7,0,1.2-0.6,1.2-1.5c0-0.7-0.4-1.2-1-1.3c-0.5-0.1-0.9,0-1.1-0.3
	c-0.1-0.1-0.1-0.3-0.1-0.5c0-0.4,0.3-0.7,0.8-0.7c0.6,0,0.9,0.3,1,1h0.2v-1.3h-0.2c0,0,0,0.1,0,0.1c0,0.1,0,0.2-0.1,0.2
	s-0.3-0.3-0.9-0.3c-0.6,0-1.1,0.6-1.1,1.3s0.5,1.2,1.3,1.2c0.6,0,1,0.3,1,0.8c0,0.6-0.3,1-0.9,1c-0.5,0-1.1-0.5-1.2-1.4h-0.2V21z
	 M19.2,14.1h1.5c0.7,0,1.2,0.3,1.3,1.2c0,0.2,0,0.2,0,0.2h0.2l-0.1-1.6h-4.6v0.2h0.7v6.6h-0.7v0.2h4.7l0.2-2.1h-0.2c0,0,0,0,0,0.2
	c-0.1,1-0.7,1.6-1.6,1.6h-1.5v-3.3h0.6c0.9,0,1.1,0.4,1.1,1.1h0.2V16H21c0,0.6-0.2,1.2-1.1,1.2h-0.7L19.2,14.1L19.2,14.1z
	 M37.8,20.5C37.5,20.9,37.3,21,37,21c-0.4,0-0.6-0.3-0.7-0.7c-0.2,0.4-0.6,0.7-1.2,0.7c-0.6,0-1.2-0.4-1.2-1.1
	c0-0.9,0.7-1.4,2.2-1.4h0.1v-1c0-0.5-0.2-0.8-0.7-0.8c-0.4,0-0.8,0.2-0.8,0.4c0,0.3,0.2,0.2,0.2,0.6c0,0.3-0.2,0.4-0.4,0.4
	s-0.4-0.2-0.4-0.5c0-0.6,0.5-1.1,1.3-1.1c0.8,0,1.4,0.4,1.4,1.4v2.2c0,0.3,0,0.6,0.2,0.6c0.1,0,0.3-0.2,0.4-0.3L37.8,20.5z
	 M36.2,18.8c0,0-0.2,0-0.3,0c-0.9,0-1.2,0.3-1.2,1.1c0,0.6,0.2,0.9,0.6,0.9s0.7-0.4,0.9-0.9V18.8z M25.4,13.9v0.2h0.7v3.4h0
	c-0.3-0.6-0.7-0.9-1.2-0.9c-0.9,0-1.7,0.9-1.7,2.2c0,1.4,0.8,2.3,1.8,2.3c0.5,0,0.8-0.3,1.1-0.8h0v0.7h1.4v-0.2h-0.6v-7
	c-0.2,0.1-0.5,0.1-0.8,0.1L25.4,13.9L25.4,13.9z M24.1,18.2c0-0.9,0.3-1.4,0.9-1.4c0.6,0,1,0.6,1.2,1.4v1.4
	c-0.2,0.7-0.5,1.3-1.1,1.3c-0.6,0-0.9-0.5-0.9-1.4V18.2z M43.7,13.9v0.2h0.7v3.4h0c-0.3-0.6-0.7-0.9-1.2-0.9c-0.9,0-1.7,0.9-1.7,2.2
	c0,1.4,0.8,2.3,1.8,2.3c0.5,0,0.8-0.3,1.1-0.8h0v0.7h1.4v-0.2h-0.6v-7c-0.2,0.1-0.5,0.1-0.8,0.1L43.7,13.9L43.7,13.9z M42.4,18.2
	c0-0.9,0.3-1.4,0.9-1.4c0.6,0,1,0.6,1.2,1.4v1.4c-0.2,0.7-0.5,1.3-1.1,1.3c-0.6,0-0.9-0.5-0.9-1.4L42.4,18.2L42.4,18.2z M66.1,19.5
	h0.2c0.1,0.9,0.7,1.4,1.2,1.4c0.6,0,0.9-0.3,0.9-1c0-0.5-0.4-0.8-1-0.8c-0.8,0-1.3-0.5-1.3-1.2c0-0.7,0.5-1.3,1.1-1.3
	c0.6,0,0.8,0.3,0.9,0.3c0.1,0,0.1-0.1,0.1-0.2c0,0,0-0.1,0-0.1h0.2v1.3h-0.2c-0.1-0.7-0.5-1-1-1c-0.5,0-0.8,0.4-0.8,0.7
	c0,0.2,0,0.3,0.1,0.5c0.2,0.3,0.6,0.2,1.1,0.3c0.7,0.1,1,0.6,1,1.3c0,0.9-0.5,1.5-1.2,1.5c-0.7,0-0.9-0.4-1-0.4
	c-0.1,0-0.2,0.1-0.2,0.3h-0.2V19.5z M92.4,19.5h0.2c0.1,0.9,0.7,1.4,1.2,1.4c0.6,0,0.9-0.3,0.9-1c0-0.5-0.4-0.8-1-0.8
	c-0.8,0-1.3-0.5-1.3-1.2c0-0.7,0.5-1.3,1.1-1.3c0.6,0,0.8,0.3,0.9,0.3c0.1,0,0.1-0.1,0.1-0.2c0,0,0-0.1,0-0.1h0.2v1.3h-0.2
	c-0.1-0.7-0.5-1-1-1c-0.5,0-0.8,0.4-0.8,0.7c0,0.2,0,0.3,0.1,0.5c0.2,0.3,0.6,0.2,1.1,0.3c0.7,0.1,1,0.6,1,1.3
	c0,0.9-0.5,1.5-1.2,1.5c-0.7,0-0.9-0.4-1-0.4c-0.1,0-0.2,0.1-0.2,0.3h-0.2L92.4,19.5L92.4,19.5z M52.7,20.7h1.6
	c0.9,0,1.4-0.6,1.6-1.6c0-0.2,0-0.2,0-0.2H56l-0.2,2.1H51v-0.2h0.7v-6.6H51v-0.2h2.4v0.2h-0.7V20.7z M57.9,20.7h0.6v0.2h-2v-0.2h0.6
	v-3.8h-0.6v-0.2h0.5c0.4,0,0.7-0.1,0.8-0.1L57.9,20.7L57.9,20.7z M57.5,13.7c-0.3,0-0.5,0.2-0.5,0.5c0,0.3,0.2,0.5,0.5,0.5
	c0.3,0,0.5-0.2,0.5-0.5C58,14,57.8,13.7,57.5,13.7 M74.7,20.7h0.6v0.2h-2v-0.2h0.6v-3.8h-0.6v-0.2h0.5c0.4,0,0.7-0.1,0.8-0.1
	L74.7,20.7L74.7,20.7z M74.3,13.7c-0.3,0-0.5,0.2-0.5,0.5c0,0.3,0.2,0.5,0.5,0.5c0.3,0,0.5-0.2,0.5-0.5C74.8,14,74.5,13.7,74.3,13.7
	 M60.7,14.1c-0.1,0.1-0.2,0.3-0.2,0.9v1.7h0.9v0.2h-0.9v3.8h0.8v0.2H59v-0.2h0.8v-3.8H59v-0.2h0.8v-1c0-1.5,0.7-2,1.2-2
	c0.6,0,0.9,0.4,0.9,1c0,0.3-0.2,0.5-0.4,0.5c-0.2,0-0.4-0.2-0.4-0.4c0-0.2,0.1-0.3,0.2-0.4c0.1-0.1,0.1-0.2,0.1-0.3
	c0-0.1-0.2-0.2-0.4-0.2C60.9,14,60.8,14,60.7,14.1 M83.4,18.2v2.5H84v0.2h-2v-0.2h0.6v-2.8c0-0.3,0-0.6-0.1-0.8
	c-0.1-0.2-0.2-0.3-0.4-0.3c-0.3,0-0.5,0.1-0.7,0.3c-0.3,0.3-0.4,0.7-0.4,1.7v1.8h0.6v0.2h-2v-0.2h0.6v-3.8h-0.6v-0.2h0.5
	c0.4,0,0.7-0.1,0.8-0.1v0.7h0c0.1-0.2,0.2-0.3,0.4-0.5s0.4-0.3,0.8-0.3c0.4,0,0.7,0.1,0.9,0.4C83.3,17.2,83.4,17.6,83.4,18.2
	 M71.2,21.1c1.1,0,1.5-1.2,1.6-1.6h-0.2c-0.1,0.5-0.5,1.4-1.3,1.4c-0.3,0-0.6-0.2-0.8-0.6c-0.1-0.3-0.2-0.8-0.2-1.1
	c0-0.4,0-1.3,0.2-1.7c0.2-0.4,0.5-0.6,0.9-0.6c0.3,0,0.5,0.1,0.7,0.2c0.2,0.1,0.1,0.3,0,0.3c-0.1,0.1-0.2,0.2-0.2,0.4
	c0,0.3,0.2,0.5,0.4,0.5c0.2,0,0.4-0.2,0.4-0.5c0-0.6-0.5-1.2-1.4-1.2c-1,0-1.9,1.1-1.9,2.3C69.4,20.1,70.2,21.1,71.2,21.1
	 M86.1,21.1c1.1,0,1.5-1.2,1.6-1.6h-0.2c-0.1,0.5-0.5,1.4-1.3,1.4c-0.3,0-0.6-0.2-0.8-0.6c-0.1-0.3-0.2-0.8-0.2-1.1
	c0-0.4,0-1.3,0.2-1.7c0.2-0.4,0.5-0.6,0.9-0.6c0.3,0,0.5,0.1,0.7,0.2c0.2,0.1,0.1,0.3,0,0.3c-0.1,0.1-0.2,0.2-0.2,0.4
	c0,0.3,0.2,0.5,0.4,0.5c0.2,0,0.4-0.2,0.4-0.5c0-0.6-0.5-1.2-1.4-1.2c-1,0-1.9,1.1-1.9,2.3C84.3,20.1,85.1,21.1,86.1,21.1
	 M63.7,21.1c1.1,0,1.5-1.2,1.6-1.6H65c-0.1,0.5-0.5,1.4-1.3,1.4c-0.5,0-0.9-0.3-0.9-1.7v-0.7h2.5c0-1.1-0.7-1.9-1.6-1.9
	c-1,0-1.8,1-1.8,2.3C61.9,20.3,62.7,21.1,63.7,21.1 M62.7,18.2v-0.4c0-0.7,0.3-1.1,0.9-1.1c0.6,0,0.7,0.3,0.7,1.1v0.4H62.7z
	 M90.1,21.1c1.1,0,1.5-1.2,1.6-1.6h-0.2c-0.1,0.5-0.5,1.4-1.3,1.4c-0.5,0-0.9-0.3-0.9-1.7v-0.7h2.5c0-1.1-0.7-1.9-1.6-1.9
	c-1,0-1.8,1-1.8,2.3C88.3,20.3,89.1,21.1,90.1,21.1 M89.1,18.2v-0.4c0-0.7,0.3-1.1,0.9-1.1c0.6,0,0.7,0.3,0.7,1.1v0.4H89.1z
	 M77.5,21.1c1.1,0,1.5-1.2,1.6-1.6h-0.2c-0.1,0.5-0.5,1.4-1.3,1.4c-0.5,0-0.9-0.3-0.9-1.7v-0.7h2.5c0-1.1-0.7-1.9-1.6-1.9
	s-1.8,1-1.8,2.3C75.7,20.3,76.6,21.1,77.5,21.1 M76.6,18.2v-0.4c0-0.7,0.3-1.1,0.9-1.1c0.6,0,0.7,0.3,0.7,1.1v0.4H76.6z"/>
</svg>
