<?xml version="1.0" encoding="utf-8"?>
<!-- Generator: Adobe Illustrator 26.0.1, SVG Export Plug-In . SVG Version: 6.00 Build 0)  -->
<svg version="1.1" id="Layer_1" xmlns="http://www.w3.org/2000/svg" xmlns:xlink="http://www.w3.org/1999/xlink" x="0px" y="0px"
	 viewBox="0 0 95 35" style="enable-background:new 0 0 95 35;" xml:space="preserve">
<style type="text/css">
	.st0{fill:#FFFFFF;}
</style>
<g id="XMLID_1_">
	<path id="XMLID_22_" class="st0" d="M32.5,7.2L32.5,7.2c-0.6,1.2-1.3,2.4-2,3.5c-0.1,0.2-0.3,0.4-0.5,0.5c-1.6,0.8-3.3,1-5.1,1
		c-4.4,0.1-8.7-0.7-13.1-0.7c-0.8,0-1.6,0.1-2.4,0.1c1.5-1.5,3.5-2.5,5.5-3.1c1.3-0.4,2.7-0.6,4.1-0.5c2.8,0.1,5.6,0.4,8.4,0.3
		C29.1,8.3,31,8.2,32.5,7.2L32.5,7.2z"/>
	<path id="XMLID_21_" class="st0" d="M26.7,13.5c0.6-0.1,1.3-0.3,1.9-0.5c-0.1,0.1-0.1,0.2-0.2,0.3c-1,1.2-2.1,2.5-3.2,3.6
		c-0.4,0.2-0.8,0.1-1.2,0.2c-1.5,0.1-3.1,0.2-4.6,0.1c-2.9-0.1-5.8-0.5-8.7-0.5c-0.8-0.1-1.6-0.1-2.4,0c-1.5,0-3,0.3-4.4,0.7
		c1.1-1.4,2.3-2.7,3.5-4c0.5-0.1,1-0.1,1.4-0.2c3.6-0.2,7.3,0.2,10.9,0.4c0.4,0,0.9,0,1.3,0.1C22.9,13.8,24.8,13.8,26.7,13.5
		L26.7,13.5z"/>
	<path id="XMLID_20_" class="st0" d="M36.5,13.1c3,0,6.1,0,9.1,0c0,0.6,0,1.3,0,2c-2.3,0-4.6,0-6.9,0c0,1.4,0,2.8,0,4.1
		c2,0,4,0,5.9,0c0,0.6,0,1.3,0,1.9c-2,0-3.9,0-5.9,0c-0.1,1.4,0,2.8,0,4.3c2.3,0,4.6,0,6.9,0c0.1,0.6,0.1,1.3,0,2c-3,0-6.1,0-9.1,0
		c0-3.1,0-6.3,0-9.4C36.6,16.3,36.5,14.7,36.5,13.1L36.5,13.1z"/>
	<path id="XMLID_19_" class="st0" d="M66.9,13.1c0.7,0,1.4,0,2.1,0c0,3.8,0,7.5,0,11.3c0,0.4,0.1,1,0.5,1.1c0.5,0.2,1,0.1,1.5,0.1
		c0,0.6,0,1.2,0,1.8c-0.9,0-2,0.1-2.8-0.4c-0.9-0.5-1.2-1.5-1.2-2.5C66.9,20.7,66.9,16.9,66.9,13.1L66.9,13.1z"/>
	<path id="XMLID_18_" class="st0" d="M84.1,18.2c1.2-1.2,3.2-1.4,4.6-0.6c0.8,0.4,1.3,1.2,1.5,2.1c0.1,0.6,0.1,1.1,0.1,1.7
		c0,2,0,4,0,6c-0.7,0-1.4,0-2,0c0-2.1,0-4.2,0-6.3c0-0.7-0.2-1.4-0.8-1.8c-0.7-0.5-1.8-0.5-2.5,0c-0.6,0.4-0.8,1.1-0.8,1.8
		c0,2.1,0,4.2,0,6.3c-0.7,0-1.4,0-2,0c0-3.4,0-6.8,0-10.2c0.7,0,1.3,0,2,0C84.1,17.5,84.1,17.8,84.1,18.2L84.1,18.2z"/>
	<path id="XMLID_17_" class="st0" d="M47.1,17.2c0.8,0,1.7-0.1,2.5,0c0.3,0.7,0.8,1.3,1.2,2c0.3,0.4,0.5,0.8,0.8,1.2
		c0.1-0.1,0.2-0.2,0.2-0.3c0.6-1,1.2-2,1.7-2.9c0.8,0,1.6,0,2.5,0c-1.1,1.7-2.2,3.3-3.3,5c1.2,1.7,2.3,3.5,3.5,5.2
		c-0.8,0-1.6,0-2.5,0c-0.7-1.2-1.4-2.3-2.1-3.4c-0.7,1.1-1.4,2.3-2.2,3.4c-0.8,0-1.6,0-2.4,0c1.1-1.7,2.3-3.4,3.4-5.1
		c0.1-0.1,0-0.3-0.1-0.4C49.2,20.4,48.1,18.8,47.1,17.2L47.1,17.2z"/>
	<path id="XMLID_16_" class="st0" d="M3.1,19.3c2-0.8,4.3-0.8,6.4-0.8c1.9,0.1,3.8,0.2,5.7,0.4c2.6,0.2,5.2,0.3,7.9,0.2
		c-2,1.8-4.6,3-7.3,3.4c-0.7,0.1-1.4,0.2-2.2,0.1c-1.4-0.1-2.9-0.1-4.3-0.2c-1.6-0.1-3.3-0.2-4.9-0.1c-1,0.1-2.1,0.2-3,0.5
		C0.9,23,0.4,23.2,0,23.4v0c0.6-1.2,1.4-2.4,2.2-3.6C2.4,19.5,2.7,19.4,3.1,19.3L3.1,19.3z"/>
	<path id="XMLID_2_" class="st0" d="M58,18.1c0.9-0.9,2.3-1.2,3.5-1c1.3,0.1,2.5,1,3,2.1c0.5,1,0.6,2.1,0.6,3.2c0,0.1,0,0.3-0.1,0.4
		c-2.2,0-4.4,0-6.5,0c0,0.9,0.3,1.8,1,2.4c0.7,0.5,1.5,0.5,2.3,0.4c0.7-0.1,1.3-0.5,1.7-1c0.5,0.4,0.9,0.8,1.3,1.2
		c-0.4,0.4-0.7,0.7-1.2,0.9c-0.5,0.3-1.2,0.5-1.8,0.6c-0.5-0.1-1.1-0.1-1.6,0c-1-0.2-1.9-0.5-2.6-1.3c-1-1.1-1.2-2.6-1.2-4
		C56.5,20.7,56.8,19.2,58,18.1L58,18.1z M59.2,19.4c-0.5,0.5-0.7,1.3-0.7,2c1.5,0,3,0,4.6,0C63,21,63,20.5,62.8,20.1
		c-0.2-0.6-0.7-1.1-1.3-1.2C60.7,18.7,59.8,18.8,59.2,19.4L59.2,19.4z"/>
	<path id="XMLID_3_" class="st0" d="M75.7,17.1c1.3-0.1,2.6,0.3,3.5,1.2c0.6,0.6,0.9,1.5,1.1,2.4c0.1,1.1,0.1,2.3-0.1,3.4
		c-0.2,1-0.6,1.9-1.4,2.5c-0.6,0.5-1.3,0.7-2,0.8c-0.6-0.1-1.1,0-1.7-0.1c-1.2-0.2-2.2-1-2.7-2.1c-0.3-0.7-0.5-1.4-0.5-2.2
		c-0.1-0.9-0.1-1.8,0.1-2.7c0.2-1,0.7-1.9,1.5-2.5C74.1,17.4,74.9,17.2,75.7,17.1L75.7,17.1z M75.7,19c-0.7,0.1-1.3,0.7-1.5,1.4
		c-0.2,0.9-0.2,1.8-0.2,2.8c0.1,0.7,0.2,1.5,0.8,2c0.9,0.8,2.4,0.6,3.1-0.4c0.5-0.8,0.5-1.7,0.5-2.6c0-0.8-0.1-1.6-0.5-2.3
		C77.4,19.1,76.5,18.8,75.7,19L75.7,19z"/>
	<path id="XMLID_11_" class="st0" d="M27.7,11.9c-0.9,0.2-1.9,0.3-2.9,0.3c-4.4,0.1-8.7-0.7-13.1-0.7c-0.8,0-1.6,0.1-2.4,0.1
		c0.2-0.2,0.4-0.3,0.6-0.5c1.7-0.7,4.6-1.5,7.3-1.3C21.4,10.3,23.9,11.6,27.7,11.9z"/>
	<path id="XMLID_10_" class="st0" d="M23.1,19.1c-0.2,0.2-0.4,0.3-0.6,0.5c-4.8,1.9-9.4,1.2-11.8,0.4C9,19.5,6.5,19,5.1,18.7
		c1.4-0.3,3-0.2,4.4-0.2c1.9,0.1,3.8,0.2,5.7,0.4C17.8,19.1,20.4,19.2,23.1,19.1z"/>
	<g id="XMLID_4_">
		<path id="XMLID_7_" class="st0" d="M93.6,27.8c-0.8,0-1.4-0.6-1.4-1.4c0-0.8,0.6-1.4,1.4-1.4c0.8,0,1.4,0.6,1.4,1.4
			C95,27.2,94.4,27.8,93.6,27.8z M93.6,25.2c-0.6,0-1.2,0.5-1.2,1.2s0.5,1.2,1.2,1.2c0.6,0,1.2-0.5,1.2-1.2
			C94.7,25.8,94.2,25.2,93.6,25.2z"/>
		<g id="XMLID_5_">
			<path id="XMLID_6_" class="st0" d="M93.1,25.4h0.4c0.1,0,0.2,0,0.2,0c0.1,0,0.2,0,0.2,0.1c0.1,0,0.1,0.1,0.2,0.1
				c0.1,0.1,0.1,0.2,0.1,0.3c0,0.1,0,0.2-0.1,0.3c-0.1,0.1-0.2,0.1-0.3,0.2l0.5,0.8H94l-0.5-0.7h-0.3v0.7h-0.2L93.1,25.4L93.1,25.4z
				 M93.3,26.2h0.2c0.1,0,0.1,0,0.2,0c0.1,0,0.1,0,0.2,0c0.1,0,0.1-0.1,0.1-0.1c0,0,0.1-0.1,0.1-0.2c0-0.1,0-0.1,0-0.2
				c0,0-0.1-0.1-0.1-0.1c-0.1,0-0.1,0-0.1-0.1c-0.1,0-0.1,0-0.2,0h-0.3L93.3,26.2L93.3,26.2z"/>
		</g>
	</g>
</g>
</svg>
