<?xml version="1.0" encoding="utf-8"?>
<!-- Generator: Adobe Illustrator 26.0.1, SVG Export Plug-In . SVG Version: 6.00 Build 0)  -->
<svg version="1.1" id="Layer_1" xmlns="http://www.w3.org/2000/svg" xmlns:xlink="http://www.w3.org/1999/xlink" x="0px" y="0px"
	 viewBox="0 0 95 35" style="enable-background:new 0 0 95 35;" xml:space="preserve">
<style type="text/css">
	.st0{fill:#CCCCCC;}
</style>
<path class="st0" d="M47.5,0C21.6,0,0.8,7.8,0.8,17.5C0.8,27.2,21.8,35,47.5,35c25.7,0,46.7-7.9,46.7-17.5C94.2,7.9,73.2,0,47.5,0z
	 M47.5,33.5c-24.7,0-44.7-7.2-44.7-16c0-8.8,20-16,44.7-16c24.7,0,44.7,7.1,44.7,16C92.2,26.3,72.2,33.5,47.5,33.5z"/>
<g>
	<path class="st0" d="M65.7,18.9c-0.8-0.4-2.1,0.3-3.2,1.7c-0.9,1.1-1.4,2.3-1.4,3.4c0,0.4,0.1,0.9,0.5,1.1c0.8,0.4,1.7-0.2,2.4-0.8
		c0.5-0.4,0.8-0.8,1.2-1.3c0.4-0.5,0.6-0.9,0.9-1.5c0-0.1,0-0.1,0-0.1c-0.1,0-0.2-0.1-0.2-0.2l0,0c0,0,0-0.1,0-0.2
		C66.3,20.3,66.5,19.3,65.7,18.9z"/>
	<path class="st0" d="M42.8,13.7c0,0.2,0.1,0.2,0.2,0.2c0.3-0.1,0.7-0.4,1-0.7c0.2-0.3,0.3-0.7,0.1-0.9c-0.2-0.2-0.5-0.1-0.7,0.1
		C42.8,12.8,42.7,13.3,42.8,13.7L42.8,13.7z"/>
	<path class="st0" d="M47.5,2.9C23.7,2.9,4.4,9.4,4.4,17.5c0,8.1,19.3,14.6,43.1,14.6c23.8,0,43.1-6.6,43.1-14.6
		C90.6,9.4,71.3,2.9,47.5,2.9z M25.3,27.1L25.3,27.1c-2.5,0-4.8-1.6-5.1-4.3c-0.1-1.5,0.3-2.9,1.1-4c0.8-1,2-1.8,3.1-2
		c0.4-0.1,0.8,0,1,0.2c0.3,0.4,0.2,0.8-0.1,0.9c-0.8,0.4-1.8,1.1-2.3,2.1c-0.4,0.8-0.5,1.8,0.1,2.7c1,1.5,3.9,1.6,6.5-0.9
		c0.7-0.6,1.2-1.2,1.8-1.9c1.2-1.3,1.6-1.8,3.1-4c0,0,0-0.1,0-0.1c0,0,0,0-0.1,0c-1,0-1.9,0.3-2.8,1c-0.3,0.2-0.6,0.2-0.8-0.1
		c-0.2-0.3-0.1-0.6,0.2-0.8c1.4-1,3-1.2,4.5-1.4c0,0,0.1,0,0.2-0.1c0.6-0.8,1.1-1.6,1.8-2.4c0.7-0.9,1.6-1.6,2.3-2.2
		c1-0.8,1.6-1.1,2.2-1.4c0.2-0.1,0-0.2-0.1-0.2C38.8,7.6,35.2,6.8,31.8,8c-2.4,0.9-3.4,2.8-2.9,4.1c0.4,0.9,1.5,1,2.7,0.5
		c0.9-0.5,1.8-1.2,2.4-2.1c0.3-0.5,1.1-0.1,0.7,0.8c-1,2.4-2.9,4.3-5.3,4.3c-2,0.1-3.3-1.4-3.3-3.2c0-3.6,4-6,8.2-6.3
		C39.2,5.6,44,7,49,7.6c3.8,0.5,7.5,0.5,11.4-0.4c0.5-0.1,0.8,0.2,0.7,0.7c0,0.7-0.6,1.3-1.8,2c-1.4,0.8-3,1-4.5,1
		c-3.8,0-7.4-1.5-11.1-2.3c0,0.2,0,0.4-0.1,0.5c-2,1.5-3.9,3-5.1,5.2c0,0,0,0.1,0.1,0.1c1.1-0.1,2-0.1,3-0.2c0.2,0,0.2-0.1,0.2-0.2
		c-0.1-0.7,0.1-1.6,0.8-2.2c0.7-0.6,1.5-0.7,2.1-0.2c0.6,0.5,0.6,1.4,0.2,2c-0.4,0.7-0.9,1-1.5,1.2c0,0-0.1,0-0.1,0.1
		c0,0.2,0.8,0.6,0.8,0.7c0.1,0.1,0,0.3-0.1,0.4c-0.1,0.1-0.2,0.2-0.4,0.2c-0.1,0-0.2,0-0.4-0.1c-0.3-0.2-0.8-0.5-1-0.8
		c-0.1-0.1-0.1-0.1-0.4-0.1c-1.1,0.1-2.8,0.2-3.9,0.4c-0.3,0-0.3,0.1-0.4,0.2c-1.8,3-3.8,6.3-5.9,8.4C29.3,26.5,27.4,27.1,25.3,27.1
		z M74.9,12.5L74.9,12.5c-0.4,0.6-7.2,11-7.6,12.1c-0.1,0.3-0.2,0.6,0,0.8c0.4,0.5,1.2,0.2,1.7-0.1c1.5-1,2.5-2.3,3.6-3.3
		c0.1,0,0.2-0.1,0.3,0c0.2,0.2,0.4,0.4,0.6,0.5c0.1,0.1,0.1,0.2,0,0.2c-1.1,1.4-2.3,2.6-3.5,3.5c-1.8,1.4-3.7,1.8-4.6,0.9
		c-0.3-0.3-0.5-0.8-0.5-1.2c0-0.2-0.1-0.2-0.2-0.1c-1.1,1.1-3,2.2-4.7,1.4c-1.4-0.7-1.8-2.4-1.5-3.8c0,0,0-0.2-0.2-0.1
		c-0.3,0.2-0.7,0.4-1.2,0.6c-0.6,0.2-0.9,0.3-1.4,0.3c-0.7,0-1.3-0.3-1.8-1c-0.2-0.4-0.3-0.9-0.4-1.3c0,0-0.1-0.1-0.1,0
		c-1.2,1.8-2.3,3.5-3.4,5.3c-0.1,0.1-0.1,0.1-0.2,0.1c-0.7,0-1.5,0-2.3,0c-0.1,0-0.2-0.1-0.1-0.2c0.4-0.8,2.6-4,4.1-6.8
		c0.4-0.8,0.3-1.1,0.1-1.3c-0.3-0.2-1,0.1-1.5,0.5c-1.5,1.1-2.7,2.9-3.3,3.6c-0.4,0.5-0.7,1.1-1.7,2.2c-1.5,1.7-3.5,2.6-5.5,1.9
		c-1.1-0.4-1.8-1.2-2.1-2.3c-0.1-0.2-0.2-0.3-0.3-0.1c-0.3,0.4-1,1-1.5,1.3c-0.1,0-0.2,0.1-0.3,0.1c-0.1-0.1-0.5-0.6-0.6-0.8
		c-0.1-0.1,0-0.2,0.1-0.3c0.8-0.7,1.2-1.1,1.5-1.5c0.2-0.3,0.4-0.7,0.7-1.2c0.5-1.2,1.5-3.4,3.6-4.5c0.8-0.4,1.6-0.7,2.5-0.8
		c0.4,0,0.7,0,0.8,0.3c0,0.1,0.2,0.4,0.2,0.6c0,0.1,0,0.2-0.1,0.3c-1.2,0.5-2.5,1.2-3.4,2.4c-1,1.3-1.2,2.9-0.6,3.8
		c0.5,0.7,1.3,0.8,2,0.5c1.1-0.4,2.1-1.4,2.6-2.6c0.5-1.3,0.6-2.8,0.2-4.1c-0.1-0.2,0-0.4,0.1-0.5c0.3-0.2,0.7-0.4,0.8-0.5
		c0.3-0.1,0.6,0,0.7,0.2c0.4,0.6,0.6,1.5,0.7,2.4c0,0.2,0.1,0.2,0.2,0.1c0.7-0.8,1.4-1.6,2.2-2.3c0.7-0.6,1.6-1,2.5-1
		c1.1,0,1.7,0.8,1.6,2.1c0,0.2,0.1,0.2,0.2,0c0.3-0.5,0.6-0.7,0.9-1c0.8-0.6,1.6-0.9,2.4-0.9c1,0.1,1.8,1,1.7,2
		c-0.1,0.7-0.5,1.3-1.1,1.6c-0.5,0.3-1.1,0.2-1.6-0.2c-0.4-0.3-0.5-0.8-0.4-1.3c0-0.1-0.1-0.2-0.2-0.1c-1,1-1.1,2.4-0.4,3
		c0.7,0.7,1.8,0.2,2.6-0.3c1.4-0.9,2.5-2.2,3.8-3.2c0.8-0.6,1.8-1.2,2.9-1.4c0.6-0.1,1.2,0,1.8,0.2c0.8,0.3,1.3,1,1.3,1.5
		c0,0.2,0.1,0.2,0.2,0c0.6-1,3.9-5.9,4.2-6.4c0.1-0.2,0.2-0.2,0.3-0.2c0.7,0,1.7,0,2.4,0C74.9,12.3,75,12.4,74.9,12.5z"/>
</g>
</svg>
