<?xml version="1.0" encoding="utf-8"?>
<!-- Generator: Adobe Illustrator 26.0.1, SVG Export Plug-In . SVG Version: 6.00 Build 0)  -->
<svg version="1.1" id="Layer_1" xmlns="http://www.w3.org/2000/svg" xmlns:xlink="http://www.w3.org/1999/xlink" x="0px" y="0px"
	 viewBox="0 0 95 35" style="enable-background:new 0 0 95 35;" xml:space="preserve">
<style type="text/css">
	.st0{fill:#CCCCCC;}
</style>
<g transform="matrix(1.08381 0 0 1.08381 63.25 37.4508)">
	<path class="st0" d="M23.1-17.3c0-0.2,0-0.4,0.1-0.6c0.1-0.2,0.2-0.4,0.4-0.5c0.2-0.2,0.3-0.3,0.6-0.4c0.2-0.1,0.5-0.2,0.8-0.2
		c0.3,0,0.6,0,0.8,0.2s0.4,0.2,0.6,0.4c0.2,0.2,0.2,0.3,0.3,0.5c0.1,0.2,0.1,0.4,0.1,0.6H23.1z M28-14.7c-0.2,0.2-0.5,0.3-1,0.5
		s-1,0.3-1.7,0.3s-1.3-0.2-1.7-0.5c-0.4-0.4-0.6-0.8-0.6-1.2h6.2V-16c0-0.7-0.1-1.4-0.3-2c-0.2-0.6-0.5-1.1-0.8-1.6
		c-0.4-0.4-0.8-0.8-1.4-1s-1.2-0.4-1.9-0.4c-0.7,0-1.3,0.1-1.9,0.4c-0.6,0.2-1,0.6-1.4,1c-0.4,0.4-0.7,0.9-0.9,1.5
		c-0.2,0.6-0.3,1.2-0.3,1.8c0,0.7,0.1,1.3,0.3,1.9c0.2,0.6,0.5,1.1,1,1.5c0.4,0.4,0.9,0.7,1.5,1c0.6,0.2,1.3,0.3,2,0.3
		c0.6,0,1.1,0,1.5-0.2c0.4-0.1,0.8-0.2,1.1-0.4c0.3-0.1,0.6-0.3,0.8-0.4c0.2-0.1,0.3-0.2,0.5-0.3L28-14.7z M-1.7-14.3
		C-1.9-14.2-2-14.1-2.2-14s-0.4,0.1-0.7,0.1c-0.4,0-0.6-0.1-0.8-0.3c-0.2-0.2-0.2-0.6-0.2-1v-3.4h2.2v-2.1H-4v-2.3h-2.7v2.3h-1.4
		v2.1h1.4v3.3c0,0.5,0,1,0.2,1.5c0.1,0.5,0.3,0.8,0.6,1.2c0.2,0.3,0.6,0.6,1,0.7c0.4,0.2,1,0.3,1.6,0.3c1,0,1.9-0.3,2.8-1L-1.7-14.3
		z M21.5-23.9c-0.4-0.3-0.8-0.6-1.3-0.7c-0.5-0.1-1-0.2-1.4-0.2c-0.5,0-0.9,0.1-1.3,0.2c-0.4,0.1-0.8,0.4-1.2,0.7s-0.6,0.7-0.8,1.1
		c-0.2,0.5-0.3,1-0.3,1.6v0.5h-1.4v2.1h1.4v6.6h2.7v-6.6h2.1v-2.1h-2.1v-0.5c0-0.4,0.1-0.8,0.3-1s0.5-0.4,0.9-0.4
		c0.2,0,0.5,0,0.7,0.1c0.2,0.1,0.4,0.2,0.6,0.3L21.5-23.9z M9.7-12h2.7v-8.8h-1.3H9.7L9.7-12z M0.4-12h8.2v-2.3H3.2v-10.1H0.4
		L0.4-12L0.4-12z M-14.9-17.3c0-0.2,0-0.4,0.1-0.6c0.1-0.2,0.2-0.4,0.4-0.5c0.2-0.2,0.3-0.3,0.6-0.4c0.2-0.1,0.5-0.2,0.8-0.2
		s0.6,0,0.8,0.2s0.4,0.2,0.6,0.4c0.2,0.2,0.3,0.3,0.3,0.5c0.1,0.2,0.1,0.4,0.1,0.6H-14.9z M-10-14.7c-0.2,0.2-0.5,0.3-1,0.5
		c-0.4,0.2-1,0.3-1.7,0.3s-1.3-0.2-1.7-0.5c-0.4-0.4-0.6-0.8-0.6-1.2h6.2V-16c0-0.7-0.1-1.4-0.3-2c-0.2-0.6-0.5-1.1-0.8-1.6
		c-0.4-0.4-0.8-0.8-1.4-1c-0.5-0.2-1.2-0.4-1.9-0.4c-0.7,0-1.3,0.1-1.9,0.4c-0.6,0.2-1,0.6-1.4,1c-0.4,0.4-0.7,0.9-0.9,1.5
		c-0.2,0.6-0.3,1.2-0.3,1.8c0,0.7,0.1,1.3,0.3,1.9c0.2,0.6,0.5,1.1,1,1.5c0.4,0.4,0.9,0.7,1.5,1c0.6,0.2,1.3,0.3,2,0.3
		c0.6,0,1.1,0,1.5-0.2c0.4-0.1,0.8-0.2,1.1-0.4c0.3-0.1,0.6-0.3,0.8-0.4c0.2-0.1,0.3-0.2,0.5-0.3L-10-14.7z M-31.6-12h2.7l0.3-8.1
		l2.7,4.8h1.5l2.6-4.9l0.4,8.1h2.8l-0.6-12.4h-2.7l-3.2,5.8l-3.2-5.8H-31L-31.6-12z M11.1-21.8c-0.8,0-1.5-0.7-1.5-1.5
		c0-0.8,0.7-1.5,1.5-1.5c0.8,0,1.5,0.7,1.5,1.5C12.6-22.4,11.9-21.8,11.1-21.8"/>
	<path class="st0" d="M-48.1-21.7c2.1,2.8,3.4,6.3,3.4,10c0,0.9-0.1,1.8-0.2,2.7h6.1c0.5,0,1-0.4,1-1v-16.9c0-0.6-0.6-1.1-1.2-0.9
		C-42.8-26.8-45.9-24.6-48.1-21.7"/>
	<path class="st0" d="M-51.3-9c-0.1-0.9-0.2-1.8-0.2-2.7c0-3.8,1.2-7.3,3.4-10c-2.2-2.9-5.4-5.1-9-6.1c-0.6-0.2-1.2,0.3-1.2,0.9V-10
		c0,0.5,0.4,1,1,1L-51.3-9z"/>
	<path class="st0" d="M-48.1-21.7c-2.1,2.8-3.4,6.3-3.4,10c0,0.9,0.1,1.8,0.2,2.7h6.3c0.1-0.9,0.2-1.8,0.2-2.7
		C-44.8-15.4-46-18.9-48.1-21.7"/>
</g>
</svg>
