<?xml version="1.0" encoding="utf-8"?>
<!-- Generator: Adobe Illustrator 26.0.1, SVG Export Plug-In . SVG Version: 6.00 Build 0)  -->
<svg version="1.1" id="Layer_1" xmlns="http://www.w3.org/2000/svg" xmlns:xlink="http://www.w3.org/1999/xlink" x="0px" y="0px"
	 viewBox="0 0 95 35" style="enable-background:new 0 0 95 35;" xml:space="preserve">
<style type="text/css">
	.st0{fill:#343741;}
</style>
<polygon class="st0" points="21.5,15.1 21.5,16.4 19.4,16.4 19.4,17.5 21.4,17.5 21.4,18.7 19.4,18.7 19.4,21.2 17.2,21.1 
	17.2,15.1 "/>
<path class="st0" d="M21.8,16.2H25c0.7,0.1,1,0.5,1,1.2c0,0.3-0.1,0.6-0.2,0.8c-0.1,0.2-0.4,0.3-0.7,0.4c0,0,0,0,0,0c0,0,0,0,0,0
	c0.2,0,0.4,0.1,0.6,0.3c0.2,0.2,0.3,0.4,0.3,0.6v1.7h-1.8v-1.7c0-0.1,0-0.2-0.1-0.2c-0.1-0.1-0.1-0.1-0.2-0.1h-0.3v2h-1.8L21.8,16.2
	L21.8,16.2z M23.6,17.1v1h0.3c0.1,0,0.2-0.1,0.3-0.2c0-0.1,0.1-0.2,0.1-0.3c0-0.2,0-0.3-0.1-0.4c0-0.1-0.1-0.1-0.2-0.1L23.6,17.1
	L23.6,17.1z"/>
<polygon class="st0" points="29.9,16.3 29.9,17.4 28.2,17.4 28.2,18.2 29.8,18.2 29.8,19.2 28.2,19.2 28.2,20 29.9,20 29.9,21.1 
	26.5,21.1 26.5,16.3 "/>
<polygon class="st0" points="33.8,16.3 33.8,17.4 32.1,17.4 32.1,18.2 33.7,18.2 33.7,19.2 32.1,19.2 32.1,20 33.8,20 33.8,21.1 
	30.4,21.1 30.4,16.3 "/>
<path class="st0" d="M34.4,16.3h2.9c0.8,0,1.3,0.5,1.3,1.5c0,1.2-0.5,1.8-1.6,1.8h-0.8v1.6h-1.8L34.4,16.3L34.4,16.3z M36.2,18.5
	h0.2c0.3-0.1,0.4-0.3,0.4-0.6c0-0.4-0.1-0.6-0.3-0.6h-0.3V18.5z"/>
<path class="st0" d="M40.7,16.2H41c0.8,0,1.3,0.2,1.6,0.6c0.2,0.3,0.3,0.8,0.3,1.4v1.1c0,0.7-0.2,1.2-0.5,1.5
	c-0.3,0.3-0.8,0.5-1.5,0.5h-0.4c-0.6,0-1.1-0.2-1.4-0.5c-0.3-0.3-0.5-0.8-0.5-1.5v-1.1c0-0.6,0.1-1.1,0.3-1.4
	C39.4,16.4,39.9,16.2,40.7,16.2 M40.8,17.2c-0.2,0-0.3,0.1-0.3,0.4v2.3c0,0.3,0.1,0.4,0.3,0.4h0.1c0.2,0,0.3-0.1,0.3-0.4v-2.3
	C41.2,17.3,41.1,17.2,40.8,17.2L40.8,17.2z"/>
<path class="st0" d="M43.2,16.2h3.2c0.7,0.1,1,0.5,1,1.2c0,0.3-0.1,0.6-0.2,0.8c-0.1,0.2-0.4,0.3-0.7,0.4c0,0,0,0,0,0c0,0,0,0,0,0
	c0.2,0,0.4,0.1,0.6,0.3c0.2,0.2,0.3,0.4,0.3,0.6v1.7h-1.8v-1.7c0-0.1,0-0.2-0.1-0.2s-0.1-0.1-0.2-0.1H45v2h-1.8L43.2,16.2L43.2,16.2
	z M45,17.1v1h0.3c0.1,0,0.2-0.1,0.3-0.2c0-0.1,0.1-0.2,0.1-0.3c0-0.2,0-0.3-0.1-0.4c0-0.1-0.1-0.1-0.2-0.1L45,17.1L45,17.1z"/>
<polygon class="st0" points="51.9,16.3 51.9,17.4 50.7,17.4 50.7,21.1 48.9,21.1 48.9,17.4 47.8,17.4 47.8,16.3 "/>
<rect x="52.1" y="18.2" class="st0" width="1.9" height="1"/>
<polygon class="st0" points="62.4,15.1 62.4,21.2 60.5,21.2 60.5,17.4 59.6,21.2 58.1,21.2 57.2,17.5 57.3,21.2 55.3,21.2 
	55.3,15.1 58.3,15.1 58.9,18.2 59.5,15.1 "/>
<path class="st0" d="M65.3,17.6c0-0.2-0.1-0.3-0.3-0.3c-0.2,0-0.3,0.1-0.3,0.3v2.4c0,0.2,0.1,0.3,0.3,0.3c0.2,0,0.3-0.1,0.3-0.2
	v-0.5H67c0,0.3,0,0.5,0,0.6c0,0.2-0.1,0.3-0.2,0.5c-0.2,0.3-0.5,0.4-0.8,0.5c-0.3,0.1-0.6,0.1-1.1,0.1c-1.2,0-1.9-0.5-1.9-1.4
	c0-0.3,0-0.6,0-0.9c0-0.3,0-0.5,0-0.7c0-0.2,0-0.3,0-0.2c0-1,0.6-1.6,1.9-1.6c0.5,0,0.9,0,1.1,0.1c0.7,0.2,1,0.7,1,1.4V18h-1.7
	L65.3,17.6L65.3,17.6z"/>
<polygon class="st0" points="74.5,15.1 74.5,21.2 72.6,21.2 72.7,17.4 71.8,21.2 70.3,21.2 69.3,17.5 69.4,21.2 67.5,21.2 
	67.5,15.1 70.4,15.1 71,18.2 71.6,15.1 "/>
<path class="st0" d="M76.9,16.2h0.4c0.8,0,1.3,0.2,1.6,0.6c0.2,0.3,0.3,0.8,0.3,1.4v1.1c0,0.7-0.2,1.2-0.5,1.5
	c-0.3,0.3-0.8,0.5-1.5,0.5h-0.4c-0.6,0-1.1-0.2-1.4-0.5c-0.3-0.3-0.5-0.8-0.5-1.5v-1.1c0-0.6,0.1-1.1,0.3-1.4
	C75.7,16.4,76.2,16.2,76.9,16.2 M77.1,17.2c-0.2,0-0.3,0.1-0.3,0.4v2.3c0,0.3,0.1,0.4,0.3,0.4h0.1c0.2,0,0.3-0.1,0.3-0.4v-2.3
	C77.5,17.3,77.4,17.2,77.1,17.2L77.1,17.2z"/>
<path class="st0" d="M79.7,15.1h4c0.8,0.1,1.2,0.6,1.2,1.4c0,0.4-0.1,0.7-0.3,1c-0.2,0.2-0.5,0.4-0.8,0.5c0,0,0,0,0,0c0,0,0,0,0,0
	c0.3,0,0.5,0.1,0.7,0.3c0.3,0.2,0.4,0.5,0.4,0.8v2.1h-2.2V19c0-0.1,0-0.2-0.1-0.3c-0.1-0.1-0.2-0.1-0.3-0.1H82v2.5h-2.2L79.7,15.1
	L79.7,15.1z M81.9,16.2v1.3h0.3c0.2,0,0.3-0.1,0.4-0.2c0-0.1,0.1-0.2,0.1-0.4c0-0.2,0-0.4-0.1-0.5c0-0.1-0.1-0.1-0.3-0.1H81.9z"/>
<path class="st0" d="M86.4,16.3h2.5l1.2,4.9h-1.8l-0.2-0.8h-1l-0.2,0.8h-1.7L86.4,16.3z M87.3,19.3h0.7l-0.3-1.8L87.3,19.3z"/>
<polygon class="st0" points="95,21.2 92.7,21.2 91.9,18.6 91.9,21.2 90.4,21.2 90.4,16.3 92.5,16.3 93.5,18.8 93.5,16.3 95,16.3 "/>
<path class="st0" d="M0,11.9v3.9h5.5v1.4H2.8v1.4h2.7v1.4H2.8v1.4H0v1.8H15V11.9H0z M8.3,21.3H5.6v-1.4h2.7V21.3z M14.9,21.2h-2.8
	v-2.7l-1.1,2.7H9.3l-1.1-2.7v0l0,0H5.6v-1.3h3.9l0.8,1.9l0,0v0l0.8-1.9h4V21.2z"/>
</svg>
