<?xml version="1.0" encoding="utf-8"?>
<!-- Generator: Adobe Illustrator 26.0.1, SVG Export Plug-In . SVG Version: 6.00 Build 0)  -->
<svg version="1.1" id="Layer_1" xmlns="http://www.w3.org/2000/svg" xmlns:xlink="http://www.w3.org/1999/xlink" x="0px" y="0px"
	 viewBox="0 0 95 35" style="enable-background:new 0 0 95 35;" xml:space="preserve">
<style type="text/css">
	.st0{fill:#343741;}
</style>
<g transform="matrix(1.21941 0 0 1.21941 100 134.008)">
	<g>
		<path class="st0" d="M-36.9-91.9l5.1-5.7l-5.1-5.7h5.3l2.5,2.8l2.4-2.8h5.2l-5,5.7l5.1,5.7h-5.4l-2.5-2.8l-2.5,2.8H-36.9z"/>
		<path class="st0" d="M-36.9-105.8h-5.7v2.6h5.7v3.8h-5.7v3.5h5.7v4h-9.9v-17.9h9.9V-105.8z"/>
		<path class="st0" d="M-51-109.8v7.3h0c-0.9-1.1-2.1-1.4-3.4-1.4c-2.8,0-4.8,1.9-5.6,4.4c-0.8-2.7-3-4.4-6.2-4.4
			c-2.6,0-4.6,1.2-5.7,3.1v-2.4h-5.3v-2.6h5.8v-4H-82v17.9h4.8v-7.5h4.7c-0.1,0.6-0.2,1.1-0.2,1.8c0,3.7,2.9,6.4,6.5,6.4
			c3.1,0,5.1-1.4,6.2-4.1h-4.1c-0.6,0.8-1,1-2.1,1c-1.3,0-2.4-1.1-2.4-2.4h8.3c0.4,3,2.7,5.5,5.8,5.5c1.4,0,2.6-0.7,3.4-1.8h0v1.2
			h4.2v-17.9H-51z M-68.5-99.4c0.3-1.1,1.1-1.9,2.3-1.9c1.2,0,2.1,0.7,2.3,1.9H-68.5z M-53.6-94.6c-1.5,0-2.5-1.4-2.5-2.9
			c0-1.6,0.8-3.2,2.5-3.2c1.7,0,2.4,1.5,2.4,3.2C-51.1-96.1-51.9-94.6-53.6-94.6z"/>
	</g>
	<g>
		<path class="st0" d="M-44.5-83.3c0.6,0,1.3-0.4,1.5-1.1h0.6c-0.2,1-1.1,1.5-2.1,1.5c-2,0-2.7-1.5-2.7-3.3s0.8-3.3,2.7-3.3
			c1.1,0,1.9,0.6,2.1,1.5H-43c-0.1-0.7-0.8-1.1-1.5-1.1c-1.6,0-2.1,1.5-2.1,2.8S-46.1-83.3-44.5-83.3z"/>
		<path class="st0" d="M-39.7-82.8c-1.4,0-2.1-1.1-2.1-2.4s0.7-2.4,2.1-2.4c1.4,0,2.1,1.1,2.1,2.4C-37.6-83.9-38.4-82.8-39.7-82.8z
			 M-39.7-83.2c1.1,0,1.5-1,1.5-1.9s-0.5-1.9-1.5-1.9s-1.5,1-1.5,1.9C-41.3-84.2-40.8-83.2-39.7-83.2z"/>
		<path class="st0" d="M-34.8-87c-0.9,0-1.2,0.8-1.2,1.5v2.5h-0.5v-3.2c0-0.4,0-0.9,0-1.3h0.5l0,0.6c0.3-0.5,0.7-0.8,1.3-0.8
			c0.1,0,0.2,0,0.3,0v0.5C-34.6-87-34.7-87-34.8-87L-34.8-87z"/>
		<path class="st0" d="M-33.3-81.3h-0.5v-4.8c0-0.4,0-0.9,0-1.3h0.5l0,0.7c0.3-0.5,0.8-0.8,1.4-0.8c1.4,0,2,1.1,2,2.4
			c0,1.2-0.6,2.4-2,2.4c-0.6,0-1.1-0.2-1.4-0.8V-81.3z M-30.5-85.2c0-1-0.4-1.9-1.5-1.9c-1,0-1.4,0.8-1.4,1.9s0.4,1.9,1.4,1.9
			C-30.9-83.3-30.5-84.2-30.5-85.2z"/>
		<path class="st0" d="M-27.1-82.8c-1.4,0-2.1-1.1-2.1-2.4s0.7-2.4,2.1-2.4c1.4,0,2.1,1.1,2.1,2.4C-25-83.9-25.8-82.8-27.1-82.8z
			 M-27.1-83.2c1.1,0,1.5-1,1.5-1.9s-0.5-1.9-1.5-1.9c-1.1,0-1.5,1-1.5,1.9C-28.6-84.2-28.2-83.2-27.1-83.2z"/>
		<path class="st0" d="M-22.2-87c-0.9,0-1.2,0.8-1.2,1.5v2.5h-0.5v-3.2c0-0.4,0-0.9,0-1.3h0.5l0,0.6c0.3-0.5,0.7-0.8,1.3-0.8
			c0.1,0,0.2,0,0.2,0v0.5C-22-87-22.1-87-22.2-87z"/>
		<path class="st0" d="M-18.7-82.9c0-0.2-0.1-0.4-0.1-0.6c-0.3,0.5-0.8,0.7-1.5,0.7c-0.8,0-1.6-0.4-1.6-1.3c0-1.3,1.4-1.5,2.5-1.5
			c0.2,0,0.4,0,0.5,0V-86c0-0.8-0.3-1.2-1.1-1.2c-0.6,0-1,0.2-1.1,0.9h-0.5c0-1,0.9-1.3,1.6-1.3c1.1,0,1.6,0.3,1.6,1.4v1.5
			c0,0.7,0,1.1,0.1,1.7L-18.7-82.9z M-18.8-85.2c-0.2,0-0.3,0-0.4,0c-0.7,0-2,0-2,1.1c0,0.6,0.5,0.9,1.1,0.9c0.9,0,1.3-0.5,1.3-1.6
			V-85.2z"/>
		<path class="st0" d="M-15.9-82.8c-0.6,0-1-0.4-1-1V-87h-0.7v-0.4h0.7v-0.9l0.5-0.2v1.2h1v0.4h-1v2.9c0,0.6,0.1,0.8,0.6,0.8
			c0.2,0,0.4-0.1,0.5-0.1v0.5C-15.5-82.9-15.6-82.8-15.9-82.8L-15.9-82.8z"/>
		<path class="st0" d="M-14.6-88.7v-0.7h0.6v0.7H-14.6z M-14.6-82.9v-4.5h0.5v4.5L-14.6-82.9z"/>
		<path class="st0" d="M-10.8-82.8c-1.4,0-2.1-1.1-2.1-2.4s0.7-2.4,2.1-2.4s2.1,1.1,2.1,2.4C-8.7-83.9-9.5-82.8-10.8-82.8z
			 M-10.8-83.2c1.1,0,1.5-1,1.5-1.9s-0.5-1.9-1.5-1.9s-1.5,1-1.5,1.9C-12.4-84.2-11.9-83.2-10.8-83.2z"/>
		<path class="st0" d="M-7.2-87.4l0,0.7c0.3-0.5,0.8-0.8,1.5-0.8c1.2,0,1.6,0.7,1.6,1.8v2.8h-0.5v-2.6c0-0.8-0.2-1.5-1.1-1.5
			c-1,0-1.3,0.9-1.3,1.8v2.4h-0.5v-3.1c0-0.4,0-0.9,0-1.3H-7.2L-7.2-87.4z"/>
	</g>
</g>
</svg>
