<?xml version="1.0" encoding="utf-8"?>
<!-- Generator: Adobe Illustrator 26.0.1, SVG Export Plug-In . SVG Version: 6.00 Build 0)  -->
<svg version="1.1" id="Layer_1" xmlns="http://www.w3.org/2000/svg" xmlns:xlink="http://www.w3.org/1999/xlink" x="0px" y="0px"
	 viewBox="0 0 95 35" style="enable-background:new 0 0 95 35;" xml:space="preserve">
<style type="text/css">
	.st0{fill:#CCCCCC;}
</style>
<g id="XMLID_1_">
	<path id="XMLID_3_" class="st0" d="M41.6,2.7c0,1.5-1.2,2.7-2.6,2.7c-1.4,0-2.6-1.2-2.6-2.7C36.4,1.2,37.6,0,39,0
		C40.4,0,41.6,1.2,41.6,2.7"/>
	<path id="XMLID_4_" class="st0" d="M33.4,2.7c0,1.5-1.2,2.7-2.6,2.7c-1.4,0-2.6-1.2-2.6-2.7c0-1.5,1.2-2.7,2.6-2.7
		C32.3,0,33.4,1.2,33.4,2.7"/>
	<path id="XMLID_5_" class="st0" d="M25.2,2.7c0,1.5-1.2,2.7-2.6,2.7c-1.4,0-2.6-1.2-2.6-2.7c0-1.5,1.2-2.7,2.6-2.7
		C24.1,0,25.2,1.2,25.2,2.7"/>
	<path id="XMLID_6_" class="st0" d="M17.1,2.7c0,1.5-1.2,2.7-2.6,2.7c-1.4,0-2.6-1.2-2.6-2.7C12,1.2,13.1,0,14.5,0
		C15.9,0,17.1,1.2,17.1,2.7"/>
	<path id="XMLID_9_" class="st0" d="M49.7,2.7c0,1.5-1.2,2.7-2.6,2.7c-1.4,0-2.6-1.2-2.6-2.7c0-1.5,1.2-2.7,2.6-2.7
		C48.6,0,49.7,1.2,49.7,2.7 M49.1,12.1c0-1.1-0.9-2-2-2c-1.1,0-2,0.9-2,2V33c0,1.1,0.9,2,2,2c1.1,0,2-0.9,2-2V12.1"/>
	<path id="XMLID_13_" class="st0" d="M81.8,20.5H64.3c-1.7,0-3.1-1.4-3.1-3.2c0-1.8,1.4-3.2,3.1-3.2l21.3,0c1.1,0,2-0.9,2-2
		c0-1.1-0.9-2-2-2H64.3c-3.9,0-7,3.2-7,7.2c0,4,3.1,7.2,7,7.2h17.5c1.7,0,3.1,1.4,3.1,3.2c0,1.8-1.4,3.2-3.1,3.2l-21.6,0
		c-1.1,0-2,0.9-2,2c0,1.1,0.9,2,2,2l21.6,0c3.9,0,7-3.2,7-7.2C88.8,23.8,85.7,20.5,81.8,20.5 M36.7,10.1H16.7
		c-5.8,0-10.5,4.8-10.5,10.8V33c0,1.1,0.9,2,2,2c1.1,0,2-0.9,2-2l0-12.1c0-3.7,2.9-6.7,6.5-6.7l20.1,0c1.1,0,2-0.9,2-2
		C38.7,11,37.8,10.1,36.7,10.1 M31.1,20.5H14.9c-1.1,0-2,0.9-2,2c0,1.1,0.9,2,2,2h16.2c1.1,0,2-0.9,2-2
		C33.1,21.4,32.2,20.5,31.1,20.5"/>
</g>
</svg>
