<?xml version="1.0" encoding="utf-8"?>
<!-- Generator: Adobe Illustrator 26.0.1, SVG Export Plug-In . SVG Version: 6.00 Build 0)  -->
<svg version="1.1" id="Layer_1" xmlns="http://www.w3.org/2000/svg" xmlns:xlink="http://www.w3.org/1999/xlink" x="0px" y="0px"
	 viewBox="0 0 95 35" style="enable-background:new 0 0 95 35;" xml:space="preserve">
<style type="text/css">
	.st0{fill:#343741;}
</style>
<g>
	<g id="g3001">
		<g id="g3007" transform="translate(100.4711,226.9748)">
			<path id="path3009" class="st0" d="M-20.7-216.9c0,0.3-0.2,0.4-0.4,0.4c-0.3,0-0.4-0.2-0.4-0.4c0-0.3,0.2-0.4,0.4-0.4
				C-20.9-217.4-20.7-217.2-20.7-216.9 M-20.6-216.9c0-0.3-0.2-0.5-0.5-0.5c-0.3,0-0.5,0.2-0.5,0.5c0,0.3,0.2,0.5,0.5,0.5
				C-20.9-216.4-20.6-216.6-20.6-216.9 M-20.9-217c0-0.1-0.1-0.2-0.2-0.2h-0.3v0.6h0.1v-0.2h0.1l0.1,0.2h0.1l-0.1-0.2
				C-21-216.9-20.9-217-20.9-217 M-21-217C-21-217-21.1-217-21-217l-0.2,0.1v-0.2L-21-217C-21.1-217.1-21-217.1-21-217"/>
		</g>
	</g>
	<path id="path3011" class="st0" d="M82.3,30.2h-4.4v4.4h4.4V30.2z"/>
	<g id="g3013" transform="matrix(5.6250398,0,0,-5.6250263,520.64075,615.66953)">
		<path id="path3015" class="st0" d="M-80.3,107.6l0.5-3.5l0.5,3.5h0.7l-0.7-4.3h-1l-0.7,4.3H-80.3z"/>
	</g>
	<g id="g3019">
		<g id="g3025" transform="translate(60.9243,226.7473)">
			<path id="path3027" class="st0" d="M-46-216.3h-2.3v3.2h2.3v21h4v-21h2.8v-3.2H-42v-4.9c0-0.7,0.1-1.3,0.5-1.6
				c0.3-0.4,0.9-0.6,1.6-0.6h0.7v-3.3h-1.5c-1.8,0-3.5,0.4-4.3,1.2c-0.8,0.8-1.1,2-1.1,3.7V-216.3z"/>
		</g>
	</g>
	<path id="path3029" class="st0" d="M23.1,34.7h4V10.4h-4V34.7z"/>
	<g id="g3033">
		<g id="g3039" transform="translate(79.6946,218.5081)">
			<path id="path3041" class="st0" d="M-34-194.6h8.4v-7.5c0-4.5-2.2-6.3-6.2-6.3c-4.2,0-6.2,1.8-6.2,6.3v12.3
				c0,4.1,2.5,6.2,6.2,6.2c3.7,0,6.2-1.7,6.2-6.2v-1.9h-3.9l0,2.3c0,1.6-0.6,2.8-2.3,2.8c-1.7,0-2.3-1.1-2.3-2.8V-194.6z M-34-202.9
				c0-1.4,0.4-2.8,2.2-2.8c1.9,0,2.3,1.4,2.3,2.8v5H-34C-34-197.8-34-202.9-34-202.9z"/>
		</g>
		<g id="g3043" transform="translate(73.8653,220.3602)">
			<path id="path3045" class="st0" d="M-37.7-199.5c-3.1-2.7-3.3-3-3.3-5c0-1.7,0.1-2.7,1.7-2.7c1.5,0,1.7,1,1.7,2.7v2.2h3.9v-3.7
				c0-2.9-2.2-4.3-5.7-4.3c-3.4,0-5.6,1.1-5.7,5.7c0,0.8,0,0.8,0,0.5c0,1.4,0,3.7,3.6,6.8l1,0.9c2.6,2.2,2.9,2.5,2.9,5.1
				c0,1.6-0.1,2.9-1.8,2.9s-1.8-1.2-1.8-2v-3.1h-4.1v3.2c0,3.9,2.6,4.9,5.9,4.9c3.3,0,5.9-1,5.9-6.1v-0.4
				C-33.5-195.4-34.2-196.3-37.7-199.5"/>
		</g>
		<g id="g3047" transform="translate(88.1189,225.2236)">
			<path id="path3049" class="st0" d="M-28.6-212.3v-2.5h-3.7v24.3h4v-16.9c0-1.3,0.4-2.2,1.2-2.7c0.7-0.5,1.6-0.6,2.7-0.7v-4.3
				C-26.6-215-27.5-214.6-28.6-212.3L-28.6-212.3z"/>
		</g>
	</g>
</g>
</svg>
