<?xml version="1.0" encoding="utf-8"?>
<!-- Generator: Adobe Illustrator 26.0.1, SVG Export Plug-In . SVG Version: 6.00 Build 0)  -->
<svg version="1.1" id="Layer_1" xmlns="http://www.w3.org/2000/svg" xmlns:xlink="http://www.w3.org/1999/xlink" x="0px" y="0px"
	 viewBox="0 0 95 35" style="enable-background:new 0 0 95 35;" xml:space="preserve">
<style type="text/css">
	.st0{fill:#FFFFFF;}
</style>
<g>
	<path class="st0" d="M61.6,22.8H59V12.2l8.4,0c0,0,1.5-0.1,2.5,0.9c0,0,1,0.8,1,2.9v6.9h-2.6v-7.1c0,0,0-0.7-0.2-1
		c0,0-0.2-0.3-0.6-0.3h-5.9L61.6,22.8L61.6,22.8z M72.7,22.8V12.2h10.5v2.4l-7.9,0v1.8h5.5v2.3h-5.5v1.8h7.9v2.4L72.7,22.8
		L72.7,22.8z M54.4,22.8V12.2H57v10.7L54.4,22.8z M87.7,13.9v-0.4V13.9z M87,22.8v-8.3h-2.5v-2.4h9.8v2.4h-4.7v8.3L87,22.8z
		 M46.5,13.9v-0.4V13.9z M45.8,22.8v-8.3h-2.5v-2.4h9.8v2.4h-4.7v8.3L45.8,22.8z M38,16.4c0.6,0,1,0,1.2-0.1c0,0,0.3-0.1,0.3-0.5
		l0-0.7c0-0.3-0.3-0.5-0.3-0.5c-0.2-0.1-0.5-0.1-1.4-0.1h-5.1v1.8h5.4L38,16.4L38,16.4z M39.4,22.8v-3.6c0-0.3-0.3-0.5-0.3-0.5
		c-0.1-0.1-0.5-0.1-1-0.1h0.1h-5.5v4.2h-2.6V12.2h8.1c1.4,0,2.4,0.2,3,0.9c0.7,0.7,0.7,1.5,0.7,2.5v0.8c0,0.8-0.4,1.5-0.9,1.9l0.1,0
		c0.2,0.1,0.3,0.2,0.3,0.2c0.4,0.5,0.4,0.9,0.4,1.4v3.1L39.4,22.8L39.4,22.8z M0,12.2v10.7h2.6v-4.2h7.9v-2.3H2.6v-1.8h9.2v-2.4
		L0,12.2z M93.4,21v0.5h0.5c0.1,0,0.2,0,0.3-0.2c0-0.2-0.1-0.3-0.3-0.3L93.4,21z M93.2,20.8h0.6c0.2,0,0.4,0,0.5,0.4
		c0,0.2,0,0.3-0.2,0.4c0.1,0.1,0.2,0.1,0.2,0.4c0,0.2,0,0.2,0.1,0.3h-0.2l0-0.2c0-0.2,0.1-0.4-0.2-0.4h-0.5v0.6h-0.2L93.2,20.8
		L93.2,20.8z M93.7,20.4c-0.6,0-1.1,0.5-1.1,1.1c0,0.6,0.5,1.1,1.1,1.1c0.6,0,1.1-0.5,1.1-1.1C94.9,20.9,94.3,20.4,93.7,20.4
		 M93.7,22.8c-0.7,0-1.3-0.6-1.3-1.3c0-0.7,0.6-1.3,1.3-1.3c0.7,0,1.3,0.6,1.3,1.3C95,22.3,94.4,22.8,93.7,22.8"/>
	<path class="st0" d="M26.5,22.9c0.8-0.3,1.5-1.3,1.7-2.5v-0.4h-4.3v2.8H26.5z M28.2,14.9v-0.3c-0.2-1.3-0.9-2.3-1.8-2.5h-2.6v2.8
		H28.2z M12.9,20.1v0.4c0.2,1.2,0.8,2.2,1.7,2.5h2.7v-2.8H12.9z M14.7,12.1c-0.9,0.2-1.6,1.2-1.8,2.5v0.3h4.3v-2.8H14.7z M28.2,16.1
		h-4.3v2.8h4.3V16.1z M18.4,22.9h4.2v-2.8h-4.2L18.4,22.9z M22.7,12.1h-4.2v2.8h4.2L22.7,12.1z M12.9,18.9h4.3v-2.8h-4.3V18.9z"/>
</g>
</svg>
