<?xml version="1.0" encoding="utf-8"?>
<!-- Generator: Adobe Illustrator 26.0.1, SVG Export Plug-In . SVG Version: 6.00 Build 0)  -->
<svg version="1.1" id="Layer_1" xmlns="http://www.w3.org/2000/svg" xmlns:xlink="http://www.w3.org/1999/xlink" x="0px" y="0px"
	 viewBox="0 0 95 35" style="enable-background:new 0 0 95 35;" xml:space="preserve">
<style type="text/css">
	.st0{fill:#CCCCCC;}
</style>
<g>
	<path class="st0" d="M2.2,19.5c-1.2,0-2.2-0.8-2.2-2c0-1.2,1-2,2.2-2h3.7v1H2.6c-0.6,0-1.2,0.4-1.2,1.1c0,0.7,0.6,1.1,1.2,1.1h2
		v-0.7H3.1V17h2.8v2.5 M6.8,19.5v-4.1h4.7v1H8.2V17h3.4v0.9H8.2v0.7h3.4v1H6.8z M16.4,19.5l-2.8-3.2h0v3.2h-1.3v-4.1h2.1l2.3,2.7h0
		v-2.7H18v4.1H16.4z M18.9,19.5v-4.1h4.7v1h-3.4V17h3.4v0.9h-3.4v0.7h3.4v1H18.9z M28.9,18.1c0.4,0.5,0.7,0.9,1.1,1.4h-1.5l-0.9-1.3
		h-1.7v1.3h-1.4v-4.1h3.9c0.9,0,1.7,0.4,1.7,1.4C30,17.6,29.6,18,28.9,18.1 M28,16.4h-2.2v1H28c0.3,0,0.6-0.1,0.6-0.5
		C28.6,16.5,28.3,16.4,28,16.4"/>
	<path class="st0" d="M36,19.5l-0.5-0.8h-3.2l-0.5,0.8h-1.5l2.7-4.1h2l2.7,4.1 M33.9,16.2L33.9,16.2l-1,1.6h2.1L33.9,16.2z M38,19.5
		v-4.1h1.4v3.1h3.3v1H38z M50,19.5h-3.9v-4.1H50c1.2,0,2.2,0.8,2.2,2C52.2,18.7,51.2,19.5,50,19.5 M49.6,16.4h-2.1v2.1h2.1
		c0.6,0,1.2-0.4,1.2-1.1C50.8,16.8,50.3,16.4,49.6,16.4 M56,18.1v1.4h-1.3v-1.4L52,15.5h1.7l1.7,1.6l1.6-1.6h1.6L56,18.1z M63,19.5
		l-2.7-2.9h0v2.9h-1.3l0-4.1h1.9l2.5,2.7h0v-2.7h1.2v4.1H63z"/>
	<path class="st0" d="M70.7,19.5l-0.5-0.8H67l-0.5,0.8H65l2.7-4.1h2l2.7,4.1 M68.6,16.2L68.6,16.2l-1,1.6h2.1L68.6,16.2z M78.9,19.5
		v-3.1h0l-1.8,3.1h-1.3l-1.7-3.1h0v3.1h-1.3v-4.1h2.2l1.6,2.9h0l1.5-2.9h2.1v4.1H78.9z M81.1,15.5h1.4v4.1h-1.4V15.5z M85.3,19.5
		c-1.2,0-2.2-0.8-2.2-2c0-1.2,1-2,2.2-2h3.4v1h-3c-0.6,0-1.2,0.4-1.2,1.1c0,0.7,0.6,1.1,1.2,1.1h3v1H85.3z M93.6,19.5h-4.1v-0.9h3.6
		c0.2,0,0.4-0.1,0.4-0.3c0-0.3-0.2-0.3-0.4-0.3h-2.5c-0.7,0-1.3-0.6-1.3-1.3c0-0.7,0.6-1.3,1.3-1.3h4.1v0.9h-3.7
		c-0.2,0-0.3,0.1-0.3,0.3c0,0.2,0.2,0.3,0.3,0.3h2.5c0.8,0,1.4,0.5,1.4,1.3C95,19,94.4,19.5,93.6,19.5"/>
</g>
</svg>
