<?xml version="1.0" encoding="utf-8"?>
<!-- Generator: Adobe Illustrator 26.0.1, SVG Export Plug-In . SVG Version: 6.00 Build 0)  -->
<svg version="1.1" id="Layer_1" xmlns="http://www.w3.org/2000/svg" xmlns:xlink="http://www.w3.org/1999/xlink" x="0px" y="0px"
	 viewBox="0 0 95 35" style="enable-background:new 0 0 95 35;" xml:space="preserve">
<style type="text/css">
	.st0{fill:#FFFFFF;}
</style>
<path class="st0" d="M51.4,12.9c0-2,1.3-3.9,2.1-3.6C54.3,9.8,52.9,11.7,51.4,12.9 M42.3,13.7c0-1.6,1.6-4.6,2.5-4.3
	C45.9,9.7,43.9,12.8,42.3,13.7 M40.7,25.1c-0.7,0-1.2-0.4-1.2-1.2c0-2.1,2.9-4.1,5.1-5.1C44.1,21.7,43.2,25,40.7,25.1 M54,18.3
	c-1.6,0-2.9,1.2-2.9,2.7c0,1.2,0.7,2.2,1.7,2.2c0.3,0,0.7-0.2,0.7-0.6c0-0.6-0.8-0.8-0.8-1.7c0-0.6,0.6-1,1.2-1
	c1.2,0,1.7,1.1,1.7,2.3c0,1.8-1.4,3-2.9,3c-2,0-3.3-1.9-3.3-4c0-3.1,2-4.3,3.1-4.6c0,0,2.8,0.5,2.7-0.7c0-0.5-0.8-0.7-1.4-0.8
	c-0.6,0-1.3,0.2-1.3,0.2c-0.3-0.2-0.6-0.5-0.7-0.9c2-1.5,3.4-3,3.4-4.6c0-0.9-0.6-1.6-1.7-1.6c-2,0-3.5,2.5-3.5,4.8
	c0,0.4,0,0.8,0.1,1.1c-1.3,0.9-2.2,1.5-3.9,2.5c0-0.2,0-0.8,0.2-1.5c0.6-0.6,1.4-1.6,1.4-2.3c0-0.3-0.2-0.6-0.6-0.6
	c-1,0-1.7,1.5-1.9,2.5c-0.4,0.5-1.3,1.2-2,1.2c-0.6,0-0.8-0.5-0.8-0.7c1.8-0.6,4.1-3.2,4.1-5.4c0-0.5-0.2-1.6-1.6-1.6
	c-2.2,0-4,3.2-4,5.8c-0.8,0-1.1-0.8-1.1-1.5c0-0.6,0.2-1.3,0.2-1.5c0-0.2-0.1-0.4-0.4-0.4c-0.7,0-1.2,1-1.2,2.1
	c0,1.6,1.1,2.5,2.4,2.6c0.2,0.9,1,1.8,2,1.8c0.6,0,1.4-0.2,1.9-0.7c0,0.3-0.1,0.6-0.1,0.9c-2.1,1.1-3.7,1.9-5.1,3.2
	c-1.1,1-1.7,2.4-1.7,3.4c0,1.5,0.9,2.8,2.8,2.8c2.2,0,3.9-1.8,4.8-4.3c0.4-1.2,0.5-2.9,0.6-4.4c2.2-1.3,3.3-2,4.4-2.8
	c0.1,0.2,0.3,0.4,0.5,0.6c-1,0.5-3.4,2-3.4,5.6c0,2.5,1.7,5.3,5,5.3c2.8,0,4.7-2.3,4.7-4.5C57.2,20.2,56.1,18.3,54,18.3 M62.3,22.5
	C62.3,22.5,62.3,22.5,62.3,22.5c-0.1,0-0.1,0-0.1,0c0,0,0.6-1.8,0.6-3.7c0-2.1-0.9-3.4-2-3.4c-0.7,0-1.2,0.5-1.2,1.2
	c0,1.3,1.6,1.4,1.6,4.3c0,1.2-0.2,2.3-0.6,3.5c-1.8,6.1-7.5,8.9-13.1,8.9c-2.6,0-4.4-0.5-4.9-0.8c0,0,0-0.1,0-0.1c0,0,0-0.1,0.1,0
	c0.2,0.1,1.8,0.6,3.7,0.6c2.1,0,3.4-0.9,3.4-1.9c0-0.7-0.5-1.2-1.2-1.2c-1.3,0-1.4,1.6-4.2,1.6c-1.2,0-2.3-0.2-3.5-0.6
	c-6-1.8-8.9-7.5-8.9-13.1c0-2.7,0.8-4.9,0.8-4.9c0,0,0,0,0.1,0c0,0,0.1,0,0,0.1c-0.1,0.2-0.6,1.8-0.6,3.7c0,2.1,0.9,3.4,2,3.4
	c0.6,0,1.2-0.5,1.2-1.2c0-1.3-1.6-1.5-1.6-4.3c0-1.2,0.2-2.3,0.6-3.5c1.8-6,7.5-8.8,13.1-8.9c2.6,0,4.9,0.8,4.9,0.8c0,0,0,0,0,0.1
	c0,0-0.1,0.1-0.1,0c0,0-1.5-0.6-3.7-0.6c-2.1,0-3.4,0.9-3.4,2c0,0.6,0.5,1.2,1.2,1.2c1.3,0,1.4-1.6,4.2-1.6c1.2,0,2.3,0.2,3.5,0.6
	c6.1,1.8,8.8,7.6,8.9,13.1C63.1,20.3,62.3,22.5,62.3,22.5 M47.5,0.8c-9.2,0-16.7,7.5-16.7,16.7c0,9.2,7.5,16.7,16.7,16.7
	c9.2,0,16.7-7.5,16.7-16.7C64.2,8.3,56.7,0.8,47.5,0.8 M47.5,35C37.9,35,30,27.2,30,17.5C30,7.9,37.9,0,47.5,0
	C57.1,0,65,7.9,65,17.5C65,27.2,57.1,35,47.5,35"/>
</svg>
