<?xml version="1.0" encoding="utf-8"?>
<!-- Generator: Adobe Illustrator 26.0.1, SVG Export Plug-In . SVG Version: 6.00 Build 0)  -->
<svg version="1.1" id="Layer_1" xmlns="http://www.w3.org/2000/svg" xmlns:xlink="http://www.w3.org/1999/xlink" x="0px" y="0px"
	 viewBox="0 0 95 35" style="enable-background:new 0 0 95 35;" xml:space="preserve">
<style type="text/css">
	.st0{fill:#CCCCCC;}
</style>
<g>
	<path class="st0" d="M34.1,10.7c-5.1,0-7.4,3.4-7.4,6.5c0,1.8,0.7,3.5,1.8,4.5c1.3,1.2,3,1.8,5.2,1.8c1.9,0,3.5-0.5,4.3-0.8
		l0.2-0.1v-5.9H36v4.6c-0.3,0.1-1,0.3-2.2,0.3c-3,0-4.9-1.8-4.9-4.6c0-2.8,2-4.5,5.1-4.5c1.2,0,2.1,0.2,3,0.6l0.3,0.1l0.6-1.8
		l-0.2-0.1C37,11.1,35.7,10.7,34.1,10.7z M83.4,10.8v1.8l4.1,0c1.9,0,3.3,0.5,4.2,1.4c0.7,0.7,1.1,1.7,1.1,3c0,1.4-0.4,2.5-1.2,3.4
		c-1,1-2.5,1.4-4.3,1.4c-0.6,0-1.2,0-1.6-0.1V16h-2.1v7.4l0.2,0c0.9,0.1,2,0.2,3.3,0.2c2.7,0,4.9-0.7,6.2-2c1.2-1.2,1.9-2.9,1.9-4.7
		c0-1.8-0.6-3.2-1.8-4.3c-1.2-1.2-3.2-1.8-5.7-1.8L83.4,10.8L83.4,10.8z M41.9,10.9v12.6h2.2V10.9L41.9,10.9z M58.8,10.9v12.6h8
		v-1.9H61v-3.7h5.2V16H61v-3.2h5.5v-1.9H58.8z M73.9,10.9l-4.7,12.6h2.2l1.4-3.8h4.4l1.5,3.8h2.2l-4.8-12.6H73.9L73.9,10.9z
		 M48.2,10.9v12.5h7.9v-1.9h-5.7V10.9L48.2,10.9z M75,13.3c0.1,0.4,1.3,3.6,1.7,4.5h-3.3C73.3,17.8,74.8,13.7,75,13.3L75,13.3z"/>
	<path class="st0" d="M19.5,4.5C3.2,6,1.2,17.2,6.5,20.8c-0.9,4-0.1,4-0.1,4c0.2-1.2,0.4-2.4,0.7-3.6c2.1-7.9,7.2-14.7,12.4-16.5v0
		C19.5,4.6,19.6,4.6,19.5,4.5C19.6,4.5,19.5,4.5,19.5,4.5L19.5,4.5L19.5,4.5z M18.6,7.1C18.6,7.1,18.6,7.1,18.6,7.1
		c-1.4,2.7-1.8,6.5-2.8,9.3c-1.2,3.3-3.3,5.5-6.5,5.3v8c0,0-8.6-3.9-8.6-10.1V7.9l7-0.7h0c0,0,0.1,0,0.1-0.1c0,0,0-0.1-0.1-0.1H0
		v12.5c0,7,9.3,10.9,9.3,10.9s9.4-4,9.4-10.9L18.6,7.1C18.7,7.1,18.7,7.1,18.6,7.1L18.6,7.1z"/>
</g>
</svg>
