<?xml version="1.0" encoding="utf-8"?>
<!-- Generator: Adobe Illustrator 26.0.1, SVG Export Plug-In . SVG Version: 6.00 Build 0)  -->
<svg version="1.1" id="Layer_1" xmlns="http://www.w3.org/2000/svg" xmlns:xlink="http://www.w3.org/1999/xlink" x="0px" y="0px"
	 viewBox="0 0 95 35" style="enable-background:new 0 0 95 35;" xml:space="preserve">
<style type="text/css">
	.st0{fill:#FFFFFF;}
</style>
<g id="g39844" transform="matrix(0.35277778,0,0,0.35277778,44.837584,10.304191)">
	<path id="path39842" class="st0" d="M-45.6-19.7h2.8c2.7,0.2,5.5,1,7.8,2.6c2.8,1.8,4.7,4.7,5.5,7.9c1,4,0.6,8.2-0.9,12
		c-0.5,1.3-1,2.7-1.4,4c2.2-0.6,4.4-1.6,6-3.3c1.7-1.8,2.6-4.1,3.2-6.5c4,0,8.1,0,12.1,0c-2.1,5.6-3.6,11.4-3.5,17.4
		c0,6.9,2.6,13.5,3.2,20.3c0.5,4.6,0.4,9.4-1,13.8c-1.2,4.2-3.4,8.1-6.5,11.2c-3,3.2-6.8,5.6-10.9,7.2c-5.2,2-10.9,2.8-16.5,2.7
		c-6.7-0.1-13.4-1.7-19.2-5.2c-5-3-9-7.6-11.1-13c-2-5.4-1.9-11.7,0.6-17c1.9-4.1,5.3-7.4,9.4-9.4c5-2.4,10.8-3,16.3-2.5
		c0.8-2,1.5-4,2.3-6c-4.6-2-8.8-5.3-11.3-9.8c-3.7-6.7-2.9-15.9,2.4-21.5C-53.5-17.7-49.6-19.4-45.6-19.7 M-48.6-5.6
		c-0.9,2-1,4.5,0,6.5c1.1,2.2,2.8,4.3,5.1,5.4c0.5-1.1,0.9-2.2,1.3-3.3c0.6-1.7,1.4-3.5,1.7-5.3c0.2-1.5,0-3.3-1-4.5
		C-42.7-8-44.5-8.5-46.1-8C-47.2-7.7-48.1-6.7-48.6-5.6 M-36,18.1c-0.9,2.5-1.9,5-2.8,7.5c2.8,1.3,5.7,2.7,7.9,4.9
		c-1.4,3.5-2.8,7-4.2,10.5c-2.2-2.1-4.7-4-7.5-5.1c-1.5,4.1-3.1,8.2-4.6,12.3c-4,0-7.9,0-11.9,0c1.8-4.7,3.5-9.5,5.3-14.2
		c-3.9-0.1-7.8,1.9-9.9,5.2c-0.9,1.4-1.4,3-1.2,4.7c0.2,3.5,2,6.8,4.7,9c3.7,3.1,8.5,4.3,13.2,4.6c3.9,0.3,7.8,0,11.5-1.2
		c3.3-1.1,6.4-3.1,8.6-5.8c2.8-3.6,3.9-8.3,3.6-12.8c-0.3-3.5-1.1-6.8-1.8-10.2c-0.7-3.8-1.3-7.7-1.3-11.6
		C-29.4,16.9-32.7,17.7-36,18.1"/>
</g>
<path id="path39846" class="st0" d="M39,7.7c2.2-1.6,3.3-2.6,3.9-3.8c1-1.7,0.4-3.2-0.9-3.7c-1.2-0.5-2.6,0-3.1,1.1
	c-0.5-1.1-1.9-1.6-3.1-1.1c-1.2,0.6-1.8,2-0.9,3.7C35.7,5.1,36.8,6.1,39,7.7"/>
<path id="path39848" class="st0" d="M44.7,12.4L44.7,12.4c0-1.7,1.3-3.1,3.2-3.1c1.1,0,1.7,0.3,2.4,0.8l-0.8,1
	c-0.5-0.4-0.9-0.6-1.6-0.6c-1,0-1.7,0.9-1.7,1.9v0c0,1.1,0.8,1.9,1.8,1.9c0.5,0,0.9-0.1,1.3-0.4V13h-1.3v-1.1h2.6v2.6
	c-0.6,0.5-1.5,1-2.6,1C46,15.5,44.7,14.1,44.7,12.4"/>
<path id="path39850" class="st0" d="M51.4,13.1L51.4,13.1c0-1.3,0.9-2.4,2.3-2.4c1.5,0,2.3,1.2,2.3,2.5c0,0.1,0,0.2,0,0.3h-3.2
	c0.1,0.6,0.5,0.9,1.1,0.9c0.4,0,0.8-0.1,1.1-0.5l0.8,0.7c-0.4,0.5-1.1,0.9-1.9,0.9C52.4,15.5,51.4,14.5,51.4,13.1 M54.7,12.7
	c-0.1-0.6-0.4-1-1-1c-0.5,0-0.9,0.4-1,1H54.7"/>
<path id="path39852" class="st0" d="M56.9,10.7h1.3v0.7c0.3-0.4,0.7-0.7,1.4-0.7c1,0,1.6,0.7,1.6,1.7v3h-1.3v-2.6
	c0-0.6-0.3-0.9-0.8-0.9c-0.5,0-0.8,0.3-0.8,0.9v2.6h-1.3V10.7"/>
<path id="path39854" class="st0" d="M62.1,13.1L62.1,13.1c0-1.3,0.9-2.4,2.3-2.4c1.5,0,2.3,1.2,2.3,2.5c0,0.1,0,0.2,0,0.3h-3.2
	c0.1,0.6,0.5,0.9,1.1,0.9c0.4,0,0.8-0.1,1.1-0.5l0.8,0.7c-0.4,0.5-1.1,0.9-1.9,0.9C63.1,15.5,62.1,14.5,62.1,13.1 M65.3,12.7
	c-0.1-0.6-0.4-1-1-1c-0.5,0-0.9,0.4-1,1H65.3"/>
<path id="path39856" class="st0" d="M67.6,10.7h1.3v0.9c0.3-0.6,0.7-1.1,1.5-1V12h-0.1c-0.9,0-1.4,0.5-1.4,1.6v1.7h-1.3L67.6,10.7"
	/>
<path id="path39858" class="st0" d="M70.7,14L70.7,14c0-1,0.8-1.5,1.9-1.5c0.5,0,0.8,0.1,1.1,0.2v-0.1c0-0.5-0.3-0.8-1-0.8
	c-0.5,0-0.9,0.1-1.3,0.3l-0.3-1c0.5-0.2,1-0.4,1.8-0.4c0.7,0,1.2,0.2,1.6,0.5c0.3,0.3,0.5,0.9,0.5,1.5v2.7h-1.3v-0.5
	c-0.3,0.4-0.8,0.6-1.4,0.6C71.4,15.4,70.7,14.9,70.7,14 M73.7,13.7v-0.2c-0.2-0.1-0.5-0.2-0.8-0.2c-0.6,0-0.9,0.2-0.9,0.6v0
	c0,0.4,0.3,0.6,0.7,0.6C73.3,14.5,73.7,14.2,73.7,13.7"/>
<path id="path39860" class="st0" d="M76.1,15.4h1.3V9.1h-1.3V15.4z"/>
<path id="path39862" class="st0" d="M45,17.6h1.4l1.6,2.6l1.6-2.6H51v6h-1.3v-3.9L48,22.3h0l-1.7-2.6v3.9H45L45,17.6"/>
<path id="path39864" class="st0" d="M52.4,17.4h1.4v1.2h-1.4V17.4z M52.4,19.1h1.3v4.6h-1.3V19.1z"/>
<path id="path39866" class="st0" d="M55,23.7h1.3v-6.3H55V23.7z"/>
<path id="path39868" class="st0" d="M57.6,23.7h1.3v-6.3h-1.3V23.7z"/>
<path id="path39870" class="st0" d="M59.8,23.1l0.6-0.9c0.5,0.4,1,0.6,1.5,0.6c0.4,0,0.6-0.1,0.6-0.3v0c0-0.3-0.4-0.4-1-0.5
	c-0.6-0.2-1.4-0.5-1.4-1.4v0c0-0.9,0.8-1.5,1.7-1.5c0.6,0,1.2,0.2,1.7,0.5L63,20.4C62.5,20.2,62,20,61.7,20c-0.3,0-0.5,0.1-0.5,0.3
	v0c0,0.3,0.4,0.4,0.9,0.6c0.6,0.2,1.4,0.5,1.4,1.4v0c0,1-0.8,1.5-1.8,1.5C61.1,23.8,60.4,23.6,59.8,23.1"/>
</svg>
