<?xml version="1.0" encoding="utf-8"?>
<!-- Generator: Adobe Illustrator 26.0.1, SVG Export Plug-In . SVG Version: 6.00 Build 0)  -->
<svg version="1.1" id="Layer_1" xmlns="http://www.w3.org/2000/svg" xmlns:xlink="http://www.w3.org/1999/xlink" x="0px" y="0px"
	 viewBox="0 0 95 35" style="enable-background:new 0 0 95 35;" xml:space="preserve">
<style type="text/css">
	.st0{fill:#CCCCCC;}
</style>
<g id="layer1" transform="translate(-275.517,-674.77618)">
	<path id="path3023" class="st0" d="M286.6,695.1c-0.4,1.4-1,3.2-4.1,3.2c-2.9,0-4.9-2.5-4.9-6c0-3.7,1.8-6.1,5-6.1
		c2.7,0,3.5,1.7,3.8,3.4h0.7v-3.3c-0.7-0.4-2.8-1-4.5-1c-4.2,0-7.1,2.9-7.1,7.1c0.1,4.1,2.6,6.8,6.8,6.8c2.4,0,3.7-0.6,4.9-1.3
		c0,0,0.3-3.6,0.3-3.6h-0.7L286.6,695.1"/>
	<path id="path3009" class="st0" d="M296.4,698.3c-3,0-4.9-2.3-4.9-6.1c0-3.7,1.9-6,4.9-6c3.1,0,5,2.3,5,6.1
		C301.4,696.1,299.5,698.3,296.4,698.3L296.4,698.3z M303.5,692.1c0-4.2-2.6-6.8-6.7-6.8c-4.4,0-7.3,2.8-7.3,7
		c0,4.3,2.5,6.9,6.8,6.9C300.7,699.2,303.5,696.5,303.5,692.1"/>
	<path id="path3011" class="st0" d="M326.4,686.2l2.9,0.5l0.3,8.8l-8.1-9.8h-4.1v0.6l2.2,0.5l-0.1,11.2l-1.9,0.5
		c-0.5-0.2-1.4-0.4-2.6-1.8c0,0-3-3.7-3.4-4.2c1.2-0.3,3.1-1.2,3.1-3.5c0-1.5-0.8-3.2-4.6-3.2h-6v0.6l2.2,0.5l0,11.2l-2.2,0.5v0.6
		h5.9v-0.6l-1.9-0.5v-11.3c0.6-0.1,1.1-0.2,1.5-0.2c2.1,0,3.2,0.8,3.2,2.4c0,2.5-2,2.9-2.9,3c-0.3,0-0.6,0.1-0.9,0.1v0.6l0.7,0.2
		l3.1,4.1c1,1.4,1.8,2.1,5.4,2.1h5.3v-0.6l-2.6-0.5l-0.3-10.5l9.6,11.9h0.3l0.2-12.6l1.8-0.5v-0.6h-6L326.4,686.2"/>
	<path id="path3035" class="st0" d="M339.9,698.4l-2.2-0.5l0-11.2l2.2-0.5v-0.6h-6.2v0.6l2.2,0.5v11.2l-2.2,0.5v0.6l6.2,0
		L339.9,698.4"/>
	<path id="path3013" class="st0" d="M347.2,698.4l-2.6-0.5l-0.3-10.5l9.6,11.9h0.3l0.2-12.6l1.8-0.5v-0.6h-6l0,0.6l2.9,0.5l0.3,8.8
		l-8.1-9.8h-4.1v0.6l2.2,0.5l-0.1,11.2l-2.1,0.5v0.6h6.1L347.2,698.4"/>
	<path id="path3025" class="st0" d="M368.8,693.8l1.7-0.5v-0.6l-6.1,0v0.6l2.6,0.5v3.5c-0.9,0.7-1.9,1.1-3.5,1.1
		c-2.8-0.1-4.8-2.5-4.8-6c0-3.9,1.8-6.1,5.1-6.1c2.9,0,3.7,1.9,4,3.4h0.6v-3.3c-0.9-0.5-2.7-1-4.9-1c-4.2,0-6.9,2.8-6.9,7.1
		c0,4,2.7,6.7,6.7,6.8c2.8,0,4.3-0.7,5.4-1.4C368.8,697.8,368.8,693.8,368.8,693.8"/>
</g>
</svg>
