<?xml version="1.0" encoding="utf-8"?>
<!-- Generator: Adobe Illustrator 26.0.1, SVG Export Plug-In . SVG Version: 6.00 Build 0)  -->
<svg version="1.1" id="Layer_1" xmlns="http://www.w3.org/2000/svg" xmlns:xlink="http://www.w3.org/1999/xlink" x="0px" y="0px"
	 viewBox="0 0 95 35" style="enable-background:new 0 0 95 35;" xml:space="preserve">
<style type="text/css">
	.st0{fill:#343741;}
</style>
<g>
	<path class="st0" d="M30.3,29.4h34.5V35H30.3V29.4z M47.4,0.5h5.8l2.9,19l2.9-19h5.8v25.9h-3.8V6.9l-3.2,19.5h-3.3L51.2,6.9v19.5
		h-3.8L47.4,0.5z M39.4,8.8h3.9V6.9c0-1.8,0-6.9-6.6-6.9c-6.4,0-6.4,5.9-6.4,6.9v13.5c0,3.9,1.4,6.5,5.2,6.5c2.2,0,3.7-1.4,4.1-1.9
		v1.4l3.8,0v-14h-6.2v3.1h2.3v4.1c0,2.1-0.7,3.5-2.6,3.5c-1.9,0-2.6-1.5-2.6-3.5V6.9c0-1,0-3.4,2.6-3.4c2.6,0,2.6,2.4,2.6,3.4
		L39.4,8.8z"/>
</g>
</svg>
