<?xml version="1.0" encoding="utf-8"?>
<!-- Generator: Adobe Illustrator 26.0.1, SVG Export Plug-In . SVG Version: 6.00 Build 0)  -->
<svg version="1.1" id="Layer_1" xmlns="http://www.w3.org/2000/svg" xmlns:xlink="http://www.w3.org/1999/xlink" x="0px" y="0px"
	 viewBox="0 0 95 35" style="enable-background:new 0 0 95 35;" xml:space="preserve">
<style type="text/css">
	.st0{fill:#FFFFFF;}
</style>
<g>
	<path class="st0" d="M24.4,31c-0.2,0.5-0.4,1.2-0.6,1.9c-0.4,1.1-0.1,1.3,0.3,1.4l0.2,0v0.4h-3.2v-0.4c0,0,0.1,0,0.2,0
		c0.6-0.2,1.1-0.4,1.5-1.5l2.9-8l1.7-0.4l3,8.4c0.4,1,0.6,1.4,1.3,1.5l0.2,0v0.4h-4.3v-0.4l0.2,0c0.4-0.1,0.7-0.4,0.4-1.2L27.5,31
		L24.4,31z M27.2,30.3L26,26.7h-0.1l-1.2,3.6H27.2z"/>
	<path class="st0" d="M59.5,33.1c0,0.9,0.2,1.2,0.9,1.3l0.2,0v0.4h-4.4v-0.4l0.2,0c0.7-0.1,0.9-0.4,0.9-1.3c0-0.8,0-6.2,0-6.9
		c0-0.9-0.3-1.1-0.9-1.2l-0.2,0v-0.4h4.4V25l-0.2,0c-0.6,0.1-0.9,0.3-0.9,1.2C59.5,27,59.5,32.3,59.5,33.1z"/>
	<path class="st0" d="M17.7,29.1L17.7,29.1c1.4-0.4,2-1.2,2-2.2c0-0.9-0.4-1.6-1.4-2c-0.8-0.3-2.3-0.3-3.2-0.3h-3.7V25
		c0,0,0.2,0,0.3,0.1c0.8,0.2,0.9,0.6,0.9,1.7v5.9c0,1.3-0.3,1.6-1,1.7c-0.2,0-0.3,0-0.3,0v0.4h4c1.4,0,2.4,0,3.3-0.5
		c1.1-0.5,1.5-1.4,1.5-2.5C20.3,30.6,19.6,29.5,17.7,29.1z M15.9,34.1c-0.6,0-1.1,0-1.1,0l0-8.7c0,0,0.4,0,0.8,0c1.1,0,2,0.3,2,1.8
		c0,1.1-0.5,1.8-2.2,2v0.3c1.5,0.2,2.7,0.7,2.7,2.4C18.1,33.5,17.3,34.1,15.9,34.1z"/>
	<path class="st0" d="M53.8,33.9c-0.6-0.5-2.3-3.4-3-4.2c1.9-0.6,2.4-1.5,2.4-2.6c0-2.4-2.8-2.4-4.7-2.4l-3.7,0V25l0.3,0
		c0.8,0.1,0.9,0.3,0.9,1.4V33c0,0.8-0.2,1.3-1,1.4l-0.2,0v0.4h4.2v-0.4l-0.2,0c-0.5-0.1-0.8-0.2-0.8-1.4v-7.6c0.3,0,0.6,0,0.9,0
		c1.3,0,2.2,0.4,2.2,2c0,0.7-0.2,1.3-0.9,1.7c-0.4,0.2-1.1,0.4-1.6,0.4l0,0.3c0.6,0.8,2.2,3.6,2.7,4.2c0.5,0.6,0.9,0.9,1.6,0.9
		c0.9,0,1.9,0,1.9,0l0-0.4C54.4,34.4,54.2,34.2,53.8,33.9z"/>
	<path class="st0" d="M42.3,33.9c-0.6-0.5-2.3-3.4-3-4.2c1.9-0.6,2.4-1.5,2.4-2.6c0-2.4-2.8-2.4-4.7-2.4l-3.7,0V25l0.3,0
		c0.8,0.1,0.9,0.3,0.9,1.4V33c0,0.8-0.2,1.3-1,1.4l-0.2,0v0.4h4.2v-0.4l-0.2,0c-0.5-0.1-0.8-0.2-0.8-1.4v-7.6c0.3,0,0.6,0,0.9,0
		c1.3,0,2.2,0.4,2.2,2c0,0.7-0.2,1.3-0.9,1.7c-0.4,0.2-1.1,0.4-1.6,0.4l0,0.3c0.6,0.8,2.2,3.6,2.7,4.2c0.5,0.6,0.9,0.9,1.6,0.9
		c0.9,0,1.9,0,1.9,0l0-0.4C42.9,34.4,42.7,34.2,42.3,33.9z"/>
	<path class="st0" d="M71.6,33.7C70.8,34.5,69.5,35,68,35c-4,0-5.3-2.4-5.3-5.2c0-2.5,1.3-5.4,5.4-5.4c1.7,0,2.9,0.5,3.2,0.6
		c0.1,1.7,0.2,3.4,0.2,3.4l-0.6,0.1c-0.3-2.2-1.2-3.3-2.6-3.3c-1.3,0-3.2,0.4-3.2,4.5c0,3,1,4.5,3.5,4.5c1.2,0,2-0.4,2.7-0.9
		C71.3,33.3,71.6,33.7,71.6,33.7z"/>
	<path class="st0" d="M64.6,10l-1.9-3.5c-0.3-0.5-0.6-0.6-0.8-0.7c-0.1,0-0.1,0-0.1,0.1C62,6.1,62,6.4,61.5,6.7l-13.8,6.9
		c-0.4,0.2-1,0.3-1.5,0.1c-0.6-0.3-4.4-2.1-4.4-2.1c-0.1-0.1-0.3-0.2-0.3-0.4c0-0.1,0-0.2,0.1-0.3l1-0.6l1.3,0.6
		c0.3,0.1,0.5,0.2,0.9,0.2c0.3,0,0.6-0.1,0.8-0.2l12.8-6.4c0.2-0.1,0.3-0.3,0.2-0.5L57,0.7c-0.2-0.5-0.6-0.6-0.8-0.7
		c-0.1,0-0.1,0-0.1,0.1c0.2,0.2,0.2,0.5-0.2,0.7l-10.5,5c-0.3,0.1-0.5,0.2-0.8,0.2c-0.3,0-0.5-0.1-0.8-0.2L40,3.9
		c-0.5-0.2-0.5-0.5-0.3-0.7c0,0,0-0.1-0.1-0.1c-0.4,0.1-0.7,0.5-0.8,0.8l-1.6,3.3c-0.1,0.1-0.1,0.4,0.2,0.5l2,1l-1.1,0.6
		c-0.2,0.1-0.5,0.2-0.8,0.2c-0.3,0-0.5-0.1-0.8-0.2L33,7.5c-0.4-0.2-0.4-0.5-0.2-0.7c0,0,0-0.1-0.1-0.1c-0.2,0.1-0.6,0.4-0.8,0.8
		L30.3,11c-0.1,0.1-0.1,0.4,0.2,0.5c0.4,0.2,6.4,3,6.4,3c0.2,0.1,0.5,0.2,0.7,0.2c0.3,0,0.5-0.1,0.7-0.2l1.8-1l-0.7,1.7
		c-0.1,0.2,0,0.4,0.2,0.5l6.6,3.1c0.2,0.1,0.5,0.2,0.8,0.2c0.3,0,0.6-0.1,0.8-0.2l16.6-8.3C64.6,10.5,64.7,10.2,64.6,10z"/>
	<g>
		<path class="st0" d="M76.6,33.1c0,0.9,0.1,1.2,0.7,1.3l0.2,0v0.4h-4v-0.4l0.2,0c0.6-0.1,0.8-0.4,0.8-1.3c0-0.8,0-6.2,0-6.9
			c0-0.9-0.3-1-0.9-1.2l-0.2,0v-0.4h4V25l-0.2,0c-0.6,0.1-0.7,0.3-0.7,1.2C76.6,27,76.6,32.2,76.6,33.1z"/>
		<g>
			<path class="st0" d="M81.9,33.2c-0.8-1-2.2-3.3-3-4.4c1-1.1,1.9-2.1,2.3-2.6c0.7-0.8,1.1-1.1,1.6-1.1l0.3,0v-0.4l-3.6,0V25l0.3,0
				c0.5,0,0.5,0.6,0.2,1.1c-0.4,0.7-2.1,2.6-2.8,3.2l0,0.2c0.3,0.4,1.1,1.7,1.9,2.9c1.2,1.8,1.5,2.3,2.9,2.3c0.4,0,1.7,0,1.7,0
				l0-0.4C82.9,34.4,82.4,33.8,81.9,33.2z"/>
		</g>
	</g>
</g>
</svg>
