<?xml version="1.0" encoding="utf-8"?>
<!-- Generator: Adobe Illustrator 26.0.1, SVG Export Plug-In . SVG Version: 6.00 Build 0)  -->
<svg version="1.1" id="Layer_1" xmlns="http://www.w3.org/2000/svg" xmlns:xlink="http://www.w3.org/1999/xlink" x="0px" y="0px"
	 viewBox="0 0 95 35" style="enable-background:new 0 0 95 35;" xml:space="preserve">
<style type="text/css">
	.st0{fill:#343741;}
</style>
<g>
	<path class="st0" d="M89.3,20v-6.3h-2.1v-2.1h2.1V7.9h2.3v3.7h3v2.1h-3v6.2c0,1.4,0.6,2,1.6,2c0.4,0,0.7,0,1-0.2l0.8,1.9
		c-0.5,0.2-1.1,0.3-1.8,0.3C90.6,23.9,89.3,22.5,89.3,20z M74.7,17.6c0-3.4,2.4-6.4,5.9-6.4c3.6,0,5.9,2.5,5.9,6.4
		c0,0.2,0,0.4,0,0.4h-9.5c0.1,2.6,2,3.9,3.8,3.9c1.3,0,2.7-0.5,3.3-2.1l2,0.8c-0.7,1.7-2.5,3.3-5.3,3.3
		C77.1,24.1,74.7,21.3,74.7,17.6L74.7,17.6z M80.5,13.3c-1.7,0-3,1.1-3.5,2.9h7C84,15.1,83.1,13.3,80.5,13.3L80.5,13.3z M63.6,22
		L63.6,22l-0.1,1.7h-2.2V6h2.3v5.6l-0.1,1.7h0.1c0.7-1.1,2.2-2.1,4.1-2.1c3.1,0,5.7,2.7,5.7,6.4s-2.7,6.4-5.7,6.4
		C65.7,24.1,64.2,23.1,63.6,22L63.6,22z M71.1,17.6c0-2.7-1.8-4.4-3.8-4.4c-2,0-3.8,1.6-3.8,4.4s1.8,4.4,3.8,4.4
		C69.3,22,71.1,20.3,71.1,17.6z M48.2,20c0-2.7,2.5-4.2,5.3-4.2c1.6,0,2.8,0.5,3.3,0.7v-0.3c0-1.8-1.5-2.9-3.2-2.9
		c-1.3,0-2.5,0.6-2.9,1.7l-2.1-0.9c0.4-1.1,1.9-2.9,4.9-2.9c3,0,5.4,1.8,5.4,5.2v7.3h-2.2V22h-0.1c-0.7,1-1.9,2.1-4,2.1
		C50.3,24.1,48.2,22.5,48.2,20L48.2,20z M56.8,18.5c0,0-1-0.8-2.9-0.8c-2.4,0-3.3,1.3-3.3,2.4c0,1.3,1.3,1.9,2.5,1.9
		C54.9,22,56.8,20.4,56.8,18.5z M38,11.6l-0.1,1.7H38c0.6-1.1,2.2-2.1,3.8-2.1c3.1,0,4.6,2.1,4.6,5.1v7.4h-2.3v-7
		c0-2.5-1.3-3.4-3-3.4c-2,0-3.2,1.9-3.2,3.7v6.7h-2.3V6H38L38,11.6z M24.1,22L24.1,22v1.7V29h-2.3V11.6H24v1.7h0.1
		c0.7-1.1,2.2-2.1,4.1-2.1c3.1,0,5.7,2.7,5.7,6.4s-2.7,6.4-5.7,6.4C26.3,24.1,24.8,23.1,24.1,22z M31.7,17.6c0-2.7-1.8-4.4-3.8-4.4
		c-2,0-3.8,1.6-3.8,4.4s1.8,4.4,3.8,4.4C29.9,22,31.7,20.3,31.7,17.6z M17.2,23.7h2.3V6h-2.3V23.7z M6.7,6L0,23.7h2.5l1.7-4.8h7.4
		l1.7,4.8h2.5L9.2,6H6.7z M7.9,8.8L7.9,8.8l3,8H5L7.9,8.8z"/>
</g>
</svg>
