<?xml version="1.0" encoding="utf-8"?>
<!-- Generator: Adobe Illustrator 26.0.1, SVG Export Plug-In . SVG Version: 6.00 Build 0)  -->
<svg version="1.1" id="Layer_1" xmlns="http://www.w3.org/2000/svg" xmlns:xlink="http://www.w3.org/1999/xlink" x="0px" y="0px"
	 viewBox="0 0 95 35" style="enable-background:new 0 0 95 35;" xml:space="preserve">
<style type="text/css">
	.st0{fill-rule:evenodd;clip-rule:evenodd;fill:#343741;}
</style>
<g>
	<path class="st0" d="M10,21.6H8.1v-11H10V21.6z M7.2,13.1c0,0.5-0.4,1-1,1s-1-0.4-1-1s0.4-1,1-1S7.2,12.5,7.2,13.1z M3.5,17.5
		c0.8,0,1.3-0.5,1.3-1.3c0-0.8-0.5-1.3-1.3-1.3c-0.7,0-1.3,0.5-1.3,1.3C2.2,17,2.7,17.5,3.5,17.5z M1.8,22.2c0,0.5,0.6,0.9,1.6,0.9
		c1.3,0,2.1-0.4,2.1-1c0-0.4-0.4-0.6-1.1-0.6l-1.8-0.1C2.1,21.6,1.8,21.9,1.8,22.2z M0.3,19.8c0-0.6,0.4-1.1,1.2-1.5
		c-0.7-0.4-1.1-1.1-1.1-2.1c0-1.6,1.2-2.8,3-2.8c0.7,0,1.5,0.2,2.1,0.7c0.4,0.3,0.7,0.7,0.8,1.2c0.1,0.3,0.1,0.7,0.1,1
		c0,1.5-1.1,2.5-3,2.5c-0.3,0-0.6,0-0.9-0.1c-0.4,0.1-0.5,0.3-0.5,0.5c0,0.5,0.5,0.5,1.5,0.5h0l0,0h0c0.2,0,0.4,0,0.6,0
		c2.1,0.2,2.9,0.5,2.9,2.1c0,1.6-1.3,2.4-3.8,2.4c-2.3,0-3.4-0.7-3.4-2c0-0.7,0.4-1.1,1.4-1.5C0.7,20.6,0.3,20.3,0.3,19.8z
		 M14.5,20.1c1,0,1.5-0.8,1.5-2.5c0-1.7-0.5-2.5-1.5-2.5c-1,0-1.5,0.8-1.5,2.5C13,19.3,13.5,20.1,14.5,20.1z M14.5,13.5
		c2.1,0,3.4,1.5,3.4,4.1c0,2.6-1.3,4.1-3.4,4.1c-2.1,0-3.4-1.5-3.4-4.1C11.1,15,12.4,13.5,14.5,13.5z M24,17.6
		c0,1.7-0.6,2.5-1.7,2.5c-0.5,0-1-0.2-1.4-0.7v-3.8c0.5-0.4,0.9-0.7,1.4-0.7C23.4,15,24,15.9,24,17.6z M19,10.6v9.2
		c0,0.4,0,1-0.1,1.8h1.5l0.2-0.8c0.7,0.7,1.3,1,2.2,1c1.8,0,3.1-1.7,3.1-4.1c0-2.6-1.3-4.1-3.1-4.1c-0.8,0-1.4,0.3-2,0.9v-3.8
		C20.9,10.6,19,10.6,19,10.6z M28.4,19.4c0,0.5,0.3,0.8,0.9,0.8c0.6,0,1.2-0.3,1.8-0.8v-1.7C29.2,17.9,28.4,18.4,28.4,19.4z
		 M31,20.9c-0.7,0.5-1.5,0.8-2.4,0.8c-1.4,0-2.1-0.8-2.1-2.1c0-1.8,1.5-2.7,4.6-3.1v-0.6c0-0.6-0.4-0.9-1.1-0.9
		c-0.7,0-1.3,0.3-1.8,0.9L26.9,15c0.7-1,1.7-1.5,3.1-1.5c1.9,0,2.9,0.9,2.9,2.3v4.7c0,0.3,0,0.6,0.1,1.1h-1.8
		C31.2,21.6,31,20.9,31,20.9z M36.4,21.6h-1.9v-11h1.9V21.6z M39.2,19.4c0.8,1,1.5,1.5,2.4,1.5c1.3,0,2.1-1.2,2.1-3.3
		c0-2.2-0.8-3.3-2.1-3.3c-0.9,0-1.6,0.5-2.4,1.5C39.2,15.8,39.2,19.4,39.2,19.4z M38.2,13.6h0.7l0.2,1h0.1c0.8-0.8,1.6-1.2,2.4-1.2
		c1.8,0,3,1.5,3,4.1c0,2.6-1.2,4.1-3,4.1c-0.9,0-1.7-0.4-2.4-1.2h-0.1v3.9h-1V13.6z M46.2,19.6c0-1.3,1.2-1.8,3.9-2.4v2.4
		c-0.9,0.9-1.7,1.4-2.6,1.4C46.7,21,46.2,20.4,46.2,19.6z M47.4,21.7c1,0,1.9-0.4,2.7-1.2c0,0.3,0.1,0.7,0.2,1h0.9
		c-0.1-0.5-0.1-0.9-0.1-1.1v-4.9c0-1.2-1.1-2.1-2.6-2.1c-1.4,0-2.2,0.5-2.9,1.6l0.7,0.4c0.5-0.8,1.1-1.3,2-1.3
		c1.1,0,1.8,0.5,1.8,1.3v0.8c-3.4,0.6-4.9,1.4-4.9,3.2C45.3,20.8,46.1,21.7,47.4,21.7z M51.9,13.6h1l2.4,6.7l2.3-6.7h0.9l-3,8.5
		c-0.6,1.6-1.2,2.2-2.6,2.2c-0.2,0-0.5,0-0.8-0.1v-0.8c0.2,0,0.5,0.1,0.7,0.1c1.2,0,1.7-0.6,2-2.1L51.9,13.6z M60.3,13.6h-0.9v7.9
		h0.9v-5.8c0.8-1,1.6-1.5,2.3-1.5c1.1,0,1.4,0.7,1.4,2.1v5.2H65v-5.8c0.8-1,1.6-1.5,2.3-1.5c1.1,0,1.4,0.7,1.4,2.1v5.2h0.9v-5.5
		c0-1.7-0.7-2.5-2-2.5c-0.9,0-1.7,0.5-2.6,1.4h-0.1c-0.4-0.9-1-1.4-1.9-1.4c-0.8,0-1.7,0.5-2.6,1.4h-0.1
		C60.3,14.9,60.3,13.6,60.3,13.6z M74.1,14.3c-1.3,0-2.2,0.9-2.3,2.6h4.4C76.2,15.2,75.4,14.3,74.1,14.3z M77.1,19.7
		c-0.7,1.4-1.6,2-3,2c-2,0-3.3-1.6-3.3-4c0-2.6,1.3-4.2,3.2-4.2c1.9,0,3,1.3,3,3.8v0.3h-5.3c0,2.2,0.9,3.4,2.4,3.4
		c1,0,1.7-0.5,2.3-1.7C76.4,19.3,77.1,19.7,77.1,19.7z M79.3,13.6h-1v7.9h1v-5.8c0.9-1,1.7-1.5,2.5-1.5c1.2,0,1.5,0.7,1.5,2.1v5.2
		h0.9v-5.5c0-1.7-0.7-2.5-2.2-2.5c-0.9,0-1.8,0.5-2.8,1.4L79.3,13.6L79.3,13.6z M88.2,21c0.2,0,0.5-0.1,0.8-0.2v0.8
		c-0.4,0.1-0.7,0.2-1.1,0.2c-1.1,0-1.6-0.5-1.6-1.7v-5.6h-1.2v-0.8h1.2v-2.3h0.9v2.3H89v0.8h-1.7v5.7C87.3,20.7,87.6,21,88.2,21z
		 M94,19.5c0,0.8-0.7,1.5-1.7,1.5c-0.9,0-1.7-0.5-2.4-1.4l-0.7,0.6c0.8,1.1,1.8,1.6,3,1.6c1.7,0,2.7-1,2.7-2.3
		c0-1.3-0.8-1.7-2.4-2.3c-0.1,0-0.3-0.1-0.4-0.1c-1.1-0.4-1.7-0.6-1.7-1.4c0-0.8,0.6-1.3,1.4-1.3c0.9,0,1.6,0.4,2.2,1.2l0.7-0.5
		c-0.7-1-1.6-1.5-2.7-1.5c-1.6,0-2.6,0.9-2.6,2.1c0,1.2,0.8,1.7,2.5,2.3c0.1,0,0.2,0.1,0.2,0.1C93.4,18.4,94,18.6,94,19.5L94,19.5z"
		/>
</g>
</svg>
