<?xml version="1.0" encoding="utf-8"?>
<!-- Generator: Adobe Illustrator 26.0.1, SVG Export Plug-In . SVG Version: 6.00 Build 0)  -->
<svg version="1.1" id="Layer_1" xmlns="http://www.w3.org/2000/svg" xmlns:xlink="http://www.w3.org/1999/xlink" x="0px" y="0px"
	 viewBox="0 0 95 35" style="enable-background:new 0 0 95 35;" xml:space="preserve">
<style type="text/css">
	.st0{fill-rule:evenodd;clip-rule:evenodd;fill:#FFFFFF;}
</style>
<g>
	<path class="st0" d="M56.5,6.4c0,0.3,0,0.5,0,0.9c0,0.4,0.3,0.4,0.5,0.4c0.3-0.1,0.4-0.5,0.4-1V5.3L57,5.6
		C56.6,5.8,56.6,6.1,56.5,6.4z"/>
	<path class="st0" d="M38.6,12.8c0,0.3,0,0.5,0,0.9c0,0.4,0.3,0.5,0.5,0.4c0.3-0.1,0.4-0.5,0.4-1v-1.4l-0.4,0.2
		C38.7,12.1,38.6,12.4,38.6,12.8z"/>
	<path class="st0" d="M39.1,3.6c-0.2,0-0.4,0.1-0.4,0.3c-0.2,0.3-0.2,1-0.2,1.9c0,0.8,0,1.5,0.2,1.9c0.1,0.2,0.2,0.3,0.4,0.3
		c0.3,0,0.4-0.1,0.5-0.3c0.1-0.3,0.1-1,0.1-1.9v0c0-0.8,0-1.5-0.1-1.9C39.4,3.7,39.3,3.6,39.1,3.6z"/>
	<path class="st0" d="M45.7,7.8c0.2,0,0.3-0.1,0.4-0.2c0.3-0.4,0.3-1.3,0.3-1.9c0-0.6,0-1.5-0.3-1.8h0c-0.1-0.1-0.2-0.2-0.4-0.2
		c-0.5,0-0.5,1-0.5,1.9c0,0.5,0,1,0,1.5C45.3,7.5,45.4,7.8,45.7,7.8z"/>
	<path class="st0" d="M30,0v35h35V0H30z M45.6,3.4c0.4,0,0.6,0.2,0.7,0.4V2.6h1.3V8h-1.2V7.6c-0.1,0.2-0.4,0.5-0.9,0.5
		c-1.3,0-1.6-1.5-1.6-2.4C44,4.3,44.7,3.4,45.6,3.4z M41.8,2.6h1.3V8h-1.3V2.6z M34.4,14.4h-1.9v-2.3h0.3c0.3,1.8,1.1,2.1,1.7,2.1
		c0.7,0,1-0.4,1-1c0-0.7-0.6-1-1.3-1.4c-1.1-0.6-1.6-0.8-1.6-1.8c0-0.8,0.7-1.3,1.5-1.5c-1.6-0.2-2.1-1.5-2-3c0-1.5,0.9-3,2.7-3h1.7
		v1.9h-0.3c-0.2-0.9-0.7-1.7-1.3-1.7c-0.4,0-0.7,0.2-0.9,0.5c-0.2,0.4-0.3,1.3-0.3,2.3c0,0.9,0,1.7,0.1,2.2c0.1,0.2,0.3,0.6,0.7,0.6
		c0.3,0,0.4-0.1,0.5-0.2c0.2-0.2,0.2-0.6,0.2-0.9V6.3c0-0.3-0.1-0.5-0.3-0.6c-0.1-0.1-0.4-0.1-0.5-0.1V5.3h2v4.8h-0.3
		c-0.1-0.4-0.2-0.6-0.4-0.9c-0.2-0.3-0.5-0.6-1-0.6c-0.6,0-1,0.3-1,0.8c0,0.7,0.4,0.8,1.2,1.3c0.8,0.4,1.7,0.7,1.7,1.9
		C36.7,13.7,35.6,14.4,34.4,14.4z M40.7,14.4h-1.2v-0.5c-0.1,0.3-0.5,0.6-1.1,0.6c-0.5,0-1.2-0.2-1.2-1.2c0-1,0.7-1.2,1.4-1.5
		c0.7-0.3,0.8-0.3,0.8-0.6v-0.7c0-0.3-0.2-0.5-0.5-0.4c-0.1,0-0.4,0.1-0.4,0.2c0,0.2,0.2,0.2,0.3,0.5c0,0.4-0.4,0.6-0.7,0.6
		c-0.3,0-0.5-0.2-0.6-0.5c0-0.6,0.7-1.1,1.7-1.1c0.5,0,0.8,0.1,1,0.2l0,0c0.3,0.2,0.5,0.4,0.5,1V14.4z M40.1,7.7
		c-0.3,0.2-0.7,0.4-1.1,0.4c-0.4,0-0.8-0.2-1.1-0.4c-0.5-0.4-0.8-1.1-0.8-2c0-0.8,0.3-1.6,0.8-2c0.3-0.2,0.7-0.4,1.1-0.4
		c0.4,0,0.8,0.2,1.1,0.4h0C40.7,4.2,41,5,41,5.8C41,6.6,40.7,7.3,40.1,7.7z M49,11.1v3.3h-1.3V11c0-0.4,0-0.7-0.3-0.8
		c-0.1,0-0.3,0-0.4,0.1c-0.2,0.2-0.3,0.4-0.3,0.7v3.4h-1.2v-1.2c-0.2,0.6-1,1.3-1.8,1.3c-0.8,0-2.1-0.3-2.1-2.3c0-1.8,1.3-2.4,2-2.4
		c0.5,0,0.9,0.1,1.1,0.5c0.2,0.3,0.2,0.7,0,1c-0.3,0.3-1,0.2-1.1-0.2c-0.1-0.4,0.1-0.5,0.3-0.7c0.1-0.1,0.1-0.3-0.2-0.3
		c-0.4,0-0.6,0.4-0.7,1c-0.1,0.8-0.1,1.6,0,2.3c0.1,0.5,0.2,0.9,0.8,0.9c0.9,0,1.7-1,1.7-2.2V8.9h1.2v1.3c0.2-0.2,0.5-0.4,0.9-0.4
		C48.4,9.7,49,10.2,49,11.1L49,11.1z M51.4,14.4H50v-1.7h0.3c0.2,0.9,0.5,1.4,1.2,1.5c0.4,0,0.8-0.2,0.8-0.7c0-0.4-0.3-0.7-1-1.1
		c-0.8-0.4-1.2-0.7-1.2-1.3c0-0.8,0.6-1.3,1.6-1.3h1.3V11h-0.3c-0.1-0.5-0.4-0.9-0.9-1c-0.4,0-0.7,0.2-0.7,0.5
		c0,0.3,0.1,0.6,0.7,0.9c0.8,0.4,1.5,0.6,1.5,1.6C53.1,13.9,52.2,14.4,51.4,14.4z M54.4,8h-1.2V4.6c0-0.4,0-0.7-0.3-0.8
		c-0.1,0-0.3,0-0.4,0.1c-0.2,0.2-0.3,0.4-0.3,0.7V8h-1.2V4.6c0-0.4,0-0.7-0.3-0.8c-0.1,0-0.3,0-0.4,0.1C50,4.1,50,4.3,50,4.6V8h-1.2
		V3.5h1.1V4c0.1-0.3,0.5-0.6,1-0.6c0.6,0,1,0.2,1.2,0.6c0.1-0.3,0.5-0.6,1-0.6c0.8,0,1.3,0.4,1.3,1.4V8z M58.7,8h-1.2V7.5
		c-0.1,0.4-0.5,0.6-1.1,0.6c-0.4,0-1.2-0.2-1.2-1.3c0-1,0.7-1.2,1.4-1.5c0.7-0.3,0.8-0.3,0.8-0.6V4.1c0-0.3-0.2-0.4-0.5-0.4
		c-0.1,0-0.4,0.1-0.4,0.3c0,0.2,0.2,0.2,0.3,0.5c0,0.5-0.4,0.6-0.7,0.6c-0.3,0-0.5-0.1-0.6-0.5c0-0.6,0.7-1.1,1.7-1.1
		c0.5,0,0.8,0.1,1,0.2c0.3,0.2,0.5,0.4,0.5,1V8z M63.3,8h-1.3V4.6c0-0.4,0-0.7-0.3-0.8c-0.1,0-0.3,0-0.4,0.1
		c-0.2,0.2-0.3,0.4-0.3,0.7V8h-1.2V3.5H61V4c0.1-0.3,0.5-0.6,1-0.6c0.8,0,1.3,0.4,1.3,1.4V8z"/>
</g>
</svg>
