<?xml version="1.0" encoding="utf-8"?>
<!-- Generator: Adobe Illustrator 26.0.1, SVG Export Plug-In . SVG Version: 6.00 Build 0)  -->
<svg version="1.1" id="Layer_1" xmlns="http://www.w3.org/2000/svg" xmlns:xlink="http://www.w3.org/1999/xlink" x="0px" y="0px"
	 viewBox="0 0 95 35" style="enable-background:new 0 0 95 35;" xml:space="preserve">
<style type="text/css">
	.st0{fill:#343741;}
</style>
<g id="layer4">
	<path id="path970" class="st0" d="M8.6,0.7v18.6c0,0.2,0.1,0.3,0.3,0.3h3.2c0.3,0,0.4-0.1,0.3-0.3V12c0-0.3,0.1-0.3,0.3-0.3H21
		c0.2,0,0.3,0.1,0.3,0.3v7.3c0,0.3,0.2,0.4,0.4,0.4h3.1c0.2,0,0.4-0.1,0.4-0.4V0.7c0-0.3-0.2-0.4-0.4-0.4h-3.1
		c-0.3,0-0.4,0.1-0.4,0.4v7.1c0,0.3-0.1,0.3-0.3,0.3h-8.2c-0.2,0-0.3-0.1-0.3-0.3V0.6c0-0.3-0.2-0.3-0.3-0.3H8.9
		C8.7,0.4,8.6,0.5,8.6,0.7z"/>
	<path id="path974" class="st0" d="M42.7,7.2l2.7-1.4c0.2-0.1,0.2-0.2,0.1-0.4c-3.1-6.9-12.6-6.5-16.1-2.1c-3.6,4.7-2.7,10,0,13.4
		c4.1,4.8,12.7,4.7,16.1-2.1c0.1-0.2,0.1-0.4-0.1-0.5l-2.8-1.3c-0.2-0.1-0.4-0.1-0.5,0.2c-2.1,3.7-5.9,4.1-8.7,2.3
		c-3.1-2.1-3.7-7.9,0-10.6C36.1,3,40,3.2,42.2,7C42.3,7.2,42.5,7.3,42.7,7.2z"/>
	<path id="path978" class="st0" d="M46,19.6h3.3c0.2,0,0.3-0.1,0.4-0.3l1.4-3.9c0.1-0.2,0.2-0.3,0.4-0.3h2.5c1.9,0,2.9-1.1,3.2-3.2
		c0-0.2-0.1-0.3-0.2-0.3h-4.1c-0.2,0-0.3-0.1-0.3-0.3l2.5-6.7c0-0.2,0.3-0.2,0.4,0l5.5,14.8c0.1,0.2,0.2,0.3,0.4,0.3h3.4
		c0.3,0,0.3-0.2,0.2-0.5L57.9,0.7c-0.1-0.3-0.2-0.3-0.4-0.3h-4.1c-0.2,0-0.3,0.1-0.4,0.3L45.8,19C45.7,19.4,45.7,19.6,46,19.6
		L46,19.6z"/>
	<path id="path982" class="st0" d="M75.6,0.3v5.3c-0.1,2.3-1.8,3.3-3.3,3.3H67c-0.1,0-0.3,0-0.3-0.4c0.2-1.7,1.3-2.2,2.7-2.2h2.2
		c0.8,0,1.5-0.7,1.4-1.4V2.4c0-1.3,1.1-2.2,2.2-2.4C75.5,0,75.6,0.1,75.6,0.3z"/>
	<path id="path982-7" class="st0" d="M67,10.7h5.3c2.3,0.1,3.3,1.8,3.3,3.3v5.4c0,0.1,0,0.3-0.4,0.3c-1.7-0.2-2.2-1.3-2.2-2.7v-2.2
		c0-0.8-0.7-1.5-1.4-1.4H69c-1.3,0-2.2-1.1-2.4-2.2C66.7,10.9,66.8,10.8,67,10.7L67,10.7z"/>
	<path id="path982-7-9" class="st0" d="M77.4,19.4v-5.3c0.1-2.3,1.8-3.3,3.3-3.3H86c0.1,0,0.3,0,0.3,0.4c-0.2,1.7-1.3,2.2-2.7,2.2
		h-2.2c-0.8,0-1.5,0.7-1.4,1.4v2.5c0,1.3-1.1,2.2-2.2,2.4C77.5,19.7,77.4,19.6,77.4,19.4L77.4,19.4z"/>
	<path id="path982-7-9-8" class="st0" d="M86,8.9h-5.3c-2.3-0.1-3.3-1.8-3.3-3.3V0.3c0-0.1,0-0.3,0.4-0.3c1.7,0.2,2.2,1.3,2.2,2.7
		v2.2c0,0.8,0.7,1.5,1.4,1.4h2.5c1.3,0,2.2,1.1,2.4,2.2C86.3,8.8,86.2,8.9,86,8.9L86,8.9z"/>
	<g id="g932">
		<g id="text848" transform="matrix(1.638627,0,0,1.638627,-27.727291,-187.41638)">
			<path id="path883" class="st0" d="M29.6,135.5h-3v-0.4c0.1,0,0.2,0,0.4,0c0.2,0,0.3,0,0.3-0.1c0.1,0,0.2-0.1,0.2-0.2
				c0-0.1,0.1-0.2,0.1-0.3V132h-3.4v2.5c0,0.1,0,0.2,0.1,0.3c0,0.1,0.1,0.2,0.2,0.2c0.1,0,0.2,0.1,0.3,0.1c0.2,0,0.3,0,0.4,0.1v0.4
				h-3v-0.4c0.1,0,0.2,0,0.4,0c0.2,0,0.3,0,0.3-0.1c0.1,0,0.2-0.1,0.2-0.2c0-0.1,0.1-0.2,0.1-0.3v-5.3c0-0.1,0-0.2-0.1-0.3
				c0-0.1-0.1-0.2-0.2-0.2c-0.1,0-0.2-0.1-0.3-0.1c-0.1,0-0.2-0.1-0.3-0.1v-0.4h3v0.4c-0.1,0-0.2,0-0.4,0c-0.1,0-0.2,0.1-0.3,0.1
				c-0.1,0-0.2,0.1-0.2,0.2c0,0.1-0.1,0.2-0.1,0.3v2.3h3.4v-2.2c0-0.1,0-0.2-0.1-0.3c0-0.1-0.1-0.2-0.2-0.2c-0.1,0-0.2-0.1-0.3-0.1
				c-0.1,0-0.2-0.1-0.3-0.1v-0.4h3v0.4c-0.1,0-0.2,0-0.4,0c-0.1,0-0.2,0.1-0.3,0.1c-0.1,0-0.2,0.1-0.2,0.2c0,0.1-0.1,0.2-0.1,0.3
				v5.3c0,0.1,0,0.2,0.1,0.3c0,0.1,0.1,0.2,0.2,0.2c0.1,0,0.2,0.1,0.3,0.1c0.2,0,0.3,0,0.4,0.1L29.6,135.5z"/>
		</g>
		<g id="text854" transform="matrix(1.6420119,0,0,1.6420119,-58.019207,-184.75231)">
			<path id="path886" class="st0" d="M52.3,132.5c-0.2,0.4-0.5,0.7-0.9,1c-0.4,0.2-0.8,0.4-1.2,0.4c-0.4,0-0.8-0.1-1.1-0.2
				c-0.3-0.1-0.6-0.3-0.8-0.6c-0.2-0.2-0.3-0.5-0.4-0.9c-0.1-0.3-0.1-0.7-0.1-1c0-0.3,0.1-0.7,0.2-1c0.1-0.3,0.3-0.6,0.5-0.9
				c0.2-0.2,0.4-0.4,0.7-0.6c0.3-0.2,0.6-0.2,1-0.2c0.4,0,0.7,0.1,1,0.2c0.3,0.1,0.5,0.3,0.6,0.5c0.2,0.2,0.3,0.4,0.4,0.7
				c0.1,0.3,0.1,0.5,0.1,0.9v0.3h-3.4c0,0.3,0,0.6,0.1,0.9c0.1,0.3,0.2,0.5,0.3,0.7c0.1,0.2,0.3,0.4,0.5,0.5
				c0.2,0.1,0.5,0.2,0.8,0.2c0.3,0,0.6-0.1,0.8-0.2c0.2-0.1,0.4-0.4,0.6-0.8L52.3,132.5z M51.2,130.5c0-0.2,0-0.4-0.1-0.6
				c0-0.2-0.1-0.4-0.2-0.6c-0.1-0.2-0.2-0.3-0.3-0.4s-0.3-0.1-0.5-0.1c-0.4,0-0.7,0.2-0.9,0.5c-0.2,0.3-0.4,0.7-0.4,1.3H51.2z"/>
		</g>
		<g id="text860" transform="matrix(1.6376859,0,0,1.6376859,-75.236305,-183.35465)">
			<path id="path889" class="st0" d="M68.1,133.1c-0.2,0.1-0.3,0.1-0.4,0.1c-0.1,0-0.3,0.1-0.4,0.1c-0.3,0-0.5-0.1-0.6-0.2
				c-0.2-0.1-0.3-0.3-0.3-0.6h0c-0.2,0.2-0.5,0.4-0.7,0.6c-0.3,0.1-0.6,0.2-0.9,0.2c-0.4,0-0.7-0.1-0.9-0.4
				c-0.2-0.2-0.4-0.5-0.4-0.9c0-0.2,0-0.4,0.1-0.5c0.1-0.2,0.1-0.3,0.2-0.4c0.1-0.1,0.2-0.2,0.3-0.3c0.1-0.1,0.3-0.1,0.4-0.2
				c0.2-0.1,0.5-0.2,0.9-0.3c0.5-0.2,0.8-0.3,1-0.4v-0.5c0,0,0-0.1,0-0.3c0-0.1-0.1-0.2-0.1-0.4c-0.1-0.1-0.2-0.2-0.3-0.3
				c-0.1-0.1-0.3-0.1-0.5-0.1c-0.2,0-0.3,0-0.4,0.1c-0.1,0.1-0.2,0.1-0.3,0.2c0,0.1,0,0.2,0,0.3c0,0.1,0.1,0.3,0.1,0.4
				c0,0.1-0.1,0.2-0.2,0.3c-0.1,0.1-0.3,0.1-0.4,0.1c-0.2,0-0.3-0.1-0.4-0.2c-0.1-0.1-0.1-0.3-0.1-0.4c0-0.2,0.1-0.3,0.2-0.5
				c0.1-0.1,0.3-0.3,0.4-0.4c0.2-0.1,0.3-0.2,0.6-0.2c0.2-0.1,0.4-0.1,0.6-0.1c0.3,0,0.5,0,0.8,0.1c0.2,0,0.4,0.1,0.6,0.3
				c0.2,0.1,0.3,0.3,0.4,0.5c0.1,0.2,0.1,0.5,0.1,0.8c0,0.5,0,0.9,0,1.3c0,0.4,0,0.8,0,1.2c0,0.1,0,0.2,0.1,0.3
				c0,0.1,0.1,0.1,0.2,0.2c0.1,0,0.1,0,0.2,0.1c0.1,0,0.2,0,0.3,0L68.1,133.1z M66.3,130.3c-0.3,0.1-0.5,0.2-0.8,0.3
				c-0.2,0.1-0.4,0.2-0.6,0.3c-0.2,0.1-0.3,0.3-0.4,0.4c-0.1,0.2-0.1,0.3-0.1,0.6c0,0.3,0.1,0.5,0.2,0.6c0.2,0.1,0.3,0.2,0.6,0.2
				c0.2,0,0.5-0.1,0.6-0.2c0.2-0.1,0.3-0.3,0.5-0.4L66.3,130.3z"/>
		</g>
		<path id="text866" class="st0" d="M48.5,23.8v9.5c0,0.2,0,0.4-0.1,0.5c-0.1,0.1-0.2,0.2-0.4,0.3c-0.1,0-0.2,0.1-0.4,0.1
			c-0.1,0-0.3,0-0.4,0v0.6h4.1v-0.6c-0.2,0-0.3,0-0.4-0.1c-0.1,0-0.3-0.1-0.4-0.1c-0.2-0.1-0.3-0.2-0.4-0.3
			c-0.1-0.1-0.1-0.3-0.1-0.5v-4.8c0.1-0.1,0.1-0.2,0.2-0.4c0.1-0.1,0.2-0.3,0.4-0.4c0.2-0.1,0.4-0.2,0.7-0.3
			c0.3-0.1,0.5-0.1,0.8-0.1c0.4,0,0.7,0.2,1,0.5c0.3,0.3,0.4,0.8,0.4,1.4v4.3c0,0.2,0,0.4-0.1,0.5c-0.1,0.1-0.2,0.2-0.3,0.3
			c-0.1,0-0.2,0.1-0.4,0.1c-0.2,0-0.3,0-0.4,0v0.6h4.1v-0.6c-0.2,0-0.3,0-0.4-0.1c-0.1,0-0.2-0.1-0.3-0.1c-0.2-0.1-0.3-0.2-0.4-0.3
			c-0.1-0.1-0.1-0.3-0.1-0.5v-4.3c0-0.9-0.2-1.6-0.6-2c-0.4-0.5-1-0.7-1.7-0.7c-0.4,0-0.7,0-1,0.1c-0.3,0.1-0.5,0.2-0.8,0.3
			c-0.2,0.2-0.4,0.3-0.6,0.5c-0.2,0.1-0.3,0.3-0.5,0.5h0v-3.8L48.5,23.8z M42.5,23.8v2.6H41v0.8h1.5v5.7c0,0.6,0.1,1.1,0.4,1.5
			c0.3,0.4,0.8,0.5,1.5,0.5c0.5,0,0.9-0.1,1.2-0.2c0.3-0.1,0.7-0.2,1-0.4v-0.6c-0.1,0-0.3,0.1-0.6,0.1c-0.3,0-0.5,0-0.6,0
			c-0.3,0-0.5,0-0.7-0.1c-0.2-0.1-0.3-0.2-0.4-0.4c-0.1-0.2-0.2-0.4-0.2-0.6c0-0.2,0-0.5,0-0.9v-4.7h2.4v-0.8H44v-2.6L42.5,23.8z"/>
		<g id="text872" transform="matrix(1.6706868,0,0,1.6706868,-151.74173,-199.3091)">
			<path id="path892" class="st0" d="M127.1,140.2c-0.7,0-1.3-0.2-1.7-0.7c-0.4-0.5-0.6-1.1-0.6-2c0-0.4,0.1-0.7,0.2-1
				c0.1-0.3,0.3-0.6,0.5-0.9c0.2-0.2,0.5-0.4,0.8-0.6c0.3-0.2,0.6-0.2,1-0.2c0.5,0,0.9,0.1,1.2,0.4c0.3,0.2,0.5,0.6,0.5,1
				c0,0.2,0,0.3-0.1,0.5c-0.1,0.1-0.2,0.2-0.4,0.2c-0.2,0-0.4-0.1-0.5-0.2c-0.1-0.1-0.2-0.2-0.2-0.3c0-0.2,0-0.3,0.1-0.5
				c0-0.2,0.1-0.3,0.1-0.4c-0.1-0.1-0.2-0.2-0.3-0.2c-0.1,0-0.3-0.1-0.4-0.1c-0.2,0-0.3,0-0.5,0.1c-0.1,0.1-0.3,0.2-0.4,0.4
				c-0.1,0.2-0.2,0.4-0.3,0.7c-0.1,0.3-0.1,0.6-0.1,1c0,0.6,0.1,1.2,0.4,1.6c0.3,0.4,0.7,0.6,1.1,0.6c0.3,0,0.6-0.1,0.8-0.2
				c0.2-0.2,0.4-0.4,0.6-0.7l0.3,0.2c-0.2,0.4-0.5,0.7-0.9,1C127.8,140.1,127.4,140.2,127.1,140.2L127.1,140.2z"/>
			<path id="path894" class="st0" d="M134.1,140c-0.2,0.1-0.3,0.1-0.4,0.1c-0.1,0-0.3,0.1-0.4,0.1c-0.3,0-0.5-0.1-0.6-0.2
				c-0.2-0.1-0.3-0.3-0.3-0.6h0c-0.2,0.2-0.5,0.4-0.7,0.6c-0.3,0.1-0.6,0.2-0.9,0.2c-0.4,0-0.7-0.1-0.9-0.4
				c-0.2-0.2-0.4-0.5-0.4-0.9c0-0.2,0-0.4,0.1-0.5c0.1-0.2,0.1-0.3,0.2-0.4c0.1-0.1,0.2-0.2,0.3-0.3c0.1-0.1,0.3-0.1,0.4-0.2
				c0.2-0.1,0.5-0.2,0.9-0.3c0.5-0.2,0.8-0.3,1-0.4v-0.5c0,0,0-0.1,0-0.3c0-0.1-0.1-0.2-0.1-0.4c-0.1-0.1-0.2-0.2-0.3-0.3
				c-0.1-0.1-0.3-0.1-0.5-0.1c-0.2,0-0.3,0-0.4,0.1c-0.1,0.1-0.2,0.1-0.3,0.2c0,0.1,0,0.2,0,0.3c0,0.1,0.1,0.3,0.1,0.4
				c0,0.1-0.1,0.2-0.2,0.3c-0.1,0.1-0.3,0.1-0.4,0.1c-0.2,0-0.3-0.1-0.4-0.2c-0.1-0.1-0.1-0.3-0.1-0.4c0-0.2,0.1-0.3,0.2-0.5
				c0.1-0.1,0.3-0.3,0.4-0.4c0.2-0.1,0.3-0.2,0.6-0.2c0.2-0.1,0.4-0.1,0.6-0.1c0.3,0,0.5,0,0.8,0.1c0.2,0,0.4,0.1,0.6,0.3
				c0.2,0.1,0.3,0.3,0.4,0.5c0.1,0.2,0.1,0.5,0.1,0.8c0,0.5,0,0.9,0,1.3c0,0.4,0,0.8,0,1.2c0,0.1,0,0.2,0.1,0.3
				c0,0.1,0.1,0.1,0.2,0.2c0.1,0,0.1,0,0.2,0.1c0.1,0,0.2,0,0.3,0L134.1,140z M132.3,137.3c-0.3,0.1-0.5,0.2-0.8,0.3
				c-0.2,0.1-0.4,0.2-0.6,0.3c-0.2,0.1-0.3,0.3-0.4,0.4c-0.1,0.2-0.1,0.3-0.1,0.6c0,0.3,0.1,0.5,0.2,0.6c0.2,0.1,0.3,0.2,0.6,0.2
				c0.2,0,0.5-0.1,0.6-0.2c0.2-0.1,0.3-0.3,0.5-0.4L132.3,137.3z"/>
		</g>
		<g id="text878" transform="matrix(1.6385919,0,0,1.6385919,-178.57082,-191.3134)">
			<path id="path897" class="st0" d="M157.3,133.5c0,0.2,0,0.3-0.1,0.5c-0.1,0.1-0.2,0.2-0.4,0.2c-0.2,0-0.3,0-0.4-0.1
				c-0.1-0.1-0.1-0.2-0.1-0.3c0-0.1,0-0.1,0-0.2c0-0.1,0-0.1,0-0.2c-0.2,0-0.4,0.1-0.6,0.2s-0.4,0.3-0.6,0.6v3c0,0.1,0,0.2,0.1,0.3
				c0,0.1,0.1,0.1,0.2,0.2c0.1,0,0.2,0.1,0.3,0.1c0.1,0,0.3,0,0.4,0v0.3h-2.7v-0.3c0.1,0,0.2,0,0.2,0c0.1,0,0.2,0,0.2,0
				c0.1,0,0.2-0.1,0.2-0.2c0-0.1,0.1-0.2,0.1-0.3v-3.1c0-0.1,0-0.2-0.1-0.3c0-0.1-0.1-0.2-0.2-0.2c-0.1,0-0.1-0.1-0.2-0.1
				c-0.1,0-0.2,0-0.3,0v-0.3l1.7-0.1l0.1,0.1v0.7h0c0.2-0.3,0.5-0.5,0.7-0.6c0.3-0.1,0.5-0.2,0.7-0.2c0.2,0,0.4,0.1,0.5,0.2
				C157.2,133.1,157.3,133.3,157.3,133.5L157.3,133.5z"/>
			<path id="path899" class="st0" d="M161.8,136.8c-0.2,0.4-0.5,0.7-0.9,1c-0.4,0.2-0.8,0.4-1.2,0.4c-0.4,0-0.8-0.1-1.1-0.2
				c-0.3-0.1-0.6-0.3-0.8-0.6c-0.2-0.2-0.3-0.5-0.4-0.9c-0.1-0.3-0.1-0.7-0.1-1c0-0.3,0.1-0.7,0.2-1c0.1-0.3,0.3-0.6,0.5-0.9
				c0.2-0.2,0.4-0.4,0.7-0.6c0.3-0.2,0.6-0.2,1-0.2c0.4,0,0.7,0.1,1,0.2c0.3,0.1,0.5,0.3,0.6,0.5c0.2,0.2,0.3,0.4,0.4,0.7
				c0.1,0.3,0.1,0.5,0.1,0.9v0.3h-3.4c0,0.3,0,0.6,0.1,0.9c0.1,0.3,0.2,0.5,0.3,0.7c0.1,0.2,0.3,0.4,0.5,0.5
				c0.2,0.1,0.5,0.2,0.8,0.2c0.3,0,0.6-0.1,0.8-0.2c0.2-0.1,0.4-0.4,0.6-0.8L161.8,136.8z M160.7,134.8c0-0.2,0-0.4-0.1-0.6
				c0-0.2-0.1-0.4-0.2-0.6c-0.1-0.2-0.2-0.3-0.3-0.4c-0.1-0.1-0.3-0.1-0.5-0.1c-0.4,0-0.7,0.2-0.9,0.5c-0.2,0.3-0.4,0.7-0.4,1.3
				H160.7z"/>
		</g>
		<path id="text937" class="st0" d="M38.1,24.3v9c0,0.2,0,0.4-0.1,0.5c-0.1,0.1-0.2,0.2-0.4,0.3c-0.1,0-0.2,0.1-0.4,0.1
			c-0.1,0-0.3,0-0.4,0v0.6h4v-0.6c-0.2,0-0.3,0-0.4-0.1c-0.1,0-0.2-0.1-0.4-0.1c-0.2-0.1-0.3-0.2-0.4-0.3c-0.1-0.1-0.1-0.3-0.1-0.5
			v-8.9L38.1,24.3z"/>
		<path id="text866-2" class="st0" d="M50,22.6l-3.1,0.2v0.5c0.2,0,0.4,0,0.6,0.1c0.3,0,0.4,0.1,0.5,0.2c0.1,0.1,0.3,0.2,0.3,0.4
			c0.1,0.2,0.1,0.4,0.1,0.6v1.4h1.6v-3.2L50,22.6z M42.5,24.7v1.1H44v-1.1H42.5z"/>
		<path id="text937-8" class="st0" d="M39.6,22.5l-3.1,0.2v0.5c0.2,0,0.4,0,0.6,0.1c0.3,0.1,0.5,0.1,0.6,0.2
			c0.1,0.1,0.3,0.2,0.3,0.4c0.1,0.2,0.1,0.4,0.1,0.6v8.1h1.6v-9.9L39.6,22.5z"/>
	</g>
	<path id="path1106" class="st0" d="M74.8,9.5c0.5-0.4,1-0.8,1.4-1.4c0.2-0.3,0.4-0.3,0.7,0c0.3,0.5,0.7,1,1.3,1.3
		c0.4,0.3,0.3,0.5,0,0.7c-0.5,0.4-0.9,0.8-1.2,1.2c-0.2,0.3-0.5,0.3-0.7,0c-0.4-0.5-0.8-0.9-1.3-1.3C74.6,10,74.5,9.8,74.8,9.5
		L74.8,9.5z"/>
</g>
</svg>
