<?xml version="1.0" encoding="utf-8"?>
<!-- Generator: Adobe Illustrator 26.0.1, SVG Export Plug-In . SVG Version: 6.00 Build 0)  -->
<svg version="1.1" id="Layer_1" xmlns="http://www.w3.org/2000/svg" xmlns:xlink="http://www.w3.org/1999/xlink" x="0px" y="0px"
	 viewBox="0 0 95 35" style="enable-background:new 0 0 95 35;" xml:space="preserve">
<style type="text/css">
	.st0{fill-rule:evenodd;clip-rule:evenodd;fill:#343741;}
</style>
<g>
	<path class="st0" d="M63.2,33.2c0.1,0,0.3,0,0.3-0.2c0-0.1-0.1-0.2-0.2-0.2H63l0,0.4H63.2z"/>
	<path class="st0" d="M63.2,34.1c0.4,0,0.8-0.3,0.8-0.8c0-0.5-0.4-0.8-0.8-0.8c-0.5,0-0.8,0.4-0.8,0.8
		C62.4,33.8,62.8,34.1,63.2,34.1z M63.3,32.7c0.3,0,0.4,0.1,0.4,0.3c0,0.2-0.1,0.3-0.3,0.3l0.3,0.5h-0.2l-0.3-0.5H63l0,0.5h-0.2
		l0-1.1H63.3z"/>
	<path class="st0" d="M36.3,34.1l-5.4-5.4c-0.4-0.4-0.4-0.5-0.9-0.2c0,0,0,0,0,0V35h6.5c0,0,0,0,0,0C36.8,34.5,36.7,34.5,36.3,34.1z
		"/>
	<path class="st0" d="M63.8,4.8L65,6V0h-6.1l1.3,1.3c0.1,0.1,0.2,0.3-0.1,0.6c-0.2,0.2-0.3,0.1-0.5,0c-1.1-0.6-2.1-0.5-3.2,0.2
		l-0.6-0.6L57.3,0H30v27.3l2.5-2.5c0,0,0.4-0.4,0.7-0.1c0.1,0.1,0.1,0.3,0.1,0.5c-0.2,0.5-0.2,0.5,0.2,0.9l5.4,5.4
		c0.4,0.4,0.4,0.5,0.9,0.2c0.2-0.1,0.4-0.1,0.5,0.1c0.3,0.3,0,0.7-0.1,0.7L37.7,35h10c0,0,0-0.1,0.1-0.1c0.1-0.1-0.1-0.3-0.2-0.4
		l-3-3c-0.1-0.1-0.2-0.3-0.4-0.2c-0.2,0.1-0.3,0.2-0.4,0c-0.2-0.2,0-0.3,0.1-0.4l1.5-1.5l4.3,4.3L48.4,35H65V18.4l-1.4,1.4
		c0,0-0.2,0.2-0.4,0c-0.1-0.1-0.1-0.2,0-0.3c0.1-0.3,0.1-0.3-0.1-0.5l-3.7-3.7l1.4-1.4l3.7,3.7c0.2,0.2,0.2,0.3,0.5,0.1v-10
		l-1.5,1.5l-0.6-0.6c0.7-0.9,0.8-2.1,0.3-3.3c-0.1-0.2-0.2-0.5,0-0.6C63.5,4.4,63.8,4.7,63.8,4.8z M59,2.6c0.3-0.3,0.6,0.1,0.7,0.2
		L62,5.1c0.1,0.1,0.5,0.4,0.2,0.7c-0.2,0.2-0.4,0.1-0.7,0c-0.5-0.3-1.1-0.5-1.6-0.2l-0.6-0.6c0.3-0.5,0.1-1.1-0.2-1.6
		C58.9,3.1,58.8,2.9,59,2.6z M51.4,5.8c0,0,0.4-0.4,0.7-0.1c0.1,0.1,0.1,0.3,0.1,0.5C52,6.7,52,6.8,52.4,7.2l5.4,5.4
		c0.4,0.4,0.4,0.5,0.9,0.2c0.2-0.1,0.4-0.1,0.5,0.1c0.3,0.3,0,0.7-0.1,0.7l-2.9,2.9c0,0-0.4,0.4-0.7,0.1c-0.1-0.1-0.1-0.3-0.1-0.5
		c0.2-0.5,0.2-0.5-0.2-0.9l-4.8-4.8l4.2,7.7l-0.3,0.3l-8.5-4.2c-0.2-0.1-0.4-0.2-0.6-0.3c-0.2-0.1-0.4-0.1-0.6,0
		c-0.1,0.1-0.4,0.4-0.7,0.1c-0.3-0.3,0-0.6,0.1-0.8l2.6-2.6l4.3,2.1l0,0l-2.2-4.1L51.4,5.8z M51.3,26.2c-0.1-0.1-0.1-0.3,0-0.4
		c0.2-0.2,0.4,0.1,0.4,0.1l1.3,1.3c0,0,0.3,0.2,0.1,0.4c-0.1,0.1-0.2,0.1-0.4,0c-0.3-0.2-0.6-0.3-0.9-0.1l-0.4-0.4
		C51.6,26.8,51.5,26.5,51.3,26.2z M51.9,25.4c-0.1,0.1-0.2,0.1-0.3,0c-0.6-0.3-1.2-0.3-1.8,0.1l-0.3-0.3l1.3-1.3L52,25
		C52,25.1,52.1,25.2,51.9,25.4z M47.6,22.7l-5.4-5.4c-0.3-0.3-0.6-0.5-1.3-0.2l-0.6-0.6c2.4-2,5.2-1.2,7.2,0.8
		c2.1,2.1,2.8,4.8,0.8,7.2L47.8,24C48.2,23.3,47.9,23,47.6,22.7z M50.6,18.9l-3.5-3.5l0,0l2.3,1.1l1.8,1.8c1.5,1.1,1.7,0.1,2.2,0.5
		c0.3,0.3-0.1,0.7-0.2,0.8l-1.2,1.2c-0.1,0.1-0.5,0.6-0.8,0.2C50.6,20.6,51.7,20.4,50.6,18.9z M46.6,6.8c0-0.1-0.1-0.2,0-0.3
		c0.2-0.2,0.3,0,0.3,0l1.1,1.1l-1.3,1.3l-0.3-0.3C46.9,8,46.9,7.3,46.6,6.8z M46.1,7C46,7.1,45.9,7,45.8,7c-0.3-0.2-0.6-0.3-0.9-0.1
		l-0.3-0.3c0.2-0.3,0.1-0.6-0.1-0.9c-0.1-0.1-0.1-0.2,0-0.4c0.2-0.2,0.3,0.1,0.4,0.1L46,6.6C46.1,6.6,46.3,6.8,46.1,7z M44,3.5
		l1.1,1.1c0,0,0.1,0.1,0,0.3c-0.1,0.1-0.2,0.1-0.3,0c-0.6-0.3-1.1-0.3-1.7,0.1l-0.3-0.3L44,3.5z M41.1,6.4L42.5,5L46.6,9l-1.4,1.4
		c0,0-0.2,0.2-0.4,0c-0.1-0.1-0.1-0.2,0-0.3c0.1-0.3,0.1-0.3-0.1-0.5l-2.9-2.9c-0.2-0.2-0.2-0.2-0.5-0.1c-0.1,0-0.2,0-0.3,0
		C40.9,6.6,41,6.4,41.1,6.4z M39,8.5l1.5-1.5c0,0,0.2-0.2,0.4,0C41,7,41,7,40.9,7.1c-0.1,0.3-0.1,0.3,0.1,0.5l2.9,2.9
		c0.2,0.2,0.2,0.2,0.5,0.1c0.1,0,0.2,0,0.3,0c0.2,0.2,0,0.3,0,0.4l-1.5,1.5c0,0-0.2,0.2-0.4,0c-0.1-0.1-0.1-0.2,0-0.3
		c0.1-0.3,0.1-0.3-0.1-0.5l-1.3-1.3L40.8,11l-0.3-0.3l0.5-0.5L39.7,9c-0.2-0.2-0.2-0.2-0.5-0.1c-0.1,0-0.2,0-0.3,0
		C38.8,8.7,39,8.5,39,8.5z M36.9,10.5L38.5,9c0,0,0.2-0.2,0.4,0c0.1,0.1,0.1,0.2,0,0.3c-0.1,0.3-0.1,0.3,0.1,0.5l2.9,2.9
		c0.2,0.2,0.2,0.2,0.5,0.1c0.1,0,0.2,0,0.3,0c0.2,0.2,0,0.3,0,0.4L41,14.6c0,0-0.2,0.2-0.4,0c-0.1-0.1-0.1-0.2,0-0.3
		c0.1-0.3,0.1-0.3-0.1-0.5L37.6,11c-0.2-0.2-0.2-0.2-0.5-0.1c-0.1,0-0.2,0-0.3,0C36.7,10.7,36.9,10.5,36.9,10.5z M36.6,10.9l1.3,1.3
		c0,0,0.1,0.2,0,0.3c-0.2,0.2-0.3,0-0.5-0.1c-0.3-0.2-0.8-0.5-1.3-0.4l-0.3-0.3L36.6,10.9z M35.5,11.9l3.5,3.5
		c0.2,0.2,0.2,0.2,0.5,0.1c0.1,0,0.2,0,0.3,0c0.2,0.2,0,0.3,0,0.4l-1.5,1.5c0,0-0.2,0.2-0.4,0c-0.1-0.1-0.1-0.2,0-0.3
		c0.1-0.3,0.1-0.3-0.1-0.5l-3.5-3.5L35.5,11.9z M33.2,14.3l0.8-0.8l0.3,0.3c-0.1,0.5,0.2,0.9,0.4,1.3c0.1,0.1,0.2,0.3,0.1,0.5
		c-0.2,0.2-0.3,0-0.3,0L33.2,14.3z M44.1,28.6l-2.9,2.9c0,0-0.4,0.4-0.7,0.1c-0.1-0.1-0.1-0.3-0.1-0.5c0.2-0.5,0.2-0.5-0.2-0.9
		l-2.5-2.5l-0.9,0.9L36.3,28l0.9-0.9l-2.3-2.3c-0.4-0.4-0.4-0.5-0.9-0.2c-0.2,0.1-0.4,0.1-0.5-0.1c-0.3-0.3,0-0.7,0.1-0.7l2.9-2.9
		c0,0,0.4-0.4,0.7-0.1c0.1,0.1,0.1,0.3,0.1,0.5c-0.2,0.5-0.2,0.5,0.2,0.9l5.4,5.4c0.4,0.4,0.4,0.5,0.9,0.2c0.2-0.1,0.4-0.1,0.5,0.1
		C44.5,28.2,44.2,28.6,44.1,28.6z M40.8,24.2c-2.1-2.1-2.8-4.8-0.8-7.2l0.6,0.6c-0.3,0.7,0,1,0.2,1.3l5.4,5.4
		c0.3,0.3,0.6,0.5,1.3,0.2l0.6,0.6C45.6,27,42.8,26.3,40.8,24.2z M49.9,33.5l-0.3-0.3c0.3-0.4,0-0.8-0.2-1l-2.5-2.5
		c-0.2-0.2-0.6-0.5-1-0.2l-0.3-0.3c1-1,2.5-1.1,4.1,0.3C51,30.7,50.9,32.5,49.9,33.5z M52.1,31.3c0,0-0.2,0.2-0.4,0
		c-0.1-0.1-0.1-0.2,0-0.3c0.1-0.3,0.1-0.3-0.1-0.5l-3-3c-0.2-0.2-0.2-0.3-0.5-0.1c-0.1,0.1-0.2,0.1-0.3,0c-0.2-0.2,0-0.4,0-0.4
		l1.5-1.5l4.3,4.3L52.1,31.3z M53.9,29.5l-0.3-0.3c0.4-0.5,0.5-1.2,0.1-1.8c0-0.1-0.1-0.3,0-0.4c0.2-0.2,0.3,0,0.4,0l1.2,1.2
		L53.9,29.5z M57.2,26.1l-1.6,1.6c0,0-0.2,0.2-0.3,0c-0.1-0.1-0.1-0.2,0-0.3c0.1-0.3,0.1-0.3-0.1-0.5l-3-3c-0.2-0.2-0.2-0.3-0.5-0.1
		c-0.1,0.1-0.2,0.1-0.3,0c-0.2-0.2,0-0.4,0-0.4l1.5-1.5l3.7,3.7c0.2,0.2,0.2,0.3,0.5,0.1c0.1-0.1,0.2-0.1,0.3,0
		C57.4,25.9,57.3,26.1,57.2,26.1z M56.8,22.2c-0.1-0.1-0.2-0.2-0.3-0.3c0.1,0.3,0.2,0.7,0.1,1.1c-0.1,0.4-0.4,0.8-0.9,1.4L55.4,24
		c0.3-0.4,0.1-0.7-0.2-0.9l-0.9-0.9c-0.3-0.3-0.6-0.4-0.9-0.2l-0.3-0.3c0.6-0.6,0.9-0.8,1.4-0.9c0.7-0.2,1.2,0,1.7,0.5
		c-0.5-1-0.5-2.1,0.3-3.1l0.3,0.3c-0.2,0.4,0,0.6,0.1,0.7l3,3c0.1,0.1,0.3,0.3,0.7,0.1l0.3,0.3C59.6,23.7,58,23.3,56.8,22.2z
		 M63.2,32.3c0.5,0,1,0.4,1,1c0,0.6-0.5,1-1,1c-0.5,0-1-0.4-1-1C62.2,32.7,62.7,32.3,63.2,32.3z M59.4,15.9c-0.1,0.5,0.2,1,0.5,1.3
		c0.1,0.1,0.2,0.3,0.1,0.5c0.3,0.2,0.5,0.4,0.7,0.6c1.2,1.2,1.6,2.7,0.5,4.1L60.8,22c0.2-0.4,0-0.6-0.1-0.7l-3-3
		c-0.1-0.1-0.3-0.3-0.7-0.1l-0.3-0.3c0.8-0.7,1.7-0.8,2.5-0.5l-0.9-0.9l0.8-0.8L59.4,15.9z M63.2,14.5c-0.2,0.2-0.3,0-0.5-0.1
		c-0.4-0.3-0.8-0.6-1.3-0.5l-0.3-0.3l0.8-0.8l1.4,1.4C63.3,14.2,63.4,14.3,63.2,14.5z M63,9.7l-2.7,2.7c0,0-0.4,0.4-0.7,0.1
		c-0.1-0.1-0.1-0.3-0.1-0.5c0.2-0.5,0.2-0.5-0.2-0.9l-5.4-5.4c-0.4-0.4-0.4-0.5-0.9-0.2c-0.2,0.1-0.4,0.1-0.5-0.1
		c-0.3-0.3,0-0.7,0.1-0.7L55.3,2L63,9.7z"/>
</g>
</svg>
