<?xml version="1.0" encoding="utf-8"?>
<!-- Generator: Adobe Illustrator 26.0.1, SVG Export Plug-In . SVG Version: 6.00 Build 0)  -->
<svg version="1.1" id="Layer_1" xmlns="http://www.w3.org/2000/svg" xmlns:xlink="http://www.w3.org/1999/xlink" x="0px" y="0px"
	 viewBox="0 0 95 35" style="enable-background:new 0 0 95 35;" xml:space="preserve">
<style type="text/css">
	.st0{fill:#FFFFFF;}
</style>
<g id="XMLID_1_">
	<path id="XMLID_5_" class="st0" d="M21.4,22.3h0.2l0.4,0.5l0.4-0.5h0.1v1h-0.1v-0.8L21.9,23h0l-0.4-0.5v0.8h-0.1 M20.7,22.4h-0.3
		v-0.1h0.8v0.1h-0.3v0.9h-0.1V22.4z"/>
	<path id="XMLID_6_" class="st0" d="M9.8,14.4c-6.7,0-9.3,6.4-9.3,6.4V13H19v7.6C19,20.6,16.5,14.4,9.8,14.4"/>
	<path id="XMLID_7_" class="st0" d="M9.8,10.1c-6.7,0-9.3-6.3-9.3-6.3v7.6H19V3.8C19,3.8,16.5,10.1,9.8,10.1"/>
	<path id="XMLID_8_" class="st0" d="M0.7,13v7.8c0,0-0.1,0.6-0.5,2.5H0V12.6"/>
	<path id="XMLID_9_" class="st0" d="M19.4,23.3c-0.4-1.8-0.5-2.3-0.5-2.3v-8l0.7-0.3v10.6"/>
	<path id="XMLID_10_" class="st0" d="M19.4,1.3c-0.4,1.8-0.5,2.3-0.5,2.3v7.8l0.7,0.5V1.3"/>
	<path id="XMLID_11_" class="st0" d="M0.7,11.5V3.4c0,0-0.1-0.2-0.5-2.1H0V12"/>
	<polyline id="XMLID_12_" class="st0" points="18.9,11.3 0.7,11.3 0,12 19.5,12 	"/>
	<polyline id="XMLID_13_" class="st0" points="0,12.6 0.7,13.3 18.9,13.3 19.5,12.6 	"/>
	<path id="XMLID_14_" class="st0" d="M19.3,1.3c-0.4,1.9-2.7,8.4-9.6,8.4c-6.8,0-9.1-6.4-9.5-8.4H0.1c0.2,2,0.5,3,0.5,3s2.4,6,9.1,6
		c6.7,0,9.1-6,9.1-6s0.3-1.1,0.5-3"/>
	<path id="XMLID_15_" class="st0" d="M0.7,20.2c0,0-0.3,1.1-0.5,3h0.1c0.4-1.9,2.7-8.4,9.5-8.4c6.8,0,9.1,6.4,9.6,8.4h0.1
		c-0.2-2-0.5-3-0.5-3s-2.4-6-9.1-6C3,14.3,0.7,20.2,0.7,20.2"/>
	<polygon id="XMLID_16_" class="st0" points="38.3,23.1 38.3,17 30,17 30,23.1 29,23.1 29,10 30,10 30,16.1 38.3,16.1 38.3,10 
		39.2,10 39.2,23.1 38.3,23.1 	"/>
	<polygon id="XMLID_17_" class="st0" points="43.2,23.1 43.2,10 44.1,10 44.1,23.1 43.2,23.1 	"/>
	<polygon id="XMLID_18_" class="st0" points="48.1,23.1 48.1,10 49.1,10 49.1,22.2 56.6,22.2 56.6,23.1 48.1,23.1 	"/>
	<polygon id="XMLID_19_" class="st0" points="62.2,10.9 62.2,23.1 61.2,23.1 61.2,10.9 56.7,10.9 56.7,10 66.7,10 66.7,10.9 	"/>
	<path id="XMLID_22_" class="st0" d="M74.5,23.3c-3.9,0-6.5-3.2-6.5-6.7v0c0-3.6,2.6-6.8,6.5-6.8c3.9,0,6.5,3.2,6.5,6.7v0
		C81,20.1,78.4,23.3,74.5,23.3z M80,16.5c0-3.2-2.3-5.9-5.5-5.9c-3.2,0-5.5,2.6-5.5,5.9v0c0,3.2,2.3,5.9,5.5,5.9
		C77.7,22.4,80,19.8,80,16.5L80,16.5z"/>
	<polygon id="XMLID_23_" class="st0" points="94.3,23.1 85.2,11.5 85.2,23.1 84.3,23.1 84.3,10 85.2,10 94.1,21.4 94.1,10 95,10 
		95,23.1 94.3,23.1 	"/>
	<polygon id="XMLID_24_" class="st0" points="35.6,33.6 35.3,33.6 33.5,28.1 31.8,33.6 31.4,33.6 29.3,27.2 29.8,27.2 31.6,32.9 
		33.4,27.2 33.7,27.2 35.5,32.9 37.3,27.2 37.8,27.2 	"/>
	<path id="XMLID_27_" class="st0" d="M41.5,33.7c-1.8,0-3-1.5-3-3.3v0c0-1.7,1.2-3.3,3-3.3c1.8,0,3,1.5,3,3.3v0
		C44.5,32.1,43.3,33.7,41.5,33.7z M44.1,30.4c0-1.6-1.1-2.9-2.5-2.9c-1.5,0-2.5,1.3-2.5,2.8v0c0,1.6,1.1,2.9,2.5,2.9
		C43,33.2,44.1,32,44.1,30.4L44.1,30.4z"/>
	<path id="XMLID_30_" class="st0" d="M50.3,33.6l-1.9-2.6h-1.9v2.6H46v-6.3h2.5c1.3,0,2.1,0.7,2.1,1.8v0c0,1.1-0.7,1.7-1.7,1.8
		l2,2.7L50.3,33.6L50.3,33.6z M50.2,29c0-0.9-0.6-1.4-1.7-1.4h-2v2.9h2C49.5,30.5,50.2,30,50.2,29L50.2,29L50.2,29z"/>
	<polygon id="XMLID_31_" class="st0" points="52.2,33.6 52.2,27.2 52.6,27.2 52.6,33.1 56.1,33.1 56.1,33.6 	"/>
	<path id="XMLID_34_" class="st0" d="M59.4,33.6h-2v-6.3h2c1.9,0,3.2,1.4,3.2,3.2v0C62.6,32.2,61.3,33.6,59.4,33.6z M62.1,30.4
		c0-1.5-1-2.7-2.7-2.7h-1.5v5.5h1.5C61.1,33.1,62.1,31.9,62.1,30.4L62.1,30.4z"/>
	<polygon id="XMLID_35_" class="st0" points="69.7,33.6 69.3,33.6 67.6,28.1 65.8,33.6 65.5,33.6 63.3,27.2 63.8,27.2 65.7,32.9 
		67.4,27.2 67.8,27.2 69.5,32.9 71.4,27.2 71.8,27.2 	"/>
	<rect id="XMLID_36_" x="73.2" y="27.2" class="st0" width="0.4" height="6.3"/>
	<path id="XMLID_39_" class="st0" d="M77.5,33.6h-2v-6.3h2c1.9,0,3.2,1.4,3.2,3.2v0C80.6,32.2,79.3,33.6,77.5,33.6z M80.2,30.4
		c0-1.5-1-2.7-2.7-2.7h-1.5v5.5h1.5C79.1,33.1,80.2,31.9,80.2,30.4L80.2,30.4z"/>
	<polygon id="XMLID_40_" class="st0" points="82.1,33.6 82.1,27.2 86.4,27.2 86.4,27.6 82.6,27.6 82.6,30.1 86,30.1 86,30.6 
		82.6,30.6 82.6,33.1 86.4,33.1 86.4,33.6 	"/>
</g>
</svg>
