<?xml version="1.0" encoding="utf-8"?>
<!-- Generator: Adobe Illustrator 26.0.1, SVG Export Plug-In . SVG Version: 6.00 Build 0)  -->
<svg version="1.1" id="Layer_1" xmlns="http://www.w3.org/2000/svg" xmlns:xlink="http://www.w3.org/1999/xlink" x="0px" y="0px"
	 viewBox="0 0 95 35" style="enable-background:new 0 0 95 35;" xml:space="preserve">
<style type="text/css">
	.st0{fill:#343741;}
</style>
<g>
	<path class="st0" d="M7.6,4.3h4.2v13.8H7.6v-6.3H4.3v6.3H0V4.3h4.3v5.8h3.3V4.3z M23.8,10.3c0.8,1.3,0.9,3.3,0.3,4.8
		s-1.6,2.3-2.4,2.7c-0.7,0.4-1.9,0.6-3,0.6c-1.1,0-2.6-0.3-3.6-1c-1-0.8-1.6-1.6-1.9-2.8c-0.3-1.2-0.5-3.2,0.8-4.8
		c1.2-1.6,2.8-1.9,3.5-2c0.7-0.1,1.1-0.1,1.1-0.1c0,0,1.4-0.1,2.5,0.4C22.2,8.5,23.1,9,23.8,10.3z M20.2,11.7c0-0.8-0.1-1.4-0.3-1.6
		C19.8,9.5,19.4,9,18.8,9c-0.1,0-0.1,0-0.2,0c-0.3,0.1-0.7,0.4-0.9,1.1c-0.3,0.5-0.3,1.4-0.3,2.6c0,0.3,0,0.7,0,1.1
		c0,1.8,0.1,2.4,0.5,2.9c0.2,0.3,0.5,0.5,0.8,0.6c0.3,0,0.5,0,0.7-0.2c0.6-0.5,0.8-1.7,0.8-2C20.2,14.7,20.2,13.1,20.2,11.7z
		 M34.6,8.1c-1.4-0.6-2.8-0.3-3.6,0.1c-0.8,0.4-1.3,1.2-1.3,1.2V8h-4v10.1h4v-7.2c0-0.1,0.5-0.7,1-1c0.5-0.3,1.2-0.1,1.4,0.1
		c0.3,0.4,0.3,0.8,0.3,1.1v7h3.9v-7.7C36.3,9.9,36,8.7,34.6,8.1z M48.2,10.4c0.8,1.4,0.7,3.3,0.6,3.3h-7.1v2c0,0,0.1,0.4,0.2,0.6
		c0.1,0.2,0.7,1.1,2.7,0.8c2.1-0.3,2.1-1.9,2.1-1.9h1.7c0,0,0,1-0.7,1.7c-0.7,0.7-2,1.4-3.4,1.5s-3.4,0.2-5-1.2
		c-0.9-0.8-1.4-1.6-1.6-2.4c-0.3-1-0.4-2.8,0.4-4.4c0.8-1.6,2.8-2.9,5.3-2.7C45.9,7.8,47.3,8.7,48.2,10.4z M44.7,11.4
		c0-0.5-0.1-1.1-0.1-1.3v0c-0.1-0.2-0.1-0.5-0.5-0.9c-0.4-0.4-1.1-0.4-1.4-0.1c-0.3,0.2-0.6,0.7-0.7,1.3c-0.1,0.5-0.1,1.6-0.1,1.8
		h2.9C44.7,12.2,44.7,11.9,44.7,11.4z M84.3,10.4c0.8,1.4,0.7,3.3,0.6,3.3h-7.1v2c0,0,0.1,0.4,0.2,0.6c0.1,0.2,0.7,1.1,2.7,0.8
		c2.1-0.3,2.1-1.9,2.1-1.9h1.7c0,0,0,1-0.7,1.7c-0.7,0.7-2,1.4-3.4,1.5c-1.4,0.1-3.4,0.2-5-1.2c-0.9-0.8-1.4-1.6-1.6-2.4
		c-0.3-1-0.4-2.8,0.4-4.4c0.8-1.6,2.8-2.9,5.3-2.7C82.1,7.8,83.5,8.7,84.3,10.4z M80.9,11.4c0-0.5-0.1-1.1-0.1-1.3v0
		c-0.1-0.2-0.1-0.5-0.5-0.9c-0.4-0.4-1.1-0.4-1.4-0.1c-0.3,0.2-0.6,0.7-0.7,1.3c-0.1,0.5-0.1,1.6-0.1,1.8h2.9
		C80.9,12.2,80.9,11.9,80.9,11.4z M72.1,8l-1.5,5.7L68.9,8h-3.5l-1.5,5.7L62.1,8h-5.4l-2,4.8L52.8,8h-4.3l4,10.3c0,0,0,0.1-0.1,0.4
		c-0.1,0.3-0.4,1-0.9,1.6c-0.5,0.5-1,0.4-1,0.4s0.2-0.2,0.3-0.5c0.1-0.3,0.1-0.8-0.1-1.3c-0.2-0.5-0.8-0.8-1.8-0.7
		c-0.9,0.2-1.4,1.1-1.3,1.9s0.6,1.5,2,1.8c1.3,0.3,2.2-0.3,2.9-0.9c0.7-0.7,1.3-2.4,1.3-2.4l4.2-10.3l3,9.7h3.4l1.6-5.8l1.8,5.8h3.3
		l2.8-10.1L72.1,8L72.1,8z M86.2,18.1H90V4.3h-3.8V18.1z M91.2,4.3v13.8H95V4.3H91.2z"/>
	<g>
		<path class="st0" d="M3.3,26.3v0.3H1.8v4H1.5v-4H0v-0.3H3.3z"/>
		<path class="st0" d="M7.5,28.6H4.9v2H4.5v-4.3h0.4v2h2.6v-2h0.4v4.3H7.5C7.5,30.6,7.5,28.6,7.5,28.6z"/>
		<path class="st0" d="M9.7,26.3h3v0.3H10v1.7h2.3v0.3H10v1.7h2.7v0.3h-3V26.3z"/>
		<path class="st0" d="M15.9,26.3h1.6c1,0,1.4,0.5,1.4,1.3c0,0.8-0.4,1.4-1.4,1.4h-1.2v1.6h-0.4V26.3z M16.3,26.6v2.1h1.3
			c0.7,0,1.1-0.4,1.1-1.1s-0.3-1-1.1-1L16.3,26.6L16.3,26.6z"/>
		<path class="st0" d="M20.1,28.5c0-1.6,0.7-2.2,1.8-2.2c1.2,0,1.9,0.6,1.9,2.2c0,1.6-0.7,2.2-1.9,2.2C20.7,30.7,20.1,30,20.1,28.5z
			 M20.4,28.5c0,1.4,0.5,1.9,1.5,1.9c1,0,1.5-0.5,1.5-1.9c0-1.4-0.5-1.9-1.5-1.9C21,26.5,20.4,27,20.4,28.5z"/>
		<path class="st0" d="M27.5,26.4l1.1,3.7l1.1-3.8H30l-1.3,4.3h-0.4l-1.1-3.7l-1.1,3.7h-0.4l-1.2-4.3H25l1.1,3.8l1.1-3.7H27.5z"/>
		<path class="st0" d="M31.2,26.3h3v0.3h-2.6v1.7h2.3v0.3h-2.3v1.7h2.7v0.3h-3C31.2,30.6,31.2,26.3,31.2,26.3z"/>
		<path class="st0" d="M35.7,26.3h1.6c1,0,1.4,0.4,1.4,1.3c0,0.7-0.3,1.1-0.9,1.3l0.9,1.7h-0.4l-0.9-1.7c0,0-0.1,0-0.1,0H36v1.7
			h-0.4L35.7,26.3L35.7,26.3z M36,26.6v2h1.3c0.7,0,1-0.3,1-1c0-0.7-0.3-1-1.1-1L36,26.6L36,26.6z"/>
		<path class="st0" d="M41.8,28.5c0-1.6,0.7-2.2,1.8-2.2c1.2,0,1.9,0.6,1.9,2.2c0,1.6-0.7,2.2-1.9,2.2C42.4,30.7,41.8,30,41.8,28.5z
			 M42.1,28.5c0,1.4,0.5,1.9,1.5,1.9c1,0,1.5-0.5,1.5-1.9c0-1.4-0.5-1.9-1.5-1.9C42.7,26.5,42.1,27,42.1,28.5z"/>
		<path class="st0" d="M47.1,26.3H50v0.3h-2.5v1.7h2.3v0.3h-2.3v2h-0.4V26.3z"/>
		<path class="st0" d="M52.7,28.5c0-1.6,0.7-2.2,2.1-2.2c0.9,0,1.4,0.3,1.7,1l-0.8,0.4c-0.2-0.4-0.4-0.5-0.9-0.5
			c-0.7,0-1.1,0.3-1.1,1.4c0,1.1,0.4,1.4,1.1,1.4c0.4,0,0.8-0.2,0.9-0.6l0.8,0.4c-0.3,0.7-0.9,1-1.8,1C53.4,30.7,52.7,30,52.7,28.5z
			"/>
		<path class="st0" d="M57.4,28.5c0-1.5,0.7-2.2,2.1-2.2c1.4,0,2.1,0.7,2.1,2.2c0,1.5-0.7,2.2-2.1,2.2C58,30.7,57.4,30,57.4,28.5z
			 M58.4,28.5c0,1.1,0.4,1.4,1.1,1.4s1.1-0.4,1.1-1.4s-0.4-1.4-1.1-1.4C58.8,27.1,58.4,27.4,58.4,28.5z"/>
		<path class="st0" d="M63.6,27.9l0,2.7h-0.9v-4.3h0.8l2.1,2.8l0-2.8h0.9v4.3h-0.9L63.6,27.9z"/>
		<path class="st0" d="M68.8,27.9l0,2.7h-0.9v-4.3h0.8l2.1,2.8l0-2.8h0.9v4.3h-0.9L68.8,27.9z"/>
		<path class="st0" d="M73.1,26.3h3.3v0.8h-2.3v0.9h2v0.8h-2v1h2.4v0.8h-3.3V26.3z"/>
		<path class="st0" d="M77.4,28.5c0-1.6,0.7-2.2,2.1-2.2c0.9,0,1.4,0.3,1.7,1l-0.8,0.4c-0.2-0.4-0.4-0.5-0.9-0.5
			c-0.7,0-1.1,0.3-1.1,1.4c0,1.1,0.4,1.4,1.1,1.4c0.4,0,0.8-0.2,0.9-0.6l0.8,0.4c-0.3,0.7-0.9,1-1.8,1C78.1,30.7,77.4,30,77.4,28.5z
			"/>
		<path class="st0" d="M85.6,26.3v0.8h-1.3v3.4h-1v-3.4H82v-0.8H85.6z"/>
		<path class="st0" d="M86.7,26.3H90v0.8h-2.3v0.9h2v0.8h-2v1h2.4v0.8h-3.3V26.3z"/>
		<path class="st0" d="M91.2,30.6v-4.3h1.8c1.3,0,1.9,0.7,1.9,2.1c0,1.4-0.7,2.2-2,2.2H91.2z M92.9,29.8c0.7,0,1.1-0.3,1.1-1.3
			c0-0.9-0.4-1.3-1-1.3h-0.8v2.6C92.2,29.8,92.9,29.8,92.9,29.8z"/>
	</g>
</g>
</svg>
