<?xml version="1.0" encoding="utf-8"?>
<!-- Generator: Adobe Illustrator 26.0.1, SVG Export Plug-In . SVG Version: 6.00 Build 0)  -->
<svg version="1.1" id="Layer_1" xmlns="http://www.w3.org/2000/svg" xmlns:xlink="http://www.w3.org/1999/xlink" x="0px" y="0px"
	 viewBox="0 0 95 35" style="enable-background:new 0 0 95 35;" xml:space="preserve">
<style type="text/css">
	.st0{fill:#CCCCCC;}
</style>
<g>
	<path class="st0" d="M65,17.5C65,7.8,57.2,0,47.5,0c-0.3,0-0.5,0-0.8,0l-3.6,9.8h3.1c1.9,0,2.9,1.4,2.2,3.2l-4.4,12.1l-3.7,0
		l4.7-13h-2.8l-4.7,13h-3.7l5.6-15.3h0l3.4-9.2C35.4,2.7,30,9.5,30,17.5c0,8.3,5.7,15.2,13.4,17l3.2-8.9h0l5.7-15.7h6.8
		c1.9,0,2.9,1.4,2.2,3.2l-3.9,10.7c-0.3,0.8-1.2,1.5-2.1,1.5h-4.9L47,35c0.2,0,0.3,0,0.5,0C57.2,35,65,27.2,65,17.5"/>
	<path class="st0" d="M58.1,12.1h-2.8l-3.9,10.7h2.8L58.1,12.1"/>
</g>
</svg>
