<?xml version="1.0" encoding="utf-8"?>
<!-- Generator: Adobe Illustrator 26.0.1, SVG Export Plug-In . SVG Version: 6.00 Build 0)  -->
<svg version="1.1" id="Layer_1" xmlns="http://www.w3.org/2000/svg" xmlns:xlink="http://www.w3.org/1999/xlink" x="0px" y="0px"
	 viewBox="0 0 95 35" style="enable-background:new 0 0 95 35;" xml:space="preserve">
<style type="text/css">
	.st0{fill:#CCCCCC;}
</style>
<g>
	<g>
		<g>
			<g>
				<path class="st0" d="M84.5,4.1h-2.9l-0.9,5.3h1.6c1.4-1.6,2.6-5.3,2.6-5.3L84.5,4.1L84.5,4.1z"/>
			</g>
			<g>
				<path class="st0" d="M20.8,4.1H13v26.6h8.4v-3.9h-3.8c0-0.5,0-8.1,0-8.6h3.3v-3.8h-3.3V8c0.5,0,3.5,0,3.5,0V4.2L20.8,4.1
					L20.8,4.1z"/>
			</g>
			<g>
				<path class="st0" d="M80,4.1h-3.3c0,0-1,7.3-1.4,9.9C75,11.5,74,4.1,74,4.1h-4.6l3.2,18.2v8.4h4.6v-8.4l3.1-17.9l0.1-0.3L80,4.1
					L80,4.1z"/>
			</g>
			<g>
				<path class="st0" d="M10.6,4.1H6.4c0,0,0,9.6,0,10.2c-0.4,0-1.5,0-1.9,0V4.1H0v26.6h4.5c0,0,0-12.1,0-12.6h1.9v12.6h4.5V4.1
					H10.6L10.6,4.1z"/>
			</g>
			<g>
				<g>
					<path class="st0" d="M33.3,26v-6.3c0-1.5-0.6-2.7-1.8-3.4c1.3-0.7,1.9-2,1.9-3.8V8.6c0-2.7-1.5-4.5-3.9-4.5h-6.7v26.6h4.4
						c0,0,0-12,0-12.5h0.7c0.3,0,1,0,1,1.2v8.1c0,1,0.1,2.2,0.5,3.1l0.1,0.2H35C35.1,30.7,33.3,29.9,33.3,26 M29.2,13.6
						c0,1-0.9,1.1-1.3,1.1h-0.5V8.1h0.5c0.9,0,1.3,0.4,1.3,1.1V13.6L29.2,13.6z"/>
				</g>
			</g>
			<g>
				<path class="st0" d="M84.6,8.7v2.6c0,2.1,0.5,3.3,1.4,4.7c0.6,0.9,1.4,1.8,2.2,2.6l1.5,1.7c0.6,0.7,0.9,1.3,0.9,2.3v4
					c0,0.4-0.4,0.8-0.9,0.8s-0.9-0.3-0.9-0.9v-5.1h-4.4v5.3c0,2.9,2,4.6,5.2,4.6c2.6,0,5.4-1.4,5.4-4.6v-4.3c0-1.6-0.2-2.7-1.3-4.2
					c-0.6-1-1.7-2.1-2.6-3.1L90,13.9c-0.8-0.9-1.2-1.6-1.2-3.2v-2c0-0.6,0.5-0.9,0.9-0.9c0.5,0,0.8,0.3,0.8,0.9v3.9h4.2v-4
					c0-3.2-1.7-4.8-5.1-4.8C86.4,3.8,84.6,5.5,84.6,8.7"/>
			</g>
			<g>
				<path class="st0" d="M68,4.1h-7.7v26.6h8.4v-3.9h-3.8c0-0.5,0-8.1,0-8.6h3.3v-3.8h-3.3V8h3.4V4.1H68L68,4.1z"/>
			</g>
			<g>
				<path class="st0" d="M57.9,4.1h-4.2c0,0,0,9.6,0,10.2c-0.4,0-1.5,0-1.9,0c0-0.5,0-10.2,0-10.2h-4.5v26.6h4.5c0,0,0-12.1,0-12.6
					h1.9v12.6h4.5V4.1H57.9L57.9,4.1z"/>
			</g>
			<g>
				<path class="st0" d="M35.2,8.7v2.6c0,2.1,0.5,3.3,1.4,4.6c0.6,0.9,1.4,1.8,2.2,2.6l1.5,1.7c0.6,0.7,0.9,1.3,0.9,2.3v4
					c0,0.4-0.4,0.8-0.9,0.8s-0.9-0.3-0.9-0.9v-5.1H35v5.3c0,2.9,2,4.6,5.2,4.6c2.6,0,5.4-1.4,5.4-4.6v-4.3c0-1.6-0.2-2.7-1.3-4.2
					c-0.6-1-1.7-2.1-2.6-3.1l-1.1-1.2c-0.8-0.9-1.2-1.6-1.2-3.2v-2c0-0.6,0.5-0.9,0.9-0.9c0.5,0,0.8,0.3,0.8,0.9v3.9h4.2v-4
					c0-3.2-1.7-4.8-5.1-4.8C37,3.8,35.2,5.5,35.2,8.7"/>
			</g>
		</g>
	</g>
</g>
</svg>
