<?xml version="1.0" encoding="utf-8"?>
<!-- Generator: Adobe Illustrator 26.0.1, SVG Export Plug-In . SVG Version: 6.00 Build 0)  -->
<svg version="1.1" id="Layer_1" xmlns="http://www.w3.org/2000/svg" xmlns:xlink="http://www.w3.org/1999/xlink" x="0px" y="0px"
	 viewBox="0 0 95 35" style="enable-background:new 0 0 95 35;" xml:space="preserve">
<style type="text/css">
	.st0{fill:#FFFFFF;}
</style>
<g id="layer1" transform="translate(-52.557589,-193.00552)">
	<path id="path9738" class="st0" d="M79.1,205.3c-0.3,0-0.6,0.2-0.6,0.6V217c-0.8,0.2-1.7,0.3-2.6,0.3c-1.9,0-2.6-0.7-2.6-2.8v-8.6
		c0-0.3-0.2-0.6-0.5-0.6h-2.9v9.2c0,4.3,2.3,5.7,5.9,5.7c2.9,0,5.8-0.8,6.1-0.9v-14L79.1,205.3z M123.8,220c0.2,0,0.6-0.2,0.6-0.6
		v-11.2c0.8-0.2,1.7-0.3,2.6-0.3c1.9,0,2.6,0.7,2.6,2.8v8.7c0,0.3,0.2,0.6,0.5,0.6h2.9v-9.3c0-4.3-2.3-5.7-5.9-5.7
		c-2.9,0-5.8,0.8-6.1,0.9v14H123.8z M112.2,205.1c-3.8,0-6.2,2-6.2,6.5v2.2c0,4.9,2.6,6.5,5.4,6.5c1.4,0,2.8-1,3.2-1.5v0.9
		c0,0.2,0.2,0.5,0.5,0.5c0,0,2.8,0,2.9,0v-14.2C118.1,205.9,115.2,205.1,112.2,205.1z M114.7,216.5c-0.6,0.6-1.1,0.9-2.5,0.9
		c-1.9,0.1-2.8-1.1-2.8-3.7v-2c0-2.8,1.1-3.7,2.8-3.7c1.4,0,2.2,0.1,2.5,0.2V216.5z M141.6,205.1c-3.8,0-6.2,2-6.2,6.5v2.2
		c0,4.9,2.6,6.5,5.4,6.5c1.4,0,2.8-1,3.2-1.5v0.9c0,0.2,0.2,0.5,0.5,0.5c0,0,2.8,0,2.9,0v-14.2C147.6,205.9,144.7,205.1,141.6,205.1
		L141.6,205.1z M144.1,216.5c-0.6,0.6-1.1,0.9-2.5,0.9c-1.9,0-2.8-1.1-2.8-3.7v-2c0-2.9,1.1-3.7,2.8-3.7c1.4,0,2.2,0.1,2.5,0.2
		V216.5z M52.6,220c0.5,0,3.1,0,3.1,0c0.2,0,0.5-0.2,0.5-0.5v-8.1h5.7c1,0,1.6,0.7,1.6,1.5v6.6c0,0.2,0.2,0.5,0.5,0.5
		c0,0,2.9,0,3.1,0c0,0,0-19.2,0-19.3h-3.1c-0.2,0-0.5,0.2-0.5,0.5v7.3h-5.8c-0.8,0-1.4-0.6-1.4-1.4v-5.9c-0.1-0.2-0.2-0.5-0.6-0.5
		h-3.1C52.6,200.9,52.6,220,52.6,220L52.6,220z M98.3,205.1c-1.6,0-3.2,0.6-3.9,1.1c-1.1-0.8-2.5-1.1-4.3-1.1c-2.7,0-5,0.8-5.3,1v14
		h2.9c0.3,0,0.5-0.2,0.5-0.6v-11.3c0.7-0.2,1.3-0.2,1.8-0.2c2,0,2.5,0.8,2.5,2.8v8.7c0,0.2,0.2,0.6,0.5,0.6h2.4
		c0.3,0,0.5-0.2,0.5-0.6v-10.9c0.6-0.4,1.3-0.6,2-0.6c1.5,0,2.2,0.7,2.2,2.6v8.9c0,0.2,0.2,0.6,0.5,0.6c0,0,2.7,0,2.9,0v-10
		C103.6,206.4,101.3,205.1,98.3,205.1L98.3,205.1z"/>
</g>
</svg>
