<?xml version="1.0" encoding="utf-8"?>
<!-- Generator: Adobe Illustrator 26.0.1, SVG Export Plug-In . SVG Version: 6.00 Build 0)  -->
<svg version="1.1" id="Layer_1" xmlns="http://www.w3.org/2000/svg" xmlns:xlink="http://www.w3.org/1999/xlink" x="0px" y="0px"
	 viewBox="0 0 95 35" style="enable-background:new 0 0 95 35;" xml:space="preserve">
<style type="text/css">
	.st0{fill:#CCCCCC;}
</style>
<path id="path3397" class="st0" d="M30,17.4V0h17.4h17.4v10.8v10.8h-1h-1v-9.8V2.1H47.4H32v15.3v15.3h3.5H39v1v1h-4.5H30V17.4z"/>
<path id="path3919" class="st0" d="M42.3,24.5H44v10.3h-1.7V24.5"/>
<path id="path3917" class="st0" d="M54.3,24.8v1.6c-0.5-0.3-1-0.5-1.4-0.6c-0.5-0.1-1-0.2-1.5-0.2c-1.1,0-1.9,0.3-2.6,1
	c-0.6,0.7-0.9,1.7-0.9,2.9c0,1.3,0.3,2.2,0.9,2.9c0.6,0.7,1.5,1,2.6,1c0.5,0,1-0.1,1.5-0.2c0.5-0.1,1-0.3,1.4-0.6v1.6
	c-0.5,0.2-1,0.4-1.5,0.5c-0.5,0.1-1,0.2-1.6,0.2c-1.5,0-2.8-0.5-3.7-1.5s-1.4-2.3-1.4-3.9c0-1.7,0.5-3,1.4-4c0.9-1,2.2-1.4,3.8-1.4
	c0.5,0,1,0.1,1.5,0.2C53.4,24.5,53.9,24.6,54.3,24.8"/>
<path class="st0" d="M65,29.2c0-1.5-0.4-2.7-1.2-3.6c-0.8-0.9-1.9-1.3-3.3-1.3c-1.5,0-2.8,0.5-3.7,1.5c-0.9,1-1.4,2.3-1.4,4
	c0,1.6,0.5,2.9,1.4,3.9c1,1,2.3,1.4,3.9,1.4c0.7,0,1.3-0.1,1.9-0.2c0.6-0.1,1.3-0.3,1.9-0.6v-1.6c-0.6,0.3-1.2,0.6-1.8,0.7
	c-0.6,0.2-1.2,0.2-1.9,0.2c-1.1,0-2-0.3-2.6-0.9c-0.6-0.6-1-1.5-1-2.7H65V29.2z M57.3,28.7c0.1-1,0.4-1.7,1-2.3
	c0.6-0.5,1.3-0.8,2.3-0.8c0.8,0,1.5,0.3,2,0.8c0.5,0.6,0.8,1.3,0.8,2.2L57.3,28.7z"/>
</svg>
