<?xml version="1.0" encoding="utf-8"?>
<!-- Generator: Adobe Illustrator 26.0.1, SVG Export Plug-In . SVG Version: 6.00 Build 0)  -->
<svg version="1.1" id="Layer_1" xmlns="http://www.w3.org/2000/svg" xmlns:xlink="http://www.w3.org/1999/xlink" x="0px" y="0px"
	 viewBox="0 0 95 35" style="enable-background:new 0 0 95 35;" xml:space="preserve">
<style type="text/css">
	.st0{fill:#CCCCCC;}
</style>
<g id="layer1" transform="translate(328.30067,-304.86947)">
	<g id="g4614" transform="translate(0.26458452,-0.26457483)">
		<path id="path4554" class="st0" d="M-328.1,319.8h2.5V333h-2.5V319.8z"/>
		<path id="path4556" class="st0" d="M-321.4,311.9h2.5V333h-2.5L-321.4,311.9z"/>
		<path id="path4558" class="st0" d="M-314.6,311.9h2.5V333h-2.5L-314.6,311.9z"/>
		<path id="path4560" class="st0" d="M-296.7,333h-2.5v-2h0c-0.6,1.4-2.3,2.4-4.4,2.4c-2.6,0-4.8-1.5-4.8-5.1v-8.5h2.5v7.8
			c0,2.5,1.4,3.4,3,3.4c2.1,0,3.7-1.4,3.7-4.4v-6.8h2.5L-296.7,333L-296.7,333z"/>
		<path id="path4562" class="st0" d="M-293.5,319.8h2.4v2.1h0c0.3-0.8,1.9-2.4,4.2-2.4c1.9,0,3.3,0.8,4.1,2.5
			c0.9-1.6,2.6-2.5,4.2-2.5c4.1,0,5,2.9,5,5.9v7.7h-2.5v-7.4c0-2-0.4-3.9-2.9-3.9c-2.5,0-3.4,1.7-3.4,4v7.2h-2.5v-6.9
			c0-2.5-0.4-4.3-2.8-4.3c-1.8,0-3.4,1.4-3.4,4.4v6.9h-2.5L-293.5,319.8z"/>
		<path id="path4564" class="st0" d="M-270,319.8h2.5V333h-2.5V319.8z"/>
		<path id="path4566" class="st0" d="M-263.8,319.8h2.5v2h0c0.6-1.4,2.3-2.4,4.4-2.4c2.6,0,4.8,1.5,4.8,5.1v8.5h-2.5v-7.8
			c0-2.5-1.4-3.4-3-3.4c-2.1,0-3.7,1.4-3.7,4.4v6.8h-2.5L-263.8,319.8L-263.8,319.8z"/>
		<path id="path4568" class="st0" d="M-240.3,326.7v0.8c0,1.8-1,3.9-3.8,3.9c-1.7,0-2.8-0.6-2.8-2.2c0-2.1,2.9-2.5,5.3-2.5
			L-240.3,326.7z M-247.2,323c0.9-0.7,1.9-1.5,3.8-1.5c2.2,0,3.2,1.4,3.2,2.8v0.6h-1.9c-4,0-7.3,1.2-7.3,4.6c0,2.6,2.1,4,4.6,4
			c2,0,3.5-0.6,4.7-2.4h0c0,0.7,0,1.4,0.1,2h2.2c-0.1-0.7-0.1-1.5-0.1-2.4v-6.8c0-2.3-1.6-4.4-5.5-4.4c-1.9,0-3.9,0.6-5.2,1.9
			L-247.2,323z"/>
		<path id="path4570" class="st0" d="M-326.9,313.5c-0.9,0-1.7,0.8-1.7,1.7c0,0.9,0.8,1.7,1.7,1.7c0.9,0,1.7-0.8,1.7-1.7
			C-325.2,314.2-325.9,313.5-326.9,313.5z"/>
		<path id="path4572" class="st0" d="M-236.1,320.2h0.4v-0.8h0.3l0.5,0.8h0.4l-0.6-0.9c0.3,0,0.5-0.2,0.5-0.6c0-0.4-0.3-0.6-0.7-0.6
			h-0.8V320.2z M-235.7,318.4h0.3c0.3,0,0.5,0,0.5,0.3c0,0.3-0.3,0.3-0.5,0.3h-0.3V318.4z M-237.2,319.2c0,1,0.8,1.8,1.8,1.8
			c1,0,1.8-0.8,1.8-1.8c0-1-0.8-1.8-1.8-1.8C-236.4,317.4-237.2,318.2-237.2,319.2z M-236.9,319.2c0-0.8,0.7-1.5,1.5-1.5
			c0.8,0,1.5,0.7,1.5,1.5c0,0.8-0.7,1.5-1.5,1.5C-236.2,320.7-236.9,320-236.9,319.2z"/>
	</g>
</g>
</svg>
