<?xml version="1.0" encoding="utf-8"?>
<!-- Generator: Adobe Illustrator 26.0.1, SVG Export Plug-In . SVG Version: 6.00 Build 0)  -->
<svg version="1.1" id="Layer_1" xmlns="http://www.w3.org/2000/svg" xmlns:xlink="http://www.w3.org/1999/xlink" x="0px" y="0px"
	 viewBox="0 0 95 35" style="enable-background:new 0 0 95 35;" xml:space="preserve">
<style type="text/css">
	.st0{fill:#CCCCCC;}
</style>
<g>
	<path class="st0" d="M36.6,14.8v8.6h-2.7V12.6l5.6,0c2.4,0,3.2,1.7,3.2,3.2v7.5H40v-7.5c0-0.6-0.3-1-1.1-1H36.6z M55.2,14.7
		c-0.9,0-1.7,0.5-2,1.1C53,16.2,53,16.5,52.9,17h4.2C57.1,15.8,56.5,14.7,55.2,14.7 M52.9,18.9c0,1.4,0.9,2.4,2.4,2.4
		c1.2,0,1.8-0.3,2.5-1l1.7,1.6c-1.1,1.1-2.2,1.7-4.2,1.7c-2.6,0-5.1-1.4-5.1-5.6c0-3.5,2.2-5.6,5-5.6c2.9,0,4.6,2.4,4.6,5.4v1H52.9
		 M47.9,23.4c-2.2,0-3.2-1.5-3.2-3.1V9.7h2.7v2.9h2.1v2.2h-2.1v5.3c0,0.6,0.3,1,0.9,1h1.1v2.3H47.9 M31.4,11.2h-2.7V8.5h2.7V11.2z
		 M31.5,23.5c-2.1-0.2-2.8-1.4-2.8-2.9l0-8h2.8V23.5z M64.2,23.3c-2.1-0.2-2.7-1.4-2.7-2.9V8.2h2.7V23.3z M73.8,9.9
		C71.3-2.2,47.7-3,32.5,6.3v1c15.2-7.8,36.7-7.8,38.7,3.4c0.7,3.7-1.4,7.6-5.2,9.8v2.9C70.5,21.8,75.1,16.5,73.8,9.9 M46.2,31.2
		c-10.5,1-21.4-0.6-23-8.7c-0.7-4,1.1-8.3,3.5-11V10c-4.4,3.9-6.8,8.7-5.4,14.5c1.8,7.4,11.1,11.6,25.5,10.2
		c5.7-0.6,13.1-2.4,18.2-5.2v-4C60.4,28.3,52.6,30.6,46.2,31.2 M21,0"/>
</g>
</svg>
