<?xml version="1.0" encoding="utf-8"?>
<!-- Generator: Adobe Illustrator 26.0.1, SVG Export Plug-In . SVG Version: 6.00 Build 0)  -->
<svg version="1.1" id="Layer_1" xmlns="http://www.w3.org/2000/svg" xmlns:xlink="http://www.w3.org/1999/xlink" x="0px" y="0px"
	 viewBox="0 0 95 35" style="enable-background:new 0 0 95 35;" xml:space="preserve">
<style type="text/css">
	.st0{fill:#CCCCCC;}
</style>
<g>
	<path class="st0" d="M63.8,30.9h-2.5c-0.5,0-0.9-0.3-0.9-0.8l0-1c-1.8,1.5-4,2.2-6.2,2.2c-4.4,0-6.2-2.8-6.2-7V12.8
		c0-0.7,0.4-0.9,1-0.9h2.7c0.6,0,1,0.2,1,0.9v10.8c0,2.2,0.5,3.6,2.9,3.6c1.5,0,3.4-0.8,4.5-1.9V12.8c0-0.7,0.4-0.9,1-0.9h2.8
		c0.6,0,1,0.2,1,0.9v17C64.8,30.6,64.6,30.9,63.8,30.9L63.8,30.9z M0,12.6c0-0.5,0.2-0.8,0.7-0.8H4c0.5,0,0.7,0.3,0.7,0.8v17.3
		c0,0.7-0.3,1-1,1H1c-0.7,0-1-0.3-1-1V12.6z M69.7,12.6c0-0.5,0.2-0.8,0.7-0.8h3.3c0.5,0,0.7,0.3,0.7,0.8v17.3c0,0.7-0.3,1-1,1h-2.8
		c-0.7,0-1-0.3-1-1V12.6z M25.8,30.9H23c-0.7,0-0.9-0.4-0.9-1V19.2c0-2.2-0.6-3.7-3-3.7c-1.5,0-3.4,0.8-4.6,1.9v12.5
		c0,0.7-0.3,1-0.9,1h-2.9c-0.6,0-0.9-0.3-0.9-0.9V12.8c0-0.6,0.3-1,1-1h2.5c0.5,0,0.9,0.2,0.9,0.7l0,1c1.8-1.4,4.1-2.3,6.4-2.3
		c4.4,0,6.2,2.7,6.2,7v11.5C26.7,30.5,26.5,30.9,25.8,30.9L25.8,30.9z M39.7,6.5c0-1.6-1.3-2.9-2.9-2.9c-1.6,0-2.9,1.3-2.9,2.9
		s1.3,2.9,2.9,2.9C38.5,9.4,39.7,8.1,39.7,6.5L39.7,6.5z M43.8,11.9c0.5,0,0.7,0.2,0.7,0.7v2.8c0,0.5-0.3,0.7-0.8,0.7h-4.5v13.9
		c0,0.7-0.3,1-1,1h-2.7c-0.7,0-1-0.3-1-1V16h-4.5c-0.5,0-0.8-0.3-0.8-0.7v-2.8c0-0.5,0.3-0.7,0.7-0.7L43.8,11.9z M88.4,6.5
		c0-1.6-1.3-2.9-2.9-2.9c-1.6,0-2.9,1.3-2.9,2.9s1.3,2.9,2.9,2.9C87.1,9.4,88.4,8.1,88.4,6.5z M92.5,11.9c0.5,0,0.7,0.2,0.7,0.7v2.8
		c0,0.5-0.3,0.7-0.8,0.7h-4.5v13.9c0,0.7-0.3,1-1,1h-2.7c-0.7,0-1-0.3-1-1l0-13.9h-4.5c-0.5,0-0.8-0.3-0.8-0.7v-2.8
		c0-0.5,0.3-0.7,0.7-0.7L92.5,11.9z M93.7,28.5c0.7,0,1.3,0.5,1.3,1.3c0,0.7-0.6,1.3-1.3,1.3c-0.7,0-1.3-0.5-1.3-1.3
		C92.4,29,93,28.5,93.7,28.5z M93.7,30.8c0.6,0,1-0.5,1-1.1c0-0.6-0.5-1.1-1-1.1c-0.6,0-1,0.5-1,1.1C92.7,30.4,93.1,30.8,93.7,30.8
		L93.7,30.8z M93.2,29h0.6c0.4,0,0.5,0.1,0.5,0.4c0,0.3-0.2,0.4-0.4,0.4l0.4,0.7h-0.2l-0.4-0.6h-0.2v0.6h-0.2L93.2,29L93.2,29z
		 M93.5,29.7h0.2c0.2,0,0.4,0,0.4-0.2c0-0.2-0.2-0.2-0.3-0.2h-0.3L93.5,29.7L93.5,29.7z"/>
</g>
</svg>
