<?xml version="1.0" encoding="utf-8"?>
<!-- Generator: Adobe Illustrator 26.0.1, SVG Export Plug-In . SVG Version: 6.00 Build 0)  -->
<svg version="1.1" id="Layer_1" xmlns="http://www.w3.org/2000/svg" xmlns:xlink="http://www.w3.org/1999/xlink" x="0px" y="0px"
	 viewBox="0 0 95 35" style="enable-background:new 0 0 95 35;" xml:space="preserve">
<style type="text/css">
	.st0{fill:#343741;}
</style>
<g>
	<polygon class="st0" points="10.4,1.4 0,33.6 1.7,33.6 12.1,1.4 	"/>
	<polygon class="st0" points="13,1.4 2.7,33.6 4.3,33.6 14.7,1.4 	"/>
	<polygon class="st0" points="15.7,1.4 5.4,33.6 6.9,33.6 17.3,1.4 	"/>
	<polygon class="st0" points="18.3,1.4 8,33.6 9.5,33.6 19.9,1.4 	"/>
	<polygon class="st0" points="21.5,1.4 19.4,7.7 29.7,7.7 21.4,33.6 31,33.6 39.4,7.7 47.7,7.7 49.8,1.4 	"/>
	<path class="st0" d="M86.4,2.8h6L77.2,32.1h-6.6l0.5-22.6V8.4c0-0.8-0.3-0.6-0.4-0.4c-0.1,0.1-0.8,1.3-1,1.9
		c-0.3,0.5-1.9,3.7-2.6,5.1c-0.8,1.4-3,5.5-3.6,6.7c-1.3,2.2-4.4,7.9-4.4,7.9l-0.6,1.1l-0.9,1.6h-7l1.2-29.3h6.6L58.1,7
		c0,0.7-0.4,5.1-0.6,6.8c-0.1,1.6-0.4,4.2-0.5,5.5c-0.2,1.3-0.4,2.9-0.5,4c-0.2,1.1-0.2,1.5-0.2,1.7c-0.1,0.3,0.3,0.4,0.5,0
		c0.2-0.4,1.2-2.3,1.7-3.5c0.7-1.2,1.4-2.5,1.4-2.5l0.6-1.1l8.2-15.1H76l-0.9,21.5c0,0.5-0.1,0.8,0,0.9c0.1,0.2,0.3,0.1,0.5-0.2
		c0.1-0.2,0.2-0.4,0.2-0.4L86.4,2.8z M95,1.4h-9.5l-7.1,14.5c0,0-1.1,2.4-1.4,3.2c-0.3,0.9-0.6,1.6-0.6,1.6s0.2-1.4,0.3-2.3
		c0.2-1,0.2-2,0.3-2.8v-0.8l0.6-13.3h-9.9L61,13.9c0,0-0.4,0.6-0.6,0.9c0,0-0.4,0.9-0.8,1.6c-0.3,0.7-0.5,1.2-1,2.1
		c-0.3,0.7-0.7,1.9-0.7,1.9s0.4-1.4,0.5-2.2c0.2-0.9,0.3-1.5,0.3-1.5c0-0.5,0.1-1.2,0.1-1.2l1.3-14.1h-9.7l-1.3,32.3h9.4l9.2-17.1
		c0,0,0.5-0.9,0.7-1.2c0,0,0.4-0.7,0.7-1.4c0.2-0.8,0.6-1.6,0.6-1.6s-0.1,0.8-0.2,1.4c0,0.5-0.1,1.2-0.1,1.2v1.3L69,33.6h9L95,1.4z"
		/>
</g>
</svg>
