<?xml version="1.0" encoding="utf-8"?>
<!-- Generator: Adobe Illustrator 26.0.1, SVG Export Plug-In . SVG Version: 6.00 Build 0)  -->
<svg version="1.1" id="Layer_1" xmlns="http://www.w3.org/2000/svg" xmlns:xlink="http://www.w3.org/1999/xlink" x="0px" y="0px"
	 viewBox="0 0 95 35" style="enable-background:new 0 0 95 35;" xml:space="preserve">
<style type="text/css">
	.st0{fill:#FFFFFF;}
</style>
<g>
	<polygon class="st0" points="48,0 44.2,0.8 41.9,4.6 40.4,7.7 37.3,10.7 37.3,12.3 35,14.5 34.3,13.8 28.1,16.8 26.6,17.6 
		26.6,20.7 28.3,21.5 31.2,20.1 35,20.7 35,22.2 35,23.7 37.3,24.5 40.4,21.4 42.7,21.4 42.7,23 41.9,24.5 43,26 46.5,24.5 
		45.7,22.2 46.5,18.4 48,18.4 48,19.9 50.3,20.7 51.1,23 52.6,24.5 54.1,23 58.7,21.4 57.2,19.9 55.7,16.8 54.1,16.8 54.9,19.1 
		55.7,19.9 54.1,21.4 52.6,21.4 51.1,18.4 51.1,16.8 48,13.8 49.5,12.3 46.5,9.2 48,7.7 48,4.6 49.5,3.1 51.8,5.4 51.1,7.7 
		52.6,9.2 55.7,13.8 58.7,15.3 62.5,19.1 64.8,19.9 64.8,21.4 66.4,21.4 67.9,19.9 64.8,18.4 64.1,16.1 61.8,15.3 57.2,12.3 
		52.6,7.7 52.6,4.6 49.5,1.5 49.5,0 	"/>
	<polygon class="st0" points="26.6,26.9 26.6,34.9 28.3,34.9 28.3,26 	"/>
	<g>
		<path class="st0" d="M35.3,34.9h-1.7v-3.4c0-1.1-0.4-1.5-1.1-1.5c-0.7,0-1.1,0.3-1.1,1.4v3.5h-1.7v-6.4h1.7v0.4
			c0.3-0.3,0.8-0.6,1.5-0.6c1.6,0,2.4,1.1,2.4,2.9L35.3,34.9L35.3,34.9z"/>
		<path class="st0" d="M42.1,28.5l-2.3,6.4h-1.7l-2.3-6.4h1.8l0.9,2.9c0.2,0.5,0.3,1.1,0.4,1.4c0.1-0.3,0.2-0.9,0.4-1.4l0.9-2.9
			L42.1,28.5L42.1,28.5z"/>
		<path class="st0" d="M45.6,35c-1.9,0-3.2-1.3-3.2-3.3c0-1.9,1.4-3.3,3-3.3c1.8,0,2.9,1.5,2.9,3.3c0,0.2,0,0.3,0,0.5h-4.2
			c0.1,0.8,0.8,1.2,1.5,1.2c0.4,0,0.9-0.1,1.2-0.6l1.3,0.9C47.3,34.7,46.2,35,45.6,35 M46.6,31c-0.1-0.6-0.5-1.1-1.3-1.1
			c-0.6,0-1.1,0.5-1.2,1.1H46.6z"/>
		<path class="st0" d="M51.9,33.6c0.6,0,1-0.3,1-0.6c0-0.4-0.7-0.5-1-0.6c-1.3-0.2-2.7-0.5-2.7-2.1c0-1.2,1.2-2,2.7-2
			c0.8,0,1.7,0.3,2.3,0.7l-0.9,1.1c-0.5-0.3-1.1-0.5-1.5-0.5c-0.7,0-1,0.2-1,0.4c0,0.4,0.9,0.5,1.4,0.6c1.2,0.3,2.3,0.6,2.3,2
			c0,1.3-1.4,2.1-2.7,2.1c-1,0-2-0.4-2.7-0.9l0.8-1.1C50.5,33.3,51.2,33.6,51.9,33.6"/>
		<path class="st0" d="M58.6,30c-0.9,0-1.6,0.8-1.6,1.7s0.7,1.7,1.6,1.7c0.6,0,1.1-0.3,1.4-0.8l1.3,1c-0.6,0.8-1.6,1.4-2.7,1.4
			c-1.8,0-3.3-1.5-3.3-3.3c0-1.8,1.5-3.3,3.3-3.3c1.1,0,2.1,0.6,2.7,1.4l-1.3,1C59.7,30.3,59.2,30,58.6,30"/>
		<path class="st0" d="M68.4,31.7c0,1.8-1.5,3.3-3.3,3.3c-1.8,0-3.3-1.5-3.3-3.3c0-1.8,1.5-3.3,3.3-3.3
			C66.9,28.4,68.4,29.9,68.4,31.7 M66.7,31.7c0-0.9-0.7-1.7-1.6-1.7s-1.6,0.8-1.6,1.7s0.7,1.7,1.6,1.7S66.7,32.6,66.7,31.7"/>
	</g>
</g>
</svg>
