<?xml version="1.0" encoding="utf-8"?>
<!-- Generator: Adobe Illustrator 26.0.1, SVG Export Plug-In . SVG Version: 6.00 Build 0)  -->
<svg version="1.1" id="Layer_1" xmlns="http://www.w3.org/2000/svg" xmlns:xlink="http://www.w3.org/1999/xlink" x="0px" y="0px"
	 viewBox="0 0 95 35" style="enable-background:new 0 0 95 35;" xml:space="preserve">
<style type="text/css">
	.st0{fill-rule:evenodd;clip-rule:evenodd;fill:#343741;}
</style>
<g>
	<path class="st0" d="M21.1,34.9l-0.3,0l-0.2,0l-0.2,0l-0.2,0l-0.2,0l-0.2-0.1l-0.2-0.1l-0.2-0.1l-0.2-0.1l-0.2-0.1l-0.2-0.1
		l-0.2-0.1L18.2,34L18,33.9l-0.2-0.1l-0.2-0.2l-0.1-0.2l-0.1-0.2l-0.1-0.2l-0.1-0.2L17,32.7l-0.1-0.2l-0.1-0.2l-0.1-0.2l-0.1-0.2
		l-0.1-0.2l-0.1-0.2l0-0.2l0-0.2l0-0.3l0-0.2l0-0.3l0-0.3l0-0.2l0-0.2l0-0.2l0-0.2l0-0.2l0.1-0.2l0.1-0.2l0.1-0.2l0.1-0.2l0.1-0.2
		l0.1-0.2l0.1-0.2l0.1-0.2l0.1-0.2l0.1-0.2l0.1-0.2l0.2-0.1l0.2-0.1l0.2-0.1l0.2-0.1l0.2-0.1l0.2-0.1l0.2-0.1l0.2-0.1l0.2-0.1
		l0.2-0.1l0.2-0.1l0.2,0l0.2,0l0.2,0l0.3,0l0.2,0l0.2,0l0.2,0l0.2,0l0.2,0l0.2,0l0.2,0l0.2,0l0.2,0l0.2,0l0.2,0.1l0.2,0.1l0.2,0.1
		l0.2,0.1l0.2,0.1l0.1,0.1l-0.6,1.4l-0.3-0.1l-0.3-0.1l-0.3-0.1L21.9,27l-0.1,0l-0.1,0l-0.1,0l-0.1,0l-0.1,0l-0.1,0l-0.1,0h-0.3
		l-0.2,0l-0.2,0l-0.2,0L20,27L19.9,27l-0.1,0.1l-0.1,0.1l-0.1,0.1l-0.1,0.1l-0.1,0.1l-0.1,0.1l-0.1,0.1L19,27.6l-0.1,0.1l-0.1,0.1
		l-0.1,0.1L18.7,28l-0.1,0.1l-0.1,0.1l-0.1,0.1l-0.1,0.1l0,0.1l0,0.1l0,0.1l0,0.1l0,0.2l0,0.1l0,0.1l0,0.2l0,0.1l0,0.2l0,0.2l0,0.2
		l0,0.2l0,0.2l0,0.2l0,0.2l0,0.2l0.1,0.2l0,0.2l0.1,0.1l0.1,0.1l0.1,0.1l0.1,0.1l0.1,0.1l0.1,0.1l0.1,0.1l0.1,0.1l0.1,0.1l0.1,0.1
		l0.1,0.1l0.1,0.1l0.1,0.1l0.1,0.1l0.1,0.1l0.1,0.1l0.2,0.1l0.2,0l0.2,0l0.2,0l0.2,0l0.2,0l0.2,0l0.1,0h0.1l0.1,0l0.1,0l0.1,0l0.1,0
		l0.1,0l0.1,0l0.1,0l0.1,0l0.1,0l0.1,0l0.2-0.1l0.2-0.1l0.4,1.3l-0.1,0.1l-0.2,0.1l-0.1,0.1l-0.1,0.1l-0.2,0.1l-0.1,0l-0.2,0l-0.2,0
		l-0.2,0l-0.2,0l-0.2,0l-0.2,0l-0.2,0l-0.2,0l-0.2,0L21.1,34.9z M27.1,34.9H27l-0.2,0l-0.2,0l-0.2,0l-0.2,0l-0.2,0l-0.2-0.1
		l-0.2-0.1l-0.1-0.1l-0.2-0.1l-0.1-0.1l-0.1-0.1L25,34.2l-0.1-0.1L24.8,34l-0.1-0.1l-0.1-0.1l-0.1-0.1l-0.1-0.1l-0.1-0.1l-0.1-0.1
		l-0.1-0.1l-0.1-0.2L24,32.8l-0.1-0.2l-0.1-0.2l0-0.2l0-0.2l0-0.2l0-0.2l0-0.2v-0.4l0-0.2l0-0.2l0-0.2l0-0.2l0-0.2l0.1-0.2L24,30
		l0.1-0.2l0.1-0.2l0.1-0.1l0.1-0.1l0.1-0.1l0.1-0.1l0.1-0.1l0.1-0.1l0.1-0.1l0.1-0.1l0.1-0.1l0.1-0.1l0.1-0.1l0.1-0.1l0.2-0.1
		l0.1-0.1l0.2-0.1l0.2-0.1l0.2,0l0.2,0l0.2,0l0.2,0l0.2,0l0.2,0l0.2,0l0.2,0l0.2,0l0.2,0l0.2,0l0.2,0l0.2,0.1l0.2,0.1l0.2,0.1
		l0.1,0.1l0.1,0.1l0.1,0.1l0.1,0.1l0.1,0.1l0.1,0.1l0.1,0.1l0.1,0.1l0.1,0.1l0.1,0.1l0.1,0.1l0.1,0.1l0.1,0.1l0.1,0.2l0.1,0.2
		l0.1,0.2l0.1,0.2l0,0.2l0,0.2l0,0.2l0,0.2l0,0.2l0,0.2l0,0.2l0,0.2l0,0.2l0,0.2l0,0.2l0,0.2l-0.1,0.2l-0.1,0.2L30.2,33l-0.1,0.2
		l-0.1,0.1L30,33.4l-0.1,0.1l-0.1,0.1l-0.1,0.1l-0.1,0.1L29.5,34l-0.1,0.1l-0.1,0.1l-0.1,0.1L29,34.4l-0.1,0.1l-0.1,0.1l-0.2,0.1
		l-0.2,0.1l-0.2,0.1l-0.2,0l-0.2,0l-0.2,0l-0.2,0l-0.2,0L27.1,34.9z M27.1,29.3H27l-0.1,0l-0.1,0l-0.1,0l-0.1,0l-0.1,0l-0.1,0
		l-0.1,0l-0.1,0l-0.1,0.1l-0.1,0.1l-0.1,0.1l-0.1,0.1L26,29.8l0,0.1l0,0.1l0,0.1l0,0.1l0,0.1l0,0.1l0,0.1l0,0.1l0,0.1l0,0.1l0,0.2
		l0,0.2l0,0.2l0,0.2l0,0.2l0,0.2l0,0.2l0,0.2l0,0.1l0,0.1l0,0.1l0,0.1l0,0.1l0,0.1l0,0.1l0,0.1l0,0.1l0,0.1l0.1,0.1l0.1,0.1l0.1,0.1
		l0.1,0.1l0.1,0l0.1,0l0.1,0l0.1,0l0.1,0l0.1,0l0.1,0l0.1,0l0.1,0h0.2l0.1,0l0.1,0l0.1,0l0.1,0l0.1,0l0.1,0l0.1,0l0.1,0l0.1,0
		l0.1-0.1l0.1-0.1l0.1-0.1l0.1-0.1l0-0.1l0-0.1l0-0.1l0-0.1l0-0.1l0-0.1l0-0.1l0-0.1l0-0.1l0-0.1l0-0.2l0-0.2l0-0.2l0-0.2l0-0.2
		l0-0.2l0-0.2l0-0.2l0-0.1l0-0.1l0-0.1l0-0.1l0-0.1l0-0.1l0-0.1l0-0.1l0-0.1l0-0.1l-0.1-0.1l-0.1-0.1l-0.1-0.1L28,29.6l-0.1,0
		l-0.1,0l-0.1,0l-0.1,0l-0.1,0l-0.1,0l-0.1,0l-0.1,0l-0.1,0L27.1,29.3z M35.8,34.8v-4.3l0-0.1l0-0.1l0-0.1l0-0.1l0-0.1l0-0.1l0-0.1
		l0-0.1l0-0.1l0-0.1l0-0.1l0,0l0,0l0,0l0,0l-0.1-0.1l-0.1-0.1l-0.1-0.1l-0.1,0l-0.1,0l-0.1,0l-0.1,0l-0.1,0l-0.2,0l-0.2,0l-0.2,0
		l-0.2,0l-0.2,0l-0.2,0l-0.2,0.1l-0.2,0.1l0,0l0,0.1l0,0.1v0.1l0,4.9h-1.6v-5.3l0-0.1l0-0.2l0-0.2l0-0.2l0-0.2l0-0.1l0.4-0.1
		l0.4-0.1l0.2-0.1l0.2-0.1l0.2-0.1l0.2,0l0.2,0l0.2,0l0.2,0l0.2,0l0.2,0l0.2,0l0.2,0l0.2,0l0.2,0l0.1,0l0.1,0l0.1,0l0.1,0l0.1,0
		l0.1,0l0.1,0l0.1,0l0.1,0l0.1,0l0.1,0l0.1,0.1l0.1,0.1l0.1,0.1l0.1,0.1l0.1,0.1l0.1,0.1l0.1,0.1l0.1,0.1l0.1,0.1l0.1,0.1l0.1,0.1
		l0.1,0.1l0.1,0.1l0,0.1l0,0.1l0,0.1l0,0.1l0,0.2l0,0.2l0,0.2v4.5L35.8,34.8z M41.2,35H41l-0.1,0l-0.1,0l-0.1,0l-0.1,0l-0.1,0
		l-0.1,0l-0.1,0l-0.1,0l-0.1,0l-0.1,0l-0.1,0l-0.1,0l-0.1,0l-0.1-0.1l-0.1-0.1l-0.1-0.1l-0.1-0.1l-0.1-0.1l-0.1-0.1l-0.1-0.1l0-0.1
		l0-0.1l0-0.1l0-0.1l0-0.1l0-0.1l0-0.1l0-0.1l0-0.1l0-0.1l0-0.1v-3.7l-0.8,0v-1.3l0.8,0v-1.9h1.6V28h1.9v1.4h-1.9v3.7l0,0.1l0,0.1
		l0,0.1l0,0l0,0.1l0,0l0,0l0,0l0,0l0.1,0l0.1,0l0.1,0l0.1,0l0.1,0h0.1l0.2,0l0.2,0l0.2,0l0.1,0l0.1,0l0.1-0.1l0.2,0l0.1-0.1l0.4,1.3
		l-0.2,0.1l-0.2,0.1l-0.2,0.1l-0.2,0.1l-0.2,0.1l-0.2,0l-0.1,0l-0.1,0l-0.1,0L41.2,35z M47.4,29.4L47.4,29.4l-0.2,0l-0.1,0l-0.1,0
		l-0.1,0l-0.1,0l-0.1,0h-0.3l-0.1,0l-0.2,0l-0.2,0l-0.2,0l-0.2,0l-0.2,0l-0.1,0l0,0.1l0,0.1v5.2h-1.6v-5.1l0-0.1l0-0.2l0-0.2l0-0.2
		l0-0.1l0-0.1l0-0.1l0,0l0.4-0.2l0.4-0.1l0.2-0.1l0.2-0.1l0.2-0.1l0.2,0l0.2,0l0.2,0l0.2,0l0.2,0l0.2,0l0.2,0l0.2,0l0.2,0l0.2,0
		l0.2,0l0.2,0l0.2,0l0.2,0l0.2,0l0.2,0l0.1,0L47.4,29.4z M51.2,34.9H51l-0.2,0l-0.2,0l-0.2,0l-0.2,0l-0.2,0L50,34.7l-0.2-0.1
		l-0.1-0.1l-0.2-0.1l-0.1-0.1l-0.1-0.1l-0.1-0.1L49,34.1L48.9,34l-0.1-0.1l-0.1-0.1l-0.1-0.1l-0.1-0.1l-0.1-0.1l-0.1-0.1l-0.1-0.1
		l-0.1-0.2l-0.1-0.2L48,32.6l0-0.2l0-0.2l0-0.2l0-0.2l0-0.2l0-0.2l0-0.2l0-0.2l0-0.2l0-0.2l0-0.2l0-0.2l0-0.2l0-0.2l0.1-0.2l0.1-0.2
		l0.1-0.2l0.1-0.1l0.1-0.1l0.1-0.1l0.1-0.1l0.1-0.1l0.1-0.1l0.1-0.1l0.1-0.1l0.1-0.1l0.1-0.1l0.1-0.1l0.1-0.1l0.2-0.1l0.1-0.1
		l0.2-0.1l0.2-0.1l0.2,0l0.2,0l0.2,0l0.2,0l0.2,0l0.2,0l0.2,0l0.2,0l0.2,0l0.2,0l0.2,0l0.2,0l0.2,0.1l0.2,0.1l0.2,0.1l0.1,0.1
		l0.1,0.1l0.1,0.1l0.1,0.1l0.1,0.1l0.1,0.1l0.1,0.1l0.1,0.1l0.1,0.1l0.1,0.1l0.1,0.1l0.1,0.1l0.1,0.1l0.1,0.2l0.1,0.2l0.1,0.2l0,0.2
		l0,0.2l0,0.2l0,0.2l0,0.2l0,0.2l0,0.2l0,0.2l0,0.2l0,0.2l0,0.2l0,0.2l0,0.2l0,0.2l-0.1,0.2L54.3,33l-0.1,0.2l-0.1,0.1l-0.1,0.1
		L54,33.5l-0.1,0.1l-0.1,0.1l-0.1,0.1L53.6,34l-0.1,0.1l-0.1,0.1l-0.1,0.1l-0.1,0.1l-0.1,0.1l-0.1,0.1l-0.2,0.1l-0.2,0.1l-0.2,0.1
		l-0.2,0l-0.2,0l-0.2,0l-0.2,0l-0.2,0L51.2,34.9L51.2,34.9z M51.2,29.3h-0.1l-0.1,0l-0.1,0l-0.1,0l-0.1,0l-0.1,0l-0.1,0l-0.1,0
		l-0.1,0l-0.1,0l-0.1,0.1l-0.1,0.1l-0.1,0.1l-0.1,0.1L50,29.9l0,0.1L49.9,30l0,0.1l0,0.1l0,0.1l0,0.1l0,0.1l0,0.1l0,0.1l0,0.2l0,0.2
		l0,0.2l0,0.2l0,0.2l0,0.2l0,0.2l0,0.2l0,0.1l0,0.1l0,0.1l0,0.1l0,0.1l0,0.1l0,0.1l0.1,0.1l0,0.1l0.1,0.1l0.1,0.1l0.1,0.1l0.1,0.1
		l0.1,0.1l0.1,0l0.1,0l0.1,0l0.1,0l0.1,0l0.1,0l0.1,0l0.1,0l0.1,0h0.2l0.1,0l0.1,0l0.1,0l0.1,0l0.1,0l0.1,0l0.1,0l0.1,0l0.1,0
		l0.1-0.1l0.1-0.1l0.1-0.1l0.1-0.1l0.1-0.1l0-0.1l0-0.1l0-0.1l0-0.1l0-0.1l0-0.1l0-0.1l0-0.1l0-0.1l0-0.2l0-0.2l0-0.2v-0.4l0-0.2
		l0-0.2l0-0.2l0-0.1l0-0.1l0-0.1l0-0.1l0-0.1l0-0.1l0-0.1l0-0.1l0-0.1l-0.1-0.1l-0.1-0.1l-0.1-0.1l-0.1-0.1l-0.1-0.1l-0.1,0l-0.1,0
		l-0.1,0l-0.1,0l-0.1,0l-0.1,0l-0.1,0l-0.1,0l-0.1,0L51.2,29.3L51.2,29.3z M57.2,24.9h-1.6v9.9h1.6V24.9z M60.3,34.9h-0.2l-0.1,0
		l-0.1,0l-0.1,0l-0.1,0l-0.1,0l-0.1,0l-0.1,0l-0.3-0.1l-0.3-0.1l-0.3-0.1l-0.3-0.1l0.5-1.3l0.2,0.1l0.2,0.1l0.2,0.1l0.2,0.1l0.2,0
		l0.2,0l0.1,0l0.1,0l0.1,0l0.1,0h0.1l0.1,0l0.1,0l0.1,0l0.1,0l0.1,0l0.1,0l0.1,0l0.1,0l0.1-0.1l0-0.1l0.1-0.1l0-0.1l0-0.1l0-0.1
		l0-0.1l0-0.1l0-0.1l0-0.1l-0.1-0.1L61,32.4L61,32.3l-0.1-0.1l-0.1-0.1l-0.1-0.1l-0.1-0.1L60.4,32L60.3,32L60,31.8l-0.3-0.1
		l-0.1-0.1l-0.1-0.1l-0.1-0.1l-0.1-0.1l-0.1-0.1L59,31.3l-0.1-0.1l-0.1-0.1l-0.1-0.1l-0.1-0.1l-0.1-0.1l-0.1-0.1l0-0.2l0-0.2l0-0.2
		l0-0.2l0-0.1l0-0.1l0-0.1l0-0.1l0-0.1l0-0.1l0.1-0.1l0.1-0.1l0.1-0.1l0.1-0.1l0.1-0.1l0.1-0.1l0.1-0.1l0.1-0.1l0.1-0.1l0.1-0.1
		l0.1-0.1l0.1-0.1l0.1,0l0.1-0.1l0.1,0l0.1,0l0.1,0l0.1,0l0.1,0l0.1,0l0.1,0l0.1,0l0.1,0l0.1,0l0.1,0l0.1,0l0.1,0l0.1,0l0.1,0l0.1,0
		l0.1,0l0.1,0l0.1,0l0.1,0l0.1,0l0.1,0l0.1,0l0.1,0l0.1,0l0.1,0l0.1,0l0.1,0l-0.5,1.3l-0.2-0.1l-0.2-0.1l-0.2,0l-0.2,0l-0.2,0
		l-0.2,0l-0.2,0l-0.2,0h-0.1l-0.1,0l-0.1,0l-0.1,0l-0.1,0l-0.1,0l-0.1,0l-0.1,0l-0.1,0l-0.1,0l0,0l0,0.1l0,0.1l0,0.1l0,0.1l0,0.1
		l0,0.1l0,0.1l0,0.1l0.1,0.1l0.1,0.1l0.1,0.1l0.1,0.1l0.1,0.1l0.1,0.1l0.1,0.1l0.1,0.1l0.1,0l0.3,0.1l0.3,0.1l0.1,0.1l0.1,0.1
		l0.1,0.1l0.1,0.1l0.1,0.1l0.1,0.1l0.1,0.1l0.1,0.1l0.1,0.1l0.1,0.1l0.1,0.1l0.1,0.2l0.1,0.2l0,0.2l0,0.2l0,0.2l0,0.1l0,0.1l0,0.1
		l0,0.1l0,0.1l0,0.1l-0.1,0.1l-0.1,0.1l-0.1,0.1L62.7,34l-0.1,0.1l-0.1,0.1l-0.1,0.1l-0.1,0.1l-0.1,0.1l-0.1,0.1L62,34.5l-0.1,0.1
		l-0.1,0l-0.1,0l-0.1,0l-0.1,0l-0.1,0l-0.1,0l-0.1,0l-0.1,0l-0.1,0l-0.1,0l-0.1,0l-0.1,0l-0.1,0L60.3,34.9z M9.3,23.5l-0.2,0l-0.2,0
		l-0.2,0.1l-0.2,0.1l-0.2,0.1l-0.2,0.1l-0.2,0l-0.2,0.1l-0.3-1.5l0.1,0l0.1,0l0.1,0l0.1,0l0.1,0l0.1,0l0.1,0l0.1,0l0.1,0l0.1,0
		l0.1,0l0.1,0L9,22L9,22l0.1,0l0,0l0,0l0.1-0.1l0,0l0-0.1l0-0.1l0-0.1l0-0.1l0-0.1l0-0.1l0-0.1l0-0.2l0-0.2l0-0.2l0-0.2v-0.2l0-0.2
		v-6.9h1.7v6.6l0,0.3l0,0.3l0,0.3l0,0.3l0,0.1l0,0.1l0,0.1l0,0.1l0,0.1l0,0.1l0,0.1l-0.1,0.1l-0.1,0.1l-0.1,0.1l-0.1,0.1l-0.1,0.1
		l-0.1,0.1l-0.1,0.1l-0.1,0.1l-0.1,0.1L10.2,23l-0.1,0.1L10,23.1l-0.1,0.1l-0.1,0.1l-0.1,0.1l-0.1,0.1L9.3,23.5z M15.7,22.5h-0.2
		l-0.2,0l-0.2,0l-0.2,0l-0.2,0l-0.2,0l-0.2-0.1l-0.2-0.1l-0.2-0.1L14,22.1L13.8,22l-0.1-0.1l-0.1-0.1l-0.1-0.1l-0.1-0.1l-0.1-0.1
		l-0.1-0.1L13,21.3l-0.1-0.1L12.8,21l-0.1-0.1l-0.1-0.1l-0.1-0.2l-0.1-0.2l-0.1-0.2l0-0.2l0-0.2l0-0.2l0-0.2l0-0.2l0-0.2v-0.4l0-0.2
		l0-0.2l0-0.2l0-0.2l0-0.2l0-0.2l0.1-0.2l0.1-0.2l0.1-0.2l0.1-0.1l0.1-0.1l0.1-0.1l0.1-0.1l0.1-0.1l0.1-0.1l0.1-0.1l0.1-0.1l0.1-0.1
		l0.1-0.1l0.1-0.1l0.1-0.1l0.1-0.1l0.2-0.1l0.2-0.1l0.2,0l0.2,0l0.2,0l0.2,0l0.2,0l0.2,0l0.2,0l0.2,0l0.2,0l0.2,0l0.2,0l0.2,0l0.2,0
		l0.2,0l0.2,0.1l0.1,0.1l0.1,0.1l0.1,0.1l0.1,0.1l0.1,0.1l0.1,0.1l0.1,0.1l0.1,0.1l0.1,0.1l0.1,0.1l0.1,0.1l0.1,0.1l0.1,0.1l0.1,0.1
		l0.1,0.2l0.1,0.2l0.1,0.2l0.1,0.2l0,0.2l0,0.2l0,0.2l0,0.2l0,0.2l0,0.2l0,0.2l0,0.2l0,0.2l0,0.2l0,0.2l0,0.2l-0.1,0.2l-0.1,0.2
		l-0.1,0.2l-0.1,0.2l-0.1,0.1L18.5,21l-0.1,0.1l-0.1,0.1l-0.1,0.1l-0.1,0.1L18,21.6l-0.1,0.1l-0.1,0.1l-0.1,0.1L17.5,22l-0.1,0.1
		l-0.1,0.1l-0.1,0.1l-0.2,0.1l-0.2,0l-0.2,0l-0.2,0l-0.2,0l-0.2,0l-0.2,0L15.7,22.5L15.7,22.5z M15.7,16.9h-0.1l-0.1,0l-0.1,0
		l-0.1,0l-0.1,0l-0.1,0L15,17l-0.1,0l-0.1,0l-0.1,0.1l-0.1,0.1l-0.1,0.1l-0.1,0.1l-0.1,0.1l0,0.1l-0.1,0.1l0,0.1l0,0.1l0,0.1l0,0.1
		l0,0.1l0,0.1l0,0.1l0,0.1l0,0.2l0,0.2l0,0.2l0,0.2l0,0.2l0,0.2l0,0.2l0,0.2l0,0.1l0,0.1l0,0.1l0,0.1l0,0.1l0,0.1l0,0.1l0,0.1
		l0.1,0.1l0,0.1l0.1,0.1l0.1,0.1l0.1,0.1l0.1,0.1l0.1,0l0.1,0l0.1,0l0.1,0l0.1,0l0.1,0l0.1,0l0.1,0l0.1,0l0.1,0l0.1,0l0.1,0l0.1,0
		l0.1,0l0.1,0l0.1,0l0.1,0l0.1,0l0.1,0l0.1,0l0.1-0.1l0.1-0.1l0.1-0.1l0.1-0.1l0.1-0.1l0-0.1l0-0.1l0-0.1l0-0.1l0-0.1l0-0.1l0-0.1
		l0-0.1l0-0.1l0-0.2l0-0.2l0-0.2l0-0.2l0-0.2l0-0.2l0-0.2l0-0.2l0-0.1l0-0.1l0-0.1l0-0.1l0-0.1l0-0.1l0-0.1l0-0.1l0-0.1l-0.1-0.1
		l-0.1-0.1l-0.1-0.1l-0.1-0.1l-0.1-0.1l-0.1-0.1l-0.1,0l-0.1,0l-0.1,0l-0.1,0l-0.1,0l-0.1,0l-0.1,0l-0.1,0H15.7z M24.4,22.4v-4.3
		l0-0.1l0-0.1l0-0.1l0-0.1l0-0.1l-0.1-0.1l-0.1-0.1l-0.1-0.1L24,17.1l-0.1-0.1L23.8,17l-0.1,0l-0.1,0l-0.1,0l-0.1,0h-0.2l-0.1,0
		l-0.1,0l-0.1,0l-0.1,0l-0.1,0l-0.1,0l-0.1,0l-0.2,0.1l-0.2,0.1l-0.2,0.1l-0.2,0.1v5h-1.6l0-9.9h1.6v3.5l0.2-0.1l0.2-0.1l0.2-0.1
		l0.2-0.1l0.1,0l0.1,0l0.1,0l0.1,0l0.1,0l0.1,0l0.1,0l0.1,0l0.1,0l0.1,0l0.1,0l0.1,0l0.1,0l0.1,0l0.1,0l0.1,0l0.1,0l0.1,0l0.1,0.1
		l0.1,0.1l0.1,0.1l0.1,0.1l0.1,0.1l0.1,0.1l0.1,0.1l0.1,0.1l0.1,0.1l0.1,0.1l0.1,0.1l0,0.1l0,0.1l0,0.1l0,0.1l0,0.1l0,0.1l0,0.1
		l0,0.1l0,0.1l0,0.1l0,0.1v4.5L24.4,22.4z M31.7,22.4v-4.2l0-0.1l0-0.1l0-0.1l0-0.1l0-0.1l0-0.1l0-0.1l0-0.1l0,0l0,0l0,0l0,0l0,0
		l0,0l0,0l-0.1,0l0,0l-0.1,0L31,17l-0.1,0l-0.1,0l-0.1,0l-0.1,0l-0.2,0l-0.2,0l-0.2,0l-0.2,0l-0.2,0l-0.2,0l-0.2,0l-0.2,0.1L29,17.2
		l0,0l0,0.1l0,0.1l0,0.1v4.9h-1.6v-5.3l0-0.1l0-0.2l0-0.2l0-0.2l0-0.2l0-0.1l0.4-0.1l0.4-0.1l0.4-0.1l0.4-0.1l0.2,0l0.2,0l0.2,0
		l0.2,0l0.2,0l0.2,0l0.2,0h0.3l0.2,0l0.1,0l0.1,0l0.1,0l0.1,0l0.1,0l0.1,0l0.1,0l0.1,0l0.1,0l0.1,0l0.1,0.1l0.1,0.1l0.1,0.1l0.1,0.1
		l0.1,0.1l0.1,0.1l0.1,0.1l0.1,0.1l0.1,0.1l0.1,0.1l0.1,0.1l0.1,0.1l0.1,0.1l0,0.1l0,0.1l0,0.1l0,0.1l0,0.2l0,0.2v4.7H31.7z
		 M36.5,22.5h-0.2l-0.1,0l-0.1,0l-0.1,0l-0.1,0l-0.1,0l-0.1,0l-0.1,0L35,22.3l-0.3-0.1l-0.3-0.1l-0.3-0.1l0.5-1.3l0.2,0.1l0.2,0.1
		l0.2,0.1l0.2,0.1l0.2,0.1l0.2,0l0.1,0l0.1,0l0.1,0l0.1,0l0.1,0h0.1l0.1,0l0.1,0l0.1,0l0.1,0l0.1,0l0.1,0l0.1,0l0.1-0.1l0.1-0.1
		l0-0.1l0-0.1l0-0.1l0-0.1l0-0.1l0-0.1l0-0.1l0-0.1l0-0.1L37.2,20l-0.1-0.1L37,19.9l-0.1-0.1l-0.1-0.1l-0.1-0.1l-0.1-0.1l-0.1-0.1
		l-0.3-0.1l-0.3-0.1l-0.1-0.1l-0.1-0.1l-0.1-0.1L35.3,19L35.2,19l-0.1-0.1L35,18.8l-0.1-0.1l-0.1-0.1l-0.1-0.1l-0.1-0.1l-0.1-0.2
		L34.5,18l0-0.2l0-0.2l0-0.2v-0.1l0-0.1l0-0.1l0-0.1l0-0.1l0-0.1l0-0.1l0.1-0.1l0.1-0.1l0.1-0.1l0.1-0.1l0.1-0.1l0.1-0.1l0.1-0.1
		l0.1-0.1l0.1-0.1l0.1-0.1l0.1-0.1l0.1,0l0.1-0.1l0.1,0l0.1,0l0.1,0l0.1,0l0.1,0l0.1,0l0.1,0l0.1,0l0.2,0l0.2,0l0.1,0h0.1l0.1,0
		l0.1,0l0.1,0l0.1,0l0.1,0l0.1,0l0.2,0.1l0.2,0.1l0.1,0l0.1,0l0.1,0l0.1,0l-0.5,1.3l-0.2-0.1L38,17L37.9,17l-0.2,0l-0.2,0l-0.2,0
		l-0.2,0l-0.2,0h-0.1l-0.1,0l-0.1,0l-0.1,0l-0.1,0l-0.1,0l-0.1,0l-0.1,0l-0.1,0l-0.1,0l0,0l0,0.1l0,0.1l0,0.1l0,0.1l0,0.1l0,0.1
		l0,0.1l0,0.1l0.1,0.1l0.1,0.1l0.1,0.1l0.1,0.1l0.1,0.1l0.1,0l0.1,0.1l0.1,0l0.1,0.1l0.3,0.1l0.3,0.1l0.1,0.1l0.1,0.1l0.1,0.1
		l0.1,0.1l0.1,0.1l0.1,0.1l0.1,0.1l0.1,0.1l0.1,0.1l0.1,0.1l0.1,0.1l0.1,0.2l0.1,0.2l0,0.2l0,0.2l0,0.2l0,0.1l0,0.1l0,0.1l0,0.1
		l0,0.1l0,0.1l0,0.1l-0.1,0.1l-0.1,0.1l-0.1,0.1l-0.1,0.1l-0.1,0.1l-0.1,0.1l-0.1,0.1L38.4,22l-0.1,0.1l-0.1,0.1l-0.1,0L38,22.2
		l-0.1,0l-0.1,0l-0.1,0l-0.1,0l-0.1,0l-0.1,0l-0.1,0l-0.1,0l-0.1,0l-0.1,0l-0.1,0l-0.1,0L36.5,22.5z M43.3,22.5l-0.2,0l-0.2,0
		l-0.2,0l-0.2,0l-0.2,0l-0.2,0l-0.2,0l-0.2-0.1l-0.2-0.1l-0.1-0.1L41.4,22l-0.1-0.1l-0.1-0.1L41,21.7l-0.1-0.1l-0.1-0.1l-0.1-0.1
		l-0.1-0.1l-0.1-0.1L40.4,21l-0.1-0.1l-0.1-0.1l-0.1-0.2l-0.1-0.2L40,20.2L40,20.1l0-0.2l0-0.2l0-0.2l0-0.2l0-0.2l0-0.2l0-0.2l0-0.2
		l0-0.2l0-0.2l0-0.2l0-0.2l0.1-0.2l0.1-0.2l0.1-0.2l0.1-0.1l0.1-0.2l0.1-0.1l0.1-0.1l0.1-0.1l0.1-0.1l0.1-0.1l0.1-0.1l0.1-0.1
		l0.1-0.1l0.1-0.1l0.1-0.1l0.1-0.1l0.1-0.1l0.2-0.1l0.2-0.1l0.2-0.1l0.2,0l0.2,0l0.2,0l0.2,0l0.2,0l0.2,0l0.2,0l0.2,0l0.2,0l0.2,0
		l0.2,0l0.2,0l0.2,0l0.2,0.1l0.2,0.1l0.1,0.1l0.1,0.1l0.1,0.1l0.1,0.1l0.1,0.1l0.1,0.1l0.1,0.1l0.1,0.1l0.1,0.1l0.1,0.1l0.1,0.1
		l0.1,0.1l0.1,0.1l0.1,0.2l0.1,0.2l0.1,0.2l0,0.2l0,0.2l0,0.2l0,0.2l0,0.2l0,0.2v0.4l0,0.2l0,0.2l0,0.2l0,0.2l0,0.2l0,0.2l-0.1,0.2
		l-0.1,0.2l-0.1,0.2l-0.1,0.1L46.1,21L46,21.1l-0.1,0.1l-0.1,0.1l-0.1,0.1l-0.1,0.1l-0.1,0.1l-0.1,0.1l-0.1,0.1L45.1,22L45,22.1
		l-0.1,0.1l-0.2,0.1l-0.2,0.1l-0.2,0l-0.2,0l-0.2,0l-0.2,0l-0.2,0l-0.2,0L43.3,22.5z M43.3,16.9h-0.1l-0.1,0l-0.1,0l-0.1,0l-0.1,0
		l-0.1,0l-0.1,0l-0.1,0l-0.1,0l-0.1,0.1l-0.1,0.1l-0.1,0.1l-0.1,0.1l0,0.1l-0.1,0.1l0,0.1L42,17.6l0,0.1l0,0.1l0,0.1l0,0.1l0,0.1
		l0,0.1l0,0.1l0,0.2l0,0.2l0,0.2l0,0.2l0,0.2l0,0.2l0,0.2l0,0.2l0,0.1l0,0.1l0,0.1l0,0.1l0,0.1l0,0.1l0,0.1l0,0.1l0,0.1l0.1,0.1
		l0.1,0.1l0.1,0.1l0.1,0.1l0.1,0.1l0.1,0l0.1,0l0.1,0l0.1,0l0.1,0l0.1,0l0.1,0l0.1,0l0.1,0l0.1,0l0.1,0l0.1,0l0.1,0l0.1,0l0.1,0
		l0.1,0l0.1,0l0.1,0l0.1,0l0.1,0l0.1-0.1l0.1-0.1l0.1-0.1l0.1-0.1l0.1-0.1l0-0.1l0-0.1l0-0.1l0-0.1l0-0.1l0-0.1l0-0.1l0-0.1l0-0.1
		l0-0.2l0-0.2l0-0.2l0-0.2l0-0.2l0-0.2l0-0.2l0-0.2l0-0.1l0-0.1l0-0.1l0-0.1l0-0.1l0-0.1l0-0.1l0-0.1l0-0.1l-0.1-0.1l-0.1-0.1
		l-0.1-0.1l-0.1-0.1l-0.1-0.1l-0.1-0.1l-0.1,0l-0.1,0l-0.1,0l-0.1,0l-0.1,0l-0.1,0l-0.1,0l-0.1,0L43.3,16.9z M52,22.4v-4.2l0-0.1
		l0-0.1l0-0.1l0-0.1l0-0.1l0-0.1l0-0.1l0-0.1l0,0l0,0l0,0l0,0l0,0l0,0l0,0l-0.1,0l-0.1,0l0,0L51.3,17l-0.1,0l-0.1,0l-0.1,0l-0.1,0
		l-0.1,0l-0.2,0l-0.2,0l-0.2,0L50,17l-0.2,0l-0.2,0l-0.2,0.1l-0.2,0.1l0,0l0,0.1l0,0.1l0,0.1v4.9h-1.6v-5.3l0-0.1l0-0.2l0-0.2l0-0.2
		l0-0.2l0-0.1L48,16l0.4-0.1l0.4-0.1l0.4-0.1l0.2,0l0.2,0l0.2,0l0.2,0l0.2,0l0.2,0l0.2,0l0.2,0l0.2,0H51l0.2,0l0.1,0l0.1,0l0.1,0
		l0.1,0l0.1,0l0.1,0l0.1,0l0.1,0l0.1,0.1l0.1,0l0.1,0.1l0.1,0.1l0.1,0.1l0.1,0.1l0.1,0.1l0.1,0.1l0.1,0.1l0.1,0.1l0.1,0.1l0.1,0.1
		l0.1,0.1l0.1,0.1l0,0.1l0,0.1l0,0.1l0,0.1l0,0.2l0,0.2l0,0.2v4.5H52z"/>
	<path class="st0" d="M83.8,3.8l-0.1-0.1l-0.1-0.1l-0.1-0.1l-0.1-0.1l-0.4,0.2l-0.4,0.2l-0.4,0.2L81.9,4l-0.3,0.2l-0.3,0.2l-0.3,0.2
		l-0.3,0.2L80.3,5L80,5.3l-0.3,0.2l-0.3,0.2L79.2,6l-0.3,0.2l-0.2,0.2l-0.2,0.3l0.1,0.4l0,0.4l0.1,0.4l0,0.4l0,0.4l0,0.4l0,0.4
		l0,0.4l0,0.4l0,0.4l0,0.4v0.3l0,0.4l0,0.3l0,0.3l0,0.3l0,0.3l0,0.3l0,0.3l0,0.3l0,0.3l0,0.3l0,0.3l0,0.3l-0.1,0.3L78.4,16l-0.1,0.3
		l-0.1,0.3l-0.1,0.3l-0.1,0.3l-0.1,0.3L78,17.8L77.9,18l-0.1,0.3l-0.1,0.3l-0.1,0.3l-0.1,0.3l-0.1,0.3l-0.1,0.3l-0.1,0.2l0.2,0.3
		l0.2,0.3l0.2,0.3l0.2,0.3l0.2,0.2l0.2,0.2l0.2,0.2l0.2,0.2l0.2,0.2l0.2,0.2l0.2,0.2l0.2,0.2l0.3,0.2l0.3,0.2l0.3,0.2l0.3,0.2
		l0.2-0.1l0.2-0.1l0.2-0.1l0.2-0.1l0.1-0.1l0.2-0.1l0.2-0.1l0.2-0.1l-0.2-0.3l-0.2-0.3l-0.2-0.3l-0.2-0.3L81,21.6l-0.2-0.3l-0.2-0.3
		l-0.2-0.3l-0.2-0.3l-0.1-0.3L80,19.9l-0.1-0.3l-0.1-0.3l-0.1-0.3l-0.1-0.3l-0.1-0.3l-0.1-0.3l-0.1-0.3l-0.1-0.3l-0.1-0.3L79,16.9
		L79,16.6l-0.1-0.3l0-0.3l0-0.3l0-0.3l0-0.3l0-0.3l0-0.3v-0.3l0-0.3l0-0.3l0-0.4l0-0.4l0-0.3l0.1-0.3l0.1-0.3l0.1-0.3l0.1-0.3
		l0.1-0.3l0.1-0.3l0.1-0.3l0.1-0.3l0.1-0.3L79.8,9L80,8.7l0.1-0.3l0.2-0.3l0.2-0.3l0.2-0.3l0.2-0.3L81,6.9l0.2-0.3l0.2-0.3L81.6,6
		l0.2-0.3l0.2-0.3l0.2-0.3L82.5,5l0.2-0.2L83,4.5l0.3-0.2L83.6,4L83.8,3.8z"/>
	<path class="st0" d="M80.9,1.5l-0.2-0.1l-0.2-0.1l-0.2-0.1l-0.2-0.1l-0.4,0.2l-0.3,0.2l-0.3,0.2l-0.3,0.2l-0.3,0.2l-0.3,0.2
		l-0.3,0.2l-0.3,0.2l0.1,0.2l0.1,0.2l0.1,0.2l0.1,0.2l0.1,0.2L77.9,4L78,4.2L78,4.5l0.3-0.4l0.4-0.4l0.4-0.4l0.4-0.4l0.4-0.4
		l0.4-0.4l0.4-0.3L80.9,1.5z M77.3,24.9l0.2,0l0.2,0l0.2,0l0.2-0.1l0.2,0l0.2-0.1l0.2-0.1l0.2-0.1l-0.3-0.3l-0.3-0.4l-0.3-0.4
		L77.6,23l-0.3-0.4L77,22.2l-0.3-0.4l-0.3-0.4l-0.1,0.2l-0.1,0.2L76,22.1l-0.1,0.2l-0.1,0.2l-0.2,0.2L75.4,23l-0.2,0.2l0.2,0.2
		l0.2,0.2l0.2,0.2l0.2,0.2l0.2,0.2l0.3,0.2l0.3,0.2L77.3,24.9z"/>
	<path class="st0" d="M87.1,9.7l-0.2,0.2l-0.2,0.2l-0.2,0.2l-0.2,0.2l-0.1,0.1L86,10.8l-0.1,0.1L85.8,11l-0.1,0.1l-0.1,0.1l-0.1,0.1
		l-0.1,0.1l-0.1,0.1l-0.1,0.1l-0.1,0.1l-0.1,0.1l-0.1,0.1l-0.1,0.1L85,12.5l-0.1,0.1l0,0.1l0,0.1l-0.1,0.1l0,0.2l0,0.1l0,0.2l0,0.1
		l0,0.1l0,0.2l0,0.2l0,0.2l0,0.2l0,0.2l0,0.2v0.3l0,0.2l0,0.2l0,0.2l0,0.2l0,0.2l0,0.2l0,0.2l0,0.2l0,0.2l0,0.2l0,0.2l0.1,0.2l0,0.2
		l0.1,0.2l0.1,0.2l0.1,0.2l0.1,0.1l0.1,0.2l0.1,0.1l0.1,0.1l0.1,0.2l0.1,0.1l0.1,0.2l0.1,0.1l0.2-0.3l0.2-0.4l0.1-0.2l0.1-0.2
		l0.1-0.2l0.1-0.2l0.1-0.2l0.1-0.2l0.1-0.2l0.1-0.2l0.1-0.2l0.1-0.2l0.1-0.2l0.1-0.2l0.1-0.2l0-0.2l0.1-0.2l0-0.2l0-0.2l0-0.2l0-0.2
		l0-0.2l0-0.2l0-0.2l0-0.2l0-0.2l0-0.2l0-0.2l0-0.2l0-0.2l0-0.4l0-0.4l0-0.4l0-0.4l0-0.4l-0.1-0.4L87.2,10L87.1,9.7z"/>
	<path class="st0" d="M83.2,13.6l0-0.2l0-0.2l0-0.2l0-0.2l0-0.2l0-0.2l0.1-0.2l0-0.2l0.1-0.2l0.1-0.2l0.1-0.2l0.1-0.2l0.1-0.2
		l0.1-0.2l0.1-0.2l0.1-0.2l0.1-0.2l0.1-0.2l0.1-0.2l0.1-0.2l0.1-0.2l0.1-0.2l0.1-0.2l0.1-0.2L85,8.1l0.1-0.2l0.1-0.2l0.1-0.2
		l0.1-0.2l0.1-0.2l0.1-0.2L86,6.7l-0.1-0.2l-0.1-0.2l-0.1-0.2L85.6,6l-0.3,0.2L85,6.4l-0.3,0.2l-0.3,0.2l-0.3,0.2L84,7.1l-0.2,0.2
		l-0.2,0.2l-0.2,0.2L83,7.9l-0.2,0.2l-0.2,0.2l-0.2,0.2l-0.2,0.2L82,9l-0.2,0.2l-0.2,0.2l-0.2,0.2L81.4,10l-0.1,0.3l-0.1,0.3
		l-0.1,0.3l-0.1,0.3l-0.1,0.3l-0.1,0.3l-0.1,0.3l-0.1,0.3l-0.1,0.3l-0.1,0.3l-0.1,0.3l0,0.3l0,0.3l0,0.3l0,0.3l0,0.3l0,0.3l0,0.3
		l0,0.3l0,0.3l0,0.3l0,0.3l0.1,0.3l0.1,0.3l0.1,0.3l0.1,0.3l0.1,0.3l0.1,0.3l0.1,0.3l0.1,0.3l0.1,0.2l0.1,0.2l0.1,0.2l0.1,0.2
		l0.2,0.2l0.1,0.2l0.2,0.2l0.2,0.2l0.2,0.2l0.2,0.2l0.2,0.2l0.2,0.2l0.2,0.2l0.2,0.2l0.2,0.2l0.1-0.1l0.1-0.1l0.1-0.1l0.1-0.1
		l0.1-0.1l0.1-0.1l0.1-0.1l0.1-0.1l-0.1-0.2l-0.1-0.2L84.2,20l-0.1-0.2L84,19.6L84,19.4l-0.1-0.2L83.8,19l-0.1-0.2l-0.1-0.2
		l-0.1-0.2l-0.1-0.2l-0.1-0.2l0-0.2l-0.1-0.2l0-0.2l0-0.2l0-0.2l0-0.2l0-0.2l0-0.2l0-0.2l0-0.2l0-0.2l0-0.2v-0.5l0-0.2l0-0.2l0-0.2
		l0-0.2L83.2,13.6z"/>
	<path class="st0" d="M66.1,3.5l-0.2,0.2l-0.2,0.2l-0.2,0.2l-0.2,0.2l-0.2,0.2L65,4.8L64.8,5l-0.2,0.2l-0.2,0.2l-0.2,0.2l-0.2,0.2
		L64,6.2l-0.1,0.2l-0.1,0.3l-0.1,0.3l-0.1,0.3l-0.1,0.3l-0.1,0.3L63.1,8L63,8.2l-0.1,0.3l-0.1,0.3l-0.1,0.3l-0.1,0.3l-0.1,0.3
		l-0.1,0.3l-0.1,0.3l-0.1,0.3l0,0.3l0,0.3l0,0.3l0,0.3l0.2-0.2l0.2-0.2l0.2-0.2l0.2-0.2l0.2-0.2l0.2-0.2l0.2-0.2l0.2-0.2l0.2-0.2
		L64,9.5l0.1-0.2L64.3,9l0.1-0.3l0.1-0.3l0.1-0.3l0.1-0.3l0.1-0.3L65,7.4l0.1-0.3l0.1-0.3l0.1-0.3l0.1-0.3L65.5,6l0.1-0.3l0.1-0.3
		l0.1-0.3l0.1-0.3l0.1-0.3L66,4.3L66,4l0-0.3L66.1,3.5z"/>
	<path class="st0" d="M68.6,1.6l-0.1,0.1l-0.1,0.1l-0.1,0.1L68,2l-0.1,0.5L67.8,3l-0.1,0.5L67.5,4l-0.1,0.5L67.3,5l-0.1,0.5L67,5.9
		l-0.1,0.4l-0.2,0.4l-0.2,0.4l-0.2,0.4L66.2,8L66,8.4l-0.2,0.4l-0.2,0.4l-0.2,0.4l-0.2,0.4l-0.2,0.4l-0.2,0.3L64.7,11l-0.2,0.3
		l-0.2,0.3l-0.2,0.3l-0.2,0.3l-0.2,0.3l-0.2,0.3l-0.2,0.3L63,13.4l-0.2,0.3L62.6,14l-0.2,0.3l0,0.2l0,0.2l0,0.2l0.1,0.2l0.1,0.2
		l0.1,0.2l0.1,0.2l0.1,0.2l0.5-0.3l0.4-0.3l0.4-0.4l0.4-0.4l0.4-0.4l0.4-0.4l0.3-0.4l0.3-0.4l0.3-0.4l0.3-0.5l0.3-0.5l0.2-0.5
		l0.2-0.5l0.2-0.5l0.2-0.5l0.2-0.5l0.1-0.5L68,8.3l0.1-0.5l0.1-0.5l0.1-0.5l0.1-0.5l0.1-0.5l0.1-0.5l0-0.5l0-0.5l0-0.5l0-0.5l0-0.5
		l0-0.4l0-0.4L68.6,1.6z"/>
	<path class="st0" d="M78.8,10l0-0.3l0-0.3l0-0.3l0-0.3l0-0.3l0-0.3l0-0.3l0-0.3l0-0.3l0-0.3l0-0.3l-0.1-0.3l-0.1-0.3l-0.1-0.3
		l-0.1-0.3l-0.1-0.3l-0.1-0.3L78,4.2l-0.1-0.3l-0.1-0.3l-0.1-0.3L77.7,3l-0.1-0.3l-0.1-0.3l-0.1-0.3l-0.1-0.3l-0.1-0.3l-0.1-0.3
		L77,0.9l-0.1-0.3l-0.1-0.3l-0.1-0.3l-0.2,0l-0.2,0l-0.2,0L76,0l0.1,0.9l0.1,0.9l0.1,0.9l0.1,0.9l0,0.9l0,0.9l0,0.9v0.9l0,0.9l0,0.8
		l0,0.8l-0.1,0.8l-0.1,0.8L76,12.1l-0.1,0.8l-0.1,0.8l-0.2,0.8l-0.2,0.8L75.1,16l-0.2,0.7l-0.2,0.7l-0.3,0.7l-0.3,0.7l-0.3,0.7
		l-0.3,0.7l-0.4,0.6l-0.4,0.6l-0.4,0.6l-0.4,0.6l-0.5,0.6l-0.5,0.6l-0.5,0.5l0.2,0.1l0.2,0.1l0.2,0.1l0.2,0.1l0.2,0.1l0.2,0.1
		l0.2,0.1l0.2,0l0.2,0l0.2,0l0.2,0l0.2,0l0.2,0l0.2,0l0.2,0l0.2,0l0.3-0.3l0.3-0.3l0.3-0.3l0.3-0.3l0.3-0.3l0.3-0.3l0.3-0.4l0.3-0.4
		l0.2-0.4l0.2-0.4l0.2-0.4l0.2-0.4l0.2-0.4l0.2-0.4l0.2-0.5l0.2-0.5l0.2-0.5l0.2-0.5l0.1-0.5l0.1-0.5l0.1-0.5l0.1-0.5l0.1-0.5
		l0.1-0.6l0.1-0.6l0.1-0.6l0-0.6l0-0.6l0-0.6l0-0.6l0-0.6L78.8,10z"/>
	<path class="st0" d="M73.9,0l-0.2,0l-0.2,0l-0.2,0l-0.2,0l0,0.6l0,0.6v0.6l0,0.7l0,0.7l0,0.7l0,0.7l-0.1,0.7L73,6.1l-0.1,0.7
		l-0.1,0.7l-0.1,0.7L72.6,9l-0.1,0.8l-0.2,0.8l-0.2,0.7l-0.2,0.7l-0.2,0.7l-0.2,0.7l-0.3,0.7L70.9,15l-0.3,0.7l-0.3,0.7l-0.3,0.7
		l-0.4,0.7l-0.4,0.6L68.8,19l-0.4,0.6l-0.5,0.6l-0.5,0.6l-0.5,0.5l-0.6,0.5l0.2,0.2l0.2,0.2l0.2,0.2l0.2,0.2l0.2,0.2l0.2,0.2
		l0.2,0.2l0.2,0.2l0.7-0.5l0.7-0.6l0.6-0.6l0.6-0.6l0.5-0.6l0.5-0.6l0.5-0.7l0.4-0.7l0.4-0.7l0.4-0.7l0.3-0.7l0.3-0.8l0.2-0.8
		l0.2-0.8l0.2-0.8l0.1-0.8l0.1-0.8l0.1-0.8L75,9.9l0-0.8l0-0.8l0-0.8l0-0.8L75,5.9l-0.1-0.8l-0.1-0.8l-0.1-0.8l-0.1-0.8l-0.2-0.7
		l-0.2-0.7l-0.2-0.7L73.9,0z"/>
	<path class="st0" d="M71.1,0.5L71,0.6l-0.2,0l-0.2,0.1l-0.2,0.1l0,0.6l0,0.6l-0.1,0.6l-0.1,0.6l-0.1,0.6l-0.1,0.6L70,4.9L70,5.6
		l-0.1,0.6l-0.1,0.6l-0.1,0.6l-0.1,0.6l-0.2,0.6l-0.2,0.6l-0.2,0.6l-0.2,0.6l-0.2,0.6l-0.2,0.6L68.1,12l-0.2,0.5L67.6,13l-0.3,0.5
		L67,14.1l-0.3,0.5l-0.3,0.5L66,15.6l-0.4,0.5l-0.4,0.5L64.9,17l-0.4,0.4l-0.4,0.4l-0.4,0.4l0.1,0.2l0.1,0.2L64,19l0.1,0.2l0.1,0.2
		l0.1,0.2l0.1,0.2l0.1,0.2l0.6-0.4l0.6-0.4l0.5-0.4l0.5-0.5l0.5-0.5l0.4-0.5l0.4-0.5l0.4-0.6l0.4-0.6l0.3-0.6l0.3-0.6l0.3-0.6
		l0.3-0.6l0.2-0.7l0.2-0.7l0.2-0.7l0.2-0.7l0.2-0.7l0.1-0.7l0.1-0.7l0.1-0.7L71.6,7l0-0.7l0-0.7V5l0-0.7l0-0.7L71.5,3l-0.1-0.6
		l-0.1-0.6l-0.1-0.6L71.1,0.5z"/>
</g>
</svg>
