<?xml version="1.0" encoding="utf-8"?>
<!-- Generator: Adobe Illustrator 26.0.1, SVG Export Plug-In . SVG Version: 6.00 Build 0)  -->
<svg version="1.1" id="Layer_1" xmlns="http://www.w3.org/2000/svg" xmlns:xlink="http://www.w3.org/1999/xlink" x="0px" y="0px"
	 viewBox="0 0 95 35" style="enable-background:new 0 0 95 35;" xml:space="preserve">
<style type="text/css">
	.st0{fill:#343741;}
</style>
<g>
	<path id="path29" class="st0" d="M76.8,14.4c-0.4,0-0.7,0.1-0.9,0.4c-0.2,0.2-0.4,0.5-0.4,0.8c0,0.4,0.2,0.8,0.5,1.3
		c-0.6,0.4-1,0.7-1.2,1c-0.2,0.3-0.3,0.6-0.3,1c0,0.3,0.1,0.6,0.3,0.9c0.2,0.3,0.4,0.5,0.6,0.6c0.3,0.1,0.5,0.2,0.8,0.2
		c0.6,0,1.2-0.3,1.7-0.9c0.4,0.6,1,0.9,1.6,0.9c0.3,0,0.5-0.1,0.7-0.2c0.2-0.2,0.3-0.4,0.4-0.6h-0.2c-0.2,0.3-0.4,0.4-0.7,0.4
		c-0.2,0-0.4-0.1-0.6-0.2c-0.2-0.1-0.4-0.4-0.8-0.9c0.1-0.2,0.3-0.5,0.5-0.9c0.2-0.5,0.4-0.8,0.6-1c0.2-0.2,0.4-0.3,0.6-0.4v-0.2h-2
		v0.2c0.5,0.1,0.7,0.2,0.7,0.6c0,0.1-0.1,0.3-0.2,0.6c-0.1,0.3-0.2,0.5-0.4,0.8c-0.5-0.7-1-1.4-1.5-2.1c0.9-0.4,1.3-0.9,1.3-1.4
		c0-0.3-0.1-0.5-0.4-0.7C77.4,14.4,77.1,14.4,76.8,14.4z M85.1,14.4c-0.5,0-1,0.1-1.5,0.4c-0.4,0.2-0.8,0.6-1,1.1
		c-0.2,0.5-0.4,1.1-0.4,1.6c0,0.9,0.3,1.6,0.8,2.1c0.5,0.5,1.2,0.8,2.1,0.8c0.8,0,1.5-0.3,2-0.9c0.1,0.2,0.2,0.4,0.3,0.6h0.2v-2.1
		h-0.2c0,0.3-0.2,0.7-0.3,1.1c-0.2,0.4-0.4,0.6-0.8,0.8c-0.3,0.2-0.7,0.2-1,0.2c-0.6,0-1.1-0.2-1.5-0.7c-0.4-0.5-0.6-1.1-0.6-2
		c0-0.9,0.2-1.7,0.5-2.2c0.4-0.5,0.8-0.8,1.5-0.8c0.5,0,1,0.2,1.4,0.5c0.4,0.3,0.7,0.9,0.8,1.7h0.2l-0.1-2.2h-0.2
		c0,0.3-0.1,0.5-0.2,0.8c-0.2-0.2-0.4-0.4-0.8-0.6C85.9,14.5,85.5,14.4,85.1,14.4z M50.4,14.4c-0.5,0-1,0.1-1.5,0.4
		c-0.4,0.2-0.8,0.6-1,1.1c-0.2,0.5-0.4,1.1-0.4,1.6c0,0.9,0.3,1.6,0.8,2.1c0.5,0.5,1.2,0.8,2.1,0.8c0.8,0,1.5-0.3,2-0.9
		c0.1,0.2,0.2,0.4,0.3,0.6h0.2v-2.1h-0.2c0,0.3-0.2,0.7-0.3,1.1c-0.2,0.4-0.4,0.6-0.8,0.8c-0.3,0.2-0.7,0.2-1,0.2
		c-0.6,0-1.1-0.2-1.5-0.7c-0.4-0.5-0.6-1.1-0.6-2c0-0.9,0.2-1.7,0.5-2.2c0.4-0.5,0.8-0.8,1.5-0.8c0.5,0,1,0.2,1.4,0.5
		c0.4,0.3,0.7,0.9,0.8,1.7h0.2l-0.1-2.2h-0.2c0,0.3-0.1,0.5-0.2,0.8c-0.2-0.2-0.4-0.4-0.8-0.6C51.2,14.5,50.8,14.4,50.4,14.4z
		 M7.3,14.4c-0.3,0-0.8,0-1.4,0l-0.7,0v0.2h0.1c0.3,0,0.5,0,0.6,0.1C6,14.8,6.1,14.9,6.1,15c0,0.1,0,0.4,0,0.9v2.9
		c0,0.5,0,0.8,0,0.9c0,0.1-0.1,0.2-0.2,0.3c-0.1,0.1-0.3,0.1-0.5,0.1H5.2v0.2h2.7v-0.2H7.7c-0.3,0-0.4,0-0.5-0.1
		C7.1,20,7,19.9,7,19.8c0-0.1,0-0.4,0-0.9v-1.2h0.7c0.7,0,1.2-0.1,1.4-0.2c0.3-0.1,0.5-0.3,0.6-0.6c0.1-0.2,0.2-0.5,0.2-0.9
		c0-0.4-0.1-0.7-0.3-0.9c-0.2-0.2-0.5-0.4-0.8-0.5C8.4,14.5,8,14.4,7.3,14.4z M1.7,14.5v0.2h0.1c0.3,0,0.5,0,0.6,0.1
		c0.1,0.1,0.2,0.1,0.2,0.3c0,0.1,0,0.4,0,0.9v2c0,0.7,0,1.1-0.1,1.4c0,0.3-0.2,0.5-0.4,0.7c-0.2,0.2-0.5,0.3-0.8,0.3
		c-0.2,0-0.3,0-0.4-0.1c-0.1-0.1-0.2-0.1-0.2-0.2c0,0,0-0.1,0-0.2c0-0.1,0.1-0.2,0.1-0.2c0-0.1,0-0.2-0.1-0.3
		c-0.1-0.1-0.2-0.1-0.3-0.1c-0.1,0-0.2,0.1-0.3,0.1C0,19.6,0,19.7,0,19.8c0,0.2,0.1,0.4,0.4,0.6c0.2,0.2,0.6,0.2,1,0.2
		c0.4,0,0.7-0.1,1-0.2c0.3-0.1,0.5-0.3,0.7-0.6c0.2-0.2,0.3-0.5,0.3-0.8c0-0.3,0.1-0.6,0.1-1.1v-2c0-0.5,0-0.8,0-0.9
		c0-0.1,0.1-0.2,0.2-0.3c0.1,0,0.3-0.1,0.6-0.1h0.1v-0.2H1.7z M10.7,14.5v0.2h0.2c0.3,0,0.5,0,0.6,0.1c0.1,0.1,0.2,0.1,0.2,0.3
		c0,0.1,0,0.4,0,0.9v2.6c0,0.5,0,0.8,0,1c0,0.2-0.1,0.3-0.3,0.5c-0.2,0.1-0.4,0.2-0.6,0.2v0.2h2.1v-0.2c-0.3,0-0.5-0.1-0.6-0.2
		c-0.2-0.1-0.2-0.3-0.3-0.5c0-0.2,0-0.5,0-1v-3.5l2.4,5.3h0.2l2.3-5.3v3.8c0,0.5,0,0.8,0,0.9c0,0.1-0.1,0.2-0.2,0.3
		c-0.1,0.1-0.3,0.1-0.5,0.1h-0.2v0.2h2.8v-0.2h-0.3c-0.3,0-0.4,0-0.5-0.1c-0.1-0.1-0.2-0.2-0.2-0.3c0-0.1,0-0.5,0-0.9V16
		c0-0.5,0-0.8,0-0.9c0-0.1,0.1-0.2,0.2-0.3c0.1,0,0.3-0.1,0.6-0.1h0.2v-0.2h-1.8l-2.1,4.9l-2.2-4.9H10.7z M76.8,14.6
		c0.2,0,0.4,0.1,0.5,0.2c0.1,0.2,0.2,0.3,0.2,0.6c0,0.4-0.3,0.8-0.9,1.1c-0.4-0.5-0.6-0.9-0.6-1.2c0-0.2,0.1-0.4,0.2-0.5
		C76.4,14.7,76.6,14.6,76.8,14.6z M7.4,14.6c0.5,0,0.9,0.1,1.2,0.3C8.8,15.2,9,15.6,9,16c0,0.3-0.1,0.6-0.2,0.8
		c-0.1,0.2-0.3,0.4-0.5,0.4c-0.2,0.1-0.5,0.1-0.8,0.1H7v-2.7C7.1,14.6,7.2,14.6,7.4,14.6z M65.9,15.7c-0.3,0-0.6,0.1-0.9,0.3
		c-0.2,0.2-0.3,0.5-0.3,0.8c0,0.2,0.1,0.4,0.2,0.6c0.1,0.2,0.2,0.3,0.4,0.5c0.2,0.1,0.5,0.3,0.8,0.4c0.4,0.2,0.7,0.3,0.8,0.5
		c0.2,0.2,0.2,0.3,0.2,0.6c0,0.2-0.1,0.4-0.3,0.6c-0.2,0.2-0.4,0.3-0.7,0.3c-0.7,0-1.2-0.5-1.3-1.4h-0.2v1.5h0.2
		c0-0.2,0.1-0.3,0.2-0.4c0.3,0.4,0.7,0.6,1.2,0.6c0.4,0,0.8-0.1,1-0.4c0.3-0.2,0.4-0.6,0.4-0.9c0-0.2-0.1-0.5-0.2-0.7
		c-0.1-0.2-0.2-0.3-0.4-0.4c-0.2-0.1-0.5-0.2-0.9-0.4c-0.4-0.2-0.7-0.4-0.8-0.5c-0.2-0.1-0.2-0.3-0.2-0.5c0-0.2,0.1-0.3,0.2-0.5
		c0.1-0.1,0.3-0.2,0.6-0.2c0.3,0,0.5,0.1,0.8,0.3c0.2,0.2,0.4,0.5,0.5,0.8h0.1v-1.2h-0.1c0,0.1-0.1,0.3-0.2,0.4
		c-0.2-0.2-0.4-0.3-0.5-0.4C66.3,15.8,66.1,15.7,65.9,15.7z M21.4,15.8c-0.7,0-1.3,0.2-1.7,0.6c-0.5,0.4-0.7,1-0.7,1.7
		c0,0.7,0.2,1.3,0.7,1.7c0.5,0.4,1.1,0.7,1.8,0.7c0.7,0,1.3-0.2,1.8-0.7c0.5-0.4,0.7-1,0.7-1.7c0-0.7-0.2-1.3-0.7-1.7
		C22.7,16,22.1,15.8,21.4,15.8z M31.9,15.8c-0.7,0-1.3,0.2-1.7,0.7c-0.4,0.5-0.6,1.1-0.6,1.7c0,0.7,0.2,1.2,0.7,1.6
		c0.4,0.4,1,0.6,1.6,0.6c0.3,0,0.7-0.1,1-0.2c0.3-0.1,0.5-0.2,0.7-0.2c0,0,0.1,0,0.1,0v-0.5c0-0.4,0-0.6,0-0.7
		c0-0.1,0.1-0.2,0.2-0.2c0.1,0,0.2-0.1,0.4-0.1v-0.2h-2v0.2h0.1c0.2,0,0.3,0,0.4,0c0.1,0,0.1,0.1,0.1,0.2c0,0.1,0.1,0.2,0.1,0.5
		c0,0.2,0,0.4-0.1,0.5c-0.1,0.1-0.2,0.2-0.4,0.3c-0.2,0.1-0.4,0.1-0.6,0.1c-0.5,0-0.8-0.2-1.1-0.5c-0.3-0.3-0.5-0.9-0.5-1.7
		c0-0.8,0.2-1.4,0.5-1.7c0.3-0.3,0.7-0.5,1.1-0.5c0.4,0,0.8,0.1,1,0.4c0.3,0.3,0.5,0.6,0.5,1.1h0.2v-1.5h-0.2c0,0.2-0.1,0.4-0.1,0.5
		C33,16,32.5,15.8,31.9,15.8z M91.1,15.8c-0.7,0-1.3,0.2-1.7,0.6c-0.5,0.4-0.7,1-0.7,1.7c0,0.7,0.2,1.3,0.7,1.7
		c0.5,0.4,1.1,0.7,1.8,0.7c0.7,0,1.3-0.2,1.8-0.7c0.5-0.4,0.7-1,0.7-1.7c0-0.7-0.2-1.3-0.7-1.7C92.4,16,91.8,15.8,91.1,15.8z
		 M61.7,15.8l-1.3,3.1c-0.1,0.2-0.2,0.4-0.2,0.4c-0.1,0.4-0.3,0.6-0.4,0.7c-0.1,0.1-0.2,0.2-0.5,0.2v0.2h1.4v-0.2
		c-0.1,0-0.3,0-0.4-0.1c-0.1-0.1-0.1-0.2-0.1-0.3c0-0.1,0.1-0.4,0.3-0.8l0.1-0.3h1.7l0.4,0.8c0.1,0.2,0.2,0.4,0.2,0.4
		c0,0.1,0,0.2-0.1,0.2c-0.1,0-0.2,0-0.4,0v0.2h1.8v-0.2c-0.2,0-0.3-0.1-0.4-0.1c-0.1-0.1-0.1-0.1-0.2-0.3l-0.2-0.5l-1.5-3.6H61.7z
		 M26.2,15.8c-0.3,0-0.6,0-1,0l-0.6,0V16h0.1c0.2,0,0.4,0,0.5,0.1c0.1,0,0.1,0.1,0.1,0.2c0,0.1,0,0.3,0,0.7v2.2c0,0.4,0,0.6,0,0.7
		c0,0.1-0.1,0.2-0.1,0.2c-0.1,0-0.2,0.1-0.4,0.1h-0.1v0.2h2.2v-0.2h-0.2c-0.2,0-0.4,0-0.4-0.1c-0.1-0.1-0.1-0.1-0.1-0.2
		c0-0.1,0-0.3,0-0.7v-1H26c0.1,0,0.2,0,0.3,0.1c0.1,0,0.2,0.1,0.3,0.3c0.2,0.2,0.3,0.4,0.4,0.6c0.4,0.6,0.8,1,1,1.2h1.2v-0.2
		c-0.3,0-0.5-0.1-0.7-0.2c-0.2-0.1-0.5-0.4-0.8-0.9c-0.4-0.6-0.7-0.9-0.9-1c0.4-0.1,0.7-0.2,1-0.4c0.2-0.2,0.3-0.5,0.3-0.8
		c0-0.3-0.1-0.5-0.3-0.7c-0.2-0.2-0.4-0.3-0.7-0.4C27,15.8,26.6,15.8,26.2,15.8z M37,15.8l-1.3,3.1c-0.1,0.2-0.1,0.4-0.2,0.4
		c-0.1,0.4-0.3,0.6-0.4,0.7c-0.1,0.1-0.2,0.2-0.4,0.2v0.2h1.4v-0.2c-0.1,0-0.3,0-0.4-0.1c-0.1-0.1-0.1-0.2-0.1-0.3
		c0-0.1,0.1-0.4,0.3-0.8l0.1-0.3h1.7l0.3,0.8c0.1,0.2,0.2,0.4,0.2,0.4c0,0.1,0,0.2-0.1,0.2c-0.1,0-0.2,0-0.4,0v0.2h1.8v-0.2
		c-0.2,0-0.3,0-0.4-0.1c-0.1-0.1-0.1-0.1-0.2-0.3l-0.2-0.5l-1.5-3.6H37z M53.9,15.8V16H54c0.2,0,0.4,0,0.4,0.1
		c0.1,0,0.1,0.1,0.1,0.2c0,0.1,0,0.3,0,0.7v2.2c0,0.4,0,0.6,0,0.7c0,0.1-0.1,0.2-0.1,0.2c-0.1,0-0.2,0.1-0.4,0.1h-0.1v0.2H56v-0.2
		h-0.1c-0.2,0-0.4,0-0.4-0.1c-0.1-0.1-0.1-0.1-0.1-0.2c0-0.1,0-0.3,0-0.7v-1.1h2.4v1.1c0,0.4,0,0.6,0,0.7c0,0.1-0.1,0.2-0.1,0.2
		c-0.1,0-0.2,0.1-0.4,0.1h-0.2v0.2H59v-0.2h-0.1c-0.2,0-0.3,0-0.4-0.1c-0.1-0.1-0.1-0.1-0.1-0.2c0-0.1,0-0.3,0-0.7V17
		c0-0.4,0-0.6,0-0.7c0-0.1,0.1-0.2,0.1-0.2c0.1,0,0.2-0.1,0.4-0.1H59v-0.2h-2.1V16H57c0.2,0,0.4,0,0.4,0.1c0.1,0,0.1,0.1,0.1,0.2
		c0,0.1,0,0.3,0,0.7v0.9h-2.4V17c0-0.4,0-0.6,0-0.7c0-0.1,0.1-0.2,0.1-0.2c0.1,0,0.2-0.1,0.4-0.1H56v-0.2H53.9z M68.6,15.8V16
		c0.2,0,0.4,0,0.4,0.1c0.1,0,0.1,0.1,0.1,0.2c0,0.1,0,0.3,0,0.7v2.2c0,0.4,0,0.6,0,0.7c0,0.1-0.1,0.2-0.1,0.2
		c-0.1,0.1-0.2,0.1-0.4,0.1h-0.1v0.2h3.7l0.1-1.4h-0.2c-0.1,0.3-0.2,0.6-0.3,0.8c-0.1,0.2-0.3,0.3-0.4,0.4c-0.2,0.1-0.3,0.1-0.6,0.1
		h-0.3c-0.3,0-0.5-0.1-0.6-0.1c-0.1-0.1-0.1-0.4-0.1-0.9V18h0.5c0.2,0,0.3,0,0.4,0c0.1,0,0.1,0.1,0.2,0.2c0,0.1,0.1,0.3,0.1,0.5h0.2
		v-1.5H71c0,0.2,0,0.4,0,0.5c0,0.1-0.1,0.1-0.2,0.2c-0.1,0-0.2,0.1-0.5,0.1h-0.5V16h0.6c0.3,0,0.5,0,0.7,0.1c0.1,0,0.3,0.1,0.4,0.2
		c0.1,0.1,0.2,0.4,0.3,0.7h0.2l-0.1-1.1H68.6z M40,15.8V16c0.2,0,0.4,0,0.5,0.1c0.1,0,0.1,0.1,0.2,0.2c0,0.1,0.1,0.3,0.1,0.7v2.4
		c0,0.3,0,0.4,0,0.5c0,0.1-0.1,0.1-0.2,0.2c-0.1,0.1-0.3,0.1-0.5,0.1v0.2h1.7v-0.2c-0.2,0-0.4,0-0.5-0.1c-0.1-0.1-0.2-0.1-0.2-0.2
		c0-0.1,0-0.3,0-0.5v-3.2l3.2,4.3h0.1v-3.8c0-0.2,0-0.3,0-0.4c0-0.1,0.1-0.2,0.2-0.2c0.1-0.1,0.3-0.1,0.5-0.1v-0.2h-1.6V16
		c0.2,0,0.3,0,0.5,0.1c0.1,0,0.2,0.1,0.3,0.2c0,0.1,0.1,0.2,0.1,0.4v2.7l-2.7-3.6H40z M21.4,15.9c0.6,0,1,0.2,1.3,0.6
		c0.3,0.4,0.4,0.9,0.4,1.6c0,0.7-0.1,1.3-0.4,1.6c-0.3,0.4-0.7,0.6-1.2,0.6c-0.6,0-1-0.2-1.3-0.6c-0.3-0.4-0.4-0.9-0.4-1.6
		c0-0.7,0.1-1.3,0.4-1.6C20.5,16.1,20.9,15.9,21.4,15.9z M91.1,15.9c0.6,0,1,0.2,1.3,0.6c0.3,0.4,0.4,0.9,0.4,1.6
		c0,0.7-0.1,1.3-0.4,1.6c-0.3,0.4-0.7,0.6-1.2,0.6c-0.6,0-1-0.2-1.3-0.6c-0.3-0.4-0.4-0.9-0.4-1.6c0-0.7,0.1-1.3,0.4-1.6
		C90.2,16.1,90.6,15.9,91.1,15.9z M26.1,15.9c0.5,0,0.9,0.1,1,0.3c0.2,0.2,0.2,0.4,0.2,0.8c0,0.2,0,0.3-0.1,0.5
		c0,0.1-0.1,0.2-0.2,0.3c-0.1,0.1-0.2,0.1-0.3,0.2c-0.1,0-0.3,0.1-0.5,0.1c-0.2,0-0.3,0-0.5,0V16C26,15.9,26.1,15.9,26.1,15.9z
		 M61.5,16.6l0.8,1.9h-1.6L61.5,16.6z M36.8,16.6l0.8,1.9H36L36.8,16.6z M76.2,17.1c0.5,0.6,1,1.4,1.7,2.4c-0.4,0.4-0.8,0.6-1.2,0.6
		c-0.4,0-0.7-0.2-1-0.5c-0.3-0.3-0.5-0.7-0.5-1.1c0-0.2,0.1-0.5,0.3-0.8C75.6,17.5,75.9,17.3,76.2,17.1z M94.5,19.5
		c-0.1,0-0.3,0-0.4,0.1C94.1,19.7,94,19.9,94,20c0,0.1,0,0.3,0.1,0.4c0.1,0.1,0.2,0.1,0.4,0.1c0.1,0,0.3,0,0.4-0.1
		C95,20.3,95,20.1,95,20c0-0.1,0-0.3-0.1-0.4C94.8,19.6,94.6,19.5,94.5,19.5z"/>
</g>
</svg>
