<?xml version="1.0" encoding="utf-8"?>
<!-- Generator: Adobe Illustrator 26.0.1, SVG Export Plug-In . SVG Version: 6.00 Build 0)  -->
<svg version="1.1" id="Layer_1" xmlns="http://www.w3.org/2000/svg" xmlns:xlink="http://www.w3.org/1999/xlink" x="0px" y="0px"
	 viewBox="0 0 95 35" style="enable-background:new 0 0 95 35;" xml:space="preserve">
<style type="text/css">
	.st0{fill:#FFFFFF;}
</style>
<g>
	<path id="logo" class="st0" d="M91,11.9L91,11.9c-1.7,0-3.2,1.3-5.1,2.9c-1.7,1.4-5.2,5.1-8.5,7.1c0.9-1.4,3.1-4.4,3.4-5.9
		c0.3-1.5-0.8-2.1-2.3-1.1c-1.7,1-3.2,5.9-5.5,5.9c-0.4,0-0.7-0.2-0.7-0.7c0-1.4,2.2-4.3,6.2-5.8c0.6-0.2,0.9-0.6,0.9-1
		c0-0.1,0-0.8-1.2-0.8c-3.9,0-9.2,4.6-10,8.1c-0.8,0.8-2.1,1.9-3.9,2.6c2-2.8,3.7-5,4.5-7.4c1-2.7-0.4-3.1-1.9-2.3
		c-1.5,0.8-2.5,2.9-2.9,3.7c-0.4,0.8-0.8,1.8-2.1,2.9c-1.3,1-2.6,0.9-1.7-1.1c0.9-1.8,2.7-3.7,4.4-4.5c0.4-0.2,0.7-0.3,0.7-0.9
		c0-0.8-1-1.4-2.3-0.8c-1.8,0.8-2.7,1.3-4.3,1.3c-1.2,0-1.9-0.3-2.4-0.6c-0.7-0.3-1.2-0.2-1.5-0.1c-0.2,0.1-0.6,0.3-1,0.7
		c-0.3,0.3-0.5,0.8-0.5,1c-0.4,2.2-2.3,6.1-3.7,6.1c-0.5,0-1-0.1-0.9-1.3c0.2-1.8,2.5-4.3,3-4.8c0.5-0.5,1.5-0.8,1.6-1.4
		c0-0.5-0.2-1-1.1-1c-3,0-7,4.1-7.4,7.9c-0.5,0.4-1,0.9-1.7,0.9c-1.4,0-1.8-1.3-1.7-2.3C45,16,51.9,8.7,52.1,3.5
		c0-1.2-0.6-1.9-1.6-1.9c-2.6,0-6.1,3.7-8.4,6.6c-2.7,3.5-4.4,7.8-5,11.1c-2,1.7-2.8,1.9-3.7,1.9c-1.2,0-1.7-0.9-1.6-1.6
		c3.4-3.1,9.3-10.4,9.4-14c0-1.1-0.6-1.6-1.7-1.6c-2.3,0-5.6,2.4-7.9,5.7c-2.4,3.2-3.9,7-4.3,10.4c-1.7,1.6-3.1,1.9-4.2,1.9
		c-0.7,0-1.1-0.5-1.3-0.7c1.6-0.9,5.1-3.2,5.1-6.5c0-1.7-1.1-2.4-2.2-2.4c-2.8,0-7.3,3.5-7.3,8.5c0,0.1,0,0.4,0,0.5
		c-1.3,0.4-2.2,0.9-2,1.8c0.2,0.9,1.2,0.8,2.6,0.3c0.3,0.6,1.7,1.5,3.5,1.5c2.6,0,4.5-1.2,6-2.5c0.7,1.5,2.2,2.3,3.9,2.3
		c2,0,4-1.4,5.6-2.6c0.2,1.2,1.4,3,3.4,3c1.9,0,3.3-1.1,4.4-2.3c0.3,1.2,1.4,2.1,2.8,2.1c4.7,0,7.4-6.7,8-9.1
		c0.1-0.3,0.4-0.4,0.6-0.3c0.9,0.3,1.3,0.5,2.4,0.3c-1.8,1.4-3.4,3.8-3.4,5.6s1.5,2.6,2.6,2.6c1.1,0,2.6-0.7,3.5-1.6
		c-0.3,0.5-0.6,1.3-1.1,1.9c-1,0.3-4,1.4-5.9,2.5c-1.8,1.1-3.5,2.8-3.5,4.8c0,1.1,0.9,2.3,2.9,2.3c3.5,0,5.9-2.3,9.2-8.2
		c2.7-1.1,4.3-2.2,5.4-3.1c0.5,0.8,1.4,1.2,2.3,1.2c1.3,0,2.1-0.4,3.2-1.2c-0.1,0.4-0.4,0.9-0.8,1.4c-1.9,0.8-4.3,1.9-5.5,2.6
		c-3.2,1.9-3.9,3.6-3.9,5c0,0.8,0.7,2.3,2.8,2.3c4.6,0,7.5-5.8,9.4-9c1.4-0.7,3.3-2.1,5.3-3.6c-0.1,0.2-0.1,0.5-0.1,0.8
		c0,1.4,1.3,2.8,3.5,2.8c4.3,0,5.6-3.1,5.5-6.5c0-1.1-0.2-2-0.2-2.4c0-1,0.3-1.6,1.2-1.6c0.9,0,1.6-0.2,1.6-1
		C92.9,12.4,92.1,11.9,91,11.9z M48.2,5.9L48.2,5.9c0.1,0,0.2,0.1,0.2,0.3c0,1.3-3.5,6.7-6.6,9.8C43.7,10.4,47.5,5.9,48.2,5.9z
		 M37.3,7.8L37.3,7.8c0.1,0,0.2,0.1,0.2,0.3c0,1-2.5,5.5-5.7,8.6C33.5,11.7,36.2,7.8,37.3,7.8z M21.2,19.4L21.2,19.4
		c0.1-2.4,2-4.2,2.8-4.2c0.3,0,0.4,0.1,0.4,0.5C24.4,16.5,23.2,18.3,21.2,19.4z M54.6,31L54.6,31c-0.2,0-0.4-0.2-0.4-0.4
		c0-1.5,3.2-3.2,4.9-3.8C58.4,28,55.7,31,54.6,31z M67.5,31.1L67.5,31.1c-0.2,0-0.3-0.1-0.3-0.4c0-1.3,2.9-3.3,4.6-3.9
		C70.9,28.3,68.4,31.1,67.5,31.1z M85.1,21.8c-0.2,0-0.5,0-0.5-0.7c0-0.5-0.2-1-1.1-1c-0.1,0-0.2,0-0.4,0c1.8-1.5,3.3-3.1,4.6-4.2
		C87.4,19.2,86.6,21.8,85.1,21.8z M82.5,9.3c0.1-1,1.3-2.2,2.6-2.2s2,1,1.9,2.2c-0.2,2.3-2.8,3.8-3.8,3.9c-0.4,0-0.6-0.2-0.6-0.5
		c0-0.5,0.7-0.8,0.8-1.4C83.5,10.6,82.4,10.3,82.5,9.3z M16,28.1c-0.3,1-1.6,1.4-2.6,1.4c-1.1,0-3.7-0.9-3.7-3.8
		c0-3.5,1.8-6,2.2-8.1c0.2-1.2-0.1-1.7-0.7-2c-0.5,0.9-2.8,5.3-3.3,6c-1.1,1.7-2.8,5.3-5.5,5.3c-1.3,0-2.4-0.8-2.4-2.4
		c0-2.4,2.8-3.9,6.3-7.6c2.4-2.6,3.9-4.8,3.9-5.6c0-0.2-0.1-0.3-0.2-0.3c-0.4,0-1.4,0.9-1.8,1.3c-1.1,1-3.4,5.2-5.7,5.2
		c-1.2,0-1.7-1-1.7-1.8c0-1.8,1.4-3.2,7.3-6.2c3.3-1.7,6-3.6,6.4-3.8c1.7-1.2,3.5-0.5,2.1,1.4c-1.2,1.6-4.4,6.9-4.4,6.9
		c0.8-0.1,1.7-0.1,3.4-1.7c2.2-1.9,4.2-4.3,7.5-9c1.2-1.7,3.2-2.9,4.4-2c1.2,0.9,1.1,2.7,0.2,4.1c-0.9,1.4-7.9,7.9-12.6,9.8
		c1.2,1.3,1.1,3.5,0.8,4.9c-0.3,1.4-1.2,4.2-1.2,5.6c0,1.2,0.4,2.2,1.2,2.2v0C16,27.7,16,28,16,28.1z M94.4,12.6
		c-0.1,0-0.1-0.1-0.2-0.2c0.1,0,0.2-0.1,0.2-0.3c0-0.2-0.2-0.3-0.3-0.3l0,0h-0.3c0,0-0.1,0-0.1,0v0.8c0,0.1,0,0.1,0.1,0.1
		s0.1,0,0.1,0v-0.3h0.1c0.1,0.1,0.1,0.4,0.3,0.4C94.5,12.8,94.5,12.7,94.4,12.6C94.5,12.6,94.5,12.6,94.4,12.6L94.4,12.6z
		 M94.1,12.2H94V12l0,0h0.1c0.1,0,0.1,0,0.1,0.1C94.2,12.2,94.2,12.2,94.1,12.2z M94.1,11.4L94.1,11.4c-0.6,0-0.9,0.3-0.9,0.9
		c0,0.6,0.4,0.9,0.9,0.9c0.6,0,0.9-0.4,0.9-0.9C95,11.8,94.7,11.4,94.1,11.4z M94.1,13L94.1,13c-0.4,0-0.7-0.3-0.7-0.7
		s0.3-0.7,0.7-0.7s0.7,0.3,0.7,0.7C94.8,12.7,94.5,13,94.1,13z"/>
</g>
</svg>
