<?xml version="1.0" encoding="utf-8"?>
<!-- Generator: Adobe Illustrator 26.0.1, SVG Export Plug-In . SVG Version: 6.00 Build 0)  -->
<svg version="1.1" id="Layer_1" xmlns="http://www.w3.org/2000/svg" xmlns:xlink="http://www.w3.org/1999/xlink" x="0px" y="0px"
	 viewBox="0 0 95 35" style="enable-background:new 0 0 95 35;" xml:space="preserve">
<style type="text/css">
	.st0{fill:#343741;}
</style>
<g>
	<path class="st0" d="M42.2,17c0-0.9,0-1.8,0-2.7c-0.8,0-1.5,0-2.3,0c0-1,0-1.9,0-2.9c-1,0-2,0-3,0v2.9h-1.3c0,0.9,0,1.8,0,2.7h1.3
		v0h0c0,0.8,0,1.6,0,2.4h0c0,0.1,0,0.1,0,0.2c0,0.1,0,0.1,0,0.2h0c0,0.5,0,0.9,0,1.4c0,1.3,0.5,2.7,1.6,3.4c0.9,0.7,2.1,0.8,3.3,0.8
		c-0.9-1-1.5-2.4-1.7-3.5l0,0l0,0c0-0.3-0.1-0.7-0.1-1.1c0-0.1,0-0.2,0-0.3c0-0.2,0-0.5,0-0.7c0-0.9,0-1.8,0-2.8
		C40.7,17,41.5,17,42.2,17"/>
	<path class="st0" d="M35.1,12.2c0-0.9,0-1.8,0-2.7c-1.5-0.3-3.2-0.2-4.4,0.9c-1.1,1-1.3,2.5-1.2,3.9c0,0,0,0,0,0h-1.3
		c0,0.9,0,1.8,0,2.7h1.1c0.1,0,0.1,0,0.2,0v0h0v1.5h0c0,2.2,0,4.4,0,6.6h1.4c0.6,0,1.1,0,1.7,0c0-2.2,0-4.4,0-6.7V17h2.1
		c0-0.9,0-1.8,0-2.7c0,0-2,0-2.1,0c0-0.6,0-1.3,0.5-1.8C33.6,12,34.4,12.2,35.1,12.2"/>
	<path class="st0" d="M23.8,22.7c-0.8,0.2-1.7,0.5-2.4,0c-0.7-0.5-0.6-1.6,0.1-1.9c0.7-0.4,1.6-0.2,2.3-0.1
		C23.9,21.3,23.9,22,23.8,22.7 M23.9,25h1.4c0.3,0,0.5,0,0.8,0h0.9c0-2.3,0-4.6,0-6.9c0-1.3-0.5-2.8-1.8-3.5c-1.8-0.9-4-0.7-5.9-0.4
		c0,1,0,1.9,0,2.9c1.3-0.3,2.6-0.6,3.9-0.1c0.6,0.2,0.8,0.8,0.9,1.4c-0.9-0.1-1.8-0.3-2.6-0.1c-1,0.1-2.1,0.6-2.7,1.5
		c-0.9,1.4-0.7,3.6,0.7,4.6c1.3,1,3.2,0.9,4.6,0C23.9,24.6,23.9,24.8,23.9,25"/>
	<path class="st0" d="M8.2,10.5c1.2,0,2.5,0,3.7,0c-1.8,2.4-3.6,4.9-5.4,7.3c1.6,2.4,3.2,4.8,4.8,7.2c-1.3,0-2.5,0-3.8,0
		c-1.4-2.1-2.8-4.3-4.2-6.5c0,2.1,0,4.3,0,6.4c-1.1,0-2.2,0-3.3,0c0-4.8,0-9.7,0-14.5c1.1,0,2.2,0,3.3,0c0,2.3,0,4.6,0,6.8
		C4.9,15.1,6.6,12.8,8.2,10.5"/>
	<path class="st0" d="M12.1,14.3c1,0,2.1,0,3.1,0c0,0.7,0,1.4,0,2c0.5-1.1,1.6-1.9,2.8-2.1c0,1,0,2,0,3c-1.3,0.2-2.7,1.1-2.7,2.6
		c0,1.7,0,3.4,0,5.1c-1,0-2.1,0-3.1,0C12.1,21.4,12.1,17.9,12.1,14.3"/>
	<path class="st0" d="M66.2,15.9c0.5,0.2-0.8,2.8-0.8,2.8c-0.5,0.2-1,0.3-1.4,0.3C64.2,18.7,65.1,15.4,66.2,15.9 M67.1,22.8
		c-0.4,0.2-0.5,0.3-1,0.4c-0.5,0.2-1.1,0.2-1.6,0c-1.6-0.7-0.6-3.2-0.6-3.2c6.7-1.6,5.8-5.3,4-5.4c-1.1,0-5.2,0.2-7.1,4.8
		c-0.3,0.7-2.1,5.6,2,6c0.9,0,1.8-0.1,2.7-0.5c0.8-0.4,1.4-1,1.9-1.6C67.7,22.5,67.1,22.8,67.1,22.8"/>
	<path class="st0" d="M82.9,23.8c-0.1-0.1-0.3-0.1-0.3-0.2c-0.5-0.3-0.1-1.3,0-1.8l1.6-5.5c0.1-0.3,0.7-2.2-1.7-1.8
		c-2.1,0.3-3.5,1.6-3.5,1.6c0.2-0.5,0.3-1.3,0-1.5c-0.4-0.2-2.9,0.6-3.5,1.1c-0.2,0-0.4,0.3-0.2,0.5c0.3,0.3,0.3,0.6,0.2,1.2
		c-0.3,1-1.4,4.7-1.6,5.4c-0.3,0.7-0.6,2,0,2.4c0.4,0.3,2.2-0.4,2.5-0.6c0.3-0.1,0.5-0.3,0.6-0.3c0.3-0.3-0.2-0.5,0.3-2.3
		c0-0.1,0.6-1.9,1-3.5c0.3-1.3,1.6-1.9,2-2c0.7-0.1,0.5,0.5,0.4,1c-0.6,1.9-1.3,4.8-1.6,5.4c-0.3,0.7-0.7,2.1,0,2.3
		c0.6,0.4,3.4-0.8,3.6-1C83.1,23.9,83.1,23.8,82.9,23.8"/>
	<path class="st0" d="M72.3,23.8c-0.2-0.1-0.3-0.1-0.3-0.2c-0.5-0.3-0.2-1.3,0-1.8l1.6-5.5c0.1-0.6,0.4-1.4,0-1.6
		c-0.5-0.2-3,0.6-3.6,1.1c-0.1,0-0.3,0.3-0.1,0.5c0.3,0.3,0.3,0.6,0.1,1.2c-0.3,1-1.5,4.8-1.7,5.4c-0.3,0.7-0.6,2.1,0.2,2.3
		c0.6,0.4,3.2-0.7,3.5-1C72.6,24,72.6,23.8,72.3,23.8"/>
	<path class="st0" d="M71.8,13.3c0.2,0.3,1.7-0.3,2.5-0.8c0.1-0.1,0.4-0.3,0.5-0.6c0.2-0.6,0.3-0.9,0.3-1.3c0.1-0.2,0.1-0.4-0.2-0.5
		c-0.3-0.1-2.4,0.2-2.9,1C71.9,11.5,71.3,13.1,71.8,13.3"/>
	<path class="st0" d="M95,19.4c-0.3-1-1.8-1.2-2.4-0.7c-0.3,0.3-0.5,1-0.4,1.2c1.5-0.4,1.7,0.9,1.5,1.4c-0.5,0.8-0.7,1-1.4,1h-4.6
		c-0.1-0.1-0.2-0.2,0-0.3c0.3-0.3,4.8-6.5,4.9-6.7c0.1-0.2,0.3-0.6-0.3-0.6h-5c-0.5,0-0.8,0.2-1.2,0.6c-0.3,0.4-0.8,1.7-1,2.6
		c0,0,0,0.3,0.5-0.1c0.1-0.1,0.3-0.4,0.5-0.4h3c1,0-4.1,4.8-5.6,7.3C83.2,25,83.6,25,83.9,25h6.6c1.6,0,1.4,0.3,2.2-1
		C92.7,24,95.4,20.6,95,19.4"/>
	<path class="st0" d="M58.8,22.3l1.8-7c1.2-4.2,1.9-4.4,2.3-4.8h-2.9c-1,0-1.8,1.5-2,2.4l-1.2,4.4h-2.6c0,0,1.6-5.6,1.7-6.2
		c0.1-0.3,0.1-0.6-0.4-0.6c-0.1,0-5.5-0.2-7.3,0.4c-0.8,0.3-1.9,1-2.2,2c-0.3,0.6-0.6,1.7,0.2,3.8c0.1,0.3,0.3,0.4,0.3,0.5
		c0.3,0.2,2.5-0.2,2.4-0.2c0.2,0,0.3-0.1,0.1-0.4c-0.2-0.4-0.7-1.2-0.8-2c-0.3-3,1.8-3.5,2.2-3.5c0.5-0.1,1-0.1,1.5,0
		c0.2,0,0.6,0.1,0.7,0.3c0.2,0.3-0.1,1-0.3,1.6c-0.2,0.5-1.6,5.9-2.1,7.3c-0.3,1.1-1.4,3.5-2.5,3.9c-0.3,0.1-0.6,0.1-1,0
		c-0.3-0.1-0.7-0.3-1-0.4c-0.7-0.7-1.1-2.1-1.2-3.1c-0.1-1.3,0.2-2.2-0.1-2.2c-0.5,0-2,0.6-2.6,1c0,0,0,0,0,0
		c-0.2,0.2-0.3,0.2-0.3,0.2c0,0,0,0,0,0c-0.2,0.3-0.1,1.2-0.1,1.8c0.3,1.3,1,2.8,2,3.5c2.8,1.9,7.6-1.6,8.1-1.9
		c0.8-0.7,1.3-1.6,1.5-2.3c0.3-0.9,0.7-2.3,0.7-2.3h2.6c0,0-1,3.9-1.3,4.8c-0.3,0.8-0.4,2.1,0.3,2c2.6,0,3.6-1,3.7-1
		c0.1-0.1,0.1-0.3,0-0.3C59.1,23.8,58.5,23.2,58.8,22.3"/>
</g>
</svg>
