<?xml version="1.0" encoding="utf-8"?>
<!-- Generator: Adobe Illustrator 26.0.1, SVG Export Plug-In . SVG Version: 6.00 Build 0)  -->
<svg version="1.1" id="Layer_1" xmlns="http://www.w3.org/2000/svg" xmlns:xlink="http://www.w3.org/1999/xlink" x="0px" y="0px"
	 viewBox="0 0 95 35" style="enable-background:new 0 0 95 35;" xml:space="preserve">
<style type="text/css">
	.st0{fill:#CCCCCC;}
</style>
<path class="st0" d="M28.3,26.2h14.2V28H28.3c0,0,0,0,0,0C27,28,26,27,26,25.7V7h1.8v18.7c0,0,0,0,0,0C27.8,26,28,26.2,28.3,26.2z
	 M19.9,7h-2.3l-15,19.1c-0.1,0.2-0.4,0.2-0.5,0.2c-0.2-0.1-0.3-0.3-0.3-0.5V7H0v18.8c0,1,0.6,1.9,1.5,2.2C1.8,28,2,28.1,2.3,28.1
	c0.7,0,1.4-0.3,1.8-0.9l7.2-9.1L19,28h2.3l-8.9-11.4L19.9,7z M66.6,28h2L59.4,8.3c-0.5-1.2-1.9-1.7-3.1-1.1
	c-0.5,0.2-0.9,0.6-1.1,1.1L46,28h2l8.9-19c0.1-0.2,0.3-0.3,0.5-0.3c0.2,0,0.4,0.1,0.5,0.3L66.6,28z"/>
<path class="st0" d="M73.9,7V28H95V7H73.9z M93.4,18.5h-8v8h-2v-8h-8v-2h8v-8h2v8h8V18.5z"/>
</svg>
