<?xml version="1.0" encoding="utf-8"?>
<!-- Generator: Adobe Illustrator 26.0.1, SVG Export Plug-In . SVG Version: 6.00 Build 0)  -->
<svg version="1.1" id="Layer_1" xmlns="http://www.w3.org/2000/svg" xmlns:xlink="http://www.w3.org/1999/xlink" x="0px" y="0px"
	 viewBox="0 0 95 35" style="enable-background:new 0 0 95 35;" xml:space="preserve">
<style type="text/css">
	.st0{fill-rule:evenodd;clip-rule:evenodd;fill:#CCCCCC;}
</style>
<g>
	<path class="st0" d="M17.5,14.6h1.2l-0.1,0.9h-1.2L17.5,14.6z M34.6,16.5l0.3-0.2l0.3-0.2l0.3-0.1l0.3,0l-0.1,1.1h-0.5l-0.2,0.1
		l-0.2,0.1l-0.1,0.1l-0.1,0.3l-0.1,0.4l-0.1,1.3h-1.3l0.2-2.5l0-0.9h1.2L34.6,16.5L34.6,16.5z M26.5,17.8l0,0.3l0.1,0.3l0.1,0.1
		l0.1,0.1l0.1,0.1l0.2,0l0.2,0l0.2-0.1l0.1-0.1l0.1-0.1l0.1-0.4l0-0.4v-0.3l-0.1-0.3l-0.1-0.2l-0.1-0.1l-0.2-0.1l-0.2,0l-0.2,0
		l-0.2,0.1l-0.1,0.1l-0.1,0.2l-0.1,0.3L26.5,17.8L26.5,17.8z M25.5,14.6h1.2l-0.1,1.9l0.2-0.2l0.3-0.2l0.3-0.1l0.3,0l0.4,0l0.3,0.1
		l0.2,0.2l0.2,0.2l0.2,0.3l0.1,0.3l0.1,0.3v0.3L29.1,18L29,18.3l-0.1,0.3l-0.2,0.3l-0.2,0.2l-0.3,0.2l-0.4,0.1l-0.4,0l-0.3,0
		l-0.3-0.1l-0.2-0.2L26.5,19l-0.1,0.4h-1.3L25.5,14.6L25.5,14.6z M31.8,17.3l0-0.3l-0.1-0.2l-0.2-0.2l-0.1-0.1h-0.1l-0.3,0.1
		l-0.2,0.2l-0.1,0.2l-0.1,0.3H31.8L31.8,17.3z M30.5,18v0.3l0.1,0.3l0.1,0.1l0.1,0.1l0.1,0l0.2,0l0.2,0l0.2-0.1l0.1-0.2l0-0.2h1.2
		l-0.1,0.3l-0.1,0.3l-0.2,0.2l-0.2,0.2l-0.2,0.1l-0.2,0.1l-0.5,0.1l-0.5,0l-0.4-0.1l-0.3-0.2l-0.3-0.2l-0.2-0.3l-0.1-0.3l-0.1-0.4
		v-0.5l0.1-0.4l0.2-0.4l0.2-0.3l0.2-0.2l0.3-0.2l0.3-0.1l0.3-0.1l0.4,0l0.5,0.1l0.4,0.1l0.3,0.2l0.2,0.2l0.2,0.3l0.1,0.3l0,0.4V18
		L30.5,18L30.5,18L30.5,18z M35.8,19.5l0.3-4.9h1.2l-0.3,4.9H35.8z M12.4,14.6h1.4l-0.4,4.9h-1.4L12.4,14.6z M15.4,14.6l-1.7,2.2
		l1.6,2.7H17l-1.7-2.8l1.8-2.1L15.4,14.6L15.4,14.6z M17.3,16.1h1.2l-0.2,3.4h-1.2L17.3,16.1z M51.2,18.8h0.2l0.2-0.1l0.1-0.1
		l0.1-0.2l0.1-0.3l0-0.4h-0.4l-0.3,0.1l-0.1,0.1l-0.1,0.1l-0.1,0.2l0,0.2l0,0.2l0.1,0.1l0.1,0.1L51.2,18.8z M51.8,19l-0.2,0.2
		l-0.2,0.1l-0.3,0.1l-0.3,0l-0.3,0l-0.2-0.1L50,19.3l-0.2-0.1L49.8,19l-0.1-0.2l-0.1-0.4l0-0.2l0.1-0.2l0.2-0.2l0.2-0.2l0.3-0.1
		l0.3-0.1l0.4-0.1l0.4,0h0.4l0-0.2v-0.2l-0.1-0.1l-0.1-0.1l-0.1-0.1l-0.2,0l-0.2,0.1l-0.1,0.2l-0.1,0.2V17h-1.2l0.1-0.3l0.1-0.2
		l0.2-0.2l0.2-0.1l0.3-0.1l0.3-0.1l0.6,0l0.5,0.1l0.3,0.1l0.2,0.1l0.2,0.2l0.2,0.2l0.1,0.2l0,0.3l-0.1,1.6v0.7h-1.2L51.8,19L51.8,19
		z M56.1,19.5l0.4-4.9h1.3l-0.3,4.9H56.1z M20.2,16.1v0.5l0.3-0.3l0.3-0.2l0.3-0.1l0.3,0l0.4,0.1l0.3,0.1l0.2,0.2l0.1,0.2l0.2-0.3
		l0.3-0.2l0.3-0.1l0.4-0.1l0.3,0l0.2,0.1l0.2,0.1l0.2,0.1l0.2,0.2l0.1,0.2l0.1,0.2v0.3l-0.2,2.3h-1.3l0.2-2l0-0.2l0-0.2l-0.2-0.2
		l-0.2-0.1l-0.2,0l-0.2,0.1L22.7,17l-0.1,0.1l-0.1,0.2l0,0.2l-0.1,1.9h-1.3l0.2-2l0-0.2L21.2,17l-0.1-0.2l-0.2-0.1l-0.2,0l-0.2,0.1
		L20.3,17l-0.1,0.1l-0.1,0.2l0,0.2l-0.1,1.9h-1.3l0.2-3.4L20.2,16.1L20.2,16.1L20.2,16.1z M39.1,21.1H38l0.8-1.6l-1.2-3.5h1.5
		l0.5,2.1l0.9-2.1h1.2L39.1,21.1z M41.7,16.7h1.6l-0.5,1.1h-1.6L41.7,16.7z M57.6,17.5l1.2-1.5h1.5l-1.3,1.4l1.2,2h-1.6L57.6,17.5z
		 M46,14.4l0.4,0l0.4,0.1l0.3,0.1l0.3,0.2l0.2,0.2l0.2,0.3l0.1,0.4l0,0.4h-1.4l0-0.2l-0.1-0.2l-0.2-0.2L46,15.4l-0.4,0.1l-0.2,0.1
		l-0.2,0.2l-0.2,0.2L45,16.1L45,16.4l-0.1,0.4l0,0.7l0,0.3l0.1,0.3l0.1,0.2l0.2,0.2l0.2,0.1l0.3,0H46l0.2-0.1l0.2-0.1l0.1-0.1
		l0.1-0.2l0-0.2H48v0.2l-0.1,0.3l-0.1,0.3l-0.2,0.3l-0.3,0.2l-0.4,0.2l-0.5,0.2l-0.6,0L45,19.4l-0.5-0.2L44.1,19l-0.3-0.4l-0.2-0.4
		l-0.1-0.5l0-0.5l0.1-0.5l0.1-0.4l0.2-0.4l0.2-0.4l0.3-0.3l0.4-0.3l0.4-0.2l0.5-0.2L46,14.4L46,14.4z M48.1,19.5l0.3-4.9h1.2
		l-0.3,4.9H48.1z M54.9,16.5L54.9,16.5l0.3-0.2l0.3-0.2l0.3-0.1l0.3,0L56,17.1h-0.6l-0.2,0.1l-0.2,0.1L55,17.5l-0.1,0.3l0,0.4
		l-0.1,1.3h-1.3l0.2-2.5v-0.9h1.3L54.9,16.5L54.9,16.5z M65.9,14.8l-0.2-0.1l-0.3-0.1l-0.5,0l-0.5,0.1l-0.5,0.1L63.3,15L63,15.3
		l-0.3,0.3l-0.2,0.4l-0.2,0.5l-0.1,0.5v0.5l0.1,0.5l0.2,0.4l0.3,0.4l0.3,0.3l0.4,0.2l0.5,0.1l0.5,0.1l0.6,0l0.3-0.1l0.3-0.1v-0.4
		L65.3,19L65,19.1l-0.6,0.1L64,19.1L63.6,19l-0.3-0.2L63,18.5l-0.2-0.3l-0.1-0.3l-0.1-0.4v-0.4l0.1-0.4l0.1-0.4l0.2-0.4l0.3-0.3
		l0.3-0.2l0.3-0.2l0.4-0.1l0.4,0l0.6,0l0.3,0.1l0.2,0.1L65.9,14.8L65.9,14.8z M65.9,17.7v0.4l0,0.3l0.1,0.3l0.2,0.3l0.2,0.2l0.3,0.2
		l0.3,0.1l0.4,0l0.4,0l0.3-0.1l0.3-0.2l0.3-0.2l0.2-0.3l0.2-0.3l0.1-0.3l0.1-0.4v-0.3L69.2,17l-0.1-0.3l-0.2-0.3l-0.2-0.2l-0.3-0.2
		l-0.3-0.1l-0.4,0l-0.4,0L67,16.1l-0.3,0.2l-0.2,0.2l-0.2,0.3L66.1,17L66,17.4L65.9,17.7z M69.7,19.4h0.4l0.2-1.7l0.1-0.5l0.2-0.4
		l0.2-0.2l0.2-0.2l0.2-0.1l0.2,0l0.3,0l0.1-0.5l-0.3,0L71.1,16l-0.3,0.2l-0.2,0.2l-0.2,0.3l0.1-0.7H70l0,0.8L69.7,19.4L69.7,19.4z
		 M71.7,20.9h0.4l0.2-2l0.2,0.3l0.2,0.2l0.3,0.2l0.4,0l0.4,0l0.3-0.1l0.2-0.2l0.2-0.2l0.2-0.3l0.2-0.3l0.1-0.3l0.1-0.4v-0.4l0-0.3
		l-0.1-0.3l-0.2-0.3l-0.2-0.2L74.4,16l-0.3-0.1l-0.4,0l-0.3,0L73.2,16l-0.4,0.2l-0.2,0.2l-0.2,0.2l0.1-0.6h-0.5L71.7,20.9L71.7,20.9
		z M75.4,17.7v0.4l0.1,0.3l0.1,0.3l0.2,0.3l0.2,0.2l0.3,0.2l0.3,0.1l0.4,0l0.4,0l0.4-0.1l0.3-0.2l0.2-0.2l0.2-0.3l0.2-0.3l0.1-0.3
		l0.1-0.4v-0.3l0-0.3l-0.1-0.3l-0.2-0.3l-0.2-0.2L78,16.1l-0.3-0.1l-0.4,0l-0.4,0l-0.4,0.1l-0.3,0.2L76,16.5l-0.2,0.3L75.6,17
		l-0.1,0.3L75.4,17.7z M83.5,19.4h0.4l0-0.7l0.2-1.5v-0.3l0-0.3L84,16.4l-0.1-0.2l-0.2-0.1L83.5,16l-0.3,0l-0.3,0L82.4,16l-0.5,0.2
		l0,0.4l0.3-0.1l0.2-0.1l0.5-0.1l0.4,0.1l0.1,0.1l0.1,0.1l0.1,0.3v0.5h-0.1l-0.7,0l-0.4,0.1l-0.4,0.1l-0.3,0.2l-0.3,0.2l-0.2,0.3
		l-0.1,0.4l0,0.3l0,0.2l0.1,0.2l0.2,0.2l0.2,0.1l0.3,0.1l0.3,0l0.3,0l0.3-0.1l0.3-0.2l0.2-0.3h0L83.5,19.4L83.5,19.4z M86.9,19.4
		h0.5l0.3-3.4h-0.5L86.9,19.4z M88.1,17.7l0,0.4l0.1,0.3l0.1,0.3l0.2,0.3l0.2,0.2l0.3,0.2l0.3,0.1l0.4,0l0.4,0l0.3-0.1l0.3-0.2
		l0.2-0.2l0.2-0.3l0.2-0.3l0.1-0.3l0.1-0.4l0-0.3L91.4,17l-0.1-0.3l-0.2-0.3L91,16.2l-0.3-0.2l-0.3-0.1l-0.4,0l-0.4,0l-0.3,0.1
		l-0.3,0.2l-0.2,0.2l-0.2,0.3L88.3,17l-0.1,0.3L88.1,17.7L88.1,17.7z M79.3,19.4h0.5l0.2-1.7l0.1-0.5l0.2-0.4l0.1-0.2l0.2-0.2
		l0.2-0.1l0.2,0l0.3,0l0-0.5l-0.3,0L80.6,16l-0.3,0.2l-0.2,0.2L80,16.7h0L80,16h-0.4l-0.1,0.8L79.3,19.4L79.3,19.4z M86.6,16h-0.8
		l0.1-1l-0.5,0.2L85.3,16h-0.7l0,0.4h0.7l-0.2,2v0.5l0.1,0.4l0.1,0.1l0.2,0.1l0.2,0.1l0.3,0l0.3,0l0.2-0.1v-0.4l-0.2,0.1l-0.2,0
		l-0.2-0.1L85.6,19l-0.1-0.2v-0.2l0.2-2.2h0.8L86.6,16L86.6,16z M87.8,14.5h-0.4l-0.1,0.5h0.4L87.8,14.5z M92,19.4h0.5l0.2-1.9
		l0.1-0.4l0.1-0.2l0.2-0.2l0.2-0.2l0.2-0.1l0.2-0.1l0.3,0l0.2,0l0.2,0.1l0.2,0.1l0.1,0.1l0.1,0.3v0.4l-0.2,2.1h0.4l0.2-2.2l0-0.5
		l-0.1-0.2l-0.1-0.2l-0.2-0.2L94.5,16l-0.3-0.1l-0.3,0L93.4,16L93,16.1l-0.2,0.2l-0.2,0.2l0.1-0.6h-0.5l0,0.8L92,19.4L92,19.4z
		 M66.4,17.7l0.1-0.5l0.1-0.2l0.2-0.2l0.2-0.2l0.2-0.1l0.2-0.1l0.3,0l0.3,0l0.2,0.1l0.2,0.1l0.2,0.2l0.1,0.2l0.1,0.2l0,0.3v0.3
		L68.7,18l-0.1,0.3l-0.1,0.2l-0.2,0.2l-0.2,0.2L68,19l-0.3,0.1l-0.3,0l-0.2,0L66.9,19l-0.2-0.1l-0.2-0.2l-0.1-0.2l-0.1-0.2l0-0.3
		L66.4,17.7L66.4,17.7L66.4,17.7z M74.5,17.7l-0.1,0.5l-0.1,0.2l-0.1,0.2l-0.2,0.2L73.9,19l-0.2,0.1l-0.3,0l-0.3,0L72.9,19l-0.2-0.2
		l-0.1-0.2l-0.1-0.2l0-0.2l0-0.5l0.1-0.5l0.2-0.5l0.2-0.2l0.2-0.2l0.2-0.1l0.3,0l0.3,0l0.2,0.1l0.2,0.2l0.1,0.2l0.1,0.2l0.1,0.2
		L74.5,17.7L74.5,17.7L74.5,17.7z M75.9,17.7l0.1-0.5l0.1-0.2l0.2-0.2l0.2-0.2l0.2-0.1l0.2-0.1l0.3,0l0.3,0l0.2,0.1l0.2,0.1l0.2,0.2
		l0.1,0.2l0.1,0.2l0,0.3v0.3l0,0.3l-0.1,0.3l-0.1,0.2l-0.2,0.2l-0.2,0.2L77.5,19l-0.2,0.1l-0.3,0l-0.3,0L76.5,19l-0.2-0.1l-0.2-0.2
		L76,18.5L76,18.3l0-0.3L75.9,17.7L75.9,17.7L75.9,17.7z M83.6,17.9l0,0.4l-0.1,0.2l-0.1,0.2l-0.1,0.2L83,19l-0.3,0.1l-0.3,0l-0.3,0
		L81.9,19l-0.2-0.2l0-0.3l0.1-0.2l0.2-0.2l0.2-0.2l0.2-0.1l0.5-0.1l0.6,0h0.1L83.6,17.9L83.6,17.9z M88.6,17.7l0.1-0.5l0.1-0.2
		l0.2-0.2l0.2-0.2l0.2-0.1l0.2-0.1l0.3,0l0.3,0l0.2,0.1l0.2,0.1l0.2,0.2l0.1,0.2l0.1,0.2l0,0.3l0,0.3l0,0.3l-0.1,0.3l-0.1,0.2
		l-0.2,0.2l-0.2,0.2L90.2,19l-0.2,0.1l-0.3,0l-0.3,0L89.2,19l-0.2-0.1l-0.2-0.2l-0.1-0.2l-0.1-0.2l0-0.3L88.6,17.7L88.6,17.7z
		 M5.5,19.9v-1.9l0.2,0.3l0.2,0.2l0.2,0.2l0.2,0.1L6.5,19l0.4,0h1.4v-0.8H7.3L7,18.2L6.8,18l-0.1-0.2l0-0.2l0.1-0.4l0.2-0.4l0.3-0.3
		l0.4-0.4H6.6l-0.4,0.3l-0.3,0.3l-0.3,0.4l-0.2,0.4V15H4.2v2.6L4,17.2l-0.3-0.4l-0.3-0.3l-0.3-0.3H2l0.4,0.4l0.3,0.3l0.2,0.4L3,17.5
		l0,0.2l0,0.2L2.8,18l-0.2,0.2l-0.3,0.1H1.4V19h1.4l0.4,0l0.4-0.2l0.2-0.1l0.2-0.2l0.2-0.2l0.2-0.3v1.9L5.5,19.9L5.5,19.9L5.5,19.9z
		 M4.8,13.3c2.7,0,4.8,1.9,4.8,4.2s-2.2,4.2-4.8,4.2S0,19.8,0,17.5C0,15.2,2.2,13.3,4.8,13.3z M4.8,13.7c1.7,0,3.3,0.9,4,2.1H6.4
		L6.2,16l-0.3,0.3v-1.7h-2v1.7L3.5,16l-0.3-0.2H0.8C1.6,14.5,3.1,13.7,4.8,13.7L4.8,13.7z M8.8,15.8c0.3,0.5,0.5,1.1,0.5,1.7
		c0,0.7-0.2,1.4-0.6,1.9v-1.6H7.5l-0.2,0l-0.1-0.1l-0.1-0.2l0.1-0.2l0.1-0.2l0.4-0.4l0.5-0.5L8.8,15.8L8.8,15.8z M8.7,19.5
		c-0.8,1.1-2.2,1.9-3.8,1.9c-1.6,0-3.1-0.8-3.8-1.9h2l0.3,0l0.2-0.1l0.3-0.2v1.2h2v-1.2l0.3,0.2l0.2,0.1l0.3,0H8.7L8.7,19.5z
		 M1,19.4c-0.4-0.6-0.6-1.2-0.6-1.9c0-0.6,0.2-1.2,0.5-1.7l0.6,0.5L2,16.8l0.4,0.4l0.1,0.2l0,0.2l0,0.2l-0.1,0.1l-0.2,0H1L1,19.4
		L1,19.4z"/>
</g>
</svg>
