<?xml version="1.0" encoding="utf-8"?>
<!-- Generator: Adobe Illustrator 26.0.1, SVG Export Plug-In . SVG Version: 6.00 Build 0)  -->
<svg version="1.1" id="Layer_1" xmlns="http://www.w3.org/2000/svg" xmlns:xlink="http://www.w3.org/1999/xlink" x="0px" y="0px"
	 viewBox="0 0 95 35" style="enable-background:new 0 0 95 35;" xml:space="preserve">
<style type="text/css">
	.st0{fill-rule:evenodd;clip-rule:evenodd;fill:#FFFFFF;}
</style>
<g>
	<path class="st0" d="M94.5,28.5c0.1,0.1,0.2,0.1,0.3,0.2c0.2,0.4,0.2,0.5,0.2,0.6c0,0.2,0,0.3-0.1,0.5c-0.1,0.2-0.2,0.3-0.4,0.3
		c0.1,0.1,0.2,0.2,0.3,0.3c0.1,0.1,0.1,0.3,0.1,0.5c0,0.4,0,0.8,0,0.8l-0.6,0l0-0.5l0-0.3c0-0.2,0-0.4-0.1-0.4
		c-0.1-0.1-0.2-0.1-0.4-0.1h-0.7v1.3h-0.6v-3.4H94C94.2,28.5,94.4,28.5,94.5,28.5L94.5,28.5z M93.1,29v0.9h0.7c0.1,0,0.3,0,0.3-0.1
		c0.1-0.1,0.2-0.2,0.2-0.4c0-0.2-0.1-0.3-0.2-0.4c-0.1,0-0.2-0.1-0.3-0.1H93.1L93.1,29z M90.8,28.5h1v3.4h-0.6v-2.3l0-0.6l-0.6,2.8
		h-0.6L89.3,29l0,0.6v2.3h-0.6v-3.4h1l0.6,2.6L90.8,28.5L90.8,28.5z"/>
	<path class="st0" d="M35.7,28.8c-3.5-2.2-8.2-2.6-15.7-0.5C11.9,30.2,9.2,31.4,5.7,29c-1.4-1.2-1.8-3.1-1.5-5.9
		c0.8-4.5,3.1-8.9,7.2-13.7c2.3-2.5,4.4-4.7,7.1-5.6c2.1-0.5,1.9,1.1,1.7,1.4c-0.3,0-0.7,0-1.1,0.3C18.8,5.6,18,6.4,18,7.3
		c-0.1,1.5,1.5,1.2,2.1,0.4C20.8,6.8,21.9,5,21,3.4c-0.3-0.6-0.9-1-1.7-1.1c-2.5-0.1-4.9,1.1-7.1,2.4C7.5,8,3.7,12.6,1.5,17.6
		c-1.2,3-2.4,7.4-0.7,10.9c1.3,2.5,4,3.8,7.2,3.5c2.3-0.2,5-1,6.9-1.4c1.8-0.4,11.3-3.7,14.4,2c0,0,1-2,3.6-2
		c2.1-0.2,5.2,0.6,7.4,2.2C39.6,31.6,37.5,30,35.7,28.8L35.7,28.8z"/>
	<path class="st0" d="M21,9.9c-1.8-1.2-5.3,1.1-8.2,4.9c-2.6,3.4-3.7,7.4-2.5,9.2c1.8,2.2,5.2-1,6.6-2.7l0.2-0.2
		c1-1,1.7-2.3,2.5-3.5c0,0,0.7-1.1,0.7-1.2c0.4-0.1,0.9-0.2,1.5-0.4c0,0-2.2,3.6-1.9,5.4c0.1,0.5,0,2.5,2,3.1
		c2.6,0.4,4.7-1.6,6.5-3.4c0,0,0.3-0.3,0.5-0.5c0,0.2-0.1,0.4-0.1,0.4c-0.8,2.6,0.3,3.2,0.9,3.4c1.9,0.6,4.2-2.2,4.3-2.2
		c-0.1,0.9-0.2,1.6,0.7,2.2c0.9,0.3,1.8-0.2,2.4-0.6c2.4-1.7,4.4-4.4,6-6.7h-1c0,0-2.5,3.6-4.1,4.4c0,0-0.3,0.1-0.5,0
		c-0.2-0.2-0.1-0.6,0-0.8c0,0,6.2-10.8,6.2-10.8h-2.9c0,0-0.3,0.5-0.3,0.6c0,0-0.1-0.1-0.1-0.1c-1.8-2.5-5.9,1.4-9.1,5.9
		c-1.2,1.7-2.7,3.7-4.3,5.1c0,0-2.3,2.1-3.3,0.6c-0.4-0.6-0.3-1.6,0-2.2c1.2-3.3,3.2-6.3,5.4-8.1c0.6-0.5,1.3-0.6,1.7-0.4
		c0.3,0.2,0.4,0.7,0.2,1c-0.5,0-1,0.1-1.3,0.5c-0.7,0.7-0.9,1.4-0.7,2.1c1.1,1.5,3.2-1.5,3.1-3.3c0-0.6-0.4-1.3-0.9-1.6
		c-0.8-0.5-1.9-0.3-2.7,0c-1,0.4-2.6,1.7-3.6,2.8c-1.2,1.3-3.2,2.8-3.8,2.6C21,14.7,22.8,11.2,21,9.9L21,9.9z M35.1,15.1
		c0.6-0.8,2.2-2.9,2.6-3.3c1.4-1.2,1.9-0.7,2-0.3c-1.3,2.3-2.8,4.9-4.2,7.2c0,0-0.4,0.7-0.4,0.7c-0.6,1-1.3,1.8-2.3,2.3
		c-0.1,0-0.4,0.1-0.5-0.1c-0.2-0.1-0.3-0.3-0.2-0.6C32.1,20.4,32.8,18.2,35.1,15.1L35.1,15.1z M19.1,16.5c0,0,0,0.1,0,0.1
		c0,0-1.3,2.1-1.3,2.1c-0.8,1-1.7,2.3-2.9,2.9c-0.4,0.1-0.9,0.2-1.1-0.1c-0.5-0.6-0.3-1.5,0-2.2l0.1-0.3c0.6-1.7,1.7-3.3,2.6-4.7
		c0,0,0,0,0,0c0,0,0,0,0,0c0.6,1.2,1.8,1.7,2.7,2c0,0,0,0,0,0C19.2,16.3,19.2,16.4,19.1,16.5L19.1,16.5z M20.4,14
		c0,0-0.6,1.3-0.6,1.3c-0.1,0.1-0.2,0-0.4,0l-0.3,0c-0.8-0.2-1.4-0.8-1.6-1.4c-0.3-1.2,0.8-2.2,1.3-2.5c0.4-0.3,1.1-0.5,1.5-0.2
		c0.2,0.3,0.3,0.7,0.3,1.1C20.7,12.8,20.5,13.4,20.4,14L20.4,14z"/>
	<path class="st0" d="M57.5,17.9c-0.3-0.6-1-1-1.7-1c-2.3,0.2-4.6,2.1-5.8,4.9c-0.6,1.4-1,2.6-1.2,4.4c0.7-0.8,2.2-2.2,3.9-3
		c0,0,0.2-1.8,1.4-3.4c0.4-0.7,1.3-1.7,2.3-1.4c0.9,0.3,0.6,2.7-0.6,5c-0.8,1.7-2.2,3.4-3.5,4.6c-1.2,1-2.9,2.2-4.4,1.3
		c-0.9-0.6-1.4-1.7-1.3-3.3c0.5-4.3,2.4-8,5.2-12.1c2.9-3.9,6.1-7.8,10.4-10c0.9-0.4,1.7-0.5,2.4-0.3c0,0-4,2.2-5.9,6.3
		c-0.5,1-1.2,2.4-0.5,3.7c0.4,0.6,1,0.7,1.5,0.7c2.4-0.5,3.9-2.7,5.1-4.8c0.7-1.5,1.4-3,1.4-4.7c0-0.2,0-0.5,0-0.7
		c1.1-0.6,3.4,0.5,3.4,0.5c1.8,0.6,5.6,3.5,6.9,4.1c0.6-0.7,1.7-1.8,2.3-2.4l-0.8-0.5c-1.4-0.8-2.8-1.6-4.2-2.4
		c-3.2-1.7-5.8-1.1-7.1-0.7c-0.5,0.2-1,0.3-1,0.3c-1-1.1-2.6-1-3.8-0.7c-4.3,1.2-8.2,4.2-12.5,9.4c-3.1,4.1-5.1,7.6-6.1,11
		c-0.8,2.3-1,5.8,0.9,7.8c1.7,1.7,3.8,1.4,5.4,0.7c3.4-1.7,6.4-5.2,7.9-9.3C57.7,21,58.1,19.3,57.5,17.9L57.5,17.9z M65.2,5.1
		c-0.4,5.1-4.4,8.1-5.4,8.3c-0.6,0.1-1.6-0.1-0.7-2.3c1.3-2.9,3.6-5.3,6-6.6C65.3,4.8,65.3,4.9,65.2,5.1L65.2,5.1z"/>
	<path class="st0" d="M88.7,5.8c-2.1,1.2-4.3,2-7,1.7c-0.7,0.8-1.5,1.7-2.1,2.6c3.7,1,7.7-1.2,9.9-3.2c2.3-2,3.5-4.6,3.5-4.6
		S91.3,4.3,88.7,5.8L88.7,5.8z"/>
	<polygon class="st0" points="48.5,9.9 45.7,9.9 44.1,12.6 46.9,12.6 48.5,9.9 	"/>
	<path class="st0" d="M81.7,29.1c-0.3,0.2-0.7,0-0.6-0.4c0.4-1.2,2-3.6,2-3.6l4.3-7.7h-3c-0.1,0.3-0.4,0.8-0.4,0.8
		c-0.1-0.2-0.6-0.7-0.7-0.8c-0.7-0.5-1.8-0.2-2.5,0.2c-3.2,1.9-5.5,5.6-7.4,8.5c0,0-1.9,3.2-3,3.4c-0.8,0.1-0.8-1.1-0.7-1.3
		c0.3-1.9,1.1-3.7,1.8-5.4c1.5-1.1,3.3-2.5,4.9-4c3.5-3.3,6.4-7.1,6.8-7.9c0,0-0.5,0.1-1,0.1c-2.7,3.7-8.2,9.2-9.8,10
		c0.7-1.8,5.5-10.2,9.5-14.3l0.6-0.6c1-1,2-1.9,2.8-2.1c0.1,0,0.2,0,0.3,0.2c0,0.7-0.2,1.3-0.6,1.9l-0.4,0.9c0,0,0.6-0.1,1.1-0.3
		c0.5-0.9,1-1.9,0.8-3.1c-0.1-0.4-0.3-0.7-0.7-0.8c-1.2-0.2-2.5,0.7-3.6,1.4l0,0c-5.4,4.3-10,10.4-14.1,18.8
		c-0.3,0.2-1.4,0.5-1.6,0.4c0.4-0.8,0.9-1.9,1.1-3.1c0-0.3,0.1-0.7,0.1-1c0-0.7-0.2-1.4-0.8-1.9c-0.8-0.4-1.7-0.2-2.4,0.1
		c-2.9,1.2-5,4.1-6.6,6.6c-0.8,1.5-1.7,3.2-1.9,5.1c-0.2,1.5,0.2,2.4,1,2.9c0.9,0.4,2,0,2.4-0.2c2.9-1.5,4.9-4.6,6.5-7.4
		c0.1,0,0.9,0,1.6-0.2c0,0,0,0,0,0c0,0.1-0.4,1.1-0.4,1.1c-1,3-1.5,5-0.5,6.2c1.4,1.7,3.6-0.1,5.5-2.4c-0.4,2.8,1,3.2,2.1,3
		c1.3-0.3,2.7-1.7,3.3-2.4c-0.2,0.8-0.2,2.3,1,2.4c0.8,0.1,1.4-0.3,2.1-0.6c2.4-1.3,5.4-5.8,6.1-7h-1C84.8,26,83.4,28.1,81.7,29.1
		L81.7,29.1z M59.8,28.8c-0.2-0.2-0.2-0.5-0.2-0.8c0-1.7,1.8-4.6,3-6.3c0,0,0,0,0,0c0.5,1.2,1.7,1.9,2.5,2.2
		C64.2,26,61.1,30.3,59.8,28.8L59.8,28.8z M65.6,23.1c-0.1,0.1-1.6-0.5-1.9-1.9c-0.2-1.2,0.6-2.2,1.4-2.6c0.3-0.3,0.9-0.4,1.2-0.2
		c0.4,0.2,0.5,0.7,0.5,1.1c0,0.3,0,0.6-0.1,0.8c0,0,0,0.1,0,0.1C66.5,21.3,66.1,22.2,65.6,23.1L65.6,23.1z M77.8,28.3
		c0,0-0.3,0.3-0.3,0.3c-0.4,0.4-0.8,0.8-1.3,0.6c-0.1-0.1-0.2-0.2-0.3-0.4c0-1,0.4-2,0.9-3l0.1-0.2c1.3-2.2,2.8-4.8,5.1-6.6
		c0.4-0.3,0.8-0.5,1.2-0.3c0.1,0.1,0.2,0.3,0.2,0.4c0,0.1,0,0.2-0.1,0.2c-0.6,1-1.2,2.1-1.8,3.1C80.4,24.3,79.2,26.4,77.8,28.3
		L77.8,28.3z"/>
</g>
</svg>
