<?xml version="1.0" encoding="utf-8"?>
<!-- Generator: Adobe Illustrator 26.0.1, SVG Export Plug-In . SVG Version: 6.00 Build 0)  -->
<svg version="1.1" id="Layer_1" xmlns="http://www.w3.org/2000/svg" xmlns:xlink="http://www.w3.org/1999/xlink" x="0px" y="0px"
	 viewBox="0 0 95 35" style="enable-background:new 0 0 95 35;" xml:space="preserve">
<style type="text/css">
	.st0{fill:#343741;}
</style>
<path id="logosvg.com_1_" class="st0" d="M55.1,22.8c-0.2,0-0.3,0.1-0.4,0.2c-0.1,0.1-0.2,0.3-0.2,0.4c0,0.2,0.1,0.3,0.2,0.4
	C54.8,24,55,24,55.1,24c0.2,0,0.3-0.1,0.4-0.2c0.1-0.1,0.2-0.3,0.2-0.4c0-0.2-0.1-0.3-0.2-0.4C55.4,22.9,55.3,22.8,55.1,22.8z
	 M55.3,23.8c0,0,0-0.1,0-0.1c0,0,0-0.1,0-0.1c0,0,0,0-0.1-0.1c0,0,0,0-0.1,0h0h0v0.3h-0.2V23H55c0.1,0,0.1,0,0.2,0
	c0.1,0,0.1,0,0.2,0c0.1,0,0.1,0.1,0.1,0.2c0,0.1,0,0.1-0.1,0.1c0,0-0.1,0-0.1,0c0,0,0.1,0,0.1,0c0,0,0.1,0.1,0.1,0.2v0.1
	c0,0,0,0,0,0s0,0,0,0v0L55.3,23.8L55.3,23.8z M55.3,23.3C55.3,23.3,55.3,23.3,55.3,23.3c-0.1,0.1-0.1,0.1-0.1,0.1H55v-0.2h0
	C55.1,23.2,55.2,23.2,55.3,23.3C55.2,23.2,55.3,23.2,55.3,23.3z M44.9,20.8c-0.9,0-1.2-1-1.2-2.3c0-1.4,0.3-2.3,1.2-2.3
	s1.2,1,1.2,2.3C46,19.8,45.7,20.8,44.9,20.8z M52.3,18.4c0,1.4-0.3,2.4-1.2,2.4c-0.9,0-1.2-1-1.2-2.4c0-1.4,0.3-2.4,1.2-2.4
	C52,16.1,52.3,17.1,52.3,18.4z M58.3,17.3h-2.2c0.2-0.7,0.5-1.2,1.1-1.2C57.8,16.1,58.2,16.6,58.3,17.3z M65.4,11.3
	c-1-1.9-2.4-3.6-4.2-5c-3.7-2.9-8.5-4.6-13.7-4.6l0,0c-5.2,0-10.1,1.6-13.7,4.6c-1.8,1.5-3.2,3.1-4.2,5c-1,2-1.6,4-1.6,6.2
	c0,2.1,0.5,4.2,1.6,6.2c1,1.9,2.4,3.6,4.2,5c3.7,3,8.6,4.6,13.7,4.6c5.2,0,10.1-1.6,13.7-4.6c1.8-1.4,3.2-3.1,4.2-5
	c1-2,1.6-4,1.6-6.2C67,15.3,66.5,13.3,65.4,11.3z M37.9,12.7c0.1,3.7-2.4,4.2-2,4.2c2.5,0,2,5,2.1,5.3h-2c0,0,0-2.4,0-2.5
	c-0.1-2.1-1.8-2.3-1.8-2.1v4.7h-1.9V11.1h1.9c0,0,0,4.4,0,4.8c0,0,2-0.3,1.8-4.3c0-0.1,0-0.8,0.4-1.7c0,0,0,0,0,0c0,0,0-0.1,0-0.1
	l0,0c0.7-1.6,2.1-3,4.6-3l0,0c5.2,0,4.8,6.9,4.8,6.9c0,0-1.7,0-1.9,0c0-0.1,0.3-5.7-3.1-5.7c-1.5,0-2.3,1.2-2.7,2.5
	C38,11.1,37.9,11.9,37.9,12.7z M40.2,17.6v4.6h-1.8l0-7.6h0h1.4l0.2,0.5c0,0,0.5-0.5,1.3-0.5c0.4,0,0.7,0.1,0.7,0.1v1.7
	c0,0-0.9,0-1.4,0.4C40.4,17,40.2,17.2,40.2,17.6z M41.9,18.5c0-2.1,1-3.8,2.9-3.8c1.9,0,2.9,1.7,2.9,3.8c0,2.1-0.9,3.8-2.9,3.8
	C42.8,22.3,41.9,20.6,41.9,18.5z M48.8,29.7c-5.1,0-4.9-6.4-4.9-6.4s1.7,0,1.9,0c0,0.1-0.4,5.3,3.2,5.2c3.3-0.1,3.2-5,3.1-6.5
	c-0.3,0.1-0.7,0.3-1.1,0.3c-2,0-2.9-1.7-2.9-3.8c0-2.1,1-3.8,2.9-3.8c0.3,0,0.8,0.2,1,0.4v-0.4H54c0,0,0,7.3,0,7.9l0,0
	C54,23.1,54.4,29.7,48.8,29.7z M55.6,23.9c-0.1,0.1-0.3,0.2-0.5,0.2s-0.4-0.1-0.5-0.2c-0.1-0.1-0.2-0.3-0.2-0.5
	c0-0.2,0.1-0.4,0.2-0.5c0.1-0.1,0.3-0.2,0.5-0.2c0.2,0,0.4,0.1,0.5,0.2c0.1,0.1,0.2,0.3,0.2,0.5C55.9,23.6,55.8,23.8,55.6,23.9z
	 M60.3,18.5L60.3,18.5h-1.7l0,0h-2.4c0,1.3,0.4,2.3,1.2,2.3c0.7,0,1-0.6,1.1-1.6h1.7c-0.2,1.7-1.1,3.1-2.9,3.1c-2,0-2.9-1.7-2.9-3.8
	s1-3.8,2.9-3.8c1.6,0,2.5,1.1,2.8,2.6l0,0C60.1,17.3,60.3,17.8,60.3,18.5z M64.2,16.4c0,0-0.9,0-1.4,0.4c-0.2,0.1-0.4,0.3-0.4,0.8
	v4.6h-1.8l0-7.6h0h1.4l0.2,0.5c0,0,0.5-0.5,1.3-0.5c0.4,0,0.7,0.1,0.7,0.1L64.2,16.4L64.2,16.4z M67,10.6c-1.1-2.1-2.6-4-4.6-5.6
	c-4-3.3-9.3-5.1-15-5.1s-11,1.8-15,5.1c-2,1.6-3.5,3.5-4.6,5.6c-1.1,2.2-1.7,4.5-1.7,6.9s0.6,4.7,1.7,6.9c1.1,2.1,2.6,4,4.6,5.6
	c4,3.3,9.3,5.1,15,5.1c5.6,0,11-1.8,15-5.1c2-1.6,3.5-3.5,4.6-5.6c1.1-2.2,1.7-4.5,1.7-6.9C68.7,15.1,68.2,12.8,67,10.6z M47.5,34.3
	c-11.4,0-20.6-7.5-20.6-16.8S36.1,0.7,47.5,0.7c11.4,0,20.6,7.5,20.6,16.8S58.9,34.3,47.5,34.3z"/>
</svg>
