<?xml version="1.0" encoding="utf-8"?>
<!-- Generator: Adobe Illustrator 26.0.1, SVG Export Plug-In . SVG Version: 6.00 Build 0)  -->
<svg version="1.1" id="Layer_1" xmlns="http://www.w3.org/2000/svg" xmlns:xlink="http://www.w3.org/1999/xlink" x="0px" y="0px"
	 viewBox="0 0 95 35" style="enable-background:new 0 0 95 35;" xml:space="preserve">
<style type="text/css">
	.st0{fill:#CCCCCC;}
</style>
<g>
	<path class="st0" d="M13.2,27.7H7.1c-0.1,0-0.1,0-0.2-0.1L2,23.9c-0.1-0.1-0.1-0.1-0.1-0.2L0,17.8v-0.2l1.9-6.4
		c0-0.1,0.1-0.1,0.1-0.2l5-3.7c0.1-0.1,0.1-0.1,0.2-0.1h5.9c0.1,0,0.1,0,0.2,0.1l5,3.7c0.1,0.1,0.1,0.1,0.1,0.2l1.9,6.4v0.2l-1.9,6
		c0,0.1-0.1,0.1-0.1,0.2l-4.9,3.7C13.3,27.7,13.3,27.7,13.2,27.7 M7.4,27h5c-2-1.9-4-3.6-6-5.1C6.6,23.5,6.9,25.3,7.4,27 M6.7,21.3
		c2.2,1.6,4.2,3.4,6.4,5.4c0.5-2.7,0.8-5.3,0.9-7.8C11.2,19.5,8.7,20.3,6.7,21.3 M14.5,19.2c-0.1,2.4-0.4,4.9-0.8,7.4l4.1-3
		C16.8,21.8,15.8,20.3,14.5,19.2 M2.7,23.7l3.9,2.9c-0.4-1.6-0.7-3.3-0.8-4.9C4.6,22.3,3.6,23,2.7,23.7 M0.8,18.4l1.5,4.7
		c0.8-0.7,1.9-1.4,3-2C3.9,20.2,2.4,19.2,0.8,18.4 M14.9,18.7c1.2,1.1,2.3,2.5,3.2,4.2l1.5-4.7C18.1,18.2,16.5,18.4,14.9,18.7
		 M6.2,14.6c-0.2,2-0.2,4.1,0.1,6.2c2.1-1,4.6-1.8,7.2-2.4c-1.6-1.2-3.2-1.9-4.9-2.7C7.8,15.3,7,15,6.2,14.6 M0.8,17.7
		c1.6,0.8,3.2,1.8,4.7,2.9c-0.2-2-0.2-4-0.1-6C3.7,15.4,2.1,16.5,0.8,17.7 M14.3,12.5c0.2,1.8,0.3,3.7,0.3,5.6
		c1.6-0.3,3.3-0.6,4.8-0.7C17.8,15.6,16.2,14,14.3,12.5 M6.7,14.1c0.7,0.3,1.4,0.6,2.1,1c1.7,0.7,3.4,1.5,5.1,2.8
		c0-1.9-0.1-3.8-0.3-5.7C11.1,12.6,8.8,13.2,6.7,14.1 M2.4,11.9L1,16.7c1.2-1,2.7-1.9,4.3-2.7C4.1,13.4,3.2,12.7,2.4,11.9 M14.7,12
		c1.7,1.3,3.2,2.8,4.6,4.3l-1.4-4.7L14.7,12 M7.4,8.1c-0.5,1.8-0.9,3.6-1.1,5.4c2-0.8,4.3-1.5,6.8-1.9C11.5,10.4,9.7,9.4,7.4,8.1
		 M2.7,11.3c0.8,0.8,1.8,1.5,2.9,2.2c0.2-1.7,0.5-3.4,1-5L2.7,11.3z M13.6,8.4c0.2,1,0.4,2,0.6,3c1-0.2,2-0.3,3-0.3L13.6,8.4z
		 M8.5,8c1.9,1.1,3.6,2.1,5,3.1C13.3,10,13.1,9,12.8,8H8.5z"/>
	<path class="st0" d="M52.8,12.5l-3.6,10h2l0.6-1.8h3.6l0.6,1.8h2l-3.7-10H52.8z M52.3,19.1l1.2-3.6l1.2,3.6H52.3z M66.8,15.6
		c0-1.7-1.2-3-3.2-3h-3.9v10h2v-4H63l2,4h2.3L65,18.2C65.9,17.8,66.8,17,66.8,15.6z M63.4,16.9h-1.9v-2.7h1.9c0.8,0,1.4,0.6,1.4,1.3
		C64.8,16.3,64.2,16.9,63.4,16.9z M76.1,15.6c0-1.7-1.2-3-3.2-3H69v10h2v-4h1.4l2,4h2.3l-2.3-4.3C75.3,17.8,76.1,17,76.1,15.6
		L76.1,15.6z M72.7,16.9h-1.9v-2.7h1.9c0.8,0,1.4,0.6,1.4,1.3C74.2,16.3,73.7,16.9,72.7,16.9z M78.4,12.5h2v10h-2V12.5z M88.7,17.4
		c0.5,0.5,0.8,1.2,0.8,2.1c0,1.9-1.6,3-3.7,3c-1.5,0-2.7-0.3-3.7-1.3l1.2-1.2c0.6,0.6,1.5,0.8,2.4,0.8c1.1,0,1.8-0.5,1.8-1.2
		c0-0.3-0.1-0.6-0.3-0.8c-0.2-0.2-0.4-0.3-0.9-0.3l-1.2-0.2c-0.8-0.1-1.5-0.4-1.9-0.8c-0.5-0.5-0.7-1.1-0.7-2c0-1.8,1.3-3,3.5-3
		c1.4,0,2.4,0.3,3.2,1.2l-1.2,1.2c-0.6-0.6-1.4-0.7-2-0.7c-1,0-1.5,0.6-1.5,1.2c0,0.2,0.1,0.5,0.3,0.7c0.2,0.2,0.5,0.3,0.9,0.4
		l1.2,0.2C87.7,16.8,88.2,17,88.7,17.4L88.7,17.4z M38.1,19.6c0,2-1.5,3-3.2,3c-1.4,0-2.8-0.7-3.1-2.2l1.8-0.7
		c0,0.9,0.6,1.3,1.4,1.3c0.8,0,1.4-0.5,1.4-1.4c0-0.8-0.5-1.4-1.4-1.4h-0.1v-1.6h0.1c0.9,0,1.2-0.6,1.2-1.2c0-0.8-0.6-1.3-1.2-1.3
		s-1.2,0.5-1.2,1.2l-1.8-0.7c0.3-1.4,1.5-2.1,2.9-2.1c1.8,0,3,1.2,3,2.9c0,1.1-0.5,1.7-1.1,2C37.5,17.7,38.1,18.4,38.1,19.6
		L38.1,19.6z M45.5,12.5h2v10h-2v-4.2h-3.4v4.2h-2v-10h2v4.1h3.4V12.5z M27.4,20.8h3.1v1.8h-5.1V12.5h2V20.8z M91,12.8h1.6v0.3H92v2
		h-0.3v-2H91L91,12.8L91,12.8z M95,12.8v2.3h-0.3v-1.5l-0.5,1.1h-0.3l-0.5-1.1v1.5H93v-2.3h0.3l0.7,1.4l0.6-1.4H95z"/>
</g>
</svg>
