<?xml version="1.0" encoding="utf-8"?>
<!-- Generator: Adobe Illustrator 26.0.1, SVG Export Plug-In . SVG Version: 6.00 Build 0)  -->
<svg version="1.1" id="Layer_1" xmlns="http://www.w3.org/2000/svg" xmlns:xlink="http://www.w3.org/1999/xlink" x="0px" y="0px"
	 viewBox="0 0 95 35" style="enable-background:new 0 0 95 35;" xml:space="preserve">
<style type="text/css">
	.st0{clip-path:url(#SVGID_00000005258971788393739060000003168519147346772398_);fill:#343741;}
</style>
<g transform="translate(-.003)">
	<g>
		<defs>
			<rect id="SVGID_1_" x="15.4" width="64.2" height="35"/>
		</defs>
		<use xlink:href="#SVGID_1_"  style="overflow:visible;fill:#343741;"/>
		<clipPath id="SVGID_00000036210855742212734120000018037232711916496273_">
			<use xlink:href="#SVGID_1_"  style="overflow:visible;"/>
		</clipPath>
		<path style="clip-path:url(#SVGID_00000036210855742212734120000018037232711916496273_);fill:#343741;" d="M59.7,20.4
			c0.4-0.3,0.8-0.6,1.1-0.9c2.9-2.3,5.1-4.8,5.5-6.2c0,0,0.1-0.2,0.1-0.3c0-0.1-0.1-0.2-0.2-0.2C64.9,12.8,60.7,17,59.7,20.4
			L59.7,20.4L59.7,20.4z M49,19.9c4-3,8.3-7.5,8.7-9.3c0-0.1,0-0.1,0-0.2c0-0.1-0.1-0.2-0.2-0.2C56.3,10.3,50.4,15.7,49,19.9
			 M24.3,22.6c-1.1-0.7-2.7-1.4-4.2-1.4c-1.4,0-2.3,0.6-2.3,1.3c0,0.8,1.1,1.2,2.3,1.2C21.7,23.7,23,23.3,24.3,22.6 M36.7,13.1
			c2.9-0.9,5.6-2.9,7.7-4.9c1.9-1.9,3.4-4.1,3.4-5.2c0-0.3-0.2-0.4-0.4-0.4c-0.9,0-2.5,1.2-4.8,3.4C40.8,7.7,38.8,10.1,36.7,13.1
			 M79.6,20.1c-2.5,2.5-10.2,9.2-12.2,14.9l-2.5-0.7c0.8-2.4,3.3-6,6.1-8.9c-0.6,0.2-1.2,0.3-1.7,0.3c-0.8,0-1.3-0.2-1.7-0.7
			c-0.3-0.3-0.4-0.7-0.4-1.2c0-0.1,0-0.2,0-0.3c-2.4,1.5-4.4,2.2-6.3,2.2c-1.5,0-2.8-0.7-3.3-1.8c-2.4,1.2-4.7,1.8-6.7,1.8
			c-1.8,0-3.3-0.7-3.9-2c-2.4,1.4-4.5,2-6.2,2c-1,0-1.7-0.3-2.2-0.8c-0.4-0.4-0.5-0.9-0.6-1.4c-1.6,1-3.9,2.2-6.2,2.2
			c-2.4,0-4-0.8-5.3-1.6c-2,1.1-4.2,1.6-6.5,1.6c-1.8,0-4.6-0.7-4.6-3.2c0-2,2.1-3.4,4.9-3.4c2.4,0,4.7,1,6.2,2.1
			c1.4-1.1,2.8-2.6,4.5-4.8c-0.4,0-0.7,0-1.1,0c-3.3,0-6-1-7.5-2.7c-0.8-0.9-1.2-2-1.2-3.1c0-4.6,5.8-8.1,10.8-8.6
			c0.3,0.8,0.6,1.3,0.9,2c-5,0.6-9.1,3.5-9.1,6.4c0,1.9,2.1,3.8,6.6,3.8c0.8,0,1.6-0.1,2.3-0.2c4-5.5,10.1-14,15.3-14
			c1.6,0,2.4,0.9,2.4,2.2c0,2.6-2.2,5.4-3.7,6.9c-2.3,2.3-6.4,5.7-12.2,6.9c-2.2,3.1-4.1,5.2-5.9,6.7c1.1,0.6,2.2,1,3.4,1
			c3.1,0,6.1-2.8,8.5-5.3l0.1-0.1l1.8,1.4l-0.1,0.1c-1,1.2-2,2.5-2,3.2c0,0.5,0.5,0.6,0.8,0.6c1.2,0,3-0.8,5.2-2.1v0
			C46.7,16.2,54,8,58.5,8c1.2,0,2,0.6,2,1.7c0,2.7-4.6,8.4-11.3,12.8v0c0.3,0.7,1.1,1.1,2.5,1.1c1.1,0,3.1-0.5,5.6-1.8
			c0.3-2.8,1.9-5.7,3.8-7.9c2-2.1,4.2-3.5,6.2-3.5c1.2,0,1.9,0.7,1.9,1.7c0,2.3-2.7,6.3-9.2,10.5c0.3,0.6,0.9,0.9,1.7,0.9
			c1.9,0,5.4-2.1,8-4.6l1.9,1.5c-0.8,1-1.6,2.1-1.6,2.7c0,0.2,0.1,0.3,0.5,0.3c2,0,5.1-2.6,7.4-4.9L79.6,20.1 M44,14.7
			c0.9,0,1.6,0.7,1.6,1.6c0,0.9-0.7,1.6-1.6,1.6c-0.9,0-1.6-0.7-1.6-1.6C42.4,15.4,43.1,14.7,44,14.7"/>
	</g>
</g>
</svg>
