<?xml version="1.0" encoding="utf-8"?>
<!-- Generator: Adobe Illustrator 26.0.1, SVG Export Plug-In . SVG Version: 6.00 Build 0)  -->
<svg version="1.1" id="Layer_1" xmlns="http://www.w3.org/2000/svg" xmlns:xlink="http://www.w3.org/1999/xlink" x="0px" y="0px"
	 viewBox="0 0 95 35" style="enable-background:new 0 0 95 35;" xml:space="preserve">
<style type="text/css">
	.st0{fill:#343741;}
</style>
<g id="g3" transform="matrix(0.9141682,0,0,0.9141682,12.432996,1.9892794)">
	<path id="path5" class="st0" d="M90.3,15h-7.6l1.9-7l-6.5,7H47.8c0,0-0.1,0-0.1,0.1c0,0,0,0.1,0.1,0.1l29.7,0.5l-3.7,4
		c0,0-0.1,0.1,0,0.1c0,0,0.1,0,0.1,0l4.2-4.1l3.8,0.1l-0.7,3.2L69,25.5c0,0-0.1,0-0.1,0.1c0,0,0.1,0,0.1,0l12-6l-1.4,6.1
		c0,0,0,0.1,0,0.1c0,0,0.1,0,0.1-0.1l1.7-6.4L90.3,15 M78.8,15l4.2-4l-0.9,4H78.8z M82.5,15.7l4.5,0.1l-5.3,2.9L82.5,15.7z"/>
	<polyline id="polyline7" class="st0" points="-12.9,17.3 -11.6,17.3 -12.1,19.7 -10.9,19.7 -11.1,20.6 -13.6,20.6 -12.9,17.3 	"/>
	<path id="path9" class="st0" d="M-7,19c0.2-0.8,0.3-0.9,0.5-0.9c0.2,0,0.3,0.1,0.2,0.9c-0.2,0.8-0.3,0.9-0.5,0.9
		C-7,19.9-7.1,19.7-7,19 M-8.3,19c-0.2,1,0.2,1.8,1.4,1.8c1.2,0,1.9-0.7,2.1-1.8c0.2-1-0.2-1.8-1.4-1.8C-7.4,17.2-8.1,17.9-8.3,19z"
		/>
	<path id="path11" class="st0" d="M0.8,19.4c-0.2,0.9-1,1.3-1.8,1.3c-1.2,0-1.6-0.7-1.3-1.8c0.2-1,1-1.7,2.1-1.7
		c0.8,0,1.5,0.3,1.3,1.3h-1.2c0.1-0.4-0.1-0.5-0.2-0.5c-0.3,0-0.4,0.4-0.6,0.9c-0.1,0.5-0.2,0.9,0.2,0.9c0.2,0,0.3-0.1,0.4-0.5H0.8"
		/>
	<polyline id="polyline13" class="st0" points="4.1,17.3 5.4,17.3 5.1,18.7 5.1,18.7 6.1,17.3 7.5,17.3 6.3,18.9 6.9,20.6 5.5,20.6 
		5.1,19.1 5,19.1 4.7,20.6 3.4,20.6 4.1,17.3 	"/>
	<polyline id="polyline15" class="st0" points="11.8,19.4 11.2,19.4 10.9,20.6 9.6,20.6 10.3,17.3 11.6,17.3 11.4,18.4 12,18.4 
		12.2,17.3 13.5,17.3 12.8,20.6 11.5,20.6 11.8,19.4 	"/>
	<polyline id="polyline17" class="st0" points="16.6,17.3 19.1,17.3 19,18.2 17.7,18.2 17.6,18.5 18.8,18.5 18.6,19.4 17.4,19.4 
		17.4,19.8 18.7,19.8 18.5,20.6 15.9,20.6 16.6,17.3 	"/>
	<polyline id="polyline19" class="st0" points="22.3,17.3 24.8,17.3 24.7,18.2 23.4,18.2 23.3,18.5 24.5,18.5 24.3,19.4 23.1,19.4 
		23,19.8 24.4,19.8 24.2,20.6 21.6,20.6 22.3,17.3 	"/>
	<path id="path21" class="st0" d="M29.2,18.1h0.1c0.2,0,0.3,0.1,0.4,0.2c0.1,0.1,0,0.4,0,0.7c-0.1,0.3-0.1,0.6-0.3,0.7
		c-0.1,0.1-0.3,0.2-0.5,0.2h-0.1L29.2,18.1 M27.3,20.6H29c1,0,1.8-0.6,2-1.6c0.2-1-0.1-1.7-1.4-1.7H28L27.3,20.6z"/>
	<polyline id="polyline23" class="st0" points="39.8,18.3 39.8,18.3 38.8,20.6 37.6,20.6 37.6,18.3 37.6,18.3 37.1,20.6 36,20.6 
		36.7,17.3 38.5,17.3 38.5,19.3 38.5,19.3 39.3,17.3 41.1,17.3 40.4,20.6 39.3,20.6 39.8,18.3 	"/>
	<path id="path25" class="st0" d="M45,19.3l0.6-1.3h0v1.3H45 M43.1,20.6h1.3l0.2-0.5h1l0,0.5h1.4l-0.4-3.3h-1.7L43.1,20.6z"/>
	<path id="path27" class="st0" d="M51.6,18.7l0.1-0.6h0.1c0.3,0,0.4,0.1,0.4,0.3c-0.1,0.2-0.3,0.3-0.5,0.3H51.6 M49.9,20.6h1.3
		l0.2-1.2h0.2c0.2,0,0.3,0.1,0.3,0.2c0,0.3-0.1,0.7,0,1h1.3c0-0.5,0.1-1,0-1.3c0-0.3-0.2-0.4-0.5-0.4v0c0.5-0.1,0.7-0.4,0.8-0.8
		c0.1-0.6-0.2-0.8-1-0.8h-2L49.9,20.6z"/>
	<polyline id="polyline29" class="st0" points="57.3,18.2 56.4,18.2 56.6,17.3 59.6,17.3 59.4,18.2 58.6,18.2 58.1,20.6 56.8,20.6 
		57.3,18.2 	"/>
	<polyline id="polyline31" class="st0" points="62.6,17.3 64,17.3 63.3,20.6 61.9,20.6 62.6,17.3 	"/>
	<polyline id="polyline33" class="st0" points="67.2,17.3 68.8,17.3 69,19.3 69.1,19.3 69.5,17.3 70.6,17.3 69.8,20.6 68.3,20.6 
		68,18.6 68,18.6 67.5,20.6 66.5,20.6 67.2,17.3 	"/>
</g>
</svg>
