<?xml version="1.0" encoding="utf-8"?>
<!-- Generator: Adobe Illustrator 26.0.1, SVG Export Plug-In . SVG Version: 6.00 Build 0)  -->
<svg version="1.1" id="Layer_1" xmlns="http://www.w3.org/2000/svg" xmlns:xlink="http://www.w3.org/1999/xlink" x="0px" y="0px"
	 viewBox="0 0 95 35" style="enable-background:new 0 0 95 35;" xml:space="preserve">
<style type="text/css">
	.st0{fill:#343741;}
</style>
<g>
	<path class="st0" d="M33.4,26c0.9,0,1.9,0,2.7,0v-6.5h-2.7C33.4,19.5,33.4,23.9,33.4,26z"/>
	<path class="st0" d="M75.7,16.9c-0.4,0-0.8,0.3-0.8,0.8c0,0.5,0.3,0.8,0.8,0.8c0.5,0,0.8-0.4,0.8-0.8
		C76.5,17.2,76.1,16.9,75.7,16.9z M76.1,18.2h-0.2l-0.3-0.5h-0.2v0.5h-0.2v-1.1h0.4c0.3,0,0.4,0.1,0.4,0.3c0,0.2-0.1,0.3-0.3,0.3
		L76.1,18.2z"/>
	<path class="st0" d="M75.7,17.2h-0.2v0.4h0.2c0.2,0,0.3,0,0.3-0.2C75.9,17.3,75.8,17.2,75.7,17.2z"/>
	<path class="st0" d="M78.8,12.1V8.6H66.9L47.5,0L28.1,8.6H16.2v3.5h-6.1V35h74.8V12.1H78.8z M29,28.8h-8V14.1h3.1
		c0,0.2,0,11.7,0,11.8H29V28.8z M39.3,27.4c-0.1,0.5-0.5,1.1-1,1.3l-0.9,0.1h-5.5c-0.6-0.1-1-0.2-1.4-0.7c-0.2-0.3-0.2-0.7-0.2-1
		v-9.1c0.1-0.5,0.4-1,0.9-1.2l0.4-0.1h6.2c0.6,0.1,1.2,0.6,1.4,1.2l0.1,0.7V27.4z M53.9,26.9c0.1,0.7-0.3,1.4-0.9,1.7l-0.6,0.2h-3.9
		c-0.4-0.1-0.8-0.5-1-1c-0.3,0.5-0.5,1-1,1c-0.7,0-2.5,0-3.7,0c-0.3-0.1-0.4-0.1-0.6-0.2c-0.3-0.2-0.9-0.4-0.9-1.7V16.7h3.2L44.2,26
		H46v-9.3c1,0,2,0,3,0V26h1.7l-0.1-9.3h3.3V26.9z M63.1,26v2.8h-7.5V16.7h7.5v2.8h-4.3v1.9h4.3l0.1,2.7h-4.4c0,0.6,0,1.9,0,1.9H63.1
		z M63.9,14.1h2.7v3.5h-2.7V14.1z M73.1,28.6c-1.9,1.6-6.9-0.1-6.9-0.1v-2.8c0,0,3.3,1.3,4.1,1.1c0.5-0.1,0.9-0.4,1-0.7
		c0.1-0.4,0.1-0.7-0.2-1c-1.6-1.2-3.7-1.4-4.9-3.4c-0.5-1.1-0.5-2.6,0.2-3.6c1-1.4,2.5-1.9,4.1-1.7c1.7,0.3,3.4,1.4,3.4,1.4v2.5
		c-0.5-0.2-1.2-0.5-1.7-0.7c-0.9-0.4-2.4-0.8-3.1-0.1c-0.2,0.2-0.3,0.4-0.3,0.7c0.2,0.8,1.1,1,1.6,1.4c1.5,0.6,3.5,1.6,3.7,3.5
		C74.6,26.4,74.1,27.7,73.1,28.6z M75.7,18.7c-0.5,0-0.9-0.4-0.9-1c0-0.5,0.4-1,0.9-1s1,0.4,1,1C76.6,18.2,76.2,18.7,75.7,18.7z"/>
</g>
<path class="st0" d="M84.2,34.3H10.8V12.8h6.1V9.3h11.3l19.3-8.5l0.1,0l19.2,8.5h11.3v3.5h6.1V34.3z M11.2,33.9h72.6V13.2h-6.1V9.7
	l-11.1,0L47.5,1.2L28.4,9.7h-11v3.5h-6.1V33.9z"/>
</svg>
