<?xml version="1.0" encoding="utf-8"?>
<!-- Generator: Adobe Illustrator 26.0.1, SVG Export Plug-In . SVG Version: 6.00 Build 0)  -->
<svg version="1.1" id="Layer_1" xmlns="http://www.w3.org/2000/svg" xmlns:xlink="http://www.w3.org/1999/xlink" x="0px" y="0px"
	 viewBox="0 0 95 35" style="enable-background:new 0 0 95 35;" xml:space="preserve">
<style type="text/css">
	.st0{fill:#CCCCCC;}
</style>
<g id="layer1" transform="translate(-183.25054,-192.04018)">
	<path id="path4566" class="st0" d="M195.1,209l20.5,16.4L195.1,212l16.3,13.4l-16.3-10.3l12,10.3l-12-7.3l7.7,7.3h-19.5l18.3-31.7
		l18.3,31.7L195.1,209L195.1,209z"/>
	<path id="path4554" class="st0" d="M234.9,215.7h-13.4v-1l0.2,0c0.7,0,1.4-0.2,1.8-1c0.3-0.7,0.3-2.2,0.3-3v-12
		c0-2.2,0.2-3.9-1.9-4.1l-0.3,0v-1h7.3v1l-0.3,0c-0.7,0.1-1.5,0.1-1.9,1c-0.3,0.8-0.3,2.2-0.3,3.1v12.7c0,0.6,0,1.7,0.3,2.3
		c0.3,0.7,1.4,0.9,2,0.9c3.4,0,5.9-2.7,7.7-6.1l0.7,0.4L234.9,215.7L234.9,215.7z"/>
	<path id="path4558" class="st0" d="M245.6,207.6c-2,0.2-6.2,0.9-6.2,4.1c0,1.7,1.1,2.6,2.4,2.6c1.4,0,2.8-1,3.8-2.2V207.6z
		 M251,214.9c-0.6,0.8-1.8,1.1-2.6,1.1c-1.3,0-2.4-0.8-2.8-2.3c-1.5,1.5-2.9,2.3-4.9,2.3c-1.8,0-4-1.2-4-3.8c0-2.2,1.1-3.3,2.6-4.1
		c1.4-0.8,2.9-1.1,4.3-1.3l1.9-0.3v-2.3c-0.1-1-0.2-1.9-0.9-2.5c-0.7-0.6-1.6-0.7-2.3-0.7c-0.8,0-2.5,0.5-2.5,1.7v0.4
		c0,1.1-0.3,2-1.3,2c-0.6,0-1.2-0.6-1.2-1.4c0-1.4,1.2-2.6,2.1-3.1c1.1-0.6,2.5-0.9,3.6-0.9c1.1,0,2.5,0.4,3.5,1.1
		c1.4,0.9,1.5,2.2,1.5,4v6.4c0,1.4,0.2,3.4,1.4,3.4c0.4,0,0.7-0.2,1.1-0.5L251,214.9L251,214.9z"/>
	<path id="path4562" class="st0" d="M255.7,211.6c0,1.8,0.2,3,1.8,3.2h0.3v1h-6.6v-1c1.8-0.2,2-1.3,2-3.2v-6.8c0-1.8-0.3-3-1.9-3.2
		h-0.4v-1l4-0.7h0.8v2.2c1.1-1.5,2.9-2.6,4.9-2.6c1.7,0,2.8,0.6,3.6,2.6c1.3-1.4,3.1-2.5,4.7-2.6c1.1,0,2.3,0.5,3,1.6
		c0.6,0.9,0.6,2.1,0.6,3.2v7.2c0,1.8,0.2,3,2,3.2v1h-6.6v-1h0.2c1.7-0.2,1.9-1.2,1.9-3.2v-6.5c0-0.7,0-1.5-0.2-2.2
		c-0.3-1-1-1.6-1.8-1.6c-1.4,0-2.7,1-3.9,2.2v8.1c0,1.9,0.3,3,1.9,3.2h0.2v1h-6.7v-1h0.2c1.7-0.2,1.9-1.2,1.9-3.2V205
		c0-1.8-0.1-3.7-1.9-3.7c-1.5,0-3,1-4,2.2V211.6z"/>
	<path id="path4570" class="st0" d="M274,201.2c0,0.6,0.2,1.1,0.6,1.5c0.4,0.4,0.9,0.6,1.5,0.6c0.6,0,1.1-0.2,1.5-0.6
		c0.4-0.4,0.6-1,0.6-1.5c0-0.6-0.3-1.3-0.8-1.7c-0.4-0.3-0.9-0.5-1.3-0.5c-0.6,0-1.3,0.3-1.7,0.8C274.2,200.3,274,200.7,274,201.2
		 M276.1,199.3c1,0,1.9,0.9,1.9,1.9c0,1-0.8,1.9-1.9,1.9c-1.1,0-1.9-0.8-1.9-1.9C274.2,200.2,275.1,199.3,276.1,199.3 M275.2,200
		v2.5h0.5v-0.9h0.4c0.5,0,0.7,0.3,0.7,0.9h0.5v-0.1c0-0.5-0.2-0.8-0.6-1c0.4-0.1,0.6-0.3,0.6-0.7c0-0.5-0.4-0.7-1.1-0.7L275.2,200
		L275.2,200z M275.6,200.4h0.5c0.4,0,0.7,0.1,0.7,0.3c0,0.3-0.2,0.4-0.7,0.4h-0.4V200.4z"/>
	<path id="path4526" class="st0" d="M233.9,220.7l-0.3,0.1c-0.7-1-1.3-1.4-2.4-1.4c-0.2,0-0.6,0-0.8,0.2c-0.2,0.2-0.2,0.5-0.2,0.7
		v1.5h0.5c0.8,0,1-0.2,1.1-1.2h0.3v2.8h-0.3c0-0.3-0.1-0.6-0.2-0.8c-0.2-0.4-0.5-0.4-0.9-0.4h-0.5v1.9c0,0.2,0,0.5,0.1,0.7
		c0.2,0.3,0.6,0.3,0.8,0.3c1.2,0,2-0.6,2.7-1.7l0.3,0.1l-0.7,2h-4.7v-0.3l0.1,0c0.2,0,0.5,0,0.6-0.3c0.1-0.2,0.1-0.6,0.1-0.9v-3.5
		c0-0.6,0.1-1.1-0.6-1.2l-0.1,0V219h4.6L233.9,220.7L233.9,220.7z"/>
	<path id="path4522" class="st0" d="M224.6,222c0.4,0,0.7,0,1-0.3c0.3-0.2,0.5-0.7,0.5-1.1c0-1.1-0.8-1.3-1.6-1.3
		c-0.2,0-0.7,0-1,0.2c-0.2,0.1-0.2,0.3-0.2,0.5v1.9L224.6,222L224.6,222z M226.7,224.4c0.3,0.4,0.5,0.6,0.9,0.7v0.3h-1.4l-1.8-3
		h-1.1v1.6c0,0.7,0,1.1,0.6,1.2h0.2v0.3h-2.4v-0.3l0.1,0c0.2,0,0.5,0,0.6-0.3c0.1-0.2,0.1-0.6,0.1-0.9v-3.5c0-0.7,0.1-1.1-0.6-1.2
		l-0.2,0V219h3.2c0.9,0,1.9,0.3,1.9,1.7c0,1-0.7,1.6-1.5,1.7L226.7,224.4L226.7,224.4z"/>
	<path id="path4530" class="st0" d="M240.1,220.7l-0.3,0.1c-0.5-0.9-1.1-1.5-2-1.5c-0.5,0-1.2,0.3-1.2,1c0,0.8,0.7,0.9,1.2,1.1
		l0.8,0.2c0.9,0.2,1.8,0.5,1.8,1.8c0,1.4-1.1,2.1-2.2,2.1c-0.6,0-1.3-0.2-1.7-0.6l-0.2,0.5h-0.3l-0.5-2.2l0.3-0.1c0.4,1,1.3,2,2.3,2
		c0.7,0,1.5-0.5,1.5-1.4c0-0.8-0.6-1-1.2-1.1l-0.9-0.3c-0.4-0.1-0.9-0.3-1.2-0.5c-0.4-0.3-0.6-0.7-0.6-1.2c0-0.5,0.2-1,0.6-1.3
		c0.4-0.3,0.8-0.4,1.3-0.4c0.5,0,1.1,0.1,1.5,0.5l0.1-0.3h0.3L240.1,220.7L240.1,220.7z"/>
	<path id="path4534" class="st0" d="M247,220.7l-0.3,0.1c-0.7-1-1.3-1.4-2.4-1.4c-0.2,0-0.6,0-0.8,0.2c-0.2,0.2-0.2,0.5-0.2,0.7v1.5
		h0.5c0.8,0,1-0.2,1.1-1.2h0.3v2.8H245c0-0.3-0.1-0.6-0.2-0.8c-0.2-0.4-0.5-0.4-0.9-0.4h-0.5v1.9c0,0.2,0,0.5,0.1,0.7
		c0.2,0.3,0.6,0.3,0.8,0.3c1.2,0,2-0.6,2.7-1.7l0.3,0.1l-0.7,2h-4.7v-0.3l0.1,0c0.2,0,0.5,0,0.6-0.3c0.1-0.2,0.1-0.6,0.1-0.9v-3.5
		c0-0.6,0.1-1.1-0.6-1.2l-0.1,0V219h4.6L247,220.7L247,220.7z"/>
	<path id="path4542" class="st0" d="M257.9,222c0.4,0,0.7,0,1-0.3c0.3-0.2,0.5-0.7,0.5-1.1c0-1.1-0.8-1.3-1.6-1.3
		c-0.2,0-0.7,0-1,0.2c-0.2,0.1-0.2,0.3-0.2,0.5v1.9L257.9,222L257.9,222z M260.1,224.4c0.3,0.4,0.5,0.6,0.9,0.7v0.3h-1.4l-1.8-3
		h-1.1v1.6c0,0.7,0,1.1,0.6,1.2h0.2v0.3h-2.4v-0.3l0.1,0c0.2,0,0.5,0,0.6-0.3c0.1-0.2,0.1-0.6,0.1-0.9v-3.5c0-0.7,0.1-1.1-0.6-1.2
		l-0.2,0V219h3.2c0.9,0,1.9,0.3,1.9,1.7c0,1-0.7,1.6-1.5,1.7L260.1,224.4L260.1,224.4z"/>
	<path id="path4538" class="st0" d="M251.8,222.6l-0.9-2.8l-0.9,2.8H251.8z M253.1,223.9c0.2,0.6,0.3,1.2,1,1.2v0.3h-2.3v-0.3
		c0.3,0,0.6-0.1,0.6-0.5c0-0.2-0.1-0.4-0.1-0.5l-0.4-1.1h-2.1l-0.2,0.7c-0.1,0.2-0.2,0.6-0.2,0.8c0,0.5,0.3,0.6,0.7,0.6v0.3H248
		v-0.3l0.1,0c0.4-0.1,0.5-0.2,0.7-0.6c0.2-0.4,0.4-1,0.5-1.4l1.4-4.1h0.8L253.1,223.9L253.1,223.9z"/>
	<path id="path4550" class="st0" d="M269.1,220.4c0-0.6,0.1-1.1-0.6-1.2l-0.1,0V219h2.3v0.3h-0.1c-0.2,0-0.5,0-0.6,0.3
		c-0.1,0.2-0.1,0.6-0.1,0.9v1.3h2.9v-1.3c0-0.6,0.1-1.1-0.6-1.2l-0.1,0V219h2.3v0.3h-0.1c-0.2,0-0.5,0.1-0.6,0.3
		c-0.1,0.2-0.1,0.6-0.1,0.9v3.5c0,0.6-0.1,1.1,0.6,1.2l0.1,0v0.3h-2.3v-0.3h0.1c0.2,0,0.4-0.1,0.6-0.3c0.1-0.2,0.1-0.6,0.1-0.9v-1.8
		h-2.9v1.8c0,0.6,0,1.1,0.6,1.2l0.1,0v0.3h-2.3v-0.3h0.1c0.2,0,0.4-0.1,0.6-0.3c0.1-0.2,0.1-0.6,0.1-0.9L269.1,220.4L269.1,220.4z"
		/>
	<path id="path4546" class="st0" d="M267.1,221.3h-0.3l0-0.1c-0.2-0.4-0.4-1-0.7-1.3c-0.4-0.4-0.8-0.7-1.3-0.7
		c-0.6,0-1.1,0.3-1.4,0.9c-0.3,0.6-0.4,1.3-0.4,2c0,0.7,0.1,1.4,0.5,2c0.4,0.6,0.9,0.9,1.6,0.9c0.8,0,1.6-0.6,2-1.4l0.3,0.2
		c-0.5,1.1-1.4,1.7-2.5,1.7c-1.7,0-2.9-1.4-2.9-3.4c0-1.8,1.1-3.4,2.7-3.4c0.6,0,1.2,0.2,1.6,0.7l0.2-0.4h0.3L267.1,221.3
		L267.1,221.3z"/>
</g>
</svg>
