<?xml version="1.0" encoding="utf-8"?>
<!-- Generator: Adobe Illustrator 26.0.1, SVG Export Plug-In . SVG Version: 6.00 Build 0)  -->
<svg version="1.1" id="Layer_1" xmlns="http://www.w3.org/2000/svg" xmlns:xlink="http://www.w3.org/1999/xlink" x="0px" y="0px"
	 viewBox="0 0 95 35" style="enable-background:new 0 0 95 35;" xml:space="preserve">
<style type="text/css">
	.st0{fill:#FFFFFF;}
</style>
<g>
	<path class="st0" d="M15.9,10h-1.6c-1.5,0-2.7,1.2-2.7,2.7V17c0,1.5,1.2,2.7,2.7,2.7h1.6c0.7,0,1.3-0.3,1.8-0.7
		c0.6-0.5,0.9-1.2,0.9-2v-4.3C18.6,11.2,17.4,10,15.9,10 M17,17c0,0.6-0.5,1.1-1.1,1.1h-1.6c-0.6,0-1.1-0.5-1.1-1.1v-4.3
		c0-0.6,0.5-1.1,1.1-1.1h1.6c0.6,0,1.1,0.5,1.1,1.1V17z"/>
	<path class="st0" d="M0.8,5.3C0.2,5.3,0,5.5,0,5.9V19c0,0.4,0.2,0.6,0.8,0.6c0.6,0,0.8-0.2,0.8-0.6V5.9C1.6,5.5,1.4,5.3,0.8,5.3"/>
	<path class="st0" d="M35.3,5.3L35.3,5.3c-0.6,0-0.8,0.2-0.8,0.6V10c-0.6,0-2.7,0-2.7,0c-1.5,0-2.7,1.2-2.7,2.7V17
		c0,1.5,1.2,2.7,2.7,2.7c0,0,3.5,0,3.6,0c0.5,0,0.7-0.2,0.7-0.6V5.9C36.1,5.5,35.9,5.3,35.3,5.3 M34.5,18.1h-2.7
		c-0.6,0-1.1-0.5-1.1-1.1v-4.3c0-0.6,0.5-1.1,1.1-1.1h2.7V18.1z"/>
	<path class="st0" d="M47.6,5.3c-0.6,0-0.8,0.2-0.8,0.6V19c0,0.4,0.2,0.6,0.8,0.6c0.6,0,0.8-0.2,0.8-0.6V5.9
		C48.4,5.5,48.1,5.3,47.6,5.3"/>
	<path class="st0" d="M94.2,5.3c-0.6,0-0.8,0.2-0.8,0.6V19c0,0.4,0.2,0.6,0.8,0.6c0.6,0,0.8-0.2,0.8-0.6V5.9
		C95,5.5,94.8,5.3,94.2,5.3"/>
	<path class="st0" d="M90.3,5.3c-0.6,0-0.8,0.2-0.8,0.6V19c0,0.4,0.2,0.6,0.8,0.6s0.8-0.2,0.8-0.6V5.9C91.1,5.5,90.9,5.3,90.3,5.3"
		/>
	<path class="st0" d="M51.5,5.3c-0.6,0-0.8,0.2-0.8,0.6V19c0,0.4,0.2,0.6,0.8,0.6c0.6,0,0.8-0.2,0.8-0.6V5.9
		C52.3,5.5,52,5.3,51.5,5.3"/>
	<path class="st0" d="M58.8,10c0,0-2.1,0-2.7,0V5.9c0-0.4-0.2-0.6-0.8-0.6l0,0c-0.6,0-0.8,0.2-0.8,0.6V19c0,0.4,0.2,0.6,0.7,0.6
		c0,0,3.6,0,3.6,0c1.5,0,2.7-1.2,2.7-2.7v-4.3C61.5,11.2,60.3,10,58.8,10 M59.9,17c0,0.6-0.5,1.1-1.1,1.1h-2.7v-6.4h2.7
		c0.6,0,1.1,0.5,1.1,1.1V17z"/>
	<path class="st0" d="M87.1,18.1c-0.1,0-4.2,0-4.2,0c-0.3,0-0.5-0.2-0.5-0.5v-1.9h4.5c0.5,0,0.8-0.3,0.8-0.8v-2.7
		c0-1.2-0.9-2.1-2.1-2.1h-2.7c-1.2,0-2.1,1-2.1,2.1v5.4c0,1.2,0.9,2.1,2.1,2.1h4.2c0.4,0,0.6-0.2,0.6-0.8S87.5,18.1,87.1,18.1
		 M82.3,12.2c0-0.3,0.2-0.5,0.5-0.5h2.7c0.3,0,0.5,0.2,0.5,0.5v1.9h-3.8L82.3,12.2L82.3,12.2z"/>
	<path class="st0" d="M74.1,11.6h4.2c0.4,0,0.6-0.2,0.6-0.8c0-0.6-0.2-0.8-0.6-0.8h-4.2C72.9,10,72,11,72,12.2v1.1
		c0,1,0.7,1.9,1.7,2.1l3.2,0.6c0.2,0,0.4,0.3,0.4,0.5v1.1c0,0.3-0.2,0.5-0.5,0.5c0,0-4.1,0-4.2,0c-0.4,0-0.6,0.2-0.6,0.8
		s0.2,0.8,0.6,0.8c0,0,4.2,0,4.2,0c1.2,0,2.1-0.9,2.1-2.1v-1.1c0-1-0.7-1.9-1.7-2.1L74,13.8c-0.2,0-0.4-0.3-0.4-0.5v-1.1
		C73.5,11.9,73.8,11.6,74.1,11.6"/>
	<path class="st0" d="M27.3,12.2c0-1.2-0.9-2.1-2.1-2.1h-2.7c-1.2,0-2.1,0.9-2.1,2.1c0,0,0,6.8,0,6.9c0,0.4,0.2,0.6,0.8,0.6
		S22,19.5,22,19v-6.9c0-0.3,0.2-0.5,0.5-0.5h2.7c0.3,0,0.5,0.2,0.5,0.5V19c0,0.4,0.2,0.6,0.8,0.6l0,0c0.6,0,0.8-0.2,0.8-0.6v-2.7"/>
	<path class="st0" d="M68,10c0,0-3.9,0-3.9,0c-0.4,0-0.6,0.2-0.6,0.8c0,0.6,0.2,0.8,0.6,0.8H68c0.3,0,0.5,0.2,0.5,0.5v1.9h-3.2
		c-1.2,0-2.1,0.9-2.1,2.1v1.3c0,1.2,0.9,2.1,2.1,2.1h4c0.4,0,0.8-0.4,0.8-0.8v-6.7C70.1,11,69.1,10,68,10 M68.5,18.1h-3.2
		c-0.3,0-0.5-0.2-0.5-0.5v-1.3c0-0.3,0.3-0.5,0.5-0.5h3.2V18.1z"/>
	<path class="st0" d="M44.3,18.1c-0.1,0-4.2,0-4.2,0c-0.3,0-0.5-0.2-0.5-0.5v-1.9h4.5c0.5,0,0.8-0.3,0.8-0.8v-2.7
		c0-1.2-0.9-2.1-2.1-2.1h-2.7c-1.2,0-2.1,1-2.1,2.1v5.4c0,1.2,0.9,2.1,2.1,2.1h4.2c0.4,0,0.6-0.2,0.6-0.8
		C44.9,18.3,44.7,18.1,44.3,18.1 M39.6,12.2c0-0.3,0.2-0.5,0.5-0.5h2.7c0.3,0,0.5,0.2,0.5,0.5v1.9h-3.8L39.6,12.2L39.6,12.2z"/>
	<path class="st0" d="M10.1,10.1c-0.6-0.1-0.9,0.2-1,0.5l-2.4,6.7l-2.4-6.7c-0.1-0.3-0.5-0.6-1-0.5c-0.7,0.2-0.6,0.7-0.5,0.9L6,19.7
		l-0.4,1.2c0,0-0.1,0.4-0.7,0.4H3.9c-0.3,0-0.6,0.1-0.6,0.8c0,0.6,0.2,0.8,0.7,0.8h0.7c0.8,0,1.8-0.2,2.2-1.4L10.7,11
		C10.7,10.8,10.8,10.3,10.1,10.1"/>
	<path class="st0" d="M1.6,29.1c0,0.4-0.2,0.6-0.8,0.6S0,29.5,0,29.1v-5.6c0-0.4,0.2-0.6,0.8-0.6s0.8,0.2,0.8,0.6 M48.3,23.5
		c0-0.4-0.2-0.6-0.8-0.6c-0.6,0-0.8,0.2-0.8,0.6v5.6c0,0.4,0.2,0.6,0.8,0.6c0.6,0,0.8-0.2,0.8-0.6V23.5z M52.3,23.5
		c0-0.4-0.2-0.6-0.8-0.6c-0.6,0-0.8,0.2-0.8,0.6v5.6c0,0.4,0.2,0.6,0.8,0.6c0.6,0,0.8-0.2,0.8-0.6V23.5z M56.2,23.5
		c0-0.4-0.2-0.6-0.8-0.6c-0.6,0-0.8,0.2-0.8,0.6v5.6c0,0.4,0.2,0.6,0.8,0.6c0.6,0,0.8-0.2,0.8-0.6V23.5z M36.1,23.5
		c0-0.4-0.2-0.6-0.8-0.6c-0.6,0-0.8,0.2-0.8,0.6c0,0.3,0,5.5,0,5.6c0,0.4,0.2,0.6,0.8,0.6c0.6,0,0.8-0.2,0.8-0.6V23.5z M95,23.5
		c0-0.4-0.2-0.6-0.8-0.6s-0.8,0.2-0.8,0.6v5.6c0,0.4,0.2,0.6,0.8,0.6s0.8-0.2,0.8-0.6V23.5z M91.1,23.5c0-0.4-0.2-0.6-0.8-0.6
		s-0.8,0.2-0.8,0.6v5.6c0,0.4,0.2,0.6,0.8,0.6c0.6,0,0.8-0.2,0.8-0.6V23.5z"/>
</g>
</svg>
