<?xml version="1.0" encoding="utf-8"?>
<!-- Generator: Adobe Illustrator 26.0.1, SVG Export Plug-In . SVG Version: 6.00 Build 0)  -->
<svg version="1.1" id="Layer_1" xmlns="http://www.w3.org/2000/svg" xmlns:xlink="http://www.w3.org/1999/xlink" x="0px" y="0px"
	 viewBox="0 0 95 35" style="enable-background:new 0 0 95 35;" xml:space="preserve">
<style type="text/css">
	.st0{fill-rule:evenodd;clip-rule:evenodd;fill:#CCCCCC;}
	.st1{fill-rule:evenodd;clip-rule:evenodd;fill:#E6E7E8;}
</style>
<g>
	<polygon class="st0" points="42.8,18.1 41.8,18.1 41.8,18.4 41.8,19 42.8,19 	"/>
	<polygon class="st0" points="76.7,16.6 76.6,15.7 76.5,14.8 76.4,14 76.2,13.1 76,12.3 75.7,11.5 75.4,10.7 75,9.9 74.6,9.1 
		74.2,8.4 73.7,7.7 73.3,7 72.7,6.4 72.2,5.7 71.6,5.1 71,4.5 70.4,4 69.7,3.5 69,3 68.3,2.5 67.6,2.1 66.8,1.7 66,1.4 65.2,1.1 
		64.4,0.8 63.6,0.5 62.7,0.4 61.9,0.2 61,0.1 60.1,0 59.2,0 58.3,0 57.4,0.1 56.5,0.2 55.7,0.4 54.8,0.5 54,0.8 53.2,1.1 52.4,1.4 
		51.6,1.7 50.9,2.1 50.1,2.5 49.4,3 48.8,3.5 48.1,4 47.5,4.5 47.5,4.5 48.1,5.1 48.7,5.7 48.8,5.8 46.3,5.8 45.5,6.7 45.5,6.7 
		49.5,6.7 49.8,7 50.3,7.7 50.4,7.9 44.6,7.9 44.1,8.8 51,8.8 51.2,9.1 51.5,9.9 51.6,10 43.4,10 43,10.9 52,10.9 52.2,11.5 
		52.4,12.1 42.6,12.1 42.3,13 42.3,13 52.7,13 52.7,13.1 52.9,14 53,14.2 42.1,14.2 41.9,15 41.9,15.2 53.1,15.2 53.2,15.7 
		53.2,16.6 53.3,17.5 53.2,18.1 50.3,18.1 50.1,19 53.2,19 53.2,19.3 53.1,20.1 53,20.2 49.9,20.2 49.7,21.2 52.9,21.2 52.7,21.8 
		52.6,22.3 42.4,22.3 42.7,23.3 52.3,23.3 52.2,23.5 51.9,24.3 51.8,24.4 43.2,24.4 43.6,25.3 43.6,25.4 51.4,25.4 51.2,25.8 
		50.8,26.5 44.3,26.5 44.8,27.4 44.9,27.5 50.1,27.5 49.8,28 49.3,28.6 49.3,28.6 45.8,28.6 46.5,29.5 46.6,29.6 48.4,29.6 
		48.1,29.9 47.5,30.4 47.5,30.5 48.1,31 48.8,31.5 49.4,32 50.1,32.5 50.9,32.9 51.6,33.3 52.4,33.6 53.2,33.9 54,34.2 54.8,34.5 
		55.7,34.6 56.5,34.8 57.4,34.9 58.3,35 59.2,35 60.1,35 61,34.9 61.9,34.8 62.7,34.6 63.6,34.5 64.4,34.2 65.2,33.9 66,33.6 
		66.8,33.3 67.6,32.9 68.3,32.5 69,32 69.7,31.5 70.4,31 71,30.4 71.6,29.9 72.2,29.3 72.7,28.6 73.3,28 73.7,27.3 74.2,26.6 
		74.6,25.8 75,25.1 75.4,24.3 75.7,23.5 76,22.7 76.2,21.8 76.4,21 76.5,20.1 76.6,19.3 76.7,18.4 76.7,17.5 	"/>
	<polygon class="st0" points="46.9,29.9 46.6,29.6 46.6,29.6 46.5,29.5 46.3,29.3 45.7,28.6 45.2,28 44.9,27.5 44.9,27.5 44.8,27.4 
		44.7,27.3 44.3,26.6 43.8,25.8 43.6,25.4 43.6,25.4 43.6,25.3 43.5,25.1 43.1,24.3 42.8,23.5 42.5,22.7 42.3,21.8 42.1,21 
		41.9,20.1 41.8,19.3 41.8,19 41.6,19 41.6,18.1 41.8,18.1 41.7,17.5 41.8,16.6 41.8,15.7 41.9,15.2 41.9,15.2 41.9,15 41.9,14.8 
		42.1,14 42.3,13.1 42.3,13 42.3,13 42.3,13 42.5,12.3 42.8,11.5 43.1,10.7 43.5,9.9 43.8,9.1 44.3,8.4 44.7,7.7 45.2,7 45.5,6.7 
		45.5,6.7 45.5,6.7 45.7,6.4 46.3,5.7 46.9,5.1 47.5,4.5 47.5,4.5 46.9,4 46.2,3.5 45.6,3 44.9,2.5 44.1,2.1 43.4,1.7 42.6,1.4 
		41.8,1.1 41,0.8 40.2,0.5 39.3,0.4 38.5,0.2 37.6,0.1 36.7,0 35.8,0 34.9,0 34,0.1 33.1,0.2 32.3,0.4 31.4,0.5 30.6,0.8 29.8,1.1 
		29,1.4 28.2,1.7 27.4,2.1 26.7,2.5 26,3 25.3,3.5 24.6,4 24,4.5 23.4,5.1 22.8,5.7 22.3,6.4 21.7,7 21.3,7.7 20.8,8.4 20.4,9.1 
		20,9.9 19.6,10.7 19.3,11.5 19,12.3 18.8,13.1 18.6,14 18.5,14.8 18.4,15.7 18.3,16.6 18.3,17.5 18.3,18.4 18.4,19.3 18.5,20.1 
		18.6,21 18.8,21.8 19,22.7 19.3,23.5 19.6,24.3 20,25.1 20.4,25.8 20.8,26.6 21.3,27.3 21.7,28 22.3,28.6 22.8,29.3 23.4,29.9 
		24,30.4 24.6,31 25.3,31.5 26,32 26.7,32.5 27.4,32.9 28.2,33.3 29,33.6 29.8,33.9 30.6,34.2 31.4,34.5 32.3,34.6 33.1,34.8 
		34,34.9 34.9,35 35.8,35 36.7,35 37.6,34.9 38.5,34.8 39.3,34.6 40.2,34.5 41,34.2 41.8,33.9 42.6,33.6 43.4,33.3 44.1,32.9 
		44.9,32.5 45.6,32 46.2,31.5 46.9,31 47.5,30.5 47.5,30.4 	"/>
</g>
<g>
	<path class="st0" d="M75.1,28L75.1,28L75.1,28L75.1,28L75,27.9l-0.1,0h-0.1h-0.3v0.2v0.1v0.3h0.1v-0.3h0.1l0.2,0.3h0.1l-0.2-0.3h0
		l0,0l0,0l0,0l0,0l0,0l0,0L75.1,28L75.1,28L75.1,28z M75,28.1L75,28.1L75,28.1L75,28.1L75,28.1l-0.1,0.1l0,0l-0.1,0h-0.1v-0.1V28
		h0.2h0h0l0,0l0,0l0,0L75,28.1L75,28.1L75,28.1L75,28.1L75,28.1z"/>
	<path class="st0" d="M75.6,28.1L75.6,28.1l0-0.2l-0.1-0.1l-0.1-0.1l-0.1-0.1l-0.1-0.1l-0.2,0l-0.2,0l-0.2,0l-0.2,0l-0.1,0.1
		l-0.1,0.1l-0.1,0.1L74,27.9l0,0.2v0l0,0.1v0l0,0.2l0,0.2l0.1,0.1l0.1,0.1l0.1,0.1l0.1,0.1l0.2,0l0.2,0l0.2,0l0.2,0l0.1-0.1l0.1-0.1
		l0.1-0.1l0.1-0.1l0-0.2l0-0.2v0L75.6,28.1z M75.5,28.3l0,0.1l0,0.1l-0.1,0.1l-0.1,0.1l-0.1,0.1l-0.1,0.1l-0.1,0l-0.1,0l-0.1,0
		l-0.1,0l-0.1-0.1l-0.1-0.1l-0.1-0.1l-0.1-0.1l0-0.1l0-0.1v0l0-0.1v0l0-0.1l0.1-0.1l0.1-0.1l0.1-0.1l0.1-0.1l0.1,0l0.1,0l0.1,0
		l0.1,0l0.1,0.1l0.1,0.1l0.1,0.1l0.1,0.1l0,0.1v0L75.5,28.3L75.5,28.3z"/>
</g>
<polygon class="st1" points="39.2,16.9 39.1,16.9 39,16.9 38.9,16.9 38.9,16.9 38.8,16.9 38.7,16.9 38.6,16.9 38.6,16.8 38.5,16.8 
	38.4,16.8 38.3,16.8 38.2,16.8 38,16.8 37.9,16.8 37.7,16.8 37.6,16.8 37.5,16.9 37.3,16.9 37.2,16.9 37.2,17 37.1,17 37,17 
	36.9,17.1 36.9,17.2 36.9,17.2 36.8,17.3 36.8,17.4 36.8,17.4 36.8,17.5 36.9,17.6 36.9,17.7 37,17.7 37.1,17.8 37.2,17.9 37.4,18 
	37.6,18.1 37.7,18.1 37.9,18.2 38.1,18.3 38.3,18.3 38.5,18.4 38.7,18.6 38.8,18.7 38.9,18.9 39,19.1 39.1,19.4 39.1,19.7 
	39.1,20.1 39.1,20.4 39,20.6 38.9,20.8 38.8,21 38.6,21.2 38.5,21.3 38.3,21.5 38.1,21.6 37.9,21.7 37.7,21.7 37.5,21.8 37.3,21.9 
	37.1,21.9 36.9,21.9 36.8,21.9 36.6,21.9 36.3,21.9 36.1,21.9 35.9,21.9 35.7,21.9 35.5,21.9 35.3,21.9 35.2,21.9 35.1,21.9 
	34.9,21.9 34.8,21.8 34.7,21.8 34.6,21.8 34.5,21.8 34.4,21.7 34.3,21.7 34.2,21.7 34.5,20.3 34.5,20.4 34.6,20.4 34.7,20.4 
	34.8,20.4 34.9,20.4 35,20.5 35.1,20.5 35.3,20.5 35.4,20.5 35.6,20.6 35.7,20.6 35.9,20.6 36.1,20.6 36.3,20.6 36.4,20.6 
	36.6,20.6 36.8,20.6 36.9,20.5 37,20.5 37.1,20.4 37.2,20.3 37.2,20.2 37.2,20.1 37.3,20 37.3,19.9 37.2,19.7 37.1,19.6 37,19.5 
	36.8,19.4 36.6,19.3 36.3,19.2 36.1,19.1 35.9,19 35.7,18.9 35.5,18.7 35.3,18.6 35.1,18.3 35,18.1 35,17.8 35,17.4 35,17.1 
	35,16.9 35.1,16.7 35.2,16.5 35.3,16.4 35.4,16.2 35.5,16.1 35.6,15.9 35.8,15.8 36,15.7 36.2,15.6 36.4,15.6 36.7,15.5 37,15.5 
	37.3,15.5 37.7,15.4 37.9,15.4 38.1,15.5 38.3,15.5 38.4,15.5 38.6,15.5 38.7,15.5 38.8,15.5 38.9,15.5 39,15.5 39.1,15.5 
	39.2,15.6 39.3,15.6 39.3,15.6 39.4,15.6 39.4,15.6 39.5,15.6 39.2,16.9 39.2,16.9 "/>
<polygon class="st1" points="40.6,14.1 42.2,14.1 42,15.6 43,15.6 42.7,16.9 41.7,16.9 41.1,20.2 41.1,20.3 41.2,20.4 41.2,20.5 
	41.3,20.5 41.4,20.6 41.5,20.6 41.7,20.6 41.8,20.6 41.9,20.6 42,20.6 42.2,20.6 42.2,20.6 42.3,20.6 42.4,20.5 42.4,20.5 
	42.4,20.5 42.2,21.6 42.2,21.7 42.1,21.7 42.1,21.7 42.1,21.7 42,21.7 42,21.8 41.9,21.8 41.9,21.8 41.8,21.8 41.7,21.8 41.7,21.8 
	41.6,21.8 41.5,21.9 41.4,21.9 41.3,21.9 41.2,21.9 40.8,21.9 40.6,21.9 40.3,21.9 40.2,21.8 40,21.8 39.9,21.7 39.7,21.7 
	39.6,21.6 39.6,21.5 39.5,21.4 39.5,21.3 39.4,21.2 39.4,21.1 39.4,21 39.4,20.9 39.4,20.7 39.5,20.6 40.6,14.1 40.6,14.1 "/>
<polygon class="st1" points="44.3,19.1 44.2,19.2 44.2,19.3 44.3,19.5 44.3,19.6 44.3,19.7 44.4,19.8 44.4,19.9 44.5,20 44.6,20.1 
	44.7,20.2 44.8,20.3 44.9,20.3 45,20.4 45.1,20.5 45.2,20.5 45.3,20.5 45.5,20.5 45.6,20.6 45.8,20.6 45.9,20.6 46.1,20.6 
	46.3,20.6 46.4,20.6 46.6,20.6 46.7,20.6 46.9,20.5 47.1,20.5 47.2,20.4 47.4,20.4 47.5,20.3 47.7,20.2 47.9,20.1 47.6,21.6 
	47.6,21.6 47.5,21.7 47.4,21.7 47.3,21.7 47.2,21.8 47.1,21.8 47,21.8 46.9,21.8 46.8,21.8 46.7,21.9 46.5,21.9 46.4,21.9 
	46.3,21.9 46.1,21.9 45.9,21.9 45.7,21.9 45.4,21.9 45.1,21.9 44.8,21.8 44.5,21.7 44.3,21.7 44,21.5 43.7,21.4 43.5,21.2 43.2,21 
	43,20.8 42.9,20.5 42.7,20.2 42.6,19.9 42.6,19.5 42.5,19 42.6,18.5 42.6,18.3 42.6,18.1 42.7,17.9 42.7,17.7 42.8,17.4 42.9,17.1 
	43.1,16.9 43.2,16.6 43.4,16.4 43.7,16.2 43.9,16 44.2,15.8 44.6,15.6 44.9,15.5 45.4,15.5 45.8,15.4 46.1,15.5 46.3,15.5 
	46.6,15.5 46.8,15.6 47,15.7 47.3,15.8 47.5,15.9 47.7,16.1 47.8,16.3 48,16.5 48.1,16.8 48.2,17.1 48.2,17.5 48.2,17.9 48.2,18.3 
	48.1,18.8 48.1,19.2 43.8,19.2 44.1,18 46.6,18 46.7,17.9 46.6,17.7 46.6,17.6 46.6,17.5 46.6,17.3 46.5,17.2 46.5,17.2 46.4,17.1 
	46.3,17 46.3,16.9 46.2,16.9 46.1,16.8 46,16.8 45.9,16.8 45.8,16.8 45.7,16.8 45.6,16.8 45.5,16.8 45.4,16.8 45.3,16.8 45.2,16.9 
	45.1,16.9 45,17 44.9,17.1 44.8,17.2 44.8,17.2 44.7,17.3 44.7,17.4 44.6,17.6 44.6,17.7 44.5,17.8 44.5,17.9 44.3,19.1 44.3,19.1 
	"/>
<polygon class="st1" points="58.3,15.9 58.3,15.9 58.2,15.9 58.1,15.8 58,15.8 57.9,15.7 57.8,15.7 57.7,15.7 57.6,15.6 57.5,15.6 
	57.4,15.6 57.3,15.5 57.2,15.5 57,15.5 56.9,15.5 56.7,15.5 56.6,15.5 56.4,15.5 56.3,15.5 56.1,15.5 56,15.6 55.8,15.6 55.6,15.7 
	55.5,15.8 55.3,15.9 55.1,16 55,16.2 54.8,16.3 54.7,16.6 54.6,16.8 54.4,17.1 54.3,17.4 54.2,17.8 54.2,18 54.2,18.2 54.2,18.4 
	54.2,18.6 54.2,18.8 54.2,19 54.3,19.2 54.4,19.4 54.4,19.6 54.5,19.7 54.7,19.8 54.8,20 55,20.1 55.2,20.2 55.4,20.2 55.6,20.3 
	55.7,20.3 55.7,20.3 55.9,20.3 56,20.3 56.1,20.4 56.2,20.4 56.4,20.4 56.5,20.3 56.7,20.3 56.8,20.3 57,20.3 57.1,20.2 57.3,20.1 
	57.4,20.1 57.5,20 57.7,19.9 57.4,21.4 57.4,21.5 57.3,21.5 57.3,21.6 57.2,21.6 57.2,21.6 57.1,21.7 57,21.7 56.9,21.8 56.7,21.8 
	56.6,21.8 56.4,21.8 56.2,21.9 56,21.9 55.7,21.9 55.4,21.9 55.1,21.9 54.8,21.8 54.5,21.8 54.3,21.7 54,21.6 53.7,21.4 53.5,21.3 
	53.2,21 53,20.8 52.8,20.5 52.7,20.2 52.5,19.9 52.4,19.6 52.3,19.2 52.3,18.7 52.3,18.3 52.4,17.8 52.4,17.6 52.5,17.3 52.6,17.1 
	52.6,16.9 52.7,16.7 52.8,16.5 52.8,16.3 52.9,16.1 53,15.9 53.1,15.7 53.2,15.6 53.3,15.4 53.4,15.3 53.5,15.1 53.6,15 53.8,14.9 
	53.9,14.7 54,14.6 54.2,14.5 54.3,14.4 54.5,14.3 54.6,14.3 54.8,14.2 55,14.1 55.2,14.1 55.4,14 55.5,14 55.7,13.9 55.9,13.9 
	56.2,13.9 56.4,13.9 56.6,13.9 56.8,13.9 57,13.9 57.1,13.9 57.3,13.9 57.5,14 57.6,14 57.8,14 57.9,14.1 58.1,14.1 58.2,14.1 
	58.3,14.2 58.4,14.2 58.5,14.2 58.6,14.3 58.6,14.3 58.6,14.3 58.3,15.9 58.3,15.9 "/>
<path class="st1" d="M72.6,14.2l-0.4,2.3l0-0.1l0-0.1l-0.1-0.1L72,16.2l-0.1-0.1L71.9,16L71.8,16l-0.1-0.1l-0.1-0.1l-0.1-0.1
	l-0.1-0.1l-0.1,0l-0.1,0l-0.2,0l-0.2,0l-0.2,0l-0.2,0l-0.2,0l-0.2,0.1l-0.2,0.1l-0.2,0.1L69.2,16l-0.2,0.1l-0.2,0.2l-0.2,0.2
	l-0.2,0.2l-0.2,0.2L68,17.2l-0.1,0.3l-0.1,0.3l-0.1,0.3l-0.1,0.3l-0.1,0.3l0,0.3l0,0.3l0,0.3l0,0.3l0.1,0.3l0.1,0.3l0.1,0.3l0.1,0.2
	l0.2,0.2l0.2,0.2l0.2,0.2l0.2,0.1l0.3,0.1l0.3,0.1l0.3,0h0.1l0.1,0l0.1,0l0.1,0l0.1,0l0.1,0l0.1,0l0.1,0l0.1-0.1l0.1-0.1l0.1-0.1
	l0.1-0.1l0.1-0.1l0.1-0.1l0.1-0.1l0.1-0.1v0.1l-0.1,0.7h1.6l1.3-7.7H72.6z M71.8,18.5l0,0.2l0,0.2l0,0.2l0,0.2l0,0.2l-0.1,0.1
	l-0.1,0.1l-0.1,0.1l-0.1,0.1l-0.1,0.1l-0.1,0.1L71,20.2l-0.1,0.1l-0.1,0.1l-0.1,0.1l-0.1,0l-0.2,0l-0.2,0l-0.2,0l-0.2-0.1l-0.2-0.2
	l-0.1-0.2l-0.1-0.3l0-0.3l0-0.3l0-0.3l0-0.2l0-0.2l0-0.2l0.1-0.2l0.1-0.2l0.1-0.1l0.1-0.1l0.1-0.1l0.1-0.1l0.1-0.1l0.1-0.1l0.1-0.1
	l0.1-0.1l0.1,0l0.1,0l0.2,0l0.1,0l0.1,0l0.1,0l0.1,0.1l0.1,0.1l0.1,0.1l0.1,0.1l0.1,0.1l0,0.1l0,0.1l0,0.1l0,0.2l0,0.2V18.5z"/>
<path class="st1" d="M34.5,16.8l-0.1-0.2l-0.1-0.2l-0.1-0.2l-0.1-0.1L34,16l-0.2-0.1l-0.2-0.1l-0.2-0.1l-0.2-0.1l-0.2-0.1l-0.2,0
	l-0.2,0l-0.2,0l-0.2,0l-0.2,0H32h-0.2h-0.2l-0.2,0l-0.2,0l-0.2,0l-0.2,0l-0.2,0l-0.2,0l-0.1,0l-0.1,0l-0.1,0l-0.1,0l-0.1,0.1
	l-0.4,1.4l0.1,0l0.1,0l0.1,0l0.1,0l0.1,0l0.2,0l0.2,0l0.2,0l0.2,0l0.2,0l0.2,0l0.2,0l0.2,0h0.2l0.2,0l0.2,0l0.2,0l0.1,0l0.1,0.1
	l0.1,0.1l0.1,0.1l0.1,0.1l0.1,0.1l0,0.1l0,0.1l0,0.1l0,0.1l0,0h0l-0.1,0l-0.1,0l-0.1,0h-0.1l-0.1,0l-0.1,0h-0.1h-0.1l-0.1,0l-0.1,0
	l-0.1,0l-0.1,0l-0.1,0l-0.1,0l-0.1,0l-0.1,0l-0.1,0l-0.1,0l-0.1,0l-0.1,0l0,0l0,0h0l-0.2,0l-0.2,0.1l-0.2,0.1l-0.2,0.1l-0.2,0.1
	l-0.2,0.1l-0.2,0.1l-0.1,0.1l-0.1,0.1L29,19l-0.1,0.2l-0.1,0.2l-0.1,0.2l-0.1,0.2l0,0.2l0,0.2v0.1l0,0.1l0,0.1l0,0.1l0,0.1l0,0.1
	l0.1,0.1l0.1,0.1l0.1,0.1l0.1,0.1l0.1,0.1l0.1,0.1l0.1,0.1l0.2,0.1l0.2,0.1L30,22l0.2,0l0.2,0l0.2,0l0.2,0l0.2,0l0.2,0l0.2,0
	l0.2-0.1l0.2-0.1l0.2-0.1l0.1-0.1l0.1-0.1l0.1-0.1l0.1-0.1l0.1-0.1l0.1-0.1l0,0.1l0,0.2l0,0.2l0,0.2h1.5l0.2-1.3l0.6-3.1l0-0.2V17
	L34.5,16.8z M32.5,19.2l0,0.2l0,0.2l0,0.2l0,0.1l0,0.1l0,0.1l0,0.1l0,0.1l-0.1,0.1l-0.1,0.1L32,20.3l-0.1,0.1l-0.1,0.1l-0.1,0.1
	l-0.1,0l-0.1,0l-0.2,0l-0.2,0l-0.2,0l-0.1,0l-0.1,0l-0.1,0l-0.1-0.1l-0.1-0.1l-0.1-0.1l0-0.2l0-0.2l0-0.1l0-0.1l0-0.1l0.1-0.1
	l0.1-0.1l0.1-0.1l0.1-0.1l0.1-0.1l0.1,0l0.1,0l0.1,0l0.1,0l0.1,0l0.1,0l0,0l0,0l0.1,0l0.1,0l0.1,0l0.1,0l0.1,0l0.1,0l0.1,0l0.1,0
	h0.1h0.1l0.1,0l0.1,0l0.1,0l0,0l0,0l0,0L32.5,19.2z"/>
<polygon class="st1" points="21.5,21.9 19.9,21.9 21.3,14.1 24.1,14.1 24.3,18.7 26.3,14.1 29.2,14.1 27.8,21.9 26.2,21.9 
	27.2,16.1 27.1,16.1 24.7,21.9 22.9,21.9 22.9,21.7 22.9,21 22.8,20.1 22.8,19 22.7,18 22.7,17.1 22.6,16.4 22.6,16.1 22.6,16.1 
	22.5,16.1 22.5,16.1 22.5,16.1 21.5,21.9 21.5,21.9 "/>
<path class="st1" d="M63.9,16.8l-0.1-0.2l-0.1-0.2l-0.1-0.2l-0.1-0.1L63.3,16l-0.2-0.1L63,15.8l-0.2-0.1l-0.2-0.1l-0.2-0.1l-0.2,0
	l-0.2,0l-0.2,0l-0.2,0l-0.2,0h-0.2h-0.2h-0.2l-0.2,0l-0.2,0l-0.2,0l-0.2,0l-0.2,0l-0.1,0l-0.1,0l-0.1,0l-0.1,0l-0.1,0l-0.1,0.1
	l-0.4,1.4l0.1,0l0.1,0l0.1,0l0.1,0l0.1,0l0.2,0l0.2,0l0.2,0l0.2,0l0.2,0l0.2,0l0.2,0l0.2,0H61l0.2,0l0.2,0l0.1,0l0.1,0l0.1,0.1
	l0.1,0.1l0.1,0.1l0.1,0.1l0,0.1l0,0.1l0,0.1l0,0.1l0,0.1l0,0h0l-0.1,0l-0.1,0l-0.1,0h-0.1l-0.1,0l-0.1,0h-0.1h-0.1l-0.1,0l-0.1,0
	l-0.1,0l-0.1,0l-0.1,0l-0.1,0l-0.1,0l-0.1,0l-0.1,0l-0.1,0l-0.1,0l-0.1,0l0,0l0,0h0l-0.2,0l-0.2,0.1l-0.2,0.1l-0.2,0.1L59,18.3
	l-0.2,0.1l-0.2,0.1l-0.2,0.1l-0.1,0.1L58.3,19l-0.1,0.2l-0.1,0.2L58,19.5l-0.1,0.2l0,0.2l0,0.2v0.1l0,0.1l0,0.1l0,0.1l0,0.1l0,0.1
	l0.1,0.1l0.1,0.1l0.1,0.1l0.1,0.1l0.1,0.1l0.1,0.1l0.2,0.1l0.2,0.1l0.2,0.1l0.2,0.1l0.2,0l0.2,0l0.2,0l0.2,0l0.2,0l0.2,0l0.2,0
	l0.2,0l0.1-0.1l0.1-0.1l0.1-0.1l0.1-0.1l0.1-0.1l0.1-0.1l0.1-0.1l0.1-0.1l0,0.1v0.2l0,0.2l0,0.2H63l0.2-1.3l0.6-3.1l0-0.2V17
	L63.9,16.8z M61.8,19.2l0,0.2l0,0.2l0,0.2l0,0.1l0,0.1l0,0.1l0,0.1L61.6,20l-0.1,0.1l-0.1,0.1l-0.1,0.1l-0.1,0.1l-0.1,0.1L61,20.4
	l-0.1,0l-0.1,0l-0.2,0l-0.2,0l-0.2,0l-0.1,0l-0.1,0l-0.1,0l-0.1-0.1l-0.1-0.1l0-0.1l0-0.2l0-0.2l0-0.1l0-0.1l0-0.1l0.1-0.1l0.1-0.1
	l0.1-0.1l0.1-0.1l0.1-0.1l0.1-0.1l0.1,0l0.1,0l0.1,0l0.1,0l0.1,0l0,0l0,0l0.1,0l0.1,0l0.1,0l0.1,0l0.1,0l0.1,0l0.1,0l0.1,0l0.1,0
	h0.1l0.1,0l0.1,0l0.1,0l0,0l0,0l0,0L61.8,19.2z"/>
<polygon class="st1" points="63.7,21.9 65.4,21.9 65.4,21.9 66,18.5 66,18.4 66,18.3 66,18.1 66.1,18 66.2,17.9 66.2,17.8 
	66.3,17.6 66.4,17.5 66.5,17.4 66.6,17.3 66.8,17.2 66.9,17.2 67.1,17.1 67.3,17.1 67.5,17 67.7,17 67.8,17 67.8,17 67.9,17 
	67.9,17 68.1,15.5 68,15.5 67.8,15.5 67.6,15.6 67.5,15.6 67.4,15.7 67.3,15.7 67.1,15.8 67,15.9 66.9,15.9 66.8,16 66.7,16.1 
	66.6,16.2 66.5,16.3 66.4,16.4 66.4,16.5 66.3,16.6 66.5,15.6 64.8,15.6 63.7,21.9 63.7,21.9 63.7,21.9 "/>
<polygon class="st1" points="48.1,21.9 49.7,21.9 49.8,21.9 50.3,18.5 50.3,18.4 50.4,18.3 50.4,18.2 50.4,18 50.5,17.9 50.6,17.8 
	50.6,17.7 50.7,17.6 50.8,17.5 50.9,17.4 51,17.4 51.2,17.3 51.3,17.2 51.5,17.2 51.7,17.2 52,17.1 52,17.1 52,17.1 52,17.2 
	52.1,17.2 52.1,17.2 52.1,17.2 52.1,17.2 52.1,17.2 52.1,17.1 52.2,17.1 52.2,17 52.2,16.8 52.3,16.7 52.3,16.5 52.3,16.4 
	52.4,16.2 52.4,16.1 52.5,16 52.6,15.9 52.6,15.8 52.7,15.7 52.7,15.6 52.7,15.6 52.8,15.5 52.8,15.5 52.7,15.5 52.7,15.5 
	52.7,15.5 52.6,15.5 52.6,15.5 52.5,15.5 52.5,15.5 52.3,15.5 52.1,15.5 52,15.6 51.8,15.6 51.7,15.6 51.6,15.7 51.5,15.8 
	51.4,15.8 51.3,15.9 51.2,16 51.1,16.1 51,16.2 50.9,16.3 50.8,16.4 50.7,16.5 50.6,16.6 50.9,15.6 49.2,15.6 48.1,21.9 48.1,21.9 
	48.1,21.9 "/>
<g>
	<path class="st1" d="M75.2,20.9L75.2,20.9L75.2,20.9L75.2,20.9L75,20.8l-0.1,0h-0.1h-0.3V21v0.1v0.3h0.1v-0.3h0.1l0.2,0.3h0.1
		L75,21.1h0l0,0l0,0l0,0l0,0l0,0l0,0L75.2,20.9L75.2,20.9L75.2,20.9z M75.1,21L75.1,21L75.1,21L75.1,21L75.1,21L75,21.1l0,0l-0.1,0
		h-0.1V21v-0.1h0.2h0h0l0,0l0,0l0,0L75.1,21L75.1,21L75.1,21L75.1,21L75.1,21z"/>
	<path class="st1" d="M75.7,21L75.7,21l0-0.2l-0.1-0.1l-0.1-0.1l-0.1-0.1l-0.1-0.1l-0.2,0l-0.2,0l-0.2,0l-0.2,0l-0.1,0.1l-0.1,0.1
		l-0.1,0.1l-0.1,0.1l0,0.2v0l0,0.1v0l0,0.2l0,0.2l0.1,0.1l0.1,0.1l0.1,0.1l0.1,0.1l0.2,0l0.2,0l0.2,0l0.2,0l0.1-0.1l0.1-0.1l0.1-0.1
		l0.1-0.1l0-0.2l0-0.2v0L75.7,21z M75.5,21.1l0,0.1l0,0.1l-0.1,0.1l-0.1,0.1l-0.1,0.1l-0.1,0.1l-0.1,0l-0.1,0l-0.1,0l-0.1,0
		l-0.1-0.1l-0.1-0.1l-0.1-0.1l-0.1-0.1l0-0.1l0-0.1v0l0-0.1v0l0-0.1l0.1-0.1l0.1-0.1l0.1-0.1l0.1-0.1l0.1,0l0.1,0l0.1,0l0.1,0
		l0.1,0.1l0.1,0.1l0.1,0.1l0.1,0.1l0,0.1v0L75.5,21.1L75.5,21.1z"/>
</g>
</svg>
