<?xml version="1.0" encoding="utf-8"?>
<!-- Generator: Adobe Illustrator 26.0.1, SVG Export Plug-In . SVG Version: 6.00 Build 0)  -->
<svg version="1.1" id="Layer_1" xmlns="http://www.w3.org/2000/svg" xmlns:xlink="http://www.w3.org/1999/xlink" x="0px" y="0px"
	 viewBox="0 0 95 35" style="enable-background:new 0 0 95 35;" xml:space="preserve">
<style type="text/css">
	.st0{fill-rule:evenodd;clip-rule:evenodd;fill:#FFFFFF;}
</style>
<g>
	<path class="st0" d="M86.2,31.2c-1.1-0.6-1.3-2.3-1.3-6.4l0-6.3l-2.2,0l0.5-1.2H85v-3l4-1.5l0,4.4l1.8,0l-0.5,1.3l-1.4,0l0,10.9
		c0.1,0.9,0.4,1.4,0.8,1.8H86.2L86.2,31.2z"/>
	<path class="st0" d="M46.7,4.3C47,5.1,47.7,6,47.2,7C47,8,46,8.8,45,8.9c-1,0.1-2-0.1-2.8-0.7c-0.5-2.9,0.6-5.5,2.9-7.1L46.7,4.3
		L46.7,4.3z"/>
	<path class="st0" d="M50.7,13c-0.5,1.7-5.6,0.6-7.2-2.2C45.6,11,47.9,9.1,48,7L50.7,13L50.7,13z"/>
	<path class="st0" d="M52.8,12.8c0.2-0.1,0.7-0.3,0.8-0.8L48.1,0c-0.4,0-0.6-0.1-1.1,0.3L52.8,12.8L52.8,12.8z"/>
	<path class="st0" d="M55.3,10.2c2.3-3.5,0.4-9.4-4.7-10.2L55.3,10.2L55.3,10.2z"/>
	<path class="st0" d="M54.7,17.8c0.7-0.6,2-0.6,2.9-0.2c0.4,0.2,0.7,0.4,0.9,0.7l-1.6,2.5c-0.2-0.2-0.4-0.2-0.6-0.4
		c-0.8-0.3-1.7-0.1-2.1,0.3v7.4c0,1.3,0.2,2.4,0.9,3h-3.7c-0.8-0.6-1-1.5-1-2.4l0-9.8c0-0.8-0.2-1.1-0.5-1.6l3.8,0
		c0.3,0.2,0.3,0.6,0.5,0.9L54.7,17.8L54.7,17.8z"/>
	<path class="st0" d="M59.4,20.2c0-0.9,0.2-2-0.4-2.8h3.5c0.2,0.2,0.4,0.5,0.4,0.8c0.2,0.3,0.2,0.6,0.3,0.9l0,10.4
		c0.1,0.6,0.4,1.2,0.8,1.7l-3.8,0C59.1,30,59.5,28,59.4,26L59.4,20.2L59.4,20.2z"/>
	<path class="st0" d="M65,20.4c0.4-1.1,1.6-1.6,2.4-2.2c1.3-0.5,2.8-1.7,4.3-0.7c1.2,0.8,2.3,1.7,3.1,3c0.2,0.5,0.3,1,0.4,1.5
		c0,0.7,0.1,1.2,0.1,1.9c0,0.8,0,1.4,0,2.2c0,1.3-0.6,2.4-1.6,3.2c-1.5,1.3-3.3,2.8-5.3,1.8c-1.8-0.8-3.9-2.5-3.8-4.8
		c-0.1-1.6-0.1-3,0.1-4.6C64.8,21.2,64.7,20.7,65,20.4L65,20.4z M68.7,27.7c0.2,0.6,0.5,1.4,1.3,1.5c0.5,0,0.8-0.4,1.1-0.7
		c0.8-1.6,0.7-3.4,0.7-5.2c-0.3-1.4,0.1-3.2-1.4-4.1c-0.5-0.2-0.9,0.2-1.2,0.5c-0.6,0.9-0.6,1.9-0.7,3
		C68.2,24.5,68.4,25.9,68.7,27.7L68.7,27.7z"/>
	<path class="st0" d="M78,31.2c-1.1-0.6-1.3-2.3-1.3-6.4l0-6.3l-2.2,0l0.5-1.2h1.7v-3l4-1.5l0,4.4l1.8,0l-0.5,1.3l-1.4,0l0,10.9
		c0.1,0.9,0.4,1.4,0.8,1.8H78L78,31.2z"/>
	<path class="st0" d="M41.2,19c0-0.8-0.2-1.1-0.5-1.6l3.8,0c0.3,0.2,0.3,0.6,0.5,0.9l0.6-0.5c0.7-0.6,2-0.6,2.9-0.2
		c0.4,0.2,0.7,0.4,0.9,0.7l-1.6,2.5c-0.2-0.2-0.4-0.2-0.6-0.4c-0.8-0.3-1.7-0.1-2.1,0.3v7.4c0,1.3,0.2,2.4,0.9,3h-3.7
		c-0.8-0.6-1-1.5-1-2.4L41.2,19L41.2,19z"/>
	<path class="st0" d="M12.4,22.9L11,25.7C10,27.4,8.7,29.5,6.6,30c-0.8,0.3-1.5,0-2.2,0l-2.5,4c0.2,0.2,0.4,0.4,0.7,0.5
		C7,36.1,8.7,34.3,13,24.7l4,8.6h5.4l-2.5-5.8l1.4-3l4,8.6l5.1,0l-9-19.7l-4.1,2.1l3.2,7.4L19,25.8l-5.9-12.8l-4.4,2.2L12.4,22.9
		L12.4,22.9z"/>
	<path class="st0" d="M28.8,26.4c0.1-1.4,0.9-2.8,2.2-3.5c1.3-0.8,2.8-1.1,4.2-1.8c0.2-0.2,0.5-0.4,0.5-0.7c0-0.4-0.2-0.7-0.5-0.8
		c-2.1-0.4-3.8,0.9-5.3,2.1c0.2-0.9,0.3-2,0.8-2.9c0.2-0.2,0.4-0.6,0.6-0.7c1.5-0.7,3.3-0.9,4.9-0.8c1.3,0.1,2.6,1,3,2.3
		c0.2,0.6,0.2,1.2,0.3,1.8l0,8c0,0.7,0.3,1.3,0.8,1.9h-3.8c-0.5-0.4-0.7-0.9-0.8-1.6c-1.1,0.9-3.3,2.3-4.6,1.4
		C29.8,30.4,28.5,28.3,28.8,26.4L28.8,26.4z M35.6,23.6c0-0.6-0.4-0.6-0.7-0.6c-0.9,0.1-1.7,0.9-2.1,1.7c-0.4,0.7-0.5,1.3-0.5,1.9
		c0,0.7,0,1.1,0.2,1.7c0.1,0.3,0.5,0.5,0.8,0.6c0.6,0.1,1.1,0,1.6-0.4c1.1-0.6,0.9-1.8,0.9-2.9L35.6,23.6L35.6,23.6z"/>
	<path class="st0" d="M92.6,29.3c0.2,0.2,0.3,0.4,0.3,0.7c0,0.3-0.1,0.5-0.3,0.7c-0.2,0.2-0.4,0.3-0.7,0.3c-0.3,0-0.5-0.1-0.7-0.3
		c-0.2-0.2-0.3-0.4-0.3-0.7c0-0.3,0.1-0.5,0.3-0.7c0.2-0.2,0.4-0.3,0.7-0.3C92.1,29,92.4,29.1,92.6,29.3L92.6,29.3z M92.7,29.2
		c-0.2-0.2-0.5-0.4-0.8-0.4c-0.3,0-0.6,0.1-0.8,0.3c-0.2,0.2-0.4,0.5-0.4,0.9c0,0.3,0.1,0.6,0.3,0.9c0.2,0.2,0.5,0.3,0.9,0.3
		c0.3,0,0.6-0.1,0.8-0.3c0.2-0.2,0.4-0.5,0.4-0.9C93.1,29.7,92.9,29.4,92.7,29.2L92.7,29.2z M92,29.9c0,0-0.1,0-0.2,0h-0.1v-0.4h0.1
		c0.1,0,0.2,0,0.2,0c0.1,0,0.1,0.1,0.1,0.2C92.1,29.8,92.1,29.9,92,29.9L92,29.9z M91.7,30.2L91.7,30.2l0.1,0c0.1,0,0.1,0,0.1,0
		c0,0,0.1,0.1,0.1,0.1c0,0,0,0.1,0,0.2c0,0.1,0,0.1,0,0.2h0.3l0,0c0,0,0,0,0,0c0,0,0,0,0,0v-0.1c0-0.1,0-0.2-0.1-0.3
		c0,0-0.1-0.1-0.2-0.1c0.1,0,0.2,0,0.2-0.1c0.1,0,0.1-0.1,0.1-0.2c0-0.1-0.1-0.3-0.2-0.3c-0.1,0-0.2-0.1-0.3-0.1c0,0-0.1,0-0.3,0
		c-0.2,0-0.3,0-0.4,0v1.3h0.3V30.2L91.7,30.2z"/>
</g>
</svg>
