<?xml version="1.0" encoding="utf-8"?>
<!-- Generator: Adobe Illustrator 26.0.1, SVG Export Plug-In . SVG Version: 6.00 Build 0)  -->
<svg version="1.1" id="Layer_1" xmlns="http://www.w3.org/2000/svg" xmlns:xlink="http://www.w3.org/1999/xlink" x="0px" y="0px"
	 viewBox="0 0 95 35" style="enable-background:new 0 0 95 35;" xml:space="preserve">
<style type="text/css">
	.st0{fill-rule:evenodd;clip-rule:evenodd;fill:#343741;}
</style>
<g>
	<g>
		<path class="st0" d="M39.9,28.6C40,30,40,31.5,40,33h5.2c0-1.5,0-3,0.1-4.4H39.9z"/>
		<path class="st0" d="M45.5,22.5c0.8-12.6,3-19.1,5.4-19.1c2.2,0,4.9,8.2,6.3,19.1H62C59.9,10.6,55.1,0,50.8,0
			c-4.9,0-7.4,10.4-8.2,16.1C41.8,10.4,39.3,0,34.4,0C28.7,0,22,19.1,22,35h5.3c0-16.6,4.1-31.6,7-31.6c2.5,0,4.7,6.5,5.4,19.1H45.5
			z"/>
		<path class="st0" d="M57.8,28.6c0.1,2.1,0.2,4.2,0.2,6.4h5.3c0-2.1-0.1-4.2-0.3-6.4H57.8z"/>
	</g>
	<path class="st0" d="M60.9,23h1.5v5h-1.5V23z M68.1,23h1l-0.4,1.4H68L68.1,23L68.1,23z M70.9,23.7c1,0,2,0.3,2,1.3h-1.4
		c0-0.3-0.2-0.5-0.5-0.5c-0.2,0-0.5,0.1-0.5,0.4c0,0.5,0.8,0.4,1.5,0.6c0.6,0.2,1.1,0.6,1.1,1.2c0,0.9-0.7,1.4-2.1,1.4
		c-1.4,0-2-0.5-2-1.4h1.5c0,0.4,0.2,0.6,0.5,0.6c0.4,0,0.5-0.1,0.5-0.4c0-0.5-1-0.5-1.6-0.7c-0.4-0.1-0.8-0.4-0.8-1.1
		C69.1,24.5,69.5,23.7,70.9,23.7L70.9,23.7z M39.7,26.5c-0.3,1-1.1,1.6-2.1,1.6c-1.2,0-2.2-0.9-2.2-2.3c0-1.4,0.8-2.3,2.2-2.3
		c1.1,0,1.9,0.6,2.1,1.6l-1.4,0c-0.1-0.3-0.3-0.5-0.7-0.5c-0.6,0-0.8,0.7-0.8,1.2c0,0.5,0.2,1.2,0.8,1.2c0.4,0,0.6-0.2,0.7-0.5
		L39.7,26.5L39.7,26.5z M29.2,23H31l0.8,3l0.8-3h1.8l0.8,5.1h-1.5l-0.4-3l-0.8,3h-1.4l-0.8-3l-0.4,3h-1.5L29.2,23z M52.5,25.6V28H51
		v-4.4h1.5V24c0.4-0.3,0.7-0.4,1.5-0.4c0.8,0,1.5,0.6,1.5,1.2V28h-1.5v-2.4c0-0.4-0.4-0.7-0.7-0.7C52.8,24.9,52.6,25.3,52.5,25.6
		L52.5,25.6z M66,24.1V23h1.5v5H66v-0.2c-0.2,0.2-0.5,0.4-1.1,0.4c-0.7,0-1.9-0.4-1.9-2.2c0-1.8,1.2-2.2,2-2.2
		C65.6,23.7,65.8,24,66,24.1L66,24.1z M64.4,26c0,0.7,0.3,1.1,0.8,1.1c0.3,0,0.6-0.1,0.7-0.4v-1.3c-0.1-0.3-0.4-0.5-0.7-0.5
		C64.7,24.8,64.4,25.3,64.4,26L64.4,26z M46,25.8c0-1.4,0.9-2.3,2.3-2.3c1.4,0,2.3,0.9,2.3,2.3c0,1.4-0.9,2.3-2.3,2.3
		C46.9,28.1,46,27.2,46,25.8z M49.1,25.8c0-0.5-0.2-1.2-0.9-1.2c-0.7,0-0.9,0.7-0.9,1.2c0,0.5,0.2,1.2,0.9,1.2
		C49,27,49.1,26.4,49.1,25.8z M40.2,23h2.6c1.6,0,2.8,1,2.8,2.6s-1.1,2.6-2.8,2.6h-2.6L40.2,23L40.2,23z M42,26.9h0.8
		c0.5,0,1.1-0.3,1.1-1.4c0-1-0.6-1.4-1.1-1.4H42V26.9z M58.3,23.5c1.1,0,2,0.4,2,1.3V28h-1.5v-0.4c-0.4,0.3-0.7,0.6-1.4,0.6
		c-0.8,0-1.4-0.6-1.4-1.3c0-0.7,0.4-1.5,2.2-1.5c0.5,0,0.6-0.2,0.6-0.4c0-0.3-0.3-0.4-0.6-0.4c-0.3,0-0.5,0.1-0.5,0.4h-1.4
		C56.3,24.2,56.7,23.5,58.3,23.5z M58.2,26c-0.4,0-0.7,0.2-0.7,0.5c0,0.2,0.1,0.4,0.5,0.4c0.3,0,0.7-0.2,0.8-0.6V26
		C58.7,26,58.4,26,58.2,26L58.2,26z"/>
	<path class="st0" d="M65.6,31.6h0.9c0.5,0,0.8,0.2,0.8,0.6c0,0.3-0.2,0.5-0.5,0.5v0c0.4,0.1,0.5,0.5,0.5,0.9h-0.4
		c0-0.5-0.1-0.7-0.6-0.7h-0.3v0.7h-0.4V31.6L65.6,31.6z M65.9,32.5h0.4c0.3,0,0.5-0.1,0.5-0.3c0-0.2-0.1-0.3-0.4-0.3h-0.5V32.5z
		 M66.3,30.9c0.9,0,1.7,0.8,1.7,1.7c0,0,0,0,0,0c0,1-0.8,1.7-1.7,1.7c-0.9,0-1.7-0.8-1.7-1.7C64.6,31.7,65.4,30.9,66.3,30.9
		C66.3,30.9,66.3,30.9,66.3,30.9z M66.3,34.1c0.8,0,1.5-0.7,1.5-1.6c0-0.8-0.7-1.5-1.5-1.5c-0.8,0-1.5,0.7-1.5,1.5
		C64.8,33.4,65.5,34.1,66.3,34.1z"/>
</g>
</svg>
