<?xml version="1.0" encoding="utf-8"?>
<!-- Generator: Adobe Illustrator 26.0.1, SVG Export Plug-In . SVG Version: 6.00 Build 0)  -->
<svg version="1.1" id="Layer_1" xmlns="http://www.w3.org/2000/svg" xmlns:xlink="http://www.w3.org/1999/xlink" x="0px" y="0px"
	 viewBox="0 0 95 35" style="enable-background:new 0 0 95 35;" xml:space="preserve">
<style type="text/css">
	.st0{fill:#104076;}
	.st1{fill:#CCCCCC;}
</style>
<path class="st0" d="M-39.1,613.7"/>
<path class="st1" d="M45.4,25.1c-4.3,0-8.2-2.5-8.2-5.9s3.9-5.9,8.2-5.9c1.9,0,3.7,0.5,5.6,1.6l-1.4,1.7c-1.2-0.6-2.7-1-4.2-1
	c-1.8,0-3.9,1-3.9,3.6c0,2.5,2.1,3.6,3.9,3.6c1.5,0,3-0.3,4.3-0.9l1.4,1.8C49.4,24.6,47.5,25.1,45.4,25.1"/>
<path class="st1" d="M70.1,13.3c-4.4,0-8.2,2.5-8.2,5.9s3.9,5.9,8.2,5.9c4.4,0,8.2-2.5,8.2-5.9C78.3,15.7,74.5,13.3,70.1,13.3z
	 M70.1,22.7c-1.8,0-3.9-1-3.9-3.6c0-2.5,2.1-3.6,3.9-3.6s3.9,1,3.9,3.6S71.9,22.7,70.1,22.7z"/>
<path class="st1" d="M80.1,24.8h4.1v-7c0-0.9,0.7-2.1,2.1-2.1c0.9,0,1.8,0.6,1.8,1.4v7.7h4.1v-7.9c0-2.1-2.2-3.8-4.9-3.8h-0.1h-0.1
	c-1.1,0-2.1,0.3-3,0.9c0,0-0.2-0.8-4-0.8V24.8"/>
<rect x="31.2" y="13.6" class="st1" width="4" height="11.2"/>
<path class="st1" d="M53,24.8h4V18c0-1.1,1.3-1.9,2.6-1.9c0.7,0,1.3,0.1,1.8,0.4v-3c-0.5-0.1-1-0.1-1.4-0.1c-1.1,0-2.1,0.3-3,0.8
	c-0.1-0.1-0.6-0.8-4-0.8L53,24.8"/>
<path class="st1" d="M23.6,20.3v4.5h4.1v-8.2C26.5,17.8,25.1,19.1,23.6,20.3"/>
<path class="st1" d="M7.6,30.6h4.1v-4.2c1.1-0.7,2.2-1.4,3.4-2.1c0.2-0.2,0.5-0.3,0.6-0.5c0.3-0.2,0.1-0.4-0.1-0.3
	c-0.2,0.1-0.5,0.3-0.7,0.4C8.5,28,4.3,29.2,2.7,27c-1.4-1.9,0.9-5.4,4.9-9.5V27c1.1-0.4,2.5-1,4.1-1.9v-8.7l0.9,1.9
	c1,2.1,2.8,3.4,5,3.4c2.3,0,4.1-1.3,5-3.4l0.9-1.9v2.2c1.5-1.4,2.7-2.8,3.7-4.2c0.1-0.2,0.1-0.3,0-0.5c-0.6-1.3-2-2.2-3.5-2.2
	s-2.9,0.9-3.5,2.2l-1.7,3.6C18.4,17.9,18,18,17.7,18c-0.4,0-0.7-0.2-0.9-0.5l-1.7-3.6c-0.3-0.7-0.8-1.2-1.5-1.6
	c1.3-1,2.5-1.9,3.7-2.6c0.3-0.2,0.5-0.3,0.7-0.5c0.2-0.1,0.2-0.4-0.2-0.2c-0.2,0.1-0.5,0.2-0.7,0.4c-1.2,0.7-2.5,1.5-3.7,2.3
	c-0.1,0.1-0.3,0.2-0.4,0.3c-0.4-0.2-0.9-0.3-1.4-0.3c-2.2,0-3.9,1.7-3.9,3.9v0.5c-5.8,5.1-8.8,10.2-7.2,12.5
	c1.2,1.7,3.9,1.3,7.2-0.2L7.6,30.6 M93.7,14.5L93.7,14.5c0.3,0,0.4-0.1,0.4-0.2c0-0.1-0.1-0.2-0.3-0.2c-0.1,0-0.1,0-0.1,0V14.5z
	 M93.7,15.2h-0.2V14c0.1,0,0.2,0,0.4,0c0.2,0,0.3,0,0.4,0.1s0.1,0.1,0.1,0.3s-0.1,0.3-0.2,0.3l0,0c0.1,0,0.2,0.1,0.2,0.3
	s0.1,0.3,0.1,0.3h-0.2c0,0-0.1-0.2-0.1-0.3c0-0.2-0.1-0.2-0.3-0.2h-0.1L93.7,15.2z M93.9,13.6c-0.5,0-0.9,0.4-0.9,1
	c0,0.5,0.4,1,0.9,1s0.9-0.4,0.9-1S94.4,13.6,93.9,13.6L93.9,13.6z M93.9,13.4c0.6,0,1.1,0.5,1.1,1.1s-0.5,1.2-1.1,1.2
	s-1.1-0.5-1.1-1.2C92.7,13.9,93.2,13.4,93.9,13.4L93.9,13.4"/>
</svg>
