<?xml version="1.0" encoding="utf-8"?>
<!-- Generator: Adobe Illustrator 26.0.1, SVG Export Plug-In . SVG Version: 6.00 Build 0)  -->
<svg version="1.1" id="Layer_1" xmlns="http://www.w3.org/2000/svg" xmlns:xlink="http://www.w3.org/1999/xlink" x="0px" y="0px"
	 viewBox="0 0 95 35" style="enable-background:new 0 0 95 35;" xml:space="preserve">
<style type="text/css">
	.st0{fill-rule:evenodd;clip-rule:evenodd;fill:#343741;}
</style>
<g>
	<polygon class="st0" points="12.3,30.9 13.2,25.6 15.3,25.6 15.7,29 17.2,25.6 19.3,25.6 18.4,30.9 16.8,30.9 17.1,29.3 17.2,28.5 
		17.5,27.5 17.5,27.5 15.9,30.9 14.7,30.9 14.3,27.5 14.3,27.5 14.2,28.3 14.2,29.2 13.8,30.9 12.3,30.9 	"/>
	<path class="st0" d="M21.8,28c0.4,0,0.6,0.4,0.5,1c-0.1,0.8-0.5,1-0.9,1c-0.4,0-0.6-0.3-0.5-1C21,28.5,21.3,28,21.8,28L21.8,28z
		 M19.4,29c-0.2,1.3,0.6,2,1.8,2c1.3,0,2.3-0.7,2.6-2.1c0.2-1.2-0.5-2-1.8-2C20.6,27,19.6,27.7,19.4,29L19.4,29z"/>
	<path class="st0" d="M26.7,28c0.4,0,0.6,0.4,0.5,1c-0.1,0.8-0.5,1-0.9,1c-0.4,0-0.6-0.3-0.5-1C25.9,28.5,26.2,28,26.7,28L26.7,28z
		 M24.3,29c-0.2,1.3,0.6,2,1.8,2c1.3,0,2.3-0.7,2.6-2.1c0.2-1.2-0.5-2-1.8-2C25.5,27,24.5,27.7,24.3,29L24.3,29z"/>
	<path class="st0" d="M31.2,30c-0.5,0-0.5-0.5-0.5-0.9c0.1-0.4,0.3-0.9,0.8-0.9c0.5,0,0.5,0.5,0.5,0.9C32,29.5,31.7,30,31.2,30
		L31.2,30z M33.2,30.9l0.9-5.3h-1.5l-0.3,1.8C32,27.1,31.7,27,31.2,27c-0.9,0-1.8,0.8-2,2.1c-0.2,1.1,0.3,2,1.4,2
		c0.5,0,0.9-0.2,1.3-0.6l-0.1,0.5H33.2L33.2,30.9z"/>
	<path class="st0" d="M36,29.5l1.1-2.4h1.5l-1.8,3.6c-0.6,1.2-0.8,1.6-2.2,1.6c-0.3,0-0.5,0-0.7,0l0.2-1.1c0.1,0,0.2,0,0.3,0
		c0.5,0,0.6-0.2,0.5-0.6l-0.7-3.5h1.6L36,29.5L36,29.5z"/>
	<path class="st0" d="M38.9,27.7c0.3,0,0.4-0.1,0.5-0.2c0.1-0.1,0.2-0.3,0.2-0.5H39l0.3-1.3h1.3l-0.2,1.2c-0.1,0.9-0.9,1.5-1.6,1.5
		L38.9,27.7L38.9,27.7z"/>
	<path class="st0" d="M42,29.8c0,0.1,0,0.3,0.1,0.3c0.1,0.1,0.2,0.1,0.4,0.1c0.2,0,0.5-0.1,0.5-0.3c0.1-0.6-2.4-0.1-2.1-1.6
		c0.2-1,1.3-1.3,2.1-1.3c0.8,0,1.8,0.2,1.7,1.2h-1.4c0-0.1,0-0.2-0.1-0.3c-0.1-0.1-0.2-0.1-0.3-0.1c-0.3,0-0.5,0.1-0.5,0.3
		c-0.1,0.5,2.4,0.2,2.2,1.6c-0.2,0.8-0.9,1.3-2.3,1.3c-0.9,0-1.8-0.3-1.7-1.3H42L42,29.8z"/>
	<path class="st0" d="M51.4,27.7c0-0.5-0.3-0.8-0.8-0.8c-0.6,0-1.1,0.5-1.3,1.5c-0.1,0.8-0.1,1.5,0.8,1.5c0.5,0,0.9-0.4,1-0.9h1.7
		c-0.4,1.4-1.6,2.2-2.9,2.2c-1.8,0-2.6-1.1-2.3-2.8c0.3-1.7,1.6-2.8,3.1-2.8c1.6,0,2.4,0.8,2.3,2.1H51.4L51.4,27.7z"/>
	<path class="st0" d="M55.7,28c0.4,0,0.6,0.4,0.5,1c-0.1,0.8-0.5,1-0.9,1c-0.4,0-0.6-0.3-0.5-1C55,28.5,55.2,28,55.7,28L55.7,28z
		 M53.3,29c-0.2,1.3,0.6,2,1.8,2c1.3,0,2.3-0.7,2.6-2.1c0.2-1.2-0.5-2-1.8-2C54.6,27,53.6,27.7,53.3,29L53.3,29z"/>
	<path class="st0" d="M58.7,27.1h1.4L60,27.9h0c0.3-0.6,0.7-0.9,1.3-0.9c0,0,0.1,0,0.2,0l-0.3,1.6c-0.1,0-0.2,0-0.3,0
		c-0.6,0-1,0.3-1.2,1.1l-0.2,1.3H58L58.7,27.1L58.7,27.1z"/>
	<path class="st0" d="M63.8,29.9c-0.4,0-0.5-0.4-0.5-0.9c0.1-0.5,0.4-0.8,0.8-0.8c0.4,0,0.6,0.3,0.5,0.9
		C64.5,29.6,64.2,29.9,63.8,29.9L63.8,29.9z M62.2,27.1l-0.9,5.2h1.5l0.3-1.7c0.2,0.3,0.5,0.5,0.9,0.5c0.8,0,1.9-0.5,2.1-2.1
		c0.2-1.1-0.2-2-1.3-2c-0.5,0-1.1,0.2-1.3,0.7l0,0l0.1-0.6H62.2L62.2,27.1z"/>
	<path class="st0" d="M69,28c0.4,0,0.6,0.4,0.5,1c-0.1,0.8-0.5,1-0.8,1c-0.4,0-0.6-0.3-0.5-1C68.3,28.5,68.5,28,69,28L69,28z
		 M66.7,29c-0.2,1.3,0.6,2,1.8,2c1.3,0,2.3-0.7,2.6-2.1c0.2-1.2-0.5-2-1.8-2C67.9,27,66.9,27.7,66.7,29L66.7,29z"/>
	<path class="st0" d="M72.1,27.1h1.4l-0.2,0.8h0c0.3-0.6,0.8-0.9,1.3-0.9c0,0,0.1,0,0.2,0l-0.3,1.6c-0.1,0-0.2,0-0.3,0
		c-0.6,0-1,0.3-1.2,1.1l-0.2,1.3h-1.6L72.1,27.1L72.1,27.1z"/>
	<path class="st0" d="M76.7,30.2c-0.3,0-0.5-0.1-0.5-0.3c0.1-0.5,0.8-0.4,1.3-0.6C77.5,29.8,77.2,30.2,76.7,30.2L76.7,30.2z
		 M79,30.9L79,30.9c-0.2-0.2-0.1-0.3-0.1-0.5l0.3-1.8c0.2-0.9,0.2-1.6-1.6-1.6c-1.6,0-2.2,0.5-2.4,1.3h1.5c0.1-0.3,0.4-0.4,0.6-0.4
		c0.2,0,0.5,0,0.5,0.3c-0.1,0.7-2.7-0.1-3,1.7c-0.2,0.8,0.4,1.2,1.1,1.2c0.6,0,1.1-0.1,1.6-0.5v0.4H79L79,30.9z"/>
	<path class="st0" d="M82.2,30.9c-2,0.1-2.3,0-2-1.3l0.3-1.6h-0.5l0.1-0.9h0.6l0.2-1.2h1.5l-0.2,1.2h0.7L82.7,28h-0.8l-0.3,1.4
		c0,0.3,0,0.5,0.4,0.5h0.2L82.2,30.9L82.2,30.9z"/>
	<path class="st0" d="M83,30.9l0.7-3.9h1.5l-0.7,3.9H83L83,30.9z M84,25.5h1.6l-0.2,1.1h-1.5L84,25.5L84,25.5z"/>
	<path class="st0" d="M88,28c0.4,0,0.6,0.4,0.5,1c-0.2,0.8-0.5,1-0.9,1c-0.4,0-0.6-0.3-0.5-1C87.2,28.5,87.5,28,88,28L88,28z
		 M85.6,29c-0.2,1.3,0.6,2,1.8,2c1.3,0,2.3-0.7,2.6-2.1c0.2-1.2-0.5-2-1.8-2C86.9,27,85.8,27.7,85.6,29L85.6,29z"/>
	<path class="st0" d="M91,27.1h1.4l-0.1,0.6c0.4-0.5,0.8-0.7,1.4-0.7c1,0,1.4,0.6,1.2,1.6l-0.4,2.3H93l0.4-2c0.1-0.4,0-0.7-0.4-0.7
		c-0.5,0-0.6,0.3-0.7,0.8l-0.4,2h-1.5L91,27.1L91,27.1z"/>
	<path class="st0" d="M9.8,14.7l-0.4-0.9h0.9l-0.4,0.9C9.9,14.8,9.9,14.8,9.8,14.7C9.8,14.8,9.8,14.8,9.8,14.7L9.8,14.7z M7.4,13.8
		h-2v1.1h2.4L7.4,13.8L7.4,13.8z M11.1,13.8l-0.5,1.1h2.5v-1.1H11.1L11.1,13.8z M4.7,13.8H0.1c0,0.3,0.1,0.7,0.2,1.1h4.4V13.8
		L4.7,13.8z M15,13.8v1.1h4.5c0.1-0.4,0.2-0.8,0.2-1.1H15L15,13.8z M8,15.2H5.5v1h3L8,15.2L8,15.2z M10.5,15.2l-0.4,1h3v-1H10.5
		L10.5,15.2z M15,15.2v1h4.1c0.1-0.3,0.3-0.7,0.3-1H15L15,15.2z M4.7,15.2H0.3c0.1,0.4,0.3,0.7,0.4,1h4V15.2L4.7,15.2z M9,17.6
		l-0.4-1.1H5.5v0.7c0,0.3,0.2,0.3,0.3,0.3H6c0,0,0,0,0,0l0,0H9L9,17.6z M10,16.6l-0.5,1.1h2.8l0,0c0,0,0,0,0.1,0h0.4
		c0.2,0,0.3,0,0.3-0.3v-0.7H10L10,16.6z M15,16.6v0.7c0,0.3,0.1,0.3,0.3,0.3h0.3c0,0,0,0,0,0l0,0h2.8c0.2-0.3,0.4-0.7,0.5-1.1H15
		L15,16.6z M4.1,17.6C4.1,17.6,4.1,17.6,4.1,17.6l0.3,0c0.2,0,0.3,0,0.3-0.3v-0.7H0.8C1,17,1.2,17.3,1.4,17.6H4.1L4.1,17.6L4.1,17.6
		z M6.8,12.3H5.5v1.1h1.8L6.8,12.3L6.8,12.3z M11.7,12.3l-0.5,1.1h1.9v-1.1H11.7L11.7,12.3z M10.9,12.3H8.8l0.5,1.1h1.1L10.9,12.3
		L10.9,12.3z M4.7,12.3H0c0,0.1,0,0.2,0,0.3c0,0.3,0,0.6,0,0.9h4.7V12.3L4.7,12.3z M19.8,12.3H15v1.1h4.8c0-0.3,0-0.6,0-0.9
		C19.8,12.5,19.8,12.4,19.8,12.3L19.8,12.3z M6.3,21.8c1.1,0.4,2.3,0.7,3.6,0.7c1.3,0,2.5-0.3,3.6-0.7H6.3L6.3,21.8z M15.7,20.6H4.1
		c0.5,0.4,1,0.7,1.5,0.9h8.6C14.7,21.2,15.2,20.9,15.7,20.6L15.7,20.6z M4.7,9.5H0.5c-0.1,0.3-0.2,0.7-0.3,1.1h4.5V9.5L4.7,9.5z
		 M15,10.6h4.6c-0.1-0.4-0.2-0.8-0.3-1.1H15V10.6L15,10.6z M5.7,9.5H5.5v1.1h0.7L5.7,9.5L5.7,9.5z M13.1,9.5h-0.3l-0.5,1.1h0.8V9.5
		L13.1,9.5z M12.1,9.5H7.6l0.5,1.1h3.5L12.1,9.5L12.1,9.5z M16.5,19.3c0.1,0.2,0.1,0.3,0.1,0.3H3.1c0,0,0-0.1,0.1-0.3H2.6
		c0.3,0.4,0.7,0.7,1.1,1h12.5c0.4-0.3,0.7-0.6,1.1-1H16.5L16.5,19.3z M3.9,4.8h12c-0.5-0.4-1.1-0.8-1.7-1.1H5.6C5,4,4.4,4.4,3.9,4.8
		L3.9,4.8z M13.5,3.4C12.3,3,11.2,2.7,9.9,2.7C8.7,2.7,7.4,3,6.3,3.4H13.5L13.5,3.4z M3.1,5.6h13.5c0,0-0.1,0.3-0.3,0.7h1.2
		c-0.4-0.5-0.8-0.8-1.2-1.2H3.5C3.1,5.4,2.7,5.8,2.3,6.3h1.1C3.2,5.9,3.1,5.6,3.1,5.6L3.1,5.6z M1.6,18c0.3,0.3,0.5,0.7,0.8,1h1
		c0.1-0.1,0.2-0.2,0.3-0.3c0-0.1,0.2-0.3,0.3-0.4h12c0.1,0.1,0.2,0.3,0.3,0.4c0.1,0.1,0.1,0.2,0.2,0.3h1.1c0.3-0.3,0.5-0.6,0.7-1
		H1.6L1.6,18z M4.5,7.5H4.2c-0.1,0-0.1,0-0.1,0V7.3c0,0,0,0,0,0h2.6l0.3,0.5h5.8L13,7.2h2.6c0,0,0,0,0,0v0.2c0,0,0,0,0,0h-0.4
		c-0.2,0-0.3,0-0.3,0.3h3.6C18.3,7.4,18,7,17.7,6.6h-1.6c-0.1,0.1-0.2,0.3-0.3,0.3h-12c0-0.1-0.2-0.2-0.2-0.3H2.1
		C1.8,7,1.5,7.4,1.3,7.8h3.4C4.7,7.5,4.6,7.5,4.5,7.5L4.5,7.5z M7.1,8.1l0.5,1.1h4.7l0.5-1.1H7.1L7.1,8.1z M15,9.2h4.2
		c-0.1-0.4-0.3-0.8-0.5-1.1H15V9.2L15,9.2z M4.7,8.1H1.1C0.9,8.4,0.8,8.8,0.6,9.2h4.1V8.1L4.7,8.1z M6.3,10.9H5.5V12h1.3L6.3,10.9
		L6.3,10.9z M15,12h4.8c0-0.4,0-0.7-0.1-1.1H15V12L15,12z M11.5,10.9H8.2L8.7,12H11L11.5,10.9L11.5,10.9z M13.1,10.9h-0.9L11.8,12
		h1.3V10.9L13.1,10.9z M4.7,10.9H0.2C0.1,11.3,0,11.6,0,12h4.7V10.9L4.7,10.9z"/>
</g>
</svg>
