<?xml version="1.0" encoding="utf-8"?>
<!-- Generator: Adobe Illustrator 26.0.1, SVG Export Plug-In . SVG Version: 6.00 Build 0)  -->
<svg version="1.1" id="Layer_1" xmlns="http://www.w3.org/2000/svg" xmlns:xlink="http://www.w3.org/1999/xlink" x="0px" y="0px"
	 viewBox="0 0 95 35" style="enable-background:new 0 0 95 35;" xml:space="preserve">
<style type="text/css">
	.st0{fill-rule:evenodd;clip-rule:evenodd;fill:#FFFFFF;}
</style>
<g>
	<path id="path32" class="st0" d="M10.1,21.2c-0.4,0.4-1.1,0.5-1.5,0.6C7.8,21.9,7,21.6,6.5,21c-0.4-0.5-0.7-1.2-1.1-1.8
		c-0.7-0.9-1.8-1.4-2.9-1.2c-2.2,0.4-3.2,3-2,4.8c1.8,2.6,5.8,2.1,7.8,0.3C9,22.6,9.6,21.9,10.1,21.2z"/>
	<path id="path34" class="st0" d="M84.8,21.2c0.4,0.4,1.1,0.5,1.5,0.6c0.8,0.1,1.7-0.2,2.2-0.8c0.4-0.5,0.7-1.2,1.1-1.8
		c0.7-0.9,1.8-1.4,2.9-1.2c2.2,0.4,3.2,3,2,4.8c-1.8,2.6-5.8,2.1-7.9,0.3C85.9,22.6,85.3,21.9,84.8,21.2L84.8,21.2z"/>
	<path id="path36" class="st0" d="M77.5,7.6c-0.1,0-5.3,0-5.4,0c-0.6,0-1,0.6-1.1,1.1c0,0.6,0.5,1.2,1.1,1.2c0.1,0,5.3,0,5.4,0
		c0.6,0,1-0.6,1.1-1.1C78.6,8.2,78.1,7.6,77.5,7.6z"/>
	<path id="path38" class="st0" d="M44,19c-0.1-0.3-0.1-0.6-0.1-0.9c0-0.4,0-1,0-1.6c0.1-1.9,0.4-5.4-2.2-5.4c-1.8,0-2.9,1.5-3.2,2
		c0-1.4-1.1-2.4-2.8-2.4c-1.1,0-1.7,0.8-1.7,0.8s1,0.4,1,1.7c0,1,0,5.8,0,5.8c0,0.9,0.6,1.7,1.7,1.7c1.1,0,1.7-0.8,1.7-1.7v-4.3
		c0.1-0.7,0.5-1.4,1.1-1.4c0.8,0,0.8,0.9,0.8,0.9l0,4.1c0,0.1,0,0.3,0,0.4c0,0.2,0.1,0.4,0.2,0.6c0.4,0.8,1.3,1.4,2.5,1.4
		c1.1,0,1.7-0.8,1.7-0.8S44.3,19.8,44,19L44,19z"/>
	<path id="path40" class="st0" d="M69.3,19c-0.1-0.3-0.1-0.6-0.1-0.9l0-10.2c0-1-0.8-1.8-1.8-1.8c-1,0-1.8,0.8-1.8,1.8v9
		c0,0.8-0.1,1.6,0.3,2.4c0.4,0.8,1.4,1.5,2.6,1.5c1,0,1.7-0.8,1.7-0.8S69.6,19.8,69.3,19L69.3,19z"/>
	<path id="path42" class="st0" d="M29.1,11.1c-2.7,0-4.9,2.2-4.9,4.9c0,2.7,2.2,4.9,4.9,4.9c2.7,0,4.9-2.2,4.9-4.9
		C34,13.2,31.8,11.1,29.1,11.1L29.1,11.1z M29.2,18.7L29.2,18.7C29.2,18.7,29.2,18.7,29.2,18.7C29.2,18.7,29.2,18.7,29.2,18.7
		L29.2,18.7c-0.9,0-1.4-1.1-1.4-2.8s0.6-2.8,1.4-2.8l0,0c0,0,0,0,0,0c0,0,0,0,0,0l0,0c0.8,0,1.4,1.1,1.4,2.8S30.1,18.7,29.2,18.7z"
		/>
	<path id="path44" class="st0" d="M55,19c-0.1-0.3-0.1-0.6-0.1-0.9l0-10.2c0-1-0.8-1.8-1.8-1.8c-1,0-1.8,0.8-1.8,1.8l0,4.8
		c-0.4-0.6-1.4-1.6-2.9-1.6c-4.1,0-4.4,7.3-1.6,9.1c0.8,0.5,2,0.6,2.9,0.4c0.6-0.2,1.6-0.8,1.8-1.5c0,0.1,0,0.1,0.1,0.2
		c0.4,0.8,1.4,1.5,2.6,1.5c1,0,1.7-0.8,1.7-0.8S55.2,19.7,55,19L55,19z M49.6,18.4L49.6,18.4C49.6,18.4,49.6,18.4,49.6,18.4
		C49.6,18.4,49.6,18.4,49.6,18.4L49.6,18.4c-0.9,0-1.4-0.9-1.4-2.4c0-1.5,0.6-2.4,1.4-2.4l0,0c0,0,0,0,0,0c0,0,0,0,0,0l0,0
		c0.8,0,1.4,0.9,1.4,2.4C51,17.5,50.5,18.4,49.6,18.4z"/>
	<path id="path46" class="st0" d="M64.3,17.8c0,0-0.5,0.7-2.6,0.7c-2,0-2.5-1.6-2.5-1.6c3,0,5.5-0.2,5.5-2.6c0-2.4-2.7-3.2-4.3-3.2
		c-2.7,0-4.6,2.1-4.6,4.9c0,3.1,2.5,4.7,4.6,4.7C64.2,20.8,64.3,17.8,64.3,17.8L64.3,17.8z M59.1,15.4c0.1-0.8,0.3-1.7,1-2.2
		c0.6-0.4,1.4,0.1,1.4,0.8c0,0.8-0.5,1.3-1.2,1.4C60.3,15.4,59.1,15.5,59.1,15.4z"/>
	<path id="path48" class="st0" d="M78.7,17.8c0,0-0.5,0.7-2.6,0.7c-2,0-2.5-1.6-2.5-1.6c3,0,5.5-0.2,5.5-2.6c0-2.4-2.7-3.2-4.3-3.2
		c-2.7,0-4.6,2.1-4.6,4.9c0,3.1,2.5,4.7,4.6,4.7C78.5,20.8,78.7,17.8,78.7,17.8L78.7,17.8z M73.5,15.4c0.1-0.8,0.3-1.7,1-2.2
		c0.6-0.4,1.4,0.1,1.4,0.8c0,0.8-0.5,1.3-1.2,1.4C74.6,15.4,73.5,15.5,73.5,15.4z"/>
	<path id="path50" class="st0" d="M85.5,18h-2.1c0.1,0,1.7-1.3,2.2-1.7c1.3-1.1,3.7-2.7,3-4.8v0c-0.1-0.5-0.5-0.8-0.5-0.8
		s-0.1,0.4-0.6,0.6c-0.2,0.1-0.4,0.1-0.6,0.1c-0.2,0-5.8,0-5.8,0c-0.8,0-1.4,0.6-1.4,1.3c0,0.7,0.6,1.3,1.4,1.3l3.3,0
		c-1.5,0.8-3.3,1.8-4.2,3.3c-0.5,0.9-1.1,2.2-0.9,3.2c0.7-0.6,2.6-1.3,4.1-1c0.5,0.1,1.1,0.4,1.6,0.7c2.7,1.7,4.3-1.6,3.1-3.1
		C87.9,17.3,87.2,18,85.5,18L85.5,18z"/>
	<path id="path52" class="st0" d="M24.6,20.1c-1.7-1.8-2.2-4.8-2.3-6.8c-0.1-1.7,0-4.7,1.4-5.6c-0.5-0.6-1.4-0.8-2.1-0.8
		c-1.5,0-2.3,1-2.8,1.8c-0.2,0.2-2.8,3.8-2.8,3.8s-2.2-3.4-2.5-3.8c-0.4-0.6-1.1-1.6-2.3-1.8c-0.5-0.1-1.9-0.1-2.6,0.9
		c1.3,1,1.2,3.6,1,5.4C8.8,18.5,6.5,19,6.5,19c1.2,3.1,4.2,1.9,5-0.6c0.5-1.6,0.9-3.7,1-5.4l3.3,5c0,0,3.7-5,3.7-5
		c-0.6,8.9,2.4,11.4,5.1,11.4c2.7,0,3.6-2.4,3.6-2.4C26.8,21.9,25.5,21.1,24.6,20.1L24.6,20.1z"/>
	<path id="path54" class="st0" d="M32.9,23.1c0,0.1,0,0.3,0.1,0.4c0,0,0,4.7,0,4.7c0,0.4,0.4,0.7,0.7,0.7c0.4,0,0.8-0.3,0.8-0.7
		c0-0.1,0-4.2,0-4.2c0-0.3,0-0.7-0.1-1c-0.2-0.4-0.6-0.6-1.1-0.6c-0.4,0-0.7,0.4-0.7,0.4S32.8,22.7,32.9,23.1L32.9,23.1z"/>
	<path id="path56" class="st0" d="M81.6,28c0-0.1-0.1-0.3-0.1-0.4c0,0,0-4.7,0-4.7c0-0.4-0.4-0.7-0.7-0.7c-0.4,0-0.8,0.3-0.8,0.7
		c0,0.1,0,4.2,0,4.2c0,0.3,0,0.7,0.1,1c0.2,0.4,0.6,0.6,1.1,0.6c0.5,0,0.7-0.4,0.7-0.4S81.7,28.3,81.6,28L81.6,28z"/>
	<path id="path58" class="st0" d="M53.8,24.6c-0.8,0-1.2,0.7-1.4,0.9h0c0-0.2,0-0.4,0-0.4c0-0.4-0.4-0.7-0.7-0.7
		c-0.4,0-0.8,0.3-0.8,0.7c0,0.1,0,3,0,3c0,0.4,0.4,0.7,0.7,0.7c0.4,0,0.8-0.3,0.8-0.7c0,0,0-1,0-1.8h0c0.1-0.3,0.2-0.6,0.5-0.6
		c0.3,0,0.4,0.4,0.4,0.4l0,2.1c0,0.4,0.4,0.7,0.7,0.7c0.4,0,0.8-0.3,0.8-0.7l0-1.1C54.8,25.9,54.9,24.6,53.8,24.6L53.8,24.6z"/>
	<path id="path60" class="st0" d="M73.5,24.6c-0.8,0-1.3,0.7-1.4,0.9h0c0-0.2,0-0.4,0-0.4c0-0.4-0.4-0.7-0.7-0.7
		c-0.4,0-0.8,0.3-0.8,0.7c0,0.1,0,3,0,3c0,0.4,0.4,0.7,0.7,0.7c0.4,0,0.8-0.3,0.8-0.7c0,0,0-1,0-1.8h0c0.1-0.3,0.2-0.6,0.5-0.6
		c0.3,0,0.4,0.4,0.4,0.4v2.1c0,0.4,0.4,0.7,0.7,0.7c0.4,0,0.8-0.3,0.8-0.7v-1.1C74.5,25.9,74.6,24.6,73.5,24.6L73.5,24.6z"/>
	<path id="path62" class="st0" d="M38.3,24.6c-0.8,0-1.3,0.7-1.4,0.9h0c0-0.2,0-0.4,0-0.4c0-0.4-0.4-0.7-0.7-0.7
		c-0.4,0-0.8,0.3-0.8,0.7c0,0.1,0,3,0,3c0,0.4,0.4,0.7,0.7,0.7c0.4,0,0.8-0.3,0.8-0.7c0,0,0-1,0-1.8h0c0.1-0.3,0.2-0.6,0.5-0.6
		c0.3,0,0.4,0.4,0.4,0.4l0,2.1c0,0.4,0.4,0.7,0.7,0.7c0.4,0,0.8-0.3,0.8-0.7l0-1.1C39.3,25.9,39.4,24.6,38.3,24.6L38.3,24.6z"/>
	<path id="path64" class="st0" d="M67.9,24.5c-1.2,0-2.2,1-2.2,2.2c0,1.2,1,2.2,2.2,2.2c1.2,0,2.2-1,2.2-2.2
		C70.1,25.4,69.1,24.5,67.9,24.5z M67.9,27.9L67.9,27.9L67.9,27.9L67.9,27.9L67.9,27.9c-0.4,0-0.6-0.5-0.6-1.2
		c0-0.8,0.3-1.2,0.6-1.2l0,0l0,0h0l0,0c0.4,0,0.6,0.5,0.6,1.2C68.5,27.4,68.3,27.9,67.9,27.9z"/>
	<path id="path66" class="st0" d="M59.7,25c0-0.4-0.4-0.7-0.8-0.8c-0.4,0-0.8,0.3-0.8,0.8c0,0,0,0.1,0,0.1c-0.2-0.3-0.6-0.7-1.3-0.7
		c-1.9,0-2,3.3-0.7,4.1c0.4,0.2,0.9,0.3,1.3,0.2c0.2-0.1,0.6-0.3,0.7-0.5c0.1,0.3,0.4,0.6,0.8,0.6c0.4,0,0.8-0.3,0.8-0.8
		C59.7,28,59.7,25.1,59.7,25L59.7,25z M57.4,27.7L57.4,27.7L57.4,27.7L57.4,27.7L57.4,27.7c-0.4,0-0.6-0.4-0.6-1.1
		c0-0.7,0.3-1.1,0.6-1.1l0,0c0,0,0,0,0,0c0,0,0,0,0,0l0,0c0.4,0,0.6,0.4,0.6,1.1C58,27.3,57.8,27.7,57.4,27.7L57.4,27.7z"/>
	<path id="path68" class="st0" d="M79.3,25c0-0.4-0.4-0.7-0.8-0.8c-0.4,0-0.8,0.3-0.8,0.8c0,0,0,0.1,0,0.1c-0.2-0.3-0.6-0.7-1.3-0.7
		c-1.9,0-2,3.3-0.7,4.1c0.4,0.2,0.9,0.3,1.3,0.2c0.2-0.1,0.6-0.3,0.7-0.5c0.1,0.3,0.4,0.6,0.8,0.6c0.4,0,0.8-0.3,0.8-0.8
		C79.3,28,79.3,25.1,79.3,25L79.3,25z M77,27.7L77,27.7L77,27.7L77,27.7L77,27.7c-0.4,0-0.6-0.4-0.6-1.1c0-0.7,0.3-1.1,0.6-1.1l0,0
		c0,0,0,0,0,0s0,0,0,0l0,0c0.4,0,0.6,0.4,0.6,1.1C77.6,27.3,77.4,27.7,77,27.7L77,27.7z"/>
	<path id="path70" class="st0" d="M65.2,25.5c0-0.4-0.3-0.7-0.7-0.7c0,0,0,0-0.1,0c-0.3,0-0.7,0.3-0.7,0.7v1.4l0,0
		c0,0.4,0,1.2,0,1.2c0,0.4,0.3,0.7,0.7,0.7c0,0,0,0,0.1,0c0.3,0,0.7-0.3,0.7-0.7V27l0,0C65.2,26.5,65.2,25.5,65.2,25.5L65.2,25.5z"
		/>
	<path id="path72" class="st0" d="M65.2,23.5c0,0.4-0.3,0.7-0.7,0.7c-0.4,0-0.7-0.3-0.7-0.7c0-0.4,0.3-0.7,0.7-0.7
		C64.8,22.8,65.2,23.1,65.2,23.5z"/>
	<path id="path74" class="st0" d="M49.6,24.5c-0.4,0-0.7,0.4-1,0.8c0,0,0-0.2,0-0.2c0-0.4-0.4-0.7-0.7-0.7c-0.4,0-0.8,0.3-0.8,0.7
		v1.1v1.9h0c0,0.4,0.4,0.7,0.7,0.7c0.4,0,0.8-0.3,0.8-0.7h0l0-1.9c0-0.3,0.1-0.6,0.4-0.6c0.3,0,0,0.8,0.7,0.8
		C50.7,26.4,50.8,24.5,49.6,24.5L49.6,24.5z"/>
	<path id="path76" class="st0" d="M46.5,27.4c0,0-0.2,0.3-1.2,0.3c-0.9,0-1.1-0.7-1.1-0.7c1.4,0,2.5-0.1,2.5-1.2
		c0-1.1-1.2-1.4-2-1.4c-1.2,0-2.1,0.9-2.1,2.2c0,1.4,1.2,2.1,2.1,2.1C46.4,28.8,46.5,27.4,46.5,27.4L46.5,27.4z M44.1,26.4
		c0-0.3,0.1-0.8,0.4-1c0.3-0.2,0.6,0,0.6,0.3c0,0.3-0.2,0.6-0.5,0.6C44.6,26.4,44.1,26.4,44.1,26.4L44.1,26.4z"/>
	<path id="path78" class="st0" d="M42.6,28c0,0-0.4,0.8-1.1,0.8c-0.6,0-1.4-0.5-1.4-1.3c0,0,0-1.1,0-2.1h-0.2
		c-0.1,0-0.3-0.1-0.3-0.3s0.2-0.3,0.3-0.3h0.2c0-0.3,0-0.6,0-0.6c0-0.4,0.4-0.7,0.8-0.7c0.4,0,0.7,0.3,0.7,0.7l0,0v0.6h0.7
		c0.1,0,0.3,0.1,0.3,0.3c0,0.3-0.2,0.3-0.3,0.3h-0.6v1.7C41.6,27.7,42.1,28,42.6,28L42.6,28z"/>
	<path id="path80" class="st0" d="M63.2,28c0,0-0.4,0.8-1.1,0.8c-0.6,0-1.4-0.5-1.4-1.3c0,0,0-1.1,0-2.1h-0.2
		c-0.1,0-0.3-0.1-0.3-0.3s0.2-0.3,0.3-0.3h0.2c0-0.3,0-0.6,0-0.6c0-0.4,0.4-0.7,0.8-0.7c0.4,0,0.7,0.3,0.7,0.7l0,0v0.6h0.7
		c0.1,0,0.3,0.1,0.3,0.3c0,0.3-0.2,0.3-0.3,0.3h-0.6v1.7C62.2,27.7,62.7,28,63.2,28L63.2,28z"/>
</g>
</svg>
