<?xml version="1.0" encoding="utf-8"?>
<!-- Generator: Adobe Illustrator 26.0.1, SVG Export Plug-In . SVG Version: 6.00 Build 0)  -->
<svg version="1.1" id="Layer_1" xmlns="http://www.w3.org/2000/svg" xmlns:xlink="http://www.w3.org/1999/xlink" x="0px" y="0px"
	 viewBox="0 0 95 35" style="enable-background:new 0 0 95 35;" xml:space="preserve">
<style type="text/css">
	.st0{fill:#FFFFFF;}
</style>
<g>
	<path class="st0" d="M84.2,19.6h-0.8c-0.2,0-0.5-0.2-0.5-0.6v-2.7c0-1.5-1.3-2.4-2.4-2.4c-0.9,0-1.7,0.5-2.2,1.7v-1.5h-3v7.7h3
		v-4.4c0-0.5,0.1-1.1,0.7-1.1c0.6,0,0.7,0.6,0.7,1.1v2c0,1.1,1,2.3,2.4,2.3h5.3v-7.7h-3.2V19.6"/>
	<path class="st0" d="M31.3,11.9l-1.2,4.9l-1.2-4.9h-4.1l-1.5,9.9h3.3l0.8-5.7l1.4,5.7h2.6l1.4-5.7l0.8,5.7h3.3l-0.4-2.5
		c0.5,1.6,1.7,2.7,4.1,2.7c2.4,0,3.4-0.7,3.4-0.7v-1.9c0,0-0.9,0.7-2.6,0.7c-1.7,0-2-0.7-2-1.4h5c0.3,2.3,1.7,3.3,3,3.3
		c2,0,2.4-2,2.4-2c0,0.6,1,2.1,2.8,2.1c1.9,0,3.2-0.9,3.2-0.9s0.5,0.8,2,0.8c1.1,0,2.2-0.4,2.2-0.4v-1.9c0,0-0.3,0-0.6,0
		c-0.5,0-1.1-0.3-1.1-1.1v-2.5h1.6v-2.1h-1.6v-3H55v3h-1.3v2.1H55v2.6c0,0.4-0.3,1.1-1.1,1.1c-0.6,0-1-0.4-1-1.1v-7.6h-3.2v4
		c0,0-0.7-1.3-2.3-1.3c-0.6,0-2.7,0.4-3,3.3c0,0,0,0,0,0.1c0,0,0,0,0-0.1c-0.4-2.1-1.6-3.3-3.9-3.3c-2.9,0-4.2,2.1-4.2,3.8
		c0,0.1,0,0.2,0,0.3l-0.9-6.1L31.3,11.9 M39.4,17.5c0.1-1.2,0.7-1.5,1.1-1.5c0.5,0,1,0.3,1.1,1.5H39.4z M48.4,19.7
		c-0.5,0-1-0.2-1-1.8c0-1.6,0.6-1.8,1-1.8c0.5,0,1,0.2,1,1.8C49.4,19.5,48.8,19.7,48.4,19.7"/>
	<path class="st0" d="M70.3,13.9c-1.6,0-3.1,0.6-3.8,1.8v-1.6c0,0-0.2,0-0.5,0c-1.2,0-2,1.1-2.4,2v-2h-3v7.7h3v-3.1
		c0-0.3,0.7-1.9,2.1-1.9c0.1,0,0.2,0,0.3,0c0,0.3-0.1,0.5-0.1,0.8v0.3c0,2.7,2.1,3.9,4.4,3.9c2.3,0,4.4-1.2,4.4-3.9v-0.3
		C74.7,15.2,72.6,13.9,70.3,13.9 M70.3,19.7c-0.5,0-1-0.2-1-1.8c0-1.6,0.6-1.8,1-1.8s1,0.2,1,1.8C71.3,19.5,70.7,19.7,70.3,19.7"/>
	<path class="st0" d="M93.4,16.1c0.6,0,1.6,0.4,1.6,0.4v-2.2c0,0-0.8-0.4-2.5-0.4c-4,0-4.7,2.4-4.7,4s0.7,4.1,4.7,4.1
		c1.7,0,2.5-0.4,2.5-0.4v-2.3c0,0-0.6,0.4-1.5,0.4c-0.9,0-1.8-0.4-1.8-1.8C91.6,16.5,92.7,16.1,93.4,16.1"/>
	<rect x="84.2" y="11.2" class="st0" width="3.2" height="2.2"/>
	<path class="st0" d="M20.6,16.7c0-0.5,0-0.8-0.1-1c0-0.2-0.1-0.7-0.6-0.7c-0.5,0-0.6,0.5-0.6,0.7c0,0.2,0,0.2-0.2,0.5
		c0,0.1-0.1,0.2-0.2,0.3c-0.4-4.4-3.7-8-7.9-8.4c0,0,0-0.1,0-0.1c0-0.1-0.2-0.7-1.2-0.7c-0.7,0-1.1,0.4-1.1,1C7.3,8.3,6.1,8.9,5,9.7
		c0,0,0,0,0,0C4.8,9.6,4.4,9.3,4,9.3S3.1,9.6,2.8,9.9c-0.5,0.5-0.8,1.4,0,2.2c-0.7,1.1-1.1,2.3-1.3,3.5C0.3,15.8,0,16.8,0,17.4
		c0,1.1,0.6,1.6,1.4,1.7C2.2,23,5.3,26,9.1,26.5c0,0,0,0.1,0,0.1c0,0.4-0.1,0.7-0.1,0.9c0,0.1,0,0.3,0.3,0.3c0.2,0,0.3,0,0.4,0
		c0.3,0,0.5,0.1,0.9,0.1c0.2,0,0.8,0,1.1-0.1c0.1,0,0.2-0.2,0-0.3c0,0-0.4-0.1-0.5-0.1c-0.1,0-0.5-0.3-0.7-0.4
		c-0.2-0.1-0.4-0.2-0.5-0.4h0.1c1.6,0,3.1-0.5,4.4-1.2c0.1,0.3,0,0.3,0.1,0.6c0.2,0.5,0.5,0.6,0.9,0.4c0.2-0.1,0.4-0.2,0.5-0.3
		c0.1,0,0.4,0,0.8-0.2c0.4-0.2,0.7-0.3,0.9-0.4c0.2-0.1,0.6-0.3,0.4-0.8c-0.2-0.5-0.6-0.4-0.8-0.4c-0.4,0-0.3,0-1-0.1
		c-0.1,0-0.2-0.1-0.3-0.1c1.4-1.4,2.4-3.2,2.7-5.2c0.1,0,0.1,0,0.2,0c0.3,0,0.6,0.2,0.8,0.2c0.5,0,0.7-0.4,0.7-0.8
		c0-0.2-0.1-0.4-0.1-0.5C20.5,17.4,20.6,17.2,20.6,16.7 M8.8,8.6c0.1,0.3,0.3,0.5,0.3,1c0,0.6-0.7,1.2-0.7,2.2c0,0.4,0,0.8,0.1,1.1
		c-0.8-0.6-0.7-0.8-2.5-1.1L6,11.7c0,0,0.2-0.1,0.2-0.5c0-0.3-0.3-0.6-0.3-0.6c0-0.1,0-0.3-0.3-0.6C6.5,9.3,7.6,8.8,8.8,8.6
		 M3.2,10.3c0.6-0.7,1.1-0.4,1.6,0c0.2,0.2,0.4,0.1,0.5,0.2c0.1,0.1-0.1,0.1,0.1,0.3c0.1,0.1,0.3,0.3,0.2,0.5
		c-0.1,0.1-0.7,0.4-0.7,0.4c-0.1,0-0.1,0.2-0.1,0.3c0,0.1,0.1,0.1,0.2,0.1c0.4-0.1,0.4-0.2,0.4-0.2c0.2,0.3,0.2,0.5,0.5,0.5
		c0.8,0.2,1.3,0,1.9,0.7c0.2,0.2,0.5,0.4,0.8,0.6c0.2,0.6,0.4,1.1,0.4,1.4c0,0.1,0,0.2,0,0.3c-0.2-0.1-0.3-0.3-0.4-0.4
		c-0.1-0.1-0.1-0.1-0.2-0.2c-0.1-0.1-0.2-0.1-0.4-0.3c-0.1-0.1-0.3-0.2-0.4-0.3c0-0.1-0.1-0.1-0.2-0.2c-0.3-0.4-0.8-0.9-1.3-0.9
		c-0.3,0-0.5,0.1-0.6,0.1c-0.1,0.1-0.2,0.3-0.1,0.4c0.1,0.1,0.2,0.2,0.4,0.1c0,0,0.1-0.1,0.3-0.1c0.3,0,0.6,0.5,0.9,0.7
		c0.1,0.1,0.2,0.2,0.2,0.3c0.1,0.1,0.3,0.2,0.5,0.4c0.1,0.1,0.2,0.1,0.3,0.2c0.1,0.1,0.1,0.1,0.2,0.2c0.2,0.2,0.3,0.3,0.7,0.6
		c0,0,0,0,0,0c-0.1,0.4-0.3,0.5-0.4,1l0,0c-0.5-0.4-0.5-0.6-0.9-0.9C7.5,16,7.3,16,6.8,15.7L6,15.2c-1.8-1.4-1-1.8-1.7-2.7
		c-0.3-0.4-0.6-0.2-1.1-0.6C2.7,11.4,2.7,10.8,3.2,10.3 M3.2,12.5c0.3,0.1,0.6,0.2,0.8,0.4c0.4,0.5,0,1.3,1.7,2.7
		c-0.7,0-1.1,0.3-2,0.9l-0.2,0c-0.1-0.6-0.4-0.6-0.8-0.7c-0.1-0.1-0.2-0.2-0.4-0.2c-0.1,0-0.2,0-0.3,0.1C2.2,14.4,2.6,13.4,3.2,12.5
		 M0.6,17.4c0-0.9,0.5-1.1,1.1-1.1c0.3,0,0.3-0.2,0.5-0.2c0.1,0,0,0.2,0.3,0.2c0.2,0,0.4,0,0.4,0.2c0,0.2-0.1,0.3-0.1,0.4
		C2.8,17,3,17,3.2,17c0.3,0,0.2,0.1,0.4,0.1c0.6,0,0.9-0.9,2.1-1c0.2,0,0.7-0.1,0.7-0.1c0.5,0.3,0.7,0.3,0.9,0.4
		c0.5,0.4,0.4,0.6,1.3,1.2c0.1,0.5,0.4,0.6,0.5,0.8c-0.6,0-1-0.1-1.2-0.1c-0.5,0-1.5,0.6-3,0.6c-1.3,0-1.4-0.8-2.2-0.8
		c-0.7,0-0.6,0.3-1.3,0.3C0.9,18.5,0.6,18.1,0.6,17.4 M8.7,23.8c0,0.4,0.2,1.4,0.3,2.1c-3.5-0.5-6.3-3.3-7-6.9
		c0.3-0.1,0.5-0.3,0.8-0.3c0.4,0,0.9,0.8,2.2,0.8c1.5,0,2.5-0.6,3-0.6c0.2,0,0.6,0.1,1.3,0.1c0,0.2,0,0.6,0,0.8c0,0.8,0.1,1,0.1,1.2
		C9.2,22.6,8.7,22.8,8.7,23.8 M9.9,9.5c0-0.1,0.1-0.1,0.2,0s0.5,0.3,0.8,0.3s0.2-0.2,0.2-0.3c0,0,0-0.1,0.1-0.3c0,0,0-0.1,0-0.2
		c0-0.1,0.2,0,0.1-0.1c0-0.1-0.1-0.2-0.2-0.4c4,0.5,7.1,4,7.3,8.3c0,0,0,0-0.1,0c-0.4,0-0.4,0-1.3-0.1c-1.3-0.2-0.6,0.1-1.7-0.2
		c-0.5-0.1-0.5-0.2-0.7-0.3c-0.2-0.1-0.4,0-0.5-0.1c-1.3-0.5-1.5-0.6-2.7-0.7c0-0.2,0-0.5,0-0.9c0-0.5-0.1-1-0.1-1.4
		c0-0.4,0-0.7-0.1-1c-0.3-1.2-0.9-1.3-0.9-1.7c0-0.2,0.1,0,0.1-0.5C10.3,9.9,10,9.8,9.9,9.7C9.9,9.6,9.8,9.6,9.9,9.5 M9.5,19.1
		c-0.1-0.3,0-0.7,0-0.7c0-0.1,0.1-0.1,0.2-0.1s0.1,0.1,0.1,0.2c0,0,0,0.3,0,0.6c0.1,0.3,0.3,0.6,0.3,0.7c0.1,0.1,0.3,0.1,0.3,0.1
		c0-0.1-0.1-0.5-0.1-0.6c-0.1-0.4-0.2-0.6,0-0.7c0,0,0.1-0.1,0.2,0c-0.1-0.2-0.2-0.3-0.4-0.6c-0.1-0.1-0.1-0.3-0.1-0.8
		c0-0.3,0-0.5,0-0.7c0-0.3,0-0.5,0-0.6c0-0.4,0-0.5,0-0.7c0-0.2-0.1-0.3-0.1-0.8c0-0.5,0-0.7,0-0.9c0-0.1,0-0.1,0-0.2
		c0-0.2,0-0.4,0-0.6c0-0.2,0-0.3,0-0.5c0-0.5-0.1-0.6-0.4-0.8h0c-0.1,0-0.1-0.1,0-0.2c0-0.1,0.1-0.1,0.2,0h0c0.4,0.3,0.5,0.4,0.5,1
		c0,0.2,0,0.4,0,0.6c0,0.2,0,0.3,0,0.5c0,0,0,0.1,0,0.2c0,0.2,0,0.4,0,0.9s0,0.6,0,0.8c0,0.1,0,0.3,0,0.7c0,0.2,0,0.4,0,0.7
		c0,0.2,0,0.5,0,0.7c0,0.4,0,0.5,0,0.6c0.4,0.4,0.5,0.6,0.6,0.9c0,0.1,0.1,0.1,0.1,0.2c0,0.1,0,0.1,0,0.2c0,0-0.1,0-0.2,0
		c0,0-0.1-0.1-0.2-0.1c0,0.1,0,0.1,0.1,0.2c0.1,0.5,0.2,0.8,0.1,0.9c0,0.1-0.1,0.1-0.2,0.1c-0.1,0-0.4,0-0.6-0.2
		C9.8,19.7,9.6,19.2,9.5,19.1 M10.1,26c-0.1,0-0.1,0-0.2,0c0-0.9,0.2-1.6,0.2-2.2c0-1,0.5-1.8,0.5-2c0-0.4,0.3-1.3,0.6-2
		c0.4,0.3,0.8,0.5,1.3,0.8c0.6,0.2,0,0.5,0.6,2.1c0.3,0.8,1,1.4,1.3,2.2C13.2,25.5,11.7,26,10.1,26 M16.4,24.7
		c0.7,0.1,0.6,0.1,1.2,0.1c0.1,0,0.1,0.1,0,0.1c-1.6,0.8-1.3,0.5-1.8,0.6c-0.3,0.1-0.4,0.3-0.6,0.3c-0.3,0,0-0.4-0.4-1.3
		c-0.3-0.8-1-1.4-1.3-2.2c-0.5-1.4,0-1.9-0.8-2.3c-0.5-0.3-1-0.5-1.5-0.9c0-0.1,0-0.2,0-0.2c0-0.6-0.1-1.7-0.1-2.1c0,0,0,0,0,0
		c2.1,1.3,1.5,1.1,2.6,2.3c0.1,0.1,0.7,0.5,0.7,1.5c0,0.4,0,0.6,0.2,1.3c0.2,0.7,0.4,1.6,0.6,2C15.6,24.2,15.8,24.6,16.4,24.7
		 M15.9,23.5c-0.2-0.4-0.4-1.2-0.6-1.8c-0.2-0.7-0.2-0.9-0.2-1.3c0-0.8-0.5-1.4-0.8-1.7c0.6,0,1.1,0.5,2,0.5c0.4,0,1.3-0.2,2-0.3
		C18,20.7,17.1,22.3,15.9,23.5 M20,18.3c-0.1,0.2-0.5-0.1-1-0.1c-0.3,0-2.2,0.4-2.7,0.4c-0.9,0-1.2-0.5-2.5-0.5
		c-1-1.2-1.6-1.4-2.4-1.9l0-0.2c1.2,0.1,1.4,0.2,2.6,0.6c0.1,0,0.3,0,0.5,0.1c0.2,0.1,0.2,0.1,0.7,0.3c1,0.3,0.4,0,1.7,0.2
		c0.9,0.1,0.9,0.1,1.3,0.1c0.6,0,0.9,0,1.2-0.6c0.3-0.6,0.3-0.5,0.5-1.2c0-0.1,0.1-0.1,0.1,0c0.1,1.9,0,1.5,0,2
		C20,17.9,20.1,18.1,20,18.3"/>
</g>
</svg>
