<?xml version="1.0" encoding="utf-8"?>
<!-- Generator: Adobe Illustrator 26.0.1, SVG Export Plug-In . SVG Version: 6.00 Build 0)  -->
<svg version="1.1" id="Layer_1" xmlns="http://www.w3.org/2000/svg" xmlns:xlink="http://www.w3.org/1999/xlink" x="0px" y="0px"
	 viewBox="0 0 95 35" style="enable-background:new 0 0 95 35;" xml:space="preserve">
<style type="text/css">
	.st0{fill:#FFFFFF;}
</style>
<path class="st0" d="M36.2,21.4l-0.6-7h0L33.5,20c-0.2,0.5-0.6,0.9-1.3,0.9c-0.6,0-1.1-0.5-1.3-0.9l-2.1-5.5h0l-0.6,6.9l-2.1,0
	l1-9.8c0.1-0.5,0.5-1.2,1.1-1.2c0.9,0,1.3,0.5,1.5,1.1l2.4,6h0l2.4-6c0.2-0.5,0.6-1.1,1.5-1.1c0.6,0,1,0.6,1.1,1.3l1,9.7L36.2,21.4z
	 M39.3,13.1h1.9v8.3h-1.9V13.1z M84.5,13.1h1.9v8.3h-1.9V13.1z M42.3,16c0-2.4,0.9-3,2.5-3h2c2.5,0,2.8-0.2,2.8,2.2l-4.5,0
	c-0.9,0-1.1,0.6-1.1,1.6v0.9c0,1.2,0.2,1.7,1,1.7l4.6,0c0,1.4,0,2.1-1.8,2.1h-3.1c-1.6,0-2.5-0.6-2.5-3V16z M58,16.1v-0.5
	c0-1.5-0.4-2.5-1.7-2.5h-5.6v8.3h1.7v-2.2h3c0.5,0,0.7,0.3,0.7,1.2v1H58V20c0-1.4-0.4-1.7-0.9-1.8v0C57.8,17.9,58,17.2,58,16.1
	 M56.3,16.3c0,0.6-0.2,0.9-0.6,0.9h-3.2v-2h3c0.5,0,0.8,0.1,0.8,0.9V16.3z M59,16c0-2.4,0.9-3,2.5-3h2.8c1.6,0,2.5,0.6,2.5,3v2.5
	c0,2.4-0.9,3-2.5,3h-2.8c-1.6,0-2.5-0.6-2.5-3V16 M60.8,17.7c0,1.2,0.2,1.7,1,1.7H64c0.8,0,1-0.5,1-1.7v-0.9c0-1-0.2-1.7-1.1-1.7h-2
	c-0.9,0-1.1,0.6-1.1,1.7L60.8,17.7z M76.2,13.1h1.7v3h3.7v-3h1.7v8.3h-1.7v-3.1h-3.7v3.1h-1.7V13.1z M93,13.1h-5.4v8.3h1.7v-2.1h4.1
	c1.2,0,1.6-1.4,1.6-2.7V16C95,14.3,94.6,13.1,93,13.1 M93.2,16.4c0,0.5-0.2,0.9-0.6,0.9h-3.3v-2.1h3.2c0.5,0,0.7,0.3,0.7,0.9
	L93.2,16.4z M67.8,16c0-2.4,0.9-3,2.5-3h2c2.5,0,2.8-0.2,2.8,2.2l-4.5,0c-0.9,0-1.1,0.6-1.1,1.6v0.9c0,1.2,0.2,1.7,1,1.7l4.6,0
	c0,1.4,0,2.1-1.8,2.1h-3.1c-1.6,0-2.5-0.6-2.5-3L67.8,16z"/>
<path class="st0" d="M14.9,7.1c-1.1-0.3-2.2-0.5-3.4-0.5C5.2,6.6,0,11.5,0,17.5c0,6,5.2,10.9,11.5,10.9c5.9,0,10.7-4.1,11.4-9.4
	L14.9,7.1z"/>
<path class="st0" d="M16.4,7.6c-1.5-0.7-2.9-1-4.6-1.1C5.4,6.4,0.1,11.3,0,17.3c0,1,0.1,2.1,0.4,3l3.3-4.6l2.2,3.5
	c0,0,0.7,0.8,0.2,1.5c0,0-3,4.2-3,4.2c2.1,2.2,5,3.5,8.3,3.5c3.2,0.1,6.1-1.1,8.2-3.1l-7-11.1c0,0,1.1-1.6,2-2.8
	c1-1.4,1.8-0.4,2.1,0c2.1,3.2,5.9,9.3,5.9,9.3l0,0c0.4-0.9,0.6-1.2,0.6-2.5L16.4,7.6 M14.7,20.9c0,0-1.9,2.7-2.1,3
	c-1.1,1.6-2-0.2-2-0.2l-5.9-9.3c0,0,1.1-1.6,2-2.8c1-1.4,1.8-0.4,2.1,0C10.9,14.8,14.7,20.9,14.7,20.9"/>
<path class="st0" d="M18.2,8.2c0-0.5,0.4-0.9,0.9-0.9c0.5,0,0.9,0.4,0.9,0.9c0,0.5-0.4,0.9-0.9,0.9C18.6,9.1,18.2,8.7,18.2,8.2
	 M19.1,9c0.4,0,0.7-0.3,0.7-0.7c0-0.4-0.3-0.7-0.7-0.7c-0.4,0-0.7,0.3-0.7,0.7C18.4,8.7,18.7,9,19.1,9 M18.9,8.7h-0.2v-1h0.4
	c0.2,0,0.4,0.1,0.4,0.3c0,0.2-0.1,0.3-0.3,0.3l0.3,0.5h-0.2l-0.3-0.4h-0.2L18.9,8.7 M19.1,8.2c0.1,0,0.2,0,0.2-0.2
	c0-0.1-0.1-0.2-0.2-0.2h-0.2v0.3H19.1z"/>
</svg>
