<?xml version="1.0" encoding="utf-8"?>
<!-- Generator: Adobe Illustrator 26.0.1, SVG Export Plug-In . SVG Version: 6.00 Build 0)  -->
<svg version="1.1" id="Layer_1" xmlns="http://www.w3.org/2000/svg" xmlns:xlink="http://www.w3.org/1999/xlink" x="0px" y="0px"
	 viewBox="0 0 95 35" style="enable-background:new 0 0 95 35;" xml:space="preserve">
<style type="text/css">
	.st0{fill:#FFFFFF;}
</style>
<g>
	<g>
		<g>
			<path class="st0" d="M43.2,18.3v4.6h0.7v-1.7c0,0,0.5,0,0.8,0c1.4,0,1.8-0.8,1.8-1.5c0-0.7-0.5-1.4-1.6-1.4H43.2z M44.8,18.9
				c0.7,0,1,0.4,1,0.8c0,0.4-0.3,0.8-1.2,0.8c-0.3,0-0.7,0-0.7,0v-1.7H44.8z"/>
			<path class="st0" d="M30.1,22c-0.1,0.1-0.5,0.4-1.2,0.4c-1,0-1.7-0.7-1.7-1.8c0-0.9,0.6-1.7,1.7-1.7c0.7,0,1.1,0.3,1.2,0.4
				l0.4-0.6c-0.1-0.1-0.7-0.5-1.6-0.5c-1.4,0-2.6,0.9-2.6,2.4c0,1.4,1.1,2.4,2.6,2.4c0.8,0,1.4-0.4,1.6-0.5L30.1,22z"/>
			<path class="st0" d="M48.3,18.3l-1.9,4.6h0.8l0.5-1.3h1.9l0.5,1.3h0.8l-1.8-4.6H48.3z M48.7,19.1l0.7,1.9h-1.5L48.7,19.1
				L48.7,19.1z"/>
			<path class="st0" d="M58.9,18.3v4.6h3v-0.6h-2.2v-1.5h1.9v-0.6h-1.9v-1.3h2.2v-0.6H58.9z"/>
			<path class="st0" d="M54.9,21.8l-2.3-3.5h-1v4.6h0.7v-3.7h0l2.5,3.7h0.9v-4.6h-0.7L54.9,21.8L54.9,21.8z"/>
			<path class="st0" d="M56.9,18.3v4.6h0.7v-1.2v-3.4H56.9z"/>
			<path class="st0" d="M33.5,18.2c-1.5,0-2.5,1-2.5,2.4c0,1.4,1.1,2.4,2.5,2.4c1.5,0,2.5-1,2.5-2.4C36,19.2,35,18.2,33.5,18.2z
				 M33.5,22.4c-1,0-1.7-0.8-1.7-1.8c0-1,0.8-1.8,1.7-1.8c1,0,1.7,0.8,1.7,1.8C35.2,21.6,34.4,22.4,33.5,22.4z"/>
			<path class="st0" d="M39.4,21.9l-1.5-3.6h-1.1v4.6h0.7v-3.6h0l1.4,3.6h0.6l1.5-3.6h0v3.6h0.7v-4.6h-1L39.4,21.9L39.4,21.9z"/>
			<path class="st0" d="M62.5,22.5c0.2,0.1,0.8,0.5,1.7,0.5c1,0,1.7-0.5,1.7-1.3c0-0.8-0.8-1.2-1.4-1.5c-0.5-0.2-1-0.4-1-0.8
				c0-0.4,0.3-0.6,0.8-0.6c0.7,0,1.1,0.3,1.2,0.4l0.3-0.6c-0.2-0.1-0.7-0.4-1.5-0.4c-1,0-1.6,0.5-1.6,1.2c0,0.8,0.8,1.1,1.4,1.4
				c0.6,0.3,1,0.5,1,0.9c0,0.4-0.4,0.7-0.9,0.7c-0.7,0-1.2-0.4-1.3-0.5L62.5,22.5z"/>
		</g>
		<g>
			<path class="st0" d="M65.8,16.2c-0.8,0-1.3-0.6-1.3-1.3c0-0.7,0.5-1.3,1.3-1.3c0.6,0,0.8,0.2,1,0.4l0.3-0.6
				c-0.1-0.1-0.6-0.4-1.3-0.4c-1.3,0-2.1,0.9-2.1,2c0,1.1,0.8,2,2.1,2c0,0,0,0,0,0c0.7,0,1.2-0.3,1.3-0.4l-0.3-0.6
				C66.7,15.9,66.4,16.2,65.8,16.2z"/>
			<path class="st0" d="M39.7,14.7c0.8-0.1,1.3-0.6,1.3-1.4c0-0.5-0.3-1.3-1.5-1.3h-1.9v4.6h0.7c0,0,0-4,0-4c0.1,0,1,0,1,0
				c0.7,0,1,0.3,1,0.8c0,0.4-0.3,0.8-1.1,0.8h-0.8l1.9,2.5h0.9L39.7,14.7z"/>
			<g>
				<path class="st0" d="M55.4,15.8c0.3-0.4,0.5-0.9,0.5-1.4l-0.7,0c0,0.3-0.1,0.6-0.3,0.9c0,0-1.1-1.2-1.5-1.6
					c-0.2-0.2-0.3-0.4-0.3-0.6c0-0.2,0.2-0.5,0.6-0.5c0.5,0,0.9,0.3,1,0.4l0.3-0.6c-0.2-0.1-0.6-0.4-1.4-0.4c-1,0-1.3,0.6-1.3,1.1
					c0,0.4,0.3,0.8,0.6,1.1c-0.6,0.3-1.1,0.7-1.1,1.3c0,0.6,0.4,1.3,1.6,1.3c0.6,0,1-0.2,1.4-0.5l0.4,0.4h0.9L55.4,15.8z M53.5,16.2
					c-0.5,0-0.9-0.3-0.9-0.7c0-0.5,0.4-0.7,0.8-0.8l1.1,1.2C54.2,16,53.9,16.2,53.5,16.2z"/>
			</g>
			<path class="st0" d="M34.2,12.1l-1.9,4.6h0.8l0.5-1.3h1.9l0.5,1.3h0.8L35,12.1H34.2z M34.6,12.9l0.7,1.9h-1.5L34.6,12.9
				L34.6,12.9z"/>
			<path class="st0" d="M87.5,12.1l-1.9,4.6h0.8l0.5-1.3h1.9l0.5,1.3h0.8l-1.8-4.6H87.5z M87.9,12.9l0.7,1.9h-1.5L87.9,12.9
				L87.9,12.9z"/>
			<path class="st0" d="M71.6,12.1v4.6h3v-0.6h-2.2v-1.5h1.9V14h-1.9v-1.3h2.2v-0.6H71.6z"/>
			<path class="st0" d="M78.9,15.6l-2.3-3.5h-1v4.6h0.7V13h0l2.5,3.7h0.9v-4.6h-0.7L78.9,15.6L78.9,15.6z"/>
			<path class="st0" d="M84.2,15.6l-2.3-3.5h-1v4.6h0.7V13h0l2.5,3.7h0.9v-4.6h-0.7L84.2,15.6L84.2,15.6z"/>
			<path class="st0" d="M94.2,15.6l-2.3-3.5h-1v4.6h0.7V13h0l2.5,3.7H95v-4.6h-0.7L94.2,15.6L94.2,15.6z"/>
			<path class="st0" d="M68,12.1v4.6h2.8v-0.6h-2v-4H68z"/>
			<path class="st0" d="M29.1,15.7l-1.5-3.6h-1.1v4.6h0.7v-3.6h0l1.4,3.6h0.6l1.5-3.6h0v3.6h0.7v-4.6h-1L29.1,15.7L29.1,15.7z"/>
			<path class="st0" d="M60.4,15.7l-1.5-3.6h-1.1v4.6h0.7v-3.6h0l1.4,3.6h0.6l1.5-3.6h0v3.6h0.7v-4.6h-1L60.4,15.7L60.4,15.7z"/>
			<path class="st0" d="M41.7,16.2c0.2,0.1,0.8,0.5,1.7,0.5c1,0,1.7-0.5,1.7-1.3c0-0.8-0.8-1.2-1.4-1.5c-0.5-0.2-1-0.4-1-0.8
				c0-0.4,0.3-0.6,0.8-0.6c0.7,0,1.1,0.3,1.2,0.4l0.3-0.6c-0.2-0.1-0.7-0.4-1.5-0.4c-1,0-1.6,0.5-1.6,1.2c0,0.8,0.8,1.1,1.4,1.4
				c0.6,0.3,1,0.5,1,0.9c0,0.4-0.4,0.7-0.9,0.7c-0.7,0-1.2-0.4-1.3-0.5L41.7,16.2z"/>
			<path class="st0" d="M49.2,12.1V14h-2.4v-1.9H46v4.6h0.7v-2.1h2.4v2.1h0.7v-4.6H49.2z"/>
		</g>
	</g>
	<g>
		<polygon class="st0" points="17.1,24.1 11.4,20.8 17.1,17.5 		"/>
		<polygon class="st0" points="5.7,24.1 0,20.8 5.7,17.5 		"/>
		<polygon class="st0" points="11.4,20.8 17.1,17.5 17.1,10.9 5.7,17.5 		"/>
		<polygon class="st0" points="22.8,20.8 17.1,17.5 22.8,14.2 		"/>
		<polygon class="st0" points="17.1,24.1 22.8,20.8 17.1,17.5 		"/>
		<polygon class="st0" points="5.7,10.9 0,14.2 0,20.8 5.7,17.5 		"/>
		<polygon class="st0" points="5.7,17.5 11.4,14.2 5.7,10.9 		"/>
		<polygon class="st0" points="5.7,24.1 11.4,20.8 5.7,17.5 		"/>
		<polygon class="st0" points="17.1,17.5 22.8,14.2 17.1,10.9 		"/>
	</g>
</g>
</svg>
