<?xml version="1.0" encoding="utf-8"?>
<!-- Generator: Adobe Illustrator 26.0.1, SVG Export Plug-In . SVG Version: 6.00 Build 0)  -->
<svg version="1.1" id="Layer_1" xmlns="http://www.w3.org/2000/svg" xmlns:xlink="http://www.w3.org/1999/xlink" x="0px" y="0px"
	 viewBox="0 0 95 35" style="enable-background:new 0 0 95 35;" xml:space="preserve">
<style type="text/css">
	.st0{fill:#343741;}
</style>
<g transform="matrix(7.56192 0 0 -7.56192 -275.54 1002.625)">
	<path class="st0" d="M45.3,132.5l-0.6-2.6l-0.6,2.6h-1.8v-1c-0.2,0.8-1,1-1.8,1.1c-0.9,0-1.9-0.4-1.9-1.6h1.2
		c0,0.4,0.3,0.6,0.6,0.6c0.4,0,0.6-0.2,0.6-0.4c0-0.2-0.1-0.4-0.6-0.4h-0.4v-0.9h0.4c0.2,0,0.5-0.1,0.5-0.4c0-0.4-0.2-0.5-0.6-0.5
		c-0.6,0-0.7,0.4-0.7,0.8h-1.3c0-0.2,0-1.9,2-1.9c1,0,1.7,0.4,1.9,1v-0.9h1.2v2.8l0.7-2.8h1.1l0.7,2.8v-2.8h1.3v4.4H45.3z
		 M42.2,129.9c-0.2,0.3-0.4,0.5-0.5,0.5c0.3,0.1,0.4,0.3,0.5,0.6V129.9z"/>
</g>
</svg>
