<?xml version="1.0" encoding="utf-8"?>
<!-- Generator: Adobe Illustrator 26.0.1, SVG Export Plug-In . SVG Version: 6.00 Build 0)  -->
<svg version="1.1" id="Layer_1" xmlns="http://www.w3.org/2000/svg" xmlns:xlink="http://www.w3.org/1999/xlink" x="0px" y="0px"
	 viewBox="0 0 95 35" style="enable-background:new 0 0 95 35;" xml:space="preserve">
<style type="text/css">
	.st0{fill:#CCCCCC;}
</style>
<g id="XMLID_2_">
	<path id="XMLID_3_" class="st0" d="M51.2,22.1h-3.6l1.8-5h0.1L51.2,22.1z M43.6,28h3.5v-1.1h-1.2l1.2-3.6h4.6l1.3,3.6h-1.3V28h4.8
		v-1.1h-1.2L50.5,14h-1.2l-4.5,12.9h-1.2V28z"/>
	<path id="XMLID_4_" class="st0" d="M57.2,27.1h1.7V13.9h-1.7V13H61v14.1h1.6V28h-5.4V27.1z"/>
	<path id="XMLID_5_" class="st0" d="M62.8,19.4l3.4-3.5v2.6h2.7v0.9h-2.7v5.5c0,1.5,0.4,2.2,1.3,2.2c0.9,0,1.4-0.7,1.6-0.7
		c0.1,0,0.2,0.2,0.2,0.3c0,0.3-0.8,1.6-2.5,1.6c-1.7,0-2.7-1.1-2.7-3.2v-5.7L62.8,19.4L62.8,19.4z"/>
	<path id="XMLID_6_" class="st0" d="M69.9,27.1h1.7v-7.7h-1.7v-0.9h3.8V20h0.1c1.1-1.4,1.7-1.9,2.3-1.9c0.6,0,1.1,0.3,1.6,0.9
		c-0.2,0.9-0.5,1.7-0.9,2.3c-0.6-1-0.9-1.3-1.5-1.3c-0.6,0-1.1,0.4-1.6,1.1v5.8h1.7V28H70L69.9,27.1L69.9,27.1z"/>
	<path id="XMLID_7_" class="st0" d="M78.7,27.1h1.7v-7.7h-1.7v-0.9h3.8v8.6h1.6V28h-5.4V27.1z M82.4,15.4c0,0.6-0.5,1.2-1.2,1.2
		c-0.6,0-1.2-0.5-1.2-1.2c0-0.6,0.5-1.2,1.2-1.2C81.8,14.2,82.4,14.8,82.4,15.4z"/>
	<path id="XMLID_8_" class="st0" d="M89.3,23.5v2.5c-0.6,0.5-1.1,0.7-1.5,0.7c-0.7,0-1.2-0.6-1.2-1.3C86.6,24.6,87.4,24,89.3,23.5z
		 M85.1,20.4c1.1-0.7,2-1,2.7-1c1.3,0,1.6,0.8,1.6,1.9v1.3l-2.1,0.5c-1.9,0.4-2.6,1.3-2.6,2.7c0,1.4,0.9,2.5,2.2,2.5
		c0.8,0,1.7-0.6,2.8-1.4c0.5,1,1,1.4,1.7,1.4c0.7,0,1.4-0.3,2.1-0.8v-0.6c-0.2,0.1-0.8,0.1-1,0.1c-0.6,0-1-0.6-1-1.5v-3.9
		c0-2.1-1.1-3.4-3-3.4c-1.1,0-2.5,0.6-3.6,1.6L85.1,20.4z"/>
</g>
<g>
	<rect x="8.7" y="7.1" class="st0" width="6.7" height="6.8"/>
	<rect x="22.7" y="7.1" class="st0" width="6.8" height="6.8"/>
	<rect x="8.7" y="21.1" class="st0" width="6.7" height="6.7"/>
	<rect x="22.7" y="0.1" class="st0" width="6.8" height="6.8"/>
	<rect x="8.7" y="14.1" class="st0" width="6.7" height="6.7"/>
	<rect x="22.7" y="21.1" class="st0" width="6.8" height="6.7"/>
	<rect x="1.7" y="7.1" class="st0" width="6.8" height="6.8"/>
	<rect x="29.7" y="7.1" class="st0" width="6.8" height="6.8"/>
	<rect x="29.7" y="0.1" class="st0" width="6.8" height="6.8"/>
	<rect x="29.7" y="14.1" class="st0" width="6.8" height="6.7"/>
	<rect x="1.7" y="28.1" class="st0" width="6.8" height="6.8"/>
	<rect x="1.7" y="21.1" class="st0" width="6.8" height="6.7"/>
	<rect x="22.7" y="14.1" class="st0" width="6.8" height="6.7"/>
	<rect x="22.7" y="28.1" class="st0" width="6.8" height="6.8"/>
	<rect x="15.7" y="28.1" class="st0" width="6.7" height="6.8"/>
	<rect x="1.7" y="14.1" class="st0" width="6.8" height="6.7"/>
	<rect x="8.7" y="28.1" class="st0" width="6.7" height="6.8"/>
	<rect x="29.7" y="28.1" class="st0" width="6.8" height="6.8"/>
	<rect x="29.7" y="21.1" class="st0" width="6.8" height="6.7"/>
	<rect x="15.7" y="0.1" class="st0" width="6.7" height="6.8"/>
	<rect x="15.7" y="21.1" class="st0" width="6.7" height="6.7"/>
	<rect x="1.7" y="0.1" class="st0" width="6.8" height="6.8"/>
	<rect x="15.7" y="14.1" class="st0" width="6.7" height="6.7"/>
	<rect x="8.7" y="0.1" class="st0" width="6.7" height="6.8"/>
	<rect x="15.7" y="7.1" class="st0" width="6.7" height="6.8"/>
</g>
</svg>
