<?xml version="1.0" encoding="utf-8"?>
<!-- Generator: Adobe Illustrator 26.0.1, SVG Export Plug-In . SVG Version: 6.00 Build 0)  -->
<svg version="1.1" id="Layer_1" xmlns="http://www.w3.org/2000/svg" xmlns:xlink="http://www.w3.org/1999/xlink" x="0px" y="0px"
	 viewBox="0 0 95 35" style="enable-background:new 0 0 95 35;" xml:space="preserve">
<style type="text/css">
	.st0{fill:#343741;}
	.st1{fill-rule:evenodd;clip-rule:evenodd;fill:#343741;}
</style>
<polygon class="st0" points="23.5,12 25.7,12 26.6,15.2 27.4,12 29.6,11.9 29.6,16.7 28.2,16.7 28.3,12.7 27.1,16.7 25.8,16.7 
	24.7,12.7 24.7,16.7 23.5,16.7 "/>
<g>
	<path class="st0" d="M32,16.7c0-0.1,0-0.3,0-0.5c-0.2,0.2-0.4,0.5-1.1,0.5c-0.8,0-1.2-0.4-1.2-1c0-0.9,0.8-1.2,2.2-1.2
		c0-0.4,0-0.7-0.4-0.7c-0.2,0-0.4,0.1-0.4,0.5h-1.2c0-0.2,0-0.4,0.3-0.7c0.3-0.3,0.8-0.4,1.4-0.4c0.3,0,0.9,0,1.3,0.4
		c0.2,0.2,0.3,0.5,0.3,0.9v1.5c0,0.2,0,0.3,0.1,0.6H32z M30.9,15.6c0,0.2,0.2,0.4,0.5,0.4c0.1,0,0.4-0.1,0.5-0.3
		c0.1-0.2,0.1-0.5,0.1-0.6C31.4,15.1,30.9,15.1,30.9,15.6"/>
	<path class="st0" d="M33.6,14.1l0-0.7h1.2l0,0.7c0.3-0.7,0.9-0.7,1.2-0.7v1.1c-0.1,0-0.2,0-0.3,0c-0.8,0-0.9,0.5-0.9,0.9v1.4h-1.2
		V14.1z"/>
	<path class="st0" d="M38.1,16.7c0-0.1,0-0.3,0-0.5c-0.2,0.2-0.4,0.5-1.1,0.5c-0.8,0-1.2-0.4-1.2-1c0-0.9,0.8-1.2,2.2-1.2
		c0-0.4,0-0.7-0.4-0.7c-0.2,0-0.4,0.1-0.4,0.5h-1.2c0-0.2,0-0.4,0.3-0.7c0.3-0.3,0.8-0.4,1.4-0.4c0.3,0,0.9,0,1.3,0.4
		c0.2,0.2,0.3,0.5,0.3,0.9v1.5c0,0.2,0,0.3,0.1,0.6H38.1z M37.1,15.6c0,0.2,0.2,0.4,0.5,0.4c0.1,0,0.4-0.1,0.5-0.3
		c0.1-0.2,0.1-0.5,0.1-0.6C37.6,15.1,37.1,15.1,37.1,15.6"/>
	<path class="st0" d="M41.9,13.4v0.8h-0.8v1.1c0,0.4,0,0.6,0.5,0.6c0.1,0,0.2,0,0.3,0v0.8c-0.2,0-0.4,0.1-0.8,0.1
		c-1,0-1.2-0.3-1.2-1v-1.6h-0.6v-0.8H40v-0.5l1.2-0.5v1H41.9z"/>
	<path class="st0" d="M42.2,12h1.2v1.8c0.1-0.1,0.4-0.4,1-0.4c0.3,0,0.6,0.1,0.9,0.3c0.3,0.3,0.3,0.7,0.3,1.1v1.9h-1.2v-1.8
		c0-0.3,0-0.8-0.5-0.8c-0.4,0-0.5,0.3-0.5,0.5c0,0.2,0,0.4,0,0.6v1.5h-1.2V12z"/>
	<path class="st0" d="M47.9,13.3c1.1,0,1.9,0.5,1.9,1.7c0,0.5-0.1,1-0.5,1.3c-0.3,0.3-0.7,0.5-1.4,0.5c-0.7,0-1.2-0.2-1.5-0.5
		c-0.4-0.4-0.5-0.9-0.5-1.3C45.9,14,46.6,13.3,47.9,13.3 M47.4,15.8c0.1,0.2,0.4,0.3,0.5,0.3c0.5,0,0.6-0.6,0.6-1c0-0.6-0.1-1-0.6-1
		c-0.5,0-0.6,0.6-0.6,1C47.2,15.2,47.2,15.6,47.4,15.8"/>
	<path class="st0" d="M50,14.1l0-0.7h1.2l0,0.5c0.2-0.2,0.4-0.6,1.1-0.6c1.2,0,1.2,0.9,1.2,1.4v2h-1.2v-1.9c0-0.2,0-0.7-0.5-0.7
		c-0.6,0-0.6,0.6-0.6,0.7v1.9H50V14.1z"/>
	<path class="st0" d="M23.5,18.1h2.2c0.4,0,0.8,0,1.2,0.2c0.4,0.2,0.7,0.7,0.7,1.3c0,0.8-0.5,1.2-0.7,1.3c-0.4,0.2-0.9,0.2-1.2,0.2
		l-0.9,0v1.7h-1.3V18.1z M24.9,20.2h0.6c0.3,0,0.8,0,0.8-0.6c0-0.6-0.5-0.6-0.8-0.6h-0.6V20.2z"/>
	<path class="st0" d="M28.7,21.4c0,0.2,0,0.8,0.6,0.8c0.3,0,0.5-0.2,0.6-0.5h1.1c-0.1,0.8-0.9,1.1-1.7,1.1c-1.1,0-1.8-0.6-1.8-1.7
		c0-1.1,0.5-1.8,1.7-1.8c0.9,0,1.3,0.4,1.6,0.8c0.1,0.3,0.2,0.6,0.2,1.2H28.7z M29.9,20.8c0-0.2-0.1-0.7-0.6-0.7
		c-0.5,0-0.6,0.5-0.6,0.7H29.9z"/>
	<path class="st0" d="M33.7,19.6v0.8h-0.8v1.1c0,0.4,0,0.6,0.5,0.6c0.1,0,0.2,0,0.3,0v0.8c-0.2,0-0.4,0.1-0.8,0.1
		c-1,0-1.2-0.3-1.2-1v-1.6h-0.6v-0.8h0.6v-0.5l1.2-0.5v1H33.7z"/>
	<path class="st0" d="M34,20.3l0-0.7h1.2l0,0.7c0.3-0.7,0.9-0.7,1.2-0.7v1.1c-0.1,0-0.2,0-0.3,0c-0.8,0-0.9,0.5-0.9,0.9v1.4H34V20.3
		z"/>
	<path class="st0" d="M38.3,19.4c1.1,0,1.9,0.5,1.9,1.7c0,0.5-0.1,1-0.5,1.3c-0.3,0.3-0.7,0.5-1.4,0.5c-0.7,0-1.2-0.2-1.5-0.5
		c-0.4-0.4-0.5-0.9-0.5-1.3C36.3,20.2,37,19.4,38.3,19.4 M37.8,22c0.1,0.2,0.4,0.3,0.5,0.3c0.5,0,0.6-0.6,0.6-1c0-0.6-0.1-1-0.6-1
		c-0.5,0-0.6,0.6-0.6,1C37.6,21.4,37.6,21.7,37.8,22"/>
	<rect x="40.5" y="18.1" class="st0" width="1.2" height="4.7"/>
	<path class="st0" d="M43.2,21.4c0,0.2,0,0.8,0.6,0.8c0.3,0,0.5-0.2,0.6-0.5h1.1c-0.1,0.8-0.9,1.1-1.7,1.1c-1.1,0-1.8-0.6-1.8-1.7
		c0-1.1,0.5-1.8,1.7-1.8c0.9,0,1.3,0.4,1.6,0.8c0.1,0.3,0.2,0.6,0.2,1.2H43.2z M44.4,20.8c0-0.2-0.1-0.7-0.6-0.7
		c-0.5,0-0.6,0.5-0.6,0.7H44.4z"/>
	<path class="st0" d="M47.1,19.6v1.9c0,0.2,0,0.6,0.5,0.6c0.5,0,0.5-0.5,0.5-0.7v-1.9h1.2v2.7c0,0.3,0,0.3,0,0.6h-1.2l0-0.5
		c-0.3,0.5-0.7,0.6-1,0.6c-1.1,0-1.2-0.9-1.2-1.5v-1.9H47.1z"/>
	<path class="st0" d="M49.8,20.3c0-0.1,0-0.6,0-0.7H51l0,0.5c0.2-0.4,0.6-0.6,1.1-0.6c0.2,0,0.8,0,1,0.6c0.3-0.5,0.8-0.6,1.2-0.6
		c0.6,0,0.9,0.3,1,0.5c0.2,0.3,0.2,0.7,0.2,1.1v1.8h-1.2V21c0-0.3,0-0.7-0.5-0.7c-0.2,0-0.3,0.1-0.5,0.3c0,0.1-0.1,0.2-0.1,0.5v1.8
		h-1.2V21c0-0.3,0-0.7-0.5-0.7c-0.4,0-0.5,0.3-0.5,0.7v1.9h-1.2V20.3z"/>
	<path class="st0" d="M61,19.6c-0.1-0.5-0.4-0.7-0.8-0.7c-0.8,0-1,0.7-1,1.6c0,0.3,0,1.5,1,1.5c0.7,0,0.8-0.5,0.8-0.7h1.4
		c0,1.5-1.5,1.6-2.1,1.6c-0.5,0-1.3-0.1-1.8-0.6c-0.5-0.6-0.6-1.3-0.6-1.8c0-0.6,0.2-1.3,0.6-1.8c0.5-0.6,1.1-0.7,1.8-0.7
		c0.8,0,1.3,0.2,1.7,0.6c0.4,0.4,0.4,0.8,0.4,1H61z"/>
	<path class="st0" d="M64.4,19.4c1.1,0,1.9,0.5,1.9,1.7c0,0.5-0.1,1-0.5,1.3c-0.3,0.3-0.7,0.5-1.4,0.5c-0.7,0-1.2-0.2-1.5-0.5
		c-0.4-0.4-0.5-0.9-0.5-1.3C62.5,20.2,63.1,19.4,64.4,19.4 M63.9,22c0.1,0.2,0.4,0.3,0.5,0.3c0.5,0,0.6-0.6,0.6-1c0-0.6-0.1-1-0.6-1
		c-0.5,0-0.6,0.6-0.6,1C63.8,21.4,63.8,21.7,63.9,22"/>
	<path class="st0" d="M66.6,20.3l0-0.7h1.2l0,0.7c0.3-0.7,0.9-0.7,1.2-0.7v1.1c-0.1,0-0.2,0-0.3,0c-0.8,0-0.9,0.5-0.9,0.9v1.4h-1.2
		V20.3z"/>
	<path class="st0" d="M70.3,19.6l0,0.5c0.1-0.2,0.4-0.6,1.1-0.6c0.6,0,1.4,0.3,1.4,1.7c0,1.3-0.7,1.8-1.5,1.8c-0.6,0-0.8-0.3-1-0.5
		v1.6h-1.2v-4c0-0.4,0-0.4,0-0.5H70.3z M70.9,22.2c0.5,0,0.6-0.6,0.6-1.1c0-0.3-0.1-0.9-0.6-0.9c-0.6,0-0.6,0.8-0.6,1
		C70.3,21.4,70.4,22.2,70.9,22.2"/>
	<path class="st0" d="M74.9,19.4c1.1,0,1.9,0.5,1.9,1.7c0,0.5-0.1,1-0.5,1.3c-0.3,0.3-0.7,0.5-1.4,0.5c-0.7,0-1.2-0.2-1.5-0.5
		c-0.4-0.4-0.5-0.9-0.5-1.3C73,20.2,73.6,19.4,74.9,19.4 M74.4,22c0.1,0.2,0.4,0.3,0.5,0.3c0.5,0,0.6-0.6,0.6-1c0-0.6-0.1-1-0.6-1
		c-0.5,0-0.6,0.6-0.6,1C74.2,21.4,74.3,21.7,74.4,22"/>
	<path class="st0" d="M77.1,20.3l0-0.7h1.2l0,0.7c0.3-0.7,0.9-0.7,1.2-0.7v1.1c-0.1,0-0.2,0-0.3,0c-0.8,0-0.9,0.5-0.9,0.9v1.4h-1.2
		V20.3z"/>
	<path class="st0" d="M81.7,22.8c0-0.1,0-0.3,0-0.5c-0.2,0.2-0.4,0.5-1.1,0.5c-0.8,0-1.2-0.4-1.2-1c0-0.9,0.8-1.2,2.2-1.2
		c0-0.4,0-0.7-0.4-0.7c-0.2,0-0.4,0.1-0.4,0.5h-1.2c0-0.2,0-0.4,0.3-0.7c0.3-0.3,0.8-0.4,1.4-0.4c0.3,0,0.9,0,1.3,0.4
		c0.2,0.2,0.3,0.5,0.3,0.9v1.5c0,0.2,0,0.3,0.1,0.6H81.7z M80.6,21.8c0,0.2,0.2,0.4,0.5,0.4c0.1,0,0.4-0.1,0.5-0.3
		c0.1-0.2,0.1-0.5,0.1-0.6C81.1,21.3,80.6,21.3,80.6,21.8"/>
	<path class="st0" d="M85.5,19.6v0.8h-0.8v1.1c0,0.4,0,0.6,0.5,0.6c0.1,0,0.2,0,0.3,0v0.8c-0.2,0-0.4,0.1-0.8,0.1
		c-1,0-1.2-0.3-1.2-1v-1.6h-0.6v-0.8h0.6v-0.5l1.2-0.5v1H85.5z"/>
	<path class="st0" d="M85.8,18.1H87V19h-1.3V18.1z M85.8,19.6H87v3.3h-1.2V19.6z"/>
	<path class="st0" d="M89.3,19.4c1.1,0,1.9,0.5,1.9,1.7c0,0.5-0.1,1-0.5,1.3c-0.3,0.3-0.7,0.5-1.4,0.5c-0.7,0-1.2-0.2-1.5-0.5
		c-0.4-0.4-0.5-0.9-0.5-1.3C87.4,20.2,88,19.4,89.3,19.4 M88.8,22c0.1,0.2,0.4,0.3,0.5,0.3c0.5,0,0.6-0.6,0.6-1c0-0.6-0.1-1-0.6-1
		c-0.5,0-0.6,0.6-0.6,1C88.6,21.4,88.6,21.7,88.8,22"/>
	<path class="st0" d="M91.5,20.3l0-0.7h1.2l0,0.5c0.2-0.2,0.4-0.6,1.1-0.6c1.2,0,1.2,0.9,1.2,1.4v2h-1.2V21c0-0.2,0-0.7-0.5-0.7
		c-0.6,0-0.6,0.6-0.6,0.7v1.9h-1.2V20.3z"/>
</g>
<path class="st1" d="M3.7,21.8L4,20.6l0.7,0l0.3,2.1l-0.5,0l-0.2-1.4c-0.1,0.5-0.2,0.9-0.2,1.4l-0.5,0l-0.2-1.4
	c-0.1,0.5-0.1,0.9-0.2,1.4l-0.5,0l0.3-2.1l0.7,0L3.7,21.8z"/>
<polygon class="st1" points="11.7,21.1 11.2,21.1 11.2,22.8 10.7,22.8 10.7,21.1 10.2,21.1 10.2,20.6 11.7,20.6 "/>
<polygon class="st1" points="12.4,21.5 12.9,21.5 12.9,20.6 13.4,20.6 13.4,22.8 12.9,22.8 12.9,22 12.4,22 12.4,22.8 11.9,22.8 
	11.9,20.6 12.4,20.6 "/>
<polygon class="st1" points="16.8,22 16.8,20.6 17.2,20.6 17.2,22.8 16.5,22.8 16.2,21.5 16.2,22.8 15.7,22.8 15.7,20.6 16.4,20.6 
	"/>
<path class="st1" d="M6.3,20.6H5.5l-0.4,2.1l0.5,0l0.1-0.4l0.5,0l0.1,0.4l0.5,0L6.3,20.6z M5.7,22l0.2-0.9C6,21.4,6,21.7,6.1,22
	L5.7,22z"/>
<path class="st1" d="M8.2,22L8.2,22c0.2-0.1,0.2-0.3,0.3-0.5c0-0.3,0-0.7-0.3-0.8C7.9,20.6,7,20.6,7,20.6l0,2.1l0.5,0l0-0.8
	c0,0,0.1,0,0.1,0c0,0,0.3,0.8,0.3,0.8l0.5,0L8.2,22z M7.9,21.5c0,0,0,0.1-0.1,0.1l-0.2,0l0-0.5c0,0,0.2,0,0.3,0
	C7.9,21.2,8,21.4,7.9,21.5z"/>
<path class="st1" d="M9.9,20.6H9.1l-0.4,2.1l0.5,0l0.1-0.4l0.5,0l0.1,0.4l0.5,0L9.9,20.6z M9.3,22l0.2-0.9c0.1,0.3,0.1,0.6,0.2,0.9
	L9.3,22z"/>
<g>
	<polygon class="st0" points="14.5,20.6 14.5,20.6 14.5,20.6 	"/>
	<polygon class="st0" points="14.5,22.8 14.5,22.8 14.5,22.8 	"/>
	<path class="st0" d="M15.4,21.7c0-0.4-0.1-0.8-0.3-0.9c-0.2-0.1-0.4-0.1-0.5-0.1s-0.3,0-0.5,0.1c-0.2,0.1-0.3,0.5-0.3,0.9
		c0,0.4,0,0.7,0.2,0.9c0.1,0.2,0.4,0.3,0.7,0.3c0.3,0,0.5-0.1,0.7-0.3C15.3,22.3,15.4,22.1,15.4,21.7z M14.8,22.2
		c0,0.1-0.1,0.2-0.2,0.2c0,0,0,0,0,0h0c0,0,0,0,0,0c-0.1,0-0.2,0-0.2-0.2c0-0.1-0.1-0.3-0.1-0.5c0-0.3,0-0.5,0.1-0.6
		c0.1-0.1,0.1-0.1,0.2-0.1c0,0,0,0,0,0h0c0,0,0,0,0,0c0.1,0,0.1,0,0.2,0.1c0.1,0.1,0.1,0.3,0.1,0.6C14.8,22,14.8,22.1,14.8,22.2z"/>
</g>
<path class="st0" d="M20,24.5c0-0.4,0.3-0.7,0.7-0.7c0.4,0,0.7,0.3,0.7,0.7c0,0.4-0.3,0.7-0.7,0.7C20.3,25.2,20,24.9,20,24.5
	 M20.7,25.1c0.3,0,0.5-0.2,0.5-0.6c0-0.3-0.2-0.6-0.5-0.6c-0.3,0-0.6,0.2-0.6,0.6C20.1,24.8,20.4,25.1,20.7,25.1 M20.5,24.9h-0.1
	v-0.8h0.3c0.2,0,0.3,0.1,0.3,0.2c0,0.1-0.1,0.2-0.2,0.2l0.2,0.3h-0.1l-0.2-0.3h-0.1V24.9z M20.7,24.4c0.1,0,0.2,0,0.2-0.1
	c0-0.1-0.1-0.1-0.2-0.1h-0.2v0.2H20.7z"/>
<path class="st1" d="M19.9,18.7l-1.5-3.4l-1.9-4.2c-0.3-0.7-1.1-1.2-1.8-1.2H5.2c-0.8,0-1.6,0.6-1.8,1.3l-3.2,7.4
	C0,18.9,0,19.3,0,19.7l0.5,1.6l0.6,2.1l0.2,0.5c0.3,0.7,1,1.2,1.7,1.3l14.1,0c0.7-0.1,1.5-0.6,1.7-1.4l1.1-4.1
	C20,19.4,20,19,19.9,18.7z M19.2,19.5l-0.2,0.7l-0.9,3.3c-0.1,0.5-0.6,0.9-1.1,1l-13.9,0c-0.4,0-0.8-0.2-1.1-0.6
	c-0.3-0.4-1.3-4.4-1.3-4.4c0-0.4,0.1-0.7,0.3-1l2.5-5.7l0.6-1.4c0.3-0.5,0.7-0.7,1.2-0.7l9.4,0c0.5,0,1,0.5,1.2,0.9l3,6.6
	C19,18.5,19.3,19,19.2,19.5z"/>
<polygon class="st1" points="10,16.5 11.7,12 14.4,12 16.7,19.7 13.5,19.7 13.1,15.5 11,19.7 8.9,19.7 6.8,15.5 6.5,19.7 3.2,19.7 
	5.5,12 8.2,12 "/>
</svg>
