<?xml version="1.0" encoding="utf-8"?>
<!-- Generator: Adobe Illustrator 26.0.1, SVG Export Plug-In . SVG Version: 6.00 Build 0)  -->
<svg version="1.1" id="Layer_1" xmlns="http://www.w3.org/2000/svg" xmlns:xlink="http://www.w3.org/1999/xlink" x="0px" y="0px"
	 viewBox="0 0 95 35" style="enable-background:new 0 0 95 35;" xml:space="preserve">
<style type="text/css">
	.st0{fill:#CCCCCC;}
</style>
<g id="layer1" transform="translate(-72.664861,-423.74813)">
	<path id="path4244" class="st0" d="M154,448.5L154,448.5c1,0,1.8-0.4,2.4-1c0,0,0.5-0.4,1-1c0.3-0.3,0.7-0.5,1.2-0.6
		c0.1,0,0.3,0,0.3,0c0.1,0,0.3,0,0.5,0c0.5,0.1,1,0.2,1.4,0.4l4.1,1.7c0,0,1,0.5,1.9,0.5h0.6c0.2,0,0.3-0.1,0.3-0.3v-1.5
		c0-1-0.6-2-1.6-2.5l-0.9-0.4c-0.7-0.3-1.5-0.8-2-1.2c0,0-0.8-1,0.1-1.9l3.6-3.7c0.5-0.5,0.7-1.2,0.7-1.8c0,0,0-0.3-0.1-0.5
		c0-0.2-0.2-0.4-0.3-0.5c-0.2-0.2-0.6-0.4-0.9-0.4h-0.6c-0.9,0-1.8,0.4-2.4,1c0,0-2.4,2.4-3.1,3.1l-3.3,3.4v-5.3
		c0-1.2-1-2.1-2.2-2.1h-0.9c-0.2,0-0.6,0-0.7,0.1c-0.1,0-0.1,0.2-0.1,0.4v13.9c0,0.2,0.1,0.3,0.3,0.3H154z"/>
	<path id="path4254" class="st0" d="M136.6,446.7L136.6,446.7c0,0-0.8-0.2-2.3-1.4c-0.8-0.6-1.4-1.1-1.6-1.3
		c0.3-0.2,1.2-0.6,2.1-1.5c0.5-0.6,0.8-1.4,0.8-2.3c0-0.9-0.2-1.7-0.7-2.5c-0.5-0.8-1.2-1.5-2-2.1c-0.8-0.6-1.7-1-2.8-1.4
		c-1-0.4-2-0.5-2.9-0.5h-6c-0.2,0-0.3,0.1-0.3,0.3v9.9v2.2v0.7v1c0,0.1,0,0.3,0.1,0.4c0.2,0.1,0.6,0.1,0.8,0.1c0.3,0,0.7,0,1-0.1
		c0.5-0.1,0.9-0.5,1.3-0.9c0.6-0.7,0.7-1.6,0.7-2.5v-6c0-0.1,0-0.3,0-0.4c0-0.1,0.1-0.3,0.1-0.3c0.4-0.8,2-1.1,3.6-0.7
		c2.2,0.6,2.9,2.1,2.7,2.8c-0.3,0.7-1.1,1.1-2.1,1.1c-0.5,0-1,0-1.5-0.2c0,0-0.3-0.1-0.6-0.2c-0.1,0-0.4-0.1-0.5-0.1
		c-0.2,0-0.3,0.1-0.3,0.4v1.6c0,0.5,0.2,1,0.6,1.3l4.9,3.8c0.5,0.3,1,0.5,1.5,0.5h3.2c0.2,0,0.3-0.1,0.3-0.4v-1
		C136.8,446.9,136.7,446.8,136.6,446.7L136.6,446.7z"/>
	<path id="path4264" class="st0" d="M117.2,444.7L117.2,444.7H113c-0.6,0-1.2-0.1-1.7-0.4c-0.4-0.2-1.1-0.8-1.4-1
		c-0.4-0.4-0.7-0.9-0.9-1.5c-0.2-0.6-0.4-1.2-0.4-1.8c0-0.7,0.2-1.4,0.7-1.8c0,0,0.2-0.2,0.4-0.3c0.2-0.1,0.5-0.2,0.7-0.2
		c0.2,0,0.5-0.1,0.8-0.1c0.3,0,0.6,0,0.8,0.1c0.5,0.1,1,0.3,1.5,0.6c0.7,0.4,1.4,1.1,1.8,1.7h-4.4c-0.3,0-0.4,0.1-0.4,0.4
		c0,0.5,0.1,0.7,0.3,1.1c0.2,0.4,1,1.7,2.8,1.7h4.2c0.7,0,1.2-0.2,1.5-0.6c0.3-0.4,0.4-0.7,0.4-1.3c0-0.8-0.2-1.7-0.7-2.6
		c-0.4-0.9-1-1.7-1.8-2.4c-0.7-0.7-1.6-1.3-2.6-1.8c-1-0.5-2.1-0.7-3.2-0.7h-6.1c-0.1,0-0.3,0.1-0.3,0.3v6c0,1.2,0.2,2.2,0.7,3.2
		c0.4,1,1,1.9,1.8,2.7c0.7,0.7,1.6,1.4,2.6,1.8c1,0.4,2.1,0.7,3.2,0.7h6.1c0.2,0,0.3-0.1,0.3-0.3v-1.3c0-0.7-0.2-1.3-0.6-1.7
		C118.5,444.9,117.9,444.7,117.2,444.7L117.2,444.7z"/>
	<path id="path4274" class="st0" d="M103.4,435.9L103.4,435.9c0-1.2-1-2.1-2.2-2.1H99c-0.1,0-0.2,0-0.3,0.1l-4.6,4.3
		c-1.5,1.5-3.7,2.3-6,2.3c-2.4,0-4.6-0.9-6.2-2.5c0,0-3.4-3.2-3.4-3.2c-0.7-0.6-1.5-1-2.6-1h-2.8c-0.2,0-0.4,0.2-0.4,0.4v12.1
		c0,1.2,1,2.1,2.1,2.1h0.8h0.6c0.2,0,0.4-0.2,0.4-0.4v-4.3c0-1.2,0.9-2.1,2-2.1c2.1,0,3.5,1.8,4.9,3c1.6,1.4,2.9,2.8,4.4,2.8
		c1.6,0,2.8-1.4,4.5-2.8c1.4-1.2,2.8-3,4.9-3c1.1,0,2.1,0.9,2.1,2.1v2.6c0,1.2,1,2.1,2.1,2.1h0.9c0.3,0,0.5,0,0.5,0l0,0
		c0.2,0,0.4-0.2,0.4-0.4V435.9L103.4,435.9z"/>
	<path id="path4284" class="st0" d="M151.3,442.3L151.3,442.3h-2.2c-0.8,0-1.4,0.4-1.6,1.1c-0.1,0.5-0.4,0.8-0.7,1.1
		c-0.3,0.3-0.8,0.4-1.4,0.4c-0.5,0-1-0.1-1.6-0.5c-0.5-0.3-1-0.7-1.4-1.1c-0.5-0.5-0.8-1-1.1-1.6c-0.2-0.6-0.4-1.2-0.4-1.8
		c0-0.7,0.2-1.3,0.7-1.7c0.4-0.5,1-0.7,1.6-0.7c0.8,0,1.5,0.3,2.3,0.8c0.3,0.2,0.6,0.3,0.9,0.3c0.4,0,0.7-0.2,1.1-0.6l1.5-1.5
		c0.1-0.1,0.1-0.2,0.1-0.3c0,0-0.1-0.1-0.2-0.2c-0.8-0.7-1.7-1.4-2.7-1.8c-1-0.4-2-0.6-3.1-0.6h-6c-0.2,0-0.3,0.1-0.3,0.4v6
		c0,1.2,0.2,2.2,0.7,3.3s1.1,2,1.9,2.8c0.8,0.7,1.7,1.4,2.8,1.9c1,0.5,2.1,0.7,3.1,0.7c0.9,0,1.7-0.1,2.4-0.5c0.7-0.3,1.4-0.7,2-1.2
		c0.6-0.5,1-1.2,1.3-1.9c0.3-0.7,0.5-1.5,0.6-2.4C151.6,442.5,151.5,442.3,151.3,442.3L151.3,442.3z"/>
</g>
</svg>
