<?xml version="1.0" encoding="utf-8"?>
<!-- Generator: Adobe Illustrator 26.0.1, SVG Export Plug-In . SVG Version: 6.00 Build 0)  -->
<svg version="1.1" id="Layer_1" xmlns="http://www.w3.org/2000/svg" xmlns:xlink="http://www.w3.org/1999/xlink" x="0px" y="0px"
	 viewBox="0 0 95 35" style="enable-background:new 0 0 95 35;" xml:space="preserve">
<style type="text/css">
	.st0{fill-rule:evenodd;clip-rule:evenodd;fill:#CCCCCC;}
</style>
<g>
	<path class="st0" d="M87.5,27.1L87.5,27.1h-1.4c-0.3,0-0.5,0.2-0.5,0.6c0,0.4,0.2,0.6,0.5,0.6h1.4h0h4c0.3,0,0.5-0.2,0.5-0.6
		c0-0.4-0.2-0.6-0.5-0.6H87.5L87.5,27.1z"/>
	<path class="st0" d="M79.9,27.1L79.9,27.1h-1.3c-0.3,0-0.5,0.2-0.5,0.6c0,0.4,0.2,0.6,0.5,0.6h1.3h0h3.8c0.3,0,0.5-0.2,0.5-0.6
		c0-0.4-0.2-0.6-0.5-0.6H79.9L79.9,27.1z"/>
	<path class="st0" d="M72.1,27.1L72.1,27.1h-1.3c-0.3,0-0.5,0.2-0.5,0.6c0,0.4,0.1,0.6,0.5,0.6h1.3h0h3.8c0.3,0,0.5-0.2,0.5-0.6
		c0-0.4-0.2-0.6-0.5-0.6H72.1L72.1,27.1z"/>
	<path class="st0" d="M64.1,27.1L64.1,27.1h-1.3c-0.3,0-0.5,0.2-0.5,0.6c0,0.4,0.2,0.6,0.5,0.6h1.3h3.8c0.3,0,0.5-0.2,0.5-0.6
		c0-0.4-0.2-0.6-0.5-0.6H64.1z"/>
	<path class="st0" d="M56.3,27.1L56.3,27.1H55c-0.3,0-0.5,0.2-0.5,0.6c0,0.4,0.2,0.6,0.5,0.6h1.3h3.8c0.3,0,0.5-0.2,0.5-0.6
		c0-0.4-0.2-0.6-0.5-0.6H56.3z"/>
	<path class="st0" d="M48.6,27.1L48.6,27.1h-1.4c-0.3,0-0.5,0.2-0.5,0.6c0,0.4,0.2,0.6,0.5,0.6h1.4h4c0.3,0,0.5-0.2,0.5-0.6
		c0-0.4-0.2-0.6-0.5-0.6H48.6z"/>
	<path class="st0" d="M40.7,27.1L40.7,27.1h-1.3c-0.3,0-0.5,0.2-0.5,0.6c0,0.4,0.2,0.6,0.5,0.6h1.3h0h3.8c0.3,0,0.5-0.2,0.5-0.6
		c0-0.4-0.1-0.6-0.5-0.6H40.7L40.7,27.1z"/>
	<path class="st0" d="M32.9,27.1L32.9,27.1h-1.3c-0.3,0-0.5,0.2-0.5,0.6c0,0.4,0.2,0.6,0.5,0.6h1.3h0h3.8c0.3,0,0.5-0.2,0.5-0.6
		c0-0.4-0.2-0.6-0.5-0.6H32.9L32.9,27.1z"/>
	<path class="st0" d="M25.2,27.1L25.2,27.1h-1.3c-0.3,0-0.5,0.2-0.5,0.6c0,0.4,0.2,0.6,0.5,0.6h1.3h0H29c0.3,0,0.5-0.2,0.5-0.6
		c0-0.4-0.2-0.6-0.5-0.6H25.2L25.2,27.1z"/>
	<path class="st0" d="M17.4,27.1L17.4,27.1h-1.3c-0.3,0-0.5,0.2-0.5,0.6c0,0.4,0.2,0.6,0.5,0.6h1.3h0h3.8c0.3,0,0.5-0.2,0.5-0.6
		c0-0.4-0.2-0.6-0.5-0.6H17.4L17.4,27.1z"/>
	<path class="st0" d="M9.6,27.1L9.6,27.1H8.3c-0.3,0-0.5,0.2-0.5,0.6c0,0.4,0.2,0.6,0.5,0.6h1.3h0h3.8c0.3,0,0.5-0.2,0.5-0.6
		c0-0.4-0.2-0.6-0.5-0.6H9.6L9.6,27.1z"/>
	<path class="st0" d="M1.8,27.1L1.8,27.1H0.5c-0.3,0-0.5,0.2-0.5,0.6c0,0.4,0.1,0.6,0.5,0.6h1.3h0h3.8c0.3,0,0.5-0.2,0.5-0.6
		c0-0.4-0.2-0.6-0.5-0.6H1.8L1.8,27.1z"/>
	<path class="st0" d="M0,11L0,11h1.4v2c0.5-0.7,1-1.3,1.5-1.6c0.7-0.4,1.5-0.7,2.3-0.7c0.5,0,1,0.1,1.6,0.3c0.5,0.2,0.9,0.5,1.2,0.9
		c0.3,0.3,0.6,0.9,0.8,1.5c0.5-0.9,1.1-1.6,1.8-2c0.7-0.5,1.5-0.7,2.3-0.7c0.8,0,1.5,0.2,2,0.6c0.6,0.4,1,0.9,1.3,1.7
		c0.3,0.7,0.4,1.8,0.4,3.2v6.2h-1.5v-6.2c0-1.2-0.1-2.1-0.3-2.5c-0.2-0.5-0.5-0.8-0.9-1.1c-0.4-0.3-0.9-0.4-1.5-0.4
		c-0.7,0-1.3,0.2-1.9,0.6c-0.6,0.4-1,1-1.3,1.7c-0.3,0.7-0.4,1.9-0.4,3.5v4.4H7.6v-5.8c0-1.4-0.1-2.3-0.2-2.8
		c-0.2-0.5-0.5-0.9-0.9-1.2c-0.4-0.3-0.9-0.4-1.5-0.4c-0.7,0-1.3,0.2-1.9,0.6c-0.6,0.4-1,0.9-1.3,1.6c-0.3,0.7-0.4,1.7-0.4,3.2v4.8
		H0L0,11L0,11z"/>
	<path class="st0" d="M24.9,10.7L24.9,10.7c1.7,0,3.1,0.6,4.2,1.9c1,1.2,1.5,2.5,1.5,4.1c0,1.6-0.5,3-1.6,4.1
		c-1.1,1.2-2.4,1.8-4.1,1.8c-1.7,0-3-0.6-4.1-1.8c-1.1-1.2-1.6-2.6-1.6-4.1s0.5-2.9,1.5-4.1C21.8,11.3,23.2,10.7,24.9,10.7z
		 M24.9,12.1L24.9,12.1c-1.2,0-2.2,0.4-3,1.3c-0.8,0.9-1.3,2-1.3,3.3c0,0.8,0.2,1.6,0.6,2.3c0.4,0.7,0.9,1.3,1.6,1.6
		s1.3,0.6,2.1,0.6c0.8,0,1.5-0.2,2.1-0.6c0.7-0.4,1.2-0.9,1.6-1.6c0.4-0.7,0.6-1.5,0.6-2.3c0-1.3-0.4-2.4-1.3-3.3
		C27,12.6,26,12.1,24.9,12.1z"/>
	<path class="st0" d="M44.5,6.8L44.5,6.8v15.5H43v-1.9c-0.6,0.7-1.3,1.3-2,1.7c-0.8,0.4-1.6,0.6-2.5,0.6c-1.6,0-2.9-0.6-4.1-1.7
		c-1.1-1.2-1.7-2.5-1.7-4.2c0-1.6,0.6-3,1.7-4.1c1.1-1.2,2.5-1.7,4.1-1.7c0.9,0,1.8,0.2,2.5,0.6c0.8,0.4,1.4,1,2,1.8V6.8L44.5,6.8
		L44.5,6.8z M38.7,12.2L38.7,12.2c-0.8,0-1.6,0.2-2.2,0.6c-0.7,0.4-1.2,0.9-1.6,1.7c-0.4,0.7-0.6,1.5-0.6,2.2c0,0.8,0.2,1.6,0.6,2.3
		c0.4,0.7,1,1.3,1.6,1.7c0.7,0.4,1.4,0.6,2.2,0.6c0.8,0,1.5-0.2,2.2-0.6c0.7-0.4,1.2-0.9,1.6-1.6c0.4-0.7,0.6-1.5,0.6-2.3
		c0-1.3-0.4-2.4-1.3-3.2C41,12.7,39.9,12.2,38.7,12.2z"/>
	<path class="st0" d="M57.1,18.6L57.1,18.6l1.2,0.7c-0.4,0.8-0.9,1.4-1.4,1.9c-0.5,0.5-1.1,0.9-1.7,1.1c-0.6,0.2-1.4,0.4-2.2,0.4
		c-1.8,0-3.2-0.6-4.2-1.8c-1-1.2-1.5-2.6-1.5-4.1c0-1.5,0.4-2.7,1.3-3.8c1.1-1.4,2.6-2.2,4.4-2.2c1.9,0,3.4,0.7,4.5,2.2
		c0.8,1,1.2,2.3,1.2,3.9h-9.9c0,1.3,0.4,2.4,1.2,3.2c0.8,0.8,1.8,1.3,2.9,1.3c0.6,0,1.1-0.1,1.6-0.3c0.5-0.2,1-0.5,1.3-0.8
		C56.2,19.9,56.6,19.3,57.1,18.6z M57.1,15.5L57.1,15.5c-0.2-0.8-0.5-1.4-0.8-1.9c-0.4-0.5-0.8-0.8-1.4-1.1
		c-0.6-0.3-1.2-0.4-1.9-0.4c-1.1,0-2,0.3-2.8,1.1c-0.6,0.5-1,1.3-1.3,2.3L57.1,15.5L57.1,15.5z"/>
	<path class="st0" d="M60.6,11L60.6,11h1.5v1.7c0.4-0.6,0.9-1.1,1.4-1.5c0.5-0.3,1-0.5,1.6-0.5c0.4,0,0.9,0.1,1.3,0.4l-0.8,1.2
		c-0.3-0.1-0.6-0.2-0.8-0.2c-0.5,0-1,0.2-1.4,0.6c-0.5,0.4-0.8,1-1.1,1.9c-0.2,0.6-0.3,2-0.3,3.9v3.8h-1.5V11z"/>
	<path class="st0" d="M68.1,11L68.1,11h1.4v2c0.6-0.8,1.2-1.4,1.9-1.7c0.7-0.4,1.5-0.6,2.3-0.6c0.8,0,1.6,0.2,2.2,0.6
		c0.6,0.4,1.1,1,1.4,1.7c0.3,0.7,0.5,1.9,0.5,3.4v5.8h-1.4V17c0-1.3-0.1-2.2-0.2-2.6c-0.2-0.7-0.5-1.3-1-1.7
		c-0.5-0.4-1.1-0.6-1.9-0.6c-0.9,0-1.6,0.3-2.3,0.9c-0.7,0.6-1.1,1.3-1.3,2.2c-0.1,0.6-0.2,1.6-0.2,3.1v4.2h-1.4L68.1,11L68.1,11z"
		/>
	<path class="st0" d="M91.7,11L91.7,11v11.4h-1.4v-1.9c-0.6,0.7-1.3,1.3-2,1.7c-0.7,0.4-1.6,0.6-2.4,0.6c-1.6,0-2.9-0.6-4-1.8
		c-1.1-1.2-1.6-2.6-1.6-4.2c0-1.6,0.6-3,1.7-4.2c1.1-1.2,2.4-1.7,4-1.7c0.9,0,1.7,0.2,2.4,0.6c0.7,0.4,1.4,1,1.9,1.8V11L91.7,11
		L91.7,11z M86.1,12.1L86.1,12.1c-0.8,0-1.5,0.2-2.2,0.6c-0.7,0.4-1.2,1-1.6,1.7c-0.4,0.7-0.6,1.5-0.6,2.3c0,0.8,0.2,1.6,0.6,2.3
		c0.4,0.7,0.9,1.3,1.6,1.7c0.7,0.4,1.4,0.6,2.2,0.6c0.8,0,1.5-0.2,2.2-0.6c0.7-0.4,1.2-1,1.6-1.6c0.4-0.7,0.5-1.5,0.5-2.3
		c0-1.3-0.4-2.4-1.2-3.3C88.3,12.5,87.3,12.1,86.1,12.1z"/>
	<path class="st0" d="M94,11L94,11c0.2,0,0.3,0,0.5,0.1c0.2,0.1,0.3,0.2,0.4,0.4c0.1,0.2,0.1,0.3,0.1,0.5c0,0.2,0,0.3-0.1,0.5
		c-0.1,0.1-0.2,0.3-0.4,0.4c-0.2,0.1-0.3,0.1-0.5,0.1s-0.3,0-0.5-0.1c-0.1-0.1-0.3-0.2-0.4-0.4c-0.1-0.1-0.1-0.3-0.1-0.5
		c0-0.2,0-0.3,0.1-0.5c0.1-0.1,0.2-0.3,0.4-0.4C93.7,11,93.9,11,94,11z M94,11.1L94,11.1c-0.1,0-0.3,0-0.4,0.1
		c-0.1,0.1-0.2,0.2-0.3,0.3c-0.1,0.1-0.1,0.3-0.1,0.4c0,0.1,0,0.3,0.1,0.4c0.1,0.1,0.2,0.2,0.3,0.3c0.1,0.1,0.3,0.1,0.4,0.1
		c0.1,0,0.3,0,0.4-0.1c0.1-0.1,0.2-0.2,0.3-0.3c0.1-0.1,0.1-0.3,0.1-0.4c0-0.1,0-0.3-0.1-0.4c-0.1-0.1-0.2-0.2-0.3-0.3
		C94.3,11.1,94.2,11.1,94,11.1z M93.6,12.5L93.6,12.5v-1.1H94c0.1,0,0.2,0,0.3,0c0,0,0.1,0.1,0.1,0.1c0,0,0,0.1,0,0.1
		c0,0.1,0,0.2-0.1,0.2c-0.1,0-0.1,0.1-0.2,0.1c0,0,0.1,0,0.1,0c0,0,0.1,0.1,0.1,0.2l0.1,0.2h-0.2l-0.1-0.2c-0.1-0.1-0.1-0.2-0.2-0.3
		c0,0-0.1,0-0.1,0h-0.1v0.5L93.6,12.5L93.6,12.5z M93.8,11.9L93.8,11.9H94c0.1,0,0.2,0,0.2,0c0,0,0.1-0.1,0.1-0.1c0,0,0-0.1,0-0.1
		c0,0,0,0-0.1-0.1c0,0-0.1,0-0.2,0h-0.2L93.8,11.9L93.8,11.9z"/>
</g>
</svg>
