<?xml version="1.0" encoding="utf-8"?>
<!-- Generator: Adobe Illustrator 26.0.1, SVG Export Plug-In . SVG Version: 6.00 Build 0)  -->
<svg version="1.1" id="Layer_1" xmlns="http://www.w3.org/2000/svg" xmlns:xlink="http://www.w3.org/1999/xlink" x="0px" y="0px"
	 viewBox="0 0 95 35" style="enable-background:new 0 0 95 35;" xml:space="preserve">
<style type="text/css">
	.st0{fill:#343741;}
</style>
<g>
	<path class="st0" d="M92,19.5v0.1V19.5l-2.1-6h-1.2l2.7,7.7v0.1c-0.2,0.7-0.6,1.6-1,1.9c-0.4,0.2-0.8,0.3-1.1,0.3
		c-0.1,0-0.5-0.1-0.6-0.1v0.9c0.2,0.1,0.5,0.1,0.8,0.1c0.6,0,1-0.1,1.5-0.4c0.5-0.4,1-1.3,1.3-2.1l2.8-8.5h-1.2L92,19.5L92,19.5z
		 M87.9,17.6v-0.7c0-1.3-0.3-2.3-1-2.8c-0.5-0.5-1.3-0.7-2.3-0.7c-0.5,0-1,0.1-1.4,0.3s-0.8,0.4-1,0.8c-0.5,0.7-0.9,1.7-0.9,3
		c0,1.4,0.4,2.4,1.1,3.2c0.8,0.7,1.8,0.9,2.4,0.9c1.8,0,2.6-1,3-1.8l-1-0.5c-0.2,0.5-0.8,1.3-2,1.3c-0.7,0-1.3-0.3-1.7-0.8
		c-0.4-0.5-0.6-1.2-0.6-2.1L87.9,17.6L87.9,17.6z M86.7,16.7h-4.1c0.1-1.6,0.8-2.4,2.1-2.4C86,14.3,86.7,15,86.7,16.7z M16.7,14.5
		c-0.6-0.8-1.5-1.2-2.5-1.2s-1.9,0.4-2.5,1.2c-0.5,0.7-0.9,1.8-0.9,2.9s0.3,2.1,0.9,2.9c0.6,0.8,1.5,1.2,2.5,1.2s1.9-0.4,2.5-1.2
		c0.5-0.7,0.9-1.8,0.9-2.9S17.2,15.2,16.7,14.5z M14.2,20.5c-1.3,0-2.1-1.2-2.1-3.1s0.8-3.1,2.1-3.1s2.1,1.2,2.1,3.1
		S15.5,20.5,14.2,20.5z M20.3,16.9c0.3-1.6,1.2-2.4,2.6-2.4v-1.1c-1.2,0-1.9,0.5-2.6,1.6v-1.5h-1.2v7.8h1.2V16.9L20.3,16.9z
		 M50.2,13.3c0-0.5,0.2-0.9,0.5-1.2s0.8-0.4,1.4-0.4c0.7,0,1.2,0.2,1.6,0.5c0.4,0.3,0.7,0.8,0.9,1.3l1.2-0.1
		c-0.5-1.7-1.7-2.7-3.6-2.7c-0.9,0-1.8,0.3-2.3,0.8S49,12.7,49,13.4c0,0.9,0.4,1.5,1,2c0.6,0.4,1.5,0.7,2.2,1c1.3,0.5,2.7,1,2.7,2.2
		c0,0.5-0.2,1-0.5,1.3c-0.4,0.4-1,0.5-1.7,0.5c-1.3,0-2.3-0.7-2.8-2.1l-1.2,0.3c0.2,0.5,0.7,1.4,1.3,1.9c0.7,0.6,1.5,0.9,2.6,0.9
		c1.3,0,2.2-0.3,2.9-1s0.8-1.5,0.8-2.1c0-0.9-0.4-1.5-1.1-2.1c-0.7-0.5-1.5-0.7-2.3-1C51.4,14.8,50.2,14.4,50.2,13.3L50.2,13.3z
		 M58.1,14.4h-1.2v-0.9h1.2v-2.6h1.2v2.6h1.3v1h-1.3v5.4c0,0.4,0.1,0.7,0.9,0.7h0.4v0.9c0,0-0.5,0.1-0.8,0.1c-0.5,0-1-0.1-1.2-0.2
		c-0.2-0.2-0.5-0.5-0.5-0.9C58.1,19.9,58.1,14.4,58.1,14.4L58.1,14.4z M79.2,19.8c0,0.4,0.1,0.7,0.9,0.7h0.4v0.9
		c0,0-0.5,0.1-0.8,0.1c-0.5,0-1-0.1-1.2-0.2c-0.3-0.3-0.5-0.6-0.5-1v-9.8h1.2V19.8L79.2,19.8z M40.7,15.5c0.4-0.4,1.3-1.2,2.2-1.2
		s1.2,0.4,1.2,1.3v5.6h1.2v-5.6c0-1.7-1.2-2.3-2.3-2.3c-0.8,0-1.6,0.4-2.3,1.2v-1h-1.2v7.8h1.2L40.7,15.5L40.7,15.5z M36.2,20.3
		c0.1,0.4,0.2,0.7,0.5,0.9c0.3,0.2,0.9,0.1,1.1,0.1v-0.9c-0.2,0-0.4-0.1-0.4-0.5v-4.2c0-0.8-0.3-1.4-0.9-1.8
		c-0.5-0.4-1.2-0.5-1.9-0.5c-1.7,0-2.6,1-2.9,1.6l1,0.5c0.1-0.4,0.6-1.2,1.9-1.2c1,0,1.6,0.5,1.6,1.4v0.4c-0.1,0.1-0.1,0.1-0.4,0.1
		c-1.5,0.2-2.4,0.4-3.1,0.9c-0.8,0.5-1.3,1.2-1.3,2.1c0,0.7,0.3,1.3,0.7,1.6c0.4,0.4,1,0.5,1.6,0.6C34.9,21.5,35.8,20.9,36.2,20.3z
		 M36.2,19.1c-0.1,0.7-1.3,1.5-2.4,1.5c-0.5-0.1-1.2-0.5-1.2-1.2c-0.1-1.3,0.9-1.8,3-2c0.1,0,0.4-0.1,0.5-0.1L36.2,19.1L36.2,19.1z
		 M66.7,20.3c0,0.4,0.2,0.7,0.5,0.9c0.3,0.2,0.9,0.1,1.1,0.1v-0.9c-0.2,0-0.4-0.1-0.4-0.5v-4.2c0-0.8-0.3-1.4-0.9-1.8
		c-0.5-0.4-1.2-0.5-1.9-0.5c-1.7,0-2.6,1-2.9,1.6l1,0.5c0.1-0.4,0.6-1.2,1.9-1.2c1,0,1.6,0.5,1.6,1.4v0.4c-0.1,0.1-0.1,0.1-0.4,0.1
		c-1.5,0.2-2.4,0.4-3.1,0.9c-0.8,0.5-1.3,1.2-1.3,2.1c0,0.7,0.3,1.3,0.7,1.6c0.4,0.4,1,0.5,1.6,0.6C65.4,21.5,66.2,20.9,66.7,20.3z
		 M66.7,19.1c-0.1,0.7-1.3,1.5-2.4,1.5c-0.5-0.1-1.2-0.5-1.2-1.2c-0.1-1.3,0.9-1.8,3-2c0.1,0,0.4-0.1,0.5-0.1L66.7,19.1L66.7,19.1z
		 M4.6,19.2L2,10.7H0v10.6h1.2v-9.7v0.1l2.9,9.6h1L8,11.7v-0.1v9.7h1.2V10.7h-2L4.6,19.2z M71.2,15.5c0.4-0.4,1.3-1.2,2.2-1.2
		s1.2,0.4,1.2,1.3v5.6h1.2v-5.6c0-1.7-1.2-2.3-2.3-2.3c-0.8,0-1.6,0.4-2.3,1.2v-1H70v7.8h1.2V15.5L71.2,15.5z M28.9,13.5l-0.3,0.8
		c-0.4-0.6-1-1-1.9-1c-1.4,0-3.4,0.9-3.4,4c0,3,1.9,4,3.3,4c0.8,0,1.5-0.4,1.9-1h0.1v1.5c0,1-0.9,1.7-1.8,1.7S25,23.3,24.4,23v1
		c0.5,0.2,1.5,0.4,2.3,0.4c2.2,0,3.2-1.2,3.2-2.9v-8H28.9z M28.6,19.1c-0.3,0.9-1.2,1.4-1.8,1.4c-1.3,0-2.1-0.8-2.1-3.1
		c0-1.9,0.8-3,2.1-3c0.7,0,1.3,0.3,1.8,1V19.1L28.6,19.1z"/>
</g>
</svg>
