<?xml version="1.0" encoding="utf-8"?>
<!-- Generator: Adobe Illustrator 26.0.1, SVG Export Plug-In . SVG Version: 6.00 Build 0)  -->
<svg version="1.1" id="Layer_1" xmlns="http://www.w3.org/2000/svg" xmlns:xlink="http://www.w3.org/1999/xlink" x="0px" y="0px"
	 viewBox="0 0 95 35" style="enable-background:new 0 0 95 35;" xml:space="preserve">
<style type="text/css">
	.st0{fill:#FFFFFF;}
</style>
<g>
	<path class="st0" d="M0.26,19.26c2.54-3.61,5.09-7.21,7.62-10.82c0.26-0.37,0.4-0.24,0.64-0.01c2.22,2.23,4.45,4.46,6.68,6.69
		c0.1,0.1,0.16,0.23,0.28,0.41c0.72-1.03,1.37-1.96,2.02-2.88c0.99-1.41,1.99-2.82,2.97-4.24c0.18-0.26,0.31-0.28,0.54-0.05
		c3.74,3.79,7.48,7.57,11.22,11.35c0.01,0.01,0.01,0.03,0.02,0.04c-0.72,0.46-2.27,0.43-2.92-0.06c-3.38-2.49-6.77-4.98-10.19-7.5
		c-1.05,1.22-2.1,2.45-3.16,3.69c3.44,3.46,6.89,6.87,10.31,10.32c-0.04,0.04-0.07,0.07-0.11,0.11c-3.93-2.84-7.85-5.67-11.8-8.53
		c-0.5,0.56-0.98,1.1-1.47,1.64c-0.03-0.02-0.05-0.05-0.08-0.07c0.4-0.59,0.81-1.17,1.24-1.79c-2.5-1.8-4.97-3.6-7.48-5.4
		c-0.95,1.1-1.87,2.17-2.8,3.24c-1.14,1.32-2.29,2.63-3.44,3.94C0.31,19.31,0.28,19.28,0.26,19.26z"/>
	<path class="st0" d="M22.57,8.66c3.04,0,5.96-0.08,8.88,0.02c3.63,0.13,6.77,3.13,7.21,6.72c0.38,3.13-0.78,5.58-3.24,7.54
		c1.09,1.11,2.2,2.24,3.31,3.36c-0.03,0.03-0.07,0.06-0.1,0.09c-2.49-1.8-4.99-3.6-7.56-5.45c1.09-0.11,1.99-0.45,2.76-1.12
		c1.34-1.17,1.85-3.06,1.27-4.75c-0.57-1.68-2.11-2.81-3.88-2.97c-1.82-0.16-3.63-0.37-5.44-0.59c-0.24-0.03-0.5-0.18-0.67-0.35
		C24.27,10.37,23.46,9.55,22.57,8.66z"/>
	<path class="st0" d="M49.21,16.43c-0.63,0-1.22,0-1.83,0c0-1.85,0-3.68,0-5.52c-0.03-0.01-0.07-0.01-0.1-0.02
		c-0.35,1.84-0.69,3.68-1.04,5.53c-0.5,0-0.96,0-1.47,0c-0.35-1.83-0.69-3.67-1.04-5.5c-0.03,0-0.06,0.01-0.09,0.01
		c0,1.81,0,3.63,0,5.47c-0.62,0-1.22,0-1.86,0c0-2.57,0-5.16,0-7.79c0.89,0,1.77-0.01,2.66,0.01c0.1,0,0.26,0.19,0.29,0.32
		c0.24,1.3,0.46,2.6,0.69,3.9c0.01,0.06,0.04,0.11,0.13,0.17c0.26-1.46,0.52-2.92,0.79-4.39c0.97,0,1.91,0,2.88,0
		C49.21,11.22,49.21,13.81,49.21,16.43z"/>
	<path class="st0" d="M58.59,16.44c-0.74,0-1.44,0-2.2,0c-0.43-1.5-0.85-3.01-1.28-4.52c-0.03,0-0.05,0-0.08,0c0,1.49,0,2.98,0,4.5
		c-0.67,0-1.28,0-1.92,0c0-2.58,0-5.16,0-7.76c0.75,0,1.5,0,2.28,0c0.42,1.52,0.84,3.05,1.26,4.58c0.02,0,0.05-0.01,0.07-0.01
		c0-1.51,0-3.02,0-4.56c0.63,0,1.23,0,1.87,0C58.59,11.22,58.59,13.81,58.59,16.44z"/>
	<path class="st0" d="M65.74,18.86c0.69,0,1.34,0,2.05,0c0,0.24,0,0.47,0,0.7c0,1.59,0,3.18,0,4.77c0,0.2,0,0.41,0.02,0.61
		c0.04,0.32,0.25,0.5,0.57,0.5c0.29,0,0.51-0.13,0.56-0.45c0.03-0.21,0.06-0.43,0.06-0.65c0.01-1.67,0-3.33,0-5c0-0.15,0-0.3,0-0.47
		c0.69,0,1.34,0,1.98,0c0.02,0.03,0.05,0.06,0.05,0.09c-0.01,1.9,0,3.8-0.06,5.7c-0.04,1.3-0.68,1.95-1.97,2.12
		c-0.41,0.05-0.85,0.05-1.26,0c-1.34-0.18-1.98-0.89-2-2.31C65.71,22.61,65.74,20.75,65.74,18.86z"/>
	<path class="st0" d="M89.57,24.38c0.67,0,1.3,0,1.94,0c0.01,0.12,0.03,0.23,0.04,0.33c0.05,0.34,0.14,0.69,0.55,0.69
		c0.22,0,0.53-0.13,0.65-0.3c0.21-0.31,0.19-0.7-0.1-0.98c-0.2-0.19-0.45-0.33-0.7-0.46c-0.4-0.2-0.84-0.34-1.22-0.57
		c-0.93-0.55-1.25-1.5-0.99-2.74c0.2-0.92,0.84-1.5,1.87-1.61c0.52-0.06,1.07-0.05,1.58,0.04c1.06,0.19,1.57,0.96,1.57,2.29
		c-0.62,0-1.24,0-1.88,0c-0.01-0.1-0.03-0.2-0.04-0.3c-0.03-0.31-0.1-0.63-0.46-0.67c-0.19-0.02-0.47,0.09-0.59,0.24
		c-0.23,0.27-0.22,0.63,0.01,0.9c0.18,0.21,0.43,0.36,0.67,0.49c0.36,0.19,0.75,0.31,1.11,0.49c1.09,0.53,1.55,1.44,1.38,2.65
		c-0.16,1.12-0.71,1.69-2,1.86c-0.65,0.09-1.35,0.06-1.99-0.07C89.98,26.46,89.55,25.71,89.57,24.38z"/>
	<path class="st0" d="M55.4,24.38c0.04,0.2,0.07,0.4,0.11,0.59c0.08,0.35,0.35,0.53,0.65,0.44c0.22-0.06,0.48-0.3,0.56-0.51
		c0.15-0.43-0.04-0.8-0.44-1.02c-0.37-0.2-0.75-0.38-1.14-0.53c-1.64-0.64-1.85-2.11-1.34-3.42c0.36-0.93,1.18-1.19,2.07-1.25
		c0.43-0.02,0.88,0.01,1.3,0.11c1.05,0.24,1.52,0.99,1.49,2.27c-0.62,0-1.23,0-1.88,0c-0.01-0.15-0.01-0.28-0.03-0.42
		c-0.06-0.35-0.22-0.62-0.64-0.58c-0.33,0.03-0.64,0.39-0.53,0.75c0.09,0.28,0.3,0.58,0.54,0.75c0.35,0.24,0.78,0.38,1.18,0.55
		c1.38,0.6,1.91,1.76,1.48,3.2c-0.24,0.79-0.82,1.23-1.58,1.35c-0.64,0.1-1.31,0.12-1.95,0.04c-1.32-0.17-1.88-0.97-1.74-2.33
		C54.13,24.38,54.77,24.38,55.4,24.38z"/>
	<path class="st0" d="M88.99,25c0,0.58,0,1.11,0,1.66c-1.56,0-3.11,0-4.69,0c0-2.6,0-5.18,0-7.79c1.51,0,3.03,0,4.58,0
		c0,0.53,0,1.06,0,1.64c-0.85,0-1.69,0-2.54,0c0,0.46,0,0.87,0,1.32c0.8,0,1.59,0,2.39,0c0,0.55,0,1.06,0,1.6c-0.8,0-1.57,0-2.38,0
		c0,0.52,0,1.01,0,1.56C87.22,25,88.1,25,88.99,25z"/>
	<path class="st0" d="M83.41,21.64c-0.65,0-1.27,0-1.91,0c-0.04-0.38-0.03-0.75-0.12-1.1c-0.05-0.18-0.28-0.44-0.43-0.44
		c-0.19,0-0.46,0.18-0.55,0.36c-0.12,0.22-0.13,0.51-0.13,0.77c-0.01,1.12,0,2.24,0.01,3.36c0,0.17,0.02,0.37,0.12,0.49
		c0.14,0.16,0.35,0.33,0.54,0.33c0.15,0,0.41-0.22,0.44-0.38c0.1-0.48,0.12-0.98,0.17-1.49c0.62,0,1.25,0,1.89,0
		c0,0.45,0.06,0.91-0.01,1.34c-0.19,1.2-0.94,1.84-2.18,1.89c-0.46,0.02-0.94-0.01-1.39-0.09c-0.89-0.16-1.36-0.77-1.54-1.61
		c-0.3-1.42-0.3-2.85-0.06-4.27c0.28-1.64,1.16-2.25,3.01-2.1C82.89,18.84,83.57,19.8,83.41,21.64z"/>
	<path class="st0" d="M59.68,8.64c1.55,0,3.06,0,4.6,0c0,0.54,0,1.06,0,1.63c-0.86,0-1.7,0-2.55,0c0,0.46,0,0.88,0,1.34
		c0.78,0,1.57,0,2.39,0c0,0.55,0,1.06,0,1.6c-0.78,0-1.57,0-2.38,0c0,0.53,0,1.03,0,1.57c0.87,0,1.75,0,2.65,0c0,0.57,0,1.07,0,1.62
		c-1.56,0-3.11,0-4.7,0C59.68,13.84,59.68,11.25,59.68,8.64z"/>
	<path class="st0" d="M48.22,18.86c1.54,0,3.05,0,4.57,0c0,0.54,0,1.07,0,1.64c-0.84,0-1.68,0-2.55,0c0,0.45,0,0.86,0,1.32
		c0.77,0,1.56,0,2.37,0c0,0.55,0,1.06,0,1.61c-0.78,0-1.57,0-2.38,0c0,0.54,0,1.03,0,1.56c0.88,0,1.74,0,2.64,0
		c0,0.57,0,1.11,0,1.67c-1.54,0-3.08,0-4.66,0C48.22,24.07,48.22,21.48,48.22,18.86z"/>
	<path class="st0" d="M77.73,16.42c0-2.6,0-5.17,0-7.77c0.66,0,1.31,0,1.99,0c0,2.03,0,4.05,0,6.12c0.85,0,1.66,0,2.5,0
		c0,0.58,0,1.1,0,1.65C80.74,16.42,79.26,16.42,77.73,16.42z"/>
	<path class="st0" d="M52.12,16.43c-0.67,0-1.31,0-1.98,0c0-2.59,0-5.17,0-7.78c0.65,0,1.3,0,1.98,0
		C52.12,11.22,52.12,13.81,52.12,16.43z"/>
	<path class="st0" d="M10.08,8.67c3.06,0,6,0,9.02,0c-0.45,0.64-0.86,1.25-1.31,1.84c-0.07,0.09-0.28,0.1-0.42,0.09
		c-1.27-0.13-2.54-0.27-3.81-0.41c-0.46-0.05-0.93-0.11-1.39-0.14c-0.48-0.04-0.9-0.12-1.23-0.54C10.72,9.23,10.42,9,10.08,8.67z"/>
	<path class="st0" d="M6.5,8.67c-0.22,0.52-0.48,0.75-1.1,0.66C3.61,9.08,1.8,8.92,0,8.67C2.15,8.67,4.3,8.67,6.5,8.67z"/>
	<path class="st0" d="M0.33,19.33c-0.06,0.03-0.11,0.06-0.17,0.08c-0.01-0.02-0.02-0.03-0.03-0.05c0.04-0.04,0.08-0.07,0.12-0.11
		C0.28,19.28,0.31,19.31,0.33,19.33z"/>
	<path class="st0" d="M12.89,19.42c-0.06,0.02-0.11,0.05-0.17,0.07c0.03-0.05,0.06-0.09,0.09-0.14
		C12.83,19.37,12.86,19.4,12.89,19.42z"/>
	<path class="st0" d="M47.11,25.42c-0.04-0.4,0-0.81-0.02-1.21c-0.04-0.8-0.34-1.17-1.08-1.39c1.02-0.56,1.33-1.25,1.11-2.42
		c-0.17-0.89-0.63-1.44-1.54-1.5c-1.24-0.09-2.48-0.02-3.71-0.02c0,2.62,0,5.21,0,7.78c0.68,0,1.33,0,2.02,0c0-1.05,0-2.07,0-3.09
		c0.98-0.1,1.13,0.03,1.18,0.92c0.01,0.17,0,0.34,0.01,0.51c0.03,0.45,0.04,0.9,0.11,1.35c0.02,0.12,0.18,0.32,0.29,0.32
		c0.65,0.03,1.3,0.02,1.86,0.02C47.25,26.24,47.15,25.83,47.11,25.42z M45.12,21.31c-0.04,0.67-0.39,0.9-1.23,0.79
		c0-0.58,0-1.16,0-1.77C44.88,20.29,45.16,20.53,45.12,21.31z"/>
	<path class="st0" d="M70.52,15.76c-0.04-0.37-0.03-0.75-0.04-1.12c-0.02-0.88,0.01-1.78-1.17-2.08c0.74-0.28,1-0.54,1.14-1.21
		c0.06-0.3,0.07-0.62,0.05-0.93c-0.04-1.03-0.7-1.73-1.73-1.77c-1.01-0.04-2.03-0.02-3.04-0.03c-0.18,0-0.36,0-0.53,0
		c0,2.65,0,5.23,0,7.81c0.68,0,1.33,0,2.03,0c0-1.04,0-2.06,0-3.07c1.03-0.09,1.19,0.05,1.21,1.03c0,0.19-0.01,0.37,0,0.56
		c0.03,0.4,0.04,0.81,0.1,1.2c0.02,0.11,0.18,0.27,0.28,0.28c0.64,0.03,1.29,0.01,1.92,0.01C70.66,16.18,70.55,15.98,70.52,15.76z
		 M67.26,11.91c0-0.59,0-1.19,0-1.82c0.94-0.05,1.21,0.16,1.22,0.88C68.48,11.71,68.18,11.95,67.26,11.91z"/>
	<path class="st0" d="M77.27,25.52c-0.03-0.4,0.01-0.81-0.02-1.21c-0.05-0.9-0.34-1.29-1.1-1.48c0.24-0.16,0.54-0.27,0.71-0.49
		c0.56-0.69,0.53-1.5,0.3-2.3c-0.21-0.73-0.78-1.12-1.49-1.16c-1.22-0.06-2.46-0.02-3.67-0.02c0,2.62,0,5.21,0,7.8
		c0.67,0,1.31,0,2,0c0-1.05,0-2.09,0-3.11c1.03-0.07,1.18,0.07,1.2,1.03c0.01,0.57,0.04,1.15,0.1,1.72
		c0.01,0.13,0.16,0.36,0.25,0.36c0.66,0.03,1.32,0.02,1.89,0.02C77.39,26.26,77.3,25.9,77.27,25.52z M75.13,21.79
		c-0.25,0.44-0.67,0.35-1.1,0.34c0-0.59,0-1.17,0-1.8c0.42,0,0.87-0.12,1.12,0.31C75.36,21,75.34,21.41,75.13,21.79z"/>
	<path class="st0" d="M64.98,22.78c0-0.4,0.02-0.81,0-1.21c-0.15-2.25-1.26-3.15-3.49-2.82c-0.96,0.14-1.61,0.74-1.84,1.79
		c-0.31,1.45-0.32,2.91-0.01,4.35c0.25,1.18,0.83,1.7,2.02,1.87c0.37,0.05,0.75,0.05,1.12,0c1.2-0.16,1.76-0.66,2.02-1.86
		c0.15-0.69,0.19-1.41,0.27-2.12C65.05,22.79,65.01,22.78,64.98,22.78z M62.83,24.75c-0.03,0.36-0.15,0.69-0.6,0.69
		c-0.45,0-0.59-0.35-0.6-0.7c-0.03-1.32-0.03-2.64,0-3.96c0.01-0.36,0.14-0.73,0.63-0.72c0.45,0.02,0.54,0.37,0.57,0.72
		c0.06,0.67,0.09,1.33,0.13,2.01C62.92,23.44,62.89,24.1,62.83,24.75z"/>
	<path class="st0" d="M77.26,16.34c-0.6-2.49-1.19-4.97-1.8-7.46c-0.03-0.11-0.23-0.24-0.35-0.25c-0.65-0.02-1.31,0-1.97-0.02
		c-0.25-0.01-0.34,0.07-0.39,0.33c-0.36,1.56-0.74,3.11-1.11,4.66c-0.22,0.93-0.45,1.86-0.67,2.8c0.74,0,1.44,0,2.13,0
		c0.07-0.46,0.14-0.88,0.21-1.3c0.56,0,1.07,0,1.6,0c0.08,0.45,0.15,0.88,0.23,1.34c0.59,0,1.15,0,1.71,0c0.12,0,0.24,0,0.4,0
		C77.26,16.37,77.27,16.35,77.26,16.34z M73.55,13.51c0.18-1.07,0.36-2.12,0.54-3.18c0.02,0,0.04,0,0.06,0.01
		c0.17,1.05,0.35,2.1,0.53,3.17C74.29,13.51,73.95,13.51,73.55,13.51z"/>
</g>
</svg>
