<?xml version="1.0" encoding="utf-8"?>
<!-- Generator: Adobe Illustrator 26.0.1, SVG Export Plug-In . SVG Version: 6.00 Build 0)  -->
<svg version="1.1" id="Layer_1" xmlns="http://www.w3.org/2000/svg" xmlns:xlink="http://www.w3.org/1999/xlink" x="0px" y="0px"
	 viewBox="0 0 95 35" style="enable-background:new 0 0 95 35;" xml:space="preserve">
<style type="text/css">
	.st0{fill:#343741;}
</style>
<g>
	<path class="st0" d="M33.5,19L33,20.6h0c-0.1-0.4-0.3-0.9-0.6-1.6l-3-7.6h-3v12.2h2v-7.5c0-0.5,0-1,0-1.7c0-0.3,0-0.6-0.1-0.8h0
		c0.1,0.5,0.2,0.8,0.3,1l3.6,8.9h1.4l3.6-9c0.1-0.2,0.2-0.6,0.2-1h0c0,0.9-0.1,1.7-0.1,2.2v7.7h2.1V11.4h-2.9L33.5,19z M41.5,14.8h2
		v8.7h-2V14.8z M42.5,11.2c-0.3,0-0.6,0.1-0.9,0.3c-0.2,0.2-0.4,0.5-0.4,0.8c0,0.3,0.1,0.6,0.4,0.8c0.2,0.2,0.5,0.3,0.9,0.3
		c0.3,0,0.6-0.1,0.9-0.3c0.2-0.2,0.4-0.5,0.4-0.8s-0.1-0.6-0.4-0.8C43.2,11.3,42.9,11.2,42.5,11.2 M50.8,14.8
		c-0.4-0.1-0.8-0.1-1.1-0.1c-0.9,0-1.8,0.2-2.5,0.6c-0.7,0.4-1.3,1-1.6,1.7c-0.4,0.7-0.6,1.6-0.6,2.5c0,0.8,0.2,1.6,0.6,2.2
		c0.4,0.7,0.9,1.2,1.5,1.6c0.6,0.4,1.4,0.6,2.2,0.6c1,0,1.8-0.2,2.5-0.6l0,0v-1.9l-0.1,0.1c-0.3,0.2-0.6,0.4-1,0.5
		c-0.4,0.1-0.7,0.2-1,0.2c-0.8,0-1.5-0.2-1.9-0.8c-0.5-0.5-0.7-1.2-0.7-2.1c0-0.9,0.2-1.6,0.7-2.1c0.5-0.5,1.1-0.8,1.9-0.8
		c0.7,0,1.3,0.2,2,0.7l0.1,0.1v-2l0,0C51.5,15,51.2,14.8,50.8,14.8 M57.5,14.7c-0.5,0-1,0.2-1.4,0.5c-0.3,0.3-0.6,0.7-0.8,1.2h0
		v-1.5h-2v8.7h2v-4.5c0-0.8,0.2-1.4,0.5-1.8c0.3-0.5,0.8-0.7,1.3-0.7c0.2,0,0.4,0,0.6,0.1c0.2,0.1,0.4,0.1,0.5,0.2l0.1,0.1v-2l0,0
		C58.2,14.7,57.9,14.7,57.5,14.7 M63.1,14.7c-1.4,0-2.6,0.4-3.4,1.3c-0.8,0.8-1.2,2-1.2,3.4c0,1.4,0.4,2.5,1.2,3.3
		c0.8,0.8,1.9,1.2,3.2,1.2c1.4,0,2.5-0.4,3.3-1.3c0.8-0.8,1.2-2,1.2-3.4c0-1.4-0.4-2.5-1.1-3.3C65.6,15,64.5,14.7,63.1,14.7
		 M64.7,21.4c-0.4,0.5-1,0.7-1.7,0.7s-1.3-0.2-1.8-0.8c-0.4-0.5-0.6-1.2-0.6-2.1c0-0.9,0.2-1.6,0.6-2.1c0.4-0.5,1-0.8,1.7-0.8
		c0.7,0,1.3,0.2,1.7,0.7s0.6,1.2,0.6,2.1C65.3,20.1,65.1,20.9,64.7,21.4 M72,18.5c-0.6-0.3-1.1-0.5-1.2-0.6
		c-0.2-0.2-0.2-0.4-0.2-0.7c0-0.2,0.1-0.5,0.3-0.6s0.5-0.2,0.9-0.2c0.3,0,0.7,0.1,1.1,0.2c0.3,0.1,0.7,0.2,0.9,0.4l0.1,0.1V15l0,0
		c-0.2-0.1-0.6-0.2-0.9-0.3c-0.4-0.1-0.7-0.1-1-0.1c-1,0-1.8,0.2-2.4,0.8c-0.6,0.5-0.9,1.1-0.9,1.9c0,0.4,0.1,0.8,0.2,1.1
		s0.3,0.6,0.6,0.8c0.3,0.2,0.7,0.5,1.3,0.7c0.5,0.2,0.8,0.4,1.1,0.5s0.4,0.3,0.5,0.4c0.1,0.1,0.1,0.3,0.1,0.5c0,0.6-0.4,0.9-1.3,0.9
		c-0.3,0-0.7-0.1-1.1-0.2c-0.4-0.1-0.8-0.3-1.1-0.6l-0.1-0.1v2l0,0c0.3,0.1,0.7,0.2,1.1,0.3c0.4,0.1,0.8,0.1,1.2,0.1
		c1.1,0,1.9-0.2,2.5-0.8c0.6-0.5,1-1.1,1-2c0-0.6-0.2-1.1-0.5-1.5C73.4,19.2,72.8,18.8,72,18.5 M79.7,14.7c-1.4,0-2.6,0.4-3.4,1.3
		c-0.8,0.8-1.2,2-1.2,3.4c0,1.4,0.4,2.5,1.2,3.3c0.8,0.8,1.9,1.2,3.2,1.2c1.4,0,2.5-0.4,3.3-1.3c0.8-0.8,1.2-2,1.2-3.4
		c0-1.4-0.4-2.5-1.1-3.3C82.2,15,81.1,14.7,79.7,14.7 M81.4,21.4c-0.4,0.5-1,0.7-1.7,0.7c-0.8,0-1.3-0.2-1.8-0.8
		c-0.4-0.5-0.6-1.2-0.6-2.1c0-0.9,0.2-1.6,0.6-2.1c0.4-0.5,1-0.8,1.7-0.8c0.7,0,1.3,0.2,1.7,0.7s0.6,1.2,0.6,2.1
		C82,20.1,81.8,20.9,81.4,21.4 M95,16.5v-1.7h-2.1v-2.6l-0.1,0l-2,0.6l0,0v2h-3.1v-1.1c0-0.5,0.1-0.9,0.3-1.1c0.2-0.3,0.6-0.4,1-0.4
		c0.3,0,0.6,0.1,0.9,0.2l0.1,0v-1.8l0,0c-0.3-0.1-0.7-0.2-1.1-0.2c-0.6,0-1.1,0.1-1.6,0.4c-0.5,0.3-0.8,0.6-1.1,1.1
		c-0.3,0.5-0.4,1-0.4,1.6v1.2h-1.4v1.7h1.4v7h2.1v-7h3.1V21c0,1.8,0.9,2.8,2.6,2.8c0.3,0,0.6,0,0.9-0.1c0.3-0.1,0.5-0.1,0.6-0.2l0,0
		v-1.7l-0.1,0.1c-0.1,0.1-0.2,0.1-0.4,0.2c-0.2,0-0.3,0.1-0.4,0.1c-0.4,0-0.7-0.1-0.9-0.3c-0.2-0.2-0.3-0.6-0.3-1.1v-4.1H95z"/>
	<path class="st0" d="M0,7.4h9.6V17H0V7.4z"/>
	<path class="st0" d="M10.6,7.4h9.6V17h-9.6V7.4z"/>
	<path class="st0" d="M0,18h9.6v9.6H0V18z"/>
	<path class="st0" d="M10.6,18h9.6v9.6h-9.6V18z"/>
</g>
</svg>
