<?xml version="1.0" encoding="utf-8"?>
<!-- Generator: Adobe Illustrator 26.0.1, SVG Export Plug-In . SVG Version: 6.00 Build 0)  -->
<svg version="1.1" id="Layer_1" xmlns="http://www.w3.org/2000/svg" xmlns:xlink="http://www.w3.org/1999/xlink" x="0px" y="0px"
	 viewBox="0 0 95 35" style="enable-background:new 0 0 95 35;" xml:space="preserve">
<style type="text/css">
	.st0{fill:#104076;}
	.st1{fill:#343741;}
</style>
<path class="st0" d="M-39.1,613.7"/>
<path class="st1" d="M42.1,11.6c0,3.3,0,6.6,0,9.9c-0.1-0.1-0.1-0.1-0.1-0.2c-1.8-3.2-3.7-6.4-5.5-9.6c-0.1-0.1-0.1-0.1-0.2-0.1
	c-0.8,0-1.6,0-2.5,0c-0.1,0-0.1,0-0.2,0c0,4.2,0,8.5,0,12.7c0.7,0,1.3,0,2,0c0-3.3,0-6.6,0-9.9c0.1,0,0.1,0.1,0.1,0.2
	c1.8,3.2,3.7,6.4,5.5,9.6c0.1,0.1,0.1,0.2,0.3,0.2c0.8,0,1.6,0,2.4,0c0.1,0,0.1,0,0.2,0c0-4.2,0-8.5,0-12.7
	C43.5,11.6,42.8,11.6,42.1,11.6z"/>
<path class="st1" d="M63.4,16.5C63.4,16.4,63.4,16.4,63.4,16.5c0-0.6,0-1.1,0-1.6c0-0.1,0-0.1-0.1-0.1c-1-0.2-2-0.3-3-0.3
	c-0.7,0-1.3,0.1-2,0.3c-1.3,0.4-2,1.3-2,2.6c0,0.6,0.1,1.1,0.5,1.6c0.3,0.4,0.7,0.6,1.2,0.8c0.7,0.3,1.5,0.5,2.3,0.6
	c0.4,0.1,0.9,0.2,1.3,0.5c0.4,0.3,0.4,1,0,1.3c-0.1,0.1-0.3,0.3-0.5,0.3c-0.4,0.1-0.8,0.2-1.2,0.2c-0.9,0.1-1.7-0.1-2.6-0.2
	c-0.3-0.1-0.6-0.1-0.9-0.2c0,0.1,0,0.1,0,0.2c0,0.5,0,1,0,1.5c0,0.1,0,0.2,0.2,0.2c0.8,0.1,1.5,0.2,2.3,0.3c0.9,0.1,1.7,0.1,2.6-0.1
	c0.6-0.1,1.2-0.4,1.7-0.8c0.8-0.7,1-1.6,0.9-2.6c-0.1-0.7-0.4-1.3-1-1.7c-0.2-0.2-0.5-0.3-0.8-0.4c-0.7-0.2-1.4-0.4-2.1-0.6
	c-0.4-0.1-0.9-0.2-1.2-0.4c-0.2-0.1-0.3-0.3-0.4-0.5c-0.1-0.4,0.1-0.7,0.4-0.9c0.4-0.2,0.8-0.3,1.2-0.3c0.9-0.1,1.8,0,2.6,0.2
	C62.9,16.4,63.1,16.4,63.4,16.5z"/>
<path class="st1" d="M42.1,11.6c0.7,0,1.4,0,2,0c0,4.2,0,8.4,0,12.7c-0.1,0-0.1,0-0.2,0c-0.8,0-1.6,0-2.4,0c-0.1,0-0.2,0-0.3-0.2
	c-1.8-3.2-3.7-6.4-5.5-9.6c0-0.1-0.1-0.1-0.1-0.2c0,3.3,0,6.6,0,9.9c-0.7,0-1.3,0-2,0c0-4.2,0-8.4,0-12.7c0.1,0,0.1,0,0.2,0
	c0.8,0,1.6,0,2.5,0c0.1,0,0.2,0,0.2,0.1c1.8,3.2,3.7,6.4,5.5,9.6c0,0,0.1,0.1,0.1,0.2C42.1,18.1,42.1,14.9,42.1,11.6z"/>
<path class="st1" d="M63.4,16.5c-0.2,0-0.5-0.1-0.7-0.1c-0.9-0.2-1.7-0.2-2.6-0.2c-0.4,0-0.9,0.1-1.2,0.3c-0.4,0.2-0.5,0.6-0.4,0.9
	c0.1,0.2,0.2,0.4,0.4,0.5c0.4,0.2,0.8,0.3,1.2,0.4c0.7,0.2,1.4,0.4,2.1,0.6c0.3,0.1,0.5,0.2,0.8,0.4c0.6,0.4,1,0.9,1,1.7
	c0.1,1-0.1,1.9-0.9,2.6c-0.5,0.4-1.1,0.6-1.7,0.8c-0.9,0.2-1.7,0.2-2.6,0.1c-0.8-0.1-1.5-0.2-2.3-0.3c-0.1,0-0.2-0.1-0.2-0.2
	c0-0.5,0-1,0-1.5c0,0,0-0.1,0-0.2c0.3,0.1,0.6,0.1,0.9,0.2c0.9,0.2,1.7,0.3,2.6,0.2c0.4,0,0.8-0.1,1.2-0.2c0.2-0.1,0.4-0.2,0.5-0.3
	c0.4-0.4,0.4-1,0-1.3c-0.4-0.3-0.8-0.4-1.3-0.5c-0.8-0.2-1.6-0.3-2.3-0.6c-0.4-0.2-0.9-0.4-1.2-0.8c-0.4-0.5-0.5-1-0.5-1.6
	c0-1.3,0.7-2.2,2-2.6c0.6-0.2,1.3-0.3,2-0.3c1,0,2,0.1,3,0.3c0.1,0,0.1,0,0.1,0.1C63.4,15.4,63.4,15.9,63.4,16.5
	C63.4,16.4,63.4,16.4,63.4,16.5z"/>
<path class="st1" d="M71.9,14.6c0-1.3,0-2.5,0-3.8c0.7,0,1.4,0,2.1,0c0,0.1,0,0.1,0,0.2c0,4.3,0,8.7,0,13c0,0.2,0,0.3-0.2,0.3
	c-1.1,0.2-2.2,0.3-3.3,0.3c-0.9,0-1.8-0.1-2.6-0.5c-1.2-0.5-2.1-1.4-2.5-2.7c-0.4-1.4-0.4-2.8,0.2-4.1c0.6-1.5,1.7-2.3,3.3-2.6
	c0.8-0.2,1.7-0.1,2.6,0C71.6,14.6,71.8,14.6,71.9,14.6z M71.9,22.6c0-2.1,0-4.1,0-6.2c0-0.1,0-0.2-0.1-0.2c-0.7-0.1-1.3-0.2-2-0.1
	c-1.1,0.1-1.8,0.7-2.2,1.7c-0.3,0.8-0.3,1.5-0.2,2.3c0.1,0.5,0.2,1,0.5,1.4c0.5,0.8,1.3,1.1,2.2,1.2c0.6,0,1.2,0,1.8,0
	C71.9,22.7,71.9,22.7,71.9,22.6z"/>
<path class="st1" d="M92.8,28.6c0-1.4,0-2.8,0-4.2c-0.3,0-0.5,0.1-0.8,0.1c-1.1,0.1-2.1,0-3.1-0.4c-1.1-0.4-1.9-1.2-2.4-2.3
	c-0.6-1.5-0.6-3-0.1-4.5c0.5-1.4,1.6-2.2,3.1-2.6c1-0.2,2-0.2,3-0.2c0.8,0,1.6,0.1,2.4,0.1c0,0,0.1,0,0.1,0c0,0.1,0,0.1,0,0.2
	c0,4.2,0,8.4,0,12.6c0,0.1,0,0.2-0.2,0.3c-0.6,0.3-1.2,0.5-1.8,0.8C92.9,28.5,92.9,28.5,92.8,28.6z M92.8,22.5c0-1.9,0-3.9,0-5.8
	c0-0.1,0-0.3,0-0.4c0-0.1-0.2,0-0.4,0c0,0-0.1,0-0.1,0c-0.6,0-1.2-0.1-1.7,0.1c-1.1,0.2-1.9,0.8-2.2,2c-0.2,0.9-0.2,1.8,0,2.6
	c0.3,1.1,1,1.7,2.1,1.9c0.8,0.1,1.5,0,2.3,0C92.8,22.6,92.8,22.6,92.8,22.5z"/>
<path class="st1" d="M52.3,18.2c0-0.4,0-0.9-0.1-1.3c-0.1-0.4-0.3-0.6-0.7-0.7c-0.4-0.1-0.9-0.1-1.3-0.2c-1.1-0.1-2.1,0.1-3.2,0.3
	c-0.2,0-0.3,0.1-0.5,0.1c0-0.6,0-1.1,0-1.7c0.3-0.1,0.7-0.1,1-0.2c1.1-0.2,2.1-0.2,3.2-0.2c0.6,0,1.2,0.1,1.8,0.3
	c1.1,0.3,1.7,1,1.8,2.1c0,0.3,0.1,0.6,0.1,0.9c0,2.1,0,4.2,0,6.3c0,0.1,0,0.1,0,0.2c-0.3,0-0.5,0.1-0.8,0.1
	c-1.3,0.1-2.6,0.2-3.9,0.1c-0.7,0-1.4-0.1-2-0.3c-1.1-0.4-1.7-1.1-1.8-2.2c-0.1-0.5-0.1-1,0-1.5c0.2-0.9,0.8-1.4,1.6-1.8
	c0.7-0.3,1.4-0.4,2.1-0.4c0.8,0,1.6,0,2.4,0C52.2,18.2,52.2,18.2,52.3,18.2z M52.4,19.7c-0.7,0-1.5,0-2.2,0c-0.5,0-0.9,0.1-1.4,0.2
	c-0.5,0.2-0.8,0.5-0.9,1c0,0.2,0,0.4,0,0.5c0,0.5,0.3,0.9,0.7,1.1c0.2,0.1,0.5,0.2,0.8,0.2c1,0.2,1.9,0.1,2.9,0
	C52.4,21.8,52.4,20.8,52.4,19.7z"/>
<path class="st1" d="M82.2,18.2c0-0.4,0-0.8-0.1-1.2c-0.1-0.4-0.3-0.7-0.7-0.8c-0.4-0.1-0.9-0.1-1.3-0.2c-1.1-0.1-2.1,0.1-3.2,0.3
	c-0.2,0-0.3,0.1-0.5,0.1c0,0,0-0.1,0-0.1c0-0.5,0-1,0-1.4c0-0.1,0-0.1,0.1-0.2c1.5-0.3,2.9-0.4,4.4-0.3c0.5,0,1,0.1,1.4,0.2
	c1.1,0.3,1.7,1,1.8,2.1c0,0.3,0.1,0.6,0.1,0.9c0,2.1,0,4.2,0,6.3c0,0.1,0,0.1,0,0.2c-0.3,0-0.5,0.1-0.8,0.1
	c-1.3,0.1-2.6,0.2-3.9,0.1c-0.7,0-1.4-0.1-2-0.3c-1.1-0.4-1.6-1.1-1.8-2.2c-0.1-0.5-0.1-1,0-1.5c0.2-0.9,0.8-1.5,1.7-1.9
	c0.6-0.2,1.3-0.3,2-0.4c0.8,0,1.6,0,2.4,0C82.1,18.2,82.1,18.2,82.2,18.2z M80.9,19.7c-0.3,0-0.5,0-0.8,0c-0.5,0-0.9,0.1-1.4,0.2
	c-0.3,0.1-0.6,0.3-0.8,0.7c-0.4,0.9,0,1.9,1,2.2c0.4,0.1,0.9,0.2,1.3,0.2c0.7,0,1.4,0,2,0c0-1.1,0-2.1,0-3.1
	C81.8,19.7,81.3,19.7,80.9,19.7z"/>
<path class="st1" d="M16.5,23.1L16.5,23.1c-0.2,0.5-0.6,0.9-1.2,0.9c-0.5,0-1-0.3-1.2-0.8l0,0l-1.6-4.2l2.6-7
	c0.2-0.5,0.6-0.8,1.2-0.8c0.6,0,1.1,0.4,1.2,0.9l1.5,3.9L16.5,23.1z M8.2,10.8c-0.5,0-1,0.3-1.2,0.8L0,31h7.6l7-19.5
	c0.1-0.3,0.4-0.6,0.7-0.7c0.1-0.1,0.3-0.1,0.5-0.1L8.2,10.8z M23.4,24.2c0.5,0,1-0.3,1.2-0.8l7-19.5L24,4l-7,19.5
	c-0.1,0.3-0.4,0.6-0.7,0.7c-0.1,0.1-0.3,0.1-0.5,0.1L23.4,24.2z"/>
</svg>
