<?xml version="1.0" encoding="utf-8"?>
<!-- Generator: Adobe Illustrator 26.0.1, SVG Export Plug-In . SVG Version: 6.00 Build 0)  -->
<svg version="1.1" id="Layer_1" xmlns="http://www.w3.org/2000/svg" xmlns:xlink="http://www.w3.org/1999/xlink" x="0px" y="0px"
	 viewBox="0 0 95 35" style="enable-background:new 0 0 95 35;" xml:space="preserve">
<style type="text/css">
	.st0{fill:#CCCCCC;}
</style>
<g id="XMLID_1_">
	<polygon id="XMLID_3_" class="st0" points="7.8,22.2 7.8,13.1 7.8,12.9 15.1,12.9 15.1,13.7 8.6,13.7 8.6,17 14.9,17 14.9,17.8 
		8.6,17.8 8.6,21.4 15.2,21.4 15.2,22.2 	"/>
	<polygon id="XMLID_4_" class="st0" points="23.6,22.2 17,14.2 17,22.2 16.2,22.2 16.2,13.1 16.2,12.9 17.1,12.9 23.7,21 23.7,12.9 
		24.5,12.9 24.5,22.2 	"/>
	<polygon id="XMLID_5_" class="st0" points="26,22.2 26,13.1 26,12.9 33.4,12.9 33.4,13.7 26.8,13.7 26.8,17 33.1,17 33.1,17.8 
		26.8,17.8 26.8,21.4 33.4,21.4 33.4,22.2 	"/>
	<path id="XMLID_8_" class="st0" d="M41.7,22.2L41.7,22.2c-0.3-0.3-0.3-0.8-0.3-2.2c0-0.8-0.2-1.2-0.5-1.5c-0.3-0.3-0.9-0.4-1.7-0.4
		h-3.9v4.1h-0.8v-9.1v-0.1h4.7c0.9,0,1.7,0.1,2.2,0.5c0.6,0.4,0.9,1,0.9,2c0,0.9-0.5,1.8-1.5,2.2c0.9,0.3,1.4,1,1.4,1.9
		c0,1.6,0.1,2.2,0.2,2.4l0.1,0.2L41.7,22.2z M39.1,17.3c0.3,0,0.9,0,1.4-0.2c0.5-0.2,1-0.7,1-1.7c0-1.4-1-1.7-2.3-1.7h-4v3.7H39.1z"
		/>
	<path id="XMLID_13_" class="st0" d="M33.5,0.5h0.2h8.1v0.7h-3.6v8.5h-0.8V1.2h-3.6V0.6V0.5L30,5l3.9,4.7h-1.1l-3.4-4.1L26,9.7h-1
		L28.9,5l-3.8-4.5h1.1l3.2,3.9l3.3-3.9H33.5z M17.6,9.7V0.5h7.3v0.7h-6.5v3.3h6.3v0.7h-6.3V9H25v0.7L17.6,9.7L17.6,9.7z M15.1,9.7
		l-6.6-8v8H7.8V0.5h0.9l6.6,8v-8H16v9.2H15.1z M15.4,8.8L15.4,8.8L15.4,8.8z"/>
	<path id="XMLID_14_" class="st0" d="M72.6,12.9c0,0,0.2,0.6,0.2,1.4l-3.7,4.3l5.1-3.8l0.2,1.2c0,0-3.9,4.4-4.8,5.6
		c0,0,4.9-4.1,7.7-5.7c-1.2-2.2-3.6-3.8-6.3-3.8c-4,0-7.2,3.2-7.2,7.2c0,0.1,0,0.2,0,0.3C65.5,18.2,69.8,14.6,72.6,12.9"/>
	<path id="XMLID_15_" class="st0" d="M78.2,19.5c0-0.7-0.1-1.4-0.3-2.1c-1.7,0.9-5.6,3.1-8.4,5.4c2.3,0.3,4.7,0.7,7.1,1.3
		C77.6,22.8,78.2,21.2,78.2,19.5"/>
	<path id="XMLID_16_" class="st0" d="M72.7,17c0,0-4.1,3.2-4.6,3.7l-0.6-1c0,0,2.8-3.5,3.7-4.4c0,0-5,3.5-7.3,5.7
		c0.1,0.4,0.2,0.9,0.4,1.3c1.2,0.1,2.5,0.2,3.7,0.4C68.2,22.5,72.2,17.6,72.7,17"/>
	<path id="XMLID_17_" class="st0" d="M48.2,22.4c-1.4,0-2.6-0.4-3.5-1.3c-0.9-0.8-1.4-2-1.4-3.5c0-1.1,0.4-2.3,1.2-3.2
		c0.8-0.9,2-1.6,3.7-1.6c2.2,0,3.9,1.1,4.4,3.1l0,0.1h-0.8l0-0.1c-0.4-1.6-1.8-2.4-3.6-2.4c-2.5,0-4.1,1.9-4.1,4.1
		c0,2.2,1.4,4.1,4.1,4.1c2.2,0,3.6-1.3,3.8-3.4h-3.6v-0.7h4.4l0,0.1c0,0.8-0.3,1.7-0.5,2.3C51.6,21.6,50,22.4,48.2,22.4L48.2,22.4"
		/>
	<path id="XMLID_20_" class="st0" d="M57.6,22c-0.2,0-0.3,0-0.5,0c0,0-0.1,0-0.1,0h-0.1l0-3.6l-4.3-5.4h1.1l3.6,4.6l3.7-4.6h1
		l-4.3,5.4v3.5V22L57.6,22z M57.6,21.8l0-0.1L57.6,21.8z"/>
	<path id="XMLID_21_" class="st0" d="M76.3,24.3c-2.5-0.5-4.9-1-7.2-1.3c-0.2,0-0.5-0.1-0.7-0.1c-1.3-0.2-2.5-0.3-3.8-0.4
		c-2.5-0.2-4.9-0.3-7.2-0.3h0c-23.2,0-40.1,9.2-45.7,12.7C30,26.7,47.2,24.3,60.9,24.3c11.8,0,21,1.8,26.3,3.1
		C83.5,26.1,79.9,25.1,76.3,24.3"/>
	<path id="XMLID_24_" class="st0" d="M51.6,5.4c0-2.6-1.4-5.1-5-5.1c-2.9,0-4.9,1.9-4.9,4.9c0,2.4,1.4,4.8,5,4.8c3.1,0,4.2-2,4.7-3
		h-2.3c-0.4,0.7-1,1.3-2.4,1.3c-2.1,0-2.7-1.6-2.8-2.6h7.7L51.6,5.4L51.6,5.4z M43.9,4.2c0.4-1.8,1.7-2.3,2.7-2.3
		c1,0,2.5,0.5,2.7,2.3H43.9z"/>
	<path id="XMLID_27_" class="st0" d="M67.9,8.1c-0.2,0-0.4,0-0.4-0.5V3.3c0-1.2-0.1-3-4.3-3c-2.4,0-3.9,0.7-4.2,3.1h2
		c0.1-1,0.8-1.5,2.2-1.5c1.2,0,2.3,0.3,2.3,1.3c0,0.7-0.3,0.8-3.3,1.1c-1.3,0.1-3.6,0.4-3.6,2.8c0,1.8,1.2,2.8,3.3,2.8
		c2.3,0,3.4-0.8,3.8-1.2c0.1,0.3,0.2,1.1,1.6,1.1c0.3,0,0.9,0,1.2-0.1l0-1.6C68,8.1,68,8.1,67.9,8.1 M65.3,6c0,2-1.9,2.4-3,2.4
		c-0.7,0-1.7-0.2-1.7-1.4c0-0.8,0.4-1.1,2-1.3c1.5-0.2,2.1-0.3,2.7-0.6V6z"/>
	<path id="XMLID_28_" class="st0" d="M58.4,0.3c-0.3-0.1-0.1-0.1-0.5-0.1c-1.7,0-2.5,1-3.1,2h0V0.5h-2.2v9.2h2.2V5.3
		c0-2.1,1.5-2.8,2.6-2.8c0.2,0,0.8,0,1,0L58.4,0.3z"/>
	<path id="XMLID_31_" class="st0" d="M53,28.6h1.3c0.5,0,0.9,0.3,0.9,0.9c0,0.5-0.2,0.8-0.6,0.9v0c0.4,0,0.5,0.2,0.6,0.7
		c0,0.2,0,0.5,0,0.7c0,0.2,0.1,0.3,0.2,0.3h-0.7c-0.1-0.1-0.1-0.2-0.1-0.3c0-0.2,0-0.4,0-0.7c0-0.4-0.1-0.6-0.5-0.6h-0.5v1.6H53
		V28.6z M54.1,30.2c0.4,0,0.6-0.2,0.6-0.6c0-0.4-0.2-0.6-0.5-0.6h-0.5v1.2H54.1z"/>
	<polygon id="XMLID_32_" class="st0" points="56,28.6 57.9,28.6 57.9,29.1 56.6,29.1 56.6,30.1 57.9,30.1 57.9,30.6 56.6,30.6 
		56.6,31.7 58,31.7 58,32.2 56,32.2 	"/>
	<path id="XMLID_33_" class="st0" d="M59.1,31.1L59.1,31.1c0,0.5,0.2,0.8,0.6,0.8c0.4,0,0.5-0.3,0.5-0.5c0-0.4-0.2-0.5-0.5-0.6
		l-0.4-0.1c-0.5-0.2-0.8-0.5-0.8-1c0-0.7,0.4-1,1.1-1c0.9,0,1,0.6,1,0.9v0.1h-0.6v-0.1c0-0.3-0.1-0.5-0.5-0.5
		c-0.2,0-0.5,0.1-0.5,0.5c0,0.3,0.2,0.5,0.5,0.6l0.4,0.1c0.5,0.2,0.7,0.5,0.7,1c0,0.8-0.5,1.1-1.2,1.1c-0.9,0-1.1-0.6-1.1-1.1v-0.1
		L59.1,31.1L59.1,31.1z"/>
	<path id="XMLID_36_" class="st0" d="M61.4,30.4c0-1.3,0.4-1.9,1.2-1.9c0.8,0,1.2,0.6,1.2,1.9c0,1.3-0.4,1.9-1.2,1.9
		C61.7,32.3,61.4,31.7,61.4,30.4 M63.2,30.4c0-1.2-0.3-1.4-0.6-1.4c-0.3,0-0.6,0.2-0.6,1.4c0,1.2,0.3,1.5,0.6,1.5
		C62.9,31.9,63.2,31.7,63.2,30.4"/>
	<path id="XMLID_37_" class="st0" d="M65,28.6v2.6c0,0.5,0.2,0.7,0.5,0.7c0.3,0,0.5-0.2,0.5-0.7v-2.6h0.6v2.5c0,0.8-0.4,1.1-1.1,1.1
		c-0.7,0-1.1-0.3-1.1-1.1v-2.5H65z"/>
	<path id="XMLID_40_" class="st0" d="M67.5,28.6h1.3c0.5,0,0.9,0.3,0.9,0.9c0,0.5-0.2,0.8-0.6,0.9v0c0.4,0,0.5,0.2,0.6,0.7
		c0,0.2,0,0.5,0,0.7c0,0.2,0.1,0.3,0.2,0.3h-0.7c-0.1-0.1-0.1-0.2-0.1-0.3c0-0.2,0-0.4,0-0.7c0-0.4-0.1-0.6-0.5-0.6h-0.5v1.6h-0.6
		V28.6z M68.5,30.2c0.4,0,0.6-0.2,0.6-0.6c0-0.4-0.2-0.6-0.5-0.6h-0.5v1.2H68.5z"/>
	<path id="XMLID_41_" class="st0" d="M72.6,30.9L72.6,30.9c0,0.7-0.3,1.4-1.1,1.4c-0.9,0-1.2-0.6-1.2-1.9c0-1.3,0.3-1.9,1.2-1.9
		c1,0,1.1,0.8,1.1,1.1v0.1H72v-0.1c0-0.3-0.1-0.7-0.5-0.7c-0.4,0-0.6,0.3-0.6,1.4s0.2,1.5,0.6,1.5c0.5,0,0.5-0.5,0.5-0.9v-0.1
		L72.6,30.9L72.6,30.9z"/>
	<polygon id="XMLID_42_" class="st0" points="73.2,28.6 75.2,28.6 75.2,29.1 73.8,29.1 73.8,30.1 75.1,30.1 75.1,30.6 73.8,30.6 
		73.8,31.7 75.2,31.7 75.2,32.2 73.2,32.2 	"/>
	<path id="XMLID_43_" class="st0" d="M76.4,31.1L76.4,31.1c0,0.5,0.2,0.8,0.6,0.8c0.4,0,0.5-0.3,0.5-0.5c0-0.4-0.2-0.5-0.5-0.6
		l-0.4-0.1c-0.5-0.2-0.8-0.5-0.8-1c0-0.7,0.4-1,1.1-1c0.9,0,1,0.6,1,0.9v0.1h-0.6v-0.1c0-0.3-0.1-0.5-0.5-0.5
		c-0.2,0-0.5,0.1-0.5,0.5c0,0.3,0.2,0.5,0.5,0.6l0.4,0.1c0.5,0.2,0.7,0.5,0.7,1c0,0.8-0.5,1.1-1.2,1.1c-0.9,0-1.1-0.6-1.1-1.1v-0.1
		L76.4,31.1L76.4,31.1z"/>
	<path id="XMLID_48_" class="st0" d="M72,1.5c0,0.8-0.6,1.5-1.5,1.5c-0.8,0-1.5-0.6-1.5-1.5c0-0.8,0.6-1.5,1.5-1.5
		C71.4,0,72,0.6,72,1.5 M69.4,1.5c0,0.7,0.5,1.2,1.2,1.2c0.7,0,1.2-0.6,1.2-1.2s-0.5-1.2-1.2-1.2C69.9,0.2,69.4,0.8,69.4,1.5
		 M70.3,2.3H70V0.6h0.6c0.4,0,0.5,0.2,0.5,0.5c0,0.3-0.2,0.4-0.4,0.5l0.5,0.7h-0.2l-0.5-0.7h-0.3L70.3,2.3L70.3,2.3z M70.5,1.4
		c0.3,0,0.5,0,0.5-0.3c0-0.2-0.2-0.3-0.4-0.3h-0.4v0.6L70.5,1.4L70.5,1.4z"/>
</g>
</svg>
