<?xml version="1.0" encoding="utf-8"?>
<!-- Generator: Adobe Illustrator 26.0.1, SVG Export Plug-In . SVG Version: 6.00 Build 0)  -->
<svg version="1.1" id="Layer_1" xmlns="http://www.w3.org/2000/svg" xmlns:xlink="http://www.w3.org/1999/xlink" x="0px" y="0px"
	 viewBox="0 0 95 35" style="enable-background:new 0 0 95 35;" xml:space="preserve">
<style type="text/css">
	.st0{fill:#FFFFFF;}
</style>
<g>
	<polygon class="st0" points="0,24.2 4.8,24.2 9.6,24.2 4.8,17.3 	"/>
	<path class="st0" d="M92.9,22.5v0.2h-0.5v1.5h-0.3v-1.5h-0.5v-0.2H92.9z M94.6,22.5l-0.5,1.3l-0.5-1.3h-0.4v1.7h0.3v-1.3l0.5,1.3
		h0.3l0.5-1.3v1.3H95v-1.7H94.6z M10.4,10.5v7.8l-5.2-7.8H1.5v10l3.3-4.8l5.9,8.6h3V10.5H10.4L10.4,10.5z M65.3,24.5
		c3.5,0,5.6-1.8,5.6-5.5s-2.1-5.4-5.5-5.4c-3.5,0-5.6,1.8-5.6,5.5C59.8,22.8,61.8,24.5,65.3,24.5 M67,19.1c0,1.7-0.3,3-1.6,3
		c-1.3,0-1.7-1.3-1.7-3s0.3-3,1.6-3C66.6,16.1,67,17.4,67,19.1 M24.4,21.3h-0.1c0,0-1.8,0.5-3.2,0.5c-1.6,0-2.5-0.7-2.5-1.8h6.5
		c0-2.1,0-3.3-0.8-4.6s-2.2-1.9-4.1-1.9c-3.5,0-5.2,2.2-5.2,5.5c0,1.6,0.4,3,1.5,4c0.9,0.8,2.1,1.3,4.3,1.3c2.1,0,3.7-0.4,3.7-0.4
		L24.4,21.3z M18.6,18c0-1,0.4-1.9,1.5-1.9s1.3,0.9,1.3,1.9H18.6z M25.3,13.9l2.6,10.3h4l1.6-6.3l1.6,6.3h4l2.7-10.4h-3.1l-1.4,6.6
		L35.6,14H32l-1.6,6.4l-1.3-6.6h-3.8V13.9z M42.5,13.9v10.4h3.7v-6.1c0-0.7,0.1-1.5,1.3-1.5c0.5,0,0.9,0.1,1.1,0.4
		c0.2,0.3,0.2,0.6,0.2,1v6.2h3.7v-6.1c0-0.7,0.1-1.5,1.3-1.5c0.5,0,0.9,0.1,1.1,0.4s0.2,0.6,0.2,1v6.1h3.7V18c0-1.3,0-2.3-0.6-3.1
		c-0.7-1-1.7-1.3-2.9-1.3c-2,0-2.7,0.9-3.1,2c-0.3-1.2-1.3-2-3.2-2c-1.8,0-2.7,0.8-3.1,2l-0.7-1.8L42.5,13.9L42.5,13.9z M71.8,13.9
		v10.4h3.7v-6.1c0-0.6,0.1-1.5,1.4-1.5c0.6,0,1,0.2,1.2,0.5s0.2,0.7,0.2,1.1v6H82v-6c0-1.4,0-2.4-0.6-3.2c-0.6-0.9-1.6-1.3-2.9-1.3
		c-1.8,0-2.9,0.7-3.2,2L74.6,14L71.8,13.9L71.8,13.9z M90.5,21.6L90.5,21.6c-0.1,0-0.7,0.1-1.2,0.1s-0.8-0.1-1.1-0.4
		C88,21,88,20.6,88,20.2v-3.5h2.6V14H88v-3.2l-3.7,0.9V14h-1.8v2.7h1.8v3.6c0,0.9,0,1.9,0.6,2.8s1.7,1.3,3.5,1.3
		c1.3,0,2.2-0.2,2.2-0.2L90.5,21.6L90.5,21.6z"/>
</g>
</svg>
