<?xml version="1.0" encoding="utf-8"?>
<!-- Generator: Adobe Illustrator 26.0.1, SVG Export Plug-In . SVG Version: 6.00 Build 0)  -->
<svg version="1.1" id="Layer_1" xmlns="http://www.w3.org/2000/svg" xmlns:xlink="http://www.w3.org/1999/xlink" x="0px" y="0px"
	 viewBox="0 0 95 35" style="enable-background:new 0 0 95 35;" xml:space="preserve">
<style type="text/css">
	.st0{fill:#104076;}
	.st1{fill:#FFFFFF;}
</style>
<path class="st0" d="M-39.1,613.7"/>
<g>
	<path class="st1" d="M13.1,28.7c-1.4,0.3-2.9,0.3-4.4,0.5L4.1,15.8v14c-1.4,0.2-2.7,0.4-4.1,0.6V4.7h3.8L9,19.2V4.7h4L13.1,28.7z
		 M21,14.1c1.6,0,3.9-0.1,5.4-0.1v4c-1.8,0-3.9,0-5.4,0.1v6c2.4-0.2,4.7-0.4,7.1-0.4v3.9l-11.1,0.9V4.7h11.1v4H21V14.1z M43,8.7
		h-4.2v18.5c-1.4,0-2.7,0-4,0.1V8.7h-4.2v-4H43L43,8.7z M49.5,13.8H55v4h-5.5v9.1h-3.9V4.7h11.2v4h-7.3V13.8z M63.3,23.4
		c2.3,0.1,4.6,0.2,6.8,0.4v4c-3.6-0.2-7.2-0.5-10.8-0.5V4.7h4V23.4z M73.5,28c1.3,0.1,2.6,0.2,3.9,0.3V4.7h-3.9V28z M95,4.7
		l-5.1,12.2L95,30.3c-1.5-0.2-3-0.5-4.5-0.7l-2.9-7.4L84.7,29c-1.5-0.3-2.9-0.3-4.3-0.5l5.2-11.8L80.9,4.7h4.3l2.6,6.7l2.8-6.7H95z"
		/>
</g>
</svg>
