<?xml version="1.0" encoding="utf-8"?>
<!-- Generator: Adobe Illustrator 26.0.1, SVG Export Plug-In . SVG Version: 6.00 Build 0)  -->
<svg version="1.1" id="Layer_1" xmlns="http://www.w3.org/2000/svg" xmlns:xlink="http://www.w3.org/1999/xlink" x="0px" y="0px"
	 viewBox="0 0 95 35" style="enable-background:new 0 0 95 35;" xml:space="preserve">
<style type="text/css">
	.st0{fill:#104076;}
	.st1{fill:#343741;}
</style>
<path class="st0" d="M-39.1,613.7"/>
<g>
	<path class="st1" d="M25.2,21.4c-0.5,0-1,0.4-1,0.9c0,0.5,0.4,0.9,1,0.9c0.5,0,1-0.4,1-0.9S25.8,21.4,25.2,21.4z M25.2,23
		c-0.4,0-0.7-0.3-0.7-0.7c0-0.4,0.3-0.7,0.7-0.7c0.4,0,0.7,0.3,0.7,0.7C25.9,22.7,25.6,23,25.2,23z"/>
	<polygon class="st1" points="34.5,18.2 29.9,18.2 30.4,10.2 27.4,18.2 23.1,18.2 29.9,0.1 34.5,0.1 33.9,8.2 37,0.1 41.3,0.1 	"/>
	<polygon class="st1" points="35,18.2 41.8,0.1 46.1,0.1 39.3,18.2 	"/>
	<path class="st1" d="M22.6,12c-6,7-11.7,16.4-6.7,20.7c4.8,4.2,10.9,1.7,15,0.1c4.1-1.7,49.8-21.5,49.8-21.5
		c0.4-0.2,0.4-0.5-0.2-0.4C80.3,11,30.8,24.4,30.8,24.4C24.6,26.1,17.4,22.3,22.6,12z"/>
	<path class="st1" d="M25.4,22.4c0.1,0,0.2-0.1,0.2-0.3c0-0.2-0.2-0.3-0.4-0.3h-0.4v1h0.3v-0.4h0l0.2,0.4h0.3L25.4,22.4z M25.2,22.2
		h-0.1V22h0.1c0.1,0,0.2,0,0.2,0.1C25.4,22.2,25.3,22.2,25.2,22.2z"/>
	<path class="st1" d="M68.4,0c-0.5,0-1,0.4-1,0.9s0.4,0.9,1,0.9s1-0.4,1-0.9C69.3,0.4,68.9,0,68.4,0z M68.4,1.6
		c-0.4,0-0.7-0.3-0.7-0.7s0.3-0.7,0.7-0.7c0.4,0,0.7,0.3,0.7,0.7C69.1,1.3,68.8,1.6,68.4,1.6z"/>
	<path class="st1" d="M68.6,1c0.1,0,0.2-0.1,0.2-0.3c0-0.2-0.2-0.3-0.4-0.3H68v1h0.3V1h0l0.2,0.4h0.3L68.6,1z M68.4,0.8h-0.1V0.6
		h0.1c0.1,0,0.2,0,0.2,0.1C68.5,0.8,68.5,0.8,68.4,0.8z"/>
	<path class="st1" d="M65.6,3.1l1.2-3h-8.6h0h-4.5l-4.5,5.4l2.1-5.4h-4.3l-6.8,18.2h4.3l2.9-7.6l0.2,7.6l13.2,0l1.3-3.5h-5l1.6-4.4
		h4.1l1.3-3.4h-4.1l1.4-3.8L65.6,3.1L65.6,3.1z M51.7,17l-0.3-9.5l6.5-7.1L51.7,17z"/>
</g>
</svg>
