<?xml version="1.0" encoding="utf-8"?>
<!-- Generator: Adobe Illustrator 26.0.1, SVG Export Plug-In . SVG Version: 6.00 Build 0)  -->
<svg version="1.1" id="Layer_1" xmlns="http://www.w3.org/2000/svg" xmlns:xlink="http://www.w3.org/1999/xlink" x="0px" y="0px"
	 viewBox="0 0 95 35" style="enable-background:new 0 0 95 35;" xml:space="preserve">
<style type="text/css">
	.st0{fill:#231F20;}
	.st1{fill:#007A73;}
	.st2{fill:#FFFFFF;}
</style>
<path class="st0" d="M576.4,332.6h41.7v134.7h-30.9v-90.6l-39.6,90.6L506,376.6v90.7h-28.9V332.6h41.3l29.7,69.7L576.4,332.6z
	 M633.5,332.6v134.7h77.7v-22.8h-47.6v-34.3h45.6v-23.1h-45.6v-30.9h47.6v-23.6H633.5z M827.2,400c0,50.1,52.3,90.3,107.5,63.4
	v-28.9c-42.4,29.7-79.4-0.1-78.8-33.4c0.4-22.2,15.3-43.2,44.1-44.9c14.2-0.8,23.8,2.7,34.6,13.1v-30
	C894.8,315.8,827.2,341.8,827.2,400 M947.3,467.3H976V333.9h-28.7V467.3z M1011.9,395.1l43.3-60.9h-33.5L978.9,395l49.8,72.4h32.9
	L1011.9,395.1z"/>
<path class="st0" d="M724.6,332.6v134.7h30.2V395l50,72.4h32.2l-39.6-56.6c18.3-6.9,24.3-22.3,24.3-37.7c0-15.4-12.9-40.5-44.1-40.5
	L724.6,332.6z M754.9,355.1h13.2c22.3,0,23.5,14.6,23.5,20c0,10.4-8.8,19.3-20.2,19.3h-16.5V355.1z"/>
<path class="st1" d="M205.8,332.6c0-37.2,30.2-67.4,67.4-67.4c37.2,0,67.4,30.2,67.4,67.4H205.8z M205.8,467.4
	c0-37.2,30.2-67.4,67.4-67.4c-37.2,0-67.4-30.1-67.4-67.4c-37.2,0-67.4,30.2-67.4,67.4C138.5,437.2,168.6,467.4,205.8,467.4
	 M205.8,467.4c0,37.2,30.2,67.4,67.4,67.4c37.2,0,67.4-30.1,67.4-67.4H205.8z M273.2,400c37.2,0,67.4,30.2,67.4,67.4
	c37.2,0,67.4-30.1,67.4-67.4c0-37.2-30.2-67.4-67.4-67.4C340.5,369.8,310.4,400,273.2,400"/>
<g>
	<g id="g58" transform="matrix(0.2634457,0,0,-0.2635619,498.9209,60.493896)">
		<g id="g60" transform="translate(-196.3485,49.629)">
			<path id="path62" class="st2" d="M-1654.4,78.8c-3.3,3.5-5,7.9-5,13.1c0,5.1,1.7,9.5,5,13c3.4,3.6,7.7,5.4,12.8,5.4
				c6.9,0,12-2.9,15.4-8.6l-7.1-3.9c-0.2,0.4-0.5,0.9-1.1,1.5c-1.9,2.1-4.4,3.2-7.3,3.2c-2.9,0-5.1-1.2-6.6-3.4
				c-1.2-1.9-1.9-4.4-1.9-7.5c0-3.2,0.8-5.6,2.2-7.5c1.6-2,4-3,7.1-3c1.8,0,3.4,0.6,4.9,1.7c1.6,1.2,2.5,2.6,2.7,4.4h-7.9v7.1h17.1
				v-1.9c0-5.8-1.4-10.4-4.3-13.7c-3-3.4-7.4-5.2-13.2-5.2C-1646.8,73.6-1651.1,75.3-1654.4,78.8"/>
		</g>
	</g>
	<g id="g64" transform="matrix(0.2634457,0,0,-0.2635619,498.9209,60.493896)">
		<g id="g66" transform="translate(-128.7147,28.42)">
			<path id="path68" class="st2" d="M-1674.8,114.8c3.1,0,4.6,1.4,4.6,4.3c0,2.9-1.5,4.3-4.5,4.3h-2.9v-8.6H-1674.8z M-1686.4,130.2
				h13.6c3.4,0,6.1-0.9,8.3-2.8c2.2-2,3.4-4.6,3.4-7.9c0-4.7-2-7.9-5.9-9.3l9.2-14.2h-10.7l-7.2,12.1h-1.8V96h-8.9V130.2z"/>
		</g>
	</g>
	<g id="g70" transform="matrix(0.2634457,0,0,-0.2635619,498.9209,60.493896)">
		<g id="g72" transform="translate(-93.575,52.4405)">
			<path id="path74" class="st2" d="M-1685.4,74c-3,2.3-4.6,5.4-4.6,9.3v22.9h8.9v-21c0-4.1,2.1-6.2,6.2-6.2c1.8,0,3.3,0.5,4.4,1.5
				c1.1,1,1.7,2.5,1.7,4.2v21.4h9V84.3c0-4.3-1.5-7.7-4.5-10.1c-2.7-2.1-6.3-3.2-10.8-3.2C-1679.2,71-1682.6,72-1685.4,74"/>
		</g>
	</g>
	<g id="g76" transform="matrix(0.2634457,0,0,-0.2635619,498.9209,60.493896)">
		<g id="g78" transform="translate(115.5754,36.4064)">
			<path id="path80" class="st2" d="M-1748.3,101.3l-3.6,10.5l-3.7-10.5H-1748.3z M-1756.9,122.3h10.2l12.7-34.2h-9.6l-2.3,6.3
				h-11.8l-2.3-6.3h-9.5L-1756.9,122.3z"/>
		</g>
	</g>
	<g id="g82" transform="matrix(0.2634457,0,0,-0.2635619,498.9209,60.493896)">
		<g id="g84" transform="translate(142.6906,6.3819)">
			<path id="path86" class="st2" d="M-1756.5,152.3h8.9l16-20.3v20.3h8.7v-34.2h-8.9l-15.7,20.4v-20.4h-8.9V152.3z"/>
		</g>
	</g>
	<g id="g88" transform="matrix(0.2634457,0,0,-0.2635619,498.9209,60.493896)">
		<g id="g90" transform="translate(-19.0164,31.3976)">
			<path id="path92" class="st2" d="M-1707.8,109.8l11.3,17.5h0h8.9V93.1h-8.9v20.1h0l-8.9-13.8h-4.7l-9,13.8h0V93.1h-8.9v34.2h8.9
				L-1707.8,109.8z"/>
		</g>
	</g>
	<g id="g94" transform="matrix(0.2634457,0,0,-0.2635619,498.9209,60.493896)">
		<g id="g96" transform="translate(49.3156,31.3976)">
			<path id="path98" class="st2" d="M-1728.4,109.8l11.3,17.5h0h8.9V93.1h-8.9v20.1h0l-8.9-13.8h-4.7l-9,13.8h0V93.1h-8.9v34.2h8.9
				L-1728.4,109.8z"/>
		</g>
	</g>
	<g id="g100" transform="matrix(0.2634457,0,0,-0.2635619,498.9209,60.493896)">
		<g id="g102" transform="translate(-257.9276,-55.3174)">
			<path id="path104" class="st2" d="M-1635.9,257.1h8.9l16-20.3v20.3h8.7v-34.2h-8.9l-15.7,20.4v-20.4h-8.9V257.1z"/>
		</g>
	</g>
	<g id="g106" transform="matrix(0.2634457,0,0,-0.2635619,498.9209,60.493896)">
		<g id="g108" transform="translate(-166.3895,-20.6288)">
			<path id="path110" class="st2" d="M-1663.4,198.2c1.8,1.9,2.8,4.3,2.8,7.3c0,2.8-0.9,5.1-2.8,7c-1.9,1.9-4.2,2.8-7.1,2.8
				c-2.9,0-5.2-1-7.1-2.9c-1.8-1.9-2.8-4.3-2.8-7.2c0-2.9,0.9-5.3,2.7-7.1c1.8-1.8,4.2-2.8,7.1-2.8
				C-1667.7,195.3-1665.3,196.3-1663.4,198.2 M-1684.1,192.2c-3.6,3.5-5.3,7.9-5.3,13.2c0,5.4,1.8,9.8,5.5,13.3c3.6,3.4,8,5,13.4,5
				c5.3,0,9.8-1.7,13.4-5.2c3.6-3.4,5.4-7.7,5.4-12.8c0-5.4-1.8-10-5.5-13.5c-3.6-3.4-8.1-5.2-13.4-5.2
				C-1676,187-1680.6,188.7-1684.1,192.2"/>
		</g>
	</g>
	<g id="g112" transform="matrix(0.2634457,0,0,-0.2635619,498.9209,60.493896)">
		<g id="g114" transform="translate(-125.9686,-33.2793)">
			<path id="path116" class="st2" d="M-1675.6,219.7c3.1,0,4.6,1.4,4.6,4.3s-1.5,4.3-4.5,4.3h-2.9v-8.6H-1675.6z M-1687.2,235.1
				h13.6c3.4,0,6.1-0.9,8.3-2.8c2.2-2,3.4-4.6,3.4-7.9c0-4.7-2-7.9-5.9-9.3l9.2-14.2h-10.7l-7.2,12.1h-1.8v-12.1h-8.9V235.1z"/>
		</g>
	</g>
	<g id="g118" transform="matrix(0.2634457,0,0,-0.2635619,498.9209,60.493896)">
		<g id="g120" transform="translate(-89.9989,-43.6249)">
			<path id="path122" class="st2" d="M-1686.4,237.2h-7.1v8.1h23.4v-8.1h-7.1v-26.1h-9.3V237.2z"/>
		</g>
	</g>
	<g id="g124" transform="matrix(0.2634457,0,0,-0.2635619,498.9209,60.493896)">
		<g id="g126" transform="translate(-58.5692,-55.3778)">
			<path id="path128" class="st2" d="M-1695.9,257.2h8.9v-12.9h12.5v12.9h8.9V223h-8.9v13.9h-12.5V223h-8.9V257.2z"/>
		</g>
	</g>
	<g id="g130" transform="matrix(0.2634457,0,0,-0.2635619,498.9209,60.493896)">
		<g id="g132" transform="translate(10.9982,-33.2793)">
			<path id="path134" class="st2" d="M-1716.8,219.7c3.1,0,4.6,1.4,4.6,4.3s-1.5,4.3-4.5,4.3h-2.9v-8.6H-1716.8z M-1728.4,235.1
				h13.6c3.4,0,6.1-0.9,8.3-2.8c2.2-2,3.4-4.6,3.4-7.9c0-4.7-2-7.9-5.9-9.3l9.2-14.2h-10.7l-7.2,12.1h-1.8v-12.1h-8.9V235.1z"/>
		</g>
	</g>
	<g id="g136" transform="matrix(0.2634457,0,0,-0.2635619,498.9209,60.493896)">
		<g id="g138" transform="translate(74.2267,-20.6288)">
			<path id="path140" class="st2" d="M-1735.9,198.2c1.8,1.9,2.8,4.3,2.8,7.3c0,2.8-0.9,5.1-2.8,7c-1.9,1.9-4.2,2.8-7.1,2.8
				c-2.9,0-5.2-1-7.1-2.9c-1.8-1.9-2.8-4.3-2.8-7.2c0-2.9,0.9-5.3,2.7-7.1c1.8-1.8,4.2-2.8,7.1-2.8
				C-1740.1,195.3-1737.7,196.3-1735.9,198.2 M-1756.5,192.2c-3.6,3.5-5.3,7.9-5.3,13.2c0,5.4,1.8,9.8,5.5,13.3c3.6,3.4,8,5,13.4,5
				c5.3,0,9.8-1.7,13.4-5.2c3.6-3.4,5.4-7.7,5.4-12.8c0-5.4-1.8-10-5.5-13.5c-3.6-3.4-8.1-5.2-13.4-5.2
				C-1748.5,187-1753,188.7-1756.5,192.2"/>
		</g>
	</g>
	<g id="g142" transform="matrix(0.2634457,0,0,-0.2635619,498.9209,60.493896)">
		<g id="g144" transform="translate(116.0558,-32.83)">
			<path id="path146" class="st2" d="M-1748.5,218.9c3.5,0,5.3,1.5,5.3,4.6c0,2.9-1.7,4.4-5.2,4.4h-3.2v-9H-1748.5z M-1760.3,234.6
				h15.3c3.3,0,6-1.1,7.9-3.3c1.9-2.1,2.9-4.8,2.9-8.2c0-3.2-0.9-5.8-2.9-7.8c-1.9-2-4.5-3-7.6-3h-6.6v-11.9h-8.9V234.6z"/>
		</g>
	</g>
	<g id="g148" transform="matrix(0.2634457,0,0,-0.2635619,498.9209,60.493896)">
		<g id="g150" transform="translate(142.6906,-55.3174)">
			<path id="path152" class="st2" d="M-1756.5,257.1v-8.9h71.6v-68.4h8.9v77.3H-1756.5z"/>
		</g>
	</g>
</g>
</svg>
