<?xml version="1.0" encoding="utf-8"?>
<!-- Generator: Adobe Illustrator 26.0.1, SVG Export Plug-In . SVG Version: 6.00 Build 0)  -->
<svg version="1.1" id="Layer_1" xmlns="http://www.w3.org/2000/svg" xmlns:xlink="http://www.w3.org/1999/xlink" x="0px" y="0px"
	 viewBox="0 0 95 35" style="enable-background:new 0 0 95 35;" xml:space="preserve">
<style type="text/css">
	.st0{fill:#104076;}
	.st1{fill-rule:evenodd;clip-rule:evenodd;fill:#343741;}
	.st2{fill:#343741;}
</style>
<path class="st0" d="M-39.1,613.7"/>
<g>
	<g>
		<path class="st1" d="M23.1,14.8c-1,0-1.9,0.4-2.6,0.9v-0.9H18v9.4h2.5v-6c0.3-0.5,1.2-1.2,2.3-1.2c0.4,0,0.7,0.1,1,0.2v-2.4
			C23.6,14.8,23.4,14.8,23.1,14.8 M1.2,21.4c0.7,0.6,1.6,0.9,2.6,0.9C4.4,22.4,5,22,5,21.6c0-1.4-4.5-0.9-4.5-4
			c0-1.8,1.8-2.9,3.6-2.9c1.2,0,2.5,0.4,3.2,0.9l-1.2,1.8c-0.5-0.3-1.1-0.7-1.8-0.7c-0.7,0-1.3,0.3-1.3,0.8c0,1.2,4.5,0.7,4.5,4
			c0,1.8-1.8,2.9-3.8,2.9c-1.3,0-2.6-0.4-3.8-1.3L1.2,21.4z M17,19.5c0-2.6-1.8-4.8-4.4-4.8C9.8,14.7,8,17,8,19.6
			c0,3,2.1,4.9,4.9,4.9c1.4,0,2.9-0.6,3.9-1.7l-1.4-1.4c-0.4,0.5-1.3,1.1-2.4,1.1c-1.3,0-2.4-0.9-2.5-2.3h6.5
			C16.9,20,17,19.8,17,19.5 M10.5,18.4c0.1-0.9,1-1.7,2-1.7c1,0,1.8,0.8,1.9,1.7H10.5z M29.8,20.7l2.6-5.8H35l-4.3,9.4h-1.8
			l-4.3-9.4h2.6L29.8,20.7z M37.2,10.5c0.9,0,1.7,0.7,1.7,1.6c0,0.9-0.7,1.6-1.7,1.6c-0.9,0-1.7-0.7-1.7-1.6
			C35.5,11.2,36.2,10.5,37.2,10.5 M35.9,14.9h2.5v9.4h-2.5V14.9z M48.8,22.4c-1.1,1.5-2.5,2.1-4.2,2.1c-2.9,0-5-2.2-5-4.9
			c0-2.8,2.2-4.9,5.1-4.9c1.6,0,3.1,0.8,4,1.9l-1.8,1.6c-0.5-0.7-1.3-1.1-2.1-1.1c-1.4,0-2.5,1.2-2.5,2.6c0,1.5,1,2.6,2.6,2.6
			c1,0,1.8-0.6,2.3-1.3L48.8,22.4z M57.9,22.8c-0.9,1.1-2.4,1.7-3.9,1.7c-2.8,0-4.9-1.9-4.9-4.9c0-2.6,1.8-4.9,4.6-4.9
			c2.6,0,4.4,2.2,4.4,4.8c0,0.3,0,0.5-0.1,0.7h-6.5c0.1,1.3,1.2,2.3,2.5,2.3c1,0,1.9-0.6,2.4-1.1L57.9,22.8z M55.6,18.4
			c-0.1-0.8-0.8-1.7-1.9-1.7c-1,0-1.9,0.8-2,1.7H55.6z M59.2,24.3v-9.4h2.4v0.8c0.7-0.6,1.6-0.9,2.6-0.9c1.3,0,2.5,0.6,3.3,1.5
			c0.6,0.7,1,1.7,1,3.3v4.8h-2.5v-5c0-0.9-0.2-1.4-0.6-1.8C65.1,17.2,64.6,17,64,17c-1,0-1.9,0.7-2.3,1.2v6.1L59.2,24.3L59.2,24.3z"
			/>
		<path class="st1" d="M74.9,14.7c-3,0-5.5,2.4-5.5,5.5c0,1.6,0.7,3,1.7,4.1c0.4,0.4,1,0.4,1.4,0.1c0.6-0.5,1.4-0.8,2.4-0.8
			c0.9,0,1.7,0.3,2.4,0.8c0.4,0.3,1,0.3,1.4-0.1c1-1,1.7-2.4,1.7-4C80.4,17.2,78,14.7,74.9,14.7 M74.9,23c-1.6,0-2.8-1.2-2.8-2.8
			s1.1-2.8,2.8-2.8s2.8,1.3,2.8,2.8C77.6,21.7,76.5,23,74.9,23"/>
		<path class="st1" d="M85.3,24.3h-1.9l-3.8-9.4h2.5l2,5.4l2-5.4h2.1l2,5.4l2-5.4H95l-3.8,9.4h-1.9l-2-5.3L85.3,24.3z"/>
	</g>
	<path class="st2" d="M93.6,23.1v0.2h-0.3v1h-0.2v-1h-0.3v-0.2H93.6z M94.4,23.9l0.4-0.7H95v1.2h-0.2v-0.7l-0.3,0.5h-0.2L94,23.6
		v0.7h-0.2v-1.2H94L94.4,23.9z"/>
</g>
</svg>
