<?xml version="1.0" encoding="utf-8"?>
<!-- Generator: Adobe Illustrator 26.0.1, SVG Export Plug-In . SVG Version: 6.00 Build 0)  -->
<svg version="1.1" id="Layer_1" xmlns="http://www.w3.org/2000/svg" xmlns:xlink="http://www.w3.org/1999/xlink" x="0px" y="0px"
	 viewBox="0 0 95 35" style="enable-background:new 0 0 95 35;" xml:space="preserve">
<style type="text/css">
	.st0{fill:#CCCCCC;}
	.st1{fill-rule:evenodd;clip-rule:evenodd;fill:#CCCCCC;}
</style>
<g>
	<polygon class="st0" points="88.6,20 90,20 88.5,24.8 86.5,24.8 85.5,21.8 84.5,24.8 83.1,24.8 84.6,20 86.7,20 87.7,22.8 	"/>
	<g>
		<path class="st0" d="M58.8,24.8c1.7,0,2.8-0.8,3.3-2.5l0.7-2.4h-1.4l-0.8,2.4c-0.3,0.9-0.8,1.4-1.5,1.4c-0.8,0-1-0.5-0.7-1.4
			l0.8-2.4h-1.4L57,22.3C56.5,24,57.1,24.8,58.8,24.8"/>
		<path class="st0" d="M48.8,21.4h1.6c0.4-1.1-0.3-1.6-2.3-1.6c-1.7,0-2.7,0.5-3.1,1.6c-0.2,0.7,0,1.2,0.6,1.4
			c0.2,0.1,0.7,0.1,1.7,0.2c0.6,0,0.9,0.2,0.8,0.6c-0.1,0.3-0.5,0.4-1.2,0.4c-0.4,0-0.7,0-0.8-0.1c-0.2-0.1-0.2-0.3-0.1-0.7h-1.7
			c-0.4,1.2,0.3,1.8,2.2,1.8c1.9,0,3.1-0.6,3.5-1.8c0.2-0.7,0-1.1-0.6-1.3c-0.3-0.1-0.9-0.2-1.8-0.3c-0.6,0-0.9-0.2-0.9-0.4
			c0.1-0.3,0.5-0.4,1.1-0.4c0.4,0,0.6,0,0.7,0.1C49,20.9,49,21.1,48.8,21.4"/>
		<polygon class="st0" points="66,21 64.9,24.8 63.4,24.8 64.6,21 62.9,21 63.2,20 68.1,20 67.8,21 		"/>
		<polygon class="st0" points="68.4,20 69.8,20 69.3,21.9 71.5,21.9 72,20 73.5,20 72,24.8 70.6,24.8 71.1,22.9 68.9,22.9 
			68.4,24.8 66.9,24.8 		"/>
		<polygon class="st0" points="75.3,21.9 77.6,21.9 77.3,22.9 74.9,22.9 74.7,23.7 77.3,23.7 77,24.8 72.9,24.8 74.4,20 78.4,20 
			78.1,21 75.5,21 		"/>
		<path class="st1" d="M54.5,19.8c1.9,0,2.6,0.8,2.1,2.5c-0.5,1.7-1.8,2.6-3.7,2.6c-1.9,0-2.6-0.9-2.1-2.5
			C51.4,20.7,52.6,19.8,54.5,19.8 M52.4,22.4c-0.3,1,0,1.5,0.8,1.5c0.8,0,1.4-0.5,1.7-1.5c0.3-1,0.1-1.5-0.7-1.5
			C53.3,20.9,52.8,21.4,52.4,22.4"/>
		<path class="st1" d="M81.1,21.9c0.3,0,0.6-0.2,0.7-0.5c0.1-0.3,0-0.5-0.4-0.5h-1.1l-0.3,1H81.1z M79.6,23l-0.6,1.8h-1.4l1.5-4.8
			l3.1,0c1.1,0,1.6,0.4,1.3,1.3c-0.2,0.6-0.6,1-1.1,1.1c0.4,0,0.5,0.3,0.4,1c-0.1,0.9-0.2,1.3-0.2,1.4H81c-0.1,0-0.1-0.3,0-0.9
			c0.1-0.6,0-0.9-0.4-0.9L79.6,23L79.6,23z"/>
		<polygon class="st0" points="7.4,19.9 8.8,19.9 7.3,24.7 5.4,24.7 4.3,21.7 3.3,24.7 1.9,24.7 3.4,19.9 5.5,19.9 6.5,22.7 		"/>
		<polygon class="st0" points="25.3,19.9 25,20.9 22.4,20.9 22.1,21.9 24.5,21.9 24.2,22.9 21.8,22.9 21.2,24.7 19.8,24.7 
			21.3,19.9 		"/>
		<polygon class="st0" points="31.8,19.9 33.3,19.9 32.1,23.7 34.6,23.7 34.3,24.7 30.3,24.7 		"/>
		<polygon class="st0" points="36,19.9 37.5,19.9 36.8,22.1 39.5,19.9 41.4,19.9 38.7,22.1 40.1,24.7 38.2,24.7 36.8,22.1 36,24.7 
			34.5,24.7 		"/>
		<path class="st1" d="M12.3,19.8c1.9,0,2.6,0.9,2.1,2.5c-0.5,1.7-1.7,2.5-3.6,2.5S8.1,24,8.7,22.4C9.2,20.6,10.4,19.8,12.3,19.8
			 M10.3,22.4c-0.3,1,0,1.5,0.8,1.5c0.8,0,1.4-0.5,1.7-1.5c0.3-1,0.1-1.5-0.8-1.5C11.2,20.8,10.6,21.4,10.3,22.4"/>
		<path class="st1" d="M17.7,21.9c0.3,0,0.5-0.2,0.6-0.5c0.1-0.3,0-0.4-0.4-0.4h-1.1l-0.3,0.9H17.7z M16.2,22.9l-0.6,1.8h-1.4
			l1.5-4.8h3.1c1.2,0,1.6,0.4,1.3,1.3c-0.2,0.6-0.6,0.9-1.1,1.1c0.3,0,0.5,0.4,0.4,1c-0.1,0.9-0.2,1.3-0.2,1.4h-1.6
			c-0.1,0-0.1-0.3,0.1-0.9c0.1-0.6,0-0.9-0.4-0.9L16.2,22.9L16.2,22.9z"/>
		<path class="st1" d="M28.5,19.8c1.9,0,2.5,0.9,2,2.5s-1.7,2.5-3.6,2.5c-1.9,0-2.6-0.8-2.1-2.5C25.4,20.6,26.6,19.8,28.5,19.8
			 M26.4,22.4c-0.3,1-0.1,1.5,0.8,1.5c0.8,0,1.4-0.5,1.7-1.5c0.3-1,0-1.5-0.8-1.5C27.3,20.8,26.7,21.4,26.4,22.4"/>
		<path class="st0" d="M32.4,4.2H9.1L8.3,6.6h19.3c1-0.3,4.1-1.2,7.1-1.3c0,0-1.7-0.5-3.5-0.7C31.2,4.6,31.7,4.4,32.4,4.2"/>
		<polygon class="st0" points="5.5,14.6 4.7,17 19,17 24.2,15 22.8,14.6 		"/>
		<path class="st0" d="M47.3,1.6c0.1-0.1,0.7-0.6,1.1-1h-1.6c0,0.4,0,0.9,0.1,1C47,1.9,47.1,1.8,47.3,1.6"/>
		<path class="st0" d="M6.7,11.1l-0.8,2.4h16.9c1.2-0.5,2.6-1.2,2.9-1.3c0.6-0.3,2.5-0.8,2.5-0.8s-0.3-0.2-0.9-0.3H6.7z"/>
		<path class="st0" d="M43.2,1.2c1.6,0.4,2,0.6,2,0.6s0.6-0.3,1.3-1.1H10.3L9.5,3.1h27.4c-0.7-0.2-1.7-0.5-2.2-0.8
			c0,0,2.6-0.4,4.2-0.3c1.7,0.1,3.6,0.3,3.6,0.3s-1-1-2.2-1.2C40.4,1.1,41.5,0.8,43.2,1.2"/>
	</g>
	<g>
		<path class="st0" d="M7.1,10.1h18.3C26.6,9.5,29,8.4,32,7.7H7.9L7.1,10.1z"/>
		<path class="st0" d="M86.3,6.5l8,0.3c1.3-1.8,0.4-3.1,0.4-3.1c-0.5-1.2-2.8-2-2.8-2C86.5,0.1,80.5,1,80.5,1
			c-3.2,0.3-4.7,1.4-5.2,1.9L76,0.7h-7.1l-2.8,8.1l-4-8.1h-0.3l0,0h-13c-0.1,0.6-0.4,1.6-0.9,2.2l0,0.2c0.9,0.6,2.1,2.3,2.2,2.5
			c0.1,0.2,0.5,0.2,0.7,0.5c0.2,0.3,0,0.5,0.2,0.8c0.2,0.3,2.8,4.2,4.4,5.9c0.6,0.6,0.4,0.6,0.4,0.8c0,0.2-0.3,0.3-0.5,0.6
			c-0.2,0.3,0,0.8-0.2,1.1c-0.2,0.3-0.7,0.4-1,0.5c-0.4,0.4-1.5,0.5-1.9,0.3c0,0-0.4-0.2-0.5-1.1c-1.2-0.2-3.7-1.6-4.2-2.1
			c-0.7,0.1-1.9-0.4-2-0.5c-0.1-0.1-0.2-0.2-0.5,0c-0.4,0.2-0.5,0.3-0.5,0.6L42.8,17l13.3,0l2.8-8l4.1,8h0.3l0,0l7.1,0l0.9-2.5
			c1.4,2.7,3.8,2.8,3.8,2.8c0.3,0.2,4.7,0.4,6.3,0.5c1.6,0.1,5.7-0.3,5.7-0.3c5.6-0.5,6.2-5.5,6.2-5.5c0.7-3.3-3.4-4.4-3.4-4.4
			c-0.8-0.3-6.9-1-6.9-1c-1.9-0.1-1.3-1.1-1.3-1.1C81.7,4.8,84,4.9,84,4.9c2.4-0.1,2.5,0.5,2.5,0.5C86.7,6.1,86.3,6.5,86.3,6.5
			 M84.6,11.8c0.9,0.3,0.4,1.1,0.4,1.1c-0.3,0.5-1,0.6-1,0.6c-0.5,0-2.2,0.3-3.4,0c-1.2-0.3-1.1-0.9-1.1-0.9c0-0.4,0.1-0.6,0.1-0.6
			l-7.4-0.3l1.1-3.2c1,2.9,6.5,3,6.5,3C82.9,11.6,84.6,11.8,84.6,11.8"/>
	</g>
	<g>
		<path class="st0" d="M92.5,17.7c0.6,0,1.1,0.5,1.1,1.2c0,0.6-0.5,1.2-1.1,1.2c-0.6,0-1.2-0.5-1.2-1.2
			C91.3,18.2,91.9,17.7,92.5,17.7L92.5,17.7z M92.5,17.9c-0.5,0-0.9,0.4-0.9,1c0,0.6,0.4,1,0.9,1s0.9-0.4,0.9-1
			C93.4,18.3,93,17.9,92.5,17.9L92.5,17.9z M92.3,19.6h-0.2v-1.3c0.1,0,0.2,0,0.4,0c0.2,0,0.3,0,0.4,0.1c0.1,0.1,0.1,0.1,0.1,0.3
			c0,0.2-0.1,0.3-0.3,0.3v0c0.1,0,0.2,0.1,0.2,0.3c0,0.2,0.1,0.3,0.1,0.3h-0.2c0,0-0.1-0.2-0.1-0.3c0-0.2-0.1-0.2-0.3-0.2h-0.1V19.6
			z M92.3,18.8h0.1c0.2,0,0.3-0.1,0.3-0.2c0-0.1-0.1-0.2-0.3-0.2c-0.1,0-0.1,0-0.1,0V18.8z"/>
		<path class="st0" d="M0,31.3c0-1.4,1.1-2.7,2.7-2.7c1.2,0,2.1,0.9,2.1,2c0,1.4-1.1,2.7-2.7,2.7C0.8,33.4,0,32.5,0,31.3 M3.9,30.7
			c0-0.8-0.5-1.3-1.3-1.3c-1.1,0-1.8,1-1.8,1.9c0,0.8,0.5,1.3,1.3,1.3C3.2,32.6,3.9,31.6,3.9,30.7"/>
		<path class="st0" d="M5.6,29.8h0.8l-0.1,0.4c0.3-0.3,0.6-0.5,1-0.5c0.6,0,1.1,0.4,1.1,1c0,0.2,0,0.4-0.1,0.6l-0.5,1.9H7l0.5-1.9
			c0-0.1,0-0.3,0-0.3c0-0.3-0.2-0.5-0.6-0.5c-0.4,0-0.8,0.3-1,0.9l-0.5,1.9H4.7L5.6,29.8z"/>
		<path class="st0" d="M10.3,32.7c0.3,0,0.6-0.1,0.9-0.3l0.4,0.5c-0.3,0.3-0.7,0.5-1.3,0.5c-1,0-1.6-0.6-1.6-1.5c0-1,0.8-2.1,2-2.1
			c0.9,0,1.4,0.6,1.4,1.3c0,0.2-0.1,0.5-0.1,0.7H9.4C9.5,32.4,9.8,32.7,10.3,32.7 M11.3,31.3c0,0,0-0.1,0-0.2c0-0.4-0.2-0.7-0.7-0.7
			c-0.5,0-1,0.4-1.1,0.9H11.3z"/>
		<polygon class="st0" points="15.5,28.5 16.3,28.5 15,33.3 14.2,33.3 		"/>
		<path class="st0" d="M16.6,29.8h0.8l-0.9,3.5h-0.8L16.6,29.8z M16.9,28.5h0.9l-0.2,0.8h-0.8L16.9,28.5z"/>
		<path class="st0" d="M18.1,29.8h0.8l-0.1,0.4c0.3-0.3,0.6-0.5,1-0.5c0.6,0,1.1,0.4,1.1,1c0,0.2,0,0.4-0.1,0.6l-0.5,1.9h-0.8
			l0.5-1.9c0-0.1,0-0.3,0-0.3c0-0.3-0.2-0.5-0.6-0.5c-0.4,0-0.8,0.3-1,0.9L18,33.3h-0.8L18.1,29.8z"/>
		<path class="st0" d="M22.8,32.7c0.3,0,0.6-0.1,0.9-0.3l0.4,0.5c-0.3,0.3-0.7,0.5-1.3,0.5c-1,0-1.6-0.6-1.6-1.5c0-1,0.8-2.1,2-2.1
			c0.9,0,1.4,0.6,1.4,1.3c0,0.2-0.1,0.5-0.2,0.7h-2.5C22,32.4,22.3,32.7,22.8,32.7 M23.8,31.3c0,0,0-0.1,0-0.2
			c0-0.4-0.2-0.7-0.7-0.7c-0.5,0-1,0.4-1.1,0.9H23.8z"/>
		<path class="st0" d="M24.3,33.8c0.4,0,0.6-0.2,0.6-0.5h-0.3l0.2-0.7h0.7l-0.2,0.6c-0.2,0.6-0.5,0.8-1,0.9L24.3,33.8z"/>
		<path class="st0" d="M28.9,29.8h0.8l-0.9,3.5H28L28.9,29.8z M29.3,28.5h0.9l-0.2,0.8h-0.9L29.3,28.5z"/>
		<path class="st0" d="M30.4,29.8h0.8l-0.1,0.4c0.3-0.3,0.6-0.5,1-0.5c0.6,0,1.1,0.4,1.1,1c0,0.2,0,0.4-0.1,0.6l-0.5,1.9h-0.8
			l0.5-1.9c0-0.1,0-0.3,0-0.3c0-0.3-0.2-0.5-0.6-0.5c-0.4,0-0.8,0.3-1,0.9l-0.5,1.9h-0.8L30.4,29.8z"/>
		<path class="st0" d="M34.2,30.5h-0.4l0.2-0.7h0.4l0.1-0.3c0.2-0.7,0.6-1.1,1.3-1.1c0.3,0,0.5,0,0.7,0.1l-0.2,0.7
			c-0.2-0.1-0.3-0.1-0.5-0.1c-0.3,0-0.5,0.1-0.6,0.5l0,0.2h1l-0.2,0.7h-1l-0.7,2.8h-0.8L34.2,30.5z"/>
		<path class="st0" d="M36.8,29.8h0.8l-0.9,3.5h-0.8L36.8,29.8z M37.1,28.5H38l-0.2,0.8h-0.9L37.1,28.5z"/>
		<path class="st0" d="M38.3,29.8h0.8L39,30.3c0.3-0.3,0.6-0.5,1-0.5c0.6,0,1.1,0.4,1.1,1c0,0.2,0,0.4-0.1,0.6l-0.5,1.9h-0.8
			l0.5-1.9c0-0.1,0-0.3,0-0.3c0-0.3-0.2-0.5-0.6-0.5c-0.4,0-0.8,0.3-1,0.9l-0.5,1.9h-0.8L38.3,29.8z"/>
		<path class="st0" d="M42.1,29.8h0.8l-0.9,3.5h-0.8L42.1,29.8z M42.4,28.5h0.9L43,29.3h-0.9L42.4,28.5z"/>
		<path class="st0" d="M43.2,32.7c0-0.1,0-0.3,0.1-0.4l0.5-1.8h-0.4l0.2-0.7h0.4l0.3-1H45l-0.3,1h0.9l-0.2,0.7h-0.9l-0.4,1.7
			c0,0.1,0,0.1,0,0.2c0,0.2,0.1,0.3,0.3,0.3c0.2,0,0.3,0,0.5-0.1l-0.2,0.7c-0.2,0.1-0.4,0.1-0.6,0.1C43.5,33.3,43.2,33.1,43.2,32.7"
			/>
		<path class="st0" d="M47.1,32.7c0.3,0,0.6-0.1,0.9-0.3l0.4,0.5c-0.3,0.3-0.7,0.5-1.3,0.5c-1,0-1.6-0.6-1.6-1.5c0-1,0.8-2.1,2-2.1
			c0.9,0,1.4,0.6,1.4,1.3c0,0.2-0.1,0.5-0.1,0.7h-2.5C46.2,32.4,46.5,32.7,47.1,32.7 M48.1,31.3c0,0,0-0.1,0-0.2
			c0-0.4-0.2-0.7-0.7-0.7c-0.5,0-1,0.4-1.1,0.9H48.1z"/>
		<path class="st0" d="M51.8,29.8h0.8l-0.1,0.5c0.3-0.3,0.6-0.5,1.1-0.5c0.8,0,1.3,0.6,1.3,1.5c0,1.2-0.9,2.1-1.9,2.1
			c-0.6,0-1-0.3-1.2-0.7l-0.4,1.7h-0.8L51.8,29.8z M54.1,31.3c0-0.5-0.3-0.9-0.8-0.9c-0.6,0-1.3,0.6-1.3,1.4c0,0.5,0.3,0.9,0.9,0.9
			C53.6,32.7,54.1,32.1,54.1,31.3"/>
		<path class="st0" d="M55.3,31.8c0-1.1,0.9-2,2-2c1,0,1.6,0.7,1.6,1.6c0,1.1-0.9,2-2,2C56,33.4,55.3,32.7,55.3,31.8 M58.2,31.3
			c0-0.6-0.4-0.9-0.9-0.9c-0.7,0-1.2,0.7-1.2,1.3c0,0.6,0.4,0.9,0.9,0.9C57.7,32.7,58.2,32,58.2,31.3"/>
		<path class="st0" d="M58.9,32.7l0.5-0.5c0.4,0.4,0.8,0.5,1.1,0.5c0.3,0,0.6-0.2,0.6-0.4c0-0.2-0.2-0.3-0.5-0.4c-0.6-0.2-1-0.5-1-1
			c0-0.6,0.5-1.1,1.4-1.1c0.5,0,1,0.2,1.3,0.5l-0.4,0.5c-0.3-0.3-0.6-0.4-1-0.4c-0.3,0-0.5,0.2-0.5,0.4c0,0.2,0.2,0.3,0.6,0.5
			c0.5,0.2,1,0.5,1,1c0,0.7-0.6,1.2-1.4,1.2C59.9,33.4,59.3,33.1,58.9,32.7"/>
		<path class="st0" d="M61.9,32.7l0.5-0.5c0.4,0.4,0.8,0.5,1.1,0.5c0.3,0,0.6-0.2,0.6-0.4c0-0.2-0.2-0.3-0.5-0.4c-0.6-0.2-1-0.5-1-1
			c0-0.6,0.5-1.1,1.4-1.1c0.5,0,1,0.2,1.3,0.5l-0.4,0.5c-0.3-0.3-0.6-0.4-1-0.4c-0.3,0-0.5,0.2-0.5,0.4c0,0.2,0.2,0.3,0.6,0.5
			c0.5,0.2,1,0.5,1,1c0,0.7-0.6,1.2-1.4,1.2C62.9,33.4,62.3,33.1,61.9,32.7"/>
		<path class="st0" d="M66,29.8h0.8l-0.9,3.5h-0.8L66,29.8z M66.3,28.5h0.9L67,29.3h-0.9L66.3,28.5z"/>
		<path class="st0" d="M67.5,32.7l-0.2,0.6h-0.8l1.3-4.8h0.8l-0.5,1.8c0.3-0.3,0.6-0.5,1.1-0.5c0.8,0,1.3,0.6,1.3,1.5
			c0,1.2-0.9,2.1-1.9,2.1C68.1,33.4,67.8,33,67.5,32.7 M69.8,31.3c0-0.5-0.3-0.9-0.8-0.9c-0.6,0-1.3,0.6-1.3,1.4
			c0,0.5,0.3,0.9,0.9,0.9C69.3,32.7,69.8,32.1,69.8,31.3"/>
		<path class="st0" d="M71.6,29.8h0.8l-0.9,3.5h-0.8L71.6,29.8z M72,28.5h0.9l-0.2,0.8h-0.9L72,28.5z"/>
		<polygon class="st0" points="73.6,28.5 74.4,28.5 73.1,33.3 72.3,33.3 		"/>
		<path class="st0" d="M74.8,29.8h0.8l-0.9,3.5h-0.8L74.8,29.8z M75.1,28.5H76l-0.2,0.8h-0.9L75.1,28.5z"/>
		<path class="st0" d="M75.9,32.7c0-0.1,0-0.3,0.1-0.4l0.5-1.8H76l0.2-0.7h0.4l0.3-1h0.8l-0.3,1h0.9l-0.2,0.7h-0.9l-0.4,1.7
			c0,0.1,0,0.1,0,0.2c0,0.2,0.1,0.3,0.3,0.3c0.2,0,0.3,0,0.5-0.1l-0.2,0.7c-0.2,0.1-0.4,0.1-0.6,0.1C76.2,33.3,75.9,33.1,75.9,32.7"
			/>
		<path class="st0" d="M79,29.8h0.8l-0.9,3.5h-0.8L79,29.8z M79.3,28.5h0.9l-0.2,0.8h-0.9L79.3,28.5z"/>
		<path class="st0" d="M81.5,32.7c0.3,0,0.6-0.1,0.9-0.3l0.4,0.5c-0.3,0.3-0.7,0.5-1.3,0.5c-1,0-1.6-0.6-1.6-1.5c0-1,0.8-2.1,2-2.1
			c0.9,0,1.4,0.6,1.4,1.3c0,0.2-0.1,0.5-0.2,0.7h-2.5C80.6,32.4,80.9,32.7,81.5,32.7 M82.5,31.3c0,0,0-0.1,0-0.2
			c0-0.4-0.2-0.7-0.7-0.7c-0.5,0-1,0.4-1.1,0.9H82.5z"/>
		<path class="st0" d="M83.2,32.7l0.5-0.5c0.4,0.4,0.8,0.5,1.1,0.5c0.3,0,0.6-0.2,0.6-0.4c0-0.2-0.2-0.3-0.5-0.4c-0.6-0.2-1-0.5-1-1
			c0-0.6,0.5-1.1,1.4-1.1c0.5,0,1,0.2,1.3,0.5l-0.4,0.5c-0.3-0.3-0.6-0.4-1-0.4c-0.3,0-0.5,0.2-0.5,0.4c0,0.2,0.2,0.3,0.6,0.5
			c0.5,0.2,1,0.5,1,1c0,0.7-0.6,1.2-1.4,1.2C84.2,33.4,83.6,33.1,83.2,32.7"/>
		<polygon class="st0" points="86.5,32.6 87.2,32.6 87,33.3 86.3,33.3 		"/>
	</g>
</g>
</svg>
