<?xml version="1.0" encoding="utf-8"?>
<!-- Generator: Adobe Illustrator 26.0.1, SVG Export Plug-In . SVG Version: 6.00 Build 0)  -->
<svg version="1.1" id="Layer_1" xmlns="http://www.w3.org/2000/svg" xmlns:xlink="http://www.w3.org/1999/xlink" x="0px" y="0px"
	 viewBox="0 0 95 35" style="enable-background:new 0 0 95 35;" xml:space="preserve">
<style type="text/css">
	.st0{fill:#104076;}
	.st1{fill:#CCCCCC;}
</style>
<path class="st0" d="M-39.1,613.7"/>
<g>
	<g id="g2096" transform="translate(0,-11.54035)">
		<path id="path14" class="st1" d="M93.8,33.9v-0.3h0.2c0.1,0,0.2,0,0.2,0.1c0,0.1-0.1,0.1-0.2,0.1H93.8z M93.8,34h0.1l0.3,0.5h0.3
			L94.1,34c0.1,0,0.3-0.1,0.3-0.3c0-0.2-0.2-0.3-0.5-0.3h-0.4v1.1h0.2V34z M95,34c0-0.6-0.5-1-1.1-1s-1.1,0.4-1.1,1
			c0,0.6,0.5,1,1.1,1S95,34.6,95,34 M94.7,34c0,0.5-0.3,0.8-0.8,0.8v0c-0.4,0-0.7-0.3-0.7-0.8c0-0.5,0.3-0.8,0.7-0.8
			C94.4,33.2,94.7,33.5,94.7,34"/>
		<path id="path16" class="st1" d="M56.5,23.1l0,11.5h3.2V23.1H56.5z M31,23.1v11.5h3.3v-8.7l2.5,0c0.8,0,1.4,0.2,1.8,0.6
			c0.5,0.5,0.7,1.4,0.7,3v5h3.2v-6.3c0-4.5-2.9-5.1-5.7-5.1H31z M61.7,23.1v11.5h5.3c2.8,0,3.7-0.5,4.7-1.5c0.7-0.7,1.1-2.3,1.1-4.1
			c0-1.6-0.4-3.1-1-3.9c-1.2-1.6-2.9-1.9-5.5-1.9H61.7z M64.9,25.6h1.4c2,0,3.3,0.9,3.3,3.3c0,2.4-1.3,3.3-3.3,3.3h-1.4V25.6z
			 M51.8,23.1l-2.7,9.1l-2.6-9.1H43l3.7,11.5h4.7l3.7-11.5H51.8z M74.3,34.6h3.2V23.1h-3.2V34.6z M83.4,23.1l-4.5,11.5H82l0.7-2h5.3
			l0.7,2h3.5l-4.6-11.5H83.4z M85.5,25.2l2,5.4h-4L85.5,25.2z"/>
	</g>
	<path id="path2045" class="st1" d="M10.2,13.8v-1.6c0.2,0,0.3,0,0.5,0c4.5-0.1,7.4,3.8,7.4,3.8s-3.2,4.4-6.6,4.4
		c-0.5,0-0.9-0.1-1.3-0.2v-5c1.7,0.2,2.1,1,3.1,2.7l2.3-2c0,0-1.7-2.2-4.6-2.2C10.8,13.8,10.5,13.8,10.2,13.8 M10.2,8.4v2.4
		c0.2,0,0.3,0,0.5,0C16.9,10.6,21,16,21,16s-4.7,5.7-9.5,5.7c-0.4,0-0.9,0-1.3-0.1V23c0.3,0,0.7,0.1,1,0.1c4.5,0,7.8-2.3,10.9-5
		c0.5,0.4,2.7,1.4,3.1,1.9c-3,2.5-10,4.5-14,4.5c-0.4,0-0.8,0-1.1-0.1v2.1h17.2V8.4H10.2z M10.2,20.2v1.3c-4.2-0.7-5.3-5.1-5.3-5.1
		s2-2.2,5.3-2.6v1.4c0,0,0,0,0,0c-1.7-0.2-3.1,1.4-3.1,1.4S7.9,19.4,10.2,20.2 M2.8,16.2c0,0,2.5-3.7,7.4-4v-1.3C4.7,11.3,0,16,0,16
		s2.7,7.8,10.2,8.5V23C4.7,22.3,2.8,16.2,2.8,16.2"/>
</g>
</svg>
