<?xml version="1.0" encoding="utf-8"?>
<!-- Generator: Adobe Illustrator 26.0.1, SVG Export Plug-In . SVG Version: 6.00 Build 0)  -->
<svg version="1.1" id="Layer_1" xmlns="http://www.w3.org/2000/svg" xmlns:xlink="http://www.w3.org/1999/xlink" x="0px" y="0px"
	 viewBox="0 0 95 35" style="enable-background:new 0 0 95 35;" xml:space="preserve">
<style type="text/css">
	.st0{fill:#FFFFFF;}
</style>
<g>
	<path class="st0" d="M57,0.3l-1.9,0l-7.1,11.4L40.8,0.3h-1.9l0,34.4h1.9l7.1-11.4l7.1,11.4l1.9,0l0,0L57,0.3L57,0.3z"/>
	<path class="st0" d="M38.9,0.3H28.4l10.5,17.2L28.4,34.7h10.5L38.9,0.3L38.9,0.3z"/>
	<path class="st0" d="M67.5,0.3H57l0,34.4l0,0l10.5,0L57,17.5L67.5,0.3L67.5,0.3z"/>
	<path class="st0" d="M82.5,0.3h-15L57,17.5l10.5,17.2h0l0-7.6h17.8c7.5,0,9.7-5.9,9.7-11v-4C95,5.3,92.6,0.3,82.5,0.3L82.5,0.3z
		 M85.2,14.2c0,2-1,4.4-3.4,4.4H67.5V8.8h13.3c3.2,0,4.3,1.3,4.3,3.7L85.2,14.2L85.2,14.2z"/>
	<path class="st0" d="M38.9,17.5L28.4,0.3l0,0l0,20.8L10.5,0.3H0v34.4l10.5,0l0-20.8l17.8,20.8L38.9,17.5L38.9,17.5z"/>
</g>
</svg>
