<?xml version="1.0" encoding="utf-8"?>
<!-- Generator: Adobe Illustrator 26.0.1, SVG Export Plug-In . SVG Version: 6.00 Build 0)  -->
<svg version="1.1" id="Layer_1" xmlns="http://www.w3.org/2000/svg" xmlns:xlink="http://www.w3.org/1999/xlink" x="0px" y="0px"
	 viewBox="0 0 95 35" style="enable-background:new 0 0 95 35;" xml:space="preserve">
<style type="text/css">
	.st0{fill:#343741;}
</style>
<g>
	<path class="st0" d="M82.8,13.3c-0.4,0-0.8,0.4-0.8,0.8c0,0.4,0.4,0.8,0.8,0.8c0.4,0,0.8-0.4,0.8-0.8
		C83.5,13.7,83.2,13.3,82.8,13.3z M83,14.6l-0.2-0.4h-0.1v0.4h-0.2v-1.1h0.3c0.2,0,0.2,0,0.3,0c0.2,0.1,0.2,0.2,0.2,0.3
		c0,0,0,0.1,0,0.1c0,0,0,0.1-0.1,0.2c0,0,0,0-0.1,0l0.3,0.5H83z"/>
	<path class="st0" d="M82.7,13.7L82.7,13.7L82.6,14h0.1v0c0.1,0,0.1,0,0.2-0.1c0,0,0-0.1,0-0.1c0-0.1,0-0.1-0.1-0.1
		C82.8,13.7,82.8,13.7,82.7,13.7z"/>
	<path class="st0" d="M23,14.7h-4.8c-1.6,0-2.8,1.3-2.8,2.8s1.3,2.8,2.8,2.8H23c1.6,0,2.8-1.3,2.8-2.8S24.6,14.7,23,14.7z"/>
	<path class="st0" d="M0,0.1v34.7h95V0.1H0z M23.2,21.9h-5c-2.4,0-4.4-1.9-4.4-4.3s1.9-4.3,4.4-4.3h5c2.4,0,4.3,1.9,4.3,4.3
		S25.6,21.9,23.2,21.9z M38.3,21.9h-2.4l-5-4.4h4.7c0.8,0,1.4-0.6,1.4-1.4s-0.6-1.4-1.4-1.4h-5.5v7.2h-1.7v-8.7h7.3
		c1.6,0,2.9,1.3,2.9,2.9S37.3,19,35.7,19h0h-0.8L38.3,21.9z M49.3,21.9l-0.9-1.5h-4.5l-1-1.5v0h4.5L45,15l-4.3,6.9h-2l5.3-8.2
		c0.2-0.3,0.6-0.5,1-0.5c0.4,0,0.8,0.2,1,0.5l5.3,8.3H49.3z M59.9,21.9h-5.1c-2.4,0-4.3-1.9-4.3-4.3s1.9-4.3,4.3-4.3h6l-1,1.5h-4.9
		c-1.6,0-2.8,1.3-2.8,2.8s1.3,2.8,2.8,2.8h6L59.9,21.9z M70.2,21.9h-7.6c-0.2,0-0.5-0.1-0.6-0.3c-0.2-0.2-0.2-0.4-0.2-0.6v-7.9h1.7
		v7.2l0,0h7.8L70.2,21.9z M80.2,21.8h-5.2c-2.4,0-4.4-1.9-4.4-4.3s1.9-4.3,4.4-4.3h6l-1,1.5h-4.9c-1.3,0-2.4,0.9-2.7,2.1h8.1l-1,1.5
		h-7.1c0.3,1.2,1.4,2,2.7,2l0,0h6L80.2,21.8z M82.8,15.1c-0.5,0-1-0.4-1-1c0-0.5,0.4-1,1-1c0.5,0,1,0.4,1,1
		C83.7,14.6,83.3,15.1,82.8,15.1z"/>
</g>
</svg>
