<?xml version="1.0" encoding="utf-8"?>
<!-- Generator: Adobe Illustrator 26.0.1, SVG Export Plug-In . SVG Version: 6.00 Build 0)  -->
<svg version="1.1" id="Layer_1" xmlns="http://www.w3.org/2000/svg" xmlns:xlink="http://www.w3.org/1999/xlink" x="0px" y="0px"
	 viewBox="0 0 95 35" style="enable-background:new 0 0 95 35;" xml:space="preserve">
<style type="text/css">
	.st0{fill:#CCCCCC;}
</style>
<g>
	<g>
		<path class="st0" d="M9.1,17.5c0-6.5,3.6-8.1,5.9-8.1s5.9,1.6,5.9,8.1c0,6.6-3.6,8.1-5.9,8.1S9.1,24.1,9.1,17.5 M0,17.5
			C0,26.6,6,33,15,33s15-6.4,15-15.5S24,2,15,2C5.9,2,0,8.4,0,17.5"/>
		<polygon class="st0" points="38.1,10.2 29.8,10.2 29.8,2.7 55.5,2.7 55.5,10.2 47.2,10.2 47.2,32.3 38.1,32.3 		"/>
		<rect x="57.5" y="2.7" class="st0" width="9.1" height="29.7"/>
		<path class="st0" d="M77.3,22.3c0,0.7,0.1,1.5,0.4,1.9c0.6,1.8,2.7,2.2,4.4,2.2c1.5,0,3.8-0.5,3.8-2.7c0-1.6-1.3-1.9-6.4-3.4
			c-4.7-1.3-10-2.7-10-8.6c0-6.9,5.8-9.8,12-9.8c6.4,0,12.1,2.4,12.3,9.7h-8.6c0.1-1.1-0.4-1.8-1.1-2.4c-0.7-0.5-1.8-0.7-2.7-0.7
			c-1.2,0-3.3,0.4-3.3,1.9c0.1,2.1,4.4,2.5,8.6,3.8c4.2,1.2,8.3,3.2,8.3,8.6C95,30.6,87.9,33,81.3,33c-3.4,0-12.9-1.2-13.1-10.7
			C68.2,22.3,77.3,22.3,77.3,22.3z"/>
	</g>
</g>
</svg>
