<?xml version="1.0" encoding="utf-8"?>
<!-- Generator: Adobe Illustrator 26.0.1, SVG Export Plug-In . SVG Version: 6.00 Build 0)  -->
<svg version="1.1" id="Layer_1" xmlns="http://www.w3.org/2000/svg" xmlns:xlink="http://www.w3.org/1999/xlink" x="0px" y="0px"
	 viewBox="0 0 95 35" style="enable-background:new 0 0 95 35;" xml:space="preserve">
<style type="text/css">
	.st0{fill:#FFFFFF;}
</style>
<g>
	<path class="st0" d="M6.7,14h1.5c0.9,0,2,0.2,2,1.3c0,1-0.6,1.6-2.4,1.6H6.1L6.7,14z M0,24.8h4.4l0.9-4.4h3c3.8,0,6.3-2.5,6.3-5.4
		c0-3.2-1.7-4.7-4.4-4.7H3L0,24.8z"/>
	<path class="st0" d="M20,15.2L20,15.2l0.5,4.4h-2.8L20,15.2z M10.5,24.8h4.6l1.1-2.1h4.7l0.2,2.1h4.4l-2.3-14.5h-4.4L10.5,24.8z"/>
	<polygon class="st0" points="27.3,19.5 24.2,10.3 28.7,10.3 30.1,15.7 33.6,10.3 38.8,10.3 31.8,19.4 30.7,24.8 26.2,24.8 	"/>
	<path class="st0" d="M49.5,19.3c-0.3,1.5-1.4,5.9-7.4,5.9c-4.2,0-6.3-2.7-6.3-6.6c0-4.7,2.9-8.6,7.8-8.6c3.2,0,6.1,1.4,6.2,5.8
		h-4.1c0.1-1.4-0.6-2.1-2-2.1c-2.5,0-3.4,2.8-3.4,4.9c0,1.2,0.3,3,2.3,3c1.4,0,2.2-1,2.5-2.2L49.5,19.3L49.5,19.3z"/>
	<polygon class="st0" points="52.1,10.3 56.6,10.3 55.5,15.4 59.6,15.4 60.6,10.3 65.1,10.3 62.1,24.8 57.6,24.8 58.8,19 54.7,19 
		53.5,24.8 49,24.8 	"/>
	<path class="st0" d="M92.4,10.3h-5.3L84.3,14l-1.4-3.8H78l0,0H66.3l-3,14.5h11.2h0.9h4.6l3.4-4.1l1.6,4.1h5l-3.5-7.7L92.4,10.3z
		 M75.7,23.5l0.5-2.4h-7.7l0.4-1.8h7l0.7-3.5h-7L70,14h7.5l0.7-3.4l3.2,6.4L75.7,23.5z"/>
	<path class="st0" d="M93,10.9c0-0.5,0.4-0.9,0.9-0.9c0.5,0,0.9,0.4,0.9,0.9c0,0.5-0.4,0.9-0.9,0.9C93.4,11.9,93,11.5,93,10.9
		 M92.8,10.9c0,0.7,0.5,1.1,1.1,1.1c0.6,0,1.1-0.5,1.1-1.1s-0.5-1.1-1.1-1.1C93.3,9.9,92.8,10.3,92.8,10.9 M93.5,11.6h0.2v-0.5h0.2
		l0.3,0.5h0.2l-0.4-0.5c0.2,0,0.3-0.1,0.3-0.3c0-0.3-0.2-0.4-0.4-0.4h-0.5L93.5,11.6L93.5,11.6z M93.7,10.5H94c0.2,0,0.3,0,0.3,0.2
		c0,0.2-0.2,0.2-0.3,0.2h-0.2L93.7,10.5L93.7,10.5z"/>
</g>
</svg>
