<?xml version="1.0" encoding="utf-8"?>
<!-- Generator: Adobe Illustrator 26.0.1, SVG Export Plug-In . SVG Version: 6.00 Build 0)  -->
<svg version="1.1" id="Layer_1" xmlns="http://www.w3.org/2000/svg" xmlns:xlink="http://www.w3.org/1999/xlink" x="0px" y="0px"
	 viewBox="0 0 95 35" style="enable-background:new 0 0 95 35;" xml:space="preserve">
<style type="text/css">
	.st0{fill:#FFFFFF;}
</style>
<g>
	<path class="st0" d="M28,18.5h-7v9.6h3.4v-3H28c2.4,0,3.3-1.4,3.3-3.3C31.3,19.8,30.4,18.5,28,18.5z M26.6,22.8h-2.2v-2h2.2
		c0.9,0,1.2,0.3,1.2,1C27.8,22.5,27.4,22.8,26.6,22.8z M32.4,18.5h9.2v2.3h-5.8v1.3h5.4v2.3h-5.4v1.3h5.8v2.3h-9.2V18.5z M50.1,18.5
		h-7v9.6h3.4v-3h3.6c2.4,0,3.3-1.4,3.3-3.3C53.4,19.8,52.5,18.5,50.1,18.5z M48.6,22.8h-2.2v-2h2.2c0.9,0,1.2,0.3,1.2,1
		C49.8,22.5,49.5,22.8,48.6,22.8z M65.2,25c0,2.3-1.7,3.4-5.5,3.4c-2.6,0-5.5-0.4-5.5-3.2h4.1c0,0.3,0.1,0.5,0.4,0.7
		c0.3,0.1,0.6,0.2,1.2,0.2c1.1,0,1.4-0.3,1.4-0.8c0-0.3-0.2-0.6-0.6-0.6l-3.9-0.6c-1.7-0.3-2.4-1.4-2.4-2.7c0-2.5,2.2-3.2,5-3.2
		c3.8,0,5.4,1.1,5.5,3.1h-4c0-0.4-0.2-0.6-0.5-0.8c-0.3-0.1-0.7-0.2-1.1-0.2c-1,0-1.4,0.3-1.4,0.7c0,0.3,0.1,0.4,0.4,0.5l4.1,0.7
		C64.2,22.5,65.2,23.4,65.2,25z M66.3,18.5h3.4v9.6h-3.4V18.5z M74.4,23.3c0,1.9,0.9,2.7,2.1,2.7c1.1,0,1.7-0.5,2-1.7h3.8v0
		c-0.2,1.3-0.6,2.3-1.5,3c-0.8,0.7-2.1,1.1-4.2,1.1c-2.1,0-5.9-0.2-5.9-5.1c0-5,3.8-5.1,5.9-5.1c2.1,0,5.2,0.3,5.7,4.1h-3.8
		c-0.1-0.7-0.5-1.7-1.8-1.7C75.3,20.6,74.4,21.4,74.4,23.3z M89.1,18.2c-2.1,0-5.9,0.2-5.9,5.1c0,5,3.8,5.1,5.9,5.1
		c2.1,0,5.9-0.2,5.9-5.1C95,18.4,91.2,18.2,89.1,18.2z M89.1,26.1c-1.4,0-2.3-0.8-2.3-2.7c0-1.9,0.9-2.7,2.3-2.7
		c1.4,0,2.3,0.8,2.3,2.7C91.4,25.3,90.5,26.1,89.1,26.1z"/>
	<path class="st0" d="M15.8,18.6c0.2-4.6-3.7-9.8-9.2-10.4l0-0.1c5.3,0,9.4,4.9,9.4,8.8C16.1,17.8,16,18.3,15.8,18.6L15.8,18.6
		L15.8,18.6z M15.5,19.2c-0.4,0.4-0.8,0.9-1.3,1.3c-1-5.5-5-10.4-7.9-11.8l-0.1,0c2.9,2.4,6.3,7,7.7,12c-0.6,0.5-1.4,0.9-2.2,1.3
		C9,18.9,6.4,12.9,5.6,9.1l-0.1,0c0,3.7,2.6,10,5.8,13c-0.7,0.3-1.5,0.5-2.3,0.6c-3.1-1.2-5.2-5.1-5.2-9.1c0-2.6,0.8-4.2,0.9-4.5
		l-0.1,0C4.5,9.4,3.4,11,3.4,13.8c0,4.5,2.2,7.9,5.2,9c-1,0.1-2.1,0.1-3.2-0.1l0,0.1c0.3,0.1,1.4,0.6,3,0.6
		C12.1,23.3,14.6,21,15.5,19.2L15.5,19.2L15.5,19.2z"/>
	<path class="st0" d="M8,6.5c-2.8,0-6.1,2-6.1,3.9c0,0.7,0.7,1.3,2,1.3c3.1,0,6.1-2.2,6.1-3.8C10,7,9.1,6.5,8,6.5L8,6.5z M9.1,7.8
		c0,1.4-2.7,3.1-5,3.1c-1,0-1.5-0.4-1.5-1c0-1.4,2.7-3.1,4.9-3.1C8.9,6.8,9.1,7.5,9.1,7.8L9.1,7.8z"/>
	<path class="st0" d="M0.8,11.3c-0.1,0.1-0.4,0.8-0.4,1.4c0,1.2,1.2,2.3,3.4,2.3c4.2,0,9-3.1,9-6c0-1.3-1.2-2-2.1-2.1l0,0.1
		C11,7,12,7.4,12,8.5c0,2.3-4.3,5.4-8.5,5.4c-1.6,0-2.7-0.8-2.7-2C0.8,11.6,0.9,11.3,0.8,11.3L0.8,11.3L0.8,11.3z"/>
	<path class="st0" d="M14.6,9.2c0.1,0.1,0.8,0.7,0.8,1.8c0,3.7-5.8,7.4-11,7.4c-3.1,0-4.5-1.5-4.4-2.9h0.1c0.1,0.7,1.1,1.9,3.8,1.9
		c5.1,0,10.9-3.8,10.9-7.1C14.7,9.7,14.6,9.4,14.6,9.2L14.6,9.2L14.6,9.2z"/>
	<path class="st0" d="M16.5,12.6c0,0.1,0.1,0.4,0.1,1c0,4.1-5.9,7.7-11,7.7c-2.6,0-4-1.3-4.3-1.8l0,0c0.7,0.6,2.2,1.1,3.8,1.1
		C9.7,20.6,16.5,17.1,16.5,12.6L16.5,12.6L16.5,12.6z"/>
</g>
</svg>
