<?xml version="1.0" encoding="utf-8"?>
<!-- Generator: Adobe Illustrator 26.0.1, SVG Export Plug-In . SVG Version: 6.00 Build 0)  -->
<svg version="1.1" id="Layer_1" xmlns="http://www.w3.org/2000/svg" xmlns:xlink="http://www.w3.org/1999/xlink" x="0px" y="0px"
	 viewBox="0 0 95 35" style="enable-background:new 0 0 95 35;" xml:space="preserve">
<style type="text/css">
	.st0{fill-rule:evenodd;clip-rule:evenodd;fill:#343741;}
</style>
<g>
	<path class="st0" d="M47.5,0C30.9,0,17.4,7.8,17.4,17.5c0,6.1,5.3,11.4,13.4,14.6l6.2-21.9c0.6-2.1,2.8-6.4,7.5-6.6
		c1.3-0.1,3.9,0.8,3.9,3.4c0,1-0.8,1.8-1.9,1.8S44.6,7.9,44.6,7c0-1,0.8-1.8,1.9-1.8c-0.3-0.4-1.3-1-2-1S42.2,4.5,41.2,8l-1.6,5.5h6
		l-2.6,9.1h-3.2l2.3-8h-2.8L34,33.1c4.1,1.2,8.6,1.9,13.5,1.9c16.6,0,30.1-7.8,30.1-17.5C77.6,7.8,64.1,0,47.5,0L47.5,0z M34.5,14.4
		c-1.1,4-4.7,4-5.9,4h-2.4l-1.3,4.3h-3.5L25,10.2h-1.8l0.3-0.9h7.3C35,9.3,35,12.2,34.5,14.4L34.5,14.4z M52.4,22.7h-7.5l5.4-8h-3.1
		l0.3-1.1h7.6l-5.4,8h3L52.4,22.7L52.4,22.7z M64.5,18.3h-6.4c-0.5,1.5-0.7,3.4,0.5,3.4c1.2,0,1.9-1.2,2.4-2.4h3.1
		c-1,3.4-3.9,3.7-5.7,3.6c-3.8-0.2-4.3-2.6-3.5-5.2c1.1-3.4,3.3-4.6,6.1-4.6C65.1,13.2,65.1,16.5,64.5,18.3L64.5,18.3z M74,16.6
		c-1,0-1.8-0.8-1.7-1.9c-0.7,0.1-1.7,1.5-1.9,2.2l-1.7,5.7h-3.5l2.3-8h-1.4l0.3-1.1h4.9L70.9,15c1-1.3,2.4-1.7,3-1.7
		c1,0,1.7,0.7,1.7,1.6C75.7,15.9,74.9,16.6,74,16.6L74,16.6z M58.5,17.4c0.3-1,0.8-3.3,2.4-3.3c1.6,0,0.8,2.4,0.6,3.3L58.5,17.4
		L58.5,17.4z M28.6,10.2H30c1.1,0,1.6,1.1,1,3.7c-0.6,2.6-2,3.5-3,3.5h-1.4L28.6,10.2z"/>
</g>
</svg>
