<?xml version="1.0" encoding="utf-8"?>
<!-- Generator: Adobe Illustrator 26.0.1, SVG Export Plug-In . SVG Version: 6.00 Build 0)  -->
<svg version="1.1" id="Layer_1" xmlns="http://www.w3.org/2000/svg" xmlns:xlink="http://www.w3.org/1999/xlink" x="0px" y="0px"
	 viewBox="0 0 95 35" style="enable-background:new 0 0 95 35;" xml:space="preserve">
<style type="text/css">
	.st0{fill:#FFFFFF;}
</style>
<g>
	<path id="P" class="st0" d="M29.1,3c1.6,0,6.2,0.2,3.2,8.8c-3.1,9-9.9,7.2-9.9,7.2l5-16L29.1,3L29.1,3z M41.3,12.4
		c3.8-9.4-3.4-12-8-12H17.8c1.3,0.9,1.1,2.1,0.8,2.8L9.6,32c-0.4,1.2-1.7,2.3-2.4,2.5h12.5c-0.7-0.1-1.7-1.1-1.3-2.4l3.3-10.4
		C21.7,21.7,36.7,23.7,41.3,12.4"/>
	<path id="_x26_" class="st0" d="M46.3,30.1c-0.5,0.3-2.4,1.3-4.3,1.5c-1.7,0.2-4.5-0.5-4.5-3.9c0-2.9,3.2-5,4.9-5.8
		C43.2,24.7,44.7,27.9,46.3,30.1 M51.3,11.7c-0.4,2.8-4,5.5-4.8,5.9c-0.2-1.5-0.1-4,1.2-6c0.9-1.3,2-1.9,2.9-1.6
		C51.3,10.3,51.4,11,51.3,11.7 M51.3,34.5h8.5c-2.7-0.9-6.7-3.4-8.3-5.2c1.3-1.4,2.9-3.2,3.2-6.7h-4.4c0,0,0.9,0.5,0.9,1.5
		c0,1-0.4,2.3-1.1,3.2c-1.3-1.9-2.7-4.1-3.1-7.2c1.7-0.9,4.1-1.8,6-3.4c1.8-1.6,2.2-3.1,2.3-4.1v-0.1c0-1-0.4-2-1.1-2.7
		c-1.3-1.3-3.3-1.8-5.3-1.4c-1.7,0.3-3.1,1.2-3.8,1.9c-2.6,2.4-2.9,6.3-2.9,8.1c0,0.4,0,0.8,0,0.9c-0.1,0-0.4,0.2-0.4,0.2
		c-1.8,0.7-6.8,2-8.6,6.1c-0.2,0.5-0.5,1.6-0.5,3c0,1.1,0.2,2.3,0.9,3.5c1.3,1.9,3.4,3.2,6.8,3.1c3.7,0,7.3-2.6,8-3
		C48.7,32.6,50.4,34.1,51.3,34.5"/>
	<path id="G" class="st0" d="M76.9,3.1c5-1.2,9.2,2.7,9.5,3l1.4-4.5c-2-0.6-16.3-5.5-26.5,6.1c-6.2,7.1-7.8,21.7,0.1,25.6
		c8.5,4.2,17.9-0.6,18.5-1L83.9,20c0.4-1.5,1.3-2.5,3-3.1H73.5c2,0.8,1.8,2.3,1.6,2.9l-3.9,12.3C70.7,32.2,59.9,34.9,66,16
		C67.3,12,70.9,4.5,76.9,3.1"/>
</g>
</svg>
