<?xml version="1.0" encoding="utf-8"?>
<!-- Generator: Adobe Illustrator 26.0.1, SVG Export Plug-In . SVG Version: 6.00 Build 0)  -->
<svg version="1.1" id="Layer_1" xmlns="http://www.w3.org/2000/svg" xmlns:xlink="http://www.w3.org/1999/xlink" x="0px" y="0px"
	 viewBox="0 0 95 35" style="enable-background:new 0 0 95 35;" xml:space="preserve">
<style type="text/css">
	.st0{fill:#343741;}
</style>
<g>
	<path class="st0" d="M15.1,18.3c-1.2,1-0.7,2.7-0.2,3.6c0.6,1.1-0.2,2.8-1.3,3.8c2.8-1.6,4.5-4.5,4.7-7.6
		C17.4,17.5,16,17.5,15.1,18.3"/>
	<path class="st0" d="M8.7,20.9c-1.7-1.5-3.3-0.8-4.3,0.5c-1,1.3,0.4,1.6,2.4,2.1c1.5,0.3,1.3,2.4,1.5,2.9
		C10,23.3,9.5,21.5,8.7,20.9"/>
	<path class="st0" d="M11.5,11.8c3,2.3,0.4,3.5,0.4,3.5c1.7,1.5,3.4-1.3,5.2,0.3c0.5,0.4,0.8,0.9,1,1.5c-0.3-3.7-2.9-6.9-6.5-8
		C10.4,9.7,9.8,10.5,11.5,11.8L11.5,11.8z"/>
	<path class="st0" d="M4.3,19.8C3.6,18,4.5,17.1,7.4,15c3.7-2.7-2.1-1.7,0.3-4.1c0.9-0.8,2-1.5,2.9-2.1C5.7,8,1,11.3,0.1,16.3
		C0,16.8,0,17.3,0,17.8v0.6C1.4,19.7,3.1,20.5,4.3,19.8 M23,12.8h3.8c1.6,0,2.9,0,3.8,1.2c0.3,0.6,0.5,1.3,0.5,1.9
		c0,0.5-0.1,1-0.3,1.5c-0.8,1.7-2.5,1.7-3.8,1.8h-1.6v3.1H23V12.8z M25.3,14.5v2.8h1.4c0.9,0,2,0,2-1.5c0-1.4-1.2-1.4-1.9-1.4H25.3z
		 M32.4,12.8h4.3c1,0,2.2,0,3.1,0.9c0.5,0.6,0.8,1.3,0.8,2.1c0,1.9-1.3,2.4-2,2.6l2.2,3.8h-2.7l-1.9-3.4h-1.4v3.4h-2.4V12.8z
		 M34.8,14.5v2.5h1.9c0.3,0,1.4,0,1.4-1.3c0-1.2-0.9-1.2-1.4-1.3H34.8z M46.3,22.5c-3,0-4.7-2.3-4.7-5.1c0-2.5,1.6-5,4.7-5
		c0.6,0,1.2,0.1,1.7,0.3c2.9,1,3.1,4.2,3.1,4.8c0,1.6-0.8,3.1-1.8,4C48.4,22.2,47.4,22.5,46.3,22.5L46.3,22.5z M47.9,15.1
		c-0.4-0.4-1-0.7-1.7-0.7c-1.4,0-2.3,1.3-2.3,3c0,2.3,1.3,3.1,2.4,3.1s2.3-0.8,2.4-2.8C48.7,16.7,48.5,15.7,47.9,15.1L47.9,15.1z
		 M63.9,22.5c-2.9,0-4.7-2-4.7-5c0-3.5,2.4-4.9,4.8-4.9c2.7,0,4.7,1.8,4.7,4.9C68.7,20.3,67.1,22.5,63.9,22.5L63.9,22.5z M64,13.5
		c-2.4,0-3.4,1.8-3.4,4c0,2,1,4,3.4,4c2.5,0,3.4-2.1,3.4-4.1C67.3,15.1,66.1,13.5,64,13.5 M82,22.3h-1.3v-9.5H82V22.3z M87.3,17.9
		C86,17.6,84,17.1,84,15.2c0-0.7,0.3-1.4,0.9-1.8c0.8-0.7,1.9-0.8,2.5-0.8c0.6,0,1.7,0.1,2.5,0.7c0.9,0.7,1.1,1.7,1.2,2.2l-1.3,0.1
		c0-0.6-0.3-1.2-0.8-1.6c-0.5-0.3-1.1-0.5-1.7-0.5c-1.1,0-2.1,0.5-2.1,1.5s1,1.3,1.9,1.5l1,0.3c0.5,0.1,1,0.2,1.5,0.4
		c1.4,0.6,1.6,1.7,1.6,2.4c0,0.9-0.4,1.8-1.2,2.3c-0.9,0.6-2,0.7-2.6,0.7c-0.9,0-3.8-0.1-4-3.2l1.3-0.2c0,0.7,0.3,1.4,0.8,1.8
		c0.5,0.5,1.3,0.6,2,0.6c1.3,0,2.3-0.7,2.3-1.9c0-1.1-0.9-1.4-1.8-1.6L87.3,17.9z M70.1,17.5c0-3,2.2-4.9,4.9-4.9
		c1.5,0,2.8,0.6,3.7,1.8l-0.9,0.6c-0.7-0.8-1.7-1.3-2.8-1.3c-2.1,0-3.7,1.6-3.7,3.9c0,2.3,1.6,3.9,3.7,3.9c1,0,1.9-0.4,2.6-1v-2.1
		h-2.7v-1h3.9v3.6c-1,1.1-2.4,1.7-3.8,1.6C72.3,22.5,70.1,20.5,70.1,17.5L70.1,17.5z M53.8,21.1h4.9v1.1h-6.2v-9.5h1.3V21.1z
		 M93.8,14.9c-0.7,0-1.2-0.5-1.2-1.2c0-0.7,0.5-1.2,1.2-1.2c0.7,0,1.2,0.5,1.2,1.2c0,0,0,0,0,0C95,14.4,94.5,14.9,93.8,14.9
		 M93.8,12.8c-0.5,0-1,0.4-1,1c0,0.5,0.4,1,1,1c0.5,0,1-0.4,1-1C94.8,13.2,94.4,12.8,93.8,12.8L93.8,12.8z"/>
	<path class="st0" d="M93.4,13.1h0.4c0.1,0,0.3,0,0.4,0.1c0.1,0.1,0.2,0.2,0.2,0.3c0,0.2-0.1,0.3-0.3,0.4l0.3,0.5h-0.3l-0.3-0.5
		h-0.2v0.5h-0.2L93.4,13.1z M93.6,13.3v0.4h0.3c0.1,0,0.2-0.1,0.2-0.2c0-0.1,0-0.1-0.1-0.2c-0.1,0-0.2,0-0.2,0H93.6z"/>
</g>
</svg>
