<?xml version="1.0" encoding="utf-8"?>
<!-- Generator: Adobe Illustrator 26.0.1, SVG Export Plug-In . SVG Version: 6.00 Build 0)  -->
<svg version="1.1" id="Layer_1" xmlns="http://www.w3.org/2000/svg" xmlns:xlink="http://www.w3.org/1999/xlink" x="0px" y="0px"
	 viewBox="0 0 95 35" style="enable-background:new 0 0 95 35;" xml:space="preserve">
<style type="text/css">
	.st0{fill:#CCCCCC;}
</style>
<g>
	<path class="st0" d="M58.4,30c-0.1,0-0.1,0.1-0.1,0.1c0,0.1,0,0.1,0,0.1c0,0,0.1,0.1,0.2,0.1l0.2,0.1c0.1,0.1,0.2,0.1,0.2,0.2
		c0.1,0.1,0.1,0.2,0,0.3c0,0.1-0.1,0.2-0.3,0.3c-0.1,0.1-0.3,0.1-0.5,0c-0.2-0.1-0.3-0.2-0.4-0.3c-0.1-0.1-0.1-0.3-0.1-0.4l0.3,0.1
		c0,0.1,0,0.1,0,0.2c0,0.1,0.1,0.1,0.2,0.2c0.1,0,0.1,0,0.2,0c0.1,0,0.2-0.1,0.2-0.1c0-0.1,0-0.1,0-0.1c0,0-0.1-0.1-0.2-0.1
		l-0.2-0.1c-0.1-0.1-0.2-0.2-0.3-0.2C58,30.4,58,30.2,58,30.1c0-0.1,0.1-0.2,0.3-0.3c0.1-0.1,0.3-0.1,0.5,0c0.2,0,0.3,0.1,0.4,0.3
		c0.1,0.1,0.1,0.3,0.1,0.4l-0.3-0.1c0-0.1,0-0.2-0.1-0.2c0,0-0.1-0.1-0.2-0.1C58.5,30,58.5,30,58.4,30 M57,29.4l-0.4,1.5l0.3,0.1
		l0.4-1.5L57,29.4z M55.1,29.6l0.3,0.1c0.1,0,0.1,0,0.2,0c0.1,0,0.1-0.1,0.1-0.2c0-0.1,0-0.2,0-0.2c0,0-0.1,0-0.1-0.1l-0.4-0.1
		L55.1,29.6z M55.3,30L55,29.9l-0.1,0.6l-0.3-0.1l0.3-1.5l0.7,0.2c0.1,0,0.2,0.1,0.2,0.1c0,0,0.1,0.1,0.1,0.1c0,0,0,0.1,0,0.1
		c0,0.1,0,0.1,0,0.2c0,0.1-0.1,0.1-0.1,0.2c-0.1,0.1-0.1,0.1-0.2,0.1c0.1,0,0.1,0.1,0.1,0.2c0,0.1,0,0.1,0,0.2l0,0.1
		c0,0.1,0,0.1,0,0.1c0,0,0,0.1,0,0.1l0,0l-0.4-0.1c0,0,0-0.1,0-0.1c0,0,0-0.1,0-0.1l0-0.1c0-0.1,0-0.2,0-0.2
		C55.5,30,55.4,30,55.3,30 M53.4,29.3c0,0-0.1,0-0.2,0l-0.3-0.1l0.1-0.4l0.4,0.1c0.1,0,0.1,0,0.1,0.1c0.1,0,0.1,0.1,0.1,0.2
		C53.5,29.2,53.5,29.3,53.4,29.3 M53.7,30.2C53.7,30.2,53.7,30.2,53.7,30.2c0-0.1,0-0.2,0-0.2l0-0.1c0-0.1,0-0.2,0-0.3
		c0-0.1-0.1-0.1-0.1-0.1c0.1,0,0.2-0.1,0.2-0.1c0-0.1,0.1-0.1,0.1-0.2c0-0.1,0-0.1,0-0.2c0-0.1,0-0.1-0.1-0.1c0-0.1-0.1-0.1-0.1-0.1
		c-0.1,0-0.1-0.1-0.2-0.1l-0.7-0.1l-0.2,1.6l0.3,0l0.1-0.6l0.3,0c0.1,0,0.1,0,0.2,0.1c0,0,0,0.1,0,0.2l0,0.1c0,0,0,0.1,0,0.1
		c0,0,0,0,0,0.1L53.7,30.2L53.7,30.2z M51.4,29.2c0-0.2,0-0.3-0.1-0.4c-0.1-0.1-0.2-0.2-0.3-0.2c-0.1,0-0.2,0-0.3,0.1
		c-0.1,0.1-0.1,0.2-0.1,0.4c0,0.2,0,0.3,0.1,0.4c0.1,0.1,0.2,0.2,0.3,0.2c0.1,0,0.2,0,0.3-0.1C51.4,29.5,51.4,29.3,51.4,29.2
		 M51.8,29.2c0,0.3-0.1,0.5-0.3,0.6c-0.1,0.1-0.3,0.2-0.5,0.1c-0.2,0-0.4-0.1-0.5-0.2c-0.1-0.2-0.2-0.4-0.2-0.7
		c0-0.3,0.1-0.5,0.3-0.6c0.1-0.1,0.3-0.2,0.5-0.1c0.2,0,0.4,0.1,0.5,0.2C51.7,28.7,51.8,28.9,51.8,29.2 M48.2,28.7c0,0,0-0.1,0-0.1
		c0-0.1,0-0.1,0-0.1l0.3,1.3l0.3,0l0.3-1.3c0,0,0,0.1,0,0.1c0,0.1,0,0.1,0,0.1l0,1.1l0.3,0l0-1.6l-0.5,0l-0.3,1.2l-0.2-1.2l-0.5,0
		l0,1.6l0.3,0L48.2,28.7z M45.1,29l0.3,0c0.1,0,0.1,0,0.2-0.1c0,0,0.1-0.1,0.1-0.2c0-0.1,0-0.1-0.1-0.2c0,0-0.1,0-0.2,0l-0.3,0
		L45.1,29z M45.1,29.3l0,0.6l-0.3,0l-0.1-1.6l0.7,0c0.2,0,0.3,0,0.4,0.1c0.1,0.1,0.2,0.2,0.2,0.4c0,0.2,0,0.3-0.1,0.4
		c-0.1,0.1-0.2,0.1-0.4,0.1L45.1,29.3z M43.9,29.9l-0.2-1.6l-0.3,0l0.2,1.6L43.9,29.9z M42.8,29.8l0,0.3l-1.1,0.2l-0.2-1.6l0.3,0
		l0.2,1.3L42.8,29.8z M40.3,28.9l0.3,1.5l0.3-0.1l-0.3-1.5L40.3,28.9z M39.8,30.6l-0.3,0.1L39.3,30l-0.6,0.1l0.2,0.7l-0.3,0.1
		l-0.4-1.5l0.3-0.1l0.1,0.6l0.6-0.1l-0.1-0.6l0.3-0.1L39.8,30.6z M37.2,30.3c0,0-0.1,0.1-0.1,0.1l-0.3,0.1l-0.1-0.4l0.3-0.1
		c0.1,0,0.1,0,0.2,0c0.1,0,0.1,0.1,0.1,0.1C37.2,30.2,37.2,30.3,37.2,30.3 M37.2,29.7c-0.1-0.1-0.2-0.1-0.4,0l-0.6,0.2l0.4,1.5
		l0.3-0.1l-0.2-0.5l0.3-0.1c0.2,0,0.3-0.1,0.3-0.2c0.1-0.1,0.1-0.2,0-0.4C37.4,29.9,37.4,29.8,37.2,29.7 M57.5,33l0.8,0.2l-0.1,0.3
		l-1.1-0.3l0.4-1.5l0.3,0.1L57.5,33z M55.9,32.2l0.3-0.6l0,0.6L55.9,32.2z M56.1,31.3l-0.9,1.4l0.3,0.1l0.2-0.3l0.6,0.1l0,0.3
		l0.3,0.1l-0.2-1.7L56.1,31.3z M54.7,31L55,31l-0.3,1.5l-0.3-0.1l-0.4-1.2l-0.2,1.1l-0.3-0.1l0.3-1.5l0.3,0.1l0.4,1.2L54.7,31z
		 M52.5,31.8c-0.1,0.1-0.2,0.1-0.3,0.1c-0.1,0-0.2-0.1-0.3-0.2c-0.1-0.1-0.1-0.2-0.1-0.4c0-0.2,0.1-0.3,0.2-0.4
		c0.1-0.1,0.2-0.1,0.3-0.1c0.1,0,0.2,0.1,0.3,0.2c0.1,0.1,0.1,0.2,0.1,0.4C52.6,31.6,52.6,31.7,52.5,31.8 M52.3,30.5
		c-0.2,0-0.4,0-0.5,0.1c-0.2,0.1-0.3,0.3-0.3,0.6c0,0.3,0,0.5,0.2,0.7c0.1,0.1,0.3,0.2,0.5,0.2c0.2,0,0.4,0,0.5-0.1
		c0.2-0.1,0.3-0.3,0.3-0.6c0-0.3,0-0.5-0.2-0.7C52.7,30.6,52.6,30.6,52.3,30.5 M50.6,30.4l0.3,0L50.8,32l-0.3,0L50.6,30.4z
		 M48.8,30.6l0.5,0l-0.1,1.3l0.3,0l0.1-1.3l0.5,0l0-0.3l-1.3-0.1L48.8,30.6z M48,31.3l-0.2-0.6l-0.2,0.6L48,31.3z M48,30.3l0.5,1.6
		l-0.4,0L48,31.5l-0.6,0l-0.1,0.3l-0.3,0l0.6-1.6L48,30.3z M46.1,30.3l0.1,1.1l-0.7-1.1l-0.3,0l0.1,1.6l0.3,0l-0.1-1.1l0.7,1.1
		l0.3,0l-0.1-1.6L46.1,30.3z M44.2,30.9c0-0.1,0-0.2-0.1-0.2c0,0-0.1,0-0.2,0l-0.4,0l0,0.4l0.4,0c0.1,0,0.1,0,0.2,0
		C44.2,31.1,44.2,31,44.2,30.9 M44.6,31.9L44.6,31.9L44.3,32c0,0,0-0.1,0-0.1c0,0,0-0.1,0-0.1l0-0.1c0-0.1,0-0.2-0.1-0.2
		c0,0-0.1,0-0.2,0l-0.3,0l0.1,0.6l-0.3,0l-0.2-1.6l0.7-0.1c0.1,0,0.2,0,0.3,0c0.1,0,0.1,0.1,0.2,0.1c0,0,0.1,0.1,0.1,0.1
		c0,0,0,0.1,0,0.2c0,0.1,0,0.1,0,0.2c0,0.1-0.1,0.1-0.2,0.2c0.1,0,0.1,0.1,0.2,0.1c0,0,0.1,0.1,0.1,0.2l0,0.1
		C44.6,31.8,44.6,31.8,44.6,31.9C44.6,31.9,44.6,31.9,44.6,31.9 M41.9,32l-0.1-0.4l0.7-0.1l0-0.3l-0.7,0.1l0-0.3l0.8-0.1l0-0.3
		l-1.1,0.2l0.2,1.6l1.2-0.2l0-0.3L41.9,32z M40.8,31.2l-0.5,0.1l0.3,1.3l-0.3,0.1l-0.3-1.3l-0.5,0.1l-0.1-0.3l1.2-0.3L40.8,31.2z
		 M38.7,31.3l0.3,1.1l-0.9-0.9l-0.3,0.1l0.4,1.5l0.3-0.1l-0.3-1.1l0.9,0.9l0.3-0.1L39,31.3L38.7,31.3z M37.1,31.8l0.4,1.5l-0.3,0.1
		l-0.4-1.5L37.1,31.8z M45.3,17.8c0.4-0.2,0.4-0.5,0.6-2.5c0.1-1.6-0.3-2.2-0.4-2.4c-0.1-0.1-0.2-0.2-0.3-0.2h0l0,0
		c-0.3,0-0.3,0.3-0.3,0.6c0,0.3,0,3.3-0.1,3.9c0,0.3,0,0.5,0.1,0.6C44.9,18,45.1,17.9,45.3,17.8 M44.8,18.6L44.8,18.6
		c0-0.2,0-0.3,0.2-0.4l0,0c1.2-0.4,1.8-1.5,1.8-3c0-2.4-1.3-2.8-1.7-2.8c-0.2,0-0.7,0.2-0.8,0.6c-0.1,0.2-0.3,0.2-0.4,0.3l0,0
		c-0.2,0.1-0.3,0.1-0.3,0.4c0,0.1,0,0.1,0,0.2c0,0.4,0.1,1.1,0.1,1.9c0,2-0.1,4.8-0.4,5.7c0,0,0,0.1,0,0.1c0,0,0,0,0,0.1
		c0,0,0.1,0,0.2,0C43.7,21.6,44.5,20.9,44.8,18.6 M49.8,18.3c0,0.2,0.6,2.7,1.8,3.4c0,0,0,0,0,0c0,0,0.1,0.1,0.1,0.1c0,0,0,0,0-0.2
		c-1.1-3.3-0.9-7.6-0.8-8.6l0-0.1c0-0.1,0-0.1,0-0.2c0,0-0.1,0-0.2,0.2c-0.3,0.5-1.2,2.7-1.5,3.7c0,0,0,0.1,0,0.1c0,0,0,0,0-0.1
		c0,0-0.8-2.8-1.4-3.6l0,0C47.7,13,47.7,13,47.6,13c0,0,0,0,0,0.1c0.4,1.8-0.2,5.9-1.4,8.3c-0.1,0.1-0.1,0.2-0.1,0.2
		c0,0,0.1,0,0.3-0.1c0.9-0.6,1.2-1.7,1.5-2.6l0.1-0.5c0,0,0,0,0,0c0,0,0,0,0,0.1c0,0.1,0.1,0.5,0.3,1c0.2,0.7,0.4,1.6,0.5,1.8
		c0,0.1,0.1,0.2,0.1,0.2c0,0,0,0,0-0.1l0-0.1c0,0,0.1-0.3,0.2-0.7C49.4,19.8,49.6,18.6,49.8,18.3c0-0.1,0-0.1,0-0.1
		C49.7,18.2,49.7,18.2,49.8,18.3 M53.9,17.7c0,4.2-2.8,7.6-6.3,7.6h0h0c-3.5,0-6.3-3.4-6.3-7.6c0-4.2,2.8-7.6,6.3-7.6h0h0
		C51,10,53.9,13.5,53.9,17.7 M47.2,2.2c0-0.2,0.1-0.3,0.3-0.3c0.2,0,0.3,0.1,0.3,0.3c0,0.2-0.1,0.3-0.3,0.3
		C47.3,2.5,47.2,2.3,47.2,2.2 M48.2,2.2c0-0.4-0.3-0.7-0.7-0.7c-0.4,0-0.7,0.3-0.7,0.7c0,0.4,0.3,0.7,0.7,0.7
		C47.9,2.8,48.2,2.5,48.2,2.2 M34.5,5.3c0.2,0,0.4,0,0.5,0c0.1,0,0.3,0,0.2,0.3c-0.1,0.3-0.1,0.4-0.4,0.3c-0.3-0.1-0.4-0.2-0.5-0.3
		C34.3,5.5,34.2,5.3,34.5,5.3 M59.8,4.3c-0.2-0.2-0.7-0.2-0.8-0.1c0,0-0.2,0.1-0.2,0.2c0,0.1,0.2,0.3,0.3,0.4c0.1,0.1,0.3,0.1,0.4,0
		c0.1,0,0.2-0.1,0.4-0.1c0.2,0,0.1-0.1,0.1-0.1C60,4.4,59.9,4.3,59.8,4.3 M63.9,28.1L63.9,28.1C63.9,28.1,63.9,28.1,63.9,28.1
		L63.9,28.1z M63.9,28.1L63.9,28.1C63.9,28.1,63.9,28.1,63.9,28.1L63.9,28.1z M63.9,28.1L63.9,28.1C63.9,28.1,63.9,28.1,63.9,28.1
		 M71.1,11.4c0,0,0,0.1-0.1,0.3l0,0l0,0c-0.1,0.2-0.2,0.4-0.2,0.6c0,0.2,0.1,0.4,0.2,0.5c0,0,0.1,0.1,0.1,0.1c0,0,0,0,0,0
		c0,0-0.1,0.1-0.2,0.2c-0.2,0.1-0.4,0-0.5,0l0,0c0,0,0,0-0.1,0c-0.7-0.3-0.4-0.2-0.5,0.4c0,0.1,0,0.2,0,0.3
		c-0.1,0.4-0.2,1.1-0.3,1.4l-0.1,0.2c0,0,0,0,0,0c-0.1,0-0.1-0.1-0.3-0.2l-0.1-0.1c-0.6-0.6-1.1-1.3-1.1-1.9c0-0.2,0.1-0.5,0.3-0.7
		c0.1-0.1,0.2-0.2,0.2-0.3c0,0,0,0,0,0c0-0.2-0.2-0.3-0.4-0.4l-0.1,0c-0.1-0.1-1-0.4-1.8,0c-0.5,0.3-0.9,0.8-1,1.6l0,0
		c-0.1,0.5-0.2,1.6,1,2.7c-0.1,0.1-0.1,0.3-0.1,0.4c0,0.1,0,0.2-0.1,0.3c0,0.1-0.1,0.3-0.1,0.4c-0.4-0.6-0.9-1.4-1-1.7
		C64.2,14.4,64,13,64.5,12c0.2-0.5,0.6-0.8,1.2-1.1c0.3-0.1,0.8-0.3,1.6-0.1c0.3,0.1,0.6,0.2,0.8,0.3c0.3,0,0.6,0,0.9-0.1
		c0.2,0,0.4-0.1,0.5-0.1c0.2,0,0.4,0.1,0.7,0.2c0.2,0.1,0.3,0.1,0.4,0.2c0.1,0,0.1,0,0.2,0C70.8,11.3,71,11.3,71.1,11.4L71.1,11.4z
		 M70.4,14.5C70.2,15.1,70,15.6,70,16c0,0.2,0.2,0.5,0.4,0.6c0,0,0,0.1,0,0.1c0,0-0.1,0.1-0.1,0.1c-0.1,0.1-0.4,0.2-0.5,0.2
		c-0.1,0-0.3,0-0.4-0.1c-0.3-0.3-0.5-0.9-0.5-1.5c0.3,0.3,0.4,0.3,0.6,0.3c0.2-0.1,0.2-0.2,0.2-0.4l0-0.1c0.1-0.3,0.3-1,0.3-1.4
		c0-0.1,0-0.3,0.1-0.4c0,0,0,0,0,0l0,0c0,0,0.1,0,0.1,0.1c0.1,0.2,0.2,0.5,0.2,0.9C70.5,14.3,70.5,14.4,70.4,14.5 M66.1,16.6
		c0-0.1,0.1-0.2,0.1-0.3c0.1-0.2,0.2-0.5,0.5-0.8c0,0,0,0,0,0c0,0,0,0.1,0,0.1l0,0.1c0.1,0.2,0.2,0.5,0.2,0.6
		c0.2,0.5,0.1,0.6,0.7,0.3l0.1-0.1c0,0,0,0,0,0c0,0,0,0.1,0,0.1l0,0c0,0.1,0.2,1,0.3,1.2c0.2,0.7,0,0.7,0.6,0.4
		c0.4-0.2,0.6-0.1,0.7-0.1c0.1,0.2-0.6,1.4-0.9,1.7c-0.1,0.1-0.4,0.6-0.5,0.8l0,0c-0.1,0.3-0.3,0.7-0.5,1c-1.1,1.3-2.3,0.8-2.8,0.6
		l0,0c0.1-0.2,0.2-0.5,0.2-0.8c0.3,0.2,0.6,0.4,1.1,0.4c1,0,1.7-1,1.7-1.8c0-0.9-0.7-1.3-1.4-1.4c-0.4,0-0.7,0.1-0.8,0.2
		c0,0,0-0.1,0-0.2c0-0.3,0-0.7,0.4-0.9c0,0,0.1-0.1,0.2-0.1c0.6-0.1,0.5-0.2,0.2-0.4c0,0,0,0-0.1,0c0,0,0,0,0,0c0,0,0,0,0-0.1
		C66,17,66.1,16.7,66.1,16.6 M65.3,23.7L65.3,23.7c0.3,0.2,0.7,0.6,0.7,0.9c0,0.2,0,1.2,0,1.2c0,0.1,0,0.3,0.1,0.7
		c0,0.2,0.1,0.5,0.1,0.6c0,0.3-0.1,1.2-0.2,1.4c-0.1,0.1-0.2,0.1-0.2,0.1c-0.1,0-0.2,0-0.3-0.1l0,0c-0.2-0.6-0.3-0.3-0.5,0.1
		l-0.1,0.1c-0.2,0.1-0.4-0.1-0.5-0.1c-0.1-0.1-0.1-0.1-0.1-0.1c0,0,0,0,0-0.1l0,0c0.1-0.5,0.1-0.5-0.3-0.2c0,0,0,0-0.1,0
		c0,0,0,0,0,0c0,0-0.2,0.1-0.3,0.1c-0.1-0.1-0.1-0.1-0.1-0.3c0-0.2,0.4-0.8,0.9-1.1c0.3-0.2,0.6-0.5,0.6-1.1c0-0.1,0-0.1,0-0.2
		c0-0.4-0.3-0.8-0.6-0.9c-0.2-0.1-0.7-0.1-1-0.2c-0.1,0-0.8-0.1-1.7-0.8c-0.8-0.6-1.2-1.8-1.3-2.1c0-0.1,0-0.1,0-0.2
		c0-0.5,0.2-1.3,0.3-1.6c0.1-0.2,0.2-0.5,0.2-0.8c0,0,0-0.1,0-0.1c0.2,0.2,0.5,0.4,0.6,0.5c0.7,0.7,0.5,0.4,0.2-0.1
		c-0.2-0.2-0.4-0.6-0.7-0.8c-0.3-0.2-0.8-0.5-1.4-0.6c-0.5-0.1-1-0.3-1.2-0.5c0,0,0.1-0.1,0.1-0.1c0,0,0.3-0.2,0.6-0.4
		c0.1,0.1,0.2,0.3,0.4,0.3c0.2,0.1,0.7,0,0.9-0.3c0.1-0.1,0.2-0.3,0.2-0.4c0,0,0.1-0.2,0.1-0.2c0.1-0.1,0.6-0.5,0.7-0.5
		c0.2-0.1,0.1-0.1,0-0.1c-0.2,0-0.9,0.2-1,0.4l-0.1,0.2c-0.1,0.1-0.1,0.3-0.2,0.4c-0.1,0.1-0.4,0.2-0.5,0.1c-0.1,0-0.2-0.1-0.2-0.2
		c0.1-0.1,0.1-0.1,0.1-0.1c0.1-0.1,0-0.2-0.1-0.2c-0.1-0.1-0.2,0-0.3,0.1l0,0c-0.1,0.1-0.5,0.4-0.9,0.6c-0.3,0.2-0.3,0.2-0.7,0.4
		l-0.2,0.1l-0.1,0c-0.2,0.1-0.4,0.2-0.5,0.6c0,0.4-0.2,0.7-0.3,0.7c-0.1,0-0.3-0.1-0.4-0.2c0,0-0.1-0.1-0.1-0.1
		c-0.1-0.3-0.2-0.3-0.4-0.1c-0.1,0.1-0.3,0-0.4,0c-0.1,0-0.2-0.1-0.1-0.2c0.1-0.6,0.1-0.7-0.3-0.5c-0.1,0-0.1,0-0.2-0.1
		c0-0.1,0-0.2,0.1-0.5l0,0c0.1-0.2,0.3-0.4,0.5-0.6c0.1-0.1,0.2-0.2,0.3-0.3c0.2-0.2,0.5-0.3,0.9-0.4c0.3-0.1,0.9-0.4,1.1-0.6
		c0.1-0.1,0.8-0.6,1.2-0.8c0.2-0.1,0.2-0.2-0.1-0.1c-0.4,0.2-1.1,0.4-1.3,0.6c0,0,0,0-0.1,0.1c-0.4-1.2-0.1-1.7,0.2-2l0,0
		c0,0,0,0,0,0l0.1,0c0,0,0.2,0,0.3,0c0,0.1,0.1,0.2,0.1,0.3c0.2,0.2,0.6,0.2,0.7,0.1c0,0,1-0.4,1.2-0.6c0.1,0,0.1-0.1,0.2-0.1
		c0,0.2,0.1,0.6,0.1,0.9c0.1,0.3,0.2,0.5,0.3,0.5c0.1,0.1,0.3,0,0.4,0l0,0c0.1-0.1,0.4-0.2,0.7-0.8c0-0.1,0.1-0.1,0.1-0.1
		c0,0,0,0,0,0c0,0,0.1,0.1,0.1,0.1l0.1,0.1c0.4,0.8,1.2,2.4,1.3,4.1l0.1,0.7c0.1,0.9,0.4,1.2,0.6,1.4c0.1,0.1,0.1,0.1,0.1,0.1
		c0.1,0.1,0.2,0.5,0.3,1.1c0,0,0,0,0,0c0,0.1,0,0.2,0,0.2c0,0.4,0,0.8-0.1,1.1c-0.1-0.1-0.2-0.2-0.2-0.3c-0.4-0.7-1.3-1.2-0.3,0.2
		C64.1,22.3,64.6,23.2,65.3,23.7 M66.4,28.3h0.2h4.2c-0.2,0.4-1.1,2-1.1,2s0.9,1.7,1.1,2.1H60l0.9-3l-0.2-0.1
		c-0.5-0.2-1-0.4-1.5-0.5c0.3-0.3,0.7-0.5,0.7-0.5h3.4c0,0.1,0.1,0.1,0.2,0.2c0.1,0.1,0.4,0.1,0.5,0c0,0.1,0.1,0.2,0.1,0.3
		c0.2,0.2,0.6,0.4,0.9,0.2c0,0,0.1-0.1,0.2-0.1h0c0.1,0.1,0.4,0.2,0.6,0.2c0.2,0,0.4-0.2,0.5-0.3C66.3,28.6,66.4,28.5,66.4,28.3
		 M59,34.5c-3.5-1.2-7.7-1.9-11.4-1.9h0c-3.8,0-7.9,0.7-11.5,2l-1.4-4.9c3.9-1.4,8.6-2.2,12.9-2.2h0c4.3,0,8.9,0.8,12.9,2.3L59,34.5
		z M24.3,32.4c0.2-0.4,1.1-2.1,1.1-2.1s-0.9-1.6-1.1-2h3.6c0,0,0,0,0,0c0,0.1,0,0.2,0.1,0.2c0.1,0.1,0.2,0.2,0.4,0.2
		c0.2,0,0.5,0,0.6,0l0.1,0c0.4,0,0.9,0,1.1-0.6h0.3h4.9c0,0,0.4,0.3,0.7,0.5c-0.5,0.2-1,0.3-1.5,0.5l-0.2,0.1l0.9,3H24.3z
		 M27.6,27.5l-0.3,0c0,0-0.1,0-0.1,0c0-0.1,0-0.3,0-0.4c0-0.1,0-0.2,0-0.4c0-0.1,0-0.2,0-0.4c0.1-0.3,0.1-0.7,0.1-1.2
		c0-0.2,0-0.3,0-0.5c0-0.2,0-0.3,0-0.4c0-0.3,0-0.4,0.1-0.5c0,0,0.1,0,0.1,0l0.1,0l0.1,0c0.4,0,1.2-0.1,1.8-0.9
		c0.4-0.6,0.4-1.1,0.5-2.6c0.1-1.3,1.1-2.4,1.5-2.7l0.3-0.1c0.3-0.2,0.7-0.4,1.1-0.6c0.1-0.1,0.3-0.1,0.4-0.4
		c0.1-0.2,0.2-0.4,0.3-0.6c0.1-0.3,0.3-0.6,0.4-1.1c0.2-0.8,0.1-1.7-0.1-2.4c0,0,0.1,0,0.1,0c0.2,0,0.4-0.1,0.5-0.2
		c0.1,0.1,0.2,0.1,0.4,0.2c0.4,0.2,1,0.3,1.2,0.1c0,0,0,0,0,0c0.2,0.2,0.8,0.6,1.8,1.3c0.7,0.5,1.5,1,1.8,1.2
		c0.2,0.2,0.2,0.2,0.2,0.4c0,0,0,0.1,0,0.2c0,0.2-0.1,0.4-0.1,0.6c-0.1,0.4-0.1,0.8-0.1,1.2c0,0.6,0,1,0,1.2l0,0.2
		c0,0.1,0,0.2,0,0.2c0,0.1,0,0.2-0.1,0.3c-0.2,0.1-0.7,0.3-1,0.4c-0.2,0.1-0.4,0.1-0.5,0.2c-0.1,0-0.2,0.1-0.2,0
		c-0.1-0.1-0.1-0.2-0.1-0.3l0-0.3c0-0.4,0-0.4,0.2-0.5c0.1,0,0.1,0,0.2,0c0.1,0,0.2,0.1,0.4,0c0.3-0.1,0.4-0.3,0.6-0.6
		c0.1-0.2,0.1-0.5,0.1-1.1l0-0.4c0-0.3,0.2-0.7-0.5-0.9c-1.2-0.4-1.9-0.6-2.2-0.6C36.4,15.2,36,15,35.9,15c-0.1-0.1-0.2-0.1-0.2,0
		c-0.1,0.1-0.1,0.2,0,0.3c0.2,0.2,0.7,0.3,1,0.4c0.2,0,0.6,0.2,2.1,0.6c0,0,0.1,0,0.1,0c-0.1,0.1-0.1,0.2-0.2,0.4
		c-0.3,0.5-0.9,1.3-1.2,1.5c-0.5,0.4-1.1,0.8-1.7,0.8c-1.2,0.1-2.1,0.7-2.8,1.9c-0.2,0.4-0.4,0.9-0.5,1.2c-0.1,0.4-0.3,0.7-0.4,0.8
		c-0.2,0.3-0.9,0.6-1.2,0.5c-0.4-0.2-0.7-0.2-0.9,0c-0.1,0.1-0.1,0.2-0.4,0.2c-0.1,0-0.5,0-0.5,0.1c0,0.1,0.2,0.2,0.3,0.2
		c0.6,0,0.5,0,0.7-0.1c0.1-0.1,0.2-0.1,0.5,0c0,0.2-0.3,0.4-0.5,0.5c-0.3,0.1-0.7,0.1-1,0c-0.4,0-0.9,0.1-0.9,0.4l0,0.1
		c0,0.1-0.1,0.3-0.1,0.6c0,0.3,0,0.9,0.2,1.1c0.1,0.1,0.3,0.3,0.5,0.4l0.3,0.3l0.1,0c0.2,0.1,0.3,0.3,0.3,0.8c0,0.5-0.2,0.5-0.8,0.5
		l-0.1,0c-0.4,0-0.6-0.1-0.6-0.1c-0.1-0.1,0.1-0.3,0.1-0.4c0,0,0-0.1,0-0.1h0c0.1-0.4,0.4-0.4-0.4-0.4l0,0
		C27.8,27.5,27.7,27.5,27.6,27.5 M27.4,20.3c-0.4-0.8,0-1.9,0.9-3.1c0,0,0.3-0.3,0.3-0.3l0.1-0.1c0.2-0.2,0.5-0.7,0.5-1.2
		c0-0.1,0-0.1,0-0.2c-0.1-0.2-0.2-0.3-0.4-0.4c-0.1,0-0.2-0.1-0.2-0.1c0-0.1,0.2-0.1,0.2-0.2l0.1-0.1c0.1-0.1,0.4-0.2,0.6-0.1l0.1,0
		c0.1,0,0.3,0.1,0.4,0c0.2-0.1,0.3-0.3,0.3-0.7c0.1-0.5,0-1.3-0.4-1.9c-0.3-0.5-1.1-1.1-1.7-1c-0.2,0-0.6,0.2-0.7,0.7
		c0,0.1-0.1,0.2-0.1,0.4c0,0.5,0.2,1,0.5,1.2c0,0,0,0,0,0c0,0-0.1,0-0.1,0c0,0-0.1,0-0.1,0c-0.2,0-0.9-0.2-1,0.4v0
		c0,0.1,0,0.3-0.3,0.8c-0.1,0.3-0.2,0.4-0.3,0.4c0-0.1-0.1-0.1-0.1-0.2l0-0.1c-0.1-0.2-0.1-0.4-0.1-0.6c0,0,0,0,0-0.1
		c0,0,0-0.2,0-0.2c0-0.1,0.1-0.1,0.1-0.2c0-0.1,0-0.1-0.1-0.2c-0.2-0.1-0.3,0-0.6,0.3c-0.3,0.2-0.4,0.2-0.6,0.2
		c-0.1,0-0.3-0.1-0.4-0.1c-0.1,0-0.1,0-0.2,0c0.3-0.2,0.9-0.9,0.9-1.1c0-0.1,0-0.2,0-0.2c-0.1-0.1-0.2-0.3-0.7-0.5
		c0.3-0.1,0.8-0.3,1-0.3c0.6-0.1,1-0.3,1.5-0.6c0.4-0.2,0.8-0.5,1.4-0.6c0.7-0.2,1.4,0.2,2.2,1.4c0.3,0.4,0.4,1,0.4,1.5
		c0,0.7-0.2,1.3-0.3,1.6l0,0.1c-0.1,0.1-0.2,0.3-0.2,0.5c0,0.2,0.1,0.3,0.3,0.5c0.2,0.1,0.3,0.2,0.3,0.3c0,0.1,0,0.2-0.1,0.3
		l-0.3,0.4c-0.2,0.3-0.3,0.5-0.4,0.7c0,0-0.1,0.2-0.1,0.2c0-0.1,0-0.1,0-0.1l-0.1-0.3c-0.1-0.6-0.2-0.7-0.3-0.7
		c-0.1,0-0.2,0-0.2,0.1l-0.2,0.3l-0.2,0.3l-0.2,0.2l-0.2,0.2c-0.5,0.7-1.2,1.6-0.4,2.6c0.5,0.6,1.3,0.4,1.7,0.3c0,0.3,0,0.5-0.1,0.7
		C28.6,21.3,27.7,21,27.4,20.3 M26.6,15.4l-0.2,0.3c-0.3,0.5-0.5,0.9-0.7,1.2L25.6,17c-0.1,0.3-0.2,0.3-0.2,0.3c0,0,0-0.1,0-0.2
		c0-0.1,0.1-0.2,0.1-0.3c0,0,0,0,0,0c0-0.3-0.3-0.8-0.7-1.4l-0.1-0.1c-0.1-0.2-0.1-0.4-0.1-0.6c0-0.2,0-0.4,0-0.5v0
		c0.2,0,0.4,0.1,0.8-0.2c0,0,0,0,0,0c0,0.3,0.1,0.6,0.1,0.8l0,0.1c0,0.2,0.1,0.5,0.4,0.5c0.2,0,0.4-0.2,0.7-0.6
		c0.3-0.6,0.4-0.8,0.4-1v0l0,0c0,0,0,0,0.1,0C27.2,14.2,26.8,15,26.6,15.4 M33.7,11.8c-0.1-0.3-0.3-0.5-0.4-0.7l0,0l0,0
		c0,0,0,0-0.1-0.1v0c-0.7-0.9-0.5-0.5-0.6,0.1c0,0.1,0,0.1,0,0.2c0,0.1,0,0.2,0,0.2c0,0.1-0.1,0.1-0.1,0.1c0,0-0.1,0-0.2,0
		c-0.7-0.2-0.9-0.7-1-1l0,0c0-0.1-0.1-0.1-0.1-0.2c-0.3-0.9-0.2-0.5-0.5-0.2h0c0,0-0.1,0.1-0.1,0.1l0,0c0,0-0.1,0.1-0.1,0.1
		c0,0,0,0,0,0c-0.1-0.1-0.4-0.5-0.5-0.8c0-0.1,0-0.1,0-0.2c0-0.2,0-0.5,0.1-0.6l0-0.1l0-0.1c0.1-0.3,0.1-0.5,0-0.6
		C30,8,29.9,8,29.6,8.1l-0.1,0c-0.1,0-0.1,0-0.2,0c0-0.3,0.1-0.5,0.1-0.8c0-0.5-0.1-0.9-0.5-1c-0.1,0-0.1-0.1-0.2-0.1
		c0.8-0.2,1.6-0.6,2.2-1.1L31.1,5c0.2-0.2,0.4-0.5,0.6-0.5c0.1,0,0.3,0,0.5,0.2c0,0,0.2,0.1,0.2,0.2c0.1,0.1,0.2,0.2,0.4,0.1
		c0,0,0.1-0.1,0-0.3C32.6,4.4,32.4,4,32.5,4c0,0,0.1-0.1,0.5,0l0,0c0.3,0.1,1.2,0.5,0.7,0.1C33.8,4,33.9,4,34,4l0.2,0
		c0.1,0,0.2,0,0.2,0C34.6,4,34.8,4,34.9,4l0,0c0,0,0.1,0,0.1,0c0,0,0,0,0,0.1c0,0,0,0,0,0.1c0,0.2,0.5,0.6,0.5,0.7
		c0.1,0.1,0.4,0.4,0.8,0.8c0.6,0.5,1.2,1.2,1.4,1.4C38.1,7.3,38,7.5,38,7.6c-0.1,0.1-0.2,0.2-0.3,0.2l-0.1,0c-0.1-0.1-0.3-0.2-0.5,0
		C37,7.8,37,7.8,37,7.9c0,0.1,0,0.2,0.1,0.4c0,0.1,0,0.1,0,0.1c-0.1,0.1-0.3,0.1-0.4,0c-0.1,0-0.3-0.2-0.5-0.4l-0.3-0.3
		c-0.3-0.2-0.8-0.4-1.1-0.4c-0.1,0-0.1,0-0.2-0.1c-0.1,0-0.1,0-0.2-0.1C34.1,7,34,6.6,34,6.5c0-0.1-0.1-0.1-0.1,0
		c0,0.1-0.1,0.5,0.3,1.1c0.1,0.1,0.2,0.2,0.3,0.4l0.2,0.2c0.3,0.4,0.7,0.9,1.5,1.4l0.5,0.3c1,0.5,2.3,1,2.9,2.5
		c0.2,0.6,0.2,1.2,0.1,2c-0.4-0.3-0.9-0.6-1.4-0.9c-0.3-0.2-0.6-0.4-0.9-0.6l0.2-0.1c0.3-0.2,0.5-0.4,0.5-0.6c0.1-0.3-0.2-0.6-0.4-1
		c-0.5-0.9-1.8-1-2.6-1.1l-0.5-0.1c-0.9-0.2-1.9-0.6-2.5-1.1c-0.9-0.8-0.7-2.3-0.7-2.7c0-0.1,0-0.3-0.1-0.1
		c-0.1,0.5-0.5,2.2,0.5,3.1c0.7,0.6,1.8,1,2.7,1.2l0.5,0.1c0.7,0.1,1.9,0.3,2.4,1c0.2,0.3,0.4,0.5,0.3,0.7c0,0.1-0.1,0.2-0.4,0.4
		L37,12.6c-0.3-0.2-0.5-0.3-0.5-0.4c0-0.1-0.1-0.1-0.2-0.2l0,0c-0.6-0.5-0.3-0.2-0.4,0.1c-0.1,0-0.3,0.1-0.9-0.1
		c-0.3-0.1-0.3-0.1-0.4-0.3c-0.4-0.5-0.3-0.3-0.4,0.1c0,0.1-0.1,0.2-0.2,0.2C33.9,11.9,33.8,11.9,33.7,11.8 M32.6,3.6L32.6,3.6
		L32.6,3.6c-0.2,0-0.3,0.1-0.4,0.2c0,0,0,0,0,0c-0.1-0.1-0.4-0.3-0.7-0.5c-0.1-0.1-0.2-0.2-0.2-0.2c0.1,0,0.4,0,0.9,0.2l0,0l0,0
		c0.1,0,0.2,0,0.3,0L32.6,3.6z M33.9,3.4L33.9,3.4L33.9,3.4c0,0.1-0.1,0.1-0.2,0.2l-0.2-0.7c0.1-0.1,0.1-0.1,0.2-0.2l0,0l0,0
		c0.3-0.4,0.5-0.6,0.6-0.6c0,0,0,0,0,0.1c0,0.1,0,0.1,0,0.3C34.1,3.2,34,3.4,33.9,3.4 M31.1,3.8c-0.3-0.3-0.5-0.6-0.5-0.8
		c0-0.2,0.1-0.3,0.3-0.4c0.3-0.2,0.8-0.1,1.4,0.1c0.1,0,0.1,0,0.3,0l0.1,0c0,0-0.2-0.5-0.2-0.6c0.1,0,0.3-0.1,0.4-0.1
		c0,0.1,0.2,0.6,0.2,0.6l0.1-0.1c0.1-0.1,0.1-0.2,0.2-0.2c0.3-0.5,0.7-0.8,1-0.8c0.2,0,0.3,0,0.4,0.1c0.1,0.1,0.2,0.3,0.2,0.5
		c0,0.1,0,0.3-0.1,0.4c-0.1,0.6-0.3,0.9-0.4,1.1c0,0-0.1,0-0.1,0c-0.1,0-0.1,0-0.2,0c0,0,0,0-0.1,0c0-0.1,0.2-0.4,0.4-1.1
		c0-0.1,0-0.2,0-0.3c0-0.2,0-0.3-0.1-0.3c0,0-0.1-0.1-0.2,0c-0.3,0-0.6,0.3-0.9,0.8c-0.1,0.1-0.2,0.2-0.3,0.3c0,0.1,0.2,0.7,0.2,0.7
		s0,0.1,0.1,0.2c0,0,0,0,0,0c-0.2,0-0.4-0.1-0.5-0.1c0,0,0-0.1,0-0.1l-0.2-0.6l0,0c-0.1,0-0.3,0-0.4,0l0,0c-0.6-0.2-1-0.2-1.2-0.1
		c-0.1,0-0.1,0.1-0.1,0.2l0,0c0,0.2,0.1,0.4,0.4,0.6C31.6,3.9,31.8,4,32,4.1c0,0,0,0,0,0c-0.1,0-0.2,0-0.3,0c0,0-0.1,0-0.1,0
		C31.4,4,31.3,3.9,31.1,3.8 M42.3,26.6c-0.1,0-0.3,0-0.5,0.1c-0.4,0.1-0.9,0.1-1.1,0c0,0-0.1-0.1-0.1-0.2c-0.1-1.1,0.6-1.8,1-2.2
		c1.1,1.4,2.5,2.4,4,2.9h0.2c-0.7,0-1.4,0.1-2.1,0.2c0,0-0.1-0.1-0.1-0.1l0,0C43.4,27,42.9,26.6,42.3,26.6 M39.4,27.3
		c0.1,0,0.2,0,0.3-0.1c0.1-0.1,0.2-0.2,0.2-0.4c0.1-0.5-0.3-1.4-0.6-1.6c0.3-1.2,1-1.8,1.5-2.3l0,0c0.2,0.3,0.4,0.7,0.6,1
		c-0.4,0.4-1.2,1.3-1.1,2.5c0,0.2,0.1,0.3,0.2,0.4c0.3,0.3,0.9,0.2,1.4,0.1c0.2,0,0.3-0.1,0.5-0.1c0.3,0,0.6,0.2,0.9,0.4
		c-1.1,0.1-2.1,0.3-3.2,0.5c-0.1-0.1-0.3-0.2-0.4-0.3C39.5,27.5,39.4,27.4,39.4,27.3 M36.6,20.2c0.2-0.1,0.5,0,0.7,0.2l0.2,0.3
		c0.1,0.3,0.3,0.6,0.3,0.7c0,0.3-0.7,1.1-1.2,1.3c-0.1,0.1-0.8,0.5-0.9,0.6c0,0.1-0.1,0.2-0.1,0.4c0,0,0,0.1,0,0.1
		c0.1,0.2,0.2,0.3,0.4,0.4c0.6,0.3,1.1,0.4,1.4,0.5c0.3,0,0.7,0.2,1,0.5c0.2,0.2,0.4,0.3,0.5,0.3l0.2,0c0.1,0.1,0.4,0.7,0.4,1.1
		c0,0,0,0.1,0,0.1c0,0,0,0.1-0.1,0.1c-0.1,0-0.2,0-0.4,0l-0.1,0l-0.1,0l-0.2,0c-0.3,0-0.6-0.1-0.6-0.3c0-0.1,0-0.2,0-0.3
		c-0.2-0.6-0.1-0.4-0.4-0.3c0,0,0,0-0.1,0c-0.1,0-0.3,0-0.7-0.2c-0.2-0.1-0.3-0.2-0.5-0.4c-0.2-0.1-0.3-0.3-0.5-0.4l-0.5-0.2
		c-0.3-0.1-0.6-0.2-0.8-0.3l0,0c-0.2-0.1-0.5-0.3-0.6-0.5c0-0.1,0-0.3,0.2-0.4c0.4-0.6,0.5-0.6,0.6-0.6c0.1,0,0.3-0.2,0.3-0.4
		c0-0.1-0.2-0.3-0.7-0.2c-0.5,0.1-0.9-0.1-1.2-0.2l0,0c0.1-0.3,0.3-0.7,0.5-1.1c0.1-0.2,0.3-0.4,0.4-0.6l0.1-0.1
		C34.6,20.5,36,20.4,36.6,20.2 M39,18.1c-0.1,0.3-0.2,0.3-0.4,0.4c-0.1,0-0.1,0-0.2,0c-0.1,0-0.2-0.1-0.4,0
		c-0.5,0.2-0.5,0.5-0.5,0.9l0,0.2c0,0.2,0,0.3,0.1,0.4c0,0,0.1,0.1,0.2,0.2c0.2,0.1,0.4,0.1,0.6,0c0.1,0,0.2-0.1,0.4-0.2
		c0.3-0.1,0.5-0.2,0.8-0.3c0.2,1,0.5,2,1,2.9l-0.1,0.1c-0.5,0.5-1.2,1.2-1.6,2.5c-0.1,0-0.2-0.1-0.3-0.2c-0.4-0.3-0.8-0.5-1.1-0.5
		c-0.4-0.1-0.9-0.3-1.3-0.5c-0.1-0.1-0.2-0.1-0.2-0.2c0-0.1,0-0.2,0.1-0.2c0.1-0.1,0.4-0.2,0.7-0.4c0.4-0.2,1.5-1.1,1.4-1.7
		c0-0.2-0.2-0.4-0.4-0.8l-0.2-0.3c-0.2-0.4-0.6-0.5-1.1-0.4C36,20,34.9,20.1,34.2,20c0.5-0.4,1-0.6,1.6-0.6c0.7-0.1,1.4-0.5,1.9-0.9
		c0.3-0.3,1-1.1,1.3-1.7c0,0,0,0,0-0.1c0,0,0,0.1,0,0.1l0,0.1C39.1,17.2,39.2,17.9,39,18.1 M29.6,26.9L29.6,26.9l-0.4-0.3
		c-0.2-0.2-0.4-0.4-0.5-0.4c-0.1-0.1-0.1-0.4-0.1-0.7c0,0,0-0.1,0-0.1c0-0.2,0.1-0.4,0.1-0.5c0,0,0-0.1,0-0.1c0,0,0.3-0.1,0.5-0.1
		c0.4,0,0.8,0.1,1.2-0.1c0.4-0.1,0.6-0.4,0.7-0.7c0.5,0,1.1-0.4,1.4-0.6c0.1-0.2,0.2-0.4,0.4-0.7l0,0c0.4,0.2,0.8,0.4,1.5,0.3
		c0.1,0,0.1,0,0.1,0c-0.1,0.1-0.3,0.2-0.6,0.7c-0.2,0.2-0.2,0.4-0.2,0.6c0,0,0,0.1,0,0.1c0.1,0.4,0.5,0.6,0.8,0.7l0,0
		c0.3,0.1,0.6,0.3,0.9,0.4l0.5,0.2c0.2,0.1,0.3,0.2,0.4,0.3c0.2,0.1,0.3,0.3,0.6,0.4c0.4,0.2,0.7,0.3,1,0.3c0,0,0,0,0,0
		c0,0.1,0,0.2,0,0.2c0.1,0.5,0.6,0.5,0.9,0.6l0.1,0l0.2,0c0.1,0.2,0.2,0.4,0.3,0.5c0,0,0.1,0.1,0.2,0.2c-1.1,0.2-2.1,0.5-3.1,0.8
		l-1-0.8h-0.1h-4.8H30c0,0,0,0,0,0C30,27.3,29.8,27.1,29.6,26.9 M57.8,19.1L57.8,19.1c-0.2-0.1-0.4-0.2-0.7-0.1
		c-0.2,0.1-0.4,0.3-0.5,0.6c-0.4,0.8-0.3,1.7,0.1,2.3c0.2,0.2,0.3,0.4,0.5,0.6c0.2,0.2,0.4,0.4,0.5,0.6c0,0.1,0,0.1,0,0.2
		c-0.1,0.1-0.4,0.2-0.7,0.2l-0.3,0c-0.4,0-0.9,0-1.4,0c-0.2-0.3-0.5-0.5-0.7-0.7l-0.1-0.1c0.6-1.1,0.9-2.4,1.1-3.7
		c0.1,0,0.1,0,0.2,0c0,0,0,0.1,0,0.1c0.1,0.2,0.4,0.3,0.7,0.3c0.3,0,0.6-0.5,0.6-1c0-0.2,0.1-0.3,0.2-0.3l0.1-0.1l0.2-0.1
		c0.3-0.1,0,0,0.3-0.2c0,0,0,0,0,0c0.3,0.4,1,0.6,1.4,0.6c0.4,0.1,0.7,0.2,0.9,0.3c0,0.1,0.1,0.3,0,0.4C60,19.1,58.7,19.4,57.8,19.1
		 M59.9,21.6C59.9,21.6,59.9,21.7,59.9,21.6c0,0.1-0.1,0.2-0.2,0.2c-0.3,0.1-0.7-0.2-1-0.3l0,0c-0.5-0.4-0.9-0.4-0.2,0.2l0,0
		c0.2,0.1,0.5,0.4,0.9,0.5c-0.3,0.5,0,1,0.1,1.2l0,0.1c0,0.1,0.1,0.1,0.2,0.2c0.1,0.1,0.2,0.2,0.1,0.4c-0.1,0.3-0.8,0.3-1.1,0.3
		l-0.1,0c-0.4,0-1.1,0.2-1.5,0.4c-0.3,0.1-0.6,0.6-0.9,0.9c-0.1,0.1-0.3,0.4-0.3,0.4c0,0-0.1,0-0.1,0c-0.1,0-0.1-0.1-0.1-0.1
		l-0.1-0.3c-0.1-0.3,0-0.5-0.4-0.2h0c-0.1,0-0.2,0-0.2,0c-0.1-0.1-0.2-0.1-0.1-0.2c0,0,0.1-0.2,0.1-0.2c0.2-0.4,0.1-0.4-0.3-0.4
		c0,0-0.1,0-0.1,0c0,0-0.2-0.1-0.2-0.2c-0.1-0.2,0-0.4,0.3-0.5c0.1-0.1,0.3-0.1,0.5-0.2c0.1,0,0.3-0.1,0.4-0.1c0.4,0,0.8,0,1.1,0
		l0.3,0c0.3,0,0.8,0,1-0.3C58,23.4,58,23.2,58,23c-0.1-0.3-0.3-0.5-0.5-0.8c-0.2-0.2-0.3-0.3-0.5-0.5c-0.3-0.5-0.4-1.2,0-1.9
		c0.1-0.2,0.2-0.4,0.3-0.4c0.1,0,0.2,0,0.3,0.1l0.1,0c0.9,0.3,2.1,0.1,2.7,0c0,0.1,0,0.1-0.1,0.2C60.1,19.9,59.8,21.2,59.9,21.6
		 M52.8,27c0.1,0,0.3,0,0.5,0.1c0.5,0.1,1.1,0.2,1.4-0.1c0.1-0.1,0.2-0.2,0.2-0.4c0-0.3,0-0.5,0-0.7c0.1,0.1,0.3,0.2,0.5,0.1
		c0,0.1,0,0.1,0.1,0.2l0,0.1c0,0.2,0.2,0.3,0.4,0.4c0.1,0,0.1,0,0.2,0c0,0.4-0.2,0.8-0.4,1c-0.1,0.1-0.3,0.2-0.4,0.3
		c-1.1-0.2-2.1-0.4-3.2-0.5C52.2,27.2,52.5,26.9,52.8,27 M53.7,23.9c0.2-0.3,0.4-0.6,0.6-1l0,0c0.2,0.2,0.4,0.3,0.5,0.6
		c-0.1,0-0.3,0.1-0.4,0.2c-0.3,0.1-0.4,0.3-0.5,0.5C53.9,24.1,53.8,24,53.7,23.9 M54.4,26.5c0,0.1,0,0.1-0.1,0.2
		c-0.2,0.1-0.7,0.1-1.1,0c-0.2,0-0.4-0.1-0.5-0.1c-0.6,0-1.1,0.4-1.3,0.6c0,0-0.1,0.1-0.1,0.1c-0.7-0.1-1.4-0.1-2.1-0.2h0.1
		c1.6-0.5,3-1.5,4-2.9C53.8,24.6,54.5,25.4,54.4,26.5 M63.2,28h-3.4l-1,0.8c-1-0.3-2.1-0.6-3.2-0.8c0.1,0,0.1-0.1,0.2-0.2
		c0.3-0.4,0.4-1,0.5-1.5c0,0,0,0,0,0l0.2-0.3c0.2-0.3,0.5-0.8,0.8-0.9c0.4-0.2,1.1-0.4,1.4-0.4h0.1c0.4,0,1.3,0,1.5-0.5
		c0.2-0.4-0.1-0.7-0.2-0.8c0,0-0.1-0.1-0.1-0.1l0-0.1c-0.1-0.2-0.4-0.6,0.1-1.1c0,0,0,0,0,0c0,0,0,0,0.1-0.1
		c0.2,0.6,0.7,1.4,1.3,1.9c1,0.8,1.7,0.9,1.9,0.9c0.3,0,0.8,0.1,0.9,0.2c0.1,0,0.3,0.3,0.3,0.6c0,0.5-0.1,0.8-0.4,1
		C63.7,26.8,63.1,27.5,63.2,28C63.1,27.9,63.2,27.9,63.2,28 M40.2,14.8c0.4-1.3,1-2.6,1.8-3.6c1.5-1.9,3.5-3,5.6-3
		c2.1,0,4.1,1,5.6,3c1,1.4,1.7,3.1,2,4.8l-0.2,0.2c-0.2,0.2-0.5,0.5-0.6,0.8l0,0c-0.1,0.3-0.1,0.4-0.1,0.6c0,0.1,0,0.2,0.1,0.2
		c0.1,0.2,0.3,0.3,0.4,0.3c0,0,0.1,0.1,0.1,0.2c0,0,0,0,0,0c0,0,0,0,0,0.1c0,0.1,0.1,0.4,0.4,0.5c0,0,0,0,0.1,0
		c-0.5,4.6-3.7,8.2-7.7,8.2c-3.7,0-6.8-3.2-7.6-7.4c0.3-0.2,0.3-0.6,0.3-0.8l0-0.1c0-0.2-0.1-0.7,0-1.2c0-0.3,0.1-0.8,0.1-1.1
		c0.1-0.2,0.1-0.5,0.1-0.6C40.5,15.2,40.4,15,40.2,14.8 M43.7,6.6c0-0.1-0.1-0.1-0.1-0.2c0,0,0-0.1,0-0.2c0-0.4-0.3-0.7-0.7-0.7
		c0,0-0.1,0-0.1,0c0.1-0.1,0.1-0.2,0.1-0.3c0-0.4-0.4-0.8-0.8-0.8c0,0,0,0-0.1,0c0.1-0.1,0.2-0.3,0.2-0.5c0-0.4-0.3-0.8-0.7-0.9
		C41.8,2.9,42,2.6,42,2.2C42,2.1,42,2,42,2c0.1,0.1,0.3,0.1,0.5,0.1c0.5,0,0.9-0.4,1-0.9c0.1,0.2,0.4,0.3,0.6,0.3
		c0.3,0,0.5-0.1,0.6-0.3c0.1,0.3,0.3,0.6,0.7,0.6c0.3,0,0.5-0.2,0.6-0.4l0,0l0.3,1.4c-0.6-0.3-1.5-0.8-2.4-0.7
		c-0.5,0.1-0.9,0.3-1.1,0.7C42.4,3.3,42.5,4,43,4.6c0.6,0.9,1.1,1.4,1.4,1.6l0,0C44.2,6.4,43.9,6.5,43.7,6.6 M42.9,6.6
		c-0.2,0-0.3-0.1-0.3-0.3c0-0.2,0.1-0.3,0.3-0.3c0.2,0,0.3,0.1,0.3,0.3C43.2,6.4,43.1,6.6,42.9,6.6 M42.1,5.7
		c-0.2,0-0.4-0.2-0.4-0.4c0-0.2,0.2-0.4,0.4-0.4c0.2,0,0.4,0.2,0.4,0.4C42.5,5.5,42.3,5.7,42.1,5.7 M41.2,4.5
		c-0.3,0-0.6-0.3-0.6-0.6c0-0.3,0.3-0.6,0.6-0.6c0.3,0,0.6,0.3,0.6,0.6C41.8,4.3,41.5,4.5,41.2,4.5 M40.5,2.2c0-0.3,0.3-0.6,0.6-0.6
		c0.3,0,0.6,0.3,0.6,0.6c0,0.3-0.3,0.6-0.6,0.6C40.8,2.8,40.5,2.6,40.5,2.2 M42.4,0.4c0.4,0,0.6,0.3,0.6,0.6c0,0.4-0.3,0.6-0.6,0.6
		c-0.4,0-0.6-0.3-0.6-0.6C41.8,0.7,42.1,0.4,42.4,0.4 M44.1,0.4c0.2,0,0.4,0.2,0.4,0.4c0,0.2-0.2,0.4-0.4,0.4
		c-0.2,0-0.4-0.2-0.4-0.4C43.7,0.6,43.8,0.4,44.1,0.4 M45.4,0.8c0.2,0,0.3,0.1,0.3,0.3c0,0.2-0.1,0.3-0.3,0.3
		c-0.2,0-0.3-0.1-0.3-0.3C45.1,1,45.2,0.8,45.4,0.8 M47,0.5c0-0.1,0.1-0.1,0.2-0.1h0.4h0h0.4c0.1,0,0.2,0,0.2,0.1
		c0,0.3,0.2,0.6,0.7,0.7l-0.9,4.6l0,0c-0.1,0-0.3,0-0.4,0c-0.1,0-0.2,0-0.4,0v0l-0.9-4.6C46.8,1.1,47,0.7,47,0.5 M48.3,5.8L48.3,5.8
		l0.5-2.6c0.4-0.3,1.5-1,2.5-0.8c0.4,0.1,0.7,0.2,0.8,0.5c0.2,0.4,0.1,1-0.3,1.6C51,5.5,50.4,6,50.2,6.1l0,0
		C49.6,6,48.9,5.9,48.3,5.8 M44.9,6.1c-0.2-0.1-0.8-0.6-1.6-1.6c-0.4-0.6-0.5-1.2-0.3-1.6c0.2-0.3,0.4-0.5,0.8-0.5
		c1-0.1,2,0.6,2.5,0.8l0.5,2.6l0,0C46.2,5.8,45.5,6,44.9,6.1L44.9,6.1z M51.1,8.9c-1.1-0.7-2.3-1-3.6-1c-1.3,0-2.5,0.3-3.6,1
		C44,8.6,44.1,8.3,44.1,8c1.1-0.5,2.3-0.8,3.5-0.8c1.2,0,2.4,0.3,3.5,0.8C51,8.3,51.1,8.6,51.1,8.9 M51.1,7.6
		c-1.1-0.5-2.3-0.8-3.5-0.8c-1.2,0-2.4,0.3-3.5,0.8c0-0.3-0.1-0.5-0.2-0.7c1.2-0.5,2.4-0.8,3.7-0.8c1.3,0,2.6,0.3,3.8,0.8
		C51.2,7.1,51.1,7.4,51.1,7.6 M49.1,1.4L49.1,1.4c0.1,0.2,0.3,0.4,0.6,0.4c0.3,0,0.6-0.2,0.7-0.6c0.1,0.2,0.4,0.3,0.6,0.3
		c0.3,0,0.5-0.1,0.6-0.3c0.1,0.5,0.5,0.9,1,0.9c0.2,0,0.3,0,0.5-0.1c0,0.1,0,0.2,0,0.3c0,0.4,0.2,0.7,0.5,0.8
		c-0.4,0.1-0.7,0.5-0.7,0.9c0,0.2,0.1,0.4,0.2,0.5c0,0,0,0-0.1,0c-0.4,0-0.8,0.3-0.8,0.8c0,0.1,0,0.2,0.1,0.3c0,0-0.1,0-0.1,0
		c-0.4,0-0.7,0.3-0.7,0.7c0,0.1,0,0.1,0,0.2c0,0-0.1,0.1-0.1,0.1c-0.3-0.1-0.5-0.2-0.8-0.3l0,0c0.3-0.2,0.8-0.7,1.5-1.6
		c0.5-0.7,0.6-1.4,0.3-1.9c-0.2-0.4-0.6-0.6-1.1-0.7c-0.9-0.1-1.9,0.4-2.4,0.7L49.1,1.4z M49.7,0.8C49.9,0.8,50,1,50,1.1
		c0,0.2-0.1,0.3-0.3,0.3c-0.2,0-0.3-0.1-0.3-0.3C49.4,1,49.6,0.8,49.7,0.8 M51,0.4c0.2,0,0.4,0.2,0.4,0.4c0,0.2-0.2,0.4-0.4,0.4
		c-0.2,0-0.4-0.2-0.4-0.4C50.6,0.6,50.8,0.4,51,0.4 M52.7,0.4c0.4,0,0.6,0.3,0.6,0.6c0,0.4-0.3,0.6-0.6,0.6c-0.4,0-0.6-0.3-0.6-0.6
		C52,0.7,52.3,0.4,52.7,0.4 M54,1.7c0.3,0,0.6,0.3,0.6,0.6c0,0.3-0.3,0.6-0.6,0.6c-0.3,0-0.6-0.3-0.6-0.6C53.5,1.9,53.7,1.7,54,1.7
		 M54.4,4c0,0.3-0.3,0.6-0.6,0.6c-0.3,0-0.6-0.3-0.6-0.6c0-0.3,0.3-0.6,0.6-0.6C54.2,3.4,54.4,3.7,54.4,4 M53,5.7
		c-0.2,0-0.4-0.2-0.4-0.4c0-0.2,0.2-0.4,0.4-0.4c0.2,0,0.4,0.2,0.4,0.4C53.4,5.5,53.3,5.7,53,5.7 M52.2,6.6c-0.2,0-0.3-0.1-0.3-0.3
		C51.9,6.1,52,6,52.2,6c0.2,0,0.3,0.1,0.3,0.3C52.5,6.4,52.4,6.6,52.2,6.6 M56.8,15.2c-0.2,0.1-0.4,0.2-0.5,0.2
		c-0.2,0.1-0.5,0.1-0.8,0.3c-0.1-0.6-0.3-1.2-0.5-1.8h0l1.6,0.1C56.6,14.3,56.7,14.7,56.8,15.2 M54.3,11.6c0.1,0.5,0.5,1.1,1.1,1.1
		c0.3,0,0.6-0.2,0.8-0.4c0,0.2,0.1,0.4,0.2,0.5c0.1,0.1,0.2,0.1,0.4,0.2c-0.1,0.2-0.2,0.4-0.2,0.7l-1.8-0.1c-0.3-0.7-0.6-1.3-1-1.9
		C54,11.7,54.2,11.7,54.3,11.6 M56.9,9.9l0.8,0c1-0.1,2.2-0.5,2.7-2l0,0c0.1-0.3,0-0.8,0-0.8l0-0.2l-0.2,0.1c-0.2,0.1-1,0.3-1.2,0.3
		c-0.2,0-0.7,0.1-1.2,0.4l0,0l0,0c0,0,0,0-0.1,0c0,0-0.1,0-0.1-0.1c-0.2-0.2-0.3-0.4-0.4-0.5c0,0,0,0,0,0c0,0,0.1-0.1,0.3-0.2
		l0.3-0.1c0.3-0.1,0.6-0.1,0.6-0.6v0c0-0.1-0.1-0.3-0.2-0.4c-0.3-0.3-1-0.2-1.3-0.2l0,0l0,0c0,0,0,0,0,0c0,0,0,0-0.1-0.2
		c0-0.1,0-0.2,0-0.2c0-0.1,0-0.1,0-0.1c0.1-0.1,0.1-0.2,0.1-0.3c0-0.2-0.1-0.3-0.1-0.4l0-0.1c0-0.1-0.1-0.1-0.1-0.2c0,0,0,0,0-0.1
		c0,0,0.1-0.1,0.2-0.1c0.2,0,0.5,0,0.7,0c0.2,0,0.3,0,0.5,0c0.2,0,0.3-0.1,0.5-0.2c0.2-0.1,0.3-0.2,0.4-0.2c0.2,0,0.6,0,0.9,0l0.5,0
		c0.3,0,1.4-0.3,1.7-0.7c0,0,0.1-0.1,0.1-0.1c0,0,0,0,0,0c0.1,0.1,0.1,0.3,0.1,0.5c0,0.3,0.1,0.5,0.2,0.8c0.1,0.2,0.3,0.4,0.5,0.6
		C63,4.8,63.1,4.9,63.2,5c0.1,0.1,0.2,0.4,0.3,0.6c0.2,0.4,0.3,0.8,0.5,1c0.2,0.2,0.8,0.8,1.5,0.7c0,0,0,0,0,0l-0.2,0.2
		c-0.2,0.2-0.4,0.4-0.4,0.6v0c0,0.2,0.1,0.4,0.2,0.5l0,0c0,0,0,0.1,0,0.1c0,0.1,0,0.1-0.1,0.2c-0.2,0.2-0.3,0.4-0.3,0.6
		c0,0.1,0,0.2,0.1,0.2l0,0c0,0.1,0.1,0.2,0.1,0.2v0c0,0,0,0,0,0l-0.1,0c-0.1,0.1-0.2,0.1-0.2,0.1l0,0c-0.4,0.1-0.6,0.3-0.6,0.7
		c0,0,0,0,0,0.1l0,0.1c0,0.1,0,0.2,0,0.2c0,0,0,0,0,0c0,0,0,0-0.1,0l-0.1,0c-0.2,0.1-0.6,0.1-0.6,0.8l0,0.3c0,0.5,0,0.8-0.2,0.8
		c-0.3,0-0.5-0.2-0.6-0.3c0-0.1-0.1-0.3-0.1-0.3c-0.2-0.7-0.2-0.5-0.5,0.1c-0.1,0.1-0.1,0.2-0.2,0.3c-0.3,0.5-0.4,0.6-0.5,0.6
		l-0.1,0c0,0-0.1,0-0.1,0c0,0-0.1-0.1-0.1-0.3c-0.1-0.3-0.1-0.6-0.1-1c0-0.5,0.5-1-0.6-0.2c0,0-0.1,0.1-0.2,0.1
		c-0.1,0.1-0.9,0.4-1.2,0.5c-0.1,0-0.3,0.1-0.4,0c0,0,0,0,0-0.1c0,0,0,0,0,0c0.1-0.4,0.3-0.4-0.4-0.3l-0.3,0l-0.1,0
		c-0.2,0-0.4,0-0.6-0.1c-0.1-0.1-0.1-0.2-0.1-0.3c0-0.7,0.5-1,0.8-1.1c0.4-0.1,2.2-0.3,2.9-0.3c0.6-0.1,1.8-0.3,2.4-1.3
		C63,9.1,63.2,7.6,63,6.7C63,6.4,62.7,6,62.9,6.8C63,7.5,62.6,9,62.4,9.3c-0.5,0.9-1.5,1.1-2.1,1.1c-0.8,0.1-2.5,0.3-3,0.3
		c-0.4,0.1-0.8,0.4-1,0.9c-0.2,0.2-0.5,0.8-0.9,0.8c-0.4,0-0.8-0.5-0.8-1C54.6,10.1,55.3,10,56.9,9.9 M71.2,12.2
		c0-0.1,0-0.3,0.1-0.4c0.1-0.1,0.2-0.3,0.2-0.4c0-0.1,0-0.1,0-0.2C71.3,10.9,71,11,70.7,11h-0.1c-0.1,0-0.2-0.1-0.4-0.1
		c-0.3-0.1-0.6-0.2-0.8-0.3c-0.2,0-0.4,0-0.6,0.1c-0.3,0.1-0.5,0.1-0.8,0.1c-0.2,0-0.5-0.1-0.7-0.2c-0.7-0.3-1.3-0.1-1.8,0
		c-0.6,0.3-1.1,0.7-1.4,1.3c-0.6,1.1-0.3,2.6,0.1,3.5c0.2,0.4,0.9,1.5,1.3,2c0,0,0,0,0,0c0,0,0,0,0,0c-0.5,0.2-0.6,0.8-0.6,1.2
		c0,0.1,0,0.2,0,0.2c0,0.2,0.1,0.3,0.2,0.4c0.1,0,0.2,0,0.2,0c0,0,0.3-0.2,0.7-0.2c0.4,0,1,0.3,1,1c0,0.7-0.6,1.4-1.3,1.4
		c-0.6,0-1-0.3-1.1-0.7c-0.1-0.7-0.3-1.3-0.4-1.4c0-0.1-0.1-0.1-0.2-0.2c-0.2-0.2-0.5-0.5-0.6-1.8c-0.1-1.5-0.7-2.9-1.1-3.8
		c0.1,0,0.2,0,0.3,0c0.5-0.1,0.5-0.6,0.5-1.1l0-0.3c0-0.4,0.1-0.4,0.4-0.5l0.1,0c0.3-0.1,0.3-0.2,0.3-0.4c0-0.1,0-0.1,0-0.2l0-0.1v0
		c0-0.2,0.1-0.3,0.3-0.3l0,0c0.1,0,0.2-0.1,0.3-0.1l0.1,0c0.2-0.1,0.2-0.2,0.2-0.3c0-0.1,0-0.2-0.1-0.3l0,0c0,0,0-0.1,0-0.1
		c0-0.1,0-0.1,0.2-0.3c0.2-0.2,0.2-0.4,0.2-0.5c0-0.1-0.1-0.3-0.1-0.3l0,0c0-0.1-0.1-0.2-0.1-0.3c0-0.1,0.2-0.2,0.3-0.3l0.2-0.2
		c0.1-0.1,0.1-0.3,0.1-0.4c0-0.1,0-0.2-0.1-0.2c-0.1-0.1-0.2-0.1-0.3-0.1l0,0c-0.4,0.2-0.9-0.2-1.2-0.5c-0.1-0.1-0.3-0.5-0.4-0.8
		c-0.1-0.3-0.2-0.5-0.3-0.7c-0.1-0.1-0.2-0.3-0.4-0.4c-0.2-0.2-0.4-0.3-0.5-0.5c-0.1-0.2-0.1-0.4-0.2-0.6c0-0.2-0.1-0.5-0.2-0.6
		c-0.1-0.1-0.2-0.2-0.3-0.2c-0.2,0-0.4,0.2-0.4,0.2c-0.3,0.3-1.2,0.6-1.5,0.6l-0.5,0c-0.3,0-0.7,0-0.9,0c-0.2,0-0.4,0.1-0.6,0.2
		c-0.1,0.1-0.3,0.1-0.4,0.2c-0.1,0-0.2,0-0.4,0c-0.2,0-0.5,0-0.8,0c-0.2,0-0.3,0.1-0.4,0.3c-0.1,0.2,0,0.5,0,0.6
		c0,0,0.1,0.1,0.1,0.1c0.1,0.2,0.1,0.3,0.1,0.3c-0.3,0.2-0.2,0.6-0.1,0.7c0,0.1,0.1,0.3,0.3,0.4c0.1,0,0.2,0.1,0.3,0l0,0
		c0.2-0.1,0.7,0,0.9,0.1c0,0,0.1,0.1,0.1,0.1c0,0.2,0,0.2-0.3,0.3l-0.3,0.1c-0.4,0.1-0.5,0.3-0.5,0.4c0,0.1,0,0.2,0,0.3l0.1,0.1
		c0.1,0.1,0.2,0.2,0.4,0.5c0.2,0.2,0.3,0.3,0.4,0.3c0.1,0,0.3-0.1,0.3-0.2c0.4-0.3,0.8-0.3,1-0.3c0.2,0,0.7-0.1,1.1-0.2
		c0,0,0,0.1,0,0.1c0,0.1,0,0.3,0,0.3l0,0c-0.3,1-1.1,1.6-2.4,1.7l-0.8,0c-1.5,0.1-2.5,0.1-2.5,1.7v0c-0.2,0-0.5,0-0.7-0.1l0,0
		c-0.1-0.1-0.1-0.2-0.2-0.3c-0.5-0.7-1.1-1.3-1.8-1.8c-0.4-0.9-0.2-2,0.2-2.4c0.1,0.1,0.2,0.1,0.4,0.1c0.4,0,0.7-0.3,0.7-0.7
		c0-0.1,0-0.2-0.1-0.3C52.9,6,53,6,53,6c0.4,0,0.8-0.4,0.8-0.8c0-0.1,0-0.3-0.1-0.4c0.1,0,0.1,0,0.2,0c0.5,0,0.9-0.4,0.9-0.9
		c0-0.4-0.2-0.7-0.5-0.8C54.7,3,55,2.7,55,2.2c0-0.5-0.4-0.9-0.9-0.9c-0.1,0-0.3,0-0.4,0.1c0-0.1,0.1-0.2,0.1-0.3c0-0.6-0.5-1-1-1
		c-0.4,0-0.7,0.2-0.9,0.5C51.7,0.2,51.4,0,51,0c-0.4,0-0.7,0.3-0.8,0.7c-0.1-0.1-0.3-0.2-0.5-0.2c-0.3,0-0.5,0.2-0.6,0.4h-0.2
		c-0.4,0-0.5-0.3-0.5-0.4c0-0.2-0.2-0.4-0.5-0.4h-0.4h-0.4c-0.3,0-0.5,0.2-0.5,0.4c0,0.1-0.1,0.4-0.5,0.4H46
		c-0.1-0.2-0.3-0.4-0.6-0.4c-0.2,0-0.4,0.1-0.5,0.2c0-0.4-0.4-0.7-0.8-0.7c-0.4,0-0.7,0.2-0.8,0.6c-0.2-0.3-0.5-0.5-0.9-0.5
		c-0.6,0-1,0.5-1,1c0,0.1,0,0.2,0.1,0.3c-0.1-0.1-0.3-0.1-0.4-0.1c-0.5,0-0.9,0.4-0.9,0.9c0,0.4,0.3,0.8,0.7,0.9
		c-0.3,0.2-0.5,0.5-0.5,0.8c0,0.5,0.4,0.9,0.9,0.9c0.1,0,0.1,0,0.2,0c-0.1,0.1-0.1,0.2-0.1,0.4c0,0.4,0.3,0.8,0.8,0.8
		c0.1,0,0.1,0,0.2,0c0,0.1-0.1,0.2-0.1,0.3c0,0.4,0.3,0.7,0.7,0.7c0.1,0,0.3,0,0.4-0.1c0.5,0.4,0.6,1.5,0.2,2.4
		c-0.7,0.5-1.3,1.1-1.8,1.8c-0.7,0.9-1.2,1.9-1.6,3c0.1-0.7,0-1.3-0.2-1.8c-0.7-1.6-2.1-2.2-3.1-2.7l-0.5-0.3
		c-0.8-0.4-1.1-0.9-1.4-1.3l-0.2-0.2c0,0,0,0,0,0c0,0,0,0,0.1,0c0.3,0,0.7,0.2,0.9,0.4L36,8.3c0.3,0.2,0.4,0.4,0.5,0.4
		c0.3,0.1,0.7,0.1,0.9,0c0.1-0.1,0.1-0.2,0.1-0.3c0-0.1,0-0.2-0.1-0.3c0,0,0-0.1,0-0.1c0,0,0,0,0,0l0.2,0.1c0.3,0.1,0.5-0.1,0.7-0.3
		c0.2-0.3,0.1-0.7-0.3-1.1c-0.2-0.2-0.9-0.8-1.4-1.3c-0.4-0.4-0.7-0.7-0.8-0.8c-0.1-0.1-0.3-0.3-0.3-0.3c0.1-0.1,0.1-0.3,0-0.4
		c-0.1-0.1-0.3-0.1-0.4-0.1c0,0,0,0-0.1,0c0,0,0,0,0,0c0,0,0,0,0,0l0,0c0,0,0,0,0,0c0.1-0.2,0.2-0.6,0.3-1.1c0.1-0.5,0.1-1-0.2-1.3
		c-0.2-0.2-0.5-0.3-0.8-0.2c-0.5,0.1-0.8,0.4-1.1,0.7l-0.1-0.3l-0.2,0.1L32,1.9l0.1,0.3c-0.4-0.1-0.9-0.2-1.4,0
		c-0.3,0.1-0.4,0.4-0.5,0.6c0,0.4,0.2,0.8,0.6,1.2c0.2,0.1,0.3,0.2,0.4,0.3c0,0,0,0-0.1,0c-0.1,0.1-0.2,0.2-0.3,0.3l-0.1,0.1
		c-0.6,0.6-1.4,0.9-2.2,1c-0.1,0-0.2,0.1-0.2,0.2c0,0.2,0.2,0.4,0.5,0.6c0.3,0.1,0.4,0.6,0.2,1.5l0,0c0,0.1,0,0.2,0.1,0.3
		c0.1,0.1,0.3,0.1,0.6,0l0.1,0c0,0,0.1,0,0.1,0c0,0,0,0.1,0,0.2l0,0.1l0,0.1c0,0.2-0.1,0.4-0.1,0.7c0,0.1,0,0.3,0.1,0.4
		c0.1,0.3,0.4,0.7,0.5,0.9c0.1,0.1,0.2,0.1,0.3,0.1c0.2,0,0.3-0.1,0.3-0.2c0,0,0,0,0,0c0,0,0,0.1,0.1,0.2l0,0
		c0.1,0.3,0.3,0.9,1.2,1.2c0.2,0,0.3,0.1,0.5,0c0.1-0.1,0.2-0.2,0.2-0.4c0-0.1,0-0.2,0-0.3c0,0,0-0.1,0-0.1c0,0,0,0,0.1,0.1
		c0.3,0.4,0.8,1.4,0.8,2.4c0,0.3,0,0.5-0.1,0.8c-0.1,0.4-0.3,0.8-0.4,1c-0.1,0.2-0.2,0.4-0.2,0.6c-0.3,0.3-0.9,0.6-1.3,0.9l-0.3,0.1
		c-0.4,0.2-1.6,1.4-1.7,3c0,0,0,0.1,0,0.1c-0.7,0.2-1.2,0.2-1.4-0.1c-0.5-0.7-0.1-1.3,0.5-2.1l0.2-0.3l0.2-0.2c0,0,0.2-0.2,0.2-0.2
		c0,0,0,0.1,0,0.1l0.1,0.3l0.1,0.2c0,0.2,0.2,0.3,0.2,0.3c0.1,0,0.2,0.2,0.6-0.5c0.1-0.1,0.2-0.4,0.4-0.7l0.3-0.4
		c0.3-0.5,0.2-0.8-0.2-1.1c-0.2-0.1-0.2-0.2,0-0.5l0-0.1c0.1-0.3,0.7-2.1-0.1-3.5c-0.6-0.9-1.4-1.8-2.6-1.5
		c-0.6,0.1-1.1,0.4-1.5,0.6c-0.4,0.2-0.8,0.5-1.4,0.5c-0.4,0.1-1.2,0.3-1.3,0.4c-0.1,0-0.3,0.1-0.3,0.3v0c0,0.2,0.2,0.3,0.4,0.4
		c0.3,0.1,0.4,0.2,0.5,0.3c-0.1,0.2-0.7,0.8-0.8,0.9c-0.1,0.1-0.2,0.2-0.2,0.3c0,0,0,0,0,0.1c0,0.2,0.2,0.3,0.6,0.4c0,0,0,0,0,0
		l0,0.1c0,0.4-0.1,1,0.2,1.3l0.1,0.1c0.2,0.3,0.6,1,0.6,1.2c0,0.1,0,0.2,0,0.3c0,0.2-0.1,0.3,0,0.5c0,0.1,0.1,0.1,0.2,0.2
		c0.4,0.1,0.5-0.2,0.7-0.5l0.1-0.1c0.2-0.3,0.4-0.8,0.6-1.2l0.2-0.3c0.3-0.5,0.7-1.3,0.6-1.9c0.1,0,0.1,0,0.1,0c0.1,0,0.2,0,0.2,0
		l0.1,0c0.1,0,0.3-0.1,0.4-0.2c0-0.2-0.1-0.3-0.3-0.4c-0.2-0.1-0.4-0.8-0.3-1.2c0.1-0.3,0.2-0.4,0.4-0.5c0.4-0.1,1,0.4,1.3,0.8
		c0.3,0.4,0.4,0.8,0.4,1.2c0,0.1,0,0.3,0,0.4c-0.1,0.4-0.2,0.5-0.2,0.5c0,0-0.1,0-0.1,0l-0.1,0c-0.3-0.1-0.6,0-0.9,0.2l-0.1,0.1
		c-0.2,0.1-0.4,0.3-0.4,0.5c0,0.2,0.3,0.3,0.4,0.4c0.1,0,0.2,0.1,0.2,0.2c0.1,0.3-0.2,0.8-0.4,1l-0.1,0.1L28,17
		c-1,1.3-1.4,2.6-0.9,3.5c0.3,0.5,0.9,1.2,2.6,1.2c-0.1,0.4-0.2,0.6-0.3,0.8c-0.4,0.7-1.1,0.7-1.5,0.8l-0.1,0l-0.1,0
		c-0.1,0-0.3,0-0.4,0.1c-0.1,0.2-0.2,0.5-0.1,1.1c0.1,0.8,0,1.3-0.1,1.7c0,0.1-0.1,0.3-0.1,0.4c0,0.1,0,0.2-0.1,0.3
		c0,0.1-0.1,0.3-0.1,0.4c0,0.1,0,0.2,0.1,0.3c0.1,0.1,0.2,0.2,0.3,0.2l0.4,0c0.1,0,0.2,0,0.2,0c0,0,0,0,0,0c0,0,0,0.1,0,0.1h-4.3
		c0,0,1.3,2.2,1.4,2.4c-0.1,0.2-1.3,2.4-1.3,2.4h11.5l0.7,2.2c3.6-1.3,7.8-2.1,11.7-2.1h0c3.9,0,8.1,0.7,11.7,2l0.6-2.2h11.4
		c0,0-1.2-2.3-1.3-2.4c0.1-0.2,1.4-2.4,1.4-2.4h-0.3h-4.3h-0.3c0.1-0.4,0.1-0.7,0.1-0.9c0-0.1-0.1-0.4-0.1-0.6
		c0-0.3-0.1-0.6-0.1-0.7c0-0.2,0-1,0-1.2c0.1-0.5-0.5-0.9-0.7-1.1l-0.1-0.1c-0.2-0.2-0.5-0.4-0.7-0.7c0.7,0.2,1.9,0.4,2.9-0.8
		c0.3-0.3,0.5-0.8,0.6-1.1l0,0c0.1-0.2,0.4-0.6,0.4-0.7c0.2-0.2,1.3-1.6,1-2.1c-0.2-0.4-0.8-0.2-1-0.1c-0.1,0-0.2,0-0.2-0.3
		c-0.1-0.2-0.2-0.8-0.2-0.9l0,0c0-0.1,0-0.3-0.2-0.4c-0.1-0.1-0.2,0-0.4,0.1c-0.1,0-0.1,0.1-0.2,0c-0.1,0-0.1-0.1-0.1-0.1
		c-0.1-0.1-0.1-0.4-0.2-0.6l0-0.1l0-0.1c0-0.1-0.1-0.3-0.2-0.3c-0.2,0-0.3,0.1-0.4,0.2c-0.1,0.1-0.2,0.2-0.2,0.3
		c-1.1-0.9-0.9-1.8-0.9-2.4c0.1-0.7,0.4-1.1,0.8-1.3c0.6-0.3,1.4,0,1.5,0l0.1,0c0,0,0.1,0.1,0.2,0.1c0,0,0,0-0.1,0l0,0l0,0
		c-0.3,0.3-0.4,0.6-0.4,0.9c0,0.7,0.6,1.5,1.1,2v0c0,0.7,0.2,1.7,0.6,2.1c0.2,0.2,0.4,0.2,0.6,0.2c0.4,0,1-0.4,1.1-0.4
		c0.1,0,0.4-0.3-0.1-0.4c-0.5-0.1-0.3-0.5-0.3-0.7c0-0.3,0.2-0.6,0.4-1.1c0.1-0.1,0.1-0.3,0.1-0.4c0-0.3-0.1-0.6-0.2-0.8
		c0.1,0,0.2,0,0.2-0.1c0.2-0.1,0.4-0.2,0.4-0.4c0,0,0-0.1,0-0.1c0-0.1,0-0.2-0.1-0.3C71.2,12.4,71.2,12.3,71.2,12.2"/>
</g>
</svg>
