<?xml version="1.0" encoding="utf-8"?>
<!-- Generator: Adobe Illustrator 26.0.1, SVG Export Plug-In . SVG Version: 6.00 Build 0)  -->
<svg version="1.1" id="Layer_1" xmlns="http://www.w3.org/2000/svg" xmlns:xlink="http://www.w3.org/1999/xlink" x="0px" y="0px"
	 viewBox="0 0 95 35" style="enable-background:new 0 0 95 35;" xml:space="preserve">
<style type="text/css">
	.st0{fill-rule:evenodd;clip-rule:evenodd;fill:#FFFFFF;}
	.st1{fill:#FFFFFF;}
</style>
<g>
	<path class="st0" d="M19.5,19.3h-2.9c0.1-0.3,0.1-0.7-0.2-1.2l-1.7-2.8L12,10.5c0,0-1-2-2.6-3.1c1,0.4,13.4,7.6,13.4,7.6
		C24.8,16.2,26.6,19.2,19.5,19.3L19.5,19.3z M10.2,27.1c-2,1.2-5.6,1.2-2.1-5c0.6-1,1.5-2.6,1.5-2.6c0.2,0.3,0.6,0.5,1.2,0.5h8.8
		c0,0,2.2,0.1,4-0.7C22.7,20,10.2,27.1,10.2,27.1z M6,10.2c0-2.3,1.8-5.5,5.4,0.6c0.6,1.1,1.5,2.6,1.5,2.6c-0.4,0.1-0.7,0.3-1,0.8
		L10.3,17l-2.8,4.8c0,0-1.2,1.9-1.4,3.9C5.9,24.5,6,10.2,6,10.2z M13,4.4c-7.2,0-13,5.8-13,13c0,7.2,5.8,13.1,13,13.1
		c7.2,0,13.1-5.9,13.1-13.1C26.2,10.2,20.3,4.4,13,4.4z"/>
	<path class="st0" d="M35.8,27.9h3.3v-9.2h1.8c4.7,0,10.8-0.4,10.8-5.7c0-5.4-5.8-5.8-10.5-5.8H32v0.6c3.3,0.4,3.9,0.9,3.9,2.8V27.9
		L35.8,27.9z M39.1,10.5c0-1.8,0.2-2.1,3.3-2.1c3.4,0,5.5,1.5,5.5,4.6c0,4-3.6,4.5-7.2,4.5h-1.7L39.1,10.5L39.1,10.5z M55.3,10.9
		c0-2.5-0.6-2.7-3.9-3.1V7.2h7.7l12.1,16.8h0.1V7.2h2v20.7h-2.9l-13-18h-0.1v18h-2C55.3,27.9,55.3,10.9,55.3,10.9z M95,27.4
		c-1.8,0.5-3.6,0.9-7.2,0.9c-7.2,0-11.1-5.1-11.1-11.3c0-5.6,2.3-10,10.2-10c5.8,0,7.9,2.4,8.1,4.5h-3.7c-0.2-1-0.9-3.1-4.7-3.1
		c-4.1,0-6.2,3.1-6.2,7.8c0,4.3,1.1,10.8,9.6,10.8c2.3,0,4.7-0.7,5.1-0.8V27.4L95,27.4z"/>
	<path class="st1" d="M23.6,29.1h0.2c0.2,0,0.4-0.1,0.4-0.3c0-0.2-0.2-0.3-0.4-0.3c-0.1,0-0.2,0-0.2,0V29.1z M23.4,28.3
		c0.1,0,0.3,0,0.4,0c0.2,0,0.4,0,0.5,0.1c0.1,0.1,0.1,0.2,0.1,0.3c0,0.2-0.1,0.4-0.3,0.4v0c0.1,0,0.2,0.2,0.2,0.3
		c0.1,0.2,0.1,0.4,0.1,0.5h-0.2c0-0.1-0.1-0.2-0.1-0.4c-0.1-0.2-0.1-0.3-0.3-0.3h-0.2V30h-0.2L23.4,28.3L23.4,28.3z"/>
	<path class="st1" d="M22.7,29.2c0,0.7,0.5,1.2,1.2,1.2c0.7,0,1.2-0.5,1.2-1.2c0-0.7-0.5-1.2-1.2-1.2C23.2,28,22.7,28.5,22.7,29.2z
		 M22.5,29.2c0-0.8,0.6-1.4,1.4-1.4c0.8,0,1.4,0.6,1.4,1.4c0,0.8-0.6,1.4-1.4,1.4C23.1,30.6,22.5,29.9,22.5,29.2L22.5,29.2z"/>
</g>
</svg>
