<?xml version="1.0" encoding="utf-8"?>
<!-- Generator: Adobe Illustrator 26.0.1, SVG Export Plug-In . SVG Version: 6.00 Build 0)  -->
<svg version="1.1" id="Layer_1" xmlns="http://www.w3.org/2000/svg" xmlns:xlink="http://www.w3.org/1999/xlink" x="0px" y="0px"
	 viewBox="0 0 95 35" style="enable-background:new 0 0 95 35;" xml:space="preserve">
<style type="text/css">
	.st0{fill-rule:evenodd;clip-rule:evenodd;fill:#FFFFFF;}
</style>
<g>
	<path class="st0" d="M91.4,15.9c0.3,0,0.5,0,0.7-0.1c0.1-0.1,0.1-0.3,0.1-0.7V7.6c0-0.3-0.1-0.6-0.1-0.7c-0.1-0.2-0.3-0.3-0.7-0.3
		h-0.3V6.1l3-0.2v9.2c0,0.5,0.1,0.7,0.4,0.8H95v0.6h-3.6L91.4,15.9L91.4,15.9L91.4,15.9z M85.4,10.4c0.1-0.1,0.3-0.3,0.5-0.5
		c0.3-0.1,0.6-0.2,0.9-0.2c0.9,0,1.4,0.4,1.4,1.2v1.2c-1.3,0.2-2.3,0.5-2.9,0.9c-0.8,0.5-1.2,1.1-1.2,1.9c0,0.5,0.2,0.9,0.5,1.2
		c0.3,0.5,0.9,0.7,1.7,0.7c0.4,0,0.8-0.1,1.2-0.3c0.3-0.2,0.6-0.5,0.8-0.9v1h2.6v-0.6h-0.1c-0.5,0-0.7-0.3-0.7-0.9v-3.4
		c0-1.7-0.9-2.5-2.8-2.5c-0.8,0-1.4,0.2-1.9,0.5c-0.5,0.3-0.8,0.7-0.8,1.3c0,0.3,0.1,0.7,0.3,0.9c0.2,0.1,0.5,0.3,0.7,0.3
		c0.3,0,0.6-0.1,0.8-0.3c0.2-0.2,0.3-0.4,0.3-0.6c0-0.6-0.3-0.9-0.9-0.9c-0.2,0-0.4,0.1-0.5,0.2L85.4,10.4L85.4,10.4L85.4,10.4z
		 M86.8,13.2c0.3-0.3,0.7-0.4,1.5-0.6v1.1c0,0.6-0.1,1.1-0.3,1.4c-0.3,0.4-0.5,0.6-0.9,0.6c-0.2,0-0.4-0.1-0.5-0.3
		c-0.2-0.2-0.3-0.5-0.3-0.9C86.2,14,86.4,13.5,86.8,13.2L86.8,13.2z M37.2,9c0,1.5-0.7,2.3-1.9,2.3h-0.6V6.7h0.6
		C36.5,6.7,37.2,7.4,37.2,9z M35.2,12c1.2,0,2.1-0.3,2.9-0.7c0.8-0.5,1.2-1.3,1.2-2.3c0-1.1-0.4-1.9-1.2-2.3
		c-0.7-0.5-1.7-0.7-2.9-0.7h-3.9v0.5c0.5,0,0.8,0.1,0.9,0.1c0.2,0.1,0.3,0.4,0.3,0.9V15c0,0.3-0.1,0.6-0.3,0.7
		c-0.1,0.1-0.4,0.1-0.7,0.1h-0.2v0.6H36v-0.6h-0.5c-0.3,0-0.6-0.1-0.7-0.1c-0.1-0.1-0.2-0.4-0.2-0.7v-3L35.2,12L35.2,12L35.2,12z
		 M42.3,10.7C42.5,9.6,43.1,9,44,9c0.3,0,0.6,0.1,0.8,0.3C45,9.5,45,9.8,45,10c0,0.3-0.1,0.5-0.3,0.7C44.6,11,44.4,11,44.1,11
		c-0.3,0-0.5-0.1-0.7-0.2c-0.1-0.2-0.2-0.3-0.2-0.6v-0.1c-0.3,0.3-0.5,0.9-0.6,1.7c-0.1,0.7-0.2,1.3-0.2,1.8v1.5
		c0,0.3,0,0.5,0.1,0.7c0.1,0.1,0.4,0.1,0.8,0.1h0.2v0.6h-3.9v-0.6h0.1c0.3,0,0.5,0,0.6-0.1c0.1-0.1,0.2-0.3,0.2-0.7v-3.2
		c0-1.1-0.1-1.7-0.1-1.8c-0.1-0.2-0.2-0.3-0.5-0.3h-0.2V9.2h2.5L42.3,10.7L42.3,10.7z M50.4,15.3c-0.1,0-0.1,0-0.1,0.1L50.4,15.3
		c-0.1,0.3-0.3,0.6-0.7,0.9c-0.4,0.3-0.9,0.5-1.3,0.5c-0.9,0-1.5-0.2-1.8-0.7c-0.3-0.4-0.4-0.9-0.4-1.7v-3c0-0.7-0.1-1.1-0.1-1.2
		C46,10,45.8,9.8,45.6,9.8h-0.1V9.2h2.7v5.3c0,0.7,0.3,1.1,0.9,1.1c0.5,0,0.8-0.3,1-1c0.1-0.3,0.1-0.7,0.1-1.1v-2.2
		c0-0.7,0-1.2-0.1-1.3c-0.1-0.1-0.3-0.2-0.7-0.2h-0.2V9.2h2.9v5.4c0,0.6,0.1,0.9,0.1,1c0.1,0.1,0.3,0.2,0.5,0.2H53v0.6h-2.7
		l-0.1-1.2L50.4,15.3L50.4,15.3L50.4,15.3L50.4,15.3z M57.8,12.1v1.5c0,0.4,0,0.7-0.1,1c-0.2,0.8-0.6,1.2-1.1,1.2
		c-0.9,0-1.3-0.9-1.3-2.9c0-0.9,0.1-1.5,0.1-1.9c0.2-0.7,0.6-1.1,1.1-1.1C57.4,9.8,57.8,10.6,57.8,12.1z M56.3,9.1
		c-1,0-1.7,0.4-2.3,1.3c-0.5,0.7-0.8,1.6-0.8,2.5c0,1.1,0.2,1.9,0.6,2.5c0.5,0.9,1.3,1.3,2.3,1.3c0.5,0,1-0.1,1.4-0.5
		c0.3-0.3,0.5-0.6,0.6-0.9L58,15.3l-0.1-0.1l0.1,1.2h2.6v-0.6h-0.1c-0.3,0-0.5-0.1-0.6-0.2c-0.1-0.1-0.1-0.3-0.1-0.6V5.8l-3.1,0.3
		v0.5h0.2c0.4,0,0.6,0.1,0.7,0.3c0.1,0.1,0.1,0.4,0.1,0.8c0,1.2,0,1.9,0.1,2.1C57.6,9.3,57.1,9.1,56.3,9.1L56.3,9.1z M64.1,9.6
		c0.7,0,1.1,0.8,1.1,2.5h-2.4v-0.7C63,10.2,63.4,9.6,64.1,9.6L64.1,9.6z M62.8,12.7h4.4c0-1.1-0.3-1.9-0.7-2.5
		C65.9,9.4,65.1,9,64.1,9c-1,0-1.8,0.4-2.5,1.1c-0.6,0.7-0.9,1.7-0.9,2.8s0.3,2.1,0.9,2.7c0.6,0.7,1.5,1.1,2.6,1.1
		c0.9,0,1.6-0.3,2.2-0.9c0.5-0.5,0.7-1.1,0.8-1.8h-0.7c0,0.5-0.2,0.9-0.5,1.3c-0.4,0.5-0.9,0.7-1.5,0.7c-0.8,0-1.3-0.6-1.5-1.7
		C62.8,13.9,62.8,13.4,62.8,12.7L62.8,12.7z M70.1,10.2c0.1-0.3,0.4-0.6,0.8-0.8C71.2,9.2,71.6,9,72,9c1.5,0,2.2,0.8,2.2,2.4v3.9
		c0,0.4,0.2,0.5,0.7,0.5H75v0.6h-2.8v-5.3c0-0.3-0.1-0.6-0.1-0.8C72,10.2,71.7,10,71.4,10c-0.3,0-0.6,0.1-0.8,0.5
		c-0.2,0.3-0.3,0.8-0.3,1.5v2.7c0,0.6,0.1,0.9,0.1,1c0.1,0.1,0.3,0.2,0.6,0.2h0.1v0.6h-3.6v-0.6h0.2c0.4,0,0.6-0.1,0.6-0.5V11
		c0-0.5,0-0.9-0.1-1c-0.1-0.1-0.3-0.2-0.5-0.2h-0.2V9.2h2.6L70.1,10.2L70.1,10.2z M77.8,16.7c-1.2,0-1.8-0.7-1.8-2V9.8h-1.3V9.3h0.2
		c0.7,0,1.3-0.4,1.8-1.2c0.4-0.6,0.7-1.3,0.7-2.1h0.6v3.3h1.4v0.5h-1.4v5c0,0.6,0.2,0.9,0.5,0.9c0.3,0,0.6-0.3,0.7-0.9
		c0-0.2,0.1-0.6,0.1-1.2h0.7c0,1-0.1,1.7-0.3,2C79.2,16.4,78.6,16.7,77.8,16.7L77.8,16.7z M80.8,7.3c0-0.3,0.1-0.6,0.3-0.8
		c0.3-0.3,0.5-0.3,0.9-0.3s0.6,0.1,0.8,0.3c0.3,0.2,0.4,0.5,0.4,0.8s-0.1,0.6-0.4,0.9c-0.2,0.3-0.5,0.3-0.8,0.3s-0.6-0.1-0.9-0.3
		C80.9,7.8,80.8,7.6,80.8,7.3z M80.3,15.9h0.2c0.3,0,0.5-0.1,0.5-0.3c0.1-0.1,0.1-0.4,0.1-0.9v-3.8c0-0.5-0.1-0.8-0.1-0.9
		c-0.1-0.1-0.3-0.1-0.5-0.1h-0.2V9.3h2.8v5.4c0,0.6,0,0.9,0.1,1.1c0.1,0.1,0.3,0.1,0.5,0.1h0.2v0.6h-3.6L80.3,15.9L80.3,15.9
		L80.3,15.9z M83.5,28.7c0.3,0,0.5-0.1,0.7-0.2c0.1-0.1,0.1-0.3,0.1-0.7v-7.4c0-0.4-0.1-0.7-0.1-0.8c-0.1-0.1-0.3-0.2-0.7-0.2h-0.3
		v-0.6l3-0.2v9.2c0,0.5,0.1,0.7,0.4,0.8c0.1,0.1,0.3,0.1,0.5,0.1v0.5h-3.6L83.5,28.7L83.5,28.7L83.5,28.7z M38.7,21.6h-0.5
		c-0.2-0.5-0.4-1-0.7-1.4c-0.2-0.4-0.5-0.7-0.9-0.8c-0.3-0.1-0.7-0.1-1.3-0.1h-0.7v3.9h0.3c0.5,0,0.9-0.2,1.1-0.6
		c0.1-0.2,0.3-0.7,0.4-1.3H37v4.4h-0.5c-0.1-0.3-0.1-0.5-0.1-0.7c-0.1-0.3-0.2-0.5-0.3-0.7c-0.3-0.4-0.7-0.6-1.1-0.6h-0.3v3.9
		c0,0.3,0.1,0.5,0.1,0.6c0.2,0.2,0.6,0.3,1.2,0.3H36v0.5h-4.7v-0.5h0.2c0.4,0,0.6-0.1,0.8-0.3c0.1-0.1,0.1-0.3,0.2-0.6v-7.5
		c0-0.4-0.1-0.7-0.3-0.8c-0.1-0.1-0.3-0.1-0.7-0.1h-0.2v-0.6h7.4L38.7,21.6L38.7,21.6z M39.7,20.1c0-0.3,0.1-0.6,0.3-0.9
		c0.2-0.2,0.5-0.3,0.8-0.3s0.6,0.1,0.9,0.3c0.2,0.3,0.3,0.5,0.3,0.9c0,0.3-0.1,0.6-0.3,0.8c-0.3,0.3-0.5,0.4-0.9,0.4
		s-0.6-0.1-0.8-0.4C39.7,20.7,39.7,20.4,39.7,20.1z M39.1,28.7h0.2c0.3,0,0.5-0.1,0.5-0.3c0-0.1,0.1-0.5,0.1-1v-3.7
		c0-0.5-0.1-0.9-0.2-0.9c-0.1-0.1-0.2-0.1-0.4-0.1h-0.2V22h2.7v5.4c0,0.6,0.1,1,0.1,1.1c0.1,0.1,0.3,0.2,0.5,0.2h0.1v0.5h-3.4
		L39.1,28.7L39.1,28.7L39.1,28.7z M45.7,23c0.1-0.3,0.4-0.6,0.8-0.8c0.3-0.3,0.7-0.3,1.2-0.3c1.5,0,2.2,0.8,2.2,2.3v4
		c0,0.3,0.2,0.5,0.7,0.5h0.1v0.5h-2.8V24c0-0.4-0.1-0.7-0.1-0.8c-0.1-0.3-0.4-0.4-0.7-0.4s-0.6,0.2-0.8,0.5
		c-0.2,0.3-0.3,0.8-0.3,1.5v2.7c0,0.6,0.1,0.9,0.1,1c0.1,0.1,0.3,0.2,0.6,0.2h0.1v0.5h-3.6v-0.5h0.2c0.4,0,0.6-0.2,0.6-0.5v-4.3
		c0-0.6,0-0.9-0.1-1.1c-0.1-0.1-0.3-0.1-0.5-0.1h-0.1V22h2.6L45.7,23L45.7,23z M53.6,26c0.3-0.2,0.7-0.4,1.5-0.5v1.1
		c0,0.6-0.1,1.1-0.3,1.3c-0.3,0.5-0.5,0.7-0.9,0.7c-0.2,0-0.4-0.1-0.5-0.3c-0.2-0.2-0.3-0.5-0.3-0.9C53.1,26.7,53.3,26.2,53.6,26
		L53.6,26z M52.3,23.2c0.1-0.2,0.3-0.3,0.5-0.5c0.3-0.2,0.6-0.3,1-0.3c0.9,0,1.3,0.4,1.3,1.3v1.1c-1.3,0.3-2.3,0.5-2.9,0.9
		c-0.8,0.5-1.2,1.1-1.2,1.9c0,0.5,0.2,0.9,0.5,1.3c0.4,0.4,0.9,0.7,1.7,0.7c0.4,0,0.8-0.1,1.2-0.4c0.3-0.2,0.6-0.5,0.8-0.8v0.9
		l2.6,0.1v-0.6h-0.2c-0.4,0-0.5-0.3-0.5-0.9v-3.5c0-1.7-0.9-2.5-2.8-2.5c-0.8,0-1.4,0.1-1.9,0.5c-0.5,0.3-0.8,0.7-0.8,1.3
		c0,0.4,0.1,0.7,0.3,0.9c0.3,0.2,0.5,0.3,0.7,0.3c0.3,0,0.6-0.1,0.8-0.3c0.2-0.2,0.3-0.4,0.3-0.7c0-0.6-0.3-0.9-0.9-0.9
		c-0.3,0-0.5,0.1-0.6,0.2L52.3,23.2L52.3,23.2z M60.8,23c0.2-0.3,0.5-0.6,0.8-0.8c0.4-0.3,0.8-0.3,1.2-0.3c1.5,0,2.2,0.8,2.2,2.3v4
		c0.1,0.3,0.3,0.5,0.7,0.5h0.2v0.5H63V24c0-0.4,0-0.7-0.1-0.8c-0.1-0.3-0.3-0.4-0.7-0.4c-0.3,0-0.6,0.2-0.8,0.5
		c-0.2,0.3-0.3,0.8-0.3,1.5v2.7c0,0.6,0,0.9,0.1,1c0.1,0.1,0.3,0.2,0.7,0.2h0.1v0.5h-3.6v-0.5h0.1c0.4,0,0.6-0.2,0.7-0.5v-4.3
		c0-0.6-0.1-0.9-0.1-1.1c-0.1-0.1-0.3-0.1-0.5-0.1h-0.2V22h2.6L60.8,23L60.8,23z M70.7,22.8c-0.2-0.3-0.5-0.4-0.9-0.4
		c-1.2,0-1.8,1.1-1.8,3.2c0,0.9,0.1,1.5,0.2,1.9c0.2,0.8,0.7,1.2,1.3,1.2c0.5,0,0.9-0.3,1.3-0.7c0.3-0.3,0.4-0.8,0.4-1.3H72
		c0,0.7-0.2,1.3-0.6,1.8c-0.5,0.7-1.2,1-2.1,1c-1.1,0-1.9-0.4-2.5-1.1c-0.5-0.7-0.8-1.5-0.8-2.7c0-1.1,0.3-2,0.9-2.7
		c0.7-0.7,1.5-1.1,2.5-1.1c0.9,0,1.5,0.2,1.9,0.5c0.3,0.3,0.5,0.7,0.5,1.1c0,0.3-0.1,0.6-0.3,0.8c-0.3,0.3-0.5,0.4-0.9,0.4
		s-0.6-0.1-0.8-0.3c-0.2-0.2-0.3-0.4-0.3-0.7c0-0.3,0.1-0.5,0.3-0.7c0.1-0.2,0.4-0.3,0.7-0.3C70.5,22.8,70.7,22.8,70.7,22.8
		L70.7,22.8z M72.9,20.1c0-0.3,0.1-0.6,0.3-0.9c0.3-0.2,0.5-0.3,0.9-0.3c0.3,0,0.6,0.1,0.8,0.3c0.3,0.3,0.4,0.5,0.4,0.9
		c0,0.3-0.1,0.6-0.4,0.8c-0.2,0.3-0.5,0.4-0.8,0.4c-0.3,0-0.6-0.1-0.9-0.4C73,20.6,72.9,20.4,72.9,20.1z M72.4,28.7h0.2
		c0.3,0,0.5-0.1,0.5-0.3c0.1-0.1,0.1-0.5,0.1-1v-3.7c0-0.5-0.1-0.9-0.1-0.9c-0.1-0.1-0.3-0.1-0.5-0.1h-0.2V22h2.7v5.4
		c0,0.6,0.1,1,0.1,1.1c0.1,0.1,0.3,0.2,0.5,0.2H76v0.5h-3.6L72.4,28.7L72.4,28.7L72.4,28.7z M78.8,26c0.3-0.2,0.8-0.4,1.5-0.5v1.1
		c0,0.6-0.1,1.1-0.3,1.3c-0.3,0.5-0.5,0.7-0.9,0.7c-0.2,0-0.4-0.1-0.6-0.3c-0.1-0.2-0.2-0.5-0.2-0.9C78.3,26.7,78.5,26.2,78.8,26
		L78.8,26z M77.6,23.2c0.1-0.2,0.2-0.3,0.5-0.5c0.3-0.2,0.6-0.3,0.9-0.3c0.9,0,1.4,0.4,1.4,1.3v1.1c-1.3,0.3-2.3,0.5-2.9,0.9
		c-0.7,0.5-1.1,1.1-1.1,1.9c0,0.5,0.1,0.9,0.5,1.3c0.3,0.4,0.9,0.7,1.7,0.7c0.4,0,0.8-0.1,1.2-0.4c0.3-0.2,0.6-0.5,0.8-0.8v0.9H83
		v-0.5h-0.1c-0.5,0-0.7-0.3-0.7-0.9v-3.5c0-1.7-0.9-2.5-2.8-2.5c-0.8,0-1.5,0.1-1.9,0.5c-0.5,0.3-0.8,0.7-0.8,1.3
		c0,0.4,0.1,0.7,0.3,0.9c0.2,0.2,0.5,0.3,0.7,0.3c0.3,0,0.6-0.1,0.8-0.3c0.2-0.2,0.3-0.4,0.3-0.7c0-0.6-0.3-0.9-0.9-0.9
		c-0.2,0-0.4,0.1-0.5,0.2L77.6,23.2z M21.2,20.2l-0.9,0.1l0.3-1.9l-0.3-0.3l0.3-2.1l2.3,0.9L21.2,20.2L21.2,20.2z M24.9,25.7h-3.1
		l2.9-4.6l0.9-3l1.9,0.7C27.3,21,26.5,23.4,24.9,25.7z M23.8,20.9l-1.1,1l-2.3,3.8h-1.5l1.5-2.7l1.2-1l1.7-4.8l1.9,0.8L23.8,20.9z
		 M19.9,11.6L13.8,8l-2.3-0.4v1.7l1.7,1.6l-2.4-0.2c0,0,0.1,0.1,2.1,2.3l9.1,1.5l1.6,1l-4.1,0.3l-1.7,6.2l-5.6,3.8H8.4l1.3-2.5
		l-0.2-0.1l-3.3,2.5H5.4l3.4-4.8C9,19.6,8.8,20.2,9,17.7L8.6,17l-1.4,5.3l-2.9,3.4H3.6l1.7-2.4l2.3-7.2L7,16.3l-1,2.9l-0.7,0.4
		c0,0-1.7,4-2.6,6C1.5,23.9,0,21.4,0,17.1C0,10.6,5.6,3.8,13.9,3.8c8,0,12.3,6.4,13,9.7L19.9,11.6L19.9,11.6z M18,25.7h-1.9l3.5-4.4
		l0.4,0.7L18,25.7z M13.9,31.2c-3.4,0-7.6-1.2-10.5-4.9h21C21.9,29.5,17.7,31.2,13.9,31.2L13.9,31.2z M13.9,4.7
		C6.1,4.7,1,11.1,1,17.1c0,3.4,0.8,5.2,1.7,6.8c1.2-3.1,3.5-9.4,3.5-9.4s1.1-0.5,1.1-0.5l1.5-4l1.1-0.5L11.1,7l2.7,0.4l5.5,3.1
		l6.2,1.7C23.9,8.1,19.4,4.7,13.9,4.7L13.9,4.7z"/>
</g>
</svg>
