<?xml version="1.0" encoding="utf-8"?>
<!-- Generator: Adobe Illustrator 26.0.1, SVG Export Plug-In . SVG Version: 6.00 Build 0)  -->
<svg version="1.1" id="Layer_1" xmlns="http://www.w3.org/2000/svg" xmlns:xlink="http://www.w3.org/1999/xlink" x="0px" y="0px"
	 viewBox="0 0 95 35" style="enable-background:new 0 0 95 35;" xml:space="preserve">
<style type="text/css">
	.st0{fill-rule:evenodd;clip-rule:evenodd;fill:#CCCCCC;}
</style>
<g>
	<path class="st0" d="M79.7,30.1c0-0.3-0.3-0.4-0.6-0.4h-0.6v0.8v0h0.5C79.4,30.6,79.7,30.6,79.7,30.1z"/>
	<path class="st0" d="M79.1,28.8c-1.1,0-1.9,0.8-1.9,1.9c0,1.1,0.8,1.9,1.9,1.9c1.1,0,1.9-0.8,1.9-1.9
		C80.9,29.6,80.1,28.8,79.1,28.8z M79.7,32.1L79,30.9h-0.5v1.2h-0.4v-2.7h1c0.6,0,0.9,0.2,0.9,0.8c0,0.5-0.3,0.7-0.7,0.7l0.8,1.2
		H79.7z"/>
	<path class="st0" d="M66.7,22.9c-1.1,0-1.8,0.8-1.8,1.8c0,1,0.8,1.8,1.8,1.8c1,0,1.7-0.8,1.7-1.8C68.4,23.7,67.6,22.9,66.7,22.9z"
		/>
	<path class="st0" d="M44.8,23c-1,0-1.7,0.8-1.7,1.8c0,1,0.8,1.8,1.7,1.8c1,0,1.7-0.8,1.7-1.8C46.5,23.8,45.7,23,44.8,23z"/>
	<path class="st0" d="M75.2,22.9c-0.9,0-1.5,0.5-1.7,1.2h3.4C76.7,23.3,76.1,22.9,75.2,22.9z"/>
	<path class="st0" d="M58,22.9c-1,0-1.8,0.8-1.8,1.8c0,1,0.8,1.8,1.9,1.8c0.9,0,1.7-0.8,1.7-1.8C59.7,23.7,59,22.9,58,22.9z"/>
	<path class="st0" d="M48.8,12c-1,0-1.8,0.8-1.8,1.8c0,1,0.8,1.8,1.7,1.8c1.1,0,1.9-0.8,1.9-1.8C50.6,12.9,49.8,12,48.8,12z"/>
	<path class="st0" d="M32.1,10h-0.6v2.3h0.4c1.2,0,1.7-0.3,1.7-1.2C33.6,10.4,33.1,10,32.1,10z"/>
	<path class="st0" d="M20.9,10.3c0-0.6-0.2-1-0.6-1.3c-0.3-0.2-0.7-0.3-1.2-0.3h-1.5v4.6h1.1v-1.5h0.3c0.5,0,0.8,0,1.1-0.2
		C20.6,11.3,20.9,10.9,20.9,10.3z M19,10.8h-0.2V9.7H19c0.5,0,0.7,0.2,0.7,0.5C19.8,10.7,19.5,10.8,19,10.8z"/>
	<path class="st0" d="M80.9,0C80.9,0,80.9,0,80.9,0H14.1c-0.9,0-1.6,0.7-1.6,1.6c0,0,0,0,0,0v31.8c0,0.9,0.7,1.6,1.6,1.6
		c0,0,0,0,0,0h66.8v0c0.9,0,1.6-0.7,1.6-1.6V1.6C82.5,0.7,81.8,0,80.9,0z M59,7.6C59.6,7.6,60,8,60,8.6c0,0.5-0.4,0.9-0.9,0.9
		s-0.9-0.4-0.9-0.9C58.1,8,58.5,7.6,59,7.6z M58,10.2h2.1v7.3H58V10.2z M36.9,10.2h2.2v4c0,1,0.2,1.5,1.1,1.5c0.8,0,1.3-0.5,1.3-1.5
		v-4h2.1h0v7.3h-2v-1c-0.5,0.8-1.2,1.1-2.1,1.1c-1.5,0-2.5-1-2.5-2.6V10.2z M25.7,15.9C25.7,15.9,25.7,15.9,25.7,15.9
		c0,1.4-1.1,2.5-2.5,2.5v0h-5.4c0,0,0,0,0,0c-1.4,0-2.5-1.1-2.5-2.5V9.4c0,0,0,0,0,0c0-1.4,1.1-2.5,2.5-2.5h5.4c0,0,0,0,0,0
		c1.4,0,2.5,1.1,2.5,2.5V15.9z M31.9,28.7c-2.2,0-3.3-1.1-3.3-3.2v-0.2h2.3v0v0.1c0,0.8,0.3,1.2,0.9,1.2c0.6,0,0.9-0.3,0.9-0.8
		c0-0.9-0.7-1-1.7-1.4c-1.4-0.7-2.2-1.6-2.2-2.8c0-1.7,1.3-3,3.3-3c1.7,0,2.9,1.1,2.9,2.8v0.1h-2.2c0-0.6-0.3-0.9-0.9-0.9
		c-0.4,0-0.8,0.3-0.8,0.7c0,0.7,0.7,0.9,2,1.5c1.3,0.7,2,1.5,2,2.7C35.1,27.3,33.7,28.7,31.9,28.7z M34.5,14
		c-0.6,0.4-1.4,0.4-2.4,0.4h-0.7v3.1h-2.4V7.9h3.2c1,0,1.8,0.1,2.5,0.5C35.6,9,36,9.9,36,11.1C36,12.4,35.5,13.4,34.5,14z
		 M40.3,22.8h-1v5.7h-2.2v-5.7h-0.9v-1.6h0.9v-2.4h2.2v2.4h1V22.8z M47.6,27.5c-0.7,0.7-1.7,1.1-2.8,1.1c-1.1,0-2-0.4-2.8-1.2
		c-0.7-0.7-1.1-1.7-1.1-2.7c0-1,0.4-2,1.1-2.7c0.7-0.7,1.7-1.1,2.7-1.1c1.1,0,2,0.4,2.7,1.1c0.8,0.7,1.2,1.7,1.2,2.7
		C48.7,25.9,48.3,26.8,47.6,27.5z M47.1,16.7L47.1,16.7l0,0.8l-2.1,0V7.9h2.2v3.2c0.4-0.6,1.1-0.9,2-0.9c0.9,0,1.8,0.3,2.4,1
		c0.8,0.7,1.2,1.7,1.2,2.7c0,1.1-0.4,2.1-1.3,2.9c-0.6,0.6-1.4,0.9-2.3,0.9C48.3,17.6,47.7,17.4,47.1,16.7z M53.5,23L53.5,23
		c-1.4,0-1.7,0.5-1.7,1.8v3.6h-2.2v-7.3h2v0v1c0.4-0.7,1-1.1,1.8-1.1V23z M53.9,7.9H56v9.7h-2.1V7.9z M61.8,28.5h-2.1l0-0.8
		c-0.6,0.6-1.3,0.9-2.2,0.9c-0.9,0-1.6-0.3-2.3-0.9c-0.8-0.7-1.3-1.7-1.3-2.9c0-1,0.4-2,1.2-2.7c0.7-0.7,1.5-1,2.4-1
		c0.9,0,1.6,0.3,2.1,0.9v-0.8h2.2V28.5z M61.2,13.9c0-1,0.4-1.9,1.1-2.7C63.1,10.4,64,10,65,10c1.8,0,3.2,1,3.8,2.9h-2.3
		c-0.3-0.5-0.8-0.8-1.5-0.8c-1,0-1.7,0.7-1.7,1.7c0,1.1,0.7,1.8,1.8,1.8c0.6,0,1.1-0.2,1.4-0.7h2.3v0c-0.5,1.8-2,2.8-3.8,2.8
		c-1.1,0-2-0.4-2.8-1.2C61.6,15.8,61.2,14.9,61.2,13.9z M70.4,28c0,1,0,1.7-0.6,2.5c-0.7,0.9-1.8,1.3-3.2,1.3c-1.9,0-3.3-1-3.5-2.5
		h2.4c0.1,0.5,0.6,0.7,1.2,0.7c1,0,1.6-0.6,1.6-1.7c0-0.1,0-0.6,0-0.7c-0.6,0.5-1.2,0.8-2,0.8c-2,0-3.4-1.6-3.4-3.7
		c0-1,0.4-2,1.1-2.7c0.7-0.7,1.4-1,2.3-1c0.8,0,1.5,0.3,2,0.9v-0.8h2.1V28z M72.4,27.5c-0.7-0.7-1.1-1.7-1.1-2.7c0-1,0.4-2,1.1-2.7
		c0.7-0.7,1.7-1.1,2.7-1.1c2.3,0,3.9,1.7,3.9,4.4v0.2h-5.5c0.2,0.8,0.7,1.2,1.7,1.2c0.4,0,0.8-0.1,1.1-0.4v0h2.4
		c-0.7,1.5-1.9,2.3-3.6,2.3C74.1,28.6,73.2,28.3,72.4,27.5z M79.1,33.1c-1.3,0-2.4-1-2.4-2.3c0-1.3,1.1-2.3,2.4-2.3
		c1.3,0,2.4,1,2.4,2.3C81.4,32.1,80.3,33.1,79.1,33.1z"/>
	<path class="st0" d="M22.3,13.7c-0.6-0.3-0.9-0.4-0.9-0.7c0-0.2,0.1-0.3,0.4-0.3c0.3,0,0.4,0.2,0.4,0.4h1V13c0-0.8-0.6-1.3-1.4-1.3
		c-0.9,0-1.6,0.6-1.6,1.4c0,0.6,0.3,1,1,1.3c0.5,0.2,0.8,0.3,0.8,0.7c0,0.2-0.2,0.4-0.4,0.4c-0.3,0-0.4-0.2-0.4-0.6v-0.1h-1.1V15
		c0,1,0.5,1.5,1.6,1.5c0.9,0,1.5-0.7,1.5-1.5C23.2,14.4,22.9,14,22.3,13.7z"/>
</g>
</svg>
