<?xml version="1.0" encoding="utf-8"?>
<!-- Generator: Adobe Illustrator 26.0.1, SVG Export Plug-In . SVG Version: 6.00 Build 0)  -->
<svg version="1.1" id="Layer_1" xmlns="http://www.w3.org/2000/svg" xmlns:xlink="http://www.w3.org/1999/xlink" x="0px" y="0px"
	 viewBox="0 0 95 35" style="enable-background:new 0 0 95 35;" xml:space="preserve">
<style type="text/css">
	.st0{fill:#104076;}
	.st1{fill:#343741;}
</style>
<path class="st0" d="M-39.1,613.7"/>
<g>
	<path class="st1" d="M2.9,17c0,1.3,0.2,1.8,1,2.3H0c0.7-0.4,0.9-0.9,0.9-2.6v-8C0.9,7,0.7,6.6,0,6.2h1.9c0.6,0,0.6,0,2.2,0h0.6
		c1.1,0,1.9,0.2,2.6,0.5c1.2,0.6,2,1.8,2,3c0,2.1-2,3.7-4.4,3.7c-0.6,0-0.9-0.1-1.4-0.3c1.3-0.2,1.9-0.4,2.6-1c0.7-0.6,1-1.3,1-2.2
		c0-1.5-1.1-2.5-2.9-2.5c-0.5,0-0.9,0-1.4,0.2 M14.1,8.7c0-1.7-0.2-2.2-0.9-2.6H17c-0.7,0.4-0.9,0.9-0.9,2.6v8
		c0,1.7,0.2,2.2,0.9,2.6h-3.8c0.7-0.4,0.9-0.9,0.9-2.6 M24.6,8.7c-0.9,0.9-1.4,2.3-1.4,3.7c0,1.5,0.6,3.1,1.6,4.2
		c0.9,1,2.1,1.5,3.5,1.5c3,0,5.1-2.1,5.1-5.2c0-1.5-0.5-2.9-1.4-4c-1-1.2-2.2-1.7-3.8-1.7C26.9,7.3,25.5,7.8,24.6,8.7z M33.7,7.8
		c1.3,1.2,2,3.1,2,4.9c0,3.9-3.3,7-7.4,7c-4.1,0-7.3-3-7.3-6.8c0-4,3.3-7,7.6-7C30.5,5.8,32.4,6.6,33.7,7.8z M41.8,17
		c0,1.3,0.2,1.8,1,2.3h-3.6c0.9-0.5,1.1-1,1.1-2.3V8.5c0-1.3-0.2-1.8-1-2.3h2.9c0.1,0.2,0.1,0.2,0.5,0.7l7.4,9.4V8.5
		c0-1.3-0.2-1.8-1.1-2.3h3.6c-0.9,0.5-1.1,1-1.1,2.3v11.4c-1.1-0.4-1.9-1-2.8-2.1l-7-8.9 M59.8,17.6c0.9,0.2,1.6,0.2,2.5,0.2
		c1.7,0,2.8-0.3,3.9-1.1l-0.9,2.6h-8.4c0.7-0.4,0.9-0.9,0.9-2.6v-8c0-1.7-0.2-2.2-0.9-2.6h6.7c0.4,0,0.5,0,0.8-0.1v2.3
		c-0.6-0.6-1.2-0.8-2.5-0.8c-1,0-1.5,0-2.1,0.1v3.7h2.7c0.3,0,0.4,0,0.7-0.1v2.1c-0.3-0.4-0.7-0.5-1.6-0.5h-1.8 M73,17.6
		c0.9,0.2,1.6,0.2,2.5,0.2c1.7,0,2.8-0.3,3.9-1.1l-0.9,2.6h-8.4c0.7-0.4,0.9-0.9,0.9-2.6v-8c0-1.7-0.2-2.2-0.9-2.6h6.7
		c0.4,0,0.5,0,0.8-0.1v2.3c-0.6-0.6-1.2-0.8-2.5-0.8c-1,0-1.5,0-2.1,0.1v3.7h2.7c0.3,0,0.4,0,0.7-0.1v2.1c-0.3-0.4-0.7-0.5-1.6-0.5
		H73 M86,16.8c0,1.7,0.2,2.2,0.9,2.6h-3.8c0.7-0.4,0.9-0.9,0.9-2.6v-8c0-1.7-0.2-2.2-0.9-2.6H86c0.2,0,0.5,0,0.9,0
		c0.3,0,0.6,0,0.9,0c1.3,0,2.2,0.2,3,0.8c0.8,0.6,1.3,1.6,1.3,2.6c0,1.5-1.3,2.9-3.3,3.4c3,4,4.5,5.6,6.1,6.4
		c-1.2,0.1-1.4,0.1-1.8,0.1c-1.1,0-1.8-0.4-3.1-2c-1.2-1.4-2.4-3.1-3.5-5c2.3-0.4,3.3-1.3,3.3-2.9c0-1.3-1-2.2-2.4-2.2
		c-0.4,0-0.8,0-1.4,0.2 M11.3,27.6L8.9,25l0,0l-0.1,0v4.1h0.7v-2.5l2.5,2.6l0,0l0.1,0v-4.1h-0.7V27.6z M15.7,25h-0.1l-1.8,4l0,0h0.7
		l0.4-0.9h1.6l0.4,0.9l0,0h0.8L15.7,25L15.7,25z M15.1,27.6l0.5-1.3l0.5,1.3H15.1z M18.4,25.7h1.3v3.4h0.7v-3.4h1.3v-0.7h-3.2V25.7z
		 M25.9,27.5c0,0.6-0.3,1-0.9,1c-0.6,0-0.9-0.3-0.9-1v-2.4h-0.7v2.5c0,1,0.6,1.6,1.6,1.6c1,0,1.6-0.6,1.6-1.6v-2.5h-0.7L25.9,27.5z
		 M31.4,26.3c0-0.8-0.6-1.3-1.6-1.3c-0.4,0-0.7,0-1,0.1l0,0v4h0.7v-1.4c0.1,0,0.3,0,0.4,0c0.1,0,0.1,0,0.2,0l0.9,1.4l0,0h0.8
		l-1.1-1.6C31.1,27.3,31.4,26.8,31.4,26.3L31.4,26.3z M29.8,27.1c-0.1,0-0.3,0-0.4,0v-1.3c0.1,0,0.3,0,0.4,0c0.5,0,0.8,0.3,0.8,0.7
		C30.7,26.8,30.4,27.1,29.8,27.1L29.8,27.1z M35.1,25H35l-1.8,4l0,0h0.7l0.4-0.9h1.5l0.4,0.9l0,0H37L35.1,25L35.1,25z M34.5,27.6
		l0.5-1.3l0.5,1.3H34.5z M39.4,25.1h-0.7v4h2.5v-0.7h-1.7V25.1z M48,26.3c0-0.8-0.6-1.3-1.6-1.3c-0.4,0-0.7,0-1.1,0.1l0,0v4H46v-1.4
		c0.1,0,0.3,0,0.4,0c0.1,0,0.1,0,0.2,0l0.9,1.4l0,0h0.8l-1-1.6C47.7,27.3,48,26.8,48,26.3L48,26.3z M46.3,27.1c-0.1,0-0.3,0-0.4,0
		v-1.3c0.1,0,0.3,0,0.4,0c0.5,0,0.8,0.3,0.8,0.7C47.2,26.8,46.9,27.1,46.3,27.1z M50,29.1h2.5v-0.7h-1.7v-1.1h1.6v-0.6h-1.6v-1h1.7
		v-0.7H50L50,29.1z M55.7,26.8c-0.5-0.2-0.7-0.4-0.7-0.6c0-0.2,0.2-0.5,0.6-0.5c0.3,0,0.6,0.2,0.8,0.3l0,0l0.2-0.6l0,0l0,0
		c-0.2-0.1-0.6-0.3-1-0.3c-0.9,0-1.3,0.6-1.3,1.1c0,0.5,0.3,0.9,1,1.1c0.6,0.3,0.7,0.4,0.7,0.7c0,0.2-0.2,0.5-0.6,0.5
		c-0.3,0-0.7-0.1-1-0.4l0,0l-0.2,0.6l0,0l0,0c0.4,0.2,0.8,0.4,1.3,0.4c0.4,0,0.7-0.1,1-0.4c0.2-0.2,0.4-0.5,0.4-0.8
		C56.7,27.4,56.5,27.1,55.7,26.8L55.7,26.8z M60.5,25c-1.2,0-2.1,0.9-2.1,2.1c0,1.2,0.8,2.1,2,2.1c1.2,0,2.1-0.9,2.1-2.1
		C62.5,25.9,61.7,25,60.5,25z M60.5,28.5c-0.7,0-1.3-0.6-1.3-1.4c0-0.8,0.5-1.4,1.3-1.4c0.7,0,1.3,0.6,1.3,1.4
		C61.7,27.9,61.2,28.5,60.5,28.5z M66.9,27.5c0,0.6-0.3,1-0.9,1c-0.6,0-0.9-0.3-0.9-1v-2.4h-0.7v2.5c0,1,0.6,1.6,1.6,1.6
		s1.6-0.6,1.6-1.6v-2.5h-0.7L66.9,27.5z M72.4,26.3c0-0.8-0.6-1.3-1.6-1.3c-0.4,0-0.7,0-1.1,0.1l0,0v4h0.7v-1.4c0.1,0,0.3,0,0.4,0
		c0.1,0,0.1,0,0.2,0l0.9,1.4l0,0h0.8l-1-1.6C72.1,27.3,72.4,26.8,72.4,26.3L72.4,26.3z M70.8,27.1c-0.1,0-0.3,0-0.4,0v-1.3
		c0.1,0,0.3,0,0.4,0c0.5,0,0.8,0.3,0.8,0.7C71.7,26.8,71.4,27.1,70.8,27.1z M77.4,28.2c-0.3,0.2-0.7,0.3-1.1,0.3
		c-0.9,0-1.4-0.5-1.4-1.4c0-0.9,0.5-1.4,1.4-1.4c0.3,0,0.7,0.1,1.1,0.3l0,0l0.2-0.6l0,0l0,0c-0.4-0.2-0.8-0.4-1.3-0.4
		c-1.3,0-2.2,0.9-2.2,2.1c0,1.2,0.9,2.1,2.2,2.1c0.5,0,0.9-0.1,1.3-0.4l0,0L77.4,28.2L77.4,28.2z M79.5,29.1h2.5v-0.7h-1.7v-1.1h1.6
		v-0.6h-1.6v-1h1.7v-0.7h-2.5V29.1z M85.2,26.8c-0.5-0.2-0.7-0.4-0.7-0.6c0-0.2,0.2-0.5,0.6-0.5c0.3,0,0.6,0.2,0.8,0.3l0,0l0.2-0.6
		l0,0l0,0c-0.2-0.1-0.6-0.3-1-0.3c-0.9,0-1.3,0.6-1.3,1.1c0,0.5,0.3,0.9,1,1.1c0.6,0.3,0.7,0.4,0.7,0.7c0,0.2-0.2,0.5-0.6,0.5
		c-0.3,0-0.7-0.1-1-0.4l0,0l-0.2,0.6l0,0l0,0c0.4,0.2,0.8,0.4,1.3,0.4c0.4,0,0.7-0.1,1-0.4c0.2-0.2,0.4-0.5,0.4-0.8
		C86.2,27.4,86,27.1,85.2,26.8L85.2,26.8z"/>
</g>
</svg>
