<?xml version="1.0" encoding="utf-8"?>
<!-- Generator: Adobe Illustrator 26.0.1, SVG Export Plug-In . SVG Version: 6.00 Build 0)  -->
<svg version="1.1" id="Layer_1" xmlns="http://www.w3.org/2000/svg" xmlns:xlink="http://www.w3.org/1999/xlink" x="0px" y="0px"
	 viewBox="0 0 95 35" style="enable-background:new 0 0 95 35;" xml:space="preserve">
<style type="text/css">
	.st0{fill:#104076;}
	.st1{fill-rule:evenodd;clip-rule:evenodd;fill:#CCCCCC;}
	.st2{fill-rule:evenodd;clip-rule:evenodd;fill:#E6E7E8;}
</style>
<path class="st0" d="M-39.1,613.7"/>
<path class="st1" d="M8.3,11.4h6.5c3.5,0,4.8,1.8,4.6,4.4C19,20,16.5,22.4,13,22.4h-1.7c-0.5,0-0.8,0.3-0.9,1.2l-0.7,4.9
	c0,0.3-0.2,0.5-0.5,0.5H5.1c-0.4,0-0.5-0.3-0.4-0.9l2.5-15.7C7.3,11.7,7.6,11.4,8.3,11.4z"/>
<path class="st1" d="M36.5,11.1c2.2,0,4.2,1.2,3.9,4.1c-0.3,3.5-2.2,5.5-5.2,5.5h-2.6c-0.4,0-0.6,0.3-0.7,0.9l-0.5,3.2
	c-0.1,0.5-0.3,0.7-0.7,0.7h-2.4c-0.4,0-0.5-0.2-0.4-0.8l2-12.8c0.1-0.6,0.3-0.9,0.8-0.9H36.5L36.5,11.1z M32.5,18h2
	c1.2,0,2-0.9,2.1-2.4c0.1-1-0.6-1.6-1.6-1.6l-1.9,0L32.5,18L32.5,18z M47,24.6c0.2-0.2,0.4-0.3,0.4-0.1l-0.1,0.6
	c0,0.3,0.1,0.5,0.4,0.5h2.1c0.4,0,0.5-0.1,0.6-0.7l1.3-8.3c0.1-0.4,0-0.6-0.4-0.6h-2.4c-0.2,0-0.3,0.1-0.4,0.4l-0.1,0.5
	c0,0.3-0.2,0.3-0.3,0c-0.4-0.9-1.4-1.4-2.8-1.3c-3.3,0.1-5.5,2.6-5.8,5.8c-0.2,2.5,1.6,4.5,4,4.5C45.4,25.9,46.1,25.4,47,24.6
	L47,24.6L47,24.6z M45.2,23.3c-1.4,0-2.4-1.1-2.2-2.5c0.2-1.4,1.5-2.5,3-2.5s2.4,1.1,2.2,2.5C47.9,22.2,46.6,23.3,45.2,23.3
	L45.2,23.3z M56,16h-2.2c-0.4,0-0.6,0.3-0.5,0.7l2.7,7.9l-2.7,3.8c-0.2,0.3-0.1,0.6,0.3,0.6h2.4c0.3,0,0.6-0.1,0.7-0.4l8.3-11.9
	c0.3-0.4,0.1-0.8-0.3-0.8h-2.3c-0.4,0-0.6,0.2-0.8,0.5l-3.5,5l-1.6-5C56.6,16.1,56.4,16,56,16L56,16z"/>
<path class="st1" d="M73.8,11.1c2.2,0,4.2,1.2,3.9,4.1c-0.3,3.5-2.2,5.5-5.2,5.5h-2.6c-0.4,0-0.6,0.3-0.7,0.9l-0.5,3.2
	c-0.1,0.5-0.3,0.7-0.7,0.7h-2.4c-0.4,0-0.5-0.2-0.4-0.8l2-12.8c0.1-0.6,0.3-0.9,0.8-0.9L73.8,11.1L73.8,11.1z M69.8,18h2
	c1.2,0,2-0.9,2.1-2.4c0.1-1-0.6-1.6-1.6-1.6l-1.9,0L69.8,18L69.8,18z M84.3,24.6c0.2-0.2,0.4-0.3,0.4-0.1l-0.1,0.6
	c0,0.3,0.1,0.5,0.4,0.5h2.1c0.4,0,0.5-0.1,0.6-0.7l1.3-8.3c0.1-0.4,0-0.6-0.4-0.6h-2.4c-0.2,0-0.3,0.1-0.4,0.4l-0.1,0.5
	c0,0.3-0.2,0.3-0.3,0c-0.4-0.9-1.4-1.4-2.8-1.3c-3.3,0.1-5.5,2.6-5.8,5.8c-0.2,2.5,1.6,4.5,4,4.5C82.7,25.9,83.4,25.4,84.3,24.6
	L84.3,24.6L84.3,24.6z M82.5,23.3c-1.4,0-2.4-1.1-2.2-2.5c0.2-1.4,1.5-2.5,3-2.5c1.4,0,2.4,1.1,2.2,2.5
	C85.3,22.2,83.9,23.3,82.5,23.3L82.5,23.3z M92.4,25.6h-2.5c-0.2,0-0.3-0.1-0.3-0.3c0,0,0,0,0-0.1l2.2-13.8c0-0.2,0.2-0.3,0.4-0.3
	h2.5c0.2,0,0.3,0.1,0.3,0.3c0,0,0,0,0,0.1l-2.2,13.8C92.8,25.5,92.6,25.6,92.4,25.6L92.4,25.6z"/>
<path class="st1" d="M4.2,6h6.5c1.8,0,4,0.1,5.5,1.3c1,0.9,1.5,2.2,1.4,3.7c-0.4,5-3.4,7.7-7.3,7.7H7c-0.5,0-0.9,0.4-1.1,1.3L5,25.8
	c-0.1,0.4-0.2,0.6-0.5,0.6h-4c-0.4,0-0.6-0.3-0.5-1.1L2.9,7.1C3,6.3,3.4,6,4.2,6z"/>
<path class="st2" d="M6,19.5l1.1-7.2c0.1-0.6,0.4-0.9,1.1-0.9h6.5c1.1,0,1.9,0.2,2.6,0.5c-0.7,4.4-3.5,6.9-7.2,6.9H7
	C6.5,18.8,6.2,19,6,19.5z"/>
</svg>
