<?xml version="1.0" encoding="utf-8"?>
<!-- Generator: Adobe Illustrator 26.0.1, SVG Export Plug-In . SVG Version: 6.00 Build 0)  -->
<svg version="1.1" id="Layer_1" xmlns="http://www.w3.org/2000/svg" xmlns:xlink="http://www.w3.org/1999/xlink" x="0px" y="0px"
	 viewBox="0 0 95 35" style="enable-background:new 0 0 95 35;" xml:space="preserve">
<style type="text/css">
	.st0{fill:#343741;}
</style>
<g>
	<path class="st0" d="M25.6,13.8c0.3,0,0.5,0.2,0.5,0.5v9c0,0.3-0.2,0.5-0.5,0.5h-1.2c-0.2,0-0.5-0.2-0.5-0.4v-0.8
		c-0.6,0.9-1.7,1.5-3.2,1.5c-2.6,0-4.2-1.7-4.2-4.3v-5.5c0-0.3,0.2-0.5,0.5-0.5h1.2c0.3,0,0.5,0.2,0.5,0.5v5.2
		c0,1.7,0.9,2.8,2.6,2.8c1.7,0,2.7-1.1,2.7-2.7v-5.2c0-0.3,0.2-0.5,0.5-0.5L25.6,13.8 M7.6,8.8C3.4,8.8,0,12,0,16.4
		C0,20.8,3.4,24,7.6,24c0.7,0,1.4-0.1,2.1-0.3l0.8,2.1c0.1,0.2,0.3,0.4,0.6,0.4h1.3c0.3,0,0.5-0.2,0.4-0.6l-1.1-2.8
		c2.1-1.3,3.5-3.7,3.5-6.5C15.2,12,11.8,8.8,7.6,8.8 M10.9,20.8l-1-2.5c-0.1-0.2-0.3-0.4-0.6-0.4H8c-0.3,0-0.6,0.2-0.4,0.6l1.3,3.3
		C8.5,21.9,8,22,7.6,22c-3.1,0-5.2-2.4-5.2-5.6s2.2-5.6,5.2-5.6s5.2,2.4,5.2,5.6C12.8,18.2,12.1,19.8,10.9,20.8 M95,23.2
		c0.1,0.3,0,0.5-0.3,0.5h-1.4c-0.3,0-0.5-0.1-0.5-0.4l-2.5-6.8l-2.6,6.8c-0.1,0.3-0.3,0.4-0.5,0.4h-1.2c-0.3,0-0.4-0.1-0.5-0.4
		l-2.6-6.8l-2.6,6.8c-0.1,0.3-0.3,0.4-0.5,0.4h-1.3c-0.3,0-0.4-0.1-0.5-0.4l-2.5-6.8l-2.6,6.8c-0.1,0.3-0.3,0.4-0.5,0.4h-1.2
		c-0.3,0-0.4-0.1-0.5-0.4l-2.6-6.8l-2.6,6.8c-0.1,0.3-0.3,0.4-0.5,0.4h-1.3c-0.3,0-0.4-0.3-0.3-0.5l3.5-9.1c0.1-0.3,0.3-0.4,0.5-0.4
		h1.5c0.3,0,0.4,0.1,0.5,0.4l2.5,6.6l2.5-6.6c0.1-0.3,0.3-0.4,0.5-0.4H76c0.3,0,0.4,0.1,0.5,0.4l2.4,6.6l2.4-6.6
		c0.1-0.3,0.3-0.4,0.5-0.4h1.5c0.3,0,0.4,0.1,0.5,0.4l2.5,6.6l2.4-6.6c0.1-0.3,0.3-0.4,0.5-0.4H91c0.3,0,0.4,0.1,0.5,0.4L95,23.2
		 M37.5,13.8h-1.2c-0.3,0-0.5,0.2-0.5,0.5v0.8c-0.6-0.9-1.8-1.6-3.3-1.6c-2.7,0-5,2.1-5,5.2c0,3.2,2.3,5.3,5,5.3
		c1.5,0,2.6-0.7,3.3-1.6v0.9c0,0.3,0.2,0.5,0.5,0.5h1.2c0.3,0,0.5-0.2,0.5-0.5v-9C38,14,37.8,13.8,37.5,13.8 M32.8,22
		c-1.8,0-3.1-1.5-3.1-3.3c0-1.8,1.3-3.2,3.1-3.2c1.8,0,3.1,1.4,3.1,3.2C35.8,20.6,34.5,22,32.8,22 M52.1,22.3c0.3,0.3,0,0.6-0.1,0.7
		c-0.8,0.6-2,1-3.2,1c-3.1,0-5.2-2.3-5.2-5.2s2.1-5.3,5.2-5.3c1.2,0,2.3,0.4,3.2,1c0.1,0.1,0.4,0.3,0.1,0.7L51.5,16
		c-0.2,0.3-0.5,0.2-0.7,0.1c-0.5-0.3-1.2-0.6-1.9-0.6c-1.8,0-3,1.5-3,3.3s1.2,3.3,3,3.3c0.8,0,1.3-0.3,1.9-0.6
		c0.2-0.1,0.5-0.2,0.7,0.1L52.1,22.3z M57.9,13.5c-2.9,0-5.2,2.3-5.2,5.2c0,3,2.3,5.2,5.2,5.2c2.9,0,5.2-2.3,5.2-5.2
		C63.1,15.8,60.8,13.5,57.9,13.5 M57.9,22c-1.8,0-3.1-1.4-3.1-3.2c0-1.8,1.3-3.2,3.1-3.2c1.8,0,3.1,1.4,3.1,3.2
		C60.9,20.6,59.7,22,57.9,22 M41.8,9c0.3,0,0.5,0.2,0.5,0.5v13.7c0,0.3-0.2,0.5-0.5,0.5h-1.2c-0.3,0-0.5-0.2-0.5-0.5V9.5
		c0-0.3,0.2-0.5,0.5-0.5L41.8,9"/>
</g>
</svg>
