<?xml version="1.0" encoding="utf-8"?>
<!-- Generator: Adobe Illustrator 26.0.1, SVG Export Plug-In . SVG Version: 6.00 Build 0)  -->
<svg version="1.1" id="Layer_1" xmlns="http://www.w3.org/2000/svg" xmlns:xlink="http://www.w3.org/1999/xlink" x="0px" y="0px"
	 viewBox="0 0 95 35" style="enable-background:new 0 0 95 35;" xml:space="preserve">
<style type="text/css">
	.st0{fill:#FFFFFF;}
</style>
<g>
	<path class="st0" d="M35.4,17.6c-0.2,0.5-0.4,1.2-0.4,1.5c-0.1-0.3-0.3-1-0.4-1.5l-1-3.2h-2l2.5,7h1.9l2.5-7h-2L35.4,17.6z
		 M28.3,14.2c-0.6,0-1.2,0.2-1.6,0.6v-0.5h-1.8v7h1.8v-3.8c0-1.2,0.4-1.6,1.2-1.6s1.2,0.4,1.2,1.6v3.8h1.8v-3.9
		C30.9,15.4,30.1,14.2,28.3,14.2z M21.4,21.3h1.8v-9.7l-1.8,0.9V21.3z M16.7,18.9l-1-0.3l-2-1.4l-2-2v-1.4l-1.4-1.4v-0.7H9.5
		l-1.7,0.3l-1,1.7l-0.7,1.4l-1.4,1.4v0.7l-1,1l-0.3-0.3l-2.7,1.4L0,19.6V21l0.7,0.4L2,20.7L3.7,21v1.4l1,0.3l1.4-1.4h1V22l-0.3,0.7
		l0.5,0.7l1.6-0.7l-0.3-1L8.8,20h0.7v0.7l1,0.3l0.3,1l0.7,0.7l0.7-0.7l2-0.7l-0.7-0.7l-0.7-1.4h-0.7l0.3,1l0.3,0.3l-0.7,0.7h-0.7
		L10.9,20v-0.7l-1.4-1.4l0.7-0.7l-1.4-1.4l0.7-0.7v-1.4l0.7-0.7l1,1l-0.3,1l0.7,0.7l1.4,2l1.4,0.7l1.7,1.7l1,0.3v0.7h0.7l0.7-0.7
		L17,20L16.7,18.9z M42,14.2c-1.8,0-3.3,1.5-3.3,3.6c0,2.2,1.5,3.6,3.5,3.6c0.7,0,1.9-0.3,2.7-1.3l-1.4-1c-0.3,0.4-0.8,0.6-1.3,0.6
		c-0.7,0-1.5-0.4-1.6-1.3h4.6c0-0.2,0-0.4,0-0.6C45.2,15.9,44,14.2,42,14.2L42,14.2z M40.6,17.1c0.1-0.7,0.7-1.3,1.3-1.3
		c0.9,0,1.3,0.6,1.4,1.3H40.6z M73.9,12.5c-2.4,0-3.8,1.9-3.8,4.5s1.4,4.5,3.8,4.5c0.4,0,0.9-0.1,1.3-0.2l0.6,0.9l1.3-0.9l-0.6-0.9
		c0.7-0.8,1.2-1.9,1.2-3.3C77.7,14.3,76.3,12.5,73.9,12.5z M75.6,18.9L75,18l-1.3,0.9l0.6,0.9c-0.1,0-0.2,0-0.3,0
		c-1.4,0-2-1.3-2-2.8s0.6-2.8,2-2.8s2,1.2,2,2.8C75.9,17.7,75.8,18.4,75.6,18.9L75.6,18.9z M63.7,14.2c-2,0-3.6,1.6-3.6,3.6
		c0,2,1.6,3.6,3.6,3.6c2,0,3.6-1.6,3.6-3.6C67.3,15.8,65.7,14.2,63.7,14.2z M63.7,19.7c-1,0-1.8-0.8-1.8-1.9c0-1,0.7-1.9,1.8-1.9
		s1.8,0.8,1.8,1.9C65.4,18.9,64.7,19.7,63.7,19.7z M49.5,17C49,16.9,48,16.8,48,16.3c0-0.3,0.3-0.5,1.1-0.5c0.6,0.1,1.2,0.2,1.7,0.5
		l0.9-1.3c-0.8-0.5-1.7-0.8-2.6-0.8c-1.6,0-2.9,0.8-2.9,2.2c0,1.8,1.6,2,3,2.3c0.3,0.1,1.1,0.1,1.1,0.6c0,0.3-0.4,0.6-1.1,0.6
		c-0.8,0-1.5-0.3-2.1-0.6l-0.9,1.2c0.7,0.5,1.8,1,2.9,1c1.5,0,3-0.8,3-2.3C52.1,17.6,50.8,17.3,49.5,17z M82.6,12.5
		c-2.4,0-3.8,1.9-3.8,4.5s1.4,4.5,3.8,4.5c0.4,0,0.9-0.1,1.3-0.2l0.6,0.9l1.3-0.9l-0.6-0.9c0.7-0.8,1.2-1.9,1.2-3.3
		C86.4,14.3,85,12.5,82.6,12.5L82.6,12.5z M84.2,18.9L83.7,18l-1.3,0.9l0.6,0.9c-0.1,0-0.2,0-0.3,0c-1.4,0-2-1.3-2-2.8
		s0.6-2.8,2-2.8s2,1.2,2,2.8C84.6,17.7,84.5,18.4,84.2,18.9L84.2,18.9z M56.5,16c0.6,0,1.2,0.3,1.5,0.9l1.5-1.1
		c-1.2-1.6-3.4-2-5.1-0.8c-1.6,1.2-2,3.4-0.8,5.1s3.4,2,5.1,0.8c0.3-0.2,0.6-0.5,0.8-0.8L58,18.9c-0.3,0.5-0.9,0.8-1.5,0.8
		c-1,0-1.8-0.8-1.8-1.9C54.7,16.8,55.5,16,56.5,16z M95,17c0-2.6-1.4-4.5-3.8-4.5c-2.4,0-3.8,1.8-3.8,4.5c0,2.6,1.4,4.5,3.8,4.5
		c0.4,0,0.9-0.1,1.3-0.2l0.6,0.9l1.3-0.9l-0.6-0.9C94.6,19.5,95,18.4,95,17z M92.8,18.9L92.3,18L91,18.9l0.6,0.9c-0.1,0-0.2,0-0.3,0
		c-1.4,0-2-1.3-2-2.8s0.6-2.8,2-2.8s2,1.2,2,2.8C93.2,17.7,93.1,18.4,92.8,18.9z"/>
</g>
</svg>
