<?xml version="1.0" encoding="utf-8"?>
<!-- Generator: Adobe Illustrator 26.0.1, SVG Export Plug-In . SVG Version: 6.00 Build 0)  -->
<svg version="1.1" id="Layer_1" xmlns="http://www.w3.org/2000/svg" xmlns:xlink="http://www.w3.org/1999/xlink" x="0px" y="0px"
	 viewBox="0 0 95 35" style="enable-background:new 0 0 95 35;" xml:space="preserve">
<style type="text/css">
	.st0{fill:#104076;}
	.st1{fill:#FFFFFF;}
</style>
<path class="st0" d="M-39.1,613.7"/>
<g id="layer1" transform="translate(149.48572 -262.59282)">
	<g id="g4681" transform="translate(.1323 -.13229)">
		<path id="XMLID_83_" class="st1" d="M-147.4,275h5c1.9,0,3.1,0.7,3.1,2.7c0,1.4-1,2.6-2.4,2.8v0c0.9,0.3,1.1,1,1.1,1.8
			c0,0.5-0.1,1.2-0.1,1.8c0,0.5,0,0.9,0.1,1.2h-2.3c0-0.3-0.1-0.5-0.1-0.7c0-0.7,0.1-1.4,0.1-2.1c0-1-0.6-1.3-1.5-1.3h-2.2l-0.9,4.1
			h-2.3L-147.4,275z M-146.1,279.7h2.1c1.2,0,2.4-0.5,2.4-1.7c0-1.1-0.8-1.3-1.7-1.3h-2.2L-146.1,279.7z"/>
		<path id="XMLID_82_" class="st1" d="M-139,285.5l2.2-10.5h8l-0.4,1.9h-5.7l-0.5,2.3h5.3l-0.4,1.8h-5.3l-0.5,2.6h5.8l-0.4,1.9H-139
			z"/>
		<path id="XMLID_80_" class="st1" d="M-121.3,284.4c-0.7,0.9-1.7,1.3-2.6,1.3c-2.9,0-4.7-1.7-4.7-4.6c0-3.4,2.2-6.3,5.7-6.3
			c2.4,0,4.4,1.2,4.4,3.7h-2.3c0-1.3-0.9-1.8-2.1-1.8c-2.3,0-3.4,2.4-3.4,4.4c0,1.5,0.7,2.7,2.4,2.7c1.8,0,2.5-0.9,2.9-2.3h-2.4
			l0.4-1.7h4.4l-1.2,5.6h-1.5L-121.3,284.4z"/>
		<path id="XMLID_79_" class="st1" d="M-118.1,285.5l2.2-10.5h8l-0.4,1.9h-5.7l-0.5,2.3h5.3l-0.4,1.8h-5.3l-0.6,2.6h5.8l-0.4,1.9
			H-118.1z"/>
		<path id="XMLID_77_" class="st1" d="M-108.4,285.5l2.2-10.5h2.4l2.8,7.4h0l1.5-7.4h2.1l-2.2,10.5h-2.3l-2.9-7.3h0l-1.5,7.3H-108.4
			z"/>
		<path id="XMLID_73_" class="st1" d="M-97.5,285.5l2.2-10.5h8l-0.4,1.9h-5.7l-0.5,2.3h5.3L-89,281h-5.3l-0.6,2.6h5.8l-0.4,1.9
			H-97.5z"/>
		<path id="XMLID_65_" class="st1" d="M-85.5,275h5c1.9,0,3.1,0.7,3.1,2.7c0,1.4-1,2.6-2.4,2.8v0c0.9,0.3,1.1,1,1.1,1.8
			c0,0.5-0.1,1.2-0.1,1.8c0,0.5,0,0.9,0.1,1.2h-2.3c0-0.3-0.1-0.5-0.1-0.7c0-0.7,0.1-1.4,0.1-2.1c0-1-0.6-1.3-1.5-1.3h-2.2l-0.9,4.1
			h-2.3L-85.5,275z M-84.2,279.7h2.1c1.2,0,2.4-0.5,2.4-1.7c0-1.1-0.8-1.3-1.7-1.3h-2.2L-84.2,279.7z"/>
		<path id="XMLID_55_" class="st1" d="M-70.8,274.7c2.8,0,4.7,1.5,4.7,4.5c0,3.5-2.1,6.5-5.7,6.5c-2.9,0-4.7-1.7-4.7-4.6
			C-76.5,277.7-74.3,274.7-70.8,274.7 M-71.8,283.8c2.3,0,3.4-2.4,3.4-4.4c0-1.5-0.6-2.7-2.3-2.7c-2.3,0-3.4,2.4-3.4,4.4
			C-74.2,282.5-73.5,283.8-71.8,283.8"/>
		<path id="XMLID_46_" class="st1" d="M-63.5,275h2.4l2.9,7.4l1.5-7.4h2.1l-2.2,10.5h-2.3l-2.9-7.3h0l-1.5,7.3h-2.1L-63.5,275z"/>
	</g>
</g>
</svg>
