<?xml version="1.0" encoding="utf-8"?>
<!-- Generator: Adobe Illustrator 26.0.1, SVG Export Plug-In . SVG Version: 6.00 Build 0)  -->
<svg version="1.1" id="Layer_1" xmlns="http://www.w3.org/2000/svg" xmlns:xlink="http://www.w3.org/1999/xlink" x="0px" y="0px"
	 viewBox="0 0 95 35" style="enable-background:new 0 0 95 35;" xml:space="preserve">
<style type="text/css">
	.st0{fill:#FFFFFF;}
</style>
<g id="rtx_logo">
	<path id="Fill-1" class="st0" d="M42.8,14.4l-2.4-5.5h2.2l1.2,3.1l1.1-3.1h2.2l-3.6,8.4h-2.1L42.8,14.4z M10.9,11.9
		c0.2,0,0.4,0.1,0.6,0.1l1.1-6.3c-0.2,0-0.4-0.1-0.6-0.1L10.9,11.9z M7.6,13L2.8,8.9C2.6,9.1,2.4,9.4,2.2,9.7L7,13.8
		C7.2,13.5,7.4,13.2,7.6,13L7.6,13z M16.1,7.1c-0.2-0.1-0.3-0.2-0.5-0.3l-3.2,5.5c0.2,0.1,0.4,0.2,0.5,0.3L16.1,7.1z M18.4,9.1
		l-4.8,4.1c0.1,0.1,0.2,0.3,0.3,0.4l4.8-4.1C18.7,9.4,18.6,9.2,18.4,9.1L18.4,9.1z M6.4,15.2c0.1-0.4,0.2-0.7,0.4-1.1l-5.9-2.2
		c-0.1,0.4-0.3,0.7-0.4,1.1L6.4,15.2z M14.8,16.1c0,2.4-1.9,4.3-4.3,4.3c-2.1,0-3.9-1.5-4.2-3.6L0.4,19c0.1,0.5,0.3,0.9,0.5,1.4
		l5.9-2.2L2,22.3c0.3,0.4,0.6,0.8,1,1.2l4.5-3.8l-2.9,5.2c0.5,0.3,1,0.6,1.5,0.9l2.7-4.8l-1,5.5c0.6,0.2,1.2,0.3,1.8,0.3l0.9-5.1
		l0.9,5.1c0.7-0.1,1.3-0.2,1.9-0.3l-0.8-4.8l2.4,4.2c0.7-0.3,1.3-0.7,1.9-1.1l-2.2-3.9l3.4,2.9c0.5-0.5,1-1.1,1.4-1.8l-3-2.6
		l3.7,1.4c0.3-0.7,0.6-1.5,0.8-2.3l-3.2-1.2l3.4,0c0-0.4,0.1-0.8,0.1-1.2c0-0.5,0-0.9-0.1-1.4h-6.4C14.7,15.2,14.8,15.6,14.8,16.1
		L14.8,16.1z M6.3,16.1c0-0.2,0-0.5,0.1-0.7H0c0,0.2,0,0.4,0,0.7c0,0.2,0,0.4,0,0.6h6.3C6.3,16.5,6.3,16.3,6.3,16.1L6.3,16.1z
		 M8,12.6c0.2-0.2,0.5-0.3,0.7-0.4L5.6,6.7C5.4,6.8,5.1,7,4.9,7.1L8,12.6z M8.3,5.7c0.2,0,0.5-0.1,0.7-0.1l1.1,6.3
		c-0.2,0-0.5,0.1-0.7,0.1L8.3,5.7z M65.1,26.5h1v-8.4h-1V26.5z M82.9,18.4c0.1,0.1,0.2,0.3,0.2,0.5c0,0.2-0.1,0.4-0.2,0.5
		c-0.1,0.1-0.3,0.2-0.5,0.2c-0.2,0-0.4-0.1-0.5-0.2c-0.1-0.1-0.2-0.3-0.2-0.5c0-0.2,0.1-0.4,0.2-0.5c0.1-0.1,0.3-0.2,0.5-0.2
		C82.6,18.2,82.8,18.3,82.9,18.4L82.9,18.4z M56.9,14.7v-3.2c0-0.7-0.3-1-0.8-1c-0.3,0-0.5,0.1-0.7,0.3c-0.1,0.2-0.2,0.5-0.2,0.8
		v3.1h-2V6h2v3.4C55.5,9.2,55.7,9,56,8.8c0.3-0.1,0.6-0.2,1-0.2c0.7,0,1.2,0.2,1.5,0.6c0.3,0.4,0.5,1,0.5,1.9v3.6H56.9z M62.6,24.6
		c-0.1,0.3-0.2,0.5-0.4,0.7c-0.2,0.2-0.4,0.3-0.6,0.4c-0.2,0.1-0.5,0.2-0.8,0.2c-0.3,0-0.6-0.1-0.8-0.2c-0.2-0.1-0.4-0.2-0.6-0.4
		c-0.2-0.2-0.3-0.4-0.4-0.7c-0.1-0.3-0.1-0.6-0.1-0.9c0-0.3,0-0.6,0.1-0.9c0.1-0.3,0.2-0.5,0.4-0.7c0.2-0.2,0.4-0.3,0.6-0.4
		c0.2-0.1,0.5-0.2,0.8-0.2c0.3,0,0.6,0.1,0.8,0.2c0.2,0.1,0.4,0.2,0.6,0.4c0.2,0.2,0.3,0.4,0.4,0.7c0.1,0.3,0.1,0.6,0.1,0.9
		C62.7,24.1,62.7,24.4,62.6,24.6L62.6,24.6z M62.9,21.6c-0.3-0.3-0.6-0.5-0.9-0.6c-0.4-0.2-0.7-0.2-1.2-0.2c-0.4,0-0.8,0.1-1.2,0.2
		c-0.4,0.2-0.7,0.4-0.9,0.6c-0.3,0.3-0.5,0.6-0.6,0.9c-0.1,0.4-0.2,0.8-0.2,1.2c0,0.4,0.1,0.8,0.2,1.2c0.1,0.4,0.4,0.7,0.6,0.9
		c0.3,0.3,0.6,0.5,0.9,0.6c0.4,0.2,0.7,0.2,1.2,0.2c0.4,0,0.8-0.1,1.2-0.2c0.4-0.2,0.7-0.4,0.9-0.6c0.3-0.3,0.5-0.6,0.6-0.9
		c0.1-0.4,0.2-0.8,0.2-1.2c0-0.4-0.1-0.8-0.2-1.2C63.3,22.2,63.1,21.9,62.9,21.6L62.9,21.6z M82,26.5h1v-5.6h-1V26.5z M79,9.3
		c0.3,0.4,0.5,1,0.5,1.9v3.6h-2v-3.2c0-0.7-0.3-1-0.8-1c-0.3,0-0.5,0.1-0.7,0.3c-0.1,0.2-0.2,0.5-0.2,0.8v3.1h-2V8.8h2l0,0.7
		c0.2-0.3,0.4-0.5,0.7-0.7c0.3-0.2,0.6-0.2,1-0.2C78.1,8.6,78.6,8.8,79,9.3L79,9.3z M61.6,11.2c0.2-0.8,0.6-1.2,1.3-1.2
		c0.3,0,0.6,0.1,0.8,0.3c0.2,0.2,0.3,0.5,0.4,0.9H61.6z M65.8,11.6c0-0.5-0.1-0.9-0.2-1.2C65.4,10,65.2,9.7,65,9.4
		c-0.2-0.3-0.6-0.4-0.9-0.6c-0.4-0.1-0.8-0.2-1.2-0.2c-0.5,0-0.9,0.1-1.2,0.2c-0.4,0.2-0.7,0.4-1,0.6c-0.3,0.3-0.5,0.6-0.6,1
		c-0.1,0.4-0.2,0.8-0.2,1.3c0,0.5,0.1,0.9,0.2,1.3c0.2,0.4,0.4,0.7,0.7,1c0.3,0.3,0.7,0.5,1.1,0.6c0.4,0.1,0.9,0.2,1.5,0.2
		c0.5,0,0.9-0.1,1.3-0.2c0.4-0.1,0.8-0.3,1.1-0.5L65.1,13c-0.2,0.1-0.5,0.2-0.8,0.2c-0.3,0.1-0.5,0.1-0.8,0.1c-0.9,0-1.7-0.3-2-1
		h4.1C65.7,12.1,65.8,11.9,65.8,11.6L65.8,11.6z M70.6,12.8c-0.2,0.3-0.5,0.4-0.9,0.4S69,13,68.8,12.8c-0.2-0.3-0.4-0.6-0.4-1
		c0-0.4,0.1-0.8,0.4-1c0.2-0.3,0.5-0.4,0.9-0.4s0.7,0.1,0.9,0.4c0.2,0.3,0.4,0.6,0.4,1C71,12.2,70.8,12.5,70.6,12.8L70.6,12.8z
		 M72,9.5c-0.3-0.3-0.6-0.5-1-0.7c-0.4-0.2-0.8-0.2-1.3-0.2c-0.5,0-0.9,0.1-1.3,0.2c-0.4,0.2-0.7,0.4-1,0.7c-0.3,0.3-0.5,0.6-0.7,1
		c-0.2,0.4-0.2,0.8-0.2,1.2s0.1,0.9,0.2,1.2c0.2,0.4,0.4,0.7,0.7,1c0.3,0.3,0.6,0.5,1,0.7c0.4,0.2,0.8,0.2,1.3,0.2
		c0.5,0,0.9-0.1,1.3-0.2c0.4-0.2,0.7-0.4,1-0.7c0.3-0.3,0.5-0.6,0.7-1c0.2-0.4,0.2-0.8,0.2-1.2s-0.1-0.9-0.2-1.2
		C72.5,10.1,72.3,9.8,72,9.5L72,9.5z M55.9,21.4c0.3,0.4,0.5,1,0.5,1.8v3.3h-1v-3.2c0-0.6-0.1-1.1-0.3-1.3c-0.2-0.3-0.5-0.4-1-0.4
		c-0.5,0-0.9,0.2-1.2,0.5c-0.3,0.3-0.4,0.8-0.4,1.4v3h-1v-5.6h0.9l0,1c0.1-0.3,0.3-0.6,0.6-0.8c0.3-0.3,0.8-0.4,1.3-0.4
		C55.1,20.8,55.6,21,55.9,21.4L55.9,21.4z M72.2,24.6c-0.1,0.3-0.2,0.5-0.4,0.7c-0.2,0.2-0.4,0.3-0.6,0.4c-0.2,0.1-0.5,0.2-0.8,0.2
		c-0.3,0-0.6-0.1-0.8-0.2c-0.2-0.1-0.4-0.2-0.6-0.4c-0.2-0.2-0.3-0.4-0.4-0.7c-0.1-0.3-0.1-0.6-0.1-0.9c0-0.3,0-0.6,0.1-0.9
		c0.1-0.3,0.2-0.5,0.4-0.7c0.2-0.2,0.4-0.3,0.6-0.4c0.2-0.1,0.5-0.2,0.8-0.2c0.3,0,0.6,0.1,0.8,0.2c0.2,0.1,0.4,0.2,0.6,0.4
		c0.2,0.2,0.3,0.4,0.4,0.7c0.1,0.3,0.1,0.6,0.1,0.9C72.3,24.1,72.3,24.4,72.2,24.6L72.2,24.6z M72.5,21.6c-0.3-0.3-0.6-0.5-0.9-0.6
		c-0.4-0.2-0.7-0.2-1.2-0.2c-0.4,0-0.8,0.1-1.2,0.2c-0.4,0.2-0.7,0.4-0.9,0.6c-0.3,0.3-0.5,0.6-0.6,0.9c-0.1,0.4-0.2,0.8-0.2,1.2
		c0,0.4,0.1,0.8,0.2,1.2c0.1,0.4,0.4,0.7,0.6,0.9c0.3,0.3,0.6,0.5,0.9,0.6c0.4,0.2,0.7,0.2,1.2,0.2c0.4,0,0.8-0.1,1.2-0.2
		c0.4-0.2,0.7-0.4,0.9-0.6c0.3-0.3,0.5-0.6,0.6-0.9c0.1-0.4,0.2-0.8,0.2-1.2c0-0.4-0.1-0.8-0.2-1.2C72.9,22.2,72.7,21.9,72.5,21.6
		L72.5,21.6z M37.6,12.7c-0.2,0.2-0.5,0.4-0.8,0.4c-0.3,0-0.6-0.1-0.9-0.4c-0.2-0.2-0.3-0.6-0.3-0.9s0.1-0.7,0.3-0.9
		c0.2-0.2,0.5-0.4,0.9-0.4c0.3,0,0.6,0.1,0.8,0.4c0.2,0.2,0.3,0.6,0.3,0.9S37.8,12.5,37.6,12.7L37.6,12.7z M39.8,8.8h-1.9l0,0.7
		c-0.2-0.3-0.4-0.5-0.7-0.6c-0.3-0.2-0.6-0.2-1-0.2c-0.4,0-0.7,0.1-1.1,0.2c-0.3,0.2-0.6,0.4-0.9,0.7c-0.2,0.3-0.4,0.6-0.6,1
		c-0.1,0.4-0.2,0.8-0.2,1.2c0,0.5,0.1,0.9,0.2,1.3c0.1,0.4,0.3,0.7,0.5,1c0.2,0.3,0.5,0.5,0.8,0.6c0.3,0.2,0.7,0.2,1.1,0.2
		c0.4,0,0.7-0.1,1-0.2c0.3-0.1,0.5-0.4,0.7-0.6l0,0.7h1.9V8.8z M95,25c0,0.5-0.2,0.9-0.6,1.2c-0.4,0.3-1,0.5-1.7,0.5
		c-0.4,0-0.7-0.1-1.1-0.2c-0.4-0.1-0.6-0.2-0.8-0.4l0.4-0.7c0.5,0.3,1,0.4,1.5,0.4c0.4,0,0.7-0.1,1-0.2c0.2-0.1,0.3-0.3,0.3-0.6
		c0-0.1,0-0.2-0.1-0.3c0-0.1-0.1-0.2-0.2-0.2c-0.1-0.1-0.2-0.1-0.4-0.2c-0.2-0.1-0.4-0.1-0.7-0.2c-0.6-0.2-1-0.4-1.3-0.7
		c-0.3-0.3-0.4-0.6-0.4-1c0-0.5,0.2-0.9,0.6-1.2c0.4-0.3,0.9-0.4,1.5-0.4c0.3,0,0.6,0,0.9,0.1c0.3,0.1,0.6,0.2,0.8,0.3l-0.4,0.7
		c-0.5-0.2-0.9-0.4-1.4-0.4c-0.8,0-1.1,0.2-1.1,0.7c0,0.2,0.1,0.4,0.3,0.6c0.2,0.1,0.5,0.3,0.9,0.4c0.4,0.1,0.7,0.2,0.9,0.3
		c0.2,0.1,0.4,0.2,0.6,0.4c0.2,0.1,0.3,0.3,0.3,0.5C95,24.6,95,24.8,95,25L95,25z M32.8,19h-2.9v7.5h-1V19h-2.9v-0.9h6.9V19z
		 M28.3,7.8H29c1,0,1.5,0.4,1.5,1.2c0,0.8-0.5,1.2-1.5,1.2h-0.6V7.8z M29.5,11.9l1.5,2.8h2.5l-2.1-3.4c0.4-0.2,0.7-0.6,1-1
		c0.2-0.4,0.3-0.8,0.3-1.3c0-0.5-0.1-0.9-0.2-1.2c-0.2-0.4-0.4-0.7-0.7-0.9c-0.3-0.3-0.6-0.4-1.1-0.6C30.3,6.1,29.8,6,29.3,6h-3.1
		v8.6h2.2v-2.8H29L29.5,11.9z M34.9,21.6c0.3,0,0.6,0.1,0.8,0.2c0.2,0.1,0.4,0.3,0.5,0.4c0.1,0.2,0.2,0.4,0.3,0.6
		c0,0.2,0.1,0.4,0.1,0.5h-3.4c0.1-0.5,0.2-0.9,0.5-1.2C33.9,21.8,34.4,21.6,34.9,21.6L34.9,21.6z M36.8,21.5
		c-0.2-0.2-0.5-0.4-0.8-0.6c-0.3-0.1-0.6-0.2-1-0.2c-0.4,0-0.8,0.1-1.1,0.2c-0.3,0.1-0.6,0.4-0.9,0.6c-0.2,0.3-0.4,0.6-0.6,1
		c-0.1,0.4-0.2,0.8-0.2,1.2c0,0.9,0.3,1.6,0.8,2.1c0.5,0.5,1.3,0.8,2.3,0.8c0.4,0,0.8,0,1.2-0.1c0.4-0.1,0.7-0.2,0.9-0.4L37,25.5
		c-0.6,0.2-1.1,0.4-1.7,0.4c-0.7,0-1.3-0.2-1.6-0.5c-0.3-0.3-0.5-0.7-0.5-1.2h4.3c0-0.1,0-0.1,0-0.2c0-0.1,0-0.2,0-0.3
		c0-0.4-0.1-0.8-0.2-1.1C37.2,22.1,37,21.8,36.8,21.5L36.8,21.5z M87,21.6c1,0,1.5,0.5,1.6,1.5c0,0.1,0,0.1,0,0.2c0,0,0,0,0,0h-3.4
		c0.1-0.4,0.2-0.8,0.4-1.1C86.1,21.8,86.5,21.6,87,21.6L87,21.6z M88.9,21.5c-0.2-0.2-0.5-0.4-0.8-0.6c-0.3-0.1-0.7-0.2-1-0.2
		c-0.4,0-0.8,0.1-1.1,0.2c-0.3,0.1-0.6,0.4-0.9,0.6c-0.2,0.3-0.4,0.6-0.6,1c-0.1,0.4-0.2,0.8-0.2,1.2c0,0.9,0.3,1.7,0.8,2.2
		c0.5,0.5,1.3,0.8,2.2,0.8c0.4,0,0.8,0,1.2-0.1c0.4-0.1,0.7-0.2,1-0.4l-0.3-0.7c-0.6,0.3-1.2,0.4-1.8,0.4c-1.3,0-2-0.6-2.1-1.8h4.3
		c0-0.1,0-0.1,0-0.2c0-0.1,0-0.2,0-0.3c0-0.4-0.1-0.8-0.2-1.1C89.3,22,89.2,21.8,88.9,21.5L88.9,21.5z M43.2,25.6l0.4,0.7
		c-0.2,0.1-0.5,0.2-0.8,0.3c-0.3,0.1-0.6,0.1-0.9,0.1c-0.5,0-0.9-0.1-1.3-0.2c-0.4-0.1-0.7-0.3-1-0.6c-0.3-0.3-0.5-0.6-0.6-0.9
		c-0.1-0.4-0.2-0.8-0.2-1.2c0-0.4,0.1-0.9,0.2-1.2c0.1-0.4,0.4-0.7,0.6-1c0.3-0.3,0.6-0.5,1-0.6c0.4-0.1,0.8-0.2,1.2-0.2
		c0.6,0,1.2,0.2,1.7,0.5l-0.4,0.7c-0.2-0.1-0.4-0.2-0.6-0.2c-0.2,0-0.4-0.1-0.7-0.1c-0.6,0-1.1,0.2-1.5,0.6
		c-0.4,0.4-0.6,0.9-0.6,1.5c0,0.7,0.2,1.2,0.6,1.6c0.4,0.4,0.9,0.6,1.6,0.6C42.3,25.9,42.8,25.8,43.2,25.6L43.2,25.6z M49.3,21.4
		c0.4,0.4,0.5,1,0.5,1.8v3.3h-1v-3.2c0-0.6-0.1-1.1-0.3-1.3c-0.2-0.3-0.5-0.4-1-0.4c-0.5,0-0.9,0.2-1.2,0.5
		c-0.3,0.3-0.4,0.8-0.4,1.4v3h-1v-8.4h1v3.7c0.1-0.3,0.3-0.5,0.6-0.7c0.3-0.2,0.7-0.4,1.2-0.4C48.4,20.8,48.9,21,49.3,21.4
		L49.3,21.4z M51.7,14.8c-0.3,0.1-0.6,0.1-0.9,0.1c-1.5,0-2.2-0.8-2.2-2.3v-2.1h-1V8.8h1V7.3h2v1.5h1.9L52,10.5h-1.4v1.7
		c0,0.4,0.1,0.6,0.2,0.7c0.1,0.1,0.3,0.2,0.6,0.2c0.3,0,0.6-0.1,0.9-0.2l0.2,1.6C52.2,14.7,52,14.7,51.7,14.8L51.7,14.8z M78.7,25.3
		c-0.2,0.2-0.4,0.3-0.6,0.4c-0.2,0.1-0.5,0.2-0.8,0.2c-0.6,0-1.1-0.2-1.4-0.6c-0.3-0.4-0.5-0.9-0.5-1.5c0-0.3,0-0.6,0.1-0.9
		c0.1-0.3,0.2-0.5,0.4-0.7c0.2-0.2,0.4-0.3,0.6-0.4c0.2-0.1,0.5-0.2,0.8-0.2c0.3,0,0.5,0.1,0.8,0.2c0.2,0.1,0.4,0.2,0.6,0.4
		c0.2,0.2,0.3,0.4,0.4,0.7c0.1,0.3,0.1,0.6,0.1,0.9c0,0.3,0,0.6-0.1,0.8C79,24.9,78.9,25.1,78.7,25.3L78.7,25.3z M79.2,21.9
		c-0.2-0.3-0.4-0.6-0.7-0.8c-0.4-0.3-0.8-0.4-1.3-0.4c-0.4,0-0.8,0.1-1.1,0.2c-0.3,0.2-0.6,0.4-0.9,0.6c-0.2,0.3-0.4,0.6-0.6,1
		c-0.1,0.4-0.2,0.8-0.2,1.2c0,0.4,0.1,0.8,0.2,1.2c0.1,0.4,0.3,0.7,0.5,0.9c0.2,0.3,0.5,0.5,0.8,0.6c0.3,0.1,0.7,0.2,1.1,0.2
		c0.5,0,1-0.1,1.4-0.4c0.3-0.2,0.5-0.5,0.7-0.8v0.7c0,0.8-0.2,1.4-0.5,1.8c-0.3,0.4-0.9,0.6-1.6,0.6c-0.8,0-1.5-0.1-1.9-0.4L75,28.9
		c0.1,0.1,0.2,0.1,0.4,0.2c0.2,0.1,0.3,0.1,0.5,0.2c0.2,0,0.4,0.1,0.6,0.1c0.2,0,0.4,0,0.6,0c2,0,3-1.1,3-3.3v-5.2h-0.9L79.2,21.9z"
		/>
</g>
</svg>
