<?xml version="1.0" encoding="utf-8"?>
<!-- Generator: Adobe Illustrator 26.0.1, SVG Export Plug-In . SVG Version: 6.00 Build 0)  -->
<svg version="1.1" id="Layer_1" xmlns="http://www.w3.org/2000/svg" xmlns:xlink="http://www.w3.org/1999/xlink" x="0px" y="0px"
	 viewBox="0 0 95 35" style="enable-background:new 0 0 95 35;" xml:space="preserve">
<style type="text/css">
	.st0{fill:#CCCCCC;}
</style>
<g>
	<path class="st0" d="M47.5,0C37.8,0,30,7.8,30,17.5C30,27.2,37.8,35,47.5,35C57.2,35,65,27.2,65,17.5C65,7.8,57.2,0,47.5,0z
		 M47.5,34.5c-9.4,0-17-7.6-17-17c0-9.4,7.6-17,17-17c9.4,0,17,7.6,17,17C64.5,26.9,56.9,34.5,47.5,34.5z"/>
	<g>
		<path class="st0" d="M48,3.6c0.1-0.1,0.1-0.3,0-0.4c-0.2-0.2-0.6-0.1-0.8-0.1c0,0.2,0.1,0.5,0.1,0.7C47.4,3.8,47.8,3.8,48,3.6z"/>
		<path class="st0" d="M43.2,4.7c0.2-0.1,0.1-0.4,0.1-0.6c-0.3-0.5-0.8-0.1-1.2,0.1c0.1,0.3,0.2,0.5,0.4,0.8L43.2,4.7z"/>
		<path class="st0" d="M47.2,4.6c0,0.2,0,0.6,0,0.8c0.2,0,0.4,0,0.6,0c0.2,0,0.4-0.3,0.3-0.6C48,4.4,47.5,4.6,47.2,4.6z"/>
		<path class="st0" d="M39.3,7.4c-0.4-0.2-0.7-0.5-1.2-0.7c0.2,0.4,0.3,0.8,0.5,1.2C38.9,7.7,39.1,7.6,39.3,7.4z"/>
		<path class="st0" d="M41.7,28.1c-0.3-0.1-0.7,0-0.9,0.2c-0.4,0.4-0.7,0.9-0.5,1.5c0.1,0.2,0.3,0.4,0.5,0.5c0.3,0.1,0.7,0,0.9-0.2
			c0.4-0.4,0.7-1,0.4-1.5C42,28.3,41.8,28.1,41.7,28.1z"/>
		<path class="st0" d="M47.5,1.1c-9.1,0-16.4,7.4-16.4,16.4c0,9.1,7.4,16.4,16.4,16.4c9.1,0,16.4-7.4,16.4-16.4
			C63.9,8.4,56.6,1.1,47.5,1.1z M59.2,7.7l0.8,1c-0.3,0.3-0.8,0.6-1.1,0.9c0.6,0.1,1.2,0.1,1.7,0.2c0.3,0.4,0.4,0.7,0.6,1.2
			l-2.1-0.1c-0.5,0.7-0.9,1.5-1.3,2.2c-0.2-0.4-0.4-0.8-0.7-1.2c0.3-0.5,0.6-1.1,0.9-1.7c-0.5,0.3-0.9,0.7-1.3,1l-0.7-1
			C56.9,9.3,58,8.5,59.2,7.7L59.2,7.7z M57.8,6.2c0.2,0.3,0.4,0.7,0.5,1c-0.3,0.2-0.5,0.3-0.8,0.5c-0.1-0.4-0.3-0.9-0.7-1.1
			c-0.2-0.1-0.5-0.1-0.7-0.1c-0.4,0.1-0.7,0.4-0.8,0.8c-0.1,0.3,0,0.7,0.2,1c0.3,0.3,0.6,0.5,1.1,0.5c-0.2,0.3-0.3,0.5-0.5,0.7
			c-0.7-0.1-1.4-0.5-1.7-1.1c-0.3-0.5-0.4-1.4-0.1-2c0.3-0.6,0.9-1,1.6-1.1C56.6,5.3,57.3,5.6,57.8,6.2z M50.8,2.6L52.1,3
			c-0.3,0.8-0.7,1.7-0.9,2.6c0,0.2,0.1,0.4,0.4,0.5c0.2,0.1,0.4,0.1,0.6,0c0.6-0.8,0.8-1.8,1.2-2.7c0.4,0.2,0.8,0.4,1.2,0.5
			c-0.5,1-0.7,2.1-1.4,2.9c-0.5,0.4-1.2,0.3-1.7,0.2c-0.6-0.2-1.3-0.6-1.5-1.3C49.8,5.3,50.5,3.6,50.8,2.6z M49.1,2.5
			c0.3,0.2,0.4,0.6,0.3,0.9C49.3,3.7,49.2,4,49,4.1c0.3,0.2,0.6,0.4,0.6,0.8c0.1,0.4,0,0.7-0.2,1c-0.4,0.5-1.1,0.4-1.7,0.4l-1.7,0
			l0-0.2l-0.2-3.8l0-0.1C46.8,2.3,48.1,2,49.1,2.5z M44.4,3.3c0.3,0.3,0.3,0.7,0.3,1c-0.1,0.2-0.1,0.5-0.3,0.7
			c0.3,0.4,1,0.9,1.4,1.3l-0.1,0l-1.3,0.3C44,6.3,43.7,6,43.3,5.7c-0.2,0-0.3,0.1-0.4,0.2l0.4,1l-1.2,0.7C41.6,6.4,41,5,40.6,3.8
			C41.7,3.4,43.4,2.3,44.4,3.3z M38.3,5.3l0.1,0.1C39.6,6.1,40.8,7,42,7.6l-0.1,0.1L41,8.3c-0.4-0.2-0.6-0.3-0.8-0.4l-1,0.9
			c0.1,0.3,0.2,0.6,0.4,0.9l-0.9,1l-0.1-0.2l-1.6-3.9L38.3,5.3z M35.6,7.9l0.9,0.5c-0.2,0.4-0.4,0.7-0.6,1l2.4,1.6
			c-0.1,0.4-0.4,0.7-0.6,1.1l-2.5-1.6c-0.2,0.3-0.4,0.6-0.6,1c-0.3-0.2-0.6-0.4-0.8-0.5C34.3,10,34.9,9,35.6,7.9z M32.9,12.6
			c0.2-0.3,0.3-0.6,0.6-0.8c0.2,0.1,0.5,0.3,0.7,0.5c-0.4,0.3-0.8,0.8-0.7,1.4c0,0.1,0.1,0.2,0.2,0.2c0.4,0,0.5-0.4,0.6-0.6
			c0.2-0.4,0.6-0.9,1.1-0.9c0.4,0,0.8,0.1,1.1,0.4c0.4,0.5,0.4,1.4,0.1,2c-0.2,0.4-0.5,0.9-0.9,1.2L35,15.5c0.4-0.3,0.9-0.8,0.9-1.3
			c0-0.2,0-0.4-0.3-0.5c-0.5,0.1-0.5,0.7-0.9,1.1c-0.3,0.3-0.6,0.5-1,0.4c-0.4,0-0.7-0.3-0.9-0.6C32.4,14,32.6,13.1,32.9,12.6z
			 M35.5,22.3l-1-0.7c-0.4,0.2-0.7,0.4-1.1,0.6l0.3-1.2c-0.3-0.3-0.7-0.5-1-0.8c0.4,0,0.8,0,1.3,0c0.2-0.4,0.3-0.8,0.5-1.2l0.4,1.1
			c0.4,0,0.8,0,1.3,0l-1,0.8C35.3,21.4,35.4,21.8,35.5,22.3z M38.2,28.9c-0.9,0-1.7-0.5-2-1.4c-0.3-0.7-0.2-1.6,0.3-2.1
			c0.5-0.7,1.4-0.9,2.2-0.7c0.5,0.1,1.1,0.6,1.4,1.1c0.1,0.2,0.2,0.4,0.3,0.7c-0.2,0.1-0.5,0.3-0.8,0.4c-0.1-0.5-0.5-0.9-0.9-1
			c-0.4-0.1-0.8,0.1-1.1,0.4c-0.2,0.3-0.3,0.7-0.2,1c0.2,0.5,0.7,0.8,1.2,0.8l0.1,0C38.4,28.5,38.4,28.7,38.2,28.9z M41.7,31.2
			c-0.8,0.1-1.5-0.1-2-0.7c-0.5-0.5-0.8-1.3-0.5-2.1c0.2-0.8,1-1.4,1.8-1.5c0.8,0,1.6,0.3,2.1,1c0.4,0.6,0.4,1.4,0.2,2
			C42.9,30.7,42.3,31.1,41.7,31.2z M47,29.8c-0.6-0.1-1.2-0.2-1.7-0.3c0,0.3-0.1,0.5-0.1,0.7c0.5,0.2,1,0.2,1.5,0.3l-0.1,0.9
			c-0.5-0.1-1-0.1-1.5-0.3c-0.1,0.4-0.2,0.9-0.4,1.3c-0.4-0.1-0.9-0.2-1.3-0.3l0.9-3.8l0-0.1c0.9,0.2,1.9,0.4,2.8,0.5
			C47,29.1,47,29.5,47,29.8z M47.5,27.5c-5.6,0-10.1-4.5-10.1-10.1c0-5.6,4.5-10.1,10.1-10.1c5.6,0,10.1,4.5,10.1,10.1
			C57.6,23,53,27.5,47.5,27.5z M48.9,30.3c0.5,0,1-0.1,1.5-0.2l0.1,0.9c-0.5,0.1-1,0.2-1.5,0.2c0,0.4,0.1,0.9,0.1,1.4
			c-0.4,0.1-0.9,0.1-1.3,0.1l-0.3-3.9l0-0.1c1-0.1,1.9-0.2,2.9-0.4c0,0.3,0.1,0.6,0.2,1c-0.6,0.1-1.2,0.2-1.7,0.2
			C48.9,29.9,48.9,30.1,48.9,30.3z M52.4,31.9l-1.4-3.7c0.9-0.4,1.7-0.8,2.5-1.2c0.2,0.2,0.3,0.4,0.4,0.6l0,0.1l-1.6,0.8l0.3,0.6
			c0.5-0.2,0.9-0.4,1.4-0.6c0.1,0.2,0.2,0.4,0.4,0.7c-0.4,0.2-0.9,0.4-1.3,0.6c0.1,0.2,0.1,0.4,0.3,0.7l1.6-0.7l0.4,0.8
			C54.3,31.1,53.3,31.6,52.4,31.9z M56.3,29.9l-2.4-3.1c0.8-0.6,1.4-1.2,2.1-1.9c0.2,0.1,0.4,0.3,0.6,0.5l0.1,0.1l-1.3,1.2l0.4,0.5
			c0.4-0.3,0.8-0.6,1.1-0.9c0.2,0.2,0.4,0.4,0.5,0.6c-0.4,0.4-0.8,0.6-1.1,1c0.1,0.2,0.3,0.4,0.5,0.6l1.4-1.1l0.6,0.6
			C58,28.5,57.1,29.3,56.3,29.9z M61.4,22.3l-1-0.7c-0.4,0.2-0.7,0.4-1.1,0.6l0.3-1.2c-0.3-0.3-0.7-0.5-1-0.8c0.4,0,0.8,0,1.3,0
			c0.2-0.4,0.3-0.8,0.5-1.2l0.4,1.1c0.4,0,0.8,0,1.3,0l-1,0.8C61.2,21.4,61.3,21.8,61.4,22.3z M61.5,15c0.1-0.5,0.2-1.1-0.1-1.5
			c-0.1-0.1-0.3-0.2-0.4-0.1c-0.4,0.5,0,1.2-0.2,1.7c-0.1,0.2-0.3,0.5-0.6,0.7c-0.4,0.2-1,0.1-1.3-0.3c-0.7-0.7-1-1.8-0.6-2.7h0.8
			c-0.1,0.4-0.2,0.9-0.1,1.3c0.1,0.2,0.2,0.4,0.4,0.5c0.7,0,0.2-1,0.4-1.4c0.1-0.3,0.2-0.7,0.6-0.9c0.6-0.3,1.4,0,1.7,0.6
			c0.4,0.6,0.5,1.4,0.3,2.1L61.5,15z"/>
		<path class="st0" d="M53.8,23.2c0.4,0,0.6,0.2,0.9,0.3c0.2-0.1,0.3-0.3,0.4-0.5l-0.8-0.4C53.8,22.2,53.9,22.9,53.8,23.2
			c-0.8-0.1-1.3-0.6-1.9-1c0.1-0.3,0.3-0.6,0.4-0.9c0.3-1-0.5-1.8-1-2.7c-0.1-0.2-0.2-0.4-0.2-0.6c0-0.6,0.3-1.1,0.4-1.7
			c0.2-0.8-0.2-1.5-0.5-2.1c0.2,0.1,0.4,0.3,0.5,0.5c0.4,0.8,0.5,1.9,0.1,2.7c-0.1,0.2-0.1,0.4-0.1,0.6c0.1,1,1.2,1.7,1.2,2.7
			c0.4,0.3,0.8,0.9,1.4,0.7c0,0.2-0.1,0.4-0.1,0.6c0.5,0,0.9,0.4,1.3,0.5c0.1-0.2,0.3-0.4,0.3-0.6c-0.5-0.1-0.9-0.6-1.4-0.7l0.1-0.5
			c0.6,0,1,0.5,1.6,0.6c0.2-0.1,0.3-0.4,0.3-0.6c-0.7-0.1-1.2-0.7-1.9-0.8c0-0.2,0-0.4,0-0.5c0.6,0,1.1,0.5,1.7,0.7
			c0.6,0.3,0.4-0.4,0.5-0.7c-0.9,0-1.5-0.8-2.3-0.8L54.2,18c0.9-0.2,1.6,0.9,2.6,0.6c0.1-0.2,0.1-0.5,0.1-0.7l0-0.2
			c-1.1,0.4-1.8-0.7-2.9-0.7c-0.1-0.2-0.2-0.3-0.2-0.5c1.2-0.4,2,1.3,3.1,0.4c-0.1-1.4-0.4-2.8-1.1-4c-0.7-1.4-2-2.7-3.3-3.6
			c-2.5-1.8-6.7-1.9-9.3-0.4c-3,1.5-4.8,4.6-5.1,7.9l0.1,0.2c1.1,0.6,1.9-0.7,3-0.6c0.2,0.1-0.1,0.3,0,0.5c-0.1,0.2-0.4,0.1-0.6,0.2
			c-0.8,0.3-1.5,1-2.4,0.6c0,0,0,0.1,0,0.2c0,0.2,0.1,0.7,0.1,0.7c1,0.3,1.6-0.7,2.6-0.6c0,0.2,0,0.4-0.1,0.6
			c-0.9,0-1.4,0.8-2.3,0.8l0.2,0.7c0.8,0.1,1.3-0.7,2-0.6l0,0.5c-0.7,0.1-1.1,0.7-1.8,0.7c0.1,1.6,1.2-0.2,1.9,0.1
			c0,0.2,0.1,0.3,0.1,0.5c-0.6,0-0.9,0.5-1.4,0.6c0.1,0.2,0.1,0.5,0.4,0.6c0.4-0.2,0.7-0.5,1.2-0.5c-0.1-0.2-0.1-0.4-0.1-0.6
			c0.6,0.2,1-0.3,1.4-0.6c0.1-0.9,0.7-1.5,1.1-2.3c0-0.2,0.1-0.3,0.1-0.5c0-0.9-0.6-1.8-0.1-2.8c0.1-0.4,0.4-0.9,0.8-1
			c-0.7,0.9-0.6,2.2-0.2,3.2c0.1,0.2,0.1,0.4,0.1,0.6c0,0.8-0.8,1.4-1,2.1c-0.3,0.7,0,1.5,0.4,2.1c-0.6,0.4-1.1,1-1.8,1
			c-0.2-0.1-0.2-0.4-0.3-0.6c-0.4-0.1-0.8,0.2-1.1,0.4l0.4,0.5c0.3-0.1,0.6-0.4,1-0.2c0.5,0.6-0.5,0.3-0.6,0.7
			c0.1,0.2,0.3,0.3,0.5,0.5c0.2-0.1,0.4-0.2,0.6-0.2c0.1,0.1,0.2,0.2,0.3,0.4l-0.4,0.2c0.3,0.3,0.6,0.6,1,0.7c0.2-0.7,0.7-1.2,1-1.8
			c0-0.2,0.1-0.5,0.1-0.8c0.7,1.1-0.8,1.8-0.8,2.8c0.2,0.1,0.3,0.2,0.5,0.3c0-0.8,0.7-1.4,1-2.1c0.5-1.1-0.7-1.8-1.1-2.7
			c-0.4-0.8,0.1-1.6,0.7-2.2c0.4-0.4,0.4-0.8,0.4-1.1c-0.1-0.9-0.8-1.7-0.5-2.7c0.2-0.6,0.4-1.3,1-1.6c-0.4,0.5-0.7,1.1-0.7,1.8
			c-0.1,0.9,0.6,1.6,0.7,2.4c0,0.2,0,0.3-0.1,0.5c-0.3,0.8-1.1,1.3-1.1,2.2c-0.1,1.2,1.5,1.6,1.3,2.8c0,1.1-1.2,1.6-1,2.8l0.7,0.2
			c-0.4-1.3,1-2,1-3.1c0.1-1-1-1.5-1.2-2.3c-0.3-0.8,0.3-1.5,0.8-2.1c0.2-0.4,0.3-0.7,0.2-1c-0.1-0.8-0.7-1.6-0.7-2.4
			c0-0.8,0.3-1.6,1-2c-0.2,0.3-0.5,0.6-0.6,0.9c-0.4,1.2,0.3,2.2,0.7,3.2c0,0.1,0,0.2,0.1,0.2c0.1,0.9-0.8,1.6-1,2.4
			c-0.2,1.1,0.9,1.5,1.1,2.4c0.5,1.4-1.2,2.3-0.8,3.7c0,0.4,0.5,0.3,0.7,0.3c-0.6-1.2,0.4-2.2,0.7-3.2c0.3-1.1-0.7-1.7-1.1-2.6
			c-0.5-1,0.6-1.5,0.8-2.3c0.2-0.5,0.7,0,1-0.1c0.4,0.1,0.8-0.3,1.2,0c0.2,0.7,1,1.2,1,2c0,1.2-1.8,1.9-1.2,3.2
			c0.5,0.9,1.3,2,0.7,3.1l0.7-0.1c0.4-1.1-0.4-1.9-0.8-2.8c-0.4-1,0.5-1.8,1.1-2.6c0.5-0.9-0.3-1.7-0.8-2.5
			c-0.2-0.3-0.2-0.6-0.2-0.9c0.1-0.6,0.5-1.1,0.7-1.7c0.4-0.9,0.2-2.1-0.6-2.8l0,0c0.4,0.2,0.7,0.6,0.9,1c0.6,1.3-0.3,2.4-0.5,3.5
			l0,0.1c0,0.8,0.7,1.2,1,1.9c0.5,1.1-0.4,1.8-1,2.6c-0.9,1.5,1.2,2.4,0.8,3.9l0.6-0.2c0.2-0.8-0.4-1.5-0.8-2.1
			c-0.5-1.1,0.4-1.9,1-2.8c0.5-1-0.4-1.9-0.9-2.7c-0.2-0.2-0.2-0.5-0.2-0.7c0-0.5,0.3-0.9,0.5-1.3c0.4-1,0.1-2.2-0.5-2.9
			c0.4,0.2,0.8,0.7,0.9,1.1c0.5,1.1-0.1,2.1-0.3,3.1l0,0.1c0,1,0.9,1.5,1.2,2.3c0.2,0.9-0.5,1.5-0.9,2.1c-1.3,1.3,0.7,2.3,0.7,3.6
			c0.2-0.1,0.4-0.1,0.5-0.3c-0.1-0.7-0.7-1.2-1-1.9c0-0.3-0.1-0.7,0.1-0.9l0,0c-0.1,1,0.8,1.7,1.1,2.6c0.3-0.2,0.7-0.4,0.9-0.7
			c-0.1-0.1-0.2-0.2-0.4-0.2c-0.1-0.2,0.1-0.3,0.2-0.4l0.6,0.2c0.2-0.2,0.4-0.3,0.5-0.5c-0.2-0.1-0.4-0.3-0.7-0.3
			C53.6,23.4,53.6,23.3,53.8,23.2z M53.8,14.3c0.1-0.2,0.1-0.5,0.2-0.7c0.2-0.4,0.5-0.8,0.9-1c0.1,0,0.2,0.1,0.1,0.2
			c-0.3,1.5,0.7,2.5,1.4,3.6c-0.8,0.5-1.5-0.3-2.2-0.5c-0.3,0-0.7-0.1-1,0c-0.4-0.7-1-1.3-1.7-1.7c0-0.2,0.4-0.2,0.6-0.3
			C52.8,13.7,53.3,14,53.8,14.3z M42.8,14.5c-0.4,0.4-0.8,0.8-1.1,1.2c-0.9-0.2-1.6,0.3-2.3,0.6c-0.3,0.1-0.7,0.1-0.9-0.1
			c0.7-1.2,1.7-2.2,1.5-3.8c0.1-0.1,0.2,0,0.3,0c0.5,0.4,0.8,1,0.9,1.7c0.7-0.3,1.6-0.7,2.4-0.2C43.3,14.2,43,14.3,42.8,14.5z
			 M45.7,15c0-0.1,0-0.2,0.1-0.2c0.3-0.1,0.7,0,0.9,0.3v0.1c-0.2,0-0.6-0.3-0.9,0C45.7,15.2,45.7,15,45.7,15z M49.3,14.4
			c-0.4-0.1-0.9-0.1-1.3,0.1c-0.4,0.3-0.3,0.8-0.2,1.2l0.1,0.1c0.2,0,0.2-0.3,0.3-0.3c0.3,0.1,0.6,0.2,0.9,0c0.2,0,0.2,0.3,0.2,0.5
			c-0.2,0.8-0.5,1.7-1.3,2.1c-0.3,0.2-0.8,0.1-1.1-0.1c-0.8-0.5-1.3-1.5-1.2-2.3c0.1-0.1,0.2-0.2,0.3-0.1c0.3,0.2,0.7-0.2,1,0.1
			c0.4-0.2,0.1-0.6,0.1-1c-0.3-0.4-0.8-0.3-1.3-0.3c-0.2-0.1,0-0.3,0.1-0.4c0.5-0.7,1.4-0.7,2.2-0.6c0.4,0.1,0.9,0.3,1.1,0.7
			C49.2,14.2,49.3,14.3,49.3,14.4z M49.3,14.9c0,0.1,0,0.2-0.1,0.2c-0.3-0.1-0.6-0.3-0.9,0c-0.2-0.3,0.3-0.3,0.4-0.4
			C48.9,14.7,49.2,14.7,49.3,14.9z M48.8,13c-1.7-0.3-3.4,0.1-4.8,0.8c-0.1-0.7-0.5-1.3-0.9-1.9c0.3-0.1,0.6,0.1,0.8,0.1
			c0.2,0.1,0.4,0.2,0.6,0.3c0-0.4-0.2-0.8-0.4-1.2c0.1-0.1,0.3,0,0.4,0c0.6,0.2,1.1,0.5,1.6,0.9c0.3-0.3,0.4-0.7,0.5-1.2l-0.9-0.8
			V9.8l1.2-0.1c0.2-0.4,0.3-0.7,0.5-1.1c0.2,0.3,0.3,0.7,0.5,1.1l1.2,0.1l0,0.1l-0.9,0.8c0.1,0.4,0.3,0.7,0.4,1.1
			c0.6-0.4,1.3-0.8,2-0.9c-0.1,0.4-0.4,0.8-0.3,1.3c0.5-0.1,0.9-0.4,1.5-0.4c-0.3,0.6-0.8,1.2-0.8,2C50.3,13.4,49.6,13.1,48.8,13z"
			/>
		<path class="st0" d="M46.6,11.9c-0.1,0.1,0,0.2,0.1,0.2c0.5,0,1.1-0.1,1.6,0l0.1-0.1c-0.3-0.3-0.6-0.5-1-0.7L46.6,11.9z"/>
		<path class="st0" d="M47.1,16.3c0,0.1,0,0.1,0,0.2c0.2,0,0.6,0.1,0.8-0.1C47.7,16.1,47.3,16.1,47.1,16.3z"/>
		<path class="st0" d="M46.7,16.8l0,0.1c0.3,0.2,0.4,0.5,0.7,0.5c0.3,0,0.6-0.3,0.8-0.6C47.8,16.8,47.2,16.9,46.7,16.8z"/>
	</g>
	<g>
		<path class="st0" d="M59,32.2c0.6,0,1,0.4,1,1c0,0.6-0.5,1-1,1c-0.6,0-1-0.4-1-1C58,32.6,58.5,32.2,59,32.2z M59,32.4
			c-0.5,0-0.8,0.4-0.8,0.9c0,0.5,0.4,0.9,0.8,0.9c0.5,0,0.8-0.4,0.8-0.9C59.9,32.7,59.5,32.4,59,32.4z M58.8,33.8h-0.2v-1.2h0.5
			c0.3,0,0.4,0.1,0.4,0.3c0,0.2-0.1,0.3-0.3,0.3l0.3,0.5h-0.2L59,33.3h-0.2V33.8z M58.8,33.2H59c0.2,0,0.3-0.1,0.3-0.2
			c0-0.1-0.1-0.2-0.3-0.2h-0.2V33.2z"/>
	</g>
</g>
</svg>
