<?xml version="1.0" encoding="utf-8"?>
<!-- Generator: Adobe Illustrator 26.0.1, SVG Export Plug-In . SVG Version: 6.00 Build 0)  -->
<svg version="1.1" id="Layer_1" xmlns="http://www.w3.org/2000/svg" xmlns:xlink="http://www.w3.org/1999/xlink" x="0px" y="0px"
	 viewBox="0 0 95 35" style="enable-background:new 0 0 95 35;" xml:space="preserve">
<style type="text/css">
	.st0{fill:#104076;}
	.st1{fill:#343741;}
</style>
<path class="st0" d="M-39.1,613.7"/>
<g>
	<path class="st1" d="M60.4,20.5c0-0.8-0.7-0.9-0.9-0.9h-0.3c-0.1,0-0.1,0.1-0.1,0.3c0,0,0,1.4,0,1.4h0.3C60,21.3,60.4,21,60.4,20.5
		z"/>
	<path class="st1" d="M54.4,21.9h1.1c-0.1,0-0.6-1.5-0.6-1.5S54.4,21.9,54.4,21.9z"/>
	<path class="st1" d="M43.8,16.7c1,0,2.5-2.7,2.5-3.3c0-0.4-0.2-0.6-0.6-0.6c-1.1,0-2.3,1.9-2.3,3.4C43.5,16.7,43.6,16.7,43.8,16.7z
		"/>
	<path class="st1" d="M59.4,21.5c0,0-0.2,0-0.2,0.1v1.3c0,0.4,0,0.6,0.1,0.7c0.1,0.1,0.2,0.1,0.4,0.1c0.4,0,0.9-0.3,0.9-1
		C60.6,21.9,60.2,21.5,59.4,21.5z"/>
	<path class="st1" d="M30,0v35h35V0H30z M57.2,12.3c0.6,0,1,0.4,1,0.8c0,0.9-1.5,1.3-2.3,1.3h-0.5v0.1c-0.2,0.4-0.5,0.8-0.5,1.4
		c0,0.5,0.3,0.8,0.8,0.8c0.4,0,0.9-0.4,1.3-0.6l0.1-0.1h0.1l0.1,0.2v0.1c-0.2,0.3-1.2,1.1-2.1,1.1c-0.8,0-1.3-0.6-1.3-1.4
		C53.9,14.3,55.9,12.5,57.2,12.3z M53.4,10.1H53V9.8c0-0.1,0.1-0.1,0.1-0.1h1.4c0.1,0,0.2,0,0.2,0.1v0.1c0,0.1-0.2,0.5-0.5,1.3
		l-0.6,1.6c-0.9,2.3-1.3,3.5-1.3,3.8c0,0.1,0.1,0.1,0.1,0.1h0.1c0.2,0,0.4-0.3,0.9-0.8l0.1-0.1c0,0,0.2,0.2,0.2,0.3
		c0,0-0.1,0.1-0.1,0.1c-0.4,0.5-1,1.3-1.6,1.3c-0.2,0-0.3-0.1-0.4-0.2c-0.1-0.1-0.1-0.2-0.1-0.5c0-0.5,0.9-2.7,1.4-3.9
		c0,0,0.9-2.3,0.9-2.5C53.7,10.3,53.5,10.2,53.4,10.1z M49.5,12.5c0.2,0,0.4,0.1,0.4,0.4c0,0.2-0.1,0.8-0.3,1.3
		c-0.1,0.2-0.1,0.4-0.1,0.5v0.1c0,0,0.1-0.1,0.1-0.1c0.8-1.6,1.3-2.1,2.2-2.2c0.2,0,0.4,0.1,0.4,0.4c0,0.2-0.1,0.3-0.2,0.4
		c-0.1,0.1-0.2,0.1-0.3,0.1c-0.1,0-0.2-0.1-0.3-0.2c-0.1-0.1-0.1-0.1-0.2-0.1s-0.3,0.1-0.6,0.3c-0.4,0.4-0.8,1.3-1.7,3
		c-0.1,0.3-0.3,0.8-0.3,0.8c-0.1,0.1-0.1,0.2-0.2,0.2h-0.4c-0.1,0-0.1,0-0.1-0.1c0-0.1,0.1-0.4,0.3-0.9c0.3-0.9,0.8-2.3,0.8-2.8
		c0-0.2-0.1-0.3-0.2-0.3c-0.2,0-0.6,0.4-0.8,0.7l-0.1,0.1L48.1,14L48,13.8C48.2,13.3,49,12.5,49.5,12.5z M45.9,12.5
		c0.2,0,0.3,0.1,0.4,0.1c0.1,0.1,0.2,0.1,0.3,0.1c0.1,0,0.1-0.1,0.2-0.1c0-0.1,0.1-0.1,0.1-0.1c0,0,0.1,0-0.1,0.1l0.3,0.2
		c0.1,0,0.1,0.1,0.1,0.1c0,0.1-0.2,0.7-0.5,1.4c-0.3,0.9-0.8,2.1-0.8,2.4v0.1H46c0.2,0,0.4-0.4,0.7-0.6l0.2-0.2h0.1l0.2,0.2
		c-0.2,0.4-0.9,1.4-1.6,1.4c-0.1,0-0.2-0.1-0.3-0.1c-0.1-0.1-0.1-0.2-0.1-0.4c0-0.4,0.2-0.8,0.3-1l0.1-0.1v-0.1L45.2,16
		c-0.8,1.3-1.4,1.4-1.9,1.4c-0.4,0-0.8-0.3-0.8-1C42.6,15.4,43.7,12.5,45.9,12.5z M39.3,10H39V10l0.1-0.3l0,0.1h1.4
		c0.1,0,0.2,0,0.2,0.1c0,0.1-0.3,1.1-1,2.9c-0.2,0.5-0.3,0.9-0.4,1.1c-0.1,0.2-0.1,0.4-0.1,0.4s0.1-0.1,0.2-0.3
		c0.4-0.6,1.1-1.6,2.1-1.6c0.5,0,0.8,0.3,0.8,0.9c0,0.7-0.5,1.9-0.8,2.6c-0.1,0.2-0.2,0.4-0.2,0.5v0.1h0.1c0.1,0,0.6-0.4,0.8-0.7H42
		l0.2,0.2l-0.1,0.1c-0.4,0.6-1.1,1.3-1.8,1.3c-0.2,0-0.4-0.1-0.4-0.4c0-0.3,0.3-0.9,0.6-1.6c0.4-0.8,0.7-1.5,0.7-1.9
		c0-0.2-0.1-0.3-0.3-0.3c-0.8,0-2.3,2.1-2.8,3.9c-0.1,0.1-0.2,0.2-0.5,0.2s-0.4-0.1-0.4-0.2s0.3-0.9,0.7-1.9
		c0.3-0.8,0.7-1.8,0.9-2.5l0.3-0.8c0.3-0.9,0.6-1.5,0.6-1.7C39.6,10.1,39.6,10.1,39.3,10z M34.8,24c-0.3,0-0.5-0.1-0.7-0.1l-0.3-0.1
		h-0.1c0-0.2-0.1-0.7-0.2-1.1l0.3-0.1c0.2,0.4,0.6,1.1,1.3,1.1c0.4,0,0.8-0.4,0.8-0.8c0-0.4-0.3-0.7-0.8-0.9l-0.3-0.1
		c-0.5-0.3-1.1-0.6-1.1-1.3c0-0.8,0.6-1.4,1.5-1.4c0.2,0,0.4,0.1,0.6,0.1l0.1,0.1l0.2,0.1c0,0.2,0.1,0.6,0.1,0.9L36,20.4
		c-0.1-0.4-0.4-0.9-0.9-0.9c-0.4,0-0.7,0.4-0.7,0.8s0.3,0.6,0.8,0.9l0.2,0.1c0.4,0.2,1.1,0.6,1.1,1.4C36.4,23.5,35.8,24,34.8,24z
		 M35,17.3c-1,0-1.4-0.7-1.4-1.4c-0.1-0.8,0.3-1.7,1-2.4c0.8-0.8,1.8-1.2,2.5-1.2c0.7,0.1,1,0.5,1,0.8c0,0.1-0.1,0.2-0.1,0.3
		c0,0.1-0.1,0.1-0.2,0.1c-0.2,0-0.3-0.1-0.4-0.3c-0.2-0.2-0.4-0.4-0.6-0.4c-0.2,0-0.5,0.2-0.9,0.6c-0.6,0.7-1.3,1.9-1.3,2.6
		c0,0.3,0.1,0.6,0.3,0.7c0.1,0.1,0.3,0.2,0.5,0.2c0.5,0,1.1-0.5,1.4-0.8c0,0,0.2,0.1,0.2,0.2C36.8,16.6,36,17.5,35,17.3z M41,23.8
		c-0.3,0.1-0.9,0.2-1.3,0.2c-1.8,0-2.6-1.1-2.6-2.3c0-1.5,1.1-2.5,2.7-2.4c0.5,0,0.9,0.1,1.1,0.1H41l0.1,0.8l0.1,0.3h-0.3
		c-0.2-0.8-0.6-1.1-1.3-1.1c-1.3,0-1.7,1.1-1.7,2c0,1.3,0.7,2.2,1.7,2.2c0.8,0,1.1-0.4,1.5-1.1l0.3,0.1C41.3,22.9,41.1,23.5,41,23.8
		z M46.5,19.5c-0.6,0.1-0.6,0.1-0.6,0.9v2.5c0,0.8,0.1,0.8,0.6,0.9V24h-2.1v-0.3c0.6-0.1,0.6-0.1,0.6-0.9v-1.2H43v1.2
		c0,0.8,0.1,0.8,0.6,0.9V24h-2.1v-0.3c0.6-0.1,0.6-0.1,0.6-0.9v-2.5c0-0.7,0-0.8-0.6-0.9v-0.3h2.1v0.3c-0.5,0.1-0.6,0.1-0.6,0.9v0.9
		h2.1v-0.9c0-0.8-0.1-0.8-0.6-0.9v-0.3h2C46.6,19.3,46.5,19.5,46.5,19.5z M51.4,24c0,0-1.1-3.2-1.2-3.3c-0.1,0.1-1.1,3.3-1.1,3.3
		h-0.3l-1.2-3.8c-0.2-0.6-0.3-0.6-0.7-0.7v-0.3h1.9v0.2h-0.3c-0.1,0-0.2,0-0.3,0.1v0.1c0,0.1,0.1,0.1,0.1,0.3c0,0,0.8,2.6,0.8,2.8
		c0-0.1,1.1-3.4,1.1-3.4h0.3c0,0,1.2,3.2,1.3,3.3c0.3-1,0.7-2.6,0.7-2.6c0.1-0.1,0.1-0.2,0.1-0.3s-0.1-0.1-0.1-0.1
		c-0.1,0-0.1-0.1-0.3-0.1H52v-0.3h1.6v0.3c-0.4,0-0.5,0.1-0.8,0.7c0,0.1-0.6,1.6-1.2,3.8H51.4z M57.6,23.9h-1.9v-0.2l0.2-0.1
		c0.1,0,0.2,0,0.2-0.1v-0.1c0-0.1-0.1-0.1-0.1-0.2c-0.1-0.2-0.2-0.6-0.4-1h-1.3c-0.1,0.1-0.2,0.5-0.3,0.8L54,23.2
		C54,23.3,54,23.4,54,23.4v0.1c0,0.1,0.1,0.1,0.3,0.1h0.2v0.3h-1.6v-0.3c0.4,0,0.5-0.1,0.8-0.7l1.4-3.7l0.3-0.1l0.5,1.3l1.1,2.4
		c0.3,0.6,0.4,0.6,0.8,0.7V23.9z M57.5,17c0-0.2,0.1-0.6,0.3-0.6c0.1,0,0.2,0.1,0.4,0.3c0.3,0.2,0.4,0.4,0.8,0.4
		c0.3,0,0.7-0.3,0.7-0.6c0-0.3-0.2-0.5-0.4-0.8c-0.3-0.3-0.6-0.7-0.6-1.2c0-0.9,0.9-2,1.9-2c0.4,0,0.7,0.2,0.7,0.5
		c0,0.2-0.2,0.4-0.4,0.4c-0.1,0-0.3-0.1-0.4-0.1c-0.1-0.1-0.2-0.1-0.4-0.1c-0.3,0-0.6,0.3-0.6,0.6c0,0.3,0.2,0.6,0.4,0.8
		c0.3,0.4,0.6,0.8,0.6,1.3c0,0.9-1,1.6-1.9,1.8C58,17.6,57.5,17.2,57.5,17z M60.9,23.7c-0.3,0.2-0.8,0.3-1.4,0.3h-1.8v-0.3
		c0.6-0.1,0.6-0.1,0.6-0.9v-2.5c0-0.8-0.1-0.8-0.6-0.9v-0.1h1.9c0.6,0,0.9,0.1,1.1,0.3c0.2,0.2,0.4,0.4,0.4,0.8c0,0.6-0.6,0.9-1,1
		c0.8,0.1,1.3,0.6,1.3,1.2C61.5,23.1,61.3,23.5,60.9,23.7z"/>
	<path class="st1" d="M57.5,13.2c0-0.2-0.2-0.4-0.4-0.4c-0.6,0-1.3,0.9-1.4,1.4C56.9,14.1,57.5,13.8,57.5,13.2z"/>
</g>
</svg>
