<?xml version="1.0" encoding="utf-8"?>
<!-- Generator: Adobe Illustrator 26.0.1, SVG Export Plug-In . SVG Version: 6.00 Build 0)  -->
<svg version="1.1" id="Layer_1" xmlns="http://www.w3.org/2000/svg" xmlns:xlink="http://www.w3.org/1999/xlink" x="0px" y="0px"
	 viewBox="0 0 95 35" style="enable-background:new 0 0 95 35;" xml:space="preserve">
<style type="text/css">
	.st0{fill:#104076;}
	.st1{fill:#343741;enable-background:new    ;}
	.st2{fill:#343741;}
</style>
<path class="st0" d="M-39.1,613.7"/>
<g>
	<path class="st1" d="M38,24.8c-0.8,0-1.7,0.4-1.7,1.3c0,0.6,0.5,0.9,0.9,1.1c0.4,0.2,0.7,0.4,0.7,0.8c0,0.5-0.5,0.7-0.9,0.7
		c-0.4,0-0.8-0.2-1.1-0.3c0,0.1-0.2,0.6-0.2,0.7c0.5,0.2,0.9,0.2,1.3,0.2c0.6,0,1.9-0.1,1.9-1.5c0-0.7-0.5-1-0.9-1.2
		c-0.3-0.2-0.6-0.4-0.6-0.7c0-0.4,0.4-0.6,0.8-0.6c0.3,0,0.6,0.1,0.9,0.2c0-0.1,0.2-0.6,0.2-0.7C38.8,24.9,38.4,24.8,38,24.8z"/>
	<g>
		<path class="st2" d="M39.6,25.8h0.7l-0.3,1.4h1.5l0.3-1.4h0.7l-0.8,3.6h-0.7l0.3-1.6h-1.5l-0.3,1.6h-0.7L39.6,25.8z"/>
		<path class="st2" d="M41.8,29.4H41l0.3-1.6H40l-0.3,1.6h-0.8l0.8-3.6h0.8l-0.3,1.4h1.4l0.3-1.4h0.8L41.8,29.4z M41.1,29.3h0.7
			l0.7-3.5h-0.7l-0.3,1.4H40l0.3-1.4h-0.7l-0.7,3.5h0.7l0.3-1.6h1.5L41.1,29.3z"/>
	</g>
	<g>
		<path class="st2" d="M43.2,25.8h2.1l-0.1,0.6h-1.4l-0.2,0.9h1.3l-0.1,0.6h-1.3l-0.2,1h1.4l-0.1,0.6h-2.2L43.2,25.8z"/>
		<path class="st2" d="M44.6,29.4h-2.2l0.8-3.6h2.2l-0.1,0.6h-1.4l-0.2,0.8h1.3l-0.1,0.6h-1.3l-0.2,0.9h1.4L44.6,29.4z M42.5,29.3
			h2.1l0.1-0.5h-1.4l0.2-1.1h1.3l0.1-0.5h-1.3l0.2-0.9h1.4l0.1-0.5h-2.1L42.5,29.3z"/>
	</g>
	<g>
		<path class="st2" d="M46,25.8h0.9c0.7,0,1.4,0,1.4,0.8c0,0.6-0.5,0.9-1.1,1v0c0.2,0,0.3,0.1,0.4,0.3l0.3,1.4h-0.8L47,28.5
			c-0.1-0.4-0.1-0.6-0.5-0.6h-0.3l-0.3,1.5h-0.7L46,25.8z M46.4,27.3h0.3c0.4,0,0.9-0.1,0.9-0.6c0-0.4-0.3-0.4-0.6-0.4h-0.3
			L46.4,27.3z"/>
		<path class="st2" d="M48,29.4h-0.8l-0.2-0.9c0-0.1,0-0.1,0-0.2c-0.1-0.3-0.1-0.5-0.4-0.5h-0.3l-0.3,1.5h-0.8l0.8-3.6h0.9
			c0.3,0,0.7,0,1,0.1c0.3,0.1,0.5,0.4,0.5,0.8c0,0.5-0.4,0.9-0.9,1c0.1,0.1,0.2,0.2,0.2,0.3L48,29.4z M47.2,29.3h0.7l-0.3-1.4
			c0-0.1-0.1-0.3-0.3-0.3l0,0v-0.1l0,0c0.6,0,1-0.4,1-0.9c0-0.4-0.1-0.6-0.4-0.7c-0.3-0.1-0.6-0.1-1-0.1H46l-0.7,3.5h0.7l0.3-1.5
			h0.3c0.4,0,0.4,0.2,0.5,0.5c0,0.1,0,0.1,0,0.2L47.2,29.3z M46.6,27.3h-0.3l0.2-1h0.3c0.3,0,0.7,0,0.7,0.4
			C47.5,27.3,46.9,27.3,46.6,27.3z M46.4,27.3h0.2c0.3,0,0.8-0.1,0.8-0.6c0-0.3-0.3-0.3-0.6-0.3h-0.3L46.4,27.3z"/>
	</g>
	<g>
		<path class="st2" d="M48.7,25.8h0.7l0.1,2.7h0l1.2-2.7h1l0,2.7h0l1.3-2.7h0.8L52,29.4h-0.9l0-2.9h0l-1.3,2.9h-0.9L48.7,25.8z"/>
		<path class="st2" d="M52.1,29.4h-1l0-2.8l-1.2,2.8h-1l-0.2-3.6h0.8l0.1,2.7l1.2-2.7h1l0,2.7l1.2-2.7h0.8L52.1,29.4z M51.2,29.3H52
			l1.7-3.5H53l-1.3,2.7h-0.1l0-2.7h-0.9l-1.2,2.7h-0.1l-0.1-2.7h-0.7l0.2,3.5h0.9l1.3-2.9h0.1L51.2,29.3z"/>
	</g>
	<g>
		<path class="st2" d="M54.2,25.8h0.8l-0.8,3.6h-0.8L54.2,25.8z"/>
		<path class="st2" d="M54.2,29.4h-0.8l0.8-3.6H55L54.2,29.4z M53.5,29.3h0.7l0.8-3.5h-0.7L53.5,29.3z"/>
	</g>
	<g>
		<path class="st2" d="M55.6,25.8h0.9l0.8,2.7h0l0.6-2.7h0.7l-0.8,3.6h-0.9l-0.8-2.7h0l-0.6,2.7h-0.7L55.6,25.8z"/>
		<path class="st2" d="M57.8,29.4h-1l-0.7-2.7l-0.6,2.7h-0.8l0.8-3.6h1l0.8,2.6l0.6-2.6h0.8l0,0L57.8,29.4z M56.9,29.3h0.9l0.8-3.5
			h-0.6l-0.6,2.7h-0.1l-0.8-2.7h-0.9l-0.8,3.5h0.6l0.6-2.7h0.1L56.9,29.3z"/>
	</g>
</g>
<g>
	<path class="st2" d="M59.1,33.9c0.3,0,0.5,0.2,0.5,0.5c0,0.3-0.2,0.5-0.5,0.5c-0.3,0-0.5-0.2-0.5-0.5
		C58.6,34.2,58.8,33.9,59.1,33.9z M59.1,34.8c0.2,0,0.4-0.2,0.4-0.4c0-0.2-0.2-0.4-0.4-0.4c-0.2,0-0.4,0.2-0.4,0.4
		C58.7,34.7,58.9,34.8,59.1,34.8z M58.9,34.2h0.2c0.1,0,0.2,0,0.2,0.2c0,0.1-0.1,0.1-0.1,0.1l0.1,0.2h-0.1l-0.1-0.2H59v0.2h-0.1
		V34.2z M59.1,34.4C59.2,34.4,59.2,34.4,59.1,34.4c0.1-0.1,0-0.1,0-0.1H59L59.1,34.4L59.1,34.4z"/>
	<path class="st1" d="M39,33.9L39,33.9c-0.1,0-0.1-3.4-0.1-3.5c-0.1,0-1.1,0-1.1,0c0,0-1.4,3.5-1.4,3.5l-0.1,0c0,0-0.1-3.4-0.1-3.5
		c0,0-0.8,0-0.8,0c0,0.1,0.3,4.5,0.3,4.5c0.1,0,1,0,1,0c0,0,1.5-3.6,1.5-3.6l0.1,0c0,0,0,3.6,0,3.6c0.1,0,1,0,1,0c0,0,2-4.4,2-4.5
		c-0.1,0-0.8,0-0.8,0C40.5,30.5,39,33.9,39,33.9z"/>
	<g>
		<path class="st2" d="M41.4,31.3h0.7l-0.7,3.6h-0.7L41.4,31.3z"/>
		<path class="st2" d="M41.4,34.9h-0.8l0.7-3.6h0.8L41.4,34.9z M40.7,34.9h0.6l0.7-3.5h-0.6L40.7,34.9z"/>
	</g>
	<g>
		<path class="st2" d="M42.7,31.3h0.7l-0.6,3h1.3L44,34.9h-2L42.7,31.3z"/>
		<path class="st2" d="M44,34.9H42l0.7-3.6h0.7l-0.6,3h1.3L44,34.9z M42.1,34.9H44l0.1-0.5h-1.3l0.6-3h-0.6L42.1,34.9z"/>
	</g>
	<g>
		<path class="st2" d="M45.2,31.3h0.7l-0.6,3h1.3l-0.1,0.6h-2L45.2,31.3z"/>
		<path class="st2" d="M46.5,34.9h-2.1l0.7-3.6h0.7l-0.6,3h1.3L46.5,34.9z M44.5,34.9h1.9l0.1-0.5h-1.3l0.6-3h-0.6L44.5,34.9z"/>
	</g>
	<g>
		<path class="st2" d="M47.5,31.3h0.7l-0.7,3.6h-0.7L47.5,31.3z"/>
		<path class="st2" d="M47.6,34.9h-0.8l0.7-3.6h0.8L47.6,34.9z M46.9,34.9h0.6l0.7-3.5h-0.6L46.9,34.9z"/>
	</g>
	<g>
		<path class="st2" d="M49.9,31.3h0.8l0.6,3.6h-0.7l-0.1-0.8h-1.4l-0.4,0.8h-0.8L49.9,31.3z M49.4,33.5h1L50.2,32h0L49.4,33.5z"/>
		<path class="st2" d="M51.4,34.9h-0.7l-0.1-0.8h-1.4l-0.4,0.8h-0.8l2.1-3.6h0.8L51.4,34.9z M50.7,34.9h0.6l-0.6-3.5H50l-2,3.5h0.7
			l0.4-0.8h1.5L50.7,34.9z M50.5,33.6h-1.1l0.8-1.6h0.1L50.5,33.6z M49.4,33.5h1L50.2,32L49.4,33.5z"/>
	</g>
	<g>
		<path class="st2" d="M52.4,31.3h1.1l0.2,2.6h0l1.3-2.6h1.1l-0.7,3.6h-0.7l0.6-3h0l-1.5,3h-0.7l-0.3-3h0l-0.6,3h-0.6L52.4,31.3z"/>
		<path class="st2" d="M55.5,34.9h-0.8l0,0l0.6-2.8l-1.4,2.8h-0.7l-0.3-2.8l-0.6,2.8h-0.7l0,0l0.7-3.6h1.2l0,0l0.2,2.5l1.3-2.5h1.2
			L55.5,34.9z M54.8,34.9h0.7l0.7-3.5h-1.1l-1.3,2.6h-0.1l0,0l-0.2-2.5h-1.1l-0.7,3.5h0.6l0.6-3H53l0.3,3h0.6l1.5-3h0.1l0,0
			L54.8,34.9z"/>
	</g>
	<g>
		<path class="st2" d="M58.5,32c-0.2-0.1-0.5-0.2-0.7-0.2c-0.2,0-0.6,0.1-0.6,0.4c0,0.6,1.2,0.5,1.2,1.5c0,0.9-0.6,1.2-1.4,1.2
			c-0.3,0-0.7-0.1-1-0.2l0.2-0.6c0.3,0.1,0.5,0.2,0.8,0.2c0.3,0,0.6-0.2,0.6-0.6c0-0.6-1.2-0.5-1.2-1.5c0-0.8,0.6-1.1,1.3-1.1
			c0.3,0,0.6,0,0.9,0.2L58.5,32z"/>
		<path class="st2" d="M57,35c-0.3,0-0.6-0.1-1-0.2l0,0l0.2-0.7l0,0c0.2,0.1,0.5,0.2,0.8,0.2c0.3,0,0.6-0.2,0.6-0.5
			c0-0.3-0.2-0.4-0.5-0.6c-0.3-0.2-0.7-0.4-0.7-0.9c0-0.8,0.7-1.1,1.3-1.1c0.3,0,0.6,0.1,0.9,0.2l0,0l-0.2,0.7l0,0
			c-0.2-0.1-0.5-0.2-0.7-0.2c-0.2,0-0.5,0.1-0.5,0.4c0,0.2,0.2,0.4,0.4,0.5c0.3,0.2,0.7,0.4,0.7,1C58.4,34.6,57.9,35,57,35z
			 M56,34.7c0.3,0.1,0.6,0.2,0.9,0.2c0.4,0,1.4-0.1,1.4-1.2c0-0.5-0.4-0.8-0.7-1c-0.2-0.2-0.5-0.3-0.5-0.6c0-0.3,0.3-0.4,0.6-0.4
			c0.2,0,0.5,0.1,0.7,0.2l0.1-0.5c-0.2-0.1-0.5-0.1-0.8-0.1c-0.6,0-1.2,0.3-1.2,1c0,0.5,0.3,0.7,0.6,0.9c0.3,0.2,0.5,0.3,0.5,0.6
			c0,0.4-0.3,0.6-0.7,0.6c-0.3,0-0.6-0.1-0.8-0.2L56,34.7z"/>
	</g>
</g>
<path class="st2" d="M53.1,22l0-0.2L53,21.3L52.9,21l0-0.1l0-0.3l0-0.1l0-0.2l0-0.2l0-0.1l0-0.1l0,0l0,0l0,0l0,0l0,0.3l-0.1,0.4
	L52.5,21l-0.1,0.2l0,0.1l-0.1,0.3L52.2,22l0,0.2l0,0l0,0l0,0.1l0,0.1l0,0.1l0.1,0.1l0.1,0.1l0.1,0l0.1,0l0.1,0l0,0l0.1,0l0.1,0
	l0.1,0l0.1-0.1l0.1-0.1l0-0.1l0-0.1l0-0.1L53.1,22z M52.9,22.2L52.9,22.2l0,0.1l0,0.1l0,0.1l-0.1,0l-0.1,0l-0.1,0l0,0l-0.1-0.1
	l0-0.1l0-0.1l0-0.1l0-0.2l0-0.1l0-0.1l0-0.1l0.1-0.4l0.1-0.3l0.1-0.4l0,0l0,0.1l0,0.3l0.1,0.4l0,0.2l0.1,0.4V22.2L52.9,22.2z"/>
<path class="st2" d="M43.1,21.7l0-0.3l0-0.2l0-0.3l0-0.1l0,0l-0.1-0.3l-0.1-0.7l-0.1-0.4l0-0.3l0,0l0,0l0,0l0,0l0,0.1l-0.1,0.4
	l-0.1,0.5l0,0.2l0,0.1l0,0.2l-0.1,0.2l-0.1,0.4l-0.1,0.4l0,0.3l0,0.1l0,0.2l0,0.1l0,0.1l0.1,0.1l0.1,0.1l0.1,0.1l0.1,0.1l0.1,0
	l0.1,0l0.1,0l0.1,0l0.1-0.1l0,0l0,0l0.1-0.1l0-0.1l0-0.1l0-0.1l0-0.2L43.1,21.7z M42.9,22.1L42.9,22.1l-0.1,0.2l-0.1,0.1l-0.1,0
	l-0.1,0l-0.1,0l-0.1,0l-0.1,0l-0.1-0.1l0-0.1l0-0.1l0-0.1l0-0.1l0-0.2l0.1-0.4l0.1-0.5l0.1-0.7l0,0l0,0l0,0.3l0.1,0.3l0,0.1l0.1,0.4
	l0,0.2l0,0.1l0,0.2l0,0.2L42.9,22.1z"/>
<polygon class="st2" points="47.5,20 47.4,20 47.4,20 47.5,20 47.5,20 47.5,20 "/>
<polygon class="st2" points="47.1,19.3 47.1,19.3 47,19.2 47,19.2 47,19.2 47,19.1 47.1,19.1 47.2,19.1 47.2,19.1 47.3,19.1 
	47.3,19.1 47.3,19.2 47.3,19.2 47.2,19.3 47.2,19.3 47.1,19.3 "/>
<path class="st2" d="M53.3,14.3l0-0.3l-0.1-0.4l-0.1-0.3l0-0.1L53,13l0,0l0-0.1l0-0.1l-0.1-0.3L52.7,12l-0.3-0.5l-0.2-0.3l-0.1-0.2
	l-0.2-0.2l-0.1-0.2l-0.2-0.2l-0.3-0.2l-0.1-0.1L51,10l-0.2-0.2l-0.5-0.4l0,0l0,0l0.1-0.1l0-0.1l0-0.1l0-0.1l0-0.1l0-0.1l-0.1-0.1
	l-0.1-0.1l-0.2-0.2l-0.2-0.2l-0.1-0.1l-0.1,0l-0.1,0l0,0l0,0l0.1,0L49.7,8l0.1-0.1l0-0.1l0-0.1l0-0.1l0-0.1l0-0.1l0-0.1l-0.1-0.1
	l-0.1,0l-0.1-0.1l-0.1,0h-0.2l0,0v0l0-0.1l0-0.1l0-0.1l0-0.1l0-0.1l0-0.1L49,6.6L49,6.5l-0.1,0l-0.1,0l-0.1,0l-0.1,0l-0.1,0l-0.1,0
	l-0.1,0.1l-0.1,0.1l0,0l-0.1,0.1L47.8,7l-0.1,0.1l-0.1,0.1l0,0.1l0,0.1h0l0,0l0-0.6l0-0.2l0-1l0,0l0,0l0.3-0.2l0.3-0.2l0.1,0l0.1,0
	l0.2-0.2l0.2-0.2l0.2-0.2l0.2-0.2l0.1-0.2l0.1-0.2l0.1-0.2l0.1-0.1l0-0.1l0-0.1l0-0.1l0-0.1l0-0.1l0,0l-0.1,0l-0.1,0l-0.1-0.1
	l-0.1-0.1l0,0l0,0l0-0.1l0,0l0-0.1l-0.1-0.1l0,0l0,0l0.1-0.1l0,0l0,0l0,0L49,2l-0.3-0.3l-0.2-0.2l-0.2-0.2l-0.1-0.1L48,1.3l-0.2-0.1
	l-0.1,0l-0.1-0.1l-0.3-0.3l-0.1-0.1L47,0.4l0-0.1l0,0l0-0.1l0-0.1l0,0l0,0l-0.1,0l-0.1,0l-0.2,0l-0.2,0l-0.2,0.1l-0.3,0.1l-0.3,0.2
	l-0.1,0.1l-0.1,0.1l-0.1,0.1L44.8,1l-0.1,0.2l0,0l-0.2,0.2l-0.1,0.2l-0.1,0.2L44,2l-0.1,0.2l-0.1,0.2l0,0.1l0,0.2l0,0.1l0,0.1l0,0.1
	l0,0.1l0,0l0.1,0l0.1,0l0.1,0l0.3,0.3l0.2,0.3l0.1,0.2l0,0.1l0.1,0.3L45,4.5l0.1,0.2L45.3,5l0.2,0.3l0.1,0.1l0,0l0,0l0,0l0.1-0.1
	l0,0l0,0l0.1,0.1l0,0l0,0l0.1,0l0,0l0,0l0.1,0.1l0.1,0.1l0,0l0,0.1l0,0.1l0,0.1l0.1,0l0,0l0,0.1l0,0.1l0.1,0.2l0,0.2l0,0.4l0,0.2
	l0,0.1l0,0l0,0l-0.1-0.1l-0.1-0.1l-0.2-0.2l-0.1-0.1l-0.1-0.1l-0.1-0.1L46,6.5l-0.2-0.1l-0.1,0h-0.1l-0.1,0l-0.1,0l-0.1,0.1
	l-0.1,0.1l0,0.1l0,0.1l0,0.1l0,0.1l0,0.1l0,0.1l0,0.1l0,0l0,0l-0.1,0l-0.1,0l-0.2,0l-0.2,0.1l-0.1,0.1l-0.1,0.1l-0.1,0.1l-0.1,0.1
	l-0.1,0.1l0,0.1l0,0.1l0,0.1l0,0.1l0,0.1l0.1,0.1l0.1,0.1l0,0l0,0l-0.1,0.1l-0.2,0.2L44,8.6l-0.1,0.1l-0.1,0.1l0,0.2l0,0.1l0,0.2
	l0,0.1l0.1,0.1l0,0l0,0l-0.2,0.1l-0.1,0.1L43.3,10l-0.2,0.2l-0.1,0l-0.2,0.2l-0.1,0.1l0,0l-0.2,0.2l-0.2,0.3l-0.2,0.3L42,11.6
	l-0.2,0.3l-0.2,0.3l-0.2,0.4l-0.1,0.2l-0.1,0.3l-0.1,0.3l-0.1,0.3l0,0.4l0,0.2l0,0.1l0,0.2l0,0.2l0,0l0,0.3l0,0.4l0.1,0.5l0.1,0.4
	l0.1,0.4l0,0.1l0,0.2l0,0.1l0,0.1l0,0.3l0,0.4l0,0.2l0,0l0,0.1l0,0.2L41.3,19l-0.1,0.5l0,0.2v0.2l0,0.2l0.1,0.1l0.1,0.1l0.1,0.1
	l0.1,0.1l0.1,0l0.1,0l0.1,0l0.1,0l0.1,0l0.1-0.1l0.1-0.1l0.1-0.1l0-0.1l0-0.1l0-0.1l0-0.1l0-0.2l0-0.2L42,18.7L42,18.4l0-0.2l0-0.1
	l0,0l0,0l0.1,0.1l0,0.1l0.3,0.4l0.1,0.1l0.1,0.1l0.2,0.3l0.2,0.2l0.2,0.2l0.2,0.2l0.3,0.3l0.3,0.2l0.4,0.2l0.4,0.2l0.3,0.1l0.1,0
	l0,0l0,0.2l-0.1,0.5L44.8,22l-0.1,0.5l0,0.3v0.1l0,0.1l0,0.1l0.1,0.1l0.1,0.1l0.1,0.1l0.1,0l0.1,0l0.1,0l0.1,0l0.1,0l0.1,0l0.1-0.1
	l0.1-0.1l0.1-0.1l0-0.1l0-0.1l0-0.3l0-0.2l0-0.2l-0.2-1l0-0.2l0-0.1l0-0.1l0,0l0,0l0.3,0.1l0.5,0.1l0.4,0.1l0.1,0l0.2,0l0.5,0l0.3,0
	l0.4-0.1l0.4-0.1l0.3-0.1l0.3-0.1l0.3-0.1l0.3-0.1l0.3-0.1l0.3-0.2l0.3-0.2l0.3-0.2l0.2-0.1l0.2-0.2l0.1-0.1l0.3-0.3l0.1-0.1
	l0.2-0.3l0.2-0.3l0.1-0.1l0,0h0l0,0l0,0.2l0.2,0.7l0.1,0.3l0,0.3l0,0.1l0,0h0l0,0l0-0.1l0.1-0.2l0.1-0.2l0-0.1l0-0.2l0-0.2l0-0.3
	l0,0l0,0l0-0.1l0-0.1l0,0l0-0.1l0-0.2l0-0.5l0,0l0-0.1l0-0.2l0-0.3l0-0.1l0-0.2l0-0.1l0-0.3l0-0.6l0-0.4L53.3,14.3z M49.6,8.4
	l0.1,0.1l0.2,0.1L50,8.7l0.1,0.1l0,0.1l0,0.1l0,0.1l0,0.1l0,0.1l0,0.1l-0.1,0l-0.1,0l-0.1,0l-0.1,0l-0.1-0.1l-0.2-0.2l-0.2-0.2
	l-0.1-0.1L49,8.8l-0.2-0.1l-0.1-0.1l-0.2-0.1l-0.2,0l-0.2,0l-0.1,0l-0.1,0l-0.2,0.1l0,0l0,0l0,0l0.1-0.1L48,8.4l0.2-0.1l0.2-0.1
	l0.1,0l0.1,0l0.3,0l0.2,0l0.2,0l0.1,0.1L49.6,8.4z M49,7.4L49,7.4l0.2,0l0.1,0l0.1,0l0.1,0l0,0l0,0.1l0,0.1l0,0.1l0,0.1l0,0.1
	l-0.1,0l-0.1,0l-0.1,0l-0.5,0l-0.2,0l-0.1,0l-0.2,0.1L48,8.2l-0.2,0.1l-0.2,0.1l0,0l0,0l0-0.1l0.1-0.2L48,7.9l0.2-0.1l0.2-0.1
	l0.2-0.1l0.2-0.1L49,7.4z M47.7,7.7l0.1-0.2l0.1-0.2L48,7.2L48.1,7l0.1-0.1l0.1-0.1l0.1-0.1l0.1-0.1l0.1,0l0.1,0l0.1,0l0.1,0l0,0
	l0,0.1l0,0.1l0,0.1l0,0.1l-0.1,0.1l-0.1,0.1l-0.2,0.1l-0.2,0.1l-0.1,0.1L48,7.7l-0.1,0.1l-0.1,0.1l-0.1,0.2l-0.1,0.1l0,0l0,0l0,0
	L47.6,8L47.7,7.7z M48.1,1.5l0.2,0.1l0.2,0.2L48.7,2l0.1,0.1l0,0l0,0l0,0l-0.1-0.1l0,0l0,0l0,0l0,0L48.5,2l-0.1-0.2L48.1,1.5
	L48.1,1.5L48.1,1.5z M44.1,2.9L44.1,2.9L44.1,2.9L44.1,2.9L44,2.8l0-0.1l0-0.1l0.1-0.2l0.1-0.2L44.3,2l0.2-0.3l0-0.1l0.1-0.1
	l0.1-0.1l0,0L45,1.2L45,1.1L45.1,1l0.1-0.1l0.2-0.2l0.2-0.2l0.2-0.1l0.2-0.1l0.2-0.1l0.1,0l0.1,0l0,0l0.1,0.1l0,0l0,0l-0.2,0
	l-0.2,0.1l-0.3,0.1l-0.2,0.1L45.4,1l-0.2,0.2l-0.2,0.1l-0.2,0.2l-0.2,0.3l-0.1,0.2l-0.2,0.3l-0.1,0.3l-0.1,0.2L44.1,2.9z M45.6,5.2
	L45.6,5.2L45.6,5.2L45.5,5l-0.2-0.2l-0.1-0.2l-0.1-0.2l0-0.1l0,0l0,0l0.1,0.1l0.2,0.3l0,0.1l0,0l0,0.1L45.6,5.2L45.6,5.2L45.6,5.2z
	 M46.3,4.9l-0.1,0.1l0,0.1l0,0l0,0l0,0l0,0l0,0l0,0L45.8,5l0-0.1l0,0l0,0l-0.1-0.1l-0.2-0.2L45,3.9l-0.5-0.5l-0.2-0.2l-0.1-0.1
	l0-0.1l0,0l0-0.1l0.1-0.2l0.1-0.2l0.1-0.2l0.1-0.2l0.1-0.2l0.2-0.3l0.1-0.2l0.2-0.2l0.1-0.1L45.6,1l0.3-0.2l0.3-0.1l0.2-0.1l0.2-0.1
	l0.1,0l0.1,0l0.1,0l0,0L47,0.8l0.1,0.1l0.2,0.2l0.1,0.1l0.5,0.5l0.1,0.1L48,1.9l0.4,0.5l0,0l0,0l0.1,0l0.1,0l0,0l0.1,0.1l0,0.1
	l0,0.1l0,0l0,0l0,0.1l0,0l-0.1,0l-0.3,0.1L48.2,3l-0.4,0.3l-0.2,0.2l-0.3,0.2L47,3.9l-0.2,0.2l-0.1,0.1l-0.2,0.2l-0.2,0.3L46.3,4.9z
	 M46.5,5.3l0,0.1l0,0l0,0l0,0l0,0l0,0l0-0.1l0-0.1l0.1-0.2l0.1-0.2l0.2-0.3L47.1,4l0.1-0.1l0.2-0.2l0.3-0.2l0.4-0.3l0.3-0.2l0.3-0.1
	l0.2-0.1l0.1,0l0.1,0l0.1,0l0,0l0,0l0,0l-0.2,0.1l-0.2,0.1l-0.1,0.1l-0.1,0L48,3.5l-0.1,0.1l-0.2,0.2L47.4,4l-0.2,0.3l-0.1,0.1
	L47,4.5l-0.2,0.3L46.7,5L46.5,5.3z M45.5,6.9L45.5,6.9l0.1-0.1l0.1,0l0.1,0l0.1,0l0.1,0L46,6.8l0.1,0.1l0.2,0.2l0.1,0.1l0.2,0.2
	l0.1,0.2l0.1,0.2l0.1,0.2l0,0.2l0,0.1l0,0l0,0L46.7,8l-0.1-0.1l-0.2-0.2l-0.2-0.2l-0.2-0.1l-0.4-0.2l-0.1-0.1l-0.1-0.1l0-0.1
	L45.5,6.9L45.5,6.9z M44.5,7.8L44.5,7.8l0.1-0.2l0.1-0.1l0.1-0.1l0.1-0.1l0.1,0l0.2,0l0.1,0l0.2,0l0.2,0l0.2,0.1l0.2,0.1l0.2,0.1
	l0.2,0.1l0.2,0.2l0.1,0.1l0.1,0.2l0,0.1l0,0l0,0l0,0l-0.1-0.1l-0.2-0.1l-0.2-0.1L46.2,8L46.1,8l-0.2-0.1l-0.1,0l-0.1,0l-0.2,0
	l-0.2,0L45,8l-0.2,0.1l-0.1,0l-0.1,0l-0.1,0l0,0l0,0L44.5,7.8L44.5,7.8z M44.1,9.1l0-0.1l0-0.1l0.1-0.2l0.1-0.1l0.1-0.1l0.2-0.1
	l0.2-0.1L45,8.2l0.3-0.1l0.2,0l0.2,0l0.2,0l0.1,0l0.2,0l0.2,0.1l0.1,0.1l0.2,0.1l0.1,0.1l0.1,0.1l0,0l0,0l-0.1-0.1l-0.2-0.1
	l-0.2-0.1l-0.2,0l-0.2,0l-0.2,0l-0.2,0l-0.2,0l-0.2,0.1l-0.1,0.1l-0.1,0.1L45,8.8L44.9,9l-0.1,0.2l-0.1,0.1l-0.1,0.1l-0.1,0l-0.1,0
	l-0.1,0l-0.1,0l-0.1-0.1l0,0l0-0.1l0-0.1L44.1,9.1z M42.7,18.4l0,0.2l0,0l0,0l0,0l-0.1-0.1l-0.1-0.2l-0.1-0.2l-0.1-0.1l-0.1-0.2
	L42,17.7l0-0.1l0,0l0-0.1l0.1-0.2l0-0.1l0-0.1l0,0l0,0l0.1,0.1l0.1,0.1l0.1,0.1l0.1,0.1l0.1,0.1l0.1,0.1l0,0.1l0,0.2l0,0.2
	L42.7,18.4z M43.8,19.4L43.8,19.4l-0.1,0l-0.1,0l-0.1-0.1l0,0l-0.2-0.1l0,0l-0.1,0l0,0L43,19.1l-0.2-0.2l-0.1-0.1l0,0l0,0l0.2,0.1
	l0.1,0.1l0.4,0.3l0.2,0.1L43.8,19.4L43.8,19.4L43.8,19.4L43.8,19.4z M45.5,22.1l0,0.1l0,0.2l0,0.2l0,0.2l0,0.1l0,0.1l0,0.1l-0.1,0
	l-0.1,0l0,0l-0.1,0l-0.1,0l-0.1,0L45,23.1l0-0.1l0-0.1l0-0.1l0-0.3l0-0.2l0-0.2l0-0.1l0.1-0.3l0.1-0.4l0-0.1l0-0.1l0.1-0.3l0,0l0,0
	l0,0.2l0,0.3L45.5,22.1z M46.8,20.6L46.8,20.6L46.8,20.6l-0.1,0.1l0,0.1l0,0l-0.2,0.1l0,0l-0.1,0l-0.1,0l0,0l0,0l0.2-0.1l0.1,0l0,0
	l0-0.1l0,0L46.8,20.6L46.8,20.6L46.8,20.6L46.8,20.6z M47,20.5L47,20.5l-0.1,0l0,0l0,0l0-0.1l0-0.1l0-0.1l0,0l0-0.1l0,0l0,0H47l0,0
	l0,0l0,0.2L47,20.5L47,20.5z M47,19.6L47,19.1l0-0.1l0.2,0l0.1,0l0.2-0.1l0,0l0,0l0,0l0,0.1l0,0l0,0l0,0l0,0l0,0l-0.2,0.3l-0.1,0.1
	l0,0l-0.1,0L47,19.6L47,19.6l0,0.1h0L47,19.6z M47.3,18.7L47.3,18.7l0.1,0.1l0,0v0l0,0l-0.2,0l-0.2,0l0,0l0,0l-0.1-0.3l-0.1-0.3l0,0
	l0,0l0.1,0l0,0l0,0l0,0h0l0.1,0l0,0l0,0l0,0.1l0,0.1L47.3,18.7L47.3,18.7L47.3,18.7z M47.1,19.9l0-0.2l0,0l0,0l0,0l0.1,0l0.1,0l0,0
	l0,0l0,0.1l0,0l0,0L47.1,19.9L47.1,19.9L47.1,19.9L47.1,19.9z M47.7,20.7L47.7,20.7L47.7,20.7l-0.1,0.1l-0.1,0l0,0l-0.1,0l-0.1,0
	l0,0l0,0l0-0.1l0-0.1l0,0l0,0l0,0l0-0.2l0-0.1l0-0.1l0,0l0.1,0l0.1,0h0.1l0,0l0,0.1l0,0.1l0,0l0.1,0.1l0,0l0,0l0,0l0.1-0.1l0,0
	l0.1,0l0,0l0,0l0,0l0,0.1l0,0.1l0,0l0,0l0,0.1l0,0.1L47.7,20.7L47.7,20.7z M47.8,19.6L47.8,19.6l-0.1,0.1l-0.1,0.1l-0.1,0.1l-0.1,0
	l0,0l0,0l0,0l0,0l0.1-0.2l0,0l0.1-0.1l0.1,0L47.8,19.6L47.8,19.6L47.8,19.6L47.8,19.6L47.8,19.6z M48.1,17.9L48.1,17.9l0-0.1l0,0
	l0,0l-0.1,0.1l-0.1,0.1l-0.1,0L47.6,18L47.5,18l-0.1,0l-0.1,0l0,0l0,0l0-0.1l0-0.1l0-0.1l0,0l-0.1-0.1l0,0l0,0l-0.1,0l-0.1,0l-0.1,0
	l-0.2,0.1l-0.1,0l0,0l0,0h0l0-0.1l0-0.1l0,0l0,0l0,0l0,0l0.1,0.2l0,0l0,0L46.5,18l0,0l0,0l0.1,0l0,0l0,0l0,0.1l0.1,0.3l0.1,0.3
	l0,0.1l0,0l0,0l0,0.2l0.1,0.5l0,0.2l0,0l-0.1,0l-0.1,0h-0.1l0,0l0-0.1l0-0.1l0-0.2l0-0.1l0,0l0,0l-0.1,0l0,0l-0.1-0.1l0-0.1l0,0l0,0
	l0,0l0,0l0-0.1l0,0l0.1,0l0.1,0l0,0l0,0l0,0l0,0l-0.1,0l-0.1,0l0,0l0,0l0,0l0,0l0,0l0.1,0l0,0l0.1,0l0.1-0.1l0,0l0,0l0-0.1l-0.1-0.1
	l0-0.1l0-0.1l-0.1-0.1l0,0l0-0.1l0,0l0,0l0,0l0-0.1l-0.1-0.1l0-0.1l-0.1-0.1l0,0l-0.1,0l0,0l0,0l-0.1,0l-0.1,0l-0.1,0l-0.1,0l0,0v0
	l0,0l0.2-0.1l0,0v0l0,0l0,0l-0.2,0.1l0,0l0,0l0,0l0,0l-0.1,0l-0.1,0l-0.1,0l-0.1,0l-0.1,0l-0.1,0l-0.1,0l-0.1,0l0,0l0,0.1l0,0
	l-0.1,0l0,0l0,0.1l0,0l0,0l0,0l0,0l-0.1,0l0,0L44.4,18l-0.1,0.1l-0.1,0.1l-0.1,0.1l0,0.1l0,0.1l0,0.1l0,0.1l0,0l0,0l0,0.1l0,0l0,0
	l0,0l0,0l0,0l-0.1,0l-0.1,0l0,0l0,0l0,0l0,0l0.1,0l0.2,0.1l0,0l0,0l0,0l0,0l0,0l0,0l0,0L44,19.2l0,0l0,0.1l0,0.1l0,0l0,0l-0.1,0
	l-0.3-0.2l-0.4-0.2l-0.2-0.1l-0.2-0.1l0,0l0,0l0-0.1l0,0l0,0l0.2,0.1h0l0,0l0,0l0,0l-0.3-0.1l0,0l0,0l0-0.2l0-0.2l0,0l0,0l0.1,0H43
	l0.2,0l0,0l0,0l0,0l0,0l0,0l-0.3,0l0,0l0,0l0-0.2l-0.1-0.1l0,0l0,0l0.1-0.1l0.5-0.3l0,0l0,0l0,0h0l-0.1,0l-0.4,0.2l-0.1,0.1l0,0l0,0
	l0-0.1l-0.1-0.1l-0.1-0.1L42.2,17l0,0l0-0.1l0-0.2l0-0.1l0,0l0,0l0.1,0.3l0.1,0.2l0.1,0.2l0.1,0.1l0.1,0.1l0,0l0,0l0-0.1l0-0.1
	l0.1-0.2l0.1-0.2l0.1-0.1l0-0.1l0.1-0.2l0-0.1l0-0.1l0,0l0,0l0,0.1l0,0.1l0,0.2l0.1,0.3l0,0.1l0,0.1l0,0.2l0,0.2l0,0.1l0,0.2
	l-0.1,0.4l0,0.3l0,0.1l0,0.1l0,0.1l0,0.1l0,0.1l0.1,0.1l0.1,0l0.1,0l0.1,0l0.1,0l0.1,0l0.1-0.1l0-0.1l0-0.1l0-0.1v-0.1l0-0.2
	l-0.1-0.6l0-0.1l0-0.2l0-0.2l0.1-0.2l0.1-0.2l0.1-0.2l0-0.2l0-0.2l0-0.2l0-0.1l0-0.2l0-0.1l0-0.1l0-0.1l0.1-0.1l0.1-0.1l0.1-0.1
	l0.2-0.1l0.2-0.1l0.2-0.1l0.1-0.1l0.2-0.2l0.1-0.1l0.1,0l0.1,0l0.1,0l0.1,0l0,0l0,0.1l0,0.1l0.1,0.4l0.1,0.2l0.1,0.2l0,0.1l0,0.2
	l0,0.1l0,0.2L46,16.5l0,0.1l0,0.2l0,0.1l0,0.2l0,0.1l0,0.1l0,0.1l0.1,0.1l0.1,0.1l0.1,0l0.1,0l0.1,0l0.1,0l0.1,0l0.1-0.1l0.1-0.1
	l0-0.1l0-0.1l0-0.1l0-0.1l0-0.2l-0.1-0.6l0-0.1l0-0.2l0-0.1l0-0.1l0-0.1l0.1-0.1l0.2-0.1l0.1-0.1l0.1-0.1l0-0.1l0-0.1l0-0.1l0,0l0,0
	l0,0l0,0l0.1,0.1l0.1,0.1l0.1,0.2l0,0.2l0,0.2l0.1,0.2l0.1,0.2l0.1,0.1l0,0l0.1,0.1l0.2,0.3l0.2,0.4l0.1,0.2l0.1,0.3l0,0.2l0,0.2
	l0,0.1l0,0h0L48.1,17.9L48.1,17.9L48.1,17.9z M43.3,18.3l0-0.2l0.1-0.6l0,0l0,0l0.1,0.7l0,0.2l0,0.2l0,0.1l0,0l0,0l0,0l-0.1,0l0,0
	l0,0l0-0.1l0-0.1L43.3,18.3z M48.7,19.9l0,0.1l0,0.1l0,0.1l-0.1,0l-0.1,0l0,0l-0.1,0l-0.1,0l-0.1-0.1l0-0.1l0-0.1l0-0.2l0-0.1l0-0.3
	l0-0.2l0-0.1l0,0l0-0.1l0-0.2l0-0.1l0.1-0.4l0-0.2l0,0l0,0l0,0.2l0,0.2l0.1,0.2l0,0.1l0,0.2l0,0.3l0,0.2L48.7,19.9z M48.9,18
	L48.9,18L48.9,18l-0.1,0l-0.1,0l0,0l-0.1,0l-0.1,0l0,0l0,0l0-0.1l0,0l0,0l0.1,0l0,0l0.1,0l0,0l0.1,0.1L48.9,18L48.9,18L48.9,18z
	 M51,17.3L51,17.3l-0.1,0.1l-0.1,0.1l-0.1,0.2l-0.1,0.1l0,0l-0.1,0l0,0l0,0l-0.1,0.1l0,0.1l-0.1,0.1l0,0.1l0,0l0,0l-0.1,0l0,0l0,0h0
	l0,0l0,0l-0.1,0l0,0l-0.1,0l0,0l-0.1,0l0,0l0,0l0,0l0,0l0,0l0,0l0,0l0,0l0.2-0.1l0,0l0,0l0,0l0,0.1l-0.1,0.1l0,0l0,0l0,0l0,0l0.1,0
	l0,0l0.2-0.2l0,0l0,0l0-0.1l0,0l0,0l0,0l0,0l0,0v-0.1l0,0l0.1-0.1l0,0l0.1,0l0.1-0.1l0,0l0,0l0.1,0L51,17.3l0-0.1l0,0L51,17.3
	L51,17.3L51,17.3z M51.2,16.7L51.2,16.7L51.2,16.7l-0.2,0l0,0l0,0l0-0.1l0.2-0.2l0.1-0.1l0,0l0,0l0,0l0,0l-0.1,0.1l-0.2,0.2l-0.1,0
	h0l0,0l-0.4-0.4L50,15.8l0-0.1l-0.2-0.3l0-0.1l0,0l0,0l0.1-0.1l0.1-0.1l0,0l0,0l0,0l0,0l-0.2,0.2l-0.1,0.1l0,0l0,0l-0.1-0.1
	l-0.1-0.1L49.4,15l-0.1-0.1l0,0l0,0l0,0l0,0l0,0l0,0l0,0.1l0.3,0.4l0,0l0,0l0,0l-0.2,0.2l-0.2,0.1l0,0v0l0,0l0,0l0.1,0l0.2-0.2
	l0.1-0.1l0.1-0.1l0,0l0,0l0.1,0.1l0.2,0.3l0.1,0.1l0.2,0.2l0.5,0.5l0,0l0.1,0.1l0,0l0,0l-0.2,0l0,0l-0.1,0l-0.1,0l0,0l0,0l0,0
	l-0.1,0l-0.1,0l-0.1,0l0,0L49.9,17l0,0l-0.1,0l-0.1,0.1l0,0l0,0l0,0.1l0,0l0,0l0,0l0.2,0l0,0l0,0l0,0.1l0,0.1l0,0l-0.1,0.1l0,0l0,0
	l-0.1,0l-0.1,0l-0.1,0l0,0l0,0l-0.1,0.2l0,0l0,0l-0.1,0l0,0l-0.1,0l0,0l0,0l0,0l-0.1-0.2l0,0l0,0l0,0l0,0l0,0l0.1,0l0,0l0.1-0.1l0,0
	l0,0l0.1,0l0,0l0,0l0,0l-0.1,0l0,0l-0.1,0l-0.1,0l-0.1,0l-0.1,0l0,0l0,0l-0.1,0.1l0,0l-0.1,0l0,0l0,0l0,0l0,0l0,0l0.2-0.4l0.1-0.3
	l0.1-0.2l0-0.1l0-0.2l0-0.5l0-0.4l0-0.1l0-0.1l0.1-0.1l0.1-0.1l0.1-0.1l0.1,0l0.1,0h0.1l0.1,0l0.1,0l0.1,0.1l0.1,0.1l0.1,0.1
	l0.1,0.3l0.1,0.1l0.1,0.1l0.1,0.1l0.1,0.1l0.3,0.1l0.2,0.1l0.1,0.1l0.1,0.1l0.1,0.1l0,0.1l0,0.2L51.2,16.7L51.2,16.7L51.2,16.7
	L51.2,16.7L51.2,16.7z M52.3,17.8L52.3,17.8L52.2,18l0,0l0,0l0,0l0-0.1l0-0.1l0,0l0,0l0,0l0,0l0,0l0-0.1l0,0l0-0.1l0-0.1l0-0.1l0,0
	l0-0.1l0.1-0.1l0-0.1l0,0l0,0L52.1,17l0,0v0l0,0l0.1-0.1l0-0.1l0,0l0,0l0,0l0,0.1l0,0.1L52,16.8l0,0l0,0l-0.1,0l-0.1,0l0,0l0,0
	l0-0.2l0-0.1l0-0.2l0-0.2l0.1-0.2l0.1-0.2l0-0.1l0-0.2l0-0.1l0-0.1l0,0l0,0l0,0l0,0l0,0l0,0.1l0,0.1l0,0.1v0.2l0,0.2l0,0.1l0,0.1
	l0,0.3l0,0.1l0,0.1l0,0.2l0,0.2l0,0.3L52.3,17.8z M53.1,15.4l0,0.2l0,0.2l0,0.1l0,0l0,0.1l0,0.2l-0.1,0.4l0,0.4l0,0.1l0,0.5l0,0.5
	l0,0.2l0,0.1l-0.1,0.3l0,0.1l0,0l0,0l-0.1-0.2l-0.1-0.2l0-0.2l0-0.3l0-0.5l0-0.2l-0.1-0.4l-0.1-0.3l0-0.1l0-0.2l0-0.3l0-0.2l0-0.1
	l0-0.2l0-0.1l0-0.2l0-0.1l-0.1-0.1L52.2,15l-0.1,0l-0.1,0L52,15l-0.1,0L51.9,15l-0.1,0.1l0,0.1l-0.1,0.2l0,0.1l0,0.3l-0.1,0.2l0,0.1
	l-0.1,0.3l0,0.2l0,0.1l0,0.1l0,0.1l0,0.1l0,0.1l0,0.1l0.1,0.3l0,0.2l0,0.1l0,0.1l0,0.1l0,0l-0.1,0l0,0l-0.1,0l0,0l0,0l0-0.1l0-0.1
	l0-0.1l0-0.1l0-0.1l0-0.2l0.1-0.5l0-0.2l0-0.2l0-0.1l0-0.1l0-0.1l-0.1-0.1l-0.1-0.2l-0.1-0.2L51,15.5l-0.2-0.1l-0.2-0.1l-0.1-0.1
	L50.3,15l-0.1-0.1l-0.1-0.2L50,14.5l-0.1-0.1l-0.1-0.1l-0.1,0l-0.1,0l-0.1,0l-0.1,0l-0.1,0l-0.1,0l-0.1,0.1l-0.1,0.1L49,14.6l0,0.1
	l0,0.1l0,0.2l0,0.3l0,0.4l0,0l0,0.3l0,0.2l0,0.2l-0.1,0.2l-0.1,0.2l-0.1,0.2l-0.1,0.2l0,0.2l0,0.1l0,0l-0.1-0.2l-0.1-0.2l-0.1-0.2
	L48,16.4L48,16.3l-0.1-0.2L47.8,16l-0.1-0.2l-0.1-0.3L47.6,15l-0.1-0.2l-0.1-0.1l-0.1-0.1l-0.1-0.1l0,0l0,0l0,0l-0.1,0h-0.1l-0.1,0
	l-0.1,0L47,14.5l-0.1,0.1l-0.1,0.2L46.8,15l-0.1,0.1l-0.2,0.2l-0.1,0.1l0,0.1l0,0.1l0,0.1l0,0.3l0,0.3l0.1,0.6l0,0.2l0,0.1l0,0.1
	l0,0.1l0,0l0,0l0,0l0,0l0,0l0,0l0-0.1l0-0.1l0-0.2l0-0.2l0.1-0.4l0-0.2l0-0.2l0-0.2l0-0.2l-0.1-0.2l0-0.1l0-0.2l0-0.2l0-0.1l0-0.1
	l-0.1-0.1l-0.1-0.1l-0.1-0.1l-0.1,0l-0.1,0l0,0l-0.1,0l-0.1,0l-0.1,0l-0.1,0.1L45,14.7l-0.1,0.1l-0.1,0.1l-0.2,0.1L44.4,15l-0.1,0
	l-0.1,0.1L44,15.2L44,15.3l-0.1,0.1l0,0.1l0,0.1l0,0.2l0,0.2l0,0.3l0,0.2l0,0.1L43.6,17l-0.1,0.2l0,0l0-0.1l0-0.1l-0.1-0.3l-0.1-0.1
	l-0.1-0.2l0-0.2l0-0.2l0-0.4l0-0.1l0-0.1l0,0l0,0l0,0l0,0l0,0l0,0.1l0,0.1l-0.1,0.4l0,0.2l-0.1,0.1l0,0.1l-0.1,0.2l0,0.1l0,0l0,0
	l0,0l0,0l0-0.1l0-0.1l-0.1-0.3l0-0.1l0-0.2l0-0.2l0,0l0,0l0,0l0,0l0,0l0,0l0,0.1l0,0.2l0,0.1l0,0.1l-0.1,0.4l-0.1,0.4l-0.1,0.3
	l0,0.2l0,0.2l0,0.2l0,0.2l0,0l0,0.1l0.1,0.5l0.1,0.4l0,0.3l0,0.1l0,0.1l0,0.1l0,0.1l0,0l-0.1,0l-0.1,0l-0.1,0l0,0l-0.1-0.1L41.5,20
	l0-0.1l0-0.1l0-0.1l0-0.2l0-0.3l0.1-0.5l0.1-0.3l0-0.1l0-0.2l0-0.1l0-0.1l0-0.2v-0.4l0-0.3l-0.1-0.4l-0.1-0.5l0-0.2l-0.1-0.7l0-0.3
	l0-0.7l0.1-0.7l0.1-0.3l0.1-0.3l0.1-0.3l0.1-0.3l0.2-0.4l0.2-0.4l0.3-0.4l0.2-0.2l0.2-0.3l0.2-0.3l0.3-0.3l0.3-0.2l0.2-0.2L44,9.8
	l0.1-0.1l0,0l0,0l0,0l0,0l0.1,0l0.1,0l0.1,0l0.1,0l0.1-0.1l0.1-0.1l0,0l0,0l0,0l0,0.1l0,0l0.1,0l0.1,0l0,0l0.1,0l0.1,0l0.1,0
	l0.1-0.1l0.2-0.2l0.2-0.3L46,9l0.1,0l0.1,0l0.1,0l0,0l0,0l0,0l0,0l-0.1,0l-0.1,0L45.9,9L45.8,9l-0.2,0.2l-0.1,0.1l-0.1,0.1l-0.1,0
	l-0.1,0l-0.1,0l0,0l0,0l0-0.1l0-0.1l0-0.1L45.2,9l0.1-0.1l0.1-0.1l0.1-0.1l0.1-0.1l0.2-0.1l0.1,0l0.2,0l0.2,0l0.1,0l0.2,0.1l0.1,0.1
	l0.1,0.1l0,0L47,9l0,0l0,0l0,0l0-0.1V8.4l0-0.4l0-0.3l0-0.1l0-0.3l0-0.1l0-0.5l0-0.3l0-0.1L46.8,6l0-0.1l-0.1-0.1l0-0.1l0,0l0-0.1
	l0-0.2l0.1-0.2l0.1-0.2L47,4.8l0.2-0.2l0.2-0.2l0.3-0.3L47.8,4l0.1-0.1l0.2-0.2l0.3-0.2l0.3-0.2l0.2-0.1L49,3.2l0.1,0l0.1,0l0.1,0
	l0,0l0,0.1l0,0.1l-0.1,0.2L49,3.9L48.9,4l-0.1,0.1l-0.1,0.2l-0.2,0.3l-0.2,0.2l-0.4,0.3l-0.2,0.2l-0.1,0.1l0,0.1l0,0.1l0,0.1l0,0.8
	l0,0.2l0,0l0,0.1l0,0.5l0,0.7l0,0.1l0,0.5l0,0.4l0,0l0,0h0l0.2-0.1l0.1,0l0.1-0.1l0.1,0l0.1,0l0.1,0l0.1,0l0.1,0l0.1,0.1l0.1,0.1
	l0.1,0.1l0,0.1l0,0.1l0,0.1l0,0.1l-0.1,0.1l-0.1,0.1l-0.1,0l0,0l0,0l0,0l0.1,0l0.1,0l0.1,0l0.1-0.1l0.1-0.1l0-0.1l0-0.1l0-0.1l0-0.1
	l0-0.1l0-0.1l0,0l0,0l0.1,0.1l0.1,0L49,9l0.1,0.1l0.2,0.2l0.1,0.1l0.2,0.1l0.1,0.1l0.1,0l0.1,0l0.1,0l0.1,0l0,0l0.2,0.1l0.2,0.1
	l0.3,0.2l0.3,0.2l0.1,0.1l0.2,0.2l0,0l0.1,0.1l0.2,0.2l0,0l0.1,0.1l0.2,0.2l0,0l0.3,0.4l0.1,0.2l0.1,0.3l0.1,0.2l0,0l0.1,0.2
	l0.1,0.3l0.1,0.4l0,0.2l0.1,0.3l0.1,0.4l0,0.2l0,0l0,0.1l0,0.1l0,0l0,0.1l0,0.5L53.1,15.4z"/>
<polygon class="st2" points="43.9,17.9 43.9,17.9 43.8,17.9 43.8,17.8 43.8,17.8 43.9,17.8 44.2,17.8 44.6,17.7 44.6,17.7 
	44.6,17.7 44.5,17.5 44.4,17.2 44.3,17 44.2,16.8 44.1,16.7 44.1,16.7 44.1,16.6 44.1,16.7 44,16.7 44,16.6 44.1,16.6 44.1,16.6 
	44.1,16.5 44.1,16.5 44.1,16.5 44.1,16.5 44.2,16.5 44.2,16.5 44.4,16.4 44.6,16.3 45.1,16 45.5,15.7 45.6,15.7 45.6,15.7 
	45.6,15.6 45.5,15.5 45.4,15.2 45.3,15.2 45.2,15 45.2,15 45.2,15 45.2,15 45.3,15 45.3,15 45.5,15.3 45.6,15.5 45.7,15.6 
	45.7,15.6 45.7,15.6 45.9,15.6 45.9,15.5 45.9,15.6 45.9,15.6 45.9,15.6 45.8,15.7 45.8,15.7 45.8,15.8 45.8,15.8 46,16.1 46,16.2 
	46,16.3 46,16.3 46,16.3 46,16.3 45.9,16.2 45.7,15.8 45.7,15.8 45.6,15.8 45.6,15.8 45.4,15.9 45.3,15.9 45.3,16 45.3,16 
	44.8,16.2 44.2,16.6 44.2,16.6 44.2,16.6 44.4,16.9 44.5,17.1 44.5,17.3 44.6,17.7 44.6,17.7 44.6,17.7 44.6,17.8 44.6,17.8 
	44.2,17.8 43.9,17.9 "/>
<polygon class="st2" points="44.7,17.8 44.7,17.8 44.7,17.8 44.7,17.8 44.7,17.8 44.8,17.8 44.8,17.8 44.8,17.8 44.8,17.8 
	44.8,17.8 44.7,17.8 "/>
<polygon class="st2" points="46.8,17.2 46.7,17.2 46.7,17.1 46.7,17.1 46.8,17.1 47,17 47.3,16.9 47.7,16.7 47.8,16.6 47.8,16.6 
	47.8,16.6 47.8,16.7 47.8,16.7 47.7,16.7 47.3,16.9 47,17.1 46.8,17.2 46.8,17.2 "/>
<polygon class="st2" points="44.6,13.9 44.6,13.9 44.5,13.9 44.5,12.9 44.6,12.9 44.6,12.9 45.2,12.9 45.3,12.9 45.3,12.9 
	45.3,13.1 45.3,13.1 45.3,13.1 44.8,13.1 44.8,13.1 44.8,13.2 44.8,13.2 44.8,13.3 44.8,13.3 45.2,13.3 45.2,13.3 45.2,13.3 
	45.2,13.5 45.2,13.5 45.2,13.5 44.8,13.5 44.8,13.5 44.8,13.6 44.8,13.7 44.8,13.7 44.8,13.7 45.2,13.7 45.3,13.7 45.3,13.7 
	45.3,13.9 45.3,13.9 45.3,13.9 44.6,13.9 "/>
<polygon class="st2" points="48.3,13.9 48.1,13.9 48.1,13.9 48.1,13.9 48.1,13.1 48.1,13.1 48,13.1 47.8,13.1 47.8,13.1 47.8,13 
	47.8,12.9 47.8,12.9 47.8,12.9 48.6,12.9 48.6,12.9 48.7,12.9 48.7,13.1 48.6,13.1 48.6,13.1 48.4,13.1 48.4,13.1 48.4,13.1 
	48.3,13.9 48.3,13.9 48.3,13.9 "/>
<polygon class="st2" points="49.1,13.9 48.9,13.9 48.9,13.9 48.9,13.9 48.9,12.9 48.9,12.9 48.9,12.9 49.1,12.9 49.1,12.9 
	49.1,12.9 49.1,13.2 49.1,13.3 49.1,13.3 49.5,13.3 49.5,13.3 49.6,13.2 49.6,12.9 49.6,12.9 49.6,12.9 49.8,12.9 49.8,12.9 
	49.8,12.9 49.8,13.9 49.8,13.9 49.8,13.9 49.6,13.9 49.6,13.9 49.6,13.9 49.6,13.6 49.6,13.5 49.5,13.5 49.1,13.5 49.1,13.5 
	49.1,13.6 49.1,13.9 49.1,13.9 49.1,13.9 49.1,13.9 "/>
<path class="st2" d="M45.5,13.9L45.5,13.9L45.5,13.9l0.3-1l0,0l0,0l0.3,0l0,0l0,0l0.4,1l0,0l0,0l-0.2,0l-0.1,0l0,0l-0.1-0.2l0,0
	l-0.4,0l0,0l-0.1,0.2l0,0l0,0H45.5L45.5,13.9z M46.1,13.5L46.1,13.5L46.1,13.5L46,13.1h0l-0.1,0.3l0,0l0,0L46.1,13.5L46.1,13.5z"/>
<path class="st2" d="M47.4,13.9L47.4,13.9l-0.2-0.3l0,0l-0.1,0l0,0l0,0l0,0.3l0,0l0,0h-0.2l0,0l0,0l0-1l0,0l0,0l0.5,0l0.1,0l0.1,0
	l0.1,0l0.1,0.1l0,0.1l0,0.1l0,0.1l0,0.1l0,0.1l-0.1,0.1l-0.1,0.1l0,0l0.2,0.4l0,0l0,0L47.4,13.9L47.4,13.9z M47.3,13.3L47.3,13.3
	L47.3,13.3L47.3,13.3l0.1-0.1l0-0.1l0,0l-0.1,0l-0.2,0l0,0l0,0l0,0.2l0,0l0,0L47.3,13.3L47.3,13.3L47.3,13.3z"/>
<polygon class="st2" points="46.7,12.6 46.7,12.6 46.7,12.5 46.7,11.6 46.7,11.5 46.7,11.5 46.9,11.5 46.9,11.5 46.9,11.6 
	46.9,11.9 46.9,11.9 46.9,11.9 47.3,11.9 47.3,11.9 47.3,11.9 47.3,11.6 47.3,11.6 47.4,11.5 47.4,11.5 47.6,11.5 47.6,11.5 
	47.6,11.6 47.6,12.5 47.6,12.6 47.6,12.6 47.4,12.6 47.4,12.6 47.3,12.5 47.3,12.2 47.3,12.2 47.3,12.2 47,12.2 46.9,12.2 
	46.9,12.2 46.9,12.5 46.9,12.6 46.9,12.6 46.7,12.6 "/>
<polygon class="st2" points="46.1,12.6 46,12.6 45.9,12.6 45.9,12.6 45.9,11.8 45.9,11.8 45.9,11.8 45.6,11.8 45.6,11.7 45.6,11.7 
	45.6,11.6 45.6,11.6 45.6,11.5 46.5,11.5 46.5,11.5 46.5,11.6 46.5,11.7 46.5,11.8 46.4,11.8 46.2,11.8 46.2,11.8 46.2,11.8 
	46.2,12.5 46.2,12.6 46.1,12.6 "/>
<polygon class="st2" points="48.6,12.6 48,12.6 48,12.6 47.9,12.5 47.9,11.6 48,11.5 48,11.5 48.6,11.5 48.7,11.5 48.7,11.6 
	48.7,11.7 48.7,11.8 48.6,11.8 48.2,11.8 48.2,11.8 48.2,11.8 48.2,11.9 48.2,11.9 48.2,11.9 48.3,11.9 48.6,11.9 48.6,11.9 
	48.6,12 48.6,12.1 48.6,12.2 48.6,12.2 48.2,12.2 48.2,12.2 48.2,12.2 48.2,12.3 48.2,12.3 48.2,12.3 48.7,12.3 48.7,12.3 
	48.7,12.4 48.7,12.6 48.7,12.6 48.6,12.6 "/>
<polygon class="st2" points="45,11.3 44.8,11.3 44.7,11.3 44.7,11.3 44.5,11.2 44.5,11.1 44.4,11.1 44.4,10.9 44.4,10.8 44.4,10.7 
	44.4,10.6 44.4,10.5 44.4,10.5 44.5,10.4 44.6,10.3 44.7,10.3 44.8,10.2 44.9,10.2 44.9,10.2 45.1,10.2 45.2,10.3 45.3,10.3 
	45.3,10.3 45.3,10.3 45.3,10.5 45.3,10.5 45.3,10.5 45.1,10.5 45,10.5 44.9,10.5 44.8,10.5 44.8,10.5 44.7,10.5 44.7,10.6 
	44.6,10.7 44.6,10.7 44.6,10.8 44.6,10.9 44.7,11 44.7,11 44.8,11.1 44.9,11.1 45,11.1 45.1,11.1 45.2,11 45.2,11 45.3,11 45.3,11 
	45.3,11 45.3,11.2 45.3,11.2 45.2,11.3 45.2,11.3 45,11.3 45,11.3 "/>
<polygon class="st2" points="47.3,11.3 47,11.3 47,11.2 47,11.2 46.7,10.3 46.7,10.2 46.7,10.2 46.7,10.2 46.9,10.2 46.9,10.2 
	46.9,10.3 47.1,10.9 47.1,11 47.2,11 47.2,11 47.4,10.3 47.4,10.2 47.4,10.2 47.6,10.2 47.6,10.2 47.6,10.2 47.6,10.3 47.3,11.2 
	47.3,11.3 47.3,11.3 "/>
<polygon class="st2" points="47.9,11.2 47.9,11.2 47.8,11.2 47.9,10.2 47.9,10.2 47.9,10.2 47.9,10.2 48.5,10.2 48.6,10.2 
	48.6,10.2 48.6,10.4 48.6,10.4 48.5,10.4 48.1,10.4 48.1,10.4 48.1,10.5 48.1,10.6 48.1,10.6 48.2,10.6 48.5,10.6 48.5,10.6 
	48.5,10.6 48.5,10.8 48.5,10.8 48.5,10.8 48.2,10.8 48.1,10.8 48.1,10.9 48.1,11 48.1,11 48.2,11 48.6,11 48.6,11 48.6,11.1 
	48.6,11.2 48.6,11.2 48.6,11.2 47.9,11.2 "/>
<path class="st2" d="M46,11.3l-0.1,0l-0.1,0l-0.1,0l-0.1,0l-0.1-0.1L45.5,11l0-0.1l0-0.1v-0.1l0-0.1l0-0.1l0.1-0.1l0.1-0.1l0.1,0
	l0.1,0l0.1,0l0.1,0l0.1,0l0.1,0.1l0.1,0.1l0.1,0.1l0,0.1l0,0.1l0,0.1v0.1l0,0.1l0,0.1l-0.1,0.1l-0.1,0.1l-0.1,0.1l-0.1,0L46,11.3
	L46,11.3L46,11.3z M46.1,11.1L46.1,11.1l0.1-0.1l0.1-0.1l0-0.1l0-0.1l0-0.1l0-0.1l0-0.1l-0.1-0.1l-0.1,0l-0.1,0l-0.1,0l-0.1,0
	l-0.1,0l-0.1,0.1l0,0.1l0,0.1l0,0.1l0,0.1l0,0.1l0.1,0.1l0.1,0L46.1,11.1L46.1,11.1L46.1,11.1L46.1,11.1z"/>
<path class="st2" d="M49.7,11.2l-0.2,0l0,0L49.3,11l0,0l0,0h-0.1l0,0l0,0l0,0.3l0,0l0,0h-0.2l0,0l0,0l0-1l0,0l0,0h0.5l0.1,0l0.1,0
	l0.1,0l0.1,0.1l0,0.1l0,0.1l0,0.1l0,0.1l0,0.1l0,0.1l0,0l-0.1,0.1l0,0L49.7,11.2L49.7,11.2L49.7,11.2L49.7,11.2L49.7,11.2z
	 M49.4,10.7L49.4,10.7L49.4,10.7l0.1-0.1l0-0.1l0,0l0,0l0,0l-0.2,0l0,0l0,0l0,0.2l0,0l0,0H49.4L49.4,10.7z"/>
<polygon class="st2" points="48.1,9.3 48,9.3 48,9.3 48,9.2 47.9,9.1 47.8,9.1 47.8,9 47.7,9 47.6,9 47.5,9 47.5,9 47.5,9 47.5,8.9 
	47.6,8.9 47.7,8.9 47.7,8.8 47.8,8.8 47.9,8.9 47.9,8.9 48,9 48,9 48,9.1 48.1,9.3 48.1,9.3 "/>
<path class="st2" d="M46.3,4l-0.1-0.1l-0.1-0.1l-0.2-0.3l-0.7-1L45,2.3l0,0l0,0l0,0.1l-0.1,0.1l0,0l0,0.1L45,2.7L45,2.8l0.1,0.2
	L45.2,3l0,0l-0.1,0.1l0,0.1l0,0.1l0,0.1l0,0.1l0.1,0.1l0.1,0.2l0.1,0.2l0.1,0.1l0.1,0.1l0.1,0.1l0.1,0l0.1,0l0.1,0l0.1,0l0.1-0.1
	l0.1-0.1L46.3,4L46.3,4L46.3,4z M46,4L46,4L46,4l-0.1,0l-0.1,0L45.7,4l-0.1-0.1l-0.1-0.2l-0.1-0.1l0-0.1l0,0l0-0.1l0-0.1l0,0h0l0,0
	L46,4L46,4L46,4z"/>
<polygon class="st2" points="46.4,3.9 46.3,3.9 46.1,3.5 45.8,3 45.5,2.4 45.2,1.9 45.2,1.9 45.3,1.8 45.3,1.7 45.4,1.7 45.4,1.7 
	45.4,1.7 45.4,1.7 45.5,1.8 45.6,1.8 46.2,2.5 46.4,2.6 46.4,2.6 46.4,2.6 46.2,2.3 45.7,1.6 45.7,1.5 45.7,1.5 45.7,1.4 45.8,1.3 
	45.9,1.3 45.9,1.3 46,1.4 46.1,1.5 47,2.4 47.4,2.8 47.5,2.8 47.5,2.8 47.4,2.9 47.3,3 47.3,3 47.2,3 47.2,2.9 47,2.7 46.9,2.6 
	46.8,2.5 46.7,2.4 46.4,2.1 46.2,1.9 46.2,1.9 46.2,1.9 46.2,2 46.4,2.3 46.7,2.7 46.8,2.8 46.9,3 47,3.2 47,3.2 47,3.2 46.8,3.4 
	46.8,3.4 46.8,3.4 46.7,3.3 46.5,3.1 46.3,2.9 45.8,2.4 45.8,2.3 45.8,2.3 45.8,2.4 46.1,3 46.5,3.7 46.5,3.7 46.5,3.7 46.4,3.9 
	46.4,3.9 "/>
<polygon class="st2" points="47.6,2.7 47.5,2.7 47.4,2.6 47.4,2.6 47.2,2.4 47.1,2.3 47.1,2.3 47.1,2.3 47.2,2.3 47.3,2.2 47.3,2.2 
	47.3,2.2 47.4,2.3 47.5,2.3 47.5,2.4 47.6,2.4 47.6,2.4 47.7,2.3 47.7,2.3 47.7,2.3 47.6,2.2 47.5,2.1 47.4,2.1 47.2,2 46.9,1.8 
	46.6,1.7 46.5,1.6 46.4,1.5 46.3,1.4 46.3,1.3 46.3,1.2 46.3,1.2 46.3,1.1 46.3,1 46.4,1 46.5,0.9 46.6,0.9 46.7,0.9 46.8,0.9 
	46.9,1 47,1.1 47.2,1.2 47.2,1.2 47.2,1.2 47.1,1.3 47,1.3 47,1.3 46.9,1.3 46.8,1.2 46.8,1.2 46.7,1.2 46.6,1.2 46.6,1.2 46.6,1.2 
	46.6,1.3 46.6,1.3 46.7,1.4 46.8,1.5 46.9,1.5 47,1.6 47,1.6 47.1,1.6 47.4,1.7 47.5,1.8 47.7,1.9 47.8,2 47.9,2.1 47.9,2.1 48,2.2 
	48,2.3 48,2.4 48,2.4 47.9,2.5 47.9,2.6 47.8,2.6 47.7,2.7 47.7,2.7 47.6,2.7 "/>
<path class="st2" d="M51,21.8c0.3,0,0.5,0.2,0.5,0.5s-0.2,0.5-0.5,0.5c-0.3,0-0.5-0.2-0.5-0.5S50.7,21.8,51,21.8z M51,22.7
	c0.2,0,0.4-0.2,0.4-0.4c0-0.2-0.2-0.4-0.4-0.4c-0.2,0-0.4,0.2-0.4,0.4C50.6,22.6,50.8,22.7,51,22.7z M50.8,22H51
	c0.1,0,0.2,0,0.2,0.2c0,0.1-0.1,0.1-0.1,0.1l0.1,0.2h-0.1L51,22.4h-0.1v0.2h-0.1V22z M51,22.3C51.1,22.3,51.1,22.3,51,22.3
	c0.1-0.1,0-0.1,0-0.1h-0.1L51,22.3L51,22.3z"/>
</svg>
