<?xml version="1.0" encoding="utf-8"?>
<!-- Generator: Adobe Illustrator 26.0.1, SVG Export Plug-In . SVG Version: 6.00 Build 0)  -->
<svg version="1.1" id="Layer_1" xmlns="http://www.w3.org/2000/svg" xmlns:xlink="http://www.w3.org/1999/xlink" x="0px" y="0px"
	 viewBox="0 0 95 35" style="enable-background:new 0 0 95 35;" xml:space="preserve">
<style type="text/css">
	.st0{fill-rule:evenodd;clip-rule:evenodd;fill:#CCCCCC;}
</style>
<g>
	<path class="st0" d="M27.5,24.4h-3V6.8h3V24.4z M12.9,13.2c0-0.4-0.3-0.6-0.6-0.6c-0.3,0-0.6,0.2-0.6,0.6v8.5
		c0,0.4,0.3,0.6,0.6,0.6c0.3,0,0.6-0.2,0.6-0.6v-2.8h3v2.6c0,2.1-1.6,3.2-3.6,3.2c-1.9,0-3.6-1-3.6-3.2v-8c0-2.1,1.7-3.2,3.6-3.2
		c1.9,0,3.6,1.1,3.6,3.2v2.3h-3V13.2z M19.6,13.5c0-0.4,0.3-0.6,0.6-0.6c0.3,0,0.6,0.2,0.6,0.6v10.9h3V12.8c0-1.9-1.2-2.6-2.2-2.6
		c-1,0-1.8,0.8-2,1.1h0V6.8h-3v17.6h3L19.6,13.5L19.6,13.5z M32.4,21.4c0,0.4-0.3,0.6-0.6,0.6c-0.3,0-0.6-0.2-0.6-0.6v-11h-3v11.7
		c0,1.5,1.1,2.5,2.2,2.5c1.2,0,1.8-0.8,2-1.2h0.1l0.1,1h2.9v-14h-3L32.4,21.4L32.4,21.4z M39.1,24.4h-3v-14h2.9l0,1h0.1
		c0.2-0.4,0.9-1.1,2-1.1c1.1,0,1.8,0.9,2,1.4h0c0.2-0.5,1-1.4,2.1-1.4c1.1,0,2.2,0.8,2.2,2.7v11.5h-3v-11c0-0.4-0.3-0.6-0.6-0.6
		c-0.3,0-0.6,0.2-0.6,0.6v11h-3v-11c0-0.4-0.3-0.6-0.6-0.6c-0.3,0-0.6,0.2-0.6,0.6L39.1,24.4L39.1,24.4z M53.2,10.2
		c-1,0-1.7,0.8-1.9,1.1h-0.1V6.8h-3v17.6h2.9l0-1h0.1c0.1,0.4,0.8,1.1,1.9,1.1c1.3,0,2.3-1.1,2.3-2.7v-9.1
		C55.5,11.2,54.4,10.2,53.2,10.2L53.2,10.2z M52.5,21.4c0,0.4-0.3,0.6-0.6,0.6c-0.3,0-0.6-0.2-0.6-0.6v-8c0-0.4,0.3-0.6,0.6-0.6
		c0.3,0,0.6,0.2,0.6,0.6V21.4z M59.2,21.7c0,0.4,0.3,0.6,0.6,0.6s0.6-0.2,0.6-0.6v-2.8h3v2.6c0,2.1-1.7,3.2-3.6,3.2
		c-1.9,0-3.6-1-3.6-3.2v-8c0-2.1,1.7-3.2,3.6-3.2c1.9,0,3.6,1.1,3.6,3.2v4.5h-4.2L59.2,21.7L59.2,21.7z M60.4,15.8v-2.6
		c0-0.4-0.3-0.6-0.6-0.6c-0.3,0-0.6,0.2-0.6,0.6l0,2.6L60.4,15.8z M67.7,12.8c-0.3,0-0.6,0.2-0.6,0.6v11h-3v-14H67l0.1,1h0.1
		c0.3-0.4,1-1.1,2-1.1c1.2,0,2.2,0.9,2.2,2.4v5.3h-3v-4.6C68.3,13,68,12.8,67.7,12.8L67.7,12.8z M82.9,21.7c0,0.4,0.3,0.6,0.6,0.6
		c0.3,0,0.6-0.2,0.6-0.6v-2.8h3v2.6c0,2.1-1.7,3.2-3.6,3.2c-1.9,0-3.6-1-3.6-3.2v-8c0-2.1,1.7-3.2,3.6-3.2c1.9,0,3.6,1.1,3.6,3.2
		v4.5h-4.2V21.7z M84.1,15.8v-2.6c0-0.4-0.3-0.6-0.6-0.6c-0.3,0-0.6,0.2-0.6,0.6l0,2.6L84.1,15.8z M91.4,12.8
		c-0.3,0-0.6,0.2-0.6,0.6v11h-3v-14h2.9l0.1,1h0.1c0.3-0.4,1-1.1,2-1.1c1.2,0,2.2,0.9,2.2,2.4v5.3h-3v-4.6
		C92,13,91.7,12.8,91.4,12.8L91.4,12.8z M76.2,20.5c0,0.4-0.3,0.6-0.6,0.6c-0.3,0-0.6-0.2-0.6-0.6v-7.1c0-0.4,0.3-0.6,0.6-0.6
		c0.3,0,0.6,0.2,0.6,0.6V20.5z M76.2,25.4c0,0.4-0.3,0.6-0.6,0.6c-0.3,0-0.6-0.2-0.6-0.6v-1.1h-3v0.8c0,2.2,1.5,3.2,3.6,3.2
		c2.1,0,3.6-1,3.6-3.2V10.4h-2.9l0,1h-0.1c-0.2-0.3-0.9-1.1-2-1.1c-1.1,0-2.2,0.8-2.2,2.3v8.4c0,1.6,1,2.5,2.2,2.5
		c1.1,0,1.7-0.7,1.9-1h0.1L76.2,25.4L76.2,25.4z M3.3,21.4c0,0.4,0.3,0.6,0.6,0.6c0.3,0,0.6-0.2,0.6-0.6v-1.7c0-1.3-0.3-1.8-1.3-2.7
		c-0.8-0.8-1.3-1.2-1.8-1.7C0.8,14.7,0,13.7,0,12V9.9c0-2.3,1.9-3.2,4-3.2c2,0,3.9,0.9,3.9,3.2v2.7H4.6V10c0-0.4-0.3-0.6-0.6-0.6
		c-0.3,0-0.6,0.2-0.6,0.6v1.3c0,1.1,0.3,1.6,1.3,2.4c0.4,0.4,1.2,1.2,1.8,1.8C7.6,16.6,8,17.6,8,19v2.4c0,2.5-2,3.3-4,3.3
		c-2.1,0-4-0.9-4-3.2v-3.4h3.3V21.4z"/>
</g>
</svg>
