<?xml version="1.0" encoding="utf-8"?>
<!-- Generator: Adobe Illustrator 26.0.1, SVG Export Plug-In . SVG Version: 6.00 Build 0)  -->
<svg version="1.1" id="Layer_1" xmlns="http://www.w3.org/2000/svg" xmlns:xlink="http://www.w3.org/1999/xlink" x="0px" y="0px"
	 viewBox="0 0 95 35" style="enable-background:new 0 0 95 35;" xml:space="preserve">
<style type="text/css">
	.st0{fill:#104076;}
	.st1{fill-rule:evenodd;clip-rule:evenodd;fill:#FFFFFF;}
</style>
<path class="st0" d="M-39.1,613.7"/>
<g>
	<path class="st1" d="M6.6,9.6c0-0.6-0.3-1.1-1.7-1.1c-1.4,0-1.7,0.5-1.7,1.1v1.7c0,0.5,0.2,1,0.7,1.5l4.8,4.1
		c0.7,0.6,1.1,1.3,1.1,2l0,2.6c0,1.5-1.8,2.4-4.8,2.4c-3.3,0-4.9-0.7-4.9-2.4v-2.2h3l0,2.2c0,0.8,0.6,1.2,1.9,1.2
		c1.2,0,1.8-0.5,1.8-1.2l0-2.3c0-0.6-0.2-1-0.9-1.6l-4.4-3.8c-0.8-0.7-1.3-1.2-1.3-2.1v-2c0-1.6,1.7-2.4,4.7-2.4
		c3.4,0,4.7,0.8,4.7,2.3l0,2.1l-3,0L6.6,9.6L6.6,9.6z"/>
	<path class="st1" d="M35.5,9.9c0-1.6,1.2-2.8,5.3-2.8c4,0,5.3,1.2,5.3,2.8L46,21c0,1.6-1.2,2.8-5.3,2.8c-4,0-5.3-1.2-5.3-2.8
		L35.5,9.9L35.5,9.9z M38.4,21c0,0.9,0.4,1.5,2.3,1.5c1.9,0,2.3-0.6,2.3-1.5l0-11c0-0.9-0.4-1.5-2.3-1.5c-1.9,0-2.3,0.6-2.3,1.5
		L38.4,21L38.4,21z"/>
	<path class="st1" d="M47.6,7.3l4.8,0c3.9,0,5,0.6,5,2.5l0,4c0,1.9-1.1,2.5-5,2.5h-1.8l0,7.4h-3L47.6,7.3L47.6,7.3z M52.1,15
		c1.4,0,2.3-0.2,2.3-1l0-4.4c0-0.8-1-1-2.3-1h-1.4l0,6.5H52.1L52.1,15z"/>
	<path class="st1" d="M64.8,9.5c0-0.6-0.3-1.1-1.7-1.1c-1.4,0-1.7,0.5-1.7,1.1v1.7c0,0.5,0.2,1,0.7,1.5l4.8,4.1
		c0.7,0.6,1.1,1.3,1.1,2l0,2.6c0,1.5-1.8,2.4-4.8,2.4c-3.3,0-4.9-0.7-4.9-2.4l0-2.2h3v2.2c0,0.8,0.6,1.2,1.9,1.2
		c1.2,0,1.8-0.5,1.8-1.2V19c0-0.6-0.2-1-0.9-1.6l-4.4-3.8c-0.8-0.7-1.3-1.2-1.3-2.1v-2c0-1.6,1.7-2.4,4.7-2.4c3.4,0,4.7,0.8,4.7,2.3
		l0,2.1h-3V9.5L64.8,9.5z"/>
	<path class="st1" d="M86.9,9.5c0-0.6-0.3-1.1-1.7-1.1c-1.4,0-1.7,0.5-1.7,1.1l0,1.7c0,0.5,0.2,1,0.7,1.5l4.8,4.1
		c0.7,0.6,1.1,1.3,1.1,2l0,2.6c0,1.5-1.8,2.4-4.8,2.4c-3.3,0-4.9-0.7-4.9-2.4v-2.2h3l0,2.2c0,0.8,0.6,1.2,1.9,1.2
		c1.2,0,1.8-0.5,1.8-1.2l0-2.3c0-0.6-0.2-1-0.9-1.6l-4.4-3.8c-0.8-0.7-1.3-1.2-1.3-2.1v-2c0-1.6,1.7-2.4,4.7-2.4
		c3.4,0,4.7,0.8,4.7,2.3v2.1h-3V9.5L86.9,9.5z"/>
	<polygon class="st1" points="19,7.3 21.9,7.3 15.4,27.8 12.4,27.8 19,7.3 	"/>
	<polygon class="st1" points="14.2,20.1 10.2,7.3 13.2,7.3 15.7,15.4 14.2,20.1 	"/>
	<polygon class="st1" points="77.1,7.3 80.1,7.3 73.6,27.8 70.6,27.8 77.1,7.3 	"/>
	<polygon class="st1" points="72.4,20 68.4,7.3 71.4,7.3 73.9,15.3 72.4,20 	"/>
	<path class="st1" d="M33.6,23.7L33.6,23.7l0-13.9c0-1.9-1.1-2.5-5-2.5h-5.8l0,16.4h3l0,0l0-15.1h2.5c1.4,0,2.3,0.2,2.3,1l0,14.1
		H33.6L33.6,23.7z"/>
	<path class="st1" d="M91.1,9.3c0-1.1,0.9-1.9,1.9-1.9c1,0,1.9,0.8,1.9,1.9c0,1.1-0.9,1.9-1.9,1.9C92,11.2,91.1,10.4,91.1,9.3
		L91.1,9.3z M93.1,10.9c0.9,0,1.5-0.7,1.5-1.6c0-0.9-0.7-1.6-1.5-1.6c-0.9,0-1.6,0.7-1.6,1.6C91.5,10.2,92.2,10.9,93.1,10.9
		L93.1,10.9z M92.7,10.4h-0.3V8.2h0.8c0.5,0,0.8,0.2,0.8,0.6c0,0.4-0.2,0.6-0.6,0.6l0.6,1h-0.4l-0.6-1h-0.4V10.4L92.7,10.4z
		 M93.1,9.2c0.3,0,0.5,0,0.5-0.4c0-0.3-0.2-0.3-0.5-0.3h-0.5v0.7H93.1L93.1,9.2z"/>
</g>
</svg>
