<?xml version="1.0" encoding="utf-8"?>
<!-- Generator: Adobe Illustrator 26.0.1, SVG Export Plug-In . SVG Version: 6.00 Build 0)  -->
<svg version="1.1" id="Layer_1" xmlns="http://www.w3.org/2000/svg" xmlns:xlink="http://www.w3.org/1999/xlink" x="0px" y="0px"
	 viewBox="0 0 95 35" style="enable-background:new 0 0 95 35;" xml:space="preserve">
<style type="text/css">
	.st0{fill:#CCCCCC;}
</style>
<path class="st0" d="M0,22.3h13.3l0,0l-8.9-2.2L0,22.3z"/>
<path class="st0" d="M0,22.3l4.4-2.2l-2.7-0.7L0,22.3z"/>
<path class="st0" d="M4.4,20.1l8.9,2.2l-3-5.2L4.4,20.1z"/>
<path class="st0" d="M6.6,10.8l-4.6,8l7.9-2.3L6.6,10.8L6.6,10.8z"/>
<g transform="matrix(.35278 0 0 -.35278 -71.91502 129.43078)">
	<path class="st0" d="M462.8,318.1l3.7-10.7l3.6,10.7h3c0,0-4.2-11.2-5.7-15.5c-1.4-3.9-3.8-4.1-5-4.1c-0.5,0-1.1,0.1-1.2,0.1
		l-0.4,2.6c0.1,0,0.8-0.3,1.6-0.3c1.5,0,2,1,2.2,1.7c0.2,0.7,0.4,1.3,0.4,1.3l-5.3,14.3L462.8,318.1z M458.5,314v-10.3h-2.9v9.3
		c0,1.6-0.5,2.7-2.3,2.7c-1.5,0-3-1.4-3.6-2.2v-9.9h-2.9v14.4h2.5l0.2-1.9c0.6,0.6,2.4,2.1,4.7,2.1
		C457.1,318.4,458.5,316.6,458.5,314 M441,310.9c-3.3-0.3-6-1-6-3c0-1.3,0.9-1.9,2.2-1.9c2,0,3.5,1.6,3.8,1.9V310.9z M441.3,303.7
		l-0.1,1.8c-0.3-0.4-1.7-2.1-4.3-2.1c-2.7,0-4.8,1.4-4.8,4.5c0,4.3,5.8,4.9,8.9,5.2v0.4c0,1-0.4,2.3-2.8,2.3c-2.2,0-4.4-1.1-4.7-1.3
		l-0.4,2.6c0.4,0.2,2.7,1.2,5.3,1.2c4.3,0,5.5-1.9,5.5-5.1v-9.6H441.3z M420.9,314v-7.5c0.2-0.1,1.4-0.5,2.7-0.5
		c2.8,0,4.2,2.2,4.2,5c0,3-1.3,5-3.6,5C422.6,315.9,421.2,314.3,420.9,314 M420.7,316.3c0.3,0.4,1.9,2.1,4.5,2.1
		c3.4,0,5.7-2.4,5.7-7.5c0-5.3-3.5-7.5-6.9-7.5c-1.4,0-2.7,0.5-3,0.6v-5l-2.9-0.8v19.9h2.4L420.7,316.3z M415.3,314v-10.3h-2.9v9.3
		c0,1.6-0.5,2.7-2.2,2.7c-1.5,0-2.9-1.4-3.5-2.2v-9.9h-2.9v9.3c0,1.6-0.5,2.7-2.2,2.7c-1.5,0-2.9-1.4-3.5-2.2v-9.9H395v14.4h2.5
		l0.2-1.9c0.6,0.6,2.4,2.1,4.7,2.1c2,0,3.2-0.8,3.8-2.2c0.9,0.9,2.7,2.2,4.9,2.2C414.1,318.4,415.3,316.6,415.3,314 M386.6,305.9
		c2.2,0,3.7,2.1,3.7,5c0,2.9-1.4,5-3.7,5c-2.5,0-3.7-2.4-3.7-5C382.9,308.1,384.2,305.9,386.6,305.9 M386.6,303.4
		c-3.7,0-6.7,2.4-6.7,7.5c0,5,3,7.5,6.7,7.5c3.8,0,6.6-2.6,6.6-7.5C393.2,306,390.2,303.4,386.6,303.4 M378.7,323l-0.4-3
		c-0.4,0.3-2.5,2-5.5,2c-4.3,0-6.4-3.5-6.4-7.9c0-4.7,2.3-7.9,6.4-7.9c2.9,0,5.1,1.6,5.8,2.2l0.4-3c-0.3-0.3-2.3-1.9-6.3-1.9
		c-5.6,0-9.6,4-9.6,10.6c0,6.5,4,10.6,9.6,10.6C376.4,324.7,378.2,323.3,378.7,323 M354.5,314v-10.3h-2.9v9.3c0,1.6-0.5,2.7-2.3,2.7
		c-1.5,0-3-1.4-3.6-2.2v-9.9h-2.9v14.4h2.5l0.2-1.9c0.6,0.6,2.5,2.1,4.7,2.1C353.1,318.4,354.5,316.6,354.5,314 M335.9,315.5
		c0.9,1.3,2.5,2.8,5,2.8l0.4-2.6c-2.3,0-3.9-0.9-5.2-3.1v-8.9h-2.9v14.4h2.4L335.9,315.5z M327.7,312.8c-0.2,1-0.6,3.3-3.2,3.3
		c-2.1,0-3-1.9-3.3-3.3H327.7z M321.1,310.5c0-1.5,0.6-4.5,4-4.5c2.7,0,4.7,1.6,5.1,2l0.4-2.6c-0.6-0.5-2.4-2-5.8-2
		c-3.9,0-6.6,2.7-6.6,7.5c0,5,3,7.5,6.4,7.5c4.3,0,6.1-3.5,6.1-7.2v-0.7L321.1,310.5z M316.1,314v-10.3h-2.9v9.3
		c0,1.6-0.6,2.7-2.3,2.7c-1.5,0-3-1.4-3.6-2.2v-9.9h-2.9v20.8l2.9,0.8v-8.9c0.6,0.5,2.3,2,4.6,2C314.7,318.4,316.1,316.6,316.1,314
		 M302,303.7c-0.1,0-1.1-0.3-2.2-0.3c-2.7,0-4.2,1.4-4.2,4.2v7.9h-2.1v2.5h2.1v3.9l2.9,0.8v-4.7h3l0.4-2.5h-3.4V308
		c0-1.3,0.7-1.8,1.8-1.8c0.6,0,1.2,0.1,1.3,0.1L302,303.7z M279.5,307.8v10.3h2.9v-9.3c0-1.7,0.5-2.7,2.3-2.7c1.5,0,3,1.4,3.6,2.2
		v9.9h2.9v-14.4h-2.5l-0.2,1.8c-0.6-0.5-2.4-2.1-4.7-2.1C280.9,303.4,279.5,305.2,279.5,307.8 M270.9,305.9c2.2,0,3.7,2.1,3.7,5
		c0,2.9-1.4,5-3.7,5c-2.5,0-3.7-2.4-3.7-5C267.2,308.1,268.6,305.9,270.9,305.9 M270.9,303.4c-3.7,0-6.7,2.4-6.7,7.5
		c0,5,3,7.5,6.7,7.5c3.8,0,6.6-2.6,6.6-7.5C277.6,306,274.6,303.4,270.9,303.4 M249.1,304.9l0.5,3c0.4-0.3,2.5-1.7,5.9-1.7
		c2.6,0,4.3,1.1,4.3,2.9c0,1.3-0.8,2.2-3,3.3c-0.5,0.2-2.6,1.1-3.3,1.5c-2.5,1.1-4.1,2.8-4.1,5.5c0,3.1,2.6,5.3,6.9,5.3
		c3,0,4.9-1,5.3-1.3l-0.5-2.9c-0.5,0.3-2.4,1.4-5,1.4c-2.4,0-3.7-1.1-3.7-2.6c0-1.3,0.9-2,2.5-2.7c0.6-0.3,3.1-1.3,3.6-1.6
		c3-1.4,4.3-3.1,4.3-5.7c0-3.5-2.9-5.9-7.2-5.9C251.6,303.4,249.6,304.6,249.1,304.9"/>
</g>
</svg>
