<?xml version="1.0" encoding="utf-8"?>
<!-- Generator: Adobe Illustrator 26.0.1, SVG Export Plug-In . SVG Version: 6.00 Build 0)  -->
<svg version="1.1" id="Layer_1" xmlns="http://www.w3.org/2000/svg" xmlns:xlink="http://www.w3.org/1999/xlink" x="0px" y="0px"
	 viewBox="0 0 95 35" style="enable-background:new 0 0 95 35;" xml:space="preserve">
<style type="text/css">
	.st0{fill-rule:evenodd;clip-rule:evenodd;fill:#343741;}
	.st1{fill:#343741;}
</style>
<g>
	<g>
		<path class="st0" d="M16.2,34.7h75.5H16.2z"/>
		<rect x="16.2" y="34.4" class="st1" width="75.5" height="0.6"/>
	</g>
	<path class="st0" d="M16.8,29.5c0-1.2,0-1.5,0-1.7c0-0.3-0.1-0.4-0.3-0.5c-0.1,0-0.2,0-0.3,0c0,0-0.1,0-0.1,0c0,0,0-0.1,0.1-0.1
		c0.4,0,0.8,0,0.9,0c0.2,0,0.6,0,1,0c1,0,1.3,0.3,1.5,0.5c0.2,0.2,0.4,0.5,0.4,0.9c0,1.1-0.8,1.9-1.9,1.9c0,0-0.1,0-0.2,0
		c0,0-0.1,0-0.1-0.1c0-0.1,0-0.1,0.2-0.1c0.8,0,1.4-0.6,1.4-1.3c0-0.3,0-0.8-0.4-1.2c-0.4-0.4-0.9-0.4-1.1-0.4c-0.1,0-0.3,0-0.3,0
		c0,0-0.1,0.1-0.1,0.2v3.3c0,0.8,0,1.4,0,1.7c0,0.2,0.1,0.4,0.3,0.4c0.1,0,0.3,0,0.4,0c0,0,0.1,0,0.1,0c0,0,0,0.1-0.1,0.1
		c-0.4,0-0.9,0-1,0c0,0-0.5,0-0.8,0c-0.1,0-0.1,0-0.1-0.1c0,0,0,0,0.1,0c0.1,0,0.2,0,0.2,0c0.2,0,0.2-0.2,0.2-0.4c0-0.3,0-1,0-1.7
		L16.8,29.5L16.8,29.5L16.8,29.5z M22.3,27.6C22.3,27.5,22.4,27.5,22.3,27.6c0.1-0.1,0.4-0.1,0.6-0.1c0.8,0,1.4,0.6,1.4,1.6
		c0,0.6-0.2,1-0.5,1.2c-0.2,0.1-0.4,0.1-0.6,0.1c-0.3,0-0.7-0.1-0.8-0.1c0,0-0.1-0.1-0.1-0.1L22.3,27.6L22.3,27.6L22.3,27.6z
		 M21.7,30.9c0,0.8,0,1.4,0,1.7c0,0.2-0.1,0.4-0.2,0.4c-0.1,0-0.2,0-0.2,0c0,0-0.1,0-0.1,0c0,0,0,0.1,0.1,0.1c0.2,0,0.7,0,0.7,0
		c0,0,0.5,0,1,0c0.1,0,0.1,0,0.1-0.1c0,0,0,0-0.1,0c-0.1,0-0.2,0-0.4,0c-0.2,0-0.3-0.2-0.3-0.4c0-0.3,0-1,0-1.7v-0.2
		c0,0,0-0.1,0.1-0.1l1,0c0,0,0.1,0,0.1,0c0.2,0.2,0.5,0.7,0.9,1.2c0.4,0.6,0.7,1,1.1,1.2c0.2,0.1,0.4,0.2,0.8,0.2h0.6
		c0.1,0,0.2,0,0.2-0.1c0,0,0,0-0.1,0c0,0-0.2,0-0.3,0c-0.2,0-0.5-0.1-1-0.6c-0.5-0.5-1-1.2-1.6-2c0.7-0.7,1-1.2,1-1.8
		c0-0.5-0.3-0.9-0.5-1.1c-0.4-0.3-0.9-0.3-1.4-0.3c-0.2,0-0.8,0-0.9,0c0,0-0.5,0-0.9,0c-0.1,0-0.1,0-0.1,0.1c0,0,0,0,0.1,0
		c0.1,0,0.2,0,0.3,0c0.3,0.1,0.3,0.2,0.3,0.5c0,0.3,0,0.5,0,1.7L21.7,30.9L21.7,30.9L21.7,30.9z M27.3,29.9c0-1.7,1-2.6,2.3-2.6
		c1.2,0,2.4,1,2.4,2.9c0,2.3-1.5,2.7-2.2,2.7C28.4,33,27.3,31.8,27.3,29.9L27.3,29.9z M26.6,30.2c0,1.4,0.9,3.1,3,3.1
		c1.9,0,3.1-1.5,3.1-3.2c0-1.8-1.3-3-3.1-3C27.5,27.1,26.6,28.9,26.6,30.2L26.6,30.2z M34.3,29.5c0-1.2,0-1.5,0-1.7
		c0-0.3-0.1-0.4-0.3-0.5c-0.1,0-0.2,0-0.3,0c0,0-0.1,0-0.1,0c0,0,0-0.1,0.1-0.1c0.4,0,0.8,0,0.9,0c0.2,0,0.6,0,1,0
		c1,0,1.3,0.3,1.5,0.5c0.2,0.2,0.4,0.5,0.4,0.9c0,1.1-0.8,1.9-1.9,1.9c0,0-0.1,0-0.2,0c0,0-0.1,0-0.1-0.1c0-0.1,0-0.1,0.2-0.1
		c0.8,0,1.4-0.6,1.4-1.3c0-0.3,0-0.8-0.4-1.2c-0.4-0.4-0.9-0.4-1.1-0.4c-0.1,0-0.3,0-0.3,0c0,0-0.1,0.1-0.1,0.2v3.3
		c0,0.8,0,1.4,0,1.7c0,0.2,0.1,0.4,0.3,0.4c0.1,0,0.3,0,0.4,0c0,0,0.1,0,0.1,0c0,0,0,0.1-0.1,0.1c-0.4,0-0.9,0-1,0c0,0-0.5,0-0.8,0
		c-0.1,0-0.1,0-0.1-0.1c0,0,0,0,0.1,0c0.1,0,0.2,0,0.2,0c0.2,0,0.2-0.2,0.2-0.4c0-0.3,0-1,0-1.7L34.3,29.5L34.3,29.5z M39.3,29.5
		c0-1.2,0-1.5,0-1.7c0-0.3-0.1-0.4-0.3-0.5c-0.1,0-0.2,0-0.3,0c0,0-0.1,0-0.1,0c0,0,0-0.1,0.1-0.1c0.4,0,0.8,0,0.9,0
		c0.1,0,1.6,0,1.8,0c0.1,0,0.3,0,0.3,0c0,0,0.1,0,0.1,0c0,0,0,0,0,0.1c0,0.1,0,0.2-0.1,0.4c0,0.1,0,0.4,0,0.5c0,0,0,0.1-0.1,0.1
		c0,0-0.1,0-0.1-0.1c0-0.1,0-0.2,0-0.3c-0.1-0.1-0.1-0.2-0.6-0.3c-0.1,0-1,0-1.1,0c0,0,0,0,0,0.1v2.2c0,0.1,0,0.1,0,0.1
		c0.1,0,1.1,0,1.2,0c0.2,0,0.3,0,0.4-0.1c0.1-0.1,0.1-0.1,0.1-0.1c0,0,0,0,0,0.1c0,0,0,0.2-0.1,0.4c0,0.2,0,0.5,0,0.5
		c0,0.1,0,0.2-0.1,0.2c0,0-0.1,0-0.1-0.1c0-0.1,0-0.2,0-0.3c0-0.1-0.1-0.2-0.4-0.3c-0.2,0-1,0-1.1,0c0,0-0.1,0-0.1,0.1v0.7
		c0,0.3,0,1.2,0,1.4c0,0.5,0.1,0.6,0.9,0.6c0.2,0,0.5,0,0.8-0.1c0.2-0.1,0.3-0.2,0.4-0.6c0-0.1,0-0.1,0.1-0.1c0,0,0,0.1,0,0.1
		c0,0.1-0.1,0.6-0.1,0.8c-0.1,0.2-0.1,0.2-0.4,0.2c-1.2,0-1.7,0-1.9,0c0,0-0.5,0-0.8,0c-0.1,0-0.1,0-0.1-0.1c0,0,0,0,0.1,0
		c0.1,0,0.2,0,0.2,0c0.2,0,0.2-0.2,0.2-0.4c0-0.3,0-1,0-1.7L39.3,29.5L39.3,29.5L39.3,29.5z M44.6,27.6
		C44.6,27.5,44.6,27.5,44.6,27.6c0.1-0.1,0.4-0.1,0.6-0.1c0.8,0,1.4,0.6,1.4,1.6c0,0.6-0.2,1-0.5,1.2c-0.2,0.1-0.4,0.1-0.6,0.1
		c-0.3,0-0.7-0.1-0.8-0.1c0,0-0.1-0.1-0.1-0.1L44.6,27.6L44.6,27.6L44.6,27.6z M44,30.9c0,0.8,0,1.4,0,1.7c0,0.2-0.1,0.4-0.2,0.4
		c-0.1,0-0.2,0-0.2,0c0,0-0.1,0-0.1,0c0,0,0,0.1,0.1,0.1c0.2,0,0.7,0,0.7,0c0,0,0.5,0,1,0c0.1,0,0.1,0,0.1-0.1c0,0,0,0-0.1,0
		c-0.1,0-0.2,0-0.4,0c-0.2,0-0.3-0.2-0.3-0.4c0-0.3,0-1,0-1.7v-0.2c0,0,0-0.1,0.1-0.1l1,0c0,0,0.1,0,0.1,0c0.2,0.2,0.5,0.7,0.9,1.2
		c0.4,0.6,0.7,1,1.1,1.2c0.2,0.1,0.4,0.2,0.8,0.2H49c0.1,0,0.2,0,0.2-0.1c0,0,0,0-0.1,0c0,0-0.2,0-0.3,0c-0.2,0-0.5-0.1-1-0.6
		c-0.5-0.5-1-1.2-1.6-2c0.7-0.7,0.9-1.2,0.9-1.8c0-0.5-0.3-0.9-0.5-1.1c-0.4-0.3-0.9-0.3-1.4-0.3c-0.2,0-0.8,0-0.9,0
		c0,0-0.5,0-0.9,0c-0.1,0-0.1,0-0.1,0.1c0,0,0,0,0.1,0c0.1,0,0.2,0,0.3,0c0.3,0.1,0.3,0.2,0.3,0.5c0,0.3,0,0.5,0,1.7L44,30.9
		L44,30.9L44,30.9z M51.1,30.9c0,0.8,0,1.4,0,1.7c0,0.2,0.1,0.4,0.3,0.4c0.1,0,0.3,0,0.4,0c0,0,0.1,0,0.1,0c0,0,0,0.1-0.1,0.1
		c-0.4,0-0.9,0-1,0c0,0-0.5,0-0.8,0c-0.1,0-0.1,0-0.1-0.1c0,0,0,0,0.1,0c0.1,0,0.2,0,0.2,0c0.2,0,0.2-0.2,0.2-0.4c0-0.3,0-1,0-1.7
		v-3.3l-1.2,0c-0.5,0-0.7,0.1-0.8,0.3c-0.1,0.1-0.1,0.2-0.1,0.2c0,0.1,0,0.1-0.1,0.1c0,0,0,0,0-0.1c0-0.1,0.2-0.8,0.2-0.8
		c0,0,0-0.2,0.1-0.2c0.1,0,0.1,0.1,0.3,0.1c0.2,0,0.5,0,0.6,0h2.9c0.5,0,0.7-0.1,0.8-0.1c0,0,0,0,0,0.1c0,0.2,0,0.8,0,0.9
		c0,0.1,0,0.1-0.1,0.1c0,0-0.1,0-0.1-0.1l0-0.1c0-0.2-0.2-0.4-1-0.4l-1,0L51.1,30.9L51.1,30.9L51.1,30.9z M55.9,31.1
		c0-0.4-0.1-0.6-0.2-0.8c-0.1-0.1-1.1-1.9-1.4-2.3c-0.2-0.3-0.4-0.5-0.5-0.6c-0.1-0.1-0.3-0.1-0.3-0.1c0,0-0.1,0-0.1-0.1
		c0,0,0-0.1,0.1-0.1c0.1,0,0.7,0,0.8,0c0.1,0,0.4,0,0.7,0c0.1,0,0.1,0,0.1,0.1c0,0,0,0-0.1,0.1c-0.1,0-0.1,0.1-0.1,0.1
		c0,0.1,0,0.2,0.1,0.3c0.1,0.2,1.3,2.3,1.4,2.5c0.1-0.3,1.1-2.1,1.3-2.3c0.1-0.2,0.1-0.3,0.1-0.4c0-0.1,0-0.2-0.1-0.2
		c-0.1,0-0.1,0-0.1-0.1c0,0,0,0,0.1,0c0.2,0,0.5,0,0.5,0c0,0,0.6,0,0.8,0c0.1,0,0.1,0,0.1,0c0,0,0,0.1-0.1,0.1c-0.1,0-0.2,0-0.4,0.1
		c-0.2,0.1-0.2,0.2-0.4,0.4c-0.3,0.3-1.4,2.2-1.5,2.5c-0.1,0.3-0.1,0.5-0.1,0.8v0.7c0,0.1,0,0.5,0,0.8c0,0.2,0.1,0.4,0.3,0.4
		c0.1,0,0.3,0,0.4,0c0,0,0.1,0,0.1,0c0,0,0,0.1-0.1,0.1c-0.4,0-0.9,0-1,0s-0.5,0-0.8,0c-0.1,0-0.1,0-0.1-0.1c0,0,0,0,0.1,0
		c0.1,0,0.2,0,0.2,0c0.2,0,0.2-0.2,0.2-0.4c0-0.3,0-0.7,0-0.8L55.9,31.1L55.9,31.1L55.9,31.1z M66.2,31.2c0-0.6,0-0.7-0.4-0.8
		c-0.1,0-0.2,0-0.3,0c0,0-0.1,0-0.1,0c0,0,0-0.1,0.1-0.1c0.4,0,0.8,0,0.9,0c0,0,0.5,0,0.8,0c0.1,0,0.1,0,0.1,0.1c0,0,0,0-0.1,0
		c-0.1,0-0.1,0-0.2,0c-0.2,0-0.3,0.2-0.3,0.5c0,0.3,0,0.5,0,0.8v0.9c0,0.4,0,0.4-0.1,0.4c-0.5,0.3-1.2,0.4-1.7,0.4
		c-0.6,0-1.7-0.1-2.6-0.8c-0.5-0.4-0.9-1.3-0.9-2.3c0-1.3,0.6-2.2,1.3-2.6c0.7-0.4,1.5-0.5,2.1-0.5c0.5,0,1.1,0.1,1.2,0.1
		c0.2,0,0.4,0.1,0.6,0.1c0.1,0,0.1,0,0.1,0.1c0,0.1-0.1,0.3-0.1,1.1c0,0.1,0,0.2-0.1,0.2c0,0,0,0-0.1-0.1c0-0.2-0.1-0.4-0.2-0.5
		c-0.2-0.3-0.8-0.6-1.8-0.6c-0.5,0-1.1,0-1.7,0.5c-0.5,0.4-0.8,1.1-0.8,2c0,1.1,0.6,1.9,0.8,2.2c0.6,0.6,1.3,0.8,2.1,0.8
		c0.3,0,0.7,0,0.9-0.2c0.1-0.1,0.2-0.1,0.2-0.3V31.2L66.2,31.2z M69.8,27.6C69.8,27.5,69.8,27.5,69.8,27.6c0.1-0.1,0.4-0.1,0.6-0.1
		c0.8,0,1.4,0.6,1.4,1.6c0,0.6-0.2,1-0.5,1.2c-0.2,0.1-0.4,0.1-0.6,0.1c-0.3,0-0.7-0.1-0.8-0.1c0,0-0.1-0.1-0.1-0.1L69.8,27.6
		L69.8,27.6L69.8,27.6z M69.2,30.9c0,0.8,0,1.4,0,1.7c0,0.2-0.1,0.4-0.2,0.4c-0.1,0-0.2,0-0.2,0c0,0-0.1,0-0.1,0c0,0,0,0.1,0.1,0.1
		c0.2,0,0.7,0,0.7,0c0,0,0.5,0,1,0c0.1,0,0.1,0,0.1-0.1c0,0,0,0-0.1,0c-0.1,0-0.2,0-0.4,0c-0.2,0-0.3-0.2-0.3-0.4c0-0.3,0-1,0-1.7
		v-0.2c0,0,0-0.1,0.1-0.1l1,0c0,0,0.1,0,0.1,0c0.2,0.2,0.5,0.7,0.9,1.2c0.4,0.6,0.7,1,1.1,1.2c0.2,0.1,0.4,0.2,0.8,0.2h0.6
		c0.1,0,0.2,0,0.2-0.1c0,0,0,0-0.1,0c0,0-0.2,0-0.3,0c-0.2,0-0.5-0.1-1-0.6c-0.5-0.5-1-1.2-1.6-2c0.7-0.7,0.9-1.2,0.9-1.8
		c0-0.5-0.3-0.9-0.5-1.1c-0.4-0.3-0.9-0.3-1.4-0.3c-0.2,0-0.8,0-0.9,0c0,0-0.5,0-0.9,0c-0.1,0-0.1,0-0.1,0.1c0,0,0,0,0.1,0
		c0.1,0,0.2,0,0.3,0c0.3,0.1,0.3,0.2,0.3,0.5c0,0.3,0,0.5,0,1.7L69.2,30.9L69.2,30.9z M74.8,29.9c0-1.7,1-2.6,2.3-2.6
		c1.2,0,2.4,1,2.4,2.9c0,2.3-1.5,2.7-2.2,2.7C75.9,33,74.8,31.8,74.8,29.9L74.8,29.9z M74,30.2c0,1.4,0.9,3.1,3,3.1
		c1.9,0,3.1-1.5,3.1-3.2c0-1.8-1.3-3-3.1-3C75,27.1,74,28.9,74,30.2L74,30.2z M81.7,29.5c0-1.2,0-1.5,0-1.7c0-0.3-0.1-0.4-0.3-0.5
		c-0.1,0-0.2,0-0.3,0c0,0-0.1,0-0.1,0c0,0,0-0.1,0.1-0.1c0.4,0,0.8,0,0.9,0c0.1,0,0.5,0,0.8,0c0.1,0,0.1,0,0.1,0.1c0,0,0,0-0.1,0
		c-0.1,0-0.1,0-0.2,0c-0.2,0-0.3,0.2-0.3,0.5c0,0.3,0,0.5,0,1.7v1.1c0,1.1,0.3,1.6,0.6,2c0.4,0.4,0.7,0.4,1.2,0.4
		c0.5,0,0.9-0.2,1.2-0.6c0.4-0.5,0.5-1.1,0.5-1.9v-1c0-1.2,0-1.5,0-1.7c0-0.3-0.1-0.4-0.3-0.5c-0.1,0-0.2,0-0.3,0c0,0-0.1,0-0.1,0
		c0,0,0-0.1,0.1-0.1c0.4,0,0.8,0,0.8,0c0.1,0,0.4,0,0.7,0c0.1,0,0.1,0,0.1,0.1c0,0,0,0-0.1,0c-0.1,0-0.1,0-0.2,0
		c-0.2,0-0.3,0.2-0.3,0.5c0,0.3,0,0.5,0,1.7v0.8c0,0.9-0.1,1.8-0.7,2.4c-0.6,0.5-1.2,0.6-1.6,0.6c-0.3,0-1.1,0-1.6-0.6
		c-0.4-0.4-0.7-0.9-0.7-2.1L81.7,29.5L81.7,29.5z M88.6,29.5c0-1.2,0-1.5,0-1.7c0-0.3-0.1-0.4-0.3-0.5c-0.1,0-0.2,0-0.3,0
		c0,0-0.1,0-0.1,0c0,0,0-0.1,0.1-0.1c0.4,0,0.8,0,0.9,0c0.2,0,0.6,0,1,0c1,0,1.3,0.3,1.5,0.5c0.2,0.2,0.4,0.5,0.4,0.9
		c0,1.1-0.8,1.9-1.9,1.9c0,0-0.1,0-0.2,0c0,0-0.1,0-0.1-0.1c0-0.1,0-0.1,0.2-0.1c0.8,0,1.4-0.6,1.4-1.3c0-0.3,0-0.8-0.4-1.2
		c-0.4-0.4-0.9-0.4-1.1-0.4c-0.1,0-0.3,0-0.3,0c0,0-0.1,0.1-0.1,0.2v3.3c0,0.8,0,1.4,0,1.7c0,0.2,0.1,0.4,0.3,0.4c0.1,0,0.3,0,0.4,0
		c0,0,0.1,0,0.1,0c0,0,0,0.1-0.1,0.1c-0.4,0-0.9,0-1,0c0,0-0.5,0-0.8,0c-0.1,0-0.1,0-0.1-0.1c0,0,0,0,0.1,0c0.1,0,0.2,0,0.2,0
		c0.2,0,0.2-0.2,0.2-0.4c0-0.3,0-1,0-1.7L88.6,29.5L88.6,29.5L88.6,29.5z M59.3,24.1c7.2,0,11.7-5.5,11.7-12.4
		C71.1,4.5,65.7,0,59.5,0c-8.3,0-11.7,6.8-11.7,11.8C47.8,17.3,51.1,24.1,59.3,24.1L59.3,24.1z M59.3,1.1c4.7,0,9.1,4,9.1,11.3
		c0,9.3-5.3,10.5-8.3,10.5c-5.4,0-9.6-4.6-9.6-11.8C50.6,3.3,54.8,1.1,59.3,1.1L59.3,1.1z M71.7,23.7h4.5c0.3,0,0.5-0.1,0.5-0.2
		c0-0.1-0.1-0.2-0.2-0.2c-0.2,0-0.4,0-0.7-0.1c-0.8-0.2-1.1-0.7-1.1-1.8l0-17c0,0,16.3,19.1,16.6,19.3c0.1,0,0.4,0.2,0.4-0.5
		c0-0.6,0-1.5,0-1.5l0-19c0-1,0-1.6,0.8-1.7c0.3,0,0.7-0.1,0.9-0.1c0.1,0,0.2-0.1,0.2-0.2c0-0.2-0.1-0.3-0.5-0.3h-4.9
		c-0.3,0-0.5,0.1-0.5,0.3c0,0.1,0.1,0.2,0.2,0.2c0.2,0,0.4,0,0.7,0.1C89.9,1.1,90,1.7,90,2.7l0,16.4c0,0-15-17.6-15.4-18.1
		c-0.5-0.5-0.8-1-1.1-0.9c-0.2,0.1-0.3,0.2-0.3,1.4c0,0,0,18.9,0,19.9c0,1-0.2,1.6-0.8,1.7c-0.3,0.1-0.6,0.1-0.8,0.1
		c-0.1,0-0.2,0.1-0.2,0.2C71.3,23.6,71.4,23.7,71.7,23.7L71.7,23.7z M23.4,23.7h5c0.4,0,0.5-0.1,0.5-0.3c0-0.1-0.1-0.2-0.2-0.2
		c-0.4,0-0.8-0.1-1.1-0.2c-0.8-0.2-0.9-1.3-0.9-2.5l0-14.3h0.1c0.3,0.8,6.8,14.4,7.6,15.9c0.6,1.1,0.7,1.4,0.9,1.4
		c0.3,0,0.3-0.2,1-1.5L43.2,6h0.1l0,0.3l0,13.5c0,0,0,1.5-0.1,1.6c-0.1,1-0.4,1.6-1,1.7c-0.3,0.1-0.6,0.1-0.9,0.1
		c-0.1,0-0.2,0.1-0.2,0.2c0,0.2,0.2,0.2,0.5,0.2c1,0,2.7,0,2.8,0c0.1,0,2,0,2.9,0c0.3,0,0.5-0.1,0.5-0.2c0-0.1-0.1-0.2-0.2-0.2
		c-0.2,0-0.4,0-0.8-0.1c-0.8-0.2-0.9-0.7-1.1-1.8c0-0.1,0-1.3,0-1.3l0-18.8l0-0.5c0-0.6-0.1-0.8-0.4-0.8c-0.2,0-0.3,0.2-0.4,0.5
		l-9.1,19.7L26,0.5C25.8,0.1,25.7,0,25.5,0c-0.2,0-0.3,0.2-0.3,0.6l0,20c0,1.3-0.1,2.4-1.1,2.6c-0.5,0.1-0.7,0.1-0.9,0.1
		c-0.1,0-0.3,0.1-0.3,0.2C22.9,23.6,23.1,23.7,23.4,23.7L23.4,23.7z M16.7,21.4c-0.1,1-0.4,1.6-1,1.7c-0.3,0.1-0.6,0.1-0.9,0.1
		c-0.1,0-0.2,0.1-0.2,0.2c0,0.2,0.2,0.2,0.5,0.2c1,0,2.9,0,3,0h2.7c0.3,0,0.5-0.1,0.5-0.2c0-0.1-0.1-0.2-0.2-0.2
		c-0.2,0-0.4,0-0.8-0.1c-0.8-0.2-1.1-0.7-1.1-1.8c-0.1-1-0.1-1.8-0.1-6.6l0-5.4c0-4.8,0-5.7,0.1-6.6c0.1-1.1,0.3-1.6,1.1-1.8
		c0.4-0.1,0.5-0.1,0.8-0.1c0.1,0,0.2-0.1,0.2-0.2c0-0.2-0.1-0.2-0.5-0.2c-0.9,0-2.5,0-2.7,0s-2,0-3,0c-0.3,0-0.5,0.1-0.5,0.2
		c0,0.1,0.1,0.2,0.2,0.2c0.2,0,0.6,0,0.9,0.1c0.7,0.2,1,0.7,1,1.7c0.1,1,0.1,1.8,0.1,6.6l0,5.4C16.8,19.6,16.8,20.5,16.7,21.4
		L16.7,21.4z M1.7,23.3C3,23.8,4.4,24,5.8,24c1.6,0,3.2-0.3,4.5-1.2c2.1-1.5,2.7-3.5,2.7-5.1c0-2.8-1.1-4.3-4.5-7.2L7.6,9.8
		C4.8,7.4,4,6.4,4,4.6c0-2.2,1.6-3.4,3.7-3.5c3.1-0.1,3.7,0.7,3.8,1.4c0.1,0.4,0.3,1.3,0.3,1.6c0,0.2,0.1,0.4,0.2,0.4
		c0.2,0,0.2-0.2,0.2-0.7c0-2.1,0.1-3.1,0.1-3.3c0-0.2-0.1-0.2-0.3-0.2c-0.2,0-0.5-0.1-1.1-0.2c-0.8-0.1-1.6-0.2-2.8-0.2
		C4.4,0.1,2,2.2,2,5.5c0,2.1,0.7,4,3.9,6.7l1.4,1.1c2.6,2.2,3.5,3.4,3.5,5.5c0,2-1.4,4-4.3,4c-2.4,0-4.1-0.6-4.5-3.1
		c-0.1-0.4-0.1-0.8-0.1-1.1c0-0.2,0-0.3-0.2-0.3c-0.1,0-0.2,0.2-0.2,0.5c0,0.5-0.2,1.7-0.2,3.3C1.3,22.9,1.3,23.1,1.7,23.3L1.7,23.3
		z"/>
</g>
</svg>
