<?xml version="1.0" encoding="utf-8"?>
<!-- Generator: Adobe Illustrator 26.0.1, SVG Export Plug-In . SVG Version: 6.00 Build 0)  -->
<svg version="1.1" id="Layer_1" xmlns="http://www.w3.org/2000/svg" xmlns:xlink="http://www.w3.org/1999/xlink" x="0px" y="0px"
	 viewBox="0 0 95 35" style="enable-background:new 0 0 95 35;" xml:space="preserve">
<style type="text/css">
	.st0{fill:#104076;}
	.st1{fill:#343741;}
</style>
<path class="st0" d="M-39.1,613.7"/>
<g>
	<g>
		<path class="st1" d="M10.8,23.4c0,0.6-0.1,1.2-0.3,1.6c-0.2,0.5-0.5,0.9-0.8,1.2c-0.5,0.5-1.2,0.9-1.9,1.1s-1.5,0.3-2.4,0.3
			c-0.7,0-1.4-0.1-2.1-0.3S2,26.8,1.4,26.3c-0.4-0.4-0.7-0.8-1-1.4C0.1,24.4,0,23.8,0,23.2h2.5c0,0.3,0.1,0.6,0.2,0.9
			c0.1,0.3,0.3,0.5,0.5,0.7c0.3,0.3,0.6,0.5,1.1,0.6c0.4,0.1,0.8,0.1,1.2,0.1c0.5,0,0.9,0,1.3-0.2c0.4-0.1,0.8-0.3,1-0.6
			c0.2-0.2,0.3-0.3,0.4-0.5c0.1-0.2,0.2-0.4,0.2-0.8c0-0.5-0.2-0.9-0.5-1.1c-0.3-0.3-0.7-0.4-1.1-0.5c-0.5-0.1-0.9-0.2-1.5-0.2
			c-0.5,0-1-0.1-1.5-0.2c-0.5-0.1-0.9-0.2-1.3-0.4c-0.4-0.2-0.8-0.4-1.1-0.7c-0.3-0.3-0.6-0.7-0.7-1.1c-0.2-0.4-0.3-0.9-0.3-1.5
			c0-0.5,0.1-1,0.3-1.5c0.2-0.4,0.5-0.8,0.9-1.2c0.4-0.4,1-0.8,1.7-1c0.7-0.3,1.4-0.4,2.2-0.4c0.7,0,1.4,0.1,2.1,0.3
			c0.7,0.2,1.2,0.6,1.7,1c0.4,0.4,0.7,0.8,1,1.3c0.3,0.5,0.4,1,0.4,1.6H8.1c0-0.2-0.1-0.5-0.2-0.7c-0.1-0.2-0.2-0.4-0.4-0.6
			c-0.2-0.2-0.5-0.4-0.9-0.5c-0.4-0.1-0.8-0.2-1.1-0.2c-0.4,0-0.8,0-1.2,0.2c-0.4,0.1-0.7,0.3-1,0.6C3.1,16.8,3,16.9,3,17.1
			c-0.1,0.2-0.1,0.4-0.1,0.6c0,0.4,0.1,0.8,0.4,1s0.6,0.4,1,0.4c0.4,0.1,0.9,0.1,1.5,0.2c0.5,0,1,0.1,1.5,0.2c0.5,0.1,1,0.2,1.4,0.4
			c0.4,0.2,0.8,0.5,1.2,0.8c0.3,0.3,0.6,0.7,0.8,1.2C10.7,22.3,10.8,22.9,10.8,23.4"/>
	</g>
	<g>
		<path class="st1" d="M21.5,27.5l-0.9-1.1c-0.5,0.5-1.1,0.8-1.8,1.1c-0.6,0.2-1.3,0.3-2,0.3c-0.6,0-1.2-0.1-1.7-0.3
			c-0.5-0.2-1-0.5-1.4-0.8c-0.4-0.3-0.7-0.8-1-1.3c-0.2-0.5-0.4-1.1-0.4-1.7c0-0.8,0.2-1.6,0.6-2.2c0.4-0.6,1-1.1,1.7-1.6
			c-0.2-0.2-0.4-0.5-0.6-0.7c-0.2-0.2-0.3-0.4-0.5-0.7c-0.1-0.2-0.2-0.5-0.3-0.7c-0.1-0.3-0.1-0.5-0.1-0.9c0-0.5,0.1-1,0.3-1.4
			c0.2-0.4,0.5-0.8,0.8-1.1c0.3-0.3,0.7-0.5,1.2-0.7c0.4-0.2,0.9-0.2,1.4-0.2c0.5,0,1,0.1,1.4,0.2s0.8,0.4,1.2,0.6
			c0.3,0.3,0.6,0.6,0.8,1s0.3,0.9,0.3,1.4c0,0.4-0.1,0.8-0.2,1.2c-0.1,0.3-0.3,0.7-0.5,0.9c-0.2,0.3-0.5,0.6-0.8,0.8s-0.6,0.5-1,0.7
			l2.3,2.5c0.1-0.2,0.2-0.5,0.2-0.7c0-0.3,0.1-0.6,0.1-0.9c0-0.3,0-0.6,0-0.9v-0.8h3.5v1.9h-1.6c0,0.5-0.1,1.1-0.2,1.6
			c-0.1,0.5-0.3,1-0.6,1.4l2.5,2.7C24.3,27.5,21.5,27.5,21.5,27.5z M16,21.5c-0.2,0.1-0.4,0.3-0.6,0.4c-0.2,0.1-0.4,0.3-0.5,0.4
			c-0.1,0.2-0.3,0.3-0.3,0.6c-0.1,0.2-0.1,0.5-0.1,0.7c0,0.3,0.1,0.6,0.2,0.9c0.1,0.3,0.3,0.5,0.5,0.7c0.2,0.2,0.5,0.3,0.8,0.4
			c0.3,0.1,0.6,0.1,0.9,0.1c0.4,0,0.8-0.1,1.2-0.2s0.8-0.3,1-0.7L16,21.5z M18.4,17.1c0-0.5-0.1-0.8-0.4-1.1
			c-0.3-0.3-0.6-0.4-1.1-0.4c-0.4,0-0.7,0.1-1,0.3c-0.3,0.2-0.5,0.6-0.5,1.1c0,0.2,0,0.4,0.1,0.6c0.1,0.2,0.2,0.4,0.3,0.5
			c0.1,0.2,0.3,0.3,0.4,0.5s0.3,0.3,0.4,0.4c0.2-0.1,0.4-0.2,0.6-0.3c0.2-0.1,0.4-0.3,0.6-0.4c0.2-0.2,0.3-0.3,0.4-0.5
			C18.3,17.6,18.4,17.4,18.4,17.1"/>
	</g>
	<g>
		<path class="st1" d="M36.2,18.3c0,0.6-0.1,1.2-0.3,1.8c-0.2,0.5-0.5,1-0.9,1.4c-0.4,0.4-0.9,0.7-1.5,0.9c-0.6,0.2-1.3,0.3-2.1,0.3
			h-2.8v4.8h-2.4V14h5.3c0.8,0,1.5,0.1,2.1,0.3c0.6,0.2,1.1,0.5,1.5,0.9c0.4,0.4,0.7,0.8,0.9,1.4S36.2,17.6,36.2,18.3 M33.7,18.3
			c0-0.6-0.2-1.2-0.6-1.6c-0.4-0.4-1-0.6-1.8-0.6h-2.8v4.4h2.8c0.8,0,1.4-0.2,1.8-0.6C33.5,19.5,33.7,18.9,33.7,18.3"/>
	</g>
	<g>
		<path class="st1" d="M50.6,27.4L50.3,26c-0.1,0.2-0.3,0.4-0.5,0.6c-0.2,0.2-0.5,0.4-0.7,0.6c-0.3,0.2-0.6,0.3-1,0.4
			c-0.4,0.1-0.8,0.2-1.2,0.2c-0.8,0-1.5-0.1-2.2-0.3c-0.7-0.2-1.3-0.6-1.8-1.2c-0.3-0.4-0.6-0.8-0.9-1.2c-0.2-0.4-0.4-0.8-0.5-1.3
			c-0.1-0.5-0.2-0.9-0.3-1.4c0-0.5-0.1-1-0.1-1.6c0-0.5,0-1.1,0.1-1.6c0-0.5,0.1-1,0.3-1.4c0.1-0.4,0.3-0.9,0.5-1.3
			c0.2-0.4,0.5-0.8,0.9-1.2c0.5-0.5,1.1-0.9,1.9-1.2c0.7-0.3,1.4-0.4,2.2-0.4c0.8,0,1.6,0.1,2.3,0.4c0.7,0.3,1.3,0.6,1.7,1.1
			c0.3,0.3,0.6,0.7,0.8,1.2c0.2,0.4,0.4,0.9,0.4,1.6h-2.5c0-0.3-0.1-0.5-0.2-0.7c-0.1-0.2-0.2-0.4-0.4-0.6c-0.5-0.5-1.2-0.8-2.2-0.8
			c-0.4,0-0.8,0.1-1.2,0.2c-0.4,0.2-0.7,0.4-1,0.7c-0.2,0.2-0.4,0.5-0.6,0.8c-0.1,0.3-0.3,0.6-0.3,1c-0.1,0.3-0.1,0.7-0.1,1.1
			c0,0.3,0,0.7,0,1c0,0.3,0,0.6,0,1c0,0.4,0.1,0.7,0.2,1.1c0.1,0.3,0.2,0.7,0.3,1c0.1,0.3,0.3,0.6,0.6,0.8c0.3,0.3,0.6,0.5,1,0.6
			c0.4,0.1,0.8,0.2,1.2,0.2c0.4,0,0.8-0.1,1.2-0.2c0.3-0.1,0.6-0.3,0.8-0.6c0.4-0.4,0.6-0.8,0.7-1.2c0.1-0.4,0.2-0.9,0.2-1.4h-3.1
			v-2h5.6v7.4C52.2,27.4,50.6,27.4,50.6,27.4z"/>
	</g>
	<g>
		<path class="st1" d="M58.2,27.4c-0.2,0-0.4,0.1-0.5,0.1c-0.1,0-0.3,0-0.5,0c-0.8,0-1.5-0.2-2-0.6c-0.5-0.4-0.7-1.1-0.7-2V13.7h2.4
			v10.8c0,0.3,0.1,0.5,0.2,0.7c0.1,0.2,0.4,0.3,0.8,0.3c0.1,0,0.2,0,0.2,0c0,0,0.1,0,0.2,0C58.2,25.4,58.2,27.4,58.2,27.4z"/>
	</g>
	<g>
		<path class="st1" d="M68.3,22.5c0,0.8-0.1,1.5-0.3,2.1c-0.2,0.6-0.5,1.1-0.9,1.6c-0.3,0.4-0.8,0.8-1.4,1.1c-0.6,0.3-1.3,0.5-2,0.5
			s-1.4-0.2-2-0.5c-0.6-0.3-1.1-0.7-1.4-1.1c-0.4-0.5-0.6-1-0.9-1.6C59.1,24,59,23.3,59,22.5c0-0.8,0.1-1.5,0.3-2.1
			c0.2-0.6,0.5-1.1,0.9-1.6c0.3-0.4,0.8-0.8,1.4-1.1c0.6-0.3,1.3-0.5,2-0.5s1.4,0.2,2,0.5c0.6,0.3,1.1,0.7,1.4,1.1
			c0.4,0.5,0.6,1,0.9,1.6C68.2,21,68.3,21.7,68.3,22.5 M65.8,22.5c0-0.5,0-0.9-0.1-1.4c-0.1-0.4-0.3-0.8-0.6-1.1
			c-0.2-0.2-0.4-0.3-0.6-0.4c-0.3-0.1-0.5-0.2-0.9-0.2s-0.6,0.1-0.9,0.2s-0.5,0.3-0.6,0.4c-0.3,0.3-0.5,0.7-0.6,1.1
			c-0.1,0.4-0.1,0.9-0.1,1.4s0,0.9,0.1,1.4c0.1,0.4,0.3,0.8,0.6,1.1c0.2,0.2,0.4,0.3,0.6,0.4c0.3,0.1,0.5,0.2,0.9,0.2
			s0.6-0.1,0.9-0.2c0.3-0.1,0.5-0.3,0.6-0.4c0.3-0.3,0.5-0.7,0.6-1.1C65.8,23.4,65.8,23,65.8,22.5"/>
	</g>
	<g>
		<path class="st1" d="M79.2,22.5c0,0.9-0.1,1.8-0.4,2.5c-0.3,0.7-0.7,1.3-1.3,1.8c-0.3,0.3-0.6,0.5-1.1,0.6
			c-0.4,0.2-0.9,0.2-1.3,0.2c-0.5,0-1.1-0.1-1.6-0.3s-0.9-0.5-1.2-1l-0.2,1.1H70V13.7h2.4v4.6c0.2-0.3,0.6-0.5,1-0.7
			c0.4-0.2,1-0.3,1.6-0.3c0.5,0,1,0.1,1.4,0.2c0.4,0.1,0.7,0.3,1.1,0.6C78.6,19.1,79.2,20.6,79.2,22.5 M76.8,22.5
			c0-0.4,0-0.9-0.1-1.3c-0.1-0.4-0.3-0.8-0.5-1.1c-0.2-0.2-0.4-0.4-0.6-0.6s-0.6-0.2-0.9-0.2c-0.5,0-0.9,0.1-1.1,0.3
			c-0.3,0.2-0.5,0.4-0.7,0.8c-0.2,0.3-0.3,0.6-0.3,1c-0.1,0.4-0.1,0.7-0.1,1.1c0,0.5,0.1,1,0.2,1.5c0.1,0.5,0.3,0.9,0.7,1.2
			c0.2,0.2,0.4,0.3,0.6,0.4c0.2,0.1,0.5,0.1,0.8,0.1c0.4,0,0.7-0.1,0.9-0.2c0.3-0.2,0.5-0.3,0.6-0.6c0.3-0.3,0.4-0.7,0.5-1.1
			C76.8,23.3,76.8,22.9,76.8,22.5"/>
	</g>
	<g>
		<path class="st1" d="M89.8,27.3c-0.2,0.1-0.4,0.2-0.5,0.2c-0.1,0-0.4,0.1-0.6,0.1c-0.5,0-0.9-0.1-1.2-0.4c-0.3-0.3-0.4-0.6-0.5-1
			c-0.2,0.4-0.6,0.8-1.1,1c-0.5,0.3-1.2,0.4-1.9,0.4c-0.6,0-1.1-0.1-1.6-0.3c-0.4-0.2-0.8-0.4-1.1-0.7s-0.5-0.6-0.7-1
			c-0.2-0.4-0.2-0.8-0.2-1.2c0-0.5,0.1-0.9,0.3-1.3s0.4-0.7,0.7-0.9s0.7-0.5,1.1-0.6c0.4-0.1,0.8-0.2,1.3-0.3l2.9-0.2v-0.6
			c0-0.5-0.1-0.9-0.3-1.1c-0.2-0.3-0.7-0.4-1.3-0.4c-0.6,0-1,0.1-1.3,0.4c-0.3,0.2-0.5,0.6-0.5,1h-2.3c0-0.6,0.2-1,0.4-1.4
			c0.2-0.4,0.5-0.7,0.9-1c0.4-0.3,0.8-0.5,1.3-0.6c0.5-0.1,1-0.2,1.6-0.2c0.9,0,1.6,0.1,2.3,0.4s1.1,0.8,1.4,1.6
			c0.1,0.3,0.2,0.6,0.2,1c0,0.3,0,0.7,0,1V25c0,0.2,0,0.4,0.1,0.5s0.2,0.1,0.4,0.1c0.1,0,0.2,0,0.2,0c0,0,0.1,0,0.1,0L89.8,27.3
			L89.8,27.3z M86.6,23.1l-2.5,0.2c-0.4,0-0.7,0.1-1,0.4s-0.4,0.5-0.4,0.9c0,0.4,0.1,0.7,0.4,0.9c0.3,0.2,0.6,0.3,1,0.3
			c0.7,0,1.4-0.2,1.8-0.6c0.5-0.4,0.7-0.9,0.7-1.7C86.6,23.5,86.6,23.1,86.6,23.1z"/>
	</g>
	<g>
		<path class="st1" d="M95,27.4c-0.2,0-0.4,0.1-0.5,0.1c-0.1,0-0.3,0-0.5,0c-0.8,0-1.5-0.2-2-0.6c-0.5-0.4-0.7-1.1-0.7-2V13.7h2.4
			v10.8c0,0.3,0.1,0.5,0.2,0.7c0.1,0.2,0.4,0.3,0.8,0.3c0.1,0,0.2,0,0.2,0c0,0,0.1,0,0.2,0L95,27.4L95,27.4z"/>
	</g>
	<g>
		<rect x="0" y="7.2" class="st1" width="95" height="2.2"/>
	</g>
</g>
</svg>
