<?xml version="1.0" encoding="utf-8"?>
<!-- Generator: Adobe Illustrator 26.0.1, SVG Export Plug-In . SVG Version: 6.00 Build 0)  -->
<svg version="1.1" id="Layer_1" xmlns="http://www.w3.org/2000/svg" xmlns:xlink="http://www.w3.org/1999/xlink" x="0px" y="0px"
	 viewBox="0 0 95 35" style="enable-background:new 0 0 95 35;" xml:space="preserve">
<style type="text/css">
	.st0{fill:#CCCCCC;}
</style>
<path class="st0" d="M79,18.8c1.5,0,2.3-0.8,2.3-2.7c0-1.9-0.8-2.7-2.2-2.7h-2.4v8.2h1.9v-2.8H79z M79.5,16.1c0,1.1-0.3,1.3-0.6,1.3
	h-0.3v-2.7h0.3C79.2,14.8,79.5,14.9,79.5,16.1 M81.9,21.6h2.3c1.6,0,2.5-1.3,2.5-4.1c0-2.8-0.8-4.1-2.5-4.1h-2.3V21.6z M84.8,17.5
	c0,2.3-0.3,2.7-0.9,2.7h-0.3v-5.5H84C84.5,14.8,84.8,15.2,84.8,17.5 M91.9,21.6L91,17.8c0.6-0.4,0.9-1.2,0.9-2.1
	c0-1.5-0.8-2.4-2.1-2.4h-2.4v8.2h1.9v-3.3h0.2l0.7,3.3H91.9z M89.2,14.8h0.2c0.3,0,0.6,0.2,0.6,1.2c0,1-0.3,1.2-0.7,1.2h-0.2V14.8z
	 M74.7,16.9c0.7,0.7,1.4,1.3,1.4,2.5c0,1.3-0.7,2.3-2.2,2.3c-1.1,0-2.1-0.5-2.2-2.2l0-0.6l1.5-0.1l0,0.4c0,0.8,0.3,1,0.7,1
	c0.3,0,0.5-0.2,0.5-0.6c0-0.6-0.6-1.1-1.2-1.6c-0.9-0.8-1.4-1.5-1.4-2.6c0-1.2,0.7-2.2,2.2-2.2c1.1,0,2,0.5,2.1,2.2l0,0.5L74.6,16
	l0-0.4c0-0.5-0.2-0.9-0.6-0.9c-0.3,0-0.5,0.2-0.5,0.6C73.5,15.9,73.8,16.1,74.7,16.9"/>
<path class="st0" d="M53.2,21.6H54l-0.5-3.7h-1.2l-0.6,3.7h0.8l0.1-0.8h0.5L53.2,21.6z M52.7,20.3l0.2-1.7l0.2,1.7H52.7z M54.3,21.6
	h1.1c0.7,0,1.1-0.6,1.1-1.8c0-1.2-0.4-1.8-1.1-1.8h-1.1V21.6z M55.6,19.8c0,1-0.1,1.2-0.4,1.2h-0.1v-2.4h0.1
	C55.5,18.6,55.6,18.8,55.6,19.8 M57.4,17.9h-0.8l0.6,3.7h1.1l0.6-3.7h-0.8l-0.4,3L57.4,17.9z M59.1,21.6H60v-3.7h-0.8V21.6z
	 M61.1,18.8c0-0.2,0.1-0.3,0.2-0.3c0.2,0,0.3,0.2,0.3,0.4l0,0.2l0.6,0l0-0.2c0-0.7-0.4-1-0.9-1c-0.7,0-1,0.4-1,1
	c0,0.5,0.2,0.8,0.6,1.2c0.3,0.2,0.5,0.5,0.5,0.7c0,0.2-0.1,0.3-0.2,0.3c-0.2,0-0.3-0.1-0.3-0.5l0-0.2l-0.7,0l0,0.3c0,0.8,0.5,1,1,1
	c0.7,0,1-0.4,1-1c0-0.5-0.3-0.8-0.6-1.1C61.2,19.1,61.1,19,61.1,18.8 M63.6,21.7c0.8,0,1.1-0.5,1.1-1.9c0-1.4-0.4-1.9-1.1-1.9
	c-0.7,0-1.1,0.5-1.1,1.9C62.5,21.1,62.9,21.7,63.6,21.7 M63.6,21c-0.2,0-0.3-0.2-0.3-1.2c0-1,0.1-1.2,0.3-1.2c0.2,0,0.3,0.2,0.3,1.2
	C63.9,20.8,63.8,21,63.6,21 M67.2,21.6l-0.4-1.7c0.3-0.2,0.4-0.5,0.4-0.9c0-0.7-0.4-1.1-1-1.1h-1.1v3.7h0.8v-1.5H66l0.3,1.5H67.2z
	 M65.9,18.6H66c0.1,0,0.3,0.1,0.3,0.5c0,0.5-0.2,0.5-0.3,0.5h-0.1V18.6z M68.1,18.8c0-0.2,0.1-0.3,0.2-0.3c0.2,0,0.3,0.2,0.3,0.4
	l0,0.2l0.6,0l0-0.2c0-0.7-0.4-1-0.9-1c-0.7,0-1,0.4-1,1c0,0.5,0.2,0.8,0.6,1.2c0.3,0.2,0.5,0.5,0.5,0.7c0,0.2-0.1,0.3-0.2,0.3
	c-0.2,0-0.3-0.1-0.3-0.5l0-0.2l-0.7,0l0,0.3c0,0.8,0.5,1,1,1c0.7,0,1-0.4,1-1c0-0.5-0.3-0.8-0.6-1.1C68.3,19.1,68.1,19,68.1,18.8"/>
<path class="st0" d="M53.9,14.5l0-0.2c0-0.6-0.4-1-0.9-1c-0.8,0-1.2,0.6-1.2,1.9c0,1.3,0.4,1.9,1.1,1.9c0.3,0,0.5-0.1,0.6-0.3
	l0.2,0.3h0.3v-2h-1v0.4h0.3v0.7c0,0.2-0.1,0.2-0.2,0.2c-0.2,0-0.3-0.2-0.3-1.2c0-1,0.1-1.2,0.3-1.2c0.1,0,0.2,0.1,0.3,0.4l0,0.1
	L53.9,14.5z M55.7,17v-0.6h-0.6v-3h-0.9V17H55.7z M57,17.1c0.8,0,1.2-0.5,1.2-1.9c0-1.4-0.4-1.9-1.2-1.9c-0.8,0-1.2,0.5-1.2,1.9
	C55.9,16.6,56.3,17.1,57,17.1 M57,16.5c-0.2,0-0.3-0.2-0.3-1.2c0-1,0.1-1.2,0.3-1.2c0.2,0,0.3,0.2,0.3,1.2
	C57.3,16.3,57.2,16.5,57,16.5 M58.5,17h1c0.8,0,1.1-0.4,1.1-1.1c0-0.4-0.1-0.7-0.5-0.9c0.3-0.1,0.5-0.4,0.5-0.8
	c0-0.6-0.4-0.9-1.1-0.9h-1V17z M59.8,14.4c0,0.3-0.1,0.5-0.3,0.5h-0.1V14h0.1C59.7,14,59.8,14.1,59.8,14.4 M59.4,16.4v-1h0.1
	c0.2,0,0.3,0.1,0.3,0.5C59.8,16.3,59.7,16.4,59.4,16.4L59.4,16.4z M62.3,17h0.9l-0.6-3.7h-1.2L60.8,17h0.8l0.1-0.8h0.5L62.3,17z
	 M61.7,15.7l0.2-1.7l0.2,1.7H61.7z M64.8,17v-0.6h-0.6v-3h-0.9V17H64.8z"/>
<path class="st0" d="M1.8,15.3c0-0.4,0.3-0.6,0.5-0.6c0.4,0,0.6,0.4,0.6,0.9l0,0.4l1.4-0.1l0-0.5c-0.1-1.7-0.9-2.2-2.1-2.2
	c-1.5,0-2.2,1-2.2,2.2c0,1.2,0.5,1.8,1.4,2.6c0.6,0.5,1.2,1,1.2,1.6c0,0.4-0.2,0.6-0.5,0.6c-0.4,0-0.7-0.3-0.7-1l0-0.4L0,18.9l0,0.6
	c0.1,1.7,1.1,2.2,2.2,2.2c1.5,0,2.2-0.9,2.2-2.3c0-1.2-0.7-1.8-1.4-2.5C2.1,16.1,1.8,15.9,1.8,15.3 M5.7,21.6h1.9v-6.8h1.1v-1.4H4.6
	v1.4h1.1V21.6z M11.7,21.6h1.9l-1.2-8.2H9.8l-1.3,8.2h1.8l0.2-1.8h1.1L11.7,21.6z M10.6,18.7l0.4-3.9l0.4,3.9H10.6z M14.6,21.6h1.9
	v-6.8h1.1v-1.4h-4.1v1.4h1.1V21.6z M21.4,21.6v-1.4H20v-2.4h1.2v-1.1H20v-1.9h1.4v-1.4h-3.2v8.2H21.4z M25.6,15.3
	c0-0.4,0.3-0.6,0.5-0.6c0.4,0,0.6,0.4,0.6,0.9l0,0.4l1.4-0.1l0-0.5c-0.1-1.7-0.9-2.2-2.1-2.2c-1.5,0-2.2,1-2.2,2.2
	c0,1.2,0.5,1.8,1.4,2.6c0.6,0.5,1.2,1,1.2,1.6c0,0.4-0.2,0.6-0.5,0.6c-0.4,0-0.7-0.3-0.7-1l0-0.4l-1.5,0.1l0,0.6
	c0.1,1.7,1.1,2.2,2.2,2.2c1.5,0,2.2-0.9,2.2-2.3c0-1.2-0.7-1.8-1.4-2.5C26,16.1,25.6,15.9,25.6,15.3 M29.5,21.6h1.9v-6.8h1.1v-1.4
	h-4.1v1.4h1.1V21.6z M37.5,21.6l-0.9-3.7c0.6-0.4,0.9-1.2,0.9-2.1c0-1.5-0.8-2.4-2.1-2.4h-2.4v8.2h1.9v-3.3h0.2l0.7,3.3H37.5z
	 M34.8,14.8H35c0.3,0,0.6,0.2,0.6,1.2c0,1-0.3,1.2-0.7,1.2h-0.2V14.8z M41.3,21.6v-1.4H40v-2.4h1.2v-1.1H40v-1.9h1.4v-1.4h-3.2v8.2
	H41.3z M45.2,21.6v-1.4h-1.4v-2.4H45v-1.1h-1.2v-1.9h1.4v-1.4H42v8.2H45.2z M46.8,21.6h1.9v-6.8h1.1v-1.4h-4.1v1.4h1.1V21.6z"/>
<path class="st0" d="M95,14.7c0-0.5-0.3-1-0.9-1c-0.6,0-0.9,0.4-0.9,1c0,0.5,0.3,1,0.9,1C94.7,15.7,95,15.2,95,14.7 M94.1,13.9
	c0.4,0,0.7,0.3,0.7,0.8c0,0.4-0.2,0.8-0.7,0.8c-0.5,0-0.7-0.3-0.7-0.8C93.4,14.3,93.6,13.9,94.1,13.9 M94.5,15.1l-0.1-0.3l0-0.1
	c0.1,0,0.1-0.1,0.1-0.3c0-0.2-0.1-0.3-0.3-0.3h-0.3v1H94v-0.4h0.1l0,0.1l0.1,0.2H94.5z M94,14.3h0.1c0.1,0,0.1,0,0.1,0.1
	c0,0.1-0.1,0.1-0.1,0.1H94V14.3z"/>
</svg>
