<?xml version="1.0" encoding="utf-8"?>
<!-- Generator: Adobe Illustrator 26.0.1, SVG Export Plug-In . SVG Version: 6.00 Build 0)  -->
<svg version="1.1" id="Layer_1" xmlns="http://www.w3.org/2000/svg" xmlns:xlink="http://www.w3.org/1999/xlink" x="0px" y="0px"
	 viewBox="0 0 95 35" style="enable-background:new 0 0 95 35;" xml:space="preserve">
<style type="text/css">
	.st0{fill:#FFFFFF;}
</style>
<g>
	<path class="st0" d="M93.8,17.9c-0.7,0-1.2-0.5-1.2-1.2c0-0.7,0.5-1.2,1.2-1.2c0.7,0,1.2,0.5,1.2,1.2C95,17.3,94.5,17.8,93.8,17.9
		C93.9,17.9,93.8,17.9,93.8,17.9 M93.8,15.6c-0.6,0-1.1,0.5-1.1,1.1c0,0.6,0.5,1.1,1.1,1.1c0.6,0,1.1-0.5,1.1-1.1
		C94.9,16.1,94.4,15.6,93.8,15.6C93.8,15.6,93.8,15.6,93.8,15.6 M94,16.7l0.3,0.6h-0.2l-0.3-0.6h-0.3v0.6h-0.2V16h0.5
		c0.2,0,0.4,0.1,0.4,0.3c0,0,0,0,0,0.1C94.4,16.5,94.2,16.7,94,16.7L94,16.7z M93.9,16.1h-0.4v0.5h0.3c0.2,0,0.3-0.1,0.3-0.2
		C94.1,16.2,94.1,16.1,93.9,16.1L93.9,16.1z"/>
	<path class="st0" d="M17,5.7c1.2,2.4,1.2,5.2,0,7.6c0.7-0.8,1.2-1.8,1.3-2.8c0.1,0.3,0.2,0.6,0.3,0.9c0.4-1,0.4-2.1,0-3.2
		c0,0,1.5,2.3-0.1,4.3c0-0.2-0.1-0.4-0.1-0.6c-0.5,0.8-1.1,1.5-1.8,2c1.8-0.5,2.7-1.4,3-2.6C20.5,8.4,17,5.7,17,5.7"/>
	<path class="st0" d="M19.3,13.2C19.3,13.2,19.3,13.2,19.3,13.2c-0.1,0-2.2,2.3-6.3,1.7c-1.1-0.2-2.3-0.4-3.4-0.7
		c0.3-0.6,0.5-1.4-0.4-1.9c-1.2-0.7-2.9,0.5-3,0.7c0,0.1,0,0.1,0.1,0.1c0.2,0,1.9,0,2.6,1c-1.8-0.4-2,0.3-1.7,1.1
		c0.3,0.8,0.7,1.5,1.1,2.2c0,0,0,0.1,0,0.1c0,0-0.1,0-0.1,0.1c-2.8,0.9-4.9,3.7-6.2,6.1c-0.7-1.3-1-2.7-1-4.1c0-5,4.1-9,9.1-9
		c0.9,0,1.8,0.1,2.7,0.4v0C8,9.1,2.5,11.5,0.6,16.4c-1.1,2.8-0.8,5.9,0.8,8.5c-0.4,0.8-0.8,1.7-1.1,2.5c-0.1,0.4-0.2,0.7,0.1,0.8
		c0.2,0.1,0.4,0,0.7-0.5c1-1.4,5.4-7.9,8.4-5.9c1.5,1,2,2,1.1,2.9c-0.5,0.5-1.6,1.1-2.2,1.4c-1,0.5-1.6,0.6-1.5,1
		c0.1,0.4,0.5,0.3,2.3-0.1c2-0.5,6.5-1.7,4.2-5.5c-1.1-1.7-2.2-3-2.9-4.1c0,0,0-0.1,0-0.1c0,0,0.1,0,0.1,0c7.7-0.6,8.6-3.7,8.7-3.8
		C19.3,13.3,19.4,13.2,19.3,13.2L19.3,13.2z"/>
	<path class="st0" d="M18.3,23.3c-2.2,4.5-7.6,6.4-12.1,4.2c-0.9-0.5-1.8-1.1-2.5-1.8c-0.3,0.3-0.5,0.7-0.8,1
		c3.8,3.6,9.8,3.5,13.4-0.3C17.2,25.5,17.8,24.5,18.3,23.3L18.3,23.3L18.3,23.3z"/>
	<path class="st0" d="M25.4,17h-0.2l-0.3-0.9c-0.4-0.2-0.8-0.3-1.2-0.3c-0.8,0-1.4,0.3-1.4,1.3c0,0.8,0.7,1.3,1.7,1.6s2.1,1,2.1,2.5
		s-1.1,2.3-2.6,2.3c-0.8,0-1.5-0.2-2.1-0.6v-1.3h0.3l0.3,1c0.5,0.4,1.1,0.5,1.7,0.5c1.1,0,1.7-0.6,1.7-1.6c0-0.7-0.5-1.3-1.6-1.7
		c-1.1-0.4-2.2-1-2.2-2.4c0-1.1,0.8-2,2.3-2c0.6,0,1.2,0.1,1.8,0.4L25.4,17L25.4,17z"/>
	<path class="st0" d="M27.8,20c0.1-1,0.6-1.9,1.3-1.9c0.9,0,1.2,1.2,1.2,1.9H27.8z M27.8,20.4h3.5c0-0.9-0.3-2.6-2.1-2.6
		c-1.4,0-2.4,1.1-2.4,2.8c0,1.6,1,2.9,2.7,2.9c0.6,0,1.1-0.2,1.6-0.5L31,22.7c-0.4,0.2-0.9,0.3-1.4,0.3C28.4,23,27.8,21.9,27.8,20.4
		L27.8,20.4z"/>
	<path class="st0" d="M41.4,23.3h-1.8v-3.8c0-0.7-0.1-1.3-0.8-1.3c-0.6,0.1-1.2,0.4-1.6,0.8v3.8l0.7,0.2v0.2h-1.6v-3.8
		c0-0.7-0.2-1.3-0.8-1.3c-0.6,0.1-1.2,0.3-1.6,0.8v3.9l0.7,0.2v0.2H32v-0.2l0.8-0.2v-4.5l-1-0.2V18c0.6-0.1,1.2-0.1,1.7-0.1l0.1,0.6
		c0.5-0.5,1.2-0.7,1.9-0.8c0.6,0,1.1,0.3,1.3,0.9c0.5-0.5,1.2-0.8,2-0.9c1.1,0,1.6,0.6,1.6,1.9v3.2l0.9,0.2V23.3z"/>
	<path class="st0" d="M43.5,19.3c0.3-0.6,0.8-1.1,1.4-1.1c0.8,0,1.2,0.8,1.2,2.3c0,1.5-0.4,2.5-1.6,2.5c-0.4,0-0.7-0.1-1-0.3
		L43.5,19.3L43.5,19.3z M43.5,18.7c0-0.3-0.1-0.5-0.2-0.8c-0.6,0-1.1,0-1.7,0.1v0.2l1,0.2v7l-0.9,0.2v0.2h2.7v-0.3l-0.9-0.2v-2.2
		c0.3,0.2,0.7,0.2,1.1,0.2c1.3,0,2.5-1,2.5-2.9c0-1.5-0.5-2.8-1.9-2.8C44.5,17.8,43.8,18.1,43.5,18.7L43.5,18.7z"/>
	<path class="st0" d="M49.6,22.9l0.9,0.2v0.2h-2.7v-0.2l0.9-0.2v-4.5l-1-0.2V18c0.6-0.1,1.1-0.1,1.7-0.1c0.1,0.2,0.2,0.5,0.2,0.7
		c0.4-0.5,1.1-0.8,1.8-0.9c0.2,0,0.3,0,0.5,0.1l-0.3,0.7c-0.2-0.1-0.3-0.1-0.5-0.1c-0.5,0-1,0.3-1.4,0.7V22.9z"/>
	<path class="st0" d="M55.4,22c-0.3,0.7-0.7,1-1.2,1c-0.6,0-1.1-0.4-1.1-1.2c0-0.9,0.7-1.4,1.5-1.4h0.7L55.4,22L55.4,22z M57.2,23
		l-0.8-0.2v-3.3c0-1.4-0.9-1.8-1.9-1.8c-0.7,0-1.3,0.2-1.9,0.6l0.3,1.1l0.3,0l0.1-0.8c0.3-0.3,0.7-0.4,1.1-0.4
		c0.6,0,1.2,0.3,1.2,1.2V20H55c-1.3,0-2.8,0.4-2.8,2c0,0.9,0.8,1.5,1.7,1.5c0.6,0,1.2-0.3,1.6-0.9l0.2,0.7c0.5,0,1,0,1.5-0.1
		L57.2,23L57.2,23z"/>
	<polygon class="st0" points="65,22.3 64.7,23.3 59.7,23.3 59.7,23.1 60.5,22.9 60.5,15.9 59.7,15.7 59.7,15.5 64.4,15.5 64.7,16.5 
		64.5,16.6 64.1,15.9 61.5,15.9 61.5,18.9 64,18.9 64,19.4 61.5,19.4 61.5,22.9 64.4,22.9 64.8,22.2 	"/>
	<path class="st0" d="M71.6,23.3h-1.8v-3.8c0-1-0.3-1.3-0.9-1.3c-0.6,0.1-1.1,0.4-1.5,0.8v3.9l0.7,0.2v0.2h-2.4v-0.2l0.8-0.2v-4.5
		l-1-0.2V18c0.6-0.1,1.2-0.1,1.7-0.1l0.1,0.6c0.5-0.4,1.2-0.7,1.8-0.8c1.1,0,1.6,0.6,1.6,1.9v3.2l0.9,0.2L71.6,23.3L71.6,23.3z"/>
	<path class="st0" d="M73.1,20c0.1-1,0.6-1.9,1.3-1.9c0.9,0,1.2,1.2,1.2,1.9H73.1z M73.1,20.4h3.5c0-0.9-0.3-2.6-2.1-2.6
		c-1.4,0-2.4,1.1-2.4,2.8c0,1.6,1,2.9,2.7,2.9c0.6,0,1.1-0.2,1.6-0.5l-0.1-0.3c-0.4,0.2-0.9,0.3-1.4,0.3
		C73.8,23,73.1,21.9,73.1,20.4L73.1,20.4z"/>
	<path class="st0" d="M79.1,22.9l0.9,0.2v0.2h-2.7v-0.2l0.9-0.2v-4.5l-1-0.2V18c0.6-0.1,1.1-0.1,1.7-0.1c0.1,0.2,0.2,0.5,0.2,0.7
		c0.4-0.5,1.1-0.8,1.8-0.9c0.2,0,0.3,0,0.5,0.1L81,18.6c-0.2-0.1-0.3-0.1-0.5-0.1c-0.5,0-1,0.3-1.4,0.7V22.9z"/>
	<path class="st0" d="M82.6,19.6c0-0.9,0.6-1.5,1.2-1.5c0.7,0,1.2,0.6,1.2,1.5c0,1.1-0.6,1.5-1.2,1.5C83.2,21.1,82.6,20.7,82.6,19.6
		 M82.2,20.9c-0.3,0.2-0.6,0.6-0.6,1c0,0.6,0.4,1.1,0.9,1.2c-0.7,0.2-1.2,0.7-1.2,1.3c0,0.7,0.7,1.4,2.4,1.4c1.9,0,2.8-1.1,2.8-2.1
		c0-0.5-0.2-1-0.7-1.3h-2.4c-1,0-1.3-0.4-1.3-0.8c0-0.2,0.1-0.4,0.3-0.5c0.4,0.3,0.9,0.4,1.4,0.4c1.5,0,2.1-1,2.1-1.9
		c0-0.5-0.2-0.9-0.5-1.3l1-0.2v-0.3h-1.7c-0.3-0.1-0.6-0.1-0.9-0.1c-1.4,0-2.1,0.8-2.1,1.9C81.7,20.1,81.8,20.6,82.2,20.9L82.2,20.9
		z M85.6,23.2c0.2,0.2,0.4,0.4,0.4,0.7c0,0.7-0.6,1.5-1.9,1.5c-1.3,0-1.8-0.6-1.8-1.1c0-0.5,0.3-0.9,0.7-1.1L85.6,23.2z"/>
	<path class="st0" d="M87.8,25.5c0.5-0.2,1-0.6,1.2-1.1l0.4-1.2l-1.8-4.8l-0.8-0.3v-0.2h2.3v0.2l-0.6,0.2l1.3,3.7l1.5-4.1h1.3v0.2
		l-0.9,0.3l-2.1,5.8c-0.4,1.1-0.7,1.3-1.4,1.8L87.8,25.5L87.8,25.5z"/>
</g>
</svg>
