<?xml version="1.0" encoding="utf-8"?>
<!-- Generator: Adobe Illustrator 26.0.1, SVG Export Plug-In . SVG Version: 6.00 Build 0)  -->
<svg version="1.1" id="Layer_1" xmlns="http://www.w3.org/2000/svg" xmlns:xlink="http://www.w3.org/1999/xlink" x="0px" y="0px"
	 viewBox="0 0 95 35" style="enable-background:new 0 0 95 35;" xml:space="preserve">
<style type="text/css">
	.st0{fill:#343741;}
</style>
<g>
	<g>
		<g>
			<path class="st0" d="M49.2,7.3c0.3,0,0.9,0,1.4,0.1c0,0,0,0,0,0.1s0,0.1,0,0.2c0,0,0,0-0.1,0C50,7.6,49.5,7.5,49.2,7.3
				C49.1,7.4,49.1,7.3,49.2,7.3L49.2,7.3z M50,8.9c0,0.1-0.1,0.1-0.1,0.2c0,0.1-0.1,0.1-0.2,0.1C48.8,9,48,8.7,47.2,8.6l0,0
				c0.6,0,1.7,0,2.8,0.3C50,8.7,50.2,8.8,50,8.9L50,8.9z M47.1,8c-0.1,0.1-0.2,0.2-0.2,0.3c0,0.1-0.1,0.1-0.2,0.1
				c-1.4-0.2-3-0.2-3-0.2c-0.1,0-0.1,0,0,0c0,0,1.2-0.3,3.3-0.3C47.1,7.8,47.1,8,47.1,8L47.1,8z M43.8,13.4c0.4-0.2,1.4-0.3,2.7-0.4
				c0,0,0.1,0,0,0.1c0,0.1-0.1,0.2-0.1,0.3v0.1c0,0,0,0-0.1,0C45.3,13.2,44.3,13.2,43.8,13.4L43.8,13.4L43.8,13.4z M48.3,8
				c0.4,0,1.2,0,2,0.2c0,0,0.1,0,0,0.1c0,0.1-0.1,0.2-0.1,0.2S50,8.6,50,8.5C49.6,8.3,48.8,8.1,48.3,8L48.3,8L48.3,8z M42.2,14.4
				L42.2,14.4c0.6-0.3,1.9-0.6,3.8-0.6c0.1,0,0.1,0.1,0.1,0.1c0,0.1-0.1,0.2-0.2,0.2l-0.1,0.1c0,0-0.1,0-0.2,0
				C44.3,14.1,43,14.2,42.2,14.4L42.2,14.4z M45.7,6.8c0,0,0.7-0.2,1.7-0.1c0,0,0,0,0,0.1s0,0.1-0.1,0.2c0,0,0,0-0.1,0
				C46.6,6.8,45.7,6.8,45.7,6.8L45.7,6.8L45.7,6.8z M48.9,3.9c0.3,0,0.6,0,0.9,0.1c0.2,0,0.4,0.1,0.6,0.1l0.1,0.1v0.1
				c0,0,0,0.1-0.1,0h-0.1l0,0c-0.1-0.1-0.3-0.1-0.4-0.1l0,0C49.5,4,49.2,3.9,48.9,3.9C48.8,3.9,48.8,3.9,48.9,3.9L48.9,3.9z
				 M46.8,6.1c0,0,0.3-0.1,0.8,0l0,0v0.1l0,0C47.2,6.2,46.8,6.2,46.8,6.1C46.7,6.2,46.7,6.1,46.8,6.1L46.8,6.1z M49.6,3.4
				c0.1,0,0.3,0,0.6,0c0.1,0,0.2,0,0.3,0.1c0,0,0,0,0,0.1v0.1l0,0l0,0c-0.1,0-0.2-0.1-0.2-0.1C49.9,3.5,49.8,3.4,49.6,3.4L49.6,3.4
				L49.6,3.4z M47.1,2.7c0.1,0,0.3,0,0.6,0c0.1,0,0.2,0,0.3,0l0,0v0.1l0,0c-0.1,0-0.2-0.1-0.3-0.1C47.4,2.8,47.2,2.8,47.1,2.7
				L47.1,2.7L47.1,2.7z M44.9,12.5c0.3-0.1,1-0.2,1.8-0.2l0,0c0,0.1,0,0.1,0,0.2l0,0l0,0C46,12.5,45.2,12.5,44.9,12.5L44.9,12.5
				L44.9,12.5z M44.7,7.4c0,0,0.9-0.2,2.5-0.1c0,0,0.1,0,0,0.1c0,0.1-0.1,0.1-0.1,0.2c0,0-0.1,0.1-0.1,0C46,7.4,44.7,7.4,44.7,7.4
				C44.6,7.4,44.6,7.4,44.7,7.4L44.7,7.4z M50.4,4.8v0.1C50.4,5,50.3,5,50.3,5c-0.2-0.1-0.3-0.1-0.6-0.2c-0.2-0.1-0.4-0.1-0.7-0.2
				c-0.4-0.1-0.8-0.2-1.2-0.3l0,0c0.4,0,0.9,0,1.3,0.1c0.2,0,0.4,0.1,0.8,0.1c0.1,0,0.3,0.1,0.4,0.1C50.4,4.6,50.4,4.6,50.4,4.8
				L50.4,4.8z M50.3,22.7c-0.1-0.1-0.2-0.2-0.3-0.3c0,0,0-0.1-0.1-0.1c0,0,0,0-0.1-0.1c0.8-0.1,1.5-0.2,2.4-0.3
				c0.1,0,0.1,0.1,0.1,0.1l0,0c0,0.1,0,0.2,0,0.3c0,0.1,0,0.2,0,0.3c0,0,0,0.1-0.1,0.1c-0.3,0-0.6,0-0.9,0c0-0.2,0.1-0.3,0.1-0.4
				c0-0.1,0-0.2-0.1-0.2c-0.1,0-0.2,0.1-0.2,0.1c0,0.1,0,0.2,0,0.2c0,0.1,0,0.2-0.3,0.2C50.5,22.9,50.4,22.9,50.3,22.7L50.3,22.7z
				 M33.5,30.6l-0.8,2.3h1.7L33.5,30.6L33.5,30.6z M25.4,35c-0.8,0-1.3-0.2-1.7-0.3v-1.2h0.1c0.1,0.6,0.4,1.1,1.5,1.1
				c0.8,0,1.3-0.4,1.3-1.1s-0.6-1.1-1.5-1.5c-1.1-0.6-1.5-1.1-1.5-1.8c0-1.1,0.9-1.7,2.2-1.7c0.7,0,1.2,0.1,1.4,0.2v1.1h-0.1
				c-0.1-0.6-0.6-0.9-1.3-0.9s-1.2,0.3-1.3,1c0,0.6,0.3,0.9,1,1.2c1.5,0.7,2.1,1.2,2.1,2.1C27.7,34.2,26.9,35,25.4,35L25.4,35z
				 M31.6,30.7c-0.1-0.4-0.3-0.7-1.1-0.7h-0.3v3.9c0,0.7,0.1,0.8,0.7,0.8v0.1h-2.3v-0.1c0.6,0,0.7-0.2,0.7-0.8V30H29
				c-0.8,0-1,0.2-1.1,0.7h-0.2v-1h4.1v1L31.6,30.7L31.6,30.7z M34.3,34.9v-0.2c0.3,0,0.6-0.1,0.6-0.3c0-0.1,0-0.2-0.1-0.3l-0.2-0.8
				h-2l-0.2,0.7c0,0.1-0.1,0.2-0.1,0.4c0,0.2,0.1,0.3,0.4,0.3v0.1h-1.5v-0.1c0.4,0,0.6-0.3,0.8-0.9l1.5-4.1H34l1.5,4.2
				c0.2,0.6,0.3,0.8,0.8,0.8v0.1h-2.1V34.9z M39.7,30.7c-0.1-0.4-0.3-0.7-1.1-0.7h-0.3v3.9c0,0.6,0.1,0.8,0.7,0.8v0.1h-2.3v-0.1
				c0.6,0,0.7-0.2,0.7-0.8V30h-0.3c-0.8,0-1,0.2-1.1,0.7l0,0v-1h4v1L39.7,30.7L39.7,30.7z M40,34.9v-0.2c0.6,0,0.8-0.2,0.8-0.8v-3.2
				c0-0.6-0.2-0.8-0.8-0.8v-0.1h3.6v1h-0.1c-0.1-0.4-0.3-0.7-1.1-0.7H42c-0.3,0-0.4,0.2-0.4,0.7v1.3h0.9c0.4,0,0.6-0.2,0.7-0.6h0.1
				V33h-0.1c0-0.3-0.2-0.6-0.7-0.6h-0.9V34c0,0.6,0.1,0.6,0.4,0.6h0.7c0.6,0,0.9-0.3,1-0.7h0.1v1L40,34.9L40,34.9z M47.6,35
				c-0.8,0-1.3-0.2-1.7-0.3v-1.2h0.1c0.1,0.6,0.4,1.1,1.5,1.1c0.8,0,1.3-0.4,1.3-1.1s-0.6-1.1-1.5-1.5c-1.1-0.6-1.5-1.1-1.5-1.8
				c0-1.1,0.9-1.7,2.2-1.7c0.7,0,1.2,0.1,1.4,0.2v1.1h-0.1c-0.1-0.6-0.6-0.9-1.3-0.9c-0.8,0-1.2,0.3-1.3,1c0,0.6,0.3,0.9,1,1.2
				c1.5,0.7,2.1,1.2,2.1,2.1C49.9,34.2,49.2,35,47.6,35L47.6,35z M53.8,30.7c-0.1-0.4-0.3-0.7-1.1-0.7h-0.3v3.9
				c0,0.6,0.2,0.8,0.7,0.8v0.1h-2.3v-0.1c0.6,0,0.7-0.2,0.7-0.8V30H51c-0.8,0-1,0.2-1.1,0.7h-0.1v-1h4L53.8,30.7L53.8,30.7
				L53.8,30.7z M57.3,34.9l-1.5-2.7c0.7,0,1.3-0.3,1.3-1.1c0-0.8-0.4-1-1.1-1c-0.4,0-0.6,0.1-0.6,0.6V34c0,0.6,0.2,0.8,0.7,0.8v0.1
				h-2.3v-0.2c0.6,0,0.7-0.2,0.7-0.8v-3.2c0-0.4,0-0.8-0.6-0.8v-0.1h2c1,0,2,0.2,2,1.2c0,0.9-0.8,1.2-1.2,1.3l1,1.7
				c0.3,0.4,0.4,0.7,0.8,0.7c0.4,0,0.6-0.2,0.6-0.8v-3.2c0-0.6-0.2-0.8-0.7-0.8v-0.1H62v1h-0.1c-0.1-0.4-0.3-0.7-1.1-0.7h-0.4
				c-0.2-0.1-0.2,0.1-0.2,0.6V32H61c0.4,0,0.6-0.2,0.7-0.6h0.1v1.4h-0.1c0-0.3-0.2-0.6-0.7-0.6h-0.9v1.5c0,0.6,0.1,0.6,0.4,0.6h0.7
				c0.6,0,0.9-0.3,1-0.7h0.1v1h-5L57.3,34.9L57.3,34.9z M62.6,34.9v-0.2c0.6,0,0.7-0.2,0.7-0.8v-3.2c0-0.6-0.2-0.8-0.7-0.8v-0.1h3.6
				v1h-0.1c-0.1-0.4-0.3-0.7-1.1-0.7h-0.4c-0.3,0-0.4,0.2-0.4,0.7v1.3h0.9c0.4,0,0.6-0.2,0.6-0.6h0.1V33h-0.1c0-0.3-0.2-0.6-0.6-0.6
				h-0.9V34c0,0.6,0.1,0.6,0.4,0.6h0.7c0.7,0,0.9-0.3,1-0.7h0.1v1L62.6,34.9L62.6,34.9z M70.6,30.7c-0.1-0.4-0.3-0.7-1.1-0.7h-0.3
				v3.9c0,0.6,0.1,0.8,0.7,0.8v0.1h-2.3v-0.1c0.6,0,0.7-0.2,0.7-0.8V30h-0.3c-0.8,0-1,0.2-1.1,0.7l0,0v-1h4v1L70.6,30.7L70.6,30.7z
				 M70.8,34.3c0.1,0,0.2,0,0.2-0.1s-0.1-0.1-0.1-0.1h-0.1V34.3L70.8,34.3 M70.7,34.7L70.7,34.7L70.6,34h0.2c0.1,0,0.2,0.1,0.2,0.2
				c0,0.1-0.1,0.1-0.1,0.2l0.2,0.2H71l-0.2-0.2h-0.1L70.7,34.7L70.7,34.7z M70.4,34.3c0,0.2,0.2,0.4,0.4,0.4s0.4-0.2,0.4-0.4
				c0-0.2-0.2-0.4-0.4-0.4S70.4,34.1,70.4,34.3L70.4,34.3z M71.3,34.3c0,0.3-0.2,0.6-0.6,0.6s-0.6-0.2-0.6-0.6s0.2-0.6,0.6-0.6
				S71.3,34.1,71.3,34.3L71.3,34.3z M49.4,26.2c0.1,0.1,0.3,0.2,0.4,0.3c0.4,0.3,1.1,0.7,1.5,0.9c0.4,0.2,0.6,0.2,0.7,0.2
				c0,0,0.1,0,0.1,0.1H52c0,0-0.4-0.1-0.8-0.2C51,27.4,50.4,27.2,50,27c-0.2-0.1-0.8-0.4-0.9-0.4c-0.1-0.1-0.1-0.2-0.1-0.3
				C49.2,26.1,49.3,26.1,49.4,26.2L49.4,26.2z M52.7,25.7c0,0,0,0.1,0.1,0.1c0.1,0.1,0.7,0.4,1.2,0.8c0.6,0.3,1.4,0.7,2.1,0.9
				c0.1,0,0.1,0.1,0.1,0.1s-0.1,0-0.2,0c-0.6-0.2-1.8-0.7-2.3-0.9c-0.4-0.2-1.5-0.9-1.9-1h-0.1l0,0c0.1,0.1,1.4,1.1,2.7,1.7
				c0.1,0,0.1,0.1,0.1,0.1h-0.1c-0.3-0.1-1.2-0.6-2-1c-0.8-0.4-1.3-0.8-1.4-1c-0.1-0.2-0.2-0.4,0-0.7c0.2-0.2,0.6-0.2,0.7-0.1
				c0.2,0.1,0.3,0.1,0.4,0.1s0.2-0.1,0.4-0.1c0.4,0.1,0.8,0.7,2.3,1.4c1.1,0.6,2.2,1,2.3,1c0.1,0,0.1,0.1,0,0.1H57
				c-0.2,0-1.3-0.3-2.4-0.9c-0.6-0.2-1.1-0.6-1.5-0.8C52.7,25.7,52.7,25.7,52.7,25.7L52.7,25.7z M57.8,27.6
				C57.9,27.6,57.9,27.6,57.8,27.6c0,0.1,0,0.1-0.1,0.1c-0.1,0-0.2,0-0.2,0c-0.1,0-0.1-0.1,0-0.1h0.1C57.5,27.5,57.8,27.5,57.8,27.6
				L57.8,27.6z M45.6,11.6c0.2-0.1,0.8-0.1,1.1-0.1l0,0c0,0.1,0,0.1,0,0.2l0,0l0,0C46.4,11.7,45.8,11.6,45.6,11.6L45.6,11.6
				L45.6,11.6z M58,25.4c2,1.2,4,1.7,4.1,1.8c0.1,0,0.1,0.1,0,0.1s-2.7-0.8-4-1.4c-1.2-0.7-2-1.1-2-1.1c-0.1,0-0.1,0-0.1,0v0.1
				c0.1,0.1,0.6,0.4,1.2,0.9c0.7,0.4,1.9,1,2,1.1c0.1,0,0.1,0.1,0,0.1s-2-0.9-2.9-1.4s-1.5-1.1-1.7-1.4c-0.1-0.2-0.1-0.6,0.1-0.8
				c0.2-0.2,0.6-0.2,0.7-0.3c0.1-0.1,0.1-0.3,0.2-0.4c0.1-0.1,0.4-0.1,0.6-0.1c0.1,0,0.2-0.1,0.2-0.2S56.3,22,56.1,22
				c-0.3,0-0.7,0.1-0.8,0.1c-0.1-0.1-0.1-0.2-0.2-0.2c-0.1-0.1-0.6,0.2-0.6,0.2h-0.1V22c0,0,0.4-0.6,0.7-0.4c0.2,0,0.2,0.2,0.3,0.3
				c0.1,0,0.3-0.1,0.7-0.1c0,0,0.2,0,0.3,0.1c0.2,0.1,0.3,0.3,0.2,0.6c0,0-0.1,0.2-0.3,0.2c-0.1,0-0.2,0-0.3,0.1
				c-0.3,0-0.3,0.2-0.3,0.3c0,0.1-0.1,0.1-0.2,0.2c0,0-0.1,0.1,0,0.3C55.6,23.7,55.9,24.2,58,25.4L58,25.4z M55,25.6
				c0,0,0,0.1,0.7,0.4c0.6,0.3,1.4,0.7,2.8,1.1c0.3,0.1,0.2,0.1,0,0.1c-0.2-0.1-2.2-0.7-3.2-1.2c-1-0.4-1.7-0.9-2-1.2
				c-0.1-0.1-0.2-0.4,0-0.6c0.1-0.1,0.3-0.1,0.6,0c0.1,0.1,1.3,1,3,1.8s3.2,1.2,3.5,1.2c0.2,0.1,0.3,0.1,0.3,0.1s0.1,0.1-0.3,0
				c-0.3,0-1.5-0.3-3.4-1C56.1,26.2,55.6,25.8,55,25.6L55,25.6L55,25.6z M49.2,24c-0.2-0.1-0.4-0.2-0.7-0.3c0.2,0,0.4-0.1,0.7-0.1
				c0.1,0,0.1,0.1,0.2,0.1c0.1,0.1,0,0.2,0,0.3C49.4,24,49.3,24,49.2,24L49.2,24z M54,23.6c0,0.1-0.1,0.2-0.2,0.2
				c-0.1,0-0.2-0.1-0.2-0.2c0-0.1,0.1-0.2,0.2-0.2C53.9,23.4,54,23.5,54,23.6L54,23.6z M49.8,24.2c0.1-0.1,0.3-0.1,0.4,0
				c0.1,0.1,0.2,0.3,0.1,0.4c-0.1,0.1-0.2,0.1-0.4,0C49.8,24.6,49.7,24.4,49.8,24.2L49.8,24.2z M54.1,22.1c-0.1,0.1-0.3,0.2-0.6,0.6
				c-0.2,0.3-0.4,0.8-0.7,1.1c0-1.1,0.2-1.9,0.9-2.9h0.1C54,21.1,54.1,21.5,54.1,22.1L54.1,22.1z M49.5,23.4c0.2,0,0.4-0.1,0.7-0.1
				c0.1,0.2,0.2,0.6,0,0.6C49.9,24,49.7,23.6,49.5,23.4L49.5,23.4z M46.1,3.3c0.2,0,0.6-0.1,0.8-0.1c0.1,0,0.3,0,0.4,0s0.2,0,0.4,0
				c0,0,0,0,0,0.1c0,0.1,0,0.1-0.1,0.2c0,0,0,0-0.1,0c-0.2-0.1-0.6-0.1-0.8-0.1l0,0C46.6,3.3,46.4,3.3,46.1,3.3L46.1,3.3L46.1,3.3z
				 M52.2,23.2c0,0.2,0,0.4,0,0.7c-0.4,0-0.8-0.3-0.9-0.7l0,0v-0.1C51.6,23.1,51.9,23.1,52.2,23.2C52.2,23.1,52.2,23.2,52.2,23.2
				L52.2,23.2z M40.2,10c0.2-0.3,0.2-0.7,0.2-1.1c0-0.2,0-0.3,0-0.4l1,0.2l0,0l0.7,0.1c0,0,0.1,0.1,0.1,0.3c0,0.1,0,0.1-0.1,0.1
				c-0.3,0-0.7,0.1-0.8,0.1l0,0c0.2,0,0.6,0,0.8,0.1c0.1,0,0.1,0.1,0.1,0.1l0,0c0,0.1-0.1,0.1-0.1,0.1c-0.8,0-1.2,0.2-1.3,0.2l0,0
				c0.2,0,0.8,0,1.1,0c0,0,0.1,0.1,0,0.1c-0.1,0.1-0.3,0.2-0.7,0.3c-0.7,0.1-1.2,0.2-1.4,0.3l0,0c0.8,0,1.9,0.1,2.5,0.1
				c0,0,0.1,0,0.1,0.1c0,0,0,0.1-0.1,0.1l0,0c-1.1-0.1-2.1-0.2-3-0.1C39.8,10.7,40,10.4,40.2,10L40.2,10z M41.7,7
				c0.2-0.4,0.3-1,0.2-1.7l1.8,0.6c0,0.1,0,0.1,0,0.2c0,0,0,0.1-0.1,0.1c-0.3,0.1-0.7,0.2-0.8,0.2l0,0c0.2,0,0.6,0,0.7,0
				c0,0,0.1,0,0,0.1v0.1l-0.1,0.1c-0.6,0.1-1,0.2-1.1,0.3l0,0c0.3,0,0.7,0,1,0c0,0,0.1,0,0,0.1c0,0,0,0.1-0.1,0.1L43,7.4
				c-0.7,0.1-1.4,0.3-1.7,0.4l0,0c0.3,0,0.9,0,1.2,0l0,0c-0.9,0.6-2,0.4-2,0.4C41.1,7.7,41.4,7.3,41.7,7L41.7,7z M43,4
				c0.3-0.4,0.4-0.9,0.6-1.3l1.1,0.4l0,0v0.1c0,0,0,0.1-0.1,0.1c-0.1,0-0.2,0-0.3,0.1l0,0c0.1,0,0.2,0,0.3,0c0,0,0,0,0,0.1l0,0
				l-0.1,0.1c-0.2,0-0.4,0-0.6,0l0,0c0.1,0,0.3,0.1,0.4,0.1c0,0,0,0,0,0.1C44.2,4,44.2,4,44.1,4.1H44L43.5,4c-0.1,0-0.1,0-0.1,0.1
				s0,0.1,0.1,0.1l0.3,0.1l0,0c-0.3,0.2-1.2,0.4-1.7,0.4l0,0l0,0C42.3,4.6,42.6,4.3,43,4L43,4z M45.7,1.3l6.8,2.5
				c0,0.1,0.1,0.2,0.1,0.4s0,0.2,0,0.2c-0.3-0.1-0.4-0.2-0.9-0.2l0,0c0.4,0.2,0.7,0.3,0.9,0.6c0.1,0.1,0.1,0.2,0.1,0.2
				s-0.1,0.1-0.1,0c-0.6-0.2-1-0.4-1.4-0.4l0,0c0.6,0.2,1.1,0.6,1.5,0.9c0.1,0,0.1,0.1,0.1,0.2h-0.1c-0.7-0.3-1.3-0.6-2-0.7l0,0
				c0.7,0.3,1.3,0.7,1.9,1.1c0.1,0.1,0.1,0.1,0.1,0.2c0,0.1-0.1,0.1-0.2,0l0,0c-2.9-2-6.6-2.5-8.3-2.2C45.7,3.1,45.7,1.9,45.7,1.3
				L45.7,1.3z M48.4,5.5V4.9c0.1,0,0.1,0,0.2,0.1v0.7L48.4,5.5L48.4,5.5z M46.1,4.5C46.1,4.5,46.2,4.5,46.1,4.5c0.6,0,1,0.1,1.5,0.2
				c0.2,0,0.4,0.1,0.7,0.1l0,0v0.2C47.7,5,46.3,4.6,46.1,4.5C46.2,4.6,46.1,4.5,46.1,4.5L46.1,4.5z M44.1,5.6l-1.9-0.6
				c0.7,0,1.3,0,1.9,0.1C44.1,5.3,44.1,5.4,44.1,5.6L44.1,5.6z M49.7,6.2l0.6,0.7c-0.2,0-0.4,0-0.6,0l0,0c0.2,0,0.7,0.1,0.9,0.3
				l1.3,1.4l0,0l0,0l0,0c-0.3,0-0.7,0-0.9,0l0,0c0.2,0.1,0.4,0.2,0.7,0.2c0.1,0,0.2,0.2,0.1,0.3c0,0.1-0.1,0.2-0.2,0.1
				c-0.6-0.1-1-0.1-1.3-0.1l0,0c0.4,0.1,0.8,0.3,1.1,0.4c0.1,0.1,0.1,0.2,0.1,0.3C51.4,10,51.3,10,51.1,10c-3.4-1.9-7.2-1.9-8.4-1.7
				c1.9-2,1.7-3.6,1.5-4.1L49.7,6.2L49.7,6.2z M52.2,8.9l1.3,1.4v0.1c-0.1,0-0.3,0.1-0.4,0.1v0.1c0.2,0,0.4,0,0.6,0
				c0.1,0,0.1,0,0.2,0.1l0.2,0.3v0.1c-0.3,0-0.7,0-0.9,0.1v0.1c0.3,0,0.8,0.1,1.1,0.2c0.1,0,0.1,0.1,0.2,0.1l0.2,0.2v0.1
				c-0.4-0.1-1-0.1-1.3,0v0.1c0.4,0,1.1,0.1,1.7,0.3c0.1,0,0.1,0.1,0.2,0.1l0.1,0.1v0.1c-0.6-0.1-1.3-0.2-1.8-0.1v0.1
				c0.7,0,1.4,0.2,2.2,0.4c0.1,0,0.1,0.1,0.2,0.1l0.7,0.7l0,0l0,0c-0.7-0.3-1.3-0.6-1.9-0.7c-0.8-0.1-1.5-0.1-2.3,0.1
				C51.8,11.5,52,9.8,52.2,8.9L52.2,8.9z M54.1,13.8l0.2,0.3v0.1c-0.6-0.1-1.1-0.1-1.7,0v0.1c0.6,0,1.3,0.1,2.1,0.3
				c0.1,0,0.1,0.1,0.2,0.1l0.4,0.6c-0.6-0.2-1.1-0.4-1.7-0.6c-0.9-0.1-1.8,0-2.5,0.2c-0.4-1.4-0.4-3-0.1-4.5l0.8,0.8
				c0,0.8,0.1,1.5,0.3,2.2c0,0.1,0.1,0.1,0.1,0.1h0.1c0.6-0.1,1,0,1.4,0.1C53.9,13.7,54,13.8,54.1,13.8L54.1,13.8z M53.8,16.1
				c0.1,0,0.1,0.1,0.2,0.1l0.3,0.4c-1.2-0.7-2.5-0.8-4.1-0.3c-0.4-1.5-0.7-3.2-0.4-4.6l0.6,0.6c0.1,0.1,0.1,0.1,0.1,0.3
				c0,0.9,0.1,1.9,0.3,2.8c0,0,0,0.1,0.1,0.1H51c0.1,0,0.1,0,0.2-0.1c0.7-0.2,1.3-0.1,1.8,0c0.1,0,0.1,0,0.2,0.1l0.1,0.2v0.1
				c-0.6-0.1-1.1-0.1-1.7,0v0.1C52.4,15.8,53.1,15.8,53.8,16.1L53.8,16.1z M54.1,17c0,0,0-0.1,0-0.2c0.2,0.1,0.3,0.2,0.4,0.3
				L54.1,17L54.1,17z M52,16.7c0-0.1,0-0.2,0-0.3c0.4,0.1,0.8,0.3,1.2,0.6L52,16.7L52,16.7z M48.3,15.7v-0.2
				c0.7,0.1,1.2,0.3,1.8,0.6c0,0.1,0,0.1,0.1,0.2C49.5,16,48.9,15.8,48.3,15.7L48.3,15.7z M48.1,16l-0.6-0.1l0.1-0.9
				c0.1,0,0.3,0.1,0.6,0.1L48.1,16L48.1,16z M47.4,15.5c-0.3,0-0.8-0.1-1.1-0.1c-0.9-0.1-1.8-0.1-2.8,0l-1-0.1
				c1.5-0.2,3.3-0.1,4.9,0.1L47.4,15.5L47.4,15.5z M49.6,10.7l0.8,0.2l0,0c0,0.2,0,0.4,0,0.7l0.2,0.2v0.1h-0.1l-1.9-2.1V9.7h0.1
				l0.2,0.2c0.4,0.2,0.8,0.4,1.2,0.7l-0.8-0.2L49.6,10.7L49.6,10.7z M48.1,10l0.1-0.8c0.1,0,0.2,0.1,0.3,0.1v0.8L48.1,10L48.1,10z
				 M45.6,9.3V9c0.8,0.1,1.4,0.3,2.2,0.6v0.3C47.2,9.6,46.4,9.4,45.6,9.3L45.6,9.3z M45.2,9.4V8.8c0.1,0,0.2,0,0.3,0v0.3l0,0v0.2
				H45.2L45.2,9.4z M43.4,8.8c0.6,0,1.1,0,1.7,0.1v0.2C44.4,8.9,43.9,8.9,43.4,8.8L43.4,8.8z M42.3,8.7l-1.4-0.3c0.6,0,1.1,0,1.7,0
				C42.5,8.5,42.4,8.6,42.3,8.7L42.3,8.7z M42.4,9.1L42.4,9.1L42.4,9.1l6.5,1.5l0.8,0.9c0,0.1,0,0.3-0.1,0.6c0,0.1,0,0.1-0.1,0.1
				c-0.2,0-0.4,0-0.7,0.1l0,0c0.2,0,0.4,0.1,0.7,0.1c0.1,0,0.1,0.1,0.1,0.1c0,0.1,0,0.1,0,0.2c0,0.1-0.1,0.1-0.1,0.1
				c-0.6,0-1.1,0-1.5,0.1l0,0c0.4,0.1,1,0.1,1.5,0.2c0.1,0,0.1,0.1,0.1,0.1v0.1c0,0.1,0,0.1-0.1,0.1c-1-0.1-1.9-0.1-2.4,0l0,0
				c0.7,0.1,1.5,0.2,2.3,0.3c0.1,0,0.1,0.1,0.1,0.2c0,0.1-0.1,0.1-0.2,0.1c-1.3-0.1-2.7-0.1-3.2,0l0,0c0.9,0.1,1.9,0.2,3,0.4
				c0.1,0,0.1,0.1,0.1,0.2l0,0c-0.1,0.1-0.1,0.1-0.2,0.1c-0.1,0-0.1,0-0.2,0c-3.8-0.8-6.7-0.3-7.5-0.1C43.9,11.3,42.6,9.2,42.4,9.1
				L42.4,9.1z M38.3,9.3l0.6,0.1c0.2,0.7,0.2,1.2,0.1,1.8l2.4,0.6l0,0c0,0.1,0.1,0.2,0.1,0.3v0.1c-0.2,0.1-0.4,0.2-0.4,0.2l0,0
				c0.1,0,0.3,0,0.6-0.1h0.1c0,0.1,0,0.1,0,0.2v0.1c-0.3,0.1-0.7,0.3-0.8,0.4l0,0c0.1,0,0.4-0.1,0.8-0.1c0,0,0.1,0,0,0V13
				c0,0,0,0.1-0.1,0.1c-0.6,0.2-0.9,0.6-1.1,0.7l0,0c0.2-0.1,0.6-0.2,0.9-0.3l0,0c0,0.1-0.1,0.2-0.1,0.2s0,0.1-0.1,0.1
				c-0.6,0.2-0.9,0.6-1.2,0.8l0,0c0.2-0.1,0.4-0.2,0.8-0.3l0,0c-0.1,0.1-0.2,0.2-0.3,0.3l14.2,2.2l0.2-0.3l-0.9-1l0,0l-0.6-0.2v-0.1
				h0.1l0.7,0.8c0-0.2,0-0.4,0-0.7c0.6,0.1,1.2,0.3,1.7,0.7L56,16l0.1-0.2l-2.2-2.4c1,0,2,0.3,3.2,1.1l0.1,0.1l0.1-0.2L48.8,5V4.9
				h0.1l0.3,0.3c1.1,0.4,2.2,0.9,3.2,1.5L50,6l0.3,0.3l2.4,0.8c0,0.1,0.1,0.2,0.1,0.3c0,0.1,0,0.1-0.1,0.1c-0.3,0-0.7,0-0.8,0l0,0
				c0.2,0.1,0.7,0.2,0.9,0.4L53,8.1l0,0c0,0,0,0.1-0.1,0.1c-0.4-0.1-0.8-0.1-1.1-0.1L52,8.3c0.3,0.2,0.8,0.3,1,0.6l0,0l0,0l0,0
				c-0.2,0-0.4-0.1-0.6-0.1l0.8,0.9c0.1-0.8,0.1-1.5-0.2-2.4h0.1c0.1,0,0.1,0,0.1-0.1s0-0.1-0.1-0.1l-0.6-0.1
				C53,5.6,52.8,4.5,52.7,4l0.2,0.1C53,4.1,53,4.1,53,4c0-0.1,0-0.1-0.1-0.1l-4.2-1.5l0.3-2.1c0-0.1-0.1-0.2-0.2-0.2
				c-0.1,0-0.2,0.1-0.2,0.2l-0.1,1.9l-3.3-1.2c-0.1,0-0.1,0-0.1,0.1s0,0.1,0.1,0.1l0.3,0.1c0,0.2,0.1,0.9-0.3,1.7l-2.1-0.8
				c-0.1,0-0.1,0-0.1,0.1c0,0.1,0,0.1,0.1,0.1l0.3,0.1c0,1-0.8,1.7-1.7,2.3h-0.4c-0.1,0-0.1,0-0.1,0.1s0,0.1,0.1,0.1l0.4,0.1
				c0,1.4-0.2,2-1.4,3L39.7,8c-0.1,0-0.1,0-0.1,0.1c0,0.1,0,0.1,0.1,0.1l0.7,0.1c0,0.1,0.1,0.3,0.1,0.6s0,0.3-0.1,0.6L38.6,9
				c-0.1,0-0.1,0-0.1,0.1C38.2,9.3,38.2,9.3,38.3,9.3L38.3,9.3z M48.5,25.6c0.1,0,0.1,0.1,0.1,0.2c-0.1,0.1-0.2,0.1-0.2,0
				c-0.1,0-0.1-0.2-0.1-0.2S48.4,25.6,48.5,25.6L48.5,25.6z M43.2,27.7c0.1,0,0.3-0.1,0.3,0c0.1,0.1-0.2,0.2-0.2,0.2
				c-0.1,0-0.7,0.3-1.4,0.3c-0.9,0-2-0.4-2.4-0.6l0,0c0,0,0,0,0.1,0C40,27.8,41,28,41.7,28C42.4,28,42.9,27.8,43.2,27.7L43.2,27.7z
				 M52.5,27.8h-0.1c0,0,0,0,0-0.1l0,0C52.5,27.7,52.5,27.7,52.5,27.8c0.1-0.1,0.1-0.1,0.2,0c0,0,0,0,0,0.1c0,0,0,0-0.1,0
				C52.6,27.9,52.6,27.8,52.5,27.8L52.5,27.8z M38.8,23.2l0.6-0.2c0,0,0.1,0,0.1,0.1c-0.1,0.2-0.3,0.4-0.6,0.7h-0.1
				c0-0.1,0-0.2,0-0.3C38.7,23.3,38.8,23.2,38.8,23.2L38.8,23.2z M38.7,22.7c-0.1,0-0.1,0-0.1-0.1s0-0.1-0.1-0.2
				c0-0.1,0-0.1,0.1-0.1l1.1-0.3c0,0,0.1,0,0.1,0.1v0.1c0,0.1-0.1,0.1-0.1,0.2L38.7,22.7L38.7,22.7z M38.2,21.8c0,0,0-0.1-0.1-0.1
				c0-0.1,0-0.1,0.1-0.1l1.4-0.4c0.1,0,0.1,0,0.1,0.1l0,0c0,0.1,0,0.1-0.1,0.2L38.3,22C38.3,21.9,38.2,21.9,38.2,21.8L38.2,21.8z
				 M37.9,21l-0.1-0.1v-0.1l1.8-0.4c0.1,0,0.1,0,0.1,0.1l0,0c0,0.1,0,0.1-0.1,0.1L38,21.1C38,21.1,37.9,21.1,37.9,21L37.9,21z
				 M37.3,20.3c0-0.1-0.1-0.1-0.1-0.2V20l0.8,0.1l0,0l-0.4,0.2C37.5,20.3,37.5,20.3,37.3,20.3L37.3,20.3z M40.3,19.5
				c0.1,0.1,0.1,0.2,0.2,0.3c0,0.1,0.1,0.1,0.1,0.2L37,19.8C38.1,19.5,39.2,19.4,40.3,19.5L40.3,19.5z M37.1,19.2
				c0.1-0.1,0.2-0.3,0.3-0.4c0-0.1,0.1-0.1,0.2-0.1l1.4-0.4c0.1,0,0.1,0,0.1,0.1l0,0c0,0.1,0,0.1-0.1,0.1L37.1,19.2L37.1,19.2
				L37.1,19.2z M37.9,17.9c0-0.1,0.1-0.2,0.1-0.3c0-0.1,0.1-0.1,0.1-0.1l0.6-0.1c0.1,0,0.1,0,0.1,0.1l0,0c0,0.1,0,0.1-0.1,0.1
				L37.9,17.9C37.9,17.9,37.8,17.9,37.9,17.9L37.9,17.9z M46.7,26.8c0.2-0.2,0.4-0.7,0.2-1c-0.1-0.2-0.3-0.3-0.7-0.3
				c-0.2,0-0.2,0-0.3,0h-0.1v-0.1c0-0.1,0.1-0.1,0.1-0.2c0.1-0.1,0.3-0.3,0.7-0.3c0.4,0,1.1,0.2,1.5,0.2c0.1,0,0.3,0,0.6-0.2
				c0.2-0.2,0.3-0.6,0.1-0.8C48.7,24,48.6,24,48.5,24c-0.1,0-0.3,0.1-0.4,0.1c-0.1,0-0.2-0.1-0.2-0.1s-0.1-0.1-0.2-0.2
				c-0.6,0.1-1.1,0.3-1.7,0.6c-1.9,0.7-4.3,1.8-5.3,2.2c0,0-0.2,0.1-0.2,0c0,0,0-0.1,0.1-0.1c1.5-0.8,4.1-2,5.5-2.4
				c0.3-0.1,0.6-0.2,0.9-0.3c0-0.1-0.3-0.2-0.4-0.1c-0.1,0-0.2,0-0.2,0c0-0.1,0-0.1,0-0.2c0.1-0.1,0.3-0.1,0.4,0
				c0.1,0,0.1,0.1,0.2,0.1c0.1,0,0.2,0,0.2,0l0.1-0.1c0,0,0-0.1,0.1-0.1c0.1,0,0.1,0,0.1,0.1v0.1c0.3-0.1,0.8-0.2,1.1-0.2
				c0,0,0,0-0.1-0.1c-0.2,0-0.2-0.1-0.2-0.2c0,0,0-0.1,0.2-0.1c0.2,0,0.3,0.1,0.3,0.2c0,0,0,0.1,0.1,0.1l0,0c0.2,0,0.4-0.1,0.7-0.1
				c0-0.1-0.2-0.2-0.2-0.3c-0.1-0.2-0.4-0.1-0.6-0.2c0,0,0-0.1,0-0.2c-1.1,0.2-2.1,0.6-3.1,0.9c-2,0.8-6.4,3-6.5,3
				c-0.1,0-0.1,0-0.1,0s0,0,0-0.1c0.9-0.4,4.9-2.5,6.7-3.3s3.8-1.2,5.9-1.3c0.1,0,0.1,0,0.1-0.1c0-0.3,0.1-0.6,0.1-0.7
				c0-0.1,0-0.1-0.1-0.1c-1.7,0.3-3.9,1-5.6,1.7c-1.9,0.8-4.3,2.2-5.5,2.9c-0.9,0.4-1.5,0.8-2,1c0.1-0.6,0.1-1.1,0.1-1.7
				c0.8-0.4,1.7-0.8,2.7-1.1c0,0.3,0,0.7,0.1,1c0.1,0,0.1-0.1,0.2-0.1c0-0.3,0-0.7-0.1-0.9l0,0c0-0.2-0.1-0.4-0.1-0.8l0,0
				c-0.2-1.1-0.6-2.1-0.9-2.8c-0.6-1.2-1.2-2.1-2.2-3l-1.9-0.2c-0.1,0-0.1,0-0.1,0.1c0,0.1,0,0.1,0.1,0.1l1.2,0.1
				c0,0.1,0,0.1-0.1,0.2c-0.3,1-0.9,1.9-1.5,2.4l-0.8-0.1c-0.1,0-0.1,0-0.1,0.1s0,0.1,0.1,0.1l1.2,0.1c1.4,1.7,2,3.6,1.7,6.1l0,0
				c-0.3-0.1-0.6-0.1-0.8-0.2c-0.1,0-0.2,0-0.2,0v0.2c0.1,0.6-1.3,0.6-2.3,0.4c-1.3-0.1-2.1-0.2-2.4-0.2h-0.1c0,0,0,0,0.1,0
				c0.4,0,1.4,0.2,2.8,0.4c1,0.1,1.8,0,2.1-0.1c0.1-0.1,0.2-0.3,0.1-0.6c0-0.1-0.1-0.1-0.1-0.2h0.1c0.2,0,0.4,0.1,0.8,0.2
				c0,0,0,0,0.1,0l0,0c0,0,0,0,0.1,0l0,0l0,0l0,0l0,0l0,0c0.6,0.2,1.2,0.4,1.8,0.6c1.1,0.2,1.7,0.1,2,0c0.1-0.1,0.2-0.1,0.2-0.2
				s0-0.2-0.1-0.2c0,0-0.1,0-0.1-0.1c0-0.1,0.6-0.1,0.8-0.1c0.2,0,0.7,0,1.1,0.1c1.1,0.1,1.5,0.1,1.9-0.2c0,0,0.1-0.1,0.1,0v0.1
				c-0.1,0.2-0.3,0.6-1.1,0.6c-0.2,0-0.3,0-0.6-0.1h-0.1c0,0,0,0,0.1,0.1c0.2,0.1,0.6,0.2,1,0.2C46.2,27,46.5,26.9,46.7,26.8
				L46.7,26.8z M43.2,27.2c0,0.1-0.1,0.2-0.1,0.2c-0.1,0-0.7,0.3-1.4,0.3c-0.4,0-0.9-0.1-1.4-0.2c-0.2-0.1-0.7-0.2-1.1-0.2
				c0,0-0.2,0-0.2-0.1c0,0,0.1,0,0.2,0c0.2,0,0.3,0,0.6,0.1c0.2,0,1.1,0.2,1.7,0.2c0.7,0,1.3-0.1,1.5-0.2C43,27.2,43.2,27,43.2,27.2
				L43.2,27.2z M45.2,3.9c0.3-0.1,0.7-0.1,1-0.1c0.2,0,0.4,0,0.7,0c0.2,0,0.4,0,0.6,0.1c0,0,0.1,0,0,0.1c0,0.1-0.1,0.1-0.1,0.2
				c0,0-0.1,0.1-0.1,0c-0.3-0.1-0.8-0.1-1.1-0.1C45.8,3.9,45.5,3.9,45.2,3.9L45.2,3.9L45.2,3.9z M53.9,27.9c-0.1,0-1.5-0.4-2.7-1
				s-1.3-0.8-1.4-0.8c-0.1-0.1-0.2-0.3-0.1-0.4c0.1-0.1,0.3,0,0.4,0c0,0,0.3,0.3,1,0.8c1.1,0.7,2.5,1.3,2.8,1.3
				c0.1,0,0.1,0.1,0.1,0.1C54.1,27.9,54,27.9,53.9,27.9L53.9,27.9z M51.3,19c0.1,0,0.1,0.1,0.1,0.1c0,0.1,0,0.1-0.1,0.2
				c0,0.1-0.1,0.1-0.1,0.1c-0.3,0-0.7-0.1-1-0.1c-0.6,0-1,0-1.4,0l0,0C48.9,19.2,49.9,19,51.3,19L51.3,19z M46.7,17.4L46.7,17.4
				c0.1-0.1,0.6-0.3,1.1-0.4c0,0,0,0,0.1,0c0,0.1,0.1,0.1,0.1,0.2l0,0C47.4,17.3,47.1,17.3,46.7,17.4L46.7,17.4z M46.5,18.1
				c0.1-0.1,0.7-0.4,1.5-0.6h0.1c0,0.1,0,0.1,0.1,0.2l0,0C47.4,18,46.8,18.1,46.5,18.1L46.5,18.1L46.5,18.1z M51.4,18.8
				c-0.2,0-0.3,0-0.6,0c-0.4,0-0.9,0-1.3,0l0,0c0.2-0.1,1-0.2,1.9-0.2c0,0,0.1,0,0.1,0.1C51.5,18.5,51.5,18.7,51.4,18.8
				C51.5,18.8,51.4,18.8,51.4,18.8L51.4,18.8z M51.6,17.6L51.6,17.6c-0.1,0-0.1,0-0.1,0c-0.3-0.1-0.7-0.1-1-0.1l0,0
				c0.1,0,0.6-0.1,1.1-0.1l0,0C51.6,17.4,51.6,17.4,51.6,17.6L51.6,17.6z M46.1,19c0.2-0.1,0.9-0.6,2.2-0.8c0,0,0.1,0,0.1,0.1
				c0,0.1,0,0.2,0,0.2s0,0.1-0.1,0.1C47.2,18.7,46.4,18.9,46.1,19L46.1,19L46.1,19z M51.5,18.1c-0.1,0-0.1,0-0.2,0
				c-0.4,0-0.8-0.1-1.1-0.1l0,0c0.2,0,0.7-0.2,1.4-0.1l0,0C51.6,18,51.6,18,51.5,18.1C51.6,18.1,51.5,18.1,51.5,18.1L51.5,18.1z
				 M45.3,20c0.3-0.2,1.2-0.8,3-1c0.1,0,0.1,0,0.1,0.1c0,0.1,0,0.1,0,0.2s-0.1,0.1-0.1,0.1C46.8,19.5,45.7,19.9,45.3,20L45.3,20
				L45.3,20z M32.8,27.2C32.7,27.2,32.7,27,32.8,27.2C32.7,27,32.8,27,32.8,27.2c0.2-0.1,0.8-0.1,2.7,0.2c1.5,0.2,2.2-0.1,2.3-0.1
				s0.2,0,0.2,0.1c0,0.1,0,0.2-0.2,0.3c-0.6,0.2-1.5,0.2-2.5,0C34.3,27.4,33.6,27.2,32.8,27.2L32.8,27.2z M38.1,14l0.9,0.1l0,0
				l-0.8,0.1c0,0-0.1,0-0.1-0.1C38.1,14.2,38,14.1,38.1,14C38,14,38,14,38.1,14L38.1,14z M39.6,13.5c0,0.2,0,0.3-0.1,0.6l-1.3-0.2
				C38.7,13.7,39.1,13.6,39.6,13.5L39.6,13.5z M38.6,12.9c0.1-0.1,0.1-0.2,0.1-0.2c0-0.1,0.1-0.1,0.2-0.1h0.2c0.1,0,0.1,0,0.1,0.1
				c0,0,0,0,0,0.1S39.1,13,39.1,13L38.6,12.9C38.6,13,38.6,12.9,38.6,12.9L38.6,12.9z M39.2,14.9l-0.9,0.2c0,0-0.1,0-0.1-0.1v-0.1
				c0,0,0-0.1,0.1-0.1l0.9-0.2c0,0,0.1,0,0.1,0.1L39.2,14.9C39.3,14.8,39.3,14.9,39.2,14.9L39.2,14.9z M39,15.7L39,15.7
				c0,0.1-0.1,0.1-0.1,0.1l-0.6,0.1c0,0-0.1,0-0.1-0.1c0-0.1,0-0.1,0-0.2c0,0,0-0.1,0.1-0.1l0.6-0.1c0,0,0.1,0,0.1,0.1l0,0
				C39,15.6,39,15.7,39,15.7L39,15.7z M39.6,16.5c0.8-0.2,1.8-0.4,2.8-0.6c0.2,0.1,0.3,0.3,0.4,0.4c-1-0.1-2.2,0-3,0.1h-0.1
				C39.7,16.5,39.7,16.5,39.6,16.5C39.4,16.5,39.4,16.5,39.6,16.5L39.6,16.5z M36.8,13.8l0.9,0.2c0.3,0.8,0.3,1.7,0.2,2.5h0.3
				l0.4,0.1l0,0l4.5,0.7c0,0.1,0.1,0.1,0.1,0.2s0,0.2-0.1,0.3c-0.3,0.1-0.6,0.3-0.8,0.4l0,0c0.2-0.1,0.6-0.2,0.8-0.2
				c0.1,0,0.2,0,0.3,0.1l0,0c0,0.1,0,0.2-0.1,0.3c-0.6,0.2-0.9,0.4-1.1,0.7l0,0c0.3-0.1,0.8-0.3,1.2-0.4c0.1,0,0.2,0,0.2,0.1
				c0,0.1,0,0.2-0.1,0.3c-0.7,0.3-1.2,0.7-1.5,0.9l0,0c0.4-0.2,1-0.4,1.5-0.6c0.1,0,0.2,0,0.2,0.1c0,0.1,0,0.2-0.1,0.2
				c-0.8,0.3-1.4,0.8-1.9,1.1c0,0,0,0.1,0,0c0.6-0.2,1.1-0.4,1.8-0.7c0.1,0,0.2,0,0.2,0.1s-0.1,0.2-0.1,0.2
				c-0.9,0.4-1.7,0.8-2.1,1.2V22c1.3-0.7,3.3-1.2,5.2-1.4v0.3c-0.1,0-0.1,0-0.2,0c-1.9,0.2-3.6,0.7-5,1.3v0.1l0,0
				c0,0.2,0.1,0.6,0.1,0.8c0.8-0.2,1.4-0.3,2.2-0.3l0,0l0.1-1.2c0.2,0,0.4-0.1,0.7-0.1v1.1c0.4-0.2,1-0.4,1.4-0.7
				c0.3-0.1,0.6-0.2,0.9-0.3l0.1-1.3l0,0c0.2,0,0.4-0.1,0.7-0.1v0.8v0.3c0.3-0.1,0.7-0.2,1-0.3c-0.3,0-0.6,0-0.9,0v-0.3
				c0.8,0,1.5-0.1,2.2,0c0.8-0.2,1.7-0.3,2.4-0.3l2-2.3l0,0v0.8v0.1c-0.2,0.4-0.8,1-1.3,2c-0.8,1.2-0.9,2.1-0.9,3.2
				c0.1,0,0.1,0,0.2,0h0.1c0-1.5,0.2-2.1,1.5-4c0.4-0.7,0.7-0.9,0.8-1.1c0-0.1,0-0.1,0-0.2v-0.6V18l2.8-3.6v-0.1h-0.1l-3.1,3.5l0,0
				l-0.1,0.1c-0.6-0.1-1,0-1.2,0l0,0c0.3,0.1,0.7,0.1,0.9,0.2v0.1c0,0-0.1,0.1-0.2,0.1c-0.7,0-1.1,0-1.3,0l0,0
				c0.3,0.1,0.7,0.1,1,0.2v0.1l-0.1,0.1c-0.8,0-1.3,0.1-1.5,0.1l0,0c0.3,0.1,0.8,0.1,1.2,0.2c0,0,0,0,0,0.1l0,0H53
				c-0.8,0-1.4,0.1-1.7,0.1l0,0c0.4,0,0.8,0.1,1.2,0.2c0.1,0,0,0.1,0,0.2c-0.1,0.1-0.2,0.1-0.3,0c-0.9-0.1-2-0.2-2.9-0.2
				c-2.1,0-4.3,0.7-4.6,0.8c-0.7-3.4-2.4-4.9-2.5-5l0,0H42l0,0L39.8,15c-0.1,0-0.1,0-0.1,0.1c0,0.1,0,0.1,0.1,0.1H40
				c-0.2,0.1-0.4,0.3-0.8,0.4l0,0c0.4-0.1,0.9-0.3,1.3-0.4l0.7,0.1c-0.9,0.2-1.8,0.4-2.5,0.8c0.4-0.6,0.8-1.3,0.9-2
				c0.2-1.1,0.1-2.1-0.3-2.8l-1-0.2c-0.1,0-0.1,0-0.1,0.1c0,0.1,0,0.1,0.1,0.1l0.6,0.1c-0.2,0.8-0.8,1.4-1.2,2h-0.7
				c-0.1,0-0.1,0-0.1,0.1C36.7,13.7,36.8,13.8,36.8,13.8"/>
		</g>
	</g>
</g>
</svg>
