<?xml version="1.0" encoding="utf-8"?>
<!-- Generator: Adobe Illustrator 26.0.1, SVG Export Plug-In . SVG Version: 6.00 Build 0)  -->
<svg version="1.1" id="Layer_1" xmlns="http://www.w3.org/2000/svg" xmlns:xlink="http://www.w3.org/1999/xlink" x="0px" y="0px"
	 viewBox="0 0 95 35" style="enable-background:new 0 0 95 35;" xml:space="preserve">
<style type="text/css">
	.st0{fill:#104076;}
	.st1{fill:#CCCCCC;}
</style>
<path class="st0" d="M-39.1,613.7"/>
<g>
	<path class="st1" d="M56,0c-3.1,0-6.2,0-9.3,0c-2.6,0-5.2,0-7.7,0c0,4.7,0,9.4,0,14.1c0.7-1.4,1.6-2.7,2.8-3.8
		c1.1-1.1,2.4-2,3.9-2.7c-1.4,1.1-2.6,2.4-3.6,3.9c-1.1,1.7-1.8,3.6-2,5.6c0.3,0,0.7,0,1,0c0.3-2.2,1-4.3,2.2-6.1
		c0.9-1.4,2.2-2.6,3.5-3.6c1.1-0.8,2.3-1.4,3.5-1.8c-0.2,0.1-0.4,0.3-0.6,0.4c-1.4,1-2.8,2.2-3.8,3.6c-0.3,0.4-0.6,0.8-0.8,1.3
		c-1.1,1.9-1.6,4.1-1.7,6.3c1,0,2.1,0,3.1,0c0.2,0,0.3,0,0.5,0c3,0,6,0,9,0C56,11.4,56,5.7,56,0z M54.2,6.4
		c-0.6-0.3-1.2-0.6-1.8-0.8c-0.1,0-0.1,0.1-0.1,0.1c-0.4,0.5-0.9,0.9-1.3,1.4c0.1-0.7,0.2-1.3,0.2-2c-0.6-0.3-1.2-0.6-1.9-0.8
		c0.7-0.1,1.3-0.3,2-0.4c0.1-0.7,0.2-1.3,0.2-2c0.3,0.6,0.7,1.2,1,1.8c0.7-0.1,1.3-0.3,2-0.4c-0.5,0.5-0.9,1-1.4,1.5
		C53.5,5.3,53.8,5.8,54.2,6.4z"/>
	<path class="st1" d="M48.7,20.4c0.5-0.1,1-0.2,1.5-0.2c-0.1,0.7-0.1,1.3-0.1,2c0,1.3,0,2.6,0,3.9c0,0.1,0,0.2,0.1,0.2
		c0.2,0.1,0.4,0.1,0.6,0.2c0,0.1,0,0.2,0,0.2c-0.7,0-1.4,0-2.1,0c0-0.1,0-0.2,0-0.2c0.2-0.1,0.5-0.1,0.6-0.2c0-1.7,0-3.5,0-5.2
		c0-0.3-0.4-0.4-0.6-0.5C48.7,20.5,48.7,20.5,48.7,20.4z"/>
	<path class="st1" d="M51.9,20.3c0.3-0.1,0.6-0.1,0.9-0.1c-0.1,1.2,0,2.4-0.1,3.5c0,0.8,0,1.6,0,2.4c0,0.1,0,0.1,0.1,0.2
		c0.2,0.1,0.4,0.1,0.5,0.2c0,0.1,0,0.2,0,0.2c-0.7,0-1.4,0-2.1,0c0-0.1,0-0.2,0-0.2c0.2-0.1,0.5-0.1,0.6-0.2c0-1.6,0-3.3,0-4.9
		c0-0.2,0-0.3-0.1-0.4c-0.1-0.2-0.3-0.2-0.5-0.3c-0.1,0-0.1-0.1-0.1-0.2C51.5,20.4,51.7,20.4,51.9,20.3z"/>
	<path class="st1" d="M61.8,20.2c0.3-0.1,0.7,0.2,0.7,0.5c0.1,0.3-0.3,0.7-0.6,0.6c-0.3,0-0.5-0.4-0.5-0.7
		C61.4,20.5,61.6,20.3,61.8,20.2z"/>
	<path class="st1" d="M22.9,21.9c0.5-0.6,1.4-1,2.2-1.1c0.6,0,1.2,0,1.8,0.3c0.1-0.1,0.1-0.2,0.2-0.2c0.1,0,0.1,0,0.2,0
		c0,0.7,0.1,1.3,0.1,2c-0.1,0-0.2,0-0.3,0c-0.1-0.4-0.2-0.8-0.4-1.2c-0.1-0.2-0.3-0.3-0.5-0.4c-0.5-0.2-1.1-0.2-1.6-0.1
		c-0.5,0.2-0.9,0.6-1.1,1c-0.3,0.7-0.4,1.5-0.2,2.3c0.1,0.7,0.5,1.4,1.1,1.7c0.6,0.3,1.4,0.2,1.9-0.1c0.2-0.1,0.2-0.2,0.3-0.4
		c0.2-0.3,0.3-0.7,0.4-1c0.1,0,0.2,0,0.3,0c-0.1,0.6-0.2,1.1-0.3,1.7c-0.5,0.2-1.1,0.3-1.7,0.3c-0.8,0-1.6-0.2-2.2-0.7
		C22.1,25.1,21.9,23.1,22.9,21.9z"/>
	<path class="st1" d="M42.9,21.3c0.1,0,0.2,0,0.3,0c0,0.4,0,0.8,0,1.2c0.4,0,0.9,0,1.3,0c0,0.1,0,0.3,0,0.4c-0.4,0-0.9,0-1.3,0
		c0,0.8,0,1.7,0,2.5c0,0.2,0,0.5,0.2,0.6c0.2,0.2,0.4,0.2,0.6,0.2c0.3,0,0.5-0.1,0.7-0.3c0,0,0.1,0.1,0.1,0.1
		c-0.2,0.3-0.5,0.6-0.9,0.6c-0.4,0.1-0.8,0.1-1.2-0.2c-0.3-0.2-0.4-0.5-0.4-0.8c0-0.9,0-1.9,0-2.8c-0.2,0-0.3,0-0.5,0
		c0-0.1,0-0.2,0-0.3c0.2-0.1,0.4-0.1,0.6-0.3C42.6,22,42.7,21.6,42.9,21.3z"/>
	<path class="st1" d="M58.4,22.3c0.2-0.3,0.3-0.7,0.4-1.1c0.1,0,0.2,0,0.3,0c0,0.4,0,0.8,0,1.2c0.4,0,0.9,0,1.3,0c0,0.1,0,0.3,0,0.4
		c-0.4,0-0.9,0-1.3,0c0,0.9,0,1.8,0,2.6c0,0.3,0.1,0.6,0.3,0.7c0.4,0.2,0.9,0.1,1.2-0.2c0,0,0.1,0.1,0.1,0.1c-0.2,0.4-0.6,0.6-1,0.7
		c-0.4,0.1-0.8,0-1.1-0.3c-0.2-0.2-0.3-0.5-0.3-0.8c0-0.9,0-1.9,0-2.8c-0.2,0-0.3,0-0.5,0c0-0.1,0-0.2,0-0.3
		C58,22.5,58.2,22.5,58.4,22.3z"/>
	<path class="st1" d="M32.9,22.5c0.5-0.1,1-0.3,1.5-0.3c0,0.3,0,0.6,0,0.9c0.2-0.4,0.6-0.7,1-0.9c0.5-0.1,1-0.1,1.4,0.3
		c0.3,0.3,0.5,0.7,0.5,1.1c0,0.9,0,1.8,0,2.6c0.2,0.1,0.4,0.1,0.6,0.2c0,0.1,0,0.2,0,0.2c-0.7,0-1.4,0-2.1,0c0-0.1,0-0.2,0-0.2
		c0.2-0.1,0.4-0.1,0.6-0.2c0-0.1,0-0.2,0-0.3c0-0.7,0-1.4,0-2.1c0-0.4-0.1-0.8-0.4-0.9c-0.5-0.3-1.1-0.1-1.4,0.3
		c-0.1,0.1-0.2,0.2-0.2,0.4c0,0.9,0,1.8,0,2.7c0.2,0.1,0.4,0.1,0.6,0.2c0,0.1,0,0.2,0,0.2c-0.7,0-1.4,0-2.1,0c0-0.1,0-0.2,0-0.2
		c0.2-0.1,0.5-0.1,0.6-0.2c0-1,0-2,0-2.9c0-0.1,0-0.3-0.1-0.4c-0.2-0.1-0.4-0.2-0.5-0.3C32.9,22.6,32.9,22.6,32.9,22.5z"/>
	<path class="st1" d="M41,22.3c0.1,0,0.2,0,0.2,0c0,0.5,0,0.9,0,1.4c-0.1,0-0.2,0-0.2,0c-0.1-0.3-0.1-0.5-0.3-0.8
		c-0.3-0.3-0.8-0.5-1.2-0.2c-0.5,0.3-0.5,1.1,0.1,1.3c0.4,0.2,0.8,0.3,1.2,0.5c0.3,0.2,0.5,0.4,0.6,0.8c0.1,0.4-0.1,0.9-0.4,1.1
		c-0.4,0.3-0.9,0.4-1.4,0.4c-0.3,0-0.6-0.1-0.9-0.2c0,0.1-0.1,0.2-0.1,0.2c-0.1,0-0.2,0-0.2,0c0-0.5,0-1.1-0.1-1.6
		c0.1,0,0.2,0,0.3,0c0.1,0.3,0.2,0.7,0.4,1c0.3,0.4,0.9,0.5,1.3,0.2c0.3-0.2,0.3-0.6,0.2-0.9c-0.1-0.3-0.4-0.3-0.6-0.4
		c-0.4-0.2-0.8-0.3-1.1-0.6c-0.3-0.3-0.4-0.7-0.3-1.1c0.1-0.3,0.3-0.6,0.6-0.8c0.6-0.3,1.2-0.3,1.8,0C40.9,22.4,41,22.3,41,22.3z"/>
	<path class="st1" d="M62,22.3c0.1,0,0.3,0,0.4,0c0,1.3,0,2.6,0,3.8c0,0.1,0,0.2,0.1,0.2c0.2,0.1,0.4,0.1,0.5,0.1c0,0.1,0,0.2,0,0.2
		c-0.7,0-1.4,0-2.1,0c0-0.1,0-0.2,0-0.2c0.2-0.1,0.5-0.1,0.6-0.2c0-1,0-2,0-2.9c0-0.1,0-0.3-0.1-0.4c-0.2-0.1-0.4-0.2-0.5-0.2
		c0-0.1,0-0.1,0-0.2C61.2,22.4,61.6,22.4,62,22.3z"/>
	<path class="st1" d="M67.8,22.5c0.5-0.1,1-0.3,1.5-0.3c0,0.3,0,0.6,0,0.9c0.2-0.4,0.6-0.7,1-0.9c0.5-0.1,1-0.1,1.3,0.2
		c0.4,0.3,0.5,0.7,0.5,1.1c0,0.8,0,1.7,0,2.5c0,0.1,0.1,0.1,0.1,0.1c0.2,0.1,0.3,0.1,0.5,0.1c0,0.1,0,0.2,0,0.2c-0.7,0-1.4,0-2.1,0
		c0-0.1,0-0.2,0-0.2c0.2-0.1,0.4-0.1,0.6-0.2c0-0.6,0-1.2,0-1.8c0-0.4,0.1-0.9-0.2-1.3c-0.1-0.3-0.4-0.4-0.7-0.4
		c-0.5,0-1,0.3-1.1,0.7c0,0.9,0,1.8,0,2.7c0.2,0.2,0.4,0.1,0.6,0.2c0,0.1,0,0.2,0,0.2c-0.7,0-1.4,0-2.1,0c0-0.1,0-0.2,0-0.2
		c0.2-0.1,0.4-0.1,0.6-0.2c0-1,0-2.1,0-3.1c0-0.1,0-0.2-0.1-0.2c-0.2-0.1-0.4-0.2-0.5-0.2C67.8,22.6,67.8,22.6,67.8,22.5z"/>
	<path class="st1" d="M29.8,22.3c0.6-0.2,1.3-0.1,1.9,0.3c0.4,0.3,0.7,0.8,0.8,1.3c0.1,0.6,0.1,1.3-0.3,1.9
		c-0.3,0.5-0.8,0.8-1.4,0.9c-0.6,0.1-1.1,0-1.6-0.3c-0.4-0.3-0.7-0.8-0.9-1.3c-0.2-0.6-0.1-1.3,0.2-1.9
		C28.8,22.8,29.3,22.5,29.8,22.3z M30.2,22.6c-0.3,0-0.6,0.2-0.7,0.4c-0.3,0.4-0.3,0.8-0.4,1.2c0,0.6,0.1,1.1,0.3,1.6
		c0.2,0.3,0.4,0.5,0.8,0.6c0.4,0.1,0.8-0.1,1-0.4c0.3-0.4,0.4-1,0.4-1.5c0-0.6-0.1-1.1-0.4-1.6C31,22.7,30.6,22.6,30.2,22.6z"/>
	<path class="st1" d="M46.1,22.4c0.5-0.2,1.1-0.2,1.5,0.1c0.4,0.2,0.7,0.6,0.7,1c0.1,0.3,0,0.6,0,0.8c-0.9,0-1.9-0.1-2.8-0.1
		c0,0.6,0.1,1.2,0.4,1.6c0.6,0.6,1.8,0.6,2.3-0.2c0,0,0.1,0.1,0.1,0.1c-0.2,0.3-0.4,0.7-0.7,0.9c-0.4,0.3-1,0.3-1.5,0.2
		c-0.6-0.1-1-0.6-1.2-1.1c-0.3-0.7-0.3-1.5,0.1-2.2C45.2,22.9,45.6,22.5,46.1,22.4z M46.1,22.8c-0.3,0.3-0.5,0.7-0.5,1.1
		c0.6,0,1.3-0.1,1.9-0.1c0.1-0.4,0-0.8-0.3-1.1C46.9,22.5,46.5,22.6,46.1,22.8z"/>
	<path class="st1" d="M64.8,22.3c0.6-0.1,1.3,0,1.8,0.4c0.4,0.3,0.7,0.8,0.8,1.3c0.1,0.6,0,1.3-0.4,1.9c-0.3,0.5-0.8,0.8-1.4,0.9
		c-0.6,0.1-1.2,0-1.7-0.4c-0.4-0.3-0.7-0.8-0.7-1.2c-0.1-0.6-0.1-1.3,0.3-1.9C63.8,22.8,64.3,22.4,64.8,22.3z M65.1,22.6
		c-0.2,0-0.4,0.1-0.6,0.3c-0.3,0.3-0.4,0.7-0.5,1.1c-0.1,0.6-0.1,1.1,0.2,1.6c0.1,0.3,0.3,0.6,0.6,0.8c0.4,0.2,1,0.1,1.2-0.3
		c0.3-0.4,0.4-0.9,0.4-1.4c0-0.6-0.1-1.2-0.4-1.7C65.9,22.7,65.5,22.6,65.1,22.6z"/>
	<path class="st1" d="M55.4,22.3c0.4-0.1,0.9,0,1.3,0.2c0.4,0.2,0.5,0.6,0.6,1c0,0.7,0,1.5,0,2.2c0,0.2,0,0.4,0.1,0.6
		c0.2,0.1,0.5,0.1,0.7,0.1c0,0.1,0,0.2,0,0.2c-0.4,0.2-0.8,0.3-1.2,0.2c-0.3-0.1-0.4-0.4-0.4-0.7c-0.4,0.7-1.4,0.9-2.1,0.5
		c-0.4-0.2-0.6-0.8-0.4-1.3c0.2-0.4,0.5-0.6,0.8-0.7c0.5-0.2,1.1-0.3,1.7-0.5c0-0.3,0-0.7-0.1-1c-0.1-0.2-0.3-0.4-0.6-0.5
		c-0.4-0.1-0.7,0-1,0.1c0.2,0.2,0.3,0.5,0.2,0.7c-0.1,0.3-0.5,0.4-0.7,0.3C54,23.7,54,23.5,54,23.4c0-0.2,0.2-0.4,0.4-0.6
		C54.6,22.6,55,22.4,55.4,22.3z M55.6,24.7c-0.3,0.1-0.6,0.2-0.9,0.4c-0.2,0.2-0.3,0.6-0.1,0.9c0.1,0.2,0.3,0.3,0.5,0.3
		c0.4,0.1,0.8-0.1,1-0.4c0.1-0.1,0.1-0.1,0.1-0.2c0-0.4,0-0.8,0-1.2C56.1,24.6,55.9,24.6,55.6,24.7z"/>
	<path class="st1" d="M39.5,30.7c0.5-0.1,1-0.3,1.5-0.3c0,0.3,0,0.7,0,1c0.1-0.4,0.4-0.7,0.7-0.9c0.2-0.1,0.5-0.2,0.7-0.1
		c0.2,0.1,0.3,0.3,0.3,0.4c0,0.3-0.2,0.5-0.4,0.6c-0.1-0.1-0.2-0.3-0.3-0.3c-0.3-0.1-0.6,0.1-0.8,0.3c-0.1,0.1-0.2,0.2-0.2,0.3
		c0,0.9,0,1.8,0,2.7c0.1,0,0.1,0.1,0.2,0.1c0.3,0.1,0.5,0.1,0.8,0.1c0,0.1,0,0.2,0,0.2c-0.8,0-1.5,0-2.3,0c-0.2,0-0.1-0.1-0.1-0.2
		c0.2-0.1,0.5-0.1,0.6-0.2c0-1,0-2,0-2.9c0-0.1,0-0.3-0.1-0.4c-0.2-0.1-0.4-0.2-0.6-0.3C39.5,30.8,39.5,30.8,39.5,30.7z"/>
	<path class="st1" d="M48.7,31.4c0.2-0.4,0.6-0.8,1.1-0.9c0.5-0.1,1,0,1.3,0.3c0.3,0.3,0.4,0.7,0.4,1.1c0,0.8,0,1.6,0,2.4
		c0,0.1,0,0.1,0.1,0.2c0.2,0.1,0.4,0.1,0.6,0.2c0,0.1,0,0.1,0,0.2c-0.7,0-1.4,0-2.1,0c0-0.1,0-0.2,0-0.2c0.2-0.1,0.4-0.1,0.6-0.2
		c0-0.1,0-0.2,0-0.2c0-0.7,0-1.5,0-2.2c0-0.4-0.1-0.8-0.4-1c-0.5-0.2-1-0.1-1.4,0.3c-0.1,0.1-0.2,0.3-0.2,0.4c0,0.9,0,1.8,0,2.6
		c0.2,0.1,0.4,0.1,0.6,0.2c0,0.1,0,0.2,0,0.2c-0.7,0-1.4,0-2.1,0c0-0.1,0-0.2,0-0.2c0.2-0.1,0.5-0.1,0.6-0.2c0-1,0-2,0-2.9
		c0-0.1,0-0.3-0.1-0.4c-0.2-0.1-0.4-0.2-0.5-0.2c0-0.1,0-0.1,0-0.2c0.5-0.1,1-0.3,1.5-0.3C48.6,30.7,48.6,31,48.7,31.4z"/>
	<path class="st1" d="M58.4,30.6c0.5-0.3,1.2-0.2,1.8,0.1c0-0.1,0.1-0.2,0.1-0.2c0.1,0,0.2,0,0.2,0c0,0.5,0,0.9,0,1.4
		c-0.1,0-0.2,0-0.3,0c-0.1-0.4-0.2-0.8-0.5-1c-0.3-0.2-0.9-0.2-1.1,0.2c-0.2,0.2-0.2,0.6-0.1,0.9c0.1,0.3,0.4,0.4,0.7,0.5
		c0.3,0.1,0.6,0.2,0.9,0.4c0.3,0.2,0.5,0.4,0.6,0.7c0.1,0.4,0,0.9-0.3,1.2C60,34.9,59.5,35,59,35c-0.4,0-0.7-0.1-1-0.2
		c0,0.1-0.1,0.2-0.1,0.3c-0.1,0-0.2,0-0.2,0c0-0.5,0-1.1-0.1-1.6c0.1,0,0.2,0,0.2,0c0.1,0.3,0.2,0.7,0.4,1c0.3,0.3,0.9,0.4,1.3,0.2
		c0.5-0.2,0.4-1,0-1.2C59,33.1,58.4,33,58,32.6c-0.3-0.3-0.4-0.8-0.3-1.2C57.8,31,58.1,30.8,58.4,30.6z"/>
	<path class="st1" d="M54.8,28.6c0.5-0.1,1.1-0.2,1.6-0.2c-0.1,1-0.1,2-0.1,3c0,0.9,0,1.9,0,2.8c0,0.1,0,0.2,0.1,0.2
		c0.2,0.1,0.4,0.1,0.6,0.1c0,0.1,0,0.1,0,0.2c-0.5,0.1-1,0.2-1.5,0.2c0-0.3,0-0.5,0-0.8c-0.2,0.3-0.5,0.5-0.8,0.6
		c-0.6,0.2-1.3,0.1-1.8-0.4c-0.4-0.4-0.6-1-0.6-1.6c-0.1-0.6,0.1-1.2,0.5-1.7c0.4-0.5,0.9-0.8,1.5-0.8c0.4-0.1,0.9,0.1,1.2,0.4
		c0-0.5,0-1.1,0-1.6c0-0.1,0-0.3-0.1-0.3c-0.2-0.1-0.4-0.1-0.6-0.2C54.8,28.7,54.8,28.6,54.8,28.6z M54.3,30.9
		c-0.4,0.1-0.6,0.3-0.8,0.6c-0.3,0.5-0.3,1-0.3,1.6c0.1,0.4,0.2,0.8,0.5,1c0.4,0.3,1,0.4,1.5,0.1c0.1-0.1,0.3-0.2,0.3-0.3
		c0-0.9,0-1.9,0-2.8C55.2,30.9,54.7,30.8,54.3,30.9z"/>
	<path class="st1" d="M34.1,29.2c0.9,0,1.8,0,2.7,0c0.5,0,1.1,0.1,1.5,0.4c0.3,0.2,0.5,0.6,0.5,1c0,0.3-0.1,0.7-0.4,0.9
		c-0.2,0.2-0.5,0.4-0.8,0.5c0.5,0.1,0.9,0.3,1.2,0.7c0.3,0.4,0.3,0.9,0.1,1.3c-0.1,0.3-0.4,0.5-0.7,0.7c-0.4,0.2-0.9,0.3-1.3,0.3
		c-1,0-1.9,0-2.9,0c0-0.1,0-0.2,0-0.3c0.2-0.1,0.5-0.1,0.7-0.2c0.1,0,0.1-0.1,0.1-0.2c0-1.3,0-2.6,0-3.9c0-0.2,0-0.5,0-0.7
		c-0.2-0.1-0.5-0.1-0.8-0.2C34.1,29.3,34.1,29.3,34.1,29.2z M35.8,29.6c0,0.7,0,1.5,0,2.2c0.5,0,1,0.1,1.4-0.1
		c0.3-0.1,0.5-0.4,0.6-0.7c0.1-0.4,0.1-0.8-0.2-1.1c-0.2-0.3-0.6-0.4-0.9-0.4C36.4,29.5,36.1,29.5,35.8,29.6z M35.8,32.1
		c0,0.8,0,1.6,0,2.4c0.5,0.1,1,0.1,1.5,0c0.4-0.1,0.7-0.6,0.7-1c0.1-0.4-0.2-0.9-0.5-1.1C37,32,36.4,32.1,35.8,32.1z"/>
	<path class="st1" d="M43.8,30.8c0.3-0.2,0.8-0.3,1.2-0.3c0.4,0,0.7,0.1,1,0.4c0.2,0.2,0.3,0.6,0.3,0.9c0,0.6,0,1.3,0,1.9
		c0,0.3,0,0.5,0.1,0.8c0.2,0.1,0.5,0.1,0.7,0.1c0,0.1,0,0.1,0,0.2c-0.4,0.2-0.8,0.3-1.2,0.2c-0.3-0.1-0.4-0.4-0.4-0.7
		c-0.2,0.3-0.5,0.6-0.9,0.7c-0.4,0.1-0.9,0.1-1.2-0.2c-0.4-0.3-0.5-0.8-0.4-1.2c0.1-0.4,0.5-0.6,0.8-0.7c0.6-0.2,1.1-0.3,1.7-0.5
		c0-0.4,0.1-0.9-0.3-1.2c-0.4-0.4-1-0.3-1.4-0.1c0.2,0.2,0.3,0.6,0.2,0.9c-0.2,0.3-0.6,0.3-0.8,0c-0.1-0.2-0.1-0.5,0-0.7
		C43.4,31,43.6,30.9,43.8,30.8z M44.6,32.9c-0.3,0.1-0.5,0.2-0.7,0.4c-0.2,0.2-0.2,0.6-0.1,0.9c0.1,0.2,0.3,0.3,0.5,0.3
		c0.4,0.1,0.8-0.1,1.1-0.4c0-0.1,0.1-0.1,0.1-0.2c0-0.4,0-0.8,0-1.2C45.2,32.7,44.9,32.8,44.6,32.9z"/>
</g>
</svg>
