<?xml version="1.0" encoding="utf-8"?>
<!-- Generator: Adobe Illustrator 26.0.1, SVG Export Plug-In . SVG Version: 6.00 Build 0)  -->
<svg version="1.1" id="Layer_1" xmlns="http://www.w3.org/2000/svg" xmlns:xlink="http://www.w3.org/1999/xlink" x="0px" y="0px"
	 viewBox="0 0 95 35" style="enable-background:new 0 0 95 35;" xml:space="preserve">
<style type="text/css">
	.st0{fill:#CCCCCC;}
</style>
<g>
	<path class="st0" d="M69.9,16.4c-0.4,0-0.7,0.2-0.9,1c0,0,0.1,0,0.3,0c0.5,0,1-0.1,1-0.6C70.3,16.6,70.2,16.4,69.9,16.4z"/>
	<path class="st0" d="M65.3,15.2h-0.5L64,18.9h0.5c0.5,0,0.8-0.2,1.1-0.6c0.5-0.8,0.6-1.9,0.6-2.2C66.1,15.7,66,15.2,65.3,15.2z"/>
	<path class="st0" d="M32.8,16.9c0-0.2-0.1-0.4-0.4-0.4c-0.4,0-0.7,0.2-0.9,1c0,0,0.1,0,0.3,0C32.3,17.4,32.8,17.3,32.8,16.9z"/>
	<path class="st0" d="M58.3,18.6c0,0.4,0.3,0.6,0.8,0.6c0.4,0,0.7-0.1,0.9-0.3l-1.1-1.2C58.5,17.8,58.3,18.1,58.3,18.6z"/>
	<path class="st0" d="M60.2,15.7c0-0.2-0.1-0.4-0.4-0.4c-0.3,0-0.6,0.3-0.6,0.7c0,0.1,0,0.3,0.3,0.6C59.9,16.4,60.2,16,60.2,15.7z"
		/>
	<path class="st0" d="M41,15.2h-0.7L40,16.4h0.7c0.3,0,0.4,0,0.6-0.1c0.2-0.1,0.3-0.3,0.3-0.6C41.7,15.4,41.5,15.2,41,15.2z"/>
	<path class="st0" d="M40.6,17.4h-0.7l-0.3,1.5h0.7c0.2,0,0.4,0,0.6-0.1c0.2-0.1,0.4-0.5,0.4-0.8C41.3,17.6,41.1,17.4,40.6,17.4z"/>
	<path class="st0" d="M21.2,16.8c-0.3,0.4-0.5,1.2-0.5,1.7c0,0.4,0.1,0.5,0.3,0.5c0.3,0,0.7-0.3,0.8-0.6l0.4-1.9c0,0-0.2,0-0.3,0
		C21.7,16.5,21.5,16.5,21.2,16.8z"/>
	<path class="st0" d="M47,16.8c-0.3,0.4-0.5,1.2-0.5,1.7c0,0.4,0.1,0.5,0.3,0.5c0.3,0,0.7-0.3,0.8-0.6l0.4-1.9c0,0-0.2,0-0.3,0
		C47.5,16.5,47.3,16.5,47,16.8z"/>
	<path class="st0" d="M0,10v15h86.4L95,10H0z M13.8,19.9c-0.8,0-1.3-0.2-1.8-0.5l0.6-0.9c0.5,0.3,0.9,0.4,1.4,0.4
		c0.7,0,1.1-0.4,1.1-0.9c0-0.3-0.2-0.5-0.6-0.6L14,17.3c-0.6-0.2-1-0.5-1-1.1c0-1.1,1.1-2,2.3-2c0.7,0,1.3,0.2,1.7,0.6l-0.7,0.7
		c-0.3-0.3-0.8-0.4-1.2-0.4c-0.5,0-0.9,0.3-0.9,0.7c0,0.2,0.1,0.4,0.5,0.5l0.6,0.2c0.7,0.2,1.1,0.6,1.1,1.2
		C16.5,18.9,15.5,19.9,13.8,19.9z M18.5,19.2c0.1,0,0.3,0,0.4-0.1v0.6c-0.3,0.1-0.6,0.2-0.9,0.2c-0.6,0-1-0.3-1-0.7
		c0-0.1,0-0.3,0-0.5l0.5-2.2h-0.3l0.1-0.7h0.4c0.1-0.4,0.1-0.7,0.2-1l1.1-0.3c-0.1,0.4-0.2,0.8-0.3,1.2h1l-0.3,0.8h-0.7l-0.4,2.1
		c0,0.1,0,0.2,0,0.3C18.2,19.1,18.3,19.2,18.5,19.2z M23.2,16.9l-0.3,1.5c-0.1,0.3,0,0.6,0.1,0.8L22.2,20c-0.2-0.1-0.3-0.3-0.3-0.5
		c-0.3,0.3-0.6,0.5-1.1,0.5c-0.7,0-1.1-0.4-1.1-1.3c0-1,0.4-1.8,0.9-2.3c0.4-0.4,1-0.6,1.6-0.6c0.5,0,1,0.1,1.3,0.3
		C23.4,16.2,23.3,16.6,23.2,16.9z M27.6,17L27,19.8h-1l0.6-2.6c0-0.1,0-0.3,0-0.4c0-0.2-0.1-0.2-0.3-0.2c-0.2,0-0.6,0.1-0.9,0.6
		l-0.6,2.6h-1.1l0.6-2.7c0.1-0.4,0.1-0.8,0-1.1l1-0.4c0,0.1,0.1,0.5,0.1,0.7c0.3-0.4,0.8-0.6,1.4-0.6c0.5,0,0.8,0.3,0.8,0.8
		C27.6,16.7,27.6,16.9,27.6,17z M30,15.1l-0.6,3c-0.1,0.5-0.1,0.7-0.1,0.8c0,0.1,0,0.2,0.2,0.2h0.1v0.6c-0.2,0-0.4,0.1-0.7,0.1
		c-0.6,0-0.9-0.3-0.9-0.7c0-0.1,0-0.4,0.1-0.7l0.6-3c0.1-0.5,0.2-0.9,0.1-1.2l1.1-0.3C30.1,14.1,30.1,14.7,30,15.1z M32,19.2
		c0.4,0,0.8-0.1,1.1-0.4l0.3,0.6c-0.5,0.4-1.1,0.6-1.7,0.6c-1,0-1.5-0.5-1.5-1.5c0-0.9,0.4-1.7,0.9-2.3c0.4-0.4,0.9-0.5,1.4-0.5
		c0.8,0,1.4,0.3,1.4,1.1s-0.7,1.4-2.1,1.4c-0.3,0-0.5,0-0.5,0s0,0.2,0,0.4C31.3,19,31.6,19.2,32,19.2z M35.1,21.3
		c-0.3,0.2-0.7,0.3-1.1,0.4L33.8,21c0.2,0,0.5-0.1,0.7-0.2c0.3-0.2,0.4-0.4,0.7-0.8H35c0-0.3,0-0.8-0.1-1.1L34.5,16l1.1-0.2l0.2,2.4
		c0,0.2,0,0.9,0,0.9s0.3-0.7,0.5-1.2l1-1.9h1.1l-2.3,4.1C35.7,20.7,35.4,21.1,35.1,21.3z M41.7,16.9c0.5,0.1,0.8,0.6,0.8,1.1
		c0,0.3-0.1,0.9-0.5,1.3s-0.9,0.6-1.7,0.6h-2l1.2-5.5h2c0.8,0,1.4,0.4,1.4,1.2C42.9,16,42.5,16.6,41.7,16.9z M45.1,15.1l-0.7,3
		c-0.1,0.5-0.1,0.7-0.1,0.8c0,0.1,0,0.2,0.2,0.2h0.1v0.6c-0.2,0-0.4,0.1-0.7,0.1c-0.6,0-0.9-0.3-0.9-0.7c0-0.1,0-0.4,0.1-0.7l0.6-3
		c0.1-0.5,0.2-0.9,0.1-1.2l1.1-0.3C45.2,14.1,45.2,14.7,45.1,15.1z M48.9,16.9l-0.3,1.5c0,0.3,0,0.6,0.1,0.8L47.9,20
		c-0.2-0.1-0.3-0.3-0.3-0.5C47.3,19.8,47,20,46.5,20c-0.7,0-1.1-0.4-1.1-1.3c0-1,0.4-1.8,0.9-2.3c0.4-0.4,1-0.6,1.6-0.6
		c0.5,0,1,0.1,1.3,0.3C49.1,16.2,49,16.6,48.9,16.9z M50.9,20c-0.9,0-1.4-0.5-1.4-1.4c0-1,0.5-1.9,1.1-2.4c0.4-0.3,0.8-0.5,1.3-0.5
		c0.4,0,0.8,0.1,1.1,0.5l-0.7,0.6c-0.2-0.2-0.4-0.3-0.6-0.3c-0.2,0-0.3,0.1-0.5,0.2c-0.3,0.3-0.6,1.2-0.6,1.8c0,0.4,0.2,0.6,0.5,0.6
		s0.6-0.1,0.9-0.4l0.3,0.7C52,19.8,51.5,20,50.9,20z M52.9,19.8l1-4.5c0.1-0.6,0.1-0.9,0.1-1.1l1.1-0.4c0,0.2,0,0.7-0.1,1.5l-1,4.4
		h-1.1V19.8z M55.4,19.8l-0.9-2.3l1.4-1.8h1.3l-1.7,1.8l1.1,2.3H55.4z M60.7,19.8l-0.3-0.3C60,19.8,59.6,20,58.8,20
		c-1.1,0-1.7-0.5-1.7-1.3c0-0.7,0.5-1.2,1.3-1.6c-0.3-0.3-0.4-0.6-0.4-0.9c0-0.9,0.8-1.6,1.9-1.6c0.8,0,1.3,0.4,1.3,1
		S61,16.7,60,17.1h-0.1l0.7,0.9c0.1-0.2,0.2-0.7,0.3-0.9h0.9l0,0l0,0l0,0c-0.1,0.5-0.3,1.1-0.6,1.5l0.9,1.1L60.7,19.8L60.7,19.8z
		 M66.4,19c-0.6,0.6-1.1,0.8-2.3,0.8h-1.3l1.2-5.5h1.2c0.9,0,1.5,0.1,1.8,0.5c0.2,0.3,0.4,0.7,0.4,1.3C67.4,17,67,18.2,66.4,19z
		 M69.3,18.1c-0.3,0-0.5,0-0.5,0s0,0.2,0,0.4c0,0.5,0.2,0.7,0.7,0.7c0.4,0,0.8-0.1,1.1-0.4l0.2,0.6c-0.5,0.4-1.1,0.6-1.6,0.6
		c-1,0-1.5-0.5-1.5-1.5c0-0.9,0.4-1.7,0.9-2.3c0.4-0.4,0.9-0.5,1.4-0.5c0.8,0,1.4,0.3,1.4,1.1S70.6,18.1,69.3,18.1z M73.1,20
		c-0.9,0-1.4-0.5-1.4-1.4c0-1,0.5-1.9,1.1-2.4c0.4-0.3,0.8-0.5,1.3-0.5c0.4,0,0.8,0.1,1.1,0.5l-0.7,0.6c-0.2-0.2-0.4-0.3-0.6-0.3
		s-0.3,0.1-0.5,0.2c-0.3,0.3-0.6,1.2-0.6,1.8c0,0.4,0.2,0.6,0.5,0.6s0.6-0.1,0.9-0.4l0.3,0.7C74.1,19.8,73.6,20,73.1,20z M75.1,19.8
		l1-4.5c0.1-0.6,0.1-0.9,0.1-1.1l1.1-0.4c0,0.2,0,0.7-0.1,1.5l-1,4.4h-1.1V19.8z M77.6,19.8l-0.9-2.3l1.3-1.8h1.3l-1.7,1.8l1.1,2.3
		H77.6z M80.9,18.1c-0.3,0-0.5,0-0.5,0s0,0.2,0,0.4c0,0.5,0.2,0.7,0.7,0.7c0.4,0,0.8-0.1,1.1-0.4l0.3,0.6C82,19.8,81.4,20,80.8,20
		c-1,0-1.5-0.5-1.5-1.5c0-0.9,0.4-1.7,0.9-2.3c0.4-0.4,0.9-0.5,1.4-0.5c0.8,0,1.4,0.3,1.4,1.1S82.2,18.1,80.9,18.1z M85.9,16.7
		c-0.1,0-0.2-0.1-0.3-0.1c-0.2,0-0.4,0.1-0.8,0.6l-0.6,2.7h-1.1l0.6-2.7c0.1-0.5,0.1-0.9,0-1.1l1-0.4c0,0.1,0.1,0.4,0.1,0.7
		c0.3-0.4,0.7-0.6,1.1-0.6c0.1,0,0.2,0,0.4,0.1L85.9,16.7z"/>
	<path class="st0" d="M81.4,16.4c-0.4,0-0.7,0.2-0.9,1c0,0,0.1,0,0.3,0c0.5,0,1-0.1,1-0.6C81.9,16.6,81.8,16.4,81.4,16.4z"/>
</g>
</svg>
