<?xml version="1.0" encoding="utf-8"?>
<!-- Generator: Adobe Illustrator 26.0.1, SVG Export Plug-In . SVG Version: 6.00 Build 0)  -->
<svg version="1.1" id="Layer_1" xmlns="http://www.w3.org/2000/svg" xmlns:xlink="http://www.w3.org/1999/xlink" x="0px" y="0px"
	 viewBox="0 0 95 35" style="enable-background:new 0 0 95 35;" xml:space="preserve">
<style type="text/css">
	.st0{fill:#104076;}
	.st1{fill:#FFFFFF;}
</style>
<path class="st0" d="M-39.1,613.7"/>
<g>
	<path class="st1" d="M24.4,22.2c-1.1,0-1.9-0.3-1.9-1.2c0-0.5,0-7.2,0-7.2h4.7v-3.5h-4.7V5.6h-3.5v4.8h-12c0,0-4.9-0.2-4.9,4.7
		c0,4.9,4.9,4.7,4.9,4.7h5.8c1,0,1.2,0.8,1.2,1.2c0,0.4-0.2,1.2-1.2,1.2H0v3.5h12.8c0,0,5,0.2,5-4.7c0-4.8-5-4.7-5-4.7H7
		c-1,0-1.2-0.9-1.2-1.2c0-0.4,0.2-1.2,1.2-1.2c1,0,12,0,12,0l0,7.2c0,0-0.4,4.7,4.5,4.7h3.7v-3.5 M36.3,17.3h3.5V15
		c0-4.9-4.8-4.7-4.8-4.7h-6.5v15.4h3.5l0-11.8l2.9,0c0.9,0,1.3,0.5,1.3,1.5 M91.5,17.3H95V15c0-4.9-4.8-4.7-4.8-4.7h-6.5v15.4h3.5
		l0-11.8l2.9,0c0.9,0,1.3,0.5,1.3,1.5"/>
	<path class="st1" d="M39.6,26v3.5h4.4c0.2,0,1.6,0,2.8-0.7c1.7-1,2.5-3.5,2.7-4.2c0.2-0.8,4.2-14.2,4.2-14.2h-3.8l-3,10.9l-3-10.9
		h-3.8l4.3,14.1l0.1,0.4c0.2,0.5-0.1,1.1-0.6,1.1 M58.2,16.2V5.6h-3.5v20.1h3.5v-4.3l2-2.4l3.8,6.8h4l-5.3-9.5l4.9-5.9H63"/>
	<path class="st1" d="M70.8,16.3c0.3-1.4,2.1-2.7,3.9-2.7c1.8,0,3.5,1.2,3.9,2.7L70.8,16.3z M82.3,18c0-4.2-3.2-7.7-7.7-7.7
		c-4.8,0.1-7.7,3.5-7.7,7.7c0,4.2,3.2,7.7,7.5,7.7h5v-3.5h-4.7c-1.8,0-3.8-1.3-4-2.9h11.5C82.3,18.9,82.3,18.4,82.3,18L82.3,18z"/>
</g>
</svg>
