<?xml version="1.0" encoding="utf-8"?>
<!-- Generator: Adobe Illustrator 26.0.1, SVG Export Plug-In . SVG Version: 6.00 Build 0)  -->
<svg version="1.1" id="Layer_1" xmlns="http://www.w3.org/2000/svg" xmlns:xlink="http://www.w3.org/1999/xlink" x="0px" y="0px"
	 viewBox="0 0 95 35" style="enable-background:new 0 0 95 35;" xml:space="preserve">
<style type="text/css">
	.st0{fill:#CCCCCC;}
</style>
<g transform="matrix(1.25 0 0 -1.25 -350.0345 47.6599)">
	<path class="st0" d="M294.9,33.7c-1.4,0.6-3.3,1-4.9,1c-1.5,0-3.5-0.7-3.5-3c0-3.8,9.8-2.2,9.8-9.5c0-4.8-3.9-6.6-8.4-6.6
		c-2.4,0-3.5,0.3-5.7,0.8l0,4c1.5-0.8,3.7-1.4,5.5-1.4c1.7,0,4,0.8,4,2.8c0,4.2-9.8,2.4-9.8,9.7c0,4.9,3.9,6.7,7.8,6.7
		c1.9,0,3.7-0.3,5.3-0.8L294.9,33.7z M320.5,28.2c-1.3,0.4-2.4,0.7-3.9,0.7c-1.1,0-2.4-0.4-2.4-1.7c0-2.5,7.2-0.9,7.2-6.6
		c0-3.7-3.3-5.1-6.7-5.1c-1.6,0-3.2,0.3-4.7,0.7l0.2,3.4c1.3-0.6,2.7-1,4.1-1c1.1,0,2.7,0.4,2.7,1.9c0,3.1-7.2,1-7.2,6.6
		c0,3.4,3,4.9,6.3,4.9c2,0,3.2-0.3,4.5-0.6L320.5,28.2z M333.6,28.1c-0.7,0.3-1.5,0.6-2.8,0.6c-2.6,0-4.2-2-4.2-5
		c0-2.9,1.4-5.1,4.3-5.1c1.2,0,2.5,0.4,3.2,0.7l0.2-3.4c-1.2-0.4-2.4-0.5-4.1-0.5c-5.2,0-7.9,3.5-7.9,8.3c0,4.5,2.7,8.1,7.7,8.1
		c1.7,0,2.9-0.2,4-0.5L333.6,28.1z M343,18.6c3.2,0,4,2.8,4,5.4c0,2.4-1.3,4.7-4,4.7c-2.7,0-4-2.3-4-4.7
		C339.1,21.4,339.9,18.6,343,18.6 M343,31.8c4.7,0,8.4-3.1,8.4-8.3c0-4.5-3.1-8.1-8.4-8.1c-5.3,0-8.3,3.6-8.3,8.1
		C334.7,28.7,338.3,31.8,343,31.8 M310.2,31.7H306l-7.9-21.6h3.8L310.2,31.7z"/>
	<path class="st0" d="M293,32.1c1.8-1.8,3.5-3.9,4.8-6.5c1.1-2.3,1.7-4.5,2.1-6.7c0-0.1,0.1-0.1,0.1,0c1.5,2.6,2.4,6.2,1.1,8.9
		c-1.4,2.8-4.8,4.2-8,4.4C293,32.2,292.9,32.1,293,32.1"/>
	<path class="st0" d="M351.3,31.5h-0.6v0.2h1.4v-0.2h-0.6v-1.7h-0.2V31.5z M353.9,30.7c0,0.3,0,0.6,0,0.8h0
		c-0.1-0.2-0.1-0.5-0.2-0.7l-0.3-0.9h-0.2l-0.3,0.9c-0.1,0.3-0.2,0.5-0.2,0.7h0c0-0.2,0-0.5,0-0.8l0-0.8h-0.2l0.1,1.9h0.3l0.3-0.9
		c0.1-0.2,0.1-0.4,0.2-0.6h0c0.1,0.2,0.1,0.4,0.2,0.6l0.3,0.9h0.3l0.1-1.9H354L353.9,30.7z"/>
</g>
</svg>
