<?xml version="1.0" encoding="utf-8"?>
<!-- Generator: Adobe Illustrator 26.0.1, SVG Export Plug-In . SVG Version: 6.00 Build 0)  -->
<svg version="1.1" id="Layer_1" xmlns="http://www.w3.org/2000/svg" xmlns:xlink="http://www.w3.org/1999/xlink" x="0px" y="0px"
	 viewBox="0 0 95 35" style="enable-background:new 0 0 95 35;" xml:space="preserve">
<style type="text/css">
	.st0{fill:#CCCCCC;}
</style>
<g id="g3">
	<path id="path5" class="st0" d="M83.7,24.5c-0.2,0-0.4-0.2-0.4-0.4V12.8h-3.8c-0.2,0-0.4-0.2-0.4-0.4v-1.6c0-0.2,0.2-0.4,0.4-0.4
		h10.2c0.2,0,0.4,0.2,0.4,0.4v1.6c0,0.2-0.2,0.4-0.4,0.4h-3.8v11.3c0,0.2-0.2,0.4-0.4,0.4L83.7,24.5 M54.4,18.9l-2-5.8l-2,5.8H54.4z
		 M58.8,24.1c0.1,0.2-0.1,0.5-0.3,0.5h-1.8c-0.3,0-0.4-0.1-0.5-0.4l-1-3h-5.7l-1,3c-0.1,0.2-0.2,0.4-0.5,0.4h-1.7
		c-0.2,0-0.4-0.2-0.3-0.5l4.7-13.2c0.1-0.2,0.2-0.4,0.5-0.4h2.3c0.3,0,0.4,0.1,0.5,0.4L58.8,24.1 M72.4,22.6c1.1,0,1.9-0.5,2.5-1.5
		l-2.8-3c-1.1,0.6-1.8,1.2-1.8,2.4C70.3,21.8,71.3,22.6,72.4,22.6 M73.2,12.4c-0.9,0-1.4,0.6-1.4,1.3c0,0.6,0.3,1.1,1,1.9
		c1.2-0.7,1.8-1.2,1.8-1.9C74.6,13,74.1,12.4,73.2,12.4 M80.9,24c0.2,0.2,0.1,0.5-0.2,0.5h-2.2c-0.3,0-0.5-0.1-0.6-0.3l-1.3-1.5
		c-0.9,1.2-2.1,2.1-4.2,2.1c-2.6,0-4.6-1.5-4.6-4.2c0-2,1.1-3.1,2.7-4c-0.8-0.9-1.2-1.9-1.2-2.8c0-2.2,1.5-3.7,3.8-3.7
		c2.3,0,3.8,1.4,3.8,3.4c0,1.7-1.3,2.7-2.6,3.5l2,2.1l1.1-1.9c0.1-0.2,0.3-0.3,0.6-0.3h1.7c0.3,0,0.4,0.2,0.3,0.5l-2,3.4L80.9,24
		 M63.5,24.5c0.2,0,0.4-0.2,0.4-0.4V12.8h3.8c0.2,0,0.4-0.2,0.4-0.4v-1.6c0-0.2-0.2-0.4-0.4-0.4H57.5c-0.2,0-0.4,0.2-0.4,0.4v1.6
		c0,0.2,0.2,0.4,0.4,0.4h3.8v11.3c0,0.2,0.2,0.4,0.4,0.4L63.5,24.5L63.5,24.5z"/>
	<path id="path9" class="st0" d="M11.7,31.3c3,2.3,6.7,3.7,10.7,3.7c4.4,0,8.5-1.6,11.5-4.3c0,0,0-0.1,0,0
		c-1.4,0.9-5.3,2.9-11.5,2.9C17,33.6,13.6,32.4,11.7,31.3C11.7,31.3,11.7,31.3,11.7,31.3 M23.6,32.2c4.3,0,9-1.2,11.9-3.5
		c0.8-0.6,1.5-1.5,2.2-2.6c0.4-0.7,0.8-1.4,1.1-2.2c0,0,0-0.1,0,0c-2.6,3.9-10.3,6.3-18.1,6.3C15,30.2,9,28.4,6.6,25c0,0,0,0,0,0
		C8.8,29.7,15.4,32.2,23.6,32.2 M18.9,24.5c-9,0-13.2-4.2-14-7c0,0,0,0,0,0c0,1,0.1,2.2,0.3,3c0.1,0.4,0.4,1,0.9,1.5
		c2.2,2.3,7.6,5.4,16.9,5.4c12.8,0,15.7-4.3,16.3-5.6c0.4-1,0.6-2.8,0.6-4.3c0-0.4,0-0.7,0-0.9c0,0,0-0.1,0,0
		C39.2,20,28.3,24.5,18.9,24.5 M6.6,10c-0.5,1-1.1,2.7-1.3,3.6c-0.1,0.4,0,0.6,0.1,0.8c1.1,2.3,6.5,5.9,19.2,5.9
		c7.7,0,13.7-1.9,14.7-5.4c0.2-0.6,0.2-1.3,0-2.2c-0.3-1-0.7-2.2-1.1-3c0,0,0,0,0,0c0.2,4.5-12.5,7.5-18.9,7.5
		c-6.9,0-12.7-2.8-12.7-6.2C6.5,10.7,6.5,10.4,6.6,10C6.6,10,6.6,10,6.6,10 M34,4.4c0.1,0.1,0.1,0.2,0.1,0.4c0,1.9-6,5.4-15.4,5.4
		c-7,0-8.3-2.6-8.3-4.2c0-0.6,0.2-1.2,0.7-1.8c0,0,0-0.1,0,0c-0.9,0.8-1.7,1.6-2.5,2.6C8.3,7.2,8.1,7.5,8.1,7.8
		c0,3.4,8.5,5.9,16.5,5.9c8.5,0,12.3-2.8,12.3-5.2c0-0.9-0.3-1.4-1.2-2.4C35.1,5.4,34.6,4.9,34,4.4C34,4.4,34,4.4,34,4.4 M31.4,2.5
		c-2.6-1.6-5.7-2.5-9-2.5c-3.3,0-6.4,0.9-9.1,2.5c-0.8,0.5-1.2,0.9-1.2,1.4c0,1.5,3.4,3.1,9.6,3.1c6.1,0,10.8-1.7,10.8-3.4
		C32.4,3.2,32.1,2.9,31.4,2.5"/>
</g>
</svg>
