<?xml version="1.0" encoding="utf-8"?>
<!-- Generator: Adobe Illustrator 26.0.1, SVG Export Plug-In . SVG Version: 6.00 Build 0)  -->
<svg version="1.1" id="Layer_1" xmlns="http://www.w3.org/2000/svg" xmlns:xlink="http://www.w3.org/1999/xlink" x="0px" y="0px"
	 viewBox="0 0 95 35" style="enable-background:new 0 0 95 35;" xml:space="preserve">
<style type="text/css">
	.st0{fill:#104076;}
	.st1{fill:#343741;}
</style>
<path class="st0" d="M-39.1,613.7"/>
<g>
	<path class="st1" d="M40.6,7.1H16.3c-2,0-3.6-1.6-3.6-3.6S14.3,0,16.3,0h24.3c2,0,3.6,1.6,3.6,3.6S42.6,7.1,40.6,7.1z M39.4,21.4
		c0-2-1.6-3.6-3.6-3.6H11.5c-2,0-3.6,1.6-3.6,3.6c0,2,1.6,3.6,3.6,3.6h24.3C37.8,25,39.4,23.4,39.4,21.4z M0.7,12.5
		c0,2,1.6,3.6,3.6,3.6c0,0,0,0,0,0h24.3c2,0,3.6-1.6,3.6-3.6s-1.6-3.6-3.6-3.6H4.3C2.3,8.9,0.7,10.5,0.7,12.5
		C0.7,12.5,0.7,12.5,0.7,12.5z M51.1,0.2l-1.5,5.6h7.5l-5.1,19h6.5l5.1-19h7.5l1.5-5.6H51.1L51.1,0.2z M74.5,0.2l-6.6,24.6h19.8
		l1.4-5.4H75.7l1.2-4.5h12l1.4-5h-12l1.2-4.3h13.4l1.5-5.4L74.5,0.2L74.5,0.2z M45.9,34c0.5,0,1.1-0.2,1.4-0.6l-0.5-0.7
		C46.6,32.9,46.3,33,46,33c-0.4,0-0.7-0.3-0.7-0.7c0,0,0-0.1,0-0.1c0-0.7,0.4-1.2,1.1-1.3c0.3,0,0.7,0.2,0.8,0.5l0.8-0.6
		c-0.3-0.5-0.9-0.9-1.5-0.8c-1.2,0-2.3,0.9-2.3,2.2c0,0,0,0.1,0,0.1c0,0.9,0.7,1.7,1.6,1.7C45.8,33.9,45.9,33.9,45.9,34L45.9,34z
		 M49.8,34c1.2,0,2.1-1,2.2-2.2c0-0.9-0.6-1.7-1.6-1.7c-0.1,0-0.2,0-0.2,0c-1.2,0-2.1,1-2.2,2.2c0,0.9,0.7,1.7,1.6,1.7
		C49.6,33.9,49.7,33.9,49.8,34L49.8,34z M49.8,33c-0.4,0-0.8-0.3-0.8-0.7c0,0,0-0.1,0-0.1c0-0.6,0.5-1.2,1.1-1.2
		c0.4,0,0.8,0.3,0.8,0.7c0,0,0,0.1,0,0.1C50.9,32.4,50.5,33,49.8,33L49.8,33z M52.1,33.9h1.1l0.6-2.2c0-0.4,0.4-0.8,0.8-0.7
		c0.2,0,0.5,0.1,0.5,0.4c0,0,0,0.1,0,0.1c0,0.1,0,0.2,0,0.3l-0.6,2.1h1.1l0.5-2c0.1-0.2,0.1-0.5,0.1-0.7c0-0.6-0.4-1-1-1
		c0,0-0.1,0-0.1,0c-0.4,0-0.7,0.2-1,0.5l0.1-0.5h-1.1L52.1,33.9z M56.5,33.9h1.1l0.6-2.2c0-0.4,0.4-0.8,0.8-0.7
		c0.2,0,0.5,0.1,0.5,0.4c0,0,0,0.1,0,0.1c0,0.1,0,0.2,0,0.3l-0.6,2.1h1.1l0.5-2c0.1-0.2,0.1-0.5,0.1-0.7c0-0.6-0.4-1-1-1.1
		c-0.1,0-0.1,0-0.2,0c-0.4,0-0.8,0.2-1,0.5l0.1-0.5h-1.1L56.5,33.9z M62,32.4h2.6c0.1-0.3,0.2-0.5,0.2-0.8c0-0.8-0.6-1.4-1.3-1.5
		c-0.1,0-0.1,0-0.2,0c-1.2,0-2.2,1-2.2,2.2c0,0.9,0.6,1.6,1.5,1.7c0.1,0,0.2,0,0.2,0c0.5,0,1-0.2,1.4-0.5l-0.5-0.7
		c-0.2,0.2-0.5,0.3-0.8,0.3c-0.4,0.1-0.8-0.2-0.9-0.6C62.1,32.4,62.1,32.4,62,32.4L62,32.4z M62.1,31.7c0.1-0.5,0.6-0.8,1.1-0.8
		c0.3,0,0.6,0.2,0.6,0.4c0,0,0,0.1,0,0.1c0,0.1,0,0.2,0,0.2L62.1,31.7L62.1,31.7z M67.1,34c0.5,0,1-0.2,1.4-0.6L68,32.7
		c-0.2,0.2-0.5,0.4-0.8,0.4c-0.4,0-0.7-0.3-0.7-0.7c0,0,0-0.1,0-0.1c0-0.7,0.4-1.2,1.1-1.3c0.3,0,0.7,0.2,0.8,0.5l0.8-0.6
		c-0.3-0.5-0.9-0.9-1.5-0.8c-1.2,0-2.2,1-2.2,2.2c0,0.9,0.7,1.7,1.6,1.7C67,33.9,67,33.9,67.1,34L67.1,34z M70.3,34
		c0.3,0,0.5-0.1,0.8-0.2l0.2-0.9C71.2,33,71,33,70.8,33c-0.1,0-0.3,0-0.3-0.1c0,0,0-0.1,0-0.1c0-0.1,0-0.1,0-0.2l0.4-1.6h0.9
		l0.2-0.9h-0.9l0.3-1h-1.1l-0.3,0.9h-0.5L69.4,31h0.5l-0.5,1.7c0,0.2-0.1,0.3-0.1,0.5C69.4,33.6,69.8,34,70.3,34
		C70.3,33.9,70.3,33.9,70.3,34L70.3,34z M71.9,33.9h1l1-3.8h-1.1L71.9,33.9z M72.9,29.7h1.1l0.3-0.9h-1.1L72.9,29.7z M75,33.9h1
		l2.5-3.8h-1.1l-1.5,2.5l-0.2-2.5h-1L75,33.9z M78.1,33.9h1.1l1-3.8h-1.1L78.1,33.9z M79.2,29.7h1.1l0.3-0.9h-1.1L79.2,29.7z
		 M81.6,33.9c0.3,0,0.5,0,0.8-0.2l0.2-0.9C82.4,33,82.2,33,82,33c-0.1,0-0.2,0-0.3-0.2c0,0,0,0,0-0.1c0-0.1,0-0.1,0-0.2l0.4-1.6h0.9
		l0.2-0.9h-0.9l0.3-1h-1.1l-0.2,0.9H81L80.7,31h0.5l-0.5,1.7c0,0.2-0.1,0.3-0.1,0.5C80.7,33.6,81.1,34,81.6,33.9
		C81.5,33.9,81.6,33.9,81.6,33.9L81.6,33.9z M83.8,35c0.7,0,1.3-0.4,1.5-1.1l2.3-3.9h-1.2l-1.4,2.6l-0.2-2.6h-1.1l0.5,3.8
		c-0.1,0.1-0.2,0.2-0.4,0.2c-0.1,0-0.3-0.1-0.4-0.1l-0.6,0.8C83.1,34.9,83.4,35,83.8,35z"/>
</g>
</svg>
