<?xml version="1.0" encoding="utf-8"?>
<!-- Generator: Adobe Illustrator 26.0.1, SVG Export Plug-In . SVG Version: 6.00 Build 0)  -->
<svg version="1.1" id="Layer_1" xmlns="http://www.w3.org/2000/svg" xmlns:xlink="http://www.w3.org/1999/xlink" x="0px" y="0px"
	 viewBox="0 0 95 35" style="enable-background:new 0 0 95 35;" xml:space="preserve">
<style type="text/css">
	.st0{fill-rule:evenodd;clip-rule:evenodd;fill:#CCCCCC;}
	.st1{fill:#CCCCCC;}
</style>
<g transform="matrix(.661096 0 0 .661096 114.73 96.4153)">
	<path class="st0" d="M-87.4-143.5c0-1.3-1-2.4-2.4-2.4h-23.7c-1.4,0-2.4,1.1-2.4,2.4v23.8c0,1.3,1,2.4,2.4,2.4h23.7
		c1.4,0,2.4-1.1,2.4-2.4L-87.4-143.5L-87.4-143.5z M-99.8-138.2h2.8v5.2h7.2v-10.5h-23.7v10.5h7.2v-5.2h2.8v13.2h-2.8v-5.2h-7.2
		v10.5h23.7v-10.5h-7.2v5.2h-2.8L-99.8-138.2L-99.8-138.2z"/>
	<g>
		<path class="st1" d="M-79.4-109.9c-0.6,0-1.2,0-1.6,0.1c-2.5,0.5-3.9,2.1-4,4.5c0,0.9,0.1,1.5,0.4,2.2c0.6,1.3,1.6,1.9,4.2,2.9
			c2.9,1,3.4,1.4,3.4,2.6c0,0.6-0.1,0.9-0.5,1.4c-0.5,0.5-1.2,0.7-2.3,0.7c-1.2,0-2-0.2-3.3-0.8c-0.4-0.2-0.9-0.4-1-0.5l-0.3-0.2v3
			l0.5,0.2c1,0.5,2.2,0.8,3.3,0.9c0.6,0.1,1.9,0,2.4-0.1c0.5-0.1,1.4-0.4,1.7-0.5c1.1-0.6,1.9-1.5,2.3-2.7c0.2-0.6,0.3-1.6,0.2-2.2
			c-0.1-1-0.4-1.6-1-2.3c-0.7-0.8-1.6-1.2-3.9-2c-2.3-0.8-3-1.3-3.1-2.4c-0.1-0.7,0.3-1.5,1-1.9c1.3-0.6,3.3-0.4,5.1,0.6
			c0.2,0.1,0.4,0.2,0.5,0.2c0,0,0-0.7,0-1.5v-1.5l-0.3-0.1c-0.5-0.2-1.3-0.5-1.9-0.6C-78.2-109.8-78.8-109.9-79.4-109.9L-79.4-109.9
			z"/>
		<path class="st1" d="M-144.4-109.6v2.6h5.2v13.6h2.9v-13.6h5.2v-2.6H-144.4z"/>
		<path class="st1" d="M-92.7-109.6h2.9v16.3h-2.9V-109.6z"/>
		<path class="st1" d="M-72.2-109.6l0,2.6l5.1,0v13.6h2.9v-13.6h5.2v-2.6H-72.2z"/>
		<path class="st1" d="M-98.5-97c0.4-1.2,0.4-1.4,0.4-7.3v-5.2h-2.9v5.2c0,6,0,6-0.5,6.9c-0.6,1.3-1.7,1.9-3.2,1.9s-2.6-0.6-3.2-1.9
			c-0.5-1-0.5-1-0.5-6.9v-5.2h-2.9v5.2c0,5.9,0,6.1,0.4,7.3c0.8,2.3,2.7,3.8,5.2,4.1c0.6,0.1,1.2,0.1,1.7,0
			C-101.2-93.2-99.3-94.8-98.5-97z"/>
		<path class="st1" d="M-122.2-107c1.4,0,1.8,0.1,2.3,0.3c1.6,0.8,2,3,0.7,4.3c-0.4,0.4-0.8,0.6-1.4,0.7c-0.6,0.1-4.1,0.1-4.2,0
			v-5.3l1.9,0C-122.7-107-122.4-107-122.2-107L-122.2-107z M-127.6-109.6v16.3h2.8V-99h0.8c1.7,0,2.2,0.3,3.2,2.4
			c0.7,1.5,1,1.9,1.5,2.4c0.4,0.4,1.2,0.8,1.9,1c0.5,0.1,2.1,0.1,2.3,0v-2.6l-0.4,0c-0.7,0.1-1.4-0.2-1.9-0.8
			c-0.1-0.1-0.5-0.7-0.7-1.2c-0.5-1-0.7-1.3-1-1.6l-0.2-0.2l0.5-0.1c1.5-0.5,2.6-1.6,3.1-3c0.2-0.8,0.3-2.1,0.1-2.9
			c-0.4-1.6-1.5-2.8-3.1-3.5c-1-0.4-1.1-0.4-5.1-0.4L-127.6-109.6z"/>
	</g>
</g>
</svg>
