<?xml version="1.0" encoding="utf-8"?>
<!-- Generator: Adobe Illustrator 26.0.1, SVG Export Plug-In . SVG Version: 6.00 Build 0)  -->
<svg version="1.1" id="Layer_1" xmlns="http://www.w3.org/2000/svg" xmlns:xlink="http://www.w3.org/1999/xlink" x="0px" y="0px"
	 viewBox="0 0 95 35" style="enable-background:new 0 0 95 35;" xml:space="preserve">
<style type="text/css">
	.st0{fill:#CCCCCC;}
</style>
<g>
	<g>
		<path class="st0" d="M47.6,22.7c-5,0-9.1-4.1-9.1-9.1c0-5,4.1-9.1,9.1-9.1c5,0,9.1,4.1,9.1,9.1C56.7,18.6,52.6,22.7,47.6,22.7
			 M47.6,0C40.1,0,34,6.1,34,13.6c0,7.5,6.1,13.6,13.6,13.6c7.5,0,13.6-6.1,13.6-13.6C61.2,6.1,55.1,0,47.6,0z"/>
		<path class="st0" d="M47.6,9c-2.6,0-4.7,2.1-4.7,4.7c0,2.6,2.1,4.7,4.7,4.7c2.6,0,4.7-2.1,4.7-4.7C52.2,11,50.2,9,47.6,9"/>
		<polyline class="st0" points="35.3,30.8 33.8,30.8 33.8,29.9 37.9,29.9 37.9,30.8 36.4,30.8 36.4,34.9 35.3,34.9 35.3,30.8 		"/>
		<path class="st0" d="M37.4,34.9h1.1l0.4-1.1h1.9l0.4,1.1h1.1l-1.9-5h-1.1L37.4,34.9 M39.8,31.1L39.8,31.1l0.6,1.8h-1.3L39.8,31.1z
			"/>
		<path class="st0" d="M42.7,34.9h1.1v-2h1.1c0.6,0,0.8,0.2,0.8,0.8c0.1,0.4,0,0.9,0.2,1.2H47c-0.2-0.3-0.2-0.9-0.2-1.2
			c0-0.5-0.2-1-0.7-1.2v0c0.6-0.2,0.8-0.7,0.8-1.3c0-0.8-0.6-1.4-1.5-1.4h-2.7L42.7,34.9 M43.8,30.7H45c0.5,0,0.8,0.2,0.8,0.7
			c0,0.5-0.3,0.7-0.8,0.7h-1.2V30.7z"/>
		<path class="st0" d="M51.3,34.3c-0.4,0.5-0.9,0.7-1.4,0.7c-1.6,0-2.5-1.2-2.5-2.6c0-1.5,0.9-2.6,2.5-2.6c1,0,2,0.6,2.1,1.8H51
			c-0.1-0.6-0.5-0.8-1.1-0.8c-1,0-1.4,0.8-1.4,1.7c0,0.8,0.4,1.7,1.4,1.7c0.7,0,1.1-0.4,1.2-1.1H50v-0.8h2.1v2.7h-0.7L51.3,34.3"/>
		<polyline class="st0" points="52.8,29.9 56.6,29.9 56.6,30.8 53.9,30.8 53.9,31.9 56.4,31.9 56.4,32.7 53.9,32.7 53.9,34 56.6,34 
			56.6,34.9 52.8,34.9 52.8,29.9 		"/>
		<polyline class="st0" points="58.6,30.8 57.1,30.8 57.1,29.9 61.2,29.9 61.2,30.8 59.7,30.8 59.7,34.9 58.6,34.9 58.6,30.8 		"/>
	</g>
</g>
</svg>
