<?xml version="1.0" encoding="utf-8"?>
<!-- Generator: Adobe Illustrator 26.0.1, SVG Export Plug-In . SVG Version: 6.00 Build 0)  -->
<svg version="1.1" id="Layer_1" xmlns="http://www.w3.org/2000/svg" xmlns:xlink="http://www.w3.org/1999/xlink" x="0px" y="0px"
	 viewBox="0 0 95 35" style="enable-background:new 0 0 95 35;" xml:space="preserve">
<style type="text/css">
	.st0{fill:#CCCCCC;}
</style>
<g>
	<path class="st0" d="M42.1,5.1L36.4,15l5,8.6h-5.7L33,18.8l-5.7,10.4h-6L29.4,15l-5.7-9.9h6.1l3.2,5.8l3.2-5.8H42.1z M0.2,9.9H0
		V5.1h18.1v4.8h-6.2v19.2H6.2V9.9H2.1H0.2z"/>
	<path class="st0" d="M18.5,5.1H24v15c0,6.9-3.3,9.3-8.6,9.3c-1.3,0-2,0-3.1-0.4l0-4.3c1.7,0,2.1,0,2.4,0c1.7-0.1,3.8-0.9,3.8-4.6
		L18.5,5.1L18.5,5.1z M42.9,5.8v0.4h0.4c0.1,0,0.2,0,0.2-0.2c0-0.2-0.1-0.2-0.2-0.2H42.9z M42.8,5.7h0.5c0.2,0,0.4,0,0.4,0.3
		c0,0.2,0,0.2-0.2,0.3c0.1,0.1,0.1,0.1,0.1,0.3c0,0.2,0,0.2,0.1,0.3h-0.2l0-0.1c0-0.1,0-0.4-0.2-0.4h-0.4v0.5h-0.2L42.8,5.7
		L42.8,5.7z M43.2,5.4c-0.5,0-1,0.4-0.9,1c0,0.5,0.4,1,1,0.9c0.5,0,1-0.4,1-1C44.1,5.8,43.7,5.4,43.2,5.4 M43.2,7.4
		c-0.6,0-1.1-0.5-1.1-1.1c0-0.6,0.5-1.1,1.1-1.1c0.6,0,1.1,0.5,1.1,1.1C44.3,6.9,43.8,7.4,43.2,7.4 M34,26.2h-0.2
		c0-0.3-0.1-0.7-0.4-0.8c-0.1-0.1-0.3,0-0.5,0l-0.3,3.1c0,0.2,0,0.4,0.1,0.5c0.1,0,0.1,0.1,0.2,0.1l0,0.2h-1.7l0-0.2
		c0.1,0,0.2,0,0.3-0.1c0.2-0.1,0.2-0.4,0.2-0.5l0.3-3.1c-0.2,0-0.4,0-0.5,0c-0.4,0.2-0.5,0.6-0.6,0.8h-0.2l0.2-1.2h3.2L34,26.2z"/>
	<path class="st0" d="M37,25.8c0-0.2,0.1-0.4-0.1-0.5c-0.1-0.1-0.1-0.1-0.2-0.1l0-0.2h1.7l0,0.2c-0.1,0-0.2,0-0.3,0.1
		c-0.2,0.1-0.2,0.4-0.2,0.5l-0.3,2.6c0,0.2-0.1,0.4,0.1,0.5c0.1,0,0.1,0.1,0.2,0.1l0,0.2h-1.7l0-0.2c0.1,0,0.2,0,0.3-0.1
		c0.2-0.1,0.2-0.4,0.2-0.5l0.1-1.3h-1.7l-0.1,1.3c0,0.2-0.1,0.4,0.1,0.5c0.1,0,0.1,0.1,0.2,0.1l0,0.2h-1.7l0-0.2
		c0.1,0,0.2,0,0.3-0.1c0.2-0.1,0.2-0.4,0.2-0.5l0.3-2.6c0-0.2,0.1-0.4-0.1-0.5c-0.1-0.1-0.1-0.1-0.2-0.1l0-0.2h1.7l0,0.2
		c-0.1,0-0.2,0-0.3,0.1c-0.2,0.1-0.2,0.4-0.2,0.5l-0.1,1h1.7L37,25.8z"/>
	<path class="st0" d="M37.8,29c0.1,0,0.2,0,0.3-0.1c0.2-0.1,0.2-0.4,0.2-0.5l0.3-2.6c0-0.2,0.1-0.4-0.1-0.5
		c-0.1-0.1-0.1-0.1-0.2-0.1l0-0.2H41l0,0.9l-0.2,0c-0.1-0.4-0.2-0.6-0.5-0.7c-0.1,0-0.4,0-0.7,0l-0.2,1.7c0.3,0,0.6,0,0.8-0.3
		c0.1-0.1,0.1-0.2,0.1-0.3h0.2l-0.2,1.4H40c0-0.1,0-0.2-0.1-0.3c-0.1-0.3-0.4-0.3-0.7-0.3l-0.1,1c0,0.2-0.1,0.6,0.1,0.7
		c0.2,0.1,0.8,0,0.9,0c0.4-0.2,0.5-0.5,0.6-0.8l0.2,0l-0.2,1.1h-3L37.8,29z M45.8,26.2h-0.2c0-0.3-0.1-0.7-0.4-0.8
		c-0.1-0.1-0.3,0-0.5,0l-0.3,3.1c0,0.2,0,0.4,0.1,0.5c0.1,0,0.1,0.1,0.2,0.1l0,0.2H43l0-0.2c0.1,0,0.2,0,0.3-0.1
		c0.2-0.1,0.2-0.4,0.2-0.5l0.3-3.1c-0.2,0-0.4,0-0.5,0c-0.4,0.2-0.5,0.6-0.6,0.8h-0.2l0.2-1.2h3.2L45.8,26.2z"/>
	<path class="st0" d="M46.6,29c-0.4,0.3-1.3,0.2-1.7,0.1l0.1-0.9h0.4c0,0.2,0,0.5,0.2,0.6c0.1,0.1,0.2,0,0.2,0
		c0.2-0.1,0.2-0.4,0.2-0.5l0.3-2.6c0-0.2,0.1-0.4-0.1-0.5c-0.1-0.1-0.2-0.1-0.3-0.1l0-0.2h1.9l0,0.2c-0.1,0-0.2,0-0.3,0.1
		c-0.2,0.1-0.2,0.4-0.3,0.5L47.1,28C47.1,28.4,47,28.7,46.6,29"/>
	<path class="st0" d="M49.3,25.1c-0.1,0-0.3,0-0.3,0.2c-0.1,0.1,0.1,0.4,0.2,0.6l0.3,0.6l0.4-0.5c0.3-0.3,0.5-0.6,0.4-0.8
		c0-0.1-0.1-0.2-0.3-0.2l0-0.2h1.4l0,0.2c-0.3,0-0.5,0.2-0.8,0.6l-0.9,1.1l0.8,1.5c0.2,0.5,0.4,0.6,0.7,0.6l0,0.2h-1.9l0-0.2
		c0.1,0,0.3,0,0.3-0.2c0-0.1-0.1-0.3-0.2-0.6L49,27.6l-0.5,0.6c-0.2,0.2-0.4,0.5-0.4,0.7c0,0.1,0.1,0.2,0.3,0.2l0,0.2H47l0-0.2
		c0.4,0,0.6-0.2,1-0.8l0.8-1l-0.8-1.5c-0.2-0.4-0.2-0.6-0.6-0.6l0-0.2h1.8L49.3,25.1z M55.7,26.2h-0.2c0-0.5-0.1-0.8-0.6-1
		c-0.3-0.1-0.8-0.1-1.1,0.2c-0.6,0.5-0.8,1.3-0.8,1.8c0,0.5,0.1,1.4,0.7,1.7c0.3,0.2,0.7,0.1,1.1-0.1c0.4-0.3,0.6-0.5,0.8-0.8
		l-0.1,0.8c-0.8,0.5-2,0.7-2.7,0.2c-0.6-0.4-0.8-1-0.8-1.6c0-0.6,0.2-1.4,0.9-2c0.9-0.7,2.2-0.5,2.9-0.2L55.7,26.2z M57,26.3
		c-0.2,0.7-0.3,1.8,0.2,2.4c0.3,0.3,0.6,0.4,0.9,0.3c0.4-0.1,0.7-0.4,0.9-0.9c0.3-0.7,0.4-1.8-0.1-2.6c-0.2-0.4-0.6-0.5-0.8-0.4
		c0,0-0.1,0-0.3,0.1C57.3,25.4,57.1,25.9,57,26.3 M59.9,27.9c-0.3,0.7-0.9,1.1-1.5,1.3c-0.6,0.2-1.6,0-2.1-0.6
		c-0.5-0.5-0.5-1.3-0.4-1.8c0.2-0.8,0.8-1.4,1.3-1.6c1.1-0.5,2.1-0.2,2.6,0.6C60.2,26.4,60.2,27.3,59.9,27.9"/>
	<path class="st0" d="M62.4,28l1.5-3h1.2l0,0.2c0,0-0.2,0-0.2,0.1c-0.2,0.2-0.2,0.4-0.2,0.6l-0.3,2.6c0,0.4,0,0.6,0.4,0.6l0,0.2H63
		l0-0.2c0.1,0,0.2,0,0.3-0.1c0.2-0.1,0.2-0.3,0.2-0.5l0.2-2.6l-1.7,3.4h-0.3L61,26l-0.3,2.3c-0.1,0.5-0.1,0.7,0.4,0.7l0,0.2h-1.3
		l0-0.2c0.1,0,0.2,0,0.3-0.1c0.2-0.1,0.2-0.4,0.2-0.6l0.4-2.6c0-0.4,0.1-0.6-0.3-0.6l0-0.2h1.2L62.4,28z"/>
	<path class="st0" d="M67,26.6c0.1-0.3,0.2-0.8,0-1.1c-0.2-0.3-0.5-0.2-0.6-0.2L66.2,27c0.1,0,0.2,0,0.3,0
		C66.7,27,66.9,26.8,67,26.6 M67.9,25.5c0.1,0.3,0.1,0.9-0.1,1.2c-0.3,0.6-1,0.6-1.5,0.6h-0.2L66,28.4c0,0.1,0,0.4,0.1,0.5
		c0.1,0.1,0.1,0.1,0.2,0.1l0,0.2h-1.7l0-0.2c0.1,0,0.2,0,0.3-0.1c0.2-0.1,0.2-0.4,0.2-0.5l0.3-2.6c0-0.2,0.1-0.4-0.1-0.5
		c-0.1-0.1-0.1-0.1-0.2-0.1l0-0.2h1.6C67.1,25,67.7,25,67.9,25.5 M69.2,27.5l-0.3-1.3l-0.6,1.3H69.2z M69.4,25l0.9,3.4
		c0.1,0.5,0.2,0.6,0.5,0.6l0,0.2h-1.7l0-0.2c0.1,0,0.3,0,0.3-0.1c0.1-0.1,0-0.4-0.1-0.7l-0.1-0.4h-1.1c-0.1,0.4-0.4,0.9-0.3,1.1
		C67.9,29,68,29,68.2,29l0,0.1h-1.3l0-0.1c0.3-0.1,0.5-0.2,0.7-0.7l1.6-3.3H69.4z"/>
	<path class="st0" d="M73.7,25.1l0-0.2H75l0,0.2c-0.4,0-0.5,0.2-0.6,0.7L74,29.2h-0.4l-2.2-3.3l-0.3,2.3c-0.1,0.5,0,0.7,0.4,0.7
		l0,0.2h-1.2l0-0.2c0.4,0,0.5-0.2,0.6-0.7l0.3-2.4c0-0.2,0.1-0.5-0.2-0.7c-0.1,0-0.2-0.1-0.3-0.1l0-0.2H72l1.9,2.9l0.2-2
		C74.1,25.4,74.1,25.2,73.7,25.1"/>
	<path class="st0" d="M75.1,25.2c-0.1-0.1-0.1-0.1-0.2-0.1l0-0.2h1.7l0,0.2c-0.1,0-0.2,0-0.3,0.1c-0.2,0.1-0.2,0.4-0.2,0.5l-0.3,2.6
		c0,0.2,0,0.4,0.1,0.5C76,29,76,29,76.1,29l0,0.2h-1.7l0-0.2c0.1,0,0.2,0,0.3-0.1c0.2-0.1,0.2-0.4,0.2-0.5l0.3-2.6
		C75.3,25.6,75.3,25.3,75.1,25.2 M76.2,29c0.1,0,0.2,0,0.3-0.1c0.2-0.1,0.2-0.4,0.2-0.5l0.3-2.6c0-0.2,0-0.4-0.1-0.5
		c-0.1-0.1-0.1-0.1-0.2-0.1l0-0.2h2.7l0,0.9l-0.2,0c-0.1-0.4-0.2-0.6-0.5-0.7c-0.1,0-0.4,0-0.7,0l-0.2,1.7c0.3,0,0.6,0,0.8-0.3
		c0.1-0.1,0.1-0.2,0.1-0.3h0.2l-0.2,1.4h-0.2c0-0.1,0-0.2-0.1-0.3c-0.1-0.3-0.4-0.3-0.7-0.3l-0.1,1c0,0.2-0.1,0.6,0.1,0.7
		c0.2,0.1,0.8,0,0.9,0c0.4-0.2,0.5-0.5,0.6-0.8l0.2,0l-0.2,1.1h-3L76.2,29z M82.1,26.1l-0.2,0c0-0.2-0.1-0.7-0.4-0.9
		c-0.1-0.1-0.5-0.1-0.7,0.1c-0.2,0.2-0.3,0.4-0.3,0.6c0,0.3,0.3,0.5,0.5,0.6l0.3,0.2c0.5,0.3,0.8,0.5,0.8,1.2c0,0.4-0.2,0.9-0.7,1.2
		c-0.5,0.3-1.6,0.2-2,0l0.1-1.1h0.2c0,0.4,0.1,0.8,0.5,0.9c0.2,0.1,0.5,0.1,0.7-0.1c0.2-0.2,0.3-0.4,0.3-0.6c0-0.4-0.4-0.6-0.6-0.7
		l-0.3-0.2c-0.4-0.2-0.7-0.4-0.7-0.9c0-0.3,0.1-0.8,0.4-1.1c0.6-0.6,1.4-0.5,1.8-0.4c0,0,0.3,0.1,0.3,0.1L82.1,26.1z M82.3,29.9
		h-0.6l0.6-1.5H83L82.3,29.9z M84.9,25.2c-0.1-0.1-0.1-0.1-0.2-0.1l0-0.2h1.7l0,0.2c-0.1,0-0.2,0-0.3,0.1c-0.2,0.1-0.2,0.4-0.2,0.5
		l-0.3,2.6c0,0.2-0.1,0.4,0.1,0.5c0.1,0,0.1,0.1,0.2,0.1l0,0.2h-1.7l0-0.2c0.1,0,0.2,0,0.3-0.1c0.2-0.1,0.2-0.4,0.2-0.5l0.3-2.6
		C85.1,25.6,85.1,25.3,84.9,25.2 M89.5,25.1l0-0.2h1.2l0,0.2c-0.4,0-0.5,0.2-0.6,0.7l-0.4,3.3h-0.4l-2.2-3.3L87,28.3
		c-0.1,0.5,0,0.7,0.4,0.7l0,0.2h-1.2l0-0.2c0.4,0,0.5-0.2,0.6-0.7l0.3-2.4c0-0.2,0.1-0.5-0.2-0.7c-0.1,0-0.2-0.1-0.3-0.1l0-0.2h1.2
		l1.9,2.9l0.2-2C89.9,25.4,89.9,25.2,89.5,25.1 M94.1,26.2h-0.2c0-0.5-0.1-0.8-0.6-1C93,25,92.5,25,92.1,25.4
		c-0.6,0.5-0.8,1.3-0.8,1.8c0,0.5,0.1,1.4,0.7,1.7c0.3,0.2,0.7,0.1,1.1-0.1c0.4-0.3,0.6-0.5,0.8-0.8l-0.1,0.8
		c-0.8,0.5-2,0.7-2.7,0.2c-0.6-0.4-0.8-1-0.8-1.6c0-0.6,0.2-1.4,0.9-2c0.9-0.7,2.2-0.5,2.9-0.2L94.1,26.2z M94.1,28.6
		c0-0.1,0.2-0.2,0.3-0.3c0.1,0,0.3,0,0.4,0.1c0.1,0.1,0.2,0.3,0.1,0.4c0,0.2-0.1,0.3-0.3,0.3c-0.2,0.1-0.3,0-0.5-0.1
		C94.1,29.1,94,28.8,94.1,28.6"/>
</g>
</svg>
