<?xml version="1.0" encoding="utf-8"?>
<!-- Generator: Adobe Illustrator 26.0.1, SVG Export Plug-In . SVG Version: 6.00 Build 0)  -->
<svg version="1.1" id="Layer_1" xmlns="http://www.w3.org/2000/svg" xmlns:xlink="http://www.w3.org/1999/xlink" x="0px" y="0px"
	 viewBox="0 0 95 35" style="enable-background:new 0 0 95 35;" xml:space="preserve">
<style type="text/css">
	.st0{fill:#104076;}
	.st1{fill:#FFFFFF;}
</style>
<path class="st0" d="M-39.1,613.7"/>
<g>
	<path class="st1" d="M21.3,11.8v9.4c0,0.7,0,1.1,0.1,1.3c0.1,0.4,0.5,0.6,1.2,0.6H23v0.6h-5.2v-0.6h0.4c0.5,0,0.8-0.1,1-0.3
		c0.2-0.2,0.3-0.7,0.3-1.5v-9.4h-0.4c-0.6,0-1.1,0.2-1.6,0.5c-0.7,0.5-1.1,1.6-1.3,3.2h-0.5l0.1-4.4H25l0.1,4.4h-0.6
		c-0.2-1.8-0.8-3-1.6-3.4c-0.4-0.2-0.8-0.3-1.4-0.3L21.3,11.8L21.3,11.8z"/>
	<path class="st1" d="M15.7,19.3v-2.6h2.6v2.6H15.7z M22.5,19.3v-2.6h2.6v2.6H22.5z M30.3,19.3v-2.6H33v2.6H30.3z M38.2,19.3v-2.6
		h2.6v2.6H38.2z M0,19.3v-2.6h2.6v2.6H0z M7.8,19.3v-2.6h2.6v2.6H7.8z M48,23.7h-0.6l-3.3-11.4v8.2c0,0.8,0,1.4,0.1,1.6
		c0.2,0.7,0.6,1,1.3,1h0.2v0.6h-3.9v-0.6h0.3c0.5,0,0.8-0.2,1-0.6c0.2-0.3,0.2-1,0.2-2v-7.2c0-0.4,0-0.7-0.1-0.9
		c-0.1-0.3-0.2-0.5-0.5-0.6c-0.1,0-0.4-0.1-0.6-0.1h-0.4v-0.6h3.6l2.7,9.2l2.7-9.2h3.7v0.6h-0.2c-0.5,0-0.8,0.1-1,0.3
		c-0.2,0.2-0.3,0.7-0.3,1.5v7.6c0,0.7,0,1.1,0.1,1.3c0.1,0.4,0.5,0.6,1.2,0.6h0.2v0.6h-4.7v-0.6H50c0.5,0,0.8-0.1,1-0.3
		c0.2-0.2,0.3-0.7,0.3-1.5v-8.9L48,23.7z M60.9,16.5c0.3,0.6,0.4,1.6,0.4,2.8c0,2.6-0.7,4-2,4c-1.3,0-2-1.3-2-4
		c0-1.2,0.1-2.1,0.4-2.8c0.3-0.7,0.8-1.1,1.5-1.1C60.1,15.4,60.6,15.8,60.9,16.5z M56.5,16.2c-0.6,0.8-0.9,1.9-0.9,3.2
		c0,1.3,0.3,2.4,1,3.2c0.7,0.9,1.7,1.4,2.9,1.4c1.2,0,2.1-0.5,2.8-1.4c0.6-0.8,1-1.9,1-3.2c0-1.3-0.3-2.4-1-3.2
		c-0.7-0.9-1.7-1.4-2.8-1.4C58.2,14.8,57.2,15.3,56.5,16.2z M70.4,19.3c0,2.6-0.6,3.9-1.8,3.9c-0.7,0-1.2-0.4-1.6-1.1
		c-0.3-0.7-0.5-1.6-0.5-2.8c0-1.2,0.2-2.1,0.5-2.8c0.4-0.7,0.9-1,1.5-1C69.8,15.6,70.4,16.8,70.4,19.3L70.4,19.3z M66.7,11L64,11.2
		v0.6h0.1c0.4,0,0.6,0.1,0.7,0.2c0.2,0.2,0.2,0.6,0.2,1.3v8.6c0,0.8,0,1.4-0.1,1.5c0,0.1-0.1,0.2-0.1,0.3h0.6
		c0.4-0.6,0.6-0.9,0.8-0.9c0.1,0,0.2,0,0.3,0.1c0.3,0.3,0.5,0.4,0.6,0.5c0.5,0.3,1,0.4,1.5,0.4c1.1,0,2-0.5,2.7-1.5
		c0.5-0.9,0.8-1.9,0.8-3.1c0-1.4-0.4-2.5-1.1-3.4c-0.6-0.6-1.3-1-2.2-1c-1.1,0-1.8,0.5-2.2,1.4L66.7,11z M76,14.9v6.7
		c0,0.7,0.1,1.1,0.2,1.3c0.1,0.2,0.4,0.2,0.7,0.2h0.3v0.6h-4.1v-0.6h0.3c0.3,0,0.6-0.1,0.7-0.2c0.1-0.2,0.2-0.6,0.2-1.3v-4.5
		c0-0.7-0.1-1.1-0.2-1.3c-0.1-0.1-0.4-0.2-0.7-0.2h-0.2V15L76,14.9L76,14.9z M75.1,11.1c0.3,0,0.5,0.1,0.7,0.3
		c0.2,0.2,0.3,0.4,0.3,0.7c0,0.3-0.1,0.5-0.3,0.7c-0.2,0.2-0.4,0.3-0.7,0.3c-0.3,0-0.5-0.1-0.7-0.3c-0.2-0.2-0.3-0.4-0.3-0.7
		c0-0.3,0.1-0.5,0.3-0.7C74.6,11.2,74.8,11.1,75.1,11.1z M80.7,11v10.6c0,0.7,0.1,1.1,0.2,1.3c0.1,0.2,0.4,0.2,0.7,0.2H82v0.6h-4.1
		v-0.6h0.3c0.3,0,0.6-0.1,0.7-0.2c0.1-0.2,0.2-0.6,0.2-1.3v-8.4c0-0.7-0.1-1.1-0.2-1.3c-0.1-0.1-0.4-0.2-0.7-0.2H78v-0.6L80.7,11z
		 M84.6,18.7c0-0.6,0.1-1.2,0.2-1.6c0.3-1.1,0.8-1.6,1.5-1.6c0.6,0,1.1,0.4,1.4,1.2c0.2,0.6,0.3,1.2,0.3,2H84.6L84.6,18.7z
		 M89.2,16.7c-0.6-1.3-1.6-1.9-2.9-1.9c-0.9,0-1.6,0.3-2.2,1c-0.8,0.9-1.2,2-1.2,3.5c0,1.6,0.4,2.8,1.2,3.6c0.6,0.7,1.4,1,2.4,1
		c1.3,0,2.4-0.8,3.2-2.4l-0.6-0.3c-0.2,0.5-0.5,0.9-0.7,1.2c-0.4,0.5-1,0.8-1.6,0.8c-0.8,0-1.4-0.4-1.8-1.2
		c-0.2-0.6-0.4-1.5-0.4-2.7h5.1C89.7,18.3,89.5,17.4,89.2,16.7L89.2,16.7z M92.4,19.3v-2.6H95v2.6H92.4z"/>
</g>
</svg>
