<?xml version="1.0" encoding="utf-8"?>
<!-- Generator: Adobe Illustrator 26.0.1, SVG Export Plug-In . SVG Version: 6.00 Build 0)  -->
<svg version="1.1" id="Layer_1" xmlns="http://www.w3.org/2000/svg" xmlns:xlink="http://www.w3.org/1999/xlink" x="0px" y="0px"
	 viewBox="0 0 95 35" style="enable-background:new 0 0 95 35;" xml:space="preserve">
<style type="text/css">
	.st0{fill:#104076;}
	.st1{fill:#343741;}
</style>
<path class="st0" d="M-39.1,613.7"/>
<g>
	<path class="st1" d="M57.1,32.9V35h0.7v-1.4h2.5V35h0.7v-2.1L57.1,32.9 M57.7,32.2h2.6c0.4-0.1,0.6-0.4,0.7-0.7h-4
		C57.1,31.8,57.3,32.1,57.7,32.2 M55,35c0.3-0.1,0.5-0.4,0.6-0.7h-3.1l0-2.8l-0.7,0V35L55,35 M46.8,32.2h2.4
		c0.4-0.1,0.7-0.4,0.7-0.7h-3.8v2.1h3.2v0.7l-2.5,0c-0.4,0.1-0.7,0.4-0.9,0.7l0.2,0h3.8v-2.1h-3.1L46.8,32.2 M40.8,32.2h2.6
		c0.4-0.1,0.6-0.4,0.7-0.7h-4C40.2,31.8,40.4,32.1,40.8,32.2 M40.8,33.6h2.6c0.4-0.1,0.6-0.4,0.7-0.7h-4
		C40.2,33.2,40.4,33.5,40.8,33.6 M40.8,35h2.6c0.4-0.1,0.6-0.4,0.7-0.7h-4C40.2,34.6,40.4,34.9,40.8,35 M34,31.5
		c0.1,0.3,0.3,0.6,0.7,0.7h1.1l0.1,0V35h0.7v-2.8l0.1,0h1.1c0.4-0.1,0.6-0.4,0.7-0.7v0L34,31.5L34,31.5"/>
	<g>
		<path class="st1" d="M47.5,24.5l3.4-19.4c3.3,0,4.3,0.4,4.5,1.8c0,0,2.2-0.8,3.3-2.5c-4.3-2-8.7-2.1-8.7-2.1l-2.5,3.1l0,0L45,2.4
			c0,0-4.4,0.1-8.7,2.1C37.4,6.2,39.6,7,39.6,7c0.2-1.5,1.2-1.8,4.4-1.8L47.5,24.5"/>
		<path class="st1" d="M47.5,1.5C51,1.5,55,2,59.1,3.8c0.5-1,0.7-1.4,0.7-1.4C55.3,0.6,51.1,0,47.5,0c-3.6,0-7.8,0.6-12.3,2.4
			c0,0,0.2,0.5,0.7,1.4C40,2,44,1.5,47.5,1.5L47.5,1.5"/>
	</g>
</g>
</svg>
