<?xml version="1.0" encoding="utf-8"?>
<!-- Generator: Adobe Illustrator 26.0.1, SVG Export Plug-In . SVG Version: 6.00 Build 0)  -->
<svg version="1.1" id="Layer_1" xmlns="http://www.w3.org/2000/svg" xmlns:xlink="http://www.w3.org/1999/xlink" x="0px" y="0px"
	 viewBox="0 0 95 35" style="enable-background:new 0 0 95 35;" xml:space="preserve">
<style type="text/css">
	.st0{fill:#104076;}
	.st1{fill:#FFFFFF;}
</style>
<path class="st0" d="M-39.1,613.7"/>
<g>
	<path class="st1" d="M69,4.1c-1.6,0.7-3.3,1.2-5.1,1.4c1.8-1.1,3.2-2.8,3.9-4.9c-1.7,1-3.6,1.7-5.6,2.1C60.6,1.1,58.3,0,55.8,0
		c-4.9,0-8.8,4-8.8,8.8c0,0.7,0.1,1.4,0.2,2C39.8,10.5,33.3,7,29,1.6c-0.8,1.3-1.2,2.8-1.2,4.4c0,3.1,1.6,5.8,3.9,7.4
		c-1.4,0-2.8-0.4-4-1.1c0,0,0,0.1,0,0.1c0,4.3,3,7.9,7.1,8.7c-0.7,0.2-1.5,0.3-2.3,0.3c-0.6,0-1.1-0.1-1.7-0.2
		c1.1,3.5,4.4,6.1,8.3,6.1c-3,2.4-6.8,3.8-11,3.8c-0.7,0-1.4,0-2.1-0.1c3.9,2.5,8.6,4,13.5,4c16.3,0,25.1-13.5,25.1-25.1
		c0-0.4,0-0.8,0-1.1C66.4,7.5,67.8,5.9,69,4.1"/>
</g>
</svg>
