<?xml version="1.0" encoding="utf-8"?>
<!-- Generator: Adobe Illustrator 26.0.1, SVG Export Plug-In . SVG Version: 6.00 Build 0)  -->
<svg version="1.1" id="Layer_1" xmlns="http://www.w3.org/2000/svg" xmlns:xlink="http://www.w3.org/1999/xlink" x="0px" y="0px"
	 viewBox="0 0 95 35" style="enable-background:new 0 0 95 35;" xml:space="preserve">
<style type="text/css">
	.st0{fill-rule:evenodd;clip-rule:evenodd;fill:#FFFFFF;}
</style>
<g>
	<path class="st0" d="M8.9,14.1h0.3l0.3,0l0.3,0l0.3,0l0.3,0l0.1,0l0.1,0l0.1,0l0.1,0l0.2,0.1l0,0.6l0,0.5v0.2l0,0.1l0,0.1l0,0.2
		l0,0.1l0,0.1l0,0.1l0,0.1l0.1,0.1l0.1,0.1l0.1,0.1l0.1,0.1l0.1,0l0,0l0.1,0l0,0v0.1l0,0.2l0,0.2l0,0.2v0.2l0,0.2l0,0.3l0,0.3l0,0.2
		l0,0.2l0,0.2l0,0.1l0,0.1l-0.3,0.1L11,19.2l-0.3,0.1l-0.1,0.1l-0.1,0.1l-0.3,0.2l-0.3,0.2l-0.2,0.1l-0.2,0.1L9.5,20l-0.1,0.1
		l-0.1,0.1l-0.1,0.1L9,20.4l-0.1,0.1l-0.1,0.1l-0.1,0.1l-0.1,0.1L8.6,21l-0.1,0.1l0,0.1l0,0.1l0,0.1l0,0.1l0,0.1V22l0,0.2l0,0.2
		l0,0.1l0,0.1l0,0.1l0,0.1L8.6,23l-0.1,0l-0.1,0l-0.1,0l-0.1,0H8.2l-0.1,0H8l-0.1,0H7.7l-0.1,0H7.6l-0.1,0l-0.1,0L7.1,23l-0.1,0
		l-0.1,0l-0.1-0.1l-0.1-0.1l-0.1-0.1l-0.1-0.1l-0.1-0.1l-0.1-0.1l-0.1-0.1L6,22.1l-0.1-0.2l-0.1-0.1l-0.1-0.1l-0.1-0.2l-0.1-0.2
		l-0.1-0.2l-0.2-0.4l-0.2-0.4L5,20.1l-0.1-0.2l-0.1-0.2l0-0.1l-0.1-0.1l-0.1-0.1l0-0.1l-0.1-0.1l-0.1-0.1l-0.1-0.1l-0.1,0l-0.1,0
		l-0.1,0l-0.1,0H4l-0.1,0l-0.1,0H3.8l-0.1,0l0,0l-0.1,0l-0.1,0l0,0l-0.1,0.1l-0.1,0.1l-0.1,0.1l-0.1,0.1l-0.1,0.1l-0.1,0.1l-0.1,0.1
		L3,19.8l0,0l0,0l-0.1,0l0,0l-0.1,0H2.6l-0.1,0H2.5l-0.1,0l-0.1,0l-0.1,0l-0.1-0.1l-0.1,0l-0.1-0.1l-0.1,0l0-0.1L2,19.4l0-0.1l0-0.1
		l-0.1-0.1L1.8,19l-0.1-0.3l-0.2-0.4l0-0.1l-0.1-0.1l-0.1-0.1L1.2,18l-0.1-0.1l-0.2-0.2l-0.1-0.1l-0.1-0.1l-0.1-0.1l-0.1-0.1
		l-0.1-0.1l-0.1-0.1l-0.1-0.2l0-0.1l0-0.1l0-0.1l0-0.1l0-0.1l0-0.1h3.1v-4.3H6v1.8l0.1,0l0.1,0l0.1,0l0.1,0l0.1,0l0.1,0l0.1,0l0.1,0
		l-0.3,1.5H5.4l-0.3,1.3h0.9l-0.3,1.6l-0.1,0.2l0,0.1l0,0.2v0.3l0,0.1l0,0.1l0,0.1l0,0.1l0,0.1l0.1,0.1l0.1,0.1l0.1,0.1L6,19.9L6,20
		L6.1,20l0.1,0.1l0.1,0l0.1,0l0.1,0l0.1,0l0.1,0l0.1,0h0.2l0.2,0l0.1,0l0.2,0l0.3-0.1l0.1,0l0.1,0L8,20l0.1,0l0.1-0.1l0.1-0.1
		l0.3-1.1l0,0l-0.1,0H8.4l-0.1,0l-0.1,0H8.1l-0.1,0l0,0h0l0,0l0,0l0,0l0,0l0,0l0-0.1l0-0.1l0,0l0-0.1l0.4-1.7h0.9l0.3-1.3H8.6
		L8.9,14.1L8.9,14.1z M7.1,14.6h1.1l-0.9,4.1H6.2L7.1,14.6z M7.9,13L7.9,13L8,13l0.1,0l0.1,0l0.1,0l0.1,0l0.1,0l0,0l0.1,0.1l0,0.1
		l0,0.1l0,0.1l0,0.1l0,0.1v0.1l0,0.1l0,0.1l0,0.1l0,0.1l0,0l0,0.1l0,0l0,0.1l-0.1,0l-0.1,0l-0.1,0l-0.1,0l-0.1,0l-0.1,0H7.8l-0.1,0
		l-0.1,0l-0.1,0l-0.1,0l-0.1,0l0,0l-0.1,0l0,0l0-0.1l0-0.1l0,0l0-0.1l0-0.1l0-0.1v-0.1l0-0.1l0-0.1l0-0.1l0-0.1l0-0.1l0.1,0l0,0
		l0.1-0.1l0.1,0l0.1,0l0.1,0l0.1,0l0.1,0L7.9,13L7.9,13L7.9,13L7.9,13z M61.7,18.4L61.7,18.4l0.2-0.1l0.1-0.1l0.1,0l0,0l0,0l0.1-0.1
		l0,0l0.1-0.1l0-0.1l0-0.1l0-0.1l0-0.1l0-0.1l0-0.1l0-0.1l0-0.1l0-0.1l0-0.1l0-0.1l-0.1-0.1l-0.1-0.1l-0.1-0.1L62,17L62,17l-0.1,0
		l-0.1,0l-0.1,0l-0.1,0l-0.1,0h-0.9l-0.1,0l0,0l-0.1,0l-0.1,0l0,0l0,0.1l0,0.1l0,0.1v1.2l0,0.6v1.4l0,0.1l0,0.1l0,0l0,0.1l0,0
		l0.1,0.1l0,0l0,0l0.1,0l0.1,0l0,0l0.1,0v0.1h-2v-0.1H59l0,0l0,0l0,0l0.1,0l0,0l0,0l0-0.1l0,0l0,0l0-0.1l0,0l0-0.1V17l0-0.1l0-0.1
		l0-0.1l0-0.1l0-0.1l0,0l0-0.1l0,0l0,0l-0.1-0.1l0,0l0,0l-0.1,0v-0.1h2.9l0.2,0l0.2,0l0.2,0l0.2,0l0.1,0l0.1,0l0.1,0l0.1,0l0.1,0.1
		l0.1,0l0.1,0l0.1,0.1l0.1,0l0,0.1l0.1,0.1l0,0.1l0,0.1l0,0.1l0,0.1l0,0.1l0,0.1l0,0.1l0,0.1l0,0.1v0.1l0,0.1v0.1l0,0.1l0,0.1l0,0.1
		l0,0.1l0,0.1l0,0.1l-0.1,0.1l0,0.1l0,0.1l-0.1,0.1l-0.1,0l0,0.1l-0.1,0.1l-0.1,0.1l-0.1,0l-0.1,0l-0.1,0l-0.1,0l-0.2,0l0.1,0.1
		l0.1,0.1l0.1,0.1l0.1,0.1l0.1,0.1l0.1,0.1l0.1,0.1l0.1,0.1l0.1,0.1l0.1,0.1l0.1,0.2l0.1,0.2l0.1,0.2l0.1,0.2l0.1,0.2l0,0.1l0.1,0.1
		l0.1,0.1l0.1,0.1l0.1,0l0.1,0.1l0.1,0l0.1,0l0.1,0l0.1,0l0.1,0V21L64.2,21L64,21.1l-0.1,0l-0.1,0l-0.1,0h-0.3l-0.1,0l-0.1,0l-0.2,0
		L63,21L62.9,21l-0.1-0.1l-0.1-0.1l-0.1-0.1l-0.1-0.1l-0.1-0.1l-0.1-0.1l-0.1-0.1l-0.1-0.1l0-0.1l-0.1-0.2L62,19.7l-0.1-0.2l0-0.1
		l-0.1-0.1l-0.1-0.1l-0.1-0.1l-0.1,0l-0.1-0.1l-0.1,0l0,0l-0.1,0l0,0h-0.8v0v0l0-0.2v-0.4H61l0.2,0h0.3L61.7,18.4z M42.6,15.5v-0.2
		l0-0.1l0-0.1l0-0.1l0-0.1l0,0l0,0l0,0l0,0l-0.1-0.1l0,0l0,0l-0.1,0v-0.1h2.1v0.1l0,0h0l-0.1,0l0,0l0,0l0,0l0,0l0,0l0,0l0,0.1l0,0.1
		l0,0.1l0,0.1l0,0.1v5l0,0.1l0,0.1l0,0.1l0,0.1l0,0.1l0,0l0,0.1l0,0l0,0l0,0l0.1,0l0.1,0h0.1v0.2h-2.1v-0.2h0.1l0,0l0,0l0.1-0.1l0,0
		l0,0l0.1-0.1l0-0.1l0-0.1l0-0.1L42.6,15.5L42.6,15.5z M49.3,21.2h-0.2l-3.3-3.5v2.7l0,0.1l0,0.1l0,0.1l0,0.1l0,0.1l0,0l0,0.1l0,0
		l0,0l0.1,0.1h0.1l0.1,0l0.1,0v0.2h-1.5v-0.2l0.1,0l0,0l0.1,0l0,0l0,0l0,0l0,0l0,0l0-0.1l0,0l0,0l0-0.1l0-0.1l0-0.1l0-0.1V17l0-0.1
		l0-0.1l0-0.1l0-0.1l0-0.1l0,0l0,0l0,0l0,0l-0.1-0.1l-0.1,0l-0.1,0v-0.1h1.4l2.5,2.7v-2l0-0.1l0-0.1l0-0.1l0-0.1v-0.1l0,0l0,0l0,0
		l0,0l-0.1-0.1l-0.1,0l-0.1,0v-0.1h1.5v0.1l-0.1,0h0l-0.1,0l0,0l-0.1,0.1l0,0l0,0l0,0.1l0,0l0,0.1l0,0.1l0,0.1l0,0.1L49.3,21.2
		L49.3,21.2z M68.6,19.5l0,0.1v0.2l0,0.1l0,0.1l0,0.1l0,0.1l-0.1,0.1l-0.1,0.1l-0.1,0.1l-0.1,0.1l0,0.1l-0.1,0.1L68,20.7l-0.1,0.1
		l-0.1,0l-0.1,0.1l-0.1,0l-0.1,0l-0.1,0l-0.2,0.1l-0.1,0l-0.1,0l-0.2,0l-0.2,0l-0.2,0h-0.3l-0.2,0l-0.2,0l-0.2,0l-0.2-0.1L65.4,21
		l-0.1,0l-0.1-0.1l-0.1,0l-0.1-0.1l-0.1,0l-0.1-0.1l-0.1-0.1l-0.1-0.1l-0.1-0.1l-0.1-0.1l-0.1-0.1l-0.1-0.1l0-0.1l-0.1-0.1l0-0.1
		l0-0.1l0,0l0-0.1l0-0.1V17l0-0.1v-0.1l0-0.1l0-0.1l0-0.1l0-0.1l-0.1-0.1l0,0l0,0l0,0l0,0l0,0l0,0l-0.1,0v-0.1h2v0.1l-0.1,0l0,0l0,0
		l-0.1,0.1l0,0l0,0l-0.1,0.1l0,0.1l0,0.1l0,0.1l0,0.1v2.5l0,0.2v0.1l0,0.1l0,0.1l0,0.1l0,0l0,0.1l0.1,0.1l0.1,0.1l0.1,0.1l0.1,0.1
		l0.1,0.1l0.1,0.1l0.1,0l0.1,0l0.1,0h0.5l0.1,0l0.1,0l0.1,0l0.1-0.1l0.1-0.1l0.1-0.1l0.1,0l0,0l0,0l0,0l0-0.1l0,0l0.1-0.1l0-0.1
		l0-0.1l0-0.1l0-0.1v-0.1l0-0.1V17l0-0.1v-0.1l0-0.1l0-0.1l0-0.1l0-0.1l0,0l0-0.1l0,0l0,0l-0.1-0.1l0,0l0,0l-0.1,0v-0.1H69v0.1
		l-0.1,0h0l0,0l0,0l-0.1,0.1l0,0l0,0l0,0.1l0,0l0,0.1l0,0.1l0,0.1l0,0.1L68.6,19.5L68.6,19.5z M56,17.2v-0.1l0-0.1l0-0.1l0,0l0,0
		l-0.1,0l-0.1,0h-0.4l-0.1,0h-0.1l-0.1,0l-0.1,0l-0.1,0l-0.1,0l-0.1,0l-0.1,0l-0.1,0l-0.1,0.1l-0.1,0.1l-0.1,0.1l-0.2,0.2l-0.1-0.1
		l0.4-1.1h4l0.4,1.1l-0.1,0.1l-0.2-0.2l-0.1-0.1l-0.1-0.1L58.4,17l-0.1,0l-0.1,0l-0.1,0l-0.1,0l-0.1,0l-0.1,0l-0.1,0h-0.1l-0.1,0
		h-0.4l-0.1,0l-0.1,0v0l0,0l0,0l0,0l0,0.1l0,0.1v3.4l0,0.1l0,0.1l0,0l0,0.1l0,0l0,0l0.1,0.1l0.1,0l0,0l0.1,0v0.2h-2v-0.2l0.1,0
		l0.1,0l0.1,0l0,0l0,0l0,0l0,0l0,0l0,0l0-0.1l0-0.1v-0.1l0-0.1L56,17.2L56,17.2z M52.2,16.2l0.2,0h0.1l0.1,0l0.2,0l0.1,0l0.1,0
		l0.1,0l0.1,0l0.1,0l0,0l0,0l0,0l0-0.1l0,0l0,0l0.1,0l0.4,1.1l-0.1,0.1l-0.1-0.1l-0.1-0.1l-0.1-0.1l-0.1-0.1l-0.1-0.1l-0.1,0
		L53.2,17l-0.1-0.1l-0.1,0l-0.1-0.1l-0.1,0l-0.1,0l-0.1,0l-0.2,0l-0.1,0h-0.1l-0.1,0l-0.2,0l-0.2,0l-0.1,0l-0.1,0l-0.1,0l0,0l0,0
		L51.4,17l0,0l0,0l0,0.1l0,0.1l0,0.1v0.2l0,0.1l0,0.1l0,0l0,0l0,0l0,0l0.1,0.1l0.1,0.1l0.1,0l0.1,0l0.1,0.1l0.2,0.1l0.3,0.1l0.3,0.1
		l0.3,0.1l0.2,0.1l0.1,0l0.1,0.1l0.1,0.1l0.1,0.1l0.1,0.1l0.1,0.1l0.1,0.1l0.1,0.1l0,0.1l0,0.1l0.1,0.1l0,0.1l0,0.1l0,0.1l0,0.1v0.3
		l0,0.1l0,0.1l0,0.1l0,0.1l-0.1,0.2L54,20.4l0,0.1l-0.1,0.1l-0.1,0.1l-0.1,0l-0.1,0.1l-0.1,0.1l-0.1,0.1l-0.1,0.1l-0.1,0L53.2,21
		l-0.1,0L53,21l-0.2,0.1h-0.1l-0.1,0l-0.2,0h-0.4l-0.2,0l-0.2,0l-0.2,0l-0.2,0l-0.2,0L50.8,21h-0.1l0,0l0,0l0,0l0,0l0,0.1l0,0h0
		l-0.1,0l-0.1,0L50,19.7l0.2-0.1l0.1,0.1l0.1,0.1l0.1,0.1l0.1,0.1l0.1,0.1l0.1,0.1l0.1,0.1l0.1,0.1l0.1,0.1l0.1,0.1l0.1,0.1l0.1,0
		l0.2,0l0.2,0l0.2,0h0.3l0.1,0l0.1,0l0.1,0l0.1,0l0.1,0l0.1,0l0.1,0l0,0l0,0l0,0l0-0.1l0-0.1l0-0.1v-0.1l0-0.1v-0.1l0-0.1v0l0-0.1
		L53,19.7l0-0.1l0,0l0,0l-0.1-0.1l-0.1-0.1l-0.1,0l-0.1-0.1l-0.1,0l-0.2-0.1l-0.3-0.1l-0.3-0.1L51.4,19l-0.1-0.1l-0.1-0.1L51,18.8
		l-0.1-0.1l-0.1-0.1l-0.1-0.1l-0.1-0.1l-0.1-0.1l0-0.1l0-0.1l-0.1-0.1l-0.1-0.1l0-0.1l0-0.1v-0.1l0-0.1l0-0.1v-0.2l0-0.1l0-0.1
		l0-0.1l0-0.1l0-0.1l0-0.1l0-0.1l0-0.1l0-0.1l0.1-0.1l0.1-0.1l0.1-0.1l0.1-0.1l0.1-0.1l0.1,0l0.1,0l0.1,0l0.1,0l0.2-0.1l0.2-0.1
		l0.1,0l0.1,0l0.2,0l0.2,0L52.2,16.2z M75.2,20.3v0.2l0,0.1l0,0.1l0,0.1l0,0.1l0,0l0,0l0,0l0,0l0.1,0l0,0l0.1,0l0.1,0v0.2h-2v-0.2
		l0.1,0h0l0.1,0l0.1-0.1l0,0l0,0l0.1-0.1l0-0.1l0-0.1l0-0.1l0-0.1V18l-1.8,3.2h-0.1l-1.8-3.2v2.5l0,0.1l0,0.1l0,0.1l0,0.1l0,0l0,0
		l0,0l0,0l0.1,0l0,0l0.1,0l0.1,0v0.2h-1.5v-0.2l0.1,0h0l0,0l0.1-0.1l0,0l0,0l0.1-0.1l0-0.1l0-0.1l0-0.1l0-0.1v-3.5l0,0l0-0.1v0l0,0
		l0-0.1l0-0.1l0,0l0,0l0,0l0,0l0,0l0,0l0,0l0,0h-0.1v-0.2h1.6l1.6,3.2l1.8-3.2h1.3v0.2h-0.1l0,0l0,0l0,0l0,0l-0.1,0.1l0,0l0,0l0,0.1
		l0,0.1l0,0.1l0,0.1L75.2,20.3L75.2,20.3z M85.5,21.2h-0.2L82,17.7v2.8l0,0.1l0,0.1l0,0.1l0,0.1l0,0l0,0l0,0l0,0l0,0l0,0l0,0l0,0
		l0.1,0v0.2h-1.5v-0.2l0.1,0l0,0l0,0l0.1-0.1l0,0l0,0l0.1-0.1l0-0.1l0-0.1l0-0.1v-3.6l0-0.1l0-0.1l0-0.1l0-0.1l0,0l0,0l0,0l0,0l0,0
		l0,0l-0.1,0l-0.1,0v-0.1h1.4l2.5,2.7v-2l0-0.1v-0.1l0-0.1l0-0.1l0-0.1l0-0.1l0,0l0-0.1l0,0l0,0l-0.1-0.1l0,0l-0.1,0l-0.1,0v-0.1
		h1.5v0.1l0,0h0l-0.1,0l0,0l-0.1,0.1l0,0l0,0l0,0.1l0,0l0,0.1l0,0.1l0,0.1l0,0.1L85.5,21.2L85.5,21.2z M76.3,21.1v-0.2h0.1l0.1,0
		l0.1,0l0.1-0.1l0,0l0,0l0,0l0,0l0-0.1l0-0.1l0-0.1v-3.6l0-0.1l0-0.1l0-0.1l0-0.1l0,0l0,0l0,0l0,0l0,0l-0.1,0l-0.1,0h-0.1v-0.2h3.8
		l0.4,1l-0.1,0l-0.1-0.1l-0.1-0.1l-0.1-0.1l-0.1-0.1L79.9,17l-0.1,0l-0.1,0l-0.1,0l-0.1,0l-0.1,0l-0.1,0l-0.1,0h-0.1l-0.2,0h-0.9
		l-0.1,0H78l0,0l-0.1,0l-0.1,0l0,0l0,0l0,0.1l0,0.1v1.1h1.4l0.1,0l0.1,0l0,0l0,0l0.1,0l0,0l0,0l0-0.1l0-0.1h0.1v1.3h-0.1l0-0.1l0,0
		l0,0l0,0l0,0l0,0l0,0l0,0l0,0l-0.1,0l-0.1,0l-0.1,0l-0.2,0h-1.2v1.4l0,0.1v0l0,0l0,0l0,0l0,0l0,0l0.1,0l0.1,0h1.4l0.2,0l0.2,0
		l0.1,0l0.1,0l0.1,0l0.1,0l0.1,0l0.1-0.1l0.1-0.1l0.1-0.1l0.1-0.1l0.1-0.1l0.1,0l-0.4,1L76.3,21.1L76.3,21.1z M87.8,17.2l0-0.1
		l0-0.1l0-0.1l0,0l0,0l-0.1,0l-0.1,0h-0.4l-0.1,0H87l-0.1,0l-0.1,0l-0.1,0l-0.1,0l-0.1,0l-0.1,0l-0.1,0l-0.1,0.1l-0.1,0.1l-0.1,0.1
		l-0.2,0.2L86,17.4l0.4-1.1h4l0.4,1.1l-0.1,0.1l-0.2-0.2l-0.1-0.1l-0.1-0.1l0-0.1l-0.1,0l-0.1,0l-0.1,0l-0.1,0l-0.1,0l-0.1,0l-0.1,0
		h-0.1l-0.1,0h-0.4l-0.1,0l-0.1,0l0,0l0,0l0,0l0,0l0,0.1l0,0.1v3.3l0,0.1l0,0.1l0,0.1l0,0l0,0l0,0.1l0,0l0,0l0.1,0.1l0.1,0l0.1,0
		l0.1,0v0.2h-2v-0.2l0.1,0l0.1,0l0,0l0,0l0,0l0,0l0,0l0,0l0,0l0-0.1l0-0.1l0-0.1v-0.1l0-0.1L87.8,17.2z M92.9,16.2l0.2,0h0.1l0.1,0
		l0.2,0l0.2,0l0.1,0l0.1,0l0.1,0l0.1,0l0,0l0,0h0l0,0l0-0.1v0l0,0l0.1,0l0.4,1.1l-0.1,0.1l-0.1-0.1l-0.1-0.1l-0.1-0.1l-0.1-0.1
		l-0.1-0.1L94,17L94,17l-0.1-0.1l-0.1,0l-0.1-0.1l-0.1,0l-0.1,0l-0.1,0l-0.1,0l-0.2,0h-0.1l-0.1,0l-0.2,0l-0.2,0l-0.1,0l-0.1,0
		l-0.1,0l0,0l0,0L92.2,17l0,0l0,0l0,0.1l0,0.1l0,0.1v0.1l0,0.1l0,0.1l0,0.1l0,0l0,0l0,0l0,0l0.1,0.1l0.1,0.1l0.1,0l0.1,0l0.1,0.1
		L93,18l0.3,0.1l0.3,0.1l0.3,0.1l0.1,0.1l0.1,0l0.1,0.1l0.1,0.1l0.1,0.1l0.1,0.1l0.1,0.1l0.1,0.1l0.1,0.1l0,0.1l0,0.1l0.1,0.1l0,0.1
		l0,0.1l0,0.1l0,0.1v0.1l0,0.1l0,0.2l0,0.1l0,0.1l0,0.1l0,0.1l-0.1,0.2l-0.1,0.1l0,0.1l-0.1,0.1l0,0.1l-0.1,0l-0.1,0.1l-0.1,0.1
		l-0.1,0.1l-0.1,0.1l-0.1,0L94,21l-0.1,0l-0.1,0l-0.2,0.1h-0.1l-0.1,0l-0.2,0h-0.5l-0.2,0l-0.2,0l-0.2,0l-0.2,0l-0.1,0L91.6,21h-0.1
		l0,0l0,0l0,0l0,0l0,0.1l0,0h0l-0.1,0l-0.1,0l-0.5-1.4l0.2-0.1l0.1,0.1l0.1,0.1l0.1,0.1l0.1,0.1l0.1,0.1l0.1,0.1l0.1,0.1l0.1,0.1
		l0.1,0.1l0.1,0.1l0.1,0.1l0.1,0l0.1,0l0.2,0l0.2,0H93l0.1,0l0.1,0l0.1,0l0.1,0l0.1,0l0.1,0l0.1,0l0,0l0,0l0.1,0l0-0.1l0-0.1l0-0.1
		l0-0.1v-0.3l0-0.1l0-0.1l-0.1-0.1l0,0l0,0l-0.1-0.1l-0.1-0.1l-0.1,0l-0.1-0.1l-0.1,0L93,19.2l-0.3-0.1l-0.3-0.1L92.2,19L92,18.9
		l-0.1-0.1l-0.1-0.1l-0.1-0.1l-0.1-0.1l-0.1-0.1l-0.1-0.1l-0.1-0.1l0-0.1l-0.1-0.1l-0.1-0.1l-0.1-0.1l0-0.1l0-0.1l0-0.1l0-0.1l0-0.1
		v-0.2l0-0.1l0-0.1l0-0.1l0-0.1l0-0.1l0-0.1l0-0.1l0.1-0.1l0-0.1l0.1-0.1l0.1-0.1l0.1-0.1l0.1-0.1l0.1-0.1l0.1,0l0.1,0l0.1,0l0.1,0
		l0.2-0.1l0.2-0.1l0.1,0l0.1,0l0.2,0l0.2,0L92.9,16.2z"/>
	<g>
		<path class="st0" d="M34.3,20.9L34.3,20.9l-0.2-0.1L34,20.7L34,20.7l-0.1-0.1l0-0.1l0,0l0-0.1L32,16.3h-0.9L30,19.1l-0.7,1.7
			L29,20.9l0.1,0.2h1.2v-0.1h-0.1l0,0h0l0,0l0,0l0,0l0,0l0,0l0-0.1l0,0l0,0v-0.1l0-0.1l0-0.1l0.3-0.7h2l0.3,0.6l0,0.1l0,0.1l0,0.1
			v0.1l0,0l0,0l0,0.1l0,0l-0.1,0.1l-0.1,0l-0.1,0h-0.1v0.1h2.1v-0.1L34.3,20.9z M30.6,19.1l0.8-2l0.8,2L30.6,19.1z M36.5,16.2h0.2
			l0.1,0l0.1,0l0.2,0l0.1,0l0.1,0l0.1,0l0.1,0h0.1l0,0v0l0,0l0-0.1l0,0h0l0.1,0l0.4,1.2l-0.1,0L38,17.3l-0.1-0.1l-0.1-0.1l-0.1,0
			l-0.1-0.1l-0.1-0.1L37.5,17l-0.1,0l-0.1-0.1l-0.1,0l-0.1,0l-0.1,0l-0.1,0l-0.2,0h-0.3l-0.2,0l-0.2,0l-0.1,0l-0.1,0l-0.1,0.1l0,0
			l0,0l0,0.1l0,0l0,0l0,0.1l0,0.1l0,0.1v0.2l0,0.1l0,0.1l0,0l0,0l0,0l0,0l0.1,0.1l0.1,0l0.1,0.1l0.1,0l0.1,0l0.3,0.1l0.3,0.1
			l0.3,0.1l0.3,0.1l0.2,0l0.1,0.1l0.1,0.1l0.1,0.1l0.1,0.1l0.1,0.1l0.1,0.1l0.1,0.1l0.1,0.1l0,0.1l0,0.1l0.1,0.1l0,0.1l0,0.1l0,0.1
			l0,0.1v0.3l0,0.1l0,0.1l0,0.1l0,0.1l-0.1,0.2l-0.1,0.1l0,0.1l-0.1,0.1l-0.1,0.1l-0.1,0.1l-0.1,0.1l-0.1,0l-0.1,0.1l-0.1,0.1
			l-0.1,0L37.6,21l-0.1,0l-0.1,0l-0.2,0.1l-0.1,0l-0.1,0l-0.2,0l-0.3,0h-0.2l-0.2,0l-0.2,0l-0.2,0l-0.2,0l-0.2,0L35.2,21h-0.1l0,0
			l0,0l0,0l0,0.1l0,0v0l-0.1,0l-0.1,0l-0.5-1.4l0.2-0.1l0.1,0.1l0.1,0.1l0.1,0.1l0.1,0.1l0.1,0.1l0.1,0.1l0.1,0.1l0.1,0.1l0.1,0.1
			l0.1,0.1l0.1,0.1l0.2,0l0.1,0l0.2,0l0.2,0l0.2,0l0.2,0l0.1,0l0.1,0l0.1,0l0.1,0l0.1,0l0.1-0.1l0.1,0l0,0l0,0l0,0l0-0.1l0-0.1
			l0-0.1v-0.1l0-0.1v-0.1l0-0.1v-0.1l0,0l0-0.1l-0.1-0.1l0,0l0,0l-0.1-0.1l-0.1-0.1l-0.1,0l-0.1-0.1l-0.1-0.1l-0.2-0.1l-0.3-0.1
			L36,19.1L35.8,19l-0.1,0l-0.1-0.1l-0.1,0l-0.1-0.1l-0.1-0.1l-0.1,0l-0.1,0l-0.1-0.1l-0.1-0.1l0-0.1l0-0.1l-0.1-0.1l-0.1-0.1l0-0.1
			l0-0.1v-0.1l0-0.1l0-0.1v-0.2l0-0.1l0-0.1l0-0.1l0-0.1l0-0.1l0-0.1l0-0.1l0-0.1l0-0.1l0.1-0.1l0.1-0.1l0.1,0l0.1-0.1l0.1-0.1
			l0.1,0l0.1-0.1l0.1,0l0.1,0l0.2-0.1l0.2-0.1l0.1,0l0.1,0l0.2,0l0.2,0L36.5,16.2L36.5,16.2z M19.6,21.1v-0.1l0.1,0h0.1l0.1,0
			l0.1-0.1l0,0l0,0l0,0l0,0l0-0.1l0-0.1l0-0.1l0-0.1V17l0-0.1l0-0.1l0-0.1l0,0l0,0l0,0l0,0l0,0l-0.1,0l0,0l-0.1,0h-0.1v-0.2h3.8
			l0.4,1l-0.1,0.1l-0.1-0.1l-0.1-0.1l-0.1-0.1l-0.1-0.1L23.2,17l-0.1,0L23,17l-0.1,0l-0.1,0l-0.1,0l-0.1,0l-0.1,0l-0.1,0h-1.2l0,0h0
			l-0.1,0l0,0l0,0l0,0l0,0.1l0,0.1l0,0.1v1h1.3l0.2,0h0.1l0.1,0l0.1,0l0,0l0.1,0l0,0l0,0l0,0l0,0l0-0.1l0-0.1h0.1v1.3H23l0-0.1v0
			l0,0l0,0l0,0l0,0l0,0l0,0l0,0l-0.1,0l-0.1,0l-0.1,0l-0.2,0h-1.3v1.3l0,0.1l0,0.1l0,0l0,0l0,0l0,0l0,0l0,0l0.1,0l0.1,0h1.4l0.2,0
			l0.2,0l0.1,0l0.1,0l0.1,0l0.1,0l0.1,0l0.1-0.1l0.1-0.1l0.1-0.1l0.1-0.1l0.1-0.1l0.1,0l-0.4,1L19.6,21.1L19.6,21.1z"/>
		<path class="st0" d="M18.3,20.3v0.2l0,0.1l0,0.1l0,0.1l0,0.1l0,0l0,0l0,0l0,0l0,0l0.1,0l0.1,0l0,0h0.1v0.1h-2.1v-0.1l0.1,0l0,0
			l0,0l0.1,0l0,0l0,0l0,0l0-0.1l0-0.1l0-0.1l0-0.1v-0.1l0-0.1v-4.7l0-0.1v-0.1l0,0l0,0h0l0,0l0,0l0,0l-0.1,0h-0.7l-0.2,0l-0.3,0
			l-0.1,0l-0.1,0l-0.1,0l-0.1,0l-0.1,0l-0.1,0L15,15.7l0,0l0,0l0,0l0,0l-0.1,0.1l-0.1-0.1l0.4-1.1h5.3l0.4,1.1l-0.1,0.1l0,0l0,0
			l-0.1-0.1l-0.1-0.1l0,0l-0.1,0l0,0l0,0l-0.1,0l-0.1,0l-0.1,0l-0.2,0l-0.3,0l-0.1,0h-0.7l-0.1,0l-0.1,0l0,0h0l0,0l0,0l0,0.1
			L18.3,20.3L18.3,20.3z M27.2,18.6l-1.1,0.3L24.7,17l-0.1-0.1l-0.1-0.1l-0.1-0.1l-0.1-0.1l-0.1-0.1l0,0l0,0l-0.1,0l-0.1,0H24v-0.1
			h2.3v0.1h-0.1l-0.1,0l0,0l0,0l0,0l0,0l0,0l0,0v0l0,0l0,0.1v0.1l0,0.1l0,0.1l0,0.1l0.7,0.9l0.8-1l0.1-0.1l0-0.1l0,0l0,0l0,0v0l0,0
			l0,0l0,0l0,0l0,0l0,0h-0.1v-0.1h1.8v0.1l-0.1,0l-0.1,0l-0.1,0.1l-0.1,0l-0.1,0.1l-0.1,0.1l0,0.1l-0.1,0.1l0,0.1L28.4,17L27.2,18.6
			z"/>
		<path class="st0" d="M27.3,18.5l0.3,0.5l0.1,0.3l0.2,0.2l0.1,0.2l0.2,0.2l0.2,0.3l0.2,0.3l0.1,0.1l0.1,0.1l0,0.1l0.2,0.1l0.3,0.3
			v0l0,0l0,0h-2.1v-0.1h0.1l0.1,0l0,0l0,0l0,0l0,0l0-0.1l0,0l0,0v-0.1l0-0.1l0-0.1l0-0.1l-0.1-0.1l-0.7-1l-0.8,1.1l0,0.1l0,0.1
			l0,0.1l0,0v0.1l0,0.1l0,0l0,0l0,0l0.1,0l0,0h0.1v0.1H24v-0.1h0.1l0.1,0l0.1,0l0.1-0.1l0.1-0.1l0.1-0.1l0.1-0.1l0.1-0.1l0.1-0.1
			l1.2-1.6L27.3,18.5z"/>
	</g>
</g>
</svg>
