<?xml version="1.0" encoding="utf-8"?>
<!-- Generator: Adobe Illustrator 26.0.1, SVG Export Plug-In . SVG Version: 6.00 Build 0)  -->
<svg version="1.1" id="Layer_1" xmlns="http://www.w3.org/2000/svg" xmlns:xlink="http://www.w3.org/1999/xlink" x="0px" y="0px"
	 viewBox="0 0 95 35" style="enable-background:new 0 0 95 35;" xml:space="preserve">
<style type="text/css">
	.st0{fill:#CCCCCC;}
</style>
<g>
	<path class="st0" d="M4.8,31L4.8,31c1,0.3,2,0.5,3,0.5c4.5,0,7.7-3.3,7.7-9.5V3.4l1.7-0.8v19.7c0,6.4-3.3,10.1-7.9,10.1
		C7.7,32.4,6.1,31.9,4.8,31z M2.8,29.1L2.8,29.1c1,0.4,2.1,0.6,3,0.6c3.8,0,6.3-2.4,6.3-7.8V4.8L13.9,4v18.1c0,5.6-2.9,8.5-6.8,8.5
		C5.5,30.6,4,30.1,2.8,29.1z M1.6,27.4L1.6,27.4c0.8,0.3,1.7,0.4,2.5,0.4c3,0,4.8-1.6,4.8-5.9V6.3l1.7-0.8v16.3
		c0,4.8-2.2,6.9-5.3,6.9C3.9,28.7,2.7,28.3,1.6,27.4z M7.3,22.5V6.9L0,10.2v12.6c0,2.4,1.5,4,3.8,4S7.3,25.2,7.3,22.5z"/>
	<path class="st0" d="M26.6,6.9v5.8c0,2.1,1.3,3.8,3.7,3.8c2.1,0,3.6-1.5,3.6-3.9V7.1c0-0.6,0.5-1.1,1.1-1.2h0l0.2,0V5.3h-3.6v0.5
		l0.2,0c0.6,0,1.1,0.5,1.1,1.2v0v5.4c0,1.8-0.9,2.8-2.4,2.8s-2.3-1.1-2.3-2.9V6.9c0-0.6,0.3-1,1-1l0.2,0V5.3h-4.1v0.5l0.2,0
		C26.3,5.9,26.6,6.3,26.6,6.9z"/>
	<path class="st0" d="M31.5,19.3l0.2,0c0.6,0,1,0.3,1,0.9v3.4h-4.1v-3.4c0-0.7,0.4-0.9,1-0.9l0.2,0v-0.5h-4.1v0.5l0.2,0
		c0.6,0,1,0.3,1,0.9v8c0,0.7-0.4,0.9-1,0.9l-0.2,0v0.5H30v-0.5l-0.2,0c-0.6,0-1-0.3-1-0.9v-3.7h4.1v3.7c0,0.7-0.4,0.9-1,0.9l-0.2,0
		v0.5h4.1v-0.5l-0.2,0c-0.6,0-1-0.3-1-0.9v-8c0-0.7,0.4-0.9,1-0.9l0.2,0v-0.5h-4.1L31.5,19.3L31.5,19.3z"/>
	<path class="st0" d="M35.2,8.5v0.5l0.3,0c0.5,0,0.8,0.3,0.8,0.9v4.8c0,0.7-0.3,0.9-0.9,0.9l-0.2,0v0.5h3.7v-0.5l-0.2,0
		c-0.5,0-0.9-0.3-0.9-0.9v-2.6c0-1.9,0.8-3,1.8-3c0.7,0,1.2,0.5,1.2,1.5v4.1c0,0.7-0.3,0.9-0.9,0.9l-0.2,0v0.5h3.7v-0.5l-0.2,0
		c-0.5,0-0.9-0.3-0.9-0.9v-4.3c0-1.2-0.8-2.2-2.2-2.2c-1.1,0-2,0.6-2.3,1.7V8.3L35.2,8.5z"/>
	<path class="st0" d="M56.6,16.4c1.6,0,2.5-1.1,2.8-2.3l-0.7-0.2c-0.3,0.8-0.9,1.5-2,1.5c-1.3,0-2.1-1.2-2.1-3.1h4.9v-0.4
		c0-2-1.2-3.6-3.1-3.6c-2,0-3.4,2-3.4,4.1S54.4,16.4,56.6,16.4z M56.5,9.1c0.9,0,1.4,0.8,1.5,2.4h-3.2C54.9,10,55.5,9.1,56.5,9.1
		L56.5,9.1z"/>
	<path class="st0" d="M49,14.5c0,1.2,0.7,1.9,1.9,1.9c1.1,0,1.8-0.8,2.1-1.9l-0.6-0.2c-0.2,0.7-0.6,1.1-1.1,1.1
		c-0.7,0-0.9-0.5-0.9-1.1V9.3h2.1V8.5h-2.1V6.1h-0.8c-0.3,1.8-1.2,2.5-2.2,2.7v0.5h1.4L49,14.5z"/>
	<path class="st0" d="M45.7,7.1c0.6,0,1-0.5,1-1.1c0-0.5-0.4-1-1-1c-0.6,0-1,0.5-1,1C44.7,6.6,45.1,7.1,45.7,7.1
		C45.7,7.1,45.7,7.1,45.7,7.1z"/>
	<path class="st0" d="M45,10v4.8c0,0.7-0.3,0.9-0.9,0.9l-0.2,0v0.5h3.7v-0.5l-0.2,0c-0.5,0-0.9-0.3-0.9-0.9V8.3l-2.7,0.2v0.5l0.4,0
		C44.7,9.1,45,9.3,45,10z"/>
	<path class="st0" d="M63.6,16.4c1,0,1.8-0.5,2.2-1.4v1.3h2.6v-0.5l-0.2,0c-0.5,0-0.9-0.3-0.9-0.9V5.1l-2.7,0.2v0.5l0.3,0
		c0.5,0,0.8,0.3,0.8,0.9v2.8c-0.3-0.9-1.1-1.4-2.2-1.4c-2,0-3.2,2-3.2,4.1S61.5,16.4,63.6,16.4z M63.8,9.1c1.2,0,1.9,1.2,1.9,3.2
		s-0.8,3.2-1.9,3.2c-1.1,0-1.8-1.2-1.8-3.2S62.8,9.1,63.8,9.1z"/>
	<path class="st0" d="M86.9,21.7c-0.9,0-1.7,0.6-2,1.7v-1.6l-2.6,0.2v0.5l0.3,0c0.5,0,0.8,0.3,0.8,0.9v4.8c0,0.7-0.3,0.9-0.9,0.9
		l-0.2,0v0.5h3.7v-0.5l-0.2,0c-0.5,0-0.9-0.3-0.9-0.9v-2.6c0-2,0.9-3.2,1.9-3.2c0.2,0,0.4,0.1,0.5,0.2c-0.3,0.1-0.4,0.4-0.4,0.7
		c0,0.5,0.4,0.8,0.8,0.8c0.4,0,0.8-0.4,0.8-0.9C88.5,22.3,87.7,21.7,86.9,21.7z"/>
	<path class="st0" d="M91.9,21.6c-2,0-3.4,2-3.4,4.1s1.3,4.1,3.6,4.1c1.6,0,2.5-1.1,2.8-2.3l-0.7-0.2c-0.3,0.8-0.9,1.5-2,1.5
		c-1.3,0-2.1-1.2-2.1-3.1H95v-0.4C95,23.3,93.8,21.6,91.9,21.6z M90.2,25c0.2-1.5,0.8-2.4,1.7-2.4c0.9,0,1.4,0.8,1.5,2.4H90.2z"/>
	<path class="st0" d="M80.9,28.4v-4.1c0-1.7-1-2.7-2.8-2.7c-1.5,0-2.9,1-2.9,2.1c0,0.5,0.4,0.8,0.8,0.8c0.5,0,0.8-0.4,0.8-0.8
		c0-0.3-0.2-0.6-0.4-0.7c0.3-0.4,0.8-0.6,1.4-0.6c1,0,1.5,0.7,1.5,1.9v0.4l-2.3,1c-1.6,0.6-2.1,1.2-2.1,2.2c0,1.2,0.8,1.9,2.2,1.9
		c1,0,1.9-0.6,2.2-1.5v0.2c0,0.8,0.6,1.3,1.5,1.3c0.3,0,0.7,0,1-0.1v-0.5C81.2,29.2,80.9,29,80.9,28.4z M79.3,26.6
		c-0.1,1.4-0.8,2.3-1.7,2.3c-0.7,0-1.1-0.5-1.1-1.2c0-0.6,0.3-1.1,1-1.4l1.9-0.8L79.3,26.6z"/>
	<path class="st0" d="M58.9,27.7c-0.2,0.7-0.6,1.1-1.1,1.1c-0.7,0-0.9-0.5-0.9-1.1v-5.1h2.1v-0.8H57v-2.4h-0.8
		c-0.3,1.8-1.2,2.5-2.2,2.7v0.5h1.4v5.2c0,1.2,0.7,1.9,1.9,1.9c1.1,0,1.8-0.8,2.1-1.9L58.9,27.7z"/>
	<path class="st0" d="M49,28.4v-4.1c0-1.7-1-2.7-2.8-2.7c-1.5,0-2.9,1-2.9,2.1c0,0.5,0.4,0.8,0.8,0.8s0.8-0.4,0.8-0.8
		c0-0.3-0.2-0.6-0.4-0.7c0.3-0.4,0.8-0.6,1.4-0.6c1,0,1.5,0.7,1.5,1.9v0.4l-2.3,1c-1.6,0.6-2.1,1.2-2.1,2.2c0,1.2,0.8,1.9,2.2,1.9
		c1,0,1.9-0.6,2.2-1.5v0.2c0,0.8,0.6,1.3,1.5,1.3c0.3,0,0.7,0,1-0.1v-0.5C49.3,29.2,49,29,49,28.4z M47.5,26.6
		c-0.1,1.4-0.8,2.3-1.7,2.3c-0.7,0-1.1-0.5-1.1-1.2c0-0.6,0.3-1.1,1-1.4l1.9-0.8L47.5,26.6z"/>
	<path class="st0" d="M71.8,28.8c-1.3,0-2.1-1.2-2.1-3.1c0-1.9,0.8-3.2,2.1-3.2c0.6,0,1,0.2,1.3,0.5c-0.2,0.2-0.4,0.4-0.4,0.7
		c0,0.5,0.4,0.8,0.8,0.8c0.5,0,0.8-0.4,0.8-0.9c0-0.9-0.9-2.1-2.6-2.1c-2.3,0-3.7,2-3.7,4.1s1.3,4.1,3.6,4.1c1.6,0,2.4-1,2.8-2.2
		l-0.7-0.2C73.4,28.2,72.9,28.8,71.8,28.8z"/>
	<path class="st0" d="M53,28.2v-9.7l-2.7,0.2v0.5l0.3,0c0.5,0,0.8,0.3,0.8,0.9v8c0,0.7-0.3,0.9-0.9,0.9l-0.2,0v0.5H54v-0.5l-0.2,0
		C53.3,29.1,53,28.9,53,28.2z"/>
	<path class="st0" d="M66.7,28.2v-4.3c0-1.2-0.8-2.2-2.2-2.2c-1.1,0-2,0.6-2.3,1.7v-4.9l-2.7,0.2v0.5l0.3,0c0.5,0,0.8,0.3,0.8,0.9v8
		c0,0.7-0.3,0.9-0.9,0.9l-0.2,0v0.5h3.7v-0.5l-0.2,0c-0.5,0-0.9-0.3-0.9-0.9v-2.6c0-1.9,0.8-3,1.8-3c0.7,0,1.2,0.5,1.2,1.5v4.1
		c0,0.7-0.3,0.9-0.9,0.9l-0.2,0v0.5h3.7v-0.5l-0.2,0C67,29.1,66.7,28.9,66.7,28.2z"/>
	<path class="st0" d="M39.4,21.6c-2,0-3.4,2-3.4,4.1s1.3,4.1,3.6,4.1c1.6,0,2.5-1.1,2.8-2.3l-0.7-0.2c-0.3,0.8-0.9,1.5-2,1.5
		c-1.3,0-2.1-1.2-2.1-3.1h4.9v-0.4C42.5,23.3,41.3,21.6,39.4,21.6z M37.7,25c0.2-1.5,0.8-2.4,1.7-2.4c0.9,0,1.4,0.8,1.5,2.4H37.7z"
		/>
</g>
</svg>
