<?xml version="1.0" encoding="utf-8"?>
<!-- Generator: Adobe Illustrator 26.0.1, SVG Export Plug-In . SVG Version: 6.00 Build 0)  -->
<svg version="1.1" id="Layer_1" xmlns="http://www.w3.org/2000/svg" xmlns:xlink="http://www.w3.org/1999/xlink" x="0px" y="0px"
	 viewBox="0 0 95 35" style="enable-background:new 0 0 95 35;" xml:space="preserve">
<style type="text/css">
	.st0{fill-rule:evenodd;clip-rule:evenodd;fill:#CCCCCC;}
	.st1{fill:#CCCCCC;}
</style>
<path class="st0" d="M60.1,15.9h-2.3v14.8c0.4-0.2,0.8-0.5,1.2-0.9c0.4-0.3,0.8-0.7,1.1-1.1l0,0V15.9z"/>
<g>
	<polygon class="st1" points="45.2,11.5 45.2,11.5 45.2,11.5 	"/>
	<polygon class="st1" points="41.7,11.8 42.5,11.8 42.1,10.6 	"/>
	<path class="st1" d="M51.2,6.6c0-0.5-0.4-0.9-0.9-0.9c-0.5,0-0.9,0.4-0.9,0.9c0,0.5,0.4,0.9,0.9,0.9C50.8,7.5,51.2,7.1,51.2,6.6z"
		/>
	<path class="st1" d="M61.2,16.5c-0.7-1.7-1.3-3.2-1.3-4.9c0-1.7,0.7-3.4,1.9-4.6L62,6.8L55.7,0l-0.2,0.1c-2.4,1.3-5.2,2.1-8,2.1
		c-2.8,0-5.5-0.7-8-2.1L39.3,0L33,6.8L33.2,7c1.2,1.2,1.9,2.9,1.9,4.6c0,1.7-0.6,3.3-1.3,4.9c-0.8,2-1.7,4-1.7,6.6
		c0,2.8,1.2,5.5,3.4,7.3c2.6,2.2,5.2,2.4,7.4,2.5c1.9,0.1,3.5,0.2,4.3,1.7l0.3,0.4l0.3-0.4c0.8-1.4,2.4-1.6,4.3-1.7
		c2.1-0.1,4.8-0.3,7.4-2.5c2.1-1.8,3.4-4.5,3.4-7.3C62.8,20.5,62,18.5,61.2,16.5z M34.9,28.7L34.9,28.7c-1.3-1.5-2-3.5-2-5.6
		c0-2.3,0.7-4.2,1.5-6c0.2-0.4,0.3-0.8,0.5-1.2h0.1V28.7z M52.8,4.8h1.1l1.2,1.9h0V4.8h1.1v3.7h-1.2l-1.2-1.8h0v1.8h-1V4.8z
		 M46.7,4.8h1.1v3.7h-1.1V4.8z M42.4,4.8h1.1l1.2,1.9h0V4.8h1.1v3.7h-1.2l-1.2-1.8h0v1.8h-1V4.8z M38.4,4.8h1.1v1.8
		c0,0.5-0.1,1,0.5,1c0.6,0,0.5-0.5,0.5-1V4.8h1.1v2c0,0.5,0,0.9-0.4,1.3c-0.3,0.3-0.8,0.4-1.2,0.4c-0.4,0-0.9-0.1-1.2-0.4
		c-0.4-0.4-0.4-0.8-0.4-1.3V4.8z M39.5,31.7c-0.8-0.2-1.5-0.5-2.3-1V15.9h2.3V31.7z M39.1,12.1h-0.7v1.2h-1V9.6h1.7
		c0.7,0,1.2,0.6,1.2,1.2S39.8,12.1,39.1,12.1z M41.2,13.3h-1l1.3-3.7h1.2l1.3,3.7h-1l-0.2-0.6h-1.4L41.2,13.3z M44.1,32.3
		c-0.4,0-0.9-0.1-1.4-0.1c-0.3,0-0.6,0-0.9-0.1V15.9h2.3V32.3z M44.1,11.5c0-1.2,0.9-1.9,1.9-1.9c0.3,0,0.7,0.1,0.9,0.2v1
		c-0.3-0.1-0.7-0.2-0.9-0.2c-0.5,0-0.9,0.4-0.9,0.9c0,0.5,0.4,0.9,0.9,0.9c0.3,0,0.6-0.1,0.9-0.2v1c-0.2,0.1-0.6,0.2-0.9,0.2
		C45.1,13.4,44.1,12.7,44.1,11.5z M48.6,32.8c-0.4,0.2-0.8,0.5-1.1,0.9c-0.3-0.4-0.7-0.7-1.1-0.9V15.9h2.3V32.8z M48.9,13.3h-1.1
		V9.6h1.1V13.3z M48.3,6.6c0-1.1,0.9-1.9,1.9-1.9c1.1,0,1.9,0.9,1.9,1.9c0,1.1-0.9,1.9-1.9,1.9C49.2,8.5,48.3,7.7,48.3,6.6z
		 M50.8,13.3h-1.1V9.6h2.5v0.8h-1.4v0.7h1.4V12h-1.4V13.3z M53.2,32.1c-0.3,0-0.6,0-0.9,0.1c-0.5,0-0.9,0.1-1.4,0.1V15.9h2.3V32.1z
		 M54,13.3h-1.1V9.6H54V13.3z M54.7,11.5c0-1.2,0.9-1.9,1.9-1.9c0.3,0,0.7,0.1,0.9,0.2v1c-0.3-0.1-0.7-0.2-0.9-0.2
		c-0.5,0-0.9,0.4-0.9,0.9c0,0.5,0.4,0.9,0.9,0.9c0.3,0,0.6-0.1,0.9-0.2v1c-0.2,0.1-0.6,0.2-0.9,0.2C55.6,13.4,54.7,12.7,54.7,11.5z
		 M57.8,30.7c-0.8,0.5-1.5,0.8-2.3,1V15.9h2.3V30.7z M60.1,28.7L60.1,28.7V15.9h0.1c0.2,0.4,0.3,0.8,0.5,1.2c0.7,1.8,1.5,3.7,1.5,6
		C62.1,25.2,61.4,27.2,60.1,28.7z"/>
	<polygon class="st1" points="55.7,11.5 55.7,11.5 55.7,11.5 	"/>
	<path class="st1" d="M39,10.4h-0.6v0.8H39c0.2,0,0.4-0.2,0.4-0.4C39.4,10.6,39.2,10.4,39,10.4z"/>
</g>
</svg>
