<?xml version="1.0" encoding="utf-8"?>
<!-- Generator: Adobe Illustrator 26.0.1, SVG Export Plug-In . SVG Version: 6.00 Build 0)  -->
<svg version="1.1" id="Layer_1" xmlns="http://www.w3.org/2000/svg" xmlns:xlink="http://www.w3.org/1999/xlink" x="0px" y="0px"
	 viewBox="0 0 95 35" style="enable-background:new 0 0 95 35;" xml:space="preserve">
<style type="text/css">
	.st0{fill:#CCCCCC;}
</style>
<path class="st0" d="M62,3.2C55.7-0.2,47.8,0,47.5,0C47.2,0,39.3-0.2,33,3.2l-0.2,0.1v17.2c0,3.7,1.4,6.7,4,8.9
	c2.5,2,10.4,5.5,10.7,5.6c0.3-0.1,8.3-3.6,10.7-5.6c2.6-2.1,4-5.2,4-8.9V3.3L62,3.2z M61.8,20.5c0,3.4-1.2,6.4-3.8,8.6
	c-2.5,2-10.5,5.5-10.5,5.5s-8-3.5-10.5-5.5c-2.6-2.1-3.8-5.1-3.8-8.6v-17c6.3-3.4,14.3-3.1,14.3-3.1s8-0.3,14.3,3.1V20.5z"/>
<g>
	<path class="st0" d="M34.3,10.7v9.8c0,3.2,1.2,5.8,3.4,7.7c2,1.6,8.1,4.4,9.8,5.1c1.7-0.7,7.8-3.5,9.8-5.1c2.2-1.8,3.4-4.5,3.4-7.7
		V3.8C52.2,3,42.2,3.5,34.3,10.7z M43.2,22.5c-1,0.7-2.3,1-3.8,1c-2.5,0-3.8-1.4-3.8-4v-7.9h2.5v8.1c0,0.7,0.2,1.8,1.3,1.8
		c0.5,0,0.9-0.1,1.2-0.3v-9.5h2.5V22.5z M48.1,23.5c-0.5,0-0.9-0.1-1.1-0.1v5.3h-2.5V12.2c0.9-0.6,2-0.9,3.4-0.9c3,0,4.7,2.3,4.7,6
		C52.6,21,50.9,23.5,48.1,23.5z M56,23.5c-1,0-2-0.3-2.8-0.8v-2.3c0.6,0.6,1.6,1,2.4,1c0.9,0,1.5-0.5,1.5-1.4c0-0.8-0.5-1.2-1.6-1.9
		c-2.1-1.2-2.5-2.2-2.5-3.6c0-2,1.7-3.2,3.4-3.3c1.4,0,2.3,0.5,2.8,0.8v2.2c-0.5-0.5-1.4-1-2.3-1c-0.7,0-1.5,0.3-1.5,1.2
		c0,0.9,0.7,1.3,1.7,1.8c2.1,1.2,2.5,2.4,2.5,3.8C59.6,21.8,58.5,23.5,56,23.5z"/>
	<path class="st0" d="M47.9,13.3c-0.3,0-0.7,0.1-0.9,0.2v7.8c0.2,0.1,0.5,0.2,0.8,0.2c1.5,0,2.1-1.3,2.1-4.1
		C50,14.5,49.4,13.3,47.9,13.3z"/>
</g>
</svg>
