<?xml version="1.0" encoding="utf-8"?>
<!-- Generator: Adobe Illustrator 26.0.1, SVG Export Plug-In . SVG Version: 6.00 Build 0)  -->
<svg version="1.1" id="Layer_1" xmlns="http://www.w3.org/2000/svg" xmlns:xlink="http://www.w3.org/1999/xlink" x="0px" y="0px"
	 viewBox="0 0 95 35" style="enable-background:new 0 0 95 35;" xml:space="preserve">
<style type="text/css">
	.st0{fill:#343741;}
</style>
<g>
	<path class="st0" d="M0,9v13.3L11.2,26l11.2-3.8V9H0z M11.2,21.8H7.8v-1.2h0c-0.7,0.9-1.6,1.4-3,1.4c-1.7,0-3.2-1-3.2-3.2v-6.4h3.6
		v4.9c0,1.1,0.1,1.8,1.2,1.8c0.6,0,1.4-0.3,1.4-1.8v-4.9h3.6V21.8z M16.6,22c-2.2,0-4.6-0.9-4.7-3.3h3.4c0,0.3,0.2,0.6,0.4,0.8
		c0.2,0.2,0.5,0.3,1,0.3c0.5,0,1.2-0.2,1.2-0.7c0-0.5-0.3-0.7-2-1c-2.7-0.5-3.8-1.3-3.8-2.9c0-2.4,2.5-3,4.4-3c2,0,4.4,0.6,4.5,2.9
		h-3.2v0c0-0.3-0.2-0.5-0.4-0.7c-0.2-0.2-0.5-0.3-0.8-0.3c-0.5,0-1.1,0.1-1.1,0.7c0,0.3,0.2,0.4,0.4,0.5c0.6,0.3,1.9,0.3,3.1,0.7
		c1.2,0.4,2.2,1.1,2.2,2.6C21.3,21.3,18.9,22,16.6,22z"/>
	<path class="st0" d="M23.7,9h3.6v4.5h0c0.5-0.8,1.5-1.3,2.6-1.3c3.1,0,4,2.7,4,4.9c0,2.3-1.3,4.9-3.9,4.9c-1.7,0-2.3-0.7-2.7-1.3h0
		v1h-3.4V9 M28.7,14.8c-1.3,0-1.6,1.2-1.6,2.3c0,1.1,0.3,2.3,1.6,2.3c1.3,0,1.6-1.2,1.6-2.3C30.3,16,30,14.8,28.7,14.8z M43.8,19.7
		c0,0.7,0,1.5,0.4,2.1h-3.6c-0.1-0.3-0.1-0.6-0.1-0.9h0c-0.8,0.9-1.9,1.1-3,1.1c-1.8,0-3.3-0.9-3.3-2.8c0-2.9,3.5-2.8,5.3-3.2
		c0.5-0.1,1-0.2,1-0.8c0-0.6-0.6-0.9-1.2-0.9c-1.1,0-1.3,0.6-1.3,1h-3.3c0.1-2.6,2.6-3.1,4.8-3.1c4.5,0,4.4,1.9,4.4,3.6L43.8,19.7
		 M40.4,17.6c-0.4,0.2-0.9,0.3-1.4,0.4c-0.8,0.2-1.2,0.4-1.2,1c0,0.4,0.5,0.9,1.1,0.9c0.8,0,1.4-0.5,1.5-1.5V17.6z M45.1,12.5h3.4
		v1.2h0c0.7-0.9,1.6-1.4,3-1.4c1.7,0,3.2,1,3.2,3.2v6.4h-3.6v-4.9c0-1.1-0.1-1.8-1.2-1.8c-0.6,0-1.4,0.3-1.4,1.8v4.9h-3.6L45.1,12.5
		 M61.9,16c0-0.4-0.2-0.7-0.4-0.9c-0.2-0.2-0.5-0.3-0.9-0.3c-1.4,0-1.6,1.2-1.6,2.3c0,1.1,0.2,2.3,1.6,2.3c0.8,0,1.3-0.6,1.4-1.4
		h3.4c-0.3,2.5-2.3,4-4.9,4c-2.8,0-5.1-1.9-5.1-4.9c0-2.9,2.2-4.9,5.1-4.9c2.4,0,4.5,1.2,4.7,3.8H61.9 M71,22
		c-3.5,0-5.1-2.3-5.1-4.9c0-2.6,1.6-4.9,5.1-4.9c3.5,0,5.1,2.3,5.1,4.9C76.1,19.7,74.5,22,71,22 M71,14.8c-1.3,0-1.5,1.3-1.5,2.3
		c0,1,0.2,2.3,1.5,2.3c1.3,0,1.5-1.3,1.5-2.3C72.5,16.1,72.3,14.8,71,14.8z M76.9,12.5h3.4V14h0c0.6-1.1,1.3-1.7,2.6-1.7
		c0.4,0,0.7,0.1,1,0.1v3.1c-0.4-0.1-0.7-0.2-1.4-0.2c-1.4,0-2.2,0.8-2.2,2.8v3.7h-3.6L76.9,12.5 M84.9,12.5h3.4v1h0
		c0.5-0.6,1-1.3,2.7-1.3c2.6,0,3.9,2.6,3.9,4.9c0,2.2-0.8,4.9-4,4.9c-1.1,0-2-0.5-2.6-1.3h0v4h-3.6L84.9,12.5 M89.9,19.4
		c1.3,0,1.6-1.2,1.6-2.3c0-1.1-0.3-2.3-1.6-2.3c-1.3,0-1.6,1.2-1.6,2.3C88.3,18.2,88.6,19.4,89.9,19.4z"/>
</g>
</svg>
