<?xml version="1.0" encoding="utf-8"?>
<!-- Generator: Adobe Illustrator 26.0.1, SVG Export Plug-In . SVG Version: 6.00 Build 0)  -->
<svg version="1.1" id="Layer_1" xmlns="http://www.w3.org/2000/svg" xmlns:xlink="http://www.w3.org/1999/xlink" x="0px" y="0px"
	 viewBox="0 0 95 35" style="enable-background:new 0 0 95 35;" xml:space="preserve">
<style type="text/css">
	.st0{fill:#104076;}
	.st1{clip-path:url(#SVGID_00000114762467127988748030000011792789969667079358_);}
	.st2{fill:#FFFFFF;}
</style>
<path class="st0" d="M-39.1,613.7"/>
<g>
	<g>
		<defs>
			<path id="SVGID_1_" d="M49.1,12c-0.1,4.3,3.8,6.7,6.7,8.1c3,1.5,4,2.4,4,3.7c0,2-2.4,2.9-4.6,2.9c-3.9,0.1-6.1-1-7.9-1.9L46,31.3
				c1.8,0.8,5.1,1.5,8.5,1.6c8.1,0,13.3-4,13.4-10.1c0-7.8-10.8-8.3-10.8-11.8c0-1.1,1-2.2,3.3-2.5c1.1-0.1,4.1-0.3,7.6,1.3l1.3-6.3
				c-1.8-0.7-4.2-1.3-7.2-1.3C54.5,2.2,49.2,6.2,49.1,12 M82.2,2.7c-1.5,0-2.7,0.9-3.3,2.2L67.5,32.4h8.1l1.6-4.4H87l0.9,4.4H95
				L88.8,2.7H82.2 M83.4,10.7l2.3,11.1h-6.4L83.4,10.7 M39.4,2.7L33,32.4h7.7L47,2.7H39.4 M28,2.7l-8,20.2L16.8,5.7
				c-0.4-1.9-1.9-3-3.5-3H0.2L0,3.6c2.7,0.6,5.7,1.5,7.6,2.5C8.7,6.7,9,7.2,9.4,8.7l6.1,23.7h8.1L36.1,2.7L28,2.7"/>
		</defs>
		<use xlink:href="#SVGID_1_"  style="overflow:visible;fill:#FFFFFF;"/>
		<clipPath id="SVGID_00000153670894183558195700000014861890402564209334_">
			<use xlink:href="#SVGID_1_"  style="overflow:visible;"/>
		</clipPath>
		
			<g transform="matrix(4.98469 0 0 -4.98469 -1804.82 502.202)" style="clip-path:url(#SVGID_00000153670894183558195700000014861890402564209334_);">
			<path class="st2" d="M360.1,99.6l18.8,6.9l4.3-11.6L364.3,88"/>
		</g>
	</g>
</g>
</svg>
