<?xml version="1.0" encoding="utf-8"?>
<!-- Generator: Adobe Illustrator 26.0.1, SVG Export Plug-In . SVG Version: 6.00 Build 0)  -->
<svg version="1.1" id="Layer_1" xmlns="http://www.w3.org/2000/svg" xmlns:xlink="http://www.w3.org/1999/xlink" x="0px" y="0px"
	 viewBox="0 0 95 35" style="enable-background:new 0 0 95 35;" xml:space="preserve">
<style type="text/css">
	.st0{fill:#343741;}
</style>
<g>
	<path class="st0" d="M81.7,19.6c0,0.7-0.5,1-1.5,1h-2.4v-2.1h2.4C81.2,18.5,81.7,19,81.7,19.6L81.7,19.6z M77.7,14.4h2.1
		c0.9,0,1.4,0.3,1.4,1v0c0,0.7-0.6,1-1.5,1h-2V14.4L77.7,14.4z M82.6,17.2c1-0.4,1.7-1.2,1.7-2.5v0c0-0.8-0.3-1.4-0.7-1.9
		c-0.7-0.6-1.7-1-3.1-1h-5.8v11.3h5.8c2.7,0,4.3-1.2,4.3-3.1v0C84.8,18.5,83.9,17.7,82.6,17.2z M63.1,17.5L63.1,17.5
		c0-3.3,2.5-5.9,6-5.9c2.3,0,3.8,1,4.8,2.3l-2.4,1.8c-0.6-0.8-1.4-1.3-2.5-1.3c-1.6,0-2.7,1.4-2.7,3v0c0,1.7,1.1,3,2.7,3
		c1.2,0,1.9-0.6,2.6-1.4l2.4,1.7c-1.1,1.5-2.5,2.6-5,2.6C65.7,23.4,63.1,20.9,63.1,17.5 M87,19.3c1.2,0.9,2.6,1.3,3.5,1.3
		c0.9,0,1.5-0.3,1.3-1c-0.2-0.3-0.7-0.6-1.8-0.9c-2.4-0.6-4.3-1.1-4.3-3.4v0c0-2.1,1.7-3.6,4.4-3.6c1.9,0,3.4,0.5,4.7,1.5l-1.5,2.2
		c-1-0.7-2.2-1-3.2-1c-0.8,0-1.1,0.3-1.1,0.7v0c0,0.5,0.4,0.6,2,1c2.6,0.6,4.2,1.5,4.2,3.7v0c0,2.3-1.8,3.7-4.6,3.7
		c-2,0-3.9-0.6-5.3-1.9C85.1,21.5,87,19.3,87,19.3z"/>
	<path class="st0" d="M63.1,11.8v1.3c-0.9,1.2-1.5,2.7-1.5,4.3v0c0,1.6,0.5,3.1,1.5,4.3v1.3H60v-6.5l-2.9,4.4H57l-2.9-4.4v6.5h-3.1
		V11.8h3.3l2.7,4.4l2.7-4.4C59.8,11.8,63.1,11.8,63.1,11.8z M0,11.8h3.5L6.1,19l2.6-7.2h3.4L7.6,23.2h-3L0,11.8z M12.5,11.8h3.1
		v11.3h-3.1V11.8z M27.6,17.5L27.6,17.5c0-3.3,2.5-5.9,6-5.9c2.3,0,3.8,1,4.8,2.3l-2.4,1.8c-0.6-0.8-1.4-1.3-2.5-1.3
		c-1.6,0-2.7,1.4-2.7,3v0c0,1.7,1.1,3,2.7,3c1.2,0,1.9-0.6,2.6-1.4l2.4,1.7c-1.1,1.5-2.5,2.6-5,2.6C30.2,23.4,27.6,20.9,27.6,17.5
		 M47.2,17.5c0,1.6-1.2,3-2.9,3c-1.7,0-2.9-1.4-2.9-3.1v0c0-1.6,1.2-3,2.9-3C46.1,14.4,47.2,15.9,47.2,17.5L47.2,17.5z M44.4,11.6
		c-3.5,0-6.1,2.6-6.1,5.9v0c0,3.3,2.6,5.9,6.1,5.9c3.5,0,6.1-2.6,6.1-5.9v0C50.5,14.2,47.9,11.6,44.4,11.6z M21.1,18.7l1.3-3.2
		l1.3,3.2H21.1L21.1,18.7z M24,11.8h-3.1l-4.8,11.3h3.3l0.8-2h4.4l0.8,2h3.4L24,11.8L24,11.8z"/>
</g>
</svg>
