<?xml version="1.0" encoding="utf-8"?>
<!-- Generator: Adobe Illustrator 26.0.1, SVG Export Plug-In . SVG Version: 6.00 Build 0)  -->
<svg version="1.1" id="Layer_1" xmlns="http://www.w3.org/2000/svg" xmlns:xlink="http://www.w3.org/1999/xlink" x="0px" y="0px"
	 viewBox="0 0 95 35" style="enable-background:new 0 0 95 35;" xml:space="preserve">
<style type="text/css">
	.st0{fill-rule:evenodd;clip-rule:evenodd;fill:#FFFFFF;}
	.st1{fill:#FFFFFF;}
</style>
<g>
	<path class="st0" d="M47.4,23c0.5-0.1,0.9-0.3,1.4-0.4c0.4-0.1,0.8-0.1,1.1,0.2c0.3,0.2,0.3,0.6,0,0.8c-0.2,0.1-0.4,0.2-0.7,0.3
		c-0.6,0.2-1.2,0.3-1.8,0.5c-0.6,0.2-1,0.7-1,1.4c0,0.7,0.4,1.2,1.2,1.5c0.7,0.3,1.4,0.2,2.1,0.2c0,0,0.1,0,0.1-0.1
		c0.1-0.3,0.3-0.6,0.4-0.8c-0.3,0-0.6,0-0.8-0.1c-0.6-0.2-0.7-0.9-0.2-1.3c0.3-0.3,0.7-0.3,1.1-0.4c0,0.3,0,0.6,0,0.8
		c0,1,0.5,1.6,1.5,1.8c0.2,0,0.4,0,0.6,0c1.3,0,2.6,0,3.9,0c0.1,0,0.2,0,0.3,0c-0.4-0.2-0.5-0.6-0.5-1c0-0.9,0-1.8,0-2.7
		c0-0.1,0-0.2,0-0.3c0.1-0.5,0.4-0.8,0.9-0.8c0.4,0,0.7,0.3,0.7,0.9c0,1,0,2,0,3c0,0.3,0,0.6,0,0.9c0.9,0,1.8,0,2.7,0
		c-0.4-0.3-0.5-0.5-0.5-0.9c0-0.1,0-0.2,0-0.3c0-1,0-2,0-3c0-1-0.6-1.7-1.6-1.9c-0.7-0.1-1.4,0-1.9,0.4c-0.1,0-0.1,0.1-0.2,0.2
		c0-0.2,0-0.4,0-0.7c-0.9,0-1.8,0.1-2.7,0.1c0.4,0.2,0.5,0.6,0.5,1c0,1.3,0,2.6,0,3.9c0,0.1,0,0.2,0,0.2c-0.9,0.2-1.4-0.3-1.4-1.2
		c0-0.6,0-1.2,0-1.8c0-1.1-0.5-1.8-1.6-2.1c-0.9-0.3-1.8-0.2-2.8,0c-0.1,0-0.2,0.1-0.2,0.2C47.7,22.1,47.5,22.5,47.4,23z"/>
	<path class="st0" d="M81.3,21.5c0.4,0.2,0.4,0.5,0.5,0.8c0,0.1,0,0.2,0,0.2c0,1.3,0,2.5,0,3.8c0,0.1,0,0.2,0,0.2
		c-1,0.2-1.4-0.2-1.5-1.2c0-0.6,0-1.3,0-1.9c0-0.8-0.4-1.5-1.2-1.8c-1-0.4-2.1-0.4-3.2-0.1c-0.1,0-0.1,0.1-0.2,0.1
		c-0.1,0.4-0.3,0.9-0.4,1.3c0.5-0.1,0.9-0.3,1.3-0.4c0.4-0.1,0.7-0.1,1.1,0.1c0.4,0.2,0.4,0.6,0,0.9c-0.2,0.1-0.4,0.2-0.6,0.2
		c-0.5,0.1-1,0.2-1.5,0.4c-0.8,0.3-1.3,0.9-1.3,1.6c0,0.7,0.5,1.2,1.3,1.5c0.6,0.2,1.3,0.2,1.9,0.2c0.1,0,0.1,0,0.2-0.1
		c0.1-0.3,0.3-0.5,0.4-0.8c-0.3,0-0.6,0-0.8-0.1c-0.3-0.1-0.5-0.3-0.5-0.6c0-0.3,0.1-0.6,0.3-0.7c0.3-0.2,0.6-0.3,1-0.4
		c0,0.4,0,0.7,0,1.1c0,0.7,0.4,1.2,1,1.5c0.3,0.1,0.6,0.2,1,0.2c1.4,0,2.8,0,4.1,0c0.1,0,0.1,0,0.2,0C84,27.3,84,26.9,84,26.6
		c0-0.9,0-1.8,0-2.6c0-0.6,0.4-1,1-1.1c0.2,0,0.5,0,0.8,0c0-0.4,0-0.8,0-1.3c0-0.2-0.1-0.3-0.2-0.3c-0.6,0-1,0.1-1.4,0.6
		c0,0.1-0.1,0.1-0.2,0.2c0-0.3,0-0.5,0-0.8C83,21.4,82.1,21.4,81.3,21.5z"/>
	<path class="st0" d="M90,21.7C90,21.7,90,21.7,90,21.7c-0.1,0-0.2-0.1-0.3-0.1c-0.9-0.5-1.8-0.4-2.7,0.2c-1.5,1-1.7,3.5-0.4,4.9
		c0.6,0.6,1.3,1,2.2,0.9c0.1,0,0.3,0,0.4-0.1c0.2-0.3,0.4-0.6,0.6-1c-0.9,0-1.4-0.3-1.6-1.2c-0.2-0.6-0.1-1.1,0-1.7
		c0.1-0.2,0.2-0.4,0.3-0.6c0.4-0.5,1.1-0.4,1.4,0.2c0.1,0.2,0.1,0.5,0.1,0.7c0,1.1,0,2.2,0,3.3c0,0.1,0,0.2,0,0.3c0.9,0,1.8,0,2.7,0
		c-0.3-0.1-0.4-0.3-0.5-0.6c0-0.1,0-0.3,0-0.5c0-2.5,0-4.9,0-7.4c0-0.1,0-0.2,0-0.3c-0.9,0-1.8,0.1-2.7,0.1c0.3,0.2,0.5,0.4,0.5,0.7
		C90.1,20.3,90,21,90,21.7z"/>
	<path class="st0" d="M39.3,18.7C39.3,18.7,39.3,18.7,39.3,18.7c0.4,0.3,0.6,0.7,0.7,1.1c0.7,1.9,1.3,3.7,2,5.6
		c0.5,1.3,1.5,1.9,2.8,2.2c1-2.9,2-5.9,3-8.8c-0.8,0-1.6,0-2.4,0c0.6,0.4,0.7,0.7,0.5,1.4c-0.2,0.8-0.5,1.5-0.7,2.3
		c-0.3,0.8-0.5,1.6-0.8,2.6c-0.1-0.2-0.1-0.3-0.1-0.4c-0.6-1.9-1.3-3.8-1.9-5.7c-0.1-0.2-0.1-0.3-0.3-0.2c-0.6,0-1.3,0-1.9,0
		C39.8,18.7,39.5,18.7,39.3,18.7z"/>
	<path class="st0" d="M47.4,23c0.1-0.4,0.3-0.9,0.4-1.3c0-0.1,0.1-0.1,0.2-0.2c0.9-0.2,1.8-0.3,2.8,0c1.1,0.3,1.6,1,1.6,2.1
		c0,0.6,0,1.2,0,1.8c0,0.9,0.5,1.3,1.4,1.2c0-0.1,0-0.1,0-0.2c0-1.3,0-2.6,0-3.9c0-0.4,0-0.8-0.5-1c0.9,0,1.8-0.1,2.7-0.1
		c0,0.2,0,0.4,0,0.7c0.1-0.1,0.2-0.1,0.2-0.2c0.6-0.4,1.2-0.6,1.9-0.4c1,0.2,1.6,0.9,1.6,1.9c0,1,0,2,0,3c0,0.1,0,0.2,0,0.3
		c0,0.5,0.1,0.7,0.5,0.9c-0.9,0-1.8,0-2.7,0c0-0.3,0-0.6,0-0.9c0-1,0-2,0-3c0-0.6-0.2-0.8-0.7-0.9c-0.5,0-0.8,0.3-0.9,0.8
		c0,0.1,0,0.2,0,0.3c0,0.9,0,1.8,0,2.7c0,0.4,0.1,0.8,0.5,1c-0.1,0-0.2,0-0.3,0c-1.3,0-2.6,0-3.9,0c-0.2,0-0.4,0-0.6,0
		c-1-0.2-1.5-0.8-1.5-1.8c0-0.3,0-0.5,0-0.8c-0.4,0.1-0.8,0.1-1.1,0.4c-0.5,0.4-0.3,1.1,0.2,1.3c0.3,0.1,0.5,0.1,0.8,0.1
		c-0.1,0.3-0.3,0.5-0.4,0.8c0,0-0.1,0.1-0.1,0.1c-0.7,0-1.4,0-2.1-0.2c-0.7-0.3-1.2-0.9-1.2-1.5c0-0.7,0.4-1.2,1-1.4
		c0.6-0.2,1.2-0.3,1.8-0.5c0.2-0.1,0.5-0.1,0.7-0.3c0.3-0.2,0.3-0.6,0-0.8c-0.3-0.2-0.7-0.2-1.1-0.2C48.3,22.7,47.9,22.8,47.4,23z"
		/>
	<path class="st0" d="M81.3,21.5c0.9,0,1.8-0.1,2.7-0.1c0,0.2,0,0.5,0,0.8c0.1-0.1,0.1-0.2,0.2-0.2c0.3-0.5,0.8-0.6,1.4-0.6
		c0.2,0,0.2,0.1,0.2,0.3c0,0.4,0,0.8,0,1.3c-0.3,0-0.5,0-0.8,0c-0.6,0.1-1,0.5-1,1.1c0,0.9,0,1.8,0,2.6c0,0.4,0.1,0.7,0.5,0.9
		c-0.1,0-0.1,0-0.2,0c-1.4,0-2.8,0-4.1,0c-0.3,0-0.7-0.1-1-0.2c-0.7-0.2-1-0.8-1-1.5c0-0.3,0-0.7,0-1.1c-0.4,0.2-0.7,0.3-1,0.4
		c-0.2,0.1-0.4,0.4-0.3,0.7c0,0.3,0.2,0.5,0.5,0.6c0.3,0.1,0.5,0.1,0.8,0.1c-0.1,0.3-0.3,0.5-0.4,0.8c0,0-0.1,0.1-0.2,0.1
		c-0.7,0-1.3,0-1.9-0.2c-0.8-0.3-1.3-0.8-1.3-1.5c0-0.7,0.4-1.3,1.3-1.6c0.5-0.2,1-0.2,1.5-0.4c0.2-0.1,0.4-0.1,0.6-0.2
		c0.4-0.2,0.4-0.6,0-0.9c-0.3-0.2-0.7-0.2-1.1-0.1c-0.4,0.1-0.9,0.2-1.3,0.4c0.1-0.4,0.3-0.9,0.4-1.3c0-0.1,0.1-0.1,0.2-0.1
		c1.1-0.2,2.1-0.3,3.2,0.1c0.8,0.3,1.2,1,1.2,1.8c0,0.6,0,1.3,0,1.9c0,0.9,0.5,1.3,1.5,1.2c0-0.1,0-0.2,0-0.2c0-1.3,0-2.5,0-3.8
		c0-0.1,0-0.2,0-0.2C81.7,21.9,81.6,21.6,81.3,21.5z"/>
	<path class="st0" d="M90,21.7c0-0.7,0-1.5,0-2.2c0-0.3-0.1-0.6-0.5-0.7c0.9,0,1.8-0.1,2.7-0.1c0,0.1,0,0.2,0,0.3c0,2.5,0,4.9,0,7.4
		c0,0.2,0,0.3,0,0.5c0,0.3,0.2,0.5,0.5,0.6c-0.9,0-1.8,0-2.7,0c0-0.1,0-0.2,0-0.3c0-1.1,0-2.2,0-3.3c0-0.2,0-0.5-0.1-0.7
		c-0.2-0.6-1-0.7-1.4-0.2c-0.1,0.2-0.3,0.4-0.3,0.6c-0.2,0.6-0.2,1.1,0,1.7c0.2,0.9,0.7,1.2,1.6,1.2c-0.2,0.3-0.4,0.7-0.6,1
		c-0.1,0.1-0.2,0.1-0.4,0.1c-0.9,0.1-1.6-0.2-2.2-0.9c-1.3-1.3-1-3.8,0.4-4.9c0.8-0.6,1.7-0.7,2.7-0.2C89.8,21.7,89.9,21.7,90,21.7
		C90,21.7,90,21.7,90,21.7z"/>
	<path class="st0" d="M39.3,18.7c0.3,0,0.5,0,0.8,0c0.6,0,1.3,0,1.9,0c0.2,0,0.3,0.1,0.3,0.2c0.6,1.9,1.3,3.8,1.9,5.7
		c0,0.1,0.1,0.2,0.1,0.4c0.3-0.9,0.5-1.7,0.8-2.6c0.2-0.8,0.5-1.5,0.7-2.3c0.2-0.7,0.1-1-0.5-1.4c0.8,0,1.6,0,2.4,0
		c-1,2.9-2,5.9-3,8.8c-1.3-0.3-2.3-0.9-2.8-2.2c-0.6-1.9-1.3-3.7-2-5.6C39.8,19.4,39.7,19,39.3,18.7C39.3,18.7,39.3,18.7,39.3,18.7z
		"/>
	<path class="st0" d="M74.1,27.5c-0.3-0.2-0.4-0.4-0.5-0.8c0-0.1,0-0.2,0-0.4c0-1.5,0-3.1,0-4.6c0-0.1,0-0.2,0-0.3
		c-0.9,0-1.8,0.1-2.7,0.1c0.4,0.2,0.5,0.6,0.5,0.9c0,0.9,0,1.8,0,2.6c0,0.2,0,0.4-0.1,0.6c-0.1,0.3-0.3,0.5-0.6,0.5
		c-0.5,0-0.8-0.3-0.8-0.9c0-1.2,0-2.4,0-3.6c0-0.1,0-0.2,0-0.3c-0.1,0-0.2,0-0.3,0c-2,0-3.9,0-5.9,0c-0.7,0-1.4,0.1-2,0.5
		c-1.1,0.7-1.3,2.2-0.4,3.1c0.3,0.3,0.6,0.5,0.9,0.7c-0.2,0.1-0.4,0.1-0.6,0.2c-0.2,0.1-0.3,0.2-0.3,0.4c0.1,0.7,0.6,1.2,1.3,1.2
		c0.2,0,0.3,0,0.5,0c0.4,0,0.8,0.1,1.2,0.2c0.4,0.1,0.5,0.4,0.6,0.8c0,0.4-0.2,0.7-0.5,0.9c-0.5,0.2-1,0.2-1.5,0.1
		c-0.3-0.1-0.6-0.3-0.6-0.6c-0.1-0.3,0.1-0.6,0.4-0.8c-0.6-0.1-1.2-0.1-1.7,0.1c-0.8,0.4-0.9,1.3-0.2,1.8c0.3,0.2,0.6,0.4,1,0.5
		c0.9,0.3,1.9,0.3,2.8,0.2c0.7-0.1,1.3-0.2,1.9-0.6c1.1-0.8,1-2.4-0.2-3.1c-0.3-0.2-0.6-0.3-0.9-0.3c-0.6-0.1-1.2,0-1.9-0.1
		c-0.2,0-0.5,0-0.5-0.3c0-0.3,0.3-0.3,0.5-0.3c0.7-0.1,1.5-0.3,2.1-0.6c1-0.6,1.2-1.7,0.6-2.7c0-0.1-0.1-0.1-0.1-0.2
		c0.1,0,0.1,0,0.2,0c0.5,0,0.9,0,1.5,0c0,0.1,0,0.2,0,0.3c0,0.9,0,1.9,0,2.8c0,1,0.5,1.6,1.5,1.8c0.8,0.2,1.5,0,2.1-0.4
		c0.1-0.1,0.1-0.1,0.3-0.2c0,0.3,0,0.5,0,0.7C72.3,27.5,73.2,27.5,74.1,27.5z M64.2,24.2c-0.1,0.3-0.3,0.4-0.6,0.5
		c-0.3,0-0.5-0.1-0.7-0.3c-0.3-0.4-0.2-1.2,0.1-1.6c0.3-0.4,0.9-0.3,1.1,0.1c0.1,0.2,0.1,0.5,0.2,0.7C64.3,23.8,64.2,24,64.2,24.2z"
		/>
	<path class="st0" d="M94,18.5c-0.5,0-1,0.4-1,1c0,0.5,0.4,1,1,1s1-0.4,1-1C95,19,94.6,18.5,94,18.5z M94,20.4
		c-0.5,0-0.8-0.4-0.8-0.8c0-0.5,0.4-0.8,0.8-0.8c0.5,0,0.8,0.4,0.8,0.8C94.9,20,94.5,20.4,94,20.4z"/>
	<g>
		<g>
			<path class="st1" d="M93.6,20v-0.9H94c0.1,0,0.1,0,0.2,0c0,0,0.1,0,0.1,0.1c0,0,0,0.1,0,0.1c0,0.1,0,0.1-0.1,0.2
				c0,0-0.1,0.1-0.2,0.1c0,0,0.1,0,0.1,0c0,0,0.1,0.1,0.1,0.1l0.2,0.2h-0.1l-0.1-0.2c0-0.1-0.1-0.1-0.1-0.1c0,0,0,0-0.1-0.1
				c0,0,0,0-0.1,0c0,0,0,0-0.1,0h-0.1V20H93.6z M93.7,19.5H94c0.1,0,0.1,0,0.1,0c0,0,0.1,0,0.1-0.1c0,0,0-0.1,0-0.1c0,0,0-0.1,0-0.1
				c0,0-0.1,0-0.1,0h-0.3V19.5z"/>
		</g>
	</g>
	<path class="st0" d="M17.9,26.2c0.3,0,0.6,0,0.8,0c0-0.1,0-0.2,0.1-0.2c0.1,0,0.2,0,0.3,0c0,0.1,0,0.2,0,0.2c0.3,0,0.6,0,0.9,0
		c0-0.1,0-0.2,0.1-0.2c0.2-0.1,0.3,0,0.4,0.2c0.3,0,0.6,0,0.9,0c0-0.1,0-0.2,0.1-0.2c0.2,0,0.4-0.1,0.3,0.2c0.3,0,0.6,0,0.9,0
		c0-0.1,0-0.1,0-0.2c0.1,0,0.2,0,0.3,0c0,0.1,0,0.1,0.1,0.2c0.7,0,1.5,0.1,2.1-0.5c-1,0.2-1.9,0.1-2.9,0.1c-6,0-12,0-18,0
		c-0.3,0-0.5-0.1-0.5-0.4c0-0.2-0.2-0.4-0.4-0.4c-0.1,0-0.1-0.1-0.2-0.2c0.7,0,1.3,0,1.9,0c0,0,0-0.1,0-0.1c-0.1,0-0.2-0.1-0.2-0.1
		c-0.4,0-0.8,0-1.2,0c-0.2,0-0.2,0-0.3-0.2C3.3,24.2,3.2,24.1,3,24c-0.1,0-0.1-0.1-0.2-0.2c0.3,0,0.5,0,0.8,0
		C3.4,23.5,3.2,23.3,3,23C3,23,2.9,23,2.8,23c-0.8-0.1-1.7-0.2-2.5-0.3c-0.1,0-0.2,0-0.3-0.1c0,0,0-0.1,0-0.1c0.1,0,0.2,0,0.3,0
		c0.4,0,0.8,0.1,1.1,0.1c0.2,0,0.5,0,0.6-0.2c0,0,0.1-0.1,0.1-0.1c0.3-0.3,0.3-0.3,0.2-0.7c-0.7-2-0.7-3.9,0.2-5.8
		c0.1-0.1,0.1-0.2,0.2-0.4c0.5,0.3,1,0.7,1.5,1c0.1,0.1,0.3,0.1,0.4,0.1c0.6,0,1.1-0.1,1.7-0.2c-0.1-0.1-0.3-0.2-0.4-0.2
		c0.1-0.1,0.2-0.2,0.3-0.3c0.7-0.8,0.8-1.8,1-2.8c0-0.2,0.1-0.3,0.1-0.5c-0.3-0.1-0.6-0.3-0.8-0.4c0.5-0.5,1.1-0.9,1.3-1.6
		c-0.3-0.1-0.6-0.2-0.9-0.4c0.1-0.1,0.2-0.1,0.3-0.2c0.3-0.5,0.7-0.9,1-1.4C8.6,8.9,8.9,9,9.1,9c0.4,0.1,0.6,0,0.8-0.2
		c1.3-1.4,2.5-2.8,3.8-4.2c0.1-0.1,0.1-0.2,0.2-0.3c0.2,0.1,0.3,0.2,0.5,0.3c2.4,1.1,4.9,2.1,7.3,3.2c0.2,0.1,0.3,0.1,0.4-0.1
		c0.3-0.4,0.6-0.8,0.9-1.3c0.9,0.9,1.7,1.8,2.6,2.7c3.2,3.1,6.4,6.3,9.6,9.4c0.2,0.2,0.4,0.4,0.6,0.1c0,0,0,0,0.1,0c0,0,0,0,0,0
		c-1.2,1-2.3,2.3-3.4,3.4c-1.1,1.1-2.2,2.3-3.3,3.5c-0.1,0.1-0.1,0.2-0.2,0.2c-0.1,0-0.1-0.1-0.2-0.1c-0.7-0.2-1.4-0.3-2-0.5
		c-0.2-0.1-0.4,0.1-0.5,0.2c-0.3,0.4-0.5,0.7-0.8,1.1c-0.2,0.3-0.5,0.6-0.5,0.9c0,0.1-0.1,0.1-0.2,0.1c-0.1,0-0.1,0-0.2,0
		c-6.8,0-13.5,0-20.3,0c-0.1,0-0.2,0-0.3,0C4,27,4.4,26.4,4,25.9c0.4,0,0.8,0,1.2,0c0,0.1-0.1,0.1-0.2,0.2c0.3,0,0.6,0,0.9,0
		c0,0,0,0,0,0C6,26.1,6.1,26,6.2,25.9c0.1,0,0.1,0.1,0.2,0.2c0.3,0,0.5,0,0.8,0c0-0.1,0-0.1,0.1-0.2c0.1,0,0.2,0,0.3,0
		c0,0.1,0,0.1,0,0.2c0.3,0,0.6,0,0.9,0c0-0.1,0-0.1,0.1-0.2c0.1,0,0.2,0,0.3,0c0,0.1,0,0.1,0,0.2c0.3,0,0.6,0,0.9,0
		c0-0.1,0-0.2,0-0.2c0.2,0,0.4-0.1,0.4,0.2c0.3,0,0.6,0,0.9,0c0-0.1,0-0.1,0-0.2c0.2-0.1,0.3,0,0.4,0.2c0.3,0,0.6,0,0.8,0
		c0,0,0,0,0-0.1c0.1-0.1,0.2-0.2,0.3-0.2c0.1,0,0.2,0.1,0.2,0.2c0,0,0,0,0,0.1c0.3,0,0.6,0,0.8,0c0-0.1,0-0.1,0.1-0.2
		c0.1,0,0.2,0,0.3,0c0,0.1,0,0.1,0.1,0.2c0.3,0,0.6,0,0.9,0c0-0.3,0.1-0.3,0.4-0.2c0,0.1,0,0.1,0.1,0.2c0.3,0,0.6,0,0.9,0
		c0-0.1,0-0.1,0-0.2c0.1,0,0.2,0,0.3,0c0,0.1,0,0.1,0.1,0.2c0.3,0,0.6,0,0.8,0c0,0,0,0,0-0.1c0.1-0.1,0.2-0.2,0.3-0.2
		C17.8,25.9,17.9,26.1,17.9,26.2C17.9,26.1,17.9,26.2,17.9,26.2z M29.3,21.7c0.1,0,0.3,0.1,0.4,0.1c0.5-0.2,1-0.5,1.4-0.7
		c0,0,0,0,0-0.1C30.4,21.2,29.9,21.4,29.3,21.7c-0.2,0.1-0.5,0.2-0.7,0.3c0.1,0.1,0.1,0.2,0.1,0.2C29.2,22,29.2,22,29.3,21.7z
		 M25.8,24.5c0.2,0,0.4-0.1,0.6-0.1c0,0.2,0,0.3,0,0.5c0.3-0.1,0.5-0.4,0.7-0.6c-0.2,0-0.5,0-0.7,0.1C26.2,24.3,26,24.4,25.8,24.5
		c-0.5,0.2-0.9,0.5-1.4,0.7C25,25.3,25.4,25.1,25.8,24.5z M12.5,6.2C12.5,6.3,12.4,6.3,12.5,6.2c-1,1-1.8,1.9-2.7,2.9c0,0,0,0,0,0.1
		c0.4,0.1,0.8,0.2,1.2,0.3c0.6,0.1,0.6,0.1,0.9-0.4c0-0.1,0-0.2,0-0.3c0.4,0,1.3-1.3,1.4-2.1C13,6.7,12.7,6.4,12.5,6.2
		c0.3,0,0.6,0,0.8,0c0.1,0,0.2-0.1,0.2-0.1c0.1-0.5,0.3-0.9,0.4-1.4c-0.3,0.3-0.6,0.5-0.8,0.8C12.9,5.8,12.7,6,12.5,6.2z M18.9,24.7
		c0.1-0.8,0.1-1.6,0.1-2.4c0-0.1-0.1-0.2-0.2-0.3c-0.5-0.4-1-0.8-1.5-1.3c-0.4-0.4-0.9-0.5-1.4-0.5c-0.8,0-1.6,0-2.2,0.5
		c0,0,0,0,0,0c-0.1,0-0.2,0.1-0.2,0.3c0,0.4,0,0.9,0,1.3c0,0.7,0,1.4,0,2.1c0.1,0,0.2,0.1,0.3,0.1c0.1,0.1,0.1,0.1,0.2,0.2
		c0.1,0,0.2,0.1,0.2,0.1C15.8,24.8,17.3,24.9,18.9,24.7z M25.2,15.9c0.5,0.8,0.9,1.6,1.3,2.4c0.2,0.3,0.4,0.5,0.8,0.4
		c0.1,0,0.1,0,0.2,0c0,0,0,0,0,0.1c-0.1,0.1-0.2,0.1-0.4,0.2c0,0.1,0,0.2,0,0.3c0.5,0.8,0.9,1.7,1.4,2.5c1.2-0.5,2.4-0.9,3.6-1.4
		c-2.9-2.7-5.8-5.5-8.7-8.2c0.6,0.8,1.2,1.6,1.8,2.5c0.2,0.3,0.5,0.6,0.9,0.5c0,0,0,0,0,0C25.9,15.5,25.5,15.7,25.2,15.9z
		 M24.8,10.7c0.1,0.1,0.2,0.2,0.3,0.3c2.5,2.9,4.9,5.8,7.4,8.6c0.4,0.5,0.4,0.5,1,0.2c0.5-0.3,1-0.5,1.6-0.8
		c-0.1-0.1-0.1-0.1-0.2-0.2c-3.2-2.7-6.3-5.5-9.5-8.2C25.1,10.5,25,10.5,24.8,10.7z M32.8,20.2c-2.7-3.1-5.4-6.3-8-9.3
		c-0.5,0.2-0.9,0.3-1.4,0.4c-0.1,0-0.2,0.1-0.2,0.2c0,0.1,0.1,0.2,0.1,0.3c0,0,0,0,0,0.1c0,0-0.1,0.1-0.2,0.1
		c0.1,0.1,0.1,0.1,0.1,0.2c2.9,2.7,5.7,5.4,8.6,8.1C32.2,20.5,32.2,20.5,32.8,20.2z M22.6,24.7c0.3,0,0.5,0,0.8,0
		c0.4-0.1,0.8-0.3,1.2-0.5c1-0.6,1.9-1.1,2.9-1.8c-0.1-0.1-0.2-0.1-0.2-0.2c-0.7-0.6-1.4-1.2-2-1.8c-0.3-0.3-0.5-0.4-0.9-0.2
		c-0.1,0.1-0.3,0.1-0.4,0.1c-0.4,0.1-0.9,0.1-1.4,0.2C22.6,21.8,22.6,23.2,22.6,24.7z M23.4,9c0,0,0.1,0.1,0.1,0.1
		c3.8,3.3,7.6,6.5,11.4,9.8c0.2,0.2,0.4,0.1,0.5-0.1c-3.9-3.8-7.8-7.6-11.6-11.4c0,0,0,0,0,0c0.3,0.3,0.4,0.7,0.8,1
		C24.2,8.6,23.8,8.8,23.4,9z M14.6,10.4C14.7,10.4,14.7,10.4,14.6,10.4c2.1,0.5,4.1,0.6,6.1,0.2c0.2,0,0.4-0.1,0.5-0.2
		c0.4-0.3,0.7-0.7,1.1-1.1c0.1-0.1,0.1-0.1,0.1-0.2c-0.2,0-0.4,0-0.5,0c-0.8,0-1.6,0-2.3-0.1c-1.6-0.2-3.1-0.8-4.5-1.7
		c-0.1,0-0.2,0-0.2-0.1c0,0.1,0,0.2,0.1,0.2c0.3,0.4,0.6,0.7,0.9,1c0.1,0.1,0.2,0.2,0.3,0.2C15.6,9.3,15.1,9.8,14.6,10.4z
		 M19.9,15.3C19.9,15.2,19.9,15.2,19.9,15.3c-1.8-1.5-3.7-3-5.6-4.5c0,0.1,0,0.2,0.1,0.2c0.6,1,1.3,1.9,1.9,2.9
		c0.2,0.3,0.4,0.6,0.9,0.5c0,0,0,0,0,0c-0.8,0.5-1.6,1-2.4,1.5c0.5,0.5,1,0.9,1.5,1.4c0,0,0.1,0.1,0.2,0c1.2-0.3,2.3-0.9,3.3-1.7
		c-0.1-0.1-0.1-0.2-0.2-0.2c-0.1-0.1-0.2-0.1-0.3-0.1c0,0,0,0,0-0.1C19.6,15.3,19.7,15.3,19.9,15.3z M15,7c0.1,0,0.1,0.1,0.2,0.1
		c1.1,0.5,2.3,0.9,3.5,1.1c0.8,0.1,1.7,0.2,2.5,0.2c0.3,0,0.6-0.1,0.8-0.5c-2.5-1.1-5.1-2.2-7.6-3.3c0.2,0.3,0.4,0.6,0.6,0.9
		c0.2,0.3,0.3,0.6,0.7,0.8c0,0-0.1,0.1-0.1,0.1C15.3,6.6,15.2,6.8,15,7z M2.8,15.7c-1.2,2-1.1,4.6-0.2,6.3c0.3-0.2,0.5-0.4,0.8-0.6
		c0.1-0.1,0.2-0.2,0.2-0.4c-0.1-1.5-0.1-2.9-0.2-4.4C3.4,16.1,3.2,15.8,2.8,15.7z M14.7,10.9C14.7,10.9,14.7,10.9,14.7,10.9
		c1.8,1.5,3.6,2.9,5.4,4.4c0.3-0.5,0.7-0.9,1-1.4C19,12.9,16.9,11.9,14.7,10.9z M15,10.9c2.1,1,4.2,1.9,6.3,2.9
		c0.2-0.8,0.4-1.5,0.5-2.3C19.4,11.9,17.2,11.7,15,10.9z M3.6,16.2c0.1,1.6,0.3,3.1,0.4,4.6c0.6-0.5,1.2-0.9,1.7-1.3
		c-0.4-0.2-0.8-0.4-1.2-0.5c0,0,0,0,0-0.1c0.1,0,0.2,0,0.3,0c0.1,0,0.3,0,0.4,0c0.3-0.3,0.6-0.6,0.9-0.9C5.3,17.4,4.5,16.8,3.6,16.2
		z M23.5,25.1c-6.1,0-12.2,0-18.3,0c0.1,0.1,0.1,0.3,0.2,0.4c0.1-0.1,0.1-0.1,0.2-0.2c0.1,0,0.2,0,0.3,0c0,0.1,0,0.2,0,0.2
		c0.3,0,0.6,0,0.9,0c0-0.1,0-0.2,0.1-0.2c0.1,0,0.2,0,0.3,0c0,0.1,0,0.2,0.1,0.2c0.3,0,0.6,0,0.9,0c0-0.1,0-0.2,0.1-0.2
		c0.1,0,0.2,0,0.3,0c0,0.1,0,0.2,0.1,0.2c0.3,0,0.6,0,0.9,0c0-0.1,0-0.2,0.1-0.2c0.1,0,0.2,0,0.3,0c0,0.1,0,0.2,0,0.2
		c0.3,0,0.6,0,0.9,0c0-0.1,0-0.2,0-0.2c0.1,0,0.2,0,0.3,0c0,0.1,0,0.2,0,0.2c0.3,0,0.6,0,0.9,0c0-0.1,0-0.2,0.1-0.2
		c0.1,0,0.2,0,0.3,0c0,0.1,0,0.2,0,0.2c0.3,0,0.6,0,0.9,0c0-0.1,0-0.2,0.1-0.2c0.1,0,0.2,0,0.3,0c0,0.1,0,0.2,0.1,0.2
		c0.3,0,0.6,0,0.9,0c0-0.1,0-0.2,0.1-0.2c0.1,0,0.2,0,0.3,0c0,0.1,0,0.2,0,0.2c0.3,0,0.6,0,0.9,0c0-0.1,0-0.2,0-0.2
		c0.1,0,0.2,0,0.3,0c0,0.1,0,0.2,0.1,0.2c0.3,0,0.6,0,0.9,0c0-0.1,0-0.2,0-0.2c0.1,0,0.2,0,0.3,0c0,0.1,0,0.2,0.1,0.2
		c0.3,0,0.6,0,0.9,0c0-0.1,0-0.2,0-0.2c0.1,0,0.2,0,0.3,0c0,0.1,0,0.2,0,0.2c0.3,0,0.6,0,0.9,0c0-0.1,0-0.2,0-0.2c0.1,0,0.2,0,0.3,0
		c0,0.1,0,0.2,0.1,0.2c0.3,0,0.6,0,0.9,0c0-0.1,0-0.2,0-0.2c0.1,0,0.2,0,0.3,0c0,0.1,0,0.2,0.1,0.2c0.3,0,0.6,0,0.8,0
		c0-0.1,0-0.2,0.1-0.2c0.1,0,0.2,0,0.3,0c0,0.1,0,0.2,0.1,0.2c0.4,0,0.7,0,1.1,0C23.5,25.3,23.5,25.2,23.5,25.1z M16.5,14.4
		c-0.8-1.2-1.6-2.4-2.4-3.5c0,0-0.1,0-0.1,0c0,0.1-0.1,0.2-0.1,0.4c0,0.6,0,1.1,0,1.7c0,0.5,0,1.1,0,1.7c0.4,0,0.7,0,1.1,0
		c0,0,0.1,0,0.1,0c0.1-0.2,0.3-0.1,0.5-0.1C15.9,14.4,16.2,14.4,16.5,14.4z M20.8,16c-0.3-0.1-0.5-0.2-0.8-0.3
		c-1,0.8-2.1,1.4-3.5,1.8c0.3,0.3,0.6,0.6,1.1,0.5c0.4-0.1,0.8,0,1.2-0.1c0.2,0,0.4,0,0.6-0.1c-0.2-0.2-0.4-0.4-0.6-0.5
		c0,0,0,0,0.1-0.1c0.2,0.2,0.4,0.3,0.7,0.5c0.3-0.2,0.6-0.4,0.9-0.6c0.1,0,0.1-0.1,0.1-0.2C20.6,16.6,20.7,16.3,20.8,16z M35.3,19.1
		c-0.1,0-0.1,0-0.1,0c-0.7,0.4-1.4,0.7-2.1,1.1c-0.1,0-0.1,0.1-0.2,0.2c-1.2,1.5-2.4,3-3.6,4.4c-0.1,0.2-0.1,0.4-0.1,0.6
		C31.2,23.3,33.2,21.2,35.3,19.1z M25,20.1c0.8,0.7,1.6,1.5,2.5,2.2c0,0,0.2,0,0.2,0c0.2-0.1,0.5-0.3,0.7-0.4
		c-0.4-0.7-0.8-1.5-1.2-2.2c-0.3-0.5-0.3-0.5-0.7-0.2c-0.1,0.1-0.3,0.2-0.5,0.2C25.7,19.8,25.3,19.9,25,20.1z M23,18.2
		C23,18.2,23,18.3,23,18.2c0.4,0.4,0.7,0.8,1.3,0.7c0.2,0,0.4,0,0.5,0c0.1,0,0.1,0,0.2,0c0.2-0.2,0.4-0.1,0.6-0.1c0.3,0,0.6,0,0.9,0
		c-0.8-0.7-1.7-1.4-2.5-2c0,0-0.1-0.1-0.2-0.1c-0.2,0.1-0.4,0.2-0.6,0.3c0,0-0.1,0.1-0.1,0.1c0,0.3,0,0.5,0,0.8c0.1,0,0.2,0,0.3,0.1
		c0,0,0,0,0,0.1C23.2,18.1,23.1,18.1,23,18.2z M21.9,11c-0.2-0.1-0.4-0.1-0.6-0.2c-0.2-0.1-0.3-0.1-0.5-0.1
		c-1.6,0.3-3.1,0.4-4.7,0.1c-0.5-0.1-1-0.2-1.6-0.3c0.1,0.1,0.2,0.1,0.3,0.1c2.1,0.9,4.3,1.1,6.6,0.9C21.9,11.5,21.9,11.5,21.9,11z
		 M22.4,8.8c-0.2-0.1-0.4-0.1-0.6-0.2c-0.1,0-0.3-0.1-0.4-0.1c-0.4,0-0.8,0-1.1,0c-1.8-0.1-3.5-0.6-5.1-1.3c-0.1,0-0.2-0.1-0.2-0.1
		c0,0.1,0.1,0.1,0.2,0.2c0.5,0.3,1.1,0.6,1.6,0.8c1.7,0.8,3.5,1.1,5.4,0.9C22.4,9,22.5,9,22.4,8.8z M9.5,20
		c-0.3,0.3-0.6,0.6-0.9,0.8c-0.5,0.3-0.6,0.7-0.5,1.2c0,0.2,0,0.4,0,0.7c0.3-0.1,0.6-0.2,0.9-0.3c0.2,0,0.3-0.1,0.3-0.3
		c0.1-0.5,0.3-1.1,0.5-1.6C9.7,20.4,9.7,20.2,9.5,20z M5.8,19.5c-0.3,0.3-0.7,0.5-1,0.8c-0.2,0.2-0.6,0.4-0.7,0.6
		c-0.1,0.3,0,0.6,0,0.9c0,0.3,0.1,0.6,0.1,1C4.9,21.8,5.9,20.9,5.8,19.5z M19,22c0.1-0.7,0.1-1.4,0.2-2c-0.2,0-0.4-0.1-0.6-0.1
		c-0.6,0.1-1.1,0.2-1.7,0.3C17.6,20.8,18.3,21.4,19,22z M23,12.2c0,0.8,0,1.5,0,2.3c0,0.1,0.1,0.2,0.2,0.2c0.3,0.2,0.7,0.3,1,0.5
		c0.1,0.1,0.3,0.1,0.5,0.1C24.1,14.2,23.6,13.2,23,12.2z M23.9,16.6c0.9,0.7,1.8,1.4,2.6,2c0,0,0,0,0,0c-0.5-0.9-1-1.8-1.5-2.6
		C24.7,16.2,24.3,16.4,23.9,16.6z M8.3,16.1c0.5-0.1,1-0.2,1.5-0.4c-0.5-0.8-1-1.5-1.5-2.3C8.3,14.4,8.3,15.3,8.3,16.1z M14.2,17.4
		c0.7,0.1,1.4,0.1,2.1,0c-0.3-0.3-0.5-0.5-0.8-0.7c-0.2-0.2-0.5-0.4-0.7-0.7c-0.8,0.5-0.8,0.5-0.7,1.1c0.1,0,0.2,0,0.4,0
		C14.3,17.2,14.3,17.3,14.2,17.4z M13.5,20c0.9,0.4,1.6,0,2.3-0.5c-0.2-0.3-0.5-0.4-0.8-0.4c-0.3,0-0.6,0-0.9,0c-0.2,0-0.4,0-0.6,0
		C13.5,19.4,13.5,19.7,13.5,20z M10.2,22.2c-0.4,0.1-0.7,0.2-1,0.3c-0.1,0-0.1,0.1-0.1,0.1c-0.2,0.5-0.3,1-0.4,1.5
		c0.4,0,0.7,0,1,0.1C9.9,23.5,10,22.9,10.2,22.2z M8.7,10.8c0.3,0.3,0.7,0.6,1,0.9c0,0,0.2,0,0.2,0c0.6-0.1,0.6-0.7,0.9-1.1
		c-0.5-0.1-0.9-0.1-1.2-0.2c0,0-0.1,0-0.1,0C9.2,10.6,9,10.7,8.7,10.8z M29.2,24.8C29.2,24.8,29.2,24.8,29.2,24.8
		c1.1-1.3,2.1-2.5,3.1-3.8c-1,0.9-2,1.9-3,2.9c0,0-0.1,0.1-0.1,0.2C29.2,24.2,29.2,24.5,29.2,24.8z M11.5,13.5
		c-0.1-0.1-0.2-0.2-0.3-0.3c-0.1-0.2-0.2-0.1-0.4-0.1c-0.4,0.2-0.7,0.3-1.1,0.5c-0.2,0.1-0.3,0.1-0.6,0.2c0.6,0.2,1.2,0.3,1.7,0.5
		c0.1,0,0.2,0,0.2-0.1C11.2,14,11.4,13.8,11.5,13.5z M27,24.8c0.7,0.1,1.4,0.1,2,0.2c0-0.4,0-0.7,0-1C28.2,23.9,27.6,24.2,27,24.8z
		 M12.7,14.5c0.2-1,0.4-2,0.6-2.9c0,0,0,0-0.1-0.1c-0.2,0.2-0.5,0.4-0.6,0.6c-0.2,0.6-0.3,1.2-0.4,1.8c0,0.1,0,0.2,0,0.2
		C12.4,14.2,12.6,14.3,12.7,14.5z M11.5,9.7c-0.6-0.1-1.2-0.3-1.8-0.4c0,0-0.1,0-0.2,0.1C9.4,9.5,9.3,9.7,9.1,9.8
		c0.1,0.2,0.2,0.3,0.3,0.4c0,0,0.1,0.1,0.2,0.1C10.3,10.2,10.9,10,11.5,9.7z M14.7,7.5c-0.4,0.4-0.8,0.7-0.5,1.3c0.5,0,1,0,1.6,0
		C15.4,8.3,15.1,7.9,14.7,7.5z M10.7,15.2c-0.7-0.6-1.4-1.1-2.1-1.6c0.4,0.6,0.7,1.2,1.1,1.8c0.2,0.3,0.3,0.4,0.6,0.2
		C10.5,15.6,10.6,15.4,10.7,15.2z M27.8,22.7c-0.1-0.2-0.2-0.2-0.4-0.1c-0.5,0.3-1,0.6-1.5,0.9c-0.5,0.3-0.9,0.5-1.4,0.8
		c0,0,0,0,0,0.1c0.3,0,0.6,0,0.8-0.1c0.7-0.3,1.3-0.7,1.9-1c0-0.1,0-0.2,0-0.2C27.4,22.9,27.5,22.8,27.8,22.7z M20,22.9
		C20,22.9,20.1,22.9,20,22.9c0.4-0.9,0.8-1.7,1.2-2.6c-0.4,0-0.2,0.5-0.4,0.7c0-0.3,0.1-0.5,0.1-0.7c-0.2,0-0.3,0-0.4,0
		c0,0,0,0.1,0,0.1c-0.2,0.7-0.3,1.5-0.5,2.2C19.9,22.7,20,22.8,20,22.9z M19.8,22.6c0.2-0.8,0.4-1.6,0.5-2.4c-0.2,0-0.3,0-0.4-0.1
		c-0.1,0.4-0.2,0.8-0.3,1.1c0,0-0.1,0-0.1,0c0.1-0.4,0.2-0.8,0.2-1.2c-0.1,0-0.2,0-0.3,0c0,0.7,0,1.3,0,2
		C19.4,22.3,19.5,22.5,19.8,22.6z M9.8,20.4c-0.2,0.7-0.4,1.3-0.6,2c0.1,0,0.1,0,0.2,0c0.9-0.3,0.9-0.3,0.9-1.2c0-0.1,0-0.2-0.1-0.2
		C10.1,20.8,10,20.6,9.8,20.4z M11.1,21.7c0.1-0.5,0.2-0.9,0.3-1.4c0.1-0.6,0.1-0.6-0.5-0.8c-0.1,0.4-0.2,0.7-0.2,1.1
		C10.6,21.1,10.6,21.5,11.1,21.7z M11,13c-0.2-0.2-0.4-0.4-0.6-0.6c-0.1-0.1-0.3-0.1-0.4,0c-0.4,0.3-0.6,0.8-0.9,1.2
		c0,0,0,0.1,0.1,0.1C9.7,13.5,10.3,13.2,11,13z M16.1,19.5c0.2,0.2,0.4,0.4,0.6,0.6c0,0,0.1,0.1,0.2,0.1c0.5-0.1,1-0.1,1.5-0.2
		c-0.6-0.3-1.1-0.5-1.7-0.7c0,0-0.1,0-0.2,0C16.4,19.3,16.2,19.4,16.1,19.5z M8,21.2C8.5,20.8,9,20.4,9.4,20
		c-0.1-0.2-0.2-0.3-0.3-0.4C8,20.1,8,20.1,8,21.2C8,21.1,8,21.2,8,21.2z M8,24.1c0.6,0.1,0.6,0.1,0.7-0.4c0-0.1,0.1-0.3,0.1-0.4
		C8.9,23.1,9,22.8,9,22.6c-0.3,0.1-0.6,0.2-0.9,0.3C8.1,22.9,8,23,8,23C8,23.4,8,23.7,8,24.1z M15.6,9.2c-0.5,0-1,0-1.5,0
		c0,0.3,0,0.5,0,0.8c0,0.1,0.1,0.2,0.2,0.3c0,0,0.2,0,0.2,0C14.9,10,15.2,9.6,15.6,9.2z M24.4,10.5C24,10,23.6,9.5,23.1,9
		c0,0.5,0,1,0,1.5C23.6,10.5,24,10.5,24.4,10.5z M25.5,15.2c-0.7-1-1.5-1.9-2.2-2.8c0,0.1,0,0.2,0.1,0.2c0.4,0.7,0.8,1.4,1.2,2.2
		C24.7,15.2,25,15.4,25.5,15.2z M10.4,11.6C10.4,11.6,10.4,11.6,10.4,11.6c0.5-0.1,1-0.3,1.5-0.4c0.3-0.1,0.4-0.2,0.4-0.5
		c-0.4,0-0.8,0-1.2,0c0,0-0.1,0-0.1,0.1C10.8,11,10.6,11.3,10.4,11.6z M5.2,23.1C5.5,23,5.7,23,5.7,22.7c0.1-0.5,0.2-0.9,0.3-1.4
		c0.1-0.4,0.2-0.7,0.2-1.1C6,20.5,5.8,20.7,5.7,21C5.5,21.7,5.4,22.4,5.2,23.1z M6.3,22.5c0.3-0.1,0.4-0.3,0.5-0.5
		c0-0.3,0.1-0.6,0.2-0.9C7,20.5,7.1,20,7.2,19.5c0,0,0,0-0.1-0.1c-0.1,0.1-0.3,0.1-0.3,0.2C6.7,20.6,6.5,21.5,6.3,22.5z M23.1,6.7
		c0,0.6,0,1.1,0,1.6c0.4,0,0.8,0,1.2,0C23.9,7.8,23.5,7.3,23.1,6.7z M14.1,6.2c0.4,0,0.8,0,1.2,0c-0.4-0.5-0.8-1-1.2-1.6
		C14.1,5.2,14.1,5.7,14.1,6.2z M10.4,12.3c0.2,0.2,0.4,0.4,0.6,0.5c0,0,0.1,0,0.1,0c0.6-0.1,0.9-0.6,0.9-1.2
		C11.5,11.9,10.9,12.1,10.4,12.3z M32,21C32,21,32,21,32,21c-0.8,0.6-1.6,1.2-2.4,1.8c-0.3,0.2-0.4,0.5-0.3,0.9
		C30.2,22.8,31.1,21.9,32,21z M6.8,19.5C6.7,19.5,6.7,19.5,6.8,19.5c-0.1,0-0.1,0-0.2,0.1c-0.3,0.3-0.3,0.6-0.4,1
		c-0.2,0.7-0.3,1.5-0.5,2.2c0.3-0.1,0.4-0.2,0.4-0.5c0.2-0.8,0.3-1.6,0.5-2.5C6.7,19.7,6.8,19.6,6.8,19.5z M3.6,21.4
		c-0.4,0.3-0.7,0.5-0.9,0.7c0.3,0.7,0.4,0.8,0.9,0.7C3.6,22.4,3.6,21.9,3.6,21.4z M10.3,16.7C10.3,16.7,10.3,16.7,10.3,16.7
		c0.2,0,0.3,0.1,0.4,0.2c0.1-0.2,0.1-0.5,0.2-0.7c-0.2,0-0.3,0.1-0.4,0.1c-0.1,0-0.3,0.1-0.4,0.2c-0.2,0.4-0.4,0.8-0.7,1.2
		c0.1,0.1,0.1,0.1,0.2,0.2c0.3-0.2,0.6-0.5,1-0.7C10.5,16.9,10.4,16.8,10.3,16.7z M8.4,18c0.1,0,0.2,0,0.3,0.1
		c0.1,0,0.3,0.1,0.4,0.1c0.1-0.1,0.2-0.3,0.3-0.5c0,0,0-0.1,0-0.1C9,17.3,8.7,17,8.4,16.7C8.4,17.2,8.4,17.6,8.4,18z M24.7,20
		C24.7,20,24.7,20,24.7,20c-0.1-0.2-0.2-0.3-0.3-0.3c-0.6,0-1.2,0-1.8,0c0,0.2,0,0.4,0,0.6C23.3,20.2,24,20.1,24.7,20z M11,10.6
		c0.4,0,0.8,0,1.2-0.1c0.1,0,0.1-0.1,0.1-0.1c0.1-0.2,0.1-0.3,0.1-0.5c-0.3-0.1-0.5-0.1-0.8-0.2c-0.1,0-0.1,0-0.2,0.1
		C11.4,10,11.2,10.3,11,10.6z M11.9,16.2c-0.1,0.2-0.2,0.3-0.2,0.4c-0.1,0.1-0.1,0.3-0.1,0.5c-0.1,0.3,0,0.4,0.2,0.6
		c0.2,0.1,0.3,0.1,0.3-0.1c0.1-0.3,0.1-0.5,0.2-0.8C12.3,16.5,12.2,16.3,11.9,16.2z M32,20.9C32,20.9,32,20.8,32,20.9
		c-0.7,0.3-1.4,0.7-2.1,1c-0.4,0.2-0.4,0.3-0.3,0.8C30.4,22.1,31.2,21.5,32,20.9z M14.8,15.9c0.4-0.3,0.7-0.5,1.1-0.7
		c-0.7,0-1.3,0-1.9,0c0,0,0,0,0,0.1C14.2,15.4,14.5,15.6,14.8,15.9z M5.5,21.3C5.5,21.3,5.5,21.3,5.5,21.3c-0.4,0.5-0.8,1.1-1.2,1.7
		c0.3,0,0.5,0.1,0.8,0.1C5.2,22.5,5.4,21.9,5.5,21.3z M10.1,12c0,0,0,0.1,0,0.1c0.1,0,0.3,0.1,0.4,0c0.5-0.2,1-0.4,1.4-0.5
		c0.2-0.1,0.3-0.2,0.2-0.4c-0.6,0.2-1.1,0.3-1.6,0.5C10.3,11.8,10.2,11.9,10.1,12z M3.5,16.1C3.5,16.1,3.5,16.1,3.5,16.1
		c0,1.6,0.1,3.3,0.2,4.9c0,0,0.1,0,0.1,0c0-0.1,0.1-0.2,0.1-0.3c-0.1-1.5-0.2-3-0.3-4.5C3.5,16.3,3.5,16.2,3.5,16.1z M9.9,16.6
		c-0.5,0-0.9,0-1.4,0c0,0,0,0,0,0.1c0.3,0.3,0.6,0.6,0.9,0.8C9.6,17.2,9.8,16.9,9.9,16.6z M18.9,19.7c-0.3-0.1-0.5-0.2-0.7-0.3
		c-0.2-0.1-0.4-0.2-0.5-0.3c-0.2-0.1-0.3-0.2-0.5-0.4c0.4-0.1,0.8,0.1,1.1-0.2c-0.5,0-1.1-0.2-1.5,0.5c0.6,0.2,1.2,0.4,1.9,0.7
		C18.7,19.8,18.8,19.8,18.9,19.7z M8.5,13.3C8.5,13.3,8.5,13.3,8.5,13.3c0.1,0.2,0.2,0.3,0.3,0.4c0.2-0.3,0.4-0.7,0.7-1
		c-0.4,0-0.7,0-1.1,0C8.5,12.9,8.5,13.1,8.5,13.3z M8,13.7c-0.6,0.7-0.5,1.6-0.8,2.4c0.2,0.1,0.3,0.1,0.3-0.1
		C7.7,15.3,7.8,14.5,8,13.7z M11.1,21.9C11,21.9,11,21.9,11.1,21.9c-0.2,0-0.4,0.1-0.4,0.2c0,0.6,0,1.3,0,1.9
		c0.2-0.6,0.4-1.2,0.6-1.8C11.3,22.2,11.2,22.1,11.1,21.9c0,0.5-0.1,0.9-0.2,1.3c0,0-0.1,0-0.1,0C10.9,22.8,11,22.4,11.1,21.9z
		 M22.6,12.2c-0.3,0.3-0.5,0.6-0.6,1c0,0.2-0.1,0.4-0.1,0.6c-0.1,0.3-0.1,0.3,0.3,0.4C22.3,13.5,22.4,12.9,22.6,12.2z M11.2,21.7
		C11.3,21.7,11.3,21.7,11.2,21.7c0.1,0,0.3,0,0.3-0.1c0.2-0.5,0.4-1.1,0.6-1.6c-0.2,0-0.3-0.1-0.4-0.1C11.5,20.4,11.4,21,11.2,21.7z
		 M8.4,12c0.3-0.1,0.6-0.1,1-0.2c-0.3-0.4-0.6-0.7-1-1.1C8.4,11.2,8.4,11.6,8.4,12z M12.9,8.8c0.3-0.1,0.5-0.2,0.5-0.4
		c0.1-0.5,0.2-1,0.4-1.5C13.2,7.4,13.1,8.1,12.9,8.8z M26.8,24.9c0,0,0,0.1,0,0.1c0.7,0.2,1.5,0.4,2.3,0.5c0-0.2,0-0.3,0-0.4
		C28.3,25,27.5,25,26.8,24.9z M17,18.1C17,18.1,17,18.1,17,18.1c-0.5-0.1-1-0.1-1.5-0.2c-0.5-0.1-1-0.2-1.5-0.3
		c0.3,0.2,0.7,0.4,1,0.6c0.1,0.1,0.4,0.1,0.4,0c0.1-0.2,0.3-0.1,0.4-0.1C16.4,18.1,16.7,18.1,17,18.1z M10.9,14.8
		c-0.2-0.1-0.4-0.2-0.6-0.4c0.1,0,0.2,0,0.3,0c0,0,0,0,0,0c-0.5-0.1-0.9-0.3-1.4-0.4c0,0,0,0,0,0.1c0.5,0.4,1,0.7,1.5,1.1
		C10.8,15,10.9,14.9,10.9,14.8z M4.7,16.7C4.7,16.8,4.7,16.8,4.7,16.7c0.2,0.2,0.4,0.3,0.5,0.4c0.1,0,0.2,0.1,0.2,0
		c0.3-0.1,0.6-0.3,1-0.4c0.1,0,0.1,0,0.2-0.1c0,0-0.1-0.1-0.1-0.1C5.9,16.7,5.3,16.7,4.7,16.7z M23.2,16C23.2,16,23.1,16,23.2,16
		c0.2,0.2,0.4,0.4,0.6,0.5c0,0,0.1,0.1,0.1,0c0.3-0.2,0.7-0.3,1-0.5c0,0,0,0,0,0C24.3,16,23.7,16,23.2,16z M13.7,11.3
		c-0.2,0.1-0.8,2.5-0.8,3.3c0.1,0,0.1-0.1,0.2-0.2c0.1-0.8,0.3-1.5,0.4-2.3c0-0.1,0-0.2,0.1-0.3c0,0,0,0,0.1,0
		c0,0.2-0.1,0.5-0.1,0.7c0,0,0.1,0,0.1,0c0-0.1,0.1-0.1,0.1-0.2C13.7,12.1,13.7,11.7,13.7,11.3z M16.8,18c-0.2-0.4-0.5-0.6-1-0.5
		c0,0-0.1,0-0.1,0c-0.4,0-0.9,0-1.3,0c0,0,0,0.1,0,0.1C15.2,17.8,16,17.9,16.8,18z M16.6,20.1C16.6,20.1,16.6,20.1,16.6,20.1
		c-0.2-0.2-0.3-0.4-0.5-0.5c0,0-0.1,0-0.1,0c-0.3,0.2-0.6,0.4-1,0.6C15.5,20.1,16,20.1,16.6,20.1z M19.7,23.6
		C19.6,23.6,19.6,23.6,19.7,23.6c0-0.2,0-0.4,0-0.6c0.1-0.2,0-0.4-0.3-0.5c0,0.7,0,1.3,0,2c0.2-0.5,0.4-0.9,0.6-1.4
		c0-0.1,0-0.2-0.1-0.3c0,0-0.1,0-0.1,0C19.8,23.2,19.7,23.4,19.7,23.6z M10.3,20.8c0-0.5,0.1-1,0.1-1.4c-0.2,0-0.3,0-0.4,0.2
		C9.9,20.1,9.8,20.5,10.3,20.8z M22.2,11.6C22.2,11.5,22.2,11.5,22.2,11.6c-0.2,0-0.3,0-0.4,0.1c-0.2,0.5-0.3,1.1-0.4,1.7
		C22.1,12.9,22.1,12.2,22.2,11.6z M7.6,19.4c-0.1,0.1-0.3,0.1-0.3,0.2c-0.1,0.4-0.2,0.8-0.3,1.2c0,0,0.1,0,0.1,0
		c0.3-0.1,0.1-0.5,0.3-0.7c0,0.3,0,0.5,0,0.7c0,0,0.1,0,0.1,0c0-0.1,0.1-0.1,0.1-0.2C7.6,20.3,7.6,19.9,7.6,19.4z M12.7,20.3
		c0-0.4,0.1-0.8,0.1-1.2c-0.2,0.1-0.4,0.1-0.4,0.2c-0.1,0.3-0.3,0.7-0.4,1.1c0.2,0.1,0.3,0,0.3-0.2c0-0.2,0.1-0.4,0.1-0.6
		c0,0,0.1,0,0.1,0c0,0.2-0.1,0.5-0.1,0.7C12.5,20.3,12.6,20.3,12.7,20.3z M13.1,15.1c-0.4,0-0.5,0-0.5,0.4c0.1-0.1,0.3-0.2,0.4-0.3
		c0,0,0,0,0,0.1c-0.1,0-0.1,0.1-0.2,0.1c-0.3,0.2-0.4,0.5-0.5,0.8c0,0.2,0,0.3,0.2,0.4c0.1-0.3,0.1-0.6,0.2-0.9c0,0,0,0,0.1,0
		c0,0.1,0,0.2,0,0.3c0.1,0,0.2,0,0.2,0C13.1,15.7,13.1,15.4,13.1,15.1z M7.8,12.7C7.8,12.7,7.8,12.7,7.8,12.7c-0.1,0-0.3,0-0.3,0.1
		c-0.2,0.6-0.3,1.3-0.5,2C7.7,14.2,7.6,13.4,7.8,12.7z M12.5,12.3C12.5,12.3,12.5,12.3,12.5,12.3c-0.3,0.4-0.6,0.8-0.9,1.2
		c0.2,0.2,0.3,0.3,0.5,0.4C12.3,13.4,12.4,12.9,12.5,12.3z M17.3,18.1C17.3,18.1,17.3,18.1,17.3,18.1c0.2,0,0.5,0,0.8,0
		c0,0,0,0,0,0.1c-0.1,0.1-0.3,0.2-0.5,0.3c0.7,0.2,1.1,0,1.5-0.5C18.5,18,17.9,18.1,17.3,18.1z M21.9,15.4c0.1-0.4,0.1-0.7,0.2-1.1
		c-0.1-0.1-0.2-0.1-0.4-0.2c-0.1,0.4-0.2,0.8-0.3,1.2C21.6,15.4,21.8,15.4,21.9,15.4z M24.2,15.4C24.2,15.4,24.2,15.3,24.2,15.4
		c-0.4-0.3-0.8-0.5-1.2-0.7c0,0.2,0,0.4,0,0.7C23.4,15.4,23.8,15.4,24.2,15.4z M6.5,16.9c-0.4,0.2-0.7,0.3-1,0.4
		c0.3,0.2,0.5,0.4,0.8,0.5C6.4,17.5,6.4,17.2,6.5,16.9z M21.3,14c-0.1,0.4-0.2,0.8-0.3,1.2c0.1,0,0.3,0,0.4,0.1
		c0.1-0.3,0.1-0.6,0.2-0.9C21.7,14.1,21.6,14,21.3,14z M28.4,22.9c-0.3,0.4-0.6,0.7-1,1.1c0.6,0,0.8-0.4,1.2-0.6
		C28.6,23.3,28.5,23.1,28.4,22.9z M13,17.3c-0.4,0-0.7,0.3-1,0.5c0.2,0.2,0.4,0.3,0.7,0.5C12.7,18,12.8,17.7,13,17.3z M6.8,16.3
		c0.2-0.1,0.3-0.1,0.3-0.2c0.1-0.5,0.2-1,0.3-1.6C6.9,15,6.9,15.6,6.8,16.3z M7.9,15C7.9,15,7.9,15,7.9,15c0.1,0.1,0.1,0.3,0,0.5
		c0.1-0.1,0.2-0.1,0.2-0.2c0-0.5,0-1,0-1.5c0,0,0,0-0.1,0c-0.2,0.8-0.3,1.6-0.5,2.4c0,0,0.1,0,0.1,0C7.7,15.8,7.8,15.4,7.9,15z
		 M21.2,14.1C21.2,14,21.2,14,21.2,14.1c-0.3,0.4-0.6,0.8-0.9,1.2c0.3,0,0.4,0,0.7,0C21,14.8,21.1,14.4,21.2,14.1z M10.4,24.3
		c0,0,0.1,0,0.1,0c0-0.7,0-1.4,0-2.1c-0.1,0.1-0.1,0.1-0.1,0.2c0,0.6-0.1,1.2-0.1,1.8C10.2,24.2,10.3,24.2,10.4,24.3z M9.9,10.4
		C9.9,10.4,9.9,10.4,9.9,10.4c0.3,0.1,0.7,0.1,1,0.1c0,0,0.1,0,0.1-0.1c0.1-0.2,0.3-0.4,0.4-0.6C10.9,10.1,10.4,10.2,9.9,10.4z
		 M22.8,9c-0.6,0.4-0.5,1-0.6,1.5c0.1,0,0.3,0,0.3-0.1C22.6,10,22.7,9.5,22.8,9z M10.8,16.9c0.3-0.2,0.5-0.4,0.8-0.6
		c0.1-0.1,0.2-0.5,0.1-0.4c-0.2,0.1-0.5,0.1-0.6,0.3C10.8,16.4,10.8,16.7,10.8,16.9z M22.3,9.7c-0.3,0.2-0.6,0.5-0.9,0.8
		c0.2,0,0.4,0,0.6,0c0.1,0,0.2-0.1,0.2-0.2C22.2,10.1,22.2,9.8,22.3,9.7z M9,9.8C8.8,9.6,8.6,9.3,8.4,9.1c0,0.5,0,0.9,0,1.3
		C8.7,10.2,8.8,10,9,9.8z M21.7,16.4c-0.6,0.2-0.6,0.7-0.6,1.1c0.3,0,0.5-0.1,0.5-0.4C21.6,16.8,21.6,16.6,21.7,16.4z M12.2,24.4
		c0-0.2,0.1-0.4,0.1-0.6c-0.2,0-0.4,0-0.6,0c0,0.2-0.1,0.4-0.1,0.6C11.7,24.3,11.9,24.3,12.2,24.4z M4,22.9c0-0.6-0.1-1.2-0.1-1.8
		c0,0-0.1,0-0.1,0c0,0.1-0.1,0.2-0.1,0.3c0,0.4,0.1,0.9,0.1,1.3C3.8,22.9,3.9,23,4,22.9z M25,10.5C24.5,10,24,9.5,23.4,9.1
		c0.3,0.4,0.6,0.8,1,1.2C24.6,10.5,24.7,10.5,25,10.5z M12,12.3c0.5-0.2,0.8-0.5,0.7-1C12.2,11.5,12.1,11.6,12,12.3z M7.4,10.4
		c0.2,0,0.3,0,0.5,0c0.1,0,0.2-0.1,0.2-0.1c0.1-0.3,0.2-0.7,0.2-1c-0.1,0-0.1,0-0.1,0.1C7.9,9.6,7.6,10,7.4,10.4z M11.5,23.7
		c-0.7,0-0.6-0.1-0.8,0.5C11.6,24.4,11.4,24.4,11.5,23.7z M22.3,14.3C22.3,14.3,22.4,14.3,22.3,14.3c0.1-0.4,0.2-0.7,0.3-1.1
		c0,0,0,0,0.1,0c0,0.2,0,0.4,0,0.6c0.2-0.1,0.2-1.6,0.1-1.8c0,0.1,0,0.2,0,0.3c-0.1,0.6-0.2,1.2-0.3,1.7
		C22.3,14.2,22.3,14.2,22.3,14.3z M22.1,7.9c0.2,0.1,0.3,0.1,0.5,0.2c0.1-0.4,0.2-0.8,0.3-1.2c0,0,0,0-0.1,0
		C22.6,7.2,22.4,7.6,22.1,7.9z M19.3,22.3C19.2,22.3,19.2,22.4,19.3,22.3c-0.1,0.7-0.2,1.5-0.2,2.2c0,0,0,0.1,0.1,0.1
		c0-0.1,0.1-0.1,0.1-0.2c0-0.6,0.1-1.3,0.1-1.9C19.3,22.5,19.3,22.4,19.3,22.3z M10.6,17.3C10.6,17.3,10.5,17.3,10.6,17.3
		c-0.3,0.2-0.6,0.4-0.8,0.6c0.1,0.1,0.2,0.2,0.3,0.2c0.1,0.1,0.3,0.1,0.3-0.1C10.5,17.8,10.5,17.5,10.6,17.3z M10.8,17.2
		c0,0.3,0,0.6,0,0.9c0.1,0.1,0.2,0.1,0.3,0.2C11.4,17.6,11.3,17.5,10.8,17.2z M12.4,23.7c0,0.2,0,0.4-0.1,0.6c0.2,0,0.4,0,0.5,0
		c0,0,0.1,0,0.1,0C13,24,12.7,23.7,12.4,23.7z M26.4,24.1c0.7,0.1,1.1-0.2,1.5-0.8C27.4,23.6,26.9,23.8,26.4,24.1z M20.1,19.2
		c0.1,0.1,0.1,0.3,0.1,0.3c0.2,0,0.5,0,0.7,0c0,0,0.1-0.2,0.1-0.3C20.8,19.2,20.5,19.2,20.1,19.2z M21.2,16c-0.1,0-0.2,0-0.4,0
		c-0.1,0.3-0.1,0.6-0.2,0.9C21.1,16.8,21.2,16.4,21.2,16z M21.5,17.5c-0.5,0.1-0.5,0.1-0.6,0.8c0.4,0,0.4,0,0.5-0.3
		C21.4,17.9,21.4,17.7,21.5,17.5z M24.5,19.2c-0.3,0-0.6,0-1,0c0.1,0.1,0.1,0.3,0.2,0.3c0.2,0,0.5,0,0.7,0
		C24.4,19.5,24.5,19.4,24.5,19.2z M24.5,19.2c0.1,0.1,0.1,0.3,0.2,0.3c0.2,0,0.5,0,0.7,0c0,0,0.1-0.1,0.1-0.2c0,0-0.1-0.1-0.1-0.1
		C25.1,19.2,24.8,19.2,24.5,19.2z M12.3,19.1c-0.2,0-0.4,0-0.5,0c0,0.2-0.1,0.4-0.1,0.6c0.2,0,0.3,0.1,0.4,0.1
		C12.2,19.6,12.3,19.4,12.3,19.1z M22.5,19.2c0.1,0.2,0.1,0.3,0.2,0.3c0.2,0,0.5,0,0.7,0c0,0,0.1-0.1,0.1-0.2c0,0-0.1-0.1-0.2-0.1
		C23.1,19.2,22.8,19.2,22.5,19.2z M11.4,14.4c0.2-0.1,0.5,0.1,0.6-0.2c0.1-0.2-0.1-0.4-0.4-0.6C11.6,13.9,11.5,14.1,11.4,14.4z
		 M8.6,9C8.6,9,8.6,9.1,8.6,9c0.1,0.3,0.3,0.5,0.5,0.7c0.2-0.2,0.3-0.3,0.5-0.5C9.2,9.2,8.9,9.1,8.6,9z M13.1,9.9
		c0.1-0.3,0.1-0.5,0.2-0.7c-0.5-0.1-0.5-0.1-0.6,0.6C12.8,9.9,12.9,9.9,13.1,9.9z M6.2,18.1C6.2,18.1,6.2,18.1,6.2,18.1
		c-0.3,0.2-0.6,0.5-0.8,0.8c0.2,0,0.4,0,0.5,0c0.1,0,0.1-0.1,0.2-0.1C6.1,18.5,6.2,18.3,6.2,18.1z M13.7,9.2c-0.3,0-0.4,0.1-0.4,0.7
		c0.1,0,0.3,0.1,0.4,0.1C13.7,9.8,13.7,9.5,13.7,9.2z M14.1,18.6c0.1,0.1,0.1,0.3,0.2,0.3c0.2,0,0.5,0,0.7,0c0,0,0.1-0.2,0.1-0.3
		c-0.3,0-0.6,0-0.8,0C14.3,18.6,14.3,18.6,14.1,18.6z M7.3,17c-0.4,0.2-0.4,0.3-0.5,0.9c0,0.2,0,0.3,0.2,0.4
		C7.1,17.9,7.2,17.5,7.3,17z M14.4,18.3C14.4,18.3,14.4,18.2,14.4,18.3c-0.3-0.2-0.4-0.6-0.9-0.4c0,0.2,0,0.3,0,0.4
		C13.8,18.3,14.1,18.3,14.4,18.3z M10.5,18.6c0.1,0.1,0.1,0.3,0.1,0.3c0.2,0,0.5,0,0.7,0c0,0,0.1-0.2,0.1-0.3
		C11.2,18.6,10.9,18.6,10.5,18.6z M11.5,18.6c0.1,0.1,0.1,0.3,0.2,0.3c0.2,0,0.5,0,0.7,0c0,0,0.1-0.2,0.1-0.3
		C12.2,18.6,11.9,18.6,11.5,18.6z M23.7,16.6c-0.2-0.2-0.5-0.4-0.7-0.5c0,0.3,0,0.6,0,0.8C23.3,16.8,23.5,16.7,23.7,16.6z M14.6,7.4
		c-0.2-0.2-0.3-0.4-0.5-0.6c0,0.4,0,0.7,0,1.1C14.3,7.7,14.5,7.5,14.6,7.4z M14.7,15.9c-0.2-0.2-0.4-0.4-0.6-0.6c0,0.3,0,0.6,0,1
		C14.3,16.2,14.5,16.1,14.7,15.9z M5.8,20.6c0.2-0.3,0.6-0.6,0.6-1.1c-0.1,0-0.3,0.1-0.4,0.1C5.9,19.9,5.8,20.2,5.8,20.6z
		 M20.9,17.7c-0.4,0-0.5,0.2-0.5,0.7C20.8,18.4,20.8,18.4,20.9,17.7z M11.7,23.1c-0.6-0.1-0.6-0.1-0.7,0.5c0.2,0,0.4,0,0.6,0
		C11.6,23.4,11.6,23.3,11.7,23.1z M21.2,18.9c0.3,0,0.6,0,0.9,0c0-0.2,0-0.4,0-0.6C21.8,18.5,21.5,18.7,21.2,18.9z M22.1,20.3
		c0-0.2-0.2-0.5-0.4-0.5c-0.3,0-0.2,0.3-0.4,0.5C21.6,20.3,21.8,20.3,22.1,20.3z M13.5,20.7c0.3-0.2,0.6-0.3,0.9-0.4c0,0,0,0,0-0.1
		c-0.3,0-0.6-0.1-0.9-0.1C13.5,20.4,13.5,20.5,13.5,20.7z M22.9,9.1C22.9,9.1,22.9,9.1,22.9,9.1c-0.1,0.4-0.2,0.9-0.3,1.4
		c0.1,0,0.2,0,0.3,0C22.9,10,22.9,9.6,22.9,9.1z M29,23.2c-0.3,0.2-0.6,0.4-0.9,0.7c0,0,0,0,0,0.1c0.3,0,0.6-0.1,0.8-0.1
		C29,23.6,29,23.5,29,23.2z M22.9,18.4c-0.1,0.2-0.5,0.1-0.4,0.5c0.3,0,0.6,0,0.9,0C23.3,18.7,23.1,18.6,22.9,18.4z M22.1,16.5
		C22.1,16.5,22.1,16.5,22.1,16.5c0.1-0.2,0.1-0.3,0.1-0.5c-0.6,0.3-0.4,0.9-0.5,1.3c0.3-0.2,0.2-0.6,0.3-0.9
		C22,16.5,22.1,16.5,22.1,16.5z M12.3,8.8c0.2,0,0.3,0,0.4,0c0.1,0,0.2-0.1,0.2-0.1c0.1-0.3,0.1-0.5,0.2-0.8C13,7.9,13,7.9,12.9,8
		C12.7,8.2,12.5,8.5,12.3,8.8z M11.7,19.1c-0.1,0-0.2,0-0.2,0c-0.1,0-0.3,0-0.4,0c-0.1,0.3-0.1,0.4,0.5,0.5
		C11.6,19.5,11.7,19.3,11.7,19.1z M9.8,12.2C9.7,12.1,9.5,12,9.4,12c-0.3,0-0.6,0.1-1,0.2c0,0,0,0.1-0.1,0.1
		C8.9,12.2,9.3,12.2,9.8,12.2z M19.4,20.1c0,0-0.1,0-0.1,0c0,0.7-0.1,1.4-0.1,2.1c0,0,0.1,0,0.1,0C19.3,21.5,19.4,20.8,19.4,20.1z
		 M2.5,22.2c-0.2,0.2-0.4,0.3-0.6,0.5c0.3,0,0.6,0.1,0.9,0.1C2.7,22.6,2.6,22.4,2.5,22.2z M20.5,17.6c0.5,0,0.5-0.1,0.5-0.8
		C20.7,17,20.5,17.2,20.5,17.6z M7.7,12.1C7.7,12.1,7.8,12.1,7.7,12.1C7.8,12.1,8,12,8,12c0.1-0.3,0.2-0.7,0.2-1.1
		C7.8,11.2,7.8,11.7,7.7,12.1z M12.5,9.8c0.1-0.2,0.1-0.4,0.1-0.6c0,0,0,0-0.1,0c-0.3,0.1-0.5,0.3-0.8,0.5
		C12.1,9.7,12.3,9.8,12.5,9.8z M8.8,16.1C8.8,16.2,8.8,16.2,8.8,16.1c0.4,0,0.9,0,1.3,0c0,0,0,0,0-0.1c-0.1-0.1-0.2-0.2-0.3-0.2
		C9.5,16,9.1,16.1,8.8,16.1z M11.5,16.5C11.5,16.5,11.5,16.5,11.5,16.5c-0.3,0.1-0.5,0.3-0.7,0.5c0.2,0.1,0.3,0.2,0.5,0.4
		C11.4,17.1,11.5,16.8,11.5,16.5z M11.7,23.6c0.2,0,0.3,0,0.5,0c0.2,0,0.2-0.1,0.2-0.2c-0.1-0.1-0.2-0.2-0.3-0.3
		c-0.2-0.1-0.2,0.1-0.3,0.2C11.7,23.4,11.7,23.5,11.7,23.6z M12.4,16.5c-0.1,0.3-0.1,0.7-0.2,1.1c0.2-0.1,0.3-0.2,0.3-0.2
		c0-0.2,0.1-0.3,0.1-0.4C12.6,16.8,12.7,16.6,12.4,16.5z M7.7,11.4C7.7,11.4,7.7,11.4,7.7,11.4c-0.3,0.2-0.5,0.5-0.8,0.8
		c0.2,0,0.4,0,0.5-0.1c0.1,0,0.1-0.1,0.1-0.1C7.7,11.8,7.7,11.6,7.7,11.4z M13.1,19.1c0,0-0.1,0-0.1,0c-0.1,0.4-0.1,0.8-0.1,1.2
		c0.1,0,0.2-0.1,0.2-0.1C13.1,19.8,13.1,19.5,13.1,19.1z M6.3,18.1c-0.1,0.3-0.1,0.5-0.2,0.8c0.2,0,0.3,0.1,0.4-0.1
		C6.7,18.3,6.7,18.3,6.3,18.1z M19.5,24.7c0.5,0.1,0.6,0,0.6-0.4C19.7,24.2,19.6,24.2,19.5,24.7z M13,23.6c0-0.2,0-0.3,0-0.5
		c-0.2,0-0.4,0-0.5,0C12.4,23.5,12.6,23.6,13,23.6z M22.8,11.5c0,0-0.1-0.1-0.1-0.1c-0.1,0.1-0.3,0.1-0.3,0.2
		c-0.1,0.3-0.1,0.5-0.2,0.8c0.4-0.4,0.5-0.5,0.4-0.8C22.6,11.6,22.7,11.6,22.8,11.5z M6.9,24c0-0.2,0-0.3,0-0.5
		c-0.2,0-0.3,0-0.5-0.1c0,0.2-0.1,0.3-0.1,0.5C6.6,24,6.7,24,6.9,24z M11.8,12.6c-0.3,0.2-0.5,0.3-0.7,0.4c0.2,0.1,0.3,0.3,0.5,0.4
		C11.7,13.1,11.7,12.9,11.8,12.6z M13.6,15.1c-0.1,0.1-0.2,1-0.1,1.5C13.7,16.5,13.8,15.5,13.6,15.1z M15.3,18.5
		c0,0-0.1,0.1-0.1,0.1c0,0.1,0.1,0.2,0.1,0.3c0.2,0.1,0.5,0.1,0.7-0.1C15.8,18.7,15.5,18.6,15.3,18.5z M21.3,24.7
		c0-0.2,0-0.3,0.1-0.5c-0.5,0-0.5,0-0.5,0.5c0.1,0,0.1,0,0.2,0C21.1,24.7,21.2,24.7,21.3,24.7z M12.5,10.5c0.5,0,0.5,0,0.6-0.5
		c-0.1,0-0.3-0.1-0.4-0.1c0,0.2-0.1,0.3-0.1,0.4C12.5,10.4,12.5,10.4,12.5,10.5z M10.3,16.2c0.5,0,0.7-0.1,0.7-0.5
		C10.5,15.7,10.4,15.7,10.3,16.2z M6.4,17.6c0.4-0.3,0.5-0.4,0.5-0.9C6.4,16.8,6.6,17.3,6.4,17.6z M8.9,18.4
		c-0.2-0.1-0.4-0.3-0.6-0.1c-0.2,0.3,0.2,0.3,0.3,0.5C8.7,18.7,8.8,18.5,8.9,18.4z M9,18.5c-0.1,0.1-0.1,0.3-0.2,0.4
		c0.3,0,0.6,0,1,0c0,0,0,0,0-0.1C9.5,18.7,9.2,18.6,9,18.5z M6.1,23.3c0.1-0.1,0.3-0.1,0.3-0.2c0.1-0.2,0.1-0.4,0.1-0.7
		C6.2,22.5,6.2,22.8,6.1,23.3z M7,24c0.2,0,0.3,0,0.5,0c0-0.1,0-0.3,0-0.4c-0.2,0-0.3,0-0.5-0.1C7.1,23.7,7,23.9,7,24z M20.7,24.2
		c-0.5-0.1-0.5,0-0.5,0.4C20.7,24.7,20.7,24.7,20.7,24.2z M13,23c0-0.2,0-0.3,0-0.4c-0.2,0-0.3,0-0.5,0c0,0.1,0,0.3,0,0.4
		C12.7,23,12.8,23,13,23z M11.2,23c0.5,0.1,0.6,0.1,0.6-0.2c0-0.1-0.1-0.2-0.2-0.2C11.3,22.5,11.2,22.6,11.2,23z M8.1,16.6
		C8.1,16.6,8,16.6,8.1,16.6C8,17.1,8,17.6,8,18c0,0,0,0,0.1,0C8.1,17.6,8.1,17.1,8.1,16.6z M12.6,22c0,0.1,0,0.3-0.1,0.4
		c0.2,0,0.3,0,0.5,0c0-0.1,0-0.3,0-0.4C12.9,22,12.7,22,12.6,22z M12.4,22.5c0-0.1,0-0.3,0.1-0.4C12,22,12,22,12,22.5
		C12.1,22.5,12.3,22.5,12.4,22.5z M25.5,19.2c0.1,0.1,0.1,0.2,0.1,0.3c0.2,0.1,0.6-0.1,0.7-0.3C26.1,19.2,25.9,19.2,25.5,19.2z
		 M6.6,23.2C7.1,23.1,7.1,23,7,22.6C6.6,22.6,6.6,22.6,6.6,23.2z M7.7,13.8c0.1-0.2,0.5-0.3,0.3-0.6C8,13.1,8.1,13,8.1,12.9
		c0-0.1-0.1-0.1-0.1-0.2c0,0.1-0.1,0.1-0.1,0.2C7.8,13.2,7.7,13.5,7.7,13.8z M21.9,13.1C21.9,13.1,21.9,13.1,21.9,13.1
		c-0.2,0.1-0.3,0.3-0.4,0.4c-0.2,0.3-0.2,0.3,0.2,0.4C21.8,13.7,21.8,13.4,21.9,13.1z M11.3,15c0,0.2-0.1,0.3-0.1,0.5
		c0.2-0.1,0.6,0,0.7-0.3C11.7,15,11.5,15,11.3,15z M19.1,19.2c-0.4,0-0.6,0-0.9,0c0.1,0.2,0.5,0.4,0.7,0.3
		C19,19.5,19,19.4,19.1,19.2z M19.4,18c-0.3,0.2-0.5,0.3-0.7,0.5c0,0,0,0,0,0.1c0.2,0,0.4,0,0.7,0C19.4,18.3,19.4,18.1,19.4,18z
		 M22,24.1c0-0.2,0-0.3,0-0.4c-0.2,0-0.3,0-0.5,0c0,0.1,0,0.3-0.1,0.4C21.7,24.1,21.8,24.1,22,24.1z M20.1,18.5c-0.1,0-0.3,0-0.4,0
		c-0.1,0-0.2,0.1-0.2,0.1c0.1,0.1,0.1,0.2,0.3,0.3C20.1,19,20.1,18.8,20.1,18.5z M11.3,18.3c0.4,0,0.7,0,1,0
		c-0.2-0.1-0.3-0.3-0.5-0.4C11.6,18,11.5,18.1,11.3,18.3z M19.5,19.2c0,0.1,0,0.2,0,0.4c0.4,0.1,0.6,0,0.5-0.4
		C19.9,19.2,19.7,19.2,19.5,19.2z M20.3,23.7c-0.5,0-0.5,0-0.6,0.4C20.2,24.2,20.2,24.1,20.3,23.7z M13.9,6.2c0-0.3,0-0.7,0-1
		c0,0,0,0,0,0c-0.1,0.3-0.2,0.7-0.3,1.1C13.7,6.2,13.8,6.2,13.9,6.2z M20.5,19.8c0,0.1-0.1,0.3-0.1,0.4c0.2,0,0.3,0,0.4,0.1
		c0-0.2,0.1-0.3,0.1-0.5C20.8,19.8,20.7,19.8,20.5,19.8z M12.5,21.9c0-0.1,0-0.3,0.1-0.4c-0.4-0.1-0.5,0-0.5,0.4
		C12.2,21.9,12.3,21.9,12.5,21.9z M10.6,19.3c-0.2,0.4-0.2,1.6,0,1.7C10.6,20.5,10.6,19.9,10.6,19.3z M22,23.1c-0.1,0-0.3,0-0.4,0
		c0,0.2,0,0.3,0,0.4c0.2,0,0.3,0,0.4,0C22,23.4,22,23.3,22,23.1z M14.1,18.6c-0.2,0-0.4,0-0.5,0c0,0.1,0,0.2,0,0.3
		C14,19,14.1,18.9,14.1,18.6z M21.5,23.5c0-0.1,0-0.2,0-0.2c0-0.1,0-0.1,0-0.2c-0.4-0.1-0.4-0.1-0.5,0.4
		C21.2,23.5,21.3,23.5,21.5,23.5z M13.1,18.3c0-0.3,0-0.6,0-0.9c0,0,0,0,0,0c-0.1,0.3-0.2,0.6-0.3,0.9C12.9,18.3,13,18.3,13.1,18.3z
		 M13.7,14.2c-0.5-0.1-0.6,0-0.5,0.3c0.2,0,0.3,0,0.5,0C13.7,14.4,13.7,14.3,13.7,14.2z M18.4,18.7C18.4,18.7,18.4,18.8,18.4,18.7
		c0.3,0.1,0.6,0.1,0.9,0.1c0.1,0,0.1-0.1,0.2-0.1c-0.1,0-0.1-0.1-0.2-0.1c-0.2,0-0.4,0-0.6,0C18.6,18.6,18.5,18.7,18.4,18.7z
		 M13,21.9c0-0.2,0-0.3,0-0.4c-0.1,0-0.2,0-0.4,0c0,0.1,0,0.3-0.1,0.4C12.7,21.9,12.9,21.9,13,21.9z M6.1,23.4C6,23.6,6,23.8,6,24
		c0.1,0,0.2,0,0.4,0c0-0.2,0.1-0.3,0.1-0.5C6.3,23.4,6.2,23.4,6.1,23.4z M20.3,24.1c0.2-0.1,0.5,0.1,0.5-0.2c0-0.1,0-0.2-0.1-0.3
		C20.4,23.6,20.4,23.9,20.3,24.1z M10.5,18.6c-0.3,0-0.6,0-0.9,0c0.2,0.2,0.5,0.3,0.7,0.3C10.4,18.9,10.5,18.7,10.5,18.6z M22,15.4
		C22,15.4,22.1,15.4,22,15.4c0.1,0,0.2,0,0.2-0.1c0.1-0.3,0.1-0.8,0-0.9C22.2,14.7,22.1,15,22,15.4z M7.7,16.8
		C7.7,16.8,7.7,16.8,7.7,16.8c-0.1,0.4-0.2,0.8-0.2,1.2c0,0,0,0,0.1,0.1c0.1-0.1,0.2-0.1,0.2-0.2C7.7,17.5,7.7,17.2,7.7,16.8z
		 M7.5,16.8c-0.2,0.4-0.2,0.8-0.3,1.2C7.5,17.6,7.5,17.2,7.5,16.8z M13.3,13.7c0,0.1,0,0.3-0.1,0.4c0.2,0,0.3,0,0.5,0
		c0-0.1,0-0.3,0-0.4C13.5,13.7,13.4,13.7,13.3,13.7z M13.9,7.2C13.9,7.2,13.9,7.2,13.9,7.2c-0.1,0.4-0.2,0.7-0.3,1.1c0,0,0,0,0.1,0
		c0.1-0.1,0.2-0.2,0.2-0.3C13.9,7.8,13.9,7.5,13.9,7.2z M21.9,15.6c-0.2,0-0.4,0-0.5,0c0,0-0.1,0.1-0.1,0.1c0.1,0,0.3,0.1,0.4,0.1
		C21.8,15.9,22,15.9,21.9,15.6z M21.7,20.4c-0.4-0.1-0.4-0.1-0.5,0.3C21.6,20.8,21.6,20.8,21.7,20.4z M21.7,17.5
		C21.7,17.5,21.7,17.4,21.7,17.5c-0.3,0.2-0.3,0.5-0.3,0.8c0.2,0,0.4-0.1,0.6-0.1c-0.2-0.1-0.5-0.1-0.3-0.4
		C21.7,17.7,21.7,17.6,21.7,17.5z M7.6,22c-0.1,0-0.2,0-0.3,0c0,0.1,0,0.3,0,0.4c0.1,0,0.3,0,0.4,0C7.6,22.3,7.6,22.2,7.6,22z
		 M21.4,19.2c0.1,0.1,0.2,0.2,0.3,0.3c0.1,0,0.2,0.1,0.3,0c0.1,0,0.1-0.2,0.1-0.3C21.9,19.2,21.7,19.2,21.4,19.2z M24.1,15.5
		C24.1,15.6,24,15.6,24.1,15.5c-0.1,0-0.1,0-0.2,0c-0.1,0-0.1,0.1-0.2,0.1c0.1,0.1,0.1,0.1,0.2,0.2c0,0,0.1,0,0.1,0
		c0.1,0,0.2-0.1,0.3-0.2C24.3,15.6,24.2,15.6,24.1,15.5z M9.4,10.4c-0.1-0.2-0.2-0.3-0.3-0.5c-0.1,0.2-0.3,0.3-0.4,0.5
		C8.9,10.4,9.1,10.4,9.4,10.4z M22.1,20.9c-0.4-0.1-0.4-0.1-0.4,0.4c0.1,0,0.3,0,0.4,0C22.1,21.2,22.1,21,22.1,20.9z M17,18.6
		c-0.3,0-0.5,0-0.9,0c0.1,0.1,0.1,0.2,0.2,0.3C16.5,19,16.9,18.8,17,18.6z M4.3,23.6c0.2-0.1,0.4-0.2,0.6-0.3c0,0,0,0,0-0.1
		c-0.2,0-0.4,0-0.7-0.1C4.3,23.3,4.3,23.4,4.3,23.6z M3.6,23.1c-0.2,0-0.3,0-0.5-0.1c0.2,0.3,0.3,0.5,0.5,0.7
		C3.6,23.5,3.6,23.3,3.6,23.1z M14.4,6.6C14.4,6.7,14.4,6.7,14.4,6.6c0.2,0.1,0.4,0.2,0.5,0.3c0.1-0.1,0.2-0.3,0.3-0.4
		C14.9,6.6,14.6,6.6,14.4,6.6z M20.8,18.5c0,0.1,0,0.2,0.1,0.3c0,0,0.2,0.1,0.2,0c0.1-0.1,0.2-0.3,0.3-0.5
		C21.1,18.4,21,18.5,20.8,18.5z M21.3,16.5c0.2-0.2,0.5-0.2,0.5-0.5C21.3,15.9,21.3,16,21.3,16.5z M14.7,14.7c0,0.3,0.2,0.3,0.3,0.3
		c0.2,0,0.4,0,0.4-0.3C15.1,14.7,14.9,14.7,14.7,14.7z M21.1,23.1c-0.2,0-0.4-0.1-0.5,0.2c0,0.2,0.1,0.3,0.3,0.3
		C21,23.4,21,23.3,21.1,23.1z M20.4,19.8c-0.5-0.1-0.5,0-0.5,0.3c0.1,0,0.2,0,0.4,0.1C20.4,20,20.4,19.9,20.4,19.8z M7.2,22.6
		c0,0.1,0,0.3-0.1,0.4c0.5-0.1,0.5-0.1,0.4-0.4C7.4,22.6,7.3,22.6,7.2,22.6z M22.6,17C22.6,17,22.6,17,22.6,17
		c0.2-0.2,0.1-0.5,0.1-0.8c0-0.1,0-0.2-0.1-0.3c0,0-0.1,0-0.1,0C22.6,16.3,22.6,16.7,22.6,17z M24.1,25.6c0.1-0.3-0.2-0.4-0.2-0.6
		C23.6,25.2,23.7,25.4,24.1,25.6z M12.4,22.6c-0.2,0-0.3,0-0.5,0c0.1,0.3,0.2,0.4,0.5,0.4C12.4,22.9,12.4,22.7,12.4,22.6z
		 M19.7,17.9c0.2,0.2,0.4,0.3,0.5,0.4c0-0.2,0.1-0.3,0.1-0.5C20.1,17.8,19.9,17.9,19.7,17.9z M21.7,23c0.1,0,0.2,0,0.4,0
		c0-0.1,0-0.3,0-0.4c-0.1,0-0.2,0-0.3,0C21.7,22.7,21.7,22.8,21.7,23z M11.9,22c-0.1,0-0.2,0-0.3,0c0,0-0.1,0.1-0.1,0.1
		c0.1,0.1,0.2,0.2,0.3,0.4C11.9,22.3,11.9,22.2,11.9,22z M6.3,19.1c0,0.3,0.1,0.3,0.3,0.3c0.2,0,0.4,0,0.3-0.3
		C6.7,19.1,6.5,19.1,6.3,19.1z M20.7,22.5c-0.4-0.1-0.4,0-0.5,0.4C20.6,23,20.6,23,20.7,22.5z M7.7,19.1C7.7,19.1,7.7,19.1,7.7,19.1
		c-0.2-0.1-0.4-0.1-0.5-0.1c0,0-0.1,0.1-0.1,0.2c0.1,0,0.3,0.1,0.4,0.1C7.6,19.3,7.6,19.2,7.7,19.1z M8.6,19.1c-0.2,0-0.4,0-0.6,0
		c0,0.3,0.2,0.3,0.3,0.3C8.5,19.3,8.7,19.3,8.6,19.1z M12.5,15.6C12.5,15.5,12.5,15.5,12.5,15.6c-0.3,0-0.5,0.1-0.6,0.2
		c0,0-0.1,0.1-0.1,0.2c0,0,0.1,0.1,0.1,0.1C12.2,15.9,12.3,15.7,12.5,15.6z M29,22.7c-0.1,0.1-0.3,0.2-0.4,0.2
		c0.1,0.1,0.1,0.2,0.2,0.3C29.1,23.2,29.1,23,29,22.7z M12.9,14.7c-0.2,0-0.4,0-0.7,0c0,0.3,0.2,0.3,0.3,0.3
		C12.7,15,12.9,15,12.9,14.7z M12.8,11.6c0.2-0.3,0.5-0.7,0.7-1C13.2,10.9,12.8,11.1,12.8,11.6z M10.1,23.2
		C10.1,23.2,10.1,23.2,10.1,23.2c-0.1,0.3-0.2,0.7-0.3,1c0,0,0,0,0.1,0.1c0.1-0.1,0.2-0.1,0.2-0.2C10.1,23.8,10.1,23.5,10.1,23.2z
		 M21.8,8.3c0.3,0,0.5,0,0.7,0c0,0,0,0,0-0.1c-0.2-0.1-0.3-0.2-0.5-0.2C22,8.1,21.9,8.2,21.8,8.3z M12.4,12.2
		c-0.5,0.1-0.6,0.4-0.6,0.9C12,12.8,12.2,12.6,12.4,12.2z M9,19c-0.1,0.1-0.2,0.1-0.3,0.2c0.1,0.1,0.2,0.2,0.3,0.2
		c0.1,0,0.2-0.1,0.3-0.2C9.3,19.1,9.2,19.1,9,19z M20.7,23c0.4,0.1,0.4,0.1,0.4-0.4C20.8,22.5,20.8,22.5,20.7,23z M3.8,23.1
		c0,0.2,0,0.4,0,0.6c0.2,0,0.3-0.1,0.2-0.3C4.1,23.3,4.2,23.1,3.8,23.1z M6,19c-0.1,0.1-0.2,0.1-0.3,0.2c0.1,0.1,0.2,0.2,0.3,0.2
		c0.1,0,0.2-0.1,0.3-0.1C6.2,19.1,6.1,19.1,6,19z M20.4,22.4c0.4,0,0.4,0,0.5-0.4C20.5,21.9,20.6,22.2,20.4,22.4z M12.9,10.6
		c-0.5,0-0.5,0-0.5,0.4C12.8,10.9,12.9,10.8,12.9,10.6z M23,8.2c0-0.3,0-0.7,0-1c-0.1,0.2-0.1,0.5-0.2,0.7C22.7,8.2,22.8,8.2,23,8.2
		z M22.3,11C22,11,22,11,22,11.4C22.3,11.4,22.3,11.4,22.3,11z M11.7,21.4c0.4,0.1,0.4,0.1,0.4-0.4C11.8,20.9,11.8,20.9,11.7,21.4z
		 M22.7,15.4c0-0.2,0-0.3,0-0.4c-0.3,0-0.4,0-0.3,0.4C22.5,15.4,22.6,15.4,22.7,15.4z M20.4,17.2c-0.3,0.2-0.5,0.3-0.7,0.5
		C20.4,17.8,20.4,17.7,20.4,17.2z M24.1,24.9c0.3-0.2,0.5-0.3,0.9-0.5C24.4,24.4,24.1,24.5,24.1,24.9z M13.3,13.2c0,0.1,0,0.3,0,0.4
		c0.1,0,0.2,0,0.4,0c0-0.1,0-0.3,0-0.4C13.6,13.2,13.5,13.2,13.3,13.2z M6.3,16.2C6.4,16.2,6.4,16.2,6.3,16.2c0.1,0,0.3,0,0.3-0.1
		c0.1-0.2,0.1-0.4,0.1-0.6c0,0,0,0-0.1,0c0,0,0,0.1,0,0.1C6.6,15.8,6.5,16,6.3,16.2z M21.3,22c-0.3,0-0.3,0-0.4,0.4
		c0.1,0,0.2,0,0.3,0C21.3,22.3,21.3,22.1,21.3,22z M9.4,19.1c0,0.3,0.2,0.3,0.4,0.3c0.2,0,0.3-0.1,0.2-0.3
		C9.8,19.1,9.6,19.1,9.4,19.1z M11.5,21.9c0.4,0.1,0.5,0,0.5-0.4C11.8,21.6,11.5,21.6,11.5,21.9z M14,14.7c0.1,0.3,0.3,0.3,0.4,0.2
		c0.1,0,0.1-0.1,0.2-0.2C14.4,14.7,14.2,14.7,14,14.7z M21.6,22.5c-0.3,0-0.4,0-0.4,0.4C21.6,23,21.6,23,21.6,22.5z M5.5,23.6
		c-0.4,0-0.5,0-0.5,0.3c0.1,0,0.3,0,0.4,0C5.5,23.8,5.5,23.7,5.5,23.6z M22.1,22.4c0-0.2,0-0.3,0-0.4c-0.3,0-0.3,0-0.3,0.4
		C21.9,22.4,22,22.4,22.1,22.4z M10.7,17.2C10.7,17.2,10.7,17.2,10.7,17.2c-0.1,0.3-0.2,0.6-0.3,0.9c0.1,0,0.2,0,0.3,0
		C10.7,17.8,10.7,17.5,10.7,17.2z M16.5,19c-0.3,0-0.5,0-0.8,0.1C16,19.5,16,19.5,16.5,19z M5.6,23.9c0.3,0.1,0.4,0,0.3-0.5
		C5.6,23.5,5.6,23.5,5.6,23.9z M8.2,20c0.3-0.2,0.5-0.3,0.8-0.5C8.4,19.4,8.4,19.4,8.2,20z M19.6,18c0,0.2,0,0.3,0,0.5
		c0.2,0,0.3,0,0.6,0C19.9,18.3,19.8,18.1,19.6,18z M6.8,21.9c0.3,0,0.4,0,0.3-0.4C6.9,21.5,6.9,21.5,6.8,21.9z M21,20.2
		c0.4,0,0.3-0.3,0.4-0.5c-0.1,0-0.2,0-0.3,0C21.1,19.9,21,20.1,21,20.2z M23,15.6c0.1,0.2,0.3,0.3,0.5,0.2c0,0,0.1-0.1,0.1-0.1
		c0,0-0.1-0.1-0.1-0.1C23.3,15.6,23.2,15.6,23,15.6z M11.8,9.5C11.8,9.5,11.8,9.5,11.8,9.5c0.2-0.1,0.4-0.2,0.7-0.3
		C12.3,9.1,12.2,9,12.1,9C12,9.1,11.9,9.3,11.8,9.5z M21.3,22.4c0.1,0,0.2,0,0.3,0c0-0.1,0-0.2,0-0.2c0-0.1,0-0.1,0-0.2
		C21.4,21.9,21.4,21.9,21.3,22.4z M25,15.6c-0.2,0-0.3,0-0.5,0c0,0-0.1,0-0.1,0.1c0,0,0,0.1,0.1,0.1C24.6,15.9,24.9,15.8,25,15.6z
		 M9.8,19.5c-0.2,0-0.4,0-0.7,0c0.1,0.2,0.2,0.3,0.3,0.4C9.6,19.7,9.7,19.6,9.8,19.5z M14.9,18.2c-0.3-0.2-0.6-0.4-0.9-0.6
		c0,0,0,0,0,0.1C14.3,17.9,14.4,18.3,14.9,18.2z M20.6,15.6c0.1,0.2,0.4,0.3,0.5,0.2c0,0,0.1-0.1,0.1-0.1c0,0-0.1-0.1-0.1-0.1
		C20.9,15.6,20.8,15.6,20.6,15.6z M15,6.4c-0.3,0-0.6,0-0.9,0C14.2,6.6,14.8,6.6,15,6.4z M23.2,11.2c0.3-0.1,0.5-0.1,0.8-0.2
		c0,0,0,0,0,0c-0.3,0-0.5,0-0.8,0C23.2,11.1,23.2,11.1,23.2,11.2z M20,23.5C20,23.5,20,23.6,20,23.5c0.2,0,0.3,0,0.5,0
		c-0.1-0.1-0.2-0.2-0.3-0.4C20.1,23.3,20,23.4,20,23.5z M13,20.8c0-0.1,0-0.3,0-0.4c-0.1,0-0.2,0-0.3,0c0,0.1,0,0.3,0,0.4
		C12.9,20.8,12.9,20.8,13,20.8z M26.8,24.7C26.9,24.7,26.9,24.7,26.8,24.7c0.3-0.1,0.6-0.3,0.9-0.6C27.2,24.1,27.1,24.5,26.8,24.7z
		 M12.4,20.4c0,0.1-0.1,0.3-0.1,0.4c0.1,0,0.2,0,0.3,0c0-0.2,0-0.3,0-0.4C12.6,20.4,12.5,20.4,12.4,20.4z M12.8,10.9
		c-0.2,0.1-0.6,0.1-0.6,0.5C12.5,11.3,12.7,11.2,12.8,10.9z M15.5,14.7c-0.1,0.2,0.1,0.2,0.2,0.2c0.2,0,0.3,0,0.4-0.2
		C15.8,14.7,15.6,14.7,15.5,14.7z M6.7,18.4c0,0.2-0.1,0.3-0.1,0.5c0.1,0,0.2,0,0.3,0C7,18.7,7.1,18.5,6.7,18.4z M13.5,8.7
		C13.5,8.7,13.5,8.7,13.5,8.7c0.2,0.1,0.3,0.1,0.4,0.1c0-0.2,0-0.3,0-0.5C13.7,8.4,13.6,8.5,13.5,8.7z M11.9,20.8
		c0.4,0,0.4,0,0.4-0.4C11.9,20.3,12,20.6,11.9,20.8z M13.3,7.3c0.2-0.2,0.3-0.4,0.5-0.6C13.5,6.6,13.5,6.6,13.3,7.3z M28,22.2
		c-0.1,0.1-0.3,0.2-0.4,0.2c0.2,0.3,0.3,0.2,0.5,0C28.1,22.4,28.1,22.3,28,22.2z M11.7,17.8c-0.1-0.1-0.2-0.2-0.3-0.3
		c0,0.2-0.1,0.4-0.1,0.6C11.4,18,11.6,18,11.7,17.8z M8.2,11.2c-0.1,0.3-0.1,0.6-0.2,0.9C8.3,12,8.3,12,8.2,11.2z M10.4,22
		C10.4,22,10.4,22,10.4,22c0.1,0,0.2-0.1,0.2-0.2c0-0.2,0.1-0.4-0.1-0.6C10.4,21.5,10.4,21.7,10.4,22z M13.1,16.1
		c-0.4-0.1-0.3,0.2-0.3,0.3c0.1,0,0.2,0,0.3,0C13.1,16.3,13.1,16.2,13.1,16.1z M11.9,15.7c0.3-0.1,0.5-0.2,0.7-0.4
		C12,15.3,11.9,15.3,11.9,15.7z M11.6,14.7c0,0.2,0.2,0.3,0.4,0.2c0.1,0,0.1-0.1,0.2-0.2c0,0,0,0-0.1-0.1
		C11.9,14.7,11.8,14.7,11.6,14.7z M6.7,22.4C6.7,22.4,6.7,22.4,6.7,22.4c0.2,0.1,0.3,0.1,0.4,0.1c0-0.1,0-0.3,0-0.4c0,0,0,0-0.1,0
		C6.9,22.2,6.8,22.3,6.7,22.4z M10.8,15.2c0.1,0.1,0.2,0.1,0.2,0.2c0.2-0.5,0.2-0.5,0-0.5C11,14.9,10.9,15,10.8,15.2z M25.6,19.7
		c-0.3,0-0.6,0-0.9,0C24.9,20,25.2,20,25.6,19.7z M20.7,21.8c0.4,0.1,0.3-0.2,0.4-0.4C20.7,21.3,20.8,21.6,20.7,21.8z M22.1,20.4
		c-0.3-0.1-0.3,0.2-0.3,0.4c0.1,0,0.2,0,0.3,0C22.1,20.6,22.1,20.5,22.1,20.4z M22.6,17.9c0.1-0.2,0.1-0.5,0-0.7
		C22.5,17.4,22.6,17.6,22.6,17.9z M10,19.6C9.9,19.5,9.9,19.5,10,19.6c-0.2,0.1-0.3,0.3-0.4,0.4c0.1,0.1,0.1,0.1,0.2,0.2
		C9.8,20,9.9,19.8,10,19.6z M12.6,18.6c-0.1,0.4,0.1,0.5,0.5,0.4C13,18.8,12.8,18.7,12.6,18.6z M7.4,16.6c-0.4,0-0.4,0-0.4,0.5
		C7.2,17,7.3,16.8,7.4,16.6z M22.7,15.7C22.7,15.7,22.7,15.6,22.7,15.7c-0.2-0.1-0.5-0.1-0.7-0.1c0,0,0,0,0,0.1
		C22.2,15.7,22.5,15.7,22.7,15.7z M6.7,18.1c0-0.2,0.1-0.4,0.1-0.6c0,0,0,0,0,0c-0.1,0.1-0.2,0.3-0.4,0.4C6.5,18,6.6,18,6.7,18.1z
		 M7.6,23c-0.2,0.1-0.3,0.2-0.4,0.3c0.1,0,0.3,0.1,0.4,0.2C7.6,23.2,7.6,23.1,7.6,23z M21.1,21.8c0.3,0.1,0.3,0,0.3-0.4
		C21.1,21.4,21.2,21.7,21.1,21.8z M22.8,11.3c-0.1-0.1-0.1-0.3-0.2-0.3c-0.2,0-0.1,0.2-0.2,0.4C22.5,11.4,22.6,11.3,22.8,11.3z
		 M7.6,21.4c0-0.2,0-0.3,0-0.5c-0.1,0-0.2,0-0.2,0.1c0,0.1,0,0.2,0,0.4C7.4,21.4,7.5,21.4,7.6,21.4z M21.4,24.1c0-0.2,0-0.3,0-0.4
		c-0.2,0-0.3,0-0.5,0C21.1,23.8,21.2,23.9,21.4,24.1z M7.3,20.9c-0.4,0-0.3,0.3-0.3,0.4C7.4,21.4,7.2,21.1,7.3,20.9z M12.3,20.9
		c0,0.1,0,0.2-0.1,0.4c0.4-0.1,0.4-0.1,0.4-0.4C12.5,20.9,12.4,20.9,12.3,20.9z M13,11.6c0.3-0.1,0.5-0.3,0.5-0.7
		C13.3,11.1,13.1,11.4,13,11.6z M8.1,10.3c0.2,0,0.3-0.2,0.2-0.8C8.2,9.8,8.2,10.1,8.1,10.3z M20.3,18.6c0,0.1-0.1,0.2-0.1,0.3
		c0.2,0,0.3,0,0.5,0c-0.1-0.1-0.2-0.1-0.2-0.2C20.4,18.7,20.3,18.6,20.3,18.6z M22,18.3c-0.6,0-0.6,0.1-0.6,0.4
		C21.6,18.6,21.7,18.5,22,18.3z M24.2,10.7c-0.2,0-0.4,0-0.6,0C23.7,10.9,23.9,10.9,24.2,10.7z M22.2,17.5c-0.1-0.2-0.1-0.3-0.2-0.4
		c-0.1,0.1-0.2,0.2-0.3,0.4C22,17.5,22,17.5,22.2,17.5z M4.3,23.8c0.4,0.2,0.6,0.1,0.6-0.1C4.7,23.7,4.5,23.7,4.3,23.8z M21.5,21.8
		c0.3,0,0.3,0,0.3-0.4C21.4,21.4,21.5,21.7,21.5,21.8z M21.3,20.9c-0.4,0-0.3,0.3-0.4,0.4C21.3,21.4,21.2,21.1,21.3,20.9z
		 M21.9,10.7c0,0,0,0.1,0,0.1c0.1,0,0.2,0.1,0.4,0.1c0.1,0,0.1-0.1,0.2-0.1c0,0,0,0,0-0.1C22.2,10.7,22,10.7,21.9,10.7z M11.8,15.5
		C11.8,15.4,11.8,15.4,11.8,15.5c-0.2,0-0.3,0-0.5,0.1c0,0,0,0,0,0.1c0.1,0,0.2,0.1,0.3,0.1C11.7,15.7,11.8,15.6,11.8,15.5z
		 M21.4,24.7c0.2,0,0.3,0,0.5,0c-0.2-0.1-0.3-0.2-0.4-0.4C21.5,24.4,21.5,24.5,21.4,24.7z M8.4,18.9C8.5,18.9,8.5,18.8,8.4,18.9
		c-0.1-0.1-0.2-0.2-0.3-0.3c0,0-0.1,0.1-0.2,0.2c0,0,0,0,0,0.1C8.2,18.9,8.3,18.9,8.4,18.9z M8.4,10.5C8.4,10.5,8.4,10.6,8.4,10.5
		c0.2,0.1,0.5,0.1,0.7,0.1c0,0,0,0,0-0.1C8.9,10.5,8.7,10.5,8.4,10.5z M22.1,21.4c-0.3,0-0.1,0.3-0.2,0.4
		C22.1,21.9,22.1,21.8,22.1,21.4z M21.6,24.2c0.2,0.1,0.3,0.2,0.4,0.4c0-0.2,0-0.3,0-0.4C21.9,24.2,21.8,24.2,21.6,24.2z M7.1,24.6
		c0-0.1,0-0.2,0-0.2c-0.3,0-0.3,0-0.3,0.2C6.8,24.6,6.9,24.6,7.1,24.6z M19.5,19.8c-0.1,0.3,0.1,0.3,0.3,0.3c0-0.1,0-0.2,0.1-0.3
		C19.8,19.8,19.6,19.8,19.5,19.8z M13.7,12.7c-0.3,0-0.2,0.2-0.3,0.4c0.1,0,0.2,0,0.3,0C13.7,12.9,13.7,12.8,13.7,12.7z M22.8,14.8
		c-0.1-0.2-0.2-0.3-0.3-0.4c0,0,0,0-0.1,0c0,0.1,0,0.2-0.1,0.3C22.5,14.8,22.6,14.8,22.8,14.8z M6.1,22.7c-0.2,0.2-0.4,0.2-0.4,0.4
		c0.1,0,0.2,0,0.3,0C6,23,6.1,22.9,6.1,22.7z M8.4,24.6c0-0.1,0-0.2-0.1-0.2c-0.1,0-0.2,0-0.3,0c0,0,0,0.1,0,0.2
		C8.1,24.6,8.2,24.6,8.4,24.6z M5.7,24.7c0.1-0.2,0-0.3-0.2-0.3c-0.1,0-0.1,0.1-0.2,0.1C5.5,24.6,5.6,24.6,5.7,24.7z M28.4,22.4
		c0.1-0.1,0.2-0.1,0.2-0.1c-0.1-0.1-0.1-0.2-0.2-0.3c-0.1,0-0.2,0.1-0.3,0.1C28.3,22.2,28.3,22.3,28.4,22.4z M9.3,24.6
		c0.1,0,0.2,0,0.3,0c0,0,0-0.1,0-0.1c-0.1-0.1-0.1-0.1-0.2-0.2C9.3,24.3,9.2,24.4,9.3,24.6z M19.3,19.6
		C19.3,19.6,19.4,19.6,19.3,19.6c0.1-0.2,0.1-0.3,0.1-0.4c-0.1,0-0.2,0-0.4,0C19.2,19.4,19.2,19.5,19.3,19.6z M21.3,21.3
		c0.4,0,0.3-0.3,0.3-0.5C21.3,20.9,21.3,21.1,21.3,21.3z M7.8,16.1C7.8,16.1,7.8,16.2,7.8,16.1c0.2,0.1,0.3,0.1,0.4,0.1
		c0,0,0,0,0.1-0.1C8.1,16.1,8,15.9,8,15.9C7.9,16,7.8,16,7.8,16.1z M5.1,19.1C5.1,19.1,5.1,19.1,5.1,19.1c0.1,0.1,0.2,0.2,0.3,0.2
		c0,0,0.1-0.1,0.2-0.1c0,0-0.1-0.1-0.1-0.1C5.3,19,5.2,19.1,5.1,19.1z M7.4,18.6c0-0.1,0-0.2,0.1-0.3c-0.1,0-0.2-0.1-0.3-0.1
		C7.1,18.4,7.1,18.4,7.4,18.6z M12.8,6.4c0.4,0.2,0.6,0.2,0.7,0C13.3,6.4,13.1,6.4,12.8,6.4z M11.5,15.8c-0.1-0.1-0.2-0.2-0.3-0.3
		c0,0.2-0.1,0.3-0.1,0.4C11.2,15.9,11.3,15.9,11.5,15.8z M12,16.1c0.1,0.1,0.2,0.1,0.3,0.2c0-0.2,0.1-0.3,0.1-0.5
		C12.3,15.9,12.2,16,12,16.1z M13.2,10.1c0,0.1,0,0.2-0.1,0.4c0.2-0.1,0.3-0.1,0.4-0.2c0,0,0-0.1,0-0.1
		C13.4,10.1,13.3,10.1,13.2,10.1z M8,19.5c0,0.2,0,0.3,0,0.5c0.1-0.2,0.2-0.4,0.3-0.5C8.2,19.5,8.1,19.5,8,19.5z M11.1,14.4
		c0.5,0,0.3-0.3,0.4-0.5C11.3,14,11.2,14.2,11.1,14.4z M12.6,14.5c-0.2-0.1-0.3-0.3-0.4-0.4C12.2,14.4,12.3,14.5,12.6,14.5z
		 M22.1,17.9c0-0.1,0-0.2,0-0.3c-0.1,0-0.2,0-0.3,0c0,0.1,0,0.2,0,0.3C21.9,17.9,22,17.9,22.1,17.9z M7.6,16.4c0,0,0-0.1,0-0.1
		c-0.2,0-0.3,0-0.5,0.1c0,0,0,0.1,0,0.1C7.3,16.5,7.5,16.5,7.6,16.4z M22.5,14.2c0.3,0.1,0.3-0.1,0.3-0.2c0-0.1-0.1-0.1-0.1-0.2
		C22.6,14,22.5,14.1,22.5,14.2z M10.6,19.2c0,0,0-0.1,0-0.1c-0.1,0-0.2,0-0.3,0c0,0-0.1,0.1-0.1,0.1c0,0,0.1,0.1,0.1,0.1
		C10.3,19.2,10.4,19.2,10.6,19.2z M8.8,16.4c0.2,0.2,0.4,0.2,0.5,0C9.2,16.4,9,16.4,8.8,16.4z M7.8,15.7c0,0,0.1,0.1,0.1,0.1
		c0.1-0.1,0.1-0.1,0.2-0.2c0,0-0.1-0.1-0.1-0.2C8,15.6,7.9,15.7,7.8,15.7z M13.1,16.9c0-0.1,0-0.2,0-0.3c-0.1,0-0.2,0-0.4,0
		C12.9,16.7,13,16.8,13.1,16.9z M11,21.8c-0.1-0.1-0.2-0.2-0.3-0.4c0,0.2,0,0.3,0,0.5C10.8,21.9,10.9,21.8,11,21.8z M22.2,16.7
		C22.1,16.7,22.1,16.6,22.2,16.7c-0.1,0-0.2,0.1-0.3,0.3C22.3,17,22.1,16.8,22.2,16.7z M13.1,17.1c-0.2-0.1-0.3-0.2-0.4-0.3
		c0,0.1,0,0.2-0.1,0.3C12.8,17.1,12.9,17.1,13.1,17.1z M3.6,24.1C3.6,24.1,3.6,24.1,3.6,24.1c0,0.2-0.1,0.4,0.2,0.3
		C3.8,24.3,3.7,24.2,3.6,24.1z M14.7,8.9C14.7,8.9,14.7,9,14.7,8.9c0,0.1,0.1,0.2,0.2,0.2c0.1,0,0.2,0,0.3-0.1c0,0,0-0.1,0-0.1
		C15,8.9,14.9,8.9,14.7,8.9z M13.7,14.8C13.7,14.8,13.7,14.8,13.7,14.8c-0.2-0.1-0.5-0.1-0.7-0.1c0,0,0,0,0,0.1
		C13.2,14.8,13.4,14.8,13.7,14.8z M7,18.9c0.2,0,0.3,0,0.5,0c-0.2-0.1-0.3-0.2-0.4-0.3C7.1,18.7,7,18.8,7,18.9z M13,21.1
		c-0.2,0.1-0.3,0.2-0.4,0.2c0,0,0,0,0,0.1c0.1,0,0.2,0,0.3,0C13,21.3,13,21.2,13,21.1z M12.8,8.9c0,0,0,0.1,0,0.1
		c0.1,0,0.2,0.1,0.3,0.1c0.1,0,0.1-0.1,0.2-0.1c0,0,0,0,0-0.1C13.1,8.9,13,8.9,12.8,8.9z M24.4,25.7c0.1-0.3,0.1-0.3-0.3-0.3
		C24.3,25.5,24.3,25.6,24.4,25.7z M4,24.1C4,24.1,3.9,24.1,4,24.1c0,0.2-0.1,0.4,0.2,0.3C4.1,24.3,4.1,24.2,4,24.1z M4.4,24.1
		C4.3,24.1,4.3,24.1,4.4,24.1c0,0.2-0.1,0.4,0.2,0.3C4.5,24.3,4.4,24.2,4.4,24.1z M5.6,23.4c-0.4-0.2-0.4-0.2-0.4,0.1
		C5.3,23.5,5.4,23.4,5.6,23.4z M14.1,8.9c0.4,0.2,0.4,0.2,0.5,0C14.4,8.9,14.3,8.9,14.1,8.9z"/>
</g>
</svg>
