<?xml version="1.0" encoding="utf-8"?>
<!-- Generator: Adobe Illustrator 26.0.1, SVG Export Plug-In . SVG Version: 6.00 Build 0)  -->
<svg version="1.1" id="Layer_1" xmlns="http://www.w3.org/2000/svg" xmlns:xlink="http://www.w3.org/1999/xlink" x="0px" y="0px"
	 viewBox="0 0 95 35" style="enable-background:new 0 0 95 35;" xml:space="preserve">
<style type="text/css">
	.st0{fill:#FFFFFF;}
</style>
<g id="layer1" transform="translate(-198.17266,-454.79177)">
	<g id="g3346" transform="matrix(2.459665,0,0,-2.459665,686.17304,455.79177)">
		<path id="path3348" class="st0" d="M-160.6-2.4l-2.1-4.5l-0.8,1.7h-0.9l1.3-2.8h0.7l2.6,5.6v0H-160.6z"/>
	</g>
	<path id="path3358" class="st0" d="M236.1,463.8h4.2v3.7h-4.2V463.8z M202.9,482.4h4.4l4.8-13.7h-4.2l-2.7,8.8h-0.1l-2.7-8.8h-4.3
		L202.9,482.4L202.9,482.4z M218.4,471.3c1.5,0,2.5,1.1,2.7,2.7h-5.6C215.8,472.3,216.6,471.3,218.4,471.3 M218.6,479.8
		c-1.8,0-3-1.2-3.2-3.1h9.9c0-2.9-0.8-5.3-2.4-6.8c-1.2-1.1-2.7-1.7-4.6-1.7c-4.1,0-7,3.1-7,7.2c0,4.1,2.7,7.3,7.3,7.3
		c1.7,0,3.1-0.5,4.2-1.2c1.2-0.8,2.1-2,2.3-3.2h-4C220.7,479.2,219.8,479.8,218.6,479.8 M226.3,482.4h4.2v-6.3
		c0-2.9,1.7-4.1,4.3-3.8h0.1v-3.6c-0.2-0.1-0.5-0.1-0.9-0.1c-1.6,0-2.7,0.8-3.7,2.4h-0.1v-2.3h-4V482.4L226.3,482.4z M236.1,482.4
		h4.2v-13.7h-4.2V482.4z M241.4,482.4h11.7v-3.3h-6.6V479l6.4-7.1v-3.2h-11.4v3.3h6.4v0.1l-6.4,7.2V482.4L241.4,482.4z M260.6,479.7
		c-2,0-3-1.7-3-4.2c0-2.5,1-4.2,3-4.2c2,0,3.1,1.6,3.1,4.2C263.7,478.1,262.6,479.7,260.6,479.7 M260.6,468.3
		c-4.4,0-7.3,3.1-7.3,7.3c0,4.1,2.9,7.3,7.3,7.3c4.4,0,7.3-3.2,7.3-7.3C267.9,471.4,265,468.3,260.6,468.3 M268.8,482.4h4.2v-7.6
		c0-1.7,1-3,2.5-3c1.4,0,2.2,1,2.2,2.5v8.1h4.2v-9c0-3-1.8-5.2-4.8-5.2c-1.9,0-3.2,0.8-4.2,2.3h-0.1v-1.9h-4L268.8,482.4
		L268.8,482.4z"/>
</g>
</svg>
