<?xml version="1.0" encoding="utf-8"?>
<!-- Generator: Adobe Illustrator 26.0.1, SVG Export Plug-In . SVG Version: 6.00 Build 0)  -->
<svg version="1.1" id="Layer_1" xmlns="http://www.w3.org/2000/svg" xmlns:xlink="http://www.w3.org/1999/xlink" x="0px" y="0px"
	 viewBox="0 0 95 35" style="enable-background:new 0 0 95 35;" xml:space="preserve">
<style type="text/css">
	.st0{fill:#FFFFFF;}
</style>
<g>
	<g id="oval_3_" transform="matrix(0.35277777,0,0,-0.35277777,59.078384,204.69594)">
		<path id="path36" class="st0" d="M-68.6,523.6c0.1,2.3,0.2,4.7,0.2,7c0,2.3-0.1,4.7-0.2,7c2.4-0.1,4.7-0.3,7-0.4
			c0.2-2.2,0.2-4.4,0.2-6.6c0-2.2-0.1-4.4-0.2-6.6C-63.8,523.9-66.2,523.8-68.6,523.6 M-74.9,494.9c0.7,2.2,1.4,4.5,2,6.8
			c-3.5-0.8-7.1-1.5-10.8-2c-0.2-2.3-0.5-4.7-0.8-6.9C-81.2,493.4-78,494.1-74.9,494.9 M-87.2,482.3c0.6,2.9,1.1,6.1,1.5,9.3
			c-2.3-0.3-4.7-0.6-7.1-0.8c-0.2-3.5-0.5-6.7-0.8-9.8C-91.4,481.3-89.3,481.8-87.2,482.3 M-132.3,530.6c0,2.3,0.1,4.7,0.2,7
			c-2.4-0.1-4.7-0.3-7-0.4c-0.2-2.2-0.2-4.4-0.2-6.6s0.1-4.4,0.2-6.6c2.3-0.2,4.6-0.3,7-0.4C-132.3,526-132.3,528.3-132.3,530.6
			 M-92.8,513.6c0.1,2.7,0.1,5.5,0.2,8.3c-2.6,0-5.2-0.1-7.7-0.1s-5.1,0-7.7,0.1c0-2.8,0.1-5.6,0.2-8.3c2.5-0.1,5-0.1,7.5-0.1
			S-95.3,513.5-92.8,513.6 M-84.7,560.6c-2.5,0.3-5,0.6-7.6,0.7c0.2-4.1,0.4-8.3,0.5-12.6c2.7-0.1,5.4-0.2,8.1-0.3
			C-84,552.5-84.3,556.6-84.7,560.6 M-117,561.5c0.2,2.3,0.5,4.7,0.8,6.9c-3.3-0.5-6.5-1.2-9.6-2.1c-0.7-2.2-1.4-4.5-2-6.8
			C-124.4,560.3-120.7,561-117,561.5 M-92.8,547.7c-2.5,0.1-5,0.1-7.5,0.1s-5,0-7.5-0.1c-0.1-2.7-0.1-5.5-0.2-8.3
			c2.6,0,5.1,0.1,7.7,0.1c2.6,0,5.2,0,7.7-0.1C-92.7,542.2-92.8,545-92.8,547.7 M-136.9,504.4c-2.8,1-5.4,2.1-7.9,3.2
			c1.3-2.5,2.8-4.9,4.5-7.1c1.7-0.9,3.6-1.7,5.5-2.5C-135.6,500.1-136.3,502.2-136.9,504.4 M-60.4,560.8c-1.7,0.9-3.6,1.7-5.5,2.5
			c0.8-2.1,1.5-4.2,2.1-6.4c2.8-1,5.4-2.1,7.9-3.2C-57.2,556.2-58.7,558.5-60.4,560.8"/>
	</g>
	<g id="oval_2_" transform="matrix(0.35277777,0,0,-0.35277777,60.559347,206.26018)">
		<path id="path40" class="st0" d="M-65.6,520.4c0.3,2.3,0.6,4.7,0.8,7.1c3.4,0.2,6.7,0.5,9.8,0.8c-0.3-2.1-0.7-4.2-1.3-6.3
			C-59.2,521.4-62.3,520.9-65.6,520.4 M-68.9,509.6c0.9,3.1,1.5,6.3,2.1,9.6c-2.2-0.3-4.5-0.6-6.9-0.8c-0.5-3.7-1.2-7.3-2-10.8
			C-73.3,508.2-71,508.9-68.9,509.6 M-88.9,505.1c0.4,3.9,0.7,8,0.9,12.2c-2.7-0.1-5.4-0.2-8.1-0.3c-0.1-4.3-0.3-8.5-0.5-12.6
			C-93.9,504.6-91.3,504.8-88.9,505.1 M-122.6,526.5c-4.3,0.1-8.6,0.3-12.6,0.5c0.2-2.6,0.4-5.1,0.7-7.6c3.9-0.4,8-0.7,12.2-0.9
			C-122.5,521.1-122.6,523.8-122.6,526.5 M-112.2,495.3c-2.4,0.2-4.7,0.4-7.1,0.8c0.5-3.2,1-6.4,1.5-9.3c2.1-0.6,4.2-1,6.3-1.3
			C-111.7,488.5-111.9,491.8-112.2,495.3 M-68.9,560.5c-2.2,0.7-4.5,1.4-6.8,2c0.8-3.5,1.5-7.1,2-10.8c2.3-0.2,4.7-0.5,6.9-0.8
			C-67.3,554.2-68,557.4-68.9,560.5 M-91.4,583.4c-2.1,0.6-4.2,1-6.3,1.3c0.3-3.1,0.5-6.4,0.8-9.8c2.4-0.2,4.7-0.4,7.1-0.8
			C-90.4,577.3-90.9,580.4-91.4,583.4 M-144.4,542.7c0.2,2.4,0.4,4.7,0.8,7.1c-3.2-0.5-6.4-1-9.3-1.5c-0.6-2.1-1-4.2-1.3-6.3
			C-151.1,542.2-147.8,542.4-144.4,542.7 M-122.6,543.6c0.1,2.7,0.2,5.4,0.3,8.1c-4.1-0.2-8.2-0.5-12.2-0.9c-0.3-2.5-0.6-5-0.7-7.6
			C-131.2,543.4-126.9,543.5-122.6,543.6 M-98,573.9c-2.2,0.2-4.4,0.2-6.6,0.2s-4.4-0.1-6.6-0.2c-0.2-2.3-0.3-4.6-0.4-7
			c2.3,0.1,4.7,0.2,7,0.2c2.3,0,4.7-0.1,7-0.2C-97.7,569.2-97.8,571.6-98,573.9 M-130.8,498.5c-2.2,0.6-4.3,1.3-6.4,2.1
			c0.8-1.9,1.6-3.7,2.5-5.5c2.2-1.7,4.6-3.2,7.1-4.5C-128.8,493.1-129.9,495.7-130.8,498.5 M-74.4,575c-2.2,1.7-4.6,3.2-7.1,4.5
			c1.2-2.4,2.3-5.1,3.2-7.9c2.2-0.6,4.3-1.3,6.4-2.1C-72.7,571.4-73.5,573.3-74.4,575"/>
	</g>
	<g id="oval_1_" transform="matrix(0.35277777,0,0,-0.35277777,46.646843,208.88942)">
		<path id="path44" class="st0" d="M-94,515c-2.3,0.6-4.6,1.3-6.8,2c-0.9,3.1-1.5,6.3-2.1,9.6c2.2-0.3,4.5-0.6,6.9-0.8
			C-95.5,522.2-94.9,518.5-94,515 M-73.9,542.5c0,2.6,0,5.2,0.1,7.7c-2.8,0-5.6-0.1-8.3-0.2c-0.1-2.5-0.1-5-0.1-7.5s0-5,0.1-7.5
			c2.7-0.1,5.5-0.1,8.3-0.2C-73.9,537.4-73.9,540-73.9,542.5 M-58.5,503.7c0.2,2.3,0.3,4.6,0.4,7c-2.3-0.1-4.7-0.2-7-0.2
			c-2.3,0-4.7,0.1-7,0.2c0.1-2.4,0.3-4.7,0.4-7c2.2-0.2,4.4-0.2,6.6-0.2C-62.9,503.5-60.7,503.6-58.5,503.7 M-35.2,558.2
			c-3.9,0.4-8,0.7-12.2,0.9c0.1-2.7,0.2-5.4,0.3-8.1c4.3-0.1,8.5-0.3,12.6-0.5C-34.6,553.2-34.9,555.7-35.2,558.2 M-72.7,582.3
			c0.2,3.5,0.5,6.7,0.8,9.8c-2.1-0.3-4.3-0.7-6.3-1.3c-0.6-2.9-1.1-6.1-1.5-9.3C-77.4,581.9-75.1,582.1-72.7,582.3 M-25.2,512.4
			c1.7,2.2,3.2,4.6,4.5,7.1c-2.4-1.2-5.1-2.3-7.9-3.2c-0.6-2.2-1.3-4.3-2.1-6.4C-28.8,510.6-26.9,511.5-25.2,512.4 M-101.7,568.8
			c0.6,2.2,1.3,4.3,2.1,6.4c-1.9-0.8-3.7-1.6-5.5-2.5c-1.7-2.2-3.2-4.6-4.5-7.1C-107.1,566.7-104.5,567.8-101.7,568.8"/>
	</g>
	<g id="oval" transform="matrix(0.35277777,0,0,-0.35277777,56.206068,206.67221)">
		<path id="path48" class="st0" d="M-74.5,519.6c0.1,2.7,0.2,5.4,0.3,8.1c4.3,0.1,8.6,0.3,12.6,0.5c-0.2-2.6-0.4-5.1-0.7-7.6
			C-66.2,520.1-70.3,519.8-74.5,519.6 M-75.2,528.7c0.1,2.5,0.1,5,0.1,7.5c0,2.5,0,5-0.1,7.5c-2.7,0.1-5.5,0.1-8.3,0.2
			c0-2.6,0.1-5.2,0.1-7.7c0-2.6,0-5.1-0.1-7.7C-80.7,528.6-77.9,528.6-75.2,528.7 M-132,528.6c-3.4,0.2-6.7,0.5-9.8,0.8
			c0.3-2.1,0.7-4.2,1.3-6.3c2.9-0.6,6.1-1.1,9.3-1.5C-131.6,523.9-131.8,526.3-132,528.6 M-108.9,505.4c-3.7,0.5-7.3,1.2-10.8,2
			c0.6-2.3,1.3-4.6,2-6.8c3.1-0.9,6.3-1.5,9.6-2.1C-108.4,500.7-108.7,503-108.9,505.4 M-100.8,518.2c-2.7,0.1-5.4,0.2-8.1,0.3
			c0.2-4.1,0.5-8.2,0.9-12.2c2.5-0.3,5-0.6,7.6-0.7C-100.5,509.6-100.7,513.9-100.8,518.2 M-43.9,549.4c-2.9,0.6-6.1,1.1-9.3,1.5
			c0.3-2.3,0.6-4.7,0.8-7.1c3.4-0.2,6.7-0.5,9.8-0.8C-42.9,545.2-43.4,547.3-43.9,549.4 M-66.8,571.9c-3.1,0.8-6.3,1.5-9.6,2.1
			c0.3-2.2,0.6-4.5,0.8-6.9c3.7-0.5,7.3-1.2,10.8-2C-65.4,567.5-66,569.8-66.8,571.9 M-123.1,552.9c0.5,3.7,1.2,7.3,2,10.8
			c-2.3-0.6-4.6-1.3-6.8-2c-0.9-3.1-1.5-6.3-2.1-9.6C-127.7,552.4-125.4,552.7-123.1,552.9 M-100.8,554.3c0.1,4.3,0.3,8.6,0.5,12.6
			c-2.6-0.2-5.1-0.4-7.6-0.7c-0.4-3.9-0.7-8-0.9-12.2C-106.2,554.1-103.5,554.2-100.8,554.3 M-62.1,496.3c0.9,1.7,1.7,3.6,2.5,5.5
			c-2.1-0.8-4.2-1.5-6.4-2.1c-1-2.8-2.1-5.4-3.2-7.9C-66.7,493.1-64.3,494.6-62.1,496.3 M-118.5,572.8c1,2.8,2,5.4,3.2,7.9
			c-2.5-1.3-4.9-2.8-7.1-4.5c-0.9-1.7-1.7-3.6-2.5-5.5C-122.8,571.5-120.7,572.2-118.5,572.8"/>
	</g>
	<path id="text" class="st0" d="M56.3,4l-2.1,6.4h-1l-1.4-4.6l-1.4,4.6h-1L47.3,4h1l1.5,4.9L51.4,4h0.8l1.5,4.9L55.3,4 M60.1,7.5
		v1.4c0,0.4-0.1,1.6-2,1.6c-1.9,0-2.1-1.2-2.1-1.6c0-1,0.9-1.6,2.3-1.6c0.3,0,0.5,0,0.8,0c-0.1-0.7-0.4-1-1.2-1
		c-0.4,0-0.8,0.1-1.3,0.2l-0.1,0V5.8l0,0c0.5-0.2,0.9-0.3,1.5-0.3C59.3,5.5,60.1,6.2,60.1,7.5 M59.1,8.2c-0.2,0-0.5,0-0.8,0
		c-0.1,0-1.3,0-1.3,0.7c0,0.5,0.4,0.7,1.1,0.7c0.7,0,1-0.2,1-0.7L59.1,8.2L59.1,8.2z M60.9,10.4h1V3.8h-1V10.4z M66.7,7v3.5
		c0,0.8-0.4,1.7-2.1,1.7c-0.5,0-0.9-0.1-1.4-0.2l0,0v-1l0.1,0c0.4,0.1,0.9,0.2,1.3,0.2c1.2,0,1.2-0.5,1.2-0.8v-0.3
		c-0.3,0.1-0.6,0.1-0.9,0.1c-1.4,0-2.2-0.8-2.2-2.4c0-1.6,0.8-2.5,2.1-2.5C66,5.5,66.7,6.1,66.7,7 M65.7,7c0-0.2,0-0.6-1-0.6
		c-0.5,0-1.1,0.2-1.1,1.6c0,1.4,0.6,1.5,1.2,1.5c0.3,0,0.6-0.1,0.9-0.2L65.7,7L65.7,7z M67.7,6L67.7,6l0,4.4h1V6.6
		c0.5-0.1,0.9-0.2,1.4-0.2h0.1V5.5h-0.1C69,5.5,68.1,5.8,67.7,6 M74.7,7.8c0,0.2,0,0.5,0,0.7l0,0.1h-3.2c0.1,0.7,0.5,1.1,1.3,1.1
		c0.6,0,1.2-0.1,1.6-0.3l0.1,0v0.9l0,0c-0.5,0.2-1.1,0.3-1.7,0.3c-1,0-2.2-0.4-2.2-2.4c0-0.6,0-2.6,2.2-2.6
		C73.9,5.5,74.7,6.4,74.7,7.8 M73.7,7.6c-0.1-0.6-0.3-1.3-1.1-1.3c-0.8,0-1.1,0.3-1.1,1.3H73.7z M79.9,7.8c0,0.2,0,0.5,0,0.7l0,0.1
		h-3.2c0.1,0.7,0.5,1.1,1.3,1.1c0.6,0,1.2-0.1,1.6-0.3l0.1,0v0.9l0,0c-0.5,0.2-1.1,0.3-1.7,0.3c-1,0-2.2-0.4-2.2-2.4
		c0-0.6,0-2.6,2.2-2.6C79,5.5,79.9,6.4,79.9,7.8 M78.9,7.6c-0.1-0.6-0.3-1.3-1.1-1.3c-0.8,0-1.1,0.3-1.1,1.3H78.9z M82.8,5.5
		c-1,0-1.8,0.4-2,0.5l0,0v4.4h1V6.6c0.3-0.1,0.7-0.2,1-0.2c0.9,0,1,0.4,1,0.8v3.2h1V7.3C84.8,6.2,84.1,5.5,82.8,5.5 M87.2,7.4
		c-0.4-0.1-0.8-0.2-0.8-0.5c0-0.3,0.1-0.5,0.9-0.5c0.4,0,0.7,0.1,1.1,0.3l0.1,0V5.8l0,0c-0.4-0.2-0.9-0.3-1.3-0.3
		c-1.3,0-1.8,0.8-1.8,1.5c0,0.9,0.8,1.2,1.4,1.4c0.5,0.2,1,0.3,1,0.7c0,0.3-0.3,0.5-0.9,0.5c-0.5,0-0.9-0.1-1.3-0.3l-0.1-0.1v0.9
		l0,0c0.4,0.2,0.9,0.3,1.4,0.3c1.3,0,1.8-0.8,1.8-1.5C88.8,7.9,87.9,7.6,87.2,7.4 M53.1,18.8c0,0.7-0.3,1.9-2.3,1.9h-2.4v-6.4h2.2
		c1.9,0,2.1,1.1,2.1,1.8c0,0.8-0.4,1.1-0.7,1.3C52.3,17.5,53.1,17.9,53.1,18.8 M49.3,16.9h1.2c0.8,0,1.1-0.2,1.1-0.9
		c0-0.6-0.4-0.9-1.2-0.9h-1.2L49.3,16.9L49.3,16.9z M52.1,18.8c0-0.7-0.4-1-1.4-1h-1.3v2l1.4,0C51.7,19.8,52.1,19.5,52.1,18.8
		 M58.3,18.3c0,2.1-1.2,2.5-2.3,2.5c-1,0-2.3-0.4-2.3-2.5s1.2-2.5,2.3-2.5C57,15.8,58.3,16.2,58.3,18.3 M57.3,18.3
		c0-1.5-0.7-1.6-1.3-1.6s-1.3,0.1-1.3,1.6c0,1.5,0.7,1.6,1.3,1.6C56.6,19.9,57.3,19.8,57.3,18.3 M63.4,18.3c0,2.1-1.2,2.5-2.3,2.5
		c-1,0-2.3-0.4-2.3-2.5s1.2-2.5,2.3-2.5C62.2,15.8,63.4,16.2,63.4,18.3 M62.5,18.3c0-1.5-0.7-1.6-1.3-1.6c-0.6,0-1.3,0.1-1.3,1.6
		c0,1.5,0.7,1.6,1.3,1.6C61.8,19.9,62.5,19.8,62.5,18.3 M65.6,14.5h-1v1.4h-0.8v0.9h0.8v2.6c0,1.4,1.3,1.4,1.5,1.4
		c0.2,0,0.5,0,0.7-0.1l0,0v-0.9l-0.1,0.1c-0.1,0.1-0.3,0.1-0.5,0.1c-0.4,0-0.6-0.2-0.6-0.5v-2.7h1.3v-0.9h-1.3V14.5z M69.2,17.7
		c-0.4-0.1-0.8-0.2-0.8-0.5s0.1-0.5,0.9-0.5c0.4,0,0.7,0.1,1.1,0.3l0.1,0v-0.9l0,0c-0.4-0.2-0.9-0.3-1.3-0.3c-1.3,0-1.8,0.8-1.8,1.5
		c0,0.9,0.8,1.2,1.4,1.4c0.5,0.2,1,0.3,1,0.7c0,0.3-0.3,0.5-0.9,0.5c-0.5,0-0.9-0.1-1.3-0.3l-0.1-0.1v0.9l0,0
		c0.4,0.2,0.9,0.3,1.4,0.3c1.3,0,1.8-0.8,1.8-1.5C70.8,18.2,69.8,17.9,69.2,17.7 M50.8,24.6l2.6,6.4h-1.1l-0.7-1.8H49L48.3,31h-1.1
		l2.6-6.4H50.8z M51.2,28.3l-0.9-2.4l-0.9,2.4H51.2z M54.1,31h1v-6.6h-1V31z M56.2,31h1v-6.6h-1V31z M58.4,31h1v-4.8h-1V31z
		 M58.4,25.6h1v-1h-1V25.6z M64.2,28.1v1.4c0,0.4-0.1,1.6-2,1.6c-1.9,0-2.1-1.2-2.1-1.6c0-1,0.9-1.6,2.3-1.6c0.3,0,0.5,0,0.8,0
		c-0.1-0.7-0.4-1-1.2-1c-0.4,0-0.8,0.1-1.3,0.2l-0.1,0v-0.9l0,0c0.5-0.2,0.9-0.3,1.5-0.3C63.5,26.1,64.2,26.8,64.2,28.1 M63.2,28.8
		c-0.2,0-0.5,0-0.8,0c-0.1,0-1.3,0-1.3,0.7c0,0.5,0.4,0.7,1.1,0.7c0.7,0,1-0.2,1-0.7L63.2,28.8L63.2,28.8z M67.2,26.1
		c-1,0-1.8,0.4-2,0.5l0,0V31h1v-3.8c0.3-0.1,0.7-0.2,1-0.2c0.9,0,1,0.4,1,0.8V31h1v-3.1C69.2,26.8,68.4,26.1,67.2,26.1 M72.2,26.1
		c-1.5,0-2.3,0.9-2.3,2.5s0.8,2.5,2.3,2.5c0.5,0,1-0.1,1.4-0.3l0,0v-1l-0.1,0c-0.4,0.2-0.8,0.3-1.3,0.3c-0.6,0-1.3-0.1-1.3-1.6
		c0-1.4,0.6-1.6,1.3-1.6c0.4,0,0.9,0.1,1.3,0.3l0.1,0v-1l0,0C73.2,26.2,72.7,26.1,72.2,26.1 M78.5,28.4c0,0.2,0,0.5,0,0.7v0.1h-3.2
		c0.1,0.7,0.5,1.1,1.3,1.1c0.6,0,1.2-0.1,1.6-0.3l0.1,0v0.9l0,0c-0.5,0.2-1.1,0.3-1.7,0.3c-1,0-2.2-0.4-2.2-2.4c0-0.6,0-2.6,2.2-2.6
		C77.6,26.1,78.5,27,78.5,28.4 M77.5,28.2c-0.1-0.6-0.3-1.3-1.1-1.3c-0.8,0-1.1,0.3-1.1,1.3"/>
</g>
</svg>
