<?xml version="1.0" encoding="utf-8"?>
<!-- Generator: Adobe Illustrator 26.0.1, SVG Export Plug-In . SVG Version: 6.00 Build 0)  -->
<svg version="1.1" id="Layer_1" xmlns="http://www.w3.org/2000/svg" xmlns:xlink="http://www.w3.org/1999/xlink" x="0px" y="0px"
	 viewBox="0 0 95 35" style="enable-background:new 0 0 95 35;" xml:space="preserve">
<style type="text/css">
	.st0{fill:#FFFFFF;}
</style>
<g>
	<path class="st0" d="M47.8,20.1L47.8,20.1c0-0.6-0.4-0.8-1.1-0.8h-1v1.5l1-0.1C47.4,20.8,47.8,20.5,47.8,20.1z"/>
	<path class="st0" d="M58.5,19.2c-0.9,0-1.7,0.7-1.7,2s0.8,2,1.7,2c0.5,0,1.7-0.3,1.7-2C60.2,19.4,59,19.2,58.5,19.2z"/>
	<polygon class="st0" points="39.9,21.5 41.5,21.5 40.7,19.6 	"/>
	<path class="st0" d="M30,0v35h35V0H30z M51.6,11.2h3.1v0.6h-0.4c-0.5,0-0.6,0.1-0.6,0.5v3.4h1.2c0.6,0,0.9-0.1,1.1-0.4
		c0.1-0.3,0.2-0.6,0.2-1.1c0.1,0,0.6,0,0.6,0v2h-4.9v-0.6H52c0.4,0,0.6,0,0.6-0.4v-2.9c0-0.5-0.2-0.5-0.6-0.5h-0.4V11.2z M46.3,11.2
		h3v0.6h-0.4c-0.5,0-0.6,0.1-0.6,0.5v3.3h1.2c0.6,0,1-0.1,1.1-0.4c0.1-0.3,0.2-0.6,0.2-1c0.1,0,0.6,0,0.6,0v2h-5.2v-0.6h0.3
		c0.5,0,0.6,0,0.6-0.4v-2.9c0-0.5-0.2-0.5-0.7-0.5h-0.2v-0.6H46.3z M32.1,11.8L32.1,11.8L32,11.2h2.5v0.6h-0.2
		c-0.3,0-0.4,0.1-0.4,0.2c0,0.1,0,0.1,0,0.1s0.6,1.4,1,2.8l0,0l1-2.5c0-0.4-0.2-0.6-0.6-0.6h-0.4v-0.6h2.7v0.6h-0.4
		c-0.3,0-0.4,0-0.4,0.2c0,0,0,0.1,0,0.2c0,0,0.6,1.4,1.1,2.7l0,0l0.9-2.5c0-0.2,0-0.3,0-0.4c0-0.1-0.1-0.2-0.4-0.2H38v-0.6h2.5
		c2.2,0,2.2,0,2.2,0l0,0c0,0,0.1,0,2.7,0v1.9h-0.6c-0.1-1.2-0.4-1.4-1.4-1.4h-1.3v1.5h0.4c0.6,0,0.7-0.2,0.8-0.9h0.5v2.5h-0.5
		c-0.1-0.8-0.2-0.9-0.8-0.9h-0.4v1.7h1.6c0.9,0,1.1-0.4,1.1-1.4h0.6v2h-5.5v-0.6h0.3c0.5,0,0.7,0,0.7-0.4c0-3,0,0,0-3
		c0-0.5-0.2-0.5-0.7-0.5h-0.1c-0.4,0-0.5,0.2-0.7,0.6L38,16.1h-0.9l-1.2-2.8l-1.1,2.8h-0.9l-1.5-3.7C32.7,12,32.5,11.8,32.1,11.8z
		 M37.1,22.4h-0.5c0-0.9-0.1-1.1-0.7-1.1h-0.4v1.3c0,0.5,0,0.5,0.5,0.5h0.6v0.6h-3.1v-0.6h0.3c0.4,0,0.6-0.1,0.6-0.5c0-3,0,0,0-3
		c0-0.4-0.2-0.4-0.6-0.4h-0.3v-0.5c5.1,0,0,0,5.1,0v1.9H38l0,0c0-0.4,0-0.7-0.2-1.1c-0.2-0.3-0.6-0.3-1.1-0.3h-1.2v1.5h0.4
		c0.6,0,0.7-0.1,0.7-0.9h0.5C37.1,19.8,37.1,22.4,37.1,22.4z M49.5,22.5c0,1-0.4,1.3-1,1.3c-0.7,0-1.1-0.2-1.2-0.9v-0.5
		c-0.1-0.8-0.3-1-1.2-1h-0.5v1.3c0,0.4,0,0.4,0.5,0.4h0.5v0.6h-5.7v-0.6h0.6c0.3,0,0.4,0,0.4-0.2c0,0,0-0.2-0.1-0.2l-0.2-0.6h-1.9
		l-0.2,0.6c0,0.1-0.1,0.2-0.1,0.3c0,0.2,0.2,0.2,0.4,0.2h0.6v0.6h-2.6v-0.6H38c0.4,0,0.5-0.1,0.7-0.5l1.7-3.9h1.2l1.6,3.9
		c0.2,0.3,0.3,0.5,0.6,0.5H44c0.3,0,0.5-0.1,0.5-0.5v-3c0-0.4,0-0.4-0.5-0.4h-0.4v-0.5H47c1.3,0,1.9,0.3,1.9,1.2
		c0,0.7-0.6,1.1-1.5,1.2c0.9,0.3,1,0.6,1.1,1.3c0,0.1,0,0.1,0,0.3c0,0.3,0.1,0.5,0.3,0.5c0.3,0,0.3-0.3,0.3-0.8L49.5,22.5
		C49.5,22.4,49.5,22.5,49.5,22.5z M55.2,21.6H55c-0.3,0-0.4,0-0.4,0.4v1.7h-0.5l-0.3-0.4c-0.5,0.3-1.1,0.5-1.7,0.5
		c-0.7,0-1.2-0.3-1.7-0.8s-0.8-1.2-0.8-1.9c0-0.8,0.2-1.4,0.7-1.9s1.1-0.6,1.8-0.6c0.5,0,1.2,0.1,1.5,0.5l0.2-0.5h0.4v1.7H54
		c-0.3-0.7-0.8-1.1-1.5-1.1c-0.8,0-1.5,0.6-1.5,1.9s0.5,2,1.5,2c0.6,0,1.2-0.3,1.2-0.9V22c0-0.3-0.1-0.3-0.5-0.3h-0.3v-0.5h2.3V21.6
		z M58.5,23.7c-1.6,0-2.9-1-2.9-2.6c0-1.5,1.3-2.5,2.9-2.5c1.7,0,2.9,1,2.9,2.6C61.4,22.8,60.2,23.7,58.5,23.7z M59.7,16.3
		c-0.8,0-1.6-0.5-1.8-0.6l-0.2,0.5h-0.5v-2h0.6c0.2,0.9,0.8,1.4,1.7,1.4c0.8,0,1.4-0.2,1.4-0.7c0.1-0.7-0.6-0.6-1.2-0.7L58.9,14
		c-1.2-0.3-1.7-0.6-1.7-1.5C57.1,11.6,58,11,59.1,11c0.6,0,1.2,0.1,1.8,0.5l0.2-0.4h0.4v1.8H61c-0.1-0.9-1.1-1.2-1.9-1.2
		c-0.6,0.1-1,0.3-1,0.8c0,0.4,0.3,0.5,0.8,0.6l1.1,0.1c1.1,0.2,1.9,0.4,1.9,1.6C61.9,15.9,61,16.3,59.7,16.3z"/>
</g>
</svg>
