<?xml version="1.0" encoding="utf-8"?>
<!-- Generator: Adobe Illustrator 26.0.1, SVG Export Plug-In . SVG Version: 6.00 Build 0)  -->
<svg version="1.1" id="Layer_1" xmlns="http://www.w3.org/2000/svg" xmlns:xlink="http://www.w3.org/1999/xlink" x="0px" y="0px"
	 viewBox="0 0 95 35" style="enable-background:new 0 0 95 35;" xml:space="preserve">
<style type="text/css">
	.st0{fill-rule:evenodd;clip-rule:evenodd;fill:#FFFFFF;}
</style>
<g>
	<path class="st0" d="M23.4,6.5h5.3l1.7,8.1h0l2.4-8.1H39l2.4,8.1h0.1l1.7-8.1H48l-3.1,12.9h-6.9l-2.3-7.9h0l-2.4,7.9h-6.9L23.4,6.5
		L23.4,6.5z"/>
	<path class="st0" d="M48,6.5h6.9l2.4,7.9h0l2.3-7.9h6.9l3.1,13h-4.9L63,11.4h-0.1l-2.4,8.1h-6.1L52,11.4h0l-1.7,8.1h-5.3L48,6.5z"
		/>
	<path class="st0" d="M0,24.1h1.8l0.5,2.6h0l0.8-2.6h2l0.8,2.6h0l0.5-2.6h1.6l-1,4.3H4.8l-0.8-2.6h0l-0.7,2.6H1L0,24.1z M10,24.1
		h2.2l2.2,4.3h-1.9l-0.3-0.7H10l-0.3,0.7H7.9L10,24.1z M11.7,26.7l-0.6-1.4l-0.7,1.4H11.7L11.7,26.7z M16.5,27c0,0.2,0,0.4,0.2,0.5
		c0.1,0.1,0.3,0.1,0.5,0.2c0.4,0,0.8-0.1,0.8-0.5c0-0.1,0-0.1-0.1-0.2c-0.2-0.3-2.3-0.5-2.8-1c-0.2-0.2-0.3-0.5-0.3-0.7
		c0-1,0.9-1.4,2.5-1.4c1.9,0,2.4,0.5,2.4,1.4h-1.8c0-0.3-0.1-0.4-0.2-0.5c-0.1-0.1-0.3-0.1-0.5-0.1c-0.4,0-0.6,0.1-0.6,0.4
		c0,0,0,0.1,0.1,0.2c0.3,0.2,2.2,0.5,2.8,1c0.2,0.1,0.3,0.4,0.3,0.8c0,0.9-0.7,1.4-2.7,1.4c-2.3,0-2.4-0.7-2.4-1.5L16.5,27L16.5,27z
		 M21.5,25.1h-1.4v-1h4.6v1h-1.4v3.2h-1.8V25.1z M25.3,24.1h4.1V25H27v0.8h2.2v0.9H27v0.8h2.4v0.9h-4.1V24.1z M32.6,24.1h2.7
		l0.9,2.9h0l0.8-2.9h2.8v4.3h-1.7v-3.2L37,28.4h-1.7l-1.1-3.2h0v3.2h-1.5L32.6,24.1L32.6,24.1z M42.4,24.1h2.2l2.2,4.3h-1.9
		l-0.3-0.7h-2.2L42,28.4h-1.8L42.4,24.1z M44.1,26.7l-0.7-1.4l-0.7,1.4H44.1z M47.2,24.1h2.6l1.4,2.9v-2.9h1.6v4.3h-2.5l-1.5-3v3
		h-1.5L47.2,24.1L47.2,24.1z M55.3,24.1h2.2l2.2,4.3h-2l-0.3-0.7h-2.2l-0.3,0.7h-1.8L55.3,24.1z M57,26.7l-0.6-1.4l-0.7,1.4H57z
		 M63.5,25.4c0-0.1-0.1-0.2-0.2-0.3c-0.1-0.1-0.3-0.2-0.6-0.2c-0.8,0-1.2,0.5-1.2,1.3c0,0.8,0.4,1.4,1.3,1.4c0.4,0,0.7,0,0.8-0.1
		v-0.6h-1v-0.9h2.8v2.2c-0.8,0.2-1.9,0.4-2.9,0.4c-2.1,0-2.8-1-2.8-2.2c0-1.6,1.1-2.3,3-2.3c1.6,0,2.7,0.3,2.7,1.4L63.5,25.4
		L63.5,25.4L63.5,25.4z M66.3,24.1h4.1V25H68v0.8h2.2v0.9H68v0.8h2.4v0.9h-4.1V24.1z M71.2,24.1h2.7l0.9,2.9h0l0.9-2.9h2.7v4.3h-1.7
		v-3.2l-1.2,3.2h-1.7l-1.1-3.2h0v3.2h-1.5L71.2,24.1L71.2,24.1z M79.4,24.1h4.1V25h-2.4v0.8h2.2v0.9h-2.2v0.8h2.4v0.9h-4.1V24.1z
		 M84.2,24.1h2.6l1.4,2.9v-2.9h1.6v4.3h-2.5l-1.5-3v3h-1.6L84.2,24.1L84.2,24.1z M91.8,25.1h-1.4v-1H95v1h-1.4v3.2h-1.8L91.8,25.1
		L91.8,25.1z"/>
</g>
</svg>
