<?xml version="1.0" encoding="utf-8"?>
<!-- Generator: Adobe Illustrator 26.0.1, SVG Export Plug-In . SVG Version: 6.00 Build 0)  -->
<svg version="1.1" id="Layer_1" xmlns="http://www.w3.org/2000/svg" xmlns:xlink="http://www.w3.org/1999/xlink" x="0px" y="0px"
	 viewBox="0 0 95 35" style="enable-background:new 0 0 95 35;" xml:space="preserve">
<style type="text/css">
	.st0{fill:#FFFFFF;}
</style>
<g>
	<path class="st0" d="M0,10.8c0,0,2.4,9.7,2.7,11.3c0.4,1.8,1.2,2.5,3.5,2.1l1.5-6c0.4-1.5,0.6-2.6,0.9-4.1h0
		c0.2,1.5,0.4,2.6,0.7,4.1c0,0,0.6,2.7,0.9,4.2c0.3,1.4,1.2,2.3,3.4,1.8l3.5-13.3h-2.8l-1.2,5.8c-0.3,1.7-0.6,3-0.8,4.5h0
		c-0.2-1.5-0.5-2.8-0.8-4.4l-1.3-5.9h-3l-1.3,5.7c-0.4,1.7-0.7,3.1-1,4.6h0c-0.2-1.4-0.5-3.2-0.9-4.8c0,0-0.8-4.1-1.1-5.5L0,10.8
		L0,10.8z M27.1,10.8v13.3h2.7V10.8L27.1,10.8L27.1,10.8z M65.1,10.8v9.8c0,1.4,0.3,2.3,0.8,2.9c0.5,0.5,1.3,0.8,2.2,0.8
		c0.8,0,1.6-0.2,2-0.3l0-2.1c-0.3,0.1-0.6,0.1-1,0.1c-0.9,0-1.2-0.6-1.2-1.8v-3.8h2.4V14h-2.4v-3.1L65.1,10.8L65.1,10.8z M21,13.9
		c-1.7,0-3,0.5-3.7,0.9l0.5,1.8c0.7-0.4,1.7-0.8,2.7-0.8c1.7,0,1.9,0.9,1.9,1.5v0.1c-3.6,0-5.9,1.2-5.9,3.8c0,1.6,1.2,3,3.2,3
		c1.2,0,2.3-0.5,2.9-1.3h0.1c0,0,0.4,1.7,2.7,1.1c-0.1-0.7-0.2-1.5-0.2-2.4v-3.6C25.3,15.9,24.3,13.9,21,13.9L21,13.9z M37.2,13.9
		c-1.7,0-2.5,0.9-2.9,1.6h0v-1.4h-2.6v10h2.7v-5.9c0-0.3,0-0.6,0.1-0.8c0.2-0.6,0.8-1.3,1.7-1.3c1.1,0,1.6,0.9,1.6,2.3v5.7h2.7v-5.9
		c0-0.3,0-0.6,0.1-0.8c0.2-0.7,0.8-1.2,1.6-1.2c1.1,0,1.6,0.9,1.6,2.5v5.5h2.7v-5.9c0-3.1-1.6-4.3-3.4-4.3c-0.8,0-1.4,0.2-2,0.5
		c-0.5,0.3-0.9,0.7-1.3,1.2h0C39.5,14.6,38.5,13.9,37.2,13.9L37.2,13.9z M52.1,13.9c-1.7,0-3,0.5-3.7,0.9l0.5,1.8
		c0.7-0.4,1.7-0.8,2.7-0.8c1.7,0,1.9,0.9,1.9,1.5v0.1c-3.6,0-5.9,1.2-5.9,3.8c0,1.6,1.2,3,3.2,3c1.2,0,2.3-0.5,2.9-1.3h0.1
		c0,0,0.4,1.7,2.7,1.1c-0.1-0.7-0.2-1.5-0.2-2.4v-3.6C56.4,15.9,55.4,13.9,52.1,13.9L52.1,13.9z M63.4,13.9c-1,0-2.2,0.7-2.7,2.1
		h-0.1v-1.9h-2.4v10H61V19c0-0.3,0-0.5,0.1-0.7c0.2-1.1,1-1.8,2.2-1.8c0.3,0,0.6,0,0.8,0.1V14C63.8,13.9,63.7,13.9,63.4,13.9
		L63.4,13.9z M22.6,19.3v1.2c0,0.2,0,0.4-0.1,0.5c-0.2,0.7-0.9,1.3-1.8,1.3c-0.7,0-1.3-0.4-1.3-1.3C19.3,19.7,20.8,19.3,22.6,19.3
		L22.6,19.3z M53.7,19.3v1.2c0,0.2,0,0.4-0.1,0.5c-0.2,0.7-0.9,1.3-1.8,1.3c-0.7,0-1.3-0.4-1.3-1.3C50.4,19.7,51.9,19.3,53.7,19.3
		L53.7,19.3z"/>
	<path class="st0" d="M84.8,6c-0.9,0-1.6,0.5-1.6,1.1l0.5,6c0.1,0.4,0.5,0.6,1,0.6c0.5,0,1-0.3,1-0.6l0.5-6C86.3,6.5,85.7,6,84.8,6
		L84.8,6z M76.1,10.8c-0.5,0-1,0.4-1.3,0.9c-0.4,0.8-0.4,1.6,0.2,1.9l5.5,2.5c0.3,0.1,0.8-0.1,1.1-0.6v0c0.3-0.5,0.2-1,0-1.2
		l-4.9-3.5C76.4,10.9,76.3,10.8,76.1,10.8L76.1,10.8z M93.4,10.8c-0.2,0-0.3,0-0.4,0.1l-4.9,3.5c-0.3,0.2-0.3,0.8,0,1.2l0,0
		c0.3,0.5,0.7,0.7,1.1,0.6l5.5-2.5c0.5-0.3,0.6-1.1,0.2-1.9C94.4,11.2,93.9,10.9,93.4,10.8L93.4,10.8z M80.7,18.8
		c-0.1,0-0.1,0-0.2,0L75,21.3c-0.5,0.3-0.6,1.1-0.2,1.9c0.4,0.8,1.2,1.1,1.7,0.8l4.9-3.5c0.3-0.2,0.3-0.8,0-1.2l0,0
		C81.3,19,81,18.8,80.7,18.8L80.7,18.8z M88.9,18.8c-0.3,0-0.7,0.2-0.9,0.6l0,0c-0.3,0.5-0.2,1,0,1.2l4.9,3.5
		c0.5,0.3,1.3-0.1,1.7-0.8c0.4-0.8,0.4-1.6-0.2-1.9l-5.5-2.5C89,18.8,89,18.8,88.9,18.8L88.9,18.8z M84.8,21.2c-0.5,0-1,0.3-1,0.6
		l-0.5,6c0,0.6,0.7,1.1,1.6,1.1c0.9,0,1.6-0.5,1.6-1.1l-0.5-6C85.8,21.5,85.3,21.3,84.8,21.2L84.8,21.2L84.8,21.2z"/>
</g>
</svg>
