<?xml version="1.0" encoding="utf-8"?>
<!-- Generator: Adobe Illustrator 26.0.1, SVG Export Plug-In . SVG Version: 6.00 Build 0)  -->
<svg version="1.1" id="Layer_1" xmlns="http://www.w3.org/2000/svg" xmlns:xlink="http://www.w3.org/1999/xlink" x="0px" y="0px"
	 viewBox="0 0 95 35" style="enable-background:new 0 0 95 35;" xml:space="preserve">
<style type="text/css">
	.st0{fill:#CCCCCC;}
</style>
<g>
	<path class="st0" d="M37.2,12h2.6v0.9c0.3-0.2,1.2-1.1,2.9-1.1c2,0,3.6,1.5,3.6,3.8v6h-2.8v-5.2c0-1.3-0.6-2-1.8-2
		c-1.1,0-1.8,0.7-1.8,2v5.2h-2.8V12 M63.6,16.7c0-2.7,2.2-5,5.1-5c2.9,0,5.1,2.2,5.1,5c0,2.7-2.2,5-5.1,5
		C65.8,21.7,63.6,19.5,63.6,16.7 M66.4,16.7c0,1.3,1,2.4,2.3,2.4c1.4,0,2.3-1.1,2.3-2.4c0-1.3-1-2.4-2.3-2.4
		C67.3,14.4,66.4,15.4,66.4,16.7 M25.5,16.8c0-2.7,2.2-5,5.1-5c2.9,0,5.1,2.2,5.1,5c0,2.7-2.2,5-5.1,5
		C27.7,21.7,25.5,19.5,25.5,16.8 M28.3,16.8c0,1.3,1,2.4,2.3,2.4c1.4,0,2.3-1.1,2.3-2.4c0-1.3-1-2.4-2.3-2.4
		C29.2,14.4,28.3,15.4,28.3,16.8 M87.2,11H90V8.5h-2.8V11z M87.2,21.5H90V12h-2.8V21.5z M92.2,21.5H95v-13h-2.8V21.5z M78,21.5h-2.7
		v-13h2.7v4.2c0.1-0.1,1-1,2.9-1c2.5,0,4.6,2.1,4.6,5c0,2.8-2.2,5-4.6,5c-1.8,0-2.7-0.8-2.9-0.9L78,21.5 M82.7,16.7
		c0-1.3-1-2.4-2.4-2.4c-1.3,0-2.4,1-2.4,2.4c0,1.3,1,2.4,2.4,2.4C81.7,19.1,82.7,18.1,82.7,16.7 M9.2,21.5h3.3l2.9-3.8l1.8,1.8
		L13,24.8h3.3l2.7-3.5l5,5.1h3.9l-7.2-7.3l5.7-7.2h-3.3l-4.2,5.4l-1.8-1.8l4.7-5.9h-3.3l-3.2,4.1L13.6,12H9.7l3.9,4L9.2,21.5 M0,8.5
		v13h8.5v-2.4H2.9V16h5.4v-2.3H2.9V11h5.6V8.5H0 M48.5,8.5v13h2.7v-9.8h0.1l2.3,9.8h3.1l2.4-9.8h0.1v9.8H62v-13h-4.5L55.3,18h-0.1
		l-2.2-9.5H48.5"/>
</g>
</svg>
