<?xml version="1.0" encoding="utf-8"?>
<!-- Generator: Adobe Illustrator 26.0.1, SVG Export Plug-In . SVG Version: 6.00 Build 0)  -->
<svg version="1.1" id="Layer_1" xmlns="http://www.w3.org/2000/svg" xmlns:xlink="http://www.w3.org/1999/xlink" x="0px" y="0px"
	 viewBox="0 0 95 35" style="enable-background:new 0 0 95 35;" xml:space="preserve">
<style type="text/css">
	.st0{fill-rule:evenodd;clip-rule:evenodd;fill:#CCCCCC;}
</style>
<g>
	<path class="st0" d="M59.2,17.7C59.2,17.7,59.2,17.6,59.2,17.7C59.2,17.6,59.2,17.6,59.2,17.7L59.2,17.7z"/>
	<path class="st0" d="M47.5,0c-11.6,0-21,5.9-21,13.1c0,4.9,4.3,9.3,10.7,11.5L27.9,35l16.6-8.8c1,0.1,1.9,0.2,2.9,0.2
		c11.6,0,21-5.9,21-13.2S59.1,0,47.5,0z M31.8,19.4l-0.2-1.1l0.5-0.1c0.6,0,0.8-0.1,0.8-0.2c0.2-0.1,0.3-0.3,0.3-0.7
		c0,0,0.4-3.3,0.4-3.6c-0.1-0.2-2.2-4.5-2.2-4.5c-0.3-0.6-0.4-0.7-0.4-0.7c-0.1,0-0.2-0.1-0.7-0.2l-0.3-0.1l-0.2-1.1h5l0.2,1.2h-0.5
		c-0.5,0.1-0.7,0.1-0.7,0.1h-0.1v0.1c0,0,0.1,0.1,0.1,0.2c0,0.2,0,0.2,0.1,0.3c0,0,1,2.1,1.4,3c0.5-0.7,1.1-1.6,1.1-1.6
		c0.3-0.5,0.5-0.9,0.7-1.1c0.2-0.4,0.2-0.7,0.2-0.7s0-0.1-0.1-0.2c-0.1,0-0.2-0.1-0.7-0.1h-0.4L36,7.2h4.1h0.3l0.2,1.1l-0.5,0.1
		c-0.3,0.1-0.5,0.1-0.6,0.2s-0.2,0.2-0.5,0.7c0,0-2.8,4.5-2.9,4.7c-0.1,0.5-0.3,3.1-0.3,3.1c-0.1,0.2-0.1,0.5-0.1,0.6v0.3
		c0.1,0.2,0.1,0.3,0.2,0.3c0.1,0.1,0.4,0.1,1.1,0.1l0.3,0.1l0.2,1.1H31.8z M47.7,17.3c-0.2,0.4-0.4,0.8-0.7,1.2
		c-0.5,0.8-1.1,1.2-1.7,1.2c-0.3,0-0.7-0.1-1-0.3c-0.2-0.2-0.4-0.5-0.5-0.9c0-0.2-0.1-0.4-0.1-0.6v-0.1c0-0.2,0-0.3,0.1-0.5
		c-0.2,0.3-0.3,0.6-0.5,0.7c-0.7,1-1.4,1.6-2.3,1.6c-0.2,0-0.5-0.1-0.7-0.2c-0.3-0.2-0.7-0.5-0.8-1.2v-0.7l0.3-4.7v-0.2
		c0-0.1-0.1-0.1-0.1-0.1c-0.1-0.1-0.2-0.1-0.6-0.1h-0.4l-0.2-1l1.6-0.3l1.3-0.3c0.1,0,0.3-0.1,0.5,0.2c0.1,0.1,0.2,0.2,0.2,0.4v0.1
		l-0.5,5.8v0.4c0.1,0,0.3-0.1,0.8-0.7c0.3-0.6,0.7-1.2,0.9-1.8c0.3-0.6,0.5-1.2,0.6-1.8c0.1-0.5,0.2-1.1,0.4-2.1l0.1-0.4h2.1
		l-0.1,0.5l-0.6,6v0.2l0-0.1c0,0,0.1-0.1,0.2-0.3l0.6-1l1,0.6L47.7,17.3z M60.9,17.3l-0.1,0.1c-0.3,0.5-0.7,1-1.1,1.5
		c-0.4,0.5-0.9,0.7-1.4,0.7c-0.2,0-0.5-0.1-0.7-0.2c-0.3-0.2-0.5-0.6-0.6-1.1v-0.7l0.4-4.8v-0.3c-0.2,0.1-0.6,0.3-0.8,0.7
		c-0.4,0.5-0.7,1-1,1.6c-0.2,0.6-0.4,1.1-0.4,1.4c-0.1,0.4-0.2,1.2-0.3,2.6l-0.1,0.4h-2.1c0,0,0.6-6.4,0.6-6.5v-0.3
		c-0.1,0-0.3,0.1-0.8,0.7c-0.4,0.6-0.7,1.1-1,1.6c-0.2,0.5-0.4,1.1-0.6,1.9c-0.1,0.7-0.2,1.4-0.3,2.1l-0.1,0.4h-2.2l0.7-6.5v-0.2
		c0-0.1-0.1-0.1-0.1-0.1c-0.1-0.1-0.2-0.1-0.7-0.1h-0.4l-0.2-1l0.4-0.1c0.6-0.1,1.4-0.3,2.6-0.6l0.2-0.1l0.5,0.3c0,0-0.1,1-0.2,1.7
		c0.1-0.2,0.2-0.3,0.3-0.5c0.7-1,1.4-1.4,2.2-1.4c0.3,0,0.6,0.1,0.9,0.3c0.4,0.2,0.7,0.7,0.8,1.2v0.3c0.1-0.1,0.2-0.2,0.2-0.3
		c0.8-1,1.5-1.5,2.3-1.5c0.4,0,0.7,0.1,1,0.3c0.3,0.3,0.6,0.7,0.7,1.2v0.4v0.6v0.1c0,0-0.3,3.5-0.4,4.3c0.1-0.1,0.1-0.1,0.2-0.2
		l0.1-0.1l0.7-1l1,0.7L60.9,17.3z M63.7,19.1c-0.2,0.3-0.6,0.4-1,0.4c-0.3,0-0.7-0.1-0.9-0.3c-0.3-0.2-0.5-0.6-0.6-1
		c-0.1-0.3,0.1-0.7,0.3-0.9c0.1-0.2,0.5-0.5,1-0.5c0.3,0,0.7,0.1,1,0.3c0.3,0.3,0.5,0.6,0.6,1C64.1,18.5,64,18.9,63.7,19.1z
		 M64.3,11.8c-0.1,0.2-0.2,0.6-0.4,1.8l-0.6,2.8l-0.7-0.1l-0.3-0.1l0.1-2.9c0.1-1.7,0.1-2.2,0.1-2.3V9.4c0-0.8,0.1-1.4,0.2-1.7
		c0.2-0.5,0.6-0.7,1-0.7c0.3,0,0.7,0.1,0.9,0.3c0.2,0.3,0.4,0.6,0.4,0.8c0.1,0.3,0.1,0.7,0,1C64.9,9.4,64.7,10.3,64.3,11.8z"/>
</g>
</svg>
