<?xml version="1.0" encoding="utf-8"?>
<!-- Generator: Adobe Illustrator 26.0.1, SVG Export Plug-In . SVG Version: 6.00 Build 0)  -->
<svg version="1.1" id="Layer_1" xmlns="http://www.w3.org/2000/svg" xmlns:xlink="http://www.w3.org/1999/xlink" x="0px" y="0px"
	 viewBox="0 0 95 35" style="enable-background:new 0 0 95 35;" xml:space="preserve">
<style type="text/css">
	.st0{fill:#104076;}
	.st1{fill:#FFFFFF;}
</style>
<path class="st0" d="M-39.1,613.7"/>
<g id="XMLID_1_">
	<g id="XMLID_96_">
		<path id="XMLID_107_" class="st1" d="M19.1,8.1L18.8,11L7,23.3c0,0,4.7-0.3,11.9,5.1c7.2,5.5,15.2,2.2,18.9-1.3l2.5,2.5
			c0,0-10.7,11.9-26.2,0.1c0,0-3.6-2.7-6.1-2.7s-7.7,0-7.7,0l0.4-2.3L12.6,12H3.8l0.9-3.7l14.2-0.1"/>
		<path id="XMLID_104_" class="st1" d="M31,11.2c2.3,0.8,3.3,4.2,2.2,7.8c-1.1,3.5-4,5.8-6.3,5c-2.3-0.8-3.3-4.2-2.2-7.8
			C25.8,12.7,28.6,10.4,31,11.2z M28.7,7.8c0,0-7.8,1.5-9.1,10.2s8.2,11.7,13.4,7.8c5.2-3.9,7.2-11.7,2.7-16.4
			C35.8,9.4,33.6,7,28.7,7.8z"/>
		<path id="XMLID_101_" class="st1" d="M57.2,14.2c-1,6.2-12.2,4.9-12.2,4.9C44.6,20,45,21.2,45,21.2c3.1,5.6,9.5,1.4,9.5,1.4
			l0.4,3.5c-1.4,1.3-15.6,4.1-14.4-7c1.2-11,10.4-11.6,10.4-11.6C52.5,7.4,58.2,8.1,57.2,14.2z M52,11.2c0,0-4.6-1.7-6.6,4.6
			c0,0,8.4,0.9,7.8-3C53.2,12.7,53,11.5,52,11.2z"/>
		<path id="XMLID_100_" class="st1" d="M60.1,8.4c0.1,0-0.6,3.3-0.6,3.3H62l-1.7,9.4c0,0-1.4,5.8,3,6.4c4.4,0.5,4.4-0.5,4.4-0.5
			l0.1-3.5c0,0-3.7,1.2-3.1-2.3c0.5-3.5,1.9-9.6,1.9-9.6h4.2l0.9-3.5l-4.4,0.1l0.9-5c0,0-5,1.4-4.8,1.4s-0.5,3.7-0.5,3.7L60.1,8.4z"
			/>
		
			<ellipse id="XMLID_99_" transform="matrix(0.5596 -0.8288 0.8288 0.5596 32.2317 66.1519)" class="st1" cx="78.4" cy="2.7" rx="2.8" ry="2.6"/>
		<polygon id="XMLID_98_" class="st1" points="75.2,8.2 71.6,27 76.2,27 79.7,8.2 		"/>
		<path id="XMLID_97_" class="st1" d="M93.5,21.4c-0.1,0.5-0.1,0.8-0.1,0.8c-2.3,8.2-13.6,4.4-13.6,4.4l1.3-3.2
			c0.7,0.4,2.6,0.8,2.6,0.8c5,0.9,6-3,2.9-5c-0.3-0.2-0.7-0.4-1.1-0.6c-0.4-0.2-0.7-0.3-1.1-0.5c-2.6-1.8-2.4-4.2-2.3-5
			c0-0.2,0.1-0.3,0.1-0.3c2.2-7.5,12.5-4,12.5-4l-1.2,2.9c-0.6-0.3-2.4-0.7-2.4-0.7c-4.1-0.7-5.3,2-3.5,3.9c0.4,0.5,1.1,0.9,1.9,1.2
			c3.4,1.3,3.9,4.1,4,5C93.5,21.1,93.5,21.3,93.5,21.4z"/>
	</g>
</g>
</svg>
