<?xml version="1.0" encoding="utf-8"?>
<!-- Generator: Adobe Illustrator 26.0.1, SVG Export Plug-In . SVG Version: 6.00 Build 0)  -->
<svg version="1.1" id="Layer_1" xmlns="http://www.w3.org/2000/svg" xmlns:xlink="http://www.w3.org/1999/xlink" x="0px" y="0px"
	 viewBox="0 0 95 35" style="enable-background:new 0 0 95 35;" xml:space="preserve">
<style type="text/css">
	.st0{fill:#FFFFFF;}
</style>
<path class="st0" d="M70.6,22c-0.3-0.7-0.9-1.2-1.7-1.2h-0.2l-0.5,0.1l1-7.8c0.2-1.6-0.2-3.2-1.3-4.5c-1.1-1.2-2.6-1.9-4.2-1.9
	c-3.4,0-5.9,2.6-6.6,6.7c-0.2,0.7-0.5,1.2-1,1.7l-3.9,4l2.3-17c0.1-0.5-0.1-1-0.4-1.4S53.3,0.1,52.8,0h-0.2c-1,0-1.8,0.7-1.9,1.7
	l-0.7,5.6h-0.1C49.1,7.1,48.4,7,47.6,7C44.3,7,41.5,9.5,41,12.8l-0.2,1v0.1c-0.1,0.4-0.3,0.8-0.6,1.2l-4.6,5.3l-0.4,0.5
	c-1.7,1.8-3,2.8-5.2,2.8c-0.8,0-1.5-0.7-1.6-1.5l4.1-2.8c2.8-2.1,5.6-4.1,5.2-7.8c0,0,0-0.1,0-0.1c-0.4-2.6-2.8-4.5-5.4-4.4
	c-3.4,0-6.2,2.5-6.6,5.8l-1.1,7.6l-1.2,0.8c-0.8,0.5-1.1,1.6-0.7,2.5c0.4,0.9,1.4,1.3,2.3,1c0.1,0.4,0.3,0.8,0.5,1.1
	c1.1,1.2,2.7,1.9,4.3,1.9c3.9,0,5.9-1.9,8-4.1l0.5-0.5l1.4-1.6v0.2c-0.2,1.5,0.3,3,1.3,4.1c1,1.1,2.5,1.8,4,1.9h0.2
	c1.9,0.1,3.7-0.5,5.2-1.7c1-0.8,1.9-1.6,2.8-2.6l0.5-0.5l0.1-0.1l2.2-2L56,21.5v0.4l-1.4,11c-0.1,0.5,0.1,1,0.4,1.4
	c0.3,0.4,0.8,0.7,1.3,0.7h0.2c1,0,1.8-0.7,1.9-1.7l0.8-6.1h0.1c0.7,0.3,1.4,0.4,2.2,0.4c0.8,0,1.7-0.2,2.5-0.5h0.2l5.7-2.5
	c0.5-0.2,0.8-0.6,1-1c0.2-0.5,0.2-1,0-1.5 M29.1,13.2c0.2-1.5,1.5-2.6,3-2.6h0.1c0.8-0.1,1.5,0.4,1.6,1.2c0.1,1.5-1.4,2.6-3.9,4.5
	l-0.6,0.4l-0.8,0.6L29.1,13.2z M49.2,13l-1,8.2c-0.1,1.3-1.2,2.4-2.5,2.5c-0.6,0.1-1.1-0.1-1.5-0.5c-0.3-0.5-0.4-1.2-0.3-1.8
	l1.1-8.2c0-1.3,1.1-2.4,2.4-2.5c0.5,0,1,0.1,1.4,0.5c0.4,0.5,0.5,1.2,0.3,1.8 M65.5,13.4l-1,7.7c-0.1,1.3-1.2,2.4-2.5,2.4
	c-0.6,0.1-1.1-0.1-1.5-0.5c-0.3-0.6-0.4-1.2-0.2-1.8l1-8.1c0.1-1.4,1.2-2.4,2.6-2.4c0.5,0,0.9,0.2,1.2,0.5
	C65.4,11.8,65.6,12.6,65.5,13.4"/>
</svg>
