<?xml version="1.0" encoding="utf-8"?>
<!-- Generator: Adobe Illustrator 26.0.1, SVG Export Plug-In . SVG Version: 6.00 Build 0)  -->
<svg version="1.1" id="Layer_1" xmlns="http://www.w3.org/2000/svg" xmlns:xlink="http://www.w3.org/1999/xlink" x="0px" y="0px"
	 viewBox="0 0 95 35" style="enable-background:new 0 0 95 35;" xml:space="preserve">
<style type="text/css">
	.st0{fill-rule:evenodd;clip-rule:evenodd;fill:#343741;}
</style>
<path class="st0" d="M47.6,9.6h1.5v7.6h-1.5V9.6z M55.9,14.4c0,1.8-1.2,2.9-2.9,2.9c-0.4,0-0.8,0-1-0.1v2.2h-1.5v-7.4
	c0.5-0.2,1.2-0.4,2.3-0.4C54.8,11.7,55.9,12.7,55.9,14.4L55.9,14.4z M54.4,14.5c0-1.3-0.4-2.1-1.6-2.1c-0.3,0-0.6,0-0.8,0.1v4
	c0.2,0.1,0.4,0.1,0.7,0.1C53.9,16.6,54.4,15.8,54.4,14.5z M39.9,17.3c0,1.5-1.1,2.2-2.7,2.2c-0.7,0-1.3-0.1-1.8-0.2v-0.9
	c0.4,0.2,1,0.3,1.6,0.3c1.1,0,1.5-0.5,1.5-1.2v-0.3c-0.3,0.1-0.7,0.2-1.2,0.2c-1.6,0-2.6-1-2.6-2.7c0-1.8,1.1-3,3.2-3
	c1,0,1.7,0.2,2.1,0.4L39.9,17.3L39.9,17.3L39.9,17.3z M38.5,16.4v-3.9c-0.2-0.1-0.5-0.1-0.8-0.1c-1.2,0-1.6,0.8-1.6,2.2
	c0,1.3,0.5,2,1.6,2C38,16.6,38.3,16.5,38.5,16.4z M46.1,16.9c-0.5,0.2-1.4,0.4-2.4,0.4c-1.8,0-2.7-0.6-2.7-1.7c0-1.4,1.7-1.9,3.7-2
	v-0.3c0-0.7-0.5-0.9-1.3-0.9c-0.6,0-1.2,0.2-1.6,0.3V12c0.6-0.2,1.3-0.3,1.9-0.3c1.4,0,2.4,0.5,2.4,1.9L46.1,16.9L46.1,16.9
	L46.1,16.9z M44.7,16.5v-2.3c-1.4,0.1-2.3,0.4-2.3,1.4c0,0.7,0.5,1,1.4,1C44.2,16.7,44.5,16.6,44.7,16.5L44.7,16.5z M63.7,14.2
	l-4.2,0.5c0.1,1.5,0.9,2.2,2.2,2.2c0.6,0,1-0.1,1.4-0.2v0.5c-0.4,0.1-0.9,0.2-1.4,0.2c-1.6,0-2.8-0.8-2.8-2.9c0-1.9,1.1-2.8,2.5-2.8
	C62.8,11.7,63.7,12.4,63.7,14.2L63.7,14.2z M63.1,14c0-1.4-0.7-1.9-1.7-1.9c-1,0-1.9,0.7-1.9,2.3L63.1,14L63.1,14z M69.4,17.2h-0.7
	v-4c0-0.6-0.3-1.2-1.6-1.2c-0.7,0-1.1,0.1-1.5,0.2v5h-0.7v-5.2c0.5-0.2,1.2-0.4,2.2-0.4c1.7,0,2.1,0.9,2.1,1.6L69.4,17.2L69.4,17.2
	L69.4,17.2z M75.7,14.2l-4.2,0.5c0.1,1.5,0.9,2.2,2.2,2.2c0.6,0,1-0.1,1.4-0.2v0.5c-0.4,0.1-0.9,0.2-1.4,0.2c-1.6,0-2.8-0.8-2.8-2.9
	c0-1.9,1.1-2.8,2.5-2.8C74.8,11.7,75.7,12.4,75.7,14.2z M75.1,14c0-1.4-0.7-1.9-1.7-1.9c-1,0-1.9,0.7-1.9,2.3L75.1,14L75.1,14z
	 M79.6,12.1C79,12,78.4,12.1,78,12.3v4.9h-0.7v-5.2c0.6-0.2,1-0.4,2.3-0.4L79.6,12.1L79.6,12.1z M81.1,19.3v-0.5
	c0.3,0.2,0.9,0.3,1.4,0.3c1.3,0,1.8-0.7,1.8-1.6V17c-0.3,0.2-0.8,0.3-1.4,0.3c-1.6,0-2.5-1.1-2.5-2.7c0-1.7,0.9-2.9,2.8-2.9
	c0.9,0,1.4,0.2,1.8,0.4v5.4c0,1.3-0.8,2.1-2.3,2.1C82,19.5,81.4,19.4,81.1,19.3L81.1,19.3z M84.3,16.7v-4.5C84,12.1,83.6,12,83.2,12
	c-1.5,0-2.1,1.1-2.1,2.6c0,1.5,0.6,2.4,2,2.4C83.6,17,84,16.9,84.3,16.7L84.3,16.7z M87.7,10.2c0,0.2-0.2,0.4-0.4,0.4
	c-0.2,0-0.4-0.2-0.4-0.4s0.2-0.4,0.4-0.4C87.5,9.9,87.7,10,87.7,10.2z M86.9,11.8h0.7v5.5h-0.7V11.8z M93.4,17
	c-0.5,0.2-1.2,0.4-2,0.4c-1.6,0-2.3-0.6-2.3-1.6c0-1.5,1.6-1.9,3.7-2.1v-0.4c0-1-0.7-1.3-1.6-1.3c-0.6,0-1.1,0.2-1.4,0.3V12
	c0.4-0.1,0.9-0.3,1.5-0.3c1.1,0,2.1,0.4,2.1,1.7V17L93.4,17z M92.8,16.8V14c-1.9,0.2-3,0.5-3,1.8c0,0.9,0.7,1.2,1.7,1.2
	C92,17,92.5,16.9,92.8,16.8L92.8,16.8z M37.1,33.5v-2.2c0-0.8-0.6-1-1.2-1c-0.4,0-0.8,0.1-1,0.2l0.1,0.2c0.2-0.1,0.6-0.2,0.9-0.2
	c0.6,0,1,0.2,1,0.8v0.2c-1.2,0.1-2.2,0.3-2.2,1.2c0,0.5,0.4,0.9,1.3,0.9C36.4,33.7,36.8,33.6,37.1,33.5L37.1,33.5z M36.8,33.4
	c-0.2,0.1-0.5,0.2-0.8,0.2c-0.6,0-1.1-0.2-1.1-0.7c0-0.8,0.7-0.9,1.9-1.1V33.4z M41.8,32.8c0-1.2-1.8-0.7-1.8-1.6
	c0-0.3,0.3-0.6,0.8-0.6c0.3,0,0.6,0.1,0.7,0.2l0.1-0.2c-0.2-0.1-0.5-0.2-0.8-0.2c-0.7,0-1.1,0.4-1.1,0.8c0,1.1,1.7,0.6,1.7,1.6
	c0,0.4-0.4,0.7-0.9,0.7c-0.4,0-0.7-0.1-0.8-0.2l-0.1,0.2c0.2,0.1,0.6,0.2,1,0.2C41.3,33.7,41.8,33.2,41.8,32.8L41.8,32.8z
	 M45.1,33.5v-3.1h-0.3v2.9c-0.2,0.1-0.5,0.2-0.9,0.2c-0.6,0-1-0.3-1-0.8v-2.3h-0.3v2.3c0,0.6,0.3,1.1,1.2,1.1
	C44.4,33.7,44.9,33.6,45.1,33.5L45.1,33.5z M48.3,33.5v-2.2c0-0.8-0.6-1-1.2-1c-0.4,0-0.8,0.1-1,0.2l0.1,0.2
	c0.2-0.1,0.6-0.2,0.9-0.2c0.6,0,1,0.2,1,0.8v0.2c-1.2,0.1-2.2,0.3-2.2,1.2c0,0.5,0.4,0.9,1.3,0.9C47.7,33.7,48.1,33.6,48.3,33.5
	L48.3,33.5z M48,33.4c-0.2,0.1-0.5,0.2-0.8,0.2c-0.6,0-1.1-0.2-1.1-0.7c0-0.8,0.7-0.9,1.9-1.1V33.4z M53.8,31.9
	c0-1.1-0.6-1.5-1.4-1.5c-0.8,0-1.5,0.5-1.5,1.7c0,1.2,0.7,1.7,1.6,1.7c0.5,0,0.9-0.1,1.1-0.2l-0.1-0.2c-0.2,0.1-0.5,0.2-0.9,0.2
	c-0.8,0-1.3-0.4-1.3-1.3L53.8,31.9L53.8,31.9z M53.4,31.7L51.2,32c0-1,0.5-1.4,1.1-1.4S53.4,30.9,53.4,31.7z M57.1,33.6v-2.4
	c0-0.7-0.7-0.9-1.3-0.9c-0.5,0-0.9,0.1-1.2,0.2v3.1h0.3v-3c0.2-0.1,0.5-0.1,0.8-0.1c0.5,0,1.1,0.2,1.1,0.7v2.4L57.1,33.6L57.1,33.6
	L57.1,33.6z M60.7,31.9c0-1.1-0.6-1.5-1.4-1.5c-0.8,0-1.5,0.5-1.5,1.7c0,1.2,0.7,1.7,1.6,1.7c0.5,0,0.9-0.1,1.1-0.2l-0.1-0.2
	c-0.2,0.1-0.5,0.2-0.9,0.2c-0.8,0-1.3-0.4-1.3-1.3L60.7,31.9L60.7,31.9z M60.4,31.7L58.2,32c0-1,0.5-1.4,1.1-1.4
	C60,30.5,60.4,30.9,60.4,31.7z M63,30.3c0,0-0.1,0-0.2,0c-0.6,0-1,0.1-1.3,0.2v3.1h0.3v-2.9c0.2-0.1,0.7-0.2,1.1-0.1L63,30.3z
	 M66.1,33.7v-3.2c-0.2-0.1-0.6-0.2-1-0.2c-1.1,0-1.6,0.7-1.6,1.7c0,1,0.6,1.6,1.5,1.6c0.3,0,0.7-0.1,0.9-0.2v0.2c0,0.5-0.3,1-1.1,1
	c-0.4,0-0.8-0.1-1-0.2l-0.1,0.2c0.2,0.1,0.7,0.2,1.1,0.2C65.6,35,66.1,34.5,66.1,33.7L66.1,33.7z M65.7,33.3
	c-0.2,0.1-0.5,0.2-0.8,0.2c-0.8,0-1.3-0.5-1.3-1.4c0-0.9,0.4-1.5,1.3-1.5c0.3,0,0.6,0.1,0.7,0.1L65.7,33.3L65.7,33.3z M67,33.6h0.3
	v-3.2H67V33.6z M67.4,29.5c0-0.1-0.1-0.2-0.2-0.2c0,0,0,0,0,0c-0.1,0-0.2,0.1-0.2,0.2c0,0,0,0,0,0c0,0.1,0.1,0.2,0.2,0.2
	c0,0,0,0,0,0C67.3,29.7,67.4,29.6,67.4,29.5C67.4,29.5,67.4,29.5,67.4,29.5z M70.7,33.5v-2.2c0-0.8-0.6-1-1.2-1
	c-0.4,0-0.7,0.1-1,0.2l0.1,0.2c0.2-0.1,0.6-0.2,0.9-0.2c0.6,0,1,0.2,1,0.8v0.2c-1.2,0.1-2.2,0.3-2.2,1.2c0,0.5,0.4,0.9,1.3,0.9
	C70,33.7,70.4,33.6,70.7,33.5z M70.4,33.4c-0.2,0.1-0.5,0.2-0.8,0.2c-0.6,0-1.1-0.2-1.1-0.7c0-0.8,0.7-0.9,1.9-1.1L70.4,33.4
	L70.4,33.4z M76,32c0-1-0.5-1.6-1.6-1.6c-0.5,0-0.8,0.1-1.1,0.2v4.4h0.3v-1.3c0.2,0,0.5,0.1,0.7,0.1C75.4,33.7,76,33,76,32L76,32z
	 M75.7,32c0,0.9-0.5,1.5-1.4,1.5c-0.2,0-0.5,0-0.6-0.1v-2.7c0.2-0.1,0.4-0.1,0.7-0.1C75.4,30.5,75.7,31.1,75.7,32L75.7,32z M79.6,32
	c0-0.9-0.4-1.7-1.4-1.7s-1.4,0.8-1.4,1.7c0,0.9,0.4,1.7,1.4,1.7S79.6,33,79.6,32z M79.3,32c0,0.7-0.3,1.4-1.1,1.4
	c-0.8,0-1.1-0.7-1.1-1.4c0-0.7,0.3-1.5,1.1-1.5S79.3,31.3,79.3,32L79.3,32z M82.4,32.8c0-1.2-1.8-0.7-1.8-1.6c0-0.3,0.3-0.6,0.8-0.6
	c0.3,0,0.6,0.1,0.7,0.2l0.1-0.2c-0.2-0.1-0.5-0.2-0.8-0.2c-0.7,0-1.1,0.4-1.1,0.8c0,1.1,1.7,0.6,1.7,1.6c0,0.4-0.4,0.7-0.9,0.7
	c-0.4,0-0.7-0.1-0.8-0.2l-0.1,0.2c0.2,0.1,0.6,0.2,1,0.2C81.9,33.7,82.4,33.2,82.4,32.8z M83.2,33.6h0.3v-3.2h-0.3V33.6z M83.6,29.5
	c0-0.1-0.1-0.2-0.2-0.2c0,0,0,0,0,0c-0.1,0-0.2,0.1-0.2,0.2c0,0,0,0,0,0c0,0.1,0.1,0.2,0.2,0.2C83.5,29.7,83.6,29.6,83.6,29.5
	C83.6,29.5,83.6,29.5,83.6,29.5z M85.9,33.7v-0.2c0,0-0.1,0-0.2,0c-0.4,0-0.6-0.3-0.6-0.5v-2.4h0.8v-0.2h-0.8v-0.9l-0.3,0.1v0.8
	h-0.5v0.2h0.5v2.3c0,0.3,0.2,0.8,0.9,0.8C85.8,33.7,85.9,33.7,85.9,33.7L85.9,33.7z M86.7,33.6H87v-3.2h-0.3V33.6z M87.1,29.5
	c0-0.1-0.1-0.2-0.2-0.2s-0.2,0.1-0.2,0.2c0,0.1,0.1,0.2,0.2,0.2S87.1,29.6,87.1,29.5z M90.6,30.4h-0.3L89.3,33
	c-0.1,0.2-0.1,0.4-0.1,0.4h0c0,0-0.1-0.2-0.1-0.4l-1-2.5h-0.4l1.3,3.2h0.3L90.6,30.4L90.6,30.4z M93.4,33.5v-2.2c0-0.8-0.6-1-1.2-1
	c-0.4,0-0.8,0.1-1,0.2l0.1,0.2c0.2-0.1,0.6-0.2,0.9-0.2c0.6,0,1,0.2,1,0.8v0.2c-1.2,0.1-2.2,0.3-2.2,1.2c0,0.5,0.4,0.9,1.3,0.9
	C92.8,33.7,93.2,33.6,93.4,33.5z M93.1,33.4c-0.2,0.1-0.5,0.2-0.8,0.2c-0.6,0-1.1-0.2-1.1-0.7c0-0.8,0.7-0.9,1.9-1.1L93.1,33.4
	L93.1,33.4z"/>
<path class="st0" d="M29.4,9.9c-0.9-1.7-2.1-3.2-3.7-4.8v0c-1.5-1.5-3.1-2.7-4.8-3.7c-1.8-1-3.4-1.4-4.8-1.4c-1.4,0-3,0.5-4.8,1.4
	C9.8,2.4,8.2,3.6,6.7,5.1C5.1,6.6,3.9,8.2,3,9.9c-1,1.8-1.4,3.4-1.4,4.8c0,1.4,0.5,3,1.4,4.8c0.9,1.6,2.1,3.2,3.7,4.8
	c1.5,1.5,3.1,2.7,4.8,3.7c1.8,1,3.4,1.4,4.8,1.5c1.4,0,3-0.5,4.8-1.5c1.7-0.9,3.2-2.1,4.8-3.7c1.5-1.5,2.7-3.1,3.7-4.8
	c1-1.8,1.4-3.4,1.5-4.8C30.8,13.2,30.4,11.6,29.4,9.9z M24.6,17.8L19.4,23c-0.9,0.9-1.9,1.3-3.2,1.3c-1.2,0-2.3-0.4-3.2-1.3
	l-5.2-5.2c-0.9-0.9-1.3-1.9-1.3-3.2c0-1.2,0.4-2.3,1.3-3.2l5.6-5.6l1.5,1.5c0.4,0.4,0.6,0.8,0.6,1.3c0,0.5-0.2,1-0.6,1.4l-1.6,1.6
	c-0.8,0.8-1.2,1.8-1.2,2.9c0,1.2,0.4,2.1,1.2,3c0.8,0.8,1.8,1.2,2.9,1.2c1.1,0,2.1-0.4,3-1.2c0.8-0.8,1.2-1.8,1.2-3
	c0-1.1-0.4-2.1-1.2-2.9l-0.4-0.4c-0.1-0.1-0.2-0.1-0.3-0.1c-0.1,0-0.2,0-0.2,0.1l-1.3,1.3c-0.1,0.1-0.1,0.1-0.1,0.2
	c0,0.1,0,0.2,0.1,0.3c0.1,0.1,0.2,0.1,0.2,0.1c0.1,0,0.2,0,0.3-0.1l0.4-0.4l0.2,0.2c0.5,0.5,0.7,1.1,0.7,1.8c0,0.7-0.2,1.3-0.7,1.8
	c-0.5,0.5-1.1,0.7-1.8,0.7c-0.7,0-1.3-0.2-1.8-0.7c-0.5-0.5-0.7-1.1-0.7-1.8c0-0.7,0.2-1.3,0.7-1.8l5.8-5.8l4.4,4.4
	c0.9,0.9,1.3,1.9,1.3,3.2C25.9,15.9,25.5,16.9,24.6,17.8z"/>
</svg>
