<?xml version="1.0" encoding="utf-8"?>
<!-- Generator: Adobe Illustrator 26.0.1, SVG Export Plug-In . SVG Version: 6.00 Build 0)  -->
<svg version="1.1" id="Layer_1" xmlns="http://www.w3.org/2000/svg" xmlns:xlink="http://www.w3.org/1999/xlink" x="0px" y="0px"
	 viewBox="0 0 95 35" style="enable-background:new 0 0 95 35;" xml:space="preserve">
<style type="text/css">
	.st0{fill:#CCCCCC;}
</style>
<g>
	<path class="st0" d="M37.5,6c0.2,0,0.4,0.1,0.7,0.2c0.8,0.4,1.3,1.6,1.3,4.9c0,3-0.3,4.4-0.8,5c-0.2,0.4-0.6,0.6-0.9,0.6V17
		c3.2-0.4,5.7-2.4,5.7-5.7c0-3.2-2.5-5.4-5.9-5.5L37.5,6z"/>
	<path class="st0" d="M44.3,9v5.8c0,1.4-0.3,1.6-1.2,1.8v0.2h6.1v-0.2C48.4,16.5,48,16.2,48,15V5.8l0-0.1l-4.7,1.4v0.1
		c0.1,0,0.3,0.2,0.4,0.3C44.1,7.9,44.3,8.2,44.3,9"/>
	<path class="st0" d="M32.2,27c0.4,0.7,1.3,0.8,2,0.4c0.7-0.4,0.9-1.3,0.5-1.9c-0.4-0.7-1.3-0.8-2-0.4C32,25.5,31.8,26.3,32.2,27"/>
	<path class="st0" d="M17.6,9.2l-2.1,0.3v0.2h5.4c0-2-1.3-3.7-4.2-3.8V6C17.2,6.2,17.5,7.7,17.6,9.2"/>
	<path class="st0" d="M16.2,17c3.3,0,4.6-2.6,4.9-3.9L21,13c-0.5,0.8-1.4,1.3-2.9,1.3c-2.1,0-3.4-1.4-3.4-4.2c0-2.6,0.5-3.8,1.3-4.1
		V5.8c-2.9,0.4-5,2.6-5,5.8C11,14.4,12.7,17,16.2,17"/>
	<path class="st0" d="M27.7,7.1l0.2,0c-0.2,0.2-0.3,0.6-0.3,1.1c0,1,0.7,1.6,1.7,1.6c1.1,0,2-0.8,2-2c0-1.3-0.8-2-2.1-2
		c-1.1,0-2.1,1-2.4,1.9v0.1C27,7.3,27.4,7.1,27.7,7.1"/>
	<path class="st0" d="M27.7,16.6c-0.9-0.1-1.4-0.5-1.4-1.7V5.8l0-0.1l-4.7,1.4v0.1c0.1,0,0.3,0.2,0.4,0.3c0.4,0.3,0.6,0.6,0.6,1.4
		v5.8c0,1.4-0.3,1.6-1.2,1.8v0.2h6.4V16.6z"/>
	<path class="st0" d="M85.8,23.1v0.2c1.2,0.2,2.4,1.9,2.9,3.4h0.2l-0.1-3.2C88.4,23.4,86.9,23.1,85.8,23.1"/>
	<path class="st0" d="M3.7,15.1C3.1,14.2,1.9,14,1,14.6c-0.9,0.6-1.3,1.7-0.7,2.7c0.6,0.9,1.8,1.1,2.7,0.5C4,17.2,4.3,16,3.7,15.1"
		/>
	<path class="st0" d="M77.7,9.5V15c0,1.1-0.3,1.5-1.1,1.6v0.2h6.1v-0.2c-0.9-0.2-1.2-0.5-1.2-1.8V9c0-1.9-0.5-3.2-2.6-3.2
		c-1.5,0-3,1-3.7,2.1V8c0.3-0.1,0.7-0.2,1-0.2C77.4,7.8,77.7,8.3,77.7,9.5"/>
	<path class="st0" d="M71,9.5V15c0,1.1-0.3,1.5-1.1,1.6v0.2h5.9v-0.2c-0.8-0.1-1.1-0.5-1.1-1.6V9c0-1.9-0.5-3.2-2.6-3.2
		c-1.5,0-3,1-3.7,2.1V8c0.3-0.1,0.7-0.2,1-0.2C70.6,7.8,71,8.3,71,9.5"/>
	<path class="st0" d="M62.7,16.6c-0.9-0.2-1.3-0.5-1.3-1.8V9.1c0-1,0-2.3,0.1-3.3l0-0.1l-4.9,1.4v0.1c0.1,0,0.4,0.2,0.5,0.3
		c0.4,0.3,0.6,0.6,0.6,1.5v5.8c0,1.4-0.3,1.6-1.2,1.8v0.2h6.2V16.6z"/>
	<path class="st0" d="M88.8,17v-0.2c-0.2,0-0.5-0.1-0.7-0.3c-0.8-0.4-1.3-1.6-1.3-4.9c0-3,0.4-4.5,0.8-5.1c0.2-0.3,0.6-0.5,0.9-0.6
		V5.8c-3.1,0.3-5.6,2.4-5.6,5.7C82.9,14.7,85.4,16.9,88.8,17"/>
	<path class="st0" d="M69,16.6c-0.8-0.1-1.1-0.5-1.1-1.6V5.8l0-0.1l-4.7,1.4v0.1c0.1,0,0.3,0.2,0.4,0.3c0.4,0.3,0.6,0.6,0.6,1.4v5.8
		c0,1.4-0.3,1.6-1.2,1.8v0.2H69V16.6z"/>
	<path class="st0" d="M59.5,5.2c1.1,0,2-0.8,2-1.9c0-1.1-0.9-1.9-2-1.9c-1.1,0-2,0.8-2,1.9C57.5,4.4,58.4,5.2,59.5,5.2"/>
	<path class="st0" d="M64.2,22.5c1.1,0,2-0.8,2-1.9c0-1.1-0.9-1.9-2-1.9c-1.1,0-2,0.8-2,1.9C62.2,21.7,63.1,22.5,64.2,22.5"/>
	<path class="st0" d="M51.3,9.5V15c0,1.1-0.3,1.5-1.1,1.6v0.2h6v-0.2c-0.9-0.2-1.2-0.5-1.2-1.8V9c0-1.9-0.7-3.2-2.8-3.2
		c-1.5,0-3,1-3.7,2.1V8c0.3-0.1,0.7-0.2,1.1-0.2C50.8,7.8,51.3,8.3,51.3,9.5"/>
	<path class="st0" d="M79.6,32.1v-5.8c0-1.9-0.7-3.2-2.8-3.2c-1.5,0-3,1-3.7,2.1v0.1c0.3-0.1,0.7-0.2,1.1-0.2c1.1,0,1.6,0.5,1.6,1.8
		v5.5c0,1.1-0.3,1.5-1.1,1.6v0.2h6v-0.2C79.9,33.8,79.6,33.5,79.6,32.1"/>
	<path class="st0" d="M72.6,32.3v-9.2l0-0.1l-4.7,1.4v0.1c0.1,0,0.3,0.2,0.4,0.3c0.4,0.3,0.6,0.6,0.6,1.4v5.8c0,1.4-0.3,1.6-1.2,1.8
		v0.2h6.1v-0.2C72.9,33.8,72.6,33.5,72.6,32.3"/>
	<path class="st0" d="M50,23.1c-1.1,0-2.1,1-2.4,1.9v0.1c0.3-0.5,0.7-0.7,1-0.7l0.2,0c-0.2,0.2-0.3,0.6-0.3,1.1c0,1,0.7,1.6,1.7,1.6
		c1.1,0,2-0.8,2-2C52.1,23.9,51.3,23.1,50,23.1"/>
	<path class="st0" d="M61.3,31.9c-0.3,0.1-1,0.2-1.6,0.2c-1.3,0-2-0.6-2-1.9v-5.5h3.1l0.2-1.4h-3.4v-2.8l-0.3-0.1l-4.6,3.9v0.4H54
		v6.4c0,2.4,1.5,3.1,3.3,3.1c1.9,0,3.5-1.3,4-2.2V31.9z"/>
	<path class="st0" d="M66.1,32.2v-5.7c0-1,0-2.3,0.1-3.3l0-0.1l-4.9,1.4v0.1c0.1,0,0.4,0.2,0.5,0.3c0.4,0.3,0.6,0.6,0.6,1.5v5.8
		c0,1.4-0.3,1.6-1.2,1.8v0.2h6.2V34C66.6,33.8,66.1,33.5,66.1,32.2"/>
	<path class="st0" d="M89.1,5.8V6c0.2,0,0.4,0.1,0.7,0.2c0.8,0.4,1.3,1.6,1.3,4.9c0,3-0.3,4.4-0.8,5c-0.2,0.4-0.6,0.6-0.9,0.6V17
		c3.2-0.4,5.7-2.4,5.7-5.7C95,8.2,92.5,6,89.1,5.8"/>
	<path class="st0" d="M81.3,30.2h-0.2l0.1,3.4c0.6,0.3,2.2,0.6,3.2,0.6v-0.1C83.5,33.8,81.8,31.8,81.3,30.2"/>
	<path class="st0" d="M86.4,27c-1.1-0.7-2.3-1.3-2.3-2.4c0-0.8,0.5-1.2,1-1.3v-0.2c-2.3,0.2-3.9,1.6-3.9,3.4c0,2,1.4,2.9,2.8,3.7
		c1.3,0.7,2.4,1.3,2.4,2.3c0,0.9-0.5,1.4-1.2,1.5v0.1c2.6-0.2,4.2-1.5,4.2-3.8C89.4,29,88,28,86.4,27"/>
	<path class="st0" d="M11.2,2V1.8h-8V2C4.5,2.2,5,2.8,5,4.8v10.3c0,0.3,0,0.6,0,0.9l0,0c0,0-0.1,1.8-2.1,2.7c0,0,2,0.3,3.8-0.7
		c0.6-0.3,1-0.6,1.4-1l0,0l0,0c1-1.1,1.1-2.4,1.2-2.7V4.8C9.3,2.7,10,2.2,11.2,2"/>
	<path class="st0" d="M19.7,34.2L19.7,34.2L19.7,34.2L19.7,34.2z"/>
	<path class="st0" d="M29.5,31l-0.4-8.9c-0.1-2.1,0.6-2.6,1.9-2.8v-0.2h-6.3l0,0l0,0L21.7,27l0.4,1l2.8-7.2l0.4,10.5
		c0.1,1.9-0.7,2.4-1.9,2.6v0.2h8.1v-0.2C30.1,33.7,29.6,33.1,29.5,31"/>
	<path class="st0" d="M21.4,27.7l-3.8-8.6h-6.8v0.2c0.7,0.1,1.5,0.5,2.1,1c0.6,0.6,1.1,1.4,1.6,2.4l5.2,11.5l0-0.1l0.1,0l2.1-5.5
		L21.4,27.7L21.4,27.7z"/>
	<path class="st0" d="M14.4,32.9c-0.5-0.5-0.6-1.5-0.6-2.4l0.4-6.9l-0.6-1.2L13,30c-0.1,0.8-0.2,1.3-0.4,1.7
		c-0.2,0.3-0.4,0.6-0.6,0.9l-0.1,0l0,0c-0.1,0.1-0.1,0.2-0.2,0.2c-0.5,0.6-1.1,0.9-2,1v0.2h6.7v-0.2C15.6,33.8,15,33.5,14.4,32.9"/>
	<path class="st0" d="M42.2,32.5c-0.1,0.1-0.4,0.2-0.6,0.2c-0.6,0-0.9-0.3-0.9-1v-5.3c0-2-1-3.3-3.6-3.3c-1.3,0-2.7,0.6-3.6,1.2v0.1
		c2.1,0,3.5,0.5,3.5,2.2v4.9c0,1.8,0.8,2.8,2.5,2.8C41,34.3,41.9,33.4,42.2,32.5L42.2,32.5z"/>
	<path class="st0" d="M34.9,30.7c0-0.5,0.1-1.1,0.4-1.5c0.2-0.3,0.8-0.5,1.2-0.7v-0.2c-1,0.3-3.6,0.9-4.1,1c-0.5,0.2-1.1,1-1.1,2.2
		c0,1.5,0.9,2.7,2.7,2.7c1.5,0,2.5-1.2,2.7-1.8v-0.1c-0.1,0.1-0.5,0.2-0.7,0.2C35.3,32.6,34.9,32.1,34.9,30.7"/>
	<path class="st0" d="M47.1,32.2v-9.1l0-0.1l-4.7,1.4v0.1c0.1,0,0.3,0.2,0.4,0.3c0.4,0.3,0.6,0.6,0.6,1.4v5.8c0,1.4-0.3,1.6-1.2,1.8
		v0.2h6.4v-0.2C47.6,33.8,47.1,33.4,47.1,32.2"/>
	<path class="st0" d="M34.7,6.4c-2,0.9-3.4,2.6-3.4,5.1c0,3.2,2.5,5.4,5.9,5.5v-0.2c-0.2,0-0.5-0.1-0.7-0.3
		c-0.8-0.4-1.3-1.6-1.3-4.9c0-3,0.4-4.5,0.8-5.1c0.2-0.3,0.6-0.5,0.9-0.6V5.8c-0.5,0.1-1,0.2-1.5,0.3c0.7-1,0.9-1,0.9-1
		c0.8,0,1.6-0.3,1.6-0.3c2.8-0.9,2.8-4.1,2.8-4.1l-0.1,0l-0.1,0.1c-0.5,0.5-1.2,0.8-1.9,1c-2.5,0.6-2.8,1.6-2.7,2.7l0,0.2
		c1.1-1.1,2.3-1.8,2.8-2l0,0.1C36.4,4,34.9,6.1,34.7,6.4"/>
</g>
</svg>
