<?xml version="1.0" encoding="utf-8"?>
<!-- Generator: Adobe Illustrator 26.0.1, SVG Export Plug-In . SVG Version: 6.00 Build 0)  -->
<svg version="1.1" id="Layer_1" xmlns="http://www.w3.org/2000/svg" xmlns:xlink="http://www.w3.org/1999/xlink" x="0px" y="0px"
	 viewBox="0 0 95 35" style="enable-background:new 0 0 95 35;" xml:space="preserve">
<style type="text/css">
	.st0{fill:#FFFFFF;}
</style>
<path class="st0" d="M37,18.1c-0.2,0.8-0.8,1.4-1.8,1.4c-1.3,0-2-0.8-2-2.1c0-1.2,0.9-2.1,2-2.1c1,0,1.6,0.6,1.8,1.3L36,16.9
	c-0.1-0.3-0.3-0.7-0.8-0.7c-0.5,0-0.9,0.4-0.9,1.1c0,0.8,0.4,1.2,1,1.2c0.3,0,0.6-0.1,0.7-0.5H37"/>
<path class="st0" d="M58.8,15.3c-1.2,0-2.1,0.9-2.1,2.1c0,1.2,0.9,2.1,2.1,2.1c1.1,0,2-0.9,2-2.1C60.8,16.2,59.9,15.3,58.8,15.3
	 M58.8,18.5c-0.6,0-1-0.4-1-1.2c0-0.7,0.5-1.2,1-1.2c0.5,0,1,0.4,1,1.2C59.8,18.1,59.3,18.5,58.8,18.5z"/>
<path class="st0" d="M54.8,15.4h1V16c0.2-0.4,0.5-0.7,1-0.7c0.1,0,0.2,0,0.3,0c-0.3,0.3-0.5,0.7-0.7,1.1h0c-0.4,0-0.6,0.3-0.6,0.8v1
	c0,0.7-0.2,1.2-1.1,1.2L54.8,15.4"/>
<path class="st0" d="M53.4,14.4h0.2v1h0.9l-0.3,0.9h-0.6v1.6c0,0.5,0.2,0.7,0.8,0.7v0.9c-0.2,0-0.3,0-0.5,0c-0.8,0-1.3-0.4-1.3-1.4
	v-2.6C52.5,14.8,52.8,14.4,53.4,14.4"/>
<path class="st0" d="M52.2,18.2c0,0.6-0.5,1.3-1.6,1.3c-0.9,0-1.6-0.4-1.7-1.2h1c0.1,0.3,0.3,0.4,0.7,0.4c0.4,0,0.5-0.2,0.5-0.4
	c0-0.2-0.1-0.3-0.4-0.4l-0.6-0.1c-0.8-0.2-1.1-0.5-1.1-1.2c0-0.7,0.7-1.3,1.5-1.3c0.9,0,1.5,0.4,1.6,1.1l-0.9,0.2
	c0-0.3-0.2-0.5-0.7-0.5c-0.3,0-0.5,0.2-0.5,0.4c0,0.2,0.2,0.3,0.4,0.4L51,17C51.8,17.2,52.2,17.5,52.2,18.2"/>
<path class="st0" d="M48.6,17.3c0-1.3-0.7-2-1.8-2c-1.1,0-2,0.8-2,2.1c0,1.3,0.8,2.1,2,2.1c1.1,0,1.6-0.6,1.7-1.2h-1
	c-0.1,0.2-0.4,0.4-0.7,0.4c-0.5,0-0.8-0.3-0.9-0.9h2.7C48.6,17.7,48.6,17.5,48.6,17.3 M45.9,16.9c0.1-0.5,0.4-0.8,0.9-0.8
	c0.5,0,0.8,0.3,0.8,0.8H45.9z"/>
<path class="st0" d="M43,19.5c-0.4,0-0.6-0.2-0.7-0.6l-1.2-3.5h1.1l0.9,2.9l0.8-2.9h1l-1.2,3.5c-0.1,0.4-0.3,0.6-0.7,0.6L43,19.5"/>
<path class="st0" d="M39.2,15.3c-1.2,0-2.1,0.9-2.1,2.1c0,1.2,0.9,2.1,2.1,2.1c1.1,0,2-0.9,2-2.1C41.2,16.2,40.4,15.3,39.2,15.3
	 M39.2,18.5c-0.6,0-1-0.4-1-1.2c0-0.7,0.5-1.2,1-1.2c0.5,0,1,0.4,1,1.2C40.2,18.1,39.7,18.5,39.2,18.5z"/>
<path class="st0" d="M47.5,35c-0.1,0-0.1,0-0.1,0c-0.2,0-0.4,0-0.6,0c0,0,0,0-0.1,0c-0.3,0-0.5,0-0.8-0.1c-0.3,0-0.5-0.1-0.8-0.1
	c-0.1,0-0.1,0-0.2,0c-0.2,0-0.4-0.1-0.6-0.1c-0.1,0-0.2,0-0.3-0.1c-0.2,0-0.4-0.1-0.6-0.1c-0.4-0.1-0.8-0.2-1.1-0.3
	c-0.1,0-0.2-0.1-0.3-0.1c-0.2-0.1-0.4-0.1-0.6-0.2c0,0-0.1,0-0.1,0c-0.1,0-0.2-0.1-0.3-0.1c-0.1,0-0.2-0.1-0.4-0.1
	c-0.1,0-0.2-0.1-0.3-0.1c-0.2-0.1-0.4-0.2-0.5-0.3c-0.2-0.1-0.4-0.2-0.5-0.3c-0.2-0.1-0.4-0.2-0.5-0.3c-0.2-0.1-0.3-0.2-0.5-0.3
	s-0.3-0.2-0.5-0.3c-0.2-0.1-0.3-0.2-0.5-0.4c-0.2-0.1-0.3-0.2-0.5-0.4c-0.2-0.1-0.3-0.3-0.5-0.4c-0.2-0.1-0.3-0.3-0.5-0.4
	c-0.1-0.1-0.2-0.2-0.3-0.2c-0.2-0.2-0.4-0.4-0.6-0.5c0,0-0.1-0.1-0.1-0.1c0,0-0.1-0.1-0.1-0.1c-0.2-0.2-0.3-0.3-0.5-0.5
	c-0.1-0.1-0.1-0.1-0.2-0.2c-0.1-0.1-0.2-0.3-0.4-0.5c-0.1-0.2-0.2-0.3-0.4-0.5c-0.1-0.2-0.2-0.3-0.3-0.5c0,0,0,0,0,0
	c-0.1-0.1-0.2-0.3-0.3-0.4c-0.1-0.1-0.1-0.2-0.2-0.3c-0.1-0.1-0.1-0.2-0.2-0.3c-0.1-0.1-0.1-0.2-0.2-0.3c0-0.1-0.1-0.1-0.1-0.2
	c-0.1-0.2-0.3-0.5-0.4-0.7c-0.1-0.1-0.1-0.3-0.2-0.4c-0.1-0.2-0.2-0.4-0.2-0.6c-0.1-0.2-0.2-0.4-0.2-0.6C31,23.4,31,23.2,30.9,23
	c-0.1-0.2-0.1-0.3-0.2-0.5c0,0,0,0,0,0c0,0,0,0,0,0c0,0,0-0.1,0-0.1c0,0,0,0,0,0c0,0,0,0,0,0c0,0,0,0,0,0c0,0,0,0,0,0c0,0,0,0,0,0
	c0-0.1-0.1-0.3-0.1-0.4c0-0.1,0-0.2-0.1-0.3c0,0,0,0,0,0c0,0,0,0,0,0c0-0.2-0.1-0.4-0.1-0.6c0-0.1,0-0.1,0-0.2
	c0-0.2-0.1-0.4-0.1-0.5c0-0.1,0-0.2-0.1-0.4c0-0.1,0-0.3-0.1-0.4c0-0.3-0.1-0.6-0.1-1c0-0.4,0-0.7,0-1.1c0-0.2,0-0.3,0-0.5
	c0-0.2,0-0.4,0-0.6c0-0.2,0-0.4,0-0.6c0-0.2,0-0.4,0.1-0.6c0-0.1,0-0.2,0-0.3c0-0.2,0-0.3,0.1-0.5c0.1-0.4,0.2-0.9,0.3-1.3
	c0-0.1,0.1-0.2,0.1-0.4c0-0.1,0.1-0.3,0.1-0.4c0.1-0.2,0.1-0.4,0.2-0.6c0.1-0.2,0.1-0.4,0.2-0.6c0.1-0.2,0.1-0.4,0.2-0.6
	c0-0.1,0.1-0.2,0.1-0.3c0.1-0.2,0.2-0.4,0.3-0.6c0,0,0,0,0,0c0,0,0,0,0,0c0,0,0,0,0,0c0,0,0,0,0,0c0,0,0,0,0,0c0,0,0,0,0,0
	c0,0,0,0,0,0c0,0,0,0,0,0c0,0,0,0,0,0c0,0,0,0,0,0c0,0,0,0,0,0c0,0,0,0,0,0c0,0,0,0,0,0c0,0,0-0.1,0.1-0.1c0,0,0,0,0,0c0,0,0,0,0,0
	c0.1-0.2,0.2-0.3,0.2-0.5c0.1-0.1,0.2-0.3,0.3-0.4c0.1-0.1,0.1-0.2,0.2-0.3c0.1-0.1,0.1-0.2,0.2-0.3C32.8,8,32.9,7.8,33,7.7
	c0.1-0.1,0.1-0.1,0.2-0.2c0,0,0,0,0,0c0,0,0,0,0,0c0.1-0.1,0.1-0.1,0.2-0.2c0,0,0,0,0,0c0,0,0,0,0,0s0,0,0,0c0,0,0,0,0,0
	c0,0,0,0,0,0c0.1-0.2,0.2-0.3,0.4-0.5c0.1-0.2,0.3-0.3,0.4-0.5c0.1-0.2,0.3-0.3,0.4-0.5c0.1-0.2,0.3-0.3,0.4-0.4
	c0.1-0.1,0.3-0.3,0.5-0.5c0,0,0.1-0.1,0.1-0.1c0.2-0.2,0.5-0.4,0.7-0.6c0.1-0.1,0.3-0.2,0.4-0.3c0.2-0.2,0.4-0.3,0.6-0.5
	c0.2-0.1,0.4-0.3,0.6-0.4C38,2.8,38,2.8,38.1,2.7c0,0,0,0,0,0s0,0,0,0c0,0,0,0,0,0c0,0,0,0,0,0c0.1-0.1,0.2-0.1,0.3-0.2
	c0.5-0.3,1-0.6,1.4-0.8c0.1,0,0.2-0.1,0.3-0.1c0.1,0,0.1-0.1,0.2-0.1c0.2-0.1,0.4-0.2,0.5-0.2c0,0,0,0,0,0c0,0,0,0,0,0c0,0,0,0,0,0
	c0,0,0,0,0,0c0,0,0.1,0,0.1,0c0,0,0,0,0,0c0,0,0,0,0,0c0.2-0.1,0.4-0.1,0.5-0.2C41.7,1,41.8,0.9,42,0.9c0.1,0,0.2-0.1,0.3-0.1
	c0.2-0.1,0.3-0.1,0.5-0.1c0.2-0.1,0.4-0.1,0.6-0.1c0.2,0,0.4-0.1,0.5-0.1c0.2,0,0.4-0.1,0.5-0.1c0.1,0,0.1,0,0.2,0
	c0.2,0,0.5-0.1,0.7-0.1C45.6,0.1,46,0.1,46.3,0c0.1,0,0.1,0,0.2,0c0.1,0,0.1,0,0.2,0c0,0,0.1,0,0.1,0c0.2,0,0.3,0,0.5,0
	c0,0,0.1,0,0.1,0c0.3,0,0.9,0,1.5,0.1c0.2,0,0.5,0,0.7,0.1c0,0,0,0,0,0c0,0,0,0,0,0c0,0,0.1,0,0.1,0c0,0,0,0,0,0c0,0,0,0,0,0
	c0.3,0,0.5,0.1,0.8,0.1c0.4,0.1,0.7,0.1,1.1,0.2c0.2,0,0.3,0.1,0.5,0.1c0.2,0.1,0.4,0.1,0.6,0.2c0.1,0,0.3,0.1,0.4,0.1
	c0.2,0.1,0.4,0.1,0.6,0.2c0,0,0.1,0,0.1,0c0,0,0,0,0,0c0,0,0,0,0,0c0.1,0,0.1,0,0.1,0.1c0.2,0.1,0.4,0.2,0.6,0.2
	c0.2,0.1,0.4,0.2,0.6,0.3c0.2,0.1,0.4,0.2,0.5,0.3c0.2,0.1,0.4,0.2,0.5,0.3c0.2,0.1,0.3,0.2,0.5,0.3c0.1,0,0.1,0.1,0.2,0.1
	c0.2,0.1,0.5,0.3,0.7,0.4c0,0,0.1,0.1,0.1,0.1c0,0,0.1,0.1,0.1,0.1c0.2,0.1,0.4,0.3,0.6,0.4c0.1,0,0.1,0.1,0.2,0.1
	c0.1,0.1,0.3,0.2,0.4,0.4c0.1,0.1,0.3,0.2,0.4,0.4c0.1,0.1,0.3,0.2,0.4,0.4c0.1,0.1,0.3,0.3,0.5,0.5c0.2,0.2,0.3,0.4,0.5,0.6
	c0.2,0.2,0.3,0.4,0.5,0.6c0.2,0.2,0.3,0.4,0.4,0.6c0.1,0.2,0.3,0.4,0.4,0.6c0,0,0,0.1,0.1,0.1c0.1,0.1,0.1,0.2,0.2,0.3
	C62.6,8.6,62.8,9,63,9.3c0,0.1,0.1,0.2,0.1,0.2c0.1,0.2,0.2,0.3,0.2,0.5c0,0.1,0.1,0.2,0.1,0.3c0.1,0.1,0.1,0.3,0.2,0.4
	c0.1,0.1,0.1,0.3,0.2,0.4c0,0.1,0.1,0.1,0.1,0.2c0.2,0.5,0.4,1.1,0.5,1.6c0.1,0.3,0.2,0.7,0.2,1c0,0.1,0,0.2,0,0.2
	c0,0.1,0,0.2,0.1,0.3c0,0,0,0,0,0c0,0.2,0.1,0.4,0.1,0.6c0,0.1,0,0.1,0,0.2c0,0,0,0,0,0c0,0.2,0.1,0.5,0.1,0.7c0,0,0,0,0,0.1
	c0,0.1,0,0.2,0,0.3c0,0.2,0,0.3,0,0.5c0,0.2,0,0.3,0,0.5c0,0,0,0,0,0c0,0,0,0.1,0,0.1c0,0,0,0,0,0c0,0,0,0.1,0,0.1
	c0,0.6,0,1.1-0.1,1.6c0,0,0,0.1,0,0.1c-0.1,0-0.3,0-0.6,0s-0.5,0-0.7,0s-0.3,0-0.5,0c-0.2,0-0.4,0-0.7,0c-0.2,0-0.4,0-0.6,0
	c-0.2,0-0.4,0-0.5,0c0-0.3,0.1-0.5,0.1-0.8c0-0.1,0-0.2,0-0.3c0-0.2,0-0.3,0-0.5c0,0,0-0.1,0-0.1c0-0.6,0-0.9,0-1.4
	c0-0.2,0-0.4-0.1-0.6c0,0,0-0.1,0-0.1c0-0.2-0.1-0.4-0.1-0.6c0-0.2-0.1-0.4-0.1-0.6c0-0.2-0.1-0.4-0.1-0.6c0,0,0-0.1,0-0.1
	c0-0.1,0-0.2-0.1-0.3c-0.1-0.5-0.3-1-0.5-1.4c0-0.1-0.1-0.2-0.1-0.2c0,0,0,0,0,0c0,0,0,0,0,0c0-0.1-0.1-0.2-0.1-0.2c0,0,0,0,0,0
	c0,0,0,0,0,0c0,0,0,0,0,0c-0.1-0.3-0.3-0.6-0.4-0.9c0,0,0-0.1-0.1-0.1c0,0,0-0.1,0-0.1c-0.1-0.2-0.2-0.4-0.3-0.6
	c-0.1-0.2-0.2-0.4-0.4-0.6c-0.1-0.2-0.3-0.4-0.4-0.6c0,0,0,0,0-0.1c-0.2-0.2-0.4-0.5-0.6-0.7c0,0-0.1-0.1-0.1-0.1
	c0-0.1-0.1-0.1-0.1-0.2c-0.1-0.1-0.1-0.1-0.2-0.2c0,0-0.1-0.1-0.1-0.1c-0.1-0.1-0.1-0.1-0.2-0.2C57.1,7.1,57,7,56.8,6.9
	c-0.1-0.1-0.2-0.2-0.4-0.3c0,0-0.1-0.1-0.1-0.1c-0.1-0.1-0.2-0.2-0.3-0.3c-0.1,0-0.1-0.1-0.2-0.1c-0.1-0.1-0.1-0.1-0.2-0.2
	c-0.1-0.1-0.1-0.1-0.2-0.2c-0.1-0.1-0.3-0.2-0.4-0.3c-0.4-0.2-0.7-0.5-1.1-0.7c-0.4-0.2-0.8-0.4-1.3-0.6C52.4,4,52.2,4,52,3.9
	c-0.1-0.1-0.3-0.1-0.4-0.2c-0.2-0.1-0.4-0.1-0.6-0.2c-0.2-0.1-0.4-0.1-0.6-0.2c0,0-0.1,0-0.1,0c0,0,0,0,0,0c0,0,0,0,0,0
	c-0.2,0-0.3-0.1-0.5-0.1c-0.1,0-0.2,0-0.3,0c-0.1,0-0.3,0-0.4-0.1c-0.2,0-0.4-0.1-0.7-0.1c-0.1,0-0.2,0-0.3,0c-0.4,0-0.7,0-1.1,0
	c-0.1,0-0.3,0-0.4,0c-0.4,0-0.8,0-1.2,0.1c-0.1,0-0.3,0-0.4,0.1c-0.2,0-0.5,0.1-0.7,0.1c-0.2,0-0.4,0.1-0.7,0.1
	c-0.2,0.1-0.4,0.1-0.6,0.2c-0.2,0.1-0.4,0.1-0.6,0.2c-0.1,0-0.1,0-0.1,0.1c-0.1,0-0.1,0-0.2,0.1c-0.3,0.1-0.6,0.2-0.9,0.4
	c-0.1,0-0.2,0.1-0.3,0.1c0,0-0.1,0-0.1,0C40.4,4.6,40,4.8,39.6,5c-0.2,0.1-0.4,0.3-0.6,0.4c-0.1,0.1-0.2,0.1-0.3,0.2
	c-0.1,0.1-0.3,0.2-0.4,0.3C38.1,6,38,6.1,37.9,6.2c-0.1,0.1-0.3,0.2-0.4,0.3c-0.1,0.1-0.3,0.2-0.4,0.3c0,0,0,0-0.1,0.1
	C37,7,37,7,36.9,7.1c0,0,0,0-0.1,0.1c0,0-0.1,0.1-0.1,0.1c-0.1,0.1-0.3,0.3-0.5,0.5C36.2,7.9,36,8,35.9,8.2c0,0-0.1,0.1-0.1,0.1
	c0,0,0,0,0,0c0,0,0,0,0,0c-0.2,0.3-0.4,0.5-0.6,0.8c-0.1,0.1-0.2,0.2-0.2,0.3c-0.1,0.1-0.1,0.2-0.2,0.3c-0.1,0.2-0.2,0.4-0.3,0.5
	c0,0.1-0.1,0.1-0.1,0.2c-0.2,0.3-0.3,0.6-0.5,0.9c-0.1,0.2-0.2,0.4-0.2,0.5c0,0,0,0,0,0c0,0,0,0,0,0c0,0,0,0,0,0c0,0,0,0,0,0
	c-0.1,0.2-0.1,0.4-0.2,0.6c-0.1,0.2-0.2,0.5-0.2,0.7c0,0,0,0,0,0c0,0,0,0,0,0c0,0.1-0.1,0.3-0.1,0.4c-0.1,0.2-0.1,0.4-0.1,0.6
	c0,0.2-0.1,0.4-0.1,0.6c0,0.1,0,0.3-0.1,0.4c0,0.3-0.1,0.6-0.1,0.9c0,0.3,0,0.6-0.1,0.9c0,0,0,0.1,0,0.1c0,0,0,0.1,0,0.1
	c0,0,0,0,0,0.1c0,0,0,0.1,0,0.1c0,0.1,0,0.2,0,0.3c0,0.2,0,0.4,0,0.6c0,0,0,0,0,0.1c0,0.1,0,0.1,0,0.2c0,0.3,0.1,0.6,0.1,0.9
	c0,0,0,0,0,0.1c0,0.2,0.1,0.4,0.1,0.6c0,0.2,0.1,0.4,0.1,0.5c0,0.2,0.1,0.4,0.1,0.6c0.1,0.2,0.1,0.4,0.2,0.6c0,0,0,0,0,0
	c0,0,0,0,0,0c0,0.1,0,0.1,0.1,0.2c0,0,0,0,0,0.1c0,0,0,0,0,0c0,0,0,0,0,0c0,0.1,0.1,0.3,0.1,0.4c0.1,0.2,0.1,0.4,0.2,0.6
	c0,0.1,0.1,0.2,0.1,0.3c0.1,0.3,0.2,0.5,0.4,0.8c0.2,0.3,0.3,0.7,0.5,1c0.1,0.1,0.1,0.2,0.2,0.3c0.1,0.1,0.1,0.2,0.2,0.3
	c0.1,0.1,0.1,0.2,0.2,0.3c0,0,0,0,0,0c0.2,0.3,0.4,0.6,0.7,0.9c0.2,0.3,0.5,0.6,0.7,0.8c0,0,0,0,0,0c0,0,0,0,0,0
	c0.1,0.1,0.2,0.2,0.3,0.3c0.1,0.1,0.3,0.3,0.4,0.4c0.1,0.1,0.3,0.2,0.4,0.4c0.2,0.2,0.4,0.3,0.6,0.5c0.3,0.2,0.6,0.5,0.9,0.7
	c0.3,0.2,0.7,0.4,1,0.6c0.2,0.1,0.4,0.2,0.6,0.3c0,0,0,0,0.1,0c0.1,0,0.1,0.1,0.2,0.1c0.1,0,0.1,0.1,0.2,0.1
	c0.2,0.1,0.3,0.2,0.5,0.2c0.1,0,0.1,0.1,0.2,0.1c0.2,0.1,0.4,0.1,0.5,0.2c0.2,0.1,0.4,0.1,0.5,0.2c0.2,0.1,0.4,0.1,0.6,0.2
	c0.1,0,0.2,0.1,0.3,0.1c0.2,0,0.3,0.1,0.5,0.1c0.1,0,0.2,0,0.3,0.1c0.1,0,0.2,0.1,0.4,0.1c0.1,0,0.1,0,0.2,0c0,0,0,0,0,0
	c0.2,0,0.4,0.1,0.6,0.1c0.1,0,0.1,0,0.2,0c0.2,0,0.5,0.1,0.7,0.1c0.1,0,0.1,0,0.2,0c0,0,0,0,0,0c0.3,0,0.6,0,0.9,0c0,0,0.1,0,0.1,0
	c0,0,0.1,0,0.1,0c0.2,0,0.4,0,0.7,0c0.2,0,0.4,0,0.7-0.1c0.2,0,0.4,0,0.6-0.1c0.2,0,0.4-0.1,0.6-0.1c0.2,0,0.3-0.1,0.5-0.1
	c0.3-0.1,0.6-0.1,0.9-0.2c0.4-0.1,0.9-0.3,1.3-0.4c0.3-0.1,0.5-0.2,0.8-0.3c0,0,0.1,0,0.1-0.1c0.2-0.1,0.4-0.2,0.5-0.3
	c0.1,0,0.2-0.1,0.2-0.1c0.2-0.1,0.5-0.2,0.7-0.4c0.4-0.2,0.7-0.5,1.1-0.7c0.1,0,0.1-0.1,0.2-0.1c0.1-0.1,0.2-0.1,0.3-0.2
	c0.2-0.1,0.3-0.2,0.4-0.3c0.1-0.1,0.3-0.2,0.4-0.4c0.1-0.1,0.1-0.1,0.2-0.2c0.1-0.1,0.3-0.3,0.4-0.4c0,0,0.1-0.1,0.1-0.1
	c0,0,0,0,0,0c0.1-0.2,0.3-0.3,0.4-0.5c0.1-0.2,0.3-0.3,0.4-0.5c0.1-0.1,0.1-0.1,0.2-0.2c0.2-0.3,0.5-0.6,0.7-0.9
	c0.3-0.4,0.5-0.7,0.7-1.1c0.1-0.1,0.1-0.2,0.2-0.3c0.1-0.2,0.2-0.4,0.3-0.5c0.1-0.2,0.2-0.3,0.2-0.5c0,0,0-0.1,0.1-0.1
	c0.1-0.2,0.2-0.4,0.2-0.5c0.1-0.2,0.1-0.4,0.2-0.6c0-0.1,0.1-0.3,0.1-0.4c0.1-0.4,0.2-0.8,0.3-1.2c0.1-0.5,0.2-0.9,0.3-1.4
	c0,0,0-0.1,0-0.1c0,0,0.2,0,0.4,0c0.2,0,0.5,0,0.7,0c0.2,0,0.4,0,0.5,0c0,0.2,0,0.4-0.1,0.6c0,0.2-0.1,0.4-0.1,0.6
	c0,0.1,0,0.2,0,0.2c-0.1,0.4-0.2,0.9-0.3,1.3c0,0.1,0,0.1-0.1,0.2c0,0.1,0,0.1-0.1,0.2c0,0,0,0,0,0c0,0,0,0,0,0
	c-0.1,0.3-0.2,0.5-0.3,0.8c0,0.1,0,0.1-0.1,0.2c-0.1,0.2-0.1,0.4-0.2,0.6c-0.1,0.2-0.2,0.4-0.2,0.6c-0.1,0.2-0.2,0.4-0.3,0.6
	c-0.1,0.1-0.1,0.3-0.2,0.4c-0.1,0.3-0.3,0.5-0.4,0.8c-0.1,0.1-0.1,0.2-0.2,0.3c0,0,0,0.1-0.1,0.1c0,0,0,0,0,0.1
	c-0.1,0.2-0.3,0.4-0.4,0.6c-0.1,0.1-0.2,0.2-0.2,0.3c-0.1,0.2-0.3,0.3-0.4,0.5c-0.1,0.2-0.3,0.3-0.4,0.5c-0.1,0.1-0.1,0.2-0.2,0.2
	c-0.3,0.3-0.6,0.7-0.9,1c0,0,0,0,0,0c0,0-0.1,0.1-0.1,0.1c-0.1,0.1-0.3,0.2-0.4,0.4c-0.1,0.1-0.3,0.2-0.4,0.4
	c-0.1,0.1-0.3,0.2-0.4,0.3c-0.1,0.1-0.3,0.2-0.5,0.3c-0.2,0.1-0.3,0.2-0.5,0.3c-0.2,0.1-0.3,0.2-0.5,0.3c-0.2,0.1-0.3,0.2-0.5,0.3
	c-0.1,0.1-0.2,0.1-0.3,0.2c-0.2,0.1-0.4,0.2-0.6,0.3c-0.1,0-0.1,0.1-0.2,0.1c-0.2,0.1-0.4,0.2-0.5,0.3c-0.2,0.1-0.4,0.2-0.6,0.2
	c-0.2,0.1-0.4,0.2-0.6,0.2c-0.2,0.1-0.4,0.1-0.6,0.2c-0.1,0-0.2,0.1-0.2,0.1c0,0,0,0-0.1,0c-0.2,0.1-0.5,0.1-0.7,0.2
	c-0.1,0-0.1,0-0.2,0c-0.2,0.1-0.4,0.1-0.6,0.1c-0.2,0-0.4,0.1-0.6,0.1c-0.2,0-0.4,0.1-0.6,0.1c-0.2,0-0.3,0-0.5,0.1
	c-0.2,0-0.4,0-0.6,0.1c-0.1,0-0.1,0-0.2,0c-0.1,0-0.3,0-0.4,0c-0.2,0-0.3,0-0.5,0C47.7,35,47.6,35,47.5,35"/>
<path class="st0" d="M64.9,19.4c0.1-0.6,0.1-1.2,0.1-1.9c0-0.7,0-1-0.1-1.5c0-0.5-0.1-1-0.2-1.5c-0.1-0.5-0.2-1-0.3-1.6
	c-0.1-0.5-0.3-1.1-0.5-1.6c-0.2-0.5-0.4-1.1-0.7-1.6c-0.3-0.5-0.6-1.1-0.9-1.6c-0.3-0.5-0.7-1-1.1-1.5c-0.4-0.5-0.8-1-1.3-1.5
	c-0.5-0.5-0.7-0.6-1-0.9c-0.4-0.3-0.7-0.6-1.1-0.9c-0.4-0.3-0.8-0.6-1.2-0.8c-0.4-0.3-0.9-0.5-1.3-0.7c-0.5-0.2-0.9-0.4-1.4-0.6
	c-0.5-0.2-1-0.4-1.5-0.5c-0.5-0.1-1.1-0.3-1.6-0.4s-1.1-0.2-1.7-0.2C48.3,0,47.6,0,47.3,0c-0.3,0-0.6,0-1,0c-0.4,0-0.7,0.1-1.1,0.1
	c-0.4,0.1-0.8,0.1-1.2,0.2c-0.4,0.1-0.9,0.2-1.3,0.3c-0.5,0.1-0.9,0.3-1.4,0.5c-0.5,0.2-0.9,0.4-1.4,0.6c-0.5,0.2-1,0.5-1.4,0.8
	c-0.5,0.3-1,0.6-1.4,1c-0.5,0.4-0.9,0.8-1.4,1.2c-0.5,0.4-0.8,0.8-1.1,1.1c-0.3,0.4-0.6,0.7-0.9,1.1c-0.3,0.4-0.6,0.8-0.8,1.2
	C32.5,8.6,32.2,9,32,9.4c-0.2,0.4-0.4,0.8-0.6,1.3c-0.2,0.4-0.3,0.9-0.5,1.3c-0.1,0.4-0.3,0.9-0.4,1.3c-0.1,0.4-0.2,0.9-0.3,1.3
	c-0.1,0.4-0.1,0.9-0.2,1.4c0,0.5-0.1,0.9-0.1,1.4c0,0.5,0,0.9,0,1.4c0,0.5,0.1,0.9,0.1,1.4c0.1,0.4,0.1,0.8,0.2,1.3
	c0.1,0.4,0.2,0.8,0.3,1.2c0.1,0.4,0.2,0.8,0.4,1.2c0.1,0.4,0.3,0.8,0.5,1.1c0.2,0.4,0.3,0.7,0.5,1.1c0.2,0.3,0.4,0.7,0.6,1
	c0.2,0.3,0.4,0.7,0.7,1c0.2,0.3,0.5,0.6,0.7,0.9c0.3,0.3,0.5,0.6,0.8,0.9c0.3,0.3,0.6,0.6,0.9,0.9c0.3,0.3,0.6,0.5,1,0.8
	c0.3,0.3,0.7,0.5,1,0.7c0.3,0.2,0.7,0.5,1.1,0.7c0.4,0.2,0.7,0.4,1.1,0.6c0.4,0.2,0.8,0.3,1.1,0.5c0.4,0.2,0.8,0.3,1.2,0.4
	c0.4,0.1,0.8,0.2,1.2,0.3c0.4,0.1,0.8,0.2,1.2,0.2c0.4,0.1,0.8,0.1,1.3,0.2c0.4,0,0.9,0.1,1.3,0.1c0.4,0,0.9,0,1.4,0
	c0.5,0,0.9-0.1,1.4-0.1c0.5-0.1,0.9-0.1,1.4-0.3c0.4-0.1,0.9-0.2,1.3-0.4c0.4-0.1,0.9-0.3,1.3-0.5c0.4-0.2,0.8-0.4,1.2-0.6
	c0.4-0.2,0.8-0.4,1.2-0.6c0.4-0.2,0.8-0.5,1.1-0.7c0.4-0.3,0.7-0.5,1.1-0.8c0.3-0.3,0.7-0.6,1-0.9c0.3-0.3,0.7-0.7,1.1-1.1
	c0.3-0.4,0.7-0.8,1-1.2c0.3-0.4,0.6-0.9,0.9-1.3c0.3-0.4,0.5-0.9,0.7-1.4c0.2-0.5,0.4-0.9,0.6-1.4c0.2-0.5,0.3-0.9,0.5-1.4
	c0.1-0.5,0.3-0.9,0.3-1.4c0.1-0.5,0.2-0.9,0.2-1.4c0,0-0.3,0-0.5,0c-0.2,0-0.4,0-0.6,0c-0.2,0-0.4,0-0.5,0c-0.1,0.5-0.2,1-0.3,1.5
	c-0.1,0.5-0.2,1-0.4,1.4c-0.2,0.5-0.3,0.9-0.5,1.4c-0.2,0.4-0.4,0.9-0.7,1.3c-0.2,0.4-0.5,0.8-0.8,1.2c-0.3,0.4-0.6,0.8-0.9,1.2
	c-0.3,0.4-0.7,0.8-1,1.1c-0.3,0.3-0.6,0.6-0.9,0.8c-0.3,0.3-0.7,0.5-1,0.8c-0.4,0.2-0.7,0.5-1.1,0.7c-0.4,0.2-0.8,0.4-1.2,0.6
	c-0.4,0.2-0.8,0.4-1.2,0.5c-0.4,0.2-0.8,0.3-1.3,0.4c-0.4,0.1-0.9,0.2-1.3,0.3c-0.4,0.1-0.9,0.1-1.4,0.2C49,32.9,48.5,33,48,33
	c-0.5,0-0.8,0-1.2,0c-0.4,0-0.8-0.1-1.2-0.1c-0.4-0.1-0.8-0.1-1.2-0.2c-0.4-0.1-0.8-0.2-1.1-0.3c-0.4-0.1-0.7-0.2-1.1-0.4
	c-0.4-0.1-0.7-0.3-1.1-0.5c-0.3-0.2-0.7-0.4-1-0.5c-0.3-0.2-0.7-0.4-1-0.6c-0.3-0.2-0.6-0.5-0.9-0.7c-0.3-0.2-0.6-0.5-0.9-0.8
	c-0.3-0.3-0.5-0.5-0.8-0.8c-0.2-0.3-0.5-0.5-0.7-0.8c-0.2-0.3-0.4-0.6-0.7-0.9c-0.2-0.3-0.4-0.6-0.6-0.9c-0.2-0.3-0.4-0.7-0.5-1
	c-0.2-0.3-0.3-0.7-0.5-1c-0.1-0.4-0.3-0.7-0.4-1.1c-0.1-0.4-0.2-0.7-0.3-1.1c-0.1-0.4-0.2-0.7-0.2-1.1c-0.1-0.4-0.1-0.8-0.1-1.2
	c0-0.4-0.1-0.9-0.1-1.3c0-0.4,0-0.8,0.1-1.2c0-0.4,0.1-0.8,0.2-1.2c0.1-0.4,0.2-0.8,0.3-1.2c0.1-0.4,0.2-0.8,0.4-1.2
	c0.1-0.4,0.3-0.8,0.5-1.2c0.2-0.4,0.4-0.8,0.6-1.1c0.2-0.4,0.5-0.7,0.7-1.1C35.4,8.7,35.7,8.4,36,8c0.3-0.3,0.7-0.7,0.9-0.9
	c0.2-0.2,0.5-0.5,0.8-0.7c0.3-0.2,0.6-0.5,0.9-0.7c0.3-0.2,0.7-0.5,1-0.7c0.4-0.2,0.7-0.4,1.1-0.6C41.2,4.2,41.6,4,42,3.9
	c0.4-0.2,0.9-0.3,1.4-0.4c0.5-0.1,1-0.2,1.5-0.3C45.5,3.1,46,3,46.6,3c0.6,0,1,0,1.6,0c0.5,0,1.1,0.1,1.6,0.2c0.5,0.1,1,0.2,1.5,0.4
	c0.5,0.1,0.9,0.3,1.4,0.5c0.4,0.2,0.9,0.4,1.3,0.6c0.4,0.2,0.8,0.4,1.1,0.7c0.4,0.2,0.7,0.5,1,0.8c0.3,0.3,0.6,0.5,0.9,0.8
	c0.3,0.3,0.7,0.6,1,1.1c0.4,0.4,0.7,0.9,1,1.3c0.3,0.4,0.6,0.9,0.8,1.4c0.2,0.5,0.5,0.9,0.7,1.4c0.2,0.5,0.4,0.9,0.5,1.4
	c0.1,0.5,0.2,1,0.3,1.4c0.1,0.5,0.1,0.9,0.2,1.4c0,0.5,0.1,0.9,0,1.4c0,0.6-0.1,1.1-0.1,1.7c0.1,0,0.3,0,0.5,0c0.2,0,0.4,0,0.6,0
	c0.2,0,0.4,0,0.7,0s0.3,0,0.5,0s0.5,0,0.7,0S64.8,19.4,64.9,19.4"/>
</svg>
