<?xml version="1.0" encoding="utf-8"?>
<!-- Generator: Adobe Illustrator 26.0.1, SVG Export Plug-In . SVG Version: 6.00 Build 0)  -->
<svg version="1.1" id="Layer_1" xmlns="http://www.w3.org/2000/svg" xmlns:xlink="http://www.w3.org/1999/xlink" x="0px" y="0px"
	 viewBox="0 0 95 35" style="enable-background:new 0 0 95 35;" xml:space="preserve">
<style type="text/css">
	.st0{fill:#343741;}
	.st1{fill-rule:evenodd;clip-rule:evenodd;fill:#343741;}
</style>
<g>
	<path id="XMLID_86_" class="st0" d="M69.5,35c-2.5,0-3.9-1.3-4-3h2.3c0,0.6,0.3,1.4,1.8,1.4c1,0,1.5-0.6,1.5-1
		c-0.1-0.7-0.9-0.8-1.9-0.9c-0.9-0.1-1.7-0.3-2.3-0.6c-0.7-0.4-1.2-1.2-1.2-2.1c0-1.6,1.4-2.8,3.7-2.8c2.2,0,3.6,1.2,3.8,2.9h-2.2
		c0-0.5-0.1-1.2-1.4-1.2c-0.9,0-1.5,0.2-1.5,0.8c0,0.9,1.8,0.8,3.3,1.2c1.4,0.4,2.2,1.2,2.2,2.4C73.5,34.2,71.7,35,69.5,35"/>
	<polyline id="XMLID_85_" class="st0" points="27.1,20.4 34.8,16 38.9,23 28.6,23 27.1,20.4 	"/>
	<rect id="XMLID_84_" x="42.1" y="26" class="st0" width="2.2" height="8.8"/>
	<path class="st1" d="M26.1,35c-2.5,0-4.6-2.1-4.6-4.6c0-2.5,2.1-4.6,4.6-4.6c1,0,1.9,0.3,2.6,0.8V26h2.2v8.8h-2.2v-0.6
		C28,34.7,27.1,35,26.1,35 M23.6,30.4c0,1.4,1.2,2.5,2.5,2.5c1.4,0,2.6-1.1,2.6-2.5c0-1.4-1.2-2.5-2.6-2.5
		C24.8,27.9,23.6,29,23.6,30.4"/>
	<polyline id="XMLID_81_" class="st0" points="55.6,23 44.9,4.4 52.6,0 65.9,23 55.6,23 	"/>
	<path class="st1" d="M36.3,35c-2.5,0-4.6-2.1-4.6-4.6c0-2.5,2.1-4.6,4.6-4.6c1,0,1.8,0.3,2.6,0.8V23h2.2v11.8h-2.2v-0.6
		C38.1,34.7,37.2,35,36.3,35 M33.8,30.4c0,1.4,1.2,2.5,2.6,2.5c1.4,0,2.5-1.1,2.5-2.5c0-1.4-1.2-2.5-2.5-2.5
		C34.9,27.9,33.8,29,33.8,30.4"/>
	<polyline id="XMLID_65_" class="st0" points="36.1,12.5 43.8,8.1 52.4,23 44.3,23 44.3,25.1 42.1,25.1 42.1,23 36.1,12.5 	"/>
	<path class="st0" d="M72,23.1c-0.5,0-0.9,0.4-0.9,0.9c0,0.5,0.4,0.9,0.9,0.9c0.5,0,0.9-0.4,0.9-0.9C72.9,23.5,72.5,23.1,72,23.1
		 M72,25.1c-0.6,0-1.1-0.5-1.1-1.1c0-0.6,0.5-1.1,1.1-1.1c0.6,0,1.1,0.5,1.1,1.1C73.1,24.6,72.6,25.1,72,25.1"/>
	<path class="st0" d="M72.1,23.6h-0.2V24h0.2l0.2-0.2L72.1,23.6 M72.3,24.6L72,24.2h-0.2v0.5h-0.2v-1.2h0.4c0.2,0,0.4,0.2,0.4,0.4
		c0,0.2-0.1,0.3-0.3,0.3l0.3,0.5H72.3z"/>
	<path class="st1" d="M59.9,35c-2.5,0-4.6-2.1-4.6-4.6c0-2.5,2.1-4.6,4.6-4.6c1,0,1.9,0.3,2.6,0.8V26h2.2v8.8h-2.2v-0.6
		C61.7,34.7,60.9,35,59.9,35 M57.4,30.4c0,1.4,1.2,2.5,2.5,2.5c1.4,0,2.5-1.1,2.5-2.5c0-1.4-1.1-2.5-2.5-2.5
		C58.6,27.9,57.4,29,57.4,30.4"/>
	<path class="st1" d="M52.4,23h2.2v11.8h-2.2v-0.6c-0.7,0.5-1.6,0.8-2.6,0.8c-2.5,0-4.6-2.1-4.6-4.6c0-2.5,2.1-4.6,4.6-4.6
		c1,0,1.9,0.3,2.6,0.8V23 M47.3,30.4c0,1.4,1.2,2.5,2.5,2.5c1.4,0,2.6-1.1,2.6-2.5c0-1.4-1.2-2.5-2.6-2.5
		C48.5,27.9,47.3,29,47.3,30.4"/>
</g>
</svg>
