<?xml version="1.0" encoding="utf-8"?>
<!-- Generator: Adobe Illustrator 26.0.1, SVG Export Plug-In . SVG Version: 6.00 Build 0)  -->
<svg version="1.1" id="Layer_1" xmlns="http://www.w3.org/2000/svg" xmlns:xlink="http://www.w3.org/1999/xlink" x="0px" y="0px"
	 viewBox="0 0 95 35" style="enable-background:new 0 0 95 35;" xml:space="preserve">
<style type="text/css">
	.st0{fill:#CCCCCC;}
</style>
<g>
	<path class="st0" d="M8.5,18.4H5.3L7,12.9L8.5,18.4z M3.6,24.7L4.7,21H9l1,3.7h4l-3.9-14C9.8,9.8,9.3,9.4,8.5,9.4H2.9v1.3h0.5
		c0.6,0,0.9,0.2,0.9,0.7c0,0.3-0.1,0.5-0.3,1.2L0,24.7H3.6z"/>
	<path class="st0" d="M18.8,24.7V10.6c0-0.7-0.4-1.2-1.1-1.2h-3.4v1.3h0.2c0.6,0,0.8,0.3,0.8,0.8v13.1H18.8z"/>
	<path class="st0" d="M24.9,24.7V10.6c0-0.7-0.4-1.2-1.1-1.2h-3.4v1.3h0.2c0.6,0,0.8,0.3,0.8,0.8v13.1H24.9z"/>
	<path class="st0" d="M31.1,10.8c0-1-0.7-1.6-2-1.6c-1.2,0-2,0.6-2,1.6s0.7,1.6,2,1.6C30.4,12.4,31.1,11.8,31.1,10.8z M31.1,24.7
		V14.3c0-0.7-0.4-1.2-1.1-1.2h-3.4v1.4h0.2c0.6,0,0.8,0.3,0.8,0.9v9.3H31.1z"/>
	<path class="st0" d="M38.9,19.2v2.2c-0.6,0.6-1.3,1-1.9,1c-0.6,0-0.9-0.3-0.9-1.2c0-0.8,0.2-1.2,0.8-1.5
		C37.4,19.5,38,19.4,38.9,19.2z M34.2,16.5c1.2-0.6,2.4-0.9,3.4-0.9c0.9,0,1.3,0.3,1.3,1.3v0.2c-1.4,0.2-1.9,0.3-2.7,0.5
		c-0.5,0.1-0.9,0.2-1.3,0.4c-1.4,0.6-2.1,1.7-2.1,3.4c0,2.2,0.9,3.2,2.8,3.2c0.7,0,1.3-0.1,1.9-0.4c0.5-0.2,0.8-0.4,1.5-1v0.2
		c0,0.7,0.4,1.1,1.1,1.1h3.2v-1.3h-0.2c-0.6,0-0.8-0.3-0.8-0.9V17c0-2.9-1-3.9-3.8-3.9c-0.9,0-1.8,0.1-2.7,0.3
		c-0.9,0.2-1.3,0.4-2.4,0.9L34.2,16.5z"/>
	<path class="st0" d="M48.7,24.7v-7.8c0.6-0.7,1.3-1,2-1c0.8,0,1,0.3,1,1.4v7.3h3.5v-7.9c0-1.8-0.1-2.4-0.7-3
		c-0.5-0.5-1.2-0.8-2.2-0.8c-1.4,0-2.4,0.5-3.7,1.8v-0.5c0-0.8-0.4-1.1-1.1-1.1h-3.3v1.4h0.2c0.6,0,0.8,0.3,0.8,0.9v9.3H48.7z"/>
	<path class="st0" d="M65.8,22.3h-4.9l4.7-6.7v-2.3h-7.4c-0.8,0-1.2,0.4-1.2,1.2v2.1h1.4v-0.2c0-0.5,0.3-0.8,0.8-0.8h2.5L57,22.4
		v2.3h8.9V22.3z"/>
	<path class="st0" d="M84.6,24V11.2c0-1-0.3-1.4-1.3-1.4h-2.9v1.4h0.2h0.3c0.1,0,0.2,0.1,0.3,0.2c0.1,0.2,0.2,0.3,0.2,0.7V24H84.6z
		 M86.2,24h3.2v-9.6c0-1-0.4-1.4-1.3-1.4h-1.9V24z M80,24V13h-1.9c-0.9,0-1.3,0.4-1.3,1.4V24H80z M92.7,17.5c0,5.8-4.1,9.9-9.7,9.9
		c-5.6,0-9.7-4.2-9.7-9.9c0-5.7,4.1-9.9,9.7-9.9C88.6,7.6,92.7,11.8,92.7,17.5z M95,17.5c0-7-5.1-12.2-12-12.2s-12,5.2-12,12.2
		c0,7,5.2,12.3,12,12.3S95,24.5,95,17.5z"/>
</g>
</svg>
