<?xml version="1.0" encoding="utf-8"?>
<!-- Generator: Adobe Illustrator 26.0.1, SVG Export Plug-In . SVG Version: 6.00 Build 0)  -->
<svg version="1.1" id="Layer_1" xmlns="http://www.w3.org/2000/svg" xmlns:xlink="http://www.w3.org/1999/xlink" x="0px" y="0px"
	 viewBox="0 0 95 35" style="enable-background:new 0 0 95 35;" xml:space="preserve">
<style type="text/css">
	.st0{fill:#231F20;}
	.st1{fill:#FFFFFF;}
	.st2{fill:#FFFFFF;enable-background:new    ;}
</style>
<path class="st0" d="M0,8.5"/>
<path class="st1" d="M34.1,9h9.5c3.5,0,5.1,2.3,5.1,4.4c0,1.5-0.6,2.5-2.2,3.4c2,0.7,3.1,2.1,3.1,4.1c0,2.4-1.8,5-6,5h-9.5L34.1,9z
	 M39.2,22.2h3.4c1.2,0,1.8-0.9,1.8-1.6c0,0.4,0.2-1.4-1.6-1.4h-3.6L39.2,22.2z M39.2,15.7H42c1.3,0,1.8-0.6,1.8-1.4
	c0-0.2-0.1-1.3-1.4-1.3h-3.1L39.2,15.7z M54.9,9h5.5l6.2,17H61l-0.8-2.5h-5.3L54.2,26h-5.6L54.9,9z M57.4,14L56,19.7h3.1L57.4,14z
	 M75.4,14.1h5.2c0-2.9-2.2-5.6-7.3-5.6c-5.6,0-7.4,3.1-7.4,5.4c0,3.7,4.5,4.7,4.6,4.7c0.7,0.2,3.5,1,4.2,1.2
	c0.6,0.2,1.2,0.7,1.2,1.3c0,1-1.2,1.5-2.2,1.5c-0.6,0-2.8-0.2-2.8-2.5h-5.4c0,3,2.1,6.3,7.8,6.3c6.4,0,7.7-3.8,7.7-5.8
	c0-1.6-0.9-3.5-3.1-4.4c-1.3-0.5-3.4-1-4.5-1.3c-0.5-0.2-2.4-0.5-2.4-1.6c0-1.4,2.3-1.2,2-1.2C74.1,12.2,75.4,12.8,75.4,14.1
	L75.4,14.1z M87.2,13.5v3h7v4.3h-7V26h-5.2l0-17h13v4.5L87.2,13.5z"/>
<path class="st2" d="M0,9v17h17V9H0z M11.8,20.8H5.3v-6.5h6.5L11.8,20.8z"/>
<rect x="22.3" y="14.2" class="st2" width="6.5" height="6.5"/>
</svg>
