<?xml version="1.0" encoding="utf-8"?>
<!-- Generator: Adobe Illustrator 26.0.1, SVG Export Plug-In . SVG Version: 6.00 Build 0)  -->
<svg version="1.1" id="Layer_1" xmlns="http://www.w3.org/2000/svg" xmlns:xlink="http://www.w3.org/1999/xlink" x="0px" y="0px"
	 viewBox="0 0 95 35" style="enable-background:new 0 0 95 35;" xml:space="preserve">
<style type="text/css">
	.st0{fill:#343741;}
</style>
<g id="g10" transform="matrix(1.25,0,0,-1.25,-515.67694,1105.6278)">
	<g id="g3981" transform="matrix(5.7147952,0,0,5.7147952,-1946.739,-3647.8916)">
		<path id="path120" class="st0" d="M424.4,790.4L424.4,790.4v-0.7h0.4v0.7c0,0.3,0.1,0.4,0.3,0.4h0.1v0.4h-0.2
			C424.7,791.1,424.4,790.8,424.4,790.4L424.4,790.4z"/>
		<path id="path130" class="st0" d="M418.5,790.4L418.5,790.4v-0.7h0.4v0.7c0,0.3,0.1,0.4,0.3,0.4h0.1v0.4h-0.2
			C418.8,791.1,418.5,790.8,418.5,790.4L418.5,790.4z"/>
		<path id="path140" class="st0" d="M425.4,791.2L425.4,791.2c0,0.1,0,0.2,0.2,0.4c0.1,0.1,0.2,0.1,0.4,0.1h0.2v-0.3H426
			c-0.1,0-0.1,0-0.2-0.1c0,0,0-0.1,0-0.1v0h0.3v-0.3h-0.3v-0.8c0,0,0-0.3-0.2-0.3h-0.2C425.4,789.6,425.4,791.2,425.4,791.2
			L425.4,791.2z"/>
		<path id="path150" class="st0" d="M413.5,790L413.5,790c0.1,0,0.1,0,0.2,0c0.1,0,0.2,0,0.2,0.1c0,0.1,0,0.1,0,0.2
			c0,0.2-0.1,0.2-0.2,0.2c0,0-0.1,0-0.2,0h-0.3v-0.4c0,0,0-0.1,0.1-0.1H413.5z M413.5,790.9L413.5,790.9c0.2,0,0.3,0,0.3,0
			c0,0,0.1,0.1,0.1,0.2c0,0.1-0.1,0.2-0.1,0.2c-0.1,0-0.1,0-0.3,0h-0.3v-0.4H413.5z M413.5,791.6L413.5,791.6c0.1,0,0.2,0,0.3,0
			c0.1,0,0.3,0,0.5-0.2c0.1-0.1,0.1-0.2,0.1-0.3c0-0.1,0-0.3-0.2-0.4c0,0-0.1,0-0.1,0c0.1,0,0.1-0.1,0.1-0.1
			c0.1-0.1,0.2-0.2,0.2-0.4c0-0.1,0-0.2-0.1-0.3c-0.2-0.3-0.5-0.3-0.6-0.3c-0.1,0-0.2,0-0.3,0h-0.3c-0.3,0-0.3,0.3-0.3,0.3v1.7
			H413.5z"/>
		<path id="path160" class="st0" d="M416.2,791.1L416.2,791.1h0.4v-1.5h-0.4V791.1z"/>
		<path id="path170" class="st0" d="M421.4,790.3L421.4,790.3c0-0.2,0.1-0.3,0.1-0.3c0.1-0.1,0.1-0.1,0.2-0.1s0.1,0,0.2,0
			c0.1,0.1,0.1,0.2,0.1,0.4c0,0,0,0.2-0.1,0.4c0,0-0.1,0.1-0.2,0.1C421.6,790.8,421.4,790.7,421.4,790.3z M422.5,791.6L422.5,791.6
			v-2H422c0,0,0,0.1,0,0.2c0-0.1-0.1-0.1-0.1-0.1c-0.1-0.1-0.3-0.1-0.3-0.1c0,0-0.2,0-0.3,0.1c-0.2,0.1-0.4,0.3-0.4,0.7
			c0,0.1,0,0.2,0.1,0.3c0.1,0.3,0.3,0.5,0.6,0.5c0.2,0,0.3-0.1,0.3-0.1c0,0,0-0.1,0.1-0.1v0.4c0,0,0,0.3,0.3,0.3H422.5L422.5,791.6z
			"/>
		<path id="path180" class="st0" d="M415.6,790.5L415.6,790.5C415.6,790.5,415.6,790.6,415.6,790.5c0,0.2-0.2,0.3-0.3,0.3
			c-0.1,0-0.2-0.1-0.3-0.2c0,0,0-0.1,0-0.1L415.6,790.5L415.6,790.5z M415,790.2L415,790.2c0-0.1,0-0.1,0.1-0.2
			c0.1-0.1,0.2-0.1,0.3-0.1c0.2,0,0.2,0.1,0.3,0.1h0.4c-0.2-0.4-0.6-0.5-0.7-0.5c-0.1,0-0.2,0-0.3,0c-0.3,0.1-0.5,0.4-0.5,0.7
			c0,0.1,0,0.3,0.2,0.5c0.1,0.1,0.3,0.3,0.6,0.3c0,0,0.2,0,0.3-0.1c0.1-0.1,0.3-0.2,0.4-0.6c0,0,0-0.1,0-0.2c0,0,0,0,0,0H415z"/>
		<path id="path190" class="st0" d="M417.9,790.5L417.9,790.5C417.9,790.5,417.9,790.6,417.9,790.5c0,0.2-0.2,0.3-0.3,0.3
			c-0.1,0-0.2-0.1-0.3-0.2c0,0,0-0.1,0-0.1L417.9,790.5L417.9,790.5z M417.3,790.2L417.3,790.2c0-0.1,0-0.1,0.1-0.2
			c0.1-0.1,0.2-0.1,0.3-0.1c0.2,0,0.2,0.1,0.3,0.1h0.4c-0.2-0.4-0.5-0.5-0.7-0.5c-0.1,0-0.2,0-0.3,0c-0.3,0.1-0.5,0.4-0.5,0.7
			c0,0.1,0,0.3,0.2,0.5c0.1,0.1,0.3,0.3,0.6,0.3c0.1,0,0.2,0,0.3-0.1c0.1-0.1,0.3-0.2,0.4-0.6c0,0,0-0.1,0-0.2c0,0,0,0,0,0H417.3
			L417.3,790.2z"/>
		<path id="path200" class="st0" d="M420.4,790.6L420.4,790.6C420.4,790.7,420.4,790.7,420.4,790.6c-0.1,0.1-0.1,0.2-0.3,0.2
			c0,0-0.1,0-0.1,0c-0.1,0-0.1-0.1-0.1-0.1c0,0,0-0.1,0.1-0.1c0,0,0.1,0,0.2,0l0.2,0l0.1,0c0.1,0,0.3-0.1,0.3-0.2c0,0,0-0.1,0-0.2
			c0,0,0-0.2-0.1-0.3c-0.1-0.1-0.2-0.2-0.6-0.2c-0.3,0-0.5,0.1-0.6,0.2c0,0.1-0.1,0.1-0.1,0.3h0.4c0,0,0-0.1,0-0.1
			c0,0,0.1-0.1,0.3-0.1c0,0,0,0,0.1,0c0,0,0.1,0,0.1,0.1c0,0.1-0.1,0.1-0.3,0.2c-0.3,0.1-0.4,0.1-0.5,0.2c-0.1,0.1-0.1,0.2-0.1,0.3
			c0,0.1,0,0.2,0.1,0.3c0.1,0.1,0.2,0.2,0.5,0.2c0.1,0,0.4,0,0.5-0.2c0.1-0.1,0.1-0.2,0.1-0.3H420.4L420.4,790.6z"/>
		<path id="path210" class="st0" d="M423.1,790.3L423.1,790.3c0-0.3,0.2-0.4,0.3-0.4c0,0,0.1,0,0.2,0c0.1,0.1,0.2,0.2,0.2,0.4
			c0,0,0,0.1,0,0.2c0,0.1-0.1,0.2-0.3,0.2C423.3,790.8,423.1,790.7,423.1,790.3L423.1,790.3z M424,791L424,791
			c0.2-0.1,0.3-0.4,0.3-0.6c0-0.3-0.2-0.6-0.5-0.7c-0.1,0-0.1,0-0.3,0c-0.1,0-0.2,0-0.3,0c-0.3,0.1-0.5,0.4-0.5,0.7
			c0,0.3,0.1,0.5,0.2,0.5c0.1,0.1,0.3,0.2,0.6,0.2C423.5,791.1,423.8,791.1,424,791L424,791z"/>
		<path id="path220" class="st0" d="M416.7,791.5L416.7,791.5c0-0.1-0.1-0.2-0.2-0.2c-0.1,0-0.2,0.1-0.2,0.2c0,0.1,0.1,0.2,0.2,0.2
			C416.6,791.7,416.7,791.6,416.7,791.5z"/>
	</g>
</g>
</svg>
