<?xml version="1.0" encoding="utf-8"?>
<!-- Generator: Adobe Illustrator 26.0.1, SVG Export Plug-In . SVG Version: 6.00 Build 0)  -->
<svg version="1.1" id="Layer_1" xmlns="http://www.w3.org/2000/svg" xmlns:xlink="http://www.w3.org/1999/xlink" x="0px" y="0px"
	 viewBox="0 0 95 35" style="enable-background:new 0 0 95 35;" xml:space="preserve">
<style type="text/css">
	.st0{fill:#343741;}
</style>
<path class="st0" d="M59.9,5.1C56.6,1.8,52.2,0,47.5,0C37.9,0,30,7.9,30,17.5c0,4.7,1.8,9.1,5.1,12.4c3.3,3.3,7.7,5.1,12.4,5.1
	c4.7,0,9.1-1.8,12.4-5.1c3.3-3.3,5.1-7.7,5.1-12.4C65,12.8,63.2,8.4,59.9,5.1z M47.5,34.4c-4.5,0-8.8-1.8-11.9-4.9
	c-3.2-3.2-4.9-7.4-4.9-11.9c0-4.5,1.8-8.8,4.9-11.9c3.2-3.2,7.4-4.9,11.9-4.9c4.5,0,8.8,1.8,11.9,4.9c3.2,3.2,4.9,7.4,4.9,11.9
	C64.4,26.8,56.8,34.4,47.5,34.4z"/>
<g>
	<path class="st0" d="M39.1,9.1c0.2-0.2,0.1-0.5-0.1-0.7c-0.2-0.2-0.6-0.1-0.7,0L37,9.9l0.8,0.7L39.1,9.1z"/>
	<path class="st0" d="M37.6,7.3c-0.2-0.2-0.5-0.2-0.7,0l-1.2,1.5l0.8,0.6L37.7,8C37.8,7.8,37.8,7.5,37.6,7.3z"/>
	<path class="st0" d="M47.5,1.3c-8.9,0-16.2,7.3-16.2,16.2c0,8.9,7.3,16.2,16.2,16.2c8.9,0,16.2-7.3,16.2-16.2
		C63.7,8.6,56.4,1.3,47.5,1.3z M45.1,2.2h1.3l1.2,3l1.2-3H50v4.3h-0.9v-3l-1.1,3h-0.9l-1.1-3v3h-0.9V2.2z M34.4,9.2l2.1-2.5
		c0.4-0.5,1-0.9,1.6-0.4c0.2,0.1,0.3,0.2,0.5,0.6c0.1,0.1,0.1,0.4,0,0.6c0.5-0.3,1-0.2,1.4,0.1c0.5,0.5,0.4,1.1-0.1,1.7l-2.2,2.6
		L34.4,9.2z M47.5,27.8c-5.7,0-10.3-4.6-10.3-10.3c0-5.7,4.6-10.3,10.3-10.3c5.7,0,10.3,4.6,10.3,10.3
		C57.8,23.2,53.2,27.8,47.5,27.8z M57.1,12l-0.8-1l1.5-2.3l0,0l-2.5,1l-0.8-1l2.7-3.4l0.7,0.8l-1.7,2.2l2.6-1.1l0.7,0.9l-1.6,2.3
		l2.5-1.2l0.7,0.8L57.1,12z"/>
</g>
<path class="st0" d="M47.5,27.2v-9.7h-9.7c0-5.3,4.3-9.7,9.7-9.7v9.7h9.7C57.2,22.8,52.8,27.2,47.5,27.2z"/>
</svg>
