<?xml version="1.0" encoding="utf-8"?>
<!-- Generator: Adobe Illustrator 26.0.1, SVG Export Plug-In . SVG Version: 6.00 Build 0)  -->
<svg version="1.1" id="Layer_1" xmlns="http://www.w3.org/2000/svg" xmlns:xlink="http://www.w3.org/1999/xlink" x="0px" y="0px"
	 viewBox="0 0 95 35" style="enable-background:new 0 0 95 35;" xml:space="preserve">
<style type="text/css">
	.st0{clip-path:url(#SVGID_00000011005629307512758940000001642838856850409357_);}
	.st1{fill:#CCCCCC;}
	.st2{clip-path:url(#SVGID_00000031194243353736489950000010658694176418682779_);}
	.st3{fill-rule:evenodd;clip-rule:evenodd;fill:#CCCCCC;}
</style>
<g id="g1303">
	<g>
		<defs>
			<path id="SVGID_1_" d="M72.2,8c-1,0-1.8,0.1-2.5,0.2c-3.9,0.7-7,4.2-7.2,8.3h32.2V8H72.2z"/>
		</defs>
		<use xlink:href="#SVGID_1_"  style="overflow:visible;fill:#CCCCCC;"/>
		<clipPath id="SVGID_00000109751130614348837740000004093217698842908573_">
			<use xlink:href="#SVGID_1_"  style="overflow:visible;"/>
		</clipPath>
		<g id="g1301" style="clip-path:url(#SVGID_00000109751130614348837740000004093217698842908573_);">
			<path id="path1299" class="st1" d="M62.6,8v8.5h32.2V8H62.6z"/>
		</g>
	</g>
</g>
<g id="g1309">
	<g>
		<defs>
			<path id="SVGID_00000125563880148821917600000009997983746850106499_" d="M40,18.6v8.5h22.5c1,0,1.8-0.1,2.5-0.2
				c3.9-0.7,7-4.2,7.2-8.3H40z"/>
		</defs>
		<use xlink:href="#SVGID_00000125563880148821917600000009997983746850106499_"  style="overflow:visible;fill:#CCCCCC;"/>
		<clipPath id="SVGID_00000064337295394637999540000016060752222918326204_">
			<use xlink:href="#SVGID_00000125563880148821917600000009997983746850106499_"  style="overflow:visible;"/>
		</clipPath>
		<g id="g1307" style="clip-path:url(#SVGID_00000064337295394637999540000016060752222918326204_);">
			<path id="path1305" class="st1" d="M72.2,27.1v-8.5H40v8.5H72.2z"/>
		</g>
	</g>
</g>
<path id="path1311" class="st3" d="M2.4,12.7c1.2,0,2,0.3,2,1.2c0,0.9-0.7,1.6-1.9,1.6c-0.3,0-0.6,0-0.8-0.1l0.1-2.7
	C2,12.7,2.2,12.7,2.4,12.7 M2.9,9.1c1.2,0,1.5,0.4,1.5,1c0,1-0.7,1.4-2,1.4c-0.2,0-0.4,0-0.5,0L2,9.1C2.3,9.1,2.6,9.1,2.9,9.1
	 M6.1,13.8c0-0.8-0.5-1.6-1.5-1.8v0c0.9-0.3,1.5-1.1,1.5-2.1c0-1.6-1.5-1.9-2.9-1.9c-0.9,0-1.8,0-2.7,0L0,16.5c0.8,0,1.6,0,2.4,0
	C4.1,16.6,6.1,15.9,6.1,13.8"/>
<path id="path1313" class="st3" d="M10.3,9.1c1.1,0,1.6,0.4,1.6,1.2c0,0.8-0.7,1.3-1.8,1.3c-0.2,0-0.4,0-0.5,0l0.1-2.5
	C9.9,9.1,10.1,9.1,10.3,9.1 M13.7,16.5l-1.9-3.1c-0.1-0.2-0.3-0.5-0.5-0.8c1.4-0.3,2.3-1.3,2.3-2.5c0-1.8-1.5-2.1-3.1-2.1
	C9.7,7.9,9,8,8.2,8l-0.5,8.5h1.6L9.5,13l0-0.2h0.1l2.1,3.8L13.7,16.5z"/>
<path id="path1315" class="st3" d="M19.8,16.5l0.1-1.2h-3.1l0.1-2.7h3l0.1-1.1h-3l0.1-2.4h3.1L20.3,8h-4.7l-0.5,8.5H19.8z"/>
<path id="path1317" class="st3" d="M27.6,8l-0.1,2.5c-0.1,1-0.1,2.9-0.1,3.9c-0.2-0.5-0.4-0.9-0.7-1.4l-2.5-5h-1.9l-0.5,8.5h1.6
	l0.1-2.9c0-1,0.1-2.5,0.1-3.4c0.2,0.4,0.4,0.8,0.6,1.2l2.5,5.1h2L29.1,8H27.6z"/>
<path id="path1319" class="st3" d="M36.7,8l-0.1,2.5c-0.1,1-0.1,2.9-0.1,3.9c-0.2-0.5-0.4-0.9-0.7-1.4l-2.5-5h-1.9l-0.5,8.5h1.6
	l0.1-2.9c0-1,0.1-2.5,0.1-3.4c0.2,0.4,0.4,0.8,0.6,1.2l2.5,5.1h2L38.3,8H36.7z"/>
<path id="path1321" class="st3" d="M39.5,8l-0.1,1.2h2.2l-0.4,7.3h1.6l0.4-7.3h2.2L45.6,8H39.5z"/>
<path id="path1323" class="st3" d="M49,9.5L49,9.5c0.1,0.3,0.2,0.7,0.3,1.1l0.9,3h-2.7l1.1-3C48.7,10.2,48.9,9.8,49,9.5 M52.8,16.5
	L50.2,8h-1.9l-3.5,8.5h1.6l0.7-1.9h3.4l0.6,1.9H52.8z"/>
<path id="path1325" class="st3" d="M58.2,9.1c0.8,0,1.7,0.2,2.4,0.4l0.3-1.3c-0.8-0.3-1.6-0.4-2.5-0.4c-2.8,0-5,1.6-5,4.9
	c0,2.6,1.4,3.9,4.1,3.9c1,0,2-0.1,3-0.5l0.2-4h-1.6l-0.2,3.1c-0.4,0.1-0.8,0.2-1.2,0.2c-1.8,0-2.6-1.1-2.6-2.8
	C55.2,10.3,56.5,9.1,58.2,9.1"/>
</svg>
