<?xml version="1.0" encoding="utf-8"?>
<!-- Generator: Adobe Illustrator 26.0.1, SVG Export Plug-In . SVG Version: 6.00 Build 0)  -->
<svg version="1.1" id="Layer_1" xmlns="http://www.w3.org/2000/svg" xmlns:xlink="http://www.w3.org/1999/xlink" x="0px" y="0px"
	 viewBox="0 0 95 35" style="enable-background:new 0 0 95 35;" xml:space="preserve">
<style type="text/css">
	.st0{fill:#343741;}
</style>
<g id="layer1" transform="translate(-544.27348,-995.30113)">
	<g id="g3651" transform="matrix(2.6667598,0,0,-2.6667598,-401.84366,3177.6898)">
		<path id="path201" class="st0" d="M388.4,814.1c-0.1,0-0.4,0-0.7-0.4l0,0c0,0,0,0,0,0l0,0c0.1,0.1,0.2,0.2,0.3,0.3l0,0
			C388.1,814.1,388.3,814.1,388.4,814.1L388.4,814.1c0,0,0.3,0,0.5,0l0,0c0,0,0,0,0,0l0,0l0,0c0,0,0,0,0,0l0,0H388.4z"/>
		<path id="path225" class="st0" d="M386.4,814.1C386.4,814.1,386.4,814.1,386.4,814.1L386.4,814.1l-1.1-1.8l-0.3-0.6l0-0.1l0,0
			c0,0,0,0,0,0l0,0l1-1.8v0c0,0,0,0.1,0,0.1l0,0c0,0.1-0.1,0.2-0.1,0.4l0,0c0,0.3,0.2,0.7,0.3,0.8l0,0c0.2,0.4,0.6,1.1,0.6,1.1l0,0
			c0,0,0.4,0.7,0.6,1.1l0,0c0.1,0.2,0.3,0.5,0.6,0.7l0,0c0.1,0.1,0.2,0.1,0.3,0.1l0,0c0.1,0,0.3,0,0.6,0l0,0H386.4z"/>
		<path id="path249" class="st0" d="M385,811.6C385,811.6,385,811.6,385,811.6L385,811.6L385,811.6z M390.1,811.1
			c-0.1-0.1-0.2-0.2-0.3-0.2l0,0c-0.3-0.2-0.7-0.2-0.9-0.2l0,0h-1.2h-1.2c-0.2,0-0.6,0-0.9,0.2l0,0c-0.1,0.1-0.2,0.1-0.3,0.2l0,0
			c0,0.1-0.1,0.2-0.3,0.4l0,0l0.3-0.4l1-1.7c0,0,0,0,0,0l0,0h2.9c0,0,0,0,0,0l0,0l1.3,2.2C390.3,811.4,390.1,811.2,390.1,811.1"/>
		<path id="path273" class="st0" d="M388.4,814.1c-0.1,0-0.2-0.1-0.3-0.1l0,0c-0.1-0.1-0.2-0.2-0.3-0.3l0,0c0.1-0.1,0.2-0.3,0.3-0.4
			l0,0c0.2-0.4,0.6-1.1,0.6-1.1l0,0c0,0,0.4-0.7,0.6-1.1l0,0c0.1-0.2,0.3-0.5,0.3-0.8l0,0c0-0.1,0-0.3-0.1-0.4l0,0
			c0-0.1-0.1-0.3-0.3-0.5l0,0l1.2,2.2c0,0,0,0,0,0l0,0v0c0,0,0,0,0,0l0,0l-1.4,2.5c0,0,0,0,0,0l0,0
			C388.7,814.1,388.4,814.1,388.4,814.1"/>
		<path id="path177" class="st0" d="M356.1,812.9c-0.7,0-1.3-0.6-1.3-1.3c0-0.8,0.6-1.3,1.2-1.3c0.4,0,0.7,0.1,0.9,0.4l-0.3,0.4
			c-0.1-0.2-0.3-0.2-0.6-0.2c-0.4,0-0.7,0.3-0.7,0.8c0,0.4,0.3,0.8,0.7,0.8c0.2,0,0.4-0.1,0.5-0.2l0.4,0.4
			C356.7,812.7,356.4,812.9,356.1,812.9z M358.5,812.9c-0.8,0-1.3-0.6-1.3-1.3c0-0.7,0.5-1.3,1.3-1.3c0.8,0,1.3,0.6,1.3,1.3
			C359.8,812.3,359.2,812.9,358.5,812.9z M360.4,812.8l-0.2-2.5h0.5l0.1,1.4c0,0.3,0,0.5,0,0.5h0c0,0,0.1-0.3,0.1-0.5l0.4-1.4h0.5
			l0.4,1.4c0.1,0.2,0.1,0.5,0.1,0.5h0c0,0,0-0.3,0-0.5l0.1-1.4h0.6l-0.2,2.5h-0.7l-0.4-1.3c-0.1-0.2-0.1-0.5-0.1-0.5
			s-0.1,0.3-0.1,0.5l-0.4,1.2H360.4z M363.9,812.8l-0.2-2.5h0.5l0.1,1.4c0,0.3,0,0.5,0,0.5h0c0,0,0.1-0.3,0.1-0.5l0.4-1.4h0.5
			l0.4,1.4c0.1,0.2,0.1,0.5,0.1,0.5h0c0,0,0-0.3,0-0.5l0.1-1.4h0.6l-0.2,2.5h-0.7l-0.4-1.3c-0.1-0.2-0.1-0.5-0.1-0.5
			s-0.1,0.3-0.1,0.5l-0.4,1.2H363.9z M367.3,812.8v-2.5h1.6v0.5h-1.1v0.6h0.9v0.5h-0.9v0.5h1.1v0.5H367.3z M369.6,812.8v-2.5h0.6
			v0.9h0.2l0.5-0.9h0.7l-0.6,1c0.3,0.1,0.5,0.4,0.5,0.7c0,0.5-0.3,0.8-1.1,0.8H369.6z M371.8,812.8v-0.5h1l-1-1.6v-0.4h1.8v0.5h-1.1
			l1,1.6v0.4H371.8z M374.2,812.8v-2.5h1c0.5,0,1,0.2,1,0.7c0,0.3-0.2,0.5-0.5,0.6v0c0.3,0.1,0.4,0.3,0.4,0.6c0,0.5-0.5,0.6-0.9,0.6
			H374.2z M377.2,812.8l-0.9-2.5h0.6l0.2,0.5h1l0.2-0.5h0.6l-0.9,2.5H377.2z M379.1,812.8v-2.5h0.5v1.2c0,0.2,0,0.5,0,0.5
			s0.1-0.2,0.3-0.4l0.9-1.3h0.5v2.5h-0.5v-1.1c0-0.2,0-0.5,0-0.5s-0.1,0.2-0.3,0.4l-0.8,1.2H379.1z M381.8,812.8v-2.5h0.5v1.2
			l0.8-1.2h0.7l-0.9,1.4l0.8,1.2h-0.6l-0.8-1.1v1.1H381.8z M358.5,812.4c0.4,0,0.7-0.3,0.7-0.8c0-0.4-0.3-0.8-0.7-0.8
			c-0.4,0-0.7,0.3-0.7,0.8C357.7,812,358,812.4,358.5,812.4z M370.1,812.4h0.2c0.3,0,0.5-0.1,0.5-0.3c0-0.2-0.2-0.3-0.5-0.3h-0.2
			V812.4z M374.7,812.4h0.3c0.2,0,0.4-0.1,0.4-0.3c0-0.2-0.2-0.3-0.3-0.3h-0.3V812.4z M377.5,812.3c0,0,0-0.2,0.1-0.4l0.2-0.7h-0.7
			l0.2,0.7C377.4,812.1,377.5,812.3,377.5,812.3z M374.7,811.3h0.4c0.2,0,0.4-0.1,0.4-0.3c0-0.2-0.1-0.3-0.4-0.3h-0.4V811.3z"/>
	</g>
</g>
</svg>
