<?xml version="1.0" encoding="utf-8"?>
<!-- Generator: Adobe Illustrator 26.0.1, SVG Export Plug-In . SVG Version: 6.00 Build 0)  -->
<svg version="1.1" id="Layer_1" xmlns="http://www.w3.org/2000/svg" xmlns:xlink="http://www.w3.org/1999/xlink" x="0px" y="0px"
	 viewBox="0 0 95 35" style="enable-background:new 0 0 95 35;" xml:space="preserve">
<style type="text/css">
	.st0{fill:#343741;}
</style>
<g id="_x34_aacb9ff-6f60-49aa-8494-09fb5c3e053e">
	<g id="_x34_36664e4-1ed4-4ef5-8fcb-bef6e40e4226">
		<path class="st0" d="M95,22.2H82.2v-0.4H95V22.2z M88.6,19.8l1.2-1.2l0.5,0.5L89,20.2c-0.1,0.1-0.2,0.3-0.3,0.5h-1
			C87.9,20.3,88.2,20,88.6,19.8z M84.5,12.4c0,0-1,0.3-1,0.3c-0.2,0.1-0.4,0.2-0.7,0.3c-0.2,0.1-0.4,0.3-0.4,0.5l0.9,0.2
			c0.1-0.1,0.3-0.3,0.4-0.4l0.2-0.1L84.5,12.4C84.6,12.4,84.6,12.4,84.5,12.4L84.5,12.4z M90.4,14.7c-0.5-0.6-1-1.2-1.5-1.8
			c0.3-0.8,0.4-1.7,0.3-2.6c-0.2-0.3-0.4-0.6-0.6-0.9c-0.1-0.1-0.5-0.6-0.7-0.6c0,0-0.1,0-0.1,0l0,0.5c-0.6,0.3-1.2,0.8-1.8,1.2
			c0,0.2,0,0.4,0,0.5c0.1,0.1,0.2,0.1,0.3,0.2c0.4-0.1,0.8-0.2,1.2-0.2l-0.7,1.1l-0.9,0.6l-1-0.3c-0.1,0-0.1,0-0.2,0l-0.8,0.8
			c-0.1,0-0.1,0.1-0.1,0.2l0,0.9v0.3c0,0.4,0.1,0.7,0.3,1l0.5-0.7c-0.1-0.2-0.2-0.3-0.2-0.5v-0.8l0.5-0.3l1.3,0.9
			c0.2,0.4,0.4,0.7,0.7,1c0.6,0.5,1.2,1,1.9,1.3c0.1,0.3,0.1,0.7,0.3,1l1.6,1.6l-0.9,1.2c-0.4,0.2-0.6,0.6-0.6,1h1.1l0.1-0.6
			l1.3-1.4c0.1-0.1,0.1-0.1,0-0.2l-0.3-1.2c0.3-0.4,0.5-0.8,0.6-1.3C92,15.4,90.8,15.1,90.4,14.7L90.4,14.7z M92.3,16.7
			c-0.1-0.3-0.2-0.6-0.3-0.8c0,0,0,0,0.2,0s0.8,0.5,0.8,0.5c0.3,0.5,0.6,2.6,0.6,3.3c-0.4-0.2-0.7-0.4-1-0.7L92.3,16.7z"/>
		<path class="st0" d="M59,16.2c0-0.8-0.3-1.4-0.9-1.4s-1,0.6-1,1.4v5.2h0.8v0.8h-4.4v-0.8h0.8v-7.1h-0.8v-0.8H57v1.3h0
			c0.4-0.9,1.3-1.5,2.3-1.5c1.1-0.1,2.1,0.7,2.3,1.8c0.1,0.5,0.1,1,0.1,1.4v4.9h1v0.8H59L59,16.2 M41.2,16.2c0-0.8-0.3-1.4-0.9-1.4
			c-0.7,0-1,0.6-1,1.4v5.2h0.8v0.8h-4.4v-0.8h0.8v-7.1h-0.8v-0.8h3.4v1.3h0c0.4-0.9,1.3-1.5,2.3-1.5c1.1-0.1,2.1,0.7,2.3,1.8
			c0.1,0.5,0.1,1,0.1,1.4v4.9h1v0.8h-3.8C41.2,22.2,41.2,16.2,41.2,16.2z M66.6,14.2v6.5c0,0.3,0.2,0.5,0.5,0.6c0,0,0.1,0,0.1,0
			c0.2,0,0.4,0,0.5-0.1v0.8c-0.5,0.3-1.1,0.4-1.7,0.3c-1.3,0-2.2-0.7-2.2-2.1v-6h-0.9v-0.6c1-0.8,2.3-1.8,3.2-2.6h0.5v2.3H68v0.8
			H66.6z M11.7,8.9c0,0,2.1,2.1,3.1,3.2v0.8c-1.2-1.1-2.8-1.8-4.5-1.8c-4,0-6.4,3-6.4,6.7s2.3,6.7,6.4,6.7c1.7,0,3.4-0.7,4.6-1.9
			v0.8c-1.2,1.7-3.5,2.8-6.3,2.8c-5,0-8.5-3.6-8.5-8.3c0-4.6,3.8-8.4,8.5-8.4c0,0,0,0,0.1,0c1.1,0,2.2,0.2,3.2,0.5V8.9z M52.2,19.9
			c-0.5,0.6-1.2,0.9-1.9,0.8c-0.8,0-2-0.4-2.1-2.5h4.7c0-0.2,0-0.5,0-0.7c0-2.5-1-4.3-3.7-4.3s-4,2-4,4.6s1.3,4.5,4,4.5
			c1.5,0.1,2.8-0.7,3.4-2L52.2,19.9z M48.2,17.4c0-2.3,0.2-3.2,1-3.2c0.8,0,1,0.8,1,3.2H48.2z M9.4,17.8c0-2.7,0.3-3.9,1.2-3.9
			s1.2,1.2,1.2,3.9s-0.3,3.9-1.2,3.9S9.4,20.5,9.4,17.8 M6.1,17.8c0,2.7,1.6,4.8,4.4,4.8s4.4-2.2,4.4-4.8S13.4,13,10.6,13
			S6.1,15.2,6.1,17.8 M21.2,16.2c0-0.8-0.3-1.4-0.9-1.4s-1,0.6-1,1.4v5.2h0.8v0.8h-4.4v-0.8h0.8v-7.1h-0.8v-0.8h3.4v1.3h0
			c0.4-0.9,1.3-1.5,2.3-1.5c1.1-0.1,2.1,0.7,2.3,1.8c0.1,0.5,0.1,1,0.1,1.4v4.9h1v0.8h-3.8L21.2,16.2L21.2,16.2z M31.2,11.1
			c0,0.8,0.7,1.3,1.7,1.3c1,0,1.7-0.5,1.7-1.3c0-0.8-0.7-1.3-1.7-1.3C31.9,9.8,31.2,10.3,31.2,11.1 M28.8,14.2v6.5
			c0,0.3,0.2,0.5,0.5,0.6c0,0,0.1,0,0.1,0c0.2,0,0.4,0,0.5-0.1v0.8c-0.5,0.3-1.1,0.4-1.7,0.3c-1.3,0-2.2-0.7-2.2-2.1v-6h-0.9v-0.6
			c1-0.8,2.3-1.8,3.2-2.6h0.5v2.3h1.1v0.8L28.8,14.2z M80.1,21.4h1.1v0.8h-3.9V11h-1v-0.8h3.8L80.1,21.4L80.1,21.4z M72.7,17.9
			c-0.2-0.1-0.4-0.2-0.6-0.2c-0.8,0-1,0.8-1,1.7s0.3,1.5,1,1.5c0.2,0,0.5-0.1,0.7-0.3V17.9z M72.8,21.2L72.8,21.2
			c-0.5,0.8-1.4,1.2-2.3,1.2c-1.4,0-2.3-1.2-2.3-2.7c0-1.7,1.3-2.9,3.3-2.9c0.4,0,0.9,0,1.3,0.2v-0.6c0.1-0.8-0.5-1.5-1.4-1.6
			c-0.1,0-0.2,0-0.3,0c-0.8,0-1.5,0.4-2,1l-0.5-0.6c0.7-1.2,2.1-2,3.5-2c2.1,0,3.4,1.3,3.4,3.2v5h0.9v0.8h-3.6L72.8,21.2L72.8,21.2z
			 M30.7,22.2v-0.8h0.8v-7.2h-0.8v-0.8h3.6v8h0.8v0.8H30.7z"/>
	</g>
</g>
</svg>
