<?xml version="1.0" encoding="utf-8"?>
<!-- Generator: Adobe Illustrator 26.0.1, SVG Export Plug-In . SVG Version: 6.00 Build 0)  -->
<svg version="1.1" id="Layer_1" xmlns="http://www.w3.org/2000/svg" xmlns:xlink="http://www.w3.org/1999/xlink" x="0px" y="0px"
	 viewBox="0 0 95 35" style="enable-background:new 0 0 95 35;" xml:space="preserve">
<style type="text/css">
	.st0{fill-rule:evenodd;clip-rule:evenodd;fill:#FFFFFF;}
</style>
<g>
	<path class="st0" d="M43.4,25.9v-5.4h2.4c0.4,0,0.8,0.1,1.1,0.2c0.3,0.2,0.5,0.4,0.7,0.6c0.2,0.3,0.3,0.5,0.3,0.8
		c0.1,0.3,0.1,0.6,0.1,0.9c0,0.3,0,0.6-0.1,1c-0.1,0.3-0.2,0.6-0.4,0.9c-0.2,0.3-0.4,0.5-0.7,0.7c-0.3,0.2-0.7,0.3-1.1,0.3H43.4
		L43.4,25.9L43.4,25.9z M44.5,21.4V25h1.1c0.3,0,0.5-0.1,0.7-0.3c0.2-0.2,0.3-0.4,0.4-0.7c0.1-0.3,0.1-0.6,0.1-0.9
		c0-0.5-0.1-0.9-0.2-1.1c-0.1-0.3-0.3-0.4-0.5-0.5c-0.2-0.1-0.4-0.1-0.6-0.1H44.5L44.5,21.4z"/>
	<path class="st0" d="M50.7,24.7h1.1c-0.1,0.4-0.4,0.8-0.7,1C50.8,25.9,50.4,26,50,26c-0.3,0-0.6,0-0.8-0.1
		c-0.2-0.1-0.5-0.2-0.6-0.4c-0.2-0.2-0.3-0.4-0.4-0.7c-0.1-0.3-0.1-0.6-0.1-1c0-0.2,0-0.4,0.1-0.6c0-0.2,0.1-0.4,0.3-0.7
		c0.1-0.2,0.3-0.4,0.6-0.6c0.3-0.2,0.6-0.2,1-0.2c0.2,0,0.4,0,0.7,0.1c0.2,0.1,0.4,0.2,0.6,0.3c0.2,0.2,0.3,0.4,0.5,0.7
		c0.1,0.3,0.2,0.7,0.2,1.1v0.2h-2.8c0,0.2,0,0.3,0.1,0.4c0,0.1,0.1,0.3,0.3,0.4c0.1,0.1,0.3,0.2,0.6,0.2c0.2,0,0.3,0,0.4-0.1
		C50.6,24.9,50.7,24.8,50.7,24.7L50.7,24.7L50.7,24.7z M49.1,23.5h1.6c0-0.3-0.1-0.5-0.3-0.6c-0.2-0.1-0.3-0.2-0.5-0.2
		C49.5,22.6,49.2,22.9,49.1,23.5L49.1,23.5z"/>
	<path class="st0" d="M55.8,21.9v4h-1v-0.6h0c-0.1,0.2-0.3,0.4-0.5,0.5c-0.2,0.1-0.5,0.2-0.7,0.2c-0.3,0-0.5-0.1-0.7-0.2
		c-0.2-0.1-0.4-0.3-0.5-0.5c-0.1-0.2-0.2-0.5-0.2-0.8v-2.6h1.1v2.5c0,0.5,0.2,0.7,0.7,0.7c0.2,0,0.4-0.1,0.6-0.2
		c0.2-0.1,0.2-0.4,0.2-0.7v-2.3H55.8L55.8,21.9z"/>
	<path class="st0" d="M57.6,20.8v1.1h0.7v0.8h-0.7v2.2c0,0.1,0,0.2,0,0.2c0,0,0.1,0.1,0.1,0.1c0.1,0,0.2,0,0.3,0c0,0,0.1,0,0.2,0
		v0.8c-0.2,0-0.4,0-0.5,0h-0.1c-0.3,0-0.5,0-0.7-0.1c-0.2-0.1-0.3-0.2-0.3-0.3c-0.1-0.1-0.1-0.3-0.1-0.5v-2.4H56v-0.8h0.5v-1.1H57.6
		L57.6,20.8z"/>
	<path class="st0" d="M61.8,23.1h-1c0-0.2-0.1-0.3-0.2-0.4c-0.1-0.1-0.3-0.1-0.5-0.1c-0.4,0-0.6,0.1-0.6,0.4c0,0.1,0.1,0.2,0.4,0.3
		c0.3,0.1,0.6,0.1,0.9,0.2c0.3,0.1,0.6,0.2,0.8,0.4c0.2,0.2,0.3,0.4,0.3,0.8c0,0.4-0.1,0.6-0.3,0.8c-0.2,0.2-0.4,0.3-0.7,0.4
		c-0.3,0.1-0.5,0.1-0.8,0.1c-0.5,0-1-0.1-1.3-0.3c-0.4-0.2-0.6-0.6-0.6-1.1h1.1c0,0.4,0.3,0.6,0.9,0.6c0.2,0,0.4,0,0.5-0.1
		c0.1-0.1,0.2-0.2,0.2-0.3c0-0.1-0.1-0.3-0.4-0.3c-0.3-0.1-0.6-0.1-0.9-0.2c-0.3-0.1-0.6-0.2-0.8-0.4c-0.2-0.2-0.3-0.4-0.3-0.8
		c0-0.2,0.1-0.4,0.2-0.6c0.1-0.2,0.3-0.4,0.5-0.5c0.2-0.1,0.6-0.2,0.9-0.2C61.2,21.8,61.8,22.2,61.8,23.1L61.8,23.1z"/>
	<path class="st0" d="M64.7,24.4h1.1c0,0.1,0,0.3-0.1,0.5c-0.1,0.2-0.2,0.3-0.3,0.5c-0.1,0.2-0.3,0.3-0.6,0.4
		C64.6,25.9,64.3,26,64,26c-0.4,0-0.7-0.1-0.9-0.2c-0.2-0.1-0.4-0.3-0.6-0.5c-0.1-0.2-0.2-0.4-0.3-0.6c-0.1-0.2-0.1-0.5-0.1-0.7
		c0-0.4,0.1-0.8,0.2-1.2c0.1-0.3,0.3-0.6,0.6-0.8c0.3-0.2,0.6-0.3,1.1-0.3c0.3,0,0.5,0,0.8,0.1c0.3,0.1,0.5,0.2,0.7,0.5
		c0.2,0.2,0.3,0.5,0.3,0.9h-1.1c-0.1-0.4-0.3-0.6-0.7-0.6c-0.2,0-0.4,0.1-0.5,0.2c-0.1,0.1-0.2,0.3-0.3,0.4
		c-0.1,0.2-0.1,0.4-0.1,0.5c0,0.2,0,0.4,0,0.6c0,0.2,0.1,0.3,0.2,0.5c0.1,0.1,0.3,0.2,0.5,0.2c0.2,0,0.3,0,0.4-0.1
		c0.1-0.1,0.2-0.2,0.2-0.3C64.7,24.6,64.7,24.5,64.7,24.4L64.7,24.4z"/>
	<path class="st0" d="M69.8,23.1v2.8h-1.1v-2.4c0-0.1,0-0.3,0-0.4c0-0.1-0.1-0.2-0.2-0.3c-0.1-0.1-0.3-0.1-0.5-0.1
		c-0.2,0-0.3,0-0.4,0.1c-0.1,0.1-0.2,0.2-0.3,0.3c-0.1,0.1-0.1,0.3-0.1,0.5v2.3h-1.1v-5.4h1.1v1.9h0c0.1-0.2,0.2-0.3,0.4-0.4
		c0.2-0.1,0.5-0.2,0.7-0.2c0.3,0,0.5,0.1,0.7,0.2c0.2,0.1,0.4,0.3,0.5,0.5C69.7,22.6,69.8,22.8,69.8,23.1L69.8,23.1z"/>
	<path class="st0" d="M72.7,24.7h1.1c-0.1,0.4-0.4,0.8-0.7,1c-0.3,0.2-0.7,0.3-1.1,0.3c-0.3,0-0.6,0-0.8-0.1
		c-0.2-0.1-0.5-0.2-0.6-0.4c-0.2-0.2-0.3-0.4-0.4-0.7c-0.1-0.3-0.1-0.6-0.1-1c0-0.2,0-0.4,0.1-0.6c0-0.2,0.1-0.4,0.3-0.7
		c0.1-0.2,0.3-0.4,0.6-0.6c0.3-0.2,0.6-0.2,1-0.2c0.2,0,0.4,0,0.7,0.1c0.2,0.1,0.4,0.2,0.6,0.3c0.2,0.2,0.3,0.4,0.5,0.7
		c0.1,0.3,0.2,0.7,0.2,1.1v0.2h-2.8c0,0.2,0,0.3,0.1,0.4c0,0.1,0.1,0.3,0.3,0.4c0.1,0.1,0.3,0.2,0.6,0.2c0.2,0,0.3,0,0.4-0.1
		C72.6,24.9,72.7,24.8,72.7,24.7L72.7,24.7L72.7,24.7z M71.1,23.5h1.6c0-0.3-0.1-0.5-0.3-0.6c-0.2-0.1-0.3-0.2-0.5-0.2
		C71.5,22.6,71.2,22.9,71.1,23.5L71.1,23.5z"/>
	<path class="st0" d="M43.4,34.9v-5.4H46c0.4,0,0.7,0.1,1,0.2c0.2,0.1,0.4,0.3,0.5,0.5c0.1,0.2,0.2,0.4,0.2,0.6
		c0,0.3-0.1,0.6-0.2,0.7c-0.1,0.2-0.3,0.3-0.5,0.4c0.6,0.2,0.8,0.6,0.8,1.3c0,0.2,0,0.4-0.1,0.6c-0.1,0.2-0.2,0.4-0.3,0.5
		c-0.1,0.1-0.2,0.2-0.4,0.3c-0.1,0.1-0.3,0.1-0.5,0.2c-0.2,0-0.5,0.1-0.9,0.1H43.4L43.4,34.9L43.4,34.9z M44.5,30.4v1.2h1.3
		c0.2,0,0.4,0,0.6-0.2c0.1-0.1,0.2-0.3,0.2-0.5c0-0.2-0.1-0.4-0.2-0.5c-0.1-0.1-0.3-0.1-0.6-0.1H44.5L44.5,30.4L44.5,30.4z
		 M44.5,32.5V34h1.4c0.6,0,0.9-0.3,0.9-0.8c0-0.2-0.1-0.4-0.2-0.5c-0.2-0.1-0.3-0.2-0.6-0.2H44.5L44.5,32.5z"/>
	<path class="st0" d="M52.2,32.9c0,0.3-0.1,0.7-0.2,0.9c-0.1,0.3-0.3,0.5-0.4,0.7c-0.2,0.2-0.4,0.3-0.7,0.4C50.7,35,50.4,35,50.2,35
		c-0.4,0-0.7-0.1-1-0.2c-0.3-0.2-0.6-0.4-0.7-0.7c-0.2-0.3-0.3-0.7-0.3-1.2c0-0.4,0.1-0.7,0.2-0.9c0.1-0.3,0.3-0.5,0.5-0.7
		c0.2-0.2,0.4-0.3,0.7-0.4c0.2-0.1,0.5-0.1,0.8-0.1c0.3,0,0.5,0,0.8,0.1c0.2,0.1,0.5,0.2,0.7,0.4c0.2,0.2,0.3,0.4,0.4,0.7
		C52.2,32.2,52.2,32.5,52.2,32.9L52.2,32.9L52.2,32.9z M51.1,32.9c0-0.3-0.1-0.6-0.2-0.9c-0.1-0.2-0.4-0.4-0.8-0.4
		c-0.4,0-0.6,0.1-0.8,0.4c-0.1,0.2-0.2,0.5-0.2,0.9c0,0.3,0.1,0.6,0.2,0.9c0.1,0.2,0.4,0.4,0.8,0.4c0.4,0,0.6-0.1,0.8-0.4
		C51.1,33.5,51.1,33.2,51.1,32.9L51.1,32.9z"/>
	<path class="st0" d="M52.6,34.9v-4h1v0.7h0c0.1-0.2,0.2-0.3,0.3-0.4c0.1-0.1,0.2-0.2,0.3-0.3c0.1-0.1,0.3-0.1,0.5-0.1
		c0,0,0.1,0,0.2,0v1.1c-0.1,0-0.2,0-0.3,0c-0.6,0-1,0.3-1,1v2.1H52.6L52.6,34.9z"/>
	<path class="st0" d="M58.4,32.1h-1c0-0.2-0.1-0.3-0.2-0.4c-0.1-0.1-0.3-0.1-0.5-0.1c-0.4,0-0.6,0.1-0.6,0.4c0,0.1,0.1,0.2,0.4,0.3
		c0.3,0.1,0.6,0.1,0.9,0.2c0.3,0.1,0.6,0.2,0.8,0.4c0.2,0.2,0.3,0.4,0.3,0.8c0,0.4-0.1,0.6-0.3,0.8c-0.2,0.2-0.4,0.3-0.7,0.4
		C57.3,35,57.1,35,56.8,35c-0.5,0-1-0.1-1.3-0.3c-0.4-0.2-0.6-0.6-0.6-1.1H56c0,0.4,0.3,0.6,0.9,0.6c0.2,0,0.4,0,0.5-0.1
		c0.1-0.1,0.2-0.2,0.2-0.3c0-0.1-0.1-0.3-0.4-0.3c-0.3-0.1-0.6-0.1-0.9-0.2c-0.3-0.1-0.6-0.2-0.8-0.4c-0.2-0.2-0.3-0.4-0.3-0.8
		c0-0.2,0.1-0.4,0.2-0.6c0.1-0.2,0.3-0.4,0.5-0.5c0.2-0.1,0.6-0.2,0.9-0.2C57.8,30.8,58.4,31.2,58.4,32.1L58.4,32.1z"/>
	<path class="st0" d="M61.3,33.7h1.1c-0.1,0.4-0.4,0.8-0.7,1C61.4,34.9,61,35,60.6,35c-0.3,0-0.6,0-0.8-0.1
		c-0.2-0.1-0.5-0.2-0.6-0.4c-0.2-0.2-0.3-0.4-0.4-0.7c-0.1-0.3-0.1-0.6-0.1-1c0-0.2,0-0.4,0.1-0.6c0-0.2,0.1-0.4,0.3-0.7
		c0.1-0.2,0.3-0.4,0.6-0.6c0.3-0.2,0.6-0.2,1-0.2c0.2,0,0.4,0,0.7,0.1c0.2,0.1,0.4,0.2,0.6,0.3c0.2,0.2,0.3,0.4,0.5,0.7
		c0.1,0.3,0.2,0.7,0.2,1.1v0.2h-2.8c0,0.2,0,0.3,0.1,0.4c0,0.1,0.1,0.3,0.3,0.4c0.1,0.1,0.3,0.2,0.6,0.2c0.2,0,0.3,0,0.4-0.1
		C61.2,34,61.3,33.9,61.3,33.7L61.3,33.7L61.3,33.7z M59.7,32.5h1.6c0-0.3-0.1-0.5-0.3-0.6c-0.2-0.1-0.3-0.2-0.5-0.2
		C60.1,31.7,59.8,31.9,59.7,32.5L59.7,32.5z"/>
	<polygon class="st0" points="48.7,29.6 48.7,30.6 49.8,30.6 49.8,29.6 48.7,29.6 	"/>
	<polygon class="st0" points="50.5,29.6 50.5,30.6 51.6,30.6 51.6,29.6 50.5,29.6 	"/>
	<polygon class="st0" points="21.1,20.5 34.2,12.5 26.9,12.5 21.1,16 21.1,20.5 	"/>
	<polygon class="st0" points="34.2,12.5 26.9,12.5 33.5,16.6 40.8,16.6 34.2,12.5 	"/>
	<polygon class="st0" points="53.8,8.6 46.5,8.6 33.4,16.6 40.7,16.6 53.8,8.6 	"/>
	<polygon class="st0" points="53.8,8.7 46.4,8.7 53.1,12.7 60.4,12.7 53.8,8.7 	"/>
	<polygon class="st0" points="73.9,0 53,12.7 60.3,12.7 73.9,4.5 73.9,0 	"/>
</g>
</svg>
