<?xml version="1.0" encoding="utf-8"?>
<!-- Generator: Adobe Illustrator 26.0.1, SVG Export Plug-In . SVG Version: 6.00 Build 0)  -->
<svg version="1.1" id="Layer_1" xmlns="http://www.w3.org/2000/svg" xmlns:xlink="http://www.w3.org/1999/xlink" x="0px" y="0px"
	 viewBox="0 0 95 35" style="enable-background:new 0 0 95 35;" xml:space="preserve">
<style type="text/css">
	.st0{fill-rule:evenodd;clip-rule:evenodd;fill:#FFFFFF;}
</style>
<g id="layer1" transform="translate(-173.76543,-272.64083)">
	<g id="g2420" transform="matrix(1.0806398,0,0,1.0806398,-170.89662,249.83272)">
		<path id="path2384" class="st0" d="M393.4,41.8l6.6-9h3.1l-6.6,9H393.4z M389.6,28.7h17.3v17.3h-17.3V28.7z M392,31.1v12.4h12.4
			V31.1H392L392,31.1z"/>
		<g id="g2386">
			<path id="path2388" class="st0" d="M322.8,39.7l-0.3-0.2l-0.4-0.1l-0.4-0.1l-0.4,0h-1.5v5.8h1.3l0.6,0l0.5-0.1l0.4-0.2l0.3-0.2
				l0.3-0.3l0.2-0.3l0.2-0.4l0.1-0.4l0.1-0.5l0-0.6l0-0.5l-0.1-0.5l-0.1-0.4l-0.2-0.4l-0.3-0.4L322.8,39.7z M321.8,45.8l-0.6,0h-2.3
				v-7.3h2l0.5,0l0.5,0l0.5,0.1l0.5,0.1l0.5,0.2l0.4,0.3l0.3,0.3l0.2,0.4l0.2,0.4l0.1,0.5l0.1,0.5l0,0.5l0,0.6l-0.1,0.5l-0.1,0.5
				l-0.2,0.5l-0.3,0.4l-0.3,0.3l-0.4,0.3l-0.4,0.2l-0.5,0.2L321.8,45.8z"/>
			<path id="path2390" class="st0" d="M327.7,41.3l-0.4,0l-0.3,0.2l-0.3,0.2l-0.2,0.3l-0.2,0.3l-0.1,0.3l-0.1,0.4h2.7l0-0.3
				l-0.1-0.3l-0.1-0.3l-0.2-0.2l-0.2-0.2l-0.3-0.2L327.7,41.3z M326.2,43.5v0.1l0,0.3l0.1,0.3l0.1,0.3l0.2,0.3l0.2,0.2l0.2,0.2
				l0.3,0.1l0.3,0l0.3,0l0.3-0.1l0.2-0.2l0.2-0.2l0.1-0.3l0.1-0.3h0.8l-0.1,0.5l-0.2,0.4l-0.3,0.3l-0.3,0.3l-0.4,0.2l-0.4,0.1
				l-0.5,0l-0.5,0l-0.4-0.1l-0.4-0.2l-0.3-0.2l-0.3-0.3l-0.2-0.4l-0.1-0.4l-0.1-0.4l0-0.5l0-0.5l0.1-0.5l0.1-0.4l0.2-0.4l0.3-0.3
				l0.3-0.3l0.4-0.2l0.4-0.1l0.5,0l0.5,0l0.4,0.1l0.3,0.2l0.3,0.3l0.2,0.3l0.2,0.3l0.1,0.4l0.1,0.4l0,0.4l0,0.4L326.2,43.5
				L326.2,43.5z"/>
			<polygon id="polygon2392" class="st0" points="334.1,45.8 334.1,45 333.8,45.4 333.5,45.6 333.2,45.8 332.9,45.9 332.5,45.9 
				332,45.9 331.7,45.8 331.3,45.6 331.1,45.4 330.9,45.1 330.8,44.7 330.7,44.4 330.7,43.9 330.7,40.8 331.6,40.8 331.6,43.9 
				331.6,44.1 331.6,44.4 331.7,44.6 331.8,44.8 331.9,45 332.1,45.1 332.4,45.2 332.7,45.2 333.1,45.2 333.4,45.1 333.6,44.9 
				333.8,44.7 333.9,44.4 334,44.1 334,43.8 334.1,43.4 334.1,40.8 334.9,40.8 334.9,44.5 334.9,45.8 			"/>
			<polygon id="polygon2394" class="st0" points="337.7,45.9 337.3,45.9 337.1,45.8 336.8,45.6 336.6,45.4 336.6,45.1 336.5,44.7 
				336.5,41.4 335.5,41.4 335.5,40.8 336.5,40.8 336.5,39.8 337.4,39.4 337.4,40.8 338.5,40.8 338.5,41.4 337.4,41.4 337.4,44.6 
				337.4,44.8 337.5,45 337.6,45.1 337.8,45.2 338,45.2 338.5,45.2 338.5,45.8 338.1,45.9 			"/>
			<polygon id="polygon2396" class="st0" points="340.9,45.9 340.5,45.9 340.2,45.9 339.8,45.7 339.5,45.6 339.3,45.3 339.1,45.1 
				339,44.7 339,44.3 339.8,44.3 339.8,44.6 340,44.9 340.1,45.1 340.3,45.2 340.6,45.3 340.9,45.3 341.2,45.3 341.4,45.2 
				341.7,45.1 341.8,44.9 342,44.7 342,44.5 342,44.3 341.9,44 341.8,43.9 341.6,43.8 341.3,43.7 340.9,43.6 340.6,43.5 340.3,43.4 
				340,43.3 339.8,43.2 339.6,43 339.4,42.9 339.2,42.7 339.1,42.4 339.1,42.1 339.1,41.7 339.3,41.4 339.5,41.2 339.7,41 340,40.8 
				340.3,40.7 340.6,40.7 341,40.6 341.3,40.7 341.7,40.7 341.9,40.8 342.2,41 342.4,41.2 342.6,41.5 342.7,41.8 342.8,42.2 
				341.9,42.2 341.8,41.9 341.7,41.6 341.5,41.4 341.3,41.3 340.9,41.2 340.7,41.3 340.5,41.3 340.3,41.4 340.1,41.6 340,41.8 
				339.9,42 340,42.2 340,42.4 340.2,42.5 340.4,42.6 340.7,42.8 341.1,42.9 341.4,42.9 341.7,43 341.9,43.1 342.2,43.2 342.4,43.4 
				342.6,43.6 342.7,43.8 342.8,44 342.9,44.4 342.8,44.7 342.7,45 342.6,45.3 342.4,45.5 342.1,45.7 341.8,45.8 341.5,45.9 
				341.2,45.9 			"/>
			<polygon id="polygon2398" class="st0" points="345.9,45.9 345.4,45.9 344.9,45.8 344.6,45.6 344.2,45.4 344,45.1 343.7,44.7 
				343.6,44.3 343.5,43.8 343.5,43.3 343.5,42.8 343.6,42.4 343.7,41.9 344,41.6 344.2,41.2 344.6,41 344.9,40.8 345.4,40.6 
				345.9,40.6 346.3,40.6 346.7,40.7 347,40.8 347.3,41 347.5,41.3 347.7,41.6 347.8,42 347.9,42.4 347.1,42.4 347,42 346.9,41.8 
				346.7,41.5 346.5,41.4 346.2,41.3 345.9,41.2 345.5,41.3 345.2,41.4 345,41.5 344.8,41.8 344.6,42 344.5,42.3 344.4,42.6 
				344.4,43 344.4,43.3 344.4,43.6 344.4,43.9 344.5,44.3 344.6,44.5 344.8,44.8 345,45 345.2,45.2 345.5,45.3 345.9,45.3 
				346.2,45.3 346.5,45.2 346.7,45 346.9,44.8 347,44.5 347.1,44.1 347.9,44.1 347.9,44.5 347.7,44.9 347.5,45.2 347.3,45.5 
				347,45.7 346.6,45.8 346.3,45.9 			"/>
			<polygon id="polygon2400" class="st0" points="352.1,45.8 352.1,42.7 352.1,42.4 352.1,42.2 352,41.9 351.9,41.7 351.7,41.6 
				351.5,41.4 351.3,41.4 351,41.4 350.6,41.4 350.4,41.5 350.1,41.7 349.9,41.9 349.8,42.2 349.7,42.5 349.7,42.8 349.6,43.1 
				349.6,45.8 348.8,45.8 348.8,38.5 349.6,38.5 349.6,41.5 349.9,41.2 350.1,41 350.5,40.8 350.8,40.7 351.2,40.7 351.7,40.7 
				352,40.8 352.3,41 352.6,41.2 352.8,41.5 352.9,41.8 352.9,42.2 353,42.7 353,45.8 			"/>
			<path id="path2402" class="st0" d="M356.2,41.3l-0.4,0l-0.3,0.2l-0.2,0.2l-0.2,0.3l-0.2,0.3l-0.1,0.3l-0.1,0.4h2.7l0-0.3
				l-0.1-0.3l-0.1-0.3l-0.2-0.2l-0.2-0.2l-0.3-0.2L356.2,41.3z M354.8,43.5v0.1l0,0.3l0.1,0.3l0.1,0.3l0.2,0.3l0.2,0.2l0.2,0.2
				l0.3,0.1l0.3,0l0.3,0l0.3-0.1l0.2-0.2l0.2-0.2l0.1-0.3l0.1-0.3h0.8l-0.1,0.5l-0.2,0.4l-0.3,0.3l-0.3,0.3l-0.4,0.2l-0.4,0.1
				l-0.5,0l-0.5,0l-0.4-0.1l-0.4-0.2l-0.3-0.2l-0.3-0.3l-0.2-0.4l-0.1-0.4l-0.1-0.4l0-0.5l0-0.5l0.1-0.5l0.1-0.4l0.2-0.4l0.3-0.3
				l0.3-0.3l0.4-0.2l0.4-0.1l0.5,0l0.5,0l0.4,0.1l0.3,0.2l0.3,0.3l0.2,0.3l0.2,0.3l0.1,0.4l0.1,0.4l0,0.4l0,0.4L354.8,43.5
				L354.8,43.5z"/>
			<path id="path2404" class="st0" d="M364,42.4h-1.5v2.7h1.5l0.3,0l0.3,0l0.3-0.1l0.2-0.1l0.2-0.1l0.2-0.2l0.1-0.2l0.1-0.3l0-0.3
				l0-0.4l-0.1-0.3l-0.2-0.3l-0.2-0.2l-0.3-0.1l-0.3-0.1l-0.3,0L364,42.4z M364,39.3h-1.5v2.4h1.3l0.3,0l0.3,0l0.2-0.1l0.2-0.1
				l0.2-0.2l0.2-0.2l0.1-0.3l0-0.3l0-0.3l-0.1-0.3l-0.2-0.2l-0.2-0.2l-0.2-0.1l-0.3-0.1L364,39.3z M363.9,45.8h-2.4v-7.3h2.5l0.4,0
				l0.3,0.1l0.4,0.1l0.3,0.1l0.3,0.2l0.2,0.2l0.2,0.3l0.1,0.3l0,0.4l0,0.4l-0.1,0.4l-0.2,0.3l-0.3,0.2l-0.3,0.2L365,42l0.4,0.1
				l0.4,0.1l0.3,0.2l0.2,0.3l0.2,0.3l0.1,0.4l0,0.4l0,0.5l-0.1,0.4l-0.2,0.3l-0.2,0.3l-0.3,0.2l-0.3,0.2l-0.4,0.1l-0.4,0.1l-0.4,0
				L363.9,45.8z"/>
			<path id="path2406" class="st0" d="M370.1,43.3h-0.3l-0.2,0l-0.3,0l-0.3,0.1l-0.3,0.1l-0.2,0.1l-0.2,0.1l-0.2,0.2l-0.1,0.2l0,0.3
				l0,0.3l0.1,0.2l0.2,0.2l0.2,0.1l0.3,0.1l0.3,0l0.3,0l0.3-0.1l0.2-0.1l0.2-0.2l0.1-0.2l0.1-0.2l0.1-0.3l0-0.3l0-0.3v-0.3h-0.2
				l-0.1,0L370.1,43.3L370.1,43.3z M370.7,45.8l-0.1-0.7l-0.3,0.3l-0.3,0.2l-0.3,0.2l-0.4,0.1l-0.4,0l-0.3,0l-0.3-0.1l-0.3-0.1
				l-0.3-0.2l-0.2-0.2l-0.2-0.3l-0.1-0.3l0-0.4l0-0.4l0.1-0.3l0.2-0.3l0.2-0.2l0.3-0.2l0.3-0.1l0.3-0.1l0.3-0.1l0.4,0l0.3,0h0.3
				l0.3,0h0.2v-0.3l0-0.3l-0.1-0.3l-0.1-0.2l-0.1-0.2l-0.2-0.1l-0.2-0.1l-0.3,0l-0.3,0l-0.3,0.1l-0.2,0.1l-0.2,0.2l-0.1,0.2
				l-0.1,0.3h-0.9l0.1-0.4l0.1-0.3l0.2-0.3l0.2-0.2l0.3-0.2l0.3-0.1l0.3-0.1l0.3,0l0.4,0l0.4,0.1l0.3,0.1l0.3,0.2l0.2,0.2l0.2,0.3
				l0.1,0.4l0,0.5v1.9l0,0.5l0,0.4l0,0.3l0.1,0.2L370.7,45.8L370.7,45.8z"/>
			<polygon id="polygon2408" class="st0" points="375.8,45.8 375.8,42.7 375.8,42.4 375.8,42.2 375.7,42 375.6,41.8 375.4,41.6 
				375.2,41.5 375,41.4 374.7,41.4 374.4,41.4 374.1,41.5 373.8,41.7 373.7,41.9 373.5,42.1 373.4,42.4 373.4,42.7 373.3,43 
				373.3,43.3 373.3,45.8 372.5,45.8 372.5,41.7 372.4,41.3 372.4,41 372.4,40.7 373.3,40.7 373.3,41.6 373.6,41.2 373.8,41 
				374.2,40.8 374.5,40.7 374.9,40.7 375.4,40.7 375.7,40.8 376,41 376.3,41.2 376.5,41.5 376.6,41.8 376.7,42.2 376.7,42.7 
				376.7,45.8 			"/>
			<path id="path2410" class="st0" d="M381.1,45.8l-2.4-2.9l2.2-2.2h1.1l-2.3,2.2l2.5,2.9L381.1,45.8L381.1,45.8z M377.9,45.8v-7.3
				h0.8v7.3H377.9z"/>
		</g>
	</g>
</g>
</svg>
