<?xml version="1.0" encoding="utf-8"?>
<!-- Generator: Adobe Illustrator 26.0.1, SVG Export Plug-In . SVG Version: 6.00 Build 0)  -->
<svg version="1.1" id="Layer_1" xmlns="http://www.w3.org/2000/svg" xmlns:xlink="http://www.w3.org/1999/xlink" x="0px" y="0px"
	 viewBox="0 0 95 35" style="enable-background:new 0 0 95 35;" xml:space="preserve">
<style type="text/css">
	.st0{fill-rule:evenodd;clip-rule:evenodd;fill:#FFFFFF;}
</style>
<g>
	<path class="st0" d="M17.7,17L17.7,17l-2.1,0.9l-0.1,0l-0.5,2.3c0,0.1-0.1,0.1-0.2,0l-1.5-1.8l0,0l-8.5,3.6c-0.1,0-0.1-0.1-0.1-0.1
		l7.4-5.5l-0.9-2.1c0-0.1,0-0.2,0.2-0.2l2.3,0.6l1.7-1.6c0.1-0.1,0.2,0,0.2,0.1l0.2,2.3l2,1.2C17.9,16.9,17.8,17,17.7,17L17.7,17z
		 M16.7,10.3c-2.6-1-5.5-0.2-7.3,1.7l-6.9,7.4c-0.1,0.1-0.1,0.2,0.1,0.2l1.8,0.1c0.2,0,0.2,0.1,0.1,0.2L0,24.9C0,25,0,25.1,0.2,25.1
		l6.4-2c0.1-0.1,0.2,0.1,0.2,0.2l-0.9,1.5c0,0.1,0,0.2,0.2,0.2l9.3-2.1c2.2-0.3,4.2-1.8,5.1-4.1C21.7,15.5,20.1,11.7,16.7,10.3
		L16.7,10.3z"/>
	<polyline class="st0" points="41.6,21.6 39.5,21.6 41.1,13.9 43.4,13 41.6,21.6 	"/>
	<path class="st0" d="M37,17.2c-0.5,0-0.8,0.4-0.9,0.9c1,0,1.3-0.3,1.3-0.6C37.4,17.3,37.3,17.2,37,17.2 M35.9,19.4
		c0,0.1,0,0.2,0,0.2c0,0.3,0.2,0.5,0.9,0.5c0.6,0,1.3-0.1,1.8-0.3v1.6c-0.6,0.2-1.5,0.3-2.3,0.3c-1.7,0-2.6-0.5-2.6-2.1
		c0-1.6,0.7-4,3.5-4c1.8,0,2.3,0.8,2.3,1.6C39.5,18.4,38.6,19.3,35.9,19.4"/>
	<path class="st0" d="M45.4,15.4c-0.7,0-1.2-0.5-1.2-1.1c0-0.8,0.6-1.3,1.3-1.3c0.7,0,1.2,0.5,1.2,1.1C46.7,15,46.1,15.4,45.4,15.4"
		/>
	<polyline class="st0" points="43.9,15.9 46.1,15.9 45,21.5 42.8,21.5 43.6,17.6 	"/>
	<path class="st0" d="M52.4,15.9c-0.8,1.9-1.6,3.7-2.6,5.6H47c-0.3-1.8-0.5-3.7-0.5-5.6h2.2c0,0.9,0,1.8,0,2.8c0,0.2,0,0.5,0.1,0.7
		h0c0.1-0.2,0.2-0.5,0.3-0.7c0.4-0.9,0.7-1.9,1-2.8H52.4"/>
	<path class="st0" d="M55.3,17.2c-0.5,0-0.8,0.4-0.9,0.9c1,0,1.3-0.3,1.3-0.6C55.7,17.3,55.5,17.2,55.3,17.2 M54.2,19.4
		c0,0.1,0,0.1,0,0.2c0,0.3,0.2,0.5,0.9,0.5c0.6,0,1.3-0.1,1.8-0.3v1.6c-0.6,0.2-1.5,0.3-2.3,0.3c-1.7,0-2.6-0.5-2.6-2.1
		c0-1.6,0.7-4,3.5-4c1.8,0,2.3,0.8,2.3,1.6C57.8,18.4,56.8,19.3,54.2,19.4"/>
	<path class="st0" d="M62,17.9c-0.2,0-0.3-0.1-0.5-0.1c-0.5,0-0.9,0.5-1,1.4L60,21.6h-2.2l1.1-5.6h1.7l0.1,0.8
		c0.5-0.6,0.9-0.9,1.5-0.9c0.3,0,0.4,0,0.5,0L62,17.9"/>
	<path class="st0" d="M68.9,15.9c-1,2.5-1.8,4.4-2.7,5.6c-1.3,1.9-2.4,2.3-3.5,2.3c-0.3,0-0.7-0.1-0.9-0.2l0.3-1.6H63
		c0.4,0,0.5-0.2,0.8-0.5c-0.4-1.5-0.6-3.6-0.6-5.6h2.2c0,0.9,0,1.8,0,2.7c0,0.2,0,0.5,0.1,0.7h0c0.1-0.2,0.2-0.5,0.3-0.7
		c0.4-0.9,0.7-1.8,0.9-2.8L68.9,15.9"/>
	<polyline class="st0" points="77.3,21.5 75,21.5 75.6,18.7 73.6,18.7 73,21.5 70.7,21.5 72.2,14 74.5,14 74,16.7 75.9,16.7 
		76.5,14 78.8,14 77.3,21.5 	"/>
	<path class="st0" d="M81.9,17.2c-0.5,0-0.8,0.4-0.9,0.9c1,0,1.3-0.3,1.3-0.6C82.3,17.3,82.1,17.2,81.9,17.2 M80.7,19.4
		c0,0.1,0,0.1,0,0.2c0,0.3,0.2,0.5,0.9,0.5c0.6,0,1.4-0.1,1.8-0.3v1.6c-0.6,0.2-1.5,0.3-2.3,0.3c-1.7,0-2.6-0.5-2.6-2.1
		c0-1.6,0.7-4,3.5-4c1.8,0,2.3,0.8,2.3,1.6C84.3,18.4,83.4,19.3,80.7,19.4"/>
	<path class="st0" d="M88.6,17.9c-0.2,0-0.3-0.1-0.5-0.1c-0.5,0-0.9,0.5-1,1.4l-0.5,2.3h-2.2l1.1-5.6h1.7l0.1,0.8
		c0.5-0.6,0.9-0.9,1.5-0.9c0.3,0,0.4,0,0.5,0L88.6,17.9"/>
	<path class="st0" d="M92.2,17.4c-0.9,0-1.1,1.3-1.1,2c0,0.5,0.2,0.6,0.6,0.6c0.9,0,1.1-1.3,1.1-2C92.8,17.6,92.6,17.4,92.2,17.4
		 M91.4,21.7c-1.7,0-2.5-0.7-2.5-2.2c0-1.6,0.8-3.8,3.6-3.8c1.7,0,2.5,0.8,2.5,2.2C95,19.6,94.2,21.7,91.4,21.7"/>
	<path class="st0" d="M29,19.7h-0.4l0.8-4h0.6c0.9,0,1.3,0.5,1.3,1.3C31.2,18.6,30.3,19.7,29,19.7 M31,15.9l1.5-1.4
		c-0.6-0.3-1.3-0.5-2.3-0.5h-2.8l-1.5,7.5h2.9c3.4,0,4.7-2.4,4.7-4.8c0-0.6-0.1-1.2-0.4-1.6L31,15.9"/>
</g>
</svg>
