<?xml version="1.0" encoding="utf-8"?>
<!-- Generator: Adobe Illustrator 26.0.1, SVG Export Plug-In . SVG Version: 6.00 Build 0)  -->
<svg version="1.1" id="Layer_1" xmlns="http://www.w3.org/2000/svg" xmlns:xlink="http://www.w3.org/1999/xlink" x="0px" y="0px"
	 viewBox="0 0 95 35" style="enable-background:new 0 0 95 35;" xml:space="preserve">
<style type="text/css">
	.st0{fill-rule:evenodd;clip-rule:evenodd;fill:#CCCCCC;}
</style>
<g id="g3428" transform="matrix(4.0016649,0,0,4.0016649,-1291.321,-1349.521)">
	<path id="path3344" class="st0" d="M343.8,342.8c-1.7,0-2.4-1.5-2.3-2.7l0.5-0.2c-0.1,0.7,0.1,1.1,0.3,1.3
		c-0.2-0.9,0.5-1.7,1.4-1.7c0.8,0,1.4,0.6,1.4,1.4c0.1-0.3,0.2-0.8,0.2-1.1l1.2,0.3C346.3,341.6,345.3,342.8,343.8,342.8z
		 M345.5,343.6l-0.7-0.7h0.7l0.7,0.7H345.5L345.5,343.6z M344.6,343.6l-0.7-0.7h0.7l0.7,0.7H344.6L344.6,343.6z M343.1,343.6h-0.7
		l0.7-0.7h0.7L343.1,343.6L343.1,343.6z M341.5,343.6l0.7-0.7h0.7l-0.7,0.7H341.5L341.5,343.6z M343.6,340.1c-0.5,0-0.9,0.4-0.9,0.9
		c0,0.5,0.4,0.9,0.9,0.9c0.5,0,0.9-0.4,0.9-0.9C344.6,340.5,344.1,340.1,343.6,340.1"/>
	<path id="path3346" class="st0" d="M340.1,342.9c-0.3,0-0.5-0.2-0.5-0.5v-0.8h-0.3v-0.3h0.3v-0.3l0.4-0.1v0.4h0.3v0.3H340v0.7
		c0,0.1,0,0.2,0.2,0.2c0.1,0,0.1,0,0.2,0l0,0.3C340.3,342.9,340.2,342.9,340.1,342.9L340.1,342.9z M338.6,342.9
		c-0.1,0-0.3,0-0.4-0.1l0-0.3c0.1,0.1,0.2,0.1,0.4,0.1c0.1,0,0.3,0,0.3-0.2c0-0.3-0.7-0.1-0.7-0.6c0-0.3,0.3-0.5,0.6-0.5
		c0.2,0,0.3,0,0.4,0.1l0,0.3c-0.1,0-0.2-0.1-0.3-0.1c-0.1,0-0.2,0-0.2,0.2c0,0.2,0.7,0.1,0.7,0.6
		C339.2,342.8,338.9,342.9,338.6,342.9L338.6,342.9z M337.2,342.9c-0.5,0-0.8-0.3-0.8-0.8c0-0.5,0.3-0.8,0.8-0.8
		c0.4,0,0.8,0.3,0.8,0.8C338,342.6,337.7,342.9,337.2,342.9L337.2,342.9z M335.7,342.1h-0.2v0.8h-0.4v-2h0.5c0.4,0,0.8,0.1,0.8,0.6
		C336.4,342,336.1,342.1,335.7,342.1L335.7,342.1z M333.7,342.7c0.2,0,0.3-0.1,0.5-0.1v0.3c-0.1,0.1-0.3,0.1-0.5,0.1
		c-0.5,0-0.8-0.3-0.8-0.8c0-0.4,0.2-0.8,0.7-0.8c0.5,0,0.7,0.4,0.7,0.9h-1C333.3,342.5,333.4,342.7,333.7,342.7L333.7,342.7z
		 M332.7,342.9h-0.4v-0.8c0-0.2,0-0.4-0.2-0.4c-0.3,0-0.3,0.3-0.3,0.5v0.7h-0.4v-2.1h0.4v0.9h0c0.1-0.1,0.3-0.2,0.5-0.2
		c0.3,0,0.5,0.2,0.5,0.6V342.9z M330.8,342.9c-0.5,0-0.7-0.3-0.7-0.8c0-0.4,0.3-0.8,0.7-0.8c0.2,0,0.3,0,0.4,0l0,0.3
		c-0.1,0-0.1-0.1-0.3-0.1c-0.2,0-0.4,0.2-0.4,0.5c0,0.3,0.1,0.5,0.4,0.5c0.1,0,0.2,0,0.3-0.1l0,0.3
		C331,342.9,330.9,342.9,330.8,342.9L330.8,342.9z M329.3,342.9c-0.1,0-0.3,0-0.4-0.1l0-0.3c0.1,0.1,0.2,0.1,0.4,0.1
		c0.1,0,0.3,0,0.3-0.2c0-0.3-0.7-0.1-0.7-0.6c0-0.3,0.3-0.5,0.6-0.5c0.2,0,0.3,0,0.4,0.1l0,0.3c-0.1,0-0.2-0.1-0.3-0.1
		c-0.1,0-0.2,0-0.2,0.2c0,0.2,0.7,0.1,0.7,0.6C329.9,342.8,329.6,342.9,329.3,342.9L329.3,342.9z M328.4,342.9
		c-0.3,0-0.5-0.2-0.5-0.5v-0.8h-0.3v-0.3h0.3v-0.3l0.4-0.1v0.4h0.3v0.3h-0.3v0.7c0,0.1,0,0.2,0.2,0.2c0.1,0,0.1,0,0.2,0l0,0.3
		C328.6,342.9,328.5,342.9,328.4,342.9L328.4,342.9z M327.5,342.9h-0.4v-0.2h0c-0.1,0.1-0.3,0.2-0.5,0.2c-0.3,0-0.5-0.2-0.5-0.6
		v-0.9h0.4v0.8c0,0.2,0,0.4,0.2,0.4c0.3,0,0.3-0.3,0.3-0.5v-0.7h0.4V342.9z M325.3,342.7c0.2,0,0.3-0.1,0.5-0.1v0.3
		c-0.1,0.1-0.3,0.1-0.5,0.1c-0.5,0-0.8-0.3-0.8-0.8c0-0.4,0.2-0.8,0.7-0.8c0.5,0,0.7,0.4,0.7,0.9h-1
		C324.9,342.5,325.1,342.7,325.3,342.7L325.3,342.7z M323.2,342.9h-0.5v-2h0.5c0.6,0,1.2,0.2,1.2,1
		C324.4,342.7,323.9,342.9,323.2,342.9L323.2,342.9z M325.3,341.7c-0.2,0-0.3,0.1-0.3,0.3h0.7C325.6,341.8,325.5,341.7,325.3,341.7z
		 M323.3,341.2h-0.2v1.4h0.2c0.3,0,0.7-0.2,0.7-0.7C324,341.5,323.7,341.2,323.3,341.2z M335.6,341.2h-0.1v0.6h0.1
		c0.2,0,0.4-0.1,0.4-0.3C336,341.3,335.9,341.2,335.6,341.2z M337.2,341.7c-0.2,0-0.4,0.2-0.4,0.4c0,0.2,0.1,0.5,0.4,0.5
		c0.3,0,0.4-0.3,0.4-0.5C337.6,341.9,337.5,341.7,337.2,341.7z M333.6,341.7c-0.2,0-0.3,0.1-0.3,0.3h0.7
		C333.9,341.8,333.8,341.7,333.6,341.7"/>
</g>
</svg>
