<?xml version="1.0" encoding="utf-8"?>
<!-- Generator: Adobe Illustrator 26.0.1, SVG Export Plug-In . SVG Version: 6.00 Build 0)  -->
<svg version="1.1" id="Layer_1" xmlns="http://www.w3.org/2000/svg" xmlns:xlink="http://www.w3.org/1999/xlink" x="0px" y="0px"
	 viewBox="0 0 95 35" style="enable-background:new 0 0 95 35;" xml:space="preserve">
<style type="text/css">
	.st0{fill-rule:evenodd;clip-rule:evenodd;fill:#343741;}
</style>
<g>
	<path class="st0" d="M2.6,20.6l1.2-0.3L5,25.6l-2.5,0.5v6.7h32.8V18.5l-5,1.2l-1.2-5.3l5.2-1.2l0.9,4v-17H2.6V20.6L2.6,20.6z
		 M23.5,4.4l4.4,19.3c0.6,2.7,1.3,3.5,2.9,3.5c0.6,0,1.1-0.1,2.5-0.4l0.3,1.5l-12.8,3l-0.3-1.5c3-0.7,3.7-1.3,3.7-3
		c0-0.6,0-0.9-0.3-2.1L19.4,5.3c-3.7,0.9-5.6,3.5-5.6,7.5c0,0.7,0,1.2,0.2,2.4l-1.4,0.1L10.7,6l20.8-4.9l2.4,9.2l-1.3,0.6
		c-1.5-4.6-3.9-6.8-7.3-6.8C24.7,4.1,24.3,4.2,23.5,4.4L23.5,4.4z M14.6,23.4l-1.2-5.3l5.3-1.2l1.2,5.3L14.6,23.4z"/>
	<path class="st0" d="M44,29.4c-0.3,2.1-1,2.8-2.6,2.8c-0.5,0-0.8-0.1-0.9-0.4c-0.1-0.2-0.1-0.3-0.1-0.8v-5.2c0-0.7,0-0.9,0.2-1.1
		c0.1-0.1,0.4-0.2,0.7-0.2h0.2v-0.4h-3.3v0.4h0.2c0.3,0,0.6,0.1,0.7,0.2c0.2,0.2,0.2,0.4,0.2,1.1V31c0,0.7,0,0.9-0.2,1.1
		c-0.1,0.1-0.4,0.2-0.7,0.2h-0.2v0.4h6.1l0.1-3.3L44,29.4L44,29.4z M49.7,29.7c-0.1-1.9-1-3.1-2.4-3.1c-1.3,0-2.3,1.3-2.3,3.1
		c0,1.9,1,3.2,2.4,3.2c1,0,1.6-0.5,2.2-1.6l-0.4-0.2c-0.4,0.9-0.9,1.3-1.6,1.3c-1,0-1.4-0.8-1.5-2.7L49.7,29.7L49.7,29.7z
		 M46.2,29.3c0-1.3,0.5-2.2,1.2-2.2s1.1,0.8,1.1,2.2H46.2z M52.4,26.7l-1.9,0.1v0.4h0.1c0.5,0,0.7,0.2,0.7,1v3c0,0.8-0.1,1-0.7,1
		h-0.2v0.4h2.8v-0.4h-0.2c-0.5,0-0.7-0.2-0.7-1L52.4,26.7L52.4,26.7z M51.8,24.1c-0.4,0-0.7,0.3-0.7,0.7c0,0.4,0.3,0.7,0.7,0.7
		c0.4,0,0.7-0.3,0.7-0.7C52.5,24.4,52.2,24.1,51.8,24.1z M57.7,26.8h-0.4c0,0.2-0.1,0.3-0.2,0.3c-0.1,0-0.1,0-0.2-0.1
		c-0.4-0.2-0.8-0.3-1.2-0.3c-1,0-1.7,0.7-1.7,1.6c0,0.8,0.5,1.4,1.5,1.7c0.8,0.3,0.8,0.3,1.1,0.5c0.3,0.2,0.5,0.5,0.5,0.9
		c0,0.6-0.4,1-1,1c-0.5,0-1-0.3-1.3-0.7c-0.2-0.3-0.3-0.6-0.5-1.2h-0.4v2.2h0.4l0-0.1c0.1-0.2,0.1-0.3,0.2-0.3c0,0,0.1,0,0.1,0.1
		c0.6,0.4,0.9,0.5,1.4,0.5c1.1,0,1.9-0.8,1.9-1.9c0-0.6-0.2-1-0.7-1.4c-0.3-0.2-0.6-0.4-1.4-0.6c-0.8-0.3-1.1-0.5-1.1-1
		c0-0.5,0.4-0.9,1-0.9c0.8,0,1.3,0.5,1.5,1.6h0.4V26.8L57.7,26.8z M60.5,27.2h1.7v-0.4h-1.7v-2.2h-0.4c-0.2,1.5-0.5,2-1.6,2.3v0.4
		h0.9v3.6c0,0.9,0.1,1.3,0.4,1.6c0.2,0.3,0.6,0.4,1.1,0.4c1,0,1.5-0.7,1.5-1.9v-0.2H62v0.2c0,0.9-0.3,1.4-0.8,1.4
		c-0.3,0-0.5-0.2-0.6-0.5c-0.1-0.2-0.1-0.5-0.1-1L60.5,27.2L60.5,27.2L60.5,27.2z M66.9,32.8l1.8-0.1v-0.4h-0.1
		c-0.5,0-0.7-0.2-0.7-1v-4.5L66,26.8v0.4h0.2c0.5,0,0.7,0.2,0.7,1v1.6c0,0.7-0.1,1.2-0.3,1.6c-0.3,0.5-0.7,0.8-1.1,0.8
		c-0.3,0-0.5-0.2-0.6-0.4c-0.1-0.2-0.2-0.5-0.2-1.1v-4.1l-1.9,0.1v0.4h0.1c0.5,0,0.7,0.2,0.7,1v2.2c0,1,0.1,1.4,0.3,1.8
		c0.2,0.4,0.7,0.6,1.2,0.6c0.8,0,1.4-0.4,1.9-1.4V32.8L66.9,32.8z M73.4,32.7h1.9v-0.4h-0.1c-0.5,0-0.7-0.2-0.7-1v-2.1
		c0-1.1-0.1-1.6-0.4-2c-0.3-0.3-0.7-0.6-1.2-0.6c-0.8,0-1.3,0.4-1.7,1.3v-1.3l-1.8,0.1v0.4h0.1c0.5,0,0.7,0.2,0.7,1v3
		c0,0.8-0.1,1-0.7,1h-0.2v0.4H72v-0.4h-0.2c-0.5,0-0.7-0.2-0.7-1v-1.4c0-0.9,0.1-1.4,0.3-1.9c0.2-0.5,0.6-0.8,1.1-0.8
		c0.3,0,0.5,0.1,0.7,0.4c0.2,0.3,0.2,0.5,0.2,1.3L73.4,32.7L73.4,32.7z M79.7,26.4c0,0.1-0.1,0.1-0.1,0.2c0,0.3,0.2,0.4,0.5,0.4
		c0.3,0,0.5-0.2,0.5-0.5c0-0.4-0.3-0.6-0.7-0.6c-0.5,0-0.8,0.3-0.9,0.9c-0.3-0.1-0.6-0.2-1-0.2c-1.2,0-2.1,0.9-2.1,1.9
		c0,0.8,0.5,1.4,1.3,1.7c-0.7,0.2-1.1,0.5-1.1,1c0,0.5,0.3,0.8,1.1,1c-1,0.2-1.6,0.7-1.6,1.3c0,0.8,0.9,1.4,2.2,1.4
		c1.6,0,2.8-0.8,2.8-2c0-0.5-0.2-0.9-0.6-1.1c-0.4-0.2-0.8-0.3-1.9-0.5c-0.9-0.1-1.1-0.2-1.1-0.5c0-0.3,0.2-0.4,0.9-0.4
		c0.6,0,0.8-0.1,1.2-0.3c0.6-0.3,1-1,1-1.7c0-0.6-0.2-1-0.7-1.4C79.4,26.7,79.5,26.4,79.7,26.4L79.7,26.4L79.7,26.4L79.7,26.4z
		 M77.8,32.3c0.6,0.1,0.7,0.1,0.9,0.1c0.7,0.2,0.9,0.4,0.9,0.9c0,0.7-0.7,1.2-1.6,1.2c-0.9,0-1.4-0.4-1.4-1.1
		C76.6,33,77,32.6,77.8,32.3L77.8,32.3z M78,27c0.7,0,1,0.5,1,1.6c0,1-0.3,1.5-1,1.5c-0.7,0-1-0.5-1-1.5C77,27.6,77.4,27,78,27z
		 M85.7,29.7c-0.1-1.9-1-3.1-2.4-3.1c-1.3,0-2.3,1.3-2.3,3.1c0,1.9,1,3.2,2.4,3.2c1,0,1.6-0.5,2.2-1.6l-0.4-0.2
		c-0.4,0.9-0.9,1.3-1.6,1.3c-1,0-1.4-0.8-1.5-2.7L85.7,29.7L85.7,29.7z M82.2,29.3c0-1.3,0.5-2.2,1.2-2.2c0.7,0,1.1,0.8,1.1,2.2
		H82.2L82.2,29.3z M90.6,32.7h1.9v-0.4h-0.1c-0.5,0-0.7-0.2-0.7-1v-2.1c0-1.1-0.1-1.6-0.4-2c-0.3-0.3-0.7-0.6-1.2-0.6
		c-0.8,0-1.3,0.4-1.7,1.3v-1.3l-1.8,0.1v0.4h0.1c0.5,0,0.7,0.2,0.7,1v3c0,0.8-0.1,1-0.7,1h-0.2v0.4h2.8v-0.4H89
		c-0.5,0-0.7-0.2-0.7-1v-1.4c0-0.9,0.1-1.4,0.3-1.9c0.2-0.5,0.6-0.8,1.1-0.8c0.3,0,0.5,0.1,0.7,0.4c0.2,0.3,0.2,0.5,0.2,1.3
		L90.6,32.7L90.6,32.7z M41.8,12.5H42c1.2,0,1.8,0.7,2.1,2.6l0.4,0l-0.1-3h-6.3l-0.1,3l0.4,0c0.1-0.7,0.1-1.1,0.3-1.5
		c0.3-0.7,0.9-1.1,1.7-1.1h0.3V19c0,0.7,0,0.9-0.2,1.1c-0.1,0.1-0.4,0.2-0.7,0.2h-0.3v0.4H43v-0.4h-0.3c-0.3,0-0.6-0.1-0.7-0.2
		c-0.2-0.2-0.2-0.4-0.2-1.1L41.8,12.5L41.8,12.5z M49,17.7c-0.1-1.9-1-3.1-2.4-3.1c-1.3,0-2.3,1.3-2.3,3.1c0,1.9,1,3.2,2.4,3.2
		c1,0,1.6-0.5,2.2-1.6L48.6,19c-0.4,0.9-0.9,1.3-1.6,1.3c-1,0-1.4-0.8-1.5-2.7H49z M45.5,17.2c0-1.3,0.5-2.2,1.2-2.2
		c0.7,0,1.1,0.8,1.1,2.2H45.5z M51.4,12l-1.9,0.1v0.4h0.1c0.5,0,0.7,0.2,0.7,1v5.7c0,0.9-0.1,1-0.7,1h-0.2v0.4h2.8v-0.4h-0.2
		c-0.5,0-0.7-0.2-0.7-1L51.4,12L51.4,12z M57.4,17.7c-0.1-1.9-1-3.1-2.4-3.1c-1.3,0-2.3,1.3-2.3,3.1c0,1.9,1,3.2,2.4,3.2
		c1,0,1.6-0.5,2.2-1.6L57,19c-0.4,0.9-0.9,1.3-1.6,1.3c-1,0-1.4-0.8-1.5-2.7H57.4z M53.9,17.2c0-1.3,0.5-2.2,1.2-2.2
		c0.7,0,1.1,0.8,1.1,2.2H53.9z M63.8,20.7v-0.4h-0.1c-0.4,0-0.7-0.2-1-0.8L61.1,17l1.4-1.3c0.5-0.5,0.7-0.6,1.1-0.6h0.1v-0.4h-2.5
		v0.4h0.2c0.4,0,0.6,0.1,0.6,0.3c0,0.2-0.1,0.4-0.4,0.6l-1.7,1.5V12L58,12.1v0.4h0.1c0.5,0,0.7,0.2,0.7,1v5.7c0,0.8-0.1,1-0.7,1
		h-0.2v0.4h2.8v-0.4h-0.2c-0.5,0-0.7-0.2-0.7-1v-1.1l0.5-0.4l1.8,3L63.8,20.7L63.8,20.7L63.8,20.7z M66.6,14.6
		c-1.6,0-2.6,1.2-2.6,3.1c0,1.9,1,3.1,2.6,3.1c1.6,0,2.6-1.3,2.6-3.1C69.2,15.9,68.1,14.6,66.6,14.6L66.6,14.6z M66.6,15
		c0.5,0,0.9,0.3,1.1,0.8c0.2,0.4,0.3,1.1,0.3,1.9c0,1.8-0.4,2.7-1.4,2.7c-0.9,0-1.3-0.9-1.3-2.7c0-0.9,0.1-1.5,0.3-1.9
		C65.7,15.3,66.1,15,66.6,15L66.6,15z M76.6,20.7h1.9v-0.4h-0.1c-0.5,0-0.7-0.2-0.7-1v-2.3c0-0.8-0.1-1.2-0.3-1.6
		c-0.3-0.4-0.7-0.7-1.3-0.7c-0.7,0-1.2,0.4-1.6,1.2c-0.3-0.8-0.8-1.2-1.5-1.2c-0.7,0-1.3,0.4-1.5,1.1v-1.1l-1.8,0.1v0.4h0.1
		c0.5,0,0.7,0.2,0.7,1v3c0,0.8-0.1,1-0.7,1h-0.2v0.4h2.8v-0.4h-0.2c-0.6,0-0.7-0.2-0.7-1v-1.6c0-1,0.1-1.4,0.3-1.8
		c0.2-0.4,0.5-0.6,0.9-0.6c0.3,0,0.5,0.2,0.7,0.4c0.2,0.3,0.2,0.6,0.2,1.6v3.4h1.9v-0.4h-0.2c-0.5,0-0.7-0.2-0.7-1v-1.6
		c0-1.1,0.1-1.4,0.3-1.8c0.2-0.4,0.5-0.6,0.9-0.6c0.3,0,0.5,0.1,0.7,0.4c0.1,0.2,0.2,0.7,0.2,1.5L76.6,20.7L76.6,20.7L76.6,20.7z
		 M39.2,7c0,0.7,0,0.9-0.2,1.1c-0.1,0.1-0.4,0.2-0.7,0.2h-0.2v0.4h3c1.2,0,2.2-0.3,2.9-1.1c0.8-0.8,1.2-1.9,1.2-3.2
		c0-1.2-0.3-2.2-1-2.9c-0.8-0.9-1.7-1.3-3.2-1.3h-3v0.4h0.2c0.3,0,0.6,0.1,0.7,0.2c0.2,0.2,0.2,0.4,0.2,1.1L39.2,7L39.2,7z
		 M40.4,1.6c0-0.5,0-0.7,0.2-0.8c0.2-0.2,0.4-0.3,0.9-0.3c1.8,0,2.5,1.1,2.5,3.8c0,2.8-0.7,3.8-2.6,3.8c-0.9,0-1.1-0.2-1.1-1.2
		L40.4,1.6L40.4,1.6z M50.7,5.7c-0.1-1.9-1-3.1-2.4-3.1C47,2.6,46,3.9,46,5.7c0,1.9,1,3.2,2.4,3.2c1,0,1.6-0.5,2.2-1.6L50.3,7
		c-0.4,0.9-0.9,1.3-1.6,1.3c-1,0-1.4-0.8-1.5-2.7H50.7L50.7,5.7z M47.2,5.2c0-1.3,0.5-2.2,1.2-2.2c0.7,0,1.1,0.8,1.1,2.2H47.2z
		 M55.4,8.7l1.8-0.1V8.2h-0.1c-0.5,0-0.7-0.2-0.7-1V2.7l-1.9,0.1v0.4h0.2c0.5,0,0.7,0.2,0.7,1v1.6c0,0.7-0.1,1.2-0.3,1.6
		c-0.3,0.5-0.7,0.8-1.1,0.8c-0.3,0-0.5-0.2-0.6-0.4c-0.1-0.2-0.2-0.5-0.2-1.1v-4l-1.9,0.1v0.4h0.1c0.5,0,0.7,0.2,0.7,1v2.2
		c0,1,0.1,1.4,0.3,1.8c0.2,0.4,0.7,0.6,1.2,0.6c0.8,0,1.4-0.4,1.9-1.4V8.7z M59.4,3.2h1.7V2.7h-1.7V0.5H59c-0.2,1.5-0.5,2-1.6,2.3
		v0.4h0.9v3.5c0,0.9,0.1,1.3,0.4,1.6c0.2,0.3,0.6,0.4,1.1,0.4c1,0,1.5-0.7,1.5-1.9V6.6h-0.4v0.2c0,0.9-0.3,1.4-0.8,1.4
		c-0.3,0-0.5-0.2-0.6-0.5c-0.1-0.2-0.1-0.5-0.1-1L59.4,3.2L59.4,3.2L59.4,3.2z M65.3,2.7h-0.4c0,0.2-0.1,0.3-0.2,0.3
		c-0.1,0-0.1,0-0.2-0.1c-0.4-0.2-0.8-0.3-1.2-0.3c-1,0-1.7,0.7-1.7,1.6c0,0.8,0.5,1.4,1.5,1.7C64,6.2,64,6.2,64.2,6.4
		c0.3,0.2,0.5,0.5,0.5,0.9c0,0.6-0.4,1-1,1c-0.5,0-1-0.3-1.3-0.7c-0.2-0.3-0.3-0.6-0.5-1.2h-0.4v2.2h0.4l0-0.1
		c0.1-0.2,0.1-0.3,0.2-0.3c0,0,0.1,0,0.1,0.1c0.6,0.4,0.9,0.5,1.4,0.5c1.1,0,1.9-0.8,1.9-1.9c0-0.6-0.2-1-0.7-1.4
		c-0.3-0.2-0.6-0.4-1.4-0.6c-0.8-0.3-1.1-0.5-1.1-1c0-0.5,0.4-0.9,1-0.9c0.8,0,1.3,0.5,1.5,1.6h0.4L65.3,2.7L65.3,2.7z M70.4,7
		c-0.4,0.9-0.8,1.4-1.5,1.4c-1,0-1.4-0.9-1.4-2.7c0-1.8,0.5-2.7,1.5-2.7c0.5,0,0.9,0.3,1.1,0.7c-0.1,0-0.1,0-0.1,0
		c-0.3,0-0.6,0.3-0.6,0.7C69.3,4.7,69.6,5,70,5c0.4,0,0.7-0.3,0.7-0.8c0-0.9-0.8-1.7-1.9-1.7c-1.5,0-2.6,1.3-2.6,3.1
		c0,1.9,1,3.2,2.5,3.2c1,0,1.6-0.5,2.1-1.7L70.4,7L70.4,7z M75.1,8.6H77V8.2h-0.1c-0.5,0-0.7-0.2-0.7-1V5.1c0-1.1-0.1-1.5-0.4-2
		c-0.3-0.4-0.7-0.6-1.2-0.6c-0.7,0-1.2,0.4-1.7,1.2V0L71,0.1v0.4h0.1c0.5,0,0.7,0.2,0.7,1v5.7c0,0.8-0.1,1-0.7,1H71v0.4h2.8V8.2
		h-0.2c-0.5,0-0.7-0.2-0.7-1V5.8c0-0.9,0.1-1.4,0.3-1.9c0.2-0.5,0.6-0.8,1.1-0.8c0.3,0,0.5,0.1,0.6,0.4c0.2,0.2,0.2,0.5,0.2,1.3
		L75.1,8.6L75.1,8.6L75.1,8.6z M82.1,5.7c-0.1-1.9-1-3.1-2.4-3.1c-1.3,0-2.3,1.3-2.3,3.1c0,1.9,1,3.2,2.4,3.2c1,0,1.6-0.5,2.2-1.6
		L81.7,7c-0.4,0.9-0.9,1.3-1.6,1.3c-1,0-1.4-0.8-1.5-2.7H82.1z M78.6,5.2c0-1.3,0.5-2.2,1.2-2.2c0.7,0,1.1,0.8,1.1,2.2H78.6
		L78.6,5.2z"/>
</g>
</svg>
