<?xml version="1.0" encoding="utf-8"?>
<!-- Generator: Adobe Illustrator 26.0.1, SVG Export Plug-In . SVG Version: 6.00 Build 0)  -->
<svg version="1.1" id="Layer_1" xmlns="http://www.w3.org/2000/svg" xmlns:xlink="http://www.w3.org/1999/xlink" x="0px" y="0px"
	 viewBox="0 0 95 35" style="enable-background:new 0 0 95 35;" xml:space="preserve">
<style type="text/css">
	.st0{fill:#CCCCCC;}
</style>
<g>
	<path id="S" class="st0" d="M6.5,6.9C5.3,6.4,4.6,6,4.3,5.8C4,5.6,3.8,5.4,3.8,5c0-0.9,0.8-1.3,2.4-1.3c1.2,0,2.4,0.3,3.7,0.8V1.7
		C8.2,1.4,6.8,1.2,5.8,1.2c-1.7,0-3.1,0.4-4.2,1.1C0.5,3.1,0,4.2,0,5.6c0,1.1,0.4,2,1.1,2.8c0.6,0.6,1.8,1.2,3.7,2
		c1.1,0.4,1.7,0.8,2,1c0.2,0.2,0.4,0.5,0.4,0.9c0,0.9-0.9,1.4-2.6,1.4c-1.3,0-2.7-0.3-4.3-0.8v2.9c1.5,0.3,3,0.5,4.5,0.5
		c1.8,0,3.2-0.3,4.3-1c1.4-0.8,2-2,2-3.6c0-1.1-0.3-2-1-2.7C9.5,8.4,8.3,7.7,6.5,6.9L6.5,6.9z M13.4,15.9h4V1.5h-4V15.9z M25,9.7
		h5.6V7.3H25V4.1h6.5V1.5H21.1v14.5h10.5v-2.8H25V9.7z M43.2,10.7l-3.6-9.2h-5.2v14.5h2.8V5.7l4.2,10.4h2.5l4.2-10.4v10.2h3.8V1.5
		h-5L43.2,10.7z M59.5,9.7h5.6V7.3h-5.6V4.1H66V1.5H55.6v14.5h10.5v-2.8h-6.6L59.5,9.7z M78.5,11.1l-5-9.7h-4.7v14.5h2.8V6.1
		l5.1,9.8h4.6V1.5h-2.8V11.1z M90.4,6.9c-1.2-0.6-2-0.9-2.2-1.1c-0.3-0.2-0.5-0.5-0.5-0.8c0-0.9,0.8-1.3,2.4-1.3
		c1.2,0,2.4,0.3,3.7,0.8V1.7c-1.8-0.4-3.2-0.5-4.1-0.5c-1.7,0-3.1,0.4-4.2,1.1c-1.1,0.7-1.6,1.8-1.6,3.3c0,1.1,0.4,2,1.1,2.8
		c0.6,0.6,1.8,1.2,3.7,2c1.1,0.4,1.7,0.8,2,1c0.2,0.2,0.4,0.5,0.4,0.9c0,0.9-0.9,1.4-2.6,1.4c-1.3,0-2.7-0.3-4.3-0.8v2.9
		c1.5,0.3,3,0.5,4.5,0.5c1.8,0,3.2-0.3,4.3-1c1.4-0.8,2-2,2-3.6c0-1.1-0.3-2-1-2.7C93.4,8.4,92.2,7.7,90.4,6.9z"/>
	<path id="E" class="st0" d="M11.8,19.2c-1.3-0.1-2.5-0.1-3.8-0.1s-2.6,0-3.8,0.1c-2.3,0.1-4.1,2-4.1,4.3v5.9c0,2.3,1.8,4.2,4.1,4.3
		c1.3,0.1,2.5,0.1,3.8,0.1s2.6,0,3.8-0.1c2.3-0.1,4.1-2,4.1-4.3V29H14v0.3c0,1.3-1,2.4-2.3,2.4c-1.2,0.1-2.5,0.1-3.8,0.1
		s-2.5,0-3.8-0.1c-1.3-0.1-2.3-1.1-2.3-2.4v-5.9c0-1.3,1-2.4,2.3-2.4c1.2-0.1,2.5-0.1,3.8-0.1s2.5,0,3.8,0.1
		c1.3,0.1,2.3,1.1,2.3,2.4v2H6.4v1.9h9.5v-3.9C15.9,21.2,14.1,19.3,11.8,19.2z M28.4,19.2c-1-0.1-2.1-0.1-3.1-0.1s-2.1,0.1-3.1,0.1
		c-2.2,0.2-3.9,2.1-3.9,4.3v10.2h1.9V23.5c0-1.3,1-2.4,2.3-2.4c0.9-0.1,1.9-0.1,2.9-0.1s1.9,0,2.9,0.1c1.3,0.1,2.3,1.2,2.3,2.4v10.2
		h1.9V23.5C32.3,21.3,30.6,19.4,28.4,19.2z M46.5,19.2c-1.3-0.1-2.5-0.1-3.8-0.1s-2.6,0-3.8,0.1c-2.3,0.1-4.1,2-4.1,4.3v5.9
		c0,2.3,1.8,4.2,4.1,4.3c1.3,0.1,2.5,0.1,3.8,0.1s2.6,0,3.8-0.1c2.3-0.1,4.1-2,4.1-4.3V29h-1.9v0.3c0,1.3-1,2.4-2.3,2.4
		c-1.2,0.1-2.5,0.1-3.8,0.1c-1.3,0-2.5,0-3.8-0.1c-1.3-0.1-2.3-1.1-2.3-2.4v-5.9c0-1.3,1-2.4,2.3-2.4c1.2-0.1,2.5-0.1,3.8-0.1
		c1.3,0,2.5,0,3.8,0.1c1.3,0.1,2.3,1.1,2.3,2.4v2H41v1.9h9.5v-3.9C50.5,21.2,48.7,19.3,46.5,19.2L46.5,19.2z M53.2,23.5v10.2H55
		V23.5c0-1.3,1.1-2.4,2.4-2.4h3.8v-1.9h-3.8C55.3,19.2,53.2,21,53.2,23.5L53.2,23.5z M74.2,19.2c-1.3-0.1-2.5-0.1-3.8-0.1
		c-1.3,0-2.6,0-3.8,0.1c-2.3,0.1-4.1,2-4.1,4.3v5.9c0,2.3,1.8,4.2,4.1,4.3c1.3,0.1,2.5,0.1,3.8,0.1c1.3,0,2.6,0,3.8-0.1
		c2.3-0.1,4.1-2,4.1-4.3v-3.9h-9.5v1.9h7.6v2c0,1.3-1,2.4-2.3,2.4c-1.2,0.1-2.5,0.1-3.8,0.1c-1.3,0-2.5,0-3.8-0.1
		c-1.3-0.1-2.3-1.1-2.3-2.4v-5.9c0-1.3,1-2.4,2.3-2.4c1.2-0.1,2.5-0.1,3.8-0.1c1.3,0,2.5,0,3.8,0.1c1.3,0.1,2.3,1.1,2.3,2.4v0.3h1.9
		v-0.3C78.3,21.2,76.5,19.3,74.2,19.2z M95,19.2h-2.3l-6.3,8.4c-0.6,0.7-0.9,1.6-0.9,2.6v3.5h1.9v-3.5c0-0.5,0.2-1,0.5-1.5L95,19.2z
		 M81,19.2h-2.4l6.6,7.9l1.1-1.5L81,19.2z"/>
</g>
</svg>
