<?xml version="1.0" encoding="utf-8"?>
<!-- Generator: Adobe Illustrator 26.0.1, SVG Export Plug-In . SVG Version: 6.00 Build 0)  -->
<svg version="1.1" id="Layer_1" xmlns="http://www.w3.org/2000/svg" xmlns:xlink="http://www.w3.org/1999/xlink" x="0px" y="0px"
	 viewBox="0 0 95 35" style="enable-background:new 0 0 95 35;" xml:space="preserve">
<style type="text/css">
	.st0{fill-rule:evenodd;clip-rule:evenodd;fill:#CCCCCC;}
</style>
<g id="Ebene_x0020_1" transform="translate(-6.041939e-2,0.147204)">
	<path id="path2006" class="st0" d="M64.9,13.8c0,3.1-1.9,7.1-3.3,9.8c-2.2,4.2-5.1,6.7-9.9,7c-4.2,0.3-13.8,1-12.2-6.2
		c0.7-3.1,2.3-5.8,3.3-8.8C46.2,9,54.6,7.7,61.3,9.4C63.6,10.2,64.8,11.3,64.9,13.8L64.9,13.8z M53.7,14.1c-3.4,0-3.9,4.8-4.5,7.4
		c-0.2,1-1.3,4.2,0.5,4.2c4.1,0.8,4.5-3.7,5.2-6.7c0.3-1.1,0.8-3,0.5-4.1C55.5,14,54.3,14.1,53.7,14.1L53.7,14.1z M30.1,14.3
		c-0.4,8.1-6.1,7.5-12.9,7.5c-2.6,0-5.2-0.2-7.8-0.2c-0.9,1,1.8,3.8,2.5,4.3c2.6,1.6,5.9,0.9,8-1.2c1.1,0,13.3-1.6,9.1,2.6
		c-2,1.8-4.9,2.9-7.5,3.5c-8.3,2-26.3-2.8-20.2-14.5C5.4,9.4,14.4,5.7,21.8,3.8c0.7-0.1,1.4-0.2,2.1-0.3
		C29.1,3.1,30.1,10.4,30.1,14.3L30.1,14.3z M22.4,13.6c0-0.7,0-1.5-0.2-2.2c-0.8-3.3-9.3,3.7-10.4,4.7c-0.1,0.3,0,0.2,0.1,0.3
		c2.8,0,5.7,0,8.5,0C22.3,16.1,22.4,15.5,22.4,13.6L22.4,13.6z M38.8,17.8c-0.6,1.3-0.5,3-1.8,4c-1.8,1.3-6.3,1.3-5.3-1.9
		c0.9-3.1,2.7-4.4,5.9-3.6C38.4,16.6,38.6,17.1,38.8,17.8L38.8,17.8z M95.1,13.8c0,0.8-0.2,1.7-0.4,2.5c-1.1,4.7-2.8,9.2-4.3,13.8
		c-1.4,1.4-4.3,0.6-5.8-0.3c-0.8-0.8,1.1-4.6,1.4-5.5c0.5-1.4,3-6.7,0.9-7.8c-0.7,0-1.2,0.1-1.9,0.3C78.6,19,74.1,25.4,69.6,30
		c-2,1-3.4,0.7-5.3-0.2c-0.2-0.2-0.1-0.5-0.1-0.7c1.5-6.1,3.8-12.2,6.3-18c0.4-1.2,4.5-0.7,5.5-0.2c0,1.3-0.1,3.5,1.7,3.5
		c4.2-0.5,14.6-9.6,17.2-1.8C95,12.9,95.1,13.3,95.1,13.8L95.1,13.8z"/>
</g>
</svg>
