<?xml version="1.0" encoding="utf-8"?>
<!-- Generator: Adobe Illustrator 26.0.1, SVG Export Plug-In . SVG Version: 6.00 Build 0)  -->
<svg version="1.1" id="Layer_1" xmlns="http://www.w3.org/2000/svg" xmlns:xlink="http://www.w3.org/1999/xlink" x="0px" y="0px"
	 viewBox="0 0 95 35" style="enable-background:new 0 0 95 35;" xml:space="preserve">
<style type="text/css">
	.st0{fill:#343741;}
</style>
<g id="Ebene_1_1_">
	<g>
		<g>
			<path class="st0" d="M37.8,25.4L37.8,25.4c0.7,0,0.9,0,1.2,0c0.6,0,0.9,0.1,1.2,0.3c0.4,0.2,0.6,0.6,0.6,1.1
				c0,0.9-0.6,1.3-1.7,1.3c-0.1,0-0.2,0-0.3,0v1.5h-0.9L37.8,25.4L37.8,25.4z M38.8,27.2c0,0,0.1,0,0.2,0h0c0.6,0,0.9-0.2,0.9-0.6
				c0-0.4-0.2-0.6-0.7-0.6h0c-0.1,0-0.2,0-0.3,0C38.8,26.1,38.8,27.2,38.8,27.2z"/>
			<path class="st0" d="M45.4,27.4c0,1.3-0.8,2.2-2.1,2.2s-2-0.8-2-2.1c0-1.4,0.8-2.2,2.1-2.2C44.5,25.2,45.4,26.1,45.4,27.4z
				 M42.3,27.4c0,0.9,0.4,1.4,1,1.4c0.6,0,1-0.5,1-1.4c0-0.9-0.4-1.4-1-1.4C42.7,26,42.3,26.6,42.3,27.4z"/>
			<path class="st0" d="M46.7,25.3c0.2,1,0.2,1.2,0.5,2.3c0.1,0.5,0.2,0.7,0.2,0.9V29l0-0.4c0-0.1,0.1-0.5,0.2-0.9
				c0.1-0.3,0.1-0.4,0.1-0.5l0.2-0.9l0.2-0.9h1.1l0.1,0.5l0.3,1.3l0.2,0.9c0.1,0.3,0.1,0.5,0.1,0.9c0-0.4,0-0.7,0.1-0.9l0.2-0.9
				l0.3-1.4l0.1-0.4h0.9c-0.4,1.5-0.6,2.5-1.2,4.1h-1.2L49,28.4c-0.3-1.4-0.4-1.6-0.4-2.4c-0.1,0.9-0.1,1.1-0.4,2.4l-0.3,1.1h-1.2
				l-0.2-0.6c-0.2-0.7-0.4-1.7-0.6-2.4l-0.3-1.1L46.7,25.3L46.7,25.3z"/>
			<path class="st0" d="M52.6,25.3h2.6v0.8h-1.6v0.8h1.6v0.8h-1.6v0.9h1.7v0.8h-2.6L52.6,25.3L52.6,25.3z"/>
			<path class="st0" d="M56.1,25.4L56.1,25.4c0.6,0,0.9,0,1.2,0c0.6,0,0.9,0,1.3,0.2c0.4,0.2,0.6,0.6,0.6,1.1c0,0.5-0.2,0.9-0.7,1.1
				c0.3,0.4,0.9,1.3,1.3,1.6l0,0h-1.2c-0.2-0.3-0.8-1.1-1-1.5l0-0.1c-0.2,0-0.2,0-0.4,0v1.6h-0.9L56.1,25.4L56.1,25.4z M57,27.2
				c0.1,0,0.2,0,0.3,0c0.6,0,0.9-0.2,0.9-0.6c0-0.4-0.3-0.6-0.8-0.6c-0.1,0-0.1,0-0.2,0H57C57,26,57,27.2,57,27.2z"/>
			<path class="st0" d="M63.1,26.2h-1.3v-0.9h3.5v0.9h-1.3v3.3H63L63.1,26.2L63.1,26.2z"/>
			<path class="st0" d="M69.7,27.4c0,1.3-0.8,2.2-2.1,2.2c-1.3,0-2-0.8-2-2.1c0-1.4,0.8-2.2,2.1-2.2C68.9,25.2,69.7,26.1,69.7,27.4z
				 M66.6,27.4c0,0.9,0.4,1.4,1,1.4c0.6,0,1-0.5,1-1.4c0-0.9-0.4-1.4-1-1.4C67,26,66.6,26.6,66.6,27.4z"/>
			<path class="st0" d="M75.7,29.3c-0.4,0.2-0.8,0.3-1.3,0.3c-1.4,0-2.2-0.8-2.2-2.1c0-1.3,0.9-2.2,2.3-2.2c0.4,0,0.8,0.1,1.2,0.3
				v0.9c-0.4-0.2-0.7-0.3-1.1-0.3c-0.9,0-1.4,0.5-1.4,1.3c0,0.8,0.5,1.3,1.4,1.3c0.4,0,0.7-0.1,1.1-0.3L75.7,29.3L75.7,29.3z"/>
			<path class="st0" d="M76.6,25.4L76.6,25.4c0.6,0,0.9,0,1.2,0c0.6,0,0.9,0,1.3,0.2c0.4,0.2,0.6,0.6,0.6,1.1c0,0.5-0.2,0.9-0.7,1.1
				c0.3,0.4,0.9,1.3,1.3,1.6l0,0h-1.2c-0.2-0.3-0.8-1.1-1-1.5l0-0.1c-0.2,0-0.2,0-0.4,0v1.6h-0.9L76.6,25.4L76.6,25.4z M77.5,27.2
				c0.1,0,0.2,0,0.3,0c0.6,0,0.9-0.2,0.9-0.6c0-0.4-0.3-0.6-0.8-0.6c-0.1,0-0.1,0-0.2,0h-0.1V27.2L77.5,27.2z"/>
			<path class="st0" d="M80.6,25.3h2.6v0.8h-1.6v0.8h1.6v0.8h-1.6v0.9h1.7v0.8h-2.6V25.3L80.6,25.3z"/>
			<path class="st0" d="M83.9,29.5c0.4-1.1,1-2.6,1.6-4.1h0.9c0.6,1.4,1,2.5,1.5,4.1h-1l-0.4-1.1h-1.4l-0.4,1.1H83.9z M86.4,27.6
				l-0.2-0.7c-0.1-0.3-0.1-0.4-0.2-0.7c0,0.2,0,0.2,0,0.3c0,0.1-0.1,0.2-0.2,0.5l-0.2,0.7L86.4,27.6L86.4,27.6z"/>
			<path class="st0" d="M89.1,26.2h-1.3v-0.9h3.5v0.9h-1.3v3.3H89L89.1,26.2L89.1,26.2z"/>
			<path class="st0" d="M92.1,25.3h2.6v0.8H93v0.8h1.6v0.8H93v0.9h1.7v0.8h-2.6L92.1,25.3L92.1,25.3z"/>
		</g>
		<g>
			<g>
				<g>
					<path class="st0" d="M94.6,21.6h-1.7c-0.2,0-0.3-0.1-0.3-0.3c0-1.1-0.4-2.1-1.1-2.9c-0.1-0.1-0.2-0.3-0.4-0.4
						c-0.7-0.8-1.6-1.2-2.7-1.2h-1.1v4.5c0,0.2-0.2,0.4-0.4,0.4h-1.8c-0.2,0-0.4-0.2-0.4-0.4V10.8c0-0.2,0.2-0.4,0.4-0.4h1.8
						c0.2,0,0.4,0.1,0.4,0.4v3.5h1.1c2,0,3.6-1.6,3.6-3.6c0-0.2,0.1-0.3,0.3-0.3h1.9c0.2,0,0.4,0.1,0.4,0.3c0,2-1,3.7-2.4,4.8
						c0.4,0.3,0.8,0.6,1,1c1.1,1.3,1.8,2.9,1.8,4.7c0,0.2-0.1,0.3-0.3,0.4L94.6,21.6L94.6,21.6z"/>
				</g>
				<g>
					<path class="st0" d="M74.9,13.1c-0.9-0.4-2-0.6-3.1-0.6c-1.1,0-2.1,0.2-3.1,0.6v8.2c0,0.2-0.2,0.4-0.4,0.4h-1.8
						c-0.2,0-0.4-0.2-0.4-0.4v-9.6c0-0.1,0-0.2,0.1-0.3c1.6-0.9,3.5-1.4,5.4-1.4s3.8,0.5,5.4,1.4c0.1,0,0.1,0.2,0.1,0.3v9.6
						c0,0.2-0.2,0.4-0.4,0.4h-1.8c-0.2,0-0.4-0.2-0.4-0.4L74.9,13.1L74.9,13.1L74.9,13.1z"/>
				</g>
				<g>
					<path class="st0" d="M79.8,21.2V10.8c0-0.2,0.2-0.4,0.4-0.4H82c0.2,0,0.4,0.2,0.4,0.4v10.5c0,0.2-0.2,0.4-0.4,0.4h-1.8
						C80,21.6,79.8,21.5,79.8,21.2L79.8,21.2z"/>
				</g>
				<g>
					<path class="st0" d="M48.5,10.4h2.4c0.2,0,0.3,0.2,0.3,0.4c0,0,0,0.1,0,0.1l-4,10.4c0,0.1-0.2,0.2-0.3,0.2h-3
						c-0.1,0-0.3-0.1-0.3-0.2l-3.8-10.5c0,0,0,0,0-0.1c0-0.2,0.1-0.3,0.3-0.4h2.5c0.1,0,0.3,0.1,0.3,0.2l2.6,8.4l2.8-8.4
						C48.2,10.5,48.3,10.4,48.5,10.4L48.5,10.4z"/>
				</g>
				<g>
					<path class="st0" d="M38.3,21.6h-8.8c-0.1,0-0.3-0.1-0.3-0.2c-0.9-1.6-1.4-3.4-1.4-5.4s0.5-3.8,1.4-5.4c0-0.1,0.2-0.2,0.3-0.2
						h8.4c0.2,0,0.3,0.1,0.3,0.3v1.9c0,0.2-0.1,0.3-0.3,0.3h-7c-0.2,0.6-0.4,1.2-0.5,1.8h7c0.2,0,0.3,0.1,0.3,0.3v1.8
						c0,0.2-0.1,0.4-0.3,0.4h-7c0.1,0.6,0.3,1.3,0.5,1.8h7.5c0.2,0,0.3,0.1,0.3,0.3v1.8C38.6,21.5,38.5,21.6,38.3,21.6L38.3,21.6z"
						/>
				</g>
				<g>
					<path class="st0" d="M61.3,13.1c-0.9-0.4-2-0.6-3.1-0.6c-1.1,0-2.1,0.2-3.1,0.6V19c0.9,0.4,2,0.6,3.1,0.6
						c1.1,0,2.1-0.2,3.1-0.6V13.1L61.3,13.1z M58.2,22.1c-2,0-3.8-0.5-5.4-1.4c-0.1,0-0.2-0.2-0.2-0.3v-8.7c0-0.1,0.1-0.2,0.2-0.3
						c1.6-0.9,3.4-1.4,5.4-1.4c2,0,3.8,0.5,5.4,1.4c0.1,0,0.1,0.2,0.2,0.3v8.7c0,0.1-0.1,0.2-0.2,0.3C62,21.5,60.2,22.1,58.2,22.1
						L58.2,22.1z"/>
				</g>
			</g>
			<g id="KNull_14_">
				<path class="st0" d="M10.5,7.8c-4.5,0-8.1,3.6-8.1,8.1S6,24,10.5,24c2.5,0,4.6-1.1,6.1-2.8c0,0-8.3,0-8.5,0c-0.1,0-0.2,0-0.3,0
					c-1.9-1-3.2-2.9-3.2-5.2s1.3-4.3,3.2-5.2c0.1,0,0.2,0,0.3,0c0.8,0,4.2,0,4.7,0c0.1,0,0.2,0,0.3,0c0.9,0.4,1.6,1,2.1,1.8
					c0.2,0.2,0,0.5-0.3,0.5c-0.2,0-6.4,0-6.4,0C7.6,13.7,7,14.8,7,16c0,1.2,0.6,2.3,1.6,2.9c0,0,11.3,0,11.5,0s0.4,0.2,0.3,0.4
					c-1.4,4.1-5.3,7.1-9.9,7.1C4.7,26.4,0,21.7,0,15.9C0,10.2,4.7,5.4,10.5,5.4S21,10.1,21,15.9c0,0.3,0,0.6,0,0.9
					c0,0.2-0.2,0.3-0.3,0.3c-1.8,0-11.1,0-11.2,0S9.1,17,9,16.9c-0.1-0.3-0.2-0.6-0.2-1c0-0.4,0.1-0.7,0.2-1c0-0.1,0.2-0.2,0.3-0.2
					c0.2,0,9.1,0,9.1,0C17.9,10.8,14.5,7.8,10.5,7.8z"/>
			</g>
		</g>
	</g>
</g>
</svg>
