<?xml version="1.0" encoding="utf-8"?>
<!-- Generator: Adobe Illustrator 26.0.1, SVG Export Plug-In . SVG Version: 6.00 Build 0)  -->
<svg version="1.1" id="Layer_1" xmlns="http://www.w3.org/2000/svg" xmlns:xlink="http://www.w3.org/1999/xlink" x="0px" y="0px"
	 viewBox="0 0 95 35" style="enable-background:new 0 0 95 35;" xml:space="preserve">
<style type="text/css">
	.st0{fill:#CCCCCC;}
</style>
<g>
	<g id="g87">
		<path id="path115" class="st0" d="M42.1,18.7c0.1,2.5,1.4,3.5,2.7,3.5c1,0,1.9-0.5,2.7-1.8l1.4,0.8c-1.1,1.7-2.5,2.5-4.1,2.5
			c-2.3,0-4.5-1.9-4.5-5.3c0-3.3,2-5.2,4.4-5.2c2.1,0,3.6,1.4,4.1,3.6c0.2,0.7,0.2,1.3,0.2,1.9H42.1z M47.3,17.3
			c-0.2-1.9-1.4-2.9-2.6-2.9c-1.4,0-2.5,1.3-2.6,2.9H47.3z"/>
	</g>
	<path id="path119" class="st0" d="M53.3,23.5l-3.3-10.2h1.9l2.4,7.7l2.4-7.7h1.8l-3.4,10.2H53.3z"/>
	<path id="path131" class="st0" d="M59.3,18.5c0-3.3,1.9-5.3,4.5-5.3c2.7,0,4.6,2.1,4.6,5.3c0,3.4-2.1,5.2-4.4,5.2
		C61.3,23.7,59.3,21.7,59.3,18.5 M66.6,18.3c0-2.3-1.1-3.7-2.7-3.7c-1.8,0-2.8,1.6-2.8,3.9c0,2.4,1.1,3.8,2.7,3.8
		C65.4,22.3,66.6,20.9,66.6,18.3"/>
	<path id="path135" class="st0" d="M71,13.4V9.8h1.8v3.6H75v1.4h-2.3v6c0,0.9,0.4,1.4,1.3,1.4c0.3,0,0.7,0,1-0.1v1.5
		c-0.3,0-0.7,0.1-1.1,0.1c-0.7,0-1.2-0.1-1.7-0.3C71.4,23.1,71,22.2,71,21v-6.2h-1.7v-1.4H71z"/>
	<path id="path139" class="st0" d="M77.9,18.7c0.1,2.5,1.4,3.5,2.7,3.5c1,0,1.9-0.5,2.7-1.8l1.4,0.8c-1.1,1.7-2.5,2.5-4.1,2.5
		c-2.3,0-4.5-1.9-4.5-5.3c0-3.3,2-5.2,4.4-5.2c2.1,0,3.6,1.4,4.1,3.6c0.2,0.7,0.2,1.3,0.2,1.9H77.9z M83.1,17.3
		c-0.2-1.9-1.4-2.9-2.6-2.9c-1.4,0-2.5,1.3-2.6,2.9H83.1z"/>
	<path id="path143" class="st0" d="M93.4,16.4c-0.6-1.1-1.3-1.8-2.4-1.8c-1.4,0-2.6,1.3-2.6,3.8c0,2.3,1.1,3.8,2.6,3.8
		c1.1,0,1.9-0.7,2.5-2L95,21c-0.9,1.8-2.1,2.7-3.9,2.7c-2.6,0-4.5-2.1-4.5-5.3c0-3.1,2-5.3,4.5-5.3c1.7,0,2.9,0.9,3.8,2.6L93.4,16.4
		z"/>
	<path id="path147" class="st0" d="M27,14c0,3.5-1.3,6.9-3.9,9.5c-2.6,2.6-6.1,3.9-9.5,3.9s-6.9-1.3-9.5-3.9C1.3,21,0,17.5,0,14.1
		s1.3-6.9,3.9-9.5c2.6-2.6,6.1-3.9,9.5-3.9c3.4,0,6.9,1.3,9.5,3.9C25.6,7.2,26.9,10.6,27,14"/>
	<path id="path151" class="st0" d="M33.8,28.4c0,1.6-0.6,3.1-1.8,4.3c-1.2,1.2-2.7,1.8-4.3,1.8c-1.6,0-3.1-0.6-4.3-1.8
		c-1.2-1.2-1.8-2.7-1.8-4.3c0-1.6,0.6-3.1,1.8-4.3c1.2-1.2,2.7-1.8,4.3-1.8c1.6,0,3.1,0.6,4.3,1.8C33.3,25.3,33.8,26.8,33.8,28.4"/>
</g>
</svg>
