<?xml version="1.0" encoding="utf-8"?>
<!-- Generator: Adobe Illustrator 26.0.1, SVG Export Plug-In . SVG Version: 6.00 Build 0)  -->
<svg version="1.1" id="Layer_1" xmlns="http://www.w3.org/2000/svg" xmlns:xlink="http://www.w3.org/1999/xlink" x="0px" y="0px"
	 viewBox="0 0 95 35" style="enable-background:new 0 0 95 35;" xml:space="preserve">
<style type="text/css">
	.st0{fill-rule:evenodd;clip-rule:evenodd;fill:#CCCCCC;}
</style>
<g>
	<path class="st0" d="M13,9.6l13-2.2l-2.7,4.4L13,14L2.7,11.7L0,7.3L13,9.6z M13,27.7l-2.8-4.5l2.8,0.8l2.8-0.8L13,27.7z M5.1,15.7
		l7.9,1.7l7.9-1.7l-2.5,4L13,21.1l-5.4-1.4L5.1,15.7z M90.3,26.9H95v-1.4h-3.2v-1.2h2v-1.4h-2V22h3v-1.4h-4.5V26.9z M35.5,26.9v-3.2
		l-1.6,3.4l-1.6-3.4v3.2h-1.5v-6.3h1.5l1.6,3.5l1.6-3.5H37v6.3H35.5z M45.9,22h-0.5v3.5h0.5c1.2,0,1.6-0.5,1.6-1.7
		C47.5,22.6,47.1,22,45.9,22L45.9,22z M45.8,26.9h-2v-6.3h2.1c1.9,0,3.2,0.8,3.2,3.1C49.1,26.1,47.8,26.9,45.8,26.9L45.8,26.9z
		 M50,26.9h1.6v-6.3H50V26.9z M56.3,22.8l1.4-0.6c-0.4-1.1-1.1-1.7-2.5-1.7c-1.7,0-2.8,1.3-2.8,3.2c0,1.9,1,3.2,2.8,3.2
		c1.4,0,2.1-0.7,2.5-1.5l-1.3-0.7c-0.3,0.6-0.6,0.9-1.2,0.9c-0.8,0-1.2-0.8-1.2-1.8c0-1,0.4-1.8,1.2-1.8
		C55.8,22,56.1,22.3,56.3,22.8 M60.2,24.4h1.2l-0.6-2L60.2,24.4z M62.3,26.9l-0.4-1.2h-2.1l-0.4,1.2h-1.7l2.3-6.3h1.6l2.3,6.3
		L62.3,26.9z M64.6,26.9h4.5v-1.4h-2.9v-4.8h-1.6V26.9z M75.9,22.8l1.4-0.6c-0.4-1.1-1.1-1.7-2.5-1.7c-1.7,0-2.8,1.3-2.8,3.2
		c0,1.9,1,3.2,2.8,3.2c1.4,0,2.1-0.7,2.5-1.5L76,24.7c-0.3,0.6-0.6,0.9-1.2,0.9c-0.8,0-1.2-0.8-1.2-1.8c0-1,0.4-1.8,1.2-1.8
		C75.4,22,75.6,22.3,75.9,22.8 M79.8,24.4H81l-0.6-2L79.8,24.4z M81.8,26.9l-0.4-1.2h-2.1L79,26.9h-1.7l2.3-6.3h1.6l2.3,6.3
		L81.8,26.9z M86.9,22h-1.2v1.4h1.2c0.6,0,0.8-0.3,0.8-0.7C87.7,22.3,87.5,22,86.9,22L86.9,22z M87.6,26.9l-1.1-2.2h-0.9v2.2h-1.6
		v-6.3H87c1.4,0,2.3,0.6,2.3,2c0,0.9-0.4,1.5-1.2,1.8l1.2,2.4H87.6z M38.2,26.9H43v-1.4h-3.2v-1.2h2v-1.4h-2V22h3v-1.4h-4.5
		L38.2,26.9z M76.4,17.6c1.6,0,2.6-0.7,2.6-2c0-1.2-0.8-1.7-2.2-2c-0.9-0.2-1.1-0.3-1.1-0.6c0-0.2,0.2-0.4,0.7-0.4
		c0.6,0,1.1,0.2,1.6,0.6l0.8-1.2c-0.6-0.5-1.4-0.8-2.4-0.8c-1.4,0-2.4,0.8-2.4,1.9c0,1.2,0.8,1.6,2.1,2c1,0.2,1.2,0.4,1.2,0.7
		c0,0.4-0.3,0.5-0.9,0.5c-0.6,0-1.3-0.3-1.8-0.6l-0.8,1.2C74.4,17.3,75.4,17.6,76.4,17.6 M32.4,12.7v1h2.2V15h-2.2v2.5h-1.6v-6.3
		h4.7v1.4L32.4,12.7z M39,12.6h-1.2v1.5h1.2c0.6,0,0.8-0.3,0.8-0.7C39.8,12.9,39.5,12.6,39,12.6L39,12.6z M39.7,17.5l-1.1-2.2h-0.9
		v2.2h-1.6v-6.3H39c1.4,0,2.3,0.6,2.3,2c0,0.9-0.4,1.5-1.2,1.8l1.2,2.4H39.7z M42.2,17.5H47v-1.4h-3.2v-1.2h2v-1.4h-2v-0.9h3v-1.4
		h-4.5L42.2,17.5z M49.9,17.6c1.6,0,2.6-0.7,2.6-2c0-1.2-0.8-1.7-2.2-2c-0.9-0.2-1.1-0.3-1.1-0.6c0-0.2,0.2-0.4,0.7-0.4
		c0.6,0,1.1,0.2,1.6,0.6l0.8-1.2c-0.6-0.5-1.4-0.8-2.4-0.8c-1.4,0-2.4,0.8-2.4,1.9c0,1.2,0.8,1.6,2.1,2c1,0.2,1.2,0.4,1.2,0.7
		c0,0.4-0.3,0.5-0.9,0.5c-0.6,0-1.3-0.3-1.8-0.6l-0.9,1.2C47.9,17.3,48.8,17.6,49.9,17.6 M53.3,17.5H58v-1.4h-3.2v-1.2h2v-1.4h-2
		v-0.9h3v-1.4h-4.5L53.3,17.5z M62.8,17.5h1.3v-6.3h-1.5v3.4l-2.4-3.4h-1.4v6.3h1.5v-3.6L62.8,17.5z M65.3,17.5h1.6v-6.3h-1.6V17.5z
		 M70.6,17.6c1.6,0,2.7-0.9,2.7-2.8v-3.6h-1.6v3.6c0,0.8-0.4,1.4-1.1,1.4c-0.7,0-1.1-0.5-1.1-1.4v-3.6h-1.6v3.6
		C67.9,16.8,69,17.6,70.6,17.6"/>
</g>
</svg>
