<?xml version="1.0" encoding="utf-8"?>
<!-- Generator: Adobe Illustrator 26.0.1, SVG Export Plug-In . SVG Version: 6.00 Build 0)  -->
<svg version="1.1" id="Layer_1" xmlns="http://www.w3.org/2000/svg" xmlns:xlink="http://www.w3.org/1999/xlink" x="0px" y="0px"
	 viewBox="0 0 95 35" style="enable-background:new 0 0 95 35;" xml:space="preserve">
<style type="text/css">
	.st0{fill:#CCCCCC;}
</style>
<g id="g6">
	<polygon id="polygon8" class="st0" points="0,14.3 0,16.7 9.8,16.7 9.8,14.3 0,14.3 	"/>
	<polygon id="polygon10" class="st0" points="0,10.7 13.5,10.7 13.5,13 0,13 0,10.7 	"/>
	<polygon id="polygon12" class="st0" points="2.4,24.2 2.4,21.9 0,21.9 0,24.2 2.4,24.2 	"/>
	<polygon id="polygon14" class="st0" points="0,18.1 0,20.4 6.1,20.4 6.1,18.1 0,18.1 	"/>
	<path id="path16" class="st0" d="M22.1,16.5v1.5h3.5v2.2h-3.5v3.9h-2.5v-9.8h7.3v2.2H22.1L22.1,16.5L22.1,16.5z M33.4,24.2h2.8
		l-1.9-3.8c1.1-0.5,1.8-1.4,1.8-2.9c0-2.2-1.5-3.2-3.7-3.2h-4.5v9.8h2.4v-3.4h1.4L33.4,24.2L33.4,24.2L33.4,24.2z M32.3,16.5
		c0.9,0,1.3,0.4,1.3,1.1c0,0.8-0.4,1.2-1.3,1.2h-1.9v-2.3H32.3L32.3,16.5L32.3,16.5z M37.5,24.2h7.4V22h-5v-1.9H43V18h-3.1v-1.4h4.6
		v-2.2h-7.1L37.5,24.2L37.5,24.2L37.5,24.2z M49.4,24.3c2.5,0,4-1,4-3.2c0-1.9-1.3-2.6-3.5-3.1c-1.4-0.3-1.7-0.5-1.7-1
		c0-0.4,0.2-0.7,1.1-0.7c1,0,1.8,0.3,2.6,0.9l1.3-1.8c-1-0.8-2.2-1.3-3.8-1.3c-2.2,0-3.7,1.2-3.7,3c0,2,1.2,2.6,3.4,3.1
		c1.5,0.4,1.8,0.6,1.8,1.1c0,0.5-0.4,0.8-1.4,0.8c-0.9,0-2.1-0.4-2.8-1l-1.3,1.8C46.3,23.8,47.8,24.3,49.4,24.3L49.4,24.3L49.4,24.3
		z M54.7,24.2h7.4V22h-5v-1.9h3.1V18h-3.1v-1.4h4.6v-2.2h-7.1V24.2L54.7,24.2L54.7,24.2z M69.7,24.2h2.1v-9.8h-2.4v5.4l-3.8-5.4
		h-2.2v9.8h2.4v-5.6L69.7,24.2L69.7,24.2L69.7,24.2z M73.5,24.2H76v-9.8h-2.5V24.2L73.5,24.2L73.5,24.2z M81.9,24.3
		c2.5,0,4.2-1.4,4.2-4.4v-5.6h-2.5v5.6c0,1.3-0.6,2.1-1.7,2.1c-1.1,0-1.7-0.8-1.7-2.1v-5.6h-2.5v5.6C77.7,23,79.4,24.3,81.9,24.3
		L81.9,24.3L81.9,24.3z M91,24.3c2.5,0,4-1,4-3.2c0-1.9-1.3-2.6-3.5-3.1c-1.4-0.3-1.7-0.5-1.7-1c0-0.4,0.2-0.7,1.1-0.7
		c1,0,1.8,0.3,2.6,0.9l1.3-1.8c-1-0.8-2.2-1.3-3.8-1.3c-2.2,0-3.7,1.2-3.7,3c0,2,1.2,2.6,3.4,3.1c1.5,0.4,1.8,0.6,1.8,1.1
		c0,0.5-0.4,0.8-1.4,0.8c-0.9,0-2.1-0.4-2.8-1L87,22.9C87.9,23.8,89.4,24.3,91,24.3L91,24.3L91,24.3z"/>
</g>
</svg>
