<?xml version="1.0" encoding="utf-8"?>
<!-- Generator: Adobe Illustrator 26.0.1, SVG Export Plug-In . SVG Version: 6.00 Build 0)  -->
<svg version="1.1" id="Layer_1" xmlns="http://www.w3.org/2000/svg" xmlns:xlink="http://www.w3.org/1999/xlink" x="0px" y="0px"
	 viewBox="0 0 95 35" style="enable-background:new 0 0 95 35;" xml:space="preserve">
<style type="text/css">
	.st0{fill:#FFFFFF;}
</style>
<g>
	<path class="st0" d="M37.1,15.7c-2.2,0-3.8,1.8-3.8,4.2c0,2.8,1.9,4.3,3.8,4.3c1.9,0,3.7-1.5,3.7-4.3
		C40.8,17.4,39.3,15.7,37.1,15.7z"/>
	<path class="st0" d="M95,21.1c0-0.1,0-0.1,0-0.2c0-0.1,0-0.1,0-0.2c0-0.1,0-0.2-0.1-0.3c0-0.1-0.1-0.3-0.1-0.4
		c0-0.1,0.1-0.1,0.2-0.2c0-0.1-0.1-0.2-0.1-0.2c0-0.1,0.1-0.1,0.1-0.2c0-0.1,0,0,0-0.1c0,0-0.1,0-0.1-0.1c-0.1-0.1,0-0.1,0.1-0.2
		c0.1-0.1,0-0.1,0-0.2c0,0-0.1-0.1-0.1-0.1c0,0,0.1,0,0.1-0.1c0-0.1,0,0,0-0.1c0,0-0.1-0.1-0.1-0.1c-0.1-0.1,0-0.2,0.1-0.2
		c0-0.1,0.1-0.1,0.1-0.2c0-0.1,0-0.1,0-0.2c0-0.1,0.2-0.2,0.1-0.2c-0.1-0.1-0.2,0-0.2-0.1c0-0.1,0.3-0.2,0.1-0.3
		c-0.1,0-0.1,0-0.1-0.1c0,0,0.1-0.2,0.1-0.2c-0.3,0-0.6,0-0.9,0c-0.1,0-0.3,0-0.4,0c-0.1,0-0.2,0-0.3,0c0,0-0.1,0-0.2,0
		c-0.2-0.1,0-0.3,0-0.4c0-0.1,0-0.2,0-0.3c0,0,0-0.1,0-0.1c0,0,0-0.1,0-0.2c0-0.1-0.1-0.1-0.1-0.2c0-0.1,0-0.1,0.1-0.2
		c0-0.1,0.1-0.2,0.1-0.2c0-0.1-0.1-0.1-0.1-0.1c-0.1-0.1,0.1-0.3,0.1-0.4c0.1-0.2,0.1-0.3,0-0.5c0-0.1,0-0.2,0-0.3
		c0-0.1,0-0.2,0-0.2c0-0.1,0-0.2,0-0.3c0-0.1-0.1-0.2-0.1-0.3c0-0.1,0-0.1,0-0.2c0-0.1,0-0.2,0-0.2c0-0.1,0-0.2,0-0.3
		c0-0.1,0-0.2-0.1-0.2c0-0.2,0-0.3,0.1-0.4c0-0.2-0.1-0.3-0.1-0.5c0-0.1,0-0.1,0-0.2c0-0.1,0-0.1,0-0.2c0-0.2,0.1-0.4,0.1-0.6
		c0-0.2,0-0.4,0-0.6c0-0.2-0.1-0.3-0.1-0.5c0-0.1,0-0.2,0-0.3c0-0.1,0-0.2,0-0.2c0-0.1,0.1-0.1,0.1-0.2c0-0.1,0-0.2,0-0.2
		c0-0.1,0-0.2,0-0.3c0-0.1,0-0.1-0.1-0.2c0-0.1,0-0.2,0-0.3c0-0.1,0-0.2,0-0.3c0-0.1,0.1-0.1,0.1-0.2c0-0.1,0-0.2,0-0.3
		c0-0.2,0.1-0.3,0.1-0.5c0-0.2,0-0.4,0-0.5c-0.1-0.2,0-0.3,0.1-0.5c0.1-0.2,0-0.3,0-0.4c0-0.1,0-0.2-0.1-0.2c0,0,0-0.1-0.1-0.1
		c0-0.1,0-0.1,0-0.2c0-0.1,0.1-0.1,0.1-0.2c0-0.1,0-0.1-0.1-0.1c-0.1-0.1,0-0.3,0-0.5c0-0.1,0.1-0.2,0.1-0.3c0,0,0-0.1,0-0.1
		c0,0-0.2,0-0.2,0c-0.3,0-0.7,0-1,0c-1.4,0.1-2.9,0.1-4.3,0.1c-2.6,0-5.3,0-7.9,0c-1.3,0-2.5,0-3.8,0c-3.1,0-6.1-0.1-9.2-0.1
		c-2.4,0-4.8,0-7.2,0c-1.5,0-3.1,0-4.6,0c-0.7,0-1.4,0-2.1,0c-0.6,0-1.2,0-1.9,0c-1.7,0-3.4,0.1-5.1,0.1c-2.5,0-5,0-7.5,0
		c-1.6,0-3.3,0-4.9-0.1c-2.8-0.1-5.6-0.1-8.3-0.1c-1.8,0-3.7,0-5.5-0.1c-1.1,0-2.2,0-3.2,0c-0.5,0-1,0-1.5,0c-0.2,0-0.3,0-0.5,0
		c-1.9,0.1-3.8,0.1-5.7,0.2c-2,0-4.1,0.1-6.1,0.1c-0.1,0-0.2,0-0.3,0c0,0-0.1,0-0.1,0c0,0,0,0.1,0,0.1c0,0.1,0,0.1,0,0.2
		c0,0.1,0,0.2,0,0.3C2,3.9,2,4,2,4c0,0.1-0.1,0.1-0.1,0.2C1.8,4.4,2,4.5,2,4.7C2,4.8,1.8,5.1,2,5c0.1,0,0.2-0.1,0.2,0
		c0,0.1,0,0.2-0.1,0.2c0,0-0.1,0.1-0.1,0.1c0,0-0.1,0.1-0.1,0.1C1.8,5.8,2,5.9,2.1,6.1c0,0.1,0,0.1,0,0.2c0,0.1,0,0.1,0.1,0.2
		c0.1,0.1,0.1,0.2,0,0.3C2,6.8,1.8,6.9,1.8,7c0,0.1,0,0.1,0,0.2c0,0.1,0,0.1,0,0.2c0,0,0.1,0.1,0.1,0.1c0,0.1-0.1,0.1-0.2,0.1
		C1.8,7.7,1.8,7.8,1.7,7.9c0,0.1,0,0.1,0,0.2c0.1,0.1,0.1,0.1,0.1,0.2c0,0.1,0,0.1,0,0.2c0,0.1,0,0.2,0,0.3c0,0.1,0,0.2-0.1,0.2
		c0,0.1,0,0.1,0,0.2c0,0.1-0.1,0.2-0.1,0.2c0,0.1,0,0.2,0,0.3c0,0.1,0.1,0.1,0.1,0.2c0,0,0,0.1,0,0.2c0,0.1,0,0.1,0,0.2
		c0,0.1,0.2,0.2,0.1,0.4c0,0.1-0.2,0.3-0.1,0.4c0,0.1,0.1,0.1,0.1,0.2c0.1,0.1,0.1,0.1,0,0.2c0,0.1-0.1,0.1,0,0.1
		c0,0,0.1,0.1,0.1,0.1C2,11.7,2,11.8,2,11.8c0,0.1-0.1,0.1-0.1,0.2c0,0.1,0.1,0.1,0.1,0.2c0,0.1,0,0.2-0.1,0.2c0,0-0.1,0.1-0.1,0.1
		c0,0.1,0.1,0,0.1,0.1c0,0.1-0.2,0.1-0.1,0.2c0,0.1,0.1,0.1,0.1,0.2c0,0.1,0,0.1-0.1,0.1c0,0-0.1,0-0.1,0.1c0,0.1,0.1,0.1,0.2,0.2
		c0.1,0,0.2,0.1,0.1,0.2c-0.1,0.1-0.2,0.1-0.2,0.1c-0.1,0.2,0.2,0.2,0.3,0.2c0.1,0,0.3,0,0.2,0.2C2,14.2,2,14.2,1.9,14.3
		c0,0.1,0,0.2,0,0.2c0,0.1-0.1,0.1-0.1,0.1c0,0.1,0.1,0.1,0.1,0.1c0,0.1,0,0.1,0,0.2c0,0,0,0.1,0,0.1c0,0.1,0,0.1-0.1,0.1
		c-0.1,0.2,0.2,0.1,0.2,0.3c0,0,0,0.1,0,0.1c0,0,0,0.1,0,0.1c0,0.1,0,0.1-0.1,0.1c-0.2,0-0.3,0-0.5,0c-0.2,0-0.5,0-0.7,0
		c-0.2,0-0.3,0-0.5,0c0,0-0.1,0-0.1,0c0,0,0,0,0,0.1c0,0.1,0,0.2,0,0.3c0,0.1-0.1,0.2,0,0.2c0,0.1,0.2,0.1,0.2,0.2
		c0,0-0.1,0.1-0.1,0.1c0,0,0,0.1,0,0.1c0,0.1,0,0.2,0,0.2c0,0-0.1,0-0.2,0.1c0,0.1,0,0.1,0,0.2c0,0.1,0,0.1,0,0.2
		c0,0.1,0.1,0.1,0.1,0.2c0,0.1,0.1,0.1,0,0.2c0,0-0.1,0-0.1,0.1c-0.1,0.1,0,0.1,0,0.2c0,0,0,0,0,0.1c0,0.1,0,0.1,0,0.2
		c0,0.1,0.1,0.1,0.1,0.2c0.1,0,0.1,0.1,0.1,0.2c0,0.1-0.1,0.1-0.2,0.2c0,0.1-0.1,0.1-0.1,0.2c0,0.1,0.2,0.2,0.2,0.3
		c0,0.1,0,0.2,0,0.2c0,0.1-0.1,0.1-0.1,0.2c0,0.1,0,0.1,0,0.2c0,0.1,0,0.1,0,0.2c0,0.1,0,0.2,0,0.2c0,0.1-0.1,0.1-0.2,0.2
		C0.1,20.9,0,21.1,0,21.2c0,0.1,0.1,0.1,0.1,0.2c0,0.1,0,0.1,0,0.1c0,0.1,0.1,0.2,0.1,0.3c0,0.1,0,0.2,0,0.3c0,0.1,0,0.2,0,0.3
		c0,0.1,0,0.2,0,0.2c0,0.1-0.1,0.1-0.1,0.2c0,0,0,0.1,0,0.1c0,0.2-0.2,0.2-0.1,0.3c0.1,0.2,0.1,0.3,0.1,0.5c0,0.1,0,0.1,0,0.2
		c0,0.1,0.1,0.1,0.1,0.2c0,0.2-0.2,0.3-0.1,0.5c0,0.1,0,0.1,0,0.2c0,0.1,0,0.2,0,0.3c0,0.2,0,0.4,0,0.6c0,0.1,0.1,0.2,0.1,0.2
		c0,0.1,0.1,0.2,0.1,0.3c0.1,0.1,0.2,0.3,0.2,0.4c0,0.1-0.1,0.3,0,0.4c0.1,0.1,0.3,0.1,0.3,0.3c0,0.1,0,0.2,0,0.3
		c0,0.1,0,0.2,0.1,0.2c0,0.1,0,0.1,0.1,0.1c0.1,0,0.3,0,0.4,0c0.4,0,0.8,0,1.2,0c0.4,0,0.8,0,1.1,0c0,0,0.2,0,0.2,0c0,0,0,0.1,0,0.2
		c0,0.1,0,0.2,0,0.3c0,0.1,0,0.1-0.1,0.2c0,0.1-0.1,0.1-0.1,0.2c0,0.1,0,0.1,0,0.2c0.1,0.1,0,0.2,0,0.3c0,0.1,0,0.1,0,0.2
		c0,0.1,0,0.1-0.1,0.2c-0.1,0.2,0,0.3,0,0.5c0,0.1,0,0.1,0,0.2c0,0.1,0,0.1,0,0.2c0,0.1,0,0.2,0,0.3c0,0,0,0,0,0.1
		c0,0.1,0,0.1,0,0.2c0,0.1,0,0.3,0,0.4c0,0.1,0,0.2,0,0.3c0,0.1,0,0.2,0.1,0.2c0,0,0.1,0,0.1,0c0.1,0,0.3,0,0.4,0c0.3,0,0.6,0,0.9,0
		c0.7,0,1.4,0,2.1,0c2.3,0,4.6-0.1,6.8-0.2c0.1,0,0.3,0,0.4,0c0.5,0,1,0,1.5,0c1,0,2.1,0,3.1,0c1.8,0,3.6,0,5.4,0.1
		c2.7,0,5.4,0.1,8.2,0.1c1.8,0,3.6,0.1,5.4,0.1c2.6,0,5.2,0,7.9,0c2.3,0,4.5-0.1,6.8-0.1c0.6,0,1.2,0,1.9,0c1.4,0,2.7,0,4.1,0
		c2.2,0,4.4,0,6.6,0c3.1,0,6.2,0.1,9.3,0.1c1.4,0,2.8,0,4.2,0.1c2.7,0,5.4,0,8.1,0c1.5,0,2.9-0.1,4.4-0.1c1.1,0,2.2-0.1,3.2,0
		c0,0,0.1,0,0.2,0c0,0,0,0,0.1,0c0,0,0.1,0,0.1,0c0.1-0.1,0-0.1,0-0.2c-0.1-0.1,0-0.1,0-0.2c0-0.1,0-0.1-0.1-0.2
		c-0.1-0.1-0.1-0.1-0.1-0.2c0-0.1,0-0.1-0.1-0.1c-0.1-0.1-0.2-0.1-0.2-0.2c0-0.1,0.3-0.2,0.2-0.4c0-0.1-0.1-0.1-0.1-0.1
		c-0.1-0.1,0-0.2,0.1-0.2c0.1-0.1,0.1-0.3,0.1-0.4c0-0.1-0.1-0.1-0.1-0.2c0-0.1,0-0.2,0-0.3c0.1-0.2,0-0.2-0.1-0.4
		c-0.1-0.2,0.1-0.3,0.2-0.3c0.1,0,0.1-0.1,0.2-0.2c0-0.1,0-0.2,0-0.2c0-0.1-0.2-0.2-0.2-0.3c0-0.1,0.3-0.2,0.2-0.3
		c0-0.1-0.4-0.1-0.3-0.3c0.1-0.1,0.3,0,0.3-0.2c0,0-0.1-0.1-0.1-0.1c0-0.1,0,0,0-0.1c0.1-0.1,0.1-0.1,0.1-0.2c0-0.1,0-0.2-0.1-0.3
		c0-0.1,0-0.1,0-0.2c0-0.1,0-0.1,0-0.2c0-0.1,0-0.1,0-0.2c0-0.1,0-0.1,0-0.2c0-0.1,0-0.2-0.1-0.2c0-0.1-0.1-0.1-0.1-0.1
		c0,0,0-0.2,0-0.2c0-0.1,0.1-0.1,0.2-0.1c0.1-0.1,0-0.1,0-0.2c0-0.1-0.1-0.2-0.1-0.2c0-0.1,0-0.1,0-0.2c0-0.1,0-0.1,0-0.2
		c0-0.1,0-0.1,0-0.2c0-0.1-0.1-0.2-0.1-0.3c0-0.1,0.1-0.1,0.1-0.2c0-0.1,0-0.2,0-0.3c0-0.1,0-0.2,0-0.3c0-0.1,0-0.2,0-0.2
		c0-0.1-0.1-0.2,0-0.3c0-0.1,0-0.1,0-0.2c0-0.1,0.1-0.1,0.1-0.2c0-0.1-0.1-0.3,0-0.4C94.8,21.2,94.9,21.2,95,21.1z M16.9,25.1
		c-1,0.8-2.3,1.2-3.7,1.2c-2.8,0-5-1.6-5.6-4.2l2.2-0.8l0,0.1c0.5,2.1,2.1,2.8,3.5,2.8c1.4,0,2.8-0.7,2.8-2.4c0-1.6-1.3-2.3-3.3-3.1
		l-0.2-0.1c-1.9-0.8-4.3-1.8-4.3-4.9c0-3.2,2.5-4.7,4.8-4.7c1.8,0,3.9,0.9,4.7,2.9l0,0.1l-2.1,0.8c-0.5-1.1-1.7-1.7-2.7-1.7
		c-1.2,0-2.5,0.8-2.5,2.4c0,1.6,1.2,2.2,3,2.9l0.2,0.1c2.2,0.9,4.7,1.9,4.7,5C18.5,23,18,24.2,16.9,25.1z M30.5,23.1
		c-1,2-2.9,3.1-5.1,3.1c-2.8,0-5.7-2-5.7-6.3c0-2,0.6-3.6,1.8-4.8c1-1,2.4-1.6,3.9-1.6c2.1,0,4,1.1,4.8,2.9l0,0.1l-2,0.8
		c-0.6-1-1.6-1.7-2.8-1.7c-2.4,0-3.5,2.2-3.5,4.2c0,2.9,1.8,4.3,3.6,4.3c1.3,0,2.5-0.7,3.1-1.9L30.5,23.1L30.5,23.1L30.5,23.1z
		 M37.1,26.2c-3.4,0-5.9-2.7-5.9-6.3s2.5-6.3,5.9-6.3c3.4,0,5.9,2.7,5.9,6.3C43,23.6,40.5,26.2,37.1,26.2z M54.2,25.9h-1.7l-0.4-1.6
		c-0.7,1.2-2,1.9-3.6,1.9c-1.9,0-4.1-1.2-4.1-4.6v-7.7h2.1v7.7c0,2,1.2,2.6,2.4,2.6c1.5,0,3.2-1.2,3.2-3.4h0v-6.9h2.1V25.9z
		 M62.3,15.8h-2.5v6.8c0,1.1,0.5,1.7,1.3,1.7c0.3,0,0.7-0.1,1-0.3l0.1-0.1V26l-0.1,0c-0.6,0.2-1.1,0.2-1.6,0.2c-1.1,0-3-0.5-3-3.8
		v-6.6h-2v-1.9h2v-2.6l2.1-0.8v0h0l0,0v3.4h2.5V15.8z M75.1,25.9H63.9v-2.1l0,0c0.6-0.5,1.2-0.9,1.8-1.3c3.9-3,6.8-5.2,6.8-8
		c0-2.2-1.5-3.1-3-3.1c-1.6,0-3.1,1.1-3.1,3.2l-2.1,0.8c0-0.1,0-0.3,0-0.5c0-3.9,2.8-5.6,5.5-5.6c3,0,5.1,2,5.1,4.9
		c0,3.7-3.3,6.2-6.5,8.7c-0.3,0.3-0.7,0.5-1,0.8h7.9V25.9z M87.7,21.9h-2.8v4h-2.2v-4h-7.6v-1.6l6.3-10.7h2.4l-5.9,10.1h4.9v-4.1
		l2.2-0.8v4.9h2.8V21.9z"/>
</g>
</svg>
