<?xml version="1.0" encoding="utf-8"?>
<!-- Generator: Adobe Illustrator 26.0.1, SVG Export Plug-In . SVG Version: 6.00 Build 0)  -->
<svg version="1.1" id="Layer_1" xmlns="http://www.w3.org/2000/svg" xmlns:xlink="http://www.w3.org/1999/xlink" x="0px" y="0px"
	 viewBox="0 0 95 35" style="enable-background:new 0 0 95 35;" xml:space="preserve">
<style type="text/css">
	.st0{fill-rule:evenodd;clip-rule:evenodd;fill:#CCCCCC;}
</style>
<g id="layer1" transform="translate(-290.14661,-117.49545)">
	<path id="path3353" class="st0" d="M345.1,131.5c-1.1,0-1.7,0.3-2.1,0.5c-0.5,0.3-0.8,0.7-0.9,0.9c-0.6,0.8-0.7,1.7-0.7,2.1
		c0,0.9,0.3,1.6,0.7,2.1h0c0.2,0.2,0.3,0.4,0.5,0.5c0.7,0.6,1.5,0.8,2.4,0.8l0.1,0c0.3,0,0.6,0,0.8-0.1c0.4-0.1,0.7-0.1,0.9-0.2
		c0.3-0.1,0.5-0.1,0.8-0.2v-0.9h0l0-2.4h-1.7v2.2c-0.1,0.1-0.4,0.2-0.7,0.2c-0.1,0-0.1,0-0.2,0c-0.5-0.1-1.3-0.3-1.7-1.2
		c-0.2-0.4-0.2-0.7-0.2-0.8c0-0.4,0.1-1.5,1.2-2c0.4-0.2,0.8-0.2,1-0.2c0.4,0,0.8,0.1,1.1,0.2c0.1,0,0.3,0.1,0.4,0.1l0.4-1.2
		C346.9,131.8,346.2,131.5,345.1,131.5z M374.6,131.5l-0.7,0.3v5.2h0v1.2h0.8v-1.2h0v-2.9c0-0.2,0-0.4,0-0.6c0-0.3,0-0.5-0.1-0.8
		c0.3,0.5,0.3,0.5,0.8,1.2c0.5,0.6,0.9,1.2,1.4,1.9c0.3,0.4,0.6,0.9,1,1.3h0c0.3,0.4,0.6,0.9,0.9,1.3l0.6-0.3v-1h0v-5.5h-0.8v4.3
		c0,0.5,0,0.8,0.1,1.2h0c0,0,0,0.1,0,0.1c-0.1,0-0.1-0.1-0.1-0.1h0c-0.1-0.2-0.2-0.3-0.3-0.5c-0.2-0.3-0.4-0.6-0.6-0.9
		c-0.4-0.6-0.9-1.2-1.3-1.8C375.7,133.1,375.1,132.3,374.6,131.5z M352.1,131.6c-1.5,0-2.4,0.8-2.8,1.3c-0.5,0.6-0.8,1.4-0.8,2.2
		c0,0.7,0.2,1.5,0.6,2h0c0.1,0.2,0.3,0.4,0.5,0.6c0.9,0.8,1.8,0.8,2.3,0.8c1.2,0,2-0.5,2.3-0.7l-0.3-0.6c-0.6,0.3-1.2,0.6-1.9,0.6
		c-0.9,0-1.4-0.4-1.8-0.7h0c0,0,0,0,0,0c-0.1-0.1-0.2-0.2-0.3-0.3c-0.5-0.7-0.5-1.5-0.5-1.8c0-0.4,0-1.4,0.9-2.2
		c0.7-0.6,1.4-0.6,1.7-0.6c0.7,0,1.1,0.2,1.4,0.3c0.2,0.1,0.3,0.2,0.5,0.2l0.3-0.6c-0.1-0.1-0.3-0.2-0.4-0.2
		C353.1,131.6,352.4,131.6,352.1,131.6z M336.9,131.6c-0.1,0-0.3,0-0.4,0h-0.7v5.5h0v1.2h1.7v-1.2h0v-1.3l0.2,0c0.1,0,0.3,0,0.4,0.1
		c0.2,0.1,0.3,0.3,0.5,0.6l0.3,0.6h0l0.6,1.2h1.9l-0.6-1.2h0l-0.5-0.9c-0.2-0.3-0.4-0.6-0.7-0.8c-0.1,0-0.1-0.1-0.2-0.1
		c0.1,0,0.2,0,0.3-0.1c0.2,0,0.4-0.1,0.4-0.2c0.2-0.1,0.3-0.2,0.5-0.4c0.3-0.3,0.4-0.8,0.4-1.2c0-0.5-0.2-0.9-0.3-1.1
		c-0.5-0.8-1.5-0.8-2.3-0.8C337.8,131.6,337.3,131.6,336.9,131.6z M290.2,131.6v1.8h1.8v-1.8H290.2z M307.6,131.6
		c-0.1,0-0.2,0-0.2,0h-2v5.5h0v1.2h1.7l0.9,0h0.2c0.8,0,1.2-0.1,1.5-0.2c0.6-0.2,1.2-0.6,1.6-1h0c0.2-0.3,0.4-0.6,0.6-1
		c0.2-0.5,0.2-1,0.2-1.2c0-1.5-0.8-2.3-1.2-2.6c-0.8-0.6-1.6-0.6-1.9-0.7c-0.2,0-0.4,0-0.6,0C308.1,131.6,307.9,131.6,307.6,131.6z
		 M324.1,131.6v5.5h0v1.2h1.7l0.9,0c0.9,0,1.4,0,1.8-0.3c0.2-0.1,0.6-0.4,0.8-0.9h0c0.1-0.2,0.1-0.4,0.1-0.6c0-0.4-0.1-0.8-0.4-1.1
		c-0.3-0.3-0.6-0.5-0.8-0.5c0.2-0.1,0.3-0.1,0.5-0.2c0.4-0.3,0.5-0.8,0.6-1c0-0.1,0-0.2,0-0.3c0-0.7-0.3-1.1-0.5-1.3
		c-0.4-0.3-0.9-0.5-1.8-0.5H324.1z M294.1,131.6v2.6h-4v2.9h0v1.2h1.8v-1.2h0v-1.4h2.2v1.4h0v1.2h1.7v-1.2h0v-5.5H294.1z
		 M296.9,131.6v5.5h0v1.2h4.6v-1.2h0v-0.2h-2.9v-1.3h2.9v-1.4h-2.9V133h2.9v-1.4H296.9z M302.5,131.6v5.5h0v1.2h1.7v-1.2h0v-5.5
		H302.5z M312.9,131.6v5.5h0v1.2h4.6v-1.2h0v-0.2h-2.9v-1.3h2.9v-1.4h-2.9V133h2.9v-1.4H312.9z M318.5,131.6v5.5h0v1.2h4.7v-1.2h0
		v-0.2h-2.9v-5.3H318.5z M330.1,131.6v5.5h0v1.2h4.6v-1.2h0v-0.2h-2.9v-1.3h2.9v-1.4h-2.9V133h2.9v-1.4H330.1z M355.2,131.6v5.5h0
		v1.3h3.6v-0.7h-2.8v-0.6h0v-1.9h2.7v-0.7h-2.6v-2.3h2.7v-0.7H355.2z M366.1,131.6c-0.2,0.6-0.5,1.2-0.7,1.8c-0.2,0.5-0.4,1-0.6,1.5
		c-0.2,0.5-0.4,0.9-0.5,1.4c-0.1,0.3-0.2,0.6-0.3,0.8h0c-0.1,0.1-0.1,0.3-0.2,0.4c0-0.1-0.1-0.3-0.1-0.4h0c0-0.1-0.1-0.3-0.1-0.4
		c-0.1-0.4-0.3-0.8-0.4-1.1l-0.5-1.4c-0.3-0.9-0.6-1.7-0.9-2.6l-0.9,0l-1,5.5h0l-0.2,1.2l0.8,0.1c0.1-0.4,0.1-0.9,0.2-1.3h0
		c0-0.2,0.1-0.5,0.1-0.7c0.1-0.6,0.2-1.3,0.3-1.9c0.1-0.7,0.2-1.4,0.3-2c0.1,0.3,0.2,0.7,0.3,1c0.1,0.2,0.1,0.4,0.2,0.6
		c0.2,0.6,0.4,1.2,0.6,1.8c0.2,0.4,0.3,0.9,0.5,1.3h0c0.1,0.4,0.3,0.8,0.4,1.3h0.8c0.2-0.4,0.3-0.8,0.5-1.3c0,0,0,0,0,0
		c0.3-0.7,0.5-1.4,0.8-2.1c0.1-0.2,0.2-0.4,0.3-0.7c0.1-0.3,0.2-0.5,0.3-0.8c0.1-0.3,0.2-0.7,0.4-1c0,0.7,0.1,1.1,0.2,2.5
		c0.1,0.7,0.2,1.4,0.3,2.2h0c0.1,0.4,0.1,0.9,0.2,1.3l0.8-0.2l-0.2-1.2h0l-0.9-5.5H366.1z M369.1,131.6v5.5h0v1.3h3.6v-0.7h-2.8
		v-0.6h0v-1.9h2.7v-0.7h-2.6v-2.3h2.7v-0.7H369.1z M380,131.6v0.7h2.1v4.8h0v1.2h0.9v-1.2h0v-4.8h2.1v-0.7H380z M325.8,132.9h0.8
		c0.3,0,0.6,0,0.8,0.3c0.1,0.2,0.2,0.4,0.2,0.5c0,0.2-0.1,0.3-0.1,0.4c-0.1,0.2-0.3,0.3-0.8,0.3h-0.9V132.9z M337.4,132.9h0.8
		c0.1,0,0.3,0,0.4,0c0.5,0.1,0.6,0.6,0.6,0.7c0,0.3-0.1,0.4-0.2,0.5c-0.2,0.2-0.5,0.3-0.8,0.3c-0.1,0-0.2,0-0.3,0h-0.5V132.9z
		 M307.9,132.9c0.8,0,1.5,0.1,2,0.8c0.1,0.2,0.3,0.6,0.3,1.1c0,0.7-0.3,1.1-0.5,1.4c-0.5,0.5-1.1,0.7-1.7,0.7l-0.9,0v-4
		C307.4,132.9,307.7,132.9,307.9,132.9z M325.8,135.6h0.8c0.3,0,0.7,0,0.9,0.3c0.1,0.2,0.1,0.3,0.1,0.4c0,0.4-0.3,0.6-0.4,0.6
		c-0.1,0-0.3,0.1-0.5,0.1l-0.9,0V135.6z"/>
</g>
</svg>
