<?xml version="1.0" encoding="utf-8"?>
<!-- Generator: Adobe Illustrator 26.0.1, SVG Export Plug-In . SVG Version: 6.00 Build 0)  -->
<svg version="1.1" id="Layer_1" xmlns="http://www.w3.org/2000/svg" xmlns:xlink="http://www.w3.org/1999/xlink" x="0px" y="0px"
	 viewBox="0 0 95 35" style="enable-background:new 0 0 95 35;" xml:space="preserve">
<style type="text/css">
	.st0{fill:#FFFFFF;}
	.st1{fill-rule:evenodd;clip-rule:evenodd;fill:#FFFFFF;}
</style>
<path id="path5195" class="st0" d="M16.9,17.5c0-9.6,14.2-16.7,30.6-16.7s30.6,7.1,30.6,16.7c0,9.6-14.2,16.7-30.6,16.7
	S16.9,27.1,16.9,17.5"/>
<path id="path5197" class="st1" d="M47.5,0c17.3,0,31.4,7.8,31.4,17.5c0,9.7-14.1,17.5-31.4,17.5c-17.3,0-31.4-7.8-31.4-17.5
	C16.1,7.8,30.2,0,47.5,0z M47.5,1.6C31,1.6,17.7,8.7,17.7,17.5c0,8.8,13.4,15.9,29.8,15.9s29.8-7.1,29.8-15.9
	C77.3,8.7,64,1.6,47.5,1.6z M42,19.2h-6.2c0.1,1.5,0.9,2.2,2.2,2.2c1,0,1.6-0.5,1.8-1.1h2c-0.5,1.8-2,2.7-3.9,2.7
	c-2.6,0-4.3-1.8-4.3-4.4c0-2.5,1.7-4.4,4.3-4.4C40.8,14.2,42.1,16.6,42,19.2z M37.9,15.8c-1.3,0-1.9,0.9-2,2h4
	C39.7,16.6,39.2,15.8,37.9,15.8z M68.7,19.2h-6.2c0.1,1.5,0.9,2.2,2.2,2.2c1,0,1.6-0.5,1.8-1.1h2c-0.5,1.8-2,2.7-3.9,2.7
	c-2.6,0-4.3-1.8-4.3-4.4c0-2.5,1.7-4.4,4.3-4.4C67.5,14.2,68.9,16.6,68.7,19.2z M64.6,15.8c-1.3,0-1.9,0.9-2,2h4
	C66.4,16.6,65.9,15.8,64.6,15.8z M22.8,22.8h2.3v-5h5v5h2.3V11.2h-2.3V16h-5v-4.7h-2.3V22.8z M43.2,22.8h2.2v-4.5
	c0-1.7,0.6-2.4,1.8-2.4c1.1,0,1.5,0.7,1.5,2.1v4.9H51v-5.1c0-2.1-0.6-3.4-3.1-3.4c-1,0-2,0.5-2.6,1.4h-0.1v-1.2h-2V22.8z M52.8,22.8
	H55v-4.5l3.2,4.5h2.7l-3.5-4.7l3.1-3.7h-2.6L55,18v-6.8h-2.2V22.8z M70,22.8h2.2V11.2H70V22.8"/>
</svg>
