<?xml version="1.0" encoding="utf-8"?>
<!-- Generator: Adobe Illustrator 26.0.1, SVG Export Plug-In . SVG Version: 6.00 Build 0)  -->
<svg version="1.1" id="Layer_1" xmlns="http://www.w3.org/2000/svg" xmlns:xlink="http://www.w3.org/1999/xlink" x="0px" y="0px"
	 viewBox="0 0 95 35" style="enable-background:new 0 0 95 35;" xml:space="preserve">
<style type="text/css">
	.st0{fill:#343741;}
</style>
<g>
	<path id="path6387" class="st0" d="M35.9,29c-0.3-0.3-0.7-0.8-1,0.2c-0.4,1.3-1.7,1.3-2.4,1.2c-0.1,0-0.2-0.1-0.2-0.1
		c-0.3-0.1-0.7-0.2-1-0.3c-2.8-1.1-3.3-4.2-2.2-6.7c0,0-2.4,5.2,1.6,7.2c1.3,0.7,2.8,0.7,4.1,1.4c0.4,0.2,0.7,0.4,1.1,0.6
		c0.7,0.4,1.5,0.9,2.2,1.2c0.1,0.1,0.2,0.1,0.3,0.1c5.2,2.1,11.2,1.5,16.1-1c0.9-0.4,1.6-0.9,2.4-1.4c1.5-0.9,3-2.3,3-2.3
		C56.5,31.2,44.4,38.4,35.9,29"/>
	<g>
		<path class="st0" d="M50.2,7.2c-0.7-0.2-1.4,3.4-1.1,6.2C49.9,11.9,50.8,7.4,50.2,7.2z"/>
		<path class="st0" d="M45.3,20.6l-0.4,0.1c-0.1,0-0.1,0.1-0.1,0.1V23c0,0.1,0.1,0.1,0.1,0.1l0.4-0.1c0.6-0.1,0.7-0.3,0.7-1.3
			C46,20.8,45.8,20.6,45.3,20.6z"/>
		<path class="st0" d="M43.9,14c0.1,0,0.2,0,0.2,0c0.1,0,0.2,0,0.3,0c0.2-0.1,0.3-0.1,0.5-0.2c0.2-0.1,0.3-0.2,0.3-0.3
			c0.2-0.3,0.3-0.5,0.4-0.9c0-0.2,0.1-0.4,0.1-0.5c0-0.2,0-0.3,0-0.5c0-0.2-0.1-0.3-0.2-0.3c0,0,0,0,0,0c0,0,0,0,0,0s0,0,0,0h-0.1
			c-0.1,0-0.1,0-0.2,0c-0.1,0-0.2,0.1-0.4,0.3s-0.2,0.3-0.3,0.5c-0.2,0.3-0.3,0.7-0.4,1C44,13.2,44,13.6,43.9,14L43.9,14L43.9,14z"
			/>
		<path class="st0" d="M54.2,7.1c-0.7-0.2-1.3,3.1-1.1,6C53.9,11.5,54.8,7.3,54.2,7.1z"/>
		<path class="st0" d="M58.1,15.3c0.1-0.1,0.2-0.2,0.3-0.5c0.7-1.3,1.1-4.2,0.5-5.3c-0.1-0.1-0.2-0.4-0.5-0.4
			c-0.3,0-0.7,0.2-0.9,0.7c-0.8,1.4-0.8,4.8,0,5.6C57.6,15.5,58,15.4,58.1,15.3z"/>
		<path class="st0" d="M66.3,6.4L66.3,6.4C66,6,65.8,5.8,65.4,5.5c-0.1,0-0.1-0.1-0.2-0.1c0,0-0.1,0-0.1-0.1
			c-0.6-0.3-1.3-0.5-2.1-0.8C63,4.5,62.9,4.6,63,4.7c1.7,2,1.9,3.6-0.1,1.2C57.8-0.3,48.8,0,48.2,0.1c-0.5,0-1,0.1-1.5,0.2
			c-4.6,0.7-9,3.2-12.2,6.7c-0.7,0.8-1.4,1.6-2,2.6c-1.6,2.4-2.6,5.2-3,8.1c-0.2,1.8,0.3,4-0.4,5.7c-1,2.5-0.8,5.8,2,6.9
			c0.3,0.1,0.8,0.3,1.2,0.4c1,0.3,2.1,0.3,3,0.8c0.2,0.1,0.4,0.2,0.5,0.3c0.2,0.1,0.3,0.2,0.5,0.3c0.7,0.4,1.5,0.9,2.3,1.2
			c0,0,0.1,0,0.1,0.1c0.1,0,0.1,0.1,0.2,0.1c2.1,0.9,4.4,1.2,6.6,1.3c0.3,0,0.7,0,1,0c0.2,0,0.3,0,0.5,0c0.3,0,0.7-0.1,1-0.1
			c0.3-0.1,0.7-0.1,1-0.2c0.2,0,0.3-0.1,0.5-0.1c1.9-0.4,3.7-1,5.4-1.9c0.2-0.1,0.4-0.2,0.6-0.3c0.2-0.1,0.4-0.2,0.6-0.3
			c0.4-0.2,0.8-0.5,1.2-0.7c0.6-0.4,1.1-0.8,1.6-1.2c0.3-0.2,0.5-0.5,0.8-0.7c0.5-0.5,1-0.9,1.4-1.5c0.6-0.8,1.2-1.6,1.8-2.4
			c1.4-2.2,2.3-4.7,2.9-7.3c0-0.1,0.1-0.2,0.1-0.3c0-0.1,0.1-0.2,0.1-0.3c0.3-1.8,0.4-3.7,0.3-5.6C66.4,9.6,67.2,8.2,66.3,6.4z
			 M32,28.2c-0.4,0.2-1,0-1.3-0.6c-0.3-0.5-0.3-0.9-0.2-1.1l0.2-0.2c0.7-0.5,1.1,0.2,1.5,0.7C32.4,27.5,32.3,27.9,32,28.2z
			 M41.9,3.3c4.1-2.2,8.5-1.5,8.5-1.5S46.1,2,41.6,4.6C37.9,6.7,39.3,4.7,41.9,3.3z M42.8,20.9c0,0.1-0.1,0.3-0.3,0.3l-1.7,0.3
			c-0.1,0-0.1,0.1-0.1,0.1v1.9c0,0.1,0.1,0.1,0.1,0.1l1.2-0.2c0.2,0,0.3,0.1,0.3,0.2v0.6c0,0.1-0.1,0.3-0.3,0.3l-1.2,0.2
			c-0.1,0-0.1,0.1-0.1,0.1v3c0,0.1-0.1,0.3-0.3,0.3l-0.7,0.1c-0.2,0-0.3-0.1-0.3-0.2v-7c0-0.1,0.1-0.3,0.3-0.3l2.8-0.5
			c0.2,0,0.3,0.1,0.3,0.2V20.9z M47.2,26.5c0,0.1-0.1,0.3-0.2,0.3l-0.7,0.1c-0.2,0-0.3-0.1-0.3-0.2l-0.8-2.7c0-0.1-0.1-0.1-0.1-0.1
			L44.9,24c-0.1,0-0.1,0.1-0.1,0.1V27c0,0.1-0.1,0.3-0.3,0.3l-0.7,0.1c-0.1,0-0.3-0.1-0.3-0.2v-7c0-0.1,0.1-0.3,0.3-0.3l1.7-0.3
			c1.5-0.2,1.8,0.7,1.8,2c0,1.2-0.2,1.7-0.8,2.1c0,0-0.1,0.1-0.1,0.2L47.2,26.5z M51.5,25.8c0,0.1-0.1,0.3-0.3,0.3l-2.8,0.5
			c-0.1,0-0.3-0.1-0.3-0.2v-7c0-0.1,0.1-0.3,0.3-0.3l2.7-0.5c0.1,0,0.3,0.1,0.3,0.2v0.6c0,0.1-0.1,0.3-0.3,0.3l-1.6,0.3
			c-0.1,0-0.1,0.1-0.1,0.1v1.8c0,0.1,0.1,0.1,0.1,0.1l1.1-0.2c0.2,0,0.3,0.1,0.3,0.2v0.5c0,0.1-0.1,0.3-0.3,0.3L49.5,23
			c-0.1,0-0.1,0.1-0.1,0.1v2.1c0,0.1,0.1,0.1,0.1,0.1l1.7-0.3c0.1,0,0.2,0.1,0.3,0.2V25.8z M53.9,25.7c-1.2,0.2-1.9-0.5-1.9-1.6
			v-0.5c0-0.1,0.1-0.3,0.3-0.3l0.6-0.1c0.2,0,0.3,0.1,0.3,0.2v0.4c0,0.6,0.2,0.9,0.7,0.8c0.3-0.1,0.7-0.3,0.7-0.9
			c0-0.7-0.5-1.1-1.2-1.6c-0.6-0.5-1.3-1.1-1.3-2.2c0-1,0.5-1.9,1.8-2.2c1.1-0.2,1.8,0.3,1.8,1.7v0.2c0,0.1-0.1,0.2-0.2,0.3
			l-0.7,0.1c-0.1,0-0.2-0.1-0.2-0.2v-0.2c0-0.8-0.2-1-0.6-0.9c-0.4,0.1-0.6,0.4-0.6,0.8c0,0.6,0.4,0.9,1.1,1.5
			c0.8,0.6,1.4,1.2,1.3,2.2C55.7,24.7,55,25.5,53.9,25.7z M55.7,13.8c-0.8,2.5-2.3,4.2-3.5,1.2c-0.3,0.7-3.1,4.3-4.1,0.2l0-0.1
			c-0.3,0.5-2.1,3.7-4.4,2.6c-0.2-0.1-0.3-0.2-0.5-0.4c-0.2-0.3-0.4-0.6-0.5-1c-0.1-0.3-0.2-0.8-0.2-1.1c0-0.2,0-0.4,0-0.6
			c0-0.1,0-0.2,0-0.3c-0.3,0-0.6,0-0.9-0.1h-0.2c0,1.6,0,3.3,0.1,4.3c0,0,0,0.1-0.1,0.1c-0.6,0.1-1.4,0.5-1.3-1.1
			c0-0.9,0.1-2.3,0.1-3.2c-0.6,0.1-1.2,0.2-1.8,0.3l-0.6,0.2c0,0.4,0,0.8,0,1.1c-0.1,2.1-0.1,4.8,0.1,5.9c0,0,0,0.1-0.1,0.1
			c-0.7,0.1-1.5,0.4-1.4-1.3c0,0,0.1-3.3,0.1-4.5c0-0.3,0-0.5,0-0.8c-0.4,0.2-0.6,0.3-0.9,0.5c-0.1,0.1-0.2,0.1-0.2,0.1
			c-0.1,0.1-0.1,0.1-0.2,0.1c-0.1,0.1-0.4,0.3-0.5,0.3c-0.1,0-0.1,0-0.1,0c0,0-0.1-0.1-0.2-0.3c-0.1-0.3-0.1-0.7,0.3-0.9
			c0.2-0.1,0.4-0.2,0.5-0.3c0.3-0.2,0.8-0.4,1.4-0.6c0-1.7,0-3.8-0.1-4.3c0,0,0-0.1,0.1-0.1c0.3-0.1,1.5-0.4,1.4,0.8
			c0,0-0.1,1.8-0.1,3.3c0.1,0,0.3-0.1,0.5-0.1c0.6-0.1,1.2-0.1,1.9-0.1c0.1-2.6,0-5.3-0.1-6.1l0.1-0.1c0.3-0.1,1.5-0.4,1.4,0.7
			c-0.1,1.7-0.1,3.8-0.1,5.5v0.1c0.4,0,0.8,0.1,1.1,0.1c0.2-0.8,0.5-1.6,1.1-2.3c0.2-0.2,0.9-0.9,1.5-1c0.8-0.2,1.3,0.3,1.5,0.7
			c0.2,0.5,0.2,0.9,0.1,1.4v0.1c0,0,0,0.1,0,0.1c0,0.1,0,0.1-0.1,0.2c0,0.1-0.1,0.2-0.1,0.4c-0.1,0.2-0.3,0.5-0.5,0.7
			c-0.2,0.2-0.6,0.4-0.9,0.5c-0.3,0.1-0.5,0.1-0.8,0.1c-0.1,0-0.2,0-0.3,0c-0.1,0-0.1,0-0.2,0V15c0,0.3,0.1,0.8,0.1,1.1
			c0.1,0.6,0.4,0.9,0.8,1c1.4,0.4,3-2.2,3.3-2.6c-0.6-2.8,0.1-8.8,2.1-8.3c2,0.5,0.1,6.9-0.9,8.2c0.3,4.1,2.6,0.2,2.8,0
			c-0.2-1.1-0.3-2.4-0.2-4c0.2-2.2,0.9-4.4,2.2-4.2c2.2,0.4,0.2,6.6-0.8,8c0.4,3.3,1.6,0.6,2.1-0.8c0.2-0.5,0.3-1,0.4-1.5
			c0.2-1.5,0.6-2.6,1.5-3.2c0.5-0.3,1-0.5,1.6-0.2c2,0.8,1.2,6.7-0.8,7.4C57.8,16,57.5,16,57.2,16C56.2,15.9,55.9,15.1,55.7,13.8z
			 M60.3,24.2c0,0.1-0.1,0.3-0.3,0.3l-0.7,0.1c-0.2,0-0.3-0.1-0.3-0.2v-2.9c0-0.1-0.1-0.1-0.1-0.1l-1.1,0.2c-0.1,0-0.1,0.1-0.1,0.1
			v2.9c0,0.1-0.1,0.3-0.3,0.3l-0.7,0.1c-0.1,0-0.3-0.1-0.3-0.2v-7c0-0.1,0.1-0.3,0.3-0.3l0.7-0.1c0.2,0,0.3,0.1,0.3,0.2v2.8
			c0,0.1,0.1,0.1,0.1,0.1l1.1-0.2c0.1,0,0.1-0.1,0.1-0.1v-2.8c0-0.1,0.1-0.3,0.3-0.3l0.7-0.1c0.2,0,0.3,0.1,0.3,0.2V24.2z"/>
	</g>
</g>
</svg>
