<?xml version="1.0" encoding="utf-8"?>
<!-- Generator: Adobe Illustrator 26.0.1, SVG Export Plug-In . SVG Version: 6.00 Build 0)  -->
<svg version="1.1" id="Layer_1" xmlns="http://www.w3.org/2000/svg" xmlns:xlink="http://www.w3.org/1999/xlink" x="0px" y="0px"
	 viewBox="0 0 95 35" style="enable-background:new 0 0 95 35;" xml:space="preserve">
<style type="text/css">
	.st0{fill:#CCCCCC;}
</style>
<g transform="translate(-7.07 -358.2)">
	<g transform="translate(3.539 3.545)">
		<path class="st0" d="M34.7,355.8c0,0-1.9,0.3-3.9,0.8c-1.5,0.4-2.6,0.7-3,0.8v0c-0.6,0.2-1.1,0.4-1.7,0.6c0.6,0.6,0.9,1.3,0.9,2.1
			c0.4-0.2,0.9-0.4,1.4-0.6v0c0.5-0.2,1.9-0.7,3.1-1.1c1.5-0.5,3.5-1.1,3.5-1.1c5.9-1.6,12.5-2.6,18.7-2.5
			C46.7,354.4,40.3,354.8,34.7,355.8 M90.9,378.2c-6.4,5.8-20.9,9.1-37.4,9.1c-22.5,0-37-6.6-38-15.3c-0.4-3.3,2.2-6.5,6.5-9.2
			c-0.8-0.6-1.3-1.5-1.3-2.5c-6.2,3.3-9.7,7.5-9.7,11.9c0,9.6,17.2,17.8,42.7,17.4c17.4-0.2,30.6-5.2,37.3-11.3L90.9,378.2"/>
		<path class="st0" d="M21.6,360.3c0-1.3,1-2.3,2.3-2.3c1.3,0,2.3,1.1,2.3,2.3c0,1.3-1.1,2.3-2.3,2.3
			C22.6,362.6,21.6,361.6,21.6,360.3"/>
		<path class="st0" d="M22.9,377.9v-13.5l2.2-0.3v13.7L22.9,377.9"/>
		<path class="st0" d="M32.5,377.9v-7.7c0-0.9-0.1-1.2-0.3-1.5c-0.2-0.2-0.4-0.3-0.7-0.3c-0.4,0-1.1,0.4-1.6,1v8.5h-2.2v-8.4
			c0-1.4-0.2-2.1-0.3-2.8l2.1-0.5c0.1,0.2,0.3,0.8,0.3,1.4c0.6-0.7,1.6-1.3,2.6-1.3c0.8,0,1.4,0.3,1.8,0.8c0.5,0.6,0.5,1.3,0.5,2.1
			v8.7L32.5,377.9"/>
		<path class="st0" d="M41.9,363.7c-0.3-0.2-0.7-0.3-1.1-0.3c-0.5,0-0.9,0.5-0.9,1.4v1.8h2.1l-0.4,1.9H40v9.5h-2.3v-9.5H37v-1.9h0.8
			c0,0,0-0.8,0-1.5c0-1.7,0.6-2.6,1.1-3.1c0.5-0.4,1.1-0.6,1.7-0.6c0.8,0,1.5,0.2,2.1,0.6L41.9,363.7"/>
		<path class="st0" d="M43.8,377.9v-11.3l2.2-0.3v11.6L43.8,377.9L43.8,377.9z M44.8,364.9c-0.8,0-1.4-0.7-1.4-1.5
			c0-0.8,0.7-1.5,1.5-1.5c0.8,0,1.4,0.7,1.4,1.5C46.3,364.3,45.6,364.9,44.8,364.9"/>
		<path class="st0" d="M53.6,377.9v-7.7c0-0.9-0.1-1.2-0.3-1.5c-0.2-0.2-0.4-0.3-0.7-0.3c-0.4,0-1.1,0.4-1.6,1v8.5h-2.2v-8.4
			c0-1.4-0.2-2.1-0.3-2.8l2.1-0.5c0.1,0.2,0.3,0.8,0.3,1.4c0.6-0.7,1.6-1.3,2.6-1.3c0.8,0,1.4,0.3,1.8,0.8c0.4,0.6,0.5,1.3,0.5,2.1
			v8.7L53.6,377.9"/>
		<path class="st0" d="M62.8,368.9c-0.2-0.5-0.6-0.8-1.1-0.8c-1,0-1.4,0.9-1.5,2.9h2.8C63.1,370.1,63,369.4,62.8,368.9L62.8,368.9z
			 M60.2,372.9v0.2c0,0.7,0.1,1.4,0.3,2c0.3,0.7,0.9,1.1,1.6,1.1c0.8,0,1.5-0.4,2.2-1.1l0.9,1.6c-1,1.1-2,1.5-3.2,1.5
			c-2.6,0-4.1-2.2-4.1-6c0-2,0.3-3.4,1.1-4.5c0.7-1,1.6-1.5,2.7-1.5c1.1,0,1.9,0.4,2.5,1.2c0.8,1,1.1,2.4,1.1,4.9v0.5L60.2,372.9"/>
		<path class="st0" d="M70.7,368.2c-1.5,0-1.5,2.7-1.5,3.9c0,1.2,0,4.1,1.5,4.1c1.5,0,1.5-2.9,1.5-4.1
			C72.2,370.9,72.2,368.2,70.7,368.2L70.7,368.2z M70.7,378.2c-3,0-3.8-3.2-3.9-6c0-2.8,1-6,3.9-6c2.3,0,3.9,2,3.9,5.9
			C74.6,375.1,73.6,378.2,70.7,378.2"/>
		<path class="st0" d="M81.2,377.9v-7.7c0-0.9-0.1-1.2-0.3-1.5c-0.2-0.2-0.4-0.3-0.7-0.3c-0.4,0-1.1,0.4-1.6,1v8.5h-2.2v-8.4
			c0-1.4-0.2-2.1-0.3-2.8l2.1-0.5c0.1,0.2,0.3,0.8,0.3,1.4c0.6-0.7,1.6-1.3,2.6-1.3c0.8,0,1.4,0.3,1.8,0.8c0.4,0.6,0.5,1.3,0.5,2.1
			v8.7L81.2,377.9"/>
	</g>
</g>
</svg>
