<?xml version="1.0" encoding="utf-8"?>
<!-- Generator: Adobe Illustrator 26.0.1, SVG Export Plug-In . SVG Version: 6.00 Build 0)  -->
<svg version="1.1" id="Layer_1" xmlns="http://www.w3.org/2000/svg" xmlns:xlink="http://www.w3.org/1999/xlink" x="0px" y="0px"
	 viewBox="0 0 95 35" style="enable-background:new 0 0 95 35;" xml:space="preserve">
<style type="text/css">
	.st0{fill:#CCCCCC;}
</style>
<g id="path22" transform="matrix(1.33333,0,0,-1.33333,402.827,236.545)">
	<path class="st0" d="M-293.6,165.5c0,0-0.1,0-0.1,0c0,0-0.1-0.1-0.1-0.2c0.9,0,1.7-0.1,2.5-0.2l-0.2-0.2c-0.8,0.1-1.5,0.2-2.3,0.2
		c-0.1,0-0.1,0-0.2,0c0,0-0.1-0.1-0.2-0.2c0.1,0,0.2,0,0.4,0c0.7,0,1.3-0.1,2-0.2l-0.2-0.2c-0.5,0.1-1.2,0.1-1.8,0.1
		c-0.2,0-0.4,0-0.7,0c0-0.1-0.2-0.2-0.2-0.2c0.3,0,0.6,0,1,0c0.5,0,1,0,1.5-0.1l-0.2-0.2c-0.3,0-0.7,0.1-1.1,0.1
		c-0.9,0-1.7-0.2-2.4-0.7c0.7-0.8,1.9-1.3,3-1.3h0.1l-0.4-0.4c-1.7,0.3-3.4,1-4.9,2c-1.4,1-1.9,1.2-3,1.7l0,0.3l0.7-0.3l0.3,0.2
		l2.4-1.1l-0.2-0.1l-1.3,0.5l-0.1-0.1l0.6-0.4c0.5-0.3,1-0.4,1.4-0.4c0.8,0,1.6,0.6,2.1,1.6c0.4,0,0.8,0.1,1.2,0.1
		c1,0,1.9-0.1,3-0.3l-0.3-0.3C-291.8,165.4-292.9,165.5-293.6,165.5 M-296,158.5c-3.2,0-5.7,2.6-5.7,5.7c0,3.2,2.6,5.7,5.7,5.7
		s5.7-2.6,5.7-5.7C-290.3,161.1-292.8,158.5-296,158.5 M-296,170.4c-3.4,0-6.1-2.7-6.1-6.1c0-3.4,2.7-6.1,6.1-6.1
		c3.4,0,6.1,2.7,6.1,6.1C-289.9,167.7-292.6,170.4-296,170.4 M-279.9,161.9h3.5v-1.6h-5.4v8.1h1.9V161.9z M-272.1,166.1h1.8v-5.9
		h-1.7v0.7c-0.2-0.5-0.7-0.8-1.7-0.8c-1.5,0-2.3,0.7-2.3,2.6v3.4h1.8v-3.4c0-0.8,0.3-1.1,1-1.1c0.6,0,1,0.3,1,1.1V166.1z
		 M-269,166.3c0,1.4,0.9,2.2,2.3,2.2c0.5,0,0.7-0.1,0.7-0.1V167c0,0-0.2,0-0.5,0c-0.5,0-0.8-0.2-0.8-0.7v-0.2h1.3v-1.4h-1.3v-4.4
		h-1.8v4.4h-0.9v1.4h0.9V166.3 M-262.9,166.1h1.3v-1.4h-1.3v-2.3c0-0.6,0.3-0.8,0.8-0.8c0.2,0,0.5,0,0.5,0v-1.4c0,0-0.4-0.1-0.8-0.1
		c-1.4,0-2.3,0.6-2.3,2.1v2.5h-0.9v1.4h0.9v1.7h1.8V166.1z M-257.7,166.3c1.5,0,2.3-0.7,2.3-2.6v-3.4h-1.8v3.4
		c0,0.8-0.3,1.1-1.1,1.1c-0.7,0-1.1-0.3-1.1-1.1v-3.4h-1.8v8.1h1.8v-2.8C-259,165.9-258.5,166.3-257.7,166.3 M-250.9,162.5
		c0-0.6-0.6-1.1-1.5-1.1c-0.5,0-0.7,0.2-0.7,0.6c0,0.3,0.2,0.6,0.8,0.6l1,0.1c0.2,0,0.4,0.1,0.5,0.1V162.5z M-251.9,166.3
		c-1.7,0-2.6-0.7-2.6-1.9h1.7c0,0.3,0.2,0.6,0.9,0.6c0.6,0,0.9-0.2,0.9-0.5c0-0.3-0.2-0.4-0.6-0.4l-1.1-0.1
		c-1.5-0.2-2.2-0.8-2.2-1.9c0-1.1,0.7-1.9,2-1.9c0.9,0,1.5,0.3,2,0.9v-0.7h1.6v3.9C-249.2,165.7-250.2,166.3-251.9,166.3
		 M-245.2,166.3c1.5,0,2.3-0.7,2.3-2.6v-3.4h-1.8v3.4c0,0.8-0.3,1.1-1.1,1.1c-0.7,0-1.1-0.3-1.1-1.1v-3.4h-1.8v5.9h1.7v-0.7
		C-246.6,165.9-246.1,166.3-245.2,166.3 M-239.2,163.9c1.5-0.2,2.2-0.7,2.2-1.9c0-1.2-0.9-2-2.7-2c-2,0-2.7,0.8-2.8,2h1.7
		c0-0.4,0.3-0.6,1-0.6c0.7,0,1,0.2,1,0.5c0,0.3-0.2,0.4-0.8,0.5l-0.6,0.1c-1.3,0.2-2,0.7-2,1.8c0,1.1,0.8,1.9,2.6,1.9
		c1.6,0,2.5-0.6,2.5-1.9h-1.7c-0.1,0.3-0.2,0.5-0.8,0.5c-0.6,0-0.8-0.2-0.8-0.5c0-0.3,0.1-0.4,0.6-0.5L-239.2,163.9 M-232.5,162.5
		c0-0.6-0.6-1.1-1.5-1.1c-0.5,0-0.7,0.2-0.7,0.6c0,0.3,0.2,0.6,0.8,0.6l1,0.1c0.2,0,0.4,0.1,0.5,0.1V162.5z M-233.5,166.3
		c-1.7,0-2.6-0.7-2.6-1.9h1.7c0,0.3,0.2,0.6,0.9,0.6c0.6,0,0.9-0.2,0.9-0.5c0-0.3-0.2-0.4-0.6-0.4l-1.1-0.1
		c-1.5-0.2-2.2-0.8-2.2-1.9c0-1.1,0.7-1.9,2-1.9c0.9,0,1.5,0.3,2,0.9v-0.7h1.6v3.9C-230.9,165.7-231.8,166.3-233.5,166.3"/>
</g>
</svg>
