<?xml version="1.0" encoding="utf-8"?>
<!-- Generator: Adobe Illustrator 26.0.1, SVG Export Plug-In . SVG Version: 6.00 Build 0)  -->
<svg version="1.1" id="Layer_1" xmlns="http://www.w3.org/2000/svg" xmlns:xlink="http://www.w3.org/1999/xlink" x="0px" y="0px"
	 viewBox="0 0 95 35" style="enable-background:new 0 0 95 35;" xml:space="preserve">
<style type="text/css">
	.st0{fill-rule:evenodd;clip-rule:evenodd;fill:#343741;}
</style>
<g id="layer1" transform="translate(16.01534,-521.6492)">
	<path id="path26659" class="st0" d="M21.9,535.6c-1.8-0.5-3.5-0.8-5-0.8c-1.6,0-2.9,0.7-2.9,1.8c0,1,1,1.6,2.7,1.6
		C18.4,538.2,20.2,537.1,21.9,535.6 M16.6,539.1c-3.2,0-5.2-1-5.2-2.4c0-2,3.2-3,6.9-3c1.6,0,3.2,0.2,5,0.5c0.7-0.7,1.4-1.5,2.1-2.2
		c1.3-1.5,3.3-3.6,4.9-4.8c3.1-2.4,7-4.1,11.2-4.1c5.2,0,9.3,1.7,9.3,4.4c0,1.5-1.5,2.8-4.1,2.9l-0.1-0.5c0.6-0.3,1.2-0.7,1.2-2.1
		c0-1.9-2.1-3.7-5.9-3.7c-3.7,0-5.8,1.7-8.2,4.2c-1.2,1.3-2.6,2.9-3.8,4.1c-0.9,0.9-1.9,1.8-2.9,2.5c4.2,0.8,8.6,1.8,12.6,1.8
		c4.2,0,6.1-1.1,7.1-2l0.3,0.4c-1,2.2-4.2,4-8.3,4c-5.2,0-9.8-1.5-13.9-2.7C22.1,538.1,19.1,539.1,16.6,539.1 M-4.9,551.5h-2.9v3.4
		h-1.5v-7.9h1.5v3.3h2.9v-3.3h1.5v7.9h-1.5V551.5z M-12.5,555H-14v-6.6h-2v-1.3h5.5v1.3h-2V555z M-1.3,547.1h4.7v1.2H0.3v2H3v1.2
		H0.3v2.2h3.2v1.2h-4.8V547.1z M23.2,555v-5.6c0-1.1-0.4-2.5-2.8-2.4c-1.3,0-2.3,0.3-3,0.6v7.4h1.5v-6.5c0.3-0.1,0.9-0.3,1.4-0.3
		c1.2,0,1.4,0.7,1.4,1.4v5.4H23.2z M74.7,552v3h-1.5v-7.4l0.1-0.1c0.7-0.3,1.6-0.6,2.5-0.6c2,0,3.2,1,3.2,2.6c0,1.5-1.3,2.5-3.4,2.5
		C75.3,552,75,552,74.7,552 M74.7,548.3v2.5c0.2,0,0.5,0,0.8,0c1.3,0,1.9-0.6,1.9-1.3c0-0.9-0.5-1.3-1.7-1.3
		C75.4,548.1,75,548.2,74.7,548.3 M65.3,552.3v-5.3h1.5v5.3c0,0.9,0.6,1.4,1.5,1.4c0.9,0,1.5-0.5,1.5-1.4v-5.3h1.5v5.3
		c0,1.7-1.2,2.8-3,2.8C66.5,555.1,65.3,554,65.3,552.3 M41.4,551c0-2.4,1.4-4.1,3.9-4.1c0.9,0,1.7,0.2,2.2,0.6l0.1,0.1l-0.5,1.1
		l-0.2-0.1c-0.4-0.2-0.9-0.4-1.6-0.4c-1.6,0-2.4,1.1-2.4,2.8c0,1.7,0.9,2.9,2.3,2.9c0.5,0,0.8-0.1,1.1-0.2v-2.1h-1.5v-1.2h2.9v4
		l-0.1,0.1c-0.6,0.4-1.4,0.6-2.4,0.6C42.8,555.1,41.4,553.5,41.4,551 M51.7,551.1c1.1,0,2.1-0.5,2.1-1.6c0-0.7-0.5-1.4-1.5-1.4
		c-0.4,0-0.8,0.1-1.1,0.2v6.7h-1.5v-7.4l0.1-0.1c0.6-0.3,1.7-0.6,2.6-0.6c2,0,3.1,1,3.1,2.6c0,1.3-1,2-1.6,2.2l1.9,3.3h-1.8
		L51.7,551.1z M56.7,551c0-2.3,1.2-4.2,3.5-4.2c2.3,0,3.5,1.8,3.5,4.2c0,2.3-1.2,4.2-3.5,4.2C57.9,555.2,56.7,553.3,56.7,551
		 M58.3,551c0,1.8,0.7,2.9,1.9,2.9c1.2,0,1.9-1.1,1.9-2.9c0-1.8-0.7-2.8-1.9-2.8C59,548.2,58.3,549.2,58.3,551 M33,547.1h4.7v1.2
		h-3.2v2h2.7v1.2h-2.7v2.2h3.2v1.2H33V547.1z M13.7,547.1h1.5v7.9h-1.5V547.1z M8.1,547.1h1.5v6.6h2.8v1.3H8.1V547.1z M26.6,548.3
		v5.3c0.2,0.1,0.6,0.2,1,0.2c1.3,0,2.2-0.9,2.2-2.8c0-1.9-0.8-2.8-2.2-2.8C27.2,548.2,26.9,548.2,26.6,548.3 M25.2,554.6l-0.1-0.1
		v-7l0.1-0.1c0.7-0.3,1.6-0.6,2.4-0.6c2.4,0,3.7,1.6,3.7,4.1c0,2.5-1.4,4.1-3.7,4.1C26.7,555.1,25.9,554.9,25.2,554.6"/>
</g>
</svg>
