<?xml version="1.0" encoding="utf-8"?>
<!-- Generator: Adobe Illustrator 26.0.1, SVG Export Plug-In . SVG Version: 6.00 Build 0)  -->
<svg version="1.1" id="Layer_1" xmlns="http://www.w3.org/2000/svg" xmlns:xlink="http://www.w3.org/1999/xlink" x="0px" y="0px"
	 viewBox="0 0 95 35" style="enable-background:new 0 0 95 35;" xml:space="preserve">
<style type="text/css">
	.st0{fill:#343741;}
</style>
<g>
	<path class="st0" d="M45.1,10.6h4.3v13.9h-3.2v-9.3l-4.1,9.3l-4.3-9.3v9.3h-3V10.6H39l3.1,7.2L45.1,10.6z M50.9,10.6v13.9h8v-2.4
		H54v-3.5h4.7v-2.4H54V13h4.9v-2.4H50.9z M70.9,17.5c0,5.2,5.4,9.3,11.1,6.5v-3c-4.4,3.1-8.2,0-8.1-3.4c0-2.3,1.6-4.5,4.5-4.6
		c1.5-0.1,2.4,0.3,3.6,1.4v-3.1C77.8,8.8,70.9,11.5,70.9,17.5 M83.2,24.4h2.9V10.7h-2.9V24.4z M89.9,17l4.5-6.3H91L86.5,17l5.1,7.4
		H95L89.9,17z"/>
	<path class="st0" d="M60.3,10.6v13.9h3.1V17l5.1,7.4h3.3l-4.1-5.8c1.9-0.7,2.5-2.3,2.5-3.9s-1.3-4.2-4.5-4.2L60.3,10.6z M63.4,12.9
		h1.4c2.3,0,2.4,1.5,2.4,2.1c0,1.1-0.9,2-2.1,2h-1.7C63.4,17,63.4,12.9,63.4,12.9z"/>
	<path class="st0" d="M6.9,10.6c0-3.8,3.1-6.9,6.9-6.9s6.9,3.1,6.9,6.9H6.9z M6.9,24.4c0-3.8,3.1-6.9,6.9-6.9
		c-3.8,0-6.9-3.1-6.9-6.9c-3.8,0-6.9,3.1-6.9,6.9S3.1,24.4,6.9,24.4 M6.9,24.4c0,3.8,3.1,6.9,6.9,6.9s6.9-3.1,6.9-6.9H6.9z
		 M13.9,17.5c3.8,0,6.9,3.1,6.9,6.9c3.8,0,6.9-3.1,6.9-6.9s-3.1-6.9-6.9-6.9C20.8,14.4,17.7,17.5,13.9,17.5"/>
</g>
</svg>
