<?xml version="1.0" encoding="utf-8"?>
<!-- Generator: Adobe Illustrator 26.0.1, SVG Export Plug-In . SVG Version: 6.00 Build 0)  -->
<svg version="1.1" id="Layer_1" xmlns="http://www.w3.org/2000/svg" xmlns:xlink="http://www.w3.org/1999/xlink" x="0px" y="0px"
	 viewBox="0 0 95 35" style="enable-background:new 0 0 95 35;" xml:space="preserve">
<style type="text/css">
	.st0{fill:#FFFFFF;}
</style>
<g>
	<path id="Logo0" class="st0" d="M3.1,20.6c0,1.1,0.2,1.9,0.6,2.5c0.4,0.7,1,1,1.7,1c0.8,0,1.6-0.2,3-2.2c1.1-1.6,2.5-3.8,3.4-5.2
		l1.5-2.4c1.1-1.6,2.3-3.5,3.7-4.7c1.2-1,2.4-1.6,3.7-1.6c2.1,0,4.1,1.2,5.7,3.5c1.7,2.5,2.5,5.7,2.5,8.9c0,1.9-0.4,3.4-1,4.5
		c-0.6,1.1-1.9,2.2-3.9,2.2V24c1.8,0,2.2-1.6,2.2-3.5c0-2.6-0.6-5.6-2-7.7c-1-1.5-2.2-2.4-3.6-2.4c-1.5,0-2.7,1.1-4,3.1
		c-0.7,1.1-1.5,2.4-2.3,3.8l-0.9,1.6c-1.8,3.2-2.3,4-3.2,5.2c-1.6,2.1-3,2.9-4.8,2.9c-2.1,0-3.5-0.9-4.3-2.3c-0.7-1.1-1-2.6-1-4.3
		L3.1,20.6z"/>
	<path id="Logo1" class="st0" d="M2.5,11.7c1.4-2.2,3.5-3.7,5.8-3.7c1.4,0,2.7,0.4,4.1,1.6c1.6,1.3,3.2,3.4,5.3,6.8l0.7,1.2
		c1.8,3,2.8,4.5,3.4,5.2c0.8,0.9,1.3,1.2,2,1.2c1.8,0,2.2-1.6,2.2-3.5l2.7-0.1c0,1.9-0.4,3.4-1,4.5c-0.6,1.1-1.9,2.2-3.9,2.2
		c-1.3,0-2.4-0.3-3.7-1.5c-1-0.9-2.1-2.5-3-4l-2.6-4.3c-1.3-2.2-2.5-3.8-3.2-4.5c-0.7-0.8-1.7-1.7-3.2-1.7c-1.2,0-2.3,0.9-3.1,2.2
		L2.5,11.7z"/>
	<path id="Logo2" class="st0" d="M8.3,11.1c-1.2,0-2.3,0.9-3.1,2.2c-1.2,1.9-2,4.6-2,7.3c0,1.1,0.2,1.9,0.6,2.5L1,24.8
		c-0.7-1.1-1-2.6-1-4.3c0-3.1,0.8-6.3,2.5-8.8c1.4-2.2,3.5-3.7,5.8-3.7L8.3,11.1z"/>
	<path id="Text" class="st0" d="M34.9,8.5h3.6l6.1,11.1l6.1-11.1h3.5v18.2h-2.9V12.8l-5.4,9.7h-2.8l-5.4-9.7v13.9h-2.9V8.5z
		 M63.4,15.3c-2.1,0-3.4,1.6-3.7,3.5h7.1C66.8,16.8,65.6,15.3,63.4,15.3L63.4,15.3z M56.8,20c0-4.1,2.7-7.1,6.6-7.1
		c3.9,0,6.2,3,6.2,7.4V21h-10c0.4,2.1,1.8,3.6,4.1,3.6c1.8,0,3-0.6,4-1.6l1.6,1.9c-1.5,1.4-3.3,2.1-5.7,2.1
		C59.4,27.1,56.8,23.9,56.8,20z M73.3,15.6h-2.7v-2.4h2.7v-4h2.8v4h4.1v2.4h-4.1v6.1c0,2.1,0.7,2.8,2.3,2.8c0.7,0,1.2-0.1,1.8-0.2
		v2.4c-0.8,0.2-1.5,0.3-2.4,0.3c-3.1,0-4.6-1.7-4.6-5L73.3,15.6z M92.2,17.9c-0.6-1.4-1.8-2.5-3.7-2.5c-2.4,0-4,1.7-4,4.5
		c0,2.7,1.4,4.5,3.9,4.5c1.9,0,3.3-1.1,3.8-2.5V17.9z M95,26.7h-2.8v-1.9c-0.8,1.1-2.2,2.2-4.5,2.2c-3.7,0-6.1-3.1-6.1-7.1
		c0-4.1,2.5-7.1,6.3-7.1c1.9,0,3.3,0.7,4.3,2.1v-1.7H95V26.7z"/>
</g>
</svg>
