<?xml version="1.0" encoding="utf-8"?>
<!-- Generator: Adobe Illustrator 26.0.1, SVG Export Plug-In . SVG Version: 6.00 Build 0)  -->
<svg version="1.1" id="Layer_1" xmlns="http://www.w3.org/2000/svg" xmlns:xlink="http://www.w3.org/1999/xlink" x="0px" y="0px"
	 viewBox="0 0 95 35" style="enable-background:new 0 0 95 35;" xml:space="preserve">
<style type="text/css">
	.st0{fill:#FFFFFF;}
</style>
<g>
	<path id="path2498" class="st0" d="M60.3,28.3h6.8v-1.6h-4.9v-2.9h4.5v-1.5h-4.5v-3H67v-1.5h-6.7V28.3z"/>
	<path id="path2510" class="st0" d="M56.8,28.3h2.1l-2.3-4.6c1-0.3,2.1-1.1,2.1-2.9c0-1.3-0.7-2.1-1.6-2.6c-0.6-0.3-1.4-0.4-2.1-0.4
		h-4v10.5h1.9v-4.2h1.9L56.8,28.3z M52.9,22.6v-3.4h1.9c1,0,1.9,0.4,1.9,1.7c0,1.3-0.9,1.8-2,1.8H52.9z"/>
	<path id="path2514" class="st0" d="M44.5,28.3h1.8v-4.9c0-1.8-0.8-2.6-2.4-2.6c-1.2,0-2,0.7-2.3,1.3h0v-4.7h-1.8v10.8h1.8V24
		c0-1.1,0.6-1.8,1.7-1.8c0.4,0,0.8,0.1,1,0.4c0.2,0.3,0.2,0.8,0.2,1.3V28.3z"/>
	<path id="path2518" class="st0" d="M38.5,23.4c-0.1-1.8-1.4-2.6-3.2-2.6c-2.2,0-3.5,1.5-3.5,3.8c0,2.4,1.3,3.8,3.5,3.8
		c1.8,0,3.2-0.9,3.3-2.7h-1.8c0,0.6-0.4,1.5-1.5,1.5c-1.3,0-1.7-1.2-1.7-2.6c0-1.4,0.5-2.6,1.7-2.6c0.9,0,1.3,0.6,1.4,1.4H38.5z"/>
	<path id="path2522" class="st0" d="M28.7,28.3h1.8V21h-0.8h-1V28.3z"/>
	<path id="path2526" class="st0" d="M28.7,19.6h1.8v-1.7h-0.9h-0.9V19.6z"/>
	<path id="path2530" class="st0" d="M25.2,28.3h1.8v-4.9c0-1.8-0.8-2.6-2.4-2.6c-1.2,0-2,0.6-2.4,1.4h0V21h-1.7v7.3h1.8V24
		c0-1.1,0.6-1.8,1.7-1.8c0.4,0,0.8,0.1,1,0.4c0.2,0.3,0.2,0.8,0.2,1.3V28.3z"/>
	<path id="path2534" class="st0" d="M14.1,21h-1.8v5c0,1.7,0.8,2.5,2.5,2.5c1.2,0,1.9-0.6,2.3-1.4h0v1.2h1.8V21H17v4
		c0,1.4-0.5,2.2-1.6,2.2c-0.5,0-0.8-0.1-1-0.5c-0.2-0.3-0.2-0.8-0.2-1.3V21z"/>
	<path id="path2538" class="st0" d="M10.6,28.3V17.5H7.7l-0.7,1.9l-1.3,3.7c-0.3,0.9-0.4,1.5-0.4,1.5h0c0,0-0.2-0.6-0.5-1.5
		l-1.3-3.7l-0.7-1.9H0v10.7h1.7v-8.8h0c0,0,0.4,1.4,0.4,1.4l2.2,6.3h1.7l2.3-6.6c0.1-0.2,0.3-1.1,0.3-1.1h0v8.8H10.6z"/>
	<path id="path2542" class="st0" d="M73.3,26.7v1.6h11.3l1.4-1.6H73.3z"/>
	<path id="path2546" class="st0" d="M73.3,17.8v1.5h19.5l1.4-1.5H73.3z"/>
	<path id="path2550" class="st0" d="M92.5,14.7l-1.6-1.5H73.3v1.5H92.5z"/>
	<path id="path2554" class="st0" d="M73.3,22.3v1.5h15.4l1.4-1.5H73.3z"/>
	<path id="path2558" class="st0" d="M87.7,10.3L86,8.7H73.3v1.5H87.7z"/>
	<path id="path2562" class="st0" d="M95,26.1v-1.5H80.5l1.7,1.5H95z"/>
	<path id="path2566" class="st0" d="M95,11H79.7l-1.4,1.5H95V11z"/>
	<path id="path2570" class="st0" d="M95,21.6v-1.5H75.7l1.6,1.5H95z"/>
	<path id="path2574" class="st0" d="M75.5,15.5L74.1,17H95v-1.5H75.5z"/>
	<path id="path2578" class="st0" d="M82.3,8.1H95V6.5H83.7L82.3,8.1z"/>
</g>
</svg>
