<?xml version="1.0" encoding="utf-8"?>
<!-- Generator: Adobe Illustrator 26.0.1, SVG Export Plug-In . SVG Version: 6.00 Build 0)  -->
<svg version="1.1" id="Layer_1" xmlns="http://www.w3.org/2000/svg" xmlns:xlink="http://www.w3.org/1999/xlink" x="0px" y="0px"
	 viewBox="0 0 95 35" style="enable-background:new 0 0 95 35;" xml:space="preserve">
<style type="text/css">
	.st0{fill-rule:evenodd;clip-rule:evenodd;fill:#FFFFFF;}
</style>
<path class="st0" d="M46.4,0c-4.7,0-8,0.6-13.4,1.8l1.5,19.6c0.3,5.6,5.5,10.3,12,13.6c6.4-3.3,11.7-8,12-13.6l1.5-19.6
	C54.3,0.6,51,0,46.4,0z M33.8,6.2c6-1.6,9.6-1.7,12.3-1.8v6.7h-4.8l0,0.6c-0.2,0-0.3-0.1-0.4-0.1c0.1-0.6,0.5-0.9,0.6-1
	c0,0,0.1-0.2,0-0.2c-0.9,0.1-1.3,1-1.3,1.2c-0.1,0-0.5,0.1-0.7,0.2c0.1-1,0.7-1.4,0.8-1.5s0.1-0.2,0-0.2c-1,0-1.6,1.6-1.7,1.9
	c-0.2,0.1-0.7,0.3-0.8,0.4c-0.1-1.2,0.9-2,1-2.1c0.1-0.1,0.1-0.2,0-0.1c-1.3,0.2-1.7,2.3-1.7,2.5c0,0.2-0.2,0.1-0.3,0.1
	c-0.1,0-0.1-0.1-0.2-0.1c-0.2,0-0.4,0.2-0.4,0.4c0,0,0,0.1,0,0.1c-0.2,0.1-0.3,0.2-0.3,0.4c0,0.2,0.2,0.4,0.4,0.4
	c0.1,0,0.2,0,0.2-0.1c0.1,0.1,0.2,0.1,0.3,0.1c0.2,0,0.5-0.2,0.5-0.6c1.5-1,2.6-1.3,3.3-1.3c0.4,0,0.6,0.1,0.7,0.2l0,2
	c-0.5,0.2-1,0.8-1.1,0.9c-0.1,0-0.3,0-0.5,0c0.1-0.5,0.4-0.9,0.4-1c0,0,0.1-0.1,0-0.1c-0.6,0.1-1,1-1,1.2c-0.1,0-0.3,0.1-0.5,0.1
	c0.1-0.7,0.4-1.1,0.5-1.2c0.1,0,0.1-0.1,0-0.1c-0.8,0-1.1,1.5-1.2,1.7c-0.1,0.1-0.4,0.2-0.5,0.3c-0.1-0.9,0.4-1.6,0.4-1.7
	c0,0,0.1-0.1,0-0.1c-0.9,0.3-0.9,2-0.9,2.2c0,0.2-0.1,0.1-0.2,0.1c0,0-0.1,0-0.2,0c-0.2,0-0.3,0.1-0.3,0.3c0,0,0,0,0,0.1
	c-0.1,0-0.2,0.2-0.2,0.3c0,0.2,0.1,0.3,0.3,0.3c0.1,0,0.1,0,0.2-0.1c0.1,0.1,0.1,0.1,0.2,0.1c0.2,0,0.4-0.1,0.4-0.5
	c0.8-1,2.2-1.5,2.7-1.5c0.8,0,1.1,0.2,1.3,0.4l0,2.3l-6.6,0L33.8,6.2z M41.3,15.8c-0.1-0.2-0.3-0.3-0.4-0.4c0-0.1,0.2-0.4,0.4-0.6
	L41.3,15.8z M36.4,26c-0.7-1.2-1.2-2.4-1.4-3.7l7.2,0c0.8,1.1,2.1,2.1,3.9,2.2V26L36.4,26z M39.6,29.8l6.5,0l0,4.4
	C43.9,33.1,41.6,31.6,39.6,29.8z M41.8,19.4v-7.7h4.5h4.5v7.7c0,2.1-1.8,4.5-4.5,4.5S41.8,21.5,41.8,19.4z M57.7,22.2
	c-0.8,5.3-6.4,9.5-11.1,12l0-9.8c0.8,0,1.5-0.2,2.1-0.5l0,0.1c-0.2,0.5-0.1,0.7-0.2,0.8c0,0.2-0.3,0.2-0.3,0.2
	c-0.1,0-0.1-0.1-0.2-0.1c-0.2,0-0.4,0.2-0.4,0.4c0,0,0,0.1,0,0.1c-0.1,0.1-0.2,0.2-0.2,0.3c0,0.2,0.1,0.4,0.3,0.4c0.1,0,0.1,0,0.2,0
	c0.1,0.1,0.2,0.1,0.3,0.1c0.2,0,0.3-0.1,0.3-0.5c1.4-0.7,3.5-1.3,4.4-1.2c1,0.1,1.8,1.1,1.9,1.2c0.1,0.1,0.1,0.1,0.1,0
	c-0.1-0.4-0.2-1.1-1.2-1.6c0.1-0.3,0.6-0.3,0.7-0.4c0.1,0,0.1-0.1,0-0.1c-0.7-0.1-1.2,0.2-1.3,0.3c-0.1,0-0.6-0.1-0.7,0
	c0.1-0.3,0.3-0.6,0.6-0.9c0,0,0.1-0.1,0-0.1c-0.8,0.1-1.2,0.9-1.3,1.1c-0.1,0-0.9,0.1-1,0.2c0.1-0.8,1-1.3,1.1-1.4
	c0.1-0.1,0.1-0.1,0-0.1c-1.1,0-2,1.5-2,1.8c-0.2,0.1-0.4,0.2-0.6,0.2c0-0.5,0-0.7,0.1-1l0.1-0.2c1.3-1,2-2.6,2-3.7v-0.7l6.5,0
	L57.7,22.2z M58,18.6l-6.6,0l0-3.7l6.8,0L58,18.6z M58.5,11.2l-7.1,0V11h-4.8V7.2l12.2,0.1L58.5,11.2z M46.4,3.9
	c-3.1,0-6.7,0.2-12.6,1.7l-0.2-3.4c2.3-0.6,7.3-1.8,12.9-1.8s10.5,1.2,12.9,1.8L59,5.6C53,4.2,49.5,3.9,46.4,3.9z"/>
<path class="st0" d="M48.4,28.4c0,0.3-0.1,0.4-0.3,0.4c-0.1,0-0.2,0-0.2-0.1c-0.1,0-0.1,0-0.2,0c-0.2,0-0.3-0.1-0.3-0.3
	c0-0.1,0-0.2,0.2-0.3c0,0,0,0,0-0.1c0-0.2,0.1-0.3,0.3-0.3c0.1,0,0.1,0,0.2,0c0,0,0.2,0,0.3-0.2c0-0.2,0.4-1.5,1.3-1.6
	c0.1,0,0.1,0.1,0,0.1c0.1-0.1-0.8,0.6-0.7,1.4c0.1-0.1,0.4-0.2,0.6-0.2c0-0.2,0.8-1.4,1.7-1.4c0.1,0,0.1,0.1,0,0.1
	c-0.1,0-0.9,0.5-1,1.1c0.1,0,0.6-0.1,0.7-0.2c0-0.2,0.6-0.9,1.3-0.9c0.1,0,0,0.1,0,0.1c-0.2,0.2-0.7,0.5-0.8,0.7c0.1,0,0.5,0,0.6,0
	c0.1-0.1,0.5-0.4,1-0.3c0.1,0,0.1,0.1,0,0.1c-0.1,0-0.4,0.1-0.5,0.4c0.6,0.3,0.8,0.7,0.9,1.1c0,0.1,0,0.1-0.1,0
	c-0.1-0.1-0.7-0.7-1.5-0.7C51.1,27.4,49.5,27.8,48.4,28.4L48.4,28.4L48.4,28.4L48.4,28.4z"/>
<path class="st0" d="M48.1,30.7c0,0.2-0.1,0.3-0.2,0.3c-0.1,0-0.1,0-0.2-0.1c0,0-0.1,0-0.1,0c-0.1,0-0.2-0.1-0.2-0.2
	c0-0.1,0-0.1,0.1-0.2c0,0,0,0,0-0.1c0-0.1,0.1-0.2,0.2-0.2c0,0,0.1,0,0.1,0c0,0,0.2,0,0.2-0.1c0-0.1,0.1-1.1,0.6-1.2
	c0.1,0,0,0,0,0.1c0.1-0.1-0.3,0.4-0.2,1c0.1,0,0.2-0.1,0.3-0.1c0-0.2,0.2-1,0.9-1c0.1,0,0,0,0,0.1c0,0-0.3,0.3-0.4,0.7
	c0.1,0,0.3-0.1,0.4-0.1c0-0.1,0.5-0.7,0.9-0.7c0.1,0,0,0.1,0,0.1c-0.2,0.1-0.4,0.4-0.4,0.6c0.1,0,0.3,0,0.3,0
	c0.1-0.1,0.2-0.3,0.6-0.3c0.1,0,0,0,0,0.1c-0.1,0-0.2,0.1-0.2,0.3c0.4,0.2,0.6,0.4,0.7,0.6c0,0.1,0,0.1-0.1,0c0,0-0.4-0.3-1-0.3
	C49.8,30,48.8,30.2,48.1,30.7L48.1,30.7L48.1,30.7L48.1,30.7z"/>
<path class="st0" d="M42.6,18.6c0-0.1,0.2-0.3,0.2-0.4c0-0.1,0-0.1,0-0.2c0.1-0.1,0.2-0.2,0.2-0.3c0.1-0.1,0.2-0.1,0.3,0.1
	c0.1,0.2,0.3,0.7,0.6,0.8c-0.1,0.1-0.4,0.2-0.6,0.2c-0.2,0-0.3,0.1-0.2,0.5c0.1,0.4,0.1,0.6,0.1,0.7c0,0.1,0,0.4,0.2,0.6l0,0
	l0.2,0.3l0,0c0.1,0.1,0.3,0.2,0.3,0c0-0.2,0.1-0.3-0.1-0.4c-0.1,0-0.2-0.1-0.2-0.3c0-0.2,0-0.3-0.1-0.4c-0.1-0.1-0.1-0.3-0.1-0.4
	c0-0.1,0.1-0.2,0.3-0.2c0.2,0.1,0.9,0.3,1.2,0c0.2,0.1,1.1,0.5,1.7,0.4c0.1,0.2,0.3,0.6,0.4,0.7c0.1,0.1,0.2,0.4,0,0.6
	c-0.1,0.1-0.4,0.4-0.6,0.4c-0.2,0.1-0.3,0.1-0.4,0.2c-0.1,0.1-0.2,0.1-0.2,0.3c-0.1,0.1-0.2,0.4,0,0.4c0.2,0,0.3-0.1,0.3-0.2
	c0-0.1,0-0.2,0.1-0.2c0.1,0,0.4,0,0.6-0.3c0.2-0.2,0.6-0.4,0.7-0.4c0.2,0,0.2-0.2,0.2-0.3c0-0.1,0-0.3,0.1-0.4
	c0.1,0,0.6,0.1,0.8,0.4c0,0.1,0,0.1,0.1,0.2c-0.1,0.1-0.2,0.2-0.2,0.3c0,0.1-0.1,0.3-0.3,0.4c-0.2,0.2-0.4,0.2-0.5,0.4
	c-0.1,0.1-0.2,0.3-0.1,0.5c0,0.2,0.1,0.1,0.2,0.1c0.1,0,0.3-0.1,0.3-0.2c0-0.1-0.1-0.2,0.1-0.3c0.2-0.1,0.5-0.3,0.6-0.5
	c0.1-0.2,0.3-0.5,0.4-0.6c0.2-0.1,0.1-0.2,0.1-0.4c-0.1-0.1-0.3-0.5-0.3-0.7c0.1-0.2,0.3-0.4,0.4-0.7c0.1-0.4,0-0.5,0-0.7
	c0.1,0,0.2,0,0.4,0.1c0.2,0.1,0.6,0.1,0.7-0.1c0.1-0.1,0-0.4,0-0.4c0.1-0.1,0.2-0.3,0.1-0.4c-0.1-0.1-0.1-0.2-0.1-0.4
	c-0.1,0-0.2-0.1-0.2-0.2c0.1-0.1,0.3-0.3,0.2-0.5c0-0.1,0-0.3-0.2-0.3c0-0.1-0.1-0.4-0.5-0.1c-0.1,0-0.1-0.1,0-0.1
	c0.1,0,0.5-0.2,0.6-0.3c0.1-0.2,0-0.2,0-0.3c0-0.1,0.1-0.2,0-0.3c0-0.1-0.2,0-0.3,0.2c-0.1,0.2-0.1,0.2-0.3,0.3
	c-0.2,0-0.4,0-0.6,0.3c-0.1,0.1-0.1,0.1-0.2,0.2c-0.1,0.1-0.2,0.2-0.2,0.3c0,0.1,0.1,0.3,0.1,0.4c0,0.1-0.1,0.4,0.2,0.6
	c0.2,0.2,0.4,0.4,0.2,0.6c-0.2,0.2-0.3,0-0.4-0.1C48.7,18.1,48.2,18,48,18c-0.3,0-1.2-0.2-1.4-0.4c-0.2-0.2-0.1-0.3,0-0.3
	c0.1,0,0.1-0.1,0.2-0.2c0-0.1,0.1-0.1,0.2-0.1c0.1,0,0.2,0,0.2-0.2s0.1-0.1,0.2-0.1c0.1,0,0.1-0.2,0-0.2c-0.1-0.1-0.2-0.1-0.2-0.2
	c0-0.1,0.1-0.2,0.2-0.2c0.1,0,0.1-0.1,0.1-0.2c0-0.1,0-0.1,0.1-0.2c0.1,0,0.1-0.1-0.1-0.2c-0.1,0-0.4-0.1-0.4-0.2
	c0-0.1,0.1-0.2,0.2-0.2c0.1,0,0.1-0.2-0.1-0.2c-0.2,0-0.3,0-0.4-0.1c0-0.1-0.1-0.2,0.2-0.3c0.1,0,0.1-0.2-0.1-0.1
	c-0.2,0-0.4,0.1-0.4,0c-0.1-0.1,0-0.1,0-0.1c0,0,0-0.1,0-0.1c-0.1,0-0.4,0.1-0.5,0c-0.1-0.1-0.2-0.1-0.3-0.1
	c-0.1,0.1-0.1,0.2-0.1,0.2c0.1,0.1,0,0.2-0.1,0.1c-0.1-0.1,0-0.1,0-0.1c0,0-0.1-0.1-0.1-0.1c-0.1,0-0.1-0.1,0-0.2
	c0-0.1-0.1-0.1-0.2-0.1c-0.1,0.1-0.2,0.2-0.1,0.3c-0.1,0-0.4,0.1-0.4,0.2c0,0.1,0,0.2,0,0.2c0,0-0.1,0-0.2,0.1
	c-0.1,0.1-0.4,0.3-0.4,0.3c-0.1,0.1-0.1,0.1-0.2,0.2c-0.1,0.1-0.1,0.2-0.1,0.2c0.1,0.1,0.2,0,0.2,0.1c0.1,0.1,0.1,0.1,0,0.1
	c0,0,0.1,0.1,0.2,0c0.2-0.1,0.3-0.3,0.4-0.1c0.1,0.1,0,0.2,0,0.3c-0.1,0.1-0.3,0.4-0.4,0.5c-0.1,0.1-0.2,0.3-0.2,0.5
	c0,0.2-0.1,0.2-0.1,0.3c-0.2-0.1-0.4-0.2-0.6-0.3c-0.1-0.1-0.3-0.2-0.4,0c-0.1,0.1-0.4,0.5-0.4,0.7c-0.1,0.2-0.2,0.1-0.2,0.4
	c0,0.1-0.1,0.2-0.1,0.4c0,0.1-0.1,0.4,0,0.4c0.1,0.1,0.3,0,0.3-0.1C42.6,18.9,42.6,18.6,42.6,18.6L42.6,18.6L42.6,18.6L42.6,18.6z"
	/>
<path class="st0" d="M37.1,9.9c0,0.5-0.3,0.7-0.6,0.7c-0.1,0-0.3-0.1-0.3-0.2c-0.1,0.1-0.2,0.1-0.3,0.1c-0.3,0-0.5-0.2-0.5-0.5
	c0-0.2,0.1-0.4,0.3-0.4c0,0,0-0.1,0-0.1c0-0.3,0.2-0.5,0.5-0.5c0.1,0,0.2,0,0.2,0.1c0.1,0,0.3,0.1,0.3-0.1c0-0.3,0.4-2.8,1.8-3
	c0.2,0,0.1,0.1,0,0.2c-0.1,0.1-1.2,1-1,2.5c0.2-0.1,0.8-0.4,1-0.5C38.6,7.9,39.2,6,40.5,6c0.1,0,0.1,0.1,0,0.2
	c-0.1,0.1-0.9,0.7-1,1.7c0.2-0.1,0.7-0.1,0.8-0.2c0.1-0.3,0.6-1.5,1.5-1.6c0.1,0,0.1,0.1,0,0.1c-0.1,0.1-0.7,0.6-0.7,1.3
	c0.2,0,0.6,0,0.8,0c0.1-0.2,0.6-0.7,1.4-0.8c0.1,0,0.1,0.1,0,0.2s-0.5,0.5-0.6,0.8c0.3,0.1,1,0.6,1.1,1.2c0,0.1-0.1,0.1-0.2,0.1
	c-0.1-0.1-0.9-0.7-1.9-0.7C40.7,8.4,38.8,8.8,37.1,9.9L37.1,9.9L37.1,9.9L37.1,9.9z"/>
<path class="st0" d="M36.4,2.2L34,2.7l0.2,2.3l0.6-0.1L34.7,4l2-0.5c0.4-0.1,0.5-0.3,0.5-0.9C37.1,2.2,36.7,2.1,36.4,2.2z M36.3,3.1
	l-1.7,0.4l0-0.3c0,0,1.5-0.3,1.6-0.4c0.2,0,0.2,0.1,0.2,0.1C36.5,3,36.5,3.1,36.3,3.1z"/>
<path class="st0" d="M40.9,3.2l0-1.1c0-0.4-0.5-0.6-0.8-0.6l-2,0.3c-0.6,0.1-0.6,0.4-0.6,0.6l0,1.1c0,0.6,0.5,0.7,0.9,0.6l1.8-0.3
	C40.8,3.7,40.9,3.4,40.9,3.2z M40,3.3l-1.5,0.2c-0.2,0-0.3,0-0.4-0.2l0-0.6c0-0.2,0-0.3,0.3-0.4l1.5-0.3c0.2,0,0.3,0.1,0.3,0.3
	l0,0.7C40.3,3.1,40.2,3.3,40,3.3z"/>
<path class="st0" d="M45.8,2c-0.1,0-0.2-0.1-0.2-0.2c0-0.1,0.1-0.2,0.2-0.2l0,0h2.4V1.1h-2.7l0,0c-0.1,0-0.6,0-0.6,0.7
	c0,0.7,0.5,0.7,0.6,0.7l0,0l1.9,0l0,0c0.1,0,0.2,0.1,0.2,0.2c0,0.1-0.1,0.2-0.2,0.2l0,0H45v0.5h2.7l0,0c0.2,0,0.6,0,0.6-0.7
	C48.2,2,47.7,2,47.6,2l0,0L45.8,2L45.8,2L45.8,2z"/>
<polygon class="st0" points="52.3,1.4 52.2,3.8 52.7,3.9 52.8,2.8 54.7,3.2 54.7,4.2 55.2,4.3 55.4,1.9 54.8,1.8 54.8,2.7 52.8,2.4 
	52.9,1.5 52.3,1.4 52.3,1.4 "/>
<polygon class="st0" points="55.8,4.4 55.9,2 58.6,2.6 58.6,3 56.4,2.6 56.4,3 58.5,3.5 58.5,4 56.4,3.5 56.4,4 58.4,4.5 58.4,4.9 
	55.8,4.4 55.8,4.4 "/>
<path class="st0" d="M51.8,1.9l0-0.5l-2.5-0.2l0,0c-0.2,0-0.6,0-0.7,0.7c0,0.7-0.1,1-0.1,1c0,0.2,0.1,0.6,0.6,0.7l0,0l2.5,0.2l0-0.5
	L49.6,3l0,0c-0.2,0-0.4-0.1-0.4-0.4l0,0l0-0.5l0,0c0-0.2,0.1-0.4,0.4-0.4l0,0L51.8,1.9L51.8,1.9L51.8,1.9z"/>
<path class="st0" d="M44.3,2.3c0.1-0.2,0.2-0.3,0.2-0.5c0-0.6-0.4-0.7-0.8-0.7l-2.4,0.2l0.1,2.3l0.6,0l0-0.9l1.6-0.1
	c0.3,0,0.5,0.2,0.5,0.5l0,0.3l0.6,0l0-0.4C44.5,2.7,44.4,2.4,44.3,2.3z M43.5,2.1l-1.7,0.1l0-0.4l1.8-0.1c0.1,0,0.2,0.1,0.2,0.2
	C43.7,2,43.6,2.1,43.5,2.1z"/>
<path class="st0" d="M42.5,13.2c0,0.1,0.1,0.2,0.2,0.2c0.1,0,0.2-0.1,0.2-0.1c0,0,0-0.1-0.1-0.1l0,0L42.5,13l0,0
	c-0.1-0.1-0.2-0.2-0.2-0.3c0-0.2,0.1-0.4,0.4-0.4c0.2,0,0.4,0.1,0.4,0.4l0,0h-0.2l0,0c0-0.1-0.1-0.2-0.2-0.2c-0.1,0-0.2,0.1-0.2,0.1
	c0,0,0,0.1,0.1,0.1l0,0l0.3,0.1l0,0c0.1,0.1,0.2,0.1,0.2,0.3c0,0.1,0,0.2-0.1,0.3c-0.1,0.1-0.1,0.1-0.3,0.1c-0.2,0-0.3-0.1-0.4-0.2
	c0-0.1-0.1-0.1-0.1-0.2l0,0H42.5L42.5,13.2L42.5,13.2z"/>
<polygon class="st0" points="44,12.3 44,12.6 43.7,12.6 43.7,13.6 43.5,13.6 43.5,12.6 43.1,12.6 43.1,12.3 44,12.3 44,12.3 "/>
<path class="st0" d="M44.9,12.3v0.8l0,0c0,0.3-0.1,0.5-0.4,0.5c-0.3,0-0.4-0.2-0.4-0.5l0,0v-0.8h0.2v0.8l0,0c0,0.2,0.1,0.3,0.2,0.3
	c0.1,0,0.2-0.1,0.2-0.3l0,0v-0.8H44.9L44.9,12.3L44.9,12.3z"/>
<polygon class="st0" points="45.8,12.3 45.8,12.6 45.5,12.6 45.5,13.6 45.3,13.6 45.3,12.6 45,12.6 45,12.3 45.8,12.3 45.8,12.3 "/>
<path class="st0" d="M47.2,12.9h0.4v0.7h-0.1l0-0.2l0,0c-0.1,0.1-0.2,0.2-0.3,0.2c-0.3,0-0.5-0.3-0.5-0.6c0-0.4,0.2-0.7,0.5-0.7
	c0.2,0,0.4,0.2,0.4,0.4l0,0h-0.2l0,0c0-0.1-0.1-0.2-0.2-0.2c-0.2,0-0.3,0.2-0.3,0.4c0,0.3,0.1,0.4,0.3,0.4c0.1,0,0.2-0.1,0.2-0.3
	l0,0h-0.2V12.9L47.2,12.9L47.2,12.9z"/>
<polygon class="st0" points="50.6,12.3 50.6,12.6 50.3,12.6 50.3,13.6 50.1,13.6 50.1,12.6 49.8,12.6 49.8,12.3 50.6,12.3 
	50.6,12.3 "/>
<polygon class="st0" points="46.7,12.3 46.7,12.6 46.5,12.6 46.5,13.6 46.2,13.6 46.2,12.6 45.9,12.6 45.9,12.3 46.7,12.3 
	46.7,12.3 "/>
<path class="st0" d="M48.4,12.3h-0.2l-0.4,1.2H48l0.1-0.3h0.4l0.1,0.3h0.2L48.4,12.3z M48.1,13.1l0.1-0.5l0.1,0.5H48.1z"/>
<path class="st0" d="M49.6,13.3c0-0.2,0-0.3-0.1-0.3c0.1-0.1,0.1-0.1,0.1-0.3c0-0.1,0-0.2-0.1-0.3c-0.1-0.1-0.1-0.1-0.3-0.1h-0.4
	v1.2H49v-0.5h0.2c0.2,0,0.2,0.1,0.2,0.3c0,0.1,0,0.1,0,0.2h0.2C49.6,13.5,49.6,13.5,49.6,13.3z M49.2,12.9H49v-0.3h0.2
	c0.1,0,0.2,0,0.2,0.2S49.4,12.9,49.2,12.9z"/>
<path class="st0" d="M61.1,2.4c0.5,0,0.9,0.4,0.9,0.9c0,0.5-0.4,0.9-0.9,0.9c-0.5,0-0.9-0.4-0.9-0.9C60.3,2.8,60.6,2.4,61.1,2.4
	L61.1,2.4V2.3l0,0c-0.5,0-1,0.4-1,1c0,0.5,0.4,1,1,1c0.5,0,1-0.4,1-1c0-0.5-0.4-1-1-1l0,0V2.4L61.1,2.4L61.1,2.4z"/>
<path class="st0" d="M60.9,2.8h0.3l0,0c0.1,0,0.3,0,0.3,0.2c0,0.2-0.2,0.2-0.4,0.2l0,0h-0.2v0.1h0.2l0.3,0.5h0.2l-0.3-0.5l0,0
	c0.2,0,0.3-0.1,0.3-0.3c0-0.1,0-0.2-0.1-0.2c-0.1,0-0.2-0.1-0.3-0.1l0,0h-0.5v1.1h0.1V2.8L60.9,2.8L60.9,2.8z"/>
</svg>
