<?xml version="1.0" encoding="utf-8"?>
<!-- Generator: Adobe Illustrator 26.0.1, SVG Export Plug-In . SVG Version: 6.00 Build 0)  -->
<svg version="1.1" id="Layer_1" xmlns="http://www.w3.org/2000/svg" xmlns:xlink="http://www.w3.org/1999/xlink" x="0px" y="0px"
	 viewBox="0 0 95 35" style="enable-background:new 0 0 95 35;" xml:space="preserve">
<style type="text/css">
	.st0{fill:#343741;}
</style>
<g>
	<path class="st0" d="M50.2,0.1c-0.2,0-0.5,0.9-0.9,1.3c-0.3,0.3-0.7,0.3-0.9,0.7c-0.1,0.1-0.1,0.4-0.1,0.6c-0.2,0.5-0.8,0.5-0.8,1
		c0,0.6,0.5,0.7,1,1.1c0.4,0.3,0.4,0.5,0.8,0.7c0.4,0.1,0.9-0.3,1.4-0.1c0.4,0.1,0.8,0.2,0.9,0.6c0.1,0.4,0,1-0.5,0.9
		c-0.2,0-0.9-0.3-1.8-0.2C48.2,7,47,7.3,46.9,8.5c-0.1,0.7,0.8,1.5,1.6,1.3C49,9.7,48.7,9.1,49,8.7c0.4-0.4,2.6,1.4,4.7,1.4
		c0.9,0,1.5-0.2,2.2-0.9c0.1-0.1,0.1-0.2,0.2-0.2c0.1,0,0.2,0.1,0.3,0.1c1.7,1.4,3,4.1,9.1,4.1c0.9,0,1.9,0.4,2.7,1.2
		c0.7,0.7,1.1,1.7,1.6,2.8c0.6,1.6,1.7,3.1,3.4,4.8c0.1,0.1,1.5,1.2,1.6,1.2c0,0,0.1,0.3,0.1,0.4c0,1-0.2,4,2,4.1
		c0.5,0,0.4-0.4,0.4-0.6c0-0.5-0.1-1,0.2-1.6c0.4-0.7-0.8-1.1-0.8-2.6c0-1.2-1-1-1.5-1.9c-0.3-0.5-0.5-0.8-0.5-1.4
		c0.1-3.6-0.8-5.9-1.2-6.5c-0.3-0.4-0.6-0.6-0.3-0.8c1.9-1.2,2.3-2.4,2.3-2.4c1-2.3,1.9-4.4,3.1-5.4c0.2-0.2,0.9-0.7,1.3-0.8
		C81,3.3,81.6,2.9,82,2.6c0.5-0.5,0.9-1.6,0.4-2.2c-0.6-0.8-1.7-0.2-2.2,0.1c-3.4,2-3.9,5.6-5.1,7.6c-0.9,1.6-2.5,2.8-3.8,2.9
		c-1,0.1-2.1-0.1-3.2-0.6c-2.7-1.2-4.1-2.7-4.5-3c-0.7-0.6-6.3-6-10.8-6.3c0,0-0.6-1.1-0.7-1.1c-0.3,0-0.7,0.7-0.9,0.8
		C50.9,0.9,50.5,0.1,50.2,0.1 M30.3,32.9c-0.4,0-0.8-0.4-0.8-0.8l0-14.1h-4.7v15.6c0,0.8,0.6,1.4,1.4,1.4h8.1c0.8,0,1.4-0.6,1.4-1.4
		V18h-4.7l0,14.1C31.1,32.5,30.7,32.9,30.3,32.9 M45.9,18h-7c-0.8,0-1.5,0.7-1.5,1.5v15.4H42V20.8c0-0.4,0.4-0.8,0.8-0.8
		c0.4,0,0.8,0.3,0.8,0.8v14.2h4.6V20.7c0-0.4,0.4-0.8,0.8-0.8c0.4,0,0.8,0.3,0.8,0.8v14.2h4.7V19.5c0-0.8-0.7-1.5-1.5-1.5L45.9,18z
		 M18.6,20.8c0-0.5-0.4-0.8-0.8-0.8H17v8.6h0.8c0.4,0,0.8-0.3,0.8-0.8V20.8z M21.7,30.7H17v4.3h-4.7V18h9.4c0.8,0,1.5,0.7,1.5,1.5
		v9.6C23.3,30,22.6,30.7,21.7,30.7 M70.4,31.1c-0.9,0-1.7,0.8-1.7,1.8c0,1,0.8,1.8,1.8,1.8c1,0,1.7-0.8,1.7-1.8
		C72.2,31.9,71.4,31.1,70.4,31.1L70.4,31.1z M72.5,32.9c0,1.2-0.9,2.1-2.1,2.1c-1.2,0-2.1-0.9-2.1-2.1c0-1.1,0.9-2.1,2-2.1
		C71.6,30.8,72.5,31.7,72.5,32.9"/>
	<path class="st0" d="M70.2,32.8c0.3,0,0.5-0.1,0.5-0.3c0-0.2-0.2-0.3-0.5-0.3h-0.1L70.2,32.8L70.2,32.8z M71.4,34.1h-0.6l-0.7-1v1
		h-0.5v-2.4h0.5c0.6,0,1,0.2,1,0.7c0,0.3-0.2,0.6-0.5,0.7l0,0L71.4,34.1z M62.3,28.6v-7.8c0-0.4-0.4-0.8-0.8-0.8
		c-0.4,0-0.8,0.3-0.8,0.8v7.8L62.3,28.6z M62.3,34.9v-4.3h-1.6v4.3H56V19.5c0-0.8,0.7-1.5,1.5-1.5h7.9c0.8,0,1.5,0.7,1.5,1.5v15.4
		L62.3,34.9z"/>
</g>
</svg>
