<?xml version="1.0" encoding="utf-8"?>
<!-- Generator: Adobe Illustrator 26.0.1, SVG Export Plug-In . SVG Version: 6.00 Build 0)  -->
<svg version="1.1" id="Layer_1" xmlns="http://www.w3.org/2000/svg" xmlns:xlink="http://www.w3.org/1999/xlink" x="0px" y="0px"
	 viewBox="0 0 95 35" style="enable-background:new 0 0 95 35;" xml:space="preserve">
<style type="text/css">
	.st0{fill-rule:evenodd;clip-rule:evenodd;fill:#343741;}
</style>
<g>
	<path class="st0" d="M26.7,20.8c0-2.1,1.7-3.8,3.8-3.8c2.1,0,3.8,1.7,3.8,3.8c0,2.1-1.7,3.8-3.8,3.8C28.4,24.6,26.7,22.9,26.7,20.8
		L26.7,20.8z"/>
	<path class="st0" d="M35.2,20.8c0-2.1,1.7-3.8,3.8-3.8c2.1,0,3.8,1.7,3.8,3.8c0,2.1-1.7,3.8-3.8,3.8C36.9,24.6,35.2,22.9,35.2,20.8
		L35.2,20.8z"/>
	<path class="st0" d="M43.7,20.8c0-2.1,1.7-3.8,3.8-3.8c2.1,0,3.8,1.7,3.8,3.8c0,2.1-1.7,3.8-3.8,3.8C45.4,24.6,43.7,22.9,43.7,20.8
		L43.7,20.8z"/>
	<path class="st0" d="M52.2,20.8c0-2.1,1.7-3.8,3.8-3.8c2.1,0,3.8,1.7,3.8,3.8c0,2.1-1.7,3.8-3.8,3.8C53.9,24.6,52.2,22.9,52.2,20.8
		L52.2,20.8z"/>
	<path class="st0" d="M60.8,20.8c0-2.1,1.7-3.8,3.8-3.8c2.1,0,3.8,1.7,3.8,3.8c0,2.1-1.7,3.8-3.8,3.8C62.4,24.6,60.8,22.9,60.8,20.8
		L60.8,20.8z"/>
	<path class="st0" d="M26.7,12.3c0-2.1,1.7-3.8,3.8-3.8c2.1,0,3.8,1.7,3.8,3.8c0,2.1-1.7,3.8-3.8,3.8C28.4,16,26.7,14.4,26.7,12.3
		L26.7,12.3z"/>
	<path class="st0" d="M35.2,12.3c0-2.1,1.7-3.8,3.8-3.8c2.1,0,3.8,1.7,3.8,3.8c0,2.1-1.7,3.8-3.8,3.8C36.9,16,35.2,14.4,35.2,12.3
		L35.2,12.3z"/>
	<path class="st0" d="M43.7,12.3c0-2.1,1.7-3.8,3.8-3.8c2.1,0,3.8,1.7,3.8,3.8c0,2.1-1.7,3.8-3.8,3.8C45.4,16,43.7,14.4,43.7,12.3
		L43.7,12.3z"/>
	<path class="st0" d="M52.2,12.3c0-2.1,1.7-3.8,3.8-3.8c2.1,0,3.8,1.7,3.8,3.8c0,2.1-1.7,3.8-3.8,3.8C53.9,16,52.2,14.4,52.2,12.3
		L52.2,12.3z"/>
	<path class="st0" d="M60.8,12.3c0-2.1,1.7-3.8,3.8-3.8c2.1,0,3.8,1.7,3.8,3.8c0,2.1-1.7,3.8-3.8,3.8C62.4,16,60.8,14.4,60.8,12.3
		L60.8,12.3z"/>
	<path class="st0" d="M26.7,3.8c0-2.1,1.7-3.8,3.8-3.8c2.1,0,3.8,1.7,3.8,3.8c0,2.1-1.7,3.8-3.8,3.8C28.4,7.5,26.7,5.8,26.7,3.8
		L26.7,3.8z"/>
	<path class="st0" d="M35.2,3.8C35.2,1.7,36.9,0,39,0c2.1,0,3.8,1.7,3.8,3.8c0,2.1-1.7,3.8-3.8,3.8C36.9,7.5,35.2,5.8,35.2,3.8
		L35.2,3.8z"/>
	<path class="st0" d="M43.7,3.8c0-2.1,1.7-3.8,3.8-3.8c2.1,0,3.8,1.7,3.8,3.8c0,2.1-1.7,3.8-3.8,3.8C45.4,7.5,43.7,5.8,43.7,3.8
		L43.7,3.8z"/>
	<path class="st0" d="M52.2,3.8C52.2,1.7,53.9,0,56,0c2.1,0,3.8,1.7,3.8,3.8c0,2.1-1.7,3.8-3.8,3.8C53.9,7.5,52.2,5.8,52.2,3.8
		L52.2,3.8z"/>
	<path class="st0" d="M60.8,3.8c0-2.1,1.7-3.8,3.8-3.8c2.1,0,3.8,1.7,3.8,3.8c0,2.1-1.7,3.8-3.8,3.8C62.4,7.5,60.8,5.8,60.8,3.8
		L60.8,3.8z"/>
	<path class="st0" d="M35.7,30.2c0,1.2-0.8,2.7-1.1,3l1.4,1.4L34.1,35l-0.8-0.8c-0.6,0.3-1.2,0.5-2.1,0.4c-2.5,0-4.6-2-4.6-4.6
		c0.1-2.4,2.1-4.2,4.5-4.2C33.6,25.8,35.7,27.8,35.7,30.2L35.7,30.2z M31.2,27.6c1.4,0,2.5,1.2,2.6,2.6c0,0.7-0.2,1.4-0.4,1.6
		l-0.7-0.7l-1.9,0.3l1.3,1.4c-0.3,0.1-0.6,0.2-1.1,0.1c-1.5-0.1-2.6-1.3-2.5-2.8C28.6,28.7,29.8,27.6,31.2,27.6L31.2,27.6z"/>
	<polygon class="st0" points="60.4,26.1 62.1,26.1 65.7,31.2 65.7,26.1 67.6,26.1 67.6,34.4 65.8,34.4 62.1,29.3 62.1,34.4 
		60.4,34.4 	"/>
	<polygon class="st0" points="36.1,34.4 36.1,26.1 38.1,26.1 38.1,34.4 	"/>
	<polygon class="st0" points="54.7,26.1 59.6,26.1 59.6,27.7 56.7,27.7 56.7,29.4 59.6,29.4 59.6,31.1 56.7,31.1 56.7,32.8 
		59.6,32.8 59.6,34.4 54.7,34.4 	"/>
	<path class="st0" d="M41.3,26.1h2.3l3.1,8.3h-2.1L44,32.9h-3.2l-0.6,1.5h-2.1v0L41.3,26.1L41.3,26.1z M42.4,28.3l1,3h-2.1
		L42.4,28.3L42.4,28.3z"/>
	<path class="st0" d="M53.9,28c-0.1-0.3-1.3-2.3-4-2.2c-2.9,0.1-4.3,2.6-4.2,4.5c0.1,2.5,1.9,4.4,4.4,4.4c2,0,4.4-1.3,4.4-4.6h-4.1
		v1.6l2.1,0c-0.4,1-1.4,1.3-2.3,1.3c-1.3,0-2.6-1.2-2.6-2.6c0-1.6,1.2-2.7,2.5-2.7c1,0,1.9,0.4,2.3,1.1L53.9,28L53.9,28z"/>
</g>
</svg>
