<?xml version="1.0" encoding="utf-8"?>
<!-- Generator: Adobe Illustrator 26.0.1, SVG Export Plug-In . SVG Version: 6.00 Build 0)  -->
<svg version="1.1" id="Layer_1" xmlns="http://www.w3.org/2000/svg" xmlns:xlink="http://www.w3.org/1999/xlink" x="0px" y="0px"
	 viewBox="0 0 95 35" style="enable-background:new 0 0 95 35;" xml:space="preserve">
<style type="text/css">
	.st0{fill:#343741;}
</style>
<polygon class="st0" points="78.8,25.5 78.8,19.7 89.6,19.7 89.6,14.8 78.8,14.8 78.8,9.5 94.2,9.5 94.2,4.5 72.2,4.5 72.2,30.5 
	95,30.5 95,25.5 "/>
<polygon class="st0" points="59.4,30.5 68.5,4.5 61.7,4.5 56.6,21.7 50.8,4.5 45.1,4.5 39.5,21.6 34.4,4.5 27.4,4.5 36.9,30.5 
	42.1,30.5 47.9,12.3 54.4,30.5 "/>
<path class="st0" d="M19,30.5c0,0-8.8-12.5-9.1-12.9c-0.3-0.4-0.2-0.9,0.4-0.9h5.2c2.7,0,3.7-1.7,3.7-3.7c0-2.4-1-3.6-3.6-3.6h-9v21
	H0V4.5h16.5c6.3,0,8.9,2.4,8.9,8.4c0,5.5-2.6,7.4-6,7.9l7.4,9.7H19z"/>
</svg>
