<?xml version="1.0" encoding="utf-8"?>
<!-- Generator: Adobe Illustrator 26.0.1, SVG Export Plug-In . SVG Version: 6.00 Build 0)  -->
<svg version="1.1" id="Layer_1" xmlns="http://www.w3.org/2000/svg" xmlns:xlink="http://www.w3.org/1999/xlink" x="0px" y="0px"
	 viewBox="0 0 95 35" style="enable-background:new 0 0 95 35;" xml:space="preserve">
<style type="text/css">
	.st0{fill:#FFFFFF;}
</style>
<path class="st0" d="M57.4,31.4V34h0.4v-1.1h0.4L59,34h0.4l-0.8-1.1c0.4,0,0.7-0.3,0.7-0.7c0-0.5-0.3-0.7-0.9-0.7H57.4z M57.8,31.8
	h0.5c0.3,0,0.6,0,0.6,0.4c0,0.4-0.3,0.4-0.6,0.4h-0.5V31.8z M58.3,30.4c-1.2,0-2.3,1-2.3,2.3C56,34,57,35,58.3,35
	c1.2,0,2.3-1,2.3-2.3C60.6,31.4,59.5,30.4,58.3,30.4z M58.3,30.8c1,0,1.8,0.8,1.8,1.9c0,1.1-0.8,1.9-1.8,1.9c-1,0-1.9-0.8-1.9-1.9
	C56.4,31.6,57.3,30.8,58.3,30.8z"/>
<g>
	<path class="st0" d="M38,13.4l-2.2,7c0.7,0.2,1.4,0.4,2.2,0.4h0c0.8,0,1.5-0.1,2.2-0.4L38,13.4L38,13.4z"/>
	<path class="st0" d="M54.5,11.1H53v5.6h1.5c2,0,3.7-0.7,3.7-2.8C58.2,11.8,56.6,11.1,54.5,11.1z"/>
	<path class="st0" d="M12.1,0v35h35.7l35-35H12.1z M55.2,21.5H53v6.7H42.7l-1-3.2c-1.1,0.4-2.3,0.6-3.6,0.6c-1.3,0-2.6-0.2-3.7-0.6
		l-1.1,3.2h-6.3l0.7-1.9l-0.3,0.2c-1.6,1.3-3.5,2-6,2H21c-2.8,0-5.6-0.8-7.9-2.1l2.1-4.3c2.3,1.4,3.8,1.7,5.8,1.6
		c1,0,1.8-0.2,2.2-0.7c0.3-0.3,0.4-0.7,0.5-1.1c0-1.1-1.6-1.6-3.5-2.2c-1.6-0.5-3.3-1.1-4.7-2.2c-1.6-1.2-2.4-2.7-2.4-4.9
		c0-1.6,0.6-3,1.7-4.1c1.5-1.6,4-2.5,7-2.5h0c2.5,0,5.6,0.7,7.9,1.9l-2.4,4.2c-2.5-1.2-3.7-1.3-5.1-1.4c-2.1-0.1-3.1,0.6-3.2,1.4
		c0,1,2,1.9,3.8,2.5c2.8,0.9,6.5,2.1,7,5.6L35,6.6h6l6.1,16.6V6.6h7l0,0c6.7,0,9.8,2.4,9.8,7.5C63.9,18.8,60.7,21.5,55.2,21.5z"/>
</g>
</svg>
