<?xml version="1.0" encoding="utf-8"?>
<!-- Generator: Adobe Illustrator 26.0.1, SVG Export Plug-In . SVG Version: 6.00 Build 0)  -->
<svg version="1.1" id="Layer_1" xmlns="http://www.w3.org/2000/svg" xmlns:xlink="http://www.w3.org/1999/xlink" x="0px" y="0px"
	 viewBox="0 0 95 35" style="enable-background:new 0 0 95 35;" xml:space="preserve">
<style type="text/css">
	.st0{fill:#343741;}
</style>
<g>
	<g>
		<path class="st0" d="M91.8,19.3c0.7,0.7,1.9,0.7,2.7,0s0.7-1.9,0-2.7c-0.7-0.7-1.9-0.7-2.7,0c-0.4,0.4-0.5,0.8-0.5,1.3
			C91.2,18.5,91.4,19,91.8,19.3"/>
		<path class="st0" d="M88.6,22.5c0.6,0.6,1.5,0.6,2,0c0.6-0.6,0.6-1.5,0-2c-0.6-0.6-1.5-0.6-2,0c-0.3,0.3-0.4,0.6-0.4,1
			C88.2,21.8,88.4,22.2,88.6,22.5"/>
		<path class="st0" d="M88.7,15.6c0.6,0.6,1.5,0.6,2,0c0.6-0.6,0.6-1.5,0-2c-0.6-0.6-1.5-0.6-2,0c-0.3,0.3-0.4,0.6-0.4,1
			C88.2,14.9,88.4,15.3,88.7,15.6"/>
		<path class="st0" d="M85.4,25.7c0.4,0.4,1.1,0.4,1.6,0c0.4-0.4,0.4-1.1,0-1.6c-0.4-0.4-1.1-0.4-1.6,0c-0.2,0.2-0.3,0.5-0.3,0.8
			C85.1,25.2,85.2,25.5,85.4,25.7"/>
		<path class="st0" d="M85.4,18.8c0.4,0.4,1.1,0.4,1.6,0c0.4-0.4,0.4-1.1,0-1.6c-0.4-0.4-1.1-0.4-1.6,0c-0.2,0.2-0.3,0.5-0.3,0.8
			C85.1,18.3,85.2,18.6,85.4,18.8"/>
		<path class="st0" d="M85.4,11.9c0.4,0.4,1.1,0.4,1.6,0c0.4-0.4,0.4-1.1,0-1.6c-0.4-0.4-1.1-0.4-1.6,0c-0.2,0.2-0.3,0.5-0.3,0.8
			C85.1,11.4,85.2,11.7,85.4,11.9"/>
		<path class="st0" d="M82.2,22.1c0.3,0.3,0.9,0.3,1.2,0c0.3-0.3,0.3-0.9,0-1.2c-0.3-0.3-0.9-0.3-1.2,0c-0.2,0.2-0.3,0.4-0.3,0.6
			C81.9,21.7,82,21.9,82.2,22.1"/>
		<path class="st0" d="M82.2,15.1c0.3,0.3,0.9,0.3,1.2,0c0.3-0.3,0.3-0.9,0-1.2c-0.3-0.3-0.9-0.3-1.2,0c-0.2,0.2-0.3,0.4-0.3,0.6
			C81.9,14.8,82,15,82.2,15.1"/>
		<path class="st0" d="M78.8,18.5c0.3,0.3,0.7,0.3,0.9,0c0.3-0.3,0.3-0.7,0-0.9c-0.3-0.3-0.7-0.3-0.9,0c-0.1,0.1-0.2,0.3-0.2,0.5
			C78.7,18.2,78.7,18.3,78.8,18.5"/>
	</g>
	<g>
		<path class="st0" d="M23.6,14.6V13c0.8,0.3,1.6,0.4,2.5,0.4c1,0,1.5-0.3,1.5-0.8c0-0.2-0.1-0.4-0.2-0.5c-0.1-0.1-0.5-0.3-1.1-0.6
			c-1.1-0.4-1.8-0.8-2.1-1.1c-0.4-0.4-0.7-1-0.6-1.6c0-0.8,0.3-1.4,0.9-1.9c0.6-0.4,1.4-0.6,2.4-0.6c0.8,0,1.6,0.1,2.3,0.3v1.6
			c-0.7-0.3-1.4-0.4-2.1-0.5c-0.9,0-1.4,0.3-1.4,0.8c0,0.2,0.1,0.4,0.3,0.5c0.2,0.1,0.6,0.3,1.3,0.6c1,0.4,1.7,0.8,2,1.2
			c0.4,0.4,0.6,0.9,0.6,1.5c0,0.8-0.4,1.6-1.2,2c-0.6,0.4-1.4,0.6-2.4,0.6C25.3,14.9,24.4,14.8,23.6,14.6"/>
		<path class="st0" d="M31,14.7h2.3V6.5H31V14.7z"/>
		<polygon class="st0" points="35.4,6.5 35.4,14.7 41.4,14.7 41.4,13.1 37.6,13.1 37.6,11.2 40.8,11.2 40.8,9.8 37.6,9.8 37.6,8 
			41.3,8 41.3,6.5 		"/>
		<polygon class="st0" points="50.1,6.5 47.9,11.7 45.9,6.5 42.9,6.5 42.9,14.7 44.5,14.7 44.5,8.9 46.9,14.8 48.3,14.8 50.7,8.9 
			50.7,14.7 52.9,14.7 52.9,6.5 		"/>
		<polygon class="st0" points="55,6.5 55,14.7 61,14.7 61,13.1 57.2,13.1 57.2,11.2 60.4,11.2 60.4,9.8 57.2,9.8 57.2,8 60.9,8 
			60.9,6.5 		"/>
		<polygon class="st0" points="67.9,6.5 67.9,12 65.1,6.5 62.5,6.5 62.5,14.7 64.1,14.7 64.1,9.1 67,14.7 69.6,14.7 69.6,6.5 		"/>
		<path class="st0" d="M71.2,14.6V13c0.8,0.3,1.6,0.4,2.5,0.4c1,0,1.5-0.3,1.5-0.8c0-0.2-0.1-0.4-0.2-0.5c-0.1-0.1-0.5-0.3-1.1-0.6
			c-1.1-0.4-1.8-0.8-2.1-1.1C71.2,10,71,9.4,71,8.8C71,8,71.3,7.4,72,7c0.6-0.4,1.4-0.6,2.4-0.6c0.7,0,1.4,0.1,2.1,0.3l0.2,0v1.6
			c-0.7-0.3-1.4-0.4-2.1-0.5c-0.9,0-1.4,0.3-1.4,0.8c0,0.2,0.1,0.4,0.3,0.5c0.1,0.1,0.6,0.3,1.3,0.6c1,0.4,1.7,0.8,2,1.2
			c0.4,0.4,0.6,0.9,0.6,1.5c0,0.8-0.4,1.6-1.2,2c-0.6,0.4-1.4,0.6-2.4,0.6C72.9,14.9,72,14.8,71.2,14.6"/>
	</g>
	<g>
		<path class="st0" d="M56.8,23.1c0,1-1.3,1.2-2.2,1.2c0-1,0.6-1.9,1.5-1.9C56.4,22.4,56.8,22.7,56.8,23.1
			C56.8,23.1,56.8,23.1,56.8,23.1 M58.5,23.1c0-1.3-0.9-2.1-2.3-2.1c-2.3,0-3.5,1.9-3.5,4c0,2.1,1,3.6,3.4,3.6
			c0.9,0,1.8-0.3,2.6-0.8L58,26.5c-0.5,0.4-1.1,0.6-1.8,0.6c-1.1,0-1.5-0.7-1.6-1.4C56.3,25.7,58.5,25.2,58.5,23.1"/>
		<path class="st0" d="M63.6,23.1c0,1-1.3,1.2-2.2,1.2c0-1,0.6-1.9,1.5-1.9C63.3,22.4,63.6,22.7,63.6,23.1
			C63.6,23.1,63.7,23.1,63.6,23.1 M65.4,23.1c0-1.3-0.9-2.1-2.3-2.1c-2.3,0-3.5,1.9-3.5,4c0,2.1,1,3.6,3.4,3.6
			c0.9,0,1.8-0.3,2.6-0.8l-0.6-1.3c-0.5,0.4-1.1,0.6-1.8,0.6c-1.1,0-1.5-0.7-1.6-1.4C63.2,25.7,65.4,25.2,65.4,23.1"/>
		<path class="st0" d="M12.6,23.1c0,1-1.3,1.2-2.2,1.2c0-1,0.6-1.9,1.5-1.9C12.2,22.4,12.6,22.7,12.6,23.1
			C12.6,23.1,12.6,23.1,12.6,23.1 M14.3,23.1c0-1.3-0.9-2.1-2.3-2.1c-2.3,0-3.5,1.9-3.5,4c0,2.1,1,3.6,3.4,3.6
			c0.9,0,1.8-0.3,2.6-0.8l-0.6-1.3c-0.5,0.4-1.1,0.6-1.8,0.6c-1.1,0-1.5-0.7-1.6-1.4C12.2,25.7,14.3,25.2,14.3,23.1"/>
		<polygon class="st0" points="4.9,19 4.9,22.8 2,22.8 2,19 0,19 0,28.4 2,28.4 2,24.5 4.9,24.5 4.9,28.4 6.9,28.4 6.9,19 		"/>
		<path class="st0" d="M19.9,26.1c0,0.5-0.4,1.1-1.2,1.1c-1,0-1.3-1-1.3-2.2c0-1.4,0.4-2.5,1.6-2.5c0.3,0,0.6,0,0.9,0.2V26.1z
			 M21.9,28.4L21.8,27v-5.4c-0.8-0.3-1.7-0.5-2.6-0.5c-2.5,0-3.7,1.6-3.7,4.1c0,1.9,0.7,3.5,2.7,3.5c0.8,0,1.5-0.3,1.9-0.9l0.1,0
			l0.1,0.7L21.9,28.4z"/>
		<path class="st0" d="M23.6,19v7.3c0,1.2,0.1,2.3,2.2,2.3c0.6,0,1.2-0.2,1.8-0.5l-0.4-1.3c-0.3,0.1-0.6,0.2-0.9,0.2
			c-0.5,0-0.7-0.3-0.7-1.1v-7H23.6z"/>
		<path class="st0" d="M35.9,28.4v-4.6c0-0.7,0.5-1.2,1.2-1.2c0,0,0,0,0,0c0.8,0,0.9,0.6,0.9,1.3v4.6h2v-4.9c0-1.7-0.8-2.5-2.3-2.5
			c-0.7,0-1.3,0.3-1.8,0.7V19h-2v9.4H35.9z"/>
		<path class="st0" d="M41.7,28.4h2v-7.2h-2V28.4z"/>
		<path class="st0" d="M41.6,19c0,0.3,0.1,0.5,0.3,0.7c0.2,0.2,0.5,0.3,0.8,0.3c0.3,0,0.6-0.1,0.8-0.3c0.4-0.4,0.4-1,0-1.4
			c0,0,0,0,0,0c-0.2-0.2-0.5-0.3-0.8-0.3c-0.3,0-0.6,0.1-0.8,0.3C41.7,18.5,41.6,18.7,41.6,19"/>
		<path class="st0" d="M47.3,28.4v-4.6c0-0.7,0.5-1.2,1.2-1.3c0,0,0,0,0.1,0c0.8,0,0.9,0.6,0.9,1.4v4.5h2v-4.9
			c0-1.7-0.8-2.5-2.2-2.5c-0.8,0-1.6,0.4-2.1,1.1l-0.1-0.8h-1.6l0.1,1.3v5.8L47.3,28.4z"/>
		<path class="st0" d="M68.9,24c0-0.7,0.5-1.2,1.2-1.2c0.4,0,0.7,0.1,1,0.3l0.4-1.7c-0.4-0.2-0.8-0.3-1.2-0.3
			c-0.7,0-1.4,0.4-1.7,1.2l-0.2-1h-1.6l0.1,1.2v5.9h2L68.9,24z"/>
		<path class="st0" d="M76.8,21.7L76.8,21.7c-0.7-0.5-1.5-0.7-2.3-0.6C73,21.1,71.9,22,72,23.5c0.1,1.5,1.2,1.9,2.2,2.1
			c0.6,0.2,1.1,0.3,1.2,0.8c0,0.5-0.3,0.8-0.9,0.8c-0.6,0-1.4-0.3-2-0.5L72,28c0.4,0.3,1.5,0.7,2.7,0.6c1.6-0.1,2.7-0.9,2.6-2.5
			c-0.1-1.5-1.3-1.8-2.3-2.1c-0.6-0.2-1.1-0.3-1.2-0.9c0-0.5,0.3-0.7,0.8-0.7c0.5,0,1,0.2,1.6,0.6L76.8,21.7z"/>
		<path class="st0" d="M30.4,22.8h1.9v-1.5h-1.9V19h-2v2.2h-1.1v1.5h1.1v3.5c0,1.2,0.1,2.3,2.2,2.3c0.6,0,1.2-0.2,1.8-0.5L32,26.9
			c-0.3,0.1-0.6,0.2-0.9,0.2c-0.5,0-0.7-0.3-0.7-1.1L30.4,22.8z"/>
	</g>
</g>
</svg>
