<?xml version="1.0" encoding="utf-8"?>
<!-- Generator: Adobe Illustrator 26.0.1, SVG Export Plug-In . SVG Version: 6.00 Build 0)  -->
<svg version="1.1" id="Layer_1" xmlns="http://www.w3.org/2000/svg" xmlns:xlink="http://www.w3.org/1999/xlink" x="0px" y="0px"
	 viewBox="0 0 95 35" style="enable-background:new 0 0 95 35;" xml:space="preserve">
<style type="text/css">
	.st0{fill-rule:evenodd;clip-rule:evenodd;fill:#343741;}
</style>
<path class="st0" d="M0.3,24.4v-2.9c1.6,0.5,3.1,0.8,4.3,0.8c1.7,0,2.6-0.5,2.6-1.4c0-0.3-0.1-0.6-0.4-0.9c-0.3-0.2-0.9-0.6-2-1
	c-1.9-0.8-3.1-1.5-3.7-2C0.4,16.4,0,15.4,0,14.3c0-1.4,0.5-2.5,1.6-3.3C2.7,10.3,4.1,10,5.8,10c1,0,2.3,0.2,4.1,0.5v2.7
	c-1.3-0.5-2.6-0.8-3.7-0.8c-1.6,0-2.4,0.4-2.4,1.3c0,0.3,0.2,0.6,0.5,0.8c0.3,0.2,1,0.5,2.2,1.1c1.8,0.8,2.9,1.5,3.5,2
	c0.7,0.7,1,1.6,1,2.7c0,1.6-0.7,2.8-2,3.6c-1.1,0.7-2.5,1-4.3,1C3.3,25,1.8,24.8,0.3,24.4L0.3,24.4z"/>
<polygon class="st0" points="13.4,10.2 13.4,10.2 17.4,10.2 17.4,24.7 13.4,24.7 "/>
<polygon class="st0" points="21.1,24.7 21.1,10.2 31.5,10.2 31.5,12.8 25,12.8 25,16.1 30.7,16.1 30.7,18.5 25,18.5 25,21.9 
	31.7,21.9 31.7,24.7 "/>
<polygon class="st0" points="34.3,24.7 34.3,10.2 39.6,10.2 43.2,19.4 46.9,10.2 51.9,10.2 51.9,24.7 48.1,24.7 48.1,14.4 
	43.8,24.8 41.3,24.8 37.2,14.4 37.2,24.7 "/>
<polygon class="st0" points="55.6,24.7 55.6,10.2 66,10.2 66,12.8 59.5,12.8 59.5,16.1 65.1,16.1 65.1,18.5 59.5,18.5 59.5,21.9 
	66.1,21.9 66.1,24.7 "/>
<polygon class="st0" points="68.8,24.7 68.8,10.2 73.5,10.2 78.5,19.9 78.5,10.2 81.3,10.2 81.3,24.7 76.8,24.7 71.7,14.9 
	71.7,24.7 "/>
<path class="st0" d="M84.2,24.4v-2.9c1.6,0.5,3.1,0.8,4.3,0.8c1.7,0,2.6-0.5,2.6-1.4c0-0.3-0.1-0.6-0.4-0.9c-0.3-0.2-0.9-0.6-2-1
	c-1.9-0.8-3.1-1.4-3.7-2c-0.7-0.7-1.1-1.6-1.1-2.8c0-1.4,0.5-2.5,1.6-3.3c1.1-0.7,2.5-1.1,4.2-1.1c1,0,2.2,0.2,3.8,0.5l0.4,0.1v2.7
	c-1.3-0.5-2.6-0.8-3.8-0.8c-1.6,0-2.4,0.4-2.4,1.3c0,0.3,0.2,0.6,0.5,0.8c0.3,0.2,1,0.5,2.3,1.1c1.8,0.8,2.9,1.5,3.5,2
	c0.7,0.7,1,1.6,1,2.7c0,1.6-0.7,2.8-2,3.6c-1.1,0.7-2.5,1-4.3,1C87.2,25,85.7,24.8,84.2,24.4L84.2,24.4z"/>
</svg>
