<?xml version="1.0" encoding="utf-8"?>
<!-- Generator: Adobe Illustrator 26.0.1, SVG Export Plug-In . SVG Version: 6.00 Build 0)  -->
<svg version="1.1" id="Layer_1" xmlns="http://www.w3.org/2000/svg" xmlns:xlink="http://www.w3.org/1999/xlink" x="0px" y="0px"
	 viewBox="0 0 95 35" style="enable-background:new 0 0 95 35;" xml:space="preserve">
<style type="text/css">
	.st0{fill:#FFFFFF;}
</style>
<g>
	<path class="st0" d="M74.9,19.5c0,3.3,2,6.3,6,6.3c3.9,0,6-3.1,6-6.3v-0.7h-2.3v0.7c0,2.4-1.1,4.2-3.7,4.2c-2.5,0-3.7-1.9-3.7-4.2
		V9.5h-2.3L74.9,19.5z"/>
	<rect x="69.4" y="9.5" class="st0" width="2.3" height="15.9"/>
	<path class="st0" d="M40.2,17.7c0,4.5,3.6,8.1,8.1,8.1s8.1-3.6,8.1-8.1c0-4.5-3.6-8.1-8.1-8.1H48v2h0.4c3.3,0,5.9,2.7,5.9,6.1
		c0,3.4-2.6,6.1-5.9,6.1s-5.9-2.7-5.9-6.1H40.2z"/>
	<path class="st0" d="M84.8,13.3c0,2,0.9,3.1,2.4,3.9c1.1,0.6,2.3,0.7,3.4,1.2c1.6,0.6,2.1,1.4,2.1,2.6c0,1.6-1.1,2.6-2.9,2.6h-0.2
		v1.9h0.1c3.2,0,5.3-2,5.3-4.5c0-1.7-0.8-3.3-2.9-4.3c-1.1-0.5-2.5-0.8-3.5-1.2c-1.1-0.5-1.5-1.1-1.5-2.1c0-1.2,1-2.2,2.6-2.2
		c2.1,0,3,1,3.1,2.5h2.1c0.1-2.3-1.6-4.5-5.2-4.5C86.8,9.2,84.8,11,84.8,13.3"/>
	<path class="st0" d="M56.9,11.6h4.7c1.5,0,3,1.2,3,2.9c0,1.7-1.3,3-3,3h-2.5v2.1l1.8,0l3.1,5.9h2.6l-3.3-6.1
		c1.7-0.5,3.5-2.3,3.5-4.8c0-2.9-2.1-5-5.1-5h-4.7L56.9,11.6z"/>
	<polygon class="st0" points="33,11.6 35.9,11.6 35.9,25.5 38.2,25.5 38.2,11.6 44.8,11.6 44.8,9.5 33,9.5 	"/>
	<polygon class="st0" points="9.8,25.5 12,25.5 17.1,12.3 22.3,25.5 24.7,25.5 18.3,9.5 15.9,9.5 	"/>
	<path class="st0" d="M0.5,13.3c0,1.8,0.8,3.1,2.3,3.9c1.1,0.6,2.4,0.7,3.5,1.2c1.2,0.4,1.6,0.8,1.8,1.5h2.4
		c-0.3-1.4-1.2-2.5-2.7-3.1c-1.1-0.5-2.6-0.8-3.6-1.2c-1.1-0.5-1.4-1.1-1.4-2.1c0-1.2,1-2.2,2.6-2.2c2.1,0,3,1,3.1,2.5h2.1
		c0.1-2.3-1.6-4.5-5.2-4.5C2.5,9.2,0.5,11,0.5,13.3 M0,20.5c-0.1,2.6,1.7,5,5.6,5h0.1v-1.9H5.6c-2.1,0-3.4-1.3-3.4-3v-0.9H0V20.5z"
		/>
	<path class="st0" d="M22.2,11.6h4.7c1.5,0,3,1.2,3,2.9c0,1.7-1.3,3-3,3h-2.5v2.1l1.9,0l3.1,5.9h2.6l-3.3-6.1
		c1.7-0.5,3.5-2.3,3.5-4.8c0-2.9-2.1-5-5.1-5h-4.8V11.6z"/>
</g>
</svg>
