<?xml version="1.0" encoding="utf-8"?>
<!-- Generator: Adobe Illustrator 26.0.1, SVG Export Plug-In . SVG Version: 6.00 Build 0)  -->
<svg version="1.1" id="Layer_1" xmlns="http://www.w3.org/2000/svg" xmlns:xlink="http://www.w3.org/1999/xlink" x="0px" y="0px"
	 viewBox="0 0 95 35" style="enable-background:new 0 0 95 35;" xml:space="preserve">
<style type="text/css">
	.st0{fill:#343741;}
</style>
<g>
	<path class="st0" d="M6,21.5c-0.2-1.3-0.8-1.8-2.1-1.8c-1.2,0-2,0.6-2,1.5c0,0.8,0.4,1.2,2.4,1.7C6,23.4,6.6,23.7,7,24.2
		c0.4,0.5,0.6,1.1,0.6,1.8c0,2-1.4,3.2-3.7,3.2C1.4,29.2,0,28,0,25.7h1.5c0.1,1.5,0.9,2.2,2.4,2.2c1.3,0,2.2-0.7,2.2-1.8
		c0-0.6-0.2-0.9-0.7-1.2c-0.3-0.2-0.5-0.3-2.3-0.8c-2-0.6-2.8-1.4-2.8-2.8c0-1.7,1.4-2.9,3.5-2.9c2.2,0,3.5,1.1,3.6,3.1"/>
	<path class="st0" d="M10.7,18.6l2.8,8.6l2.9-8.6H18l-3.4,9.6c-1,2.7-1.2,3.1-1.8,3.8c-0.8,0.8-1.8,1.2-3,1.2c-0.1,0-0.3,0-0.5,0
		v-1.3c2,0,2.5-0.5,3.3-2.9L9.1,18.6"/>
	<path class="st0" d="M21.3,18.6c0.1,0.4,0.2,0.9,0.2,1.4c0.7-1.2,1.6-1.7,3-1.7c1.4,0,2.3,0.6,2.8,1.8c0.7-1.2,1.7-1.8,3.2-1.8
		c1.2,0,2.2,0.5,2.6,1.3c0.3,0.6,0.4,1,0.4,3v6.3H32v-6.3c0-1.3,0-1.7-0.3-2.1c-0.3-0.5-0.9-0.8-1.7-0.8c-0.9,0-1.6,0.4-2.1,1.2
		c-0.3,0.5-0.4,1-0.4,2v6.1H26v-6.1c0-1.6,0-1.8-0.2-2.2c-0.3-0.6-0.9-0.9-1.7-0.9c-0.9,0-1.7,0.4-2.1,1.2c-0.3,0.5-0.4,1.1-0.4,2.1
		v6H20v-7.1c0-2.1,0-2.3-0.3-3.2"/>
	<path class="st0" d="M37.4,18.6c0.1,0.5,0.2,1.1,0.2,1.6c0,0.1,0,0.3,0,0.6c0.7-1.7,1.5-2.5,2.7-2.5c0.4,0,0.8,0.1,1.2,0.3v1.5
		c-0.7-0.3-1-0.4-1.4-0.4c-0.8,0-1.5,0.6-2,1.6c-0.3,0.7-0.5,1.6-0.5,3v4.6h-1.5v-6.8c0-2.3,0-2.5-0.2-3.5"/>
	<path class="st0" d="M45.1,15.2c0,0.6-0.5,1.1-1.1,1.1c-0.6,0-1.1-0.5-1.1-1.1c0-0.7,0.5-1.1,1.1-1.1
		C44.6,14.1,45.1,14.5,45.1,15.2"/>
	<rect x="43.2" y="18.6" class="st0" width="1.6" height="10.3"/>
	<path class="st0" d="M52.9,21.5c-0.2-1.3-0.8-1.8-2.1-1.8c-1.2,0-2,0.6-2,1.5c0,0.8,0.4,1.2,2.4,1.7c1.7,0.5,2.3,0.8,2.8,1.3
		c0.4,0.5,0.6,1.1,0.6,1.8c0,2-1.4,3.2-3.7,3.2c-2.5,0-3.9-1.2-3.9-3.5h1.5c0.1,1.5,0.9,2.2,2.4,2.2c1.3,0,2.2-0.7,2.2-1.8
		c0-0.6-0.2-0.9-0.7-1.2c-0.3-0.2-0.5-0.3-2.3-0.8c-2-0.6-2.8-1.4-2.8-2.8c0-1.7,1.4-2.9,3.5-2.9c2.2,0,3.5,1.1,3.6,3.1"/>
	<path class="st0" d="M63.5,22.8c-0.2-2.1-1.1-3.2-2.7-3.2c-1.5,0-2.5,1.1-2.8,3.2H63.5 M58,24c0.1,2.5,1.1,3.8,3,3.8
		c1.1,0,1.8-0.4,2.4-1.6l1.4,0.2c-0.6,1.8-1.9,2.7-3.8,2.7c-2.8,0-4.5-2.1-4.5-5.3c0-3.3,1.7-5.5,4.4-5.5c2.5,0,4.2,2.1,4.2,5.3
		c0,0.1,0,0.2,0,0.4"/>
	<path class="st0" d="M78,12.6c-0.3,0.5-1,0.9-1.7,1.1c-0.6,0.2-1.2,0.2-1.6-0.1c0.4-0.2,1-0.6,1.8-0.8C76.9,12.6,77.4,12.5,78,12.6
		 M77.6,8.6c-0.4,0-0.7-0.2-0.7-0.5c0-0.3,0.3-0.5,0.7-0.6c-0.1,0.1-0.2,0.3-0.2,0.5C77.3,8.3,77.4,8.5,77.6,8.6z M77.8,7.6
		c0.4,0,0.7,0.2,0.7,0.5c0,0.2-0.3,0.5-0.7,0.5C77.9,8.5,78,8.3,78,8.1C78,7.8,77.9,7.6,77.8,7.6z M94.2,13.2
		c-2.3,0.8-3.6,1.3-5.4,2.9c-0.2,0.2-0.5,0.9-0.4,1.9c0,0,0.1,0.7,0.1,1l0,0c0.1,1.7-0.9,3.7-3.6,6c-0.4,0.5-1,3.3-1.4,3.7
		c0,0,0,0-0.1,0.1c-0.1,0.1-0.2,0.1-0.3,0.1c0,0,0,0,0,0c-0.2-0.1,0-1.5-0.1-1.9c0,0-0.3,0.1-0.6,0.1c-0.2,0-0.1-0.3-0.1-0.5
		c0,0-2.4,2-2.9,2.2c-0.1,0-0.1,0-0.1,0c0,0-0.1-0.1-0.1-0.2c0-0.2,1-1.8,1.3-2.2c0.2-0.4,1.1-1.6,1.6-2.8c0.2-0.5,0.4-0.9,0.6-1.1
		c-4.9,4.1-3.5-2.6-5.5-3.7c-1.7-0.9-5.1,2.3-6.9,4c-1.3-2.1-2.1-4.5-2.1-7.1c0-7.3,6-13.3,13.3-13.3c3.5,0,6.7,1.4,9.1,3.6
		c0.3,0.2,1,1,1.4,1.6c0.4,0.7,0.6,1.5,0.1,2.2c-0.6,0.9-1.7,0.9-2.6,0.8c-0.4-0.1-0.7-0.2-0.8-0.4c-0.1-0.4,0.5-0.2,0.5-0.4
		c-0.1-0.3-0.5-0.4-0.9-0.3c-0.2,0.1-0.5,0.1-0.8,0.1c-0.3,0-1.1,0-1.2-0.3c-0.1-0.5,0.7-0.2,0.6-0.4c0-0.2-0.3-0.4-0.6-0.4
		c-0.5,0-0.8,0.1-1.3,0.1c-0.5,0-1-0.2-1-0.5c0.1-0.4,0.7-0.1,0.6-0.3c0-0.2-0.3-0.4-0.7-0.4c-0.9,0-1.1,0.1-1.8-0.1
		C82,7.1,81.8,7,81.8,6.9c0,0,0.8-1.4-0.2-2.6c-0.1-0.1-0.2-0.2-0.3-0.3c-0.1-0.1-0.2-0.1-0.1,0c0,0.1,0,0.2,0,0.3l0,0
		c0,1.3-1.2,2.5-2.9,2.1c-1.6-0.3-2.5,0.4-2.8,1.5c-1.1,0-1.9-0.8-3.3-0.7c-0.3,0.5-0.3,1.2-0.2,1.2c-1.3,0.4-2,2.5,0.4,2.7
		c0,0.4,0.2,1.1,0.8,1.2c0.3,0.1,0.2,0,0.1-0.2c-0.4-0.4-0.1-1.4,0.8-1.2c0.8,0.1,0.8,0.5,1.6,0.7c0.3,0,0.5,0,0.7,0v0l0,0
		c0,0,0,0,0,0v0c0.4-0.1,0.7-0.4,1.2-0.3c0.5,0.1,0.5,0.5,0.5,0.8c-0.7-0.1-1.2-0.1-1.7,0c-1.5,0.2-2.3,0.8-3.6,0.6
		c-0.7-0.1-1.1-0.5-1.2-0.7c-0.1-0.2-0.2-0.1-0.2,0c-0.2,0.3-0.3,0.9,0,1.3c0.3,0.4,0.8,0.5,1.1,0.6c0.4,0.1,1.4-0.1,1.5-0.2
		c0,0-0.1,0.5,0.5,0.9c-0.6,0.6-0.2,1.2,0.8,1.4c0.5,0.1,1.2-0.4,1.6-0.8c1.3-1.1,2-1.4,2.7-1.2c0.7,0.3,1.7,0.9,3.7,3.4
		c0,0,0.5,0.6,0.7,0.7c0.2,0,0.3,0,0.4-0.1c0,0,0,0,0,0c0-0.1,0.1-0.1,0.1-0.2l0,0c0,0,0,0,0,0c0.2-1.1,0.9-1.8,1.5-2.1
		c0.2-0.1,0.4-0.2,0.6-0.2c0.8-0.1,1.5,0.1,1.7,0c0.2-0.1,2.7-1.9,5.6-2.4c0,0,0.1,0,0.1,0C94.3,13,94.3,13.1,94.2,13.2
		C94.2,13.1,94.2,13.2,94.2,13.2z M81.3,1.7c-7.6,0-13.7,6.1-13.7,13.7c0,7.6,6.1,13.7,13.7,13.7C88.9,29.1,95,23,95,15.4
		C95,7.9,88.9,1.7,81.3,1.7z M86.9,16.1c-0.3,0.2-0.4,0.5-0.2,0.7c0.1,0.2,0.5,0.3,0.7,0.1c0.3-0.2,0.4-0.5,0.2-0.7
		C87.5,16,87.1,16,86.9,16.1"/>
</g>
</svg>
