<?xml version="1.0" encoding="utf-8"?>
<!-- Generator: Adobe Illustrator 26.0.1, SVG Export Plug-In . SVG Version: 6.00 Build 0)  -->
<svg version="1.1" id="Layer_1" xmlns="http://www.w3.org/2000/svg" xmlns:xlink="http://www.w3.org/1999/xlink" x="0px" y="0px"
	 viewBox="0 0 95 35" style="enable-background:new 0 0 95 35;" xml:space="preserve">
<style type="text/css">
	.st0{fill:#FFFFFF;}
</style>
<g id="g5" transform="translate(-29.107484,-30.29183)">
	<path id="path7" class="st0" d="M85.1,38.3c-0.1-4.4-3.7-8-8.2-8c-4.5,0-8.1,3.6-8.2,8c-2.9,1.3-4.9,4.1-4.9,7.5
		c0,4.5,3.7,8.2,8.2,8.2c1.8,0,3.5-0.6,4.9-1.6c1.4,1,3.1,1.6,4.9,1.6c4.5,0,8.2-3.7,8.2-8.2C90,42.5,88,39.6,85.1,38.3z M80.2,45.1
		C80,43,79,41.2,77.6,39.8c0.9-0.6,1.8-1,2.9-1.2c0.7,1.4,1.4,3,2,4.7C81.8,44,81,44.6,80.2,45.1z M76.9,51.3c-1.4-1.3-2.3-3-2.4-5
		c0.8,0.2,1.6,0.4,2.4,0.4s1.7-0.1,2.4-0.4C79.2,48.3,78.3,50,76.9,51.3z M71.4,43.3c0.6-1.7,1.3-3.4,2-4.7c1.1,0.2,2,0.6,2.9,1.2
		c-1.4,1.3-2.4,3.2-2.6,5.2C72.8,44.6,72,44,71.4,43.3z M70.8,42.5c-0.7-1.1-1.2-2.3-1.2-3.7c0.8-0.3,1.6-0.4,2.4-0.4
		c0.2,0,0.3,0,0.5,0C71.9,39.6,71.4,41,70.8,42.5z M73.8,37.8c1-1.6,2-2.7,3.1-2.7c1.1,0,2.2,1,3.1,2.7c-1.1,0.3-2.2,0.8-3.1,1.4
		C76,38.6,75,38.1,73.8,37.8z M76.9,45.8c-0.9,0-1.7-0.1-2.4-0.4c0.1-2,1-3.8,2.4-5.1c1.4,1.3,2.3,3.1,2.4,5.1
		C78.6,45.7,77.8,45.8,76.9,45.8z M81.3,38.5c0.2,0,0.3,0,0.5,0c0.9,0,1.7,0.1,2.4,0.4c-0.1,1.3-0.5,2.6-1.2,3.7
		C82.5,41,81.9,39.6,81.3,38.5z M76.9,31.1c3.9,0,7.1,3.1,7.3,6.9c-0.8-0.2-1.6-0.4-2.4-0.4c-0.3,0-0.6,0-0.9,0.1
		c-1.3-2.2-2.6-3.3-4-3.3c-1.4,0-2.7,1.1-4,3.3c-0.3,0-0.6-0.1-0.9-0.1c-0.8,0-1.7,0.1-2.4,0.4C69.8,34.2,73,31.1,76.9,31.1z
		 M64.7,45.8c0-2.9,1.7-5.4,4.1-6.6c0.1,1.6,0.8,3.1,1.7,4.3c0,0,0,0.1,0,0.1c-1.2,3.6-2,7.2-2.2,8.5C66.1,50.8,64.7,48.5,64.7,45.8
		z M72,53.2c-1.1,0-2.1-0.2-3.1-0.7c0.4-2,1.1-5.2,2.1-8.3c0.7,0.7,1.6,1.3,2.5,1.8c0,2.3,1,4.4,2.6,5.9
		C75.1,52.7,73.6,53.2,72,53.2z M77.6,51.8c1.6-1.5,2.6-3.5,2.6-5.9c1-0.4,1.8-1,2.5-1.8c1,3.1,1.8,6.3,2.1,8.3
		c-0.9,0.4-2,0.7-3.1,0.7C80.2,53.2,78.8,52.7,77.6,51.8z M85.6,52.1c-0.3-1.3-1.1-4.9-2.2-8.5c0,0,0-0.1,0-0.1
		c0.9-1.2,1.6-2.7,1.7-4.3c2.4,1.2,4.1,3.7,4.1,6.6C89.2,48.5,87.8,50.8,85.6,52.1z"/>
	<path id="path9" class="st0" d="M97.3,63.1c-0.1-0.1-0.2-0.1-0.3-0.2c-0.1-0.1-0.1-0.2-0.2-0.3c0-0.1-0.1-0.3-0.1-0.4v-1
		c0-0.2,0-0.3,0.1-0.5c0.1-0.1,0.1-0.2,0.2-0.3c0.1-0.1,0.2-0.2,0.3-0.2s0.2-0.1,0.4-0.1c0.1,0,0.3,0,0.4,0.1c0.1,0,0.2,0.1,0.3,0.2
		c0.1,0.1,0.1,0.2,0.2,0.4c0,0.1,0.1,0.3,0.1,0.4c0,0.2,0,0.3,0,0.5c0,0.1,0,0.3,0,0.4c0,0.2,0,0.3,0,0.4c0,0.2-0.1,0.4-0.3,0.6
		c-0.1,0.1-0.3,0.2-0.6,0.2C97.6,63.2,97.5,63.2,97.3,63.1 M96.8,65.2v-1.8c0.1,0.1,0.1,0.2,0.3,0.3c0.1,0.1,0.2,0.2,0.4,0.2
		s0.3,0.1,0.5,0.1c0.2,0,0.3,0,0.5-0.1c0.2-0.1,0.3-0.2,0.5-0.3s0.2-0.3,0.3-0.5c0.1-0.2,0.1-0.4,0.1-0.6c0-0.2,0-0.5,0-0.8
		c0-0.3,0-0.6-0.1-0.9c0-0.3-0.1-0.5-0.2-0.7c-0.2-0.5-0.7-0.7-1.2-0.7c-0.3,0-0.5,0.1-0.7,0.2c-0.2,0.1-0.4,0.3-0.5,0.5l0-0.5H96
		v5.7L96.8,65.2L96.8,65.2z M93.1,63.1c-0.1-0.1-0.2-0.1-0.3-0.2c-0.1-0.1-0.1-0.2-0.2-0.3c0-0.1-0.1-0.3-0.1-0.4v-1
		c0-0.2,0-0.3,0.1-0.5c0.1-0.1,0.1-0.2,0.2-0.3s0.2-0.2,0.3-0.2s0.2-0.1,0.4-0.1c0.1,0,0.3,0,0.4,0.1s0.2,0.1,0.3,0.2
		c0.1,0.1,0.1,0.2,0.2,0.4c0,0.1,0.1,0.3,0.1,0.4c0,0.2,0,0.3,0,0.5c0,0.1,0,0.3,0,0.4c0,0.2,0,0.3,0,0.4c0,0.2-0.1,0.4-0.3,0.6
		c-0.1,0.1-0.3,0.2-0.6,0.2C93.4,63.2,93.2,63.2,93.1,63.1 M92.6,65.2v-1.8c0.1,0.1,0.1,0.2,0.3,0.3s0.2,0.2,0.4,0.2
		c0.2,0.1,0.3,0.1,0.5,0.1c0.2,0,0.3,0,0.5-0.1c0.2-0.1,0.3-0.2,0.5-0.3c0.1-0.1,0.2-0.3,0.3-0.5c0.1-0.2,0.1-0.4,0.1-0.6
		c0-0.2,0-0.5,0-0.8c0-0.3,0-0.6-0.1-0.9c0-0.3-0.1-0.5-0.2-0.7c-0.2-0.5-0.7-0.7-1.2-0.7c-0.3,0-0.5,0.1-0.7,0.2
		c-0.2,0.1-0.4,0.3-0.5,0.5l0-0.5h-0.8v5.7L92.6,65.2L92.6,65.2z M89.6,63.7c0.2-0.1,0.4-0.3,0.5-0.5l0,0.5h0.8v-4.3h-0.8V62
		c0,0.1,0,0.3-0.1,0.5s-0.2,0.3-0.3,0.5c-0.2,0.1-0.3,0.2-0.5,0.2c-0.2,0-0.4-0.1-0.6-0.2c-0.1-0.1-0.2-0.3-0.2-0.6v-2.9h-0.8v3.1
		c0,0.3,0,0.5,0.1,0.6c0.1,0.2,0.2,0.3,0.3,0.4c0.1,0.1,0.3,0.2,0.4,0.2c0.1,0,0.3,0.1,0.4,0.1C89.1,63.9,89.3,63.9,89.6,63.7
		 M85.6,63.8v-2c0-0.2,0-0.4,0.1-0.6c0-0.2,0.2-0.4,0.3-0.6s0.4-0.3,0.7-0.3c0.1,0,0.2,0,0.2,0v-0.8h-0.1c-0.3,0-0.5,0.1-0.8,0.2
		s-0.4,0.4-0.5,0.7l0-0.9h-0.8v4.3C84.8,63.8,85.6,63.8,85.6,63.8z M81.6,63.8V62l0.6-0.6l1.1,2.3h0.9l-1.5-2.9l1.4-1.4h-1l-1.6,1.6
		v-3.1h-0.8v5.9H81.6z M77.3,63.8v-2.6c0-0.1,0-0.3,0.1-0.5c0.1-0.2,0.2-0.3,0.3-0.5c0.2-0.1,0.3-0.2,0.6-0.2c0.2,0,0.4,0.1,0.5,0.2
		c0.1,0.1,0.2,0.3,0.2,0.6v2.9h0.8v-3.1c0-0.3,0-0.5-0.1-0.7c-0.1-0.2-0.2-0.4-0.4-0.5c-0.2-0.1-0.4-0.2-0.7-0.2
		c-0.3,0-0.6,0.1-0.8,0.2c-0.2,0.1-0.4,0.3-0.5,0.5l0-0.5h-0.8v4.3C76.5,63.8,77.3,63.8,77.3,63.8z M73.1,60.6
		c0-0.2,0.1-0.3,0.2-0.4c0.1-0.1,0.2-0.2,0.3-0.2c0.1,0,0.2-0.1,0.4-0.1c0.1,0,0.3,0,0.4,0.1c0.1,0.1,0.2,0.2,0.3,0.4
		c0.1,0.2,0.1,0.5,0.1,0.8H73C73,61,73.1,60.8,73.1,60.6 M74.7,63.8c0.2-0.1,0.4-0.2,0.5-0.3c0.1-0.1,0.3-0.3,0.4-0.5l-0.7-0.3
		c0,0.1-0.1,0.1-0.2,0.2s-0.2,0.1-0.3,0.2s-0.3,0.1-0.4,0.1c-0.2,0-0.3,0-0.4-0.1c-0.1,0-0.2-0.1-0.3-0.2c-0.1-0.1-0.2-0.2-0.2-0.4
		c0-0.2-0.1-0.4-0.1-0.6v-0.1h2.6v-0.5c0-0.2,0-0.4,0-0.6c0-0.2-0.1-0.4-0.1-0.6c-0.1-0.2-0.2-0.3-0.3-0.5c-0.1-0.1-0.3-0.2-0.5-0.3
		c-0.2-0.1-0.4-0.1-0.7-0.1c-0.3,0-0.5,0-0.8,0.1c-0.2,0.1-0.4,0.2-0.5,0.3c-0.1,0.1-0.2,0.2-0.3,0.4c-0.1,0.2-0.1,0.4-0.2,0.6
		c0,0.3-0.1,0.6-0.1,0.9c0,0.3,0,0.5,0,0.7c0,0.2,0.1,0.4,0.1,0.6c0.1,0.3,0.3,0.5,0.6,0.7c0.3,0.2,0.6,0.3,1,0.3
		C74.2,63.9,74.5,63.9,74.7,63.8 M70.4,63.9c0.1,0,0.3-0.1,0.4-0.1s0.2-0.1,0.3-0.2c0.1-0.1,0.1-0.1,0.2-0.2
		c0.1-0.1,0.2-0.2,0.2-0.3c0.1-0.1,0.1-0.3,0.1-0.5c0-0.2,0-0.3-0.1-0.4c0-0.1-0.1-0.2-0.1-0.3c-0.1-0.1-0.2-0.2-0.3-0.3
		c-0.1-0.1-0.4-0.2-0.7-0.3c-0.2-0.1-0.3-0.1-0.5-0.2c-0.1-0.1-0.3-0.1-0.4-0.2c-0.1-0.1-0.2-0.1-0.2-0.2c0-0.1-0.1-0.1-0.1-0.2
		c0-0.2,0.1-0.3,0.2-0.4c0.1-0.1,0.2-0.1,0.3-0.1c0.1,0,0.2,0,0.4,0c0.2,0,0.4,0,0.5,0.1c0.1,0.1,0.2,0.2,0.3,0.4l0.7-0.3
		c-0.1-0.3-0.3-0.5-0.6-0.6c-0.3-0.1-0.6-0.2-0.9-0.2c-0.2,0-0.4,0-0.6,0.1c-0.2,0.1-0.4,0.1-0.5,0.2s-0.2,0.2-0.3,0.4
		c-0.1,0.1-0.1,0.2-0.1,0.3c0,0.1,0,0.2,0,0.3c0,0.1,0,0.2,0,0.3c0,0.1,0.1,0.2,0.2,0.3c0.1,0.1,0.2,0.2,0.3,0.2
		c0.1,0.1,0.3,0.2,0.4,0.2L70,62c0.1,0,0.2,0.1,0.3,0.1c0.1,0,0.2,0.1,0.3,0.2c0.1,0.1,0.1,0.2,0.1,0.3c0,0.1,0,0.2-0.1,0.2
		c0,0.1-0.1,0.1-0.2,0.2s-0.2,0.1-0.3,0.1c-0.1,0-0.2,0-0.3,0c-0.1,0-0.2,0-0.3,0c-0.1,0-0.2-0.1-0.3-0.1s-0.1-0.1-0.2-0.2
		c-0.1-0.1-0.1-0.1-0.2-0.2l-0.7,0.3c0.1,0.1,0.1,0.3,0.2,0.4c0.1,0.1,0.2,0.2,0.3,0.3c0.1,0.1,0.3,0.2,0.5,0.2
		c0.2,0.1,0.4,0.1,0.6,0.1C70.1,63.9,70.3,63.9,70.4,63.9 M66.7,63.9c0.1,0,0.3-0.1,0.4-0.1s0.2-0.1,0.3-0.2
		c0.1-0.1,0.1-0.1,0.2-0.2c0.1-0.1,0.2-0.2,0.2-0.3c0.1-0.1,0.1-0.3,0.1-0.5c0-0.2,0-0.3-0.1-0.4c0-0.1-0.1-0.2-0.1-0.3
		c-0.1-0.1-0.2-0.2-0.3-0.3c-0.1-0.1-0.4-0.2-0.7-0.3c-0.2-0.1-0.3-0.1-0.5-0.2c-0.1-0.1-0.3-0.1-0.4-0.2c-0.1-0.1-0.2-0.1-0.2-0.2
		c0-0.1-0.1-0.1-0.1-0.2c0-0.2,0.1-0.3,0.2-0.4c0.1-0.1,0.2-0.1,0.3-0.1c0.1,0,0.2,0,0.4,0c0.2,0,0.4,0,0.5,0.1
		c0.1,0.1,0.2,0.2,0.3,0.4l0.7-0.3c-0.1-0.3-0.3-0.5-0.6-0.6c-0.3-0.1-0.6-0.2-0.9-0.2c-0.2,0-0.4,0-0.6,0.1s-0.4,0.1-0.5,0.2
		c-0.1,0.1-0.2,0.2-0.3,0.4c-0.1,0.1-0.1,0.2-0.1,0.3c0,0.1,0,0.2,0,0.3c0,0.1,0,0.2,0,0.3c0,0.1,0.1,0.2,0.2,0.3
		c0.1,0.1,0.2,0.2,0.3,0.2c0.1,0.1,0.3,0.2,0.4,0.2l0.6,0.2c0.1,0,0.2,0.1,0.3,0.1s0.2,0.1,0.3,0.2c0.1,0.1,0.1,0.2,0.1,0.3
		c0,0.1,0,0.2-0.1,0.2c0,0.1-0.1,0.1-0.2,0.2s-0.2,0.1-0.3,0.1c-0.1,0-0.2,0-0.3,0c-0.1,0-0.2,0-0.3,0s-0.2-0.1-0.3-0.1
		c-0.1-0.1-0.1-0.1-0.2-0.2c-0.1-0.1-0.1-0.1-0.2-0.2l-0.7,0.3c0.1,0.1,0.1,0.3,0.2,0.4c0.1,0.1,0.2,0.2,0.3,0.3
		c0.1,0.1,0.3,0.2,0.5,0.2c0.2,0.1,0.4,0.1,0.6,0.1C66.4,63.9,66.6,63.9,66.7,63.9 M61.7,65.2c0.2,0,0.3-0.1,0.5-0.3
		c0.1-0.2,0.3-0.4,0.4-0.7l1.8-4.7h-0.8l-1.1,3l-1.1-3h-0.8l1.5,4.1L61.8,64c-0.1,0.2-0.1,0.3-0.2,0.4c-0.1,0.1-0.3,0.2-0.4,0.2
		c-0.1,0-0.1,0-0.2,0v0.7c0.1,0,0.2,0,0.3,0C61.4,65.3,61.5,65.3,61.7,65.2 M57.6,63.8v-2.6c0-0.1,0-0.3,0.1-0.5
		c0.1-0.2,0.2-0.3,0.3-0.5c0.2-0.1,0.3-0.2,0.6-0.2c0.2,0,0.4,0.1,0.5,0.2c0.1,0.1,0.2,0.3,0.2,0.6v2.9h0.8v-3.1
		c0-0.3,0-0.5-0.1-0.7c-0.1-0.2-0.2-0.4-0.4-0.5c-0.2-0.1-0.4-0.2-0.7-0.2c-0.3,0-0.5,0.1-0.8,0.2c-0.2,0.1-0.4,0.3-0.5,0.5v-2h-0.8
		v5.9L57.6,63.8L57.6,63.8z M56,63.8v-0.7c-0.1,0-0.2,0-0.3,0c-0.1,0-0.2,0-0.3,0c-0.1,0-0.1-0.1-0.2-0.1c0-0.1-0.1-0.1-0.1-0.2
		c0-0.1,0-0.2,0-0.3v-2.2H56v-0.6h-0.9v-1.5h-0.8v1.5h-0.6v0.6h0.6v2.2c0,0.2,0,0.4,0.1,0.6c0,0.2,0.1,0.3,0.2,0.5
		c0.1,0.1,0.2,0.2,0.4,0.3c0.2,0.1,0.4,0.1,0.7,0.1C55.8,63.8,55.9,63.8,56,63.8z"/>
</g>
</svg>
