<?xml version="1.0" encoding="utf-8"?>
<!-- Generator: Adobe Illustrator 26.0.1, SVG Export Plug-In . SVG Version: 6.00 Build 0)  -->
<svg version="1.1" id="Layer_1" xmlns="http://www.w3.org/2000/svg" xmlns:xlink="http://www.w3.org/1999/xlink" x="0px" y="0px"
	 viewBox="0 0 95 35" style="enable-background:new 0 0 95 35;" xml:space="preserve">
<style type="text/css">
	.st0{fill:#343741;}
</style>
<g id="g4176" transform="translate(448.8197,54.3614)">
	<path id="path4178" class="st0" d="M-431.2-38.2c0-2.9,1.1-3.9,4-3.9c2.9,0,4,1,4,3.9v2.7c0,2.8-1.1,3.9-4,3.9c-2.9,0-4-1-4-3.9
		V-38.2z M-427.2-44.3c-4.3,0-6.4,2.1-6.4,6.1v2.7c0,4.2,2,6.2,6.4,6.2c4.2,0,6.4-2.1,6.4-6.2v-2.7
		C-420.8-42.4-422.8-44.3-427.2-44.3"/>
</g>
<g id="g4180" transform="translate(489.9461,54.3614)">
	<path id="path4182" class="st0" d="M-441.7-38.2c0-2.9,1.1-3.9,4-3.9c2.9,0,4,1,4,3.9v2.7c0,2.8-1.1,3.9-4,3.9c-2.9,0-4-1-4-3.9
		V-38.2z M-437.7-44.3c-4.3,0-6.4,2.1-6.4,6.1v2.7c0,4.2,2,6.2,6.4,6.2c4.2,0,6.4-2.1,6.4-6.2v-2.7
		C-431.3-42.4-433.3-44.3-437.7-44.3"/>
</g>
<g id="g4184" transform="translate(429.2371,46.5434)">
	<path id="path4186" class="st0" d="M-426.2-24.6c1-0.3,1.8-1.2,1.8-2.3c0-0.2,0-0.4-0.1-0.6l0,0l-2.3-8.8h-2.4l2.8,10.9
		C-426.4-25-426.3-24.8-426.2-24.6"/>
</g>
<g id="g4188" transform="translate(440.1961,62.2333)">
	<path id="path4190" class="st0" d="M-429-51.9l-2.8,10.9c-0.3,1.3-0.8,1.5-1.6,1.5c0,0,0,0,0,0h-3.5c0.3,0.7,0.5,1.1,0.9,1.5
		c0.5,0.5,1.5,0.8,2.7,0.8c1.3,0,2.2-0.3,2.7-0.8c0.5-0.5,0.9-1.5,1.3-2.9l2.8-10.9H-429z"/>
</g>
<g id="g4192" transform="translate(530.8503,62.2332)">
	<path id="path4194" class="st0" d="M-452.2-51.9L-452.2-51.9c-1.3,0-2.4,1.1-2.4,2.4v12h2.5L-452.2-51.9L-452.2-51.9z"/>
</g>
<g id="g4196" transform="translate(469.6474,55.4874)">
	<path id="path4198" class="st0" d="M-436.5-40.2c0-1.2-0.8-2.1-1.9-2.4c-0.3,0.7-0.5,1.6-0.5,2.5v9.2h2.4V-40
		C-436.5-40-436.5-40.1-436.5-40.2z"/>
</g>
<g id="g4200" transform="translate(474.7981,62.6186)">
	<path id="path4202" class="st0" d="M-437.9-52.6c-2.6,0-4.4,0.8-5.4,2.3h5.4c2.7,0,3.8,0.8,3.8,3.2v9.2h2.4v-9.2
		C-431.7-50.8-433.8-52.6-437.9-52.6"/>
</g>
<g id="g4204" transform="translate(510.0978,46.5434)">
	<path id="path4206" class="st0" d="M-446.9-24.6c1-0.3,1.8-1.2,1.8-2.3c0-0.2,0-0.4-0.1-0.6l0,0l-2.3-8.8h-2.4l2.8,10.9
		C-447-25-446.9-24.8-446.9-24.6"/>
</g>
<g id="g4208" transform="translate(521.0569,62.2333)">
	<path id="path4210" class="st0" d="M-449.7-51.9l-2.8,10.9c-0.4,1.3-0.8,1.5-1.6,1.5c0,0,0,0,0,0h-3.5c0.3,0.7,0.5,1.1,0.9,1.5
		c0.5,0.5,1.5,0.8,2.7,0.8c1.3,0,2.2-0.3,2.7-0.8c0.5-0.5,0.9-1.5,1.3-2.9l2.8-10.9H-449.7z"/>
</g>
<g id="g4212" transform="translate(543.5301,59.7006)">
	<path id="path4214" class="st0" d="M-455.4-47.5h3.3c-0.2-0.6-0.5-1.1-0.8-1.4c-0.5-0.5-1.3-0.8-2.5-0.8c-1.3,0-2,0.3-2.5,0.8
		c-0.5,0.5-0.9,1.5-1.3,2.9l-3.1,10.9h2.5l3-11C-456.4-47.3-456.2-47.5-455.4-47.5"/>
</g>
<g id="g4216" transform="translate(548.6578,57.6024)">
	<path id="path4218" class="st0" d="M-456.7-43.9c-0.1-0.3-0.2-0.6-0.2-0.8c-1,0.3-1.7,1.2-1.7,2.3c0,0.2,0,0.4,0.1,0.6l0,0l0.7,2.6
		h-2.5c-1.3,0-2.3,1-2.4,2.2h5.5l1.1,4h2.5L-456.7-43.9z"/>
</g>
</svg>
