<?xml version="1.0" encoding="utf-8"?>
<!-- Generator: Adobe Illustrator 26.0.1, SVG Export Plug-In . SVG Version: 6.00 Build 0)  -->
<svg version="1.1" id="Layer_1" xmlns="http://www.w3.org/2000/svg" xmlns:xlink="http://www.w3.org/1999/xlink" x="0px" y="0px"
	 viewBox="0 0 95 35" style="enable-background:new 0 0 95 35;" xml:space="preserve">
<style type="text/css">
	.st0{fill-rule:evenodd;clip-rule:evenodd;fill:#CCCCCC;}
</style>
<g>
	<path class="st0" d="M34.4,17.5c0,4.9,2.8,9.3,6.8,11.5l-6.1-15.8C34.6,14.5,34.4,16,34.4,17.5z"/>
	<path class="st0" d="M50.9,4.8c-1.1-0.3-2.2-0.4-3.4-0.4c-1.1,0-2.2,0.1-3.3,0.4l3.3,9.2L50.9,4.8z"/>
	<path class="st0" d="M54.1,6.2l-3.8,10.6h-1.7h-2h-1.7L41,6.1c-1.4,0.8-2.7,1.9-3.7,3.2l5.5,14.2l2-5.2H50l2,5.2l5.5-14.4
		C56.6,7.9,55.4,6.9,54.1,6.2z"/>
	<path class="st0" d="M47.4,21.1L44,29.9l0,0.3c1.1,0.3,2.3,0.5,3.5,0.5c1.1,0,2.3-0.1,3.3-0.4l0-0.3L47.4,21.1z"/>
	<path class="st0" d="M59.8,12.9l-6.2,16.3c4.2-2.2,7.1-6.6,7.1-11.6C60.6,15.9,60.3,14.3,59.8,12.9z"/>
	<path class="st0" d="M47.5,0C37.9,0,30,7.9,30,17.5C30,27.1,37.9,35,47.5,35S65,27.1,65,17.5C65,7.9,57.1,0,47.5,0z M47.5,32.8
		c-8.4,0-15.3-6.9-15.3-15.3c0-8.4,6.9-15.3,15.3-15.3c8.4,0,15.3,6.9,15.3,15.3C62.8,25.9,55.9,32.8,47.5,32.8z"/>
</g>
</svg>
