<?xml version="1.0" encoding="utf-8"?>
<!-- Generator: Adobe Illustrator 26.0.1, SVG Export Plug-In . SVG Version: 6.00 Build 0)  -->
<svg version="1.1" id="Layer_1" xmlns="http://www.w3.org/2000/svg" xmlns:xlink="http://www.w3.org/1999/xlink" x="0px" y="0px"
	 viewBox="0 0 95 35" style="enable-background:new 0 0 95 35;" xml:space="preserve">
<style type="text/css">
	.st0{fill:#343741;}
</style>
<g>
	<path id="path6289" class="st0" d="M39.3,13.4c-0.7-0.4-1.8-0.6-3.3-0.6c-2,0-3.9,0.4-4.6,0.7c-0.2,0.1-0.3,0.2-0.3,0.4l0,0.1
		l0.2,1l0,0c0.1,0.2,0.2,0.3,0.4,0.3h0c0.1,0,0.1,0,0.1,0l0.3-0.1c0.9-0.2,2.2-0.6,3.7-0.6c0.9,0,1.5,0.1,1.9,0.3
		c0.7,0.3,0.7,0.7,0.7,1.4v1.1c-0.1,0-0.2,0-0.4,0c-0.7,0-2.2,0-3.6,0.3c-2.2,0.3-3.9,0.8-3.9,3.8c0,3.8,3.5,3.8,5.2,3.8h0
		c1.1,0,2.2-0.2,2.9-0.3c1.6-0.4,2-0.9,1.9-2.4v-6.3C40.6,15.3,40.6,14.1,39.3,13.4 M38.5,23.1c-0.8,0.3-1.7,0.4-2.7,0.4v0.1l0-0.1
		c-1.5,0-3.1-0.2-3.1-2.2c0-1.6,0.8-1.8,1.9-2l0.1,0c0.9-0.2,3.3-0.2,3.8-0.2L38.5,23.1L38.5,23.1z M58.1,16.2v6.3
		c0,1.6-0.4,2.1-1.9,2.4c-0.7,0.1-1.7,0.3-2.9,0.3h0c-1.7,0-5.2,0-5.2-3.8c0-3,1.8-3.5,3.9-3.8c1.4-0.2,2.8-0.3,3.6-0.3
		c0.2,0,0.3,0,0.4,0v-1.1c0-0.7,0-1.1-0.7-1.4c-0.4-0.2-1-0.3-1.9-0.3c-1.5,0-2.8,0.3-3.7,0.6l-0.3,0.1c0,0-0.1,0-0.1,0h0
		c-0.2,0-0.3-0.1-0.4-0.3l0,0l-0.2-1l0-0.1c0-0.2,0.2-0.4,0.3-0.4c0.7-0.3,2.6-0.7,4.6-0.7c1.5,0,2.6,0.2,3.3,0.6
		C58.1,14.1,58.1,15.3,58.1,16.2 M56,19.1c-0.5,0-2.9,0-3.8,0.2l-0.1,0c-1.1,0.2-1.9,0.4-1.9,2c0,2,1.5,2.1,3.1,2.2l0,0.1v-0.1
		c1,0,1.9-0.1,2.7-0.4L56,19.1L56,19.1z M89.7,12.8c-4.9,0-5.3,3.2-5.3,6.2c0,3,0.4,6.2,5.3,6.2h0c4.9,0,5.3-3.2,5.3-6.2
		C95,15.9,94.6,12.8,89.7,12.8 M89.7,23.5c-3,0-3.1-1.5-3.1-4.4c0-2.9,0.2-4.4,3.1-4.5c3,0,3.1,1.5,3.1,4.5
		C92.8,21.9,92.7,23.5,89.7,23.5 M81,24.8l-0.1,0c-0.7,0.2-1.6,0.4-3.2,0.4h0h0c-4.5,0-5.4-2.3-5.4-6.2c0-4.5,1.4-6.2,5.3-6.2
		c1.4,0,2.3,0.2,3,0.3l0-3.6c0-0.2,0.1-0.4,0.4-0.4l1.2-0.3h0.1c0.3,0,0.4,0.3,0.4,0.5v13.6C82.5,23.7,82.4,24.5,81,24.8 M80.4,14.9
		c-0.4-0.1-1.5-0.4-2.8-0.4c-2.3,0-3.3,0.6-3.3,4.5c0,4.2,1.3,4.4,3.3,4.5l0,0.1v-0.1c1.3,0,2.4-0.3,2.7-0.4L80.4,14.9L80.4,14.9z
		 M69.7,24.9h-1.1c-0.3,0-0.5-0.2-0.5-0.5v-8.1c0-1.4-0.4-1.7-1.9-1.8c-1.7,0-3.4,0.4-3.9,0.6v9.3c0,0.3-0.2,0.5-0.5,0.5h-1.1
		c-0.3,0-0.5-0.2-0.5-0.5v-9.1c0-0.8,0.1-1.4,1.3-1.8c1.1-0.4,3.3-0.7,4.8-0.7c2.8,0,3.9,1,3.9,3.3v8.3
		C70.2,24.7,69.9,24.9,69.7,24.9 M45.4,25.2L45.4,25.2c0.6,0,1.1-0.1,1.2-0.3c0.1-0.1,0.1-0.2,0.1-0.2c0-0.1,0-0.1-0.2-0.9l0,0
		c0-0.2-0.2-0.3-0.3-0.3c0,0,0,0,0,0c0,0-0.2,0-0.3,0h0c-0.4,0-0.8-0.1-0.8-0.7V9.3c0-0.2-0.1-0.5-0.4-0.5l-0.1,0l-1.2,0.3
		c-0.2,0-0.4,0.2-0.4,0.4v13.2C43.1,24.3,43.9,25.2,45.4,25.2L45.4,25.2L45.4,25.2z M28.5,24.9h-8.6c-0.3,0-0.5-0.2-0.5-0.5v-1
		c0-0.3,0.1-0.4,0.2-0.6l6.8-7.9h-6.7c-0.3,0-0.5-0.2-0.5-0.5v-0.7c0-0.3,0.2-0.5,0.5-0.5h8.7c0.3,0,0.5,0.2,0.5,0.5v1.1
		c0,0.2-0.1,0.4-0.2,0.5l-6.9,8h6.6c0.3,0,0.5,0.2,0.5,0.5v0.7C29,24.7,28.8,24.9,28.5,24.9"/>
	<path id="path6315" class="st0" d="M2.2,11.8c-1.5,0-2.2,4.1-2.2,7.9c0,0,0,0,0,0c0.1,3.3,0.8,6.5,2.3,6.5c5.6,0,12-5.3,12-7.2
		c0-0.5-0.5-1.4-1.1-2.1c0,0,0,0,0,0c0-0.1-0.1-0.1-0.1-0.2C11,14.5,6.9,11.8,2.2,11.8z"/>
	<path id="path6315-1" class="st0" d="M0,19.7c4.2,1,8.7-0.1,13.1-2.7l0,0c0,0,0,0,0.1,0l0,0c0-0.1-0.1-0.1-0.1-0.2l0,0
		c-2-2.2-6.2-4.9-10.9-4.9l0,0C0.7,11.8-0.1,15.8,0,19.7 M13.2,16.9C13.2,16.9,13.2,16.9,13.2,16.9L13.2,16.9L13.2,16.9z"/>
	<path id="path6339" class="st0" d="M0,19.7c0.1,3.3,0.8,6.5,2.3,6.5l0,0c5.6,0,12-5.3,12-7.2l0,0c0-0.5-0.5-1.4-1.1-2.1l0,0
		C8.8,19.5,4.2,20.7,0,19.7"/>
</g>
</svg>
