<?xml version="1.0" encoding="utf-8"?>
<!-- Generator: Adobe Illustrator 26.0.1, SVG Export Plug-In . SVG Version: 6.00 Build 0)  -->
<svg version="1.1" id="Layer_1" xmlns="http://www.w3.org/2000/svg" xmlns:xlink="http://www.w3.org/1999/xlink" x="0px" y="0px"
	 viewBox="0 0 95 35" style="enable-background:new 0 0 95 35;" xml:space="preserve">
<style type="text/css">
	.st0{fill:#FFFFFF;}
	.st1{fill-rule:evenodd;clip-rule:evenodd;fill:#FFFFFF;}
</style>
<g>
	<polygon class="st0" points="0.5,10.6 0.5,13.7 6.3,13.7 0,20.6 0,24.3 11.6,24.3 11.6,21.2 5.1,21.2 11.6,14.2 11.6,10.6 
		0.5,10.6 	"/>
	<path class="st1" d="M46.9,30.3h4.4v-8h0.2c0.7,1.9,2.1,2.2,3.7,2.2c3.7,0,5.1-1.7,5.1-5.9v-3.1c0-3.6-1.8-5.1-5.1-5.1
		c-1.9,0-3.3,0.5-3.8,2.3h-0.2l0.1-2.2h-4.4V30.3L46.9,30.3z M53.5,13.9c2.3,0,2.4,0.9,2.4,3.6c0,3.1-0.6,3.6-2.4,3.6
		c-2,0-2.2-1.3-2.2-3.6C51.3,14.6,51.6,13.9,53.5,13.9L53.5,13.9z"/>
	<polygon class="st0" points="66.1,4.7 61.8,4.7 61.8,24.3 66.1,24.3 66.1,4.7 	"/>
	<path class="st0" d="M80.4,24.3V10.6h-4.4v8.5c0,1.4-1.3,2-2.5,2c-1.5,0-1.6-1-1.6-2.3v-8.2h-4.4V20c0,3.4,1.9,4.5,4.5,4.5
		c1.9,0,3.4-0.7,4-2.8h0.2l-0.2,2.6H80.4L80.4,24.3z"/>
	<path class="st0" d="M94.4,14.5v-0.7c0-3.4-3.5-3.4-5.9-3.4c-3.7,0-6.5,0.1-6.5,4.5c0,2.8,1,4.1,6.5,4.1c1.5,0,2.3,0,2.3,1.4
		c0,1.1-0.3,1.2-2.3,1.2c-1.1,0-2.2,0-2.2-1.5h-4.4c0,4.5,3.1,4.4,6.5,4.4c3.5,0,6.5-0.6,6.5-4.6c0-3.8-2-4.1-6.5-4.2
		c-2.2-0.1-2.3-0.5-2.3-1.2c0-0.8,0-1.1,2.3-1.1c0.7,0,1.6,0,1.8,1.2H94.4L94.4,14.5z"/>
</g>
<path class="st0" d="M37.3,9.5c-4.6,0-8.4,3.7-8.4,8.4c0,4.6,3.7,8.4,8.4,8.4c4.6,0,8.4-3.7,8.4-8.4C45.7,13.2,41.9,9.5,37.3,9.5z
	 M37.3,22.3c-2.4,0-4.4-2-4.4-4.4c0-2.4,2-4.4,4.4-4.4c2.4,0,4.4,2,4.4,4.4C41.7,20.3,39.8,22.3,37.3,22.3z"/>
<path class="st0" d="M20,9.5c-4.6,0-8.4,3.7-8.4,8.4c0,4.6,3.7,8.4,8.4,8.4c4.6,0,8.4-3.7,8.4-8.4C28.4,13.2,24.6,9.5,20,9.5z
	 M20,22.3c-2.4,0-4.4-2-4.4-4.4c0-2.4,2-4.4,4.4-4.4c2.4,0,4.4,2,4.4,4.4C24.5,20.3,22.5,22.3,20,22.3z"/>
</svg>
