<?xml version="1.0" encoding="utf-8"?>
<!-- Generator: Adobe Illustrator 26.0.1, SVG Export Plug-In . SVG Version: 6.00 Build 0)  -->
<svg version="1.1" id="Layer_1" xmlns="http://www.w3.org/2000/svg" xmlns:xlink="http://www.w3.org/1999/xlink" x="0px" y="0px"
	 viewBox="0 0 95 35" style="enable-background:new 0 0 95 35;" xml:space="preserve">
<style type="text/css">
	.st0{fill:#104076;}
	.st1{fill:#343741;}
</style>
<path class="st0" d="M-39.1,613.7"/>
<g>
	<path class="st1" d="M12.6,16.2c-0.5-0.5-1.4-1.5-1.7-1.3c-0.2,0.1-0.5,1.1-0.7,1.7c-0.4,0.9-0.6,1.8-0.9,2.7
		c0,0.3-0.2,0.7-0.2,0.9c0,0.2-0.2,0.6-0.2,0.7c0,0.1-0.3,0.9-0.1,1.1c0.1,0.2,0.4,0.1,0.6,0.1c0.7-0.2,1.1-0.3,1.8-0.5
		c0.1-0.1,0.2-0.1,0.3-0.1c0.5-0.2,0.9-0.4,1.4-0.7c0.6-0.4,1.8-0.5,1.8-1.5C14.5,18.1,13.3,17.2,12.6,16.2 M13,19.7
		c-0.4,0.3-1,0.4-1.4,0.7c-0.5,0.3-1.2,0.6-1.3,0.5c-0.1-0.1-0.1-0.2,0-0.3c0.3-0.7,0.3-1.5,0.7-2.1c0.2-0.4,0.4-1.1,0.6-1.1
		c0.2,0,1,0.8,1.4,1.4C12.9,19,13.3,19.4,13,19.7"/>
	<path class="st1" d="M21.2,17.7c-0.9-1.3-0.8-3-1.5-4.3c-1.3-1.8-3.1-3.3-5-4.2c-1.2-0.8-2.5-1.5-3.9-1.8c-0.2-0.1-1.1-0.2-1.6-0.2
		c-1.4,0-2.4,1.2-3.1,2.3c-0.9,1.7-1.3,3.7-2.3,5.4c0,0.1-0.1,0.2-0.1,0.2c-0.8,1.6-1.6,3.3-2.7,4.8C0.6,20.9,0,21.9,0,23
		c0.1,1.2,0.3,2.4,1.4,3.1c1,0.5,2.1,1,3.2,1.2c0.6,0,1.2,0.3,1.8,0.4c1.4,0.3,3.1,0,4.5-0.2c1.6-0.2,3.6,0.1,5.2-0.5
		c1.3-0.6,2.7-1.1,3.9-2c0.7-0.8,1.7-1.4,2.1-2.4C22.5,20.9,21.8,19.2,21.2,17.7 M19.9,21.1c-1.1,2-3.2,2.6-4.9,3.6
		c-1.8,0.9-3.8,1.2-5.7,1.9c-0.7,0.3-1.5,0.1-2.3,0.1c-0.8,0-1.6-0.4-2.2-0.9c-1-1.2-1-3.2-0.6-4.7c0.3-0.9,0.3-1.8,0.7-2.6
		c1.2-2.6,2.1-5.3,3.6-7.7C8.8,10.1,8.9,9,9.8,8.7c0.3-0.1,0.4-0.1,1,0c0.8,0.3,1.9,0.9,2.4,1.3c0.5,0.4,4,4,5.5,6.2
		c0.4,0.6,0.7,1.2,1,1.8c0.1,0.3,0.2,0.6,0.2,1C20,19.5,20.4,20.5,19.9,21.1 M17.3,17.5c-0.3-1.3-1.2-2.4-2-3.5
		c-1.1-1.6-2.8-2.5-4.4-3.4c-0.3-0.2-0.8-0.4-1-0.4c-0.2,0-0.3,0.3-0.3,0.4c-0.4,1-0.9,1.9-1.4,2.9c-0.5,1.4-0.9,3-1.4,4.4
		c-0.7,1.5-1.4,3.2-1.2,4.9c0.1,0.7,0.1,1.4,0.7,1.9c0.7,0.4,1.6,0.5,2.5,0.5c2.1-0.2,4.4-0.2,6.1-1.4c0.1-0.1,1.3-1.1,2-1.6
		c0.4-0.4,1-0.8,1.1-1.4C18,19.8,17.6,18.6,17.3,17.5 M15.5,21.1c-2.1,1.5-4.3,2.8-6.8,3.2c-0.4,0-0.8-0.1-1-0.5
		c-0.8-1.4,0-3,0.2-4.4c0.1-0.7,0.5-1.3,0.7-1.9l1.7-3.9c0.3-0.5,0.6-1.3,1-1.4c0.3-0.2,0.9,0.4,1.2,0.7l0.5,0.6
		c0.6,0.9,1.9,2.7,1.9,2.7c0.5,1,1.1,1.9,1.4,3C16.3,19.9,16.1,20.7,15.5,21.1 M31.6,21.2h-1.1c-0.2,0-0.3-0.1-0.4-0.3l-0.4-1.2
		h-2.5L26.7,21c0,0.1-0.1,0.2-0.3,0.2h-1.2c-0.1,0-0.2-0.1-0.2-0.2c0,0,0-0.1,0-0.1l2.4-6.6c0.1-0.2,0.2-0.3,0.3-0.3H29
		c0.2,0,0.3,0.1,0.4,0.2l2.5,6.5c0,0.1,0,0.1,0,0.2C31.9,21.2,31.8,21.2,31.6,21.2 M28.6,16.5c-0.1-0.2-0.1-0.4-0.2-0.6h0
		c-0.1,0.2-0.1,0.4-0.2,0.6l-0.6,2h1.7L28.6,16.5z M36.8,21.2h-0.9c-0.2,0-0.3-0.1-0.3-0.3v-2.7c0-0.4-0.1-0.7-0.6-0.7
		c-0.3,0-0.8,0.2-1,0.4v3c0,0.2-0.1,0.3-0.3,0.3h-1c-0.2,0-0.3-0.1-0.3-0.3v-4.4c0-0.2,0.1-0.3,0.3-0.3h0.8c0.2,0,0.3,0,0.3,0.2
		l0,0.2c0.5-0.4,1-0.6,1.6-0.6c1.1,0,1.6,0.7,1.6,1.8v3C37.1,21.1,37.1,21.2,36.8,21.2 M40.3,23.5c-0.5,0-1-0.1-1.6-0.3
		c-0.1-0.1-0.2-0.1-0.2-0.2c0-0.1,0-0.1,0-0.2l0.2-0.6c0-0.1,0.1-0.2,0.2-0.2c0.1,0,0.1,0,0.2,0c0.4,0.1,0.8,0.2,1.1,0.2
		c0.9,0,1.1-0.5,1.1-1.1v-0.4C41,21,40.4,21.3,40,21.3c-0.6,0-1.1-0.2-1.5-0.6c-0.4-0.4-0.7-1.1-0.7-1.8c0-1.4,0.8-2.7,2.3-2.7
		c0.2,0,0.5,0.1,0.7,0.2c0.2,0.1,0.4,0.2,0.5,0.4l0-0.2c0-0.1,0.1-0.2,0.3-0.2h0.9c0.2,0,0.3,0.1,0.3,0.3v4.3
		C42.8,22.6,42,23.5,40.3,23.5 M41.3,17.7c-0.2-0.2-0.5-0.3-0.8-0.3c-0.3,0-0.5,0.1-0.6,0.3c-0.3,0.3-0.4,0.7-0.4,1.1
		c0,0.4,0.1,0.8,0.3,1c0.2,0.2,0.4,0.2,0.6,0.2c0.3,0,0.7-0.2,0.8-0.4V17.7z M45.2,21.2h-1c-0.2,0-0.3-0.1-0.3-0.3v-6.6
		c0-0.2,0.1-0.3,0.2-0.3l1-0.1h0.1c0.1,0,0.2,0.1,0.2,0.3v6.8C45.5,21.1,45.4,21.2,45.2,21.2 M48.8,21.4c-1.7,0-2.5-1.1-2.5-2.6
		c0-1.5,1-2.6,2.6-2.6c1.7,0,2.5,1.1,2.5,2.6C51.4,20.3,50.5,21.4,48.8,21.4 M48.9,17.3c-0.8,0-1,0.7-1,1.4c0,0.8,0.2,1.4,1,1.4
		c0.8,0,1-0.7,1-1.4C49.9,18,49.6,17.3,48.9,17.3 M58.3,21.2h-1.1c-0.2,0-0.3-0.1-0.4-0.3l-0.4-1.2h-2.5L53.4,21
		c0,0.1-0.1,0.2-0.3,0.2H52c-0.1,0-0.2-0.1-0.2-0.2c0,0,0-0.1,0-0.1l2.4-6.6c0.1-0.2,0.2-0.3,0.3-0.3h1.1c0.2,0,0.3,0.1,0.4,0.2
		l2.5,6.5c0,0.1,0,0.1,0,0.2C58.6,21.2,58.5,21.2,58.3,21.2 M55.3,16.5c-0.1-0.2-0.1-0.4-0.2-0.6h0c-0.1,0.2-0.1,0.4-0.2,0.6l-0.6,2
		h1.7L55.3,16.5z M66.5,21.2h-0.9c-0.2,0-0.3-0.1-0.3-0.3v-2.7c0-0.4-0.1-0.7-0.6-0.7c-0.4,0-0.8,0.2-1.1,0.4v3
		c0,0.2-0.1,0.3-0.3,0.3h-0.8c-0.2,0-0.3-0.1-0.3-0.3v-2.7c0-0.4-0.1-0.7-0.6-0.7c-0.3,0-0.7,0.2-1,0.4v3c0,0.2-0.1,0.3-0.3,0.3
		h-0.9c-0.2,0-0.3-0.1-0.3-0.3v-4.4c0-0.2,0.1-0.3,0.3-0.3h0.8c0.2,0,0.3,0.1,0.3,0.2l0,0.2c0.4-0.3,0.9-0.6,1.5-0.6
		c0.7,0,1.1,0.3,1.3,0.7c0.5-0.5,1.1-0.7,1.8-0.7c0.8,0,1.3,0.5,1.5,0.9c0.2,0.4,0.2,0.9,0.2,1.6v2.4C66.8,21.2,66.7,21.2,66.5,21.2
		 M72.1,19.1h-2.9c0.1,0.6,0.7,1,1.3,1c0.5,0,0.9-0.1,1.3-0.3c0,0,0.1,0,0.1,0c0.1,0,0.1,0.1,0.2,0.1c0,0.2,0.2,0.6,0.2,0.8
		c0,0.1-0.1,0.2-0.2,0.2c-0.5,0.2-1.3,0.3-1.9,0.3c-1.6,0-2.7-1-2.7-2.6c0-1.6,1.1-2.6,2.7-2.6c0.7,0,1.2,0.2,1.6,0.7
		c0.5,0.5,0.6,1.2,0.6,2v0.1C72.4,19.1,72.3,19.1,72.1,19.1 M70.1,17.3c-0.5,0-0.9,0.4-0.9,0.9h1.7C70.9,17.7,70.7,17.3,70.1,17.3
		 M76.4,16.4l-0.2,1c0,0.1-0.1,0.2-0.2,0.2H76c-0.1,0-0.2,0-0.3,0c-0.3,0-0.7,0.1-0.9,0.4v3.1c0,0.2-0.1,0.3-0.3,0.3h-1
		c-0.2,0-0.3-0.1-0.3-0.3v-4.4c0-0.2,0.1-0.3,0.3-0.3h0.8c0.2,0,0.3,0.1,0.3,0.2l0,0.3c0.4-0.4,0.7-0.7,1.3-0.7c0.1,0,0.2,0,0.3,0
		c0.1,0,0.1,0.1,0.1,0.1L76.4,16.4C76.4,16.3,76.4,16.4,76.4,16.4 M77.9,15.7c-0.4,0-0.8-0.3-0.8-0.8c0-0.5,0.4-0.8,0.8-0.8
		c0.4,0,0.8,0.3,0.8,0.8C78.7,15.4,78.3,15.7,77.9,15.7 M78.4,21.2h-0.9c-0.2,0-0.3-0.1-0.3-0.3v-4.4c0-0.2,0.1-0.3,0.3-0.3h0.9
		c0.2,0,0.3,0.1,0.3,0.3v4.4C78.7,21.1,78.6,21.2,78.4,21.2 M83.6,21.1c-0.5,0.2-1,0.3-1.6,0.3c-1.6,0-2.5-0.9-2.5-2.6
		c0-1.7,1-2.7,2.6-2.7c0.5,0,0.9,0.1,1.4,0.3c0.1,0,0.1,0.1,0.1,0.2c0,0,0,0.1,0,0.1l-0.2,0.7c0,0.1-0.1,0.1-0.1,0.1
		c0,0-0.1,0-0.1,0c-0.3-0.1-0.6-0.2-0.9-0.2c-0.8,0-1.2,0.5-1.2,1.4c0,0.9,0.5,1.4,1.2,1.4c0.4,0,0.6-0.1,1-0.2c0,0,0.1,0,0.1,0
		c0.1,0,0.1,0.1,0.1,0.1c0.1,0.2,0.2,0.7,0.2,0.8C83.8,21,83.7,21,83.6,21.1 M89.2,21.2h-0.5c-0.6,0-0.8-0.2-1-0.5h0
		c-0.3,0.3-0.9,0.6-1.4,0.6c-1.5,0-2.2-1.2-2.2-2.5c0-1.8,1.1-2.7,2.3-2.7c0.6,0,1,0.3,1.2,0.6l0-0.2c0-0.1,0.1-0.2,0.2-0.2h0.9
		c0.1,0,0.2,0.1,0.2,0.2V20c0,0.1,0,0.2,0.2,0.2h0.1c0.1,0,0.2,0.1,0.2,0.2V21C89.5,21.2,89.4,21.2,89.2,21.2 M87.5,17.7
		c-0.2-0.2-0.5-0.3-0.8-0.3c-0.5,0-1,0.4-1,1.4c0,0.6,0.2,1.4,0.9,1.4c0.4,0,0.7-0.3,0.9-0.4V17.7z M94.7,21.2h-0.9
		c-0.2,0-0.3-0.1-0.3-0.3v-2.7c0-0.4-0.1-0.7-0.6-0.7c-0.3,0-0.8,0.2-1,0.4v3c0,0.2-0.1,0.3-0.3,0.3h-1c-0.2,0-0.3-0.1-0.3-0.3v-4.4
		c0-0.2,0.1-0.3,0.3-0.3h0.8c0.2,0,0.3,0,0.3,0.2l0,0.2c0.5-0.4,1-0.6,1.6-0.6c1.1,0,1.6,0.7,1.6,1.8v3C95,21.1,94.9,21.2,94.7,21.2
		"/>
</g>
</svg>
