<?xml version="1.0" encoding="utf-8"?>
<!-- Generator: Adobe Illustrator 26.0.1, SVG Export Plug-In . SVG Version: 6.00 Build 0)  -->
<svg version="1.1" id="Layer_1" xmlns="http://www.w3.org/2000/svg" xmlns:xlink="http://www.w3.org/1999/xlink" x="0px" y="0px"
	 viewBox="0 0 95 35" style="enable-background:new 0 0 95 35;" xml:space="preserve">
<style type="text/css">
	.st0{fill:#104076;}
	.st1{fill:#CCCCCC;}
</style>
<path class="st0" d="M-39.1,613.7"/>
<g>
	<g transform="matrix(11.111109733581543,0,0,11.111109733581543,0.00030517578125,-0.0001220703125)">
		<g transform="matrix(1,0,0,1,47.5,87.5)">
			<path class="st1" d="M-46.5-85.1C-46.5-85.1-46.5-85.1-46.5-85.1C-46.5-85.1-46.5-85-46.5-85.1C-46.6-85-46.6-85.1-46.5-85.1
				C-46.6-85.1-46.6-85.1-46.5-85.1z"/>
		</g>
	</g>
	<g transform="matrix(11.111109733581543,0,0,11.111109733581543,-0.000244140625,-0.0001220703125)">
		<g transform="matrix(1,0,0,1,52.5,87.5)">
			<path class="st1" d="M-51.4-85.1C-51.4-85.1-51.4-85.1-51.4-85.1C-51.4-85.1-51.4-85-51.4-85.1C-51.5-85-51.5-85.1-51.4-85.1
				C-51.5-85.1-51.5-85.1-51.4-85.1z"/>
		</g>
	</g>
	<g transform="matrix(1,0,0,1,0,0)">
		<g transform="matrix(11.111109733581543,0,0,11.111109733581543,0.00054931640625,-0.0001220703125)">
			<g transform="matrix(1,0,0,1,72.5,87.5)">
				<path class="st1" d="M-71-85.1C-71-85.1-71-85.1-71-85.1C-71-85.1-71-85-71-85.1C-71.1-85-71.1-85.1-71-85.1
					C-71.1-85.1-71.1-85.1-71-85.1z"/>
			</g>
		</g>
		<g transform="matrix(11.111109733581543,0,0,11.111109733581543,0,-0.0001220703125)">
			<g transform="matrix(1,0,0,1,77.5,87.5)">
				<path class="st1" d="M-75.9-85.1C-75.9-85.1-75.9-85.1-75.9-85.1C-75.9-85.1-75.9-85-75.9-85.1C-76-85-76-85.1-75.9-85.1
					C-76-85.1-76-85.1-75.9-85.1z"/>
			</g>
		</g>
		<g transform="matrix(11.111109733581543,0,0,11.111109733581543,0.00042724609375,-0.0001220703125)">
			<g transform="matrix(1,0,0,1,82.5,87.5)">
				<path class="st1" d="M-80.8-85.1C-80.8-85.1-80.8-85.1-80.8-85.1C-80.8-85.1-80.8-85-80.8-85.1C-80.9-85-80.9-85.1-80.8-85.1
					C-80.9-85.1-80.9-85.1-80.8-85.1z"/>
			</g>
		</g>
		<g transform="matrix(11.111109733581543,0,0,11.111109733581543,-0.0001220703125,-0.0001220703125)">
			<g transform="matrix(1,0,0,1,87.5,87.5)">
				<path class="st1" d="M-85.7-85.1C-85.7-85.1-85.7-85.1-85.7-85.1C-85.7-85.1-85.7-85-85.7-85.1C-85.8-85-85.8-85.1-85.7-85.1
					C-85.8-85.1-85.8-85.1-85.7-85.1z"/>
			</g>
		</g>
	</g>
	<g transform="matrix(11.111109733581543,0,0,11.111109733581543,-0.00018310546875,-0.0001220703125)">
		<g transform="matrix(1,0,0,1,42.5,87.5)">
			<path class="st1" d="M-41.6-85.1C-41.6-85.1-41.6-85.1-41.6-85.1C-41.6-85.1-41.6-85-41.6-85.1C-41.7-85-41.7-85.1-41.6-85.1
				C-41.7-85.1-41.7-85.1-41.6-85.1z"/>
		</g>
	</g>
	<g transform="matrix(1,0,0,1,0,0)">
		<g transform="matrix(11.111109733581543,0,0,11.111109733581543,-0.00042724609375,-0.0001220703125)">
			<g transform="matrix(1,0,0,1,17.5,87.5)">
				<path class="st1" d="M-17.1-85.1C-17.1-85.1-17.1-85.1-17.1-85.1C-17.1-85.1-17.1-85-17.1-85.1C-17.2-85-17.2-85.1-17.1-85.1
					C-17.2-85.1-17.2-85.1-17.1-85.1z"/>
			</g>
		</g>
		<g transform="matrix(11.111109733581543,0,0,11.111109733581543,0.000030517578125,-0.0001220703125)">
			<g transform="matrix(1,0,0,1,22.5,87.5)">
				<path class="st1" d="M-22-85.1C-22-85.1-22-85.1-22-85.1C-22-85.1-22-85-22-85.1C-22.1-85-22.1-85.1-22-85.1
					C-22.1-85.1-22.1-85.1-22-85.1z"/>
			</g>
		</g>
		<g transform="matrix(11.111109733581543,0,0,11.111109733581543,0.00048828125,-0.0001220703125)">
			<g transform="matrix(1,0,0,1,27.5,87.5)">
				<path class="st1" d="M-26.9-85.1C-26.9-85.1-26.9-85.1-26.9-85.1C-26.9-85.1-26.9-85-26.9-85.1C-27-85-27-85.1-26.9-85.1
					C-27-85.1-27-85.1-26.9-85.1z"/>
			</g>
		</g>
		<g transform="matrix(11.111109733581543,0,0,11.111109733581543,-0.00006103515625,-0.0001220703125)">
			<g transform="matrix(1,0,0,1,32.5,87.5)">
				<path class="st1" d="M-31.8-85.1C-31.8-85.1-31.8-85.1-31.8-85.1C-31.8-85.1-31.8-85-31.8-85.1C-31.9-85-31.9-85.1-31.8-85.1
					C-31.9-85.1-31.9-85.1-31.8-85.1z"/>
			</g>
		</g>
		<g transform="matrix(11.111109733581543,0,0,11.111109733581543,0.0003662109375,-0.0001220703125)">
			<g transform="matrix(1,0,0,1,37.5,87.5)">
				<path class="st1" d="M-36.7-85.1C-36.7-85.1-36.7-85.1-36.7-85.1C-36.7-85.1-36.7-85-36.7-85.1C-36.8-85-36.8-85.1-36.7-85.1
					C-36.8-85.1-36.8-85.1-36.7-85.1z"/>
			</g>
		</g>
	</g>
	<g transform="matrix(1,0,0,1,0,0)">
		<g transform="matrix(11.111109733581543,0,0,11.111109733581543,0.00054931640625,0.00042724609375)">
			<g transform="matrix(1,0,0,1,72.5,82.5)">
				<path class="st1" d="M-71-80.2C-71-80.2-71-80.2-71-80.2C-71-80.2-71-80.1-71-80.2C-71.1-80.1-71.1-80.2-71-80.2
					C-71.1-80.2-71.1-80.2-71-80.2z"/>
			</g>
		</g>
		<g transform="matrix(11.111109733581543,0,0,11.111109733581543,0,0.00042724609375)">
			<g transform="matrix(1,0,0,1,77.5,82.5)">
				<path class="st1" d="M-75.9-80.2C-75.9-80.2-75.9-80.2-75.9-80.2C-75.9-80.2-75.9-80.1-75.9-80.2C-76-80.1-76-80.2-75.9-80.2
					C-76-80.2-76-80.2-75.9-80.2z"/>
			</g>
		</g>
		<g transform="matrix(11.111109733581543,0,0,11.111109733581543,0.00042724609375,0.00042724609375)">
			<g transform="matrix(1,0,0,1,82.5,82.5)">
				<path class="st1" d="M-80.8-80.2C-80.8-80.2-80.8-80.2-80.8-80.2C-80.8-80.2-80.8-80.1-80.8-80.2
					C-80.9-80.1-80.9-80.2-80.8-80.2C-80.9-80.2-80.9-80.2-80.8-80.2z"/>
			</g>
		</g>
		<g transform="matrix(11.111109733581543,0,0,11.111109733581543,-0.0001220703125,0.00042724609375)">
			<g transform="matrix(1,0,0,1,87.5,82.5)">
				<path class="st1" d="M-85.7-80.2C-85.7-80.2-85.7-80.2-85.7-80.2C-85.7-80.2-85.7-80.1-85.7-80.2
					C-85.8-80.1-85.8-80.2-85.7-80.2C-85.8-80.2-85.8-80.2-85.7-80.2z"/>
			</g>
		</g>
	</g>
	<g transform="matrix(11.111109733581543,0,0,11.111109733581543,0.00030517578125,0.00042724609375)">
		<g transform="matrix(1,0,0,1,47.5,82.5)">
			<path class="st1" d="M-46.5-80.2C-46.5-80.2-46.5-80.2-46.5-80.2C-46.5-80.2-46.5-80.1-46.5-80.2C-46.6-80.1-46.6-80.2-46.5-80.2
				C-46.6-80.2-46.6-80.2-46.5-80.2z"/>
		</g>
	</g>
	<g transform="matrix(1,0,0,1,0,0)">
		<g transform="matrix(11.111109733581543,0,0,11.111109733581543,-0.000244140625,0.00042724609375)">
			<g transform="matrix(1,0,0,1,52.5,82.5)">
				<path class="st1" d="M-51.4-80.2C-51.4-80.2-51.4-80.2-51.4-80.2C-51.4-80.2-51.4-80.1-51.4-80.2
					C-51.5-80.1-51.5-80.2-51.4-80.2C-51.5-80.2-51.5-80.2-51.4-80.2z"/>
			</g>
		</g>
		<g transform="matrix(11.111109733581543,0,0,11.111109733581543,0.00018310546875,0.00042724609375)">
			<g transform="matrix(1,0,0,1,57.5,82.5)">
				<path class="st1" d="M-56.3-80.2C-56.3-80.2-56.3-80.2-56.3-80.2C-56.3-80.2-56.3-80.1-56.3-80.2
					C-56.4-80.1-56.4-80.2-56.3-80.2C-56.4-80.2-56.4-80.2-56.3-80.2z"/>
			</g>
		</g>
	</g>
	<g transform="matrix(11.111109733581543,0,0,11.111109733581543,-0.00018310546875,0.00042724609375)">
		<g transform="matrix(1,0,0,1,42.5,82.5)">
			<path class="st1" d="M-41.6-80.2C-41.6-80.2-41.6-80.2-41.6-80.2C-41.6-80.2-41.6-80.1-41.6-80.2C-41.7-80.1-41.7-80.2-41.6-80.2
				C-41.7-80.2-41.7-80.2-41.6-80.2z"/>
		</g>
	</g>
	<g transform="matrix(1,0,0,1,0,0)">
		<g transform="matrix(11.111109733581543,0,0,11.111109733581543,0.0001373291015625,0.00042724609375)">
			<g transform="matrix(1,0,0,1,12.5,82.5)">
				<path class="st1" d="M-12.2-80.2C-12.2-80.2-12.2-80.2-12.2-80.2C-12.2-80.2-12.2-80.1-12.2-80.2
					C-12.3-80.1-12.3-80.2-12.2-80.2C-12.3-80.2-12.3-80.2-12.2-80.2z"/>
			</g>
		</g>
		<g transform="matrix(11.111109733581543,0,0,11.111109733581543,-0.00042724609375,0.00042724609375)">
			<g transform="matrix(1,0,0,1,17.5,82.5)">
				<path class="st1" d="M-17.1-80.2C-17.1-80.2-17.1-80.2-17.1-80.2C-17.1-80.2-17.1-80.1-17.1-80.2
					C-17.2-80.1-17.2-80.2-17.1-80.2C-17.2-80.2-17.2-80.2-17.1-80.2z"/>
			</g>
		</g>
		<g transform="matrix(11.111109733581543,0,0,11.111109733581543,0.000030517578125,0.00042724609375)">
			<g transform="matrix(1,0,0,1,22.5,82.5)">
				<path class="st1" d="M-22-80.2C-22-80.2-22-80.2-22-80.2C-22-80.2-22-80.1-22-80.2C-22.1-80.1-22.1-80.2-22-80.2
					C-22.1-80.2-22.1-80.2-22-80.2z"/>
			</g>
		</g>
		<g transform="matrix(11.111109733581543,0,0,11.111109733581543,0.00048828125,0.00042724609375)">
			<g transform="matrix(1,0,0,1,27.5,82.5)">
				<path class="st1" d="M-26.9-80.2C-26.9-80.2-26.9-80.2-26.9-80.2C-26.9-80.2-26.9-80.1-26.9-80.2C-27-80.1-27-80.2-26.9-80.2
					C-27-80.2-27-80.2-26.9-80.2z"/>
			</g>
		</g>
		<g transform="matrix(11.111109733581543,0,0,11.111109733581543,-0.00006103515625,0.00042724609375)">
			<g transform="matrix(1,0,0,1,32.5,82.5)">
				<path class="st1" d="M-31.8-80.2C-31.8-80.2-31.8-80.2-31.8-80.2C-31.8-80.2-31.8-80.1-31.8-80.2
					C-31.9-80.1-31.9-80.2-31.8-80.2C-31.9-80.2-31.9-80.2-31.8-80.2z"/>
			</g>
		</g>
		<g transform="matrix(11.111109733581543,0,0,11.111109733581543,0.0003662109375,0.00042724609375)">
			<g transform="matrix(1,0,0,1,37.5,82.5)">
				<path class="st1" d="M-36.7-80.2C-36.7-80.2-36.7-80.2-36.7-80.2C-36.7-80.2-36.7-80.1-36.7-80.2
					C-36.8-80.1-36.8-80.2-36.7-80.2C-36.8-80.2-36.8-80.2-36.7-80.2z"/>
			</g>
		</g>
	</g>
	<g transform="matrix(11.111109733581543,0,0,11.111109733581543,0.00030517578125,0)">
		<g transform="matrix(1,0,0,1,47.5,77.5)">
			<path class="st1" d="M-46.5-75.2C-46.6-75.2-46.6-75.2-46.5-75.2C-46.6-75.3-46.6-75.3-46.5-75.2C-46.5-75.3-46.5-75.3-46.5-75.2
				C-46.5-75.2-46.5-75.2-46.5-75.2z"/>
		</g>
	</g>
	<g transform="matrix(1,0,0,1,0,0)">
		<g transform="matrix(11.111109733581543,0,0,11.111109733581543,0.00018310546875,0)">
			<g transform="matrix(1,0,0,1,57.5,77.5)">
				<path class="st1" d="M-56.3-75.2C-56.4-75.2-56.4-75.2-56.3-75.2C-56.4-75.3-56.4-75.3-56.3-75.2
					C-56.3-75.3-56.3-75.3-56.3-75.2C-56.3-75.2-56.3-75.2-56.3-75.2z"/>
			</g>
		</g>
		<g transform="matrix(11.111109733581543,0,0,11.111109733581543,0,0)">
			<g transform="matrix(1,0,0,1,77.5,77.5)">
				<path class="st1" d="M-75.9-75.2C-76-75.2-76-75.2-75.9-75.2C-76-75.3-76-75.3-75.9-75.2C-75.9-75.3-75.9-75.3-75.9-75.2
					C-75.9-75.2-75.9-75.2-75.9-75.2z"/>
			</g>
		</g>
		<g transform="matrix(11.111109733581543,0,0,11.111109733581543,-0.0003662109375,0)">
			<g transform="matrix(1,0,0,1,62.5,77.5)">
				<path class="st1" d="M-61.2-75.2C-61.3-75.2-61.3-75.2-61.2-75.2C-61.3-75.3-61.3-75.3-61.2-75.2
					C-61.2-75.3-61.2-75.3-61.2-75.2C-61.2-75.2-61.2-75.2-61.2-75.2z"/>
			</g>
		</g>
		<g transform="matrix(11.111109733581543,0,0,11.111109733581543,0.00042724609375,0)">
			<g transform="matrix(1,0,0,1,82.5,77.5)">
				<path class="st1" d="M-80.8-75.2C-80.9-75.2-80.9-75.2-80.8-75.2C-80.9-75.3-80.9-75.3-80.8-75.2
					C-80.8-75.3-80.8-75.3-80.8-75.2C-80.8-75.2-80.8-75.2-80.8-75.2z"/>
			</g>
		</g>
		<g transform="matrix(11.111109733581543,0,0,11.111109733581543,-0.0001220703125,0)">
			<g transform="matrix(1,0,0,1,87.5,77.5)">
				<path class="st1" d="M-85.7-75.2C-85.8-75.2-85.8-75.2-85.7-75.2C-85.8-75.3-85.8-75.3-85.7-75.2
					C-85.7-75.3-85.7-75.3-85.7-75.2C-85.7-75.2-85.7-75.2-85.7-75.2z"/>
			</g>
		</g>
		<g transform="matrix(11.111109733581543,0,0,11.111109733581543,-0.000244140625,0)">
			<g transform="matrix(1,0,0,1,52.5,77.5)">
				<path class="st1" d="M-51.4-75.2C-51.5-75.2-51.5-75.2-51.4-75.2C-51.5-75.3-51.5-75.3-51.4-75.2
					C-51.4-75.3-51.4-75.3-51.4-75.2C-51.4-75.2-51.4-75.2-51.4-75.2z"/>
			</g>
		</g>
		<g transform="matrix(11.111109733581543,0,0,11.111109733581543,0.00054931640625,0)">
			<g transform="matrix(1,0,0,1,72.5,77.5)">
				<path class="st1" d="M-71-75.2C-71.1-75.2-71.1-75.2-71-75.2C-71.1-75.3-71.1-75.3-71-75.2C-71-75.3-71-75.3-71-75.2
					C-71-75.2-71-75.2-71-75.2z"/>
			</g>
		</g>
	</g>
	<g transform="matrix(11.111109733581543,0,0,11.111109733581543,-0.00018310546875,0)">
		<g transform="matrix(1,0,0,1,42.5,77.5)">
			<path class="st1" d="M-41.6-75.2C-41.7-75.2-41.7-75.2-41.6-75.2C-41.7-75.3-41.7-75.3-41.6-75.2C-41.6-75.3-41.6-75.3-41.6-75.2
				C-41.6-75.2-41.6-75.2-41.6-75.2z"/>
		</g>
	</g>
	<g transform="matrix(1,0,0,1,0,0)">
		<g transform="matrix(11.111109733581543,0,0,11.111109733581543,-0.0003204345703125,0)">
			<g transform="matrix(1,0,0,1,7.5,77.5)">
				<path class="st1" d="M-7.3-75.2C-7.4-75.2-7.4-75.2-7.3-75.2C-7.4-75.3-7.4-75.3-7.3-75.2C-7.3-75.3-7.3-75.3-7.3-75.2
					C-7.3-75.2-7.3-75.2-7.3-75.2z"/>
			</g>
		</g>
		<g transform="matrix(11.111109733581543,0,0,11.111109733581543,0.0003662109375,0)">
			<g transform="matrix(1,0,0,1,37.5,77.5)">
				<path class="st1" d="M-36.7-75.2C-36.8-75.2-36.8-75.2-36.7-75.2C-36.8-75.3-36.8-75.3-36.7-75.2
					C-36.7-75.3-36.7-75.3-36.7-75.2C-36.7-75.2-36.7-75.2-36.7-75.2z"/>
			</g>
		</g>
		<g transform="matrix(11.111109733581543,0,0,11.111109733581543,0.0001373291015625,0)">
			<g transform="matrix(1,0,0,1,12.5,77.5)">
				<path class="st1" d="M-12.2-75.3C-12.2-75.2-12.2-75.2-12.2-75.3C-12.3-75.2-12.3-75.2-12.2-75.3
					C-12.3-75.3-12.3-75.3-12.2-75.3C-12.2-75.3-12.2-75.3-12.2-75.3z"/>
			</g>
		</g>
		<g transform="matrix(11.111109733581543,0,0,11.111109733581543,-0.00006103515625,0)">
			<g transform="matrix(1,0,0,1,32.5,77.5)">
				<path class="st1" d="M-31.8-75.2C-31.9-75.2-31.9-75.2-31.8-75.2C-31.9-75.3-31.9-75.3-31.8-75.2
					C-31.8-75.3-31.8-75.3-31.8-75.2C-31.8-75.2-31.8-75.2-31.8-75.2z"/>
			</g>
		</g>
		<g transform="matrix(11.111109733581543,0,0,11.111109733581543,0.00048828125,0)">
			<g transform="matrix(1,0,0,1,27.5,77.5)">
				<path class="st1" d="M-26.9-75.2C-27-75.2-27-75.2-26.9-75.2C-27-75.3-27-75.3-26.9-75.2C-26.9-75.3-26.9-75.3-26.9-75.2
					C-26.9-75.2-26.9-75.2-26.9-75.2z"/>
			</g>
		</g>
		<g transform="matrix(11.111109733581543,0,0,11.111109733581543,0.000030517578125,0)">
			<g transform="matrix(1,0,0,1,22.5,77.5)">
				<path class="st1" d="M-22-75.2C-22.1-75.2-22.1-75.2-22-75.2C-22.1-75.3-22.1-75.3-22-75.2C-22-75.3-22-75.3-22-75.2
					C-22-75.2-22-75.2-22-75.2z"/>
			</g>
		</g>
		<g transform="matrix(11.111109733581543,0,0,11.111109733581543,-0.00042724609375,0)">
			<g transform="matrix(1,0,0,1,17.5,77.5)">
				<path class="st1" d="M-17.1-75.2C-17.2-75.2-17.2-75.2-17.1-75.2C-17.2-75.3-17.2-75.3-17.1-75.2
					C-17.1-75.3-17.1-75.3-17.1-75.2C-17.1-75.2-17.1-75.2-17.1-75.2z"/>
			</g>
		</g>
	</g>
	<g transform="matrix(11.111109733581543,0,0,11.111109733581543,0.00030517578125,0.00054931640625)">
		<g transform="matrix(1,0,0,1,47.5,72.5)">
			<path class="st1" d="M-46.5-70.4C-46.5-70.4-46.5-70.4-46.5-70.4C-46.5-70.3-46.5-70.3-46.5-70.4C-46.6-70.3-46.6-70.3-46.5-70.4
				C-46.6-70.4-46.6-70.4-46.5-70.4z"/>
		</g>
	</g>
	<g transform="matrix(1,0,0,1,0,0)">
		<g transform="matrix(11.111109733581543,0,0,11.111109733581543,-0.000244140625,0.00054931640625)">
			<g transform="matrix(1,0,0,1,52.5,72.5)">
				<path class="st1" d="M-51.4-70.4C-51.4-70.4-51.4-70.4-51.4-70.4C-51.4-70.3-51.4-70.3-51.4-70.4
					C-51.5-70.3-51.5-70.3-51.4-70.4C-51.5-70.4-51.5-70.4-51.4-70.4z"/>
			</g>
		</g>
		<g transform="matrix(11.111109733581543,0,0,11.111109733581543,0.00054931640625,0.00054931640625)">
			<g transform="matrix(1,0,0,1,72.5,72.5)">
				<path class="st1" d="M-71-70.4C-71-70.4-71-70.4-71-70.4C-71-70.3-71-70.3-71-70.4C-71.1-70.3-71.1-70.3-71-70.4
					C-71.1-70.4-71.1-70.4-71-70.4z"/>
			</g>
		</g>
		<g transform="matrix(11.111109733581543,0,0,11.111109733581543,0.00018310546875,0.00054931640625)">
			<g transform="matrix(1,0,0,1,57.5,72.5)">
				<path class="st1" d="M-56.4-70.4C-56.4-70.4-56.4-70.4-56.4-70.4C-56.3-70.4-56.3-70.4-56.4-70.4
					C-56.3-70.3-56.3-70.3-56.4-70.4C-56.4-70.3-56.4-70.3-56.4-70.4z"/>
			</g>
		</g>
		<g transform="matrix(11.111109733581543,0,0,11.111109733581543,0,0.00054931640625)">
			<g transform="matrix(1,0,0,1,77.5,72.5)">
				<path class="st1" d="M-76-70.4C-76-70.4-76-70.4-76-70.4C-75.9-70.4-75.9-70.4-76-70.4C-75.9-70.3-75.9-70.3-76-70.4
					C-76-70.3-76-70.3-76-70.4z"/>
			</g>
		</g>
		<g transform="matrix(11.111109733581543,0,0,11.111109733581543,-0.0003662109375,0.00054931640625)">
			<g transform="matrix(1,0,0,1,62.5,72.5)">
				<path class="st1" d="M-61.3-70.4C-61.3-70.4-61.3-70.4-61.3-70.4C-61.2-70.4-61.2-70.4-61.3-70.4
					C-61.2-70.3-61.2-70.3-61.3-70.4C-61.3-70.3-61.3-70.3-61.3-70.4z"/>
			</g>
		</g>
		<g transform="matrix(11.111109733581543,0,0,11.111109733581543,0.00042724609375,0.00054931640625)">
			<g transform="matrix(1,0,0,1,82.5,72.5)">
				<path class="st1" d="M-80.9-70.4C-80.9-70.4-80.9-70.4-80.9-70.4C-80.8-70.4-80.8-70.4-80.9-70.4
					C-80.8-70.3-80.8-70.3-80.9-70.4C-80.9-70.3-80.9-70.3-80.9-70.4z"/>
			</g>
		</g>
		<g transform="matrix(11.111109733581543,0,0,11.111109733581543,0.0001220703125,0.00054931640625)">
			<g transform="matrix(1,0,0,1,67.5,72.5)">
				<path class="st1" d="M-66.2-70.4C-66.2-70.4-66.2-70.4-66.2-70.4C-66.1-70.4-66.1-70.4-66.2-70.4
					C-66.1-70.3-66.1-70.3-66.2-70.4C-66.2-70.3-66.2-70.3-66.2-70.4z"/>
			</g>
		</g>
		<g transform="matrix(11.111109733581543,0,0,11.111109733581543,-0.0001220703125,0.00054931640625)">
			<g transform="matrix(1,0,0,1,87.5,72.5)">
				<path class="st1" d="M-85.8-70.4C-85.8-70.4-85.8-70.4-85.8-70.4C-85.7-70.4-85.7-70.4-85.8-70.4
					C-85.7-70.3-85.7-70.3-85.8-70.4C-85.8-70.3-85.8-70.3-85.8-70.4z"/>
			</g>
		</g>
	</g>
	<g transform="matrix(11.111109733581543,0,0,11.111109733581543,-0.00018310546875,0.00054931640625)">
		<g transform="matrix(1,0,0,1,42.5,72.5)">
			<path class="st1" d="M-41.6-70.4C-41.6-70.4-41.6-70.4-41.6-70.4C-41.6-70.3-41.6-70.3-41.6-70.4C-41.7-70.3-41.7-70.3-41.6-70.4
				C-41.7-70.4-41.7-70.4-41.6-70.4z"/>
		</g>
	</g>
	<g transform="matrix(1,0,0,1,0,0)">
		<g transform="matrix(11.111109733581543,0,0,11.111109733581543,0.0003662109375,0.00054931640625)">
			<g transform="matrix(1,0,0,1,37.5,72.5)">
				<path class="st1" d="M-36.7-70.4C-36.7-70.4-36.7-70.4-36.7-70.4C-36.7-70.3-36.7-70.3-36.7-70.4
					C-36.8-70.3-36.8-70.3-36.7-70.4C-36.8-70.4-36.8-70.4-36.7-70.4z"/>
			</g>
		</g>
		<g transform="matrix(11.111109733581543,0,0,11.111109733581543,-0.0003204345703125,0.00054931640625)">
			<g transform="matrix(1,0,0,1,7.5,72.5)">
				<path class="st1" d="M-7.4-70.4C-7.4-70.4-7.4-70.4-7.4-70.4C-7.3-70.4-7.3-70.4-7.4-70.4C-7.3-70.3-7.3-70.3-7.4-70.4
					C-7.4-70.3-7.4-70.3-7.4-70.4z"/>
			</g>
		</g>
		<g transform="matrix(11.111109733581543,0,0,11.111109733581543,0.000225067138671875,0.00054931640625)">
			<g transform="matrix(1,0,0,1,2.5,72.5)">
				<path class="st1" d="M-2.5-70.4C-2.5-70.4-2.5-70.4-2.5-70.4c0.1,0,0.1,0,0.1,0S-2.4-70.3-2.5-70.4C-2.5-70.3-2.5-70.3-2.5-70.4
					z"/>
			</g>
		</g>
		<g transform="matrix(11.111109733581543,0,0,11.111109733581543,-0.00042724609375,0.00054931640625)">
			<g transform="matrix(1,0,0,1,17.5,72.5)">
				<path class="st1" d="M-17.1-70.4C-17.1-70.4-17.1-70.4-17.1-70.4C-17.1-70.3-17.1-70.3-17.1-70.4
					C-17.2-70.3-17.2-70.3-17.1-70.4C-17.2-70.4-17.2-70.4-17.1-70.4z"/>
			</g>
		</g>
		<g transform="matrix(11.111109733581543,0,0,11.111109733581543,0.000030517578125,0.00054931640625)">
			<g transform="matrix(1,0,0,1,22.5,72.5)">
				<path class="st1" d="M-22-70.4C-22-70.4-22-70.4-22-70.4C-22-70.3-22-70.3-22-70.4C-22.1-70.3-22.1-70.3-22-70.4
					C-22.1-70.4-22.1-70.4-22-70.4z"/>
			</g>
		</g>
		<g transform="matrix(11.111109733581543,0,0,11.111109733581543,0.00048828125,0.00054931640625)">
			<g transform="matrix(1,0,0,1,27.5,72.5)">
				<path class="st1" d="M-26.9-70.4C-26.9-70.4-26.9-70.4-26.9-70.4C-26.9-70.3-26.9-70.3-26.9-70.4C-27-70.3-27-70.3-26.9-70.4
					C-27-70.4-27-70.4-26.9-70.4z"/>
			</g>
		</g>
		<g transform="matrix(11.111109733581543,0,0,11.111109733581543,-0.00006103515625,0.00054931640625)">
			<g transform="matrix(1,0,0,1,32.5,72.5)">
				<path class="st1" d="M-31.8-70.4C-31.8-70.4-31.8-70.4-31.8-70.4C-31.8-70.3-31.8-70.3-31.8-70.4
					C-31.9-70.3-31.9-70.3-31.8-70.4C-31.9-70.4-31.9-70.4-31.8-70.4z"/>
			</g>
		</g>
		<g transform="matrix(11.111109733581543,0,0,11.111109733581543,0.0001373291015625,0.00054931640625)">
			<g transform="matrix(1,0,0,1,12.5,72.5)">
				<path class="st1" d="M-12.2-70.4C-12.2-70.3-12.2-70.3-12.2-70.4C-12.3-70.3-12.3-70.3-12.2-70.4
					C-12.3-70.4-12.3-70.4-12.2-70.4C-12.2-70.4-12.2-70.4-12.2-70.4z"/>
			</g>
		</g>
	</g>
	<g transform="matrix(1,0,0,1,0,389.0000305175781)">
		<g transform="matrix(11.111109733581543,0,0,11.111109733581543,0,-0.00006103515625)">
			<g transform="matrix(1,0,0,1,77.5,32.5)">
				<path class="st1" d="M-76-65.5C-76-65.5-76-65.5-76-65.5C-75.9-65.5-75.9-65.5-76-65.5C-75.9-65.5-75.9-65.4-76-65.5
					C-76-65.4-76-65.5-76-65.5z"/>
			</g>
		</g>
		<g transform="matrix(11.111109733581543,0,0,11.111109733581543,0.00042724609375,-0.00006103515625)">
			<g transform="matrix(1,0,0,1,82.5,32.5)">
				<path class="st1" d="M-80.9-65.5C-80.9-65.5-80.9-65.5-80.9-65.5C-80.8-65.5-80.8-65.5-80.9-65.5
					C-80.8-65.5-80.8-65.4-80.9-65.5C-80.9-65.4-80.9-65.5-80.9-65.5z"/>
			</g>
		</g>
		<g transform="matrix(11.111109733581543,0,0,11.111109733581543,-0.0001220703125,-0.00006103515625)">
			<g transform="matrix(1,0,0,1,87.5,32.5)">
				<path class="st1" d="M-85.8-65.5C-85.8-65.5-85.8-65.5-85.8-65.5C-85.7-65.5-85.7-65.5-85.8-65.5
					C-85.7-65.5-85.7-65.4-85.8-65.5C-85.8-65.4-85.8-65.5-85.8-65.5z"/>
			</g>
		</g>
	</g>
	<g transform="matrix(11.111109733581543,0,0,11.111109733581543,0.00054931640625,388.9999694824219)">
		<g transform="matrix(1,0,0,1,72.5,32.5)">
			<path class="st1" d="M-71.1-65.5C-71.1-65.5-71.1-65.5-71.1-65.5C-71-65.5-71-65.5-71.1-65.5C-71-65.5-71-65.4-71.1-65.5
				C-71.1-65.4-71.1-65.5-71.1-65.5z"/>
		</g>
	</g>
	<g transform="matrix(11.111109733581543,0,0,11.111109733581543,-0.00042724609375,388.9999694824219)">
		<g transform="matrix(1,0,0,1,17.5,32.5)">
			<path class="st1" d="M-17.2-65.5C-17.2-65.5-17.2-65.5-17.2-65.5C-17.1-65.5-17.1-65.5-17.2-65.5C-17.1-65.5-17.1-65.4-17.2-65.5
				C-17.2-65.4-17.2-65.5-17.2-65.5z"/>
		</g>
	</g>
	<g transform="matrix(1,0,0,1,0,389.0000305175781)">
		<g transform="matrix(11.111109733581543,0,0,11.111109733581543,0.0001373291015625,-0.00006103515625)">
			<g transform="matrix(1,0,0,1,12.5,32.5)">
				<path class="st1" d="M-12.2-65.5C-12.2-65.5-12.2-65.4-12.2-65.5C-12.3-65.4-12.3-65.5-12.2-65.5
					C-12.3-65.5-12.3-65.5-12.2-65.5C-12.2-65.5-12.2-65.5-12.2-65.5z"/>
			</g>
		</g>
		<g transform="matrix(11.111109733581543,0,0,11.111109733581543,-0.0003204345703125,-0.00006103515625)">
			<g transform="matrix(1,0,0,1,7.5,32.5)">
				<path class="st1" d="M-7.4-65.5C-7.4-65.5-7.4-65.5-7.4-65.5C-7.3-65.5-7.3-65.5-7.4-65.5C-7.3-65.5-7.3-65.4-7.4-65.5
					C-7.4-65.4-7.4-65.5-7.4-65.5z"/>
			</g>
		</g>
		<g transform="matrix(11.111109733581543,0,0,11.111109733581543,0.000225067138671875,-0.00006103515625)">
			<g transform="matrix(1,0,0,1,2.5,32.5)">
				<path class="st1" d="M-2.5-65.5C-2.5-65.5-2.5-65.5-2.5-65.5C-2.4-65.5-2.4-65.5-2.5-65.5C-2.4-65.5-2.4-65.4-2.5-65.5
					C-2.5-65.4-2.5-65.5-2.5-65.5z"/>
			</g>
		</g>
	</g>
	<g transform="matrix(1,0,0,1,0,334.0000305175781)">
		<g transform="matrix(11.111109733581543,0,0,11.111109733581543,0,-0.00006103515625)">
			<g transform="matrix(1,0,0,1,77.5,32.5)">
				<path class="st1" d="M-76-60.6C-76-60.6-76-60.7-76-60.6C-75.9-60.7-75.9-60.6-76-60.6C-75.9-60.6-75.9-60.6-76-60.6
					C-76-60.6-76-60.6-76-60.6z"/>
			</g>
		</g>
		<g transform="matrix(11.111109733581543,0,0,11.111109733581543,0.00042724609375,-0.00006103515625)">
			<g transform="matrix(1,0,0,1,82.5,32.5)">
				<path class="st1" d="M-80.9-60.6C-80.9-60.6-80.9-60.7-80.9-60.6C-80.8-60.7-80.8-60.6-80.9-60.6
					C-80.8-60.6-80.8-60.6-80.9-60.6C-80.9-60.6-80.9-60.6-80.9-60.6z"/>
			</g>
		</g>
		<g transform="matrix(11.111109733581543,0,0,11.111109733581543,-0.0001220703125,-0.00006103515625)">
			<g transform="matrix(1,0,0,1,87.5,32.5)">
				<path class="st1" d="M-85.8-60.6C-85.8-60.6-85.8-60.7-85.8-60.6C-85.7-60.7-85.7-60.6-85.8-60.6
					C-85.7-60.6-85.7-60.6-85.8-60.6C-85.8-60.6-85.8-60.6-85.8-60.6z"/>
			</g>
		</g>
	</g>
	<g transform="matrix(11.111109733581543,0,0,11.111109733581543,0.00054931640625,333.9999694824219)">
		<g transform="matrix(1,0,0,1,72.5,32.5)">
			<path class="st1" d="M-71.1-60.6C-71.1-60.6-71.1-60.7-71.1-60.6C-71-60.7-71-60.6-71.1-60.6C-71-60.6-71-60.6-71.1-60.6
				C-71.1-60.6-71.1-60.6-71.1-60.6z"/>
		</g>
	</g>
	<g transform="matrix(11.111109733581543,0,0,11.111109733581543,-0.00042724609375,333.9999694824219)">
		<g transform="matrix(1,0,0,1,17.5,32.5)">
			<path class="st1" d="M-17.2-60.6C-17.2-60.6-17.2-60.7-17.2-60.6C-17.1-60.7-17.1-60.6-17.2-60.6C-17.1-60.6-17.1-60.6-17.2-60.6
				C-17.2-60.6-17.2-60.6-17.2-60.6z"/>
		</g>
	</g>
	<g transform="matrix(1,0,0,1,0,334.0000305175781)">
		<g transform="matrix(11.111109733581543,0,0,11.111109733581543,0.0001373291015625,-0.00006103515625)">
			<g transform="matrix(1,0,0,1,12.5,32.5)">
				<path class="st1" d="M-12.2-60.6C-12.2-60.6-12.2-60.6-12.2-60.6C-12.3-60.6-12.3-60.6-12.2-60.6
					C-12.3-60.6-12.3-60.7-12.2-60.6C-12.2-60.7-12.2-60.7-12.2-60.6z"/>
			</g>
		</g>
		<g transform="matrix(11.111109733581543,0,0,11.111109733581543,-0.0003204345703125,-0.00006103515625)">
			<g transform="matrix(1,0,0,1,7.5,32.5)">
				<path class="st1" d="M-7.4-60.6C-7.4-60.6-7.4-60.7-7.4-60.6C-7.3-60.7-7.3-60.6-7.4-60.6C-7.3-60.6-7.3-60.6-7.4-60.6
					C-7.4-60.6-7.4-60.6-7.4-60.6z"/>
			</g>
		</g>
		<g transform="matrix(11.111109733581543,0,0,11.111109733581543,0.000225067138671875,-0.00006103515625)">
			<g transform="matrix(1,0,0,1,2.5,32.5)">
				<path class="st1" d="M-2.5-60.6C-2.5-60.6-2.5-60.7-2.5-60.6C-2.4-60.7-2.4-60.6-2.5-60.6C-2.4-60.6-2.4-60.6-2.5-60.6
					C-2.5-60.6-2.5-60.6-2.5-60.6z"/>
			</g>
		</g>
	</g>
	<g transform="matrix(1,0,0,1,0,278.0000305175781)">
		<g transform="matrix(11.111109733581543,0,0,11.111109733581543,0,-0.00006103515625)">
			<g transform="matrix(1,0,0,1,77.5,32.5)">
				<path class="st1" d="M-76-55.7C-76-55.7-76-55.7-76-55.7C-75.9-55.7-75.9-55.7-76-55.7C-75.9-55.7-75.9-55.6-76-55.7
					C-76-55.6-76-55.7-76-55.7z"/>
			</g>
		</g>
		<g transform="matrix(11.111109733581543,0,0,11.111109733581543,0.00042724609375,-0.00006103515625)">
			<g transform="matrix(1,0,0,1,82.5,32.5)">
				<path class="st1" d="M-80.9-55.7C-80.9-55.7-80.9-55.7-80.9-55.7C-80.8-55.7-80.8-55.7-80.9-55.7
					C-80.8-55.7-80.8-55.6-80.9-55.7C-80.9-55.6-80.9-55.7-80.9-55.7z"/>
			</g>
		</g>
		<g transform="matrix(11.111109733581543,0,0,11.111109733581543,-0.0001220703125,-0.00006103515625)">
			<g transform="matrix(1,0,0,1,87.5,32.5)">
				<path class="st1" d="M-85.8-55.7C-85.8-55.7-85.8-55.7-85.8-55.7C-85.7-55.7-85.7-55.7-85.8-55.7
					C-85.7-55.7-85.7-55.6-85.8-55.7C-85.8-55.6-85.8-55.7-85.8-55.7z"/>
			</g>
		</g>
	</g>
	<g transform="matrix(11.111109733581543,0,0,11.111109733581543,0.00054931640625,277.9999694824219)">
		<g transform="matrix(1,0,0,1,72.5,32.5)">
			<path class="st1" d="M-71.1-55.7C-71.1-55.7-71.1-55.7-71.1-55.7C-71-55.7-71-55.7-71.1-55.7C-71-55.7-71-55.6-71.1-55.7
				C-71.1-55.6-71.1-55.7-71.1-55.7z"/>
		</g>
	</g>
	<g transform="matrix(11.111109733581543,0,0,11.111109733581543,-0.00042724609375,277.9999694824219)">
		<g transform="matrix(1,0,0,1,17.5,32.5)">
			<path class="st1" d="M-17.2-55.7C-17.2-55.7-17.2-55.7-17.2-55.7C-17.1-55.7-17.1-55.7-17.2-55.7C-17.1-55.7-17.1-55.6-17.2-55.7
				C-17.2-55.6-17.2-55.7-17.2-55.7z"/>
		</g>
	</g>
	<g transform="matrix(1,0,0,1,0,278.0000305175781)">
		<g transform="matrix(11.111109733581543,0,0,11.111109733581543,0.0001373291015625,-0.00006103515625)">
			<g transform="matrix(1,0,0,1,12.5,32.5)">
				<path class="st1" d="M-12.2-55.7C-12.2-55.7-12.2-55.6-12.2-55.7C-12.3-55.6-12.3-55.7-12.2-55.7
					C-12.3-55.7-12.3-55.7-12.2-55.7C-12.2-55.7-12.2-55.7-12.2-55.7z"/>
			</g>
		</g>
		<g transform="matrix(11.111109733581543,0,0,11.111109733581543,-0.0003204345703125,-0.00006103515625)">
			<g transform="matrix(1,0,0,1,7.5,32.5)">
				<path class="st1" d="M-7.4-55.7C-7.4-55.7-7.4-55.7-7.4-55.7C-7.3-55.7-7.3-55.7-7.4-55.7C-7.3-55.7-7.3-55.6-7.4-55.7
					C-7.4-55.6-7.4-55.7-7.4-55.7z"/>
			</g>
		</g>
		<g transform="matrix(11.111109733581543,0,0,11.111109733581543,0.000225067138671875,-0.00006103515625)">
			<g transform="matrix(1,0,0,1,2.5,32.5)">
				<path class="st1" d="M-2.5-55.7C-2.5-55.7-2.5-55.7-2.5-55.7C-2.4-55.7-2.4-55.7-2.5-55.7C-2.4-55.7-2.4-55.6-2.5-55.7
					C-2.5-55.6-2.5-55.7-2.5-55.7z"/>
			</g>
		</g>
	</g>
	<g transform="matrix(11.111109733581543,0,0,11.111109733581543,0,167.0003662109375)">
		<g transform="matrix(1,0,0,1,77.5,37.5)">
			<path class="st1" d="M-76-50.8C-76-50.8-76-50.8-76-50.8C-75.9-50.8-75.9-50.8-76-50.8C-75.9-50.8-75.9-50.8-76-50.8
				C-76-50.7-76-50.8-76-50.8z"/>
		</g>
	</g>
	<g transform="matrix(11.111109733581543,0,0,11.111109733581543,0.00054931640625,167.0003662109375)">
		<g transform="matrix(1,0,0,1,72.5,37.5)">
			<path class="st1" d="M-71.1-50.8C-71.1-50.8-71.1-50.8-71.1-50.8C-71-50.8-71-50.8-71.1-50.8C-71-50.8-71-50.8-71.1-50.8
				C-71.1-50.7-71.1-50.8-71.1-50.8z"/>
		</g>
	</g>
	<g transform="matrix(1,0,0,1,0,167)">
		<g transform="matrix(11.111109733581543,0,0,11.111109733581543,0.00042724609375,0.0003662109375)">
			<g transform="matrix(1,0,0,1,82.5,37.5)">
				<path class="st1" d="M-80.9-50.8C-80.9-50.8-80.9-50.8-80.9-50.8C-80.8-50.8-80.8-50.8-80.9-50.8
					C-80.8-50.8-80.8-50.8-80.9-50.8C-80.9-50.7-80.9-50.8-80.9-50.8z"/>
			</g>
		</g>
		<g transform="matrix(11.111109733581543,0,0,11.111109733581543,-0.0001220703125,0.0003662109375)">
			<g transform="matrix(1,0,0,1,87.5,37.5)">
				<path class="st1" d="M-85.8-50.8C-85.8-50.8-85.8-50.8-85.8-50.8C-85.7-50.8-85.7-50.8-85.8-50.8
					C-85.7-50.8-85.7-50.8-85.8-50.8C-85.8-50.7-85.8-50.8-85.8-50.8z"/>
			</g>
		</g>
	</g>
	<g transform="matrix(11.111109733581543,0,0,11.111109733581543,0.0001373291015625,167.0003662109375)">
		<g transform="matrix(1,0,0,1,12.5,37.5)">
			<path class="st1" d="M-12.2-50.8C-12.2-50.8-12.2-50.8-12.2-50.8C-12.3-50.8-12.3-50.8-12.2-50.8C-12.3-50.8-12.3-50.8-12.2-50.8
				C-12.2-50.8-12.2-50.8-12.2-50.8z"/>
		</g>
	</g>
	<g transform="matrix(11.111109733581543,0,0,11.111109733581543,-0.00042724609375,167.0003662109375)">
		<g transform="matrix(1,0,0,1,17.5,37.5)">
			<path class="st1" d="M-17.2-50.8C-17.2-50.8-17.2-50.8-17.2-50.8C-17.1-50.8-17.1-50.8-17.2-50.8C-17.1-50.8-17.1-50.8-17.2-50.8
				C-17.2-50.7-17.2-50.8-17.2-50.8z"/>
		</g>
	</g>
	<g transform="matrix(1,0,0,1,0,167)">
		<g transform="matrix(11.111109733581543,0,0,11.111109733581543,-0.0003204345703125,0.0003662109375)">
			<g transform="matrix(1,0,0,1,7.5,37.5)">
				<path class="st1" d="M-7.4-50.8C-7.4-50.8-7.4-50.8-7.4-50.8C-7.3-50.8-7.3-50.8-7.4-50.8C-7.3-50.8-7.3-50.7-7.4-50.8
					C-7.4-50.7-7.4-50.8-7.4-50.8z"/>
			</g>
		</g>
		<g transform="matrix(11.111109733581543,0,0,11.111109733581543,0.000225067138671875,0.0003662109375)">
			<g transform="matrix(1,0,0,1,2.5,37.5)">
				<path class="st1" d="M-2.5-50.8C-2.5-50.8-2.5-50.8-2.5-50.8C-2.4-50.8-2.4-50.8-2.5-50.8C-2.4-50.8-2.4-50.7-2.5-50.8
					C-2.5-50.7-2.5-50.8-2.5-50.8z"/>
			</g>
		</g>
	</g>
	<g transform="matrix(11.111109733581543,0,0,11.111109733581543,0,111.0003662109375)">
		<g transform="matrix(1,0,0,1,77.5,37.5)">
			<path class="st1" d="M-76-45.9C-76-45.9-76-45.9-76-45.9C-75.9-45.9-75.9-45.9-76-45.9C-75.9-45.8-75.9-45.8-76-45.9
				C-76-45.8-76-45.8-76-45.9z"/>
		</g>
	</g>
	<g transform="matrix(11.111109733581543,0,0,11.111109733581543,0.00054931640625,111.0003662109375)">
		<g transform="matrix(1,0,0,1,72.5,37.5)">
			<path class="st1" d="M-71.1-45.9C-71.1-45.9-71.1-45.9-71.1-45.9C-71-45.9-71-45.9-71.1-45.9C-71-45.8-71-45.8-71.1-45.9
				C-71.1-45.8-71.1-45.8-71.1-45.9z"/>
		</g>
	</g>
	<g transform="matrix(1,0,0,1,0,111)">
		<g transform="matrix(11.111109733581543,0,0,11.111109733581543,0.00042724609375,0.0003662109375)">
			<g transform="matrix(1,0,0,1,82.5,37.5)">
				<path class="st1" d="M-80.9-45.9C-80.9-45.9-80.9-45.9-80.9-45.9C-80.8-45.9-80.8-45.9-80.9-45.9
					C-80.8-45.8-80.8-45.8-80.9-45.9C-80.9-45.8-80.9-45.8-80.9-45.9z"/>
			</g>
		</g>
		<g transform="matrix(11.111109733581543,0,0,11.111109733581543,-0.0001220703125,0.0003662109375)">
			<g transform="matrix(1,0,0,1,87.5,37.5)">
				<path class="st1" d="M-85.8-45.9C-85.8-45.9-85.8-45.9-85.8-45.9C-85.7-45.9-85.7-45.9-85.8-45.9
					C-85.7-45.8-85.7-45.8-85.8-45.9C-85.8-45.8-85.8-45.8-85.8-45.9z"/>
			</g>
		</g>
	</g>
	<g transform="matrix(11.111109733581543,0,0,11.111109733581543,0.0001373291015625,111.0003662109375)">
		<g transform="matrix(1,0,0,1,12.5,37.5)">
			<path class="st1" d="M-12.2-45.9C-12.2-45.8-12.2-45.8-12.2-45.9c-0.1,0-0.1,0-0.1,0C-12.3-45.9-12.3-45.9-12.2-45.9
				C-12.2-45.9-12.2-45.9-12.2-45.9z"/>
		</g>
	</g>
	<g transform="matrix(11.111109733581543,0,0,11.111109733581543,-0.00042724609375,111.0003662109375)">
		<g transform="matrix(1,0,0,1,17.5,37.5)">
			<path class="st1" d="M-17.2-45.9C-17.2-45.9-17.2-45.9-17.2-45.9C-17.1-45.9-17.1-45.9-17.2-45.9C-17.1-45.8-17.1-45.8-17.2-45.9
				C-17.2-45.8-17.2-45.8-17.2-45.9z"/>
		</g>
	</g>
	<g transform="matrix(1,0,0,1,0,111)">
		<g transform="matrix(11.111109733581543,0,0,11.111109733581543,-0.0003204345703125,0.0003662109375)">
			<g transform="matrix(1,0,0,1,7.5,37.5)">
				<path class="st1" d="M-7.4-45.9C-7.4-45.9-7.4-45.9-7.4-45.9c0.1,0,0.1,0,0.1,0C-7.3-45.8-7.3-45.8-7.4-45.9
					C-7.4-45.8-7.4-45.8-7.4-45.9z"/>
			</g>
		</g>
		<g transform="matrix(11.111109733581543,0,0,11.111109733581543,0.000225067138671875,0.0003662109375)">
			<g transform="matrix(1,0,0,1,2.5,37.5)">
				<path class="st1" d="M-2.5-45.9C-2.5-45.9-2.5-45.9-2.5-45.9C-2.4-45.9-2.4-45.9-2.5-45.9C-2.4-45.8-2.4-45.8-2.5-45.9
					C-2.5-45.8-2.5-45.8-2.5-45.9z"/>
			</g>
		</g>
	</g>
	<g transform="matrix(11.111109733581543,0,0,11.111109733581543,0,56.0003662109375)">
		<g transform="matrix(1,0,0,1,77.5,37.5)">
			<path class="st1" d="M-76-41C-76-41-76-41.1-76-41C-75.9-41.1-75.9-41-76-41C-75.9-41-75.9-41-76-41C-76-41-76-41-76-41z"/>
		</g>
	</g>
	<g transform="matrix(11.111109733581543,0,0,11.111109733581543,0.00054931640625,56.0003662109375)">
		<g transform="matrix(1,0,0,1,72.5,37.5)">
			<path class="st1" d="M-71.1-41C-71.1-41-71.1-41.1-71.1-41C-71-41.1-71-41-71.1-41C-71-41-71-41-71.1-41
				C-71.1-41-71.1-41-71.1-41z"/>
		</g>
	</g>
	<g transform="matrix(1,0,0,1,0,56)">
		<g transform="matrix(11.111109733581543,0,0,11.111109733581543,0.00042724609375,0.0003662109375)">
			<g transform="matrix(1,0,0,1,82.5,37.5)">
				<path class="st1" d="M-80.9-41C-80.9-41-80.9-41.1-80.9-41C-80.8-41.1-80.8-41-80.9-41C-80.8-41-80.8-41-80.9-41
					C-80.9-41-80.9-41-80.9-41z"/>
			</g>
		</g>
		<g transform="matrix(11.111109733581543,0,0,11.111109733581543,-0.0001220703125,0.0003662109375)">
			<g transform="matrix(1,0,0,1,87.5,37.5)">
				<path class="st1" d="M-85.8-41C-85.8-41-85.8-41.1-85.8-41C-85.7-41.1-85.7-41-85.8-41C-85.7-41-85.7-41-85.8-41
					C-85.8-41-85.8-41-85.8-41z"/>
			</g>
		</g>
	</g>
	<g transform="matrix(11.111109733581543,0,0,11.111109733581543,0.0001373291015625,56.0003662109375)">
		<g transform="matrix(1,0,0,1,12.5,37.5)">
			<path class="st1" d="M-12.2-41C-12.2-41-12.2-41-12.2-41c-0.1,0-0.1,0-0.1,0C-12.3-41.1-12.3-41.1-12.2-41
				C-12.2-41.1-12.2-41-12.2-41z"/>
		</g>
	</g>
	<g transform="matrix(11.111109733581543,0,0,11.111109733581543,-0.00042724609375,56.0003662109375)">
		<g transform="matrix(1,0,0,1,17.5,37.5)">
			<path class="st1" d="M-17.2-41C-17.2-41-17.2-41.1-17.2-41C-17.1-41.1-17.1-41-17.2-41C-17.1-41-17.1-41-17.2-41
				C-17.2-41-17.2-41-17.2-41z"/>
		</g>
	</g>
	<g transform="matrix(1,0,0,1,0,56)">
		<g transform="matrix(11.111109733581543,0,0,11.111109733581543,-0.0003204345703125,0.0003662109375)">
			<g transform="matrix(1,0,0,1,7.5,37.5)">
				<path class="st1" d="M-7.4-41C-7.4-41-7.4-41.1-7.4-41c0.1,0,0.1,0,0.1,0S-7.3-41-7.4-41C-7.4-41-7.4-41-7.4-41z"/>
			</g>
		</g>
		<g transform="matrix(11.111109733581543,0,0,11.111109733581543,0.000225067138671875,0.0003662109375)">
			<g transform="matrix(1,0,0,1,2.5,37.5)">
				<path class="st1" d="M-2.5-41C-2.5-41-2.5-41.1-2.5-41C-2.4-41.1-2.4-41-2.5-41C-2.4-41-2.4-41-2.5-41C-2.5-41-2.5-41-2.5-41z"
					/>
			</g>
		</g>
	</g>
	<g transform="matrix(11.111109733581543,0,0,11.111109733581543,0,0.0003662109375)">
		<g transform="matrix(1,0,0,1,77.5,37.5)">
			<path class="st1" d="M-76-36.1C-76-36.1-76-36.1-76-36.1C-75.9-36.1-75.9-36.1-76-36.1C-75.9-36-75.9-36-76-36.1
				C-76-36-76-36-76-36.1z"/>
		</g>
	</g>
	<g transform="matrix(11.111109733581543,0,0,11.111109733581543,0.00054931640625,0.0003662109375)">
		<g transform="matrix(1,0,0,1,72.5,37.5)">
			<path class="st1" d="M-71.1-36.1C-71.1-36.1-71.1-36.1-71.1-36.1C-71-36.1-71-36.1-71.1-36.1C-71-36-71-36-71.1-36.1
				C-71.1-36-71.1-36-71.1-36.1z"/>
		</g>
	</g>
	<g transform="matrix(1,0,0,1,0,0)">
		<g transform="matrix(11.111109733581543,0,0,11.111109733581543,0.00042724609375,0.0003662109375)">
			<g transform="matrix(1,0,0,1,82.5,37.5)">
				<path class="st1" d="M-80.9-36.1C-80.9-36.1-80.9-36.1-80.9-36.1C-80.8-36.1-80.8-36.1-80.9-36.1C-80.8-36-80.8-36-80.9-36.1
					C-80.9-36-80.9-36-80.9-36.1z"/>
			</g>
		</g>
		<g transform="matrix(11.111109733581543,0,0,11.111109733581543,-0.0001220703125,0.0003662109375)">
			<g transform="matrix(1,0,0,1,87.5,37.5)">
				<path class="st1" d="M-85.8-36.1C-85.8-36.1-85.8-36.1-85.8-36.1C-85.7-36.1-85.7-36.1-85.8-36.1C-85.7-36-85.7-36-85.8-36.1
					C-85.8-36-85.8-36-85.8-36.1z"/>
			</g>
		</g>
	</g>
	<g transform="matrix(11.111109733581543,0,0,11.111109733581543,0.0001373291015625,0.0003662109375)">
		<g transform="matrix(1,0,0,1,12.5,37.5)">
			<path class="st1" d="M-12.2-36.1C-12.2-36-12.2-36-12.2-36.1C-12.3-36-12.3-36-12.2-36.1C-12.3-36.1-12.3-36.1-12.2-36.1
				C-12.2-36.1-12.2-36.1-12.2-36.1z"/>
		</g>
	</g>
	<g transform="matrix(11.111109733581543,0,0,11.111109733581543,-0.00042724609375,0.0003662109375)">
		<g transform="matrix(1,0,0,1,17.5,37.5)">
			<path class="st1" d="M-17.2-36.1C-17.2-36.1-17.2-36.1-17.2-36.1C-17.1-36.1-17.1-36.1-17.2-36.1C-17.1-36-17.1-36-17.2-36.1
				C-17.2-36-17.2-36-17.2-36.1z"/>
		</g>
	</g>
	<g transform="matrix(1,0,0,1,0,0)">
		<g transform="matrix(11.111109733581543,0,0,11.111109733581543,-0.0003204345703125,0.0003662109375)">
			<g transform="matrix(1,0,0,1,7.5,37.5)">
				<path class="st1" d="M-7.4-36.1C-7.4-36.1-7.4-36.1-7.4-36.1C-7.3-36.1-7.3-36.1-7.4-36.1C-7.3-36-7.3-36-7.4-36.1
					C-7.4-36-7.4-36-7.4-36.1z"/>
			</g>
		</g>
		<g transform="matrix(11.111109733581543,0,0,11.111109733581543,0.000225067138671875,0.0003662109375)">
			<g transform="matrix(1,0,0,1,2.5,37.5)">
				<path class="st1" d="M-2.5-36.1C-2.5-36.1-2.5-36.1-2.5-36.1C-2.4-36.1-2.4-36.1-2.5-36.1C-2.4-36-2.4-36-2.5-36.1
					C-2.5-36-2.5-36-2.5-36.1z"/>
			</g>
		</g>
	</g>
	<g transform="matrix(1,0,0,1,0,0)">
		<g transform="matrix(11.111109733581543,0,0,11.111109733581543,0,-0.00006103515625)">
			<g transform="matrix(1,0,0,1,77.5,32.5)">
				<path class="st1" d="M-76-31.2C-76-31.2-76-31.2-76-31.2C-75.9-31.2-75.9-31.2-76-31.2C-75.9-31.2-75.9-31.1-76-31.2
					C-76-31.1-76-31.2-76-31.2z"/>
			</g>
		</g>
		<g transform="matrix(11.111109733581543,0,0,11.111109733581543,0.00042724609375,-0.00006103515625)">
			<g transform="matrix(1,0,0,1,82.5,32.5)">
				<path class="st1" d="M-80.9-31.2C-80.9-31.2-80.9-31.2-80.9-31.2C-80.8-31.2-80.8-31.2-80.9-31.2
					C-80.8-31.2-80.8-31.1-80.9-31.2C-80.9-31.1-80.9-31.2-80.9-31.2z"/>
			</g>
		</g>
		<g transform="matrix(11.111109733581543,0,0,11.111109733581543,-0.0001220703125,-0.00006103515625)">
			<g transform="matrix(1,0,0,1,87.5,32.5)">
				<path class="st1" d="M-85.8-31.2C-85.8-31.2-85.8-31.2-85.8-31.2C-85.7-31.2-85.7-31.2-85.8-31.2
					C-85.7-31.2-85.7-31.1-85.8-31.2C-85.8-31.1-85.8-31.2-85.8-31.2z"/>
			</g>
		</g>
	</g>
	<g transform="matrix(11.111109733581543,0,0,11.111109733581543,0.00054931640625,-0.00006103515625)">
		<g transform="matrix(1,0,0,1,72.5,32.5)">
			<path class="st1" d="M-71.1-31.2C-71.1-31.2-71.1-31.2-71.1-31.2C-71-31.2-71-31.2-71.1-31.2C-71-31.2-71-31.1-71.1-31.2
				C-71.1-31.1-71.1-31.2-71.1-31.2z"/>
		</g>
	</g>
	<g transform="matrix(11.111109733581543,0,0,11.111109733581543,-0.00042724609375,-0.00006103515625)">
		<g transform="matrix(1,0,0,1,17.5,32.5)">
			<path class="st1" d="M-17.2-31.2C-17.2-31.2-17.2-31.2-17.2-31.2C-17.1-31.2-17.1-31.2-17.2-31.2C-17.1-31.2-17.1-31.1-17.2-31.2
				C-17.2-31.1-17.2-31.2-17.2-31.2z"/>
		</g>
	</g>
	<g transform="matrix(1,0,0,1,0,0)">
		<g transform="matrix(11.111109733581543,0,0,11.111109733581543,0.0001373291015625,-0.00006103515625)">
			<g transform="matrix(1,0,0,1,12.5,32.5)">
				<path class="st1" d="M-12.2-31.2C-12.2-31.2-12.2-31.1-12.2-31.2C-12.3-31.1-12.3-31.2-12.2-31.2
					C-12.3-31.2-12.3-31.2-12.2-31.2C-12.2-31.2-12.2-31.2-12.2-31.2z"/>
			</g>
		</g>
		<g transform="matrix(11.111109733581543,0,0,11.111109733581543,-0.0003204345703125,-0.00006103515625)">
			<g transform="matrix(1,0,0,1,7.5,32.5)">
				<path class="st1" d="M-7.4-31.2C-7.4-31.2-7.4-31.2-7.4-31.2C-7.3-31.2-7.3-31.2-7.4-31.2C-7.3-31.2-7.3-31.1-7.4-31.2
					C-7.4-31.1-7.4-31.2-7.4-31.2z"/>
			</g>
		</g>
		<g transform="matrix(11.111109733581543,0,0,11.111109733581543,0.000225067138671875,-0.00006103515625)">
			<g transform="matrix(1,0,0,1,2.5,32.5)">
				<path class="st1" d="M-2.5-31.2C-2.5-31.2-2.5-31.2-2.5-31.2c0.1-0.1,0.1,0,0.1,0C-2.4-31.2-2.4-31.1-2.5-31.2
					C-2.5-31.1-2.5-31.2-2.5-31.2z"/>
			</g>
		</g>
	</g>
	<g transform="matrix(11.111109733581543,0,0,11.111109733581543,0.00054931640625,0.00048828125)">
		<g transform="matrix(1,0,0,1,72.5,27.5)">
			<path class="st1" d="M-71.1-26.3C-71.1-26.3-71.1-26.3-71.1-26.3C-71-26.3-71-26.3-71.1-26.3C-71-26.3-71-26.2-71.1-26.3
				C-71.1-26.2-71.1-26.3-71.1-26.3z"/>
		</g>
	</g>
	<g transform="matrix(11.111109733581543,0,0,11.111109733581543,0,0.00048828125)">
		<g transform="matrix(1,0,0,1,77.5,27.5)">
			<path class="st1" d="M-76-26.3C-76-26.3-76-26.3-76-26.3C-75.9-26.3-75.9-26.3-76-26.3C-75.9-26.3-75.9-26.2-76-26.3
				C-76-26.2-76-26.3-76-26.3z"/>
		</g>
	</g>
	<g transform="matrix(11.111109733581543,0,0,11.111109733581543,0.00042724609375,0.00048828125)">
		<g transform="matrix(1,0,0,1,82.5,27.5)">
			<path class="st1" d="M-80.9-26.3C-80.9-26.3-80.9-26.3-80.9-26.3C-80.8-26.3-80.8-26.3-80.9-26.3C-80.8-26.3-80.8-26.2-80.9-26.3
				C-80.9-26.2-80.9-26.3-80.9-26.3z"/>
		</g>
	</g>
	<g transform="matrix(11.111109733581543,0,0,11.111109733581543,-0.0001220703125,0.00048828125)">
		<g transform="matrix(1,0,0,1,87.5,27.5)">
			<path class="st1" d="M-85.8-26.3C-85.8-26.3-85.8-26.3-85.8-26.3C-85.7-26.3-85.7-26.3-85.8-26.3C-85.7-26.3-85.7-26.2-85.8-26.3
				C-85.8-26.2-85.8-26.3-85.8-26.3z"/>
		</g>
	</g>
	<g transform="matrix(11.111109733581543,0,0,11.111109733581543,-0.00042724609375,0.00048828125)">
		<g transform="matrix(1,0,0,1,17.5,27.5)">
			<path class="st1" d="M-17.2-26.3C-17.2-26.3-17.2-26.3-17.2-26.3C-17.1-26.3-17.1-26.3-17.2-26.3C-17.1-26.3-17.1-26.2-17.2-26.3
				C-17.2-26.2-17.2-26.3-17.2-26.3z"/>
		</g>
	</g>
	<g transform="matrix(1,0,0,1,0,0)">
		<g transform="matrix(11.111109733581543,0,0,11.111109733581543,0.0001373291015625,0.00048828125)">
			<g transform="matrix(1,0,0,1,12.5,27.5)">
				<path class="st1" d="M-12.2-26.3C-12.2-26.3-12.2-26.2-12.2-26.3C-12.3-26.2-12.3-26.3-12.2-26.3
					C-12.3-26.3-12.3-26.3-12.2-26.3C-12.2-26.3-12.2-26.3-12.2-26.3z"/>
			</g>
		</g>
		<g transform="matrix(11.111109733581543,0,0,11.111109733581543,-0.0003204345703125,0.00048828125)">
			<g transform="matrix(1,0,0,1,7.5,27.5)">
				<path class="st1" d="M-7.4-26.3C-7.4-26.3-7.4-26.3-7.4-26.3C-7.3-26.3-7.3-26.3-7.4-26.3C-7.3-26.3-7.3-26.2-7.4-26.3
					C-7.4-26.2-7.4-26.3-7.4-26.3z"/>
			</g>
		</g>
	</g>
	<g transform="matrix(11.111109733581543,0,0,11.111109733581543,0.00054931640625,0.000030517578125)">
		<g transform="matrix(1,0,0,1,72.5,22.5)">
			<path class="st1" d="M-71.1-21.4C-71.1-21.4-71.1-21.4-71.1-21.4C-71-21.4-71-21.4-71.1-21.4C-71-21.4-71-21.3-71.1-21.4
				C-71.1-21.3-71.1-21.4-71.1-21.4z"/>
		</g>
	</g>
	<g transform="matrix(1,0,0,1,0,0)">
		<g transform="matrix(11.111109733581543,0,0,11.111109733581543,0,0.000030517578125)">
			<g transform="matrix(1,0,0,1,77.5,22.5)">
				<path class="st1" d="M-76-21.4C-76-21.4-76-21.4-76-21.4C-75.9-21.4-75.9-21.4-76-21.4C-75.9-21.4-75.9-21.3-76-21.4
					C-76-21.3-76-21.4-76-21.4z"/>
			</g>
		</g>
		<g transform="matrix(11.111109733581543,0,0,11.111109733581543,0.00042724609375,0.000030517578125)">
			<g transform="matrix(1,0,0,1,82.5,22.5)">
				<path class="st1" d="M-80.9-21.4C-80.9-21.4-80.9-21.4-80.9-21.4C-80.8-21.4-80.8-21.4-80.9-21.4
					C-80.8-21.4-80.8-21.3-80.9-21.4C-80.9-21.3-80.9-21.4-80.9-21.4z"/>
			</g>
		</g>
		<g transform="matrix(11.111109733581543,0,0,11.111109733581543,-0.0001220703125,0.000030517578125)">
			<g transform="matrix(1,0,0,1,87.5,22.5)">
				<path class="st1" d="M-85.8-21.4C-85.8-21.4-85.8-21.4-85.8-21.4C-85.7-21.4-85.7-21.4-85.8-21.4
					C-85.7-21.4-85.7-21.3-85.8-21.4C-85.8-21.3-85.8-21.4-85.8-21.4z"/>
			</g>
		</g>
	</g>
	<g transform="matrix(11.111109733581543,0,0,11.111109733581543,0.0001373291015625,0.000030517578125)">
		<g transform="matrix(1,0,0,1,12.5,22.5)">
			<path class="st1" d="M-12.2-21.4C-12.2-21.4-12.2-21.3-12.2-21.4C-12.3-21.3-12.3-21.4-12.2-21.4C-12.3-21.4-12.3-21.4-12.2-21.4
				C-12.2-21.4-12.2-21.4-12.2-21.4z"/>
		</g>
	</g>
	<g transform="matrix(11.111109733581543,0,0,11.111109733581543,-0.00042724609375,0.000030517578125)">
		<g transform="matrix(1,0,0,1,17.5,22.5)">
			<path class="st1" d="M-17.2-21.4C-17.2-21.4-17.2-21.4-17.2-21.4C-17.1-21.4-17.1-21.4-17.2-21.4C-17.1-21.4-17.1-21.3-17.2-21.4
				C-17.2-21.3-17.2-21.4-17.2-21.4z"/>
		</g>
	</g>
	<g transform="matrix(11.111109733581543,0,0,11.111109733581543,0.00030517578125,-0.00042724609375)">
		<g transform="matrix(1,0,0,1,47.5,17.5)">
			<path class="st1" d="M-46.5-16.5C-46.5-16.5-46.5-16.5-46.5-16.5C-46.5-16.5-46.5-16.4-46.5-16.5C-46.6-16.4-46.6-16.5-46.5-16.5
				C-46.6-16.5-46.6-16.5-46.5-16.5z"/>
		</g>
	</g>
	<g transform="matrix(1,0,0,1,0,0)">
		<g transform="matrix(11.111109733581543,0,0,11.111109733581543,-0.000244140625,-0.00042724609375)">
			<g transform="matrix(1,0,0,1,52.5,17.5)">
				<path class="st1" d="M-51.4-16.5C-51.4-16.5-51.4-16.5-51.4-16.5C-51.4-16.5-51.4-16.4-51.4-16.5
					C-51.5-16.4-51.5-16.5-51.4-16.5C-51.5-16.5-51.5-16.5-51.4-16.5z"/>
			</g>
		</g>
		<g transform="matrix(11.111109733581543,0,0,11.111109733581543,0.00054931640625,-0.00042724609375)">
			<g transform="matrix(1,0,0,1,72.5,17.5)">
				<path class="st1" d="M-71-16.5C-71-16.5-71-16.5-71-16.5C-71-16.5-71-16.4-71-16.5C-71.1-16.4-71.1-16.5-71-16.5
					C-71.1-16.5-71.1-16.5-71-16.5z"/>
			</g>
		</g>
		<g transform="matrix(11.111109733581543,0,0,11.111109733581543,0.00018310546875,-0.00042724609375)">
			<g transform="matrix(1,0,0,1,57.5,17.5)">
				<path class="st1" d="M-56.4-16.5C-56.4-16.5-56.4-16.5-56.4-16.5C-56.3-16.5-56.3-16.5-56.4-16.5
					C-56.3-16.5-56.3-16.4-56.4-16.5C-56.4-16.4-56.4-16.5-56.4-16.5z"/>
			</g>
		</g>
		<g transform="matrix(11.111109733581543,0,0,11.111109733581543,0,-0.00042724609375)">
			<g transform="matrix(1,0,0,1,77.5,17.5)">
				<path class="st1" d="M-76-16.5C-76-16.5-76-16.5-76-16.5C-75.9-16.5-75.9-16.5-76-16.5C-75.9-16.5-75.9-16.4-76-16.5
					C-76-16.4-76-16.5-76-16.5z"/>
			</g>
		</g>
		<g transform="matrix(11.111109733581543,0,0,11.111109733581543,-0.0003662109375,-0.00042724609375)">
			<g transform="matrix(1,0,0,1,62.5,17.5)">
				<path class="st1" d="M-61.3-16.5C-61.3-16.5-61.3-16.5-61.3-16.5C-61.2-16.5-61.2-16.5-61.3-16.5
					C-61.2-16.5-61.2-16.4-61.3-16.5C-61.3-16.4-61.3-16.5-61.3-16.5z"/>
			</g>
		</g>
		<g transform="matrix(11.111109733581543,0,0,11.111109733581543,0.00042724609375,-0.00042724609375)">
			<g transform="matrix(1,0,0,1,82.5,17.5)">
				<path class="st1" d="M-80.9-16.5C-80.9-16.5-80.9-16.5-80.9-16.5C-80.8-16.5-80.8-16.5-80.9-16.5
					C-80.8-16.5-80.8-16.4-80.9-16.5C-80.9-16.4-80.9-16.5-80.9-16.5z"/>
			</g>
		</g>
		<g transform="matrix(11.111109733581543,0,0,11.111109733581543,0.0001220703125,-0.00042724609375)">
			<g transform="matrix(1,0,0,1,67.5,17.5)">
				<path class="st1" d="M-66.2-16.5C-66.2-16.5-66.2-16.5-66.2-16.5C-66.1-16.5-66.1-16.5-66.2-16.5
					C-66.1-16.5-66.1-16.4-66.2-16.5C-66.2-16.4-66.2-16.5-66.2-16.5z"/>
			</g>
		</g>
		<g transform="matrix(11.111109733581543,0,0,11.111109733581543,-0.0001220703125,-0.00042724609375)">
			<g transform="matrix(1,0,0,1,87.5,17.5)">
				<path class="st1" d="M-85.8-16.5C-85.8-16.5-85.8-16.5-85.8-16.5C-85.7-16.5-85.7-16.5-85.8-16.5
					C-85.7-16.5-85.7-16.4-85.8-16.5C-85.8-16.4-85.8-16.5-85.8-16.5z"/>
			</g>
		</g>
	</g>
	<g transform="matrix(11.111109733581543,0,0,11.111109733581543,-0.00018310546875,-0.00042724609375)">
		<g transform="matrix(1,0,0,1,42.5,17.5)">
			<path class="st1" d="M-41.6-16.5C-41.6-16.5-41.6-16.5-41.6-16.5C-41.6-16.5-41.6-16.4-41.6-16.5C-41.7-16.4-41.7-16.5-41.6-16.5
				C-41.7-16.5-41.7-16.5-41.6-16.5z"/>
		</g>
	</g>
	<g transform="matrix(1,0,0,1,0,0)">
		<g transform="matrix(11.111109733581543,0,0,11.111109733581543,-0.00042724609375,-0.00042724609375)">
			<g transform="matrix(1,0,0,1,17.5,17.5)">
				<path class="st1" d="M-17.1-16.5C-17.1-16.5-17.1-16.5-17.1-16.5C-17.1-16.5-17.1-16.4-17.1-16.5
					C-17.2-16.4-17.2-16.5-17.1-16.5C-17.2-16.5-17.2-16.5-17.1-16.5z"/>
			</g>
		</g>
		<g transform="matrix(11.111109733581543,0,0,11.111109733581543,0.000030517578125,-0.00042724609375)">
			<g transform="matrix(1,0,0,1,22.5,17.5)">
				<path class="st1" d="M-22-16.5C-22-16.5-22-16.5-22-16.5C-22-16.5-22-16.4-22-16.5C-22.1-16.4-22.1-16.5-22-16.5
					C-22.1-16.5-22.1-16.5-22-16.5z"/>
			</g>
		</g>
		<g transform="matrix(11.111109733581543,0,0,11.111109733581543,0.00048828125,-0.00042724609375)">
			<g transform="matrix(1,0,0,1,27.5,17.5)">
				<path class="st1" d="M-26.9-16.5C-26.9-16.5-26.9-16.5-26.9-16.5C-26.9-16.5-26.9-16.4-26.9-16.5C-27-16.4-27-16.5-26.9-16.5
					C-27-16.5-27-16.5-26.9-16.5z"/>
			</g>
		</g>
		<g transform="matrix(11.111109733581543,0,0,11.111109733581543,-0.00006103515625,-0.00042724609375)">
			<g transform="matrix(1,0,0,1,32.5,17.5)">
				<path class="st1" d="M-31.8-16.5C-31.8-16.5-31.8-16.5-31.8-16.5C-31.8-16.5-31.8-16.4-31.8-16.5
					C-31.9-16.4-31.9-16.5-31.8-16.5C-31.9-16.5-31.9-16.5-31.8-16.5z"/>
			</g>
		</g>
		<g transform="matrix(11.111109733581543,0,0,11.111109733581543,0.0003662109375,-0.00042724609375)">
			<g transform="matrix(1,0,0,1,37.5,17.5)">
				<path class="st1" d="M-36.7-16.5C-36.7-16.5-36.7-16.5-36.7-16.5C-36.7-16.5-36.7-16.4-36.7-16.5
					C-36.8-16.4-36.8-16.5-36.7-16.5C-36.8-16.5-36.8-16.5-36.7-16.5z"/>
			</g>
		</g>
	</g>
	<g transform="matrix(11.111109733581543,0,0,11.111109733581543,0.00030517578125,0.0001373291015625)">
		<g transform="matrix(1,0,0,1,47.5,12.5)">
			<path class="st1" d="M-46.5-11.6C-46.5-11.6-46.5-11.6-46.5-11.6C-46.5-11.6-46.5-11.5-46.5-11.6C-46.6-11.5-46.6-11.6-46.5-11.6
				C-46.6-11.6-46.6-11.6-46.5-11.6z"/>
		</g>
	</g>
	<g transform="matrix(1,0,0,1,0,0)">
		<g transform="matrix(11.111109733581543,0,0,11.111109733581543,-0.000244140625,0.0001373291015625)">
			<g transform="matrix(1,0,0,1,52.5,12.5)">
				<path class="st1" d="M-51.4-11.6C-51.4-11.6-51.4-11.6-51.4-11.6C-51.4-11.6-51.4-11.5-51.4-11.6
					C-51.5-11.5-51.5-11.6-51.4-11.6C-51.5-11.6-51.5-11.6-51.4-11.6z"/>
			</g>
		</g>
		<g transform="matrix(11.111109733581543,0,0,11.111109733581543,0.00054931640625,0.0001373291015625)">
			<g transform="matrix(1,0,0,1,72.5,12.5)">
				<path class="st1" d="M-71-11.6C-71-11.6-71-11.6-71-11.6C-71-11.6-71-11.5-71-11.6C-71.1-11.5-71.1-11.6-71-11.6
					C-71.1-11.6-71.1-11.6-71-11.6z"/>
			</g>
		</g>
		<g transform="matrix(11.111109733581543,0,0,11.111109733581543,0.00018310546875,0.0001373291015625)">
			<g transform="matrix(1,0,0,1,57.5,12.5)">
				<path class="st1" d="M-56.3-11.6C-56.3-11.6-56.3-11.6-56.3-11.6C-56.3-11.6-56.3-11.5-56.3-11.6
					C-56.4-11.5-56.4-11.6-56.3-11.6C-56.4-11.6-56.4-11.6-56.3-11.6z"/>
			</g>
		</g>
		<g transform="matrix(11.111109733581543,0,0,11.111109733581543,0,0.0001373291015625)">
			<g transform="matrix(1,0,0,1,77.5,12.5)">
				<path class="st1" d="M-75.9-11.6C-75.9-11.6-75.9-11.6-75.9-11.6C-75.9-11.6-75.9-11.5-75.9-11.6C-76-11.5-76-11.6-75.9-11.6
					C-76-11.6-76-11.6-75.9-11.6z"/>
			</g>
		</g>
		<g transform="matrix(11.111109733581543,0,0,11.111109733581543,-0.0003662109375,0.0001373291015625)">
			<g transform="matrix(1,0,0,1,62.5,12.5)">
				<path class="st1" d="M-61.2-11.6C-61.2-11.6-61.2-11.6-61.2-11.6C-61.2-11.6-61.2-11.5-61.2-11.6
					C-61.3-11.5-61.3-11.6-61.2-11.6C-61.3-11.6-61.3-11.6-61.2-11.6z"/>
			</g>
		</g>
		<g transform="matrix(11.111109733581543,0,0,11.111109733581543,0.00042724609375,0.0001373291015625)">
			<g transform="matrix(1,0,0,1,82.5,12.5)">
				<path class="st1" d="M-80.8-11.6C-80.8-11.6-80.8-11.6-80.8-11.6C-80.8-11.6-80.8-11.5-80.8-11.6
					C-80.9-11.5-80.9-11.6-80.8-11.6C-80.9-11.6-80.9-11.6-80.8-11.6z"/>
			</g>
		</g>
		<g transform="matrix(11.111109733581543,0,0,11.111109733581543,0.0001220703125,0.0001373291015625)">
			<g transform="matrix(1,0,0,1,67.5,12.5)">
				<path class="st1" d="M-66.1-11.6C-66.1-11.6-66.1-11.6-66.1-11.6C-66.1-11.6-66.1-11.5-66.1-11.6
					C-66.2-11.5-66.2-11.6-66.1-11.6C-66.2-11.6-66.2-11.6-66.1-11.6z"/>
			</g>
		</g>
		<g transform="matrix(11.111109733581543,0,0,11.111109733581543,-0.0001220703125,0.0001373291015625)">
			<g transform="matrix(1,0,0,1,87.5,12.5)">
				<path class="st1" d="M-85.7-11.6C-85.7-11.6-85.7-11.6-85.7-11.6C-85.7-11.6-85.7-11.5-85.7-11.6
					C-85.8-11.5-85.8-11.6-85.7-11.6C-85.8-11.6-85.8-11.6-85.7-11.6z"/>
			</g>
		</g>
	</g>
	<g transform="matrix(11.111109733581543,0,0,11.111109733581543,-0.00018310546875,0.0001373291015625)">
		<g transform="matrix(1,0,0,1,42.5,12.5)">
			<path class="st1" d="M-41.6-11.6C-41.6-11.6-41.6-11.6-41.6-11.6C-41.6-11.6-41.6-11.5-41.6-11.6C-41.7-11.5-41.7-11.6-41.6-11.6
				C-41.7-11.6-41.7-11.6-41.6-11.6z"/>
		</g>
	</g>
	<g transform="matrix(1,0,0,1,0,0)">
		<g transform="matrix(11.111109733581543,0,0,11.111109733581543,0.000030517578125,0.0001373291015625)">
			<g transform="matrix(1,0,0,1,22.5,12.5)">
				<path class="st1" d="M-22-11.6C-22-11.6-22-11.6-22-11.6C-22-11.6-22-11.5-22-11.6C-22.1-11.5-22.1-11.6-22-11.6
					C-22.1-11.6-22.1-11.6-22-11.6z"/>
			</g>
		</g>
		<g transform="matrix(11.111109733581543,0,0,11.111109733581543,0.00048828125,0.0001373291015625)">
			<g transform="matrix(1,0,0,1,27.5,12.5)">
				<path class="st1" d="M-26.9-11.6C-26.9-11.6-26.9-11.6-26.9-11.6C-26.9-11.6-26.9-11.5-26.9-11.6C-27-11.5-27-11.6-26.9-11.6
					C-27-11.6-27-11.6-26.9-11.6z"/>
			</g>
		</g>
		<g transform="matrix(11.111109733581543,0,0,11.111109733581543,-0.00006103515625,0.0001373291015625)">
			<g transform="matrix(1,0,0,1,32.5,12.5)">
				<path class="st1" d="M-31.8-11.6C-31.8-11.6-31.8-11.6-31.8-11.6C-31.8-11.6-31.8-11.5-31.8-11.6
					C-31.9-11.5-31.9-11.6-31.8-11.6C-31.9-11.6-31.9-11.6-31.8-11.6z"/>
			</g>
		</g>
		<g transform="matrix(11.111109733581543,0,0,11.111109733581543,0.0003662109375,0.0001373291015625)">
			<g transform="matrix(1,0,0,1,37.5,12.5)">
				<path class="st1" d="M-36.7-11.6C-36.7-11.6-36.7-11.6-36.7-11.6C-36.7-11.6-36.7-11.5-36.7-11.6
					C-36.8-11.5-36.8-11.6-36.7-11.6C-36.8-11.6-36.8-11.6-36.7-11.6z"/>
			</g>
		</g>
	</g>
	<g transform="matrix(11.111109733581543,0,0,11.111109733581543,0.00030517578125,-0.0003204345703125)">
		<g transform="matrix(1,0,0,1,47.5,7.5)">
			<path class="st1" d="M-46.5-6.7C-46.5-6.7-46.5-6.7-46.5-6.7C-46.5-6.7-46.5-6.6-46.5-6.7C-46.6-6.6-46.6-6.7-46.5-6.7
				C-46.6-6.7-46.6-6.7-46.5-6.7z"/>
		</g>
	</g>
	<g transform="matrix(1,0,0,1,0,0)">
		<g transform="matrix(11.111109733581543,0,0,11.111109733581543,-0.000244140625,-0.0003204345703125)">
			<g transform="matrix(1,0,0,1,52.5,7.5)">
				<path class="st1" d="M-51.4-6.7C-51.4-6.7-51.4-6.7-51.4-6.7C-51.4-6.7-51.4-6.6-51.4-6.7C-51.5-6.6-51.5-6.7-51.4-6.7
					C-51.5-6.7-51.5-6.7-51.4-6.7z"/>
			</g>
		</g>
		<g transform="matrix(11.111109733581543,0,0,11.111109733581543,0.00054931640625,-0.0003204345703125)">
			<g transform="matrix(1,0,0,1,72.5,7.5)">
				<path class="st1" d="M-71-6.7C-71-6.7-71-6.7-71-6.7C-71-6.7-71-6.6-71-6.7C-71.1-6.6-71.1-6.7-71-6.7
					C-71.1-6.7-71.1-6.7-71-6.7z"/>
			</g>
		</g>
		<g transform="matrix(11.111109733581543,0,0,11.111109733581543,0.00018310546875,-0.0003204345703125)">
			<g transform="matrix(1,0,0,1,57.5,7.5)">
				<path class="st1" d="M-56.3-6.7C-56.3-6.7-56.3-6.7-56.3-6.7C-56.3-6.7-56.3-6.6-56.3-6.7C-56.4-6.6-56.4-6.7-56.3-6.7
					C-56.4-6.7-56.4-6.7-56.3-6.7z"/>
			</g>
		</g>
		<g transform="matrix(11.111109733581543,0,0,11.111109733581543,0,-0.0003204345703125)">
			<g transform="matrix(1,0,0,1,77.5,7.5)">
				<path class="st1" d="M-75.9-6.7C-75.9-6.7-75.9-6.7-75.9-6.7C-75.9-6.7-75.9-6.6-75.9-6.7C-76-6.6-76-6.7-75.9-6.7
					C-76-6.7-76-6.7-75.9-6.7z"/>
			</g>
		</g>
		<g transform="matrix(11.111109733581543,0,0,11.111109733581543,-0.0003662109375,-0.0003204345703125)">
			<g transform="matrix(1,0,0,1,62.5,7.5)">
				<path class="st1" d="M-61.2-6.7C-61.2-6.7-61.2-6.7-61.2-6.7C-61.2-6.7-61.2-6.6-61.2-6.7C-61.3-6.6-61.3-6.7-61.2-6.7
					C-61.3-6.7-61.3-6.7-61.2-6.7z"/>
			</g>
		</g>
		<g transform="matrix(11.111109733581543,0,0,11.111109733581543,0.00042724609375,-0.0003204345703125)">
			<g transform="matrix(1,0,0,1,82.5,7.5)">
				<path class="st1" d="M-80.8-6.7C-80.8-6.7-80.8-6.7-80.8-6.7C-80.8-6.7-80.8-6.6-80.8-6.7C-80.9-6.6-80.9-6.7-80.8-6.7
					C-80.9-6.7-80.9-6.7-80.8-6.7z"/>
			</g>
		</g>
		<g transform="matrix(11.111109733581543,0,0,11.111109733581543,0.0001220703125,-0.0003204345703125)">
			<g transform="matrix(1,0,0,1,67.5,7.5)">
				<path class="st1" d="M-66.1-6.7C-66.1-6.7-66.1-6.7-66.1-6.7C-66.1-6.7-66.1-6.6-66.1-6.7C-66.2-6.6-66.2-6.7-66.1-6.7
					C-66.2-6.7-66.2-6.7-66.1-6.7z"/>
			</g>
		</g>
		<g transform="matrix(11.111109733581543,0,0,11.111109733581543,-0.0001220703125,-0.0003204345703125)">
			<g transform="matrix(1,0,0,1,87.5,7.5)">
				<path class="st1" d="M-85.7-6.7C-85.7-6.7-85.7-6.7-85.7-6.7C-85.7-6.7-85.7-6.6-85.7-6.7C-85.8-6.6-85.8-6.7-85.7-6.7
					C-85.8-6.7-85.8-6.7-85.7-6.7z"/>
			</g>
		</g>
	</g>
	<g transform="matrix(1,0,0,1,0,0)">
		<g transform="matrix(11.111109733581543,0,0,11.111109733581543,0.00048828125,-0.0003204345703125)">
			<g transform="matrix(1,0,0,1,27.5,7.5)">
				<path class="st1" d="M-26.9-6.7C-26.9-6.7-26.9-6.7-26.9-6.7C-26.9-6.7-26.9-6.6-26.9-6.7C-27-6.6-27-6.7-26.9-6.7
					C-27-6.7-27-6.7-26.9-6.7z"/>
			</g>
		</g>
		<g transform="matrix(11.111109733581543,0,0,11.111109733581543,-0.00006103515625,-0.0003204345703125)">
			<g transform="matrix(1,0,0,1,32.5,7.5)">
				<path class="st1" d="M-31.8-6.7C-31.8-6.7-31.8-6.7-31.8-6.7C-31.8-6.7-31.8-6.6-31.8-6.7C-31.9-6.6-31.9-6.7-31.8-6.7
					C-31.9-6.7-31.9-6.7-31.8-6.7z"/>
			</g>
		</g>
		<g transform="matrix(11.111109733581543,0,0,11.111109733581543,0.0003662109375,-0.0003204345703125)">
			<g transform="matrix(1,0,0,1,37.5,7.5)">
				<path class="st1" d="M-36.7-6.7C-36.7-6.7-36.7-6.7-36.7-6.7C-36.7-6.7-36.7-6.6-36.7-6.7C-36.8-6.6-36.8-6.7-36.7-6.7
					C-36.8-6.7-36.8-6.7-36.7-6.7z"/>
			</g>
		</g>
	</g>
	<g transform="matrix(11.111109733581543,0,0,11.111109733581543,-0.00018310546875,-0.0003204345703125)">
		<g transform="matrix(1,0,0,1,42.5,7.5)">
			<path class="st1" d="M-41.6-6.7C-41.6-6.7-41.6-6.7-41.6-6.7C-41.6-6.7-41.6-6.6-41.6-6.7C-41.7-6.6-41.7-6.7-41.6-6.7
				C-41.7-6.7-41.7-6.7-41.6-6.7z"/>
		</g>
	</g>
	<g transform="matrix(1,0,0,1,0,0)">
		<g transform="matrix(11.111109733581543,0,0,11.111109733581543,0.00054931640625,0.000225067138671875)">
			<g transform="matrix(1,0,0,1,72.5,2.5)">
				<path class="st1" d="M-71-1.8C-71-1.8-71-1.8-71-1.8C-71-1.8-71-1.7-71-1.8C-71.1-1.7-71.1-1.8-71-1.8
					C-71.1-1.8-71.1-1.8-71-1.8z"/>
			</g>
		</g>
		<g transform="matrix(11.111109733581543,0,0,11.111109733581543,0,0.000225067138671875)">
			<g transform="matrix(1,0,0,1,77.5,2.5)">
				<path class="st1" d="M-75.9-1.8C-75.9-1.8-75.9-1.8-75.9-1.8C-75.9-1.8-75.9-1.7-75.9-1.8C-76-1.7-76-1.8-75.9-1.8
					C-76-1.8-76-1.8-75.9-1.8z"/>
			</g>
		</g>
		<g transform="matrix(11.111109733581543,0,0,11.111109733581543,0.00042724609375,0.000225067138671875)">
			<g transform="matrix(1,0,0,1,82.5,2.5)">
				<path class="st1" d="M-80.8-1.8C-80.8-1.8-80.8-1.8-80.8-1.8C-80.8-1.8-80.8-1.7-80.8-1.8C-80.9-1.7-80.9-1.8-80.8-1.8
					C-80.9-1.8-80.9-1.8-80.8-1.8z"/>
			</g>
		</g>
		<g transform="matrix(11.111109733581543,0,0,11.111109733581543,-0.0001220703125,0.000225067138671875)">
			<g transform="matrix(1,0,0,1,87.5,2.5)">
				<path class="st1" d="M-85.7-1.8C-85.7-1.8-85.7-1.8-85.7-1.8C-85.7-1.8-85.7-1.7-85.7-1.8C-85.8-1.7-85.8-1.8-85.7-1.8
					C-85.8-1.8-85.8-1.8-85.7-1.8z"/>
			</g>
		</g>
	</g>
	<g transform="matrix(11.111109733581543,0,0,11.111109733581543,0.00030517578125,0.000225067138671875)">
		<g transform="matrix(1,0,0,1,47.5,2.5)">
			<path class="st1" d="M-46.5-1.8C-46.5-1.8-46.5-1.8-46.5-1.8C-46.5-1.8-46.5-1.7-46.5-1.8C-46.6-1.7-46.6-1.8-46.5-1.8
				C-46.6-1.8-46.6-1.8-46.5-1.8z"/>
		</g>
	</g>
	<g transform="matrix(1,0,0,1,0,0)">
		<g transform="matrix(11.111109733581543,0,0,11.111109733581543,-0.000244140625,0.000225067138671875)">
			<g transform="matrix(1,0,0,1,52.5,2.5)">
				<path class="st1" d="M-51.4-1.8C-51.4-1.8-51.4-1.8-51.4-1.8C-51.4-1.8-51.4-1.7-51.4-1.8C-51.5-1.7-51.5-1.8-51.4-1.8
					C-51.5-1.8-51.5-1.8-51.4-1.8z"/>
			</g>
		</g>
		<g transform="matrix(11.111109733581543,0,0,11.111109733581543,0.00018310546875,0.000225067138671875)">
			<g transform="matrix(1,0,0,1,57.5,2.5)">
				<path class="st1" d="M-56.3-1.8C-56.3-1.8-56.3-1.8-56.3-1.8C-56.3-1.8-56.3-1.7-56.3-1.8C-56.4-1.7-56.4-1.8-56.3-1.8
					C-56.4-1.8-56.4-1.8-56.3-1.8z"/>
			</g>
		</g>
		<g transform="matrix(11.111109733581543,0,0,11.111109733581543,-0.0003662109375,0.000225067138671875)">
			<g transform="matrix(1,0,0,1,62.5,2.5)">
				<path class="st1" d="M-61.2-1.8C-61.2-1.8-61.2-1.8-61.2-1.8C-61.2-1.8-61.2-1.7-61.2-1.8C-61.3-1.7-61.3-1.8-61.2-1.8
					C-61.3-1.8-61.3-1.8-61.2-1.8z"/>
			</g>
		</g>
		<g transform="matrix(11.111109733581543,0,0,11.111109733581543,0.0001220703125,0.000225067138671875)">
			<g transform="matrix(1,0,0,1,67.5,2.5)">
				<path class="st1" d="M-66.1-1.8C-66.1-1.8-66.1-1.8-66.1-1.8C-66.1-1.8-66.1-1.7-66.1-1.8C-66.2-1.7-66.2-1.8-66.1-1.8
					C-66.2-1.8-66.2-1.8-66.1-1.8z"/>
			</g>
		</g>
	</g>
	<g transform="matrix(1,0,0,1,0,0)">
		<g transform="matrix(11.111109733581543,0,0,11.111109733581543,-0.00006103515625,0.000225067138671875)">
			<g transform="matrix(1,0,0,1,32.5,2.5)">
				<path class="st1" d="M-31.8-1.8C-31.8-1.8-31.8-1.8-31.8-1.8C-31.8-1.8-31.8-1.7-31.8-1.8C-31.9-1.7-31.9-1.8-31.8-1.8
					C-31.9-1.8-31.9-1.8-31.8-1.8z"/>
			</g>
		</g>
		<g transform="matrix(11.111109733581543,0,0,11.111109733581543,0.0003662109375,0.000225067138671875)">
			<g transform="matrix(1,0,0,1,37.5,2.5)">
				<path class="st1" d="M-36.7-1.8C-36.7-1.8-36.7-1.8-36.7-1.8C-36.7-1.8-36.7-1.7-36.7-1.8C-36.8-1.7-36.8-1.8-36.7-1.8
					C-36.8-1.8-36.8-1.8-36.7-1.8z"/>
			</g>
		</g>
	</g>
	<g transform="matrix(11.111109733581543,0,0,11.111109733581543,-0.00018310546875,0.000225067138671875)">
		<g transform="matrix(1,0,0,1,42.5,2.5)">
			<path class="st1" d="M-41.6-1.8C-41.6-1.8-41.6-1.8-41.6-1.8C-41.6-1.8-41.6-1.7-41.6-1.8C-41.7-1.7-41.7-1.8-41.6-1.8
				C-41.7-1.8-41.7-1.8-41.6-1.8z"/>
		</g>
	</g>
	<g>
		<path class="st1" d="M47.1,27.6c-0.9,0-1.8-0.2-2.6-0.6c-0.8-0.4-1.5-0.9-2-1.6v1.9h-2.9V7.4h2.9v8.1c0.5-0.6,1.2-1.1,1.9-1.5
			c0.8-0.4,1.6-0.6,2.6-0.6c0.9,0,1.7,0.2,2.6,0.5c0.8,0.3,1.5,0.8,2.2,1.4c0.6,0.6,1.1,1.4,1.5,2.2c0.4,0.9,0.6,1.8,0.6,2.9
			s-0.2,2.1-0.6,2.9c-0.4,0.9-0.9,1.6-1.5,2.2c-0.6,0.6-1.3,1.1-2.2,1.4C48.9,27.4,48,27.6,47.1,27.6z M46.7,24.9
			c0.6,0,1.2-0.1,1.7-0.3c0.5-0.2,1-0.5,1.4-0.9c0.4-0.4,0.7-0.9,0.9-1.4c0.2-0.5,0.3-1.1,0.3-1.7s-0.1-1.2-0.3-1.7
			c-0.2-0.5-0.5-1-0.9-1.4c-0.4-0.4-0.9-0.7-1.4-0.9c-0.5-0.2-1.1-0.3-1.7-0.3c-0.6,0-1.2,0.1-1.7,0.4c-0.5,0.2-1,0.6-1.3,1
			c-0.4,0.4-0.7,0.9-0.9,1.4c-0.2,0.5-0.3,1.1-0.3,1.7c0,0.6,0.1,1.2,0.3,1.7c0.2,0.5,0.5,1,0.9,1.4c0.4,0.4,0.8,0.7,1.3,1
			C45.5,24.8,46.1,24.9,46.7,24.9z"/>
		<path class="st1" d="M68.9,27.1c-0.8-0.3-1.5-0.8-2.2-1.4c-0.6-0.6-1.1-1.3-1.5-2.2c-0.4-0.9-0.6-1.8-0.6-2.9s0.2-2.1,0.6-2.9
			c0.4-0.9,0.9-1.6,1.5-2.2c0.6-0.6,1.3-1.1,2.2-1.4c0.8-0.3,1.7-0.5,2.6-0.5c0.9,0,1.8,0.2,2.6,0.6c0.8,0.4,1.4,0.9,1.9,1.5V7.4
			h2.9v19.9H76v-1.9c-0.5,0.7-1.2,1.2-2,1.6c-0.8,0.4-1.7,0.6-2.6,0.6C70.6,27.6,69.7,27.4,68.9,27.1z M73.6,24.6
			c0.5-0.2,1-0.6,1.3-1c0.4-0.4,0.7-0.9,0.9-1.4c0.2-0.5,0.3-1.1,0.3-1.7c0-0.6-0.1-1.2-0.3-1.7s-0.5-1-0.9-1.4
			c-0.4-0.4-0.8-0.7-1.3-1s-1.1-0.4-1.7-0.4c-0.6,0-1.2,0.1-1.7,0.3c-0.5,0.2-1,0.5-1.4,0.9c-0.4,0.4-0.7,0.9-0.9,1.4
			c-0.2,0.5-0.3,1.1-0.3,1.7s0.1,1.2,0.3,1.7c0.2,0.5,0.5,1,0.9,1.4c0.4,0.4,0.9,0.7,1.4,0.9c0.5,0.2,1.1,0.3,1.7,0.3
			C72.5,24.9,73.1,24.8,73.6,24.6z"/>
		<path class="st1" d="M55.9,13.4h2.9v2.1c0.4-0.7,0.9-1.2,1.5-1.6c0.6-0.4,1.4-0.5,2.3-0.5h1.6v2.8h-2c-1.2,0-2.1,0.3-2.6,1
			c-0.5,0.7-0.7,1.7-0.7,3.1l0,7.1h-3L55.9,13.4L55.9,13.4z"/>
		<path class="st1" d="M87.9,16.4c2.2,0,4,1.8,4,4v3.9v3h3v-6.9c0-3.9-3.2-7.1-7.1-7.1s-7.1,3.2-7.1,7.1v6.9h3v-6.9
			C83.9,18.2,85.7,16.4,87.9,16.4z"/>
		<path class="st1" d="M37.2,17.7c-0.4-0.9-0.9-1.6-1.5-2.3c-0.6-0.6-1.4-1.1-2.2-1.5c-0.9-0.4-1.8-0.5-2.8-0.5
			c-1,0-1.9,0.2-2.8,0.5c-0.9,0.4-1.6,0.9-2.3,1.5c-0.6,0.6-1.1,1.4-1.5,2.3c-0.4,0.9-0.5,1.8-0.5,2.8c0,1,0.2,1.9,0.5,2.8
			c0.4,0.9,0.9,1.6,1.5,2.2c0.6,0.6,1.4,1.1,2.2,1.5c0.9,0.4,1.8,0.5,2.7,0.5c0.9,0,1.7-0.2,2.4-0.5c0.7-0.4,1.3-0.9,1.8-1.5v1.8
			h2.9v-6.8C37.7,19.5,37.5,18.6,37.2,17.7z M34.5,22.2c-0.2,0.5-0.5,1-0.9,1.4c-0.4,0.4-0.9,0.7-1.4,0.9c-0.5,0.2-1.1,0.3-1.7,0.3
			c-0.6,0-1.2-0.1-1.7-0.4c-0.5-0.2-1-0.6-1.3-1c-0.4-0.4-0.7-0.9-0.9-1.4c-0.2-0.5-0.3-1.1-0.3-1.7c0-0.6,0.1-1.2,0.3-1.7
			c0.2-0.5,0.5-1,0.9-1.4c0.4-0.4,0.8-0.7,1.3-1s1.1-0.4,1.7-0.4c0.6,0,1.2,0.1,1.7,0.3c0.5,0.2,1,0.5,1.4,0.9
			c0.4,0.4,0.7,0.9,0.9,1.4c0.2,0.5,0.3,1.1,0.3,1.7C34.8,21.1,34.7,21.7,34.5,22.2z"/>
	</g>
</g>
</svg>
