<?xml version="1.0" encoding="utf-8"?>
<!-- Generator: Adobe Illustrator 26.0.1, SVG Export Plug-In . SVG Version: 6.00 Build 0)  -->
<svg version="1.1" id="Layer_1" xmlns="http://www.w3.org/2000/svg" xmlns:xlink="http://www.w3.org/1999/xlink" x="0px" y="0px"
	 viewBox="0 0 95 35" style="enable-background:new 0 0 95 35;" xml:space="preserve">
<style type="text/css">
	.st0{fill:#104076;}
	.st1{fill:#343741;}
</style>
<path class="st0" d="M-39.1,613.7"/>
<g id="layer1" transform="translate(-222.40884,-398.65061)">
	<path id="path19" class="st1" d="M292.1,402.8v3.8c-0.2,0.1-0.4,0.1-0.7,0.1c-1.2,0-1.9-0.9-1.9-2c0-1.2,0.8-2,1.9-2
		C291.7,402.7,291.9,402.8,292.1,402.8z M291.3,407.9c1,0,1.8-0.2,2.4-0.5v-8.8h-1.5v2.9c-0.2,0-0.5-0.1-0.8-0.1
		c-2,0-3.4,1.3-3.4,3.2C288,406.8,289.5,407.9,291.3,407.9z M284.3,402.7c0.8,0,1.1,0.7,1.2,1.3h-2.4
		C283.1,403.4,283.6,402.7,284.3,402.7z M283.2,405.1h3.9v-0.4c0-1.9-1.1-3.2-2.7-3.2c-1.7,0-2.8,1.5-2.8,3.2c0,1.6,0.9,3.2,3,3.2
		c0.7,0,1.5-0.2,2.2-0.7l-0.4-1c-0.5,0.3-1,0.4-1.6,0.4C283.9,406.7,283.2,406.1,283.2,405.1z M279,407.9c0.6,0,1.4-0.2,2-0.7
		l-0.4-1c-0.2,0.2-0.6,0.3-1,0.3c-0.4,0-0.6-0.2-0.6-0.7v-3.1h1.5l0.4-1.2H279v-1.9l-1.5,0.5v1.4h-1.1v1.2h1.1v3.6
		C277.5,407.3,277.9,407.9,279,407.9z M273.9,405v1.3c-0.2,0.2-0.6,0.4-1.1,0.4c-0.6,0-1-0.3-1-0.9c0-0.5,0.4-0.8,1.2-0.8L273.9,405
		z M274.3,407.8h1.3c-0.1-0.3-0.1-0.7-0.1-1.6v-2.4c0-1.6-0.9-2.2-2.4-2.2c-0.8,0-1.6,0.1-2.4,0.7l0.5,0.9c0.4-0.2,0.9-0.4,1.6-0.4
		c0.6,0,1.2,0.3,1.2,1.1v0.2l-1.1,0c-1.6,0.1-2.6,0.7-2.6,2c0,1.2,0.9,2,2,2c0.8,0,1.4-0.3,1.8-0.7L274.3,407.8z M267.7,407.8h1.5
		v-6.1h-1.5V407.8z M268.4,400.5c0.5,0,1-0.4,1-0.9c0-0.5-0.4-0.9-1-0.9c-0.5,0-0.9,0.4-0.9,0.9
		C267.5,400.1,267.9,400.5,268.4,400.5z M264.5,407.9c0.8,0,1.7-0.3,2.1-0.7l-0.4-1c-0.4,0.3-0.9,0.4-1.5,0.4c-1.2,0-1.8-0.9-1.8-2
		c0-1.1,0.8-2,1.8-2c0.6,0,1.1,0.1,1.5,0.4V402c-0.3-0.2-0.9-0.4-1.7-0.4c-1.8,0-3.2,1.4-3.2,3.2
		C261.5,406.5,262.5,407.9,264.5,407.9z M257.5,402.7c0.9,0,1.5,0.9,1.5,2c0,1.1-0.5,2-1.5,2c-0.9,0-1.5-0.8-1.5-2
		C256,403.6,256.5,402.7,257.5,402.7z M259.7,407c0.6-0.6,0.9-1.4,0.9-2.3c0-0.9-0.3-1.7-0.8-2.3c-0.5-0.6-1.3-0.9-2.2-0.9
		c-0.9,0-1.6,0.3-2.2,0.9c-0.6,0.6-0.9,1.4-0.9,2.4c0,1,0.3,1.8,0.9,2.4c0.5,0.5,1.3,0.8,2.1,0.8C258.4,407.9,259.2,407.6,259.7,407
		z M251.1,407.9c1.3,0,2.5-0.5,2.5-1.9c0-1-0.7-1.5-1.4-1.8l-0.5-0.2c-0.2-0.1-0.3-0.1-0.5-0.2c-0.3-0.1-0.4-0.3-0.4-0.5
		c0-0.4,0.3-0.6,0.9-0.6c0.3,0,0.6,0.1,0.9,0.1l0.4,0.1l0.4,0.2v-1.3c-0.5-0.2-1-0.3-1.8-0.3c-1.5,0-2.3,0.8-2.3,1.8
		c0,1,0.7,1.5,1.4,1.7l0.5,0.2c0.2,0.1,0.3,0.1,0.4,0.2c0.3,0.2,0.4,0.3,0.4,0.6c0,0.4-0.4,0.6-1,0.6c-0.6,0-1.2-0.2-1.6-0.5
		l-0.5,1.1C249.4,407.7,250.1,407.9,251.1,407.9z M245.7,407.9c1.3,0,2.5-0.5,2.5-1.9c0-1-0.7-1.5-1.4-1.8l-0.5-0.2
		c-0.2-0.1-0.3-0.1-0.5-0.2c-0.3-0.1-0.4-0.3-0.4-0.5c0-0.4,0.3-0.6,0.9-0.6c0.3,0,0.6,0.1,0.9,0.1l0.4,0.1l0.4,0.2v-1.3
		c-0.5-0.2-1-0.3-1.8-0.3c-1.5,0-2.3,0.8-2.3,1.8c0,1,0.7,1.5,1.4,1.7l0.5,0.2c0.2,0.1,0.3,0.1,0.4,0.2c0.3,0.2,0.4,0.3,0.4,0.6
		c0,0.4-0.4,0.6-1,0.6c-0.6,0-1.2-0.2-1.6-0.5l-0.5,1.1C244,407.7,244.7,407.9,245.7,407.9z M238.3,415.5c0.9,0,1.5,0.4,1.5,1.1
		c0,0.8-0.5,1.2-1.6,1.2h-1v-2.3H238.3L238.3,415.5z M238,412c0.9,0,1.3,0.4,1.3,1.1c0,0.7-0.6,1.1-1.1,1.1h-0.9V412H238L238,412z
		 M238.4,419.1c2.1,0,3-1.3,3-2.6c0-1-0.7-1.8-1.6-2v0c0.7-0.3,1.1-1,1.1-1.8c0-1-0.8-2.1-2.5-2.1h-2.7v8.5H238.4z M245.9,414.5
		l0.5-1.3c-0.2-0.2-0.5-0.3-0.8-0.3c-0.6,0-1.1,0.2-1.7,0.8l-0.2-0.6h-1.3v6.1h1.5v-4.3c0.4-0.4,0.8-0.5,1.2-0.5
		C245.4,414.3,245.6,414.3,245.9,414.5z M247.4,419.1h1.5V413h-1.5V419.1z M248.2,411.9c0.5,0,1-0.4,1-0.9c0-0.5-0.4-0.9-1-0.9
		c-0.5,0-0.9,0.4-0.9,0.9C247.2,411.5,247.6,411.9,248.2,411.9z M252.6,419.3c0.6,0,1.4-0.1,2-0.6l-0.4-1.1c-0.2,0.2-0.6,0.3-1,0.3
		c-0.4,0-0.6-0.2-0.6-0.7v-3.1h1.5l0.4-1.2h-1.9v-1.9l-1.5,0.5v1.4H250v1.2h1.1v3.6C251.1,418.7,251.5,419.3,252.6,419.3z
		 M255.7,419.1h1.5V413h-1.5V419.1z M256.5,411.9c0.5,0,1-0.4,1-0.9c0-0.5-0.4-0.9-1-0.9c-0.5,0-0.9,0.4-0.9,0.9
		C255.5,411.5,255.9,411.9,256.5,411.9z M260.5,419.3c1.3,0,2.5-0.5,2.5-1.9c0-1-0.7-1.5-1.4-1.8l-0.5-0.2c-0.2-0.1-0.3-0.1-0.5-0.2
		c-0.3-0.1-0.4-0.3-0.4-0.5c0-0.4,0.3-0.5,0.9-0.5c0.6,0,1.2,0.2,1.7,0.4v-1.3c-0.5-0.2-1-0.3-1.8-0.3c-1.5,0-2.3,0.8-2.3,1.8
		s0.7,1.5,1.4,1.7l0.5,0.2c0.2,0.1,0.3,0.1,0.4,0.2c0.3,0.2,0.4,0.3,0.4,0.6c0,0.4-0.4,0.6-1,0.6c-0.6,0-1.2-0.2-1.6-0.5l-0.5,1.1
		C258.7,419,259.4,419.3,260.5,419.3z M267.9,419.1h1.6v-4c0-1.8-1-2.2-2-2.2c-0.8,0-1.5,0.3-2,0.7V410H264v9.1h1.5v-4.2
		c0.4-0.3,0.9-0.7,1.5-0.7c0.8,0,0.9,0.7,0.9,1.4V419.1z M278.7,411.9l0.4-1.3h-4.7v8.5h1.6v-3.7h2.7l0-1.3h-2.7v-2.3H278.7z
		 M282.4,414.1c0.9,0,1.5,0.8,1.5,2c0,1.1-0.5,2-1.5,2c-0.9,0-1.5-0.8-1.5-2C280.9,415,281.4,414.1,282.4,414.1z M284.6,418.4
		c0.6-0.6,0.9-1.4,0.9-2.3c0-0.9-0.3-1.7-0.8-2.3c-0.5-0.6-1.3-0.9-2.2-0.9c-0.9,0-1.6,0.3-2.2,0.9c-0.6,0.6-0.9,1.4-0.9,2.4
		c0,1,0.3,1.8,0.9,2.4c0.5,0.5,1.3,0.8,2.1,0.8C283.3,419.3,284,418.9,284.6,418.4z M289.4,414.1c0.9,0,1.5,0.8,1.5,2
		c0,1.1-0.5,2-1.5,2c-0.9,0-1.5-0.8-1.5-2C287.9,415,288.4,414.1,289.4,414.1z M291.6,418.4c0.6-0.6,0.9-1.4,0.9-2.3
		c0-0.9-0.3-1.7-0.8-2.3c-0.5-0.6-1.3-0.9-2.2-0.9c-0.9,0-1.6,0.3-2.2,0.9c-0.6,0.6-0.9,1.4-0.9,2.4c0,1,0.3,1.8,0.9,2.4
		c0.5,0.5,1.3,0.8,2.1,0.8C290.3,419.3,291,418.9,291.6,418.4z M297.5,414.2v3.8c-0.2,0.1-0.4,0.1-0.7,0.1c-1.2,0-1.9-0.9-1.9-2
		c0-1.2,0.8-1.9,1.9-1.9C297.1,414.1,297.3,414.2,297.5,414.2z M296.7,419.3c1,0,1.8-0.2,2.4-0.5V410h-1.5v2.9
		c-0.2,0-0.5-0.1-0.8-0.1c-2,0-3.4,1.3-3.4,3.2C293.4,418.2,294.9,419.3,296.7,419.3z M302.2,419.3c1.3,0,2.5-0.5,2.5-1.9
		c0-1-0.7-1.5-1.4-1.8l-0.5-0.2c-0.2-0.1-0.3-0.1-0.5-0.2c-0.3-0.1-0.4-0.3-0.4-0.5c0-0.4,0.3-0.5,0.9-0.5c0.6,0,1.2,0.2,1.7,0.4
		v-1.3c-0.5-0.2-1-0.3-1.8-0.3c-1.5,0-2.3,0.8-2.3,1.8s0.7,1.5,1.4,1.7l0.5,0.2c0.2,0.1,0.3,0.1,0.4,0.2c0.3,0.2,0.4,0.3,0.4,0.6
		c0,0.4-0.4,0.6-1,0.6c-0.6,0-1.2-0.1-1.6-0.4l-0.5,1.1C300.5,419,301.2,419.3,302.2,419.3z M239.3,402.4l0.7,2h-2.1l0.7-2
		c0.1-0.4,0.3-0.7,0.3-1h0C239,401.7,239.1,402,239.3,402.4z M241.3,407.8h1.7l-3.4-8.5h-1.1l-3.3,8.5h1.5l0.8-2.1h3"/>
	<path id="path21" class="st1" d="M237.9,425.6c1,0,1.8,0.6,1.8,1.9c0,1.2-0.6,2-1.7,2c-0.3,0-0.5-0.1-0.8-0.2v-3.6
		C237.4,425.6,237.6,425.6,237.9,425.6z M238,430.7c1.9,0,3.2-1.4,3.2-3.3c0-1.9-1.1-3.1-3.3-3.1c-1,0-1.7,0.2-2.4,0.4v8.9h1.5v-3.1
		C237.4,430.7,237.7,430.7,238,430.7z M243.7,430.7c0.3,0,0.8-0.1,1.2-0.3l-0.2-1.2c-0.2,0.1-0.3,0.1-0.4,0.1
		c-0.3,0-0.4-0.2-0.4-0.6v-7.3h-1.5v8C242.3,430.2,242.7,430.7,243.7,430.7z M248.2,430.7c0.8,0,1.7-0.3,2.2-0.7l-0.4-1
		c-0.4,0.3-0.9,0.4-1.5,0.4c-1.2,0-1.8-0.9-1.8-2c0-1.1,0.8-2,1.8-2c0.6,0,1.1,0.2,1.5,0.5l0-1.3c-0.3-0.2-0.9-0.4-1.7-0.4
		c-1.8,0-3.2,1.4-3.2,3.2C245.2,429.3,246.2,430.7,248.2,430.7"/>
</g>
</svg>
