<?xml version="1.0" encoding="utf-8"?>
<!-- Generator: Adobe Illustrator 26.0.1, SVG Export Plug-In . SVG Version: 6.00 Build 0)  -->
<svg version="1.1" id="Layer_1" xmlns="http://www.w3.org/2000/svg" xmlns:xlink="http://www.w3.org/1999/xlink" x="0px" y="0px"
	 viewBox="0 0 95 35" style="enable-background:new 0 0 95 35;" xml:space="preserve">
<style type="text/css">
	.st0{fill:#104076;}
	.st1{fill:#CCCCCC;}
</style>
<path class="st0" d="M-39.1,613.7"/>
<g>
	<path class="st1" d="M44.1,23.2c0.1,1.3-0.1,2.5-0.4,3.7c-0.6,1.9-1.7,3.5-3.4,4.8c-1.7,1.3-4,2.2-6.8,2.4
		c-2.9,0.3-6.1-0.1-9.7-1.1c-3.6-1.1-7-2.8-10-5c-3-2.1-5.5-4.6-7.3-7.2c-1.8-2.5-3-5.1-3.6-7.6c-0.5-2.4-0.4-4.6,0.4-6.6
		C4,4.8,5.2,3.3,6.8,2.2c1.5-1,3.3-1.7,5.3-2c1.9-0.3,4-0.3,6.2,0c2.1,0.3,4.4,0.8,6.7,1.7c2.3,0.9,4.4,2,6.4,3.2
		c0.1,0,0.1,0.1,0.2,0.1h-0.2c-1.7-0.9-3.6-1.8-5.6-2.4c-2.1-0.7-4.2-1.2-6.2-1.4c-1.3-0.2-2.7-0.2-3.9-0.1c-0.8,0-1.6,0.1-2.4,0.2
		c-1.6,0.3-3,0.8-4.1,1.6C7.8,4,6.9,5.2,6.5,6.6c-0.5,1.5-0.5,3.2-0.1,5c0.5,1.8,1.4,3.7,2.9,5.6c1.4,1.9,3.3,3.7,5.5,5.2
		c2.2,1.6,4.8,2.8,7.4,3.7c2.6,0.8,5.1,1.2,7.3,1.1c2.1-0.1,3.9-0.6,5.4-1.5c1.1-0.6,1.9-1.5,2.5-2.4H44.1z"/>
	<path class="st1" d="M23.8,15.1h-3.1l1.5-5.4L23.8,15.1z M28.7,20.4L24.3,6.3h-4l-4.4,14.1h3.4l0.8-2.7h4.5l0.8,2.7H28.7z"/>
	<path class="st1" d="M33.5,17.9c-0.8,0-1-0.7-1-2.7c0-1.9,0.2-2.8,1.5-2.8c0.5,0,0.9,0.1,1.2,0.4c0.4,0.4,0.5,0.9,0.5,1.6
		c0,1-0.3,2-0.9,2.6C34.4,17.6,34,17.9,33.5,17.9 M35.5,4.8v5.7c-0.6-0.6-1.3-0.7-2.2-0.7c-1.3,0-2.2,0.4-2.9,1.1
		c-1,1-1.4,2.5-1.4,4.5c0,2.1,0.4,3.5,1.2,4.4c0.6,0.7,1.4,1,2.3,1c1.2,0,2.3-0.6,3-1.6l0,1.4h3V4.8H35.5z"/>
	<path class="st1" d="M40.9,10v10.4H44v-4.2c0-2.4,0.9-3.5,1.9-3.5c0.6,0,0.7,0.5,0.7,1.2v6.5h3.2v-4.2c0-2.4,0.9-3.5,1.9-3.5
		c0.6,0,0.8,0.4,0.8,1.3v6.4h3.2v-6.9c0-2.4-1.1-3.7-3-3.7c-1.4,0-2.5,0.7-3.1,1.9c-0.4-1.3-1.3-1.9-2.7-1.9c-1.4,0-2.4,0.7-3,1.8
		V10H40.9z"/>
	<path class="st1" d="M57.4,6.6c0,1.1,0.8,1.9,1.9,1.9c1.1,0,1.9-0.8,1.9-1.9c0-1.1-0.8-1.9-1.9-1.9C58.2,4.6,57.4,5.5,57.4,6.6
		 M57.7,20.4h3.2V10h-3.2V20.4z"/>
	<path class="st1" d="M63,10v10.4h3.2v-3.5c0-2,0.4-4,2.1-4c0.2,0,0.3,0,0.5,0l0.2-3.1c-0.2,0-0.4-0.1-0.6-0.1
		c-1.1,0-1.9,0.7-2.4,1.9l0-1.6H63z"/>
	<path class="st1" d="M75.3,15.9c-0.1,1.4-1.5,2.4-2.3,2.4c-0.5,0-0.7-0.4-0.7-1c0-1.2,0.7-1.3,1.8-1.3H75.3z M71.3,13.1
		c0.7-0.7,1.4-0.9,2.4-0.9c1.1,0,1.5,0.3,1.5,1.5v0.3h-1.1c-1.4,0-2.7,0.2-3.6,0.8c-0.8,0.6-1.3,1.4-1.3,2.7c0,1.1,0.3,1.8,0.9,2.4
		c0.5,0.5,1.3,0.8,2.3,0.8c1.2,0,2.3-0.5,3-1.6l0,1.3h2.7v-6.6c0-2.9-1.4-4-4.3-4c-1.7,0-3.1,0.3-4.2,1.5L71.3,13.1z"/>
	<rect x="80.2" y="4.8" class="st1" width="3.2" height="15.6"/>
	<path class="st1" d="M51.5,26.8v1.1h1.9v2.7c-0.5,0.1-1.1,0.2-1.7,0.2c-0.9,0-1.5-0.2-1.8-0.6c-0.4-0.4-0.7-1.1-0.7-3.1
		c0-1.9,0.2-2.6,0.6-3.1c0.3-0.4,0.8-0.6,1.7-0.6c0.9,0,1.6,0.3,2.2,0.8l0.7-0.9c-0.6-0.7-1.6-1-2.7-1c-1.3,0-2.2,0.4-2.7,1
		c-0.8,0.8-1,2.2-1,3.9c0,1.6,0.2,2.8,1,3.7c0.6,0.6,1.5,0.9,2.8,0.9c1.1,0,2.1-0.2,2.8-0.5v-4.6H51.5z"/>
	<path class="st1" d="M56.4,25.1v6.7h1.1v-2.6c0-1.6,0.5-3.1,1.6-3.1c0.2,0,0.4,0,0.5,0.1l0.3-1.1c-0.2-0.1-0.5-0.2-0.8-0.2
		c-0.7,0-1.4,0.4-1.8,1.5l0-1.3H56.4z"/>
	<path class="st1" d="M65.1,28.4c0,0.8-0.1,1.6-0.5,2c-0.2,0.2-0.5,0.5-1.2,0.5c-0.5,0-0.9-0.2-1.1-0.4c-0.3-0.4-0.4-1-0.4-2
		c0-0.8,0.1-1.6,0.5-2.1c0.2-0.2,0.5-0.5,1.1-0.5c0.6,0,0.9,0.2,1.1,0.4C65,26.8,65.1,27.5,65.1,28.4 M66.3,28.3
		c0-1.1-0.1-2-0.7-2.6c-0.4-0.5-1.1-0.8-2-0.8c-1,0-1.6,0.3-2.1,0.9c-0.6,0.7-0.8,1.5-0.8,2.8c0,1.1,0.1,1.9,0.7,2.6
		c0.4,0.5,1.1,0.8,2,0.8c1,0,1.6-0.3,2.1-0.9C66.2,30.3,66.3,29.6,66.3,28.3"/>
	<path class="st1" d="M72.8,31.8v-6.7h-1.1v2.5c0,2.4-0.9,3.3-1.8,3.3c-0.7,0-0.9-0.6-0.9-1.4v-4.4h-1.1v4.6c0,1.4,0.6,2.2,1.8,2.2
		c1,0,1.8-0.6,2.1-1.5v1.4H72.8z"/>
	<path class="st1" d="M77.7,26c0.9,0,1.2,0.7,1.2,2.4c0,1.8-0.4,2.5-1.5,2.5c-0.5,0-1-0.2-1.3-0.5c-0.3-0.4-0.4-0.9-0.4-1.6
		c0-0.8,0.2-1.5,0.6-2.1C76.7,26.2,77.2,26,77.7,26 M74.7,25.1V35h1.1v-3.9c0.4,0.6,1.1,0.8,1.7,0.8c0.7,0,1.3-0.2,1.6-0.6
		c0.7-0.7,0.9-1.7,0.9-3c0-1-0.2-2.1-0.8-2.8c-0.3-0.4-0.8-0.6-1.5-0.6c-0.9,0-1.7,0.5-2.1,1.3v-1.2H74.7z"/>
	<path class="st1" d="M84.4,25.8c0.5,0,0.6,0.4,0.6,1.4c0,1.1-0.2,1.5-0.8,1.5c-0.3,0-0.5-0.1-0.7-0.3c-0.2-0.2-0.2-0.5-0.2-0.9
		c0-0.5,0.1-1,0.4-1.3C83.8,26,84.1,25.8,84.4,25.8 M82.3,25v6.7h1.1v-2.5c0.3,0.3,0.7,0.4,1.1,0.4c0.5,0,0.9-0.2,1.1-0.4
		c0.5-0.4,0.6-1.2,0.6-2c0-0.8-0.1-1.5-0.6-1.9c-0.2-0.2-0.5-0.4-1-0.4c-0.6,0-1.1,0.3-1.3,0.8l0-0.7H82.3z"/>
	<rect x="87" y="22.6" class="st1" width="1.1" height="7"/>
	<path class="st1" d="M91.8,28.2c-0.3,0.3-0.6,0.5-0.9,0.5c-0.6,0-0.7-0.5-0.7-1.4c0-1,0.1-1.4,0.8-1.4c0.3,0,0.6,0.1,0.8,0.3
		l0.6-0.8c-0.4-0.4-0.9-0.5-1.4-0.5c-0.7,0-1.1,0.2-1.4,0.5c-0.4,0.5-0.6,1.2-0.6,1.9c0,0.8,0.1,1.3,0.5,1.8
		c0.3,0.3,0.7,0.6,1.3,0.6c0.7,0,1.2-0.2,1.6-0.8L91.8,28.2z"/>
</g>
</svg>
