<?xml version="1.0" encoding="utf-8"?>
<!-- Generator: Adobe Illustrator 26.0.1, SVG Export Plug-In . SVG Version: 6.00 Build 0)  -->
<svg version="1.1" id="Layer_1" xmlns="http://www.w3.org/2000/svg" xmlns:xlink="http://www.w3.org/1999/xlink" x="0px" y="0px"
	 viewBox="0 0 95 35" style="enable-background:new 0 0 95 35;" xml:space="preserve">
<style type="text/css">
	.st0{fill:#104076;}
	.st1{fill:#343741;}
</style>
<path class="st0" d="M-39.1,613.7"/>
<g>
	<g transform="translate(-.5 -.12)">
		<path class="st1" d="M13.5,7.4l-2.9,4.2c0.5-0.6,1.3-0.9,2.1-0.9c1,0,1.9,0.5,2.4,1.3c0.1,0.1,0.2,0.3,0.2,0.3l0,0.1l3.7,5.3
			l2.6-3.7L17,7.4c-0.4-0.5-1-0.9-1.7-0.9h0C14.5,6.5,13.9,6.8,13.5,7.4z"/>
		<path class="st1" d="M29.1,28.4c1-0.7,1.2-2,0.5-2.9l-5.5-7.9l-2.6,3.7l4.6,6.6C26.9,28.8,28.2,29.1,29.1,28.4z"/>
		<path class="st1" d="M6.4,19.7c-0.8,0-1.6,0.3-2.1,0.9l-3.4,4.9c-0.3,0.4-0.4,0.8-0.4,1.2c0,0.7,0.3,1.3,0.9,1.7
			c0.4,0.3,0.8,0.4,1.2,0.4c0.7,0,1.3-0.3,1.7-0.9l4.6-6.6l-0.3-0.5C8.1,20.1,7.3,19.7,6.4,19.7z"/>
		<path class="st1" d="M15,23.3c0.1-0.1,0.2-0.3,0.2-0.3l-3.8-5.4l-2.6-3.7l-4.7,6.7c0.5-0.6,1.3-0.9,2.1-0.9c0.9,0,1.7,0.4,2.2,1.1
			l0.3,0.5l1.7,2.4c0.5,0.5,1.2,0.9,2.1,0.9h0C13.7,24.6,14.5,24.1,15,23.3L15,23.3z"/>
		<path class="st1" d="M21.6,13.9L19,17.6l-3.7,5.3l0,0.1c0,0-0.1,0.2-0.2,0.3c-0.5,0.8-1.4,1.3-2.4,1.3c-0.8,0-1.6-0.3-2.1-0.9
			l2.9,4.2c0.4,0.5,1,0.9,1.7,0.9h0c0.7,0,1.3-0.4,1.7-0.9l7.2-10.3L21.6,13.9z"/>
		<path class="st1" d="M15,11.9c-0.5-0.8-1.4-1.3-2.4-1.3c-0.8,0-1.6,0.3-2.1,0.9l-1.7,2.4l1.7,2.5l0.8,1.2l3.8-5.4
			C15.3,12.2,15.1,12,15,11.9z"/>
	</g>
	<path class="st1" d="M35.9,19.9h-0.6l-0.5-1.4h-2l-0.5,1.4h-0.6l1.9-4.8h0.6L35.9,19.9z M34.5,17.9L33.7,16L33,17.9H34.5z
		 M40.2,15.1h-0.6v3.6l-2.2-3.6h-0.6v4.8h0.6v-3.6l2.2,3.6h0.6L40.2,15.1L40.2,15.1z M44.6,15.1h-3.5v0.6h1.4v4.2h0.6v-4.2h1.4
		L44.6,15.1z M49.1,17.5c0,0.7-0.1,1.2-0.4,1.6c-0.4,0.5-0.9,0.8-1.5,0.8s-1.2-0.3-1.5-0.8c-0.3-0.4-0.4-0.9-0.4-1.6
		s0.1-1.2,0.4-1.6c0.4-0.5,0.9-0.8,1.5-0.8c0.7,0,1.2,0.3,1.5,0.8C48.9,16.3,49.1,16.8,49.1,17.5 M48.5,17.5c0-0.6-0.1-1-0.3-1.3
		c-0.2-0.4-0.6-0.5-1-0.5s-0.8,0.2-1,0.5c-0.2,0.3-0.3,0.7-0.3,1.3c0,0.6,0.1,1,0.3,1.3c0.2,0.4,0.6,0.5,1,0.5s0.8-0.2,1-0.5
		C48.4,18.5,48.5,18.1,48.5,17.5 M53.1,15.1h-3v4.7h0.6v-2.2h2.2v-0.6h-2.2v-1.4h2.4V15.1z M57.6,19.9H57l-0.5-1.4h-2L54,19.9h-0.6
		l1.9-4.8h0.6L57.6,19.9z M56.2,17.9L55.5,16l-0.8,1.9H56.2z M60,17.3v0.6h1.2c0,0.4-0.1,0.8-0.2,1c-0.2,0.3-0.5,0.5-0.9,0.5
		c-0.9,0-1.3-0.6-1.3-1.8s0.4-1.8,1.3-1.8c0.2,0,0.5,0.1,0.6,0.2c0.1,0.1,0.3,0.2,0.5,0.5l0.5-0.4c-0.2-0.3-0.5-0.5-0.7-0.6
		c-0.3-0.2-0.5-0.2-0.9-0.2c-0.7,0-1.2,0.3-1.5,0.8c-0.3,0.4-0.4,1-0.4,1.7c0,0.7,0.1,1.2,0.4,1.7c0.3,0.5,0.8,0.8,1.5,0.8
		c0.3,0,0.5,0,0.7-0.1c0.2-0.1,0.4-0.2,0.5-0.4v0.5h0.5l0-2.6L60,17.3L60,17.3z M67,19.9h-0.6l-0.5-1.4h-2l-0.5,1.4h-0.6l1.9-4.8
		h0.6L67,19.9z M65.6,17.9L64.8,16L64,17.9H65.6z M71.3,18.5c0-0.5-0.2-0.9-0.7-1.1c-0.1,0-0.5-0.2-1.3-0.4
		c-0.5-0.1-0.7-0.4-0.7-0.6c0-0.4,0.3-0.6,1-0.6c0.3,0,0.6,0.1,0.7,0.2s0.3,0.3,0.5,0.6l0.5-0.3c-0.2-0.4-0.4-0.7-0.7-0.8
		c-0.3-0.2-0.6-0.2-1.1-0.2c-0.4,0-0.8,0.1-1.1,0.3c-0.3,0.2-0.5,0.5-0.5,0.9c0,0.5,0.2,0.8,0.7,1c0.5,0.1,0.9,0.3,1.3,0.4
		c0.5,0.2,0.7,0.4,0.7,0.7c0,0.3-0.1,0.5-0.4,0.7c-0.2,0.1-0.5,0.2-0.7,0.2c-0.4,0-0.7-0.1-0.9-0.2c-0.2-0.2-0.4-0.4-0.4-0.8
		l-0.6,0.1c0.2,1,0.8,1.5,1.9,1.5c0.5,0,0.9-0.1,1.2-0.4C71.1,19.3,71.3,18.9,71.3,18.5 M75.3,15.1h-3.5v0.6h1.4v4.2h0.6v-4.2h1.4
		L75.3,15.1L75.3,15.1z M79.7,19.9H79l-0.5-1.4h-2L76,19.9h-0.6l1.9-4.8h0.6L79.7,19.9z M78.3,17.9L77.5,16l-0.8,1.9H78.3z
		 M87.2,16.5c0,0.5-0.2,0.9-0.6,1.1c-0.2,0.1-0.6,0.2-1,0.2h-1.2v2h-0.6v-4.8h1.8c0.5,0,0.8,0.1,1,0.2C87.1,15.6,87.2,16,87.2,16.5
		 M86.6,16.5c0-0.3-0.1-0.5-0.3-0.6c-0.1-0.1-0.4-0.1-0.7-0.1h-1.2v1.5h1.2c0.3,0,0.6,0,0.7-0.1C86.5,17,86.6,16.8,86.6,16.5
		 M90.9,19.3h-2.2v-4.2h-0.6v4.8h2.8V19.3z M95,15.9c-0.2-0.3-0.5-0.5-0.7-0.6c-0.3-0.2-0.5-0.2-0.9-0.2c-0.7,0-1.2,0.3-1.5,0.8
		c-0.3,0.4-0.4,0.9-0.4,1.6c0,0.7,0.1,1.2,0.4,1.6c0.4,0.5,0.9,0.8,1.5,0.8c0.3,0,0.6-0.1,0.9-0.2c0.2-0.1,0.4-0.3,0.7-0.6l-0.5-0.4
		c-0.2,0.2-0.3,0.4-0.5,0.5c-0.2,0.1-0.4,0.2-0.6,0.2c-0.9,0-1.3-0.6-1.3-1.8s0.4-1.8,1.3-1.8c0.2,0,0.5,0.1,0.6,0.2
		c0.1,0.1,0.3,0.2,0.5,0.5L95,15.9"/>
</g>
</svg>
