<?xml version="1.0" encoding="utf-8"?>
<!-- Generator: Adobe Illustrator 26.0.1, SVG Export Plug-In . SVG Version: 6.00 Build 0)  -->
<svg version="1.1" id="Layer_1" xmlns="http://www.w3.org/2000/svg" xmlns:xlink="http://www.w3.org/1999/xlink" x="0px" y="0px"
	 viewBox="0 0 95 35" style="enable-background:new 0 0 95 35;" xml:space="preserve">
<style type="text/css">
	.st0{fill:#104076;}
	.st1{fill-rule:evenodd;clip-rule:evenodd;}
</style>
<path class="st0" d="M-39.1,613.7"/>
<path class="st1" d="M69.4,23.3v-1.1H69V22h1v0.2h-0.4v1.1C69.6,23.3,69.4,23.3,69.4,23.3z M71.7,23.3h-0.3v-1l0,0
	c-0.1,0.3-0.3,0.7-0.4,1h-0.1c-0.1-0.3-0.3-0.6-0.4-1l0,0v1h-0.2V22h0.3c0.1,0.3,0.3,0.8,0.4,1l0,0c0.1-0.2,0.3-0.7,0.4-1h0.3
	L71.7,23.3L71.7,23.3z M45.6,25.6c0.2,0,1,0.3,1,0.8V35h2.5v-9.7h-3.5V25.6L45.6,25.6z M25.5,25.3v0.3c0.3,0.1,1,0.3,0.7,0.9
	L22.4,35h2l1.2-2.7h4.2l1,2.7h2.6l-3.8-9.7H25.5z M26.1,31.1l1.7-3.8l1.5,3.8H26.1L26.1,31.1z M64.6,25.3v0.3c0.3,0.1,1,0.3,0.7,0.9
	L61.5,35h2l1.2-2.7h4.2l1,2.7h2.6l-3.8-9.7H64.6L64.6,25.3L64.6,25.3z M65.2,31.1l1.7-3.8l1.5,3.8H65.2L65.2,31.1z M57.8,35l4-9.7
	h-1.9l-3,7.1l-2.8-7.1h-3.6v0.3c0.4,0.1,0.9,0.3,1.1,0.8L55,35L57.8,35L57.8,35L57.8,35z M40.1,35l4-9.7h-1.9l-3,7.1l-2.8-7.1h-3.6
	v0.3c0.4,0.1,0.9,0.3,1.1,0.8l3.4,8.6L40.1,35L40.1,35z"/>
<g>
	<path d="M52.5,0H37.2v21.1c3.6-1.6,8.3-2.7,13.5-3.3L52.5,0L52.5,0z"/>
	<path d="M52.5,0L52.5,0l1.7,17.4c1.4-0.1,2.7-0.1,4.1-0.1V0H52.5z"/>
	<line x1="52.5" y1="0" x2="54.2" y2="17.4"/>
	<line x1="52.5" y1="0" x2="50.8" y2="17.7"/>
</g>
</svg>
