<?xml version="1.0" encoding="utf-8"?>
<!-- Generator: Adobe Illustrator 26.0.1, SVG Export Plug-In . SVG Version: 6.00 Build 0)  -->
<svg version="1.1" id="Layer_1" xmlns="http://www.w3.org/2000/svg" xmlns:xlink="http://www.w3.org/1999/xlink" x="0px" y="0px"
	 viewBox="0 0 95 35" style="enable-background:new 0 0 95 35;" xml:space="preserve">
<style type="text/css">
	.st0{fill:#104076;}
	.st1{fill:#FFFFFF;}
</style>
<path class="st0" d="M-39.1,613.7"/>
<g>
	<path class="st1" d="M3,24.5l1.6-4.2l1.5,4.2H3z M7.6,28.7H9L5.3,18.5H3.9L0,28.7h1.4l1.1-3.1h3.9L7.6,28.7z M14.4,26.6
		c0,0.8-0.7,1.3-1.8,1.3c-0.9,0-1.6-0.3-1.9-0.9l-1.4,0.2c0.5,1.1,1.7,1.6,3.2,1.6c2.1,0,3.3-1.2,3.3-2.4c0-1.6-1.5-2.1-3.2-2.4
		c-0.8-0.2-1.8-0.5-1.8-1.2c0-0.5,0.5-1.1,1.5-1.1c1,0,1.7,0.7,1.8,1l1.2-0.5c-0.6-1.1-1.7-1.5-2.8-1.5c-1.8,0-3,0.9-3,2.3
		c0,1.6,1.4,1.9,2.7,2.2C13.3,25.4,14.4,25.7,14.4,26.6 M18.6,18.5l-1.3,0.6V21H16v1.1h1.2v5c0,1,0,1.7,1.5,1.7c0.5,0,1-0.1,1.3-0.1
		v-1.1c-0.3,0.1-0.6,0.2-0.9,0.2c-0.6,0-0.6-0.4-0.6-1.3v-4.4H20V21h-1.4V18.5z M21.2,21v7.8h1.3v-3.6c0-0.7,0-1.5,0.3-2
		c0.4-0.7,1.1-1,2.3-1v-1.3c-0.5,0-1.9,0.1-2.7,1.5V21H21.2z M32.9,18.5v1.3h5.8l-5.8,7.6v1.3h7.5v-1.2h-5.9l5.8-7.7v-1.3H32.9z
		 M48.6,21v7.8h1.3v-4.4c0-0.6,0-1.2,0.6-1.7c0.4-0.4,0.9-0.6,1.5-0.6c0.7,0,1.4,0.3,1.7,1.1c0.1,0.3,0.1,0.5,0.1,1.3v4.4H55v-4.6
		c0-0.7,0-1.1-0.1-1.6c-0.4-1.3-1.6-1.8-2.6-1.8c-0.5,0-1.7,0.1-2.4,1.4V21H48.6z M68.8,26.9c-0.3,0.5-0.8,1-1.8,1
		c-0.9,0-2.3-0.6-2.3-3.1c0-0.7,0.1-3.1,2.3-3.1c1.1,0,1.6,0.6,1.8,1.1l1.2-0.5c-0.8-1.3-2.1-1.5-3.1-1.5c-2.5,0-3.7,2-3.7,4.2
		c0,1.9,1,4,3.8,4c1.6,0,2.5-0.8,3-1.5L68.8,26.9z M42.3,24h4.1c-0.1-2-1.3-2.4-2.1-2.4C43.2,21.7,42.4,22.5,42.3,24 M47.5,27.3
		c-0.4,0.8-1.3,1.6-3,1.6c-2.3,0-3.6-1.6-3.6-4.2c0-2.9,1.9-4,3.6-4c1.4,0,2.8,0.8,3.3,2.7c0.1,0.7,0.1,1.2,0.1,1.6h-5.6
		c0,1.3,0.5,2.9,2.3,2.9c0.7,0,1.3-0.4,1.6-0.9L47.5,27.3z M57.1,24h4.1c-0.1-2-1.3-2.4-2.1-2.4C58,21.7,57.2,22.5,57.1,24
		 M62.3,27.3c-0.4,0.8-1.3,1.6-3,1.6c-2.3,0-3.6-1.6-3.6-4.2c0-2.9,1.9-4,3.6-4c1.4,0,2.8,0.8,3.3,2.7c0.1,0.7,0.1,1.2,0.1,1.6h-5.6
		c0,1.3,0.5,2.9,2.3,2.9c0.7,0,1.3-0.4,1.6-0.9L62.3,27.3z M77.1,28.7l-1.4,0c0,0-0.1-0.5-0.2-1.1c-0.4,0.4-1.1,1.3-2.6,1.3
		c-1.5,0-2.6-0.9-2.6-2.2c0-0.4,0.1-0.8,0.3-1.2c0.4-0.7,1.3-1.2,3.6-1.4l1.2-0.1v-0.2c0-0.8,0-2.2-1.7-2.2c-1.1,0-1.5,0.5-1.6,1
		L71,22.2c0,0,0-0.1,0.1-0.1c0.5-0.9,1.4-1.4,2.7-1.4c0.7,0,1.7,0.2,2.3,0.7c0.9,0.7,0.8,1.9,0.8,1.9l0.1,4
		C76.9,27.3,76.9,28.4,77.1,28.7 M75.3,26.6c0.2-0.4,0.2-0.6,0.2-1.7c-0.5,0.1-1.2,0.2-2,0.4c-1.4,0.3-1.7,0.9-1.7,1.4
		c0,0.6,0.5,1.2,1.5,1.2C74.2,27.8,74.9,27.4,75.3,26.6 M32,28.7l-1.4,0c0,0-0.1-0.5-0.2-1.1c-0.4,0.4-1.1,1.3-2.6,1.3
		c-1.5,0-2.6-0.9-2.6-2.2c0-0.4,0.1-0.8,0.3-1.2c0.4-0.7,1.3-1.2,3.6-1.4l1.2-0.1v-0.2c0-0.8,0-2.2-1.7-2.2c-1.1,0-1.5,0.5-1.6,1
		l-1.2-0.5c0,0,0-0.1,0.1-0.1c0.5-0.9,1.4-1.4,2.7-1.4c0.7,0,1.6,0.2,2.3,0.7c0.9,0.7,0.8,1.9,0.8,1.9l0.1,4
		C31.8,27.3,31.8,28.4,32,28.7 M30.2,26.6c0.2-0.4,0.2-0.6,0.2-1.7c-0.5,0.1-1.2,0.2-2,0.4c-1.4,0.3-1.7,0.9-1.7,1.4
		c0,0.6,0.5,1.2,1.5,1.2C29,27.8,29.8,27.4,30.2,26.6"/>
	<path class="st1" d="M85.6,22.2c-0.2,0.1-0.4,0.3-0.6,0.4c-2.3-1.3-7.4-3.8-7.8-4c-0.5-0.2-1.3-0.6-1.2-1.3c0.1-1.1,2-3.5,2.8-4.4
		c4.3-5.3,6.3-6.9,7.6-6.8c1.4,0.2,2.1,1.6,2.2,8.3c-0.8-0.2-1.6-0.5-2.5-0.7c-0.1-1-0.3-2.4-0.3-2.9c-0.1-0.6-0.2-0.8-0.4-0.8
		c-0.3,0-0.9,0.6-1.5,1.2c-0.3,0.3-1,1-1.8,1.8c-0.7,0-1.1,0.1-1.4,0.4c-0.2,0.3-0.2,0.6-0.1,1.1c-0.4,0.4-0.8,0.8-1.1,1.1
		c-0.9,0.9-1.9,1.6-1.9,2c0,0.3,0.4,0.6,1.1,1C80.3,19.3,84.2,21.5,85.6,22.2 M91.7,15.6c-1.5-0.5-5.3-1.9-9.3-2.5
		c-1.4-0.2-1.9,0.3-1.4,1.6c0.6,1.3,2,3.5,3.5,5.1c1.5,1.6,3.2,2.1,3.7-0.4c0-0.1,0-0.2,0.1-0.3c0.1-0.6,0.2-1.3,0.3-1.8
		c-0.7-0.3-1.4-0.6-2.2-0.9c0,0.6,0.1,1.6,0.1,2.3c0,0.1,0,0.2,0,0.3c0,1.2-0.4,1.2-1.1,0.7c-0.8-0.6-3.3-3.9-3.6-5.4
		c0-0.1,0-0.1,0.1-0.1c0,0,0,0,0.1,0c0,0,0,0,0,0c0.6,0.2,2.4,1,4.4,1.8c0.8,0.3,1.5,0.7,2.2,1c0.7,0.3,1.3,0.6,1.7,0.8
		c0.8,0.4,1.1,0.7,0.8,1.1c-1.7,1.7-7.7,4.2-9.8,7.3c0,0,0,0,0,0c0,0,0,0.1-0.1,0.1c0,0,0,0,0,0c-0.1,0.2-0.2,0.5-0.3,0.9
		c-0.1,0.7,0.3,1.3,1.2,1.5c0.2,0.1,0.5,0.1,0.8,0.2c0.1,0,0.1,0,0.2,0c1.9,0.1,6.7-1,8.1-1.6c1.5-0.7,1.1-1.3,0.6-1.7
		c-0.3-0.3-2-1.2-2.8-1.7c-0.2,0.1-0.4,0.2-0.6,0.4c1.4,0.8,1.9,1.3,2.3,1.5c0.1,0.1,0.1,0.2-0.1,0.2c-0.1,0-0.1,0-0.1,0
		c-1.3,0.1-3.8,0.3-5,0.3c-0.2,0-0.4,0-0.5,0c0.3-0.3,0.6-0.5,0.8-0.6c2.5-1.8,6.7-4.2,7.9-5.3C94.5,19.8,97,17.4,91.7,15.6"/>
</g>
</svg>
