<?xml version="1.0" encoding="utf-8"?>
<!-- Generator: Adobe Illustrator 26.0.1, SVG Export Plug-In . SVG Version: 6.00 Build 0)  -->
<svg version="1.1" id="Layer_1" xmlns="http://www.w3.org/2000/svg" xmlns:xlink="http://www.w3.org/1999/xlink" x="0px" y="0px"
	 viewBox="0 0 95 35" style="enable-background:new 0 0 95 35;" xml:space="preserve">
<style type="text/css">
	.st0{fill:#104076;}
</style>
<path class="st0" d="M-39.1,613.7"/>
<g>
	<polygon points="16.1,14.2 17.2,14.2 16.6,12.1 	"/>
	<path d="M9,12.6c0.1-0.1,0.2-0.3,0.2-0.5c0-0.5-0.4-0.6-0.9-0.6H7.5v1.2h0.9C8.6,12.7,8.8,12.7,9,12.6z"/>
	<path d="M0,6.3v14.6h95V6.3H0z M10.7,16.8c-0.6,0.4-1.3,0.4-2,0.4H5.4V10h3.5c0.5,0,1.1,0,1.6,0.4c0.5,0.3,0.8,0.9,0.8,1.5
		c0,0.8-0.5,1.4-1.2,1.6c0.8,0.1,1.4,0.8,1.4,1.6C11.5,15.7,11.2,16.4,10.7,16.8z M18,17.2l-0.4-1.4h-1.9l-0.4,1.4h-1.8l2.2-7.2H18
		l2.3,7.2H18z M28,11.6h-3.2v1.1h2.6v1.6h-2.6v1.2H28v1.7h-5.4V10H28V11.6z M36.8,17.3c-1.5,0-2.9-0.6-3.2-2.2l2-0.4
		c0.2,0.6,0.7,0.9,1.3,0.9c0.3,0,0.9,0,0.9-0.4s-0.6-0.5-0.9-0.6c-1.4-0.3-3-0.6-3-2.3c0-0.7,0.3-1.4,0.9-1.8
		c0.6-0.4,1.4-0.5,2.1-0.5c1.2,0,2.5,0.5,2.9,1.8L38,12.2c-0.2-0.5-0.6-0.7-1.2-0.7c-0.3,0-0.7,0.1-0.7,0.5s0.5,0.5,0.8,0.5
		c0.7,0.1,1.4,0.3,2,0.6c0.7,0.4,1.1,1.1,1.1,1.8C40,16.6,38.3,17.3,36.8,17.3z M46.1,14.1v3H44v-3L41.5,10h2.4l1.3,2.4l1.2-2.4h1.9
		L46.1,14.1z M52.8,17.3c-1.5,0-2.9-0.6-3.2-2.2l2-0.4c0.2,0.6,0.7,0.9,1.3,0.9c0.3,0,0.9,0,0.9-0.4s-0.6-0.5-0.9-0.6
		c-1.4-0.3-3-0.6-3-2.3c0-0.7,0.3-1.4,0.9-1.8c0.6-0.4,1.4-0.5,2.1-0.5c1.3,0,2.5,0.5,2.9,1.8L54,12.2c-0.2-0.5-0.6-0.7-1.2-0.7
		c-0.3,0-0.7,0.1-0.7,0.5s0.5,0.5,0.8,0.5c0.7,0.1,1.4,0.3,2,0.6c0.7,0.4,1.1,1.1,1.1,1.8C56,16.6,54.3,17.3,52.8,17.3z M63.1,11.7
		h-1.5v5.5h-2.1v-5.5H58V10h5.1V11.7z M71,11.6h-3.2v1.1h2.6v1.6h-2.6v1.2H71v1.7h-5.4V10H71V11.6z M81.5,17.2h-2.1v-5.1l-1.3,5.1
		h-1.4L75.3,12v5.1h-1.7V10h2.9l1.1,3.8l1-3.8h2.9C81.5,10,81.5,17.2,81.5,17.2z M86.9,17.3c-1.5,0-2.9-0.6-3.2-2.2l2-0.4
		c0.2,0.6,0.7,0.9,1.3,0.9c0.3,0,0.8,0,0.8-0.4s-0.6-0.5-0.9-0.6c-1.4-0.3-3-0.6-3-2.3c0-0.7,0.3-1.4,0.9-1.8
		c0.6-0.4,1.4-0.5,2.1-0.5c1.3,0,2.5,0.5,2.9,1.8L88,12.4c-0.2-0.5-0.6-0.7-1.2-0.7c-0.3,0-0.7,0.1-0.7,0.5s0.5,0.5,0.8,0.5
		c0.7,0.1,1.4,0.3,2,0.6c0.7,0.4,1.1,1.1,1.1,1.8C90.2,16.6,88.4,17.3,86.9,17.3z"/>
	<path d="M9,14.4c-0.2-0.1-0.4-0.1-0.6-0.1H7.5v1.3h1c0.2,0,0.5,0,0.6-0.1c0.2-0.1,0.3-0.3,0.3-0.5C9.3,14.7,9.2,14.5,9,14.4z"/>
</g>
<rect x="1.2" y="24.4" width="0.8" height="4.3"/>
<path d="M10,28.6H9.3l-1.6-2.7c0,0-0.1-0.1-0.1-0.2c0,0-0.1-0.1-0.1-0.2v3.1H6.8v-4.3h0.8l1.5,2.5c0,0,0.1,0.2,0.3,0.5v-3H10V28.6z"
	/>
<path d="M14.5,27.6l0.7-0.2c0.1,0.4,0.4,0.6,1,0.6c0.3,0,0.5-0.1,0.6-0.2s0.2-0.2,0.2-0.4c0-0.1,0-0.2-0.1-0.3
	c-0.1-0.1-0.2-0.2-0.4-0.2l-0.8-0.2c-0.3-0.1-0.5-0.2-0.6-0.2c-0.1-0.1-0.2-0.2-0.3-0.4c-0.1-0.2-0.1-0.3-0.1-0.5
	c0-0.4,0.1-0.7,0.4-0.9c0.3-0.2,0.6-0.3,1.1-0.3c0.4,0,0.7,0.1,1,0.2c0.3,0.2,0.5,0.4,0.6,0.7L17,25.4c-0.1-0.3-0.4-0.5-0.8-0.5
	c-0.2,0-0.4,0.1-0.5,0.1c-0.1,0.1-0.2,0.2-0.2,0.4c0,0.2,0.2,0.4,0.6,0.5l0.7,0.2c0.4,0.1,0.7,0.3,0.9,0.5c0.1,0.2,0.2,0.5,0.2,0.7
	c0,0.4-0.2,0.7-0.5,1c-0.3,0.2-0.7,0.4-1.2,0.4c-0.4,0-0.8-0.1-1.1-0.3C14.8,28.3,14.6,28,14.5,27.6"/>
<path d="M23.2,28.6h-0.8v-4.3h1.7c0.5,0,0.9,0.1,1.1,0.4s0.4,0.5,0.4,0.9s-0.1,0.7-0.4,0.9c-0.3,0.2-0.6,0.4-1,0.4h-1.1L23.2,28.6
	L23.2,28.6z M23.2,26.3h0.9c0.2,0,0.4-0.1,0.5-0.2s0.2-0.3,0.2-0.5s-0.1-0.3-0.2-0.5c-0.1-0.1-0.3-0.2-0.6-0.2h-0.8V26.3z"/>
<rect x="30.2" y="24.4" width="0.8" height="4.3"/>
<path d="M39.2,28.6h-0.8l-0.7-1.7h-1.1v1.7h-0.8v-4.3h1.8c0.5,0,0.9,0.1,1.1,0.3c0.2,0.2,0.4,0.5,0.4,0.9c0,0.5-0.3,0.9-0.8,1.1
	L39.2,28.6z M36.6,26.3h1c0.3,0,0.5-0.1,0.6-0.2s0.2-0.3,0.2-0.5s-0.1-0.3-0.2-0.5C38.1,25,37.9,25,37.6,25h-1V26.3z"/>
<polygon points="46.7,28.6 43.9,28.6 43.9,24.4 46.6,24.4 46.6,25 44.7,25 44.7,26.2 46.2,26.2 46.2,26.8 44.7,26.8 44.7,28 
	46.7,28 "/>
<path d="M51.2,28.6v-4.3h1.6c0.6,0,1,0.2,1.4,0.6s0.5,0.9,0.5,1.5s-0.2,1.1-0.5,1.5c-0.4,0.4-0.9,0.6-1.6,0.6h-1.4V28.6z M52,28h0.6
	c0.3,0,0.6-0.1,0.9-0.4c0.2-0.3,0.4-0.6,0.4-1.2c0-0.4-0.1-0.8-0.3-1.1c-0.2-0.3-0.5-0.4-0.8-0.4H52V28z"/>
<polygon points="70,24.4 68.8,28.6 68,28.6 67.2,25.5 66.4,28.6 65.6,28.6 64.5,24.4 65.3,24.4 66.1,27.5 66.9,24.4 67.6,24.4 
	68.5,27.5 69.3,24.4 "/>
<path d="M75.9,28.7c-0.6,0-1-0.2-1.3-0.6s-0.5-0.9-0.5-1.6c0-0.6,0.2-1.1,0.5-1.6c0.3-0.4,0.8-0.6,1.3-0.6c0.6,0,1,0.2,1.3,0.6
	s0.5,0.9,0.5,1.6s-0.2,1.2-0.5,1.6S76.5,28.7,75.9,28.7 M75.9,28.1c0.3,0,0.5-0.1,0.7-0.3c0.2-0.2,0.3-0.6,0.3-1.2
	c0-0.5-0.1-0.9-0.2-1.1c-0.2-0.3-0.4-0.4-0.7-0.4c-0.7,0-1,0.5-1,1.6c0,0.5,0.1,0.9,0.3,1.2C75.4,27.9,75.6,28.1,75.9,28.1"/>
<path d="M85.7,28.6h-0.8l-0.7-1.7h-1.1v1.7h-0.8v-4.3h1.8c0.5,0,0.9,0.1,1.1,0.3c0.2,0.2,0.4,0.5,0.4,0.9c0,0.5-0.3,0.9-0.8,1.1
	L85.7,28.6z M83.1,26.3h1c0.3,0,0.5-0.1,0.6-0.2s0.2-0.3,0.2-0.5s-0.1-0.3-0.2-0.5C84.6,25,84.4,25,84.2,25h-1L83.1,26.3L83.1,26.3z
	"/>
<path d="M93.8,28.6h-0.9L92,26.5l-0.8,1.1v1.1h-0.8v-4.3h0.8v2.2c0.1-0.1,0.2-0.3,0.2-0.3l1.4-1.9h0.8l-1,1.4L93.8,28.6z"/>
</svg>
