<?xml version="1.0" encoding="utf-8"?>
<!-- Generator: Adobe Illustrator 26.0.1, SVG Export Plug-In . SVG Version: 6.00 Build 0)  -->
<svg version="1.1" id="Layer_1" xmlns="http://www.w3.org/2000/svg" xmlns:xlink="http://www.w3.org/1999/xlink" x="0px" y="0px"
	 viewBox="0 0 95 35" style="enable-background:new 0 0 95 35;" xml:space="preserve">
<style type="text/css">
	.st0{fill:#104076;}
	.st1{fill:#CCCCCC;}
</style>
<path class="st0" d="M-39.1,613.7"/>
<g>
	<g>
		<g>
			<polygon class="st1" points="25.2,24 25.6,24.6 25.6,28 26.7,28 26.7,24 			"/>
			<polygon class="st1" points="64.7,24.1 65.1,24.6 65.1,28.1 66.2,28.1 66.2,24.1 			"/>
			<polygon class="st1" points="31.6,24.1 32.1,24.6 32.1,28.1 33.2,28.1 33.2,24.1 			"/>
			<polygon class="st1" points="27.5,25.1 27.7,24 31,24 31.2,25.1 30.6,24.5 29.8,24.5 29.8,28.1 28.8,28.1 28.8,24.4 28.1,24.4 
							"/>
			<path class="st1" d="M36.9,25.2l-0.1-1c-0.6-0.1-1.2-0.3-1.8,0c-0.6,0.2-1.2,1.3-0.4,1.9c0.4,0.3,2.2,1,0.9,1.6
				c-0.5,0.1-1,0-1.3-0.7v0.6c0.4,0.2,0.8,0.5,1.3,0.5c1.2,0.1,1.7-1,1.3-1.7c-0.4-0.5-0.9-0.7-1.4-1c-0.4-0.2-0.3-0.9,0-1.1
				c0.3-0.1,0.7,0,1,0.2L36.9,25.2z"/>
			<polygon class="st1" points="37.6,24 38,24.6 38,28 39.2,28 39.2,26.2 40.7,26.2 40.7,28 41.8,28 41.8,24 40.7,24 40.7,25.6 
				39.2,25.6 39.2,24 			"/>
			<polygon class="st1" points="50,28.1 50.8,24.8 50.4,24.1 51.7,24.1 52.7,26 53.7,24 54.7,24 55.4,28.1 54.3,28.1 53.8,25.1 
				52.4,27.8 51,25.2 50.4,28.1 			"/>
			<polygon class="st1" points="56,24 56.4,24.5 56.4,28.1 59.1,28.1 59.1,27.3 58.7,27.6 57.4,27.6 57.4,26 58.8,26 58.8,25.5 
				57.4,25.5 57.4,24.5 58.9,24.5 58.9,24 			"/>
			<path class="st1" d="M70.7,25.3l-0.1-1c-1.9-0.8-3.6,0.2-3.2,2.3c0.1,0.7,1.1,1.5,2,1.4c0.6,0,0.8-0.1,1.2-0.2v-0.7
				c-0.6,0.5-1.2,0.8-2,0c-0.9-1.1-0.3-2.7,1.2-2.6C70.2,24.7,70.4,25,70.7,25.3"/>
			<polygon class="st1" points="75.8,24 76.2,24.8 76.2,28.1 76.7,28.1 76.7,25.4 79,28.1 79.6,28.1 79.6,24 79.1,24 79.1,26.7 
				76.9,24 			"/>
			<path class="st1" d="M18.4,23.4c1.2,0.2,1.2,1.7,0.1,2.1c1.5,0.5,1.5,2.2-0.2,2.6h-2.5V24l-0.4-0.6H18.4z M16.8,23.7v1.7
				c0.8,0,1.3-0.1,1.3-0.8C18.2,24,17.7,23.6,16.8,23.7z M16.8,25.8v1.8c1,0,1.5,0,1.6-0.9C18.4,25.8,17.8,25.7,16.8,25.8z"/>
			<path class="st1" d="M22.7,24.1c1.5,0,1.5,1.8,0.1,2.1l2,1.9h-1.4l-1.8-1.7v1.7h-1v-3.5l-0.4-0.6H22.7z M21.7,24.2v1.5
				c0.7,0,1.1-0.1,1.2-0.7C22.9,24.4,22.5,24.2,21.7,24.2z"/>
			<path class="st1" d="M62.2,24.1c1.5,0,1.4,1.7,0.1,2l2.1,2.1H63l-1.8-1.9v1.9h-0.9v-3.5l-0.4-0.5H62.2z M61.2,24.4v1.5
				c0.7,0,1.1-0.1,1.1-0.7C62.4,24.6,62,24.3,61.2,24.4z"/>
			<path class="st1" d="M44.7,28.1l1.9-4.3l-0.4-0.6h1.4l2.1,4.9h-1.2l-0.7-1.7h-1.7l-0.7,1.7H44.7z M47.7,26.1l-0.7-1.9l-0.8,1.9
				H47.7z"/>
			<path class="st1" d="M71.3,28.1l1.6-3.5l-0.4-0.5h1.2l1.7,4h-1l-0.5-1.3h-1.5l-0.6,1.3H71.3z M73.8,26.4l-0.6-1.6l-0.6,1.6H73.8z
				"/>
			<polygon class="st1" points="31.7,31.4 31.9,30.3 35.9,30.3 36.1,31.4 35.5,30.8 34.4,30.8 34.4,35 33.4,35 33.4,30.7 32.3,30.7 
							"/>
			<path class="st1" d="M53.7,32.2l0-1c-1.8-0.8-3.6,0.2-3.3,2.3c0.2,0.7,1.2,1.5,2.1,1.4c0.6,0,0.8-0.1,1.2-0.2V34
				c-0.6,0.5-1.1,0.8-1.9-0.1c-0.8-1-0.3-2.7,1.3-2.5C53.3,31.6,53.5,32,53.7,32.2"/>
			<path class="st1" d="M57.9,32.3l0-1c-1.9-0.8-3.6,0.2-3.3,2.3c0.2,0.7,1.1,1.5,2,1.4c0.6,0,0.8-0.1,1.2-0.2v-0.7
				c-0.6,0.5-1.1,0.8-1.9-0.1c-0.9-1-0.3-2.7,1.2-2.5C57.5,31.7,57.7,32,57.9,32.3"/>
			<path class="st1" d="M43.9,31c1.2,0.2,1.1,1.4,0.1,1.7c1.5,0.4,1.4,2-0.1,2.2h-2.4v-3.4L41.1,31H43.9z M42.5,31.3v1.4
				c0.8,0,1.2-0.1,1.3-0.7C43.8,31.5,43.4,31.2,42.5,31.3z M42.5,33.1v1.5c1,0,1.5,0,1.5-0.7C44,33.1,43.4,33,42.5,33.1z"/>
			<path class="st1" d="M45.6,34.9l1.5-3.4L46.8,31H48l1.6,3.9l-1,0l-0.4-1h-1.6l-0.4,1H45.6z M48.1,33.5l-0.6-1.7l-0.7,1.7H48.1z"
				/>
			<path class="st1" d="M38.4,31c1.2,0,2.2,0.9,2.2,2c0,1.1-1,2-2.2,2c-1.2,0-2.2-0.9-2.2-2C36.2,31.8,37.2,31,38.4,31 M37.2,33
				c0,1,0.5,1.7,1.1,1.7c0.6,0,1.1-0.7,1.1-1.7c0-0.9-0.5-1.7-1.1-1.7C37.8,31.3,37.2,32.1,37.2,33z"/>
			<path class="st1" d="M61.1,31c1.2,0,2.2,0.9,2.2,2c0,1.1-1,2-2.2,2c-1.2,0-2.2-0.9-2.2-2C58.9,31.8,59.9,31,61.1,31 M60,33
				c0,1,0.5,1.7,1.1,1.7c0.6,0,1.1-0.7,1.1-1.7c0-0.9-0.5-1.7-1.1-1.7C60.5,31.3,60,32.1,60,33z"/>
		</g>
		<path class="st1" d="M40.9,20.4c-5.6,0-10.8-5.5-12.1-11.8c5-0.3,11.1,1.6,13.9,4.4C42.5,8.2,44.6,3,47.5,0
			c3.6,3.3,4.9,9.6,4.8,13c4.1-3.1,8.5-4.3,13.9-4.1c-1.4,6.4-6.4,11.7-12.3,11.6l4.4-2.4l-5.6,1.7l8.2-7l-9.7,6.6l2.4-5l-3.7,4.8
			l0.8-5.1l-2.4,5L47.7,4.3L46.8,19l-2.3-5l1,5.1l-3.8-4.5l2.3,4.8L34,12.7l8.4,7l-5.5-1.9L40.9,20.4z"/>
	</g>
</g>
</svg>
