<?xml version="1.0" encoding="utf-8"?>
<!-- Generator: Adobe Illustrator 26.0.1, SVG Export Plug-In . SVG Version: 6.00 Build 0)  -->
<svg version="1.1" id="Layer_1" xmlns="http://www.w3.org/2000/svg" xmlns:xlink="http://www.w3.org/1999/xlink" x="0px" y="0px"
	 viewBox="0 0 95 35" style="enable-background:new 0 0 95 35;" xml:space="preserve">
<style type="text/css">
	.st0{fill:#104076;}
	.st1{fill:#343741;}
</style>
<path class="st0" d="M-39.1,613.7"/>
<path class="st1" d="M57.6,34.7L57.6,34.7l0.2-0.4l0,0c0.3,0.2,0.6,0.3,0.9,0.3c0.2,0,0.4,0,0.5-0.1c0.1,0,0.2-0.1,0.2-0.3
	c0-0.1,0-0.1,0-0.1C59.2,34,59,34,58.7,34c-0.6,0-0.7,0-0.8-0.1c-0.2-0.1-0.3-0.3-0.3-0.5c0-0.5,0.5-0.7,1-0.7
	c0.4,0,0.7,0.1,1.1,0.3l0,0l-0.2,0.4l0,0c-0.3-0.2-0.5-0.2-0.9-0.2c-0.2,0-0.3,0-0.4,0.1c-0.1,0-0.1,0.1-0.1,0.2c0,0,0,0.1,0,0.1
	c0,0.1,0.2,0.1,0.6,0.1c0.3,0,0.6,0,0.8,0.1c0.2,0.1,0.3,0.2,0.3,0.5c0,0.3-0.1,0.5-0.3,0.6C59.2,35,59,35,58.7,35
	C58.3,35,57.9,35,57.6,34.7 M50.6,34.9h-1.9v-2.1h1.9v0.4h-1.5v0.4h0.9V34h-0.9v0.5h1.5V34.9L50.6,34.9z M29.3,34.9h-1.9v-2.1h1.9
	v0.4h-1.5v0.4h0.9V34h-0.9v0.5h1.5V34.9L29.3,34.9z M35.2,34.9h-1.9v-2.1h1.9v0.4h-1.5v0.4h0.9V34h-0.9v0.5h1.5V34.9L35.2,34.9z
	 M47.5,34.9h-0.4v-1.4l-0.8,1.1l0,0l0,0l-0.8-1.1v1.4h-0.4v-2.1h0.4l0,0l0.8,1.2l0.8-1.2l0,0h0.4V34.9L47.5,34.9z M40,33.1
	c-0.4,0-0.9,0.2-0.9,0.7c0,0.5,0.4,0.7,0.8,0.7c0.4,0,0.9-0.2,0.9-0.7C40.8,33.3,40.4,33.1,40,33.1 M40,35c-0.6,0-1.2-0.4-1.2-1.1
	v-0.1c0-0.7,0.6-1.1,1.3-1.1c0.6,0,1.2,0.4,1.2,1.1C41.2,34.6,40.6,35,40,35 M24.7,34.5h0.8c0.4,0,0.7-0.3,0.7-0.7
	c0-0.4-0.3-0.7-0.7-0.7h-0.8V34.5z M25.5,34.9h-1.2v-2.2h1.2c0.7,0,1.1,0.4,1.1,1.1C26.6,34.5,26.2,34.9,25.5,34.9 M31.4,34.9h-0.4
	l0,0L30,32.8l0,0h0.5l0,0l0.9,1.6l0.9-1.6l0,0h0.5l0,0L31.4,34.9L31.4,34.9z M38,34.9h-1.7v-2.2h0.4v1.8H38V34.9L38,34.9z
	 M42.6,33.8h0.8c0.4,0,0.5-0.1,0.5-0.3c0-0.2-0.1-0.3-0.4-0.3h-0.8V33.8z M42.6,34.9h-0.4v-2.2h1.3c0.3,0,0.3,0,0.5,0.1
	c0.2,0.1,0.3,0.3,0.3,0.6c0,0.2-0.1,0.4-0.2,0.5c-0.2,0.2-0.3,0.2-0.7,0.2h-0.8V34.9L42.6,34.9z M53.7,34.9h-0.4l0,0L52,33.4v1.5
	h-0.4v-2.2H52l0,0l1.3,1.5v-1.5h0.4L53.7,34.9L53.7,34.9z M55.9,34.9h-0.4v-1.8h-0.8v-0.4h2v0.4h-0.8V34.9L55.9,34.9z M62.8,33.8
	h0.8c0.4,0,0.5-0.1,0.5-0.3c0-0.2-0.1-0.3-0.4-0.3h-0.8V33.8z M62.8,34.9h-0.4v-2.2h1.3c0.3,0,0.3,0,0.5,0.1
	c0.2,0.1,0.3,0.3,0.3,0.6c0,0.2-0.1,0.4-0.2,0.5c-0.2,0.2-0.3,0.2-0.7,0.2h-0.8L62.8,34.9L62.8,34.9z M67,34.9h-1.7v-2.2h0.4v1.8H67
	V34.9L67,34.9z M68.9,35c-0.6,0-1.3-0.4-1.3-1.1c0-0.8,0.6-1.1,1.3-1.1c0.4,0,0.8,0.1,1.1,0.4l0,0l0,0l-0.2,0.3l0,0l0,0
	c-0.3-0.2-0.5-0.3-0.9-0.3c-0.4,0-0.9,0.3-0.9,0.7c0,0.5,0.5,0.7,0.9,0.7c0.3,0,0.6-0.1,0.9-0.3l0,0l0,0l0.2,0.3l0,0l0,0
	C69.7,34.9,69.3,35,68.9,35 M38.3,25.8h1.9c0.5,0,0.8,0,1-0.2c0.2-0.2,0.4-0.5,0.4-0.8c0-0.9-0.8-1-1.2-1h-2V25.8z M42.6,29.2h-1
	l0,0l-1.6-2.5h-1.6v2.5h-0.9V23h2.4c1,0,1.3,0,1.8,0.3c0.5,0.3,0.8,0.9,0.8,1.5c0,0.6-0.2,1.1-0.7,1.5c-0.3,0.2-0.5,0.3-0.8,0.4
	L42.6,29.2L42.6,29.2z M46.8,25.8h1.9c0.5,0,0.8,0,1-0.2c0.2-0.2,0.4-0.5,0.4-0.8c0-0.9-0.8-1-1.2-1h-2V25.8z M51.1,29.2h-1l0,0
	l-1.6-2.5h-1.6v2.5H46V23h2.4c1,0,1.3,0,1.8,0.3c0.5,0.3,0.8,0.9,0.8,1.5c0,0.6-0.2,1.1-0.7,1.5c-0.3,0.2-0.5,0.3-0.8,0.4L51.1,29.2
	L51.1,29.2z M64.2,29.3h-0.9v-5.3h-2.2V23h5.3v0.9h-2.2V29.3L64.2,29.3z M71.9,29.3H71v-5.3h-2.2V23h5.3v0.9h-2.2V29.3L71.9,29.3z
	 M21.8,25.6h2.1c0.5,0,1.1-0.2,1.1-0.9c0-0.3-0.2-0.6-0.5-0.8c-0.1,0-0.2-0.1-0.6-0.1h-2.2L21.8,25.6z M21.8,28.4h2.1
	c0.7,0,0.9-0.1,1.1-0.2c0.2-0.2,0.3-0.4,0.3-0.7c0-0.6-0.5-1-1.4-1h-2.1L21.8,28.4z M23.9,29.3h-3V23h3c1.2,0,2,0.7,2,1.7
	c0,0.5-0.2,0.9-0.5,1.2c0.5,0.4,0.8,0.9,0.8,1.5c0,0.5-0.2,1-0.6,1.3C25.2,29.2,24.8,29.3,23.9,29.3 M30.6,26.5h1.9l-1-2.3
	L30.6,26.5z M34.6,29.3h-0.9l0,0l-0.8-1.9h-2.7l-0.8,1.9l0,0h-0.9l0-0.1l2.6-6.1l0,0h0.8l0,0L34.6,29.3L34.6,29.3z M55.6,26.5h1.9
	l-1-2.3L55.6,26.5z M59.6,29.3h-0.9l0,0l-0.8-1.9h-2.7l-0.8,1.9l0,0h-0.9l0-0.1l2.6-6.1l0,0h0.8l0,0L59.6,29.3L59.6,29.3z"/>
<path class="st1" d="M48.3,11.8L48.3,11.8l-0.2,0.1l0,0.1l0,0.1l0,0.1l0,0l0,0l0.1-0.1l0-0.1L48.3,11.8L48.3,11.8L48.3,11.8z"/>
<path class="st1" d="M53.3,9L53.3,9l-0.2,0l0,0l0,0l0,0l0,0l0,0.1l0,0.1l0,0l-0.1,0l0,0l0,0.1l0,0l0,0.1l0,0l0,0l0,0L53,9.5l0,0l0,0
	l-0.1,0.1l0,0.2l0,0.1l0,0l-0.1-0.1l-0.1,0l-0.1,0L52.3,10L52.2,10l0,0l-0.1,0L52,10l0,0l0,0l-0.1,0l-0.1,0l0,0l0,0l0,0l-0.1,0l0,0
	l0,0l0,0l0,0l0.1,0.1l0.1,0.1l0.1,0.1l0,0.1l0,0.1l0,0l0,0l0.1,0.1l0,0.1l0,0.1l-0.1,0.2l-0.1,0.1l0,0l0,0l0,0l-0.1,0l-0.2,0l-0.1,0
	l0,0l0,0l0,0l0.1,0l0.1,0l0.1,0l0.1,0l0.2,0l0.2,0l0.2,0.1l0.1,0.1l0,0.1l0,0.2l0,0.1l0,0.1l0,0.1l0,0.1l0,0.1l-0.1,0.1l-0.1,0.1
	l0,0l-0.1,0l-0.1,0l-0.1,0l-0.1,0l-0.1,0.1l0,0l-0.1,0l0,0l0,0.1l-0.1,0l0,0l-0.1,0.1l-0.1,0l0,0l-0.1,0.1l0,0l-0.1,0l0,0l0,0l0,0
	l-0.1,0l0,0l-0.2,0l-0.3,0.1l-0.1,0L50,12.7l-0.1-0.1l-0.1,0l-0.1,0l-0.1,0l-0.1,0l0,0l0-0.1l0,0l-0.3-0.1L49,12.4l-0.1-0.1
	l-0.1-0.1l-0.1,0l0,0l0,0l0,0l-0.1,0.1l-0.1,0.1l-0.1,0.1l0,0.1l-0.1,0.3l0,0.2l0,0.2l0,0.1l0,0.1l0.1,0.1l0,0l0,0l0,0l0,0l0.1,0.1
	l0.1,0l0.2,0.1l0.4,0.1l0.2,0l0,0l0,0l0,0l-0.1,0l-0.2,0L49,14l-0.9-0.1l-0.2,0l0,0L47.8,14L47.6,14l-0.2,0.1l-0.1,0l-0.2,0l-0.1,0
	l-0.2,0l-0.2,0l-0.1,0l-0.3,0l-0.1,0l0,0l0,0l0,0l0.1,0l0.1,0l0.3,0l0.2-0.1l0.3,0l0.1,0l0.1-0.1l0.1-0.1l0.1-0.1l0-0.1l0-0.2l0-0.2
	l0-0.3l0-0.2l0-0.1l-0.1-0.1l-0.1,0l-0.1,0l-0.1,0.1l-0.1,0l-0.2,0l-0.1,0l-0.1,0l-0.1,0l-0.1,0l0,0l0,0l0-0.1l0.1,0l0.1-0.1
	l0.1-0.2l0,0l0,0l-0.1,0l-0.2,0l0,0l0,0l0,0.2l0,0.1l-0.1,0.1l-0.1,0.1l-0.1,0l0,0l0-0.1l0,0l-0.2,0l-0.2,0l-0.2,0l-0.1,0l-0.1,0
	l0,0l0-0.1l-0.1-0.1l-0.1,0l-0.1,0l0,0l0,0l0-0.1l0.1-0.1l0,0l0,0l-0.1,0l0,0l0,0l0,0.1l0,0l-0.1,0.1l0,0.1l0,0l-0.1,0l-0.1,0
	l-0.1,0l-0.2,0l-0.1,0l-0.1,0l0,0l-0.1,0.1l-0.1,0l0,0l-0.1,0l0,0l0,0l0,0l0-0.1l0,0l0,0l-0.1,0l-0.1,0l-0.1,0l-0.1,0L43,12.5l0,0
	l0,0l-0.1,0l-0.1,0l0,0l0-0.1l0,0l0,0l-0.1,0l-0.1,0l0,0l0,0.1l0,0l-0.1,0l0,0l0,0l0,0l0,0l-0.1,0.1l0,0l0,0l0,0l-0.1,0l0,0l0-0.1
	l0-0.1l0-0.1l0.2-0.2l0-0.1l0,0l0.1,0l0,0v0l0,0l0,0l0,0l-0.1,0l0,0l0,0l0,0l0-0.1l0-0.1l0-0.1l0.1,0l0.1,0l0,0l0-0.1l0-0.1l0,0
	l0.1,0l0,0h0l0,0l0,0l0-0.1l0-0.1l0,0l-0.1,0l0,0l0,0l0-0.1l0.1-0.1l0-0.1l0.1-0.2l0-0.1l0,0l0,0l0.1,0l0.1,0l0,0l0.1,0l0.1,0l0,0
	l0.1,0.1l0.1,0l0,0l0,0l0.1,0l0,0l0-0.1l0,0l0.1,0l0.1,0l0,0l0,0l0,0l-0.1-0.1l0,0l0,0l0.1-0.1l0.1-0.1l0.1-0.1l0.1,0l0.1,0l0.1,0
	l0,0l0,0l0-0.1l0-0.1l0.1-0.1l0.1-0.1l0.2,0l0.1,0l0.1,0l0,0l0,0l0,0.1l0,0l0.1,0l0.1,0l0.1,0l0.1,0L45.1,9l0,0l0,0l0,0l-0.1,0
	L44.6,9l0,0l-0.1,0l-0.1,0l-0.1,0L44.2,9l-0.1,0L44,9l-0.1,0l-0.1-0.1l-0.1-0.1l-0.1,0l0,0l-0.1,0.1l0,0l-0.1,0l-0.1,0l0,0l0-0.1
	l0,0l0.1-0.2l0,0l0,0l0,0l0,0l0.1-0.1l0.1-0.1l0.1,0l0,0l0.2-0.1L44.1,8l0-0.1l0,0l0,0l-0.1,0l-0.1,0L43.7,8l-0.1,0l-0.1,0l0,0l0,0
	l0,0l-0.2,0l-0.1,0l-0.1,0l0,0l0,0l-0.1,0.1L43,8.3l-0.1,0.1l-0.1,0l-0.1,0l-0.1-0.1l0,0v0l0-0.1L42.9,8l0.1-0.1L43,7.8l0-0.1l0-0.2
	l0-0.1l0.1-0.2L43.2,7l0-0.1l0,0l0-0.1l0,0l0.1,0l0,0l0,0l0-0.1l0.1-0.1l0.1-0.1l0.1-0.1l0-0.1l0,0l0.1,0l0.1,0l0.1-0.1l0.1-0.1
	l0.1-0.1l0.1-0.1l0,0l0.1,0l0.1,0l0.1,0L44.8,6l0.1,0l0,0l0,0l0,0l0,0l0.1,0L45.2,6l0.1,0l0.1,0l0.1,0l0.1,0.1l0.1,0l0.1,0L45.7,6
	l0-0.1l0,0l0,0l-0.1-0.1l0,0l0,0l0-0.1l0.1-0.1l0,0l0,0l0,0l-0.1,0l0,0l0,0l0-0.1l0-0.1l0.1-0.2l0,0l0.1,0l0,0L45.8,5L46,4.9L46,4.9
	l0,0l0,0l0,0l-0.1,0l-0.1,0l0,0l0-0.1l-0.1-0.1l0,0l0,0l0,0l0.1,0l0.1-0.1l0.2-0.1l0.1-0.1l0-0.1l0,0L46.3,4l0.2,0l0.1,0l0.2-0.2
	l0.1-0.1l0,0l0.1,0l0.1,0l0.1,0l0.3-0.1l0.1,0l0.1,0l0.1,0l0.1,0l0.1,0l0.1,0l0.1,0.1l0.1,0l0.1,0l0.1,0l0,0.1l0,0.2l0,0l0,0l0.1,0
	l0.1,0l0.1,0l0.1,0l0.1,0l0.1,0l0.1,0l0,0l0.1-0.1l0,0l0.1,0l0.1,0l0.1,0.1l0.1,0l0,0L50,4.1l0.1,0L50.4,4l0.1,0l0.1,0l0.1,0.1
	l0.2,0.2l0.1,0.1l0,0.2l0,0l0.1,0l0.1,0.1l0.1,0.1l0,0.2l0.1,0.2l0,0.1l0,0l-0.1,0l0,0l0,0l0,0l0,0l0.1,0l0.2-0.1l0.2,0l0.1,0l0.1,0
	l0,0L52,5.5l0,0.1l0,0.1l-0.1,0.1l-0.1,0.1l0,0.1l0,0l0,0l0.1,0l0,0l0,0.1l0,0l0,0l0,0l0,0l0,0l0,0.1l0,0.1l0,0l0.1,0l0.1,0l0.1,0
	l0.1,0.1l0,0.1l0,0.1l0,0.1l-0.2,0.4l-0.1,0.1l-0.1,0.1l0,0.1l0,0l0,0.1l0,0.1l-0.1,0.1l0,0l0,0l0,0l0.1,0l0.1,0l0.5,0l0.1,0l0,0
	l0,0.1l0,0.1l0,0.1L52.9,8l0,0.1l0,0l0,0.1l0.1,0l0.1,0.1l0,0.1l0,0.1l0,0.1l0.1,0.1l0.1,0.2l0,0.1L53.3,9L53.3,9z M56,5.7
	c-2-4.7-7.4-7-12.1-5s-7,7.4-5,12.1c2,4.7,7.4,7,12.1,5C55.7,15.9,57.9,10.5,56,5.7"/>
</svg>
