<?xml version="1.0" encoding="utf-8"?>
<!-- Generator: Adobe Illustrator 26.0.1, SVG Export Plug-In . SVG Version: 6.00 Build 0)  -->
<svg version="1.1" id="Layer_1" xmlns="http://www.w3.org/2000/svg" xmlns:xlink="http://www.w3.org/1999/xlink" x="0px" y="0px"
	 viewBox="0 0 95 35" style="enable-background:new 0 0 95 35;" xml:space="preserve">
<style type="text/css">
	.st0{fill:#104076;}
	.st1{fill:#343741;}
</style>
<path class="st0" d="M-39.1,613.7"/>
<g>
	<path class="st1" d="M33.4,28v3.6h-0.7v-0.7h0c-0.4,0.5-1.1,0.8-1.9,0.8c-1.7,0-2.9-1.2-2.9-3.8S29,24,30.7,24
		c1.3,0,2.2,0.6,2.7,2.2l-0.8,0.2c-0.4-1.2-1-1.6-1.9-1.6c-1.1,0-2.1,0.7-2.1,3.1s1,3.1,2.1,3.1c1.2,0,1.8-0.7,1.8-1.6v-0.6h-1.7V28
		H33.4z"/>
	<path class="st1" d="M34.6,26.2h0.7v1.1h0c0.4-0.7,0.9-1.1,1.7-1.1v0.7c-0.9,0-1.4,0.6-1.8,1.7v3h-0.7V26.2z"/>
	<path class="st1" d="M39.5,26.7c-0.9,0-1.5,0.8-1.5,2.1c0,1.4,0.6,2.1,1.5,2.1c0.9,0,1.5-0.8,1.5-2.1C41,27.5,40.4,26.7,39.5,26.7
		 M39.5,31.6c-1.5,0-2.2-1.2-2.2-2.8c0-1.5,0.7-2.8,2.2-2.8c1.5,0,2.2,1.2,2.2,2.8C41.7,30.4,41,31.6,39.5,31.6"/>
	<path class="st1" d="M45.8,31.5v-0.7h0c-0.4,0.5-1,0.8-1.6,0.8c-0.8,0-1.5-0.4-1.5-1.6v-3.9h0.7v3.9c0,0.7,0.3,0.9,0.9,0.9
		c0.6,0,1.2-0.5,1.5-0.8v-4h0.7v5.4H45.8z"/>
	<path class="st1" d="M48.8,30.3c0.4,0.4,0.9,0.7,1.3,0.7c0.9,0,1.5-0.6,1.5-2.2c0-1.4-0.6-2.1-1.5-2.1c-0.5,0-0.8,0.2-1.3,0.7V30.3
		z M48,33.5v-7.3h0.7v0.6h0c0.3-0.4,0.9-0.7,1.4-0.7c0.9,0,2.2,0.6,2.2,2.8c0,2.1-1.2,2.8-2.2,2.8c-0.5,0-1-0.3-1.4-0.6l0,0v2.5H48z
		"/>
	<path class="st1" d="M7.8,5c0.6-0.1,1.1-0.5,1.4-1c0.3,0.2,0.8,0.4,1.2,0.4c0.6,0,1.1-0.2,1.5-0.7c0.4,0.4,0.9,0.7,1.5,0.7
		c0.4,0,0.9-0.1,1.2-0.4C15,4.5,15.4,4.9,16,5c0.3,0.1,0.7,0.1,1,0l-0.8,1.3c-1.3-0.5-2.7-0.8-4.2-0.8c-1.5,0-2.9,0.3-4.2,0.8L6.9,5
		C7.2,5.1,7.5,5.1,7.8,5 M8.8,2.1c0.4-0.1,0.8,0.2,0.9,0.6c0.1,0.4-0.2,0.8-0.6,0.9C8.7,3.7,8.3,3.5,8.2,3C8.1,2.6,8.4,2.2,8.8,2.1
		 M11.9,2c0.4,0,0.8,0.3,0.8,0.8c0,0.4-0.3,0.8-0.8,0.8c-0.4,0-0.8-0.3-0.8-0.8C11.2,2.3,11.5,2,11.9,2 M14.1,2.7
		c0.1-0.4,0.5-0.7,0.9-0.6c0.4,0.1,0.7,0.5,0.6,0.9c-0.1,0.4-0.5,0.7-0.9,0.6C14.3,3.5,14.1,3.1,14.1,2.7 M16.2,6.9
		C16.2,6.9,16.1,6.9,16.2,6.9C16.1,7,16.1,7,16,6.9c-1.3-0.6-2.7-0.8-4.1-0.8c-1.4,0-2.8,0.3-4.1,0.8c0,0-0.1,0-0.1,0c0,0,0,0,0,0
		c0,0,0-0.1,0.1-0.2l0.1,0c1.3-0.5,2.7-0.8,4.1-0.8c1.4,0,2.8,0.3,4.1,0.8l0.1,0C16.1,6.8,16.2,6.8,16.2,6.9 M7.3,6.6
		c-0.1,0.1-0.1,0.3,0,0.4C7.4,7.3,7.7,7.4,8,7.3c1.2-0.5,2.5-0.8,4-0.8c1.4,0,2.7,0.3,4,0.8c0.3,0.1,0.6,0,0.7-0.3
		c0.1-0.1,0.1-0.3,0-0.4l1.6-2.6c0.2-0.5-0.1-0.8-0.4-0.7c-0.3,0.1-0.6,0.3-0.6,0.3c-0.3-0.2-0.7-0.4-1.1-0.5c0,0,0,0,0-0.1
		c0.1-0.7-0.3-1.3-1-1.5c-0.3-0.1-0.7,0-0.9,0.2C14,2,13.8,2.2,13.7,2.5c-0.2,0-0.4,0-0.5-0.1c0-0.2-0.2-0.5-0.4-0.6
		c-0.2-0.2-0.5-0.4-0.9-0.4c-0.3,0-0.6,0.1-0.9,0.4c-0.2,0.2-0.3,0.4-0.4,0.6c-0.2,0-0.4,0-0.5,0.1C10.1,2.2,9.9,2,9.6,1.8
		C9.4,1.7,9,1.6,8.7,1.7C8,1.8,7.6,2.5,7.7,3.1c0,0,0,0,0,0.1C7.4,3.4,7,3.5,6.7,3.7c0,0-0.3-0.2-0.6-0.3C5.8,3.3,5.4,3.6,5.7,4.1
		L7.3,6.6z"/>
	<path class="st1" d="M22.8,17c-0.1,0-0.3-0.1-0.3-0.3c0-0.1,0.1-0.3,0.3-0.3c0.1,0,0.3,0.1,0.3,0.3C23.1,16.9,23,17,22.8,17
		 M22.2,17.7c-0.3,0-0.5-0.2-0.4-0.3c0.2-0.1,0.3-0.3,0.3-0.3c0.1,0.1,0.6,0.2,0.6,0.2S22.5,17.7,22.2,17.7 M21.8,16.3
		c0.1-0.2,0.5-0.1,0.5,0c-0.1,0.1-0.1,0.4-0.1,0.4S21.6,16.7,21.8,16.3 M21.2,11.9c0,0,0-0.1,0-0.2c0,0,0.1,0.1,0.1,0.1
		c0.1,0.1,0,0.4-0.2,0.6l0,0c-0.2,0.2-0.5,0.5-0.7,0.8c-0.1,0.1-0.2,0-0.1-0.1c0.2-0.2,0.4-0.5,0.7-0.8l0,0
		C21.2,12.2,21.2,12,21.2,11.9 M20.9,15c0.1-0.2-0.1-0.3-0.2-0.1c-1.1,1.3-0.3,2.7-0.3,2.7s-0.8-0.3-0.8-1.5c0-1.2,1.4-2.7,1.9-3.2
		c0.5-0.5,0.6-1.6-0.5-1.6c-1.1,0-2.2,1.3-2.2,1.3c-0.2-0.3-0.7,0.3-0.7,0.3s0-0.2,0.1-1c0.2-0.7,0.6-0.9,0.6-0.9s-0.1,0.5,0,0.7
		c0.1,0.2,0.2,0.1,0.2-0.1c-0.1-1,0.7-0.8,0.7-0.8s-0.4,0.4-0.2,0.5c0.2,0.2,0.7-0.4,1.8-0.4c0.9,0,2.1,0.4,2.1,1.6
		c0,1.2-1.4,2.4-2,3c-1.1,1,0.2,2.3,0.2,2.3C20.7,17.9,19.9,16.5,20.9,15 M21.1,20.5c0,0,0,0.4-0.4,0.4c-0.4,0-0.6-0.3-0.6-0.3
		s-0.1,0.2,0,0.5c0.1,0.2,0.4,0.8,0.2,0.9c-0.2,0.1-0.4-0.2-0.6-0.9c-0.2-0.7-0.3-1.6-0.5-1.6c-0.2,0-0.1,1.2,0.3,2.2
		c0.4,1,0.6,1.5,1.4,2.3c0.8,0.7,1.3,1.3,1.3,2.1c0,0.8-0.4,0.9-0.4,1.2c0,0.3,0.1,0.4-0.1,0.5c-0.2,0.1-0.3,0-0.3-0.2
		c-0.1-0.2-0.3-0.2-0.4,0c-0.1,0.2,0,0.4,0.2,0.4c0.3,0.1,0.2,0.4,0.2,0.4s-0.6-0.4-0.6-0.5c0-0.1,0.1-1.5,0.1-1.7
		c0-0.2,0.1-0.2,0.3-0.1c0.1,0.2,0.8,0.5,0.8-0.2c0-0.7-1.4-1.7-1.5-1.7c-0.2-0.2-0.2-0.4-0.4-0.6c-0.2-0.2-0.6-0.7-0.7-0.9
		c-0.1-0.1-0.3-0.1-0.2,0.1c0.1,0.2,0,0.3-0.1,0.1c-0.1-0.1-0.3-0.3-0.5-0.1c-0.2,0.2-0.4,0.4-0.4,0.2c0-0.2-0.1-0.3-0.1-0.4
		c0-0.1,0.1-0.2,0.3-0.4c0.2-0.2,0.4-0.4,0.4-0.8c0-0.4-0.2-0.4-0.2-1.2s0.4-2.1,1.1-2.1c0.7,0,0.5,1,0.5,1.5S20.5,20.9,21.1,20.5
		 M20.9,28.8c-1.2,2.2-3.5,3.6-6.2,3.6c-0.6,0-1.1-0.1-1.7-0.2c-0.3-0.1-0.2-0.1-0.1-0.2c0.1-0.1,0.3-0.5,0.3-0.8
		c0.1-0.3,0.1-0.4,0.3-0.4c0.4,0.1,0.7,0.1,1.1,0.1c2.2,0,4-1.2,5-3c0.2-0.3,0.3-0.1,0.4,0c0.1,0.1,0.5,0.5,0.7,0.6
		C20.9,28.5,20.9,28.7,20.9,28.8 M20.5,31.2c-0.2,0.2-0.6,0.1-0.6,0.1s0-0.4,0.3-0.6C20.5,30.6,20.8,31,20.5,31.2 M19.4,32.4
		C19.2,32,19.8,32,19.8,32C20,32.4,19.7,32.7,19.4,32.4 M12.4,31.6c-0.2,0-0.3-0.1-0.5-0.1s-0.3,0-0.5,0.1c-0.2,0-0.3-0.2-0.3-0.4
		c0-0.2-0.1-0.4-0.3-0.7c-0.1-0.3-0.2-0.5,0-0.5c0.3-0.1,0.7-0.2,1-0.2c0.4,0,0.7,0,1,0.2c0.2,0.1,0.1,0.3,0,0.5
		c-0.1,0.3-0.2,0.5-0.3,0.7C12.7,31.4,12.6,31.6,12.4,31.6 M10.9,32.2c-0.5,0.1-1.1,0.2-1.7,0.2c-2.7,0-5-1.5-6.2-3.6
		c-0.1-0.1-0.1-0.3,0.1-0.4c0.2-0.1,0.6-0.5,0.7-0.6c0.1-0.1,0.3-0.3,0.4,0c1,1.8,2.8,3,5,3c0.4,0,0.8,0,1.1-0.1
		c0.2,0,0.2,0.1,0.3,0.4c0.1,0.3,0.2,0.7,0.3,0.8C11.1,32.1,11.2,32.2,10.9,32.2 M4.4,32.4c-0.3,0.3-0.6,0-0.4-0.4
		C4,32,4.7,32,4.4,32.4 M3.3,31.2c-0.3-0.3,0-0.7,0.3-0.5c0.2,0.2,0.3,0.6,0.3,0.6S3.5,31.5,3.3,31.2 M2.4,28.4c0,0-0.1-0.3,0.2-0.4
		c0.2-0.1,0.3-0.3,0.2-0.4c-0.1-0.2-0.4-0.2-0.4,0c-0.1,0.2-0.2,0.3-0.3,0.2C1.9,27.8,2,27.7,2,27.3c0-0.3-0.4-0.5-0.4-1.2
		c0-0.8,0.5-1.4,1.3-2.1c0.8-0.7,1-1.3,1.4-2.3c0.4-1,0.5-2.2,0.3-2.2c-0.2,0-0.3,0.9-0.5,1.6c-0.2,0.7-0.3,1-0.6,0.9
		c-0.2-0.1,0.1-0.7,0.2-0.9c0.1-0.2,0-0.5,0-0.5s-0.2,0.3-0.6,0.3c-0.4,0-0.4-0.4-0.4-0.4c0.5,0.4,0.9-0.2,0.9-0.7s-0.2-1.5,0.5-1.5
		c0.7,0,1.1,1.3,1.1,2.1s-0.2,0.8-0.2,1.2c0,0.4,0.2,0.6,0.4,0.8c0.2,0.2,0.4,0.3,0.3,0.4c0,0.1-0.1,0.2-0.1,0.4
		c0,0.2-0.3,0-0.4-0.2c-0.2-0.2-0.4-0.1-0.5,0.1c-0.1,0.1-0.2,0-0.1-0.1c0.1-0.2-0.2-0.2-0.2-0.1c-0.1,0.1-0.5,0.7-0.7,0.9
		c-0.2,0.2-0.2,0.5-0.4,0.6c-0.1,0.1-1.5,1-1.5,1.7c0,0.7,0.7,0.4,0.8,0.2C2.8,26,2.9,26.1,3,26.2c0,0.2,0.1,1.6,0.1,1.7
		C3,28,2.4,28.4,2.4,28.4 M2.8,12.4L2.8,12.4c0.3,0.3,0.5,0.6,0.8,0.8c0.1,0.1,0,0.2-0.1,0.1c-0.3-0.3-0.5-0.5-0.7-0.8l0,0
		c-0.2-0.2-0.3-0.5-0.2-0.6c0,0,0-0.1,0.1-0.1c0,0,0,0.2,0,0.2C2.6,12,2.7,12.2,2.8,12.4 M2.9,15c1,1.5,0.2,2.9-0.6,2.9
		c0,0,1.2-1.3,0.2-2.3c-0.6-0.6-2-1.7-2-3c0-1.2,1.2-1.6,2.1-1.6c1.1,0,1.7,0.6,1.8,0.4c0.2-0.2-0.2-0.5-0.2-0.5S5,10.6,5,11.6
		c0,0.2,0.1,0.3,0.2,0.1c0.1-0.3,0-0.7,0-0.7s0.4,0.1,0.6,0.9c0.2,0.7,0.1,1,0.1,1s-0.5-0.5-0.7-0.3c0,0-1.1-1.3-2.2-1.3
		c-1.1,0-1,1-0.5,1.6c0.5,0.5,1.9,2,1.9,3.2c0,1.2-0.8,1.5-0.8,1.5s0.8-1.4-0.3-2.7C3,14.7,2.8,14.8,2.9,15 M2.1,7.8
		c0.2-0.4,0.5-0.2,0.5-0.2s0-0.3,0.2-0.4C3,7,3.3,7.3,3.4,7.2c0.1,0,0-0.4,0.2-0.5C3.9,6.6,3.9,7.2,4,7.1c0.1-0.1,0-0.6,0.2-0.7
		c0.2-0.2,0.4-0.3,0.5-0.1c0.1,0.3,0,0.8,0.3,0.8c0.3,0,0.5-0.2,0.5-0.1c0.1,0.1-0.4,0.2-0.4,0.5c0,0.2-0.3,0.1-0.4,0.2
		C4.6,7.7,4,7.7,4,8.4c0,0.8,1,0.8,1,0.8l0.4,0.6l0.1,0.9l-0.9-0.3c0,0-0.3-0.2-0.6-1C3.7,8.6,3.8,8.1,3.8,7.8
		c0-0.3-0.2-0.3-0.3-0.1C3.4,8,3.5,8.2,3.4,8.3C3.3,8.3,3.2,7.9,3,8c-0.5,0.4,1.1,2.5,1.1,2.5c-0.4-0.2-1.3-0.9-1.3-0.9
		S2,9.9,2.1,9.3c0.1-0.6,0.5-0.1,0.6-0.5C2.8,8.3,1.9,8.1,2.1,7.8 M6.1,9.3c0.1,0,0.2,0.1,0.2,0.2c0,0.1-0.1,0.2-0.2,0.2
		C6,9.7,6,9.7,5.9,9.6c-0.1,0-0.1,0.1-0.1,0.3L6,10.2c0.3,0.7,0.3,1.2,0.2,1.4c0,0.1-0.1,0.1-0.1,0c0-0.3,0-0.7-0.2-1.4L5.7,10
		C5.6,9.7,5.7,9.3,6.1,9.3 M6.3,13.2l0.1-0.7c0.1,0,0.2,0.2,0.2,0.3C6.6,13,6.5,13.2,6.3,13.2 M17.6,13.2c-0.2,0-0.3-0.2-0.3-0.3
		c0-0.2,0.1-0.3,0.2-0.3L17.6,13.2z M6.8,9.7C7.4,10,8.9,9.8,9.5,9.5C10,9.2,11,9.1,11,9.1c0,0.2,0.1,0.4,0.3,0.5
		c0.2,0.2,0.4,0.3,0.7,0.3c0.2,0,0.5-0.1,0.7-0.3c0.1-0.1,0.2-0.3,0.3-0.5c0,0,1.1,0.1,1.6,0.4c0.5,0.3,2.1,0.5,2.7,0.2l0.5,0.4
		c-0.5,1.2-0.2,1.9-0.2,1.9c-0.2,0-0.3,0.1-0.4,0.2c-0.2,0.2-0.2,0.4-0.2,0.6c0,0.5,0.4,0.8,0.8,0.8c0,0,0.6,1.2,0.6,3.4
		c0,3.5-1.5,6.6-1.6,6.7c-0.1,0.2-0.6,0.1-0.5-0.3c0.1-0.4,0-0.5-0.4-0.4c-0.5,0.1-2.1,0.6-3.1,2.9c-0.1,0.2-0.4,0.4-0.6-0.5
		c-0.2,0.8-0.5,0.7-0.6,0.5c-0.9-2.3-2.6-2.8-3.1-2.9c-0.5-0.1-0.6,0-0.4,0.4c0.1,0.4-0.4,0.4-0.5,0.3c-0.1-0.2-1.6-3.3-1.6-6.7
		c0-2.1,0.6-3.4,0.6-3.4c0.5,0,0.8-0.4,0.8-0.8c0-0.2-0.1-0.4-0.2-0.6c-0.1-0.1-0.3-0.2-0.4-0.2c0,0,0.3-0.7-0.2-1.9L6.8,9.7z
		 M7.3,8.9c0.3,0,0.2,0.5,0,0.5c-0.1,0-0.3,0-0.3-0.1L6.7,9.1C6.7,9.1,7.1,8.9,7.3,8.9 M7.6,8.1C7.8,8,8.1,7.9,8.1,8
		C8.1,8.1,8,8.1,8,8.2c0,0.1-0.2,0.2-0.3,0.3C7.5,8.7,7.5,8.2,7.6,8.1 M8.8,7.6C9,7.6,9.2,7.5,9.2,7.6c0,0.1-0.1,0.1-0.1,0.3
		c0,0.2-0.7,0.4-0.7,0.4C8.5,8,8.6,7.7,8.8,7.6 M9.9,7.3c0.2,0,0.4-0.1,0.4,0c0,0.1-0.1,0.1-0.1,0.2c0,0.2-0.7,0.3-0.7,0.3
		C9.6,7.6,9.7,7.3,9.9,7.3 M7.8,8.9c0,0,1.5-1,2.9-0.9c0,0-1.3,1.1-2.1,1.3c-0.3,0-0.6,0.1-0.9,0.1C7.8,9.4,7.9,9.1,7.8,8.9
		 M11.1,7.1c0.2,0,0.4-0.1,0.4,0c0,0.1-0.1,0.1-0.2,0.2c-0.1,0.2-0.8,0.2-0.8,0.2C10.7,7.4,10.9,7.1,11.1,7.1 M11.9,8.6
		c0.2,0,0.4,0.2,0.4,0.4c0,0.2-0.2,0.4-0.4,0.4c-0.2,0-0.4-0.2-0.4-0.4C11.5,8.8,11.7,8.6,11.9,8.6 M11.9,7.3c0,0,0.2,0.2,0.2,0.2
		c0,0-0.1,0-0.2,0c-0.1,0-0.2,0-0.2,0C11.7,7.4,11.9,7.3,11.9,7.3 M12.7,7.1c0.2,0,0.4,0.3,0.5,0.5c0,0-0.7,0-0.8-0.2
		c-0.1-0.2-0.2-0.1-0.2-0.2C12.3,7.1,12.5,7.1,12.7,7.1 M13.9,7.3c0.2,0,0.4,0.3,0.5,0.5c0,0-0.7-0.1-0.7-0.3c0-0.2-0.2-0.1-0.1-0.2
		C13.5,7.2,13.7,7.3,13.9,7.3 M14.7,7.6c0-0.1,0.2,0,0.4,0.1c0.2,0.1,0.3,0.4,0.4,0.6c0,0-0.7-0.2-0.7-0.4
		C14.8,7.7,14.6,7.7,14.7,7.6 M16,9.4c-0.3,0-0.6-0.1-0.9-0.1C14.4,9.1,13.1,8,13.1,8c1.4,0,2.9,0.9,2.9,0.9C16,9.1,16,9.4,16,9.4
		 M15.8,8c0-0.1,0.3,0.1,0.5,0.1c0.1,0.1,0.1,0.5-0.1,0.4c-0.2-0.1-0.3-0.2-0.3-0.3C15.8,8.1,15.7,8.1,15.8,8 M16.5,8.9
		c0.3,0,0.6,0.2,0.6,0.2l-0.3,0.1c-0.1,0-0.2,0.1-0.3,0.1C16.3,9.4,16.3,8.9,16.5,8.9 M17,24.9c-0.1-0.1-0.2-0.3,0-0.4
		c0.1,0,0.1,0.1,0.1,0.4c0,0.2,0.1,0.3,0.2,0.4c0.1,0.1,0.1,0.2-0.1,0.3c-0.2,0.1-0.3,0-0.3-0.1C17,25.2,17.1,25,17,24.9 M14.2,26.1
		c0,0.1-0.1,0.2-0.2,0.2c-0.1,0-0.2-0.1-0.2-0.2c0-0.1,0.1-0.2,0.2-0.2C14.1,25.9,14.2,26,14.2,26.1 M15.7,24.6c0,0-0.2,0.3-0.4,0.5
		c0,0-0.2,0-0.3-0.1c-0.2,0-0.5,0-0.5,0C14.9,24.5,15.7,24.6,15.7,24.6 M16.2,24.8c0.2,0,0.4,0.2,0.4,0.2s-0.6,0.3-0.8,0.2
		c-0.1-0.1-0.2-0.1-0.2-0.1S16,24.8,16.2,24.8 M14.6,24.5c-0.6,0.3-0.8,0.4-0.8,0.4c0.7-0.8,1.4-1.2,1.9-1.3c0,0.2,0.1,0.5,0.3,0.6
		C15.9,24.2,15.2,24.2,14.6,24.5 M8.2,25.2c0,0,0,0-0.2,0.1c-0.1,0.1-0.8-0.2-0.8-0.2s0.2-0.2,0.4-0.2C7.9,24.8,8.2,25.2,8.2,25.2
		 M9.4,25c0,0-0.3,0-0.5,0c-0.2,0-0.3,0.1-0.3,0.1c-0.1-0.1-0.4-0.5-0.4-0.5S8.9,24.5,9.4,25 M10.1,26.1c0,0.1-0.1,0.2-0.2,0.2
		c-0.1,0-0.2-0.1-0.2-0.2c0-0.1,0.1-0.2,0.2-0.2C10,25.9,10.1,26,10.1,26.1 M9.3,24.5C8.6,24.2,8,24.2,8,24.2
		c0.2-0.1,0.3-0.4,0.3-0.6c0.5,0.1,1.2,0.5,1.9,1.3C10.1,24.9,9.9,24.8,9.3,24.5 M6.8,25.4c0,0.2-0.1,0.2-0.3,0.1
		c-0.2-0.1-0.2-0.2-0.1-0.3c0.1-0.1,0.2-0.2,0.2-0.4c0-0.2,0-0.4,0.1-0.4c0.2,0.1,0.2,0.3,0,0.4C6.8,25,6.8,25.2,6.8,25.4 M5.3,13
		c0.2-0.2,0.3,0.1,0.3,0.2c-0.1,0.1-0.3,0.3-0.3,0.5C5.3,13.7,5,13.3,5.3,13 M5.6,21.9c-0.1-0.1-0.2-0.2-0.2-0.5c0,0,0-0.1,0.1,0
		C5.5,21.5,5.6,21.7,5.6,21.9 M5.2,17c0-2.2,0.6-3.5,0.6-3.6c0-0.1,0.2-0.1,0.1,0.1c0,0.1-0.6,1.3-0.6,3.5c0,3.2,1.1,6,1.5,6.7
		c0,0.1-0.1,0.1-0.1,0.1C6.4,23,5.2,20.2,5.2,17 M5.6,23.8c-0.2-0.3,0.3-0.7,0.5-0.5C6.3,23.5,5.8,24,5.6,23.8 M4.2,26
		c0-0.1,0-0.2,0.1-0.3l0.4,0.6c0,0-0.1,0-0.1,0C4.4,26.3,4.2,26.2,4.2,26 M3.9,26.4c0.2,0.3,0.6,0.5,0.9,0.3
		c0.3-0.2,0.4-0.4,0.5-0.3c0.1,0.1,0.2,0.2,0.3,0.4c0.1,0.3,0.2,0.4,0,0.5C5.3,27.6,5,27.2,5,27.2c-0.2,0.2-0.4,0.6-0.4,0.6
		c-0.1-0.2-0.3-0.7-0.4-0.8c0,0-0.3,0.1-0.5,0.3c-0.1,0.2-0.3,0.3-0.3,0.2c0-0.3,0-0.7-0.1-1.2c0-0.3-0.2-0.5-0.4-0.6
		c-0.1,0-0.3-0.1-0.6,0.1c0.1-0.2,0.4-0.6,1.2-1.1c0,0,0,0,0.1,0c0.1-0.1,0.3-0.2,0.3,0c0,0.1,0,0.7,0.1,0.8c0.1,0.1,0,0.1-0.1,0.3
		C3.8,25.6,3.7,26.1,3.9,26.4 M5.2,28c0.2,0.1,0.4,0,0.6,0.1c0.2,0,0.3,0,0.3,0.2v0.6c0,0.1-0.1,0.1-0.2-0.1
		c-0.1-0.1-0.1-0.3-0.1-0.3C5.5,28.4,5.2,28,5.2,28 M13.1,29.6c-0.4-0.1-0.8-0.2-1.2-0.2c-0.4,0-0.8,0.1-1.2,0.2
		c-0.3,0.1-0.6,0.3-0.6,0.4c0.1,0.2,0.1,0.3,0.1,0.3c-0.3,0.1-0.7,0.1-1,0.1c-1.1,0-2.2-0.4-3.1-1.1c0,0,0.8-0.2,0.8-1.6
		c0-0.7-0.1-1.1-0.1-1.1c1.9,0,2.3-0.6,2.3-0.6c0,0.2,0.1,0.4,0.2,0.5c0.1,0.1,0.3,0.2,0.5,0.2c0.4,0,0.7-0.3,0.7-0.7
		c0,0,0.2,0.2,0.2,0.4c0.1,0.2-0.1,0.2-0.3,0.4c-0.4,0.3,0.2,1.1,0.7,0.7c0.2-0.2,0.7-0.6,0.7-0.6s0.5,0.4,0.7,0.6
		c0.5,0.3,1.1-0.4,0.7-0.7c-0.2-0.1-0.3-0.2-0.3-0.4c0.1-0.2,0.2-0.4,0.2-0.4c0,0.4,0.3,0.7,0.7,0.7c0.2,0,0.4-0.1,0.5-0.2
		c0.1-0.1,0.2-0.3,0.2-0.5c0,0,0.5,0.6,2.3,0.6c0,0-0.1,0.4-0.1,1.1c0,1.4,0.8,1.6,0.8,1.6c-0.9,0.7-2,1.1-3.1,1.1
		c-0.3,0-0.7,0-1-0.1c0,0-0.1-0.1,0.1-0.3C13.8,29.9,13.5,29.7,13.1,29.6 M18.3,23.8c-0.2,0.3-0.7-0.3-0.5-0.5
		C18,23.1,18.5,23.5,18.3,23.8 M18,28.8c-0.1,0.1-0.2,0.2-0.2,0.1v-0.6c0-0.1,0.1-0.2,0.3-0.2c0.2,0,0.4,0.1,0.6-0.1
		c0,0-0.2,0.4-0.6,0.4C18,28.5,18.1,28.6,18,28.8 M19.1,26.3l0.4-0.6c0.1,0.1,0.1,0.2,0.1,0.3c0,0.2-0.2,0.4-0.4,0.4
		C19.2,26.3,19.1,26.3,19.1,26.3 M20,26.4c0.2-0.3,0.1-0.8-0.1-0.9c-0.1-0.1-0.2-0.2-0.1-0.3c0.1-0.1,0.1-0.6,0.1-0.8
		c0-0.2,0.2-0.1,0.3,0c0,0,0,0,0.1,0c0.8,0.6,1,0.9,1.2,1.1c-0.2-0.2-0.5-0.2-0.6-0.1c-0.2,0.1-0.4,0.3-0.4,0.6
		c-0.1,0.6-0.1,1-0.1,1.2c0,0.1-0.1,0-0.3-0.2c-0.1-0.2-0.5-0.3-0.5-0.3c-0.1,0.1-0.3,0.6-0.4,0.8c0,0-0.2-0.4-0.4-0.6
		c0,0-0.3,0.5-0.5,0.3c-0.2-0.1-0.1-0.3,0-0.5c0.1-0.3,0.2-0.3,0.3-0.4c0.1-0.1,0.2,0.1,0.5,0.3C19.4,26.9,19.8,26.7,20,26.4
		 M18.3,21.9c0-0.2,0.1-0.3,0.1-0.5c0.1,0,0,0.1,0.1,0C18.5,21.7,18.3,21.7,18.3,21.9 M18.5,13c0.3,0.3,0,0.7,0,0.7
		c0-0.2-0.2-0.4-0.3-0.5C18.2,13.1,18.4,12.9,18.5,13 M18.6,17c0,3.2-1.2,6-1.5,6.8c0,0.1-0.2,0-0.1-0.1c0.4-0.7,1.5-3.5,1.5-6.7
		c0-2.2-0.6-3.4-0.6-3.5c-0.1-0.1,0.1-0.2,0.1-0.1C18,13.5,18.6,14.8,18.6,17 M17.8,9.3c0.4,0,0.5,0.4,0.4,0.7L18,10.3
		c-0.2,0.7-0.2,1.1-0.2,1.4c0,0.1-0.1,0.1-0.1,0c0-0.3,0-0.8,0.2-1.4L18,9.9c0-0.2,0-0.3-0.1-0.3c0,0.1-0.1,0.1-0.2,0.1
		c-0.1,0-0.2-0.1-0.2-0.2C17.5,9.4,17.6,9.3,17.8,9.3 M18.3,7c0.1-0.1,0.3,0.1,0.5,0.1s0.2-0.5,0.3-0.8c0.1-0.3,0.3-0.1,0.5,0.1
		c0.2,0.2,0,0.7,0.2,0.7c0.1,0.1,0.1-0.6,0.4-0.4c0.2,0.1,0.1,0.5,0.2,0.5c0.1,0,0.3-0.2,0.6-0.1c0.2,0.1,0.2,0.4,0.2,0.4
		s0.3-0.2,0.5,0.2c0.2,0.4-0.8,0.5-0.6,1c0.1,0.4,0.6-0.1,0.6,0.5c0.1,0.6-0.7,0.4-0.7,0.4s-0.9,0.7-1.3,0.9c0,0,1.6-2.1,1.1-2.5
		c-0.2-0.1-0.3,0.3-0.4,0.2c-0.1,0-0.1-0.3-0.1-0.5c-0.1-0.2-0.3-0.2-0.3,0.1c0,0.3,0.1,0.7-0.2,1.5c-0.3,0.8-0.6,1-0.6,1l-0.9,0.3
		l0.1-0.9l0.4-0.6c0,0,1,0,1-0.8c0-0.7-0.6-0.8-0.7-0.8c-0.1,0-0.4,0.1-0.4-0.2C18.7,7.2,18.2,7.1,18.3,7 M1.7,16.8
		c0,0-0.1-0.3-0.1-0.4c-0.1-0.1,0.4-0.2,0.5,0C2.2,16.7,1.7,16.8,1.7,16.8 M1.6,17.7c-0.3,0-0.5-0.3-0.5-0.3s0.5-0.1,0.6-0.2
		c0,0,0.2,0.2,0.3,0.3C2.1,17.4,1.9,17.7,1.6,17.7 M0.8,16.7c0-0.1,0.1-0.3,0.3-0.3c0.1,0,0.3,0.1,0.3,0.3C1.3,16.9,1.2,17,1,17
		C0.9,17,0.8,16.9,0.8,16.7 M22.5,15.7c-0.8,0-1,0.7-1,1c0,0.2,0,0.3,0,0.2c-0.2-0.5,0-0.8,0.2-1l0.2-0.2c0.7-0.7,2-1.8,2-3.1
		c0-1.9-2.1-2.5-2.1-2.5c0.1,0,0.1,0,0.2-0.1c0.1-0.1,0.3-0.3,0.3-0.8c0-0.3-0.2-0.6-0.4-0.7c0.2-0.2,0.6-0.5,0.4-1
		c-0.1-0.3-0.4-0.4-0.5-0.5c0,0,0,0-0.1,0c-0.1-0.1-0.2-0.3-0.4-0.3c-0.2-0.1-0.3-0.1-0.4-0.1c-0.1-0.1-0.2-0.3-0.4-0.4
		c-0.1,0-0.2-0.1-0.3-0.1c0-0.1-0.1-0.1-0.1-0.2c-0.3-0.3-0.6-0.4-0.8-0.3c-0.2,0.1-0.2,0-0.2,0s-0.8-0.4-1.7,0.4
		c-0.9,0.8-0.7,1.7-0.7,1.7c-1.4-0.8-3-1.2-4.7-1.2S8.6,7.2,7.2,7.9c0,0,0.2-0.9-0.7-1.7C5.7,5.4,4.9,5.8,4.9,5.8s0,0-0.2,0
		c-0.2,0-0.5,0-0.8,0.3C3.8,6.1,3.7,6.2,3.7,6.2c-0.1,0-0.2,0-0.3,0.1C3.2,6.4,3.1,6.5,3,6.6c-0.1,0-0.3,0-0.5,0.1
		C2.4,6.8,2.3,6.9,2.2,7.1c0,0,0,0-0.1,0C2,7.1,1.8,7.3,1.6,7.6C1.4,8.1,1.8,8.4,2,8.5C1.8,8.7,1.6,8.9,1.6,9.2
		c0,0.4,0.1,0.7,0.3,0.8c0.1,0,0.1,0.1,0.2,0.1c0,0-2.1,0.6-2.1,2.5c0,1.3,1.2,2.5,2,3.1l0.2,0.2c0.2,0.2,0.4,0.5,0.2,1
		c-0.1,0.1-0.1,0,0-0.2c0-0.2-0.2-1-1-1c-1.6,0-1.2,2.6,0.8,2.6c0.7,0,1.3-0.3,1.3-0.3c-0.4,0.4-0.3,1-0.3,1.5c0,0.1,0,0.2,0,0.3
		c0,0.2,0,0.3-0.1,0.4c0,0,0,0,0,0c-0.3,0.1-0.3-0.5-0.3-0.5c-0.3,0.1-0.5,0.6-0.4,1c0,0.4,0.3,0.8,0.8,0.8c0,0-0.7,0.4-0.5,1
		c0.2,0.6,0.3,0.9,0.3,0.9c-0.1,0.1-0.2,0.2-0.3,0.2c-0.9,0.8-1.5,1.5-1.5,2.5c0,0.6,0.2,0.9,0.3,1.1c0,0,0.1,0.1,0.1,0.1
		c0,0.1,0,0.1,0,0.2c0,0.2-0.1,0.6,0.4,0.8l0.3,0c-0.1,0.3,0,0.9,0.1,1.1c0.1,0.2,0.5-0.1,0.5-0.1c0.2,0.3,0.4,0.6,0.6,0.8l-0.4,0.4
		c-0.3,0.3-0.3,0.8,0,1.1c0.2,0.2,0.4,0.3,0.6,0.3c-0.2,0.4,0,0.8,0.3,1c0.3,0.2,0.7,0.1,1-0.2l0.5-0.8c1.1,0.7,2.5,1,3.9,1
		c1.8,0,2.6-0.4,2.6-0.4c0-0.1-0.3-0.5-0.3-0.5c0.1,0,0.3-0.1,0.4-0.1c0.1,0,0.2,0,0.4,0.1c0,0-0.3,0.4-0.3,0.5c0,0,0.9,0.4,2.6,0.4
		c1.4,0,2.7-0.4,3.9-1l0.5,0.8c0.3,0.3,0.7,0.4,1,0.2c0.3-0.2,0.5-0.6,0.3-1c0.2,0,0.4-0.1,0.6-0.3c0.3-0.3,0.3-0.8,0-1.1l-0.4-0.4
		c0.2-0.3,0.4-0.5,0.6-0.8c0,0,0.4,0.3,0.5,0.1c0.1-0.2,0.2-0.8,0.1-1.1l0.2,0c0.4-0.2,0.4-0.6,0.4-0.8c0-0.1,0-0.1,0-0.2
		c0,0,0-0.1,0.1-0.1c0.1-0.2,0.3-0.5,0.3-1.1c0-1-0.6-1.7-1.5-2.5c-0.1-0.1-0.2-0.2-0.3-0.2c0,0,0.1-0.3,0.3-0.9
		c0.2-0.6-0.5-1-0.5-1c0.5-0.1,0.7-0.5,0.8-0.8c0-0.4-0.1-0.8-0.4-1c0,0,0,0.6-0.3,0.5c0,0,0,0,0,0c-0.1,0-0.1-0.2-0.1-0.4
		c0-0.1,0-0.2,0-0.3c0-0.5,0.1-1.1-0.3-1.5c0,0,0.6,0.3,1.3,0.3C23.7,18.3,24.1,15.7,22.5,15.7"/>
	<path class="st1" d="M4,28.9c0-0.1,0-0.2,0-0.2l0-0.1c0-0.1,0-0.2,0.1-0.2c0.1-0.1,0.2,0,0.2,0.1c0.1,0.2-0.1,0.3,0,0.4
		c0,0,0,0,0.1,0c0,0,0.1-0.1,0.1-0.1c0,0,0,0,0-0.1c0-0.1,0-0.2-0.1-0.3c0-0.1-0.1-0.2-0.2-0.2c-0.1,0-0.2,0-0.3,0
		c-0.1,0.1-0.1,0.1-0.2,0.2c0,0.1,0,0.2,0,0.2c0,0,0,0.1,0,0.2c0,0,0,0.1-0.1,0.1c-0.1,0.1-0.2,0-0.3-0.1c0-0.1,0-0.1,0-0.2
		c0-0.1,0-0.1,0.1-0.1c0,0,0-0.1,0-0.1c0,0-0.1,0-0.1,0c-0.1,0.1-0.1,0.2-0.1,0.2c0,0.1,0,0.2,0.1,0.2c0.1,0.1,0.1,0.2,0.2,0.2
		c0.1,0,0.2,0,0.3,0C4,29.1,4,29,4,28.9"/>
	<path class="st1" d="M5,29.5C5,29.5,5,29.5,5,29.5c0.1,0,0.1,0,0.1,0c0,0,0-0.1,0-0.1L5,29.3c0,0-0.1-0.1-0.1,0c0,0,0,0,0,0.1
		C4.9,29.4,4.9,29.4,5,29.5l-0.4,0.2c-0.1,0.1-0.1,0.1-0.2,0.2c-0.1,0-0.2,0-0.2-0.1c-0.1-0.1-0.1-0.1,0-0.2c0-0.1,0.1-0.1,0.2-0.2
		l0.3-0.3c0.1,0,0.1,0,0.1,0c0,0,0,0,0.1,0c0,0,0-0.1,0-0.1l-0.2-0.2c0,0-0.1,0-0.1,0c0,0,0,0,0,0.1l0,0c0,0,0,0.1,0,0.1l-0.3,0.3
		c-0.1,0.1-0.2,0.2-0.2,0.3c0,0.1,0.1,0.2,0.1,0.3C4,29.9,4.1,30,4.3,30c0.1,0,0.2-0.1,0.3-0.2L5,29.5z"/>
	<path class="st1" d="M5.2,30c0-0.1-0.1-0.1,0-0.2c0.1-0.1,0.2-0.1,0.2,0c0.2,0.1,0,0.3,0.1,0.3c0,0,0.1,0,0.1,0
		c0,0,0.1-0.1,0.1-0.1c0,0,0,0,0-0.1c0-0.1-0.1-0.2-0.2-0.3c-0.1-0.1-0.2-0.1-0.3-0.1c-0.1,0-0.2,0-0.3,0.1
		c-0.1,0.1-0.1,0.2-0.1,0.3c0,0.1,0.1,0.2,0.1,0.2c0,0,0.1,0.1,0.1,0.2c0,0,0,0.1,0,0.1c-0.1,0.1-0.2,0.1-0.3,0c0,0-0.1-0.1-0.1-0.2
		c0-0.1,0-0.1,0-0.2c0,0,0-0.1,0-0.1c0,0-0.1,0-0.1,0c-0.1,0.1,0,0.2,0,0.3c0,0.1,0.1,0.2,0.2,0.2c0.1,0.1,0.2,0.1,0.3,0.1
		c0.1,0,0.2-0.1,0.3-0.1c0.1-0.1,0.1-0.2,0.1-0.2C5.4,30.3,5.3,30.2,5.2,30L5.2,30z"/>
	<path class="st1" d="M6,31.2c-0.1,0-0.2,0-0.3,0c-0.1-0.1-0.1-0.1-0.1-0.3c0-0.1,0.1-0.2,0.1-0.3c0.1-0.1,0.1-0.2,0.2-0.2
		c0.1-0.1,0.2-0.1,0.3,0c0,0,0.1,0.1,0.1,0.1c0,0.1,0,0.1,0,0.2c0,0,0,0.1,0,0.1c0,0,0.1,0,0.1,0c0,0,0.1-0.1,0.1-0.2c0,0,0,0,0-0.1
		c0-0.1-0.1-0.2-0.2-0.2c-0.2-0.1-0.6-0.1-0.8,0.2c-0.2,0.3-0.1,0.6,0.1,0.8c0.1,0,0.2,0.1,0.3,0.1c0.1,0,0.2,0,0.2-0.1
		c0,0,0-0.1,0-0.1C6.1,31.2,6.1,31.2,6,31.2"/>
	<path class="st1" d="M6.5,31.6C6.5,31.5,6.5,31.5,6.5,31.6l0.3-0.8c0,0,0-0.1,0.1-0.1l0,0c0,0,0,0,0.1,0c0,0,0-0.1,0-0.1l-0.2-0.1
		c0,0-0.1,0-0.1,0c0,0,0,0,0,0.1l0,0c0,0,0,0.1,0,0.1l-0.3,0.7c0,0,0,0.1-0.1,0.1l0,0c0,0,0,0-0.1,0c0,0,0,0.1,0,0.1L6.5,31.6
		C6.5,31.7,6.5,31.7,6.5,31.6C6.5,31.6,6.5,31.6,6.5,31.6L6.5,31.6z"/>
	<path class="st1" d="M7.5,31.2c-0.1,0.2-0.2,0.2-0.4,0.2L7.2,31c0,0,0-0.1,0-0.1c0,0,0.1,0,0.1,0C7.5,30.9,7.5,31,7.5,31.2
		 M7.7,30.9c-0.1-0.1-0.1-0.1-0.2-0.1l-0.4-0.1c0,0-0.1,0-0.1,0c0,0,0,0,0,0.1l0,0c0,0,0,0.1,0,0.1l-0.2,0.7c0,0,0,0.1,0,0.1l0,0
		c0,0,0,0,0,0c0,0,0,0.1,0,0.1l0.2,0.1c0,0,0.1,0,0.1,0c0,0,0,0,0-0.1c0,0,0,0,0-0.1c0,0,0,0,0-0.1l0.1-0.2c0.1,0,0.2,0.1,0.4,0
		c0.1,0,0.2-0.1,0.3-0.2C7.8,31.1,7.7,31,7.7,30.9"/>
	<path class="st1" d="M8.5,31l-0.6-0.1c0,0-0.1,0-0.1,0c0,0,0,0,0,0.1l0,0c0,0,0,0.1,0,0.1l-0.1,0.7c0,0,0,0.1,0,0.1l0,0
		c0,0,0,0,0,0c0,0,0,0.1,0.1,0.1l0.6,0.1c0.1,0,0.1,0,0.1-0.1c0,0,0-0.1,0.1-0.1c0,0,0-0.1,0-0.1c0,0-0.1,0-0.1,0.1
		C8.3,32,8.2,32,8.1,32C8,32,7.9,32,8,31.8l0-0.3l0.2,0c0.1,0,0.1,0.1,0.1,0.1c0.1,0,0.1-0.1,0.1-0.1c0,0,0-0.1,0-0.1
		c0,0,0,0.1-0.1,0l-0.2,0l0-0.3c0,0,0,0,0,0c0,0,0.1,0,0.1,0c0,0,0.1,0,0.1,0c0,0,0.1,0,0.1,0.1c0,0,0,0.1,0.1,0.1
		c0,0,0.1,0,0.1-0.1C8.6,31.2,8.6,31.1,8.5,31C8.5,31.1,8.5,31,8.5,31"/>
	<path class="st1" d="M8.9,31.6l0-0.3c0,0,0-0.1,0-0.1c0,0,0.1,0,0.1,0c0.1,0,0.2,0.1,0.2,0.2C9.2,31.6,9,31.6,8.9,31.6 M9.5,32.1
		C9.5,32.1,9.5,32.1,9.5,32.1c-0.1-0.2-0.2-0.4-0.2-0.5c0.1-0.1,0.2-0.2,0.2-0.3c0-0.1,0-0.2-0.1-0.2c-0.1,0-0.1,0-0.2,0l-0.5,0
		c0,0-0.1,0-0.1,0.1c0,0,0,0,0,0l0,0c0,0,0,0.1,0,0.1l0,0.7c0,0,0,0.1,0,0.1l0,0c0,0,0,0,0,0c0,0,0,0.1,0.1,0.1l0.3,0
		c0,0,0.1,0,0.1-0.1c0,0,0,0,0-0.1l0,0c0,0,0-0.1,0-0.1l0-0.3l0.1,0c0.1,0.1,0.2,0.3,0.2,0.4c0,0-0.1,0-0.1,0.1c0,0.1,0,0.1,0.1,0.1
		L9.5,32.1C9.5,32.2,9.6,32.2,9.5,32.1C9.6,32.2,9.5,32.2,9.5,32.1"/>
	<path class="st1" d="M10.4,31.9C10.4,31.9,10.4,31.9,10.4,31.9C10.3,32,10.3,32,10.2,32c-0.2,0-0.2,0-0.2-0.1l0-0.3l0.2,0
		c0.1,0,0.1,0,0.1,0c0.1,0,0-0.1,0-0.1c0,0,0-0.1-0.1-0.1c0,0,0,0.1-0.1,0.1l-0.2,0l0-0.3c0,0,0,0,0-0.1c0,0,0.1,0,0.1,0
		c0,0,0.1,0,0.1,0c0,0,0.1,0,0.1,0.1c0,0,0,0,0.1,0c0,0,0,0,0-0.1c0,0,0-0.1,0-0.1c0,0-0.1,0-0.1,0l-0.6,0.1c0,0-0.1,0-0.1,0.1
		c0,0,0,0,0,0l0,0c0,0,0,0.1,0,0.1L9.7,32c0,0,0,0.1,0,0.1l0,0c0,0,0,0,0,0.1c0,0,0,0,0.1,0l0.6-0.1c0.1,0,0.1,0,0.1-0.1
		C10.5,32,10.5,31.9,10.4,31.9C10.5,31.9,10.5,31.9,10.4,31.9"/>
	<path class="st1" d="M15,31.1C15,31.1,14.9,31.1,15,31.1l-0.7,0c0,0-0.1,0-0.1,0.1c0,0,0,0,0,0.1l0,0c0,0,0,0.1,0,0.1l0,0.7
		c0,0,0,0.1,0,0.1l0,0c0,0,0,0,0,0.1c0,0,0,0.1,0.1,0.1h0.3c0,0,0.1,0,0.1-0.1c0,0,0,0,0-0.1l0,0c0,0,0-0.1,0-0.1l0-0.3h0.2
		c0.1,0,0.1,0.1,0.1,0.1c0.1,0,0-0.1,0-0.1c0,0,0-0.1,0-0.1c0,0,0,0.1-0.1,0.1l-0.2,0l0-0.3c0,0,0-0.1,0-0.1c0,0,0.1,0,0.1,0
		c0.1,0,0.2,0,0.2,0.1c0,0,0,0,0.1,0c0,0,0-0.1,0-0.1C15,31.2,15,31.1,15,31.1"/>
	<path class="st1" d="M16,32L16,32C16,32,16,31.9,16,32l-0.2-0.8c0,0,0-0.1,0-0.1l0,0c0,0,0,0,0-0.1c0,0,0,0-0.1,0l-0.2,0
		c0,0-0.1,0-0.1,0.1c0,0,0,0,0,0l0,0c0,0,0,0,0,0.1l0.1,0.7c0,0,0,0.1,0,0.1l0,0c0,0,0,0,0,0.1c0,0,0,0,0.1,0l0.2,0
		C16,32.1,16.1,32.1,16,32C16.1,32,16,32,16,32"/>
	<path class="st1" d="M17.2,30.7C17.2,30.7,17.2,30.7,17.2,30.7c0-0.1,0-0.1,0-0.1c0,0,0,0,0-0.1c0-0.1-0.1,0-0.1,0l-0.1,0
		c0,0-0.1,0-0.1,0.1c0,0,0,0,0,0c0,0,0,0,0.1,0c0,0,0,0,0,0l0.2,0.5L17,31c-0.1-0.1-0.3-0.2-0.4-0.3c0,0-0.1,0-0.1,0l-0.2,0.1
		c0,0-0.1,0-0.1,0.1c0,0,0,0,0.1,0c0.1,0,0.1,0.1,0.1,0.1l0.2,0.6c0,0,0,0,0,0.1c0,0,0,0,0,0.1c0,0,0,0,0,0.1c0,0,0.1,0,0.1,0l0.1,0
		c0,0,0.1,0,0.1-0.1c0,0,0,0,0,0c0,0,0,0-0.1,0c0,0,0,0,0,0l-0.2-0.6l0.6,0.5c0,0,0.1,0.1,0.1,0.1c0,0,0,0,0.1,0
		c0.1,0,0.1-0.1,0-0.1L17.2,30.7z"/>
	<path class="st1" d="M18.4,31L18.4,31C18.4,31,18.3,31,18.4,31l-0.5-0.7c0,0,0-0.1,0-0.1l0,0c0,0,0,0,0-0.1c0,0-0.1,0-0.1,0
		l-0.2,0.1c0,0,0,0,0,0.1c0,0,0,0,0.1,0h0c0,0,0,0,0.1,0.1l0.4,0.6c0,0,0,0.1,0,0.1l0,0c0,0,0,0,0,0.1c0,0,0.1,0,0.1,0l0.2-0.1
		C18.5,31.1,18.5,31.1,18.4,31C18.4,31,18.4,31,18.4,31"/>
	<path class="st1" d="M18.9,30l-0.2-0.2c0,0-0.1-0.1-0.1-0.1c0,0,0-0.1,0.1-0.1c0.1-0.1,0.2-0.1,0.3,0C19,29.8,18.9,29.9,18.9,30
		 M19.7,30c0,0-0.1,0-0.1,0c-0.1-0.1-0.3-0.1-0.4-0.2c0-0.1,0-0.3-0.1-0.4c-0.1-0.1-0.2-0.1-0.2-0.1c-0.1,0-0.1,0.1-0.2,0.1
		l-0.3,0.3c0,0,0,0.1,0,0.1c0,0,0,0,0.1,0l0,0c0,0,0.1,0,0.1,0l0.5,0.5c0,0,0.1,0,0,0.1l0,0c0,0,0,0,0,0.1c0,0,0.1,0,0.1,0l0.2-0.2
		c0,0,0-0.1,0-0.1c0,0,0,0-0.1,0l0,0c0,0-0.1,0-0.1,0l-0.2-0.2L19,30c0.1,0,0.3,0.1,0.4,0.2c0,0,0,0.1,0,0.1c0,0,0.1,0,0.1,0
		L19.7,30C19.7,30.1,19.7,30,19.7,30C19.7,30,19.7,30,19.7,30"/>
	<path class="st1" d="M20.4,28.7C20.4,28.7,20.4,28.7,20.4,28.7c-0.1,0-0.1,0.1-0.1,0.1c0,0.1,0,0.1,0,0.2c-0.1,0.1-0.1,0.2-0.3,0.1
		L19.9,29l0.1-0.2c0.1-0.1,0.1,0,0.1-0.1c0,0,0-0.1-0.1-0.1c0,0-0.1-0.1-0.1,0c0,0,0,0.1,0,0.1l-0.1,0.2l-0.2-0.2c0,0,0,0,0-0.1
		c0,0,0-0.1,0.1-0.1c0,0,0.1-0.1,0.1-0.1c0,0,0.1,0,0.1,0c0,0,0.1,0,0.1,0c0,0,0-0.1,0-0.1c0,0-0.1-0.1-0.1-0.1c0,0,0,0-0.1,0.1
		l-0.3,0.5c0,0,0,0.1,0,0.1c0,0,0,0,0.1,0l0,0c0,0,0.1,0,0.1,0l0.6,0.4c0,0,0.1,0,0.1,0.1v0c0,0,0,0,0,0.1c0,0,0.1,0,0.1,0l0.4-0.5
		c0,0,0-0.1,0-0.1C20.5,28.8,20.5,28.8,20.4,28.7"/>
	<path class="st1" d="M12,31C12,31,12,31,12,31c-0.1,0.2-0.2,0.2-0.3,0.2c-0.2,0-0.2,0-0.2-0.2l0-0.3l0.2,0c0.1,0,0.1,0,0.1,0
		c0.1,0,0-0.1,0-0.1c0,0,0-0.1-0.1-0.1c0,0,0,0.1-0.1,0.1l-0.2,0l0-0.3c0,0,0,0,0-0.1c0,0,0.1,0,0.1,0c0,0,0.1,0,0.1,0
		c0,0,0.1,0,0.1,0.1c0,0,0,0,0.1,0c0,0,0,0,0-0.1c0,0,0-0.1,0-0.2c0,0-0.1,0-0.1,0l-0.7,0.1c0,0-0.1,0-0.1,0.1c0,0,0,0,0,0l0,0
		c0,0,0,0.1,0,0.1l0.1,0.8c0,0,0,0.1,0,0.1l0,0c0,0,0,0,0,0.1c0,0,0,0.1,0.1,0l0.7-0.1c0.1,0,0.1,0,0.1-0.1
		C12.1,31.1,12.1,31.1,12,31C12.1,31,12,31,12,31"/>
	<path class="st1" d="M12.9,30.2l-0.7-0.1c0,0,0,0-0.1,0c0,0-0.1,0.1-0.1,0.1c0,0,0,0,0,0.1c0,0,0,0.1,0,0.1c0.1,0,0.1-0.1,0.3-0.1
		c0.1,0,0,0,0,0.1l-0.2,0.8c0,0,0,0.1,0,0.1l0,0c0,0,0,0,0,0c0,0,0,0.1,0.1,0.1l0.3,0.1c0,0,0.1,0,0.1,0c0,0,0,0,0-0.1l0,0
		c0,0,0-0.1,0-0.1l0.2-0.8c0-0.1,0-0.1,0.1-0.1c0.2,0,0.1,0.2,0.2,0.2c0,0,0.1,0,0.1-0.1c0,0,0,0,0-0.1C12.9,30.4,13,30.3,12.9,30.2
		C12.9,30.2,12.9,30.2,12.9,30.2"/>
	<path class="st1" d="M10.6,18.9c0,1.8,0,2.2,1,2.2c1.6,0,2.6-0.6,2.6-2.3c0-2.1-1.6-2.4-3.3-2.4h-0.3V18.9z M10.6,15.9H11
		c1.4,0,2.8-0.4,2.8-2.1c0-1.4-0.9-1.6-2.2-1.6c-0.3,0-0.6,0-1,0.1V15.9z M9.2,13.8c0-0.7,0-1.5-0.3-2c1.4,0,2.8-0.2,4.1-0.2
		c1.2,0,2.3,0.5,2.3,1.9c0,1.4-1.1,2-2.2,2.5v0c1.4,0.3,2.7,0.9,2.7,2.6c0,2.5-1.9,3.2-4,3.2c-1.1,0-2.1-0.1-3.2-0.1
		c0.5-1.1,0.5-2.7,0.5-3.9V13.8z"/>
	<path class="st1" d="M31,17.7c0,2.7,0,3.3,1.6,3.3c2.4,0,3.8-0.9,3.8-3.4c0-3.2-2.3-3.5-5-3.5H31V17.7z M31,13.2h0.6
		c2,0,4.1-0.7,4.1-3.1c0-2.1-1.4-2.4-3.3-2.4c-0.4,0-0.9,0-1.4,0.1V13.2z M28.9,10.1c0-1,0-2.3-0.5-3.1c2,0,4.1-0.2,6.2-0.2
		c1.8,0,3.5,0.8,3.5,2.8c0,2-1.6,3-3.3,3.7v0c2.2,0.5,4,1.4,4,3.9c0,3.7-2.8,4.7-6,4.7c-1.6,0-3.1-0.1-4.7-0.1
		c0.8-1.7,0.8-4.1,0.8-5.8V10.1z"/>
	<path class="st1" d="M44.4,14.5c1.1,0,1.7,0,1.7-0.9c0-0.9-0.6-1.8-1.8-1.8c-1.5,0-2.1,1.4-2.4,2.7H44.4z M41.8,15.2
		c0,0.4-0.1,0.8-0.1,1.3c0,2.2,1,4.2,3.4,4.2c1.1,0,2.3-0.5,2.8-1.1v0.3c0,1.2-2,2.4-3.7,2.4c-3.1,0-4.5-2.7-4.5-5.6
		c0-3,1.7-5.6,4.9-5.6c2.2,0,3.6,1.5,3.6,3c0,1.1-0.8,1.1-2.2,1.1H41.8z"/>
	<path class="st1" d="M49.9,15.2c0-1.7,0-3.3-0.6-3.7c0.9,0,1.7-0.1,2-0.1c0.4,0,0.2,1.2,0.4,1.2c0.1,0,0.9-1.4,2.3-1.4
		c0.8,0,1.3,0.3,1.3,0.9c0,0.4-0.2,0.8-0.8,0.8c-0.4,0-0.9-0.1-1.5-0.1c-1.2,0-1.3,0.8-1.3,1.8v4.8c0,0.9,0,1.9,0.4,2.5h-2.6
		c0.4-0.7,0.4-1.7,0.4-2.5V15.2z"/>
	<path class="st1" d="M68.9,14.5c1.1,0,1.7,0,1.7-0.9c0-0.9-0.6-1.8-1.8-1.8c-1.5,0-2.1,1.4-2.4,2.7H68.9z M66.4,15.2
		c0,0.4-0.1,0.8-0.1,1.3c0,2.2,1,4.2,3.4,4.2c1.1,0,2.3-0.5,2.8-1.1v0.3c0,1.2-2,2.4-3.7,2.4c-3.1,0-4.5-2.7-4.5-5.6
		c0-3,1.7-5.6,4.9-5.6c2.2,0,3.6,1.5,3.6,3c0,1.1-0.8,1.1-2.2,1.1H66.4z"/>
	<path class="st1" d="M73.9,21.9c0.4-0.7,0.4-1.7,0.4-2.5V8.3c0-1,0-1.9-0.6-2.3L76,5.6v13.8c0,0.9,0,1.9,0.4,2.5H73.9z"/>
	<path class="st1" d="M82,14.5c1.1,0,1.7,0,1.7-0.9c0-0.9-0.6-1.8-1.8-1.8c-1.5,0-2.1,1.4-2.4,2.7H82z M79.4,16.5
		c0,2.2,1,4.2,3.4,4.2c1.1,0,2.3-0.5,2.8-1.1v0.3c0,1.2-2,2.4-3.7,2.4c-3.1,0-4.5-2.7-4.5-5.6c0-3,1.7-5.6,4.9-5.6
		c2.2,0,3.6,1.5,3.6,3c0,1.1-0.8,1.1-2.2,1.1h-4.2"/>
	<path class="st1" d="M95,11.5c-0.4,0.7-0.6,1.2-1,2l-3.3,8.4c-0.6,1.6-2.6,6.6-6.3,6.6c-2,0-4-1.2-3.8-2.6
		c5.6,3.5,10.3-0.7,8.3-6.5l-0.8-2.8c-0.3-1.2-1.2-4.1-2-5.1c0.5,0,1.4-0.1,1.7-0.1c0.4,0,0.5,0.2,0.7,0.7l2,6.8
		c0.1,0.4,0.2,0.7,0.3,0.7c0.1,0,0.2-0.4,0.3-0.7l1.2-3.7c0.2-0.6,0.7-2.1,0.7-2.8c0-0.4-0.1-0.6-0.3-0.8H95z"/>
	<path class="st1" d="M56.3,18.2c0-1.2,0-2.6,0-4.4c0-1.7,0-3.1,0-4.2c0-2.1-0.1-3.4-0.7-3.8L58,5.4v10.2c2.2-1.5,3.2-2.9,3.2-3.6
		c0-0.2,0-0.4-0.2-0.7h2.4l-3,3.2c-0.2,0.2-0.5,0.5-0.9,0.8c2.9,3.7,4.1,6.1,4.9,6.4H62l-3.4-5.2c-0.2-0.3-0.4-0.5-0.5-0.5
		c0,0,0,0-0.1,0v2.7c0,1.7,0,2.6,0.5,3h-2.7C56.3,21.5,56.3,20.3,56.3,18.2"/>
</g>
</svg>
