<?xml version="1.0" encoding="utf-8"?>
<!-- Generator: Adobe Illustrator 26.0.1, SVG Export Plug-In . SVG Version: 6.00 Build 0)  -->
<svg version="1.1" id="Layer_1" xmlns="http://www.w3.org/2000/svg" xmlns:xlink="http://www.w3.org/1999/xlink" x="0px" y="0px"
	 viewBox="0 0 95 35" style="enable-background:new 0 0 95 35;" xml:space="preserve">
<style type="text/css">
	.st0{fill:#104076;}
	.st1{fill:#CCCCCC;}
</style>
<path class="st0" d="M-39.1,613.7"/>
<g>
	<g>
		<path class="st1" d="M37.5,6.6h5.3c1.9,0,4.1,0.5,4.1,2.8c0,1-0.6,1.8-1.5,2.3c1.2,0.4,1.9,1.4,1.9,2.7c0,2.7-2,3.5-4.4,3.5h-5.4
			V6.6z M40.5,11h2.3c0.5,0,1.2-0.3,1.2-1.1c0-0.8-0.6-1.1-1.2-1.1h-2.3V11z M40.5,15.5h2.4c0.9,0,1.6-0.3,1.6-1.3
			c0-1-0.7-1.3-1.6-1.3h-2.4L40.5,15.5L40.5,15.5z"/>
		<path class="st1" d="M48.2,9.7h2.6v1.4h0c0.4-1,1.3-1.6,2.5-1.6c0.2,0,0.4,0,0.6,0.1V12c-0.4-0.1-0.7-0.2-1-0.2
			c-1.3,0-2,0.9-2,1.9v4.1h-2.7L48.2,9.7L48.2,9.7z"/>
		<path class="st1" d="M57.4,8.6h-2.7V6.6h2.7V8.6z M54.7,9.7h2.7v8.2h-2.7V9.7z"/>
		<path class="st1" d="M64,11.4h-1.7v3.7c0,0.7,0.4,0.8,1,0.8c0.2,0,0.5,0,0.7,0v2c-0.5,0-1,0.1-1.5,0.1c-2.3,0-2.9-0.7-2.9-2.9
			v-3.7h-1.4V9.7h1.4V7.2h2.7v2.5H64V11.4z"/>
		<path class="st1" d="M67.5,8.6h-2.7V6.6h2.7V8.6z M64.8,9.7h2.7v8.2h-2.7V9.7z"/>
		<path class="st1" d="M70.9,15.2c0,0.4,0.2,0.7,0.4,0.9c0.3,0.2,0.6,0.3,1,0.3c0.5,0,1.3-0.2,1.3-0.9c0-0.6-0.8-0.8-1.3-0.9
			c-1.7-0.4-3.8-0.5-3.8-2.7c0-2,2.1-2.5,3.7-2.5c1.8,0,3.7,0.5,3.8,2.7h-2.5c0-0.4-0.1-0.6-0.4-0.7c-0.2-0.1-0.5-0.2-0.9-0.2
			c-0.4,0-1.2,0.1-1.2,0.6c0,0.8,1.8,0.9,3,1.2c1.7,0.3,2.1,1.5,2.1,2.2c0,2.2-2.1,2.9-3.9,2.9c-1.9,0-3.9-0.7-4-2.9L70.9,15.2
			L70.9,15.2z"/>
		<path class="st1" d="M76.9,6.6h2.7v4.2h0c0.4-0.8,1.5-1.4,2.5-1.4c2.7,0,3,2,3,3.2v5.3h-2.7v-4c0-1.1,0.1-2.3-1.3-2.3
			c-1,0-1.5,0.9-1.5,1.8v4.5h-2.7L76.9,6.6L76.9,6.6z"/>
		<polygon class="st1" points="37.5,20 40.5,20 40.5,28.7 45.7,28.7 45.7,31.3 37.5,31.3 		"/>
		<path class="st1" d="M46.9,25.6c0.1-1.1,0.6-1.8,1.3-2.2c0.7-0.4,1.7-0.6,2.6-0.6c1.9,0,3.8,0.4,3.8,2.8v3.6c0,0.7,0,1.5,0.3,2.1
			h-2.7c-0.1-0.3-0.1-0.5-0.2-0.8c-0.7,0.7-1.7,1-2.7,1c-1.6,0-2.8-0.8-2.8-2.5c0-2.7,2.9-2.5,4.8-2.8c0.5-0.1,0.7-0.3,0.7-0.8
			c0-0.6-0.7-0.9-1.3-0.9c-0.7,0-1.2,0.3-1.3,1L46.9,25.6L46.9,25.6z M50.4,29.8c1.3,0,1.7-0.7,1.6-2.4c-0.4,0.2-1.1,0.3-1.7,0.4
			c-0.6,0.1-1.1,0.4-1.1,1C49.2,29.6,49.8,29.8,50.4,29.8"/>
		<path class="st1" d="M55.8,23.1h2.6v1.1h0c0.5-0.8,1.6-1.4,2.6-1.4c2.7,0,3,2,3,3.2v5.3h-2.7v-4c0-1.1,0.1-2.3-1.3-2.3
			c-1,0-1.5,0.9-1.5,1.8v4.5h-2.7L55.8,23.1L55.8,23.1z"/>
		<path class="st1" d="M73.4,31.3h-2.6v-1h0c-0.5,0.8-1.3,1.2-2.3,1.2c-2.6,0-3.7-2.2-3.7-4.5c0-2.1,1.1-4.2,3.5-4.2
			c1,0,1.8,0.4,2.3,1.1h0v-4h2.7V31.3z M67.5,27.1c0,1.1,0.4,2.4,1.6,2.4c1.3,0,1.6-1.3,1.6-2.3c0-1.2-0.4-2.3-1.6-2.3
			C67.9,24.9,67.5,26,67.5,27.1"/>
		<path class="st1" d="M33.7,28.4c-1.1,0.3-2.5,0.9-4.9,1.7c0.5-2,0.8-4.8,0.6-7.8c-1-0.2-2.2-0.4-2.7-0.7c0.2,4.7-0.8,9.3-1.1,9.4
			c0,0-3.7,1.3-8,1c-2.5-0.2-5.3-0.9-7.6-2.6L10,32.3c0.7,0.6,4.2,2.7,7.9,2.7c4.4,0.1,8.2-1.1,11.8-2.3c2.6-0.9,4-1.4,4-1.4V28.4z"
			/>
		<path class="st1" d="M12,23.9c-0.5,0.4-0.9,0.9-1.2,1.5c-0.4,0.9-0.6,2.1-0.6,2.7c2,1.3,5.2,2.6,8.8,2.6
			C17,29.8,14.1,27.8,12,23.9"/>
		<path class="st1" d="M20.9,30.6c0,0,1.6-0.1,3.3-0.6c-3.3-0.6-8-3.5-10.6-7.1c0,0,0,0,0,0c-0.3,0.1-0.8,0.3-1.2,0.5
			C13.6,25.4,15.9,28.3,20.9,30.6"/>
		<path class="st1" d="M30.5,27.1c0.1,0,1.2-1,2.3-2.9c-0.5-0.7-1.3-1.3-2.2-1.6C30.8,24,30.8,25.4,30.5,27.1"/>
		<path class="st1" d="M30.4,28.2c0.7-0.2,2.2-0.7,3.3-1.1v-0.6c0-0.3-0.1-0.7-0.2-1c-0.1-0.2-0.2-0.4-0.3-0.6
			C32.5,26.2,31.6,27.3,30.4,28.2"/>
		<path class="st1" d="M25,28.7c0.1-0.2,0.1-0.3,0.1-0.5c0.1-0.2,0.1-0.5,0.1-0.7c0-0.3,0.1-0.6,0.1-0.9c0-0.3,0.1-0.6,0.1-1
			c0-0.3,0.1-0.7,0.1-1c0-0.4,0-0.7,0.1-1c0-0.3,0-0.7,0-1c0-0.3,0-0.6,0-0.9c0-0.7-0.1-1.4,0.1-2.1c0.1-0.4,0.3-0.8,0.6-1.2
			c0.3-0.3,0.7-0.7,1.1-0.7c1.3-0.1,2.7,0.4,3-0.2c0.3-0.6,0.1-1,0-1.2c-0.2-0.4,0.3-0.6,0.3-0.6c0.3-0.3-0.1-0.6-0.1-0.6
			c0.7-0.2,0.3-0.6,0.3-0.6c-0.1-0.2-0.2-0.6-0.2-0.6s0.3-0.2,0.7-0.4c0.2-0.1,0.3-0.4-0.1-0.8c-1-1.1-1.3-1.7-1.3-1.7
			C30,11,30,10.8,30.2,10.8c0.1-0.1,0.2-0.1,0.2-0.2c0.1-1.5-0.6-2.9-1.2-3.6c0.2-0.1,0.4-0.1,0.4-0.1c-0.5-0.5-1-0.9-1.7-1.2
			c1.5-1,1.8-2.9,1.8-2.9c0.3-1.4,1.6-2.4,1.6-2.4c-3.5-0.5-5.1,0.3-5.1,0.3C26,0.4,26.2,0,26.2,0c-3.7,0.5-4.6,1.8-4.7,1.9
			c-0.2-0.2-0.3-0.7-0.3-0.7c-1.5,1.6-2,2.9-2.2,3.6c-0.2-0.2-0.4-0.4-0.4-0.4c-0.8,2.2-0.8,3.5-0.8,4.3c-0.3,0-0.6-0.2-0.6-0.2
			c0.1,2,0.5,3.3,0.9,4c-0.3,0.1-0.5-0.1-0.5-0.1c0.2,0.5,0.4,0.9,0.6,1.4c0.2,0.4,0.4,0.7,0.6,1.1c0.2,0.3,0.4,0.5,0.6,0.8
			c0.1,0.1,0.1,0.2,0.2,0.2c0.1,0.1,0.3,0.3,0.4,0.4c0.3,0.3,0.4,0.7,0.4,1c0.2,2.9-2.8,4.4-5,5.2C19.7,27.1,24.6,28.6,25,28.7"/>
	</g>
</g>
</svg>
