<?xml version="1.0" encoding="utf-8"?>
<!-- Generator: Adobe Illustrator 26.0.1, SVG Export Plug-In . SVG Version: 6.00 Build 0)  -->
<svg version="1.1" id="Layer_1" xmlns="http://www.w3.org/2000/svg" xmlns:xlink="http://www.w3.org/1999/xlink" x="0px" y="0px"
	 viewBox="0 0 95 35" style="enable-background:new 0 0 95 35;" xml:space="preserve">
<style type="text/css">
	.st0{fill:#104076;}
	.st1{fill:#343741;}
</style>
<path class="st0" d="M-39.1,613.7"/>
<g>
	<g>
		<path class="st1" d="M30.6,16.5c-1.5,0.3-3.2,1.2-4.5,2.5L25,23.7c-0.7,2.8,0.6,3.5,2.7,3.1c3.2-0.6,6.3-4.2,6.3-8.2
			C33.9,16.9,32.7,16.1,30.6,16.5z"/>
		<path class="st1" d="M80.7,3.5c-1.2-1.4-3.3-2.7-7-2.5c-3.5,0.2-6.8,1.8-9.3,3.7c-2-1.7-7-2.1-12.3,1.8c-0.4-0.8-1.5-1.2-3.2-0.9
			c-0.1,0-7.7,1.3-7.7,1.3L40.7,9c-1.9-1.2-5.4-1.6-8.5-0.3l0.5-2.2c0.7-2.6,0.4-4.2-0.7-5.2c-1-1-2.3-1.5-4.9-1l-4.2,0.7
			c-3.3,0.6-4.4,2.2-5,4.6l-4.5,17.4c-1.2,4.8-0.1,7.5,1.4,9.1c2.7,2.9,7.1,3.6,13.6,2.5c3.6-0.6,6.9-2,9.8-3.9
			c0.4,0.8,1.5,1.2,3.4,0.9l7.5-1.3c0.9-0.2,1.5-0.7,1.7-1.5c0.2,0.8,0.8,1.1,1.7,0.9c0,0,2.3-0.4,2.9-0.5l8-1.4
			c0.9-0.2,1.5-0.7,1.7-1.5c0.2,0.8,0.8,1.1,1.7,0.9c0,0,8.9-1.6,8.9-1.6c3.2-0.6,4.1-2.4,4.4-4.1l1.9-9.8C83,7.4,82.2,5.3,80.7,3.5
			z M68.4,23.4l2.2-10.5c0.6-2.8-1.4-3.3-3.3-2.3c-1.7,0.8-2.8,2.4-3.2,4.4L62,24.5l-5.9,1.1c-1.1,0.2-2.1-0.2-1.7-2.2l1.7-7.9
			c0.6-2.8-1.4-3.3-3.3-2.3c-1.7,0.8-2.8,2.4-3.2,4.4l-2.1,9.5l-5.9,1c-1.4,0.2-2.1-0.5-1.7-2l0.4-1.9c-0.5,0.6-1.2,1.4-1.9,2
			c-2.8,2.5-6.4,4.2-10.5,5c-7.4,1.3-13.2,0-11.3-7.4l3.7-14.4c0.5-2-0.1-3.7-2.2-4.3l9.6-1.7c1.5-0.2,2.4,0.4,1.9,2.1l-2.3,9.2
			c1.8-1.8,4-2.9,6.4-3.3c4.2-0.7,7.2,0.4,8.4,2.9l0.7-0.1l1-4.4L48.9,9c1.3-0.2,2.6,0.2,2.1,2.1c1.3-1.3,3.2-2.4,5-3.2
			c4-1.8,7.4-1.3,8,1.2c1.8-1.7,5.9-4.6,9.8-4.7c4.1-0.2,5.8,2.3,5,6.6l-1.3,6.4c-0.4,2.2,0.4,3.8,2.6,4L68.4,23.4z"/>
	</g>
	<path class="st1" d="M38.4,21.9c-0.1-0.8,0.2-1.6,1.1-2.1c0.6,1.1,1.4,2.1,2.3,3.1c-0.4,0.2-0.9,0.4-1.5,0.4
		C39.3,23.4,38.6,22.7,38.4,21.9 M47,24.1c-0.7-0.5-1.6-1.2-2.4-2c0.4-0.6,0.9-1.5,1.2-2.1c0.6-1.7-0.2-2-2.1-1.1
		c0.3,0.3,0.3,1-0.2,2.1c-0.7-0.8-1.3-1.7-1.8-2.5c-1.1-2-0.5-3.1,0.4-3.3c0.9-0.2,1.6,0.3,1.6,1c0.3-0.2,1-0.9,0.4-1.8
		c-0.5-0.9-1.8-1.2-3.3-0.7c-1.7,0.6-2.9,2.5-2,4.6c-2.4,0.9-3.6,2.8-3.1,5c0.5,2.1,2.6,2.4,3.9,2.3c1.3-0.1,2.4-0.7,3.4-1.5
		c0.2,0.2,0.5,0.4,0.7,0.6L47,24.1z"/>
</g>
</svg>
