<?xml version="1.0" encoding="utf-8"?>
<!-- Generator: Adobe Illustrator 26.0.1, SVG Export Plug-In . SVG Version: 6.00 Build 0)  -->
<svg version="1.1" id="Layer_1" xmlns="http://www.w3.org/2000/svg" xmlns:xlink="http://www.w3.org/1999/xlink" x="0px" y="0px"
	 viewBox="0 0 95 35" style="enable-background:new 0 0 95 35;" xml:space="preserve">
<style type="text/css">
	.st0{fill:#104076;}
	.st1{fill:#343741;}
</style>
<path class="st0" d="M-39.1,613.7"/>
<g>
	<rect x="29.6" class="st1" width="35.9" height="12.8"/>
	<rect x="29.6" y="22.2" class="st1" width="35.9" height="12.8"/>
	<g>
		<path class="st1" d="M32.2,15.8h0.4c0.5,0,0.7,0.2,0.7,0.5c0,0.3-0.2,0.5-0.7,0.5h-0.4V15.8z M29.6,21h3.7c1.9,0,2.9-0.7,2.9-1.9
			c0-0.9-0.5-1.4-1.6-1.6c0.8-0.2,1.2-0.7,1.2-1.4c0-1.1-0.9-1.9-2.5-1.9h-3.7L29.6,21L29.6,21z M32.2,18.2h0.5
			c0.6,0,0.9,0.2,0.9,0.5c0,0.3-0.3,0.5-0.9,0.5h-0.5V18.2z"/>
		<path class="st1" d="M36.5,14.2h2.8v3.7c0,0.7,0.1,1.1,0.8,1.1c0.6,0,0.8-0.4,0.8-1.1v-3.7h2.8v3.7c0,0.8-0.1,1.5-0.5,2
			c-0.6,0.8-1.7,1.3-3.1,1.3c-1.4,0-2.5-0.5-3.1-1.3c-0.4-0.5-0.4-1.2-0.4-2L36.5,14.2L36.5,14.2z"/>
		<polygon class="st1" points="44.3,14.2 47,14.2 49.4,17.8 49.4,14.2 52.1,14.2 52.1,21 49.3,21 47,17.5 47,21 44.3,21 		"/>
		<polygon class="st1" points="55.5,16.2 52.7,16.2 52.7,14.2 59.9,14.2 56.6,18.9 59.5,18.9 59.5,21 52.1,21 		"/>
		<polygon class="st1" points="59.9,14.2 62.7,14.2 62.7,18.8 65.4,18.8 65.4,21 59.9,21 		"/>
	</g>
</g>
</svg>
