<?xml version="1.0" encoding="utf-8"?>
<!-- Generator: Adobe Illustrator 26.0.1, SVG Export Plug-In . SVG Version: 6.00 Build 0)  -->
<svg version="1.1" id="Layer_1" xmlns="http://www.w3.org/2000/svg" xmlns:xlink="http://www.w3.org/1999/xlink" x="0px" y="0px"
	 viewBox="0 0 95 35" style="enable-background:new 0 0 95 35;" xml:space="preserve">
<style type="text/css">
	.st0{fill:#104076;}
</style>
<path class="st0" d="M-39.1,613.7"/>
<g>
	<g>
		<path d="M37.8,25.3c-0.7,0.9-1.3,2-1.8,3.1c1.2,0.2,2.4,0.1,3.5,0c0.3-1,0.7-2,1.3-2.8C39.9,25.6,38.8,25.5,37.8,25.3z"/>
		<path d="M55,20.4c1,0.3,1.9,0.7,2.8,1.3c1-0.6,1.9-1.4,2.7-2.3c-1.1-0.6-2.2-1-3.4-1.2C56.5,19.1,55.8,19.8,55,20.4z"/>
		<path d="M60.6,24c-0.8-0.9-1.8-1.7-2.8-2.3c-0.9,0.6-1.8,1-2.8,1.3c0.8,0.6,1.5,1.4,2.2,2.2c-1,0.2-2.1,0.3-3.1,0.3l0,0l0,0
			c0.5,0.8,1,1.8,1.3,2.8c-1.1-0.1-2.1-0.4-3-0.8l0,0l0,0c0.2,1,0.3,2,0.2,3.1c-1-0.5-1.8-1.1-2.6-1.8c-0.1,1-0.4,2-0.8,3
			c-0.7-0.8-1.3-1.6-1.8-2.5c-0.5,0.9-1.1,1.7-1.8,2.5c-0.4-1-0.7-2-0.8-3c-0.7,0.7-1.6,1.2-2.5,1.7l0,0c0.1,1.2,0.3,2.3,0.6,3.5
			c1-0.7,2-1.5,2.7-2.3c0.5,1.1,1.1,2.1,1.8,3.1c0.7-1,1.3-2,1.8-3.1c0.8,0.9,1.7,1.6,2.8,2.3c0.4-1.2,0.6-2.4,0.6-3.5
			c1,0.5,2.2,0.9,3.4,1.2c-0.1-1.2-0.3-2.4-0.6-3.5c1.1,0.2,2.4,0.2,3.6,0c-0.5-1.1-1.1-2.2-1.8-3.1C58.3,25,59.5,24.6,60.6,24z"/>
		<path d="M39.6,28.4c-0.3,1.1-0.6,2.3-0.6,3.5c1.2-0.3,2.3-0.7,3.3-1.2c-0.1-1.1,0-2.1,0.2-3.1C41.6,28,40.6,28.2,39.6,28.4z"/>
		<path d="M39.9,23.1c-1-0.3-1.9-0.7-2.8-1.3c-1,0.6-1.9,1.4-2.7,2.3c1.1,0.5,2.2,1,3.3,1.2C38.4,24.4,39.1,23.7,39.9,23.1z"/>
		<path d="M37.8,18.2c1.1-0.2,2.1-0.3,3.1-0.3c-0.5-0.9-1-1.8-1.3-2.8c1.1,0.1,2.1,0.4,3,0.8c-0.2-1-0.3-2-0.2-3.1
			c1,0.5,1.8,1.1,2.6,1.8c0.1-1,0.4-2,0.8-3c0.7,0.8,1.3,1.6,1.8,2.5c0.5-0.9,1.1-1.7,1.8-2.5c0.4,1,0.7,2,0.8,3
			c0.7-0.7,1.6-1.3,2.5-1.8c0.1,1.1,0,2.1-0.2,3.1c0.9-0.4,1.9-0.6,3-0.8c-0.3,1-0.7,2-1.3,2.8l0,0l0,0c1-0.1,2,0.1,3.1,0.3
			c0.7-0.9,1.3-2,1.8-3.1c-1.2-0.2-2.4-0.1-3.6,0c0.3-1.1,0.6-2.3,0.6-3.5c-1.2,0.3-2.3,0.7-3.4,1.2c-0.1-1.2-0.3-2.3-0.6-3.5
			c-1,0.7-2,1.5-2.7,2.3c-0.5-1.1-1.1-2.1-1.8-3.1c-0.7,1-1.3,2-1.8,3.1C44.9,10.8,44,10,43,9.3c-0.4,1.2-0.6,2.4-0.6,3.5
			c-1-0.5-2.2-0.9-3.4-1.2c0.1,1.2,0.3,2.4,0.6,3.5c-1.2-0.2-2.4-0.2-3.6,0C36.5,16.3,37.1,17.3,37.8,18.2c-1.1,0.2-2.2,0.7-3.3,1.2
			c0.8,0.9,1.8,1.7,2.7,2.3c0.9-0.6,1.8-1,2.8-1.3C39.2,19.8,38.4,19.1,37.8,18.2z"/>
		<polygon points="57.2,18.2 57.2,18.2 57.2,18.2 		"/>
		<path d="M42.3,30.7L42.3,30.7L42.3,30.7z"/>
		<polygon points="57.8,21.7 57.8,21.7 57.8,21.7 		"/>
		<path d="M37.2,21.7L37.2,21.7C37.1,21.8,37.2,21.8,37.2,21.7C37.2,21.8,37.2,21.8,37.2,21.7L37.2,21.7z"/>
		<path d="M37.8,25.3L37.8,25.3L37.8,25.3L37.8,25.3L37.8,25.3z"/>
		<path d="M39.6,28.4L39.6,28.4L39.6,28.4L39.6,28.4L39.6,28.4z"/>
		<path d="M52.3,23.5c0.9,0,1.8-0.2,2.7-0.4c-0.7-0.6-1.5-1-2.4-1.3c0.8-0.3,1.6-0.8,2.4-1.3c-0.9-0.3-1.8-0.4-2.7-0.4
			c0.7-0.6,1.3-1.3,1.8-2l0,0l0,0c-0.9,0-1.8,0.2-2.7,0.5c0.5-0.8,0.8-1.6,1-2.5c-0.9,0.4-1.6,0.8-2.3,1.4c0.2-0.9,0.2-1.8,0-2.7
			c-0.7,0.6-1.3,1.4-1.7,2.1c-0.2-0.9-0.5-1.8-0.9-2.6c-0.4,0.8-0.7,1.7-0.9,2.6l0,0c0.4,0.7,0.7,1.6,0.9,2.4
			c0.1-0.9,0.4-1.6,0.9-2.4c0.2,0.9,0.2,1.7,0,2.6c0.5-0.8,1-1.4,1.7-2c-0.1,0.9-0.4,1.7-0.9,2.4c0.7-0.6,1.4-1,2.2-1.3
			c-0.4,0.8-1,1.4-1.6,2c0.8-0.3,1.7-0.4,2.5-0.4c-0.7,0.6-1.4,1-2.2,1.3c0.9,0,1.7,0.2,2.5,0.5c-0.8,0.3-1.7,0.5-2.5,0.5
			C50.9,22.5,51.7,22.9,52.3,23.5c-0.9,0-1.7-0.2-2.6-0.5c0.7,0.6,1.2,1.2,1.6,2c-0.8-0.3-1.6-0.7-2.2-1.3c0.4,0.8,0.7,1.6,0.9,2.4
			c-0.7-0.5-1.2-1.2-1.7-2c0.2,0.9,0.1,1.7,0,2.6c-0.4-0.8-0.7-1.6-0.9-2.4c-0.1,0.9-0.5,1.7-0.9,2.4c-0.2-0.8-0.2-1.7,0-2.6
			c-0.4,0.7-1,1.4-1.7,2c0.1-0.9,0.4-1.7,0.9-2.4c-0.7,0.6-1.4,1-2.2,1.3c0.4-0.8,1-1.4,1.6-2c-0.8,0.3-1.7,0.4-2.5,0.4
			c0.7-0.6,1.4-1,2.2-1.3c-0.9,0-1.7-0.2-2.5-0.5c0.8-0.3,1.7-0.5,2.5-0.5c-0.8-0.3-1.6-0.7-2.2-1.3c0.9,0,1.7,0.1,2.5,0.4
			c-0.7-0.6-1.2-1.2-1.6-2c0.8,0.3,1.6,0.7,2.2,1.3c-0.4-0.7-0.7-1.5-0.9-2.4l0,0c-0.7-0.6-1.5-1-2.3-1.4c0.2,0.9,0.5,1.8,1,2.5
			c-0.8-0.3-1.7-0.5-2.7-0.5c0.5,0.8,1.1,1.5,1.8,2.1c-0.9,0-1.8,0.2-2.7,0.4c0.7,0.6,1.5,1,2.4,1.3c-0.8,0.3-1.6,0.8-2.4,1.3
			c0.9,0.3,1.8,0.4,2.7,0.4c-0.7,0.6-1.3,1.3-1.8,2.1c0.9,0,1.8-0.2,2.7-0.5c-0.5,0.8-0.8,1.6-1,2.5c0.9-0.4,1.6-0.8,2.3-1.4
			c-0.2,0.9-0.2,1.8,0,2.7c0.7-0.6,1.3-1.3,1.7-2.1c0.2,0.9,0.5,1.7,0.9,2.6c0.4-0.8,0.7-1.7,0.9-2.6c0.5,0.8,1,1.5,1.7,2.1
			c0.1-0.9,0.1-1.8,0-2.7c0.7,0.6,1.5,1,2.3,1.4l0,0l0,0c-0.2-0.9-0.5-1.8-1-2.5c0.8,0.3,1.7,0.5,2.7,0.5l0,0l0,0
			C53.6,24.8,53,24.1,52.3,23.5z"/>
		<path d="M46.6,19.2c-0.2-0.8-0.1-1.7,0-2.6c-0.4-0.8-1-1.5-1.7-2.1c-0.1,0.9-0.1,1.8,0,2.7C45.6,17.8,46.2,18.5,46.6,19.2z"/>
		<path d="M44.9,17.2C44.9,17.3,44.9,17.3,44.9,17.2C44.9,17.3,44.9,17.3,44.9,17.2L44.9,17.2z"/>
		<path d="M46.6,16.6L46.6,16.6L46.6,16.6z"/>
	</g>
	<g id="bp">
		<g>
			<path d="M54.6,4c0,0.8-0.3,1.8-1.3,1.8C52,5.8,52,4.4,52,4.1s0-1.8,1.3-1.8C54.5,2.2,54.6,3.6,54.6,4z M52,0h-0.9v5.6v0.8h0.8
				V5.7C52,5.8,52.2,6,52.4,6.2c0.4,0.3,0.8,0.3,1,0.3c0.6,0,1.2-0.3,1.6-0.8c0.2-0.3,0.5-0.8,0.5-1.7c0-1-0.3-1.5-0.5-1.7
				c-0.4-0.5-1-0.6-1.5-0.6c-1.1,0-1.4,0.6-1.5,0.8V0L52,0z"/>
			<path d="M57,4.2c0-0.4,0-1.9,1.4-1.9c1,0,1.3,0.9,1.3,1.7c0,0.3-0.1,1-0.4,1.5C59,5.9,58.5,6,58.3,6C57.1,5.9,57,4.8,57,4.2z
				 M56.2,8.2H57V5.9c0.2,0.4,0.7,0.7,1.4,0.7c1.1,0,2.1-0.8,2.1-2.5s-0.9-2.4-1.9-2.4c-0.4,0-1.1,0.1-1.6,0.8V1.7h-0.9
				c0,0.5,0,0.6,0,0.8L56.2,8.2L56.2,8.2z"/>
		</g>
	</g>
</g>
</svg>
