<?xml version="1.0" encoding="utf-8"?>
<!-- Generator: Adobe Illustrator 26.0.1, SVG Export Plug-In . SVG Version: 6.00 Build 0)  -->
<svg version="1.1" id="Layer_1" xmlns="http://www.w3.org/2000/svg" xmlns:xlink="http://www.w3.org/1999/xlink" x="0px" y="0px"
	 viewBox="0 0 95 35" style="enable-background:new 0 0 95 35;" xml:space="preserve">
<style type="text/css">
	.st0{fill:#104076;}
	.st1{fill:#CCCCCC;}
</style>
<path class="st0" d="M-39.1,613.7"/>
<g transform="translate(-173.91 -165.98)">
	<g>
		<path class="st1" d="M180.6,194.2c0,1.1-0.7,1.3-1.6,1.3h-1.5V193h1.2C179.9,193,180.6,193.1,180.6,194.2L180.6,194.2z
			 M182.9,197.4c0-1.2-1.4-1.8-3-1.8c1.3,0,2.5-0.5,2.5-1.4c0-1.1-1.3-1.6-3-1.6h-5.4v0.4h1.6v5.7h-1.6v0.4h6
			C181.9,199.2,182.9,198.3,182.9,197.4L182.9,197.4z M181,197.4c0,1.2-1,1.3-2,1.3h-1.5v-2.9h1.5C180.2,195.9,181,195.9,181,197.4"
			/>
		<path class="st1" d="M193.7,193v3.9c0,1.7-1.4,2.4-3.6,2.4c-1.6,0-4-0.4-4-2.2v-4h-1.6v-0.4h5.1v0.4h-1.6v4c0,1.5,1.1,1.8,2.4,1.8
			c1.5,0,2.8-0.6,2.8-2V193h-1.6v-0.4h3.6v0.4L193.7,193"/>
		<path class="st1" d="M203.4,194.3c0,1-0.8,1.3-1.9,1.3h-1.3V193h1.3C202.7,193,203.4,193.3,203.4,194.3L203.4,194.3z M207.3,199
			l-0.2-0.3c-0.2,0.1-0.3,0.3-0.7,0.3c-0.5,0-0.7-0.2-0.7-0.6v-0.8c0-0.9-0.8-1.8-2.8-1.8c1.4,0,2.5-0.5,2.5-1.5
			c0-1-1.2-1.6-3.1-1.6h-5.7v0.4h1.6v5.7h-1.6v0.4h5.1v-0.4h-1.6V196h1.7c1.1,0,1.8,0.3,1.8,1.1v0.5c0,1.4,1.4,1.7,2.4,1.7
			C206.6,199.3,207,199.2,207.3,199"/>
		<path class="st1" d="M215.3,194.2c0,1.1-0.7,1.3-1.6,1.3h-1.5V193h1.2C214.6,193,215.3,193.1,215.3,194.2L215.3,194.2z
			 M217.6,197.4c0-1.2-1.4-1.8-3-1.8c1.3,0,2.5-0.5,2.5-1.4c0-1.1-1.3-1.6-3-1.6h-5.4v0.4h1.6v5.7h-1.6v0.4h6
			C216.6,199.2,217.6,198.3,217.6,197.4L217.6,197.4z M215.7,197.4c0,1.2-1,1.3-2,1.3h-1.5v-2.9h1.5
			C214.9,195.9,215.7,195.9,215.7,197.4"/>
		<path class="st1" d="M219.6,199.2v-0.4h1.6V193h-1.6v-0.4h8.6v2.1h-0.4c0-0.9-0.6-1.7-2.2-1.7h-2.5v2.6h0.9c1.2,0,1.6-0.6,1.6-1.2
			h0.4v2.9h-0.4c0-0.6-0.4-1.2-1.6-1.2h-0.9v2.7h2.5c2.1,0,2.8-0.9,2.8-1.9h0.4v2.3L219.6,199.2"/>
		<path class="st1" d="M238,194.3c0,1-0.8,1.3-1.9,1.3h-1.3V193h1.3C237.3,193,238,193.3,238,194.3L238,194.3z M241.9,199l-0.2-0.3
			c-0.2,0.1-0.3,0.3-0.7,0.3c-0.5,0-0.7-0.2-0.7-0.6v-0.8c0-0.9-0.8-1.8-2.8-1.8c1.4,0,2.5-0.5,2.5-1.5c0-1-1.2-1.6-3.1-1.6h-5.7
			v0.4h1.6v5.7h-1.6v0.4h5.1v-0.4h-1.6V196h1.7c1.1,0,1.8,0.3,1.8,1.1v0.5c0,1.4,1.4,1.7,2.4,1.7C241.2,199.3,241.6,199.2,241.9,199
			"/>
		<path class="st1" d="M249.9,194.3c0,1-0.8,1.3-1.9,1.3h-1.3V193h1.3C249.2,193,249.9,193.3,249.9,194.3L249.9,194.3z M253.8,199
			l-0.2-0.3c-0.2,0.1-0.3,0.3-0.7,0.3c-0.5,0-0.7-0.2-0.7-0.6v-0.8c0-0.9-0.8-1.8-2.8-1.8c1.4,0,2.5-0.5,2.5-1.5
			c0-1-1.2-1.6-3.1-1.6h-5.7v0.4h1.6v5.7h-1.6v0.4h5.1v-0.4h-1.6V196h1.7c1.1,0,1.8,0.3,1.8,1.1v0.5c0,1.4,1.4,1.7,2.4,1.7
			C253.1,199.3,253.5,199.2,253.8,199"/>
		<path class="st1" d="M263.3,193l-2.8,3.4v2.4h1.6v0.4H257v-0.4h1.6v-2l-3.3-3.8h-1.5v-0.4h5.6v0.4h-1.5l2.5,2.9l2.4-2.9h-1.5v-0.4
			h3.5v0.4H263.3"/>
	</g>
	<path class="st1" d="M266.2,191.5c0,0.2,0,0.3,0.1,0.5c0.1,0.2,0.2,0.3,0.3,0.4c0.1,0.1,0.2,0.2,0.4,0.3c0.2,0.1,0.3,0.1,0.5,0.1
		s0.3,0,0.5-0.1c0.2-0.1,0.3-0.2,0.4-0.3c0.1-0.1,0.2-0.2,0.3-0.4c0.1-0.2,0.1-0.3,0.1-0.5c0-0.2,0-0.3-0.1-0.5
		c-0.1-0.2-0.2-0.3-0.3-0.4c-0.1-0.1-0.2-0.2-0.4-0.3c-0.2-0.1-0.3-0.1-0.5-0.1c-0.2,0-0.3,0-0.5,0.1c-0.2,0.1-0.3,0.2-0.4,0.3
		c-0.1,0.1-0.2,0.2-0.3,0.4C266.2,191.2,266.2,191.3,266.2,191.5L266.2,191.5z M265.9,191.5c0-0.2,0-0.4,0.1-0.6
		c0.1-0.2,0.2-0.3,0.3-0.5c0.1-0.1,0.3-0.2,0.5-0.3c0.2-0.1,0.4-0.1,0.6-0.1c0.2,0,0.4,0,0.6,0.1c0.2,0.1,0.3,0.2,0.5,0.3
		c0.1,0.1,0.2,0.3,0.3,0.5c0.1,0.2,0.1,0.4,0.1,0.6c0,0.2,0,0.4-0.1,0.6c-0.1,0.2-0.2,0.3-0.3,0.5c-0.1,0.1-0.3,0.2-0.5,0.3
		c-0.2,0.1-0.4,0.1-0.6,0.1c-0.2,0-0.4,0-0.6-0.1c-0.2-0.1-0.3-0.2-0.5-0.3c-0.1-0.1-0.2-0.3-0.3-0.5
		C266,191.9,265.9,191.7,265.9,191.5L265.9,191.5z M267.1,191.4h0.3c0.1,0,0.1,0,0.2,0c0.1,0,0.1,0,0.1,0c0,0,0.1,0,0.1-0.1
		c0,0,0-0.1,0-0.2c0-0.1,0-0.1,0-0.1c0,0-0.1-0.1-0.1-0.1c0,0-0.1,0-0.1,0c0,0-0.1,0-0.1,0h-0.4V191.4z M266.9,190.7h0.6
		c0.2,0,0.4,0,0.5,0.1c0.1,0.1,0.1,0.2,0.1,0.4c0,0.2,0,0.3-0.1,0.3c-0.1,0.1-0.2,0.1-0.3,0.1l0.5,0.8h-0.3l-0.5-0.7h-0.3v0.7h-0.2
		L266.9,190.7z"/>
	<g>
		<path class="st1" d="M221,169c0.2,0.1,0.4,0.1,0.5,0.3c0,0,0.1,0.1,0.1,0c0,0,0-0.1-0.1-0.1c0.1-0.1,0.2,0,0.3,0.1
			c0,0.1,0.1,0,0.1,0c0,0,0,0,0-0.1c0,0,0,0,0-0.1c0.4,0,0.8,0.3,1.1,0.5c0.1,0.2,0.3,0.2,0.4,0.3c0.1,0,0.2,0,0.2-0.1
			c0-0.1,0.1-0.2-0.1-0.3c0,0-0.1,0-0.1-0.1c0-0.1,0-0.1,0.1-0.1c0.1,0,0.3,0,0.3,0.2c0.1,0,0.1-0.1,0.1-0.1c0.1,0,0.2,0,0.3,0.1
			c0.1,0.1,0.1,0.2,0.2,0.3c0.1,0.1-0.1,0.2-0.1,0.3c-0.1,0.1,0,0.2-0.2,0.2c0.1,0.1,0.2,0.1,0.3,0.1c0.1,0.1-0.1,0.2-0.2,0.2
			c-0.1,0-0.2,0.1-0.3,0.1c-0.1,0-0.1,0.1-0.2,0c-0.2,0-0.4,0.2-0.6,0c-0.3,0-0.5-0.3-0.7-0.5c-0.1-0.2-0.1-0.3-0.3-0.5
			c0,0-0.1,0-0.1,0c0,0.1,0.1,0.1,0.1,0.1l0.1,0.2c-0.1,0-0.2,0.3-0.3,0.1c0,0-0.1,0-0.1,0c-0.1,0-0.3,0.2-0.4,0.1
			c0.1-0.3-0.3-0.4-0.4-0.7c-0.1-0.1-0.1-0.2-0.2-0.3c-0.1,0-0.1,0-0.2,0c0.1,0.2,0.4,0.3,0.4,0.5c0,0.1,0.1,0.1,0.1,0.2
			c-0.1,0.1-0.3,0-0.3,0.2c-0.1,0-0.2,0.1-0.2,0c-0.2,0-0.4-0.1-0.5-0.3c-0.2,0-0.3-0.3-0.5-0.3c-0.1-0.1-0.3,0-0.4-0.1
			c-0.1,0-0.2,0-0.3,0c-0.2,0-0.3,0.1-0.5,0c0-0.2,0.3-0.3,0.4-0.4c0.4,0,0.8-0.1,1.1,0.2c0.1,0,0.2,0.1,0.3,0.2l0,0
			c-0.1-0.3-0.4-0.3-0.6-0.4c0.1-0.2,0.4-0.1,0.5-0.1C220.6,169,220.8,168.9,221,169"/>
		<path class="st1" d="M207.8,168c0.2,0.1,0.2,0.2,0.3,0.4c0,0.1-0.1,0.2-0.2,0.3c-0.2-0.1-0.4,0.1-0.5-0.1
			c-0.3-0.3-0.5-0.7-0.9-0.9c0,0,0-0.1,0-0.1c0.1-0.1,0.3,0.1,0.4,0.1C207.2,167.9,207.5,168,207.8,168"/>
		<path class="st1" d="M219.6,170.2c0,0.4-0.3,0.8,0,1.1c0.1,0.1,0.1,0.1,0.1,0.2c0,0-0.1,0-0.1,0c-0.4-0.1-0.6-0.5-1-0.6
			c-0.1-0.1-0.4,0.1-0.4-0.2c0-0.2,0-0.4,0.1-0.5c0,0,0-0.1,0-0.1c-0.3,0-0.6,0.1-0.9,0.1c-0.1-0.2,0.1-0.3,0.1-0.5
			c0.5-0.4,1.2-0.2,1.7,0C219.3,169.9,219.5,170,219.6,170.2"/>
		<path class="st1" d="M209,169c0.3,0.1,0.5,0.2,0.7,0.4c0.1,0,0.2,0.1,0.3,0.2c0.5,0.3,1,0.6,1.5,0.8c0.4,0.2,0.8,0.5,1.3,0.7
			c0.3,0.1,0.5,0.3,0.8,0.4c0.7,0.3,1.4,0.8,2.1,1.1c0.1,0.1,0,0.2,0,0.3c-0.4-0.1-0.8-0.5-1.2-0.6c-0.3-0.2-0.6-0.3-0.9-0.5
			c-0.1,0-0.2-0.1-0.3-0.1c-0.2,0-0.3-0.2-0.4-0.2c-0.4-0.1-0.7-0.4-1-0.6c-0.4-0.2-0.9-0.4-1.3-0.7c-0.3-0.2-0.7-0.3-1-0.6
			c-0.4-0.2-0.8-0.4-1.1-0.6c0,0,0-0.1,0-0.2c0,0,0.1-0.1,0.1-0.1C208.7,168.8,208.9,168.9,209,169"/>
		<path class="st1" d="M213.2,169.5c-0.3-0.1-0.6-0.1-0.8,0.1c0.1,0.2,0.4,0.3,0.6,0.5c0.2,0.1,0.4,0.3,0.6,0.4c0.2,0,0.4,0,0.5-0.2
			c0-0.2-0.2-0.3-0.3-0.4C213.6,169.7,213.4,169.6,213.2,169.5L213.2,169.5z M211.7,169C211.7,169,211.7,169,211.7,169
			c0,0.3,0.2,0.3,0.4,0.4c0.1,0,0.1,0.1,0.2,0c0-0.1,0.2-0.1,0.1-0.2C212.2,169,211.9,168.9,211.7,169L211.7,169z M211.7,168.8
			c-0.1,0-0.1-0.1-0.2-0.1l0,0.1c0,0,0,0,0.1,0.1c0,0.1-0.1,0.1-0.2,0.2c-0.1,0.1-0.1,0.3-0.1,0.5c0.1,0.3,0.4,0.4,0.6,0.4
			c0.1,0,0.2,0,0.2-0.1c0,0-0.1-0.1-0.1,0c-0.1-0.1-0.2,0.1-0.4,0c-0.1-0.1-0.2-0.2-0.2-0.4c0.1-0.2,0.2,0,0.4-0.1
			c0.2,0.2,0.4,0.3,0.7,0.4c0.3,0.3,0.7,0.4,1,0.7c0,0,0,0.1,0.1,0.1c0.2,0,0.3-0.1,0.5-0.1c0.2,0,0.3-0.2,0.4-0.4
			c0.1-0.3-0.1-0.5-0.3-0.7c-0.4-0.4-0.9-0.3-1.4-0.3c0,0-0.1-0.1-0.1-0.1C212.3,168.7,211.9,168.8,211.7,168.8L211.7,168.8z
			 M214.9,168.6c0.5,0.1,1,0.3,1.5,0.5c0.2,0.1,0.4,0.1,0.6,0.3c0.1,0,0.2,0.1,0.3,0.2c0,0.2-0.2,0.4-0.3,0.6
			c-0.1,0.2-0.3,0.4-0.3,0.6l-0.1,0.1c-0.4-0.3-0.8-0.4-1.2-0.6c-0.1-0.1-0.3,0-0.5,0c-0.1,0-0.2,0.1-0.3,0.1l0,0
			c-0.1,0-0.2,0.1-0.3,0.2c-0.3,0.2-0.8,0.1-1.1,0.3c-0.3-0.1-0.5-0.3-0.8-0.4c-0.2-0.1-0.4-0.2-0.6-0.3c-0.2,0-0.3-0.2-0.4-0.2
			c-0.4-0.3-0.8-0.4-1.2-0.7l0,0c0.4-0.1,0.6-0.5,1-0.6c0.3-0.1,0.6-0.3,1-0.2c0.4-0.1,0.9,0,1.3,0c0.4,0,0.7,0.1,1,0.1
			C214.5,168.5,214.7,168.6,214.9,168.6"/>
		<path class="st1" d="M218.1,170.4c0,0.2-0.2,0.4-0.1,0.6c-0.2,0.1-0.5-0.1-0.7,0c-0.1,0-0.3,0.1-0.4,0c0-0.2,0.2-0.3,0.2-0.4
			c0,0,0-0.1,0.1-0.1c0.3,0.1,0.6,0,0.8-0.1C218.1,170.3,218.1,170.4,218.1,170.4"/>
		<path class="st1" d="M218,171.2c-0.1,0.1-0.3,0.2-0.4,0.3c0.1,0,0.3,0,0.4,0.2c-0.1,0.1-0.3,0-0.5,0.1c-0.2,0-0.4,0-0.5-0.2
			c0-0.2-0.1-0.3,0-0.4c0.1,0.1,0.2-0.1,0.4,0c0.1-0.1,0.2,0.1,0.3,0C217.8,171.2,218,171.1,218,171.2"/>
		<path class="st1" d="M223,171.8c0,0-0.1,0-0.2,0c0,0.1,0,0.1,0.1,0.2c0.1,0.2,0.2,0.3,0.3,0.4c0.1,0.1,0.3,0.3,0.5,0.2
			C223.6,172.3,223.3,172,223,171.8L223,171.8z M221.8,171.6C221.7,171.6,221.7,171.6,221.8,171.6c0,0.2,0.1,0.3,0.2,0.4
			c0.1,0,0.2,0,0.2,0c0.1,0,0.1-0.1,0.1-0.1C222.1,171.7,222,171.6,221.8,171.6L221.8,171.6z M224,171.8c-0.1,0.2,0.2,0.2,0.2,0.3
			c0.1,0,0.2,0,0.3-0.1c0,0,0-0.1,0-0.1C224.4,171.8,224.2,171.8,224,171.8L224,171.8z M222.8,171.5c-0.1,0-0.2,0.2-0.2,0.3
			c0.1,0.4,0.4,0.8,0.8,1c0.2,0.1,0.3,0.1,0.5,0c0-0.1,0.1-0.3,0-0.5C223.6,172,223.3,171.5,222.8,171.5L222.8,171.5z M227.3,172
			c0.1,0.2,0.2,0.3,0.3,0.5c0.2,0.3,0.3,0.7,0.7,0.8c0-0.2-0.2-0.3-0.2-0.5c0,0,0-0.1,0-0.1c0.1,0.1,0.2,0.2,0.3,0.3
			c0.1,0.1,0.1,0.2,0.2,0.2c0-0.1,0-0.1,0-0.2c0-0.1-0.2-0.2-0.1-0.3c0.1,0,0.1,0.1,0.2,0.1c0,0.2,0.2,0.4,0.3,0.6
			c0.1,0,0.2,0,0.2,0c-0.3-0.4-0.5-0.8-0.8-1.2c-0.1,0-0.2-0.1-0.3,0c0,0.1,0.1,0.2,0.1,0.3c0,0-0.1,0-0.1,0
			c-0.1-0.2-0.3-0.3-0.5-0.4C227.5,172.1,227.4,171.9,227.3,172L227.3,172z M224.3,171.6c-0.2,0.1-0.5,0-0.6,0.1
			c0.3,0.4,0.7,0.8,0.9,1.2l0.1,0c0,0,0.1,0,0.1,0c0-0.2-0.2-0.3-0.3-0.4c0-0.1,0-0.1,0-0.2l0.3,0.1c0.2,0.1,0.4,0.4,0.6,0.5
			c0,0,0.1,0,0.1-0.1c-0.1-0.1-0.2-0.2-0.3-0.3c-0.1-0.1-0.3-0.2-0.4-0.3c0,0,0-0.1,0.1-0.1c0-0.1,0-0.2,0-0.3
			C224.6,171.7,224.4,171.7,224.3,171.6L224.3,171.6z M220.5,171.2C220.4,171.2,220.4,171.2,220.5,171.2c0,0.1,0,0.3,0.1,0.3
			c0.1,0.1,0.2,0.2,0.3,0.2c0,0,0,0,0-0.1C220.9,171.4,220.7,171.3,220.5,171.2L220.5,171.2z M221.4,171.3L221.4,171.3L221.4,171.3
			L221.4,171.3l-0.1,0c0,0,0,0.1,0.1,0.2c0.3,0.5,0.6,0.8,0.9,1.3c0.1,0,0.2,0.1,0.2,0.1l-0.3-0.4c0-0.1-0.1-0.1,0-0.2
			c0.3,0.2,0.5,0.6,0.9,0.7c-0.2-0.3-0.4-0.5-0.7-0.7c-0.2-0.1,0.1-0.1,0.1-0.2C222.4,171.4,221.8,171.5,221.4,171.3L221.4,171.3z
			 M225.9,171.8c0.1,0.1,0.2,0.2,0.2,0.3c0.1,0.1,0.2,0.2,0.3,0.4c0.1,0.2,0.2,0.3,0.4,0.5c0.1,0,0.3,0.2,0.4,0.1
			c0.1,0,0.1-0.1,0.2-0.2c0-0.2-0.1-0.3-0.1-0.4c-0.2-0.2-0.3-0.6-0.6-0.6c0.1,0.3,0.3,0.5,0.5,0.8c0,0.1,0,0.1,0,0.2
			c-0.1,0-0.3-0.1-0.4-0.2c-0.1-0.3-0.4-0.6-0.6-0.9C226.2,171.8,226,171.7,225.9,171.8L225.9,171.8z M225.7,171.7
			c-0.2-0.1-0.4-0.2-0.6-0.1c-0.1,0.1-0.1,0.2-0.1,0.3c0,0.1,0.1,0.2,0.2,0.3c0.3,0.1,0.6,0,0.8,0.3c0,0.1,0,0.1-0.1,0.2
			c-0.1,0-0.2-0.2-0.3-0.2c-0.1-0.1-0.1,0.1-0.1,0.1c0.1,0.1,0.3,0.2,0.4,0.2c0.1,0,0.2,0,0.3-0.1c0-0.1,0-0.2,0-0.2
			c-0.1-0.4-0.6-0.4-0.9-0.5c-0.1-0.1-0.2-0.1-0.1-0.3c0-0.1,0.1-0.1,0.2-0.1c0.1,0,0.2,0.1,0.3,0.1
			C225.7,171.9,225.7,171.9,225.7,171.7L225.7,171.7z M219.9,170.8L219.9,170.8l0.1,0.2c0.2,0.4,0.5,0.8,0.8,1.1
			c0.2,0.2,0.3,0.4,0.6,0.5c-0.1-0.3-0.4-0.4-0.4-0.7c0-0.1,0.1,0,0.2,0c0.1-0.1,0.1-0.1,0.1-0.2c0-0.4-0.4-0.5-0.6-0.7
			C220.4,171,220.2,170.9,219.9,170.8L219.9,170.8z M221.7,170.9l0.2,0.1c0.9,0.1,1.8,0.3,2.8,0.2c0.4,0,0.8,0.1,1.3,0.1
			c0.1,0.1,0.2,0,0.4,0c0.3,0.1,0.5,0.1,0.8,0.2c0.2,0.2,0.6,0.2,0.9,0.4c0.3,0.1,0.5,0.3,0.7,0.4c0.2,0.1,0.3,0.3,0.5,0.4
			c0.2,0.4,0.7,0.6,0.9,0.9c0.2,0.1,0.3,0.2,0.5,0.3c0.1,0.2,0.3,0.1,0.5,0.2c0.3,0.2,0.7,0.2,1,0.4c0.2,0,0.3,0,0.4,0.1
			c0,0,0,0-0.1,0.1c-0.4-0.1-0.8,0-1.2-0.1c-0.3,0-0.6,0.2-0.8,0c-0.4-0.2-0.8-0.3-1.2-0.5c-0.3-0.1-0.5-0.3-0.8-0.3
			c-0.3-0.1-0.6-0.3-0.9-0.3c-0.5-0.1-1.1-0.2-1.7-0.2c-0.5,0.1-0.9,0-1.4,0c-0.1,0-0.2,0-0.3,0c-0.6,0-1-0.1-1.6-0.1
			c-0.1-0.1-0.2-0.1-0.3-0.1c-0.5-0.2-1.1-0.3-1.6-0.6c0-0.1-0.2-0.2-0.2-0.2l0,0c-0.1-0.1-0.2-0.2-0.3-0.3c0,0,0-0.1,0-0.1
			c0.1-0.1,0.2,0,0.2-0.1c-0.1-0.3-0.5-0.3-0.4-0.7c0.1-0.2,0-0.4,0.1-0.6c0-0.1-0.1-0.2,0-0.2C220.4,170.6,221,170.7,221.7,170.9"
			/>
		<path class="st1" d="M219.2,171.7c0,0-0.1,0-0.2,0c-0.2,0-0.4,0-0.7,0c-0.1,0,0,0.1-0.1,0.1c-0.1,0-0.1,0-0.2-0.1
			c0.1-0.1-0.1-0.1,0-0.2C218.4,171.4,218.9,171.4,219.2,171.7L219.2,171.7"/>
		<path class="st1" d="M219.8,171.9C219.8,171.9,219.9,172,219.8,171.9c0.2,0.2,0.4,0.4,0.5,0.6c0.1,0.2,0.3,0.4,0.3,0.6
			c-0.1,0.2-0.3,0.4-0.3,0.7c0,0.1-0.1,0.3-0.2,0.3c0-0.2,0-0.3,0.1-0.4c0-0.2,0-0.3,0.1-0.5c-0.1-0.2,0-0.4-0.2-0.6
			c0-0.1-0.1-0.2-0.2-0.3c-0.1-0.2-0.4-0.2-0.5-0.3c-0.1,0-0.1,0-0.2,0c0-0.1,0.1-0.1,0.1-0.2C219.5,171.8,219.7,171.9,219.8,171.9"
			/>
		<path class="st1" d="M218.4,172c0.4,0.1,1,0.1,1.2,0.6c-0.1,0.6-0.3,1.1-0.5,1.6c-0.1,0.4-0.3,0.6-0.4,1c-0.2,0.2-0.3,0.4-0.4,0.6
			c-0.6,0.8-1.2,1.7-2.2,2.1c-0.1,0-0.1-0.1-0.2-0.2c0,0,0,0,0.1-0.1c0.1,0.1,0.2,0,0.3,0c0.6-0.3,1.1-0.9,1.5-1.5
			c0.3-0.5,0.6-1,0.9-1.5c0.2-0.3,0.3-0.7,0.5-1c0-0.2,0.2-0.3,0.2-0.5c0.1-0.2,0.1-0.4,0.2-0.6c0-0.1,0-0.2-0.1-0.2
			c-0.3-0.3-0.7-0.3-1.1-0.4c-0.6-0.1-1.2-0.1-1.7-0.1c-0.2,0.1-0.5,0.1-0.7,0.3c-0.1-0.1,0-0.2,0.1-0.3c0.6-0.3,1.4-0.1,2-0.1
			C218.2,172,218.3,172,218.4,172"/>
		<path class="st1" d="M220,172.6c0,0.1,0,0.1,0.1,0.1c0.1,0.3,0.1,0.6,0,0.8c-0.1,0.3-0.3,0.6-0.5,0.8c0,0.1-0.1,0.2-0.2,0.2
			l-0.1,0c0-0.1,0-0.3,0.1-0.4c0-0.1,0.1-0.1,0.1-0.2c0.1-0.1,0.3-0.2,0.2-0.4c0-0.2,0.3-0.2,0.1-0.4c0.1-0.3,0-0.5,0-0.8
			c0-0.1,0-0.2-0.1-0.3C219.8,172.3,220,172.4,220,172.6"/>
		<path class="st1" d="M212.3,171.9L212.3,171.9c0.1,0.3,0.2,0.6,0.2,0.9c-0.1,0.1-0.2,0-0.3,0c-0.1-0.1-0.1-0.3-0.2-0.5
			c0-0.2-0.1-0.3-0.2-0.4c0-0.1,0.2-0.1,0.3-0.1C212.2,171.8,212.2,171.9,212.3,171.9"/>
		<path class="st1" d="M213,172.1c0,0.3,0.1,0.5,0.1,0.8c0,0.1,0,0.2-0.1,0.1c-0.1-0.2-0.5,0-0.4-0.4c-0.1-0.1,0.1-0.2-0.1-0.3
			c0-0.1,0-0.3-0.1-0.4c0-0.1,0.1,0,0.2-0.1C212.8,172,213,171.9,213,172.1"/>
		<path class="st1" d="M209.9,172.2c0,0,0,0.1-0.1,0.1c-0.2,0-0.4,0-0.5-0.2c-0.1-0.2-0.3-0.3-0.5-0.5c0,0,0-0.1,0-0.1
			c0.1-0.1,0.2,0,0.3,0C209.4,171.8,209.6,172,209.9,172.2"/>
		<path class="st1" d="M211.7,172c0,0.1,0.1,0.2,0.1,0.4c0,0.1,0.2,0.3,0.2,0.4c-0.2,0-0.4,0.2-0.5-0.1c-0.2-0.2-0.2-0.5-0.4-0.7
			c0-0.1,0.1-0.1,0.1-0.1C211.4,171.9,211.5,171.9,211.7,172C211.6,172,211.6,172,211.7,172"/>
		<path class="st1" d="M213.7,172.4l-0.1,0.6c-0.1,0.1,0,0.2-0.1,0.2c-0.1-0.1-0.2-0.1-0.3-0.1c0-0.3,0.1-0.6,0-0.9
			c0-0.1,0-0.1,0.1-0.2C213.5,172.2,213.7,172.2,213.7,172.4"/>
		<path class="st1" d="M210.9,172c0.2,0.2,0.2,0.5,0.4,0.8c0,0.1-0.1,0.1-0.1,0.1c-0.2,0.1-0.3-0.3-0.4-0.4
			c-0.1-0.1-0.2-0.3-0.2-0.4C210.7,172,210.8,172,210.9,172"/>
		<path class="st1" d="M214.3,172.7c0,0.2-0.1,0.4-0.2,0.6c0,0,0,0,0,0c0,0.1-0.1,0.1-0.2,0.2c-0.1,0-0.1-0.1-0.2-0.1
			c-0.1-0.2,0-0.3,0.1-0.5c0.1-0.2-0.1-0.4,0.1-0.5C214.1,172.5,214.3,172.5,214.3,172.7"/>
		<path class="st1" d="M209.1,172.3c0.2,0.2,0.4,0.4,0.8,0.4c0,0,0,0.1,0,0.1c-0.1,0.1-0.3,0.1-0.5,0c-0.3-0.1-0.5-0.5-0.6-0.7
			c0,0,0-0.1,0-0.1C208.9,172,209,172.2,209.1,172.3"/>
		<path class="st1" d="M210.7,172.7l0.1,0.3c-0.1,0-0.2,0-0.3,0c0,0,0-0.1-0.1-0.1l0,0c-0.1-0.1-0.3-0.2-0.4-0.4
			c0-0.1-0.2-0.1-0.1-0.2c0.1,0,0.2-0.1,0.2-0.2c0.1,0,0.2,0,0.2,0C210.6,172.3,210.5,172.6,210.7,172.7"/>
		<path class="st1" d="M220.9,173.4c0,0.4-0.1,0.9-0.1,1.4c0,0.3-0.1,0.5,0,0.7c-0.1,0.1-0.2,0.1-0.3,0c-0.1,0-0.1-0.1-0.1-0.1
			c0-0.2,0.2-0.3,0.1-0.4c0-0.1,0.1-0.3,0-0.4c-0.1,0-0.2,0-0.2,0.1c0,0.1,0.1,0.2,0,0.3c-0.1,0-0.2,0-0.2,0.1c0,0.1,0,0.1,0,0.1
			c0,0.1,0.1,0,0.2,0.1c0,0.1,0,0.1,0,0.2c-0.1,0-0.1,0.1-0.2,0.1c-0.1,0.1-0.2,0.2-0.4,0.2c-0.1-0.1,0-0.2,0-0.3
			c-0.1-0.2,0-0.4-0.2-0.6c0-0.1-0.1-0.1,0-0.2c0-0.1,0.1-0.1,0.2-0.1c0.1,0,0.2-0.1,0.3-0.1c0.3-0.1,0.6-0.4,0.6-0.8
			c0-0.1,0.1-0.3,0.1-0.4C220.7,173.3,220.8,173.3,220.9,173.4"/>
		<path class="st1" d="M214.8,173c-0.1,0.2-0.2,0.5-0.3,0.7c-0.1,0.1-0.1,0.2-0.2,0.2c0-0.2-0.3-0.3-0.1-0.4
			c0.1-0.1,0.1-0.2,0.1-0.3c0.1-0.1,0.1-0.3,0.2-0.4C214.6,172.8,214.7,172.9,214.8,173"/>
		<path class="st1" d="M233.2,175c0.2,0,0.3,0.1,0.5,0.1c0.1,0.2,0.2,0.4,0.3,0.7c0.2,0.1,0.3,0.2,0.5,0.3c0,0.1,0,0.1-0.1,0.1
			c-0.3,0-0.6,0-0.8-0.2c-0.1,0-0.2-0.1-0.3-0.1c-0.2-0.2-0.5-0.4-0.7-0.6c-0.2-0.1-0.4-0.2-0.6-0.4c-0.1,0-0.2,0-0.2-0.2
			c0-0.1,0.1,0,0.2,0C232.3,174.7,232.8,174.9,233.2,175"/>
		<path class="st1" d="M221.4,174.1c0.1,0.1,0.1,0.3,0.1,0.5c-0.1,0.1-0.3,0.1-0.5,0.2c-0.2-0.1-0.1-0.3-0.1-0.5l0-0.6
			c0-0.1,0.1-0.1,0.2,0L221.4,174.1"/>
		<path class="st1" d="M215.2,173.6c-0.1,0.3-0.3,0.5-0.5,0.7c-0.1,0-0.1,0.1-0.2,0c0-0.1-0.1-0.2-0.2-0.3c0.2-0.1,0.3-0.2,0.3-0.4
			c0.1-0.1,0.1-0.2,0.2-0.3c0-0.1,0-0.1,0.1-0.1C215,173.3,215.1,173.4,215.2,173.6"/>
		<path class="st1" d="M209.7,173.1c0.1,0.1-0.1,0.3,0.1,0.4c0-0.1,0-0.2,0.1-0.3c0.2-0.2,0.6,0,0.8,0c0.2,0.1,0.3,0.3,0.4,0.5
			c0,0.2,0.2,0.3,0.1,0.5c0,0.2-0.1,0.5-0.1,0.7c-0.2,0.5-0.3,0.9-0.5,1.4l-0.1,0.1c0-0.1-0.1-0.1-0.2-0.1c-0.1,0.1-0.2,0-0.2,0
			c0-0.1,0-0.2-0.1-0.2c0.1-0.2-0.1-0.4,0.1-0.5c0.1-0.4,0.1-0.8,0.2-1.2c0-0.2,0.1-0.3,0.1-0.4c-0.1-0.1-0.1-0.1-0.2-0.1l0,0
			c0.2,0.1,0,0.3,0,0.4c0,0.4-0.1,0.7-0.2,1.1c0,0.4-0.1,0.7-0.2,1.1c0.1,0.3-0.2,0.5-0.1,0.8c0,0,0.1,0,0.1,0
			c0-0.2,0.1-0.5,0.1-0.7c0-0.1,0.1,0,0.1,0c0,0.1,0,0.1,0,0.2c-0.1,0.1,0,0.2,0,0.3c0,0.1,0,0.3-0.1,0.3c-0.1,0-0.2,0.1-0.3,0.1
			c0,0-0.1,0.1-0.2,0.1c-0.1-0.2,0-0.5-0.3-0.6c-0.1-0.2-0.3-0.2-0.4-0.3c0-0.1-0.1-0.2,0-0.3c0.1-0.3-0.2-0.6,0.1-0.8
			c0-0.2,0-0.4,0.2-0.5c0.1,0,0.3,0.1,0.4,0c-0.1-0.1-0.3-0.1-0.5-0.2c0-0.1-0.1-0.1-0.1-0.2c0.1,0,0.2,0,0.2,0
			c0.1,0.2,0.3,0.1,0.5,0.1c0.1,0,0.1-0.1,0.1-0.2c-0.1-0.2-0.2-0.4-0.4-0.4c-0.1,0-0.3,0.1-0.3-0.1c0,0,0,0-0.1,0
			c-0.1-0.3,0.1-0.5,0.1-0.8c0-0.1,0.1-0.1,0.1-0.1C209.5,173,209.6,173.1,209.7,173.1"/>
		<path class="st1" d="M215.5,174c0,0.1,0,0.1,0,0.2c-0.1,0.1-0.4,0.1-0.3,0.4c-0.1,0.1-0.3,0-0.4,0.2c-0.1,0,0-0.1-0.1-0.2
			c0.1-0.2,0.3-0.3,0.4-0.5c0.1-0.1,0.1-0.2,0.3-0.3C215.4,173.8,215.5,173.9,215.5,174"/>
		<path class="st1" d="M221.8,174.9c0,0.1,0.2,0.1,0.2,0.2c0.1,0.1,0.2,0.3,0.2,0.4c0,0-0.1,0.1-0.1,0.1c-0.2,0-0.1-0.2-0.3-0.3
			c-0.2,0.1-0.3-0.3-0.5-0.1c-0.1,0-0.1-0.1-0.1-0.1c0-0.2,0.1-0.2,0.2-0.3c0.1-0.1,0.3-0.1,0.4-0.1
			C221.7,174.9,221.7,174.9,221.8,174.9"/>
		<path class="st1" d="M235.6,176.6c0.2,0,0.3,0.3,0.4,0.4c-0.1,0-0.1,0.1-0.2,0c-0.2-0.1-0.3,0-0.5-0.1c-0.2-0.1-0.3-0.2-0.5-0.3
			c0-0.1-0.1-0.1-0.2-0.1c-0.1,0-0.3,0-0.4-0.1c0,0,0.1,0,0.1-0.1c0.1,0.1,0.1-0.1,0.2-0.1l0.2-0.1
			C235,176.4,235.4,176.3,235.6,176.6"/>
		<path class="st1" d="M219.4,174.9l0.1,0.7c-0.1,0.2-0.4,0.1-0.6,0.1c-0.2-0.3,0.2-0.4,0.2-0.7c0.1-0.1,0-0.3,0.2-0.2
			C219.3,174.8,219.3,174.8,219.4,174.9"/>
		<path class="st1" d="M216.8,174.7c-0.1,0-0.1,0.2-0.2,0.3c0,0.1-0.1,0.2-0.1,0.4c0.1,0,0.3,0.1,0.4,0c0.1-0.1,0.2-0.3,0.1-0.5
			C217,174.8,216.9,174.7,216.8,174.7L216.8,174.7z M217.2,173.5c-0.1,0-0.2,0.1-0.2,0.2c-0.1,0.3-0.2,0.6-0.2,0.9
			c0.1,0,0.1,0.1,0.2,0.1c0.1,0.1,0.2,0.2,0.2,0.4c0,0.2,0,0.4-0.2,0.5c-0.1,0.1-0.3,0-0.4,0c-0.2-0.1-0.3-0.1-0.5-0.2
			c0-0.1,0.1-0.1,0.2-0.2c0-0.2,0.1-0.3,0.2-0.4l0,0c-0.3,0.1-0.4,0.3-0.5,0.6c0,0.4,0.4,0.6,0.7,0.7c0.2,0,0.4-0.1,0.6-0.2
			c0.1-0.1,0.2-0.2,0.3-0.4c0.2-0.3,0.3-0.7,0.2-1.1c-0.1-0.1-0.1-0.3-0.2-0.4C217.4,173.7,217.4,173.6,217.2,173.5L217.2,173.5z
			 M216.9,172.7c-0.1,0-0.1,0.1-0.1,0.2c0.1,0.1,0.1,0.2,0.2,0.2c0.1-0.1,0.1-0.3,0.1-0.5C217,172.6,217,172.7,216.9,172.7
			L216.9,172.7z M217.5,172.6c-0.1,0-0.1,0.1-0.1,0.2c0,0.2-0.1,0.3-0.1,0.5c0.1,0.1,0.1,0,0.2,0.1c0.2,0,0.3,0,0.5-0.1
			c0.1-0.1,0.1-0.3,0.1-0.5C217.8,172.8,217.7,172.6,217.5,172.6L217.5,172.6z M218.1,172.7c-0.3-0.3-0.7-0.3-1.1-0.2
			c-0.3,0.1-0.4,0.3-0.4,0.6c0.1,0.1,0.2,0.1,0.3,0.2c-0.1,0.2-0.1,0.4-0.2,0.6c-0.1,0.2-0.1,0.5-0.3,0.6c-0.3,0-0.6,0.3-0.8,0.6
			c-0.1,0.3,0,0.7,0.3,0.9c0.3,0.2,0.7,0.3,1.1,0.2c0.2,0,0.4-0.1,0.5-0.3c0.2-0.1,0.3-0.3,0.4-0.4c0.2-0.5,0.2-1.2-0.2-1.6
			c0-0.1-0.1-0.1-0.1-0.2c0.2-0.1,0.4-0.1,0.5-0.2c0.2-0.1,0.1-0.3,0.1-0.5C218.2,172.9,218.2,172.7,218.1,172.7L218.1,172.7z
			 M219.3,172.5c0.1,0,0.1,0.1,0.2,0.2c-0.2,0.3-0.2,0.7-0.4,1c0,0.3-0.2,0.5-0.3,0.7c-0.2,0.4-0.4,0.7-0.6,1.1
			c0,0.2-0.2,0.2-0.2,0.4c-0.1,0.2-0.4,0.4-0.5,0.7c-0.2,0.1-0.3,0.4-0.5,0.5c-0.2,0.2-0.4,0.4-0.7,0.5c-0.1,0-0.1,0.1-0.2,0.1
			c-0.2-0.3-0.3-0.7-0.4-1c-0.2-0.5-0.3-1.1-0.3-1.6c0,0,0,0,0,0c0-0.1,0.1-0.3,0.2-0.4c0.1-0.3,0.4-0.2,0.6-0.4
			c0.3-0.1,0.4-0.3,0.4-0.6c0-0.2-0.1-0.2-0.2-0.3c-0.2-0.1-0.3,0.1-0.4,0.1l-0.1,0c0-0.3,0.2-0.6,0.3-0.9c0.3-0.3,0.6-0.3,1-0.3
			c0.3,0,0.7,0,1.1,0.1C218.5,172.2,218.9,172.4,219.3,172.5"/>
		<path class="st1" d="M209.1,174c0.1,0.2-0.3,0.4-0.1,0.6c0,0.1,0,0.1-0.1,0.1c-0.2,0-0.2-0.1-0.4-0.2c-0.3,0-0.6-0.1-0.9-0.1
			c0,0-0.1,0-0.1-0.1c0-0.1,0.1,0,0.1-0.1c0.4,0,0.8,0,1.1-0.1C208.9,174.1,208.9,173.9,209.1,174"/>
		<path class="st1" d="M222,175.9c0.3,0.2,0.7,0.3,1,0.6c0.1,0,0.2,0.1,0.3,0.2c0.6,0.3,1.1,0.6,1.7,1c0.4,0.2,0.8,0.4,1.2,0.7
			c0.1,0,0.2,0.2,0.4,0.2c0.2,0.2,0.5,0.3,0.7,0.4c0.1,0.2,0.5,0.2,0.6,0.4c0.2,0.1,0.3,0.1,0.5,0.2c0.2,0.1,0.4,0.2,0.5,0.3
			c0,0.1-0.1,0.1-0.1,0.1c-0.2,0-0.3-0.2-0.5-0.2c-0.3-0.2-0.6-0.3-0.8-0.5c-0.3-0.2-0.6-0.3-0.8-0.5c-0.1,0-0.2-0.1-0.4-0.2
			c-0.3-0.2-0.6-0.4-0.9-0.5c-0.4-0.2-0.8-0.4-1.1-0.6c-0.5-0.1-0.8-0.5-1.3-0.6c-0.5-0.3-0.9-0.5-1.4-0.8c-0.2,0-0.3-0.1-0.4-0.1
			c-0.1,0,0-0.1,0-0.1c0.1-0.2,0.1-0.4,0.3-0.4C221.6,175.6,221.8,175.8,222,175.9"/>
		<path class="st1" d="M215.2,175.1c-0.1-0.1-0.2,0-0.3-0.1c0,0,0-0.1,0-0.1c0,0,0.1,0,0.1-0.1l0,0c0.1,0,0.2-0.1,0.2,0L215.2,175.1
			"/>
		<path class="st1" d="M221,175.9L221,175.9c-0.1,0.1-0.3-0.1-0.4,0c-0.2,0.1-0.4,0-0.6,0c0-0.1,0.1-0.1,0.2-0.2
			c0.1,0,0.2,0,0.3-0.1C220.6,175.7,220.9,175.7,221,175.9"/>
		<path class="st1" d="M215.3,175.4C215.3,175.4,215.3,175.5,215.3,175.4c-0.1,0.1-0.2,0-0.2,0c0-0.1-0.1-0.1-0.1-0.2
			c0.1,0,0.1-0.1,0.2,0C215.2,175.2,215.2,175.3,215.3,175.4"/>
		<path class="st1" d="M219.6,175.8c-0.1,0.4,0,0.7,0.1,1.1c-0.1,0.2-0.5,0.2-0.4,0.5c-0.3,0.1-0.6,0.3-0.7,0.6l-0.3,0.2
			c-0.1-0.1,0-0.2,0-0.3c0-0.1,0.2-0.1,0.2-0.3c0.1-0.1,0.3-0.1,0.4-0.3c-0.2-0.1,0-0.3,0.1-0.5c-0.1,0-0.1,0-0.1-0.1
			c0-0.1,0.1-0.2,0.1-0.2c0,0,0.1,0,0.1,0c0-0.1-0.1-0.1-0.1-0.2c0-0.1,0.1-0.1,0.1-0.1c-0.1-0.1-0.1-0.1-0.1-0.2
			c0.1-0.2,0.3,0,0.5-0.1C219.5,175.8,219.6,175.8,219.6,175.8"/>
		<path class="st1" d="M218.7,175.8c0.1,0.3-0.1,0.6-0.1,1c-0.1,0.3-0.3,0.7-0.5,1c-0.2,0.2-0.4,0.4-0.7,0.5
			c-0.1,0.1-0.2,0.1-0.3,0.1c-0.3,0.1-0.5,0.4-0.5,0.8c0,0.1,0,0.2,0.1,0.3c0,0.1-0.1,0.1-0.1,0.1c-0.3-0.2-0.2-0.7-0.1-1.1
			c0.4-0.4,1-0.4,1.4-0.9c0-0.1,0.2-0.2,0.2-0.3c0.1-0.2,0.3-0.5,0.3-0.7c0-0.1,0-0.3,0-0.4C218.4,176,218.5,175.8,218.7,175.8
			L218.7,175.8"/>
		<path class="st1" d="M220.8,176.1c0.1,0.1,0,0.2,0.1,0.3c0,0.3-0.1,0.5-0.1,0.7c-0.1,0.1-0.1,0.4-0.3,0.5c-0.1,0-0.1-0.1-0.2-0.1
			c0,0-0.1-0.1,0-0.1c0,0,0.1,0,0.1-0.1c-0.1-0.1-0.1-0.1-0.1-0.2c0.1-0.1-0.1-0.2-0.1-0.3c-0.1-0.1-0.2-0.3-0.1-0.5
			c0-0.1-0.2-0.2,0-0.3c0.2-0.1,0.4,0,0.7-0.1C220.7,176,220.8,176,220.8,176.1"/>
		<path class="st1" d="M211.5,175.2c0,0.3,0,0.5,0,0.8c0,0.1,0,0.3-0.1,0.3c-0.1,0-0.1-0.1-0.2-0.1c0-0.2,0.1-0.3,0.1-0.4
			c0.1-0.1,0-0.2,0.1-0.2c0-0.1,0-0.3,0-0.4C211.5,175.1,211.5,175.1,211.5,175.2"/>
		<path class="st1" d="M221.3,176.4c0,0.1,0.1,0.3,0,0.4c-0.1,0-0.1-0.1-0.2-0.2c0-0.1,0-0.3,0-0.4
			C221.2,176.2,221.3,176.3,221.3,176.4"/>
		<path class="st1" d="M211.1,175.6C211.1,175.6,211.2,175.6,211.1,175.6c0,0.2-0.2,0.4-0.2,0.6c-0.1,0.1-0.1,0-0.2,0
			c0-0.1,0.1-0.2,0.1-0.4C211,175.8,211,175.6,211.1,175.6L211.1,175.6"/>
		<path class="st1" d="M218.3,176.4c-0.2,0.5-0.2,1-0.7,1.4c-0.2,0.1-0.3,0.2-0.5,0.1c-0.1,0,0-0.1,0-0.1c0.4-0.4,0.7-0.9,1-1.4
			c0,0,0-0.1,0.1-0.1C218.2,176.4,218.3,176.3,218.3,176.4"/>
		<path class="st1" d="M215.4,176.2c0,0.1,0.1,0.1,0.1,0.2c-0.1,0.1-0.2,0.2-0.4,0.3c0,0.1,0.2,0.2,0.1,0.4
			c-0.1,0.1-0.2,0.2-0.4,0.3c-0.1,0-0.1-0.1-0.2-0.2c0-0.1-0.1,0-0.1-0.1c0,0,0,0.1-0.1,0l0,0c-0.1,0.1-0.2,0.2-0.3,0.2
			c0,0.1,0.1,0.2,0.1,0.4c0,0,0,0,0,0c-0.1,0.1-0.3,0.4-0.5,0.3c0-0.1-0.1-0.2-0.2-0.2c-0.1,0-0.2,0.1-0.3,0.2l-0.1,0
			c0,0.1,0,0.3,0.2,0.3c-0.2,0.1-0.2,0.2-0.4,0.3c0,0.1-0.1,0.1-0.2,0c-0.2,0-0.2-0.4-0.4-0.1c-0.2,0-0.2,0.2-0.4,0.1
			c0-0.1,0-0.1,0-0.2c0.1,0,0-0.1,0.1-0.1c0-0.1-0.1-0.1,0-0.2c0.2-0.1,0.3-0.2,0.5-0.2c0.4-0.2,0.8-0.4,1.1-0.7
			c0.3-0.3,0.6-0.4,0.9-0.7c0.2-0.1,0.4-0.2,0.6-0.3C215.3,176.1,215.3,176.2,215.4,176.2"/>
		<path class="st1" d="M221.9,177.2c0.1,0,0.1,0,0.2,0.1c0,0.1,0,0.2-0.1,0.2c-0.2-0.1-0.5,0-0.7-0.1c-0.1,0,0,0.1-0.1,0.1
			c-0.2,0.2-0.2,0.5-0.3,0.7c0,0.2-0.1,0.4-0.2,0.5c-0.1,0-0.2,0.1-0.3,0.1c0-0.2,0.2-0.4,0.3-0.6c0.1-0.4,0.1-0.8,0.4-1
			C221.4,177,221.7,177.1,221.9,177.2"/>
		<path class="st1" d="M220,177c0,0,0,0.1,0,0.1c-0.1,0.1,0.1,0.2,0,0.3c-0.1-0.1-0.3-0.1-0.4-0.2c0-0.1,0.2-0.2,0.3-0.3
			C219.9,177,220,177,220,177"/>
		<path class="st1" d="M222,177.5c0,0,0,0.1,0,0.1c-0.1,0.1-0.3,0-0.5,0c0,0,0-0.1,0-0.1C221.6,177.5,221.8,177.5,222,177.5"/>
		<path class="st1" d="M211.5,176.5c0.1,0.1,0.1,0.3,0.1,0.4c-0.1,0.1-0.1-0.1-0.2-0.2c0-0.1-0.1-0.2-0.1-0.2c0,0-0.1-0.1-0.1-0.1
			c0,0,0-0.1,0.1-0.1C211.3,176.5,211.5,176.4,211.5,176.5"/>
		<path class="st1" d="M219.7,177.5c0,0.1,0,0.2-0.1,0.3c-0.2,0.2-0.6,0.2-0.8,0.3c0,0-0.1,0.1-0.1,0.1c0-0.1,0.1-0.1,0.2-0.2
			c0.1-0.1,0.3-0.2,0.4-0.3c0.1-0.1,0.1-0.2,0.2-0.3C219.6,177.4,219.7,177.4,219.7,177.5"/>
		<path class="st1" d="M210.8,176.5c0.1,0,0.2,0.2,0.3,0.2c0.1,0.1,0.2,0.3,0.3,0.4c0,0.3-0.2,0.6-0.4,0.8c-0.1,0.1-0.1,0.2-0.2,0.4
			c0.1,0,0,0.1,0.1,0.1c0-0.1,0-0.1,0.1-0.2c0-0.3,0.3-0.4,0.4-0.6c0.1,0,0-0.3,0.2-0.2c0.1,0.4-0.5,0.5-0.4,0.9
			c-0.1,0.1,0.1,0.2,0.2,0.3c0.2,0,0.3,0.2,0.5,0.1c0.1,0,0.3-0.2,0.3,0c-0.3,0.1-0.6,0.2-0.9,0c-0.2,0-0.3-0.2-0.5-0.2
			c-0.1-0.1-0.2-0.3-0.1-0.5c0.1-0.2,0.2-0.4,0.4-0.6c0.1-0.1,0.3-0.2,0.3-0.5c-0.1-0.2-0.3-0.3-0.5-0.4c-0.1,0-0.1,0.1-0.1,0.2
			c-0.1,0.1,0,0.3-0.1,0.2c0,0-0.1,0.1-0.1,0.1c0-0.1-0.2-0.2-0.1-0.3c0-0.2,0-0.4,0-0.6C210.5,176.3,210.6,176.4,210.8,176.5
			L210.8,176.5"/>
		<path class="st1" d="M222,177.8c0,0.1,0,0.2,0,0.3c-0.2,0.5-0.8,0.9-1.2,1.3c0,0.1-0.1,0.2-0.1,0.3c0.1-0.1,0.2-0.2,0.3-0.1
			c0.1,0.1-0.1,0.2-0.1,0.3c-0.1,0.1-0.1,0.1-0.1,0.2c0,0,0,0.1,0.1,0.1c0.1-0.1,0.1-0.2,0.2-0.3c0.1-0.2,0.1-0.4,0.3-0.5
			c0-0.1,0.1-0.1,0.2-0.2c0,0,0.1,0,0.1,0.1c-0.1,0.1-0.2,0.2-0.2,0.4c-0.2,0.3-0.3,0.6-0.4,0.9c-0.1,0.2-0.2,0.4-0.3,0.5
			c-0.2,0.2-0.6,0.2-0.9,0.1c-0.1-0.1-0.3-0.2-0.2-0.3c0,0,0-0.1,0.1-0.1c0.1,0.2,0.2,0.2,0.4,0.2c0.2,0,0.4,0,0.6-0.2
			c0.1-0.1,0.1-0.2,0.1-0.2c0,0-0.1,0-0.1,0c0,0.1-0.1,0.3-0.2,0.3c0,0-0.1,0-0.1-0.1c0.1-0.1-0.1-0.2-0.1-0.3c0.1-0.2,0-0.3,0-0.5
			c-0.2-0.7,0.6-0.9,0.9-1.5c0.2-0.2,0.2-0.5,0.3-0.7c0.2-0.2,0.4-0.1,0.6-0.1C221.9,177.9,221.9,177.8,222,177.8"/>
		<path class="st1" d="M215.4,177.4c-0.1,0.1-0.1,0.2-0.2,0.2c-0.2,0.2-0.3,0.4-0.4,0.5c0,0.1,0,0.1,0.1,0.1c-0.1,0.2,0,0.4,0,0.6
			c-0.3,0.2-0.6-0.2-0.9-0.1c-0.2-0.1-0.5,0.1-0.6-0.1c0-0.1,0-0.1,0.1-0.2c0.2-0.1,0.4-0.1,0.5-0.3c0.1-0.2,0.3-0.2,0.5-0.3
			c0.2-0.3,0.6-0.4,0.8-0.7C215.3,177.2,215.5,177.2,215.4,177.4"/>
		<path class="st1" d="M209.2,176.6c0,0,0.1,0.1,0.1,0.1c0,0.1,0,0.2,0.1,0.2c0.1,0,0,0.1,0.1,0.2c0,0.2-0.2,0.4-0.2,0.6
			c-0.1,0-0.2-0.1-0.3-0.1c-0.1,0-0.2-0.1-0.3-0.1c0-0.2,0-0.5,0.1-0.6c0.1-0.1,0.1-0.3,0.3-0.3C209,176.7,209.1,176.6,209.2,176.6"
			/>
		<path class="st1" d="M212.5,177.1c-0.1,0-0.1,0.1-0.1,0.1c0,0.1,0.1,0.1,0.1,0.1c0.1,0,0.1-0.1,0.1-0.2
			C212.6,177.1,212.6,177.1,212.5,177.1L212.5,177.1z M212.2,177c-0.1,0-0.2,0-0.1,0.1c0,0.1,0.1,0.1,0.1,0.1
			C212.2,177.1,212.3,177.1,212.2,177C212.3,177,212.2,176.9,212.2,177L212.2,177z M212.9,176.8c0,0,0,0.1,0,0.1c0,0,0.1,0,0.1,0
			c0.1,0,0.1-0.1,0.1-0.1C213.1,176.8,213,176.6,212.9,176.8L212.9,176.8z M212.6,176.7c-0.1,0-0.2,0-0.2,0.1c0,0.1,0.1,0,0.1,0.1
			c0,0,0.1,0.1,0.1,0C212.7,176.7,212.7,176.7,212.6,176.7L212.6,176.7z M212.1,176.5c0,0,0,0.1,0,0.2c0,0,0.1,0,0.1,0
			c0,0,0.1,0,0.1-0.1C212.3,176.4,212.1,176.4,212.1,176.5L212.1,176.5z M213.5,176.4c-0.1,0-0.1,0-0.1,0.1c0,0.1,0.1,0,0.1,0.1
			c0-0.1,0.1-0.1,0.1-0.1C213.6,176.4,213.5,176.4,213.5,176.4z M212.8,176.2C212.7,176.2,212.7,176.3,212.8,176.2
			c0,0.2,0.1,0.2,0.1,0.2c0.1,0,0.1-0.1,0.1-0.2C213,176.2,212.9,176.3,212.8,176.2L212.8,176.2z M212,175.9c0,0.1-0.1,0-0.1,0.1
			c0,0,0.1,0.1,0.1,0.1c0.1,0.1,0.1-0.1,0.2-0.1C212.1,175.9,212.1,175.9,212,175.9z M213.4,176c0,0.1,0,0.1,0,0.2
			c0.1-0.1,0.2,0,0.2-0.1C213.6,175.9,213.4,176,213.4,176z M214.1,176c-0.1,0-0.1,0-0.2,0c0,0-0.1,0.1-0.1,0.1c0.1,0.1,0.2,0,0.3,0
			C214.1,176.1,214.1,176,214.1,176L214.1,176z M212.6,175.9c0-0.1-0.2,0-0.2,0l0,0c0,0-0.1,0.1,0,0.1c0.1,0,0,0.1,0.1,0.1
			C212.5,176.1,212.6,176,212.6,175.9L212.6,175.9z M213,175.7c-0.1,0,0,0.1-0.1,0.1c0,0.1-0.1,0.1,0,0.2c0,0,0.1,0,0.1,0
			c0-0.1,0.1,0,0.1-0.1C213.2,175.7,213.1,175.7,213,175.7L213,175.7z M214.6,175.7c-0.1,0-0.1,0.1-0.1,0.1c0,0,0.1,0.1,0.1,0.1
			c0,0,0.1,0,0.1-0.1C214.7,175.7,214.7,175.7,214.6,175.7L214.6,175.7z M214.3,175.7c-0.1,0-0.1,0-0.2,0c0,0,0,0.1,0,0.1
			c0.1,0,0.1,0,0.2,0C214.3,175.8,214.3,175.7,214.3,175.7L214.3,175.7z M213.5,175.6c0,0.1,0,0.1,0,0.2c0.1,0,0.2,0,0.3,0
			C213.9,175.5,213.6,175.6,213.5,175.6L213.5,175.6z M212.3,175.4c0,0.1,0,0.1,0,0.2c0.1,0,0.2,0.1,0.3,0
			C212.5,175.4,212.4,175.4,212.3,175.4L212.3,175.4z M211.9,175.2c0,0.1,0,0.2,0.1,0.2c0.1,0,0.1,0,0.1-0.1
			C212.2,175.2,212,175.1,211.9,175.2L211.9,175.2z M212.7,175.3c0,0.1,0,0.1,0.1,0.2c0-0.1,0.2,0,0.1-0.1
			C213,175.3,212.8,175.2,212.7,175.3z M214.6,175.5c0,0.1,0.1,0,0.1,0.1c0.1,0,0-0.1,0-0.2C214.7,175.4,214.6,175.4,214.6,175.5z
			 M214.2,175.3c0,0.1,0,0.2,0.1,0.2c0.1,0,0.1-0.1,0.2-0.1C214.4,175.3,214.3,175.3,214.2,175.3L214.2,175.3z M213.2,175.2
			c0,0.1,0,0.2,0.1,0.2c0.1,0,0.2-0.1,0.2-0.2C213.4,175.1,213.3,175.2,213.2,175.2L213.2,175.2z M212.3,174.9c0,0-0.1,0-0.1,0.1
			c0,0.1,0.1,0.1,0.2,0.1c0,0,0-0.1,0.1-0.1l0,0C212.4,174.9,212.3,174.9,212.3,174.9L212.3,174.9z M213.9,175c0,0.1-0.1,0-0.1,0.1
			c0,0.1,0.1,0.1,0.1,0.1c0.1,0.1,0.1-0.1,0.2-0.1C214,175,213.9,175,213.9,175z M212.7,174.9c0,0.1,0.1,0.1,0.1,0.1
			c0.1,0.1,0.2-0.1,0.2-0.1C212.9,174.7,212.8,174.9,212.7,174.9L212.7,174.9z M214.3,174.8c0,0-0.1,0-0.1,0.1
			c0,0.1,0.1,0.2,0.2,0.1c0,0,0-0.1,0.1-0.1C214.4,174.8,214.3,174.8,214.3,174.8L214.3,174.8z M213.4,174.7c-0.1,0.1-0.2,0-0.2,0.1
			c0.1,0.1,0.2,0.1,0.2,0.1L213.4,174.7C213.5,174.7,213.5,174.7,213.4,174.7z M212.1,174.5c-0.1,0-0.1,0.1-0.1,0.1c0,0,0,0.1,0,0
			c0,0.1,0.1,0.1,0.1,0.1C212.1,174.7,212.2,174.7,212.1,174.5C212.1,174.5,212.1,174.5,212.1,174.5z M213.8,174.5
			c0,0-0.1,0.1-0.1,0.1c0,0.1,0,0.1,0.1,0.1c0,0,0.1,0,0.2-0.1C214,174.6,213.9,174.5,213.8,174.5L213.8,174.5z M212.5,174.4
			c-0.1,0-0.1,0.1-0.1,0.2c0,0.1,0.1,0.1,0.2,0.1c0.1,0,0.1-0.1,0.1-0.1C212.6,174.4,212.6,174.4,212.5,174.4z M211.6,174.2
			C211.7,174.2,211.7,174.3,211.6,174.2c0,0.2,0.1,0.2,0.2,0.2c0.1,0,0-0.1,0.1-0.1C211.9,174.2,211.7,174.2,211.6,174.2
			L211.6,174.2z M212.9,174.4c0,0.1,0.1,0.1,0.1,0.1c0.1,0,0.1,0,0.2,0c0,0,0-0.1,0-0.1c0,0,0,0,0,0
			C213.1,174.2,213,174.4,212.9,174.4L212.9,174.4z M213.5,174.3c0,0.1,0,0.1,0.1,0.1c0,0,0.1,0,0.1,0c0,0,0.1,0,0.1-0.1
			C213.7,174.2,213.5,174.2,213.5,174.3z M213.9,174.2c0,0.1,0,0.2,0,0.2c0,0,0.1,0,0.1,0c0,0,0.1,0,0.1-0.1
			C214.1,174.2,214,174.1,213.9,174.2L213.9,174.2z M212.2,174c-0.1,0.1,0,0.1,0,0.2c0,0.1,0.1,0,0.2,0
			C212.4,174,212.3,174,212.2,174L212.2,174z M212.7,173.9c0,0.1-0.1,0.2,0,0.2c0.1,0,0.2,0,0.2-0.1
			C212.8,174,212.8,173.9,212.7,173.9L212.7,173.9z M211.6,173.8c0,0.1,0,0.1,0.1,0.2c0.1,0,0.1,0,0.2,0c0.1-0.1-0.1-0.1-0.1-0.2
			l0,0C211.8,173.7,211.7,173.7,211.6,173.8L211.6,173.8z M213.6,173.9C213.5,174,213.6,174,213.6,173.9c0.1,0.1,0.2,0.2,0.2,0
			C213.8,173.8,213.6,173.8,213.6,173.9z M213.3,173.8c-0.1,0-0.2,0-0.2,0.1c0,0,0.1,0.1,0.1,0.1
			C213.2,173.9,213.3,173.9,213.3,173.8L213.3,173.8z M212.3,173.6c0,0.1,0,0.1,0,0.2c0.1,0,0.1,0.1,0.2,0.1c0.1-0.1-0.1-0.1,0-0.2
			C212.4,173.5,212.3,173.5,212.3,173.6z M212.7,173.5c0,0.1,0,0.1,0.1,0.1c0.1,0,0.1-0.1,0.2-0.1
			C212.9,173.4,212.7,173.4,212.7,173.5z M211.5,173.3c0,0,0,0.1-0.1,0.1c0,0,0.1,0,0,0.1c0.1,0,0.1,0.1,0.2,0.1c0,0,0,0,0-0.1
			C211.6,173.4,211.6,173.3,211.5,173.3z M213.1,173.4C213.1,173.5,213.2,173.5,213.1,173.4c0,0.1,0,0.1,0.1,0.2c0.1,0,0.1,0,0.2,0
			c0,0,0,0,0-0.1C213.3,173.4,213.2,173.4,213.1,173.4L213.1,173.4z M212,173.3c-0.1,0-0.1,0.1-0.1,0.1c0,0,0.1,0.1,0.2,0.1
			c0.1,0,0-0.1,0.1-0.1C212,173.3,212,173.3,212,173.3L212,173.3z M212.3,173.3c-0.1,0.1,0,0.1,0,0.2c0,0,0.1,0,0.1-0.1
			C212.5,173.3,212.4,173.3,212.3,173.3L212.3,173.3z M212.9,173.1c0.1,0.1,0.2,0,0.2,0.1c0,0,0.1,0,0.1,0c0.1,0.1,0.2,0.1,0.3,0.2
			c0.2,0.1,0.3,0.2,0.5,0.3c0,0.1,0.2,0.2,0.2,0.3c0,0.1,0.2,0.2,0.2,0.4c0.2,0.4,0.4,0.9,0.7,1.3l0,0c-0.2,0.1-0.5,0.2-0.7,0.4
			c-0.1,0-0.2,0.2-0.3,0.2c-0.3,0.2-0.6,0.5-0.9,0.7c-0.3,0.3-0.7,0.4-1,0.6c-0.1,0-0.2,0.1-0.2,0c0-0.2-0.1-0.3-0.1-0.5
			c0-0.1-0.1-0.2,0-0.3c-0.1-0.2,0-0.5,0-0.8c0-0.3,0.1-0.6-0.1-0.9c0-0.1,0-0.3,0-0.4c-0.1-0.1-0.3-0.2-0.2-0.4
			c0-0.3-0.1-0.5-0.1-0.7c-0.1,0,0-0.1-0.1-0.2c-0.1-0.1-0.1-0.3-0.2-0.4c0-0.1,0.1,0,0.2-0.1c0.3-0.1,0.6-0.1,1-0.1
			C212.4,173.1,212.7,173,212.9,173.1"/>
		<path class="st1" d="M215.7,177.6c-0.1,0.2,0.1,0.3,0.2,0.4c0.1,0,0.2,0.1,0.4,0.1c0,0,0,0.1,0,0.1c-0.3,0.1-0.6,0.2-0.9,0.4
			c-0.1,0-0.2,0-0.3,0c-0.1-0.1,0-0.3,0-0.5C215.1,177.9,215.4,177.8,215.7,177.6C215.6,177.6,215.7,177.5,215.7,177.6"/>
		<path class="st1" d="M210,177.4c0,0.2-0.2,0.2-0.3,0.4c-0.1,0-0.3,0.1-0.3,0c0-0.1,0-0.3,0.2-0.3c0.1,0,0.3,0,0.4-0.1
			C210,177.3,210,177.3,210,177.4"/>
		<path class="st1" d="M224.9,179.5c0.7,0.2,1.4,0.4,2,0.9c0.1,0.1,0.3,0.2,0.3,0.3c0,0,0,0.1,0,0.1c-0.1,0-0.2-0.1-0.3-0.2
			c-0.2-0.2-0.4-0.2-0.6-0.4c-0.2-0.1-0.4-0.1-0.6-0.2c-0.5-0.1-0.9-0.3-1.4-0.4c-0.5-0.1-1-0.2-1.5-0.2c-0.3,0.1-0.7-0.1-1,0.1
			c0,0-0.1,0,0-0.1c0,0,0,0,0-0.1c0,0,0,0,0-0.1c0.4-0.2,0.8,0,1.2-0.1C223.7,179.3,224.3,179.2,224.9,179.5"/>
		<path class="st1" d="M218.6,178.9c-0.1,0.1-0.2,0.2-0.3,0.2c0,0,0,0.1,0,0.1l0.5-0.3c0.1-0.1,0.3,0,0.3-0.2
			C219,178.7,218.8,178.8,218.6,178.9L218.6,178.9z M219.4,178.3c-0.3,0.1-0.7,0.1-0.8,0.3C218.8,178.5,219.1,178.4,219.4,178.3
			L219.4,178.3L219.4,178.3z M220,177.7c0.1,0.2,0.3,0.4,0.5,0.4l0,0.1c-0.1,0-0.2,0.1-0.3,0.1c-0.2,0.2-0.1,0.4-0.4,0.5
			c-0.1,0.3-0.4,0.5-0.5,0.9c0,0,0,0-0.1,0c-0.1-0.2-0.2-0.1-0.4-0.2c-0.2,0-0.3,0.1-0.5,0.1c-0.1,0.1-0.3,0.2-0.4,0.4
			c0,0-0.1,0-0.1,0.1c0-0.1,0-0.2,0-0.2c0.2,0-0.1-0.2,0.1-0.3c0,0,0,0.1,0.1,0.1c0.1-0.2-0.3-0.3-0.1-0.5c0.1-0.2,0.2-0.4,0.2-0.7
			c0.1-0.1,0.2-0.1,0.3-0.2c0.3-0.2,0.7-0.1,1-0.3c0.1,0,0.1,0,0.2,0c0,0,0,0,0-0.1l0,0c0-0.1,0-0.2,0.1-0.3
			C219.9,177.6,219.9,177.7,220,177.7"/>
		<path class="st1" d="M216.5,178.6c-0.1,0.2-0.2,0.4-0.2,0.6c-0.1,0,0,0.1-0.1,0.2c-0.3-0.1-0.6-0.3-0.9-0.3c-0.1,0,0-0.1-0.1-0.1
			c0.1-0.1,0.2-0.1,0.3-0.1C215.8,178.8,216,178.4,216.5,178.6L216.5,178.6"/>
		<path class="st1" d="M217.9,178.9c0,0.1-0.1,0.1-0.1,0.1c-0.2,0.1-0.5,0.1-0.6,0.3c-0.1,0.1-0.1,0.2-0.1,0.3c0,0,0,0.1,0,0.1
			c-0.1-0.1-0.3-0.2-0.3-0.4c0.1-0.3,0.5-0.4,0.7-0.6C217.7,178.7,217.8,178.8,217.9,178.9"/>
		<path class="st1" d="M211.8,178.1c0,0.1-0.1,0.2-0.1,0.3c-0.1,0-0.1,0.1-0.2,0c-0.1-0.1-0.1-0.2-0.1-0.3
			C211.6,178.1,211.7,178.1,211.8,178.1"/>
		<path class="st1" d="M223.2,179.8c0.1,0.3,0.2,0.7,0.2,1.1c0,0.1,0,0.2,0,0.2c-0.2,0-0.3-0.2-0.5-0.2c-0.1-0.1-0.2-0.1-0.3-0.1
			c-0.1-0.1,0-0.2-0.1-0.3c0.1-0.2,0-0.4,0.1-0.5c0-0.1,0-0.2,0-0.3c0.2-0.1,0.4,0,0.6,0C223.2,179.7,223.2,179.8,223.2,179.8"/>
		<path class="st1" d="M224,179.9c0.1,0.2,0.3,0.4,0.3,0.6c0.1,0.1,0.1,0.2,0.1,0.3c0.2,0.2,0.2,0.4,0.3,0.6
			c0.2,0.4,0.2,0.9,0.4,1.3c0,0,0,0.2-0.1,0.1c-0.1-0.1-0.1-0.2-0.2-0.3c-0.2-0.4-0.6-0.7-0.9-1c-0.1-0.1-0.3-0.1-0.3-0.2
			c0-0.1,0-0.2,0-0.4c0-0.1,0-0.1,0-0.2c0.1-0.1,0-0.1,0-0.2c0-0.1,0-0.2,0-0.3c0-0.2,0-0.2-0.1-0.4c0.1-0.1-0.1-0.2,0-0.2
			C223.7,179.8,224,179.7,224,179.9"/>
		<path class="st1" d="M225.2,180.2c0.1,0.1,0.3,0.3,0.3,0.4c0.1,0.1,0.1,0.2,0.2,0.3c0.2,0.3,0.3,0.7,0.5,1c0,0.1,0,0.2,0,0.2
			c-0.2,0.1-0.4,0.3-0.6,0.5l-0.2,0.3c-0.1-0.1,0-0.3-0.1-0.4c-0.1-0.2,0-0.5-0.2-0.7c-0.1-0.2-0.1-0.4-0.2-0.5
			c0-0.2-0.2-0.4-0.3-0.6c-0.1-0.2-0.4-0.5-0.5-0.7c0,0,0-0.1,0.1-0.1C224.6,180,225.1,179.9,225.2,180.2"/>
		<path class="st1" d="M222.4,179.8c0,0.3-0.1,0.6-0.1,0.9c-0.1,0.3-0.1,0.7-0.3,1c0,0.1-0.1,0.2-0.1,0.3c-0.1,0.2-0.1,0.4-0.2,0.5
			c0,0.2-0.2,0.3-0.2,0.5c-0.1,0.3-0.3,0.6-0.4,0.8c-0.1,0.1-0.1,0.4-0.3,0.3c0-0.1-0.2-0.1-0.3-0.3c-0.2-0.1-0.5-0.2-0.7-0.2
			c-0.1,0,0-0.1-0.1-0.1c0.1-0.3,0.2-0.5,0.3-0.7c0.1-0.1,0.1-0.3,0.2-0.4c0-0.1,0.1-0.2,0.1-0.4c0.1,0,0-0.1,0.1-0.1l0-0.1
			c0.2-0.5,0.5-0.9,0.7-1.3c0.1-0.3,0.2-0.6,0.3-0.9c0,0,0.1,0,0.1-0.1c0.2-0.1,0.5-0.1,0.8,0L222.4,179.8"/>
		<path class="st1" d="M217.9,179.4l0,0.4c-0.2,0-0.4-0.2-0.5-0.4c0-0.1,0-0.2,0.1-0.2C217.6,179.3,217.7,179.3,217.9,179.4
			L217.9,179.4"/>
		<path class="st1" d="M226.7,180.9L226.7,180.9c0.2,0.3,0.3,0.6,0.4,0.9c0,0.1-0.1,0.1-0.2,0.1c-0.1,0-0.2,0.1-0.4,0.1
			c0,0-0.1,0.1-0.2,0c-0.1-0.1-0.1-0.2-0.1-0.3c-0.2-0.3-0.3-0.6-0.4-0.8c-0.1-0.2-0.2-0.4-0.4-0.5c0-0.1,0-0.1,0.1-0.1
			C225.9,180.3,226.4,180.5,226.7,180.9"/>
		<path class="st1" d="M214.2,179.1c0,0.1,0,0.1,0,0.2c-0.1,0.1-0.3,0-0.4,0c0-0.1,0-0.1,0.1-0.2C214,179,214.1,179,214.2,179.1"/>
		<path class="st1" d="M213.6,179.1c0,0.1-0.1,0.1-0.2,0.2c-0.1,0-0.2,0-0.2-0.1c0-0.1,0-0.2,0.1-0.2c0,0,0.1,0,0.1,0
			C213.5,179,213.6,179.1,213.6,179.1"/>
		<path class="st1" d="M213,179c0,0.1,0,0.2-0.1,0.2c-0.1,0-0.2,0-0.3-0.1c0.1-0.1,0.1-0.2,0.2-0.2C212.9,178.9,213,178.9,213,179"
			/>
		<path class="st1" d="M214.9,179.3c0,0.1-0.1,0.2-0.2,0.2c-0.1,0-0.2,0-0.3-0.1c0-0.1,0.1-0.1,0.1-0.2
			C214.7,179.1,214.8,179.2,214.9,179.3"/>
		<path class="st1" d="M212.5,179.1c0,0.1,0,0.2-0.1,0.2c-0.1,0.1-0.2-0.1-0.3-0.1c0-0.1,0-0.1,0.1-0.2
			C212.2,179,212.3,179,212.5,179.1C212.4,179,212.5,179.1,212.5,179.1"/>
		<path class="st1" d="M215.4,179.5c0,0.1-0.1,0.1-0.2,0.2c-0.1,0.1-0.1-0.1-0.2-0.2c0-0.1,0.1-0.1,0.1-0.2
			C215.3,179.3,215.4,179.5,215.4,179.5"/>
		<path class="st1" d="M211.9,179.2c0,0.1-0.1,0.2-0.2,0.2c-0.1,0-0.2,0-0.2-0.1c-0.1-0.1,0.1-0.1,0.1-0.2
			C211.7,179.1,211.9,179,211.9,179.2"/>
		<path class="st1" d="M227.6,181.5c0.2,0.4,0.4,0.8,0.4,1.2c0.1,0.2,0,0.4,0.2,0.5c0,0.2,0.1,0.3,0,0.5c0.1,0.2,0.1,0.4,0.1,0.7
			c0,0.1,0,0.2-0.1,0.2c-0.1,0.1-0.3,0-0.4,0.1c-0.1,0-0.1-0.1,0-0.2c0.1-0.4,0-0.9,0-1.3c-0.1-0.3-0.1-0.6-0.2-0.9
			c-0.1-0.3-0.2-0.5-0.3-0.8c-0.1-0.3-0.3-0.5-0.5-0.8c0-0.1,0.2,0,0.2,0C227.2,181,227.5,181.2,227.6,181.5"/>
		<path class="st1" d="M216,179.7c0,0.1-0.2,0.1-0.2,0.1c-0.1,0-0.2,0-0.2-0.1c0-0.1,0.1-0.2,0.2-0.2
			C215.9,179.6,216,179.6,216,179.7"/>
		<path class="st1" d="M216.5,179.9c0,0.1,0,0.1,0,0.1c-0.1,0.1-0.2,0.1-0.3,0c0,0-0.1-0.1-0.1-0.2c0,0,0.1-0.1,0.1-0.1
			C216.3,179.8,216.4,179.8,216.5,179.9"/>
		<path class="st1" d="M217,180.2c0.1,0.1-0.1,0.1-0.1,0.2c-0.1,0.1-0.2-0.1-0.3-0.2c0,0,0-0.1,0-0.1
			C216.7,179.9,216.9,180,217,180.2"/>
		<path class="st1" d="M219.8,180.4c0,0.2-0.2,0.3-0.1,0.4c-0.1,0-0.1-0.1-0.1-0.1L219.8,180.4L219.8,180.4"/>
		<path class="st1" d="M217.4,180.4c0,0.1-0.1,0-0.2,0.1c-0.1,0-0.1-0.1-0.1-0.1c0-0.1,0-0.1,0.1-0.2c0.1,0,0.2,0,0.3,0L217.4,180.4
			"/>
		<path class="st1" d="M223.5,181.4c0,0.1,0,0.3-0.1,0.3c-0.1,0-0.1-0.1-0.2-0.1c-0.3-0.1-0.5-0.3-0.8-0.3c0,0,0-0.1,0-0.1
			c0-0.1,0-0.2,0.1-0.3C222.9,181.1,223.2,181.2,223.5,181.4"/>
		<path class="st1" d="M220,180.8c0,0.1-0.1,0.1-0.1,0.1c-0.1,0-0.1-0.1-0.1-0.1c0,0,0-0.1,0.1-0.1C219.9,180.7,220,180.7,220,180.8
			"/>
		<path class="st1" d="M233.9,182.6c0.1,0.1,0.2,0.2,0.2,0.3c0.1,0.1,0.1,0.3,0.2,0.4c0.1,0.1,0.2,0.2,0.3,0.3c0,0,0,0.1-0.1,0.1
			c-0.1,0-0.3-0.1-0.3-0.3c-0.1-0.3-0.4-0.2-0.5-0.4c-0.1-0.1-0.2-0.1-0.3-0.2c-0.4,0-0.8,0-1.1-0.1c-0.2-0.1-0.4,0-0.5-0.2
			c0.1,0,0.2,0,0.4,0c0.2-0.1,0.4,0,0.5-0.1c0.3,0,0.8-0.2,1,0.1L233.9,182.6"/>
		<path class="st1" d="M218.4,180.8c-0.1,0.1,0.1,0.3,0.2,0.4c0.1,0.1,0.4,0.2,0.5,0.1c0,0,0-0.1-0.1-0.1c-0.2,0.1-0.4,0-0.6-0.1
			C218.5,181,218.5,180.9,218.4,180.8L218.4,180.8z M218.6,180.8c0.1,0.1,0.2,0.1,0.3,0.1C219,180.7,218.7,180.8,218.6,180.8z
			 M218.8,180.5c-0.1,0-0.3,0-0.4,0c0.2-0.1,0.5,0.1,0.7,0.1C219.1,180.5,218.9,180.5,218.8,180.5z M218.8,180.1
			c-0.1,0.1-0.2,0.1-0.2,0.2l0.1,0c0.2-0.1,0.5-0.1,0.7,0C219.2,180.1,218.9,180.1,218.8,180.1L218.8,180.1z M219.4,180.1
			c0,0.1,0.1,0.3,0,0.4c-0.1,0.1-0.2,0.2-0.2,0.3c0.1,0.2,0.1,0.4,0.1,0.6c-0.1,0.1-0.1,0.2-0.2,0.2c-0.4-0.1-0.7-0.3-0.9-0.6
			c0.1,0,0.1-0.1,0.1-0.1c-0.1,0-0.2,0.1-0.2,0.1l0,0c-0.1,0.1-0.2,0-0.3-0.1c0-0.1,0-0.2,0-0.3c0-0.1,0.1-0.2,0.2-0.2
			c0.2,0,0.3,0.1,0.4,0c0.1-0.1,0.1-0.4,0.3-0.4C218.8,179.8,219.1,179.9,219.4,180.1L219.4,180.1"/>
		<path class="st1" d="M224.4,182.1c0.2,0.2,0.4,0.5,0.5,0.7c0,0.1,0,0.1,0.1,0.2c0.1,0.1,0,0.2,0.1,0.3c0,0-0.1,0-0.1,0
			c-0.1-0.1-0.1-0.2-0.2-0.3c-0.3-0.4-0.6-0.8-1.1-1.1c0-0.1-0.1-0.1,0-0.2c0,0-0.1-0.1,0-0.2C224,181.7,224.1,182,224.4,182.1"/>
		<path class="st1" d="M217.6,181.1c-0.2,0.3-0.2,0.5-0.4,0.8c0,0.1,0,0.2-0.1,0.2c-0.1,0-0.2,0-0.2-0.1c0-0.3,0.2-0.5,0.3-0.7
			c0.1-0.1,0.1-0.2,0.1-0.4C217.4,180.9,217.5,181,217.6,181.1"/>
		<path class="st1" d="M227.3,182.2c0,0.1-0.1,0.1,0,0.2c-0.1,0.1-0.2,0-0.2,0.1c-0.2,0.1-0.3,0-0.5,0.1c0,0-0.1,0-0.1-0.1
			c0-0.1,0-0.1,0-0.2c0.2-0.1,0.5-0.1,0.7-0.2C227.3,182,227.2,182.1,227.3,182.2"/>
		<path class="st1" d="M223.4,182c0.1,0,0.1,0,0.1,0.1c0,0.1,0,0.2-0.1,0.3c-0.2,0.1-0.3-0.2-0.5-0.2c-0.2-0.1-0.4-0.2-0.6-0.3
			l-0.1,0c0-0.1,0-0.3,0.1-0.4C222.8,181.6,223.1,181.8,223.4,182"/>
		<path class="st1" d="M230.3,182.4c-0.1,0.1,0.1,0.2,0,0.2c0.1,0.2,0.1,0.4,0.3,0.5c0.2,0.1,0.3,0.5,0.6,0.4c0-0.1-0.1-0.1-0.1-0.2
			c-0.1-0.4-0.6-0.4-0.7-0.8C230.4,182.5,230.3,182.4,230.3,182.4L230.3,182.4z M229.4,180.4c0.1,0,0.2,0,0.3,0
			c0.2,0,0.4,0.1,0.6,0.2c0.2,0,0.2,0.2,0.4,0.2c0.1,0.1,0.3,0.2,0.3,0.3c0.2,0.1,0.3,0.3,0.5,0.4c0.3,0.2,0.7,0.4,1,0.3
			c0.3,0,0.6-0.1,0.8-0.2c0.3,0,0.5,0.3,0.7,0.5c0.1,0.1,0.2,0.1,0.2,0.3c-0.1,0-0.2-0.1-0.4-0.1c-0.3-0.3-0.6-0.2-1-0.2
			c-0.3,0-0.5,0.2-0.8,0.1c-0.3,0-0.7,0-1-0.2c-0.3-0.2-0.4-0.5-0.6-0.7c-0.2-0.2-0.4-0.3-0.7-0.3c-0.1,0,0,0.1,0,0.1
			c0.2,0.3,0.6,0.1,0.7,0.4c0.1,0.2,0.3,0.1,0.2,0.3c0,0.1,0.1,0.2,0.1,0.3c0.1,0.1,0.3,0.3,0.5,0.4c0.4,0.1,0.7,0.3,1.1,0.4
			c0.2,0.2,0.5,0,0.8,0.2c0.3,0.2,0.7,0.2,0.7,0.5c0.2,0.2,0.2,0.4,0.4,0.5c-0.1,0.2-0.2,0-0.3,0c-0.1-0.3-0.4-0.4-0.6-0.6
			c-0.4-0.1-0.7-0.1-1,0.1c-0.3,0-0.6,0.2-0.9,0.1c0,0-0.1,0-0.1,0c0.1,0.1,0.2,0.2,0.3,0.1c0.2-0.1,0.5,0,0.7,0
			c0.2,0.1,0.3,0.2,0.3,0.4c0,0,0,0.1,0,0c-0.1,0,0-0.1-0.1-0.1c-0.3,0-0.5-0.2-0.8-0.1c-0.4-0.1-0.8-0.1-1-0.4
			c-0.2-0.1-0.4-0.2-0.6-0.4c-0.3-0.2-0.4-0.5-0.6-0.8c-0.1-0.2-0.1-0.4-0.2-0.6c0.1-0.2-0.2-0.3-0.2-0.5c0,0,0-0.1,0-0.1
			c-0.2-0.2-0.4-0.4-0.6-0.4c-0.1,0,0.1,0.1-0.1,0.1c-0.1,0-0.3-0.1-0.4,0c-0.2,0-0.3-0.3-0.5-0.2c-0.1-0.1-0.1-0.2-0.1-0.2
			c0-0.1,0.2,0,0.3-0.1c0.1-0.1,0.3-0.1,0.5-0.1c0.2,0,0.5-0.1,0.7-0.1l0.1,0C229.2,180.4,229.3,180.4,229.4,180.4"/>
		<path class="st1" d="M218.4,181.4c0,0.1,0.1,0.1,0,0.2c0.1,0,0.1,0.2,0.3,0.1c0.1,0.1,0.3,0,0.2,0.2c-0.1,0.1-0.1,0.2-0.2,0.3
			c-0.1,0.1-0.1,0.2-0.2,0.3c-0.2,0.4-0.5,0.8-0.8,1.1c-0.1,0.1-0.2,0.3-0.2,0.5c-0.1,0.1-0.1,0.3-0.2,0.4c-0.1,0.1-0.2-0.1-0.3-0.1
			c-0.1-0.1-0.2-0.1-0.3-0.2c0.1-0.2,0-0.4,0.1-0.6c0.1-0.4,0.3-0.8,0.4-1.2c0-0.1,0.2-0.1,0.1-0.3c0-0.2,0.2-0.4,0.2-0.6
			c0-0.2,0.2-0.4,0.4-0.4C218.1,181.2,218.3,181.3,218.4,181.4"/>
		<path class="st1" d="M220.1,181.6L220.1,181.6c0.1,0,0.2-0.1,0.3,0c0,0.1-0.1,0.3-0.1,0.4c-0.1,0.2-0.2,0.4-0.3,0.6
			c0,0.2-0.2,0.3-0.2,0.5c-0.1,0.1-0.1,0.2-0.2,0.4c0,0.1-0.1,0.2-0.2,0.2c-0.4-0.1-0.8-0.1-1.2-0.1l-0.1,0c0-0.2,0.2-0.3,0.3-0.4
			c0.2-0.2,0.2-0.5,0.5-0.5c0-0.1-0.1-0.2,0-0.3c0.3-0.2,0.3-0.5,0.6-0.7c0-0.1,0-0.1,0.1-0.2c0.1,0,0.1-0.1,0.2,0
			C219.9,181.5,220,181.6,220.1,181.6"/>
		<path class="st1" d="M226.3,182.4c0,0.1,0,0.1,0,0.2l0,0c-0.3,0.1-0.5,0.3-0.7,0.6c-0.1,0.1-0.1,0.2-0.2,0.2
			c-0.1-0.3,0.2-0.5,0.4-0.7C225.9,182.6,226,182.5,226.3,182.4C226.2,182.4,226.3,182.4,226.3,182.4"/>
		<path class="st1" d="M227.4,182.7c0,0.1,0,0.2,0,0.2c-0.3,0-0.5,0-0.8,0.2c-0.1,0-0.1-0.1-0.1-0.1c-0.1-0.4,0.4-0.2,0.6-0.4
			C227.2,182.6,227.4,182.6,227.4,182.7"/>
		<path class="st1" d="M224.6,183.1c0.1,0.2,0.2,0.3,0.3,0.5c0,0.1,0,0.2,0,0.2c-0.2-0.1-0.3-0.4-0.5-0.6c-0.1-0.1-0.2-0.3-0.4-0.3
			c-0.1-0.1-0.2-0.3-0.4-0.3c0-0.1,0.1-0.2,0-0.3c0,0,0-0.1,0.1-0.1C224.1,182.4,224.4,182.8,224.6,183.1"/>
		<path class="st1" d="M223.4,182.7c0,0.1,0,0.3-0.1,0.4c-0.1,0,0-0.1-0.1-0.1c-0.2-0.1-0.4-0.2-0.5-0.3c-0.2,0-0.4-0.1-0.6-0.1
			c-0.1-0.1,0-0.3,0.1-0.4c0.1-0.1,0.2,0,0.3,0C222.7,182.4,223.1,182.5,223.4,182.7"/>
		<path class="st1" d="M226.4,182.9c0,0.1,0,0.2,0,0.2c-0.2,0.2-0.4,0.2-0.6,0.3c-0.2,0.1-0.4,0.3-0.5,0.4c0,0-0.1,0-0.1-0.1
			c0-0.1,0.1-0.1,0.1-0.2C225.6,183.4,225.9,183,226.4,182.9L226.4,182.9"/>
		<path class="st1" d="M211.7,181.6c-0.1,0.1-0.1,0-0.2,0c0-0.1-0.1-0.1-0.1-0.2C211.6,181.4,211.7,181.5,211.7,181.6"/>
		<path class="st1" d="M227.6,183.5c-0.1,0-0.3,0-0.4,0c-0.2,0.1-0.3,0.1-0.5,0.1c0-0.1-0.1-0.1-0.1-0.2c0-0.1,0.1-0.1,0.1,0
			c0.2-0.1,0.5-0.2,0.7-0.1C227.6,183.3,227.5,183.4,227.6,183.5"/>
		<path class="st1" d="M223.9,183.1c0.3,0.2,0.5,0.5,0.7,0.8c0.1,0.1,0.2,0.3,0.3,0.4c0,0.1,0,0.2-0.1,0.2l-0.1,0
			c-0.4-0.4-0.7-0.8-1.2-1.1l-0.1,0l0-0.4C223.7,182.9,223.8,183,223.9,183.1"/>
		<path class="st1" d="M223.1,183.1c0.1,0.1,0.2,0.1,0.2,0.2c-0.1,0.1,0,0.5-0.2,0.3c0,0,0-0.1-0.1-0.1c0-0.1-0.1-0.1-0.1-0.1
			c-0.3-0.2-0.7-0.3-1.1-0.4c0-0.1,0.1-0.2,0.1-0.3l0.1,0C222.4,182.8,222.7,183,223.1,183.1"/>
		<path class="st1" d="M217,182.4c-0.1,0.1-0.1,0.4-0.2,0.4c-0.1,0-0.1-0.1-0.2-0.1c0.1-0.1,0.1-0.2,0.2-0.4
			C216.9,182.3,217,182.4,217,182.4"/>
		<path class="st1" d="M226.4,183.5c0,0.1,0,0.2-0.1,0.2c-0.3,0.1-0.6,0.3-0.8,0.4c-0.1,0.1-0.2,0.2-0.3,0.2c0,0,0-0.1,0-0.1
			c0.3-0.2,0.7-0.6,1.1-0.7C226.3,183.5,226.4,183.5,226.4,183.5"/>
		<path class="st1" d="M227.6,183.8c0,0.1,0,0.2-0.1,0.2c-0.2,0-0.5,0-0.7,0.1c-0.1,0-0.1,0.1-0.2,0c-0.1,0,0-0.1,0-0.2
			c0.2-0.2,0.4-0.1,0.7-0.1C227.4,183.7,227.6,183.6,227.6,183.8"/>
		<path class="st1" d="M224.6,184.3c0.1,0.2,0.4,0.3,0.3,0.5c0,0,0,0-0.1,0c-0.4-0.4-0.8-0.8-1.3-1c0.1-0.1-0.1-0.3,0-0.4
			C224,183.6,224.2,184.1,224.6,184.3"/>
		<path class="st1" d="M223.2,183.9c-0.1,0.2,0,0.5-0.2,0.7c0,0.1,0,0.2-0.1,0.2c-0.3,0.1-0.4-0.4-0.8-0.4c-0.3-0.1-0.6-0.1-0.9-0.1
			c-0.1-0.1,0.1-0.2,0-0.3c0.2-0.2,0.2-0.6,0.4-0.8C222.3,183.4,222.8,183.6,223.2,183.9"/>
		<path class="st1" d="M226.4,184c0,0.1-0.1,0.1,0,0.2l0,0c-0.3,0.2-0.6,0.3-0.9,0.5c-0.1,0-0.2,0.2-0.3,0.2c0-0.1,0-0.1,0-0.2
			c0.1-0.1,0.1-0.1,0.2-0.2l0.3-0.2c0,0,0,0,0,0c0.1,0,0.2-0.1,0.3-0.1C226.1,184.1,226.3,184,226.4,184"/>
		<path class="st1" d="M227.7,184.2c0,0.2,0,0.4,0,0.6c-0.2,0-0.3,0.1-0.5,0.1c-0.3,0.2-0.5,0.4-0.6,0.7c-0.1,0-0.2,0.1-0.2,0
			c-0.2-0.3-0.5-0.3-0.9-0.3c-0.1,0-0.2,0.1-0.3,0.1c-0.1,0-0.1,0-0.1-0.1c-0.1-0.3,0.2-0.3,0.3-0.4c0.3-0.2,0.7-0.4,1.1-0.6l0,0.1
			c-0.1,0.3-0.1,0.6-0.1,0.9l0,0c0-0.1,0.1-0.2,0.1-0.4c0-0.1,0-0.3,0.1-0.4c0-0.1,0-0.3,0-0.4c0.1,0,0.2,0,0.3,0
			C227.2,184.2,227.4,184.2,227.7,184.2L227.7,184.2"/>
		<path class="st1" d="M216.7,183.2c-0.2,0.4-0.3,0.9-0.4,1.3c-0.1,0.1-0.1,0.3-0.2,0.5c0,0-0.1,0-0.1,0c-0.2-0.1-0.3-0.2-0.5-0.2
			c0.1-0.2,0.2-0.4,0.3-0.7c0-0.1,0.1-0.2,0.1-0.2c0.2-0.3,0.3-0.6,0.5-0.8C216.6,183,216.7,183.1,216.7,183.2"/>
		<path class="st1" d="M207.9,182.2c-0.1,0-0.1,0.1-0.2,0.1c0,0.1-0.1,0.1-0.1,0.2c-0.1,0.1,0,0.3-0.1,0.4c0.1,0,0.1,0,0.1,0
			c0.2-0.1,0.2-0.3,0.2-0.4C207.8,182.3,207.9,182.2,207.9,182.2L207.9,182.2z M214.4,179.6c0,0.1,0.2,0.1,0.1,0.2
			c0,0.1-0.1,0.1-0.1,0.1c-0.1,0.3-0.3,0.5-0.3,0.7c-0.1,0.3-0.3,0.6-0.4,0.8c-0.1,0,0,0.1-0.1,0.2c-0.1,0.1-0.1,0.2-0.1,0.3
			c0,0,0.1,0.1,0.1,0c0.3-0.2,0.3-0.7,0.5-0.9c0.1-0.3,0.3-0.5,0.3-0.8c0.1-0.1,0.2-0.3,0.3-0.5c0.1,0,0.2,0,0.3,0.1
			c0.6,0,1,0.4,1.5,0.6c0.2,0.1,0.4,0.2,0.6,0.3c-0.1,0.2-0.2,0.4-0.3,0.6c-0.2,0.3-0.3,0.6-0.4,1c0,0.3-0.2,0.5-0.3,0.8
			c0,0.1-0.1,0.1-0.1,0c-0.1-0.2-0.3-0.4-0.6-0.4c-0.1,0-0.1,0-0.2,0c0,0,0,0,0-0.1c0.3-0.2,0.8-0.2,1.1-0.5c-0.1-0.1-0.2,0-0.3,0
			c-0.2,0.1-0.4,0.2-0.6,0.2c0,0,0-0.1,0-0.1c0.3-0.1,0.6-0.3,0.8-0.4c0,0,0.1-0.1,0.1-0.1c-0.1,0-0.2,0-0.2,0
			c-0.2,0.1-0.4,0.1-0.5,0.2c0,0-0.1,0-0.1-0.1c0.1,0,0-0.1,0-0.1c0.3-0.2,0.6-0.2,0.9-0.4c0,0,0-0.1,0-0.1
			c-0.3-0.1-0.4,0.2-0.7,0.2c-0.1,0-0.2,0-0.1-0.1c0.2-0.2,0.5-0.2,0.7-0.3c0.1,0,0.1,0,0.2-0.1c0,0,0-0.1-0.1-0.1
			c-0.2,0-0.3,0.1-0.5,0.2c0,0-0.1,0-0.1-0.1l0.1-0.1l0,0c0.1-0.1,0.2-0.3,0.2-0.4c0,0,0,0,0-0.1c-0.1,0-0.1,0.1-0.2,0.1
			c0,0.1-0.1,0.2-0.1,0.2c-0.1,0-0.1-0.1-0.1-0.2c-0.1-0.1-0.1-0.3-0.2-0.3c-0.2,0.2,0,0.4,0.1,0.6c0.1,0.1,0.2,0.2,0.1,0.4
			c-0.2,0.1-0.2-0.2-0.2-0.2c-0.1-0.2-0.2-0.4-0.3-0.5c-0.1,0-0.1-0.1-0.1,0c0,0.4,0.3,0.7,0.5,1c0,0,0,0.1-0.1,0.1
			c-0.2-0.1-0.3-0.4-0.4-0.6c-0.1-0.1-0.2-0.2-0.3-0.2c0,0,0,0.1,0,0.2c0.2,0.3,0.4,0.6,0.6,1c0,0.1,0,0.1-0.1,0.1
			c-0.2,0-0.2-0.2-0.3-0.3c-0.1-0.2-0.2-0.3-0.4-0.4c-0.1,0-0.1,0-0.1,0.1c0,0.3,0.3,0.3,0.3,0.6c0.1,0.2,0.1,0.4,0.3,0.5
			c0,0.1,0.1,0.1,0.1,0.2c-0.1,0-0.2-0.1-0.4-0.2c-0.1-0.1-0.4,0.1-0.4-0.1c-0.1-0.1-0.2-0.2-0.4-0.3c-0.2,0-0.3,0-0.5,0
			c0-0.2-0.2-0.3-0.4-0.4c-0.2,0-0.3,0.1-0.5,0c0,0,0,0-0.1,0c0,0,0-0.1,0-0.1c0.3-0.2,0.7-0.3,1.1-0.3c0,0,0-0.1,0.1-0.1
			c-0.1-0.1-0.2-0.1-0.2,0c-0.2,0-0.5,0.1-0.7,0.2c0,0-0.1,0-0.1-0.1c0,0,0-0.1,0.1-0.1c0.3,0,0.5-0.2,0.8-0.2
			c0.1-0.1,0.3,0,0.4-0.2c0-0.1-0.2-0.1-0.3-0.1c-0.2,0-0.4,0.3-0.7,0.2c0.1-0.1,0.2-0.1,0.3-0.2c0.3,0,0.5-0.2,0.8-0.2
			c0.1,0,0.1-0.1,0.1-0.1c0-0.1-0.1-0.1-0.2,0c-0.2,0-0.4,0.2-0.6,0.2c0-0.1,0.1-0.1,0.2-0.2l0,0c0.2-0.1,0.4-0.1,0.6-0.2
			c0,0,0,0,0-0.1c-0.2-0.1-0.4,0-0.5,0.1l0,0c0-0.1,0.1-0.2,0.2-0.2c0-0.1,0.1-0.1,0-0.2c0,0,0,0,0,0.1c-0.2,0-0.2,0.2-0.3,0.3
			c-0.1,0-0.2-0.1-0.2-0.2c0-0.1-0.1-0.1-0.2-0.1c-0.1,0.1,0.1,0.2,0.1,0.3c0,0.1,0.1,0.3,0,0.4l-0.1,0c-0.1-0.2-0.2-0.4-0.4-0.6
			c0,0-0.1,0-0.1,0c0,0.3,0.4,0.6,0.2,0.9c0,0-0.1,0-0.1,0c-0.2-0.2-0.2-0.5-0.5-0.6c-0.2,0.1,0.1,0.2,0.1,0.3
			c0.1,0.2,0.2,0.4,0.3,0.7c0,0-0.1,0-0.1,0c-0.1-0.1-0.1-0.1-0.2-0.2c-0.1-0.2-0.2-0.4-0.4-0.4c0,0,0,0.1,0,0.2
			c0.1,0.3,0.7,0.7,0.3,1.1c-0.1,0.1-0.3,0.1-0.5,0c-0.1,0-0.2-0.1-0.3-0.1c-0.2,0-0.3,0.1-0.4,0.1c-0.1-0.1-0.2,0-0.3,0.1
			c0,0,0,0.1,0.1,0.1c0.1,0,0.3,0,0.4,0.1c0,0,0,0,0.1,0c0,0.1-0.1,0.1-0.2,0.1c-0.2,0-0.4,0.1-0.5,0.2c-0.4,0-0.7,0.1-1.1,0.1
			c-0.3,0-0.8-0.1-1,0.2c-0.1,0.1-0.1,0.2-0.2,0.3c-0.1,0.2-0.2,0.5-0.2,0.7c0.1,0.3,0.3,0.6,0.4,0.9c0.1,0,0.1-0.1,0.2,0
			c0.1,0.1,0.2,0.3,0.3,0.4c0,0.1,0.1,0.2,0,0.2l-0.1,0.1c0,0.3,0.4,0.1,0.5,0.4c0,0.1,0.1,0.2,0.1,0.3c0.1,0.2,0.2,0.4,0.3,0.5
			c0.1,0,0.2-0.1,0.3,0c0,0.1,0.2,0.1,0.1,0.3l0,0c-0.1,0.1-0.1,0.2-0.2,0.2c-0.3-0.1-0.5,0-0.8-0.1c-0.1-0.2-0.4-0.4-0.5-0.6
			c0-0.1,0-0.1,0-0.2c-0.1-0.1-0.2-0.1-0.3-0.1c-0.1,0.1-0.2,0-0.3,0c-0.2-0.2-0.1-0.5-0.2-0.7c0-0.2-0.1-0.4-0.1-0.7
			c0-0.3-0.1-0.5-0.1-0.7c-0.1-0.1,0-0.2-0.1-0.4c0-0.3-0.1-0.5-0.2-0.7c0-0.3,0.3-0.5,0.4-0.8c0.1-0.1,0.2-0.2,0.4-0.2
			c0.5,0.1,1,0.2,1.5,0.2c0.3-0.1,0.5-0.2,0.8-0.4c0.1-0.2,0.3-0.5,0.4-0.7c0-0.1,0.1-0.1,0-0.2l0,0c0.1-0.1,0.1-0.3,0.3-0.4
			c0.3-0.1,0.4-0.4,0.6-0.6c0.3-0.1,0.6-0.1,0.9-0.2c0.4-0.1,0.8,0,1.1,0c0.2,0,0.4,0,0.7,0.1L214.4,179.6"/>
		<path class="st1" d="M224.4,184.7c0.1,0.2,0.3,0.3,0.5,0.4c0,0.1,0,0.2,0,0.2c-0.1,0.1-0.1,0-0.2,0c-0.3-0.1-0.4-0.4-0.7-0.4
			c-0.2,0-0.5-0.1-0.7,0c-0.2,0-0.1-0.2-0.1-0.2c0.1-0.2,0.1-0.4,0.2-0.6c0,0,0-0.1,0.1-0.2C223.8,184.2,224.1,184.5,224.4,184.7"/>
		<path class="st1" d="M219.4,183.9C219.5,183.9,219.4,184,219.4,183.9c0,0.2-0.1,0.3,0,0.4c0.2,0,0.5,0,0.7,0
			c0.2,0.3,0.5,0.4,0.8,0.5c0.2,0,0.4-0.2,0.6,0c0.1,0,0.2,0,0.3,0.1l0,0c-0.3,0-0.6,0-0.9,0c-0.5,0.1-1,0.2-1.5,0.3
			c-0.1,0-0.2,0-0.3,0c-0.3-0.1-0.5,0-0.8-0.1c-0.3,0-0.5-0.1-0.8-0.2c-0.1,0,0-0.1,0-0.1c0.4,0,0.8-0.1,1.1,0c0,0,0,0.1,0.1,0.1
			c0.1,0,0.2-0.1,0.3-0.1c0-0.1-0.1-0.2-0.2-0.3c-0.1,0-0.3,0-0.4,0.1c-0.3,0-0.6,0.1-0.9,0c0-0.1,0.1-0.2,0.2-0.3
			c0.1-0.2,0.2-0.4,0.4-0.4c0.4,0,0.7,0,1.1,0C219.3,183.9,219.4,183.9,219.4,183.9"/>
		<path class="st1" d="M229.2,185.4c0,0.1,0.1,0.1,0.1,0.2c-0.1,0.1-0.2,0-0.3-0.1c-0.3,0-0.5-0.1-0.7-0.3c-0.1,0-0.1-0.1-0.2-0.1
			c0-0.1,0.1-0.1,0.1-0.1c0.2,0.2,0.4-0.2,0.6,0C228.9,185.1,229,185.3,229.2,185.4"/>
		<path class="st1" d="M215.8,183.7c-0.1,0.1,0,0.2-0.1,0.3c-0.1,0-0.2,0-0.3,0c0-0.1,0.1-0.2,0.2-0.3
			C215.7,183.6,215.8,183.6,215.8,183.7"/>
		<path class="st1" d="M215.6,184.2c0,0,0,0.1-0.1,0.1c-0.1,0.1-0.1,0.3-0.2,0.3c-0.3,0-0.5-0.2-0.8-0.2c-0.1-0.1-0.2,0-0.3-0.1
			c-0.2,0-0.4-0.1-0.7-0.1c0-0.1,0-0.1,0.1-0.1C214.2,184.1,214.9,184.1,215.6,184.2"/>
		<path class="st1" d="M222.6,185.2c0.2,0,0.4,0.1,0.6,0.2c0.2,0.1,0.1,0.3,0.2,0.3c0,0.1,0.1,0.1,0,0.2c-0.1,0-0.2,0.1-0.3,0
			c-0.1-0.2,0-0.4-0.3-0.5c-0.3,0-0.6,0-0.8-0.2c0-0.1,0-0.1,0.1-0.1C222.3,185.1,222.4,185.4,222.6,185.2"/>
		<path class="st1" d="M217.2,184.9c0,0.1-0.1,0.2-0.1,0.2c-0.1,0,0,0.2-0.1,0.2c-0.2,0-0.3-0.2-0.5-0.2c-0.3-0.1,0-0.3-0.1-0.5
			c0.1,0,0.1-0.1,0.2-0.1C216.8,184.7,217,184.7,217.2,184.9"/>
		<path class="st1" d="M230.4,187.3C230.4,187.3,230.3,187.4,230.4,187.3l0.2,0.5c0.1,0.3,0.3,0.5,0.4,0.8c0,0.1,0,0.2,0.1,0.3
			c0.1,0.2,0.2,0.3,0.1,0.5c0,0.1,0,0.2,0.1,0.2c0,0,0.1,0,0.1-0.1c-0.1-0.3-0.2-0.6-0.3-0.8c-0.2-0.4-0.4-0.8-0.6-1.2
			C230.5,187.4,230.5,187.3,230.4,187.3L230.4,187.3z M228.2,185.5c0.2,0,0.3,0.2,0.5,0.1c0.2,0.1,0.5,0.2,0.8,0.1
			c0.2,0,0.5-0.2,0.7,0.1c0,0.1,0.1,0.1,0.1,0.2c0.1,0.2,0.3,0.2,0.3,0.4c0.1,0.6,0.5,1,0.7,1.6c0.2,0.3,0.3,0.7,0.6,1
			c0.1,0.2,0.2,0.3,0.3,0.5c0,0.1-0.2,0.2-0.1,0.4c0,0.1,0.1,0.2,0.2,0.1c0.1,0,0.1-0.1,0.2-0.1c0-0.1,0-0.2,0.1-0.2
			c0.1,0,0.1,0.1,0.2,0c0-0.1,0.1-0.1,0.2-0.2c0.2,0,0.5,0.2,0.6,0.5l0,0.1c0.1,0.3,0.3,0.5,0.2,0.8c-0.1,0-0.1,0.1-0.2,0.1
			c-0.1,0-0.2,0-0.4,0c-0.3,0.2-0.3-0.4-0.5-0.1c0,0.1,0,0.2,0,0.3c0,0.1-0.1,0.1-0.2,0c-0.1-0.1-0.3,0-0.3-0.2
			c-0.1-0.1,0.1-0.3-0.1-0.4c-0.1,0-0.2-0.1-0.3-0.2c0-0.1-0.1-0.3-0.3-0.3c-0.1,0-0.2,0-0.3,0c-0.2-0.2-0.1-0.6-0.4-0.9
			c-0.1-0.3-0.3-0.6-0.5-1c-0.3-0.4-0.3-0.9-0.8-1.1l-0.1-0.1c-0.4,0-0.8,0-1.2,0.1c-0.3,0-0.6-0.1-1,0c-0.1,0-0.1-0.1-0.1-0.1
			c-0.4,0-0.8,0.1-1.2-0.1c-0.2,0-0.3-0.2-0.6-0.2c-0.4-0.1-0.8-0.1-1.1-0.4c-0.1,0-0.1-0.1-0.2-0.2c-0.3-0.3-0.3-0.7-0.6-1
			c0-0.1,0.1,0,0.1,0c0.2,0,0.4,0.2,0.6,0.3c0.2,0.1,0.4,0.1,0.5,0.3c0.2,0.1,0.5,0.1,0.7,0c0.2,0,0.4-0.1,0.5,0
			c0.1,0,0.2-0.1,0.3,0c0.1,0.1,0.3,0.2,0.5,0.1c0.2-0.1,0.3-0.4,0.5-0.4c0.1,0,0.2-0.2,0.4-0.2c0.1-0.1,0.1-0.1,0.2,0
			C227.9,185.3,228.1,185.4,228.2,185.5"/>
		<path class="st1" d="M229.1,188.1c0,0.1-0.1,0.1-0.1,0.1c-0.1,0.1,0.1,0.2,0,0.3c0,0.1,0.1,0.1,0.1,0.1c0-0.1,0-0.2,0-0.3
			C229.2,188.3,229.2,188.2,229.1,188.1L229.1,188.1z M229.3,187.5c0.1,0.1,0.2,0.1,0.2,0.2c0,0.2,0,0.4,0.1,0.6
			c0,0.3,0.1,0.6,0.3,0.9c0,0.1-0.1,0.2,0,0.3c0.1,0.1,0.1,0.2,0.2,0.1c0-0.1,0.1-0.1,0.2-0.1c0.1,0.1,0.2,0,0.2,0.1
			c0,0.3,0.1,0.5,0.2,0.7c0.1,0.1,0.3,0.1,0.4,0.3c0.1,0.2,0,0.4-0.1,0.6c-0.1,0-0.2,0-0.3-0.1c-0.1-0.1-0.2-0.2-0.4-0.3
			c-0.1-0.1,0.1-0.3-0.1-0.3c-0.1,0.1-0.1,0.3-0.3,0.2c-0.2-0.1-0.2-0.4-0.4-0.6c-0.2,0-0.2-0.5-0.4-0.2c-0.2,0-0.1-0.3-0.2-0.4
			c0-0.2-0.1-0.3-0.1-0.5c0-0.3-0.1-0.7-0.1-1c-0.1-0.1,0-0.3-0.1-0.5c0.1-0.1,0.2-0.1,0.3-0.1C229,187.4,229.2,187.5,229.3,187.5"
			/>
		<path class="st1" d="M211.6,186.2c-0.1,0.1,0.1,0.2,0,0.3l0,0c0,0.1,0,0.2,0.1,0.3c0.1,0,0.1,0,0.1,0c0-0.2-0.1-0.4-0.2-0.5
			C211.6,186.4,211.7,186.2,211.6,186.2L211.6,186.2z M209.1,184.4L209.1,184.4c0,0.4,0.3,0.5,0.5,0.8c0.1,0.1,0.1,0.3,0.2,0.2
			c0-0.1,0-0.1,0-0.1C209.6,185,209.3,184.7,209.1,184.4L209.1,184.4z M208.7,183.5c0,0.1-0.2,0.2-0.1,0.3c0.2,0.1,0.2-0.1,0.3-0.1
			c0.1,0,0-0.1,0.1-0.1C209,183.4,208.8,183.3,208.7,183.5L208.7,183.5z M209.6,183.4c-0.1,0-0.3-0.1-0.4,0c0,0,0,0,0,0.1
			c0.4,0,0.7,0.3,1.1,0.4c0.5,0.1,0.9,0.3,1.4,0.2c0.1,0,0.2,0,0.3,0c0.1,0,0.3,0,0.3-0.1c0-0.1-0.2-0.1-0.3-0.1
			c-0.5,0.1-0.9-0.2-1.4-0.2c-0.3-0.2-0.7-0.3-1-0.3L209.6,183.4z M212.4,182.1c0.1,0.1,0.2,0.1,0.3,0.1c0.1,0.2,0.3,0.2,0.5,0.3
			c0.3,0,0.6,0.1,0.9,0.1c0.1,0,0.2,0.1,0.2,0.2c0,0.1,0,0.2,0.1,0.3c0.1-0.1,0.3-0.1,0.4,0c0,0.1,0.1,0.2,0.2,0.2
			c0.1-0.1,0.2-0.1,0.4-0.1c0,0.1,0.1,0.1,0.2,0.1c0,0,0.1,0,0.1,0c0,0,0,0.1,0,0.2c-0.1,0.2-0.2,0.4-0.4,0.5c-0.3,0-0.6-0.1-0.9,0
			c-0.2,0-0.3,0.1-0.5,0.1c0-0.1,0.1-0.2,0.1-0.4c0,0,0.1-0.1,0.1-0.1c-0.1,0-0.1-0.1-0.1-0.2c-0.1,0,0,0.3-0.2,0.1
			c-0.2-0.3-0.4-0.4-0.7-0.5c-0.1-0.1-0.1-0.3-0.3-0.2c-0.1,0.1-0.1,0-0.1,0c0,0-0.1-0.1-0.1,0c0.1,0.3,0.4,0.3,0.6,0.5
			c0.2,0,0.4,0.1,0.4,0.3c0,0.2,0,0.4-0.2,0.5c-0.1,0.1-0.3,0-0.3,0.2c0.1,0.1,0.3,0.1,0.4,0.2c-0.3,0-0.4-0.2-0.7-0.1
			c-0.4,0-0.7,0-1.1,0c-0.6-0.1-1.2-0.1-1.7-0.4c-0.2-0.1-0.4-0.1-0.6,0c-0.1,0-0.1,0.1,0,0.2c0.1,0,0.2,0.1,0.3,0.3
			c0.1,0,0.1,0.2,0.2,0.2c0.2,0.2,0.3,0.4,0.4,0.6c0.1,0.1,0.3,0.1,0.4,0.1c0.1,0.1,0.3,0.2,0.4,0.3c0,0.1-0.2,0.1-0.2,0.2
			c0,0,0,0.1,0.1,0.1c0.1,0,0.3,0,0.4-0.2c0-0.1,0-0.2,0.1-0.2c0.2,0,0.4,0,0.6,0c0,0.1,0.1,0,0.2,0c0.3,0.2,0.3,0.5,0.5,0.7
			c0,0.1,0.1,0.3,0.1,0.4c-0.3,0.1-0.6,0.1-0.8,0.2c-0.2,0-0.3,0.1-0.5,0c-0.2-0.2-0.5-0.4-0.8-0.4c0,0,0-0.1,0-0.1
			c0-0.1-0.1,0-0.1,0l0,0.1c-0.3-0.1-0.4-0.3-0.6-0.3c-0.3-0.2-0.4-0.5-0.6-0.8c0-0.1-0.1-0.2-0.2-0.3c-0.1-0.2-0.2-0.4-0.3-0.5
			l0-0.1c-0.2-0.2-0.3-0.4-0.5-0.6c-0.1,0-0.1-0.1-0.2-0.1c-0.1-0.2-0.2-0.4-0.1-0.6c0.1-0.1,0.1-0.2,0.2-0.3
			c0.1-0.1,0.2-0.4,0.4-0.4c0.7,0.2,1.4,0,2-0.1c0.5,0,1.2-0.4,1.7,0.1c0.1,0,0.1,0,0.2,0c0-0.2-0.2-0.2-0.3-0.3
			c-0.2,0-0.5-0.2-0.7-0.1c-0.1,0-0.1-0.1-0.1-0.1c0-0.3,0.4,0,0.5-0.2c0.1,0.1,0.2-0.1,0.2,0C212.1,182,212.3,181.9,212.4,182.1"/>
	</g>
</g>
</svg>
