<?xml version="1.0" encoding="utf-8"?>
<!-- Generator: Adobe Illustrator 26.0.1, SVG Export Plug-In . SVG Version: 6.00 Build 0)  -->
<svg version="1.1" id="Layer_1" xmlns="http://www.w3.org/2000/svg" xmlns:xlink="http://www.w3.org/1999/xlink" x="0px" y="0px"
	 viewBox="0 0 95 35" style="enable-background:new 0 0 95 35;" xml:space="preserve">
<style type="text/css">
	.st0{fill:#104076;}
	.st1{fill:#FFFFFF;}
</style>
<path class="st0" d="M-39.1,613.7"/>
<g>
	<path class="st1" d="M47.5,0C37.8,0,30,7.8,30,17.5C30,27.2,37.8,35,47.5,35C57.2,35,65,27.2,65,17.5C65,7.8,57.2,0,47.5,0z
		 M47.5,2.2C56,2.2,62.9,9,62.9,17.5c0,8.5-6.9,15.4-15.4,15.4c-8.5,0-15.4-6.9-15.4-15.4C32.1,9,39,2.2,47.5,2.2L47.5,2.2z"/>
	<path class="st1" d="M38.8,11.5v11.9h4.8c2.2,0,3.9-1.4,3.9-3.6c0-1.9-1.5-2.7-1.5-2.7s1.2-0.7,1.2-2.4c0-1.9-1.5-3.3-3.7-3.3H38.8
		z M41.5,13.8h1.4c1,0,1.5,0.5,1.5,1.2c0,0.7-0.5,1.1-1.4,1.1h-1.5L41.5,13.8z M41.5,18.5h1.4c1,0,1.5,0.5,1.5,1.2
		c0,0.7-0.5,1.1-1.4,1.1h-1.5L41.5,18.5z M51.1,23.4v-9.1h-2.7v-2.8h8.3v2.8H54v9.1H51.1z"/>
</g>
</svg>
