<?xml version="1.0" encoding="utf-8"?>
<!-- Generator: Adobe Illustrator 26.0.1, SVG Export Plug-In . SVG Version: 6.00 Build 0)  -->
<svg version="1.1" id="Layer_1" xmlns="http://www.w3.org/2000/svg" xmlns:xlink="http://www.w3.org/1999/xlink" x="0px" y="0px"
	 viewBox="0 0 95 35" style="enable-background:new 0 0 95 35;" xml:space="preserve">
<style type="text/css">
	.st0{fill:#104076;}
	.st1{fill:#343741;}
	.st2{clip-path:url(#SVGID_00000003063648105982259700000004780026750283648692_);fill:#343741;}
</style>
<path class="st0" d="M-39.1,613.7"/>
<path class="st1" d="M90.1,20.7l0.5-0.9c0,0,0.1,0,0.1,0c0.7,0.5,1.3,0.7,2,0.7c0.6,0,1-0.3,1-0.7c0-1-3.4-0.5-3.4-2.8
	c0-1.2,1-1.9,2.3-1.9c0.8,0,1.6,0.3,2.2,0.7c0,0,0,0,0,0.1l-0.5,0.9c0,0,0,0-0.1,0c-0.6-0.4-1.2-0.6-1.7-0.6c-0.6,0-0.9,0.3-0.9,0.6
	c0,1.1,3.4,0.6,3.4,2.8c0,1.3-1.1,2-2.4,2c-0.9,0-1.7-0.3-2.5-0.9C90.1,20.8,90.1,20.8,90.1,20.7"/>
<path class="st1" d="M36,20.7l0.5-0.9c0,0,0.1,0,0.1,0c0.7,0.5,1.3,0.7,2,0.7c0.6,0,1-0.3,1-0.7c0-1-3.4-0.5-3.4-2.8
	c0-1.2,1-1.9,2.3-1.9c0.8,0,1.6,0.3,2.2,0.7c0,0,0,0,0,0.1l-0.5,0.9c0,0,0,0-0.1,0c-0.6-0.4-1.2-0.6-1.7-0.6c-0.6,0-0.9,0.3-0.9,0.6
	c0,1.1,3.4,0.6,3.4,2.8c0,1.3-1.1,2-2.4,2c-0.9,0-1.7-0.3-2.5-0.9C36,20.8,35.9,20.8,36,20.7"/>
<path class="st1" d="M84.7,19.8C84.7,19.8,84.6,19.8,84.7,19.8c-0.6,0.5-1.1,0.7-1.8,0.7c-0.9,0-1.6-0.5-1.8-1.5c0,0,0-0.1,0-0.1
	h4.5c0,0,0,0,0,0c0.2-2.2-1.1-3.8-2.8-3.8c-1.7,0-3.2,1.2-3.2,3.3c0,1.9,1.4,3.2,3.2,3.2c1.1,0,1.9-0.4,2.5-1.1c0,0,0,0,0-0.1
	L84.7,19.8z M84.3,18h-3.1c0,0-0.1,0,0-0.1c0.1-0.9,0.8-1.6,1.6-1.6C83.7,16.4,84.2,17.1,84.3,18C84.3,18,84.3,18,84.3,18"/>
<path class="st1" d="M46.4,19.8C46.4,19.8,46.3,19.8,46.4,19.8c-0.6,0.5-1.1,0.7-1.8,0.7c-0.9,0-1.6-0.5-1.8-1.5c0,0,0-0.1,0-0.1
	h4.5c0,0,0,0,0,0c0.2-2.2-1.1-3.8-2.8-3.8c-1.7,0-3.2,1.2-3.2,3.3c0,1.9,1.4,3.2,3.2,3.2c1.1,0,1.9-0.4,2.5-1.1c0,0,0,0,0-0.1
	L46.4,19.8z M46,18h-3.1c0,0-0.1,0,0-0.1c0.1-0.9,0.8-1.6,1.6-1.6C45.4,16.4,45.9,17.1,46,18C46,18,46,18,46,18"/>
<path class="st1" d="M18.6,17.5c0-2.4,1.8-4.3,4.3-4.3c1.5,0,2.4,0.5,3.2,1.3c0,0,0,0,0,0.1l-0.9,1c0,0,0,0-0.1,0
	c-0.7-0.6-1.4-1-2.3-1c-1.6,0-2.7,1.3-2.7,3c0,1.6,1.2,3,2.7,3c1,0,1.7-0.4,2.4-1c0,0,0,0,0.1,0l0.9,0.9c0,0,0,0,0,0.1
	c-0.9,0.9-1.8,1.4-3.3,1.4C20.4,21.7,18.6,19.8,18.6,17.5"/>
<path class="st1" d="M32.3,15.2c-1.8,0-3.3,1.5-3.3,3.3c0,1.8,1.5,3.3,3.3,3.3c1.8,0,3.3-1.5,3.3-3.3C35.7,16.7,34.2,15.2,32.3,15.2
	 M32.3,20.5c-1,0-1.9-0.9-1.9-2c0-1.1,0.8-2,1.9-2c1,0,1.9,0.9,1.9,2C34.2,19.6,33.4,20.5,32.3,20.5"/>
<path class="st1" d="M58.4,15.3C58.4,15.3,58.4,15.3,58.4,15.3l0,6.2c0,0,0,0,0,0h1.3c0,0,0,0,0,0v-2.3c0-1.7,0.8-2.5,2-2.5
	c0.1,0,0.1-0.1,0.1-0.1l0.2-1.4c0,0,0-0.1,0-0.1c-1.3,0-1.8,0.5-2.2,1.3c0,0-0.1,0-0.1,0v-1.1c0,0,0,0,0,0H58.4"/>
<path class="st1" d="M26.8,13.6l1.3-0.5c0,0,0.1,0,0.1,0v8.4c0,0,0,0,0,0h-1.3c0,0,0,0,0,0L26.8,13.6C26.8,13.6,26.8,13.6,26.8,13.6
	"/>
<path class="st1" d="M57.6,19.3c0,1.6-1.2,2.3-3.1,2.3h-3.8c0,0,0,0,0,0v-8.2c0,0,0,0,0,0h3.6c1.2,0,2.7,0.5,2.7,2.1
	c0,0.9-0.5,1.5-1.1,1.8c0,0,0,0.1,0,0.1C56.9,17.6,57.6,18.2,57.6,19.3 M55.6,15.6c0-0.7-0.5-1.1-1.5-1.1h-1.9c0,0,0,0,0,0v2.1
	c0,0,0,0,0,0h1.8C55,16.8,55.6,16.4,55.6,15.6 M56.1,19.1c0-0.7-0.6-1.1-1.7-1.1h-2.1c0,0,0,0,0,0v2.2c0,0,0,0,0,0h2.2
	C55.5,20.3,56.1,19.9,56.1,19.1"/>
<path class="st1" d="M69.7,19.9v-3.3c0,0,0,0,0,0h-0.7c0,0,0,0,0,0v-1.1c0,0,0,0,0,0h0.7c0,0,0,0,0,0v-1.6c0,0,0,0,0,0l1.3-0.5
	c0,0,0.1,0,0.1,0v2.1c0,0,0,0,0,0h1.5c0,0,0,0,0,0v1.1c0,0,0,0,0,0h-1.5c0,0,0,0,0,0v3.1c0,0.6,0.3,0.8,0.8,0.8
	c0.3,0,0.5-0.1,0.8-0.2c0,0,0.1,0,0.1,0v1.1c0,0,0,0,0,0c-0.4,0.2-0.7,0.3-1.2,0.3C70.4,21.7,69.7,21.3,69.7,19.9"/>
<path class="st1" d="M73.5,13.6l1.3-0.5c0,0,0.1,0,0.1,0v3c0,0,0.1,0.1,0.1,0c0.4-0.5,1-1,1.9-1c1.4,0,2.2,0.9,2.2,2.4v3.9
	c0,0,0,0,0,0h-1.3c0,0,0,0,0,0V18c0-1-0.5-1.5-1.3-1.5c-0.8,0-1.4,0.6-1.4,1.6v3.5c0,0,0,0,0,0h-1.3c0,0,0,0,0,0L73.5,13.6
	C73.4,13.6,73.4,13.6,73.5,13.6"/>
<path class="st1" d="M86.4,15.3C86.4,15.3,86.4,15.3,86.4,15.3l0,6.2c0,0,0,0,0,0h1.3c0,0,0,0,0,0v-2.3c0-1.7,0.8-2.5,2-2.5
	c0.1,0,0.1-0.1,0.1-0.1l0.2-1.4c0,0,0-0.1,0-0.1c-1.3,0-1.8,0.5-2.2,1.3c0,0-0.1,0-0.1,0v-1.1c0,0,0,0,0,0H86.4"/>
<path class="st1" d="M65.2,15.2c-1.8,0-3.3,1.5-3.3,3.3c0,1.8,1.5,3.3,3.3,3.3c1.8,0,3.3-1.5,3.3-3.3C68.6,16.7,67.1,15.2,65.2,15.2
	 M65.2,20.5c-1,0-1.9-0.9-1.9-2c0-1.1,0.8-2,1.9-2c1,0,1.9,0.9,1.9,2C67.1,19.6,66.3,20.5,65.2,20.5"/>
<g>
	<defs>
		<path id="SVGID_1_" d="M7.7,19.3l-4,4c0,0,0,0.1,0,0.1c1.2,0.8,2.6,1.3,4.1,1.3h0c1.5,0,2.9-0.4,4.1-1.3c0,0,0.1-0.1,0-0.1l-4-4
			C7.8,19.3,7.7,19.3,7.7,19.3C7.7,19.3,7.7,19.3,7.7,19.3"/>
	</defs>
	<use xlink:href="#SVGID_1_"  style="overflow:visible;fill:#FFFFFF;"/>
	<clipPath id="SVGID_00000128452646313287815340000016473936358048940462_">
		<use xlink:href="#SVGID_1_"  style="overflow:visible;"/>
	</clipPath>
	
		<rect x="3.6" y="19.3" style="clip-path:url(#SVGID_00000128452646313287815340000016473936358048940462_);fill:#FFFFFF;" width="8.3" height="5.5"/>
</g>
<path class="st1" d="M6.6,10.3c-1.1,0.2-2.2,0.6-3.1,1.3c-1.9,1.4-3,3.5-3,5.8v0.1c0,1.7,0.6,3.4,1.8,4.7c0,0,0.1,0,0.1,0
	c0.3-0.3,1.9-1.8,2.1-2.1c0,0,0-0.1,0-0.1c-0.5-0.6-0.8-1.4-0.8-2.2c-0.1-0.8,0.1-1.5,0.5-2.2c0.2-0.3,0.4-0.7,0.7-0.9c0,0,0,0,0,0
	l0,0c0.3-0.3,0.6-0.5,1-0.7c0.6-0.3,1.4-0.5,2.2-0.5c2.1,0.1,3.9,1.9,3.9,4.1c0,0.9-0.3,1.8-0.9,2.5c0,0,0,0.1,0,0.1
	c0.3,0.3,1.8,1.8,2.1,2.1c0,0,0.1,0,0.1,0c1.1-1.3,1.8-3,1.8-4.7c0-1.9-0.8-3.8-2.1-5.1c-1.4-1.4-3.2-2.1-5.1-2.1
	C7.3,10.2,7,10.3,6.6,10.3"/>
</svg>
