<?xml version="1.0" encoding="utf-8"?>
<!-- Generator: Adobe Illustrator 26.0.1, SVG Export Plug-In . SVG Version: 6.00 Build 0)  -->
<svg version="1.1" id="Layer_1" xmlns="http://www.w3.org/2000/svg" xmlns:xlink="http://www.w3.org/1999/xlink" x="0px" y="0px"
	 viewBox="0 0 95 35" style="enable-background:new 0 0 95 35;" xml:space="preserve">
<style type="text/css">
	.st0{fill:#CCCCCC;}
</style>
<g>
	<path class="st0" d="M11.8,26.5c0-0.1-0.1-0.2-0.2-0.2c-0.1,0-0.2,0.1-0.3,0.3c-0.8,1.4-1.5,1.9-2.6,1.9c-2,0-3.5-1.9-3.5-4.3
		c0-2,1.3-4.2,3.6-4.2c2,0,2.3,1.7,2.8,1.7c0.2,0,0.2-0.1,0.2-0.3c-0.1-0.8,0-1.4-0.7-1.6c-0.6-0.1-1.6-0.3-2.2-0.3
		c-1.3,0-2.5,0.3-3.4,0.9c-1.4,0.8-2.2,2.3-2.2,3.7c0,1.3,0.8,2.8,2,3.7c0.9,0.6,2.1,1,3.4,1c0.8,0,3-0.2,3.1-1.1L11.8,26.5
		L11.8,26.5z"/>
	<path class="st0" d="M17.8,25.8c0.1-0.3,0-0.4,0.6-0.4h1.8h0.2c0.2,0,0.3,0.1,0.4,0.4l0.6,1.7c0.1,0.2,0.1,0.3,0.1,0.4
		c0,0.6-1.1,0.1-1.1,0.6c0,0.1,0.1,0.2,0.3,0.2c0.6,0,1.2-0.1,1.8-0.1c0.6,0,1.1,0.1,1.7,0.1c0.2,0,0.3-0.1,0.3-0.2
		c0-0.2-0.3-0.2-0.4-0.2c-0.8-0.1-1-0.9-1.2-1.5l-2.3-5.4c-0.1-0.4-0.3-0.7-0.4-1.1c-0.2-0.6-0.3-0.7-0.4-0.7
		c-0.1,0-0.1,0.1-0.2,0.1c-0.2,0.4-0.3,0.8-0.5,1.2l-0.8,2.2c-0.5,1.4-1.3,3.5-2,4.8c-0.4,0.6-1.2,0.2-1.2,0.6
		c0,0.1,0.1,0.2,0.3,0.2c0.4,0,0.8-0.1,1.3-0.1c0.5,0,1.1,0.1,1.6,0.1c0.3,0,0.4-0.1,0.4-0.2c0-0.4-1.3,0-1.3-0.6
		c0-0.1,0.1-0.4,0.1-0.6L17.8,25.8L17.8,25.8z M19.2,22.1l1.1,2.5c0.1,0.2,0.1,0.2,0.1,0.3c0,0.1-0.1,0.1-0.3,0.1h-1.4
		c-0.3,0-0.4,0-0.4-0.1c0-0.1,0-0.2,0.1-0.3L19.2,22.1L19.2,22.1z"/>
	<path class="st0" d="M33.8,24.1c1.2-0.2,2-0.9,2-2.1c0-1.6-1.4-2.3-2.9-2.3c-0.8,0-1.6,0.1-2.5,0.1c-0.6,0-1.1-0.1-1.7-0.1
		c-0.2,0-0.3,0.1-0.3,0.2c0,0.4,0.8,0,1.2,0.5c0.1,0.1,0.1,0.2,0.1,0.8v6.1c0,0.6,0,1-0.8,1c-0.4,0-0.5,0.1-0.5,0.2
		c0,0.1,0.1,0.2,0.3,0.2c0.6,0,1.2-0.1,1.8-0.1c0.6,0,1.1,0.1,1.7,0.1h0c0.2,0,0.3-0.1,0.3-0.2c0-0.2-0.1-0.2-0.5-0.2
		c-0.7,0-0.8-0.4-0.8-1v-2.6c0-0.3,0-0.3,0.3-0.3c0.7,0,0.7,0.1,1.1,0.7l1.8,3.3c0.2,0.4,0.3,0.4,0.5,0.4c0.3,0,0.5,0,0.8,0
		c0.5,0,0.9,0,1.4,0c0.1,0,0.2-0.1,0.2-0.2c0-0.1-0.1-0.2-0.2-0.2c-0.8-0.1-0.9-0.2-1.3-1l-1.4-2.5C34.2,24.5,34,24.3,33.8,24.1
		L33.8,24.1z M31.4,23.5v-2.4c0-0.8,0.1-0.9,0.7-0.9c1.3,0,2.1,0.8,2.1,2.1c0,1.3-0.7,1.8-2,1.8C31.4,24,31.4,24,31.4,23.5
		L31.4,23.5z"/>
	<path class="st0" d="M48.6,26.4l-5-6.3c-0.1-0.2-0.3-0.4-0.6-0.4l-1,0c-0.4,0-0.9,0-1.3,0c-0.3,0-0.4,0.1-0.4,0.2
		c0,0.2,0.1,0.2,0.6,0.2c0.3,0,0.5,0.1,0.6,0.2c0.1,0.1,0.2,0.5,0.2,1.1v4.8c0,0.4,0,0.9,0,1.4c0,1.1-1.4,0.6-1.4,1
		c0,0.1,0.1,0.2,0.3,0.2c0.5,0,1.1-0.1,1.6-0.1c0.4,0,0.8,0,1.3,0c0.3,0,0.4-0.1,0.4-0.2c0-0.2-0.3-0.2-0.7-0.2
		c-0.5,0-0.7-0.2-0.8-0.6c-0.1-0.3-0.1-1-0.1-1.6v-5l6.3,7.7c0.2,0.3,0.3,0.4,0.5,0.4c0.2,0,0.3-0.1,0.3-0.4v-0.1v-7.5
		c0-0.7,0.1-0.8,0.8-0.9c0.5,0,0.6-0.1,0.6-0.3c0-0.1-0.1-0.2-0.3-0.2c-0.5,0-1,0.1-1.4,0.1c-0.4,0-0.9,0-1.3,0
		c-0.3,0-0.4,0.1-0.4,0.2c0,0.5,1.2-0.1,1.4,0.8c0,0.2,0.1,0.8,0.1,1.2L48.6,26.4L48.6,26.4z"/>
	<path class="st0" d="M56.5,21.2c0-0.5,0-0.6,0.1-0.8c0.1-0.1,0.3-0.3,0.6-0.3c0.4,0,0.5-0.1,0.5-0.2c0-0.1-0.1-0.2-0.3-0.2
		c-0.6,0-1.2,0.1-1.8,0.1c-0.6,0-1.1-0.1-1.7-0.1c0,0,0,0-0.1,0c-0.2,0-0.3,0.1-0.3,0.2c0,0.2,0.1,0.2,0.5,0.3c0.7,0,0.8,0.4,0.8,1
		v6.1c0,0.6,0,1-0.8,1c-0.4,0-0.5,0.1-0.5,0.2c0,0.1,0.1,0.2,0.3,0.2c0.6,0,1.2-0.1,1.8-0.1c0.6,0,1.2,0.1,1.8,0.1
		c0.2,0,0.3-0.1,0.3-0.2c0-0.2-0.1-0.2-0.5-0.2c-0.7,0-0.8-0.4-0.8-1L56.5,21.2L56.5,21.2z"/>
	<path class="st0" d="M67.2,26.4L64.9,21c-0.1-0.3-0.2-0.4-0.2-0.5c0-0.6,1.2-0.2,1.2-0.6c0-0.1-0.1-0.2-0.3-0.2
		c-0.6,0-1.3,0.1-1.9,0.1c-0.6,0-1.2-0.1-1.8-0.1c-0.1,0-0.2,0.1-0.2,0.2c0,0.2,0.1,0.2,0.5,0.2c0.5,0,0.7,0.2,1,0.9l3.3,7.5
		c0.1,0.2,0.2,0.3,0.3,0.3c0.1,0,0.2-0.1,0.3-0.3l3-7.2c0.4-1,0.6-1.2,1-1.3l0.4-0.1c0.1,0,0.2-0.1,0.2-0.2c0-0.1-0.1-0.2-0.3-0.2
		c-0.4,0-0.9,0.1-1.3,0.1c-0.4,0-0.8,0-1.3,0c-0.3,0-0.4,0.1-0.4,0.2c0,0.5,1.3-0.1,1.3,0.7c0,0.2-0.1,0.5-0.2,0.8L67.2,26.4
		L67.2,26.4z"/>
	<path class="st0" d="M75.3,25.8c0.1-0.3,0-0.4,0.6-0.4h1.8h0.2c0.2,0,0.3,0.1,0.4,0.4l0.6,1.7C79,27.7,79,27.9,79,28
		c0,0.6-1.1,0.1-1.1,0.6c0,0.1,0.1,0.2,0.3,0.2c0.6,0,1.2-0.1,1.8-0.1c0.6,0,1.1,0.1,1.7,0.1c0.2,0,0.3-0.1,0.3-0.2
		c0-0.2-0.3-0.2-0.4-0.2c-0.8-0.1-1-0.9-1.2-1.5l-2.3-5.4c-0.1-0.4-0.3-0.7-0.4-1.1c-0.2-0.6-0.3-0.7-0.4-0.7
		c-0.1,0-0.1,0.1-0.2,0.1c-0.2,0.4-0.3,0.8-0.5,1.2l-0.8,2.2c-0.5,1.4-1.3,3.5-2,4.8c-0.4,0.6-1.2,0.2-1.2,0.6
		c0,0.1,0.1,0.2,0.3,0.2c0.4,0,0.8-0.1,1.3-0.1c0.5,0,1.1,0.1,1.6,0.1c0.3,0,0.4-0.1,0.4-0.2c0-0.4-1.3,0-1.3-0.6
		c0-0.1,0.1-0.4,0.1-0.6L75.3,25.8L75.3,25.8z M76.6,22.1l1.1,2.5c0.1,0.2,0.1,0.2,0.1,0.3c0,0.1-0.1,0.1-0.3,0.1H76
		c-0.3,0-0.4,0-0.4-0.1c0-0.1,0-0.2,0.1-0.3L76.6,22.1L76.6,22.1z"/>
	<path class="st0" d="M90.8,28.7c0.2,0,0.4,0,0.6,0c0.3,0,0.3-0.1,0.4-0.3c0-0.5,0.2-1.3,0.2-1.6c0-0.1-0.1-0.2-0.2-0.2
		c-0.1,0-0.1,0-0.2,0.2c-0.6,1.1-1.4,1.6-2.6,1.6c-0.8,0-1.2-0.4-1.2-1.4v-5.7c0-0.5,0-0.6,0.1-0.8c0.1-0.1,0.3-0.3,0.6-0.3
		c0.4,0,0.5-0.1,0.5-0.2c0-0.1-0.1-0.2-0.3-0.2c-0.6,0-1.2,0.1-1.8,0.1s-1.2-0.1-1.8-0.1c-0.2,0-0.3,0.1-0.3,0.2
		c0,0.4,0.8,0,1.2,0.5c0.1,0.1,0.1,0.2,0.1,0.8v6.1c0,0.6,0,1-0.8,1c-0.4,0-0.5,0.1-0.5,0.2c0,0.1,0.1,0.2,0.3,0.2c0.3,0,0.7,0,1,0
		L90.8,28.7L90.8,28.7z"/>
</g>
<g>
	<g>
		<g>
			<path class="st0" d="M7.2,31.8c0,0.1,0,0.1-0.1,0.1c0,0-0.1,0-0.2-0.1c-0.3-0.3-0.5-0.6-1.2-0.6c-1.2,0-1.7,1-1.7,1.8
				c0,0.9,0.6,1.8,1.7,1.8c0.7,0,1-0.3,1.3-0.8c0,0,0.1-0.1,0.1-0.1c0.1,0,0.1,0.1,0.1,0.1l-0.1,0.5c0,0.1,0,0.1-0.2,0.2
				c-0.1,0.1-0.6,0.3-1.3,0.3c-1.8,0-2.6-1.2-2.6-2C3.1,32.1,4,31,5.8,31c0.3,0,0.5,0,0.9,0.1c0.3,0,0.4,0.1,0.4,0.3L7.2,31.8z"/>
			<path class="st0" d="M11.8,34.9c-1.3,0-2.5-0.8-2.5-2c0-1.1,1.1-1.9,2.5-1.9c1.3,0,2.4,0.8,2.4,1.9C14.3,34.1,13,34.9,11.8,34.9z
				 M11.7,31.2c-1,0-1.5,0.8-1.5,1.7c0,1,0.7,1.9,1.6,1.9c1,0,1.5-0.9,1.5-1.8C13.4,32.2,12.9,31.2,11.7,31.2z"/>
			<path class="st0" d="M16.9,31.7c0-0.3,0-0.4-0.4-0.4c-0.2,0-0.3,0-0.3-0.1c0-0.1,0-0.1,0.3-0.1c0.1,0,0.4,0,0.5,0
				c0.2,0,1.2,0,1.4,0c1.3,0,1.4,0.7,1.4,1c0,0.7-0.7,0.9-1,0.9c0.1,0,0.2,0.1,0.3,0.3l0.7,1.1c0.1,0.2,0.2,0.4,0.4,0.4
				c0.2,0,0.3,0,0.3,0.1c0,0.1-0.1,0.1-0.1,0.1c-0.1,0-0.6,0-0.7,0c-0.1,0-0.3,0-0.4,0c-0.1,0-0.2-0.1-0.2-0.2l-0.9-1.4
				c-0.2-0.3-0.2-0.3-0.5-0.3c-0.1,0-0.1,0-0.1,0.1v1.1c0,0.3,0,0.4,0.4,0.4c0.2,0,0.3,0,0.3,0.1c0,0.1-0.1,0.1-0.1,0.1
				c-0.1,0-0.8,0-0.9,0c-0.1,0-0.7,0-0.8,0c-0.1,0-0.1,0-0.1-0.1s0.1-0.1,0.3-0.1c0.4,0,0.4-0.2,0.4-0.4L16.9,31.7L16.9,31.7z
				 M17.6,32.7c0,0.2,0,0.2,0.4,0.2c0.3,0,1,0,1-0.8c0-0.2-0.1-0.9-1-0.9c-0.3,0-0.3,0.1-0.3,0.4L17.6,32.7L17.6,32.7z"/>
			<path class="st0" d="M22.8,31.7c0-0.3,0-0.4-0.4-0.4c-0.1,0-0.3,0-0.3-0.1c0-0.1,0-0.1,0.3-0.1c0.1,0,0.6,0,0.7,0
				c0.2,0,1,0,1.2,0c1.2,0,1.5,0.7,1.5,1.1c0,0.7-0.8,1.1-1.4,1.1c-0.2,0-0.3,0-0.6-0.1c0,0-0.2-0.1-0.2-0.1c-0.1,0-0.1,0-0.1,0.1
				v1.1c0,0.3,0,0.4,0.4,0.4c0.2,0,0.3,0,0.3,0.1c0,0.1-0.1,0.1-0.1,0.1c-0.2,0-0.6,0-0.9,0c-0.1,0-0.7,0-0.9,0
				c-0.1,0-0.1,0-0.1-0.1c0-0.1,0.1-0.1,0.3-0.1c0.4,0,0.4-0.2,0.4-0.4V31.7L22.8,31.7z M23.6,32.8c0,0.1,0,0.1,0.1,0.2
				C23.8,33,24,33,24.2,33c0.4,0,0.9-0.3,0.9-0.8c0-0.5-0.5-0.9-1.1-0.9c-0.4,0-0.5,0.2-0.5,0.5L23.6,32.8L23.6,32.8z"/>
			<path class="st0" d="M30.3,34.9c-1.3,0-2.5-0.8-2.5-2c0-1.1,1.1-1.9,2.5-1.9c1.3,0,2.4,0.8,2.4,1.9
				C32.8,34.1,31.5,34.9,30.3,34.9z M30.3,31.2c-1,0-1.5,0.8-1.5,1.7c0,1,0.7,1.9,1.6,1.9c1,0,1.5-0.9,1.5-1.8
				C31.9,32.2,31.4,31.2,30.3,31.2z"/>
			<path class="st0" d="M35.4,31.7c0-0.3,0-0.4-0.4-0.4c-0.2,0-0.3,0-0.3-0.1c0-0.1,0-0.1,0.3-0.1c0.1,0,0.4,0,0.5,0
				c0.2,0,1.2,0,1.4,0c1.3,0,1.4,0.7,1.4,1c0,0.7-0.7,0.9-1,0.9c0.1,0,0.2,0.1,0.3,0.3l0.7,1.1c0.1,0.2,0.2,0.4,0.4,0.4
				c0.2,0,0.3,0,0.3,0.1c0,0.1-0.1,0.1-0.1,0.1c-0.1,0-0.6,0-0.7,0c-0.1,0-0.3,0-0.4,0c-0.1,0-0.2-0.1-0.2-0.2l-0.9-1.4
				c-0.2-0.3-0.2-0.3-0.5-0.3c-0.1,0-0.1,0-0.1,0.1v1.1c0,0.3,0,0.4,0.4,0.4c0.2,0,0.3,0,0.3,0.1c0,0.1-0.1,0.1-0.1,0.1
				c-0.1,0-0.8,0-0.9,0c-0.1,0-0.7,0-0.8,0c-0.1,0-0.1,0-0.1-0.1s0.1-0.1,0.3-0.1c0.4,0,0.4-0.2,0.4-0.4L35.4,31.7L35.4,31.7z
				 M36.2,32.7c0,0.2,0,0.2,0.4,0.2c0.3,0,1,0,1-0.8c0-0.2-0.1-0.9-1-0.9c-0.3,0-0.3,0.1-0.3,0.4L36.2,32.7L36.2,32.7z"/>
		</g>
		<g>
			<path class="st0" d="M42.1,33.5c-0.2,0-0.2,0-0.3,0.2l-0.2,0.7c0,0-0.1,0.2-0.1,0.3c0,0.1,0.2,0.2,0.3,0.2c0.2,0,0.3,0,0.3,0.1
				c0,0.1-0.1,0.1-0.3,0.1c-0.1,0-0.5,0-0.7,0c-0.1,0-0.5,0-0.6,0c0,0-0.1,0-0.1-0.1c0-0.1,0.1-0.1,0.2-0.1c0.2,0,0.3,0,0.4-0.2
				c0.2-0.4,0.9-1.8,1.3-2.9c0.3-0.6,0.3-0.6,0.3-0.6c0.1,0,0.1,0,0.2,0.3c0.1,0.2,0.1,0.3,0.2,0.5l1.1,2.3c0.2,0.5,0.3,0.6,0.6,0.6
				c0.1,0,0.2,0,0.2,0.1c0,0.1-0.1,0.1-0.2,0.1c-0.1,0-0.7,0-0.8,0c-0.4,0-0.8,0-0.8,0c-0.1,0-0.2,0-0.2-0.1c0-0.1,0.1-0.1,0.3-0.1
				c0.2,0,0.3,0,0.3-0.1c0-0.1,0-0.1,0-0.2l-0.3-0.7c-0.1-0.2-0.1-0.2-0.3-0.2L42.1,33.5L42.1,33.5z M42.9,33.3c0.2,0,0.2,0,0.2,0
				c0,0,0-0.1,0-0.1l-0.5-1.1l-0.4,1c0,0,0,0.1,0,0.1c0,0.1,0,0.1,0.2,0.1C42.2,33.3,42.9,33.3,42.9,33.3z"/>
		</g>
	</g>
	<g>
		<g>
			<path class="st0" d="M48.8,34.3c0,0.3,0,0.4,0.4,0.4c0.1,0,0.3,0,0.3,0.1s-0.1,0.1-0.1,0.1c-0.2,0-0.6,0-0.8,0
				c-0.1,0-0.7,0-0.8,0c-0.1,0-0.1,0-0.1-0.1s0.1-0.1,0.3-0.1c0.4,0,0.4-0.2,0.4-0.4v-2.8c0-0.2-0.1-0.2-0.2-0.2
				c-0.4,0-0.9,0-1.3,0.6C46.4,32,46.4,32,46.3,32c-0.1,0-0.1,0-0.1-0.1s0-0.1,0-0.1l0.3-0.9c0-0.1,0-0.1,0.1-0.1
				c0.1,0,0.1,0,0.1,0.1c0,0.2,0.2,0.2,0.3,0.2h2.3c0.7,0,0.8-0.1,0.8-0.2c0,0,0-0.1,0.1-0.1c0.1,0,0.1,0.1,0.1,0.2l0,0.7
				c0,0.1,0,0.2-0.1,0.2c0,0-0.1,0-0.1-0.1c-0.1-0.6-0.5-0.6-0.9-0.6c-0.4,0-0.4,0-0.4,0.2L48.8,34.3L48.8,34.3z"/>
			<path class="st0" d="M53.6,34.3c0,0.3,0,0.4,0.4,0.4c0.2,0,0.3,0,0.3,0.1c0,0.1-0.1,0.1-0.1,0.1c-0.1,0-0.4,0-0.9,0
				c-0.4,0-0.8,0-0.8,0c-0.1,0-0.1,0-0.1-0.1c0-0.1,0.1-0.1,0.3-0.1c0.4,0,0.4-0.2,0.4-0.4v-2.6c0-0.3,0-0.4-0.4-0.4
				c-0.2,0-0.3,0-0.3-0.1c0-0.1,0.1-0.1,0.1-0.1c0.1,0,0.4,0,0.8,0c0.5,0,0.7,0,0.9,0c0.1,0,0.1,0,0.1,0.1c0,0.1-0.1,0.1-0.3,0.1
				c-0.4,0-0.4,0.2-0.4,0.4V34.3z"/>
			<path class="st0" d="M58.7,34.9c-1.3,0-2.5-0.8-2.5-2c0-1.1,1.1-1.9,2.5-1.9c1.3,0,2.4,0.8,2.4,1.9
				C61.1,34.1,59.9,34.9,58.7,34.9z M58.6,31.2c-1,0-1.5,0.8-1.5,1.7c0,1,0.7,1.9,1.6,1.9c1,0,1.5-0.9,1.5-1.8
				C60.3,32.2,59.8,31.2,58.6,31.2z"/>
			<path class="st0" d="M67.2,33.9l0-1.9c0-0.7-0.1-0.7-0.4-0.8c-0.2,0-0.3,0-0.3-0.1c0-0.1,0.1-0.1,0.2-0.1c0.1,0,0.5,0,0.6,0
				c0.1,0,0.7,0,0.8,0c0,0,0.1,0,0.1,0.1c0,0.1-0.1,0.1-0.3,0.1c-0.3,0-0.4,0-0.4,0.4l0,3.2c0,0.1,0,0.2-0.1,0.2
				c-0.1,0-0.1,0-0.2-0.1l-3-3.2l0,0l0,2.1c0,0.9,0.1,0.9,0.4,1c0.3,0,0.3,0,0.3,0.1c0,0.1-0.1,0.1-0.2,0.1c-0.1,0-0.4,0-0.6,0
				c-0.4,0-0.7,0-0.8,0c0,0-0.1,0-0.1-0.1c0-0.1,0-0.1,0.3-0.1c0.3,0,0.3-0.1,0.3-0.9v-2c0-0.5,0-0.5-0.4-0.5c-0.1,0-0.3,0-0.3-0.1
				c0-0.1,0.1-0.1,0.2-0.1c0.1,0,0.4,0,0.6,0c0.2,0,0.4,0,0.5,0c0.1,0,0.2,0.1,0.2,0.2L67.2,33.9L67.2,33.9z"/>
			<path class="st0" d="M73.3,33.6C73.4,33.6,73.4,33.6,73.3,33.6c0.1,0,0.1,0,0.1,0l0.2-0.3c0.1-0.1,0.2-0.3,0.2-0.4
				c0-0.1-0.2-0.1-0.3-0.1c-0.2,0-0.3,0-0.3-0.1c0-0.1,0.1-0.1,0.3-0.1c0.2,0,0.5,0,0.7,0c0.1,0,0.5,0,0.6,0c0.1,0,0.1,0,0.1,0.1
				c0,0.1-0.2,0.1-0.3,0.1c-0.3,0-0.7,0.4-0.7,0.5l-0.3,0.4c0,0-0.1,0.1-0.1,0.1c0,0,0,0,0.1,0.1l0.4,0.3c0.2,0.2,0.6,0.5,0.8,0.5
				c0.3,0,0.3,0,0.3,0.1c0,0.1-0.1,0.1-0.2,0.1c-0.2,0-0.9,0-1.1,0c-0.5,0-0.5,0-0.6,0c0,0-0.2,0-0.2-0.1c0-0.1,0.1-0.1,0.2-0.1
				c0,0,0.1,0,0.1-0.1c0,0,0-0.1-0.1-0.1l-0.2-0.2c0,0-0.1,0-0.1,0c0,0,0,0-0.1,0c-0.4,0.3-0.9,0.7-1.6,0.7c-0.9,0-1.3-0.6-1.3-1
				c0-0.4,0.2-0.8,1.2-1.2c0,0,0.1,0,0.1-0.1c0,0-0.1-0.1-0.1-0.1c-0.2-0.2-0.4-0.5-0.4-0.7c0-0.5,0.5-0.8,1.3-0.8
				c0.8,0,1.2,0.4,1.2,0.8c0,0.3-0.1,0.5-0.8,0.7c-0.1,0-0.2,0.1-0.2,0.1c0,0,0,0,0,0L73.3,33.6z M71.5,32.9
				c-0.1-0.1-0.1-0.1-0.1-0.1c-0.1,0-0.7,0.3-0.7,0.9c0,0.4,0.3,0.8,1,0.8c0.6,0,1-0.4,1-0.5c0,0,0,0,0-0.1L71.5,32.9z M72.8,31.8
				c0-0.3-0.3-0.6-0.6-0.6c-0.3,0-0.5,0.2-0.5,0.5c0,0.3,0.5,0.8,0.6,0.8C72.4,32.5,72.8,32.2,72.8,31.8z"/>
			<path class="st0" d="M77.4,31.7c0-0.3,0-0.4-0.4-0.4c-0.1,0-0.3,0-0.3-0.1c0-0.1,0-0.1,0.3-0.1c0.1,0,0.6,0,0.7,0
				c0.2,0,1,0,1.2,0c1.2,0,1.5,0.7,1.5,1.1c0,0.7-0.8,1.1-1.4,1.1c-0.2,0-0.3,0-0.6-0.1c0,0-0.2-0.1-0.2-0.1c-0.1,0-0.1,0-0.1,0.1
				v1.1c0,0.3,0,0.4,0.4,0.4c0.2,0,0.3,0,0.3,0.1c0,0.1-0.1,0.1-0.1,0.1c-0.2,0-0.6,0-0.9,0c-0.1,0-0.7,0-0.9,0
				c-0.1,0-0.1,0-0.1-0.1c0-0.1,0.1-0.1,0.3-0.1c0.4,0,0.4-0.2,0.4-0.4V31.7L77.4,31.7z M78.2,32.8c0,0.1,0,0.1,0.1,0.2
				c0.1,0.1,0.3,0.1,0.5,0.1c0.4,0,0.9-0.3,0.9-0.8c0-0.5-0.5-0.9-1.1-0.9c-0.4,0-0.5,0.2-0.5,0.5L78.2,32.8L78.2,32.8z"/>
		</g>
		<g>
			<path class="st0" d="M83,31.7c0-0.3,0-0.4-0.4-0.4c-0.1,0-0.3,0-0.3-0.1c0-0.1,0.1-0.1,0.1-0.1c0.1,0,0.5,0,0.9,0
				c0.5,0,0.7,0,0.8,0c0.1,0,0.1,0,0.1,0.1c0,0.1-0.1,0.1-0.3,0.1c-0.4,0-0.4,0.2-0.4,0.4v2.4c0,0.4,0.1,0.6,0.6,0.6
				c0.3,0,0.9-0.1,1.2-0.7c0,0,0.1-0.1,0.1-0.1c0.1,0,0.1,0,0.1,0.1c0,0-0.1,0.6-0.1,0.7c0,0.1,0,0.1-0.2,0.1c-0.1,0-0.1,0-1.7,0
				c-1.2,0-1.2,0-1.3,0c0,0-0.1,0-0.1-0.1c0-0.1,0.1-0.1,0.3-0.1c0.4,0,0.4-0.2,0.4-0.4L83,31.7L83,31.7z"/>
		</g>
	</g>
	<g>
		<g>
			<path class="st0" d="M91.7,31.8c0,0.1,0,0.1-0.1,0.1c0,0-0.1,0-0.2-0.1c-0.3-0.3-0.5-0.6-1.2-0.6c-1.2,0-1.7,1-1.7,1.8
				c0,0.9,0.6,1.8,1.7,1.8c0.7,0,1-0.3,1.3-0.8c0,0,0.1-0.1,0.1-0.1c0.1,0,0.1,0.1,0.1,0.1l-0.1,0.5c0,0.1,0,0.1-0.2,0.2
				c-0.1,0.1-0.6,0.3-1.3,0.3c-1.8,0-2.6-1.2-2.6-2c0-0.8,0.9-1.9,2.7-1.9c0.3,0,0.5,0,0.9,0.1c0.3,0,0.4,0.1,0.4,0.3L91.7,31.8z"/>
		</g>
	</g>
</g>
<g>
	<path class="st0" d="M39.3,2.9c0.5,0,0.9,0.4,0.9,1s-0.4,1-0.9,1s-0.9-0.4-0.9-1C38.4,3.3,38.8,2.9,39.3,2.9L39.3,2.9z"/>
</g>
<rect x="40.7" y="4.4" transform="matrix(0.95 -0.3123 0.3123 0.95 -1.2386 13.5039)" class="st0" width="1.6" height="12.5"/>
<g>
	<path class="st0" d="M39.7,3.1c0,0,0.4,0.3,0.4,0.7c0,0.5-0.4,0.6-0.4,0.6s0.2-0.8,0.1-0.9C39.8,3.4,39.7,3.1,39.7,3.1L39.7,3.1z"
		/>
	<path class="st0" d="M39.5,4.5L39.5,4.5c0.1-0.4,0.2-0.9,0.1-1l0,0l0,0c0,0,0.1-0.1,0.1-0.1c0-0.1,0-0.2,0-0.2c0,0,0,0,0,0l0,0l0,0
		c0,0,0,0,0,0c0,0,0,0,0,0c0.3,0.3,0.4,0.6,0.4,0.7C40.1,4.3,39.6,4.5,39.5,4.5L39.5,4.5z M39.7,3.5c0.1,0.2,0,0.7,0,0.9
		C39.8,4.3,40,4.1,40,3.8c0-0.2-0.1-0.4-0.2-0.6C39.8,3.4,39.8,3.5,39.7,3.5z"/>
</g>
<path class="st0" d="M48,4.8c2-0.1,3.7,1.5,3.8,3.5c0.1,2-1.3,3.8-3.3,3.9c-2,0.1-3.7-1.5-3.8-3.5C44.6,6.6,46.1,4.9,48,4.8L48,4.8z
	"/>
<path class="st0" d="M48.1,5.2c1.4-0.1,2.6,1.3,2.7,3.1c0.1,1.8-0.9,3.3-2.3,3.4s-2.6-1.3-2.7-3.1C45.7,6.8,46.7,5.3,48.1,5.2
	L48.1,5.2z"/>
<path class="st0" d="M56.7,13.1c0,0-1.4-2.2-1.8-4.5c-0.6-2.1-0.4-4.3-0.3-4.5l0.1-0.1l-0.1,0c0,0-2.6-0.5-4.2-0.6
	c-0.6-0.1-1.9,0.1-3,0.2c-0.9,0.1-2.1,0.3-2.2,0.2c0-0.1,0-0.2,0-0.3c0.1-0.1,0.1-0.2,0-0.4c-0.1-0.4-1.3-0.2-1.4-0.2l-0.1,0
	c-0.6,0.1-1.2,0.3-1.9,0.6C41.3,3.8,41,4,40.7,4.2c-0.1,0.1-0.2,0.1-0.3,0.2l-0.1,0.1l0.1,0.1c0,0,1.6,2.5,2.2,4.9
	c0.2,0.8,0.4,2,0.6,2.8c0.2,1,0.2,1,0.3,1l0,0l0,0c0.1,0,1.4-0.4,2.2-0.2c0.3,0.1,0.5,0.2,0.7,0.3c0.5,0.3,1.1,0.6,2.4,0.6
	c1.1,0,1.9-0.3,2.6-0.6c0.6-0.2,1.2-0.4,1.8-0.5c1,0,2.2,0.2,2.9,0.3c0.4,0.1,0.5,0.1,0.5,0.1L56.7,13.1L56.7,13.1L56.7,13.1z
	 M48.5,12.1c-2,0.1-3.7-1.5-3.8-3.5c-0.1-2,1.4-3.8,3.3-3.9c2-0.1,3.7,1.5,3.8,3.5C52,10.3,50.5,12,48.5,12.1z"/>
<path class="st0" d="M48.1,5.2c1.4-0.1,2.6,1.3,2.7,3.1c0.1,1.8-0.9,3.3-2.3,3.4s-2.6-1.3-2.7-3.1C45.7,6.8,46.7,5.3,48.1,5.2
	L48.1,5.2z"/>
<path class="st0" d="M40.4,4.4l-0.4,0.1c0.2-0.2,0.3-0.4,0.3-0.7c0-0.4-0.2-0.7-0.5-0.9l0.2-0.1L38.3,0l0,3.5l0.3-0.1
	c-0.1,0.1-0.1,0.3-0.1,0.5c0,0.5,0.4,0.9,0.8,1l-0.4,0.1l3.9,11.9l1.5-0.5L40.4,4.4z M39,2.9l-0.5-2.3l1.1,2.1L39,2.9z M39.6,4.5
	L39.6,4.5L39.6,4.5c0-0.3,0.1-0.8,0-1l0,0l0,0c0,0,0.1-0.1,0.1-0.1c0-0.1,0-0.2,0-0.2c0,0,0,0,0,0l0,0l0,0c0,0,0,0,0,0c0,0,0,0,0,0
	c0.3,0.3,0.4,0.6,0.4,0.7C40.1,4.3,39.6,4.5,39.6,4.5z"/>
</svg>
