<?xml version="1.0" encoding="utf-8"?>
<!-- Generator: Adobe Illustrator 26.0.1, SVG Export Plug-In . SVG Version: 6.00 Build 0)  -->
<svg version="1.1" id="Layer_1" xmlns="http://www.w3.org/2000/svg" xmlns:xlink="http://www.w3.org/1999/xlink" x="0px" y="0px"
	 viewBox="0 0 95 35" style="enable-background:new 0 0 95 35;" xml:space="preserve">
<style type="text/css">
	.st0{fill:#343741;}
</style>
<g>
	<path class="st0" d="M21.5,0.4c0.4,0.5,0.5,1.1,0.8,1.7c-0.8,1-2,1.4-3,2.1c-0.3,0.1-0.5,0.3-0.8,0.5c-0.5-0.2-1.3-0.4-1.3-1.2
		c-0.3-0.5-0.6-1-0.6-1.6c0.8-1,2.3-0.8,3.2-1.7c0.5,0,0.8-0.4,1.3-0.1C21.2,0.3,21.3,0.4,21.5,0.4 M18.3,6.4
		c0.8-0.1,1.9-0.5,2.5,0.2C21.1,6.8,21,7,21.1,7.3C21,7.4,21,7.8,20.6,7.8c-0.4,0-0.7,0.3-1.1,0.4c0.2,0.1,0.6,0.3,0.6,0.6
		c0.3,0.3,0,0.8,0,1.2c-0.2,0.8-1.4,0.7-1.3,1.7c-1.2,0.5-2,1.7-3.3,1.8c-0.8,0.7-1.7,1.2-2.3,2c-0.3-2.3,1.4-4.5,3.3-5.5
		c-0.1-0.5-0.9-0.8-0.9-1.4c-0.3-0.4-0.6-0.9-0.6-1.4c0.8-0.6,1.6-1.4,2.7-1.1C17.9,6.1,18.1,6.2,18.3,6.4"/>
	<path class="st0" d="M25.7,12.8c0-0.1-0.1-0.2-0.2-0.2c-0.3,0.1-0.4-0.1-0.6,0.1c-0.1-0.4-0.9-0.1-1-0.5
		C24.6,12,25.3,12.4,25.7,12.8 M24.7,13l-0.1-0.3l0.1,0.1L24.7,13 M26,13.1c-0.1,0.3-0.3,0.5-0.5,0.6l0.2-0.5c0,0.1,0,0.1,0,0.1
		C25.9,13.3,25.9,13.1,26,13.1 M25.1,13.1c0,0.1-0.2,0.2-0.1,0.3c0.1-0.1,0.4,0.1,0.3,0.3c0,0.1,0,0.1-0.1,0.1
		c0-0.1-0.1-0.2-0.3-0.2l-0.1,0c0,0.3,0-0.1-0.1-0.2c-0.6,0.1-0.2,0.7-0.8,0.8c0-0.2,0.2-0.2,0.3-0.3c-0.2-0.4-0.4,0.1-0.6,0
		l0.2-0.2l0-0.1c0.1,0,0.5,0.1,0.5-0.2c0.2,0.3,0.4-0.1,0.5-0.2C24.9,13.2,24.9,13.1,25.1,13.1 M23.2,14.3c-0.1-0.1-0.1-0.2,0.1-0.3
		C23.3,14.1,23.2,14.2,23.2,14.3 M18.6,15.9c-0.3,0-0.6,0-0.8,0.2l-0.1-0.1c0-0.3,0.6-0.2,0.9-0.3V15.9 M16.9,17.5
		c-0.1,0.1-0.2,0.1-0.3,0.1C16.7,17.5,16.8,17.4,16.9,17.5 M13.7,17.9c-0.1,0-0.3,0-0.4-0.1c0.1-0.1,0.3,0,0.4-0.1V17.9"/>
	<path class="st0" d="M12.6,11.7c-0.4,1.3-1.6,0.9-2.5,1.5c0,0.1-0.3,0.1-0.6,0.2l-0.3,0.1c-1.1,0.1-1.7,0.8-2.6,1.3
		c0,0.4-0.5,0.2-0.8,0.4c-0.1,0.3-0.7,0.2-0.6,0.6c-0.4,0.3-1,0.6-1.2,1.1c0.5,0.4,1.2,0.3,1.8,0.5c1.9,0.2,3.5,0,5.3-0.1
		c0.5-0.1,1-0.3,1.6-0.3v0.1c0.4,0.1,0.7-0.3,1.1-0.2c0.3-0.3,0.9,0,1.2-0.4c0.6-0.2,1.3-0.1,1.8-0.3v0.1c-0.2-0.1-0.1,0.2-0.2,0.2
		c0.1,0.1,0.3,0,0.4,0.1c0.6-0.7,1.1,0.2,1.7-0.6c0.2-0.3,0.6-0.5,1-0.6l0.1,0.2c0.2-0.6,0.8-0.3,1.2-0.6c-0.2,0-0.3,0.4-0.6,0.3
		c0.2,0.4-0.4,0.5-0.5,0.7c-0.1,0-0.5,0-0.4-0.2c-0.2,0.2-0.1,0.7-0.5,0.5c-0.4,0.1-0.9,0.2-1.3,0.5c-0.5,0.1-1.1,0.3-1.6,0.2
		c-0.4,0.2-0.9,0.2-1.3,0.3c-0.6,0.2-1.5,0.1-2,0.5c-0.2,0-0.1,0.2-0.3,0.2c0.2,0,0.1,0.5,0.4,0.3c-0.1,0-0.2,0.2-0.3,0
		c-0.2,0.1-0.5,0.4-0.8,0.1c-0.4,0.2-0.9,0.1-1.3,0.1v-0.1c0.3,0.3,0.2-0.2,0.5-0.3v-0.2c-0.7,0.3-1.5,0.2-2.3,0.5
		c0.2,0.5-0.4,0.1-0.6,0.3c0-0.1,0.1-0.1,0.1-0.2c-1-0.3-1.5,0.3-2.5,0.1l-0.1,0.2c-0.5-0.3-1.1,0.3-1.6,0c-0.5-0.1-1.2-0.2-1.4-0.8
		C2.1,18.2,2.1,18,2,17.9c0.1-0.5-0.8-0.7-0.4-1.3c-0.3-0.3,0.1-0.7,0.1-1c0.1-0.1,0.1-0.2,0.1-0.2l0.1,0.1c0.2-0.2,0.3-0.5,0.3-0.7
		L3,14c0,0,0,0.1,0,0.1c0.1,0,0.2-0.1,0.2-0.2c-0.1-0.3,0.1-0.3,0.3-0.5c0.1,0,0.3,0.1,0.4-0.1c-0.2-0.4,0.5,0,0.5-0.4
		c0.5,0,0.6-0.6,1.2-0.5c0.7-0.7,1.7-0.8,2.5-1.3C9.4,10.7,11.8,9.7,12.6,11.7 M11.2,17.9H11l0.2,0.1V17.9z M10.7,18.4h0.2
		c0.1-0.1,0.1-0.2,0.2-0.2C10.9,18.2,10.8,18.3,10.7,18.4z"/>
	<path class="st0" d="M7.7,18.7c0,0.1-0.1,0.1-0.2,0.1v-0.1C7.6,18.6,7.7,18.6,7.7,18.7 M22.8,14.3c-0.1,0.1-0.2,0.3-0.3,0.1h-0.1
		C22.5,14.3,22.6,14.2,22.8,14.3"/>
	<path class="st0" d="M13.9,21.9c0.2,1.2-0.3,2.1-1,3L12.6,25l0.1-0.1l-0.1,0c-0.5,0.7-1.1,1.2-1.3,2c-0.1,0-0.2,0-0.2,0.1
		c-0.2-0.5-0.5-1.1-0.2-1.6c-0.1-1.4,0.5-2.5,1.2-3.6c0.4-0.3,0.9-1,1.3-0.6L13.9,21.9 M11.2,31.1c0.2,0.4,0.1,0.7,0,1.2
		c-0.3,0-0.6,0-0.8-0.2l-0.1,0.1c-0.3-0.2-0.6-0.4-0.6-0.8c-0.1-0.5,0.5-0.4,0.6-0.9C10.6,30.6,10.9,30.9,11.2,31.1 M29,25.6v2.2
		c-0.6,0.3-2.8,0.5-3.3,0.5c-3,0-4.1-1.6-4.1-4.5c0-3,1.3-4.5,4.3-4.5c1.2,0,2,0.2,3.1,0.5v2h-0.7l0-0.4c-0.2-1.4-0.8-1.7-2.4-1.7
		c-2.3,0-3,1.7-3,3.8c0,2.3,0.4,4.3,3.1,4.3c1.9,0,2.1-0.5,2.3-2.3L29,25.6 M32.3,24c0-3.2,1-4.5,4.3-4.5c3.3,0,4.3,1.3,4.3,4.5
		c0,3.2-0.9,4.5-4.3,4.5C33.4,28.5,32.3,27.1,32.3,24 M33.6,24c0,2.1,0.5,4.1,3,4.1s3-1.9,3-4.1c0-2.1-0.5-4-3-4S33.6,21.9,33.6,24z
		 M51.9,21L51.9,21l-3.1,7.3c-0.1,0.1-0.2,0.1-0.3,0l-3.1-7.1h0V27c0,0.8,0.2,0.9,1,0.9v0.4c-0.4,0-0.9,0-1.3,0c-0.4,0-0.9,0-1.3,0
		v-0.4c0.8,0,1-0.1,1-0.9v-6.1c0-0.8-0.2-0.9-1-0.9v-0.4c0.3,0,0.7,0,1,0c0.3,0,0.7,0,1,0l3.1,7l3-7c0.3,0,0.7,0,1,0
		c0.3,0,0.7,0,1,0V20c-0.8,0-1.1,0-1.1,0.9V27c0,0.8,0.2,0.9,1.1,0.9v0.4c-0.5,0-1.1,0-1.6,0c-0.5,0-1.1,0-1.6,0v-0.4
		c0.9,0,1.1,0,1.1-0.9L51.9,21 M59.8,27c0,0.7,0,0.9,1.2,0.9v0.4c-0.6,0-1.2,0-1.8,0c-0.6,0-1.2,0-1.8,0v-0.4c1.2,0,1.2-0.2,1.2-0.9
		v-6.1c0-0.7,0-0.9-1.2-0.9v-0.4c0.6,0,1.2,0,1.8,0c0.9,0,1.7,0,2.6,0c1.6,0,2.5,0.5,2.5,2.2c0,2.4-1.3,2.6-3.4,2.6h-1.2V27
		 M59.8,23.9h0.6c1.6,0,2.6-0.1,2.6-2c0-1.8-0.6-2-2-2h-1.2V23.9z M71.4,19.6l2.6,6.9c0.1,0.4,0.5,1.4,1.5,1.4v0.4
		c-0.6,0-1.1,0-1.7,0c-0.6,0-1.2,0-1.7,0v-0.5c0,0,1.1,0,1.1-0.5c0-0.3-0.1-0.5-0.2-0.7l-0.8-2.1h-3l-0.8,2.2
		c-0.1,0.2-0.1,0.4-0.1,0.6c0,0.6,0.6,0.6,1,0.6v0.5c-0.5,0-1,0-1.5,0c-0.5,0-1,0-1.5,0v-0.5c0.4-0.1,0.7,0,1-0.4
		c0.2-0.2,0.5-1.1,0.6-1.3l2.7-6.6H71.4 M71.9,23.9l-1.3-3.2l-1.4,3.3H72L71.9,23.9z M81.7,23.4c1.2,0.4,2.2,1,2.2,2.4
		c0,2-1.7,2.6-3.4,2.6c-0.9,0-1.8-0.2-2.7-0.5v-2.3h0.8c0.1,1.2-0.2,2.4,2,2.4c1.1,0,2.1-0.5,2.1-1.8c0-1.4-1.4-1.7-2.4-2.1
		c-1.2-0.4-2.2-0.9-2.2-2.3c0-1.7,1.4-2.4,2.9-2.4c0.9,0,1.7,0.1,2.6,0.5V22h-0.7c-0.1-1,0.1-2.1-1.8-2.1c-1,0-1.8,0.4-1.8,1.5
		c0,0.7,0.4,1.2,1,1.4L81.7,23.4 M91.3,23.2c1.2,0.4,2.2,1,2.2,2.4c0,2-1.7,2.6-3.4,2.6c-0.9,0-1.8-0.2-2.7-0.5v-2.3h0.8
		c0.1,1.2-0.2,2.4,2,2.4c1.1,0,2.1-0.5,2.1-1.8c0-1.4-1.4-1.7-2.4-2.1c-1.2-0.4-2.2-0.9-2.2-2.3c0-1.7,1.4-2.4,2.9-2.4
		c0.9,0,1.7,0.1,2.6,0.5v2.1h-0.7c-0.1-1,0.1-2.1-1.8-2.1c-1,0-1.8,0.4-1.8,1.5c0,0.7,0.4,1.2,1,1.4L91.3,23.2 M43.9,34.1
		c0-0.3,0-0.3-0.6-0.3v-0.2c0.4,0,0.6,0,0.8,0c0.2,0,0.5,0,0.6,0v0.2c-0.4,0-0.4,0.1-0.4,0.3v0.5c0,0.1,0,0.1,0,0.2
		C44,34.9,43.5,35,43.1,35c-1.2,0-1.6-0.6-1.6-1.8c0-1.2,0.5-1.8,1.7-1.8c0.5,0,0.8,0.1,1.2,0.2v0.8h-0.3c-0.1-0.7-0.2-0.8-0.9-0.8
		c-1,0-1.2,0.8-1.2,1.6c0,0.9,0.2,1.6,1.2,1.6c0.2,0,0.5,0,0.8-0.2L43.9,34.1 M49.9,34.5c0,0.3,0,0.3,0.5,0.3V35c-0.2,0-0.5,0-0.7,0
		c-0.2,0-0.5,0-0.7,0v-0.2c0.5,0,0.5-0.1,0.5-0.3V32c0-0.3,0-0.3-0.5-0.3v-0.2c0.2,0,0.5,0,0.7,0c0.1,0,0.7,0,0.9,0
		c0.6,0,1.1,0,1.1,0.8c0,0.6-0.3,0.8-0.9,0.9c0.1,0.2,0.7,1.1,0.9,1.3c0.1,0.2,0.2,0.3,0.5,0.3V35c-0.1,0-0.2,0-0.4,0
		c-0.1,0-0.2,0-0.4,0c-0.3-0.5-1-1.6-1.2-1.7c-0.1,0-0.2,0-0.4,0L49.9,34.5 M49.9,33.1c0.1,0,0.2,0,0.2,0c0.5,0,1,0,1-0.7
		c0-0.5-0.2-0.7-0.7-0.7c-0.2,0-0.4,0-0.6,0L49.9,33.1z M56.3,33.2c0-1.3,0.4-1.8,1.7-1.8c1.3,0,1.7,0.5,1.7,1.8
		c0,1.2-0.3,1.8-1.7,1.8C56.8,35,56.3,34.5,56.3,33.2 M56.9,33.2c0,0.8,0.2,1.6,1.2,1.6c1,0,1.2-0.8,1.2-1.6c0-0.8-0.2-1.6-1.2-1.6
		C57,31.6,56.9,32.4,56.9,33.2L56.9,33.2z M65,33.8c0,0.7,0.3,1,1,1c0.7,0,1.1-0.3,1.1-1.1V32c0-0.3,0-0.3-0.5-0.3v-0.2
		c0.2,0,0.4,0,0.6,0c0.2,0,0.4,0,0.6,0v0.2c-0.5,0-0.4,0.1-0.4,0.3v1.7c0,1-0.5,1.2-1.5,1.2c-0.8,0-1.2-0.3-1.2-1.1V32
		c0-0.3,0-0.3-0.5-0.3v-0.2c0.2,0,0.4,0,0.7,0c0.2,0,0.5,0,0.7,0v0.2C65,31.7,65,31.7,65,32L65,33.8 M72.8,34.5c0,0.3,0,0.3,0.5,0.3
		V35c-0.2,0-0.5,0-0.7,0c-0.2,0-0.5,0-0.7,0v-0.2c0.5,0,0.5-0.1,0.5-0.3V32c0-0.3,0-0.3-0.5-0.3v-0.2c0.2,0,0.5,0,0.7,0
		c0.3,0,0.7,0,1,0c0.6,0,1,0.2,1,0.9c0,0.9-0.5,1-1.3,1h-0.5L72.8,34.5 M72.8,33.2h0.2c0.6,0,1,0,1-0.8c0-0.7-0.2-0.8-0.8-0.8h-0.5
		L72.8,33.2L72.8,33.2z"/>
	<path class="st0" d="M21.2,15.6c-0.1,0-0.3,0-0.4-0.1c0.1-0.1,0.3,0,0.4-0.1V15.6 M22.1,14.8c-0.3,0-0.6,0-0.8,0.2L21.2,15
		c0-0.3,0.6-0.2,0.9-0.3V14.8 M23.2,14.7c-0.1,0-0.3,0-0.4-0.1c0.1-0.1,0.3,0,0.4-0.1V14.7 M22.4,15l-0.1-0.3l0.1,0.1L22.4,15"/>
</g>
</svg>
