<?xml version="1.0" encoding="utf-8"?>
<!-- Generator: Adobe Illustrator 26.0.1, SVG Export Plug-In . SVG Version: 6.00 Build 0)  -->
<svg version="1.1" id="Layer_1" xmlns="http://www.w3.org/2000/svg" xmlns:xlink="http://www.w3.org/1999/xlink" x="0px" y="0px"
	 viewBox="0 0 95 35" style="enable-background:new 0 0 95 35;" xml:space="preserve">
<style type="text/css">
	.st0{fill:#CCCCCC;}
</style>
<g>
	<g>
		<path class="st0" d="M25.3,1.4h-2.1V0.2h5.7v1.3h-2.1v5.6h-1.5V1.4z"/>
		<path class="st0" d="M29.3,0.2h1.4v2.6h0c0.3-0.6,0.9-0.8,1.5-0.8C33.6,1.9,34,2.8,34,4v3.1h-1.4V4.3c0-0.8-0.2-1.2-0.9-1.2
			c-0.7,0-1.1,0.4-1.1,1.4v2.6h-1.4V0.2z"/>
		<path class="st0" d="M35.9,4.9c0,0.9,0.5,1.3,1.2,1.3c0.6,0,1-0.3,1.1-0.6h1.2c-0.4,1.2-1.2,1.7-2.3,1.7c-1.6,0-2.6-1.1-2.6-2.6
			c0-1.5,1-2.6,2.6-2.6c1.7,0,2.5,1.4,2.4,3H35.9z M38.1,4C38,3.3,37.7,3,37,3c-0.9,0-1.1,0.7-1.1,1.1H38.1z"/>
		<path class="st0" d="M47.2,2.5c-0.1-0.7-0.8-1.2-1.5-1.2c-1.4,0-1.9,1.2-1.9,2.4c0,1.2,0.5,2.3,1.9,2.3c0.9,0,1.5-0.6,1.6-1.5h1.5
			c-0.2,1.7-1.3,2.8-3,2.8c-2.1,0-3.4-1.6-3.4-3.6c0-2.1,1.3-3.7,3.4-3.7c1.5,0,2.8,0.9,3,2.5H47.2z"/>
		<path class="st0" d="M50.7,1.3h-1.4V0.2h1.4V1.3z M49.3,2.1h1.4v5h-1.4V2.1z"/>
		<path class="st0" d="M53.3,2.1h1V3h-1v2.5c0,0.5,0.1,0.6,0.6,0.6c0.1,0,0.3,0,0.4,0v1.1c-0.2,0-0.5,0-0.8,0
			c-0.8,0-1.6-0.2-1.6-1.2V3h-0.8V2.1h0.8V0.6h1.4V2.1z"/>
		<path class="st0" d="M57.1,7.7c-0.3,0.8-0.8,1.1-1.7,1.1c-0.3,0-0.6,0-0.8,0V7.7c0.3,0,0.5,0.1,0.8,0c0.5,0,0.6-0.5,0.5-0.9
			l-1.8-4.7h1.5l1.1,3.4h0l1.1-3.4h1.4L57.1,7.7z"/>
		<path class="st0" d="M64.2,1.9c1.6,0,2.6,1,2.6,2.6c0,1.6-1,2.6-2.6,2.6c-1.6,0-2.6-1-2.6-2.6C61.6,3,62.7,1.9,64.2,1.9z
			 M64.2,6.2c0.9,0,1.2-0.8,1.2-1.6c0-0.8-0.3-1.6-1.2-1.6C63.3,3,63,3.8,63,4.6C63,5.4,63.3,6.2,64.2,6.2z"/>
		<path class="st0" d="M67.7,3h-0.8V2.1h0.8V1.7c0-0.9,0.6-1.5,1.7-1.5c0.2,0,0.5,0,0.7,0v1c-0.2,0-0.3,0-0.5,0
			c-0.4,0-0.5,0.2-0.5,0.6v0.3h0.9V3h-0.9v4.1h-1.4V3z"/>
	</g>
	<g>
		<path class="st0" d="M23.8,8.9h1.5v5.6h3.4v1.3h-4.9V8.9z"/>
		<path class="st0" d="M31.5,10.7c1.6,0,2.6,1,2.6,2.6c0,1.6-1,2.6-2.6,2.6c-1.6,0-2.6-1-2.6-2.6C29,11.7,30,10.7,31.5,10.7z
			 M31.5,14.9c0.9,0,1.2-0.8,1.2-1.6c0-0.8-0.3-1.6-1.2-1.6c-0.9,0-1.2,0.8-1.2,1.6C30.3,14.1,30.6,14.9,31.5,14.9z"/>
		<path class="st0" d="M34.7,10.8H36v0.7h0c0.3-0.6,0.9-0.8,1.5-0.8c1.5,0,1.8,0.8,1.8,2.1v3.1h-1.4V13c0-0.8-0.2-1.2-0.9-1.2
			c-0.7,0-1.1,0.4-1.1,1.4v2.6h-1.4V10.8z"/>
		<path class="st0" d="M43.8,15.2L43.8,15.2c-0.3,0.5-0.9,0.8-1.5,0.8c-1.5,0-2.2-1.3-2.2-2.7c0-1.3,0.7-2.6,2.2-2.6
			c0.6,0,1.2,0.3,1.5,0.7h0V8.9h1.4v6.9h-1.3V15.2z M42.6,11.7c-0.9,0-1.2,0.8-1.2,1.6c0,0.8,0.4,1.6,1.2,1.6c0.9,0,1.2-0.8,1.2-1.6
			C43.8,12.5,43.5,11.7,42.6,11.7z"/>
		<path class="st0" d="M48.3,10.7c1.6,0,2.6,1,2.6,2.6c0,1.6-1,2.6-2.6,2.6c-1.6,0-2.6-1-2.6-2.6C45.7,11.7,46.7,10.7,48.3,10.7z
			 M48.3,14.9c0.9,0,1.2-0.8,1.2-1.6c0-0.8-0.3-1.6-1.2-1.6c-0.9,0-1.2,0.8-1.2,1.6C47,14.1,47.3,14.9,48.3,14.9z"/>
		<path class="st0" d="M51.5,10.8h1.3v0.7h0c0.3-0.6,0.9-0.8,1.5-0.8c1.5,0,1.8,0.8,1.8,2.1v3.1h-1.4V13c0-0.8-0.2-1.2-0.9-1.2
			c-0.7,0-1.1,0.4-1.1,1.4v2.6h-1.4V10.8z"/>
	</g>
	<g>
		<path class="st0" d="M23.8,17.6h1.5v6.9h-1.5V17.6z"/>
		<path class="st0" d="M26.2,19.5h1.3v0.7h0c0.3-0.6,0.9-0.8,1.5-0.8c1.5,0,1.8,0.8,1.8,2.1v3.1h-1.4v-2.8c0-0.8-0.2-1.2-0.9-1.2
			c-0.7,0-1.1,0.4-1.1,1.4v2.6h-1.4V19.5z"/>
		<path class="st0" d="M34.4,24.5h-1.5l-1.7-5h1.4l1.1,3.4h0l1.1-3.4h1.4L34.4,24.5z"/>
		<path class="st0" d="M37.6,22.3c0,0.9,0.5,1.3,1.2,1.3c0.6,0,1-0.3,1.1-0.6h1.2c-0.4,1.2-1.2,1.7-2.3,1.7c-1.6,0-2.6-1.1-2.6-2.6
			c0-1.5,1-2.6,2.6-2.6c1.7,0,2.5,1.4,2.4,3H37.6z M39.8,21.5c-0.1-0.7-0.4-1.1-1.1-1.1c-0.9,0-1.1,0.7-1.1,1.1H39.8z"/>
		<path class="st0" d="M42.8,22.9c0,0.6,0.5,0.8,1.1,0.8c0.4,0,0.9-0.2,0.9-0.6c0-0.4-0.6-0.6-1.6-0.8c-0.8-0.2-1.6-0.5-1.6-1.3
			c0-1.3,1.1-1.6,2.2-1.6c1.1,0,2.1,0.4,2.2,1.6h-1.3c0-0.5-0.4-0.7-0.9-0.7c-0.3,0-0.8,0.1-0.8,0.5c0,0.5,0.8,0.6,1.6,0.7
			c0.8,0.2,1.6,0.5,1.6,1.4c0,1.3-1.1,1.7-2.3,1.7c-1.2,0-2.3-0.4-2.4-1.8H42.8z"/>
		<path class="st0" d="M48.4,19.5h1v0.9h-1v2.5c0,0.5,0.1,0.6,0.6,0.6c0.1,0,0.3,0,0.4,0v1.1c-0.2,0-0.5,0-0.8,0
			c-0.8,0-1.6-0.2-1.6-1.2v-3h-0.8v-0.9H47V18h1.4V19.5z"/>
		<path class="st0" d="M49.8,19.5h1.3v0.7h0c0.4-0.5,0.9-0.8,1.5-0.8c0.6,0,1.2,0.2,1.5,0.8c0.3-0.4,0.8-0.8,1.5-0.8
			c1.1,0,1.8,0.5,1.8,1.8v3.4h-1.4v-2.8c0-0.7-0.1-1.2-0.8-1.2c-0.8,0-0.9,0.6-0.9,1.3v2.8h-1.4v-2.8c0-0.6,0-1.3-0.8-1.3
			c-0.3,0-0.9,0.2-0.9,1.2v2.9h-1.4V19.5z"/>
		<path class="st0" d="M59.4,22.3c0,0.9,0.5,1.3,1.2,1.3c0.6,0,1-0.3,1.1-0.6h1.2c-0.4,1.2-1.2,1.7-2.3,1.7C59,24.7,58,23.6,58,22
			c0-1.5,1-2.6,2.6-2.6c1.7,0,2.5,1.4,2.4,3H59.4z M61.6,21.5c-0.1-0.7-0.4-1.1-1.1-1.1c-0.9,0-1.1,0.7-1.1,1.1H61.6z"/>
		<path class="st0" d="M63.5,19.5h1.3v0.7h0c0.3-0.6,1-0.8,1.5-0.8c1.5,0,1.8,0.8,1.8,2.1v3.1h-1.4v-2.8c0-0.8-0.2-1.2-0.9-1.2
			c-0.7,0-1.1,0.4-1.1,1.4v2.6h-1.4V19.5z"/>
		<path class="st0" d="M70.7,19.5h1v0.9h-1v2.5c0,0.5,0.1,0.6,0.6,0.6c0.1,0,0.3,0,0.4,0v1.1c-0.2,0-0.5,0-0.8,0
			c-0.8,0-1.6-0.2-1.6-1.2v-3h-0.8v-0.9h0.8V18h1.4V19.5z"/>
	</g>
	<g>
		<path class="st0" d="M25.3,27.6h-2.1v-1.3h5.7v1.3h-2.1v5.6h-1.5V27.6z"/>
		<path class="st0" d="M28.4,28.2h1.3v0.9h0c0.3-0.6,0.9-1.1,1.6-1.1c0.1,0,0.2,0,0.3,0v1.3c-0.1,0-0.3,0-0.5,0
			c-1,0-1.4,0.7-1.4,1.6v2.3h-1.4V28.2z"/>
		<path class="st0" d="M36.6,33.2h-1.3v-0.7h0c-0.3,0.6-0.9,0.8-1.5,0.8c-1.5,0-1.8-0.8-1.8-2.1v-3.1h1.4v2.8c0,0.8,0.2,1.2,0.9,1.2
			c0.7,0,1.1-0.4,1.1-1.4v-2.6h1.4V33.2z"/>
		<path class="st0" d="M38.4,31.6c0,0.6,0.5,0.8,1.1,0.8c0.4,0,0.9-0.2,0.9-0.6c0-0.4-0.6-0.6-1.6-0.8c-0.8-0.2-1.6-0.5-1.6-1.3
			c0-1.3,1.1-1.6,2.2-1.6c1.1,0,2.1,0.4,2.2,1.6h-1.3c0-0.5-0.4-0.7-0.9-0.7c-0.3,0-0.8,0.1-0.8,0.5c0,0.5,0.8,0.6,1.6,0.7
			c0.8,0.2,1.6,0.5,1.6,1.4c0,1.3-1.1,1.7-2.3,1.7c-1.2,0-2.3-0.4-2.4-1.8H38.4z"/>
		<path class="st0" d="M44,28.2h1v0.9h-1v2.5c0,0.5,0.1,0.6,0.6,0.6c0.1,0,0.3,0,0.4,0v1.1c-0.2,0-0.5,0-0.8,0
			c-0.8,0-1.6-0.2-1.6-1.2v-3h-0.8v-0.9h0.8v-1.5H44V28.2z"/>
		<path class="st0" d="M47.8,28.2h1.3v0.6h0c0.3-0.5,0.9-0.8,1.5-0.8c1.6,0,2.3,1.3,2.3,2.7c0,1.3-0.7,2.6-2.2,2.6
			c-0.6,0-1.2-0.3-1.5-0.8h0V35h-1.4V28.2z M51.5,30.7c0-0.8-0.3-1.6-1.2-1.6c-0.9,0-1.2,0.8-1.2,1.6c0,0.8,0.3,1.6,1.2,1.6
			C51.2,32.3,51.5,31.6,51.5,30.7z"/>
		<path class="st0" d="M53.5,26.3h1.4v6.9h-1.4V26.3z"/>
		<path class="st0" d="M59,30c-0.1-0.6-0.4-0.9-1-0.9c-0.9,0-1.2,0.9-1.2,1.6c0,0.7,0.3,1.6,1.1,1.6c0.6,0,1-0.4,1.1-1h1.3
			c-0.2,1.3-1.1,2.1-2.4,2.1c-1.5,0-2.5-1.1-2.5-2.6c0-1.6,0.9-2.7,2.6-2.7c1.2,0,2.3,0.6,2.4,1.9H59z"/>
	</g>
</g>
</svg>
