<?xml version="1.0" encoding="utf-8"?>
<!-- Generator: Adobe Illustrator 26.0.1, SVG Export Plug-In . SVG Version: 6.00 Build 0)  -->
<svg version="1.1" id="Layer_1" xmlns="http://www.w3.org/2000/svg" xmlns:xlink="http://www.w3.org/1999/xlink" x="0px" y="0px"
	 viewBox="0 0 95 35" style="enable-background:new 0 0 95 35;" xml:space="preserve">
<style type="text/css">
	.st0{fill:#104076;}
	.st1{fill:#CCCCCC;}
</style>
<path class="st0" d="M-39.1,613.7"/>
<g transform="translate(-84.754761 -175.305178)">
	<path class="st1" d="M148.8,201.7h-10.3c-6.2,0-9.8-1.9-8.4-8.8c1.7-8,6.7-9,13.6-9h5.5l1.1-5.6h-8.7c-5.9,0-10.2,1.4-13.2,3.5
		c-3.2,2.3-6,6.2-7,11.3c-1.1,5.3,0.4,9.5,3.5,11.8c2.5,1.9,6.1,2.4,10,2.4h12.7"/>
	<path class="st1" d="M178.2,201.7h-10.3c-6.2,0-9.8-1.9-8.4-8.8c1.7-8,6.7-9,13.6-9h5.5l1.2-5.6H171c-5.9,0-10.2,1.4-13.2,3.5
		c-3.2,2.3-5.9,6.2-7,11.3c-1.1,5.3,0.4,9.5,3.5,11.8c2.5,1.9,6.1,2.4,10,2.4h12.7"/>
	<path class="st1" d="M114.7,180.7c-2.5-1.9-6.1-2.4-10-2.4h-20l0,1.4l7.1,4.2l9.2,0c6.2,0,9.8,1.9,8.4,8.8c-1.7,7.9-6.7,9-13.3,9
		l2.9-13.7h-8l-4.1,19.3l0,0l0,0H98c5.9,0,10.2-1.4,13.2-3.5c3.2-2.3,6-6.2,7-11.3C119.3,187.3,117.8,183.1,114.7,180.7"/>
</g>
</svg>
