<?xml version="1.0" encoding="utf-8"?>
<!-- Generator: Adobe Illustrator 26.0.1, SVG Export Plug-In . SVG Version: 6.00 Build 0)  -->
<svg version="1.1" id="Layer_1" xmlns="http://www.w3.org/2000/svg" xmlns:xlink="http://www.w3.org/1999/xlink" x="0px" y="0px"
	 viewBox="0 0 95 35" style="enable-background:new 0 0 95 35;" xml:space="preserve">
<style type="text/css">
	.st0{fill:#104076;}
	.st1{fill:#CCCCCC;}
</style>
<path class="st0" d="M-39.1,613.7"/>
<g>
	<g>
		<g>
			<g>
				<path class="st1" d="M77.5,10.3c-2,2-3,4.4-3,7.2c0,5.7,4.6,10.2,10.2,10.2c5.7,0,10.2-4.5,10.2-10.2c0-2.8-1-5.2-3-7.2
					c-2-2-4.4-3-7.2-3C82,7.3,79.5,8.3,77.5,10.3 M65.7,18.2h6.9v-3.1h-6.9v-4.3h7.5V7.7H62.5v19.7h10.8v-3.1h-7.5L65.7,18.2
					L65.7,18.2z M18.3,7.7v19.7h3.2V7.7H18.3z M4.2,27.4c3.6,0,6.4-0.8,8.3-2.5c2.1-1.9,3.2-4.4,3.2-7.3c0-3.1-1.1-5.6-3.3-7.5
					c-1.9-1.6-4.6-2.4-8.2-2.4H0v19.7H4.2z M36.1,23.1l1.8,4.3h3.6L33.1,7.6h-1.6l-8.6,19.8h3.6l1.9-4.4c0-0.1,0.1-0.2,0.1-0.3
					c0.1,0,0.2,0.1,0.3,0.1c1.1,0.4,2.3,0.6,3.6,0.6c1.2,0,2.4-0.2,3.1-0.5c0.4-0.1,0.5-0.2,0.6-0.2C36,22.8,36.1,23,36.1,23.1z
					 M56.9,13.7l2.5-2.1c-2.1-2.8-5-4.2-8.3-4.2c-5.7,0-10.3,4.5-10.3,10.2c0,5.6,4.6,10.1,10.1,10.1c1.4,0,2.7-0.3,4-0.9
					c1.3-0.6,2.4-1.4,3.3-2.4c0.9-1,1.4-2.1,1.7-3.3c0.3-1,0.4-2.2,0.3-3.7l0-0.6h-8.9V20h5.5c-0.1,1.2-0.8,2.3-1.9,3.2
					c-1.2,1-2.6,1.4-4.1,1.4c-1.8,0-3.4-0.7-4.8-2.2c-1.3-1.3-2-2.9-2-4.8c0-2,0.7-3.7,2.1-5.1c1.3-1.4,3-2,4.8-2
					C53.5,10.4,55.4,11.5,56.9,13.7z M89.7,12.5c1.4,1.3,2.1,3,2.1,5c0,2-0.7,3.6-2.1,5c-1.4,1.4-3,2.1-4.9,2.1c-3.9,0-7-3.2-7-7.1
					c0-2,0.7-3.6,2.1-5c1.3-1.4,3-2,4.9-2C86.7,10.4,88.3,11.1,89.7,12.5z M4.3,10.8c2.8,0,4.7,0.6,5.9,1.6c1.5,1.3,2.2,3,2.2,5.1
					c0,2-0.7,3.7-2.1,5c-1.2,1.2-3.2,1.8-6,1.8H3.4V10.8H4.3z M29.5,19.9c0.1-0.1,0.2-0.3,0.2-0.4l2.5-6l2.4,6.1
					c0,0.1,0.1,0.3,0.2,0.4L34.5,20c-0.7,0.2-1.5,0.3-2.3,0.3c-0.8,0-1.5-0.1-2.3-0.3C29.8,20,29.6,19.9,29.5,19.9z"/>
			</g>
		</g>
	</g>
</g>
</svg>
