<?xml version="1.0" encoding="utf-8"?>
<!-- Generator: Adobe Illustrator 26.0.1, SVG Export Plug-In . SVG Version: 6.00 Build 0)  -->
<svg version="1.1" id="Layer_1" xmlns="http://www.w3.org/2000/svg" xmlns:xlink="http://www.w3.org/1999/xlink" x="0px" y="0px"
	 viewBox="0 0 95 35" style="enable-background:new 0 0 95 35;" xml:space="preserve">
<style type="text/css">
	.st0{fill:#FFFFFF;}
</style>
<path class="st0" d="M30.8,10.6V9.4h0.9v1.2H30.8L30.8,10.6z M30.8,7.5V5.8c0.2,0.1,0.3,0.3,0.3,0.5v1.2H30.8z M21.5,8.3L21.5,8.3
	c1.4,0,1.1-1,1.1-3.1c0-2,0.3-3-1.1-3V0h1.3c1.8,0,3,1.2,3,1.8l0,6.9c0,1-1.1,1.8-2.8,1.8h-1.5V8.3L21.5,8.3z M30.8,5.8v1.7l-0.8,0
	c0-0.8-0.2-0.8-0.5-0.8c-0.3,0-0.5,0.2-0.5,0.8v1.9h0.4v1.1H27V9.4h0.3V6.9H27V5.7h2v0.6c0.1-0.2,0.6-0.7,1.3-0.7
	C30.3,5.6,30.6,5.6,30.8,5.8L30.8,5.8z M30.8,9.4h-0.3v1.2h0.3V9.4z M20.3,8.3l1.2,0v2.3h-5.2V8.4h0.3c0.3,0,0.4-0.2,0.4-0.4V2.5
	c0-0.3-0.2-0.4-0.5-0.4l-0.3,0V0h5.2v2.2c0,0,0,0,0,0h-1.1V8.3z"/>
<path class="st0" d="M59.8,21.3c-1,5.4-6,9.5-11.9,9.5c-4.4,0-8.2-2.2-10.3-5.6c1.9,1.5,5.4,5.6,12.7,4.4c-2.8-0.7-6.3-1.1-9.8-4.6
	C48.7,25.2,54.6,23.3,59.8,21.3z"/>
<path class="st0" d="M51.2,10.2V9.4c0.1,0,0.3,0,0.4,0C51.7,9.2,51.8,9,52,8.8c-0.1-0.1-0.1-0.1-0.2-0.2c-0.2,0.1-0.4,0.3-0.6,0.4
	V8.2c0.3-0.2,0.7-0.5,1-0.7c0-0.1,0-0.3,0-0.5C52.1,7.1,52,7,51.9,7c0-0.2,0-0.3,0-0.5c0.5,0,1,0,1.4,0c-0.1,0.7-0.3,1.5-0.4,2.3
	C53,9,53.1,9.2,53.2,9.3c-0.2,0.4-0.4,0.8-0.5,1.2c-0.2-0.2-0.4-0.4-0.6-0.6C51.8,10,51.5,10.1,51.2,10.2L51.2,10.2z M51.2,5.3V4.2
	c0.3,0,0.6,0,0.9,0c0,0.1,0,0.3,0,0.5c-0.2,0.1-0.4,0.2-0.6,0.4C51.4,5.2,51.3,5.3,51.2,5.3L51.2,5.3z M54.5,6.3
	c0.4,0.1,0.9,0.3,1.3,0.5c0,0.2-0.1,0.4-0.1,0.6c-0.1,0.5-0.2,1-0.3,1.4c0.2,0,0.5,0.1,0.7,0.1c-0.3,0.3-0.7,0.6-1,0.9
	c-0.2,0-0.5,0-0.7,0c0.1-0.8,0.2-1.7,0.3-2.5c-0.2-0.1-0.3-0.3-0.5-0.5C54.3,6.6,54.4,6.4,54.5,6.3L54.5,6.3z M55.1,4.3
	c0.2,0,0.4-0.1,0.6-0.1c0.1,0,0.1,0,0.1,0.1c0,0.2,0.1,0.3,0.1,0.5c0,0.1,0,0.1-0.1,0.1c-0.2,0-0.4,0.1-0.6,0.1
	c-0.1,0-0.1,0-0.1-0.1c0-0.2-0.1-0.3-0.1-0.5C55,4.4,55.1,4.3,55.1,4.3L55.1,4.3z M57,6.3c0.4,0,0.9,0,1.3,0c0.3,0.2,0.7,0.3,1,0.5
	c0,0.2-0.1,0.5-0.1,0.7c-0.2,0-0.3,0-0.5,0c-0.1-0.1-0.2-0.3-0.3-0.4c-0.1,0-0.3,0.1-0.4,0.1C58,7.6,57.9,8,57.8,8.5
	c0.1,0.2,0.3,0.4,0.4,0.6c-0.2,0.2-0.4,0.4-0.6,0.6C57.3,9.4,57,9.2,56.7,9c0.1-0.7,0.3-1.4,0.4-2.1C57.1,6.7,57.1,6.5,57,6.3z
	 M37.4,6.7c0.2-0.4,0.4-0.8,0.7-1.2c0.2,0,0.3,0,0.5,0c0,1.6,0,3.2,0,4.7c0.3,0.2,0.5,0.4,0.8,0.7c-0.4,0.3-0.9,0.6-1.3,0.9
	c-0.2-0.5-0.4-1-0.5-1.5c-0.1,0-0.1,0-0.2,0v-1c0.1,0,0.2,0,0.3,0.1c-0.1-0.4-0.1-0.7-0.2-1.1c0,0.1-0.1,0.2-0.1,0.3V6.7L37.4,6.7z
	 M51.2,4.2v1.1c-0.1,0.1-0.2,0.1-0.3,0.2c-0.4,1.1-0.9,2.2-1.3,3.3c-0.4,0.3-0.7,0.7-1.1,1c-0.1-0.5-0.2-0.9-0.3-1.4
	c-0.2,0.2-0.5,0.4-0.7,0.5c0,0.2,0,0.4,0,0.5c-0.1,0.1-0.3,0.1-0.4,0.2c-0.3-0.4-0.6-0.7-0.9-1.1c0-0.9-0.1-1.8-0.1-2.8
	c-0.1-0.3-0.3-0.6-0.5-0.9c0.4-0.3,0.8-0.7,1.2-1C46.8,5,46.9,6,47,7.1c0.1,0,0.2,0,0.3,0c0.2-0.2,0.3-0.4,0.5-0.7
	c-0.1-0.2-0.1-0.5-0.2-0.7c0.4-0.3,0.9-0.6,1.3-0.8C48.9,5.7,49,6.5,49,7.3c0.1,0.1,0.1,0.1,0.2,0.2c0.6-1.1,1.2-2.2,1.7-3.3
	C51,4.2,51.1,4.2,51.2,4.2L51.2,4.2z M51.2,8.2c-0.3,0.2-0.6,0.4-0.9,0.7c0.1,0.2,0.1,0.5,0.2,0.7c0.2,0.2,0.5,0.4,0.7,0.6
	c0,0,0,0,0,0V9.4c-0.1,0-0.1,0-0.2,0c0-0.1,0.1-0.2,0.1-0.3c0,0,0.1,0,0.1-0.1V8.2L51.2,8.2z M40.2,7c0.4,0.1,0.9,0.3,1.3,0.5
	c0,0.2-0.1,0.4-0.1,0.6c-0.1,0.5-0.2,1-0.3,1.4c0.2,0,0.5,0.1,0.7,0.1c-0.3,0.3-0.7,0.6-1,0.9c-0.3,0-0.5,0-0.7,0
	c0.1-0.8,0.2-1.7,0.3-2.5c-0.1-0.1-0.3-0.3-0.5-0.5C40.1,7.3,40.1,7.1,40.2,7L40.2,7z M40.9,5c0.2-0.1,0.4-0.1,0.6-0.1
	c0.1,0,0.1,0,0.2,0.1c0,0.2,0.1,0.3,0.1,0.5c0,0.1,0,0.1-0.1,0.1c-0.2,0.1-0.4,0.1-0.6,0.1c-0.1,0-0.1,0-0.1-0.1
	c0-0.2-0.1-0.3-0.1-0.5C40.7,5.1,40.8,5,40.9,5L40.9,5z M42.9,7c0.4,0,0.9,0,1.3,0c0.3,0.2,0.7,0.3,1,0.5c0,0.2-0.1,0.5-0.1,0.7
	c-0.1,0-0.3,0-0.5,0c-0.1-0.1-0.2-0.2-0.3-0.4c-0.1,0-0.3,0.1-0.4,0.1c-0.1,0.4-0.2,0.8-0.3,1.2c0.1,0.2,0.3,0.4,0.4,0.6
	c-0.2,0.2-0.4,0.4-0.6,0.6c-0.3-0.2-0.6-0.4-0.9-0.7C42.8,9,42.9,8.3,43,7.6C43,7.4,43,7.2,42.9,7z M35,10.9
	c0.1-0.1,0.1-0.3,0.2-0.4c0.2,0,0.4,0.1,0.6,0.1c0.3-0.7,0.6-1.4,0.9-2.1c0.2-0.6,0.4-1.2,0.7-1.8v1.7c-0.1,0.2-0.2,0.4-0.4,0.7
	c0.1,0,0.2,0,0.4,0.1v1c-0.2,0-0.5,0-0.7,0c-0.2,0.5-0.4,1.1-0.5,1.6C35.7,11.6,35.4,11.3,35,10.9z"/>
<g>
	<path class="st0" d="M76.5,13.5l2.2-1.5c0.3-0.3,0.4-0.5,0.5-0.8L76.5,13V13.5L76.5,13.5z M76.5,12.5V12l2.5-1.7
		c0.1,0.1,0.1,0.3,0.2,0.4L76.5,12.5L76.5,12.5z M76.5,11.6v-0.5l2-1.4l0.2,0.3L76.5,11.6L76.5,11.6z M76.5,10.6l1.8-1.3l-0.8-1.2
		c-0.3-0.3-0.6-0.4-1-0.4V10.6z M74.3,15l2.2-1.5V13l-2.2,1.5V15L74.3,15z M76.5,7.8v2.8L76,10.9l-0.3-0.5c-0.2-0.2-0.5-0.2-0.8,0
		l-0.6,0.4V9.1l1.3-0.9C75.9,7.9,76.2,7.8,76.5,7.8L76.5,7.8z M76.5,11.1v0.5l-2.2,1.5v-0.5l0.8-0.6c0.1,0.1,0.2,0.1,0.4,0.1
		l0.6-0.4c0.1-0.1,0.2-0.3,0.2-0.4L76.5,11.1L76.5,11.1z M76.5,12v0.5L74.3,14v-0.5L76.5,12L76.5,12z M74.3,12.1l0.5-0.3
		c-0.1-0.1-0.1-0.1-0.1-0.1l-0.3,0.2V12.1L74.3,12.1z M74.3,8.1C74.3,8.1,74.3,8.1,74.3,8.1l1.9-1.3l-1.3-1.9l-0.6,0.4V8.1z
		 M73.8,14.9l0.2,0.3l0.2-0.2v-0.5L73.8,14.9L73.8,14.9z M74.3,5.3v2.8C74,8,73.8,7.7,73.6,7.8l-0.7,0.5c-0.1,0.2-0.2,0.3,0,0.5
		l0.4,0.5c0.2,0.2,0.5,0.1,0.8-0.1l0.2-0.2v1.8L73,11.7c-0.6,0.3-1,0.4-1.7-0.3L70,9.7c-0.1-0.2-0.2-0.4-0.2-0.6V9
		c0-0.3,0.1-0.5,0.4-0.8L74.3,5.3L74.3,5.3z M74.3,11.9l-1.7,1.2l0.1,0.2l1.6-1.1V11.9L74.3,11.9z M74.3,12.6v0.5l-1.1,0.8l-0.2-0.3
		L74.3,12.6L74.3,12.6z M74.3,13.6V14l-0.7,0.5l-0.2-0.3L74.3,13.6z"/>
	<path class="st0" d="M34.1,22.3c-0.2,0.2-0.3,0.3-0.5,0.4c-0.1,0-0.1,0.1-0.2,0.1v-0.5H34.1L34.1,22.3z M33.4,21.9v-0.4h4v0.4H33.4
		L33.4,21.9z M33.4,21.1v-0.4h4v0.4H33.4L33.4,21.1z M33.4,20.3v-0.2c0.3,0,0.6-0.2,0.8-0.5c0.2-0.3,0.3-0.7,0.3-1.1
		c0-0.5-0.1-0.9-0.3-1.1c-0.2-0.3-0.5-0.4-0.8-0.4v-2.2c0,0,0.1,0,0.1,0c0.3,0.1,0.7,0.4,1,0.8v-0.8h0.1h2.3v4.6
		c0,0.6,0.3,0.6,0.6,0.6v0.2H33.4L33.4,20.3z M37.4,22.3v0.4h-0.1h-2.9v-0.4H37.4z M33.4,22.8c-0.3,0.1-0.6,0.2-0.9,0.2l-0.1,0
		c-0.7,0-1.3-0.2-1.8-0.7h2.9V22.8L33.4,22.8z M33.4,14.8v2.2h0c-0.4,0-0.6,0.2-0.8,0.5c-0.2,0.3-0.3,0.6-0.3,1c0,0,0,0.1,0,0.1
		c0,0,0,0.1,0,0.1c0,0.4,0.1,0.8,0.3,1.1c0.2,0.3,0.5,0.5,0.9,0.5h0v0.2h-3.9c-0.1-0.5-0.2-1-0.2-1.5c0-0.1,0-0.3,0-0.4
		c0-0.1,0-0.3,0-0.4c0.1-0.8,0.4-1.6,0.9-2.3c0.5-0.7,1.2-1,2.1-1h0.1C32.8,14.6,33.1,14.7,33.4,14.8L33.4,14.8z M33.4,20.7v0.4
		h-3.7c-0.1-0.1-0.1-0.3-0.2-0.4H33.4L33.4,20.7z M33.4,21.5v0.4h-3.2c0-0.1-0.1-0.1-0.1-0.2c0-0.1-0.1-0.1-0.1-0.2H33.4z"/>
	<path class="st0" d="M59.6,21.3v-0.5l0.8-0.2c0,0,0,0,0,0C60.1,20.9,59.9,21.1,59.6,21.3L59.6,21.3z M59.6,20.4V20l1.3-0.4
		c0,0.2-0.1,0.3-0.2,0.5L59.6,20.4L59.6,20.4z M59.6,19.6v-0.4l1.4-0.4c0,0.1,0,0.3,0,0.4L59.6,19.6L59.6,19.6z M59.6,18.8v-0.9
		l1.1-0.3l0.2,0.6c0,0.1,0,0.1,0.1,0.2L59.6,18.8L59.6,18.8z M59.6,17v-3.1c0.2,0.3,0.3,0.5,0.4,0.9l0.5,2L59.6,17z M59.6,13.9V17
		l-1.4,0.4v-4.5c0.1,0,0.1,0,0.2,0.1C58.9,13.1,59.3,13.5,59.6,13.9L59.6,13.9z M59.6,17.9v0.9l-1.1,0.3c0-0.1,0-0.2-0.1-0.3
		l-0.1-0.5L59.6,17.9L59.6,17.9z M59.6,19.2v0.4L58.1,20v0c0.1-0.1,0.2-0.2,0.2-0.3c0,0,0-0.1,0-0.1L59.6,19.2L59.6,19.2z M59.6,20
		v0.4l-1.4,0.4v-0.4L59.6,20L59.6,20z M59.6,20.8v0.5c-0.4,0.2-0.8,0.4-1.3,0.5c-0.1,0-0.1,0-0.1,0v-0.7L59.6,20.8z M56.8,16.1
		l0.9-0.2l-0.1-0.3c-0.1-0.4-0.3-0.7-0.4-0.9c-0.1-0.1-0.2-0.1-0.4-0.1v-1.8c0.5-0.1,1,0,1.4,0.1v4.5l-1.4,0.4V16.1L56.8,16.1z
		 M58.1,19.9L58.1,19.9L58,20C58.1,20,58.1,20,58.1,19.9L58.1,19.9z M58.1,20.4v0.4l-1.4,0.4v-0.4L58.1,20.4L58.1,20.4z M58.1,21.2
		v0.7C57.7,22,57.2,22,56.8,22v-0.4L58.1,21.2L58.1,21.2z M56.8,20.3v-0.4l0.2-0.1c0,0,0.1,0.1,0.1,0.1c0.1,0.1,0.3,0.2,0.5,0.1
		L56.8,20.3L56.8,20.3z M56.8,19.5v-0.1C56.8,19.4,56.8,19.5,56.8,19.5L56.8,19.5z M55.9,16.4l0.8-0.2v1.6l-0.4,0.1l0.3,1.3
		c0,0.1,0,0.1,0.1,0.2v0.1l-2.4,0.7c0-0.1-0.1-0.1-0.1-0.2l-0.9-3.4c-0.1-0.2-0.1-0.5-0.1-0.7v-0.2c0-0.5,0.2-1,0.6-1.5
		c0.5-0.6,1.2-1,2.1-1.2c0.3-0.1,0.6-0.1,0.8-0.2v1.8c-0.1,0-0.2,0-0.4,0c-0.6,0.2-0.7,0.6-0.5,1.4L55.9,16.4L55.9,16.4z M56.8,19.9
		l-2.3,0.6c0.1,0.1,0.1,0.2,0.2,0.4l2.1-0.6V19.9L56.8,19.9z M56.8,20.7v0.4l-1.4,0.4c-0.1-0.1-0.3-0.2-0.4-0.3L56.8,20.7L56.8,20.7
		z M56.8,21.6V22c-0.3,0-0.6-0.1-0.9-0.2L56.8,21.6z"/>
	<path class="st0" d="M49.7,11.7l0.8-0.1l0.2,2.2c0.1,0.3,0.3,0.5,0.6,0.5l0.2,2l-0.5,0.2l-0.2,0.6l0.2,1.8c0.1,0.4,0.4,0.7,1,0.7
		l0,0.3l-2.3,0.2V11.7L49.7,11.7z M49.7,22.5v-0.4l2.5-0.2l0,0.4L49.7,22.5L49.7,22.5z M49.7,21.7v-0.4l2.4-0.2l0,0.4L49.7,21.7
		L49.7,21.7z M49.7,20.9v-0.4l2.3-0.2l0,0.4L49.7,20.9z M47.4,20.3l0-0.3c0.6-0.1,0.8-0.5,0.9-0.9L48,17.4l-0.3-0.6l-0.6-0.1l-0.2-2
		c0.4-0.1,0.5-0.3,0.5-0.6l-0.2-2.2l2.3-0.2v8.5L47.4,20.3L47.4,20.3z M49.7,20.5v0.4l-2.3,0.2l0-0.4L49.7,20.5L49.7,20.5z
		 M49.7,21.3v0.4l-2.2,0.2l0-0.4L49.7,21.3L49.7,21.3z M49.7,22.1v0.4l-2.1,0.2l0-0.4L49.7,22.1z"/>
	<path class="st0" d="M69.9,17.5v-0.4l1.7-0.6l0.1,0.4L69.9,17.5L69.9,17.5z M69.9,16.7l1.5-0.6l-0.1-0.4l-1.4,0.5V16.7L69.9,16.7z
		 M69.9,15.8v-0.4L71,15l0.1,0.4L69.9,15.8L69.9,15.8z M69.9,15v-0.9l0,0c0.2,0.4,0.6,0.5,0.9,0.3l0.1,0.2L69.9,15z M67.4,18
		l0.1,0.4l-2.1,0.8v-0.4L67.4,18L67.4,18z M69.9,14.1V15l-2.2,0.8l-0.1-0.2l-1-2.7c-0.3-0.3-0.5-0.5-0.8-0.4
		c-0.2,0.1-0.3,0.2-0.3,0.4v-2.8c0.1-0.1,0.3-0.2,0.4-0.3c1.3-0.7,2.7,0.2,2.9,1.1l0.7,2l-0.1,0L69.9,14.1L69.9,14.1z M69.9,15.4
		l-2.1,0.8l0.1,0.4l2-0.7V15.4L69.9,15.4z M69.9,16.2v0.4l-1.7,0.6l-0.1-0.4L69.9,16.2L69.9,16.2z M69.9,17.1l-1.5,0.6l0.1,0.4
		l1.4-0.5V17.1L69.9,17.1z M65.5,18.3l1.8-0.7l-0.1-0.4l-1.7,0.6V18.3L65.5,18.3z M65.5,17.4V17l1.4-0.5l0.1,0.4L65.5,17.4
		L65.5,17.4z M65.5,16.6l1.3-0.5l-0.1-0.3c-0.1,0.1-0.4,0-0.5-0.4L65.6,14c-0.1-0.1-0.1-0.3-0.1-0.4V16.6z M65.5,19.1l-1.7,0.6
		l-0.1-0.4l1.8-0.7V19.1L65.5,19.1z M65.5,10.1v2.8c-0.1,0.2-0.1,0.5,0,0.7v3.1L63,17.5l-0.1-0.2c0.6-0.2,0.5-0.6,0.4-1l-0.6-1.7
		L62.3,14h-0.6L61,12.1l3.3-1.2l0.3,0.7C64.6,11.4,64.9,10.6,65.5,10.1L65.5,10.1z M65.5,17l-2.4,0.9l0.1,0.4l2.2-0.8V17L65.5,17z
		 M65.5,17.8l-2.1,0.8l0.1,0.4l2-0.7V17.8z"/>
	<path class="st0" d="M43.1,22.3v0.4h-4.4v-0.4H43.1L43.1,22.3z M43.1,21.5v0.4h-4.4v-0.4H43.1L43.1,21.5z M43.1,20.7v0.4h-4.4v-0.4
		H43.1L43.1,20.7z M42.2,14.6v0.8c0.1-0.2,0.9-1.4,1.9-1.4c1.1,0,1.9,1.3,2,2l0,2.1h-2.1c-0.2-1-0.3-1.6-0.8-1.6
		c-0.5,0-0.7,0.7-0.7,1.3v1.5c0,0.4,0.4,0.7,0.7,0.6v0.3h-4.4v-0.3c0.6,0,0.7-0.4,0.7-0.8v-1.8l-0.2-0.6l-0.5-0.2v-2.1H42.2z"/>
	<path class="st0" d="M28.3,22.3v0.4h-5.2v-0.4H28.3L28.3,22.3z M28.3,21.5v0.4h-5.2v-0.4H28.3L28.3,21.5z M28.3,20.7v0.4h-5.2v-0.4
		H28.3L28.3,20.7z M21,22.3v0.4h-5.2v-0.4H21L21,22.3z M21,21.5v0.4h-5.2v-0.4H21L21,21.5z M21,20.7v0.4h-5.2v-0.4H21L21,20.7z
		 M20,19.4c0.1,0.5,0.2,0.4,0.5,0.7H21v0.2h-5.2v-0.2h0.7c0.6-0.2,0.8-0.6,0.7-1l0-4.2c0-0.5-0.3-0.7-0.7-0.7h-0.7v-2.3h3.8l2.1,3.5
		l1.6-3.5h4.9v2.3h-0.7c-0.5,0.1-0.8,0.4-0.8,0.9v4.3c0,0.5,0.3,0.8,0.8,0.8h0.7v0.2h-5.2v-0.2c0.5-0.1,0.6-0.2,0.7-0.5l0-1.3
		l-1.8,1.6L20,18.1L20,19.4z"/>
</g>
<g>
	<path class="st0" d="M55,31.6c-0.1,0.1-0.2,0.2,0,0.4c0.1,0.2,0.3,0.2,0.4,0.1c0.1,0,0.2-0.2,0-0.4C55.2,31.6,55.1,31.6,55,31.6z"
		/>
	<path class="st0" d="M42.8,33c-0.2,0-0.3,0-0.3,0.2c0,0.2,0.1,0.4,0.2,0.4c0.1,0,0.3-0.2,0.3-0.4C43.1,33,42.8,33,42.8,33z"/>
	<path class="st0" d="M52.3,33.4C52,33.5,52,33.7,52,33.7c0.1,0.2,0.3,0.1,0.5,0.1c0.2-0.1,0.3-0.3,0.2-0.4
		C52.7,33.3,52.5,33.3,52.3,33.4z"/>
	<path class="st0" d="M42.7,32.4c-0.2,0-0.2,0.2-0.2,0.2c0,0.2,0.1,0.2,0.3,0.2c0.2,0,0.3,0,0.3-0.2C43.2,32.4,42.9,32.4,42.7,32.4z
		"/>
	<path class="st0" d="M44.4,33.2c-0.3,0-0.3,0.3-0.3,0.4c0,0.2,0.1,0.3,0.3,0.3c0.2,0,0.3-0.3,0.3-0.4
		C44.7,33.4,44.6,33.2,44.4,33.2z"/>
	<path class="st0" d="M52.3,32.8c0.1-0.1,0.1-0.2,0.1-0.2c0,0-0.1-0.1-0.3,0c-0.2,0.1-0.1,0.2-0.1,0.2C52,32.8,52.2,32.9,52.3,32.8z
		"/>
	<path class="st0" d="M61.8,21.1c-1.6,6.7-7.5,11.7-14.5,11.7c-6.3,0-11.6-4-13.8-9.6l-1.9,0.1C33.3,30,39.7,35,47.3,35
		c8.4,0,15.4-6.2,16.1-14L61.8,21.1z M37.9,31.1c0.2-0.4,0.3-0.4,0.4-0.6l0,0c-0.1,0.1-0.2,0.1-0.5,0.4l-0.1-0.1l0.4-0.8l0.1,0.1
		c-0.2,0.4-0.3,0.5-0.3,0.6c0.1-0.1,0.1-0.1,0.5-0.4l0.1,0.1c-0.2,0.4-0.3,0.5-0.3,0.6c0.1,0,0.1-0.1,0.5-0.4l0.1,0.1L38,31.2
		L37.9,31.1z M38.7,31.7l-0.1-0.1l0.5-0.7l0.1,0.1L38.7,31.7z M39.9,31.7l-0.4,0.6l-0.2-0.1l0.4-0.6l-0.2-0.1l0.1-0.1l0.6,0.4
		l-0.1,0.1L39.9,31.7z M40.8,32.9l-0.2-0.1l0.2-0.3l-0.3-0.2l-0.2,0.3l-0.2-0.1l0.4-0.8l0.2,0.1l-0.1,0.3l0.3,0.1l0.1-0.3l0.2,0.1
		L40.8,32.9z M43.2,33c0,0,0.3,0.3,0.2,0.5c0,0.2-0.3,0.5-0.7,0.5c-0.4,0-0.5-0.2-0.5-0.5c0-0.3,0-1,0.1-1.1
		c0.1-0.1,0.1-0.2,0.4-0.2c0.2,0,0.9,0,0.9,0.4C43.6,32.7,43.4,32.9,43.2,33z M45,33.7c0,0.1-0.1,0.6-0.7,0.6
		c-0.6,0-0.6-0.5-0.6-0.7c0,0,0.1-0.6,0.7-0.6C45,33,45,33.6,45,33.7z M46.2,34.5c0,0-0.1,0.1-0.2,0.1c-0.2-0.1-0.2-0.1-0.2-0.1
		c0,0-0.3,0.1-0.5,0c-0.2-0.1-0.4-0.3-0.1-1.1c0,0,0.1-0.2,0.3-0.1c0.2,0.1,0.1,0.2,0,0.3c0,0.1-0.2,0.7,0,0.7
		c0.3,0.1,0.4-0.3,0.4-0.5c0-0.2,0-0.4,0.2-0.3c0,0,0.2,0,0.1,0.3C46.3,33.9,46.3,34.3,46.2,34.5z M47.7,34.4c0,0.1,0,0.3-0.3,0.1
		c-0.2-0.1-0.1-0.1-0.1-0.3c0-0.1,0.2-0.7-0.1-0.7C47,33.6,47,34,47,34.2c0,0.2,0.1,0.4-0.2,0.4c0,0-0.2,0-0.2-0.2
		c0-0.3,0-0.7,0-0.9c0,0,0-0.2,0.2-0.1c0.2,0,0.2,0.1,0.2,0.1c0,0,0.3-0.1,0.4,0C47.7,33.5,48,33.6,47.7,34.4z M49,34.5
		c-0.1,0.1-0.5,0.3-0.7,0c-0.3-0.2-0.3-0.6-0.1-0.9c0.2-0.3,0.6-0.3,0.8-0.2c0,0,0.2,0.1,0.1,0.2c-0.1,0.1-0.2,0.1-0.2,0
		c0,0-0.3-0.1-0.4,0.1c-0.1,0.2,0,0.3,0.1,0.5c0.1,0.1,0.3,0.1,0.4,0c0,0,0.1-0.1,0.1,0C49.1,34.3,49.1,34.4,49,34.5z M49.5,32.9
		c0.1,0,0.2,0,0.2,0.1c0,0.1-0.1,0.1-0.2,0.1c-0.1,0-0.2,0-0.2-0.1C49.3,33,49.4,32.9,49.5,32.9z M49.7,34.5c-0.1,0-0.3,0-0.3-0.2
		c0-0.2-0.1-0.7-0.1-0.8c0,0,0-0.2,0.2-0.2c0.2,0,0.2,0.1,0.2,0.2c0,0.2,0.1,0.6,0.1,0.7C49.9,34.4,49.9,34.5,49.7,34.5z M51.2,34.2
		c-0.2,0-0.2-0.1-0.1-0.2c0-0.1,0-0.7-0.3-0.7c-0.2,0-0.2,0.4-0.1,0.6c0.1,0.2,0.2,0.4-0.1,0.4c0,0-0.1,0.1-0.2-0.2
		c-0.1-0.2-0.2-0.7-0.2-0.8c0,0,0-0.2,0.2-0.2c0.2,0,0.2,0,0.2,0c0,0,0.2-0.2,0.4-0.2c0.2,0,0.5,0.1,0.5,0.9
		C51.4,34,51.4,34.2,51.2,34.2z M52.7,34c-0.2,0.1-0.6,0.2-0.8,0c-0.2-0.2-0.2-0.6,0.1-0.9c0,0-0.3-0.1-0.3-0.3
		c0-0.2,0.1-0.5,0.6-0.5c0,0,0.1-0.1,0.2-0.2c0.1-0.1,0.1-0.1,0.2,0c0.1,0.1,0.1,0.1,0,0.1c-0.1,0-0.1,0.1-0.1,0.1s0.2,0.1,0.2,0.3
		c0,0.2-0.2,0.4-0.6,0.5c0,0-0.1,0.1,0.1,0.1c0.1,0,0.5-0.2,0.8,0.1C53.3,33.5,52.9,33.9,52.7,34z M54.4,32.8
		c-0.3,0.1-0.4,0-0.5-0.1l0.2-0.1c0,0,0.1,0.1,0.2,0c0.1,0,0.1-0.1,0.1-0.2c0-0.1-0.1,0-0.2,0l-0.1,0c-0.1,0-0.3,0.1-0.4-0.1
		c0-0.1-0.1-0.3,0.2-0.4c0.2-0.1,0.4,0,0.4,0.1l-0.2,0.1c0,0-0.1-0.1-0.2,0c-0.1,0-0.1,0.1-0.1,0.2c0,0.1,0.1,0,0.1,0l0.2-0.1
		c0.1,0,0.2,0,0.3,0.1C54.7,32.6,54.5,32.8,54.4,32.8z M55.4,32.3c-0.1,0.1-0.4,0.2-0.6-0.2c-0.2-0.3,0-0.5,0.1-0.6
		c0.1-0.1,0.4-0.2,0.6,0.2C55.7,32,55.5,32.2,55.4,32.3z M56.1,31.8l-0.5-0.7l0.1-0.1l0.4,0.6l0.3-0.3l0.1,0.1L56.1,31.8z
		 M56.8,31.3l-0.5-0.7l0.5-0.4l0.1,0.1l-0.4,0.3l0.1,0.1l0.3-0.3l0.1,0.1l-0.3,0.3l0.1,0.2l0.4-0.3l0.1,0.1L56.8,31.3z M57.8,30.4
		c-0.2,0.2-0.4,0.1-0.5,0.1l0.1-0.1c0,0,0.1,0.1,0.2,0c0.1-0.1,0.1-0.1,0-0.2c0,0-0.1,0-0.2,0l-0.1,0.1c-0.1,0.1-0.2,0.2-0.4,0
		c-0.1-0.1-0.2-0.2,0-0.4c0.2-0.2,0.3-0.1,0.4-0.1l-0.1,0.1c0,0-0.1-0.1-0.2,0c0,0-0.1,0.1,0,0.2c0,0,0.1,0,0.1,0l0.2-0.1
		c0.1-0.1,0.2-0.1,0.3,0C58,30.1,57.9,30.3,57.8,30.4z"/>
</g>
</svg>
