<?xml version="1.0" encoding="utf-8"?>
<!-- Generator: Adobe Illustrator 26.0.1, SVG Export Plug-In . SVG Version: 6.00 Build 0)  -->
<svg version="1.1" id="Layer_1" xmlns="http://www.w3.org/2000/svg" xmlns:xlink="http://www.w3.org/1999/xlink" x="0px" y="0px"
	 viewBox="0 0 95 35" style="enable-background:new 0 0 95 35;" xml:space="preserve">
<style type="text/css">
	.st0{fill-rule:evenodd;clip-rule:evenodd;fill:#343741;}
</style>
<g id="layer1" transform="translate(-41.607619,-172.78947)">
	<g id="g1082" transform="translate(0.13229126,-0.13228781)">
		<path id="path540" class="st0" d="M41.5,184.9c3.1,0,3.1,0,3.1,0c1.8,0,3.2,0.3,4.4,1c1.6,0.9,2.4,2.6,2.4,4.6
			c0,1.9-0.8,3.4-2.1,4.4c-1.1,0.9-2.7,1.3-4.9,1.3c-2.9,0-2.9,0-2.9,0V184.9z M44.5,194.5c1.6,0,2.6-0.3,3.4-0.8
			c0.8-0.6,1.5-1.8,1.5-3.1c0-1.5-0.6-2.5-1.6-3.1c-0.9-0.6-2.1-0.7-3.3-0.7c-1,0-1,0-1,0c0,7.7,0,7.7,0,7.7h1V194.5z"/>
		<path id="path542" class="st0" d="M52.4,196.1h2V185h-2V196.1z"/>
		<path id="path544" class="st0" d="M56.3,184.9c3.2,0,3.2,0,3.2,0c1.1,0,2.4,0.1,3.3,0.6c0.9,0.5,1.7,1.5,1.7,2.9
			c0,1.3-0.6,2.3-1.6,2.8s-2.1,0.7-3.6,0.7c-1,0-1,0-1,0c0,4.2,0,4.2,0,4.2c-2,0-2,0-2,0V184.9z M59.4,190.3c1.1,0,1.8-0.1,2.4-0.4
			c0.4-0.3,0.7-0.7,0.7-1.5s-0.3-1.3-0.9-1.5c-0.5-0.3-1.3-0.3-2.2-0.3c-1.1,0-1.1,0-1.1,0c0,3.6,0,3.6,0,3.6L59.4,190.3L59.4,190.3
			z"/>
		<path id="path546" class="st0" d="M65.3,184.9h2v9.5h5.2v1.7h-7.2V184.9z"/>
		<path id="path548" class="st0" d="M72.3,190.4c0-3.3,2.5-5.8,5.7-5.8c3.3,0,5.7,2.5,5.7,5.8c0,3.3-2.5,5.8-5.7,5.8
			C74.7,196.2,72.3,193.7,72.3,190.4z M81.8,190.4c0-2.2-1.7-4-3.9-4c-2.2,0-3.9,1.8-3.9,4c0,2.3,1.7,4.1,3.9,4.1
			C80.2,194.5,81.8,192.7,81.8,190.4z"/>
		<path id="path550" class="st0" d="M85.1,184.9c1.9,0,1.9,0,1.9,0c3.8,5.2,3.8,5.2,3.8,5.2c3.6-5.2,3.6-5.2,3.6-5.2
			c1.9,0,1.9,0,1.9,0c0,11.2,0,11.2,0,11.2c-2,0-2,0-2,0c0-5.5,0-5.5,0-5.5c0-0.9,0-1.7,0-2.5l0,0c-0.4,0.7-0.9,1.5-1.5,2.2
			c-2.2,3-2.2,3-2.2,3c-2.1-3-2.1-3-2.1-3c-0.5-0.7-1-1.5-1.6-2.2l0,0c0,0.8,0,1.6,0,2.5c0,5.5,0,5.5,0,5.5c-1.9,0-1.9,0-1.9,0
			V184.9z"/>
		<path id="path552" class="st0" d="M108,196.1c-2.2,0-2.2,0-2.2,0c-1-2.7-1-2.7-1-2.7c-4.8,0-4.8,0-4.8,0c-1,2.7-1,2.7-1,2.7
			c-2.1,0-2.1,0-2.1,0c4.6-11.2,4.6-11.2,4.6-11.2c1.9,0,1.9,0,1.9,0L108,196.1z M100.7,191.8c3.5,0,3.5,0,3.5,0
			c-0.6-1.7-0.6-1.7-0.6-1.7c-0.4-1-0.8-2-1.1-3l0,0c-0.4,1-0.8,2-1.1,3L100.7,191.8z"/>
		<path id="path554" class="st0" d="M112.4,184.9c2.9,0,2.9,0,2.9,0c1.5,0,2.5,0.1,3.3,0.7c0.8,0.5,1.4,1.4,1.4,2.5
			c0,1.1-0.5,2.1-1.4,2.6c-0.8,0.6-2,0.7-3.5,0.7c-1.8,0-1.8,0-1.8,0c0,4.7,0,4.7,0,4.7c-0.9,0-0.9,0-0.9,0V184.9z M115.2,190.6
			c1.6,0,2.3-0.2,2.8-0.6c0.6-0.4,0.9-1,0.9-1.8c0-0.9-0.4-1.6-1-2c-0.6-0.4-1.5-0.5-2.7-0.5c-2,0-2,0-2,0c0,4.9,0,4.9,0,4.9H115.2z
			"/>
		<path id="path556" class="st0" d="M121.2,184.9h0.9v10.3h5.4v0.8h-6.4V184.9z"/>
		<path id="path558" class="st0" d="M133.3,184.6c1.1,0,2.2,0.3,2.9,0.7c0,1,0,1,0,1c-0.8-0.5-1.9-0.8-2.9-0.8
			c-2.8,0-4.9,2.2-4.9,4.9c0,2.8,2.1,5,5,5c1.1,0,2.2-0.4,3-1c0,1,0,1,0,1c-0.9,0.5-2.1,0.8-3.1,0.8c-3.3,0-5.8-2.5-5.8-5.8
			C127.5,187.2,129.9,184.6,133.3,184.6L133.3,184.6z"/>
	</g>
</g>
</svg>
