<?xml version="1.0" encoding="utf-8"?>
<!-- Generator: Adobe Illustrator 26.0.1, SVG Export Plug-In . SVG Version: 6.00 Build 0)  -->
<svg version="1.1" id="Layer_1" xmlns="http://www.w3.org/2000/svg" xmlns:xlink="http://www.w3.org/1999/xlink" x="0px" y="0px"
	 viewBox="0 0 95 35" style="enable-background:new 0 0 95 35;" xml:space="preserve">
<style type="text/css">
	.st0{fill:#CCCCCC;}
</style>
<g>
	<path class="st0" d="M50,17.6c-0.3,0.7-0.6,1.7-0.6,2.1c-0.1-0.4-0.4-1.4-0.6-2.1l-1.4-4.5h-2.8l3.5,9.9h2.7l3.5-9.9h-2.8L50,17.6z
		"/>
	<path class="st0" d="M39.9,12.8c-0.8,0-1.7,0.3-2.3,0.8V13h-2.5v9.9h2.5v-5.4c0-1.7,0.6-2.3,1.7-2.3c1.1,0,1.7,0.6,1.7,2.3v5.4h2.5
		v-5.5C43.6,14.5,42.5,12.8,39.9,12.8z"/>
	<polygon class="st0" points="30.2,22.9 32.7,22.9 32.7,9.2 30.2,10.4 	"/>
	<polygon class="st0" points="23.6,19.5 22.2,19.1 19.3,17.1 16.5,14.3 16.5,12.3 14.5,10.3 14.5,9.3 13.4,9.3 11,9.7 9.6,12.1 
		8.6,14.1 6.6,16.1 6.6,17.1 5.2,18.5 4.8,18.1 1,20 0,20.5 0,22.4 1,23 2.8,22 5.2,22.4 5.2,24.4 6.6,24.8 8.6,22.9 10,22.9 
		10,23.9 9.6,24.8 10.3,25.8 12.6,24.8 12.1,23.4 12.4,21 13.4,21 13.4,22 14.8,22.4 15.2,23.9 16.2,24.8 17.2,23.9 20,22.9 
		19.1,21.9 18.1,19.9 17.1,19.9 17.5,21.3 17.9,21.7 16.9,22.7 16,22.7 15.4,21 15.4,20 13.4,18.1 14.4,17.1 12.4,15.1 13.4,14.1 
		13.4,12.1 14.4,11.1 15.8,12.6 15.4,14 16.4,15 18.4,17.8 20.3,18.8 22.7,21.2 24.1,21.6 24.1,22.6 25.1,22.6 26.1,21.6 24,21 	"/>
	<path class="st0" d="M63.8,17.9c0-2.7-1.7-5.1-4.5-5.1c-2.5,0-4.7,2.1-4.7,5.1c0,3.1,2.1,5.1,4.9,5.1c1,0,2.7-0.4,3.8-1.8l-2-1.4
		c-0.4,0.6-1.1,0.8-1.8,0.8c-1,0-2.1-0.6-2.3-1.8h6.5C63.8,18.5,63.8,18.2,63.8,17.9z M57.3,16.9c0.1-1,1-1.8,1.8-1.8
		c1.3,0,1.8,0.8,2,1.8H57.3z"/>
	<path class="st0" d="M89.9,12.8c-2.8,0-5.1,2.3-5.1,5.1s2.3,5.1,5.1,5.1s5.1-2.3,5.1-5.1S92.7,12.8,89.9,12.8z M89.9,20.6
		c-1.4,0-2.5-1.1-2.5-2.7c0-1.4,1-2.7,2.5-2.7c1.6,0,2.5,1.1,2.5,2.7C92.3,19.5,91.3,20.6,89.9,20.6z"/>
	<path class="st0" d="M69.9,16.8c-0.7-0.1-2.1-0.3-2.1-1c0-0.4,0.4-0.7,1.6-0.7c0.8,0.1,1.7,0.3,2.4,0.7L73,14
		c-1.1-0.7-2.4-1.1-3.7-1.1c-2.3,0-4.1,1.1-4.1,3.1c0,2.5,2.3,2.8,4.2,3.2c0.4,0.1,1.6,0.1,1.6,0.8c0,0.4-0.6,0.8-1.6,0.8
		c-1.1,0-2.1-0.4-3-0.8l-1.3,1.7c1,0.7,2.5,1.4,4.1,1.4c2.1,0,4.2-1.1,4.2-3.2C73.5,17.6,71.7,17.2,69.9,16.8z"/>
	<path class="st0" d="M79.8,15.4c0.8,0,1.7,0.4,2.1,1.3l2.1-1.6c-1.7-2.3-4.8-2.8-7.2-1.1c-2.3,1.7-2.8,4.8-1.1,7.2
		c1.7,2.4,4.8,2.8,7.2,1.1c0.4-0.3,0.8-0.7,1.1-1.1l-2.1-1.7c-0.4,0.7-1.3,1.1-2.1,1.1c-1.4,0-2.5-1.1-2.5-2.7
		C77.2,16.5,78.3,15.4,79.8,15.4z"/>
</g>
</svg>
