<?xml version="1.0" encoding="utf-8"?>
<!-- Generator: Adobe Illustrator 26.0.1, SVG Export Plug-In . SVG Version: 6.00 Build 0)  -->
<svg version="1.1" id="Layer_1" xmlns="http://www.w3.org/2000/svg" xmlns:xlink="http://www.w3.org/1999/xlink" x="0px" y="0px"
	 viewBox="0 0 95 35" style="enable-background:new 0 0 95 35;" xml:space="preserve">
<style type="text/css">
	.st0{fill:#104076;}
	.st1{fill:#CCCCCC;}
</style>
<path class="st0" d="M-39.1,613.7"/>
<g>
	<path class="st1" d="M0,15.7h15.3v3.7H0V15.7z"/>
	<path class="st1" d="M0,21.2h15.3v3.7H0V21.2z"/>
	<path class="st1" d="M0,10.1h15.3v3.7H0V10.1z"/>
	<path class="st1" d="M82.6,22.2l8.3-9.5h-8.3v-2.6H95v2.6l-8.4,9.5H95v2.6H82.6L82.6,22.2 M40.5,24.8L34,10.2h3.5l4.4,11l4.5-11
		h3.3l-6.2,14.7H40.5"/>
	<path class="st1" d="M73.4,13.1l-2.1,5.7h4.4L73.4,13.1 M65.6,24.8l6.2-14.7h3.3l6.3,14.7H78l-1.4-3.5h-6.4l-1.3,3.5L65.6,24.8
		L65.6,24.8z"/>
	<path class="st1" d="M54.1,12.8v3.7h3.8c1,0,1.7-0.2,2.1-0.4c0.4-0.3,0.6-0.8,0.6-1.4c0-0.7-0.2-1.1-0.6-1.4
		c-0.3-0.2-0.9-0.4-1.7-0.4L54.1,12.8 M64.4,24.8H61l-0.8-1.5l-0.8-1.5l-1.6-2.9h-3.6v5.8H51V10.2h7.6c0.4,0,0.9,0,1.2,0.1
		s0.7,0.1,1.1,0.2c0.3,0.1,0.6,0.2,0.9,0.3c0.3,0.1,0.5,0.3,0.7,0.5c0.2,0.2,0.4,0.4,0.5,0.6s0.3,0.5,0.4,0.8
		c0.1,0.3,0.2,0.6,0.2,0.9c0.1,0.3,0.1,0.7,0.1,1.1c0,0.3,0,0.6-0.1,0.8c0,0.3-0.1,0.5-0.1,0.7c-0.1,0.2-0.1,0.5-0.2,0.7
		s-0.2,0.4-0.3,0.6c-0.1,0.2-0.3,0.3-0.4,0.5c-0.2,0.2-0.3,0.3-0.5,0.4c-0.2,0.1-0.4,0.2-0.6,0.3c-0.2,0.1-0.4,0.2-0.7,0.2
		L64.4,24.8z M32.8,12.7h-8.6v3.4h8.6v2.6h-8.6v3.5h8.6v2.6H20.8V10.1l12.1,0L32.8,12.7"/>
</g>
</svg>
