<?xml version="1.0" encoding="utf-8"?>
<!-- Generator: Adobe Illustrator 26.0.1, SVG Export Plug-In . SVG Version: 6.00 Build 0)  -->
<svg version="1.1" id="Layer_1" xmlns="http://www.w3.org/2000/svg" xmlns:xlink="http://www.w3.org/1999/xlink" x="0px" y="0px"
	 viewBox="0 0 95 35" style="enable-background:new 0 0 95 35;" xml:space="preserve">
<style type="text/css">
	.st0{fill:#FFFFFF;}
</style>
<g>
	<path class="st0" d="M75.6,13.2h-0.2c-1.8,0-2.7,1.9-2.7,4.2s0.9,4.2,2.7,4.2h0.2c1.8,0,2.7-1.9,2.7-4.2
		C78.3,15,77.4,13.2,75.6,13.2L75.6,13.2z M75.8,10.3c4.1,0,6.3,3.2,6.3,7c0,3.9-2.2,7-6.4,7h-0.5c-4.2,0-6.4-3.1-6.4-7
		c0-3.9,2.3-7,6.4-7H75.8 M0,10.6v13.5h3.9v-5.3h5v-2.9h-5v-2.5h5.2v-2.8 M19.5,21.1h-5.7v-2.5h5v-2.9h-5v-2.4h5.4v-2.8H9.8v13.5
		h9.7 M28.9,17.4c1.4-0.5,2.4-1.5,2.5-3.4c0-1.9-1.7-3.4-3.8-3.4H20v13.5h4V13.4h1.9c1,0,1.7,0.4,1.6,1.3c0,1.1-0.6,1.5-1.6,1.5
		h-1.9l4,7.9h4.4"/>
	<path class="st0" d="M40.6,21.2v-2.1H38v-2.8h6.1v7.1c-1.6,0.9-4.7,1.1-6.2,1c-4.3-0.1-6.4-3.2-6.4-7.1c0-3.9,2.3-7,6.4-7H39
		c1.1,0,5,0.4,5,4.5h-3.6c-0.2-1.4-1.3-1.8-2.2-1.7H38c-1.8,0-2.7,1.9-2.7,4.2c0,2.3,0.9,4.2,2.7,4.2C38.6,21.4,39.6,21.4,40.6,21.2
		 M86,14.9v9.3h-3.3V10.6h4.9l4,8.7v-8.7H95v13.5h-4.7 M57.4,21c-0.1-0.4-0.1-0.9-0.1-1.3h3.6c0.1,0.5,0.1,1,0.5,1.5
		c0.3,0.4,0.9,0.7,1.6,0.7c1,0,1.8-0.6,1.8-1.4c0-0.7-0.6-1.2-1.4-1.3c-0.8-0.2-1.6-0.4-2.8-0.7c-1.1-0.3-3-1.3-3-3.7
		c0-2.9,2.3-4.3,5.5-4.3c3.4,0,5.2,1.4,5.2,4.5h-3.7c0,0,0-0.2,0-0.5c0-0.7-0.7-1.2-1.6-1.2c-0.9,0-1.6,0.6-1.6,1.2
		c0,0.5,0.3,1,1,1.2c0.3,0.1,1.4,0.4,3.1,0.9c1.9,0.6,3.1,2.2,3.1,3.9c0,2.4-1.4,4.3-5.7,4.3C59.1,24.7,57.8,23.1,57.4,21
		 M50.7,24.5c5.5,0,6-2.2,6-6.9v-6.9H53v6.6c0,2.7,0,4.1-2.2,4.1c-2.3,0-2.2-1.5-2.2-4.1v-6.6h-3.7v6.9
		C44.8,22.2,45.3,24.4,50.7,24.5"/>
</g>
</svg>
