<?xml version="1.0" encoding="utf-8"?>
<!-- Generator: Adobe Illustrator 26.0.1, SVG Export Plug-In . SVG Version: 6.00 Build 0)  -->
<svg version="1.1" id="Layer_1" xmlns="http://www.w3.org/2000/svg" xmlns:xlink="http://www.w3.org/1999/xlink" x="0px" y="0px"
	 viewBox="0 0 95 35" style="enable-background:new 0 0 95 35;" xml:space="preserve">
<style type="text/css">
	.st0{fill:#343741;}
</style>
<path class="st0" d="M0,3.1v28.8h28.8V3.1H0z M19.7,12.4h-5.3v3.1h5.3l-0.9,1.9h-4.4v1.4h3.8l-0.9,1.9h-2.9v5.7h-3.3v-5.7H9.3v-1.9
	h1.9v-1.4H9.3v-1.9h1.9V9.6h8.6V12.4z"/>
<path class="st0" d="M34,17.2v1.6h1.3v5h2.8v-5h2.7l0.7-1.6h-3.4v-0.9h3.8l0.7-1.6h-4.5V12h4.5V9.6h-7.3v5H34v1.6h1.3v0.9
	 M43.9,14.6h2.8v9.1h-2.8 M45.3,9.3c-0.9,0-1.5,0.8-1.5,1.5c0,0.7,0.6,1.5,1.5,1.5c0.8,0,1.5-0.7,1.5-1.5S46.1,9.3,45.3,9.3
	 M54.9,15.8V9.6h2.5v14.1H55v-1.3h0c-0.7,1.1-1.8,1.5-3,1.5c-2.5,0-4.3-2.3-4.3-4.8s1.6-4.8,4.3-4.8C53.1,14.3,54,14.7,54.9,15.8
	 M55,19.1c0-1.4-0.8-2.7-2.4-2.7c-1.5,0-2.3,1.3-2.3,2.7c0,1.4,0.8,2.7,2.3,2.7C54.2,21.8,55,20.6,55,19.1 M67.7,19.8H61
	c0.1,1.1,0.8,2.1,2.1,2.1c0.8,0,1.5-0.4,1.8-1.1l2.5,0.2c-0.6,1.9-2.3,2.8-4.4,2.8c-2.8,0-4.7-1.9-4.7-4.8c0-3,1.9-4.8,4.7-4.8
	c2.7,0,4.7,1.9,4.7,4.8 M65.2,18.1c-0.1-0.9-0.8-2-2-2c-1.3,0-2,0.9-2.1,2 M68.7,23.6h2.5V9.5h-2.5 M72.4,23.6H75v-9.2h-2.6
	 M73.7,9.2c-0.9,0-1.5,0.8-1.5,1.5c0,0.7,0.6,1.5,1.5,1.5c0.8,0,1.5-0.7,1.5-1.5S74.5,9.2,73.7,9.2 M81.1,21.6c-0.1,0-0.3,0-0.5,0
	c-0.7,0-0.8-0.2-0.8-0.6v-4.6h1.3v-2h-1.3v-2.9h-2.6v2.9H76v2h1.2v4.9c0,2,1,2.4,2.7,2.4c0.4,0,0.8,0,1.2-0.1 M84.3,26.2H87
	l4.5-11.8h-2.8l-2,6l-2-6h-2.8l3.5,9.2 M37.5,31.8h-0.6l0,0l-0.4-1.7l-0.4,1.7h-0.6l-0.7-2.4h0.6l0.4,1.8l0.4-1.8h0.6l0,0l0.4,1.7
	l0.4-1.8h0.6 M39.9,29.3c0.8,0,1.2,0.6,1.2,1.2c0,0.7-0.4,1.2-1.2,1.2c-0.8,0-1.2-0.6-1.2-1.2C38.7,29.8,39.1,29.3,39.9,29.3
	 M39.9,29.7c-0.5,0-0.7,0.4-0.7,0.8s0.2,0.8,0.7,0.8c0.5,0,0.7-0.4,0.7-0.8C40.6,30.1,40.4,29.7,39.9,29.7 M43.9,31.8h-0.6l0,0
	l-0.5-1h-0.3v1H42v-2.4h1c0.5,0,0.9,0.3,0.9,0.7c0,0.2-0.1,0.6-0.5,0.7 M42.5,29.7v0.6h0.3c0.4,0,0.4-0.2,0.4-0.3
	c0-0.2-0.1-0.3-0.4-0.3 M46.1,31.7h-1.5v-2.4h0.5v2h1 M46.8,31.7v-2.4h1c0.8,0,1.2,0.4,1.2,1.2c0,0.9-0.6,1.2-1.2,1.2 M47.4,29.6
	v1.6h0.4c0.5,0,0.7-0.4,0.7-0.8c0-0.3-0.1-0.8-0.8-0.8 M52.2,31.7h-0.6L51.2,30l-0.4,1.7h-0.6l-0.7-2.4h0.6l0.4,1.7l0.4-1.8h0.6
	l0.4,1.7l0.4-1.8h0.5 M54.1,31.6h-0.5v-2.4h0.5 M55,31.6v-2.4h1c0.8,0,1.2,0.4,1.2,1.2c0,0.9-0.6,1.2-1.2,1.2 M55.6,29.5v1.6H56
	c0.5,0,0.7-0.4,0.7-0.8c0-0.3-0.1-0.8-0.8-0.8 M59.7,31.6H58v-2.4h1.7v0.4h-1.1v0.5h1.1v0.4h-1.1v0.6h1.1 M62.3,31.6h-0.5v-2.4h0.5
	 M65.3,31.6h-0.5l-1.1-1.6v1.6h-0.5v-2.4h0.6l1.1,1.6v-1.6h0.5 M67.4,31.5h-0.6L66,29.1h0.6l0.5,1.8l0.5-1.8h0.6 M70.5,31.5h-1.7
	v-2.4h1.7v0.4h-1.2V30h1.1v0.4h-1.1V31h1.2 M72.5,29.7c0-0.1-0.2-0.2-0.4-0.2c-0.2,0-0.4,0.1-0.4,0.2s0.1,0.2,0.3,0.3l0.5,0.1
	c0.4,0.1,0.6,0.3,0.6,0.7c0,0.2-0.2,0.8-1,0.8c-0.9,0-1-0.5-1-0.8h0.5c0,0.3,0.3,0.3,0.4,0.3c0.2,0,0.4-0.1,0.4-0.2
	c0-0.1,0-0.2-0.3-0.3l-0.5-0.2c-0.3-0.1-0.5-0.3-0.5-0.6c0-0.2,0.2-0.8,0.9-0.8c1,0,1,0.7,1,0.7 M74.9,31.5h-0.5v-2h-0.7v-0.4h1.9
	v0.4h-0.7 M78.9,31.6h-0.5v-1.6l-0.7,1.6h-0.3L76.8,30v1.6h-0.5v-2.4h0.6l0.8,1.6l0.7-1.6h0.6 M81.5,31.6h-1.6v-2.4h1.6v0.4h-1.1
	v0.5h1.1v0.5h-1.1v0.5h1.1 M84.3,31.6h-0.5l-1.1-1.6v1.6h-0.5v-2.4h0.6l1.1,1.6v-1.6h0.5 M86.3,31.6h-0.5v-2h-0.7v-0.4h1.9v0.4h-0.7
	 M92,8h-0.5V7.7h1.3V8h-0.5v1.5H92 M94.7,8.3l-0.5,1.2h-0.2l-0.5-1.2v1.2h-0.3V7.7h0.4L94,8.9l0.5-1.2H95v1.8h-0.3"/>
</svg>
