<?xml version="1.0" encoding="utf-8"?>
<!-- Generator: Adobe Illustrator 26.0.1, SVG Export Plug-In . SVG Version: 6.00 Build 0)  -->
<svg version="1.1" id="Layer_1" xmlns="http://www.w3.org/2000/svg" xmlns:xlink="http://www.w3.org/1999/xlink" x="0px" y="0px"
	 viewBox="0 0 95 35" style="enable-background:new 0 0 95 35;" xml:space="preserve">
<style type="text/css">
	.st0{fill:#104076;}
	.st1{fill-rule:evenodd;clip-rule:evenodd;fill:#CCCCCC;}
</style>
<path class="st0" d="M-39.1,613.7"/>
<g>
	<path class="st1" d="M0.5,22.5L37.6,8.1c0.4-0.1,0.8,0,1,0.4c0.1,0.2,0.1,0.4,0,0.5c0.5,1.2,1,2.4,1.5,3.7c1.3,2.5,3.9,1.5,5.2-1.5
		c0.3-0.7,0.9-0.9,1.6-0.9c-0.8-0.1-1.2-0.7-0.5-2c1.6-1.7,0.9-3.6,1.7-5.5c0.2-0.4,0.6-0.5,1-0.4l45.3,19.7c0.4,0.2,0.5,0.6,0.4,1
		c-0.2,0.4-0.6,0.5-1,0.4L49.5,4.1L49.3,4c-0.4,1.7,1.1,3.1-0.1,5.2c-0.2,0.6-1.2,1.1-2,1.1c1.1,0.1,2.2,1.1,1.5,2.5
		c-2.6,5.9-8.7,6.5-10,1.5c-0.5-1.3-1-3.1-1.5-4.4L1,23.9c-0.4,0.1-0.8,0-1-0.4C-0.1,23.1,0.1,22.7,0.5,22.5"/>
	<path class="st1" d="M9.3,23.1h6.1v2h-5.4c-0.9-0.2-1.3,0.3-1.2,1.3V27h6.6v1.8l-6.7,0v3.9H6.9v-6.8C7,24.5,7.8,23.5,9.3,23.1
		 M19.2,27h4.6c0.4,0,0.6-0.1,0.8-0.4c0.2-0.2,0.3-0.4,0.3-0.7c0-0.2-0.1-0.5-0.3-0.6c-0.2-0.2-0.5-0.3-0.8-0.3l-4.5,0V27z
		 M17.2,32.7v-9.5h6.6c0.7,0.1,1.2,0.2,1.5,0.4c0.3,0.2,0.6,0.6,0.9,1.1c0.3,0.5,0.4,1,0.4,1.7c0,0.6-0.2,1.2-0.6,1.8
		c0.2,0.3,0.4,0.5,0.5,0.8c0.1,0.2,0.1,0.6,0.1,1l0,2.8h-1.9l0-2.3c0-0.5-0.1-0.9-0.2-1.1C24.4,29,24.2,29,23.8,29l-4.5,0v3.7H17.2z
		 M30.1,23.1h6.1v2h-5.4c-0.9-0.2-1.3,0.3-1.2,1.3V27h6.6v1.8l-6.6,0v0.7c-0.2,1,0.3,1.4,1.6,1.4h5.1v1.8h-5.8
		c-1.7-0.2-2.6-1.3-2.8-3.1v-3.7C27.7,24.5,28.6,23.5,30.1,23.1 M44.5,28.8l-3.5,0c-0.3,0-0.7-0.1-1.2-0.3c-0.5-0.2-0.9-0.5-1.1-0.9
		c-0.3-0.5-0.5-1-0.5-1.5c0-0.5,0.1-1,0.3-1.5c0.3-0.5,0.6-0.8,0.9-0.9c0.3-0.2,0.8-0.3,1.5-0.5h5.7v1.9l-5.4,0
		c-0.4,0-0.6,0-0.8,0.2C40.1,25.5,40,25.8,40,26c0,0.2,0.1,0.5,0.3,0.7c0.2,0.2,0.5,0.3,0.9,0.3l3.5,0c0.3,0,0.7,0.1,1.2,0.3
		c0.5,0.2,0.9,0.5,1.1,0.9c0.3,0.5,0.5,1,0.5,1.5c0,0.5-0.1,1-0.3,1.5c-0.3,0.5-0.6,0.8-0.9,0.9c-0.3,0.2-0.8,0.3-1.5,0.5h-6.7v-1.9
		l6.4,0c0.4,0.1,0.6,0,0.8-0.2c0.2-0.2,0.3-0.4,0.3-0.7c0-0.3-0.1-0.5-0.3-0.7C45.2,28.9,44.9,28.8,44.5,28.8 M48.4,23.1l6.5,0
		c1.8,0.2,2.7,1.1,3,2.7v6.8H56v-6.2c0-1.1-0.4-1.6-1.3-1.5l-4.4,0v7.7l-1.9,0L48.4,23.1z M60,23.1h1.9v9.5H60V23.1z M62.4,30.2
		v-7.1h1.9v6.5c0,0.4,0.1,0.8,0.3,0.9c0.2,0.2,0.5,0.3,1,0.3h4.2v1.9h-4.7c-0.7-0.1-1.3-0.3-1.8-0.7C62.9,31.5,62.6,31,62.4,30.2
		 M70.6,30.2v-7.1h1.9v6.5c0,0.4,0.1,0.8,0.3,0.9c0.2,0.2,0.5,0.3,1,0.3h4.2v1.9h-4.7c-0.7-0.1-1.3-0.3-1.8-0.7
		C71.1,31.5,70.8,31,70.6,30.2 M88.3,30.3c-0.2,1.5-1.1,2.3-2.7,2.4l-3.9,0c-0.9,0-1.5-0.3-2-0.8c-0.4-0.5-0.7-1.1-0.8-2l0-4
		c0.1-1.7,1-2.6,2.7-2.7h3.9c1.7,0.1,2.6,0.9,2.8,2.4L88.3,30.3z M86.3,26.2c0-0.5-0.1-0.8-0.3-1c-0.2-0.2-0.5-0.3-1-0.3h-3
		c-0.6,0-0.9,0.1-1.1,0.4c-0.2,0.2-0.3,0.6-0.3,1.2l0,3.1c0,0.4,0.1,0.8,0.3,0.9c0.2,0.2,0.6,0.3,1.1,0.3h3c0.5,0,0.9-0.1,1-0.3
		c0.2-0.2,0.2-0.5,0.2-1L86.3,26.2z"/>
	<path class="st1" d="M93.2,29c1,0,1.8,0.8,1.8,1.8c0,1-0.8,1.8-1.8,1.8s-1.8-0.8-1.8-1.8C91.4,29.8,92.2,29,93.2,29 M93.2,29.3
		c0.8,0,1.5,0.7,1.5,1.5c0,0.8-0.7,1.5-1.5,1.5c-0.8,0-1.5-0.7-1.5-1.5C91.6,30,92.3,29.3,93.2,29.3 M93.7,30.9
		c0.1,0,0.2-0.1,0.3-0.2c0.1-0.1,0.1-0.2,0.1-0.4c0-0.1,0-0.2-0.1-0.3c-0.1-0.1-0.1-0.2-0.2-0.2c-0.1,0-0.2-0.1-0.4-0.1h-0.9v2.1
		h0.3v-0.9h0.6l0.6,0.9h0.3L93.7,30.9z M92.8,30.7h0.6c0.1,0,0.2,0,0.3,0c0.1,0,0.1-0.1,0.2-0.1c0-0.1,0.1-0.1,0.1-0.2
		c0-0.1,0-0.2-0.1-0.2C93.7,30,93.6,30,93.4,30h-0.7V30.7z"/>
</g>
</svg>
