<?xml version="1.0" encoding="utf-8"?>
<!-- Generator: Adobe Illustrator 26.0.1, SVG Export Plug-In . SVG Version: 6.00 Build 0)  -->
<svg version="1.1" id="Layer_1" xmlns="http://www.w3.org/2000/svg" xmlns:xlink="http://www.w3.org/1999/xlink" x="0px" y="0px"
	 viewBox="0 0 95 35" style="enable-background:new 0 0 95 35;" xml:space="preserve">
<style type="text/css">
	.st0{fill:#343741;}
</style>
<g>
	<path class="st0" d="M10.2,18.1l-0.9-0.3C9.1,17.8,9,17.7,9,17.7c0-0.1,0.2-0.1,0.4-0.1h4.1c0.2,0,0.3,0,0.3,0.1c0,0,0,0.1-0.2,0.1
		l-0.8,0.3c-0.4,0.1-0.5,0.4-0.5,0.7c0,1.1,0.1,2.1,0.2,3.2c-1.6,0.9-3.3,1.4-5.3,1.4c-1.4,0-2.6-0.3-3.6-0.8
		c-2.1-1.1-3.3-2.9-3.6-5.5c0-0.3,0-0.6,0-0.9c0-2.1,0.7-3.8,2.1-5c1.6-1.4,3.6-2,5.9-2c1.3,0,2.7,0.2,4.3,0.7l-0.3,3.3
		c0,0.2-0.1,0.3-0.1,0.3c-0.1,0-0.1-0.1-0.2-0.3l-0.4-1.6c0-0.2-0.1-0.4-0.2-0.5c-0.1-0.1-0.3-0.2-0.6-0.3C9.8,10.3,9,10.1,8,10.1
		c-1.5,0-2.9,0.4-4,1.1c-1.6,1-2.4,2.8-2.3,5.1c0,1.1,0.2,2,0.6,2.9c0.5,1.1,1.2,1.9,2.1,2.4c1,0.6,2.1,0.8,3.1,0.8
		c0.9,0,1.8-0.2,2.7-0.7c0.5-0.3,0.8-0.7,0.8-1.2c0-1.1,0-1.8-0.2-2.2C10.6,18.3,10.4,18.2,10.2,18.1"/>
	<path class="st0" d="M15.5,11.6c0-0.5,0-0.8,0-0.9c0-0.2-0.1-0.4-0.3-0.4l-1-0.3c-0.2-0.1-0.3-0.1-0.3-0.2c0-0.1,0.1-0.1,0.4-0.1
		h4.2c0.2,0,0.4,0,0.4,0.1c0,0.1-0.1,0.1-0.3,0.2l-1,0.3c-0.2,0-0.3,0.2-0.3,0.4c0,0.1,0,0.4,0,0.9c0,1.2-0.1,2.8-0.1,4.7
		c0,1.9,0,3.7,0.1,5.2c0,0.3,0.1,0.5,0.4,0.5h3.1c0.3,0,0.5,0,0.6-0.1c0.1,0,0.2-0.2,0.3-0.3l0.5-1.3c0-0.2,0.1-0.3,0.2-0.3
		c0.1,0,0.1,0,0.1,0.1L22.1,23h-8c-0.2,0-0.4,0-0.4-0.1c0-0.1,0.1-0.1,0.3-0.2l1-0.3c0.2,0,0.3-0.2,0.3-0.4c0-0.1,0-0.4,0-0.9
		c0-1.2,0.1-2.8,0.1-4.7C15.5,14.3,15.5,12.8,15.5,11.6"/>
	<path class="st0" d="M32,23H23c-0.2,0-0.4,0-0.4-0.1c0-0.1,0.1-0.1,0.3-0.2l1-0.3c0.2,0,0.3-0.2,0.3-0.4c0-0.1,0-0.4,0-0.9
		c0-1.3,0.1-2.9,0.1-4.7c0-1.9,0-3.5-0.1-4.7c0-0.5,0-0.8,0-0.9c0-0.2-0.1-0.4-0.3-0.4L23,10c-0.2-0.1-0.3-0.1-0.3-0.2
		c0-0.1,0.1-0.1,0.4-0.1c2.1,0,3.9,0,5.2,0c1.3,0,2.4-0.1,3.2-0.1V12c0,0.2,0,0.4-0.1,0.4c0,0-0.1-0.1-0.2-0.3
		c-0.3-0.8-0.5-1.3-0.7-1.4c-0.1-0.1-0.7-0.1-1.7-0.1h-2.5c-0.2,0-0.3,0-0.4,0.1c0,0.1-0.1,0.2-0.1,0.4l-0.1,4.6h3.6
		c0.2,0,0.4,0,0.5-0.1c0.1,0,0.2-0.2,0.3-0.4c0.1-0.2,0.2-0.4,0.3-0.7c0-0.1,0.1-0.1,0.1-0.1c0.1,0,0.1,0,0.1,0.1V18
		c0,0.2,0,0.4-0.1,0.4c-0.1,0-0.2,0-0.2-0.2c-0.1-0.4-0.2-0.8-0.3-1.2c-0.1-0.3-0.3-0.4-0.6-0.4h-3.6l0.1,4.9c0,0.3,0.1,0.5,0.4,0.5
		h4c0.3,0,0.5,0,0.6-0.1c0.1,0,0.2-0.1,0.3-0.3c0.1-0.2,0.2-0.6,0.5-1.4c0.1-0.2,0.1-0.3,0.2-0.3c0.1,0,0.1,0,0.1,0.1L32,23z"/>
	<path class="st0" d="M46.3,23.2h-1c-0.4-0.6-1.3-1.5-2.5-2.9c-1.8-1.9-4.4-4.7-7.7-8.3c0,1,0,2.5,0,4.3c0,1.9,0,3.5,0.1,4.7
		c0,0.5,0,0.8,0,0.9c0,0.2,0.1,0.4,0.3,0.4l1.1,0.3c0.2,0.1,0.3,0.1,0.3,0.2c0,0.1-0.1,0.1-0.3,0.1h-3.8c-0.2,0-0.4,0-0.4-0.1
		c0-0.1,0.1-0.1,0.3-0.2l1-0.3c0.2,0,0.3-0.2,0.3-0.4c0-0.1,0-0.4,0-0.9c0-1.2,0.1-2.8,0.1-4.7c0-1.9,0-3.4-0.1-4.7
		c0-0.5,0-1.2-0.1-2.3h1c0.4,0.6,1.4,1.6,2.8,3.2l7.5,8c0-0.9,0-2.3,0-4.2c0-1.9,0-3.4-0.1-4.7c0-0.5,0-0.8,0-0.9
		c0-0.2-0.1-0.4-0.3-0.4l-1-0.3c-0.2-0.1-0.3-0.1-0.3-0.2c0-0.1,0.1-0.1,0.4-0.1h3.8c0.2,0,0.3,0,0.3,0.1c0,0.1-0.1,0.1-0.3,0.2
		l-1.1,0.3c-0.2,0-0.3,0.2-0.3,0.4c0,0.1,0,0.4,0,0.9c0,1.3-0.1,2.9-0.1,4.7c0,1.9,0,3.5,0.1,4.7C46.2,21.5,46.2,22.2,46.3,23.2"/>
	<path class="st0" d="M50.2,21.9c-2-1.5-2.9-3.4-2.8-5.9c0.1-1.1,0.4-2.1,0.9-3c0.6-1.1,1.5-2,2.6-2.7c1.3-0.8,2.8-1.2,4.6-1.2
		c1.2,0,2.4,0.2,3.6,0.6v3.1c0,0.2,0,0.3-0.1,0.3c-0.1,0-0.1-0.1-0.2-0.4c-0.2-0.7-0.4-1.2-0.6-1.5c-0.3-0.4-0.7-0.7-1.3-0.9
		c-0.5-0.1-1-0.2-1.5-0.2c-2,0-3.6,0.6-4.8,1.8c-1,1.1-1.5,2.5-1.5,4.4c0,0.6,0.1,1.1,0.2,1.6c0.6,2.2,2,3.6,4.2,4.2
		c0.4,0.1,1,0.2,1.5,0.2c1.6,0,2.9-0.4,3.7-1.1c0.2-0.2,0.5-0.6,0.7-1.1c0-0.1,0.1-0.3,0.3-0.7c0.1-0.3,0.2-0.4,0.3-0.4
		c0,0,0.1,0,0.1,0.1l-0.5,3.3c-1.6,0.6-3.1,0.9-4.4,0.9C53.1,23.4,51.5,22.9,50.2,21.9"/>
	<path class="st0" d="M63.9,10.1c-2.3,1.1-3.5,2.9-3.9,5.3c0,0.2,0,0.5,0,0.7c0,1,0.2,1.9,0.5,2.8c0.4,1.1,1,2,1.8,2.7
		c1.4,1.2,2.9,1.7,4.6,1.7c0.8,0,1.7-0.1,2.6-0.4c1.2-0.3,2.2-0.9,3.1-1.7c0.9-0.9,1.6-1.9,1.9-3.1c0.2-0.6,0.2-1.2,0.2-1.9
		c0-1.8-0.5-3.4-1.5-4.6c-1.4-1.7-3.2-2.5-5.5-2.5c-0.4,0-0.8,0-1.2,0.1C65.6,9.5,64.7,9.7,63.9,10.1 M65.8,10.5
		c0.5-0.1,0.9-0.2,1.4-0.2c1.6,0,3,0.6,4.3,1.7c0.6,0.5,1,1.2,1.3,2.1c0.3,0.8,0.4,1.6,0.4,2.5c0,0.6-0.1,1.1-0.2,1.6
		c-0.6,2.1-1.9,3.3-4.1,3.9c-0.4,0.1-0.9,0.1-1.4,0.1c-1.7,0-3.2-0.6-4.3-1.8c-1.1-1.2-1.7-2.7-1.7-4.4c0-0.6,0.1-1.2,0.3-1.8
		C62.5,12.2,63.8,11,65.8,10.5"/>
	<path class="st0" d="M74.2,9.8c0,0.1,0.1,0.1,0.3,0.2l1,0.3c0.2,0,0.3,0.2,0.3,0.4c0,0.1,0,0.4,0,0.9c0,1.3,0.1,2.9,0.1,4.7
		c0,1.9,0,3.5-0.1,4.7c0,0.5,0,0.8,0,0.9c0,0.2-0.1,0.4-0.3,0.4l-1,0.3c-0.2,0.1-0.3,0.1-0.3,0.2c0,0.1,0.1,0.1,0.4,0.1h4.2
		c0.2,0,0.4,0,0.4-0.1c0-0.1-0.1-0.1-0.3-0.2l-1-0.3c-0.2,0-0.3-0.2-0.3-0.4c0-0.1,0-0.4,0-0.9v-3.8c0.3,0,0.4,0,0.5,0l3.9,4
		c1.3,1.4,3.8,3.4,4.6,3.8c1.2,0.5,3.7,1.2,5.3,0.2c0.1-0.1-1.8-0.1-2.4-0.2c-0.7-0.1-1.7-0.5-1.8-0.6c-1.2-0.6-2.8-2-3.6-2.8
		l-4-4.6c1.4-0.3,2.5-1,3-1.9c0.3-0.6,0.5-1.2,0.5-2c0-0.7-0.1-1.2-0.4-1.7c-0.5-0.9-1.2-1.5-2.1-1.7c-0.5-0.1-1.3-0.2-2.5-0.2
		l-3.8,0.1C74.3,9.7,74.2,9.7,74.2,9.8 M78,16.3c-0.2,0-0.4,0-0.5,0l0-3.8v-0.9c0-0.3,0-0.5,0-0.5c0-0.2,0.1-0.3,0.4-0.4
		c0.2-0.1,0.4-0.1,0.7-0.1c0.7,0,1.4,0.2,1.9,0.5c0.9,0.6,1.4,1.4,1.3,2.5c-0.1,1.1-0.6,1.9-1.6,2.4C79.6,16.1,78.9,16.3,78,16.3"/>
	<path class="st0" d="M94.9,23H86c-0.2,0-0.4,0-0.4-0.1c0-0.1,0.1-0.1,0.3-0.2l1-0.3c0.2,0,0.3-0.2,0.3-0.4c0-0.1,0-0.4,0-0.9
		c0-1.3,0.1-2.9,0.1-4.7c0-1.9,0-3.5-0.1-4.7c0-0.5,0-0.8,0-0.9c0-0.2-0.1-0.4-0.3-0.4l-1-0.3c-0.2-0.1-0.3-0.1-0.3-0.2
		c0-0.1,0.1-0.1,0.4-0.1c2.1,0,3.9,0,5.2,0c1.3,0,2.4-0.1,3.2-0.1V12c0,0.2,0,0.4-0.1,0.4c0,0-0.1-0.1-0.2-0.3
		c-0.3-0.8-0.5-1.3-0.7-1.4c-0.1-0.1-0.7-0.1-1.7-0.1h-2.5c-0.2,0-0.3,0-0.4,0.1c0,0.1-0.1,0.2-0.1,0.4l-0.1,4.6h3.6
		c0.2,0,0.4,0,0.5-0.1c0.1,0,0.2-0.2,0.3-0.4c0.1-0.2,0.2-0.4,0.3-0.7c0-0.1,0.1-0.1,0.1-0.1c0.1,0,0.1,0,0.1,0.1V18
		c0,0.2,0,0.4-0.1,0.4c-0.1,0-0.2,0-0.2-0.2c-0.1-0.4-0.2-0.8-0.4-1.2c-0.1-0.3-0.3-0.4-0.6-0.4h-3.6l0.1,4.9c0,0.3,0.1,0.5,0.4,0.5
		h4c0.3,0,0.5,0,0.6-0.1c0.1,0,0.2-0.1,0.3-0.3c0.1-0.2,0.2-0.6,0.5-1.4c0.1-0.2,0.1-0.3,0.2-0.3c0.1,0,0.1,0,0.1,0.1L94.9,23z"/>
</g>
</svg>
