<?xml version="1.0" encoding="utf-8"?>
<!-- Generator: Adobe Illustrator 26.0.1, SVG Export Plug-In . SVG Version: 6.00 Build 0)  -->
<svg version="1.1" id="Layer_1" xmlns="http://www.w3.org/2000/svg" xmlns:xlink="http://www.w3.org/1999/xlink" x="0px" y="0px"
	 viewBox="0 0 95 35" style="enable-background:new 0 0 95 35;" xml:space="preserve">
<style type="text/css">
	.st0{fill:#CCCCCC;}
</style>
<g>
	<path class="st0" d="M43.8,26.6c-1.7-0.5-3.9,1.6-4.5,4c-0.6,2.3,0.9,4.1,2.5,4.3c1.6,0.2,3.3-0.9,3.4-1.6c0.1-0.6-2-0.2-2.5-0.4
		c-0.5-0.2-0.2-0.6-0.2-0.6c1.5-0.3,2.5-1.4,2.9-2.5C45.7,28.6,45.5,27.2,43.8,26.6 M41.7,30.6c0,0,0.6-2.4,1.4-2.2
		C43.8,28.7,43.8,29.6,41.7,30.6 M63.6,32.4c0,0-0.7,0.7,1.1,1.6c1.7,0.9,4,0.8,4.7-0.4c0.8-1.2,0.6-2.6-0.4-3.1
		c-1-0.5-2.8-0.5-2.7-1.2c0.2-0.7,0.6-0.7,1.1-0.7c0.5,0,2.3,0.3,2.3-0.2c0-0.4-0.2-1.8-2.6-1.5c-2.4,0.2-3.8,1.1-3.7,2.9
		c0,1.7,3.5,2.2,3.8,2.2c0.3,0,0.8,0.4,0.2,0.9c-0.7,0.4-2.1,0.1-2.7-0.2C64.1,32.4,63.8,32.3,63.6,32.4 M57.6,31.4l0-2.9
		c0,0,0.3-1.4-1-1.4c-1.3,0-1.6,1.8-1.8,3.6c-0.1,1.8,0.7,4.1,2.7,3.9c2-0.2,1.8-0.9,1.8-0.9s0.3-0.4,0.9,0.1c0,0-0.1,0.5,1.1,0.5
		c1.2,0.1,1-1.5,0.9-1.8c0-0.4,0-4.6,0-4.6s0.1-0.7-1.3-0.7c-1.3,0-1.1,0.5-1.3,1.4c-0.1,0.9-0.2,3.1-0.9,3.7
		C58.1,33,57.7,33.3,57.6,31.4 M46.8,34l0-5.8c0,0,1-1.6,2,0c0,0,0.4,0.2,0.7-0.2c0.4-0.5,1.8-1.8,3.5-0.2c1.6,1.6,0.7,5.2,0.7,5.2
		s-0.5,1.8-1.4,1.8c-1,0-0.9-0.6-0.9-1.1c0-0.5,0-3.6-0.2-3.8c-0.2-0.2-0.7-0.8-1.3,0.2c-0.6,1-0.6,2.9-0.6,3.4
		c0,0.5-0.4,1.3-1.5,1.2C46.7,34.5,46.9,34.6,46.8,34 M35.6,25.3c0,0,1.6-0.2,1.6-1.4c0-1.2-2.4-1-3.5-0.9c-1.1,0.1-7.5,1.1-8.5,6.8
		c-1,5.7,6.2,6.4,9.2,3.6c0,0,0.6-0.3,0.8,0.2c0.2,0.5,1.4,1.6,2.4,0.8c1-0.8,0.6-4.6,0.1-5.4c-0.5-0.8-2-1.4-2.3-0.2
		c0,0,0,1-0.2,1.2c-0.2,0.2-2.3,3.1-5.9,2.4c0,0-2.2-0.7-0.9-3.4C29.8,26.3,35.6,25.3,35.6,25.3"/>
	<path class="st0" d="M44.2,20.8c0,0-7.8-1.7-8.5-11.7c0,0,0.2-6.1,3.7-9c0,0,0.9-0.5,0.9,0.5c0,0-0.8,9,5.6,12.9
		c0,0,7.8,5.4,15.4-2c0,0,1.1-1.8,1.2-0.5C62.6,12.4,57.2,25.1,44.2,20.8"/>
</g>
</svg>
