<?xml version="1.0" encoding="utf-8"?>
<!-- Generator: Adobe Illustrator 26.0.1, SVG Export Plug-In . SVG Version: 6.00 Build 0)  -->
<svg version="1.1" id="Layer_1" xmlns="http://www.w3.org/2000/svg" xmlns:xlink="http://www.w3.org/1999/xlink" x="0px" y="0px"
	 viewBox="0 0 95 35" style="enable-background:new 0 0 95 35;" xml:space="preserve">
<style type="text/css">
	.st0{fill:#CCCCCC;}
</style>
<g>
	<path class="st0" d="M37.3,10.3c0-5.4-3.9-7.8-8.8-8.5c-1.8-0.3-3.4-0.3-5.1-0.3C16,1.4,4.5,2.7,0.9,10.3C0.3,11.4,0,13,0,14.2
		c0,2,0.3,3.7,1.1,5.6c1.4,3.2,4,5,7.4,5c1,0,1.8-0.1,2.4-0.3c0.5-0.2,1.1-0.6,1.1-1.4c0-0.4-0.3-0.8-0.7-1c-0.4-0.2-0.8-0.2-2-0.3
		c-0.8,0-1.6-0.1-2.4-0.2c-1.3-0.1-2-1-2-1.8c0-0.7,0.5-1.4,1.5-1.8C5,17.6,4.2,16.3,4.2,15c0-2,1.6-3.5,4.1-3.5
		c0.5,0,1.2,0.1,1.7,0.3c0.5,0.1,0.9,0.2,1.4,0.2c0.6,0,1.3,0,1.9-0.2V13c-0.6-0.1-1.3-0.1-1.9-0.1c0.5,0.6,0.8,1.4,0.8,2.2
		c0,1.8-1.4,3.3-3.9,3.3c-0.2,0-0.4,0-0.7,0c-0.2,0-0.5,0.2-0.7,0.3c-0.2,0.2-0.4,0.5-0.4,0.8c0,0.4,0.2,0.7,1.3,0.8l2.2,0.1
		c2.2,0.1,3.3,1,3.3,2.5c-0.1,1.8-1.5,3.1-4.9,3.1c-0.9,0-2.1-0.2-3.2-0.5c-0.8-0.2-1.5-0.6-2.2-1.1c2.9,5,8,9.2,14,9.2
		c2.9,0,5.4-1,7.7-2.7C30.3,26.7,37.3,17.5,37.3,10.3L37.3,10.3z M10.5,15.1c0-1.4-0.8-2.6-2.4-2.6c-1.4,0-2.2,0.9-2.2,2.2
		c0,1.5,0.9,2.6,2.4,2.6C9.7,17.3,10.5,16.4,10.5,15.1z M32.2,21.2c-0.5,0.4-1.2,0.5-2,0.5c-1,0-1.8-0.5-2.9-1.8l-3-3.5V19
		c0,1.8,0.1,2.1,0.3,2.5h-2.4c0.2-0.5,0.3-0.7,0.3-2.5v-8.9c0-1.4-0.1-2.1-0.4-2.5l2.2-0.6v8.6l2.9-2.7c0,0,0.6-0.5,1.1-1.2H31
		c-0.1,0-0.6,0.1-2.2,1.6L26.1,16c0,0,1.6,1.9,3.2,3.6c1.2,1.3,2.1,1.7,2.6,1.7C32,21.3,32.1,21.3,32.2,21.2L32.2,21.2z M21.1,19
		c0,2.2-2.2,2.9-4,2.9c-1.1,0-2.1-0.2-3.2-0.6v-1.5c1.1,0.6,2.4,0.9,3.2,0.9c0.9,0,2-0.2,2-1.3c0-1.1-1.1-1.6-2.4-2.2
		c-1.4-0.6-2.8-1.3-2.8-3c0-2,1.9-2.9,3.7-2.9c0.9,0,1.9,0.2,2.7,0.7v1.5c-0.8-0.6-1.7-1-2.7-1c-1,0-1.9,0.4-1.9,1.3
		c0,1,1.2,1.6,2.5,2.3C19.7,16.8,21.1,17.5,21.1,19z M94.1,25.7H92c0.1-0.5,0.3-1.2,1.1-1.2C93.8,24.4,94.1,25,94.1,25.7z M95,26.3
		c0-0.1,0-0.2,0-0.2c0-1.3-0.5-2.2-1.9-2.2c-1.2,0-2,0.9-2,2.2c0,1.4,0.6,2.4,2.2,2.4c0.7,0,1-0.2,1.3-0.3v-0.8
		c-0.4,0.3-0.8,0.4-1.3,0.5c-0.8,0-1.4-0.6-1.4-1.5H95z M90.4,28.3v-2.6c0-1.2-0.5-1.9-1.6-1.9c-0.6,0-1.2,0.3-1.4,0.8h0v-0.7h-0.8
		v4.4h0.8v-2c0-1.1,0.4-1.9,1.3-1.8c0.7,0,0.9,0.5,0.9,1.6v2.3L90.4,28.3L90.4,28.3L90.4,28.3z M85.5,22.5c0-0.3-0.2-0.5-0.5-0.5
		s-0.5,0.2-0.5,0.5c0,0.3,0.2,0.5,0.5,0.5C85.3,22.9,85.5,22.7,85.5,22.5z M85.4,28.3v-4.4h-0.8v4.4H85.4z M83.8,28.3
		c-0.3-0.1-0.4-0.3-0.4-0.6v-5.5h-0.8v5.6c0,0.4,0.2,0.6,0.6,0.6C83.5,28.4,83.7,28.4,83.8,28.3L83.8,28.3z M82.1,28.3l-2.5-3.2
		l2.3-2.9h-1L78.8,25v-2.7h-0.8v6h0.8v-2.9l2.2,2.9H82.1z M76.7,28.3v-2.6c0-1.2-0.5-1.9-1.6-1.9c-0.6,0-1.1,0.3-1.4,0.7h0v-2.3
		h-0.8v6.1h0.8v-2c0-1.1,0.4-1.9,1.3-1.8c0.7,0,0.9,0.5,0.9,1.6v2.3L76.7,28.3L76.7,28.3L76.7,28.3z M72.2,28.3v-0.7
		c-0.1,0.1-0.3,0.2-0.5,0.2c-0.4,0-0.7-0.3-0.7-0.8v-2.4H72v-0.6h-1.1v-1.3l-0.8,0.3v1h-0.8v0.6h0.8v2.6c0,0.9,0.5,1.3,1.4,1.3
		C71.7,28.4,71.9,28.4,72.2,28.3z M68.7,22.5c0-0.3-0.2-0.5-0.5-0.5c-0.3,0-0.5,0.2-0.5,0.5c0,0.3,0.2,0.5,0.5,0.5
		C68.5,22.9,68.7,22.7,68.7,22.5z M68.6,28.3v-4.4h-0.8v4.4H68.6z M66.7,28.3v-2.8c0-1-0.4-1.7-1.5-1.7c-0.4,0-1.1,0.2-1.4,0.8
		c-0.2-0.5-0.7-0.9-1.3-0.8c-0.6,0-1.1,0.2-1.4,0.7v-0.6h-0.8v4.4h0.8v-2.2c0-0.8,0.4-1.6,1.2-1.6c0.7,0,0.8,0.7,0.8,1.2v2.6H64
		v-2.2c0-0.8,0.3-1.6,1.2-1.6c0.6,0,0.8,0.7,0.8,1.2v2.6H66.7L66.7,28.3z M59.7,26.6c0-1.2-1-1.6-1.9-2c-0.2-0.1-0.3-0.1-0.5-0.2
		c-0.3-0.2-0.4-0.4-0.4-0.7c0-0.6,0.6-0.8,1.2-0.8c0.4,0,0.9,0.1,1.2,0.3l0.1-0.7c-0.4-0.2-0.9-0.2-1.4-0.3c-1.2,0-2.1,0.6-2.1,1.6
		c0,1.2,1.1,1.4,1.9,1.8c0.5,0.2,1,0.5,1,1c0,0.8-0.8,1-1.3,1c-0.5,0-1-0.1-1.4-0.3L56,28.2c0.4,0.1,0.9,0.2,1.3,0.2
		C58.7,28.4,59.7,27.9,59.7,26.6L59.7,26.6z M50.8,28.3L49.4,26l1.3-2.1h-0.9l-0.8,1.6l-0.8-1.6h-1l1.3,2.1l-1.4,2.3h1l1-1.7l1,1.7
		H50.8L50.8,28.3z M42.1,28.3c-0.3-0.1-0.4-0.3-0.4-0.6v-5.5h-0.8v5.6c0,0.4,0.2,0.6,0.6,0.6C41.7,28.4,41.9,28.4,42.1,28.3
		L42.1,28.3z M39.9,28.1v-2.6H39v2c-0.2,0.1-0.4,0.1-1,0.1c-1.3,0-2.3-0.9-2.3-2.4c0-1.4,0.9-2.3,2.3-2.3c0.7,0,1.3,0.2,1.7,0.4
		l0.1-0.9c-0.6-0.2-1.2-0.3-1.8-0.3c-1.8,0-3.2,1.3-3.2,3.1c0,1.9,1.3,3.2,3.2,3.2C39,28.4,39.5,28.2,39.9,28.1L39.9,28.1z
		 M55.3,26.1c0-1.3-0.8-2.3-2.1-2.3c-1.4,0-2.1,1-2.1,2.3c0,1.3,0.8,2.3,2.1,2.3C54.5,28.4,55.3,27.4,55.3,26.1z M54.4,26.1
		c0,0.8-0.3,1.7-1.2,1.7c-1,0-1.3-0.9-1.3-1.7c0-0.8,0.4-1.6,1.3-1.6C54,24.4,54.4,25.3,54.4,26.1z M46.3,28.3c0-0.1,0-0.4,0-0.9
		v-1.8c0-1.2-0.5-1.8-1.7-1.8c-0.5,0-1,0.1-1.4,0.4l0.1,0.7c0.3-0.3,0.8-0.4,1.2-0.5c0.8,0,1,0.4,1,1.2c-0.3,0-0.5,0-0.8,0
		c-0.8,0-1.9,0.4-1.9,1.4c0,1,0.6,1.4,1.5,1.4c0.7,0,1.1-0.4,1.3-0.7h0v0.6L46.3,28.3L46.3,28.3z M45.4,26.6c0,0.6-0.4,1.2-1.2,1.2
		c-0.4,0-0.7-0.3-0.7-0.7c0,0,0,0,0,0c0-0.8,1-0.8,1.4-0.8c0.2,0,0.3,0,0.5,0V26.6L45.4,26.6z"/>
</g>
</svg>
