<?xml version="1.0" encoding="utf-8"?>
<!-- Generator: Adobe Illustrator 26.0.1, SVG Export Plug-In . SVG Version: 6.00 Build 0)  -->
<svg version="1.1" id="Layer_1" xmlns="http://www.w3.org/2000/svg" xmlns:xlink="http://www.w3.org/1999/xlink" x="0px" y="0px"
	 viewBox="0 0 95 35" style="enable-background:new 0 0 95 35;" xml:space="preserve">
<g>
	<path d="M47,20.2c-0.9-0.7-2.2-1-4.1-1h-4.2l0.6,2V31h3.5c1.4,0,2.4-0.2,3.3-0.6c1.8-0.8,2.7-2.5,2.7-5.4
		C48.6,22.7,48.1,21.2,47,20.2L47,20.2z M45.1,28.8c-0.5,0.3-1.3,0.5-2.3,0.5h-1.3v-8.5h1.1c1.2,0,2.1,0.2,2.6,0.6
		C46,22,46.4,23,46.4,25C46.4,27.1,46,28.2,45.1,28.8L45.1,28.8z M70.1,27.3c0,0.1-0.1,0.2-0.1,0.3c0-0.1-0.1-0.2-0.1-0.3l-2.4-8.1
		h-2.1l0.6,2.1l-1.9,6.1c0,0.1,0,0.1-0.1,0.2c0-0.1,0-0.2-0.1-0.3l-2.4-8.2h-2.2L63.1,31h2l2-6.6L69,31h2l3.4-11.8h-2.1L70.1,27.3z
		 M14.4,19.2H11l0.6,2L8.3,31h2.2l0.8-2.5h4.2l0.9,2.5h2.3L14.4,19.2z M11.9,26.7l1.4-4.3c0-0.1,0.1-0.2,0.1-0.3
		c0,0.1,0.1,0.2,0.1,0.3l1.5,4.3H11.9z M54.7,19c-3.2,0-4.9,2.2-4.9,6.1s1.7,6.1,4.9,6.1s4.9-2.2,4.9-6.1C59.6,21.2,57.9,19,54.7,19
		L54.7,19z M54.7,29.4c-1.1,0-2.6-0.4-2.6-4.3s1.5-4.3,2.6-4.3s2.6,0.4,2.6,4.3S55.8,29.4,54.7,29.4z M0.6,19.2V31h6.8l0.5-1.6H2.8
		V19.2H0.6z M26.8,27.1c-0.1-0.2-0.2-0.3-0.4-0.6l-5.3-7.3H19l0.6,2V31h1.9v-7.9c0.1,0.2,0.2,0.3,0.3,0.5l5.3,7.3h1.6V19.2h-1.9
		V27.1z M82.5,27.1c-0.1-0.2-0.2-0.3-0.4-0.6l-5.3-7.3h-1.5V31h1.9v-7.9c0.1,0.2,0.2,0.3,0.3,0.5l5.3,7.3h1.6V19.2h-2.5l0.6,2V27.1z
		 M34.6,24.1c-1.2-0.4-2.3-0.8-2.3-1.9c0-1.3,1.4-1.5,2.2-1.5c0.7,0,1.5,0.1,2.3,0.4l0.5-1.6h-0.1c-0.8-0.3-1.9-0.4-2.8-0.4
		c-2.6,0-4.2,1.3-4.2,3.4c0,2.4,1.8,3,3.4,3.5c1.3,0.4,2.3,0.8,2.3,2c0,1-0.8,1.6-2.3,1.6c-0.9,0-2-0.3-2.8-0.7l-0.6,1.7h0.1
		c1,0.4,2.2,0.7,3.4,0.7c1.4,0,2.6-0.4,3.3-1.1c0.6-0.6,0.9-1.4,0.9-2.4C38,25.3,36.2,24.6,34.6,24.1 M16.6,4h-3.5l0.6,2l-3.2,9.8
		h2.2l0.8-2.5h4.2l0.9,2.5h2.3L16.6,4z M14.1,11.5l1.4-4.3c0-0.1,0.1-0.2,0.1-0.3c0,0.1,0.1,0.2,0.1,0.3l1.5,4.3H14.1z M65.7,4h-3.5
		l0.6,2l-3.2,9.8h2.2l0.8-2.5h4.2l0.9,2.5H70L65.7,4z M63.2,11.5l1.4-4.3c0-0.1,0.1-0.2,0.1-0.3c0,0.1,0.1,0.2,0.1,0.3l1.5,4.3H63.2
		z M74.5,15.8L78,4h-2.2l-2.2,8.3l-0.1,0.4l-0.1-0.4L70.6,4h-2.3l4,11.8H74.5z M36.8,9.9l0.5,1.6h1.2v2.1c-0.6,0.4-1.3,0.6-2,0.6
		c-1.9,0-2.9-1.5-2.9-4.5c0-2.7,1-4.2,2.7-4.2c1.1,0,1.8,0.6,2.1,1.8v0.1L40.6,7V6.8c-0.4-2-1.9-3.2-4.3-3.2c-3.2,0-5,2.2-5,6.1
		s1.7,6.1,4.8,6.1c1.1,0,2.1-0.3,2.8-0.8l0.4,0.7h1.3V9.9H36.8z M30.2,14.1c-0.4,0-0.7-0.1-0.9-0.6l0.2,0.3l-0.2-0.3v-0.1l-0.9-1.7
		L28,11c1.6-0.5,2.4-1.7,2.4-3.6c0-1.2-0.4-2.2-1.3-2.8C28.2,4.2,27.2,4,25.6,4h-4.4l0.6,2v9.8H24v-4.4h1.7l0.4,0.8l0.3,0.5l0.9,1.5
		c0.7,1.1,1.2,1.6,2.2,1.6c0.4,0,0.8-0.1,1.1-0.3v-1.6C30.5,14.1,30.3,14.1,30.2,14.1L30.2,14.1z M25.7,9.9H24V5.6h1.4
		c1.1,0,1.8,0.2,2.1,0.5C27.8,6.4,28,7,28,7.6C28.1,9.2,27.3,9.9,25.7,9.9L25.7,9.9z M50.5,14.1c-0.4,0-0.7-0.1-0.9-0.6l0.2,0.3
		l-0.2-0.3v-0.1l-0.9-1.7L48.3,11c1.6-0.5,2.4-1.7,2.4-3.6c0-1.2-0.4-2.2-1.3-2.8C48.6,4.2,47.5,4,45.9,4h-4.4l0.6,2v9.8h2.2v-4.4
		H46l0.4,0.8l0.3,0.5l0.9,1.5c0.7,1.1,1.2,1.6,2.2,1.6c0.4,0,0.8-0.1,1.1-0.3v-1.6C50.8,14.1,50.7,14.1,50.5,14.1L50.5,14.1z
		 M46,9.9h-1.7V5.6h1.4c1.1,0,1.8,0.2,2.1,0.5s0.5,0.9,0.5,1.5C48.4,9.2,47.6,9.9,46,9.9L46,9.9z M7.3,4v5H2.8V4H0l0.6,2v9.8h2.2v-5
		h4.5v5h2.2V4H7.3z M91.6,8.9c-1.2-0.4-2.3-0.8-2.3-1.9c0-1.3,1.4-1.5,2.2-1.5c0.7,0,1.5,0.1,2.3,0.4l0.5-1.6h-0.1
		c-0.8-0.3-1.9-0.4-2.8-0.4c-2.6,0-4.2,1.3-4.2,3.4c0,2.4,1.8,3,3.4,3.6c1.3,0.4,2.3,0.8,2.3,2c0,1-0.8,1.6-2.3,1.6
		c-0.9,0-2-0.3-2.8-0.7l-0.6,1.7h0.1c1,0.4,2.2,0.7,3.4,0.7c1.4,0,2.6-0.4,3.3-1.1c0.6-0.6,0.9-1.4,0.9-2.4
		C95,10.1,93.2,9.4,91.6,8.9 M79,3.9v11.9h6.9l0.5-1.7h-5.2v-3.5h4L85.7,9h-4.5V5.6h5L86.7,4L79,3.9z M52.5,3.9v11.9h6.2l0.5-1.7
		h-4.5v-3.5h4L59.1,9h-4.5V5.6h5L60.1,4L52.5,3.9z"/>
</g>
</svg>
