<?xml version="1.0" encoding="utf-8"?>
<!-- Generator: Adobe Illustrator 26.0.1, SVG Export Plug-In . SVG Version: 6.00 Build 0)  -->
<svg version="1.1" id="Layer_1" xmlns="http://www.w3.org/2000/svg" xmlns:xlink="http://www.w3.org/1999/xlink" x="0px" y="0px"
	 viewBox="0 0 95 35" style="enable-background:new 0 0 95 35;" xml:space="preserve">
<style type="text/css">
	.st0{fill:#343741;}
</style>
<path class="st0" d="M38.4,30.3l12.8-12.8L38.4,4.7V30.3z M12.8,4.7l12.8,12.8L38.4,4.7H12.8z M12.8,4.7L0,17.5l12.8,12.8V4.7z
	 M38.4,30.3L25.6,17.5L12.8,30.3H38.4z"/>
<path class="st0" d="M62.4,18.3h-4.6v4.6h-2.3V12.1h2.3v4.4h4.6v-4.4h2.3v10.7h-2.3V18.3z M70.3,23c-2.3,0-4.2-0.9-4.2-3.5h2.3
	c0,1.1,0.7,1.8,2,1.8c0.9,0,2-0.5,2-1.5c0-0.8-0.7-1.1-1.9-1.4l-0.8-0.2c-1.7-0.5-3.4-1.1-3.4-3.1c0-2.4,2.2-3.2,4.2-3.2
	c2.1,0,3.9,0.7,3.9,3.1h-2.3c-0.1-1-0.7-1.5-1.7-1.5c-0.9,0-1.7,0.5-1.7,1.4c0,0.8,0.7,1,2.2,1.5l0.9,0.3c1.8,0.6,3,1.2,3,3
	C74.7,22.1,72.4,23,70.3,23z M76.1,12.2h3.7c0.7,0,1.4,0,2.1,0.1c1.3,0.3,2.3,1.1,2.3,2.6c0,1.4-0.9,2.1-2.1,2.4
	c1.4,0.3,2.5,1,2.5,2.6c0,2.4-2.4,3-4.3,3h-4.2L76.1,12.2z M79.8,16.6c1,0,2.1-0.2,2.1-1.4c0-1.1-1-1.4-1.9-1.4h-1.6v2.9H79.8z
	 M80,21.2c1.1,0,2.1-0.2,2.1-1.6s-0.9-1.6-2-1.6h-1.8v3.1H80z M90.6,23c-3.5,0-5-2.2-5-5.5s1.7-5.7,5.1-5.7c2.1,0,4.2,1,4.3,3.4
	h-2.4c-0.1-1.1-0.8-1.6-1.9-1.6c-2.1,0-2.7,2.3-2.7,4s0.6,3.7,2.6,3.7c1.1,0,1.8-0.6,2-1.7H95C94.8,22.1,92.8,23,90.6,23L90.6,23z"
	/>
</svg>
