<?xml version="1.0" encoding="utf-8"?>
<!-- Generator: Adobe Illustrator 26.0.1, SVG Export Plug-In . SVG Version: 6.00 Build 0)  -->
<svg version="1.1" id="Layer_1" xmlns="http://www.w3.org/2000/svg" xmlns:xlink="http://www.w3.org/1999/xlink" x="0px" y="0px"
	 viewBox="0 0 95 35" style="enable-background:new 0 0 95 35;" xml:space="preserve">
<style type="text/css">
	.st0{fill:#343741;}
</style>
<g>
	<g id="XMLID_44_">
		<path id="XMLID_38_" class="st0" d="M13.5,26.3l-2.4-9.1l0-0.1h2.5c0.5,0,0.8,0.3,0.8,0.3s5.9,6.5,7.5,7.8c1.3,1,2.1,1.1,2.7,1.1
			c0.4,0,1,0,1,0L18.1,8.6h-4.6L6.1,26.3H13.5z"/>
	</g>
	<rect id="XMLID_37_" y="8.6" class="st0" width="4.8" height="17.7"/>
	<g id="XMLID_43_">
		<path id="XMLID_36_" class="st0" d="M24.3,17.6L24.3,17.6c0-5.2,3.9-9.2,9.3-9.2c3,0,5.2,1,7,2.6l-2.8,3.4
			c-1.2-1.1-2.5-1.7-4.1-1.7c-2.5,0-4.4,2.1-4.4,4.8v0.1c0,2.8,1.9,4.9,4.7,4.9c1.2,0,2-0.3,2.7-0.7v-2.1h-3.4V16h7.9v7.9
			c-1.8,1.5-4.3,2.7-7.5,2.7C28.3,26.6,24.3,22.9,24.3,17.6"/>
	</g>
	<rect id="XMLID_35_" x="45.1" y="9" class="st0" width="0.5" height="4.3"/>
	<polygon id="XMLID_34_" class="st0" points="49.8,9 50.3,9 50.3,13.4 49.9,13.4 47.2,9.8 47.2,13.4 46.7,13.4 46.7,9 47.2,9 
		49.8,12.5 	"/>
	<polygon id="XMLID_33_" class="st0" points="53,13.4 52.5,13.4 52.5,9.5 51.1,9.5 51.1,9 54.4,9 54.4,9.5 53,9.5 	"/>
	<polygon id="XMLID_32_" class="st0" points="58.3,9.5 55.7,9.5 55.7,11 58,11 58,11.4 55.7,11.4 55.7,12.9 58.3,12.9 58.3,13.4 
		55.3,13.4 55.3,9 58.3,9 	"/>
	<g id="XMLID_42_">
		<path class="st0" d="M61,9.5h-1.3v1.8H61c0.6,0,1.1-0.3,1.1-0.9C62.1,9.8,61.7,9.5,61,9.5 M62.1,13.4l-1.2-1.7h-1.2v1.7h-0.5V9H61
			c0.9,0,1.5,0.5,1.5,1.3c0,0.7-0.5,1.1-1.2,1.3l1.3,1.8H62.1z"/>
	</g>
	<polygon id="XMLID_29_" class="st0" points="66.6,9 67.1,9 67.1,13.4 66.7,13.4 64,9.8 64,13.4 63.5,13.4 63.5,9 64,9 66.6,12.5 	
		"/>
	<path class="st0" d="M69.9,9.6l-1,2.2h1.9L69.9,9.6z M72.1,13.4h-0.5l-0.5-1.1h-2.3l-0.5,1.1h-0.5L69.7,9h0.4L72.1,13.4z"/>
	<polygon id="XMLID_26_" class="st0" points="73.8,13.4 73.3,13.4 73.3,9.5 71.9,9.5 71.9,9 75.2,9 75.2,9.5 73.8,9.5 	"/>
	<rect id="XMLID_25_" x="76" y="9" class="st0" width="0.5" height="4.3"/>
	<g id="XMLID_41_">
		<path class="st0" d="M79.6,9.4c-1,0-1.7,0.8-1.7,1.8c0,1,0.7,1.8,1.7,1.8c1,0,1.7-0.8,1.7-1.8C81.3,10.2,80.6,9.4,79.6,9.4
			 M79.6,13.5c-1.3,0-2.2-1-2.2-2.2c0-1.2,0.9-2.3,2.2-2.3c1.3,0,2.2,1,2.2,2.2C81.8,12.4,80.9,13.5,79.6,13.5"/>
	</g>
	<polygon id="XMLID_22_" class="st0" points="85.9,9 86.3,9 86.3,13.4 85.9,13.4 83.2,9.8 83.2,13.4 82.7,13.4 82.7,9 83.2,9 
		85.9,12.5 	"/>
	<path class="st0" d="M89.2,9.6l-1,2.2h1.9L89.2,9.6z M91.4,13.4h-0.5l-0.5-1.1h-2.3l-0.5,1.1h-0.5L89,9h0.4L91.4,13.4z"/>
	<polygon id="XMLID_19_" class="st0" points="92.1,9 92.6,9 92.6,12.9 95,12.9 95,13.4 92.1,13.4 	"/>
	<path class="st0" d="M46.2,15.8l-1,2.2h1.9L46.2,15.8z M48.3,19.6h-0.5l-0.5-1.1H45l-0.5,1.1H44l1.9-4.4h0.4L48.3,19.6z"/>
	<rect id="XMLID_16_" x="49.3" y="15.2" class="st0" width="0.5" height="4.3"/>
	<g id="XMLID_40_">
		<path class="st0" d="M52.9,15.7h-1.3v1.8h1.3c0.6,0,1.1-0.3,1.1-0.9C54,16,53.6,15.7,52.9,15.7 M54,19.6l-1.2-1.7h-1.2v1.7h-0.5
			v-4.3h1.8c0.9,0,1.5,0.5,1.5,1.3c0,0.7-0.5,1.1-1.2,1.3l1.3,1.8H54z"/>
	</g>
	<polygon id="XMLID_13_" class="st0" points="55.6,15.2 56,15.2 56,19.1 58.4,19.1 58.4,19.6 55.6,19.6 	"/>
	<rect id="XMLID_12_" x="59.2" y="15.2" class="st0" width="0.5" height="4.3"/>
	<polygon id="XMLID_11_" class="st0" points="64.2,15.2 64.7,15.2 64.7,19.6 64.3,19.6 61.5,16 61.5,19.6 61.1,19.6 61.1,15.2 
		61.5,15.2 64.2,18.7 	"/>
	<polygon id="XMLID_10_" class="st0" points="69.1,15.7 66.5,15.7 66.5,17.2 68.8,17.2 68.8,17.6 66.5,17.6 66.5,19.1 69.1,19.1 
		69.1,19.6 66,19.6 66,15.2 69.1,15.2 	"/>
	<g id="XMLID_39_">
		<path id="XMLID_9_" class="st0" d="M71.7,17.2c0.9,0.2,1.4,0.6,1.4,1.2c0,0.8-0.6,1.2-1.4,1.2c-0.7,0-1.2-0.2-1.7-0.7l0.3-0.4
			c0.4,0.4,0.9,0.6,1.5,0.6c0.6,0,0.9-0.3,0.9-0.7c0-0.4-0.2-0.6-1.1-0.8c-1-0.2-1.4-0.5-1.4-1.3c0-0.7,0.6-1.2,1.4-1.2
			c0.6,0,1.1,0.2,1.5,0.5l-0.3,0.4c-0.4-0.3-0.8-0.5-1.2-0.5c-0.6,0-0.9,0.3-0.9,0.7C70.5,16.7,70.8,17,71.7,17.2"/>
		<path id="XMLID_8_" class="st0" d="M46.4,25.8c-1.3,0-2.2-1-2.2-2.2c0-1.2,0.9-2.3,2.1-2.3c0.7,0,1.2,0.2,1.6,0.6l-0.3,0.4
			c-0.3-0.3-0.7-0.5-1.3-0.5c-0.9,0-1.6,0.8-1.6,1.8c0,1,0.6,1.8,1.7,1.8c0.5,0,0.9-0.2,1.2-0.4v-1.1h-1.3v-0.4h1.8v1.7
			C47.7,25.5,47.1,25.8,46.4,25.8"/>
		<path class="st0" d="M51.1,21.9h-1.3v1.8H51c0.6,0,1.1-0.3,1.1-0.9C52.1,22.2,51.7,21.9,51.1,21.9 M52.2,25.8L51,24.1h-1.2v1.7
			h-0.5v-4.3h1.8c0.9,0,1.5,0.5,1.5,1.3c0,0.7-0.5,1.1-1.2,1.3l1.3,1.8H52.2z"/>
		<path class="st0" d="M55.7,21.8c-1,0-1.7,0.8-1.7,1.8c0,1,0.7,1.8,1.7,1.8c1,0,1.7-0.8,1.7-1.8C57.4,22.6,56.7,21.8,55.7,21.8
			 M55.7,25.8c-1.3,0-2.2-1-2.2-2.2c0-1.2,0.9-2.3,2.2-2.3c1.3,0,2.2,1,2.2,2.2C57.9,24.8,57,25.8,55.7,25.8"/>
		<path id="XMLID_3_" class="st0" d="M62.4,23.9c0,1.3-0.7,1.9-1.8,1.9c-1,0-1.8-0.7-1.8-1.9v-2.5h0.5v2.5c0,0.9,0.5,1.5,1.3,1.5
			c0.8,0,1.3-0.5,1.3-1.4v-2.5h0.5V23.9z"/>
		<path class="st0" d="M65.2,21.9h-1.1v1.9h1c0.7,0,1.2-0.4,1.2-1C66.4,22.2,65.9,21.9,65.2,21.9 M65.2,24.2h-1v1.5h-0.5v-4.3h1.6
			c1,0,1.6,0.5,1.6,1.4C66.9,23.8,66.1,24.2,65.2,24.2"/>
	</g>
</g>
</svg>
