<?xml version="1.0" encoding="utf-8"?>
<!-- Generator: Adobe Illustrator 26.0.1, SVG Export Plug-In . SVG Version: 6.00 Build 0)  -->
<svg version="1.1" id="Layer_1" xmlns="http://www.w3.org/2000/svg" xmlns:xlink="http://www.w3.org/1999/xlink" x="0px" y="0px"
	 viewBox="0 0 95 35" style="enable-background:new 0 0 95 35;" xml:space="preserve">
<style type="text/css">
	.st0{fill:#343741;}
</style>
<g>
	<path class="st0" d="M6.6,0.7v7.8h6.7l-6.7,6.7v19.2h7.8V0.7L6.6,0.7z M72.9,21.7h7.2v6.1c-0.9,0.3-2.3,0.4-3.6,0.4
		c-7.4,0-11.9-4-11.9-10.7c0-6.4,4.2-10.5,10.5-10.5c3.8,0,6.2,1.2,8.1,3l5.3-5.3C85.1,1.4,80.6,0,75.1,0C64.2,0,56.6,7.2,56.6,17.6
		c0,10.5,7.7,17.4,19.5,17.4c1.7,0,4.1-0.2,5.7-0.5l5.7-5.7V15.5H79L72.9,21.7z M39.9,7c3.4,0,5.7,1,7.7,3L53,4.7
		C49.5,1.5,45.2,0,39.9,0C29.2,0,21.7,7.2,21.7,17.6C21.7,27.8,29.2,35,40,35c4.9,0,9-1.4,10.8-2.7v-7.6c-2.5,1.8-6.3,3.2-10.3,3.2
		c-6.6,0-10.9-4-10.9-10.4C29.6,11.2,33.6,7,39.9,7"/>
</g>
</svg>
