<?xml version="1.0" encoding="utf-8"?>
<!-- Generator: Adobe Illustrator 26.0.1, SVG Export Plug-In . SVG Version: 6.00 Build 0)  -->
<svg version="1.1" id="Layer_1" xmlns="http://www.w3.org/2000/svg" xmlns:xlink="http://www.w3.org/1999/xlink" x="0px" y="0px"
	 viewBox="0 0 95 35" style="enable-background:new 0 0 95 35;" xml:space="preserve">
<style type="text/css">
	.st0{fill:#FFFFFF;}
</style>
<path class="st0" d="M27.2,27.4V27h0.4v-2.8c0-0.1,0-0.1-0.1-0.1h-0.2v-0.4h1.4V24h-0.4v2.8c0,0.1,0.1,0.1,0.2,0.1h0.2v0.4"/>
<path class="st0" d="M30.8,27.4V27h0.3v-1.6c0-0.3-0.1-0.4-0.4-0.4c-0.2,0-0.5,0.1-0.7,0.3v1.6c0,0.1,0,0.1,0.1,0.1h0.2v0.4h-1.2V27
	h0.3v-2.1h-0.3l-0.1-0.4c0.3,0,0.6,0,0.8,0c0.1,0,0.1,0,0.1,0.1v0.2c0.2-0.2,0.6-0.4,0.9-0.4c0.2,0,0.4,0.1,0.6,0.2
	c0.1,0.1,0.2,0.4,0.2,0.6v1.5c0,0.1,0.1,0.1,0.1,0.1H32v0.4"/>
<path class="st0" d="M33.5,27.4c-0.3,0-0.6-0.1-0.7-0.3c-0.1-0.2-0.1-0.4-0.1-0.7v-1.5h-0.3v-0.4h0.3v-0.4c0-0.1,0-0.2,0.1-0.2
	l0.4-0.1v0.7h0.6l0.1,0.4h-0.6v1.5c0,0.4,0.1,0.6,0.4,0.6c0.1,0,0.3,0,0.3-0.1v0.4C33.8,27.4,33.7,27.4,33.5,27.4"/>
<path class="st0" d="M35.6,24.9c-0.3,0-0.6,0.3-0.6,0.8h1.1l0-0.1C36.1,25.1,35.9,24.9,35.6,24.9 M36.7,26H35c0,0.6,0.3,1,0.7,1
	c0.3,0,0.5-0.1,0.7-0.3l0.2,0.3c-0.2,0.2-0.6,0.4-1,0.4c-0.9,0-1.2-0.7-1.2-1.5c0-0.5,0.1-0.9,0.4-1.1c0.2-0.2,0.5-0.3,0.9-0.3
	c0.6,0,1.1,0.4,1.1,1.4C36.7,25.9,36.7,26,36.7,26z"/>
<path class="st0" d="M38.8,25c-0.4,0-0.6,0.2-0.7,0.3v1.6c0,0.1,0,0.1,0.1,0.1h0.2v0.4h-1.2V27h0.3v-2.1h-0.3l-0.1-0.4
	c0.3,0,0.6,0,0.8,0c0.1,0,0.1,0,0.1,0.1v0.2c0.2-0.2,0.4-0.4,0.7-0.4c0.1,0,0.2,0,0.2,0.2V25C38.9,25,38.8,25,38.8,25"/>
<path class="st0" d="M40.8,27.4c-0.9,0-1.5-0.7-1.5-1.9c0-1.2,0.6-2,1.6-2c0.3,0,0.6,0.1,0.8,0.3l0-0.2H42v1.3h-0.2
	c-0.1,0-0.2,0-0.2-0.1l0-0.2c0-0.3-0.3-0.5-0.7-0.5c-0.6,0-1,0.6-1,1.4c0,1.1,0.4,1.5,1,1.5c0.4,0,0.7-0.2,0.9-0.4l0.2,0.3
	C41.7,27.2,41.3,27.4,40.8,27.4"/>
<path class="st0" d="M43.7,24.9c-0.6,0-0.6,0.6-0.6,1c0,0.4,0.1,1,0.6,1c0.6,0,0.6-0.6,0.6-1C44.3,25.5,44.2,24.9,43.7,24.9
	 M43.7,27.4c-0.9,0-1.2-0.7-1.2-1.5c0-0.8,0.3-1.5,1.2-1.5c0.9,0,1.2,0.6,1.2,1.5C44.9,26.7,44.6,27.4,43.7,27.4z"/>
<path class="st0" d="M47,27.4V27h0.3v-1.6c0-0.3-0.1-0.4-0.4-0.4c-0.2,0-0.5,0.1-0.7,0.3v1.6c0,0.1,0,0.1,0.1,0.1h0.2v0.4h-1.2V27
	h0.3v-2.1h-0.3l-0.1-0.4c0.3,0,0.6,0,0.8,0c0.1,0,0.1,0,0.1,0.1v0.2c0.2-0.2,0.6-0.4,0.9-0.4c0.2,0,0.4,0.1,0.6,0.2
	c0.1,0.1,0.2,0.4,0.2,0.6v1.5c0,0.1,0.1,0.1,0.1,0.1h0.2v0.4"/>
<path class="st0" d="M49.7,27.4c-0.3,0-0.6-0.1-0.7-0.3c-0.1-0.2-0.1-0.4-0.1-0.7v-1.5h-0.3v-0.4h0.3v-0.4c0-0.1,0-0.2,0.1-0.2
	l0.5-0.1v0.7H50l0.1,0.4h-0.6v1.5c0,0.4,0.1,0.6,0.4,0.6c0.1,0,0.3,0,0.3-0.1v0.4C50.1,27.4,49.9,27.4,49.7,27.4"/>
<path class="st0" d="M51.3,24.1c-0.2,0-0.3-0.1-0.3-0.3s0.2-0.3,0.3-0.3c0.2,0,0.3,0.1,0.3,0.3C51.6,23.9,51.4,24.1,51.3,24.1
	 M50.7,27.4V27H51v-2.1h-0.3l-0.1-0.4c0.3,0,0.6,0,0.8,0c0.1,0,0.1,0,0.1,0.1v2.2c0,0.1,0,0.1,0.1,0.1h0.2v0.4H50.7z"/>
<path class="st0" d="M54,27.4V27h0.3v-1.6c0-0.3-0.1-0.4-0.4-0.4c-0.2,0-0.5,0.1-0.7,0.3v1.6c0,0.1,0,0.1,0.1,0.1h0.2v0.4h-1.2V27
	h0.3v-2.1h-0.3l-0.1-0.4c0.3,0,0.6,0,0.8,0c0.1,0,0.1,0,0.1,0.1v0.2c0.2-0.2,0.6-0.4,0.9-0.4c0.2,0,0.4,0.1,0.6,0.2
	c0.1,0.1,0.2,0.4,0.2,0.6v1.5c0,0.1,0.1,0.1,0.1,0.1h0.2v0.4"/>
<path class="st0" d="M56.9,24.9c-0.3,0-0.6,0.3-0.6,0.8h1.1l0-0.1C57.3,25.1,57.1,24.9,56.9,24.9 M57.9,26h-1.7c0,0.6,0.3,1,0.7,1
	c0.3,0,0.5-0.1,0.7-0.3l0.2,0.3c-0.2,0.2-0.6,0.4-1,0.4c-0.9,0-1.2-0.7-1.2-1.5c0-0.5,0.1-0.9,0.4-1.1c0.2-0.2,0.5-0.3,0.9-0.3
	c0.6,0,1.1,0.4,1.1,1.4C57.9,25.9,57.9,26,57.9,26z"/>
<path class="st0" d="M60,27.4V27h0.3v-1.6c0-0.3-0.1-0.4-0.4-0.4c-0.2,0-0.5,0.1-0.7,0.3v1.6c0,0.1,0,0.1,0.1,0.1h0.2v0.4h-1.2V27
	h0.3v-2.1h-0.3l-0.1-0.4c0.3,0,0.6,0,0.8,0c0.1,0,0.1,0,0.1,0.1v0.2c0.2-0.2,0.6-0.4,0.9-0.4c0.2,0,0.4,0.1,0.6,0.2
	c0.1,0.1,0.2,0.4,0.2,0.6v1.5c0,0.1,0.1,0.1,0.1,0.1h0.2v0.4"/>
<path class="st0" d="M62.8,27.4c-0.3,0-0.6-0.1-0.7-0.3c-0.1-0.2-0.1-0.4-0.1-0.7v-1.5h-0.3v-0.4h0.3v-0.4c0-0.1,0-0.2,0.1-0.2
	l0.5-0.1v0.7H63l0.1,0.4h-0.6v1.5c0,0.4,0.1,0.6,0.4,0.6c0.1,0,0.3,0,0.3-0.1v0.4C63.1,27.4,62.9,27.4,62.8,27.4"/>
<path class="st0" d="M65.1,26c-0.5,0-0.9,0.2-0.9,0.6c0,0.3,0.1,0.5,0.4,0.5c0.2,0,0.4-0.1,0.5-0.2 M65.6,27.4
	c-0.2,0-0.3-0.1-0.4-0.2c-0.1,0.1-0.4,0.3-0.7,0.3c-0.5,0-0.9-0.3-0.9-0.9c0-0.7,0.7-1,1.5-1v-0.1c0-0.2,0-0.3-0.1-0.4
	c-0.1-0.1-0.3-0.2-0.4-0.2c-0.3,0-0.5,0.1-0.8,0.2v-0.4c0.3-0.1,0.6-0.2,0.8-0.2c0.6,0,1,0.2,1,1v1.4c0,0.1,0,0.1,0.1,0.1H66v0.4
	H65.6z"/>
<path class="st0" d="M66.5,27.4V27h0.3v-3.5h-0.3l-0.1-0.4c0.3,0,0.6,0,0.8,0c0.1,0,0.1,0,0.1,0.1v3.6c0,0.1,0,0.1,0.1,0.1h0.2v0.4"
	/>
<path class="st0" d="M29.3,33.6v-0.4h0.4V32h-1.4v1.1c0,0.1,0.1,0.1,0.1,0.1h0.2v0.4h-1.4v-0.4h0.4v-2.8c0-0.1,0-0.1-0.2-0.1h-0.2
	v-0.4h1.4v0.4h-0.4v1.3h1.4v-1.1c0-0.1,0-0.1-0.1-0.1h-0.2v-0.4h1.4v0.4h-0.4v2.8c0,0.1,0.1,0.1,0.1,0.1h0.2v0.4"/>
<path class="st0" d="M32.4,31.2c-0.6,0-0.6,0.6-0.6,1c0,0.4,0.1,1,0.6,1c0.6,0,0.6-0.6,0.6-1C33,31.8,33,31.2,32.4,31.2 M32.4,33.7
	c-0.9,0-1.2-0.7-1.2-1.5c0-0.8,0.3-1.5,1.2-1.5s1.2,0.6,1.2,1.5C33.6,33,33.3,33.7,32.4,33.7z"/>
<path class="st0" d="M35.1,33.7c-0.3,0-0.6-0.1-0.7-0.3c-0.1-0.2-0.1-0.4-0.1-0.7v-1.5H34v-0.4h0.3v-0.4c0-0.1,0-0.2,0.1-0.2
	l0.4-0.1v0.7h0.6l0.1,0.4h-0.6v1.5c0,0.4,0.1,0.6,0.4,0.6c0.1,0,0.2,0,0.3-0.1v0.4C35.5,33.7,35.3,33.7,35.1,33.7"/>
<path class="st0" d="M37.2,31.2c-0.3,0-0.6,0.3-0.6,0.8h1.1l0-0.1C37.7,31.4,37.5,31.2,37.2,31.2 M38.3,32.3h-1.7c0,0.6,0.3,1,0.7,1
	c0.3,0,0.5-0.1,0.7-0.3l0.2,0.3c-0.2,0.2-0.6,0.4-1,0.4c-0.9,0-1.2-0.7-1.2-1.5c0-0.5,0.1-0.9,0.4-1.1c0.2-0.2,0.5-0.3,0.9-0.3
	c0.6,0,1.1,0.4,1.1,1.4C38.3,32.2,38.3,32.3,38.3,32.3z"/>
<path class="st0" d="M38.8,33.6v-0.4h0.3v-3.5h-0.3l-0.1-0.4c0.3,0,0.6,0,0.8,0c0.1,0,0.1,0,0.1,0.1v3.6c0,0.1,0,0.1,0.1,0.1H40v0.4
	"/>
<path class="st0" d="M41.5,33.7c-0.3,0-0.6-0.1-0.7-0.3l0,0.2h-0.3v-1.1h0.2c0.1,0,0.1,0,0.1,0.1l0,0.2c0,0.3,0.3,0.5,0.6,0.5
	c0.3,0,0.5-0.2,0.5-0.4c0-0.2-0.1-0.3-0.4-0.4l-0.4-0.1c-0.4-0.2-0.6-0.5-0.6-0.8c0-0.5,0.4-0.8,0.9-0.8c0.3,0,0.5,0.1,0.6,0.2
	l0-0.1h0.3v1h-0.2c-0.1,0-0.1,0-0.1-0.1l0-0.1c0-0.3-0.2-0.5-0.5-0.5c-0.3,0-0.4,0.1-0.4,0.4c0,0.2,0.1,0.3,0.4,0.4l0.4,0.2
	c0.5,0.2,0.7,0.4,0.7,0.8C42.5,33.3,42.2,33.7,41.5,33.7"/>
<path class="st0" d="M47,32.3v1.4h-0.4l-0.1-0.2c-0.1,0.1-0.5,0.2-0.9,0.2c-1,0-1.5-0.8-1.5-1.9c0-1.3,0.8-2,1.7-2
	c0.4,0,0.7,0.2,0.8,0.3l0-0.2H47v1.3h-0.2c-0.1,0-0.1-0.1-0.2-0.1l-0.1-0.3c-0.1-0.3-0.3-0.5-0.7-0.5c-0.6,0-1,0.5-1,1.5
	c0,1,0.4,1.5,1,1.5c0.3,0,0.5-0.1,0.6-0.2v-0.7c0-0.1,0-0.2-0.1-0.2H46v-0.4h1.3v0.4"/>
<path class="st0" d="M49.4,31.2c-0.4,0-0.6,0.2-0.7,0.3v1.6c0,0.1,0,0.1,0.1,0.1H49v0.4h-1.2v-0.4h0.3v-2.1h-0.3l-0.1-0.4
	c0.3,0,0.6,0,0.8,0c0.1,0,0.1,0,0.1,0.1v0.2c0.2-0.2,0.4-0.4,0.7-0.4c0.1,0,0.2,0,0.2,0.2v0.3C49.5,31.2,49.5,31.2,49.4,31.2"/>
<path class="st0" d="M51.1,31.2c-0.6,0-0.6,0.6-0.6,1c0,0.4,0.1,1,0.6,1c0.6,0,0.6-0.6,0.6-1C51.7,31.8,51.7,31.2,51.1,31.2
	 M51.1,33.7c-0.9,0-1.2-0.7-1.2-1.5c0-0.8,0.3-1.5,1.2-1.5c0.9,0,1.2,0.6,1.2,1.5C52.3,33,52,33.7,51.1,33.7z"/>
<path class="st0" d="M55.2,33.6c-0.2,0-0.4-0.1-0.5-0.3c-0.2,0.2-0.6,0.4-0.9,0.4c-0.2,0-0.4-0.1-0.6-0.2c-0.1-0.1-0.2-0.4-0.2-0.6
	v-1.7h-0.3l-0.1-0.4c0.3,0,0.6,0,0.8,0c0.1,0,0.1,0,0.1,0.1v1.9c0,0.3,0.1,0.4,0.4,0.4c0.2,0,0.5-0.1,0.7-0.3v-1.7h-0.3l-0.1-0.4
	c0.3,0,0.6,0,0.8,0c0.1,0,0.1,0,0.1,0.1v2.2c0,0.1,0.1,0.2,0.2,0.2h0.2v0.4"/>
<path class="st0" d="M57.5,31.2c-0.2,0-0.4,0.1-0.6,0.3v1.2c0,0.4,0.2,0.6,0.5,0.6c0.4,0,0.6-0.3,0.6-1.1
	C58.1,31.8,58,31.2,57.5,31.2 M57.6,33.7c-0.3,0-0.5-0.1-0.6-0.2v1c0,0.3-0.1,0.5-0.4,0.5H56v-0.4h0.2c0.1,0,0.2,0,0.2-0.1v-3.3
	h-0.3L56,30.8c0.3,0,0.6,0,0.8,0c0.1,0,0.1,0,0.1,0.1v0.1c0.2-0.2,0.5-0.3,0.8-0.3c0.6,0,1,0.6,1,1.5C58.8,33.1,58.4,33.7,57.6,33.7
	z"/>
<path class="st0" d="M50.7,10.2V9.8c0,0.1,0,0.1,0,0.2C50.7,10.1,50.7,10.1,50.7,10.2"/>
<path class="st0" d="M50.7,3.5V0.4h-6.1c0,0,0,5.5,0,7.2c-1.5,0-3.2,0-4.7,0c0-1.7,0-7.2,0-7.2h-6.1l0,19h6.1c0,0,0-6,0-7.9
	c1.5,0,3.2,0,4.7,0c0,1.9,0,7.9,0,7.9h6.1v-3c-1.4-1.7-2.3-4-2.3-6.4C48.4,7.5,49.3,5.3,50.7,3.5"/>
<path class="st0" d="M58.2,2c-4.2,0-7.4,3.4-7.5,7.7V3.5C52.5,1.4,55.1,0,58.2,0c2.8,0,5.3,1.1,7.1,3c-0.3,0.3-1.3,1.1-1.7,1.5
	C62.2,3,60.4,2,58.2,2 M67.8,9H57.4v2h8.1c-0.3,3.6-3,6.9-7.3,6.9c-4.2,0-7.4-3.4-7.5-7.7v6.2c1.8,2.2,4.4,3.5,7.5,3.5
	c5.5,0,9.6-4.4,9.6-9.9C67.8,9.6,67.8,9.2,67.8,9z"/>
<path class="st0" d="M50.7,10c0-0.1,0-0.1,0-0.2V3.5c-1.4,1.7-2.3,4-2.3,6.5s0.8,4.7,2.3,6.4v-6.2C50.7,10.1,50.7,10.1,50.7,10"/>
<rect x="27.2" y="0.4" class="st0" width="6" height="19"/>
</svg>
