<?xml version="1.0" encoding="utf-8"?>
<!-- Generator: Adobe Illustrator 26.0.1, SVG Export Plug-In . SVG Version: 6.00 Build 0)  -->
<svg version="1.1" id="Layer_1" xmlns="http://www.w3.org/2000/svg" xmlns:xlink="http://www.w3.org/1999/xlink" x="0px" y="0px"
	 viewBox="0 0 95 35" style="enable-background:new 0 0 95 35;" xml:space="preserve">
<style type="text/css">
	.st0{fill:#FFFFFF;}
</style>
<g>
	<path class="st0" d="M65.6,12.3c-0.3-2.3-1.1-3.8-1.3-4.5C64,7.2,62.4,4.5,61.8,4c-0.5-0.6-1.4-1.5-1.9-1.9C59.7,2,57,0.9,56.4,0.7
		c-0.3-0.1-3.6-0.7-4-0.7c-0.2,0.1-1.3,0-1.3,0c-0.2-0.1-2.2,0.4-2.5,0.5c-0.4,0.1-1.8,0.2-1.9,0.2c-0.2,0-1.1,0-3.2,0.9
		c-2.1,0.9-4.8,2.2-5.5,3.1c-1.6,1.8-4.1,4.1-4.5,4.5c-0.5,0.5-1.3,1.9-1.8,2.8c-0.5,1.1-0.9,2.6-1.1,3.1c-0.3,0.8-0.9,3.3-1,3.8
		c0,0.5-0.2,1.4-0.1,2.4c0,0.1,0.1,0.6,0.3,0.7c0.1,0,0.1,0,0.2,0.1c0.1,0.1,0.3,1,0.4,1.5c0.1,0.6,0.2,1.2,0.2,1.4
		c0,0.1,0,0.2,0.1,0.4c0.1,0.5,0.2,2,0.8,2.5c0.1,0.3,1.2,2.2,1.6,2.6c0.3,0.3,1.3,0.8,1.8,1c0.4,0.2,1.7,1,2.4,1.3
		c0.4,0.2,1,0.5,1.4,0.5c0.3,0,0.4,0.3,0.7,0.2c0.2,0,0.4,0.1,0.3,0.1c-0.2,0.1-0.2,0-0.4,0.1c-0.4,0.2-1.3-0.2-1.4,0
		c-0.1,0.4,0.3,0.3,0.5,0.5c0.4,0.4,4.7,0.8,5.1,0.7c0.3-0.1,3.5-0.2,3.8-0.4c0.6-0.2,1.1,0,1.7-0.3c0.6-0.2,2.5-0.3,3.1-0.8
		c1-0.6,2.7-1,3.2-1.3c0.4-0.1,3-2.3,3.6-3c0.6-0.7,2.2-2.9,2.2-3.1c0.6-0.6,1.7-2.5,2-2.8c0.3-1.1,0.7-1.2,1.1-1.9
		c0.2-0.8,1.1-3.8,0.9-5.7c0-0.8-0.2-1.3-0.1-1.4c0,0,0.2-0.1,0.3,0.1c0,0.1,0.1,0.2,0.1,0.2c0.1,0,0.2-0.1,0.3-0.5
		C65.7,13.4,65.6,12.3,65.6,12.3z M57.3,26.5c-0.3,1.6-1.6,2.6-4,3.1l0,0h0c-1,0-2.3-0.4-2.9-1.5l0,0c-0.6-0.8-0.6-1.7-0.6-2.6
		c0-0.1,0-0.2,0-0.3v-0.3c0-0.3,0-0.7,0-1l0,0l0,0c0-0.5,0.3-1.6,0.3-2.2c0-1-0.1-1.4-0.1-2.6c-0.1-0.3-0.2-0.6-0.4-0.9
		c-0.2-0.5-0.5-1-0.5-1.5c0-0.3,0.1-0.6,0.3-0.9l0,0l0,0c0.7-0.5,1.5-0.5,2.4-0.5c0.3,0,0.7,0,1-0.1c0.9-0.2,1.6-0.2,2.5-0.2l0,0
		c0.3,0,0.5,0,0.8,0.1c0.2,0.1,0.4,0.1,0.6,0.1l0,0l0,0c0.2,0.1,0.6,0.2,0.6,0.5v0c0,0.1,0,0.2,0,0.3c0,0.4-0.2,0.8-0.4,1.2
		c-0.1,0.3-0.3,0.5-0.3,0.8l0,0c0,0-1.2,5-1.2,5.1l0,0.2c0,0.1,0,0.2,0,0.3c0,0.4,0,0.9,0.3,1.3c0.1,0.1,0.3,0.1,0.5,0.2
		c0.3,0.1,0.7,0.2,0.8,0.6c0.3,0.2,0.4,0.5,0.4,0.7C57.3,26.4,57.3,26.5,57.3,26.5z M59.4,12.1c-2,1.5-3.8,2.2-6.9,2.2l0,0L50.3,14
		l0,0c-0.5-0.2-1-0.2-1.4-0.5c-0.4-0.2-0.9-0.5-1.4-0.7c-0.3,0.2-0.4,0.6-0.5,0.9c0,0,0,0.1,0,0.1c0,0.3-0.2,0.6-0.3,0.9
		c-0.2,0.3-0.3,0.6-0.3,0.9c0,0.2,0.1,0.4,0.2,0.5l0,0l0,0c0.2,0.3,0.5,0.5,0.8,0.7c0.3,0.2,0.7,0.4,0.9,0.8l0,0l0,0
		c0.1,0.4,0.3,0.7,0.5,1c0.3,0.5,0.4,1,0.4,1.7c0,0.1,0,0.1,0,0.2l-0.1,0.6c-0.1,0.8,0,1.7-0.4,2.4c-1,2.4-3.4,3.8-5.1,4.6
		c-0.8,0.4-1.7,0.5-2.7,0.3c-0.8,0.2-1.4-0.2-2.1-0.6c-0.4-0.2-0.7-0.4-1.1-0.5l-0.1,0l0-0.1c0-0.3-0.1-0.5-0.3-0.8
		c-0.2-0.4-0.5-0.8-0.2-1.3l0,0l0.1-0.3c0.2-0.8,0.5-1.6,1.2-2l0,0l0.4-0.2c0.6-0.2,1.3-0.5,1.9,0.1l0,0l0.1,0.1
		c0.3,0.4,0.6,0.9,1.1,1c0.3-0.1,0.6-0.4,0.8-0.7c0.1-0.2,0.3-0.3,0.4-0.4c0-0.2,0.1-0.5,0.1-0.7c0-1.2-0.5-2.4-1.4-3.1
		c-1.3-0.7-2-1.9-2.1-3.2l0,0l0,0c0.2-0.6,0.8-1,1.3-1.4c0.7-0.6,1.3-1.1,1.3-2c-0.1-0.1-0.3-0.2-0.5-0.3c-0.1,0-0.3-0.1-0.4-0.2
		c-1,0.7-2.6,1.2-3.7,0.6l0,0l0,0c-0.4-0.4-0.7-0.7-0.7-1.3l0,0l0,0c0.1-0.5,0.3-0.9,0.6-1.4c0.2-0.3,0.3-0.7,0.5-1l0,0l0,0
		c0.2-0.5,0.7-0.8,1.1-1c0.2-0.1,0.4-0.3,0.6-0.4l0,0l0.8-0.1c1.7-0.3,3.9-0.7,5.3,0.7c0.2,0.2,0.4,0.5,0.6,0.8
		c0.4,0.6,0.7,1.1,1.4,1.2c0.6-0.1,1.1-0.3,1.6-0.5c0.4-0.1,0.8-0.3,1.2-0.4l0,0l0.9-0.2c1.2-0.2,2.4-0.5,3.5-0.2l0,0l0.9,0.4
		c1.4,0.6,2.9,1.2,3.6,2.8l0,0L59.4,12.1L59.4,12.1z"/>
	<path class="st0" d="M39.4,9.1L39.4,9.1L39.4,9.1c-0.4,0.7-0.7,1.3-0.3,2.1l0.1,0.1l0.1,0c0.5,0.1,0.8-0.2,1.1-0.4
		c0.2-0.1,0.3-0.3,0.5-0.3c0.8-0.2,1.6,0,2.4,0.8c0.2,0.3,0.2,0.7,0.2,1.1c0,0.2,0,0.5-0.1,0.7l0,0l0,0c-0.1,0.8-0.7,1.3-1.3,1.9
		c-0.3,0.3-0.6,0.5-0.8,0.8l0,0.1l0,0.1c0,0,0,0.1,0,0.1c0,0.3,0.1,0.7,0.3,0.9l0,0l0,0c1.6,1.3,3,2.8,3.1,4.8
		c-0.1,1.5-1.2,3-2.7,3.6c-1.1,0-1.8-0.4-2.2-1l0,0l0,0c-0.2-0.1-0.4-0.2-0.7-0.1c-0.2,0.1-0.4,0.2-0.5,0.5
		c-0.1,0.2-0.1,0.3-0.1,0.5c0,0.4,0.2,0.8,0.4,1l0,0l0,0c0.6,0.4,1.3,0.9,2.1,0.9c1.4-0.1,2.6-0.6,4.1-1.6l0,0l0.4-0.5
		c0.9-1.1,1.9-2.1,1.9-3.6c0-0.1,0-0.2,0-0.3l-0.1-0.6c-0.1-0.7-0.1-1.5-0.6-2.1l0,0l-0.2-0.1c-0.7-0.5-1.5-1-1.7-1.8l0,0l0,0
		c-0.1-0.2-0.2-0.5-0.2-0.7c0-0.7,0.5-1.4,1-2.1l0.2-0.2l0,0c0.2-0.3,0.3-0.7,0.3-1c0-0.7-0.3-1.5-0.6-2c-0.2-0.5-0.6-1.2-1.3-1.5
		C42.7,8.1,40.7,8.2,39.4,9.1"/>
	<path class="st0" d="M53.5,16.3c-0.4,0-0.8,0.1-1.1,0.1h0l0,0l-0.4,0c-0.4,0-0.9,0-1.2,0.3l-0.1,0.1l0.8,2.1
		c0.1,0.4,0.1,0.9,0.1,1.3c0,0.8-0.1,1.6-0.2,2.4c-0.1,0.7-0.2,1.4-0.2,2.1l0,0l0,0c0,0.2,0,0.5,0,0.7c0,0.8,0,1.7,0.9,2.2l0,0l0,0
		c1,0.3,2.1,0.1,3.4-0.7l0.1-0.1l0-0.4l-0.3-0.1c-0.4-0.1-0.9-0.2-1-0.6C54.1,25.3,54,24.7,54,24c0-1.2,0.2-2.3,0.5-3.5l0.2-1.2
		c0,0,1-2.8,1-2.8l-0.2-0.1C54.9,16.2,54.2,16.3,53.5,16.3"/>
	<path class="st0" d="M55,10.5L55,10.5c-0.8-0.3-1.7-0.4-2.5-0.3l0,0l-0.6,0.1c-0.2,0-0.4,0.1-0.6,0.1l0,0.1
		c-0.1,1.1,0.1,1.8,0.2,1.8l0,0.1c1.1,0.2,2.3,0.1,3.4-0.2l0-0.1C54.9,12.1,55,11.4,55,10.5"/>
	<path class="st0" d="M58.4,11.4c-0.1-0.3-0.2-0.6-0.5-0.8C57,10.1,56,9.5,55,9.1c-1.3-0.4-2.6,0-3.8,0.3c-0.6,0.2-1.1,0.3-1.7,0.4
		l0,0l-1.2,0.8l0,0c0,0.1-0.2,0.1-0.3,0.2c-0.2,0.1-0.4,0.2-0.4,0.4c0,0.1,0,0.3,0.1,0.5l0,0l0,0c2.4,1.8,5.8,2.3,8.7,1.2l0,0
		c0.2,0,0.4-0.2,0.6-0.3c0.3-0.2,0.5-0.4,0.7-0.2l0.1,0.1l0.1,0C58.2,12.3,58.4,12,58.4,11.4L58.4,11.4L58.4,11.4z M56.6,11.5
		L56.6,11.5L56.6,11.5c-0.6,0.3-1.1,0.5-1.7,0.7c-1.1,0.3-2.3,0.3-3.4,0.2c-0.2,0-0.5-0.1-0.7-0.1l0,0l-0.3-0.1
		c-0.4-0.2-0.9-0.3-1.3-0.6L49,11.4l0.2-0.1c0.6-0.5,1.4-0.7,2.2-0.9c0.2,0,0.4-0.1,0.6-0.1l0.6-0.1l0,0c0.8-0.1,1.7,0,2.5,0.2
		c0.5,0.1,1,0.3,1.5,0.6l0,0l0,0C56.6,11.1,56.6,11.4,56.6,11.5"/>
</g>
</svg>
