<?xml version="1.0" encoding="utf-8"?>
<!-- Generator: Adobe Illustrator 26.0.1, SVG Export Plug-In . SVG Version: 6.00 Build 0)  -->
<svg version="1.1" id="Layer_1" xmlns="http://www.w3.org/2000/svg" xmlns:xlink="http://www.w3.org/1999/xlink" x="0px" y="0px"
	 viewBox="0 0 95 35" style="enable-background:new 0 0 95 35;" xml:space="preserve">
<style type="text/css">
	.st0{fill:#FFFFFF;}
</style>
<g>
	<path class="st0" d="M43.2,19.4H47c2,0,3,0.4,3,2.3c0,1.2-0.5,1.8-1.3,2c0.9,0.2,1.5,0.8,1.5,2.1c0,1.8-0.9,2.5-3,2.5h-4V19.4z
		 M47,23c0.7,0,1.2-0.1,1.2-1.1c0-1-0.5-1.1-1.2-1.1h-2V23H47z M47.2,26.8c0.7,0,1.2-0.2,1.2-1.2c0-1-0.5-1.2-1.2-1.2H45v2.4H47.2z
		 M59.4,28.3h-2l-1.9-2.8h-1.7v2.8h-1.8v-8.9h3.6c2.2,0,3.3,0.5,3.3,3c0,1.7-0.5,2.4-1.6,2.7L59.4,28.3z M55.5,24
		c1,0,1.5-0.2,1.5-1.5c0-1.4-0.6-1.6-1.5-1.6h-1.8V24H55.5z M61.8,28.3H60l3.5-9h1.6l3.5,9h-1.9l-0.6-1.6h-3.7L61.8,28.3z
		 M64.3,21.7c0,0-1.3,3.6-1.3,3.6h2.6L64.3,21.7z M70,28.3h1.7v-6.1l4.2,6.1h1.5v-8.9h-1.7v5.7l-3.9-5.7H70V28.3z M79.5,19.4h3.3
		c2.6,0,4,0.6,4,4.5c0,3.8-1.4,4.5-4,4.5h-3.3V19.4z M82.8,26.8c1.6,0,2.2-0.6,2.2-2.7v-0.6c0-2.1-0.6-2.7-2.2-2.7h-1.5v6H82.8z
		 M91.5,28.4c-1.4,0-2.7-0.2-3.1-0.4l0.3-1.5c0.4,0.1,2,0.3,2.8,0.3c1.3,0,1.7-0.2,1.7-1.1c0-0.8-0.3-0.9-1.7-1.2
		c-2.4-0.5-3-0.9-3-2.8c0-1.9,1.2-2.5,3.2-2.5c1.1,0,2.6,0.2,3,0.3l-0.3,1.5c-0.6-0.1-1.7-0.3-2.7-0.3c-1,0-1.4,0.2-1.4,1
		c0,0.8,0.3,0.9,1.7,1.2c2.3,0.5,3.1,0.8,3.1,2.8C95,27.8,93.9,28.4,91.5,28.4"/>
	<path class="st0" d="M43.2,17.3h0.9V8.6h-0.9V17.3z M50.6,14.8l2.9-4.5v7h0.9V8.6h-0.8l-3.3,5l-3.3-5h-0.8v8.8h0.8v-7l2.9,4.5H50.6
		z M56.2,8.6h3.2c2,0,3,0.8,3,2.7c0,2-1,2.8-3,2.8h-2.3v3.3h-0.9V8.6z M59.4,13.3c1.2,0,2.1-0.2,2.1-1.9c0-1.7-0.9-2-2.1-2h-2.3v3.9
		H59.4z M63.8,17.3h5.1v-0.8h-4.3v-3.4h3.3v-0.8h-3.3V9.4h4.3V8.6h-5.1V17.3z M76.8,17.3h-1l-2.1-3.4h-2.3v3.4h-0.9V8.6h3
		c2,0,3,0.7,3,2.7c0,1.6-0.7,2.4-1.8,2.6L76.8,17.3z M73.5,13.1c1.2,0,2.1-0.2,2.1-1.9c0-1.7-0.9-1.9-2.1-1.9h-2.1v3.8H73.5z
		 M78.4,17.3h0.9V8.6h-0.9V17.3z M81.4,17.3h-0.9l3.4-8.8h0.8l3.4,8.8h-0.9l-0.8-2.1h-4.1L81.4,17.3z M84.3,9.8l-1.8,4.6H86
		L84.3,9.8z M89.2,8.6h0.9v7.9h4.6v0.8h-5.5V8.6z"/>
	<path class="st0" d="M24.7,19.1c-0.4,1.2-1.6,1.8-2.8,1.5c-1.2-0.4-1.8-1.6-1.5-2.8c0.4-1.2,1.6-1.8,2.8-1.5
		C24.4,16.7,25,17.9,24.7,19.1"/>
	<path class="st0" d="M20.4,21.5c-1-0.7-1.6-1.8-1.6-3c0-0.1-0.1-0.3-0.3-0.3L8.4,15c0,0-0.3-0.1-0.5-0.1c-0.8,0-1.6,0.5-1.9,1.4
		c-0.3,1,0.2,2.1,1.2,2.4l6.5,2L1.1,27.5l0,0l0,0c-1,0.6-1.4,1.8-0.9,2.9c0.3,0.5,0.7,0.9,1.3,1c0.2,0.1,0.4,0.1,0.6,0.1
		c0.3,0,0.7-0.1,1-0.3c0,0,12.4-6.6,12.4-6.6l-1.9,6.3h0c-0.3,1,0.3,2.1,1.3,2.4l0,0c0.2,0.1,0.4,0.1,0.5,0.1c0.8,0,1.6-0.5,1.9-1.3
		l0,0l3.1-10.2C20.6,21.8,20.5,21.6,20.4,21.5 M34.7,24.8c0.3-0.8-0.2-1.7-1-2l0,0l-7.7-2.3c-0.2,0-0.3,0-0.4,0.1
		c-0.7,1-1.8,1.6-3.1,1.6l0,0c-0.2,0-0.3,0.1-0.4,0.3l-2.4,7.7l0,0c-0.2,0.8,0.3,1.7,1.1,1.9l0,0c0.1,0,0.3,0.1,0.4,0.1
		c0.7,0,1.3-0.4,1.5-1.1l0,0l1.6-5.3l3.6,6.8l0,0l0,0c0.2,0.4,0.6,0.7,1,0.8c0.2,0,0.3,0.1,0.5,0.1c0.3,0,0.6-0.1,0.8-0.2
		c0.8-0.5,1.2-1.5,0.7-2.3l-3.6-6.7l5.1,1.6l0,0c0.1,0,0.3,0,0.4,0.1C33.9,25.9,34.5,25.5,34.7,24.8 M9.9,13.6L9.9,13.6l9.2,2.8
		c0.2,0,0.3,0,0.4-0.1c0.7-1,1.8-1.6,3-1.6l0,0c0.2,0,0.3-0.1,0.4-0.3l2.8-9.2l0,0c0.2-0.9-0.3-1.9-1.2-2.2l0,0C24.2,3,24,3,23.8,3
		c-0.8,0-1.4,0.5-1.7,1.2l-1.8,6l-4.1-7.7l0,0l0,0c-0.3-0.5-0.7-0.8-1.2-1c-0.2,0-0.4-0.1-0.5-0.1c-0.3,0-0.6,0.1-0.9,0.2
		c-1,0.5-1.3,1.7-0.8,2.7l4,7.6l-5.8-1.8c0,0-0.3-0.1-0.5-0.1c-0.8,0-1.5,0.5-1.7,1.3C8.4,12.3,9,13.3,9.9,13.6 M24.7,15.3
		c1,0.7,1.6,1.8,1.6,3c0,0.2,0.1,0.3,0.3,0.4l4.9,1.5c0,0,0.2,0,0.3,0c0.5,0,1-0.3,1.1-0.8l0,0c0.2-0.6-0.2-1.2-0.7-1.5l-3.9-1.2
		l5-2.7l0,0l0,0c0.3-0.2,0.5-0.4,0.6-0.8c0.1-0.3,0.1-0.7-0.1-1c-0.2-0.4-0.7-0.7-1.1-0.7c-0.2,0-0.4,0.1-0.6,0.2l-4.9,2.6l1.2-3.8
		l0,0l0,0c0.2-0.6-0.2-1.2-0.8-1.4c-0.1,0-0.2-0.1-0.4-0.1c-0.5,0-0.9,0.3-1.1,0.8l0,0l-1.5,4.9C24.5,15.1,24.5,15.2,24.7,15.3"/>
</g>
</svg>
