<?xml version="1.0" encoding="utf-8"?>
<!-- Generator: Adobe Illustrator 26.0.1, SVG Export Plug-In . SVG Version: 6.00 Build 0)  -->
<svg version="1.1" id="Layer_1" xmlns="http://www.w3.org/2000/svg" xmlns:xlink="http://www.w3.org/1999/xlink" x="0px" y="0px"
	 viewBox="0 0 95 35" style="enable-background:new 0 0 95 35;" xml:space="preserve">
<style type="text/css">
	.st0{fill:#343741;}
</style>
<g>
	<path class="st0" d="M2,11.3c-1.1,0-2-0.9-2-2c0-1.1,0.9-2,2-2s2,0.9,2,2C4.1,10.4,3.1,11.3,2,11.3 M3.9,12.7v14.7H0.1V12.7H3.9z
		 M16,27.4v-8.9c0-1.6-0.2-3.3-2.1-3.3c-1.1,0-2.5,0.5-3.5,1v11.2H6.5V12.7h3.8v1.5c1.3-1,3.4-1.9,5-1.9c3.1,0,4.4,2.3,4.4,5.2v10
		H16z M55.4,15.4c-1.1,0.1-2.3,0.7-3.3,1.3v10.7h-3.8V12.7h3.8v1.7c1.3-1,3.4-1.7,5-1.7v2.8C57.1,15.5,56.2,15.3,55.4,15.4 M39,27.8
		c-4.9,0-7.4-3-7.4-7.9c0-4.9,2.6-7.7,7.4-7.7c4.7,0,7.4,2.9,7.4,7.7C46.4,24.8,43.9,27.8,39,27.8 M39,14.9c-2.8,0-3.7,2.7-3.7,5.1
		c0,2.4,0.8,5.4,3.7,5.4c2.9,0,3.7-2.9,3.7-5.4C42.7,17.6,41.8,14.9,39,14.9 M76.8,27.4v-8.9c0-1.6-0.3-3.3-2.3-3.3
		c-1,0-2.1,0.5-3,1c0.1,0.4,0.1,0.8,0.1,1.2v10h-3.8v-8.9c0-1.6-0.2-3.3-2.2-3.3c-1,0-2.2,0.5-3,1v11.2H59V12.7h3.8v1.5
		c1.2-1,3.2-1.9,4.7-1.9c1.6,0,2.9,0.7,3.7,2.2c1.4-0.9,3.5-2.2,5.1-2.2c3.1,0,4.4,2.3,4.4,5.2v10H76.8z M91.6,25.2
		c-1,1.4-2.9,2.5-4.7,2.5c-2.4,0-4.4-1.6-4.4-4.1c0-4.8,5.2-5.3,8.8-5.5v-0.9c0-1.7-1.3-2.5-2.9-2.5c-1.4,0-3,0.2-4.3,0.7v-1.6
		c1.5-1,3.3-1.5,5.1-1.5c2.9,0,5.8,1.3,5.8,4.6v10.5h-3.4V25.2z M86.2,23.1c0,1.3,0.8,2.2,2.1,2.2c1.6,0,3-1.4,3-3v-2.1
		C89.6,20.3,86.2,20.9,86.2,23.1 M29.6,9.6c0.5,0,1,0,1.5,0.1V8c-0.9-0.5-2-0.8-3.1-0.8c-3.4,0-4.8,2.3-4.8,5.5h-1.8v2.6h1.8l0,12.1
		h3.8V15.3h4v-2.6h-4C27.1,10.8,27.5,9.6,29.6,9.6"/>
</g>
</svg>
