<?xml version="1.0" encoding="utf-8"?>
<!-- Generator: Adobe Illustrator 26.0.1, SVG Export Plug-In . SVG Version: 6.00 Build 0)  -->
<svg version="1.1" id="Layer_1" xmlns="http://www.w3.org/2000/svg" xmlns:xlink="http://www.w3.org/1999/xlink" x="0px" y="0px"
	 viewBox="0 0 95 35" style="enable-background:new 0 0 95 35;" xml:space="preserve">
<style type="text/css">
	.st0{fill:#343741;}
</style>
<path class="st0" d="M28.6,30.2c0-1.7,1.1-2.8,2.7-2.8c1.3,0,2.4,0.9,2.6,2.2h-0.8c-0.2-0.9-0.9-1.5-1.8-1.5c-1.1,0-1.8,0.8-1.8,2
	s0.7,2,1.8,2c0.9,0,1.7-0.6,1.8-1.5h0.8c-0.2,1.3-1.2,2.3-2.6,2.3C29.7,33,28.6,31.9,28.6,30.2L28.6,30.2z"/>
<path class="st0" d="M35.8,26.5H35v6.5h0.9V26.5z"/>
<path class="st0" d="M36.9,30.2c0-1.7,1.1-2.8,2.7-2.8s2.7,1.2,2.7,2.9l-0.1,0.1h-4.5c0,1.1,0.8,1.9,1.8,1.9c0.8,0,1.5-0.5,1.7-1.2
	h0.9c-0.3,1.2-1.4,1.9-2.6,1.9C37.9,33,36.9,31.9,36.9,30.2L36.9,30.2z M41.3,29.6c-0.2-0.9-0.9-1.4-1.8-1.4c-0.9,0-1.6,0.6-1.8,1.4
	H41.3z"/>
<path class="st0" d="M43,30.2c0-1.7,1-2.8,2.6-2.8c0.7,0,1.5,0.4,1.9,1v-0.9h0.9v5.4h-0.9V32c-0.4,0.6-1.2,1-1.9,1
	C44,33,43,31.9,43,30.2z M47.5,30.2c0-1.2-0.7-2-1.8-2s-1.8,0.8-1.8,2s0.7,2,1.8,2S47.5,31.4,47.5,30.2z"/>
<path class="st0" d="M49.7,27.5h0.9v0.7c0.4-0.5,1-0.8,1.7-0.8c1.3,0,2.2,0.9,2.2,2.1v3.3h-0.9v-3.2c0-0.9-0.6-1.6-1.5-1.6
	c-0.9,0-1.5,0.6-1.5,1.6v3.2h-0.9V27.5z"/>
<path class="st0" d="M57.8,30.2c0-1.7,1.1-2.8,2.7-2.8c1.6,0,2.7,1.2,2.7,2.9l-0.1,0.1h-4.4c0,1.1,0.8,1.9,1.8,1.9
	c0.8,0,1.5-0.5,1.7-1.2h0.9c-0.3,1.2-1.4,1.9-2.6,1.9C58.9,33,57.8,31.9,57.8,30.2z M62.3,29.6c-0.2-0.9-0.9-1.4-1.8-1.4
	c-0.9,0-1.6,0.6-1.8,1.4H62.3z"/>
<path class="st0" d="M64.2,27.5h0.9v0.7c0.4-0.5,1-0.8,1.7-0.8c1.3,0,2.2,0.9,2.2,2.1v3.3h-0.9v-3.2c0-0.9-0.6-1.6-1.5-1.6
	c-0.9,0-1.5,0.6-1.5,1.6v3.2h-0.9V27.5z"/>
<path class="st0" d="M69.9,30.2c0-1.7,1.1-2.8,2.7-2.8c1.6,0,2.7,1.2,2.7,2.9l-0.1,0.1h-4.4c0,1.1,0.8,1.9,1.8,1.9
	c0.8,0,1.5-0.5,1.7-1.2h0.9c-0.3,1.2-1.4,1.9-2.6,1.9C71,33,69.9,31.9,69.9,30.2z M74.4,29.6c-0.2-0.9-0.9-1.4-1.8-1.4
	c-0.9,0-1.6,0.6-1.8,1.4H74.4z"/>
<path class="st0" d="M76.3,27.5h0.9v0.8c0.4-0.5,1-0.9,1.5-0.9c0.2,0,0.3,0,0.4,0.1v0.7h-0.4c-1,0-1.6,0.6-1.6,1.6v3.1h-0.9
	L76.3,27.5L76.3,27.5z"/>
<path class="st0" d="M84.6,27.5v4.8c0,1.6-1.1,2.7-2.6,2.7c-1.3,0-2.3-0.9-2.5-2.1h0.8c0.2,0.8,0.9,1.3,1.7,1.3
	c1.1,0,1.8-0.8,1.8-1.9v-0.4c-0.4,0.6-1.1,1-1.9,1c-1.5,0-2.6-1.1-2.6-2.7c0-1.6,1-2.7,2.6-2.7c0.7,0,1.4,0.4,1.9,1v-0.9L84.6,27.5z
	 M83.7,30.2c0-1.2-0.7-2-1.8-2c-1.1,0-1.8,0.8-1.8,2c0,1.2,0.7,2,1.8,2C83,32.2,83.7,31.4,83.7,30.2z"/>
<path class="st0" d="M87.4,32.6l-2-5h0.9l1.6,3.9l1.5-3.9h0.9l-2.9,7.4h-0.9L87.4,32.6z"/>
<path class="st0" d="M4.7,11.7c0-5.5,3.7-9.2,9.2-9.2c3,0,6.1,2,7.6,5l-3.2,0.8c-0.9-1.6-2.7-2.7-4.4-2.7c-3.5,0-5.8,2.4-5.8,6.1
	s2.3,6.1,5.8,6.1c2.4,0,4.4-1.7,5.1-4.2h-5.8v-3.1h9.4v1.2c0,5.6-3.5,9.3-8.7,9.3C8.4,21,4.7,17.3,4.7,11.7L4.7,11.7z"/>
<path class="st0" d="M27.6,2.9h-3.2V21h3.2V2.9z"/>
<path class="st0" d="M58.1,19.5V21H55V2.9h3.2v6.4c1-1.1,2.8-1.8,4.4-1.8c4.2,0,7,2.8,7,7c0,4.2-2.8,6.9-7,6.9
	C60.9,21.3,59.1,20.6,58.1,19.5z M66.3,14.4c0-2.5-1.6-4.2-4.1-4.2c-2.4,0-4.1,1.7-4.1,4.2c0,2.5,1.6,4.2,4.1,4.2
	C64.7,18.5,66.3,16.9,66.3,14.4z"/>
<path class="st0" d="M70.6,14.4c0-4.2,2.7-7,6.8-7c1.6,0,3.3,0.7,4.3,1.8V7.8h3.2V21h-3.2v-1.4c-1,1.1-2.7,1.8-4.3,1.8
	C73.4,21.3,70.6,18.5,70.6,14.4z M81.7,14.4c0-2.5-1.6-4.2-3.9-4.2c-2.4,0-4,1.7-4,4.2c0,2.5,1.6,4.2,4,4.2
	C80.2,18.5,81.7,16.9,81.7,14.4z"/>
<path class="st0" d="M89.9,2.9h-3.2V21h3.2V2.9z"/>
<g>
	<path class="st0" d="M52.7,15.1l-0.4,1.2l-2-0.8l0.4-1.2L52.7,15.1z"/>
	<path class="st0" d="M51.7,17.5l-0.6,1l-1.9-1.2l0.7-1L51.7,17.5z"/>
	<path class="st0" d="M50.1,19.6l-0.8,0.8l-1.5-1.6l0.8-0.8L50.1,19.6z"/>
	<path class="st0" d="M48.1,21.4L47.2,22l-1.1-1.9l0.9-0.6L48.1,21.4z"/>
	<path class="st0" d="M45.9,22.6L44.9,23l-0.7-2l1-0.3L45.9,22.6z"/>
	<path class="st0" d="M43.2,23.4l-1,0.1l-0.2-2.2l0.9-0.1L43.2,23.4z"/>
	<path class="st0" d="M40.8,23.5l-0.9-0.1l0.2-2.2l0.9,0.1L40.8,23.5z"/>
	<path class="st0" d="M38.2,23.1l-0.8-0.2l0.7-2.1l0.8,0.3L38.2,23.1z"/>
	<path class="st0" d="M35.8,22.1l-0.7-0.4l1.1-1.9l0.7,0.4L35.8,22.1z"/>
	<path class="st0" d="M33.5,20.5L33,20l1.6-1.6l0.5,0.5L33.5,20.5z"/>
	<path class="st0" d="M31.8,18.6l-0.3-0.6l1.8-1.2l0.4,0.6L31.8,18.6z"/>
	<path class="st0" d="M30.6,16.5l-0.3-0.6l2-0.8l0.2,0.6L30.6,16.5z"/>
	<path class="st0" d="M29.8,13.8l-0.1-0.5l2.1-0.3l0.1,0.6L29.8,13.8z"/>
	<path class="st0" d="M29.6,11.1l0.1-0.5l2.2,0.3l-0.1,0.5L29.6,11.1z"/>
	<path class="st0" d="M30,8.7l0.1-0.4l2.1,0.7l-0.1,0.4L30,8.7z"/>
	<path class="st0" d="M31.1,6.1l0.2-0.3l1.8,1.2l-0.2,0.3L31.1,6.1z"/>
	<path class="st0" d="M32.5,4.1l0.2-0.2l1.6,1.5L34,5.6L32.5,4.1z"/>
	<path class="st0" d="M34.4,2.2l0.2-0.1l1.2,1.8l-0.2,0.1L34.4,2.2z"/>
	<path class="st0" d="M36.6,1l0.2-0.1l0.8,2L37.4,3L36.6,1z"/>
	<path class="st0" d="M39.2,0.2l0.2,0l0.3,2.2h-0.2L39.2,0.2z"/>
	<path class="st0" d="M41.7,0h0.1l-0.2,2.2h-0.1L41.7,0z"/>
	<path class="st0" d="M53.1,12.5L53,13.8l-2.1-0.3l0.2-1.3L53.1,12.5z"/>
</g>
<g>
	<polygon class="st0" points="43.9,7.1 43.8,6.8 43.7,6.5 43.6,6.2 43.5,6 43.3,5.7 43.3,5.6 42.9,5.5 42.6,5.3 42.3,5.2 41.9,5.2 
		41.9,5.2 41.6,5.7 41.2,5.6 41.3,5.7 41.6,5.8 41.7,5.8 41.8,5.8 42.4,6.2 42.8,6.7 43.2,7.1 43.3,7.1 43.5,7.2 43.6,7.2 43.8,7.2 
		43.9,7.1 	"/>
	<polygon class="st0" points="42.4,6.8 42.1,6.6 41.9,6.4 41.6,6.2 41.3,6.2 41.2,6.1 41.2,6.3 41.2,6.4 41.4,6.7 41.4,6.7 
		41.7,6.7 41.9,6.8 41.9,6.8 42,6.8 42,6.9 42,7 41.9,7 41.9,7.1 41.9,7.2 41.9,7.3 42,7.4 42.1,7.4 42.3,7.4 42.3,7.4 42.5,7.4 
		42.5,7.4 42.6,7.4 42.7,7.2 42.7,7.1 42.6,7.1 	"/>
	<path class="st0" d="M41.4,3.5c-4.6,0-8.3,3.7-8.3,8.3c0,4.6,3.7,8.3,8.3,8.3c4.6,0,8.3-3.7,8.3-8.3S45.9,3.5,41.4,3.5z M49.1,12.8
		l-0.1,0.7l-0.2,0.7l-0.3,0.6l-0.3,0.6L47.8,16l-0.4,0.6l-0.5,0.5l-0.5,0.5l-0.6,0.4l-0.6,0.4l0.3-0.2l0.4-0.4l0.4-0.4l0.3-0.4
		l0.3-0.6l0.2-0.4l0.1-0.5l0.1-0.4l0-0.3v-0.2v-0.2l-0.1-0.2L47.3,14l-0.2-0.1L47,14l-0.2,0l-0.1,0l-0.5-0.2l-0.6-0.2l-0.5-0.1
		l-0.7-0.1h-0.3l-0.3,0.1l-0.3,0.1l-0.2,0.2L43.1,14l-0.2-0.1l-0.1,0h-0.2l-0.2,0l-0.1-0.1l-0.1-0.1l0-0.2v-0.3l-0.1-0.1H42
		l-0.3,0.1h0l-0.1,0v-0.1l0.1-0.3l0-0.1l0-0.1l-0.1-0.1l-0.1,0l-0.1,0l-0.2,0.1L40.8,13l-0.1-0.6v-0.2l0.1-0.3l0.1-0.1l0.2-0.2
		l0.2-0.1l0.2,0l0.2,0l0.2,0.1l0.2,0.2l0.1,0.1l0.1,0.1h0.1h0.1l-0.1-0.2l-0.1-0.2l0.1-0.2l0.2-0.3l0.2-0.4l0.1-0.4l0.1-0.3l0.2-0.3
		l0.2-0.2l0.3-0.2l0-0.1l0-0.1l0,0h-0.4l0-0.1l0-0.1l0-0.1l0.6-0.6l-1.5-0.8l-0.1-0.1l-0.2,0l-0.1,0l-0.1,0.1l0,0.1l0,0.2l0.1,0.7
		l-0.1,0.1l-0.2,0l-0.2,0l-0.2-0.1l-0.1-0.1l-0.1-0.2V7.9l0.1-0.2l0.1-0.3l0-0.2l0-0.2V6.8l-0.1-0.1h-0.1h-0.1l-0.2,0.1L40.3,7
		l-0.1,0H40l-0.2,0l-0.2-0.1l-0.2-0.1L39,6.3l-0.2-0.2L38.6,6l-0.1,0h-0.1l-0.1,0L38.1,6l0,0.1l-0.3,0.1v0l-0.1,0.1l0,0.1l0,0.1
		l-0.1,0l-0.2,0.1l-0.1,0.1l-0.1,0.1l0,0.1l-0.8-0.1L36.3,7l0.2,0.1l0.1,0.1l0.1,0.1l0.3,0.1h0.3h0.3h0.3l0.3-0.1L38.3,9l-0.1,0.4
		v0.5v0.6l0.1,0.5l0.1,0.5l0.2,0.4l0.2,0.3l0.3,0.4v-0.2l-0.2-0.7l0.6,0.8L39.5,13l0.8,0.7l0.1,0.1l0.1,0h0.1l0.1-0.1l0.1-0.1l0.1,0
		h0.1l0.1,0l0.1,0l0.4,0.4l0.2,0.1l0.2,0.1l0.2,0l0.2,0l0.4,0l0.1,0l0.1,0l0,0.1l0,0.1l0.1,0.2l-0.1,0.2l0,0.2l0,0.2l-0.2,0.3l0,0.1
		v0.2l0,0.1l0.1,0.2l0.3,0.3l0.3,0.3l0.1,0.1l0.1,0.1v0.1l0,0.2l0,0.2l-0.1,0.4l-0.1,0.3l-0.3,0.6l-0.7,0.2L42,19.5l-0.6,0l-0.6,0
		l-0.7-0.1l-0.7-0.2L38.8,19l-0.7-0.2l-0.6-0.3l-0.6-0.3l-0.6-0.4l-0.5-0.5l-0.5-0.5L35,16.1l-0.3-0.6l-0.3-0.6L34,14.3l-0.2-0.7
		l-0.1-0.7l-0.1-0.7v-0.7l0.1-0.7l0.1-0.7L34,9.5l0.2-0.7l0.2-0.6l0.3-0.6l0.4-0.6l0.4-0.6L36.1,6l0.2-0.1l0.2-0.1l0.2-0.1L37,5.8
		l0.1,0.1l0.1,0.1l0.2,0h0.2L37.8,6v0L38,5.9l0.2-0.1l0.2-0.2l0.3-0.3l0.1-0.1l0.3-0.2l0.2-0.1l0.2-0.1L40,4.5l0.5-0.1L41,4.3l0.4,0
		l0.6,0l0.7,0l0.7,0h-0.1l-0.2,0l-0.1,0l-0.1,0.1v0.2L43,4.7h0.2l0.2,0l0.2,0.1l0.2,0.1l0.1,0.1l0.5,0.3l0.4,0.3l0.3,0.3V5.5l0-0.1
		l0.1-0.1l0.1,0l0,0l0.3,0.4l0.1,0.1L46,6.1l0,0l0.1,0.1v0.6l0,0.2h0.4v0l0,0.1v0.1l0,0.2l0.1,0.2l0.1,0.2l0.1,0.1h0.2l0.1,0
		l0.1-0.1V7.6l-0.1-0.2l-0.1-0.3L47,6.8l-0.1-0.3l-0.1-0.3l0.3,0.3l0.4,0.6l0.2,0.2l-0.1,0.1l-0.1,0.3l-0.1,0.2l0,0.3v0.2l0.1,0.2
		l0.1,0.5l0.1,0.5l0.2,0.4l0.2,0.5l0.2,0.4l0,0.1v0.2l0,0.1l0.1,0.1l0.1,0.1l0.2,0h0.2v0.3l0,0l0,0v0.1h0L49.1,12.8z"/>
	<polygon class="st0" points="44,8.7 44.1,8.7 44.1,8.7 44.1,8.6 44.1,8.6 44,8.5 43.9,8.6 43.9,8.6 43.9,8.6 43.8,8.7 43.8,8.8 
		43.9,8.8 	"/>
	<polygon class="st0" points="43.2,12.6 43.1,12.5 43,12.4 42.9,12.4 42.7,12.4 42.6,12.3 42.5,12.3 42.3,12.3 42.2,12.3 42.1,12.4 
		42,12.4 42,12.5 42,12.5 42.1,12.6 42.1,12.6 42.3,12.7 42.5,12.7 42.6,12.6 42.7,12.6 42.9,12.7 43,12.7 43.1,12.8 43.2,12.8 
		43.3,12.9 43.3,12.8 43.4,12.8 43.4,12.8 43.3,12.7 	"/>
</g>
</svg>
