<?xml version="1.0" encoding="utf-8"?>
<!-- Generator: Adobe Illustrator 26.0.1, SVG Export Plug-In . SVG Version: 6.00 Build 0)  -->
<svg version="1.1" id="Layer_1" xmlns="http://www.w3.org/2000/svg" xmlns:xlink="http://www.w3.org/1999/xlink" x="0px" y="0px"
	 viewBox="0 0 95 35" style="enable-background:new 0 0 95 35;" xml:space="preserve">
<style type="text/css">
	.st0{fill:#FFFFFF;}
</style>
<g>
	<path class="st0" d="M19.7,14.8c0.3,0,0.7,0.1,0.7,0.4v11c0,0.2-0.3,0.4-0.7,0.4v0.2h3.2v-0.2c-0.3,0-0.7-0.1-0.7-0.4v-11
		c0-0.2,0.3-0.4,0.7-0.4v-0.2h-3.2V14.8z M60.2,20.3c0-0.8,0.9-1.2,1.8-1.2c1.4,0,2.3,0.2,2.5,1.2h0.3l0-1.3
		c-0.9-0.3-1.9-0.5-2.6-0.5c-2.5,0-3.5,1.3-3.5,2.3c0,2.9,4.9,2.2,4.9,4.3c0,0.6-0.5,1.2-1.8,1.2c-1.6,0-2.5-0.5-2.8-1.6l-0.2,0
		l0.1,1.5c0.8,0.3,1.9,0.6,2.8,0.6c2.7,0,3.8-1.2,3.8-2.4C65.4,21.7,60.2,22.3,60.2,20.3 M43.9,18.9c0.5,0,0.9,0.3,0.7,0.7l-2.4,4.7
		l-2.4-4.8c-0.1-0.4,0.2-0.6,0.7-0.6v-0.2h-3.9V19c0.5,0,0.8,0.2,1.2,0.8l3.9,7.2l4.1-7.3c0.3-0.6,0.8-0.7,1-0.7v-0.2h-2.8
		L43.9,18.9L43.9,18.9z M34.9,26.2v-5.4c0-1.5-1.6-2.4-3.3-2.4c-1.4,0-2.7,0.8-3.2,1.2v-1.1c0-0.1-0.1-0.2-0.1-0.2
		c-1,0.4-1.5,0.6-2.6,0.9v0.2c0.6,0,0.7,0.3,0.8,0.8v6c0,0.3-0.3,0.4-0.7,0.4v0.2H29v-0.2c-0.3,0-0.7-0.1-0.7-0.4v-5.8
		c0.4-0.4,1.3-0.9,2.3-0.9c1.9,0,2.4,1,2.4,2v4.8c0,0.2-0.3,0.3-0.7,0.3v0.2h3.2v-0.2C35.2,26.6,34.9,26.5,34.9,26.2 M56.5,22.1
		c0-2.6-2.3-3.6-4.2-3.6c-3.4,0-5.1,2.3-5.1,4.1c0,0.7,0.2,1.5,0.6,2.1c0.4,0.7,1,1.2,1.8,1.6c0.8,0.4,1.6,0.6,2.6,0.6
		c0.9,0,1.6-0.1,2.3-0.3s1.3-0.6,1.9-1.1v-0.6c-0.7,0.5-1.3,0.8-1.8,0.9C54,25.9,53.4,26,52.8,26c-1,0-1.8-0.3-2.5-1
		c-0.7-0.7-1-1.7-1-2.5v-0.5L56.5,22.1L56.5,22.1z M52.1,19.1c1.2,0,2.4,0.6,2.4,2.3h-5.1C49.5,20.2,50.4,19.1,52.1,19.1 M84.5,22.1
		c0-2.6-2.3-3.6-4.2-3.6c-3.4,0-5.1,2.3-5.1,4.1c0,0.7,0.2,1.5,0.6,2.1c0.4,0.7,1,1.2,1.8,1.6c0.8,0.4,1.6,0.6,2.6,0.6
		c0.9,0,1.6-0.1,2.3-0.3s1.3-0.6,1.9-1.1v-0.6c-0.7,0.5-1.3,0.8-1.8,0.9C82,25.9,81.5,26,80.8,26c-0.9,0-1.8-0.3-2.5-1
		c-0.7-0.7-1-1.7-1-2.5v-0.5L84.5,22.1L84.5,22.1z M80.1,19.1c1.2,0,2.4,0.6,2.4,2.3h-5.1C77.6,20.2,78.5,19.1,80.1,19.1 M72.5,26.2
		c-0.7,0-2-0.2-2-1.8v-4.9h3.1v-0.7h-3.1v-1.6h-1.9v1.6h-1.2v0.7h1.2v4.9c0,1.7,1.3,2.5,3.1,2.5c0.6,0,1.3-0.2,1.7-0.5
		c0.2-0.1,0.4-0.2,0.6-0.4l0-0.3C73.7,25.9,73.1,26.1,72.5,26.2 M91.4,19.1c1.4,0,2.7,0.8,3.1,1.7H95v-1.5c0,0-1.5-0.8-3.5-0.8
		c-3.8,0-5.3,2.5-5.3,4.3c0,0.3,0,0.7,0.1,1.1c0,0.1,0,0.2,0.1,0.3c0.1,0.4,0.4,0.9,0.7,1.2c0.3,0.4,0.8,0.8,1.3,1
		c0.6,0.3,1.3,0.5,2,0.6c0.2,0,0.5,0,0.8,0c0.8,0,1.4-0.1,1.9-0.3c0.6-0.2,1.2-0.6,1.9-1.1v-0.7c-0.5,0.4-1,0.7-1.5,0.8
		c-0.5,0.2-1,0.3-1.7,0.3c-2.4,0-3.5-1.7-3.5-3.4C88.3,20.9,89.2,19.1,91.4,19.1"/>
	<path class="st0" d="M7.7,14.6V8H7.2v1.4C4.4,9.6,2,11.4,1.5,13.7H3c0.5-1.9,2.2-3.3,4.2-3.4v4.3H0v0.6h1.3c0.2,2.8,2.7,5,5.8,5.1
		v1.4h0.6v-6.5H12c-0.1,2-1.6,3.7-3.5,4.2v0.9c2.8-0.4,4.8-2.5,5-5h1.3v-0.6L7.7,14.6z M7.2,19.4c-2.3-0.1-4.2-2-4.3-4.3h4.3V19.4z
		 M11.9,13.7h1.5c-0.5-2.1-2.4-3.8-4.8-4.2v0.9C10.2,10.8,11.5,12.1,11.9,13.7"/>
</g>
</svg>
