<?xml version="1.0" encoding="utf-8"?>
<!-- Generator: Adobe Illustrator 26.0.1, SVG Export Plug-In . SVG Version: 6.00 Build 0)  -->
<svg version="1.1" id="Layer_1" xmlns="http://www.w3.org/2000/svg" xmlns:xlink="http://www.w3.org/1999/xlink" x="0px" y="0px"
	 viewBox="0 0 95 35" style="enable-background:new 0 0 95 35;" xml:space="preserve">
<style type="text/css">
	.st0{fill:#FFFFFF;}
</style>
<g>
	<g>
		<g>
			<path class="st0" d="M51.29,26.29h-1.18v5.77h3.52L54,31.1h-2.71V26.29z M47.9,28.2c0.63-0.2,1.24-0.68,1.24-1.58
				c0-1.76-2.09-1.76-2.78-1.76h-2.25v7.18h2.16c1.23,0,3.27-0.32,3.27-2.07C49.54,29,48.97,28.38,47.9,28.2 M45.4,25.73h0.79
				c0.94,0,1.61,0.11,1.61,0.98c0,1.15-1.17,1.08-1.76,1.09H45.4V25.73z M46.22,31.1H45.4v-2.37h0.75c1.13,0,2.06,0.16,2.06,1.19
				C48.21,30.91,47.46,31.1,46.22,31.1 M87.17,32.05h1.18v-5.77h-1.18V32.05z M84.41,26.99c0.47,0,0.87,0.19,1.04,0.68l1.03-0.29
				c-0.11-0.39-0.63-1.19-2.14-1.19c-1.38,0-2.58,0.94-2.58,2.79c0,1.9,1.15,3.16,2.74,3.16c0.85,0,1.4-0.19,1.94-0.57l-0.28-0.58
				c-0.47,0.24-0.87,0.35-1.36,0.35c-1.02,0-1.76-0.76-1.76-2.33C83.04,27.75,83.5,26.99,84.41,26.99 M89.76,28.97l2.29-2.69h-1.2
				l-2.43,2.77l2.44,3h1.39L89.76,28.97z M75.62,26.88c0-1.33-1.16-2.01-2.81-2.01h-2.14v7.18h1.26v-2.96h0.75l1.98,2.96h1.45
				l-2.13-3.15C74.74,28.6,75.62,27.98,75.62,26.88 M72.57,28.18h-0.64v-2.45l0.78,0c1.06,0,1.61,0.33,1.61,1.2
				C74.32,27.89,73.64,28.18,72.57,28.18 M56.23,26.29l0.21,0.45l-2.24,5.32h1.1l0.47-1.17h2.53l0.51,1.17h1.29l-2.54-5.77H56.23z
				 M56.14,30l0.87-2.13l0.9,2.13H56.14z M70.12,26.28h-1.2l-2.43,2.77l2.44,3h1.39l-2.48-3.08L70.12,26.28z M78.58,26.19
				c-1.57,0-2.7,0.95-2.7,2.98c0,2.02,1.08,2.97,2.7,2.97c1.62,0,2.7-0.95,2.7-2.97C81.29,27.14,80.16,26.19,78.58,26.19
				 M78.58,31.33c-1.2,0-1.47-0.98-1.47-2.16c0-1.18,0.27-2.21,1.47-2.21c1.2,0,1.48,1.03,1.48,2.21
				C80.06,30.35,79.8,31.34,78.58,31.33 M62.52,26.99c0.47,0,0.87,0.19,1.04,0.68l1.03-0.29c-0.11-0.39-0.63-1.19-2.14-1.19
				c-1.38,0-2.58,0.94-2.58,2.79c0,1.9,1.15,3.16,2.75,3.16c0.84,0,1.39-0.19,1.93-0.58l-0.28-0.58c-0.47,0.24-0.88,0.35-1.37,0.35
				c-1.02,0-1.76-0.76-1.76-2.33C61.14,27.75,61.61,26.99,62.52,26.99 M65.24,32.05h1.18v-5.77h-1.18V32.05z"/>
			<path class="st0" d="M36.13,32.15c1.01,0,1.64-0.81,1.64-2.17c0-1.36-0.62-2.16-1.64-2.16c-0.52,0-0.9,0.24-1.14,0.66v-2.19
				h-0.99v5.77h0.96v-0.62C35.2,31.89,35.59,32.15,36.13,32.15 M36.77,29.99c0,1.05-0.32,1.51-0.89,1.51
				c-0.56,0-0.89-0.48-0.89-1.52c0-1.04,0.33-1.52,0.89-1.52C36.44,28.46,36.77,28.93,36.77,29.99 M38.66,33.41
				c0.75,0,1.23-0.28,1.6-1.32l1.48-4.17v-0.02h-0.81l-0.88,2.81l-1.1-2.81h-1.09v0.02l1.69,4.12c-0.17,0.41-0.4,0.58-0.83,0.58
				c-0.12,0-0.25-0.02-0.36-0.05h-0.02v0.8C38.4,33.4,38.53,33.41,38.66,33.41"/>
			<path class="st0" d="M93.8,26.19c-0.66,0-1.2,0.52-1.2,1.19c0,0.67,0.53,1.19,1.2,1.19s1.2-0.52,1.2-1.19
				C95,26.71,94.47,26.19,93.8,26.19 M93.8,28.38c-0.56,0-0.99-0.43-0.99-1c0-0.57,0.43-1,0.99-1c0.56,0,0.99,0.43,0.99,1
				C94.79,27.95,94.36,28.38,93.8,28.38 M93.89,26.89c0.15,0,0.23,0.07,0.23,0.21c0,0.15-0.08,0.22-0.23,0.22h-0.32v-0.43H93.89z
				 M94.11,28.06h0.25v-0.02l-0.31-0.54c0.2-0.04,0.31-0.18,0.31-0.4c0-0.26-0.15-0.41-0.46-0.41h-0.55v1.37h0.23v-0.55h0.22
				L94.11,28.06z"/>
			<path class="st0" d="M76.11,6.99c-0.75,0-1.36,0.59-1.36,1.35c0,0.76,0.6,1.34,1.36,1.34c0.75,0,1.36-0.59,1.36-1.34
				C77.46,7.57,76.86,6.99,76.11,6.99 M76.11,9.47c-0.63,0-1.12-0.49-1.12-1.13c0-0.65,0.49-1.14,1.12-1.14
				c0.63,0,1.12,0.49,1.12,1.14C77.23,8.98,76.74,9.47,76.11,9.47 M76.21,7.78c0.18,0,0.26,0.07,0.26,0.24
				c0,0.17-0.08,0.24-0.26,0.24h-0.36V7.78H76.21z M76.45,9.1h0.28V9.07l-0.35-0.61c0.23-0.05,0.35-0.2,0.35-0.45
				c0-0.3-0.18-0.46-0.52-0.46h-0.62V9.1h0.26V8.48h0.25L76.45,9.1z"/>
			<path class="st0" d="M1.46,3.92c0,0.97,0.75,1.72,1.7,1.72c0.97,0,1.72-0.75,1.72-1.72c0-0.95-0.75-1.7-1.72-1.7
				C2.21,2.22,1.46,2.97,1.46,3.92 M0,19.91h6.24v-1.04l-1.6-0.27V7H4.39L0,7.48v0.97l1.6,0.32v9.83L0,18.87V19.91z M59.73,8.53
				c1.82,0,2.31,1.19,2.31,3.45v0.22h-4.95C57.16,9.43,58.08,8.53,59.73,8.53 M23.71,12.39c0-2.11,1-3.3,2.6-3.3
				c1.36,0,2.21,0.85,2.21,2.43v8.4h3.03v-8.4c0-2.47-1.38-4.61-4.22-4.61c-1.65,0-2.86,0.83-3.62,2.01V1.73h-0.24l-4.39,0.49v0.97
				l1.6,0.31v16.41h3.03V12.39z M49.52,13.19c0-2.62,1.21-3.71,3.13-3.71c0.36,0,0.75,0.05,1.09,0.15h0.07v-2.6
				c-0.19-0.07-0.58-0.12-0.9-0.12c-1.84,0-2.91,1.24-3.49,2.86V7h-0.24l-4.3,0.48v0.97l1.6,0.32v11.14h3.03V13.19z M64.42,19.35
				v-1.43h-0.05c-0.83,0.27-2.06,0.46-2.99,0.46c-3.2,0-4.25-1.48-4.3-4.61h7.86v-1.58c0-2.65-1.24-5.29-5.12-5.29
				c-3.52,0-5.85,2.16-5.85,6.6c0,4.39,2.48,6.7,6.6,6.7C61.92,20.2,63.57,19.84,64.42,19.35 M38.28,18.24
				c-1.36,0-2.04-0.78-2.04-2.28c0-1.46,0.83-2.16,2.57-2.16h1.77v1.99C40.58,17.1,39.61,18.24,38.28,18.24 M13.28,3.38
				c1.36,0,2.89,0.39,4.18,1.38h0.05V2.24c-0.85-0.36-2.52-0.66-4.05-0.66c-4.27,0-6.17,2.48-6.17,5.07c0,3.01,2.21,4.22,4.42,5.17
				c3.01,1.31,4.22,1.89,4.22,3.79c0,1.58-0.9,2.79-3.59,2.79c-1.38,0-3.01-0.34-4.66-1.6H7.6v2.6c1.19,0.46,2.74,0.8,4.59,0.8
				c3.78,0,6.75-1.75,6.75-5.53c0-3.4-2.62-4.54-5.07-5.63c-2.38-1.04-3.69-1.7-3.69-3.3C10.17,4.43,11.14,3.38,13.28,3.38
				 M70.22,8.55c1,0,2.33,0.27,3.2,1.12h0.05V7.36c-0.53-0.2-1.94-0.46-2.94-0.46c-3.28,0-4.61,1.89-4.61,3.88
				c0,2.23,1.75,3.08,3.4,3.74c1.82,0.73,2.65,1.16,2.65,2.33c0,1-0.68,1.7-2.09,1.7c-1.21,0-2.69-0.29-3.74-1.21H66.1v2.38
				c0.9,0.29,2.06,0.49,3.45,0.49c2.74,0,4.93-1.31,4.93-4.1c0-2.45-1.84-3.25-3.49-3.93c-1.75-0.7-2.6-1.09-2.6-2.18
				C68.38,9.14,69.01,8.55,70.22,8.55 M40.68,19.91h2.94v-8.62c0-2.59-1.48-4.39-5-4.39c-1.94,0-3.59,0.61-4.42,1.21v1.46h0.05
				c0.92-0.46,2.36-0.85,3.62-0.85c1.97,0,2.72,0.82,2.72,2.43v1.07h-1.94c-3.13,0-5.39,1.26-5.39,4.17c0,2.33,1.51,3.81,3.93,3.81
				c1.72,0,2.86-0.87,3.49-1.94V19.91z"/>
		</g>
	</g>
</g>
</svg>
