<?xml version="1.0" encoding="utf-8"?>
<!-- Generator: Adobe Illustrator 26.0.1, SVG Export Plug-In . SVG Version: 6.00 Build 0)  -->
<svg version="1.1" id="Layer_1" xmlns="http://www.w3.org/2000/svg" xmlns:xlink="http://www.w3.org/1999/xlink" x="0px" y="0px"
	 viewBox="0 0 95 35" style="enable-background:new 0 0 95 35;" xml:space="preserve">
<style type="text/css">
	.st0{fill:#FFFFFF;}
</style>
<g>
	<path class="st0" d="M12.5,4.6c0-2.5,1.8-4.6,4.7-4.6c3,0,4.7,2.2,4.7,4.7c0,2.8-2.1,4.5-4.6,4.5C14.4,9.2,12.5,7.3,12.5,4.6z
		 M12.6,13.1c0-0.4,0.2-0.7,0.7-0.7h7.9c0.4,0,0.7,0.3,0.7,0.7v12.1c0,2.1,1.2,4.4,4.8,4.4c3.5,0,5.3-2.2,5.3-6.7v-0.9l3.7,7.1
		l0.5,2.4c0,0-3.7,3.5-10.3,3.5c-3.3,0-13.3-0.5-13.3-11.5V13.1z"/>
	<path class="st0" d="M36.2,31.5l3.7-9.6l1.2-1.2v1.7c0,4.1,2,7.2,7.1,7.2c4.6,0,7.9-2.6,7.9-6.7c0-2.1-1-3.7-1-3.7l5.3,2.6l0.5,6.4
		c0,0-3.5,6.9-13.4,6.9C39.7,35,36.2,31.5,36.2,31.5L36.2,31.5z"/>
	<path class="st0" d="M36.2,31.5c0,0-4.2-3.2-4.2-9.2V5c0-1.4,0.9-2.6,4.6-2.6c4.1,0,4.5,1.6,4.5,2.8v7.2h7.2c0.5,0,0.7,0.3,0.7,0.8
		v4.3c0,0.4-0.2,0.7-0.6,0.7h-4.8c-1.2,0-2.5-0.5-2.5-0.5v2.9C41.1,24.1,40.2,27.8,36.2,31.5L36.2,31.5z"/>
	<path class="st0" d="M60.8,28.1l1.1-12.6l0.5-2.2c0,0,2.3,3.3,8.1,14.1c3.7-6.7,6.1-14.8,6.1-14.8c0.2-0.6,0.6-0.7,1.2-0.5l4,1.2
		c0.5,0.2,0.7,0.4,0.5,1.3c-3.3,9.7-8.5,17.7-8.5,17.7c-1,1.5-2,2.7-5.4,2.7c-2.7,0-3.7-0.9-4.6-2.3L60.8,28.1z"/>
	<path class="st0" d="M60.8,28.1l-6.2-9.8c-0.4-0.7-0.7-1.1-0.7-2c0-1.2,0.6-2.1,2.8-3.5c0.5-0.3,2.1-1,3.5-1c1.8,0,3.2,1.9,3.2,5.9
		C63.4,24.2,60.8,28.1,60.8,28.1L60.8,28.1z"/>
</g>
</svg>
