<?xml version="1.0" encoding="utf-8"?>
<!-- Generator: Adobe Illustrator 26.0.1, SVG Export Plug-In . SVG Version: 6.00 Build 0)  -->
<svg version="1.1" id="Layer_1" xmlns="http://www.w3.org/2000/svg" xmlns:xlink="http://www.w3.org/1999/xlink" x="0px" y="0px"
	 viewBox="0 0 95 35" style="enable-background:new 0 0 95 35;" xml:space="preserve">
<style type="text/css">
	.st0{fill:#343741;}
</style>
<g>
	<path class="st0" d="M15,10h-2.4v11.5H15V10z M4.9,14.1l6.6-8.4H8.5l-5.8,7.5V5.7H0v15.9h2.6v-6.4l5.2,6.4h3.5L4.9,14.1z M15.2,7.2
		c0-0.9-0.6-1.5-1.5-1.5c-0.9,0-1.5,0.6-1.5,1.5c0,0.9,0.6,1.5,1.5,1.5C14.6,8.7,15.2,8,15.2,7.2 M24.5,21.6h2.4v-6.7
		c0-3.4-1.6-5-5-5c-2.4,0-4.5,0.9-4.5,0.9v10.9h2.4v-9.2c0.7-0.2,1.4-0.3,1.9-0.3c1.8,0,2.9,0.5,2.9,3V21.6z M35.7,19
		c-0.4,0.1-0.9,0.2-1.4,0.2c-2.4,0-3.6-1.2-3.6-3.7c0-2.4,1.2-3.6,3.6-3.6c0.5,0,0.9,0.1,1.4,0.2V19z M38.1,21.3V10.6
		c0,0-1.5-0.8-3.9-0.8c-3.8,0-6,2.2-6,5.8s2.2,5.8,6,5.8c0.5,0,1-0.1,1.5-0.2v0.2c0,1.8-1.1,2.8-3.1,2.8c-1.3,0-2.6-0.4-2.6-0.4
		l-0.5,2c0,0,1.4,0.5,3.1,0.5C35.9,26.4,38.1,24.3,38.1,21.3 M50,9.5L50,9.5c0,0,0.1,0,0.1,0C50,9.6,50,9.6,50,9.5 M42.1,10.4
		L42.1,10.4L42.1,10.4C41,10.7,40,11,39.5,11.2l0.4-0.1C40.4,10.8,41,10.7,42.1,10.4L42.1,10.4L42.1,10.4z M39.5,11.2L39.5,11.2
		C39.5,11.2,39.4,11.2,39.5,11.2C39.5,11.2,39.5,11.2,39.5,11.2 M39.3,11.2L39.3,11.2C39.3,11.3,39.2,11.3,39.3,11.2
		c-0.1,0-0.1,0-0.2,0l0,0l0,0c0,0,0,0,0,0C39.2,11.3,39.2,11.3,39.3,11.2 M41.3,10.8L41.3,10.8c0.2,0,0.3-0.1,0.5-0.1l0,0
		C41.7,10.7,41.5,10.7,41.3,10.8 M39.9,11.1L39.9,11.1c0.1,0,0.3-0.1,0.4-0.1l0,0C40.2,11,40.1,11,39.9,11.1 M40.6,10.9
		C40.6,10.9,40.6,10.9,40.6,10.9c0.1,0,0.1,0,0.2,0C40.8,10.9,40.7,10.9,40.6,10.9 M57.4,4.5c3.1,0.2,5.9,0.9,5.9,0.9
		s-6.4-2.9-11.7-2.9c-0.1,0-0.1,0-0.2,0c-4.7,0-7.8,2.6-9.2,7.7l0,0c-0.2,0.1-0.5,0.1-0.7,0.2c0,0,0,0,0,0c-1.1,0.4-1.9,0.7-2.3,0.9
		l0,0c-0.1,0-0.1,0-0.2,0.1c0,0,0,0,0,0c0,0,0,0,0,0s0,0,0.1,0l0,0c0,0-0.1,0-0.1,0c0.4-0.1,0.7-0.2,1.1-0.2c0.2,0,0.3-0.1,0.4-0.1
		c0.1,0,0.3,0,0.4-0.1c0.4-0.1,0.8-0.1,1.1-0.2c-0.1,0.6-0.3,1.2-0.4,1.8c-0.8,4.6-1,11.5-1,16v3c0,0.4,0,0.8,0,1h0h0h0
		c0.7-2.6,4.8-18.1,5.2-19.7c0.2-0.6,0.4-1.2,0.5-1.7c0.1,0,0.1,0,0.2,0.1h0l0,0h0h0l0,0c0.5,0.2,0.9,0.4,1.2,0.7c0,0,0,0,0,0l0,0
		c0.1,0.1,0.1,0.1,0.2,0.2c0.5,0.4,0.9,1,1.1,1.7c0,0,0,0,0,0c0.1,0.3,0.2,0.7,0.3,1.2v0c0.1,0.4,0.1,0.9,0.1,1.4
		c0,5.9-4.9,10.6-4.9,10.6s9.4-5.3,9.6-11.1c0.1-3.1-1.6-5-3.4-6c-0.2-0.1-0.5-0.2-0.7-0.3l0,0l0,0c-0.1,0-0.2-0.1-0.3-0.1
		c-0.8-0.2-1.6-0.3-2.4-0.3c0,0-0.1,0-0.2,0h0c0,0,0,0,0,0l0,0h0h0l0,0c0,0,0,0-0.1,0C48.8,5.8,51,4.1,57.4,4.5 M54.3,8.2
		c0.6-0.6,0.6-1.6,0-2.2c-0.3-0.3-0.6-0.4-1-0.4c-0.4,0-0.8,0.2-1.1,0.5c-0.6,0.6-0.6,1.5,0,2.1c0.3,0.3,0.7,0.5,1.1,0.5
		C53.6,8.6,54,8.5,54.3,8.2 M49.9,9.5C49.9,9.5,49.9,9.5,49.9,9.5C49.9,9.5,49.9,9.5,49.9,9.5L49.9,9.5z M49.5,9.4
		C49.5,9.4,49.5,9.4,49.5,9.4L49.5,9.4L49.5,9.4 M49.4,9.4L49.4,9.4L49.4,9.4L49.4,9.4 M49.2,9.4C49.2,9.4,49.2,9.4,49.2,9.4
		L49.2,9.4C49.2,9.4,49.2,9.4,49.2,9.4 M48.4,9.3C48.4,9.3,48.4,9.3,48.4,9.3L48.4,9.3C48.4,9.3,48.4,9.3,48.4,9.3 M48,9.3L48,9.3
		L48,9.3L48,9.3z M47.8,9.3C47.8,9.3,47.9,9.3,47.8,9.3L47.8,9.3C47.9,9.3,47.8,9.3,47.8,9.3 M47.7,9.3C47.7,9.3,47.7,9.3,47.7,9.3
		L47.7,9.3C47.7,9.3,47.7,9.3,47.7,9.3 M65.4,18.1c0-2.4-2-3-3.6-3.2l-1-0.2c-1.4-0.2-1.9-0.4-1.9-1.2c0-0.3,0-1.4,2.6-1.4
		c1.4,0,2.6,0.5,2.6,0.5l0.5-2.1c0,0-1.5-0.6-3-0.6c-3.2,0-5,1.4-5,3.7c0,2.2,1.4,2.8,3.5,3.2l1,0.2c1.4,0.2,1.9,0.5,1.9,1.2
		c0,1.3-1.4,1.4-2.7,1.4c-1.6,0-3.2-0.6-3.2-0.6l-0.5,2.2c0,0,1.9,0.6,3.8,0.6C63.7,21.7,65.4,20.5,65.4,18.1 M73.9,21.6h2.4v-6.7
		c0-4.2-2.5-5-4.6-5c-0.9,0-1.7,0.1-2.5,0.4V5.7h-2.4v15.9h2.4v-9.1c0.8-0.3,1.5-0.4,2.1-0.4c1.6,0,2.6,0.5,2.6,3L73.9,21.6
		L73.9,21.6z M85.3,14.6h-5.4c0.2-1.7,1.3-2.7,2.8-2.7C84.4,11.9,85.3,12.8,85.3,14.6 M87.7,16.7l0-0.8c0.1-2.1-0.4-3.7-1.4-4.8
		c-0.8-0.9-2-1.3-3.6-1.3c-3.2,0-5.3,2.4-5.3,6c0,4,2.2,6,6.5,6c1.1,0,2.2-0.2,2.9-0.5l0.2-0.1l-0.5-2.1l0,0
		c-0.4,0.2-1.4,0.4-2.4,0.4c-2.5,0-3.8-0.9-4.1-2.8L87.7,16.7L87.7,16.7z M95,12.3v-2.2c0,0-0.8-0.1-1.6-0.1c-2.6,0-4.2,0.7-4.2,0.7
		v10.9h2.4v-9.2c0.6-0.1,1.2-0.1,1.7-0.1C94.3,12.2,95,12.3,95,12.3"/>
</g>
</svg>
