<?xml version="1.0" encoding="utf-8"?>
<!-- Generator: Adobe Illustrator 26.0.1, SVG Export Plug-In . SVG Version: 6.00 Build 0)  -->
<svg version="1.1" id="Layer_1" xmlns="http://www.w3.org/2000/svg" xmlns:xlink="http://www.w3.org/1999/xlink" x="0px" y="0px"
	 viewBox="0 0 95 35" style="enable-background:new 0 0 95 35;" xml:space="preserve">
<style type="text/css">
	.st0{fill:#CCCCCC;}
	.st1{clip-path:url(#SVGID_00000177469961523110551670000001138376202000839584_);fill:#CCCCCC;}
</style>
<path class="st0" d="M13.9,20.8c0-4.4,3.1-7.7,7.1-7.7c2.4,0,4.1,1,5.1,2.8v-2.5h2.7v14.6h-2.7v-2.5c-1,1.8-2.8,2.8-5.1,2.8
	C17,28.4,13.9,25.1,13.9,20.8 M26.2,20.8c0-3.1-1.9-5.3-4.7-5.3c-2.9,0-4.8,2.2-4.8,5.3c0,3.1,1.9,5.2,4.8,5.2
	C24.4,26,26.2,23.9,26.2,20.8"/>
<rect x="33.5" y="13.5" class="st0" width="2.8" height="14.6"/>
<path class="st0" d="M33,10c0-1.1,0.9-1.9,1.9-1.9c1,0,1.9,0.8,1.9,1.9c0,1.1-0.9,1.9-1.9,1.9C33.9,11.9,33,11.1,33,10"/>
<path class="st0" d="M40.8,13.5h2.7v2.4c0.9-1.8,2.8-2.7,5-2.7c3.2,0,5.6,2,5.6,6v9h-2.7v-8.7c0-2.6-1.2-3.8-3.5-3.8
	c-2.6,0-4.3,1.6-4.3,4.4v8.1h-2.7V13.5z"/>
<path class="st0" d="M75.3,25.1l2-1.4c0.9,1.5,2.4,2.4,4.3,2.4c1.9,0,2.9-0.8,2.9-2c0-1.3-1-1.8-3.5-2.5c-2.9-0.8-4.6-1.9-4.6-4.5
	c0-2.4,1.9-4,4.8-4c2.3,0,3.9,0.8,5,2.4L84.3,17c-0.7-0.9-1.6-1.6-3.2-1.6c-1.5,0-2.3,0.7-2.3,1.6c0,1.3,0.9,1.6,3.2,2.2
	c3.1,0.8,5.1,2.1,5.1,4.7c0,2.8-2.1,4.4-5.5,4.4C78.7,28.4,76.6,27.2,75.3,25.1"/>
<polygon class="st0" points="0,6.6 0,28.1 2.7,28.1 2.7,21.8 9.2,28.1 12.8,28.1 5.4,20.8 12.8,13.4 9.2,13.4 2.7,19.7 2.7,6.6 "/>
<g>
	<defs>
		<path id="SVGID_1_" d="M57.6,20.4c0,4.4,3.6,7.9,7.9,7.9c4.4,0,7.9-3.6,7.9-7.9s-3.6-7.9-7.9-7.9C61.2,12.5,57.6,16,57.6,20.4"/>
	</defs>
	<use xlink:href="#SVGID_1_"  style="overflow:visible;fill:#CCCCCC;"/>
	<clipPath id="SVGID_00000037671800103945991730000013678267478301950367_">
		<use xlink:href="#SVGID_1_"  style="overflow:visible;"/>
	</clipPath>
	
		<rect x="57.6" y="12.5" style="clip-path:url(#SVGID_00000037671800103945991730000013678267478301950367_);fill:#CCCCCC;" width="15.9" height="15.9"/>
</g>
<path class="st0" d="M92.6,14.7c0.1,0,0.2,0,0.3,0c0.1,0,0.2,0.1,0.2,0.1c0.1,0.1,0.1,0.1,0.1,0.2c0,0.1,0,0.2,0,0.2
	c0,0.1,0,0.2-0.1,0.3c-0.1,0.1-0.1,0.2-0.3,0.2v0c0.1,0,0.1,0,0.2,0.1c0,0,0.1,0.1,0.1,0.1c0,0,0,0.1,0.1,0.2c0,0.1,0,0.1,0,0.2
	c0,0,0,0.1,0,0.1c0,0,0,0.1,0,0.1c0,0.1,0,0.1,0,0.1c0,0,0,0.1,0.1,0.1h-0.5c0-0.1,0-0.2-0.1-0.3c0-0.1,0-0.2,0-0.3
	c0-0.1-0.1-0.2-0.1-0.3c-0.1-0.1-0.1-0.1-0.3-0.1h-0.5V17h-0.5v-2.3H92.6z M92.4,15.7c0.1,0,0.2,0,0.3-0.1c0.1-0.1,0.1-0.1,0.1-0.2
	c0-0.1,0-0.2-0.1-0.2c-0.1-0.1-0.1-0.1-0.3-0.1h-0.5v0.6H92.4z"/>
<path class="st0" d="M92.3,18.6c-1.5,0-2.7-1.2-2.7-2.7c0-1.5,1.2-2.7,2.7-2.7c1.5,0,2.7,1.2,2.7,2.7C95,17.3,93.8,18.6,92.3,18.6
	 M92.3,13.7c-1.2,0-2.1,1-2.1,2.1c0,1.2,1,2.1,2.1,2.1c1.2,0,2.1-1,2.1-2.1C94.4,14.6,93.4,13.7,92.3,13.7"/>
</svg>
