<?xml version="1.0" encoding="utf-8"?>
<!-- Generator: Adobe Illustrator 26.0.1, SVG Export Plug-In . SVG Version: 6.00 Build 0)  -->
<svg version="1.1" id="Layer_1" xmlns="http://www.w3.org/2000/svg" xmlns:xlink="http://www.w3.org/1999/xlink" x="0px" y="0px"
	 viewBox="0 0 95 35" style="enable-background:new 0 0 95 35;" xml:space="preserve">
<style type="text/css">
	.st0{fill:#343741;}
</style>
<g>
	<path class="st0" d="M6.4,12.1h2.3v8.6h2.7v1.9h-5 M16.4,19.3c-1.5,0-2.1,0.3-2.1,0.9c0,0.5,0.4,0.9,1,0.9c0.5,0,1-0.2,1.1-0.3
		V19.3z M19.6,15.2h1.9l0.2,0.8c0.7-0.6,1.6-1,2.5-1c1.5,0,2.3,0.8,2.3,2.7v5h-2.2v-4.6c0-0.9-0.3-1.2-1-1.2c-0.5,0-1.1,0.3-1.5,0.6
		v5.2h-2.2L19.6,15.2L19.6,15.2z M27.5,18.9c0-2.3,1.5-3.9,4.1-3.9c0.3,0,0.6,0,0.8,0.1v-2.9h2.2v10.2c-0.9,0.4-1.9,0.5-2.8,0.5
		C29.4,22.9,27.5,21.4,27.5,18.9 M32.5,20.9v-4.1c-0.1,0-0.4,0-0.6,0c-1.3,0-2.1,0.9-2.1,2.2c0,1.3,0.9,2.1,2.1,2.1
		C32,21,32.3,21,32.5,20.9 M43.5,19.1c0,1.5,0.9,2.7,2.7,2.7c0.9,0,1.7-0.3,2.2-0.6v1c-0.5,0.3-1.5,0.6-2.3,0.6
		c-2.6,0-3.7-1.8-3.7-4c0-2.3,1.3-3.9,3.2-3.9c2,0,3.1,1.5,3.1,3.9v0.3H43.5z M47.3,18.2c0-1.2-0.6-2.3-1.8-2.3
		c-1.2,0-1.9,1.1-2,2.3H47.3z M55.7,15.2h1.2V20c0,1,0.2,1.9,1.3,1.9c0.9,0,1.6-0.5,2-1.1v-5.6h1.2v5c0,1.5,0.1,2.2,0.2,2.5h-1.1
		l-0.2-0.9c-0.7,0.6-1.4,1-2.4,1c-1.7,0-2.2-1.2-2.2-2.6L55.7,15.2L55.7,15.2z M62.6,15.2h1l0.1,0.9c0.6-0.9,1.4-1.2,1.9-1.2
		c0.3,0,0.6,0.1,0.8,0.2v1.1c-0.2-0.1-0.6-0.2-0.9-0.2c-0.5,0-1.2,0.3-1.8,1.1v5.5h-1.2L62.6,15.2L62.6,15.2z M67.3,15.2h1.2v7.5
		h-1.2V15.2z M70.5,16.1h-1.3v-0.9h1.3v-1.6l1.2-0.4v2H74l-0.4,0.9h-1.9v4.7c0,0.7,0.3,1,0.9,1c0.5,0,0.9-0.2,1.3-0.4v1
		c-0.4,0.3-1,0.4-1.6,0.4c-1.2,0-1.9-0.7-1.9-1.9V16.1L70.5,16.1z M16.4,17.6c0-0.7-0.5-0.9-1.3-0.9c-0.6,0-1.4,0.2-2,0.5l-0.7-1.4
		c0.8-0.4,1.9-0.7,3.1-0.7c2.1,0,3,1,3,3v3.3c0,0.5,0,1.1,0.1,1.5h-1.8l-0.3-0.6c-0.5,0.4-1.2,0.8-2.1,0.8c-1.4,0-2.4-1-2.4-2.4
		c0-2.2,2.3-2.6,4.3-2.6L16.4,17.6L16.4,17.6z M78.3,19.1c0,1.5,0.9,2.7,2.7,2.7c0.9,0,1.7-0.3,2.2-0.6v1c-0.5,0.3-1.5,0.6-2.3,0.6
		c-2.6,0-3.7-1.8-3.7-4c0-2.3,1.3-3.9,3.2-3.9c2,0,3.1,1.5,3.1,3.9v0.3H78.3z M82.1,18.2c0-1.2-0.6-2.3-1.8-2.3
		c-1.2,0-1.9,1.1-2,2.3H82.1z M52.9,21.9c0.8,0,1.5-0.3,2.1-0.6v1c-0.5,0.3-1.3,0.6-2.2,0.6c-2.4,0-3.6-1.7-3.6-3.9
		c0-2.2,1.3-4,3.7-4c0.8,0,1.4,0.2,1.8,0.5v1c-0.5-0.3-1-0.5-1.8-0.5c-1.7,0-2.6,1.3-2.6,3C50.4,20.8,51.3,21.9,52.9,21.9
		 M67.2,12.4h1.3v1.4h-1.3V12.4z M75,15.2h1.2v7.5H75V15.2z M75,12.4h1.3v1.4H75V12.4z M86.1,22.9c-0.8,0-1.7-0.3-2.2-0.6v-1
		c0.5,0.3,1.3,0.6,2.2,0.6c0.8,0,1.6-0.4,1.6-1.2c0-1.6-3.6-1.1-3.6-3.6c0-1.1,0.9-2.1,2.6-2.1c0.7,0,1.4,0.2,1.9,0.4v1
		c-0.5-0.2-1.1-0.4-1.9-0.4c-0.7,0-1.5,0.2-1.5,1c0,1.7,3.6,1.1,3.6,3.6C88.9,22.1,87.6,22.9,86.1,22.9 M38.3,22.9
		c1.9,0,3.2-1.1,3.2-2.8c0-3.4-4.4-2.8-4.4-5.3c0-1.2,0.9-1.6,1.8-1.6c0.8,0,1.5,0.2,2.2,0.6v-1.1c-0.5-0.2-1.3-0.5-2.2-0.5
		c-1.9,0-3,1.2-3,2.7c0,3.3,4.4,2.7,4.4,5.3c0,1.3-1,1.8-2,1.8c-0.9,0-1.8-0.3-2.5-0.6v1.1C36.4,22.6,37.4,22.9,38.3,22.9"/>
	<polyline class="st0" points="3.2,5.7 11.9,5.7 8.7,8.9 3.2,8.9 3.2,14.4 0,17.6 0,8.9 	"/>
	<polyline class="st0" points="91.8,29.3 83.1,29.3 86.3,26.1 91.8,26.1 91.8,20.6 95,17.4 95,26.1 	"/>
</g>
</svg>
