<?xml version="1.0" encoding="utf-8"?>
<!-- Generator: Adobe Illustrator 26.0.1, SVG Export Plug-In . SVG Version: 6.00 Build 0)  -->
<svg version="1.1" id="Layer_1" xmlns="http://www.w3.org/2000/svg" xmlns:xlink="http://www.w3.org/1999/xlink" x="0px" y="0px"
	 viewBox="0 0 95 35" style="enable-background:new 0 0 95 35;" xml:space="preserve">
<style type="text/css">
	.st0{fill:#FFFFFF;}
	
		.st1{fill:#FFFFFF;stroke:#FFFFFF;stroke-width:5.640971e-02;stroke-linecap:round;stroke-linejoin:round;stroke-miterlimit:37.7953;stroke-opacity:0;}
</style>
<g id="layer1" transform="translate(3.7240107,-145.59339)">
	<g id="g2084" transform="translate(0.13229186,-0.13228568)">
		<path id="path1630" class="st0" d="M24,169.4H17v-5.3h5.4c0,0-0.1-0.6-0.1-1.1c0-0.4,0.1-1.1,0.1-1.1H17v-5.3H24l1.7-2.1H14.8
			v17.3h10.9l-1.5-2.4H24z"/>
		<path id="path1636" class="st0" d="M59.3,171.9v-9.8l2.6-2.7v12.4H59.3z"/>
		<path id="path1642" class="st1" d="M59.3,162.1v9.8h2.6v-12.4L59.3,162.1z"/>
		<path id="path1648" class="st0" d="M59.3,154.6H64l-4.7,4.7V154.6z"/>
		<path id="path1654" class="st1" d="M59.3,154.6v4.7l4.7-4.7H59.3z"/>
		<path id="path1668" class="st0" d="M33.3,164.1h4.2v4.8c-3.4,1.4-6.9,0.7-8.8-2c-2.1-3-1.3-8.3,2.6-9.7c1.9-0.7,4.4-0.6,6.4-0.5
			l2.2-2.1c-3.5,0-7.1-0.4-9.6,0.5c-7.5,2.8-6.9,14.1,1.2,16.6c0.4,0.1,1.4,0.3,2.3,0.3c2.5,0.1,4.4-0.7,6.2-1.4V162h-6.7"/>
		<path id="path1674" class="st0" d="M49.9,164.1h4.2v4.8c-3.4,1.4-6.9,0.7-8.8-2c-2.1-3-1.3-8.3,2.6-9.7c1.9-0.7,4.4-0.5,6.4-0.5
			l2.2-2.1c-3.5,0-7.1-0.4-9.6,0.5c-7.5,2.8-6.9,14.1,1.1,16.5c0.4,0.1,1.4,0.3,2.3,0.3c2.5,0,4.4-0.7,6.2-1.4V162l-6.7,0"/>
		<path id="path1680" class="st0" d="M9.2,154.6l-5.4,6.9l-5.4-6.9h-2.1v17.3h2.4v-13.5l5.2,7l5.2-7v13.5h2.4v-17.3H9.2z"/>
		<path id="path1686" class="st1" d="M9.2,154.6l-5.4,6.9l-5.4-6.9h-2.1v17.3h2.4v-13.5l5.2,7l5.2-7v13.5h2.4v-17.3H9.2z"/>
		<path id="path1692" class="st0" d="M66.4,154.6l-2.2,2.1h6.2v15.1h2.4v-15.1h9.7v15.1h2.7v-15.1h6v-2.1H66.4z"/>
		<path id="path1698" class="st1" d="M66.4,154.6l-2.2,2.1h6.2v15.1h2.4v-15.1h9.7v15.1h2.7v-15.1h6v-2.1H66.4z"/>
	</g>
</g>
</svg>
