<?xml version="1.0" encoding="utf-8"?>
<!-- Generator: Adobe Illustrator 26.0.1, SVG Export Plug-In . SVG Version: 6.00 Build 0)  -->
<svg version="1.1" id="Layer_1" xmlns="http://www.w3.org/2000/svg" xmlns:xlink="http://www.w3.org/1999/xlink" x="0px" y="0px"
	 viewBox="0 0 95 35" style="enable-background:new 0 0 95 35;" xml:space="preserve">
<style type="text/css">
	.st0{fill:#FFFFFF;}
</style>
<g id="layer1" transform="translate(-89.0701, -575.693)">
	<g id="g20541" transform="matrix(0.55869, 0, 0, 0.55869, 39.3075, 254.059)">
		<path id="path20449" class="st0" d="M101.6,638c-2.9-0.8-4.7-2.2-5.9-4.6c-0.7-1.4-1.3-3.9-1.3-5.5c0-1,0-1,0.7-1
			c0.6,0.1,0.7,0.1,0.8,1.8c0.4,4.2,2.1,6.6,5.4,7.8c1.8,0.7,6,0.7,8.1,0.1c1.5-0.5,3.2-1.6,4-2.8c1.3-1.9,1.2-4.8-0.2-6.4
			c-1-1.2-3.7-2.3-7-3.1c-8.3-1.9-10.4-3.3-10.6-7.4c-0.2-3.9,1.7-6.4,5.6-7.5c1.6-0.4,6.1-0.4,7.7,0c3,0.8,5.1,3.1,6,6.6
			c0.5,1.9,0.5,2-0.3,2c-0.6-0.1-0.7-0.2-0.9-1.3c-0.6-2.8-2.1-4.7-4.3-5.7c-2.4-1-7.1-0.9-9.4,0.3c-2.3,1.1-3.5,3.6-3,6
			c0.6,2.8,2.4,4,9,5.6c5.1,1.3,6.9,2,8.3,3.6c1.2,1.3,1.6,2.9,1.4,5.1c-0.3,3.2-2.6,5.5-6.7,6.5C106.9,638.5,103.3,638.5,101.6,638
			z"/>
		<path id="path20447" class="st0" d="M194.2,638.1c-3.5-0.8-6.6-3.5-8.2-7.1c-1.7-3.9-1.6-10.9,0.3-15c1.4-3.1,4-5.5,7.2-6.5
			c1.8-0.6,5.8-0.6,7.6-0.2c3.6,0.9,6.2,3.5,7.3,7.2c0.3,0.9,0.5,1.7,0.5,1.7s-0.3,0.1-0.7,0.1c-0.6,0-0.7-0.1-1.1-1.4
			c-1.3-4.6-5.1-7-10.3-6.7c-2.9,0.2-4.6,0.8-6.5,2.6c-1.7,1.6-2.7,3.3-3.5,6c-0.4,1.5-0.6,2.4-0.6,4.8c0,4.2,0.8,6.8,2.8,9.5
			c3.6,4.8,11.9,5.2,16,0.7c1.4-1.5,2.7-4.3,2.9-6.3c0.1-1.2,0.2-1.3,0.8-1.3c0.6,0,0.7,0.1,0.7,0.7c0,1.1-0.7,3.4-1.5,5
			c-1.5,3-4,5.1-7.3,5.9C199,638.4,195.7,638.5,194.2,638.1z"/>
		<path id="path20445" class="st0" d="M118.2,609.6v14.2v14.2l0.7-0.1l0.7-0.1l0.1-6.5l0.1-6.5l5.2,0c2.9,0,5.7-0.1,6.3-0.2
			c1.7-0.4,3.6-1.5,4.5-2.5c1.3-1.6,1.6-2.9,1.5-5.3c-0.2-3.2-1-4.6-3.6-6c-1.4-0.8-3.3-1-9.5-1H118.2z M119.6,610.7l5.6,0.1
			c6.3,0.1,7.5,0.4,8.9,1.8c1.2,1.2,1.6,2.3,1.6,4.5c0,1.5-0.1,2.1-0.6,3c-0.7,1.3-2.1,2.5-3.5,3c-0.5,0.2-3.1,0.3-6.5,0.4l-5.6,0.1
			v-6.4V610.7z"/>
		<path id="path20441" class="st0" d="M139.8,623.7v-14.2h9h9v0.6v0.6h-8.4H141v6v6h7.8h7.8v0.6v0.6h-7.8H141v6.2v6.2h8.4h8.4v0.7
			v0.7h-9h-9V623.7z"/>
		<path id="path20439" class="st0" d="M160.6,637.7c-0.1-0.1-0.2-6.5-0.2-14.2v-14h0.8c0.9,0,0.3-0.7,7,8.6c2.1,2.9,4,5.7,4.3,6.1
			s2.2,3.2,4.3,6.2l3.8,5.4l0.1-13.1l0.1-13.1h0.6h0.6v14.2v14.2h-0.7c-0.6,0-1-0.5-4.2-5c-1.9-2.7-4.1-5.8-4.8-6.7
			c-0.7-1-1.3-1.8-1.3-1.9c0-0.1-1.8-2.6-3.9-5.6c-2.2-3-4.2-5.9-4.5-6.4l-0.6-1l-0.1,13.3l-0.1,13.3h-0.6
			C161,637.9,160.7,637.8,160.6,637.7z"/>
		<path id="path20437" class="st0" d="M212,623.7v-14.2h8.9h8.9v0.6v0.6h-8.3h-8.3v6v6h7.8h7.8v0.6v0.6H221h-7.8v6.2v6.2h8.4h8.4
			v0.7v0.7h-9h-9V623.7z"/>
		<path id="path20435" class="st0" d="M232.9,609.5v14.2v14.2h0.6h0.6v-7v-7h3.9c3.9,0,3.9,0,4.3,0.6c0.2,0.3,2.5,3.5,5.2,7
			c4.5,6,4.8,6.4,5.6,6.4c0.4,0,0.8,0,0.8-0.1c0-0.1-2.3-3.2-5.2-7l-5.2-6.9h1.3c1.7,0,4.4-0.8,5.5-1.8c1.4-1.1,2.2-2.9,2.2-5.3
			c0-2.6-0.5-4.1-1.9-5.4c-1.8-1.7-2.6-1.8-10.6-1.9L232.9,609.5z M234.2,610.9h6.1c6.9,0,7.9,0.2,9.3,1.6c1.1,1.1,1.3,1.7,1.4,3.8
			c0.1,1.6,0.1,2-0.5,3.2c-0.7,1.6-2.1,2.6-4,3c-1.8,0.4-12.2,0.3-12.3,0c-0.1-0.2-0.1-2.8-0.1-5.9L234.2,610.9z"/>
		<path id="path20431" class="st0" d="M210.9,604.8c-4.1-0.9-6.6-3.6-7.4-8.1c-0.5-2.9-0.5-3.2,0.4-3.2c0.7,0,0.7,0,0.7,1
			c0,1.3,0.6,3.8,1.2,5c1.7,3.2,5.4,4.8,10.3,4.2c4.7-0.6,7.1-2.7,7.1-6.3c0-1.1-0.1-1.7-0.6-2.5c-1.1-2-2.4-2.5-8.7-4.1
			c-6.4-1.6-8.4-2.8-9.3-5.4c-1.1-3.4,0.4-7.1,3.5-8.5c2.9-1.4,8.7-1.4,11.3-0.1c2.4,1.3,4.1,3.7,4.7,7c0.2,0.9,0.1,0.9-0.5,0.9
			c-0.6,0-0.7-0.1-1-1.5c-0.6-2.7-1.8-4.3-4.2-5.4c-1.3-0.6-1.6-0.7-4.4-0.7c-3.2,0-4.3,0.3-6.1,1.4c-2.4,1.6-2.8,5.8-0.8,8
			c1,1,3.3,2,7.2,2.9c4.4,1,4.9,1.2,6.4,1.9c2.8,1.3,4.2,3.5,4,6.5c-0.1,2-0.7,3.2-2.2,4.6c-1.8,1.7-3.9,2.4-7.5,2.5
			C213.2,604.9,211.4,604.9,210.9,604.8z"/>
		<path id="path20429" class="st0" d="M240.7,575.7c-2.1,0-3.3,0.4-4.5,1.5c-1.6,1.4-2.1,2.5-2,4.5c0.1,1.3,0.3,1.9,1.1,3.3
			c0.6,0.9,1.4,2.2,1.8,2.8l0.8,1.1l-1.9,1.2c-2.3,1.5-4,3.2-4.6,4.5c-0.6,1.2-0.6,4.3-0.1,5.6c1,2.3,3,3.8,6.2,4.7
			c0.3,0.1,1.3,0.1,2.4,0.1c2.5-0.1,4.5-1,6.5-2.9c0.8-0.7,1.6-1.4,1.7-1.4c0.1,0,1,0.9,2,1.9c1.6,1.7,1.9,1.9,2.3,1.7
			c0.5-0.2,0.5-0.2-0.5-1.4c-0.6-0.6-1.5-1.7-2-2.3c-0.6-0.6-1-1.3-0.9-1.5s0.4-1.1,0.7-1.9c0.4-0.8,0.7-2,0.7-2.6
			c0-0.9,0-1.1-0.4-1.1c-0.4,0-0.5,0.3-0.7,1.4c-0.1,0.8-0.5,1.9-0.8,2.5l-0.5,1l-2-2.2c-1.1-1.2-2.1-2.3-2.2-2.4
			c-0.6-0.5-4-4.7-4-4.9c0.1-0.3,0.7-0.7,2.4-1.6c1.3-0.7,3.7-3.1,4.1-4.1c0.5-1.3,0.5-3.1-0.1-4.4
			C245.4,576.9,243.3,575.7,240.7,575.7z M240.6,576.9c1.5,0,1.8,0.1,2.9,0.8c1.4,0.9,2.1,2.1,2.1,3.8c0,2-1.4,3.7-4.8,5.7
			c-0.9,0.6-1.7,1-1.8,1c-0.3,0-2.3-2.8-2.9-4.1c-1-1.9-1.1-3.2-0.3-4.6C236.8,577.7,238.2,576.9,240.6,576.9z M238.3,589.8
			c0.2-0.1,1.6,1.3,3.6,3.6c1.8,2.1,3.8,4.3,4.3,4.8c0.5,0.6,1,1.1,1,1.3c0.1,0.3-1.8,2.2-3,2.9c-0.5,0.3-1.6,0.8-2.4,1
			c-3.2,0.8-6.1,0.2-8-1.8c-1.1-1.1-1.7-2.6-1.8-4.2C232.1,594.6,233.8,592.5,238.3,589.8z"/>
		<path id="path20423" class="st0" d="M95.6,590.3v-14.2l1,0.1l1,0.1l1.1,2.4c1.5,3.3,4.5,9.9,5.6,12.2c0.5,1.1,1.9,4.1,3.1,6.8
			c1.2,2.7,2.3,4.9,2.4,4.9s0.3-0.2,0.3-0.5c0.1-0.3,2.4-5.3,5-11.1c2.7-5.8,5.3-11.5,5.8-12.7c0.9-2.1,0.9-2.1,1.8-2.1l0.9,0v14.2
			v14.2h-0.6h-0.6l-0.1-13.1l-0.1-13.1l-0.7,1.7c-0.4,0.9-3.1,6.8-6,13.1l-5.3,11.4l-0.7-0.1c-0.7-0.1-0.8-0.3-2.4-3.7
			c-0.9-2-2.2-4.7-2.8-6s-2.6-5.6-4.4-9.4l-3.2-7l-0.1,13.1l-0.1,13.1h-0.6h-0.6V590.3z"/>
		<path id="path20421" class="st0" d="M139.8,575.9c-0.5,0-0.7,0.2-1,0.8c-0.4,0.9-0.9,2.1-1,2.5c0,0.1-1,2.3-2.1,4.8
			s-2.4,5.3-2.8,6.2c-0.4,0.9-1.9,4.3-3.3,7.5c-1.4,3.2-2.7,6-2.8,6.3c-0.1,0.4-0.1,0.5,0.5,0.5c0.8,0,0.5,0.5,3.2-5.7l1.5-3.4h7.8
			h7.8l1.1,2.5c0.6,1.4,1.4,3.4,1.9,4.5c0.8,1.9,0.9,2.1,1.7,2.1c1,0.1,1.1,0.5-2.2-6.8c-1.4-3.2-2.9-6.6-3.3-7.5
			c-0.4-0.9-1.6-3.7-2.8-6.2s-2.1-4.7-2.1-4.8c0-0.1-0.4-0.9-0.7-1.7C140.5,576.1,140.3,575.9,139.8,575.9z M139.8,577.9
			c0.1,0,0.4,0.6,0.7,1.3c0.3,0.7,1.4,3.3,2.5,5.7c1.1,2.4,2.2,4.9,2.4,5.5c0.2,0.6,0.7,1.7,1,2.5l0.6,1.4h-7.2
			c-5.7,0-7.2-0.1-7.1-0.3c0.3-0.6,1.8-4.1,4-9.2c1.3-2.9,2.5-5.6,2.6-6.1C139.4,578.2,139.7,577.9,139.8,577.9z"/>
		<path id="path20417" class="st0" d="M155.7,576.2l0.1,14.2l0.1,14.2h0.6h0.6v-7v-7h4.3h4.3l5.2,7c5.1,6.8,5.2,7,6,7
			c0.6,0,0.8-0.1,0.6-0.3c-0.2-0.4-8.1-10.8-9.3-12.3l-1-1.2l1.9-0.2c2.5-0.2,4.2-1,5.5-2.5c1.3-1.4,1.6-2.7,1.5-5.4
			c-0.1-1.9-0.2-2.3-0.8-3.3c-0.4-0.6-1.1-1.4-1.7-1.8c-1.7-1.2-3.4-1.4-11.1-1.4H155.7z M157,577.4l5.8,0c4.2,0,6.3,0.1,7.5,0.4
			c3.3,0.7,4.5,2.2,4.6,5.8c0,1.7,0,2.1-0.7,3.1c-0.6,0.9-1,1.3-2.2,1.9l-1.4,0.7l-6.8,0.1l-6.8,0.1v-6V577.4z"/>
		<path id="path20411" class="st0" d="M180.8,590.3V576l0.7,0.1l0.7,0.1l-0.1,8.3l-0.1,8.3l0.5-0.5c0.3-0.3,1.4-1.3,2.5-2.3
			c1.1-1,3.2-2.9,4.7-4.3c1.5-1.4,4.4-4.1,6.5-6.1c3.6-3.4,3.8-3.5,4.7-3.5h1l-1.5,1.4c-0.8,0.8-1.8,1.6-2.1,2
			c-0.3,0.3-2.4,2.3-4.6,4.3c-2.6,2.4-4,3.8-3.8,4c0.6,0.7,11.7,14.3,12.5,15.3c0.5,0.6,0.9,1.2,0.9,1.3s-0.4,0.1-0.8,0.1
			c-0.7,0-1-0.2-2.1-1.7c-0.7-0.9-3.7-4.6-6.5-8.1l-5.2-6.4l-1.7,1.6c-2.5,2.4-3.9,3.7-4.5,4.1c-0.5,0.3-0.5,0.6-0.5,5.4v5h-0.6
			h-0.6V590.3z"/>
	</g>
</g>
</svg>
