<?xml version="1.0" encoding="utf-8"?>
<!-- Generator: Adobe Illustrator 26.0.1, SVG Export Plug-In . SVG Version: 6.00 Build 0)  -->
<svg version="1.1" id="Layer_1" xmlns="http://www.w3.org/2000/svg" xmlns:xlink="http://www.w3.org/1999/xlink" x="0px" y="0px"
	 viewBox="0 0 95 35" style="enable-background:new 0 0 95 35;" xml:space="preserve">
<style type="text/css">
	.st0{fill:#FFFFFF;}
</style>
<g id="layer1" transform="translate(256.53384,128.10074)">
	<g id="g2780" transform="translate(35.433051,35.404795)">
		<path id="path2607" class="st0" d="M-200.6-147.9c0,0.9-1.3,1.6-2.9,1.6c-1.6,0-2.9-0.7-2.9-1.6c0-0.9,1.3-1.6,2.9-1.6
			C-201.9-149.5-200.6-148.8-200.6-147.9"/>
		<path id="path2611" class="st0" d="M-276.9-139.3c-6.1-0.7-9.9-2.1-11.2-4.2c0.5,2.6,1.3,6.8,2,9.2c0.1,0.5,0.4,1.1,0.7,1.6
			c1.6,2.5,4,3.6,8.2,4c1,0.1,2,0.2,2.8,0.2l-2.1-10.8C-276.6-139.3-276.8-139.3-276.9-139.3 M-282.3-141.1l13-10.3l-2.1-12.1
			c0,0-14.8,12.9-15.1,13.2c-1.1,0.9-3,3.2-1,6.4C-286.7-142.8-285-141.8-282.3-141.1"/>
		<path id="path2615" class="st0" d="M-270.9-145.4h4.4l-0.3,1.3h0c0.9-0.9,2.1-1.6,4-1.6c1.9,0,2.6,0.6,2.9,1.6
			c0.8-0.9,2.2-1.6,4-1.6c2.2,0,3.7,0.9,3.2,3.2l-1.4,6.6h-4.5l1.2-5.4c0.2-1-0.1-1.3-0.9-1.3c-0.9,0-1.6,0.4-1.9,1.6l-1.1,5.1h-4.4
			l1.2-5.4c0.2-1-0.1-1.3-0.9-1.3c-0.9,0-1.6,0.4-1.9,1.6l-1.1,5.1h-4.5L-270.9-145.4"/>
		<path id="path2619" class="st0" d="M-243.8-145.8c5.1,0,6.9,1.6,6.2,5.2c-0.8,3.5-3.4,5.2-8.4,5.2c-5.1,0-6.9-1.6-6.2-5.2
			C-251.4-144.1-248.9-145.8-243.8-145.8 M-245.4-138.3c1.8,0,2.8-0.8,3.1-2.3c0.3-1.5-0.2-2.3-2.1-2.3c-1.8,0-2.8,0.8-3.1,2.3
			C-247.8-139.1-247.2-138.3-245.4-138.3"/>
		<path id="path2623" class="st0" d="M-235.5-145.4h4.4l-0.3,1.2h0c0.6-0.6,2.2-1.5,4.4-1.5c2.5,0,4.1,1.1,3.5,3.7l-1.3,6.1h-4.5
			l1.1-5c0.3-1.2-0.3-1.7-1.4-1.7c-1.2,0-2.2,0.7-2.6,2.3l-1,4.4h-4.5L-235.5-145.4"/>
		<path id="path2627" class="st0" d="M-213.7-136.8L-213.7-136.8c-1,0.9-2.4,1.4-4.4,1.4c-2.9,0-5.3-1.6-4.5-5.1
			c0.8-3.6,3.8-5.1,6.7-5.1c1.8,0,3,0.4,3.6,1.3h0l1-4.4h4.5l-2.8,12.9h-4.4L-213.7-136.8z M-215.1-142.7c-1.6,0-2.7,0.9-2.9,2.2
			c-0.3,1.3,0.2,2.2,2,2.2c1.7,0,2.6-0.8,2.9-2.2C-212.8-141.9-213.3-142.7-215.1-142.7"/>
		<path id="path2631" class="st0" d="M-206.2-145.4h4.5l-2.1,9.6h-4.5L-206.2-145.4z"/>
	</g>
</g>
</svg>
