<?xml version="1.0" encoding="utf-8"?>
<!-- Generator: Adobe Illustrator 26.0.1, SVG Export Plug-In . SVG Version: 6.00 Build 0)  -->
<svg version="1.1" id="Layer_1" xmlns="http://www.w3.org/2000/svg" xmlns:xlink="http://www.w3.org/1999/xlink" x="0px" y="0px"
	 viewBox="0 0 95 35" style="enable-background:new 0 0 95 35;" xml:space="preserve">
<style type="text/css">
	.st0{fill:#343741;}
</style>
<g>
	<g>
		<polygon class="st0" points="35.9,6.8 41.3,22.4 45.1,22.4 50.6,6.8 50.6,22.4 54.2,22.4 54.2,0.9 49.4,0.9 43.2,17.7 37,0.9 
			32.2,0.9 32.2,22.4 35.9,22.4 		"/>
		<path class="st0" d="M75.6,22.4l-3-3.4c1.1-1.4,1.8-3.1,2.2-4.8l-3.2-0.8c-0.3,1.1-0.7,2.1-1.3,3.1L66,11.6
			c2.7-1.5,4.4-3.3,4.4-5.8c0-2.9-2.2-5.2-5.9-5.2c-3.6,0-6,2.2-6,5.3c0,2,1.1,3.6,2.3,5c-2.1,1.3-3.9,3.1-3.9,5.9
			c0,3.9,3.3,6.1,7.5,6.1c2.1,0.1,4.2-0.5,5.9-1.7l1.2,1.3L75.6,22.4L75.6,22.4z M64.4,3.6c1.2-0.1,2.2,0.7,2.3,1.9
			c0,0.1,0,0.2,0,0.3c0,1.4-0.9,2.3-3,3.4c-0.9-0.9-1.7-1.9-1.7-3.2c-0.1-1.2,0.8-2.3,2-2.3C64.2,3.6,64.3,3.6,64.4,3.6z M64.6,19.7
			c-2.2,0-4.1-0.9-4.1-3c0-1.5,0.9-2.4,2.5-3.4l5.1,5.5C67,19.3,65.8,19.7,64.6,19.7L64.6,19.7z"/>
		<path class="st0" d="M86.4,10.7v3h5.5v0.5c0,3.5-2.3,5.2-5.4,5.2c-3.9,0-6.6-3-6.6-7.9s2.8-7.8,6.6-7.8c2.2-0.1,4.2,1,5.4,2.8
			l2.8-1.9c-1.8-2.7-4.9-4.3-8.2-4.3c-6.2,0-10.3,4.4-10.3,11.2s4,11.2,10,11.2c2.6,0,4.6-1,5.8-2.7v2.2H95V10.7H86.4z"/>
	</g>
	<g>
		<rect x="32.2" y="26.7" class="st0" width="1" height="7.7"/>
		<path class="st0" d="M37.7,28.7c-0.7-0.1-1.4,0.3-1.8,0.9v-0.7H35v5.6h0.9v-3.3c0-0.9,0.7-1.6,1.6-1.6c0,0,0,0,0,0
			c0.6,0,1.1,0.4,1.2,1.1c0,0.1,0,0.1,0,0.2v3.6h0.9v-3.8c0.1-1-0.6-1.8-1.6-1.9C37.9,28.7,37.8,28.7,37.7,28.7z"/>
		<polygon class="st0" points="43,33.3 41.4,28.8 40.4,28.8 42.5,34.4 43.5,34.4 45.6,28.8 44.6,28.8 		"/>
		<path class="st0" d="M48.7,28.7c-1.5,0-2.6,1.2-2.6,2.9s1.1,2.9,2.8,2.9c0.9,0,1.7-0.4,2.2-1.2l-0.7-0.5c-0.5,0.8-1.6,1.1-2.5,0.6
			c-0.5-0.3-0.8-0.9-0.8-1.5h4.2v-0.2C51.2,29.9,50.2,28.7,48.7,28.7z M47,31.2c0-0.9,0.7-1.6,1.6-1.7c0.9,0,1.6,0.7,1.6,1.6
			L47,31.2z"/>
		<path class="st0" d="M54.6,31.2c-0.8-0.1-1.4-0.3-1.4-0.9s0.5-0.7,1.2-0.7c0.6,0,1.1,0.2,1.4,0.7l0.7-0.5c-0.5-0.7-1.3-1.1-2.1-1
			c-1.2,0-2.1,0.6-2.1,1.6c0,1.2,1,1.5,2,1.7c0.8,0.1,1.4,0.3,1.4,0.9s-0.5,0.8-1.2,0.8c-0.7,0-1.3-0.3-1.7-0.9L52,33.3
			c0.5,0.8,1.5,1.3,2.4,1.2c1.3,0,2.2-0.7,2.2-1.7C56.6,31.6,55.5,31.3,54.6,31.2z"/>
		<path class="st0" d="M59.7,33.7c-0.5,0-0.7-0.2-0.7-0.8v-3.3h1.4v-0.8h-1.4v-1.5h-0.9v1.5h-0.8v0.8h0.8v3.5c0,1,0.6,1.4,1.5,1.4
			c0.3,0,0.6-0.1,0.9-0.2l-0.2-0.8C60.1,33.7,59.9,33.7,59.7,33.7z"/>
		<path class="st0" d="M67.6,28.7c-0.7,0-1.4,0.4-1.7,1c-0.3-0.6-0.9-1-1.6-1c-0.6,0-1.2,0.3-1.6,0.8v-0.7h-0.9v5.6h0.9v-3.3
			c0-0.8,0.6-1.5,1.4-1.6c0.7,0,1,0.4,1,1.3v3.6H66v-3.3c0-0.8,0.6-1.5,1.4-1.6c0.7,0,1,0.4,1,1.2v3.6h0.9v-3.9
			c0.1-0.9-0.6-1.7-1.6-1.8C67.7,28.7,67.6,28.7,67.6,28.7z"/>
		<path class="st0" d="M73.2,28.7c-1.5,0-2.6,1.2-2.6,2.9s1.1,2.9,2.8,2.9c0.9,0,1.7-0.4,2.2-1.2l-0.7-0.5c-0.5,0.8-1.6,1.1-2.5,0.6
			c-0.5-0.3-0.8-0.9-0.8-1.5h4.2v-0.2C75.8,29.9,74.7,28.7,73.2,28.7z M71.6,31.2c-0.1-0.9,0.6-1.7,1.5-1.7c0.9-0.1,1.7,0.6,1.7,1.5
			c0,0.1,0,0.1,0,0.2H71.6z"/>
		<path class="st0" d="M79.8,28.7c-0.7-0.1-1.4,0.3-1.8,0.9v-0.7h-0.9v5.6H78v-3.3c0-0.9,0.7-1.6,1.6-1.6c0.6,0,1.1,0.4,1.2,1.1
			c0,0.1,0,0.1,0,0.2v3.6h0.9v-3.8c0.1-1-0.6-1.8-1.6-1.9C80,28.7,79.9,28.7,79.8,28.7z"/>
		<path class="st0" d="M85,33.7c-0.5,0-0.7-0.2-0.7-0.8v-3.3h1.4v-0.8h-1.4v-1.5h-0.9v1.5h-0.8v0.8h0.8v3.5c0,1,0.6,1.4,1.5,1.4
			c0.3,0,0.6-0.1,0.9-0.2l-0.1-0.7C85.5,33.7,85.3,33.7,85,33.7z"/>
		<path class="st0" d="M89.1,31.2c-0.8-0.1-1.4-0.3-1.4-0.9s0.5-0.7,1.2-0.7c0.6,0,1.1,0.2,1.4,0.7l0.7-0.5c-0.5-0.7-1.3-1.1-2.1-1
			c-1.2,0-2.1,0.6-2.1,1.6c0,1.2,1,1.5,2,1.7c0.8,0.1,1.4,0.3,1.4,0.9s-0.5,0.8-1.2,0.8c-0.7,0-1.3-0.3-1.7-0.9l-0.7,0.5
			c0.5,0.8,1.5,1.3,2.5,1.2c1.3,0,2.2-0.7,2.2-1.7C91.2,31.6,90.1,31.3,89.1,31.2z"/>
	</g>
	<path class="st0" d="M17.8,4.5v14.2H3.6V4.5H17.8 M21.5,0.9H0v21.5h21.5L21.5,0.9L21.5,0.9z"/>
</g>
</svg>
