<?xml version="1.0" encoding="utf-8"?>
<!-- Generator: Adobe Illustrator 26.0.1, SVG Export Plug-In . SVG Version: 6.00 Build 0)  -->
<svg version="1.1" id="Layer_1" xmlns="http://www.w3.org/2000/svg" xmlns:xlink="http://www.w3.org/1999/xlink" x="0px" y="0px"
	 viewBox="0 0 95 35" style="enable-background:new 0 0 95 35;" xml:space="preserve">
<style type="text/css">
	.st0{fill:#FFFFFF;}
	.st1{fill-rule:evenodd;clip-rule:evenodd;fill:#FFFFFF;}
</style>
<path class="st0" d="M71.7,20.2h2.4v-0.6h-2.4V20.2z M31.5,16.2l-0.2,5.6V22c0,0.5,0.1,0.6,0.9,0.6v0.3c-0.6,0-0.8-0.1-1.1-0.1
	c-0.3,0-0.5,0-1.1,0.1v-0.3c0.8-0.1,0.9-0.1,0.9-0.7l0.2-5.3v-0.1c0-0.5-0.2-0.6-0.9-0.6v-0.3c0.4,0,0.6,0,0.9,0c0.4,0,0.6,0,1-0.1
	l2,5.5l2-5.5c0.5,0,0.7,0.1,1,0.1c0.3,0,0.4,0,0.9,0v0.3c-0.7,0-0.9,0.2-0.9,0.6v0.1l0.1,5.3c0,0.6,0.1,0.7,0.9,0.7v0.3
	c-0.7-0.1-0.9-0.1-1.4-0.1c-0.4,0-0.7,0-1.4,0.1v-0.3c0.7,0,0.9-0.2,0.9-0.7v-0.1l-0.1-5.6l-1.8,4.8l-0.1,0.4l-0.2,0.4l-0.1,0.4
	L34,22.6h-0.2l-0.1-0.3l-0.2-0.4l-0.2-0.4L33.3,21L31.5,16.2z M39.6,19.7c0.1-1.2,0.5-1.9,1.2-1.9c0.7,0,1.1,0.6,1.1,1.9H39.6z
	 M41.1,22.6c-1,0-1.4-0.8-1.4-2.4h3.2c0-1.7-0.7-2.6-2-2.6c-1.3,0-2.1,1-2.1,2.7c0,1.7,0.8,2.6,2.2,2.6c1.1,0,1.8-0.7,1.9-1.8h-0.4
	C42.3,22.1,41.8,22.6,41.1,22.6 M43.5,18v-0.2c0.6-0.1,1-0.1,1.4-0.2c0.1,0.4,0.1,0.6,0.1,0.9v0.1c0.2-0.6,0.7-1,1.3-1
	c0.5,0,0.9,0.4,0.9,0.9c0,0.3-0.2,0.5-0.5,0.5c-0.2,0-0.4-0.2-0.4-0.4c0,0,0-0.1,0-0.1l0-0.1v-0.1c0-0.2-0.1-0.3-0.3-0.3
	c-0.6,0-0.9,0.7-0.9,1.8V22c0,0.5,0.1,0.6,0.8,0.6v0.2c-0.6-0.1-0.8-0.1-1.2-0.1c-0.4,0-0.6,0-1.2,0.1v-0.2c0.7,0,0.8-0.1,0.8-0.6
	v-3.5c0-0.5-0.1-0.5-0.6-0.5L43.5,18z M51.4,17.5v1.8h-0.2c-0.2-0.9-0.6-1.4-1.3-1.4c-0.8,0-1.3,0.9-1.3,2.4c0,1.5,0.4,2.3,1.3,2.3
	c0.7,0,1.1-0.5,1.2-1.4h0.4c-0.1,1.2-0.8,1.8-1.7,1.8c-1.3,0-2.1-1.1-2.1-2.6c0-1.6,0.9-2.7,2.1-2.7c0.5,0,0.8,0.1,1.1,0.5l0.3-0.6
	H51.4z M53.1,19.7c0.1-1.2,0.5-1.9,1.2-1.9c0.7,0,1.1,0.6,1.1,1.9H53.1z M54.5,22.6c-1,0-1.4-0.8-1.4-2.4h3.2c0-1.7-0.7-2.6-2-2.6
	c-1.3,0-2.1,1-2.1,2.7c0,1.7,0.8,2.6,2.2,2.6c1.1,0,1.8-0.7,1.9-1.8h-0.4C55.8,22.1,55.3,22.6,54.5,22.6 M59.3,22.6
	c-0.8,0-1.2-0.8-1.2-2.4c0-1.6,0.4-2.3,1.2-2.3c0.8,0,1.2,0.8,1.2,2.4C60.5,21.9,60.1,22.6,59.3,22.6 M61.4,21.7v-6.2
	c-0.5,0.1-1,0.2-1.6,0.3v0.2c0.7,0,0.8,0.1,0.8,0.6v1.9c-0.4-0.6-0.7-0.8-1.3-0.8c-1.2,0-2,1.1-2,2.7c0,1.6,0.8,2.7,2,2.7
	c0.6,0,1-0.3,1.3-0.9c0,0.4,0,0.5,0.2,0.9c0.4-0.1,0.6-0.2,1.3-0.3l0.2,0v-0.2C61.4,22.4,61.4,22.4,61.4,21.7 M63.5,19.7
	c0.1-1.2,0.5-1.9,1.2-1.9c0.7,0,1.1,0.6,1.1,1.9H63.5z M64.9,22.6c-1,0-1.4-0.8-1.4-2.4h3.2c0-1.7-0.7-2.6-2-2.6
	c-1.3,0-2.1,1-2.1,2.7c0,1.7,0.8,2.6,2.2,2.6c1.1,0,1.8-0.7,1.9-1.8h-0.4C66.1,22.1,65.6,22.6,64.9,22.6 M67.6,22.9v-1.8l0.2,0
	c0.2,1,0.6,1.5,1.4,1.5c0.6,0,1.1-0.4,1.1-1c0-0.4-0.2-0.6-0.7-0.9l-0.4-0.2l-0.5-0.2c-0.8-0.4-1-0.7-1-1.3c0-0.9,0.7-1.4,1.6-1.4
	c0.4,0,0.7,0.1,1.1,0.3l0.2-0.4h0.2v1.7h-0.2c-0.1-0.9-0.5-1.3-1.1-1.3c-0.6,0-1,0.4-1,0.9c0,0.4,0.2,0.6,1.1,1L70,20
	c0.8,0.4,1.1,0.7,1.1,1.3c0,0.9-0.7,1.6-1.7,1.6c-0.5,0-0.9-0.1-1.3-0.5l-0.3,0.5H67.6z M77.1,19.2c0.6,0,0.9,0.1,1.1,0.3
	c0.2,0.2,0.4,0.7,0.4,1.2c0,1.1-0.5,1.7-1.5,1.7h-0.4c-0.6,0-0.7-0.1-0.7-0.6v-2.7L77.1,19.2z M76.1,15.9H77c0.9,0,1.3,0.4,1.3,1.4
	c0,0.5-0.1,0.9-0.4,1.1c-0.2,0.3-0.5,0.4-1.1,0.4h-0.7V15.9z M79.3,17.4c0-0.6-0.2-1.1-0.6-1.4c-0.4-0.3-0.8-0.4-1.5-0.4h-2.8v0.3
	c0.8,0,0.9,0.1,0.9,0.7v5.2c0,0.6-0.1,0.7-0.9,0.7v0.3H77c0.8,0,1.2-0.1,1.7-0.4c0.5-0.3,0.9-1,0.9-1.7c0-0.6-0.2-1.1-0.7-1.4
	c-0.2-0.2-0.5-0.3-0.9-0.3C78.8,18.7,79.3,18.1,79.3,17.4 M81.4,19.7c0.1-1.2,0.5-1.9,1.2-1.9c0.7,0,1.1,0.6,1.1,1.9H81.4z
	 M82.8,22.6c-1,0-1.4-0.8-1.4-2.4h3.2c0-1.7-0.7-2.6-2-2.6c-1.3,0-2.1,1-2.1,2.7c0,1.7,0.8,2.6,2.2,2.6c1.1,0,1.8-0.7,1.9-1.8h-0.4
	C84,22.1,83.5,22.6,82.8,22.6 M85.1,18v-0.2c0.6-0.1,1-0.2,1.4-0.3c0.1,0.2,0.1,0.5,0.1,0.9c0.4-0.6,0.8-0.8,1.5-0.8
	c0.6,0,1.2,0.3,1.4,0.9c0.1,0.3,0.2,0.6,0.2,1V22c0,0.5,0.1,0.6,0.8,0.6v0.2c-0.6-0.1-0.8-0.1-1.2-0.1c-0.4,0-0.6,0-1.2,0.1v-0.2
	c0.6,0,0.7-0.1,0.7-0.6v-2.7c0-0.9-0.3-1.3-1-1.3c-0.7,0-1.1,0.5-1.1,1.4v2.6c0,0.4,0.1,0.5,0.7,0.6v0.2c-0.6-0.1-0.8-0.1-1.2-0.1
	c-0.4,0-0.6,0-1.2,0.1v-0.2c0.7,0,0.8-0.1,0.8-0.6v-3.5c0-0.4-0.1-0.5-0.6-0.5C85.2,18,85.2,18,85.1,18 M90.9,22.8l2.9-4.8h-1.3
	c-0.7,0-0.9,0.2-1.3,1.1H91l0.2-1.4H95l-2.9,4.8h1.3c0.7,0,1-0.3,1.4-1.3h0.2l-0.3,1.6H90.9z"/>
<path class="st1" d="M12,5.5c-6.6,0-12,5.4-12,12c0,6.6,5.4,12,12,12c6.6,0,12-5.4,12-12C23.9,10.9,18.6,5.5,12,5.5z M2.2,11.9
	c2-3.5,5.7-5.6,9.7-5.7l-1.5,10.3l-8.2,6.6C0.1,19.6,0.2,15.3,2.2,11.9z M12,28.8c-4,0-7.7-2.1-9.8-5.5l9.7-4l9.8,4
	C19.7,26.7,16,28.8,12,28.8z M13.6,16.6L12.1,6.2c4,0.1,7.6,2.2,9.6,5.6c2,3.4,2,7.7,0.1,11.1L13.6,16.6z"/>
</svg>
