<?xml version="1.0" encoding="utf-8"?>
<!-- Generator: Adobe Illustrator 26.0.1, SVG Export Plug-In . SVG Version: 6.00 Build 0)  -->
<svg version="1.1" id="Layer_1" xmlns="http://www.w3.org/2000/svg" xmlns:xlink="http://www.w3.org/1999/xlink" x="0px" y="0px"
	 viewBox="0 0 95 35" style="enable-background:new 0 0 95 35;" xml:space="preserve">
<style type="text/css">
	.st0{fill:#FFFFFF;}
	.st1{fill-rule:evenodd;clip-rule:evenodd;fill:#FFFFFF;}
</style>
<g>
	<path class="st0" d="M34.2,29.3h1.1l1.6,4.7l1.6-4.7h1.1v5.6h-0.7v-3.3V31c0-0.3,0-0.5,0-0.8l-1.6,4.7h-0.7l-1.6-4.7v0.2
		c0,0.1,0,0.3,0,0.6c0,0.3,0,0.5,0,0.6v3.3h-0.7L34.2,29.3z M42.3,30.7c0.3,0,0.6,0.1,0.8,0.2c0.3,0.1,0.5,0.3,0.6,0.5
		c0.1,0.2,0.2,0.4,0.3,0.7c0,0.2,0.1,0.5,0.1,0.9h-3c0,0.4,0.1,0.7,0.3,1c0.2,0.2,0.5,0.4,0.8,0.4c0.4,0,0.6-0.1,0.9-0.3
		c0.1-0.1,0.2-0.3,0.3-0.5h0.7c0,0.1-0.1,0.3-0.2,0.5c-0.2,0.4-0.6,0.8-1.1,0.9c-0.2,0-0.4,0.1-0.6,0.1c-0.5,0-0.9-0.2-1.3-0.5
		c-0.3-0.4-0.5-0.9-0.5-1.5c0-0.7,0.2-1.2,0.5-1.6C41.3,30.9,41.7,30.7,42.3,30.7L42.3,30.7z M43.4,32.5c0-0.2-0.1-0.5-0.2-0.7
		c-0.2-0.3-0.5-0.5-0.9-0.5c-0.3,0-0.6,0.1-0.8,0.3c-0.2,0.2-0.3,0.5-0.3,0.9H43.4z M45,29.3h0.7v5.6H45V29.3z M46.7,30.8h0.6v0.7
		c0.1-0.1,0.2-0.3,0.4-0.5c0.2-0.2,0.4-0.3,0.7-0.3c0,0,0,0,0.1,0c0,0,0.1,0,0.2,0v0.7c0,0-0.1,0-0.1,0c0,0-0.1,0-0.1,0
		c-0.3,0-0.6,0.1-0.8,0.3c-0.2,0.2-0.3,0.5-0.3,0.8v2.3h-0.7L46.7,30.8z M50.9,34.4c0.5,0,0.8-0.2,0.9-0.5c0.2-0.3,0.3-0.7,0.3-1.1
		c0-0.4-0.1-0.7-0.2-0.9c-0.2-0.4-0.5-0.6-1-0.6c-0.4,0-0.7,0.2-0.9,0.5c-0.2,0.3-0.3,0.7-0.3,1.2c0,0.4,0.1,0.8,0.3,1.1
		C50.1,34.3,50.4,34.4,50.9,34.4L50.9,34.4z M50.9,30.7c0.5,0,1,0.2,1.3,0.5c0.4,0.3,0.5,0.9,0.5,1.5c0,0.7-0.2,1.2-0.5,1.6
		C52,34.8,51.5,35,50.8,35c-0.6,0-1-0.2-1.3-0.6C49.1,34,49,33.5,49,32.9c0-0.7,0.2-1.2,0.5-1.6C49.8,30.9,50.3,30.7,50.9,30.7
		L50.9,30.7z M54,33.6c0,0.2,0.1,0.4,0.2,0.5c0.2,0.2,0.5,0.3,0.9,0.3c0.3,0,0.5-0.1,0.7-0.2c0.2-0.1,0.3-0.3,0.3-0.5
		c0-0.2-0.1-0.3-0.2-0.4c-0.1-0.1-0.3-0.1-0.6-0.2L54.6,33c-0.3-0.1-0.6-0.2-0.8-0.3c-0.3-0.2-0.4-0.4-0.4-0.8
		c0-0.4,0.1-0.7,0.4-0.9c0.3-0.2,0.7-0.4,1.1-0.4c0.6,0,1.1,0.2,1.3,0.5c0.2,0.2,0.2,0.5,0.2,0.7h-0.6c0-0.2-0.1-0.3-0.2-0.4
		c-0.2-0.2-0.4-0.3-0.8-0.3c-0.3,0-0.5,0.1-0.6,0.1c-0.1,0.1-0.2,0.2-0.2,0.4c0,0.2,0.1,0.3,0.3,0.4c0.1,0.1,0.2,0.1,0.4,0.2
		l0.4,0.1c0.5,0.1,0.8,0.2,1,0.3c0.3,0.2,0.4,0.4,0.4,0.8c0,0.4-0.1,0.7-0.4,0.9C56,34.9,55.6,35,55,35c-0.6,0-1-0.1-1.3-0.4
		c-0.3-0.3-0.4-0.6-0.4-1L54,33.6z M59.1,30.7c0.3,0,0.6,0.1,0.8,0.2c0.3,0.1,0.5,0.3,0.6,0.5c0.1,0.2,0.2,0.4,0.3,0.7
		c0,0.2,0.1,0.5,0.1,0.9h-3c0,0.4,0.1,0.7,0.3,1c0.2,0.2,0.5,0.4,0.8,0.4c0.4,0,0.6-0.1,0.9-0.3c0.1-0.1,0.2-0.3,0.3-0.5h0.7
		c0,0.1-0.1,0.3-0.2,0.5c-0.2,0.4-0.6,0.8-1.1,0.9C59.4,35,59.2,35,59,35c-0.5,0-0.9-0.2-1.3-0.5c-0.3-0.4-0.5-0.9-0.5-1.5
		c0-0.7,0.2-1.2,0.5-1.6C58.1,30.9,58.6,30.7,59.1,30.7L59.1,30.7z M60.2,32.5c0-0.2-0.1-0.5-0.2-0.7c-0.2-0.3-0.5-0.5-0.9-0.5
		c-0.3,0-0.6,0.1-0.8,0.3c-0.2,0.2-0.3,0.5-0.3,0.9H60.2z"/>
	<path class="st1" d="M61.3,0v27.7c-0.1,0.1-0.1-0.1-0.1-0.2c-3.1-5.3-6-10.9-9-16.3c-2.9,5.5-5.8,11.1-8.7,16.6h-1.8
		c0-0.2,0.1-0.3,0.2-0.4c1.1-2.2,2.4-4.6,3.6-6.8c-1.1-1.9-2.2-3.8-3.3-5.8c-2.9,4.3-5.7,8.6-8.5,12.9V0L61.3,0z"/>
</g>
</svg>
