<?xml version="1.0" encoding="utf-8"?>
<!-- Generator: Adobe Illustrator 26.0.1, SVG Export Plug-In . SVG Version: 6.00 Build 0)  -->
<svg version="1.1" id="Layer_1" xmlns="http://www.w3.org/2000/svg" xmlns:xlink="http://www.w3.org/1999/xlink" x="0px" y="0px"
	 viewBox="0 0 95 35" style="enable-background:new 0 0 95 35;" xml:space="preserve">
<style type="text/css">
	.st0{fill-rule:evenodd;clip-rule:evenodd;fill:#CCCCCC;}
</style>
<g>
	<path class="st0" d="M18.5,22.8V12h-5.4l-4,6.4l-4-6.4H0v10.8h3.3v-7.7l4.8,7.7h2.2l5-7.9v7.9L18.5,22.8L18.5,22.8z M29.8,22.8
		c0.9,0,4.6,0,4.6-3.4V12h-3.6v6.5c0,0.6-0.2,1.7-1.7,1.7h-3.6c-1.5,0-1.7-1-1.7-1.7V12h-3.6v7.4c0,3.4,3.7,3.4,4.6,3.4L29.8,22.8
		L29.8,22.8L29.8,22.8z M84.7,22.8h3.6v-3.7L95,12h-4.1l-4.4,4.6L82.5,12h-3.9l6.1,6.9V22.8L84.7,22.8z"/>
	<path class="st0" d="M91.8,19.3c0.9,0,1.6,0.7,1.6,1.7c0,1-0.7,1.7-1.6,1.7c-0.9,0-1.6-0.7-1.6-1.7C90.2,20.1,90.9,19.3,91.8,19.3
		V19c-1.1,0-2,0.8-2,2c0,1.2,0.9,2,2,2c1.1,0,2-0.8,2-2c0-1.1-0.9-2-2-2V19.3z"/>
	<path class="st0" d="M91.4,20.2h0.5c0.2,0,0.5,0.1,0.5,0.3c0,0.4-0.3,0.4-0.6,0.4h-0.4v0.3h0.4l0.6,1h0.4l-0.7-1
		c0.3,0,0.6-0.2,0.6-0.6c0-0.5-0.3-0.7-0.8-0.7h-0.9v2.3h0.3L91.4,20.2L91.4,20.2L91.4,20.2z M39.7,19.8h5.7c1,0,1.5,0.9,1.4,3.1
		h3.1c0-3.1-0.2-3.1-0.4-3.5c-0.2-0.3-0.5-0.6-1-0.8c1-0.4,1.4-1.8,1.4-2.7v-1.2c0-2.3-1.8-2.7-2.8-2.7H36.1v10.8h3.6V19.8z
		 M39.7,14.7h5.5c0.8,0,1.3,0.5,1.3,1.1c0,0.6-0.2,1.4-1.3,1.4h-5.6V14.7z M72,18.3l1.9-3.4l1.9,3.4H72z M70.5,20.9h6.8l1.1,2h3.9
		L76.1,12h-4.5l-5.9,10.4c-0.1-2.5-0.3-2.7-0.5-3c-0.2-0.3-0.5-0.6-1-0.8c1-0.4,1.4-1.8,1.4-2.7v-1.2c0-2.3-1.8-2.7-2.8-2.7H51.8
		v10.8h3.6v-3.1H61c1,0,1.5,0.9,1.4,3.1h7L70.5,20.9L70.5,20.9z M55.4,14.7h5.5c0.8,0,1.3,0.5,1.3,1.1c0,0.6-0.2,1.4-1.3,1.4h-5.6
		L55.4,14.7L55.4,14.7z"/>
</g>
</svg>
