<?xml version="1.0" encoding="utf-8"?>
<!-- Generator: Adobe Illustrator 26.0.1, SVG Export Plug-In . SVG Version: 6.00 Build 0)  -->
<svg version="1.1" id="Layer_1" xmlns="http://www.w3.org/2000/svg" xmlns:xlink="http://www.w3.org/1999/xlink" x="0px" y="0px"
	 viewBox="0 0 95 35" style="enable-background:new 0 0 95 35;" xml:space="preserve">
<style type="text/css">
	.st0{fill:#FFFFFF;}
</style>
<g>
	<path class="st0" d="M23.6,13.8v1h-1.9v6.4c0,0.7,0.1,1.2,0.9,1.2c0.3,0,0.7,0,1-0.1v1c-0.3,0-0.7,0-1,0c-1.1,0-1.7-0.3-1.9-1.1
		c0,0,0,0,0,0c-0.1-0.3-0.1-0.6-0.1-1v-6.5l0,0l0,0h-1.6v-1h1.6v-2.9h1.2l0,2.9h0l0,0L23.6,13.8L23.6,13.8h-1.9H23.6z M59.3,10.1
		L59.3,10.1h1.2v13.2l0,0l0,0h-1.2V10.1z M39.2,13.8L39.2,13.8h1.2l0,0l0,0v1.6h0c0.1-0.2,0.2-0.4,0.3-0.6c0.6-0.8,1.6-1.3,2.7-1.3
		c2.7,0,3.5,1.4,3.5,3.7v6.1h-1.1v-5.9c0-0.5,0-1-0.2-1.4v0c-0.3-0.9-0.9-1.5-2.2-1.5c-1.8,0-2.9,1.4-3,3.3v5.6l0,0h-1.2l0,0V13.8
		L39.2,13.8L39.2,13.8z M1.2,13.8v1.6h0C1.3,15,1.6,14.6,2,14.3l0,0c0.6-0.5,1.4-0.8,2.2-0.8c2.7,0,3.5,1.4,3.5,3.7v6.1H6.5v-5.9
		c0-1.6-0.5-2.9-2.4-2.9c-1.8,0-2.9,1.4-3,3.3v5.6H0v-9.5L1.2,13.8L1.2,13.8L1.2,13.8z M82.6,7.7l1.9,1.9l-1.9,1.9l-1.9-1.9
		L82.6,7.7z M81.3,23.3v-9.9h2.6v9.9H81.3z M66.9,21.2c1.7,0,2.2-1.5,2.2-2.9c0-1.6-0.8-2.9-2.2-2.9c-1,0-2,0.7-2,3
		C64.9,19.7,65.4,21.2,66.9,21.2L66.9,21.2z M71.6,13.5v9.3c0,1.7-0.1,4.5-4.9,4.5c-2,0-4.1-0.9-4.3-2.9h2.8c0.1,0.5,0.3,1,1.8,1
		c1.4,0,2-0.7,2-2.2v-1.2l0,0c-0.4,0.8-1.1,1.5-2.6,1.5c-2.3,0-4.2-1.6-4.2-5.1c0-3.4,1.9-5.1,4.1-5.1c1.8,0,2.5,1.1,2.9,1.7h0v-1.5
		L71.6,13.5L71.6,13.5z M73.9,13.5h2.5v1.7h0c0.5-1,1.1-2,2.7-2c0.2,0,0.3,0,0.5,0v2.6c-0.2,0-0.5,0-0.7,0c-2,0-2.4,1.3-2.4,2.3v5.1
		h-2.6L73.9,13.5L73.9,13.5z M90.3,21.4c1.6,0,2.3-1.4,2.3-2.8c0-1.6-0.4-3.2-2.2-3.2c-1.6,0-2.2,1.5-2.2,3
		C88.2,19.6,88.6,21.4,90.3,21.4L90.3,21.4z M95,23.3h-2.5v-1.2h0c-0.6,1.1-1.8,1.5-2.8,1.5c-2.9,0-4.1-2.6-4.1-5.3
		c0-3.4,1.9-5.1,4.1-5.1c1.6,0,2.4,0.9,2.8,1.5h0v-4.7H95V23.3z M15.9,18.1L15.9,18.1c-0.2,0.3-0.7,0.4-1,0.4
		c-2,0.3-4.4,0.3-4.4,2.2c0,1.2,1,1.9,2.1,1.9c1.8,0,3.3-1.1,3.3-3C15.9,19.6,15.9,18.1,15.9,18.1z M9.8,16.7
		c0.1-2.2,1.7-3.2,3.8-3.2c1.7,0,3.5,0.5,3.5,3.1v5.1c0,0.4,0.2,0.7,0.7,0.7c0.1,0,0.3,0,0.4-0.1v1c-0.3,0.1-0.4,0.1-0.8,0.1
		c-1.2,0-1.4-0.7-1.4-1.7h0c-0.8,1.2-1.6,1.9-3.5,1.9c-1.7,0-3.2-0.9-3.2-2.8c0-2.7,2.6-2.8,5.1-3.1c0.9-0.1,1.5-0.2,1.5-1.3
		c0-1.6-1.1-2-2.5-2c-1.4,0-2.5,0.7-2.5,2.2L9.8,16.7L9.8,16.7z M25.7,12v-1.9h1.2V12H25.7z M25.6,23.3v-9.5h1.2v9.5H25.6z
		 M29.7,18.5c0,2,1.1,4.1,3.3,4.1s3.3-2,3.3-4.1c0-2-1.1-4.1-3.3-4.1C30.8,14.5,29.7,16.5,29.7,18.5L29.7,18.5z M37.5,18.5
		c0,2.7-1.6,5-4.5,5s-4.5-2.3-4.5-5c0-2.7,1.6-5,4.5-5C35.9,13.5,37.5,15.8,37.5,18.5z M55.1,18.1L55.1,18.1c-0.2,0.3-0.7,0.4-1,0.4
		c-2,0.3-4.4,0.3-4.4,2.2c0,1.2,1,1.9,2.1,1.9c1.8,0,3.3-1.1,3.3-3L55.1,18.1L55.1,18.1z M49,16.7c0.1-2.2,1.7-3.2,3.8-3.2
		c1.7,0,3.5,0.5,3.5,3.1v5.1c0,0.4,0.2,0.7,0.7,0.7c0.1,0,0.3,0,0.4-0.1v1c-0.3,0.1-0.4,0.1-0.8,0.1c-1.2,0-1.4-0.7-1.4-1.7h0
		c-0.8,1.2-1.6,1.9-3.5,1.9c-1.7,0-3.2-0.9-3.2-2.8c0-2.7,2.6-2.8,5.1-3.1c1-0.1,1.5-0.2,1.5-1.3c0-1.6-1.1-2-2.5-2
		c-1.4,0-2.5,0.7-2.5,2.2L49,16.7L49,16.7z"/>
</g>
</svg>
