<?xml version="1.0" encoding="utf-8"?>
<!-- Generator: Adobe Illustrator 26.0.1, SVG Export Plug-In . SVG Version: 6.00 Build 0)  -->
<svg version="1.1" id="Layer_1" xmlns="http://www.w3.org/2000/svg" xmlns:xlink="http://www.w3.org/1999/xlink" x="0px" y="0px"
	 viewBox="0 0 95 35" style="enable-background:new 0 0 95 35;" xml:space="preserve">
<style type="text/css">
	.st0{clip-path:url(#SVGID_00000068636077160569185800000006728795117035004856_);fill:#343741;}
	.st1{clip-path:url(#SVGID_00000039108706674591035250000012584515804791983764_);fill:#343741;}
	.st2{clip-path:url(#SVGID_00000181065262560170139700000005950496741248878503_);fill:#343741;}
	.st3{fill:#343741;}
</style>
<g>
	<g>
		<g>
			<defs>
				<polygon id="SVGID_1_" points="52,7.8 50.5,10.4 47.5,10.4 46,13 46,13 52,13 55,7.8 				"/>
			</defs>
			<use xlink:href="#SVGID_1_"  style="overflow:visible;fill:#343741;"/>
			<clipPath id="SVGID_00000062183845625513796350000000106092661922277547_">
				<use xlink:href="#SVGID_1_"  style="overflow:visible;"/>
			</clipPath>
			<polygon style="clip-path:url(#SVGID_00000062183845625513796350000000106092661922277547_);fill:#343741;" points="48.3,3.9 
				57.3,9.1 52.8,17 43.7,11.7 			"/>
		</g>
	</g>
	<g>
		<g>
			<defs>
				<polygon id="SVGID_00000017506756044457458270000016425594234677414334_" points="41.5,5.2 41.5,5.2 43,7.8 46,7.8 47.5,10.4 
					50.5,10.4 47.5,5.2 				"/>
			</defs>
			<use xlink:href="#SVGID_00000017506756044457458270000016425594234677414334_"  style="overflow:visible;fill:#343741;"/>
			<clipPath id="SVGID_00000044165099578876951290000000926633434654350747_">
				<use xlink:href="#SVGID_00000017506756044457458270000016425594234677414334_"  style="overflow:visible;"/>
			</clipPath>
			<polygon style="clip-path:url(#SVGID_00000044165099578876951290000000926633434654350747_);fill:#343741;" points="53.1,7.4 
				46.8,14.9 38.9,8.3 45.2,0.8 			"/>
		</g>
	</g>
	<g>
		<g>
			<defs>
				<polygon id="SVGID_00000091705825203425179360000012172932999279822987_" points="43,13 46,18.3 47.5,15.7 46,13 47.5,10.4 
					46,7.8 				"/>
			</defs>
			<use xlink:href="#SVGID_00000091705825203425179360000012172932999279822987_"  style="overflow:visible;fill:#343741;"/>
			<clipPath id="SVGID_00000066505825188903684280000004483461756877748134_">
				<use xlink:href="#SVGID_00000091705825203425179360000012172932999279822987_"  style="overflow:visible;"/>
			</clipPath>
			<polygon style="clip-path:url(#SVGID_00000066505825188903684280000004483461756877748134_);fill:#343741;" points="44.8,5.6 
				52.6,12.1 45.6,20.5 37.8,14 			"/>
		</g>
	</g>
	<path class="st3" d="M55,18.3L55,18.3h-6L46,13h6l3-5.2l3,5.2L55,18.3z M43,13L43,13l3-5.2h-6L37,13l0,0l0,0l3,5.2h6l0,0L43,13z
		 M44.5,0l-3,5.2h6l3,5.2l3-5.2l-3-5.2L44.5,0L44.5,0z"/>
	<path class="st3" d="M55,7.8l3,5.2l-3,5.2L52,13L55,7.8z M43,13h-6l0,0l3,5.2h6l0,0L43,13z M47.5,5.2l3,5.2l3-5.2l-3-5.2L47.5,5.2z
		"/>
	<path class="st3" d="M45.3,22.9v0.7h-0.9v1.9c0,0.3,0.2,0.4,0.5,0.4c0.2,0,0.3,0,0.4-0.1l0.1,0v0.7l0,0c-0.3,0.1-0.5,0.1-0.8,0.1
		c-0.2,0-0.9-0.1-0.9-1v-2.1H43v0c0,0,0-0.3,0-0.5V23h0.5v-1l0.8-0.3v1.3L45.3,22.9L45.3,22.9z M50.9,21.7l-1,5H49l-0.9-3.5
		l-0.9,3.5h-0.8l-1-5h0.9l0.7,3.4l0.8-3.4h0.8c0.1,0.3,0.8,3.4,0.9,3.4c0,0,0.6-3.3,0.6-3.4L50.9,21.7L50.9,21.7z M51.8,24.4
		c0-0.4,0.3-0.8,0.8-0.8c0.6,0,0.8,0.5,0.8,0.8H51.8z M52.6,22.9c-0.6,0-1.7,0.4-1.7,2c0,1.9,1.5,2,1.8,2c0.6,0,0.9-0.1,1.2-0.3l0,0
		v-0.8l-0.1,0c-0.2,0.1-0.6,0.3-1,0.3c-0.9,0-1-0.6-1-0.9h2.4l0,0c0.1-0.5,0-1.3-0.4-1.8C53.5,23,53.1,22.9,52.6,22.9 M57.3,25.7
		c0,0.6-0.5,1.1-1.4,1.1c-0.4,0-0.9-0.1-1.2-0.3l0,0v-0.8l0.1,0c0.3,0.1,0.7,0.3,1.1,0.3c0.4,0,0.6-0.1,0.6-0.4
		c0-0.2-0.1-0.3-0.5-0.4l-0.1-0.1c-0.2-0.1-0.3-0.1-0.5-0.2c-0.2-0.1-0.7-0.3-0.7-1c0-0.4,0.3-1.1,1.4-1.1c0.4,0,0.9,0.1,1,0.2l0,0
		v0.8l-0.1,0c-0.3-0.2-0.6-0.2-1-0.2c-0.1,0-0.5,0-0.5,0.3c0,0.2,0.3,0.3,0.5,0.4l0,0c0.1,0.1,0.3,0.1,0.4,0.2l0.1,0
		C57,24.8,57.3,25.1,57.3,25.7 M38.3,21.7h0.8v5h-0.8l-2.2-3.5v3.5h-0.8v-5h0.8l2.2,3.5V21.7z M58.7,23.7v1.9c0,0.4,0.2,0.4,0.5,0.4
		c0.2,0,0.3,0,0.4,0l0.1,0v0.7l0,0c-0.3,0.1-0.5,0.1-0.8,0.1c-0.2,0-0.9-0.1-0.9-1v-2.1h-0.5v0c0,0,0-0.3,0-0.5V23h0.5v-1l0.8-0.3
		v1.3h0.9v0.7L58.7,23.7L58.7,23.7z M41.9,25.6c-0.1,0.1-0.4,0.4-0.9,0.4c-0.4,0-0.6-0.2-0.6-0.5c0-0.3,0.3-0.5,0.7-0.5h0.7
		L41.9,25.6L41.9,25.6z M41.2,22.9c-0.4,0-0.8,0.1-1.1,0.2l0,0v0.8l0.1,0c0.2-0.1,0.7-0.2,1-0.2c0.7,0,0.8,0.3,0.8,0.6h-0.8
		c-1,0-1.5,0.7-1.5,1.3c0,0.8,0.7,1.3,1.3,1.3c0.5,0,0.7-0.2,1-0.4v0.3h0.8v-2.6C42.7,23,41.7,22.9,41.2,22.9 M53.7,31.3
		c0-0.1,0-0.2,0-0.3c0.1-0.5,0.6-0.8,1-0.8c0.7,0,1.1,0.6,1.1,1.4c0,0.8-0.4,1.4-1.1,1.4c-0.5,0-0.9-0.3-1-0.8c0-0.1,0-0.2,0-0.3
		L53.7,31.3L53.7,31.3z M53,35h0.7v-2h0c0.2,0.4,0.7,0.6,1.1,0.6c0.9,0,1.7-0.7,1.7-2c0-1.1-0.7-1.9-1.6-1.9c-0.6,0-1,0.3-1.3,0.7h0
		l0-0.6H53c0,0.4,0,0.7,0,1.2V35z M52.3,29.8h-0.7v2.3c0,0.1,0,0.2-0.1,0.3c-0.1,0.3-0.4,0.6-0.9,0.6c-0.6,0-0.8-0.5-0.8-1.2v-2.1
		h-0.7v2.2c0,1.3,0.7,1.6,1.3,1.6c0.7,0,1-0.4,1.2-0.7h0l0,0.6h0.6c0-0.3,0-0.6,0-1L52.3,29.8L52.3,29.8z M47,30.2
		c0.8,0,1.1,0.8,1.1,1.4c0,0.8-0.5,1.4-1.1,1.4c-0.7,0-1.1-0.6-1.1-1.4C45.8,30.9,46.2,30.2,47,30.2 M47,29.7c-1,0-1.8,0.7-1.8,2
		c0,1.2,0.8,1.9,1.8,1.9c0.9,0,1.8-0.6,1.8-2C48.8,30.5,48,29.7,47,29.7 M43.3,33.5H44v-2c0-0.1,0-0.2,0-0.3
		c0.1-0.5,0.4-0.9,0.9-0.9c0.1,0,0.2,0,0.2,0v-0.6c-0.1,0-0.1,0-0.2,0c-0.4,0-0.9,0.3-1,0.8h0l0-0.7h-0.6c0,0.3,0,0.7,0,1.2
		L43.3,33.5L43.3,33.5z M42.7,30.8H41v0.5h1v1.5c-0.2,0.1-0.4,0.1-0.9,0.1c-1.2,0-2-0.8-2-2.1c0-1.3,0.8-2.1,2.1-2.1
		c0.5,0,0.9,0.1,1.1,0.2l0.2-0.5c-0.2-0.1-0.7-0.2-1.3-0.2c-1.7,0-2.8,1.1-2.8,2.7c0,0.8,0.3,1.5,0.7,1.9c0.5,0.5,1.1,0.7,1.9,0.7
		c0.7,0,1.3-0.2,1.6-0.3L42.7,30.8L42.7,30.8z"/>
</g>
</svg>
