<?xml version="1.0" encoding="utf-8"?>
<!-- Generator: Adobe Illustrator 26.0.1, SVG Export Plug-In . SVG Version: 6.00 Build 0)  -->
<svg version="1.1" id="Layer_1" xmlns="http://www.w3.org/2000/svg" xmlns:xlink="http://www.w3.org/1999/xlink" x="0px" y="0px"
	 viewBox="0 0 95 35" style="enable-background:new 0 0 95 35;" xml:space="preserve">
<style type="text/css">
	.st0{fill:#CCCCCC;}
</style>
<path class="st0" d="M56.3,0H38.6c-1.3,0-2.5,1.1-2.5,2.5v17.7c0,1.3,1.1,2.5,2.5,2.5h20.1V2.5C58.8,1.1,57.7,0,56.3,0z M47.6,19
	c-4.3,0-7.8-3.5-7.8-8c0-4.3,3.5-7.8,7.9-7.8c4.5,0,7,2.7,7,5c0,2-1.6,4.3-4.4,3.9c-1.5-0.2-2.9-1.6-2.6-3.5
	c0.2-1.7,1.9-2.9,3.5-2.5c-0.1,0.1-0.6,0.4-0.6,1.3c0,1.5,2,2.3,2.9,0.9c0.9-1.1,0.3-3.5-2.9-4c-2-0.3-4.7,1-5.1,4.1
	c-0.4,3.2,2,5.2,4.2,5.5c2.9,0.4,5.6-2,5.6-4.9c0-0.3,0.3,1,0.3,2C55.4,15.5,51.9,19,47.6,19z"/>
<path class="st0" d="M63.7,27.6c-2.1,0-3.7,1.6-3.7,3.7c0,2.1,1.6,3.7,3.7,3.7s3.7-1.6,3.7-3.7C67.5,29.2,65.8,27.6,63.7,27.6
	 M63.7,28.9c1.3,0,2.4,1.1,2.4,2.4c0,1.3-1.1,2.4-2.4,2.4s-2.4-1.1-2.4-2.4C61.3,29.9,62.4,28.9,63.7,28.9 M46.4,33.7
	c-1.3,0-2.4-1.1-2.4-2.4c0-1.3,1.1-2.4,2.4-2.4c1.3,0,2.4,1.1,2.4,2.4C48.8,32.6,47.8,33.7,46.4,33.7 M48.8,27.8v0.8h0
	c-0.6-0.6-1.5-1-2.4-1c-2.1,0-3.7,1.6-3.7,3.7c0,2.1,1.6,3.7,3.7,3.7c0.9,0,1.8-0.4,2.4-1h0v0.8h1.3v-7H48.8L48.8,27.8z M55.1,33.7
	c-1.3,0-2.4-1.1-2.4-2.4c0-1.3,1.1-2.4,2.4-2.4c1.3,0,2.4,1.1,2.4,2.4C57.5,32.6,56.4,33.7,55.1,33.7 M57.5,24.4v4.1h0
	c-0.5-0.6-1.4-1-2.4-1c-2.1,0-3.7,1.6-3.7,3.7c0,2.1,1.6,3.7,3.7,3.7c0.9,0,1.8-0.4,2.4-1h0v0.8h1.3V24.4L57.5,24.4L57.5,24.4z
	 M41.5,33c-0.4,0.5-1.1,0.8-1.7,0.8c-1.3,0-2.4-1.1-2.4-2.4c0-1.3,1.1-2.4,2.4-2.4c0.7,0,1.3,0.3,1.7,0.8l0.7-1.2
	c-0.7-0.5-1.5-0.8-2.4-0.8c-2.1,0-3.7,1.6-3.7,3.7c0,2.1,1.6,3.7,3.7,3.7c0.9,0,1.7-0.3,2.4-0.8L41.5,33L41.5,33z M31.3,27.6
	c-2.1,0-3.7,1.6-3.7,3.7c0,2.1,1.6,3.7,3.7,3.7s3.7-1.6,3.7-3.7C35,29.2,33.3,27.6,31.3,27.6 M31.3,28.9c1.3,0,2.4,1.1,2.4,2.4
	c0,1.3-1.1,2.4-2.4,2.4s-2.4-1.1-2.4-2.4C28.9,29.9,29.9,28.9,31.3,28.9"/>
</svg>
