<?xml version="1.0" encoding="utf-8"?>
<!-- Generator: Adobe Illustrator 26.0.1, SVG Export Plug-In . SVG Version: 6.00 Build 0)  -->
<svg version="1.1" id="Layer_1" xmlns="http://www.w3.org/2000/svg" xmlns:xlink="http://www.w3.org/1999/xlink" x="0px" y="0px"
	 viewBox="0 0 95 35" style="enable-background:new 0 0 95 35;" xml:space="preserve">
<style type="text/css">
	.st0{fill:#CCCCCC;}
</style>
<g transform="matrix(2.25315 0 0 2.25315 -963.576 -1825.95)">
	<path class="st0" d="M427.7,819.2c0,0.1,0,0.1,0,0.2h2.5c0-0.1,0-0.1,0-0.2c0-1.4,1-2.4,2.3-2.4c1.3,0,2.3,1,2.3,2.4
		c0,0.1,0,0.1,0,0.2h2.5c0-0.1,0-0.1,0-0.2c0-2.8-2.1-4.8-4.8-4.8C429.8,814.4,427.7,816.5,427.7,819.2"/>
	<g transform="matrix(.352778 0 0 -.352778 376.691 954.428)">
		<path class="st0" d="M235.9,379.2v-0.7h2c0-1.3-1.2-2.1-2.4-2.1c-0.7,0-1.4,0.4-1.9,0.9c-0.5,0.5-0.8,1.2-0.8,1.9
			c0,1.5,1.2,2.8,2.8,2.8c1,0,1.8-0.5,2.3-1.3l0.6,0.5c-0.7,0.9-1.7,1.5-2.9,1.5c-2,0-3.5-1.6-3.5-3.5c0-1.9,1.6-3.5,3.5-3.5
			c0.9,0,1.9,0.4,2.5,1.1c0.6,0.7,0.7,1.5,0.7,2.4L235.9,379.2L235.9,379.2z"/>
		<path class="st0" d="M198.5,379.6h-3.6v2.9h-0.8v-6.8h0.8v3.2h3.6v-3.2h0.8v6.8h-0.8V379.6z"/>
		<path class="st0" d="M204,376.4c-1.5,0-2.7,1.2-2.7,2.8c0,1.6,1.2,2.8,2.7,2.8s2.7-1.2,2.7-2.8C206.7,377.6,205.5,376.4,204,376.4
			 M204,382.7c-2,0-3.5-1.5-3.5-3.5c0-2,1.5-3.5,3.5-3.5c2,0,3.5,1.5,3.5,3.5C207.5,381.2,205.9,382.7,204,382.7"/>
		<path class="st0" d="M209.5,379h2.6v0.7h-2.6v2.2h2.8v0.7h-3.5v-6.8h3.6v0.7h-2.8V379z"/>
		<path class="st0" d="M219.1,377.4l-5.3,5.4v-7h0.8v5.2l5.3-5.4v7h-0.8V377.4z"/>
		<path class="st0" d="M221.5,375.8h0.8v6.8h-0.8V375.8z"/>
		<path class="st0" d="M228.9,382.6H228l-1.7-2.6l-1.7,2.6h-0.9l2.1-3.3l-2.3-3.5h0.9l1.9,2.9l1.9-2.9h0.9l-2.3,3.5L228.9,382.6z"/>
		<path class="st0" d="M248.8,376.4c-1.5,0-2.7,1.2-2.7,2.8c0,1.6,1.2,2.8,2.7,2.8c1.5,0,2.7-1.2,2.7-2.8
			C251.5,377.6,250.3,376.4,248.8,376.4 M248.8,382.7c-2,0-3.5-1.5-3.5-3.5c0-2,1.5-3.5,3.5-3.5c2,0,3.5,1.5,3.5,3.5
			C252.2,381.2,250.7,382.7,248.8,382.7"/>
		<path class="st0" d="M257.5,378.5c0-0.5,0-1.1-0.3-1.6c-0.3-0.4-0.8-0.6-1.3-0.6c-0.5,0-1.1,0.2-1.4,0.6c-0.3,0.4-0.3,1-0.3,1.5v4
			h-0.8v-4.2c0-0.8,0.1-1.4,0.7-2c0.5-0.5,1.1-0.7,1.8-0.7c0.7,0,1.4,0.3,1.8,0.8c0.5,0.6,0.6,1.1,0.6,1.9v4.2h-0.8V378.5
			L257.5,378.5z"/>
		<path class="st0" d="M240.9,381.9h0.9c0.9,0,1.8-0.1,1.8-1.2c0-1-0.7-1.2-1.5-1.2h-1.1V381.9z M243.6,379.2
			c0.4,0.4,0.6,0.9,0.6,1.5c0,0.6-0.3,1.2-0.8,1.5c-0.5,0.3-1.1,0.4-1.7,0.4h-1.7v-6.8h0.8v3h0.7l2-3h0.9l-2.1,3
			C242.9,378.8,243.3,378.9,243.6,379.2"/>
		<path class="st0" d="M190.5,379.4h-1.1v2.4h0.9c0.9,0,1.8-0.1,1.8-1.2C192,379.7,191.3,379.4,190.5,379.4 M192,382.2
			c-0.5,0.3-1.1,0.4-1.7,0.4h-1.7v-6.8h0.8v3h1.1c0.6,0,1.2,0.1,1.6,0.5c0.4,0.4,0.6,0.9,0.6,1.5C192.8,381.3,192.5,381.9,192,382.2
			"/>
		<path class="st0" d="M261.7,379.4h-1.1v2.4h0.9c0.9,0,1.8-0.1,1.8-1.2C263.2,379.7,262.5,379.4,261.7,379.4 M263.2,382.2
			c-0.5,0.3-1.1,0.4-1.7,0.4h-1.7v-6.8h0.8v3h1.1c0.6,0,1.2,0.1,1.6,0.5c0.4,0.4,0.6,0.9,0.6,1.5C264,381.3,263.7,381.9,263.2,382.2
			"/>
		<path class="st0" d="M144.5,382.6v-6.8h40v6.8H144.5z"/>
	</g>
</g>
</svg>
