<svg xmlns="http://www.w3.org/2000/svg" width="159.998" height="35.588" viewBox="0 0 42.333 9.416" xmlns:v="https://vecta.io/nano"><path d="M121.679 340.623l5.473-1.303c.047-.011.18-.039.295-.033.092.005.148.009.233.045.116.047.204.144.254.197l1.992 2.106h.024l-8.865.006zm8.786 1.012l-3.866-4.089a1.14 1.14 0 0 1-.176-.239c-.041-.082-.065-.132-.078-.224-.017-.125.023-.249.043-.319l.828-2.778-.012-.02 4.438 7.675zm-3.537-8.122l-1.608 5.392a1.13 1.13 0 0 1-.119.272.62.62 0 0 1-.155.179.77.77 0 0 1-.298.121l-2.819.672-.012.02 4.428-7.68zm6.46 1.657h1.208c.842 0 1.23.519 1.23 1.133 0 .605-.41 1.101-1.305 1.101h-.578v1.626h-.555v-3.861zm.555 1.739h.631c.41 0 .68-.244.68-.626 0-.286-.157-.616-.658-.616h-.653zm7.347 1.627h1.742v.496h-2.298v-3.862h.555zm1.956-3.365l1.041 1.333 1.046-1.333h.669l-1.434 1.823v2.039h-.556v-2.044l-1.435-1.817zm3.778 0l1.278 1.586 1.284-1.586h.518v3.861h-.556v-3.004h-.011l-1.192 1.494h-.086l-1.193-1.494h-.01v3.004h-.556v-3.861zm13.36 3.861h-.566l-.518-1.138h-1.64l-.491 1.138h-.566l1.661-3.882h.388zm-2.507-1.634h1.196l-.619-1.403zm3.533 1.138h1.742v.496h-2.297v-3.862h.555zm-8.142-3.358v.495h-1.781v1.128h1.741v.496h-1.741v1.247h1.848v.495h-2.405v-3.861zm3.622 0v.495h-1.303v3.366h-.555v-3.366h-1.303v-.495zm-18.745-.034c1.218 0 1.986.908 1.986 1.985 0 1.043-.747 1.983-1.997 1.983-1.208 0-1.971-.935-1.971-1.983 0-1.07.785-1.985 1.983-1.985m0 3.46c.83 0 1.439-.632 1.439-1.475 0-.849-.608-1.476-1.439-1.476s-1.435.627-1.435 1.476c0 .843.609 1.475 1.435 1.475m2.892 1.334h.128v1.614h-.128zm.433.002h.118l1.212 1.409v-1.409h.125v1.612h-.104l-1.224-1.416v1.416h-.128zm1.609-.002h1.333v.106h-.603v1.508h-.128v-1.508h-.602zm1.503.002h.882v.106h-.754v.641h.734v.107h-.734v.652h.773v.107h-.9zm1.55 0c.494 0 .553.258.553.419 0 .196-.125.336-.3.388.059.036.142.135.175.187l.404.619h-.146l-.303-.473c-.137-.213-.21-.301-.395-.301h-.253v.773h-.128v-1.612zm-.265.733h.269c.3 0 .414-.137.414-.314 0-.208-.138-.312-.47-.312h-.212zm1.226-.733h.118l1.213 1.409v-1.409h.125v1.612h-.105l-1.224-1.416v1.416h-.128zm2.349-.012h.073l.744 1.624h-.13l-.255-.558h-.787l-.255.558h-.13zm.037.204l-.349.756h.695zm.799-.194h1.333v.106h-.603v1.508h-.128v-1.508h-.602zm1.503 0h.128v1.614h-.128zm2.099.801c0 .471-.369.834-.851.834a.83.83 0 0 1-.853-.827c0-.47.369-.827.853-.827.475 0 .851.352.851.82m-.135 0c0-.39-.314-.706-.716-.706-.411 0-.719.326-.719.723s.314.704.714.704a.71.71 0 0 0 .721-.721m.413-.799h.118l1.212 1.409v-1.409h.126v1.612h-.105l-1.224-1.416v1.416h-.128zm2.349-.012h.073l.745 1.624h-.13l-.255-.558h-.787l-.255.558h-.13zm.038.204l-.35.756h.695zm.95-.194h.128v1.508h.797v.106h-.924zm1.984.002h.461c.252 0 .505.104.505.43 0 .319-.253.428-.505.428h-.334v.754h-.128zm.128.106v.643h.301c.217.005.404-.066.404-.319s-.187-.324-.404-.324zm1.077-.108h.128v1.508h.796v.106h-.924zm1.9 1.522c.208 0 .391-.076.57-.166v.13c-.182.092-.364.149-.57.149-.484 0-.858-.345-.858-.82 0-.464.361-.834.843-.834.237 0 .404.061.568.135v.135c-.17-.087-.319-.156-.548-.156-.432 0-.728.307-.728.716s.305.711.723.711" clip-path="url(#b)" transform="translate(-120.953 -332.358)"/></svg>