<?xml version="1.0" encoding="utf-8"?>
<!-- Generator: Adobe Illustrator 26.0.1, SVG Export Plug-In . SVG Version: 6.00 Build 0)  -->
<svg version="1.1" id="Layer_1" xmlns="http://www.w3.org/2000/svg" xmlns:xlink="http://www.w3.org/1999/xlink" x="0px" y="0px"
	 viewBox="0 0 95 35" style="enable-background:new 0 0 95 35;" xml:space="preserve">
<style type="text/css">
	.st0{fill:#FFFFFF;}
</style>
<g>
	<path class="st0" d="M15.5,18v-6l0.4-0.3l0.3-0.8L4.9,5.2l-4.4,5.6l0,0l0.3,0.9l1.4,0.7v7.4l1-0.7v-5.6c0-0.3,0.2-0.5,0.5-0.4
		C4,13.3,4.2,13.7,4.2,14v7.1l1.1-0.7v-5.8c0-0.3,0.2-0.5,0.5-0.4C6,14.4,6.2,14.7,6.2,15v7.3l1.1-0.7v-6.1c0-0.3,0.2-0.5,0.5-0.4
		c0.3,0.1,0.5,0.4,0.5,0.7V24l-7.6-4.9v0.4l8.2,5.3l-0.5,0.3L0,19.7v0.8l8.3,5.4l9.1-5.9v-0.8L15.5,18 M7.3,14.3L0.8,11l4.2-5.4
		l6.5,3.3L7.3,14.3z M10.3,21.9l-1-0.6V15c0-0.3,0.2-0.6,0.5-0.7c0.3-0.1,0.5,0.1,0.5,0.4L10.3,21.9L10.3,21.9z M12.4,20.7l-1-0.6
		v-6.4c0-0.3,0.2-0.6,0.5-0.7c0.3-0.1,0.5,0.1,0.5,0.4L12.4,20.7L12.4,20.7z M14.4,19.5L14.4,19.5l-1-0.6v-6.6
		c0-0.3,0.2-0.6,0.5-0.7c0.3-0.1,0.5,0.1,0.5,0.4L14.4,19.5L14.4,19.5z"/>
	<path class="st0" d="M23.1,24.6v3.7h-0.5v-3.7h-1v-0.4h2.5v0.4H23.1 M24.5,27.1c0,0.8,0.6,1.4,1.4,1.4s1.4-0.6,1.4-1.4
		c0-0.8-0.6-1.4-1.4-1.4C25.1,25.7,24.5,26.3,24.5,27.1 M25.9,26.1c0.5,0,0.9,0.3,0.9,1c0,0.6-0.4,0.9-0.9,0.9S25,27.7,25,27.1
		C25,26.4,25.4,26.1,25.9,26.1z M30.3,25.8v0.4c-0.2-0.3-0.5-0.4-0.9-0.4c-0.3,0-0.7,0.1-0.9,0.3c-0.2,0.2-0.4,0.5-0.4,1
		c0,0.5,0.2,0.8,0.4,1c0.2,0.2,0.5,0.3,0.9,0.3c0.5,0,0.7-0.2,0.9-0.4v0.4c0,0.2,0,0.4-0.1,0.7c-0.1,0.3-0.4,0.4-0.7,0.4
		c-0.2,0-0.4,0-0.6-0.3c-0.1-0.1-0.2-0.3-0.2-0.5h-0.4c0,0.4,0.2,0.7,0.3,0.8c0.2,0.2,0.5,0.3,0.9,0.3c0.5,0,0.8-0.2,1-0.5
		c0.3-0.3,0.3-0.7,0.3-1v-2.5L30.3,25.8 M29.4,26.1c0.2,0,0.4,0.1,0.6,0.2c0.2,0.2,0.3,0.4,0.3,0.7s-0.1,0.6-0.3,0.7
		C29.8,28,29.7,28,29.4,28S29,28,28.9,27.8c-0.3-0.2-0.3-0.5-0.3-0.8c0-0.2,0-0.5,0.3-0.7C29,26.2,29.2,26.1,29.4,26.1z M34.2,27.7
		l-0.4-0.2c-0.1,0.1-0.1,0.3-0.3,0.3C33.4,28,33.2,28,33,28c-0.4,0-0.8-0.3-0.8-0.9h2c0-0.3-0.1-0.7-0.2-1c-0.2-0.2-0.5-0.5-1-0.5
		c-0.8,0-1.3,0.6-1.3,1.4c0,0.9,0.6,1.3,1.3,1.3c0.3,0,0.6-0.1,0.9-0.3C34,28,34.1,27.8,34.2,27.7 M32.2,26.8
		c0.1-0.4,0.4-0.7,0.8-0.7s0.7,0.3,0.8,0.7H32.2z M35.7,26.2h0.4v-0.4h-0.4v-0.9h-0.4v0.9H35v0.4h0.3v2.2h0.4V26.2 M37,23.8v4.5h0.4
		V27c0-0.2,0-0.5,0.2-0.7c0.1-0.2,0.3-0.2,0.5-0.2c0.2,0,0.3,0.1,0.4,0.2c0.1,0.1,0.1,0.3,0.1,0.5v1.6H39v-1.6c0-0.3,0-0.5-0.1-0.7
		c-0.2-0.2-0.4-0.3-0.7-0.3c-0.4,0-0.7,0.3-0.7,0.4v-2.2H37 M42.5,27.7l-0.4-0.2c-0.1,0.1-0.1,0.3-0.3,0.3C41.7,28,41.6,28,41.4,28
		c-0.4,0-0.8-0.3-0.8-0.9h2c0-0.3-0.1-0.7-0.2-1c-0.2-0.2-0.5-0.5-1-0.5c-0.8,0-1.3,0.6-1.3,1.4c0,0.9,0.6,1.3,1.3,1.3
		c0.3,0,0.6-0.1,0.9-0.3C42.3,28,42.4,27.8,42.5,27.7 M40.6,26.8c0.1-0.4,0.4-0.7,0.8-0.7s0.7,0.3,0.8,0.7H40.6z M43.6,25.8v2.6H44
		V27c0-0.4,0.1-0.6,0.1-0.7c0.1-0.1,0.2-0.2,0.4-0.2c0.1,0,0.2,0,0.3,0.1l0.2-0.4c-0.1-0.1-0.3-0.1-0.4-0.1c-0.3,0-0.5,0.3-0.6,0.3
		v-0.3H43.6 M45.6,27.7l-0.5,1.4l0.3,0.1l0.6-1.4L45.6,27.7 M49,25.8h-0.5l1.3,2.8l0.8-1.9l0.8,1.9l1.3-2.8h-0.5l-0.8,1.8l-0.8-1.9
		l-0.8,1.9L49,25.8 M55.7,27.7l-0.4-0.2c-0.1,0.1-0.1,0.3-0.3,0.3C54.9,28,54.7,28,54.5,28c-0.4,0-0.8-0.3-0.8-0.9h2
		c0-0.3-0.1-0.7-0.2-1c-0.2-0.2-0.5-0.5-1-0.5c-0.8,0-1.3,0.6-1.3,1.4c0,0.9,0.6,1.3,1.3,1.3c0.3,0,0.6-0.1,0.9-0.3
		C55.5,28,55.6,27.8,55.7,27.7 M53.7,26.8c0.1-0.4,0.4-0.7,0.8-0.7c0.4,0,0.7,0.3,0.8,0.7H53.7z M58.4,25.8v2.6h0.4v-1.4
		c0-0.3,0.1-0.8,0.6-0.8c0.5,0,0.5,0.5,0.5,0.7v1.5h0.4v-1.4c0-0.3,0.1-0.8,0.6-0.8c0.4,0,0.5,0.4,0.5,0.7v1.6h0.4v-1.6
		c0-0.4-0.1-1-0.8-1c-0.2,0-0.5,0-0.8,0.4c0-0.1-0.2-0.4-0.7-0.4c-0.3,0-0.5,0.1-0.6,0.3v-0.3H58.4 M64.9,25.8v0.4
		c-0.1-0.2-0.4-0.4-0.9-0.4c-0.7,0-1.3,0.5-1.3,1.3c0,0.9,0.6,1.4,1.3,1.4c0.5,0,0.7-0.2,0.9-0.4v0.4h0.4v-2.6L64.9,25.8 M64.1,26.1
		c0.4,0,0.9,0.3,0.9,0.9c0,0.5-0.3,1-0.9,1s-0.8-0.4-0.8-1C63.3,26.4,63.7,26.1,64.1,26.1z M67,23.8h-0.4v4.5H67v-1.1l0.1-0.1l1,1.2
		h0.6l-1.3-1.5l1.1-1.1H68L67,26.7V23.8 M71.7,27.7l-0.4-0.2c-0.1,0.1-0.1,0.3-0.3,0.3C70.9,28,70.8,28,70.5,28
		c-0.4,0-0.8-0.3-0.8-0.9h2c0-0.3-0.1-0.7-0.2-1c-0.2-0.2-0.5-0.5-1-0.5c-0.8,0-1.3,0.6-1.3,1.4c0,0.9,0.6,1.3,1.3,1.3
		c0.3,0,0.6-0.1,0.9-0.3C71.5,28,71.6,27.8,71.7,27.7 M69.8,26.8c0.1-0.4,0.4-0.7,0.8-0.7c0.4,0,0.7,0.3,0.8,0.7H69.8z M76.4,25.8
		v0.4c-0.1-0.2-0.4-0.4-0.9-0.4c-0.6,0-1.3,0.5-1.3,1.3c0,0.9,0.6,1.4,1.3,1.4c0.5,0,0.7-0.2,0.9-0.4v0.4h0.4v-2.6L76.4,25.8
		 M75.5,26.1c0.4,0,0.9,0.3,0.9,0.9c0,0.5-0.3,1-0.9,1s-0.8-0.4-0.8-1C74.7,26.4,75.1,26.1,75.5,26.1z M79.6,23.8v4.5h0.4V27
		c0-0.2,0-0.5,0.2-0.7c0.1-0.2,0.3-0.2,0.5-0.2c0.2,0,0.3,0.1,0.4,0.2c0.1,0.1,0.1,0.3,0.1,0.5v1.6h0.4v-1.6c0-0.3,0-0.5-0.1-0.7
		c-0.2-0.2-0.4-0.3-0.7-0.3c-0.4,0-0.7,0.3-0.7,0.4v-2.2H79.6 M82.8,27.1c0,0.8,0.6,1.4,1.4,1.4s1.4-0.6,1.4-1.4
		c0-0.8-0.6-1.4-1.4-1.4C83.3,25.7,82.8,26.3,82.8,27.1 M84.1,26.1c0.5,0,0.9,0.3,0.9,1c0,0.6-0.4,0.9-0.9,0.9s-0.9-0.3-0.9-0.9
		C83.2,26.4,83.6,26.1,84.1,26.1z M86.5,25.8v2.6h0.4v-1.4c0-0.3,0-0.8,0.6-0.8c0.5,0,0.5,0.5,0.5,0.7v1.5h0.4v-1.4
		c0-0.3,0.1-0.8,0.6-0.8c0.4,0,0.5,0.4,0.5,0.7v1.6h0.4v-1.6c0-0.4-0.1-1-0.8-1c-0.2,0-0.5,0-0.8,0.4c0-0.1-0.2-0.4-0.7-0.4
		c-0.3,0-0.5,0.1-0.6,0.3v-0.3H86.5 M93.4,27.7L93,27.5c-0.1,0.1-0.1,0.3-0.3,0.3C92.6,28,92.4,28,92.2,28c-0.4,0-0.8-0.3-0.8-0.9h2
		c0-0.3-0.1-0.7-0.2-1c-0.2-0.2-0.5-0.5-1-0.5c-0.8,0-1.3,0.6-1.3,1.4c0,0.9,0.6,1.3,1.3,1.3c0.3,0,0.6-0.1,0.9-0.3
		C93.2,28,93.3,27.8,93.4,27.7 M91.4,26.8c0.1-0.4,0.4-0.7,0.8-0.7s0.7,0.3,0.8,0.7H91.4z M94.7,27.8c-0.2,0-0.3,0.1-0.3,0.3
		s0.1,0.3,0.3,0.3s0.3-0.1,0.3-0.3C95,27.9,94.9,27.8,94.7,27.8"/>
	<path class="st0" d="M21.6,20v-0.2l0.3-0.1c0.2-0.1,0.3-0.2,0.4-0.3c0.1-0.1,0.1-0.3,0.1-0.5v-8c0-0.2,0-0.4-0.1-0.5
		c-0.1-0.1-0.2-0.2-0.4-0.3L21.6,10V9.9h3.7c1.5,0,2.6,0.3,3.3,0.8c0.7,0.6,1,1.3,1,2.2c0,0.6-0.1,1.1-0.4,1.6
		c-0.3,0.5-0.7,0.9-1.4,1.2c-0.6,0.3-1.5,0.4-2.6,0.4h-0.5v2.8c0,0.4,0.2,0.6,0.6,0.8l0.5,0.1v0.2L21.6,20 M24.7,15.8h0.6
		c0.5,0,0.9-0.1,1.2-0.2c0.3-0.2,0.6-0.4,0.7-0.9c0.2-0.4,0.2-1,0.2-1.7c0-0.7-0.1-1.3-0.3-1.7s-0.4-0.7-0.7-0.8
		c-0.3-0.2-0.7-0.2-1.2-0.2h-0.5L24.7,15.8L24.7,15.8z M33.4,12.4c0.7,0,1.2,0.1,1.7,0.4c0.5,0.3,0.8,0.6,1.1,1.1
		c0.3,0.5,0.4,1,0.4,1.6c0,0.1,0,0.2,0,0.3c0,0.1,0,0.2-0.1,0.3h-4.6c0,1.1,0.2,1.9,0.6,2.4c0.4,0.5,0.9,0.7,1.7,0.7
		c0.5,0,0.9-0.1,1.2-0.2c0.3-0.2,0.6-0.4,0.9-0.7l0.2,0.1c-0.3,0.6-0.7,1-1.3,1.3c-0.5,0.3-1.2,0.5-1.9,0.5c-0.7,0-1.4-0.2-1.9-0.5
		c-0.6-0.3-1-0.8-1.3-1.3c-0.3-0.6-0.5-1.3-0.5-2.1c0-0.8,0.2-1.5,0.6-2.1c0.4-0.6,0.8-1,1.4-1.3C32.2,12.5,32.8,12.4,33.4,12.4
		 M33.3,12.7c-0.3,0-0.6,0.1-0.8,0.3c-0.2,0.2-0.4,0.5-0.5,0.9c-0.1,0.5-0.2,1.1-0.2,1.9h2.6c0.1-1.1,0.1-1.9-0.1-2.4
		C34.2,12.9,33.9,12.7,33.3,12.7z M36.8,20h4v-0.2l-0.5-0.1c-0.3-0.1-0.5-0.3-0.5-0.8v-4.3c0.1-0.2,0.1-0.3,0.2-0.4s0.1-0.2,0.3-0.3
		c0.1-0.1,0.2-0.2,0.4-0.2c0.1,0,0.3,0.1,0.3,0.2l0,0c0.3,0.4,0.7,0.6,1.1,0.6c0.3,0,0.5-0.1,0.7-0.3c0.2-0.2,0.3-0.5,0.3-0.8
		c0-0.3-0.1-0.6-0.3-0.8c-0.2-0.2-0.5-0.3-0.9-0.3c-0.3,0-0.6,0.1-0.8,0.2c-0.3,0.2-0.5,0.3-0.8,0.6c-0.2,0.2-0.4,0.5-0.6,0.8v-0.1
		l-0.1-1.3l-0.2-0.2l-2.6,0.9v0.2l0.2,0.1c0.2,0,0.3,0.1,0.4,0.2c0.1,0.1,0.1,0.3,0.1,0.5V19c0,0.2,0,0.3-0.1,0.5
		c-0.1,0.1-0.2,0.2-0.4,0.3l-0.2,0.1L36.8,20 M45.8,20.2c1.1,0,1.9-0.2,2.5-0.7c0.6-0.4,0.9-1,0.9-1.8c0-0.6-0.2-1-0.5-1.4
		c-0.3-0.4-0.8-0.7-1.6-0.9l-0.7-0.2c-0.5-0.2-0.9-0.4-1.2-0.6c-0.3-0.2-0.4-0.5-0.4-0.8s0.2-0.6,0.5-0.8c0.3-0.2,0.6-0.3,1-0.3
		c0.4,0,0.7,0.1,0.8,0.2c0.2,0.1,0.4,0.4,0.6,0.7l0.5,0.9h0.2l0.1-1.6c-0.3-0.2-0.7-0.3-1-0.4c-0.3-0.1-0.7-0.1-1.1-0.1
		c-1,0-1.7,0.2-2.3,0.7c-0.5,0.5-0.8,1-0.8,1.7c0,0.6,0.2,1,0.5,1.4c0.3,0.4,0.8,0.7,1.5,0.9l0.6,0.2c0.6,0.2,1,0.4,1.2,0.6
		c0.2,0.2,0.3,0.5,0.3,0.8c0,0.4-0.1,0.7-0.4,0.9c-0.3,0.2-0.7,0.3-1.2,0.3c-0.4,0-0.8-0.1-1-0.3s-0.5-0.5-0.7-0.9l-0.5-0.9h-0.2
		l0,1.8c0.3,0.2,0.7,0.3,1.1,0.4C44.9,20.1,45.3,20.2,45.8,20.2 M49.3,20v-0.2l0.2-0.1c0.2-0.1,0.3-0.2,0.4-0.3
		C50,19.3,50,19.2,50,19v-4.8c0-0.2,0-0.4-0.1-0.5c-0.1-0.1-0.2-0.2-0.4-0.2l-0.2,0v-0.2l2.8-0.9l0.2,0.2l0,2.2V19
		c0,0.2,0,0.4,0.1,0.5c0.1,0.1,0.2,0.2,0.4,0.3l0.2,0V20L49.3,20 M51.1,11.6c-0.3,0-0.6-0.1-0.9-0.3c-0.2-0.2-0.4-0.5-0.4-0.8
		c0-0.3,0.1-0.6,0.4-0.8c0.2-0.2,0.5-0.3,0.9-0.3c0.3,0,0.6,0.1,0.9,0.3c0.2,0.2,0.3,0.5,0.3,0.8c0,0.3-0.1,0.6-0.3,0.8
		C51.7,11.5,51.5,11.6,51.1,11.6z M53.3,20h3.6v-0.2l-0.1,0c-0.3-0.1-0.5-0.3-0.5-0.7v-5.1c0.3-0.2,0.5-0.4,0.7-0.5s0.5-0.2,0.7-0.2
		c0.3,0,0.6,0.1,0.8,0.3c0.1,0.2,0.2,0.5,0.2,0.9V19c0,0.2,0,0.4-0.1,0.5c-0.1,0.1-0.2,0.2-0.4,0.3l-0.2,0.1V20h3.5v-0.2l-0.1,0
		c-0.4-0.1-0.5-0.3-0.6-0.7v-3.9c0-0.2,0-0.4,0-0.6c0-0.2,0-0.4-0.1-0.5c0.3-0.2,0.5-0.4,0.8-0.5c0.3-0.1,0.5-0.2,0.8-0.2
		c0.3,0,0.6,0.1,0.7,0.2c0.2,0.2,0.2,0.4,0.2,0.9V19c0,0.2,0,0.4-0.1,0.5c-0.1,0.1-0.2,0.2-0.4,0.3l-0.2,0V20h3.5v-0.2l-0.2,0
		c-0.4-0.1-0.6-0.3-0.6-0.7v-4.5c0-0.7-0.2-1.3-0.5-1.6c-0.3-0.3-0.9-0.5-1.6-0.5c-0.4,0-0.9,0.1-1.3,0.3c-0.5,0.2-0.9,0.5-1.3,0.9
		c-0.2-0.4-0.4-0.7-0.7-0.9c-0.3-0.2-0.7-0.3-1.2-0.3c-0.5,0-0.9,0.1-1.3,0.3c-0.4,0.2-0.8,0.5-1.2,0.9l-0.1-1l-0.2-0.2l-2.6,0.9
		v0.2l0.2,0.1c0.2,0,0.3,0.1,0.4,0.2c0.1,0.1,0.1,0.3,0.1,0.5V19c0,0.2,0,0.4-0.1,0.5c-0.1,0.1-0.2,0.2-0.4,0.3l-0.2,0.1L53.3,20
		 M66.3,20h3.6v-0.2l-0.1,0c-0.3-0.1-0.5-0.3-0.5-0.7v-5.1c0.3-0.2,0.5-0.4,0.7-0.5s0.5-0.2,0.7-0.2c0.3,0,0.6,0.1,0.8,0.3
		c0.1,0.2,0.2,0.5,0.2,0.9V19c0,0.2,0,0.4-0.1,0.5c-0.1,0.1-0.2,0.2-0.4,0.3l-0.2,0.1V20h3.5v-0.2l-0.1,0c-0.4-0.1-0.5-0.3-0.6-0.7
		v-3.9c0-0.2,0-0.4,0-0.6c0-0.2,0-0.4-0.1-0.5c0.3-0.2,0.5-0.4,0.8-0.5c0.3-0.1,0.5-0.2,0.8-0.2c0.3,0,0.6,0.1,0.7,0.2
		c0.2,0.2,0.2,0.4,0.2,0.9V19c0,0.2,0,0.4-0.1,0.5c-0.1,0.1-0.2,0.2-0.4,0.3l-0.2,0V20h3.5v-0.2l-0.2,0c-0.4-0.1-0.6-0.3-0.6-0.7
		v-4.5c0-0.7-0.2-1.3-0.5-1.6c-0.3-0.3-0.9-0.5-1.6-0.5c-0.4,0-0.9,0.1-1.3,0.3c-0.5,0.2-0.9,0.5-1.3,0.9c-0.2-0.4-0.4-0.7-0.7-0.9
		c-0.3-0.2-0.7-0.3-1.2-0.3c-0.5,0-0.9,0.1-1.3,0.3c-0.4,0.2-0.8,0.5-1.2,0.9l-0.1-1l-0.2-0.2l-2.6,0.9v0.2l0.2,0.1
		c0.2,0,0.3,0.1,0.4,0.2c0.1,0.1,0.1,0.3,0.1,0.5V19c0,0.2,0,0.4-0.1,0.5c-0.1,0.1-0.2,0.2-0.4,0.3l-0.2,0.1L66.3,20 M82.8,20.2
		c-0.8,0-1.4-0.2-2-0.5c-0.6-0.3-1-0.8-1.3-1.4c-0.3-0.6-0.5-1.3-0.5-2.1c0-0.8,0.2-1.5,0.5-2.1c0.3-0.6,0.8-1,1.4-1.3
		c0.6-0.3,1.2-0.5,1.9-0.5s1.4,0.2,1.9,0.5c0.6,0.3,1,0.8,1.3,1.3c0.3,0.6,0.5,1.3,0.5,2.1c0,0.8-0.2,1.5-0.5,2.1
		c-0.3,0.6-0.7,1-1.3,1.4C84.3,20,83.6,20.2,82.8,20.2 M82.8,19.9c0.3,0,0.6-0.1,0.9-0.3c0.2-0.2,0.4-0.6,0.5-1.1
		c0.1-0.5,0.1-1.3,0.1-2.2c0-0.9,0-1.7-0.1-2.2c-0.1-0.5-0.3-0.9-0.5-1.1c-0.2-0.2-0.5-0.3-0.9-0.3c-0.4,0-0.6,0.1-0.9,0.3
		c-0.2,0.2-0.4,0.6-0.5,1.1c-0.1,0.5-0.1,1.3-0.1,2.2c0,0.9,0,1.7,0.1,2.2c0.1,0.5,0.3,0.9,0.5,1.1C82.2,19.8,82.5,19.9,82.8,19.9z
		 M86.8,20h3.6v-0.2l-0.1,0c-0.3-0.1-0.5-0.3-0.5-0.7v-5.2c0.5-0.4,1-0.7,1.5-0.7c0.6,0,1,0.3,1,1V19c0,0.4-0.2,0.6-0.5,0.7
		l-0.2,0.1V20H95v-0.2l-0.1-0.1c-0.4-0.1-0.6-0.3-0.6-0.7v-4.4c0-0.7-0.2-1.3-0.5-1.7s-0.9-0.6-1.6-0.6c-0.4,0-0.9,0.1-1.3,0.3
		c-0.4,0.2-0.9,0.5-1.2,0.8l-0.1-0.9l-0.2-0.2l-2.6,0.9v0.2l0.2,0.1c0.2,0,0.3,0.1,0.4,0.2c0.1,0.1,0.1,0.3,0.1,0.5V19
		c0,0.4-0.2,0.6-0.5,0.7l-0.2,0.1L86.8,20"/>
</g>
</svg>
