<?xml version="1.0" encoding="utf-8"?>
<!-- Generator: Adobe Illustrator 26.0.1, SVG Export Plug-In . SVG Version: 6.00 Build 0)  -->
<svg version="1.1" id="Layer_1" xmlns="http://www.w3.org/2000/svg" xmlns:xlink="http://www.w3.org/1999/xlink" x="0px" y="0px"
	 viewBox="0 0 95 35" style="enable-background:new 0 0 95 35;" xml:space="preserve">
<style type="text/css">
	.st0{fill:#CCCCCC;}
</style>
<path id="wordmark" class="st0" d="M59.3,23.4c0-0.1-0.1-0.1-0.2-0.1l0,0c-0.3,0.1-0.5,0-0.7-0.1c-0.2-0.1-0.3-0.5-0.3-1v-4.8
	c0-1.9-1.1-2.8-3.3-2.8c-2,0-3.5,0.9-3.5,2.1c0,0.6,0.4,1,0.9,1.1c0.4,0,0.7-0.1,1-0.4c0.5-0.5,0.4-1.1-0.2-1.8
	c0.4-0.4,1-0.6,1.7-0.6c1.2,0,1.6,0.7,1.6,2.3v1.2c-0.3,0.1-0.5,0.2-1,0.3c-0.9,0.2-2.2,0.5-3.2,1c-0.8,0.4-1.2,1.1-1.2,2
	c0,1,0.7,2.2,2.5,2.2c1,0,2-0.5,2.9-1.5c0.1,1.1,0.5,1.5,1.5,1.5c0.5,0,0.9-0.1,1.3-0.3C59.3,23.7,59.4,23.6,59.3,23.4L59.3,23.4z
	 M56.2,22c-0.2,0.3-1,1.2-1.9,1.2c-1.2,0-1.5-0.9-1.5-1.6c0-1.2,0.9-1.7,3.4-2.3L56.2,22z M80.1,24.2c-2.6,0-4.6-2-4.6-4.7
	c0-2.6,2.1-4.8,4.6-4.8c2.6,0,4.6,2.1,4.6,4.7C84.7,22.3,82.3,24.2,80.1,24.2z M80,15.1c-1.1,0-2.4,0.5-2.4,4.3
	c0,2.9,0.9,4.3,2.6,4.3c1.7,0,2.4-1.3,2.4-4.3C82.6,16.5,81.7,15.1,80,15.1z M39.3,14.8c0,2.2-0.5,3.4-3.3,3.4h-1.5v-6.6H36
	C38.9,11.6,39.3,13.2,39.3,14.8z M34.5,22.3v-3.4h1.3c2,0,3.5-0.4,4.5-1.2c1.1-0.9,1.3-2,1.3-2.7c0-3.2-3.1-3.8-5.7-3.8l0,0h-5.2
	c-0.1,0-0.2,0.1-0.2,0.2v0v0c0,0.1,0.1,0.2,0.2,0.2c0.5,0.2,1.7-0.1,1.7,1.3v9.5c0,0.7-0.3,1.2-1.7,1.3c-0.1,0-0.2,0.1-0.2,0.2v0
	c0,0.1,0.1,0.2,0.2,0.2h5.6c0.1,0,0.2-0.1,0.2-0.2v0c0-0.1-0.1-0.2-0.2-0.2C34.8,23.5,34.5,23,34.5,22.3l0-3.4L34.5,22.3z
	 M45.9,14.6c-2.4,0-4.4,2.2-4.4,4.9c0,2.7,1.9,4.7,4.4,4.7c2.2,0,3.2-1.3,3.8-2.2c0.1-0.1,0-0.2-0.1-0.3l0,0c-0.1-0.1-0.2,0-0.3,0
	c-0.8,1-1.5,1.5-2.7,1.5c-1.5,0-3.1-1-3.1-3.9v0c0-0.1,0-0.3,0-0.5h6.2c0,0,0,0,0,0l0,0c0.1-1.2-0.3-2.2-1-3
	C48.1,15,47.1,14.6,45.9,14.6L45.9,14.6z M43.5,18.2c0.2-2,1-3.1,2.2-3.1c0.6,0,1.1,0.2,1.4,0.5c0.4,0.5,0.6,1.3,0.6,2.5H43.5z
	 M71.5,18.3L71.5,18.3c-1.7-0.5-2.4-0.9-2.4-1.7c0-0.9,0.7-1.5,1.6-1.5c1.1,0,1.6,0.5,2.8,2.5l0,0c0,0,0,0,0,0h0.2
	c0.1,0,0.2-0.1,0.2-0.2v-2.8c0,0,0,0,0,0h-0.2c-0.1,0-0.1,0-0.2,0.1l-0.4,0.4c-0.5-0.3-1.2-0.5-2-0.5c-1.9,0-3.3,1.2-3.3,2.9
	c0,1.6,1.1,2.2,2.9,2.7c1.8,0.5,2.4,1,2.4,1.9c0,1-1,1.5-1.8,1.5c-1.4,0-1.9-0.5-3.2-2.8l0,0c0,0,0,0,0,0h-0.2
	c-0.1,0-0.2,0.1-0.2,0.2v3.1c0,0,0,0,0,0h0.2c0.1,0,0.1,0,0.2-0.1l0.6-0.6c0.7,0.4,1.7,0.6,2.4,0.6c1,0,1.8-0.3,2.4-0.9
	c0.5-0.5,0.8-1.3,0.8-2.1C74.4,19.7,73.7,18.9,71.5,18.3L71.5,18.3z M61.3,22.9c0,0.5-0.1,0.6-0.9,0.7c-0.1,0-0.2,0.1-0.2,0.2
	c0,0.1,0.1,0.2,0.2,0.2h3.8c0.1,0,0.2-0.1,0.2-0.2c0-0.1-0.1-0.2-0.2-0.2c-0.9,0-1.1-0.2-1.1-0.7v-5.5c0.6-1,1.1-1.6,1.9-1.7
	c0,0.1-0.1,0.3-0.1,0.4c0,0.7,0.5,1.1,1.2,1.1c0.7,0,1.1-0.5,1.1-1.1c0-0.6-0.4-1.4-1.5-1.4c-0.9,0-1.8,0.5-2.6,1.8V15
	c0-0.1-0.1-0.3-0.3-0.3l-2.4,0.1c-0.1,0-0.2,0.1-0.2,0.2v0c0,0.1,0.1,0.2,0.2,0.2c0.8,0.1,0.9,0.5,0.9,0.9V22.9z M87.8,14.8
	c0.1,0,0.1,0,0.1,0.1c0,0,0.1,0.1,0.1,0.2l0,1.6c0,0,0.8-1.9,3.3-1.9h0c1.6,0,2.5,1,2.5,2.7v5.5c0,0.5,0.1,0.6,0.9,0.7
	c0.1,0,0.2,0.1,0.2,0.2c0,0.1-0.1,0.2-0.2,0.2h-3.4c-0.1,0-0.2-0.1-0.2-0.2c0-0.1,0.1-0.2,0.2-0.2c0.6-0.1,0.7-0.2,0.7-0.7V18
	c0-1.6-0.5-2.3-1.7-2.3c-0.8,0-1.5,0.7-1.9,1.3c0,0-0.2,0.3-0.4,0.8l0,5.1c0,0.5,0.1,0.6,0.7,0.7c0.1,0,0.2,0.1,0.2,0.2
	c0,0.1-0.1,0.2-0.2,0.2h-3.4c-0.1,0-0.2-0.1-0.2-0.2c0-0.1,0.1-0.2,0.2-0.2c0.8,0,0.9-0.2,0.9-0.7v-6.7c0-0.4-0.1-0.8-0.9-0.9
	c-0.1,0-0.2-0.1-0.2-0.2v0c0-0.1,0.1-0.2,0.2-0.2L87.8,14.8z"/>
<path class="st0" d="M20.5,5.2C13.8,1.4,5.1,3.4,1.3,11.5c-2.6,5.6-1.4,15.2,4.6,18.7c6,3.5,14.1,0.6,17.9-6.2
	C28,16.2,26.6,8.6,20.5,5.2z M12.8,27.3c-0.2,0.2-0.5,0.3-0.9,0.3h0c-0.2,0-0.3,0-0.5-0.1c-0.3-0.1-0.5-0.2-0.6-0.4
	c-0.1-0.1-0.2-0.3-0.2-0.6c-0.1-0.3,0-0.7,0.2-1c0.3-0.4,0.6-0.6,1-0.6c0.1,0,0.1,0,0.2,0c0.2,0,0.4,0.1,0.6,0.3
	c0.3,0.3,0.5,0.7,0.5,1.1C13.2,26.7,13.1,27.1,12.8,27.3z M21.7,15.7c-0.2,1.8-1.3,3.4-3.1,4.5c-1.4,0.9-3.3,1.2-5.2,1.2
	c0,0.3-0.1,1.3-0.1,1.5c0,0.2-0.1,0.4-0.2,0.5c-0.2,0.3-0.5,0.4-0.9,0.5C11.9,24,11.6,24,11.4,24c0,0-0.1,0-0.1,0
	c-0.2,0-0.4-0.1-0.6-0.3c-0.1-0.2-0.2-0.3-0.2-0.6l0-0.2c0-0.2-0.3-8.8-0.2-8.6c0-1,1.7-1.2,2.6-1c0.9,0.2,0.7,1.3,0.7,2.6
	c0,0,0,1.8-0.1,3.7c1.2,0,2.1-0.4,3-0.8c1.8-0.9,2.7-2.2,2.7-4.1s-1.9-4.1-5.5-4.1c-3.5,0-5.1,0.9-6.8,2.3c-0.4,0.3-0.7,0.6-1,0.8
	c-0.3,0.2-1,0.2-1.2-0.2c-0.2-0.6,0.2-1.2,0.5-1.6c0.4-0.5,1.4-1.5,2.6-2.1c1.3-0.7,2.9-1.4,5.1-1.4c2,0,5.2,0.1,7.5,2.7l0,0
	C21.6,12.3,21.9,14.2,21.7,15.7z"/>
</svg>
