<?xml version="1.0" encoding="utf-8"?>
<!-- Generator: Adobe Illustrator 26.0.1, SVG Export Plug-In . SVG Version: 6.00 Build 0)  -->
<svg version="1.1" id="Layer_1" xmlns="http://www.w3.org/2000/svg" xmlns:xlink="http://www.w3.org/1999/xlink" x="0px" y="0px"
	 viewBox="0 0 95 35" style="enable-background:new 0 0 95 35;" xml:space="preserve">
<style type="text/css">
	.st0{fill:#343741;}
</style>
<g id="layer1" transform="translate(-80.964083,-170.65826)">
	<g id="g3003" transform="translate(0.26458491,-0.26457696)">
		<path id="path2693" class="st0" d="M87,187.4c3.3,0,7.3-0.8,7.3-3.9c0-2.2-2.3-3-4.4-3c-3.2,0-9.2,1.7-9.2,7.9
			c0,3.1,2.4,4.9,6.3,4.9c4.1,0,7.1-2.6,8-6c-2.4,4-5.5,5.3-8,5.3c-3.1,0-4.3-2.2-4.3-4.1c0-5.5,4.4-7.3,7.1-7.3c1.9,0,3,1.2,3,2.4
			c0,3.5-5.2,3.4-7.6,3.4c-0.2,0-1,0-1.1,0l-0.5,0.5c1.1,0.1,2.6,0.4,4.2,1.2c3.4,1.7,6.6,6.1,10.9,6.1c1.5,0,1.9-0.5,2.2-0.9
			c-2.1,1.3-5.6-0.9-7.4-2.7C92,189.9,90.6,188.3,87,187.4"/>
		<path id="path2697" class="st0" d="M107.6,185.7c0-1-0.7-1.6-1.7-1.6h-2.3c-0.1,0-0.1,0-0.1,0.1v2.9c0,0.1,0,0.1,0.1,0.1h2.3
			C107,187.2,107.6,186.6,107.6,185.7 M107.9,193.4c-0.1,0-0.2,0-0.2-0.2l-2.1-4.3h-1.9c-0.1,0-0.1,0-0.1,0.1v4.2
			c0,0.1-0.1,0.2-0.2,0.2h-1.6c-0.1,0-0.2-0.1-0.2-0.2v-10.6c0-0.1,0.1-0.2,0.2-0.2h4.2c2,0,3.5,1.3,3.5,3.3c0,1.4-0.8,2.5-2.1,3
			l2.3,4.5c0.1,0.1,0,0.2-0.1,0.2L107.9,193.4z"/>
		<path id="path2701" class="st0" d="M111.4,182.6c0-0.1,0.1-0.2,0.2-0.2h6.7c0.1,0,0.2,0.1,0.2,0.2v1.4c0,0.1-0.1,0.2-0.2,0.2h-4.8
			c-0.1,0-0.1,0-0.1,0.1v2.7c0,0.1,0,0.1,0.1,0.1h3.9c0.1,0,0.2,0.1,0.2,0.2v1.4c0,0.1-0.1,0.2-0.2,0.2h-3.9c-0.1,0-0.1,0-0.1,0.1
			v2.8c0,0.1,0,0.1,0.1,0.1h4.8c0.1,0,0.2,0.1,0.2,0.2v1.4c0,0.1-0.1,0.2-0.2,0.2h-6.7c-0.1,0-0.2-0.1-0.2-0.2V182.6z"/>
		<path id="path2705" class="st0" d="M120.2,182.6c0-0.1,0.1-0.2,0.2-0.2h1.6c0.1,0,0.2,0.1,0.2,0.2v9c0,0.1,0,0.1,0.1,0.1h4.5
			c0.1,0,0.2,0.1,0.2,0.2v1.4c0,0.1-0.1,0.2-0.2,0.2h-6.3c-0.1,0-0.2-0.1-0.2-0.2L120.2,182.6z"/>
		<path id="path2709" class="st0" d="M140.2,187.9c0-1.9,0.1-2.6,0.3-3.2c0.5-1.6,1.8-2.5,3.6-2.5c1.8,0,2.9,0.9,3.4,2
			c0,0.1,0,0.2-0.1,0.2l-0.5,0.3c-0.1,0-0.2,0-0.2-0.1c-0.5-1-1.4-1.6-2.7-1.6c-1.4,0-2.3,0.6-2.7,1.9c-0.1,0.4-0.3,1.1-0.3,2.9
			c0,1.8,0.1,2.5,0.3,2.9c0.4,1.2,1.3,1.9,2.7,1.9c1.3,0,2.3-0.6,2.7-1.8c0.1-0.4,0.3-1,0.3-2.1c0-0.1,0-0.1-0.1-0.1h-2.5
			c-0.1,0-0.2-0.1-0.2-0.2V188c0-0.1,0.1-0.2,0.2-0.2h3.3c0.1,0,0.2,0.1,0.2,0.2v0.7c0,1.1-0.1,1.9-0.3,2.4
			c-0.5,1.6-1.8,2.5-3.5,2.5c-1.8,0-3-0.8-3.6-2.5C140.3,190.5,140.2,189.8,140.2,187.9"/>
		<path id="path2713" class="st0" d="M149.6,193.4c-0.1,0-0.2-0.1-0.2-0.2v-7.4c0-0.1,0.1-0.2,0.2-0.2h0.5c0.1,0,0.2,0.1,0.2,0.2v1
			h0c0.3-0.8,1-1.3,2.1-1.3c0.6,0,1.2,0.2,1.5,0.5c0.1,0,0.1,0.1,0,0.2l-0.3,0.5c-0.1,0.1-0.1,0.1-0.2,0c-0.4-0.2-0.7-0.4-1.2-0.4
			c-1.4,0-1.9,1.2-1.9,2.6v4.3c0,0.1-0.1,0.2-0.2,0.2L149.6,193.4z"/>
		<path id="path2717" class="st0" d="M159.7,191.3c0.1-0.4,0.2-0.9,0.2-1.7c0-0.8-0.1-1.3-0.2-1.7c-0.3-0.9-1-1.4-2-1.4
			c-1,0-1.7,0.5-2,1.4c-0.1,0.4-0.2,0.9-0.2,1.7c0,0.8,0.1,1.3,0.2,1.7c0.3,0.9,1,1.4,2,1.4C158.6,192.7,159.4,192.2,159.7,191.3
			 M154.8,191.5c-0.2-0.5-0.3-1.1-0.3-2c0-0.9,0.1-1.5,0.3-2c0.4-1.3,1.5-2,2.9-2c1.4,0,2.5,0.7,2.9,2c0.2,0.5,0.3,1.1,0.3,2
			c0,0.9-0.1,1.5-0.3,2c-0.4,1.3-1.5,2-2.9,2C156.2,193.5,155.2,192.8,154.8,191.5"/>
		<path id="path2721" class="st0" d="M167.2,193.4c-0.1,0-0.2-0.1-0.2-0.2v-0.9h0c-0.4,0.8-1.2,1.2-2.2,1.2c-1.7,0-2.7-1.1-2.7-2.9
			v-4.8c0-0.1,0.1-0.2,0.2-0.2h0.5c0.1,0,0.2,0.1,0.2,0.2v4.5c0,1.5,0.6,2.3,2,2.3c1.2,0,2.1-0.8,2.1-2.1v-4.7
			c0-0.1,0.1-0.2,0.2-0.2h0.5c0.1,0,0.2,0.1,0.2,0.2v7.4c0,0.1-0.1,0.2-0.2,0.2L167.2,193.4z"/>
		<path id="path2725" class="st0" d="M174.6,191.4c0.2-0.5,0.2-1.1,0.2-1.8c0-0.7,0-1.3-0.2-1.8c-0.3-0.9-1-1.4-2-1.4
			c-1,0-1.7,0.5-2,1.4c-0.1,0.4-0.2,1-0.2,1.8s0.1,1.4,0.2,1.8c0.3,0.9,1,1.4,2,1.4C173.7,192.7,174.3,192.2,174.6,191.4
			 M169.8,196.3c-0.1,0-0.2-0.1-0.2-0.2v-10.3c0-0.1,0.1-0.2,0.2-0.2h0.5c0.1,0,0.2,0.1,0.2,0.2v0.9h0c0.4-0.7,1.1-1.3,2.3-1.3
			c1.4,0,2.2,0.6,2.6,1.8c0.2,0.6,0.3,1.3,0.3,2.2c0,0.9-0.1,1.5-0.3,2.2c-0.4,1.2-1.3,1.8-2.6,1.8c-1.3,0-2-0.5-2.3-1.3h0v3.8
			c0,0.1-0.1,0.2-0.2,0.2L169.8,196.3z"/>
		<path id="path2729" class="st0" d="M134.7,193.4c-0.1,0-0.2,0-0.3-0.2l-2.2-3.7h0l-2.2,3.7c-0.1,0.1-0.1,0.2-0.3,0.2H128
			c-0.1,0-0.2-0.1-0.1-0.2l3.3-5.5l-3-5.1c-0.1-0.1,0-0.2,0.1-0.2h1.7c0.1,0,0.2,0,0.3,0.2l2,3.3h0l2-3.3c0.1-0.1,0.1-0.2,0.3-0.2
			h1.7c0.1,0,0.2,0.1,0.1,0.2l-3,5.1l3.3,5.5c0.1,0.1,0,0.2-0.1,0.2H134.7z"/>
	</g>
</g>
</svg>
