<?xml version="1.0" encoding="utf-8"?>
<!-- Generator: Adobe Illustrator 26.0.1, SVG Export Plug-In . SVG Version: 6.00 Build 0)  -->
<svg version="1.1" id="Layer_1" xmlns="http://www.w3.org/2000/svg" xmlns:xlink="http://www.w3.org/1999/xlink" x="0px" y="0px"
	 viewBox="0 0 95 35" style="enable-background:new 0 0 95 35;" xml:space="preserve">
<style type="text/css">
	.st0{fill:#CCCCCC;}
</style>
<g>
	<rect x="59.2" y="16.8" class="st0" width="2" height="6.7"/>
	<path class="st0" d="M80.1,30.9h-2.7c0.1-1,0.5-1.7,1.5-1.7C79.8,29.2,80.2,29.9,80.1,30.9 M82,32c0.4-3-1.2-4-3.1-4
		c-1.8,0-3.5,1.1-3.5,3.5c0,2.2,1.4,3.5,3.9,3.5c0.8,0,1.6-0.2,2.1-0.4l0.2-1.4c-0.6,0.2-1.3,0.5-2,0.5c-1.2,0-1.9-0.6-2-1.7H82z"/>
	<path class="st0" d="M42.7,19.5h-2.7c0.1-1,0.5-1.7,1.5-1.7C42.3,17.8,42.7,18.6,42.7,19.5 M44.5,20.6c0.4-3-1.2-4-3.1-4
		c-1.8,0-3.5,1.1-3.5,3.5c0,2.2,1.4,3.5,3.9,3.5c0.8,0,1.6-0.2,2.1-0.4l0.2-1.4c-0.6,0.2-1.3,0.5-2,0.5c-1.2,0-1.9-0.6-2-1.7H44.5z"
		/>
	<path class="st0" d="M42.9,30.9h-2.7c0.1-1,0.5-1.7,1.5-1.7C42.5,29.2,42.9,29.9,42.9,30.9 M44.8,32c0.4-3-1.2-4-3.1-4
		c-1.8,0-3.5,1.1-3.5,3.5c0,2.2,1.4,3.5,3.9,3.5c0.8,0,1.6-0.2,2.1-0.4l0.2-1.4c-0.6,0.2-1.3,0.5-2,0.5c-1.2,0-1.9-0.6-2-1.7H44.8z"
		/>
	<path class="st0" d="M68.5,25.3v2.3c-0.7-0.7-1.3-1.1-2.2-1.4L68.5,25.3z"/>
	<rect x="66.5" y="28.1" class="st0" width="2" height="6.7"/>
	<path class="st0" d="M58,29.5c-0.4-0.1-0.8-0.2-1.2-0.2c-1.2,0-1.9,0.7-1.9,2.1c0,1.7,1,2.3,1.8,2.3c0.8,0,1.2-0.2,1.6-0.3L58,34.7
		c-0.3,0.1-0.9,0.3-1.8,0.3c-2.1,0-3.5-1.4-3.5-3.5c0-2.2,1.4-3.5,3.9-3.5c0.9,0,1.4,0.2,1.8,0.3L58,29.5z"/>
	<path class="st0" d="M50.7,18.2C50.3,18,49.8,18,49.4,18c-1.2,0-1.9,0.7-1.9,2.1c0,1.7,1,2.3,1.8,2.3c0.8,0,1.2-0.2,1.6-0.3
		l-0.2,1.4c-0.3,0.1-0.9,0.3-1.8,0.3c-2.1,0-3.5-1.4-3.5-3.5c0-2.2,1.4-3.5,3.9-3.5c0.9,0,1.4,0.2,1.8,0.3L50.7,18.2z"/>
	<path class="st0" d="M51.9,30.1c0-1.4-0.8-2.1-2-2.1c-0.9,0-1.7,0.5-2.2,1.1v-0.9h-2v6.7h2v-3.5c0-1,0.4-1.7,1.3-1.7
		c0.7,0,1,0.5,1,1.3v3.8h2V30.1z"/>
	<path class="st0" d="M70,20.8V18h1.6l0.2-1.3H70v-2.8l-2,0.8v2h-2.8v-2.8l-2,0.8v2h-1.1V18h1.1v3.4c0,1.6,0.7,2.2,2.2,2.2
		c0.4,0,1-0.1,1.3-0.2l0.2-1.2c-0.2,0.1-0.4,0.1-0.7,0.1c-0.5,0-1-0.3-1-1.5V18H68v3.4c0,1.6,0.7,2.2,2.2,2.2c0.4,0,1-0.1,1.3-0.2
		l0.2-1.2c-0.2,0.1-0.4,0.1-0.7,0.1C70.5,22.3,70,22,70,20.8"/>
	<path class="st0" d="M72.9,30.8c-0.8-0.3-1.5-0.4-1.5-0.9c0-0.4,0.3-0.6,1-0.6c0.7,0,1.3,0.2,1.8,0.4l0.4-1.3
		c-0.3-0.2-1.1-0.5-2.2-0.5c-1.6,0-2.7,0.8-2.7,2.1c0,1,0.6,1.5,1.6,2c1,0.5,1.7,0.6,1.7,1c0,0.4-0.4,0.6-1.2,0.6
		c-0.8,0-1.5-0.4-1.8-0.5l-0.5,1.4c0.5,0.2,1.2,0.5,2.3,0.5c1.8,0,2.8-0.7,2.8-2.1C74.8,31.7,74,31.2,72.9,30.8"/>
	<path class="st0" d="M86.9,29.7l0.5-1.7C87.2,28,87,28,86.8,28c-0.7,0-1.6,0.5-1.9,1.3v-1.1h-2v6.7h2v-3.7
		C84.8,30.2,85.9,29.5,86.9,29.7"/>
	<path class="st0" d="M33.6,18.5H33v-2.9h0.6c1.2,0,1.8,0.5,1.8,1.4C35.4,18,34.8,18.5,33.6,18.5 M38,23.5l-2.7-3.9
		c1.4-0.3,2.2-1.5,2.2-2.7c0-2.3-2.4-2.7-3.8-2.7h-2.9v9.3H33v-3.9l2.7,3.9H38z"/>
	<path class="st0" d="M33.7,33.4H33v-2.7h0.8c1.3,0,1.6,0.7,1.6,1.3C35.3,32.6,35.1,33.4,33.7,33.4 M33,27h0.5
		c1.2,0,1.5,0.7,1.5,1.2c0,0.8-0.5,1.3-1.6,1.3H33V27z M30.9,25.5v9.3h2.9c2.4,0,3.7-0.9,3.7-2.5c0-1.4-0.7-2.2-2.1-2.4
		c1-0.3,1.7-1.1,1.7-2.2c0-1.4-1.1-2.2-3.2-2.2H30.9z"/>
	<path class="st0" d="M61.2,13.9v2.3c-0.7-0.7-1.3-1.1-2.2-1.4L61.2,13.9z"/>
	<polygon class="st0" points="58.5,23.5 55.8,19.5 58.3,16.8 56.1,16.8 54,19.3 54,13.9 52,14.7 52,23.5 54,23.5 54,21.5 54.5,20.9 
		56.2,23.5 	"/>
	<polygon class="st0" points="65.7,34.8 63.1,30.8 65.6,28.1 63.3,28.1 61.2,30.7 61.2,25.3 59.2,26.1 59.2,34.8 61.2,34.8 
		61.2,32.8 61.8,32.2 63.5,34.8 	"/>
</g>
<path class="st0" d="M26,8.5c-0.8,0-1.7,0.9-2,2c-0.3,1.1,0.3,2,1.1,2c0.4,0,0.9-0.3,1.2-0.7l0,0c0.3-0.4,0.5-0.8,0.6-1.3
	C27.3,9.4,26.8,8.5,26,8.5"/>
<path class="st0" d="M24.6,14.3c-1.4-0.1-2.9-1.2-2.4-3.8l1.2-6.9L7.6,0c4.8,3.4,8.1,7.1,9.5,11.9l0.8-4.8h1.9l-0.2,1.1
	C20.2,7.4,21,6.9,22.1,7l-0.3,1.6c-1.1-0.1-2.3,0.3-2.5,1.6l-0.7,3.9h-1c0.4,2.5,0.3,5.2-0.3,8.4L24.6,14.3z"/>
<path class="st0" d="M25.3,3.9l-0.7,4.2C25.3,7.3,26.1,7,26.9,7c1.2,0,2.1,0.8,2.1,2.3l3.4-3.8L25.3,3.9z"/>
</svg>
