<?xml version="1.0" encoding="utf-8"?>
<!-- Generator: Adobe Illustrator 26.0.1, SVG Export Plug-In . SVG Version: 6.00 Build 0)  -->
<svg version="1.1" id="Layer_1" xmlns="http://www.w3.org/2000/svg" xmlns:xlink="http://www.w3.org/1999/xlink" x="0px" y="0px"
	 viewBox="0 0 95 35" style="enable-background:new 0 0 95 35;" xml:space="preserve">
<style type="text/css">
	.st0{fill:#FFFFFF;}
	.st1{fill-rule:evenodd;clip-rule:evenodd;fill:#FFFFFF;}
</style>
<path class="st0" d="M56.5,35h-18v-7h18V35z M38.9,34.9h17.3v-6.9H38.9V34.9z"/>
<path class="st0" d="M56.5,16.9h-18V0h18V16.9z M38.9,16.8h17.3V0.2H38.9V16.8z"/>
<path class="st1" d="M47.1,3.7h0.9c0,0-0.1-0.1-0.1-0.1c-0.2-0.2-0.1-0.3-0.1-0.4c0.1-0.1,0.2,0,0.4,0.2c0,0,0.1,0.1,0.1,0.1V2.5
	c0,0-0.1,0.1-0.1,0.1c-0.2,0.2-0.3,0.2-0.4,0.2c-0.1-0.1,0-0.2,0.2-0.4c0,0,0.1-0.1,0.1-0.1H47c0,0,0.1,0.1,0.1,0.1
	c0.2,0.2,0.2,0.3,0.2,0.4c-0.1,0.1-0.2,0-0.4-0.2c0,0-0.1-0.1-0.1-0.1v1.1c0,0,0.1-0.1,0.1-0.1c0.2-0.2,0.3-0.2,0.4-0.2
	c0.1,0.1,0.1,0.2-0.1,0.4C47.1,3.7,47.1,3.7,47.1,3.7L47.1,3.7z"/>
<path class="st1" d="M46.6,4.9c0.1,0.4,0.4,0.7,0.9,0.7c0.4,0,0.8-0.3,0.9-0.7H46.6L46.6,4.9z"/>
<path class="st1" d="M48.4,4.6c-0.1-0.4-0.4-0.6-0.7-0.7v0.7H48.4L48.4,4.6z"/>
<path class="st1" d="M47.3,3.9c-0.3,0.1-0.6,0.4-0.7,0.7h0.7V3.9L47.3,3.9z"/>
<path class="st1" d="M47.2,6c0-0.2,0.1-0.3,0.3-0.3c0.1,0,0.3,0.1,0.3,0.3c0,0.2-0.1,0.3-0.3,0.3C47.4,6.3,47.2,6.2,47.2,6L47.2,6z"
	/>
<path class="st1" d="M47.2,6.7c0-0.2,0.1-0.3,0.3-0.3c0.1,0,0.3,0.1,0.3,0.3c0,0.2-0.1,0.3-0.3,0.3C47.4,7,47.2,6.9,47.2,6.7
	L47.2,6.7z"/>
<path class="st1" d="M47.2,7.4c0-0.2,0.1-0.3,0.3-0.3c0.1,0,0.3,0.1,0.3,0.3c0,0.2-0.1,0.3-0.3,0.3C47.4,7.7,47.2,7.6,47.2,7.4
	L47.2,7.4z"/>
<path class="st1" d="M47.2,8.1c0-0.2,0.1-0.3,0.3-0.3c0.1,0,0.3,0.1,0.3,0.3c0,0.2-0.1,0.3-0.3,0.3C47.4,8.4,47.2,8.2,47.2,8.1
	L47.2,8.1z"/>
<path class="st1" d="M47.2,9.6c0-0.2,0.1-0.3,0.3-0.3c0.2,0,0.3,0.1,0.3,0.3c0,0.2-0.1,0.3-0.3,0.3C47.3,9.9,47.2,9.8,47.2,9.6
	L47.2,9.6z"/>
<path class="st1" d="M52,10.5c0.1,0,0.2-0.1,0.3-0.3c0.1-0.2,0-0.4-0.1-0.4c-0.1,0-0.2,0.1-0.3,0.3C51.9,10.3,51.9,10.5,52,10.5
	L52,10.5z"/>
<path class="st1" d="M43,10.5c-0.1,0-0.2-0.1-0.3-0.3c-0.1-0.2,0-0.4,0.1-0.4c0.1,0,0.2,0.1,0.3,0.3C43.1,10.3,43.1,10.5,43,10.5
	L43,10.5z"/>
<path class="st1" d="M48.5,5.3c0-0.2,0.2-0.4,0.4-0.4c0.2,0,0.4,0.2,0.4,0.4c0,0.2-0.2,0.4-0.4,0.4C48.7,5.7,48.5,5.6,48.5,5.3
	L48.5,5.3z"/>
<path class="st1" d="M49.4,4.9c0-0.2,0.2-0.4,0.4-0.4c0.2,0,0.4,0.2,0.4,0.4c0,0.2-0.2,0.4-0.4,0.4C49.6,5.3,49.4,5.2,49.4,4.9
	L49.4,4.9z"/>
<path class="st1" d="M50.4,4.6c0-0.2,0.2-0.4,0.4-0.4c0.2,0,0.4,0.2,0.4,0.4C51.2,4.8,51,5,50.8,5C50.6,5,50.4,4.8,50.4,4.6
	L50.4,4.6z"/>
<path class="st1" d="M51.4,4.6c0-0.2,0.2-0.4,0.4-0.4c0.2,0,0.4,0.2,0.4,0.4C52.2,4.8,52,5,51.8,5C51.6,5,51.4,4.8,51.4,4.6
	L51.4,4.6z"/>
<path class="st1" d="M52.3,5c0-0.2,0.2-0.4,0.4-0.4c0.2,0,0.4,0.2,0.4,0.4c0,0.2-0.2,0.4-0.4,0.4C52.5,5.4,52.3,5.2,52.3,5L52.3,5z"
	/>
<path class="st1" d="M52.9,5.7c0-0.2,0.2-0.4,0.4-0.4c0.2,0,0.4,0.2,0.4,0.4c0,0.2-0.2,0.4-0.4,0.4C53.1,6.1,52.9,6,52.9,5.7
	L52.9,5.7z"/>
<path class="st1" d="M53.2,6.7c0-0.2,0.2-0.4,0.4-0.4c0.2,0,0.4,0.2,0.4,0.4c0,0.2-0.2,0.4-0.4,0.4C53.4,7.1,53.2,6.9,53.2,6.7
	L53.2,6.7z"/>
<path class="st1" d="M53.1,7.7c0-0.2,0.2-0.4,0.4-0.4c0.2,0,0.4,0.2,0.4,0.4c0,0.2-0.2,0.4-0.4,0.4C53.3,8.1,53.1,7.9,53.1,7.7
	L53.1,7.7z"/>
<path class="st1" d="M52.9,8.7c0-0.2,0.2-0.4,0.4-0.4c0.2,0,0.4,0.2,0.4,0.4c0,0.2-0.2,0.4-0.4,0.4C53,9.1,52.9,8.9,52.9,8.7
	L52.9,8.7z"/>
<path class="st1" d="M45.7,5.3c0-0.2,0.2-0.4,0.4-0.4c0.2,0,0.4,0.2,0.4,0.4c0,0.2-0.2,0.4-0.4,0.4C45.9,5.7,45.7,5.6,45.7,5.3
	L45.7,5.3z"/>
<path class="st1" d="M44.8,4.9c0-0.2,0.2-0.4,0.4-0.4c0.2,0,0.4,0.2,0.4,0.4c0,0.2-0.2,0.4-0.4,0.4C45,5.3,44.8,5.2,44.8,4.9
	L44.8,4.9z"/>
<path class="st1" d="M43.8,4.6c0-0.2,0.2-0.4,0.4-0.4c0.2,0,0.4,0.2,0.4,0.4c0,0.2-0.2,0.4-0.4,0.4C44,5,43.8,4.8,43.8,4.6L43.8,4.6
	z"/>
<path class="st1" d="M42.8,4.6c0-0.2,0.2-0.4,0.4-0.4c0.2,0,0.4,0.2,0.4,0.4c0,0.2-0.2,0.4-0.4,0.4C43,5,42.8,4.8,42.8,4.6L42.8,4.6
	z"/>
<path class="st1" d="M41.9,5c0-0.2,0.2-0.4,0.4-0.4c0.2,0,0.4,0.2,0.4,0.4c0,0.2-0.2,0.4-0.4,0.4C42.1,5.4,41.9,5.2,41.9,5L41.9,5z"
	/>
<path class="st1" d="M41.3,5.7c0-0.2,0.2-0.4,0.4-0.4c0.2,0,0.4,0.2,0.4,0.4c0,0.2-0.2,0.4-0.4,0.4C41.4,6.1,41.3,6,41.3,5.7
	L41.3,5.7z"/>
<path class="st1" d="M41,6.7c0-0.2,0.2-0.4,0.4-0.4c0.2,0,0.4,0.2,0.4,0.4c0,0.2-0.2,0.4-0.4,0.4C41.2,7.1,41,6.9,41,6.7L41,6.7z"/>
<path class="st1" d="M41.1,7.7c0-0.2,0.2-0.4,0.4-0.4c0.2,0,0.4,0.2,0.4,0.4c0,0.2-0.2,0.4-0.4,0.4C41.3,8.1,41.1,7.9,41.1,7.7
	L41.1,7.7z"/>
<path class="st1" d="M41.3,8.7c0-0.2,0.2-0.4,0.4-0.4c0.2,0,0.4,0.2,0.4,0.4c0,0.2-0.2,0.4-0.4,0.4C41.5,9.1,41.3,8.9,41.3,8.7
	L41.3,8.7z"/>
<path class="st1" d="M44,9c-0.1,0.1-0.2,0.5,0.2,0.9c0.1-0.2,0.2-0.2,0.3-0.2c0.1,0,0.2,0.1,0.2,0.2l0.6,0c0-0.2,0.1-0.3,0.2-0.3
	c0.1,0,0.2,0,0.3,0.2C46,9.5,46,9.2,45.9,9l0.6,0v1.3c0.3-0.5,0.7-0.6,0.7-0.1c0,0.4-0.4,0.8-0.8,0.8c-0.4,0-0.7-0.2-1-0.7l-0.6,0
	c-0.1,0.4-0.7,0.7-1.2,0.5c-0.3-0.1-0.4-0.2-0.4-0.4c0.1-0.2,0.3,0,0.5,0c0,0-0.2-0.8-0.4-1.2c0,0.1-0.2,0.5-0.4,0.3
	c-0.1-0.1,0-0.3,0.1-0.7L44,9L44,9z M44.5,9c0,0.1,0.1,0.2,0.1,0.3c-0.1-0.1-0.2-0.2-0.3-0.3L44.5,9L44.5,9z M45.4,9
	c-0.1,0.1-0.1,0.2-0.2,0.2c0-0.1,0-0.2,0-0.2L45.4,9L45.4,9z M47.1,9c0.1,0.1,0.1,0.2,0,0.3c-0.1,0.1-0.3,0-0.5-0.2c0,0,0,0-0.1-0.1
	H47.1L47.1,9z M48.5,9C48.4,9,48.4,9.1,48.5,9c-0.3,0.3-0.5,0.4-0.6,0.3c-0.1,0,0-0.2,0-0.3L48.5,9L48.5,9z M49.1,9
	c-0.1,0.2-0.1,0.5,0,0.8c0.1-0.1,0.2-0.2,0.3-0.2c0.1,0,0.2,0.1,0.2,0.3l0.6,0c0-0.2,0.1-0.2,0.2-0.2c0.1,0,0.2,0,0.3,0.2
	C51.2,9.6,51.1,9.1,51,9h1c0.1,0.4,0.2,0.6,0.1,0.7c-0.2,0.1-0.3-0.2-0.4-0.3c-0.1,0.4-0.4,1.2-0.4,1.2c0.2-0.1,0.4-0.2,0.5,0
	c0.1,0.2-0.1,0.3-0.4,0.4c-0.5,0.2-1.1-0.2-1.2-0.5l-0.6,0c-0.3,0.5-0.6,0.7-1,0.7c-0.4,0-0.9-0.4-0.8-0.8c0-0.4,0.5-0.4,0.7,0.1V9
	H49.1L49.1,9z M49.8,9c0,0.1,0,0.2,0,0.2c0-0.1-0.1-0.2-0.2-0.2L49.8,9L49.8,9z M50.7,9c-0.1,0-0.2,0.1-0.3,0.3
	c0.1-0.1,0.1-0.2,0.1-0.3L50.7,9L50.7,9z"/>
<path class="st1" d="M43,9c0-0.1,0.1-0.2,0.1-0.2L42.5,9c0,0-0.5-0.7-0.5-1.9C41.9,5.3,43.1,5,43.6,5c0.6,0,0.8,0.1,1.4,0.3
	c0.5,0.2,0.9,0.5,1.9,0.6l-0.1,0.5c-1,0-2-0.7-3-0.8c-1.1,0-1.2,1.1-1.2,1.4c0,0.3,0,0.7,0.3,1.2c0-0.3,0.2-1.1,0.5-1.2
	C44.2,6.8,45,7.1,45,7.1c0.9-0.3,1.7-0.3,1.7-0.3l0-1.1l0.4-0.2v2.9h0.9V5.5l0.4,0.2l0,1.1c0,0,0.8,0,1.7,0.3c0,0,0.8-0.3,1.6,0.1
	c0.3,0.1,0.5,1,0.5,1.2c0.2-0.5,0.2-0.8,0.3-1.2c0-0.3-0.1-1.4-1.2-1.4c-1,0-2,0.8-3,0.8L48.1,6c1-0.1,1.4-0.4,1.9-0.6
	C50.6,5.2,50.8,5,51.4,5c0.5,0,1.7,0.3,1.7,2.1C53,8.3,52.5,9,52.5,9l-0.6-0.2c0,0.1,0.1,0.2,0.1,0.2l-1,0c0,0,0,0,0,0
	c-0.1,0-0.2,0-0.3,0l-0.2,0c0.2-0.6,0.1-1.1-0.3-1.4c-0.5,0.5-0.6,0.7-0.5,1.4l-0.1,0c-0.1-0.1-0.2-0.2-0.3-0.1
	c-0.1,0-0.2,0.1-0.2,0.1l-0.6,0V8.9c0,0,0,0-0.1,0.1h-0.5c0-0.1,0.1-0.1,0.2-0.2c0.1,0,0.1-0.1,0.1-0.1h-1.5c0.1,0,0.1,0.1,0.1,0.1
	C47,8.9,47.1,8.9,47.1,9l-0.5,0c0,0,0,0-0.1-0.1V9h-0.6c0-0.1-0.1-0.1-0.2-0.1c-0.1,0-0.2,0.1-0.3,0.1l-0.1,0c0.1-0.7,0-0.9-0.5-1.4
	c-0.4,0.3-0.5,0.8-0.3,1.4l-0.2,0c-0.1-0.1-0.2,0-0.3,0c0,0,0,0,0,0H43L43,9z"/>
<path class="st1" d="M51.8,11.7l0.1-0.7c0,0-0.3,0.3-0.8,0.3c-0.5,0-0.9-0.4-1.1-0.6c0-0.1-0.1-0.1-0.1,0c-0.3,0.4-0.6,0.7-1.3,0.7
	c-0.7,0-1-0.5-1.1-0.6c-0.1,0.1-0.4,0.6-1.1,0.6c-0.7,0-1-0.3-1.3-0.7c0-0.1-0.1-0.1-0.1,0c-0.2,0.3-0.6,0.6-1.1,0.6
	c-0.5,0-0.8-0.3-0.8-0.3l0.1,0.7H51.8L51.8,11.7z"/>
<path class="st1" d="M43.4,13.8c-0.3,0-0.6-0.2-0.6-0.5c0-0.3,0.2-0.5,0.6-0.5h8.2c0.3,0,0.6,0.2,0.6,0.5c0,0.3-0.2,0.5-0.6,0.5
	H43.4L43.4,13.8z"/>
<polygon class="st1" points="44,12.5 44,11.9 43.2,11.9 43,12.2 43.2,12.5 44,12.5 "/>
<path class="st1" d="M44.6,12.2c0-0.2,0.3-0.3,0.6-0.3c0.4,0,0.6,0.1,0.6,0.3c0,0.2-0.3,0.3-0.6,0.3C44.9,12.5,44.6,12.4,44.6,12.2
	L44.6,12.2z"/>
<polygon class="st1" points="51,12.5 51,11.9 51.8,11.9 52,12.2 51.8,12.5 51,12.5 "/>
<path class="st1" d="M49.1,12.2c0-0.2,0.3-0.3,0.6-0.3c0.4,0,0.6,0.1,0.6,0.3c0,0.2-0.3,0.3-0.6,0.3C49.4,12.5,49.1,12.4,49.1,12.2
	L49.1,12.2z"/>
<polygon class="st1" points="46.7,11.9 48.3,11.9 48.3,12.5 46.7,12.5 46.7,11.9 "/>
<g>
	<path class="st1" d="M67.4,18.7c-0.1,0-0.2,0.1-0.2,0.2c0,0.1,0.1,0.2,0.2,0.2c0.1,0,0.2-0.1,0.2-0.2
		C67.6,18.8,67.5,18.7,67.4,18.7z"/>
	<path class="st1" d="M62.2,21.7c-0.3,0.3-0.5,0.7-0.5,1.1s0.2,0.8,0.5,1.1c0.3,0.3,0.7,0.5,1.1,0.5c0.9,0,1.5-0.7,1.5-1.6v-1.6
		h-1.5C62.8,21.2,62.4,21.4,62.2,21.7z"/>
	<path class="st1" d="M32.6,20.4c-1.3,0-2.3,1-2.3,2.3c0,0.6,0.2,1.2,0.7,1.6c0.4,0.4,1,0.7,1.6,0.7c0.6,0,1.2-0.2,1.6-0.7
		c0.4-0.4,0.7-1,0.7-1.6c0-0.6-0.2-1.2-0.7-1.6C33.8,20.7,33.2,20.4,32.6,20.4z M32.6,24.8c-0.6,0-1.1-0.2-1.5-0.6
		c-0.4-0.4-0.6-0.9-0.6-1.5c0-0.6,0.2-1.1,0.6-1.5c0.4-0.4,0.9-0.6,1.5-0.6c0.6,0,1.1,0.2,1.5,0.6c0.4,0.4,0.6,0.9,0.6,1.5
		C34.7,23.9,33.8,24.8,32.6,24.8z"/>
	<path class="st1" d="M42.8,21.7c-0.3,0.3-0.5,0.7-0.5,1.1s0.2,0.8,0.5,1.1c0.3,0.3,0.7,0.5,1.1,0.5c0.9,0,1.5-0.7,1.5-1.6v-1.6
		h-1.5C43.5,21.2,43.1,21.4,42.8,21.7z"/>
	<path class="st1" d="M32.6,21.1c-0.4,0-0.8,0.2-1.1,0.5c-0.3,0.3-0.5,0.7-0.5,1.2c0,0.4,0.2,0.8,0.5,1.2c0.3,0.3,0.7,0.5,1.1,0.5
		c0.9,0,1.6-0.7,1.6-1.6c0-0.4-0.2-0.8-0.5-1.2C33.5,21.3,33.1,21.1,32.6,21.1z"/>
	<path class="st1" d="M21.6,16.2V29h51.9V16.2H21.6z M54,18.4l1.9,4.1l1.9-4.1h0.5l-2.4,5.3l-2.4-5.3H54z M36.6,20.1h0.5v2.7
		c0,0.3,0.1,0.6,0.3,0.8c0.2,0.2,0.5,0.3,0.8,0.3c0.6,0,1.1-0.6,1.1-1.2v-2.6h0.5v2.6c0,0.9-0.7,1.7-1.6,1.7c-0.4,0-0.8-0.2-1.1-0.5
		c-0.3-0.3-0.5-0.7-0.5-1.1V20.1z M28.5,25.3l-2.4-3.4h1.3c0.7,0,1.1-0.7,1.1-1.2c0-0.3-0.1-0.6-0.3-0.8c-0.2-0.2-0.5-0.3-0.8-0.3
		h-1.3v5.8h-0.5v-6.3h1.7c0.4,0,0.8,0.2,1.1,0.4c0.3,0.3,0.5,0.7,0.5,1.2c0,0.7-0.6,1.7-1.6,1.7H27l2.1,3H28.5z M29.3,25.3l-1.9-2.8
		c0.4,0,0.8-0.2,1.2-0.5c0.4-0.4,0.6-0.9,0.6-1.4c0-0.5-0.2-0.9-0.5-1.3c-0.3-0.3-0.8-0.5-1.2-0.5h-1.9v6.5h-0.5v-6.9h2.4
		c0.6,0,1.2,0.2,1.6,0.6c0.4,0.4,0.7,1,0.7,1.6c0,0.6-0.3,1.3-0.7,1.7c-0.2,0.2-0.4,0.4-0.7,0.5l1.7,2.5H29.3z M34.6,24.7
		c-0.5,0.5-1.2,0.8-1.9,0.8c-0.7,0-1.4-0.3-1.9-0.8c-0.5-0.5-0.8-1.2-0.8-2c0-1.5,1.2-2.8,2.7-2.8c0.7,0,1.4,0.3,1.9,0.8
		c0.5,0.5,0.8,1.2,0.8,2C35.4,23.5,35.1,24.2,34.6,24.7z M36,20.1h0.5v2.7c0,0.5,0.2,0.9,0.5,1.3c0.3,0.3,0.8,0.5,1.3,0.5
		c0.5,0,0.9-0.2,1.2-0.5c0.2-0.2,0.3-0.3,0.4-0.5V25c0,0.9-0.7,1.6-1.6,1.6c-0.4,0-0.8-0.2-1.1-0.5c-0.2-0.2-0.3-0.5-0.4-0.7h0.5
		c0.1,0.2,0.1,0.3,0.3,0.4c0.2,0.2,0.5,0.3,0.8,0.3c0.6,0,1.1-0.5,1.1-1.1v-0.2c-0.3,0.2-0.7,0.3-1.1,0.3c-0.6,0-1.2-0.2-1.6-0.7
		c-0.4-0.4-0.7-1-0.7-1.6V20.1z M40.5,25c0,0.6-0.2,1.2-0.7,1.6c-0.4,0.4-1,0.7-1.6,0.7c-0.6,0-1.2-0.2-1.6-0.7
		c-0.3-0.3-0.5-0.8-0.6-1.2h0.5c0.1,0.3,0.2,0.6,0.5,0.9c0.3,0.3,0.8,0.5,1.3,0.5c0.5,0,0.9-0.2,1.3-0.5c0.3-0.3,0.5-0.8,0.5-1.3
		v-4.8h0.5V25z M45.9,22.8c0,1.1-0.9,2-2,2c-0.5,0-1-0.2-1.4-0.6c-0.4-0.4-0.6-0.9-0.6-1.4c0-0.5,0.2-1.1,0.6-1.4
		c0.4-0.4,0.9-0.6,1.4-0.6h2V22.8z M46.6,25.4h-0.5v-4.8h-2.2c-1.2,0-2.2,1-2.2,2.2c0,0.6,0.2,1.2,0.6,1.6c0.4,0.4,1,0.7,1.6,0.7
		c0.6,0,1.1-0.2,1.6-0.7c0.2-0.2,0.4-0.4,0.5-0.7v1.7h-0.5V25c-0.5,0.3-1,0.5-1.5,0.5c-0.7,0-1.4-0.3-1.9-0.8
		c-0.5-0.5-0.8-1.2-0.8-1.9c0-1.5,1.2-2.7,2.7-2.7h2.7V25.4z M48,25.4h-0.5v-6.9H48V25.4z M48.6,25.4h-0.5v-6.9h0.5V25.4z
		 M51.6,25.4l1.2-6.9h0.5L52,25.4H51.6z M59.1,25.4l-0.9-5.1l-2.3,5l-2.3-5l-0.9,5.1h-0.5l1.2-6.7l2.5,5.5l2.5-5.5l1.2,6.7H59.1z
		 M59.8,25.4l-1.2-6.9H59l1.2,6.9H59.8z M65.3,22.8c0,1.1-0.9,2-2,2c-0.5,0-1-0.2-1.4-0.6c-0.4-0.4-0.6-0.9-0.6-1.4
		c0-0.5,0.2-1.1,0.6-1.4c0.4-0.4,0.9-0.6,1.4-0.6h2V22.8z M65.9,25.4h-0.5v-4.8h-2.2c-1.2,0-2.2,1-2.2,2.2c0,0.6,0.2,1.2,0.6,1.6
		c0.4,0.4,1,0.7,1.6,0.7c0.6,0,1.1-0.2,1.6-0.7c0.2-0.2,0.4-0.4,0.5-0.7v1.7h-0.5V25c-0.5,0.3-1,0.5-1.5,0.5c-0.7,0-1.4-0.3-1.9-0.8
		c-0.5-0.5-0.8-1.2-0.8-1.9c0-1.5,1.2-2.7,2.7-2.7h2.7V25.4z M67.3,25.4h-0.5v-5.2h0.5V25.4z M68,25.4h-0.5v-5.2H68V25.4z
		 M67.4,19.5c-0.3,0-0.6-0.3-0.6-0.6c0-0.3,0.3-0.6,0.6-0.6c0.3,0,0.6,0.3,0.6,0.6C68,19.3,67.8,19.5,67.4,19.5z M69.5,25.4H69v-6.9
		h0.5V25.4z M70.1,25.4h-0.5v-6.9h0.5V25.4z"/>
</g>
</svg>
