<?xml version="1.0" encoding="utf-8"?>
<!-- Generator: Adobe Illustrator 26.0.1, SVG Export Plug-In . SVG Version: 6.00 Build 0)  -->
<svg version="1.1" id="Layer_1" xmlns="http://www.w3.org/2000/svg" xmlns:xlink="http://www.w3.org/1999/xlink" x="0px" y="0px"
	 viewBox="0 0 95 35" style="enable-background:new 0 0 95 35;" xml:space="preserve">
<style type="text/css">
	.st0{fill:#CCCCCC;}
	.st1{fill:#CCCCCC;stroke:#CCCCCC;stroke-width:7.4409;stroke-miterlimit:55.8208;}
</style>
<g>
	<path class="st0" d="M0,6.8v11.1h3.7V8.3h0.4c0.9,0,1.7,0.7,1.7,2c0,1.3-0.5,2.1-1.9,2.1H3.9l2.6,5.4h4.1L7.4,13
		c1.4-0.4,2.1-1.4,2.1-2.8c0-2.1-1.8-3.4-3.7-3.4H0z M18.2,13.2v-1.6h-3.5V9.4c0-0.6,0.2-1,0.7-1h3.2V6.8h-5.1
		c-1.3,0-2.5,0.9-2.5,2.4v6.5c0,1.4,0.9,2.2,2,2.2h5.7v-1.6h-3.1c-0.6,0-0.9-0.3-0.9-0.8v-2.3H18.2z M28.9,16.1V6.8H27v5.5H27
		l-2.7-4.2c-0.6-0.9-1.1-1.4-2.2-1.4c-1.7,0-1.9,1.2-1.9,2.1v9.1h1.8v-7.1h0.1l3.9,6.3c0.4,0.6,0.8,0.9,1.5,0.9
		C28.7,18,28.9,17.1,28.9,16.1 M40.7,8.4h2.5V6.8h-3.5c-2.2,0-3.8,1.2-3.8,3.6c0,2.1,1.3,2.7,2.7,3.1l1,0.2c0.3,0.1,0.6,0.2,0.9,0.3
		c0.5,0.2,0.8,0.5,0.8,1c0,1.3-0.7,1.3-1.7,1.3h-3.1v1.6h4c2.3,0,4-1.3,4-3.9c0-2.2-1.2-2.9-2.5-3.2L41,10.5
		c-0.3-0.1-0.6-0.1-0.8-0.2c-0.5-0.2-0.8-0.4-0.8-1C39.4,8.5,40.1,8.4,40.7,8.4 M30.9,17.9h3.7V6.8h-3.7L30.9,17.9z M69.3,6.8h-3.7
		l2.6,9.2c0.4,1.3,1,2,2.4,2c1.4,0,2.1-1,2.4-2.2l1-3.9h0.1l1,4.2c0.3,1.3,1.1,1.9,2.5,1.9c0.9,0,1.6-0.2,1.8-1.2l3.1-10h-1.9
		l-2.3,8.1h-0.1l-2.1-8.1h-3.7l0.6,2.4l-1.6,5.6h-0.1L69.3,6.8z M81.7,16.6h-0.3v-0.5h0.3c0.2,0,0.3,0,0.3,0.2
		C82.1,16.6,81.9,16.6,81.7,16.6 M81.5,17.4v-0.6h0.3l0.4,0.6h0.3L82,16.7c0.2,0,0.4-0.1,0.4-0.4c0-0.3-0.2-0.4-0.5-0.4h-0.6v1.5
		H81.5z M81.7,17.7c-0.6,0-1-0.5-1-1.1c0-0.6,0.5-1.1,1-1.1c0.6,0,1,0.5,1,1.1C82.8,17.3,82.3,17.7,81.7,17.7 M80.4,16.7
		c0,0.7,0.6,1.3,1.3,1.3c0.7,0,1.3-0.5,1.3-1.3c0-0.7-0.6-1.3-1.3-1.3C81,15.4,80.4,15.9,80.4,16.7 M56.4,17.9h1.7l0.7-2h3.8l0.6,2
		h3.7l-3-9.1c-0.4-1.1-0.8-2.1-2.2-2.1c-1.5,0-2,0.9-2.4,2.2L56.4,17.9z M45.7,17.9h3.7v-5.6h2.5v5.6h3.7V6.8h-3.7v3.9h-2.5V6.8
		h-3.7L45.7,17.9z M59.3,14.3l1.4-4.5h0.1l1.3,4.5H59.3z"/>
	<path class="st0" d="M95,17.8H84.3V6.9H95V17.8z M84.3,17.7h10.6V7H84.3V17.7z"/>
	<path class="st0" d="M89.7,16.7C89.6,16.7,89.6,16.7,89.7,16.7L89.7,16.7c-1.4,0-2.5-0.4-3.4-1c-0.9-0.6-1.3-1.4-1.3-2.2
		c0-0.7,0.3-1.3,0.8-1.9c0.8-0.8,2.2-1.2,3.9-1.2c2.6,0,4.8,1.4,4.8,3.1c0,0.7-0.3,1.4-0.8,1.9C92.7,16.2,91.3,16.7,89.7,16.7z
		 M89.6,16.6C89.6,16.6,89.6,16.6,89.6,16.6c1.7,0,3.1-0.4,3.9-1.3c0.5-0.5,0.8-1.2,0.8-1.9c0-1.6-2.1-3-4.7-3c-1.7,0-3,0.4-3.8,1.2
		c-0.5,0.5-0.8,1.1-0.8,1.8c0,0.8,0.5,1.6,1.3,2.2C87.1,16.3,88.3,16.6,89.6,16.6L89.6,16.6z"/>
	<path class="st0" d="M93,15.7c0,0-1.4-1.2-3.5-1.2c0,0-0.1,0-0.1,0c-1.9,0-3.2,1-3.2,1.1l0,0c0,0,1.3-1.1,3.2-1.1c0,0,0.1,0,0.1,0
		C91.6,14.5,93,15.7,93,15.7L93,15.7z"/>
	<rect x="88.8" y="10.5" class="st0" width="0" height="3.9"/>
	<rect x="87.8" y="10.6" class="st0" width="0" height="4.1"/>
	<rect x="87.3" y="10.8" class="st0" width="0" height="4.1"/>
	<rect x="86.4" y="11.1" class="st0" width="0.1" height="4.3"/>
	<rect x="88.3" y="10.6" class="st0" width="0" height="4"/>
	<path class="st0" d="M85.8,11.7c0,0-1.7,1.7,0,3.5L85.8,11.7L85.8,11.7z"/>
	<path class="st0" d="M85.8,15.3L85.8,15.3c-1.8-1.9-0.1-3.6-0.1-3.6l0,0v0h0.1V15.3z M85.8,11.7c-0.2,0.2-1.5,1.8,0,3.4V11.7z"/>
	<path class="st1" d="M0,6.7"/>
	<rect x="86" y="11.3" class="st0" width="0.1" height="4.1"/>
	<rect x="86.9" y="10.8" class="st0" width="0" height="4.3"/>
	<path class="st0" d="M10.3,26.1c-0.6,0-0.9-0.5-0.9-1.1c0-0.6,0.2-1.2,0.8-1.2c0.6,0,0.8,0.6,0.8,1.2C11.1,25.4,11,26.1,10.3,26.1
		 M9.4,23.6V23H8.5v5.2h1v-2h0c0.1,0.2,0.4,0.6,1.1,0.6c1.1,0,1.6-1,1.6-2c0-1.3-0.7-1.9-1.6-1.9C9.9,22.9,9.6,23.3,9.4,23.6
		L9.4,23.6z M37.7,26.8L39,23H38l-0.8,2.8h0L36.4,23h-1.1l1.4,3.8H37.7z M30.4,26.8v-2.6c0-0.8-0.6-1.3-1.3-1.3
		c-0.7,0-1,0.4-1.1,0.7h0V23h-1v3.8h1v-2.2c0-0.6,0.3-0.9,0.8-0.9c0.6,0,0.6,0.5,0.6,0.7v2.3H30.4z M20.7,26.8h1V23h-1V26.8z
		 M20.7,22.6h1v-0.9h-1V22.6z M16.9,26.7l1.3-3.7h-1l-0.8,2.8h0L15.5,23h-1.1l1.4,3.9c-0.1,0.5-0.3,0.6-0.7,0.6l-0.2,0v0.8l0.4,0
		C16.3,28.3,16.4,28.1,16.9,26.7 M6,26.1c-0.6,0-0.9-0.5-0.9-1.1c0-0.6,0.2-1.2,0.8-1.2c0.6,0,0.8,0.6,0.8,1.2
		C6.8,25.4,6.6,26.1,6,26.1 M5.1,23.6V23H4.2v5.2h1v-2h0c0.1,0.2,0.4,0.6,1.1,0.6c1.1,0,1.6-1,1.6-2c0-1.3-0.7-1.9-1.6-1.9
		C5.6,22.9,5.3,23.3,5.1,23.6L5.1,23.6z M2.3,25v0.5c0,0.5-0.4,0.7-0.9,0.7c-0.2,0-0.5-0.1-0.5-0.5c0-0.4,0.3-0.5,0.7-0.6
		C2.1,25.1,2.2,25.1,2.3,25 M3.3,26.1v-2c0-0.9-1-1.1-1.5-1.1c-0.8,0-1.6,0.2-1.7,1.3h1c0-0.2,0.1-0.5,0.6-0.5c0.3,0,0.7,0,0.7,0.4
		c0,0.2-0.2,0.3-0.3,0.3l-0.9,0.1C0.5,24.7,0,25.1,0,25.8c0,0.8,0.6,1.1,1.1,1.1c0.7,0,1-0.3,1.2-0.5c0,0.2,0,0.3,0.1,0.4h1.1v-0.1
		C3.4,26.6,3.3,26.5,3.3,26.1 M12.9,26.8h1v-5.1h-1V26.8z M26.1,26.8v-2.6c0-0.8-0.6-1.3-1.3-1.3c-0.7,0-1,0.4-1.1,0.7h0V23h-1v3.8
		h1v-2.2c0-0.6,0.3-0.9,0.8-0.9c0.6,0,0.6,0.5,0.6,0.7v2.3L26.1,26.8z M33,23.8c0.8,0,0.9,0.7,0.9,1.1c0,0.5-0.1,1.1-0.9,1.1
		c-0.8,0-0.9-0.7-0.9-1.1C32.1,24.4,32.3,23.8,33,23.8 M33,26.9c1,0,1.9-0.6,1.9-2c0-1.4-0.9-2-1.9-2c-1,0-1.9,0.6-1.9,2
		C31.1,26.3,32,26.9,33,26.9 M41.7,25v0.5c0,0.5-0.4,0.7-0.9,0.7c-0.2,0-0.5-0.1-0.5-0.5c0-0.4,0.3-0.5,0.7-0.6
		C41.4,25.1,41.6,25.1,41.7,25 M42.6,26.1v-2c0-0.9-1-1.1-1.5-1.1c-0.8,0-1.6,0.2-1.7,1.3h1c0-0.2,0.1-0.5,0.6-0.5
		c0.3,0,0.7,0,0.7,0.4c0,0.2-0.2,0.3-0.3,0.3l-0.9,0.1c-0.6,0.1-1.1,0.5-1.1,1.2c0,0.8,0.6,1.1,1.1,1.1c0.7,0,1-0.3,1.2-0.5
		c0,0.2,0,0.3,0.1,0.4h1.1v-0.1C42.7,26.6,42.6,26.5,42.6,26.1 M44.6,23v-1h-1v1h-0.5v0.7h0.5V26c0,0.5,0.2,0.8,1,0.8h0.1l0.5,0
		v-0.8l-0.2,0c-0.4,0-0.4-0.1-0.4-0.3v-2h0.6V23L44.6,23z M45.9,26.8h1V23h-1V26.8z M45.9,22.6h1v-0.9h-1V22.6z M49.6,23.8
		c0.8,0,0.9,0.7,0.9,1.1c0,0.5-0.1,1.1-0.9,1.1c-0.8,0-0.9-0.7-0.9-1.1C48.7,24.4,48.8,23.8,49.6,23.8 M49.6,26.9c1,0,1.9-0.6,1.9-2
		c0-1.4-0.9-2-1.9-2c-1,0-1.9,0.6-1.9,2C47.6,26.3,48.6,26.9,49.6,26.9 M55.6,26.8v-2.6c0-0.8-0.6-1.3-1.3-1.3c-0.7,0-1,0.4-1.1,0.7
		h0V23h-1v3.8h1v-2.2c0-0.6,0.3-0.9,0.8-0.9c0.6,0,0.6,0.5,0.6,0.7v2.3L55.6,26.8z M58.6,22.6l-0.3-0.9h-0.6v1.5h0.4v-1h0l0.4,1h0.3
		l0.4-1h0v1h0.4v-1.5h-0.6L58.6,22.6z M57.4,22v-0.3h-1.2V22h0.4v1.2H57V22H57.4z"/>
</g>
</svg>
