<?xml version="1.0" encoding="utf-8"?>
<!-- Generator: Adobe Illustrator 26.0.1, SVG Export Plug-In . SVG Version: 6.00 Build 0)  -->
<svg version="1.1" id="Layer_1" xmlns="http://www.w3.org/2000/svg" xmlns:xlink="http://www.w3.org/1999/xlink" x="0px" y="0px"
	 viewBox="0 0 95 35" style="enable-background:new 0 0 95 35;" xml:space="preserve">
<style type="text/css">
	.st0{fill:#FFFFFF;}
</style>
<g>
	<path class="st0" d="M27.1,12.8c-0.7,0-1.1-0.4-1.1-1c0-0.5,0.4-1,1.1-1c0.7,0,1.1,0.5,1.1,1C28.2,12.4,27.8,12.8,27.1,12.8
		 M20.8,21.5c-1.4,0-2.7-0.8-2.7-2.3c0-1.9,2.1-2.3,3-2.4c1.5-0.2,1.6-0.3,1.6-0.7c0-0.8-0.2-1.5-1.2-1.5h0c-0.7,0-1.3,0.2-1.8,0.5
		l-0.3,0.2c-0.1,0.1-0.3,0.3-0.5,0.3c-0.1,0-0.3-0.1-0.3-0.3v-0.7c0-0.2,0.1-0.3,0.3-0.4c0.7-0.3,1.7-0.5,2.7-0.5
		c2.4,0,3.2,1,3.2,2.3v5.3c0,0.1-0.1,0.2-0.2,0.2H23c-0.1,0-0.2-0.1-0.2-0.2l0-0.4C22.3,21.1,21.6,21.5,20.8,21.5 M22.7,17.4
		c-1.9,0-2.6,0.8-2.6,1.8c0,0.6,0.3,1.3,1.3,1.3c0.8,0,1.4-0.6,1.4-0.8L22.7,17.4 M47.5,21.5c-1.2,0-2.1-0.4-2.7-0.9
		c-0.3-0.2-0.3-0.5-0.3-0.8v-8.8c0-0.1,0.1-0.2,0.2-0.2h1.6c0.1,0,0.2,0.1,0.2,0.2v3.4c0.3-0.3,1.1-0.9,2.2-0.9
		c1.8,0,2.9,1.5,2.9,3.6C51.5,19.8,49.7,21.5,47.5,21.5 M46.4,20c0,0.1,0,0.3,0.2,0.4c0.2,0.1,0.4,0.2,0.9,0.2c1.1,0,1.9-1.1,1.9-3
		c0-0.7-0.1-2.7-1.7-2.7c-0.6,0-1.1,0.3-1.3,0.5L46.4,20L46.4,20 M67.4,24.1c-0.2,0-0.4,0-0.7-0.1c-0.2-0.1-0.3-0.2-0.3-0.4v-1
		c0-0.1,0.1-0.2,0.2-0.2c0.2,0,0.3,0,0.5,0.1c0.3,0.1,0.6,0.1,0.9,0.1c0.9,0,1.6-0.5,1.7-1.4l-3.1-7.1c-0.1-0.2-0.1-0.2-0.1-0.3
		c0-0.1,0.1-0.1,0.2-0.1h1.9c0.2,0,0.2,0.1,0.3,0.2l1.9,4.9l1.8-4.9c0-0.1,0.1-0.2,0.3-0.2h0.8c0.1,0,0.2,0.1,0.2,0.2
		c0,0.1,0,0.1-0.1,0.2l-3.1,8C69.9,23.2,68.7,24.1,67.4,24.1 M13.2,21.5c-1,0-1.9-0.2-2.8-0.6c-0.2-0.1-0.2-0.2-0.2-0.3v-0.9
		c0-0.2,0.1-0.3,0.3-0.3c0.2,0,0.3,0.1,0.5,0.2c0.9,0.6,1.7,0.9,2.4,0.9c1.2,0,2-0.7,2-1.6c0-2.3-5.3-1.6-5.3-5c0-1.6,1.2-3,3.5-3
		c1.1,0,2.1,0.2,2.7,0.4c0.2,0.1,0.2,0.1,0.2,0.3v1c0,0.2,0,0.3-0.2,0.3c-0.2,0-0.3-0.1-0.5-0.2c-0.7-0.5-1.3-0.8-2.2-0.8
		c-1,0-1.7,0.5-1.7,1.3c0,1.9,5.4,1.7,5.4,4.9C17.3,20.4,15.3,21.5,13.2,21.5 M28,21.3h-1.6c-0.1,0-0.2-0.1-0.2-0.2v-7.2
		c0-0.1,0.1-0.2,0.2-0.2H28c0.1,0,0.2,0.1,0.2,0.2v7.2C28.1,21.3,28,21.3,28,21.3 M55.9,21.5c-1.7,0-3.4-0.7-3.4-2.6v-5
		c0-0.1,0.1-0.2,0.2-0.2h1.6c0.1,0,0.2,0.1,0.2,0.2v5.4c0,0.8,0.5,1.3,1.4,1.3c1,0,1.4-0.6,1.4-1.7v-5c0-0.1,0.1-0.2,0.2-0.2h1.6
		c0.1,0,0.2,0.1,0.2,0.2v4.8C59.3,20.8,57.6,21.5,55.9,21.5 M36.4,21.4h-1.6c-0.1,0-0.2-0.1-0.2-0.2V16c0-0.6-0.1-1.3-1.2-1.3
		c-0.6,0-1.3,0.3-1.6,0.5v5.8c0,0.1-0.1,0.2-0.2,0.2H30c-0.1,0-0.2-0.1-0.2-0.2v-7.2c0-0.1,0.1-0.2,0.2-0.2h1.5
		c0.1,0,0.2,0.1,0.2,0.2v0.4c0.5-0.3,1.5-0.8,2.5-0.8c1.6,0,2.4,1,2.4,2.3v5.3C36.6,21.3,36.6,21.4,36.4,21.4 M40.5,21.5
		c-0.8,0-1.6-0.2-2.3-0.5c-0.2-0.1-0.2-0.3-0.2-0.4v-0.7c0-0.2,0.1-0.3,0.3-0.3c0.1,0,0.2,0.1,0.3,0.1c0.7,0.5,1.5,0.8,2.2,0.8h0
		c0.8,0,1.3-0.3,1.3-1c0-1.5-4.3-0.9-4.3-3.6c0-1.7,1.4-2.4,3-2.4c0.7,0,1.5,0.1,2.2,0.4c0.2,0.1,0.3,0.3,0.3,0.4V15
		c0,0.2-0.1,0.3-0.3,0.3c-0.1,0-0.2-0.1-0.3-0.1c-0.6-0.4-1.4-0.6-2.1-0.6c-0.7,0-1.3,0.2-1.3,0.8c0,1.3,4.3,0.7,4.3,3.4
		C43.6,20.8,42.1,21.5,40.5,21.5 M62.6,21.3H61c-0.1,0-0.2-0.1-0.2-0.2v-7.2c0-0.1,0.1-0.2,0.2-0.2h1.6c0.1,0,0.2,0.1,0.2,0.2l0,0.9
		v0c0.3-0.5,1.1-1.2,2-1.2c0.2,0,0.4,0,0.7,0.1c0.2,0,0.3,0.2,0.3,0.3V15c0,0.1-0.1,0.2-0.2,0.2c-0.2,0-0.3-0.1-0.6-0.1
		c-0.2,0-0.5-0.1-0.7-0.1c-0.8,0-1.6,0.3-1.6,1.4V21C62.8,21.2,62.8,21.2,62.6,21.3 M87.6,21.3h-1.8c-0.1,0-0.1,0-0.1-0.1V11.1
		c0-0.1,0.1-0.1,0.1-0.1h1.8c0.1,0,0.1,0.1,0.1,0.1v10.2C87.7,21.3,87.7,21.4,87.6,21.3 M92.6,21.5c-2.5,0-3.8-1.8-3.8-4
		c0-2.2,1.3-4,3.8-4c0.7,0,1.6,0.1,2.3,0.4c0.1,0,0.1,0.1,0.1,0.2v1c0,0.1,0,0.2-0.2,0.2c-0.1,0-0.2-0.1-0.3-0.2
		c-0.4-0.4-1-0.7-1.7-0.7c-1.1,0-1.8,0.7-1.8,3c0,2.3,1,3.2,2,3.2c0.6,0,1.1-0.3,1.5-0.7c0.1-0.1,0.2-0.2,0.3-0.2
		c0.1,0,0.2,0,0.2,0.2v1c0,0.1,0,0.2-0.1,0.2C94.2,21.4,93.3,21.5,92.6,21.5 M2.5,21.5c-1.2,0-2.1-0.5-2.3-0.6
		C0.1,20.8,0,20.7,0,20.6v-0.9c0-0.1,0-0.3,0.2-0.3c0.1,0,0.2,0,0.3,0.1c0.2,0.2,1.1,0.9,1.9,0.9c0.9,0,1.6-0.6,1.6-2v-7.3
		c0-0.1,0.1-0.2,0.2-0.2H6c0.1,0,0.2,0.1,0.2,0.2v7.3C6.2,19.8,5.2,21.5,2.5,21.5 M79.3,24.2h-1.8c0,0-0.1,0-0.1-0.1V13.8
		c0-0.1,0-0.1,0.1-0.1h1.7c0.1,0,0.1,0.1,0.1,0.1v0.5h0c0.4-0.3,1.2-0.8,2-0.8c2,0,3.1,1.7,3.1,3.9c0,2.7-1.7,4-3.3,4
		c-0.7,0-1.3-0.3-1.8-0.5h0v3.2C79.4,24.1,79.4,24.2,79.3,24.2 M80.7,14.6c-0.8,0-1.3,0.6-1.3,1.3v3.9c0.1,0.2,0.7,0.6,1.4,0.6
		c1.5-0.1,1.6-2.1,1.6-2.8C82.4,16,81.8,14.7,80.7,14.6"/>
</g>
</svg>
