<?xml version="1.0" encoding="utf-8"?>
<!-- Generator: Adobe Illustrator 26.0.1, SVG Export Plug-In . SVG Version: 6.00 Build 0)  -->
<svg version="1.1" id="Layer_1" xmlns="http://www.w3.org/2000/svg" xmlns:xlink="http://www.w3.org/1999/xlink" x="0px" y="0px"
	 viewBox="0 0 95 35" style="enable-background:new 0 0 95 35;" xml:space="preserve">
<style type="text/css">
	.st0{fill:#FFFFFF;}
</style>
<g>
	<path class="st0" d="M42.3,14.8L42,17.3c-0.4-0.2-0.9-0.2-1.3-0.2c-1,0-1.9,0.5-2.5,1.3v7.4h-2.6V14.9h1.8l0.6,1.2
		c0.7-0.9,1.8-1.4,3-1.4C41.4,14.6,41.9,14.7,42.3,14.8 M81.9,16.1l-0.6-1.2h-1.8v10.8h2.6v-7.4c0.6-0.8,1.5-1.3,2.5-1.3
		c0.5,0,0.9,0.1,1.3,0.2l0.3-2.5c-0.4-0.1-0.9-0.2-1.3-0.2C83.7,14.6,82.6,15.2,81.9,16.1L81.9,16.1z M29.5,14.6
		c-1.2,0-2.4,0.5-3.3,1.3V9l-2.6,0.6v16.1h2.6v-7.2c0.6-0.8,1.6-1.4,2.6-1.4c1.6,0,2.5,1,2.5,3.4v5.3h2.6v-5.4
		C33.9,17.1,32.5,14.6,29.5,14.6 M18.1,23.5c-1.6,0-3-1.3-3-3.2c0-1.9,1.3-3.2,3-3.2c1,0,2,0.6,2.6,1.4l1.9-1.6
		c-1-1.4-2.7-2.2-4.4-2.2c-3.1,0-5.7,2.5-5.7,5.7c0,3.1,2.5,5.7,5.7,5.7h0c1.8,0,3.4-0.8,4.6-2.1l-1.9-1.7
		C20,23.1,19.3,23.5,18.1,23.5 M7,16.4c-0.2-0.1-0.9-0.2-1.4-0.3c-1.6-0.4-2.5-0.8-2.5-1.9c0-1,1-1.9,2.5-1.9c1.3,0,2.4,0.7,3.3,1.9
		l2-1.8c-1-1.3-2.5-2.6-5.2-2.6c-2.9,0-5.4,2-5.4,4.7c0,2.1,1.3,3.6,4.2,4.3c0.4,0.1,1,0.2,1.5,0.4c1.8,0.5,2.5,1.3,2.5,2.2
		c0,1.3-1.2,2.1-2.6,2.1c-1.2,0-2.6-0.4-3.5-2.3L0,22.4C0.8,24.2,2.9,26,5.7,26c3.3,0,5.6-2.2,5.6-4.8C11.3,18.8,9.8,17.1,7,16.4
		 M91.5,19.2c-1.5-0.3-2.4-0.7-2.4-1.4c0-0.6,0.7-1,1.6-1c0.9,0,1.8,0.5,2.3,1.3l1.7-1.5c-0.9-1.3-2.4-2-4-2c-2,0-4.1,1.3-4.1,3.3
		c0,1.9,1.5,2.8,4.1,3.4c1,0.2,1.7,0.6,1.7,1.3c0,0.6-0.6,1.1-1.6,1.1c-1.2,0-2.3-0.5-3-1.5l-1.6,1.5c0.9,1.4,2.8,2.3,4.7,2.3
		c2.3,0,4-1.5,4-3.4C95,20.6,93.4,19.6,91.5,19.2L91.5,19.2z M42.3,20.3c0,3,2.3,5.5,5.3,5.7v-2.4c-1.8-0.4-3-2.1-2.6-3.9
		c0.3-1.3,1.3-2.3,2.6-2.6v-2.4C44.6,14.8,42.3,17.3,42.3,20.3 M48.6,14.6V17c1.8,0.4,3,2.1,2.6,3.9c-0.3,1.3-1.3,2.3-2.6,2.6V26
		c3.1-0.2,5.5-2.9,5.4-6C53.8,17.1,51.5,14.8,48.6,14.6L48.6,14.6z M66,22.9l0.6,2.8h-2.3l-0.6-1c-0.9,0.8-2.1,1.3-3.4,1.3
		c-3,0-5.3-2.5-5.3-5.7c-0.1-3.1,2.3-5.6,5.4-5.7c0,0,0.1,0,0.1,0c1,0,2,0.4,2.9,1v-6L66,9L66,22.9L66,22.9z M63.4,18
		c-0.7-0.6-1.6-1-2.6-1c-1.8,0-3.2,1.5-3.1,3.2c0,0,0,0,0,0c0,2.1,1.5,3.4,3.1,3.4c1,0,2-0.4,2.7-1.1V18z M78.1,20.3
		c0,0.3,0,0.7,0,0.7H70c0.2,1.5,1.5,2.7,3,2.6c1.1,0,2.2-0.5,2.9-1.3l1.7,1.5c-1.1,1.4-2.8,2.1-4.6,2.1c-3.1,0.1-5.6-2.4-5.7-5.5
		c0-0.1,0-0.2,0-0.2c-0.1-3,2.3-5.6,5.4-5.6c0,0,0.1,0,0.1,0C76,14.6,78.1,17.2,78.1,20.3 M75.4,19.1c-0.2-1.3-1.4-2.2-2.6-2.2
		c-1.3,0-2.4,0.9-2.7,2.2H75.4L75.4,19.1z"/>
</g>
</svg>
