<?xml version="1.0" encoding="utf-8"?>
<!-- Generator: Adobe Illustrator 26.0.1, SVG Export Plug-In . SVG Version: 6.00 Build 0)  -->
<svg version="1.1" id="Layer_1" xmlns="http://www.w3.org/2000/svg" xmlns:xlink="http://www.w3.org/1999/xlink" x="0px" y="0px"
	 viewBox="0 0 95 35" style="enable-background:new 0 0 95 35;" xml:space="preserve">
<style type="text/css">
	.st0{fill:#CCCCCC;}
</style>
<g id="logo" transform="translate(-1272.331 -3063.978)">
	<path id="Path_3" class="st0" d="M1286.8,3080.1v-7.3h1.6v7.3H1286.8z M1294.7,3080.1l-3.2-5.2h0v5.2h-1.6v-7.3h2.2l3.1,5h0v-5h1.6
		v7.3H1294.7z M1301.7,3080.1h-1.3l-2.9-7.3h1.8l1.8,4.8h0l1.8-4.8h1.7L1301.7,3080.1L1301.7,3080.1z M1310.6,3078.6v1.5h-5.1v-7.3
		h4.9v1.5h-3.3v1.4h3.2v1.5h-3.2v1.5L1310.6,3078.6z M1314.3,3074.2c-0.5,0-1.1,0.2-1.1,0.7c0,1.3,3.3,0.5,3.3,3
		c0,1.6-1.3,2.4-2.8,2.4c-0.9,0-1.8-0.3-2.4-0.9l1.1-1.3c0.3,0.4,0.8,0.7,1.4,0.7c0.5,0,1.1-0.2,1.1-0.8c0-1.3-3.4-0.6-3.4-3
		c0-1.5,1.3-2.4,2.8-2.4c0.8,0,1.6,0.2,2.2,0.8l-1.1,1.2C1315.2,3074.3,1314.8,3074.1,1314.3,3074.2L1314.3,3074.2z M1320.8,3074.3
		v5.8h-1.6v-5.8h-2.1v-1.4h5.7v1.4L1320.8,3074.3z M1330.3,3080.1v-5.6h0l-1.9,5.6h-1.2l-1.8-5.6h0v5.6h-1.6v-7.3h2.4l1.7,4.7h0
		l1.7-4.7h2.4v7.3H1330.3z M1338.5,3078.6v1.5h-5.1v-7.3h4.9v1.5h-3.3v1.4h3.1v1.5h-3.1v1.5L1338.5,3078.6z M1344.6,3080.1l-3.2-5.2
		h0v5.2h-1.6v-7.3h2.2l3.1,5h0v-5h1.6v7.3L1344.6,3080.1z M1351.2,3074.3v5.8h-1.6v-5.8h-2.1v-1.4h5.7v1.4L1351.2,3074.3z"/>
	<path id="Path_4" class="st0" d="M1291.5,3086.4v-4.6h0l-1.9,4.6h-0.3l-1.9-4.6h0v4.6h-0.5v-5.3h0.8l1.8,4.4h0l1.8-4.4h0.8v5.3
		H1291.5z M1297.3,3086.4l-0.6-1.4h-2.7l-0.6,1.4h-0.6l2.3-5.3h0.5l2.3,5.3H1297.3z M1295.3,3081.7l-1.2,2.8h2.3L1295.3,3081.7
		L1295.3,3081.7z M1302.3,3086.4l-3.1-4.5h0v4.5h-0.5v-5.3h0.7l3.1,4.5h0v-4.5h0.5v5.3H1302.3z M1308.2,3086.4l-0.6-1.4h-2.7
		l-0.6,1.4h-0.6l2.3-5.3h0.5l2.3,5.3H1308.2z M1306.2,3081.7l-1.2,2.8h2.3L1306.2,3081.7z M1312.1,3084.1v-0.5h1.8v2.4
		c-0.6,0.4-1.3,0.5-2,0.5c-0.7,0-1.5-0.3-2-0.8c-1-1.1-1-2.9,0-4c0.5-0.5,1.2-0.8,2-0.8c0.7,0,1.4,0.2,1.9,0.7l-0.4,0.4
		c-0.4-0.4-1-0.6-1.5-0.6c-0.6,0-1.2,0.2-1.6,0.7c-0.8,0.9-0.8,2.3,0,3.3c0.4,0.4,1,0.7,1.6,0.7c0.5,0,1-0.1,1.4-0.3v-1.6
		L1312.1,3084.1z M1318.6,3085.9v0.5h-3.4v-5.3h3.3v0.5h-2.7v1.8h2.6v0.5h-2.6v2H1318.6z M1324.3,3086.4v-4.6h0l-1.9,4.6h-0.3
		l-1.9-4.6h0v4.6h-0.5v-5.3h0.8l1.8,4.4h0l1.8-4.4h0.8v5.3H1324.3z M1329.7,3085.9v0.5h-3.4v-5.3h3.3v0.5h-2.7v1.8h2.6v0.5h-2.6v2
		H1329.7z M1334.3,3086.4l-3.1-4.5h0v4.5h-0.5v-5.3h0.7l3.1,4.5h0v-4.5h0.5v5.3H1334.3z M1338.1,3081.6v4.8h-0.5v-4.8h-1.8v-0.5h4.1
		v0.5L1338.1,3081.6z M1290.1,3087.9c-0.3-0.1-0.6-0.2-0.9-0.2c-0.6,0-1.2,0.2-1.6,0.7c-0.8,0.9-0.8,2.3,0,3.3
		c0.4,0.4,1,0.7,1.6,0.7c0.6,0,1.2-0.3,1.6-0.8l0.4,0.3c-0.2,0.3-0.5,0.5-0.8,0.7c-0.4,0.2-0.8,0.3-1.2,0.3c-0.7,0-1.5-0.3-2-0.8
		c-1-1.1-1-2.9,0-4c0.8-0.8,2-1,3.1-0.6c0.3,0.1,0.6,0.3,0.8,0.6l-0.4,0.3C1290.5,3088.2,1290.4,3088.1,1290.1,3087.9L1290.1,3087.9
		z M1296.5,3088.1c-1.1-1.1-2.8-1.1-3.9,0c-1,1.1-1,2.9,0,4c1.1,1.1,2.8,1.1,3.9,0C1297.6,3090.9,1297.6,3089.2,1296.5,3088.1z
		 M1296.1,3091.7c-0.9,0.9-2.3,0.9-3.1,0c0,0,0,0,0,0c-0.8-0.9-0.8-2.3,0-3.3c0.8-0.9,2.2-0.9,3.1,0c0,0,0,0,0,0
		C1296.9,3089.4,1296.9,3090.7,1296.1,3091.7z M1303.1,3092.7v-4.6h0l-1.9,4.6h-0.3l-1.9-4.6h0v4.6h-0.5v-5.3h0.8l1.8,4.4h0l1.8-4.4
		h0.8v5.3L1303.1,3092.7z M1307.8,3087.8c-0.4-0.3-0.8-0.4-1.3-0.4h-1.5v5.3h0.5v-2.5h0.9c0.5,0,0.9-0.1,1.3-0.4
		c0.6-0.5,0.7-1.4,0.1-2C1307.9,3087.9,1307.9,3087.8,1307.8,3087.8L1307.8,3087.8z M1307.4,3089.5c-0.3,0.2-0.6,0.3-1,0.2h-0.9
		v-1.9h0.9c0.9,0,1.3,0.3,1.3,0.9C1307.8,3089.1,1307.7,3089.4,1307.4,3089.5L1307.4,3089.5z M1311.1,3087.4h-0.5l-2.3,5.3h0.6
		l0.6-1.4h2.7l0.6,1.4h0.6L1311.1,3087.4z M1309.7,3090.8l1.2-2.8l1.2,2.8H1309.7z M1317.8,3092.7l-3.1-4.5h0v4.5h-0.5v-5.3h0.7
		l3.1,4.5h0v-4.5h0.5v5.3L1317.8,3092.7z M1321.7,3090.4v2.3h-0.5v-2.3l-2-3h0.7l1.6,2.6l1.6-2.6h0.6L1321.7,3090.4L1321.7,3090.4z"
		/>
	<path id="Path_5" class="st0" d="M1286.8,3099v-5.3h0.5v4.8h2.5v0.5H1286.8z M1290.6,3099v-5.3h0.5v5.3H1290.6z M1297.2,3099v-4.6
		h0l-1.9,4.6h-0.3l-1.9-4.6h0v4.6h-0.5v-5.3h0.8l1.8,4.4h0l1.8-4.4h0.8v5.3L1297.2,3099z M1299.2,3099v-5.3h0.5v5.3H1299.2z
		 M1302.8,3094.2v4.8h-0.5v-4.8h-1.8v-0.5h4.1v0.5H1302.8z M1308.7,3098.5v0.5h-3.4v-5.3h3.3v0.5h-2.7v1.8h2.6v0.5h-2.6v2
		L1308.7,3098.5z M1314.1,3095.2c-0.1-0.3-0.4-0.6-0.6-0.8c-0.5-0.4-1.2-0.7-1.9-0.7h-1.8v5.3h1.8c0.7,0,1.3-0.2,1.9-0.7
		c0.3-0.2,0.5-0.5,0.6-0.8C1314.4,3096.8,1314.4,3095.9,1314.1,3095.2L1314.1,3095.2z M1313.6,3097.1c-0.1,0.3-0.2,0.5-0.4,0.7
		c-0.2,0.2-0.5,0.4-0.7,0.5c-0.3,0.1-0.7,0.2-1,0.2h-1.1v-4.3h1.1c0.4,0,0.7,0.1,1,0.2c0.3,0.1,0.5,0.3,0.7,0.5
		c0.2,0.2,0.3,0.4,0.4,0.7C1313.8,3096.1,1313.8,3096.6,1313.6,3097.1L1313.6,3097.1z"/>
	<path id="Path_6" class="st0" d="M1290.5,3065.9c-0.1-0.2-0.3-0.3-0.5-0.4c-0.2-0.1-0.4-0.1-0.6-0.1c-0.1,0-0.2,0-0.4,0
		c-0.1,0-0.2,0.1-0.3,0.1c-0.1,0.1-0.2,0.1-0.3,0.2c-0.2,0.3-0.1,0.6,0.1,0.8c0.2,0.1,0.4,0.2,0.6,0.3c0.2,0.1,0.5,0.2,0.8,0.2
		c0.3,0.1,0.6,0.2,0.8,0.3c0.2,0.2,0.5,0.4,0.6,0.6c0.2,0.3,0.3,0.7,0.2,1c0,0.4-0.1,0.7-0.2,1.1c-0.1,0.3-0.4,0.5-0.6,0.7
		c-0.3,0.2-0.6,0.4-0.9,0.4c-0.8,0.2-1.6,0.2-2.4-0.1c-0.4-0.2-0.8-0.4-1.1-0.7l1.1-1.2c0.2,0.2,0.4,0.4,0.6,0.5
		c0.4,0.2,0.8,0.2,1.2,0.1c0.1,0,0.2-0.1,0.4-0.1c0.1-0.1,0.2-0.1,0.3-0.2c0.1-0.1,0.1-0.2,0.1-0.3c0-0.2-0.1-0.4-0.3-0.5
		c-0.2-0.1-0.4-0.2-0.6-0.3c-0.3-0.1-0.5-0.2-0.8-0.3c-0.3-0.1-0.6-0.2-0.8-0.4c-0.3-0.1-0.5-0.4-0.6-0.6c-0.2-0.3-0.3-0.6-0.3-1
		c0-0.4,0.1-0.7,0.2-1c0.1-0.3,0.4-0.5,0.6-0.7c0.3-0.2,0.6-0.4,0.9-0.4c0.3-0.1,0.7-0.1,1-0.1c0.4,0,0.8,0.1,1.2,0.2
		c0.4,0.1,0.7,0.3,1,0.6L1290.5,3065.9z M1292.7,3064.2h4.9v1.5h-3.3v1.3h3.1v1.5h-3.1v1.5h3.5v1.5h-5.1L1292.7,3064.2z
		 M1304.7,3070.2L1304.7,3070.2c0.5-0.2,0.9-0.6,1.1-1c0.1-0.2,0.2-0.5,0.3-0.7c0.1-0.2,0.1-0.5,0.1-0.8c0-0.5-0.1-1-0.3-1.5
		c-0.2-0.4-0.5-0.8-0.8-1.2c-0.4-0.3-0.8-0.6-1.2-0.8c-0.5-0.2-1-0.3-1.5-0.3c-0.5,0-1,0.1-1.5,0.3c-0.5,0.2-0.9,0.4-1.2,0.8
		c-0.4,0.3-0.6,0.7-0.8,1.2c-0.2,0.5-0.3,1-0.3,1.5c0,0.5,0.1,1.1,0.3,1.6c0.2,0.4,0.5,0.8,0.8,1.2c0.4,0.3,0.8,0.6,1.2,0.7
		c0.5,0.2,1,0.3,1.6,0.3h4.4v-1.2L1304.7,3070.2z M1304.4,3068.6c-0.1,0.3-0.3,0.5-0.5,0.7c-0.2,0.2-0.4,0.4-0.7,0.5
		c-0.5,0.2-1.2,0.2-1.7,0c-0.3-0.1-0.5-0.3-0.7-0.5c-0.9-0.9-0.9-2.3,0-3.2c0.2-0.2,0.4-0.4,0.7-0.5c0.5-0.2,1.2-0.2,1.7,0
		c0.3,0.1,0.5,0.3,0.7,0.5C1304.5,3066.8,1304.7,3067.7,1304.4,3068.6z M1313.5,3068.6c0,0.4-0.1,0.8-0.2,1.2
		c-0.1,0.4-0.3,0.7-0.6,0.9c-0.3,0.3-0.6,0.5-1,0.6c-0.9,0.3-1.8,0.3-2.6,0c-0.4-0.1-0.7-0.3-1-0.6c-0.3-0.3-0.5-0.6-0.6-0.9
		c-0.1-0.4-0.2-0.8-0.2-1.2v-4.4h1.6v4.4c0,0.2,0,0.4,0.1,0.6c0.1,0.2,0.2,0.4,0.3,0.5c0.1,0.1,0.3,0.3,0.5,0.3
		c0.2,0.1,0.4,0.1,0.6,0.1c0.2,0,0.4,0,0.6-0.1c0.2-0.1,0.3-0.2,0.5-0.3c0.1-0.1,0.2-0.3,0.3-0.5c0.1-0.2,0.1-0.4,0.1-0.6v-4.4h1.6
		L1313.5,3068.6z M1321.9,3066.2c-0.2-0.5-0.5-0.9-0.8-1.2c-0.4-0.3-0.8-0.6-1.2-0.8c-1-0.4-2.1-0.4-3.1,0c-0.5,0.2-0.9,0.4-1.2,0.8
		c-0.4,0.3-0.6,0.7-0.8,1.2c-0.4,1-0.4,2.1,0,3.1c0.2,0.5,0.5,0.9,0.8,1.2c0.4,0.3,0.8,0.6,1.2,0.8c1,0.4,2.1,0.4,3.1,0
		c0.5-0.2,0.9-0.4,1.2-0.8c0.4-0.3,0.6-0.7,0.8-1.2C1322.3,3068.3,1322.3,3067.2,1321.9,3066.2z M1320.4,3068.7
		c-0.1,0.3-0.3,0.5-0.5,0.7c-0.2,0.2-0.4,0.4-0.7,0.5c-0.6,0.2-1.3,0.2-1.8,0c-0.3-0.1-0.5-0.3-0.7-0.5c-0.2-0.2-0.4-0.5-0.5-0.7
		c-0.2-0.6-0.2-1.3,0-1.9c0.1-0.3,0.3-0.5,0.5-0.7c0.2-0.2,0.4-0.4,0.7-0.5c0.6-0.2,1.3-0.2,1.8,0c0.3,0.1,0.5,0.3,0.7,0.5
		c0.2,0.2,0.4,0.5,0.5,0.7C1320.6,3067.5,1320.6,3068.1,1320.4,3068.7z M1323.1,3064.2h1.6v7.2h-1.6V3064.2z M1332.5,3071.4h-1.8
		l-1.8-4.7h0l-1.8,4.7h-1.7l3-7.2h1.3L1332.5,3071.4z"/>
</g>
</svg>
