<?xml version="1.0" encoding="utf-8"?>
<!-- Generator: Adobe Illustrator 26.0.1, SVG Export Plug-In . SVG Version: 6.00 Build 0)  -->
<svg version="1.1" id="Layer_1" xmlns="http://www.w3.org/2000/svg" xmlns:xlink="http://www.w3.org/1999/xlink" x="0px" y="0px"
	 viewBox="0 0 95 35" style="enable-background:new 0 0 95 35;" xml:space="preserve">
<style type="text/css">
	.st0{fill:#343741;}
</style>
<g id="layer1" transform="translate(84.626 -199.0695)">
	<g id="g2659" transform="translate(.5 -.5)">
		<path id="path2629" class="st0" d="M-3.5,199.6c-7.1,0-11.7,4.9-11.7,12.9c0,10,7.1,12.8,12.2,12.8c3.8,0,7.5-1.6,10.1-4.3
			l-3.3-3.3c-1.8,1.6-3.8,2.5-6.7,2.5c-4,0-6.6-2.3-6.6-5.5H8.1C8.1,214.7,11.1,199.6-3.5,199.6 M-9.5,210.4c0-4.3,3.2-6.3,6.7-6.3
			s6.6,2.1,6.6,6.3L-9.5,210.4z"/>
		<path id="path2631" class="st0" d="M-68.4,210c-2.3-0.3-8.8,0-8.8-3c0-1.8,2.8-2.7,5.3-2.7c2.7,0,5.3,0.7,7.5,2.1l3.4-3.4
			c-1-0.8-4.7-3.4-10.9-3.4c-5.6,0-10.6,2.9-10.6,7.6c0,7.2,8.7,7.2,12.3,7.5c2.2,0.2,4.2,0.4,4.2,2.5c0,2-3,3.1-5.4,3.1
			c-3.9,0-6.2-1.3-8.4-3.3l-3.6,3.7c3.1,3,7.4,4.7,11.8,4.7c6.5,0,11.2-2.9,11.2-8.6C-60.6,212.9-63.2,210.7-68.4,210"/>
		<path id="path2633" class="st0" d="M-49.8,199.6c-3.6,0-7.1,1.2-10,3.4l3.4,3.4c1.9-1.4,4.2-2.2,6.6-2.1c4.3,0,5.6,1.7,5.6,3.7
			v2.4h-7.7c-2.9,0-8.4,0.7-8.4,7c0,4.6,2.6,8,8.9,8c3.1,0,5.5-1,7.2-3v2.5h5.6v-16.5C-38.6,202.6-42.1,199.6-49.8,199.6
			 M-44.1,215.8c0,4.8-3.4,4.5-6.4,4.5c-3,0-5-0.8-5-3c0-2,1.6-2.7,4.9-2.7h6.6V215.8z"/>
		<path id="path2635" class="st0" d="M-21.4,200.1v2.8c-1.9-2.2-4.2-3.3-7.3-3.3c-5.3,0-8,3-8.9,6.1c-0.4,1.2-0.5,3.4-0.5,6.7
			c0,3.1,0,6,1.1,8.1c1.5,3,5.2,4.8,8.3,4.8c3,0,5.5-1.2,7.3-3.2v1.6c0,1.8-0.6,3-1.8,4c-1.2,0.9-2.6,1.5-4.7,1.5
			c-1.8,0-3.6-1-4.6-1.7l-3.8,3.8c2.4,2,5.3,3.3,8.5,3.3c3,0.1,6-0.9,8.3-2.8c2.2-1.8,3.7-5.1,3.7-8.6v-23.1L-21.4,200.1z
			 M-21.4,212.4c0,1.9,0,3.3-0.2,4.1c-0.4,1.6-2.2,3.7-5.5,3.7c-0.8,0-5.1-0.5-5.5-4.2c-0.1-1.2-0.2-2.4-0.2-3.6
			c0-2.9,0.1-3.8,0.3-4.5c0.3-1.4,2.2-3.6,5.4-3.6c4,0,5.3,2.7,5.5,3.8C-21.4,209.6-21.3,211-21.4,212.4"/>
	</g>
</g>
</svg>
