<?xml version="1.0" encoding="utf-8"?>
<!-- Generator: Adobe Illustrator 26.0.1, SVG Export Plug-In . SVG Version: 6.00 Build 0)  -->
<svg version="1.1" id="Layer_1" xmlns="http://www.w3.org/2000/svg" xmlns:xlink="http://www.w3.org/1999/xlink" x="0px" y="0px"
	 viewBox="0 0 95 35" style="enable-background:new 0 0 95 35;" xml:space="preserve">
<style type="text/css">
	.st0{fill:#FFFFFF;}
</style>
<g>
	<path class="st0" d="M67.4,8.6v4.5c0.9-0.5,2-0.8,3.2-0.8c0.7,0,1.3,0,2,0c3.8,0.1,5.4,1.6,5.4,5.3v8.8h-3v-8.5
		c0-2.2-1-3.1-3.2-3.2c-0.4,0-1.1,0-1.4,0c-1.3,0-2.4,0.4-3,0.8v10.8h-3V8.6H67.4z M61.2,23.8c-0.6,0.1-1.3,0.1-1.7,0.1
		c-2.2,0-3-0.6-3-3.1v-6.2h4.1v-2.3h-4.1V8.6h-3v3.7h-3.2v2.3h3.2v5.8c0,4.4,1.5,5.9,5.6,5.9c0.6,0,1.4,0,2.2-0.1V23.8z M28.3,13.5
		c-0.8-0.7-2-1.1-3.8-1.1c-0.6,0-1,0-2.1,0c-1.9,0.1-4,0.6-5.4,1.5v12.5h3v-11c0.7-0.4,1.8-0.6,2.5-0.6c0.7,0,1.1,0,1.6,0
		c1.6,0.1,2.6,0.8,2.6,2.5v9.1h3v-8.9c0-0.7-0.1-1.4-0.3-1.9c0.6-0.5,1.8-0.8,2.6-0.8c0.7,0,1.1,0,1.7,0c1.7,0.1,2.6,0.8,2.6,2.5
		v9.1h3v-9c0-3.6-1.4-5-5.3-5.1c-0.6,0-0.9,0-2,0C30.7,12.4,29.2,12.8,28.3,13.5 M7.7,20.3c2.4,0.3,3.2,0.3,3.2,1.9
		c0,1.3-0.2,1.8-2.2,1.8H0.4v2.4h8.1c3.8,0,5.5-1,5.6-3.6c0-0.3,0-1.1,0-1.5c-0.1-2.3-1.5-2.9-4.5-3.2l-3.2-0.4
		c-2.4-0.3-3.2-0.2-3.2-1.7c0-0.9,0.4-1.3,1.9-1.3h7.8v-2.4H5.2c-3.5,0-5.2,0.9-5.2,3.5c0,0.3,0,0.5,0,0.9c0.1,2.3,1.3,2.9,4.5,3.3
		L7.7,20.3z M88.7,20.3c2.4,0.3,3.2,0.3,3.2,1.9c0,1.3-0.2,1.8-2.2,1.8h-8.4v2.4h8.1c3.8,0,5.5-1,5.6-3.6c0-0.3,0-1.1,0-1.5
		c-0.1-2.3-1.5-2.9-4.5-3.2l-3.2-0.4C84.9,17.4,84,17.5,84,16c0-0.9,0.4-1.3,1.9-1.3h7.8v-2.4h-7.6c-3.5,0-5.2,0.9-5.2,3.5
		c0,0.3,0,0.5,0,0.9c0.1,2.3,1.3,2.9,4.5,3.3L88.7,20.3z M43.5,12.3v8.1c0,3.7,0.9,6,5.5,6c0.5,0,1.1,0,1.5-0.1v-2.5
		c-0.3,0-0.6,0-0.9,0c-2.4,0-3-0.7-3-3v-8.5L43.5,12.3L43.5,12.3z"/>
</g>
</svg>
