<?xml version="1.0" encoding="utf-8"?>
<!-- Generator: Adobe Illustrator 26.0.1, SVG Export Plug-In . SVG Version: 6.00 Build 0)  -->
<svg version="1.1" id="Layer_1" xmlns="http://www.w3.org/2000/svg" xmlns:xlink="http://www.w3.org/1999/xlink" x="0px" y="0px"
	 viewBox="0 0 95 35" style="enable-background:new 0 0 95 35;" xml:space="preserve">
<g>
	<path d="M4.7,17.2c-0.5,0-1.1-0.1-1.6-0.2c-0.8-0.2-3-0.9-3-1.9c0-0.8,1.5-0.9,2.1-0.9c2,0,4.6,1,4.6,2C6.7,17,5.2,17.2,4.7,17.2
		 M1.3,22.2c-0.3,0-0.6-0.1-0.6-0.4c0-1.2,3.7-3.8,5.4-3.8c0.3,0,0.6,0.1,0.6,0.4C6.7,19.6,2.9,22.2,1.3,22.2 M10.1,13.1
		c-0.3,0.7-1.1,2.6-1.9,2.6c-0.5,0-0.5-0.7-0.5-1c0-0.8,0.2-1.6,0.5-2.4c0.2-0.7,1.1-2.6,1.9-2.6c0.4,0,0.5,0.7,0.5,1
		C10.6,11.5,10.4,12.3,10.1,13.1 M11.2,25.2c-1.5,0-3.4-3.1-3.4-5.2c0-0.6,0.2-1.5,1-1.5c1.5,0,3.4,3,3.4,5.2
		C12.1,24.5,11.9,25.2,11.2,25.2 M11.2,16.5c-0.4,0-1.5-0.1-1.5-0.7c0-0.7,1.7-1.4,2.9-1.4c0.4,0,1.5,0.1,1.5,0.7
		C14.1,15.8,12.6,16.5,11.2,16.5"/>
	<path d="M18.7,22.9c-0.4,0-0.7-0.1-1.1-0.2c-0.6-0.2-1.8-0.7-1.8-1.4c0-0.5,0.3-0.8,0.8-0.8c0.6,0,0.7,0.9,2,0.9c0.4,0,1,0,1-0.5
		c0-0.9-3.6-0.4-3.6-2.6c0-1.6,1.3-2.1,2.7-2.1c0.7,0,1.7,0.3,2.2,0.8c0.1,0.2,0.3,0.4,0.3,0.6c0,0.4-0.3,0.8-0.8,0.8
		c-0.8,0-0.6-0.8-1.8-0.8c-0.3,0-0.9,0.1-0.9,0.5c0,0.9,3.7,0.3,3.7,2.7C21.5,22.3,20,22.9,18.7,22.9"/>
	<path d="M29.9,22.8c-0.5,0-0.9-0.4-0.9-0.9v-3.4c0-0.5-0.4-0.9-0.9-0.9s-0.9,0.4-0.9,0.9v3.4c0,0.5-0.4,0.9-0.9,0.9
		s-0.9-0.4-0.9-0.9v-3.4c0-0.5-0.4-0.9-0.9-0.9s-0.9,0.4-0.9,0.9v3.4c0,0.5-0.4,0.9-0.9,0.9s-0.9-0.4-0.9-0.9v-4.8
		c0-0.5,0.4-0.9,0.9-0.9c0.4,0,0.7,0.2,0.8,0.5c0.3-0.4,0.8-0.6,1.3-0.6c0.7,0,1.3,0.2,1.8,0.7c0.5-0.5,1.2-0.7,1.7-0.7
		c1.3,0,2.2,0.8,2.2,2.3v3.4C30.8,22.4,30.4,22.8,29.9,22.8"/>
	<path d="M33,22.8c-0.5,0-0.9-0.4-0.9-0.9v-4.1H32c-0.4,0-0.8-0.3-0.8-0.8c0-0.4,0.3-0.8,0.8-0.8h1c0.5,0,0.9,0.4,0.9,0.9v4.8
		C33.8,22.4,33.5,22.8,33,22.8 M33,15.6c-0.5,0-1-0.5-1-1s0.5-1,1-1s1,0.5,1,1S33.5,15.6,33,15.6"/>
	<path d="M37.9,17.9h-0.6v3.3c0,0,0,0.1,0.1,0.1c0.3,0,0.7,0.3,0.7,0.8c0,0.4-0.3,0.8-0.8,0.8H37c-0.8,0-1.5-0.5-1.5-1.5V18h-0.4
		c-0.4,0-0.8-0.3-0.8-0.8c0-0.4,0.3-0.8,0.8-0.8h0.4v-1.2c0-0.5,0.4-0.9,0.9-0.9s0.9,0.4,0.9,0.9v1.3h0.6c0.4,0,0.8,0.3,0.8,0.8
		C38.6,17.5,38.3,17.9,37.9,17.9"/>
	<path d="M44,22.8c-0.5,0-0.9-0.4-0.9-0.9v-3.1c0-0.8-0.5-1.2-1.1-1.2c-0.7,0-1.1,0.5-1.1,1.2v3.1c0,0.5-0.4,0.9-0.9,0.9
		s-0.9-0.4-0.9-0.9v-7.6c0-0.5,0.4-0.9,0.9-0.9s0.9,0.4,0.9,0.9v2.5l0,0c0.3-0.5,1.2-0.6,1.6-0.6c1.4,0,2.4,0.9,2.4,2.3v3.4
		C44.9,22.4,44.5,22.8,44,22.8"/>
	<path d="M52.1,22.8c-0.2,0-0.4-0.1-0.6-0.3l-0.6-0.8c-1,1-1.7,1.1-2.5,1.1c-1.5,0-2.8-0.9-2.8-2.6c0-1.3,1-2.2,1.7-2.6
		c-0.6-0.7-0.8-1-0.8-1.6c0-1.4,1.2-2,2.3-2c1,0,2.3,0.6,2.3,1.9c0,1-0.8,1.7-1.4,2.1l1.1,1.3c0.1-0.1,0.3-0.3,0.4-0.5
		c0.3-0.3,0.5-0.5,0.8-0.5c0.4,0,0.8,0.3,0.8,0.8c0,0.3-0.2,0.7-0.6,1.1c-0.1,0.1-0.2,0.3-0.3,0.4l0.7,0.8c0.2,0.2,0.2,0.3,0.2,0.6
		C52.9,22.4,52.6,22.8,52.1,22.8 M48.3,18.6c-0.5,0.3-1,0.8-1,1.4c0,0.8,0.5,1.2,1.1,1.2c0.4,0,0.8-0.2,1.4-0.7L48.3,18.6z M49,15.3
		c-0.3,0-0.7,0.3-0.7,0.6c0,0.4,0.5,0.8,0.6,1c0.3-0.2,0.8-0.6,0.8-0.9C49.7,15.5,49.3,15.3,49,15.3"/>
	<path d="M58.6,22.8c-0.5,0-0.9-0.4-0.9-0.9v-3.1c0-0.8-0.5-1.2-1.1-1.2c-0.7,0-1.1,0.5-1.1,1.2v3.1c0,0.5-0.4,0.9-0.9,0.9
		s-0.9-0.4-0.9-0.9v-4.8c0-0.5,0.4-0.9,0.9-0.9c0.4,0,0.6,0.3,0.7,0.6c0.4-0.5,0.9-0.7,1.7-0.7c1.4,0,2.4,0.9,2.4,2.3v3.4
		C59.4,22.4,59,22.8,58.6,22.8"/>
	<path d="M65.5,20.1h-3.6c0.1,0.7,0.7,1.2,1.6,1.2c0.9,0,1.5-0.7,2-0.7c0.4,0,0.7,0.4,0.7,0.8c0,0.8-1.5,1.5-2.9,1.5
		c-2,0-3.3-1.4-3.3-3.4c0-1.8,1.3-3.4,3.2-3.4s3.1,1.7,3.1,3.2C66.3,19.9,66.1,20.1,65.5,20.1 M63.2,17.6c-0.8,0-1.3,0.6-1.3,1.3
		h2.7C64.5,18.2,64,17.6,63.2,17.6"/>
	<path d="M70.3,22.9c-0.5,0-1.2-0.2-1.6-0.7l0,0v2.3c0,0.5-0.4,0.9-0.9,0.9s-0.9-0.4-0.9-0.9v-7.3c0-0.5,0.4-0.9,0.9-0.9
		c0.4,0,0.8,0.3,0.9,0.7c0.3-0.6,1-0.8,1.6-0.8c1.9,0,2.8,1.8,2.8,3.5C73.2,21.2,72.1,22.9,70.3,22.9 M70,17.6c-0.9,0-1.4,1-1.4,1.8
		s0.4,1.9,1.4,1.9c0.9,0,1.4-1.1,1.4-1.8S71,17.6,70,17.6"/>
	<path d="M78.7,22.8c-0.5,0-0.9-0.4-0.9-0.9v-3.1c0-0.8-0.5-1.2-1.1-1.2c-0.7,0-1.1,0.5-1.1,1.2v3.1c0,0.5-0.4,0.9-0.9,0.9
		s-0.9-0.4-0.9-0.9v-7.6c0-0.5,0.4-0.9,0.9-0.9s0.9,0.4,0.9,0.9v2.5l0,0c0.3-0.5,1.2-0.6,1.6-0.6c1.4,0,2.4,0.9,2.4,2.3v3.4
		C79.6,22.4,79.2,22.8,78.7,22.8"/>
	<path d="M85.7,20.1H82c0.1,0.7,0.7,1.2,1.6,1.2s1.5-0.7,2-0.7c0.4,0,0.7,0.4,0.7,0.8c0,0.8-1.5,1.5-2.9,1.5c-2,0-3.3-1.4-3.3-3.4
		c0-1.8,1.3-3.4,3.2-3.4c1.9,0,3.1,1.7,3.1,3.2C86.5,19.9,86.2,20.1,85.7,20.1 M83.3,17.6c-0.8,0-1.3,0.6-1.3,1.3h2.7
		C84.6,18.2,84.1,17.6,83.3,17.6"/>
	<path d="M95,17.4l-1.6,4.8c-0.1,0.3-0.5,0.6-0.8,0.6c-0.4,0-0.7-0.2-0.8-0.6L91,19.4c0-0.1-0.1-0.5-0.2-0.5s-0.1,0.4-0.2,0.5
		l-0.8,2.8c-0.1,0.3-0.4,0.6-0.8,0.6s-0.7-0.2-0.8-0.6l-1.6-4.8c0-0.1-0.1-0.2-0.1-0.3c0-0.5,0.4-0.9,0.9-0.9c0.4,0,0.7,0.2,0.8,0.6
		l0.7,2.7c0,0.1,0.1,0.5,0.1,0.5l0.1-0.5l0.8-2.8c0.1-0.3,0.4-0.6,0.8-0.6s0.7,0.2,0.8,0.6l0.8,2.8c0,0.1,0.1,0.5,0.1,0.5l0.1-0.5
		l0.7-2.7c0.1-0.3,0.4-0.6,0.8-0.6c0.5,0,0.9,0.4,0.9,0.9C95,17.2,95,17.3,95,17.4"/>
</g>
</svg>
