<?xml version="1.0" encoding="utf-8"?>
<!-- Generator: Adobe Illustrator 26.0.1, SVG Export Plug-In . SVG Version: 6.00 Build 0)  -->
<svg version="1.1" id="Layer_1" xmlns="http://www.w3.org/2000/svg" xmlns:xlink="http://www.w3.org/1999/xlink" x="0px" y="0px"
	 viewBox="0 0 95 35" style="enable-background:new 0 0 95 35;" xml:space="preserve">
<style type="text/css">
	.st0{fill:#FFFFFF;}
</style>
<g transform="matrix(3.32042 0 0 3.32042 76.2622 154.161)">
	<path class="st0" d="M-8-44.3h-1.6c-1.1,0-1.8,0.8-1.8,1.7v4.7h1.6v-4.5c0-0.4,0.2-0.5,0.5-0.5h1c0.4,0,0.5,0.2,0.5,0.5v4.5h1.6
		v-4.7C-6.2-43.6-6.9-44.3-8-44.3L-8-44.3z"/>
	<path class="st0" d="M-19.1-41.6l-1.8-0.3c-0.4-0.1-0.5-0.3-0.5-0.6c0-0.3,0.3-0.5,0.6-0.5h2.5l0.2-1.3h-3.1
		c-1.1,0-1.8,0.8-1.8,1.7v0.3c0,0.9,0.7,1.6,1.4,1.7l1.7,0.3c0.3,0,0.5,0.3,0.5,0.5c0,0.4-0.2,0.5-0.5,0.5h-2.5l-0.3,1.3h3.1
		c1.1,0,1.8-0.8,1.8-1.7V-40C-17.8-40.8-18.4-41.5-19.1-41.6z"/>
	<path class="st0" d="M-13.9-44.3h-2.9L-17-43h2.7c0.4,0,0.6,0.3,0.6,0.5c0,0.4-0.1,0.5-0.5,0.6l-1.8,0.3c-0.8,0.1-1.4,0.8-1.4,1.6
		v0.3c0,0.9,0.8,1.7,1.8,1.7h1.6c1.1,0,1.8-0.8,1.8-1.7v-3C-12.1-43.6-12.8-44.3-13.9-44.3z M-14.2-39.3h-1c-0.4,0-0.5-0.2-0.5-0.5
		c0-0.3,0.2-0.5,0.5-0.5l1.6-0.3v0.8C-13.6-39.5-13.8-39.3-14.2-39.3z"/>
	<path class="st0" d="M3.8-38h1.3l0.2-1.3H4L3.8-38z"/>
	<path class="st0" d="M-2.1-44.3h-1.6c-1.1,0-1.8,0.8-1.8,1.7v4.7H-4v-4.5c0-0.4,0.2-0.5,0.5-0.5h1c0.4,0,0.5,0.2,0.5,0.5v4.5h1.6
		v-4.7C-0.3-43.6-1.1-44.3-2.1-44.3L-2.1-44.3z"/>
	<path class="st0" d="M3.8-44.3H2.2c-1.1,0-1.8,0.8-1.8,1.7v3c0,0.9,0.8,1.7,1.8,1.7h1.1l0.2-1.3h-1c-0.4,0-0.6-0.3-0.6-0.5
		c0-0.4,0.1-0.5,0.5-0.6l1.8-0.3c0.8-0.1,1.4-0.8,1.4-1.6v-0.3C5.6-43.6,4.8-44.3,3.8-44.3z M3.6-41.9L2-41.6v-0.9
		C2-42.8,2.1-43,2.5-43h1C3.9-43,4-42.8,4-42.5C4-42.1,3.9-41.9,3.6-41.9z"/>
</g>
</svg>
