<?xml version="1.0" encoding="utf-8"?>
<!-- Generator: Adobe Illustrator 26.0.1, SVG Export Plug-In . SVG Version: 6.00 Build 0)  -->
<svg version="1.1" id="Layer_1" xmlns="http://www.w3.org/2000/svg" xmlns:xlink="http://www.w3.org/1999/xlink" x="0px" y="0px"
	 viewBox="0 0 95 35" style="enable-background:new 0 0 95 35;" xml:space="preserve">
<style type="text/css">
	.st0{fill:#CCCCCC;}
</style>
<path class="st0" d="M38.1,13.8c0-10.5-11-13.2-14.2-13.8c0,0-0.1,0-0.1,0s0,0,0,0c2.4,0.5,10.1,2.7,10.1,8.5c0-5.8-7.8-8-10.1-8.5
	c0,0,0,0,0.1,0.1c1.2,0.3,3.2,1.2,3.2,3c0,6.1-16.6,5.9-17,17.8v0.8c0.3,10.1,11,12.8,14.1,13.3c0.1,0,0.2,0,0.2,0
	c-2.4-0.5-10.1-2.7-10.1-8.5c0,5.8,7.8,8,10.1,8.5c0,0,0,0-0.1-0.1c-1.2-0.3-3.2-1.2-3.2-3C21.1,25.8,38.1,26,38.1,13.8z"/>
<path class="st0" d="M46.6,13.6c0-1.4,1.2-2.1,2.7-2.1c1.6,0,2.6,0.6,3.3,0.9c0.6,0.3,1,0.2,1.4-0.3l0.3-0.5c0.3-0.6,0.2-1-0.3-1.4
	C53.2,9.7,51.8,9,49.5,9c-3.2,0-5.9,1.6-5.9,4.7c0,5.5,8.4,4.5,8.4,7.7c0,1.4-1.2,2.1-2.8,2.1c-1.9,0-3.3-0.8-4-1.3
	c-0.6-0.3-1.1-0.3-1.5,0.2l-0.3,0.5c-0.3,0.5-0.3,1,0.2,1.5c0.9,0.7,2.8,1.8,5.5,1.8c3.5,0,5.9-2,5.9-4.8
	C55,15.7,46.6,16.9,46.6,13.6"/>
<path class="st0" d="M60.1,13.6c0-1.4,1.2-2.1,2.7-2.1c1.6,0,2.6,0.6,3.3,0.9c0.6,0.3,1,0.2,1.4-0.3l0.3-0.5c0.3-0.6,0.2-1-0.3-1.4
	C66.7,9.7,65.2,9,63,9c-3.2,0-5.9,1.6-5.9,4.7c0,5.5,8.4,4.5,8.4,7.7c0,1.4-1.2,2.1-2.8,2.1c-1.9,0-3.3-0.8-4-1.3
	c-0.6-0.3-1.1-0.3-1.5,0.2l-0.3,0.5c-0.3,0.5-0.3,1,0.2,1.5c0.9,0.7,2.8,1.8,5.5,1.8c3.5,0,5.9-2,5.9-4.8
	C68.5,15.7,60.1,16.9,60.1,13.6"/>
<path class="st0" d="M84.7,17.3c0-0.1,0-0.1,0-0.2c0-4.4-2.3-8.1-6.9-8.1c-4.4,0-7.8,3.4-7.8,8.6c0,4.8,3.4,8.6,8.3,8.6
	c2.5,0,4.4-1.1,5.3-1.7c0.6-0.4,0.6-0.9,0.3-1.4l-0.3-0.5c-0.3-0.6-0.9-0.7-1.4-0.3c-0.7,0.6-2,1.3-3.7,1.3c-2.7,0-5.3-1.7-5.5-5.2
	h10.6C84.1,18.1,84.6,17.9,84.7,17.3 M77.8,11.4c2.9,0,4.2,2.6,4.2,4.4h-8.9C73.4,13,75.5,11.4,77.8,11.4"/>
<path class="st0" d="M14.4,28.9c-1.7-1.6-2.7-3.6-3-5.9c-0.6-4.4,1.2-7.8,4.9-10.1c2-1.2,4.1-2.2,6.1-3.3c1.3-0.7,2.5-1.4,3.7-2.2
	c1.5-1.1,2.5-2.6,2.3-4.7c1.9,0.8,3.6,1.9,4.6,3.7c1.2,2,0.9,4.3-1,6.1c-1.3,1.2-2.8,2.3-4.4,3.2c-2.3,1.3-4.7,2.4-7,3.6
	c-1.3,0.7-2.6,1.5-3.8,2.4C14.6,23.5,13.4,25.8,14.4,28.9z"/>
</svg>
