<?xml version="1.0" encoding="utf-8"?>
<!-- Generator: Adobe Illustrator 26.0.1, SVG Export Plug-In . SVG Version: 6.00 Build 0)  -->
<svg version="1.1" id="Layer_1" xmlns="http://www.w3.org/2000/svg" xmlns:xlink="http://www.w3.org/1999/xlink" x="0px" y="0px"
	 viewBox="0 0 95 35" style="enable-background:new 0 0 95 35;" xml:space="preserve">
<style type="text/css">
	.st0{fill:#343741;}
</style>
<g>
	<path class="st0" d="M66.6,13c-1.4,1.6-3.3,2.7-5.4,2.9c-0.1,0-0.3,0-0.4,0c-2,0.1-3.8-0.5-5.4-1.8c-0.4-0.3-0.7-0.6-1-1l0-0.2
		l0.5-0.5l0.1,0c1.7,1.2,3.9,1.3,5.7,0.6c0.9-0.4,1.8-1,2.5-1.8c0.9-1.1,1.4-2.5,1.4-3.9l0-0.6c-0.2-1.6-0.9-3.1-2.2-4.2
		c-1-0.8-2.2-1.3-3.6-1.4L58.8,1V0.3l0.1-0.1C59.4,0,59.9,0,60.5,0c1.8,0,3.6,0.6,5,1.8c1.6,1.4,2.7,3.3,2.9,5.4
		C68.6,9.3,67.9,11.4,66.6,13 M34.3,13.1C36.7,10,39,7,45.9,6.9l0.1-0.1V6.2V6h-0.1c-9,0-13.3,2.2-16.1,4.9c-1.2,1.1-2.1,2.3-3,3.5
		c-2.4,3.1-4.7,6.1-11.6,6.1l-0.1,0.1v0.8v0.1h0.1c7.5,0,11.8-1.6,14.6-3.7C31.8,16.4,33.1,14.7,34.3,13.1 M60.7,6.9l0.1-0.1V6.2V6
		h-0.1c-2.4,0-4.5,0.2-6.3,0.5c-3.8,0.6-6.4,1.8-8.3,3.2c-2,1.4-3.3,3.1-4.6,4.7c-2.4,3.1-4.7,6.1-11.6,6.1l-0.1,0.1v0.8v0.1h0.1
		c9,0,13.3-2.2,16.1-4.9c1.2-1.1,2.1-2.3,3-3.4c1.5-1.9,2.9-3.8,5.3-4.9C55.9,7.4,57.9,6.9,60.7,6.9"/>
	<path class="st0" d="M53,23.7c1.3,0,2.2,0.3,2.9,0.6l0.8-2.7c-0.9-0.4-2.4-0.6-4.1-0.6c-2.9,0-5.9,1-5.9,4.5c0,3.8,5.2,3,5.2,5.2
		c0,1.4-1.7,1.6-2.8,1.6c-1.2,0-2.6-0.3-3.3-0.8l-0.8,2.7c1.2,0.4,2.7,0.7,4.1,0.7c3.1,0,6.5-1,6.4-4.7c0-4.1-5.2-3.4-5.2-5.3
		C50.5,23.9,51.6,23.7,53,23.7 M64.2,23.7c1.3,0,2.2,0.3,2.9,0.6l0.8-2.7c-0.9-0.4-2.4-0.6-4.1-0.6c-2.9,0-5.9,1-5.9,4.5
		c0,3.8,5.2,3,5.2,5.2c0,1.4-1.7,1.6-2.8,1.6c-1.2,0-2.6-0.3-3.3-0.8l-0.8,2.7c1.2,0.4,2.7,0.7,4.1,0.7c3.1,0,6.5-1,6.4-4.7
		c0-4.1-5.2-3.4-5.2-5.3C61.7,23.9,62.8,23.7,64.2,23.7 M76.6,25.6c-0.1,0.7-0.8,1.4-1.7,1.4H73l0.6-2.7h1.8
		C76.3,24.2,76.7,24.9,76.6,25.6 M76.2,21.3H71l-0.2,1c-0.2,1,0.4,1.8,1.3,1.9h0.3c-0.1,0-0.2,0-0.2,0c0.1,0,0.1,0,0.2,0h-0.3
		c-1,0.1-1.9,1-2.1,1.9l-1.8,8.6h1.3c1.1,0,2.1-0.9,2.3-1.9l0.6-2.9h2c2.9,0,5-2.1,5.4-4.3C80.3,23.4,79.2,21.3,76.2,21.3"/>
</g>
</svg>
