<?xml version="1.0" encoding="utf-8"?>
<!-- Generator: Adobe Illustrator 26.0.1, SVG Export Plug-In . SVG Version: 6.00 Build 0)  -->
<svg version="1.1" id="Layer_1" xmlns="http://www.w3.org/2000/svg" xmlns:xlink="http://www.w3.org/1999/xlink" x="0px" y="0px"
	 viewBox="0 0 95 35" style="enable-background:new 0 0 95 35;" xml:space="preserve">
<style type="text/css">
	.st0{fill-rule:evenodd;clip-rule:evenodd;fill:#343741;}
</style>
<g id="Page-1">
	<g id="sc-logo">
		<path id="Combined-Shape" class="st0" d="M4.9,16.8l18.8,12.4c1.5,1,1.8,2.9,0.9,4.4c-1,1.5-2.9,1.9-4.3,0.9L5.8,24.9
			c0,0-1.8-1.1-2.2-3C3,19.3,4.6,17.1,4.9,16.8L4.9,16.8L4.9,16.8z M21.5,7.1c1.7,0,3.1,1.4,3.1,3.1s-1.4,3.1-3.1,3.1
			c-0.7,0-1.3-0.2-1.8-0.6l0,0l-3.9-2.5l3.9-2.5C20.2,7.3,20.7,7.1,21.5,7.1z"/>
		<path id="Combined-Shape_00000083049151115036445710000008172892577372022917_" class="st0" d="M6.5,28.7c0.7,0,1.3,0.2,1.8,0.6
			l0,0l3.9,2.5l-3.9,2.5c-0.5,0.3-1,0.6-1.8,0.6c-1.7,0-3.1-1.4-3.1-3.1C3.4,30.1,4.8,28.7,6.5,28.7z M18.8,1.4
			c0.9,1.5,0.5,3.4-0.9,4.4l-6.7,4.4l11.4,7.5c0,0,0,0,0.1,0.1l0.1,0.1c0.5,0.4,1.9,1.4,2.2,3.1c0.6,2.8-1.3,5.1-1.3,5.1L6.5,14.7
			c0,0-2.2-1.4-2.2-4.5c0-3.1,2.2-4.5,2.2-4.5l7.9-5.2C15.9-0.4,17.9,0,18.8,1.4z"/>
		<path id="Combined-Shape_00000069374749735768490880000010888113185070912667_" class="st0" d="M90.5,16.9l1.1,0.7V26h-1.1v-1.2
			c-0.6,0.8-1.4,1.3-2.5,1.3c-2,0-3.4-1.5-3.4-3.6c0-2.1,1.4-3.6,3.4-3.6c1.1,0,2,0.5,2.5,1.4V16.9z M61.5,16.9l1.1,0.7v6.1
			c0,1,0.6,1.3,1.3,1.3c0.6,0,1.1-0.2,1.6-0.5v1.1c-0.5,0.4-1.1,0.5-1.7,0.5c-1.5,0-2.3-0.7-2.3-2.5V16.9z M80.5,19
			c2,0,3.3,1.5,3.3,3.5c0,0.2,0,0.4,0,0.6h-5.4c0.2,1.2,1.1,2.1,2.5,2.1c0.9,0,1.7-0.3,2.4-0.8v1.1c-0.7,0.5-1.6,0.7-2.4,0.7
			c-2.2,0-3.7-1.4-3.7-3.5C77.1,20.5,78.4,19,80.5,19z M51.6,19c1.1,0,1.9,0.5,2.5,1.3v-1.2h1.1V26h-1.1v-1.2
			c-0.6,0.8-1.4,1.3-2.5,1.3c-2,0-3.4-1.5-3.4-3.6C48.2,20.5,49.6,19,51.6,19z M37.5,19c0.8,0,1.6,0.2,2.2,0.7V21
			c-0.5-0.6-1.3-0.9-2.1-0.9c-1.5,0-2.5,1-2.5,2.5c0,1.5,1,2.5,2.5,2.5c0.8,0,1.6-0.2,2.2-0.7v1.2c-0.7,0.5-1.5,0.7-2.3,0.7
			c-2.1,0-3.6-1.5-3.6-3.6C33.9,20.4,35.4,19,37.5,19z M68.9,19c2,0,3.3,1.5,3.3,3.5c0,0.2,0,0.4,0,0.6h-5.4
			c0.2,1.2,1.1,2.1,2.5,2.1c0.9,0,1.7-0.3,2.4-0.8v1.1c-0.7,0.5-1.6,0.7-2.4,0.7c-2.2,0-3.7-1.4-3.7-3.5C65.6,20.5,66.9,19,68.9,19z
			 M41,16.9l1.1,0.7l0,2.7c0.5-0.8,1.3-1.3,2.4-1.3c1.7,0,2.6,1.3,2.6,3V26H46v-3.9c0-1.3-0.6-2.1-1.8-2.1c-1.3,0-2.1,1.1-2.1,2.5
			V26H41V16.9z M60.6,19v1.3c-1.4-0.2-2.5,0.7-2.5,2.4V26H57v-6.9h1.1v1.5C58.7,19.6,59.5,19,60.6,19z M77,19v1.3
			c-1.4-0.2-2.5,0.7-2.5,2.4V26h-1.1v-6.9h1.1v1.5C75.1,19.6,76,19,77,19z M88.1,20.1c-1.4,0-2.4,1.1-2.4,2.5c0,1.4,1,2.5,2.4,2.5
			c1.4,0,2.4-1.1,2.4-2.5C90.5,21.1,89.5,20.1,88.1,20.1z M51.7,20.1c-1.4,0-2.4,1.1-2.4,2.5c0,1.4,1,2.5,2.4,2.5
			c1.4,0,2.4-1.1,2.4-2.5C54.1,21.1,53.1,20.1,51.7,20.1z M68.9,20c-1.2,0-2,0.9-2.2,2H71C70.9,20.9,70.1,20,68.9,20z M80.5,20
			c-1.2,0-2,0.9-2.2,2h4.2C82.5,20.9,81.7,20,80.5,20z M63.5,19c0.3-0.2,0.7-0.2,0.9,0l0,0l1.1,0.8l-1.1,0.7c-0.3,0.2-0.7,0.2-0.9,0
			l0,0l0,0C62.9,20.1,62.9,19.3,63.5,19z M47.6,8.9c1.1,0,1.9,0.5,2.5,1.3V9h1.1v6.9h-1.1v-1.2c-0.6,0.8-1.4,1.3-2.5,1.3
			c-2,0-3.4-1.5-3.4-3.6C44.2,10.4,45.6,8.9,47.6,8.9z M40.9,6.8v6.8c0,1,0.6,1.3,1.3,1.3c0.6,0,1.1-0.2,1.6-0.5v1.1
			c-0.5,0.4-1.1,0.5-1.7,0.5c-1.5,0-2.3-0.7-2.3-2.5v-6L40.9,6.8z M88.1,6.8v9.1h-1.1v-1.2c-0.6,0.8-1.4,1.3-2.5,1.3
			c-2,0-3.4-1.5-3.4-3.6c0-2.1,1.4-3.6,3.4-3.6c1.1,0,2,0.5,2.5,1.4V7.5L88.1,6.8z M71.9,8.9c1.1,0,1.9,0.5,2.5,1.3V9h1.1v6.9h-1.1
			v-1.2C73.9,15.5,73,16,71.9,16c-2,0-3.4-1.5-3.4-3.6C68.5,10.4,69.9,8.9,71.9,8.9z M36.4,8.9c0.8,0,1.6,0.2,2.1,0.6v1.2
			c-0.6-0.6-1.4-0.9-2.1-0.9c-0.7,0-1.2,0.3-1.2,0.9c0,0.4,0.2,0.7,0.7,0.9l1.6,0.7c0.9,0.4,1.3,0.9,1.3,1.7c0,1.3-1.1,2.1-2.5,2.1
			c-0.9,0-1.7-0.3-2.3-0.7v-1.2c0.7,0.7,1.5,1,2.3,1c0.8,0,1.4-0.4,1.4-1c0-0.4-0.2-0.7-0.7-0.9l-1.6-0.7c-0.8-0.4-1.3-0.8-1.3-1.7
			C34,9.6,35,8.9,36.4,8.9z M67.3,6.8v9.1h-1.1v-1.2c-0.6,0.8-1.4,1.3-2.5,1.3c-2,0-3.4-1.5-3.4-3.6c0-2.1,1.4-3.6,3.4-3.6
			c1.1,0,2,0.5,2.5,1.4V7.5L67.3,6.8z M80.9,8.9v1.3c-1.4-0.2-2.5,0.7-2.5,2.4v3.3h-1.1V9h1.1v1.5C79,9.4,79.8,8.9,80.9,8.9z
			 M56.5,8.9c1.7,0,2.6,1.3,2.6,3v4.1H58V12c0-1.3-0.6-2.1-1.8-2.1c-1.3,0-2.1,1.1-2.1,2.5v3.5H53V9h1.1v1.2
			C54.6,9.4,55.5,8.9,56.5,8.9z M47.7,9.9c-1.4,0-2.4,1.1-2.4,2.5c0,1.4,1,2.5,2.4,2.5c1.4,0,2.4-1.1,2.4-2.5
			C50.1,11,49.1,9.9,47.7,9.9z M63.7,9.9c-1.4,0-2.4,1.1-2.4,2.5c0,1.4,1,2.5,2.4,2.5c1.4,0,2.4-1.1,2.4-2.5
			C66.1,11,65.1,9.9,63.7,9.9z M84.5,9.9c-1.4,0-2.4,1.1-2.4,2.5c0,1.4,1,2.5,2.4,2.5c1.4,0,2.4-1.1,2.4-2.5
			C86.9,11,85.9,9.9,84.5,9.9z M72,9.9c-1.4,0-2.4,1.1-2.4,2.5c0,1.4,1,2.5,2.4,2.5c1.4,0,2.4-1.1,2.4-2.5C74.4,11,73.4,9.9,72,9.9z
			 M42.5,9c0.3-0.2,0.6-0.2,0.9,0l0,0l0,0c0.5,0.3,0.5,1.1,0,1.5c-0.3,0.2-0.7,0.2-0.9,0l0,0l-1.1-0.8L42.5,9z"/>
	</g>
</g>
</svg>
