<?xml version="1.0" encoding="utf-8"?>
<!-- Generator: Adobe Illustrator 26.0.1, SVG Export Plug-In . SVG Version: 6.00 Build 0)  -->
<svg version="1.1" id="Layer_1" xmlns="http://www.w3.org/2000/svg" xmlns:xlink="http://www.w3.org/1999/xlink" x="0px" y="0px"
	 viewBox="0 0 95 35" style="enable-background:new 0 0 95 35;" xml:space="preserve">
<style type="text/css">
	.st0{fill:#CCCCCC;}
</style>
<g>
	<path class="st0" d="M17.4,35h-0.1l-1-2.8l-1,2.8h-0.1L14,31.9c-0.2-0.6-0.3-0.6-0.6-0.6v-0.1h1.4v0.1c-0.3,0-0.4,0.2-0.3,0.5
		l0.9,2.4l0.8-2.2l-0.1-0.2c-0.1-0.3-0.3-0.4-0.5-0.4v-0.1H17v0.1c-0.3,0-0.4,0.1-0.3,0.5l0.9,2.4l0.8-2.1c0.2-0.4,0.1-0.7-0.3-0.7
		v-0.1h1.1v0.1c-0.3,0-0.5,0.2-0.7,0.8L17.4,35"/>
	<path class="st0" d="M22,33.5h-0.1c-0.1-0.3-0.1-0.4-0.5-0.4h-0.9v1.4c0,0.2,0.1,0.3,0.3,0.3h0.7c0.6,0,0.7,0,0.9-0.5h0.1L22.3,35
		h-2.7v-0.1c0.3,0,0.4-0.1,0.4-0.6v-2.4c0-0.5-0.1-0.6-0.4-0.6v-0.1h2.7v0.6h-0.1c-0.1-0.4-0.2-0.4-0.6-0.4h-1.1V33h1.1
		c0.3,0,0.4,0,0.4-0.4H22V33.5"/>
	<path class="st0" d="M25.1,33.4h-1.2l-0.3,0.8c-0.1,0.4-0.2,0.7,0.2,0.7V35h-1v-0.1c0.4-0.1,0.4-0.2,0.6-0.6l1-3.1h0.4l1.1,3.3
		c0.1,0.3,0.2,0.5,0.5,0.5V35h-1.3v-0.1c0.3,0,0.4-0.1,0.3-0.4L25.1,33.4 M24.5,31.6L24.5,31.6l-0.5,1.6H25L24.5,31.6z"/>
	<path class="st0" d="M29.6,35h-2.7v-0.1c0.3,0,0.4-0.2,0.4-0.6v-2.4c0-0.4-0.1-0.5-0.4-0.5v-0.1h1.4v0.1c-0.3,0-0.4,0.2-0.4,0.6
		v2.5c0,0.3,0.1,0.4,0.4,0.4H29c0.5,0,0.6-0.1,0.7-0.6h0.1L29.6,35"/>
	<path class="st0" d="M31.5,34.3c0,0.5,0.1,0.6,0.4,0.6V35h-1.3v-0.1c0.3,0,0.4-0.1,0.4-0.6v-2.9h-0.5c-0.5,0-0.7,0.1-0.8,0.5h-0.1
		v-0.9h0.1c0.1,0,0.1,0.1,0.2,0.1c0.1,0,0.2,0,0.4,0h2c0.3,0,0.5,0,0.6-0.1H33v0.9h-0.1c-0.1-0.3-0.2-0.5-0.8-0.5h-0.6V34.3"/>
	<path class="st0" d="M34.3,33.2v1.1c0,0.5,0.1,0.6,0.4,0.6V35h-1.4v-0.1c0.3,0,0.4-0.1,0.4-0.6v-2.4c0-0.4-0.1-0.6-0.4-0.6v-0.1
		h1.4v0.1c-0.3,0-0.4,0.1-0.4,0.6V33h2.1v-1.1c0-0.5-0.1-0.6-0.4-0.6v-0.1h1.4v0.1c-0.3,0-0.4,0.2-0.4,0.6v2.4
		c0,0.4,0.1,0.6,0.4,0.6V35H36v-0.1c0.3,0,0.4-0.1,0.4-0.6v-1.1H34.3"/>
	<path class="st0" d="M45.2,31.3c-0.3,0-0.4,0.2-0.4,0.6l0.2,2.3c0,0.5,0.1,0.6,0.5,0.6V35h-1.4v-0.1c0.3-0.1,0.4-0.2,0.4-0.6
		l-0.2-2.4h0L43,35h-0.1l-1.3-3.1h0l-0.2,2.3c0,0.4,0.1,0.6,0.5,0.7V35h-1.2v-0.1c0.4-0.1,0.4-0.3,0.5-0.7l0.2-2.6
		c-0.1-0.2-0.3-0.2-0.5-0.3v-0.1h1l1.2,3l1.2-3h0.9V31.3"/>
	<path class="st0" d="M48,33.4h-1.2l-0.3,0.8c-0.1,0.4-0.2,0.7,0.2,0.7V35h-1v-0.1c0.4-0.1,0.4-0.2,0.6-0.6l1-3.1h0.4l1.1,3.3
		c0.1,0.3,0.2,0.5,0.5,0.5V35H48v-0.1c0.3,0,0.4-0.1,0.3-0.4L48,33.4 M47.4,31.6L47.4,31.6l-0.5,1.6h1.1L47.4,31.6z"/>
	<path class="st0" d="M53.2,35h-0.1l-2.7-3.3h0v2.7c0,0.4,0.2,0.5,0.5,0.5V35h-1.1v-0.1c0.3,0,0.5-0.1,0.5-0.6V32
		c0-0.4-0.1-0.7-0.6-0.7v-0.1h1l2.4,2.9h0v-2.2c0-0.5-0.1-0.6-0.5-0.6v-0.1h1.1v0.1c-0.4,0-0.5,0.2-0.5,0.6V35"/>
	<path class="st0" d="M56.3,33.4h-1.2l-0.3,0.8c-0.1,0.4-0.2,0.7,0.2,0.7V35h-1v-0.1c0.4-0.1,0.4-0.2,0.6-0.6l1-3.1h0.4l1.1,3.3
		c0.1,0.3,0.2,0.5,0.5,0.5V35h-1.3v-0.1c0.3,0,0.4-0.1,0.3-0.4L56.3,33.4 M55.7,31.6L55.7,31.6l-0.5,1.6h1.1L55.7,31.6z"/>
	<path class="st0" d="M61.2,35c-0.2,0.1-0.9,0.1-1.1,0.1c-1.7,0-2.2-1-2.2-1.9c0-1.3,1-2.1,1.9-2.1c0.5,0,0.7,0.2,1,0.2
		c0.1,0,0.2,0,0.2-0.1h0.1v1.1h-0.1c-0.1-0.7-0.7-1-1.3-1c-0.8,0-1.4,0.7-1.4,1.7c0,1.1,0.7,1.9,1.6,1.9c0.3,0,0.6-0.1,0.6-0.4v-0.4
		c0-0.5-0.1-0.6-0.4-0.6h-0.1v-0.1h1.5v0.1c-0.4,0-0.5,0.2-0.5,0.5V35"/>
	<path class="st0" d="M64.6,33.5h-0.1c-0.1-0.3-0.1-0.4-0.5-0.4H63v1.4c0,0.2,0.1,0.3,0.3,0.3h0.7c0.6,0,0.7,0,0.9-0.5H65L64.8,35
		h-2.7v-0.1c0.3,0,0.4-0.1,0.4-0.6v-2.4c0-0.5-0.1-0.6-0.4-0.6v-0.1h2.7v0.6h-0.1c-0.1-0.4-0.2-0.4-0.6-0.4H63V33h1.1
		c0.3,0,0.4,0,0.4-0.4h0.1V33.5"/>
	<path class="st0" d="M69.9,31.3c-0.3,0-0.4,0.2-0.4,0.6l0.2,2.3c0,0.5,0.1,0.6,0.5,0.6V35h-1.4v-0.1c0.3-0.1,0.4-0.2,0.4-0.6
		L69,31.9h0L67.7,35h-0.1l-1.3-3.1h0l-0.2,2.3c0,0.4,0.1,0.6,0.5,0.7V35h-1.2v-0.1c0.4-0.1,0.4-0.3,0.5-0.7l0.2-2.6
		c-0.1-0.2-0.3-0.2-0.5-0.3v-0.1h1l1.2,3l1.2-3h0.9V31.3"/>
	<path class="st0" d="M73,33.5h-0.1c-0.1-0.3-0.1-0.4-0.5-0.4h-0.9v1.4c0,0.2,0.1,0.3,0.3,0.3h0.7c0.6,0,0.7,0,0.9-0.5h0.1L73.2,35
		h-2.7v-0.1c0.3,0,0.4-0.1,0.4-0.6v-2.4c0-0.5-0.1-0.6-0.4-0.6v-0.1h2.7v0.6h-0.1c-0.1-0.4-0.2-0.4-0.6-0.4h-1.1V33h1.1
		c0.3,0,0.4,0,0.4-0.4H73V33.5"/>
	<path class="st0" d="M77.3,35h-0.1l-2.7-3.3h0v2.7c0,0.4,0.2,0.5,0.5,0.5V35h-1.1v-0.1c0.3,0,0.5-0.1,0.5-0.6V32
		c0-0.4-0.1-0.7-0.6-0.7v-0.1h1l2.4,2.9h0v-2.2c0-0.5-0.1-0.6-0.5-0.6v-0.1h1.1v0.1c-0.4,0-0.5,0.2-0.5,0.6V35"/>
	<path class="st0" d="M80.2,34.3c0,0.5,0.1,0.6,0.4,0.6V35h-1.3v-0.1c0.3,0,0.4-0.1,0.4-0.6v-2.9h-0.5c-0.5,0-0.7,0.1-0.8,0.5h-0.1
		v-0.9h0.1c0.1,0,0.1,0.1,0.2,0.1c0.1,0,0.2,0,0.4,0h2c0.3,0,0.5,0,0.6-0.1h0.1v0.9h-0.1c-0.1-0.3-0.2-0.5-0.8-0.5h-0.6V34.3"/>
	<path class="st0" d="M14.3,22h-0.2c-0.1-0.8-0.7-1.2-1.2-1.2c-0.6,0-1,0.3-1,0.8c0,1,1.4,1.3,2.2,2.1c0.4,0.4,0.5,0.7,0.5,1.1
		c0,0.9-0.7,1.6-1.6,1.6c-0.6,0-1.1-0.3-1.3-0.3c-0.1,0-0.2,0.1-0.2,0.2h-0.2v-1.5h0.2c0,1,0.9,1.4,1.3,1.4c0.7,0,1.1-0.4,1.1-1
		c0-1-1.5-1.4-2.1-2c-0.3-0.3-0.5-0.7-0.5-1.2c0-0.9,0.6-1.4,1.5-1.4c0.6,0,0.9,0.2,1.1,0.2c0.1,0,0.1,0,0.1-0.2h0.2V22"/>
	<path class="st0" d="M18,25.4c0,0.7,0.1,0.9,0.6,0.9v0.2h-2v-0.2c0.4,0,0.6-0.1,0.6-0.9v-4.3h-0.8c-0.8,0-1.1,0.2-1.1,0.8h-0.2
		v-1.3h0.2c0.1,0.1,0.2,0.1,0.3,0.2c0.1,0,0.3,0,0.5,0h2.9c0.5,0,0.7-0.1,0.9-0.2h0.2v1.3h-0.1c-0.1-0.5-0.3-0.8-1.2-0.8H18V25.4"/>
	<path class="st0" d="M21,26.2c0,0.3-0.2,0.5-0.5,0.5c-0.3,0-0.5-0.2-0.5-0.5c0-0.3,0.2-0.5,0.5-0.5C20.8,25.7,21,25.9,21,26.2"/>
	<path class="st0" d="M25.9,27c0,1.1-0.7,1.5-1.4,1.5c-0.4,0-0.7-0.2-0.9-0.5l0.1-0.1c0.1,0.2,0.3,0.3,0.5,0.3
		c0.4,0,0.9-0.3,0.9-1.4v-5c0-0.7-0.2-0.9-0.6-0.9v-0.2h2V21c-0.5,0-0.6,0.2-0.6,0.9V27"/>
	<path class="st0" d="M30,23.8h-1.6l0.8-2.4h0L30,23.8 M30.6,25.7c0.1,0.4-0.1,0.5-0.4,0.5v0.2h2v-0.2c-0.5,0-0.6-0.2-0.8-0.7
		l-1.6-4.8h-0.6l-1.5,4.6c-0.2,0.5-0.3,0.8-0.8,0.9v0.2h1.4v-0.2c-0.6,0-0.5-0.4-0.3-1l0.4-1.1h1.8L30.6,25.7z"/>
	<path class="st0" d="M38.9,21c-0.5,0-0.7,0.3-0.6,0.9l0.3,3.5c0.1,0.7,0.2,0.9,0.7,0.9v0.2h-2v-0.2c0.5-0.1,0.6-0.3,0.6-0.8
		l-0.3-3.6h0l-1.9,4.6h-0.1l-1.9-4.6h0l-0.3,3.5c0,0.6,0.2,0.9,0.7,1v0.2h-1.7v-0.2c0.6-0.1,0.7-0.4,0.7-1l0.3-3.9
		C33,21.1,32.8,21,32.5,21v-0.2h1.4l1.8,4.4l1.8-4.4h1.3V21"/>
	<path class="st0" d="M43.8,24.3h-0.2c-0.1-0.5-0.2-0.5-0.8-0.5h-1.4v2c0,0.3,0.1,0.4,0.4,0.4h1c0.8,0,1,0,1.4-0.8h0.2l-0.3,1h-4
		v-0.2c0.4,0,0.6-0.1,0.6-0.9v-3.5c0-0.7-0.2-0.9-0.6-0.9v-0.2h4v0.9H44c-0.1-0.6-0.3-0.7-0.9-0.7h-1.6v2.4H43
		c0.4,0,0.5-0.1,0.6-0.5h0.2V24.3"/>
	<path class="st0" d="M48.3,22h-0.2c-0.1-0.8-0.7-1.2-1.2-1.2c-0.6,0-1,0.3-1,0.8c0,1,1.4,1.3,2.2,2.1c0.4,0.4,0.5,0.7,0.5,1.1
		c0,0.9-0.7,1.6-1.6,1.6c-0.6,0-1.1-0.3-1.3-0.3c-0.1,0-0.2,0.1-0.2,0.2h-0.2v-1.5h0.2c0,1,0.9,1.4,1.3,1.4c0.7,0,1.1-0.4,1.1-1
		c0-1-1.5-1.4-2.1-2c-0.3-0.3-0.5-0.7-0.5-1.2c0-0.9,0.6-1.4,1.5-1.4c0.6,0,0.9,0.2,1.1,0.2c0.1,0,0.1,0,0.1-0.2h0.2V22"/>
	<path class="st0" d="M49.6,22.3c0.4-0.3,0.6-0.6,0.6-1c0-0.4-0.6-0.1-0.6-0.6c0-0.2,0.2-0.4,0.4-0.4c0.4,0,0.6,0.3,0.6,0.7
		c0,0.7-0.4,1.3-1.1,1.5V22.3"/>
	<path class="st0" d="M54.6,22h-0.2c-0.1-0.8-0.7-1.2-1.2-1.2c-0.6,0-1,0.3-1,0.8c0,1,1.4,1.3,2.2,2.1c0.4,0.4,0.5,0.7,0.5,1.1
		c0,0.9-0.7,1.6-1.6,1.6c-0.6,0-1.1-0.3-1.3-0.3c-0.1,0-0.2,0.1-0.2,0.2h-0.2v-1.5h0.2c0,1,0.9,1.4,1.3,1.4c0.7,0,1.1-0.4,1.1-1
		c0-1-1.5-1.4-2.1-2c-0.3-0.3-0.5-0.7-0.5-1.2c0-0.9,0.6-1.4,1.5-1.4c0.6,0,0.9,0.2,1.1,0.2c0.1,0,0.1,0,0.1-0.2h0.2V22"/>
	<path class="st0" d="M59.9,21h0.7c1,0,1.4,0.8,1.4,1.4c0,0.8-0.5,1.2-1.4,1.2c-0.3,0-0.4,0-0.7-0.1V21 M59.9,23.8
		c0.4,0,0.6,0.1,0.9,0.1c1.3,0,2-0.5,2-1.4c0-0.8-0.6-1.6-2.2-1.6h-2V21c0.5,0,0.6,0.2,0.6,0.9v3.5c0,0.7-0.2,0.9-0.6,0.9v0.2h2
		v-0.2c-0.5,0-0.6-0.2-0.6-0.9V23.8z"/>
	<path class="st0" d="M67.4,26.4h-4.1v-0.2c0.4,0,0.6-0.2,0.6-0.9v-3.5c0-0.6-0.2-0.8-0.6-0.8v-0.2h2V21c-0.5,0-0.6,0.3-0.6,0.9v3.7
		c0,0.4,0.2,0.5,0.6,0.5h1.1c0.7,0,0.9-0.1,1.1-0.9h0.2L67.4,26.4"/>
	<path class="st0" d="M71.1,23.8h-1.6l0.8-2.4h0L71.1,23.8 M71.7,25.7c0.1,0.4-0.1,0.5-0.4,0.5v0.2h2v-0.2c-0.5,0-0.6-0.2-0.8-0.7
		l-1.6-4.8h-0.6l-1.5,4.6c-0.2,0.5-0.3,0.8-0.8,0.9v0.2h1.4v-0.2c-0.6,0-0.5-0.4-0.3-1l0.4-1.1h1.8L71.7,25.7z"/>
	<path class="st0" d="M78.2,22.4c-0.3-1.1-0.9-1.5-1.8-1.5c-1.3,0-2.1,1.1-2.1,2.5c0,1.7,0.9,2.8,2.1,2.8c0.9,0,1.5-0.4,2-1.2
		l0.1,0.1c-0.4,0.9-1.3,1.4-2.3,1.4c-1.3,0-2.8-0.9-2.8-2.8c0-1.8,1.2-3.1,2.9-3.1c0.7,0,1.2,0.2,1.6,0.2c0.1,0,0.2-0.1,0.3-0.2h0.2
		v1.7H78.2"/>
	<path class="st0" d="M83,24.3h-0.2c-0.1-0.5-0.2-0.5-0.8-0.5h-1.4v2c0,0.3,0.1,0.4,0.4,0.4h1c0.8,0,1,0,1.4-0.8h0.2l-0.3,1h-4v-0.2
		c0.4,0,0.6-0.1,0.6-0.9v-3.5c0-0.7-0.2-0.9-0.6-0.9v-0.2h4v0.9h-0.1c-0.1-0.6-0.3-0.7-0.9-0.7h-1.6v2.4h1.6c0.4,0,0.5-0.1,0.6-0.5
		H83V24.3"/>
	<path class="st0" d="M54.4,2.1c0,0,0.3,0,0.4,0c0.2,0.1,0.4,0.2,0.7,0.2c0.2,0,0.2-0.2,0.2-0.3c0-0.1,0-0.2-0.2-0.2
		c-0.1,0-0.2,0.1-0.2,0.2c0,0,0,0.1-0.1,0.1C55,2.1,54.8,2,54.7,2C54.5,2,54.1,2.2,54.4,2.1 M55.4,2.5c-0.2,0-0.6-0.1-0.6-0.1
		c-0.2,0,0.1,0.4,0.4,0.4C55.5,2.9,55.5,2.7,55.4,2.5C55.5,2.6,55.5,2.5,55.4,2.5 M54.8,2.9c-0.1-0.2-0.2-0.3-0.3-0.3
		c0,0,0.1,0.4,0.2,0.4c0.2,0.1,0.4,0.1,0.4,0C55.2,3,54.9,3.1,54.8,2.9 M51.9,1.1c-0.5,0-0.5,0.3-0.5,0.3s0,0.2,0.1,0.2
		c0.3,0,0.1-0.4,0.4-0.4c0.2,0,0.5,0.2,0.5,0.2C52.4,1.4,52.2,1.1,51.9,1.1 M54.8,13.9c-0.2-0.9,0-1.9,0.5-2.6
		C54.7,12,54.4,13,54.6,14c0.4,1.7,2,2.7,3.5,2.4c0,0,0,0,0.1,0C56.7,16.7,55.2,15.6,54.8,13.9 M59.5,10.7c0-0.3,0-0.4-0.1-0.6
		c0-0.2,0-0.3-0.1-0.5c0-0.2-0.3-0.2-0.4-0.5c-0.1-0.4-0.3-0.4-0.5-0.4c-0.2,0-0.2-0.2-0.2-0.2s-0.4-0.8-1.1-0.8
		c-0.9,0-1.5,0.4-1.6,0.5c-0.2,0.2-0.2,0-0.2,0c0.1-0.3,0.1-0.9,0-1c0-0.1,0.2,0,0.3,0.1c0.1,0.1,0-0.6,0-0.8c0-0.6,0.6-1.1,0.6-1.1
		c0.9,0.1,1.2-0.3,1.1-0.4c-0.1-0.1-0.2,0-0.6-0.1c-0.4-0.2-0.1-0.5-0.1-0.5c0,0,0.3-0.4,0.3-0.5c0-0.2,0.3-0.2,0.3-0.4
		c0-0.5-0.8-1.4-1-1.5c-0.2-0.1,0-0.2-0.2-0.5c-0.3-0.3-0.6-0.1-1.1-0.2c-0.5,0-0.6-0.4-1.1-0.4c-0.6,0-0.5,0.2-0.9,0.2
		c-0.4,0-0.8-0.5-1.3-0.5c-0.3,0-0.7,0.1-0.9,0.6c-0.2,0.6,0.3,0.8,0.3,0.8c-0.9,0.3-1.6,1.6-1.6,1.5c-0.1-0.3-0.1-0.7,0.2-1.3
		c0.3-0.6-0.1-1-0.5-1.1C49,1,49,0.8,49,0.8s-0.1-0.7-1.1-0.7c-1.3,0-1.4,0.4-2.7,0.6c-1.3,0.1-2-0.2-2,0c-0.1,0.3,0.7,0.7,0.6,0.7
		c-0.2,0.1-0.3,0.1-0.6,0.1c-2.3,0.3-2.8-0.3-3,0c-0.2,0.2,0.7,0.7,0.8,0.7c0,0-0.2,0.2-1.1,0.2c-1.2,0-1.2-0.6-1.2-0.8
		c0-0.2,0.1-0.1,0.3-0.1c0.1,0,0.4-0.1,0.4-0.4c0-0.4-0.2-0.6-0.5-0.8c-0.4-0.1-1.7-0.2-1.6,1.4c0,0.4,0.2,0.9,0.5,1.2
		c0.6,0.6,1.5,0.9,1.5,0.9c-0.2,0.8,1.2,0.9,1.2,0.9c-0.1,0.6,0.8,0.8,1,0.8c0.2,0,0.3,0,0.3,0.1c0,0,0.1,0.1,0,0.2
		c-0.1,0-0.4,0-0.5,0c-1.4,0-3,3-4.3,3c-1.1,0-1.4-0.9-1.4-1.2c0,0-0.1-0.7,0.5-1.1c0.5-0.3,1.2,0.2,1.8,0.2c0.6,0,1.1-0.3,1.4-0.8
		c0.3-0.5,0.4-1.1-0.1-1.4c-0.4-0.3-0.7-0.1-0.7,0c0,0.1,0.3,0.4,0,0.6c-0.3,0.1-0.9-0.5-1.6-0.5c-0.7,0-1.2,0.8-1.3,0.8
		c-0.1,0-0.2-0.7-0.4-0.7c-0.1,0-0.9,1.1-0.9,2.7c0,1.6,1.2,3,2.6,3c1.1,0,2-0.9,2.4-1.3c0.1-0.1,0.9-0.9,0.8-0.4
		c-0.3,1.1-1.6,2-1.7,2.1c-0.1,0.1,0,0.1,0.1,0.2c0.1,0.1,0.3,0.1,0.1,0.3c-0.4,0.5-1,0.6-1.3,0.7C36.9,12,37,12.1,37,13.1
		c0,1-0.2,2.1-0.2,2.4c0,0,0,0.3,0,0.3c0,0.1,0.3,0,0.4-0.2c0.1-0.1,0.1,0,0.1,0c0.1,0.3,0.2,0.4,0.4,0.7c0.2,0.3,0.1,0.3,0.3,0.6
		c0.3,0.3,0.8,0.3,1,0.2c0.2-0.1,0.4,0,0.7,0.2c0.3,0.2,0.5,0.2,0.5,0.2c0.3,0,0.3-0.2,0.3-0.4c0-0.1,0.1-0.1,0.2,0
		c0.2,0.1,0.3,0.2,0.6,0.1c0.2-0.1,0-0.5,0-0.5c-0.1-0.2-0.2-0.3-0.2-0.4c-0.2-0.3-0.4-0.2-0.4-0.4c0-0.2-0.3-0.4-0.6-0.4
		c-0.3,0-0.3,0.2-0.6,0.2c-0.3,0-0.6-0.3-0.6-1.1c0-0.7,0.5-1,1.4-1.2c0.9-0.2,1.1-0.4,1.2-0.5c0.1-0.1,0.2,0.5,0.2,1
		c0,0.4,0.1,0.2,0.1,0.2c0.2-0.2,0.3-0.3,0.4-0.3c0.1,0,0,0.3,0,0.6c0,0.3-0.1,0.4,0.7,0.8c1,0.7,1.2,1.5,1.2,1.5
		c0.1,0,0.1-0.4,0.2-0.4c0.1,0,0.3,0.4,0.3,0.4c0.5,0.9,0.8,0.8,1.1,0.8c0.3,0,0.7,0,1.2,0.2c0.5,0.3,0.7,0.1,0.7,0
		c0-0.1,0.1-0.3,0.4-0.2c0.4,0.1,0.5,0.1,0.6,0c0,0,0.1-0.1,0-0.3c-0.1-0.3-0.3-0.4-0.3-0.6c-0.2-0.3-0.3-0.3-0.4-0.4
		c-0.2-0.1-0.3-0.2-0.4-0.4c-0.4-0.3-1,0-1.3-0.2c-1-0.5-1.3-1.4-1.3-1.7c0-0.4,0.1-0.5,0.6-1.2c0.5-0.7,0.1-1.3,0.3-1.5
		c0.1-0.1,0.3-0.1,1.2,1c1,1.2,1.9,1,1.9,1c0,0.1,0.1,0.3,0.1,0.9c0,0.5-0.2,1.1-0.2,1.2c0.1,0.1,0.5-0.4,0.6-0.4
		c0.3,0,0.1,1.6,0.6,2.5c0.3,0.6,1,0.4,1.2,0.3c0.7-0.2,0.9,0.4,1.3,0.3c0.2-0.1,0.1-0.2,0.3-0.4c0.2-0.1,0.3,0.2,0.6,0.2
		c0.1,0,0.2-0.1,0.2-0.3s-0.1-0.3-0.2-0.5c-0.2-0.2-0.1-0.4-0.3-0.6c-0.2-0.2-0.3,0-0.6-0.3c-0.4-0.4-0.8-0.3-0.8-0.3
		c-0.2,0-0.2,0-0.2-0.5c0-1.6,0.5-2.2,0.9-2.4c0.5-0.2,0.8-0.5,0.9-0.6c0.1-0.1,0.1,0,0.1,0.1c0,0,0,0.2,0,0.2c0,0,0.3-0.1,0.6-0.5
		c0.4-0.5,0.5-0.6,0.7-0.7c0.2,0,0,0.2,0,0.2s-0.7,0.8-0.7,2.1c0,2.1,1.7,3.6,3.6,3.6c1.9,0,3.5-1.6,3.5-3.4
		C60.9,11.6,59.5,10.7,59.5,10.7 M59.3,10.3c0.1,0.1,0,0.6,0,0.6c-0.1,0-0.2-0.2-0.2-0.3c0,0,0-0.1,0.1-0.2
		C59.2,10.3,59.3,10.2,59.3,10.3 M57.3,8c0.5,0,0.8,0.5,0.9,0.7c0,0.1,0.1,0.3,0.4,0.2c0.2,0,0.3,0.1,0.3,0.3c0,0.2,0.3,0.2,0.3,0.4
		c0,0.1,0.1,0.3,0,0.4c0,0.1-0.1,0.1-0.2,0.2c0,0-0.1,0-0.1,0c-0.2-0.1-0.5-0.5-0.8-0.5c-0.2,0-0.3,0.1-0.4,0.1
		c-0.1,0-0.4-0.6-1.1-0.5c-0.5,0.1-0.5,0.6-0.7,0.8c-0.5,0.3-1.1,0.7-1.1,0.8c0,0-0.2,0.1-0.2-0.1c0-0.2,0.3-0.4,0.5-1
		C55.3,9.2,55.5,8.1,57.3,8 M58.4,10.3c0,0.1-0.1,0.3-0.2,0.3c-0.1,0-0.3-0.3-0.4-0.4c0,0,0.1-0.2,0.2-0.2
		C58.1,10,58.4,10,58.4,10.3 M57.2,10c-0.2,0-0.5,0-0.8,0.1c-0.1,0-0.1,0-0.1,0c0,0,0.1-0.3,0.3-0.4c0.3-0.1,0.6,0.1,0.7,0.3
		C57.3,9.9,57.3,10,57.2,10 M52,8.2c-0.2-0.9,0.1-1.4,0-1.4c0,0-0.2,0.3-0.2,0.3c0,0,0,0,0,0C51.1,8,49.7,8,49.7,8
		c-0.1,0,0.1-0.1,0.2-0.9c0.1-0.9,0.6-1.2,0.6-1.3c-0.1-0.1-0.3,0.4-1.1,0.2c-0.9-0.2-1,0-1.1,0c0-0.1,0.4-0.5,0.7-0.7
		c0.3-0.2,0.8-0.8,0.8-0.8c0.8,0,1.4-0.3,1.4-0.3c0,0,0,0.2,0,0.2c-0.3,1.1,0,1.9,0.1,1.9c0.1,0,0.1-0.3,0.4-0.6
		c0.2-0.3,0.5-0.4,0.9-0.5c0.4-0.1,0.5-0.4,0.3,0.1C52.7,5.9,53,6.8,53,6.8c0.2,0.3,0.1,0.3,0.3,0.1c0.5-0.6,0.7-0.8,1.3-1.3
		c0,0,0.1-0.1,0.1,0.2c0.1,0.6,0.7,1.1,0.6,2c-0.1,0.8-0.7,1.3-0.7,1.3C54.4,9,54.6,8.6,54.1,8c-0.2-0.4-0.2-0.8-0.3-0.8
		c0,0-0.1,0.1-0.1,0.3c-0.4,1-1.1,1.4-1.3,1.5c-0.3,0.2-0.3,0-0.3,0S52.2,8.7,52,8.2 M57.3,5.2c0,0.1-0.2,0.3-1,0.2
		c-0.3-0.1-0.4-0.2-0.5-0.4c0,0,0-0.1,0.1-0.1c0.1,0,0.4,0,0.7,0.1C57.1,5.2,57.3,5.1,57.3,5.2 M56.1,4.7c0,0.1-0.1,0-0.5,0
		c-0.4,0-0.4-0.4-0.4-0.4c0-0.2,0.2-0.3,0.3-0.2C55.8,4.2,56,4.3,56,4.3C56,4.5,56,4.6,56.1,4.7 M56.2,4.3c0,0,0.1,0,0.2,0
		c0.1,0-0.1,0.5-0.2,0.5C56.2,4.8,56.1,4.3,56.2,4.3 M49.7,3.9c0.2-0.1,0.3-0.3,0.4-0.5c0.3-0.5,0.8-0.9,1.3-1.1
		c0,0,0.7,0.2,0.9-0.2c0-0.1-0.3,0.1-0.6,0c-0.2,0-0.5-0.2-0.5-0.7c0,0,0.1-0.6,0.7-0.6c0.4,0,0.6,0.5,1.3,0.5
		c0.3,0,0.5-0.2,0.8-0.2c0.3,0,0.4,0.4,1.2,0.5c0.8,0,0.7,0,0.8,0.3C56,2.1,56,2.1,56.2,2.2c0.2,0.1,0.9,0.8,0.9,1.2
		c0,0.1-0.2,0.3-0.2,0.3s-0.2-0.3-0.3-0.3c-0.1,0.1,0.2,0.4,0.2,0.4s0,0.2-0.2,0.3c-0.4,0.2-0.7-0.3-1.2-0.3c-0.4,0-0.4,0.7-0.2,0.8
		c0,0.1,0.1,0.1,0.3,0.2c0.2,0.1,0.1,0.3,0.4,0.5c0.2,0.1,0.3,0.1,0.3,0.2c0,0-0.3,0.2-0.5,0.7c-0.2,0.5,0,0.8-0.1,0.7
		c0,0-0.6-0.4-0.7-1.5c0,0-0.1-0.2-0.1-0.2c0,0-0.3,0.5-0.8,0.8c-0.4,0.3-0.7,0.7-0.8,0.7c-0.1,0-0.2-0.4,0-1.4
		c0.1-0.3,0.1-0.5,0.1-0.6c0-0.3-0.4,0.2-1.3,0.5c-0.5,0.2-0.7,0.6-0.8,0.6c-0.1,0-0.1-1,0.2-1.6c0.2-0.6,0.3-0.7,0.3-0.7
		c0,0-1.2,1.2-2.5,0.7C49.1,4.2,49.4,4.1,49.7,3.9 M40.7,4.8c0.8,0,1.4-0.1,1.4-0.2c0-0.1-2.6,0.2-2.6-0.6c0.6,0,1.6,0,1.6-0.2
		c0-0.1-1.9,0.3-3.2-0.9c-0.5-0.5-0.5-1.1-0.5-1.3c0-0.4,0.3-1,0.9-1c0,0,0.7,0,0.7,0.6c0,0.4-0.3,0.2-0.3,0.2s-0.2-0.1-0.2,0.1
		c-0.1,0.1-0.3,1.2,1,1.3c1.3,0.1,1.9-0.3,1.9-0.3C42,2.4,43,2.5,43.1,2.4c0-0.1-1.9-0.3-1.9-0.6c0-0.2,1.1,0.4,3.1-0.3
		C44.7,1.6,46,1.5,46,1.4c0-0.1-1.2,0.2-2.2-0.4c0,0-0.3-0.2,0.1-0.1C44.2,1,45.4,1,46.6,0.6c1.2-0.4,1.8-0.2,1.9,0
		c0.2,0.3,0.2,0.6,0.5,0.7c0.2,0.1,0.4,0.2,0.5,0.4c0,0.1,0.1,0.2,0,0.5c-0.4,1.2-0.2,1.1-0.1,1.6c0,0.1-0.7,0.2-0.7,0.3
		c0,0.1,0.5,0.2,0.7,0.3c0,0-0.1,0.2-0.5,0.6c-0.4,0.4-0.9,0.7-0.9,1.3c0,0.2,0,0.1,0.1,0.1c0,0,0.4-0.4,1.1-0.2
		c0.7,0.2,0.8,0,0.8,0.1c0,0.1-0.1,0.2-0.2,0.5c-0.1,0.3-2.1,1.5-3,0.9c0.2-0.1,0.6-0.5,0.5-0.5c-0.1-0.1-1.3,1-2.3,0
		c0.3-0.1,0.8-0.4,0.7-0.5c0-0.1-1.7,0.8-2.2-0.2c0.5,0,1.4-0.2,1.3-0.3c-0.1-0.1-2.8,0.6-2.8-0.7c0.7,0,1.6-0.1,1.6-0.2
		C43.6,5.2,40.7,5.6,40.7,4.8 M40.2,17.3c-0.1,0-0.4-0.1-0.4-0.3c0,0,0.1-0.2,0.2-0.3c0.1,0,0.3,0.1,0.3,0.3
		C40.3,17.2,40.3,17.3,40.2,17.3 M40.9,16.6c0.2-0.1,0.3,0.4,0.2,0.4c-0.1,0.1-0.5-0.1-0.4-0.2C40.8,16.8,40.7,16.7,40.9,16.6
		 M47.2,17.3c-0.1,0-0.6-0.1-0.5-0.3c0,0,0.1-0.3,0.4-0.1C47.3,17,47.3,17.3,47.2,17.3 M47.8,16.4c0.1,0,0.1,0,0.2,0.1
		c0.2,0.2,0.2,0.5,0.1,0.5c-0.1,0-0.5,0-0.5-0.3C47.7,16.5,47.8,16.5,47.8,16.4 M44.9,12.3c-0.2,0.3-0.6,0.5-0.6,1.3
		c0,0.8,0.8,1.7,1.6,2c0.5,0.2,0.7-0.1,1.1,0.1c0.1,0.1,0.2,0.2,0.5,0.3c0.3,0.1,0.3,0.2,0.2,0.3c-0.2,0.2-0.1,0.5-0.1,0.5
		c-0.1,0.1-0.5-0.3-0.8-0.2c-0.3,0.1-0.1,0.3-0.2,0.3c-0.1,0-0.4-0.1-0.8-0.1c-0.5,0-0.7-0.2-1-0.7c-0.3-0.5-0.5-0.9-0.6-0.9
		c-0.1,0,0,0.3-0.1,0.3c-0.1,0-0.6-0.8-1.4-1.2c-0.1-0.1-0.2-0.1-0.1-0.5c0.1-0.4,0.2-1.1,0.1-1.1c-0.1,0-0.5,0.5-0.6,0.5
		c0,0,0-0.3,0-0.4c0,0,0-0.5,0.3-1c0.3-0.5,0.5-0.9,1.1-0.9c0.3,0,0.3,0.2,0.5,0.2c0.2,0,0.3-0.4,0.9-0.4
		C45.4,10.6,45.1,12,44.9,12.3 M52.2,17.5c-0.1,0-0.6-0.3-0.4-0.4c0,0,0.2-0.1,0.4,0C52.3,17.2,52.3,17.5,52.2,17.5 M53,16.7
		c0.2,0,0.4,0.4,0.2,0.5c-0.2,0.1-0.5-0.1-0.4-0.2C52.8,17,52.8,16.7,53,16.7 M54.4,10.6c-0.4,0.4-1,1.4-1,1.4
		c-0.1-0.1,0.1-0.5,0-0.6s-0.1,0.2-0.5,0.5c-0.2,0.2-0.4,0.3-0.7,0.4c-0.3,0.1-0.5,0.2-0.8,0.6c-0.6,0.7-0.5,2.4-0.4,2.7
		c0.1,0.2,0.3,0.1,0.6,0.1c0.3,0,0.4,0.2,0.6,0.4c0.2,0.1,0.3,0,0.5,0.1c0.2,0,0.2,0.2,0.2,0.3c0,0.2-0.2,0.5-0.4,0.5
		c-0.2,0-0.3-0.2-0.5-0.2c-0.2,0-0.2,0.1-0.3,0.1C51.5,17,51.4,17,51.2,17c-0.4,0-0.4,0.1-0.8,0.1c-0.4,0-0.7-0.6-0.7-1.7
		c0-1.1-0.3-1.2-0.5-1.2c-0.1,0-0.2,0-0.3,0.2c-0.2,0.2-0.1-0.1-0.1-0.1c0.2-0.8,0-1.3,0-1.8c-0.1-1.1,0.1-1.3,0.4-1.6
		c0.3-0.3,0.5-0.6,0.5-0.8c0-0.2-0.1,0-0.1,0c-0.3,0.7-0.8,0.7-1.1,1.1c-0.3,0.5-0.2,1.3-0.2,1.3c-1.2,0-1.6-1-2.1-1.4
		c-0.5-0.5-0.9-0.8-1.5-0.8c-0.6,0-0.8,0.2-0.9,0.2c-0.1,0.1-0.3,0.2-0.4,0.1c-0.1-0.1-0.5-0.1-0.6,0c-0.1,0-0.1-0.1-0.1-0.1
		c0.1-0.4,0.6-0.5,0.6-0.5s0.3,0,0.1-0.1c-0.7,0-1.1,0.5-1.4,1.2c-0.3,0.6-0.2,0.7-0.8,1.2c-0.5,0.6-1.6,0.5-2.3,0.9
		c-0.4,0.2-0.7,0.9-0.6,1.4c0.1,0.6,0.2,0.9,0.6,1c0.4,0.1,0.6-0.1,0.8-0.1c0.2,0,0.3,0.2,0.3,0.3c0,0.1,0,0.2,0.2,0.2
		c0.2,0,0.3,0.2,0.3,0.3c0,0.1,0,0.1-0.1,0.2c-0.1,0,0,0.2-0.2,0.2c-0.2,0-0.3-0.3-0.5-0.2c-0.3,0-0.3,0.3-0.3,0.4
		c-0.1,0.1-0.1,0-0.2,0c-0.3-0.1-0.5,0.1-0.9,0.1c-0.4,0-0.5-0.5-0.6-0.7c-0.1-0.2-0.4-0.4-0.4-0.7c0-0.2-0.1-0.5-0.2-0.5
		c-0.1,0-0.2,0.2-0.3,0.2c-0.1,0,0.2-0.6,0.2-2.4c0-0.8,0-0.8,0.3-1c0.6-0.2,1-0.5,1.3-0.9c0.2-0.2-0.1-0.3-0.2-0.4
		c-0.1-0.1,0-0.1,0.1-0.2c0.2-0.2,0.8-0.6,1.2-1.3c0.3-0.4,0.6-1.4,0.1-1.4c-0.4,0-1.9,2-3.2,2c-1.3,0-2.2-1.1-2.4-2.3
		c-0.2-1.2,0.3-2.5,0.5-2.6c0.2,0,0.1,1,0.3,1c0.1,0,0.4-1.4,1.5-1.4c0.8,0,1.3,0.8,1.7,0.5C39,5,38.6,4.6,38.7,4.5
		c0.1-0.1,0.6,0.1,0.6,0.7c0,0.6-0.7,1.2-1.3,1.2c-0.7,0-0.8-0.3-1.5-0.3c-0.6,0-1.1,0.7-1.1,1.2c0,0.5,0.2,1.6,1.5,1.7
		C38,9,39.5,7.1,40,6.6c0.6-0.6,1.4-0.8,1.7-0.4c0.3,0.3,1.2,0.4,1.2,0.4c0.7,1.1,1.6,0.7,1.6,0.7c0.5,1,1.9,0.6,1.9,0.6
		c1,0.9,3.1-0.5,3.1-0.5c-0.1,0.5-0.3,0.7-0.4,0.8c-0.2,0.1,0,0.1,0,0.1c1.4,0.2,2.5-0.5,2.5-0.5s0,0,0,0.1c0,0.6,0.3,1,0.2,1.5
		C51.8,9.5,52,9.4,52,9.4c1.4-0.5,1.8-1.6,1.8-1.6s0,0.1,0.2,0.5c0.2,0.4,0.2,0.9,0.1,1.2C54.1,9.9,55,9,55,9
		C54.9,9.7,54.7,10.2,54.4,10.6 M57.3,16.8c-1.8,0-3.3-1.5-3.3-3.3c0-1.8,1.5-3.3,3.3-3.3c0,0,0.1,0,0.1,0c0,0,0.3,0,0.4,0.3
		c0.1,0.1,0.2,0.3,0.4,0.3c0.2,0,0.2-0.4,0.4-0.4c0.3,0,0.6,0.7,0.7,0.7c0.1,0,0.1-0.2,0.1-0.2c0.7,0.6,1.1,1.5,1.1,2.5
		C60.6,15.3,59.2,16.8,57.3,16.8 M37.7,16.9c-0.1,0,0,0.1-0.8,0.2c-0.8,0.1-0.6,0.1-0.6,0.1H38c0.1,0-0.1-0.1-0.2-0.2
		C37.7,17,37.7,16.9,37.7,16.9 M49,17.2c-0.8,0.1-0.4,0.1-0.4,0.1h1c0,0-0.1-0.2-0.1-0.3C49.4,16.9,49.2,17.1,49,17.2 M44.5,16.9
		c-0.1-0.1,0,0-0.8,0.2c-0.8,0.1-1.1,0.1-1.1,0.1H45C45,17.3,44.7,17.2,44.5,16.9 M55.3,16.9c-0.1,0-0.1,0-0.1,0
		c-0.1,0-0.4,0.2-0.7,0.3c-0.3,0.1-0.2,0.1-0.2,0.1h2c0,0,0.1,0-0.1-0.1C55.7,17.1,55.4,16.9,55.3,16.9"/>
</g>
</svg>
