<?xml version="1.0" encoding="utf-8"?>
<!-- Generator: Adobe Illustrator 26.0.1, SVG Export Plug-In . SVG Version: 6.00 Build 0)  -->
<svg version="1.1" id="Layer_1" xmlns="http://www.w3.org/2000/svg" xmlns:xlink="http://www.w3.org/1999/xlink" x="0px" y="0px"
	 viewBox="0 0 95 35" style="enable-background:new 0 0 95 35;" xml:space="preserve">
<style type="text/css">
	.st0{fill:#343741;}
</style>
<path class="st0" d="M6.1,0v35h82.8V0H6.1z M87.5,33.5H7.5l0-15.2h79.9V33.5z M87.5,16.9H7.5l0-15.2h79.9V16.9z"/>
<path class="st0" d="M22.1,13h-2.7c-1.4,0-2.8-0.2-2.8-2v-0.7h1.2V11c0,0.6,0.2,0.9,1.5,0.9h3c1.4,0,1.7-0.3,1.7-1.2
	c0-0.8-0.2-1-1.4-1h-1.8c-3,0-4.1-0.2-4.1-2.2c0-1.8,1.1-2.1,3.1-2.1h2.1c2.3,0,3.2,0.6,3.2,2v0.4h-1.2l0-0.1c0-1,0-1.2-2.6-1.2h-1
	c-1.9,0-2.4,0.1-2.4,1.1c0,0.7,0.1,1,1.7,1h2.9c2,0,2.8,0.6,2.8,1.9v0.5C25.1,13,23.2,13,22.1,13 M34.9,12.9h-7.4V5.4h7.3v1.1h-6.1
	v2h5.9v1.1h-5.9v2.2h6.1v0.9V12.9z M42.3,12.9H41l0-0.1l-4-7.2l-0.1-0.2h1.4l0,0.1l3.4,6.1L45,5.5l0-0.1h1.4l-0.1,0.2L42.3,12.9
	L42.3,12.9z M55.9,12.9h-7.4V5.4h7.3v1.1h-6.1v2h5.9v1.1h-5.9v2.2h6.1v0.9L55.9,12.9z M66.6,12.9h-1.2v-1.7c0-1-0.4-1.1-1.3-1.1
	h-4.6v2.8h-1.2V5.4h5.9c2.1,0,2.5,0.7,2.5,2.2v0.6c0,0.9-0.4,1.2-0.9,1.4c0.6,0.2,0.8,0.7,0.8,1.3v1.8V12.9z M59.5,9h4.5
	c1.2,0,1.4-0.3,1.4-0.9V7.4c0-0.6-0.2-0.9-1.6-0.9h-4.3V9z M78.5,12.9h-1.6l0,0l-6.4-6.1v6.1h-1.2V5.4h1.6l0,0l6.4,6.1V5.4h1.2v7.3
	V12.9z M26.8,29.5h-1.2v-6.4h-3.6v-1.1h8.5v1.1h-3.6v6.3V29.5z M40.9,29.5h-1.2v-1.7c0-1-0.4-1.1-1.3-1.1h-4.6v2.8h-1.2v-7.5h5.9
	c2.1,0,2.5,0.7,2.5,2.2v0.6c0,0.9-0.4,1.2-0.9,1.4c0.6,0.2,0.8,0.7,0.8,1.3v1.8L40.9,29.5z M33.8,25.6h4.5c1.2,0,1.4-0.3,1.4-0.9
	v-0.7c0-0.6-0.2-0.9-1.6-0.9h-4.3L33.8,25.6z M50.9,29.5h-7.4v-7.5h7.3v1.1h-6.1v2h5.9v1.1h-5.9v2.2h6.1v0.9V29.5z M62.5,29.5h-1.6
	l0,0l-6.4-6.1v6.1h-1.2v-7.5h1.6l0,0l6.4,6.1v-6.1h1.2v7.3L62.5,29.5z M69.6,29.5h-1.2v-6.4h-3.6v-1.1h8.5v1.1h-3.6v6.3L69.6,29.5z"
	/>
</svg>
