<?xml version="1.0" encoding="utf-8"?>
<!-- Generator: Adobe Illustrator 26.0.1, SVG Export Plug-In . SVG Version: 6.00 Build 0)  -->
<svg version="1.1" id="Layer_1" xmlns="http://www.w3.org/2000/svg" xmlns:xlink="http://www.w3.org/1999/xlink" x="0px" y="0px"
	 viewBox="0 0 95 35" style="enable-background:new 0 0 95 35;" xml:space="preserve">
<style type="text/css">
	.st0{fill:#343741;}
</style>
<g>
	<path class="st0" d="M7.5,8.7H4.8v7.1H2.8V8.7H0.1V7.1h7.4V8.7z"/>
	<path class="st0" d="M12.3,12.5h-1.9v3.4H8.5V7.1h4.3c1,0,1.8,0.2,2.3,0.7c0.5,0.5,0.8,1.1,0.8,2c0,0.6-0.2,1.2-0.5,1.6
		c-0.3,0.4-0.7,0.8-1.3,0.9l1.9,3.5H14L12.3,12.5z M10.4,11h2.1c0.2,0,0.5,0,0.7-0.1c0.2-0.1,0.4-0.2,0.6-0.4C14,10.3,14,10,14,9.7
		c0-0.2,0-0.4-0.1-0.5s-0.3-0.3-0.5-0.5c-0.2-0.1-0.5-0.2-0.9-0.2h-2.1V11z"/>
	<path class="st0" d="M26.2,7.8C26.8,8.3,27,9,27,10c0,0.9-0.3,1.7-0.9,2.2c-0.6,0.5-1.4,0.8-2.5,0.8h-1.9v2.9h-1.9V7.1h3.9
		C24.8,7.1,25.6,7.3,26.2,7.8z M24.7,11c0.3-0.2,0.4-0.6,0.4-1c0-0.4-0.1-0.8-0.4-1c-0.3-0.2-0.6-0.4-1.1-0.4h-1.9v2.7h1.9
		C24.1,11.3,24.5,11.2,24.7,11z"/>
	<path class="st0" d="M31.6,10.2c0.2,0,0.4,0.1,0.6,0.2l-0.4,1.5c-0.4-0.1-0.8-0.2-1.1-0.2c-0.4,0-0.7,0.1-1,0.3v3.8h-1.8v-5.5h1.4
		l0.2,0.6c0.2-0.2,0.4-0.4,0.7-0.5c0.3-0.1,0.5-0.2,0.8-0.2C31.2,10.2,31.4,10.2,31.6,10.2z"/>
	<path class="st0" d="M33.2,15.2c-0.5-0.5-0.8-1.2-0.8-2.1c0-0.9,0.3-1.6,0.8-2.1c0.5-0.5,1.3-0.8,2.3-0.8c1,0,1.7,0.2,2.3,0.8
		c0.5,0.5,0.8,1.2,0.8,2.1c0,0.9-0.3,1.6-0.8,2.1c-0.5,0.5-1.3,0.8-2.3,0.8C34.5,15.9,33.7,15.7,33.2,15.2z M36.5,14.1
		c0.2-0.2,0.4-0.6,0.4-1c0-0.4-0.1-0.8-0.4-1s-0.6-0.4-1-0.4c-0.4,0-0.7,0.1-1,0.4s-0.4,0.6-0.4,1c0,0.4,0.1,0.8,0.4,1
		s0.6,0.4,1,0.4C35.9,14.4,36.2,14.3,36.5,14.1z"/>
	<path class="st0" d="M45,10.9c0.5,0.5,0.7,1.2,0.7,2.1c0,0.9-0.2,1.6-0.7,2.1c-0.5,0.5-1.2,0.8-2.1,0.8c-0.3,0-0.6,0-0.8-0.1
		c-0.3-0.1-0.5-0.2-0.7-0.3V18h-1.8v-7.7h1.4l0.1,0.4c0.5-0.4,1.2-0.5,1.9-0.5C43.9,10.2,44.6,10.4,45,10.9z M43.6,14.1
		c0.3-0.2,0.4-0.6,0.4-1c0-0.2,0-0.4-0.1-0.6s-0.2-0.4-0.5-0.5c-0.2-0.1-0.5-0.2-0.9-0.2c-0.4,0-0.8,0.1-1.1,0.3v2.2
		c0.3,0.1,0.7,0.2,1.1,0.2C42.9,14.4,43.3,14.3,43.6,14.1z"/>
	<path class="st0" d="M51.6,10.9c0.5,0.5,0.7,1.2,0.7,2.1v0.5h-4c0.1,0.2,0.2,0.4,0.4,0.6s0.4,0.3,0.6,0.3c0.2,0.1,0.4,0.1,0.6,0.1
		c0.3,0,0.6,0,1-0.1s0.6-0.2,0.9-0.3l0.4,1.2c-0.3,0.2-0.7,0.3-1.2,0.4s-0.9,0.2-1.3,0.2c-1,0-1.8-0.2-2.3-0.8
		c-0.5-0.5-0.8-1.2-0.8-2.1c0-0.9,0.3-1.6,0.8-2.1s1.3-0.8,2.2-0.8C50.4,10.2,51.1,10.4,51.6,10.9z M50.7,12.6
		c0-0.4-0.1-0.6-0.3-0.8c-0.2-0.2-0.4-0.3-0.8-0.3c-0.4,0-0.7,0.1-0.9,0.3c-0.2,0.2-0.4,0.5-0.4,0.8H50.7z"/>
	<path class="st0" d="M57,10.2c0.2,0,0.4,0.1,0.6,0.2l-0.4,1.5c-0.4-0.1-0.8-0.2-1.1-0.2c-0.4,0-0.7,0.1-1,0.3v3.8h-1.8v-5.5h1.4
		l0.2,0.6c0.2-0.2,0.4-0.4,0.7-0.5c0.3-0.1,0.5-0.2,0.8-0.2C56.6,10.2,56.8,10.2,57,10.2z"/>
	<path class="st0" d="M62.7,15.5c-0.3,0.1-0.6,0.2-0.9,0.3c-0.3,0.1-0.7,0.1-1,0.1c-0.7,0-1.2-0.2-1.6-0.5c-0.4-0.4-0.5-0.9-0.5-1.5
		v-2h-0.9v-1.6h0.9V8.6l1.8-0.3v2h2v1.6h-2v2c0,0.2,0.1,0.4,0.2,0.5c0.1,0.1,0.3,0.2,0.6,0.2c0.3,0,0.7-0.1,1-0.3L62.7,15.5z"/>
	<path class="st0" d="M69.2,10.3l-2.5,6c-0.2,0.6-0.6,1-0.9,1.3c-0.4,0.3-0.8,0.4-1.3,0.4c-0.3,0-0.6,0-0.8-0.1s-0.5-0.2-0.7-0.3
		l0.3-1.2c0.4,0.2,0.7,0.3,1,0.3c0.2,0,0.4,0,0.5-0.1c0.1-0.1,0.3-0.2,0.4-0.4l0.1-0.3l-2.3-5.6h1.8l1.3,3.9l1.3-3.9H69.2z"/>
	<path class="st0" d="M2.7,19.1v8.8H0.8v-8.8H2.7z"/>
	<path class="st0" d="M9.3,22.6C9.7,23,9.9,23.4,9.9,24v3.8H8.1v-3.3c0-0.3-0.1-0.5-0.3-0.6c-0.2-0.1-0.4-0.2-0.7-0.2
		s-0.7,0.1-1,0.2v3.9H4.2v-5.5h1.4l0.2,0.4c0.7-0.4,1.3-0.6,2-0.6C8.4,22.2,8.9,22.3,9.3,22.6z"/>
	<path class="st0" d="M16.7,22.3l-1.9,5.6h-2.3l-2-5.6h1.8l1.3,4.1l1.3-4.1H16.7z"/>
	<path class="st0" d="M22.1,22.9c0.5,0.5,0.7,1.2,0.7,2.1v0.5h-4c0.1,0.2,0.2,0.4,0.4,0.6c0.2,0.2,0.4,0.3,0.6,0.3
		c0.2,0.1,0.4,0.1,0.6,0.1c0.3,0,0.6,0,1-0.1c0.3-0.1,0.6-0.2,0.9-0.3l0.4,1.2c-0.3,0.2-0.7,0.3-1.2,0.4c-0.4,0.1-0.9,0.2-1.3,0.2
		c-1,0-1.8-0.2-2.3-0.8C17.3,26.7,17,26,17,25.1c0-0.9,0.3-1.6,0.8-2.1c0.5-0.5,1.3-0.8,2.2-0.8C20.9,22.2,21.6,22.4,22.1,22.9z
		 M21.2,24.6c0-0.4-0.1-0.6-0.3-0.8s-0.4-0.3-0.8-0.3c-0.4,0-0.7,0.1-0.9,0.3s-0.4,0.5-0.4,0.8H21.2z"/>
	<path class="st0" d="M25.4,24.1c0,0.1,0.1,0.1,0.3,0.2c0.1,0.1,0.4,0.1,0.9,0.2c0.4,0.1,0.8,0.1,0.9,0.2c0.2,0.1,0.4,0.1,0.5,0.2
		c0.1,0.1,0.3,0.2,0.4,0.3c0.1,0.1,0.2,0.2,0.3,0.4s0.1,0.4,0.1,0.6c0,0.6-0.2,1-0.7,1.3c-0.5,0.3-1.1,0.5-1.9,0.5
		c-0.5,0-1-0.1-1.4-0.2c-0.5-0.1-0.9-0.3-1.2-0.5l0.5-1.1c0.3,0.2,0.6,0.3,0.9,0.4c0.3,0.1,0.6,0.1,1,0.1c0.3,0,0.6,0,0.7-0.1
		c0.1-0.1,0.2-0.2,0.2-0.4c0-0.1-0.1-0.2-0.2-0.3s-0.4-0.1-0.7-0.2s-0.6-0.1-0.7-0.1c-0.6-0.1-1-0.3-1.2-0.6s-0.4-0.6-0.4-1
		c0-0.6,0.2-1,0.6-1.3s1-0.5,1.8-0.5c0.4,0,0.9,0.1,1.3,0.2c0.4,0.1,0.8,0.3,1.1,0.5l-0.6,1.1c-0.5-0.3-1.1-0.5-1.7-0.5
		c-0.3,0-0.6,0-0.7,0.1c-0.2,0.1-0.2,0.2-0.2,0.4C25.3,24,25.3,24.1,25.4,24.1z"/>
	<path class="st0" d="M34,27.5c-0.3,0.1-0.6,0.2-0.9,0.3c-0.3,0.1-0.7,0.1-1,0.1c-0.7,0-1.2-0.2-1.6-0.5S30,26.5,30,25.9v-2h-0.9
		v-1.6H30v-1.7l1.8-0.3v2h2v1.6h-2v2c0,0.2,0.1,0.4,0.2,0.5s0.3,0.2,0.6,0.2c0.3,0,0.7-0.1,1-0.3L34,27.5z"/>
	<path class="st0" d="M43.6,22.6c0.3,0.3,0.5,0.8,0.5,1.4v3.8h-1.8v-3.3c0-0.6-0.3-0.9-1-0.9c-0.4,0-0.7,0.1-1,0.2v0v3.9h-1.8v-3.4
		c0-0.5-0.3-0.8-1-0.8c-0.3,0-0.7,0.1-1,0.2v3.9h-1.8v-5.5h1.4l0.1,0.4c0.7-0.4,1.4-0.5,2.1-0.5c0.4,0,0.7,0.1,1,0.2
		c0.3,0.1,0.5,0.3,0.7,0.5v0c0.3-0.2,0.6-0.4,1-0.5c0.4-0.1,0.8-0.2,1.1-0.2C42.8,22.2,43.3,22.3,43.6,22.6z"/>
	<path class="st0" d="M50.3,22.9c0.5,0.5,0.7,1.2,0.7,2.1v0.5h-4c0.1,0.2,0.2,0.4,0.4,0.6s0.4,0.3,0.6,0.3c0.2,0.1,0.4,0.1,0.6,0.1
		c0.3,0,0.6,0,1-0.1s0.6-0.2,0.9-0.3l0.4,1.2c-0.3,0.2-0.7,0.3-1.2,0.4c-0.4,0.1-0.9,0.2-1.3,0.2c-1,0-1.8-0.2-2.3-0.8
		c-0.5-0.5-0.8-1.2-0.8-2.1c0-0.9,0.3-1.6,0.8-2.1s1.3-0.8,2.2-0.8C49.1,22.2,49.8,22.4,50.3,22.9z M49.3,24.6
		c0-0.4-0.1-0.6-0.3-0.8c-0.2-0.2-0.4-0.3-0.8-0.3c-0.4,0-0.7,0.1-0.9,0.3s-0.4,0.5-0.4,0.8H49.3z"/>
	<path class="st0" d="M57.1,22.6c0.4,0.3,0.6,0.8,0.6,1.4v3.8h-1.8v-3.3c0-0.3-0.1-0.5-0.3-0.6c-0.2-0.1-0.4-0.2-0.7-0.2
		s-0.7,0.1-1,0.2v3.9H52v-5.5h1.4l0.2,0.4c0.7-0.4,1.3-0.6,2-0.6C56.2,22.2,56.7,22.3,57.1,22.6z"/>
	<path class="st0" d="M63.3,27.5c-0.3,0.1-0.6,0.2-0.9,0.3c-0.3,0.1-0.7,0.1-1,0.1c-0.7,0-1.2-0.2-1.6-0.5s-0.5-0.9-0.5-1.5v-2h-0.9
		v-1.6h0.9v-1.7l1.8-0.3v2h2v1.6h-2v2c0,0.2,0.1,0.4,0.2,0.5s0.3,0.2,0.6,0.2c0.3,0,0.7-0.1,1-0.3L63.3,27.5z"/>
	<path class="st0" d="M73.1,20.7h-2.7v7.1h-1.9v-7.1h-2.7v-1.7h7.4V20.7z"/>
	<path class="st0" d="M76.5,22.2c0.2,0,0.4,0.1,0.6,0.2l-0.4,1.5c-0.4-0.1-0.8-0.2-1.1-0.2c-0.4,0-0.7,0.1-1,0.3v3.8h-1.8v-5.5h1.4
		l0.2,0.6c0.2-0.2,0.4-0.4,0.7-0.5c0.3-0.1,0.5-0.2,0.8-0.2C76.1,22.2,76.3,22.2,76.5,22.2z"/>
	<path class="st0" d="M83.4,22.3v5.5H82l-0.2-0.5c-0.3,0.2-0.6,0.4-1,0.5c-0.4,0.1-0.8,0.2-1.2,0.2c-0.6,0-1.1-0.2-1.4-0.5
		c-0.3-0.3-0.5-0.8-0.5-1.4l0-3.8h1.8v3.4c0,0.5,0.3,0.8,1,0.8c0.3,0,0.6-0.1,1-0.3v-3.9H83.4z"/>
	<path class="st0" d="M86.2,24.1c0,0.1,0.1,0.1,0.3,0.2c0.1,0.1,0.4,0.1,0.9,0.2c0.4,0.1,0.8,0.1,0.9,0.2c0.2,0.1,0.4,0.1,0.5,0.2
		c0.1,0.1,0.3,0.2,0.4,0.3c0.1,0.1,0.2,0.2,0.3,0.4c0.1,0.2,0.1,0.4,0.1,0.6c0,0.6-0.2,1-0.7,1.3c-0.5,0.3-1.1,0.5-1.9,0.5
		c-0.5,0-1-0.1-1.4-0.2c-0.5-0.1-0.9-0.3-1.2-0.5l0.5-1.1c0.3,0.2,0.6,0.3,0.9,0.4c0.3,0.1,0.6,0.1,1,0.1c0.3,0,0.6,0,0.7-0.1
		c0.1-0.1,0.2-0.2,0.2-0.4c0-0.1-0.1-0.2-0.2-0.3c-0.1-0.1-0.4-0.1-0.7-0.2s-0.6-0.1-0.7-0.1c-0.6-0.1-1-0.3-1.2-0.6
		c-0.3-0.3-0.4-0.6-0.4-1c0-0.6,0.2-1,0.6-1.3s1-0.5,1.8-0.5c0.4,0,0.9,0.1,1.3,0.2s0.8,0.3,1.1,0.5l-0.6,1.1
		c-0.5-0.3-1.1-0.5-1.7-0.5c-0.3,0-0.6,0-0.7,0.1c-0.2,0.1-0.2,0.2-0.2,0.4C86.2,24,86.2,24.1,86.2,24.1z"/>
	<path class="st0" d="M94.9,27.5c-0.3,0.1-0.6,0.2-0.9,0.3c-0.3,0.1-0.7,0.1-1,0.1c-0.7,0-1.2-0.2-1.6-0.5s-0.5-0.9-0.5-1.5v-2H90
		v-1.6h0.9v-1.7l1.8-0.3v2h2v1.6h-2v2c0,0.2,0.1,0.4,0.2,0.5s0.3,0.2,0.6,0.2c0.3,0,0.7-0.1,1-0.3L94.9,27.5z"/>
</g>
</svg>
