<?xml version="1.0" encoding="utf-8"?>
<!-- Generator: Adobe Illustrator 26.0.1, SVG Export Plug-In . SVG Version: 6.00 Build 0)  -->
<svg version="1.1" id="Layer_1" xmlns="http://www.w3.org/2000/svg" xmlns:xlink="http://www.w3.org/1999/xlink" x="0px" y="0px"
	 viewBox="0 0 95 35" style="enable-background:new 0 0 95 35;" xml:space="preserve">
<style type="text/css">
	.st0{fill-rule:evenodd;clip-rule:evenodd;fill:#343741;}
	.st1{fill:#343741;}
</style>
<g>
	<path class="st0" d="M84.1,4c-6.9,0-10.9,4-10.9,8.9c0,4.9,4,8.9,10.9,8.9S95,17.8,95,13C95,8.1,91,4,84.1,4 M84.1,19.3
		c-3.5,0-5.8-2.9-5.8-6.3c0-3.5,2.3-6.3,5.8-6.3s5.8,2.9,5.8,6.3C89.8,16.4,87.6,19.3,84.1,19.3 M0.8,4.4h19.3v4.2
		C18.7,7.4,15.8,7,12.7,7v11.5c0,1.7,0.2,2.2,0.8,3.1H7.4c0.7-0.9,0.8-1.4,0.8-3.1V7c-3.1,0-6,0.5-7.4,1.6V4.4z M29.3,18.9
		c2,0,5.3-0.5,6.6-1.6v4.2h-14c0.7-0.8,0.8-1.4,0.8-3V7.4c0-1.7-0.1-2.2-0.8-3h13.3v4.2C33.9,7.5,30.6,7,28.6,7H27v4.6h1.1
		c1.1,0,2.9,0,4-0.5v3.4c-1.1-0.4-2.9-0.5-4-0.5H27V19L29.3,18.9L29.3,18.9z M47.8,11c3.4,0.5,6.1,1.7,6.1,5.3c0,4.3-4,5.7-8.4,5.6
		c-3.1,0-5.7-0.3-7.6-1.1V17c2.7,1.8,5.5,2.3,7.6,2.3c2.1,0,4.1-0.5,4.1-2.2s-1.8-2-5.5-2.6c-3.2-0.5-6.1-1.9-6.1-5
		c0-4.3,4-5.6,7.9-5.6c2.5,0,4.9,0.3,7.1,1v4.2c-1.9-1.7-4.6-2.6-7.3-2.6c-1.9,0-3.6,0.6-3.6,2C42,10.3,44.6,10.6,47.8,11L47.8,11z
		 M66.8,4c2,0,3.7,0.2,5.1,0.6v4.3c-1.4-1.4-3-2.3-5.1-2.3c-3.9,0-6.5,2.7-6.5,6.3s2.6,6.3,6.5,6.3c2.1,0,3.7-0.9,5.1-2.3v4.3
		c-1.4,0.4-3.1,0.6-5.1,0.6c-6.7,0-11.6-3.4-11.6-9C55.2,7.3,60.1,4,66.8,4L66.8,4z"/>
	<path class="st1" d="M94.8,26.2H83.1c-1.9,0-3.4,1.2-4.1,2c0,0-1.8,1.9-3,2.6l0,0l0,0l0,0.1h11.1c2.2,0,3.2-0.8,4.5-2.1
		c0,0,1.8-1.9,3.2-2.5h0l0,0L94.8,26.2L94.8,26.2L94.8,26.2L94.8,26.2"/>
	<path class="st1" d="M75.8,26.2H64.2l0,0c-1.9,0-3.4,1.2-4.1,2c0,0-1.8,1.9-3,2.6l0,0l0,0l0,0.1h11.1c2.2,0,3.2-0.8,4.5-2.1
		c0,0,1.8-1.9,3.2-2.5h0l0,0L75.8,26.2L75.8,26.2L75.8,26.2L75.8,26.2"/>
	<path class="st1" d="M45.2,26.2L45.2,26.2L45.2,26.2L45.2,26.2 M56.8,26.2H45.2c-1.9,0-3.4,1.2-4.1,2c0,0-1.8,1.9-3,2.6l0,0l0,0
		l0,0.1h11.1c2.2,0,3.2-0.8,4.5-2.1c0,0,1.8-1.9,3.2-2.5h0l0,0L56.8,26.2L56.8,26.2L56.8,26.2L56.8,26.2"/>
	<path class="st1" d="M37.8,26.2H26.2c-1.9,0-3.4,1.2-4.1,2c0,0-1.8,1.9-3,2.6l0,0l0,0l0,0.1h11.1c2.2,0,3.2-0.8,4.5-2.1
		c0,0,1.8-1.9,3.2-2.5h0l0,0L37.8,26.2L37.8,26.2L37.8,26.2L37.8,26.2"/>
	<path class="st1" d="M18.9,26.2H7.2c-1.9,0-3.4,1.2-4.1,2c0,0-1.8,1.9-3,2.6l0,0l0,0L0,31h11.1c2.2,0,3.2-0.8,4.5-2.1
		c0,0,1.8-1.9,3.2-2.5h0l0,0L18.9,26.2L18.9,26.2L18.9,26.2L18.9,26.2"/>
</g>
</svg>
