<?xml version="1.0" encoding="utf-8"?>
<!-- Generator: Adobe Illustrator 26.0.1, SVG Export Plug-In . SVG Version: 6.00 Build 0)  -->
<svg version="1.1" id="Layer_1" xmlns="http://www.w3.org/2000/svg" xmlns:xlink="http://www.w3.org/1999/xlink" x="0px" y="0px"
	 viewBox="0 0 95 35" style="enable-background:new 0 0 95 35;" xml:space="preserve">
<g>
	<g>
		<path d="M27.9,11.5c0,1.4-1.2,2.2-2.1,2.2c-0.8,0-1.3-0.3-1.3-1.4c0-1.3,0.8-1.9,2.3-1.9c0.4,0,0.7,0,1.2,0.1v1H27.9z M31.7,14
			c-1.1,0.3-1.4-0.3-1.4-1.1c0-1.9,0.1-2.9,0.1-4.5c0-2.1-1.4-2.8-3.9-2.8c-2.3,0-3.8,0.5-3.8,1.8c0,0.7,0.6,1.2,1.3,1.2
			c0.8,0,1.3-0.5,1.3-1.2c0-0.4-0.1-0.6-0.2-0.8c-0.1-0.1,0-0.2,0.1-0.2c0.2-0.1,0.5-0.1,1-0.1C27.3,6.3,28,6.8,28,8v1.7
			c-0.5,0-0.9,0-1.4,0c-3.1,0-4.5,1.2-4.5,3c0,1.5,1.2,2.3,2.7,2.3c1.7,0,2.5-0.8,3.2-1.6c0.4,1.2,1.3,1.6,2.3,1.6
			c0.6,0,1.2-0.1,1.6-0.2C32,14.7,31.8,14,31.7,14"/>
		<path d="M21.8,2.1H10.2C10,2.1,10,2.3,10,2.4v3.5C9.9,6,10.1,6,10.3,6c0.1,0,0.3,0,0.4-0.1l1.2-3h2.8c0.1,1.8,0.1,3.6,0.1,5.5
			c0,2,0,3.8-0.1,5.6h-2.1c-0.1,0-0.1,0.1-0.1,0.4c0,0.2,0.1,0.4,0.1,0.4h7.1c0.1,0,0.1-0.1,0.1-0.4c0-0.3-0.1-0.4-0.1-0.4h-2.1
			c-0.1-1.8-0.1-3.6-0.1-5.6c0-1.9,0-3.7,0.1-5.5h2.8l1.1,3C21.3,6,21.5,6,21.7,6C21.8,6,22,6,22,5.9V2.5C22,2.3,22,2.1,21.8,2.1"/>
		<path d="M64.8,5.6c-1.1,0-2.3,0.5-3.1,2.3l0,0l0-1.9c0-0.1-0.1-0.2-0.2-0.2h-3.8c-0.1,0-0.1,0.1-0.1,0.4c0,0.2,0.1,0.4,0.1,0.4
			h1.5c0.1,1.2,0.1,2.4,0.1,3.6c0,1.3,0,2.6-0.1,3.8h-1.5c-0.1,0-0.1,0.1-0.1,0.4c0,0.2,0.1,0.4,0.1,0.4h5.5c0.1,0,0.1-0.1,0.1-0.4
			c0-0.3-0.1-0.4-0.1-0.4h-1.6c0-1.3,0-2.2,0-3.4c0-2,1.2-3.6,2-3.9c0.1-0.1,0.2,0,0.1,0.2c0,0.1,0,0.2,0,0.3c0,0.7,0.5,1.3,1.3,1.3
			s1.3-0.5,1.3-1.3C66.4,6.3,65.8,5.6,64.8,5.6"/>
		<path d="M52.1,14.2c-1.4,0-2.3-1.2-2.3-3.9s1-3.9,2.3-3.9s2.3,1.2,2.3,3.9C54.3,13.1,53.4,14.2,52.1,14.2 M52.1,5.6
			c-2.9,0-5,1.7-5,4.6c0,3,2,4.7,5,4.7c2.9,0,4.9-1.6,4.9-4.7C57,7.3,54.9,5.6,52.1,5.6"/>
		<path d="M47,13.9h-1.4c0-1.2,0-4.6,0-6.1c0-2.9,0-5.3,0.1-7.8c0-0.1-0.1-0.2-0.2-0.2h-3.9c-0.1,0-0.1,0.1-0.1,0.4s0.1,0.4,0.1,0.4
			h1.5c0.1,2.8,0.1,5.2,0.1,7.4s0,4-0.1,5.8h-1.5c-0.1,0-0.1,0.1-0.1,0.4c0,0.2,0.1,0.4,0.1,0.4H47c0.1,0,0.1-0.1,0.1-0.4
			C47.2,14.1,47.1,13.9,47,13.9"/>
		<path d="M41.6,6.3c0-0.3-0.1-0.4-0.1-0.4h-3c-0.1,0-0.1,0.1-0.1,0.4c0,0.2,0.1,0.4,0.1,0.4h1l-2.2,5.8c-0.9-2-1.7-3.9-2.4-5.8h1.3
			c0.1,0,0.1-0.1,0.1-0.4s-0.1-0.4-0.1-0.4h-5c-0.1,0-0.1,0.1-0.1,0.4c0,0.2,0.1,0.4,0.1,0.4h1c1,2.2,2.8,6.4,3.7,8.8l-0.7,1.8
			c-0.6,1.6-1.2,2-1.8,2c-0.1,0-0.1,0-0.2,0c0.3-0.2,0.4-0.6,0.4-1c0-0.8-0.6-1.4-1.5-1.4c-0.9,0-1.5,0.6-1.5,1.4
			c0,0-0.1,1.8,2.2,1.8c1.9,0,2.6-1.4,3.2-2.8l4.3-10.5h1C41.6,6.6,41.6,6.5,41.6,6.3"/>
	</g>
	<path d="M26.7,18h-1.4c-0.1,0-0.1-0.1-0.1-0.4c0-0.2,0.1-0.4,0.1-0.4H29c0.1,0,0.1,0.1,0.1,0.4S29,18,29,18h-1.3l-3.4,11.8
		c0,0.1-0.1,0.1-0.2,0.1h-1.5c-0.1,0-0.1,0-0.2-0.1L19.1,20l-3.2,9.8c0,0.1-0.1,0.1-0.2,0.1h-1.5c-0.1,0-0.2-0.1-0.2-0.1L10.9,18
		H9.8c-0.1,0-0.1-0.1-0.1-0.4c0-0.2,0.1-0.4,0.1-0.4h5.4c0.1,0,0.1,0.1,0.1,0.4S15.2,18,15.2,18h-1.3l2.1,9.1l3-9.7
		c0-0.1,0.1-0.1,0.2-0.1h1.6c0.1,0,0.2,0.1,0.2,0.1l3.3,9.8L26.7,18z"/>
	<path d="M33.5,21.2c0,1.6-0.1,3-0.1,4.2c0,1.3,0,2.4,0.1,3.7h1.3c0.1,0,0.1,0.1,0.1,0.4c0,0.2-0.1,0.4-0.1,0.4h-5.3
		c-0.1,0-0.1-0.1-0.1-0.4s0.1-0.4,0.1-0.4H31c0.1-1.3,0.1-2.4,0.1-3.6s0-2.5-0.1-3.7h-1.5c-0.1,0-0.1-0.1-0.1-0.4s0.1-0.4,0.1-0.4
		h3.8C33.5,21,33.5,21.1,33.5,21.2"/>
	<path d="M45.9,22.9c0.9-1.5,2.1-2.1,3.5-2.1c1.6,0,2.6,0.7,2.6,2.8s0,3.9,0,5.6h1.4c0.1,0,0.1,0.1,0.1,0.4c0,0.2-0.1,0.4-0.1,0.4
		h-5.1c-0.1,0-0.1-0.1-0.1-0.4s0.1-0.4,0.1-0.4h1.3c0-1.6,0.1-3.3,0.1-5.2c0-1.5-0.3-1.9-1.1-1.9c-1.2,0-2.6,1.2-2.6,3.5
		c0,2.1,0,2.1,0,3.7h1c0.1,0,0.1,0.1,0.1,0.4c0,0.2-0.1,0.4-0.1,0.4h-4.8c-0.1,0-0.1-0.1-0.1-0.4s0.1-0.4,0.1-0.4h1.3
		c0-1.6,0.1-3.3,0.1-5.2c0-1.5-0.3-1.9-1.1-1.9c-1.2,0-2.6,1.2-2.6,3.5c0,1.6,0,2.4,0,3.7H41c0.1,0,0.1,0.1,0.1,0.4
		c0,0.2-0.1,0.4-0.1,0.4h-5c-0.1,0-0.1-0.1-0.1-0.4s0.1-0.4,0.1-0.4h1.5c0-1.2,0.1-2.5,0.1-3.9c0-1.2,0-2.4-0.1-3.5H36
		c-0.1,0-0.1-0.1-0.1-0.4s0.1-0.4,0.1-0.4h3.8c0.1,0,0.2,0.1,0.2,0.2c0,0.5-0.1,1.2-0.1,1.7l0,0c0.9-1.5,2.1-2.1,3.5-2.1
		C44.9,20.8,45.7,21.4,45.9,22.9L45.9,22.9z"/>
	<path d="M57.2,25.4c0,2.6,1.2,3.7,2.6,3.7c1.3,0,2.1-1.1,2.1-3.7s-0.8-3.8-2.1-3.8C58.4,21.7,57.2,23,57.2,25.4 M57.3,28.7
		c0,1.6-0.1,2.9,0,5.4h1.6c0.1,0,0.1,0.1,0.1,0.4c0,0.2-0.1,0.4-0.1,0.4h-5.5c-0.1,0-0.1-0.1-0.1-0.4c0-0.3,0.1-0.4,0.1-0.4h1.5
		C55,32.8,55,31,55,29.2c0-2.1,0-4.7-0.1-7.4h-1.7c-0.1,0-0.1-0.1-0.1-0.4s0.1-0.4,0.1-0.4h3.9c0.1,0,0.2,0.1,0.2,0.2v1.2l0,0
		c0.7-1.1,2-1.6,3.2-1.6c2.4,0,4.2,1.7,4.2,4.7s-2,4.6-4.4,4.6C58.7,30,57.8,29.4,57.3,28.7L57.3,28.7z"/>
	<path d="M72,24.3c0.1-1.8-0.5-2.8-1.7-2.8s-1.8,0.9-2,2.9L72,24.3z M68.3,25.1v0.3c0,2.5,1.1,3.9,2.7,3.9c1.2,0,2.3-0.6,3-1.8
		c0.1-0.1,0.7,0.2,0.6,0.4c-0.9,1.6-2.4,2.2-4,2.2c-3.2,0-4.9-1.6-4.9-4.7c0-3,1.8-4.6,4.9-4.6c2.8,0,4.1,1.7,4.1,4.2
		c0,0.1-0.1,0.2-0.2,0.2L68.3,25.1z"/>
	<path d="M79.7,30.5c-1-2.4-2.7-6.6-3.7-8.8h-1c-0.1,0-0.1-0.1-0.1-0.4s0.1-0.4,0.1-0.4h5c0.1,0,0.1,0.1,0.1,0.4
		c0,0.2-0.1,0.4-0.1,0.4h-1.3c0.7,1.9,1.5,3.8,2.4,5.8l2.2-5.8h-1c-0.1,0-0.1-0.1-0.1-0.4s0.1-0.4,0.1-0.4h3c0.1,0,0.1,0.1,0.1,0.4
		c0,0.2-0.1,0.4-0.1,0.4h-1L80,32.2c-0.6,1.4-1.2,2.8-3.2,2.8c-1.2,0-2.1-0.7-2.1-1.7c0-0.8,0.5-1.3,1.3-1.3s1.3,0.5,1.3,1.3
		c0,0.3-0.1,0.5-0.2,0.7c0,0.1,0,0.1,0,0.2c0,0,0.1,0.1,0.2,0.1c0.6,0,1.1-0.3,1.8-2L79.7,30.5z"/>
</g>
</svg>
