<?xml version="1.0" encoding="utf-8"?>
<!-- Generator: Adobe Illustrator 26.0.1, SVG Export Plug-In . SVG Version: 6.00 Build 0)  -->
<svg version="1.1" id="Layer_1" xmlns="http://www.w3.org/2000/svg" xmlns:xlink="http://www.w3.org/1999/xlink" x="0px" y="0px"
	 viewBox="0 0 95 35" style="enable-background:new 0 0 95 35;" xml:space="preserve">
<style type="text/css">
	.st0{fill:#FFFFFF;}
</style>
<g>
	<path class="st0" d="M36,28.9c-0.3,0.1-0.6,0.5-0.5,1.1c0,0.3,0.2,0.6,0.2,0.8c0.1,0.3,0.2,0.7,0.1,1.7c-0.2,1.2-0.6,2-1.6,2
		c-0.7,0-1.3-0.5-1.3-1.8c-0.1-1.2,0-1.8,0.2-2.8c0.1-0.5,0.1-0.9-0.3-0.8c-0.5,0.1-0.7,0.3-0.8,0.9c-0.3,1.1-0.4,1.8-0.3,2.5
		c0.1,1.6,0.8,2.6,2.4,2.6c1.9,0,2.6-1.8,2.7-3.2c0.1-1.1,0-1.9-0.1-2.4C36.5,28.9,36.4,28.8,36,28.9z"/>
	<path class="st0" d="M62.4,30.9c-1.7,0-2.1,2.6-2.3,2.6c-0.5,0-0.3-2.1-0.6-2.1c-0.3,0-0.4,0.3-0.5,0.5c-0.2,0.9-0.9,2.3-1.9,2.3
		c-0.2,0-0.7-0.1-0.7-0.3c0-0.3,1.6-0.3,1.6-1.5c0-0.5-0.4-1.1-1-1.1c-0.8,0-1.6,0.9-1.6,2.1c0,1.1,0.7,1.5,1.4,1.5
		c1.2,0,1.9-1,2.3-1.8c0.2,0.5,0.3,1.8,0.7,1.8c0.2,0,0.3-0.1,0.5-0.6c0.5-1.2,1.1-2.6,1.8-2.6c0.3,0,0.1,0.5,0.8,0.5
		c0.3,0,0.5-0.3,0.5-0.5C63.3,31.3,62.9,30.9,62.4,30.9z M56.7,32.1c0.4,0,0.5,0.5,0.4,0.7c-0.1,0.3-0.4,0.6-0.9,0.7
		C56,33.2,56,32.1,56.7,32.1z"/>
	<path class="st0" d="M42.7,29.3c0,0.3,0.2,0.5,0.5,0.5c0.4,0,0.7-0.5,0.7-0.9c0-0.3-0.3-0.5-0.6-0.5C43,28.5,42.7,28.8,42.7,29.3z"
		/>
	<path class="st0" d="M54.6,31c-0.4,0-0.7,0.5-0.7,1.1c0,0.5,0.1,0.6,0.1,0.9c0,0.5-0.3,1.1-0.6,1.1c-0.7,0-0.9-2.9-1.3-2.9
		c-0.3,0-0.4,0.3-0.5,0.5c-0.4,1.1-0.9,2.4-2,2.4c-0.2,0-0.4-0.1-0.6-0.2c0.7-0.5,1.2-0.9,1.2-1.5c0-0.5-0.3-1.2-0.9-1.2
		c-0.7,0-1.5,1.1-1.5,2.3c0,0.2,0,0.4,0.1,0.5c-0.1,0.1-0.3,0.2-0.5,0.2c-0.5,0-1-0.5-1.1-0.8c0.4-0.8,1.1-1.7,1-3.9
		c-0.1-0.8-0.5-1.3-1-1.3c-0.7,0-1.4,1.7-1.3,3.5c0,0.3,0.2,1.3,0.4,1.8c-0.4,0.6-0.8,0.7-1.1,0.7c-0.4,0-1-0.2-1-1.1
		c0.3-0.7,0.1-1.6-0.3-1.6c-0.5,0-0.7,1-0.7,1.6c-0.2,0.4-0.4,0.7-0.7,0.7c-0.8,0-0.9-2.5-1.5-2.5c-0.5,0-1.3,1.6-1.6,1.6
		c-0.1,0-0.3-0.5-0.4-0.9c0-0.1,0-0.3-0.1-0.3c-0.2,0-0.4,0.1-0.4,0.3c-0.1,0.2-0.2,0.8-0.4,1.3c-0.1,0.3-0.3,1-0.3,1.2
		c0,0.2,0.1,0.3,0.2,0.3c0.5,0,2.1-2,2.6-2c0.7,0,0.8,2,1.6,2c0.5,0,0.9-1.2,1.1-1.2c0.3,0,0.5,1.2,1.3,1.2c1.1,0,1.5-0.7,1.8-0.7
		c0.3,0,0.6,0.7,1.2,0.7c0.4,0,0.8-0.1,1.2-0.4c0.3,0.3,0.6,0.4,0.9,0.4c1.8,0,2.3-1.6,2.7-1.6c0.3,0,0.3,1.6,1.2,1.6
		c1.2,0,2.1-2.2,2.1-3.3C55,31.3,54.9,31,54.6,31z M46.3,32.6c-0.1,0-0.2-0.1-0.3-0.9c-0.1-1.2,0.1-2.3,0.5-2.4
		c0.3,0,0.4,0.2,0.4,0.7C46.9,31.2,46.5,32.6,46.3,32.6z M48.9,33.6c-0.1-0.1-0.2-0.3-0.2-0.8c0-0.6,0.4-0.8,0.5-0.8
		c0.2,0,0.4,0.3,0.4,0.6C49.6,33,49.4,33.5,48.9,33.6z"/>
	<path class="st0" d="M58,4.6c-0.3,0-0.7,0.3-1.2,0.3c-0.1,0-0.3,0-0.5,0c0.2,0.1,0.1,0.4,0.2,0.6c0.1,0.2,0.3,0.2,0.4,0.2
		c0.4,0,1.3-0.3,1.3-0.8C58.3,4.8,58.2,4.6,58,4.6z"/>
	<path class="st0" d="M57,6c-0.3,0-0.4,0.2-0.4,0.3c0,0.3,0.3,0.4,0.6,0.4c1,0,1.9-0.8,1.9-1.5c0-0.3-0.2-0.6-0.5-0.6
		c0.1,0.1,0.1,0.2,0.1,0.3C58.7,5.4,57.9,6,57,6z"/>
	<path class="st0" d="M59.1,6.1c-0.4,0.9-1.6,1.1-2,1c0.1,0.9,1.5,2.1,1.9,2.1c0.3,0,0.3-1.2,0.3-2.1C59.4,6.6,59.4,6.2,59.1,6.1z"
		/>
	<path class="st0" d="M36,16.8c0.2,0.5,0.5,0.5,1.1,0.6c-0.4-0.3-0.4-0.6-0.4-0.9c0-0.5,0.5-1.4,0.8-2.1c0.4-0.8,0.9-2,0.9-2.6
		c0-0.2-0.1-0.3-0.2-0.3c-0.1,0-0.2,0.1-0.3,0.4c-0.2,0.5-0.6,1.6-0.9,1.6c0,0-0.1,0-0.1-0.1c0-0.4,0.6-1.7,0.6-2.2
		c0-0.1-0.1-0.3-0.2-0.3c-0.4,0-0.8,2.2-1,2.2c-0.1,0-0.1-0.1-0.1-0.2c0-0.4,0.2-1,0.2-1.5c0-0.2,0-0.3-0.2-0.3c-0.5,0-0.5,2-0.8,2
		c-0.1,0-0.2,0-0.2-0.5c0-0.4,0-0.7,0-0.8c0-0.1,0-0.1-0.1-0.1c-0.3,0-0.5,1.1-0.5,2.1c0,1.2,0.2,1.9,0.5,1.9c0.3,0,0.7-0.7,0.7-1
		c0-0.1-0.1-0.2-0.1-0.3c-0.2-0.4,0-0.8,0.2-0.8c0.3,0,0.3,0.2,0.6,0.5c0.1,0.1,0.2,0.2,0.2,0.4c0,0.7-1.4,1.6-1.4,3.3
		c0,1.9,1.4,2.2,1.6,2.6C37.9,18.6,35,18.8,36,16.8z"/>
	<path class="st0" d="M37.9,15.5c-0.2,0-0.3-0.2-0.4-0.2c-0.1,0-0.1,0.2-0.1,0.2c0,0.4,0.3,0.6,0.5,0.6c0.4,0,0.7-0.3,0.7-1v-1
		c0-0.4,0-0.8,0.3-1.1c0,0.1,0,0.3,0,0.4c0,0.8,0.5,1.4,0.5,2.2c0,0.3-0.1,0.5-0.3,0.5c-0.2,0-0.2-0.2-0.3-0.2c0,0-0.1,0.1-0.1,0.3
		c0,0.2,0.1,0.5,0.5,0.5c0.3,0,0.6-0.3,0.6-0.7c0-0.9-0.7-1.8-0.7-2.8c0-0.4,0.1-0.7,0.2-0.9c0,1.9,1.6,3.3,1.6,4.1
		c0,0.2-0.1,0.3-0.3,0.3c-0.2,0-0.3-0.2-0.3-0.3c0-0.1,0-0.1,0-0.1c-0.1,0-0.2,0.2-0.2,0.4c0,0.3,0.3,0.7,0.7,0.7
		c0.5,0,0.8-0.5,0.8-0.9c0-1-2-2.5-2-4.2c0-0.3,0-0.7,0.3-1.1c-1.3,0.8-1.7,1.9-1.7,2.9C38.3,15,38.3,15.5,37.9,15.5z"/>
	<path class="st0" d="M54.5,7.1c0.9,0,1.6-0.3,1.6-0.8c0-0.4-0.4-1.3-0.7-1.3c-0.2,0-0.5,0.2-0.7,0.2c-0.3,0-0.2-0.4-0.6-0.4
		c-0.1,0-0.2,0-0.3,0.1c-0.7,0.3-1.2,0.2-1.4,0.3c0,0-0.1,0-0.1,0.1C52.5,6,53.2,7.1,54.5,7.1z M53.5,5.7c0.1,0,0.4,0.2,0.8,0.2
		C54.8,6,55.1,6,55.2,6c0.1,0,0.2,0,0.2,0.1c0,0.1-0.3,0.3-0.7,0.3C53.9,6.4,53.5,6,53.5,5.7C53.5,5.7,53.5,5.7,53.5,5.7z"/>
	<path class="st0" d="M40,23.4c1.4,0,1.8-1,1.8-1.6c0-1.5-0.9-2.5-2.1-2.5c-0.6,0-1.2,0.5-1.2,1.1c0,0.6,0.5,1.6,1.6,1.6
		c0.5,0,0.9-0.4,0.9-0.8c0-0.4-0.4-1-1-1c-0.2,0-0.3,0.1-0.3,0.3c0,0.2,0.3,0.5,0.7,0.5c0.1,0,0.2,0,0.2,0c0,0,0,0.1,0,0.1
		c0,0.2-0.2,0.4-0.5,0.4c-0.5,0-1-0.4-1-0.9c0-0.3,0.3-0.6,0.7-0.6c0.9,0,1.4,0.8,1.4,1.5c0,0.7-0.4,1.1-1.1,1.1
		c-1.5,0-2.3-1.4-2-2.8c-0.3,0.1-0.8,0.6-0.8,1.4C37.3,22,38.3,23.4,40,23.4z"/>
	<path class="st0" d="M44.8,23.4c-0.1,0.6-0.5,0.7-0.9,0.7c-0.3,0-0.6-0.1-0.7-0.2c-0.1-0.8-0.8-1.3-1-1.4c0,0.1,0,0.2,0,0.3
		c0,0.7-0.5,1.1-1.4,1.1c-0.1,0-0.3,0-0.5,0c1,1.1,1.7,0.7,2.2,0.9c0.6,0.3,1.1,1.1,3.1,1.1c0.7,0,1.5-0.3,1.9-0.6
		c0.1,0.3,0.4,0.5,0.9,0.5c0.8,0,1.3-0.3,1.3-0.5c0-0.1,0-0.1-0.2-0.1c-0.1,0-0.1,0-0.6,0c-0.5,0-1.4-0.2-1.8-1.1
		C47.3,24,47.2,24,47.1,24c-0.3,0-0.7,1-2.4,1c-0.7,0-1-0.3-1-0.3c0,0,0,0,0,0c0.1,0,0.3,0,0.7,0c1.1,0,1.9-0.5,2.5-1.1
		c0.2-0.2,0.3-0.2,0.4-0.2c0.1,0,0.3,0.1,0.3,0.3c0.2,0.6,0.8,1.1,1.4,1.1c0.8,0,0.8-1.4,1-1.5c0,0,0.1,0,0.1,0
		c0.1,0,0.3-0.1,0.3-0.3c0-0.2-0.2-0.3-0.3-0.3c-0.1-0.2,0-0.5-0.3-0.5c-0.2,0-0.2,0.2-0.2,0.3c-0.4-0.1-0.8-0.2-1.1-0.2
		c-0.2,0-0.4,0-0.6,0.1c-0.1-0.2-0.6-0.6-1-0.7C46.7,22.6,46,23.3,44.8,23.4z M48.8,23c0.2,0,0.4,0.2,0.4,0.4c0,0.2-0.2,0.4-0.4,0.4
		c-0.2,0-0.4-0.2-0.4-0.4C48.4,23.2,48.6,23,48.8,23z"/>
	<path class="st0" d="M57.4,19.9c0-1.2-0.9-1.7-1.6-1.7c-1.4,0-1,1.2-2.7,1.6c-0.3,0.1-0.4,0.2-0.4,0.3c0,0.2,0.1,0.6,0.3,0.6
		c0.7,0,1.8-1.5,2-1.5c0.1,0,0.2,0,0.2,0.2c0,0.5-1.6,1.3-1.6,1.6c0,0.2,0.5,0.7,1.1,0.7c0.8,0,1.5-1.6,1.6-1.6
		c0.1,0,0.2,0.1,0.2,0.2c0,0.4-0.5,1.3-1.5,1.6c-0.2,0.1-0.2,0.2-0.2,0.2c0,0.2,0.2,0.5,0.5,0.5C55.6,22.7,57.4,21.2,57.4,19.9z
		 M56.4,19.6c-0.1,0-0.2,0-0.3-0.1c-0.1-0.1-0.3-0.2-0.3-0.5c0-0.3,0.1-0.4,0.3-0.4c0.4,0,0.8,0.4,0.8,0.7
		C56.9,19.5,56.6,19.6,56.4,19.6z"/>
	<path class="st0" d="M38.4,10.5c0.5,0,0.7-0.4,0.7-0.8C39,9,38.5,8.5,38,8.4c-0.2,0.3-0.4,0.7-0.4,1.1C37.5,10,37.9,10.5,38.4,10.5
		z"/>
	<path class="st0" d="M35.1,11.3c0.3,0,0.7-0.2,1.2-0.6c-0.4,0.1-0.7,0.1-0.9,0.1c-0.3,0-0.6-0.1-0.9-0.6
		C34.5,10.9,34.7,11.3,35.1,11.3z"/>
	<path class="st0" d="M36.5,10c0,0.3,0.3,0.6,0.6,0.6c0.2,0,0.3,0,0.4-0.1c-0.3-0.3-0.4-0.5-0.4-0.8c0-0.2,0-0.3,0.1-0.4
		C37,9.3,36.5,9.5,36.5,10z"/>
	<path class="st0" d="M37.1,5.8c0-0.5-0.2-1.2-0.9-1.2c-0.4,0-0.6,0.3-0.6,0.7c0,0.8,0.8,1.1,1.4,1.1C37,6.2,37.1,6,37.1,5.8z"/>
	<path class="st0" d="M35.3,6.8c0.3,0,0.6-0.2,0.6-0.2c-0.6-0.2-0.9-0.6-0.9-1.1c0-0.1,0-0.1,0-0.2c-0.4,0.2-0.5,0.5-0.5,0.8
		C34.6,6.5,34.9,6.8,35.3,6.8z"/>
	<path class="st0" d="M37.9,6.2c-0.2,0-0.4,0.2-0.4,0.4c0,0.2,0.2,0.4,0.4,0.4c0.2,0,0.4-0.2,0.4-0.4C38.3,6.3,38.1,6.2,37.9,6.2z"
		/>
	<path class="st0" d="M38,7.4c0,0.2,0.2,0.4,0.4,0.4c0.2,0,0.4-0.2,0.4-0.4c0-0.2-0.2-0.4-0.4-0.4C38.2,7,38,7.2,38,7.4z"/>
	<path class="st0" d="M34.8,9.3c0,0,0,0.1,0,0.1c0,0.5,0.2,0.7,0.6,0.7c0.2,0,0.5-0.1,0.8-0.5c-0.1,0-0.2,0-0.3,0
		C35.4,9.7,35.1,9.7,34.8,9.3z"/>
	<path class="st0" d="M37.5,7.3c-0.1-0.2-0.1-0.3-0.2-0.4c0,0-0.2,0-0.4-0.1c-0.1,0-0.1,0-0.2,0c-0.3,0-0.7,0-1.1,0.3
		c-0.8,0.5-0.7,1.4-0.8,1.6c0,0,0,0.1,0,0.1c0,0.1,0.1,0.2,0.2,0.2c0.1,0,0.1,0,0.2,0c0.2,0,0.5,0.2,0.9,0.2c0.2,0,0.5-0.1,0.8-0.2
		c0.7-0.3,1-1.2,1-1.3C37.7,7.5,37.6,7.5,37.5,7.3z M36.2,8.8c-0.3,0-0.7-0.4-0.7-0.8c0-0.2,0.1-0.4,0.3-0.4c0,0,0.1,0,0.1,0.1
		c0.1,0.5,0.4,0.7,0.7,0.9c0,0,0,0,0,0C36.5,8.7,36.3,8.8,36.2,8.8z M37.1,8.2c-0.3,0-0.6-0.5-0.6-0.8c0-0.2,0.1-0.2,0.3-0.2
		c0.1,0,0.1,0,0.1,0c0.1,0,0.1,0.2,0.2,0.4c0.1,0.1,0.3,0.2,0.3,0.3C37.3,8,37.2,8.2,37.1,8.2z"/>
	<path class="st0" d="M49.9,10c-0.3,0-0.5,0.3-0.5,0.5c0,0.3,0.2,0.5,0.5,0.5c0.3,0,0.5-0.3,0.5-0.5C50.4,10.2,50.2,10,49.9,10z"/>
	<path class="st0" d="M53.3,9.3c-0.2,0-0.4,0.2-0.4,0.4c0,0.2,0.2,0.4,0.4,0.4c0.2,0,0.4-0.2,0.4-0.4C53.7,9.5,53.5,9.3,53.3,9.3z"
		/>
	<path class="st0" d="M52.4,7.8c0,0.2,0.2,0.4,0.4,0.4s0.4-0.2,0.4-0.4c0-0.2-0.2-0.4-0.4-0.4S52.4,7.6,52.4,7.8z"/>
	<path class="st0" d="M50.1,8.8c-0.2,0-0.4,0.2-0.4,0.4c0,0.2,0.2,0.4,0.4,0.4c0.2,0,0.4-0.2,0.4-0.4S50.3,8.8,50.1,8.8z"/>
	<path class="st0" d="M53.4,10.5c-0.2,0-0.5,0.2-0.5,0.5c0,0.3,0.2,0.5,0.5,0.5c0.3,0,0.5-0.2,0.5-0.5
		C53.8,10.7,53.6,10.5,53.4,10.5z"/>
	<path class="st0" d="M51.9,10.4c0,0.2,0.2,0.4,0.4,0.4c0.2,0,0.4-0.2,0.4-0.4c0-0.2-0.2-0.4-0.4-0.4C52.1,10,51.9,10.2,51.9,10.4z"
		/>
	<path class="st0" d="M51.6,8.9c0,0.3,0.3,0.6,0.6,0.6c0.3,0,0.6-0.3,0.6-0.6c0-0.3-0.3-0.6-0.6-0.6C51.9,8.3,51.6,8.6,51.6,8.9z"/>
	<path class="st0" d="M50.6,8.7C50.6,8.9,50.8,9,51,9c0.2,0,0.4-0.2,0.4-0.4c0-0.2-0.2-0.4-0.4-0.4C50.8,8.3,50.6,8.5,50.6,8.7z"/>
	<path class="st0" d="M52.2,12.4c0.4,0,0.7-0.3,0.7-0.7c0-0.4-0.3-0.7-0.7-0.7c-0.4,0-0.7,0.3-0.7,0.7
		C51.5,12.1,51.8,12.4,52.2,12.4z"/>
	<path class="st0" d="M53.4,11.8c-0.2,0-0.4,0.2-0.4,0.4c0,0.2,0.2,0.4,0.4,0.4c0.2,0,0.4-0.2,0.4-0.4C53.8,12,53.6,11.8,53.4,11.8z
		"/>
	<path class="st0" d="M50.6,11.2c0,0.2,0.2,0.4,0.4,0.4c0.2,0,0.4-0.2,0.4-0.4c0-0.2-0.2-0.4-0.4-0.4C50.8,10.8,50.6,11,50.6,11.2z"
		/>
	<path class="st0" d="M51.7,9.9c0-0.3-0.3-0.6-0.6-0.6c-0.3,0-0.6,0.3-0.6,0.6c0,0.3,0.3,0.6,0.6,0.6C51.5,10.5,51.7,10.3,51.7,9.9z
		"/>
	<path class="st0" d="M51.2,22.8c-0.1,0-0.2,0.1-0.3,0.2c-0.2,0.3-0.5,0.8-0.5,1.3c0,0.4,0.3,0.8,0.9,0.8c1.8,0,3.2-1.1,3.2-2
		c0-0.5-0.3-0.7-0.5-0.7C53.6,22.6,53,23,52.1,23C51.5,23,51.3,22.8,51.2,22.8z M53.3,23.2c0,0,0.1,0,0.1,0.2c0,0.2-0.1,0.5-0.4,0.7
		c-0.2,0.2-0.6,0.3-1.1,0.3c0.1-0.2,0.1-0.5,0.1-0.7c0-0.1,0-0.1,0-0.2h0.1C52.9,23.5,53.2,23.2,53.3,23.2z"/>
	<path class="st0" d="M52.5,21.3c-0.7,0-1.1,0.3-1.1,0.5v0.4c0,0.2,0.4,0.4,0.9,0.4c0.4,0,0.8-0.1,1-0.3c0.1-0.1,0.1-0.2,0.1-0.3
		v-0.2C53.5,21.5,53.1,21.3,52.5,21.3z"/>
	<path class="st0" d="M50.7,14.8c0.1,0,0.2,0.1,0.2,0.1c0,0.2-0.3,0.4-0.3,0.7c0,0.3,0.4,0.5,0.7,0.5c0.3,0,0.4-0.1,0.4-0.3
		c0-0.2-0.4-0.6-0.4-0.8c0-0.1,0.1-0.2,0.3-0.2c0.4,0,0.5,0.1,0.5,0.1c0,0.1-0.2,0.3-0.2,0.4c0,0,0,0.1,0.1,0.1
		c0.3,0,1.4-0.2,1.4-0.4c0-0.2-1-1-1.3-1c0,0-0.1,0-0.1,0.1c0,0.1,0,0.2,0,0.3c0,0.2-0.1,0.2-0.3,0.2c-0.2,0-0.6-0.1-0.6-0.4
		c0-0.7,1.3-0.5,1.4-1.1c-0.5,0-0.8-0.4-1.2-0.4c-0.1,0-0.4,0.1-0.4,0.4c0,0.1,0,0.3,0,0.5c0,0.2,0,0.3-0.2,0.3
		c-0.2,0-0.2-0.2-0.2-0.4c0-0.2,0-0.4,0-0.5c0-1-1.1-0.6-1.2-1.4c-0.3,0.5-0.4,0.8-0.4,1.1c0,1,1.4,0.9,1.4,1.7
		c0,0.2-0.1,0.3-0.3,0.3c-0.2,0-0.4-0.5-0.8-0.5c-0.2,0-0.3,0.1-0.3,0.4c0,0.2,0,0.4,0,0.6c0,0.4-0.2,0.6-0.4,0.8
		C50.3,15.7,50.4,14.8,50.7,14.8z"/>
	<path class="st0" d="M55,15.3c0.7,0,1.1,1.1,1.2,1.1c0.1,0,0-0.5,0.1-0.6c0,0,0.1,0,0.2,0c0.1,0,0.3,0,0.4,0c0.1,0,0.1,0,0.1,0
		c0-0.1-0.6-0.3-0.6-0.5c0-0.1,0.3-0.5,0.3-0.6c0,0,0,0,0,0c-0.1,0-0.6,0.3-1.2,0.3c-0.3,0-0.5,0-0.5-0.2c0-0.2,0.2-0.3,0.4-0.5
		c0.3-0.1,0.9-0.1,0.9-0.3c0-0.1-0.6-0.1-0.6-0.2c0-0.1,0.2-0.4,0.2-0.6c0,0,0,0,0,0c-0.1,0-0.4,0.3-0.5,0.3c-0.2,0-0.3-0.4-0.4-0.4
		c0,0-0.1,0-0.1,0.1c0,0.2,0.1,0.5,0.1,0.8c0,0.3-0.2,0.6-0.4,0.6c-0.2,0-0.3-0.3-0.3-0.5c0-0.3,0.2-0.8,0.2-1.1
		c0-0.1,0-0.1-0.1-0.1c-0.1,0-0.4,0.4-0.5,0.4c-0.1,0-0.3-0.5-0.4-0.5c0,0,0,0.1,0,0.2c0,0.1,0,0.3,0,0.4c0,0.1-0.1,0.1-0.3,0.1
		c-0.1,0-0.3,0-0.3,0.1c0,0.1,0.2,0.2,0.4,0.3c0.4,0.2,0.9,0.5,0.9,1c0,0.5-0.7,0.9-1.2,0.9c-0.2,0-0.5,0.1-0.5,0.2
		c0,0.1,0.6,0.1,0.6,0.3c0,0.1-0.3,0.5-0.3,0.6c0,0,0,0,0,0c0.1,0,0.4-0.3,0.6-0.3c0.2,0,0.2,0.5,0.3,0.5c0.2,0,0.1-0.8,0.2-1
		c0.1-0.4,0.4-0.7,0.6-0.7c0.3,0,0.3,0.5,0.3,0.7c0,0.5-0.4,1-0.4,1.2c0,0,0,0.1,0,0.1c0.1,0,0.4-0.3,0.5-0.3c0.1,0,0.4,0.5,0.5,0.5
		c0.1,0,0.1-0.1,0.1-0.1c0-0.2-0.1-0.4-0.1-0.6c0-0.2,0.6-0.1,0.6-0.2c0-0.1-0.3-0.2-0.4-0.3c-0.4-0.2-0.7-0.7-0.7-1
		C54.8,15.4,54.9,15.3,55,15.3z"/>
	<path class="st0" d="M49.7,21.8c1.7,0,2.6-1.4,2.6-2.5c-0.3,0.3-1.2,0.4-1.6,0.4c-1.3,0-1.7-0.7-1.9-0.7c-0.2,0-0.2,0.3-0.2,0.4
		c0,0.1,0,0.1-0.1,0.1c-0.1,0-0.1,0-0.2,0c-0.1,0-0.1,0-0.1,0.1c0,0.4,0.5,0.7,1,0.7c0.7,0,1-0.3,1.2-0.3c0.1,0,0.1,0.1,0.1,0.1
		c0,0.1-0.1,0.2-0.1,0.3c0,0.2,0.3,0,0.3,0.2c0,0.2-0.4,0.4-1,0.4c-1.2,0-2-0.8-2-1.6c0-1.4,1.6-1,1.6-1.5c0-0.2-0.2-0.3-0.3-0.3
		c0.2-0.2,0.4-0.3,0.6-0.3c0.2,0,0.3,0,0.5,0c0.2,0,0.4-0.1,0.4-0.3c0-0.1-0.1-0.3-0.5-0.3c0-0.3,0.7-0.1,0.7-0.4
		c0-0.2-0.4-0.3-0.8-0.3c-1.6,0-2.9,1.3-2.9,2.8C46.9,20.4,47.9,21.8,49.7,21.8z"/>
	<path class="st0" d="M50.2,19.3c0.3,0,0.5-0.2,0.5-0.5c0-0.4-0.4-0.7-0.9-0.7c0.1,0.1,0.1,0.2,0.1,0.3c0,0.1-0.1,0.3-0.1,0.5
		C49.7,19.1,49.9,19.3,50.2,19.3z"/>
	<path class="st0" d="M51,16.4c0.1,0.2,0.2,0.3,0.2,0.5c0,0.4-0.3,0.8-0.3,1.2c0,0.5,0.4,0.9,0.8,0.9c0.5,0,0.8-0.5,0.8-0.9
		C52.5,17.4,52,16.6,51,16.4z M51.7,18c-0.1,0-0.2-0.1-0.2-0.2c0-0.1,0-0.2,0.1-0.3c0-0.1,0-0.2,0.1-0.2c0.2,0,0.4,0.3,0.4,0.5
		C51.9,17.8,51.8,18,51.7,18z"/>
	<path class="st0" d="M53.4,19.1c0.4,0,0.7-0.3,0.7-0.7c0-0.5-0.5-0.9-1.2-1c0.1,0.1,0.1,0.2,0.1,0.3c0,0.3-0.2,0.5-0.2,0.8
		C52.8,18.9,53,19.1,53.4,19.1z"/>
	<path class="st0" d="M40,7.4c-0.5,0-0.3-0.8-0.5-0.8c-0.2,0-0.3,0.4-0.3,0.6c0,0.5,0.4,1.1,1.1,1.1c0.8,0,1.3-0.4,1.8-0.9
		C42.3,8,42.6,9,43.5,9c0.5,0,0.8-0.4,0.8-0.8c-0.1,0.1-0.1,0.1-0.2,0.1c-0.2,0-0.2-0.3-0.2-0.5C43.8,7.4,44,7,44.1,7
		c0.1,0,0.1,0.1,0.2,0.3c0,0.2,0,0.4,0.1,0.4c0.1,0,0.2-0.4,0.2-0.7c0-0.6-0.3-1.2-0.9-1.2c-0.5,0-0.9,0.4-1.3,1c0-0.1,0-0.2,0-0.3
		c0-0.8-0.4-1.4-1.2-1.4c-0.6,0-1.2,0.4-1.4,1C39.9,6.1,40.1,6,40.3,6c0.2,0,0.3,0.2,0.3,0.4c0,0.2,0,0.4-0.1,0.6
		C40.3,7.3,40.1,7.4,40,7.4z M43.6,6.6c0.1,0,0.1,0.1,0.1,0.3c0,0.6-0.3,1.5-0.5,1.5c-0.1,0-0.1-0.1-0.1-0.3
		C43.1,7.5,43.4,6.6,43.6,6.6z M42.9,6.9c0,0,0.1,0,0.1,0.2c0,0.3-0.2,0.7-0.3,0.7c-0.1,0-0.2-0.2-0.2-0.5C42.7,7,42.8,6.9,42.9,6.9
		z M41.9,6.3c0.1,0,0.2,0.2,0.2,0.4c0,0.1,0,0.3,0,0.4c-0.3,0.3-0.4,0.4-0.5,0.4c-0.1,0-0.1-0.1-0.1-0.2C41.5,7.1,41.6,6.3,41.9,6.3
		z M41.4,5.6c0.1,0,0.1,0.1,0.1,0.1c0,0.3-0.4,2.1-0.7,2.1c-0.1,0-0.1-0.1-0.1-0.1C40.7,7.3,41.1,5.6,41.4,5.6z"/>
	<path class="st0" d="M38.9,11.7c0.3-0.8,1.2-1.1,1.8-1.1c0.1,0,0.2,0,0.3,0c-0.3,0.3-0.4,0.7-0.4,1.1c0,0.2-0.1,0.2-0.2,0.2
		c0,0.3,0.3,0.8,0.3,1c0,0.1,0,0.2-0.1,0.2c0,0.4,0.4,0.7,0.4,1c0,0.1,0,0.1,0,0.2c0,0.2,0.5,0.5,0.6,0.6c0.1,0.2,0.2,0.2,0.2,0.2
		c0.2,0,0.4-0.2,0.4-0.4c0-0.1,0-0.1-0.1-0.2c-0.2-0.1-0.3-0.4-0.4-0.6c-0.1,0-0.2,0-0.2-0.1c-0.1-0.2-0.1-0.6-0.1-0.8
		c-0.1,0-0.2-0.1-0.2-0.3c0-0.1,0.1-0.6,0.1-0.8c-0.1,0-0.1,0-0.1-0.2c0-0.3,0.3-0.5,0.4-0.9c0.5,0.4,0.7,0.8,0.7,1.2
		c0,0.2,0,0.4-0.1,0.5c0.4-0.2,1-0.5,1-1.1c0-0.4-0.2-0.8-1.3-0.9c0.3-0.1,0.8-0.2,1.1-0.2c0.6,0,1,0.2,1,0.6
		c0.1-0.2,0.2-0.4,0.2-0.6c0-0.5-0.4-0.8-0.9-0.8c-0.6,0-1.1,0.3-1.7,0.7c0.3-0.5,0.4-0.8,0.7-0.8c0,0,0.1,0,0.1,0
		c-0.1-0.4-0.5-0.8-0.8-0.8c-0.4,0-0.4,0.5-0.4,1.5c-0.3-0.7-0.8-1.4-1.4-1.4c-0.4,0-0.6,0.3-0.6,0.7c0,0.1,0,0.2,0,0.3
		c0-0.2,0.2-0.2,0.4-0.2c0.4,0,0.9,0.3,1.2,0.8c-0.4-0.1-0.7-0.1-1-0.1c-0.2,0-0.4,0-0.5,0.1c-0.3,0.1-0.7,0.5-0.7,1.2
		C38.9,11.5,38.9,11.6,38.9,11.7z"/>
	<path class="st0" d="M57.9,19.1c0.7-0.6,1-1.4,1-2.2c0-0.7-0.4-1.4-0.9-1.4c-0.4,0-0.7,0.3-0.7,0.7c0,0.2,0.1,0.5,0.3,0.6
		c-0.2-0.2-0.4-0.3-0.7-0.3c-0.3,0-0.6,0.3-0.6,0.7C56.3,18.2,57.9,17.8,57.9,19.1z"/>
	<path class="st0" d="M52.2,6.6c0-0.1-0.1-0.5-0.2-0.6c0,0.9-0.6,1.2-1.2,1.2c-0.1,0-0.3,0-0.4-0.1c0.1-0.1,0.2-0.3,0.2-0.4
		c0-0.1-0.1-0.1-0.1-0.1c-0.1,0-0.2,0-0.3,0c-0.3,0-0.5-0.1-0.7-0.3c-0.2,0.2-0.3,0.6-0.3,0.9c0,0.5,0.2,1,0.4,1
		c0.1,0,0.1-0.4,0.3-0.4c0.1,0,0.3,0.2,0.8,0.2C51.4,8.1,52.2,7.7,52.2,6.6z"/>
	<path class="st0" d="M50.7,5.9c0,0.1,0,0.1,0.1,0.1c0.2,0.1,0.4,0.3,0.5,0.5c0.4-0.2,0.6-0.9,0.6-1.3c0-0.1,0-0.3-0.1-0.3
		c-0.1,0-0.2,0.1-0.3,0.1c-0.1,0-0.3-0.3-0.9-0.3c-0.7,0-1,0.5-1,0.9c0,0.1,0,0.2,0.1,0.3c0.1-0.3,0.3-0.6,0.8-0.6
		c0.1,0,0.4,0.1,0.5,0.2C50.8,5.7,50.7,5.8,50.7,5.9z"/>
	<path class="st0" d="M43.5,1.2c0,0.2,0.6,0.5,0.9,0.5c0.2,0,0.2-0.2,0.2-0.5C44.6,1,44.5,1,44.2,1C43.9,1,43.5,1.1,43.5,1.2z"/>
	<path class="st0" d="M44.6,4.9c0-0.1,0-0.2-0.1-0.2c-0.2-0.2-1.4-1.2-1.7-1.2c0,0,0,0,0,0.1c0,0.3,1.2,2,1.4,2
		C44.4,5.5,44.6,5.2,44.6,4.9z"/>
	<path class="st0" d="M37.4,1.3c0.2,0,0.5-0.1,0.8-0.1c0.1,0,0.3,0,0.3,0.2c0,0.2-0.5,0.7-0.5,0.9c0,0.1,0,0.1,0.1,0.1
		c0.2,0,0.5-0.5,0.8-0.5c0.5,0,0.2,1.1,0.5,1.1c0.3,0,0.2-1.1,0.6-1.1c0.3,0,0.6,0.7,0.8,0.7c0.1,0,0.1,0,0.1-0.1
		c0-0.2-0.3-0.6-0.3-0.9c0-0.2,0.1-0.2,0.3-0.2c0.2,0,0.5,0.1,0.7,0.1c0.1,0,0.1,0,0.1-0.1c0-0.2-0.9-0.5-0.9-0.8
		c0-0.3,0.5-0.3,0.5-0.4c0-0.1-0.3-0.1-0.7-0.1c-0.6,0-0.5,0.5-1,0.5c-0.5,0-0.4-0.5-1-0.5c-0.4,0-0.7,0.1-0.7,0.2
		c0,0.1,0.5,0.1,0.5,0.4c0,0.3-1,0.4-1,0.6C37.3,1.3,37.4,1.3,37.4,1.3z"/>
	<path class="st0" d="M35.4,2.4c-0.2,0-0.5,0.1-0.6,0.2c-0.1,0.1-0.2,0.4-0.2,0.5c0,0.1,0,0.2,0.1,0.2c0.3,0,1-0.6,1-0.8
		C35.7,2.5,35.6,2.4,35.4,2.4z"/>
	<path class="st0" d="M34.6,1.9c0,0.3,1.9,0,1.9,0.3c0,0.3-1.6,1.7-1.6,2.2c0,0.1,0.1,0.2,0.2,0.2c0.5,0,1.8-1,2.2-1
		c0.1,0,0.1,0.2,0.1,0.3c0,0.3-0.1,0.6-0.1,0.9c0,0.2,0.1,0.4,0.3,0.4c0.4,0,0.7-0.6,0.9-0.6c0.3,0,0.1,1.8,0.6,1.8
		c0.4,0,0.6-1.9,0.8-1.9C40,4.5,40.2,5,40.4,5c0.3,0,0.2-1,0.5-1c0.3,0,1.3,1.2,1.7,1.2c0.1,0,0.2-0.1,0.2-0.2c0-0.5-0.7-1.7-0.7-2
		c0-0.1,0-0.1,0.1-0.1c0.4,0,1.5,0.5,2,0.5c0.2,0,0.3-0.1,0.3-0.2c0-0.6-1.6-1.6-1.6-2.1c0,0,0-0.1,0.1-0.1c0.3-0.3,1.4-0.5,1.4-0.7
		C44.4,0,44.1,0,44,0c-0.9,0-2.2,0.3-2.2,0.6C41.8,1,43,1.8,43,2.2c0,0.1-0.1,0.1-0.2,0.1c-0.3,0-1-0.4-1.4-0.4
		c-0.2,0-0.2,0.1-0.2,0.3c0,0.5,0.5,1.3,0.5,1.6c0,0,0,0.1,0,0.1c-0.2,0-1-1-1.3-1c-0.1,0-0.1,0.1-0.1,0.4v0.3c0,0.2,0,0.4-0.1,0.4
		c-0.3,0-0.4-0.7-0.6-0.7c-0.3,0-0.3,1.3-0.5,1.3c-0.3,0,0-1.4-0.3-1.4c-0.3,0-0.6,0.9-0.8,0.9c-0.1,0-0.1-0.1-0.1-0.1
		c0-0.3,0.2-0.7,0.2-1c0-0.1,0-0.2-0.2-0.2c-0.3,0-1,0.5-1.2,0.5c0,0-0.1,0-0.1-0.1c0-0.2,1-1,1-1.3c0-0.3-1.4-0.1-1.4-0.5
		c0-0.3,1-0.6,1-0.9C37.2,0.1,36,0,35.5,0c-0.6,0-0.9,0.1-0.9,0.2c0,0.3,1.3,0.3,1.3,0.5C35.9,1,34.6,1.6,34.6,1.9z"/>
	<path class="st0" d="M56.5,1.4c-0.5,0-1.4,0.2-1.4,0.3c0,0.2,1.6,0.3,1.6,1c0,0.4-0.4,0.5-0.5,0.5c-0.5,0-0.8-0.6-1-0.6
		c0,0-0.1,0-0.1,0.1c0,0.1,0.1,0.3,0.1,0.6c0,0.6-0.7,0.7-0.7,0.8c0,0,0,0.1,0.1,0.1c0.5,0.1,1,0.1,1.5,0.1c1.7,0,3.2-0.5,3.2-2.1
		c0-0.8-0.3-1.1-0.3-1.5c0-0.1,0.1-0.4,0.4-0.6c-0.5,0-0.6-0.1-0.9-0.1c-0.4,0-0.7,0.3-0.7,0.7c0,0.1,0,0.3,0,0.6
		c0,0.3-0.1,0.7-0.4,0.7c-0.3,0-0.4-0.2-0.4-0.4c0-0.4,0.2-0.6,0.2-0.9c0-0.5-0.6-0.6-1.2-0.6c-0.7,0-1.5,0.2-1.5,0.3
		C54.7,0.6,55.7,0.5,56.5,1.4z M58.5,0.4c0.1,0,0.2,0.1,0.2,0.2c0,0.1-0.1,0.2-0.2,0.2c-0.1,0-0.2-0.1-0.2-0.2
		C58.3,0.5,58.4,0.4,58.5,0.4z M58.3,1.8c0.3,0.1,0.4,0.3,0.4,0.6c0,0.5-0.5,1.1-1.8,1.1c-0.1,0-0.2,0-0.4,0
		C57.7,3.3,58.3,2.6,58.3,1.8z"/>
	<path class="st0" d="M59.1,13.4c-0.5,0-0.7,0.8-1.2,0.8c0.3-1.2,1.4-1.8,1.4-2.8c0-1.2-1-1.7-1.5-1.9c-0.7-1-1.2-1.8-2.4-1.8
		c-0.5,0-0.8,0.1-1.1,0.1c-0.7,0-0.9-0.3-0.9-0.3c0,0,0,0,0,0c0,0.9,0.5,2.9,2.5,2.9c1.1,0,1.6-0.4,1.8-0.4c0.3,0,1.2,0.3,1.2,1.3
		c0,0.6-0.5,1.1-0.6,1.1c-0.2,0-0.3-0.3-0.3-0.5c0-0.3,0.2-0.9,0.2-1.2c0-0.1,0-0.2-0.1-0.2c-0.2,0-1,0.5-1,1.2
		c0,0.6,0.8,0.9,1.2,1.1c-0.3,0.5-0.5,0.9-0.7,1.3c0-0.4-0.3-1.1-0.5-1.4c-0.5-1.4-0.7-1.7-1.8-1.8c0.2,0.6,2.1,2,2.1,3.4
		c0,0.1,0,0.2,0,0.3c-0.6-1.7-1.6-2.1-1.9-2.5c-0.6-0.6-0.2-1.3-1.2-1.6c0.1,0.1,0.1,0.2,0.1,0.3c0,0.3-0.2,0.7-0.2,1
		c0,1,1.2,0.7,1.9,1.3c0.7,0.5,1,1.4,1.3,2.4c0.3-0.4,0.4-1,0.9-1c0.3,0,0.4,0.4,0.4,0.7c0,0.1,0,0.1,0,0.1c0.5-0.4,0.7-1,0.7-1.5
		C59.5,13.6,59.4,13.4,59.1,13.4z M57.3,9.6c-0.1,0-0.3,0-0.4,0c-0.3,0-0.6,0.5-0.7,0.5c-0.1,0-0.1-0.1-0.1-0.1
		c0-0.2,0.3-0.4,0.3-0.5c0-0.1-0.1-0.1-0.2-0.1c-0.3,0-0.8,0.5-1,0.5c0,0-0.1,0-0.1-0.1c0-0.1,0.3-0.3,0.3-0.4
		c0-0.1-0.1-0.1-0.2-0.1c-0.2,0-0.5,0.1-0.7,0.1c-0.1,0-0.2,0-0.2-0.1c0-0.2,0.6-0.1,0.6-0.3c0-0.1-0.2-0.3-0.2-0.4
		c0,0,0-0.1,0.1-0.1c0.2,0,0.5,0.6,0.7,0.6c0.1,0,0.1-0.1,0.1-0.2c0-0.1,0-0.2,0-0.3c0-0.1,0-0.1,0.1-0.1C55.9,8.1,56,9,56.5,9
		c0.2,0,0.1-0.5,0.2-0.5c0.1,0,0.1,0.2,0.1,0.2c0,0.6,0.6,0.6,0.6,0.8C57.4,9.5,57.4,9.6,57.3,9.6z"/>
	<path class="st0" d="M49.2,3c0,0.2,0.7,0,0.7,0.3c0,0.2-0.5,0.9-0.5,1.1c0,0,0,0,0,0c0.2,0,0.7-0.6,0.9-0.6c0.2,0,0.2,0.4,0.2,0.6
		c0,0.1,0,0.1,0.1,0.1C50.7,4.5,50.8,4,51,4c0.2,0,0.7,0.5,1.5,0.5c1.2,0,2.3-0.8,2.3-2.3c0-1.4-1-2.2-2.3-2.2
		c-0.6,0-1.1,0.3-1.4,0.3c-0.2,0-0.4-0.4-0.5-0.4c0,0-0.1,0.1-0.1,0.3c0,0.1,0,0.4-0.1,0.4c-0.2,0-1.1-0.7-1.1-0.4
		c0,0.2,0.6,0.9,0.6,1.1c0,0.2-0.6,0.3-0.6,0.5c0,0.2,0.6,0.3,0.6,0.5C49.8,2.6,49.2,2.8,49.2,3z M52.4,0.5c1,0,1.5,0.7,1.5,1.8
		c0,1.4-1,1.7-1.5,1.7c-0.7,0-1.1-0.3-1.1-0.5c0-0.1,0.1-0.1,0.1-0.1c0.2,0,0.7,0.3,0.8,0.3c0,0,0.1,0,0.1-0.1
		c0-0.2-0.2-0.5-0.2-0.6c0,0,0-0.1,0.1-0.1c0.3,0,0.6,0.1,0.8,0.1c0.1,0,0.1,0,0.1-0.1c0-0.2-0.6-0.6-0.6-0.8c0-0.1,0.8-0.3,0.8-0.5
		c0-0.2-1.1-0.1-1.1-0.2c0-0.1,0.2-0.4,0.2-0.5c0,0,0-0.1-0.1-0.1c-0.1,0-0.5,0.2-0.7,0.2c-0.1,0-0.2,0-0.2-0.2
		C51.4,0.8,51.8,0.5,52.4,0.5z M50.1,1.7C50.1,1.7,50.2,1.7,50.1,1.7c0.2,0,0.3,0,0.5,0c0.1,0,0.1-0.5,0.2-0.5
		c0.1,0,0.2,0.5,0.3,0.5c0.1,0,0.4-0.1,0.5-0.1c0,0,0,0,0,0c0,0.1-0.2,0.3-0.2,0.4c0,0.1,0.5,0.2,0.5,0.3c0,0.1-0.5,0.1-0.5,0.2
		c0,0.1,0.2,0.3,0.2,0.4c0,0,0,0,0,0c-0.1,0-0.4-0.1-0.5-0.1c-0.1,0-0.3,0.4-0.4,0.4c0,0,0,0,0-0.1l0-0.4c0,0,0-0.1-0.1-0.1
		c-0.1,0-0.3,0-0.4,0c0,0-0.1,0-0.1,0c0-0.1,0.4-0.3,0.4-0.4C50.5,2.1,50.1,1.9,50.1,1.7z"/>
	<path class="st0" d="M46.3,20.3c0-0.2-0.1-0.3-0.3-0.3c-0.1,0-0.3,0.1-0.3,0.3c0,0.2,0.1,0.3,0.1,0.4c0,0.1,0,0.2-0.1,0.3
		c-0.1-0.2-0.4-0.3-0.5-0.3c-1,0-0.6,1.4-1.7,1.4c-0.4,0-0.5-0.1-0.6-0.1c-0.1,0-0.1,0-0.1,0.1c0,0.3,0.4,0.9,1.3,0.9
		c1,0,1.9-0.6,1.9-1.4c0-0.1,0-0.3-0.1-0.4c0-0.1,0.1-0.1,0.2-0.1c0.2,0,0.2,0.2,0.4,0.2c0.2,0,0.3-0.1,0.3-0.3
		c0-0.1-0.1-0.2-0.2-0.3c0.1-0.1,0.1-0.2,0.1-0.3c0-0.2-0.1-0.3-0.3-0.3C46.4,20.2,46.4,20.2,46.3,20.3z"/>
	<path class="st0" d="M40.6,18c-0.3,0-0.7,0.2-0.7,0.5c0,0.2,0.1,0.3,0.7,0.4c0.8,0.2,1.2,0.6,1.2,1.1c0.1,0.5,0.2,0.9,0.4,1
		c0.2,0.3,0.7,0.5,1.1,0.5c0.3,0,0.6-0.1,0.6-0.4c0-0.3-0.5-1.1-1.2-1.1c-0.1,0-0.2,0-0.3,0c-0.1,0-0.2,0-0.3-0.1
		c-0.2-0.1-0.2-0.9-0.5-1.3C41.4,18.1,41.1,18,40.6,18z M42.8,20.3c0.2,0,0.7,0.3,0.7,0.6c0,0.1,0,0.2-0.2,0.2
		c-0.3,0-0.7-0.3-0.7-0.5C42.6,20.4,42.7,20.3,42.8,20.3z"/>
	<path class="st0" d="M45.4,17.7c0,0.3-0.5,0.5-1.1,0.5c-0.7,0-1.2-0.1-1.6-0.5c-0.1-0.1-0.2-0.2-0.3-0.2c-0.2,0-0.2,0.3-0.2,0.5
		c0,0.9,0.9,2.1,2.1,2.1c1.6,0,2.2-1.1,2.2-1.9c0-0.5-0.1-1-1-1.3c-0.4-0.2-0.6-0.4-0.7-0.9c-0.2,0.3-0.3,0.6-0.3,0.7
		C44.5,17.2,45.4,17.3,45.4,17.7z M45.9,18.1c0.1,0,0.2,0.1,0.2,0.2c0,0.5-0.5,1.1-0.9,1.1c-0.1,0-0.2-0.1-0.2-0.2
		c0-0.1,0-0.2,0-0.4c0-0.3,0.1-0.3,0.5-0.5C45.7,18.3,45.8,18.1,45.9,18.1z"/>
	<path class="st0" d="M43.9,13.8c0-0.4,0.7-0.7,0.7-1.4c0-0.4-0.4-0.9-0.9-1.1c0.1,0.2,0.1,0.4,0.1,0.5c0,0.8-1.5,1.1-1.5,1.7
		c0,0.8,1.4,1.1,1.4,1.4c0,0.1-0.1,0.2-0.2,0.2c-0.2,0-0.4-0.2-0.7-0.4c-0.3,0.3-0.5,0.7-0.5,1.2c0,1,1,1.8,2,1.8
		c0.2,0,0.3,0,0.5-0.1c-0.5-0.1-0.9-0.5-0.9-1c0-0.6,0.7-1.2,0.7-1.7C44.7,14.4,43.9,14.3,43.9,13.8z"/>
	<path class="st0" d="M36.8,18.3c0,0.3,0.3,0.6,0.7,0.5c0.1,0,0.2,0,0.3-0.1c0.1,0.3,0.3,0.5,0.7,0.5c0.4,0,0.6-0.3,0.6-0.7
		c0-0.1,0-0.2-0.1-0.2c0,0,0,0,0.1,0c0.3-0.1,0.6-0.3,0.6-0.7c0-0.3-0.3-0.6-0.7-0.6c-0.1,0-0.2,0.1-0.3,0.1
		c-0.1-0.3-0.4-0.5-0.7-0.5c-0.3,0.1-0.6,0.3-0.5,0.7c0,0.1,0,0.1,0,0.2c0,0-0.1,0-0.1,0C37.1,17.6,36.8,17.9,36.8,18.3z M38.2,17.6
		c0.2,0,0.4,0.1,0.4,0.3c0,0.2-0.1,0.4-0.3,0.4c-0.2,0-0.4-0.1-0.4-0.3C37.9,17.8,38,17.6,38.2,17.6z"/>
</g>
</svg>
