<?xml version="1.0" encoding="utf-8"?>
<!-- Generator: Adobe Illustrator 26.0.1, SVG Export Plug-In . SVG Version: 6.00 Build 0)  -->
<svg version="1.1" id="Layer_1" xmlns="http://www.w3.org/2000/svg" xmlns:xlink="http://www.w3.org/1999/xlink" x="0px" y="0px"
	 viewBox="0 0 95 35" style="enable-background:new 0 0 95 35;" xml:space="preserve">
<style type="text/css">
	.st0{fill-rule:evenodd;clip-rule:evenodd;}
</style>
<path class="st0" d="M92,7.5c-0.2-0.3-0.6-0.5-1-0.7s-0.8-0.2-1.2-0.2c-0.8,0-1.5,0.2-2.1,0.6S86.5,8.1,86,8.7s-0.8,1.3-1.1,2.1
	c-0.3,0.8-0.4,1.6-0.4,2.5c0,1,0.3,1.9,0.9,2.6c0.7,0.7,1.5,1.1,2.5,1.1c1.9,0,3.4-0.7,4.4-2.1c0.7-1,1.2-2.4,1.5-4.3L95,3.9h-2.4
	L92,7.5L92,7.5z M91,8.3c0.2,0.1,0.4,0.4,0.7,0.7c-0.5,2.5-1,4.3-1.6,5.3c-0.5,0.9-1.2,1.4-1.9,1.4c-0.4,0-0.7-0.2-1-0.6
	c-0.2-0.4-0.4-1-0.4-1.7c0-1.3,0.3-2.5,1-3.7c0.3-0.5,0.7-0.9,1-1.2C89.2,8.2,89.6,8,90,8S90.7,8.1,91,8.3L91,8.3z M68.3,4.2
	c0-0.4-0.1-0.6-0.4-0.9C67.7,3,67.4,2.9,67,2.9S66.3,3,66.1,3.3c-0.2,0.3-0.4,0.6-0.4,0.9c0,0.4,0.1,0.7,0.4,0.9
	c0.3,0.3,0.6,0.4,0.9,0.4c0.4,0,0.7-0.1,0.9-0.4C68.2,4.8,68.3,4.5,68.3,4.2L68.3,4.2z M73.3,3.9l-0.6,3h2.4l-0.2,1.4h-2.4l-0.9,4.9
	c-0.2,1.3-0.1,2,0.4,2.3c0.3,0.2,0.9,0.1,1.6-0.1l0.4,0.9c-0.8,0.5-1.7,0.8-2.7,0.8c-0.9,0-1.6-0.3-1.9-0.8
	c-0.4-0.6-0.5-1.5-0.3-2.7L70.9,4h2.4V3.9z M61.7,8.2c-0.5-1.1-1.6-1.6-3.1-1.6C57,6.6,55.8,7,55,7.9s-1.4,2.2-1.8,4.2l-0.9,4.7h2.4
	l1.1-5.7c0.4-1.9,1.2-2.8,2.5-2.8c0.6,0,1.1,0.3,1.4,0.9c0.2,0.5,0.3,1.2,0.1,1.9l-1.1,5.7h2.4l0.9-4.7C62.3,10.4,62.2,9.2,61.7,8.2
	L61.7,8.2z M67.7,6.8l-1.9,9.9h-2.4l1.8-9.9L67.7,6.8L67.7,6.8z M81.4,6.6c-0.9,0-1.8,0.2-2.6,0.7c-0.7,0.4-1.4,1-2,1.7
	c-0.5,0.7-0.9,1.4-1.2,2.2c-0.3,0.8-0.4,1.5-0.4,2.2c0,1.2,0.3,2.1,0.9,2.7s1.3,0.9,2.3,0.9c1.6,0,3-0.5,4.3-1.4l-0.4-0.9
	c-0.4,0.3-1,0.5-1.5,0.6s-0.9,0.1-1.3,0c-1.2-0.3-1.8-1.2-1.6-2.7c1.4-0.1,2.7-0.4,3.9-1c1.5-0.8,2.2-1.8,2.2-3
	c0-0.7-0.3-1.2-0.8-1.6C82.5,6.8,82,6.6,81.4,6.6L81.4,6.6z M80.7,8.1c0.6,0,0.9,0.3,0.9,0.9c0,0.6-0.4,1.1-1.2,1.7
	c-0.7,0.5-1.6,0.8-2.6,1c0.3-1.1,0.7-1.9,1.2-2.6C79.5,8.4,80.1,8.1,80.7,8.1L80.7,8.1z M83.5,23.5c-1.4,0-2.6,0.6-3.6,1.8
	c-0.4,0.5-0.7,1.1-1,1.7c-0.2,0.6-0.3,1.2-0.3,1.7c0,0.9,0.2,1.6,0.7,2.1c0.4,0.5,1,0.7,1.8,0.7c1.3,0,2.4-0.4,3.4-1.1l-0.3-0.7
	c-0.4,0.2-0.8,0.4-1.2,0.5c-0.4,0.1-0.7,0.1-1,0c-1-0.2-1.4-0.9-1.3-2.1c1.1-0.1,2.1-0.3,3.1-0.8c1.2-0.6,1.8-1.4,1.8-2.4
	c0-0.5-0.2-0.9-0.7-1.2C84.5,23.6,84,23.5,83.5,23.5L83.5,23.5z M76.3,21.6c0,0.3,0.1,0.5,0.3,0.7c0.2,0.2,0.4,0.3,0.7,0.3
	c0.3,0,0.5-0.1,0.7-0.3c0.2-0.2,0.3-0.4,0.3-0.7c0-0.3-0.1-0.5-0.3-0.7c-0.2-0.2-0.4-0.3-0.7-0.3c-0.3,0-0.5,0.1-0.7,0.3
	C76.4,21,76.3,21.3,76.3,21.6L76.3,21.6z M77.8,23.7l-1.4,7.8h-1.9l1.4-7.8H77.8L77.8,23.7z M86.5,26c0-0.8,0.3-1.4,1-1.9
	c0.5-0.4,1.1-0.6,1.7-0.6c0.5,0,0.9,0.1,1.2,0.2c0.5,0.1,0.9,0.4,1.4,0.7l-0.3,0.7c-0.9-0.5-1.6-0.7-2.1-0.5
	c-0.2,0.1-0.4,0.2-0.5,0.4c-0.1,0.1-0.2,0.3-0.2,0.5c0,0.3,0.1,0.6,0.4,0.9L90,27c0.4,0.3,0.7,0.6,0.9,0.9c0.3,0.4,0.4,0.8,0.4,1.3
	c0,0.6-0.2,1.2-0.7,1.6c-0.6,0.6-1.4,0.8-2.4,0.8c-0.4,0-0.9-0.1-1.4-0.3c-0.5-0.2-0.9-0.5-1.2-0.8l0.3-0.7c0.7,0.5,1.5,0.7,2.2,0.6
	c0.3-0.1,0.6-0.2,0.8-0.3c0.2-0.2,0.3-0.4,0.3-0.7c0-0.3-0.1-0.6-0.4-0.9c-0.1-0.1-0.4-0.4-0.9-0.7c-0.4-0.3-0.7-0.6-0.9-0.8
	C86.7,26.7,86.5,26.4,86.5,26L86.5,26z M82.9,26.7c-0.6,0.4-1.3,0.6-2.1,0.8c0.2-0.9,0.6-1.5,0.9-2c0.4-0.5,0.8-0.7,1.3-0.7
	s0.7,0.2,0.7,0.7C83.8,25.8,83.5,26.3,82.9,26.7L82.9,26.7z M67.9,20.6c-0.3,0-0.5,0.1-0.7,0.3c-0.2,0.2-0.3,0.4-0.3,0.7
	c0,0.3,0.1,0.5,0.3,0.7c0.2,0.2,0.4,0.3,0.7,0.3c0.3,0,0.5-0.1,0.7-0.3c0.2-0.2,0.3-0.4,0.3-0.7c0-0.3-0.1-0.5-0.3-0.7
	C68.4,20.6,68.2,20.6,67.9,20.6L67.9,20.6z M72.9,21.3l-0.4,2.3h1.9l-0.2,1.1h-1.9l-0.7,3.9c-0.2,1-0.1,1.6,0.3,1.8
	c0.3,0.1,0.7,0.1,1.3-0.1l0.3,0.7c-0.6,0.4-1.3,0.6-2.1,0.6c-0.7,0-1.2-0.2-1.5-0.6s-0.4-1.2-0.2-2.2l1.4-7.5L72.9,21.3L72.9,21.3z
	 M62.4,21.3L61,28.8c-0.2,1-0.1,1.7,0.2,2.2c0.3,0.4,0.8,0.6,1.5,0.6c0.5,0,1-0.1,1.6-0.4L64,30.5c-1.1,0.3-1.4-0.3-1.1-1.9l1.4-7.3
	H62.4L62.4,21.3z M65.1,31.4l1.5-7.8h1.9L67,31.4H65.1L65.1,31.4z M42.3,3.9l-1.2,6.4c-0.4,2-0.3,3.6,0.3,4.7
	c0.7,1.3,1.9,1.9,3.7,1.9c1.9,0,3.3-0.5,4.3-1.6c1-1,1.7-2.7,2.2-5.1l1.2-6.5H50l-1.4,7.7c-0.5,2.3-1.4,3.4-3,3.4
	c-0.8,0-1.4-0.4-1.7-1.1c-0.3-0.6-0.3-1.4-0.1-2.4l1.4-7.7h-2.9V3.9z M54.3,23.7h1.9l-0.2,1h-1.9l-0.7,3.9c-0.2,1-0.1,1.6,0.3,1.8
	c0.3,0.1,0.7,0.1,1.3-0.1l0.3,0.7c-0.6,0.4-1.3,0.6-2.1,0.6c-0.7,0-1.2-0.2-1.5-0.6s-0.4-1.2-0.2-2.2l1.4-7.5h1.9L54.3,23.7
	L54.3,23.7z M59.8,20.8c-0.2-0.2-0.4-0.3-0.7-0.3s-0.5,0.1-0.7,0.3C58.1,21,58,21.3,58,21.6c0,0.3,0.1,0.5,0.3,0.7s0.4,0.3,0.7,0.3
	s0.5-0.1,0.7-0.3c0.2-0.2,0.3-0.4,0.3-0.7S59.9,21,59.8,20.8L59.8,20.8z M59.6,23.7l-1.4,7.8h-1.9l1.4-7.8H59.6L59.6,23.7z
	 M48.2,21.3l-1.1,5.9C46.8,29.1,46,30,44.7,30c-0.7,0-1.1-0.3-1.4-0.9c-0.2-0.5-0.3-1.2-0.1-1.9l1.1-5.9h-2.4L41,26.1
	c-0.3,1.7-0.2,3,0.3,3.9c0.6,1.1,1.6,1.6,3.1,1.6c1.6,0,2.8-0.4,3.6-1.3c0.8-0.8,1.4-2.2,1.8-4.2l0.9-4.8L48.2,21.3L48.2,21.3z"/>
<path class="st0" d="M10.4,2c-1.5,0.2-3,0.6-4.3,1.2c-3.2,1.5-5.2,4-5.9,7.4c-0.3,1.5-0.4,3.1-0.1,4.9c0.2,1.7,0.7,3.3,1.3,5.1
	c0.7,1.7,1.5,3.2,2.5,4.8c1,1.5,2.1,2.8,3.3,4s2.5,2.1,3.8,2.8c1.4,0.7,2.7,1.1,4,1.1c2.8,0.1,5.8-0.7,9-2.3c3-1.5,5.6-3.5,7.9-6
	s3.8-4.8,4.5-7.2c0.8-2.5,0.4-4.4-1.2-5.8c-0.7-0.6-1.6-1.3-2.7-2.1c-1.5,5.1-3.3,9.2-5.6,12.4c-3.2,4.5-6.8,6.5-11,6.1
	c-3.5-0.3-6-1.7-7.5-4.2c-1.2-2-1.8-4.7-1.6-8.1c0.1-2.5,0.6-5.4,1.5-8.5C9.1,5.5,9.7,3.7,10.4,2L10.4,2z M18.4,2.6
	c4.2,1.1,8.5,3.1,12.9,6.1c-1.6,4.5-3.4,8-5.2,10.6c-2.8,3.9-5.7,5.2-8.5,3.8c-2.4-1.2-3.1-4.5-2.2-9.9C15.8,10,16.9,6.5,18.4,2.6
	L18.4,2.6z"/>
</svg>
