<?xml version="1.0" encoding="utf-8"?>
<!-- Generator: Adobe Illustrator 26.0.1, SVG Export Plug-In . SVG Version: 6.00 Build 0)  -->
<svg version="1.1" id="Layer_1" xmlns="http://www.w3.org/2000/svg" xmlns:xlink="http://www.w3.org/1999/xlink" x="0px" y="0px"
	 viewBox="0 0 95 35" style="enable-background:new 0 0 95 35;" xml:space="preserve">
<style type="text/css">
	.st0{fill-rule:evenodd;clip-rule:evenodd;fill:#CCCCCC;}
</style>
<g>
	<polygon class="st0" points="64,5.4 85.8,5.4 70.6,24.9 81.5,24.9 80.6,30.4 59,30.4 73.7,10.9 64,10.9 64,5.4 	"/>
	<polygon class="st0" points="47.5,2.6 71.2,2.6 54.2,24.4 63.6,24.4 59,30.4 41.4,30.4 57.8,8.7 46,8.6 47.5,2.6 	"/>
	<polygon class="st0" points="44.7,24.9 38.8,24.9 42.8,0 48.8,0 44.7,24.9 	"/>
	<path class="st0" d="M40.7,27.4c2.1,0,3.8,1.7,3.8,3.8c0,2.1-1.7,3.8-3.8,3.8c-2.1,0-3.8-1.7-3.8-3.8
		C36.9,29.1,38.6,27.4,40.7,27.4L40.7,27.4z"/>
	<polygon class="st0" points="9.2,4 12.5,30.4 17.5,30.4 25,15.5 26.1,30.4 31.1,30.4 44.2,4 36.8,4 30.5,18.2 29.5,4 23.7,4 
		17,18.2 15.9,4 9.2,4 	"/>
</g>
</svg>
