<?xml version="1.0" encoding="utf-8"?>
<!-- Generator: Adobe Illustrator 26.0.1, SVG Export Plug-In . SVG Version: 6.00 Build 0)  -->
<svg version="1.1" id="Layer_1" xmlns="http://www.w3.org/2000/svg" xmlns:xlink="http://www.w3.org/1999/xlink" x="0px" y="0px"
	 viewBox="0 0 95 35" style="enable-background:new 0 0 95 35;" xml:space="preserve">
<style type="text/css">
	.st0{fill:#FFFFFF;}
</style>
<g>
	<path class="st0" d="M62.7,16.7c-0.5,0-0.9,0.4-0.9,0.9c0,0.5,0.4,0.9,0.9,0.9c0.5,0,0.9-0.4,0.9-0.9
		C63.6,17.2,63.2,16.7,62.7,16.7"/>
	<path class="st0" d="M62.7,11.4c-0.5,0-0.9,0.4-0.9,0.9s0.4,0.9,0.9,0.9c0.5,0,0.9-0.4,0.9-0.9S63.2,11.4,62.7,11.4"/>
	<path class="st0" d="M62.7,14c-0.5,0-0.9,0.4-0.9,0.9s0.4,0.9,0.9,0.9c0.5,0,0.9-0.4,0.9-0.9S63.2,14,62.7,14"/>
	<path class="st0" d="M65,7.3c-0.5,0-0.9,0.4-0.9,0.9C64.1,8.7,64.5,9,65,9c0.5,0,0.9-0.4,0.9-0.9C65.9,7.7,65.5,7.3,65,7.3"/>
	<path class="st0" d="M65,4.9c-0.3,0-0.6,0.3-0.6,0.6C64.5,5.8,64.7,6,65,6c0.3,0,0.6-0.3,0.6-0.6C65.6,5.2,65.3,4.9,65,4.9"/>
	<path class="st0" d="M62.7,21.2c0.5,0,0.9-0.4,0.9-0.9c0-0.5-0.4-0.9-0.9-0.9c-0.5,0-0.9,0.4-0.9,0.9
		C61.8,20.9,62.2,21.2,62.7,21.2"/>
	<path class="st0" d="M62.7,8.6c-0.5,0-0.9,0.4-0.9,0.9c0,0.5,0.4,0.9,0.9,0.9c0.5,0,0.9-0.4,0.9-0.9C63.6,9,63.2,8.6,62.7,8.6"/>
	<path class="st0" d="M60.3,18.1c-0.5,0-0.9,0.4-0.9,0.9c0,0.5,0.4,0.9,0.9,0.9c0.5,0,0.9-0.4,0.9-0.9
		C61.2,18.5,60.8,18.1,60.3,18.1"/>
	<path class="st0" d="M60.3,16.9c0.3,0,0.6-0.3,0.6-0.6c0-0.3-0.3-0.6-0.6-0.6c-0.3,0-0.6,0.3-0.6,0.6C59.8,16.6,60,16.9,60.3,16.9"
		/>
	<path class="st0" d="M55.6,16.9c0.3,0,0.6-0.3,0.6-0.6c0-0.3-0.3-0.6-0.6-0.6c-0.3,0-0.6,0.3-0.6,0.6
		C55.1,16.6,55.3,16.9,55.6,16.9"/>
	<path class="st0" d="M58,23.6c0.3,0,0.6-0.3,0.6-0.6c0-0.3-0.3-0.6-0.6-0.6c-0.3,0-0.6,0.3-0.6,0.6C57.4,23.4,57.7,23.6,58,23.6"/>
	<path class="st0" d="M60.3,10.4c-0.3,0-0.6,0.3-0.6,0.6c0,0.3,0.3,0.6,0.6,0.6c0.3,0,0.6-0.3,0.6-0.6
		C60.9,10.6,60.7,10.4,60.3,10.4"/>
	<path class="st0" d="M55.6,10.4c-0.3,0-0.6,0.3-0.6,0.6c0,0.3,0.3,0.6,0.6,0.6c0.3,0,0.6-0.3,0.6-0.6C56.2,10.6,56,10.4,55.6,10.4"
		/>
	<path class="st0" d="M62.7,5.9c-0.5,0-0.9,0.4-0.9,0.9s0.4,0.9,0.9,0.9c0.5,0,0.9-0.4,0.9-0.9S63.2,5.9,62.7,5.9"/>
	<path class="st0" d="M62.7,3.6c-0.3,0-0.6,0.3-0.6,0.6c0,0.3,0.3,0.6,0.6,0.6c0.3,0,0.6-0.3,0.6-0.6C63.2,3.8,62.9,3.6,62.7,3.6"/>
	<path class="st0" d="M60.3,22.6c0.5,0,0.9-0.4,0.9-0.9c0-0.5-0.4-0.9-0.9-0.9c-0.5,0-0.9,0.4-0.9,0.9
		C59.4,22.3,59.8,22.6,60.3,22.6"/>
	<path class="st0" d="M65,12.7c-0.5,0-0.9,0.4-0.9,0.9c0,0.5,0.4,0.9,0.9,0.9c0.5,0,0.9-0.4,0.9-0.9C65.9,13.1,65.5,12.7,65,12.7"/>
	<path class="st0" d="M75.4,10c-0.5,0-0.9,0.4-0.9,0.9s0.4,0.9,0.9,0.9c0.5,0,0.9-0.4,0.9-0.9C76.3,10.4,75.9,10,75.4,10"/>
	<path class="st0" d="M75.4,7.3c-0.5,0-0.9,0.4-0.9,0.9c0,0.5,0.4,0.9,0.9,0.9c0.5,0,0.9-0.4,0.9-0.9C76.3,7.7,75.9,7.3,75.4,7.3"/>
	<path class="st0" d="M67.4,14c-0.5,0-0.9,0.4-0.9,0.9s0.4,0.9,0.9,0.9c0.5,0,0.9-0.4,0.9-0.9S67.9,14,67.4,14"/>
	<path class="st0" d="M75.4,4.6c-0.5,0-0.9,0.4-0.9,0.9s0.4,0.9,0.9,0.9c0.5,0,0.9-0.4,0.9-0.9S75.9,4.6,75.4,4.6"/>
	<path class="st0" d="M75.4,18.1c-0.5,0-0.9,0.4-0.9,0.9c0,0.5,0.4,0.9,0.9,0.9c0.5,0,0.9-0.4,0.9-0.9
		C76.3,18.5,75.9,18.1,75.4,18.1"/>
	<path class="st0" d="M75.4,15.4c-0.5,0-0.9,0.4-0.9,0.9c0,0.5,0.4,0.9,0.9,0.9c0.5,0,0.9-0.4,0.9-0.9
		C76.3,15.8,75.9,15.4,75.4,15.4"/>
	<path class="st0" d="M75.4,12.7c-0.5,0-0.9,0.4-0.9,0.9c0,0.5,0.4,0.9,0.9,0.9c0.5,0,0.9-0.4,0.9-0.9
		C76.3,13.1,75.9,12.7,75.4,12.7"/>
	<path class="st0" d="M50.9,15.4c-0.5,0-0.9,0.4-0.9,0.9c0,0.5,0.4,0.9,0.9,0.9s0.9-0.4,0.9-0.9C51.9,15.8,51.4,15.4,50.9,15.4"/>
	<path class="st0" d="M65,19.9c0.5,0,0.9-0.4,0.9-0.9c0-0.5-0.4-0.9-0.9-0.9c-0.5,0-0.9,0.4-0.9,0.9C64.1,19.5,64.5,19.9,65,19.9"/>
	<path class="st0" d="M67.4,11.4c-0.5,0-0.9,0.4-0.9,0.9s0.4,0.9,0.9,0.9c0.5,0,0.9-0.4,0.9-0.9S67.9,11.4,67.4,11.4"/>
	<path class="st0" d="M60.3,7.3c-0.5,0-0.9,0.4-0.9,0.9c0,0.5,0.4,0.9,0.9,0.9c0.5,0,0.9-0.4,0.9-0.9S60.8,7.3,60.3,7.3"/>
	<path class="st0" d="M65,15.4c-0.5,0-0.9,0.4-0.9,0.9c0,0.5,0.4,0.9,0.9,0.9c0.5,0,0.9-0.4,0.9-0.9C65.9,15.8,65.5,15.4,65,15.4"/>
	<path class="st0" d="M67.4,18.2c0.3,0,0.6-0.3,0.6-0.6c0-0.3-0.3-0.6-0.6-0.6c-0.3,0-0.6,0.3-0.6,0.6C66.8,17.9,67,18.2,67.4,18.2"
		/>
	<path class="st0" d="M67.4,8.6c-0.5,0-0.9,0.4-0.9,0.9c0,0.5,0.4,0.9,0.9,0.9c0.5,0,0.9-0.4,0.9-0.9C68.3,9,67.9,8.6,67.4,8.6"/>
	<path class="st0" d="M53.3,22.1c-0.5,0-0.9,0.4-0.9,0.9c0,0.5,0.4,0.9,0.9,0.9c0.5,0,0.9-0.4,0.9-0.9
		C54.2,22.5,53.8,22.1,53.3,22.1"/>
	<path class="st0" d="M53.3,11.4c-0.5,0-0.9,0.4-0.9,0.9s0.4,0.9,0.9,0.9c0.5,0,0.9-0.4,0.9-0.9C54.2,11.8,53.8,11.4,53.3,11.4"/>
	<path class="st0" d="M60.3,4.6c-0.5,0-0.9,0.4-0.9,0.9s0.4,0.9,0.9,0.9c0.5,0,0.9-0.4,0.9-0.9S60.8,4.6,60.3,4.6"/>
	<path class="st0" d="M53.3,5.9c-0.5,0-0.9,0.4-0.9,0.9s0.4,0.9,0.9,0.9c0.5,0,0.9-0.4,0.9-0.9C54.2,6.3,53.8,5.9,53.3,5.9"/>
	<path class="st0" d="M53.3,3.3c-0.5,0-0.9,0.4-0.9,0.9S52.8,5,53.3,5c0.5,0,0.9-0.4,0.9-0.9S53.8,3.3,53.3,3.3"/>
	<path class="st0" d="M53.3,19.4c-0.5,0-0.9,0.4-0.9,0.9c0,0.5,0.4,0.9,0.9,0.9c0.5,0,0.9-0.4,0.9-0.9
		C54.2,19.8,53.8,19.4,53.3,19.4"/>
	<path class="st0" d="M53.3,16.7c-0.5,0-0.9,0.4-0.9,0.9c0,0.5,0.4,0.9,0.9,0.9c0.5,0,0.9-0.4,0.9-0.9
		C54.2,17.2,53.8,16.7,53.3,16.7"/>
	<path class="st0" d="M53.3,14c-0.5,0-0.9,0.4-0.9,0.9s0.4,0.9,0.9,0.9c0.5,0,0.9-0.4,0.9-0.9C54.2,14.4,53.8,14,53.3,14"/>
	<path class="st0" d="M50.9,20.8c-0.5,0-0.9,0.4-0.9,0.9c0,0.5,0.4,0.9,0.9,0.9s0.9-0.4,0.9-0.9C51.8,21.2,51.4,20.8,50.9,20.8"/>
	<path class="st0" d="M50.9,23.5c-0.5,0-0.9,0.4-0.9,0.9c0,0.5,0.4,0.9,0.9,0.9s0.9-0.4,0.9-0.9C51.9,23.9,51.4,23.5,50.9,23.5"/>
	<path class="st0" d="M53.3,31.7c0.3,0,0.6-0.3,0.6-0.6c0-0.3-0.3-0.6-0.6-0.6c-0.3,0-0.6,0.3-0.6,0.6S53,31.7,53.3,31.7"/>
	<path class="st0" d="M50.9,18.1c-0.5,0-0.9,0.4-0.9,0.9c0,0.5,0.4,0.9,0.9,0.9s0.9-0.4,0.9-0.9C51.9,18.5,51.4,18.1,50.9,18.1"/>
	<path class="st0" d="M75.4,20.8c-0.5,0-0.9,0.4-0.9,0.9c0,0.5,0.4,0.9,0.9,0.9c0.5,0,0.9-0.4,0.9-0.9
		C76.3,21.2,75.9,20.8,75.4,20.8"/>
	<path class="st0" d="M50.9,26.2c-0.5,0-0.9,0.4-0.9,0.9c0,0.5,0.4,0.9,0.9,0.9s0.9-0.4,0.9-0.9C51.9,26.6,51.4,26.2,50.9,26.2"/>
	<path class="st0" d="M50.9,30.7c0.5,0,0.9-0.4,0.9-0.9c0-0.5-0.4-0.9-0.9-0.9S50,29.4,50,29.9C50,30.3,50.4,30.7,50.9,30.7"/>
	<path class="st0" d="M53.3,8.6c-0.5,0-0.9,0.4-0.9,0.9c0,0.5,0.4,0.9,0.9,0.9c0.5,0,0.9-0.4,0.9-0.9C54.2,9,53.8,8.6,53.3,8.6"/>
	<path class="st0" d="M58,5.9c-0.5,0-0.9,0.4-0.9,0.9s0.4,0.9,0.9,0.9c0.5,0,0.9-0.4,0.9-0.9S58.5,5.9,58,5.9"/>
	<path class="st0" d="M58,8.6c-0.5,0-0.9,0.4-0.9,0.9c0,0.5,0.4,0.9,0.9,0.9c0.5,0,0.9-0.4,0.9-0.9C58.9,9,58.5,8.6,58,8.6"/>
	<path class="st0" d="M58,3.3c-0.5,0-0.9,0.4-0.9,0.9S57.5,5,58,5c0.5,0,0.9-0.4,0.9-0.9S58.5,3.3,58,3.3"/>
	<path class="st0" d="M55.6,22.6c0.5,0,0.9-0.4,0.9-0.9c0-0.5-0.4-0.9-0.9-0.9c-0.5,0-0.9,0.4-0.9,0.9
		C54.7,22.3,55.1,22.6,55.6,22.6"/>
	<path class="st0" d="M53.3,24.9c-0.5,0-0.9,0.4-0.9,0.9c0,0.5,0.4,0.9,0.9,0.9c0.5,0,0.9-0.4,0.9-0.9
		C54.2,25.3,53.8,24.9,53.3,24.9"/>
	<path class="st0" d="M58,16.7c-0.5,0-0.9,0.4-0.9,0.9c0,0.5,0.4,0.9,0.9,0.9c0.5,0,0.9-0.4,0.9-0.9C58.9,17.2,58.5,16.7,58,16.7"/>
	<path class="st0" d="M58,21.2c0.5,0,0.9-0.4,0.9-0.9c0-0.5-0.4-0.9-0.9-0.9c-0.5,0-0.9,0.4-0.9,0.9C57.1,20.9,57.5,21.2,58,21.2"/>
	<path class="st0" d="M55.6,7.3c-0.5,0-0.9,0.4-0.9,0.9c0,0.5,0.4,0.9,0.9,0.9c0.5,0,0.9-0.4,0.9-0.9S56.1,7.3,55.6,7.3"/>
	<path class="st0" d="M55.6,4.6c-0.5,0-0.9,0.4-0.9,0.9s0.4,0.9,0.9,0.9c0.5,0,0.9-0.4,0.9-0.9C56.6,5,56.1,4.6,55.6,4.6"/>
	<path class="st0" d="M53.3,27.6c-0.5,0-0.9,0.4-0.9,0.9c0,0.5,0.4,0.9,0.9,0.9c0.5,0,0.9-0.4,0.9-0.9C54.2,28,53.8,27.6,53.3,27.6"
		/>
	<path class="st0" d="M55.6,18.1c-0.5,0-0.9,0.4-0.9,0.9c0,0.5,0.4,0.9,0.9,0.9c0.5,0,0.9-0.4,0.9-0.9
		C56.6,18.5,56.1,18.1,55.6,18.1"/>
	<path class="st0" d="M65,10c-0.5,0-0.9,0.4-0.9,0.9s0.4,0.9,0.9,0.9c0.5,0,0.9-0.4,0.9-0.9C65.9,10.4,65.5,10,65,10"/>
	<path class="st0" d="M87.1,5.9c-0.5,0-0.9,0.4-0.9,0.9s0.4,0.9,0.9,0.9c0.5,0,0.9-0.4,0.9-0.9S87.6,5.9,87.1,5.9"/>
	<path class="st0" d="M87.1,8.6c-0.5,0-0.9,0.4-0.9,0.9c0,0.5,0.4,0.9,0.9,0.9c0.5,0,0.9-0.4,0.9-0.9C88,9,87.6,8.6,87.1,8.6"/>
	<path class="st0" d="M87.1,19.4c-0.5,0-0.9,0.4-0.9,0.9c0,0.5,0.4,0.9,0.9,0.9c0.5,0,0.9-0.4,0.9-0.9C88,19.8,87.6,19.4,87.1,19.4"
		/>
	<path class="st0" d="M87.1,16.7c-0.5,0-0.9,0.4-0.9,0.9c0,0.5,0.4,0.9,0.9,0.9c0.5,0,0.9-0.4,0.9-0.9C88,17.2,87.6,16.7,87.1,16.7"
		/>
	<path class="st0" d="M89.4,4.6c-0.5,0-0.9,0.4-0.9,0.9s0.4,0.9,0.9,0.9s0.9-0.4,0.9-0.9C90.3,5,89.9,4.6,89.4,4.6"/>
	<path class="st0" d="M89.4,10c-0.5,0-0.9,0.4-0.9,0.9s0.4,0.9,0.9,0.9s0.9-0.4,0.9-0.9C90.3,10.4,89.9,10,89.4,10"/>
	<path class="st0" d="M89.4,12.7c-0.5,0-0.9,0.4-0.9,0.9c0,0.5,0.4,0.9,0.9,0.9s0.9-0.4,0.9-0.9C90.3,13.1,89.9,12.7,89.4,12.7"/>
	<path class="st0" d="M89.4,7.3c-0.5,0-0.9,0.4-0.9,0.9c0,0.5,0.4,0.9,0.9,0.9s0.9-0.4,0.9-0.9C90.3,7.7,89.9,7.3,89.4,7.3"/>
	<path class="st0" d="M84.7,7.3c-0.5,0-0.9,0.4-0.9,0.9c0,0.5,0.4,0.9,0.9,0.9c0.5,0,0.9-0.4,0.9-0.9C85.6,7.7,85.2,7.3,84.7,7.3"/>
	<path class="st0" d="M87.1,3.6c-0.3,0-0.6,0.3-0.6,0.6c0,0.3,0.3,0.6,0.6,0.6c0.3,0,0.6-0.3,0.6-0.6C87.6,3.8,87.4,3.6,87.1,3.6"/>
	<path class="st0" d="M84.7,10.4c-0.3,0-0.6,0.3-0.6,0.6c0,0.3,0.3,0.6,0.6,0.6c0.3,0,0.6-0.3,0.6-0.6
		C85.3,10.6,85.1,10.4,84.7,10.4"/>
	<path class="st0" d="M84.7,15.7c-0.3,0-0.6,0.3-0.6,0.6c0,0.3,0.3,0.6,0.6,0.6c0.3,0,0.6-0.3,0.6-0.6C85.3,16,85.1,15.7,84.7,15.7"
		/>
	<path class="st0" d="M87.1,22.5c-0.3,0-0.6,0.3-0.6,0.6c0,0.3,0.3,0.6,0.6,0.6c0.3,0,0.6-0.3,0.6-0.6
		C87.6,22.8,87.4,22.5,87.1,22.5"/>
	<path class="st0" d="M84.7,4.6c-0.5,0-0.9,0.4-0.9,0.9s0.4,0.9,0.9,0.9c0.5,0,0.9-0.4,0.9-0.9S85.2,4.6,84.7,4.6"/>
	<path class="st0" d="M84.7,18.1c-0.5,0-0.9,0.4-0.9,0.9c0,0.5,0.4,0.9,0.9,0.9c0.5,0,0.9-0.4,0.9-0.9
		C85.6,18.5,85.2,18.1,84.7,18.1"/>
	<path class="st0" d="M84.7,22.6c0.5,0,0.9-0.4,0.9-0.9c0-0.5-0.4-0.9-0.9-0.9c-0.5,0-0.9,0.4-0.9,0.9
		C83.8,22.3,84.2,22.6,84.7,22.6"/>
	<path class="st0" d="M82.4,23.6c0.3,0,0.6-0.3,0.6-0.6c0-0.3-0.3-0.6-0.6-0.6c-0.3,0-0.6,0.3-0.6,0.6
		C81.8,23.4,82.1,23.6,82.4,23.6"/>
	<path class="st0" d="M94.1,7.6c-0.3,0-0.6,0.3-0.6,0.6c0,0.3,0.3,0.6,0.6,0.6c0.3,0,0.6-0.3,0.6-0.6C94.7,7.9,94.4,7.6,94.1,7.6"/>
	<path class="st0" d="M91.8,20.9c0.3,0,0.6-0.3,0.6-0.6c0-0.3-0.3-0.6-0.6-0.6c-0.3,0-0.6,0.3-0.6,0.6
		C91.2,20.7,91.4,20.9,91.8,20.9"/>
	<path class="st0" d="M89.4,22.3c0.3,0,0.6-0.3,0.6-0.6c0-0.3-0.3-0.6-0.6-0.6c-0.3,0-0.6,0.3-0.6,0.6C88.9,22,89.1,22.3,89.4,22.3"
		/>
	<path class="st0" d="M94.1,11.8c0.5,0,0.9-0.4,0.9-0.9S94.6,10,94.1,10c-0.5,0-0.9,0.4-0.9,0.9C93.2,11.4,93.6,11.8,94.1,11.8"/>
	<path class="st0" d="M94.1,15.4c-0.5,0-0.9,0.4-0.9,0.9c0,0.5,0.4,0.9,0.9,0.9c0.5,0,0.9-0.4,0.9-0.9C95,15.8,94.6,15.4,94.1,15.4"
		/>
	<path class="st0" d="M94.1,12.7c-0.5,0-0.9,0.4-0.9,0.9c0,0.5,0.4,0.9,0.9,0.9c0.5,0,0.9-0.4,0.9-0.9C95,13.1,94.6,12.7,94.1,12.7"
		/>
	<path class="st0" d="M91.8,16.7c-0.5,0-0.9,0.4-0.9,0.9c0,0.5,0.4,0.9,0.9,0.9c0.5,0,0.9-0.4,0.9-0.9
		C92.7,17.2,92.3,16.7,91.8,16.7"/>
	<path class="st0" d="M91.8,14c-0.5,0-0.9,0.4-0.9,0.9s0.4,0.9,0.9,0.9c0.5,0,0.9-0.4,0.9-0.9S92.3,14,91.8,14"/>
	<path class="st0" d="M89.4,18.1c-0.5,0-0.9,0.4-0.9,0.9c0,0.5,0.4,0.9,0.9,0.9s0.9-0.4,0.9-0.9C90.3,18.5,89.9,18.1,89.4,18.1"/>
	<path class="st0" d="M91.8,5.9c-0.5,0-0.9,0.4-0.9,0.9s0.4,0.9,0.9,0.9c0.5,0,0.9-0.4,0.9-0.9S92.3,5.9,91.8,5.9"/>
	<path class="st0" d="M91.8,11.4c-0.5,0-0.9,0.4-0.9,0.9s0.4,0.9,0.9,0.9c0.5,0,0.9-0.4,0.9-0.9S92.3,11.4,91.8,11.4"/>
	<path class="st0" d="M89.4,15.4c-0.5,0-0.9,0.4-0.9,0.9c0,0.5,0.4,0.9,0.9,0.9s0.9-0.4,0.9-0.9C90.3,15.8,89.9,15.4,89.4,15.4"/>
	<path class="st0" d="M91.8,8.6c-0.5,0-0.9,0.4-0.9,0.9c0,0.5,0.4,0.9,0.9,0.9c0.5,0,0.9-0.4,0.9-0.9C92.7,9,92.3,8.6,91.8,8.6"/>
	<path class="st0" d="M77.8,16.7c-0.5,0-0.9,0.4-0.9,0.9c0,0.5,0.4,0.9,0.9,0.9c0.5,0,0.9-0.4,0.9-0.9
		C78.6,17.2,78.2,16.7,77.8,16.7"/>
	<path class="st0" d="M75.4,23.5c-0.5,0-0.9,0.4-0.9,0.9c0,0.5,0.4,0.9,0.9,0.9c0.5,0,0.9-0.4,0.9-0.9
		C76.3,23.9,75.9,23.5,75.4,23.5"/>
	<path class="st0" d="M77.8,19.4c-0.5,0-0.9,0.4-0.9,0.9c0,0.5,0.4,0.9,0.9,0.9c0.5,0,0.9-0.4,0.9-0.9
		C78.6,19.8,78.2,19.4,77.8,19.4"/>
	<path class="st0" d="M82.4,19.4c-0.5,0-0.9,0.4-0.9,0.9c0,0.5,0.4,0.9,0.9,0.9c0.5,0,0.9-0.4,0.9-0.9
		C83.3,19.8,82.9,19.4,82.4,19.4"/>
	<path class="st0" d="M77.8,27.6c-0.5,0-0.9,0.4-0.9,0.9c0,0.5,0.4,0.9,0.9,0.9c0.5,0,0.9-0.4,0.9-0.9C78.6,28,78.2,27.6,77.8,27.6"
		/>
	<path class="st0" d="M77.8,22.1c-0.5,0-0.9,0.4-0.9,0.9c0,0.5,0.4,0.9,0.9,0.9c0.5,0,0.9-0.4,0.9-0.9
		C78.6,22.5,78.2,22.1,77.8,22.1"/>
	<path class="st0" d="M77.8,11.4c-0.5,0-0.9,0.4-0.9,0.9s0.4,0.9,0.9,0.9c0.5,0,0.9-0.4,0.9-0.9S78.2,11.4,77.8,11.4"/>
	<path class="st0" d="M77.8,24.9c-0.5,0-0.9,0.4-0.9,0.9c0,0.5,0.4,0.9,0.9,0.9c0.5,0,0.9-0.4,0.9-0.9
		C78.6,25.3,78.2,24.9,77.8,24.9"/>
	<path class="st0" d="M77.8,5.9c-0.5,0-0.9,0.4-0.9,0.9s0.4,0.9,0.9,0.9c0.5,0,0.9-0.4,0.9-0.9S78.2,5.9,77.8,5.9"/>
	<path class="st0" d="M77.8,31.7c0.3,0,0.6-0.3,0.6-0.6c0-0.3-0.3-0.6-0.6-0.6c-0.3,0-0.6,0.3-0.6,0.6
		C77.1,31.5,77.4,31.7,77.8,31.7"/>
	<path class="st0" d="M75.4,30.7c0.5,0,0.9-0.4,0.9-0.9c0-0.5-0.4-0.9-0.9-0.9c-0.5,0-0.9,0.4-0.9,0.9
		C74.4,30.3,74.9,30.7,75.4,30.7"/>
	<path class="st0" d="M75.4,26.2c-0.5,0-0.9,0.4-0.9,0.9c0,0.5,0.4,0.9,0.9,0.9c0.5,0,0.9-0.4,0.9-0.9
		C76.3,26.6,75.9,26.2,75.4,26.2"/>
	<path class="st0" d="M77.8,8.6c-0.5,0-0.9,0.4-0.9,0.9c0,0.5,0.4,0.9,0.9,0.9c0.5,0,0.9-0.4,0.9-0.9C78.6,9,78.2,8.6,77.8,8.6"/>
	<path class="st0" d="M77.8,3.3c-0.5,0-0.9,0.4-0.9,0.9S77.3,5,77.8,5c0.5,0,0.9-0.4,0.9-0.9S78.2,3.3,77.8,3.3"/>
	<path class="st0" d="M80,4.6c-0.5,0-0.9,0.4-0.9,0.9s0.4,0.9,0.9,0.9c0.5,0,0.9-0.4,0.9-0.9C81,5,80.5,4.6,80,4.6"/>
	<path class="st0" d="M77.8,14c-0.5,0-0.9,0.4-0.9,0.9s0.4,0.9,0.9,0.9c0.5,0,0.9-0.4,0.9-0.9S78.2,14,77.8,14"/>
	<path class="st0" d="M82.4,3.3c-0.5,0-0.9,0.4-0.9,0.9S81.9,5,82.4,5c0.5,0,0.9-0.4,0.9-0.9S82.9,3.3,82.4,3.3"/>
	<path class="st0" d="M82.4,5.9c-0.5,0-0.9,0.4-0.9,0.9s0.4,0.9,0.9,0.9c0.5,0,0.9-0.4,0.9-0.9C83.3,6.3,82.9,5.9,82.4,5.9"/>
	<path class="st0" d="M80,30.7c0.5,0,0.9-0.4,0.9-0.9c0-0.5-0.4-0.9-0.9-0.9c-0.5,0-0.9,0.4-0.9,0.9C79.1,30.3,79.5,30.7,80,30.7"/>
	<path class="st0" d="M82.4,16.7c-0.5,0-0.9,0.4-0.9,0.9c0,0.5,0.4,0.9,0.9,0.9c0.5,0,0.9-0.4,0.9-0.9
		C83.3,17.2,82.9,16.7,82.4,16.7"/>
	<path class="st0" d="M80,26.2c-0.5,0-0.9,0.4-0.9,0.9c0,0.5,0.4,0.9,0.9,0.9c0.5,0,0.9-0.4,0.9-0.9C81,26.6,80.5,26.2,80,26.2"/>
	<path class="st0" d="M82.4,8.6c-0.5,0-0.9,0.4-0.9,0.9c0,0.5,0.4,0.9,0.9,0.9c0.5,0,0.9-0.4,0.9-0.9C83.3,9,82.9,8.6,82.4,8.6"/>
	<path class="st0" d="M80,18.1c-0.5,0-0.9,0.4-0.9,0.9c0,0.5,0.4,0.9,0.9,0.9c0.5,0,0.9-0.4,0.9-0.9C81,18.5,80.5,18.1,80,18.1"/>
	<path class="st0" d="M80,15.4c-0.5,0-0.9,0.4-0.9,0.9c0,0.5,0.4,0.9,0.9,0.9c0.5,0,0.9-0.4,0.9-0.9C81,15.8,80.5,15.4,80,15.4"/>
	<path class="st0" d="M80,12.7c-0.5,0-0.9,0.4-0.9,0.9c0,0.5,0.4,0.9,0.9,0.9c0.5,0,0.9-0.4,0.9-0.9C81,13.1,80.5,12.7,80,12.7"/>
	<path class="st0" d="M80,10c-0.5,0-0.9,0.4-0.9,0.9s0.4,0.9,0.9,0.9c0.5,0,0.9-0.4,0.9-0.9C81,10.4,80.5,10,80,10"/>
	<path class="st0" d="M80,7.3c-0.5,0-0.9,0.4-0.9,0.9C79.1,8.7,79.5,9,80,9c0.5,0,0.9-0.4,0.9-0.9C80.9,7.7,80.5,7.3,80,7.3"/>
	<path class="st0" d="M80,20.8c-0.5,0-0.9,0.4-0.9,0.9c0,0.5,0.4,0.9,0.9,0.9c0.5,0,0.9-0.4,0.9-0.9C80.9,21.2,80.5,20.8,80,20.8"/>
	<path class="st0" d="M80,23.5c-0.5,0-0.9,0.4-0.9,0.9c0,0.5,0.4,0.9,0.9,0.9c0.5,0,0.9-0.4,0.9-0.9C81,23.9,80.5,23.5,80,23.5"/>
	<path class="st0" d="M42.6,4.9c-0.3,0-0.6,0.3-0.6,0.6c0,0.3,0.3,0.6,0.6,0.6c0.3,0,0.6-0.3,0.6-0.6C43.2,5.2,42.9,4.9,42.6,4.9"/>
	<path class="st0" d="M16.9,19.4c-0.5,0-0.9,0.4-0.9,0.9c0,0.5,0.4,0.9,0.9,0.9c0.5,0,0.9-0.4,0.9-0.9
		C17.8,19.8,17.4,19.4,16.9,19.4"/>
	<path class="st0" d="M16.9,16.7c-0.5,0-0.9,0.4-0.9,0.9c0,0.5,0.4,0.9,0.9,0.9c0.5,0,0.9-0.4,0.9-0.9
		C17.8,17.1,17.4,16.7,16.9,16.7"/>
	<path class="st0" d="M16.9,11.7c-0.3,0-0.6,0.3-0.6,0.6c0,0.3,0.3,0.6,0.6,0.6c0.3,0,0.6-0.3,0.6-0.6
		C17.5,11.9,17.2,11.7,16.9,11.7"/>
	<path class="st0" d="M16.9,14c-0.5,0-0.9,0.4-0.9,0.9s0.4,0.9,0.9,0.9c0.5,0,0.9-0.4,0.9-0.9S17.4,14,16.9,14"/>
	<path class="st0" d="M19.3,22.3c0.3,0,0.6-0.3,0.6-0.6c0-0.3-0.3-0.6-0.6-0.6c-0.3,0-0.6,0.3-0.6,0.6C18.7,22,18.9,22.3,19.3,22.3"
		/>
	<path class="st0" d="M16.9,22.1c-0.5,0-0.9,0.4-0.9,0.9c0,0.5,0.4,0.9,0.9,0.9c0.5,0,0.9-0.4,0.9-0.9
		C17.8,22.5,17.4,22.1,16.9,22.1"/>
	<path class="st0" d="M16.9,26.7c0.5,0,0.9-0.4,0.9-0.9c0-0.5-0.4-0.9-0.9-0.9c-0.5,0-0.9,0.4-0.9,0.9C16,26.3,16.4,26.7,16.9,26.7"
		/>
	<path class="st0" d="M14.6,30.7c0.5,0,0.9-0.4,0.9-0.9c0-0.5-0.4-0.9-0.9-0.9c-0.5,0-0.9,0.4-0.9,0.9
		C13.6,30.3,14.1,30.7,14.6,30.7"/>
	<path class="st0" d="M14.6,20.8c-0.5,0-0.9,0.4-0.9,0.9c0,0.5,0.4,0.9,0.9,0.9c0.5,0,0.9-0.4,0.9-0.9
		C15.5,21.2,15.1,20.8,14.6,20.8"/>
	<path class="st0" d="M12.2,24.9c-0.5,0-0.9,0.4-0.9,0.9c0,0.5,0.4,0.9,0.9,0.9s0.9-0.4,0.9-0.9C13.1,25.3,12.7,24.9,12.2,24.9"/>
	<path class="st0" d="M12.2,27.6c-0.5,0-0.9,0.4-0.9,0.9c0,0.5,0.4,0.9,0.9,0.9s0.9-0.4,0.9-0.9C13.1,28,12.7,27.6,12.2,27.6"/>
	<path class="st0" d="M14.6,18.1c-0.5,0-0.9,0.4-0.9,0.9c0,0.5,0.4,0.9,0.9,0.9c0.5,0,0.9-0.4,0.9-0.9
		C15.5,18.5,15.1,18.1,14.6,18.1"/>
	<path class="st0" d="M14.6,26.2c-0.5,0-0.9,0.4-0.9,0.9c0,0.5,0.4,0.9,0.9,0.9c0.5,0,0.9-0.4,0.9-0.9
		C15.5,26.6,15.1,26.2,14.6,26.2"/>
	<path class="st0" d="M14.6,23.5c-0.5,0-0.9,0.4-0.9,0.9c0,0.5,0.4,0.9,0.9,0.9c0.5,0,0.9-0.4,0.9-0.9
		C15.5,23.9,15.1,23.5,14.6,23.5"/>
	<path class="st0" d="M21.6,18.6c0.5,0,0.9-0.4,0.9-0.9c0-0.5-0.4-0.9-0.9-0.9c-0.5,0-0.9,0.4-0.9,0.9C20.7,18.2,21,18.6,21.6,18.6"
		/>
	<path class="st0" d="M21.6,14c-0.5,0-0.9,0.4-0.9,0.9s0.4,0.9,0.9,0.9c0.5,0,0.9-0.4,0.9-0.9C22.5,14.4,22.1,14,21.6,14"/>
	<path class="st0" d="M21.6,11.4c-0.5,0-0.9,0.4-0.9,0.9s0.4,0.9,0.9,0.9c0.5,0,0.9-0.4,0.9-0.9C22.5,11.8,22.1,11.4,21.6,11.4"/>
	<path class="st0" d="M21.6,8.6c-0.5,0-0.9,0.4-0.9,0.9c0,0.5,0.4,0.9,0.9,0.9c0.5,0,0.9-0.4,0.9-0.9C22.4,9,22.1,8.6,21.6,8.6"/>
	<path class="st0" d="M23.9,22.3c0.3,0,0.6-0.3,0.6-0.6c0-0.3-0.3-0.6-0.6-0.6c-0.3,0-0.6,0.3-0.6,0.6C23.3,22,23.6,22.3,23.9,22.3"
		/>
	<path class="st0" d="M23.9,7.3c-0.5,0-0.9,0.4-0.9,0.9C23,8.7,23.4,9,23.9,9c0.5,0,0.9-0.4,0.9-0.9C24.8,7.7,24.4,7.3,23.9,7.3"/>
	<path class="st0" d="M19.3,7.3c-0.5,0-0.9,0.4-0.9,0.9c0,0.5,0.4,0.9,0.9,0.9s0.9-0.4,0.9-0.9C20.2,7.7,19.8,7.3,19.3,7.3"/>
	<path class="st0" d="M21.6,5.9c-0.5,0-0.9,0.4-0.9,0.9s0.4,0.9,0.9,0.9c0.5,0,0.9-0.4,0.9-0.9C22.5,6.3,22.1,5.9,21.6,5.9"/>
	<path class="st0" d="M19.3,10c-0.5,0-0.9,0.4-0.9,0.9s0.4,0.9,0.9,0.9s0.9-0.4,0.9-0.9C20.2,10.4,19.8,10,19.3,10"/>
	<path class="st0" d="M19.3,15.4c-0.5,0-0.9,0.4-0.9,0.9c0,0.5,0.4,0.9,0.9,0.9s0.9-0.4,0.9-0.9C20.2,15.8,19.8,15.4,19.3,15.4"/>
	<path class="st0" d="M19.3,12.7c-0.5,0-0.9,0.4-0.9,0.9c0,0.5,0.4,0.9,0.9,0.9s0.9-0.4,0.9-0.9C20.1,13.1,19.8,12.7,19.3,12.7"/>
	<path class="st0" d="M19.3,18.1c-0.5,0-0.9,0.4-0.9,0.9c0,0.5,0.4,0.9,0.9,0.9s0.9-0.4,0.9-0.9C20.2,18.5,19.8,18.1,19.3,18.1"/>
	<path class="st0" d="M21.6,3.6c-0.3,0-0.6,0.3-0.6,0.6c0,0.3,0.3,0.6,0.6,0.6c0.3,0,0.6-0.3,0.6-0.6C22.2,3.8,21.9,3.6,21.6,3.6"/>
	<path class="st0" d="M19.3,4.9c-0.3,0-0.6,0.3-0.6,0.6C18.7,5.8,19,6,19.3,6c0.3,0,0.6-0.3,0.6-0.6C19.8,5.2,19.5,4.9,19.3,4.9"/>
	<path class="st0" d="M23.9,4.9c-0.3,0-0.6,0.3-0.6,0.6c0,0.3,0.3,0.6,0.6,0.6c0.3,0,0.6-0.3,0.6-0.6C24.5,5.2,24.2,4.9,23.9,4.9"/>
	<path class="st0" d="M5.2,9.1c0.5,0,0.9-0.4,0.9-0.9c0-0.5-0.4-0.9-0.9-0.9c-0.5,0-0.9,0.4-0.9,0.9C4.4,8.7,4.7,9.1,5.2,9.1"/>
	<path class="st0" d="M7.5,5.9C7,5.9,6.7,6.3,6.7,6.8S7,7.7,7.5,7.7c0.5,0,0.9-0.4,0.9-0.9S8,5.9,7.5,5.9"/>
	<path class="st0" d="M7.5,8.6C7,8.6,6.7,9,6.7,9.5c0,0.5,0.4,0.9,0.9,0.9c0.5,0,0.9-0.4,0.9-0.9C8.4,9,8,8.6,7.5,8.6"/>
	<path class="st0" d="M7.5,14c-0.5,0-0.9,0.4-0.9,0.9s0.4,0.9,0.9,0.9c0.5,0,0.9-0.4,0.9-0.9S8,14,7.5,14"/>
	<path class="st0" d="M7.5,11.4c-0.5,0-0.9,0.4-0.9,0.9s0.4,0.9,0.9,0.9c0.5,0,0.9-0.4,0.9-0.9S8,11.4,7.5,11.4"/>
	<path class="st0" d="M5.2,14.5c0.5,0,0.9-0.4,0.9-0.9c0-0.5-0.4-0.9-0.9-0.9c-0.5,0-0.9,0.4-0.9,0.9C4.4,14.1,4.7,14.5,5.2,14.5"/>
	<path class="st0" d="M23.9,10c-0.5,0-0.9,0.4-0.9,0.9s0.4,0.9,0.9,0.9c0.5,0,0.9-0.4,0.9-0.9C24.8,10.4,24.4,10,23.9,10"/>
	<path class="st0" d="M5.2,11.8c0.5,0,0.9-0.4,0.9-0.9S5.7,10,5.2,10c-0.5,0-0.9,0.4-0.9,0.9S4.7,11.8,5.2,11.8"/>
	<path class="st0" d="M7.5,3.3C7,3.3,6.7,3.7,6.7,4.2S7,5,7.5,5C8,5,8.4,4.6,8.4,4.2S8,3.3,7.5,3.3"/>
	<path class="st0" d="M2.9,5.9C2.4,5.9,2,6.3,2,6.8s0.4,0.9,0.9,0.9s0.9-0.4,0.9-0.9C3.8,6.3,3.4,5.9,2.9,5.9"/>
	<path class="st0" d="M2.9,3.3C2.4,3.3,2,3.7,2,4.2S2.4,5,2.9,5c0.5,0,0.9-0.4,0.9-0.9S3.4,3.3,2.9,3.3"/>
	<path class="st0" d="M0.6,4.9C0.2,4.9,0,5.2,0,5.5C0,5.8,0.3,6,0.6,6c0.3,0,0.6-0.3,0.6-0.6C1.2,5.2,0.9,4.9,0.6,4.9"/>
	<path class="st0" d="M2.9,8.6C2.4,8.6,2,9,2,9.5c0,0.5,0.4,0.9,0.9,0.9c0.5,0,0.9-0.4,0.9-0.9C3.8,9,3.4,8.6,2.9,8.6"/>
	<path class="st0" d="M5.2,4.6C4.7,4.6,4.4,5,4.4,5.5s0.4,0.9,0.9,0.9c0.5,0,0.9-0.4,0.9-0.9S5.7,4.6,5.2,4.6"/>
	<path class="st0" d="M7.5,20.9c0.3,0,0.6-0.3,0.6-0.6c0-0.3-0.3-0.6-0.6-0.6c-0.3,0-0.6,0.3-0.6,0.6C7,20.7,7.3,20.9,7.5,20.9"/>
	<path class="st0" d="M9.9,7.6c-0.3,0-0.6,0.3-0.6,0.6c0,0.3,0.3,0.6,0.6,0.6c0.3,0,0.6-0.3,0.6-0.6C10.4,7.9,10.2,7.6,9.9,7.6"/>
	<path class="st0" d="M12.2,31.7c0.3,0,0.6-0.3,0.6-0.6c0-0.3-0.3-0.6-0.6-0.6c-0.3,0-0.6,0.3-0.6,0.6S11.9,31.7,12.2,31.7"/>
	<path class="st0" d="M12.2,14.4c-0.3,0-0.6,0.3-0.6,0.6c0,0.3,0.3,0.6,0.6,0.6c0.3,0,0.6-0.3,0.6-0.6S12.5,14.4,12.2,14.4"/>
	<path class="st0" d="M12.2,11.7c-0.3,0-0.6,0.3-0.6,0.6c0,0.3,0.3,0.6,0.6,0.6c0.3,0,0.6-0.3,0.6-0.6
		C12.8,11.9,12.5,11.7,12.2,11.7"/>
	<path class="st0" d="M30.9,11.7c-0.3,0-0.6,0.3-0.6,0.6c0,0.3,0.3,0.6,0.6,0.6c0.3,0,0.6-0.3,0.6-0.6
		C31.5,11.9,31.3,11.7,30.9,11.7"/>
	<path class="st0" d="M14.6,15.7c-0.3,0-0.6,0.3-0.6,0.6c0,0.3,0.3,0.6,0.6,0.6c0.3,0,0.6-0.3,0.6-0.6C15.1,16,14.9,15.7,14.6,15.7"
		/>
	<path class="st0" d="M28.6,15.7c-0.3,0-0.6,0.3-0.6,0.6c0,0.3,0.3,0.6,0.6,0.6c0.3,0,0.6-0.3,0.6-0.6C29.1,16,28.9,15.7,28.6,15.7"
		/>
	<path class="st0" d="M9.9,20.8c-0.5,0-0.9,0.4-0.9,0.9c0,0.5,0.4,0.9,0.9,0.9c0.5,0,0.9-0.4,0.9-0.9C10.8,21.2,10.4,20.8,9.9,20.8"
		/>
	<path class="st0" d="M9.9,23.5c-0.5,0-0.9,0.4-0.9,0.9c0,0.5,0.4,0.9,0.9,0.9c0.5,0,0.9-0.4,0.9-0.9C10.8,23.9,10.4,23.5,9.9,23.5"
		/>
	<path class="st0" d="M7.5,16.7c-0.5,0-0.9,0.4-0.9,0.9c0,0.5,0.4,0.9,0.9,0.9c0.5,0,0.9-0.4,0.9-0.9C8.4,17.1,8,16.7,7.5,16.7"/>
	<path class="st0" d="M12.2,16.7c-0.5,0-0.9,0.4-0.9,0.9c0,0.5,0.4,0.9,0.9,0.9s0.9-0.4,0.9-0.9C13.1,17.1,12.7,16.7,12.2,16.7"/>
	<path class="st0" d="M12.2,19.4c-0.5,0-0.9,0.4-0.9,0.9c0,0.5,0.4,0.9,0.9,0.9s0.9-0.4,0.9-0.9C13.1,19.8,12.7,19.4,12.2,19.4"/>
	<path class="st0" d="M12.2,22.1c-0.5,0-0.9,0.4-0.9,0.9c0,0.5,0.4,0.9,0.9,0.9s0.9-0.4,0.9-0.9C13.1,22.5,12.7,22.1,12.2,22.1"/>
	<path class="st0" d="M9.9,10C9.4,10,9,10.4,9,10.9s0.4,0.9,0.9,0.9c0.5,0,0.9-0.4,0.9-0.9S10.4,10,9.9,10"/>
	<path class="st0" d="M9.9,18.1C9.4,18.1,9,18.5,9,19c0,0.5,0.4,0.9,0.9,0.9c0.5,0,0.9-0.4,0.9-0.9C10.8,18.5,10.4,18.1,9.9,18.1"/>
	<path class="st0" d="M9.9,27.7c0.3,0,0.6-0.3,0.6-0.6c0-0.3-0.3-0.6-0.6-0.6c-0.3,0-0.6,0.3-0.6,0.6C9.3,27.4,9.5,27.7,9.9,27.7"/>
	<path class="st0" d="M9.9,15.4c-0.5,0-0.9,0.4-0.9,0.9c0,0.5,0.4,0.9,0.9,0.9c0.5,0,0.9-0.4,0.9-0.9C10.8,15.8,10.4,15.4,9.9,15.4"
		/>
	<path class="st0" d="M9.9,12.7c-0.5,0-0.9,0.4-0.9,0.9c0,0.5,0.4,0.9,0.9,0.9c0.5,0,0.9-0.4,0.9-0.9C10.8,13.1,10.4,12.7,9.9,12.7"
		/>
	<path class="st0" d="M33.3,27.7c0.3,0,0.6-0.3,0.6-0.6c0-0.3-0.3-0.6-0.6-0.6s-0.6,0.3-0.6,0.6C32.7,27.4,33,27.7,33.3,27.7"/>
	<path class="st0" d="M38,10c-0.5,0-0.9,0.4-0.9,0.9s0.4,0.9,0.9,0.9c0.5,0,0.9-0.4,0.9-0.9C38.9,10.4,38.5,10,38,10"/>
	<path class="st0" d="M38,7.3c-0.5,0-0.9,0.4-0.9,0.9C37.1,8.7,37.5,9,38,9c0.5,0,0.9-0.4,0.9-0.9C38.9,7.7,38.5,7.3,38,7.3"/>
	<path class="st0" d="M38,14.5c0.5,0,0.9-0.4,0.9-0.9c0-0.5-0.4-0.9-0.9-0.9c-0.5,0-0.9,0.4-0.9,0.9C37,14.1,37.5,14.5,38,14.5"/>
	<path class="st0" d="M40.3,10.5c0.5,0,0.9-0.4,0.9-0.9c0-0.5-0.4-0.9-0.9-0.9c-0.5,0-0.9,0.4-0.9,0.9
		C39.4,10.1,39.8,10.5,40.3,10.5"/>
	<path class="st0" d="M38,4.6c-0.5,0-0.9,0.4-0.9,0.9s0.4,0.9,0.9,0.9c0.5,0,0.9-0.4,0.9-0.9S38.5,4.6,38,4.6"/>
	<path class="st0" d="M40.3,5.9c-0.5,0-0.9,0.4-0.9,0.9s0.4,0.9,0.9,0.9c0.5,0,0.9-0.4,0.9-0.9S40.8,5.9,40.3,5.9"/>
	<path class="st0" d="M40.3,3.3c-0.5,0-0.9,0.4-0.9,0.9S39.8,5,40.3,5c0.5,0,0.9-0.4,0.9-0.9S40.8,3.3,40.3,3.3"/>
	<path class="st0" d="M35.6,14c-0.5,0-0.9,0.4-0.9,0.9s0.4,0.9,0.9,0.9s0.9-0.4,0.9-0.9S36.1,14,35.6,14"/>
	<path class="st0" d="M35.6,8.6c-0.5,0-0.9,0.4-0.9,0.9c0,0.5,0.4,0.9,0.9,0.9s0.9-0.4,0.9-0.9C36.5,9,36.1,8.6,35.6,8.6"/>
	<path class="st0" d="M35.6,5.9c-0.5,0-0.9,0.4-0.9,0.9s0.4,0.9,0.9,0.9s0.9-0.4,0.9-0.9S36.1,5.9,35.6,5.9"/>
	<path class="st0" d="M35.6,3.3c-0.5,0-0.9,0.4-0.9,0.9S35.1,5,35.6,5s0.9-0.4,0.9-0.9S36.1,3.3,35.6,3.3"/>
	<path class="st0" d="M48.6,31.7c0.3,0,0.6-0.3,0.6-0.6c0-0.3-0.3-0.6-0.6-0.6c-0.3,0-0.6,0.3-0.6,0.6C48,31.5,48.3,31.7,48.6,31.7"
		/>
	<path class="st0" d="M35.6,20.9c0.3,0,0.6-0.3,0.6-0.6c0-0.3-0.3-0.6-0.6-0.6c-0.3,0-0.6,0.3-0.6,0.6
		C35.1,20.7,35.3,20.9,35.6,20.9"/>
	<path class="st0" d="M35.6,16.7c-0.5,0-0.9,0.4-0.9,0.9c0,0.5,0.4,0.9,0.9,0.9s0.9-0.4,0.9-0.9C36.5,17.1,36.1,16.7,35.6,16.7"/>
	<path class="st0" d="M35.6,11.4c-0.5,0-0.9,0.4-0.9,0.9s0.4,0.9,0.9,0.9s0.9-0.4,0.9-0.9S36.1,11.4,35.6,11.4"/>
	<path class="st0" d="M48.6,22.1c-0.5,0-0.9,0.4-0.9,0.9c0,0.5,0.4,0.9,0.9,0.9c0.5,0,0.9-0.4,0.9-0.9
		C49.5,22.5,49.2,22.1,48.6,22.1"/>
	<path class="st0" d="M48.6,27.6c-0.5,0-0.9,0.4-0.9,0.9c0,0.5,0.4,0.9,0.9,0.9c0.5,0,0.9-0.4,0.9-0.9C49.5,28,49.2,27.6,48.6,27.6"
		/>
	<path class="st0" d="M48.6,24.9c-0.5,0-0.9,0.4-0.9,0.9c0,0.5,0.4,0.9,0.9,0.9c0.5,0,0.9-0.4,0.9-0.9
		C49.5,25.3,49.2,24.9,48.6,24.9"/>
	<path class="st0" d="M50.9,4.6C50.4,4.6,50,5,50,5.5s0.4,0.9,0.9,0.9s0.9-0.4,0.9-0.9C51.9,5,51.4,4.6,50.9,4.6"/>
	<path class="st0" d="M50.9,7.3c-0.5,0-0.9,0.4-0.9,0.9C50,8.7,50.4,9,50.9,9s0.9-0.4,0.9-0.9C51.8,7.7,51.4,7.3,50.9,7.3"/>
	<path class="st0" d="M50.9,10c-0.5,0-0.9,0.4-0.9,0.9s0.4,0.9,0.9,0.9s0.9-0.4,0.9-0.9C51.9,10.4,51.4,10,50.9,10"/>
	<path class="st0" d="M48.6,14c-0.5,0-0.9,0.4-0.9,0.9s0.4,0.9,0.9,0.9c0.5,0,0.9-0.4,0.9-0.9S49.2,14,48.6,14"/>
	<path class="st0" d="M48.6,19.4c-0.5,0-0.9,0.4-0.9,0.9c0,0.5,0.4,0.9,0.9,0.9c0.5,0,0.9-0.4,0.9-0.9
		C49.5,19.8,49.2,19.4,48.6,19.4"/>
	<path class="st0" d="M48.6,11.4c-0.5,0-0.9,0.4-0.9,0.9s0.4,0.9,0.9,0.9c0.5,0,0.9-0.4,0.9-0.9S49.2,11.4,48.6,11.4"/>
	<path class="st0" d="M48.6,5.9c-0.5,0-0.9,0.4-0.9,0.9s0.4,0.9,0.9,0.9c0.5,0,0.9-0.4,0.9-0.9S49.2,5.9,48.6,5.9"/>
	<path class="st0" d="M48.6,8.6c-0.5,0-0.9,0.4-0.9,0.9c0,0.5,0.4,0.9,0.9,0.9c0.5,0,0.9-0.4,0.9-0.9C49.5,9,49.2,8.6,48.6,8.6"/>
	<path class="st0" d="M48.6,3.3c-0.5,0-0.9,0.4-0.9,0.9S48.2,5,48.6,5c0.5,0,0.9-0.4,0.9-0.9S49.2,3.3,48.6,3.3"/>
	<path class="st0" d="M48.6,16.7c-0.5,0-0.9,0.4-0.9,0.9c0,0.5,0.4,0.9,0.9,0.9c0.5,0,0.9-0.4,0.9-0.9
		C49.5,17.2,49.2,16.7,48.6,16.7"/>
	<path class="st0" d="M23.9,12.7c-0.5,0-0.9,0.4-0.9,0.9c0,0.5,0.4,0.9,0.9,0.9c0.5,0,0.9-0.4,0.9-0.9
		C24.8,13.1,24.4,12.7,23.9,12.7"/>
	<path class="st0" d="M28.6,18.1c-0.5,0-0.9,0.4-0.9,0.9c0,0.5,0.4,0.9,0.9,0.9c0.5,0,0.9-0.4,0.9-0.9
		C29.5,18.5,29.1,18.1,28.6,18.1"/>
	<path class="st0" d="M26.2,22.1c-0.5,0-0.9,0.4-0.9,0.9c0,0.5,0.4,0.9,0.9,0.9c0.5,0,0.9-0.4,0.9-0.9
		C27.2,22.5,26.7,22.1,26.2,22.1"/>
	<path class="st0" d="M30.9,31.7c0.3,0,0.6-0.3,0.6-0.6c0-0.3-0.3-0.6-0.6-0.6c-0.3,0-0.6,0.3-0.6,0.6S30.6,31.7,30.9,31.7"/>
	<path class="st0" d="M28.6,20.8c-0.5,0-0.9,0.4-0.9,0.9c0,0.5,0.4,0.9,0.9,0.9c0.5,0,0.9-0.4,0.9-0.9
		C29.5,21.2,29.1,20.8,28.6,20.8"/>
	<path class="st0" d="M28.6,30.7c0.5,0,0.9-0.4,0.9-0.9c0-0.5-0.4-0.9-0.9-0.9c-0.5,0-0.9,0.4-0.9,0.9
		C27.7,30.3,28.1,30.7,28.6,30.7"/>
	<path class="st0" d="M28.6,23.5c-0.5,0-0.9,0.4-0.9,0.9c0,0.5,0.4,0.9,0.9,0.9c0.5,0,0.9-0.4,0.9-0.9
		C29.5,23.9,29.1,23.5,28.6,23.5"/>
	<path class="st0" d="M28.6,26.2c-0.5,0-0.9,0.4-0.9,0.9c0,0.5,0.4,0.9,0.9,0.9c0.5,0,0.9-0.4,0.9-0.9
		C29.5,26.6,29.1,26.2,28.6,26.2"/>
	<path class="st0" d="M26.2,26.7c0.5,0,0.9-0.4,0.9-0.9c0-0.5-0.4-0.9-0.9-0.9c-0.5,0-0.9,0.4-0.9,0.9
		C25.4,26.3,25.7,26.7,26.2,26.7"/>
	<path class="st0" d="M26.2,11.7c-0.3,0-0.6,0.3-0.6,0.6c0,0.3,0.3,0.6,0.6,0.6c0.3,0,0.6-0.3,0.6-0.6
		C26.8,11.9,26.6,11.7,26.2,11.7"/>
	<path class="st0" d="M23.9,18.1c-0.5,0-0.9,0.4-0.9,0.9c0,0.5,0.4,0.9,0.9,0.9c0.5,0,0.9-0.4,0.9-0.9
		C24.8,18.5,24.4,18.1,23.9,18.1"/>
	<path class="st0" d="M23.9,15.4c-0.5,0-0.9,0.4-0.9,0.9c0,0.5,0.4,0.9,0.9,0.9c0.5,0,0.9-0.4,0.9-0.9
		C24.8,15.8,24.4,15.4,23.9,15.4"/>
	<path class="st0" d="M26.2,19.4c-0.5,0-0.9,0.4-0.9,0.9c0,0.5,0.4,0.9,0.9,0.9c0.5,0,0.9-0.4,0.9-0.9
		C27.2,19.8,26.7,19.4,26.2,19.4"/>
	<path class="st0" d="M26.2,14c-0.5,0-0.9,0.4-0.9,0.9s0.4,0.9,0.9,0.9c0.5,0,0.9-0.4,0.9-0.9C27.2,14.4,26.7,14,26.2,14"/>
	<path class="st0" d="M26.2,16.7c-0.5,0-0.9,0.4-0.9,0.9c0,0.5,0.4,0.9,0.9,0.9c0.5,0,0.9-0.4,0.9-0.9
		C27.1,17.1,26.7,16.7,26.2,16.7"/>
	<path class="st0" d="M33.3,15.4c-0.5,0-0.9,0.4-0.9,0.9c0,0.5,0.4,0.9,0.9,0.9c0.5,0,0.9-0.4,0.9-0.9
		C34.2,15.8,33.8,15.4,33.3,15.4"/>
	<path class="st0" d="M33.3,12.7c-0.5,0-0.9,0.4-0.9,0.9c0,0.5,0.4,0.9,0.9,0.9c0.5,0,0.9-0.4,0.9-0.9
		C34.2,13.1,33.8,12.7,33.3,12.7"/>
	<path class="st0" d="M33.3,23.5c-0.5,0-0.9,0.4-0.9,0.9c0,0.5,0.4,0.9,0.9,0.9c0.5,0,0.9-0.4,0.9-0.9
		C34.2,23.9,33.8,23.5,33.3,23.5"/>
	<path class="st0" d="M30.9,14.4c-0.3,0-0.6,0.3-0.6,0.6c0,0.3,0.3,0.6,0.6,0.6c0.3,0,0.6-0.3,0.6-0.6S31.3,14.4,30.9,14.4"/>
	<path class="st0" d="M33.3,20.8c-0.5,0-0.9,0.4-0.9,0.9c0,0.5,0.4,0.9,0.9,0.9c0.5,0,0.9-0.4,0.9-0.9
		C34.2,21.2,33.8,20.8,33.3,20.8"/>
	<path class="st0" d="M33.3,18.1c-0.5,0-0.9,0.4-0.9,0.9c0,0.5,0.4,0.9,0.9,0.9c0.5,0,0.9-0.4,0.9-0.9
		C34.2,18.5,33.8,18.1,33.3,18.1"/>
	<path class="st0" d="M33.3,7.6c-0.3,0-0.6,0.3-0.6,0.6c0,0.3,0.3,0.6,0.6,0.6s0.6-0.3,0.6-0.6C33.8,7.9,33.6,7.6,33.3,7.6"/>
	<path class="st0" d="M33.3,10c-0.5,0-0.9,0.4-0.9,0.9s0.4,0.9,0.9,0.9c0.5,0,0.9-0.4,0.9-0.9C34.2,10.4,33.8,10,33.3,10"/>
	<path class="st0" d="M30.9,19.4c-0.5,0-0.9,0.4-0.9,0.9c0,0.5,0.4,0.9,0.9,0.9c0.5,0,0.9-0.4,0.9-0.9
		C31.8,19.8,31.4,19.4,30.9,19.4"/>
	<path class="st0" d="M30.9,16.7c-0.5,0-0.9,0.4-0.9,0.9c0,0.5,0.4,0.9,0.9,0.9c0.5,0,0.9-0.4,0.9-0.9
		C31.8,17.1,31.4,16.7,30.9,16.7"/>
	<path class="st0" d="M30.9,22.1c-0.5,0-0.9,0.4-0.9,0.9c0,0.5,0.4,0.9,0.9,0.9c0.5,0,0.9-0.4,0.9-0.9
		C31.8,22.5,31.4,22.1,30.9,22.1"/>
	<path class="st0" d="M50.9,12.7c-0.5,0-0.9,0.4-0.9,0.9c0,0.5,0.4,0.9,0.9,0.9s0.9-0.4,0.9-0.9C51.9,13.1,51.4,12.7,50.9,12.7"/>
	<path class="st0" d="M30.9,24.9c-0.5,0-0.9,0.4-0.9,0.9c0,0.5,0.4,0.9,0.9,0.9c0.5,0,0.9-0.4,0.9-0.9
		C31.8,25.3,31.4,24.9,30.9,24.9"/>
	<path class="st0" d="M30.9,27.6c-0.5,0-0.9,0.4-0.9,0.9c0,0.5,0.4,0.9,0.9,0.9c0.5,0,0.9-0.4,0.9-0.9C31.8,28,31.4,27.6,30.9,27.6"
		/>
</g>
</svg>
