<?xml version="1.0" encoding="utf-8"?>
<!-- Generator: Adobe Illustrator 26.0.1, SVG Export Plug-In . SVG Version: 6.00 Build 0)  -->
<svg version="1.1" id="Layer_1" xmlns="http://www.w3.org/2000/svg" xmlns:xlink="http://www.w3.org/1999/xlink" x="0px" y="0px"
	 viewBox="0 0 95 35" style="enable-background:new 0 0 95 35;" xml:space="preserve">
<style type="text/css">
	.st0{fill:#FFFFFF;}
</style>
<g>
	<path class="st0" d="M22,3.1L0,9.9l6.7,22l22-6.7L22,3.1z M9.4,20.8H8.6c-0.5-1.6-1-3.3-1.5-5.2h0c-0.5,1.8-1,3.5-1.5,5.2H4.8
		L3,14.6l0.8-0.2c0.5,1.7,1,3.4,1.5,5.4h0c0.5-1.9,1-3.6,1.5-5.3h0.7c0.5,1.7,1,3.4,1.5,5.3h0c0.5-1.9,1-3.7,1.5-5.4l0.7,0.1
		L9.4,20.8z M12.5,20.8h-0.8v-4.5h0.8V20.8z M12.1,15.4c-0.4,0-0.5-0.3-0.5-0.5c0-0.2,0.2-0.5,0.5-0.5s0.5,0.3,0.5,0.5
		C12.6,15,12.5,15.4,12.1,15.4z M15.3,20.9c-0.9,0-1.3-0.5-1.3-1.4v-2.7h-0.6v-0.5H14v-1.1l0.8-0.3v1.3h1.2v0.5h-1.2v2.5
		c0,0.6,0.1,1,0.6,1c0.3,0,0.5-0.1,0.6-0.2l0.2,0.4C15.9,20.7,15.6,20.9,15.3,20.9z M19.5,20.8c-0.1-0.2-0.1-0.5-0.1-0.8l-0.3,0.3
		c-0.3,0.3-0.7,0.6-1.1,0.6c-0.8,0-1.3-0.5-1.3-1.4c0-0.8,0.7-1.3,1.6-1.6l1.1-0.3c0-0.5-0.5-0.9-0.9-0.9c-0.5,0-0.8,0.2-1.2,0.5
		L17,16.8c0.4-0.4,0.9-0.6,1.5-0.6c0.7,0,1.7,0.2,1.7,1.5v2c0,0.3,0,0.8,0.2,1.1H19.5z M24.5,20.8V18c0-0.8-0.4-1.3-1.1-1.3
		c-0.6,0-1.2,0.4-1.2,1.3v2.7h-0.8v-4.5h0.8v0.6c0.4-0.4,1.1-0.6,1.5-0.6c1,0,1.6,0.6,1.6,1.7v2.9H24.5z"/>
	<path class="st0" d="M18.6,18.4c-0.7,0.2-1.1,0.6-1.1,1.1c0,0.5,0.3,0.8,0.6,0.8c0.6,0,1.3-0.7,1.2-2.1L18.6,18.4z"/>
</g>
<path class="st0" d="M29.7,14.7c0-0.2,0.2-0.5,0.5-0.5s0.5,0.3,0.5,0.5c0,0.3-0.1,0.6-0.5,0.6C29.8,15.3,29.7,15,29.7,14.7
	 M30.7,20.9h-0.8v-4.7h0.8V20.9z"/>
<path class="st0" d="M32.9,16.8c0.4-0.5,1.1-0.7,1.6-0.7c1.1,0,1.6,0.6,1.6,1.8v3h-0.8v-2.8c0-0.9-0.4-1.3-1.1-1.3
	c-0.7,0-1.3,0.4-1.3,1.3v2.8h-0.8v-4.7h0.8L32.9,16.8L32.9,16.8z"/>
<path class="st0" d="M38.8,20.9l-1.9-4.5l0.8-0.2c0.5,1.2,0.9,2.4,1.4,3.8h0c0.5-1.4,1-2.6,1.5-3.8l0.7,0.2l-2,4.6L38.8,20.9
	L38.8,20.9z"/>
<path class="st0" d="M42.6,18.6c0,0.9,0.7,1.8,1.6,1.8c0.4,0,0.9-0.2,1.3-0.4l0.2,0.5c-0.5,0.4-1.1,0.5-1.6,0.5
	c-1.5,0-2.4-0.9-2.4-2.5c0-1.6,1.2-2.4,2.2-2.4c1.4,0,1.9,1.3,1.8,2.5L42.6,18.6L42.6,18.6z M45,18.1c0-0.7-0.3-1.3-1-1.3
	c-0.9,0-1.2,0.8-1.3,1.3H45z"/>
<path class="st0" d="M49,17c-0.3-0.2-0.6-0.3-0.9-0.3c-0.3,0-0.7,0.1-0.7,0.5c0,0.4,0.4,0.6,1,1c0.6,0.4,1,0.8,1,1.5
	c0,0.8-0.8,1.3-1.6,1.3c-0.5,0-1.1-0.2-1.4-0.6l0.4-0.5c0.3,0.3,0.6,0.5,1,0.5c0.4,0,0.8-0.2,0.8-0.7c0-0.5-0.5-0.8-0.9-1.1
	c-0.5-0.4-1-0.7-1-1.3c0-0.7,0.7-1.2,1.6-1.2c0.5,0,0.9,0.2,1.2,0.4L49,17z"/>
<path class="st0" d="M51.5,16.2h1.2v0.5h-1.2v2.6c0,0.7,0.1,1,0.6,1c0.3,0,0.5-0.1,0.6-0.2l0.2,0.5C52.7,20.9,52.3,21,52,21
	c-0.9,0-1.4-0.5-1.4-1.5v-2.8H50v-0.5h0.7v-1.1l0.8-0.3V16.2z"/>
<path class="st0" d="M54.5,16.8c0.4-0.4,0.9-0.7,1.5-0.7c0.7,0,1.2,0.3,1.5,0.7c0.4-0.4,1.1-0.7,1.6-0.7c1,0,1.6,0.7,1.6,1.7v3.1
	h-0.8v-2.8c0-0.7-0.2-1.3-1-1.3c-0.7,0-1.2,0.4-1.2,1.3v2.8h-0.8v-2.8c0-0.9-0.4-1.3-1.1-1.3c-0.7,0-1.2,0.4-1.2,1.3v2.8h-0.8v-4.7
	h0.8L54.5,16.8L54.5,16.8z"/>
<path class="st0" d="M62.5,18.6c0,0.9,0.7,1.8,1.6,1.8c0.4,0,0.9-0.2,1.3-0.4l0.2,0.5c-0.5,0.4-1.1,0.5-1.6,0.5
	c-1.5,0-2.4-0.9-2.4-2.5c0-1.6,1.2-2.4,2.2-2.4c1.4,0,1.9,1.3,1.8,2.5L62.5,18.6L62.5,18.6z M64.9,18.1c0-0.7-0.3-1.3-1-1.3
	c-0.9,0-1.2,0.8-1.3,1.3H64.9z"/>
<path class="st0" d="M67.5,16.8c0.4-0.5,1.1-0.7,1.6-0.7c1.1,0,1.6,0.6,1.6,1.8v3h-0.8v-2.8c0-0.9-0.4-1.3-1.1-1.3
	c-0.7,0-1.3,0.4-1.3,1.3v2.8h-0.8v-4.7h0.8L67.5,16.8L67.5,16.8z"/>
<path class="st0" d="M73.2,16.2h1.2v0.5h-1.2v2.6c0,0.7,0.1,1,0.6,1c0.3,0,0.5-0.1,0.6-0.2l0.2,0.5C74.4,20.9,74,21,73.7,21
	c-0.9,0-1.4-0.5-1.4-1.5v-2.8h-0.7v-0.5h0.7v-1.1l0.8-0.3V16.2z"/>
<path class="st0" d="M78.1,16.2h1.2v0.5h-1.2v2.6c0,0.7,0.1,1,0.6,1c0.3,0,0.5-0.1,0.6-0.2l0.2,0.5C79.3,20.9,79,21,78.7,21
	c-0.9,0-1.4-0.5-1.4-1.5v-2.8h-0.7v-0.5h0.7v-1.1l0.8-0.3V16.2z"/>
<path class="st0" d="M81.1,16.8l0.3-0.4c0.2-0.2,0.5-0.3,0.7-0.3c0.2,0,0.5,0.1,0.8,0.4l-0.4,0.5c-0.2-0.1-0.4-0.2-0.6-0.2
	c-0.4,0-0.8,0.4-0.8,1.5v2.5h-0.8v-4.7h0.8V16.8L81.1,16.8z"/>
<path class="st0" d="M86.7,20.4c-0.5,0.4-0.9,0.7-1.5,0.7c-1.1,0-1.6-0.6-1.6-1.8v-3h0.8v2.8c0,0.9,0.4,1.3,1.1,1.3
	c0.6,0,1.2-0.5,1.2-1.4v-2.7h0.8v4.7h-0.8L86.7,20.4L86.7,20.4z"/>
<path class="st0" d="M91.1,17c-0.3-0.2-0.6-0.3-0.9-0.3c-0.3,0-0.7,0.1-0.7,0.5c0,0.4,0.4,0.6,1,1c0.6,0.4,1,0.8,1,1.5
	c0,0.8-0.8,1.3-1.6,1.3c-0.5,0-1.1-0.2-1.4-0.6l0.4-0.5c0.3,0.3,0.6,0.5,1,0.5c0.4,0,0.8-0.2,0.8-0.7c0-0.5-0.5-0.8-0.9-1.1
	c-0.5-0.4-1-0.7-1-1.3c0-0.7,0.7-1.2,1.6-1.2c0.5,0,0.9,0.2,1.2,0.4L91.1,17z"/>
<path class="st0" d="M93.5,16.2h1.2v0.5h-1.2v2.6c0,0.7,0.1,1,0.6,1c0.3,0,0.5-0.1,0.6-0.2l0.2,0.5c-0.3,0.2-0.6,0.3-0.9,0.3
	c-0.9,0-1.4-0.5-1.4-1.5v-2.8H92v-0.5h0.7v-1.1l0.8-0.3V16.2z"/>
</svg>
