<?xml version="1.0" encoding="utf-8"?>
<!-- Generator: Adobe Illustrator 26.0.1, SVG Export Plug-In . SVG Version: 6.00 Build 0)  -->
<svg version="1.1" id="Layer_1" xmlns="http://www.w3.org/2000/svg" xmlns:xlink="http://www.w3.org/1999/xlink" x="0px" y="0px"
	 viewBox="0 0 95 35" style="enable-background:new 0 0 95 35;" xml:space="preserve">
<style type="text/css">
	.st0{fill-rule:evenodd;clip-rule:evenodd;fill:#FFFFFF;}
</style>
<g id="layer1" transform="translate(102.05342,-266.47776)">
	<path id="path1264" class="st0" d="M-98.7,288.7l-3.2-8.8c0-0.1-0.1-0.2-0.1-0.4c0-0.5,0.5-0.9,1-0.9c0.5,0,0.8,0.3,1,0.7l2.5,7.3
		l2.5-7.3c0.2-0.4,0.5-0.7,1-0.7h0.1c0.5,0,0.8,0.3,1,0.7l2.5,7.3l2.5-7.3c0.1-0.4,0.5-0.7,0.9-0.7c0.5,0,1,0.4,1,0.9
		c0,0.1,0,0.3-0.1,0.4l-3.2,8.8c-0.2,0.5-0.5,0.8-1,0.8h-0.2c-0.5,0-0.8-0.3-1-0.8l-2.4-7l-2.4,7c-0.2,0.5-0.5,0.8-1,0.8h-0.2
		C-98.2,289.4-98.5,289.2-98.7,288.7L-98.7,288.7z M-84.5,288.4v-9c0-0.5,0.4-0.9,1-0.9c0.5,0,1,0.4,1,0.9v3.6h5.2v-3.6
		c0-0.5,0.4-0.9,1-0.9c0.5,0,1,0.4,1,0.9v9c0,0.5-0.4,0.9-1,0.9c-0.5,0-1-0.4-1-0.9v-3.6h-5.2v3.6c0,0.5-0.4,0.9-1,0.9
		C-84.1,289.4-84.5,289-84.5,288.4L-84.5,288.4z M-73,288.4v-9c0-0.5,0.4-0.9,1-0.9c0.5,0,1,0.4,1,0.9v9c0,0.5-0.4,0.9-1,0.9
		C-72.6,289.4-73,289-73,288.4L-73,288.4z M-65.9,288.4v-8.1h-2.7c-0.5,0-0.9-0.4-0.9-0.9c0-0.5,0.4-0.9,0.9-0.9h7.3
		c0.5,0,0.9,0.4,0.9,0.9c0,0.5-0.4,0.9-0.9,0.9H-64v8.1c0,0.5-0.4,0.9-1,0.9C-65.5,289.4-65.9,289-65.9,288.4L-65.9,288.4z
		 M-58.9,288.3v-8.8c0-0.5,0.4-0.9,1-0.9h3.9c1.3,0,2.2,0.3,2.9,0.9c0.5,0.5,0.7,1.1,0.7,1.8v0c0,1.3-0.8,2-1.6,2.4
		c1.3,0.4,2.2,1.1,2.2,2.6v0c0,1.9-1.6,2.9-4.1,2.9h-4.1C-58.5,289.3-58.9,288.9-58.9,288.3L-58.9,288.3z M-57,283.1h2.6
		c1.2,0,2.1-0.5,2.1-1.4v0c0-0.8-0.7-1.4-1.9-1.4H-57L-57,283.1L-57,283.1z M-57,287.6h3.2c1.3,0,2.1-0.5,2.1-1.5v0
		c0-0.9-0.7-1.4-2.3-1.4H-57V287.6z M-48.1,288.4v-8.9c0-0.5,0.4-0.9,1-0.9h3.9c1.4,0,2.5,0.4,3.2,1.1c0.6,0.6,0.9,1.4,0.9,2.3v0
		c0,1.7-1,2.7-2.5,3.2l2.1,2.6c0.2,0.2,0.3,0.4,0.3,0.7c0,0.5-0.5,0.9-0.9,0.9c-0.4,0-0.7-0.2-0.9-0.5l-2.7-3.3h-2.4v2.9
		c0,0.5-0.4,0.9-1,0.9C-47.7,289.4-48.1,289-48.1,288.4L-48.1,288.4z M-46.1,283.9h2.8c1.4,0,2.3-0.7,2.3-1.8v0
		c0-1.1-0.8-1.8-2.3-1.8h-2.8V283.9z M-36.4,289.3c-0.5,0-1-0.4-1-0.9v-8.8c0-0.5,0.4-0.9,1-0.9h6.4c0.5,0,0.9,0.4,0.9,0.8
		c0,0.5-0.4,0.8-0.9,0.8h-5.4v2.8h4.7c0.5,0,0.9,0.4,0.9,0.9c0,0.5-0.4,0.8-0.9,0.8h-4.7v2.9h4.7c0.5,0,0.9,0.4,0.9,0.8
		c0,0.5-0.4,0.8-0.9,0.8L-36.4,289.3z M-17,288.3v-8.8c0-0.5,0.4-0.9,1-0.9h3.1c3.4,0,5.8,2.3,5.8,5.3v0c0,3-2.4,5.3-5.8,5.3H-16
		C-16.6,289.3-17,288.9-17,288.3L-17,288.3z M-15,287.6h2.2c2.3,0,3.8-1.5,3.8-3.6v0c0-2.1-1.5-3.6-3.8-3.6H-15V287.6z M-20.5,288.5
		v-1.7h-5.4l-1.1,2.2c-0.2,0.5-0.8,0.7-1.3,0.4c-0.5-0.2-0.7-0.8-0.5-1.2l3.6-7.2c0.1-0.3,1-2.2,3.8-2.2l1.7,0c0.5,0,0.9,0.3,1,0.8
		l0,0.2v8.9c0,0.5-0.4,0.9-1,0.9C-20.1,289.4-20.5,289-20.5,288.5L-20.5,288.5z M-20.5,280.3l-0.6,0l-0.2,0c-0.9,0-1.6,0.4-1.9,1
		l-1.9,3.8h4.6V280.3L-20.5,280.3z"/>
</g>
</svg>
