<?xml version="1.0" encoding="utf-8"?>
<!-- Generator: Adobe Illustrator 26.0.1, SVG Export Plug-In . SVG Version: 6.00 Build 0)  -->
<svg version="1.1" id="Layer_1" xmlns="http://www.w3.org/2000/svg" xmlns:xlink="http://www.w3.org/1999/xlink" x="0px" y="0px"
	 viewBox="0 0 95 35" style="enable-background:new 0 0 95 35;" xml:space="preserve">
<style type="text/css">
	.st0{fill:#343741;}
	.st1{fill-rule:evenodd;clip-rule:evenodd;fill:#343741;}
</style>
<g>
	<path id="path470" class="st0" d="M6.2,20.1c1.7,3,5.9,4.3,9.1,2.4c3.3-1.9,4.2-6.1,2.5-9.1S12,9,8.6,10.9
		C5.3,12.8,4.4,17,6.2,20.1L6.2,20.1z"/>
	<path id="path472" class="st0" d="M5.3,20.5c-2-3.4-0.9-8.2,2.8-10.4l0.8-3L6,6.3l0,0l0,0C0.3,9.6-1.7,17,1.6,22.7
		s10.6,7.7,16.4,4.4l-2.2-3.8C12,25.4,7.3,24,5.3,20.5z"/>
	<path id="path474" class="st0" d="M28.6,10.4c-1.2,0-1.9,0.8-1.9,2.1v2.1h2.7v2.9h-2.7v9.9H23v-9.9h-1.7v-2.9H23v-1.8
		c0-2.7,0.6-5.7,4.8-5.7c1,0,1.5,0.1,2.5,0.3v3.2C29.8,10.5,29.4,10.4,28.6,10.4 M95,27.5V20c0-2.1-0.2-3.2-0.6-4
		c-0.6-1.1-2-1.8-3.6-1.8c-1.9,0-3.3,0.9-4.2,3c-0.5-2-1.6-3-3.5-3c-2,0-3.1,0.9-4.1,2.9v-2.7h-3.6v13h3.7v-6c0-0.8,0-1.5,0.2-1.9
		c0.3-1.2,1.2-1.9,2.1-1.9c0.8,0,1.3,0.4,1.6,1.1c0.2,0.5,0.3,1.1,0.3,2.3v6.5h3.7v-6.3c0-2.4,0.8-3.6,2.3-3.6
		c0.9,0,1.5,0.4,1.7,1.3c0.1,0.4,0.1,1.1,0.1,1.9v6.7L95,27.5L95,27.5z M74.1,21.1v-6.7h-3.7v6.7c0,2.6-0.5,3.5-2.1,3.5
		c-1.7,0-2.3-0.9-2.3-3.3v-6.9h-3.7v6.8c0,2.8,0.5,4.1,1.8,5.2c1,0.8,2.5,1.3,4.2,1.3c2,0,3.6-0.6,4.7-1.8
		C73.7,24.9,74.1,23.6,74.1,21.1 M61,27.5v-2.9c-0.6,0.1-1,0.2-1.5,0.2c-1.7,0-2.2-0.6-2.2-2.5v-4.7h3.5v-3h-3.5v-4.2l-3.7,2.1v10.5
		c0,3.3,1.5,4.8,5,4.8C59.4,27.7,60.1,27.6,61,27.5 M52.4,18c-0.6-0.3-1.1-0.4-1.7-0.4c-2.1,0-3.2,1.5-3.2,4v5.8h-3.7v-13h3.6v3
		c0.5-2,1.9-3.1,3.9-3.1c0.3,0,0.7,0,1.2,0.1L52.4,18L52.4,18z"/>
	<path id="path476" class="st1" d="M42.4,20.9c0-4-2.3-6.8-6.4-6.8c-3.9,0-6.4,2.9-6.4,6.8c0,4.2,2.5,6.9,6.5,6.9
		C39.8,27.8,42.4,25,42.4,20.9z M38.7,20.9c0,2.3-1,3.7-2.6,3.7c-1.7,0-2.8-1.5-2.8-3.8c0-2.2,1-3.7,2.7-3.7S38.7,18.6,38.7,20.9
		L38.7,20.9z"/>
</g>
</svg>
