<?xml version="1.0" encoding="utf-8"?>
<!-- Generator: Adobe Illustrator 26.0.1, SVG Export Plug-In . SVG Version: 6.00 Build 0)  -->
<svg version="1.1" id="Layer_1" xmlns="http://www.w3.org/2000/svg" xmlns:xlink="http://www.w3.org/1999/xlink" x="0px" y="0px"
	 viewBox="0 0 95 35" style="enable-background:new 0 0 95 35;" xml:space="preserve">
<style type="text/css">
	.st0{fill:#343741;}
	.st1{fill-rule:evenodd;clip-rule:evenodd;fill:#343741;}
</style>
<g>
	<polygon class="st0" points="5.2,16.4 5.2,16.4 5.2,8.1 0,8.1 0,26.9 5.2,26.9 5.2,16.9 5.2,16.9 11.4,26.9 17.9,26.9 10.9,16.4 
		17.4,8.1 11.2,8.1 	"/>
	<polygon class="st0" points="34.2,26.9 34.2,23.2 25.1,23.2 25.1,19.3 33.5,19.3 33.5,15.6 25.1,15.6 25.1,11.8 34.2,11.8 
		34.2,8.1 19.9,8.1 19.9,26.9 	"/>
	<path class="st0" d="M52.5,13.6c0.3-4.5-3.7-5.9-7.5-5.9c-3.9,0-7.8,1.2-8,5.7c0,2,0.9,3.7,2.8,4.6c4.1,1.8,7.9,1.2,7.9,3.8
		c0,1.2-1.5,1.9-2.7,1.9c-1.9,0-3.2-1-3.1-2.7h-5.2c0.1,5.1,3.9,6.4,8.3,6.4c4.3,0,8.2-1.9,8.2-5.8c0-5.1-4.6-5.4-7.7-6.2
		c-1.4-0.4-3-0.8-3-2.2c0-0.9,1-1.7,2.2-1.7c0.9,0,1.6,0.2,2,0.6c0.5,0.4,0.7,0.9,0.7,1.7L52.5,13.6L52.5,13.6z"/>
	<polygon class="st0" points="61.5,16.4 61.5,16.4 61.5,8.1 56.3,8.1 56.3,26.9 61.5,26.9 61.5,16.9 61.5,16.9 67.7,26.9 74.2,26.9 
		67.2,16.4 73.6,8.1 67.5,8.1 	"/>
	<path class="st1" d="M89.5,17.6c0,2.8-0.7,6.1-4.3,6.1c-3.5,0-4.3-3.3-4.3-6.1c0-2.9,0.7-6.2,4.3-6.2
		C88.8,11.4,89.5,14.6,89.5,17.6L89.5,17.6z M85.3,27.3c6.2,0,9.7-3.6,9.7-9.8c0-6.2-3.5-9.8-9.7-9.8c-6.2,0-9.7,3.6-9.7,9.8
		C75.6,23.7,79.1,27.3,85.3,27.3L85.3,27.3z"/>
</g>
</svg>
