<?xml version="1.0" encoding="utf-8"?>
<!-- Generator: Adobe Illustrator 26.0.1, SVG Export Plug-In . SVG Version: 6.00 Build 0)  -->
<svg version="1.1" id="Layer_1" xmlns="http://www.w3.org/2000/svg" xmlns:xlink="http://www.w3.org/1999/xlink" x="0px" y="0px"
	 viewBox="0 0 95 35" style="enable-background:new 0 0 95 35;" xml:space="preserve">
<style type="text/css">
	.st0{fill:#343741;}
</style>
<path class="st0" d="M12.9,0v35H29V0H12.9z M23.3,24.1l-4.6-6.2v6.2h-3.5V11.1h3.5v5.7l4.4-5.7h4.2l-4.9,6.1l5.2,6.9H23.3z"/>
<path class="st0" d="M48.3,0v35h16.1V0H48.3z M62.3,24.1h-1.8l-6.8-6.6v6.6h-3.3V11.1h2l6.5,6.4v-6.4h3.3V24.1z"/>
<g>
	<path class="st0" d="M30.6,0v35h16.1V0H30.6z M38.7,24.3c-3.8,0-6.9-2.8-6.9-6.8s3.1-6.8,6.9-6.8s6.9,2.8,6.9,6.8
		S42.5,24.3,38.7,24.3z"/>
	<path class="st0" d="M38.7,13.8c-1.9,0-3.4,1.5-3.4,3.7c0,2.2,1.5,3.7,3.4,3.7c1.9,0,3.4-1.5,3.4-3.7C42,15.3,40.5,13.8,38.7,13.8z
		"/>
</g>
<path class="st0" d="M66,0v35h16.1V0H66z M79.1,13.9h-6.6v2.2h5.8l0,2.8h-5.8v2.2h6.6v3H69V11.1h10.1V13.9z"/>
</svg>
