<?xml version="1.0" encoding="utf-8"?>
<!-- Generator: Adobe Illustrator 26.0.1, SVG Export Plug-In . SVG Version: 6.00 Build 0)  -->
<svg version="1.1" id="Layer_1" xmlns="http://www.w3.org/2000/svg" xmlns:xlink="http://www.w3.org/1999/xlink" x="0px" y="0px"
	 viewBox="0 0 95 35" style="enable-background:new 0 0 95 35;" xml:space="preserve">
<style type="text/css">
	.st0{fill:#CCCCCC;}
</style>
<g>
	<polyline id="polyline3" class="st0" points="4.8,16 0.2,16 0.2,1 8.1,1 17.2,12.2 17.2,1 21.7,1 21.7,16 14,16 4.8,4.6 4.8,16 	
		"/>
	<path id="path5" class="st0" d="M37.3,12.4c1,0,1.4-0.1,1.7-0.3c0.2-0.2,0.3-0.5,0.3-1.4V6.2c0-0.9-0.1-1.1-0.3-1.3
		c-0.2-0.2-0.6-0.3-1.7-0.3h-7.4c-1,0-1.4,0.1-1.7,0.3C28,5,27.8,5.3,27.8,6.2v4.6c0,0.9,0.1,1.1,0.3,1.4c0.2,0.2,0.6,0.3,1.7,0.3
		L37.3,12.4 M43.6,11.4c0,2.1-0.4,2.8-1,3.5c-1,1-2.4,1.3-5.1,1.3h-7.8c-2.7,0-4.1-0.3-5.1-1.3c-0.6-0.7-1-1.4-1-3.5V5.6
		c0-2.1,0.4-2.8,1-3.5c1-1,2.4-1.3,5.1-1.3h7.8c2.7,0,4.1,0.3,5.1,1.3c0.6,0.7,1,1.4,1,3.5V11.4z"/>
	<path id="path7" class="st0" d="M58.2,1h6.3L56,8l9.6,8h-6.7l-8.7-7.8L58.2,1 M45.4,1h4.8v15h-4.8V1z"/>
	<rect id="rect9" x="66.5" y="1" class="st0" width="4.8" height="15"/>
	<path id="path11" class="st0" d="M80.5,10.1h5.9l-3-5.4L80.5,10.1 M89.5,16l-1.4-2.6h-9.2L77.4,16h-5.3l8.5-15h5.9L95,16H89.5z"/>
	<path id="path13" class="st0" d="M4.9,31.7c-0.3,0.1-1.1,0.2-1.7,0.2c-2.7,0-3.2-3.1-3.2-5.4c0-1.6,0.3-3.4,1.2-4.6
		c0.5-0.6,1.1-1,2.3-1c0.5,0,1,0.1,1.4,0.2v1c-0.4-0.1-0.8-0.2-1.3-0.2c-0.8,0-1.2,0.3-1.5,0.7c-0.6,1-0.7,2.6-0.7,3.8
		c0,0.9,0,2.1,0.3,3C2,30.4,2.5,31,3.5,31c0.5,0,0.9-0.1,1.4-0.2V31.7"/>
	<path id="path15" class="st0" d="M7.9,24.2c-1.4,0-1.5,1.9-1.5,3.2C6.4,29,6.5,31,7.9,31c1.4,0,1.5-2.1,1.5-3.5
		C9.4,26.2,9.2,24.2,7.9,24.2 M7.9,31.9c-2.4,0-2.8-2.4-2.8-4.5c0-1.9,0.6-4.1,2.8-4.1c2.2,0,2.7,2.2,2.7,4.1
		C10.7,29.5,10.3,31.9,7.9,31.9z"/>
	<path id="path17" class="st0" d="M13,24.7c0.4-0.9,1.1-1.4,2-1.4c1.6,0,2.1,1.1,2.1,2.6v5.8h-1.2v-5.4c0-0.7,0-1.2-0.2-1.6
		c-0.1-0.4-0.4-0.7-1-0.7c-1.2,0-1.5,1.4-1.5,2.3v5.3h-1.2v-8.4h0.7L13,24.7"/>
	<path id="path19" class="st0" d="M19.7,24.7c0.4-0.9,1.1-1.4,2-1.4c1.6,0,2.1,1.1,2.1,2.6v5.8h-1.2v-5.4c0-0.7,0-1.2-0.2-1.6
		c-0.1-0.4-0.4-0.7-1-0.7c-1.2,0-1.5,1.4-1.5,2.3v5.3h-1.2v-8.4h0.7L19.7,24.7"/>
	<path id="path21" class="st0" d="M29.2,27.1c0-1.2-0.2-2.8-1.3-2.8c-1.2,0-1.5,1.6-1.5,2.8H29.2 M30.1,31.6c-0.6,0.2-1.3,0.3-2,0.3
		c-2.5,0-3-2.2-3-4.3c0-1.8,0.5-4.3,2.8-4.3c2.5,0,2.5,2.8,2.5,4.6h-4c0,1.3,0.2,3.1,1.8,3.1c0.6,0,1.2-0.1,1.9-0.3V31.6z"/>
	<path id="path23" class="st0" d="M35.8,31.7c-0.4,0.1-0.9,0.2-1.5,0.2c-2.2,0-2.8-2.1-2.8-4.3c0-2.5,0.9-4.3,2.9-4.3
		c0.5,0,0.9,0,1.2,0.1v0.9c-0.4-0.1-0.7-0.1-1.1-0.1c-1.5,0-1.8,1.5-1.8,3.4c0,1.6,0.2,3.3,1.8,3.3c0.5,0,1-0.1,1.3-0.2V31.7"/>
	<path id="path25" class="st0" d="M40.5,31.8c-0.5,0.1-1,0.2-1.4,0.2c-0.8,0-1.2-0.3-1.5-0.7c-0.2-0.4-0.3-0.8-0.3-1.8v-5.1h-1.1
		v-0.9h1l0.5-1.9h0.7v1.9h1.6v0.9h-1.6v5.1c0,0.8,0.1,1.1,0.2,1.3c0.1,0.2,0.3,0.3,0.8,0.3c0.2,0,0.6,0,1-0.1V31.8"/>
	<path id="path27" class="st0" d="M42.3,22.2c-0.5,0-0.8-0.4-0.8-0.8c0-0.5,0.4-0.8,0.8-0.8c0.4,0,0.8,0.4,0.8,0.8
		C43.1,21.9,42.7,22.2,42.3,22.2 M42.9,31.8h-1.2v-7.4h-0.9v-0.9h2.1V31.8L42.9,31.8z"/>
	<path id="path29" class="st0" d="M45.5,24.7c0.4-0.9,1.1-1.4,2-1.4c1.6,0,2.1,1.1,2.1,2.6v5.8h-1.2v-5.4c0-0.7,0-1.2-0.2-1.6
		c-0.1-0.4-0.4-0.7-1-0.7c-1.2,0-1.5,1.4-1.5,2.3v5.3h-1.2v-8.4h0.7L45.5,24.7"/>
	<path id="path31" class="st0" d="M53.7,24.2c-1.3,0-1.6,1.9-1.6,3.4c0,1.2,0.1,3.2,1.5,3.2c1.4,0,1.5-1.9,1.5-3.4
		C55.2,26.3,55.1,24.2,53.7,24.2 M55.7,23.5h0.7v7.9c0,0.8-0.1,1.4-0.5,2c-0.4,0.6-1.1,0.9-2.1,0.9c-0.7,0-1.6-0.1-2.3-0.4V33
		c0.8,0.2,1.6,0.4,2.2,0.4c1.5,0,1.6-0.8,1.6-2v-0.5c-0.4,0.6-1,1-1.8,1c-2.2,0-2.5-2.5-2.5-4.3c0-1.8,0.5-4.2,2.6-4.2
		c0.9,0,1.5,0.6,1.8,1.2L55.7,23.5z"/>
	<path id="path33" class="st0" d="M62.6,27c0.7,0,1.2-0.1,1.6-0.4c0.4-0.4,0.6-1.2,0.6-2.2c0-1-0.2-1.8-0.8-2.1
		c-0.2-0.1-0.5-0.2-1.3-0.2h-0.7V27H62.6 M62.3,21.1c1.2,0,1.7,0.1,2.1,0.2c1.1,0.4,1.6,1.4,1.6,3c0,1.2-0.3,2.1-0.9,2.7
		c-0.5,0.5-1.2,0.8-2.2,0.8h-1v3.9h-1.2V21.1L62.3,21.1L62.3,21.1z"/>
	<path id="path35" class="st0" d="M70.8,27.1c0-1.2-0.2-2.8-1.3-2.8c-1.2,0-1.5,1.6-1.5,2.8H70.8 M71.7,31.6c-0.6,0.2-1.3,0.3-2,0.3
		c-2.5,0-3-2.2-3-4.3c0-1.8,0.5-4.3,2.8-4.3c2.5,0,2.5,2.8,2.5,4.6h-4c0,1.3,0.2,3.1,1.8,3.1c0.6,0,1.2-0.1,1.9-0.3L71.7,31.6
		L71.7,31.6z"/>
	<path id="path37" class="st0" d="M75.8,24.2c-1.4,0-1.5,1.9-1.5,3.2c0,1.5,0.1,3.6,1.5,3.6c1.4,0,1.5-2.1,1.5-3.5
		C77.3,26.2,77.1,24.2,75.8,24.2 M75.8,31.9c-2.4,0-2.8-2.4-2.8-4.5c0-1.9,0.6-4.1,2.8-4.1c2.2,0,2.7,2.2,2.7,4.1
		C78.6,29.5,78.2,31.9,75.8,31.9z"/>
	<path id="path39" class="st0" d="M81.1,30.9c0.3,0.1,0.7,0.1,1,0.1c1.6,0,2-1.6,2-3.4c0-2.2-0.5-3.3-1.5-3.3
		c-0.7,0-1.5,0.6-1.5,2.6L81.1,30.9 M80.9,24.7c0.5-0.9,1.2-1.3,2-1.3c2.1,0,2.4,2.2,2.4,4.2c0,2.4-0.9,4.3-3.3,4.3
		c-0.3,0-0.7,0-0.9-0.1v2.4h-1.2V23.5h0.7L80.9,24.7z"/>
	<rect id="rect41" x="86.7" y="20.4" class="st0" width="1.2" height="11.4"/>
	<path id="path43" class="st0" d="M93.4,27.1c0-1.2-0.2-2.8-1.3-2.8c-1.2,0-1.5,1.6-1.5,2.8H93.4 M94.3,31.6c-0.6,0.2-1.3,0.3-2,0.3
		c-2.5,0-3-2.2-3-4.3c0-1.8,0.5-4.3,2.8-4.3c2.5,0,2.5,2.8,2.5,4.6h-4c0,1.3,0.2,3.1,1.9,3.1c0.6,0,1.2-0.1,1.9-0.3V31.6z"/>
</g>
</svg>
