<?xml version="1.0" encoding="utf-8"?>
<!-- Generator: Adobe Illustrator 26.0.1, SVG Export Plug-In . SVG Version: 6.00 Build 0)  -->
<svg version="1.1" id="Layer_1" xmlns="http://www.w3.org/2000/svg" xmlns:xlink="http://www.w3.org/1999/xlink" x="0px" y="0px"
	 viewBox="0 0 95 35" style="enable-background:new 0 0 95 35;" xml:space="preserve">
<style type="text/css">
	.st0{fill:#FFFFFF;}
</style>
<g id="layer1" transform="translate(-274.01562,-520.11218)">
	<path id="path2549" class="st0" d="M327.5,531.9l-5.7,0c-1.7,0-3.2,1-3.9,2.5h8.7L327.5,531.9z M337.5,533c-0.9,0-1.7,0.2-2.3,0.6
		c-0.7,0.4-1.2,0.9-1.6,1.5c-0.4,0.7-0.6,1.4-0.6,2.3c0,0.9,0.2,1.7,0.6,2.4c0.4,0.7,0.9,1.2,1.6,1.5c0.7,0.4,1.5,0.6,2.4,0.6
		c0.7,0,1-0.1,1.4-0.1c0.4-0.1,0.8-0.2,1-0.2V537h-2.8v1h1.6v2.6c-0.1,0-0.1,0.1-0.3,0.1c-0.2,0-0.5,0.1-0.9,0.1
		c-0.6,0-1.1-0.2-1.6-0.4s-0.9-0.7-1.1-1.2c-0.3-0.5-0.4-1.1-0.4-1.7c0-0.6,0.1-1.2,0.4-1.7c0.3-0.5,0.7-0.9,1.1-1.2
		c0.5-0.3,1.1-0.4,1.7-0.4c0.5,0,1,0.1,1.3,0.3c0.4,0.1,0.7,0.3,1,0.5l0.2-1.2c-0.2-0.1-0.5-0.2-0.7-0.2c-0.2-0.1-0.5-0.1-0.8-0.2
		C338.3,533.1,337.9,533,337.5,533z M306.4,533c-2.1,0-3.7,2-3.7,4.4c0,2.4,1.7,4.4,3.7,4.4c2.1,0,3.7-1.9,3.7-4.4
		C310.1,535,308.5,533,306.4,533z M351.3,533c-2.1,0-3.7,2-3.7,4.4c0,2.4,1.7,4.4,3.7,4.4c2.1,0,3.7-1.9,3.7-4.4
		C355.1,535,353.4,533,351.3,533z M276.7,533c-1.5,0-2.7,0.8-2.7,2.3c0,2.6,3.6,2.1,3.6,4c0,1-1,1.4-1.6,1.4c-0.6,0-1.1-0.1-1.5-0.3
		l-0.4,1c0.6,0.2,1.1,0.3,1.7,0.3c1.7,0,3.1-0.7,3.1-2.5c0-2.8-3.6-2.4-3.6-4c0-0.9,0.8-1.1,1.5-1.1c0.6,0,1,0.1,1.6,0.3l0.3-1
		C278.1,533.2,277.3,533,276.7,533z M281.8,533.2l-2.7,8.4h1.2l0.7-2h3.3l0.7,2h1.2l-2.7-8.4H281.8z M287,533.2v8.4h1.2v-7.2
		l2.2,7.2h1.3l2.2-7.2v7.2h1.2v-8.4H293l-1.9,6.5l-1.9-6.5H287z M296.8,533.2v8.4h1.2v-3.3h1.2c1.5,0,3-0.7,3-2.5
		c0-1.9-1.4-2.5-3.1-2.5H296.8z M341.5,533.2v8.4h1.2v-3.7l0.7,0c0.2,0,0.4,0,0.6,0c0.2,0,0.3,0.1,0.5,0.2c0.1,0.1,0.3,0.3,0.4,0.6
		l1,2.8h1.4l-1.3-3.3c-0.1-0.3-0.2-0.5-0.4-0.6s-0.3-0.2-0.5-0.3c0.5-0.1,0.9-0.2,1.2-0.7c0.3-0.4,0.4-0.7,0.4-1.2
		c0-2-1.4-2.3-3.1-2.3H341.5z M356,533.2v4.5c0,1.3,0.3,2.4,0.9,3c0.6,0.7,1.2,1,2.4,1c1.1,0,1.7-0.4,2.3-1c0.6-0.7,0.9-1.7,0.9-3
		v-4.5h-1.3v4.3c0,0.9-0.1,1.7-0.5,2.2c-0.3,0.6-0.7,0.8-1.5,0.9c-0.8,0-1.2-0.3-1.5-0.9c-0.3-0.6-0.5-1.3-0.5-2.2v-4.3H356z
		 M363.9,533.2v8.5h1.1v-3.4h1.1c0.5,0,0.9-0.1,1.4-0.2c0.4-0.2,0.8-0.4,1-0.8c0.3-0.4,0.4-0.9,0.4-1.5c0-0.6-0.1-1.1-0.4-1.5
		c-0.3-0.4-0.6-0.6-1.1-0.8c-0.4-0.2-0.9-0.2-1.5-0.2H363.9z M306.4,534.1c1.4,0,2.5,1.5,2.5,3.3c0,1.8-1.1,3.3-2.5,3.3
		s-2.4-1.5-2.4-3.3C304,535.6,305,534.1,306.4,534.1z M351.3,534.1c1.4,0,2.4,1.5,2.4,3.3c0,1.8-1.1,3.3-2.4,3.3
		c-1.4,0-2.5-1.5-2.5-3.3C348.9,535.6,350,534.1,351.3,534.1z M298,534.2h1c0.7,0,1.9,0.4,1.9,1.4c0,1.1-0.9,1.5-1.7,1.5H298V534.2z
		 M342.7,534.2h1c0.7,0,1.8,0.1,1.8,1.2c0,0.9-0.9,1.2-1.7,1.2h-1.2V534.2z M365.1,534.3h1c0.2,0,0.5,0.1,0.8,0.1
		c0.3,0.1,0.5,0.2,0.7,0.5c0.2,0.2,0.3,0.5,0.3,0.9c0,0.4-0.1,0.7-0.3,0.9c-0.2,0.2-0.4,0.4-0.6,0.5c-0.2,0.1-0.5,0.1-0.7,0.1h-1.1
		V534.3z M282.6,534.3l1.3,4.1h-2.7L282.6,534.3z M314.9,534.9l-0.8,2.5h10.7c-0.7-1.4-2.1-2.5-3.8-2.5H314.9z M318,537.9
		c0.7,1.4,2.1,2.5,3.8,2.5h6.1l0.8-2.5H318z M316.1,540.9l-0.8,2.5l5.7,0c1.7,0,3.2-1,3.9-2.5H316.1z"/>
</g>
</svg>
