<?xml version="1.0" encoding="utf-8"?>
<!-- Generator: Adobe Illustrator 26.0.1, SVG Export Plug-In . SVG Version: 6.00 Build 0)  -->
<svg version="1.1" id="Layer_1" xmlns="http://www.w3.org/2000/svg" xmlns:xlink="http://www.w3.org/1999/xlink" x="0px" y="0px"
	 viewBox="0 0 95 35" style="enable-background:new 0 0 95 35;" xml:space="preserve">
<style type="text/css">
	.st0{fill:#343741;}
</style>
<path class="st0" d="M87.2,17.8l-9,9l2,2c1.9,1.9,3.8,0,3.8,0l11-11H87.2z"/>
<path class="st0" d="M95,17.2l-11-11c0,0-1.9-1.9-3.8,0l-2,2l9,9H95z"/>
<path class="st0" d="M54.9,17.3h-4c0.2-1.5,0.7-1.9,2.1-1.9C54.3,15.3,54.8,15.7,54.9,17.3 M52.7,12.7c-3.3,0-5.4,1.4-5.4,6
	c0,4.7,2.4,6.2,5.7,6.2c1.3,0,3-0.2,4.2-0.6l-0.5-2.6c-0.9,0.2-2.4,0.4-3.2,0.4c-1.7,0-2.5-0.3-2.6-2.2h7.1
	C58.2,13.9,56.6,12.7,52.7,12.7"/>
<path class="st0" d="M8,19.7c-0.7-2.5-2.4-8-3.4-10.8C4.5,8.7,4.2,8.3,3.8,8.3H0v0.2c0,0,0.7,0.1,1.3,1.7c1.1,3.3,3.6,11.4,4.5,14.4
	H10c1.5-3.7,4.3-12.6,5.4-16.3h-3.8C10.8,10.9,8.9,17.1,8,19.7"/>
<path class="st0" d="M28.1,8.3h-3.5v13c0,4.1,4,3.5,4,3.5c-0.5-0.9-0.5-2.5-0.5-3.6V8.3z"/>
<path class="st0" d="M32.9,16c0.5-0.1,1-0.2,1.5-0.2c1.6,0,1.9,0.6,1.9,2.7v6.1h3.5v-6.4c0-0.9-0.1-1.6-0.2-2.2
	c0.6-0.1,1.3-0.2,1.7-0.2c1.6,0,1.9,0.6,1.9,2.7v6.1h3.5v-6.4c0-4.2-1.4-5.5-4.6-5.5c-1.3,0-2.8,0.3-4,0.7c-0.7-0.5-1.7-0.7-2.9-0.7
	c-2.1,0-4.2,0.5-5.7,1v10.8h3.5V16z"/>
<path class="st0" d="M67.2,16v-3h-3.6v-1.9c0-1.7,0.2-2.8,0.2-2.8s-3.7,0.5-3.7,3V13h-1.9v3h1.9v4.7c0,3.5,1.4,4.2,4,4.2
	c1.2,0,2.6-0.2,3.5-0.6L67,21.6c-0.5,0.2-1.1,0.3-1.9,0.3c-1.2,0-1.6-0.5-1.6-1.6V16H67.2z"/>
<path class="st0" d="M20.3,22c-0.5,0.2-1.3,0.3-1.9,0.3c-1.4,0-1.6-0.2-1.6-1.4c0-1.2,0.5-1.3,1.7-1.3c0.7,0,1.4,0,1.9,0.2V22z
	 M23.6,24v-6.8c0-3.4-1.6-4.5-5.1-4.5c-1.7,0-2.2,0.1-3.5,0.4L14,16c1-0.3,2.3-0.5,3.7-0.5c2.3,0,2.6,0.5,2.6,2.1
	c-0.9-0.2-1.8-0.3-2.6-0.3c-2.8,0-4.5,0.5-4.5,3.8c0,3,1.1,3.8,4.9,3.8C19.8,24.9,22,24.5,23.6,24"/>
<g>
	<g>
		<defs>
			<path id="SVGID_1_" d="M69.3,17.8l8.8,8.8l3.9-3.9l-4.9-4.9H69.3z M78.1,8.4l-8.8,8.8h7.8l4.9-4.9L78.1,8.4z"/>
		</defs>
		<use xlink:href="#SVGID_1_"  style="overflow:visible;fill:#FFFFFF;"/>
		<clipPath id="SVGID_00000015317897607714388330000017544219196978469023_">
			<use xlink:href="#SVGID_1_"  style="overflow:visible;"/>
		</clipPath>
	</g>
</g>
</svg>
