<?xml version="1.0" encoding="utf-8"?>
<!-- Generator: Adobe Illustrator 26.0.1, SVG Export Plug-In . SVG Version: 6.00 Build 0)  -->
<svg version="1.1" id="Layer_1" xmlns="http://www.w3.org/2000/svg" xmlns:xlink="http://www.w3.org/1999/xlink" x="0px" y="0px"
	 viewBox="0 0 95 35" style="enable-background:new 0 0 95 35;" xml:space="preserve">
<style type="text/css">
	.st0{fill-rule:evenodd;clip-rule:evenodd;fill:#FFFFFF;}
</style>
<g id="g78">
	<g id="g84" transform="matrix(0.7845721,0,0,-0.7827378,113.36876,793.48938)">
		<g id="g86" transform="translate(-2.2624,-27.7484)">
			<path id="path88" class="st0" d="M-65.2,1033.3c2.8,0,4.8-1.4,5.8-3.6c0.1-0.1,0.1-0.3,0.2-0.5c0,0,0-0.1,0-0.1l0.1,0
				c0,0.1-0.1,0.2-0.1,0.3c-0.6,1.9-2.2,4.4-8.2,4.4c-7.1,0-15.3-5-18.1-10.7c-2.8-5.7,0.6-10.1,7.7-10.1c5.7,0,10.6,2.5,14.4,5.8
				c1.3,1.1,2.4,2.3,3.4,3.5c-7.1-8.3-17.1-6.4-15.2,2.6C-74.2,1029.6-69.7,1033.3-65.2,1033.3"/>
		</g>
	</g>
	<g id="g90" transform="matrix(0.7845721,0,0,-0.7827378,113.36876,793.48938)">
		<g id="g92" transform="translate(10.184,-39.8654)">
			<path id="path94" class="st0" d="M-70.4,1052.4c-1.6,1-3.7,1.4-5.7,1c-1.5-0.3-2.9-1-3.3-1.8c0,0,0,0,0-0.1l0.2-0.1
				c0,0,0,0.1,0,0.1c0.4,0.7,1.7,1.4,3.1,1.6c1.3,0.2,3.8,0.3,5.9-1.4c2.5-2.1,2.5-6.9,0.4-11c-2.4-4.7-8.2-9.2-13.2-9.2
				c-4.1,0-5.2,2.7-4.7,5.4c0,0,0,0,0,0c-1.9-9,8.1-10.9,15.2-2.7c1.3,1.6,2.3,3.2,3.1,4.7C-66.4,1044.9-66.8,1050.3-70.4,1052.4"/>
		</g>
	</g>
	<g id="g96" transform="matrix(0.7845721,0,0,-0.7827378,113.36876,793.48938)">
		<g id="g98" transform="translate(22.1122,13.9385)">
			<path id="path100" class="st0" d="M-75.4,967.3l0.5,1.2h-1.4l-0.4-0.9l0.2-0.3H-75.4z"/>
		</g>
	</g>
	<g id="g102" transform="matrix(0.7845721,0,0,-0.7827378,113.36876,793.48938)">
		<g id="g104" transform="translate(26.2507,13.9385)">
			<path id="path106" class="st0" d="M-77.1,967.3l0.5,1.2H-78l-0.4-0.9l0.2-0.3H-77.1z"/>
		</g>
	</g>
	<g id="g108" transform="matrix(0.7845721,0,0,-0.7827378,113.36876,793.48938)">
		<g id="g110" transform="translate(29.0806,34.5872)">
			<path id="path112" class="st0" d="M-78.3,934.7h2l-4.6,10.9h-2.9l-0.1-0.2l0.2-0.2c0.3-0.2,0.4-0.6,0.2-0.9l-3.7-9.6h0.1h0h2.5
				l0.1,0.2l-0.3,0.3c-0.3,0.3-0.5,0.8-0.3,1.2l0.4,1.1h4.2l0.1,0.1l-0.4,1.1h-3.4l2.1,5.5L-78.3,934.7z"/>
		</g>
	</g>
	<g id="g114" transform="matrix(0.7845721,0,0,-0.7827378,113.36876,793.48938)">
		<g id="g116" transform="translate(-2.6451,31.8676)">
			<path id="path118" class="st0" d="M-65,939v9.3h-2.5l-0.1-0.2l0.5-0.4c0.3-0.2,0.4-0.6,0.4-0.9v-9.3h2.5l0.1,0.2l-0.5,0.4
				C-64.9,938.3-65,938.6-65,939"/>
		</g>
	</g>
	<g id="g120" transform="matrix(0.7845721,0,0,-0.7827378,113.36876,793.48938)">
		<g id="g122" transform="translate(-12.8237,24.1274)">
			<path id="path124" class="st0" d="M-60.8,951.2c-0.3,0.2-0.7,0.3-1,0.4c-1.5,0.7-2.3,1.2-2.3,2c0,1,0.7,1.5,2.1,1.5
				c1,0,2.2-0.5,2.6-0.8l0.3,0.2v1.4l-0.1,0c0,0-1.2,0.4-2.7,0.4c-0.9,0-1.9-0.2-2.6-0.6c-1-0.5-1.4-1.3-1.4-2.3c0-1.6,1-2,2.1-2.6
				c0,0,1-0.5,1.4-0.7c1.1-0.5,2.3-1.1,2.3-2.1c0-1.1-1.3-1.9-2.5-1.9c-1.3,0-2.7,0.7-3.3,1.2l-0.3-0.2l0.4-1.6l0,0
				c0,0,1.3-0.5,3-0.5c3,0,4.6,1.9,4.6,3.3C-58.1,949.7-59.1,950.4-60.8,951.2"/>
		</g>
	</g>
	<g id="g126" transform="matrix(0.7845721,0,0,-0.7827378,113.36876,793.48938)">
		<g id="g128" transform="translate(4.5181,15.7804)">
			<path id="path130" class="st0" d="M-68,964.4h-2.5l-0.1-0.2l0.5-0.4c0.3-0.2,0.4-0.6,0.4-0.9v-9.3h5.9l0.5,1.4H-68V964.4z"/>
		</g>
	</g>
	<g id="g132" transform="matrix(0.7845721,0,0,-0.7827378,113.36876,793.48938)">
		<g id="g134" transform="translate(-39.653,31.3614)">
			<path id="path136" class="st0" d="M-49.5,939.8l-1.9,3.3l0,0.1c1.7,0.4,2.9,1.7,2.9,3c0,1.4-1.2,2.7-3.4,2.7h-4.7l-0.1-0.2
				l0.9-0.8v-5.1l1.4-3.1h0.2v8.1h1.9c1.3,0,2-0.9,2-1.6c0-1.9-1.6-2.4-3-2.5l0,0l-0.1-0.2l3-5.4h2.3l0.1,0.2l-0.5,0.3
				C-48.8,938.7-49.1,939.1-49.5,939.8"/>
		</g>
	</g>
	<g id="g138" transform="matrix(0.7845721,0,0,-0.7827378,113.36876,793.48938)">
		<g id="g140" transform="translate(-60.1152,13.9385)">
			<path id="path142" class="st0" d="M-40.9,967.3l0.5,1.2h-1.4l-0.4-0.9l0.2-0.3H-40.9z"/>
		</g>
	</g>
	<g id="g144" transform="matrix(0.7845721,0,0,-0.7827378,113.36876,793.48938)">
		<g id="g146" transform="translate(-55.9766,13.9385)">
			<path id="path148" class="st0" d="M-42.7,967.3l0.5,1.2h-1.4l-0.4-0.9l0.2-0.3H-42.7z"/>
		</g>
	</g>
	<g id="g150" transform="matrix(0.7845721,0,0,-0.7827378,113.36876,793.48938)">
		<g id="g152" transform="translate(-62.5947,15.7804)">
			<path id="path154" class="st0" d="M-39.9,964.4l-0.1-0.2l0.2-0.2c0.3-0.2,0.4-0.6,0.2-0.9l-3.7-9.6h2.6l0.1,0.2l-0.3,0.3
				c-0.3,0.3-0.5,0.8-0.3,1.2l0.4,1.1h4.2l0.1,0.1l-0.4,1.1h-3.4l2.1,5.5l3.7-9.5h2l-4.6,10.9H-39.9z"/>
		</g>
	</g>
	<g id="g156" transform="matrix(0.7845721,0,0,-0.7827378,113.36876,793.48938)">
		<g id="g158" transform="translate(-35.3631,15.7804)">
			<path id="path160" class="st0" d="M-51.3,964.4l-0.7-1.2l0.1-0.2h3.1v-9.6h2.5l0.1,0.2l-0.5,0.4c-0.3,0.2-0.4,0.6-0.4,0.9v8h2.6
				l0.8,1.3h-0.1H-51.3z"/>
		</g>
	</g>
	<g id="g162" transform="matrix(0.7845721,0,0,-0.7827378,113.36876,793.48938)">
		<g id="g164" transform="translate(-69.2289,15.7804)">
			<path id="path166" class="st0" d="M-37.1,964.4l-0.1-0.2l0.2-0.2c0.3-0.2,0.4-0.6,0.2-0.9l-2.6-7.2l-2.8,8.5h0H-44l-0.1-0.2
				l0.2-0.2c0.3-0.2,0.4-0.6,0.2-0.9l-2.7-7.1l-2.8,8.4h-2.2l-0.1-0.2l0.3-0.1c0.4-0.1,0.6-0.5,0.8-1l3.2-9.5h1.4l2.9,7.8l2.6-7.8
				h1.4l4.1,10.9H-37.1z"/>
		</g>
	</g>
</g>
</svg>
