<?xml version="1.0" encoding="utf-8"?>
<!-- Generator: Adobe Illustrator 26.0.1, SVG Export Plug-In . SVG Version: 6.00 Build 0)  -->
<svg version="1.1" id="Layer_1" xmlns="http://www.w3.org/2000/svg" xmlns:xlink="http://www.w3.org/1999/xlink" x="0px" y="0px"
	 viewBox="0 0 95 35" style="enable-background:new 0 0 95 35;" xml:space="preserve">
<style type="text/css">
	.st0{fill:#CCCCCC;}
</style>
<g>
	<path id="path913" class="st0" d="M55.5,16.3l-3.1-7.9l-4.1,8.8c-1.4,2.8-5.9,3.6-9.1,4l0.6-1.2l9.1-17.3H56l5.1,10.5l2.2,5l4.6,10
		l-3.2,0l-2.5,0c-1,0-2.1-0.1-2.5-1.2l-0.9-2.1l-1.5-3.6L55.5,16.3z"/>
	<rect id="rect917" x="22.2" y="30.9" class="st0" width="47.1" height="4.1"/>
	<path id="path919" class="st0" d="M72.7,0L72.7,0l-1.9,1l-6.7,3.5c0,0-2.3,1.2-3.8,1.6l0,0l0,0c0.4,1.3,0.8,2.1,1.2,2.7
		C61.7,9,61.9,9.2,62,9.3c0.3,0.2,0.5,0.2,0.8,0.3s0.6,0,0.9-0.2l9-4.8L72.7,0z"/>
	<path id="path921" class="st0" d="M61.2,13.2l-5.7,3.1c-7.1,3.9-16.4,7.6-24.4,7c-3.4-0.3-5.4-1.6-5.2-3.7c0.2-2.5,2.4-5.1,6.1-7.7
		c2.9-2,5.4-3.1,6.7-3.5c1.7-0.6,3.2-0.9,4.8-1c0.4,0,0.7,0,1,0.1c0,0,0-0.1,0-0.1l0,0c-0.7-4.6-1.9-5.2-3.8-5.2
		c-5.3,0.2-12,3.8-15.5,8.1c-1.9,2.3-2.9,5-2.9,7c-0.1,3,1.1,7.1,4.8,9.1c4.1,2.3,9.8,2.2,15.1,1c5.7-1.3,10.6-3.7,15.5-6.2l5.9-3.1
		l9.3-5.4l0-5.8L61.2,13.2z"/>
</g>
</svg>
