<?xml version="1.0" encoding="utf-8"?>
<!-- Generator: Adobe Illustrator 26.0.1, SVG Export Plug-In . SVG Version: 6.00 Build 0)  -->
<svg version="1.1" id="Layer_1" xmlns="http://www.w3.org/2000/svg" xmlns:xlink="http://www.w3.org/1999/xlink" x="0px" y="0px"
	 viewBox="0 0 95 35" style="enable-background:new 0 0 95 35;" xml:space="preserve">
<style type="text/css">
	.st0{fill:#CCCCCC;}
	.st1{fill-rule:evenodd;clip-rule:evenodd;fill:#CCCCCC;}
</style>
<path id="path4167" class="st0" d="M37.8,16.4c0,0,0,0.7,0,1c0.1-0.2,0.7-1.3,2-1.3h0.4V18h-0.4c-1.2,0-1.8,0.9-1.8,2v4h-2.1v-7.5
	L37.8,16.4"/>
<path id="path4169" class="st0" d="M59.9,17.3v-0.9h1.9v10.2h-2.1v-2.7h-2.2c-2.2,0-3.9-1.7-3.9-3.9c0-2.2,1.8-3.9,3.8-3.9
	C59,16.2,59.9,17.3,59.9,17.3L59.9,17.3z M59.7,20.1c0-1.1-0.9-2.1-2.1-2.1c-1.1,0-2.1,0.9-2.1,2c0,1.1,0.9,2.1,2.1,2.1l2.1,0V20.1"
	/>
<path id="path4171" class="st1" d="M33.8,13.6v1.8h-2.1v-1.8H33.8z M33.8,16.4v7.5h-2.1v-7.5H33.8"/>
<path id="path4173" class="st0" d="M27.3,23.9v-3.4h-3.8v3.4h-2.1l0-6c0-2.4,2-4.3,4.6-4.3h3.5v10.3C29.4,23.9,27.3,23.9,27.3,23.9z
	 M25.9,15.5c-1.3,0-2.4,1-2.4,2.3v1.1h3.8l0-3.4L25.9,15.5"/>
<path id="path4175" class="st1" d="M52.1,16.4v7.5H50v-7.5H52.1z M52.1,13.6v1.8H50v-1.8H52.1"/>
<path id="path4177" class="st1" d="M75.4,16.4v7.5h-2.1v-7.5H75.4z M75.4,13.6v1.8h-2.1v-1.8H75.4"/>
<path id="path4179" class="st1" d="M63.7,16.4h2.1v4.2c0,1.1,0.8,1.8,1.7,1.8c0.8,0,1.7-0.5,1.7-1.8v-4.2h2.1v7.5h-1.9V23l0,0
	c-0.6,0.7-1.5,1.1-2.5,1.1c-1.6,0-3.2-1.3-3.2-3.2L63.7,16.4"/>
<path id="path4181" class="st0" d="M45.8,13.6v8.5h2.7v1.8l-4.9,0V13.6H45.8"/>
<path id="path4183" class="st0" d="M83.2,23v0.9h1.9V13.6H83v2.8h-2.2c-2.2,0-3.9,1.7-3.9,3.9c0,2.2,1.8,3.9,3.8,3.9
	C82.4,24.2,83.2,23,83.2,23z M83,20.3c0,1.1-0.9,2.1-2.1,2.1c-1.1,0-2.1-0.9-2.1-2c0-1.1,0.9-2.1,2.1-2.1l2.1,0V20.3"/>
<path id="path4185" class="st0" d="M90.9,24.2c-2.3,0-4.2-1.8-4.2-4c0-2.2,1.9-4,4.2-4c2.3,0,4.1,1.8,4.1,4c0,0.2,0,0.4,0,0.7
	l-6.3,0c0.3,0.9,1.1,1.6,2.2,1.6c1,0,1.6-0.3,2.1-0.9l1.5,1C93.7,23.5,92.4,24.2,90.9,24.2L90.9,24.2z M88.7,19.5H93
	c-0.3-0.9-1-1.6-2.1-1.6C89.8,17.9,89,18.6,88.7,19.5"/>
<path id="path4187" class="st0" d="M9.1,13.6c2.1,0,3.8,1.7,3.8,3.8v3.8H9.1c-2.1,0-3.8-1.7-3.8-3.8C5.2,15.4,6.9,13.6,9.1,13.6z
	 M15.5,23.9H9.1c-3.6,0-6.4-2.9-6.4-6.4c0-3.6,2.9-6.4,6.4-6.4c3.6,0,6.4,2.9,6.4,6.4V23.9L15.5,23.9z M9.1,8.4H0v9.1
	c0,5,4.1,9.1,9.1,9.1c5,0,9.1-4.1,9.1-9.1C18.2,12.5,14.1,8.4,9.1,8.4"/>
</svg>
