<?xml version="1.0" encoding="utf-8"?>
<!-- Generator: Adobe Illustrator 26.0.1, SVG Export Plug-In . SVG Version: 6.00 Build 0)  -->
<svg version="1.1" id="Layer_1" xmlns="http://www.w3.org/2000/svg" xmlns:xlink="http://www.w3.org/1999/xlink" x="0px" y="0px"
	 viewBox="0 0 95 35" style="enable-background:new 0 0 95 35;" xml:space="preserve">
<style type="text/css">
	.st0{fill:#343741;}
</style>
<g id="g16" transform="translate(-221.696,-258.709)">
	<g id="g14">
		<path id="path2" class="st0" d="M265.5,273.4c0-3.2-2.1-5.7-6.4-5.7h-8.7v16.9h4.1v-13.2h4.6c1.7,0,2.3,1,2.3,2.1
			c0,1.2-0.6,2.1-2.4,2.1h-4l5.7,9h4.7c0,0-3.9-6.1-3.8-6.1C263.9,278,265.5,276.4,265.5,273.4"/>
		<rect id="rect4" x="243.4" y="267.8" class="st0" width="4.1" height="16.9"/>
		<polygon id="polygon6" class="st0" points="232.9,278.3 229.5,278.3 232,273.1 232.1,273.1 237.8,284.6 242.6,284.6 233.9,267.8 
			230.3,267.8 221.7,284.6 226.3,284.6 227.7,281.8 234.6,281.8 		"/>
		<path id="path8" class="st0" d="M280.5,275.9c1.3-0.7,2-1.9,2-3.6c0-2.7-2-4.5-5.4-4.5h-9.6v16.9h10c3.5,0,5.8-1.9,5.8-4.7
			C283.2,277.9,282.1,276.5,280.5,275.9 M271.5,271.3h5.5c0.8,0,1.5,0.6,1.5,1.5c0,0.8-0.6,1.5-1.5,1.5h-5.5L271.5,271.3
			L271.5,271.3z M277.1,281.1h-5.6v-3.4h5.6c1,0,1.8,0.7,1.8,1.7C278.9,280.4,278.1,281.1,277.1,281.1"/>
		<path id="path10" class="st0" d="M296.2,277.2c0,2.6-1.2,4-3.5,4c-2.3,0-3.5-1.4-3.5-4v-9.4H285v9.1c0,5.2,2.7,8.1,7.7,8.1
			c5,0,7.7-2.9,7.7-8.1v-9.1h-4.2V277.2z"/>
		<path id="path12" class="st0" d="M311.4,274.5c-3.9-0.9-4.8-1-4.8-2.2c0-0.9,1-1.3,2.6-1.3c2.2,0,4.5,0.5,5.8,1.4l1.3-3.4
			c-1.7-0.9-4.2-1.5-7.1-1.5c-4.3,0-6.8,2.2-6.8,5.1c0,3.1,1.8,4.4,6,5.3c3.3,0.7,4,1.2,4,2.1c0,1-0.9,1.4-2.7,1.4
			c-2.6,0-4.9-0.6-6.8-1.6l-1.3,3.6c2,1.1,5.1,1.8,8.1,1.8c4.3,0,6.8-2,6.8-5.3C316.7,277.1,315,275.3,311.4,274.5"/>
	</g>
</g>
</svg>
