<?xml version="1.0" encoding="utf-8"?>
<!-- Generator: Adobe Illustrator 26.0.1, SVG Export Plug-In . SVG Version: 6.00 Build 0)  -->
<svg version="1.1" id="Layer_1" xmlns="http://www.w3.org/2000/svg" xmlns:xlink="http://www.w3.org/1999/xlink" x="0px" y="0px"
	 viewBox="0 0 95 35" style="enable-background:new 0 0 95 35;" xml:space="preserve">
<style type="text/css">
	.st0{fill:#343741;}
</style>
<g>
	<path class="st0" d="M13.8,27.1h0.3v-1.7h-0.3V27.1z M16.9,27.1h0.5v-1.7H17v1.4l-1.1-1.4h-0.5v1.7h0.3v-1.4L16.9,27.1z M20.1,27.1
		h0.5v-1.7h-0.3v1.4l-1.1-1.4h-0.5v1.7H19v-1.4L20.1,27.1z M23.7,26.2c0,0.3-0.3,0.6-0.8,0.6c-0.5,0-0.8-0.3-0.8-0.6
		c0-0.3,0.3-0.6,0.8-0.6C23.4,25.6,23.7,25.9,23.7,26.2z M24.1,26.2c0-0.3-0.1-0.5-0.3-0.7c-0.2-0.1-0.5-0.2-0.7-0.2
		c-0.3,0-0.6,0.1-0.7,0.2c-0.2,0.2-0.3,0.4-0.3,0.7c0,0.3,0.1,0.5,0.3,0.7c0.2,0.1,0.5,0.2,0.8,0.2s0.6-0.1,0.7-0.2
		C23.9,26.7,24.1,26.5,24.1,26.2z M26.2,27.1l0.9-1.7h-0.4L26,26.8l-0.8-1.4h-0.4l0.9,1.7H26.2z M29.3,26.4h-0.8l0.4-0.7L29.3,26.4z
		 M29.6,27.1H30l-0.9-1.7h-0.4l-0.9,1.7h0.4l0.2-0.4h1.1L29.6,27.1z M31.7,25.7h0.8v-0.3h-1.9v0.3h0.8v1.4h0.3L31.7,25.7L31.7,25.7z
		 M33.6,27.1H34v-1.7h-0.3V27.1z M36.3,27.1l0.9-1.7h-0.4l-0.8,1.4l-0.8-1.4H35l0.9,1.7H36.3z M38.3,27.1h1.8v-0.3h-1.5v-0.4h1V26
		h-1v-0.4h1.4v-0.3h-1.7V27.1z M57.4,25.9l0.3-0.1c-0.3-0.3-0.6-0.5-1-0.5c-0.3,0-0.6,0.1-0.7,0.2c-0.2,0.2-0.3,0.4-0.3,0.7
		c0,0.5,0.4,0.9,1.1,0.9c0.4,0,0.7-0.1,1-0.4l-0.3-0.2c-0.2,0.2-0.4,0.3-0.7,0.3c-0.5,0-0.8-0.2-0.8-0.6c0-0.3,0.3-0.6,0.8-0.6
		C57,25.6,57.2,25.7,57.4,25.9z M60.5,27.1h0.3v-1.7h-0.3v0.7h-1.3v-0.7h-0.3v1.7h0.3v-0.7h1.3L60.5,27.1L60.5,27.1z M62.2,27.1H64
		v-0.3h-1.5v-0.4h1V26h-1v-0.4h1.4v-0.3h-1.7V27.1z M67.2,27.1h0.3v-1.7H67l-0.7,1l-0.7-1h-0.5v1.7h0.3v-1.4l0,0l0.8,1.2l0.8-1.1
		l0,0L67.2,27.1L67.2,27.1z M68.8,27.1h0.3v-1.7h-0.3V27.1z M70.7,25.8c0-0.1,0.2-0.2,0.6-0.2c0.3,0,0.5,0,0.7,0.2l0.2-0.2
		c-0.2-0.2-0.5-0.3-0.9-0.3c-0.6,0-0.9,0.2-0.9,0.5c0,0.3,0.2,0.4,0.6,0.4c0.3,0,0.6,0,0.8,0.1c0.1,0,0.2,0.1,0.2,0.2
		c0,0.2-0.2,0.3-0.6,0.3c-0.3,0-0.6-0.1-0.9-0.2l-0.2,0.2c0.3,0.2,0.6,0.3,1,0.3c0.6,0,1-0.2,1-0.6c0-0.3-0.3-0.5-0.8-0.5
		C71,26,70.7,26,70.7,25.8z M74.4,25.7h0.8v-0.3h-1.9v0.3h0.8v1.4h0.3L74.4,25.7L74.4,25.7z M77.6,26.2h-1v-0.5h1
		c0.2,0,0.3,0.1,0.3,0.2C77.9,26.1,77.8,26.2,77.6,26.2z M78.2,27.1l-0.5-0.6c0.3-0.1,0.4-0.2,0.4-0.5c0-0.3-0.2-0.5-0.6-0.5h-1.4
		v1.7h0.3v-0.6h0.8l0.4,0.6H78.2z M81.4,25.4H81l-0.7,0.8l-0.7-0.8h-0.4l1,1v0.7h0.3v-0.7L81.4,25.4z"/>
	<path class="st0" d="M8.8,18.1H6.1c0,0-0.6,0-0.3-0.5l1.4-2.5c0,0,0.3-0.5,0.5,0l1.4,2.5C9.1,17.6,9.4,18.1,8.8,18.1 M14.8,22.3
		l-5.4-9.7c0,0-0.3-0.5-0.8-0.5H6.3c0,0-0.6,0-0.8,0.5l-5.4,9.7c0,0-0.3,0.5,0.3,0.5h2c0,0,0.6,0,0.8-0.5L3.9,21
		c0,0,0.3-0.5,0.8-0.5h5.5c0,0,0.6,0,0.8,0.5l0.7,1.2c0,0,0.3,0.5,0.8,0.5h2C14.5,22.7,15.1,22.7,14.8,22.3z M26.9,15.6
		c0,0.4-0.1,0.7-0.4,0.9c-0.3,0.2-0.6,0.3-1.1,0.3h-5.1c0,0-0.6,0-0.6-0.6V15c0,0,0-0.6,0.6-0.6h5.1C26.4,14.5,26.9,14.9,26.9,15.6z
		 M30.1,22.3c0,0,0,0-2.1-2.9c0,0-0.3-0.4,0.2-0.6c1-0.4,1.7-1.5,1.7-3.1c0-1.1-0.4-1.9-1.2-2.6c-0.8-0.7-1.8-1-3.1-1h-8.4
		c0,0-0.6,0-0.6,0.6v9.6c0,0,0,0.6,0.6,0.6h1.9c0,0,0.6,0,0.6-0.6v-2.3c0,0,0-0.6,0.6-0.6h3.6c0,0,0.6,0,0.9,0.4l1.9,2.5
		c0,0,0.3,0.4,0.9,0.4h2.4C29.8,22.7,30.4,22.7,30.1,22.3z M45.6,12.1h-3.2c0,0-0.6,0-1,0.3l-5.9,4c0,0-0.5,0.3-0.5-0.2V8.4
		c0,0,0-0.6-0.6-0.6h-1.9c0,0-0.6,0-0.6,0.6v13.8c0,0,0,0.6,0.6,0.6h1.9c0,0,0.6,0,0.6-0.6v-2.1c0,0,0-0.6,0.5-0.9l1.6-1
		c0,0,0.5-0.3,0.9,0.1l8.6,8.3c0,0,0.4,0.4,1,0.4H50c0,0,0.6,0,0.2-0.4l-10.1-9.9c0,0-0.4-0.4,0.1-0.7l5.5-3.7
		C45.7,12.4,46.1,12.1,45.6,12.1z M60.5,22.2v-1.3c0,0,0-0.6-0.6-0.6h-7.8c-0.6,0-0.6-0.6-0.6-0.6V19c0-0.4,0.4-0.4,0.4-0.4h4.8
		c0.6,0,0.6-0.6,0.6-0.6v-1.3v0c0-0.1-0.1-0.5-0.6-0.5H52c0,0-0.4,0-0.4-0.4V15c0,0,0-0.6,0.6-0.6h7.4c0,0,0.6,0,0.6-0.6v-1.3
		c0,0,0-0.6-0.6-0.6H49.1c0,0-0.6,0-0.6,0.6v9.6c0,0,0,0,0,0.1c0,0.1,0.1,0.2,0.1,0.3l0,0l0,0c0.1,0,0.1,0.1,0.3,0.1
		c0.1,0,0.1,0,0.1,0H60C60,22.7,60.5,22.7,60.5,22.2z M78.3,22.2v-9.6c0,0,0-0.6-0.6-0.6h-2.4c0,0-0.6,0-0.9,0.4l-3.7,4.4
		c0,0-0.3,0.4-0.7,0l-3.7-4.4c0,0-0.3-0.4-0.9-0.4h-2.4c0,0-0.6,0-0.6,0.6v9.6c0,0,0,0.6,0.6,0.6h1.9c0,0,0.6,0,0.6-0.6v-6.5h0
		c0,0,0,0,0.4,0.4L70,21c0,0,0.4,0.4,0.7,0l4.5-5.3h0c0,0,0,0,0,0.6v5.9c0,0,0,0.6,0.6,0.6h1.9C77.7,22.7,78.3,22.7,78.3,22.2z
		 M88.9,18.1h-2.8c0,0-0.6,0-0.3-0.5l1.4-2.5c0,0,0.3-0.5,0.5,0l1.4,2.5C89.2,17.6,89.5,18.1,88.9,18.1z M94.9,22.3l-5.4-9.7
		c0,0-0.3-0.5-0.8-0.5h-2.4c0,0-0.6,0-0.8,0.5l-5.4,9.7c0,0-0.3,0.5,0.3,0.5h2c0,0,0.6,0,0.8-0.5L84,21c0,0,0.3-0.5,0.8-0.5h5.5
		c0,0,0.6,0,0.8,0.5l0.7,1.2c0,0,0.3,0.5,0.8,0.5h2C94.6,22.7,95.2,22.7,94.9,22.3z"/>
</g>
</svg>
