<?xml version="1.0" encoding="utf-8"?>
<!-- Generator: Adobe Illustrator 26.0.1, SVG Export Plug-In . SVG Version: 6.00 Build 0)  -->
<svg version="1.1" id="Layer_1" xmlns="http://www.w3.org/2000/svg" xmlns:xlink="http://www.w3.org/1999/xlink" x="0px" y="0px"
	 viewBox="0 0 95 35" style="enable-background:new 0 0 95 35;" xml:space="preserve">
<style type="text/css">
	.st0{fill:#343741;}
</style>
<g>
	<g>
		<g>
			<path class="st0" d="M95,25.1V10h-3.5l-4.2,5.6L83.1,10h-3.6v15.2h3.9l0.1-9.2l3.4,4.8h0.8l3.4-4.8v9.1H95z"/>
			<path class="st0" d="M75.7,13.7c0.3,0.2,0.5,0.5,0.7,0.9c0.3,0.9,0.5,2,0.5,3.4c0,1.3-0.2,2.4-0.5,3.3c-0.1,0.2-0.1,0.3-0.2,0.5
				c0,0.1,0.2,0.1,0.6,0.1c1.7-2.9,1.7-5.9,0-9.2L75.7,13.7z"/>
			<path class="st0" d="M72.5,10.1c0.4,0,0.5-0.3,0.3-0.7C70,7.9,67.1,7.7,64,8.9c-0.4,0.2-0.9,0.4-1.2,0.7c-0.4,0.2-0.8,0.6-1.2,1
				c-2.6,2.2-3.9,4.8-3.9,7.8c0,2.8,1.1,5.1,3.2,7.1l0.9-1c1.5,1.6,3.4,2.4,5.5,2.4c2.1,0,4-0.8,5.5-2.4c1.5-1.6,2.3-3.5,2.3-5.8
				c0-2.1-0.7-3.9-2.2-5.3l-0.1-0.1l0.2-0.5c-1.2-1.2-2.7-1.8-4.6-1.8c-1.8,0-3.4,0.7-4.7,2.2c-1.3,1.5-1.9,3.2-1.9,5.3
				c0,0,0.3,0.1,0.9,0c0.1-1.5,0.6-2.6,1.6-3.5c1-0.9,2.1-1.4,3.5-1.3c1.4,0,2.5,0.5,3.4,1.5c1,1,1.4,2.2,1.4,3.5
				c0,1.4-0.5,2.6-1.4,3.5c-0.9,1-2.1,1.5-3.4,1.5c-1.3,0-2.5-0.5-3.4-1.5c-0.1-0.1-0.2-0.2-0.2-0.3l-0.6,0.9
				c-0.1-0.1-0.2-0.1-0.3-0.2c-1.6-1.5-2.4-3.4-2.4-5.5c0-2.2,0.8-4,2.4-5.6c1.6-1.5,3.5-2.3,5.7-2.3C70.3,9.1,71.5,9.5,72.5,10.1z"
				/>
			<path class="st0" d="M56.8,13V9.9l-13.9,0v3h5v12.2H52V13H56.8z"/>
			<path class="st0" d="M41.1,13.2l0.2-3.1c-4.3-1.3-7.5-1-9.5,0.8c-1.2,1.2-1.5,2.9-1,5.1c0.7,1.4,2.6,2.5,5.7,3.1
				c2,0.6,2.5,1.5,1.4,2.7c-2.2,0.8-4.6,0.7-7-0.4l-0.2,3.2c2.2,0.9,4.5,1.1,6.9,0.6c2-0.3,3.5-1.3,4.3-3.1c0.3-1,0.3-2.1,0-3.3
				c-0.5-1.7-2.7-2.9-6.5-3.6c-1.9-1.1-1.9-2,0-2.9C36.6,12.1,38.4,12.4,41.1,13.2z"/>
			<path class="st0" d="M22.4,9.8h-3.8V25h10.6v-3.1h-6.8V9.8z"/>
			<path class="st0" d="M0,25h3.6c0.8-2.2,2.8-3.7,6.1-4.3L9,19.6c-1.3-0.2-2.4-0.1-3.5,0.3l2.3-6l4.7,11.4h3.8L9.9,9.8H5.7L0,25z"
				/>
			<path class="st0" d="M52,25.4h-4.1c-0.2,0-0.3-0.1-0.3-0.3s0.1-0.3,0.3-0.3H52c0.2,0,0.3,0.1,0.3,0.3S52.2,25.4,52,25.4z"/>
		</g>
	</g>
</g>
</svg>
