<?xml version="1.0" encoding="utf-8"?>
<!-- Generator: Adobe Illustrator 26.0.1, SVG Export Plug-In . SVG Version: 6.00 Build 0)  -->
<svg version="1.1" id="Layer_1" xmlns="http://www.w3.org/2000/svg" xmlns:xlink="http://www.w3.org/1999/xlink" x="0px" y="0px"
	 viewBox="0 0 95 35" style="enable-background:new 0 0 95 35;" xml:space="preserve">
<style type="text/css">
	.st0{fill-rule:evenodd;clip-rule:evenodd;fill:#FFFFFF;}
	.st1{fill:#FFFFFF;}
</style>
<g id="layer1" transform="translate(-107.25699,-188.33606)">
	<g id="g1173" transform="translate(0.26458143,-0.26457239)">
		<g id="g118" transform="matrix(0.35277777,0,0,-0.35277777,159.48257,203.18764)">
			<path id="path120" class="st0" d="M108.8-34l0.7,1.9h-191l-0.7-1.9H108.8"/>
		</g>
		<g id="g122" transform="matrix(0.35277777,0,0,-0.35277777,113.65955,199.36282)">
			<path id="path124" class="st0" d="M12.7-26c0.9,0.8,3.3,1.2,4.6,0c1.4-1.3,1.1-2.8,0.1-3.9c-1.4-1.6-6.6-5.3-8-6.1H8.5
				c-0.3,0.4-2.3,3.5-2.7,5c-0.4,1.5-0.4,3.5,1.4,4.9C8.9-24.7,10.8-24.8,12.7-26"/>
		</g>
		<g id="g126" transform="matrix(0.35277777,0,0,-0.35277777,115.33701,201.72149)">
			<path id="path128" class="st0" d="M16.2-30.9c1.5,0.7,2.7,2.5,2.1,4.3c-0.6,1.7-2.6,1.7-4,1.2c-2.5-0.9-7.8-4.3-8.7-4.9l-0.3-0.9
				C5.9-32,7.8-34.3,9-35.3c1.3-1,3.1-1.6,5-0.5C16-34.7,16.6-32.7,16.2-30.9"/>
		</g>
		<g id="g130" transform="matrix(0.35277777,0,0,-0.35277777,112.03642,203.97398)">
			<path id="path132" class="st0" d="M9.3-35.6c-0.9-0.8-3.4-1.2-4.6,0c-1.4,1.3-1.1,2.8-0.1,3.9c1.4,1.6,6.6,5.3,8,6.1h0.9
				c0.3-0.4,2.3-3.5,2.7-5c0.4-1.5,0.4-3.5-1.4-4.9C13.1-36.9,11.1-36.8,9.3-35.6"/>
		</g>
		<g id="g134" transform="matrix(0.35277777,0,0,-0.35277777,110.36709,201.61319)">
			<path id="path136" class="st0" d="M5.8-30.7c-1.5-0.7-2.7-2.5-2.1-4.3c0.6-1.7,2.6-1.7,4-1.2c2.5,0.9,7.8,4.3,8.7,4.9l0.3,0.9
				c-0.6,0.9-2.5,3.2-3.8,4.1c-1.3,1-3.1,1.6-5,0.5C6-26.9,5.3-28.9,5.8-30.7"/>
		</g>
		<g id="g138" transform="matrix(0.35277777,0,0,-0.35277777,125.82757,199.03791)">
			<path id="path140" class="st1" d="M38.2-25.3c-0.6-3.2-3.9-9-9.8-9h-5.1L29-18.5h5C37-18.5,39-21.4,38.2-25.3 M34.4-14h-9.6
				l-8.9-24.2h11.9c7.8,0,13.8,4.5,15.6,12.6C45-19.2,41.7-14.1,34.4-14"/>
		</g>
		<g id="g142" transform="matrix(0.35277777,0,0,-0.35277777,128.59334,199.9188)">
			<path id="path144" class="st1" d="M44-27.1l7.3,10.4l-0.2-10.4H44z M56.6-35.8l-0.4,24.2h-6.2L31.7-35.8h6.2l3.8,5.2H51l-0.1-5.2
				H56.6"/>
		</g>
		<g id="g146" transform="matrix(0.35277777,0,0,-0.35277777,143.90884,199.9188)">
			<path id="path148" class="st1" d="M76.1-27.1l7.3,10.4l-0.2-10.4H76.1z M88.8-35.8l-0.4,24.2h-6.2L63.8-35.8H70l3.8,5.2h9.4
				L83-35.8H88.8"/>
		</g>
		<g id="g150" transform="matrix(0.35277777,0,0,-0.35277777,133.02953,200.07826)">
			<path id="path152" class="st0" d="M53.3-27.5c-0.5-2.2,0-3.9,4.9-3.9c3.7,0,5.7,1.4,6,3.1c0.6,3.1-3.1,2.6-6.9,3.8
				c-3.2,1-6.1,1.8-5.5,5.9c0.5,3.3,4.5,8.1,13,8.1c7.7,0,9.8-3,8.6-7.4h-5.3c0.4,0.7,0.2,1.9-0.5,2.5c-0.9,0.7-2.4,1.1-3.9,1.1
				c-2.6,0-5.5-1.4-5.8-3.2c-0.6-2.7,4.9-3,6.1-3.3c3.5-0.7,7.5-1.6,6.6-6.3c-0.9-4.3-6.3-8.6-14-8.6c-6.3,0-10.1,2.8-8.8,8.2
				L53.3-27.5"/>
		</g>
		<g id="g154" transform="matrix(0.35277777,0,0,-0.35277777,138.32472,200.07826)">
			<path id="path156" class="st0" d="M64.4-27.5c-0.5-2.2,0-3.9,4.9-3.9c3.7,0,5.7,1.4,6,3.1c0.6,3.1-3.1,2.6-6.9,3.8
				c-3.2,1-6.1,1.8-5.5,5.9c0.5,3.3,4.5,8.1,13,8.1c7.7,0,9.8-3,8.6-7.4h-5.3c0.4,0.7,0.2,1.9-0.5,2.5c-0.9,0.7-2.4,1.1-3.9,1.1
				c-2.6,0-5.5-1.4-5.8-3.2c-0.6-2.7,4.9-3,6.1-3.3c3.5-0.7,7.5-1.6,6.6-6.3c-0.9-4.3-6.3-8.6-14-8.6c-6.3,0-10.1,2.8-8.8,8.2
				L64.4-27.5"/>
		</g>
		<g id="g158" transform="matrix(0.35277777,0,0,-0.35277777,152.0506,199.73218)">
			<path id="path160" class="st0" d="M93.2-26.7c-1.3-3.1-3.3-10.1-15-10.1c-6.4,0-8.8,3.2-8,7.1c0.4,2,0.9,3.5,1.5,5.1l4.8,12.7
				h5.9l-4.9-13.1c-0.5-1.2-0.9-2.4-1.2-3.6c-0.7-2.6,0.9-3.7,3-3.7c6.3,0,7,3.3,8.2,5.9l5.5,14.5h5.7L93.2-26.7"/>
		</g>
		<g id="g162" transform="matrix(0.35277777,0,0,-0.35277777,154.26569,196.75686)">
			<path id="path164" class="st0" d="M97.8-20.5h5.9l-7.4-19.7H110l-1.9-4.5H88.7L97.8-20.5"/>
		</g>
		<g id="g166" transform="matrix(0.35277777,0,0,-0.35277777,161.49516,197.66349)">
			<path id="path168" class="st0" d="M113-22.4h-8.2l-7.4-19.7h-6l7.5,19.7H90l1.8,4.5h23L113-22.4"/>
		</g>
		<g id="g170" transform="matrix(0.35277777,0,0,-0.35277777,121.1455,206.12945)">
			<path id="path172" class="st1" d="M28.4-40.2h-3l3.2,4.5L28.4-40.2z M28.2-33.2l-8.6-11.3h2.6L24-42h4.3l-0.1-2.5h2.5l0,11.3
				H28.2"/>
		</g>
		<g id="g174" transform="matrix(0.35277777,0,0,-0.35277777,136.50474,206.12945)">
			<path id="path176" class="st1" d="M60.6-40.2h-3l3.2,4.5L60.6-40.2z M60.4-33.2l-8.6-11.3h2.6l1.9,2.5h4.3l-0.1-2.5h2.5l0,11.3
				H60.4"/>
		</g>
		<g id="g178" transform="matrix(0.35277777,0,0,-0.35277777,125.94963,207.01669)">
			<path id="path180" class="st0" d="M38.4-42h-2.8l0.6,11.3h2.5l-0.7-8.5h0l5.7,8.5h2.6L38.4-42"/>
		</g>
		<g id="g182" transform="matrix(0.35277777,0,0,-0.35277777,131.34854,204.72222)">
			<path id="path184" class="st0" d="M49.8-37.2h2.5L48-48.5h-2.5L49.8-37.2"/>
		</g>
		<g id="g186" transform="matrix(0.35277777,0,0,-0.35277777,146.56138,204.72222)">
			<path id="path188" class="st0" d="M81.7-37.2h2.5l-4.3-11.3h-2.5L81.7-37.2"/>
		</g>
		<g id="g190" transform="matrix(0.35277777,0,0,-0.35277777,141.38683,205.14661)">
			<path id="path192" class="st0" d="M70.8-38.1h-3.6l0.8,2.1h9.4l-0.8-2.1h-3.4l-3.5-9.2h-2.5L70.8-38.1"/>
		</g>
		<g id="g194" transform="matrix(0.35277777,0,0,-0.35277777,152.49298,205.68531)">
			<path id="path196" class="st1" d="M94.1-39.2c-0.4-2.1-2-4.8-4.5-4.8c-1.8,0-2.3,1.4-2.1,2.9c0.4,2.2,2,4.8,4.5,4.8
				C93.9-36.3,94.4-37.6,94.1-39.2 M92.4-34.2c-3.8,0-6.8-3.2-7.4-6.9c-0.5-3.2,1-5,4.2-5c4,0,6.8,3.3,7.4,7
				C97.2-35.9,95.5-34.2,92.4-34.2"/>
		</g>
		<g id="g198" transform="matrix(0.35277777,0,0,-0.35277777,156.97255,204.72222)">
			<path id="path200" class="st0" d="M103.5-37.2h2.6l1.7-8.1h0l3,8.1h2.3l-4.3-11.3h-2.5l-1.8,7.9h0l-3-7.9h-2.3L103.5-37.2"/>
		</g>
		<g id="g202" transform="matrix(0.35277777,0,0,-0.35277777,110.86485,207.01669)">
			<path id="path204" class="st0" d="M6.8-42c5.6,10.4,18,19,28.9,23.1c-2.7,11.6-4.1,31.8-2.2,47.9C24.5,13.2,6.1-9-4.8-20.4
				c2.7-1.7,6-5,7.3-7.7c-1.1-1.1-1.5-1.4-2.7-2.5C-3-26.3-5.7-23.9-11-21.3C5.7-3.7,23.7,16.7,39.6,47.5
				c-3.9-25.4-4.5-50.6,0.7-68.8C27.1-25.5,16.2-34.7,11.9-42H6.8"/>
		</g>
	</g>
</g>
</svg>
