<?xml version="1.0" encoding="utf-8"?>
<!-- Generator: Adobe Illustrator 26.0.1, SVG Export Plug-In . SVG Version: 6.00 Build 0)  -->
<svg version="1.1" id="Layer_1" xmlns="http://www.w3.org/2000/svg" xmlns:xlink="http://www.w3.org/1999/xlink" x="0px" y="0px"
	 viewBox="0 0 95 35" style="enable-background:new 0 0 95 35;" xml:space="preserve">
<style type="text/css">
	.st0{fill:#FFFFFF;}
	.st1{fill-rule:evenodd;clip-rule:evenodd;fill:#FFFFFF;}
</style>
<g>
	<path id="path846" class="st0" d="M46.4,32.4c-4.5-0.2-9.2-1.3-13.9-3.3c-1.9-0.8-4-1.9-6.1-3c-1.4-0.8-4.5-2.7-4.7-2.9
		c-0.1-0.1-0.2-0.2-0.2-0.3c0-0.3,0.2-0.5,0.5-0.5c0.1,0,0.2,0,0.5,0.2c1.3,0.8,3.1,1.7,4.9,2.5c8.3,3.5,18.1,4.7,27.5,3.5
		c6.4-0.9,12.6-2.9,17.4-5.8c0.7-0.4,0.8-0.4,1-0.3c0.3,0.1,0.4,0.5,0.1,0.7c-0.1,0.1-0.2,0.2-1.8,1.1c-4.2,2.6-7.6,4.3-11.2,5.7
		C55.7,31.8,51,32.6,46.4,32.4L46.4,32.4z"/>
	<path id="path4280" class="st1" d="M0,3c0,0,0.1,0.3,0.2,1.1c0.1,2,0.1,3.6,0.1,5.5c0,1.4,0,2.8,0,4.1c0,0.9,0,1.4,0,2.2
		c0,2.4-0.2,4.1-0.2,4.1s1.8,0.4,4.5,0.4c2.7,0,5.6-0.9,7.3-2.4c1.7-1.4,3.2-3.4,3.2-7.1c0-3.6-1.6-5.6-3.6-6.9
		C9.4,2.8,6.2,2.5,3.8,2.7C1.4,2.8,0.1,3,0,3L0,3z M94.6,16.7L91,15.8c-1,0.9-2,1.4-3.3,1.4c-2.7,0-4.1-1.7-4.6-4.3h11.7
		C95,12,95,11,95,10c-0.1-1.9-0.7-3.7-1.9-5.2c-1.2-1.5-3.2-2.3-5.7-2.2c-2.4,0-4.3,0.8-5.8,2.4c-1.4,1.5-2.3,3.8-2.2,6.8
		c0,2.9,0.8,5,2.6,6.7c1.2,1.2,2.9,1.9,5.1,1.9C91.2,20.4,92.9,19,94.6,16.7L94.6,16.7z M91.6,10h-8.4c0.1-2.2,2.1-4.2,4.2-4.2
		C89.7,5.8,91.5,7.4,91.6,10z M54.8,5.9c2.8,0,5,2.5,5,5.6s-2.3,5.6-5,5.6c-2.8,0-5-2.5-5-5.6S52,5.9,54.8,5.9z M54.9,2.6
		c4.7,0,8.5,4,8.5,9c0,4.9-3.9,8.9-8.6,8.9c-4.7,0-8.5-4-8.5-8.9C46.3,6.6,50.2,2.6,54.9,2.6z M64.1,19.8h3.8V8.4
		c3.5,3,6,6.8,7.5,11.4l3.2,0V3.1l-3.6,0l0,8.2c-1.1-1.9-2.5-3.4-3.9-4.8c-1.4-1.3-2.5-2.5-3.9-3.4h-3.2L64.1,19.8z M31.1,19.8h3.7
		V8.4c3.5,3,5.9,6.8,7.5,11.4h3.3V3.1h-3.7v8.1c-2.1-3.1-4.7-5.8-7.7-8.1h-3.1L31.1,19.8z M20.6,3.1h3.6c3.5,3.8,5.6,9.3,6.3,16.7
		h-3.9c-0.1-1.3-0.3-2.5-0.5-3.6h-7.6c-0.2,1.2-0.4,2.4-0.5,3.6h-3.7C15,12.4,17.2,6.7,20.6,3.1z M25.4,13.1
		c-0.8-2.6-1.8-4.8-3.1-6.8c-1.3,2-2.4,4.3-3.1,6.8H25.4z M3.9,5.9c0,0,0.7,0,1.7,0c0.9,0,2.9,0.2,4.4,1.6c1.5,1.4,1.5,3.1,1.5,4.2
		c0,1.1-0.4,3.6-2.8,4.7c-2.4,1.1-4.8,0.7-4.8,0.7L3.9,5.9z"/>
</g>
</svg>
