<?xml version="1.0" encoding="utf-8"?>
<!-- Generator: Adobe Illustrator 26.0.1, SVG Export Plug-In . SVG Version: 6.00 Build 0)  -->
<svg version="1.1" id="Layer_1" xmlns="http://www.w3.org/2000/svg" xmlns:xlink="http://www.w3.org/1999/xlink" x="0px" y="0px"
	 viewBox="0 0 95 35" style="enable-background:new 0 0 95 35;" xml:space="preserve">
<style type="text/css">
	.st0{fill:#CCCCCC;}
</style>
<path class="st0" d="M0,7.7v19.6h19.6V7.7H0z M4.6,24.3c-0.7-0.6-1.2-1.6-1.2-1.6C2.9,22.5,2,21.9,2,21.9s0.6-0.3,1.1-0.4
	c-0.2-1,0.1-2.5,0.1-2.5s0.2,1.3,0.8,2.3c0.8-0.2,1.4-0.2,1.4-0.2s-0.4,0.6-0.6,1.2c0.5,0.5,1.4,1,1.7,1.1c-0.7,0-1.6-0.2-1.9-0.3
	C4.5,23.5,4.5,24,4.6,24.3z M6.6,18.2c-0.4-0.9-0.7-2.1-0.7-2.1s-1,0.6-2.6,2.2c0.9-1.8,2-3,2-3S4.9,15,3.4,14.8
	c1.4-0.5,3-0.3,3-0.3s0.7-0.6,1.9-0.9c0,0-0.3,0.4-0.5,1c1.6,0.2,3.2,1.2,3.2,1.2s-2.5-0.4-3.6-0.1C6.9,16.6,6.7,17.6,6.6,18.2z
	 M10.3,23.4c0,0.3,0.1,0.6,0.1,0.6s-0.2,0-0.9,0c-0.9,0.5-2,0.7-2,0.7s0.7-0.5,1-0.8c-0.6-0.1-1-0.3-1-0.3s0.9-0.1,1.6-0.2
	c0.3-0.3,0.9-1.2,0.9-1.2s0,0.5,0.1,0.8c0.8-0.4,1.5-0.9,1.5-0.9S11.1,22.8,10.3,23.4z M16.6,12c0.1,1.4-0.2,3-0.7,4.3
	c0-0.8-0.1-2.4-0.6-3.4c-0.4,0.3-1.4,0.8-2.9,1.5c0.2-0.2,1.2-1.4,1.5-1.8c-1,0-2.7,0.1-4.2,0.5c1-0.5,2.8-1.1,4.3-1.4
	c-0.6-0.6-1.9-1.2-2.8-1.7c0.8,0,3.7,0.6,4.7,1.4c0.7-0.2,1.5-0.2,1.5-0.2C17.2,11.4,17,11.7,16.6,12z"/>
<g>
	<path class="st0" d="M28.9,23.3c0.9-0.2,1.4-0.9,1.4-1.6c0-0.7-0.7-1.6-2.3-1.6c-1.6,0-3.4,0-3.4,0s0.1,1.9,0.1,3.5
		c0,1.6-0.1,3.5-0.1,3.5s2.1,0.1,3.3,0.1c1.3,0,2.7-0.6,2.7-2C30.6,23.9,29.2,23.5,28.9,23.3z M27.5,26.3c-0.6,0-1.2,0-1.2,0
		s0-1.7,0-2.8c0-1.1,0.1-2.6,0.1-2.6c0.5,0,2.3-0.2,2.3,1c0,1.2-1.5,1-1.5,1l-0.4,1c0,0,0.4,0,0.7,0c0.3,0,1.5,0.2,1.5,1.2
		C28.9,26.1,28.1,26.3,27.5,26.3z"/>
	<path class="st0" d="M79.4,23.3c0.9-0.2,1.4-0.9,1.4-1.6c0-0.7-0.7-1.6-2.3-1.6s-3.4,0-3.4,0s0.1,1.9,0.1,3.5
		c0,1.6-0.1,3.5-0.1,3.5s2.1,0.1,3.3,0.1c1.3,0,2.7-0.6,2.7-2C81.1,23.9,79.7,23.5,79.4,23.3z M78,26.3c-0.6,0-1.2,0-1.2,0
		s0-1.7,0-2.8c0-1.1,0.1-2.6,0.1-2.6c0.5,0,2.3-0.2,2.3,1c0,1.2-1.5,1-1.5,1l-0.4,1c0,0,0.4,0,0.7,0c0.3,0,1.5,0.2,1.5,1.2
		C79.4,26.1,78.6,26.3,78,26.3z"/>
	<path class="st0" d="M32.3,20.2c0,0,0.1,2.3,0.1,3.1c0,0.8-0.1,4-0.1,4h1.5c0,0-0.1-2.1-0.1-3c0-0.9,0-2.1,0-2.1s0.2,0.5,0.8,1.4
		c0.6,1,2.3,3.7,2.3,3.7H38c0,0-0.1-1.6-0.1-3.6c0-1.9,0.1-3.5,0.1-3.5h-1.5l0.2,4.3L34,20.2H32.3z"/>
	<path class="st0" d="M42.9,20.2c-2.5,0-2.7,0-2.7,0c0,0,0.1,1.9,0.1,3.5c0,1.6-0.1,3.5-0.1,3.5H42c0,0-0.1-1.4-0.1-2.9
		c0.7,0,4.1,0.3,4.1-2.1C45.9,21.7,45.8,20.2,42.9,20.2z M41.9,23.4V21c0,0,2.4-0.3,2.4,1.1C44.3,23.7,41.9,23.4,41.9,23.4z"/>
	<path class="st0" d="M52.5,20.2c-2.5,0-2.7,0-2.7,0c0,0,0.1,1.9,0.1,3.5c0,1.6-0.1,3.5-0.1,3.5h1.8c0,0-0.1-1.4-0.1-2.9
		c0.7,0,4.1,0.3,4.1-2.1C55.6,21.7,55.4,20.2,52.5,20.2z M51.5,23.4V21c0,0,2.4-0.3,2.4,1.1C53.9,23.7,51.5,23.4,51.5,23.4z"/>
	<path class="st0" d="M59.6,20.2h-1.3c0,0-1,2.7-2.9,7.1c0.2,0,1.6,0,1.6,0l0.5-1.7h2.5l0.6,1.7h1.8L59.6,20.2z M57.9,24.6l0.9-2.4
		l0.9,2.4H57.9z"/>
	<path class="st0" d="M86,20.2h-1.3c0,0-1,2.7-2.9,7.1c0.2,0,1.6,0,1.6,0l0.5-1.7h2.5l0.6,1.7h1.8L86,20.2z M84.3,24.6l0.9-2.4
		l0.9,2.4H84.3z"/>
	<path class="st0" d="M63.7,20.2c0,0,0.1,1.3,0.1,3.2c0,1.9-0.1,3.8-0.1,3.8h1.8c0,0-0.1-1.9-0.1-3.5c0-1.7,0.1-2.6,0.1-2.6
		s2.3-0.3,2.3,1.1c0,1.5-1.8,1.3-1.8,1.3l2,3.8h1.9l-2-3.2c0,0,1.5-0.3,1.5-1.9c0-1.6-1.9-2-2.9-2C65.6,20.2,63.7,20.2,63.7,20.2z"
		/>
	<path class="st0" d="M71.2,20.2c0,0,0.1,1.1,0.1,3.3c0,2.2-0.1,3.8-0.1,3.8H73c0,0-0.1-1.7-0.1-3.8s0.1-3.3,0.1-3.3H71.2z"/>
	<path class="st0" d="M94.4,20.2c0,0-0.9-0.3-2-0.3c-1,0-2.7,0.4-2.7,2c0,1.3,1.4,1.9,1.9,2.1c0.5,0.2,1.8,0.6,1.8,1.3
		c0,0.6-0.6,0.8-1.3,0.8c-0.6,0-1.7-0.4-2.3-0.8c0,0.6,0,1.6,0,1.6s1.2,0.3,2.2,0.3c1,0,2.9-0.4,2.9-2.2c0-1.3-1.2-1.8-2.2-2.3
		c-1-0.4-1.5-0.7-1.5-1.2s0.7-0.6,1-0.6c0.3,0,0.9,0,2.2,0.7C94.4,21.2,94.4,20.2,94.4,20.2z"/>
</g>
</svg>
