<?xml version="1.0" encoding="utf-8"?>
<!-- Generator: Adobe Illustrator 26.0.1, SVG Export Plug-In . SVG Version: 6.00 Build 0)  -->
<svg version="1.1" id="Layer_1" xmlns="http://www.w3.org/2000/svg" xmlns:xlink="http://www.w3.org/1999/xlink" x="0px" y="0px"
	 viewBox="0 0 95 35" style="enable-background:new 0 0 95 35;" xml:space="preserve">
<style type="text/css">
	.st0{fill-rule:evenodd;clip-rule:evenodd;fill:#CCCCCC;}
</style>
<path class="st0" d="M44,0.5C44.1,0.5,44,0.5,44,0.5L44,0.5z"/>
<path class="st0" d="M44,0.5C44,0.5,44,0.5,44,0.5L44,0.5z"/>
<path class="st0" d="M55.4,3.1c-0.8-1.2-2-2.1-3.4-2.6c-1.3-0.4-2.6-0.6-4-0.6c-1.4,0-2.7,0.2-4,0.6c-1.3,0.5-2.6,1.4-3.4,2.6
	c-1.3,1.9-2.4,5.5-2.5,9.1v0c0.1,3.6,1.2,7.2,2.5,9.1c0.8,1.2,2,2.1,3.4,2.6c1.3,0.4,2.6,0.6,4,0.6h0h0c1.4,0,2.7-0.2,3.9-0.6
	c1.3-0.5,2.6-1.4,3.4-2.6c1.3-1.9,2.4-5.5,2.5-9.1v0C57.8,8.6,56.7,5,55.4,3.1z M55.5,19.9c-0.9,2-2.2,3.2-4.2,3.8
	c-1.1,0.3-2.2,0.4-3.3,0.4c-1.1,0-2.3-0.1-3.3-0.4c-2-0.5-3.3-1.8-4.2-3.8c-0.8-1.7-1.6-5-1.6-7.7c0-2.7,0.8-6,1.6-7.7
	c0.9-2,2.2-3.2,4.2-3.8c1.1-0.3,2.2-0.4,3.3-0.4c1.1,0,2.3,0.1,3.3,0.4c2,0.5,3.3,1.8,4.2,3.8c0.8,1.7,1.6,5,1.6,7.7
	C57.2,14.9,56.3,18.2,55.5,19.9z"/>
<path class="st0" d="M52.9,5.3c-0.4-0.9-1.1-1.5-2.1-1.8C49.9,3.3,49,3.2,48,3.2h0c-0.9,0-1.9,0.1-2.8,0.4c-0.9,0.3-1.7,0.9-2.1,1.8
	c-0.8,1.8-1.4,4.4-1.4,6.9c0,2.5,0.5,5.1,1.4,6.9c0.4,0.9,1.1,1.5,2.1,1.8c0.9,0.2,1.8,0.4,2.8,0.4h0c0.9,0,1.9-0.1,2.8-0.4
	c0.9-0.3,1.7-0.9,2.1-1.8c0.8-1.8,1.4-4.3,1.4-6.9C54.2,9.6,53.7,7.1,52.9,5.3z M51.3,10.4c0,0,0.1,0,0.2-0.1V8.7
	c0.2-0.1,0.4-0.1,0.6-0.2v1c0.1,0,0.2,0,0.3-0.1l0,1.3L52,10.8l-0.1,0.5h-1.4l-0.2-0.5c-0.3,0-0.4,0-0.7-0.1
	c0.3-0.4,0.7-0.8,0.9-1.3V8.8l0.6-0.1c0,0.5,0,1,0,1.5C51.1,10.3,51.2,10.4,51.3,10.4L51.3,10.4z M50.4,4.5c0.2,0,0.4,0,0.5,0.1
	c0.2,0.1,0.2,0.3,0.2,0.6c-0.1,0.4-0.6,0.5-1,0.6l-0.2-0.3C50,5.1,50,4.7,50.4,4.5z M49.2,6.3l0.2,0.3L49,7
	c-0.1-0.1-0.1-0.1-0.2-0.2C49,6.6,49,6.6,49.2,6.3z M44.2,5.7L44.2,5.7c0.1,0.2,0.2,0.4,0.4,0.5c0-0.1-0.1-0.2-0.2-0.3
	c-0.1-0.2-0.1-0.6,0.1-0.8c0.1-0.2,0.3-0.2,0.4-0.3c-0.1,0.2-0.1,0.4,0,0.6c0.1-0.1,0.1-0.1,0.2-0.2c0,0,0,0,0.1-0.1
	c0.2,0.3,0.3,0.8,0.2,1.2l-0.1,0.2c0-0.3-0.1-0.4-0.3-0.5c0,0.2,0.1,0.3,0.1,0.5c0.1,0.3,0,0.6-0.2,0.8h-0.5
	C44.2,6.9,44.2,6.3,44.2,5.7z M45.4,7.8c-0.1,0-0.2,0-0.3,0l-0.1,1c-0.1-0.1-0.3-0.2-0.4-0.2c-0.1-0.4-0.1-0.4-0.1-0.7
	c-0.1,0-0.1,0-0.3,0V7.5c0.5,0,0.7,0,1.2,0L45.4,7.8z M43.4,11.7l3.1,0v0.9l-3.1,0V11.7z M44.7,9.9c0.1,0,0.3,0,0.4,0.1
	c0,0.5,0,0.5,0,1.1h-0.3l0-0.1C44.7,10.5,44.7,10.3,44.7,9.9z M44.5,16.3c-0.1,0-0.2,0-0.2,0c-0.1,0-0.3-0.1-0.4-0.3l0,0l0-0.1
	l0-0.1l0-0.1l0-1.7c0-0.2-0.1-0.2-0.3-0.3l0.1,0l0.7-0.2c0.1,0.1,0.1,0.2,0.1,0.4v1.3c0,0.1,0.1,0.1,0.2,0.1c0.1,0,0.2,0,0.2-0.1
	c0-0.6,0-0.8,0-1.3c0-0.2,0.2-0.4,0.3-0.4c0.2-0.1,0.4-0.1,0.6,0c0.3,0.1,0.3,0.7,0.3,1.2c-0.1-0.1-0.1-0.1-0.3-0.1
	c-0.1,0-0.2,0-0.3,0.1c-0.1,0.1-0.1,0.2-0.1,0.3c0,0.6,0.1,0.9-0.2,1.2C44.8,16.3,44.6,16.3,44.5,16.3z M45.4,18.1
	c-0.1-0.1-0.2-0.2-0.2-0.3c-0.1-0.6,0.6-0.8,0.7-1.3c0.1-0.8,0.2-1.6,0.7-2.3c0.1-1.2,0.4-2.2,1.3-3.1c0-0.3-0.1-0.5-0.2-0.7
	c-0.1,0-0.2,0-0.3-0.1c-0.1-0.1-0.1-0.2-0.1-0.3c-0.3,0.4-0.7,0.8-1,1c-0.1,0-0.2,0-0.3-0.2c-0.5-0.4-0.6-1.3-1.3-1.2
	c-0.3-0.1-0.3-0.5-0.4-0.8c0.1-0.1,0.3-0.1,0.5,0c0.5,0.2,0.8,0.8,1.2,1.1c0.1,0.1,0.2,0.2,0.3,0.3c0.3-0.2,0.5-0.5,0.7-0.8
	C47.1,9.1,47.3,9,47.5,9l0.2-0.2l-0.1-0.5c-0.2-0.2-0.3-0.5-0.5-0.7c0.1-0.3,0.1-0.6,0.4-0.8c0.2-0.1,0.4,0.2,0.5,0
	c0.1,0,0.2,0,0.3,0.1c0.1,0.2,0.3,0.4,0.3,0.7c-0.1,0.2-0.2,0.5-0.3,0.7c0,0.1-0.1,0.1-0.1,0.1c0,0.1,0.1,0.2,0.1,0.3
	c0.1,0,0.2,0,0.3,0c0.1-0.3,0.4-0.4,0.6-0.5l0.5-0.3c-0.1-0.4,0.2-0.7,0-1.1c-0.3-0.1-0.4-0.5-0.4-0.7c0-0.2,0.1-0.3,0.2-0.5l0,0
	c0.3,0.3,0.5,0.7,0.6,1.1c0.1,0.5,0.1,1.1,0.1,1.6c-0.3,0.3-0.6,0.4-0.9,0.7l-0.2,0.5c0,0.5-0.2,0.9-0.2,1.3
	c0.2,0.5,0.4,1.3,0.3,1.8c-0.1,0.3-0.4,0.5-0.6,0.6L48,13.4c0.5,0.6,0.4,1.3,0.4,2.1c0,0.2,0.4,0.4,0.2,0.6
	c-0.2,0.3-0.4,0.5-0.4,0.8c-0.2,0.3-0.6,0.3-0.7,0.3c0,0-0.1,0-0.1-0.1c0-0.1,0.1-0.3,0.2-0.4c0.2-0.3,0.1-0.7,0.3-1
	c-0.2-0.6-0.5-1.2-0.6-1.9l0,0c-0.2,0.3-0.1,0.6,0,0.9c-0.5,0.7-1.1,1.3-1.1,2.2c-0.2,0.4-0.5,0.8-0.7,1.2
	C45.5,18.2,45.4,18.1,45.4,18.1z M48.8,16c0.3,0,0.6,0.3,0.7,0.6c0.1,0.3,0.1,0.7-0.1,0.9c-0.2,0.3-0.6,0.4-0.9,0.4
	c-0.2-0.1-0.5-0.2-0.6-0.4c0.2-0.1,0.5-0.2,0.5-0.4c0-0.3,0.2-0.5,0.3-0.8C48.8,16.2,48.9,16.1,48.8,16z M49.1,15.8l0-2.7
	c0.4,0,0.5,0,0.9,0v2.7H49.1z M47.2,19.8c-0.2,0.2-0.7,0.2-0.9,0.1c-0.2-0.1-0.3-0.2-0.4-0.4c-0.1-0.1-0.1-0.2-0.1-0.3
	c0.7,0,1.1,0,1.8,0C47.5,19.4,47.4,19.7,47.2,19.8z M48.4,19.9c-0.2,0-0.4,0-0.6,0v-1.1l-1,0v-0.4l1,0l0.3-0.4
	c0.1,0.2,0.2,0.2,0.3,0.4h1v0.4l-1,0C48.4,19.3,48.4,19.4,48.4,19.9z M50.3,19.5c-0.1,0.1-0.2,0.3-0.4,0.4c-0.3,0.2-0.7,0.1-0.9-0.1
	c-0.2-0.2-0.4-0.4-0.4-0.7c0.7,0,1.1,0,1.8,0C50.4,19.3,50.4,19.4,50.3,19.5z M51,14c0.4,0.4,0.8,0.8,1.1,1.1
	c0.1,0.1,0.2,0.4,0.2,0.6c0,0.1-0.1,0.2-0.2,0.3c0-0.2-0.1-0.3-0.2-0.4c-0.5-0.5-1.4-1.2-1.4-1.5c-0.1-0.2-0.1-0.4-0.1-0.7
	c0.1-0.1,0.3-0.2,0.4-0.3C50.9,13.5,50.8,13.8,51,14z M51.9,13.1c0.2,0.2,0.3,0.2,0.5,0.4c0.1,0.5-0.2,0.7-0.4,1l-0.8-0.8v-0.5
	c0.1-0.1,0.1-0.1,0.2-0.3l0.2,0.3v0.8C51.9,14,51.9,13.5,51.9,13.1z M51.7,17.2c-0.1,0.1-0.1,0.1-0.2,0.3l-0.2-0.3v-0.8
	c-0.3,0.2-0.2,0.6-0.2,1c-0.2-0.2-0.3-0.2-0.5-0.4c-0.1-0.5,0.2-0.7,0.4-1l0.8,0.8V17.2z M51.9,17.4c0-0.3,0.1-0.7-0.1-0.9
	c-0.4-0.4-0.8-0.8-1.1-1.1c-0.1-0.1-0.2-0.4-0.2-0.6c0-0.1,0.1-0.2,0.2-0.3c0,0.2,0.1,0.3,0.2,0.4c0.5,0.5,1.4,1.2,1.4,1.5
	c0.1,0.2,0.1,0.4,0.1,0.7C52.2,17.2,52.1,17.3,51.9,17.4z M52.7,12.6l-3.1,0v-0.9l3.1,0V12.6z"/>
<path class="st0" d="M48.3,23.4c0-0.5,0.5-0.7,0.8-1.1c0.1-0.1,0.1-0.2,0.1-0.4c0-0.1-0.1-0.1-0.2-0.1c-0.1,0-0.2,0-0.3,0.1
	c-0.1,0.1-0.1,0.2-0.1,0.3l-0.3,0c0-0.2,0-0.4,0.1-0.5c0.2-0.2,0.4-0.2,0.6-0.2c0.2,0,0.4,0.1,0.5,0.3c0.1,0.2,0.1,0.5-0.1,0.7
	c-0.2,0.2-0.5,0.3-0.6,0.6l0.9,0c0,0.1,0,0.2,0,0.3L48.3,23.4L48.3,23.4z"/>
<path class="st0" d="M45.3,21.3L45.3,21.3L44.7,23l-0.4-0.1l0.4-1.2l0,0c-0.1,0-0.3-0.1-0.5-0.1l0.1-0.2c0.2,0,0.4,0.1,0.5-0.1
	c0.1,0,0.1-0.1,0.1-0.1L45.3,21.3L45.3,21.3z"/>
<path class="st0" d="M52.1,22.2c0-0.2-0.1-0.3-0.3-0.4l-0.1,0c0.1-0.1,0.2-0.2,0.2-0.4c0-0.2-0.2-0.3-0.3-0.3c-0.1,0-0.3,0-0.5,0
	c-0.2,0-0.3,0.1-0.4,0.2c-0.1,0.1-0.2,0.3-0.1,0.5c0,0.2,0.2,0.2,0.3,0.3l-0.1,0.1c-0.1,0.1-0.2,0.3-0.1,0.5c0,0.2,0.2,0.3,0.4,0.4
	c0.1,0,0.3,0,0.5,0c0.2,0,0.3-0.1,0.4-0.2C52.1,22.6,52.1,22.4,52.1,22.2L52.1,22.2z M50.9,21.7c0-0.1,0-0.2,0-0.3
	c0,0,0.1-0.1,0.2-0.1c0.1,0,0.1,0,0.2,0c0.1,0,0.2,0.1,0.2,0.2c0,0.1,0,0.1-0.1,0.2c0,0-0.1,0.1-0.2,0.1c-0.1,0-0.1,0-0.2,0
	C51,21.8,50.9,21.8,50.9,21.7L50.9,21.7z M51.6,22.6c0,0.1-0.1,0.1-0.2,0.1c-0.1,0-0.2,0-0.2,0c-0.1,0-0.1-0.1-0.2-0.2
	c0-0.1,0-0.2,0.1-0.3c0,0,0.1-0.1,0.2-0.1c0.1,0,0.1,0,0.2,0c0.1,0,0.2,0.1,0.2,0.2C51.7,22.4,51.7,22.5,51.6,22.6L51.6,22.6z"/>
<path class="st0" d="M47.5,22.9c0-0.2,0-0.3-0.2-0.4l-0.1-0.1c0.1,0,0.3-0.2,0.3-0.3c0-0.2-0.1-0.3-0.2-0.4
	c-0.1-0.1-0.3-0.1-0.4-0.1c-0.2,0-0.3,0-0.5,0.1c-0.1,0.1-0.3,0.2-0.2,0.4c0,0.2,0.1,0.3,0.2,0.4l-0.1,0c-0.2,0.1-0.2,0.2-0.3,0.4
	c0,0.2,0.1,0.4,0.2,0.5c0.1,0.1,0.3,0.1,0.5,0.1c0.2,0,0.3,0,0.5-0.1C47.3,23.2,47.4,23.1,47.5,22.9L47.5,22.9z M46.5,22.1
	c0-0.1,0-0.2,0.1-0.3c0.1,0,0.1,0,0.2,0c0.1,0,0.1,0,0.2,0.1c0.1,0.1,0.1,0.2,0.1,0.3c0,0.1-0.1,0.1-0.1,0.1c-0.1,0-0.1,0-0.2,0
	c-0.1,0-0.1,0-0.2,0C46.5,22.2,46.5,22.1,46.5,22.1L46.5,22.1z M46.9,23.1c-0.1,0-0.1,0.1-0.2,0c-0.1,0-0.2,0-0.2-0.1
	c-0.1-0.1-0.1-0.1-0.1-0.2c0-0.1,0.1-0.2,0.2-0.3c0,0,0.1,0,0.2,0c0.1,0,0.1,0,0.2,0c0.1,0.1,0.2,0.2,0.2,0.3
	C47.1,22.9,47,23,46.9,23.1L46.9,23.1z"/>
<polygon class="st0" points="55.5,5.5 53.8,6.2 53.7,5.9 55.4,5.2 55.5,5.5 "/>
<path class="st0" d="M49.2,2.6l-0.4-1.9l0.4,0c0.1,0.5,0.2,1,0.3,1.4c0.2-0.4,0.4-0.9,0.5-1.3l0.4,0l-0.8,1.7L49.2,2.6L49.2,2.6z"/>
<polygon class="st0" points="42.2,3.7 41.7,4.4 41.4,4.2 41.9,3.4 41.6,3.3 41,4.4 42.5,5.3 43.2,4.2 42.9,4 42.5,4.8 42,4.6 
	42.4,3.9 42.2,3.7 "/>
<path class="st0" d="M41.2,11.4c-0.1-0.2-0.3-0.3-0.5-0.3c-0.2,0-0.3,0.1-0.4,0.3c0-0.1-0.1-0.2-0.3-0.3c-0.2,0-0.4,0-0.4,0.2
	c-0.1,0.2-0.1,0.8-0.1,1.2l1.8,0l0-0.1C41.2,11.8,41.3,11.7,41.2,11.4L41.2,11.4z M40.2,12.2h-0.4c0-0.4-0.1-0.6,0.2-0.7
	c0.2,0,0.2,0,0.2,0.1C40.2,11.8,40.2,11.9,40.2,12.2L40.2,12.2z M41,12.2l-0.5,0h0c0-0.4-0.1-0.6,0.2-0.7c0.1,0,0.2,0,0.2,0
	C41,11.7,41,11.9,41,12.2L41,12.2z"/>
<polygon class="st0" points="55.5,6.5 55.8,6.5 56.2,7.9 55.9,8 55.8,7.4 54.3,7.8 54.2,7.4 55.7,7.1 55.5,6.5 "/>
<path class="st0" d="M46.4,2.8c-0.2,0-0.4,0-0.6-0.1c-0.1-0.1-0.2-0.2-0.2-0.3L45.4,1L45.7,1l0.2,1.3c0,0.1,0.1,0.2,0.2,0.2
	c0.1,0,0.1,0,0.2,0L46.4,2.8L46.4,2.8z"/>
<path class="st0" d="M46.4,2.8c0.2,0,0.4-0.1,0.5-0.3C47,2.4,47,2.2,47,2.1l-0.2-1.3l-0.4,0.1l0.2,1.3c0,0.1-0.1,0.2-0.1,0.2
	c0,0-0.1,0-0.2,0.1L46.4,2.8L46.4,2.8z"/>
<path class="st0" d="M56.4,9.1l-1.9-0.4l0.1,0.4l0.4,0.1L55,9.8L54.7,10l0.1,0.4l1.7-0.9L56.4,9.1L56.4,9.1z M55.3,9.7l-0.1-0.4
	L56,9.3h0l0,0h0h0L55.3,9.7L55.3,9.7z"/>
<path class="st0" d="M56.1,12.2L56.1,12.2L56.1,12.2l0.1,0c0.1-0.1,0.1-0.2,0.1-0.4c0-0.1,0-0.3-0.2-0.3c-0.1,0-0.1,0-0.2,0
	c-0.2,0.3-0.1,0.9-0.6,1.1c-0.2,0-0.4-0.1-0.6-0.2c-0.2-0.3-0.2-0.7,0-1c0.1-0.1,0.3-0.2,0.4-0.2l0,0.3c-0.1,0-0.2,0.1-0.3,0.2
	c-0.1,0.2-0.1,0.5,0.1,0.6c0,0.1,0.2,0,0.2,0c0.2-0.2,0.2-0.5,0.3-0.8c0-0.1,0.1-0.2,0.2-0.3c0.2-0.1,0.4-0.1,0.6,0.1
	c0.2,0.2,0.3,0.7,0.1,0.9c-0.1,0.2-0.3,0.3-0.5,0.3L56.1,12.2L56.1,12.2L56.1,12.2z"/>
<path class="st0" d="M41.5,9.5c0,0.2-0.1,0.4-0.3,0.5c-0.1,0.1-0.2,0.1-0.4,0.1l-1.3-0.2l0.1-0.4l1.3,0.2c0.1,0,0.2-0.1,0.2-0.1
	c0,0,0-0.1,0.1-0.2L41.5,9.5L41.5,9.5z"/>
<path class="st0" d="M41.5,9.5c0-0.2,0-0.4-0.1-0.6c-0.1-0.1-0.2-0.2-0.3-0.2l-1.3-0.2l-0.1,0.4L41,9.1c0.1,0,0.2,0.1,0.2,0.2
	c0,0.1,0,0.1,0,0.2L41.5,9.5L41.5,9.5z"/>
<path class="st0" d="M43.5,1.7l-0.3,0.2l0.4,1.9l0.3-0.2l-0.1-0.4l0.6-0.3l0.3,0.3L45,3L43.5,1.7L43.5,1.7z M43.7,2.9l-0.2-0.8l0,0
	l0,0l0,0l0,0l0.6,0.5L43.7,2.9L43.7,2.9z"/>
<polygon class="st0" points="52.3,2.3 51.5,2 51.7,1.6 52.6,2 52.7,1.7 51.5,1.2 50.8,2.9 52,3.4 52.1,3.1 51.2,2.8 51.4,2.3 
	52.2,2.6 52.3,2.3 "/>
<path class="st0" d="M41.3,6.3c0-0.1,0-0.2-0.1-0.3c-0.1-0.1-0.3-0.2-0.4-0.1c-0.4,0.1-0.5,0.5-0.7,1.3l1.7,0.5l0.1-0.4l-0.7-0.2
	l0,0c0-0.2,0.1-0.4,0.1-0.4c0.1-0.3,0.6,0,0.8,0l0.1-0.4C41.9,6.3,41.5,6,41.3,6.3L41.3,6.3z M40.9,7l-0.5-0.1
	c0.1-0.3,0.1-0.6,0.4-0.6c0.1,0,0.1,0,0.2,0.1C41.1,6.5,41,6.7,40.9,7L40.9,7z"/>
<path class="st0" d="M53.9,2.7l-1.4,1.1l0.2,0.3l0.6-0.4l0,0C53.4,3.8,53.6,4,53.6,4c0.2,0.3-0.3,0.5-0.4,0.6L53.4,5
	c0.2-0.3,0.6-0.4,0.5-0.8c0.1,0.1,0.2,0.1,0.3,0.1c0.1,0,0.3-0.1,0.4-0.3C54.7,3.7,54.4,3.3,53.9,2.7L53.9,2.7z M54.2,3.9
	C54.1,3.9,54.1,4,54,4c-0.1,0-0.3-0.2-0.5-0.5l0.4-0.3C54.1,3.5,54.4,3.7,54.2,3.9L54.2,3.9z"/>
<g>
	<path class="st0" d="M37.7,28.2c-0.3,0-0.5,0-0.7,0v0l0,0.8c0.6,0,0.6,0,0.8,0c0.2,0,0.3-0.2,0.3-0.4C38,28.4,37.9,28.2,37.7,28.2z
		"/>
	<polygon class="st0" points="54.3,27.2 54.3,27.2 54.3,27.2 54.3,27.2 54,28.4 54.7,28.4 54.3,27.2 	"/>
	<path class="st0" d="M33.8,26v4.1h28.2V26H33.8z M37.7,29.4h-1.3v-2.7c0.5,0,0.9,0,1.3,0c0.4,0,0.7,0.2,0.8,0.6
		c0,0.3-0.1,0.5-0.4,0.6c0.3,0.1,0.5,0.4,0.5,0.7C38.6,29,38.4,29.4,37.7,29.4z M42.7,28.7c0,0.2-0.1,0.4-0.2,0.5
		c-0.2,0.2-0.5,0.3-0.8,0.3h0c-0.3,0-0.6-0.1-0.8-0.3c-0.2-0.2-0.2-0.3-0.3-0.5v-2h0.6l0,2c0,0.2,0.1,0.3,0.3,0.3c0.1,0,0.2,0,0.3,0
		c0.1,0,0.2,0,0.3,0c0.1-0.1,0.3-0.2,0.3-0.3l0-2h0.6V28.7z M46.7,29.4c-0.1,0,0.1-1.1-0.4-1.1c-0.3,0-0.4,0-0.7,0l0,1.1h-0.6l0-2.7
		c0.5,0,0.8,0,1.3,0c0.4,0,0.8,0.2,0.9,0.6c0,0.5-0.3,0.6-0.5,0.7c0.6,0.1,0.4,0.9,0.6,1.3H46.7z M51.1,27.7l0,0.5h-1.2l0,0.8h1.4
		l0,0.4h-2v-2.7h2l0,0.4l-1.4,0v0.6L51.1,27.7z M55,29.4l-0.2-0.6h-1l-0.2,0.6h-0.6l0.9-2.7h0.6l0.9,2.7H55z M59.5,28.7
		c0,0.2-0.1,0.4-0.3,0.5c-0.2,0.2-0.5,0.3-0.8,0.3h0c-0.3,0-0.6-0.1-0.8-0.3c-0.2-0.2-0.2-0.3-0.2-0.5v-2h0.6v2
		c0,0.2,0.1,0.3,0.3,0.3c0.1,0,0.2,0,0.3,0c0.1,0,0.2,0,0.3,0c0.1-0.1,0.3-0.2,0.3-0.3l0-2h0.6V28.7z"/>
	<path class="st0" d="M46.3,27.1c-0.2,0-0.4,0-0.7,0v0.7c0.5,0,0.6,0,0.8,0c0.2,0,0.3-0.2,0.3-0.4C46.6,27.3,46.5,27.2,46.3,27.1z"
		/>
	<path class="st0" d="M37.7,27.8c0.2,0,0.3-0.1,0.3-0.4c0-0.2-0.2-0.3-0.3-0.3c-0.2,0-0.4,0-0.7,0l0,0.7
		C37.3,27.8,37.5,27.8,37.7,27.8z"/>
</g>
<g>
	<polygon class="st0" points="54.8,32 54.8,32 54.8,32 54.8,32 54.5,33.1 55.2,33.1 54.8,32 	"/>
	<path class="st0" d="M33.8,30.8v4.1h28.2v-4.1H33.8z M37.7,34.2h-0.5l-0.9-2.7l0.6,0c0.2,0.7,0.4,1.4,0.6,2c0.2-0.6,0.4-1.3,0.6-2
		l0.6,0L37.7,34.2z M42,32.5V33l-1.2,0v0.8h1.4l0,0.4h-2v-2.7h2l0,0.4l-1.4,0v0.6L42,32.5z M45.7,34.2c-0.1,0,0.1-1.1-0.4-1.1
		c-0.3,0-0.4,0-0.7,0l0,1.1h-0.6v-2.7c0.5,0,0.8,0,1.3,0c0.4,0,0.8,0.2,0.9,0.6c0,0.5-0.3,0.6-0.5,0.7c0.6,0.1,0.4,0.9,0.6,1.3H45.7
		z M48.8,34.2h-0.6v-2.7h0.6V34.2z M52.5,31.9h-0.8v2.2h-0.6l0-2.2l-0.8,0v-0.4h2.2V31.9z M55.5,34.2l-0.2-0.6h-1l-0.2,0.6h-0.6
		l0.9-2.7h0.6l0.9,2.7H55.5z M58.5,34.2c-0.8,0-1.1-0.5-1.1-0.9l0.5,0c0,0.2,0.2,0.5,0.6,0.5c0.3,0,0.6-0.1,0.6-0.4
		c0-0.6-1.6-0.2-1.6-1.1c0-0.5,0.3-0.9,1-0.9c1,0,1.1,0.7,1.1,0.8l-0.5,0c0-0.2-0.1-0.4-0.5-0.4c-0.4,0-0.5,0.2-0.5,0.4
		c0,0.5,1.6,0.2,1.6,1.1C59.6,33.9,59.2,34.2,58.5,34.2z"/>
	<path class="st0" d="M45.4,31.9c-0.2,0-0.4,0-0.7,0v0.7c0.5,0,0.6,0,0.8,0c0.2,0,0.3-0.2,0.3-0.4C45.7,32.1,45.5,31.9,45.4,31.9z"
		/>
</g>
</svg>
