<?xml version="1.0" encoding="utf-8"?>
<!-- Generator: Adobe Illustrator 26.0.1, SVG Export Plug-In . SVG Version: 6.00 Build 0)  -->
<svg version="1.1" id="Layer_1" xmlns="http://www.w3.org/2000/svg" xmlns:xlink="http://www.w3.org/1999/xlink" x="0px" y="0px"
	 viewBox="0 0 95 35" style="enable-background:new 0 0 95 35;" xml:space="preserve">
<style type="text/css">
	.st0{fill:#343741;}
</style>
<g>
	<path id="path7-1" class="st0" d="M34.6,32.5c-0.6,0-1,0.3-1,0.8c0,0.5,0.4,0.9,0.9,0.9c0.4,0,0.7-0.2,0.9-0.5V33
		C35.4,32.7,35.1,32.5,34.6,32.5 M46.8,32.4c0,1,0.6,1.7,1.7,1.7c0.6,0,1.1-0.3,1.3-0.6c0.1,0.1,0.2,0.2,0.2,0.4
		c0,0.5-0.6,1.1-1.9,1.1c-1.3,0-2.4-1.1-2.4-2.5c0-1.5,1-2.7,2.5-2.7c1.4,0,2,1,2,1.9c0,0.3-0.1,0.5-0.2,0.7L46.8,32.4L46.8,32.4z
		 M48.7,31.8c0.2,0,0.2-0.1,0.2-0.3c0-0.5-0.4-1-1-1c-0.8,0-1.1,0.7-1.1,1.3L48.7,31.8L48.7,31.8z M61.4,32.3c0,1.2,0.2,1.8,0.9,1.8
		c0.8,0,1.1-0.7,1.1-1.4v-1.3c0-0.4-0.2-0.6-0.7-0.6c-0.2-0.5,0.5-0.8,0.8-0.9c0.1,0,0.2,0,0.3,0c0.5,0,0.7,0.3,0.7,0.8
		c0,0.2,0,0.5,0,1.8c0,0.6,0,0.9,0,1c0,0.4,0.2,0.7,0.7,0.6c0.2,0.5-0.5,0.7-0.8,0.8c-0.1,0-0.2,0-0.3,0c-0.5,0-0.6-0.3-0.7-0.8
		c-0.1,0.1-0.1,0.2-0.3,0.3c-0.3,0.3-0.7,0.5-1.2,0.5c-0.5,0-1-0.2-1.2-0.5c-0.4-0.5-0.4-1.2-0.4-2.1v-0.9c0-0.4-0.2-0.6-0.7-0.6
		c-0.2-0.5,0.5-0.8,0.8-0.9c0.1,0,0.2,0,0.3,0c0.5,0,0.7,0.3,0.7,0.8L61.4,32.3L61.4,32.3z M59.1,32.4c0-1.5-1.1-2.6-2.5-2.6
		c-1.3,0-2.5,1-2.5,2.6c0,1.5,1.1,2.6,2.5,2.6C58,35,59.1,33.9,59.1,32.4 M36.6,33.7c0,0.4,0.3,0.5,0.7,0.6c0,0.5-0.3,0.6-0.7,0.7
		c-0.4,0-0.8-0.2-1-0.6c-0.2,0.2-0.7,0.6-1.5,0.6c-1,0-1.7-0.7-1.7-1.6c0-1,0.8-1.5,2-1.5c0.4,0,0.8,0.1,1.1,0.2v-0.6
		c0-0.6-0.3-0.9-0.9-0.9c-0.1,0-0.4,0-0.7,0.1c0,0.1,0,0.2,0,0.3c0,0.4-0.2,0.6-0.6,0.6c-0.3,0-0.6-0.3-0.6-0.6
		c0-0.6,0.8-1.1,1.9-1.1c0.9,0,1.4,0.2,1.7,0.6c0.3,0.3,0.3,0.8,0.3,1.5V33.7L36.6,33.7z M57.8,32.5c0,1.2-0.5,1.8-1.2,1.8
		c-0.6,0-1.2-0.6-1.2-2c0-1.1,0.4-1.8,1.2-1.8C57.3,30.5,57.8,31.2,57.8,32.5 M40.1,30.7c0,0.3,0.3,0.5,0.6,0.5
		c0.4,0,0.6-0.3,0.6-0.7c0-0.5-0.4-0.7-0.8-0.7c-0.4,0-0.9,0.3-1.1,0.8l0,0c-0.1-0.4-0.3-0.8-0.7-0.8c-0.1,0-0.2,0-0.3,0.1
		c-0.4,0.1-0.9,0.4-0.7,0.9c0.5-0.1,0.7,0.1,0.7,0.5v2.1c0,0.4-0.1,0.6-0.2,0.7c-0.1,0.1-0.3,0.1-0.4,0.2c-0.2,0.5,0.2,0.6,1.2,0.6
		c1,0,1.3-0.1,1.1-0.6c-0.1,0-0.3-0.1-0.5-0.2c-0.1-0.1-0.2-0.3-0.2-0.7v-1.3C39.4,31,39.8,30.7,40.1,30.7 M52.5,30h1.3
		c0.2,0.4-0.1,0.7-0.3,0.7c-0.1,0-0.2,0-0.3,0c-0.2,0-0.5,0-0.6,0v2.8c0,0.4,0.1,0.6,0.2,0.7c0.1,0.1,0.4,0.1,0.5,0.2
		c0.2,0.5-0.3,0.6-1.3,0.6c-1,0-1.4-0.1-1.2-0.6c0.1,0,0.2-0.1,0.4-0.2c0.1-0.1,0.2-0.3,0.2-0.7v-2.8l-0.8,0
		c-0.2-0.4,0.1-0.6,0.4-0.6h0.4v-0.4c0-0.7,0.1-1.1,0.3-1.4c0.3-0.4,0.8-0.7,1.5-0.7c0.9,0,1.7,0.4,1.7,1.1c0,0.3-0.2,0.6-0.6,0.6
		c-0.3,0-0.6-0.3-0.6-0.6c0-0.1,0.1-0.3,0.1-0.4c-0.1-0.1-0.3-0.2-0.5-0.2c-0.6,0-0.8,0.5-0.8,1V30L52.5,30z M44.2,30.7
		c0,0.3,0.3,0.5,0.6,0.5c0.4,0,0.6-0.3,0.6-0.7c0-0.5-0.4-0.7-0.8-0.7c-0.4,0-0.9,0.3-1.1,0.8l0,0c-0.1-0.4-0.3-0.8-0.7-0.8
		c-0.1,0-0.2,0-0.3,0.1c-0.4,0.1-0.9,0.4-0.7,0.9c0.5-0.1,0.7,0.1,0.7,0.5v2.1c0,0.4-0.1,0.6-0.2,0.7c-0.1,0.1-0.3,0.1-0.4,0.2
		c-0.2,0.5,0.2,0.6,1.2,0.6c1,0,1.3-0.1,1.1-0.6c-0.1,0-0.3-0.1-0.5-0.2c-0.1-0.1-0.2-0.3-0.2-0.7v-1.3C43.5,31,43.9,30.7,44.2,30.7
		 M68.1,30.7c0,0.3,0.3,0.5,0.6,0.5c0.4,0,0.6-0.3,0.6-0.7c0-0.5-0.4-0.7-0.8-0.7c-0.4,0-0.9,0.3-1.1,0.8l0,0
		c-0.1-0.4-0.3-0.8-0.7-0.8c-0.1,0-0.2,0-0.3,0.1c-0.4,0.1-0.9,0.4-0.7,0.9c0.5-0.1,0.7,0.1,0.7,0.5v2.1c0,0.4-0.1,0.6-0.2,0.7
		c-0.1,0.1-0.3,0.1-0.4,0.2c-0.2,0.5,0.2,0.6,1.2,0.6c1,0,1.3-0.1,1.1-0.6c-0.1,0-0.3-0.1-0.5-0.2c-0.1-0.1-0.2-0.3-0.2-0.7v-1.3
		C67.4,31,67.8,30.7,68.1,30.7"/>
	<path id="path11-4" class="st0" d="M25.7,31.4c0,2.3,1.6,3.6,3.3,3.6c1.5,0,2.6-1.1,2.6-2c0-0.5-0.3-0.8-0.7-0.8
		c-0.4,0-0.7,0.3-0.7,0.7c0,0.3,0.2,0.5,0.3,0.6c-0.2,0.4-0.6,0.7-1.3,0.7c-1.1,0-1.9-1.2-1.9-2.9c0-1.7,0.8-2.9,1.9-2.9
		c0.7,0,1.1,0.3,1.3,0.7c-0.1,0.1-0.3,0.3-0.3,0.6c0,0.5,0.3,0.7,0.7,0.7c0.4,0,0.7-0.3,0.7-0.8c0-0.9-1.1-2-2.6-2
		C27.2,27.8,25.7,29.2,25.7,31.4"/>
	<path id="path15-9" class="st0" d="M40.4,0.8L30.9,10c-0.5,0.4-0.8,0.9-0.8,1.6c0,0.7,0.3,1.2,0.8,1.6l9.5,9.2
		c0.1,0.1,0.1,0.1,0.2,0.1c0.1,0,0.2-0.1,0.1-0.2c0-0.1,0-0.1-0.1-0.2c-2.2-2.8-3.9-6-3.9-10.5c0-4.5,1.6-7.8,3.9-10.5
		c0.1-0.1,0.1-0.1,0.1-0.2c0-0.1-0.1-0.2-0.1-0.2C40.5,0.7,40.5,0.7,40.4,0.8"/>
	<path id="path17-4" class="st0" d="M47.7,0c-3.7,0-5.2,5.3-5.2,11.6c0,6.3,1.5,11.5,5.2,11.5c2.2,0,4.1-1.3,4.2-2.4
		c0-0.2-0.1-0.5-0.3-0.7c-1.1-1-1.5-2.1-1.5-3c0-1.7,1.5-3,2.9-3c1.9,0,3,1.5,3,3.4c0,1.8-0.8,3.4-1.6,4.6c0,0,0,0.1,0,0.2
		c0,0.1,0.1,0.2,0.1,0.2c0.1,0,0.1,0,0.2-0.1l9.5-9.2c0.5-0.4,0.8-0.9,0.8-1.6c0-0.7-0.3-1.2-0.8-1.6l-9.5-9.2
		c-0.1-0.1-0.1-0.1-0.2-0.1c-0.1,0-0.1,0.1-0.1,0.2c0,0,0,0.1,0,0.2C55.2,2.2,56,3.8,56,5.6C56,7.5,54.9,9,53,9
		c-1.4,0-2.9-1.3-2.9-3c0-0.9,0.4-1.9,1.5-3c0.2-0.2,0.3-0.4,0.3-0.7C51.9,1.3,50,0,47.7,0"/>
</g>
</svg>
