<?xml version="1.0" encoding="utf-8"?>
<!-- Generator: Adobe Illustrator 26.0.1, SVG Export Plug-In . SVG Version: 6.00 Build 0)  -->
<svg version="1.1" id="Layer_1" xmlns="http://www.w3.org/2000/svg" xmlns:xlink="http://www.w3.org/1999/xlink" x="0px" y="0px"
	 viewBox="0 0 95 35" style="enable-background:new 0 0 95 35;" xml:space="preserve">
<style type="text/css">
	.st0{fill:#343741;}
</style>
<g>
	<path class="st0" d="M84.9,18c2.1,0,3.9,0.9,3.9,3.7c0,2.3-2.3,3.7-3.6,3.7c-2.4,0-3.9-1.8-3.9-3.7C81.3,19.5,82.8,18,84.9,18
		L84.9,18z M84.8,18.4c-1.2,0-2.1,1.5-1.9,3.3c0.2,1.8,1.3,3.3,2.6,3.3c1.3,0,2.2-1.5,2-3.3C87.2,19.8,86,18.4,84.8,18.4L84.8,18.4z
		 M21.9,25.2V25c0.7,0,1.4-0.1,1.4-0.6v-5c0-0.1,0-0.3-0.2-0.3l-1.2,0.3v-0.1l2.8-1.1h0.1v2c0.7-0.8,1.6-1.9,2.1-1.9
		c0.5,0,0.8,0.4,0.8,0.7c0,0.4-0.3,0.8-0.7,0.8c-0.3,0-0.5-0.2-0.7-0.4c-0.2-0.2-0.5,0-0.8,0.2c-0.4,0.5-0.7,0.8-0.7,1.4v3.4
		c0,0.6,0.5,0.6,1.6,0.6v0.2H21.9L21.9,25.2z M89.2,25.2V25c0.8,0,1.4-0.1,1.4-0.6v-5c0-0.1,0-0.3-0.3-0.3l-1.2,0.3v-0.1l2.8-1.1H92
		v2c0.7-0.8,1.6-1.9,2.1-1.9s0.8,0.4,0.8,0.7c0,0.4-0.3,0.9-0.8,0.8c-0.3,0-0.5-0.2-0.7-0.4c-0.1-0.2-0.5,0-0.8,0.2
		C92.4,20.1,92,20.4,92,21v3.4c0,0.6,0.5,0.6,1.6,0.6v0.2H89.2L89.2,25.2z M1.6,23.1C0.2,21.2,0,19.3,0,17c0.2-2.8,1.5-5.4,4.2-6.7
		c1-0.5,2.5-0.8,3.9-0.8c0.7,0,1.4,0.1,2,0.3c0.3,0.1,0.7,0.3,1.1,0.3c0.1,0,0.3,0,0.3-0.1c0.1-0.1,0.2-0.4,0.2-0.5h0.3l1.2,5.1
		l-0.1,0c-0.6-1.6-1.1-2.9-2.6-4C10,10.1,9.4,9.9,8.6,9.8c-1.9-0.2-4,1.2-4.9,2.7C3,13.8,2.6,15.4,2.6,17c0,3.3,1.5,7.6,5.5,7.8
		c1.7,0,4.1-1,5.5-2.8c0,0,0.1,0.1,0.1,0.1c-0.4,1-2.1,2.4-2.6,2.7c-1.2,0.8-2.4,1.1-4.3,1.1C4.7,25.7,2.9,24.8,1.6,23.1L1.6,23.1z
		 M33.9,25.3c-0.4,0-1.4-0.3-1.8-0.5L32,22.5h0.2c0.1,0.7,0.3,1.1,0.5,1.7c0.2,0.5,1,0.8,1.6,0.8c0.8,0,1.5-0.4,1.5-1.5
		c0-0.7-0.7-1.1-1.4-1.5c-0.8-0.5-1.7-1-1.7-2.1c0-1.2,1-2,2-2c0.6,0,1,0,1.5,0.1c0.2,0,0.3,0.3,0.4,0h0.2l0.2,2.2h-0.2
		c-0.1-0.5-0.3-1-0.5-1.4c-0.2-0.4-0.4-0.7-0.9-0.7c-1.1-0.1-1.7,0.5-1.6,1.2c0.1,0.8,1,1.2,1.6,1.6c1.1,0.7,1.9,1.1,1.8,2.6
		C36.9,25.2,35.2,25.3,33.9,25.3L33.9,25.3z M39.7,25.3c-0.7,0-1.1-0.6-1.1-1.7v-4.1c0-0.3,0-1-0.4-1h-0.8v-0.1l1.2-0.3V17l1.4-1.1
		v2.3h2v0.4h-2v5c0,1.1,0,1.2,0.6,1.2c0.6,0,0.9-0.1,1.5-0.5v0.1C41.5,24.9,40.8,25.3,39.7,25.3L39.7,25.3z M12.8,25.2h4.4V25
		c-0.6,0-1.2,0.1-1.2-1.4V20c0.4-0.5,1.2-1.1,1.9-1.1c0.7,0,1.1,0.4,1.1,1s0,2.7,0,4.1c0,1.1-0.5,1.1-1.2,1.1v0.2h3.7V25
		c-0.8,0-1.2,0-1.2-1c0-1.5,0-2.7,0-4.3c0-1.1-0.9-1.6-1.9-1.6c-0.6,0-1.1,0.4-1.7,0.8c-0.2,0.2-0.4,0.4-0.6,0.5
		c-0.1,0.1-0.1,0-0.1-0.1V9.3h-0.1l-2.5,1c0,0,0,0.1,0,0.2l0.6-0.2c0.7-0.2,0.7,0.5,0.7,1v12.4c0,1.4-0.8,1.4-1.9,1.4V25.2
		L12.8,25.2z M50.4,24.3c-0.5,0.3-1.4,1-2.5,1c-0.9,0-1.6-0.5-1.6-1.5c0-0.4,0.1-0.8,0.5-1c1.2-0.8,2.4-1.3,3.6-1.8v-1.8
		c0-0.6-0.3-1-0.9-1c-0.6,0-1.1,0.4-1.1,1c0,0.2,0.1,0.4,0,0.6c-0.1,0.4-0.4,0.6-0.8,0.6c-0.3,0-0.6-0.3-0.6-0.7
		c0-1.2,1.5-1.8,2.4-1.8c0.4,0,0.9,0.1,1.3,0.3c0.7,0.4,1,0.8,1,1.7v4.4c0,0.9,0.9,0.9,1.3,0.2h0.1c-0.2,0.4-1,0.8-1.5,0.8
		C51,25.3,50.4,25.1,50.4,24.3L50.4,24.3z M48.1,23.5c0,0.8,0.5,1.1,1.1,1.1c0.4,0,0.8-0.3,1.1-0.7c0.1-0.2,0.1-0.5,0.1-0.8v-1.7
		C49,21.8,48,22.5,48.1,23.5L48.1,23.5z M27.4,25.2h4.1V25c-0.8,0-1.2-0.2-1.2-1.2v-5.7h-0.2L28,19c0,0.1,0,0.1,0,0.1
		c0.7,0,1-0.2,1,0.5v4.2c0,1-0.5,1.1-1.6,1.1V25.2L27.4,25.2z M41.8,25.2H46V25c-0.8,0-1.2-0.2-1.2-1.2v-5.7h-0.2L42.4,19
		c0,0.1,0,0.1,0,0.1c0.7,0,1-0.2,1,0.5v4.2c0,1-0.5,1.1-1.6,1.1V25.2L41.8,25.2z M76.5,25.2c0-0.1,0-0.2,0-0.2
		c1.2,0,1.6-0.1,1.6-1.1c0-1.4,0-2.9,0-4.2c0-0.7-0.3-0.5-1-0.5c0,0,0-0.1,0-0.1l2.1-0.8h0.2v5.7c0,1,0.4,1.2,1.2,1.2v0.2H76.5
		L76.5,25.2z M61.8,25.2h6.9c4.6,0,7.9-2,7.9-7.4c0-7.6-5.4-7.4-11-7.4h-4.8v0.4c1.8,0,2.9,0,2.9,1.1v11.5c0,1.4-0.8,1.4-1.9,1.4
		V25.2L61.8,25.2z M29.7,14.5c0.4,0,0.8,0.3,0.8,0.8c0,0.4-0.4,0.8-0.8,0.8c-0.4,0-0.8-0.4-0.8-0.8C28.9,14.8,29.3,14.5,29.7,14.5
		L29.7,14.5z M44.1,14.5c0.4,0,0.8,0.3,0.8,0.8c0,0.4-0.4,0.8-0.8,0.8c-0.4,0-0.8-0.4-0.8-0.8C43.3,14.8,43.7,14.5,44.1,14.5
		L44.1,14.5z M78.8,14.5c0.4,0,0.8,0.3,0.8,0.8c0,0.4-0.3,0.8-0.8,0.8S78,15.7,78,15.3C78,14.8,78.4,14.5,78.8,14.5L78.8,14.5z
		 M55.8,19.8c0.7-0.6,1.5-1.7,2.4-1.6c1.2,0,1.9,0.5,1.9,1.9v4.4c0,0.6,0.3,0.6,1.3,0.6v0.2h-3.7V25c0.6,0,1,0,1-0.7l0-4.4
		c0-0.8-0.4-1.1-0.8-1.1c-0.7,0.1-1.7,0.9-2.2,1.4v4.1c0,0.6,0.3,0.6,1.3,0.6v0.2h-3.6V25c0.7,0,1,0,1-0.7v-4.9c0-0.1,0-0.4-0.3-0.3
		l-0.8,0.1v-0.2l2.3-1h0.1V19.8L55.8,19.8z M66,12.1c0-1.4,0.7-1.4,1.3-1.4c5.1,0,6.8,1.1,6.8,7.1c0,5.8-1.8,7-6.8,7
		c-0.6,0-1.3,0-1.3-1.3V12.1z"/>
</g>
</svg>
