<?xml version="1.0" encoding="utf-8"?>
<!-- Generator: Adobe Illustrator 26.0.1, SVG Export Plug-In . SVG Version: 6.00 Build 0)  -->
<svg version="1.1" id="Layer_1" xmlns="http://www.w3.org/2000/svg" xmlns:xlink="http://www.w3.org/1999/xlink" x="0px" y="0px"
	 viewBox="0 0 95 35" style="enable-background:new 0 0 95 35;" xml:space="preserve">
<style type="text/css">
	.st0{fill:#343741;}
	.st1{fill-rule:evenodd;clip-rule:evenodd;fill:#343741;}
</style>
<g id="g1203" transform="matrix(0.35277777,0,0,-0.35277777,181.85281,221.4392)">
	<path id="path1205" class="st0" d="M-366.1,529.6c0.9,0,1.5,0.5,1.9,1.1l1-0.5c-0.7-1.1-1.7-1.7-3-1.7c-2,0-3.2,1.5-3.2,3.5
		c0,2,1.2,3.5,3.2,3.5c1.8,0,3.2-1.6,3.2-3.5c0-0.1,0-0.3,0-0.4h-5.3C-368.1,530.3-367.2,529.6-366.1,529.6 M-368.2,532.6h4.1
		c-0.2,1.2-1.1,1.9-2,1.9C-367,534.5-368,534-368.2,532.6"/>
</g>
<g id="g1207" transform="matrix(0.35277777,0,0,-0.35277777,163.73944,220.07148)">
	<path id="path1209" class="st1" d="M-392.2,531.5h-1.1v-1h0c-0.6,0.7-1.4,1.1-2.3,1.1c-2,0-3.2-1.6-3.2-3.6c0-1.9,1.2-3.5,3.2-3.5
		c0.9,0,1.7,0.4,2.3,1.1h0v-0.9h1.1V531.5z M-395.6,530.7c1.4,0,2.3-1.1,2.3-2.4c0-1.4-0.8-2.5-2.2-2.5c-1.4,0-2.2,1.2-2.2,2.6
		C-397.7,529.5-396.9,530.7-395.6,530.7"/>
</g>
<g id="g1211" transform="matrix(0.35277777,0,0,-0.35277777,165.88256,220.3209)">
	<path id="path1213" class="st1" d="M-389.1,531.2c-0.3,0.7-1,1.2-1.8,1.2c-1.1,0-2-0.8-2-1.9c0-2.1,3-1.6,3-3.1c0-0.6-0.5-1-1.1-1
		c-0.8,0-1.1,0.4-1.4,1.1l-1-0.4c0.4-1.1,1.2-1.7,2.4-1.7c1.2,0,2.3,0.9,2.3,2.2c0,1.1-0.8,1.6-1.6,1.9c-0.8,0.3-1.6,0.6-1.6,1.2
		c0,0.4,0.4,0.7,0.8,0.7c0.4,0,0.8-0.3,0.9-0.7"/>
</g>
<g id="g1215" transform="matrix(0.35277777,0,0,-0.35277777,168.05214,220.3209)">
	<path id="path1217" class="st1" d="M-386,531.2c-0.3,0.7-1,1.2-1.8,1.2c-1.1,0-2-0.8-2-1.9c0-2.1,3-1.6,3-3.1c0-0.6-0.5-1-1.1-1
		c-0.8,0-1.1,0.4-1.4,1.1l-1-0.4c0.4-1.1,1.2-1.7,2.4-1.7c1.2,0,2.3,0.9,2.3,2.2c0,1.1-0.8,1.6-1.6,1.9c-0.8,0.3-1.6,0.6-1.6,1.2
		c0,0.4,0.4,0.7,0.8,0.7c0.4,0,0.8-0.3,0.9-0.7"/>
</g>
<g id="g1219" transform="matrix(0.35277777,0,0,-0.35277777,169.55462,220.07148)">
	<path id="path1221" class="st1" d="M-383.8,531.5h-1.1v-3.9c0-1.8,0.7-3,2.7-3s2.7,1.2,2.7,3v3.9h-1.1v-3.7c0-1.1-0.1-2.1-1.5-2.1
		c-1.4,0-1.5,1-1.5,2.1"/>
</g>
<g id="g1223" transform="matrix(0.35277777,0,0,-0.35277777,172.01666,220.07148)">
	<path id="path1225" class="st1" d="M-380.3,531.5h-1.1v-6.7h1.1v3.4c0,0.9,0.1,2.5,1.3,2.5c0.3,0,0.5-0.1,0.7-0.3l0.5,1
		c-0.3,0.2-0.6,0.3-1,0.3c-0.7,0-1.1-0.4-1.5-0.9h0"/>
</g>
<g id="g1227" transform="matrix(0.35277777,0,0,-0.35277777,174.98423,220.07148)">
	<path id="path1229" class="st1" d="M-376,531.5h-1.1v-1h0c-0.6,0.7-1.4,1.1-2.3,1.1c-2,0-3.2-1.6-3.2-3.6c0-1.9,1.2-3.5,3.2-3.5
		c0.9,0,1.7,0.4,2.3,1.1h0v-0.9h1.1V531.5z M-379.3,530.7c1.4,0,2.3-1.1,2.3-2.4c0-1.4-0.8-2.5-2.2-2.5c-1.4,0-2.2,1.2-2.2,2.6
		C-381.5,529.5-380.7,530.7-379.3,530.7"/>
</g>
<g id="g1231" transform="matrix(0.35277777,0,0,-0.35277777,176.5107,220.07148)">
	<path id="path1233" class="st1" d="M-373.8,531.5h-1.1v-6.7h1.1v3.2c0,1.2,0.1,2.7,1.7,2.7c1.3,0,1.4-1,1.4-2.1v-3.8h1.1v4
		c0,1.6-0.4,2.9-2.3,2.9c-0.8,0-1.4-0.4-1.9-1h0"/>
</g>
<g id="g1235" transform="matrix(0.35277777,0,0,-0.35277777,179.96298,220.18543)">
	<path id="path1237" class="st1" d="M-368.8,531.4c-0.6,0.4-1.3,0.7-2.1,0.7c-2,0-3.6-1.5-3.6-3.5c0-2,1.5-3.5,3.6-3.5
		c0.8,0,1.5,0.2,2.1,0.7v1.5h0c-0.6-0.7-1.2-1.2-2.2-1.2c-1.4,0-2.3,1.2-2.3,2.5c0,1.3,1,2.5,2.4,2.5c0.9,0,1.6-0.5,2.1-1.1h0"/>
</g>
<g id="g1239" transform="matrix(0.35277777,0,0,-0.35277777,184.60695,220.31913)">
	<path id="path1241" class="st1" d="M-362.1,531.2c-0.3,0.7-1,1.2-1.8,1.2c-1.1,0-2-0.8-2-1.9c0-2.1,3-1.6,3-3.1c0-0.6-0.5-1-1.1-1
		c-0.8,0-1.1,0.4-1.4,1.1l-1-0.4c0.4-1.1,1.2-1.7,2.4-1.7c1.2,0,2.3,0.9,2.3,2.2c0,1.1-0.8,1.6-1.6,1.9c-0.8,0.3-1.6,0.6-1.6,1.2
		c0,0.4,0.4,0.7,0.8,0.7c0.4,0,0.8-0.3,0.9-0.7"/>
</g>
<path id="path1257" class="st0" d="M53.2,30.2h3.7V15.1h-3.7V30.2z"/>
<g>
	<path class="st1" d="M48.8,21.7c0-0.7-0.5-1.2-1.2-1.2h-2.1v2.4h2.1C48.2,22.9,48.8,22.4,48.8,21.7z"/>
	<path class="st1" d="M38,14c3.6-4.6,9-7.7,15.1-8.2V0H23v30.2h30.2V9.5c-3.9,0.4-7.4,2-10.1,4.5H38z M29.7,25
		c0.7,0,1.4-0.4,1.8-0.9l1.4,1c-0.7,0.9-1.9,1.6-3.2,1.6c-2.2,0-4-1.8-4-4c0-2.2,1.8-4,4-4c1.3,0,2.4,0.6,3.2,1.6l-1.4,1
		c-0.4-0.5-1.1-0.9-1.8-0.9c-1.3,0-2.3,1-2.3,2.3C27.4,23.9,28.4,25,29.7,25z M41.2,26.4h-1.5l-3.6-4.6v4.6h-1.7v-7.6h1.5l3.6,4.6
		v-4.6h1.7V26.4z M43.7,18.9h3.9c1.6,0,2.9,1.3,2.9,2.9c0,1.6-1.3,2.9-2.9,2.9h-2.2v1.8h-1.7V18.9z"/>
	<path class="st1" d="M55,5.7c-0.6,0-1.2,0-1.8,0.1v3.7c0.6-0.1,1.2-0.1,1.8-0.1c4.6,0,8.8,1.8,12,4.6h5C68.1,8.9,61.9,5.7,55,5.7z"
		/>
</g>
</svg>
