<?xml version="1.0" encoding="utf-8"?>
<!-- Generator: Adobe Illustrator 26.0.1, SVG Export Plug-In . SVG Version: 6.00 Build 0)  -->
<svg version="1.1" id="Layer_1" xmlns="http://www.w3.org/2000/svg" xmlns:xlink="http://www.w3.org/1999/xlink" x="0px" y="0px"
	 viewBox="0 0 95 35" style="enable-background:new 0 0 95 35;" xml:space="preserve">
<style type="text/css">
	.st0{fill:#CCCCCC;}
</style>
<g>
	<g>
		<path class="st0" d="M23.9,10.1c-4.5,0-7.6,3.7-7.6,7.4c0,3.7,2.8,7,6.7,7.4v-0.6c-1.6-0.6-1.7-2.7-1.7-5.2v-3.4
			c0-2.9,0.2-5.3,2.6-5.3c2.5,0,2.6,2.4,2.6,5.3c0,0.5,0,9,0,9c4.2-1.5,5-4.7,5-7.3C31.5,13.4,28.2,10.1,23.9,10.1"/>
		<path class="st0" d="M7.9,24.4c-2,0-3.2-1-3.2-5.3l0-8.6C2,11.7,0,14.2,0,17.6c0,4,3.4,7.4,7.6,7.4c3.3,0,5.7-2,6-5h-0.6
			C12.8,22.3,10.7,24.4,7.9,24.4"/>
		<path class="st0" d="M10.1,15.7c1.7,0.3,3.1-1,3-2.7c-0.1-1.3-1.1-2.4-2.5-2.5c-1.6-0.1-2.9,1.3-2.7,3C8.1,14.6,9,15.5,10.1,15.7"
			/>
		<path class="st0" d="M90,10.2c0,0,0,8.5,0,9c0,2.9-0.1,5.3-2.6,5.3c-2.4,0-2.6-2.4-2.6-5.3v-3.4c0-2.5,0.1-4.6,1.7-5.2v-0.6
			c-3.9,0.5-6.7,3.8-6.7,7.4c0,3.8,3,7.4,7.6,7.4c4.2,0,7.6-3.4,7.6-7.4C95,14.9,94.2,11.7,90,10.2"/>
	</g>
	<polygon class="st0" points="72,24.2 76.3,24.2 76.3,10.8 72,11.5 	"/>
	<polygon class="st0" points="48.8,24.2 53.2,24.2 53.2,10.8 48.8,11.5 	"/>
	<g>
		<path class="st0" d="M38.2,10.8l3.5,8.1l3.6-8.2H46l-5.8,13.4h-1c0,0-3.8-8.9-5.7-13.3L38.2,10.8L38.2,10.8z"/>
		<path class="st0" d="M61.4,10.8l3.5,8.1l3.6-8.2h0.7l-5.8,13.4h-1c0,0-3.8-8.9-5.7-13.3L61.4,10.8L61.4,10.8z"/>
	</g>
</g>
</svg>
