<?xml version="1.0" encoding="utf-8"?>
<!-- Generator: Adobe Illustrator 26.0.1, SVG Export Plug-In . SVG Version: 6.00 Build 0)  -->
<svg version="1.1" id="Layer_1" xmlns="http://www.w3.org/2000/svg" xmlns:xlink="http://www.w3.org/1999/xlink" x="0px" y="0px"
	 viewBox="0 0 95 35" style="enable-background:new 0 0 95 35;" xml:space="preserve">
<style type="text/css">
	.st0{fill:#CCCCCC;}
</style>
<g>
	<path class="st0" d="M52.9,21C52.9,21,52.9,20.9,52.9,21c-0.4,0.8-2.6,3.5-2.6,3.5h3.5c0,0-0.7-2.1-0.8-2.6
		C52.9,21.6,52.9,21.3,52.9,21z"/>
	<path class="st0" d="M51.7,17.3h-2L63,0H30v30.5c0,0,0,0,0.1-0.1c0,0,2.2-2.8,4.3-5.5c1.8-2.3,3.5-4.6,3.7-4.9
		c0.4-0.5,0.9-1.7,0.9-1.7h2.7c0,0,0.1,1,0.2,1.3c0.1,0.2,1.7,5.6,1.7,5.7l0.9-1.2l-1.5-4.8c0,0-0.4-0.9-0.5-1h3.1
		c0,0.3,0,0.6,0.1,0.9c0.1,0.4,0.8,2.8,0.8,2.8s2.1-2.7,2.3-2.9c0.2-0.2,0.2-0.5,0.3-0.8h2.6c0,0-0.5,0.4-1.3,1.4
		c-0.3,0.4-3,3.9-3,3.9s0.2,0.8,0.4,1.2c0,0.1,0.1,0.2,0.1,0.2c0,0,0.1-0.1,0.2-0.2c0.7-0.9,4-5.2,4.2-5.5c0.2-0.3,0.4-0.6,0.5-1H55
		c0,0,0.1,0.8,0.1,1l1.6,5.5c0.6,1.7,1.9,6.1,2.4,6.5h-3.3c0-0.4-0.1-0.8-0.2-1.2c-0.1-0.5-1.3-4.3-1.3-4.3h-5.2l-0.8,1.2
		c0,0,1,3.1,1.1,3.3c0.1,0.3,0.6,1.1,0.6,1.1h-3.2c0,0-0.1-0.5-0.1-0.7c0-0.2-0.3-1-0.3-1s-0.7,0.8-0.9,1.1
		c-0.2,0.4-0.3,0.6-0.3,0.6h-2.5c0,0-0.1-0.5-0.1-0.7c0-0.2-0.3-1.1-0.3-1.1s-0.7,0.8-0.9,1.2c-0.2,0.4-0.3,0.6-0.3,0.6h-2.4
		c0,0,0.7-0.7,0.9-0.9c0.4-0.5,1.9-2.5,1.9-2.5L40.8,26h-5.2c0,0-3,3.9-3.1,4c-0.1,0.1-1,1.4-1,1.5H30V35h35V0h0L51.7,17.3z"/>
	<path class="st0" d="M39.5,21C39.5,21,39.5,20.9,39.5,21c-0.4,0.8-2.6,3.5-2.6,3.5h3.5c0,0-0.7-2.1-0.8-2.6
		C39.5,21.6,39.5,21.3,39.5,21z"/>
	<path class="st0" d="M45,26.1l-0.9,1.2l0.6,1.9l1-1.3C45.6,27.7,45,26.1,45,26.1z"/>
</g>
</svg>
