<?xml version="1.0" encoding="utf-8"?>
<!-- Generator: Adobe Illustrator 26.0.1, SVG Export Plug-In . SVG Version: 6.00 Build 0)  -->
<svg version="1.1" id="Layer_1" xmlns="http://www.w3.org/2000/svg" xmlns:xlink="http://www.w3.org/1999/xlink" x="0px" y="0px"
	 viewBox="0 0 95 35" style="enable-background:new 0 0 95 35;" xml:space="preserve">
<style type="text/css">
	.st0{fill:#343741;}
</style>
<g>
	<path class="st0" d="M2.3,13.6L0,15.8l7.8,7l7.8-7l-2.3-2.1c0,0-4.8,4.6-5.5,5.2C7.1,18.2,2.3,13.6,2.3,13.6z M49.3,13.6
		c-4.4,0-7.2,0.7-7.2,0.7V22c0,0,2.8,0.7,7.2,0.7c4.4,0,7.2-0.7,7.2-0.7v-2.6c0,0-3,0.6-7.2,0.6c-2,0-3.4-0.2-4.1-0.3
		c0-0.6,0-2.4,0-3c0.8-0.1,2.2-0.3,4.1-0.3c4.1,0,7.2,0.6,7.2,0.6v-2.6C56.5,14.3,53.7,13.6,49.3,13.6z M17.7,13.8v8.8h3.2v-8.8
		H17.7z M35.6,13.8v5.5c0,0-2.3-1.7-5.6-3.4c-2.9-1.5-5.5-2-5.5-2v8.8h3.1v-4.7c0.7,0.3,1.5,0.6,2.5,1.1c3.3,1.7,5.6,3.6,5.6,3.6
		h3.1v-8.8H35.6z M59.9,13.8v8.8H63v-8.8H59.9z"/>
	<path class="st0" d="M79.9,5.2c-0.7,0-1.2,0.6-1.2,1.2c0,0,0,3.6,0,3.6c0,1.1-0.9,2.1-1.2,2.5c-0.4,0.4-1.4,1.2-3,1.2h-4.4V21h7.2
		v-4.4c0-1.6,0.8-2.6,1.2-3c0.4-0.4,1.4-1.2,2.5-1.2c0,0,3.6,0,3.6,0c0.7,0,1.2-0.5,1.2-1.2V6.5c0-0.7-0.6-1.2-1.2-1.2H79.9z
		 M90.8,13.5c-2.4,0-4.3,1.9-4.3,4.2c0,0.4,0.2,1.2,0.2,1.6c0,1.8-1.5,3.3-3.3,3.3h-3.5c-0.7,0-1.2,0.5-1.2,1.2v4.8
		c0,0.7,0.5,1.2,1.2,1.2h4.7c0.7,0,1.2-0.5,1.2-1.2c0-1.8,0-3.5,0-3.5c0-1.8,1.5-3.3,3.3-3.3c0.3,0,1.1,0.2,1.6,0.2
		c2.3,0,4.2-1.9,4.2-4.3c0-1.2-0.5-2.2-1.2-3C93.1,13.9,92,13.5,90.8,13.5z"/>
</g>
</svg>
