<?xml version="1.0" encoding="utf-8"?>
<!-- Generator: Adobe Illustrator 26.0.1, SVG Export Plug-In . SVG Version: 6.00 Build 0)  -->
<svg version="1.1" id="Layer_1" xmlns="http://www.w3.org/2000/svg" xmlns:xlink="http://www.w3.org/1999/xlink" x="0px" y="0px"
	 viewBox="0 0 95 35" style="enable-background:new 0 0 95 35;" xml:space="preserve">
<style type="text/css">
	.st0{fill-rule:evenodd;clip-rule:evenodd;fill:#FFFFFF;}
</style>
<g id="layer1" transform="translate(5.8323833,-343.10809)">
	<g id="g9179" transform="translate(0.13229161,-0.13229159)">
		<path id="Fill-1" class="st0" d="M7.4,346.4c2.5-0.1,5.4,0.4,5.9,2.2c0.9,2.9-3.6,7-7.6,9.1c-1,0.5-1.6,0.6-1.8,0.6
			c-0.2,0-0.3-0.3-0.2-0.4c0.1-0.3,0.8-0.9,1.6-1.6c4.4-3.5,5.9-6,5-7c-0.5-0.7-2.8-1.1-5.1-1.1c-0.6,0-2.3,0.1-2.5-0.4
			C2.8,347.1,5,346.5,7.4,346.4"/>
		<path id="Fill-3" class="st0" d="M2.2,359.5c2.1-0.1,4.7,0.2,6.1,1.4c0.7,0.5,1.2,1.6,0.9,2.7c-0.8,3.3-4,7.3-10.9,10.3
			c-2.2,1-3.9,1.3-4.3,1.1c-0.4-0.3,0.7-2.5,1.1-3.2c1.1-2.3,2.5-4.6,3.8-6.7c0.5-0.8,1.3-2.1,2-2c0.6,0.1-0.1,1.5-0.6,2.4
			c-0.8,1.5-3,5.7-2.3,5.9c1.6,0.6,9.2-5.2,8.1-8.4c-0.5-1.5-3.8-1.6-5.9-1.6c-0.9,0-3,0.2-3.1-0.5C-2.9,360.3,0.3,359.6,2.2,359.5"
			/>
		<path id="Fill-5" class="st0" d="M18.6,356c1.3,0.2,2.3,0.4,2.5,0.9c0.3,0.6-1.1,0.6-1.8,0.7c-3.3,0.1-5.4,0.1-5.5,1.3
			c-0.1,1.5,1.4,2.9,3,5c1.4,1.9,3,3.7,2.6,5.5c-0.6,2.2-3.2,2.6-5.8,2.6c-2.4,0-4.7-0.4-5.7-0.6c-1.2-0.2-1-0.8-0.7-1
			c0.4-0.2,2.4-0.2,3.8-0.3c1.2-0.1,4.6-0.1,5.1-0.9c0.6-1.1-0.9-2.9-2.4-4.8c-1.8-2.4-3.8-4.8-2.8-6.6
			C12.4,355.4,16.4,355.6,18.6,356"/>
		<path id="Fill-6" class="st0" d="M70.8,362.5c2.7,0,3.7-0.9,4.2-3l0.6-3.3c0-0.2-0.1-0.3-0.3-0.3H74l-0.4,1.9l-0.2,1l-0.2,0.9
			c-0.2,1.2-1,1.7-2.3,1.7c-1.4,0-1.8-0.5-1.6-1.7c0,0,0.1-0.3,0.1-0.4l0.3-1.5l0.4-1.9h-1.3c-0.2,0-0.3,0.1-0.4,0.3l-0.6,3.3
			C67.3,361.8,68.5,362.5,70.8,362.5L70.8,362.5z M25.1,366.1c-0.2,0.9,0.5,1.4,2,2.3c1.6,1,2,1.1,1.8,1.6c-0.1,0.4-0.5,0.4-1.3,0.4
			h-2.8c-0.3,0-0.5,0.1-0.6,0.4l-0.1,0.6h3.6c1.6,0,2.7-0.1,3-1.1c0.2-0.5,0.2-1-0.3-1.5c-0.2-0.3-0.6-0.5-1-0.7
			c-2-1.2-2.6-1.3-2.4-1.8c0.1-0.3,0.3-0.3,1.1-0.3h2.4c0.3,0,0.5-0.1,0.6-0.4l0.1-0.6h-3C26.4,364.8,25.4,364.8,25.1,366.1
			L25.1,366.1z M40.9,366.1c-0.2,0.9,0.5,1.4,2,2.3c1.6,1,2,1.1,1.8,1.6c-0.1,0.4-0.5,0.4-1.3,0.4h-2.8c-0.3,0-0.5,0.1-0.6,0.4
			l-0.1,0.6h3.6c1.6,0,2.7-0.1,3-1.1c0.2-0.5,0.2-1-0.3-1.5c-0.2-0.3-0.6-0.5-1-0.7c-2-1.2-2.6-1.3-2.4-1.8c0.1-0.3,0.3-0.3,1.1-0.3
			h2.4c0.3,0,0.5-0.1,0.6-0.4l0.1-0.6h-3C42.1,364.8,41.1,364.8,40.9,366.1L40.9,366.1z M80.8,366.1c-0.2,0.9,0.5,1.4,2,2.3
			c1.6,1,2,1.1,1.8,1.6c-0.1,0.4-0.5,0.4-1.2,0.4h-2.8c-0.3,0-0.5,0.1-0.6,0.4l-0.1,0.6h3.6c1.6,0,2.7-0.1,3-1.1
			c0.2-0.5,0.2-1-0.3-1.5c-0.2-0.3-0.6-0.5-1-0.7c-2-1.2-2.6-1.3-2.4-1.8c0.1-0.3,0.3-0.3,1.1-0.3h2.4c0.3,0,0.5-0.1,0.6-0.4
			l0.1-0.6h-3C82.1,364.8,81,364.8,80.8,366.1L80.8,366.1z M57.2,361.2c0.2-0.5,0.2-1-0.3-1.5c-0.2-0.3-0.6-0.5-1-0.7
			c-2-1.2-2.6-1.3-2.4-1.8c0.1-0.3,0.3-0.3,1.1-0.3h2.4c0.3,0,0.5-0.1,0.6-0.4l0.1-0.6h-3c-1.7,0-2.7,0-3,1.2
			c-0.2,0.9,0.5,1.4,2,2.3c1.6,1,2,1.1,1.8,1.6c-0.1,0.4-0.5,0.4-1.2,0.4h-2.8c-0.3,0-0.5,0.1-0.6,0.4l-0.1,0.6h3.6
			C55.8,362.3,56.8,362.2,57.2,361.2L57.2,361.2z M49.6,361.2c0.2-0.5,0.2-1-0.3-1.5c-0.2-0.3-0.6-0.5-1-0.7c-2-1.2-2.6-1.3-2.4-1.8
			c0.1-0.3,0.3-0.3,1.1-0.3h2.4c0.3,0,0.5-0.1,0.6-0.4l0.1-0.6h-3c-1.7,0-2.7,0-3,1.2c-0.2,0.9,0.5,1.4,2,2.3c1.6,1,2,1.1,1.8,1.6
			c-0.1,0.4-0.5,0.4-1.3,0.4h-2.8c-0.3,0-0.5,0.1-0.6,0.4l-0.1,0.6h3.6C48.2,362.3,49.2,362.2,49.6,361.2L49.6,361.2z M82.8,355.8
			c-0.3,0-0.5,0.1-0.6,0.4l-0.1,0.7h2.6l-1.1,5.5h1.1c0.3,0,0.5-0.1,0.6-0.5l1-5h2.1c0.3,0,0.4-0.1,0.5-0.4l0.1-0.6L82.8,355.8z
			 M27,357.6c-0.2,0-0.3,0.1-0.3,0.2l-0.9,4.5h3.9c2.2,0,3.7-0.8,4.1-3.3c0.3-1.9-0.5-3.2-2.7-3.2h-4.7c0,0,0,0,0,0.1
			c-0.1,0.4,0,0.9,0.7,0.9h3.4c1.6,0,1.9,0.8,1.5,2.2c-0.3,1.4-0.9,2.1-2.1,2.2h-2.3l0.7-3.7L27,357.6z M81.9,361.7
			c0.1-0.3,0-0.4-0.3-0.4h-3.5l1-5.3c0-0.1-0.1-0.2-0.2-0.2h-1.4l-1.3,6.5h5.5L81.9,361.7z M71.5,364.9H70l-2.9,2.5l-1.9-2.5h-1.5
			c-0.2,0-0.4,0.2-0.4,0.4l-1.2,6.1h1.3c0.3,0,0.4-0.1,0.5-0.4l0.9-4.6l1.4,2c0,0.1,0.2,0.2,0.3,0.2h0.6c0.2,0,0.3-0.1,0.4-0.2
			l2.2-2L69,371c0,0.2,0,0.4,0.3,0.4h1.2l1.2-6.1C71.8,365,71.7,364.9,71.5,364.9z M55.9,365.3l-1.2,6.1h6l0.1-0.7
			c0.1-0.3,0-0.4-0.3-0.4h-4l0.3-1.7h3.5c0.1,0,0.2-0.1,0.2-0.2l0.1-0.7c0-0.1,0-0.2-0.1-0.2h-3.5l0.3-1.7h3.9c0.2,0,0.4,0,0.4-0.2
			l0.1-0.8h-5.4C56.1,364.9,56,365,55.9,365.3L55.9,365.3z M73.8,365.3l-1.2,6.1h6l0.1-0.7c0.1-0.3,0-0.4-0.3-0.4h-4l0.3-1.7h3.5
			c0.1,0,0.2-0.1,0.2-0.2l0.1-0.7c0-0.1,0-0.2-0.1-0.2h-3.5l0.3-1.7h3.9c0.2,0,0.4,0,0.4-0.2l0.1-0.8h-5.4
			C74,364.9,73.8,365,73.8,365.3L73.8,365.3z M37.7,365.1l-0.6,3c-1,0.3-3.6,0.9-3.2-1.2l0.4-2H33c-0.2,0-0.3,0.1-0.3,0.2l-0.3,1.8
			c-0.7,3.4,2.6,2.9,4.6,2.3l-0.4,2.2h1.1c0.3,0,0.5-0.1,0.6-0.5l1.2-6H38C37.9,364.9,37.7,365,37.7,365.1L37.7,365.1z M54.9,365.5
			l0.1-0.6h-6.2c-0.3,0-0.5,0.1-0.6,0.4l-0.1,0.7h2.6l-1.1,5.5h1.1c0.3,0,0.5-0.1,0.6-0.5l1-5h2.1C54.7,365.9,54.8,365.7,54.9,365.5
			z M37,358.6c0.2-1.3,1-1.7,2.3-1.7c1.4,0,1.8,0.5,1.5,1.7c0,0-0.1,0.3-0.1,0.4c0,0.1-0.1,0.5-0.5,0.5h-3.5L37,358.6L37,358.6z
			 M35,362.3h1.2l0.4-1.9h3.8l-0.4,1.9h1.2c0.2,0,0.3-0.1,0.4-0.3l0.6-3.3c0.5-2.5-0.9-3-2.8-3c-2.3,0-3.6,0.6-4.1,3l-0.6,3.3
			C34.7,362.3,34.9,362.3,35,362.3z M60.9,358.6c0.2-1.3,1-1.7,2.3-1.7c1.4,0,1.8,0.5,1.5,1.7c0,0-0.1,0.3-0.1,0.4
			c0,0.1-0.1,0.5-0.4,0.5h-3.5L60.9,358.6L60.9,358.6z M58.9,362.3h1.2l0.4-1.9h3.8l-0.4,1.9h1.2c0.2,0,0.3-0.1,0.4-0.3l0.6-3.3
			c0.5-2.5-0.9-3-2.8-3c-2.3,0-3.6,0.6-4.1,3l-0.6,3.3C58.6,362.3,58.7,362.3,58.9,362.3L58.9,362.3z"/>
	</g>
</g>
</svg>
