<?xml version="1.0" encoding="utf-8"?>
<!-- Generator: Adobe Illustrator 26.0.1, SVG Export Plug-In . SVG Version: 6.00 Build 0)  -->
<svg version="1.1" id="Layer_1" xmlns="http://www.w3.org/2000/svg" xmlns:xlink="http://www.w3.org/1999/xlink" x="0px" y="0px"
	 viewBox="0 0 95 35" style="enable-background:new 0 0 95 35;" xml:space="preserve">
<style type="text/css">
	.st0{fill:#CCCCCC;}
</style>
<g>
	<path class="st0" d="M40.6,15.2c-1,0-1.7,0.7-1.9,1.5h3.6C42.2,15.8,41.5,15.2,40.6,15.2z"/>
	<path class="st0" d="M30.9,15.6c-1.3,0-2.1,0.9-2.1,2.1c0,1.2,0.8,2.2,2.1,2.2s2.1-0.9,2.1-2.2C33.1,16.4,32.2,15.6,30.9,15.6z"/>
	<path class="st0" d="M57,13.5c-1.9,0-3.5,0.8-3.7,2.8c0,0,0,0,0,0C52.7,7.2,45.5,0,36.2,0C28.9,0,22.6,4.5,20,10.9h6.2L25.9,13H21
		v2.2h4.4l-0.3,2H21v1.3c0,0.8,0.3,1.2,1,1.2h4.2l-0.3,2.1h-4.6c-0.2,0-0.4,0-0.6-0.1v0c0,0-0.8-0.1-1.3-0.7c0,0-0.2-0.3-0.3-0.6
		c0-0.1,0-0.1,0-0.2c0,0.3,0.1,0.6,0.1,0.7c0.1,0.7,0.3,1.3,0.3,1.4C21.5,29.6,28.2,35,36.2,35c8.2,0,15.1-5.6,17-13.3h-2.4v-4.3
		c0-1.2-0.4-1.9-1.6-1.9s-1.6,0.7-1.6,1.9v4.3h-2.4v-4.9c0-2.3,1.7-3.4,3.9-3.4s3.9,1,3.9,3.4l0,4.9h2.4v-4.3c0-1.2,0.3-1.9,1.4-1.9
		c0.4,0,0.8,0.1,0.9,0.2l0.4-2.1C58.2,13.7,57.5,13.5,57,13.5z M35.4,17.2c0,2.9-1.7,4.7-4.6,4.7c-2.7,0-4.5-1.8-4.5-4.2
		c0-2.5,1.7-4.2,4.3-4.2c1.2,0,2,0.5,2.5,0.9v-3.6h2.4L35.4,17.2L35.4,17.2z M41.4,20.1c0.7,0,1.3-0.2,1.9-0.5l-0.2,1.9
		c-0.7,0.3-1.5,0.4-2.3,0.4c-2.7,0-4.6-1.6-4.6-4.3c0-2.3,1.7-4.1,4.3-4.1c3,0,4.4,1.9,4.4,4.8h-6.1C39,19.6,40.3,20.1,41.4,20.1z"
		/>
	<path class="st0" d="M62.3,13.5c-2.6,0-4.3,1.8-4.3,4.1c0,2.7,1.9,4.3,4.6,4.3c0.8,0,1.6-0.1,2.3-0.4l0.2-1.9
		c-0.6,0.3-1.2,0.5-1.9,0.5c-1.1,0-2.4-0.5-2.6-1.8h6.1C66.8,15.4,65.3,13.5,62.3,13.5z M60.6,16.7c0.2-0.9,0.8-1.5,1.9-1.5
		c1,0,1.6,0.6,1.8,1.5H60.6z"/>
	<path class="st0" d="M73.7,10.9v3.6c-0.4-0.5-1.3-0.9-2.5-0.9c-2.6,0-4.3,1.7-4.3,4.2c0,2.4,1.8,4.2,4.5,4.2c2.9,0,4.6-1.7,4.6-4.7
		v-6.4H73.7z M71.5,19.9c-1.3,0-2.1-0.9-2.1-2.2c0-1.2,0.8-2.1,2.1-2.1c1.3,0,2.1,0.9,2.1,2.1C73.7,19,72.8,19.9,71.5,19.9z"/>
</g>
</svg>
