<?xml version="1.0" encoding="utf-8"?>
<!-- Generator: Adobe Illustrator 26.0.1, SVG Export Plug-In . SVG Version: 6.00 Build 0)  -->
<svg version="1.1" id="Layer_1" xmlns="http://www.w3.org/2000/svg" xmlns:xlink="http://www.w3.org/1999/xlink" x="0px" y="0px"
	 viewBox="0 0 95 35" style="enable-background:new 0 0 95 35;" xml:space="preserve">
<style type="text/css">
	.st0{fill-rule:evenodd;clip-rule:evenodd;fill:#CCCCCC;}
	.st1{fill:#CCCCCC;}
</style>
<g id="g11" transform="matrix(1.25,0,0,-1.25,-309.64161,48.164875)">
	<path id="path233" class="st0" d="M265.2,19.4c-0.2-0.2-0.8-0.3-1-0.6c-0.3-0.4-0.9-1.4-1.3-1.8c-1.5-1.5-4.8-2.2-6.4-0.8
		c-0.1,0,0-0.1,0.1-0.5c0.1-0.7,0.7-2.5,0.5-3c0.1-0.5,0.3-0.3,0.6-0.6c0.2-0.2,0.3-0.7,0.5-0.8c0.2,0,0.5,0,0.7,0.1
		c0-0.1,0.1-0.3,0.1-0.4c0.3,0,0.6,0,0.9,0.1c0.2,0,0.7-0.3,0.9-0.4c0.4,0,0.7,0,1,0.1c0.8-0.2,1.5,0.1,2.2,0.6
		c0.4,0.3,0.8,0.2,1.1,0.5c0.5,0.4,1.1,1.2,1.5,1.8c0.8,1.4,0.5,4.7-0.2,5.5C266.1,19.5,265.8,19.5,265.2,19.4 M271.6,20.3
		c-0.6-0.4-0.8-0.3-1.1-1c0,0,0.1-0.1,0-0.1c0.3-0.7,1.1-1,1.7-1.4c0.2-0.2,0.7-1,0.9-1c0.3-0.3,0.4-1.2,0.6-1.2
		c0.2-0.2,0-0.8,0.2-1c0-1-0.1-1.1-0.3-1.3c0-0.1,0.1-0.3,0.1-0.3c0,0,0.5-0.3,0.6-0.3c0.5,0,2.8-1.8,3-2.1c1.6-0.1,1.5,0.4,2.6,0.8
		c0.3,0.1,0.5,0,0.7,0.2c0.2,0.2,0.2,0.6,0.4,0.8C281,16.4,275.6,20.2,271.6,20.3 M276,28.7c-2-0.3-3.2-0.9-4-1.5
		c-0.5-0.4-0.7-0.6-0.8-0.8c-0.1-0.2-0.2-0.5-0.1-0.9c0.1-0.4,0.2-0.7,0.5-1c2.5,0.2,6.7,0.3,7.5-1.7c0-0.3,0.1-0.5,0.1-0.5
		c0.8,0.2,0.2,0.1,1.4-0.1c0.3,0,0.9,0.1,1.4,0.2c0.2,0,0.3,0.2,0.3,0.2s0,0.2,0,0.3c0,0,0.4,0,0.6,0.1c1.1,0.2,0.5,0.7,1.1,1.3
		C283.7,28.4,279.7,29.3,276,28.7 M260.8,21.7c0.4,0.1,1.2,0.2,1.6,0.4c0.6,0.3,2.8,1.8,2.1,3c-0.2,2.6-3.3,0.4-4.6,1.3
		c-1.3,0.2-2.8,2.7-3.2,3.8c-0.2,0.4-0.1,0.3-0.3,0.6c0,0-0.1-0.1-0.1-0.1c-0.4-0.5-0.3-0.9-0.4-2c-0.2,0-0.4,0-0.5,0
		c0-0.4-0.1-0.6-0.3-0.8c0-0.1-0.1-0.1-0.1-0.2c-0.3,0.1-0.2,0-0.3,0.2c-1.2-0.1-1.1-1.3-1.7-2C252.8,23.6,257.4,20.8,260.8,21.7
		 M269.7,34.2c0.1,0.9,0,2.2,0.7,2.8c0.2,0.9,1.7,0.7,1.4,1.3c-0.1,0.4-0.8,0.2-1.1,0.1c-0.2-0.1-2.2-0.7-3-0.8
		c-0.3,0.1-0.7,0.2-1,0.3c-1.3-0.2-2-1.2-2.7-2c-0.6-0.7-1.4-2.3-0.8-3.3c0-0.2-0.1-0.4-0.1-0.6l1.4-2.1c0.5-0.4,0.6-0.6,1.1-1
		c0.1-0.2,0.2-0.3,0.3-0.5c0.4-0.3,1.7-0.3,1.9-0.1c2.1-0.2,1.8,4,2.5,4.9C270.4,33.6,270,34,269.7,34.2"/>
	<path id="path237" class="st1" d="M303,18.7c1.8,0,3.3,0.6,3.3,3.8c0,2.8-1.5,3.7-3.3,3.7h-1v-7.5H303z M303.9,28.4
		c3.3,0,5.6-2.1,5.6-5.9c0-4.7-3.1-6.1-6.3-6.1h-4.3c0,0.3,0,1,0,1.8v8.3c0,0.9,0,1.4,0,1.8"/>
	<path id="path241" class="st1" d="M314.2,18.3c0-0.9,0-1.8,0-1.8H311c0,0,0,1,0,1.8v8.3c0,0.9,0,1.8,0,1.8h7.6v-2.3
		c0,0-1.7,0-2.3,0h-2.1v-2.4l2.1,0c0.4,0,1.8,0,1.8,0v-2.2c0,0-1.2,0-1.8,0l-2.1,0"/>
	<path id="path245" class="st1" d="M289.8,23.9c0,0.7,0.3,2.3,2,2.3c1.8,0,1.9-1.5,1.9-2.3v-0.2c0,0-1.2,0-1.9,0s-2,0-2,0
		L289.8,23.9L289.8,23.9z M292.5,18.9c-1.5,0-2.7,1-2.7,2.6v0.1c0,0,2.8,0.1,3.8,0.1c1.6,0,2.3,0,3.6,0v0.9c0,4.1-1.7,6.1-5.3,6.1
		c-1.6,0-5.5-0.6-5.5-6.3c0-3.8,1.9-6.1,5.3-6.1c2.6,0,4.3,0.7,5.4,1.5c-0.1,0.2-1.1,2-1.2,2.2C295.1,19.4,294,18.9,292.5,18.9"/>
</g>
</svg>
