<?xml version="1.0" encoding="utf-8"?>
<!-- Generator: Adobe Illustrator 26.0.1, SVG Export Plug-In . SVG Version: 6.00 Build 0)  -->
<svg version="1.1" id="Layer_1" xmlns="http://www.w3.org/2000/svg" xmlns:xlink="http://www.w3.org/1999/xlink" x="0px" y="0px"
	 viewBox="0 0 95 35" style="enable-background:new 0 0 95 35;" xml:space="preserve">
<style type="text/css">
	.st0{fill:#FFFFFF;}
</style>
<g id="Calque_1">
	<path class="st0" d="M19,14.8v1.1h-2V17h2v1h-2v1.1h2v1.1h-3.3v-5.4H19z"/>
	<path class="st0" d="M22.2,14.7c0.6,0,1.2,0.2,1.6,0.5L23,16c-0.5-0.2-1-0.5-1.3-0.1c-0.3,0.4,0,0.7,0.7,1c0.3,0.1,0.6,0.3,0.9,0.4
		c0.4,0.3,0.7,0.7,0.7,1.2c0,0.8-0.7,1.5-1.5,1.6c-0.2,0-0.4,0-0.5,0c-0.7,0-1.3-0.3-1.8-0.8l0.8-0.9c0.3,0.3,0.6,0.5,1,0.5
		c0.4,0,0.8-0.4,0.6-0.7c-0.3-0.6-1.6-0.6-2-1.2c-0.3-0.4-0.4-0.9-0.2-1.3c0.2-0.7,0.9-1.1,1.6-1.1L22.2,14.7z"/>
	<path class="st0" d="M26.7,14.7c0.6,0,1.2,0.2,1.6,0.5L27.6,16c-0.5-0.2-1-0.5-1.3-0.1c-0.3,0.4,0,0.7,0.7,1
		c0.3,0.1,0.6,0.3,0.9,0.4c0.4,0.3,0.7,0.7,0.7,1.2c0,0.8-0.7,1.5-1.5,1.6c-0.2,0-0.4,0-0.5,0c-0.7,0-1.3-0.3-1.8-0.8l0.8-0.9
		c0.3,0.3,0.6,0.5,1,0.5c0.4,0,0.8-0.4,0.6-0.7c-0.3-0.6-1.6-0.6-2-1.2c-0.3-0.4-0.4-0.9-0.2-1.3c0.2-0.7,0.9-1.1,1.6-1.1L26.7,14.7
		z"/>
	<path class="st0" d="M31.1,14.8v5.4h-1.3v-5.4H31.1z"/>
	<path class="st0" d="M34.2,14.8V19h1.7v1.2h-3v-5.4H34.2z"/>
	<path class="st0" d="M36.6,17.5c0-1,0.5-2.4,2.6-2.7c0.1,0,0.2,0,0.3,0c0.7,0,1.4,0.3,2,0.7c0.6,0.5,1,1.3,1,2.1
		c0,0.7-0.4,1.4-0.9,1.9c-1.3,1-3.2,1-4.4-0.3C36.8,18.8,36.6,18.1,36.6,17.5L36.6,17.5z M41.2,17.4c0-0.9-0.7-1.6-1.5-1.6
		c0,0,0,0-0.1,0c-0.8,0-1.4,0.5-1.6,1.3c0,0.1,0,0.3,0,0.5c0,0.9,0.6,1.6,1.5,1.7c0,0,0,0,0.1,0c0.9,0,1.6-0.6,1.6-1.5
		C41.2,17.6,41.2,17.5,41.2,17.4L41.2,17.4z"/>
	<path class="st0" d="M45.5,14.8c1,0,1.7,0.4,1.9,1.2c0.2,0.8-0.3,1.6-1,1.9l1.6,2.2h-1.4L45,18h-0.1v2.1h-1.3v-5.3H45.5z
		 M44.8,15.7v1.4h0.3c0.6,0,1-0.2,1-0.7v0c0-0.4-0.4-0.6-1-0.6H44.8z"/>
	<path class="st0" d="M50.7,14.8V19h1.7v1.2h-3v-5.4H50.7z"/>
	<path class="st0" d="M54.9,14.8v3.3c0,0.5,0.4,1,0.9,1c0,0,0.1,0,0.1,0c0.5,0,1-0.4,1-0.9c0,0,0-0.1,0-0.2v-3.2h1.2v3.5
		c0,0.5-0.2,1-0.5,1.4c-0.5,0.4-1.1,0.6-1.7,0.6c-0.6,0-1.2-0.1-1.6-0.5c-0.4-0.4-0.7-0.9-0.7-1.4v-3.5L54.9,14.8z"/>
	<path class="st0" d="M60.7,14.8l1.2,1.6l1.2-1.6h1.3l-1.9,2.5l2,2.8h-1.3l-1.4-1.9l-1.4,1.9h-1.3l2-2.8l-1.9-2.6L60.7,14.8z"/>
	<path class="st0" d="M65,17.5c0-1,0.5-2.4,2.6-2.7c0.1,0,0.2,0,0.3,0c0.7,0,1.4,0.3,2,0.7c0.6,0.5,1,1.3,1,2.1
		c0,0.7-0.4,1.4-0.9,1.9c-1.3,1-3.2,1-4.4-0.3C65.2,18.8,65,18.1,65,17.5L65,17.5z M69.5,17.4c0-0.9-0.7-1.6-1.5-1.6c0,0,0,0-0.1,0
		c-0.8,0-1.4,0.5-1.6,1.3c0,0.1,0,0.3,0,0.5c0,0.9,0.6,1.6,1.5,1.7c0,0,0,0,0.1,0c0.9,0,1.6-0.6,1.6-1.5
		C69.5,17.6,69.5,17.5,69.5,17.4L69.5,17.4z"/>
	<path class="st0" d="M75.2,14.8v1.1h-1.4v4.3h-1.3v-4.3h-1.3v-1.1H75.2z"/>
	<path class="st0" d="M80.2,14.8v1.1h-1.4v4.3h-1.3v-4.3h-1.3v-1.1H80.2z"/>
	<path class="st0" d="M82.7,14.8v5.4h-1.3v-5.4H82.7z"/>
	<path class="st0" d="M86.8,14.7c0.6,0,1.1,0.1,1.7,0.4v1.4c-1.5-0.9-2.6-0.5-3,0.1c-0.5,1-0.2,2.3,0.9,2.5c0.7,0.1,1.4,0,2-0.5v1.3
		c-0.5,0.2-1.1,0.3-1.7,0.3c-1.5,0-2.8-1.1-2.9-2.7c0,0,0,0,0-0.1c0-1.5,1.2-2.7,2.7-2.8L86.8,14.7z"/>
	<path class="st0" d="M92.6,14.8l2.4,5.4h-1.3l-0.5-1H91l-0.5,1h-1.3l2.4-5.4H92.6z M91.4,18.1h1.4l-0.7-1.6L91.4,18.1z"/>
	<path class="st0" d="M0.1,12.1C0,12.1,0,11.9,0,11.8V10c0-0.1,0-0.2,0.1-0.3c0.1,0,0.2-0.1,0.3-0.1h10.8c0.1,0,0.2,0,0.3,0.1
		c0.1,0,0.1,0.2,0.1,0.3v1.9c0,0.1,0,0.2-0.1,0.3c-0.1,0.1-0.2,0.1-0.3,0.1H0.4C0.3,12.2,0.2,12.2,0.1,12.1z"/>
	<path class="st0" d="M4.5,18.8c-0.1-0.1-0.1-0.2-0.1-0.3v-1.9c0-0.1,0-0.2,0.1-0.3c0.1-0.1,0.2-0.1,0.3-0.1h6.4
		c0.1,0,0.2,0,0.3,0.1c0.1,0,0.1,0.2,0.1,0.3v1.9c0,0.1,0,0.2-0.1,0.3c-0.1,0.1-0.2,0.1-0.3,0.1H4.8C4.7,18.9,4.6,18.9,4.5,18.8z"/>
	<path class="st0" d="M2.8,22.3c0,0.1,0,0.2,0.1,0.3c0.1,0.1,0.2,0.1,0.3,0.1h8c0.1,0,0.2,0,0.3,0.1c0.1,0.1,0.1,0.2,0.1,0.3V25
		c0,0.1,0,0.2-0.1,0.3c-0.1,0.1-0.2,0.1-0.3,0.1H0.4c-0.1,0-0.2,0-0.3-0.1C0,25.2,0,25.1,0,25V14.1c0-0.1,0-0.2,0.1-0.3
		c0.1-0.1,0.2-0.1,0.3-0.1h2c0.1,0,0.2,0,0.3,0.1c0.1,0.1,0.1,0.2,0.1,0.3L2.8,22.3z"/>
</g>
</svg>
