<?xml version="1.0" encoding="utf-8"?>
<!-- Generator: Adobe Illustrator 26.0.1, SVG Export Plug-In . SVG Version: 6.00 Build 0)  -->
<svg version="1.1" id="Layer_1" xmlns="http://www.w3.org/2000/svg" xmlns:xlink="http://www.w3.org/1999/xlink" x="0px" y="0px"
	 viewBox="0 0 95 35" style="enable-background:new 0 0 95 35;" xml:space="preserve">
<style type="text/css">
	.st0{fill:#CCCCCC;}
</style>
<path class="st0" d="M30.3,23.1c-3.2,0-5.8-2.5-5.8-5.6s2.5-5.6,5.6-5.6h34.6c3.1,0,5.6,2.5,5.6,5.6s-2.5,5.6-5.6,5.6"/>
<path class="st0" d="M29.7,34.9c-9.6,0-17.4-7.8-17.4-17.4S20.2,0.1,29.7,0.1h35.5c9.6,0,17.4,7.8,17.4,17.4s-7.8,17.4-17.4,17.4
	 M30.2,11.8c-3.1,0-5.6,2.5-5.6,5.6s2.6,5.6,5.8,5.6h34.6c3.1,0,5.6-2.5,5.6-5.6s-2.5-5.6-5.6-5.6H30.2z"/>
<path class="st0" d="M56.3,20.4c1.4,0,2.2-0.8,2.2-2.3v-3.4h-1.4v3.6c0,0.6-0.3,0.9-0.8,0.9c-0.4,0-0.8-0.3-0.8-0.9v-3.6h-1.4v3.4
	C54.2,19.5,54.9,20.4,56.3,20.4"/>
<polygon class="st0" points="48.5,14.6 47,14.6 46,16.7 45.2,14.6 43.6,14.6 45.3,18.3 45.3,20.2 46.7,20.2 46.7,18.3 "/>
<path class="st0" d="M41.2,20.4c1.4,0,2.2-0.8,2.2-2.3v-3.4h-1.4v3.6c0,0.6-0.3,0.9-0.8,0.9c-0.4,0-0.8-0.3-0.8-0.9v-3.6H39v3.4
	C39,19.5,39.8,20.4,41.2,20.4"/>
<polygon class="st0" points="59,20.2 62.3,20.2 62.3,19 60.4,19 60.4,18 62.2,18 62.2,16.8 60.4,16.8 60.4,15.9 62.3,15.9 
	62.3,14.6 59,14.6 59,20.2 "/>
<path class="st0" d="M31.7,17.2c0.4-0.3,0.7-0.6,0.7-1.1c0-0.8-0.6-1.5-1.6-1.5h-2.3v5.6h2.1c1.4,0,2-0.8,2-1.7
	C32.6,18,32.3,17.5,31.7,17.2z M29.9,15.9h0.6c0.3,0,0.5,0.1,0.5,0.4s-0.2,0.4-0.5,0.4h-0.6V15.9z M30.6,19h-0.7v-1h0.7
	c0.4,0,0.6,0.1,0.6,0.5S31,19,30.6,19z"/>
<path class="st0" d="M53.7,17.4v-0.3h-3v1.2h1.4c-0.1,0.5-0.7,0.8-1.3,0.8c-0.9,0-1.5-0.7-1.5-1.6c0-0.9,0.5-1.6,1.5-1.6
	c0.6,0,1,0.3,1.2,0.6h1.5c-0.3-1.1-1.3-2-2.7-2c-1.8,0-2.9,1.4-2.9,2.9c0,1.5,1,2.9,2.9,2.9C52.6,20.4,53.7,19,53.7,17.4"/>
<path class="st0" d="M66.5,16.3c0-1-0.6-1.8-1.8-1.8c-1.1,0-1.8,0.8-1.8,1.6c0,2.1,2.3,1.5,2.3,2.5c0,0.3-0.1,0.4-0.5,0.4
	c-0.3,0-0.6-0.2-0.6-0.6h-1.3c0,1.1,0.6,1.8,1.9,1.8c1.3,0,1.9-0.8,1.9-1.6c0-2.1-2.3-1.6-2.3-2.5c0-0.3,0.2-0.4,0.4-0.4
	c0.3,0,0.5,0.2,0.5,0.6L66.5,16.3L66.5,16.3z"/>
<path class="st0" d="M35.7,14.5c-1.8,0.1-2.9,1.5-2.9,2.9c0,1.5,1,2.9,2.9,2.9c1.8,0,2.9-1.4,2.9-2.9S37.5,14.5,35.7,14.5z M35.8,19
	c-0.9,0-1.4-0.7-1.4-1.5s0.5-1.5,1.4-1.5c0.8,0,1.4,0.7,1.4,1.5S36.7,19,35.8,19z"/>
</svg>
