<?xml version="1.0" encoding="utf-8"?>
<!-- Generator: Adobe Illustrator 26.0.1, SVG Export Plug-In . SVG Version: 6.00 Build 0)  -->
<svg version="1.1" id="Layer_1" xmlns="http://www.w3.org/2000/svg" xmlns:xlink="http://www.w3.org/1999/xlink" x="0px" y="0px"
	 viewBox="0 0 95 35" style="enable-background:new 0 0 95 35;" xml:space="preserve">
<style type="text/css">
	.st0{fill:#CCCCCC;}
</style>
<g id="layer1" transform="translate(7.3403477,-123.01923)">
	<g id="g20553" transform="translate(-76.84961,-0.90142057)">
		<path id="path17935" class="st0" d="M164.5,138.2c-12.7-8.5-29.3-13.6-47.5-13.6c-18.2,0-34.8,5.1-47.5,13.6
			c12.7-4.2,27.5-6.8,47.5-6.8S151.8,134,164.5,138.2"/>
		<path id="path17937" class="st0" d="M109.7,142.6c-0.9,0-1.4,0.8-1.5,1.7c-0.1,1-0.7,4.6-0.8,5.5c-0.1,0.5-0.1,1.1-0.6,1.3
			c-0.5,0.2-1.2-0.1-1.7-0.6c-0.5-0.5-8.6-7.3-8.6-7.3c-0.5-0.4-1-0.6-1.6-0.6c-1.2,0-2.4,0.8-2.4,2.6v11.4c0,0.9,0.6,1.5,1.4,1.5
			c0.8,0,1.4-0.5,1.5-1.4c0,0,0.9-5.4,1-6.1c0.1-0.7,0.2-1.3,0.9-1.5c0.6-0.2,1.2,0.2,2.1,0.9c0.9,0.7,8.1,7.3,8.1,7.3
			c0.6,0.5,1,0.7,1.7,0.7c0.7,0,2-0.3,2-2.5v-11.4C111.2,143.2,110.5,142.6,109.7,142.6"/>
		<path id="path17939" class="st0" d="M161.5,154.8c-6.3,1.4-13.5-0.1-13.5-4.6c0-3.4,3.1-4.7,5.6-4.9c2.6-0.2,4.6,0.3,5.6,1.4
			c0.7,0.7,0.5,1.6-0.8,1.7c-1.2,0.1-3.4,0.1-5.2,0.2c-1,0-1.6,0.6-1.6,1.3c0,0.6,0.4,1.3,1.6,1.3c1.7,0,6.1,0,8.2,0
			c1.4,0,2.1-0.8,2.1-2.4c0-2.6-2.4-6.6-9.3-6.6c-6.3,0-10.8,3.1-10.8,8.2c0,7.2,10.6,9.4,18.4,6.7c0.7-0.3,1.4-0.8,1.2-1.6
			C163,154.9,162.4,154.6,161.5,154.8"/>
		<path id="path17941" class="st0" d="M88.3,154.8c-6.3,1.4-13.5-0.1-13.5-4.6c0-3.4,3.1-4.7,5.6-4.9c2.6-0.2,4.6,0.3,5.6,1.4
			c0.7,0.7,0.5,1.6-0.8,1.7c-1.2,0.1-3.4,0.1-5.2,0.2c-1,0-1.6,0.6-1.6,1.3c0,0.6,0.4,1.3,1.6,1.3c1.7,0,6.1,0,8.2,0
			c1.4,0,2.1-0.8,2.1-2.4c0-2.6-2.4-6.6-9.3-6.6c-6.3,0-10.8,3.1-10.8,8.2c0,7.2,10.6,9.4,18.4,6.7c0.7-0.3,1.4-0.8,1.2-1.6
			C89.8,154.9,89.2,154.6,88.3,154.8"/>
		<path id="path17943" class="st0" d="M137.2,147.8c0.1,3.9,0.5,7.2,0.6,8.4c0.1,1.5,0.9,1.9,1.7,1.9c0.7,0,1.5-0.4,1.6-1.9
			c0.1-1.3,0.5-5.2,0.7-9c0-0.2-0.1-0.3-0.3-0.3l-4.1,0.7C137.3,147.6,137.2,147.7,137.2,147.8"/>
		<path id="path17945" class="st0" d="M139.5,142.2c-1.9,0-2.4,1.5-2.4,2.4c0,0.2,0,0.6,0,1.2c0,0.1,0.1,0.3,0.3,0.2l4.3-0.7
			c0.1,0,0.2-0.1,0.2-0.2c0-0.2,0-0.4,0-0.5C141.9,143.8,141.4,142.2,139.5,142.2"/>
		<path id="path17947" class="st0" d="M133.2,148.5c-1.4,0-5.8,0-8.7,0c-1.4,0-1.7,0.7-1.7,1.3c0,0.5,0.4,1.2,1.6,1.3
			c1.9,0.1,4.4,0.2,5.6,0.3c1.5,0.1,1.6,0.9,1,1.5c-1,1.4-3.6,2.3-6.2,2.3c-3.4,0-7.2-2-7.2-5.1c0-2.9,3.2-6.1,12.9-4.8
			c0.8,0.1,1.7,0,1.9-0.8c0.2-0.8-0.3-1.4-1.4-1.7c-2.2-0.6-4.2-0.7-6.1-0.7c-6.5,0-11.7,3.1-11.7,8.1c0,5.3,5.2,8,11.7,8
			c7.2,0,10.7-3.9,10.7-7.4C135.6,149.2,134.7,148.5,133.2,148.5"/>
	</g>
</g>
</svg>
