<?xml version="1.0" encoding="utf-8"?>
<!-- Generator: Adobe Illustrator 26.0.1, SVG Export Plug-In . SVG Version: 6.00 Build 0)  -->
<svg version="1.1" id="Layer_1" xmlns="http://www.w3.org/2000/svg" xmlns:xlink="http://www.w3.org/1999/xlink" x="0px" y="0px"
	 viewBox="0 0 95 35" style="enable-background:new 0 0 95 35;" xml:space="preserve">
<style type="text/css">
	.st0{fill:#FFFFFF;}
	.st1{fill-rule:evenodd;clip-rule:evenodd;fill:#FFFFFF;}
</style>
<g>
	<g>
		<path class="st0" d="M26.5,19.6c0.4-2.3,0.7-3.8,0.9-5.6c1.1,0,2.2,0.1,3.3,0.1c1.9,0,3.4,0,4-0.1c-0.1,0.2-0.2,0.5-0.2,0.8
			c-0.1,0.4-0.1,0.6-0.1,0.9c-1.4-0.1-3.7-0.2-4.2-0.2c-0.4,1.5-0.6,2.9-0.9,4.4c1.7,0,2.9-0.1,4.3-0.2c-0.2,0.5-0.2,0.6-0.3,0.9
			c0,0.2,0,0.4-0.1,0.8c-1.4-0.1-2.8-0.2-4.3-0.2c-0.2,0.8-0.3,1.7-0.5,2.6c-0.2,0.8-0.3,1.7-0.4,2.5c1.4,0,2.9-0.1,4.4-0.3
			c-0.1,0.3-0.2,0.5-0.2,0.9c-0.1,0.4-0.1,0.6-0.1,0.9c-0.7,0-1.6-0.1-3.3-0.1c-3.1,0-3.6,0.1-4,0.1c0.4-1.8,0.8-3.3,1.2-5.6
			L26.5,19.6z"/>
		<path class="st0" d="M36.2,19.6c0.4-2.3,0.7-3.8,0.9-5.6c0.4,0,0.9,0.1,1.5,0.1c0.6,0,1.1-0.1,1.6-0.1c-0.4,1.8-0.8,3.3-1.2,5.6
			l-0.5,2.7c-0.4,2.3-0.7,3.8-0.9,5.6c-0.4,0-0.9-0.1-1.5-0.1c-0.6,0-1.1,0.1-1.6,0.1c0.4-1.8,0.8-3.3,1.2-5.6L36.2,19.6z"/>
		<path class="st0" d="M42.2,19.6c0.4-2.3,0.7-3.8,0.9-5.6c1.1,0,2.2,0.1,3.3,0.1c1.9,0,3.4,0,4-0.1c-0.1,0.2-0.2,0.5-0.2,0.8
			c-0.1,0.4-0.1,0.6-0.1,0.9c-1.4-0.1-3.7-0.2-4.2-0.2c-0.4,1.5-0.6,2.9-0.9,4.4c1.7,0,2.9-0.1,4.3-0.2c-0.2,0.5-0.2,0.6-0.3,0.9
			c0,0.2,0,0.4-0.1,0.8c-1.4-0.1-2.8-0.2-4.3-0.2l-0.2,1c-0.4,2.3-0.7,3.8-0.9,5.6c-0.4,0-0.9-0.1-1.5-0.1c-0.6,0-1.1,0.1-1.6,0.1
			c0.4-1.8,0.8-3.3,1.2-5.6L42.2,19.6z"/>
		<path class="st0" d="M51.7,19.6c0.4-2.3,0.7-3.8,0.9-5.6c1.1,0,2.2,0.1,3.3,0.1c1.9,0,3.4,0,4-0.1c-0.1,0.2-0.2,0.5-0.2,0.8
			c-0.1,0.4-0.1,0.6-0.1,0.9c-1.4-0.1-3.7-0.2-4.2-0.2c-0.4,1.5-0.6,2.9-0.9,4.4c1.7,0,2.9-0.1,4.3-0.2c-0.2,0.5-0.2,0.6-0.3,0.9
			c0,0.2,0,0.4-0.1,0.8c-1.4-0.1-2.8-0.2-4.3-0.2l-0.2,1c-0.4,2.3-0.7,3.8-0.9,5.6c-0.4,0-0.9-0.1-1.5-0.1c-0.6,0-1.1,0.1-1.6,0.1
			c0.4-1.8,0.8-3.3,1.2-5.6L51.7,19.6z"/>
		<path class="st0" d="M62.3,22.6c0.8-1.6,1.7-3.2,2.7-4.8c0.3,1.6,0.6,3.2,0.8,4.8L62.3,22.6z M67.1,13.9c-0.3,0-0.5,0.1-0.7,0.1
			c-0.2,0-0.5-0.1-0.7-0.1c-2.5,4.6-6.6,11.8-7.9,14c0.4,0,0.7-0.1,1-0.1s0.6,0.1,0.9,0.1c0.6-1.4,1.3-2.8,2-4.1c0.7,0,1.3,0,2,0
			c0.8,0,1.6,0,2.4,0c0.2,1.4,0.4,2.8,0.6,4.1c0.5,0,1.1-0.1,1.6-0.1c0.5,0,1,0.1,1.6,0.1C68.9,24.6,67.8,18.5,67.1,13.9z"/>
		<path class="st0" d="M83.5,17c-0.6-1.2-1.6-2-3.4-2c-2.3,0-5.1,2.1-5.9,6.3c-0.6,3.2,0.7,5.6,3.6,5.6c0.6,0,1.8-0.1,2.1-0.4
			c0.1-0.3,0.2-0.8,0.3-1.4c0.4-2.2,0.4-3.1,0.5-3.5c0.2,0,0.6,0.1,1.4,0.1c0.9,0,1.3-0.1,1.6-0.1c-0.2,0.4-0.5,2.1-0.8,3.4
			c-0.2,0.8-0.3,1.9-0.3,2.2c-1.7,0.5-3.5,0.9-5.2,0.9c-4.3,0-7-2.6-6.2-6.8c0.9-5.1,4.8-7.7,9.2-7.7c1.9,0,3.1,0.4,4.3,1.2
			c-0.3,0.7-0.7,1.4-0.9,2.1L83.5,17"/>
		<path class="st0" d="M86.8,19.6c0.4-2.3,0.7-3.8,0.9-5.6c1.1,0,2.2,0.1,3.3,0.1c1.9,0,3.4,0,4-0.1c-0.1,0.2-0.2,0.5-0.2,0.8
			c-0.1,0.4-0.1,0.6-0.1,0.9c-1.4-0.1-3.7-0.2-4.2-0.2c-0.4,1.5-0.6,2.9-0.9,4.4c1.7,0,2.9-0.1,4.3-0.2c-0.2,0.5-0.2,0.6-0.3,0.9
			c0,0.2,0,0.4-0.1,0.8c-1.4-0.1-2.8-0.2-4.3-0.2c-0.2,0.8-0.3,1.7-0.5,2.6c-0.2,0.8-0.3,1.7-0.4,2.5c1.4,0,2.9-0.1,4.4-0.3
			c-0.1,0.3-0.2,0.5-0.2,0.9c-0.1,0.4-0.1,0.6-0.1,0.9c-0.7,0-1.6-0.1-3.3-0.1c-3.1,0-3.6,0.1-4,0.1c0.4-1.8,0.8-3.3,1.2-5.6
			L86.8,19.6z"/>
		<path class="st0" d="M22.3,6.8H6.8l-3.7,3.7h15.5v14.6l3.7-3.7V6.8z"/>
	</g>
	<g>
		<path class="st1" d="M0,13.2h15.9v3.7H0V13.2z"/>
		<path class="st1" d="M0,18.7h15.9v3.7H0V18.7z"/>
		<path class="st1" d="M0,24.2h15.9v3.7H0V24.2z"/>
	</g>
</g>
</svg>
