<?xml version="1.0" encoding="utf-8"?>
<!-- Generator: Adobe Illustrator 26.0.1, SVG Export Plug-In . SVG Version: 6.00 Build 0)  -->
<svg version="1.1" id="Layer_1" xmlns="http://www.w3.org/2000/svg" xmlns:xlink="http://www.w3.org/1999/xlink" x="0px" y="0px"
	 viewBox="0 0 95 35" style="enable-background:new 0 0 95 35;" xml:space="preserve">
<style type="text/css">
	.st0{fill:#FFFFFF;}
</style>
<g id="layer1" transform="translate(-432.82926,-31.305795)">
	<g id="g70327" transform="matrix(12.875155,0,0,12.875155,-5104.483,-5805.714)">
		<g id="g41720" transform="matrix(1.25,0,0,-1.25,499.80438,478.00345)">
			<path id="path41722" class="st0" d="M-50.5,18.1c-0.4,0-0.9,0.1-1.5,0.1c-0.9,0-1.9-0.1-2.8-0.2c-0.2,0.2-0.3,0.3-0.6,0.5l0,0
				c0.2-0.3,0.4-0.5,0.5-0.8c1.3,0.5,2.8,0.6,4,0.6C-50.7,18.1-50.6,18.1-50.5,18.1L-50.5,18.1"/>
		</g>
		<g id="g41724" transform="matrix(1.25,0,0,-1.25,481.83438,466.30095)">
			<path id="path41726" class="st0" d="M-37.4,9.6C-37.4,9.6-37.4,9.7-37.4,9.6c0,0.2,0,0.2-0.1,0.2c-0.1,0-0.1,0-0.1-0.2H-37.4z
				 M-39,9.2c0,0-0.1,0-0.1,0c-0.1,0-0.1,0.1-0.1,0.1c0,0.1,0,0.3,0.1,0.3c0,0.1,0.1,0.1,0.2,0.1c0,0,0,0,0,0L-39,9.2z M-36.3,9.5
				c0-0.3-0.1-0.3-0.1-0.3c-0.1,0-0.1,0.1-0.1,0.2c0,0,0,0.1,0,0.2c0,0.3,0.1,0.3,0.1,0.3c0.1,0,0.1-0.1,0.1-0.2
				C-36.3,9.6-36.3,9.5-36.3,9.5z M-38.2,9h-0.4l0.2,1.4h0.4L-38.2,9z M-37.4,9.2c0.1,0,0.2,0,0.3,0l0-0.3c-0.1,0-0.2,0-0.3,0
				C-37.9,9-38,9.1-38,9.3c0,0.6,0.2,0.7,0.6,0.7c0.3,0,0.4-0.1,0.4-0.4c0-0.1,0-0.2,0-0.3h-0.6C-37.6,9.3-37.6,9.2-37.4,9.2
				L-37.4,9.2z M-38.9,10c-0.3,0-0.4-0.1-0.5-0.2c-0.1-0.1-0.2-0.3-0.2-0.5c0-0.2,0-0.3,0.3-0.3c0.1,0,0.2,0,0.3,0.1h0l0-0.1h0.4
				l0.1,1C-38.6,10-38.7,10-38.9,10L-38.9,10z M-35.9,9.6c0,0.3-0.2,0.4-0.5,0.4c-0.4,0-0.6-0.2-0.6-0.7c0-0.3,0.2-0.4,0.5-0.4
				C-36.2,8.9-35.9,9.1-35.9,9.6z M-39.7,10.4c-0.1-0.3-0.2-0.7-0.4-1h0c0,0.3-0.1,0.6-0.1,1h-0.4c0-0.5,0.1-1,0.2-1.4h0.4
				c0.2,0.4,0.5,0.9,0.6,1.4H-39.7"/>
		</g>
	</g>
</g>
</svg>
