<?xml version="1.0" encoding="utf-8"?>
<!-- Generator: Adobe Illustrator 26.0.1, SVG Export Plug-In . SVG Version: 6.00 Build 0)  -->
<svg version="1.1" id="Layer_1" xmlns="http://www.w3.org/2000/svg" xmlns:xlink="http://www.w3.org/1999/xlink" x="0px" y="0px"
	 viewBox="0 0 95 35" style="enable-background:new 0 0 95 35;" xml:space="preserve">
<style type="text/css">
	.st0{fill:#FFFFFF;}
	.st1{fill-rule:evenodd;clip-rule:evenodd;fill:#FFFFFF;}
</style>
<path id="path6" class="st0" d="M30.9,10.1c-1-0.4-2.1-0.7-3-0.7c-1.4,0-2.1,0.3-2.1,0.9c0,1.6,6.2,0.3,6.2,3.7
	c0,1.4-1.3,2.5-3.8,2.5c-1.5,0-2.7-0.3-4.1-1.1l0.6-1.3c1.2,0.7,2.3,1,3.5,1c1.5,0,2.3-0.4,2.3-1.1c0-1.7-6.2-0.4-6.2-3.6
	C24.3,9,25.6,8,27.9,8c1.4,0,2.5,0.3,3.6,0.9L30.9,10.1"/>
<path id="path8" class="st0" d="M37.9,16.4c-2.5,0-4.5-1.7-4.5-4.2c0-2.5,2.1-4.2,4.5-4.2c2.5,0,4.5,1.7,4.5,4.2
	C42.4,14.7,40.3,16.4,37.9,16.4 M37.9,9.3c-1.8,0-3,1.3-3,2.9c0,1.6,1.2,2.9,3,2.9c1.8,0,3-1.2,3-2.9C40.9,10.6,39.7,9.3,37.9,9.3"
	/>
<path id="path10" class="st0" d="M48.3,16.4c-2.6,0-4.6-1.7-4.6-4.2c0-2.5,2-4.2,4.6-4.2c1.5,0,2.6,0.4,3.6,1.2l-0.8,1.2
	c-0.7-0.6-1.6-1-2.8-1c-1.9,0-3.1,1.2-3.1,2.8c0,1.6,1.2,2.8,3.1,2.8c1.2,0,2.1-0.4,2.9-1l0.8,1.2C51,16,49.8,16.4,48.3,16.4"/>
<path id="rect12" class="st0" d="M53.5,8.2H55v8h-1.4V8.2z"/>
<path id="polyline14" class="st0" d="M57.1,16.2v-8h7.1v1.3h-5.6v1.9h4.4v1.3h-4.4v2.1h5.9v1.3H57.1"/>
<path id="polyline16" class="st0" d="M69.8,9.5v6.7h-1.4V9.5h-3.2V8.2H73v1.3H69.8"/>
<path id="polyline18" class="st0" d="M74.1,16.2v-8h7.1v1.3h-5.6v1.9H80v1.3h-4.4v2.1h5.9v1.3H74.1"/>
<path id="path20" class="st0" d="M28.6,25.6c0.8,0,1.6-0.2,2.2-0.5v-2.3h1.4v3.1c-1,0.7-2.3,1.1-3.7,1.1c-2.6,0-4.6-1.7-4.6-4.2
	c0-2.5,2-4.2,4.6-4.2c1.5,0,2.6,0.4,3.6,1.2l-0.8,1.2c-0.7-0.6-1.6-0.9-2.8-0.9c-1.9,0-3.1,1.2-3.1,2.8
	C25.5,24.5,26.7,25.6,28.6,25.6"/>
<path id="polyline22" class="st0" d="M34.1,26.8v-8h7.1v1.3h-5.6v1.9H40v1.3h-4.4v2.1h5.9v1.3L34.1,26.8"/>
<path id="path24" class="st0" d="M44.3,26.8h-1.4v-8h1.5l5.1,6l0,0c-0.1-1.5-0.1-2.7-0.1-3.9v-2.1h1.4v8h-1.5l-5.1-6l0,0
	c0.1,1.2,0.1,3.2,0.1,3.9L44.3,26.8"/>
<path id="polyline26" class="st0" d="M52.8,26.8v-8h7.1v1.3h-5.6v1.9h4.4v1.3h-4.4v2.1h5.9v1.3L52.8,26.8"/>
<path id="path28" class="st0" d="M65.4,23.9h-2.3v2.9h-1.4v-8h5c1.7,0,2.7,1,2.7,2.5c0,1.4-1,2.3-2.2,2.5l2.3,3h-1.8L65.4,23.9
	 M66.5,22.5c0.9,0,1.4-0.5,1.4-1.2c0-0.8-0.4-1.2-1.3-1.2h-3.6v2.4L66.5,22.5L66.5,22.5z"/>
<path id="path30" class="st0" d="M72.4,24.9l-0.9,1.9h-1.6l3.8-8h1.5l3.8,8h-1.6l-0.9-1.9H72.4 M73,23.6h3l-1.5-3.2L73,23.6L73,23.6
	z"/>
<path id="polyline32" class="st0" d="M80.1,26.8v-8h1.4v6.7h5.2v1.3H80.1"/>
<path id="polyline34" class="st0" d="M87.7,26.8v-8h7.1v1.3h-5.6v1.9h4.4v1.3h-4.4v2.1H95v1.3L87.7,26.8"/>
<path class="st1" d="M0,8v9.5v0.2V27h18.6v-9.3v-0.2V8H0z M15.3,17.8H3.2v-0.6h12.1V17.8z"/>
</svg>
