<?xml version="1.0" encoding="utf-8"?>
<!-- Generator: Adobe Illustrator 26.0.1, SVG Export Plug-In . SVG Version: 6.00 Build 0)  -->
<svg version="1.1" id="Layer_1" xmlns="http://www.w3.org/2000/svg" xmlns:xlink="http://www.w3.org/1999/xlink" x="0px" y="0px"
	 viewBox="0 0 95 35" style="enable-background:new 0 0 95 35;" xml:space="preserve">
<style type="text/css">
	.st0{fill:#343741;}
</style>
<g>
	<path class="st0" d="M95,20.1c0,1.5-0.5,2-1.7,2.4c-1.3,0.4-3.7,0.6-5,0.6c-1.6,0-3.7-0.1-5.5-0.5v-1.8h9.7v-2.4h-6.9
		c-2.1,0-2.8-0.6-2.8-2.6v-1.1c0-1.6,0.5-2.1,1.7-2.4c1.3-0.3,3.4-0.5,4.8-0.5c1.7,0,3.7,0.1,5.5,0.5v1.8h-9.5v2h6.9
		c2.1,0,2.8,0.5,2.8,2.6L95,20.1z"/>
	<path class="st0" d="M78.5,22.6c-2,0.4-4,0.5-6,0.5c-2,0-4-0.1-6-0.5V12.4c2-0.4,4-0.5,6-0.5c2,0,3.9,0.1,5.9,0.5v1.8h-9.1v2h5.9
		v2.1h-5.9v2.4h9.1L78.5,22.6L78.5,22.6z"/>
	<path class="st0" d="M63,22.6c-1.8,0.4-3.6,0.5-5.4,0.5c-1.7,0-3.6-0.1-5.4-0.5V12.1h2.9v8.5H63L63,22.6z"/>
	<path class="st0" d="M48.9,22.7c-1,0.3-2.2,0.4-3.2,0.4l-4.5-9H41l-4.4,9c-0.9,0-2.1-0.1-3-0.4l5.6-10.5h4L48.9,22.7z"/>
	<path class="st0" d="M43,20c0,1-0.8,1.9-1.9,1.9S39.2,21,39.2,20c0-1,0.8-1.9,1.9-1.9C42.1,18.1,43,19,43,20"/>
	<path class="st0" d="M30,22.7c-0.9,0.3-1.9,0.4-2.9,0.4v-4.6H20v4.6c-1,0-2-0.1-2.9-0.4V12.3C18,12,19,12,20,11.9v4.4h7.2v-4.4
		c1,0,2,0.1,2.9,0.4V22.7z"/>
	<path class="st0" d="M13,14.2H7.9v8.6H5.1v-8.6H0v-1.8c2.2-0.4,4.4-0.5,6.5-0.5s4.3,0.1,6.5,0.5V14.2z"/>
</g>
</svg>
