<?xml version="1.0" encoding="utf-8"?>
<!-- Generator: Adobe Illustrator 26.0.1, SVG Export Plug-In . SVG Version: 6.00 Build 0)  -->
<svg version="1.1" id="Layer_1" xmlns="http://www.w3.org/2000/svg" xmlns:xlink="http://www.w3.org/1999/xlink" x="0px" y="0px"
	 viewBox="0 0 95 35" style="enable-background:new 0 0 95 35;" xml:space="preserve">
<style type="text/css">
	.st0{fill:#FFFFFF;}
</style>
<g id="g10" transform="matrix(1.25,0,0,-1.25,-222.04703,565.00236)">
	<g id="g12" transform="scale(0.24,0.24)">
		<path id="path22" class="st0" d="M951.2,1874.8c-0.1,0-13.2-4.8-26.1-12.7c-6.1-3.7-11.2-7.5-15.2-11.4c-1.4,0.2-2.7,0.5-4.1,0.8
			c2.5,1.3,4.4,2.7,5.5,3.6c3.3,2.6,5.2,6.2,5.2,9.3c0,2.9-0.9,5.1-2.7,6.9c-3.6,3.5-9.6,3.3-10.2,3.3c-0.6,0-6.6,0.2-10.2-3.3
			c-1.8-1.8-2.7-4-2.7-6.9c0-3.1,1.9-6.7,5.2-9.3c1.1-0.9,2.9-2.3,5.5-3.5c-1.3-0.4-2.7-0.7-4.1-0.8c-4,3.9-9.1,7.7-15.2,11.4
			c-12.9,7.9-26,12.7-26.1,12.7l-1.2,0.4l0.2-1.3c0-0.2,0.6-4.6,4-9.7c3.1-4.7,9.3-10.9,21.1-13.8c6.7-1.7,12.2-1.9,16.7-1.5
			c0.8-0.8,1.5-1.5,2.2-2.3c1.4-1.6,2.7-3.2,3.8-4.8c-2.4-4.1-3.3-8.2-3.3-12.4c0-0.2,0.1-4.3,1.7-6.1c0.8-0.9,1.5-1.1,2.4-1.1
			c1,0,1.6,0.2,2.4,1.1c1.6,1.7,1.8,5.9,1.8,6.1c0,4.2-1,8.3-3.3,12.4c1.1,1.6,2.3,3.2,3.8,4.8c0.7,0.8,1.4,1.5,2.2,2.3
			c4.5-0.4,10-0.2,16.7,1.5c11.7,2.9,17.9,9.1,21.1,13.8c3.4,5.1,4,9.5,4,9.7l0.2,1.3L951.2,1874.8L951.2,1874.8z M880.6,1852
			c-11.3,2.8-17.2,8.7-20.2,13.1c-2.1,3.2-3.1,6.1-3.5,7.7c3.6-1.4,14.1-5.7,24.5-12.1c5.5-3.4,10.2-6.8,13.9-10.3
			C890.8,1850.2,885.8,1850.7,880.6,1852 M896.9,1856.2c-2.9,2.3-4.6,5.5-4.6,8.2c0,2.4,0.7,4.4,2.2,5.8c3.2,3.1,9.2,2.8,9.2,2.8
			l0,0.5l0-0.5c0.1,0,6,0.3,9.2-2.8c1.5-1.4,2.2-3.4,2.2-5.8c0-2.6-1.7-5.8-4.6-8.2c-1.9-1.5-4.2-2.9-6.8-3.9
			C901.1,1853.3,898.8,1854.7,896.9,1856.2 M907.1,1829.2c0-0.1,0-6.6-3.4-6.6c-3.4,0-3.4,6.6-3.4,6.6c0,3.7,1.2,7.5,3.4,11.3
			C905.9,1836.7,907.1,1832.9,907.1,1829.2 M907.2,1847.7c-1.4-1.5-2.5-3-3.5-4.5c-1,1.5-2.1,3-3.5,4.5c-0.4,0.5-0.9,1-1.4,1.5
			c1.8,0.3,3.4,0.7,4.8,1.3c1.4-0.6,3.1-1,4.9-1.3C908.1,1848.7,907.6,1848.2,907.2,1847.7 M947,1865.1c-3-4.4-8.9-10.4-20.2-13.1
			c-5.2-1.3-10.2-1.8-14.8-1.5c3.8,3.5,8.4,6.9,13.9,10.3c10.4,6.4,20.9,10.7,24.5,12.1C950.1,1871.2,949.1,1868.3,947,1865.1"/>
		<path id="path24" class="st0" d="M897.6,1865.3c0-1.1,0.6-0.2,1.9-0.2c1.4,0,1.9-0.9,2,0.2c0,1.1-0.9,1.9-2,1.9
			C898.4,1867.2,897.6,1866.4,897.6,1865.3"/>
		<path id="path26" class="st0" d="M907.7,1865.1c1.4,0,1.9-0.9,1.9,0.2c0,1.1-0.9,1.9-1.9,1.9c-1.1,0-1.9-0.9-1.9-1.9
			C905.8,1864.2,906.3,1865.1,907.7,1865.1"/>
		<path id="path28" class="st0" d="M907.8,1870.7c-3.1,0.1-4.2-1.4-4.2-1.4v-1.2l0,0v-0.4c0,0,1.3,1.5,3.7,1.5
			c2.8,0,4.1-1.9,4.1-4.3c0-3.2-2.8-7.2-7.9-9c-5,1.8-7.8,5.8-7.8,9c0,2.4,1.3,4.3,4.1,4.3c2.4,0,3.7-1.5,3.7-1.5l0,0.4v1.2
			c0,0-1,1.5-4.2,1.4c-3.4-0.1-5.1-3-5.1-5.7c0-3.8,3.7-8.6,9.3-10.2c5.6,1.6,9.3,6.4,9.3,10.2
			C912.9,1867.7,911.1,1870.6,907.8,1870.7"/>
		<path id="path30" class="st0" d="M902.6,1862.7c0-0.9,0.6-2.5,1-2.5l0,0c0.4,0,1,1.6,1,2.5c0,0.9-0.5,1.2-1.1,1.2l0,0
			C903,1863.9,902.6,1863.6,902.6,1862.7"/>
		<path id="path32" class="st0" d="M773.5,1775.7c-3.3,0-5.3,1-7.9,4.6l-4.2,5.7c-2.1,2.9-4.1,4.1-8.7,4.1l-9.1,0v-14.4h-3.5v32.2
			h3.5v-14.5h6.5c4.3,0,6.3,1.6,8.8,4.9l7.3,9.6h4.4l-7.8-10.2c-2-2.6-3.3-4-5.5-5.2v0c3.4-0.7,5.1-2.1,7.2-4.9l3.8-5.2
			c1.8-2.4,3.1-3.4,5-3.4h1l-0.3-3.3L773.5,1775.7L773.5,1775.7z M800.6,1775.7l0,32.2h27.9l0.4-3.3h-24.8v-11h23.4v-3.6h-23.4
			v-10.7h26.5l-0.7-3.6H800.6L800.6,1775.7z M893,1775.7c-3.3,0-5.2,1-7.8,4.6l-2.2,3.1c-2.1,3-4.2,4.2-8.6,4.2h-11l0-11.9h-3.6
			v32.2h16.2c8.1,0,12.5-4.2,12.5-10c0-4.7-3.1-7.6-7.2-8.8v0c1.9-0.7,3.2-2.1,4.6-4l1.9-2.6c1.8-2.4,3.1-3.4,5-3.4h1.1l-0.4-3.3
			H893L893,1775.7z M876.1,1804.6h-12.7v-13.7h12.7c5.1,0,8.7,2.4,8.7,6.9C884.8,1802.2,881.1,1804.6,876.1,1804.6 M920.5,1807.9
			h3.5v-32.2l-3.5,0V1807.9L920.5,1807.9z M988.1,1775.7l-29.7,27.2h-0.1v-27.2h-3.5v32.2h3.3l29.7-27.2h0.1v27.2h3.5v-32.2H988.1z
			 M1040.7,1774.8c-15.5,0-22.5,8-22.5,17.1c0,9.3,7.2,16.9,21.9,16.9c5.3,0,10.5-1,15.2-3v-3.7c-4.6,2.1-9.8,3.4-15.2,3.4
			c-12.1,0-18-6.2-18-13.7c0-7.7,6.2-13.7,18.7-13.7c5,0,9.6,1.1,12.5,2.4v8h-13.4l0.4,3.3h16.5l0-13.5
			C1052.7,1776.3,1047.1,1774.8,1040.7,1774.8"/>
	</g>
</g>
</svg>
