<?xml version="1.0" encoding="utf-8"?>
<!-- Generator: Adobe Illustrator 26.0.1, SVG Export Plug-In . SVG Version: 6.00 Build 0)  -->
<svg version="1.1" id="Layer_1" xmlns="http://www.w3.org/2000/svg" xmlns:xlink="http://www.w3.org/1999/xlink" x="0px" y="0px"
	 viewBox="0 0 95 35" style="enable-background:new 0 0 95 35;" xml:space="preserve">
<style type="text/css">
	.st0{fill:#343741;}
</style>
<g>
	<path class="st0" d="M22.5,5.4c-0.6,0-1.5,0.4-1.9,0.8L14,13.1c-0.4,0.4-1.3,0.8-1.9,0.8H8.4c-0.6,0-1.2,0.5-1.2,1.1v5
		c0,0.6,0.5,1.1,1.2,1.1h3.7c0.6,0,1.5,0.4,1.9,0.8l6.5,6.8c0.4,0.4,1.3,0.8,1.9,0.8h4.1v-0.7v-3.1v-1.1l-2.4-2.5l0,0l-3.7-3.7
		c-0.2-0.2-0.3-0.5-0.4-0.8c0-0.3,0.1-0.7,0.4-1l3.7-3.9l0,0l2.4-2.5V9.2V6.1V5.4H22.5z M6.2,21.1h-5H0v8.5h6.1
		c0.6,0,1.2-0.5,1.2-1.1v-6.2C7.3,21.6,6.8,21.1,6.2,21.1 M7.3,6.5v6.2c0,0.6-0.5,1.1-1.2,1.1h-5H0V5.4h6.2C6.8,5.4,7.3,5.9,7.3,6.5
		"/>
	<polygon class="st0" points="34,17.1 37.1,13.3 39.2,13.3 36,17.1 39.3,21.6 37.2,21.6 34.8,18.3 34,19.2 34,21.6 32.2,21.6 
		32.2,13.3 34,13.3 	"/>
	<polygon class="st0" points="40.6,13.3 42.3,13.3 42.3,20.1 46.2,20.1 46.2,21.6 40.6,21.6 	"/>
	<polygon class="st0" points="53.4,13.3 53.4,14.8 49.4,14.8 49.4,16.7 53,16.7 53,18.1 49.4,18.1 49.4,20.1 53.4,20.1 53.4,21.6 
		47.7,21.6 47.7,13.3 	"/>
	<g>
		<path class="st0" d="M58.3,14.8h-1.6v2.5h1.6c0.9,0,1.3-0.5,1.3-1.2C59.7,15.3,59.2,14.8,58.3,14.8 M56.8,18.8v2.9H55v-8.4h3.4
			c1.8,0,3,0.9,3,2.7c0,1.8-1.2,2.7-3,2.7H56.8z"/>
	</g>
	<rect x="62.5" y="13.3" class="st0" width="1.8" height="8.4"/>
	<polygon class="st0" points="71.8,13.3 71.8,14.8 67.9,14.8 67.9,16.7 71.5,16.7 71.5,18.1 67.9,18.1 67.9,20.1 71.8,20.1 
		71.8,21.6 66.1,21.6 66.1,13.3 	"/>
	<g>
		<path class="st0" d="M75.2,17.1h1.6c0.9,0,1.3-0.5,1.3-1.2c0-0.7-0.4-1.2-1.3-1.2h-1.6L75.2,17.1L75.2,17.1z M75.2,18.5v3.1h-1.7
			v-8.4h3.5c1.8,0,2.9,0.9,2.9,2.7c0,1.3-0.7,2.2-1.9,2.5l2.2,3.2h-2l-2.1-3.1C76.1,18.5,75.2,18.5,75.2,18.5z"/>
		<path class="st0" d="M83.1,17.1h1.6c0.9,0,1.3-0.5,1.3-1.2c0-0.7-0.4-1.2-1.3-1.2h-1.6V17.1z M83.1,18.5v3.1h-1.7v-8.4h3.5
			c1.8,0,2.9,0.9,2.9,2.7c0,1.3-0.7,2.2-1.9,2.5l2.2,3.2h-2L84,18.5C84,18.5,83.1,18.5,83.1,18.5z"/>
	</g>
	<polygon class="st0" points="95,13.3 95,14.8 91,14.8 91,16.7 94.6,16.7 94.6,18.1 91,18.1 91,20.1 95,20.1 95,21.6 89.3,21.6 
		89.3,13.3 	"/>
</g>
</svg>
