<?xml version="1.0" encoding="utf-8"?>
<!-- Generator: Adobe Illustrator 26.0.1, SVG Export Plug-In . SVG Version: 6.00 Build 0)  -->
<svg version="1.1" id="Layer_1" xmlns="http://www.w3.org/2000/svg" xmlns:xlink="http://www.w3.org/1999/xlink" x="0px" y="0px"
	 viewBox="0 0 95 35" style="enable-background:new 0 0 95 35;" xml:space="preserve">
<style type="text/css">
	.st0{fill:#CCCCCC;}
</style>
<g>
	<path class="st0" d="M4.7,5.7v5.7h1V5.7H4.7z M6.3,7.1v4.4h4.6v11.4h4.2V7.1H6.3z M0,7.1v15.8h8.8v-4.4H4.2V7.1H0z M9.4,18.5v5.8h1
		v-5.8H9.4z"/>
	<path class="st0" d="M20.6,6.6v17.1h3.7V6.6H20.6z M85.9,6.6v5.7c-0.8-0.6-2.1-0.7-2.1-0.7c-4-0.1-5.7,3.3-5.7,5.9
		c0,3.5,2.3,6.3,5.7,6c0.8-0.1,1.4-0.4,2.1-0.9v1.1h3.9V6.6H85.9z M31,10.7c-3,0-6,2.5-6,6.4c0,4.4,2.8,7,6.4,6.9
		c2.8-0.1,4.7-1.9,5.4-4.3H33c-0.2,0.4-0.7,0.9-1.8,0.9c-1.4,0-2.2-1.1-2.2-2.1H37C37.5,13.9,34.5,10.7,31,10.7L31,10.7z M58.1,11
		c-1.9,0-3.5,1.5-3.5,1.5v-1.3h-4v12.5h4v-6.4c0-3.1,3.5-3.3,3.5-3.3L58.1,11z M59,11v2.9c0,0,0.3-0.1,1.8,0
		c1.8,0.1,1.6,1.6,1.6,1.6s-0.9-0.5-2.2-0.6c-1.4,0-4.2,0.8-4.2,4.5c0,3.3,2.6,4.2,4.2,4.2c1.5,0,2.4-0.7,2.4-0.7v0.8h3.6v-8.5
		c0-1.6-0.3-2.1-1.1-2.9C64,11.1,61.5,11,61.5,11L59,11z M45.9,11.2v1.3c-2.6-2.6-8.5-0.7-8.3,5.1c0.2,5.5,6,7.1,8.3,5v1.4
		c0,1.7-2,1.6-2,1.6c-1.8-0.1-2.2-1.2-2.2-1.2h-4.5c0.9,6.2,11.9,6.5,12.4,0.5V11.2H45.9z M67,11.2v12.5h3.8v-7.4
		c0-1.8,2.8-1.9,2.8,0v7.4h3.8v-9.3c0-1.9-2.5-4.7-6.6-2v-1.2H67z M31,14c1.1,0,1.9,0.8,2.1,1.8h-4.1C29,14.8,29.9,14,31,14L31,14z
		 M43.5,15c1.3,0,2.4,1.1,2.4,2.4c0,1.3-1.1,2.4-2.4,2.4c-1.3,0-2.4-1.1-2.4-2.4C41.1,16.1,42.2,15,43.5,15L43.5,15z M83.8,15.1
		c1.3,0,2.4,1.1,2.4,2.4c0,1.3-1.1,2.4-2.4,2.4l0,0c-1.3,0-2.4-1.1-2.4-2.4C81.4,16.2,82.4,15.1,83.8,15.1L83.8,15.1z M61,17.5
		c0.9,0,1.6,0.7,1.6,1.6c0,0.9-0.7,1.6-1.6,1.6c-0.9,0-1.6-0.7-1.6-1.6C59.4,18.2,60.1,17.5,61,17.5L61,17.5z"/>
	<path class="st0" d="M92.8,6.6c-1.2,0-2.2,1-2.2,2.2c0,1.2,1,2.2,2.2,2.2C94,11,95,10,95,8.8C95,7.6,94,6.6,92.8,6.6z M92.8,6.9
		c1,0,1.9,0.8,1.9,1.9c0,1-0.8,1.8-1.9,1.8c-1,0-1.9-0.8-1.9-1.8C91,7.8,91.8,6.9,92.8,6.9z M92,7.6v2.3h0.3v-1H93
		c0.4,0,0.4,0.2,0.4,0.4c0,0.1,0,0.4,0.1,0.6h0.4V9.9c-0.1-0.1-0.1-0.1-0.1-0.2l0-0.4c0-0.3-0.1-0.4-0.3-0.4
		c0.1-0.1,0.3-0.2,0.3-0.5c0-0.5-0.4-0.6-0.8-0.6H92z M92.3,7.9H93c0.2,0,0.4,0,0.4,0.4c0,0.3-0.2,0.4-0.5,0.4h-0.7V7.9z"/>
</g>
</svg>
