<?xml version="1.0" encoding="utf-8"?>
<!-- Generator: Adobe Illustrator 26.0.1, SVG Export Plug-In . SVG Version: 6.00 Build 0)  -->
<svg version="1.1" id="Layer_1" xmlns="http://www.w3.org/2000/svg" xmlns:xlink="http://www.w3.org/1999/xlink" x="0px" y="0px"
	 viewBox="0 0 95 35" style="enable-background:new 0 0 95 35;" xml:space="preserve">
<style type="text/css">
	.st0{fill:#343741;}
</style>
<g>
	<g id="g16351">
		<path id="path16357" class="st0" d="M36.7,14.3c0-0.4,0-4.2,0-4.2c0-0.3-0.3-0.4-0.1-0.4c0.2,0,0.9,0,0.9,0c0.2,0-0.1,0.1-0.1,0.4
			c0,0.2,0,4.2,0,4.2c0,0.5,0,0.5,0.8,0.5c0.3,0,1.2,0.1,2-0.9c0.2-0.3,0.2-0.1,0.2-0.1s-0.1,0.9-0.2,1c0,0.1-0.1,0.1-0.2,0.1
			s-3.4,0-3.4,0c-0.2,0-0.1,0,0-0.2C36.7,14.7,36.7,14.3,36.7,14.3"/>
		<path id="path16359" class="st0" d="M41.4,10.5c0.1,0.1,1.8,4.5,1.8,4.5c0,0,0,0,0,0s0.4,0,0.4,0c0,0,0.1,0,0.1,0
			c0,0,1.5-3.9,1.6-4.1c0.1-0.2,0.4-0.8,0.6-1c0.2-0.1-0.1-0.1-0.1-0.1s-0.9,0-1,0c-0.1,0-0.2,0,0,0.2c0.3,0.5,0.1,1,0.1,1l-1.2,3.4
			c0,0-1.5-3.8-1.5-3.9c0-0.1,0-0.3,0-0.4c0.2-0.2,0.1-0.2,0-0.2c-0.1,0-1,0-1.2,0C40.8,9.8,41.2,9.9,41.4,10.5"/>
		<path id="path16361" class="st0" d="M48.2,10.5c0,0.6-0.3,3.4-0.5,3.7c-0.1,0.3-0.3,0.6-0.3,0.7c-0.1,0.1-0.1,0.1,0,0.1
			c0,0,0.7,0,0.8,0c0.2,0,0-0.2,0-0.2s-0.1-0.2-0.1-0.6c0-0.2,0.4-3.7,0.4-3.7s1.6,4.3,1.7,4.5c0.1,0.2,0.1,0.2,0.2,0
			c0-0.1,1.7-4.6,1.7-4.6s0.4,3.5,0.4,3.8c0,0.3,0,0.5,0,0.6c0,0.2-0.2,0.2,0,0.2c0.2,0,0.9,0,1,0c0.1,0,0.1,0,0.1-0.1
			c0-0.1-0.2-0.2-0.3-0.8c-0.1-0.5-0.3-3.7-0.4-3.9c0-0.5,0.3-0.5,0.1-0.5c0,0-0.9,0-0.9,0S52,9.8,52,9.9c0,0.1-1.4,4-1.4,4L49,9.7
			c0,0-0.7,0-1,0C47.8,9.8,48.2,9.8,48.2,10.5"/>
		<path id="path16363" class="st0" d="M60.4,9.8C60.4,9.8,60.4,9.8,60.4,9.8c-0.1-0.1-0.9-0.1-0.9-0.1c-0.2,0-0.1,0.1-0.1,0.1
			s0.1,0.2,0.1,0.4v2H57c0,0,0-1.7,0-1.8c0-0.3,0.1-0.4,0.1-0.5c0.1-0.1,0-0.1-0.1-0.1c0,0-0.6,0-0.8,0c-0.2,0-0.2,0-0.1,0.1
			c0,0,0.1,0.1,0.1,0.5c0,0,0,3.9,0,4c0,0.3,0,0.5-0.1,0.5c-0.1,0.1,0,0.1,0,0.1s0.8,0,0.9,0s0,0,0,0S57,15,57,14.4v-2h2.5
			c0,0,0,1.9,0,2c0,0.3,0,0.5-0.1,0.5c0,0-0.2,0.1,0.1,0.1c0.1,0,0.8,0,0.9,0c0.1,0,0.2,0,0.1-0.1c0,0-0.1-0.1-0.1-0.5
			c0-0.1,0-4.1,0-4.2C60.3,9.9,60.4,9.8,60.4,9.8"/>
	</g>
	<path id="path16365" class="st0" d="M18.7,24.9C18.7,24.9,18.7,24.8,18.7,24.9"/>
	<path class="st0" d="M16.4,20.1h-3.5c0,0,0,0,0,0.1v0.3c0,0,0,0.1,0.1,0.1h1.4c0,0,0.1,0,0.1,0.1v4.2v0c0,0,0,0.1,0,0.1h0.3
		c0,0,0.1,0,0.1-0.1v-4.2l0,0c0,0,0-0.1,0-0.1h1.5c0,0,0.1,0,0.1-0.1L16.4,20.1C16.5,20.2,16.5,20.1,16.4,20.1z"/>
	<path class="st0" d="M12.7,24.5h-1.9c0,0-0.1,0-0.1-0.1v-1.7h2c0,0,0.1,0,0.1-0.1v-0.3c0,0,0-0.1-0.1-0.1h-2v-1.7
		c0,0,0-0.1,0.1-0.1h1.9c0,0,0.1,0,0.1-0.1v-0.3c0,0,0-0.1-0.1-0.1h-2.4c0,0-0.1,0-0.1,0.1v4.6c0,0,0,0.1,0.1,0.1h2.3
		c0,0,0.1,0,0.1-0.1L12.7,24.5C12.7,24.5,12.7,24.5,12.7,24.5z"/>
	<path class="st0" d="M25,24.5h-1.9c0,0-0.1,0-0.1-0.1v-1.7h2c0,0,0.1,0,0.1-0.1v-0.3c0,0,0-0.1-0.1-0.1h-2v-1.7c0,0,0-0.1,0.1-0.1
		H25c0,0,0.1,0,0.1-0.1v-0.3c0,0,0-0.1-0.1-0.1h-2.4c0,0-0.1,0-0.1,0.1v4.6c0,0,0,0.1,0.1,0.1H25c0,0,0.1,0,0.1-0.1L25,24.5
		C25.1,24.5,25.1,24.5,25,24.5z"/>
	<path class="st0" d="M37.7,24.5h-1.9c0,0-0.1,0-0.1-0.1v-1.7h2c0,0,0.1,0,0.1-0.1v-0.3c0,0,0-0.1-0.1-0.1h-2v-1.7
		c0,0,0-0.1,0.1-0.1h1.9c0,0,0.1,0,0.1-0.1v-0.3c0,0,0-0.1-0.1-0.1h-2.4c0,0-0.1,0-0.1,0.1v4.6c0,0,0,0.1,0.1,0.1h2.3
		c0,0,0.1,0,0.1-0.1L37.7,24.5C37.7,24.5,37.7,24.5,37.7,24.5z"/>
	<path id="path16391" class="st0" d="M11,19.9c0.2,0,0.3-0.1,0.3-0.3c0-0.2-0.1-0.3-0.3-0.3c-0.2,0-0.3,0.1-0.3,0.3
		S10.9,19.9,11,19.9"/>
	<path id="path16393" class="st0" d="M12,19.9c0.2,0,0.3-0.1,0.3-0.3c0-0.2-0.1-0.3-0.3-0.3c-0.2,0-0.3,0.1-0.3,0.3
		S11.8,19.9,12,19.9"/>
	<path class="st0" d="M21.9,20.2C21.9,20.2,21.9,20.1,21.9,20.2l-0.4-0.1c0,0-0.1,0-0.1,0.1v2.1h-2.8v-2.1c0,0,0-0.1-0.1-0.1h-0.3
		c0,0-0.1,0-0.1,0.1v4.6c0,0,0,0.1,0.1,0.1h0.3c0,0,0.1,0,0.1-0.1v-2.1h2.8v2.1c0,0,0,0.1,0.1,0.1h0.3c0,0,0.1,0,0.1-0.1V20.2z"/>
	<path id="path16401" class="st0" d="M26.2,20.9v3.9c0,0,0,0.1-0.1,0.1h-0.3c0,0-0.1,0-0.1-0.1v-4.6c0,0,0-0.1,0.1-0.1h0.4l3.1,4.1
		v-4c0,0,0-0.1,0.1-0.1h0.3c0,0,0,0,0,0.1v4.6c0,0,0,0.1-0.1,0.1h-0.3c0,0-0.1,0-0.1,0L26.2,20.9"/>
	<path id="path16403" class="st0" d="M30.8,20.9v3.9c0,0,0,0.1-0.1,0.1h-0.3c0,0-0.1,0-0.1-0.1v-4.6c0,0,0-0.1,0.1-0.1h0.4l3.1,4.1
		v-4c0,0,0-0.1,0.1-0.1h0.3c0,0,0,0,0,0.1v4.6c0,0,0,0.1-0.1,0.1H34c0,0-0.1,0-0.1,0L30.8,20.9"/>
	<g id="g16407">
		<path id="path16413" class="st0" d="M39.2,25c-0.4,0-0.8-0.1-1.2-0.5l0.3-0.3c0.6,0.5,1.3,0.4,1.6,0.1c0.2-0.2,0.3-0.4,0.2-0.6
			c0-0.2-0.1-0.5-0.5-0.7l-1.1-0.8h0c-0.3-0.3-0.5-0.6-0.5-0.9c0-0.3,0.2-0.6,0.4-0.8c0.5-0.4,1.3-0.5,2,0.1l-0.3,0.3
			c-0.6-0.5-1.1-0.4-1.4-0.1c-0.2,0.2-0.3,0.3-0.3,0.5c0,0.2,0.1,0.4,0.3,0.6l1.1,0.8c0.4,0.3,0.6,0.7,0.6,1c0,0.4-0.1,0.7-0.4,0.9
			C40,24.9,39.6,25,39.2,25z M41.9,25c-0.4,0-0.8-0.1-1.2-0.5l0.3-0.3c0.6,0.5,1.3,0.4,1.6,0.1c0.2-0.2,0.3-0.4,0.2-0.6
			c0-0.2-0.1-0.5-0.5-0.7l-1.1-0.8h0c-0.3-0.3-0.5-0.6-0.5-0.9c0-0.3,0.2-0.6,0.4-0.8c0.5-0.4,1.3-0.5,2,0.1l-0.3,0.3
			c-0.6-0.5-1.1-0.4-1.4-0.1c-0.2,0.2-0.2,0.3-0.2,0.5c0,0.2,0.1,0.4,0.3,0.6l1.1,0.8h0c0.4,0.3,0.6,0.7,0.6,1
			c0,0.4-0.1,0.7-0.4,0.9C42.7,24.9,42.3,25,41.9,25z"/>
	</g>
	<path class="st0" d="M47.1,20.2h-0.6L45.1,22l-1.4-1.8h-0.6l1.7,2.2v2.3c0,0,0,0.1,0.1,0.1h0.3c0,0,0.1,0,0.1-0.1v-2.3h0L47.1,20.2
		z"/>
	<path id="path16417" class="st0" d="M48.4,24.1C48.4,24.1,48.3,24.2,48.4,24.1c-0.1,0.1,0,0.1,0,0.1V24.1"/>
	<path id="path16419" class="st0" d="M49.7,24.2C49.8,24.2,49.8,24.2,49.7,24.2c0.1-0.1,0-0.1,0-0.1V24.2"/>
	<path id="path16421" class="st0" d="M49,25C49,25.1,49,25.1,49,25c0.1,0.1,0.1,0,0.1,0H49"/>
	<path id="path16423" class="st0" d="M49.1,23.4C49.1,23.4,49.1,23.3,49.1,23.4c-0.1-0.1-0.1,0-0.1,0H49.1"/>
	<path id="path16425" class="st0" d="M48.4,24.2l0.7-0.8h0.1l0.7,0.8v0.1l-0.7,0.9H49L48.4,24.2L48.4,24.2"/>
	<path id="path16427" class="st0" d="M52.6,20.2C52.6,20.2,52.6,20.1,52.6,20.2l-0.4-0.1c0,0-0.1,0-0.1,0.1v4.6c0,0,0,0.1,0.1,0.1
		h2.3c0,0,0.1,0,0.1-0.1v-0.3c0,0,0-0.1-0.1-0.1h-1.9c0,0-0.1,0-0.1-0.1L52.6,20.2"/>
	<path class="st0" d="M64.7,24.8L64.7,24.8L64.7,24.8v-4.6c0,0,0-0.1-0.1-0.1h-0.3c0,0-0.1,0-0.1,0.1v4.6l0,0l0,0l0,0l0,0
		c0,0,0,0.1,0.1,0.1L64.7,24.8C64.7,24.9,64.7,24.8,64.7,24.8L64.7,24.8L64.7,24.8z"/>
	<path class="st0" d="M78.8,24.8v-4.6c0,0,0-0.1-0.1-0.1h-0.3c0,0-0.1,0-0.1,0.1v4.6c0,0,0,0.1,0.1,0.1L78.8,24.8
		C78.8,24.9,78.8,24.8,78.8,24.8L78.8,24.8z"/>
	<path class="st0" d="M63.4,20.1H63v3l0,0c0,0.8-0.7,1.5-1.5,1.5c-0.8,0-1.5-0.7-1.5-1.5l0,0v-3h-0.4v3l0,0c0,1.1,0.9,1.9,1.9,1.9
		c1,0,1.9-0.8,1.9-1.9l0,0L63.4,20.1z"/>
	<g id="g16451">
		<path id="path16457" class="st0" d="M66.7,25c-0.4,0-0.8-0.1-1.2-0.5l0.3-0.4c0.6,0.5,1.3,0.4,1.6,0.1c0.2-0.2,0.3-0.4,0.2-0.6
			c0-0.2-0.1-0.5-0.4-0.7h0v0l-1.1-0.8v0h0c-0.3-0.3-0.5-0.6-0.5-0.9c0-0.3,0.2-0.6,0.4-0.8c0.5-0.4,1.3-0.5,2,0.1l-0.3,0.3
			c-0.6-0.5-1.1-0.4-1.4-0.1c-0.2,0.2-0.2,0.3-0.2,0.5s0.1,0.4,0.3,0.6l0,0l1.1,0.8l0,0c0.4,0.3,0.6,0.6,0.6,1
			c0,0.4-0.1,0.7-0.4,0.9C67.4,24.8,67.1,25,66.7,25z"/>
	</g>
	<path id="path16459" class="st0" d="M71.5,24.2l1.6-4.1h0.5l-1.8,4.7h-0.4l-1.8-4.7h0.5L71.5,24.2"/>
	<g>
		<path class="st0" d="M82.7,20.1h-3.5c0,0,0,0,0,0.1v0.3c0,0,0,0.1,0.1,0.1h1.4c0,0,0.1,0,0.1,0.1v4.2c0,0,0,0.1,0,0.1h0.3
			c0,0,0.1,0,0.1-0.1v-4.2l0,0c0,0,0-0.1,0-0.1h1.5c0,0,0.1,0,0.1-0.1L82.7,20.1C82.8,20.2,82.8,20.1,82.7,20.1z"/>
		<path class="st0" d="M86.4,20.1h-3.5c0,0-0.1,0-0.1,0.1v0.3c0,0,0,0.1,0.1,0.1h1.4c0,0,0.1,0,0.1,0.1v4.2c0,0,0,0.1,0.1,0.1h0.3
			c0,0,0.1,0,0.1-0.1v-4.2l0,0c0,0,0-0.1,0-0.1h1.5c0,0,0.1,0,0.1-0.1L86.4,20.1C86.5,20.2,86.4,20.1,86.4,20.1z"/>
	</g>
	<path id="path16469" class="st0" d="M91.9,20.9v3.9c0,0,0,0.1-0.1,0.1h-0.3c0,0-0.1,0-0.1-0.1v-4.6c0,0,0-0.1,0.1-0.1h0.4l3.1,4.1
		v-4c0,0,0-0.1,0.1-0.1h0.3c0,0,0,0,0,0.1v4.6c0,0,0,0.1-0.1,0.1h-0.3c0,0-0.1,0-0.1,0L91.9,20.9"/>
	<g id="g16473">
		<rect x="0.4" y="17.5" class="st0" width="95" height="0.8"/>
	</g>
	<path class="st0" d="M7.4,20.1L7.4,20.1L7.4,20.1C7.4,20.1,7.4,20.1,7.4,20.1L7.4,20.1c-1.4,0.1-2.5,1.1-2.4,2.4
		c0,1.3,1.1,2.4,2.4,2.4c1.3,0,2.4-1.1,2.4-2.4C9.8,21.2,8.8,20.1,7.4,20.1z M7.4,24.4c-1.1,0-1.9-0.9-1.9-1.9c0-1,0.8-1.9,2-2h0
		c1.1,0.1,1.9,0.9,1.9,2C9.3,23.6,8.5,24.4,7.4,24.4z"/>
	<path class="st0" d="M56.8,20.1L56.8,20.1L56.8,20.1C56.8,20.1,56.8,20.1,56.8,20.1L56.8,20.1c-1.4,0.1-2.5,1.1-2.4,2.4
		c0,1.3,1.1,2.4,2.4,2.4s2.4-1.1,2.4-2.4C59.2,21.2,58.2,20.2,56.8,20.1z M56.8,24.5c-1.1,0-1.9-0.9-1.9-1.9c0-1,0.8-1.9,2-2h0
		c1.1,0.1,1.9,0.9,1.9,2C58.8,23.6,57.9,24.5,56.8,24.5z"/>
	<path class="st0" d="M88.5,20.1L88.5,20.1C88.5,20.1,88.5,20.1,88.5,20.1C88.5,20.1,88.5,20.1,88.5,20.1L88.5,20.1
		c-1.4,0.1-2.5,1.1-2.4,2.4c0,1.3,1.1,2.4,2.4,2.4s2.4-1.1,2.4-2.4C90.9,21.2,89.9,20.2,88.5,20.1z M88.5,24.5
		c-1.1,0-1.9-0.9-1.9-1.9c0-1,0.8-1.9,2-2h0c1.1,0.1,1.9,0.9,1.9,2C90.4,23.6,89.6,24.5,88.5,24.5z"/>
	<path class="st0" d="M4.6,20.1H4.2l-1.6,2l0,0l-1.6-2H0.5c0,0-0.1,0-0.1,0.1v4.6c0,0,0,0,0.1,0h0.3c0.1,0,0.1,0,0.1-0.1v-4l1.6,1.9
		c0,0,0.2,0,0.2,0l1.6-1.9v4c0,0,0,0.1,0.1,0.1h0.3c0,0,0.1,0,0.1,0L4.6,20.1C4.6,20.2,4.6,20.1,4.6,20.1z"/>
	<path class="st0" d="M77.5,20.1H77v3c0,0.8-0.7,1.5-1.5,1.5c-0.8,0-1.5-0.7-1.5-1.5v-3h-0.4v3l0,0c0,1.1,0.9,1.9,1.9,1.9
		c1.1,0,1.9-0.9,1.9-1.9L77.5,20.1z"/>
</g>
</svg>
