<?xml version="1.0" encoding="utf-8"?>
<!-- Generator: Adobe Illustrator 26.0.1, SVG Export Plug-In . SVG Version: 6.00 Build 0)  -->
<svg version="1.1" id="Layer_1" xmlns="http://www.w3.org/2000/svg" xmlns:xlink="http://www.w3.org/1999/xlink" x="0px" y="0px"
	 viewBox="0 0 95 35" style="enable-background:new 0 0 95 35;" xml:space="preserve">
<style type="text/css">
	.st0{fill:#FFFFFF;}
</style>
<g>
	<path class="st0" d="M36.4,34.7c-0.2,0-1.4,0.3-2.7,0.3c-2.3,0.1-4.4-0.9-4.4-2.6c0-2.9,2.9-4.5,5.1-5c1-0.2,2.9-0.4,4.8,0L38,30.1
		c-0.3-0.7-1.1-0.7-1.5-0.7c-0.8,0-1.5,0.2-1.9,0.4c-1.1,0.5-2.1,2.1-0.5,2.8c0.9,0.3,2,0.1,3.1-0.1L36.4,34.7z"/>
	<path class="st0" d="M82.1,27.4l-1.9,5.1c0-0.5,0.1-2.6,0.2-3.7c0-0.5-0.1-0.9-0.3-1.1c-0.3-0.3-0.7-0.3-0.7-0.3h-4.2l-2.7,7.5h3
		l1.9-5.3l-0.2,5.3h5.1l2.7-7.5L82.1,27.4z"/>
	<path class="st0" d="M64.7,27.4h-3.5l-2.7,7.5h7.1l0.9-2.5h-3.5L64.7,27.4z"/>
	<path class="st0" d="M51.7,27.4l-2.7,7.5h7.6l0.7-2h-4.2l0.3-0.8h3.9l0.7-1.8H54l0.3-0.8h4.1l0.7-2L51.7,27.4z"/>
	<path class="st0" d="M46.2,27.4l-1,2.7h-1.8l1-2.7h-3.4l-2.7,7.5h3.4l0.9-2.5h1.8l-0.9,2.5h3.4l2.7-7.5L46.2,27.4z"/>
	<path class="st0" d="M25.7,27.4L23,34.8h3.6l2.7-7.5H25.7z"/>
	<path class="st0" d="M20.9,34.8l2.7-7.5h-5.1l-2.6,4c0,0,0.2-2.1,0.2-2.6c0-0.4,0-1.4-1-1.4H11l-2.7,7.5h3.3l2-5.4l-0.4,5.4H16
		l3.6-5.3l-1.9,5.3H20.9z"/>
	<path class="st0" d="M69.6,27.4l-2.7,7.5h3.6l2.7-7.5H69.6z"/>
</g>
<path class="st0" d="M70.5,6.4L70.5,6.4c-0.2-0.5-0.6-1-1.2-1.1c-0.2-0.5-0.7-0.8-1.3-0.8c-0.1,0-0.2,0-0.3,0c0,0-0.2,0-1.3,0.3
	l-1.6,0.4c0.1-0.4,0.1-0.8-0.1-1.2c-0.2-0.5-0.7-0.8-1.2-0.8c-0.2,0-0.3,0-0.5,0.1l0,0c-0.1,0-0.2,0.1-3.1,2c0,0-0.1,0.1-0.1,0.1
	c-1.4,1.2-1.9,2-2.1,2.2c-0.1,0.1-0.2,0.3-0.3,0.5c-0.1,0-0.2-0.1-0.2-0.1c-0.6-0.3-1.2-0.4-1.8-0.4c-1.1,0-1.9,0.4-2.1,0.6
	c-0.1,0.1-0.5,0.3-1.2,0.8c-0.3,0.2-0.5,0.4-0.7,0.7c-0.4,0.1-0.8,0.2-1,0.3c-0.3,0.2-0.6,0.4-1,0.7l0,0c-0.1,0-0.1,0.1-0.2,0.1
	c-0.1,0.1-0.5,0.4-0.9,0.9l0,0c-0.1,0-0.5,0.1-1.1,0.4c-0.1,0.1-0.3,0.1-0.4,0.2c-0.3,0-0.9,0.1-1.5,0.3l0,0c-0.1,0-0.6-0.1-1.2-0.1
	c-0.3,0-0.5,0-0.8,0.1c-0.2,0-0.7,0.1-1.1,0.2c-0.2,0.1-0.8,0.2-1.4,0.6c-1.3-0.3-2.7-0.4-3.5-0.4c0.8-1.1,1.2-2.3,1.1-3.4
	c-0.2-2-1.6-3.2-2.1-3.6c-0.9-3.5-3.3-5-5.3-5.3c-0.4-0.5-1.2-0.8-2-0.8c-0.3,0-0.7,0-1,0.1c-1.1,0.3-1.9,1.1-2.1,2
	c-1.1,0.9-2.8,2.9-2.3,6.5c-0.4,0.6-1.2,2-0.7,4.1c0.4,1.5,1.3,2.5,2.6,3c-1.1,0.5-2,1.1-2.7,1.8c0,0-0.1,0.1-0.1,0.1
	c-1.8,0.1-3.5,0.9-4.8,2.2c-1.4,1.4-2.1,3.1-2.4,4.3l0,0h1.2c0.4-1.4,1.2-2.6,2.1-3.5c0.9-0.9,1.9-1.5,3.1-1.7
	c-0.4,0.6-0.8,1.2-1,1.9c-0.6,1.5-0.7,2.8-0.6,3.4h1c0-0.5,0-1.7,0.6-3.1c0.4-1,1.1-2,1.9-2.8c0.8-0.7,1.7-1.3,2.8-1.8
	c0.1,0,0.3-0.1,0.6-0.1c0.5,0,1.3,0.2,1.8,0.1c0.1,0,0.2-0.1,0-0.2c-0.1,0-0.7-0.3-0.7-0.6c0,0,0,0,0,0c0-0.1,0.1-0.2,0.3-0.2
	c0.8-0.1,1.2-0.2,1.4-0.2c0.1,0,0.2,0,0.2-0.1c0-0.1,0-0.1-0.2-0.1c-1.3,0.1-2.9-0.2-3.6-0.4c-1.2-0.4-2-1.2-2.3-2.4
	c-0.4-1.4,0-2.5,0.5-3.1c0.2-0.3,0.6-0.7,0.8-0.8c0.3-0.3,0.1-0.2-0.3-0.2c-0.3,0-0.3-0.1-0.3-0.2c0-0.1,0-0.4,0-0.5
	c0-1.1,0.2-2.1,0.6-2.9c0.4-0.9,1.1-1.5,1.5-1.9c0.2-0.1,0.5-0.3,0.7-0.5c0.3-0.2,0.1-0.3-0.3-0.2c0,0-0.1,0-0.1-0.1c0,0,0,0,0-0.1
	C26.9,2.1,27,2,27,1.9c0.2-0.3,0.6-0.6,1.1-0.7C29,1,29.8,1.2,30,1.5c0,0,0,0.1,0,0.1c-0.2,0.1-0.3,0.2,0,0.2c0.1,0,0.3,0,0.7,0
	c0,0,0,0,0,0c1.6,0.2,3.5,1.3,4.3,4c0,0.1,0,0.2,0.1,0.3c0,0.1,0,0.2,0.1,0.3c-0.2,0-0.3,0.2-0.1,0.2c0.1,0,0.3,0.1,0.4,0.2
	c0,0,0,0,0,0c0,0,0,0,0,0l0.1,0c0,0,0.1,0.1,0.2,0.1c0.7,0.6,1.4,1.5,1.5,2.7c0.1,1-0.4,2.1-1.1,2.9c-0.3,0.3-0.7,0.7-1.5,1.2
	c-0.2,0.1,0,0.2,0.9-0.1c0.1,0,0.2-0.1,0.3,0c0.1,0.1,0.1,0.5-0.2,0.8c-0.3,0.4,0.1,0.2,0.7-0.2c0.1-0.1,0.2-0.2,0.2-0.3
	c0.5,0,1.9,0,3.4,0.3c-0.3,0.3-0.6,0.7-0.8,1.1c-0.7,1.3-0.9,2.7-0.6,4.1c0.2,0.9,0.7,2.1,1.4,2.9c0.5,0.5,1.2,1.2,2.6,1.6
	c0.4,0.1,0.9,0.2,1.4,0.2h1.5c0.2,0,0.6-0.1,1-0.3c0.5-0.2,0.9-0.4,1.2-0.7c0.6-0.1,1.1-0.2,1.4-0.4c0,0,0.1,0,0.1,0
	c0.5-0.2,1.8-0.8,2.2-1.7c0.9-0.4,1.6-0.8,2-1.4c0.8-0.1,1.4-0.5,1.8-0.7c0.8-0.5,1.4-0.9,1.7-1.4c0.3-0.4,0.5-0.7,0.6-1
	c0.3-0.1,0.6-0.3,1-0.6c1.4-0.9,1.7-2.7,1.7-2.9c0,0,0-0.1,0-0.1c0.1,0,0.1,0,0.2,0c1.4,0,3.3-0.9,4.3-1.4l0,0
	c0.2-0.1,0.3-0.1,0.4-0.2c0.3-0.1,1-0.5,1.7-1c0.9-0.6,1.5-1.2,1.8-1.7c0.1-0.1,0.1-0.2,0.1-0.3l0.6-0.4c0.2-0.1,0.3-0.3,0.4-0.4
	c0.2-0.1,0.3-0.2,0.3-0.2C70.5,7.4,70.7,6.9,70.5,6.4z M45.2,23.2c-0.1,0-0.7,0.1-1.3,0.1c-0.4,0-0.7,0-1.1-0.1
	c-1.1-0.3-1.7-0.9-2.2-1.4c-0.5-0.5-1-1.6-1.2-2.4c-0.2-0.8-0.2-2.1,0.5-3.5c0.7-1.4,2.1-2,2.5-2.1c0.4-0.1,1-0.2,1-0.2
	c0,0,0.1,0,0.1,0c-0.4,0.3-0.8,0.8-1.1,1.2c-0.4,0.7-0.7,1.5-0.8,2.2c-0.1,0.8,0,1.6,0.3,2.4c0.2,0.8,0.6,1.4,1.1,2
	c0.5,0.5,1.1,1,1.7,1.3c0.3,0.1,0.6,0.3,0.9,0.3C45.5,23.1,45.3,23.2,45.2,23.2z M48.7,21.8c-0.4,0.1-1,0.4-2,0.4h-0.1
	c-1,0-2.1-0.5-2.9-1.4c-0.8-0.9-1.3-2.3-1.1-3.6c0.1-1.3,0.9-2.5,1.9-3.1c0.2-0.1,0.5-0.3,0.7-0.3c0.1,0,0.2-0.1,0.3-0.1
	c0,0,0,0-0.1,0.1c-1,1.5-0.9,3.4-0.4,4.5c0.3,0.6,0.5,1.1,0.9,1.5c0.5,0.6,1,1,1.6,1.3c0.6,0.3,1.2,0.4,1.8,0.4c0.1,0,0.1,0,0.2,0
	C49.3,21.6,48.9,21.8,48.7,21.8z M50.7,20.2c-0.4,0.1-0.8,0.2-1.3,0.2c-0.4,0-0.9-0.1-1.4-0.3c-1.1-0.5-1.7-1.4-2-2.2
	c-0.4-0.8-0.4-2.4,0.4-3.6c0.4-0.6,1.1-1,1.6-1.3c-0.3,0.9-0.5,2.4,0.6,4.1l0,0l0,0c0.5,0.8,1.2,1.5,2,1.9c0.5,0.3,1,0.4,1.5,0.5
	C51.5,19.9,51.1,20.1,50.7,20.2z M54.6,18.1c-0.4,0.2-1,0.6-1.8,0.6c0,0-0.1,0-0.1,0c-1.2,0-2.5-0.6-3.5-2c-1.6-2.7,0.2-4.6,0.7-5
	c0.4-0.3,0.7-0.6,1-0.7c-0.1,0.4-0.2,0.6-0.2,0.7c-0.1,0.7,0,1.6,0.3,2.4c0.4,1,1.1,1.9,2,2.4c0.8,0.4,1.5,0.7,2.3,0.7
	c0.2,0,0.4,0,0.6,0C55.5,17.5,54.9,17.9,54.6,18.1z M69.5,6.9c-0.1,0.1-0.2,0.1-0.3,0.2c0,0,0,0,0,0c-0.2-0.3-0.4-0.5-0.7-0.5
	c-0.4-0.1-0.9,0.1-1.7,0.5c-1,0.7-2.6,1-2.6,1c-0.1,0-0.2,0.1-0.2,0.2c0,0.1,0.1,0.2,0.2,0.2c0,0,0,0,0,0c0.1,0,1.7-0.4,2.8-1.1
	c0.6-0.4,1-0.5,1.3-0.5c0.1,0,0.3,0.1,0.4,0.3c0.1,0.2,0,0.3,0,0.3c0,0-0.5,0.3-0.7,0.5c-0.1-0.1-0.3-0.3-0.7-0.3
	c-0.4,0-0.7,0.1-1.1,0.5c-0.9,0.9-1.9,1.2-2,1.2c-0.1,0-0.2,0.1-0.1,0.3c0,0.1,0.1,0.2,0.2,0.2c0,0,0,0,0.1,0c0,0,1.1-0.3,2.1-1.3
	c0.3-0.3,0.6-0.4,0.8-0.4c0.2,0,0.4,0.2,0.4,0.2c0,0,0.1,0.1,0,0.2c-0.6,0.9-2.6,2-3.1,2.3c-0.4,0.2-2.1,1.1-3.5,1.4
	c-0.1,0-0.3,0.1-0.5,0.1c0,0,0,0,0,0c-0.2,0-1.1,0-1.4-0.3c-0.4-0.4-0.5-0.1-0.4,0.4c-0.4,0.3-1.1,0.7-1.3,0.8c-0.5,0.3-1,0-1.2,0
	c-0.2,0,0.3,0.7,0.8,0.8c0.5,0.1,1.5-0.5,1.5-0.5l0.4-0.2v0c0,0-0.2,1.4-1.3,2.1c-0.6,0.4-0.9,0.6-1.2,0.7c-0.2,0.1-0.7,0.3-1.4,0.3
	c-0.5,0-1.1-0.1-1.8-0.5c-1.7-1-2-2.9-1.9-3.8c0,0,0.2-1.3,1.2-2c0.7-0.5,1.1-0.7,1.1-0.7s0.6-0.4,1.5-0.4c0.4,0,0.9,0.1,1.3,0.3
	c-0.1,0.1-0.3,0.2-0.3,0.3c-0.2,0.3-0.5,0.9-0.3,0.9c0.1,0,0.2-0.3,0.7-0.6c0.2-0.1,1.3-0.7,1.3-0.7s0-0.2,0.1-0.3
	c0,0,0.1-0.3,0.4-0.7c0,0,0.1-0.1,0.1-0.2c0.2-0.2,0.3-0.4,0.6-0.7c0.3-0.3,0.7-0.7,1.2-1.1c0,0,2.9-1.9,3-1.9c0,0,0.1,0,0.1,0
	c0.2,0,0.6,0.4,0.2,1c-0.4,0.5-0.8,0.8-1.1,1c-0.1,0.1-0.2,0.2-0.3,0.2c-0.4,0.2-1,0.5-1.1,0.6c-0.1,0.1-0.1,0.2,0,0.1
	c0.4-0.2,1-0.3,1.1-0.3c0.7-0.1,5.4-1.3,5.5-1.3c0,0,0.1,0,0.1,0c0.2,0,0.4,0.1,0.5,0.4c0,0,0,0,0,0l-4.4,1.3
	c-0.1,0-0.2,0.1-0.1,0.3c0,0.1,0.1,0.1,0.2,0.1c0,0,0.1,0,0.1,0l3.9-1.2c0.1,0,0.2-0.1,0.5-0.2l0,0c0.1,0,0.2,0,0.2,0
	c0.4,0,0.6,0.3,0.7,0.5C69.7,6.8,69.6,6.8,69.5,6.9z"/>
<path class="st0" d="M34.2,5.9c0-0.1-0.1-0.2-0.1-0.3c-0.1-0.3-0.3-0.6-0.4-0.8c-0.3-0.4-0.8-0.6-1.2-0.4c-0.4,0.1-0.7,0.5-0.7,1.1
	c0,0.4,0.1,0.9,0.2,1.2h0c0,0,0,0,0,0l0,0l0,0c0,0,0,0.1,0,0.1c0,0.1,0,0.1,0,0.1l0,0c0.1,0.2,0.2,0.4,0.3,0.6
	c0.2,0.2,0.4,0.4,0.7,0.5l0,0l0,0c0,0,0,0,0,0c0,0,0,0,0,0c0,0,0,0,0,0c0.1,0,0.1,0,0.2,0c0.1,0,0.2,0,0.3,0l0,0
	c0.1,0,0.3-0.1,0.4-0.1c0.2-0.1,0.3-0.3,0.4-0.5c0.1-0.2,0.1-0.3,0.1-0.5C34.3,6.5,34.3,6.2,34.2,5.9z M34,7.3
	c0,0.1-0.1,0.3-0.2,0.4c-0.1,0.1-0.2,0.1-0.3,0.1c-0.1,0-0.2,0-0.3,0c-0.1,0-0.1,0-0.2,0h0c0,0,0,0,0,0c0,0,0,0,0,0h0
	c-0.2-0.1-0.4-0.3-0.5-0.4c-0.2-0.2-0.3-0.5-0.3-0.7C32,6.3,31.9,6,32,5.8c0-0.3,0-0.5,0.2-0.7c0.1-0.2,0.4-0.3,0.6-0.3
	c0,0,0.1,0,0.1,0c0.3,0.1,0.5,0.3,0.6,0.5c0.1,0.1,0.1,0.2,0.2,0.3C33.5,5.2,33.2,5,33,5c-0.1,0-0.2,0.1-0.3,0.2
	c0.1,0,0.3,0.1,0.3,0.3c0.1,0.2,0,0.4-0.2,0.5c-0.1,0-0.2,0-0.3-0.1c0,0.2,0,0.3,0,0.5c0.1,0.7,0.6,1.1,1,1.1
	c0.4-0.1,0.6-0.7,0.5-1.4c0,0,0,0,0,0c0.1,0.3,0.1,0.5,0.1,0.8C34.1,7,34,7.1,34,7.3z"/>
<path class="st0" d="M32.9,7.8C32.9,7.8,33,7.8,32.9,7.8C33,7.8,32.9,7.8,32.9,7.8C32.9,7.8,32.9,7.8,32.9,7.8"/>
<path class="st0" d="M30.6,6.6c-0.3-0.8-0.6-1.4-1.3-1.5c-0.1,0-0.1,0-0.2,0c-0.3,0-0.6,0.1-0.8,0.3c-0.3,0.2-0.4,0.5-0.5,0.8
	c-0.1,0.3,0,0.7,0,1c0,0.3,0.1,0.7,0.3,1c0.2,0.3,0.4,0.6,0.7,0.8C29,8.9,29.2,9,29.3,9c0.1,0,0.3,0,0.4-0.1c0,0,0.2-0.1,0.4-0.1
	C30.7,8.6,30.9,7.5,30.6,6.6z M30.4,7.9c-0.1,0.3-0.2,0.6-0.4,0.7c-0.1,0-0.3,0.1-0.3,0.1l0,0c-0.1,0-0.3,0.1-0.4,0.1
	c-0.1,0-0.2,0-0.3-0.1c-0.2-0.1-0.4-0.4-0.6-0.7c-0.1-0.1-0.1-0.3-0.2-0.4c-0.1-0.4-0.3-1.7,0.6-1.9c0.7-0.2,1.1,0.3,1.3,0.7
	c0,0,0,0,0,0.1c-0.2-0.4-0.6-0.6-0.9-0.6c-0.1,0-0.3,0.1-0.4,0.2c0.1,0,0.3,0.1,0.3,0.3c0.1,0.2,0,0.4-0.2,0.5c-0.1,0-0.2,0-0.3-0.1
	c0,0.2,0,0.4,0.1,0.5c0.2,0.7,0.7,1.2,1.1,1.1c0.3-0.1,0.5-0.4,0.6-0.8C30.5,7.6,30.5,7.7,30.4,7.9z"/>
<path class="st0" d="M35.1,9.1c0-0.1-0.1-0.2-0.1-0.2c0-0.1-0.2-0.1-0.3-0.1c-0.1,0-0.1,0.1,0,0.1c0,0,0,0,0.1,0
	c0,0-0.1,0.1-0.1,0.1c-0.2,0.2-0.4,0.4-0.6,0.5c-0.5,0.4-1.1,0.6-1.7,0.8c-1,0.3-2,0.5-3,0.4c-0.1,0-0.2,0-0.3,0c0,0-0.1,0-0.1,0
	c-0.1,0-0.2,0.1-0.2,0.3c0,0.1,0.1,0.1,0.2,0.1c0.3,0,0.6,0,0.8,0c0.3,0,0.5,0.2,0.7,0.3c0.3,0.1,0.6,0.2,0.9,0.3
	c0.6,0.1,1.2,0,1.7-0.3c0.3-0.2,0.5-0.4,0.7-0.6c0.1-0.2,0.2-0.4,0.3-0.6c0.1-0.1,0.1-0.2,0.2-0.3c0-0.1,0.4-0.4,0.6-0.6
	c0,0.1,0.1,0.2,0.1,0.1C35.1,9.3,35.2,9.2,35.1,9.1z M33.3,10.8c-0.2,0.2-0.5,0.3-0.7,0.4c-0.3,0.1-0.5,0.1-0.8,0.1
	c-0.3,0-0.6-0.1-0.8-0.2c1-0.1,2-0.4,2.9-0.9C33.6,10.4,33.5,10.7,33.3,10.8z"/>
<path class="st0" d="M29.1,10.5c-0.3,0.2-0.3,0.3-0.4,0.4c0,0.1,0,0.2,0,0.2c0,0,0,0.1,0,0.1h0c0,0,0,0,0,0c0,0-0.1,0-0.1,0
	c0,0,0,0,0-0.1c-0.1-0.2,0-0.5,0.2-0.7c0.1-0.1,0.2-0.1,0.3-0.2c0,0,0.1-0.1,0.2,0C29.2,10.4,29.1,10.5,29.1,10.5"/>
<path class="st0" d="M12.6,23l-0.7,1.9H86l0.7-1.9H12.6z"/>
</svg>
