<?xml version="1.0" encoding="utf-8"?>
<!-- Generator: Adobe Illustrator 26.0.1, SVG Export Plug-In . SVG Version: 6.00 Build 0)  -->
<svg version="1.1" id="Layer_1" xmlns="http://www.w3.org/2000/svg" xmlns:xlink="http://www.w3.org/1999/xlink" x="0px" y="0px"
	 viewBox="0 0 95 35" style="enable-background:new 0 0 95 35;" xml:space="preserve">
<style type="text/css">
	.st0{fill:#CCCCCC;}
</style>
<g>
	<polyline id="polyline3" class="st0" points="51.7,24.9 63.9,24.9 63.9,23.4 53.8,23.4 53.8,18.6 61.4,18.6 61.4,17.1 53.8,17.1 
		53.8,12.7 63.9,12.7 63.9,11.2 51.7,11.2 51.7,24.9 	"/>
	<polyline id="polyline5" class="st0" points="58.1,9 56.4,10.9 61.6,9 58.1,9 	"/>
	<polyline id="polyline7" class="st0" points="84.5,23.4 84.5,11.2 82.6,11.2 82.6,24.9 95,24.9 95,23.4 84.5,23.4 	"/>
	<path id="path9" class="st0" d="M71.9,11.2l-7,13.7h2.4l1.8-3.5h8.4l1.8,3.5h2.3l-7-13.7H71.9 M69.9,19.7l3.3-6.5l3.3,6.5H69.9z"/>
	<path id="path11" class="st0" d="M45,19.2c3.1-0.8,3.4-3.2,3.4-4c-0.2-2.4-1.8-4-4.8-4H35v13.7h2v-5.8h5.6l4.1,5.8h2.5
		C49.2,24.9,46.3,21.1,45,19.2 M43.4,17.6H37v-4.7h6.6c1.5,0,2.4,0.7,2.7,1.6c0.2,0.6,0.1,1.4-0.3,2C45.5,17.4,44.4,17.6,43.4,17.6z
		"/>
	<path id="path13" class="st0" d="M23.2,8.9c-5.6,0-9.4,3.9-9.4,8.7c0,5,4.2,8.5,9.4,8.5c5.2,0,9.3-3.5,9.3-8.5
		C32.5,12.8,28.7,8.9,23.2,8.9 M23.1,24.4c-3.8,0-7-3.1-7-6.8c0-3.7,3-7,7.2-7c4,0,7,3.2,7,7C30.3,21.3,27,24.4,23.1,24.4z"/>
	<polyline id="polyline15" class="st0" points="8.9,16.1 10.3,16.1 12.9,11.2 10.8,11.2 8.9,16.1 	"/>
	<polyline id="polyline17" class="st0" points="1.9,23.4 1.9,11.2 0,11.2 0,24.9 12.4,24.9 12.4,23.4 1.9,23.4 	"/>
</g>
</svg>
