<?xml version="1.0" encoding="utf-8"?>
<!-- Generator: Adobe Illustrator 26.0.1, SVG Export Plug-In . SVG Version: 6.00 Build 0)  -->
<svg version="1.1" id="Layer_1" xmlns="http://www.w3.org/2000/svg" xmlns:xlink="http://www.w3.org/1999/xlink" x="0px" y="0px"
	 viewBox="0 0 95 35" style="enable-background:new 0 0 95 35;" xml:space="preserve">
<style type="text/css">
	.st0{fill:#343741;}
</style>
<g>
	<path class="st0" d="M30,0v35c11.6,0,23.3,0,34.9,0c0-11.7,0-23.3,0-35H30z M36.7,30.1c-0.1,0.4-0.2,0.9-0.5,1.2
		c-0.3,0.4-0.8,0.6-1.3,0.7c-0.5,0.1-1.1,0.1-1.6-0.1c-0.4-0.2-0.8-0.5-1-0.8c-0.3-0.5-0.4-1-0.4-1.6c0-0.6,0.1-1.2,0.5-1.6
		c0.4-0.6,1.1-0.9,1.8-0.9c0.6,0,1.1,0.1,1.6,0.4c0.4,0.3,0.7,0.7,0.8,1.2C36.8,29.1,36.8,29.6,36.7,30.1z M40.3,28.3
		c-0.4,0-0.7,0-1.1,0.2c-0.1,0.1-0.3,0.2-0.3,0.3c0,1.1,0,2.2,0,3.2c-0.4,0-0.9,0-1.3,0c0-1.6,0-3.3,0-4.9c0.4,0,0.8,0,1.2,0
		c0,0.2,0,0.4,0,0.6c0.4-0.4,0.9-0.7,1.5-0.7C40.3,27.4,40.3,27.9,40.3,28.3z M43.8,32c0-0.1-0.1-0.3-0.1-0.4
		C43.4,31.8,43,32,42.6,32c-0.4,0.1-0.8,0.1-1.2-0.1c-0.3-0.1-0.6-0.4-0.7-0.8c-0.1-0.4-0.1-0.9,0.1-1.3c0.2-0.3,0.5-0.5,0.9-0.7
		c0.6-0.3,1.3-0.4,2-0.5c0-0.2,0-0.4-0.1-0.6c-0.2-0.2-0.5-0.2-0.8-0.2c-0.4,0-0.8,0.2-1,0.6c-0.3-0.2-0.6-0.3-0.9-0.5
		c0.3-0.4,0.7-0.7,1.1-0.8c0.5-0.2,1-0.2,1.5-0.1c0.4,0.1,0.9,0.2,1.2,0.6c0.2,0.3,0.3,0.6,0.2,1c0,1.1,0,2.3,0,3.4
		C44.6,32,44.2,32,43.8,32z M50.3,32c-0.4,0-0.9,0-1.3,0c0-1.1,0-2.2,0-3.3c0-0.2,0-0.4-0.2-0.6C48.7,28,48.5,28,48.3,28
		c-0.4,0-0.7,0.3-1,0.5c0,1.2,0,2.3,0,3.5c-0.4,0-0.9,0-1.3,0c0-1.6,0-3.2,0-4.7c0.4-0.1,0.7-0.1,1.1-0.1c0,0.2,0.1,0.4,0.1,0.6
		c0.4-0.3,0.8-0.5,1.2-0.6c0.4-0.1,0.8-0.1,1.2,0.1c0.3,0.1,0.5,0.4,0.6,0.7c0.1,0.2,0.1,0.5,0.1,0.7C50.3,29.7,50.3,30.9,50.3,32z
		 M55.7,31.9c0,0.5-0.1,1-0.4,1.3c-0.4,0.4-0.9,0.5-1.5,0.6c-0.6,0.1-1.3,0-1.8-0.3c-0.3-0.2-0.6-0.5-0.7-0.9
		c0.4-0.1,0.8-0.1,1.3-0.2c0,0.1,0.1,0.3,0.2,0.3C53,33,53.3,33,53.6,33c0.2,0,0.5-0.1,0.7-0.3c0.2-0.2,0.2-0.5,0.2-0.8
		c0-0.2,0-0.4,0-0.6c-0.1,0.2-0.3,0.4-0.5,0.5C53.7,32,53.3,32,53,32c-0.5-0.1-0.9-0.3-1.2-0.7c-0.4-0.5-0.5-1.1-0.5-1.7
		c0-0.6,0.1-1.3,0.5-1.9c0.3-0.4,0.8-0.7,1.3-0.7c0.3,0,0.7,0,1,0.1c0.2,0.1,0.5,0.3,0.6,0.5c0-0.2,0.1-0.4,0.1-0.5
		c0.4,0,0.7,0,1.1,0C55.7,28.7,55.7,30.3,55.7,31.9z M58,30.7c0.1,0.2,0.4,0.4,0.7,0.4c0.3,0,0.6,0,0.8-0.1c0.2-0.1,0.4-0.3,0.5-0.5
		c0.3,0.2,0.6,0.4,0.9,0.5c-0.3,0.5-0.8,0.9-1.4,1c-0.6,0.1-1.2,0.1-1.8-0.1c-0.4-0.2-0.8-0.5-1-0.9c-0.3-0.5-0.3-1.1-0.3-1.7
		c0-0.5,0.2-1.1,0.5-1.5c0.3-0.4,0.8-0.6,1.3-0.7c0.6-0.1,1.2,0,1.7,0.3c0.4,0.3,0.7,0.7,0.8,1.1c0.1,0.4,0.2,0.9,0.1,1.3
		c-1.1,0-2.2,0-3.2,0C57.8,30.1,57.8,30.4,58,30.7z M61.5,25.5c-0.2,0-0.3,0-0.5,0c0,0.5,0,0.9,0,1.4c-0.1,0-0.2,0-0.3,0
		c0-0.5,0-0.9,0-1.4c-0.2,0-0.3,0-0.5,0c0-0.1,0-0.1,0-0.2c0.4,0,0.9,0,1.3,0C61.5,25.4,61.5,25.4,61.5,25.5z M63.6,26.9
		c-0.1,0-0.2,0-0.3,0c0-0.4,0-0.9,0-1.3c-0.2,0.4-0.3,0.9-0.5,1.3c-0.1,0-0.1,0-0.2,0c-0.2-0.4-0.3-0.9-0.5-1.3c0,0.4,0,0.9,0,1.3
		c-0.1,0-0.2,0-0.3,0c0-0.5,0-1.1,0-1.6c0.1,0,0.3,0,0.4,0c0.2,0.4,0.3,0.8,0.5,1.2c0.2-0.4,0.3-0.8,0.5-1.2c0.1,0,0.3,0,0.4,0
		C63.6,25.8,63.6,26.4,63.6,26.9z"/>
	<path class="st0" d="M58.7,27.9c-0.2,0-0.5,0.1-0.6,0.3c-0.2,0.2-0.3,0.5-0.3,0.7c0.7,0,1.3,0,2,0c0-0.3-0.1-0.5-0.2-0.7
		C59.3,28,59,27.9,58.7,27.9z"/>
	<path class="st0" d="M53.3,28c-0.2,0-0.4,0.1-0.5,0.3c-0.2,0.2-0.3,0.5-0.3,0.7c0,0.3,0,0.6,0,0.9c0,0.3,0.1,0.6,0.3,0.8
		c0.2,0.2,0.4,0.2,0.6,0.2c0.2,0,0.5-0.1,0.7-0.3c0.2-0.2,0.3-0.5,0.3-0.7c0-0.3,0.1-0.5,0-0.8c0-0.4-0.1-0.7-0.4-1
		C53.9,28,53.6,27.9,53.3,28z"/>
	<path class="st0" d="M35,28.3c-0.2-0.2-0.6-0.3-0.9-0.2c-0.3,0-0.5,0.2-0.7,0.4c-0.2,0.3-0.3,0.6-0.3,1c0,0.4,0,0.8,0.2,1.1
		c0.1,0.2,0.4,0.4,0.6,0.4c0.3,0.1,0.7,0,0.9-0.2c0.2-0.2,0.4-0.5,0.4-0.8c0.1-0.3,0.1-0.7,0-1C35.4,28.8,35.3,28.5,35,28.3z"/>
	<path class="st0" d="M42.6,29.8c-0.2,0.1-0.4,0.2-0.5,0.4c-0.2,0.3-0.1,0.6,0.1,0.8c0.1,0.1,0.3,0.2,0.4,0.2c0.4,0,0.9-0.2,1.2-0.5
		c0-0.4,0-0.8,0-1.1C43.3,29.6,42.9,29.7,42.6,29.8z"/>
</g>
<path class="st0" d="M64.9,0L64.9,0l0,35H30v0c11.6,0,23.3,0,34.9,0C64.9,23.3,64.9,11.7,64.9,0z"/>
</svg>
