<?xml version="1.0" encoding="utf-8"?>
<!-- Generator: Adobe Illustrator 26.0.1, SVG Export Plug-In . SVG Version: 6.00 Build 0)  -->
<svg version="1.1" id="Layer_1" xmlns="http://www.w3.org/2000/svg" xmlns:xlink="http://www.w3.org/1999/xlink" x="0px" y="0px"
	 viewBox="0 0 95 35" style="enable-background:new 0 0 95 35;" xml:space="preserve">
<style type="text/css">
	.st0{fill:#FFFFFF;}
</style>
<g id="XMLID_1_">
	<path class="st0" d="M53,9.8c0.3-0.9,1.6-0.8,2.2-1.2c0.4-0.3,0.9-0.5,0.9-1.8c0-1.1,0.5-1.3,0.8-1.4c0-0.3-0.6-0.2-1,0.1
		c0.6-1.4,1.8-0.2,1.8-0.2C57,4,56,4.6,55.7,5.2c-0.4,0.6-0.1,2-0.8,2.3c-0.7,0.3-1.1-0.3-1.7-0.1c-0.8,0.2-0.8,1.2-1.5,0.9
		c0.6-0.4,0.6-0.7,1-1.2c0.8-0.9,2.2,0.1,2.4-2.4l0.1,0.5c1.4-1.9,3-0.2,2.8,0.3c-2-0.4-1.5,1.2-1.7,2.2h1.4L53,9.8 M54.3,7.8
		c-1.4-0.6-2.2,0.7-2.2,1.1c0.3-0.2,0.9-0.8,1.1-0.9C53.6,7.8,54.2,8,54.3,7.8 M55.6,7.2c0.2,1.4-2.3,1.3-2.8,2.3
		C52.8,7.5,55.4,8.5,55.6,7.2 M52.9,10.2c0.6-0.8,1-0.1,1.5-0.5c0.5-0.3,1-1.4,2.2-0.8l0.6-0.5l-0.4,0.7c1.2,0.8,1.9,0.7,1.8-0.8
		c1.6,0.9,0.7,3-0.5,3c-0.7,0-0.9-0.4-1.3-0.5c-0.3-0.1-0.5,0.1-0.8,0.4l1.1,0.4l-1.3-0.2c-0.4,0.4-1,0.8-1.9,0.4l0.2,0.3h4.7
		l-3.2,1.4c0.9,0.2,1.9-0.9,3.2-0.1c1.2,0.7,0.6,2.3,0.2,2.3c-0.4,0,0.4-1.5-0.8-1.4c-0.4,0-0.8,0.4-1.2,0.7l0.4,1l-0.7-0.8
		c-0.3,0.3-0.7,0.4-1.1,0.4l2.2,1.3h-1.5c0,0.4,0,0.6,0.2,1l0.2-0.1c0.1,0.2,0.8,0.7,1.8,0.5c-0.4,1.4-2.4,1-2.8,0.6l0,0.5
		c-0.9-2.2-1.6-2.3-2.9-2.3l3.1,3.1L55,20c0.2,0.9-0.8,2.4-1.6,2.5c-0.3,0,0.5-0.6,0.5-1.4c0-0.9-1-1.1-1.4-1.5
		c-0.7-0.6-1.1-2.4-1.3-2.8c0.5,0.3,1,1.8,1.4,2.3c0.5,0.5,1.6,1,1.6,1.9c0,0.8-0.3,1-0.3,1.1c0.3,0,1.3-1.7,0.4-2.5
		c-0.4-0.4-1-0.5-1.5-0.9c-0.6-0.5-0.9-1.6-1.3-1.9c-0.3-0.3-1.4-0.8-1.2-2.5c-0.7,1.8,0.3,2.1,0.5,3.3c0.2,1.2,0.9,2.5,1.6,2.7
		c-0.1,0-0.2,0-0.3,0l-0.2,1.2l0-1.2c-1.5-0.3-1.5-3.8-2.4-4.2l2.2,6.3l-1.6-1c-0.3,1,0.9,1.1,0.8,2c-0.1,1.1-1.3,1-1.3,0.7
		c0-0.2,0.5,0,0.5-0.2c0-0.2-0.7-0.4-1.1-0.8c-0.2-0.2-0.4-0.4-0.4-1.3L48,22.3c0,0,0.6-1.5,0.7-1.9c0.1-0.4-1-1-1.1-1.7V23
		l-1.3-1.6c-0.2,1.7-2.6,1.6-2.8,1.4c1.8-1.3,0.9-1.9,0.5-3L43,20.5l0.8-0.9c-0.1-0.2-0.1-0.5-0.1-0.7c0.1-1.4,2.1-1.2,1-2.6
		l-3.2,5.1l0.3-2.7c-1.9,0.7-1.2,0.8-1.8,2c-0.4,1-1.3,0.7-1.6,0.3c-0.4-0.6,0.1-1.1,0.6-1.1c0.3-0.3-0.6-0.7-0.2-1.5
		c0.5-1.2,2-0.7,2.8-1.7l-1.9,0.2l2.1-0.6c0.1-0.3,0.2-0.8,0.2-1.4l-3.9,2.2l1.2-2c-2.2,1.8-2.7-0.5-3.8-0.3
		c0.3-1.2,1.3-0.5,1.7-0.5c0.5,0,1.1-0.8,1.3-1l-2.4-1.3h5.9c0.4,0,0.7-0.2,0.5-0.4c-0.3-0.3-1.4,0.1-2.6,0.2
		c-0.7,0.1-1.2-0.2-1.6-0.6l-1,0.3l0.9-0.5c-0.6-0.6-1.1-1.2-2.5-0.4c-0.4-1.1,0.6-2.1,1.6-2.1c1.4,0,1.6,1.6,2.7,1l-1.8-2.1
		l2.9,1.4l-0.4-1.1l-1.3-0.3l1.2,0.1c-0.3-1.1-1.6-0.9-2.1-1.5c-1.1-1.2,0.1-2.8,1-2.3c-0.6,1.4,0.5,2,1.5,1.8l-0.5-1.6l3.8,3.8
		c-0.9,0.7-1.8,0.1-2.3-1.3c-0.5-1.4-2-0.2-2.7-0.5c0,0.8,1.4,0,1.6,1.6c0.1,1.1,0.9,2,2.1,1.8c-0.4,0.7-1.5-0.2-2.2,0.8
		c1.2-0.1,1.5,1.2,2.4,1.4c-0.7-0.4-0.8-1.4-1.5-1.6c0.4-0.1,0.8,0.1,1.2,0c0.5-0.2,0.7-0.5,0.6-0.9c0.5,0.2,0.5,0.6,0.3,0.9
		c-0.2,0.3-0.7,0.5-0.7,0.7c0,0,0,0,0.3-0.2c-0.2,0.3-0.1,0.7,0.2,1c0-0.2,0-0.5,0.1-0.5c0.2,0.4,0.6,0.7,0.9,0.6
		c-0.5-0.5-0.2-1-0.2-1c-0.2,0-0.4,0.3-0.4,0.3s-0.1-0.5,0.4-0.7c0-0.1,0-0.2,0-0.2c0.4,0.4,1.2,0.4,1.4,0.6c0,0-1.1-0.2-1,0.5
		c0.1,0.6,1.9,0.3,1.5-1.6c0,0,0.3,0,0.4,0.1c0.1,0.1,0,0.4,0,0.4l0.2,0.1c0,0-0.1,0.9-0.1,1.1c0,0.1,0.4,0.1,0.5,0.1
		c0.1,0,0,0.1,0,0.1c0,0-0.6,0-0.6,0c-0.1,0-0.4,0.3-0.1,0.4c0,0,0.3,0.1,0.7,0.1c0.3,0,0.7-0.1,0.7-0.1S48.1,12,47.5,12
		c-0.6,0-0.9-0.1-0.9-0.1c-0.1,0.4,0.7,0.8,0.8,0.8c0.1,0,0.2,0,0.2,0c0,0,0.6-0.5,0.6-0.5l-0.2,0.3c0.7-0.2,0.6-0.6,0.4-0.6
		c0-0.2,0.4-0.1,0.4,0.2c0,0.4-1.1,0.6-1.2,0.9c-0.1,0.2,0.1,0.8,0.3,0.8c0.2,0.1,0.6,0,0.8-0.1c0.1,0,0.6-1.1,0.6-1.4
		c0-0.3-0.6-1.5-0.6-1.5c0.1-0.3,0.6-0.2,1.1-0.5c-0.7,0.8-0.2,0.9,0.3,0.9c-0.4,0.3-0.7,0.6-0.5,1.1c2.4,0.5,1.5,3.9,3.2,4.5
		c-1.4,0.2-1.5-1.6-1.7-2.4c-0.1,0.9-0.1,1.6,0.5,2.3c0.6,0.6,1.4,0.3,2.2,0.3c1.4,0,1,1.5,2.2,1.9c-0.7-0.6-0.2-1.2-1.2-2.2
		c-0.5-0.5-1.6,0-2.4-0.9c-0.8-0.9-1.1-2.8-2.2-3.5c1.3,0.3,1.8,2.5,2.5,3.2c0.7,0.7,2.1,0.5,2.6,1c0.9,0.8,0,2.3,1.8,2.6v-0.1
		c0.3,0.1,0.9-0.1,0.8-0.3c-0.3,0.1-0.9,0.1-1.3-0.2l0.1,0.3c-1.1-0.3-0.7-2-1.3-2.6c-0.6-0.5-1.6-0.2-2.4-0.9
		c-0.8-0.6-1.2-2.3-2.7-3.4c2.1-0.6,2.8,3.3,4.8,3.3c1,0,1.7-1.5,2.6-1.5c0.6,0,1.1,0.4,1.2,0.9c0.1,0.6-0.1,1.1-0.1,1.1
		s0.3-0.3,0.3-0.9c0-1-0.8-1.3-1.5-1.3c-0.7,0-1,0.5-2.1,0.5c-1.4,0-1.8-2.6-3.5-2.8c0.9-0.7,1.7,0.6,2.5,0.6c0.6,0,0.8-0.4,1.1-1.4
		c0.3-0.9,1-0.4,1.5,0c0.5,0.4,1.2,0.5,1.6,0.1c-0.1,0.3-0.5,0.3-0.3,0.6c0.1,0.1,0.2,0.1,0.3,0c0.5-0.5,0.7-1.8,0.1-2.1
		c0.4,2.1-1.4,1.5-1.3,1.2c0.3,0.1,0.8,0.1,0.7-0.1c-1.3,0-1.4-0.9-2.2-0.8l0.3,0.2c-1.5,0-0.6,2.1-1.7,2.1c-0.6,0-1-0.7-1.7-0.7
		c0.9-0.7,1.7,1.2,2-0.3C54.2,10.8,53.8,9.9,52.9,10.2z M48.3,6.9c-1,0.4-1-1-0.8-1.3c0,0-0.2,0.7,0.5,1c-0.9-1.4,0.8-2,0.8-3.2
		c0-1-0.6-1.3-0.6-2.2c0-1.1,1.6-1.3,1.6-0.9c0,0.3-1.1,0.3-1.2,1.4c0,1,1.1,1.3,1.1,2.3c0,0.7-1.2,1.3-0.5,2.5l1.7-4.7l-1.3,1.4
		c-0.4-0.5-0.7-0.6-0.7-1.5c0-0.9,1-1,1-1.5c0-0.3-0.5-0.4-0.9-0.4c-0.6,0-1.6,0.5-1.6,1.5c0,1.1,0.7,1.6,0,2.6L47,3.2l0.5,1.2
		c0,0-0.4,0.5-0.4,1.4C47,7.5,48.4,7.6,48.3,6.9z M48.5,3c0.5,1.4-1,1.8-1.2,2.8C47.2,4.6,48.7,4.1,48.5,3z M49.2,6.8
		c-0.4-0.4-0.3-1.2-0.3-1.2S48.2,6.4,49.2,6.8z M51.1,9.8c0.1,0.2,0.5-0.3,1.1-0.1C51.9,9.5,51,9.5,51.1,9.8z M50.4,5.9
		c-0.2,0.6-0.9,0.8-1.2,1.3c0.2,0,1.1-0.2,1.4-0.8c0.3-0.6,0-2.2,1.1-2.6c1.1-0.4,2.2-1,0.9-2.3c2,0.5,0.9,2.6,0.6,2.9
		c-0.2,0.3-1,0.9-1,1.8c0,0.7-0.6,1.5-1.1,1.6c0.5,0.2,1.3-1,1.3-1L55,3.7l-1.4,0.7c0,0,0.4-0.3,0.4-1.5c0-1.6-1.7-1.9-1.7-1.4
		c0,0.3,0.6,0.6,0.6,1.1c0,0.5-0.7,0.8-1.3,1l-0.3-0.9v1C50.3,4.3,50.6,5.3,50.4,5.9z M52.2,5.1c0.5-0.8,1-0.6,1.3-1.5
		C53.1,4.3,52.3,4.4,52,5c-0.6,0.9,0.1,2.3-1.2,2.7C52.4,7.7,51.6,5.8,52.2,5.1z M53.2,7.2c0.5-0.1,0.9,0.3,1.3,0.2
		c0.2-0.1,0.2-0.3,0.1-0.4c0,0,0.7-0.7,0.5-1.2C54.5,7,53.3,7,53.2,7.2z M50.9,9.3C51,9.4,51.2,9.1,51.4,9C51.1,9,50.9,9.2,50.9,9.3
		z M55.3,14.6c0.7,0,1.3-0.7,1.7-1c-0.6,0.1-0.9,0.6-1.7,0.7c-1.3,0-2-3.7-4.2-2.9C53.4,11.5,53.4,14.6,55.3,14.6z M50.6,10.5
		c0,0.3,0.6-0.3,1.5,0.1C51.8,10.1,50.5,10.1,50.6,10.5z M48.6,6.8c-1-1.6,1.3-2,0.7-3.3C49.4,4.5,47.2,5.6,48.6,6.8z M43.5,8.8
		c-2,0-0.5-2.1-2-2.4c0.8,0.5,0.3,1,0.3,1.8C41.9,9.2,43.1,9.5,43.5,8.8z M43.8,8.2c-0.4,0-1-0.2-1.3-0.7C42.4,7.9,43,9.3,43.8,8.2z
		 M52.1,19.4c-0.5-0.9-1-3-1.6-3.3c0.6,0.9,0.6,2.4,1.3,3.4c0.6,0.8,1.4,0.6,1.9,1.4C53.6,20.1,52.5,20.2,52.1,19.4z M48.8,12.6
		c-0.1,0.1-0.4,0.2-0.6,0.3c0,0-0.1,0.2-0.1,0.2C48.2,13.2,48.7,12.8,48.8,12.6z M54.8,11.7c0.5,0.1,2.2-1.6,1.6-1.8
		C55.9,9.7,55.8,11.4,54.8,11.7z M40.4,5.7c-1.2-0.3-1.3-1.3-1-1.8C38.4,3.8,38.4,6.2,40.4,5.7z M36,10.4c0,0,0.8-0.6,1.8-0.1
		C38,9.4,36.2,9.5,36,10.4z M40.5,10.1c-1.1,0.2-1.5-0.3-1.8-0.7C38.5,9.2,38.4,9,38,9c0,0,0,0,0,0.1c0,0,0,0.1,0,0.1
		c0,0-0.1,0-0.2-0.1c-0.1-0.1-0.3-0.2-0.5-0.1c-0.2,0-0.4,0.1-0.5,0.2c-0.1,0.1-0.2,0.2-0.1,0.3c0.1,0.2,0.3,0.1,0.5,0.1
		c0.2,0,0.4,0,0.6,0c0.2,0.1,0.3,0.2,0.4,0.4C38.7,10.8,40.3,11.1,40.5,10.1z M41.2,11.2c0-0.6-2.2-0.3-2.1,0.1
		C39.1,11.8,41.2,11.7,41.2,11.2z M41.4,12.6c0.7,0.2,2.1-0.4,1.9-0.6C43,11.7,42.5,12.7,41.4,12.6z M39,13.3
		c1.2-0.6,1.9,1.4,2.9,0.3c-1.2,0.4-1.3-0.7-2.4-0.6c0.6-0.6,1.3,0.3,2.1,0.3c0.8,0,1.4-0.2,1.5-0.8c-0.2,0.2-0.7,0.5-1.5,0.5
		C40.8,12.9,39.6,11.9,39,13.3z M37,14.9c0.5,0.3,1.3,0,1-0.6c-1,0.7-1.5-0.5-2.1,0.3C36.1,14.6,36.5,14.6,37,14.9z M39.7,14.3
		c-1-0.5-1.3,1.2-2.5,0.9c0,0.7,1.1,0.4,1.6,0C39.3,15,39.5,14.4,39.7,14.3z M42.7,13.3c-0.4,0.6-1.1,1-1.9,0.8
		c-0.8-0.3-1.6-1-2,0.1C39.8,13.2,41.6,15.9,42.7,13.3z M42.3,17.2c-0.2-0.2-0.4,0.2-0.8,0.4c-0.4,0.2-0.9,0.4-0.8,0.6
		c0.1,0.2,0.6,0.1,1-0.1C42.2,17.9,42.5,17.4,42.3,17.2z M39.2,18.5c0.3,0.4,0.9-0.5,1.9-0.9c1-0.3,1.2-1.3,1.2-1.7
		c-0.3,0.8-0.6,1.3-1.3,1.5C40.1,17.6,38.9,18.2,39.2,18.5z M39.5,19.8c-0.1,0.6-0.4,0.7-0.5,0.6c0,0-0.1-0.1,0-0.1
		c0-0.1,0-0.1,0-0.2c-0.1,0-0.5,0.1-0.4,0.5c0,0.2,0.3,0.4,0.6,0.4C39.5,21,39.9,20.5,39.5,19.8z M44.4,13.2c-0.7,0.7,0,3.3-1.3,4.3
		c1-1.6,0.3-3.6,1.2-4.7c-1.1,0.8-0.8,3.1-1.1,3.7c-0.4-2.8,0.8-3.8,1.1-4.1c-2.2,1.6-0.9,3.8-1.5,5c-1,1.7-2.5,0.8-3.1,1.4
		c-0.6,0.5,0.8,1.1,0.1,2.1c0.4,0.1,0.4-1.4,0.8-1.7l-0.3,0.1c-0.1-0.3-0.4-0.3-0.4-0.3c0.3-0.6,1.8,0.4,3.6-1.2
		C45,16.3,43.9,14,44.4,13.2z M46.6,13.9c-0.1,0-0.1,0-0.1,0c0,0,0,0.1,0.1,0.1c0,0,0.6,0.1,1,0.1c0.3,0,0.9-0.1,0.9-0.1
		c0.1,0,0.1-0.1,0.1-0.1c0,0,0,0-0.1,0c0,0-0.6,0-0.9,0C47.2,14,46.6,13.9,46.6,13.9z M46.2,12c0,0.4,0.6,0.5,0.9,0.5
		c-0.8-0.2-0.7-0.6-0.4-0.7C46.6,11.7,46.2,11.7,46.2,12z M45.9,12.6c0,0.2,0.7,0.4,0.7,0.4s-0.2,0.1-0.5,0c0.2,0.3,0.6,0.3,0.6,0.3
		s0,0.2-0.5,0.1c0.1,0.4,0.7,0.4,0.8,0.4c0.2-0.1,0.4-0.6,0.3-0.8C47.3,12.9,46.6,12.6,45.9,12.6z M45.2,21.4c0-0.9-0.6-1.2-0.6-2.3
		c0-1.2,1.5-1.2,1.5-2.2s-1.3-1.4-1.3-3.3c-0.3,2.2,0.9,2.5,0.9,3.3c0,0.9-1.5,0.6-1.5,2.2c0,0.9,0.6,1.4,0.6,2.3
		c0,1-0.6,1.2-0.6,1.2C44.5,22.7,45.2,22.5,45.2,21.4z M46.3,14.8c0.5,0.9,0.8,1.4,0.6,2.2c-0.2,0.8-1,1.1-1.2,2
		c-0.2,0.6,0.2,1.4,0,2c0-0.5-0.6-1.2-0.4-2c0.2-0.8,1.5-1.3,1.5-2.2c0-0.9-1-1.7-1.2-2.5c-0.1,0.9,0.8,1.5,0.8,2.5
		c0,1-1.4,1.2-1.4,2.3c0,0.9,0.5,1.5,0.5,2.3c0,0.6-0.4,1.2-0.4,1.2c1.7-0.9,0.7-2.1,1-3.5c0.2-0.9,0.9-1.2,1.2-1.9
		C47.5,16.5,47.3,15.5,46.3,14.8z M47.7,16c0-0.6-0.4-1.3-0.6-1.1C46.9,15,47.6,15.4,47.7,16z M48.2,19.2c-0.8-1.8,0.8-2.6-0.4-4.1
		C48.6,16.8,47,17.5,48.2,19.2z M49.1,22.6c0.2,1.1,1.4,0.3,1.1,1.1C50.9,22.7,49.5,23.2,49.1,22.6z M49.2,18.3
		c-0.4-0.7,0.5-2.9-0.4-3.7c0.7,1.5-0.7,3,0.1,4.3c-1.2-0.9,0.5-3-0.7-4c0.7,1.2-0.3,2.3-0.1,3.4c0.2,1.3,1,1.2,1.1,2.1
		c0.1,0.9-0.5,1.3-0.1,1.9c0.4,0.6,1.6,0.4,1.4,1.2c0.4-0.8-0.6-0.9-0.7-1.7c-0.2-0.8,0.6-1.4,0.5-2C50.2,19.2,49.6,19,49.2,18.3z
		 M51.1,16c-0.5-0.8,0.2-1.9-0.6-2.7C50.9,14.5,50.1,15,51.1,16z M54.2,17.1c-0.2,0.2,0.4,0.2,0.5,0.5
		C54.9,17.4,54.4,16.9,54.2,17.1z M58.7,14.2c-0.5-0.9-1.7-0.4-2.1,0.6c0,0.1,0,0.1,0.1,0C57.2,14.1,58,13.5,58.7,14.2
		C58.7,14.2,58.7,14.2,58.7,14.2z M48.9,12.9c0,0.1-0.2,0.1-0.5,0.3c0,0.1-0.1,0.2-0.2,0.3C48.6,13.5,49,13.1,48.9,12.9z M49.7,20.5
		c0,0,1-0.6-0.1-1.1C49.9,20,49.7,20.5,49.7,20.5z M48.3,9.1c0.6,0,0.6-0.3,1.1-0.3c0.4,0,0.6,0.3,0.9,0.3c0.3,0,0.5-0.2,0.4-0.5
		c-0.2,0.4-0.6-0.1-0.9-0.1c-0.4,0-0.6,0.2-0.9,0.3c-0.3,0.2-0.6,0-0.5-0.2c-0.2,0-0.4-0.3,0-0.7C47.7,8.1,47.8,9.1,48.3,9.1z
		 M45.8,6.8c-0.1,0-0.1,0-0.2-0.1c-0.3-0.2-0.5-0.7-0.7-0.6C45,6.3,44.9,6.8,45.2,7c0.1,0.1,0.3,0.2,0.5,0.2c0.3,0,0.6-0.3,0.6-0.6
		c0-0.2-0.1-0.4-0.2-0.5c-0.2-0.2-0.5-0.3-1.5-0.6c-2.2-0.8,1.1-3-0.4-4.3C45,3,42.5,4.1,43.8,5.4C44.3,6,45.6,5.9,46,6.3
		c0.1,0.1,0.1,0.1,0.1,0.2C46.1,6.7,45.9,6.8,45.8,6.8z M46,8.7c-0.4,0-0.9,0.5-1,0.2c-0.1-0.2,0.4-0.6,0.9-0.7
		c-0.5-0.1-1.3,0.3-1.4,0.8c-0.2,0-0.4-0.2-0.4-0.2c0.1,1.1,1.2,0.1,1.6,0.1c0.3,0,1.5,0.8,1.5-0.2C46.8,9.2,46.5,8.7,46,8.7z
		 M42.7,4.4c0.1-0.7,0.5-1.4,0.5-2.1c0-1.1-1.3-0.1-1.5-0.5c-0.5-1.2,3.2-1.9,3.2,0.3c0,1.2-0.3,2.4,0.6,2.6l0.7-2.8l0.7,4
		C46.2,5,45,5.3,44.7,4c-0.2-1,0.9-3.3-1.7-3.2c3,0.9-1.7,3.5,1.1,5.2c0.8,0.4,1,1.2,0.7,1.6c0-1.1-1.2-1.3-1.6-1.7
		c-0.4-0.4-0.5-0.8-0.6-1.2l-1-0.5L42.7,4.4z M43.2,1.6C43,0.9,41.7,1.2,42,1.5C42.1,1.7,42.6,1.2,43.2,1.6z M44.2,3.8
		c-1.2,2.3,3.1,1.3,2.5,3.3C47.6,4.9,43.7,6.1,44.2,3.8z M46.3,10.4c-0.4-0.2-1.2-0.2-1.6-0.8c0.4-0.2,0.8-0.5,1.2-0.5
		C46.7,9.3,46.4,10.3,46.3,10.4z M45.7,9.3c-0.5-0.1-0.6,0.6-0.3,0.7C45.5,9.8,45.7,9.4,45.7,9.3z M46,9.5c0,0.1-0.1,0.5-0.3,0.6
		C46,10.2,46.4,9.7,46,9.5z M49.2,9.2c0.3-0.1,0.8,0.3,1.2,0.5c-0.4,0.5-1.3,0.6-1.6,0.8C48.7,10.3,48.4,9.3,49.2,9.2z M49.6,10
		c0.4-0.1,0.2-0.8-0.3-0.7C49.4,9.4,49.6,9.8,49.6,10z M49.3,10.1c-0.2-0.2-0.3-0.6-0.3-0.6C48.7,9.7,49.1,10.2,49.3,10.1z M53.5,3
		c-0.4,0.9-1.6,0.9-2.1,1.6c-0.8,1.2,0.3,2.4-1.4,2.8c2,0,0.9-1.7,1.7-2.6C52.4,3.8,53.3,4.1,53.5,3"/>
	<path class="st0" d="M8.4,30.2H5.6v4.7h0.6v-2h2.1c1.2,0,1.8-0.5,1.8-1.4C10.2,30.6,9.6,30.2,8.4,30.2 M8.3,32.3h-2v-1.6h2
		c1,0,1.4,0.2,1.4,0.8C9.6,32.1,9.2,32.3,8.3,32.3z"/>
	<path id="XMLID_19_" class="st0" d="M16,30.2v2.8c0,1-0.6,1.5-1.8,1.5c-1.2,0-1.8-0.5-1.8-1.5v-2.8h-0.6v2.8c0,1.7,1.3,2.1,2.4,2.1
		c1.1,0,2.4-0.4,2.4-2.1v-2.8H16"/>
	<path class="st0" d="M22.4,32.4c0.3-0.1,0.7-0.4,0.7-1c0-1.2-1.3-1.2-1.8-1.2h-2.7v4.7h2.4c0.8,0,2.3,0,2.3-1.3
		C23.2,32.8,22.7,32.5,22.4,32.4 M19.1,30.7h1.8c0.8,0,1.6,0,1.6,0.7c0,0.5-0.4,0.7-1.4,0.7h-1.9V30.7z M21.3,34.3h-2.1v-1.6h2.2
		c0.8,0,1.2,0.3,1.2,0.8C22.6,34.2,21.9,34.3,21.3,34.3z"/>
	<polyline id="XMLID_15_" class="st0" points="25.1,30.2 25.1,34.9 29.3,34.9 29.3,34.3 25.8,34.3 25.8,30.2 25.1,30.2 	"/>
	<rect id="XMLID_14_" x="30.7" y="30.2" class="st0" width="0.6" height="4.7"/>
	<path id="XMLID_13_" class="st0" d="M33,32.5c0,1.5,1,2.5,2.7,2.5c1.3,0,2.1-0.5,2.5-1.4l-0.5-0.3c-0.4,0.7-1,1.1-1.9,1.1
		c-1.3,0-2.1-0.7-2.1-1.8c0-1.3,0.7-2,2-2c1,0,1.7,0.4,1.9,1.1l0.5-0.2c-0.3-0.6-1-1.4-2.5-1.4C34,30.1,33,31,33,32.5"/>
	<rect id="XMLID_12_" x="39.8" y="30.2" class="st0" width="0.6" height="4.7"/>
	<path id="XMLID_11_" class="st0" d="M42.4,31.5c0,1,1.2,1.2,2.3,1.3c0.9,0.1,1.8,0.2,1.8,0.8c0,0.9-1.4,0.9-1.7,0.9
		c-1.6,0-2-0.8-2.1-1l-0.5,0.4c0.3,0.3,0.8,1.1,2.5,1.1c1.7,0,2.4-0.8,2.4-1.5c0-1.2-1.2-1.3-2.3-1.4C43.8,32.1,43,32,43,31.4
		c0-0.7,1-0.8,1.6-0.8c1.3,0,1.7,0.6,1.9,0.8l0.5-0.4c-0.1-0.2-0.7-1-2.3-1C43.2,30.1,42.4,30.6,42.4,31.5"/>
	<path id="XMLID_10_" class="st0" d="M52,32.5c0,1.5,1,2.5,2.7,2.5c1,0,1.6-0.4,1.9-0.7v0.6h0.6v-2.3h-2.5v0.6h1.9
		c-0.1,0.9-1,1.3-1.9,1.3c-1.3,0-2.1-0.7-2.1-1.8c0-1.3,0.7-2,2-2c0.5,0,1.5,0.1,1.9,1.1l0.5-0.3c-0.3-0.7-1.2-1.3-2.4-1.3
		C53,30.1,52,31,52,32.5"/>
	<path class="st0" d="M62.5,32.8c0.7,0,1.4-0.4,1.4-1.3c0-0.9-0.6-1.3-1.9-1.3h-2.7v4.7h0.6v-2.1h1.8l1.5,2.1H64L62.5,32.8
		 M59.9,32.3v-1.5h2c0.8,0,1.4,0.1,1.4,0.8c0,0.6-0.6,0.8-1.4,0.8H59.9z"/>
	<path class="st0" d="M68.1,30.1c-1.7,0-2.8,1-2.8,2.5c0,1.7,1.4,2.4,2.8,2.4c1.3,0,2.8-0.8,2.8-2.4C70.8,31,69.8,30.1,68.1,30.1
		 M68.1,34.4c-1,0-2.1-0.5-2.1-2c0-1.1,0.9-1.9,2.1-1.9c1.2,0,2.1,0.8,2.1,1.9C70.2,33.9,69.1,34.4,68.1,34.4z"/>
	<path id="XMLID_5_" class="st0" d="M76.6,30.2v2.8c0,1-0.6,1.5-1.8,1.5c-1.2,0-1.8-0.5-1.8-1.5v-2.8h-0.6v2.8
		c0,1.7,1.3,2.1,2.4,2.1c1.1,0,2.4-0.4,2.4-2.1v-2.8H76.6"/>
	<path class="st0" d="M81.8,30.2H79v4.7h0.6v-2h2.1c1.2,0,1.8-0.5,1.8-1.4C83.6,30.6,83,30.2,81.8,30.2 M81.6,32.3h-2v-1.6h2
		c1,0,1.4,0.2,1.4,0.8C83,32.1,82.6,32.3,81.6,32.3z"/>
	<polyline id="XMLID_2_" class="st0" points="85,30.2 85,34.9 89.4,34.9 89.4,34.3 85.7,34.3 85.7,32.7 88.7,32.7 88.7,32.2 
		85.7,32.2 85.7,30.7 89.3,30.7 89.3,30.2 85,30.2 	"/>
</g>
</svg>
