<?xml version="1.0" encoding="utf-8"?>
<!-- Generator: Adobe Illustrator 26.0.1, SVG Export Plug-In . SVG Version: 6.00 Build 0)  -->
<svg version="1.1" id="Layer_1" xmlns="http://www.w3.org/2000/svg" xmlns:xlink="http://www.w3.org/1999/xlink" x="0px" y="0px"
	 viewBox="0 0 95 35" style="enable-background:new 0 0 95 35;" xml:space="preserve">
<style type="text/css">
	.st0{fill:#CCCCCC;}
</style>
<g id="layer1" transform="translate(-87.091176,-202.81867)">
	<g id="g1646" transform="translate(0.13229071,-0.13228832)">
		<path id="path1524" class="st0" d="M97.6,237.7l-1.4,0c-0.2,0-0.3-0.1-0.4-0.2l-3.2-4.5c0-0.1,0-0.1,0.1-0.1l0.7,0
			c1.1,0,2-0.6,2-1.8c0-1-0.8-1.7-1.8-1.7l-1.7,0c-0.1,0-0.1,0-0.1,0.1l0,8.3l-1.3,0l0-7.5c0-0.1,0-0.1-0.1-0.2l-0.6-1.3
			c0-0.1,0-0.1,0.1-0.1l3.9,0c1.8,0,3,0.9,3,2.5c0,1.4-1.1,2.2-2.3,2.4L97.6,237.7z M98.7,230.1l4.4,0l0,0.8l-3.1,0l0,2.4l2.9,0
			l0,0.8l-2.9,0l0,2.7c0,0.1,0,0.1,0.1,0.1l3.1,0l0,0.8l-4.2,0c-0.2,0-0.3-0.1-0.3-0.4L98.7,230.1z M100.4,229.9l0.9-1.2
			c0.1-0.1,0.1-0.1,0.2-0.1l1.1,0l-1.1,1.2c-0.1,0.1-0.1,0.1-0.2,0.1L100.4,229.9z M112,237.7l-1.3,0l0-5.8l-2.4,4.3
			c0,0.1-0.1,0.1-0.1,0l-2.4-4l0,5.6l-0.9,0l0-7l-0.3-0.5c0-0.1,0-0.1,0.1-0.1l1.4,0l2.5,4l2.2-3.8c0.1-0.1,0.1-0.1,0.3-0.1l1.1,0
			L112,237.7z M116.1,235.1l-2.8-4.9l1.5,0l2.1,3.8c0.6-1.1,1.4-2.6,2-3.6c0.1-0.1,0.1-0.1,0.3-0.1l1,0l-2.7,4.8l0,2.7l-1.3,0
			L116.1,235.1z M128.5,237.5c-0.4,0.2-1.1,0.4-1.9,0.4c-2.2,0-3.7-1.4-3.7-4.1c0-2.4,1.6-3.8,3.7-3.8c0.7,0,1.4,0.2,1.8,0.4l0,1.7
			c0,0.1-0.1,0.1-0.1,0l-0.8-1c-0.1-0.1-0.2-0.2-0.3-0.2c-0.2-0.1-0.4-0.1-0.6-0.1c-1.2,0-2.3,1-2.3,3c0,2.3,1.2,3.1,2.4,3.1
			c0.7,0,1.3-0.1,1.7-0.4L128.5,237.5z M132.6,237.9c-2,0-3.3-1.4-3.3-4.1c0-2.3,1.3-3.8,3.3-3.8c2.1,0,3.4,1.5,3.4,3.8
			C135.9,236.5,134.7,237.9,132.6,237.9 M132.6,230.8c-1.2,0-1.9,1.1-1.9,3c0,2.1,0.7,3.2,1.9,3.2c1.3,0,1.9-1.1,1.9-3.2
			C134.5,232,133.9,230.8,132.6,230.8 M138.6,237.7l-1.3,0l0-7.6l1.3,0L138.6,237.7z M146.7,237.8h-0.3l-4.5-5.7l0,5.7l-0.9,0l0-6.6
			c0-0.1,0-0.3-0.1-0.4l-0.5-0.6l1.7,0l3.7,4.7l0-4.7l0.9,0L146.7,237.8z M147.9,230.2l5.1,0l0,0.9l-1.9,0l0,6.7l-1.3,0l0-6.7
			l-1.9,0L147.9,230.2z M160.3,237.8l-1.4,0c-0.1,0-0.2-0.1-0.3-0.2l-2.2-3.6c0-0.1,0-0.1,0.1-0.1h0.3c0.9,0,1.5-0.6,1.5-1.6
			c0-0.9-0.6-1.5-1.4-1.5l-0.8,0c-0.1,0-0.1,0-0.1,0.1l0,6.8l-1.3,0l0-6.4c0-0.1,0-0.1-0.1-0.2l-0.5-0.9c0,0,0-0.1,0.1-0.1l3.2,0
			c1.5,0,2.4,0.8,2.4,2.1c0,1.3-0.8,1.8-1.7,2L160.3,237.8z M161.5,230.2l4.1,0l0,0.8l-2.8,0l0,2.4l2.6,0l0,0.8l-2.6,0l0,2.7
			c0,0.1,0,0.1,0.1,0.1l2.8,0l0,0.8l-4,0c-0.1,0-0.1-0.1-0.1-0.2L161.5,230.2z M166.5,237.8l2.4-7.6l1.5,0c0.1,0,0.1,0,0.1,0.1
			l2.6,7.5l-1.3,0c-0.1,0-0.2-0.1-0.2-0.2l-0.8-2.3l-2.6,0l-0.7,2.5L166.5,237.8z M169.5,231.1l-1,3.4l2.2,0L169.5,231.1z
			 M173.9,230.2l1.3,0l0,5.2c0,1.1,0.6,1.6,1.5,1.6c0.9,0,1.5-0.5,1.5-1.6l0-5.2l0.9,0l0,5.2c0,1.8-1.1,2.6-2.6,2.6
			c-1.5,0-2.7-0.7-2.7-2.6L173.9,230.2z"/>
		<path id="path1528" class="st0" d="M124.4,213.4c0-5.4,4.1-10.4,10.6-10.4c5.8,0,10.1,4.7,10.1,10.2c0,5.4-4.1,10.4-10.5,10.4
			C129.1,223.5,124.4,219,124.4,213.4 M134.9,222.4c5.9,0,9-4,9-8.7c0-5.3-4-9.7-9.2-9.7c-5.8,0-9,4.3-9,9.2
			C125.7,218.2,129.8,222.4,134.9,222.4 M136.9,219c-1.9-2.4-3.4-4.4-4.4-5.9c0.9-0.2,2-0.9,2-2.3c0-1.4-1.3-2.4-2.9-2.4h-3.5
			c-0.1,0-0.1,0.1-0.1,0.1l0.5,1.1c0,0.1,0.1,0.1,0.1,0.2v7.1h1.3v-7.6c0-0.1,0-0.1,0.1-0.1h1.3c1,0,1.8,0.6,1.8,1.6
			c0,1.1-0.8,1.8-2,1.8h-0.3c-0.1,0-0.1,0.1-0.1,0.1c1.4,2.2,3,4.3,4.4,6.1c0.1,0.2,0.2,0.2,0.4,0.2L136.9,219z M141,215.5
			c-0.5,0.3-1.1,0.5-1.7,0.5c-1.6,0-2.8-1.1-2.8-3.5c0-2.3,1.1-3.4,2.4-3.4c0.6,0,1,0.1,1.3,0.4c0.3,0.3,0.4,0.6,0.6,0.9
			c0.1,0.1,0.2,0.1,0.2-0.1v-1.7c-0.5-0.2-1.2-0.4-2.1-0.4c-2.2,0-3.9,1.5-3.9,4.3c0,2.9,1.8,4.5,4,4.5c0.7,0,1.4-0.1,2-0.5
			L141,215.5z"/>
	</g>
</g>
</svg>
