<?xml version="1.0" encoding="utf-8"?>
<!-- Generator: Adobe Illustrator 26.0.1, SVG Export Plug-In . SVG Version: 6.00 Build 0)  -->
<svg version="1.1" id="Layer_1" xmlns="http://www.w3.org/2000/svg" xmlns:xlink="http://www.w3.org/1999/xlink" x="0px" y="0px"
	 viewBox="0 0 95 35" style="enable-background:new 0 0 95 35;" xml:space="preserve">
<style type="text/css">
	.st0{fill:#CCCCCC;}
</style>
<g>
	<g transform="translate(518.4 1e-4)">
		<path id="a" class="st0" d="M88.4,31.4c0,1.8,1,2.7,2.3,2.7c1.3,0,2.3-0.9,2.3-2.7c0-1.7-1-2.7-2.3-2.7
			C89.5,28.7,88.4,29.6,88.4,31.4z M94,33.9h1.1v0.9h-2.1v-1c-0.4,0.6-1.3,1.1-2.4,1.1c-2,0-3.2-1.6-3.2-3.6c0-2.1,1.3-3.6,3.2-3.6
			c1,0,1.9,0.5,2.4,1.1v-2.8l-1.1,0v-0.9H94V33.9z"/>
	</g>
	<g transform="translate(706.5,2e-4)">
		<path id="b" class="st0" d="M84.2,33.9h1.1v0.9l-3.2,0v-0.9h1.1v-5.1h-1.1v-0.9h2.1v1c0.4-0.7,1.4-1.4,2.8-1v1
			c-1.6-0.5-2.7,0.4-2.7,2V33.9z"/>
	</g>
	<g transform="matrix(-1 0 0 1 1021.1 9e-4)">
		<g id="c">
			<g>
				<path class="st0" d="M54.9,10.3c-1.8,0.7-3.1,1.9-3.1,1.9c0-0.6-0.2-1.2-0.4-1.6c0,0,0.6-1.1,2.3-2.3c1.9-1.3,4-1.6,4-1.6
					c0.5,1,0.8,2,0.9,3C58.7,9.6,57.1,9.4,54.9,10.3L54.9,10.3z"/>
				<path class="st0" d="M53.5,6.5c-1.8,1.7-2.4,3.5-2.4,3.5c-0.3-0.6-0.7-1-1.3-1.4c0,0,0.7-2.1,1.7-3.6c1-1.6,2.8-2.8,2.8-2.8
					c0.9,0.6,1.6,1.4,2.2,2.2C56.6,4.5,54.9,5.3,53.5,6.5L53.5,6.5z"/>
				<path class="st0" d="M50.4,4.4c-0.8,2.1-1,4-1,4c-0.5-0.3-1.2-0.5-1.8-0.5c0,0,0-2,0.4-4c0.5-2.4,1-3.8,1-3.8
					c1.1,0.1,2.1,0.4,3,0.8C52.1,0.8,51,2.9,50.4,4.4L50.4,4.4z"/>
			</g>
			<path class="st0" d="M53.4,17.3c-2.2-1.1-4.5-0.8-4.5-0.8c0.8-0.3,1.5-0.8,2-1.5c0,0,2-0.2,3.5,0c2.3,0.5,3.3,1.3,3.3,1.3
				c-0.5,1-1,1.9-1.8,2.7C55.9,19,55,18.1,53.4,17.3L53.4,17.3z"/>
			<path class="st0" d="M55,13.9c-2.2-0.1-3.8,0.5-3.8,0.5c0.3-0.5,0.5-1.1,0.5-1.7c0,0,1.8-1,3.5-1.2c2.3-0.3,3.6,0.1,3.6,0.1
				c0,1.1-0.2,2.1-0.5,3.1C58.3,14.8,56.9,14,55,13.9L55,13.9z"/>
		</g>
	</g>
	<g id="c_00000042006850094942129650000015542586943904630185_">
		<g>
			<path class="st0" d="M39.9,10.3c1.8,0.7,3.1,1.9,3.1,1.9c0-0.6,0.2-1.2,0.4-1.6c0,0-0.6-1.1-2.3-2.3c-1.9-1.3-4-1.6-4-1.6
				c-0.5,1-0.8,2-0.9,3C36.1,9.6,37.6,9.4,39.9,10.3L39.9,10.3z"/>
			<path class="st0" d="M41.2,6.5C43,8.3,43.6,10,43.6,10c0.3-0.6,0.7-1,1.3-1.4c0,0-0.7-2.1-1.7-3.6c-1-1.6-2.8-2.8-2.8-2.8
				c-0.9,0.6-1.6,1.4-2.2,2.2C38.2,4.5,39.9,5.3,41.2,6.5L41.2,6.5z"/>
			<path class="st0" d="M44.3,4.4c0.8,2.1,1,4,1,4c0.5-0.3,1.2-0.5,1.8-0.5c0,0,0-2-0.4-4c-0.5-2.4-1-3.8-1-3.8
				c-1.1,0.1-2.1,0.4-3,0.8C42.7,0.8,43.8,2.9,44.3,4.4L44.3,4.4z"/>
		</g>
		<path class="st0" d="M41.4,17.3c2.2-1.1,4.5-0.8,4.5-0.8c-0.8-0.3-1.5-0.8-2-1.5c0,0-2-0.2-3.5,0c-2.3,0.5-3.3,1.3-3.3,1.3
			c0.5,1,1,1.9,1.8,2.7C38.9,19,39.8,18.1,41.4,17.3L41.4,17.3z"/>
		<path class="st0" d="M39.7,13.9c2.2-0.1,3.8,0.5,3.8,0.5c-0.3-0.5-0.5-1.1-0.5-1.7c0,0-1.8-1-3.5-1.2c-2.3-0.3-3.6,0.1-3.6,0.1
			c0,1.1,0.2,2.1,0.5,3.1C36.4,14.8,37.9,14,39.7,13.9L39.7,13.9z"/>
	</g>
	<g>
		<path class="st0" d="M47.4,19c3.2,0,4.7,2.8,4.7,2.8c1-0.5,1.9-1,2.8-1.7c0,0-2.7-3.4-7.4-3.4c-4.6,0-7.4,3.4-7.4,3.4
			c0.8,0.7,1.8,1.3,2.8,1.7C42.8,21.8,44.2,19,47.4,19L47.4,19z"/>
		<path class="st0" d="M2.2,26.2v4.1h1.7c1.8,0,2.6-0.7,2.6-2.1c0-1.3-0.8-2.1-2.6-2.1L2.2,26.2z M2.2,33.9h1.2v1h-3.5v-1h1.2l0-7.8
			h-1.2v-0.9l4,0c2.2,0,3.7,1,3.7,3c0,2.1-1.5,3-3.7,3H2.2L2.2,33.9z"/>
		<path class="st0" d="M13.9,31c0-1.3-1-2.3-2.3-2.3c-1.3,0-2.3,1-2.3,2.3H13.9z M14.7,32.9c-0.3,1.2-1.4,2.1-3.1,2.1
			c-2.1,0-3.3-1.3-3.3-3.6c0-2.2,1.3-3.6,3.3-3.6c2.2,0,3.6,1.7,3.3,4.2l-5.6,0c0.1,1.1,0.8,2.2,2.3,2.2c1,0,1.6-0.4,2-1.2
			L14.7,32.9z"/>
		<path id="b_00000139273828903534554210000002871552470519828643_" class="st0" d="M18.5,33.9h1.1v0.9l-3.2,0v-0.9h1.1v-5.1h-1.1
			v-0.9h2.1v1c0.4-0.7,1.4-1.4,2.8-1v1c-1.6-0.5-2.7,0.4-2.7,2V33.9z"/>
		<path class="st0" d="M29.2,33.9h1.1l0,0.9h-3.2v-0.9h1.1l0-2.9c0-1.6-1-2.3-2.1-2.3c-1,0-2,0.7-2,2.4v2.8h1.1v0.9h-3.2v-0.9h1.1
			v-5.1h-1.1v-0.9l2.1,0v1c0.4-0.5,1.1-1.1,2.2-1.1c1.5,0,2.8,0.9,2.8,3.2L29.2,33.9z"/>
		<path class="st0" d="M34.6,34.1c1.4,0,2.3-1,2.3-2.7c0-1.7-1-2.7-2.3-2.7c-1.3,0-2.3,0.9-2.3,2.7C32.3,33.1,33.3,34.1,34.6,34.1
			L34.6,34.1z M34.6,27.8c2.1,0,3.4,1.6,3.4,3.6c0,2.1-1.2,3.6-3.4,3.6c-2.1,0-3.3-1.5-3.3-3.6C31.3,29.3,32.5,27.8,34.6,27.8z"/>
		<path id="a_00000075140226905050001100000001131198463716738710_" class="st0" d="M40.2,31.4c0,1.8,1,2.7,2.3,2.7
			c1.3,0,2.3-0.9,2.3-2.7c0-1.7-1-2.7-2.3-2.7C41.2,28.7,40.2,29.6,40.2,31.4z M45.8,33.9h1.1v0.9h-2.1v-1c-0.4,0.6-1.3,1.1-2.4,1.1
			c-2,0-3.2-1.6-3.2-3.6c0-2.1,1.3-3.6,3.2-3.6c1,0,1.9,0.5,2.4,1.1v-2.8l-1.1,0v-0.9h2.1V33.9z"/>
		<path class="st0" d="M53.8,26.2v3.6H56c1.5,0,2.1-0.7,2.1-1.8c0-1.1-0.6-1.8-2.1-1.8H53.8z M51.5,25.2H56c1.8,0,3.1,1,3.1,2.8
			c0,1.6-1,2.5-2.4,2.7l1.5,3.2h1.3v1h-2l-2-4.1h-1.8v3.2h1v1l-3.3,0v-1h1.2l0-7.8h-1.2L51.5,25.2z"/>
		<path class="st0" d="M61.8,26.5H63v-1.3h-1.1V26.5z M63,33.9h1.1v0.9h-3.2v-0.9h1.1v-5.1h-1.1v-0.9H63V33.9z"/>
		<path class="st0" d="M71.7,32.3c-0.4,1.6-1.4,2.7-3.3,2.7c-2.1,0-3.3-1.5-3.3-3.6c0-2.1,1.2-3.6,3.3-3.6c1,0,1.9,0.5,2.3,1.1v-1h1
			v2.5h-1.1c-0.3-1-1-1.7-2.2-1.7c-1.3,0-2.3,0.9-2.3,2.7c0,1.7,1,2.7,2.3,2.7c1.2,0,2-0.7,2.3-1.7H71.7z"/>
		<path class="st0" d="M74,31.4c0,1.8,1,2.7,2.3,2.7s2.3-0.9,2.3-2.7c0-1.7-1-2.7-2.3-2.7C75,28.7,74,29.6,74,31.4z M78.5,27.9
			l2.1,0v0.9h-1.1v5.1h1.1v0.9h-2.1v-1c-0.4,0.7-1.3,1.1-2.4,1.1c-2,0-3.2-1.6-3.2-3.6c0-2.1,1.3-3.6,3.2-3.6c1,0,2,0.5,2.4,1.1
			L78.5,27.9z"/>
	</g>
</g>
</svg>
