<?xml version="1.0" encoding="utf-8"?>
<!-- Generator: Adobe Illustrator 26.0.1, SVG Export Plug-In . SVG Version: 6.00 Build 0)  -->
<svg version="1.1" id="Layer_1" xmlns="http://www.w3.org/2000/svg" xmlns:xlink="http://www.w3.org/1999/xlink" x="0px" y="0px"
	 viewBox="0 0 95 35" style="enable-background:new 0 0 95 35;" xml:space="preserve">
<style type="text/css">
	.st0{fill-rule:evenodd;clip-rule:evenodd;fill:#FFFFFF;}
</style>
<g>
	<polygon class="st0" points="17.3,17.4 20.9,17.4 20.9,18.7 19.8,18.7 19.8,20.9 23.9,20.9 23.9,18.7 22.7,18.7 22.7,17.4 
		26.4,17.4 26.4,18.7 25.3,18.7 25.3,25.2 26.4,25.2 26.4,26.5 22.7,26.5 22.7,25.2 23.9,25.2 23.9,22.2 19.8,22.2 19.8,25.2 
		20.9,25.2 20.9,26.5 17.3,26.5 17.3,25.2 18.5,25.2 18.5,18.7 17.3,18.7 17.3,17.4 	"/>
	<polygon class="st0" points="60.7,17.4 68.2,17.4 68.2,19.9 66.9,19.9 66.9,18.7 63.3,18.7 63.3,20.9 66.4,20.9 66.4,22.2 
		63.3,22.2 63.3,25.2 66.9,25.2 66.9,23.5 68.2,23.5 68.2,26.5 60.7,26.5 60.7,25.2 62,25.2 62,18.7 60.7,18.7 60.7,17.4 	"/>
	<polygon class="st0" points="28.1,17.4 35.6,17.4 35.6,19.9 34.3,19.9 34.3,18.7 30.7,18.7 30.7,20.9 33.8,20.9 33.8,22.2 
		30.7,22.2 30.7,25.2 34.3,25.2 34.3,23.5 35.6,23.5 35.6,26.5 28.1,26.5 28.1,25.2 29.3,25.2 29.3,18.7 28.1,18.7 28.1,17.4 	"/>
	<polygon class="st0" points="62.9,16.2 65.6,16.2 66.2,17 63.6,17 62.9,16.2 	"/>
	<path class="st0" d="M75.5,21.3c-0.9-0.2-1.6-0.2-2.5-0.5c-0.8-0.3-1-0.8-1-1.1c0-0.4,0.4-1.3,1.7-1.3c1.3,0,2.2,0.9,2.2,1.7l0,0
		l0,0h1.3v-2.7H76V18l0.1,0.2v0v0c0,0-0.1-0.1-0.2-0.2c0,0,0,0,0,0c-0.4-0.3-1.1-0.7-2.2-0.7c-1.4,0-2.9,0.9-2.9,2.5
		c0,1.6,1.1,2.1,2.1,2.4c1,0.3,1.5,0.3,2.3,0.5c0.8,0.2,1.3,0.7,1.3,1.4c0,0.7-0.4,1.6-2.1,1.6c-1.7,0-2.4-0.9-2.6-2.2l0,0h-1.2v3.2
		h1.3v-0.6l0,0l0-0.2c0,0,0,0.1,0.2,0.2v0c0.6,0.5,1.5,0.8,2.5,0.8c1.2,0,3.3-0.6,3.3-2.8C77.7,22.4,76.9,21.7,75.5,21.3L75.5,21.3z
		"/>
	<polygon class="st0" points="57.8,25.2 57.8,18.7 59,18.7 59,17.4 55.7,17.4 53.5,22.8 53.5,23 53.4,22.8 51.2,17.4 47.9,17.4 
		47.9,18.7 49.1,18.7 49.1,25.2 47.9,25.2 47.9,26.5 51.6,26.5 51.6,25.2 50.5,25.2 50.5,19.3 50.5,18.9 50.6,19.2 53.1,25.2 
		53.8,25.2 56.4,19.2 56.4,18.8 56.5,19.2 56.5,25.2 55.3,25.2 55.3,26.5 59,26.5 59,25.2 57.8,25.2 	"/>
	<path class="st0" d="M31.2,13.9c0,0,0,0-1.3,0v-0.3h0.9C30.9,13.6,31.1,13.8,31.2,13.9L31.2,13.9z"/>
	<path class="st0" d="M62.7,13.9c0-0.1,0.1-0.3,0.3-0.3h0.7v0.3H62.7L62.7,13.9z"/>
	<path class="st0" d="M42,14.1c-0.6,0.3-1.3,0.2-1.8,0h-6.6c-0.6,0.3-1.4,0.3-2,0h-1.7v0.6h33.7v-0.6H42L42,14.1z"/>
	<path class="st0" d="M34,13.9c0.1-0.1,0.3-0.3,0.4-0.3h5.1c0.1,0.1,0.2,0.3,0.3,0.3H34L34,13.9z"/>
	<path class="st0" d="M41.1,13.7c0.9,0,1.6-0.7,1.6-1.6c0-0.9-0.7-1.6-1.6-1.6c-0.9,0-1.6,0.7-1.6,1.6C39.5,13,40.2,13.7,41.1,13.7
		V14c-1.1,0-1.9-0.9-1.9-1.9c0-1.1,0.9-1.9,1.9-1.9c1.1,0,1.9,0.9,1.9,1.9c0,1.1-0.9,1.9-1.9,1.9V13.7L41.1,13.7z"/>
	<path class="st0" d="M34.8,11.9c0-1.2-1-2.2-2.2-2.2c-1.2,0-2.2,1-2.2,2.2c0,1.2,1,2.2,2.2,2.2C33.8,14,34.8,13.1,34.8,11.9h-0.4
		c0,1-0.8,1.8-1.8,1.8c-1,0-1.8-0.8-1.8-1.8c0-1,0.8-1.8,1.8-1.8c1,0,1.8,0.8,1.8,1.8H34.8L34.8,11.9z"/>
	<path class="st0" d="M42.1,13.2l-0.7-0.8v0c0,0,0-0.1,0.1-0.1l0,0l1,0.3c0,0,0.1,0,0.1,0.1c0,0,0-0.2,0.1-0.2c0,0-0.1,0-0.2,0
		l-0.9-0.3c0,0,0,0,0,0c0,0,0-0.1,0-0.1v0l1-0.4c0,0,0.1,0,0.1,0c0,0-0.1-0.2-0.1-0.2c0,0-0.1,0.1-0.1,0.1l0.1,0l-1,0.4c0,0,0,0,0,0
		c0,0,0-0.1-0.1-0.1c0,0,0-0.1,0-0.1l0.5-0.8c0,0,0.1-0.1,0.1-0.1c0,0-0.2-0.1-0.2-0.1c0,0,0,0.1,0,0.1l-0.5,0.8c0,0,0,0-0.1,0
		c0,0-0.1,0-0.1,0c0,0,0,0,0,0l0-1c0-0.1,0-0.1,0.1-0.1c-0.1,0-0.2,0-0.3,0c0,0,0.1,0.1,0.1,0.1l0,1c0,0,0,0,0,0s-0.1,0-0.1,0.1
		c0,0,0,0,0,0l-0.6-0.8c0,0,0-0.1,0-0.1c0,0-0.2,0.1-0.2,0.2c0,0,0.1,0,0.1,0.1l0.6,0.8v0c0,0-0.1,0.1-0.1,0.1c0,0,0,0-0.1,0
		l-0.9-0.3c-0.1,0-0.1-0.1-0.1-0.1c0,0-0.1,0.2-0.1,0.2c0,0,0.1,0,0.1,0l0.9,0.2c0,0,0,0,0,0c0,0,0,0.1,0,0.1v0l-0.9,0.4
		c0,0-0.1,0-0.1,0c0,0,0,0.2,0.1,0.2c0,0,0.1-0.1,0.1-0.1l0.9-0.4c0,0,0,0,0,0c0,0,0.1,0,0.1,0.1c0,0,0,0,0,0l-0.6,0.8
		c0,0-0.1,0.1-0.1,0.1c0,0,0.2,0.1,0.2,0.1c0,0,0-0.1,0-0.1l0.6-0.8c0,0,0,0,0,0c0,0,0.1,0,0.1,0c0,0,0,0,0,0l0.1,1
		c0,0,0,0.1-0.1,0.1c0,0,0.2,0,0.3,0c-0.1,0-0.1-0.1-0.1-0.1l-0.1-1c0,0,0,0,0,0c0,0,0.1,0,0.1-0.1c0,0,0,0,0,0L42.1,13.2
		c-0.1,0.1-0.1,0.2-0.1,0.2C42.1,13.4,42.2,13.3,42.1,13.2C42.2,13.3,42.1,13.2,42.1,13.2L42.1,13.2z"/>
	<path class="st0" d="M32.5,10.6c0.9,0,1.8,0.1,2.4,0.3c0.1,0,0.1,0.1,0,0.1c-0.6,0.1-1.5,0.2-2.3,0.2c-0.9,0-1.8,0-2.4-0.1
		c-0.1,0-0.1-0.1,0-0.1C30.7,10.8,31.6,10.6,32.5,10.6v-0.2c-1,0-2,0.3-2.8,0.6c-0.1,0-0.1,0.1,0,0.1c0.9,0.2,1.9,0.3,2.8,0.2
		c0.9,0,1.9-0.1,2.8-0.4c0.1,0,0.1-0.1,0-0.1c-0.9-0.3-1.8-0.4-2.9-0.4V10.6L32.5,10.6z"/>
	<path class="st0" d="M42.4,10c-0.2,0.1-0.6,0.2-0.8,0.2c-0.2,0-1,0-1.6,0c-0.8,0-0.8,0.1-0.9,0.1C39,10,38.8,9.6,38.6,9.4
		c-1.6,0.3-3.1,0-4.5-0.5V8.7c0.1,0,0.2,0,0.2,0c-0.2-0.3-0.6-0.4-0.9-0.8c-0.1-0.1-0.2-0.3-0.3-0.4c0,0.4-0.3,0.6-0.3,0.9
		c0.2,0.1,0.5,0.1,0.6,0c0.1,0,0.3,0,0.4,0.1c0.1,0,0.2,0.1,0.3,0.1v0.2c-0.2,0-0.2-0.1-0.3-0.1c-0.2,0.1-0.3,0-0.4,0
		c0,0-0.4,0-0.5,0c-0.4,0-0.9,0.2-1.1,0.5c-0.1,0.2-0.1,0.4,0,0.6c0.1,0.1,0.4,0.5,0.6,0.7l-0.3,0.1c-0.4-0.4-0.7-0.7-0.6-1.1
		c0.2-0.9,1.1-0.8,1.3-1.2c0.2-0.4,0.2-1.4,0-1.7c-0.6-0.2-1.3-0.5-1.4-1.2c0-0.2,0-0.4,0.2-0.4c0.3-0.1,0.5,0.1,0.7,0.2
		c0.1-0.1-0.1-0.3,0.1-0.3c0.3,0,0.5,0.6,0.6,0.6l0,0.2c-0.2-0.1-0.9-0.5-1-0.5c-0.1-0.1-0.3-0.2-0.4,0c-0.1,0.2,0,0.4,0.1,0.5
		c1.6,1.6,4.1-0.1,5.8,1.1c0-0.1,0-0.1-0.1-0.2c-1.2-1.1-3-0.5-4.5-0.9l0-0.2c1.8,0.5,4.3-0.3,5.2,1.8C39,8.2,39.6,9.6,41,9.7
		c1.1,0,1.8-0.4,2.3-1.2c0.7-1.3,1.2-2.8,2.4-3.7c0.1-0.1,0.2,0,0.1,0c-0.6,0.6-1.2,1.5-1.5,2.1c0.5,1.9,1.6,1.5,1.8,1.5
		c-0.1-0.7,0-2.7,1.5-3.2c0.3-0.3,1.5-1,3.1-0.4c-1.2,1.1-1.8,2.6-2.1,3.7l-1.3,0.4c0.1-0.2,0.1-0.5,0.1-0.9
		c-0.1,0.1-0.3,0.2-0.6,0.3c-0.1,0,0-0.2,0-0.2c0-0.1,0.3-0.2,0.6-0.4C47.4,7,47.3,6,48,5.4c-1.3,0.4-0.9,3.1-0.8,3.5
		C46.8,9,46.3,9,46.3,9l-0.1-0.5c-0.6,0.2-1.5,0.1-1.9-1.4C43.8,8.1,43.4,9.6,42.4,10L42.4,10z"/>
	<path class="st0" d="M62.5,6c-0.1-0.1-0.1-0.1-0.2-0.1c0,0,0-0.1,0-0.1C62.4,5.8,62.5,5.8,62.5,6C62.5,5.9,62.5,6,62.5,6L62.5,6z"
		/>
	<path class="st0" d="M32.9,12.4l0.7,0.8c0.1,0.1,0.1,0.2,0,0.2c0.1,0,0.2-0.2,0.3-0.3c0,0-0.2,0-0.2,0L32.9,12.4
		c0.1-0.1,0.1-0.1,0.1-0.2c0,0,0,0,0,0c0,0,0,0,0,0l1,0.4c0.1,0.1,0.1,0.1,0.1,0.2c0-0.1,0.1-0.3,0.1-0.3c0,0-0.1,0.1-0.2,0l-1-0.4
		c0,0,0,0,0,0c0,0,0,0,0-0.1c0,0,0,0,0,0l1.1-0.2c0.1,0,0.2,0,0.2,0.1c0-0.1,0-0.3,0-0.4c0,0-0.1,0.1-0.2,0.2l-1,0.2c0,0,0,0,0,0
		c0,0,0-0.1-0.1-0.1v0l0.8-0.7c0.1-0.1,0.2-0.1,0.2,0c-0.1-0.1-0.2-0.2-0.3-0.3c0,0,0,0.1-0.1,0.2L33,11.4c0,0,0,0,0,0
		c0,0-0.1,0-0.1,0c0,0,0,0,0,0l0.4-1c0-0.1,0.1-0.1,0.2-0.1c-0.1,0-0.3-0.1-0.4-0.1c0,0,0.1,0.1,0.1,0.2l-0.4,1c0,0,0,0,0,0
		c0,0-0.1,0-0.1,0l0,0l-0.2-1.1c0-0.1,0.1-0.2,0.1-0.2c-0.1,0-0.3,0-0.4,0.1c0,0,0.1,0.1,0.2,0.2l0.2,1c0,0,0,0,0,0.1
		c0,0-0.1,0-0.1,0h0l-0.7-0.8c-0.1-0.1-0.1-0.2,0-0.2c-0.1,0-0.2,0.2-0.3,0.2c0,0,0.1,0,0.2,0.1l0.7,0.8v0c0,0,0,0-0.1,0.1
		c0,0,0,0,0,0l-1-0.4c-0.1,0-0.2-0.1-0.1-0.2c-0.1,0.1-0.1,0.3-0.1,0.4c0,0,0.1-0.1,0.2,0l1,0.3c0,0,0,0,0,0c0,0,0,0.1,0,0.1
		c0,0,0,0,0,0L31,12.1c-0.1,0-0.2-0.1-0.2-0.1c0,0.1,0,0.3,0.1,0.4c0,0,0-0.1,0.2-0.2l1-0.2c0,0,0,0,0,0c0,0,0,0,0,0.1c0,0,0,0,0,0
		l-0.8,0.7c-0.1,0.1-0.2,0.1-0.2,0c0,0.1,0.2,0.3,0.2,0.3c0,0,0-0.1,0.1-0.2l0.9-0.7c0,0,0,0,0,0c0,0,0,0,0.1,0.1c0,0,0,0,0,0
		l-0.4,1c0,0.1-0.1,0.2-0.2,0.1c0.1,0,0.3,0.1,0.4,0.1c-0.1,0-0.1-0.1-0.1-0.2l0.4-1c0,0,0,0,0,0c0,0,0.1,0,0.1,0c0,0,0,0,0,0l0.2,1
		c0,0.1-0.1,0.2-0.1,0.2c0.1,0,0.3-0.1,0.4-0.1c0,0-0.1-0.1-0.1-0.1l-0.2-1.1c0,0,0,0,0,0C32.8,12.4,32.8,12.4,32.9,12.4
		C32.9,12.3,32.9,12.3,32.9,12.4L32.9,12.4z"/>
	<path class="st0" d="M62,6.1C62,6.1,62,6.1,62,6.1c0-0.2,0.1-0.2,0.1-0.3c-0.2-0.1-0.2-0.4-0.1-0.5c0.1-0.1,0.4,0,0.4,0
		C62.7,5.2,62.8,5,63,4.9c0.2,0,0.7,0.4,0.7,0.7c-0.1,0.1-0.2,0.3-0.5,0.6c0.1,0.2,0.1,0.4-0.1,0.5c0,0-0.1,0-0.2-0.1
		c0,0.3,0.4,0.5,0.5,0.8c0,0.5,0.6,1.2-0.1,1.6c-0.1,0.1-0.3,0.2-0.3,0.3c0.1,0.5,0.3,1.1,0.4,1.7l-0.6,0c-0.1,0.2-0.3,0.6-0.2,0.8
		c0,0,0,0,0,0c0.1,0.1,0.1,1.2,0.1,1.3c0,0.1,0.1,0.1,0,0.4c-0.1,0-0.3,0.2-0.4,0.3c-0.2,0.2-0.6,0.2-0.6,0.1c0-0.2,0.3-0.4,0.4-0.6
		c0.1-0.8,0-1.6-0.4-2.2c-0.2-0.1-0.3,0.2-0.4,0.3c0.2,0.5,0.5,1,0.4,1.6c0,0.2,0.2,0.4,0.1,0.6l-0.5,0.3h-1.9
		c-0.1-0.1-0.2-0.2-0.2-0.3H61c0-0.1,0.2,0,0.3-0.3c0-0.8-0.8-1.9-0.7-2.3c0.2-0.5,0.4-0.9,0.7-1.6l0.1,0c-0.3,1-0.7,1.5-0.7,1.8
		c0,0.2,0.1,0.3,0.2,0.5l0.1,0.2c0,0.1,0.1,0.3,0.2,0.4c0.1,0,0.2-0.1,0.2-0.1c0-0.1-0.1-0.3-0.2-0.4l-0.3,0.1L61,11.6
		c0.2,0,0.3-0.1,0.2-0.2c0.5-0.2-0.1-0.2,0.1-0.3c0.3-0.1,0.4-0.6,0.4-0.9c0-0.1,0-0.1,0.1-0.1c0.2,0.5,0.2,1.2,0.5,1.7V12
		c0,0.1,0,0.3,0.1,0.4c0.3,0,0.3,0,0.2-0.4c-0.1,0-0.2,0-0.3,0v-0.2c0,0,0.2,0,0.2,0c-0.1-0.2-0.1-0.3-0.1-0.5
		c0-0.1,0.1-0.3,0.1,0.1c0.1,0,0.3-0.8,0.3-1c-0.6,0.1,0-0.6-0.5-0.6l0.2-0.4c0-0.1-0.1-0.2-0.3-0.2l-0.1-0.2
		c-0.1,0-0.2-0.2-0.3-0.3c-0.1,0.1-0.3,0.3-0.3,0.4c0,0,0.1,0.1,0.1,0c0.1-0.1,0.2,0.1,0.3,0.1c0.1-0.1,0.3-0.1,0.2-0.2l0.1,0.2
		c-0.1,0.1-0.1,0.3-0.1,0.5c-0.2,0.4-0.1-0.2-0.4-0.2c-0.2,0.1-0.2-0.2-0.3-0.1l-0.1,0c0-0.2,0-0.5,0-0.8c0.2-1.1,0.4-1.1,0.5-1.4
		c0-0.1,0.5-0.4,0.5-0.5c0,0,0.1,0.1,0.1,0.1C62.3,7,62,7,62,7.3C62.2,7,62.8,7,62.8,6.6c-0.1-0.3,0.1-0.1,0.1-0.4
		c-0.1-0.1-0.3-0.3-0.3-0.4c0,0,0.1-0.2-0.4-0.2c0,0-0.1,0.2-0.1,0.3C62.1,6,62.1,6.1,62,6.1c0.1,0,0.1,0,0.1,0.2
		c0,0.1,0,0.2,0.1,0.3c0.3,0.1,0.5,0,0.2,0.2c0,0,0,0.1,0,0.1c0,0-0.1-0.2-0.1-0.2c0,0-0.2-0.1-0.2-0.2C62.1,6.3,62.1,6.2,62,6.1
		L62,6.1z"/>
	<path class="st0" d="M53.1,4.9c0,0.2-0.1,0.4-0.1,0.6c0.2,0.6,0,1,0.1,1.5c-0.3-0.2-0.3-0.6-0.4-1.1c-0.1-0.4,0-0.5,0.1-1L53.1,4.9
		L53.1,4.9z"/>
	<path class="st0" d="M52.5,5c0,0.7-0.1,1,0.4,2.1c-1.3,0.5-2.3,0.9-3.8,1.3c0.2-1.1,1.2-3.1,2-3.6C51.8,5,52.5,5,52.5,5L52.5,5z"/>
	<path class="st0" d="M49.2,12.8c-0.3,0.1-0.3,0.3-0.1,0.5c0.1,0.1,0.3,0.3,0.3,0.3h-2.1c0,0.1,0.1,0.2,0.2,0.3h11.7
		c0.1-0.2-0.1-0.4-0.2-0.6c-0.8-0.3-0.8-1.1-0.9-1.9c0,0-0.1-0.1-0.1-0.3c-0.1-0.1-0.7-1.5-0.4-2.6l0.2-0.4c0.2-0.2,0-0.4,0.1-0.6
		l2.4-0.5c0,0,0-0.1,0-0.2l0,0c0,0,0,0,0,0l-2.4,0.4c0.1-0.6-0.4-0.8-0.2-1.3c0.3,0.4,1.2,1,1.7,1.1l0.2,0c-0.6-0.3-1.7-0.9-2.2-1.7
		c-0.1,0-0.1-0.1-0.2-0.1c0,0.1,0.2,0.3,0.1,0.3c0,0-0.4,0.3-1.1-0.1C56,6,53.4,7.2,53.4,7.2c0.1,0.7,0.4,1.2,0.8,1.6
		c0,0.1-0.1-0.1,0,0c0.5,0.4,1.2,0.6,1.8,0.8c0.1,0.4,0.6,1.7,0.7,1.9c0.1,0.2,0.2,0.2,0.2,0.2c0.1,0.1,0.3,0.5,0.3,0.7l0.1,0.7
		c0,0.2,0.2,0,0.3,0.2l-0.1,0.4h0.5c-0.3-0.2-0.1-0.6-0.4-0.8c0-0.4-0.1-0.7-0.2-0.9c-0.1-0.4-0.6-1.5-0.8-2.4l0.2-0.2
		c-0.7,0.2-1.3-0.1-1.9-0.4c-0.5-0.2-0.2,0,0-0.1c0.8,0.4,1.2,0.3,1.8,0.2c0.1,0.1,0.2,0.2,0.2,0.4l-0.2,0.2
		c0.2-0.2,0.3-0.1,0.4,0.4c0.1,0.4,0.3,0.7,0.4,1c0.1,0.3,0.2,0.8,0.3,1c0,0,0.1,0,0.2,0.1c0.2,0.7,0.3,0.8,0.3,1.2
		c0.1,0.3,0.4,0,0.4,0.4h-8.7c0.1-0.5-0.2-1,0-1.5c-0.3-0.5-1.2-0.9-1-1.7C49,9.9,50.3,9.3,50,8.7c1.2-0.6,1.8,0.4,2.9,0.3
		c0.4,0,0.8-0.1,1.2-0.2c-0.5-0.4-0.9-0.9-1.1-1.4c-2.3,1-4.6,1.7-7,2.2l-0.2-0.1c-0.2,0-4,0.9-3.9,1.1c-1.4,0.1-3.1,0.7-3.4,0.9
		c-0.2,0.1-0.2,0.2,0,0.2c1.5,0.4,2.8,0.1,5.1-0.8l-0.2-0.1c-0.1,0.1-2,0.8-2.8,0.9c-0.8,0.1-1.5,0.1-1.8,0c-0.1,0-0.1,0,0-0.1
		c1.5-0.6,4.4-1.1,4.8-0.6c0.2,0.1,0.4,0.2,0.5,0.4c0.1,0.2,0.4,0.1,0.6,0.1c0.3-0.1,0.3-0.3,0.3-0.5l-0.3,0c-0.1,0-0.7,0.1-0.7,0.1
		c-0.2-0.2-0.4-0.3-0.7-0.4c0.5-0.2,1.4-0.4,1.8-0.5c-0.4,0.3-0.2,0.7-0.5,0.7l0.3,0c0-0.1,0-0.2,0.1-0.3c0.3-0.7,1.6-0.8,2.2-1
		c0,0-0.3,0.4-0.6,0.5c-0.1,1-0.4,1.9-0.5,2.9c0.3,0,0.3,0.3,0.4,0.5c-0.1,0.2-0.2,0-0.4,0c-0.5-0.2,0.1-0.6-0.3-1
		c0.2-0.8,0.5-1.7,0.5-2.5c-0.1,0-0.2,0.1-0.2,0.2c-0.1,0.8-0.3,1.6-0.5,2.3c0.1,0.1,0.2,0.1,0.2,0.3c-0.3,0.2,0,0.5-0.1,0.7h-3
		l-0.3,0.3H47l0-0.2c-0.7-0.7-0.4-1.8-0.1-2.6l0.8-1.1c0.7-0.3,1.1-1.1,1.7-1.3c0,0.4-0.4,0.5-0.7,0.7c-0.3,0.6-1,0.6-1.1,1.3
		c0.3,0.3,0.7,0.6,1.1,0.9c0.4,0.2,0.3,0.7,0.5,1C49.3,12.6,49.3,12.8,49.2,12.8L49.2,12.8z"/>
	<path class="st0" d="M54.3,0.9c-0.1,0.2-0.4,0.3-0.2,0.7c-0.3,0.2-0.2,0.5-0.1,0.7c-0.2,0.2-0.3,0.5,0,0.7
		c-0.3,0.3,0.1,0.6,0.2,0.7c-0.1,0.3,0,0.5,0,0.5l0,0c0,0.2-0.4,0.5-0.5,0.6c-0.2,0.5-0.1,1.5-0.1,2.2c0.9-0.5,1.8-0.9,2.6-1.5
		C55.4,5,54.9,4,54.2,4c-0.1-0.7-0.4-2,0.7-3.3c0.1-0.1,0.3-0.1,0.4-0.2c-0.4-0.1-1,0.2-1.4,0C53.9,0.5,54.1,0.8,54.3,0.9L54.3,0.9
		L54.3,0.9z"/>
	<path class="st0" d="M56.5,0.5c0,0,0.1,0.1,0.1,0.1s0.1,0,0.1-0.1c0,0,0-0.1,0-0.2c0,0-0.1,0-0.2,0C56.5,0.4,56.5,0.5,56.5,0.5
		L56.5,0.5l-0.5-0.3L56,0.2c0,0,0.2-0.2,0.3-0.2c0.1,0,0.6,0,0.8,0.1c0.1,0.1,0.2,0.2,0.3,0.4c0.4,0.3,1,0.3,1.3,0.6
		c-0.1,0.1,0.1,0.3,0,0.3c-0.1,0-0.3,0-0.4,0l0,0.2l-0.1,0c0,0,0.1-0.2,0-0.2c-0.1,0-0.2-0.1-0.3-0.1c0,0,0,0.1,0,0.1
		c0,0.1,0.2,0.1,0.3,0.1l0.1,0l0.2,0c-0.1,0.2-0.1,0.2-0.3,0.2c-0.1,0.2,0.3,0.3,0.3,0.4c0,0.1-0.1,0.1-0.3,0c0,0-1,0.9-1.5,1.2
		c-0.6,0.3,0-0.1,0-0.1C56.8,3,58,2.1,58,2c0-0.1-0.1-0.2-0.1-0.3c-0.2-0.1-0.5,0-0.6,0.1c0.1,0.3,0.6,1.8,0.2,4l-0.1-0.1
		c0.4-2.2-0.2-3.9-0.2-3.9c-0.3,0.1-0.6,0-0.7,0.1c-0.1,1.4,1,1.6,0.6,3.3c-1.2-0.2-2-1.6-2.6-1.5c0-0.2-0.3-0.6,0-0.8
		c-0.1-0.2-0.1-0.5,0.2-0.6c-0.1-0.3-0.1-0.5,0.2-0.7c-0.1-0.2,0-0.5,0.3-0.6c0-0.3,0.2-0.5,0.4-0.6C55.2,0.3,55.1,0,55.1,0
		c0.3,0.2,0.5,0.3,0.9,0.2L56.5,0.5L56.5,0.5z"/>
	<path class="st0" d="M45.3,25.2l0-1.8c0-0.6-0.4-1.2-0.9-1.5c-0.1,0-0.3-0.1-0.4-0.1c0.1,0,0.3,0,0.5-0.1l0,0
		c0.5-0.2,1.1-0.9,1.1-1.9c0-0.8-0.3-1.5-0.9-1.9c-0.6-0.4-1.2-0.5-1.8-0.5h-5.1v1.3h1.2v6.5h-1.2v1.3h3.6v-1.3h-1.2v-2.9h2.5
		c0.9,0,1.2,0.6,1.2,1.1l0.1,3.1h2.5v-1.3H45.3L45.3,25.2z M42.9,21.1h-2.8v-2.4c0,0,2,0,2.6,0c0.3,0,0.6,0,0.9,0.1
		c0.3,0.2,0.6,0.5,0.6,1.1C44.3,20.6,43.6,21.1,42.9,21.1L42.9,21.1z"/>
	<path class="st0" d="M37.2,29.8c1.2,0,1.7,0.7,1.7,1.5c0,0.8-0.6,1.5-1.8,1.5h-0.9V35h-0.8v-5.2H37.2L37.2,29.8z M36.2,32h0.9
		c0.6,0,1-0.3,1-0.8c0-0.4-0.2-0.8-0.9-0.8h-1V32L36.2,32z"/>
	<path class="st0" d="M44.8,35H44l-0.7-1.6h-2.3L40.4,35h-0.8l2.3-5.2h0.5L44.8,35L44.8,35z M41.4,32.7H43l-0.9-2L41.4,32.7
		L41.4,32.7z"/>
	<polygon class="st0" points="53.5,35 52.7,35 52.7,29.8 53.5,29.8 53.5,35 	"/>
	<path class="st0" d="M59,30.9c-0.5-0.4-1-0.5-1.4-0.5c-0.5,0-0.9,0.2-0.9,0.6c0,1,2.4,1,2.4,2.7c0,0.8-0.7,1.4-1.6,1.4
		c-0.6,0-1.1-0.1-1.6-0.5v-1c0.4,0.5,1,0.8,1.5,0.8c0.6,0,0.9-0.4,0.9-0.7c0-1.1-2.5-1.2-2.5-2.6c0-0.9,0.7-1.4,1.7-1.4
		c0.5,0,0.9,0.1,1.3,0.4V30.9L59,30.9z"/>
	<path class="st0" d="M50.3,34.3c-0.1-0.1-0.2-0.3-0.3-0.4c-0.4-0.7-0.7-1.1-1.2-1.4c0.6-0.2,0.9-0.7,0.9-1.3c0-0.9-0.7-1.5-1.8-1.5
		h-1.4V35h0.8v-2.3h0.3c0.4,0,0.7,0.1,1.4,1.2l0.7,1.1h0.9L50.3,34.3L50.3,34.3z M47.8,32h-0.5v-1.7h0.5c0.8,0,1.1,0.3,1.1,0.8
		C48.9,31.6,48.7,32,47.8,32L47.8,32z"/>
</g>
</svg>
