<?xml version="1.0" encoding="utf-8"?>
<!-- Generator: Adobe Illustrator 26.0.1, SVG Export Plug-In . SVG Version: 6.00 Build 0)  -->
<svg version="1.1" id="Layer_1" xmlns="http://www.w3.org/2000/svg" xmlns:xlink="http://www.w3.org/1999/xlink" x="0px" y="0px"
	 viewBox="0 0 95 35" style="enable-background:new 0 0 95 35;" xml:space="preserve">
<style type="text/css">
	.st0{fill:#CCCCCC;}
	.st1{fill-rule:evenodd;clip-rule:evenodd;fill:#CCCCCC;}
</style>
<path class="st0" d="M66.1,27.5v1.4h0.2c0.2-0.3,0.5-0.5,0.9-0.5h1.4v6.5h2.1v-6.5h1.4c0.4,0,0.7,0.2,0.9,0.5h0.2v-1.4L66.1,27.5
	L66.1,27.5z M66.3,34h-2.3v-6.5h-2.6v0.2c0.3,0.2,0.4,0.5,0.4,0.9v6.3h5.5v-1.4h-0.2C67,33.8,66.7,34,66.3,34z M58.8,27.7
	c0.3,0.2,0.4,0.5,0.4,0.9v2.8c0,1.4-0.5,2.2-1.8,2.2c-1.3,0-1.8-0.8-1.8-2.2v-3.9h-2.6v0.2c0.3,0.2,0.4,0.5,0.4,0.9v3.2
	c0,1.8,1.1,3.2,3.3,3.2c2.4,0,3.4-1.1,3.4-3.5v-4h-1.5L58.8,27.7L58.8,27.7z M52.8,34.1L50,27.5h-1.6l-3.2,7.4h1.2l0.7-1.7h3.1
	l0.7,1.7h2.6v-0.2C53.1,34.6,52.9,34.4,52.8,34.1L52.8,34.1z M47.4,32.3l1.2-2.9l1.2,2.9H47.4z M42.9,27.7c0.3,0.2,0.4,0.5,0.4,0.9
	v4.4L40,27.5h-2.9v0.2c0.3,0.2,0.4,0.5,0.4,0.9v6.3h1.1v-5.5l3.4,5.5h2.4v-7.4h-1.5V27.7z M35.2,34h-2.5v-2.5h2.8v-0.9h-2.8v-2.3
	h2.4c0.4,0,0.7,0.2,0.9,0.4h0.2v-1.3h-6v0.2c0.3,0.2,0.4,0.5,0.4,0.9v6.3h5.7v-1.4h-0.2C35.9,33.8,35.6,34,35.2,34L35.2,34z
	 M29.2,34.2l-1.8-2.7c0.9-0.3,1.6-1,1.6-2c0-1.3-1-2-2.5-2h-4.7v0.2c0.3,0.2,0.4,0.5,0.4,0.9v6.3h2.1v-3.1h0.8l1.8,3.1h2.8v-0.2
	C29.5,34.6,29.3,34.4,29.2,34.2z M25.3,30.9h-0.9v-2.6h0.9c0.8,0,1.4,0.4,1.4,1.3C26.7,30.4,26.1,30.9,25.3,30.9z"/>
<g>
	<path class="st1" d="M47.4,7.1C47.3,7.1,47.3,7.1,47.4,7.1l0-0.4c-1,1.9-2.1,4-2.9,5.9c0.8,1.8,1.9,4,2.9,5.7v-0.4l0.1,0.1
		c0.7-1.4,1.8-4.1,2.4-5.5C49.1,10.9,48.1,8.6,47.4,7.1z"/>
	<path class="st1" d="M49.1,3.1C49.2,3.1,49.2,3.1,49.1,3.1L49.2,3h-4c-0.2,0-0.3,0.1-0.4,0.2c0.1-0.1,0.2-0.2,0.4-0.2H49.1z"/>
	<path class="st1" d="M54.7,12.6c-1.4,2.9-3.3,6.5-4.9,9.1c0,0.1,0,0.1,0,0.1c0,0,0,0,0.1-0.1C51.4,19.1,53.3,15.5,54.7,12.6
		c0.1,0,0.1-0.1,0.1-0.1C54.7,12.5,54.7,12.6,54.7,12.6z"/>
	<path class="st1" d="M39.9,12.5c0,0.1,0,0.1,0.1,0.2c1.3,2.7,3.1,6.1,5,9.1c0.1,0.1,0.1,0.1,0.2,0.2c0.7-1.1,1.5-2.4,2.1-3.6
		c-0.9-1.7-2.2-4.1-2.9-5.9H39.9z"/>
	<path class="st1" d="M49.8,3.1c-0.1-0.1-0.2-0.1-0.3,0c0.1,0,0.1,0,0.2,0.1c1.9,2.9,3.6,6.1,5,9.1c0,0.1,0,0.1,0,0.1
		c0.1,0,0.2,0,0.1-0.2C53.4,9.2,51.7,6,49.8,3.1z"/>
	<path class="st1" d="M36.6,0v25H58V0H36.6z M55,12.7c-1.4,2.9-3.4,6.6-5.1,9.3c-0.1,0.1-0.2,0.2-0.3,0.2h-4.5c-0.1,0-0.2,0-0.3-0.2
		c-1.9-3-3.8-6.6-5.1-9.3c-0.1-0.2-0.1-0.3,0-0.4c1.5-3.2,3.2-6.3,5-9.3c0.1-0.1,0.2-0.2,0.4-0.2h4.5c0.2,0,0.2,0.1,0.3,0.2
		c1.8,2.9,3.6,6.2,5.1,9.2C55,12.5,55,12.6,55,12.7z"/>
</g>
</svg>
