<?xml version="1.0" encoding="utf-8"?>
<!-- Generator: Adobe Illustrator 26.0.1, SVG Export Plug-In . SVG Version: 6.00 Build 0)  -->
<svg version="1.1" id="Layer_1" xmlns="http://www.w3.org/2000/svg" xmlns:xlink="http://www.w3.org/1999/xlink" x="0px" y="0px"
	 viewBox="0 0 95 35" style="enable-background:new 0 0 95 35;" xml:space="preserve">
<style type="text/css">
	.st0{fill:#FFFFFF;}
</style>
<g id="g3183">
	<path id="path3189" class="st0" d="M24.4,24.8L24.4,24.8l-0.5,1.3h1L24.4,24.8z M24.1,24.2h0.7l1.3,3.3h-0.7l-0.3-0.7h-1.3
		l-0.3,0.7h-0.7L24.1,24.2"/>
	<path id="path3191" class="st0" d="M26.4,24.2h1.9v0.5h-1.3v0.8h1.2V26h-1.2v0.9h1.3v0.5h-1.9V24.2"/>
	<path id="path3193" class="st0" d="M29.7,25.6h0.2c0.3,0,0.7,0,0.7-0.5c0-0.4-0.4-0.4-0.7-0.4h-0.2V25.6z M29.1,24.2h0.7
		c0.7,0,1.5,0,1.5,0.9c0,0.4-0.3,0.7-0.7,0.8v0c0.2,0,0.3,0.2,0.3,0.3l0.5,1.3h-0.7l-0.4-1c-0.1-0.2-0.2-0.3-0.5-0.3h-0.2v1.4h-0.7
		L29.1,24.2"/>
	<path id="path3195" class="st0" d="M33.4,27c0.7,0,0.9-0.6,0.9-1.2c0-0.6-0.3-1.2-0.9-1.2c-0.6,0-0.9,0.6-0.9,1.2
		C32.4,26.4,32.7,27,33.4,27z M33.4,24.1c1,0,1.6,0.7,1.6,1.7c0,1-0.6,1.7-1.6,1.7c-1,0-1.6-0.7-1.6-1.7
		C31.8,24.8,32.3,24.1,33.4,24.1"/>
	<path id="path3197" class="st0" d="M37.2,24.8c-0.2-0.1-0.4-0.1-0.7-0.1c-0.2,0-0.5,0.1-0.5,0.5c0,0.6,1.4,0.3,1.4,1.4
		c0,0.7-0.6,1-1.2,1c-0.4,0-0.5,0-0.8-0.1l0.1-0.6c0.2,0.1,0.5,0.2,0.7,0.2c0.2,0,0.6-0.1,0.6-0.4c0-0.6-1.4-0.4-1.4-1.4
		c0-0.7,0.6-1,1.1-1c0.3,0,0.5,0,0.8,0.1L37.2,24.8"/>
	<path id="path3199" class="st0" d="M38.7,25.7h0.2c0.3,0,0.6-0.1,0.6-0.5c0-0.4-0.3-0.5-0.6-0.5h-0.2
		C38.7,24.7,38.7,25.7,38.7,25.7z M38,24.2h0.8c0.7,0,1.4,0.2,1.4,1c0,0.8-0.6,1-1.3,1h-0.3v1.2H38V24.2"/>
	<path id="path3201" class="st0" d="M41.7,24.8L41.7,24.8l-0.5,1.3h1L41.7,24.8z M41.4,24.2h0.7l1.3,3.3h-0.7l-0.3-0.7h-1.3
		l-0.3,0.7h-0.7L41.4,24.2"/>
	<path id="path3203" class="st0" d="M46,27.4c-0.2,0.1-0.5,0.1-0.7,0.1c-1.1,0-1.8-0.5-1.8-1.6c0-1.1,0.7-1.7,1.8-1.7
		c0.2,0,0.5,0,0.7,0.1l0,0.6c-0.2-0.1-0.5-0.2-0.7-0.2c-0.7,0-1.1,0.5-1.1,1.2c0,0.7,0.4,1.2,1.1,1.2c0.3,0,0.6-0.1,0.7-0.1L46,27.4
		"/>
	<path id="path3205" class="st0" d="M46.8,24.2h1.9v0.5h-1.3v0.8h1.2V26h-1.2v0.9h1.3v0.5h-1.9V24.2"/>
	<path id="path3207" class="st0" d="M52.5,26.9h0.4c0.5,0,1.1-0.4,1.1-1.1c0-0.7-0.5-1.1-1.1-1.1h-0.4
		C52.5,24.7,52.5,26.9,52.5,26.9z M51.8,24.2h0.9c1,0,1.9,0.3,1.9,1.6c0,1.3-0.9,1.6-1.9,1.6h-0.9V24.2"/>
	<path id="path3209" class="st0" d="M55.2,24.2h1.9v0.5h-1.3v0.8H57V26h-1.2v0.9h1.3v0.5h-1.9V24.2"/>
	<path id="path3211" class="st0" d="M57.9,24.2h1.8v0.5h-1.2v0.8h1.1V26h-1.1v1.4h-0.7L57.9,24.2"/>
	<path id="path3213" class="st0" d="M60.3,24.2h1.9v0.5h-1.3v0.8h1.2V26h-1.2v0.9h1.3v0.5h-1.9V24.2"/>
	<path id="path3215" class="st0" d="M62.9,24.2h0.8l1.2,2.4h0v-2.4h0.6v3.3h-0.8L63.6,25h0v2.4h-0.6V24.2"/>
	<path id="path3217" class="st0" d="M68.7,27.4c-0.2,0.1-0.5,0.1-0.7,0.1c-1.1,0-1.8-0.5-1.8-1.6c0-1.1,0.7-1.7,1.8-1.7
		c0.2,0,0.5,0,0.7,0.1l0,0.6c-0.2-0.1-0.5-0.2-0.7-0.2c-0.7,0-1.1,0.5-1.1,1.2c0,0.7,0.4,1.2,1.1,1.2c0.3,0,0.6-0.1,0.7-0.1
		L68.7,27.4"/>
	<path id="path3219" class="st0" d="M69.4,24.2h1.9v0.5h-1.3v0.8h1.2V26h-1.2v0.9h1.3v0.5h-1.9V24.2"/>
	<path id="path3221" class="st0" d="M76.1,24.8c-0.2-0.1-0.4-0.1-0.7-0.1c-0.2,0-0.5,0.1-0.5,0.5c0,0.6,1.4,0.3,1.4,1.4
		c0,0.7-0.6,1-1.2,1c-0.4,0-0.5,0-0.8-0.1l0.1-0.6c0.2,0.1,0.5,0.2,0.7,0.2c0.2,0,0.6-0.1,0.6-0.4c0-0.6-1.4-0.4-1.4-1.4
		c0-0.7,0.6-1,1.1-1c0.3,0,0.5,0,0.8,0.1L76.1,24.8"/>
	<path id="path3223" class="st0" d="M76.9,24.2h1.9v0.5h-1.3v0.8h1.2V26h-1.2v0.9h1.3v0.5h-1.9V24.2"/>
	<path id="path3225" class="st0" d="M81.8,27.4c-0.2,0.1-0.5,0.1-0.7,0.1c-1.1,0-1.8-0.5-1.8-1.6c0-1.1,0.7-1.7,1.8-1.7
		c0.2,0,0.5,0,0.7,0.1l0,0.6c-0.2-0.1-0.5-0.2-0.7-0.2c-0.7,0-1.1,0.5-1.1,1.2c0,0.7,0.4,1.2,1.1,1.2c0.3,0,0.6-0.1,0.7-0.1
		L81.8,27.4"/>
	<path id="path3227" class="st0" d="M82.3,24.2H83v1.9c0,0.6,0.2,0.9,0.7,0.9c0.5,0,0.7-0.4,0.7-0.9v-1.9H85v2.1
		c0,0.9-0.5,1.2-1.3,1.2c-0.8,0-1.3-0.4-1.3-1.2V24.2"/>
	<path id="path3229" class="st0" d="M86.4,25.6h0.2c0.3,0,0.7,0,0.7-0.5c0-0.4-0.4-0.4-0.7-0.4h-0.2V25.6z M85.7,24.2h0.7
		c0.7,0,1.5,0,1.5,0.9c0,0.4-0.3,0.7-0.7,0.8v0c0.2,0,0.3,0.2,0.3,0.3l0.5,1.3h-0.7l-0.4-1c-0.1-0.2-0.2-0.3-0.5-0.3h-0.2v1.4h-0.7
		L85.7,24.2"/>
	<path id="path3231" class="st0" d="M88.6,24.2h0.7v3.3h-0.7C88.6,27.5,88.6,24.2,88.6,24.2z"/>
	<path id="path3233" class="st0" d="M90.5,24.7h-0.9v-0.5h2.4v0.5h-0.9v2.7h-0.7L90.5,24.7"/>
	<path id="path3235" class="st0" d="M93.2,26.2l-1.1-2h0.7l0.7,1.4l0.7-1.4H95l-1.1,2v1.3h-0.7V26.2"/>
	<path id="path3237" class="st0" d="M50.5,25.8c0,0.2-0.1,0.3-0.3,0.3c-0.2,0-0.3-0.1-0.3-0.3c0-0.2,0.1-0.3,0.3-0.3
		C50.4,25.5,50.5,25.7,50.5,25.8"/>
	<path id="path3239" class="st0" d="M73.1,25.8c0,0.2-0.1,0.3-0.3,0.3c-0.2,0-0.3-0.1-0.3-0.3c0-0.2,0.1-0.3,0.3-0.3
		C72.9,25.5,73.1,25.7,73.1,25.8"/>
	<path id="path3241" class="st0" d="M22.8,19.7l1.4-0.9c1.6,0.8,3.7,1,4.5,1c2,0,2.8-0.7,2.8-1.3v0c0-0.5-0.5-0.8-2.4-1.1
		c-3-0.4-5.4-0.9-5.4-2.6v0c0-1.7,1.9-2.9,5.3-2.9c2.4,0,4.3,0.4,5.8,1.2l-1.1,0.9c-1.3-0.6-2.7-0.7-3.9-0.7c-1.5,0-2.7,0.4-2.7,1v0
		c0,0.5,0.9,0.8,2.9,1.1c3.2,0.5,4.9,1.2,4.9,2.9v0c0,1.9-1.9,3-5.3,3C26.9,21.2,24.5,20.7,22.8,19.7"/>
	<path id="path3243" class="st0" d="M42.2,17.9L40,14.3l-1.9,3.6H42.2z M42.4,13.1l4.6,7.8h-3.2L43,19.3h-5.6l-0.8,1.6h-1.9l4.8-8.9
		h1.5C40.9,12,41.7,12,42.4,13.1"/>
	<path id="path3245" class="st0" d="M77.8,17.9l-2.1-3.6l-1.9,3.6H77.8z M78,13.1l4.6,7.8h-3.2l-0.9-1.6H73l-0.8,1.6h-1.9L75,12h1.5
		C76.5,12,77.3,12,78,13.1"/>
	<path id="path3247" class="st0" d="M47.7,12.1h9.7l-0.4,1.4h-6.6v2.8h5.3l-0.4,1.4h-4.9v3.3h-2.7V12.1"/>
	<path id="path3249" class="st0" d="M87,13.3l5.9,4.4v-5.6H95v8.9h-0.9c-1.3,0-2-0.5-2-0.5l-6.6-4.8v5.3h-2.1v-8.9h0.8
		C84.2,12.1,85.3,12,87,13.3"/>
	<path id="path3251" class="st0" d="M64.4,16.6c1.2,0,1.9-0.8,1.9-1.5V15c0-0.7-0.7-1.3-1.9-1.3H61v2.9H64.4z M65.9,19.9l-1.6-1.8
		H61v2.8h-2.7v-8.9h5.6c2,0,3.3,0.3,4.2,0.9c0.8,0.5,1.1,1.2,1.1,2.1v0c0,1.4-0.7,2.4-2.3,2.8l3.1,3.1h-1.6
		C66.8,20.9,65.9,19.9,65.9,19.9"/>
	<path id="path3253" class="st0" d="M17.6,13.2c-1.5-3.5-5.1-5.9-9.1-5.7C4.5,7.7,1.2,10.4,0,14c0,0,0,0,0,0l0,0c0,0,0,0,0,0
		C1.4,11,4.7,8.7,8.6,8.5C12.5,8.4,15.9,10.3,17.6,13.2L17.6,13.2"/>
	<path id="path3255" class="st0" d="M0.3,21c1.5,3.5,5.1,5.9,9.1,5.7c4-0.2,7.3-2.9,8.5-6.5l0,0c-1.3,3.1-4.6,5.3-8.5,5.5
		C5.5,25.8,2,23.9,0.3,21L0.3,21"/>
	<path id="path3257" class="st0" d="M14,20.5c0,1.6-2.8,3.2-2.8,3.2c5.2-1.9,5.6-4.5,5.6-5.5c0-2.2-2.3-2.9-4.7-3.3
		c-1.9-0.3-3.4-0.3-4.7-0.4c-2.1-0.2-2.8-0.8-2.8-1.6c0-1.5,3-3.3,3-3.3c-4.9,1.6-6,4-6,5.5c0,3.6,7.2,3.6,10.1,3.9
		C13.5,19.2,14,19.9,14,20.5"/>
</g>
</svg>
