<?xml version="1.0" encoding="utf-8"?>
<!-- Generator: Adobe Illustrator 26.0.1, SVG Export Plug-In . SVG Version: 6.00 Build 0)  -->
<svg version="1.1" id="Layer_1" xmlns="http://www.w3.org/2000/svg" xmlns:xlink="http://www.w3.org/1999/xlink" x="0px" y="0px"
	 viewBox="0 0 95 35" style="enable-background:new 0 0 95 35;" xml:space="preserve">
<style type="text/css">
	.st0{fill:#343741;}
</style>
<g>
	<g id="g963">
		<path id="path911" class="st0" d="M57.9,7.4c-0.5-0.7-1-1.2-1.6-1.5c-0.4-0.3-0.8-0.5-1.3-0.6c-0.4-0.1-0.6-0.1-1.1-0.1
			c-0.8,0-1.5,0.1-3,0.6c-1.4,0.4-1.9,0.6-2.7,0.7c-0.5,0.1-1.4,0.1-1.8,0c-0.6-0.1-1.2-0.3-1.6-0.7c-0.8-0.6-1.2-1.5-1.1-2.5
			c0.1-1.5,1.1-2.6,2.8-3.1c0.8-0.2,1.6-0.2,2.7-0.1c1.5,0.2,2.8,0.7,4.1,1.4c1.9,1.2,3.5,3,4.4,5c0.2,0.5,0.4,1,0.4,1
			C58,7.5,58,7.5,57.9,7.4z"/>
		<path id="path909" class="st0" d="M41.7,18.8c-0.2,0-0.6-0.1-0.8-0.2c-1-0.3-1.9-1.1-2.6-2.3c-0.2-0.4-0.6-1-0.7-1.4
			c-0.4-0.9-0.6-1.9-0.7-2.9c-0.1-0.5,0-2.4,0-2.4c0,0,0.1,0.1,0.2,0.3c0.3,0.4,1,1.1,1.4,1.4c1,0.7,1.7,1.1,3.4,1.7
			c1.1,0.4,1.7,0.6,2,0.9c0.2,0.2,0.6,0.5,0.7,0.7c0.1,0.2,0.3,0.5,0.3,0.8c0.1,0.3,0.1,0.9,0,1.2c-0.1,0.4-0.2,0.8-0.5,1.1
			c-0.1,0.2-0.5,0.6-0.7,0.7c-0.3,0.2-0.7,0.4-1.1,0.4C42.4,18.8,41.8,18.8,41.7,18.8L41.7,18.8z"/>
	</g>
	<path id="path907" class="st0" d="M27.9,35c-0.3-0.1-0.7-0.2-1-0.3c-0.5-0.2-0.9-0.7-1.2-1.1c-0.2-0.3-0.3-0.9-0.3-1.2
		c0,0,0.1,0,0.6,0h0.6l0,0.1c0.1,0.6,0.4,1,0.8,1.3c0.2,0.1,0.5,0.2,0.8,0.2c0.3,0,0.3,0,0.5,0c0.3-0.1,0.6-0.2,0.8-0.4
		c0.3-0.3,0.4-0.5,0.4-1c0-0.4-0.1-0.7-0.4-0.9c-0.2-0.2-0.5-0.3-1.4-0.6c-0.5-0.2-0.9-0.3-1-0.4c-0.8-0.4-1.3-1-1.3-1.9
		c0-1.1,0.6-1.9,1.6-2.3c0.7-0.2,1.4-0.2,2,0.1c0.6,0.3,1.2,0.9,1.4,1.5c0.1,0.2,0.1,0.5,0.1,0.5c0,0-0.1,0-0.6,0l-0.6,0l0-0.2
		c-0.1-0.3-0.2-0.4-0.4-0.6c-0.3-0.3-0.7-0.4-1.1-0.4c-0.6,0-1.1,0.4-1.2,0.9c0,0.1,0,0.2,0,0.4c0,0.3,0.1,0.5,0.3,0.7
		c0.2,0.2,0.4,0.3,1.2,0.6c1.4,0.5,1.8,0.7,2.1,1.1c0.3,0.4,0.5,0.9,0.5,1.4c0,0.7-0.3,1.4-0.8,1.9C29.8,34.8,28.8,35.1,27.9,35
		L27.9,35z M47.2,34.9c-0.2,0-0.3-0.1-0.4-0.3c-0.1-0.1-1.1-1.8-3.2-5.3c-0.3-0.5-0.6-0.9-0.6-0.9c0,0,0,0.7,0,3.2
		c0,2.9,0,3.2,0,3.2c0,0-0.3,0-0.6,0c-0.4,0-0.6,0-0.6,0c0,0,0-7.6,0-7.8c0-0.3,0.2-0.5,0.5-0.7c0.3-0.2,0.7-0.1,1,0.1
		c0.1,0.1,0.8,1.3,3.4,5.5c0.3,0.4,0.5,0.8,0.5,0.8c0,0,0-0.7,0-3.2c0-2.5,0-3.2,0-3.2c0,0,0.2,0,0.6,0s0.6,0,0.6,0c0,0,0,7.7,0,7.9
		C48.2,34.7,47.7,35.1,47.2,34.9L47.2,34.9z M54.3,34.9c-1.7-0.2-3.1-1.3-3.6-2.8c-0.6-1.7-0.1-3.7,1.3-4.8c1-0.9,2.4-1.2,3.7-0.9
		c1.8,0.4,3.1,1.7,3.4,3.5c0.3,1.7-0.4,3.4-1.9,4.3c-0.5,0.4-1.2,0.6-1.9,0.7C55,35,54.4,35,54.3,34.9L54.3,34.9z M55.4,33.7
		c0.3-0.1,0.4-0.1,0.7-0.2c1-0.5,1.6-1.4,1.7-2.6c0.1-1-0.2-1.9-0.9-2.6c-0.4-0.4-1-0.7-1.6-0.8c-0.3,0-0.8-0.1-1.1,0
		c-0.4,0.1-0.9,0.3-1.2,0.5c-1.4,1-1.8,3-0.8,4.5c0.5,0.7,1.2,1.2,2.2,1.3C54.5,33.8,55.2,33.8,55.4,33.7L55.4,33.7z M32.3,34.9
		c0,0,3-7.9,3.1-8.1c0.1-0.3,0.6-0.5,0.9-0.4c0.2,0,0.4,0.2,0.5,0.3c0.1,0.1,3.2,8.2,3.1,8.2c0,0-0.1,0-0.6,0c-0.3,0-0.6,0-0.6,0
		c0,0-0.2-0.5-0.5-1.2l-0.4-1.2l-1.7,0c-1.3,0-1.7,0-1.7,0c0,0-0.2,0.5-0.4,1.2c-0.2,0.6-0.4,1.2-0.4,1.2
		C33.5,34.9,32.3,34.9,32.3,34.9L32.3,34.9z M37.3,31.3c0,0-1.2-3.3-1.2-3.3c0,0,0,0,0,0c-0.1,0.1-1.2,3.3-1.2,3.3c0,0,0.2,0,1.2,0
		C36.9,31.4,37.3,31.4,37.3,31.3L37.3,31.3z M61.1,34.9c0,0,0-0.8,0-4l0-3.9l0.1-0.2c0.1-0.3,0.3-0.4,0.6-0.5c0.2,0,4.1,0,4.1,0
		c0,0,0,1.1,0,1.1c0,0-0.5,0-1.8,0h-1.8v1.4v1.4h1.8c1.4,0,1.8,0,1.8,0c0,0,0,1.1,0,1.1c0,0-0.5,0-1.8,0h-1.8v1.7c0,1.3,0,1.7,0,1.7
		C62.3,34.9,61.2,34.9,61.1,34.9L61.1,34.9z M68.3,34.9c0,0,0-8.4,0-8.5c0,0,0.2,0,0.6,0c0.3,0,0.6,0,0.6,0c0,0,0,0.4,0,4.3
		s0,4.2,0,4.3c0,0-0.3,0-0.6,0C68.4,34.9,68.3,34.9,68.3,34.9L68.3,34.9z M47.1,21.9c-1.1-0.1-1.9-0.2-2.7-0.5
		c-1-0.3-1.8-0.7-2.7-1.3c-0.3-0.2-0.8-0.6-0.9-0.6c0,0,0,0,0.3,0.1c1.1,0.3,2.5,0.4,3.8,0.1c1.3-0.3,2.3-0.8,3.2-1.7
		c0.5-0.5,0.9-1.1,1.4-1.9c0.4-0.6,0.6-1.2,1.5-3.2c1.1-2.5,2-3.7,3.4-4.4c0.8-0.4,1.6-0.6,2.7-0.5c0.5,0,1,0.1,1,0.1
		c0,0,0.2,0.7,0.3,1.1c0.3,1.6,0.2,3-0.2,4.5c-0.6,2.6-2.3,4.9-4.5,6.4c-0.5,0.3-0.8,0.5-1.3,0.7c-1.1,0.6-2.4,0.9-3.7,1.1
		C48.5,21.8,47.3,21.9,47.1,21.9L47.1,21.9z"/>
</g>
</svg>
