<?xml version="1.0" encoding="utf-8"?>
<!-- Generator: Adobe Illustrator 26.0.1, SVG Export Plug-In . SVG Version: 6.00 Build 0)  -->
<svg version="1.1" id="Layer_1" xmlns="http://www.w3.org/2000/svg" xmlns:xlink="http://www.w3.org/1999/xlink" x="0px" y="0px"
	 viewBox="0 0 95 35" style="enable-background:new 0 0 95 35;" xml:space="preserve">
<style type="text/css">
	.st0{fill:#343741;}
</style>
<g id="layer1" transform="translate(-65.838558,-194.80154)">
	<g id="g3304" transform="translate(0.26458474,-0.26458245)">
		<g id="g2906" transform="matrix(0.35277777,0,0,-0.35277777,67.668284,211.63528)">
			<path id="path2908" class="st0" d="M19.6-38.7c-3.3,1-4.7,1.6-4.7,3.5c0,1.7,2.2,2.3,4.2,2.3c1.7,0,3.5-0.5,4.7-1.3
				c0.3-0.2,0.6-0.2,1-0.2c0.3,0.1,0.6,0.3,0.8,0.6l0.6,1.1c0.3,0.6,0.1,1.2-0.4,1.6c-1.8,1.2-4.3,1.9-6.6,1.9c-4.8,0-8-2.5-8-6.1
				c0-4.7,4-5.9,7.2-6.9c3.4-1,4.8-1.7,4.8-3.7c0-2-2.4-2.7-4.6-2.7c-2.1,0-4.4,1.1-5.8,2.4c-0.3,0.3-0.6,0.4-1,0.4
				c-0.4,0-0.7-0.3-0.9-0.6l-0.6-1.1c-0.3-0.5-0.2-1.1,0.2-1.5c2.1-2,5.2-3.3,8.2-3.3c5,0,8.4,2.6,8.4,6.4
				C26.9-40.9,22.8-39.7,19.6-38.7"/>
		</g>
		<g id="g2910" transform="matrix(0.35277777,0,0,-0.35277777,71.864925,209.96735)">
			<path id="path2912" class="st0" d="M29.7-34.6c-0.2,0.4-0.6,0.7-1.1,0.7h-1.3c-0.5,0-0.9-0.3-1.1-0.7l-9.3-20.6
				c-0.2-0.4-0.1-0.8,0.1-1.2c0.2-0.4,0.6-0.6,1-0.6h1.4c0.5,0,0.9,0.3,1.1,0.7l2.3,5.1h10.5l2.4-5.1c0.2-0.4,0.6-0.7,1.1-0.7H38
				c0.4,0,0.8,0.2,1,0.6c0.2,0.3,0.3,0.8,0.1,1.2L29.7-34.6z M24.4-47.4l3.6,7.9l3.6-7.9H24.4"/>
		</g>
		<g id="g2914" transform="matrix(0.35277777,0,0,-0.35277777,74.819437,209.83259)">
			<path id="path2916" class="st0" d="M36.9-34.3h-1.2c-0.7,0-1.2-0.5-1.2-1.2v-20.6c0-0.7,0.5-1.2,1.2-1.2h1.2
				c0.7,0,1.2,0.5,1.2,1.2v20.6C38.1-34.9,37.5-34.3,36.9-34.3"/>
		</g>
		<g id="g2918" transform="matrix(0.35277777,0,0,-0.35277777,79.704351,209.83259)">
			<path id="path2920" class="st0" d="M48.7-34.3h-1.2c-0.7,0-1.2-0.5-1.2-1.2v-15L34.7-34.8c-0.2,0.3-0.6,0.5-1,0.5h-1.4
				c-0.7,0-1.2-0.5-1.2-1.2v-20.6c0-0.7,0.5-1.2,1.2-1.2h1.2c0.7,0,1.2,0.5,1.2,1.2v15l11.5-15.7c0.2-0.3,0.6-0.5,1-0.5h1.4
				c0.7,0,1.2,0.5,1.2,1.2v20.6C49.9-34.9,49.3-34.3,48.7-34.3"/>
		</g>
		<g id="g2922" transform="matrix(0.35277777,0,0,-0.35277777,83.742949,209.83259)">
			<path id="path2924" class="st0" d="M58.4-34.3H43.3c-0.7,0-1.2-0.5-1.2-1.2v-1.2c0-0.7,0.5-1.2,1.2-1.2H49v-18.1
				c0-0.7,0.5-1.2,1.2-1.2h1.2c0.7,0,1.2,0.5,1.2,1.2V-38h5.7c0.7,0,1.2,0.5,1.2,1.2v1.2C59.7-34.9,59.1-34.3,58.4-34.3"/>
		</g>
		<g id="g2926" transform="matrix(0.35277777,0,0,-0.35277777,85.465212,211.9669)">
			<path id="path2928" class="st0" d="M62.6-39.5H56c-0.7,0-1.2-0.5-1.2-1.2v-1c0-0.7,0.5-1.2,1.2-1.2h6.6c0.7,0,1.2,0.5,1.2,1.2v1
				C63.8-40,63.3-39.5,62.6-39.5"/>
		</g>
		<g id="g2930" transform="matrix(0.35277777,0,0,-0.35277777,90.330367,211.82649)">
			<path id="path2932" class="st0" d="M74.4-39.1h-1.1c0,0,0,0,0,0h-3.7c-0.7,0-1.2-0.5-1.2-1.2v-1.2c0-0.7,0.5-1.2,1.2-1.2H72v-3.8
				c-1.4-1-3.2-1.5-4.9-1.5c-4.5,0-8.2,3.6-8.2,7.9c0,4.4,3.7,7.9,8.2,7.9c2.1,0,4.2-0.8,5.7-2.1c0.2-0.2,0.6-0.3,0.9-0.3
				c0.3,0,0.6,0.2,0.8,0.4l0.7,0.9c0.4,0.5,0.3,1.3-0.1,1.7c-2.2,1.9-5.1,3-8,3c-6.6,0-11.9-5.2-11.9-11.5c0-6.4,5.3-11.5,11.8-11.5
				c3,0,5.9,1.1,8.1,3c0.3,0.2,0.4,0.6,0.4,0.9v7.4C75.6-39.7,75-39.1,74.4-39.1"/>
		</g>
		<g id="g2934" transform="matrix(0.35277777,0,0,-0.35277777,93.612965,209.82659)">
			<path id="path2936" class="st0" d="M82.3-34.3c-6.5,0-11.9-5.2-11.9-11.5c0-6.4,5.3-11.5,11.9-11.5c6.5,0,11.9,5.2,11.9,11.5
				C94.2-39.5,88.8-34.3,82.3-34.3 M82.3-53.7c-4.5,0-8.2,3.5-8.2,7.9c0,4.3,3.7,7.9,8.2,7.9c4.5,0,8.2-3.5,8.2-7.9
				C90.5-50.2,86.8-53.7,82.3-53.7"/>
		</g>
		<g id="g2938" transform="matrix(0.35277777,0,0,-0.35277777,99.580205,211.89775)">
			<path id="path2940" class="st0" d="M96.7-39.3c1.2,1.1,1.9,2.6,1.9,4.5c0,3.9-2.9,6.3-7.6,6.3h-8.4c-0.7,0-1.2-0.5-1.2-1.2v-20.6
				c0-0.7,0.5-1.2,1.2-1.2h8.5c5.4,0,8.6,2.5,8.6,6.7C99.7-42.3,98.6-40.4,96.7-39.3 M91-37.8h-5.9v5.7H91c1.8,0,4-0.5,4-2.8
				C95-36.8,93.7-37.8,91-37.8 M85.1-41.4H91c1.9,0,5-0.4,5-3.1c0-2.7-2.7-3.3-5-3.3h-5.9V-41.4"/>
		</g>
		<g id="g2942" transform="matrix(0.35277777,0,0,-0.35277777,102.98416,209.96735)">
			<path id="path2944" class="st0" d="M105-34.6c-0.2,0.4-0.6,0.7-1.1,0.7h-1.3c-0.5,0-0.9-0.3-1.1-0.7l-9.3-20.6
				c-0.2-0.4-0.1-0.8,0.1-1.2c0.2-0.4,0.6-0.6,1-0.6h1.4c0.5,0,0.9,0.3,1.1,0.7l2.3,5.1h10.5l2.4-5.1c0.2-0.4,0.6-0.7,1.1-0.7h1.4
				c0.4,0,0.8,0.2,1,0.6c0.2,0.3,0.3,0.8,0.1,1.2L105-34.6z M99.6-47.4l3.6,7.9l3.6-7.9H99.6"/>
		</g>
		<g id="g2946" transform="matrix(0.35277777,0,0,-0.35277777,105.93832,209.83259)">
			<path id="path2948" class="st0" d="M112.1-34.3h-1.2c-0.7,0-1.2-0.5-1.2-1.2v-20.6c0-0.7,0.5-1.2,1.2-1.2h1.2
				c0.7,0,1.2,0.5,1.2,1.2v20.6C113.3-34.9,112.8-34.3,112.1-34.3"/>
		</g>
		<g id="g2950" transform="matrix(0.35277777,0,0,-0.35277777,110.82323,209.83259)">
			<path id="path2952" class="st0" d="M123.9-34.3h-1.2c-0.7,0-1.2-0.5-1.2-1.2v-15L110-34.8c-0.2,0.3-0.6,0.5-1,0.5h-1.4
				c-0.7,0-1.2-0.5-1.2-1.2v-20.6c0-0.7,0.5-1.2,1.2-1.2h1.2c0.7,0,1.2,0.5,1.2,1.2v15l11.5-15.7c0.2-0.3,0.6-0.5,1-0.5h1.4
				c0.7,0,1.2,0.5,1.2,1.2v20.6C125.1-34.9,124.6-34.3,123.9-34.3"/>
		</g>
		<g id="g2954" transform="matrix(0.35277777,0,0,-0.35277777,45.907535,247.25702)">
			<g id="g2956">
				<g id="g2962">
					<g id="g2964">
						<path id="path2982" class="st0" d="M205.2,104V83.8h-3.7v23L205.2,104z M277.3,83.9h-14.6l-0.1,0.1l-12.9,12.7
							c-0.5,0.5-1.3,0.7-2,0.4c-0.7-0.3-1.1-1-1.1-1.7V83.8h-3.8v28.7c0,0.5-0.2,1-0.6,1.3L231.4,124c-0.3,0.3-0.8,0.5-1.3,0.5h-5.4
							c-1,0-1.9-0.8-1.9-1.9V83.8h-3.8v62.3c0,0.8-0.5,1.4-1.2,1.7c-0.7,0.3-1.5,0.1-2-0.4l-17.7-18c-0.3-0.3-0.5-0.8-0.5-1.3v-13.9
							l-7.3,5.4c-0.7,0.5-1.6,0.5-2.3,0l-16.5-13.2c-0.4-0.4-0.7-0.9-0.7-1.4V83.8h-3.7v11.6c0,4.1-2.8,8.4-8,8.4
							c-5.2,0-8-4.4-8-8.5V83.8l-3.8,0v7.9c0,3.2-2.2,6.6-6.3,6.6s-6.3-3.4-6.3-6.6v-7.9l-3.8,0l0,0.4c0,1.6,0,3.6,0,4.4
							c0,2.7-2.6,5.1-5.5,5.1c-2.9,0-5.5-2.4-5.5-5.1v-4.8l-16.5,0c-1,0-1.9-0.8-1.9-1.9c0-0.5,0.2-1,0.5-1.3s0.8-0.5,1.3-0.5
							l18.4,0c0.5,0,1,0.2,1.3,0.5c0.4,0.4,0.5,0.8,0.5,1.3v6.3c0,0.7,0.7,1.7,1.8,1.7c1,0,1.8-0.9,1.8-1.8c0-0.5,0-6.3,0-6.3
							c0-1,0.8-1.8,1.9-1.8l7.5,0c1,0,1.9,0.8,1.9,1.9v9.7c0,1,0.5,2.9,2.6,2.9s2.6-1.9,2.6-2.9V82c0-1,0.8-1.9,1.9-1.9l7.5,0
							c0.5,0,1,0.2,1.3,0.5s0.5,0.8,0.5,1.3v13.4c0,1.6,0.9,4.8,4.3,4.8c3.2,0,4.3-2.8,4.3-4.7V82c0-1,0.8-1.9,1.9-1.9h7.4
							c1,0,1.9,0.8,1.9,1.9V104l0.1,0.1l14.6,11.7l8.3-6.2V82c0-1,0.8-1.9,1.9-1.9h7.4c1,0,1.9,0.8,1.9,1.9v23
							c0,0.6-0.3,1.1-0.7,1.5l-6.7,5v15.9l0.1,0.1l13.9,14.1V82c0-1,0.8-1.9,1.9-1.9h7.5c1,0,1.9,0.8,1.9,1.9v38.8h2.8l0.1-0.1
							l9.5-9V82c0-1,0.8-1.9,1.9-1.9h7.5c1,0,1.9,0.8,1.9,1.9v9l10.4-10.3c0.4-0.3,0.8-0.5,1.3-0.5h15.4c1,0,1.9,0.8,1.9,1.9
							C279.2,83.1,278.4,83.9,277.3,83.9"/>
					</g>
				</g>
			</g>
		</g>
	</g>
</g>
</svg>
