<?xml version="1.0" encoding="utf-8"?>
<!-- Generator: Adobe Illustrator 26.0.1, SVG Export Plug-In . SVG Version: 6.00 Build 0)  -->
<svg version="1.1" id="Layer_1" xmlns="http://www.w3.org/2000/svg" xmlns:xlink="http://www.w3.org/1999/xlink" x="0px" y="0px"
	 viewBox="0 0 95 35" style="enable-background:new 0 0 95 35;" xml:space="preserve">
<style type="text/css">
	.st0{fill:#343741;}
</style>
<g>
	<g id="g3971">
		<g id="g3977" transform="translate(95.146,720.294)">
			<path id="path3979" class="st0" d="M-46-703.4c-3.3-1-4.5-1.3-4.5-2.7c0-1.1,0.9-1.9,2.1-1.9h0.2c0.9,0,1.7,0.5,1.9,1.2
				c0,0,0,0.1,0.1,0.2c0.1,0.4,0.2,0.8,0.2,1.1v0.5h4.1v-15.3h-4.3v8.7c-0.7-0.2-1.4-0.3-2.1-0.3c-3.8,0-6.4,2.8-6.5,5.8
				c0,0.1,0,0.2,0,0.3c0,3.8,2.6,5.1,5.1,6l0.2,0.1l0,0c0.2,0.1,0.5,0.2,0.7,0.3c2.2,0.8,4.3,1.5,4.3,3.4c0,0.7-0.2,1.3-0.5,1.8h4.5
				c0.2-0.6,0.3-1.3,0.3-2C-40.3-701.7-44.9-703.1-46-703.4"/>
		</g>
	</g>
	<g id="g3937" transform="matrix(1.25,0,0,-1.25,103.48396,168.55754)">
		<path id="path3939" class="st0" d="M-48.6,109.5h-0.5c-0.5,0-0.5,0.2-0.5,0.3c0,0.4,0.6,0.5,1,0.5c0.5,0,0.8-0.2,1.1-0.3l0.2-0.1
			l0.1,0.1l0.4,0.5l-0.1,0.1c-0.5,0.4-1,0.5-1.6,0.5c-0.9,0-1.8-0.5-1.8-1.3c0-0.8,0.7-1.1,1.3-1.1h0.6c0.6,0,1.1,0,1.1-0.5
			c0-0.4-0.7-0.5-1.1-0.5c-0.7,0-1.1,0.3-1.3,0.5l-0.2,0.2l-0.1-0.1l-0.5-0.5l0.1-0.1c0.3-0.3,0.8-0.8,2-0.8c1,0,1.9,0.4,1.9,1.3
			C-46.7,109-47.3,109.5-48.6,109.5z M-45.6,108.7c0.2,0,2.4,0,2.4,0v0.8c0,0-2.1,0-2.4,0v0.8c0.2,0,2.6,0,2.6,0v0.8h-3.4v-4.1h3.5
			v0.8c0,0-2.5,0-2.7,0C-45.6,107.7-45.6,108.7-45.6,108.7z M-39.3,109.1c0.1,0.1,0.3,0.4,0.3,0.8c0,0.8-0.6,1.2-1.3,1.2h-2.3v-4.1
			h2.3c0.9,0,1.4,0.5,1.4,1.2C-38.9,108.6-39.1,108.9-39.3,109.1z M-41.8,110.2c0.2,0,1.5,0,1.5,0c0.4,0,0.5-0.2,0.5-0.4
			c0-0.3-0.2-0.4-0.5-0.4c0,0-1.3,0-1.5,0V110.2z M-40.3,107.7c0,0-1.3,0-1.5,0v0.9c0.2,0,1.5,0,1.5,0c0.6,0,0.6-0.2,0.6-0.4
			C-39.7,108-39.7,107.7-40.3,107.7"/>
	</g>
	<g id="g3941" transform="matrix(1.25,0,0,-1.25,102.27896,147.48754)">
		<path id="path3943" class="st0" d="M-47.7,95.2c0-0.3-0.3-0.5-0.8-0.5c-0.5,0-0.9,0.3-0.9,0.9c0,0.5,0.4,0.9,0.9,0.9
			c0.4,0,0.6-0.2,0.7-0.3l-0.1-0.1c-0.1,0.1-0.3,0.3-0.6,0.3c-0.5,0-0.7-0.3-0.7-0.7c0-0.4,0.3-0.7,0.7-0.7c0.4,0,0.6,0.2,0.6,0.3
			v0.2h-0.6v0.2h0.8"/>
	</g>
	<g id="g3945" transform="matrix(1.25,0,0,-1.25,117.29021,151.31879)">
		<path id="path3947" class="st0" d="M-57.9,97.8h-0.2l-0.4,0.7h-0.7v-0.7h-0.2v1.7h0.9c0.3,0,0.7,0,0.7-0.5c0-0.4-0.2-0.5-0.4-0.5
			L-57.9,97.8z M-58.5,98.7c0.2,0,0.4,0,0.4,0.3c0,0.2-0.2,0.3-0.4,0.3h-0.8v-0.6"/>
	</g>
	<g id="g3949" transform="matrix(1.25,0,0,-1.25,127.10521,137.26629)">
		<path id="path3951" class="st0" d="M-64.5,88.3c0.5,0,0.9-0.4,0.9-0.9c0-0.5-0.4-0.9-0.9-0.9c-0.5,0-0.9,0.4-0.9,0.9
			C-65.4,87.9-65,88.3-64.5,88.3z M-64.5,86.8c0.4,0,0.7,0.3,0.7,0.7c0,0.4-0.3,0.7-0.7,0.7c-0.4,0-0.7-0.3-0.7-0.7
			C-65.2,87.1-64.9,86.8-64.5,86.8"/>
	</g>
	<g id="g3953" transform="matrix(1.25,0,0,-1.25,149.66771,145.98129)">
		<path id="path3955" class="st0" d="M-79.8,94.2c0-0.4-0.2-0.7-0.8-0.7c-0.5,0-0.8,0.3-0.8,0.7v1h0.2v-1c0-0.4,0.2-0.5,0.6-0.5
			c0.4,0,0.6,0.1,0.6,0.5v1h0.2"/>
	</g>
	<g id="g3957" transform="matrix(1.25,0,0,-1.25,155.61396,151.31879)">
		<path id="path3959" class="st0" d="M-83.8,97.8H-84v1.7h0.9c0.2,0,0.5-0.1,0.5-0.5c0-0.4-0.2-0.5-0.5-0.5h-0.7V97.8z M-83,98.8
			c0.2,0,0.3,0.1,0.3,0.3c0,0.2-0.2,0.3-0.3,0.3h-0.7v-0.6"/>
	</g>
	<g id="g3961" transform="matrix(1.25,0,0,-1.25,179.85271,151.31879)">
		<path id="path3963" class="st0" d="M-100.2,97.8h-1.4v1.7h1.4v-0.2h-1.2v-0.5h1.2v-0.2h-1.2V98h1.2"/>
	</g>
</g>
</svg>
