<?xml version="1.0" encoding="utf-8"?>
<!-- Generator: Adobe Illustrator 26.0.1, SVG Export Plug-In . SVG Version: 6.00 Build 0)  -->
<svg version="1.1" id="Layer_1" xmlns="http://www.w3.org/2000/svg" xmlns:xlink="http://www.w3.org/1999/xlink" x="0px" y="0px"
	 viewBox="0 0 95 35" style="enable-background:new 0 0 95 35;" xml:space="preserve">
<style type="text/css">
	.st0{fill:#CCCCCC;}
</style>
<g>
	<polygon class="st0" points="24.4,14 26,14 22.4,19.1 26.4,24.7 24.7,24.7 21.5,20.2 18.4,24.7 16.8,24.7 	"/>
	<path class="st0" d="M1.7,29.5c-0.3-0.1-0.5-0.2-0.8-0.2c-0.3,0-0.5,0.1-0.5,0.2C0.4,30,2,29.7,2,30.5c0,0.3-0.3,0.6-1,0.6
		c-0.4,0-0.7-0.1-1-0.3l0.1-0.3c0.3,0.2,0.6,0.2,0.9,0.2c0.4,0,0.6-0.1,0.6-0.3c0-0.4-1.6-0.1-1.6-0.9C0,29.3,0.4,29,0.9,29
		c0.3,0,0.6,0.1,0.9,0.2L1.7,29.5z M3.5,31.1c0.6,0,1.1-0.4,1.1-1c0-0.6-0.5-1-1.1-1s-1.2,0.4-1.2,1C2.3,30.7,2.8,31.1,3.5,31.1
		 M3.5,29.4c0.5,0,0.8,0.3,0.8,0.7c0,0.4-0.3,0.7-0.8,0.7c-0.5,0-0.8-0.3-0.8-0.7C2.7,29.7,3,29.4,3.5,29.4 M6.1,31.1
		c0.4,0,0.7-0.1,0.9-0.3l-0.2-0.3c-0.2,0.1-0.4,0.2-0.7,0.2c-0.5,0-0.8-0.3-0.8-0.7c0-0.4,0.3-0.7,0.8-0.7c0.3,0,0.5,0.1,0.7,0.2
		L7,29.3C6.8,29.1,6.5,29,6.1,29c-0.6,0-1.2,0.4-1.2,1C5,30.7,5.5,31.1,6.1,31.1 M7.5,31h0.4v-2H7.5V31z M10.2,31v-0.3H8.8v-0.5h1.1
		v-0.3H8.8v-0.5h1.4v-0.3H8.4v2H10.2z M12.4,29.4v-0.3h-2v0.3h0.8V31h0.4v-1.6H12.4z M14.6,31v-0.3h-1.5v-0.5h1.1v-0.3h-1.1v-0.5
		h1.4v-0.3h-1.8v2H14.6z M17.7,30.8c-0.5,0-0.8-0.3-0.8-0.7c0-0.4,0.3-0.7,0.8-0.7c0.3,0,0.5,0.1,0.7,0.2l0.2-0.3
		c-0.3-0.2-0.5-0.3-0.9-0.3c-0.6,0-1.2,0.4-1.2,1c0,0.6,0.5,1,1.2,1c0.3,0,0.7-0.1,0.9-0.3v-0.8h-0.4v0.6
		C18.1,30.7,17.9,30.8,17.7,30.8 M21,31v-0.3h-1.5v-0.5h1.1v-0.3h-1.1v-0.5H21v-0.3h-1.8v2H21z M21.8,30.5c0-0.2,0-0.7,0-1l0,0
		l1.3,1.5h0.4v-2h-0.4v0.5c0,0.3,0,0.6,0,1l0,0l-1.3-1.5h-0.3v2h0.4L21.8,30.5L21.8,30.5z M25.8,31v-0.3h-1.5v-0.5h1.1v-0.3h-1.1
		v-0.5h1.4v-0.3H24v2H25.8z M27.8,31h0.5l-0.6-0.7c0.3,0,0.6-0.3,0.6-0.6s-0.3-0.6-0.7-0.6h-1.3v2h0.4v-0.7h0.6L27.8,31z M26.6,30
		v-0.6h0.9c0.2,0,0.3,0.1,0.3,0.3c0,0.2-0.1,0.3-0.4,0.3L26.6,30L26.6,30z M30.1,30.6l0.2,0.5h0.4l-1-2h-0.4l-1,2h0.4l0.2-0.5H30.1z
		 M29.5,29.4l0.4,0.8h-0.8L29.5,29.4z M32.6,31v-0.3h-1.3v-1.6H31v2H32.6z M34.8,31v-0.3h-1.5v-0.5h1.1v-0.3h-1.1v-0.5h1.4v-0.3
		h-1.8v2H34.8z M37.9,30.8c-0.5,0-0.8-0.3-0.8-0.7c0-0.4,0.3-0.7,0.8-0.7c0.3,0,0.5,0.1,0.7,0.2l0.2-0.3c-0.3-0.2-0.5-0.3-0.9-0.3
		c-0.6,0-1.2,0.4-1.2,1c0,0.6,0.5,1,1.2,1c0.3,0,0.7-0.1,0.9-0.3v-0.8h-0.3v0.6C38.3,30.7,38.1,30.8,37.9,30.8 M40.8,31h0.5
		l-0.6-0.7c0.3,0,0.6-0.3,0.6-0.6s-0.3-0.6-0.7-0.6h-1.3v2h0.4v-0.7h0.6L40.8,31z M39.7,30v-0.6h0.9c0.2,0,0.3,0.1,0.3,0.3
		c0,0.2-0.1,0.3-0.4,0.3L39.7,30L39.7,30z M42.8,31.1c0.6,0,1.1-0.4,1.1-1c0-0.6-0.5-1-1.1-1c-0.6,0-1.2,0.4-1.2,1
		C41.6,30.7,42.1,31.1,42.8,31.1 M42.8,29.4c0.5,0,0.8,0.3,0.8,0.7c0,0.4-0.3,0.7-0.8,0.7c-0.5,0-0.8-0.3-0.8-0.7
		C42,29.7,42.3,29.4,42.8,29.4 M46.3,29.1H46v1.1c0,0.3-0.2,0.6-0.6,0.6c-0.4,0-0.6-0.2-0.6-0.6v-1.1h-0.4v1.2c0,0.5,0.4,0.9,1,0.9
		c0.6,0,1-0.4,1-0.9V29.1z M46.9,29.1v2h0.4v-0.7h0.9c0.4,0,0.7-0.2,0.7-0.6c0-0.4-0.3-0.7-0.7-0.7L46.9,29.1L46.9,29.1z M47.2,30
		v-0.6h0.9c0.2,0,0.3,0.2,0.3,0.3c0,0.2-0.1,0.3-0.3,0.3H47.2z M0,24.7h6.2v-1.2H1.3V14H0V24.7z M10.2,24.7h1.3v-4.6l4-6.1h-1.5
		l-3.1,4.8l-3-4.8H6.2l4,6.1C10.2,20.1,10.2,24.7,10.2,24.7z M27.7,19.3c0,3.2,2.3,5.6,5.6,5.6c3.2,0,5.6-2.4,5.6-5.6
		s-2.3-5.6-5.6-5.6C30.1,13.7,27.7,16.1,27.7,19.3 M37.5,19.3c0,2.5-1.7,4.4-4.2,4.4c-2.5,0-4.2-2-4.2-4.4s1.7-4.4,4.2-4.4
		C35.8,14.9,37.5,16.9,37.5,19.3 M41.5,24.7h1.3v-4.8h1.6l2.9,4.8h1.6l-3-4.9c1.7-0.3,2.7-1.3,2.7-2.8c0-2.6-2.2-2.9-4.3-2.9h-2.7
		V24.7L41.5,24.7z M42.7,15.1h1.8c1.2,0,2.6,0.2,2.6,1.8c0,1.8-1.8,1.8-3.2,1.8h-1.1L42.7,15.1L42.7,15.1z M20.8,16.9L18.7,14h-1.6
		L20,18L20.8,16.9z"/>
	<polygon class="st0" points="78.2,12.3 65.8,9.5 68.4,3.9 82.4,10.4 	"/>
	<polygon class="st0" points="79.4,29.7 78,22.1 92.3,17 	"/>
	<g>
		<path class="st0" d="M65,19.1c0-0.2,0-0.5-0.1-0.7l-1.5,0.7H65z"/>
		<path class="st0" d="M95,16.1l-16.8-3.8v0c0,0,0,0-0.1,0l-2.3,1.1c0,0.2,0,0.5,0,0.7V15H78v1h-2.1v6.8l2.1-0.8l-0.4-2.5l15.6-3.4
			L92.3,17L95,16.1z"/>
		<path class="st0" d="M68.2,22.6v-5.7L66,18c0,0.1,0,0.1,0.1,0.2c0.2,0.7,0.2,1.3,0.2,2h-5l-0.5,0.2l0.1-0.2h-2.8
			c0,0.4,0.1,0.9,0.2,1.3s0.3,0.9,0.6,1.2c0.3,0.4,0.6,0.7,1.1,0.9c0.4,0.2,1,0.4,1.6,0.4c1,0,1.7-0.2,2.2-0.7s0.9-1,1.1-1.8h1.3
			c-0.3,1.1-0.8,1.9-1.5,2.5c-0.7,0.6-1.8,0.9-3.1,0.9c-0.8,0-1.6-0.1-2.2-0.4c-0.6-0.3-1.1-0.6-1.5-1.1c-0.4-0.5-0.7-1-0.9-1.6
			s-0.3-1.3-0.3-2c0-0.6,0.1-1.3,0.3-1.9s0.5-1.2,0.9-1.6c0.4-0.5,0.9-0.9,1.5-1.2c0.6-0.3,1.3-0.4,2.2-0.4c0.6,0,1.2,0.1,1.7,0.3
			l2.5-5.4l-7.4-1.7l-6.2,23.2l18.1-6.4c-0.7,0-1.3-0.2-1.6-0.5C68.4,24,68.2,23.4,68.2,22.6z"/>
		<path class="st0" d="M61.6,15.7c-0.5,0-1,0.1-1.4,0.3s-0.8,0.4-1.1,0.8c-0.3,0.3-0.5,0.7-0.7,1.1c-0.2,0.4-0.3,0.9-0.3,1.3h3.3
			l1.5-3.2C62.5,15.8,62,15.7,61.6,15.7z"/>
		<path class="st0" d="M72.7,16v-1h1.8v-0.9c0,0,0-0.1,0-0.1l-2.9,1.3V16h-1.4l-0.8,0.4v6.2c0,0.4,0.1,0.7,0.2,0.9s0.4,0.3,0.9,0.4
			c0.4,0,0.7,0,1.1-0.1v0.5l-0.3,0.1l3.2-1.1V16H72.7z"/>
		<polygon class="st0" points="74.6,23.3 75.9,22.8 75.9,22.8 74.6,23.3 		"/>
		<polygon class="st0" points="69.5,16 70.3,16 71.7,15.3 71.7,15 69.5,15 69.5,12.1 68.2,12.1 68.2,15 66.4,15 66.4,16 68.2,16 
			68.2,16.9 69.5,16.3 		"/>
		<path class="st0" d="M75.9,13.4c0-0.2,0.1-0.4,0.2-0.6c0.1-0.2,0.2-0.3,0.4-0.4c0.2-0.1,0.5-0.1,0.8-0.1c0.2,0,0.3,0,0.5,0
			c0.1,0,0.3,0,0.4,0.1l0.1,0v-1c-0.2,0-0.4,0-0.6-0.1c-0.2,0-0.3,0-0.5,0c-0.5,0-1,0.1-1.3,0.2c-0.3,0.1-0.6,0.3-0.8,0.6
			c-0.2,0.3-0.3,0.6-0.4,0.9c-0.1,0.3-0.1,0.7-0.1,1.1L75.9,13.4C75.9,13.4,75.9,13.4,75.9,13.4z"/>
		<path class="st0" d="M70.3,24.8l1-0.4L70.3,24.8C70.3,24.8,70.3,24.8,70.3,24.8z"/>
		<polygon class="st0" points="61.3,19.1 60.9,20.1 61.3,20.1 63.4,19.1 		"/>
		<path class="st0" d="M63,16c0.4,0.2,0.8,0.5,1.1,0.8c0.3,0.3,0.5,0.7,0.7,1.1c0.1,0.2,0.1,0.4,0.2,0.6L66,18
			c-0.2-0.6-0.4-1.1-0.8-1.6c-0.4-0.5-0.9-0.9-1.5-1.2c-0.2-0.1-0.3-0.2-0.5-0.2l-0.5,1C62.9,15.9,62.9,16,63,16z"/>
	</g>
</g>
</svg>
