<?xml version="1.0" encoding="utf-8"?>
<!-- Generator: Adobe Illustrator 26.0.1, SVG Export Plug-In . SVG Version: 6.00 Build 0)  -->
<svg version="1.1" id="Layer_1" xmlns="http://www.w3.org/2000/svg" xmlns:xlink="http://www.w3.org/1999/xlink" x="0px" y="0px"
	 viewBox="0 0 95 35" style="enable-background:new 0 0 95 35;" xml:space="preserve">
<style type="text/css">
	.st0{fill:#FFFFFF;}
</style>
<g>
	<g>
		<path class="st0" d="M10.8,7.6C8.6,6.6,7.3,6.2,6,6.2c-1.4,0-2.2,0.5-2.2,1.2c0,2.3,7.6,1.6,7.6,6.8c0,2.9-2.4,4.5-5.8,4.5
			c-2.6,0-3.9-0.7-5.4-1.4v-3.2c2.1,1.4,3.5,1.9,5.1,1.9c1.4,0,2.2-0.5,2.2-1.4c0-2.5-7.6-1.6-7.6-6.9c0-2.6,2.2-4.3,5.7-4.3
			c1.7,0,3.2,0.4,5.1,1.2L10.8,7.6L10.8,7.6z"/>
		<path class="st0" d="M21.5,18.2c-1.3,0.5-2.3,0.7-3.4,0.7c-3.6,0-5.9-2.1-5.9-5.2c0-3.1,2.4-5.3,5.7-5.3c1,0,2.3,0.3,3.4,0.7v2.4
			c-0.8-0.4-1.8-0.7-2.6-0.7c-1.9,0-3.1,1.1-3.1,2.9c0,1.8,1.2,3,3,3c0.8,0,1.4-0.2,2.9-0.7L21.5,18.2L21.5,18.2z"/>
		<path class="st0" d="M51.3,8.3c-3.1,0-5.3,2.2-5.3,5.3c0,3.1,2.3,5.2,5.9,5.2c0.8,0,2.7,0,4.5-1.3v-2c-1.5,1.1-2.5,1.4-3.7,1.4
			c-2,0-3.2-1-3.4-2.8h7.3C56.6,10.4,54.2,8.3,51.3,8.3 M49.3,12.4c0.1-1.4,0.9-2.2,2.2-2.2c1.2,0,2.1,0.8,2.2,2.2H49.3z"/>
		<rect x="57.7" y="8.5" class="st0" width="3.2" height="10.1"/>
		<path class="st0" d="M69.8,3.7V9c-0.9-0.4-1.7-0.6-2.6-0.6c-2.9,0-4.9,2.1-4.9,5.3c0,3,2,5.3,4.7,5.3c1.1,0,1.9-0.3,2.8-1v0.8H73
			v-15L69.8,3.7L69.8,3.7z M69.8,15.9c-0.7,0.6-1.2,0.8-1.9,0.8c-1.5,0-2.5-1.2-2.5-3.1c0-2,0.9-3.2,2.5-3.2c0.6,0,1.3,0.3,1.8,0.6
			L69.8,15.9L69.8,15.9z"/>
		<path class="st0" d="M79.6,8.3c-3.1,0-5.3,2.2-5.3,5.3c0,3.1,2.3,5.2,5.9,5.2c0.8,0,2.7,0,4.5-1.3v-2c-1.5,1.1-2.5,1.4-3.8,1.4
			c-2,0-3.2-1-3.3-2.8h7.3C85,10.4,82.6,8.3,79.6,8.3 M77.6,12.4c0.1-1.4,0.9-2.2,2.2-2.2c1.2,0,2.1,0.8,2.2,2.2H77.6z"/>
	</g>
	<g>
		<path class="st0" d="M89.6,11.4L89.6,11.4c1-2.1,2-3.1,3.3-3.1c0.6,0,1.2,0.2,2.1,0.9L94.1,12c-0.8-0.5-1.4-0.7-1.9-0.7
			c-1.2,0-1.9,1.1-2.6,3v4.4h-3.2V8.5h3.2L89.6,11.4L89.6,11.4z"/>
		<path class="st0" d="M61.1,4.2c0.3,0.8-0.2,1.9-1.2,2.5c-1,0.6-2,0.4-2.3-0.4c-0.3-0.8,0.2-1.9,1.2-2.5
			C59.7,3.3,60.7,3.4,61.1,4.2"/>
	</g>
	<g>
		<path class="st0" d="M33,12.2c0-2.7-1.9-3.9-3.7-3.9C28,8.3,27,8.9,26.1,10h0V3.7h-3.2v15H26v-6.4c0.7-1.1,1.4-1.5,2.1-1.5
			c1,0,1.6,0.7,1.6,2.2v3.6c1.1-0.5,2.1-0.9,3.2-1V12.2z"/>
		<path class="st0" d="M41,8.3c-1.3,0-2.3,0.5-3.3,1.6V8.5h-3.2v6.9c1.1,0.1,2.5,0.6,3.2,1.4v-4.7c0.8-1.2,1.4-1.7,2.2-1.7
			c0.9,0,1.6,0.6,1.6,2v6.2h3.2v-6.4C44.7,9.2,42.5,8.3,41,8.3"/>
		<polygon class="st0" points="46.4,21.5 42.7,21.5 42.7,24.2 46.3,24.2 46.3,25.3 42.7,25.3 42.7,28 46.5,28 46.5,29.1 41.5,29.1 
			41.5,20.4 46.4,20.4 		"/>
		<rect x="49.4" y="20.4" class="st0" width="1.1" height="8.7"/>
		<path class="st0" d="M54.6,26.4h4c0-2.1-1-3.2-2.5-3.2c-1.6,0-2.7,1.2-2.7,2.9c0,1.6,1,3.1,2.8,3.1c1,0,1.6-0.2,2.3-0.7v-1.1
			c-0.7,0.4-1.3,0.7-2,0.7C55.4,28.1,54.8,27.6,54.6,26.4 M56.2,24.2c0.8,0,1.3,0.5,1.3,1.4h-2.9C54.8,24.8,55.3,24.2,56.2,24.2"/>
		<path class="st0" d="M66.1,24.9c-0.7-0.4-1.1-0.6-1.6-0.6c-1,0-1.8,0.8-1.8,2c0,1.2,0.8,1.9,2,1.9c0.5,0,0.9-0.1,1.5-0.4v1.1
			c-0.4,0.2-1.1,0.3-1.7,0.3c-1.7,0-2.9-1.2-2.9-2.9c0-1.9,1.1-3.1,2.8-3.1c0.7,0,1.1,0.2,1.7,0.4L66.1,24.9L66.1,24.9z"/>
		<path class="st0" d="M71.2,23.4H73v1h-1.8v3c0,0.7,0.5,0.9,0.8,0.9c0.4,0,0.8-0.1,1.3-0.4v1.1c-0.4,0.2-1,0.4-1.4,0.4
			c-1.2,0-1.9-0.8-1.9-1.8v-3h-1v-0.1l2.1-2.1V23.4L71.2,23.4z"/>
		<path class="st0" d="M77.4,23.4v1.3h0c0.6-1,1.1-1.4,1.7-1.4c0.5,0,0.9,0.2,1.4,0.7l-0.6,1c-0.4-0.3-0.8-0.6-1.1-0.6
			c-0.8,0-1.4,0.8-1.4,1.8v3h-1.1v-5.8L77.4,23.4L77.4,23.4z"/>
		<path class="st0" d="M92,24.9c-0.7-0.4-1.1-0.6-1.6-0.6c-1,0-1.8,0.8-1.8,2c0,1.2,0.8,1.9,1.9,1.9c0.5,0,0.9-0.1,1.5-0.4v1.1
			c-0.4,0.2-1.1,0.3-1.7,0.3c-1.7,0-2.9-1.2-2.9-2.9c0-1.9,1.1-3.1,2.8-3.1c0.7,0,1.1,0.2,1.7,0.4L92,24.9L92,24.9z"/>
		<rect x="83.4" y="23.4" class="st0" width="1.1" height="5.8"/>
		<path class="st0" d="M84.6,21.3c0.1,0.3-0.1,0.7-0.4,0.9c-0.4,0.2-0.7,0.1-0.8-0.1s0.1-0.7,0.4-0.9C84.1,21,84.5,21,84.6,21.3"/>
		<path class="st0" d="M34.6,24.1l0.4-1.2H38c0.4-1.8,0.1-3.5-1-4.6c-2.2-2.2-6.9-1.5-10.3,1.8c-0.5,0.5-1,1.1-1.4,1.6h1.9L26.7,23
			h-2.3c-0.2,0.4-0.4,0.8-0.6,1.2h2.7l-0.4,1.2h-2.6c-0.4,1.9-0.2,3.7,1,4.8c2.2,2.2,6.8,1.4,10.3-1.9c0.6-0.6,1.1-1.2,1.6-1.8h-2.4
			l0.4-1.2h2.8c0.2-0.4,0.4-0.8,0.5-1.2L34.6,24.1L34.6,24.1z M33.9,21.8c-0.2,0-0.3,0-0.4,0.1c0,0,0,0.1-0.1,0.1l-1,3.9
			c-0.2,1.4-1.9,2.7-4.1,2.7h-1.2h-1.8l0.5-2h1.9c0.2,0,0.4-0.1,0.5-0.2c0-0.1,0.1-0.1,0.1-0.2l0.8-3.4c0.2-1.4,1.7-2.8,3.8-2.8h3.1
			l-0.4,1.8L33.9,21.8L33.9,21.8z"/>
	</g>
</g>
</svg>
