<?xml version="1.0" encoding="utf-8"?>
<!-- Generator: Adobe Illustrator 26.0.1, SVG Export Plug-In . SVG Version: 6.00 Build 0)  -->
<svg version="1.1" id="Layer_1" xmlns="http://www.w3.org/2000/svg" xmlns:xlink="http://www.w3.org/1999/xlink" x="0px" y="0px"
	 viewBox="0 0 95 35" style="enable-background:new 0 0 95 35;" xml:space="preserve">
<style type="text/css">
	.st0{fill:#FFFFFF;}
</style>
<path class="st0" d="M42.8,31.3h1.9c0.1,0,0.2-0.1,0.2-0.2v-0.5c0-0.1-0.1-0.2-0.2-0.2h-1.9v-1.1h2.1c0.1,0,0.2-0.1,0.2-0.2v-0.5
	c0-0.1-0.1-0.2-0.2-0.2H42c-0.1,0-0.2,0.1-0.2,0.2v4.7c0,0.1,0.1,0.2,0.2,0.2h3.2v-1h-2.5V31.3z"/>
<path class="st0" d="M38.5,29.4c-0.2,0-0.4,0.1-0.5,0.4v0.1c-0.4-0.3-0.8-0.5-1.3-0.5c-1.1,0-1.9,0.9-1.9,2c0,1.2,0.8,2,1.9,2
	c0.5,0,0.9-0.2,1.2-0.5l0,0.4h0.9v-3.5C38.9,29.6,38.7,29.4,38.5,29.4z M36.9,32.5c-0.6,0-1-0.4-1-1.1c0-0.6,0.5-1.1,1-1.1
	c0.6,0,1,0.4,1,1.1C37.9,32,37.5,32.5,36.9,32.5z"/>
<path class="st0" d="M29.3,29.4c-1.2,0-2.1,0.9-2.1,2c0,1.1,0.9,2,2.1,2c1.1,0,2-0.9,2-2C31.3,30.3,30.4,29.4,29.3,29.4z M29.3,32.5
	c-0.6,0-1.1-0.5-1.1-1.1c0-0.6,0.5-1.1,1.1-1.1c0.6,0,1,0.5,1,1.1C30.3,32,29.8,32.5,29.3,32.5z"/>
<path class="st0" d="M70.1,30.9c-0.6-0.1-0.8-0.2-0.8-0.4c0-0.2,0.3-0.3,0.5-0.3c0.4,0,0.8,0.1,1,0.2c0.3,0.1,0.5,0,0.6-0.2
	c0.1-0.2,0-0.4-0.2-0.5c-0.2-0.1-0.6-0.3-1.4-0.3c-0.9,0-1.5,0.5-1.5,1.2c0,0.8,0.7,1,1.4,1.2c0.6,0.1,0.7,0.3,0.7,0.4
	c0,0.3-0.3,0.3-0.6,0.3c-0.6,0-0.9-0.2-1-0.2c-0.2-0.2-0.4-0.1-0.6,0.1c-0.1,0.1-0.1,0.2-0.1,0.3c0,0.1,0.1,0.2,0.2,0.3
	c0.4,0.3,0.9,0.5,1.5,0.5c1,0,1.6-0.5,1.6-1.3C71.4,31.4,70.9,31.1,70.1,30.9 M66.8,31H65c0.1-0.4,0.5-0.7,1-0.7
	C66.4,30.2,66.7,30.5,66.8,31 M65.9,29.4c-1.2,0-2,0.8-2,2c0,1.2,0.9,2,2.1,2c0.5,0,1-0.2,1.4-0.5c0.2-0.1,0.2-0.4,0.1-0.5
	c-0.1-0.2-0.4-0.2-0.5-0.2c-0.1,0.1-0.5,0.3-0.9,0.3c-0.6,0-1-0.3-1.2-0.8h2.6c0.1,0,0.2-0.1,0.2-0.2v-0.1
	C67.8,30.2,67,29.4,65.9,29.4 M53.2,31h-1.8c0.1-0.4,0.5-0.7,1-0.7C52.8,30.2,53.1,30.5,53.2,31 M52.3,29.4c-1.2,0-2,0.8-2,2
	c0,1.2,0.9,2,2.1,2c0.5,0,1-0.2,1.4-0.5c0.1-0.1,0.2-0.4,0.1-0.5c-0.1-0.2-0.4-0.2-0.5-0.2c-0.2,0.1-0.5,0.3-0.9,0.3
	c-0.6,0-1-0.3-1.2-0.8h2.6c0.1,0,0.2-0.1,0.2-0.2v-0.1C54.2,30.2,53.4,29.4,52.3,29.4 M62.8,27.8c-0.4,0-0.6,0.3-0.6,0.6
	c0,0.3,0.2,0.6,0.6,0.6c0.3,0,0.6-0.2,0.6-0.6C63.4,28.1,63.1,27.8,62.8,27.8 M62.8,29.4c-0.2,0-0.5,0.1-0.5,0.4v3.5h1v-3.5
	C63.3,29.5,63,29.4,62.8,29.4 M60.5,31.4c0,0.6-0.4,1.1-1,1.1c-0.6,0-1-0.4-1-1.1c0-0.6,0.4-1.1,1-1.1
	C60.1,30.3,60.5,30.8,60.5,31.4 M61,29.4c-0.2,0-0.4,0.1-0.5,0.4v0.1c-0.3-0.3-0.8-0.5-1.3-0.5c-1.1,0-1.9,0.9-1.9,2
	c0,1.2,0.8,2,1.9,2c0.4,0,0.8-0.2,1.2-0.4v0.1c0,0.6-0.5,1-1.1,1c-0.6,0-1-0.2-1.1-0.2c-0.2-0.1-0.5-0.1-0.6,0.1
	c-0.1,0.1-0.1,0.2-0.1,0.4c0,0.1,0.1,0.2,0.2,0.3c0.4,0.3,1,0.4,1.6,0.4c1.3,0,2.1-0.8,2.1-2v-3.2C61.5,29.6,61.3,29.4,61,29.4
	 M48,29.4c-0.5,0-0.9,0.2-1.2,0.5v0c0-0.3-0.2-0.4-0.5-0.4c-0.2,0-0.5,0.2-0.5,0.4v3.5h1l0-2.2c0-0.4,0.3-0.8,0.9-0.8
	c0.5,0,0.9,0.4,0.9,1v2h1v-2.1C49.7,30.1,49,29.4,48,29.4 M57.4,29.8c0-0.2-0.2-0.4-0.5-0.4c-0.3,0-0.9,0-1.2,0.7l0-0.3
	c0-0.3-0.2-0.4-0.5-0.4c-0.2,0-0.5,0.2-0.5,0.4v3.5h1v-1.6c0-1.2,0.7-1.4,0.9-1.5c0.2,0,0.2,0,0.3,0C57.3,30.2,57.4,30,57.4,29.8
	 M34.4,32.4c-0.1,0-0.2,0-0.3,0c-0.2,0.1-0.3,0.1-0.5,0.1c-0.4,0-0.6-0.2-0.6-0.6v-1.6h1.1c0.2,0,0.4-0.2,0.4-0.4
	c0-0.2-0.1-0.4-0.4-0.4H33v-1.3h-1v1.3h-0.5v0.9H32V32c0,0.9,0.6,1.4,1.5,1.4c0.3,0,0.7-0.1,1-0.3l0,0c0.2-0.1,0.2-0.3,0.1-0.6
	C34.6,32.5,34.5,32.4,34.4,32.4 M40.3,28.2c-0.2,0-0.5,0.1-0.5,0.4v4.7h1v-4.7C40.8,28.3,40.5,28.2,40.3,28.2 M28.1,28.9v-0.5
	c0-0.1-0.1-0.2-0.2-0.2h-4c-0.1,0-0.2,0.1-0.2,0.2v0.5c0,0.1,0.1,0.2,0.2,0.2h1.5v4.2h1v-4.2h1.5C28,29.2,28.1,29,28.1,28.9"/>
<g>
	<polygon class="st0" points="67.5,19.1 67.4,19.1 67.4,19.1 67.4,19.1 67.4,19 67.4,19 67.4,18.9 67.4,18.9 67.4,18.9 67.4,18.9 
		67.4,18.9 67.4,18.9 67.4,18.8 67.4,18.8 67.4,18.8 67.4,18.8 67.4,18.7 67.4,18.7 67.4,18.7 67.3,18.7 67.3,18.7 67.3,18.7 
		67.3,18.7 67.3,18.7 67.3,18.6 67.3,18.6 67.3,18.6 67.3,18.6 67.3,18.6 67.3,18.6 67.3,18.6 67.3,18.6 67.3,18.5 67.3,18.5 
		67.3,18.5 67.3,18.5 67.3,18.5 67.3,18.5 67.2,18.5 67.2,18.5 67.2,18.5 67.2,18.4 67.2,18.4 67.2,18.4 67.2,18.4 67.2,18.4 
		67.2,18.4 67.2,18.4 67.2,18.4 67.2,18.4 67.2,18.3 67.2,18.3 67.2,18.3 67.2,18.3 67.1,18.3 67.1,18.3 67.1,18.3 67.1,18.3 
		67.1,18.3 67.1,18.2 67.1,18.2 67.1,18.2 67.1,18.2 67,18.1 67,18.1 67,18.1 66.9,18 66.8,18 66.8,17.9 66.8,17.9 66.7,17.9 
		66.7,17.9 66.7,17.9 66.7,17.8 66.7,17.8 66.7,17.8 66.6,17.8 66.6,17.8 66.6,17.8 66.4,17.7 66.3,17.7 66.3,17.6 66.2,17.6 
		66.1,17.6 66.1,17.6 66.1,17.6 66,17.6 65.9,17.6 65.8,17.5 65.6,17.5 65.5,17.6 65.4,17.6 65.2,17.6 65.2,17.6 65.1,17.6 65,17.6 
		65,17.7 64.9,17.7 64.9,17.7 64.3,17.9 64.3,17.9 64.1,17.9 64.1,18 64,18 63.9,18 63.9,18 63.8,18 63.8,18 63.8,18 63.7,18.1 
		63.6,18.1 63.6,18.1 63.6,18.1 63.5,18.1 63.1,18.2 63,18.2 62.9,18.3 62.9,18.3 62.8,18.3 62.5,18.4 62.1,18.4 62.1,18.4 62,18.4 
		61.7,18.5 61.4,18.5 61.3,18.5 61.2,18.5 61.1,18.5 60.9,18.5 60.8,18.6 60.5,18.6 60.1,18.6 59.6,18.6 59.6,18.6 59.3,18.6 
		59.1,18.6 58.7,18.5 58.6,18.5 58.5,18.5 58.3,18.5 58.2,18.5 58.1,18.5 58,18.5 57.9,18.4 57.7,18.4 57.6,18.4 57.6,18.4 
		57.5,18.4 57.4,18.4 57.4,18.4 57.3,18.4 57.3,18.3 57.1,18.3 57,18.3 57,18.3 56.9,18.3 56.9,18.3 56.8,18.2 56.7,18.2 56.6,18.2 
		56.5,18.2 56.4,18.1 56.4,18.1 56.3,18.1 56.3,18.1 56.2,18.1 56.2,18.1 56.1,18.1 55.9,18 55.9,18 55.5,17.9 55.5,17.9 55.5,17.8 
		55.5,17.8 55.4,17.8 55.4,17.8 55.3,17.8 55.3,17.8 55.3,17.8 55.3,17.8 55.2,17.8 55.2,17.7 55.2,17.7 55.1,17.7 55.1,17.7 
		55.1,17.7 55,17.7 55,17.7 55,17.6 54.9,17.6 54.9,17.6 54.8,17.5 54.7,17.5 54.6,17.5 54.6,17.5 54.4,17.4 54.4,17.4 54.3,17.3 
		54.3,17.3 54.1,17.2 54.1,17.2 54,17.2 54,17.2 54,17.1 53.9,17.1 53.9,17.1 53.9,17.1 53.9,17.1 53.9,17.1 53.8,17.1 53.8,17 
		53.8,17 53.8,17 53.8,17 53.8,17 53.7,17 53.7,17 53.7,17 53.7,16.9 53.7,16.9 53.6,16.9 53.6,16.9 53.6,16.9 53.6,16.9 53.6,16.9 
		53.5,16.9 53.5,16.9 53.5,16.8 53.5,16.8 53.5,16.8 53.4,16.8 53.4,16.8 53.4,16.7 53.4,16.7 53.3,16.7 53.3,16.7 53.3,16.7 
		53.3,16.7 53.2,16.6 53.2,16.6 53.2,16.6 53.2,16.6 53.2,16.6 53.1,16.6 53.1,16.5 53.1,16.5 53.1,16.5 53,16.5 53,16.4 53,16.4 
		52.9,16.3 52.9,16.3 52.5,16 52.5,16 52.5,16 52.4,15.9 52.4,15.9 52.4,15.9 52.4,15.8 52.4,15.8 52.4,15.8 52.3,15.8 52.3,15.8 
		52.3,15.8 52.3,15.7 52.3,15.7 52.3,15.7 52.3,15.7 52.2,15.7 52.2,15.6 52.2,15.6 52.2,15.6 52.2,15.6 52.2,15.6 52.2,15.6 
		52.2,15.6 52.2,15.5 52.2,15.5 52.2,15.5 52.1,15.5 52.1,15.5 52.1,15.5 52.1,15.5 52.1,15.5 52.1,15.5 52.1,15.4 52.1,15.4 
		52.1,15.4 52.1,15.4 52.1,15.4 52,15.4 52,15.4 52,15.4 52,15.3 52,15.3 52,15.3 52,15.3 52,15.3 52,15.3 52,15.3 52,15.3 52,15.3 
		52,15.3 52,15.2 52,15.2 51.9,15.2 51.9,15.2 51.9,15.2 51.9,15.2 51.9,15.2 51.9,15.2 51.9,15.2 51.9,15.2 51.9,15.1 51.9,15.1 
		51.9,15.1 51.9,15.1 51.9,15.1 51.9,15.1 51.9,15.1 51.9,15.1 51.8,15.1 51.8,15 51.8,15 51.8,15 51.8,15 51.8,15 51.8,15 51.8,15 
		51.8,15 51.8,14.9 51.8,14.9 51.8,14.9 51.8,14.9 51.8,14.9 51.8,14.9 51.8,14.9 51.8,14.9 51.8,14.9 51.7,14.9 51.7,14.8 
		51.7,14.8 51.7,14.8 51.7,14.8 51.7,14.8 51.7,14.8 51.7,14.8 51.7,14.8 51.7,14.7 51.7,14.7 51.7,14.7 51.7,14.7 51.7,14.7 
		51.7,14.7 51.7,14.7 51.7,14.7 51.7,14.6 51.7,14.6 51.7,14.6 51.6,14.6 51.6,14.6 51.6,14.6 51.6,14.6 51.6,14.6 51.6,14.5 
		51.6,14.5 51.6,14.5 51.6,14.5 51.6,14.5 51.6,14.5 51.6,14.5 51.6,14.5 51.6,14.4 51.6,14.4 51.6,14.4 51.6,14.4 51.6,14.4 
		51.5,14.4 51.5,14.3 51.5,14.3 51.5,14.3 51.5,14.3 51.5,14.3 51.5,14.3 51.5,14.2 51.5,14.2 51.5,14.2 51.5,14.2 51.5,14.2 
		51.5,14.2 51.5,14.1 51.5,14.1 51.5,14.1 51.4,14.1 51.1,14.1 50.9,14 50.4,14 50.3,14 49.6,13.9 49.5,13.9 49.2,13.9 49.1,13.9 
		49,13.9 48.9,13.8 48.8,13.8 48.7,13.8 48.5,13.8 48.4,13.8 48.3,13.8 48,13.7 47.9,13.7 47.7,13.7 47.6,13.7 46.3,13.6 46.2,13.5 
		45.9,13.5 45.8,13.5 45.6,13.5 45.5,13.5 45.4,13.5 45.4,13.5 45.4,13.5 45.4,13.5 45.4,13.6 45.4,13.6 45.4,13.7 45.4,13.7 
		45.4,13.7 45.4,13.7 45.4,13.8 45.5,13.8 45.5,13.9 45.5,13.9 45.5,14 45.5,14 45.5,14 45.5,14 45.5,14.1 45.5,14.1 45.5,14.1 
		45.5,14.1 45.5,14.2 45.5,14.2 45.5,14.3 45.5,14.3 45.5,14.3 45.5,14.3 45.5,14.4 45.6,14.4 45.6,14.4 45.6,14.4 45.6,14.5 
		45.6,14.5 45.6,14.5 45.6,14.5 45.6,14.6 45.6,14.6 45.6,14.6 45.6,14.6 45.6,14.7 45.6,14.7 45.6,14.7 45.6,14.7 45.6,14.8 
		45.6,14.8 45.6,14.8 45.6,14.8 45.6,14.9 45.7,14.9 45.7,14.9 45.7,14.9 45.7,14.9 45.7,14.9 45.7,15 45.7,15 45.7,15 45.7,15 
		45.7,15.1 45.7,15.1 45.7,15.1 45.7,15.1 45.7,15.1 45.7,15.1 45.7,15.2 45.7,15.2 45.7,15.2 45.8,15.2 45.8,15.3 45.8,15.3 
		45.8,15.3 45.8,15.3 45.8,15.3 45.8,15.3 45.8,15.4 45.8,15.4 45.8,15.4 45.8,15.4 45.8,15.4 45.8,15.4 45.8,15.5 45.8,15.5 
		45.8,15.5 45.8,15.5 45.8,15.5 45.9,15.5 45.9,15.6 45.9,15.6 45.9,15.6 45.9,15.6 45.9,15.7 45.9,15.7 45.9,15.7 45.9,15.7 
		45.9,15.7 45.9,15.7 45.9,15.8 45.9,15.8 45.9,15.8 45.9,15.8 45.9,15.8 45.9,15.8 45.9,15.8 45.9,15.8 45.9,15.9 46,15.9 46,15.9 
		46,15.9 46,15.9 46,15.9 46,16 46,16 46,16 46,16 46,16 46,16 46,16.1 46,16.1 46,16.1 46,16.1 46,16.1 46,16.1 46,16.1 46.1,16.1 
		46.1,16.2 46.1,16.2 46.1,16.2 46.1,16.2 46.1,16.2 46.1,16.2 46.1,16.3 46.1,16.3 46.1,16.3 46.1,16.3 46.1,16.3 46.1,16.3 
		46.1,16.3 46.1,16.3 46.1,16.4 46.1,16.4 46.1,16.4 46.2,16.4 46.2,16.4 46.2,16.4 46.2,16.4 46.2,16.4 46.2,16.5 46.2,16.5 
		46.2,16.5 46.2,16.5 46.2,16.5 46.2,16.5 46.2,16.5 46.2,16.5 46.2,16.6 46.2,16.6 46.2,16.6 46.2,16.6 46.2,16.6 46.2,16.6 
		46.2,16.6 46.3,16.6 46.3,16.7 46.3,16.7 46.3,16.7 46.3,16.7 46.3,16.7 46.3,16.7 46.3,16.7 46.3,16.7 46.3,16.8 46.3,16.8 
		46.3,16.8 46.3,16.8 46.3,16.8 46.3,16.8 46.3,16.8 46.3,16.8 46.3,16.9 46.4,16.9 46.4,16.9 46.4,16.9 46.4,16.9 46.4,16.9 
		46.4,16.9 46.4,16.9 46.4,16.9 46.4,16.9 46.4,17 46.4,17 46.4,17 46.4,17 46.4,17 46.4,17 46.4,17 46.4,17 46.4,17.1 46.5,17.1 
		46.5,17.1 46.5,17.1 46.5,17.1 46.5,17.1 46.5,17.1 46.5,17.1 46.5,17.1 46.5,17.1 46.5,17.2 46.5,17.2 46.5,17.2 46.5,17.2 
		46.5,17.2 46.5,17.2 46.5,17.2 46.5,17.2 46.5,17.2 46.5,17.2 46.5,17.3 46.6,17.3 46.6,17.3 46.6,17.3 46.6,17.3 46.6,17.3 
		46.6,17.3 46.6,17.3 46.6,17.4 46.6,17.4 46.6,17.4 46.6,17.4 46.6,17.4 46.6,17.4 46.6,17.4 46.6,17.4 46.6,17.4 46.6,17.5 
		46.7,17.5 46.7,17.5 46.7,17.5 46.7,17.5 46.7,17.5 46.7,17.5 46.7,17.5 46.7,17.5 46.7,17.5 46.7,17.5 46.7,17.6 46.7,17.6 
		46.7,17.6 46.7,17.6 46.7,17.6 46.7,17.6 46.8,17.6 46.8,17.6 46.8,17.6 46.8,17.7 46.8,17.7 46.8,17.7 46.8,17.7 46.8,17.7 
		46.8,17.7 46.8,17.7 46.8,17.7 46.8,17.8 46.8,17.8 46.8,17.8 46.8,17.8 46.8,17.8 46.8,17.8 46.9,17.8 46.9,17.8 46.9,17.8 
		46.9,17.8 46.9,17.8 46.9,17.9 46.9,17.9 46.9,17.9 46.9,17.9 46.9,17.9 46.9,17.9 46.9,17.9 46.9,17.9 46.9,17.9 47,18 47,18 
		47,18 47,18 47,18 47,18 47,18 47,18 47,18 47,18.1 47,18.1 47,18.1 47,18.1 47,18.1 47.1,18.1 47.1,18.1 47.1,18.1 47.1,18.1 
		47.1,18.2 47.1,18.2 47.1,18.2 47.1,18.2 47.1,18.2 47.1,18.2 47.1,18.2 47.1,18.2 47.1,18.2 47.1,18.3 47.1,18.3 47.2,18.3 
		47.2,18.3 47.2,18.3 47.2,18.3 47.2,18.3 47.2,18.3 47.2,18.3 47.2,18.4 47.2,18.4 47.2,18.4 47.2,18.4 47.2,18.4 47.3,18.4 
		47.3,18.4 47.3,18.4 47.3,18.4 47.3,18.5 47.3,18.5 47.3,18.5 47.3,18.5 47.3,18.5 47.3,18.5 47.3,18.6 47.4,18.6 47.4,18.6 
		47.4,18.6 47.4,18.6 47.4,18.6 47.4,18.6 47.4,18.6 47.4,18.6 47.4,18.7 47.4,18.7 47.5,18.7 47.5,18.7 47.5,18.7 47.5,18.8 
		47.5,18.8 47.5,18.8 47.6,18.8 47.6,18.8 47.6,18.8 47.6,18.9 47.6,18.9 47.6,18.9 47.6,18.9 47.6,18.9 47.7,18.9 47.7,19 47.7,19 
		47.7,19 47.8,19.1 47.8,19.1 47.8,19.1 47.8,19.1 47.8,19.2 47.9,19.2 47.9,19.2 47.9,19.2 47.9,19.2 48,19.4 48,19.4 48.1,19.4 
		48.5,19.8 48.5,19.8 48.6,19.9 48.6,20 48.7,20.1 48.8,20.1 48.8,20.1 48.8,20.1 48.9,20.2 48.9,20.2 48.9,20.2 49,20.2 49,20.3 
		49,20.3 49.1,20.3 49.1,20.3 49.1,20.4 49.1,20.4 49.2,20.4 49.2,20.4 49.2,20.4 49.2,20.4 49.3,20.5 49.3,20.5 49.3,20.5 
		49.3,20.5 49.4,20.5 49.4,20.6 49.4,20.6 49.4,20.6 49.4,20.6 49.4,20.6 49.5,20.6 49.5,20.6 49.5,20.7 49.5,20.7 49.5,20.7 
		49.6,20.7 49.6,20.7 49.6,20.7 49.6,20.7 49.6,20.7 49.7,20.8 49.7,20.8 49.7,20.8 49.7,20.8 49.7,20.8 49.7,20.8 49.7,20.8 
		49.8,20.8 49.8,20.8 49.8,20.9 49.8,20.9 49.8,20.9 49.8,20.9 49.9,20.9 49.9,20.9 49.9,20.9 49.9,20.9 49.9,20.9 49.9,21 50,21 
		50,21 50,21 50,21 50.1,21 50.1,21 50.1,21 50.1,21.1 50.2,21.1 50.2,21.1 50.2,21.1 50.2,21.1 50.2,21.1 50.2,21.1 50.3,21.2 
		50.3,21.2 50.4,21.2 50.4,21.2 50.4,21.3 50.5,21.3 50.5,21.3 50.5,21.3 50.6,21.3 50.6,21.3 50.8,21.4 50.8,21.4 51.3,21.7 
		51.3,21.7 51.4,21.7 51.4,21.7 51.5,21.8 51.5,21.8 51.6,21.8 51.6,21.8 51.6,21.8 51.7,21.9 51.7,21.9 51.7,21.9 51.8,21.9 
		51.8,21.9 51.8,21.9 51.9,21.9 51.9,21.9 51.9,22 51.9,22 52,22 52,22 52.1,22 52.1,22 52.2,22.1 52.2,22.1 52.3,22.1 52.3,22.1 
		52.4,22.1 52.5,22.2 52.6,22.2 52.6,22.2 52.7,22.2 52.7,22.2 52.8,22.3 52.8,22.3 52.9,22.3 52.9,22.3 53,22.3 53,22.3 53.1,22.4 
		53.2,22.4 53.2,22.4 53.3,22.4 53.3,22.4 53.8,22.5 53.8,22.6 53.9,22.6 53.9,22.6 54,22.6 54,22.6 54.1,22.6 54.1,22.6 54.2,22.6 
		54.3,22.7 54.6,22.7 54.8,22.8 54.9,22.8 55.1,22.8 55.3,22.8 55.4,22.8 55.5,22.9 55.6,22.9 55.9,22.9 56,22.9 56.1,22.9 
		56.2,22.9 56.5,23 56.6,23 56.7,23 56.9,23 57.6,23 58.5,23 58.5,23 59.3,23 59.4,23 60,22.9 60.1,22.9 60.2,22.9 60.4,22.9 
		60.5,22.9 61,22.8 61.1,22.8 61.6,22.7 61.7,22.7 61.8,22.7 62.1,22.6 62.2,22.6 62.5,22.5 62.6,22.5 62.6,22.5 63,22.4 63,22.4 
		63.3,22.3 63.4,22.3 63.4,22.3 63.5,22.3 63.5,22.3 63.5,22.3 63.6,22.3 63.6,22.3 63.7,22.2 63.7,22.2 63.8,22.2 63.8,22.2 
		63.8,22.2 63.9,22.2 63.9,22.2 63.9,22.2 64,22.2 64,22.1 64.1,22.1 64.2,22.1 64.3,22.1 64.8,21.9 64.8,21.9 64.9,21.9 64.9,21.8 
		64.9,21.8 64.9,21.8 65,21.8 65,21.8 65.1,21.8 65.1,21.8 65.1,21.8 65.1,21.8 65.2,21.7 65.2,21.7 65.3,21.7 65.3,21.7 65.3,21.7 
		65.4,21.7 65.4,21.7 65.4,21.6 65.4,21.6 65.5,21.6 65.5,21.6 65.6,21.6 65.6,21.6 65.7,21.5 65.7,21.5 65.8,21.5 65.8,21.5 
		65.9,21.5 65.9,21.4 65.9,21.4 66,21.4 66.1,21.3 66.1,21.3 66.3,21.3 66.3,21.2 66.3,21.2 66.3,21.2 66.4,21.2 66.4,21.2 
		66.4,21.2 66.4,21.2 66.4,21.1 66.4,21.1 66.5,21.1 66.5,21.1 66.5,21.1 66.5,21.1 66.5,21.1 66.6,21.1 66.6,21 66.6,21 66.6,21 
		66.7,21 66.7,21 66.7,21 66.7,20.9 66.8,20.8 66.8,20.8 67,20.7 67,20.7 67,20.6 67,20.6 67.1,20.6 67.1,20.6 67.1,20.5 67.1,20.5 
		67.1,20.5 67.1,20.5 67.1,20.5 67.1,20.5 67.2,20.4 67.2,20.4 67.2,20.4 67.2,20.4 67.2,20.3 67.3,20.2 67.3,20.2 67.3,20.1 
		67.4,19.9 67.4,19.9 67.4,19.8 67.4,19.8 67.4,19.6 67.5,19.5 67.5,19.3 67.5,19.3 	"/>
	<path class="st0" d="M71.4,7.2V7h0V6.9h0V6.8h0V6.7h0V6.7h0V6.6h0V6.5h0V6.4h0V6.4h0V6.3h0V6.3h0v0h0V6.2h0V6.1h0v0h0V6h0v0h0v0h0
		v0h0v0h0v0h0v0h0v0h0v0h0v0h0v0h0v0h0v0h0v0h0v0h0v0h0v0h0v0h0v0h0v0h0v0h0v0h0v0h0v0h0v0h0v0h0v0h0v0h0v0h0v0h0v0h0v0h0v0h0v0h0v0
		h0v0h0v0h0v0h0v0h0v0h0v0h0v0h0v0h0v0h0v0h0v0h0v0h0v0h0v0h0v0h0v0h0v0h0v0h0v0h0v0h0v0h0v0l0,0h0v0h0v0h0v0l0,0h0v0h0v0l0,0h0v0h0
		v0l0,0h0v0h0v0h0v0l0,0h0v0h0v0l0,0h0v0h0v0l0,0h0v0l0,0h0v0l0,0h0v0l0,0h0v0l0,0h0v0l0,0h0v0l0,0h0v0l0,0h0v0l0,0h0v0l0,0h0v0l0,0
		h0v0l0,0h0v0l0,0h0v0l0,0h0v0l0,0h0v0l0,0h0v0l0,0h0v0l0,0h0v0l0,0h0v0l-0.1-0.1h0v0l-0.1-0.1h0v0l-0.1-0.1h0v0l-0.4-0.4l0,0
		l-0.1-0.1l0,0l-0.1-0.1l0,0l0,0l0,0l0,0l0,0l0,0l0,0l0,0l0,0l0,0l0,0l0,0l0,0l0,0l0,0l0,0l0,0l0,0l0,0l0,0l0,0l0,0l0,0l0,0l0,0l0,0
		l0,0l0,0l0,0l0,0l0,0l0,0l0,0l0,0l0,0l0,0l0,0l0,0l0,0l0,0l0,0l0,0l0,0l0,0l0,0l0,0l0,0l0,0l0,0l0,0l0,0l0,0l0,0l0,0l-0.1,0l0,0
		l0,0l0,0l0,0l0,0l-0.1,0l0,0l0,0l0,0l-0.1-0.1l0,0l-0.3-0.1l0,0l-0.1,0l0,0l-0.1,0l0,0l-0.1-0.1l0,0l-0.1,0l0,0l-0.1,0l0,0l0,0l0,0
		l0,0l0,0l0,0l0,0l0,0l0,0l0,0l0,0l0,0l0,0l0,0l0,0l0,0l-0.1,0l0,0l-0.2-0.1l0,0l-0.3-0.1l0,0l-0.1,0l0,0l-0.1,0l0,0l-0.1,0l0,0
		l-0.1,0L65,0.5l0,0l-0.3-0.1l-0.2,0l0,0l-0.2,0l0,0l-0.4-0.1l-0.1,0l-0.1,0l-0.1,0l-0.6-0.1l-0.5,0l-0.1,0L62,0l-0.2,0l-0.2,0h-2.4
		v0.1h-0.8l-0.1,0l-0.1,0l-0.1,0l-0.1,0l-0.1,0l-0.1,0l-0.2,0l-0.4,0.1l-0.4,0.1l-0.1,0l-0.1,0L56,0.4l0,0l-0.1,0l0,0l-0.1,0l0,0
		l-0.1,0l0,0l-0.1,0L55,0.6l0,0l0,0l0,0l0,0l0,0l-0.1,0l0,0l0,0l0,0l0,0l-0.1,0l0,0l-0.1,0l0,0l-0.1,0l0,0l-0.1,0l0,0l-0.3,0.1l0,0
		l-0.1,0l0,0l-0.1,0l0,0l-0.1,0l0,0l-0.1,0l0,0l0,0l0,0l-0.1,0l0,0l0,0l0,0l0,0l0,0l0,0l0,0l0,0l0,0l0,0l0,0l0,0l0,0l0,0l0,0l0,0
		l-0.1,0l0,0l-0.1,0l0,0l-0.1,0l0,0l-0.1,0.1l0,0l-0.4,0.2l0,0L51.6,2l0,0l-0.1,0.1l0,0l-0.1,0l0,0l-0.1,0l0,0l-0.1,0l0,0l-0.1,0
		l0,0l0,0l0,0l-0.1,0l0,0l0,0l0,0l0,0l0,0l0,0l0,0l0,0l0,0l0,0l0,0l0,0l0,0l0,0l0,0l0,0l0,0l0,0l0,0l0,0l0,0l0,0l0,0l0,0l0,0l0,0
		l0,0l0,0l0,0l0,0l0,0l0,0l0,0l0,0l0,0l0,0l0,0l0,0l0,0l0,0l0,0l0,0l0,0l0,0l0,0l0,0l0,0l0,0l0,0l0,0l0,0l0,0l0,0l0,0l0,0l0,0l0,0
		l0,0l0,0l0,0l0,0l0,0l0,0l0,0l0,0l0,0l0,0l0,0l0,0l0,0l0,0l0,0l0,0l0,0l0,0l0,0l0,0l0,0l0,0l0,0l-0.1,0.1l0,0l-0.1,0.1l0,0
		l-0.1,0.1l0,0l-0.1,0.1l0,0l-0.1,0.1l0,0L48.8,4l0,0l-0.3,0.3l0,0l-0.1,0.1l0,0l-0.1,0.1l0,0l-0.1,0.1l0,0L48,4.8l0,0l0,0l0,0
		L47.9,5l0,0l0,0l0,0l0,0l0,0l0,0l0,0l0,0l0,0l0,0l0,0l0,0l0,0l0,0l0,0l0,0l0,0l0,0l0,0l0,0l0,0l0,0l0,0l0,0l0,0l0,0l0,0l0,0l0,0
		l0,0l0,0l0,0l0,0l0,0l0,0l0,0l0,0l0,0l0,0l0,0l0,0l0,0l0,0l0,0l0,0l0,0l0,0l0,0l0,0l0,0l0,0l0,0l0,0l0,0l0,0l0,0l0,0l0,0l0,0l0,0
		l0,0l0,0l0,0l0,0l0,0l0,0l0,0l0,0l0,0l0,0l0,0.1l0,0l0,0l0,0l0,0l0,0l0,0l0,0l0,0.1l0,0l-0.1,0.1l0,0L46.5,7l0,0l-0.2,0.4l0,0l0,0
		v0.2l0.1,0l0.1,0l0.2,0l-0.1,0l-0.2,0l-0.1,0l-0.5-0.1l-0.1,0l-0.5-0.1l-0.1,0l-0.4-0.1l-0.1,0l-0.2,0l-0.1,0l-0.2,0l-0.1,0l-0.1,0
		l-0.1,0l-0.1,0l-0.1,0l-0.1,0l-0.1,0l-0.1,0l-0.1,0l-0.1,0l-0.1,0l-0.1,0l-0.1,0l-0.1,0l-0.1,0l-0.1,0l-0.1,0l-0.1,0l-0.1,0l-0.1,0
		l-0.1,0l-0.1,0l-0.1,0l-0.1,0l-0.1,0l-0.1,0l-0.1,0l-0.1,0l-0.1,0l-0.1,0l-0.1,0l-0.1,0l-0.1,0l-0.1,0l-0.1,0l-0.1,0l-0.1,0l-0.1,0
		l-0.1,0l-0.1,0l-0.2,0l-0.1,0l-0.1,0l-0.1,0l-0.1,0l-0.1,0l-0.1,0l-0.1,0l-0.2,0l-0.1,0l-0.1,0l-0.1,0l-0.1,0l-0.1,0l-0.1,0l-0.1,0
		l-0.2,0l-0.1,0l-0.1,0l-0.1,0l-0.1,0l-0.1,0l-0.2,0l-0.1,0l-0.1,0l-0.1,0l-0.1,0l-0.1,0l-0.2,0l-0.1,0l-0.1,0l-0.1,0l-0.2,0l-0.1,0
		l-0.1,0l-0.1,0l-0.1,0l-0.1,0l-0.2,0l-0.1,0l-0.1,0l-0.1,0l-0.1,0l-0.1,0l-0.1,0L37,6l-0.1,0l-0.1,0l-0.1,0l-0.1,0l-0.1,0l-0.1,0
		l-0.1,0l-0.1,0l-0.1,0l-0.1,0l-0.1,0l-0.1,0l-0.1,0l-0.1,0l-0.1,0l-0.1,0l-0.1,0l-0.1,0l-0.1,0l-0.1,0l-0.1,0l-0.1,0l-0.1,0l-0.1,0
		l-0.1,0l-0.1,0l-0.1,0l-0.1,0l-0.1,0l-0.1,0l-0.1,0l-0.1,0l-0.1,0l-0.1,0l-0.1,0l-0.1,0l-0.1,0l-0.1,0l-0.1,0l-0.1,0l-0.1,0l-0.1,0
		l-0.1,0l-0.1,0l-0.1,0l-0.1,0l-0.1,0l-0.1,0l-0.1,0l-0.1,0l-0.1,0l-0.1,0l-0.1,0l-0.1,0l-0.1,0l-0.1,0l-0.1,0l-0.1,0l-0.1,0l-0.1,0
		l-0.1,0l-0.1,0l-0.1,0l-0.1,0l-0.1,0L32,5l-0.1,0l-0.1,0l-0.1,0l-0.1,0l-0.1,0l-0.3,0l-0.1,0l-0.3-0.1l-0.1,0l-1.4-0.2l-0.1,0
		l-0.3,0l-0.1,0l-0.2,0l-0.1,0l-0.1,0l-0.1,0l-0.1,0l-0.1,0l-0.1,0l-0.1,0l-0.1,0l-0.1,0l-0.1,0l-0.1,0l-0.1,0l-0.3,0l-0.2,0h-0.4
		l-0.2,0l-0.1,0l-0.1,0l-0.1,0l-0.2,0l-0.2,0l-0.1,0l0,0l-0.1,0l0,0l-0.1,0l0,0l0,0l0,0l0,0l-0.2,0.1l0,0l-0.1,0.1l0,0l-0.1,0l0,0
		l0,0l0,0l0,0l0,0l0,0l0,0l0,0l0,0l0,0l0,0l0,0l0,0l0,0l0,0l0,0l0,0l0,0l0,0l0,0L25,5.2l0,0l0,0l0,0l-0.1,0.1l0,0l-0.2,0.2l0,0
		l-0.1,0.1l0,0l0,0l0,0l0,0l0,0l0,0l0,0l0,0l0,0l0,0l0,0l0,0l0,0l0,0l0,0l0,0l0,0l0,0l0,0l0,0l0,0l0,0l0,0l0,0l0,0l0,0l0,0l0,0l0,0
		l0,0l-0.2,0.3l0,0.1l0,0l0,0l0,0l0,0.1l0,0l0,0l0,0l0,0.1l0,0.1l0,0l0,0l0,0l0,0.1l0,0l-0.1,0.3l0,0.1l0,0.2v0.3h0v0.2h0v0.1h0v0.1
		h0v0.1h0v0.1h0v0h0v0.1h0v0h0v0h0v0h0v0h0v0h0v0h0v0h0v0h0v0h0v0h0v0h0v0h0v0h0v0h0v0h0v0h0v0h0v0h0v0h0v0h0v0h0v0h0v0h0v0h0v0h0v0
		h0v0h0l0,0v0h0v0h0v0h0v0h0l0,0v0h0v0h0v0h0v0h0l0,0v0h0l0,0v0h0l0,0v0h0l0,0v0h0l0,0v0h0l0,0v0h0l0,0v0h0l0,0v0h0l0,0v0h0l0,0v0h0
		l0,0v0h0l0.3,0.3l0,0l0.1,0.1l0,0l0,0l0,0l0,0l0,0l0,0l0,0l0,0l0,0l0,0l0,0l0,0l0,0l0,0l0,0l0,0l0.1,0l0,0l0.1,0l0,0l0.1,0l0,0l0,0
		l0,0l0.1,0l0,0l0.1,0l0.3,0.1l0.1,0l0,0l0.1,0l0.1,0l0.3,0l0.1,0l0.6,0l0.6,0l0.1,0l0.3,0l0.3,0l0.6,0l0.1,0l0.1,0l0.1,0l0.1,0
		l0.1,0l0.1,0l0.1,0l0.1,0l0.1,0l0.1,0l0.1,0l0.1,0l0.3,0l0.1,0l0.2,0l0.4,0.1l0.1,0l0.1,0l0.1,0l0.1,0l0.1,0l0.1,0l0.1,0l0.1,0
		l0.2,0l0,0l0.2,0l0.1,0l0.1,0l0.1,0l0,0l0.1,0l0,0l0,0l0,0l0,0l0.1,0l0,0l0.3,0.1l0,0l0.1,0l0,0l0.1,0l0,0l0,0l0,0l0,0l0,0l0,0
		l0.1,0l0,0l0.2,0.1l0,0l0.1,0l0,0l0,0l0,0l0,0l0,0l0,0l0,0l0,0l0,0l0,0l0,0l0,0l0,0l0,0l0,0l0,0l0,0l0,0l0,0l0,0l0,0l0,0l0,0l0,0
		l0,0l0,0l0.1,0.1l0,0l0.2,0.2v0h0l0.1,0.1v0h0l0.1,0.1v0h0l0,0v0h0l0,0v0h0l0,0v0h0l0,0v0h0l0,0v0h0l0,0v0h0l0,0v0h0l0,0v0h0l0,0v0
		h0v0h0l0,0v0h0v0h0l0,0v0h0v0h0l0,0v0h0v0h0l0,0v0h0v0h0l0,0v0h0v0h0v0h0v0h0v0h0v0h0v0h0v0h0v0h0v0h0v0h0l0,0v0h0v0h0v0h0v0h0v0h0
		v0h0v0h0v0h0v0h0v0h0v0h0v0h0v0h0v0h0v0h0v0h0v0h0v0h0v0h0v0h0v0h0v0h0v0h0v0h0v0h0v0h0v0h0v0h0v0h0v0h0v0h0v0h0v0h0v0h0v0h0v0h0v0
		h0v0h0v0h0v0h0v0h0v0h0v0h0v0h0v0h0v0h0v0h0v0h0v0h0v0h0v0h0v0h0v0h0v0h0v0h0v0h0v0h0v0h0v0h0v0h0v0h0v0h0v0h0v0h0v0h0v0h0v0h0v0h0
		v0h0v0h0v0h0v0h0v0h0v0h0v0h0v0h0v0h0v0h0v0h0v0h0v0h0v0h0v0h0v0h0v0h0v0h0v0h0v0h0v0h0v0h0v0h0v0h0v0h0v0h0v0h0v0h0v0h0v0h0v0h0v0
		h0v0h0v0h0v0h0v0h0v0h0v0h0v0h0v0h0v0h0v0h0v0h0v0h0v0h0v0h0v0h0v0h0v0h0v0h0v0h0v0h0v0h0v0h0v0h0v0h0v0h0v0h0v0h0v0h0v0h0v0h0v0h0
		v0h0v0h0v0h0v0h0v0h0v0h0v0h0v0h0v0h0v0h0v0h0v0h0v0h0v0h0v0h0v0h0v0h0v0h0v0h0v0h0v0h0v0h0v0h0v0h0v0h0v0h0v0h0v0h0v0h0v0h0v0h0v0
		h0v0h0v0h0v0h0v0h0v0h0v0h0v0h0v0h0v0h0v0h0v0h0v0h0v0h0v0h0v0h0v0h0v0h0v0h0v0h0v0h0v0h0v0h0v0h0v0h0v0h0v0h0v0h0v0h0v0h0v0h0v0h0
		v0h0v0h0v0h0v0h0v0h0v0h0v0h0v0h0v0h0v0h0v0h0v0h0v0h0v0h0v0h0v0h0v0h0v0h0v0h0v0h0v0h0v0h0v0h0v0h0v0h0v0h0v0h0v0h0v0h0v0h0v0h0v0
		h0v0h0v0h0v0h0v0h0v0h0v0h0v0h0v0h0v0h0v0h0v0h0v0h0v0h0v0h0v0h0v0h0l0,0v0h0v0h0v0h0v0h0v0h0l0,0v0h0l0,0v0h0l0,0v0h0l0,0v0h0l0,0
		v0h0l0,0v0h0l0.1,0.1v0h0l0.1,0.1l0,0l0.1,0.1l0,0l0,0l0,0l0,0l0,0l0,0l0,0l0,0l0,0l0,0l0,0l0,0l0.2,0.1l0,0l0,0l0,0l0,0l0,0l0,0
		l0.1,0l0.1,0l0,0l0.2,0l0.4,0v0l0.3,0l0,0l0.2,0l0,0l0.1,0l0,0l0.1,0l0,0l0,0l0,0l0,0l0,0l0,0l0,0l0,0l0.1-0.1l0,0l0,0l0,0l0,0l0,0
		l0,0l0,0l0,0l0,0l0,0l0,0l0,0l0.1-0.1l0,0l0,0l0,0l0.1-0.1l0,0l0.1-0.1l0,0l0,0l0,0l0,0l0,0l0,0l0,0l0,0l0,0l0,0l0-0.1l0,0l0.1-0.1
		l0,0l0,0l0,0l0,0l0-0.1l0,0l0,0l0,0l0,0l0,0l0-0.2l0-0.1l0-0.2l0-0.1h0v-0.2h0v-0.1h0v-0.1h0v-0.1h0v-0.1h0v-0.1h0V20h0V20h0v-0.1
		h0v-0.1h0v-0.1h0v-0.1h0v-0.1h0v-0.1h0v-0.1h0v-0.1h0v-0.1h0v-0.1h0v-0.1h0v-0.1h0v-0.1h0v-0.1h0v-0.1h0v-0.1h0v-0.1h0V19h0v-0.1h0
		v-0.1h0v-0.1h0v-0.1h0v-0.1h0v-0.1h0v-0.1h0v-0.1h0v-0.1h0v-0.1h0v-0.1h0v-0.1h0v-0.1h0v-0.1h0v-0.1h0v-0.1h0v-0.1h0V18h0V18h0
		v-0.1h0v-0.1h0v-0.1h0v-0.1h0v-0.1h0v-0.1h0v-0.1h0v-0.1h0v-0.1h0v-0.1h0v-0.1h0v-0.1h0v-0.1h0v-0.1h0v-0.1h0v-0.1h0V17h0V17h0
		v-0.1h0v-0.1h0v-0.1h0v-0.1h0v-0.1h0v-0.1h0v-0.1h0v-0.1h0v-0.1h0v-0.1h0v-0.1h0v-0.1h0v-0.1h0v-0.1h0v-0.1h0v-0.1h0v-0.1h0V16h0
		V16h0v-0.1h0v-0.1h0v-0.1h0v-0.1h0v-0.1h0v-0.1h0v-0.1h0v-0.1h0v-0.1h0v-0.1h0v-0.1h0v-0.1h0v-0.1h0v0h0v-0.1h0v-0.1h0v-0.1h0V15h0
		V15h0v-0.1h0v-0.1h0v-0.1h0v-0.1h0v-0.1h0v-0.1h0v0h0v-0.1h0v-0.1h0v-0.1h0v-0.1h0v-0.1h0v-0.1h0v-0.1h0v-0.1h0v-0.1h0v-0.1h0v0h0
		V14h0v-0.1h0v-0.1h0v-0.1h0v-0.1h0v0h0v-0.1h0v-0.1h0v-0.1h0v-0.1h0v0h0v-0.1h0v-0.1h0v-0.1h0v-0.1h0v0h0v-0.1h0v-0.1h0V13h0V13h0
		v-0.1h0v0h0l0.1,0l0.1,0l0.1,0l0.1,0l0.3,0l0.1,0l0.2,0l0.1,0l0.5,0.1l0.1,0l0.3,0l0.1,0l0.2,0l0.1,0l0.2,0l0.1,0l0.2,0l0.1,0
		l0.2,0l0.1,0l0.2,0l0.1,0l0.2,0l0.1,0l0.2,0l0.1,0l0.3,0l0.1,0l0.3,0l0.1,0l0.4,0l0.1,0l0.5,0.1l0.1,0l0.8,0.1l0.1,0l0.5,0.1l0.1,0
		l0.3,0l0.1,0l0.1,0l0.1,0l0.1,0l0.1,0l0.1,0l0.1,0l0.1,0l0.1,0l0.1,0l0.2,0l0.1,0l0.2,0l0.1,0l0.1,0l0.1,0l0.3,0l0.1,0l0.2,0l0.1,0
		l0.3,0l0.1,0l0.2,0l0.4,0l0.1,0l0.4,0l0.1,0l0.4,0l0.1,0l0.2,0l0.1,0l0.3,0l0.1,0l0.3,0l0.1,0l0.3,0l0.1,0l0.4,0l0.2,0l0.3,0l0.5,0
		l0.5,0l0.2,0l0.2,0l0.2,0l0.2,0l0.2,0l0.2,0l0.5,0l0.3,0l0.3,0l0.4,0l0.4,0l1.9,0v0l0.4,0l0.3,0l0.2,0l0.5,0l0.1,0l0.5,0l0.1,0
		l0.6-0.1l0.1,0l0.2,0l0.1,0l0.4-0.1l0.1,0l0,0l0.3-0.1l0,0l0.2,0l0.2-0.1l0,0L66,14l0,0l0,0l0.1,0l0,0l0.1,0l0,0l0.1,0l0,0l0.1,0
		l0,0l0,0l0,0l0.1,0l0,0l0.1,0l0,0l0.1,0l0,0l0.1,0l0,0l0.1,0l0,0l0.1,0l0,0l0,0l0.1,0l0,0l0.1,0l0,0l0,0l0,0l0.1,0l0,0l0.1,0l0,0
		l0.2-0.1l0,0l0.2-0.1l0,0l0.2-0.1l0,0l0,0l0,0l0,0l0,0l0,0l0,0l0,0l0,0l0,0l0,0l0,0l0,0l0,0l0,0l0,0l0,0l0,0l0,0l0,0l0,0l0,0l0,0
		l0,0l0,0l0,0l0,0l0,0l0,0l0,0l0,0l0,0l0,0l0,0l0,0l0,0l0,0l0,0l0,0l0,0l0,0l0,0l0,0l0,0l0,0l0,0l0.1-0.1l0,0l0.1-0.1l0,0l0.1-0.1
		l0,0l0.1-0.1l0,0l0.1-0.2l0,0l0.1-0.1l0,0l0.1-0.1l0,0l0,0l0,0l0,0l0,0l0,0l0,0l0,0l0,0l0,0l0,0l0,0l0,0l0,0l0,0l0,0l0,0l0,0l0,0
		l0,0l0,0l0,0l0,0l0,0l0,0l0,0l0,0l0,0l0,0l0,0l0,0l0,0l0,0l0,0l0-0.1l0,0l0,0l0,0l0-0.1l0,0l0.1-0.2l0,0l0-0.1l0,0l0-0.1l0,0l0-0.1
		l0,0l0,0l0,0l0,0l0,0l0,0l0-0.1l0,0l0,0l0,0l0.1-0.3l0,0l0,0l0-0.1l0,0l0,0l0,0l0,0l0,0l0-0.1l0-0.1l0,0l0-0.1l0,0l0-0.2l0-0.1
		l0-0.1l0-0.1l0-0.1l0-0.1l0-0.1l0-0.1l0-0.1l0-0.1V7.2L71.4,7.2z M47.1,7.8L47.1,7.8l-0.1,0l-0.1,0l0,0l0.1,0L47.1,7.8L47.1,7.8
		L47.1,7.8L47.1,7.8z M51.6,8.4L51.6,8.4l-0.4,0l-0.1,0l-0.2,0l-0.1,0l0.3,0l0.1,0L52,8.5l0,0l0,0L51.6,8.4z M65.7,8L65.7,8
		l-0.1,0.2l-0.1,0.1l0,0l0,0l0,0l0,0l0,0l0,0l0,0l-0.1,0l0,0l-0.1,0l0,0l0,0l0,0l0,0l0,0l0,0l-0.2,0.1l0,0l0,0l-0.1,0l0,0l-0.1,0
		l-0.1,0l0,0l-0.1,0l0,0l-0.1,0l-0.1,0l-0.1,0l-0.1,0l-0.1,0l-0.1,0l-0.3,0l-0.3,0l-0.1,0l-0.1,0l-0.1,0l-0.1,0l-0.1,0l-0.1,0
		l-0.2,0l-0.1,0l-0.1,0l-0.1,0L62,9l-0.3,0l-0.2,0l-0.2,0l-0.3,0l-0.7,0l-0.2,0v0l-0.8,0l-0.4,0l-0.3,0l-0.3,0l-0.4,0l-0.2,0l-0.2,0
		l-0.2,0l-0.2,0l-0.2,0l-0.2,0l-0.2,0l-0.1,0l-0.3,0l-0.1,0l-0.4,0l-0.1,0l-0.3,0l-0.2,0l-0.1,0l-0.1,0l-0.2,0l-0.1,0l-0.1,0l-0.1,0
		l-0.2,0l-0.1,0l-1.3-0.1l-0.1,0l-0.1,0l-0.3,0l-0.1,0v0l0,0l0,0l0.1-0.1l0,0l0.1-0.1l0,0L52.4,8l0,0l0.1-0.1l0,0l0.1-0.1l0,0
		l0.1-0.1l0,0l0,0l0,0l0,0l0,0l0,0l0,0l0,0l0,0l0,0l0,0l0,0l0,0l0,0l0,0l0,0l0,0l0,0l0,0l0,0l0,0l0,0l0,0l0,0l0,0l0,0l0,0l0,0l0,0
		l0,0l0,0l0,0l0,0l0,0l0,0l0,0l0,0l0,0l0,0l0,0l0,0l0,0l0,0l0,0l0,0l0,0l0,0l0,0l0.1,0l0,0l0.1,0l0,0l0.1,0l0,0l0.1,0l0,0l0.3-0.1
		l0,0l0.2-0.1l0,0l0,0l0,0l0,0l0,0l0.1,0l0,0l0,0l0,0l0,0l0,0l0,0l0.1,0l0,0l0.1,0l0,0l0.1,0l0,0l0.1,0l0,0l0.1,0l0,0l0,0l0,0
		l0.2-0.1l0,0L56,6.1l0.1,0l0,0l0.1,0l0,0l0.1,0l0,0l0.2,0l0.1,0l0,0l0.1,0l0,0l0.1,0l0,0l0.1,0l0,0l0.1,0l0,0l0.3-0.1l0.1,0l0.3,0
		l0.1,0l0.1,0l0.1,0l0.4-0.1l0.1,0l0.1,0l0.4,0h0l0.3,0h0.9l0.3,0l0.3,0l0.1,0l0.1,0l0.2,0l0.1,0l0.4,0.1l0.1,0l0.1,0l0.1,0l0.1,0
		l0.1,0l0.1,0l0,0l0.1,0l0,0l0.1,0L63,5.9l0,0l0,0l0,0l0,0l0.1,0l0,0l0.1,0l0,0l0,0l0.3,0.1l0,0l0.1,0l0,0l0,0l0,0l0.1,0l0,0l0,0
		l0,0l0,0l0.1,0l0,0l0,0l0,0l0.2,0.1l0,0l0,0l0,0l0.1,0.1l0,0l0.1,0l0,0l0,0l0,0l0,0l0,0l0,0l0,0l0,0l0,0l0,0l0,0l0,0l0,0l0,0l0,0
		l0,0l0,0l0,0l0.1,0.1l0,0L65.2,7l0,0l0.2,0.2v0h0l0.1,0.1v0h0l0,0v0h0l0,0v0h0l0,0v0h0l0,0v0h0l0,0v0h0l0,0v0h0v0h0v0h0v0h0v0h0v0
		h0v0h0v0h0v0h0v0h0v0h0v0.1h0L65.7,8z"/>
</g>
</svg>
