<?xml version="1.0" encoding="utf-8"?>
<!-- Generator: Adobe Illustrator 26.0.1, SVG Export Plug-In . SVG Version: 6.00 Build 0)  -->
<svg version="1.1" id="Layer_1" xmlns="http://www.w3.org/2000/svg" xmlns:xlink="http://www.w3.org/1999/xlink" x="0px" y="0px"
	 viewBox="0 0 95 35" style="enable-background:new 0 0 95 35;" xml:space="preserve">
<style type="text/css">
	.st0{fill:#FFFFFF;}
</style>
<g>
	<path class="st0" d="M28.4,27.8v4.3c0,1.7,1.2,2.8,2.9,2.8c1.8,0,2.9-1.2,2.9-3v-4.2h-1.5v4.1c0,1-0.5,1.6-1.4,1.6
		c-1,0-1.4-0.7-1.4-1.5v-4.2H28.4z M34.9,27.9v7h2.4c1.4,0,2.5-0.7,2.5-2.1c0-1.4-1.2-1.7-1.2-1.7s0.9-0.3,0.9-1.5
		c0-1.2-1.2-1.7-2.2-1.7H34.9z M36.5,29.2h0.7c0.5,0,0.8,0.3,0.8,0.7c0,0.4-0.3,0.7-0.8,0.7h-0.8L36.5,29.2L36.5,29.2z M36.5,31.8
		h0.8c0.8,0,1,0.4,1,0.9c0,0.5-0.3,0.9-1,0.9h-0.9L36.5,31.8L36.5,31.8z M40.5,27.9H42v7h-1.5V27.9z M57.3,34.9h-1.5v-7h4.8v1.4
		h-3.3v1.6h3v1.2h-3V34.9z M61.1,27.9v1.4h2v5.5h1.6v-5.5h2v-1.4H61.1z M43.8,32.6l-1.2,0.9c0,0,0.4,1.5,2.5,1.5
		c1.4,0,2.5-0.8,2.5-2.3c0-2.3-3.3-1.8-3.3-3c0-0.3,0.3-0.6,0.8-0.6c0.8,0,1.1,0.8,1.1,0.8l1.2-0.9c0,0-0.5-1.3-2.3-1.3
		c-1.5,0-2.3,1-2.3,2c0,2.4,3.2,1.9,3.2,3.1c0,0.4-0.3,0.7-0.8,0.7C44.1,33.6,43.8,32.6,43.8,32.6L43.8,32.6z M51.5,27.8
		c-1.8,0-2.6,1-2.6,1l0.2,0.2c0,0-1.2,0.8-1.2,2.6c0,2.1,1.6,3.4,3.6,3.4c2.3,0,3.6-1.7,3.6-3.6C55.1,29.4,53.6,27.8,51.5,27.8
		L51.5,27.8z M51.5,29.2c1.2,0,2,0.9,2,2.2c0,1.2-0.8,2.2-2,2.2c-1.2,0-2-0.9-2-2c0-1,0.7-1.5,0.7-1.5L50,29.8
		C50,29.8,50.5,29.2,51.5,29.2z M46.8,0c-7.9,0-11.3,7-11.3,7l1,0.7c0,0-1.3,2.4-1.2,5.5c0,6.3,5,12.2,12.4,12.2
		c6.7,0,12.2-5.5,12.2-12.2C59.9,4.5,53,0,46.8,0L46.8,0z M46.9,2.1c6.2,0,11,5,11,10.8c0,6.1-4.6,10.4-10,10.4c-4,0-7.5-3-7.5-7.2
		c0-2.4,1.3-4.1,2.7-4.9l0.2,0.2c-0.4,0.3-1.5,2.1-1.5,3.8c0,3.3,2.6,5.5,5.8,5.5c4.1,0,6.8-3.5,6.8-7.5c0-4.7-4.2-8.7-9.2-8.7
		c-2.8,0-5.1,1.2-6.5,2.2l-0.2-0.2C40.2,3.9,43.3,2.1,46.9,2.1z M45,6.7c3.2,0,6.3,2.1,7.1,5.1l-0.3,0.1c-1.4-1.8-3.7-3.4-6.4-3.4
		c-5,0-7.6,4.5-7.2,8.3l-0.3,0.1c0,0-0.6-1.2-0.6-2.7C37.4,10.1,40.8,6.7,45,6.7L45,6.7z M47.1,11.9c1.5,0,2.7,1.2,2.7,2.7
		c0,1.2-0.8,1.9-0.8,1.9l0.9,0.6c0,0-0.9,1.4-2.8,1.4c-1.8,0-3.3-1.4-3.3-3.4C43.9,13.2,45.6,11.9,47.1,11.9L47.1,11.9z"/>
</g>
</svg>
