<?xml version="1.0" encoding="utf-8"?>
<!-- Generator: Adobe Illustrator 26.0.1, SVG Export Plug-In . SVG Version: 6.00 Build 0)  -->
<svg version="1.1" id="Layer_1" xmlns="http://www.w3.org/2000/svg" xmlns:xlink="http://www.w3.org/1999/xlink" x="0px" y="0px"
	 viewBox="0 0 95 35" style="enable-background:new 0 0 95 35;" xml:space="preserve">
<style type="text/css">
	.st0{fill:#343741;}
</style>
<g>
	<path class="st0" d="M10,29.1c-5-0.8-8.8-4.4-9.8-9.3c-0.2-1-0.3-2.7-0.1-3.7C0.7,10.8,4.7,6.8,9.9,6C11,5.8,13,5.8,14,6
		c4.2,0.9,7.4,3.8,8.8,7.8c0.4,1.2,0.6,2.3,0.6,3.6c0,5.5-3.8,10.2-9.2,11.4C13.3,29.1,10.8,29.2,10,29.1L10,29.1z M11.2,23.8
		c-0.6-0.7-1.5-2.2-1.8-2.9c-0.3-0.6-0.3-0.8-0.3-1.6c0-0.8,0-1,0.3-1.5c0.5-1,1.3-1.5,2.3-1.5c1.5,0,2.6,1.3,2.6,3
		c0,1.2-0.6,2.5-1.8,4l-0.7,0.9l0.7-0.1c1.9-0.2,3.8-1,5.1-2.4c0.7-0.8,1.1-1.3,1.6-2.2c0.6-1.2,0.8-2.1,0.8-3.5c0-1,0-1.4-0.2-2
		c-1-4-4.9-6.7-8.9-6.2c-3.4,0.4-6.3,2.9-7.1,6.2c-0.3,1.1-0.3,2.9,0,4c0.9,3.2,3.4,5.5,6.6,6.1c0.3,0.1,0.8,0.1,1,0.1l0.3,0
		L11.2,23.8z M57.7,24.4c-0.8-0.2-1.9-0.5-2.4-0.8c-1.3-0.7-2.1-2.1-2.4-4c-0.1-0.8,0-2.7,0.1-3.4c0.3-1.4,1.1-2.4,2.1-3.1
		c1-0.7,3.2-1.1,5-0.9c1.8,0.2,2.9,0.6,3.9,1.6c0.7,0.7,1.1,1.4,1.3,2.5c0.3,1.1,0.3,3.3,0,4.2c-0.5,2.1-1.8,3.3-3.8,3.8
		C60.7,24.5,58.7,24.6,57.7,24.4L57.7,24.4z M60.7,22.1c0.7-0.3,1-0.6,1.3-1.1c0.4-0.7,0.5-1.5,0.5-2.7c0-2.9-1-4.1-3.3-4.1
		c-1.1,0-1.7,0.2-2.2,0.7c-0.8,0.7-1.1,1.7-1.1,3.4c0,2.4,0.7,3.7,2.3,4C58.8,22.5,60.2,22.4,60.7,22.1z M32.1,24.1
		c0-0.1-1.2-2.7-2.6-5.8c-1.4-3.1-2.5-5.6-2.5-5.7c0,0,0.5-0.1,1.1-0.1c1,0,1.2,0,1.5,0.2c0.2,0.1,0.5,0.4,0.6,0.6
		c0.1,0.2,0.9,1.9,1.7,3.7c0.8,1.9,1.5,3.4,1.5,3.5c0,0.1,0.6-1.3,1.5-3.5c0.8-2,1.5-3.7,1.6-3.9s0.4-0.4,0.6-0.5
		c0.4-0.2,0.5-0.2,1.6-0.2h1.3l-2.4,5.4c-1.3,2.9-2.5,5.5-2.6,5.6c-0.4,0.5-0.8,0.7-1.9,0.7C32.2,24.3,32.2,24.3,32.1,24.1z
		 M44.6,24.1c-1.7-0.3-3-1.8-3.6-3.7c-0.3-1-0.3-3,0-3.9c0.4-1.5,1.3-2.7,2.4-3.3c1-0.5,1.3-0.6,4.5-0.6l2.9,0v2.1l-2.5,0l-2.5,0
		L45.2,15c-0.4,0.2-0.7,0.4-0.8,0.6c-0.2,0.4-0.5,1.1-0.5,1.5v0.2l3.3,0l3.3,0v2l-3.3,0l-3.3,0v0.2c0,0.1,0.1,0.4,0.1,0.7
		c0.2,0.7,0.7,1.2,1.3,1.5c0.5,0.2,0.7,0.2,3,0.2l2.5,0v2.1l-2.9,0C46.4,24.1,44.8,24.1,44.6,24.1L44.6,24.1z M70.6,24
		c-0.3-0.1-0.8-0.3-1-0.4c-0.5-0.3-1.2-1-1.5-1.5c-0.4-0.9-0.4-1.3-0.4-5.6l0-4.1h0.9c0.8,0,1,0,1.2,0.2c0.6,0.4,0.6,0.2,0.6,4.3
		l0,3.7l0.2,0.4c0.2,0.3,0.3,0.5,0.7,0.6C71.8,22,71.9,22,74,22l2.1,0v2.1l-2.4,0C71.5,24.1,71.1,24.1,70.6,24L70.6,24z M77.8,18.7
		c0-5.2,0-5.5,0.2-5.7c0.3-0.4,0.6-0.5,1.6-0.6l0.9,0v5.4c0,6,0,5.8-0.6,6.1c-0.2,0.1-0.4,0.2-1.2,0.2l-0.9,0L77.8,18.7z M81.9,24.1
		c0-0.1,1.1-2.5,2.3-5.4c2.6-5.9,2.6-5.9,3.4-6.1c0.6-0.2,2.1-0.2,2.3,0c0.1,0.1,4.8,10.9,5,11.5c0.1,0.1,0,0.1-1.1,0.1
		c-1.7,0-2-0.2-2.7-1.7l-0.4-0.9l-2.4,0l-2.4,0L86,21.7c0,0.1-0.3,0.6-0.5,1c-0.3,0.6-0.5,0.9-0.8,1.1c-0.4,0.3-0.4,0.3-1.6,0.3
		C82.1,24.2,81.9,24.1,81.9,24.1L81.9,24.1z M90.2,19.3c-0.7-1.6-1.6-3.7-1.6-3.8c-0.1-0.1-0.7,1.4-1.6,3.6l-0.1,0.3h1.7
		C89.8,19.4,90.2,19.4,90.2,19.3z"/>
</g>
</svg>
