<?xml version="1.0" encoding="utf-8"?>
<!-- Generator: Adobe Illustrator 26.0.1, SVG Export Plug-In . SVG Version: 6.00 Build 0)  -->
<svg version="1.1" id="Layer_1" xmlns="http://www.w3.org/2000/svg" xmlns:xlink="http://www.w3.org/1999/xlink" x="0px" y="0px"
	 viewBox="0 0 95 35" style="enable-background:new 0 0 95 35;" xml:space="preserve">
<style type="text/css">
	.st0{fill:#CCCCCC;}
</style>
<g>
	<rect x="17.6" y="15.4" class="st0" width="3.5" height="11.7"/>
	<rect x="17.7" y="10.6" class="st0" width="3.5" height="3.2"/>
	<rect x="91.5" y="15.4" class="st0" width="3.5" height="11.7"/>
	<rect x="91.5" y="10.6" class="st0" width="3.5" height="3.2"/>
	<g>
		<path class="st0" d="M64.2,18c2.2,0,3.8,1,3.7,3v6.2h3.5v-6.3c0-1.4-0.4-2.5-1.3-3.6c-1.3-1.4-3.2-2.2-5.9-2.2
			c-2.6,0-4.6,0.8-5.9,2.2c-0.9,1-1.4,2.1-1.3,3.6v6.3h3.5V21C60.4,19,62,18,64.2,18"/>
		<polygon class="st0" points="12.3,15.4 8.2,24.1 3.9,15.4 0,15.4 6,27.1 10.3,27.1 16.2,15.4 		"/>
		<polygon class="st0" points="35,15.4 30.9,24.1 26.6,15.4 22.7,15.4 28.7,27.1 33,27.1 38.9,15.4 		"/>
		<path class="st0" d="M45.1,24.1c-0.4-0.1-1.1-0.2-1.7-0.7l11.3-2.2c0-0.5-0.1-1-0.3-1.6c-0.2-0.8-1.6-4.7-7.8-4.5
			c-2.4,0.1-4.3,0.8-5.6,2c-1.2,1.1-1.9,2.6-1.9,4.3c0,1.7,0.8,3.2,2.3,4.3c1.4,1,3.3,1.5,5.8,1.5h6.5v-2.9h-6.3
			C46.5,24.3,45.7,24.2,45.1,24.1 M47,17.8c2.1,0,3.2,0.8,3.6,1.6L42.4,21c0.1-0.6,0.3-1.3,0.8-1.7C44,18.3,45.3,17.8,47,17.8"/>
		<path class="st0" d="M85.3,7.5v7.7l-3.8,0c-1.2,0-4.3,0.2-6.3,2.1c-1.1,1-1.6,2.4-1.6,4.1c0,1.4,0.5,2.8,1.5,3.8
			c1.4,1.5,3.5,2.3,5.9,2.3c2.6,0,4.7-0.7,6-2c1.2-1.2,1.8-2.8,1.8-4.8V7.5L85.3,7.5L85.3,7.5z M85.3,20.8c0,1.8-0.9,3.7-4.2,3.7
			c-1.4,0-2.6-0.3-3.4-1.2c-0.4-0.5-0.6-1-0.7-1.6c0-1,0.4-1.8,1-2.4c0.8-0.7,2.1-1.1,3.5-1.1h3.8L85.3,20.8L85.3,20.8z"/>
	</g>
</g>
</svg>
