<?xml version="1.0" encoding="utf-8"?>
<!-- Generator: Adobe Illustrator 26.0.1, SVG Export Plug-In . SVG Version: 6.00 Build 0)  -->
<svg version="1.1" id="Layer_1" xmlns="http://www.w3.org/2000/svg" xmlns:xlink="http://www.w3.org/1999/xlink" x="0px" y="0px"
	 viewBox="0 0 95 35" style="enable-background:new 0 0 95 35;" xml:space="preserve">
<style type="text/css">
	.st0{fill:#343741;}
</style>
<g>
	<path class="st0" d="M55,5.8h-1.9v4.7c-0.7-0.6-1.6-1-3.2-1c-2.6,0-5.2,1.7-5.2,6.5c0,1.5,0.3,2.7,0.8,3.6
		c-0.4,0.1-0.8,0.2-1.2,0.2c-1,0-1.6-0.3-1.6-1.6v-3.1l0,0V7.7c0-1.6-0.2-1.9-1.3-1.9h-1.8v9.3v3.2v0.4c0,2.8,1.3,3.4,3.1,3.4
		c1.4,0,2.8-0.5,3.8-1.1c0.8,0.7,1.9,1.1,3.1,1.1c1.6,0,2.8-0.7,3.6-1.6c0.1,1.1,0.4,1.4,1,1.4h2.1V7.7C56.3,6.1,56.1,5.8,55,5.8
		 M53.1,18.6c-0.9,0.7-1.5,1.1-2.5,1.1c-1.6,0-2.4-1.1-2.4-3.9c0-3.1,1.4-3.8,2.8-3.8c0.9,0,1.6,0.2,2.2,0.6V18.6z"/>
	<path class="st0" d="M34.4,11.2c-0.1-1.2-0.5-1.4-1-1.4h-2.1v12.2h3.2v-8.9c0.6-0.3,1.8-0.7,3.5-0.7h0.6V9.7
		c-0.2-0.1-0.5-0.1-0.7-0.1C36.3,9.6,35.2,10.3,34.4,11.2"/>
	<path class="st0" d="M66.2,9.1c1,0,1.8-0.8,1.8-1.8c0-1-0.8-1.8-1.8-1.8c-1,0-1.9,0.8-1.9,1.8C64.3,8.3,65.2,9.1,66.2,9.1"/>
	<path class="st0" d="M24,22.2L24,22.2c3.5,0,6.4-2.8,6.4-6.4c0-2.6-1.6-4.9-3.9-5.9l0,0c-0.8-0.3-1.6-0.5-2.5-0.5
		c-0.2,0-0.4,0-0.7,0c-0.8,1-1.2,2.3-1.2,3.8c0,2.6,1.6,4.9,3.9,5.9c-0.6,0.4-1.3,0.6-2,0.6c-2,0-3.7-1.8-3.7-3.9
		c0-0.9,0.3-1.8,0.8-2.5c0-1,0.3-2.8,0.9-3.6c-2.6,0.8-4.4,3.3-4.4,6.1C17.6,19.4,20.5,22.2,24,22.2 M24.8,13.3
		c0-0.4,0.1-0.8,0.2-1.2c1.6,0.5,2.7,2,2.7,3.8c0,0.4-0.1,0.8-0.2,1.2C25.9,16.6,24.8,15.1,24.8,13.3"/>
	<path class="st0" d="M95,15.6c0-4-1.9-6-5.5-6c-3.4,0-6,2.4-6,6.4c0,1.5,0.3,2.7,0.9,3.7c-0.4,0.1-0.9,0.2-1.4,0.2
		c-0.9,0-1.4-0.3-1.5-1.1v-5.9c0-2.8-1.5-3.4-3.3-3.4c-1.6,0-3.1,0.7-4.2,1.5c-0.1-1.1-0.5-1.2-1-1.2h-2.1v9.4
		c-0.5,0.2-1,0.3-1.5,0.3c-1,0-1.5-0.3-1.6-1.5v-6c0-1.9-0.2-2.2-1.3-2.2h-1.9v5v3.5v0v1.2c-0.5,0.2-1,0.3-1.6,0.3
		c-1,0-1.6-0.3-1.6-1.6V7.7c0-1.6-0.2-1.9-1.3-1.9h-1.8v9.4v3.1v0.4c0,2.7,1.3,3.4,3.1,3.4c1.4,0,2.9-0.5,4-1.2
		c0.6,0.6,1.4,0.8,2.3,0.8c1.1,0,2.2-0.3,3.2-0.7v0.9h3.2v-9.2c0.8-0.3,1.7-0.6,2.8-0.6s1.5,0.3,1.5,1.6v1.4l0,0v3.5
		c0,2.7,1.3,3.4,3.1,3.4c1.5,0,3-0.5,4.1-1.3c1,0.8,2.4,1.3,4.1,1.3c2.5,0,3.8-0.6,4.8-1.2v-2.2h-1c-0.8,0.6-1.9,1-3.2,1
		c-1.9,0-3.1-0.7-3.2-3.1H95C95,16.5,95,16,95,15.6 M87.1,14.5c0.3-2.3,1.2-2.9,2.4-2.9c1.3,0,2.1,0.7,2.2,2.9H87.1z"/>
	<path class="st0" d="M1.3,12.4L4.1,22h2.7l2.3-7.8l2.3,7.8H14l2.8-9.6c0.1-0.3,0.3-0.5,0.6-0.5h0.7V9.8H13v2.1h0.8
		c0.2,0,0.4,0,0.5,0.1c0.1,0.1,0.1,0.3,0,0.8l-1.4,5l-2.3-8H8.1l-2.3,8l-1.6-5.9h1.3V9.8H0v2.1h0.8C1,11.9,1.2,12.1,1.3,12.4"/>
	<path class="st0" d="M44.4,27.2c0,0.6,0.3,0.9,0.8,0.9c0.4,0,0.5-0.1,0.7-0.3h0.5v0.6c-0.3,0.2-0.6,0.3-1.2,0.3
		c-1.1,0-1.6-0.6-1.6-1.6c0-1,0.6-1.6,1.6-1.6c0.9,0,1.4,0.5,1.4,1.5c0,0.1,0,0.2,0,0.2L44.4,27.2L44.4,27.2z M44.4,26.7h1.2
		c0-0.5-0.2-0.7-0.5-0.7C44.7,25.9,44.5,26.2,44.4,26.7"/>
	<rect x="46.7" y="26.5" class="st0" width="1.4" height="0.6"/>
	<path class="st0" d="M48.3,29h0.2c0.1,0,0.1-0.1,0.1-0.1v-2.8c0-0.1-0.1-0.2-0.1-0.2h-0.2v-0.5h1c0.1,0,0.2,0.1,0.2,0.4
		c0.2-0.2,0.5-0.4,0.9-0.4c0.6,0,1.2,0.4,1.2,1.5c0,1.1-0.7,1.6-1.3,1.6c-0.3,0-0.6-0.1-0.8-0.2V29h0.4v0.5h-1.6V29z M49.5,26.1v1.7
		c0.1,0.1,0.3,0.1,0.5,0.1c0.3,0,0.7-0.2,0.7-1c0-0.8-0.3-1-0.7-1C49.9,26,49.7,26.1,49.5,26.1"/>
	<path class="st0" d="M51.7,27.7c0-0.6,0.5-0.9,1.2-0.9c0.3,0,0.4,0,0.6,0.1v-0.3c0-0.3-0.2-0.5-0.5-0.5c-0.4,0-0.6,0.1-0.7,0.3
		h-0.4v-0.6c0.3-0.1,0.7-0.2,1.3-0.2c0.8,0,1.2,0.3,1.2,1v1.5c0,0.1,0.1,0.1,0.1,0.1h0.2v0.4c-0.1,0.1-0.3,0.1-0.5,0.1
		c-0.4,0-0.5-0.1-0.6-0.4c-0.2,0.3-0.5,0.4-0.9,0.4C52.2,28.6,51.7,28.3,51.7,27.7 M53.6,27.9v-0.7c-0.1,0-0.3,0-0.5,0
		c-0.3,0-0.6,0.1-0.6,0.5c0,0.3,0.2,0.5,0.5,0.5C53.3,28.1,53.4,28,53.6,27.9"/>
	<path class="st0" d="M55.3,29.5V29c0.3-0.1,0.6-0.3,0.8-0.5l-1-2.4c0-0.1-0.1-0.2-0.2-0.2h-0.1v-0.5h1.5V26h-0.4l0.7,1.6l0.5-1.2
		c0.1-0.2,0.1-0.4-0.1-0.4h-0.1v-0.5h1.4V26h-0.1c-0.1,0-0.2,0.1-0.2,0.2l-1,2.3c-0.2,0.5-0.6,0.9-0.8,1.1L55.3,29.5L55.3,29.5z"/>
	<path class="st0" d="M58.3,28.1h0.2c0.1,0,0.1-0.1,0.1-0.1v-1.8c0-0.1-0.1-0.2-0.1-0.2h-0.2v-0.5h1c0.1,0,0.2,0.1,0.2,0.4
		c0.3-0.2,0.6-0.5,1.1-0.5c0.3,0,0.6,0.1,0.7,0.5c0.3-0.2,0.6-0.5,1.1-0.5c0.4,0,0.8,0.2,0.8,0.8v1.7c0,0.1,0.1,0.1,0.1,0.1h0.2v0.5
		h-1.5v-0.5h0.3v-1.6c0-0.3-0.1-0.4-0.4-0.4c-0.2,0-0.5,0-0.6,0.1v1.9h0.3v0.5h-1.5v-0.5h0.3v-1.6c0-0.3-0.1-0.4-0.4-0.4
		c-0.2,0-0.5,0-0.6,0.1v1.9h0.3v0.5h-1.6L58.3,28.1L58.3,28.1z"/>
	<path class="st0" d="M64.6,27.2c0,0.6,0.3,0.9,0.8,0.9c0.4,0,0.5-0.1,0.7-0.3h0.5v0.6c-0.3,0.2-0.6,0.3-1.2,0.3
		c-1.1,0-1.6-0.6-1.6-1.6c0-1,0.6-1.6,1.6-1.6c0.9,0,1.4,0.5,1.4,1.5c0,0.1,0,0.2,0,0.2L64.6,27.2L64.6,27.2z M64.6,26.7h1.2
		c0-0.5-0.2-0.7-0.6-0.7C64.9,25.9,64.7,26.2,64.6,26.7"/>
	<path class="st0" d="M66.8,28.1H67c0.1,0,0.1-0.1,0.1-0.1v-1.8c0-0.1-0.1-0.2-0.1-0.2h-0.2v-0.5h1c0.1,0,0.2,0.1,0.2,0.4
		c0.3-0.3,0.7-0.4,1.1-0.4c0.4,0,0.8,0.2,0.8,0.8v1.7c0,0.1,0.1,0.1,0.1,0.1h0.2v0.5h-1.5v-0.5h0.3v-1.6c0-0.3-0.1-0.4-0.4-0.4
		c-0.3,0-0.5,0-0.7,0.1V28h0.4v0.5h-1.6L66.8,28.1L66.8,28.1z"/>
	<path class="st0" d="M70.3,25.5h0.4v-0.8h0.9v0.8h0.6V26h-0.6v1.7c0,0.3,0.1,0.4,0.4,0.4h0.2v0.5c-0.1,0-0.3,0.1-0.6,0.1
		c-0.6,0-1-0.2-1-0.8V26h-0.4L70.3,25.5L70.3,25.5z"/>
	<path class="st0" d="M73.3,28.4v-0.7h0.5c0.1,0.2,0.3,0.3,0.6,0.3c0.3,0,0.5-0.1,0.5-0.4c0-0.2-0.1-0.3-0.6-0.4
		c-0.7-0.1-1-0.3-1-0.9s0.5-1,1.3-1c0.5,0,0.8,0,1.1,0.1v0.7h-0.5c-0.1-0.2-0.3-0.3-0.6-0.3c-0.3,0-0.5,0.1-0.5,0.3
		c0,0.2,0.1,0.3,0.6,0.4c0.7,0.1,1,0.3,1,0.9c0,0.6-0.4,1-1.3,1C73.9,28.6,73.6,28.5,73.3,28.4"/>
	<path class="st0" d="M76.8,27.2c0,0.6,0.3,0.9,0.8,0.9c0.4,0,0.5-0.1,0.7-0.3h0.5v0.6c-0.3,0.2-0.6,0.3-1.2,0.3
		c-1.1,0-1.6-0.6-1.6-1.6c0-1,0.6-1.6,1.6-1.6c0.9,0,1.4,0.5,1.4,1.5c0,0.1,0,0.2,0,0.2L76.8,27.2L76.8,27.2z M76.8,26.7H78
		c0-0.5-0.2-0.7-0.5-0.7C77.1,25.9,76.9,26.2,76.8,26.7"/>
	<path class="st0" d="M79,28.1h0.2c0.1,0,0.1-0.1,0.1-0.1v-1.8c0-0.1-0.1-0.2-0.1-0.2H79v-0.5h1c0.1,0,0.2,0.1,0.2,0.4
		c0.2-0.3,0.4-0.5,0.9-0.5c0.1,0,0.1,0,0.2,0v0.6h-0.1c-0.4,0-0.7,0.1-0.9,0.2v1.8h0.4v0.5H79V28.1z"/>
	<path class="st0" d="M81.7,26.1c0-0.1-0.1-0.2-0.2-0.2h-0.1v-0.5h1.5V26h-0.4l0.6,1.8h0l0.5-1.4c0.1-0.2,0.1-0.4-0.2-0.4h-0.1v-0.5
		h1.3V26h-0.1c-0.1,0-0.2,0.1-0.2,0.2l-1,2.4h-0.7L81.7,26.1z"/>
	<path class="st0" d="M84.8,28.1H85c0.1,0,0.1-0.1,0.1-0.1v-1.8c0-0.1-0.1-0.2-0.1-0.2h-0.3v-0.5h1.1c0.1,0,0.1,0.1,0.1,0.3v2.1
		c0,0.1,0.1,0.1,0.1,0.1h0.2v0.5h-1.6L84.8,28.1L84.8,28.1z M85.1,24.8c0-0.3,0.2-0.5,0.5-0.5c0.3,0,0.5,0.2,0.5,0.5
		s-0.2,0.5-0.5,0.5C85.3,25.2,85.1,25,85.1,24.8"/>
	<path class="st0" d="M86.5,27c0-1,0.6-1.6,1.6-1.6c0.5,0,0.8,0.1,1,0.2v0.7h-0.5c-0.1-0.2-0.2-0.3-0.5-0.3c-0.5,0-0.7,0.3-0.7,1.1
		s0.2,1,0.7,1c0.4,0,0.5-0.2,0.7-0.3h0.4v0.6c-0.2,0.1-0.6,0.3-1.1,0.3C87,28.6,86.5,28,86.5,27"/>
	<path class="st0" d="M90.3,27.2c0,0.6,0.3,0.9,0.8,0.9c0.4,0,0.5-0.1,0.7-0.3h0.5v0.6c-0.3,0.2-0.6,0.3-1.2,0.3
		c-1.1,0-1.6-0.6-1.6-1.6c0-1,0.6-1.6,1.6-1.6c0.9,0,1.4,0.5,1.4,1.5c0,0.1,0,0.2,0,0.2L90.3,27.2L90.3,27.2z M90.3,26.7h1.2
		c0-0.5-0.2-0.7-0.6-0.7C90.6,25.9,90.4,26.2,90.3,26.7"/>
	<path class="st0" d="M92.5,28.4v-0.7H93c0.1,0.2,0.3,0.3,0.6,0.3c0.3,0,0.5-0.1,0.5-0.4c0-0.2-0.1-0.3-0.6-0.4
		c-0.7-0.1-1-0.3-1-0.9s0.5-1,1.3-1c0.5,0,0.8,0,1.1,0.1v0.7h-0.5c-0.1-0.2-0.3-0.3-0.6-0.3c-0.3,0-0.5,0.1-0.5,0.3
		c0,0.2,0.1,0.3,0.6,0.4c0.7,0.1,1,0.3,1,0.9c0,0.6-0.4,1-1.3,1C93.1,28.6,92.8,28.5,92.5,28.4"/>
</g>
</svg>
