<?xml version="1.0" encoding="utf-8"?>
<!-- Generator: Adobe Illustrator 26.0.1, SVG Export Plug-In . SVG Version: 6.00 Build 0)  -->
<svg version="1.1" id="Layer_1" xmlns="http://www.w3.org/2000/svg" xmlns:xlink="http://www.w3.org/1999/xlink" x="0px" y="0px"
	 viewBox="0 0 95 35" style="enable-background:new 0 0 95 35;" xml:space="preserve">
<style type="text/css">
	.st0{fill:#FFFFFF;}
</style>
<g>
	<path class="st0" d="M51.6,35h2.1c6.4-0.3,10.8-5.3,10.8-11.2c0-2-0.4-4-1.4-5.6H51.6V35z"/>
	<rect x="40" y="18" class="st0" width="10.6" height="17"/>
	<path class="st0" d="M62.6,17c-1.1-1.5-2.5-2.7-4.1-3.5c1.9-1.4,3.2-3.6,3.2-6c0-4.1-3.3-7.4-7.4-7.4h-2.5v17H62.6z"/>
	<rect x="40" class="st0" width="10.6" height="17"/>
	<path class="st0" d="M80.3,35h2.1c6.4-0.3,10.8-5.3,10.8-11.2c0-2-0.4-4-1.4-5.6H80.3V35z"/>
	<rect x="68.6" y="18" class="st0" width="10.6" height="17"/>
	<path class="st0" d="M91.2,17c-1.1-1.5-2.5-2.7-4.1-3.5c1.9-1.4,3.2-3.6,3.2-6C90.2,3.3,87,0,82.8,0h-2.5v17H91.2z"/>
	<rect x="68.6" class="st0" width="10.6" height="17"/>
	<polygon class="st0" points="7.8,18 1.8,35 10.6,35 13.1,27.6 18.8,27.6 18.8,18 	"/>
	<polygon class="st0" points="18.8,0 14.2,0 8.2,17 18.8,17 	"/>
	<polygon class="st0" points="19.8,27.6 25.4,27.6 28,35 36.8,35 30.7,18 19.8,18 	"/>
	<polygon class="st0" points="30.4,17 24.4,0 19.8,0 19.8,17 	"/>
</g>
</svg>
