<?xml version="1.0" encoding="utf-8"?>
<!-- Generator: Adobe Illustrator 26.0.1, SVG Export Plug-In . SVG Version: 6.00 Build 0)  -->
<svg version="1.1" id="Layer_1" xmlns="http://www.w3.org/2000/svg" xmlns:xlink="http://www.w3.org/1999/xlink" x="0px" y="0px"
	 viewBox="0 0 95 35" style="enable-background:new 0 0 95 35;" xml:space="preserve">
<style type="text/css">
	.st0{fill:#343741;}
</style>
<g transform="translate(0.000000,700.000000) scale(0.100000,-0.100000)">
	<path class="st0" d="M287.4,6998.7c-19.9-3.6-35.9-16.5-43.8-35.4c-3.5-8.1-4.9-15.9-4.9-26.5c-0.1-30,17.1-54.2,43.6-61.2
		c6.8-1.9,19.2-2.4,25.9-1.3c11.3,1.9,21.5,7.5,27.3,14.8l3.1,4l0.2-7.9l0.2-7.9l14-0.2l14-0.2v59.6v59.6h-14.2h-14.2v-8.3v-8.2
		l-2.4,3.2c-5.5,7.7-16.2,14-27.1,16.1C301.5,7000.2,295.7,7000.2,287.4,6998.7z M319.3,6969.7c9.7-4.7,16.1-12.8,18.9-23.8
		c1.6-6.2,1.5-11-0.4-18.5c-1.9-7.3-4.5-12.2-9.5-17.5c-10.6-11.4-32.4-13.1-46.1-3.6c-20.2,13.9-20.2,47,0,60.8
		c7.2,4.9,11.5,6.2,22,5.9C312.7,6972.8,313.5,6972.7,319.3,6969.7z"/>
	<path class="st0" d="M435.4,6998.9c-7.8-1.8-15.8-6.4-21-12.1l-4.4-4.9v7v7.1h-13h-13v-59.6v-59.6l14,0.2l14,0.2l0.4,38.1
		c0.4,37.8,0.4,38.2,2.4,43c4.1,10.2,13.1,15.7,24.1,14.8c9.6-0.9,16.4-6,19.5-14.6c1.4-3.8,1.5-7.7,1.8-42.5l0.2-38.4h14.1h14.1
		l0.2,38.4c0.3,44,0.2,43.1,7.5,50.5c4.6,4.8,9.8,6.8,17.1,6.8c9.9,0,16.1-4.1,20.4-13.4l2.3-4.9l0.4-38.9l0.4-38.9l14-0.2l14-0.2
		v41.1c-0.1,45.7-0.4,50.1-4.9,59.2c-3.5,7-11.2,14.8-18.1,18c-5.8,2.8-15.3,4.9-21.5,4.9c-14.1-0.1-28.7-7.6-36.2-18.8l-2.7-3.9
		l-3.8,5.7c-4.9,7.1-11.7,12.3-19,14.6C451.8,6999.8,441.9,7000.3,435.4,6998.9z"/>
	<path class="st0" d="M583.3,6994.5c-1.8-1.9-1.7-3.6,0.1-5.3c1.9-1.8,3.7-1.7,5.3,0.1c1.8,1.9,1.7,3.7-0.1,5.3
		C586.7,6996.4,585,6996.3,583.3,6994.5z"/>
	<path class="st0" d="M592.3,6994.2c-2.4-3.4,1-7.5,4.7-5.8c2.8,1.3,3.4,4.2,1.2,6C595.8,6996.4,593.7,6996.4,592.3,6994.2z"/>
	<path class="st0" d="M602.8,6994.5c-1.9-2.1-1.7-4,0.6-5.5c2.4-1.6,4.1-1.1,5.4,1.7c0.7,1.7,0.6,2.3-0.6,3.7
		C606.4,6996.4,604.5,6996.4,602.8,6994.5z"/>
	<path class="st0" d="M632.7,6994.6c-1.8-1.7-1.6-3.8,0.4-5.7c1.5-1.4,1.9-1.4,3.8-0.2c2.7,1.5,3.3,4.7,1.3,6.2
		C636.3,6996.3,634.3,6996.2,632.7,6994.6z"/>
	<path class="st0" d="M643.3,6994.7c-1.7-1.8-1.6-3.9,0.2-5.6c2-1.9,4.2-1.4,5.5,1.1C650.9,6994.1,646.3,6997.7,643.3,6994.7z"/>
	<path class="st0" d="M653,6994.2c-0.9-1.3-1-2.2-0.3-3.7c1.9-4,7.1-3,7.1,1.3C659.8,6995.8,655.2,6997.4,653,6994.2z"/>
	<path class="st0" d="M663.2,6995c-2-2-0.3-7.1,2.4-7.1c2.2,0,4,1.8,4,4.1C669.6,6995.3,665.5,6997.2,663.2,6995z"/>
	<path class="st0" d="M673.3,6994.6c-1.8-1.7-1.6-3.8,0.3-5.6c2.4-2.2,5.7-0.6,5.7,2.8C679.3,6995.5,675.7,6997.2,673.3,6994.6z"/>
	<path class="st0" d="M683,6994.7c-2.6-2.6-0.5-7.2,3-6.7c1,0.2,2.2,1.1,2.8,2.3C690.6,6994.1,686,6997.7,683,6994.7z"/>
	<path class="st0" d="M692.8,6994.2c-2.4-3.4,1-7.5,4.8-5.7c1.5,0.6,1.9,1.5,1.9,3.2C699.6,6995.8,695,6997.4,692.8,6994.2z"/>
	<path class="st0" d="M703.1,6994.2c-1.4-1.5-1.4-1.9-0.2-3.8c1.5-2.7,3.6-3.2,5.7-1.3c1.9,1.8,1.9,3.7,0.1,5.4
		C706.6,6996.4,705,6996.3,703.1,6994.2z"/>
	<path class="st0" d="M602.8,6984.8c-1.8-1.9-1.7-3.7,0.2-5.4c2.1-1.9,4.2-1.4,5.8,1.4c1.1,2.2,1.1,2.4-0.7,3.9
		C605.6,6986.6,604.5,6986.6,602.8,6984.8z"/>
	<path class="st0" d="M643.2,6984.6c-1.9-2.2-1.1-5.5,1.8-6.2c1.6-0.4,2.5-0.2,3.7,1.3c1.9,2.3,1.9,2.8-0.2,4.9
		C646.4,6986.6,645.1,6986.6,643.2,6984.6z"/>
	<path class="st0" d="M682.9,6984.6c-1.9-2.1-1.1-5.5,1.6-6.2c3.8-1,6.3,3.5,3.6,6.2C686.2,6986.6,684.8,6986.6,682.9,6984.6z"/>
	<path class="st0" d="M582.8,6984.3c-1.2-1.5-0.7-4.5,0.9-5.6c1.8-1.1,5.4-0.1,5.8,1.7c0.7,2.8-0.7,5-3.2,5
		C584.9,6985.4,583.3,6984.8,582.8,6984.3z"/>
	<path class="st0" d="M592.2,6983.6c-2.2-3.1,1.4-6.9,4.9-5.3c2.3,1.1,3.1,3.2,1.9,5.4C597.8,6986,593.8,6986,592.2,6983.6z"/>
	<path class="st0" d="M632.2,6984.2c-1.3-1.5-0.4-4.9,1.5-6c3.4-1.8,7.5,3.1,5,6.1C637.4,6985.7,633.5,6985.7,632.2,6984.2z"/>
	<path class="st0" d="M653,6983.6c-1.1-1.5-1.1-2-0.2-3.5c2.1-3.2,7-2.2,7,1.5C659.8,6985.5,655.2,6986.8,653,6983.6z"/>
	<path class="st0" d="M663.2,6984.4c-2.8-2.8,0.6-7.9,4.5-6.1c1.6,0.7,1.9,1.4,1.7,3.7c-0.2,2.6-0.5,2.9-2.7,3.2
		C665.3,6985.4,663.8,6985,663.2,6984.4z"/>
	<path class="st0" d="M673,6984.4c-2.8-2.8,0.6-7.9,4.5-6.1c1.6,0.7,1.9,1.4,1.7,3.7c-0.2,2.6-0.5,2.9-2.7,3.2
		C675.1,6985.4,673.5,6985,673,6984.4z"/>
	<path class="st0" d="M692.8,6983.7c-1.1-1.6-1.1-2.1-0.2-3.6c1.3-2,4.7-2.5,6.1-0.9c0.6,0.6,0.9,2.2,0.7,3.5
		c-0.2,1.9-0.6,2.4-2.8,2.5C694.7,6985.4,693.7,6985,692.8,6983.7z"/>
	<path class="st0" d="M702.7,6983.7c-0.6-1.3-0.6-2.3,0-3.7c0.7-1.5,1.4-1.9,3.5-1.7c3.2,0.3,4.5,2.3,3.2,5
		C708.2,6986,704.1,6986.3,702.7,6983.7z"/>
	<path class="st0" d="M582.9,6974.7c-2.6-2.6,0.4-7.5,4-6.6c2.8,0.7,3.6,5.3,1.2,6.9C586.7,6976,584,6975.7,582.9,6974.7z"/>
	<path class="st0" d="M592.7,6974.7c-2.6-2.6,0.4-7.5,4-6.6c2.4,0.6,3.6,3.6,2.4,5.8C598,6975.8,594.3,6976.3,592.7,6974.7z"/>
	<path class="st0" d="M602.9,6974.8c-2.8-1.5-0.8-7.2,2.4-7.2c1.4,0,4.2,3,4.2,4.4C609.5,6974.9,605.7,6976.5,602.9,6974.8z"/>
	<path class="st0" d="M632.7,6974.4c-1.7-1.7-1.6-3.2,0.3-5.2c1.9-1.9,2.4-1.9,4.7-0.3c1.9,1.4,2.4,4.3,0.8,5.8
		C637.2,6976.1,634.2,6975.9,632.7,6974.4z"/>
	<path class="st0" d="M642.9,6974.7c-2.6-2.6,0.5-7.8,3.9-6.7c1,0.3,2,1.5,2.5,2.6c1,2.5,1,2.4-0.6,3.8
		C647.3,6975.9,644.3,6976.1,642.9,6974.7z"/>
	<path class="st0" d="M652.9,6974.4c-0.7-0.7-1.1-1.9-0.9-2.5c0.2-0.6,0.5-1.5,0.5-1.9c0-1.5,3.1-2.4,5.2-1.6
		c3.8,1.4,2.4,7.3-1.6,7.3C655,6975.7,653.7,6975.1,652.9,6974.4z"/>
	<path class="st0" d="M663.1,6974.5c-1.5-1.8-0.7-5.5,1.1-6.2c0.9-0.3,2.4-0.3,3.5,0.1c1.4,0.5,1.8,1.3,1.8,3.5
		c0,2.8-1.1,3.7-4.1,3.7C664.8,6975.7,663.6,6975.2,663.1,6974.5z"/>
	<path class="st0" d="M672.8,6974.5c-2.4-2.9,1.1-7.5,4.7-6.1c2,0.7,2.5,4.5,0.8,6.2C677,6976,674,6975.9,672.8,6974.5z"/>
	<path class="st0" d="M682.7,6974.7c-1.5-1.5-1.1-4.3,0.6-5.9c1.4-1.2,1.9-1.3,3.7-0.6c1.9,0.9,2.4,2.2,2,5
		C688.7,6975.6,684.6,6976.6,682.7,6974.7z"/>
	<path class="st0" d="M692.8,6974.4c-3.2-3.1,0.5-7.6,4.7-6c3.8,1.4,2.4,7.3-1.6,7.3C694.8,6975.7,693.4,6975.1,692.8,6974.4z"/>
	<path class="st0" d="M703.3,6974.6c-1.9-1.4-1.5-4.5,0.7-5.9c3.6-2.4,7.9,2.7,4.9,5.7C707.3,6975.9,705.2,6976.1,703.3,6974.6z"/>
	<path class="st0" d="M593.2,6964.4c-1.6-1.3-1.8-1.9-1.1-3.8c1-2.8,4.4-3.6,6.4-1.5c1.7,1.8,1.6,3.3-0.3,5.3
		C596.1,6966.3,595.6,6966.3,593.2,6964.4z"/>
	<path class="st0" d="M603.2,6964.6c-2.2-1.5-2.3-3.6-0.3-5.4c2-1.9,3.9-1.7,5.4,0.4c1.6,2.3,1.6,3.5,0,5
		C606.7,6966.3,605.5,6966.3,603.2,6964.6z"/>
	<path class="st0" d="M633.7,6965c-1.9-1.6-2.3-3.6-1-5.4c1.4-1.9,4.3-2.3,5.8-0.7c0.6,0.6,1,2,1,3.2c0,1.7-0.5,2.5-2.1,3.1
		C634.9,6966.1,635.2,6966.1,633.7,6965z"/>
	<path class="st0" d="M643.4,6965c-2.7-1.5-1-7.2,2.1-7.2c1.9,0,4,2.2,4,4.4C649.5,6965.6,646.6,6966.9,643.4,6965z"/>
	<path class="st0" d="M654.5,6965.1c-2.4-0.9-3-3.2-1.5-5.4c2.4-3.7,7.3-1.9,6.7,2.6C659.4,6964.9,657.1,6966,654.5,6965.1z"/>
	<path class="st0" d="M683.2,6965c-2.7-1.5-1-7.2,2.1-7.2c1.9,0,4,2.2,4,4.4C689.3,6965.6,686.3,6966.9,683.2,6965z"/>
	<path class="st0" d="M694.2,6965.1c-2.4-0.9-3-3.2-1.5-5.4c2.4-3.7,7.3-1.9,6.7,2.6C699.2,6964.9,696.8,6966,694.2,6965.1z"/>
	<path class="st0" d="M703.6,6964.3c-2-2-2-3.4,0-5.3c2.2-1.9,5.5-1.1,6.2,1.8c0.4,1.6,0.2,2.5-1.3,3.6
		C706.2,6966.3,705.6,6966.3,703.6,6964.3z"/>
	<path class="st0" d="M582.5,6964.6c-1-1-0.6-4.9,0.6-5.9c2.9-2.4,7.5,1.1,6.1,4.7c-0.5,1.4-1.3,1.8-3.4,1.8
		C584.2,6965.1,582.8,6964.9,582.5,6964.6z"/>
	<path class="st0" d="M582.9,6954.4c-2.3-2.3-0.6-6.3,2.7-6.3c2.6,0,3.9,1.2,3.9,3.7C589.5,6955.1,585.3,6956.8,582.9,6954.4z"/>
	<path class="st0" d="M592.5,6954.3c-1.2-1.5-0.7-4.5,0.9-5.6c0.7-0.4,2.3-0.6,3.4-0.2c4.2,1.1,3.4,7-1,7
		C594.5,6955.4,593.1,6954.8,592.5,6954.3z"/>
	<path class="st0" d="M602.2,6953.7c-0.7-1.3-0.6-2.1,0.4-3.7c2.2-3.3,6.9-2.2,6.9,1.7c0,2.4-1.5,3.6-4.2,3.6
		C603.9,6955.4,602.8,6954.8,602.2,6953.7z"/>
	<path class="st0" d="M632.2,6953.4c-1.1-2.7-0.2-4.4,2.3-5c2.5-0.6,4.5,0.6,4.9,2.9c0.4,2.5-1.2,4.1-4,4.1
		C633.6,6955.4,632.8,6954.9,632.2,6953.4z"/>
	<path class="st0" d="M642.8,6954.3c-1.2-1.5-0.7-4.5,0.9-5.6c1.6-1.1,5.3-0.2,5.9,1.5c0.2,0.6,0,2.1-0.5,3.2
		C648.1,6955.7,644.4,6956.2,642.8,6954.3z"/>
	<path class="st0" d="M652.7,6953.4c-0.6-1.5-0.6-2.3,0.3-3.6c2.2-3.1,6.8-1.8,6.8,1.9C659.8,6955.6,654.3,6956.9,652.7,6953.4z"/>
	<path class="st0" d="M682.5,6954.3c-1.2-1.5-0.7-4.5,0.9-5.6c1.6-1.1,5.3-0.2,5.9,1.5c0.2,0.6,0.1,2.1-0.3,3.2
		c-0.6,1.5-1.4,2-3.2,2C684.6,6955.4,683.1,6954.8,682.5,6954.3z"/>
	<path class="st0" d="M692.5,6953.6c-1.2-2.8,0.2-5.5,3-5.5c2.5,0,4.1,1.4,4.1,3.7C699.6,6955.6,694.1,6956.9,692.5,6953.6z"/>
	<path class="st0" d="M702.6,6953.3c-1.3-2.8,0-4.7,3.2-5c2.1-0.2,2.8,0.2,3.5,1.7c1.3,2.9-0.2,5.4-3.4,5.4
		C704.2,6955.4,703.4,6954.9,702.6,6953.3z"/>
	<path class="st0" d="M583.3,6944.4c-2.5-2.4-0.7-6.8,2.8-6.8c1.4,0,4.1,2.8,4.1,4.2c0,1.1-3.2,3.9-4.4,3.9
		C585,6945.7,583.9,6945.1,583.3,6944.4z"/>
	<path class="st0" d="M592.7,6944.7c-1.8-2.3-1.8-3.9-0.1-5.5c2.2-2,4.1-2,5.8-0.2c1.9,2,1.7,3.9-0.4,5.4
		C595.8,6945.9,593.8,6946,592.7,6944.7z"/>
	<path class="st0" d="M602.8,6944.2c-1.8-2-1.7-3.7,0.2-5.4c2.4-2.2,6-0.8,6.3,2.4C609.9,6945.2,605.5,6947.1,602.8,6944.2z"/>
	<path class="st0" d="M632.7,6944.4c-1.8-1.7-1.6-3.8,0.3-5.6c2.4-2.2,6-0.8,6.3,2.4C639.9,6945,635.5,6947.1,632.7,6944.4z"/>
	<path class="st0" d="M642.4,6943.7c-2.6-3.9,2.6-8.1,6.1-4.9c2,1.9,2,3.2,0,5.3C646.3,6946.2,643.9,6946.1,642.4,6943.7z"/>
	<path class="st0" d="M652.8,6943.6c-1.2-1.9-1.2-2.2,0-4.1c2.3-3.5,7-2.1,7,2S655.1,6947.1,652.8,6943.6z"/>
	<path class="st0" d="M683,6944.4c-2.4-2.4-0.7-6.8,2.7-6.8c1.6,0,4.1,2.4,4.1,3.9c0,1.4-3,4.2-4.4,4.2
		C684.8,6945.7,683.7,6945.1,683,6944.4z"/>
	<path class="st0" d="M692.8,6944.2c-1.8-2-1.7-3.7,0.2-5.4c2.4-2.2,6-0.8,6.3,2.4C699.9,6945.2,695.5,6947.1,692.8,6944.2z"/>
	<path class="st0" d="M703.5,6944.8c-3.5-1.9-0.2-7.9,3.7-6.9c3,0.7,3.7,4.3,1.3,6.3C706.5,6945.8,705.5,6946,703.5,6944.8z"/>
	<path class="st0" d="M582.9,6934.1c-2.6-2.6,0.4-7.5,4-6.6c2.8,0.7,3.6,5.3,1.2,6.9C586.7,6935.4,584,6935.2,582.9,6934.1z"/>
	<path class="st0" d="M591.9,6933c-1.4-2.1-1.3-2.2,0.8-4c2.5-2.2,5.2-1.9,6.4,0.8C601.3,6934.5,594.8,6937.4,591.9,6933z"/>
	<path class="st0" d="M602.2,6933.6c-1.1-2.3-1.1-3.1,0.7-4.9c2.3-2.3,6.1-1.2,6.4,1.9c0.2,1.2-0.2,2.8-0.7,3.4
		C607.3,6935.7,603.3,6935.4,602.2,6933.6z"/>
	<path class="st0" d="M632.3,6933.6c-1.4-2.4-1.1-4,1-5.3c2.4-1.6,5.4-0.8,6,1.8c0.6,2.8-0.6,4.5-3.7,4.9
		C633.9,6935.1,632.9,6934.8,632.3,6933.6z"/>
	<path class="st0" d="M642.5,6933.3c-2.9-4.1,3.5-8,6.7-4.1c1.3,1.7,1.2,3-0.3,4.5C647,6935.7,643.9,6935.4,642.5,6933.3z"/>
	<path class="st0" d="M653.6,6934.1c-1.8-2.3-1.8-3-0.2-4.9c1.3-1.7,2-1.9,3.9-1.5c4.1,1.1,3.2,7.4-1.1,7.4
		C655.2,6935.1,654,6934.6,653.6,6934.1z"/>
	<path class="st0" d="M682.7,6934.1c-2.6-2.6,0.4-7.5,4-6.6c2.4,0.6,3.6,3.7,2.4,5.8C688,6935.3,684.3,6935.8,682.7,6934.1z"/>
	<path class="st0" d="M692.3,6933.6c-1.1-2.3-1.1-3.1,0.7-4.9c2.3-2.3,6.1-1.2,6.4,1.9c0.2,1.2-0.2,2.8-0.7,3.4
		C697.3,6935.7,693.3,6935.4,692.3,6933.6z"/>
	<path class="st0" d="M702.8,6934c-1.3-1.7-0.7-4.5,1.2-5.8c2.1-1.4,5.6,0.2,5.9,2.7C710.4,6934.2,705.1,6936.7,702.8,6934z"/>
	<path class="st0" d="M582.9,6924.4c-2.1-2.1-0.2-7.1,2.6-7.1c1.4,0,3.4,1.7,4,3.3C590.6,6923.8,585.4,6926.8,582.9,6924.4z"/>
	<path class="st0" d="M592.2,6923.8c-2.8-3.1,1.5-7.8,5.2-5.8c3.6,1.9,2.1,7.3-2,7.3C594.4,6925.4,592.9,6924.6,592.2,6923.8z"/>
	<path class="st0" d="M602.7,6923.8c-1.9-2-1.1-4.8,1.7-5.8c2.8-1.1,5.1,0.4,5.1,3.3C609.5,6925.1,605.3,6926.7,602.7,6923.8z"/>
	<path class="st0" d="M632.9,6924.5c-2.1-1.2-1.8-4.5,0.5-6c3-1.9,6.2-0.2,6.2,3.4C639.5,6924.7,635.8,6926.2,632.9,6924.5z"/>
	<path class="st0" d="M643.4,6924.5c-3.7-2.1,0.4-8.4,4.1-6.5c2.4,1.3,2.9,4,1.2,5.8C647.2,6925.5,645.5,6925.8,643.4,6924.5z"/>
	<path class="st0" d="M653,6923.8c-2.2-2.4,0.1-6.6,3.6-6.6c1.4,0,3.2,2.6,3.2,4.5C659.8,6925.1,655.4,6926.5,653,6923.8z"/>
	<path class="st0" d="M683.2,6924.5c-3.7-2.1,0.4-8.4,4.1-6.5c2.3,1.2,2.8,3.2,1.4,5.4C687.3,6925.5,685.5,6925.9,683.2,6924.5z"/>
	<path class="st0" d="M692.8,6923.9c-2.7-2.9,0.9-7.6,4.6-6.2c1.6,0.6,2.6,4.2,1.5,5.9C697.8,6925.6,694.5,6925.7,692.8,6923.9z"/>
	<path class="st0" d="M703.5,6924.5c-3.7-2.1,0.4-8.4,4.1-6.5c2.4,1.3,2.9,4,1.2,5.8C707.3,6925.5,705.6,6925.8,703.5,6924.5z"/>
	<path class="st0" d="M583.7,6914.3c-1.9-1.4-2.3-4.3-0.7-5.8c1.7-1.7,5.5-1.2,6.2,0.9C590.6,6913.4,587,6916.6,583.7,6914.3z"/>
	<path class="st0" d="M594,6915.1c-0.7-0.2-1.8-1.3-2.3-2.4c-0.8-1.7-0.7-2.4,0.4-3.6c2.1-2.4,5.8-2,6.8,0.6
		C600.4,6913.1,597.9,6915.9,594,6915.1z"/>
	<path class="st0" d="M633.2,6914.3c-3.3-2.4-1.9-6.8,2.3-6.8c2.6,0,4.1,1.4,4.1,3.7c0,1.6-2.6,4.4-4.1,4.4
		C635.2,6915.6,634.2,6915.1,633.2,6914.3z"/>
	<path class="st0" d="M644.3,6914.5c-3.9-1.9-2.6-7,1.8-7c2.8,0,4.3,2.3,3.2,5.1C648.4,6915.2,646.8,6915.7,644.3,6914.5z"/>
	<path class="st0" d="M654.5,6914.8c-2.4-1-3-3.2-1.5-5.4c1.4-2.2,4.5-2.6,6.1-0.8C661.4,6911.6,658,6916.2,654.5,6914.8z"/>
	<path class="st0" d="M684,6914.7c-1.7-0.6-2.3-1.3-2.3-3c0-2.8,1.4-4.1,4.2-4.1c1.6,0,2.5,0.5,3,1.8
		C690.4,6913.3,687.9,6916,684,6914.7z"/>
	<path class="st0" d="M694.2,6914.8c-2.4-0.9-3-3.2-1.5-5.4c2.4-3.7,7.3-1.9,6.7,2.6C699.2,6914.6,696.8,6915.7,694.2,6914.8z"/>
	<path class="st0" d="M704.7,6914.8c-2.5-0.9-3.4-4.7-1.5-6.2c2.4-1.7,5.2-1.3,6.2,0.9C711,6913,708.2,6916.1,704.7,6914.8z"/>
	<path class="st0" d="M602.2,6913.1c-0.7-1.3-0.6-2.1,0.4-3.6c2.2-3.3,6.9-2.2,6.9,1.7c0,2.4-1.5,3.6-4.2,3.6
		C603.9,6914.8,602.8,6914.3,602.2,6913.1z"/>
	<path class="st0" d="M582.9,6904.1c-1.3-1.3-1.2-4.3,0.2-5.4c1.8-1.5,5.5-0.7,6.2,1.2C590.6,6903.6,585.6,6906.8,582.9,6904.1z"/>
	<path class="st0" d="M592.2,6903.3c-1.6-2.3-1.6-2.7,0-4.2c1.8-1.9,5.8-1.6,6.8,0.2c1.1,2.2,1.1,3-0.5,4.5
		C596.7,6905.7,593.6,6905.4,592.2,6903.3z"/>
	<path class="st0" d="M602.9,6904.2c-1.7-1-1.9-4-0.5-5.4c0.6-0.6,1.9-1,3.2-1c2.8,0,4.2,2.3,3.1,5.2
		C607.9,6905.3,605.5,6905.7,602.9,6904.2z"/>
	<path class="st0" d="M612.9,6904.1c-0.6-0.6-1-1.7-1-2.7c0-2.4,1.5-3.6,4.1-3.6c2.5,0,3.7,2.1,2.8,5.4c-0.4,1.5-1.1,1.9-2.8,1.9
		C615,6905.1,613.5,6904.7,612.9,6904.1z"/>
	<path class="st0" d="M622.8,6904.5c-1.5-0.6-1.3-4.7,0.1-5.8c0.6-0.6,2.2-0.9,3.5-0.7c2.4,0.2,3.2,1.9,2.4,5.2
		c-0.4,1.5-1.1,1.9-2.8,1.9C624.7,6905,623.2,6904.8,622.8,6904.5z"/>
	<path class="st0" d="M632.4,6904.1c-0.6-0.6-1-1.7-1-2.7c0-2.3,1.5-3.6,4.1-3.6c2.5,0,4.1,1.4,4.1,3.6c0,2.3-1.5,3.7-4.1,3.7
		C634.4,6905.1,633,6904.7,632.4,6904.1z"/>
	<path class="st0" d="M642.9,6904.1c-0.6-0.6-1-1.7-1-2.7c0-2.4,1.5-3.6,4.2-3.6c2.8,0,4.2,2.3,3.1,5.2c-0.6,1.6-1.4,2.1-3.1,2.1
		C645,6905.1,643.5,6904.7,642.9,6904.1z"/>
	<path class="st0" d="M653,6903.3c-1.1-1.5-1.1-2-0.2-3.5c2.1-3.2,7-2.2,7,1.5C659.8,6905.2,655.2,6906.5,653,6903.3z"/>
	<path class="st0" d="M682.7,6904.1c-0.6-0.6-1-1.7-1-2.7c0-2.4,1.5-3.6,4.2-3.6c2.8,0,4.2,2.3,3.1,5.2c-0.6,1.6-1.4,2.1-3.1,2.1
		C684.7,6905.1,683.3,6904.7,682.7,6904.1z"/>
	<path class="st0" d="M692.8,6903.3c-1.1-1.5-1.1-2-0.2-3.5c2.1-3.2,7-2.2,7,1.5C699.6,6905.2,694.9,6906.5,692.8,6903.3z"/>
	<path class="st0" d="M702.6,6903c-1.2-2.7-0.1-4.7,3.1-5c3.7-0.5,5.7,3.3,3.1,5.8C706.8,6905.8,703.7,6905.4,702.6,6903z"/>
	<path class="st0" d="M583.3,6894.1c-2.6-2.6-1.1-6.8,2.4-6.8c3.3,0,5.1,4.1,2.8,6.5C586.5,6895.7,585,6895.8,583.3,6894.1z"/>
	<path class="st0" d="M593.6,6894.6c-2.4-1-3-3.2-1.5-5.4c1.6-2.5,4.8-2.5,6.4-0.2c1.6,2.4,1.6,2.8-0.3,4.7
		C596.4,6895.5,596.1,6895.6,593.6,6894.6z"/>
	<path class="st0" d="M602.6,6893.7c-1.6-1.8-1.1-5.4,0.8-6.2c2-0.7,5.1,0.5,5.7,2.3c0.6,2-1.5,5.6-3.6,5.6
		C604.7,6895.4,603.4,6894.6,602.6,6893.7z"/>
	<path class="st0" d="M613.4,6894.5c-1.7-1-1.9-4.8-0.5-6.2c0.6-0.6,1.7-1,2.7-1c2.3,0,3.7,1.5,3.7,4.1
		C619.3,6894.9,616.6,6896.3,613.4,6894.5z"/>
	<path class="st0" d="M623,6894.1c-2.6-2.5-1.1-6.8,2.4-6.8c2.3,0,3.7,1.5,3.7,4.1C629,6895.1,625.6,6896.7,623,6894.1z"/>
	<path class="st0" d="M633.1,6893.9c-1.5-1.2-1.8-2-1.3-3.7c0.6-2.5,2.1-3.3,4.9-2.6c2.9,0.7,3.7,4.4,1.2,6.3
		c-1,0.8-2.1,1.5-2.4,1.5S634,6894.7,633.1,6893.9z"/>
	<path class="st0" d="M643.4,6894.5c-3.1-1.8-0.9-7.6,2.5-7.1c2.9,0.4,4.3,3,3.1,5.5C647.9,6895.2,645.6,6895.8,643.4,6894.5z"/>
	<path class="st0" d="M654,6894.4c-1.9-1.6-2.3-3.6-1-5.4c1.4-1.9,4.3-2.3,5.8-0.7s1.2,5.4-0.6,6.3
		C656.3,6895.6,655.5,6895.6,654,6894.4z"/>
	<path class="st0" d="M683,6894.1c-1.6-1.6-1.7-4.8-0.2-6.1c1.7-1.3,4.5-0.7,5.8,1.2C691,6892.9,686,6897.1,683,6894.1z"/>
	<path class="st0" d="M693.7,6894.4c-1.9-1.6-2.3-3.6-1-5.4c1.4-1.9,4.3-2.3,5.8-0.7s1.2,5.4-0.6,6.3
		C696,6895.6,695.3,6895.6,693.7,6894.4z"/>
	<path class="st0" d="M703.6,6893.9c-1.5-1.2-1.8-2-1.3-3.7c0.6-2.5,2.1-3.3,4.9-2.6c2.9,0.7,3.7,4.4,1.2,6.3
		c-1,0.8-2.1,1.5-2.4,1.5C705.7,6895.4,704.6,6894.7,703.6,6893.9z"/>
	<path class="st0" d="M593.1,6883.4c-1.9-2.1-1.7-4,0.6-5.4c3.6-2.4,7.4,1.5,5.4,5.3C597.9,6885.2,594.9,6885.3,593.1,6883.4z"/>
	<path class="st0" d="M602.7,6883.5c-1.7-1.7-1.6-3.2,0.4-5.3c2.6-2.6,6.3-0.9,6.4,3C609.5,6884.7,605.2,6886.1,602.7,6883.5z"/>
	<path class="st0" d="M613.3,6883.5c-1.9-1.9-1.6-4.1,0.6-5.6c3.6-2.4,7.4,1.5,5.4,5.3C618.2,6885.1,615,6885.3,613.3,6883.5z"/>
	<path class="st0" d="M623.2,6883.9c-1.5-0.8-1.9-3.6-0.8-5.3c1.8-2.7,6.7-1.5,6.7,1.6C629,6884.6,626.7,6886,623.2,6883.9z"/>
	<path class="st0" d="M632.6,6883c-2.1-3.2,0.5-6.7,4.3-5.7c2.1,0.5,3.2,3.9,2,5.8C637.6,6885.3,634.1,6885.2,632.6,6883z"/>
	<path class="st0" d="M643.4,6883.9c-3.7-2.1,0.4-8.4,4.1-6.5c2.1,1.1,2.7,2.9,1.8,5.4C648.5,6885,646,6885.5,643.4,6883.9z"/>
	<path class="st0" d="M683.2,6883.9c-3.7-2.1,0.4-8.4,4.1-6.5c2.1,1.1,2.7,2.9,1.8,5.4C688.2,6885,685.7,6885.5,683.2,6883.9z"/>
	<path class="st0" d="M692.7,6883c-2.1-3.2,0.5-6.7,4.3-5.7c2.1,0.5,3.2,3.9,2,5.8C697.6,6885.3,694.1,6885.2,692.7,6883z"/>
	<path class="st0" d="M703.4,6883.4c-1.9-2-1.7-3.9,0.4-5.4c2.4-1.6,2.8-1.6,4.7,0.3c1.9,1.9,2,3.5,0.3,5.2
		C707.1,6885.2,705,6885.1,703.4,6883.4z"/>
	<path class="st0" d="M240.1,6772.8c-12.2-1.9-22.1-6.8-30.8-15.7c-7.5-7.5-11-13.1-14.3-22.5c-4.4-13-4.9-27.5-1.5-41.7
		c4.8-20.3,17.4-34.4,36.2-40.6c6.7-2.2,8.1-2.4,19.4-2.4c11.2,0.1,12.7,0.2,18.7,2.4c14.9,5.2,25.1,14.4,31.6,28.5
		c3.9,8.4,5.4,15,5.8,26.6c1,21.8-4.5,37.8-17.3,50.5c-6.7,6.7-14.4,11.1-23.3,13.4C257,6773.1,246.6,6773.9,240.1,6772.8z
		 M260.3,6746.5c11-5.4,16.9-17.3,17-34.5c0-13.9-4.1-24.4-12.2-31.6c-4.6-4.1-10.1-5.9-17.5-5.8c-16.8,0.2-28.3,15.3-28.4,37.1
		c0,19.1,8.8,33.3,22.7,36.8C247,6749.8,255.6,6748.9,260.3,6746.5z"/>
	<path class="st0" d="M353.6,6773.2c-12.2-2.5-20.8-6.4-27.4-12.5c-10.6-9.7-13.7-25.8-7.5-38.6c4.8-9.8,14.9-15.3,38.8-21.3
		c16.5-4.1,19.8-5.4,23.5-8.8c4.6-4.4,2.1-13.4-4.7-16.8c-4.5-2.3-16.6-2.7-22.1-0.9c-7.3,2.4-13.1,9.1-13.1,15v2.5h-13.9h-14
		l0.5-5.8c1.5-17.8,11.5-29.4,29.8-34.4c4.1-1.1,8.3-1.5,18.3-1.5c12.2-0.1,13.4,0.1,19.5,2.2c8.4,2.9,12.7,5.5,18.3,10.9
		c7.9,7.5,11.5,17.8,9.9,28.6c-1.8,11.4-7.4,19.1-17.8,24.6c-6.8,3.6-10.3,4.8-26,8.8c-13,3.3-19.8,6.2-21.3,8.8
		c-1.4,2.7-1,7.8,0.9,10.1c4.3,5.4,17,7.9,25.7,5c4.6-1.5,9.6-6.3,10.4-10c1.2-5.5-0.1-5.1,15.1-5.1h13.9l-0.5,4.8
		c-2.3,21.3-21.2,35.2-47.5,34.9C358.4,6773.5,354.5,6773.4,353.6,6773.2z"/>
	<path class="st0" d="M422.2,6711.6v-58.8H436h13.8v18.7v18.7l9.1-0.2l9.1-0.2l8.6-18.7l8.6-18.7l14.8-0.2
		c9.7-0.2,14.8,0.1,14.8,0.6c0,0.5-4.2,9.2-9.3,19.5c-5.1,10.2-9.3,18.9-9.3,19.2c0,0.4,1.5,1.5,3.4,2.6c4.6,2.7,11.7,9.4,14.1,13.5
		c7.2,12.3,7.8,29.1,1.3,42.3c-2.8,5.8-9.4,13-14.5,15.8c-8.1,4.4-10.7,4.6-45.8,4.6h-32.3V6711.6z M484.6,6743.5
		c9.8-6.7,8.1-24.9-2.7-29c-1.3-0.5-8.6-0.9-17.3-0.9h-14.9v15.8v15.8h16.1C481.2,6745.3,482.1,6745.2,484.6,6743.5z"/>
	<path class="st0" d="M561.3,6769.5c-0.2-0.6-9.7-26.9-21.1-58.5c-11.4-31.6-20.7-57.6-20.7-57.8c0-0.2,6.4-0.2,14.3-0.2l14.3,0.2
		l1.4,3.6c0.8,2,2.4,6.5,3.7,10l2.3,6.2h23.3h23.3l3.2-9.9l3.2-10l14.4-0.2c7.9-0.1,14.4,0.1,14.4,0.4c0,0.4-9.4,26.8-20.9,58.6
		l-21,58l-16.8,0.2C565.4,6770.5,561.6,6770.3,561.3,6769.5z M586,6718.9c3.7-10.7,6.9-20,7.1-20.4c0.2-0.8-3-1.1-14.8-1.1h-15
		l6.4,18.5c8.5,24.7,8.3,23.9,8.9,23.1C579,6738.7,582.3,6729.7,586,6718.9z"/>
	<path class="st0" d="M642.8,6711.6v-58.8h14.6H672v31.4c0,19.2,0.3,31.1,0.7,30.6c0.4-0.4,6.5-10.2,13.5-21.8
		c7-11.6,13.1-21.5,13.6-22.1c0.6-0.7,4.4,4.8,14.9,21.9l14,22.8v-31.4v-31.4h15h15v58.8v58.8h-14.9h-14.9l-14-23.8
		c-7.8-13.1-14.4-23.8-14.6-23.6c-0.2,0.2-6.7,11-14.2,23.8l-13.7,23.6h-14.8h-14.8V6711.6z"/>
</g>
</svg>
