<?xml version="1.0" encoding="utf-8"?>
<!-- Generator: Adobe Illustrator 26.0.1, SVG Export Plug-In . SVG Version: 6.00 Build 0)  -->
<svg version="1.1" id="Layer_1" xmlns="http://www.w3.org/2000/svg" xmlns:xlink="http://www.w3.org/1999/xlink" x="0px" y="0px"
	 viewBox="0 0 95 35" style="enable-background:new 0 0 95 35;" xml:space="preserve">
<style type="text/css">
	.st0{fill:#FFFFFF;}
</style>
<g>
	<path class="st0" d="M1.3,15.5c0-0.6-0.6-0.6-1-0.6H0v-0.2c0.5,0,1.3,0,2.2,0c0.8,0,1.5,0,2.3,0c1.8,0,3.3,0.3,3.3,1.4
		c0,0.7-0.8,1.2-2,1.4l2.4,2.1C8.6,19.9,8.9,20,9.6,20v0.2c-0.5,0-0.9,0-1.4,0c-0.4,0-0.9,0-1.3,0c-1.1-0.8-2-1.7-2.9-2.6H3.1v1.7
		C3.1,20,3.6,20,4.2,20h0.3v0.2c-0.8,0-1.6,0-2.4,0c-0.7,0-1.3,0-2,0V20h0.3c0.5,0,1-0.1,1-0.4V15.5z M3.1,17.4h0.7
		c1.4,0,2.2-0.3,2.2-1.3c0-0.7-0.8-1.2-2.1-1.2c-0.4,0-0.6,0-0.8,0V17.4z"/>
	<path class="st0" d="M12.5,20.1h0.1c0.4,0,0.8,0,0.8-0.3v-3.2c0-0.3-0.4-0.3-0.8-0.3h-0.1v-0.2c0.4,0,1,0,1.6,0c0.5,0,1.2,0,1.7,0
		v0.2h-0.1c-0.4,0-0.8,0-0.8,0.3v3.2c0,0.3,0.4,0.3,0.8,0.3h0.1l0,0.2c-0.5,0-1.1,0-1.7,0c-0.5,0-1.1,0-1.6,0V20.1z"/>
	<path class="st0" d="M26.4,17.3c-0.3-0.6-0.8-1.1-2.4-1.1c-1.7,0-2.6,0.8-2.6,1.8c0,1,0.9,2,2.9,2c1.1,0,1.9-0.4,2.2-1l0.3,0
		c-0.1,0.3-0.2,0.7-0.3,1c-0.6,0.2-1.4,0.3-2.4,0.3c-2.4,0-4.1-0.7-4.1-2.3c0-1.4,1.9-2.1,4.1-2.1c1.2,0,1.6,0.2,2.6,0.3
		c0,0.3,0,0.7,0.1,1L26.4,17.3z"/>
	<path class="st0" d="M32.7,19.7c0,0.3,0.4,0.3,0.8,0.3h0.2v0.2c-0.5,0-1.1,0-1.7,0c-0.5,0-1.2,0-1.6,0v-0.2h0.1
		c0.4,0,0.8,0,0.8-0.3v-3.2c0-0.3-0.4-0.3-0.8-0.3h-0.1v-0.2c0.4,0,1.1,0,1.6,0c0.6,0,1.2,0,1.7,0v0.2h-0.2c-0.4,0-0.8,0-0.8,0.3
		v1.3h3.8v-1.3c0-0.3-0.4-0.3-0.8-0.3h-0.2v-0.2c0.5,0,1.1,0,1.7,0c0.5,0,1.2,0,1.6,0v0.2h-0.1c-0.4,0-0.8,0-0.8,0.3v3.2
		c0,0.3,0.4,0.3,0.8,0.3h0.1v0.2c-0.4,0-1.1,0-1.6,0c-0.6,0-1.2,0-1.7,0v-0.2h0.2c0.4,0,0.8,0,0.8-0.3v-1.5h-3.8V19.7z"/>
	<path class="st0" d="M42.6,20.1h0.1c0.4,0,0.8,0,0.8-0.3v-3.2c0-0.3-0.4-0.3-0.8-0.3h-0.1v-0.2c0.6,0,1.7,0,2.6,0c0.9,0,2,0,2.7,0
		c0,0.3,0,0.7,0,0.9l-0.3,0c-0.1-0.4-0.2-0.7-1.3-0.7h-1.5v1.6h1.3c0.6,0,0.8-0.2,0.8-0.5h0.3c0,0.2,0,0.5,0,0.7c0,0.2,0,0.5,0,0.7
		l-0.3,0c-0.1-0.4-0.1-0.6-0.8-0.6h-1.3v1.4c0,0.4,0.6,0.4,1.3,0.4c1.3,0,1.8,0,2.1-0.7l0.3,0c-0.1,0.3-0.3,0.6-0.4,1
		c-0.7,0-1.9,0-2.8,0c-0.9,0-2.2,0-2.8,0V20.1z"/>
	<path class="st0" d="M57.2,19.2l2.5-3.2c0.3,0,0.7,0,1.1,0c0.4,0,0.7,0,1.1,0v0.2h-0.1c-0.3,0-1,0-1,0.3c0,0.2,0,0.3,0.1,0.5
		l0.4,2.8c0,0.3,0.3,0.3,0.9,0.3v0.2c-0.5,0-1,0-1.5,0c-0.6,0-1.2,0-1.7,0v-0.2c0.5,0,0.9,0,0.9-0.3c0-0.1,0-0.1,0-0.3L59.5,17h0
		l-2.7,3.4h-0.3L54,17h0l-0.4,2.6c0,0.2,0.1,0.3,0.2,0.3c0.2,0.1,0.4,0.1,0.7,0.1h0.1v0.2c-0.5,0-1,0-1.4,0c-0.4,0-0.8,0-1.2,0v-0.2
		h0.1c0.8,0,0.9-0.2,1-0.7l0.3-1.7c0.1-0.4,0.1-0.8,0.1-1.1c0-0.3-0.5-0.5-0.9-0.5h-0.1v-0.2c0.4,0,0.9,0,1.3,0c0.3,0,0.6,0,0.9,0
		L57.2,19.2z"/>
	<path class="st0" d="M69.2,16c2.2,0,4,0.8,4,2.1c0,1.4-1.7,2.3-4,2.3c-2.2,0-3.9-0.9-3.9-2.2C65.3,16.9,67,16,69.2,16 M69.4,20.1
		c2,0,2.4-1,2.4-1.9c0-0.9-0.8-1.9-2.6-1.9c-1.8,0-2.4,0.9-2.4,1.7C66.8,19.1,67.7,20.1,69.4,20.1"/>
	<path class="st0" d="M83.2,19.1L83.2,19.1l0-2.3c0-0.5-0.6-0.6-0.9-0.6h-0.2v-0.2c0.5,0,1,0,1.5,0c0.4,0,0.9,0,1.3,0v0.2h-0.2
		c-0.4,0-0.9,0-0.9,0.8v2.7c0,0.2,0,0.4,0.1,0.6h-0.4L78,16.9v2.5c0,0.5,0.2,0.7,1,0.7h0.2v0.2c-0.5,0-0.9,0-1.4,0c-0.5,0-1,0-1.4,0
		v-0.2h0.1c0.7,0,0.9-0.3,0.9-0.8v-2.5c0-0.3-0.5-0.5-1-0.5h-0.1v-0.2c0.4,0,0.8,0,1.2,0c0.3,0,0.6,0,0.9,0L83.2,19.1z"/>
	<path class="st0" d="M89,16.4c-0.8,0-0.8,0.1-1,0.5h-0.3c0-0.2,0.1-0.3,0.1-0.5c0-0.2,0.1-0.3,0.1-0.5h0.3c0.1,0.2,0.3,0.2,0.6,0.2
		h5.4c0.3,0,0.5,0,0.6-0.2l0.3,0c0,0.2-0.1,0.3-0.1,0.5c0,0.2,0,0.3,0,0.5l-0.3,0.1c0-0.2-0.1-0.6-0.8-0.6H92v3.2
		c0,0.5,0.4,0.5,0.9,0.5h0.2v0.2c-0.4,0-1.1,0-1.7,0c-0.6,0-1.4,0-1.8,0v-0.2h0.2c0.6,0,0.9,0,0.9-0.5v-3.2H89z"/>
</g>
</svg>
