<?xml version="1.0" encoding="utf-8"?>
<!-- Generator: Adobe Illustrator 26.0.1, SVG Export Plug-In . SVG Version: 6.00 Build 0)  -->
<svg version="1.1" id="Layer_1" xmlns="http://www.w3.org/2000/svg" xmlns:xlink="http://www.w3.org/1999/xlink" x="0px" y="0px"
	 viewBox="0 0 95 35" style="enable-background:new 0 0 95 35;" xml:space="preserve">
<style type="text/css">
	.st0{fill:#343741;}
</style>
<path class="st0" d="M42,19.8h-6.2v1.4H36c0.1-0.2,0.4-0.6,0.9-0.6h1.4V28h1.4v-7.3h1.4c0.5,0,0.8,0.3,0.8,0.5v0.1h0.2L42,19.8z
	 M1.4,19.4C0.5,20.3,0,21.6,0,22.9c0,1.5,0.6,2.8,1.6,3.7c1,0.9,2.4,1.4,3.8,1.4c0.8,0,2.2-0.2,3.7-1L9.2,27l0.2-2l-0.3-0.1L9.1,25
	c-1.1,2.2-2.7,2.2-3.4,2.2c-2.8,0-4.1-2.3-4.1-4.5c0-2.1,1.3-4.2,4.1-4.2c0.9,0,2.5,0.3,3.3,2.2L9,20.8l0.3-0.1l-0.1-2.1l-0.1-0.1
	c-1.3-0.6-2.4-0.8-3.5-0.8C3.9,17.8,2.5,18.3,1.4,19.4L1.4,19.4z M10.8,19.8l-0.1,0.2c0.1,0.1,0.3,0.4,0.3,0.7v7.2h1.3v-3.7h0.6
	c0.5,0.1,0.7,0.4,1,0.8l0.1,0.1l0.2,0.3c0.3,0.5,0.7,1.1,1.1,1.7c0.3,0.5,0.7,0.7,1.1,0.8c0.3,0.1,1,0.1,1.2-0.1l0.3-0.1l0.1-0.1
	l-0.4-0.1c-0.2-0.1-0.4-0.2-0.8-0.6c-0.2-0.3-0.6-0.8-1.1-1.6l-0.5-0.8c-0.2-0.2-0.4-0.5-0.8-0.8c0.8-0.3,1.5-0.9,1.5-1.9
	c0-0.3-0.1-0.9-0.6-1.3c-0.5-0.5-1.3-0.7-2.3-0.7L10.8,19.8z M13.1,20.6c1.4,0.1,1.4,1.2,1.4,1.4c0,1.2-0.9,1.6-1.6,1.6h-0.6v-2.9
	C12.5,20.6,12.8,20.6,13.1,20.6z M24.5,19.8v0.2c0.1,0.1,0.2,0.4,0.2,0.6v7.3H27c1.5,0,2.8-0.5,3.6-1.4c0.7-0.8,1.1-1.7,1.1-2.8
	c0-0.6-0.2-1.6-0.8-2.3c-0.8-1-2-1.6-3.7-1.6L24.5,19.8z M26.1,20.7h0.7c0.2,0,0.7,0,1,0.1c2.2,0.4,2.5,2.2,2.5,3.1
	c0,0.7-0.1,1.6-0.7,2.3c-0.6,0.7-1.4,1.1-2.6,1.1h-1L26.1,20.7L26.1,20.7z M34.6,19.8H33v0.2c0.2,0.1,0.3,0.4,0.3,0.7v7.2h1.3V19.8z
	 M61.6,19.8h-1.6v0.2c0.2,0.1,0.3,0.4,0.3,0.7v7.2h1.3L61.6,19.8z M22.8,19.8h-4.5l0.1,0.2c0.1,0.1,0.3,0.4,0.3,0.7v7.2h4.5l0.3-1.4
	l-0.2-0.1l-0.1,0.1c-0.4,0.6-0.8,0.7-2,0.7c-0.5,0-0.9-0.1-1.2-0.1v-3.3h2.3v-0.8h-2.3v-2.5h1.8c0.4,0,0.9,0.4,0.9,0.7v0.1h0.2
	L22.8,19.8z M80.4,19.8h-4.5v0.2c0.1,0.1,0.3,0.3,0.3,0.7v7.2h4.5l0.3-1.4l-0.2-0.1l-0.1,0.1c-0.4,0.6-0.8,0.7-2,0.7
	c-0.5,0-0.9-0.1-1.2-0.1v-3.3h2.3v-0.8h-2.3v-2.5h1.8c0.5,0,0.9,0.4,0.9,0.7v0.1h0.2L80.4,19.8z M46,18.4c-0.5,0.4-1,1-1.1,2v0.1
	c0,1.3,0.8,2,2.1,2.7c0.1,0.1,0.2,0.1,0.5,0.3c1.1,0.6,1.9,1,1.9,2.1c0,0.4-0.2,1-0.6,1.4c-0.4,0.4-0.8,0.5-1.4,0.5
	c-1.7,0-2.3-1.5-2.5-2.1L45,25.1l-0.3,0.1l0.1,2.1l0.2-0.1c0.6,0.3,1.4,0.8,2.8,0.9c0.9,0,1.8-0.4,2.5-1c0.6-0.6,0.9-1.3,0.9-2
	c0-1.7-1.2-2.3-2.5-3l-0.3-0.2c-1.3-0.7-1.9-1.1-1.9-1.9c0-0.6,0.5-1.5,1.6-1.5c1.3,0,2,1,2.2,1.6l0.1,0.1l0.3-0.1l-0.1-1.8
	l-0.1-0.1c-0.8-0.5-1.7-0.6-2.1-0.6C47.3,17.7,46.5,18,46,18.4L46,18.4z M63.8,21.9c0,1.1,0.7,1.7,1.7,2.2l0.4,0.2
	c0.9,0.4,1.4,0.7,1.4,1.5c0,0.2-0.1,0.6-0.4,1c-0.3,0.3-0.6,0.4-1.1,0.4c-1.3,0-1.7-1-1.9-1.6l-0.1-0.1l-0.3,0.1l0.1,1.7l0.1,0.1
	c0.4,0.3,1.1,0.7,2.2,0.7c0.7,0,1.5-0.3,2-0.8c0.5-0.5,0.7-1,0.7-1.6c0-1.4-1-1.9-2-2.5L66.4,23c-1.1-0.6-1.5-0.8-1.5-1.4
	c0-0.5,0.3-1.1,1.2-1.1c1.1,0,1.5,0.8,1.6,1.2l0.1,0.1l0.3-0.1L68,20.3L68,20.3c-0.6-0.4-1.4-0.5-1.7-0.5
	C65.1,19.8,63.8,20.5,63.8,21.9L63.8,21.9z M69.9,21.9c0,1.1,0.7,1.7,1.7,2.2l0.4,0.2c0.9,0.4,1.4,0.7,1.4,1.5c0,0.2-0.1,0.6-0.4,1
	c-0.3,0.3-0.6,0.4-1.1,0.4c-1.3,0-1.7-1-1.9-1.6L70,25.6l-0.3,0.1l0.1,1.7l0.1,0.1c0.4,0.3,1.1,0.7,2.2,0.7c0.7,0,1.5-0.3,2-0.8
	c0.5-0.5,0.7-1,0.7-1.6c0-1.4-1-1.9-2-2.5L72.5,23c-1.1-0.6-1.5-0.8-1.5-1.4c0-0.3,0.1-0.6,0.3-0.8c0.2-0.2,0.5-0.3,0.9-0.3
	c1.1,0,1.5,0.8,1.6,1.2l0.1,0.1l0.3-0.1L74,20.3L74,20.3c-0.6-0.4-1.4-0.5-1.7-0.5C71.2,19.8,69.9,20.5,69.9,21.9L69.9,21.9z
	 M58.3,19.8h-1.1v0.2c0.1,0.1,0.2,0.2,0.2,0.7v4.6c0,0.9-0.3,1.9-1.9,1.9c-1.5,0-1.8-0.9-1.8-2.2v-5.2h-1.7v0.2
	c0.1,0.1,0.3,0.3,0.3,0.7v4.3c0,2.7,1.7,3,3.1,3c0.7,0,2.8-0.2,2.8-2.7L58.3,19.8z M92,17.6c1,0.3,1.9,0.7,3,1.3
	c-2.6-4.3-7.2-8.9-11.7-12c1.2,1.2,3.1,3.7,3.6,6.4C88.7,14.7,90.4,16.1,92,17.6z"/>
<path class="st0" d="M92,17.6c-2.2-0.7-4.1-0.8-5.5-0.6c0.5-1.2,0.6-2.4,0.4-3.6c-3.4-2.5-7.3-4.6-10.9-6.2c2.7,1.8,5.6,7,6.8,12.7
	c2.7-0.8,6.7-1.3,12,0.5C93.9,19.4,93,18.5,92,17.6L92,17.6z"/>
</svg>
