<?xml version="1.0" encoding="utf-8"?>
<!-- Generator: Adobe Illustrator 26.0.1, SVG Export Plug-In . SVG Version: 6.00 Build 0)  -->
<svg version="1.1" id="Layer_1" xmlns="http://www.w3.org/2000/svg" xmlns:xlink="http://www.w3.org/1999/xlink" x="0px" y="0px"
	 viewBox="0 0 95 35" style="enable-background:new 0 0 95 35;" xml:space="preserve">
<style type="text/css">
	.st0{fill:#CCCCCC;}
</style>
<path class="st0" d="M30,0v35h35V0H30z M38.4,21.2c-0.5,0.3-1,0.5-1.7,0.5c-0.9,0-1.6-0.3-2.2-0.9s-0.8-1.4-0.8-2.4
	c0-1.1,0.3-1.9,0.8-2.6c0.6-0.6,1.3-0.9,2.2-0.9c0.8,0,1.5,0.2,2,0.7c0.3,0.3,0.5,0.7,0.7,1.2l-1.3,0.3c-0.1-0.3-0.2-0.6-0.5-0.8
	c-0.2-0.2-0.5-0.3-0.9-0.3c-0.5,0-0.9,0.2-1.2,0.5C35.2,17,35,17.5,35,18.3c0,0.8,0.1,1.4,0.4,1.8c0.3,0.4,0.7,0.5,1.2,0.5
	c0.4,0,0.7-0.1,0.9-0.3c0.3-0.2,0.4-0.6,0.5-1.1l1.3,0.4C39.2,20.3,38.9,20.9,38.4,21.2z M45.2,20.8c-0.2,0.3-0.5,0.6-0.9,0.7
	c-0.4,0.2-0.9,0.2-1.4,0.2c-0.8,0-1.5-0.2-1.9-0.6c-0.4-0.4-0.7-0.9-0.8-1.7l1.3-0.1c0.1,0.4,0.2,0.8,0.5,1c0.2,0.2,0.6,0.3,1,0.3
	c0.4,0,0.8-0.1,1-0.3s0.3-0.4,0.3-0.6c0-0.2,0-0.3-0.1-0.4c-0.1-0.1-0.3-0.2-0.5-0.3c-0.2-0.1-0.5-0.1-1.1-0.3
	c-0.7-0.2-1.2-0.4-1.5-0.7c-0.4-0.4-0.6-0.8-0.6-1.3c0-0.3,0.1-0.6,0.3-0.9s0.5-0.5,0.8-0.7c0.4-0.2,0.8-0.2,1.3-0.2
	c0.8,0,1.4,0.2,1.9,0.5c0.4,0.4,0.6,0.8,0.7,1.4L44,17c-0.1-0.3-0.2-0.6-0.4-0.7c-0.2-0.1-0.5-0.2-0.8-0.2c-0.4,0-0.7,0.1-0.9,0.2
	c-0.1,0.1-0.2,0.2-0.2,0.4c0,0.2,0.1,0.3,0.2,0.4c0.2,0.1,0.6,0.3,1.2,0.4c0.6,0.2,1.1,0.3,1.4,0.5c0.3,0.2,0.6,0.4,0.7,0.7
	c0.2,0.3,0.3,0.6,0.3,1C45.6,20.1,45.5,20.4,45.2,20.8z M51.4,20.8c-0.2,0.3-0.5,0.6-0.9,0.7c-0.4,0.2-0.9,0.2-1.4,0.2
	c-0.8,0-1.5-0.2-1.9-0.6c-0.4-0.4-0.7-0.9-0.8-1.7l1.3-0.1c0.1,0.4,0.2,0.8,0.5,1c0.2,0.2,0.6,0.3,1,0.3c0.4,0,0.7-0.1,1-0.3
	s0.3-0.4,0.3-0.6c0-0.2,0-0.3-0.1-0.4c-0.1-0.1-0.2-0.2-0.5-0.3c-0.2-0.1-0.5-0.1-1.1-0.3c-0.7-0.2-1.2-0.4-1.5-0.7
	c-0.4-0.4-0.6-0.8-0.6-1.3c0-0.3,0.1-0.6,0.3-0.9s0.5-0.5,0.8-0.7c0.4-0.2,0.8-0.2,1.3-0.2c0.8,0,1.4,0.2,1.9,0.5s0.6,0.8,0.7,1.4
	L50.2,17c-0.1-0.3-0.2-0.6-0.4-0.7C49.6,16.1,49.3,16,49,16c-0.4,0-0.7,0.1-0.9,0.2c-0.1,0.1-0.2,0.2-0.2,0.4c0,0.2,0.1,0.3,0.2,0.4
	c0.2,0.1,0.6,0.3,1.2,0.4c0.6,0.2,1.1,0.3,1.4,0.5s0.6,0.4,0.7,0.7s0.3,0.6,0.3,1C51.7,20.1,51.6,20.4,51.4,20.8z M59.1,21.6h-1.2
	v-5.2l-1.3,5.2h-1.3L54,16.5v5.2h-1.2v-6.6h2l1.2,4.5l1.2-4.5h2V21.6z M61.7,21.6h-1.3v-6.6h1.3V21.6z"/>
</svg>
