<?xml version="1.0" encoding="utf-8"?>
<!-- Generator: Adobe Illustrator 26.0.1, SVG Export Plug-In . SVG Version: 6.00 Build 0)  -->
<svg version="1.1" id="Layer_1" xmlns="http://www.w3.org/2000/svg" xmlns:xlink="http://www.w3.org/1999/xlink" x="0px" y="0px"
	 viewBox="0 0 95 35" style="enable-background:new 0 0 95 35;" xml:space="preserve">
<style type="text/css">
	.st0{fill:#CCCCCC;}
</style>
<g>
	<path class="st0" d="M26.7,11h-5v15.5h5c4.7,0,7.5-2.2,7.5-7.7S31.4,11,26.7,11 M26.5,24.4h-2.5V13h2.5c3.5,0,5.2,1.6,5.2,5.7
		C31.8,22.8,30.1,24.4,26.5,24.4 M92.3,11l-4.1,7.5L84,11h-2.7l5.6,9.4v6.1h2.4v-6.1L95,11H92.3z M47.4,20.7c0,2.2-0.6,3.9-3.6,3.9
		c-3,0-3.6-1.7-3.6-3.9V11h-2.4v9.6c0,3.4,1.3,6.1,6,6.1c4.7,0,6-2.7,6-6.1v-9.6h-2.4V20.7z M79.7,15.3c0-3.3-2.3-4.4-6-4.4h-6.3
		v15.5h2.4v-6.7h3.4l3.8,6.7h2.6l-4.1-6.8C78.1,19.2,79.7,18,79.7,15.3 M69.8,17.7V13h3.9c2,0,3.5,0.4,3.5,2.3s-1.5,2.4-3.6,2.4
		L69.8,17.7L69.8,17.7z M54.2,26.4h2.4v-6.7h6.2v-2h-6.2V13h7.8v-2H54.2V26.4z M7.2,8.3H4.8V11H0v3.7c0,3.4,1.3,6.1,6,6.1
		c4.7,0,6-2.7,6-6.1V11H7.2V8.3z M9.7,13v1.8c0,2.2-0.6,3.9-3.6,3.9c-3,0-3.7-1.7-3.7-3.9V13h2.4v2.6h2.4V13H9.7z"/>
</g>
</svg>
