<?xml version="1.0" encoding="utf-8"?>
<!-- Generator: Adobe Illustrator 26.0.1, SVG Export Plug-In . SVG Version: 6.00 Build 0)  -->
<svg version="1.1" id="Layer_1" xmlns="http://www.w3.org/2000/svg" xmlns:xlink="http://www.w3.org/1999/xlink" x="0px" y="0px"
	 viewBox="0 0 95 35" style="enable-background:new 0 0 95 35;" xml:space="preserve">
<style type="text/css">
	.st0{fill:#343741;}
</style>
<g id="layer1" transform="translate(-279.28549,-147.24896)">
	<g id="g2441" transform="translate(17.716506,17.798684)">
		<path id="path8" class="st0" d="M290.1,152.9c-2.1,0.5-3.7,0.6-4.9,0.6c-3.4,0-7.3-1.7-7.3-6.5c0-4.8,3.4-6.6,8-6.6
			c0.8,0,2.6,0.1,3.8,0.6v2.8c-1.1-0.6-2.6-0.9-3.4-0.9c-2.7,0-5,1.1-5,4.1c0,2.5,1.8,4,4.2,4c0.5,0,0.9-0.1,1.2-0.2v-2.5h-2v-2.4
			h5.2V152.9"/>
		<path id="path10" class="st0" d="M292.9,140.6h8.9v2.4h-5.5v2.6h5.2v2.4h-5.2v2.9h5.7v2.4h-9.1V140.6"/>
		<path id="path12" class="st0" d="M308,147.9h1c1.2,0,2.5,0.1,2.5,1.5c0,1.3-1.3,1.5-2.5,1.5h-1V147.9z M304.6,153.3h5.3
			c2.3,0,4.9-0.6,4.9-3.7c0-1.5-0.9-2.4-2.6-2.8v0c1.4-0.5,2.2-1.4,2.2-3c0-2.2-1.8-3.2-4.1-3.2h-5.8V153.3z M308,143h1
			c1.1,0,2.2,0.1,2.2,1.3c0,1.1-1.1,1.3-2.2,1.3H308V143"/>
		<path id="path14" class="st0" d="M317.3,140.6h8.9v2.4h-5.5v2.6h5.2v2.4h-5.2v2.9h5.7v2.4h-9.1V140.6"/>
		<path id="path16" class="st0" d="M332.3,143h0.9c1.3,0,2.5,0.2,2.5,1.4c0,1.4-1.4,1.5-2.5,1.5h-0.9V143z M329,153.3h3.4v-5h0.7
			c1.3,0,1.7,0.5,2.4,2.7l0.7,2.3h3.5l-1.2-3.4c-0.6-1.5-0.7-2.5-1.8-2.8v0c1.6-0.4,2.4-1.5,2.4-3.2c0-2.2-1.8-3.2-4.1-3.2h-6V153.3
			"/>
		<path id="path18" class="st0" d="M341.8,140.6h3.4v12.7h-3.4V140.6z"/>
		<path id="path20" class="st0" d="M350.1,143.1H347v-2.5h9.6v2.5h-3.1v10.2h-3.4V143.1"/>
		<path id="path22" class="st0" d="M261.6,140.6h12.7v12.7h-12.7V140.6z"/>
	</g>
</g>
</svg>
