<?xml version="1.0" encoding="utf-8"?>
<!-- Generator: Adobe Illustrator 26.0.1, SVG Export Plug-In . SVG Version: 6.00 Build 0)  -->
<svg version="1.1" id="Layer_1" xmlns="http://www.w3.org/2000/svg" xmlns:xlink="http://www.w3.org/1999/xlink" x="0px" y="0px"
	 viewBox="0 0 95 35" style="enable-background:new 0 0 95 35;" xml:space="preserve">
<style type="text/css">
	.st0{fill:#343741;}
	.st1{fill-rule:evenodd;clip-rule:evenodd;fill:#343741;}
</style>
<g>
	<path class="st0" d="M95,11.8h-2.7c-0.2-1.1-1.1-1.7-2.1-1.7c-1,0-2.1,0.8-2.1,2.2c0,1.2,1.2,2.1,2.2,2.1c0.7,0,1.8-0.5,1.8-1.4
		c0-0.6-1.1-0.6-1.2-0.6l-1.6-0.1v-0.1H95v0.3c-0.2,2.8-2.7,4.7-5,4.5c-4.4-0.4-4.6-4.5-4.6-4.8c0-2.6,2.1-4.8,4.9-4.8
		C92.3,7.4,94.7,9,95,11.8L95,11.8z"/>
	<path class="st0" d="M8.9,19.5v1.7h4c-0.1,2.5-2.6,4.5-5,4.5c-3.3,0-5.9-3-5.9-6.3c0-3.4,2.7-6.2,6.1-6.2c1.9,0,3.7,1,4.8,2.5
		l1.3-1.3c-1.5-1.9-3.9-3-6.2-3c-4.4,0-7.9,3.6-7.9,8c0,4.2,3.5,7.9,7.7,7.9s7.2-3.2,7.2-7.4v-0.6L8.9,19.5L8.9,19.5z"/>
	<path class="st1" d="M18.6,17.7h-1.8v9.5h1.8V17.7L18.6,17.7z M17.7,12.1c-0.7,0-1.3,0.6-1.3,1.3c0,0.7,0.6,1.2,1.3,1.2
		c0.7,0,1.3-0.6,1.3-1.2C19,12.7,18.4,12.1,17.7,12.1L17.7,12.1z"/>
	<polygon class="st0" points="22,17.7 19.9,17.7 24.7,27.6 29.5,17.7 27.4,17.7 24.7,23.7 	"/>
	<path class="st1" d="M34.5,25.9c-1.9,0-3-1.7-3-3.5c0-1.8,1.1-3.4,3-3.4c2,0,3.1,1.6,3.1,3.4C37.6,24.4,36.5,25.9,34.5,25.9
		L34.5,25.9z M39.3,17.7h-1.8v1.6h0c-0.8-1.1-1.9-1.9-3.3-1.9c-2.8,0-4.5,2.4-4.5,5c0,2.7,1.6,5.1,4.5,5.1c1.4,0,2.5-0.7,3.2-1.8h0
		v1.5h1.8V17.7L39.3,17.7z"/>
	<path class="st0" d="M41.7,17.7v5.5c0,2.6,1.2,4.4,4,4.4c2.8,0,4-1.8,4-4.4v-5.5h-1.8V23c0,1.5-0.4,2.9-2.2,2.9s-2.2-1.3-2.2-2.9
		v-5.3H41.7L41.7,17.7z"/>
	<path class="st1" d="M56.4,25.9c-1.9,0-3-1.7-3-3.5c0-1.8,1.1-3.4,3-3.4c2,0,3.1,1.6,3.1,3.4C59.5,24.4,58.4,25.9,56.4,25.9
		L56.4,25.9z M59.4,27.2h1.8V9.6h-1.8v9.7h0c-0.8-1.1-1.9-1.9-3.3-1.9c-2.7,0-4.5,2.4-4.5,5c0,2.7,1.6,5.1,4.5,5.1
		c1.3,0,2.5-0.7,3.2-1.8h0L59.4,27.2L59.4,27.2z"/>
	<path class="st1" d="M67.4,25.9c-1.9,0-3-1.7-3-3.5c0-1.8,1.1-3.4,3-3.4c2,0,3.1,1.6,3.1,3.4C70.5,24.4,69.4,25.9,67.4,25.9
		L67.4,25.9z M72.2,17.7h-1.8v1.6h0c-0.8-1.1-1.9-1.9-3.3-1.9c-2.8,0-4.5,2.4-4.5,5c0,2.7,1.6,5.1,4.5,5.1c1.4,0,2.5-0.7,3.2-1.8h0
		v1.5h1.8V17.7L72.2,17.7z"/>
	<path class="st0" d="M77,17.7h-1.8v9.5H77v-4.4c0-1.7,0-3.8,2.4-3.8c1.9,0,2.1,1.1,2.1,2.7v5.4h1.8v-5.7c0-2.3-0.7-4.1-3.4-4.1
		c-1.2,0-2.3,0.5-2.9,1.6h0L77,17.7L77,17.7z"/>
</g>
</svg>
