<?xml version="1.0" encoding="utf-8"?>
<!-- Generator: Adobe Illustrator 26.0.1, SVG Export Plug-In . SVG Version: 6.00 Build 0)  -->
<svg version="1.1" id="Layer_1" xmlns="http://www.w3.org/2000/svg" xmlns:xlink="http://www.w3.org/1999/xlink" x="0px" y="0px"
	 viewBox="0 0 95 35" style="enable-background:new 0 0 95 35;" xml:space="preserve">
<style type="text/css">
	.st0{fill-rule:evenodd;clip-rule:evenodd;fill:#FFFFFF;}
</style>
<g>
	<path id="red" class="st0" d="M27.5,9c-1.6-1.7-3.6-2.5-6-2.5c-2.3,0-4.3,0.9-6,2.6c-1.7,1.6-2.5,3.6-2.5,6c0,2.4,0.8,4.4,2.5,6
		c1.7,1.7,3.7,2.6,6,2.6v2.7c-3.1,0-5.7-1.1-8-3.3c-2.2-2.3-3.3-4.9-3.3-8c0-3.1,1.1-5.7,3.3-8c2.2-2.2,4.9-3.3,8-3.3s5.7,1.1,8,3.3
		c2.3,2.3,3.4,4.9,3.4,8H30C30,12.7,29.1,10.7,27.5,9"/>
	<path id="Holcim" class="st0" d="M35.8,26.3v-5.7h2.7v14.2h-2.7v-6.1h-6v6.1h-2.8V20.6h2.8v5.7L35.8,26.3 M48.1,29.5
		c0,2.2-0.8,3.2-2.3,3.2c-1.6,0-2.4-1.1-2.4-3.2c0-2.1,0.8-3.2,2.4-3.2C47.4,26.4,48.1,27.4,48.1,29.5z M50.9,29.3
		c0-3.4-1.6-5.2-4.9-5.2c-1.6,0-2.9,0.5-3.8,1.6c-1,1.1-1.5,2.4-1.5,4c0,3.5,1.6,5.2,4.9,5.2c1.6,0,2.9-0.5,3.8-1.6
		C50.4,32.4,50.9,31,50.9,29.3 M53.2,34.7h2.6V19.4h-2.6V34.7z M58,29.9c0-3.9,1.8-5.8,5.4-5.8l2.1,0.3c0,0.8-0.1,1.6-0.3,2.4
		l-1.9-0.3c-1.7,0-2.6,1.1-2.6,3.2c0,2,0.9,3,2.5,3c0.7-0.1,1.4-0.3,2-0.5l0.2,2.3c-0.9,0.3-1.9,0.5-2.8,0.5
		C59.5,35,58,33.3,58,29.9 M69,23c-1.1,0-1.7-0.6-1.7-1.7c0-1.2,0.6-1.7,1.7-1.7c1.1,0,1.7,0.6,1.7,1.7C70.7,22.5,70.1,23,69,23z
		 M67.7,24.5h2.6v10.2h-2.6V24.5 M82.2,29.8v5h-2.7v-6.6c0-1.2-0.4-1.8-1.2-1.8c-0.6,0-1.2,0.3-1.7,0.9c-0.5,0.7-0.7,1.5-0.7,2.5v5
		h-2.7V24.5h2.5l-0.1,1.7c0.6-1.4,1.8-2.1,3.4-2.1c1.6,0,2.6,0.7,2.9,2.1c0.7-1.4,1.8-2.1,3.4-2.1c2.1,0,3.2,1.2,3.2,3.4v7.2h-2.7
		v-6.6c0-1.2-0.4-1.8-1.2-1.8c-0.6,0-1.1,0.3-1.6,0.9C82.5,27.9,82.2,28.8,82.2,29.8"/>
	<path id="black" class="st0" d="M17.2,13.5l-8-8.1L6.5,8l8,8L17.2,13.5 M22.5,8l-8-8l-2.6,2.7l8,8L22.5,8"/>
</g>
</svg>
