<?xml version="1.0" encoding="utf-8"?>
<!-- Generator: Adobe Illustrator 26.0.1, SVG Export Plug-In . SVG Version: 6.00 Build 0)  -->
<svg version="1.1" id="Layer_1" xmlns="http://www.w3.org/2000/svg" xmlns:xlink="http://www.w3.org/1999/xlink" x="0px" y="0px"
	 viewBox="0 0 95 35" style="enable-background:new 0 0 95 35;" xml:space="preserve">
<style type="text/css">
	.st0{fill-rule:evenodd;clip-rule:evenodd;fill:#FFFFFF;}
</style>
<g>
	<path class="st0" d="M41.8,9.5c0.2,0,0.4-0.2,0.4-0.4c0-0.2-0.2-0.4-0.4-0.4c-0.2,0-0.4,0.2-0.4,0.4C41.4,9.3,41.6,9.5,41.8,9.5
		L41.8,9.5z"/>
	<path class="st0" d="M47.2,18.6c0.7,0,1.1-0.1,1.5-0.2c0.4-0.1,0.6-0.3,0.8-0.5c0.2-0.2,0.3-0.3,0.5-0.4c0.2-0.1,0.4-0.1,0.7-0.1
		c0.4,0,0.9,0.1,1.2,0.3l0-0.6c-0.2-0.1-1-0.4-1.7-0.4c-0.8,0-1.1,0.2-1.3,0.5c-0.3,0.3-0.7,0.7-1.9,0.7c-0.3,0-1-0.1-1.3-0.1
		c-0.2,0-0.3,0-0.3,0c0.1,0.2,0.2,0.6,0.2,0.6C45.9,18.5,46.3,18.6,47.2,18.6L47.2,18.6z"/>
	<path class="st0" d="M43.7,16.8c0.2,0,0.9,0.1,1.7,0.2c0.4,0,0.9,0.1,1.3,0.1c0.9,0,1.8-0.4,2.6-0.8l-0.2-0.6
		c-0.4,0.2-1.1,0.5-1.8,0.6c-0.2,0-0.6,0-0.7,0c-0.2,0-0.5-0.1-0.7-0.2c-0.4-0.1-0.8-0.1-1-0.1c-0.3,0-0.8,0-1,0
		c-0.9,0.1-1.5,0.3-2,0.6c-0.3,0.2-0.6,0.5-0.9,0.9c0.1,0,0.5,0.1,0.5,0.1C42.2,17.1,43.1,16.8,43.7,16.8L43.7,16.8z"/>
	<path class="st0" d="M33.2,17.1c0.4,0,0.6,0.1,0.8,0.3c0.2,0.1,0.3,0.2,0.4,0.3c0.3,0.2,0.2,0.5,0,0.6c-0.1,0.1-0.2,0.2-0.5,0.4
		c-0.1,0.1-0.4,0.2-0.5,0.3C33.2,19,33.1,19,33,19c-0.1,0-0.3,0-0.3-0.1L32,19.4c0.2,0.2,0.4,0.2,0.8,0.2c0.4,0,0.8-0.1,1.2-0.3
		c0.6-0.2,1.2-0.7,1.4-0.8c0.4-0.2,0.9-0.4,1.3-0.4c0.4,0,0.9,0.2,1.4,0.5c0.6,0.3,1.4,0.6,2,0.6c0.4,0,0.9-0.1,1.4-0.2
		c0.9-0.2,1.8-0.5,2.7-0.8l-0.3-0.5c-0.2,0.1-1,0.3-1.8,0.5c-0.7,0.1-1.4,0.3-1.7,0.3c-0.3,0-0.6,0-0.9-0.1c-0.5-0.2-1-0.3-1-0.7
		c0-0.3,0.1-0.5,0.5-0.6c0.6-0.2,1.4-0.2,1.9-0.2c0.1-0.1,0.4-0.5,0.4-0.5c-0.2,0-0.7-0.1-1.1-0.1c-0.6,0-1.1,0.1-1.6,0.3
		c-0.4,0.2-0.7,0.4-1,0.8c-0.1,0.1-0.2,0.3-0.3,0.3c-0.2,0-0.6-0.2-1.1-0.2c-0.2,0-0.3,0-0.5,0c-0.4,0-1-0.3-1.5-0.6
		c-0.3-0.2-0.6-0.3-1-0.3c-0.2,0-0.4,0-0.6,0.1c-0.4,0.2-0.7,0.4-0.9,0.6l0.3,0.2C32.3,17.2,32.7,17.1,33.2,17.1L33.2,17.1z"/>
	<path class="st0" d="M63.3,21.8c-1.6-1.4-3.2-2.8-4.2-4c-1.9-2.1-4.5-6.1-5.3-8.3c-0.3-0.8-1-0.5-0.7,0.3c0.8,2,2.7,5,4.7,7.5
		c-0.5-0.2-1-0.5-1.4-0.6c-0.1,0.2-0.4,0.5-0.6,0.8c-0.3,0.3-0.6,0.6-0.7,0.7c-0.2,0.2-0.4,0.2-0.5,0c-0.1-0.1-0.2-0.3-0.3-0.6
		L53.8,17c-0.2-0.3-1.3-1.7-1.6-2.2c-0.3-0.5-0.7-1-1.4-1c-0.8,0-1.1,0.9-1.2,1.8l0.6-0.2c0.1-0.5,0.4-0.8,0.6-0.8
		c0.2,0,0.4,0.3,0.4,0.5c-0.1,0.2-0.2,0.7-0.3,1.1l0.6,0.2c0-0.3,0.1-0.8,0.3-1c0,0,0.2,0.1,0.2,0.2c0,0.1,0.3,0.5,0.6,1
		c0.3,0.5,0.6,1.1,0.9,1.6c0.1,0.2,0.3,0.4,0.4,0.6c0.1,0.2,0.3,0.4,0.4,0.4c0.1,0.1,0.3,0.1,0.4,0.1c0.4,0,0.5-0.1,0.8-0.3
		c0.5-0.4,0.8-0.9,1.3-1.4l1,0.4c0.4,0.2,0.8,0.4,1.1,0.5c0.8,0.9,1.7,1.8,2.7,2.7l0.7,0.6c0.2,0.2,0.4,0.3,0.5,0.5L63.3,21.8
		L63.3,21.8z"/>
	<path class="st0" d="M66.9,21.6c-1.6-3.6-3.8-8-5.6-10.7l-0.4-0.6c-0.6-0.8-1.3-1.5-1.9-2.2l-0.5-0.5c-1.3-1.2-2.7-2.5-3.8-3.4
		c-1-0.8-1.7-2.6-3.9-2.6c-2,0-2.7,1.4-2.9,2.1c-0.1,0.5-0.2,0.7-0.4,0.9l-1.3,1.5l1.5-0.1l-0.8,1.3c0.4-0.1,3.1-0.6,3.6,0.2
		c0.7,1,0.2,2.1,1.4,4.5l0.5,0.9c0.6,1,1.3,1.9,2,2.7L53.8,17l0.4,0.5l1-2c-0.5-0.4-1.9-2.4-2.5-3.5c-1.4-2.5-0.8-3.7-1.7-4.9
		c-0.8-1.1-3-0.6-3-0.6l0.8-1.1l-1.4,0.2l0.7-0.8c0.1-0.2,0.2-0.3,0.2-0.5c0.3-1,1-2,2.4-2c1.7,0,2.2,1.3,3.3,2.3
		c1.2,1,3.6,3,5.9,5.6c1.8,2.1,4.2,6.9,5.9,10.7c-2-1-5.3-4.2-6.7-6.7l-0.7-0.1c1.5,2.8,4.7,6.1,7.9,7.9L66.9,21.6L66.9,21.6z"/>
	<path class="st0" d="M62.4,9.7c0.5-0.4,1.1-0.7,1.8-0.9c0.4,0.5,1.3,0.9,2.1,1l-0.1,0.8C65.3,10.2,63.8,9.8,62.4,9.7l-0.7,0.6
		c2,0,3.3,0.4,4.9,1.1l0.3-2.1c-0.7-0.1-1.7-0.3-2-0.8c1.5-0.5,3.1-0.6,4-0.6V5.4C68.5,5.6,68,5.8,67.5,6c-0.6,0.2-1.1,0.3-1.3,0
		c-0.2-0.3,0.7-0.8,1.5-1.3l-1.9-1.6c-0.3,0.4-0.9,1.5-1.6,2.2c-0.5,0.5-1,0.8-1.2,0.6c-0.1-0.1-0.2-0.4,0-0.8
		c0.2-0.8,0.8-1.8,1.2-2.3l-2.6-0.2c0,1.1-0.5,2.3-1.1,3.2c-0.5,0.8-1.3,1.4-1.9,1.8l0.5,0.5C59.7,7.5,60.4,6.9,61,6
		c0.5-0.8,0.9-1.7,1.1-2.7L63,3.3c-0.4,0.7-0.8,1.8-0.8,2.5c0,0.5,0.1,0.6,0.4,0.8c0.5,0.3,1,0.1,1.6-0.4c0.6-0.5,1.2-1.4,1.8-2.1
		l0.8,0.6c-1,0.6-1.3,1.2-1,1.7c0.1,0.2,0.4,0.3,0.7,0.3c0.3,0,0.7-0.1,1.1-0.2c0.3-0.1,0.6-0.2,0.9-0.3v1c-2.2,0.2-6,1.1-7.4,3
		l0.4,0.6c0.1-0.2,0.3-0.4,0.4-0.6L62.4,9.7L62.4,9.7z"/>
	<path class="st0" d="M33.3,4.7l0.3,0.2c0.8-0.6,1.7-1.8,2.2-2.9l-0.3-0.2C35.1,2.3,33.9,3.8,33.3,4.7L33.3,4.7z"/>
	<path class="st0" d="M32.9,4c-0.4-1.5,0.7-2.5,1.9-2.4c0.4-0.8,1.1-1,1.9-0.6c0.7,0.4,0.6,1.5,0.1,1.9c0.2,0.9-0.6,2.3-1.9,2.2
		c0.2,1.3-1.4,2-2.4,1.2C31.6,5.6,31.7,4.5,32.9,4L32.9,4z M32.3,3.8c-0.4,0.1-0.6,0.3-0.8,0.7c0.1-1-0.5-2-1.6-1.9
		c0.1-1.8-1.7-2.9-3.2-2c-0.9-0.8-2-0.6-2.6,0.1c-0.6,0.7-0.6,1.9,0.6,2.5c-0.3,1.2,0.8,2.5,2.2,2.2c0.1,0.4,0.4,0.6,0.7,0.7
		c-0.6,0-0.8,0.6-0.8,0.6c-1.8-0.5-2.7,0.7-2.7,2c-1.3,0.4-1.7,2-0.7,2.9c1,1,2.2,0.6,2.8-0.4c1.1,0.4,2.4-0.3,2.4-1.5
		c1.3,0.1,1.8-0.9,1.6-1.9l-0.4,0c-0.2,1-0.6,1.4-1.7,1.4c0,0.9-1.1,1.8-2.2,1.5c-0.3,0.8-1.3,1-1.9,0.4c-0.6-0.6-0.4-1.8,0.7-2
		c0-1.2,1.1-1.9,2.7-1.8c0.5-0.6,0.8-0.8,1.5-0.7l0-0.3c-0.6-0.1-1.4-0.7-1.4-1.3c-1.4,0.1-2.3-0.7-2.3-1.9
		c-0.9-0.4-0.7-1.3-0.4-1.7c0.5-0.6,1.2-0.5,1.7-0.1c1.6-0.6,2.8,0.6,2.8,2c0,0,0.7,0,1.1,0.4C31,4.2,31,4.6,31.2,5.2
		c0.1,0.5,0.4,1.2,1,1.7c1.1,0.9,2.9,0.6,3.1-1.2c1.5,0.1,2.5-1,2-2.5c1.1-0.8,0.8-2.3-0.1-2.9c-1.2-0.8-2.4,0-2.7,0.8
		C32.9,0.7,31.6,2.3,32.3,3.8L32.3,3.8z"/>
	<path class="st0" d="M39.3,12.7c0.1-0.5-0.6-0.6-0.7-0.1c-0.1,0.5-0.8,1.4-1.4,2l0.2,0.2C38.2,14.3,39.1,13.4,39.3,12.7L39.3,12.7z
		"/>
	<path class="st0" d="M42.8,3.8c0.2,0,0.5-0.2,0.5-0.5c0-0.2-0.2-0.5-0.5-0.5c-0.3,0-0.5,0.2-0.5,0.5C42.4,3.6,42.6,3.8,42.8,3.8
		L42.8,3.8z"/>
	<path class="st0" d="M49.5,4.2c0-0.3,0.2-0.5,0.5-0.5c0.3,0,0.5,0.2,0.5,0.5c0,0.3-0.2,0.5-0.5,0.5C49.8,4.8,49.5,4.5,49.5,4.2
		L49.5,4.2z"/>
	<path class="st0" d="M48.7,13.9c-3.5-0.3-7,0-7,0l0.2-0.6c3.3-0.2,6.8,0,6.8,0L48.7,13.9L48.7,13.9z"/>
	<path class="st0" d="M27.5,16.3c0,0,0.2,0.3,0.5,0.6c0.1,0.1,0.2,0.3,0.4,0.4c0.6,0.6,1.6,1.1,2.6,1.3c0.3,0.1,0.5,0.1,0.8,0.1
		c0.4,0,0.8-0.2,1-0.4l-0.4-0.4c-0.1,0-0.4,0-0.5,0c-1.4,0-3.2-0.9-3.6-2c0-0.1-0.1-0.2,0-0.3c0-0.1,0.1-0.3,0.1-0.5
		c0.1,0.1,0.3,0.2,0.5,0.4c0.5,0.3,1.5,0.8,1.7,0.9c0.5-0.1,0.9-0.3,1.2-0.5c0.3-0.2,0.7-0.3,1.2-0.3c1,0,2.2,0.6,3.3,1.1l0.8-0.3
		c-1-0.7-3.1-1.7-4.3-1.7c-0.7,0-1.4,0.5-1.8,0.5c-0.6,0-2.2-0.8-2.2-1.5c0-0.5,1.1-0.8,2.8-1c-0.3,0.4-0.6,0.9-0.8,1.4l0.4,0.2
		c2.7-3.9,5.5-6.5,7.9-8c0.9-0.6,1.1-0.9,1.4-1.5c0.7-1.5,1.4-2.7,2.6-2.7c0.6,0,1,0.3,1.3,0.7L45,3.2l-0.9,0.6L45,4.1
		c-1.2,0.3-2.8,1.5-3.4,3.2c-1.3,0.1-1.9,1.1-2.3,1.9c-0.3,0.6-0.7,0.8-1.4,1.2l-5.1,3.6l0.7,0.1l4.7-3.2c0.9-0.6,1.4-1.1,1.6-1.5
		c0.4-0.9,0.9-1.5,1.8-1.5c0.5,0,0.9,0.2,1.3,0.6l0.8,0.3L43,9.3l0.8,0.5c-2.2,0.7-3.5,2.2-4.3,5.2l0.6,0.1c0.3-1,0.6-1.9,1.1-2.7
		c1.3,0,2.5-0.1,3.8-0.1c3.3,0,6.1,0.1,7.6,0.6L52,12c-1.6-0.3-3.9-0.4-7.1-0.4c-1.1,0-2.1,0-3.2,0.1c0.7-0.7,1.7-1.3,3.2-1.8
		l-1.1-0.6L45,8.6L43.4,8c-0.3-0.3-0.6-0.5-1.1-0.6c0.5-1.6,2.3-2.6,4-3.2l-1.2-0.5L46.3,3l-1.9-0.6c-0.5-0.6-1-0.8-1.7-0.8
		c-1.7,0-2.5,1.5-3.1,2.8c-0.4,0.7-0.6,1-1.2,1.4c-1.3,0.9-3,2.2-4.6,3.9c-0.8-0.6-2.6-2.4-3-3.4c-0.2,0.2-0.4,0.7-0.4,0.7
		c0.2,0.2,2.2,2.2,3,3.1c-0.1,0.1-0.1,0.1-0.2,0.2c-0.8,0.2-2.9,0.4-3.6,0.3l-0.4,0.7c0.5-0.1,2.6-0.3,3.5-0.3
		c-0.3,0.3-0.5,0.6-0.8,1c-2.7,0.3-4.5,0.9-4.5,1.8c0,0.2,0.1,0.3,0.1,0.5c0,0.4-0.2,0.6-0.4,0.8c-0.2,0.1-0.2,0.2-0.1,0.3
		c0.4,0.7-0.9,1.1,0,2.3l0.8,0C27.8,17.8,27,17.4,27.5,16.3L27.5,16.3z"/>
	<path class="st0" d="M26.5,2.1l-0.3,0.3c0.4,0.5,2.1,2,2.9,2.6l0.3-0.4C28.9,4,27.3,2.5,26.5,2.1L26.5,2.1z"/>
	<path class="st0" d="M25.3,9.7l0.2,0.3c0.6-0.3,1.8-1.2,2.5-1.9l-0.2-0.3C27.1,8.2,25.9,9,25.3,9.7L25.3,9.7z"/>
	<path class="st0" d="M62.5,20.8c0-0.5-0.4-0.8-0.8-0.8l-1.3,0c-0.5,0-0.8,0.4-0.8,0.9l0,13.1c0,0.5,0.4,0.8,0.8,0.8h1.3
		c0.5,0,0.8-0.4,0.8-0.8V20.8L62.5,20.8z"/>
	<path class="st0" d="M64.1,21.2l0,0.6c0,0.3,0.2,0.5,0.5,0.5h8.7c0.4,0,0.7-0.3,0.7-0.7l0-1.1c0-0.4-0.3-0.8-0.7-0.7
		c0,0-8.4,0.8-8.6,0.9C64.2,20.7,64.1,20.9,64.1,21.2L64.1,21.2z"/>
	<path class="st0" d="M57.1,34.8c-2.2,0-3.5-1.6-3.5-3.4l0-5.2h-0.6c-0.3,0-0.6-0.3-0.6-0.6v-0.9c0-0.3,0.3-0.6,0.6-0.6l0.6,0l0-3.2
		c0-0.5,0.4-0.8,0.8-0.8h1.2c0.5,0,0.8,0.4,0.8,0.8l0,3.2h1.9c0.3,0,0.6,0.3,0.6,0.6v0.9c0,0.3-0.3,0.6-0.6,0.6l-1.9,0l0,4.9
		c0,1,0.6,1.6,1.6,1.6l0.2,0c0.4,0,0.6,0.3,0.6,0.6v1c0,0.4-0.3,0.6-0.6,0.6H57.1L57.1,34.8z"/>
	<path class="st0" d="M36.9,23.7c-3.5,0-5.4,2.7-5.4,5.6c0,3.1,2.1,5.8,5.5,5.8c2.3,0,4.6-1.2,5-3.2c0.1-0.3-0.1-0.6-0.5-0.6h-1.6
		c-0.3,0-0.5,0.1-0.7,0.4c-0.5,0.7-1.2,1.1-2.2,1.1c-1.4,0-2.4-1.1-2.5-2.4h7c0.6,0,0.9-0.4,0.9-0.9C42.3,26.5,40.7,23.7,36.9,23.7
		L36.9,23.7z M36.9,25.9c1.3,0,2.4,0.9,2.5,2.2h-5C34.5,26.8,35.6,25.9,36.9,25.9L36.9,25.9z"/>
	<path class="st0" d="M68.8,23.7c-3.5,0-5.4,2.7-5.4,5.6c0,3.1,2.1,5.8,5.5,5.8c2.3,0,4.6-1.2,5-3.2c0.1-0.3-0.1-0.6-0.5-0.6h-1.6
		c-0.3,0-0.5,0.1-0.7,0.4c-0.5,0.7-1.2,1.1-2.2,1.1c-1.4,0-2.4-1.1-2.5-2.4h7c0.6,0,0.9-0.4,0.9-0.9C74.2,26.5,72.5,23.7,68.8,23.7
		L68.8,23.7z M68.8,25.9c1.3,0,2.4,0.9,2.5,2.2h-5C66.4,26.8,67.5,25.9,68.8,25.9L68.8,25.9z"/>
	<path class="st0" d="M51.2,20.1H28.5c-0.5,0-0.9,0.4-0.9,0.9l0.1,8.9c0,0-4.9-8.8-5.1-9.3c-0.2-0.4-0.8-0.8-1.5-0.8h-1.9
		c-0.5,0-0.9,0.4-0.9,0.9l0,13.1c0,0.5,0.4,0.9,0.9,0.9h1.2c0.5,0,0.9-0.4,0.9-0.9l-0.1-9.2c0,0,4.9,8.9,5.1,9.3
		c0.3,0.5,0.8,0.8,1.5,0.8h1.7c0.5,0,0.9-0.4,0.9-0.9l0-11.5l20.7,0c0.4,0,0.6-0.3,0.6-0.6v-0.9C51.8,20.4,51.5,20.1,51.2,20.1
		L51.2,20.1z"/>
	<path class="st0" d="M47.5,25.8c1,0,1.7,0.4,2,1c0.1,0.3,0.4,0.4,0.7,0.4h1.4c0.2,0,0.5-0.2,0.5-0.5c0-1.6-1.9-3-4.5-3
		c-2.8,0-4.6,1.3-4.6,3.4c0,1.6,1.3,2.5,2.8,3c0.7,0.2,1.9,0.5,2.5,0.6c0.6,0.2,1.2,0.4,1.2,0.9c0,0.9-0.9,1.1-1.9,1.1
		c-0.9,0-1.9-0.4-2.1-1.1c-0.2-0.4-0.4-0.4-0.8-0.4h-1.4c-0.2,0-0.5,0.2-0.5,0.5v0.2c0,1.5,2,3.1,4.9,3.1c2,0,4.8-0.8,4.8-3.5
		c0-1.6-1-2.6-2.7-3.1c-0.7-0.2-2.3-0.6-2.6-0.7c-0.6-0.2-1.2-0.4-1.2-0.9C45.9,26.1,46.6,25.8,47.5,25.8L47.5,25.8z"/>
	<path class="st0" d="M62.5,20.8c0-0.5-0.4-0.8-0.8-0.8l-1.3,0c-0.5,0-0.8,0.4-0.8,0.9l0,13.1c0,0.5,0.4,0.8,0.8,0.8h1.3
		c0.5,0,0.8-0.4,0.8-0.8V20.8L62.5,20.8z"/>
	<path class="st0" d="M64.1,21.2l0,0.6c0,0.3,0.2,0.5,0.5,0.5h8.7c0.4,0,0.7-0.3,0.7-0.7l0-1.1c0-0.4-0.3-0.8-0.7-0.7
		c0,0-8.4,0.8-8.6,0.9C64.2,20.7,64.1,20.9,64.1,21.2L64.1,21.2z"/>
	<path class="st0" d="M57.1,34.8c-2.2,0-3.5-1.6-3.5-3.4l0-5.2h-0.6c-0.3,0-0.6-0.3-0.6-0.6v-0.9c0-0.3,0.3-0.6,0.6-0.6l0.6,0l0-3.2
		c0-0.5,0.4-0.8,0.8-0.8h1.2c0.5,0,0.8,0.4,0.8,0.8l0,3.2h1.9c0.3,0,0.6,0.3,0.6,0.6v0.9c0,0.3-0.3,0.6-0.6,0.6l-1.9,0l0,4.9
		c0,1,0.6,1.6,1.6,1.6l0.2,0c0.4,0,0.6,0.3,0.6,0.6v1c0,0.4-0.3,0.6-0.6,0.6H57.1L57.1,34.8z"/>
	<path class="st0" d="M42.3,29.2c0-2.8-1.7-5.6-5.4-5.6c-3.5,0-5.4,2.7-5.4,5.6c0,3.1,2.1,5.8,5.5,5.8c2.3,0,4.6-1.2,5-3.2
		c0.1-0.3-0.1-0.6-0.5-0.6h-1.6c-0.3,0-0.5,0.1-0.7,0.4c-0.5,0.7-1.2,1.1-2.2,1.1c-1.4,0-2.4-1.1-2.5-2.4h7
		C42,30.2,42.3,29.8,42.3,29.2L42.3,29.2z M34.4,28.1c0.1-1.2,1.2-2.2,2.5-2.2c1.3,0,2.4,0.9,2.5,2.2H34.4L34.4,28.1z"/>
	<path class="st0" d="M74.2,29.2c0-2.8-1.7-5.6-5.4-5.6c-3.5,0-5.4,2.7-5.4,5.6c0,3.1,2.1,5.8,5.5,5.8c2.3,0,4.6-1.2,5-3.2
		c0.1-0.3-0.1-0.6-0.5-0.6h-1.6c-0.3,0-0.5,0.1-0.7,0.4c-0.5,0.7-1.2,1.1-2.2,1.1c-1.4,0-2.4-1.1-2.5-2.4h7
		C73.9,30.2,74.2,29.8,74.2,29.2L74.2,29.2z M66.3,28.1c0.1-1.2,1.2-2.2,2.5-2.2c1.3,0,2.4,0.9,2.5,2.2H66.3L66.3,28.1z"/>
	<path class="st0" d="M51.2,20.1H28.5c-0.5,0-0.9,0.4-0.9,0.9l0.1,8.9c0,0-4.9-8.8-5.1-9.3c-0.2-0.4-0.8-0.8-1.5-0.8h-1.9
		c-0.5,0-0.9,0.4-0.9,0.9l0,13.1c0,0.5,0.4,0.9,0.9,0.9h1.2c0.5,0,0.9-0.4,0.9-0.9l-0.1-9.2c0,0,4.9,8.9,5.1,9.3
		c0.3,0.5,0.8,0.8,1.5,0.8h1.7c0.5,0,0.9-0.4,0.9-0.9l0-11.5l20.7,0c0.4,0,0.6-0.3,0.6-0.6v-0.9C51.8,20.4,51.5,20.1,51.2,20.1
		L51.2,20.1z"/>
	<path class="st0" d="M47.5,25.8c1,0,1.7,0.4,2,1c0.1,0.3,0.4,0.4,0.7,0.4h1.4c0.2,0,0.5-0.2,0.5-0.5c0-1.6-1.9-3-4.5-3
		c-2.8,0-4.6,1.3-4.6,3.4c0,1.6,1.3,2.5,2.8,3c0.7,0.2,1.9,0.5,2.5,0.6c0.6,0.2,1.2,0.4,1.2,0.9c0,0.9-0.9,1.1-1.9,1.1
		c-0.9,0-1.9-0.4-2.1-1.1c-0.2-0.4-0.4-0.4-0.8-0.4h-1.4c-0.2,0-0.5,0.2-0.5,0.5v0.2c0,1.5,2,3.1,4.9,3.1c2,0,4.8-0.8,4.8-3.5
		c0-1.6-1-2.6-2.7-3.1c-0.7-0.2-2.3-0.6-2.6-0.7c-0.6-0.2-1.2-0.4-1.2-0.9C45.9,26.1,46.6,25.8,47.5,25.8L47.5,25.8z"/>
	<path class="st0" d="M75.2,34.2h-0.3v-1.4h0.5c0.4,0,0.6,0.1,0.6,0.4c0,0.3-0.2,0.4-0.3,0.4l0.4,0.6h-0.4l-0.3-0.6h-0.1V34.2
		L75.2,34.2z M75.4,33.4c0.1,0,0.2,0,0.2-0.2c0-0.1-0.2-0.2-0.3-0.2h-0.2v0.3H75.4L75.4,33.4z M75.4,34.9c-0.7,0-1.3-0.5-1.3-1.3
		c0-0.8,0.6-1.3,1.3-1.3c0.7,0,1.3,0.5,1.3,1.3C76.7,34.4,76.1,34.9,75.4,34.9L75.4,34.9z M75.4,32.5c-0.5,0-1,0.4-1,1
		c0,0.6,0.4,1,1,1v0c0.5,0,1-0.4,1-1C76.3,32.9,75.9,32.5,75.4,32.5L75.4,32.5z"/>
</g>
</svg>
