<?xml version="1.0" encoding="utf-8"?>
<!-- Generator: Adobe Illustrator 26.0.1, SVG Export Plug-In . SVG Version: 6.00 Build 0)  -->
<svg version="1.1" id="Layer_1" xmlns="http://www.w3.org/2000/svg" xmlns:xlink="http://www.w3.org/1999/xlink" x="0px" y="0px"
	 viewBox="0 0 95 35" style="enable-background:new 0 0 95 35;" xml:space="preserve">
<style type="text/css">
	.st0{fill:#FFFFFF;}
</style>
<g>
	<path class="st0" d="M24.3,23.5c0,0.9,0.2,1.2,0.4,1.3c0.2,0.1,0.4,0.1,0.6,0.1c0.1,0,0.2,0,0.2,0.1c0,0.1-0.1,0.1-0.3,0.1
		c-0.7,0-1.2,0-1.4,0c-0.1,0-0.6,0-1.2,0c-0.1,0-0.3,0-0.3-0.1c0-0.1,0.1-0.1,0.2-0.1c0.1,0,0.4,0,0.5-0.1c0.3-0.1,0.3-0.4,0.4-1.4
		l0.1-6.7c0-0.2,0-0.4,0.1-0.4c0.1,0,0.2,0.1,0.4,0.4c0.1,0.1,1.9,2,3.5,3.6c0.8,0.8,2.3,2.4,2.5,2.6h0.1l-0.1-5.1
		c0-0.7-0.1-0.9-0.4-1c-0.2-0.1-0.4-0.1-0.6-0.1c-0.1,0-0.2,0-0.2-0.1c0-0.1,0.1-0.1,0.3-0.1c0.6,0,1.1,0,1.4,0c0.1,0,0.6,0,1.1,0
		c0.1,0,0.3,0,0.3,0.1c0,0.1-0.1,0.1-0.2,0.1c-0.1,0-0.2,0-0.3,0c-0.3,0.1-0.4,0.3-0.4,1l-0.1,7.1c0,0.2,0,0.4-0.1,0.4
		c-0.1,0-0.3-0.1-0.4-0.2c-0.7-0.7-2.2-2.2-3.3-3.3c-1.2-1.2-2.5-2.6-2.7-2.9h0L24.3,23.5"/>
	<path class="st0" d="M41.6,21c0-2.5-1.5-4.1-3.3-4.1c-1.3,0-2.8,0.7-2.8,3.5c0,2.4,1.3,4.2,3.5,4.2C39.8,24.6,41.6,24.2,41.6,21
		 M34,20.8c0-1.9,1.3-4.4,4.7-4.4c2.8,0,4.6,1.6,4.6,4.2c0,2.6-1.8,4.6-4.7,4.6C35.3,25.2,34,22.8,34,20.8z"/>
	<path class="st0" d="M45.6,17.6c-0.3-0.6-0.5-0.7-0.9-0.9c-0.2,0-0.4,0-0.4,0c-0.1,0-0.1,0-0.1-0.1c0-0.1,0.1-0.1,0.3-0.1
		c0.6,0,1.2,0,1.6,0c0.3,0,0.8,0,1.4,0c0.1,0,0.3,0,0.3,0.1c0,0.1-0.1,0.1-0.2,0.1c-0.2,0-0.3,0-0.4,0.1C47.1,16.8,47,16.9,47,17
		c0,0.1,0.1,0.5,0.3,0.9l1.9,5.1h0c0.5-1.2,2-4.9,2.2-5.6c0.1-0.1,0.1-0.3,0.1-0.4c0-0.1,0-0.2-0.1-0.2c-0.1,0-0.3-0.1-0.5-0.1
		c-0.1,0-0.2,0-0.2-0.1c0-0.1,0.1-0.1,0.3-0.1c0.6,0,1,0,1.2,0c0.2,0,0.7,0,1.1,0c0.1,0,0.2,0,0.2,0.1c0,0.1-0.1,0.1-0.2,0.1
		c-0.1,0-0.4,0-0.6,0.1c-0.1,0.1-0.3,0.3-0.6,1c-0.4,1.1-0.7,1.7-1.4,3.1c-0.7,1.7-1.3,2.9-1.5,3.5c-0.3,0.7-0.4,0.8-0.5,0.8
		c-0.1,0-0.2-0.2-0.4-0.7L45.6,17.6"/>
	<path class="st0" d="M58.4,21.5C58.4,21.5,58.4,21.5,58.4,21.5l-1-2.9c0,0,0-0.1-0.1-0.1s-0.1,0.1-0.1,0.1l-1,2.8c0,0,0,0.1,0,0.1
		H58.4 M56.1,22.1C56,22.1,56,22.1,56.1,22.1l-0.7,1.7c-0.1,0.3-0.2,0.6-0.2,0.7c0,0.2,0.1,0.4,0.5,0.4h0.2c0.1,0,0.2,0,0.2,0.1
		c0,0.1-0.1,0.1-0.2,0.1c-0.4,0-0.8,0-1.2,0c-0.1,0-0.7,0-1.3,0c-0.1,0-0.2,0-0.2-0.1c0-0.1,0-0.1,0.1-0.1c0.1,0,0.3,0,0.4,0
		c0.5-0.1,0.7-0.5,1-1l2.8-7.1c0.1-0.3,0.2-0.5,0.3-0.5c0.1,0,0.2,0.1,0.3,0.4c0.3,0.6,2.1,5.2,2.8,7c0.4,1,0.8,1.2,1,1.2
		c0.2,0,0.3,0,0.5,0c0.1,0,0.1,0,0.1,0.1c0,0.1-0.1,0.1-0.5,0.1c-0.4,0-1.2,0-2.1,0c-0.2,0-0.3,0-0.3-0.1c0-0.1,0-0.1,0.2-0.1
		c0.1,0,0.2-0.1,0.1-0.3l-0.9-2.4c0-0.1-0.1-0.1-0.1-0.1H56.1z"/>
	<path class="st0" d="M66.3,20.7c0,0.1,0,0.2,0.1,0.2c0.2,0.1,0.6,0.1,0.9,0.1c0.5,0,0.6,0,0.8-0.2c0.3-0.2,0.7-0.8,0.7-1.7
		c0-1.6-1.1-2.1-1.7-2.1c-0.3,0-0.5,0-0.6,0c-0.1,0-0.1,0.1-0.1,0.2V20.7 M65,19.8c0-1.7,0-2,0-2.4c0-0.4-0.1-0.6-0.5-0.6
		c-0.1,0-0.3,0-0.4,0c-0.1,0-0.2,0-0.2-0.1c0-0.1,0.1-0.1,0.2-0.1c0.6,0,1.3,0,1.6,0c0.4,0,1.2,0,1.6,0c0.7,0,1.5,0.1,2.1,0.5
		c0.3,0.2,0.8,0.8,0.8,1.6c0,0.8-0.4,1.6-1.5,2.5c1,1.3,1.8,2.3,2.5,3c0.6,0.7,1.1,0.7,1.3,0.8c0.1,0,0.2,0,0.3,0
		c0.1,0,0.1,0,0.1,0.1c0,0.1-0.1,0.1-0.2,0.1h-1.1c-0.6,0-0.9-0.1-1.2-0.2c-0.5-0.3-0.9-0.8-1.6-1.7c-0.5-0.6-1-1.4-1.1-1.6
		c-0.1-0.1-0.1-0.1-0.2-0.1l-1,0c-0.1,0-0.1,0-0.1,0.1v0.2c0,1.1,0,1.9,0.1,2.4c0,0.3,0.1,0.6,0.4,0.6c0.2,0,0.4,0,0.6,0
		c0.1,0,0.1,0,0.1,0.1c0,0.1-0.1,0.1-0.2,0.1c-0.7,0-1.5,0-1.7,0c-0.2,0-0.9,0-1.4,0c-0.1,0-0.2,0-0.2-0.1c0-0.1,0-0.1,0.2-0.1
		c0.2,0,0.3,0,0.4,0c0.2,0,0.3-0.3,0.3-0.6c0.1-0.5,0.1-1.4,0.1-2.4V19.8z"/>
	<path class="st0" d="M76.4,17.1l-1.7,0c-0.7,0-0.9,0.1-1.1,0.3c-0.1,0.2-0.2,0.3-0.2,0.4c0,0.1-0.1,0.1-0.1,0.1
		c-0.1,0-0.1-0.1-0.1-0.2c0-0.2,0.2-1.2,0.2-1.3c0-0.1,0.1-0.2,0.1-0.2c0.1,0,0.2,0.1,0.5,0.1c0.3,0,0.8,0.1,1.1,0.1h4.5
		c0.7,0,1-0.1,1.1-0.1c0.1,0,0.1,0.1,0.1,0.2c0,0.2,0,1,0,1.3c0,0.1,0,0.2-0.1,0.2c-0.1,0-0.1-0.1-0.1-0.2l0-0.1
		c0-0.3-0.3-0.6-1.3-0.6l-1.4,0v4.6c0,1,0,1.9,0.1,2.4c0,0.3,0.1,0.6,0.4,0.6c0.2,0,0.4,0,0.6,0c0.1,0,0.2,0,0.2,0.1
		c0,0.1-0.1,0.1-0.2,0.1c-0.7,0-1.5,0-1.8,0c-0.3,0-1,0-1.4,0c-0.1,0-0.2,0-0.2-0.1c0-0.1,0-0.1,0.2-0.1c0.2,0,0.3,0,0.4,0
		c0.2,0,0.3-0.3,0.3-0.6c0.1-0.5,0.1-1.4,0.1-2.4V17.1"/>
	<path class="st0" d="M84.6,19.8c0-1.7,0-2,0-2.4c0-0.4-0.1-0.6-0.4-0.6c-0.1,0-0.3,0-0.4,0c-0.1,0-0.2,0-0.2-0.1
		c0-0.1,0.1-0.1,0.3-0.1c0.4,0,1.1,0,1.5,0c0.3,0,1,0,1.4,0c0.1,0,0.2,0,0.2,0.1c0,0.1-0.1,0.1-0.2,0.1c-0.1,0-0.2,0-0.3,0
		c-0.3,0.1-0.4,0.2-0.4,0.6c0,0.4,0,0.7,0,2.4v2c0,1.1,0,2,0,2.5c0,0.3,0.1,0.5,0.5,0.6c0.2,0,0.4,0,0.6,0c0.1,0,0.2,0,0.2,0.1
		c0,0.1-0.1,0.1-0.2,0.1c-0.7,0-1.5,0-1.8,0c-0.3,0-1,0-1.4,0c-0.1,0-0.2,0-0.2-0.1c0-0.1,0-0.1,0.2-0.1c0.2,0,0.3,0,0.4,0
		c0.2,0,0.3-0.2,0.3-0.6c0.1-0.5,0.1-1.4,0.1-2.5V19.8"/>
	<g>
		<path class="st0" d="M90.5,24.9c-0.2-0.1-0.2-0.1-0.2-0.4c0-0.6,0-1.3,0.1-1.5c0-0.2,0-0.3,0.1-0.3c0.1,0,0.1,0.1,0.1,0.2
			c0,0.1,0,0.4,0.1,0.6c0.2,0.8,0.9,1.1,1.6,1.1c1,0,1.5-0.7,1.5-1.3c0-0.6-0.2-1.1-1.1-1.8l-0.5-0.4c-1.2-1-1.7-1.8-1.7-2.7
			c0-1.2,1-2.1,2.6-2.1c0.7,0,1.2,0.1,1.5,0.2c0.1,0,0.2,0.1,0.2,0.1c0,0.1,0,0.5,0,1.4c0,0.2,0,0.3-0.1,0.3c-0.1,0-0.1-0.1-0.1-0.2
			c0-0.1-0.1-0.5-0.3-0.7c-0.2-0.2-0.5-0.6-1.2-0.6c-0.8,0-1.3,0.5-1.3,1.2c0,0.5,0.3,0.9,1.2,1.6l0.3,0.2c1.4,1.1,1.9,1.8,1.9,2.9
			c0,0.7-0.2,1.4-1.1,2c-0.6,0.4-1.2,0.5-1.8,0.5C91.5,25.2,91,25.1,90.5,24.9"/>
		<path class="st0" d="M6.9,25.8c-6.3-0.5-8.2-4.1-6.1-8.2c1.1-2.2,2.9-4.5,0.8-6.7c-0.1-0.1,0-0.1,0.1-0.1c4.7,1.9,2.3,5.7,1.5,7.2
			C1.6,21.1,2.6,24.9,6.9,25.8C7,25.7,7,25.8,6.9,25.8"/>
	</g>
	<path class="st0" d="M7.7,22.3L8.8,9.2l-2.5,0L7.7,22.3C7.7,22.4,7.7,22.4,7.7,22.3"/>
	<path class="st0" d="M10.6,15.7c1.6,1.2,4.1,8-2.1,10c-0.1,0-0.1,0.1,0,0.1C18.3,24.6,14.9,17.5,10.6,15.7
		C10.6,15.6,10.5,15.7,10.6,15.7"/>
</g>
</svg>
