<?xml version="1.0" encoding="utf-8"?>
<!-- Generator: Adobe Illustrator 26.0.1, SVG Export Plug-In . SVG Version: 6.00 Build 0)  -->
<svg version="1.1" id="Layer_1" xmlns="http://www.w3.org/2000/svg" xmlns:xlink="http://www.w3.org/1999/xlink" x="0px" y="0px"
	 viewBox="0 0 95 35" style="enable-background:new 0 0 95 35;" xml:space="preserve">
<style type="text/css">
	.st0{fill:#FFFFFF;}
</style>
<g>
	<path class="st0" d="M2.6,11.8h0.9c0.8,0,1.3,0.2,1.7,0.5c0.3,0.3,0.5,0.9,0.5,1.7c0,0.9-0.2,1.6-0.7,2.1c-0.4,0.5-1.1,0.7-2,0.7
		H2.6L2.6,11.8L2.6,11.8z M3,17.1c1.4,0,2.4-0.3,3.1-0.8c0.7-0.5,1-1.3,1-2.4c0-1.7-1-2.6-2.9-2.6l-0.5,0l-1,0H0v0.4l0.1,0
		c0.5,0,0.9,0.1,1,0.2c0.1,0.1,0.1,0.5,0.1,1.1v6.5c0,0.6-0.1,1-0.1,1.1c-0.1,0.1-0.4,0.2-1,0.2l-0.1,0v0.4h4v-0.4l-0.3,0
		c-0.5,0-0.8-0.1-0.9-0.2c-0.1-0.1-0.2-0.5-0.2-1.1v-2.4L3,17.1L3,17.1z"/>
	<path class="st0" d="M10.2,20.6c-0.4,0-0.7-0.1-1-0.4c-0.3-0.3-0.4-0.6-0.4-1c0-0.6,0.2-1,0.7-1.3c0.4-0.3,1-0.5,1.8-0.5h0.3v2.8
		C11.1,20.5,10.6,20.6,10.2,20.6z M13.1,21.4c0.2,0,0.5-0.1,0.9-0.2l0-0.5c-0.1,0-0.3,0.1-0.4,0.1c-0.2,0-0.4-0.1-0.5-0.4
		c-0.1-0.2-0.1-0.6-0.1-1.2V16c0-1.5-0.8-2.2-2.4-2.2c-0.8,0-1.7,0.2-2.6,0.6v1.3h0.9l0-0.1c0.1-0.5,0.2-0.8,0.3-0.9
		c0.3-0.2,0.7-0.4,1.1-0.4c0.9,0,1.3,0.6,1.3,1.7v0.9h-0.3c-1.5,0-2.5,0.2-3.1,0.7c-0.5,0.4-0.8,1-0.8,1.7c0,0.6,0.2,1.1,0.6,1.5
		c0.4,0.4,0.9,0.6,1.5,0.6c0.8,0,1.6-0.4,2.3-1.2C12.1,21,12.5,21.4,13.1,21.4z"/>
	<path class="st0" d="M17,16v3.6c0,0.6,0.1,1,0.2,1.1c0.1,0.1,0.4,0.2,1,0.2l0.3,0v0.4h-4v-0.4l0.1,0c0.5,0,0.9-0.1,1-0.2
		s0.1-0.5,0.1-1.1v-3.8c0-0.6-0.1-1-0.1-1.1c-0.1-0.1-0.4-0.2-1-0.2l-0.1,0V14H17v1.4c0.6-1,1.4-1.5,2.4-1.5c0.1,0,0.3,0,0.4,0.1v2
		h-0.7l0-0.1C19,15.3,19,15.1,19,15c0-0.1-0.1-0.1-0.3-0.1C18,14.9,17.4,15.3,17,16z"/>
	<path class="st0" d="M24.7,21.2c-0.3,0.1-0.7,0.2-1,0.2c-0.8,0-1.3-0.2-1.7-0.6c-0.4-0.4-0.5-1-0.5-1.9v-4.5h-1.1V14h1.1v-1.3
		l1.3-0.3V14h2v0.5h-2v4.7c0,0.6,0.1,1.1,0.2,1.3c0.2,0.3,0.4,0.4,0.8,0.4c0.2,0,0.5-0.1,0.8-0.2L24.7,21.2L24.7,21.2z"/>
	<path class="st0" d="M28.1,15.3c0.3-0.5,0.7-0.9,1.2-1.1c0.4-0.3,0.9-0.4,1.5-0.4c0.6,0,1.1,0.2,1.5,0.6c0.4,0.4,0.5,1,0.5,1.7v3.4
		c0,0.7,0.1,1,0.2,1.1c0.1,0.1,0.4,0.1,1,0.2l0.1,0v0.4h-3.8v-0.4l0.1,0c0.6,0,0.9-0.1,1-0.2c0.1-0.1,0.1-0.5,0.2-1.1v-3.2
		c0-0.6-0.1-1.1-0.2-1.3c-0.2-0.2-0.5-0.4-0.9-0.4c-0.3,0-0.6,0.1-1,0.3s-0.8,0.5-1.2,0.8v3.8c0,0.6,0.1,1,0.1,1.1
		c0.1,0.1,0.4,0.2,1,0.2l0.1,0v0.4h-3.8v-0.4l0.1,0c0.5,0,0.9-0.1,1-0.2s0.1-0.5,0.1-1.1v-3.8c0-0.6-0.1-1-0.1-1.1
		c-0.1-0.1-0.4-0.2-1-0.2l-0.1,0V14h2.6L28.1,15.3L28.1,15.3z"/>
	<path class="st0" d="M36,14.9c0.3-0.5,0.7-0.7,1.2-0.7s0.9,0.2,1.1,0.6c0.2,0.4,0.3,1,0.3,1.8l0,0.3h-3
		C35.6,16.1,35.7,15.4,36,14.9z M40,20.2c-0.6,0.3-1.3,0.5-2.1,0.5c-0.8,0-1.4-0.3-1.8-0.9c-0.4-0.6-0.6-1.4-0.6-2.6H40v-0.1
		c0-1.1-0.2-1.9-0.7-2.5c-0.5-0.6-1.1-0.9-2-0.9c-0.9,0-1.7,0.4-2.3,1c-0.6,0.7-0.9,1.6-0.9,2.7c0,1.2,0.3,2.1,1,2.8
		c0.7,0.7,1.5,1.1,2.6,1.1c0.7,0,1.5-0.2,2.3-0.5V20.2z"/>
	<path class="st0" d="M43.3,16v3.6c0,0.6,0.1,1,0.2,1.1s0.4,0.2,1,0.2l0.3,0v0.4h-4v-0.4l0.1,0c0.5,0,0.9-0.1,1-0.2
		c0.1-0.1,0.1-0.5,0.1-1.1v-3.8c0-0.6-0.1-1-0.1-1.1c-0.1-0.1-0.4-0.2-1-0.2l-0.1,0V14h2.6v1.4c0.6-1,1.4-1.5,2.4-1.5
		c0.1,0,0.3,0,0.4,0.1v2h-0.7l0-0.1c-0.1-0.4-0.1-0.7-0.1-0.7c0-0.1-0.1-0.1-0.3-0.1C44.2,14.9,43.7,15.3,43.3,16z"/>
	<path class="st0" d="M46.8,20.9V19h0.7l0,0.1c0.1,0.7,0.1,1,0.1,1.1c0,0.1,0.1,0.2,0.4,0.3c0.4,0.3,0.9,0.4,1.4,0.4
		c0.4,0,0.7-0.1,1-0.4c0.3-0.2,0.4-0.6,0.4-1c0-0.3-0.1-0.6-0.3-0.8c-0.2-0.2-0.5-0.4-0.9-0.6l-0.7-0.3c-0.7-0.3-1.3-0.6-1.6-1
		c-0.3-0.4-0.5-0.8-0.5-1.3c0-0.6,0.2-1.1,0.7-1.5c0.5-0.4,1.1-0.6,1.8-0.6c0.7,0,1.5,0.1,2.2,0.4V16h-0.7v-0.1
		c0-0.4-0.1-0.7-0.1-0.9c0-0.2-0.1-0.3-0.2-0.4c-0.3-0.2-0.7-0.3-1.1-0.3c-0.4,0-0.7,0.1-1,0.4c-0.3,0.2-0.4,0.6-0.4,0.9
		c0,0.3,0.1,0.6,0.3,0.7c0.2,0.2,0.6,0.4,1.3,0.7l0.6,0.3c0.7,0.3,1.2,0.6,1.4,0.9c0.3,0.3,0.4,0.7,0.4,1.2c0,0.7-0.3,1.2-0.8,1.6
		c-0.5,0.4-1.2,0.6-2,0.6C48.4,21.4,47.6,21.2,46.8,20.9z"/>
	<path class="st0" d="M64.5,21c-1.3,0.3-2.4,0.5-3.2,0.5c-1.5,0-2.6-0.5-3.5-1.4c-0.9-0.9-1.3-2.2-1.3-3.8c0-1.6,0.4-2.9,1.3-3.8
		c0.8-0.9,2-1.4,3.6-1.4c0.5,0,1.1,0,1.6,0.1c0.5,0.1,1,0.2,1.6,0.4v1.8h-0.7l0-0.1c0-0.1,0-0.2,0-0.4c0-0.4-0.2-0.7-0.6-1
		c-0.4-0.2-1-0.4-1.7-0.4c-1.1,0-2,0.4-2.6,1.3c-0.6,0.8-0.9,2-0.9,3.6c0,1.4,0.3,2.6,1,3.4c0.7,0.8,1.6,1.2,2.8,1.2
		c0.4,0,0.8-0.1,1.4-0.2v-1.9c0-0.6-0.1-1-0.1-1.1c-0.1-0.1-0.4-0.2-1-0.2l-0.1,0V17h3.9v0.4l-0.1,0c-0.5,0-0.9,0.1-1,0.2
		c-0.1,0.1-0.1,0.5-0.1,1.1L64.5,21L64.5,21z"/>
	<path class="st0" d="M68.5,16v3.6c0,0.6,0.1,1,0.2,1.1s0.4,0.2,1,0.2l0.3,0v0.4h-4v-0.4l0.1,0c0.5,0,0.9-0.1,1-0.2
		c0.1-0.1,0.1-0.5,0.1-1.1v-3.8c0-0.6-0.1-1-0.1-1.1c-0.1-0.1-0.4-0.2-1-0.2l-0.1,0V14h2.6v1.4c0.6-1,1.4-1.5,2.4-1.5
		c0.1,0,0.3,0,0.4,0.1v2h-0.7l0-0.1c-0.1-0.4-0.1-0.7-0.1-0.7c0-0.1-0.1-0.1-0.3-0.1C69.5,14.9,69,15.3,68.5,16z"/>
	<path class="st0" d="M73.7,20.1c-0.4-0.6-0.6-1.5-0.6-2.4c0-1,0.2-1.8,0.6-2.4c0.4-0.7,0.9-1,1.5-1c0.6,0,1.1,0.3,1.5,1
		c0.4,0.7,0.6,1.5,0.6,2.4c0,1-0.2,1.8-0.6,2.4s-0.9,1-1.5,1C74.6,21,74.1,20.7,73.7,20.1z M77.7,20.4c0.6-0.7,0.9-1.6,0.9-2.8
		c0-1.2-0.3-2.1-0.9-2.8c-0.6-0.7-1.5-1-2.5-1c-1.1,0-1.9,0.3-2.5,1c-0.6,0.7-0.9,1.6-0.9,2.8c0,1.2,0.3,2.1,0.9,2.8
		c0.6,0.7,1.5,1,2.5,1C76.3,21.4,77.1,21.1,77.7,20.4z"/>
	<path class="st0" d="M84.7,21.3v-1.4c-0.3,0.5-0.7,0.9-1.2,1.1c-0.4,0.3-0.9,0.4-1.5,0.4c-0.6,0-1.1-0.2-1.5-0.6
		c-0.4-0.4-0.5-1-0.5-1.7v-3.4c0-0.6-0.1-1-0.1-1.1c-0.1-0.1-0.4-0.2-1-0.2l-0.1,0V14h2.6v4.9c0,0.6,0.1,1,0.3,1.3
		c0.2,0.3,0.5,0.4,0.9,0.4c0.4,0,0.7-0.1,1.1-0.3c0.4-0.2,0.7-0.5,1-0.8v-3.7c0-0.7-0.1-1-0.2-1.1c-0.1-0.1-0.4-0.1-1-0.2l-0.1,0
		v-0.4H86v5.6c0,0.7,0.1,1,0.1,1.1c0.1,0.1,0.4,0.1,1,0.2l0.1,0v0.4L84.7,21.3L84.7,21.3z"/>
	<path class="st0" d="M89.7,15.8c0.3-0.4,0.6-0.7,1-0.9c0.3-0.2,0.7-0.3,1.1-0.3c0.6,0,1,0.3,1.3,0.8c0.3,0.5,0.4,1.3,0.4,2.3
		c0,1-0.1,1.7-0.5,2.2c-0.3,0.5-0.8,0.7-1.4,0.7c-0.3,0-0.7-0.1-1-0.2c-0.3-0.1-0.7-0.3-1-0.6L89.7,15.8L89.7,15.8z M90.7,21.2
		c0.4,0.2,0.8,0.2,1.2,0.2c0.9,0,1.7-0.4,2.2-1.1c0.6-0.7,0.8-1.7,0.8-2.9c0-1.1-0.2-2-0.7-2.6s-1.1-1-2-1c-0.5,0-1,0.1-1.4,0.4
		c-0.4,0.3-0.8,0.6-1.1,1.1l0-1.4h-2.6v0.4l0.1,0c0.5,0,0.9,0.1,1,0.2c0.1,0.1,0.1,0.5,0.1,1.1v6.5c0,0.6-0.1,1-0.1,1.1
		c-0.1,0.1-0.4,0.2-1,0.2l-0.1,0v0.4H91v-0.4l-0.1,0c-0.5,0-0.9-0.1-1-0.2c-0.1-0.1-0.1-0.5-0.1-1.1l0-1.8
		C90,20.8,90.4,21,90.7,21.2z"/>
</g>
</svg>
