<?xml version="1.0" encoding="utf-8"?>
<!-- Generator: Adobe Illustrator 26.0.1, SVG Export Plug-In . SVG Version: 6.00 Build 0)  -->
<svg version="1.1" id="Layer_1" xmlns="http://www.w3.org/2000/svg" xmlns:xlink="http://www.w3.org/1999/xlink" x="0px" y="0px"
	 viewBox="0 0 95 35" style="enable-background:new 0 0 95 35;" xml:space="preserve">
<style type="text/css">
	.st0{fill:#FFFFFF;}
</style>
<g>
	<path class="st0" d="M59.4,13.4c-0.4-0.3-1.1-0.5-1.7-0.5c-0.7,0-1.4,0.2-1.8,0.6V9.1h-2.2v14.4h2.2V16c0-0.5,0.4-1.1,1.3-1.1
		c0.4,0,0.9,0.1,1.1,0.5c0.3,0.4,0.3,0.9,0.3,1.5l0,6.6h2.2v-6.7C60.6,14.9,60.4,14.2,59.4,13.4 M41.6,18.4c0,1.4,0,1.8-0.1,1.9
		c-0.1,0.8-0.4,1.6-1.3,1.6c-0.9,0-1.3-0.9-1.3-1.6c0,0-0.1-0.5-0.1-1.9c0-1.4,0.1-2,0.1-2c0-0.8,0.4-1.6,1.3-1.6
		c0.9,0,1.3,0.8,1.3,1.6C41.6,16.4,41.6,17,41.6,18.4 M43.7,16.7c-0.3-3.1-2.1-3.7-3.5-3.7c-2,0-3.3,1.3-3.5,3.7
		c0,0.2,0,0.6-0.1,1.7c0,0.8,0,1.5,0.1,1.7c0.1,2.3,1.4,3.7,3.5,3.7c2.1,0,3.4-1.4,3.5-3.7c0-0.2,0.1-0.9,0.1-1.7
		C43.8,18,43.8,17,43.7,16.7L43.7,16.7z M64.3,17.1c0-0.5,0-0.6,0-0.7c0.1-0.9,0.4-1.6,1.3-1.6c1,0,1.3,1,1.3,1.6c0,0.3,0,0.5,0,0.7
		H64.3 M67,20c0,0,0,0.2,0,0.4c-0.1,0.5-0.3,1.6-1.3,1.6c-0.9,0-1.3-0.8-1.3-1.6c0-0.2-0.1-0.5-0.1-1.4h4.9c0,0,0-0.7,0-1.2
		c0-0.2,0-0.5-0.1-1.1c-0.1-0.9-0.4-1.9-0.9-2.6c-0.6-0.8-1.5-1.2-2.5-1.2c-2,0-3.2,1.3-3.4,3.7c0,0.2-0.1,0.5-0.1,1.7
		c0,0.8,0,1.5,0.1,1.7c0.1,2.2,1.5,3.7,3.4,3.7c2,0,3.3-1.4,3.4-3.8H67z"/>
	<path class="st0" d="M29.8,1.8h35.5l13.6,15.9L65.3,33.3H29.8L16.1,17.6L29.8,1.8 M66.2,0H28.9L13.8,17.6L28.9,35h37.2l15.1-17.4
		L66.2,0z"/>
	<path class="st0" d="M30.2,11.1h1c1.1,0,1.7,0.6,1.8,1.7c0,0.1,0,0.2,0,0.3c0,0.2,0,0.3,0,0.3c-0.1,0.6-0.3,1.7-1.7,1.7h-1.1
		L30.2,11.1 M35.4,22.6l-0.2-3.5c-0.1-1.6-0.5-2.5-1.3-3c0.6-0.4,1.4-1.2,1.3-3.1c0-2.8-1.7-3.8-3.8-3.8H28v14.3h2.2l0-6.5h1.2
		c0.7,0,1.5,0.6,1.6,2.3l0.2,3.3c0,0.5,0.1,0.9,0.1,0.9h2.2C35.5,23.5,35.4,23.1,35.4,22.6L35.4,22.6z M50.1,19.9c0,0.2,0,0.3,0,0.4
		c-0.1,0.8-0.3,1.6-1.3,1.6c-0.9,0-1.3-0.9-1.3-1.6c0-0.4,0-0.7,0-1.9c0-1.4,0-1.8,0.1-2c0.1-0.9,0.4-1.6,1.3-1.6
		c0.9,0,1.3,0.8,1.3,1.6c0,0,0,0.2,0,0.6h2.2c0-0.1,0-0.3,0-0.3c-0.2-3-2.1-3.7-3.5-3.7c-2,0-3.3,1.3-3.5,3.7c0,0.2,0,0.6-0.1,1.7
		c0,0.8,0,1.5,0.1,1.7c0.1,2.3,1.4,3.7,3.5,3.7c2.1,0,3.3-1.3,3.5-3.7c0-0.1,0-0.1,0-0.2H50.1"/>
</g>
</svg>
