<?xml version="1.0" encoding="utf-8"?>
<!-- Generator: Adobe Illustrator 26.0.1, SVG Export Plug-In . SVG Version: 6.00 Build 0)  -->
<svg version="1.1" id="Layer_1" xmlns="http://www.w3.org/2000/svg" xmlns:xlink="http://www.w3.org/1999/xlink" x="0px" y="0px"
	 viewBox="0 0 95 35" style="enable-background:new 0 0 95 35;" xml:space="preserve">
<style type="text/css">
	.st0{fill:#343741;}
</style>
<g transform="translate(100.14 -391.2)">
	<g transform="matrix(4.993 0 0 4.993 403.38 -2341)">
		<path class="st0" d="M-93.5,551.6c-0.1,0.1-0.3,0.2-0.5,0.2c-0.4,0-0.5-0.3-0.5-0.5c0-0.1,0-0.1,0-0.1c-0.5,0.4-0.9,1-1,1.2
			c-0.1,0.1-0.1,0.2-0.2,0.3c0,0.1-0.1,0.1-0.1,0.1h-0.4c0,0-0.1,0-0.1,0c0,0,0.1-0.2,0.2-0.3c-0.2,0.2-0.4,0.4-0.7,0.4
			c-0.3,0-0.4-0.2-0.4-0.4c0-0.1,0-0.1,0-0.2c-0.1,0.2-0.5,0.5-0.9,0.5c-0.3,0-0.4-0.2-0.4-0.4c0,0,0-0.1,0-0.1
			c-0.1,0.1-0.6,0.5-1,0.5c-0.3,0-0.7-0.3-0.9-0.3c-0.2,0-0.4,0.3-0.5,0.3c-0.1,0-0.1-0.1-0.1-0.1c0-0.1,0.1-0.1,0.2-0.2
			c0.1,0,0.2-0.1,0.4-0.2c0.2-0.1,1.3-0.9,1.4-0.9c-0.3,0-0.7-0.1-0.9-0.1c-0.2,0-0.3,0.2-0.3,0.2c0,0,0,0-0.1,0c0,0-0.1,0-0.1-0.1
			c0,0,0,0,0-0.1c0.2-0.2,0.4-0.5,0.8-0.5c0.3,0,0.7,0.2,0.9,0.2c0.1,0,0.1,0,0.2-0.1c0-0.1,0.1-0.1,0.2-0.1c0.1,0,0.1,0,0.1,0.1
			c0,0.1-0.2,0.2-0.5,0.4c-0.3,0.2-1.2,0.8-1.4,1c0.3,0,0.6,0.2,0.9,0.2c0.1,0,0.4-0.1,0.7-0.5c0.1-0.2,0.5-0.9,0.6-1
			c0.1-0.1,0.1-0.1,0.2-0.1l0.3,0c0.1,0,0.1,0,0.1,0c0.1,0,0.1,0,0.1,0c0,0,0,0.1-0.1,0.2c-0.2,0.4-0.8,1.2-0.8,1.4
			c0,0.1,0,0.1,0.1,0.1c0.2,0,0.6-0.4,0.8-0.6c0.2-0.2,0.6-0.9,0.7-1c0-0.1,0.1-0.1,0.2-0.1l0.3,0c0.1,0,0.1,0,0.1,0
			c0.1,0,0.1,0,0.1,0c0,0,0,0.1-0.1,0.2c-0.1,0.1-0.4,0.6-0.6,0.9c-0.1,0.2-0.2,0.4-0.2,0.5s0,0.1,0.1,0.1c0.2,0,0.7-0.5,1.2-1.2
			c0.1-0.1,0.2-0.3,0.2-0.4c0-0.1,0.1-0.1,0.2-0.1l0.3,0c0.1,0,0.1,0,0.1,0c0,0,0.1,0,0.1,0.1c0,0,0,0.1-0.1,0.2
			c-0.1,0.1-0.2,0.3-0.2,0.3c0.1-0.1,0.3-0.3,0.5-0.4c0.1-0.1,0.2-0.2,0.5-0.2h0.2c0.1,0,0.1,0,0.1,0.1c0,0,0,0.1-0.1,0.1
			c-0.1,0.1-0.2,0.3-0.2,0.5c0,0.1,0,0.2,0.2,0.2c0.1,0,0.1,0,0.2,0c0,0,0.1-0.1,0.1-0.1c0,0,0.1,0,0.1,0.1
			C-93.4,551.5-93.4,551.5-93.5,551.6"/>
		<path class="st0" d="M-82.3,550.9c0,0.4-0.5,0.7-1,0.7c0.2-0.5,0.7-0.9,0.9-0.9C-82.3,550.8-82.3,550.9-82.3,550.9L-82.3,550.9z
			 M-81.8,551c0-0.3-0.3-0.4-0.6-0.4c-0.6,0-1.5,0.6-1.5,1.4c0,0.4,0.2,0.7,0.8,0.7c0.6,0,1-0.4,1.1-0.4c0.1-0.1,0.1-0.1,0.1-0.2
			c0,0,0-0.1-0.1-0.1c0,0-0.1,0.1-0.2,0.1c-0.1,0.1-0.4,0.3-0.7,0.3c-0.4,0-0.5-0.2-0.5-0.4c0-0.1,0-0.1,0-0.2
			C-82.9,551.8-81.8,551.6-81.8,551L-81.8,551z M-83.8,551c0-0.3-0.3-0.4-0.5-0.4c-0.5,0-0.8,0.3-0.8,0.6c0,0.4,0.5,0.5,0.5,0.9
			c0,0.3-0.2,0.4-0.4,0.4c-0.2,0-0.3-0.1-0.3-0.3c0-0.2,0.1-0.2,0.1-0.3c0,0-0.1-0.1-0.2-0.1c-0.2,0-0.4,0.1-0.4,0.4
			c0,0.3,0.3,0.5,0.7,0.5c0.6,0,0.9-0.4,0.9-0.7c0-0.4-0.5-0.6-0.5-0.9c0-0.2,0.1-0.2,0.2-0.2c0.1,0,0.2,0,0.2,0.2
			c0,0.2-0.1,0.2-0.1,0.3c0,0.1,0.1,0.1,0.2,0.1C-83.9,551.4-83.8,551.3-83.8,551L-83.8,551z M-85.5,551.3c0-0.3-0.2-0.6-0.7-0.6
			c-0.8,0-1.5,0.8-1.6,1.4c-0.1,0.1-0.4,0.4-0.6,0.4c-0.1,0-0.1,0-0.1-0.1c0-0.3,0.3-0.7,0.3-1.1c0-0.2-0.1-0.4-0.4-0.4
			c0.7-0.1,1.2-0.5,1.2-1.2c0-0.7-0.7-0.9-1.6-0.9c-1.2,0-2,0.5-2.5,0.9c-0.6,0.5-1.1,1.3-1.1,2c0,0.6,0.3,1,1,1
			c0.7,0,1.1-0.2,1.6-0.8c0.1-0.2,0.5-0.6,0.7-1.1c0.1,0,0.2,0,0.3,0c0.2,0,0.2,0.1,0.2,0.2c0,0.1,0,0.1-0.1,0.2
			c-0.1,0.3-0.3,0.7-0.3,1c0,0.2,0.2,0.5,0.5,0.5c0.4,0,0.8-0.3,0.8-0.4c0.1,0.2,0.3,0.4,0.6,0.4C-86.3,552.7-85.5,551.9-85.5,551.3
			L-85.5,551.3z M-86.1,551c0,0.5-0.6,1.5-1,1.5c-0.1,0-0.2-0.1-0.2-0.2c0-0.5,0.6-1.5,1-1.5C-86.1,550.8-86.1,550.9-86.1,551
			L-86.1,551z M-89.4,549.7c0,0.1-0.1,0.5-0.4,0.9c-0.3-0.1-0.3-0.2-0.3-0.4c0-0.3,0.2-0.7,0.5-0.7
			C-89.4,549.5-89.4,549.6-89.4,549.7z M-87.9,549.6c0,0.6-0.6,1-1.2,1.1c0.1-0.3,0.3-0.6,0.3-0.9c0-0.2-0.1-0.5-0.5-0.5
			c-0.6,0-0.9,0.5-0.9,0.9c0,0.3,0.1,0.5,0.5,0.6c-0.1,0.1-0.1,0.2-0.2,0.4c-0.5,0.9-1,1.3-1.5,1.3c-0.4,0-0.6-0.2-0.6-0.7
			c0-1.3,1.3-2.9,3.1-2.9C-88.6,548.9-87.9,549-87.9,549.6"/>
	</g>
</g>
</svg>
