<?xml version="1.0" encoding="utf-8"?>
<!-- Generator: Adobe Illustrator 26.0.1, SVG Export Plug-In . SVG Version: 6.00 Build 0)  -->
<svg version="1.1" id="Layer_1" xmlns="http://www.w3.org/2000/svg" xmlns:xlink="http://www.w3.org/1999/xlink" x="0px" y="0px"
	 viewBox="0 0 95 35" style="enable-background:new 0 0 95 35;" xml:space="preserve">
<style type="text/css">
	.st0{fill:#FFFFFF;}
	.st1{fill:#FFFFFF;stroke:#FFFFFF;stroke-width:0.4275;stroke-miterlimit:6.8397;}
</style>
<g transform="matrix(2.99122 0 0 -2.99122 -986.503 1754.3)">
	<path class="st0" d="M347.3,574.8c-0.4,0-0.7,0.2-0.7,0.7c0,0.4,0.2,0.8,0.8,0.8c0.1,0,0.3,0,0.4-0.1l-0.1-0.3
		c-0.1,0-0.2,0.1-0.3,0.1c-0.3,0-0.4-0.2-0.4-0.4c0-0.3,0.1-0.4,0.4-0.4c0.1,0,0.2,0,0.3,0.1l0-0.3
		C347.7,574.8,347.5,574.8,347.3,574.8L347.3,574.8z M343.8,576.5c0.1,0,0.2,0.1,0.2,0.2c0,0.1-0.1,0.2-0.2,0.2
		c-0.1,0-0.2-0.1-0.2-0.2C343.6,576.6,343.7,576.5,343.8,576.5z M343.6,574.8h0.4v1.5c-0.2,0-0.4,0-0.4-0.3V574.8z M348.5,576
		c-0.2,0-0.3-0.1-0.3-0.4c0-0.3,0.1-0.4,0.3-0.4c0.2,0,0.3,0.1,0.3,0.4C348.9,575.8,348.8,576,348.5,576L348.5,576z M348.5,574.8
		c-0.4,0-0.7,0.2-0.7,0.7c0,0.5,0.3,0.8,0.7,0.8c0.4,0,0.7-0.2,0.7-0.7C349.2,575.1,349,574.8,348.5,574.8L348.5,574.8z M341.1,576
		c-0.1,0-0.2,0.1-0.3,0.1c-0.1,0-0.2,0-0.2-0.1c0-0.3,0.6-0.1,0.6-0.6c0-0.4-0.3-0.5-0.6-0.5c-0.1,0-0.3,0-0.4,0.1l0,0.3
		c0,0,0.2-0.1,0.4-0.1c0.1,0,0.2,0,0.2,0.1c0,0.3-0.6,0.1-0.6,0.6c0,0.3,0.3,0.5,0.6,0.5c0.2,0,0.3,0,0.4-0.1L341.1,576z
		 M343.5,576.3c-0.1-0.4-0.3-1.1-0.4-1.5h-0.4l-0.3,1h0l-0.3-1h-0.4c-0.1,0.3-0.4,1-0.4,1.5h0.4l0.2-1h0l0.3,1h0.4l0.3-1h0l0.2,1
		H343.5z M351.1,576.3c0.3,0,0.4-0.2,0.4-0.5v-1h-0.4v0.9c0,0.1,0,0.2-0.2,0.2s-0.3-0.1-0.3-0.4v-0.8h-0.4v0.9c0,0.1,0,0.2-0.2,0.2
		c-0.2,0-0.3-0.2-0.3-0.4v-0.8h-0.4v1.5c0.2,0,0.3-0.1,0.4-0.2c0.1,0.2,0.2,0.3,0.5,0.3c0.3,0,0.4-0.1,0.4-0.3
		C350.7,576.2,350.9,576.3,351.1,576.3z M345.1,576c-0.1,0-0.2,0.1-0.3,0.1c-0.1,0-0.2,0-0.2-0.1c0-0.3,0.7-0.1,0.7-0.6
		c0-0.4-0.3-0.5-0.6-0.5c-0.1,0-0.3,0-0.4,0.1l0,0.3c0,0,0.2-0.1,0.4-0.1c0.1,0,0.2,0,0.2,0.1c0,0.3-0.7,0.1-0.7,0.6
		c0,0.3,0.3,0.5,0.6,0.5c0.2,0,0.3,0,0.4-0.1L345.1,576z M346.3,576c-0.1,0-0.2,0.1-0.3,0.1c-0.1,0-0.2,0-0.2-0.1
		c0-0.3,0.6-0.1,0.6-0.6c0-0.4-0.3-0.5-0.6-0.5c-0.1,0-0.3,0-0.4,0.1l0,0.3c0,0,0.2-0.1,0.4-0.1c0.1,0,0.2,0,0.2,0.1
		c0,0.3-0.6,0.1-0.6,0.6c0,0.3,0.3,0.5,0.6,0.5c0.2,0,0.3,0,0.4-0.1L346.3,576"/>
</g>
<path class="st1" d="M29.8,0"/>
<g>
	<path class="st0" d="M47,24.4c2.4-3.5,4.8-4.2,7-12l-8.7-7.7l1.8,3.1L47,24.4z"/>
	<path class="st0" d="M47,24.4L47,24.4l0.1-16.6l-1.8-3.1l0,0l8.7,7.7l0,0c-0.7,2.5-1.5,4.5-2.5,6.1c-0.8,1.4-1.7,2.4-2.6,3.4
		C48.4,22.6,47.7,23.4,47,24.4L47,24.4z M45.4,4.7l1.8,3.1v0L47,24.3c0.7-1,1.3-1.7,2-2.5c1.7-1.9,3.4-3.9,5-9.5L45.4,4.7z"/>
</g>
<g>
	<path class="st0" d="M47,19.6L47,19.6c-1.1-0.2-1.3-1.1-1.4-2c-0.2-0.8-0.3-1.7-1.1-2.2l0,0l0,0c-1.8,1.5-2.6,3-2.4,4.5
		c0,0.1,0,0.1,0.1,0.2c0,0.1,0,0.1,0.1,0.2c0.6,1.9,2.9,3.2,4.8,4l0,0L47,19.6L47,19.6z M42,19.4C42,19.4,42,19.4,42,19.4
		C42,19.4,42,19.4,42,19.4z M42.1,19.9C42.1,19.9,42.1,19.9,42.1,19.9C42.1,19.9,42.1,19.9,42.1,19.9C42.1,19.9,42.1,19.9,42.1,19.9
		z"/>
	<path class="st0" d="M57.1,16.2c-0.5-1.1-1.3-2-2.5-3.2l-0.5-0.5c0,0,0,0,0,0l0,0c0,0,0.2-0.3,0.2-0.8c0.1-0.8,0.1-1.5,0.1-2.1
		c-0.1-1.3-0.5-2.3-1.1-3.3c-0.3-0.5-1.1-1.3-1.6-1.6c-0.7-0.5-1.6-0.8-2.4-1c-0.3-0.1-0.6-0.1-0.9-0.1l0,0c-0.5,0-0.9,0.1-1.3,0.3
		l0,0c0,0,0,0,0,0c0-1.3,0-2.6,0-2.6c0-0.1-0.7,0-1.4,0.2c-0.3,0.1-0.7,0.4-0.9,0.6c-0.3,0.4-0.4,0.9-0.3,1.4c0,0.1,0.1,0.2,0.1,0.3
		c0,0.2,0.2,0.5,0.5,0.9c0,0,0,0.1,0.1,0.1l-0.1-0.1c0.1,0.1,0.2,0.2,0.3,0.4c-0.1-0.1-0.2-0.2-0.2-0.3l1.9,3.1
		C47.1,7.8,47,27,47,27l0,0c0,0,0.3,0,0.9-0.1c2.3-0.3,4.6-1.2,6.3-2.4c1-0.7,2-1.7,2.5-2.6c0.6-1,0.9-2,0.9-3.1
		C57.7,17.8,57.6,17.1,57.1,16.2z"/>
</g>
</svg>
