<?xml version="1.0" encoding="utf-8"?>
<!-- Generator: Adobe Illustrator 26.0.1, SVG Export Plug-In . SVG Version: 6.00 Build 0)  -->
<svg version="1.1" id="Layer_1" xmlns="http://www.w3.org/2000/svg" xmlns:xlink="http://www.w3.org/1999/xlink" x="0px" y="0px"
	 viewBox="0 0 95 35" style="enable-background:new 0 0 95 35;" xml:space="preserve">
<style type="text/css">
	.st0{fill:#FFFFFF;}
</style>
<g id="layer1" transform="translate(-17.4283,-607.43003)">
	<g id="g3646" transform="translate(17.716531,17.66027)">
		<path id="path3439" class="st0" d="M28.9,619.2c-3.5-1.1-4.2-4.1-4-7.5H30c0,2.3,0.1,4.3,2.9,4.3c1.7,0,2.6-1.1,2.6-2.7
			c0-4.4-10.2-4.6-10.2-11.8c0-3.8,1.8-6.8,8-6.8c4.9,0,7.4,2.2,7.1,7.3h-4.9c0-1.8-0.3-3.6-2.4-3.6c-1.6,0-2.6,0.9-2.6,2.6
			c0,4.6,10.2,4.2,10.2,11.8c0,4.2-2.1,5.9-4.6,6.6H28.9"/>
		<path id="path3441" class="st0" d="M52.9,602.4c0-2.2-0.3-4.2-3-4.2c-3.2,0-3.2,4.3-3.2,8.9c0,7.6,0.7,8.9,3.6,8.9
			c0.8,0,1.7-0.2,2.5-0.5v-5.4h-2.8v-3.7h7.8v12.3c-0.5,0.1-1.4,0.2-2.3,0.4h-8.7c-4.7-1.2-5.3-4.9-5.3-12.3
			c0-6.1,0.3-12.3,8.6-12.3c5,0,8.1,2.8,7.8,7.8H52.9"/>
		<path id="path3443" class="st0" d="M67.5,594.6c4.4,0,6.9,1.7,7.2,5.6v1.7h-4.9c0-1.8-0.4-3.6-2.5-3.6c-1.6,0-2.6,0.9-2.6,2.6
			c0,4.2,8.7,4.2,10,10.2v3.5c-0.5,2.8-2.3,4.1-4.4,4.7h-7.1c-3.5-1.1-4.2-4.1-4-7.5h5.1c0,2.3,0.1,4.3,2.9,4.3
			c1.7,0,2.6-1.1,2.6-2.7c0-4.4-10.2-4.6-10.2-11.8C59.5,597.6,61.3,594.6,67.5,594.6"/>
		<path id="path3445" class="st0" d="M9.7,619.8h75v-0.6h-75V619.8z"/>
		<path id="path3447" class="st0" d="M74.7,624.8h0.6v-35h-0.6V624.8z"/>
	</g>
</g>
</svg>
