<?xml version="1.0" encoding="utf-8"?>
<!-- Generator: Adobe Illustrator 26.0.1, SVG Export Plug-In . SVG Version: 6.00 Build 0)  -->
<svg version="1.1" id="Layer_1" xmlns="http://www.w3.org/2000/svg" xmlns:xlink="http://www.w3.org/1999/xlink" x="0px" y="0px"
	 viewBox="0 0 95 35" style="enable-background:new 0 0 95 35;" xml:space="preserve">
<style type="text/css">
	.st0{fill:#CCCCCC;}
</style>
<path class="st0" d="M22.8,28.5c0,0.5,0.2,1,0.6,1.3c0.4,0.4,0.7,0.6,1.8,1c1.4,0.6,2.1,1,2.1,2c0,1-0.8,1.7-1.8,1.7
	c-0.7,0-1.4-0.2-1.9-0.6c-0.4-0.3-0.7-0.8-0.8-1.4c0,0,0-0.1,0-0.1c-0.2,0-0.2,0.1-0.2,0.2c0,0.4,0.1,1.5,0.2,2c0,0,0,0.1,0,0.2
	c0,0,0.1,0,0.1,0l0.1,0l0.2-0.1l0.4,0c0.4,0.1,1.1,0.2,1.8,0.2c1.3,0,1.9-0.3,2.3-0.6c0.5-0.4,0.8-1,0.8-1.7c0-1.5-1.2-2-2.3-2.5
	c0,0-0.1,0-0.1,0c-1.6-0.7-2.2-1-2.2-2c0-0.9,0.7-1.6,1.7-1.6c0.5,0,1,0.1,1.4,0.4c0.5,0.3,0.6,0.8,0.8,1.2l0.1,0.2
	c0.1,0,0.2,0,0.2-0.1l-0.1-0.6l0-0.1c0-0.3,0-0.8,0-1l0-0.1l0-0.1c0,0-0.1,0-0.1,0c0,0-0.2,0.1-0.2,0.1l-0.3,0l-0.4-0.1
	c-0.4,0-0.8-0.1-1.2-0.1C23.9,26.3,22.8,27.1,22.8,28.5L22.8,28.5z"/>
<path class="st0" d="M36,29.3C36,29.3,36,29.3,36,29.3c0,0.1,0,0.2,0,0.2c0,0,0.1,0,0.1,0c0.2,0,0.7,0,0.7,0.5
	c0,0.3-0.2,0.7-0.3,1.1l0,0c0,0-1.1,2.5-1.1,2.5c0,0,0,0.1-0.1,0.1c0,0-0.1,0-0.1-0.1C35,33.1,34,30.2,34,29.9
	c0-0.4,0.3-0.4,0.7-0.4c0,0,0.1,0,0.1,0c0,0,0,0,0,0c0,0,0-0.1,0-0.1l0-0.1c0,0-0.1,0-0.1,0l-1.2,0l-1.3,0c-0.1,0-0.1,0-0.1,0.1
	l0,0.1c0.3,0,0.4,0.1,0.5,0.2c0.1,0.2,0.3,0.6,0.6,1.3c0,0,0,0,0,0.1L32,33.6c0,0,0,0.1-0.1,0c0,0-0.1,0-0.1-0.1l-0.7-1.7L31,31.4
	c0,0,0-0.1,0-0.1c-0.2-0.6-0.4-1.1-0.4-1.3c0-0.3,0.2-0.4,0.6-0.5c0,0,0.1,0,0.1,0c0,0,0,0,0,0c0,0,0-0.1,0-0.1s0-0.1,0-0.1
	c-0.1,0-1.3,0-1.3,0l-1.1,0l-0.1,0c0,0,0,0,0,0c0,0,0,0.1,0,0.1c0,0.1,0,0.1,0.1,0.2c0.2,0.1,0.3,0.2,0.5,0.7
	c0.5,1.1,1.3,3.1,1.7,4.5c0,0,0.1,0.2,0.1,0.2c0,0,0.4-0.1,0.4-0.1s0,0,0,0c0,0,0,0,0,0c0,0,0-0.1,0-0.1c0.4-1,0.6-1.4,1.5-3.2
	c0,0,0,0,0.1,0c0,0,0.1,0,0.1,0.1c0.5,1.4,0.9,2.5,1,3.1c0,0.1,0.1,0.2,0.1,0.3c0,0,0.3,0,0.3,0c0.1,0,0.2,0,0.2-0.1
	c0,0,0.3-0.8,0.3-0.8c0,0,0.1-0.2,0.1-0.2c0.4-0.9,0.9-1.9,1.2-2.5c0.4-0.8,0.9-1.5,1.2-1.7c0.1,0,0.1,0,0.1-0.1l0-0.1
	c0,0-0.3,0-0.3,0l-0.6,0l-0.8,0L36,29.3L36,29.3L36,29.3z"/>
<path class="st0" d="M39.5,26.5c0,0.3,0.3,0.6,0.6,0.6c0.3,0,0.6-0.3,0.6-0.6c0-0.3-0.3-0.6-0.6-0.6C39.8,25.9,39.5,26.2,39.5,26.5
	L39.5,26.5z M40.2,29.2c0,0-0.8,0.4-0.8,0.4l-0.6,0.3c0,0,0,0,0,0c0,0,0,0,0,0c-0.1,0-0.1,0.1-0.1,0.1c0,0,0,0.1,0,0.1
	c0,0,0.1,0,0.1,0c0.7,0.1,0.7,0.3,0.7,1.8c0,0.8,0,1.9-0.1,2.2c-0.1,0.3-0.3,0.5-0.8,0.5c-0.1,0-0.1,0-0.1,0.1l0,0.1
	c0,0,0.5,0,0.5,0l1,0l1.1,0l0.3,0l0.1,0c0,0,0,0,0,0c0,0,0-0.1,0-0.1l0-0.1c0,0-0.1,0-0.1,0c-0.5,0-0.8-0.1-0.9-0.5
	c0-0.2-0.1-0.9-0.1-2.2l0-1.9c0,0,0.1-0.8,0.1-0.8c0,0,0,0,0,0C40.4,29.1,40.3,29.1,40.2,29.2L40.2,29.2z"/>
<path class="st0" d="M42.4,30.7c0,0.9,0.8,1.3,1.5,1.6c0.8,0.4,1.4,0.7,1.4,1.4c0,0.5-0.3,1-1.1,1c-0.2,0-1.4-0.1-1.7-1.3l-0.1-0.2
	c-0.1,0-0.2,0-0.2,0.1l0,0.3l0,0.5l0,0.4l0,0.2l0,0.1c0,0,0.1,0,0.1,0l0.1,0l0.1,0c0,0,0.2,0,0.2,0c0.3,0,0.7,0.1,1.2,0.1
	c0.4,0,2.3-0.1,2.3-1.6c0-1-0.9-1.4-1.6-1.7c-1-0.5-1.4-0.7-1.4-1.3c0-0.2,0-0.9,1-0.9c0.7,0,1.2,0.4,1.5,1c0,0,0.1,0.1,0.1,0.1
	c0,0,0,0,0,0c0.2,0,0.2,0,0.2,0c0,0,0,0,0,0c0,0,0-0.1,0-0.1l-0.1-0.8l0-0.3c0,0,0-0.2,0-0.2c0,0-0.1,0-0.1,0l-0.1,0l-0.2,0
	c-0.2,0-0.6-0.1-0.9-0.1C42.5,29.1,42.4,30.4,42.4,30.7L42.4,30.7z"/>
<path class="st0" d="M47.4,30.7c0,0.9,0.8,1.3,1.5,1.6c0.8,0.4,1.4,0.7,1.4,1.4c0,0.5-0.3,1-1.1,1c-0.2,0-1.4-0.1-1.7-1.3l-0.1-0.2
	c-0.1,0-0.2,0-0.2,0.1l0,0.3l0,0.5l0,0.4l0,0.2l0,0.1c0,0,0.1,0,0.1,0l0.1,0l0.1,0l0.2,0c0.3,0,0.7,0.1,1.2,0.1
	c0.4,0,2.3-0.1,2.3-1.6c0-1-0.9-1.4-1.6-1.7c-1-0.5-1.4-0.7-1.4-1.3c0-0.2,0-0.9,1-0.9c0.7,0,1.2,0.4,1.5,1c0,0,0.1,0.1,0.1,0.1
	c0,0,0,0,0,0c0.2,0,0.2,0,0.2,0c0,0,0,0,0,0c0,0,0-0.1,0-0.1l-0.1-0.8l0-0.3c0,0,0-0.2,0-0.2c0,0-0.1,0-0.1,0l-0.1,0l-0.2,0
	c-0.2,0-0.6-0.1-0.9-0.1C47.5,29.1,47.4,30.4,47.4,30.7L47.4,30.7z"/>
<path class="st0" d="M55.2,26.4l-1,0l-1.6-0.1c0,0-0.1,0-0.1,0c0,0,0,0,0,0c0,0,0,0.1,0,0.1l0,0c0,0,0.2,0,0.3,0
	c0.8,0.1,0.8,0.4,0.8,1.4v1.9c0,1.1,0,2.8-0.1,3.6c-0.1,0.4-0.1,1-1,1.1c0,0-0.1,0-0.1,0c0,0,0,0,0,0c0,0,0,0.1,0,0.1l0,0.1
	c0,0,0.1,0,0.1,0l0.2,0c0.3,0,1-0.1,2.9-0.1c1.9,0,2.5,0,2.8,0.1l0.2,0c0.1,0,0.1,0,0.2-0.3c0.3-1.1,0.4-1.7,0.4-1.8
	c0,0,0-0.1-0.2-0.1c0,0,0,0.1-0.1,0.2c-0.1,0.4-0.4,1-0.8,1.2c-0.5,0.3-1.4,0.3-2.3,0.3c-0.5,0-0.8,0-0.9-0.4
	c-0.1-0.4-0.1-1.9-0.1-3.1c0-0.7,0-3,0.1-3.6c0.1-0.5,0.4-0.6,1-0.7c0,0,0.2,0,0.2,0c0,0,0-0.1,0-0.1c0-0.1,0-0.1-0.1-0.1L55.2,26.4
	L55.2,26.4z"/>
<path class="st0" d="M60.8,26.5c0,0.3,0.3,0.6,0.6,0.6c0.3,0,0.6-0.3,0.6-0.6c0-0.3-0.3-0.6-0.6-0.6C61.2,25.9,60.8,26.2,60.8,26.5
	L60.8,26.5z M61.5,29.2c0,0-0.8,0.4-0.8,0.4l-0.6,0.3c0,0,0,0,0,0c0,0,0,0,0,0c-0.1,0-0.1,0.1-0.1,0.1c0,0,0,0.1,0,0.1
	c0,0,0.1,0,0.1,0c0.7,0.1,0.7,0.3,0.7,1.8c0,0.8,0,1.9-0.1,2.2c-0.1,0.3-0.3,0.5-0.8,0.5c-0.1,0-0.1,0-0.1,0.1l0,0.1
	c0,0,0.5,0,0.5,0l1,0l1.1,0l0.3,0l0.1,0c0,0,0,0,0,0c0,0,0-0.1,0-0.1l0-0.1c0,0-0.1,0-0.1,0c-0.5,0-0.8-0.1-0.9-0.5
	c0-0.2-0.1-0.9-0.1-2.2l0-1.9c0,0,0.1-0.8,0.1-0.8c0,0,0,0,0,0C61.7,29.1,61.6,29.1,61.5,29.2L61.5,29.2z"/>
<path class="st0" d="M65.1,26.8C65.1,26.8,65.1,26.8,65.1,26.8c-0.6,0.8-0.6,1.3-0.6,2.4c0,0,0,0.1-0.1,0.1l-0.7,0.3
	c0,0,0,0.1,0,0.1l0,0.1l0.7,0c0,0,0,0,0.1,0c0,0,0,0,0,0.1l0,3.7c0,0.8-0.1,1-0.8,1c0,0-0.1,0-0.1,0s0,0,0,0c0,0,0,0.1,0,0.1
	s0,0.1,0,0.1c0,0,0.4,0,0.4,0l0.8,0l1.3,0l0.5,0c0.2,0,0.2,0,0.2-0.1l0-0.1c0,0-0.1,0-0.1,0c-0.9,0-1.2-0.1-1.3-0.9c0,0,0-3.8,0-3.8
	c0,0,0,0,0-0.1c0,0,0,0,0.1,0h1.8c0.1,0,0.1,0,0.1-0.3l0-0.1l0-0.2l-1.9,0c0,0-0.1,0-0.1-0.1c0-2.1,0.1-3.1,1.6-3.1
	c0.7,0,1.1,0.2,1.3,0.4c0,0,0.1,0.1,0.1,0.1c0.1,0.1,0.1,0.1,0.2,0.1c0.1,0,0.6-0.3,0.6-0.5c0-0.3-0.5-0.8-1.5-0.8
	C66.6,25.5,65.6,26.1,65.1,26.8L65.1,26.8z"/>
<path class="st0" d="M67.9,32.3c0,0.6,0.2,2.6,2.3,2.6c1,0,1.8-0.5,2.3-0.8c0.1-0.1,0.1-0.1,0.1-0.2c0,0,0-0.1,0-0.1s0,0,0,0
	c-0.7,0.5-1.4,0.6-1.7,0.6c-1.6,0-1.9-1.6-1.9-2.3c0,0,0,0,0,0c0,0,0-0.1,0.1-0.1c1-0.2,2.2-0.4,3.6-0.7c0,0,0,0,0,0
	c0-0.1,0-0.3-0.1-0.6c-0.3-1.1-1.2-1.5-1.9-1.5C69.2,29.1,67.9,30.3,67.9,32.3L67.9,32.3z M68.9,31.6C68.9,31.6,68.9,31.6,68.9,31.6
	c0-1.1,0.4-2.2,1.2-2.2c0.7,0,1.3,0.8,1.3,1.3c0,0.2-0.1,0.3-0.5,0.4C69.9,31.5,69.5,31.6,68.9,31.6C68.9,31.7,68.9,31.6,68.9,31.6
	L68.9,31.6z"/>
<path class="st0" d="M27.6,34.4c-0.4,0.3-1,0.6-2.3,0.6c-1.1,0-2-0.2-2.2-0.2c-0.2,0-0.2,0.1-0.3,0.1c-0.1,0-0.1,0-0.2-0.2
	c-0.1-0.6-0.2-1.7-0.2-2.1c0-0.1,0.1-0.3,0.3-0.3c0.1,0,0.1,0.1,0.1,0.2c0.1,0.6,0.3,1,0.8,1.3c0.5,0.3,1.1,0.6,1.8,0.6
	c1,0,1.7-0.6,1.7-1.6c0-0.9-0.6-1.3-2-1.9c-1-0.5-1.4-0.6-1.8-1c-0.5-0.5-0.6-1-0.6-1.4c0-1.4,1-2.4,2.9-2.4c0.3,0,0.8,0,1.2,0.1
	c0.4,0,0.7,0.1,0.7,0.1c0.1,0,0.1,0,0.1-0.1c0,0,0.1,0,0.1,0c0.1,0,0.1,0.1,0.1,0.1c0,0.1,0,0.8,0,1.1c0,0.3,0.1,0.7,0.1,0.7
	c0,0.1-0.2,0.2-0.3,0.2c-0.1,0-0.1,0-0.2-0.2c-0.1-0.4-0.3-0.8-0.7-1.1c-0.3-0.2-0.8-0.4-1.3-0.4c-0.9,0-1.6,0.6-1.6,1.5
	c0,1,0.6,1.3,2.2,1.9c1.1,0.5,2.4,1,2.4,2.5C28.5,33.4,28.1,34.1,27.6,34.4L27.6,34.4z"/>
<path class="st0" d="M38,29.5c-0.3,0.1-0.8,1-1.1,1.7c-0.3,0.6-0.9,1.8-1.3,2.7c-0.1,0.2-0.3,0.7-0.3,0.8c-0.1,0.1-0.1,0.2-0.3,0.2
	l-0.3,0c-0.1,0-0.1,0-0.2-0.3c-0.2-0.6-0.5-1.7-1-3c-0.9,1.8-1.1,2.2-1.5,3.1c-0.1,0.1-0.1,0.1-0.1,0.2l-0.5,0.1
	c-0.1,0-0.1,0-0.1-0.3c-0.5-1.3-1.2-3.4-1.7-4.4c-0.2-0.4-0.3-0.6-0.4-0.7c-0.2-0.1-0.2-0.1-0.2-0.2c0-0.1,0-0.1,0.1-0.1
	c0.3,0,0.8,0,1.1,0c0.5,0,0.9,0,1.3,0c0.1,0,0.1,0.1,0.1,0.2c0,0.2,0,0.2-0.2,0.2c-0.4,0-0.6,0.2-0.6,0.4c0,0.2,0.2,0.8,0.4,1.4
	c0.2,0.6,0.4,1.1,0.9,2.2c0.2-0.5,1-2.1,1.3-2.7c-0.3-0.6-0.4-1.1-0.6-1.2c-0.1-0.1-0.2-0.1-0.5-0.2c-0.1,0-0.1-0.1-0.1-0.1
	c0-0.1,0-0.2,0.2-0.2c0.4,0,1,0,1.3,0c0.3,0,1.1,0,1.2,0c0.1,0,0.1,0.1,0.1,0.2c0,0.2,0,0.2-0.2,0.2c-0.4,0-0.6,0-0.6,0.4
	c0,0.2,0.9,2.9,1.1,3.7c0.4-0.9,0.9-1.9,1.1-2.5c0.1-0.4,0.3-0.8,0.3-1.1c0-0.3-0.3-0.4-0.6-0.4c-0.2,0-0.2,0-0.2-0.2
	c0-0.1,0-0.2,0.1-0.2c0.1,0,0.6,0,1.1,0c0.3,0,0.7,0,0.9,0c0.1,0,0.1,0.1,0.1,0.1C38.1,29.5,38.1,29.5,38,29.5L38,29.5z"/>
<path class="st0" d="M41.5,34.9c-0.2,0-0.8,0-1.5,0c-0.5,0-1.3,0-1.5,0c-0.1,0-0.1,0-0.1-0.1c0-0.2,0-0.2,0.2-0.2
	c0.4-0.1,0.6-0.2,0.7-0.5c0.1-0.3,0.1-1.4,0.1-2.2c0-1.4,0-1.6-0.6-1.7c-0.2,0-0.2,0-0.2-0.2c0-0.1,0.1-0.2,0.2-0.2
	c0.3-0.1,1.1-0.5,1.4-0.6c0.1-0.1,0.2-0.1,0.3-0.1c0.1,0,0.1,0,0.1,0.1c0,0.2,0,0.6-0.1,0.8c0,0.3,0,0.9,0,1.9c0,0.4,0,1.9,0.1,2.2
	c0.1,0.4,0.3,0.4,0.8,0.4c0.2,0,0.2,0,0.2,0.2C41.6,34.8,41.6,34.9,41.5,34.9L41.5,34.9z M40.1,27.2c-0.3,0-0.7-0.4-0.7-0.7
	c0-0.4,0.4-0.7,0.7-0.7c0.3,0,0.7,0.4,0.7,0.7C40.8,26.8,40.4,27.2,40.1,27.2L40.1,27.2z"/>
<path class="st0" d="M44,35c-0.6,0-1-0.1-1.3-0.1c-0.1,0-0.2,0-0.3,0c0,0-0.1,0-0.2,0c-0.1,0-0.1-0.1-0.1-0.2c0-0.1,0-0.4,0-0.7
	c0-0.2-0.1-0.7-0.1-0.8c0-0.1,0.1-0.1,0.3-0.1c0.1,0,0.1,0,0.1,0.2c0.3,1,1.2,1.2,1.7,1.2c0.9,0,1.1-0.6,1.1-0.9
	c0-0.6-0.5-0.9-1.4-1.3c-0.8-0.3-1.6-0.7-1.6-1.7c0-0.6,0.4-1.6,2.2-1.6c0.5,0,1.1,0.1,1.2,0.1c0,0,0.1,0,0.2,0c0.1,0,0.1,0,0.1,0.2
	c0,0.3,0.1,0.9,0.1,1.1c0,0.1,0,0.2-0.3,0.2c-0.1,0-0.1,0-0.1-0.2c-0.1-0.3-0.5-1-1.4-1c-0.8,0-0.9,0.6-0.9,0.8
	c0,0.5,0.4,0.8,1.4,1.2c0.7,0.3,1.6,0.8,1.6,1.8C46.4,34.7,44.8,35,44,35L44,35z"/>
<path class="st0" d="M49,35c-0.6,0-1-0.1-1.3-0.1c-0.1,0-0.2,0-0.3,0c0,0-0.1,0-0.2,0c-0.1,0-0.1-0.1-0.1-0.2c0-0.1,0-0.4,0-0.7
	c0-0.2-0.1-0.7-0.1-0.8c0-0.1,0.1-0.1,0.3-0.1c0.1,0,0.1,0,0.1,0.2c0.3,1,1.2,1.2,1.7,1.2c0.9,0,1.1-0.6,1.1-0.9
	c0-0.6-0.5-0.9-1.4-1.3c-0.8-0.3-1.6-0.7-1.6-1.7c0-0.6,0.4-1.6,2.2-1.6c0.5,0,1.1,0.1,1.2,0.1c0,0,0.1,0,0.2,0c0.1,0,0.1,0,0.1,0.2
	c0,0.3,0.1,0.9,0.1,1.1c0,0.1,0,0.2-0.3,0.2c-0.1,0-0.1,0-0.1-0.2c-0.1-0.3-0.5-1-1.4-1c-0.8,0-0.9,0.6-0.9,0.8
	c0,0.5,0.4,0.8,1.4,1.2c0.7,0.3,1.6,0.8,1.6,1.8C51.4,34.7,49.8,35,49,35L49,35z"/>
<path class="st0" d="M58.8,34.5c-0.1,0.3-0.1,0.4-0.2,0.4c-0.3,0-0.5-0.1-3-0.1c-2.3,0-2.9,0.1-3,0.1c-0.1,0-0.2,0-0.2-0.2
	c0-0.2,0-0.2,0.2-0.2c0.8-0.1,0.8-0.5,0.9-1c0.1-0.8,0.1-2.5,0.1-3.6c0-0.8,0-1.9,0-1.9c0-0.9-0.1-1.2-0.8-1.3
	c-0.3,0-0.3-0.1-0.3-0.2c0-0.2,0-0.2,0.1-0.2c0.4,0,1.2,0.1,1.6,0.1c0.5,0,1.4-0.1,1.7-0.1c0.1,0,0.1,0,0.1,0.1c0,0.2,0,0.2-0.2,0.2
	c-0.6,0-0.8,0.2-0.9,0.6c-0.1,0.5-0.1,2.7-0.1,3.5c0,1.2,0,2.7,0.1,3.1c0.1,0.3,0.3,0.3,0.8,0.3c0.8,0,1.8,0,2.2-0.3
	c0.4-0.2,0.6-0.7,0.8-1.1c0.1-0.2,0.1-0.3,0.2-0.3c0.3,0,0.3,0.1,0.3,0.1C59.2,32.9,59.1,33.5,58.8,34.5L58.8,34.5z"/>
<path class="st0" d="M62.8,34.9c-0.2,0-0.8,0-1.5,0c-0.5,0-1.3,0-1.5,0c-0.1,0-0.1,0-0.1-0.1c0-0.2,0-0.2,0.2-0.2
	c0.4-0.1,0.6-0.2,0.7-0.5c0.1-0.3,0.1-1.4,0.1-2.2c0-1.4,0-1.6-0.6-1.7c-0.2,0-0.2,0-0.2-0.2c0-0.1,0.1-0.2,0.2-0.2
	c0.3-0.1,1.1-0.5,1.4-0.6c0.1-0.1,0.2-0.1,0.3-0.1c0.1,0,0.1,0,0.1,0.1c0,0.2,0,0.6-0.1,0.8c0,0.3,0,0.9,0,1.9c0,0.4,0,1.9,0.1,2.2
	c0.1,0.4,0.3,0.4,0.8,0.4c0.2,0,0.2,0,0.2,0.2C62.9,34.8,62.9,34.9,62.8,34.9L62.8,34.9z M61.4,27.2c-0.3,0-0.7-0.4-0.7-0.7
	c0-0.4,0.4-0.7,0.7-0.7c0.3,0,0.7,0.4,0.7,0.7C62.1,26.8,61.7,27.2,61.4,27.2L61.4,27.2z"/>
<path class="st0" d="M68.5,26.8c-0.1,0-0.2-0.1-0.3-0.2c-0.2-0.2-0.5-0.4-1.2-0.4c-1.5,0-1.5,0.9-1.5,3c0.1,0,1.6,0,1.9,0
	c0.1,0,0.1,0,0.1,0.3c0,0.3,0,0.3-0.2,0.3h-1.8c0,1.2,0,2.9,0,3.7c0,0.8,0.3,0.9,1.2,0.9c0.2,0,0.2,0,0.2,0.2c0,0.2,0,0.2-0.3,0.2
	c-0.2,0-1.2,0-1.8,0c-0.5,0-1,0-1.2,0c-0.1,0-0.1-0.1-0.1-0.2c0-0.2,0-0.2,0.2-0.2c0.6-0.1,0.7-0.2,0.7-1c0-0.9,0-2.7,0-3.7h-0.7
	c-0.1,0-0.1,0-0.1-0.1c0-0.2,0-0.2,0.1-0.2l0.7-0.3c0-1.2,0-1.7,0.6-2.5c0.6-0.8,1.6-1.4,2.6-1.4c1,0,1.6,0.5,1.6,0.9
	C69.3,26.5,68.7,26.8,68.5,26.8L68.5,26.8z"/>
<path class="st0" d="M72.5,34.1c-0.5,0.4-1.4,0.9-2.3,0.9c-1.9,0-2.3-1.7-2.3-2.7c0-2.1,1.4-3.3,2.7-3.3c0.6,0,1.7,0.3,2,1.5
	c0.1,0.3,0.1,0.7,0.1,0.7c-1.2,0.2-2.4,0.4-3.6,0.7c0,0.9,0.4,2.2,1.8,2.2c0.4,0,1.1-0.1,1.7-0.6c0,0,0.1-0.1,0.1,0
	c0,0.1,0,0.2,0,0.3C72.6,34,72.6,34,72.5,34.1L72.5,34.1z M70.1,29.5c-0.8,0-1.2,1-1.2,2c0.6-0.1,0.9-0.2,1.9-0.4
	c0.4-0.1,0.5-0.2,0.5-0.3C71.3,30.3,70.8,29.5,70.1,29.5L70.1,29.5z"/>
<path class="st0" d="M49,0.1C48.4,0,47.3,0,46.4,0c-0.7,0.1-1.5,0.2-2,0.4c-0.1,0-0.1,0-0.1,0c0,0,0,0.1,0,0.1
	c-0.4,1.5-2.9,3.2-3.5,3.7c-0.8,0.7-1.6,1.3-2.3,2.1c-0.6,0.7-1.3,1.5-1.7,2.2c-0.5,0.8-0.7,1.6-0.8,2.4c-0.1,0.7-0.1,1.3-0.1,1.8h0
	c0,0,0,0.1,0,0.1c0.1,0.7,0.2,1,0.2,1c0,0.1,0,0.1,0.1,0.1c0,0,0.1-0.1,0.1-0.1c0-0.1,0.1-0.3,0.2-0.5c0.1-0.3,0.1-0.4,0.2-0.7
	c0.2-0.7,0.7-1.7,1.6-2.7c2.8-3.1,5.9-3.7,8.5-6.1c1.6-1.5,2.1-2.9,2.5-3.7c0,0,0-0.1,0-0.1C49.1,0.1,49.1,0.1,49,0.1L49,0.1z"/>
<path class="st0" d="M58.9,9.4c-0.2-1-0.7-2.4-1.2-3.3c-0.1-0.2-0.3-0.6-0.5-0.8c-0.1-0.1,0-0.1-0.1-0.1c0,0-0.2-0.1-0.2-0.1
	c-0.3,0-1.1-0.1-2-0.1h0l0,0c-1.6,0-3.5,0.2-5.6,0.6c-3.2,0.6-5.9,1.7-8.2,3.1c-2.4,1.6-4.2,3.3-4.9,6.1c-0.1,0.4,0.2,1.2,0.5,1.9
	c0.2,0.4,0.4,0.7,0.6,1c0,0,0.1,0.1,0.1,0.1c0,0,0,0,0-0.1c0-0.2,0.1-0.6,0.3-1.2c0.4-1,1.2-3.1,4.8-4.9c2.4-1.2,5-1.7,7.4-2
	c3.8-0.4,6.7-0.5,8.7-0.3c0.1,0,0.1,0,0.1,0C59,9.5,59,9.4,58.9,9.4L58.9,9.4z"/>
<path class="st0" d="M59.1,10.4c0-0.1,0-0.1-0.1-0.1c0,0-0.1,0-0.1,0c-0.7-0.1-1.5-0.1-2.4-0.1c-5,0.1-11.5,1.3-14.3,4.1
	c-1.3,1.3-2,3-1.5,5c0.6,2.4,2.5,3.4,3.7,3.7c0.6,0.2,1.1,0.1,1.1,0.1s0.1,0,0.1,0c0,0-0.1-0.1-0.1-0.1s-0.2-0.2-0.4-0.3
	c-0.1-0.1-0.2-0.2-0.3-0.4c-0.2-0.3-0.4-0.7-0.5-1.2c-0.3-1.2,0-2.2,0.9-3.1c1.4-1.5,4.6-2.5,10-2.4l3,0.1c0,0,0.1,0,0.1,0
	c0,0,0,0,0.1-0.1c0.2-0.5,0.4-1.5,0.6-2.6C59.2,12.1,59.2,11.3,59.1,10.4z M58.1,13.4h-1.2v1.2h-1.1v-1.2h-1.2v-1.1h1.2v-1.2h1.1
	v1.2h1.2V13.4z"/>
</svg>
