<?xml version="1.0" encoding="utf-8"?>
<!-- Generator: Adobe Illustrator 26.0.1, SVG Export Plug-In . SVG Version: 6.00 Build 0)  -->
<svg version="1.1" id="Layer_1" xmlns="http://www.w3.org/2000/svg" xmlns:xlink="http://www.w3.org/1999/xlink" x="0px" y="0px"
	 viewBox="0 0 95 35" style="enable-background:new 0 0 95 35;" xml:space="preserve">
<style type="text/css">
	.st0{fill:#CCCCCC;}
</style>
<g>
	<path id="path9291" class="st0" d="M16.7,14.2H5.6v-2.3h11.2V14.2z M16.6,23.2h-2.5v-7.2h2.5V23.2z M12.4,23.2H9.9v-7.2h2.5V23.2z
		 M8.2,23.2H5.7v-7.2h2.5V23.2z M11.2,6.3C5,6.3,0,11.3,0,17.5c0,6.2,5,11.2,11.2,11.2c6.2,0,11.2-5,11.2-11.2
		C22.3,11.3,17.3,6.3,11.2,6.3"/>
	<path id="path9307" class="st0" d="M91.1,16.5c1.2,0,1.4,1,1.5,1.9h-2.8C89.8,17.6,90.1,16.5,91.1,16.5z M91.3,22
		c-1.3,0-1.5-1.1-1.5-2.1H95c0-2.5-0.9-4.8-3.8-4.8c-2.5,0-3.8,2.1-3.8,4.4c0,2.4,1.5,4,3.9,4c1.7,0,3.4-0.7,3.5-2.6h-2.1
		C92.5,21.6,92,22,91.3,22 M81.6,16.7h-1.8v-3.1h1.8c1,0,1.8,0.4,1.8,1.5C83.5,16.3,82.6,16.7,81.6,16.7L81.6,16.7z M83.6,17.6
		c1.4-0.4,2.5-1.3,2.5-2.8c0-2.2-2-2.9-3.9-2.9h-4.7v11.4h2.4v-4.6h1.9c2.2,0,1.7,3,2,4.6h2.7C85.2,21,86.7,18.2,83.6,17.6
		 M72.5,17.4h-2.1c-0.1-0.6-0.6-0.9-1.1-0.9c-0.5,0-1.2,0.2-1.2,0.8c0,0.5,0.6,0.7,1,0.8l0.9,0.2c1.4,0.3,3,0.9,3,2.5
		c0,2-2.1,2.6-3.7,2.6c-1.6,0-3.2-0.7-3.4-2.5H68c0.1,0.7,0.6,1.1,1.3,1.1c0.6,0,1.4-0.3,1.4-1c0-1.5-4.7-0.4-4.7-3.5
		c0-1.9,1.9-2.5,3.4-2.5c1.4,0,2.9,0.6,3.1,2.1L72.5,17.4 M64.7,17.4h-2.1c-0.1-0.6-0.6-0.9-1.1-0.9c-0.5,0-1.2,0.2-1.2,0.8
		c0,0.5,0.6,0.7,1,0.8l0.9,0.2c1.4,0.3,3,0.9,3,2.5c0,2-2.1,2.6-3.7,2.6c-1.6,0-3.2-0.7-3.4-2.5h2.2c0.1,0.7,0.6,1.1,1.3,1.1
		c0.6,0,1.4-0.3,1.4-1c0-1.5-4.7-0.4-4.7-3.5c0-1.9,1.9-2.5,3.4-2.5c1.4,0,2.9,0.6,3.1,2.1L64.7,17.4 M54.3,13.8h2.5v-2h-2.5V13.8z
		 M54.4,23.2h2.4v-7.9h-2.4V23.2z M47.7,23.2l-1.1-3.8c-0.3-0.8-0.4-1.7-0.6-2.5c-0.1,0.6-0.2,1.2-0.4,1.8l-0.2,0.6l-1.1,3.8h-2.8
		L39,15.3h2.7l1.1,4.1l0.2,0.6l0.1,0.6c0.1,0.3,0.1,0.7,0.2,1c0.1-1,0.4-1.9,0.6-2.8l1-3.5h2.7l1,3.6c0.3,0.9,0.4,1.7,0.6,2.6
		l0.1-0.5c0.1-0.8,0.3-1.5,0.5-2.2l1-3.5h2.5l-2.7,7.9H47.7 M38.1,15h-2.3c0-1.1-0.8-1.7-1.9-1.7c-0.9,0-2,0.4-2,1.5
		c0,2.5,6.6,0.9,6.6,5c0,2.5-2.2,3.7-4.5,3.7c-2.6,0-4.8-0.9-4.8-3.8h2.5c0,1.3,0.7,2.1,2,2.1c1,0,2.3-0.4,2.3-1.5
		c0-2.6-6.5-0.9-6.5-5.1c0-2.5,2.3-3.5,4.5-3.5C36.2,11.6,37.9,12.7,38.1,15"/>
</g>
</svg>
