<?xml version="1.0" encoding="utf-8"?>
<!-- Generator: Adobe Illustrator 26.0.1, SVG Export Plug-In . SVG Version: 6.00 Build 0)  -->
<svg version="1.1" id="Layer_1" xmlns="http://www.w3.org/2000/svg" xmlns:xlink="http://www.w3.org/1999/xlink" x="0px" y="0px"
	 viewBox="0 0 95 35" style="enable-background:new 0 0 95 35;" xml:space="preserve">
<style type="text/css">
	.st0{fill:#CCCCCC;}
</style>
<g>
	<path class="st0" d="M22.9,21.8L20.4,9.1l0.1,0.8c-0.1,0-0.1,0-0.1,0c-0.1,0-0.1,0.1-0.2,0.2c0,0.1,0,0.2,0,0.3
		c0,0.1,0,0.3,0.1,0.4c0,0.1,0,0.2,0,0.3c0,0.1-0.1,0.2-0.1,0.3c-0.1,0.1-0.1,0.2-0.2,0.3c-0.1,0.1-0.2-0.1-0.2-0.1
		c0-0.2-0.1-0.4-0.1-0.6c0-0.1,0.1-0.2,0.1-0.3c0.1-0.1,0-0.2,0-0.3c0-0.1,0-0.2-0.2-0.1c-0.1,0-0.1,0.1-0.2,0.2
		c-0.1,0.2-0.3,0.2-0.5,0.2c-0.1,0-0.2,0-0.2,0.1c-0.1,0-0.1,0.2-0.2,0.2c-0.1,0.1-0.1,0.2-0.1,0.3c0,0.1,0.1,0.1,0.2,0.2
		c0.1,0.1,0.1,0.2,0.1,0.3c0,0.1,0,0.2,0.1,0.3c0,0.2-0.2,0.4-0.2,0.5c-0.1,0.1-0.2,0-0.3,0.2c-0.1,0.1-0.1,0.2-0.1,0.3
		c-0.1,0.1,0,0.2,0.1,0.2c0.1,0.1,0,0.2-0.1,0.3c-0.1,0-0.2-0.1-0.2-0.2c-0.1,0-0.1-0.1-0.2-0.2c-0.1-0.1-0.3,0.4-0.2,0.5l0.4,0.4
		c0.1,0.1,0.1,0.4,0,0.5c-0.1,0.2-0.2,0.4-0.3,0.6c-0.1,0.2-0.2,0.2-0.4,0.2c-0.1,0-0.1,0.2-0.2,0.3c-0.1,0.1,0.1,0.2,0.1,0.2
		c0.1,0.1,0.1,0.3,0.1,0.4c-0.1,0.1-0.1,0-0.2,0c0,0,0,0-0.1,0c0,0,0,0.3,0,0.3c0.1,0.1,0.1,0.1,0.2,0.2c0,0,0,0.1-0.1,0.1
		c0,0-0.1,0-0.1,0l-0.1-0.1c0,0,0,0-0.1-0.1c0,0-0.1-0.1,0-0.2c0-0.1,0.1-0.3,0-0.4c0,0-0.1-0.1-0.1-0.1c-0.1,0-0.1-0.1-0.2-0.1
		c-0.1,0-0.1,0-0.2,0c0,0-0.1,0-0.1-0.1c-0.1-0.1-0.1-0.1-0.2-0.2c-0.1-0.1-0.2,0-0.3,0c-0.1,0.1-0.1,0.1-0.1,0.2
		c-0.1,0.2-0.3,0.4-0.2,0.6c0,0.1,0,0.2,0,0.3c-0.1,0.1-0.1,0.1-0.2,0c-0.1-0.1-0.2-0.1-0.2-0.2c-0.1-0.1-0.1-0.1-0.1-0.2
		c0-0.1,0-0.3-0.1-0.4c0-0.1-0.1-0.1-0.2-0.2c-0.1-0.1-0.2-0.2-0.2-0.1l-0.3,0.1c-0.1,0-0.2,0-0.2,0c-0.1-0.1-0.2,0-0.2,0
		c-0.1,0-0.2,0.1-0.3,0c-0.1,0-0.1-0.2-0.2-0.2c0,0-0.1,0.1-0.1,0.1c0,0.1,0,0.1,0,0.1c0.1,0.1,0.2,0.1,0.2,0.2
		c0.1,0.1,0.4-0.1,0.5,0.2c0.1,0.2-0.1,0.4-0.2,0.5c-0.1,0.1-0.1,0.2-0.2,0.4c0,0.1-0.1,0.1-0.1,0.2c-0.1,0-0.2,0.1-0.3,0
		c-0.1,0-0.1-0.1-0.2-0.2c-0.1-0.1,0-0.5-0.2-0.6c-0.1-0.1-0.3-0.2-0.3-0.4c0-0.1,0-0.3-0.1-0.4c0-0.1-0.1-0.1-0.2,0
		c-0.1,0.1,0,0.3,0,0.4c0,0.1,0,0.2,0.1,0.2c0.1,0.1,0.4,0.2,0.4,0.4c0,0.1,0,0.2,0.1,0.3c0,0.1,0.1,0.1,0.1,0.2
		c0.1,0.1,0.3,0.4,0.5,0.3c0.1,0,0.2,0,0.2-0.1c0,0,0.1-0.3,0.2-0.3c0,0,0.1,0.3,0.1,0.4c0,0.1,0,0.2-0.1,0.3
		c-0.1,0.1-0.1,0.2-0.2,0.3c-0.1,0-0.1,0.1-0.2,0.2l-0.2,0.3c0,0.1,0,0.2,0,0.3c0,0.1,0.1,0.2,0.2,0.2c0.1,0.1,0.1,0.1,0.1,0.2
		c0,0.1,0,0.2,0.1,0.4c0,0.1,0,0.2-0.1,0.2c-0.1,0.2-0.2,0.3-0.2,0.5l0.1,0.4c0,0.1,0,0.2,0,0.2c-0.1,0.1-0.2,0.4-0.3,0.4
		c-0.2,0-0.4,0.1-0.6,0.1c-0.2,0-0.3-0.2-0.4-0.3c-0.1-0.1-0.2-0.2-0.2-0.4c0-0.3-0.1-0.5-0.1-0.8c0-0.1,0-0.2-0.1-0.2
		c0-0.1-0.1-0.1-0.2-0.2c-0.1-0.1-0.1-0.4-0.1-0.5l-0.1-0.8c0-0.2-0.1-0.3-0.3-0.4c-0.1-0.1-0.2,0-0.3,0c-0.1,0-0.1,0.1-0.2,0.2
		c-0.1,0.1-0.3,0.2-0.4,0.2c-0.1,0-0.1-0.1-0.2-0.1c-0.1-0.1-0.2-0.1-0.3-0.2c-0.1-0.1-0.3-0.2-0.4-0.4c0-0.2-0.1-0.4-0.1-0.7
		c0-0.2,0.1-0.4,0.2-0.5c0.1-0.2,0.2-0.3,0.2-0.6c0-0.2,0.1-0.5,0.3-0.5c0.1,0,0.2,0,0.3-0.1c0.1-0.1,0.1-0.2,0.2-0.2
		c0.1-0.1,0.2-0.1,0.3-0.1c0.1,0,0.2-0.1,0.2,0c0.1,0.1,0,0.2,0.1,0.3c0.1,0.1,0.1,0.1,0.2,0.2c0.1,0.1,0.2,0,0.3,0
		c0.1,0,0.1-0.1,0.2-0.2c0.1-0.1,0.2-0.1,0.3-0.1c0.1,0,0.1,0.1,0.2,0.1c0.1,0,0.4,0,0.5-0.2c0-0.2-0.1-0.5-0.3-0.4
		c-0.1,0-0.2,0.1-0.3,0c0,0,0-0.2,0-0.3c0.1-0.1,0.1-0.1,0.2-0.3c0-0.1,0.1-0.1,0.2-0.1c0.1,0,0.1,0.1,0.2,0.1c0.1,0,0.2,0,0.2-0.1
		c0.1,0,0.1-0.2,0.1-0.3c0-0.1-0.1-0.1-0.2-0.2c-0.1-0.1-0.1-0.1-0.2-0.1c-0.1,0-0.1,0.1-0.2,0.2c-0.1,0.1-0.2,0-0.2,0
		c0,0-0.1,0.2-0.1,0.3c0,0-0.1,0.1-0.1,0.1c0,0,0,0.1,0,0.1c0,0.1-0.1,0.2-0.1,0.2c-0.1,0.1,0,0.3-0.1,0.3c-0.1,0.1-0.2-0.1-0.2-0.2
		c0-0.1,0-0.2-0.1-0.3c-0.1-0.1-0.2-0.1-0.2-0.2C11,14,11,13.9,10.9,14c-0.1,0.1,0.1,0.2,0.1,0.2c0,0,0.2,0.2,0.2,0.2
		c0,0,0.1,0.1,0.1,0.1c0,0.1-0.1,0.1-0.1,0.1c0,0,0,0.1,0,0.2c0,0-0.1,0.2-0.1,0.2c0,0,0-0.1,0-0.2c0-0.1-0.1-0.2-0.1-0.2
		c-0.1-0.1-0.2-0.1-0.2-0.2c-0.1-0.1-0.1,0.1-0.2,0.1c-0.1,0.1-0.2,0-0.2,0.1c-0.1,0.1-0.1,0.2-0.2,0.3c0,0.1,0,0.1,0,0.2
		c0,0,0,0.1-0.1,0.1c0,0.1-0.2,0.1-0.2,0.1c-0.1,0-0.1,0-0.2-0.1c0,0,0-0.3-0.1-0.3c0-0.1,0-0.2,0-0.2c0.1-0.1,0.5,0,0.4-0.3
		c0-0.1-0.1-0.2,0-0.3c0-0.1,0.1-0.1,0.1-0.2c0.2-0.2,0.1-0.4,0.2-0.6c0-0.1,0.1-0.1,0.2-0.1c0,0,0,0,0,0c0,0-0.1-0.1-0.1-0.1
		c0,0,0-0.1,0-0.1c0,0,0.1,0.1,0.1,0.1c0,0,0,0,0,0c0,0,0,0,0,0c0,0,0.1,0,0.1,0c0.1,0,0.2,0,0.2,0c0,0,0.1,0,0.1,0
		c0.1-0.1,0-0.1,0.1-0.2c0.1-0.1,0.2,0,0.2-0.1c0-0.1,0.1-0.1,0.1-0.2c0-0.1,0-0.2-0.1-0.2c-0.1,0-0.2,0-0.2-0.1
		c0-0.3,0.2-0.3,0.3-0.5c0.1-0.1,0-0.2-0.1-0.2c-0.1,0-0.2,0.1-0.3,0.2c0,0.1-0.1,0.2-0.1,0.3c0,0.1,0.1,0.2,0.1,0.3
		c0,0.1,0,0.2-0.1,0.3c0,0.1-0.2,0.1-0.2,0.1c-0.1,0-0.1,0-0.1-0.1c0,0-0.1,0-0.1,0c-0.1,0-0.2-0.1-0.2-0.2l0-0.3
		c0-0.2,0-0.3,0.1-0.4c0.1-0.2,0.2-0.5,0.4-0.7c0.1-0.1,0.1-0.3,0.3-0.3c0.1,0,0.2,0,0.3-0.1c0.1,0,0.1,0.1,0.2,0.1
		c0.1,0.1,0.2,0,0.3,0c0.1,0,0.2,0.1,0.2,0.1c0,0,0.1,0.1,0.1,0.1C12.1,11,12,11,12,11c0,0-0.1,0.1-0.1,0.1c0,0.1,0,0.1,0.1,0.1
		c0.1,0.1,0.1,0.1,0.2,0.1c0.1,0,0.2,0,0.3-0.1c0.2,0,0.2-0.2,0.3-0.4c0-0.1,0.2-0.1,0.2-0.1l0.3-0.1c0.1,0,0.2,0,0.2-0.1
		c0.1-0.1,0.1-0.2,0.1-0.2c0-0.1,0.1-0.2,0.2-0.2c0.1,0,0.1,0,0.2-0.1c0.1,0,0.4,0,0.5-0.2c0.2-0.3,0.4-0.7,0.6-1
		c0.1-0.1,0.8-0.3,0.9-0.3c0.1,0,0.2,0.1,0.2,0.1c0.1,0.1,0.2,0.1,0.2,0.2c0.1,0.1,0.3,0,0.4,0c0.2,0,0.4-0.1,0.6-0.1
		c0.2,0,0.3,0.3,0.4,0.3c0.1,0,0.2-0.1,0.3-0.1l0.7-0.2l0.5-0.1c0,0,0,0,0.1,0L11.7,6L0,11.7l0,0l0.4,1.4c0,0,0,0,0,0
		c0.1,0,0.3-0.1,0.4,0c0.2,0.1,0.3,0.3,0.5,0.2C1.5,13.2,1.5,13,1.6,13c0,0,0.1,0,0.2,0c0.2,0,0.4-0.1,0.6-0.1
		c0.2,0,0.3,0.2,0.4,0.3c0.1,0,0.1,0,0.2,0C3,13,3.1,13,3.2,13c0.2,0,0.3,0,0.5-0.1c0.1,0,0.2-0.2,0.1-0.3c0-0.1-0.1-0.3,0-0.2
		C4,12.5,4,12.6,4.1,12.6c0.1,0.1,0.1,0.2,0.1,0.3c0,0.2-0.2,0.4-0.2,0.6c-0.1,0.1,0,0.4,0.1,0.5l0.5,0.4c0.1,0.1,0.2,0.1,0.3,0.2
		c0,0,0.1,0.1,0.1,0.1C5,14.7,5,14.5,5,14.4l0-0.3c0-0.1,0-0.2,0-0.3c0-0.1,0.1-0.2,0.2-0.2l0.5-0.1c0.1,0,0.1,0.1,0.2,0.1
		c0.1,0.1,0.2,0.2,0.3,0.2c0.1,0,0.2,0.1,0.2,0.2c0,0.1,0,0.2,0,0.3c-0.1,0.3-0.2,0.3-0.4,0.3c-0.1,0-0.1,0.1-0.2,0.2
		c-0.1,0.1,0,0.2,0,0.3c0,0.1,0,0.2-0.1,0.2c-0.1,0.1-0.1,0.2-0.2,0.3c0,0.1-0.1,0.1-0.1,0.2c0,0.1,0.1,0.2,0,0.4
		c-0.1,0.2-0.3,0.3-0.2,0.5c0,0.1,0,0.2,0.1,0.3c0,0,0.2,0.1,0.2,0.2c-0.1,0.3-0.3-0.1-0.4-0.1c-0.1,0-0.2,0-0.3,0.1
		c-0.1,0-0.2,0-0.2,0.1c-0.2,0.2-0.1,0.4,0,0.6c0,0.3,0.3,0.2,0.5,0.1c0.1,0,0.1,0.3,0.1,0.3c0,0.1,0.1,0.1,0.1,0.1
		c0.2,0.2,0.3,0.3,0.5,0.4c0,0,0.1,0.1,0.1,0.1c0,0,0.1-0.2,0.1-0.2c0,0,0,0,0.1,0c0.2,0,0.4-0.1,0.6-0.1c0.2,0,0.3,0.3,0.4,0.2
		c0.2,0,0.4-0.1,0.5-0.1c0.2,0,0.2,0,0.3,0.1c0.2,0.2,0.4,0.3,0.6,0.5c0,0,0.1,0.1,0.1,0.1c0.1,0.1,0.1,0.2,0.1,0.3
		c0,0.1,0.1,0.2,0,0.3c0,0.1-0.1,0.2-0.1,0.3c0,0.1,0,0.2,0,0.2c0,0.1,0,0.3,0.1,0.4c0,0.1,0,0.2,0,0.3c0,0.1-0.1,0.2-0.1,0.3
		c-0.1,0.1-0.1,0.1-0.2,0.1c-0.1,0-0.2,0-0.2,0.1c-0.1,0.2-0.2,0.4-0.3,0.5c-0.1,0.2,0.1,0.4,0,0.5c-0.2,0.4-0.4,0.7-0.6,1.1
		c-0.1,0.1,0,0.5,0,0.6c0,0.1,0.1,0.2,0.2,0.2c0,0,0.2,0.2,0.2,0.2c0,0.1-0.2,0.1-0.2,0.1c0,0-0.1,0-0.1,0c-0.1,0-0.2-0.1-0.2-0.1
		c-0.1-0.1-0.3-0.2-0.3-0.4c0-0.3-0.1-0.5-0.1-0.8c0-0.1,0-0.2,0-0.2c0-0.1,0.1-0.2,0.1-0.2c-0.1-0.5-0.1-0.9-0.2-1.4l-0.1-0.5
		c0-0.2-0.2-0.3-0.3-0.4c-0.1-0.1-0.3-0.2-0.4-0.4c0-0.2-0.1-0.5-0.1-0.7c0-0.1,0-0.2,0-0.2c0-0.1,0.1-0.2,0.1-0.3
		c0-0.1,0.1-0.2,0.1-0.3c-0.1,0-0.1-0.1-0.2-0.1C5.3,19.1,5.2,19,5,18.9c0,0-0.1-0.1-0.1-0.1c-0.1,0-0.2,0-0.3,0
		c-0.1,0-0.2,0.1-0.2,0l-0.2-0.2C4,18.4,4,18.2,3.9,18c0-0.2-0.1-0.2-0.3-0.3l-0.5-0.5c0,0-0.1-0.1-0.1-0.1c-0.1,0-0.1,0.2-0.1,0.2
		c0.2,0.1,0.3,0.3,0.5,0.4c0.1,0.1,0.1,0.1,0,0.2c0,0.1-0.1,0-0.1,0c-0.2-0.1-0.3-0.3-0.5-0.4c-0.1-0.1-0.3-0.2-0.4-0.4
		c0-0.1,0-0.3-0.1-0.4c-0.1-0.5-0.1-0.9-0.2-1.4c0-0.1-0.2-0.2-0.3-0.3c-0.2-0.2-0.4-0.3-0.6-0.5c-0.1-0.1-0.2-0.2-0.3-0.2
		c-0.1,0-0.1,0-0.2,0l2.8,9.4l8,5.1l0,0l0,0l0,0l0,0L22.9,21.8z M18.1,18.1l-0.2-0.2c0,0-0.1-0.1-0.1-0.1c0,0,0-0.2,0.1-0.2
		c0,0,0.1,0.1,0.1,0.1c0.1,0.1,0.2,0.2,0.3,0.3c0,0,0,0.2-0.1,0.2C18.2,18.2,18.1,18.1,18.1,18.1z M20.6,21.1c0,0-0.1-0.1-0.2-0.1
		c0,0,0.1-0.2,0.1-0.2v0c0,0,0.1,0.1,0.2,0.1C20.7,21,20.7,21.1,20.6,21.1z M22,20.1c0,0,0.1,0.1,0.2,0.1c0,0.1,0,0.2-0.1,0.2
		c0,0-0.1-0.1-0.2-0.1C21.9,20.3,22,20.1,22,20.1z M21.7,20.7c0-0.1,0.1-0.1,0.1-0.1c0,0,0.1,0.1,0.2,0.1c0,0.1-0.1,0.3-0.2,0.4
		c0,0-0.1,0.1-0.1,0.2c0,0-0.1-0.1-0.2-0.1C21.5,21,21.7,20.7,21.7,20.7z M20.5,18.9c0.1,0.1,0.2,0.1,0.2,0.2l0.1,0.5
		c0,0.2-0.2,0.3-0.1,0.5c0,0.1,0.1,0.3,0,0.3c0,0.1-0.1,0.2-0.1,0.2l-0.3,0.1c-0.1,0-0.2-0.1-0.2-0.1c-0.1-0.1,0-0.4-0.1-0.5
		c-0.1-0.1-0.1,0-0.2,0.1c0,0.1-0.1,0.2-0.2,0.1c-0.1,0-0.1-0.2-0.2-0.1c-0.1,0-0.2,0-0.2,0.1c-0.1,0-0.1,0.1-0.1,0.2
		c0,0.1-0.2,0-0.2,0.1c-0.1,0.1-0.1,0.2-0.2,0.1c-0.1-0.1-0.1-0.1-0.1-0.2L18.4,20c0-0.1-0.1-0.1-0.1-0.2c0-0.1,0-0.2,0-0.3
		c0-0.1,0-0.2,0.1-0.2c0.1-0.2,0.3,0,0.4-0.2c0-0.1,0.1-0.2,0.1-0.3c0-0.1,0-0.2,0-0.3c0-0.1,0.1-0.2,0.2-0.1c0.1,0.1,0.1,0,0.2-0.1
		c0-0.1,0.1-0.2,0.2-0.2c0.1,0,0.1,0.1,0.2,0.2c0,0.1,0.3,0.4,0.4,0.2c0.1-0.1,0-0.2,0-0.3c0,0-0.1-0.3,0-0.3c0,0,0.1,0.1,0.1,0.1
		c0,0.1,0,0.2,0,0.2c0,0,0.1,0.1,0.1,0.1c0,0.1,0,0.2,0,0.2C20.3,18.8,20.4,18.8,20.5,18.9z M18.3,17.4c0-0.1,0.1-0.2,0.1-0.3
		c0.1,0,0.2,0.1,0.2,0.2c0,0.1-0.1,0.2-0.1,0.3C18.5,17.6,18.3,17.5,18.3,17.4z M19.7,17.1c0.1,0,0.1,0,0.2,0c0.1,0,0.1,0.1,0.2,0.1
		c0,0,0.1,0.1,0.1,0.1c0,0,0,0.2,0,0.2c0,0-0.1-0.1-0.1-0.1c0,0-0.1,0-0.1,0.1c0,0.1-0.2,0.2-0.3,0.1c-0.1-0.1-0.1-0.2-0.1-0.3
		c0-0.1,0-0.3-0.2-0.2c-0.1,0-0.1,0.1-0.2,0c0,0-0.2-0.1-0.2-0.2c0-0.1,0.4-0.1,0.4-0.1C19.5,16.9,19.6,17,19.7,17.1z M19.1,12.2
		c0.1,0,0.1,0.1,0.2,0.1c0,0.1-0.1,0.2-0.1,0.2v0c-0.1,0-0.1-0.1-0.2-0.1C19,12.4,19.1,12.3,19.1,12.2z M18.7,13.4
		c0-0.1,0.1-0.1,0.2-0.1c0.1,0,0.2-0.1,0.2-0.2c0-0.1-0.1-0.4,0-0.4c0,0,0.1,0.1,0.1,0.1c0.1,0.1,0.1,0.2,0.1,0.3c0,0.1,0,0.2,0,0.2
		c0,0.1-0.1,0.2-0.2,0.2c-0.1,0-0.2,0-0.2,0.1c0,0.1,0,0.1-0.1,0.2c0,0-0.1,0.1-0.1,0.1c0,0-0.1,0.1-0.1,0
		C18.5,13.8,18.7,13.4,18.7,13.4z M18.5,15.8c0,0,0.2,0.1,0.1,0.2c0,0-0.1,0.2-0.1,0.2c0,0-0.2-0.1-0.1-0.2
		C18.3,16,18.4,15.8,18.5,15.8z M18.3,15.5c0,0,0.1,0.1,0.1,0.1c0,0-0.1,0.1-0.1,0.1c0,0-0.1-0.1-0.1-0.1
		C18.2,15.6,18.2,15.5,18.3,15.5z M18.2,14.8C18.2,14.8,18.2,14.8,18.2,14.8c0.1,0,0.1,0.2,0,0.2c0,0-0.1,0-0.1-0.1
		C18.1,15,18.1,14.9,18.2,14.8z M17.6,16.9c0,0,0.1,0,0.2,0c0.1,0,0.2-0.2,0.2-0.3c0.1-0.1,0-0.2,0-0.3c0,0,0,0,0-0.1
		c0.1-0.1,0.2,0.2,0.2,0.2c0,0.1,0,0.3,0.1,0.4c0,0.1-0.1,0.3-0.2,0.3c-0.1,0.1-0.2,0.1-0.3,0.1c0,0,0,0,0,0h0c0,0,0,0,0,0
		c-0.1,0-0.2-0.2-0.2-0.3C17.6,16.9,17.6,16.9,17.6,16.9z M16.7,16.5c0,0,0.3,0.2,0.3,0.2l0.3,0.3c0,0,0,0.1,0,0.2h0
		c0,0.1,0,0.1,0.1,0.1c0,0,0.1,0.3,0.1,0.3c0,0-0.3-0.2-0.3-0.3c0-0.1,0-0.2-0.1-0.3c-0.1-0.1-0.2-0.2-0.3-0.3
		C16.7,16.7,16.7,16.5,16.7,16.5z M15.7,16.7L15.7,16.7C15.7,16.7,15.8,16.7,15.7,16.7c0.1,0.1,0.1,0.2,0,0.2c0,0-0.1,0-0.1-0.1
		C15.6,16.8,15.7,16.7,15.7,16.7z M13.9,20.1c0-0.1,0.1-0.1,0.1-0.2c0-0.1,0-0.1,0-0.2c0-0.1,0.2-0.4,0.2-0.4c0,0,0.1,0.4,0.1,0.5
		c0,0.1,0.1,0.3,0.1,0.5c0,0.1-0.2,0.3-0.3,0.3c-0.1,0-0.1-0.1-0.1-0.2C13.9,20.3,13.9,20.2,13.9,20.1z M12.2,14.8
		C12.2,14.8,12.2,14.8,12.2,14.8C12.2,14.8,12.2,14.8,12.2,14.8C12.2,14.8,12.2,14.8,12.2,14.8C12.2,14.9,12.2,14.9,12.2,14.8
		C12.1,14.9,12.1,14.9,12.2,14.8C12.1,14.9,12.2,14.8,12.2,14.8z M10.7,14.6c0,0,0.1,0,0.1,0.1c0,0,0,0.1-0.1,0.1c0,0,0,0,0,0h0l0,0
		c0,0-0.1,0-0.1-0.1C10.6,14.7,10.7,14.6,10.7,14.6z M10.7,12.8C10.7,12.8,10.7,12.8,10.7,12.8C10.7,12.9,10.7,12.9,10.7,12.8
		C10.6,12.9,10.6,12.9,10.7,12.8C10.7,12.8,10.7,12.8,10.7,12.8z M9.5,12.8C9.5,12.8,9.6,12.7,9.5,12.8c0.1-0.1,0.1,0,0.1,0.1
		c0,0,0.1,0,0.1,0.1c0,0.1-0.1,0.1,0,0.2l0.2,0.2c0.1,0.1,0.1,0.3,0,0.3c-0.1,0-0.1,0-0.2,0c0,0-0.1,0.2-0.1,0.1
		c-0.1,0,0.1-0.3,0.1-0.3c0-0.1,0-0.2-0.1-0.3c0,0,0-0.1,0-0.2c0,0-0.1-0.1-0.1-0.1C9.5,12.9,9.5,12.8,9.5,12.8z M9.5,13.2
		c0.1,0,0.1,0.1,0.1,0.2c0,0.1-0.1,0.2-0.2,0.2c-0.1,0-0.1-0.1-0.1-0.2C9.3,13.4,9.4,13.3,9.5,13.2z M5.8,18.3c0,0-0.1-0.1-0.2-0.2
		c0,0-0.1-0.1-0.2-0.1c0,0,0-0.1,0.1-0.1c0.1,0.1,0.2,0.1,0.3,0.2c0,0,0.1,0,0.1,0.1C5.9,18.2,5.8,18.3,5.8,18.3z M6.1,18.4
		c0,0-0.1,0-0.1-0.1c0,0,0-0.1,0.1-0.1C6.1,18.3,6.1,18.3,6.1,18.4C6.2,18.4,6.1,18.4,6.1,18.4z M7.8,25.1
		C7.8,25.1,7.7,25.1,7.8,25.1c-0.1-0.1,0-0.2,0-0.2C7.8,25,7.9,25,7.8,25.1C7.9,25.1,7.8,25.1,7.8,25.1z M3,11.3
		c0.1-0.1,0.2-0.1,0.3-0.1c0,0,0.3-0.1,0.3-0.1c0,0-0.2,0.3-0.2,0.3l-0.2,0.3c-0.1,0.2-0.3,0-0.3-0.1C2.7,11.6,2.9,11.4,3,11.3z
		 M3.1,12.7l-0.3,0.1c-0.2,0-0.2-0.1-0.4-0.2c-0.1-0.1-0.2,0-0.2,0c-0.1,0-0.2,0-0.3,0.1c-0.1,0-0.1,0-0.2,0c-0.1,0-0.2-0.1-0.1-0.2
		c0-0.1,0.1-0.2,0.2-0.2l0.3-0.1c0.1,0,0.2-0.1,0.2,0c0.1,0,0.1,0.1,0.2,0.2c0.1,0.1,0.4,0,0.5-0.1c0.1,0,0.4,0.2,0.3,0.3
		C3.2,12.6,3.2,12.7,3.1,12.7z M3.5,12.3c0,0.1-0.2-0.1-0.2-0.1c0,0,0.1-0.2,0.1-0.2c0,0,0.2,0.1,0.2,0.1
		C3.6,12.1,3.5,12.3,3.5,12.3z M3.7,11.9c0,0-0.1-0.1-0.1-0.1c0,0,0-0.2,0.1-0.2c0,0,0.1,0.1,0.1,0.1C3.8,11.7,3.7,11.9,3.7,11.9z
		 M3.8,11.1l0.3-0.5c0.1-0.1,0.2-0.1,0.3-0.1l0.5-0.1c0,0,0.1,0,0.1,0c0,0.1-0.1,0.2-0.2,0.2c-0.1,0-0.2,0-0.2,0.1
		c0,0.1-0.1,0.2-0.1,0.3c0,0.1,0.1,0.2,0,0.3c0,0.1-0.1,0.1-0.1,0.2c-0.1,0.1-0.3,0.2-0.4,0.1v0C3.8,11.5,3.7,11.3,3.8,11.1z
		 M4.5,13.5c0,0-0.2-0.1-0.2-0.1c0,0,0.1-0.2,0.1-0.2c0,0,0.2,0.1,0.2,0.1C4.6,13.3,4.5,13.5,4.5,13.5z M5.6,13.2
		c-0.2,0.2-0.3,0-0.5-0.1C5.1,13.1,5,13,4.9,13c-0.1-0.1-0.1-0.2-0.1-0.3c0-0.1,0-0.2-0.1-0.3h0c-0.1-0.1-0.2,0-0.3,0
		c-0.1,0-0.2,0.1-0.3,0L4,12.3c-0.1-0.1,0.1-0.4,0.2-0.4l0.5-0.1c0.1,0,0.3,0.2,0.4,0.3c0.1,0.1,0.3,0.2,0.4,0.4
		c0.1,0.1,0,0.2-0.1,0.3c0,0.1,0,0.2,0.1,0.2C5.7,12.9,5.8,13.1,5.6,13.2z M8.3,11.6c-0.1,0.1-0.1,0.2-0.3,0.2c-0.1,0-0.2,0-0.3,0.1
		l-0.2,0.4c-0.1,0.1-0.1,0.2-0.1,0.3c0,0.2,0.1,0.3-0.1,0.4c-0.1,0.1-0.2,0.1-0.3,0c-0.1-0.1-0.4-0.2-0.4-0.4c0-0.1,0-0.3-0.1-0.4
		c-0.1-0.1-0.1-0.1-0.2-0.2c0-0.1,0-0.2-0.1-0.4c0-0.1,0-0.2-0.1-0.3c-0.1-0.1-0.3-0.2-0.4-0.3C5.7,11,5.6,11,5.4,11.1
		c-0.1,0-0.2,0.1-0.3,0c-0.1,0-0.2-0.1-0.2-0.2c0.1-0.1,0.1-0.2,0.2-0.2c0.1,0,0.1,0,0.2-0.1c0.1-0.1,0.2-0.4,0.3-0.5L6.3,10
		c0.2,0,0.2-0.2,0.3-0.4c0-0.1,0.3-0.1,0.5-0.2c0.1,0,0.4-0.1,0.5,0c0.1,0.1,0.2,0.2,0.3,0.2c0.1,0,0.1,0,0.2,0l0.3-0.1
		c0.1,0,0.1,0,0.1,0.2c0,0.2-0.3,0.3-0.2,0.6c0,0.1,0,0.2,0.1,0.2c0,0,0.1,0.1,0.1,0.1c0,0.1,0,0.2-0.1,0.3c-0.1,0.1,0,0.3,0,0.4
		C8.4,11.4,8.3,11.5,8.3,11.6z M8.7,12.4c-0.1,0.1-0.3,0.1-0.3,0c-0.1-0.1-0.1-0.1,0-0.1c0-0.1,0.1-0.1,0.1-0.2
		C8.5,12,8.6,12,8.6,12c0,0,0.1,0,0.1,0.1C8.9,12.1,8.8,12.3,8.7,12.4z"/>
	<polygon class="st0" points="0.4,13.1 0.8,14.4 0.8,14.4 0.4,13.1 	"/>
	<polygon class="st0" points="19.5,8.8 19.5,8.8 20.4,9.1 	"/>
</g>
<path class="st0" d="M26.6,14.3h2.9v9.1h2.5v-9.1h2.7l0.8-2.3h-8.9V14.3z M42.3,14.3l0.8-2.3h-6.5v11.4H43v-2.3h-3.9v-2.4h3.4v-2.3
	h-3.4v-2.1H42.3z M50.1,16.9c0,0.1-0.1,0.1-0.1,0.2c0,0,0,0,0-0.1l-3.3-5h-2.2v11.4h2.5v-6.7l2.4,3.6h1.4l2.2-3.6v6.6h2.5V12h-2.2
	L50.1,16.9z M63.1,14.3l0.8-2.3h-6.5v11.4h6.3v-2.3h-3.9v-2.4h3.4v-2.3h-3.4v-2.1H63.1z M72.5,18.9l-0.1-0.2l-5-6.7h-2.2v11.4h2.5
	v-7c0,0,0,0.1,0.1,0.1l5.2,6.9H75V12h-2.5V18.9z M92.2,16.6c-1-0.6-1.7-1-1.7-1.6c0-0.7,0.8-0.8,1.2-0.8c0.7,0,1.4,0.2,2,0.6l0,0
	l0.8-2.2l-0.3-0.1c-0.8-0.4-1.6-0.6-2.6-0.6c-2.1,0-3.6,1.3-3.6,3.2c0,0.9,0.3,1.6,0.9,2.2c0.5,0.6,1.3,1,1.9,1.4
	c1,0.6,1.7,1,1.7,1.7c0,0.7-0.9,0.9-1.4,0.9c-1,0-1.7-0.5-1.9-0.6l-0.5-0.4l-0.8,2.3l0.1,0c1,0.6,2,1,3.2,1c2.3,0,3.9-1.4,3.9-3.3
	C95,18.3,93.4,17.4,92.2,16.6 M81.7,21.3c-1.9,0-3.1-1.3-3.1-3.5c0-2.2,1.2-3.5,3.1-3.5c1.9,0,3.1,1.3,3.1,3.5
	C84.8,19.9,83.6,21.3,81.7,21.3 M81.7,11.9c-1.6,0-3,0.6-4.1,1.6l0,0c-1,1.1-1.6,2.6-1.6,4.2c0,1.8,0.6,3.3,1.8,4.4
	c1,0.9,2.4,1.4,3.9,1.4c1.6,0,3-0.5,4-1.6c1.1-1.1,1.7-2.6,1.7-4.3c0-1.6-0.5-3-1.4-4C84.9,12.6,83.4,11.9,81.7,11.9"/>
</svg>
