<?xml version="1.0" encoding="utf-8"?>
<!-- Generator: Adobe Illustrator 26.0.1, SVG Export Plug-In . SVG Version: 6.00 Build 0)  -->
<svg version="1.1" id="Layer_1" xmlns="http://www.w3.org/2000/svg" xmlns:xlink="http://www.w3.org/1999/xlink" x="0px" y="0px"
	 viewBox="0 0 95 35" style="enable-background:new 0 0 95 35;" xml:space="preserve">
<style type="text/css">
	.st0{fill-rule:evenodd;clip-rule:evenodd;fill:#CCCCCC;}
</style>
<path id="path20" class="st0" d="M0,22.2h1.8c0,0.6,0.3,0.7,0.8,0.7h2.2c0.4,0,0.8,0,0.8-0.5c0-0.5-0.2-0.6-2.6-0.6
	c-2.7,0-3.1-0.3-3.1-1.8c0-1.1,0.1-1.9,2.4-1.9H5c2.1,0,2.3,0.7,2.3,1.8v0.2H5.4c0-0.4,0-0.6-0.9-0.6h-2c-0.4,0-0.7,0.1-0.7,0.5
	c0,0.5,0.2,0.5,2.2,0.5c2.8,0,3.5,0.2,3.5,1.9c0,1.6-0.5,1.9-3,1.9H2.3c-1.7,0-2.3-0.3-2.3-1.6V22.2"/>
<polyline id="polyline22" class="st0" points="7.8,18.2 9.5,18.2 10.8,22.6 10.8,22.6 12.3,18.2 14,18.2 15.5,22.6 15.6,22.6 
	16.8,18.2 18.6,18.2 16.7,24.2 14.6,24.2 13.2,20.3 13.2,20.3 11.8,24.2 9.7,24.2 7.8,18.2 "/>
<path id="path24" class="st0" d="M20.8,21.9h2.3l-1.2-2.2L20.8,21.9 M20.7,18.2h2.4l3.3,6h-2l-0.6-1.1h-3.7l-0.5,1.1h-2L20.7,18.2z"
	/>
<polyline id="polyline26" class="st0" points="25.1,18.2 32.1,18.2 32.1,19.7 29.5,19.7 29.5,24.2 27.7,24.2 27.7,19.7 25.1,19.7 
	25.1,18.2 "/>
<path id="path28" class="st0" d="M32.5,20.3c0-1.7,1-2.2,2.6-2.2h2.1c2.6,0,2.9,0.6,2.9,2.2h-1.8v-0.2c0-0.4-0.3-0.6-0.9-0.6h-2
	c-1,0-1.1,0.5-1.1,1.2v0.6c0,0.9,0.2,1.2,1,1.2h1.9c0.8,0,1.1-0.1,1.1-0.8h1.8v0.6c0,1-0.4,1.8-2.2,1.8h-2.9c-1.6,0-2.6-0.4-2.6-2.2
	L32.5,20.3"/>
<polyline id="polyline30" class="st0" points="41.2,18.2 43,18.2 43,20.4 46.9,20.4 46.9,18.2 48.7,18.2 48.7,24.2 46.9,24.2 
	46.9,21.9 43,21.9 43,24.2 41.2,24.2 41.2,18.2 "/>
<path id="path32" class="st0" d="M53.4,20.3c0-1.7,1-2.2,2.6-2.2h2.7c2.1,0,2.4,0.7,2.4,1.9v0.2h-1.8c0-0.6-0.3-0.7-0.9-0.7h-2
	c-0.9,0-1.2,0.2-1.2,1.2v0.7c0,1,0.2,1.2,1.2,1.2h1.9c0.5,0,1-0.1,1-0.6V22h-2.3v-1.2h4.1v1.7c0,1.7-0.9,1.8-2.9,1.8h-2.2
	c-1.6,0-2.6-0.4-2.6-2.2V20.3"/>
<path id="path34" class="st0" d="M63.9,21.2h3c0.5,0,0.7-0.2,0.7-0.6v-0.2c0-0.5-0.3-0.6-0.8-0.6h-2.9V21.2 M62.1,18.2h5.5
	c1.4,0,1.8,0.7,1.8,1.8v0.4c0,0.8-0.2,1.3-1,1.5v0c0.5,0.1,1,0.3,1,1.3v1h-1.8v-0.7c0-0.6-0.2-0.8-0.7-0.8h-2.9v1.5h-1.8V18.2
	L62.1,18.2z"/>
<path id="path36" class="st0" d="M72.2,21.5c0,0.9,0.2,1.2,1,1.2h2.3c0.9,0,1-0.3,1-1.2v-0.6c0-0.7-0.2-1.2-1.1-1.2h-2.1
	c-1,0-1.1,0.5-1.1,1.2V21.5 M70.3,20.3c0-1.7,1-2.2,2.6-2.2h2.9c1.6,0,2.6,0.4,2.6,2.2v1.8c0,1.7-1,2.2-2.6,2.2h-2.9
	c-1.6,0-2.6-0.4-2.6-2.2V20.3z"/>
<path id="path38" class="st0" d="M79.4,18.2h1.8v3.4c0,0.8,0.3,1.1,1,1.1H84c0.7,0,1-0.3,1-1.1v-3.4h1.8v3.8c0,1.5-0.8,2.2-2.4,2.2
	h-2.6c-1.7,0-2.4-0.7-2.4-2.2L79.4,18.2"/>
<path id="path40" class="st0" d="M89.7,21.2h2.8c0.4,0,0.6-0.3,0.6-0.6v-0.2c0-0.4-0.2-0.6-0.7-0.6h-2.7V21.2 M87.9,18.2h5
	c1.7,0,2.2,0.9,2.2,2v0.5c0,0.9-0.4,1.9-1.7,1.9h-3.6v1.5h-1.8V18.2L87.9,18.2z"/>
<path id="path42" class="st0" d="M75.7,14.5h-1.1v-1.1h1.1v-1.1h0.7c-0.5-0.6-1.3-1-2.1-1c-1.5,0-2.7,1.2-2.7,2.7
	c0,1.5,1.2,2.7,2.7,2.7c0.8,0,1.6-0.4,2.1-1h-0.7V14.5"/>
<path id="path44" class="st0" d="M58.7,13.4h0.9c-0.2-1.1-1.1-1.9-2.2-1.9c-1.3,0-2.3,1-2.3,2.3c0,1.3,1,2.3,2.3,2.3
	c1.1,0,2-0.8,2.2-1.8h-0.9V13.4"/>
<path id="path46" class="st0" d="M46.2,13.5h0.5c-0.2-0.8-0.9-1.4-1.8-1.4c-1,0-1.9,0.8-1.9,1.9c0,1,0.8,1.9,1.9,1.9
	c0.9,0,1.6-0.6,1.8-1.4h-0.5L46.2,13.5"/>
<path id="path48" class="st0" d="M92,13.1v-1.4h-1.4v1.4h-1.4v1.4h1.4V16H92v-1.4h1.4v-1.4H92 M88.2,13.8c0-1.7,1.4-3.1,3.1-3.1
	s3.1,1.4,3.1,3.1c0,1.7-1.4,3.1-3.1,3.1S88.2,15.6,88.2,13.8z"/>
</svg>
