<?xml version="1.0" encoding="utf-8"?>
<!-- Generator: Adobe Illustrator 26.0.1, SVG Export Plug-In . SVG Version: 6.00 Build 0)  -->
<svg version="1.1" id="Layer_1" xmlns="http://www.w3.org/2000/svg" xmlns:xlink="http://www.w3.org/1999/xlink" x="0px" y="0px"
	 viewBox="0 0 95 35" style="enable-background:new 0 0 95 35;" xml:space="preserve">
<style type="text/css">
	.st0{fill:#343741;}
</style>
<g>
	<polygon class="st0" points="16.2,23.5 6.9,7.5 25.4,7.5 18.4,19.5 20.8,23.5 32.3,3.5 0,3.5 16.2,31.5 18.4,27.5 	"/>
	<polygon class="st0" points="19,11.2 16.2,16.1 13.3,11.2 	"/>
	<polygon class="st0" points="38.5,5.5 40.6,5.5 43.3,13.3 43.4,13.3 46.2,5.5 48.2,5.5 44.1,15.6 42.5,15.6 	"/>
	<rect x="50.1" y="5.5" class="st0" width="1.8" height="10.1"/>
	<g>
		<path class="st0" d="M75.4,5.5h3.5c0.5,0,0.9,0,1.4,0.1c0.4,0.1,0.8,0.3,1.2,0.5c0.3,0.2,0.6,0.5,0.8,0.9c0.2,0.4,0.3,0.8,0.3,1.4
			c0,0.7-0.2,1.3-0.6,1.8c-0.4,0.5-1,0.8-1.7,0.9l2.7,4.5h-2.2l-2.3-4.3h-1.3v4.3h-1.8V5.5z M78.6,9.9c0.3,0,0.5,0,0.8-0.1
			c0.3,0,0.5-0.1,0.7-0.2c0.2-0.1,0.4-0.3,0.5-0.4c0.1-0.2,0.2-0.4,0.2-0.7c0-0.3-0.1-0.5-0.2-0.7c-0.1-0.2-0.3-0.3-0.5-0.4
			c-0.2-0.1-0.4-0.2-0.6-0.2C79.3,7.1,79,7,78.8,7h-1.6v2.9L78.6,9.9L78.6,9.9z"/>
		<polygon class="st0" points="56.2,7.1 60.9,7.1 61.8,5.5 54.4,5.5 54.4,15.6 56.2,15.6 56.2,11.4 60.7,11.4 60.7,9.9 56.2,9.9 		
			"/>
		<path class="st0" d="M30.9,19.4h3.3c0.6,0,1.1,0,1.6,0.2c0.5,0.1,0.9,0.3,1.2,0.5c0.3,0.2,0.6,0.5,0.8,0.9
			c0.2,0.4,0.3,0.8,0.3,1.3c0,0.6-0.1,1-0.3,1.4c-0.2,0.4-0.5,0.7-0.9,0.9S36,25,35.6,25.1c-0.5,0.1-1,0.2-1.5,0.2h-1.4v4.2h-1.8
			V19.4z M33.9,23.8c0.3,0,0.6,0,0.8-0.1c0.3,0,0.5-0.1,0.7-0.2c0.2-0.1,0.4-0.3,0.5-0.4c0.1-0.2,0.2-0.4,0.2-0.7
			c0-0.3-0.1-0.5-0.2-0.7c-0.1-0.2-0.3-0.3-0.5-0.4C35.3,21,35,21,34.8,20.9c-0.3,0-0.5,0-0.8,0h-1.3v2.9L33.9,23.8L33.9,23.8z"/>
		<polygon class="st0" points="40,19.4 41.8,19.4 41.8,23.4 46.5,23.4 46.5,19.4 48.3,19.4 48.3,29.5 46.5,29.5 46.5,25 41.8,25 
			41.8,29.5 40,29.5 		"/>
		<path class="st0" d="M54.4,19.4H56l4.4,10.1h-2.1l-1-2.3H53L52,29.5h-2L54.4,19.4z M56.7,25.6l-1.6-4.1l-1.6,4.1H56.7z"/>
		<path class="st0" d="M62.1,19.4h3.5c0.5,0,0.9,0,1.4,0.1c0.4,0.1,0.8,0.3,1.2,0.5s0.6,0.5,0.8,0.9c0.2,0.4,0.3,0.8,0.3,1.4
			c0,0.7-0.2,1.3-0.6,1.8c-0.4,0.5-1,0.8-1.7,0.9l2.7,4.5h-2.2l-2.3-4.3h-1.3v4.3h-1.8L62.1,19.4L62.1,19.4z M65.4,23.7
			c0.3,0,0.5,0,0.8-0.1c0.3,0,0.5-0.1,0.7-0.2c0.2-0.1,0.4-0.3,0.5-0.4c0.1-0.2,0.2-0.4,0.2-0.7c0-0.3-0.1-0.5-0.2-0.7
			c-0.1-0.2-0.3-0.3-0.5-0.4s-0.4-0.2-0.6-0.2c-0.2,0-0.5-0.1-0.7-0.1h-1.6v2.9L65.4,23.7L65.4,23.7z"/>
		<polygon class="st0" points="72.1,19.4 74.9,19.4 77.5,26.6 77.5,26.6 80.1,19.4 83,19.4 83,29.5 81.2,29.5 81.2,21.4 81.2,21.4 
			78.1,29.5 76.8,29.5 73.8,21.4 73.8,21.4 73.8,29.5 72.1,29.5 		"/>
		<path class="st0" d="M89.1,19.4h1.6L95,29.5h-2.1l-1-2.3h-4.4l-0.9,2.3h-2L89.1,19.4z M91.4,25.6l-1.6-4.1l-1.6,4.1H91.4z"/>
		<path class="st0" d="M62.5,10.5c0-0.8,0.1-1.5,0.4-2.2c0.3-0.6,0.6-1.2,1.1-1.7c0.5-0.5,1-0.8,1.7-1.1c0.6-0.3,1.3-0.4,2.1-0.4
			c0.8,0,1.5,0.1,2.1,0.4c0.6,0.3,1.2,0.6,1.7,1.1c0.5,0.5,0.8,1,1.1,1.7C72.9,9,73,9.7,73,10.5c0,0.8-0.1,1.5-0.4,2.2
			c-0.3,0.6-0.6,1.2-1.1,1.7c-0.5,0.5-1,0.8-1.7,1.1s-1.3,0.4-2.1,0.4c-0.8,0-1.5-0.1-2.1-0.4c-0.6-0.3-1.2-0.6-1.7-1.1
			c-0.5-0.5-0.8-1-1.1-1.7C62.6,12.1,62.5,11.3,62.5,10.5 M64.4,10.5c0,0.5,0.1,1,0.2,1.5c0.2,0.4,0.4,0.8,0.7,1.2s0.6,0.6,1.1,0.8
			c0.4,0.2,0.9,0.3,1.4,0.3c0.5,0,1-0.1,1.4-0.3c0.4-0.2,0.8-0.4,1.1-0.8c0.3-0.3,0.5-0.7,0.7-1.2c0.2-0.4,0.2-1,0.2-1.5
			c0-0.5-0.1-1-0.2-1.5c-0.2-0.4-0.4-0.8-0.7-1.2c-0.3-0.3-0.6-0.6-1.1-0.8c-0.4-0.2-0.9-0.3-1.4-0.3c-0.5,0-1,0.1-1.4,0.3
			c-0.4,0.2-0.8,0.5-1.1,0.8c-0.3,0.3-0.5,0.7-0.7,1.2C64.5,9.5,64.4,10,64.4,10.5"/>
	</g>
</g>
</svg>
