<?xml version="1.0" encoding="utf-8"?>
<!-- Generator: Adobe Illustrator 26.0.1, SVG Export Plug-In . SVG Version: 6.00 Build 0)  -->
<svg version="1.1" id="Layer_1" xmlns="http://www.w3.org/2000/svg" xmlns:xlink="http://www.w3.org/1999/xlink" x="0px" y="0px"
	 viewBox="0 0 95 35" style="enable-background:new 0 0 95 35;" xml:space="preserve">
<style type="text/css">
	.st0{fill:#343741;}
</style>
<g transform="translate(-93.466 -94.559)">
	<path class="st0" d="M139.2,94.6c-5.3,0-9.6,4.3-9.6,9.6c0,2.2,0.7,4.2,2,5.8l8-10.5h-1.7c-0.9,0-1.8,0.1-2.4,0.2
		c-0.4,0.1-0.7,0.2-1,0.4c-0.3,0.2-0.7,0.7-1,1.2c0,0.1-0.1,0.1-0.1,0.2l-0.5-0.1l0.8-3h10l-7.9,10.6c0.5,0,0.7-0.1,1.1-0.1
		c0.3,0,0.8,0,1.5,0.1l1.4,0.1c0.5,0,0.9,0,1.3,0c0.7,0,1.2-0.1,1.7-0.2c0.4-0.1,0.7-0.3,1-0.5c0.6-0.4,1.1-1,1.4-1.6
		c0-0.1,0.1-0.2,0.1-0.3l0.4,0.1c-0.1,0.5-0.2,0.7-0.4,1.2c-0.4,1-0.9,1.6-1.6,2.1c-0.7,0.5-1.4,0.7-2.3,0.8h-0.1
		c-0.7,0-1.2-0.1-2.7-0.3c-1.6-0.2-2.4-0.3-3.2-0.3c-0.5,0-1,0-1.6,0.1c-0.7,0.1-1,0.2-1.6,0.5c1.7,1.9,4.3,3.1,7,3.1
		c5.3,0,9.6-4.3,9.6-9.6C148.8,98.8,144.5,94.6,139.2,94.6"/>
	<path class="st0" d="M145.3,121.8c0-0.6,0-0.8,0.1-1c0-0.1,0.1-0.2,0.1-0.3c0.1-0.2,0.2-0.2,0.3-0.4h-2.9c0.2,0.2,0.3,0.2,0.3,0.4
		c0.1,0.1,0.1,0.2,0.1,0.3c0.1,0.2,0.1,0.4,0.1,1c0,0.3,0,0.5,0,0.6v5.5c0,0.3-0.1,0.7-0.1,0.9c0,0.1-0.1,0.2-0.1,0.3
		c-0.1,0.1-0.1,0.2-0.3,0.3h2.9c-0.1-0.1-0.2-0.2-0.3-0.3c-0.1-0.1-0.1-0.2-0.1-0.3c-0.1-0.2-0.1-0.5-0.1-0.8v-5.5L145.3,121.8"/>
	<path class="st0" d="M164.9,121.8c0-0.4,0-0.7,0.1-1c0-0.1,0.1-0.2,0.1-0.3c0.1-0.2,0.2-0.2,0.4-0.4h-3c0.2,0.1,0.2,0.2,0.3,0.4
		c0.1,0.1,0.1,0.2,0.2,0.3c0.1,0.2,0.1,0.5,0.1,1v2.2H159v-1.7c0-0.5,0-0.8,0-1.1c0-0.1,0-0.3,0.1-0.4c0.1-0.2,0.2-0.5,0.4-0.6
		c0,0,0.1-0.1,0.1-0.1h-2.9c0.2,0.2,0.2,0.2,0.3,0.4c0.1,0.1,0.1,0.2,0.2,0.3c0.1,0.2,0.1,0.4,0.1,1l0,0.6v5c0,0.5,0,0.7,0,1
		c0,0.1,0,0.2-0.1,0.4c-0.1,0.2-0.2,0.4-0.4,0.5c0,0-0.1,0.1-0.1,0.1h2.9c-0.1-0.1-0.2-0.2-0.2-0.3c-0.1-0.1-0.1-0.2-0.1-0.3
		c-0.1-0.2-0.1-0.4-0.1-0.8c0-0.2,0-0.4,0-0.5v-2.2h4.1v2.2c0,0.5,0,0.7,0,0.9c0,0.1,0,0.3-0.1,0.4c-0.1,0.2-0.2,0.3-0.3,0.5
		c0,0-0.1,0.1-0.1,0.1h2.9c-0.1-0.1-0.2-0.2-0.2-0.3c-0.1-0.1-0.1-0.2-0.2-0.3c-0.1-0.2-0.1-0.4-0.1-0.8c0-0.3,0-0.4,0-0.5l0-5
		L164.9,121.8"/>
	<path class="st0" d="M138,124.1c-0.3,0.2-0.7,0.3-1.2,0.4c-0.2,0-0.3,0-0.5,0c0,0-0.1,0-0.1,0v-3.4c0.1,0,0.2,0,0.2,0
		c0.4,0,0.9,0.1,1.2,0.2c0.2,0.1,0.4,0.2,0.6,0.3c0.3,0.3,0.5,0.6,0.5,1.1c0,0.4-0.1,0.8-0.4,1C138.3,123.9,138.1,124,138,124.1
		L138,124.1z M141.5,128.6c-0.3-0.3-0.6-0.6-1-1.1c-0.3-0.3-0.5-0.5-0.7-0.7l-1.4-1.7c0.2-0.1,0.2-0.1,0.4-0.1
		c0.5-0.2,0.8-0.4,1.1-0.7c0.4-0.3,0.6-0.6,0.7-1c0.1-0.2,0.1-0.5,0.1-0.7c0-0.6-0.2-1.1-0.6-1.5c-0.4-0.4-0.9-0.7-1.5-0.8
		c-0.4-0.1-0.8-0.1-1.6-0.2c-0.3,0-0.6,0-0.8,0h-2.4c0.2,0.1,0.2,0.2,0.3,0.3c0.1,0.1,0.1,0.2,0.2,0.3c0.1,0.2,0.1,0.5,0.1,1v6
		c0,0.4,0,0.7-0.1,0.9c0,0.1-0.1,0.2-0.2,0.3c-0.1,0.1-0.1,0.2-0.3,0.3h2.9c-0.1-0.1-0.2-0.2-0.3-0.3c-0.1-0.1-0.1-0.2-0.2-0.3
		c-0.1-0.2-0.1-0.4-0.1-0.8c0-0.1,0-0.3,0-0.5v-2.1l1.7,2c0.1,0.1,0.2,0.2,0.4,0.4c0.2,0.2,0.3,0.4,0.4,0.5c0.3,0.3,0.6,0.6,0.9,0.8
		c0.3,0.1,0.5,0.2,0.9,0.2c0.1,0,0.3,0,0.5,0h1.1c-0.2-0.1-0.2-0.2-0.3-0.3C141.7,128.9,141.6,128.8,141.5,128.6"/>
	<path class="st0" d="M154.1,127.9c-0.6,0.2-1.1,0.3-1.6,0.3c-0.9,0-1.8-0.3-2.4-1c-0.6-0.6-0.9-1.5-0.9-2.5c0-1,0.3-1.8,0.8-2.5
		c0.2-0.3,0.5-0.5,0.8-0.7c0.5-0.3,1.1-0.4,1.8-0.4c0.6,0,1.1,0.1,1.6,0.3c0.3,0.1,0.5,0.2,0.8,0.4v-1.7c-0.2-0.1-0.3-0.1-0.6-0.1
		c-0.5-0.1-1-0.2-1.6-0.2c-1,0-1.8,0.2-2.6,0.5c-0.5,0.2-0.9,0.4-1.3,0.7c-1.1,0.9-1.7,2.2-1.7,3.7c0,1.5,0.6,2.7,1.7,3.6
		c0.9,0.7,2,1.1,3.4,1.1c0.9,0,1.7-0.1,2.6-0.4c0,0,0.1,0,0.1,0v-1.7c-0.2,0.1-0.3,0.2-0.4,0.3C154.5,127.8,154.3,127.8,154.1,127.9
		"/>
	<path class="st0" d="M129.7,120.5c0.1,0.1,0.1,0.2,0.1,0.3c0.1,0.2,0.1,0.4,0.1,1v3.5c0,0.7,0,1.2-0.1,1.6c0,0.2-0.1,0.5-0.2,0.7
		c-0.2,0.4-0.6,0.7-1.1,0.8c-0.2,0-0.4,0.1-0.7,0.1c-0.8,0-1.5-0.3-1.8-0.8c-0.3-0.4-0.3-0.7-0.3-1.7l0-0.8v-2.8c0-0.5,0-0.8,0-1.1
		c0-0.2,0-0.3,0.1-0.4c0.1-0.2,0.2-0.5,0.4-0.7c0,0,0,0,0.1-0.1h-3c0.2,0.2,0.2,0.2,0.3,0.4c0.1,0.1,0.1,0.2,0.1,0.3
		c0,0.1,0.1,0.3,0.1,0.4c0,0.1,0,0.3,0,0.6l0,0.5v2.6c0,1,0,1.2,0,1.6c0.1,0.7,0.3,1.2,0.6,1.7c0.7,0.9,1.8,1.3,3.2,1.3
		c0.7,0,1.3-0.1,1.8-0.3c0.5-0.2,1-0.5,1.4-0.9c0.4-0.5,0.7-1.1,0.7-1.8c0-0.4,0.1-0.9,0.1-1.6v-2.6l0-0.5v-0.1c0-0.4,0-0.6,0.1-0.8
		c0-0.1,0.1-0.3,0.2-0.4c0.1-0.2,0.2-0.2,0.4-0.4h-2.9C129.6,120.2,129.7,120.3,129.7,120.5"/>
	<path class="st0" d="M119.7,128c-0.4,0.1-0.9,0.1-1.4,0.1c-0.2,0-0.4,0-0.7,0h-1.4l5.5-8h-7.2l-0.9,2c0.3-0.2,0.4-0.2,0.7-0.3
		c0.4-0.2,0.9-0.3,1.3-0.4c0.4-0.1,0.7-0.1,1.3-0.1c0.3,0,0.5,0,0.7,0h1.1l-5.6,8h7.9l0.9-2.1c-0.3,0.2-0.4,0.2-0.7,0.4
		C120.7,127.7,120.2,127.9,119.7,128"/>
	<path class="st0" d="M167.9,117.6h-0.2v-0.3h0.2c0.2,0,0.3,0,0.3,0.2C168.2,117.6,168.1,117.6,167.9,117.6z M168.3,117.4
		c0-0.3-0.2-0.3-0.5-0.3h-0.3v1.1h0.2v-0.4h0.3c0,0,0,0,0,0l0.2,0.4h0.2l-0.3-0.5C168.3,117.7,168.3,117.6,168.3,117.4"/>
	<path class="st0" d="M167.9,118.6c-0.5,0-0.9-0.4-0.9-0.9c0-0.5,0.4-0.9,0.9-0.9c0.5,0,0.9,0.4,0.9,0.9
		C168.7,118.2,168.4,118.6,167.9,118.6z M167.9,116.7c-0.6,0-1,0.4-1,1c0,0.6,0.5,1,1,1c0.6,0,1-0.4,1-1
		C168.9,117.1,168.4,116.7,167.9,116.7"/>
</g>
</svg>
