<?xml version="1.0" encoding="utf-8"?>
<!-- Generator: Adobe Illustrator 26.0.1, SVG Export Plug-In . SVG Version: 6.00 Build 0)  -->
<svg version="1.1" id="Layer_1" xmlns="http://www.w3.org/2000/svg" xmlns:xlink="http://www.w3.org/1999/xlink" x="0px" y="0px"
	 viewBox="0 0 95 35" style="enable-background:new 0 0 95 35;" xml:space="preserve">
<style type="text/css">
	.st0{fill:#FFFFFF;}
</style>
<g>
	<path class="st0" d="M43.79,30.36c-0.06,0-0.12,0-0.18,0c-3.5,0-5.68-2.84-5.68-7.42c0-4.58,2.19-7.42,5.72-7.42
		c0.13,0,0.25,0,0.38,0.01c3.28,0.2,5.31,3,5.31,7.41C49.34,27.44,47.22,30.27,43.79,30.36 M44.09,12.09c0,0-0.17-0.01-0.25,0
		c-0.08,0-0.15,0-0.22,0c-2.4,0-4.51,0.66-6.18,1.94V4.19h-4v29.22h3.49l0.25-1.65c1.69,1.36,3.9,2.05,6.49,2.05h0.08
		c2.94-0.02,5.44-1.03,7.24-2.95c1.82-1.94,2.79-4.68,2.79-7.92C53.77,16.52,49.99,12.31,44.09,12.09 M64.97,30.36
		c-3.5,0-5.68-2.84-5.68-7.42c0-4.58,2.19-7.42,5.72-7.42c3.5,0,5.68,2.84,5.68,7.42S68.51,30.36,64.97,30.36 M64.97,12.08
		c-2.97,0-5.5,1.02-7.31,2.96c-1.83,1.95-2.79,4.68-2.79,7.9c0,6.6,3.21,10.86,10.15,10.86c2.98,0,5.5-1.02,7.31-2.94
		c1.83-1.94,2.79-4.68,2.79-7.92C75.12,16.34,71.14,12.08,64.97,12.08 M85.96,15.3c-3.63,0-5.23,3-5.45,5.54h10.47
		C90.98,18.01,89.55,15.3,85.96,15.3z M80.52,23.96c0.04,4.2,2.2,6.41,6.08,6.41c3.83,0,6.07-2.12,6.3-2.34l1.74,2.82
		c0,0-2.76,2.93-8.53,2.93c-5.78,0-9.88-3.97-9.88-10.79c0-6.86,4.29-10.88,9.88-10.88c5.6,0,8.89,4.2,8.89,10.15l-0.04,1.67
		C94.96,23.94,80.52,23.96,80.52,23.96z"/>
	<path class="st0" d="M25.8,14.02l-2.62-2.62l2.62-2.62l2.62,2.62L25.8,14.02z M25.8,6.44l-2.62-2.62l2.63-2.62l2.62,2.62L25.8,6.44
		z M29.59,10.23l-2.63-2.62l1.46-1.45l1.16-1.17l2.62,2.62L29.59,10.23z"/>
	<path class="st0" d="M14.24,29.77c-5.86,0-9.67-4.71-9.67-11.62s4-11.62,9.81-11.62c4.26,0,6.16,2.16,7.64,3.7l2.62-2.63
		c-1.4-1.43-4.19-4.93-10.39-4.93C6.57,2.67,0,8.43,0,18.2c0,9.76,5.9,15.57,14.05,15.57c6.05,0,9.34-3.21,10.63-4.85l-2.72-2.72
		C20.78,27.58,18.26,29.77,14.24,29.77"/>
</g>
</svg>
