<?xml version="1.0" encoding="utf-8"?>
<!-- Generator: Adobe Illustrator 26.0.1, SVG Export Plug-In . SVG Version: 6.00 Build 0)  -->
<svg version="1.1" id="Layer_1" xmlns="http://www.w3.org/2000/svg" xmlns:xlink="http://www.w3.org/1999/xlink" x="0px" y="0px"
	 viewBox="0 0 95 35" style="enable-background:new 0 0 95 35;" xml:space="preserve">
<style type="text/css">
	.st0{fill:#343741;}
</style>
<g id="g2501">
	<g id="g2496">
		<path id="text2304" class="st0" d="M62.5,26.3c-1.3,0.7-2.7,1.2-4.2,1.5c-1.5,0.3-3,0.5-4.6,0.5c-4.7,0-8.5-1.3-11.2-3.8
			c-2.8-2.5-4.1-6-4.1-10.3c0-4.4,1.4-7.8,4.1-10.3C45.3,1.3,49,0,53.7,0c1.6,0,3.1,0.2,4.6,0.5c1.5,0.3,2.9,0.8,4.2,1.5v5.6
			c-1.4-0.9-2.7-1.5-4-2c-1.3-0.4-2.7-0.6-4.2-0.6c-2.6,0-4.7,0.8-6.1,2.4c-1.5,1.6-2.2,3.8-2.2,6.6c0,2.8,0.7,5,2.2,6.6
			c1.5,1.6,3.5,2.4,6.1,2.4c1.5,0,2.8-0.2,4.2-0.6c1.3-0.4,2.6-1.1,4-2V26.3z"/>
		<path id="text2312" class="st0" d="M29.3,22.6H18.1l-1.8,5H9.2L19.4,0.3h8.5l10.2,27.3H31L29.3,22.6z M19.9,17.5h7.6L23.7,6.7
			L19.9,17.5z"/>
		<path id="text2316" class="st0" d="M84.2,1.4v5.8c-1.4-0.7-2.7-1.2-4.1-1.5c-1.3-0.3-2.6-0.5-3.7-0.5c-1.6,0-2.7,0.2-3.4,0.7
			C72.2,6.3,71.8,7,71.8,8c0,0.7,0.3,1.3,0.8,1.7c0.5,0.4,1.4,0.8,2.7,1l2.8,0.6c2.8,0.6,4.8,1.5,6,2.8c1.2,1.2,1.8,3,1.8,5.3
			c0,3-0.8,5.2-2.5,6.7c-1.7,1.5-4.2,2.2-7.6,2.2c-1.6,0-3.2-0.2-4.8-0.5c-1.6-0.3-3.2-0.8-4.8-1.5v-5.9c1.6,0.9,3.2,1.6,4.7,2.1
			c1.5,0.5,3,0.7,4.4,0.7c1.4,0,2.5-0.3,3.3-0.8c0.8-0.5,1.1-1.2,1.1-2.2c0-0.9-0.3-1.5-0.8-2c-0.5-0.5-1.5-0.9-3.1-1.2l-2.5-0.6
			c-2.5-0.6-4.4-1.5-5.5-2.8c-1.2-1.3-1.7-3-1.7-5.2c0-2.7,0.8-4.8,2.4-6.3c1.6-1.5,4-2.2,7-2.2c1.4,0,2.8,0.1,4.3,0.3
			C81.1,0.6,82.6,1,84.2,1.4L84.2,1.4z"/>
	</g>
	<path id="text2320" class="st0" d="M12.1,35h-0.5l-0.2-0.6h-0.9L10.3,35H9.8l0.9-2.5h0.5L12.1,35z M11.3,34L10.9,33L10.6,34H11.3z
		 M13.8,34l0.4,0.2c-0.1,0.3-0.2,0.5-0.3,0.6c-0.2,0.1-0.4,0.2-0.6,0.2c-0.3,0-0.6-0.1-0.7-0.3c-0.2-0.2-0.3-0.5-0.3-0.9
		c0-0.4,0.1-0.7,0.3-1c0.2-0.2,0.5-0.3,0.8-0.3c0.3,0,0.5,0.1,0.7,0.3c0.1,0.1,0.2,0.3,0.2,0.5l-0.5,0.1c0-0.1-0.1-0.2-0.2-0.3
		c-0.1-0.1-0.2-0.1-0.3-0.1c-0.2,0-0.3,0.1-0.4,0.2c-0.1,0.1-0.2,0.3-0.2,0.6c0,0.3,0.1,0.5,0.2,0.7c0.1,0.1,0.2,0.2,0.4,0.2
		c0.1,0,0.2,0,0.3-0.1S13.8,34.2,13.8,34L13.8,34z M15.2,35v-2.1h-0.7v-0.4h1.8v0.4h-0.7V35H15.2z M16.6,35v-2.5H17V35H16.6z
		 M18.1,35l-0.8-2.5h0.5l0.6,1.8l0.6-1.8h0.5L18.5,35H18.1z M19.6,35v-2.5H20V35H19.6z M20.5,32.5h0.8c0.2,0,0.3,0,0.4,0
		c0.1,0,0.2,0.1,0.3,0.2c0.1,0.1,0.2,0.2,0.2,0.4c0,0.2,0.1,0.4,0.1,0.6c0,0.2,0,0.4-0.1,0.5c-0.1,0.2-0.1,0.3-0.2,0.4
		c-0.1,0.1-0.2,0.2-0.3,0.2c-0.1,0-0.2,0.1-0.4,0.1h-0.9V32.5z M20.9,32.9v1.7h0.3c0.1,0,0.2,0,0.3,0c0.1,0,0.1-0.1,0.2-0.1
		c0,0,0.1-0.1,0.1-0.2c0-0.1,0-0.3,0-0.5c0-0.2,0-0.3,0-0.4c0-0.1-0.1-0.2-0.1-0.2c-0.1-0.1-0.1-0.1-0.2-0.1c-0.1,0-0.2,0-0.4,0
		H20.9z M24.8,35h-0.5l-0.2-0.6h-0.9L23,35h-0.5l0.9-2.5h0.5L24.8,35z M24,34L23.7,33L23.4,34H24z M25.1,32.5h0.8c0.2,0,0.3,0,0.4,0
		c0.1,0,0.2,0.1,0.3,0.2c0.1,0.1,0.2,0.2,0.2,0.4s0.1,0.4,0.1,0.6c0,0.2,0,0.4-0.1,0.5c-0.1,0.2-0.1,0.3-0.2,0.4
		c-0.1,0.1-0.2,0.2-0.3,0.2c-0.1,0-0.2,0.1-0.4,0.1h-0.9V32.5z M25.5,32.9v1.7h0.3c0.1,0,0.2,0,0.3,0c0.1,0,0.1-0.1,0.2-0.1
		c0,0,0.1-0.1,0.1-0.2c0-0.1,0-0.3,0-0.5c0-0.2,0-0.3,0-0.4c0-0.1-0.1-0.2-0.1-0.2c-0.1-0.1-0.1-0.1-0.2-0.1c-0.1,0-0.2,0-0.4,0
		H25.5z M27.4,35v-2.5h1.7v0.4h-1.2v0.6H29v0.4h-1.1v0.7h1.3V35H27.4z M29.4,34.1l0.4,0c0,0.2,0.1,0.3,0.2,0.4s0.2,0.1,0.3,0.1
		c0.1,0,0.3,0,0.3-0.1s0.1-0.1,0.1-0.2c0-0.1,0-0.1,0-0.2c0,0-0.1-0.1-0.2-0.1c-0.1,0-0.2-0.1-0.4-0.1c-0.2-0.1-0.4-0.1-0.5-0.2
		c-0.1-0.1-0.2-0.3-0.2-0.5c0-0.1,0-0.2,0.1-0.4s0.2-0.2,0.3-0.3c0.1-0.1,0.3-0.1,0.4-0.1c0.3,0,0.5,0.1,0.6,0.2
		c0.1,0.1,0.2,0.3,0.2,0.5l-0.5,0c0-0.1-0.1-0.2-0.1-0.3c-0.1-0.1-0.2-0.1-0.3-0.1c-0.1,0-0.2,0-0.3,0.1c0,0-0.1,0.1-0.1,0.2
		c0,0.1,0,0.1,0.1,0.2c0.1,0.1,0.2,0.1,0.4,0.2c0.2,0.1,0.4,0.1,0.5,0.2s0.2,0.1,0.3,0.3c0.1,0.1,0.1,0.2,0.1,0.4
		c0,0.1,0,0.3-0.1,0.4c-0.1,0.1-0.2,0.2-0.3,0.3S30.5,35,30.3,35c-0.3,0-0.5-0.1-0.7-0.2C29.5,34.6,29.4,34.4,29.4,34.1L29.4,34.1z
		 M32.5,32.5h0.8c0.2,0,0.3,0,0.4,0c0.1,0,0.2,0.1,0.3,0.2c0.1,0.1,0.2,0.2,0.2,0.4s0.1,0.4,0.1,0.6c0,0.2,0,0.4-0.1,0.5
		c-0.1,0.2-0.1,0.3-0.2,0.4c-0.1,0.1-0.2,0.2-0.3,0.2c-0.1,0-0.2,0.1-0.4,0.1h-0.9V32.5z M33,32.9v1.7h0.3c0.1,0,0.2,0,0.3,0
		c0.1,0,0.1-0.1,0.2-0.1c0,0,0.1-0.1,0.1-0.2c0-0.1,0-0.3,0-0.5c0-0.2,0-0.3,0-0.4c0-0.1-0.1-0.2-0.1-0.2c-0.1-0.1-0.1-0.1-0.2-0.1
		c-0.1,0-0.2,0-0.4,0H33z M34.8,35v-2.5h1.7v0.4h-1.2v0.6h1.1v0.4h-1.1v0.7h1.3V35H34.8z M39.3,34l0.4,0.2c-0.1,0.3-0.2,0.5-0.3,0.6
		C39.2,34.9,39,35,38.8,35c-0.3,0-0.6-0.1-0.7-0.3c-0.2-0.2-0.3-0.5-0.3-0.9c0-0.4,0.1-0.7,0.3-1c0.2-0.2,0.5-0.3,0.8-0.3
		c0.3,0,0.5,0.1,0.7,0.3c0.1,0.1,0.2,0.3,0.2,0.5l-0.5,0.1c0-0.1-0.1-0.2-0.2-0.3c-0.1-0.1-0.2-0.1-0.3-0.1c-0.2,0-0.3,0.1-0.4,0.2
		c-0.1,0.1-0.2,0.3-0.2,0.6c0,0.3,0.1,0.5,0.2,0.7s0.2,0.2,0.4,0.2c0.1,0,0.2,0,0.3-0.1C39.2,34.4,39.2,34.2,39.3,34L39.3,34z
		 M40,33.7c0-0.3,0-0.5,0.1-0.6c0.1-0.1,0.1-0.2,0.2-0.3c0.1-0.1,0.2-0.2,0.3-0.2c0.1-0.1,0.3-0.1,0.5-0.1c0.3,0,0.6,0.1,0.8,0.3
		c0.2,0.2,0.3,0.5,0.3,1c0,0.4-0.1,0.7-0.3,0.9c-0.2,0.2-0.5,0.3-0.8,0.3c-0.3,0-0.6-0.1-0.8-0.3C40.1,34.4,40,34.1,40,33.7L40,33.7
		z M40.5,33.7c0,0.3,0.1,0.5,0.2,0.6s0.3,0.2,0.5,0.2s0.3-0.1,0.5-0.2c0.1-0.1,0.2-0.4,0.2-0.7c0-0.3-0.1-0.5-0.2-0.6
		s-0.3-0.2-0.5-0.2s-0.3,0.1-0.5,0.2C40.6,33.2,40.5,33.4,40.5,33.7L40.5,33.7z M42.6,35v-2.5H43l0.9,1.7v-1.7h0.4V35h-0.5L43,33.3
		V35H42.6z M44.8,34.1l0.4,0c0,0.2,0.1,0.3,0.2,0.4c0.1,0.1,0.2,0.1,0.3,0.1c0.1,0,0.3,0,0.3-0.1c0.1-0.1,0.1-0.1,0.1-0.2
		c0-0.1,0-0.1,0-0.2c0,0-0.1-0.1-0.2-0.1c-0.1,0-0.2-0.1-0.4-0.1c-0.2-0.1-0.4-0.1-0.5-0.2c-0.1-0.1-0.2-0.3-0.2-0.5
		c0-0.1,0-0.2,0.1-0.4c0.1-0.1,0.2-0.2,0.3-0.3c0.1-0.1,0.3-0.1,0.4-0.1c0.3,0,0.5,0.1,0.6,0.2c0.1,0.1,0.2,0.3,0.2,0.5l-0.5,0
		c0-0.1-0.1-0.2-0.1-0.3s-0.2-0.1-0.3-0.1c-0.1,0-0.2,0-0.3,0.1c0,0-0.1,0.1-0.1,0.2c0,0.1,0,0.1,0.1,0.2c0.1,0.1,0.2,0.1,0.4,0.2
		c0.2,0.1,0.4,0.1,0.5,0.2c0.1,0.1,0.2,0.1,0.3,0.3c0.1,0.1,0.1,0.2,0.1,0.4c0,0.1,0,0.3-0.1,0.4s-0.2,0.2-0.3,0.3
		C46.1,35,45.9,35,45.7,35c-0.3,0-0.5-0.1-0.7-0.2C44.9,34.6,44.8,34.4,44.8,34.1L44.8,34.1z M47.5,35v-2.1h-0.7v-0.4h1.8v0.4H48V35
		H47.5z M49,35v-2.5h1c0.2,0,0.4,0,0.5,0.1c0.1,0,0.2,0.1,0.3,0.2c0.1,0.1,0.1,0.2,0.1,0.4c0,0.2-0.1,0.3-0.2,0.5
		c-0.1,0.1-0.3,0.2-0.5,0.2c0.1,0.1,0.2,0.1,0.2,0.2s0.2,0.2,0.3,0.4L51,35h-0.5l-0.3-0.5c-0.1-0.2-0.2-0.3-0.2-0.4
		c0-0.1-0.1-0.1-0.1-0.1c0,0-0.1,0-0.2,0h-0.1v1H49z M49.4,33.5h0.3c0.2,0,0.4,0,0.4,0c0.1,0,0.1-0.1,0.1-0.1s0-0.1,0-0.2
		c0-0.1,0-0.2-0.1-0.2s-0.1-0.1-0.2-0.1c0,0-0.1,0-0.3,0h-0.4V33.5z M51.3,32.5h0.5v1.4c0,0.2,0,0.4,0,0.4c0,0.1,0.1,0.2,0.1,0.2
		s0.2,0.1,0.3,0.1c0.1,0,0.2,0,0.3-0.1c0.1-0.1,0.1-0.1,0.1-0.2c0-0.1,0-0.2,0-0.4v-1.4h0.5v1.3c0,0.3,0,0.5,0,0.6
		c0,0.1-0.1,0.2-0.1,0.3c-0.1,0.1-0.2,0.2-0.3,0.2C52.5,35,52.4,35,52.2,35c-0.2,0-0.4,0-0.5-0.1c-0.1-0.1-0.2-0.1-0.3-0.2
		c-0.1-0.1-0.1-0.2-0.1-0.3c0-0.1,0-0.4,0-0.6V32.5z M55,34l0.4,0.2c-0.1,0.3-0.2,0.5-0.3,0.6S54.8,35,54.5,35
		c-0.3,0-0.6-0.1-0.7-0.3c-0.2-0.2-0.3-0.5-0.3-0.9c0-0.4,0.1-0.7,0.3-1s0.5-0.3,0.8-0.3c0.3,0,0.5,0.1,0.7,0.3
		c0.1,0.1,0.2,0.3,0.2,0.5L55,33.3c0-0.1-0.1-0.2-0.2-0.3c-0.1-0.1-0.2-0.1-0.3-0.1c-0.2,0-0.3,0.1-0.4,0.2
		c-0.1,0.1-0.2,0.3-0.2,0.6c0,0.3,0.1,0.5,0.2,0.7s0.2,0.2,0.4,0.2c0.1,0,0.2,0,0.3-0.1C54.9,34.4,55,34.2,55,34L55,34z M57.3,34
		l0.4,0.2c-0.1,0.3-0.2,0.5-0.3,0.6c-0.2,0.1-0.4,0.2-0.6,0.2c-0.3,0-0.6-0.1-0.7-0.3c-0.2-0.2-0.3-0.5-0.3-0.9c0-0.4,0.1-0.7,0.3-1
		c0.2-0.2,0.5-0.3,0.8-0.3c0.3,0,0.5,0.1,0.7,0.3c0.1,0.1,0.2,0.3,0.2,0.5l-0.5,0.1c0-0.1-0.1-0.2-0.2-0.3c-0.1-0.1-0.2-0.1-0.3-0.1
		c-0.2,0-0.3,0.1-0.4,0.2c-0.1,0.1-0.2,0.3-0.2,0.6c0,0.3,0.1,0.5,0.2,0.7c0.1,0.1,0.2,0.2,0.4,0.2c0.1,0,0.2,0,0.3-0.1
		C57.2,34.4,57.3,34.2,57.3,34L57.3,34z M58.1,35v-2.5h0.5V35H58.1z M58.9,33.7c0-0.3,0-0.5,0.1-0.6c0.1-0.1,0.1-0.2,0.2-0.3
		c0.1-0.1,0.2-0.2,0.3-0.2c0.1-0.1,0.3-0.1,0.5-0.1c0.3,0,0.6,0.1,0.8,0.3c0.2,0.2,0.3,0.5,0.3,1c0,0.4-0.1,0.7-0.3,0.9
		C60.6,34.9,60.4,35,60,35c-0.3,0-0.6-0.1-0.8-0.3C59,34.4,58.9,34.1,58.9,33.7L58.9,33.7z M59.4,33.7c0,0.3,0.1,0.5,0.2,0.6
		s0.3,0.2,0.5,0.2c0.2,0,0.3-0.1,0.5-0.2s0.2-0.4,0.2-0.7c0-0.3-0.1-0.5-0.2-0.6c-0.1-0.1-0.3-0.2-0.5-0.2c-0.2,0-0.3,0.1-0.5,0.2
		C59.5,33.2,59.4,33.4,59.4,33.7L59.4,33.7z M59.8,32.3l0.2-0.5h0.5L60,32.3H59.8z M61.5,35v-2.5H62l0.9,1.7v-1.7h0.4V35h-0.5
		l-0.9-1.6V35H61.5z M65.3,35v-1l-0.8-1.4H65l0.5,1l0.5-1h0.5l-0.8,1.4v1H65.3z M67.6,34.1l0.4,0c0,0.2,0.1,0.3,0.2,0.4
		c0.1,0.1,0.2,0.1,0.3,0.1c0.1,0,0.3,0,0.3-0.1c0.1-0.1,0.1-0.1,0.1-0.2c0-0.1,0-0.1,0-0.2c0,0-0.1-0.1-0.2-0.1
		c-0.1,0-0.2-0.1-0.4-0.1c-0.2-0.1-0.4-0.1-0.5-0.2c-0.1-0.1-0.2-0.3-0.2-0.5c0-0.1,0-0.2,0.1-0.4s0.2-0.2,0.3-0.3
		c0.1-0.1,0.3-0.1,0.4-0.1c0.3,0,0.5,0.1,0.6,0.2c0.1,0.1,0.2,0.3,0.2,0.5l-0.5,0c0-0.1-0.1-0.2-0.1-0.3c-0.1-0.1-0.2-0.1-0.3-0.1
		c-0.1,0-0.2,0-0.3,0.1c0,0-0.1,0.1-0.1,0.2c0,0.1,0,0.1,0.1,0.2c0.1,0.1,0.2,0.1,0.4,0.2c0.2,0.1,0.4,0.1,0.5,0.2
		c0.1,0.1,0.2,0.1,0.3,0.3c0.1,0.1,0.1,0.2,0.1,0.4c0,0.1,0,0.3-0.1,0.4c-0.1,0.1-0.2,0.2-0.3,0.3C68.9,35,68.7,35,68.5,35
		c-0.3,0-0.5-0.1-0.7-0.2C67.7,34.6,67.6,34.4,67.6,34.1L67.6,34.1z M69.8,35v-2.5h1.7v0.4h-1.2v0.6h1.1v0.4h-1.1v0.7h1.3V35H69.8z
		 M71.9,35v-2.5h1c0.2,0,0.4,0,0.5,0.1s0.2,0.1,0.3,0.2c0.1,0.1,0.1,0.2,0.1,0.4c0,0.2-0.1,0.3-0.2,0.5s-0.3,0.2-0.5,0.2
		c0.1,0.1,0.2,0.1,0.2,0.2c0.1,0.1,0.2,0.2,0.3,0.4L74,35h-0.5l-0.3-0.5c-0.1-0.2-0.2-0.3-0.2-0.4s-0.1-0.1-0.1-0.1c0,0-0.1,0-0.2,0
		h-0.1v1H71.9z M72.4,33.5h0.3c0.2,0,0.4,0,0.4,0c0.1,0,0.1-0.1,0.1-0.1s0-0.1,0-0.2c0-0.1,0-0.2-0.1-0.2s-0.1-0.1-0.2-0.1
		c0,0-0.1,0-0.3,0h-0.4V33.5z M74.8,35L74,32.5h0.5l0.6,1.8l0.6-1.8h0.5L75.3,35H74.8z M76.4,35v-2.5h0.5V35H76.4z M78.7,34l0.4,0.2
		c-0.1,0.3-0.2,0.5-0.3,0.6S78.4,35,78.2,35c-0.3,0-0.6-0.1-0.7-0.3c-0.2-0.2-0.3-0.5-0.3-0.9c0-0.4,0.1-0.7,0.3-1
		c0.2-0.2,0.5-0.3,0.8-0.3c0.3,0,0.5,0.1,0.7,0.3c0.1,0.1,0.2,0.3,0.2,0.5l-0.5,0.1c0-0.1-0.1-0.2-0.2-0.3c-0.1-0.1-0.2-0.1-0.3-0.1
		c-0.2,0-0.3,0.1-0.4,0.2c-0.1,0.1-0.2,0.3-0.2,0.6c0,0.3,0.1,0.5,0.2,0.7s0.2,0.2,0.4,0.2c0.1,0,0.2,0,0.3-0.1S78.7,34.2,78.7,34
		L78.7,34z M79.5,35v-2.5H80V35H79.5z M80.3,33.7c0-0.3,0-0.5,0.1-0.6c0.1-0.1,0.1-0.2,0.2-0.3c0.1-0.1,0.2-0.2,0.3-0.2
		c0.1-0.1,0.3-0.1,0.5-0.1c0.3,0,0.6,0.1,0.8,0.3c0.2,0.2,0.3,0.5,0.3,1c0,0.4-0.1,0.7-0.3,0.9C82,34.9,81.8,35,81.4,35
		c-0.3,0-0.6-0.1-0.8-0.3C80.4,34.4,80.3,34.1,80.3,33.7L80.3,33.7z M80.8,33.7c0,0.3,0.1,0.5,0.2,0.6s0.3,0.2,0.5,0.2
		c0.2,0,0.3-0.1,0.5-0.2c0.1-0.1,0.2-0.4,0.2-0.7c0-0.3-0.1-0.5-0.2-0.6c-0.1-0.1-0.3-0.2-0.5-0.2c-0.2,0-0.3,0.1-0.5,0.2
		C80.9,33.2,80.8,33.4,80.8,33.7L80.8,33.7z M82.8,34.1l0.4,0c0,0.2,0.1,0.3,0.2,0.4s0.2,0.1,0.3,0.1c0.1,0,0.3,0,0.3-0.1
		s0.1-0.1,0.1-0.2c0-0.1,0-0.1,0-0.2c0,0-0.1-0.1-0.2-0.1c-0.1,0-0.2-0.1-0.4-0.1c-0.2-0.1-0.4-0.1-0.5-0.2
		c-0.1-0.1-0.2-0.3-0.2-0.5c0-0.1,0-0.2,0.1-0.4s0.2-0.2,0.3-0.3c0.1-0.1,0.3-0.1,0.4-0.1c0.3,0,0.5,0.1,0.6,0.2
		c0.1,0.1,0.2,0.3,0.2,0.5l-0.5,0c0-0.1-0.1-0.2-0.1-0.3c-0.1-0.1-0.2-0.1-0.3-0.1c-0.1,0-0.2,0-0.3,0.1c0,0-0.1,0.1-0.1,0.2
		c0,0.1,0,0.1,0.1,0.2c0.1,0.1,0.2,0.1,0.4,0.2c0.2,0.1,0.4,0.1,0.5,0.2s0.2,0.1,0.3,0.3c0.1,0.1,0.1,0.2,0.1,0.4
		c0,0.1,0,0.3-0.1,0.4c-0.1,0.1-0.2,0.2-0.3,0.3S83.9,35,83.7,35c-0.3,0-0.5-0.1-0.7-0.2C82.9,34.6,82.8,34.4,82.8,34.1L82.8,34.1z"
		/>
</g>
</svg>
