<?xml version="1.0" encoding="utf-8"?>
<!-- Generator: Adobe Illustrator 26.0.1, SVG Export Plug-In . SVG Version: 6.00 Build 0)  -->
<svg version="1.1" id="Layer_1" xmlns="http://www.w3.org/2000/svg" xmlns:xlink="http://www.w3.org/1999/xlink" x="0px" y="0px"
	 viewBox="0 0 95 35" style="enable-background:new 0 0 95 35;" xml:space="preserve">
<style type="text/css">
	.st0{fill:#343741;}
</style>
<g id="g16">
	<path id="path22" class="st0" d="M59.7,23.2c0,0,2.1,0.6,4.8,0.6c2.8,0,4.2-0.3,4.2-0.3v-2.1c0,0-1.4,0.3-3.4,0.3
		c-1.7,0-2.8-0.2-2.8-0.2v-3h5.4v-2.1h-5.4v-2.8c0,0,1.1-0.2,2.6-0.2c1.8,0,3.4,0.3,3.4,0.3v-2.1c0,0-1.4-0.3-3.7-0.3
		c-3,0-5,0.5-5,0.5L59.7,23.2L59.7,23.2z M21.2,18.4c-0.1,0.2-0.2,0.5-0.2,0.7c-0.1-0.2-0.1-0.5-0.2-0.7l-2.4-6.1
		c-0.4-1-1-1.1-2.2-1.1c-0.4,0-1.2,0.1-1.2,0.1l-1.2,12.4h2.7l0.6-8.3l2.6,6.3c0.2,0.5,0.6,0.7,1.4,0.7c0.8,0,1.2-0.2,1.4-0.7
		l2.6-6.3l0.6,8.3h2.7L27,11.2c0,0-0.8-0.1-1.2-0.1c-1.2,0-1.8,0.1-2.2,1.1L21.2,18.4z M7.6,21c-0.6,0.2-2,0.7-3,0.7
		c-1.1,0-2-0.4-2-1.6c0-1.1,0.6-1.7,2.1-1.7l2.9-0.1C7.6,18.2,7.6,21,7.6,21z M6,11.2c-2.4,0-4.3,0.6-5.1,1l0.6,2
		c0,0,1.9-0.7,3.7-0.7c1.6,0,2.4,0.4,2.4,2v0.9H5.2c-4,0-5.2,1.8-5.2,3.9c0,2.7,2.1,3.6,4,3.6c2.2,0,3.5-0.9,3.7-0.9
		c0.1,0,0.6,0.5,2.6,0.5v-8.6C10.3,12.2,8.7,11.2,6,11.2L6,11.2z M38.6,21c-0.6,0.2-2,0.7-3,0.7c-1.1,0-2-0.4-2-1.6
		c0-1.1,0.6-1.7,2.1-1.7l2.9-0.1L38.6,21L38.6,21z M37,11.2c-2.4,0-4.3,0.6-5.1,1l0.6,2c0,0,1.9-0.7,3.7-0.7c1.6,0,2.4,0.4,2.4,2
		v0.9h-2.4c-4,0-5.2,1.8-5.2,3.9c0,2.7,2.1,3.6,4,3.6c2.2,0,3.5-0.9,3.7-0.9c0.1,0,0.6,0.5,2.6,0.5v-8.6
		C41.3,12.2,39.7,11.2,37,11.2L37,11.2L37,11.2z M80,20.6c-0.6,0.3-2.1,0.8-3.3,0.8c-1.9,0-2.2-0.8-2.2-2.8v-7.3c0,0-0.2,0-0.4,0
		c-0.6,0-2,0.1-2.3,0.2V19c0,3.3,0.8,4.8,4.1,4.8c2.5,0,4-1,4.1-1c0,0,0.9,0.5,2.7,0.5V11.5c-0.2,0-1.5-0.2-2.2-0.2
		c-0.2,0-0.5,0-0.5,0L80,20.6L80,20.6z M85.9,23.4c0,0,1.7,0.4,4,0.4c2.2,0,5-0.8,5-3.8c0-2-1.5-2.8-3.8-3.7
		c-1.3-0.5-2.4-0.9-2.4-1.8c0-0.4,0.3-1.2,1.9-1.2c1.5,0,3.1,0.7,3.1,0.7l0.7-2c-0.5-0.2-1.9-0.9-4-0.9c-2.2,0-4.4,1.2-4.4,3.6
		c0,2.5,2.2,3.2,4,3.8c1.2,0.4,2.2,0.8,2.2,1.6c0,0.8-0.4,1.4-2.4,1.4c-1.6,0-3.4-0.4-3.4-0.4L85.9,23.4z M47.9,13.5
		c0.4-0.1,1.3-0.2,2.2-0.2c2,0,3.5,1.1,3.5,4.1c0,2.9-0.8,4.3-3.8,4.3c-1,0-1.9-0.1-1.9-0.1S47.9,13.5,47.9,13.5z M50.2,11.2
		c-1.5,0-3.7,0.3-5,0.7v11.5c1.1,0.2,3.1,0.4,4.5,0.4c4.8,0,6.7-1.9,6.7-6.4C56.5,13.5,54.1,11.2,50.2,11.2L50.2,11.2"/>
</g>
</svg>
