<?xml version="1.0" encoding="utf-8"?>
<!-- Generator: Adobe Illustrator 26.0.1, SVG Export Plug-In . SVG Version: 6.00 Build 0)  -->
<svg version="1.1" id="Layer_1" xmlns="http://www.w3.org/2000/svg" xmlns:xlink="http://www.w3.org/1999/xlink" x="0px" y="0px"
	 viewBox="0 0 95 35" style="enable-background:new 0 0 95 35;" xml:space="preserve">
<style type="text/css">
	.st0{fill:#343741;}
</style>
<g>
	<path class="st0" d="M20.3,17.6C18.2,10,20.1,4.8,20.1,4.8c-0.8,1.3-1.3,2.9-1.6,4.7l-2.1-1.2v1.1l1.9,1.2
		c-0.2,1.8-0.1,3.8,0.1,5.6l0,0c-1.7-0.5-4.1-2-4.1-2v1.1c1.7,1.7,3.7,2.2,4.2,2.3c0.2,1.7,0.5,3.3,0.8,4.8
		c-4.1-0.7-6.6-2.5-6.6-2.5l0.2,1.4c3.4,2.6,6.2,3.1,6.7,3.2c0.6,5-0.1,10.5-0.1,10.5l2.5-1.6C22.8,29.2,22.4,25.3,20.3,17.6z"/>
	<path class="st0" d="M18,28.9c0,0-7-2.1-9.4-7.3c0,0,3-4.8,1.4-8.5c0,0,4.5-3.4,4.1-7.8c0,0,4-0.1,6.2-2.8c2.2-2.7-0.2,0-0.2,0
		s1.9,2.8,6,2.8c0,0-0.2,3.9,3.4,4.6c0,0,0.7,0-0.2-0.7c-0.9-0.7-1.8-3.1-1.4-5.3c0,0-4.7-0.6-7.8-3.9c0,0-2.6,3.3-7.6,3.9
		c0,0,0.4,6-4.6,8.2c0,0,1.6,6-1.4,8.9C6.5,21.1,9.5,28,18,28.9z"/>
	<g>
		<path class="st0" d="M33.5,20.5c0,0.9,0,1.8,0.1,2.3H31l-0.2-0.9h-0.1c-0.6,0.7-1.6,1.2-2.7,1.2c-1.9,0-3-1.4-3-2.9
			c0-2.4,2.2-3.6,5.5-3.6v-0.1c0-0.5-0.3-1.2-1.7-1.2c-1,0-2,0.3-2.6,0.7l-0.5-1.9c0.7-0.4,1.9-0.8,3.6-0.8c3.1,0,4.1,1.8,4.1,4
			V20.5z M30.7,18.4c-1.5,0-2.7,0.3-2.7,1.5c0,0.7,0.5,1.1,1.2,1.1c0.7,0,1.3-0.5,1.5-1.1c0-0.2,0.1-0.3,0.1-0.5V18.4z"/>
		<path class="st0" d="M42.9,22.6c-0.5,0.2-1.5,0.4-2.6,0.4c-3,0-5-1.9-5-4.8c0-2.7,1.9-5,5.4-5c0.8,0,1.6,0.1,2.2,0.4l-0.5,2.2
			c-0.3-0.2-0.9-0.3-1.6-0.3c-1.5,0-2.5,1.1-2.5,2.6c0,1.7,1.2,2.6,2.6,2.6c0.7,0,1.2-0.1,1.7-0.3L42.9,22.6z"/>
		<path class="st0" d="M51.3,22.6c-0.5,0.2-1.5,0.4-2.6,0.4c-3,0-5-1.9-5-4.8c0-2.7,1.9-5,5.4-5c0.8,0,1.6,0.1,2.2,0.4l-0.5,2.2
			c-0.3-0.2-0.9-0.3-1.6-0.3c-1.5,0-2.5,1.1-2.5,2.6c0,1.7,1.2,2.6,2.6,2.6c0.7,0,1.2-0.1,1.7-0.3L51.3,22.6z"/>
		<path class="st0" d="M55.9,10.8c0,0.8-0.6,1.5-1.6,1.5c-0.9,0-1.5-0.7-1.5-1.5c0-0.8,0.6-1.5,1.5-1.5C55.3,9.4,55.9,10,55.9,10.8z
			 M52.9,22.8v-9.4h2.9v9.4H52.9z"/>
		<path class="st0" d="M67.5,18c0,3.4-2.4,5-4.9,5c-2.7,0-4.8-1.8-4.8-4.8c0-3,2-5,5-5C65.5,13.2,67.5,15.2,67.5,18z M60.7,18.1
			c0,1.6,0.7,2.8,1.9,2.8c1.1,0,1.9-1.1,1.9-2.8c0-1.4-0.5-2.8-1.9-2.8C61.2,15.3,60.7,16.7,60.7,18.1z"/>
		<path class="st0" d="M69.3,16.4c0-1.2,0-2.2-0.1-3h2.5l0.1,1.3h0.1c0.4-0.6,1.3-1.5,2.9-1.5c1.9,0,3.4,1.3,3.4,4v5.6h-2.9v-5.2
			c0-1.2-0.4-2-1.5-2c-0.8,0-1.3,0.6-1.5,1.1c-0.1,0.2-0.1,0.5-0.1,0.7v5.4h-2.9V16.4z"/>
		<path class="st0" d="M88.3,20.5c0,0.9,0,1.8,0.1,2.3h-2.6l-0.2-0.9h-0.1C85,22.6,84,23,82.9,23c-1.9,0-3-1.4-3-2.9
			c0-2.4,2.2-3.6,5.5-3.6v-0.1c0-0.5-0.3-1.2-1.7-1.2c-1,0-2,0.3-2.6,0.7l-0.5-1.9c0.7-0.4,1.9-0.8,3.6-0.8c3.1,0,4.1,1.8,4.1,4
			V20.5z M85.5,18.4c-1.5,0-2.7,0.3-2.7,1.5c0,0.7,0.5,1.1,1.2,1.1c0.7,0,1.3-0.5,1.5-1.1c0-0.2,0.1-0.3,0.1-0.5V18.4z"/>
	</g>
</g>
</svg>
