<?xml version="1.0" encoding="utf-8"?>
<!-- Generator: Adobe Illustrator 26.0.1, SVG Export Plug-In . SVG Version: 6.00 Build 0)  -->
<svg version="1.1" id="Layer_1" xmlns="http://www.w3.org/2000/svg" xmlns:xlink="http://www.w3.org/1999/xlink" x="0px" y="0px"
	 viewBox="0 0 95 35" style="enable-background:new 0 0 95 35;" xml:space="preserve">
<style type="text/css">
	.st0{fill:#231F20;}
	.st1{fill:#343741;}
</style>
<path class="st0" d="M0,8.5"/>
<g>
	<path id="XMLID_23_" class="st1" d="M82.5,2.8h-5.6l-9,29.5h4.6l1.9-6.3h10.7l2,6.3h8L86.1,5.8C85.2,3.3,84.8,2.8,82.5,2.8z
		 M75.6,21.6l4-13.4l4.1,13.4H75.6z"/>
	<path id="XMLID_26_" class="st1" d="M41.4,14.3l1.5-2.1c3-4.5,1-9.4-5.1-9.4H24.9v29.5h12.4C48.2,32.2,51.5,19.5,41.4,14.3z
		 M34,28.3h-2.1V6.6h3.8c1.8,0,3.4,1.5,3.4,3.3c0,0.7-0.1,1.2-0.7,2.1l-2.4,3.7c2.6,0.6,4.3,2.6,4.3,6.2
		C40.1,26.4,37.5,28.3,34,28.3z"/>
	<path id="XMLID_29_" class="st1" d="M16.4,14.3l1.5-2.1c3.1-4.5,1-9.4-5.1-9.4h-0.4H0v29.5h12.4C23.3,32.2,26.6,19.5,16.4,14.3z
		 M9,28.3H6.9V6.6h3.8c1.8,0,3.4,1.5,3.4,3.3c0,0.7-0.1,1.2-0.7,2.1l-2.5,3.7c2.6,0.6,4.3,2.6,4.3,6.2C15.2,26.4,12.5,28.3,9,28.3z"
		/>
	<path id="XMLID_30_" class="st1" d="M66.6,2.8l-6.7,22.4L54.3,6.6c-1.1-3.3-1.6-3.8-3.6-3.8h-5.2l9.6,29.5h7.1l9-29.5H66.6
		L66.6,2.8z"/>
</g>
</svg>
