<?xml version="1.0" encoding="utf-8"?>
<!-- Generator: Adobe Illustrator 26.0.1, SVG Export Plug-In . SVG Version: 6.00 Build 0)  -->
<svg version="1.1" id="Layer_1" xmlns="http://www.w3.org/2000/svg" xmlns:xlink="http://www.w3.org/1999/xlink" x="0px" y="0px"
	 viewBox="0 0 95 35" style="enable-background:new 0 0 95 35;" xml:space="preserve">
<style type="text/css">
	.st0{fill:#CCCCCC;}
</style>
<g id="layer1" transform="translate(-84.96605,-210.71114)">
	<g id="g1694" transform="translate(98.172605,110.56414)">
		<path id="path672" class="st0" d="M-6.8,118c0.2,0.1,0.2,0.4,0.4,0.6l0.1,0.6l-0.5,0.7c-0.6,0.3-1.4,0.4-2-0.1
			c-0.3-0.3-0.4-0.7-0.3-1.1l0.2-0.6c0.1-0.1,0.3-0.1,0.4-0.2c0.3-0.2,0.6-0.1,1-0.2C-7.3,117.8-6.9,117.6-6.8,118"/>
		<path id="path676" class="st0" d="M-8.3,121.6c0.2,0,0.3,0.1,0.5,0.1c0.2,0.1,0.2,0.4,0.5,0.5c0.2,0.4,0.3,0.8,0.4,1.2
			c-0.1,0.2,0.1,0.4,0.1,0.6l0.1,0c0,0.2,0,0.5-0.1,0.7c0,0.4-0.2,0.8-0.4,1.1c-0.1,0.1-0.2,0.3-0.4,0.3c-0.3,0.1-0.4,0.6-0.7,0.5
			c-0.3,0.2-0.6,0.1-0.9,0.1c-0.2-0.1-0.4-0.1-0.5-0.2c-0.3-0.1-0.6-0.3-0.8-0.6c-0.1-0.2-0.3-0.3-0.4-0.6c0.1-0.3-0.1-0.6,0-0.9
			l-0.1-0.5l0.2-0.9c0.3-0.2,0.2-0.6,0.6-0.7c0.2-0.5,0.7-0.6,1.1-0.8c0.1,0,0.3,0.1,0.4-0.1C-8.6,121.6-8.5,121.8-8.3,121.6"/>
		<path id="path680" class="st0" d="M8.1,108.2c-0.1,1.4-1.2,2.4-1.9,3.6c-0.3,0.7-0.9,1.1-1.3,1.8c-0.4,0.4-0.8,0.9-1.1,1.3
			c0.1,0.3,0.4,0.4,0.6,0.7c0.5,0.3,0.5,0.8,0.9,1.1c0.2,0,0.2,0.3,0.5,0.3c0.5,0.6,1,1.2,1.4,1.8c0.1,0.2,0.2,0.4,0.4,0.6
			c0.4,0.5,0.6,1.1,1,1.6c0.1,0.6,0.5,1,0.7,1.5c0.2,0.3,0.3,0.6,0.5,0.9c0.3,0.7,0.5,1.4,0.9,2.1c0.1,0.1,0,0.3-0.1,0.4
			c-0.1,0.1-0.3-0.1-0.4-0.1c-0.8-0.3-1.6-0.7-2.4-1.2c-0.8-0.6-1.7-1.1-2.4-1.8c-0.3-0.1-0.4-0.4-0.7-0.6c-0.7-0.5-1.3-1.1-2.1-1.6
			c-0.3-0.3-0.7-0.5-1-0.8c-0.3,0-0.4-0.3-0.6-0.4c-0.6-0.3-1.1-0.8-1.6-1.1c-0.1,0.1,0,0.2-0.1,0.3c-0.4,0.4-0.3,0.9-0.6,1.4
			c0,0.6-0.4,1-0.6,1.5c-0.5,0.8-0.9,1.7-1.4,2.5c-0.7,0.9-1,1.9-1.9,2.6c-0.2,0.3-0.4,0.4-0.7,0.5c-0.1,0-0.3,0-0.3-0.2
			c-0.1-0.2,0-0.5-0.1-0.7c0.1-0.3,0-0.6,0.1-0.9l0-0.1c0-0.4,0.2-0.8,0.1-1.3c0.1-0.3,0.2-0.6,0.2-0.9c0.1-0.4,0.3-0.8,0.3-1.2
			c0.1-0.2,0.2-0.6,0.1-0.8c0.1-0.3,0.1-0.6,0.4-0.8c0-0.2,0-0.3,0-0.5c0.3-0.8,0.6-1.6,0.8-2.5c0-0.1-0.1-0.1-0.1-0.1
			c-0.6,0-1.1,0.1-1.7-0.1c-0.9,0-1.8-0.1-2.7-0.3c-0.4-0.1-0.8,0-1.1-0.2c-0.2,0-0.5,0.1-0.7-0.1c-0.4-0.2-0.9-0.2-1.3-0.4
			c-0.3,0-0.5-0.2-0.8-0.2c-0.3,0-0.4-0.2-0.6-0.4v-0.1c0.5-0.7,1.3-0.9,2-1.1c0.7-0.2,1.5-0.2,2.3-0.4c0.5-0.1,1,0.1,1.5,0
			c0.9,0,1.7,0.2,2.5,0.2c0.3,0,0.5,0.2,0.8,0.2l0-0.1l-0.8-1.1c-0.3-0.7-0.9-1.3-1-2c-0.2-0.2,0-0.6-0.2-0.8c0-0.1,0.1-0.2,0.1-0.3
			c0.2-0.1,0.4,0.1,0.5-0.1c0.5,0.1,1,0.3,1.5,0.4c0.5,0.2,1.1,0.4,1.5,0.8c0.6,0.4,1.3,0.7,1.8,1.3c0.1,0.1,0.3,0.1,0.5,0.1
			c0.1,0,0.2-0.2,0.3-0.2c0.6-0.4,1.3-0.6,1.9-1c0.2-0.3,0.7-0.3,0.8-0.6c0.2-0.1,0.4-0.2,0.6-0.3c0.4-0.2,0.7-0.5,1.1-0.7
			c0.2,0,0.4-0.1,0.5-0.2c0.6-0.3,1.3-0.6,1.9-1c0.1-0.4,0.5-0.3,0.8-0.4C7.9,108.1,8.1,108.1,8.1,108.2"/>
		<path id="path682" class="st0" d="M15.3,124.9h66.5v-0.3H15.3V124.9z"/>
		<path id="path684" class="st0" d="M15.3,125.1h66.5v-0.3H15.3V125.1z"/>
		<path id="path696" class="st0" d="M64.2,120.7c-0.3,0.2-0.6,0.3-1.1,0.3c-0.7,0-1.3-0.6-1.3-1.3c0-1,0.8-1.4,1.5-1.4
			c0.3,0,0.6,0,0.8,0.1L64.2,120.7z M61.4,116.8c0.4-0.6,0.8-0.9,1.6-0.9c1.1,0,1.2,1,1.2,1.8c-0.2,0-0.5,0-0.8,0
			c-1.5,0-3.1,0.7-3.1,2.4c0,1.2,1.1,1.9,2.2,1.9c0.7,0,1.2-0.4,1.8-0.8c0.2,0.4,0.7,0.7,1.3,0.8l1.2-1l-0.2-0.2
			c-0.1,0-0.3,0.1-0.3,0.1c-0.4,0-0.5-0.2-0.5-1v-0.6c0-0.9,0.1-1.8,0.1-2.3c0-1.6-1.2-2-2.7-2c-0.8,0-1.4,0.1-2.1,0.3v1.5
			L61.4,116.8z"/>
		<path id="path700" class="st0" d="M25.6,112.7h-0.7c-0.5-1.6-2.1-2.2-3.6-2.2c-2.9,0-4.1,2.3-4.1,5.1c0,4.7,3.4,5.4,4.7,5.4
			c1.3,0,2.5-0.6,3.3-1.7l0.5,0.2l-0.5,1.8c-1.3,0.2-2.1,0.4-3.2,0.4c-4.9,0-7.1-3-7.1-6c0-3.4,2.6-5.9,6.3-5.9c2.1,0,3,0.4,4.1,0.7
			L25.6,112.7z"/>
		<path id="path704" class="st0" d="M27.5,116.8v-1.5c0.7-0.2,1.3-0.3,2.1-0.3c1.4,0,2.7,0.4,2.7,2c0,0.6,0,1.4-0.1,2.3v0.6
			c0,0.7,0.1,1,0.5,1c0.1,0,0.2,0,0.3-0.1l0.2,0.2l-1.2,1c-0.6-0.1-1.1-0.4-1.3-0.8c-0.5,0.4-1.1,0.8-1.8,0.8
			c-1.1,0-2.2-0.7-2.2-1.9c0-1.7,1.6-2.4,3.1-2.4c0.3,0,0.5,0,0.8,0c0-0.9-0.1-1.8-1.2-1.8c-0.8,0-1.2,0.3-1.6,0.9L27.5,116.8z
			 M30.6,118.3c-0.2,0-0.5-0.1-0.8-0.1c-0.7,0-1.5,0.4-1.5,1.4c0,0.7,0.6,1.3,1.3,1.3c0.5,0,0.8-0.1,1.1-0.3L30.6,118.3z"/>
		<path id="path708" class="st0" d="M35.9,115c0,0.7,0.1,2.1,0.1,3.4v2.4c0,0.5,0.3,0.6,0.6,0.7v0.3c-0.5,0-1-0.1-1.5-0.1
			c-0.4,0-0.9,0-1.3,0.1v-0.3c0.4-0.1,0.6-0.2,0.6-0.7v-2c0-1.2-0.1-1.8-0.2-2.1c-0.1-0.3-0.3-0.4-0.7-0.5v-0.3
			c0.7-0.2,1.6-0.5,2.1-0.8H35.9z M35.1,112.2c0.5,0,0.9,0.3,0.9,0.8c0,0.5-0.4,0.8-0.9,0.8c-0.5,0-0.9-0.3-0.9-0.8
			C34.2,112.6,34.6,112.2,35.1,112.2"/>
		<path id="path712" class="st0" d="M37.4,121.5c0.5-0.1,0.9-0.5,1.1-0.8l1.6-2l-1.9-2.5c-0.3-0.4-0.4-0.5-0.9-0.7v-0.3
			c0.5,0,1,0,1.5,0s1,0,1.4,0v0.3c-0.2,0.1-0.3,0.1-0.3,0.4c0,0.1,0,0.3,0.2,0.5l0.9,1.2l0.8-1c0.2-0.2,0.2-0.4,0.2-0.5
			c0-0.3-0.2-0.4-0.5-0.5v-0.3c0.4,0,0.9,0,1.3,0c0.4,0,0.9,0,1.3,0v0.3c-0.6,0.1-1,0.5-1.3,1l-1.4,1.7l1.7,2.4
			c0.2,0.3,0.6,0.7,1,0.9v0.3c-0.5,0-1,0-1.4,0c-0.5,0-1,0-1.4,0v-0.3c0.2,0,0.3-0.2,0.3-0.4c0-0.1-0.1-0.4-0.3-0.5l-0.9-1.2
			l-0.9,1.2c-0.1,0.1-0.2,0.5-0.2,0.6c0,0.3,0.1,0.3,0.3,0.4v0.3c-0.4,0-0.9,0-1.3,0c-0.4,0-0.7,0-1,0L37.4,121.5z"/>
		<path id="path716" class="st0" d="M45.3,116.8v-1.5c0.7-0.2,1.3-0.3,2.1-0.3c1.4,0,2.7,0.4,2.7,2c0,0.6-0.1,1.4-0.1,2.3v0.6
			c0,0.7,0.1,1,0.5,1c0.1,0,0.2,0,0.3-0.1L51,121l-1.2,1c-0.6-0.1-1.1-0.4-1.3-0.8c-0.5,0.4-1.1,0.8-1.8,0.8c-1.1,0-2.2-0.7-2.2-1.9
			c0-1.7,1.6-2.4,3.1-2.4c0.3,0,0.5,0,0.8,0c0-0.9-0.1-1.8-1.2-1.8c-0.8,0-1.2,0.3-1.6,0.9L45.3,116.8z M48.4,118.3
			c-0.2,0-0.5-0.1-0.8-0.1c-0.7,0-1.5,0.4-1.5,1.4c0,0.7,0.6,1.3,1.3,1.3c0.5,0,0.8-0.1,1.1-0.3L48.4,118.3z"/>
		<path id="path720" class="st0" d="M54.2,111.4c0-0.3,0.2-0.3,0.6-0.3c1.7,0,2.4,0.9,2.4,2.4c0,1.4-1,2.3-2.4,2.3
			c-0.2,0-0.4,0-0.7,0L54.2,111.4z M52.4,120.4c0,0.7-0.2,0.9-0.9,1v0.3h2.8c0.2,0,0.5,0,0.7,0c0.2,0,0.5,0,0.7,0
			c1.8,0,3.8-0.7,3.8-2.8c0-1.7-1-2.5-2.5-2.9v0c1.2-0.4,2.3-1.3,2.3-2.6c0-2.1-2.2-2.9-4-2.9c-0.4,0-0.8,0.1-1.5,0.1
			c-0.6,0-1.3-0.1-2.1-0.1v0.4c0.4,0.1,0.7,0.2,0.7,0.8c0,1.4,0,3.5,0,5.4L52.4,120.4z M54.2,116.4c0.3,0,0.6,0,0.9,0
			c1.5,0,2.4,1.1,2.4,2.6c0,1.2-0.8,2.2-2.2,2.2c-1,0-1.1-0.2-1.1-1L54.2,116.4z"/>
		<path id="path724" class="st0" d="M67,116.1c0.5,0,0.7,0.3,0.7,0.7c0,0.5,0.1,1.4,0.1,2.3v1.6c0,0.5-0.2,0.6-0.6,0.8v0.3
			c0.5,0,0.9,0,1.4,0c0.5,0,0.9,0,1.4,0v-0.3c-0.4,0-0.6-0.2-0.6-0.8v-1.3c0-1.3,0-2.2,0-2.8c0-0.6,1-0.8,1.4-0.8
			c1.1,0,1.3,1.2,1.3,2.1v2.8c0,0.5-0.1,0.7-0.6,0.8v0.3c0.5,0,1,0,1.5,0c0.4,0,0.8,0,1.2,0v-0.3c-0.5-0.1-0.6-0.2-0.6-0.8v-3.4
			c0-1.4-0.6-2.3-2.2-2.3c-0.7,0-1.4,0.4-2,0.8c0-0.3,0-0.5,0-0.8h-0.3c-0.6,0.4-1.2,0.6-2.1,0.8L67,116.1z"/>
		<path id="path728" class="st0" d="M81.8,121.4c-0.5-0.1-1.1-0.7-1.3-0.9l-2.4-2.8l1.2-1.3c0.4-0.4,0.9-0.8,1.5-0.9v-0.3
			c-0.4,0-0.8,0-1.2,0c-0.4,0-0.9,0-1.3,0v0.3c0.1,0.1,0.3,0.3,0.3,0.4c0,0.2-0.1,0.4-0.4,0.8l-1.3,1.3v-7.6h-0.4
			c-0.6,0.4-1.3,0.8-2.1,1v0.4c0.4,0,0.8,0.4,0.8,1c0,0.6,0.1,1.8,0.1,2.8v5.2c0,0.4-0.1,0.6-0.6,0.7v0.3c0.4,0,0.9,0,1.3,0
			c0.5,0,1,0,1.4,0v-0.3c-0.4-0.1-0.5-0.3-0.5-0.8v-2.2h0l1.7,1.8c0.3,0.3,0.5,0.7,0.5,0.9c0,0.2-0.1,0.3-0.3,0.3v0.3
			c0.5,0,1.1,0,1.6,0c0.5,0,0.9,0,1.4,0V121.4z"/>
		<path id="path730" class="st0" d="M15.3,125.1h66.5v-0.3H15.3V125.1z"/>
	</g>
</g>
</svg>
