<?xml version="1.0" encoding="utf-8"?>
<!-- Generator: Adobe Illustrator 26.0.1, SVG Export Plug-In . SVG Version: 6.00 Build 0)  -->
<svg version="1.1" id="Layer_1" xmlns="http://www.w3.org/2000/svg" xmlns:xlink="http://www.w3.org/1999/xlink" x="0px" y="0px"
	 viewBox="0 0 95 35" style="enable-background:new 0 0 95 35;" xml:space="preserve">
<style type="text/css">
	.st0{fill:#343741;}
</style>
<g id="layer1" transform="translate(280.45889,-104.30336)">
	<g id="g1319">
		<path id="path977" class="st0" d="M-275.3,133c-2.2-0.3-4.1-1.9-4.7-4c-0.3-0.9-0.4-2-0.4-3c0.2-2.5,1.3-4.5,3.2-5.4
			c1.2-0.6,1.6-0.7,3.5-0.7c1.8,0,2.6,0.1,3.3,0.5c0.5,0.2,0.9,0.7,1.1,1.1c0.1,0.2,0.1,0.9,0.1,1.7l0,1.4h-0.4
			c-0.3,0-0.4,0-0.4-0.2c-0.2-0.9-0.3-1.2-0.5-1.6c-0.3-0.6-1-1.3-1.7-1.6c-0.4-0.1-0.6-0.2-1.3-0.2c-0.8,0-0.9,0-1.3,0.2
			c-0.9,0.4-1.6,1.5-1.9,2.9c-0.1,0.4-0.2,1.2-0.2,1.8c-0.1,3,0.6,4.9,2,5.6c0.4,0.2,0.6,0.2,1.2,0.3c1.4,0.1,2.2-0.3,3.4-1.4
			l0.7-0.7l0.4,0.3l0.4,0.3l-0.1,0.3c-0.1,0.1-0.4,0.6-0.8,0.9c-0.6,0.6-0.8,0.7-1.4,1C-272.3,133-273.8,133.2-275.3,133L-275.3,133
			z M-261.2,133.1c-2-0.3-3.6-1.5-4.4-3.2c-0.4-0.9-0.6-1.8-0.7-2.9c-0.1-3,1-5.3,3.1-6.3c1.1-0.5,1.6-0.6,2.8-0.6
			c1.3,0,2,0.2,3,0.7c1.8,0.9,2.8,2.5,2.8,4.5c0,0.5,0,1.1,0,1.4l-0.1,0.5l-4.1,0l-4.1,0l0,0.8c0.1,1.6,0.5,2.8,1.2,3.5
			c0.5,0.5,1,0.6,1.8,0.6c1.3,0,2.4-0.5,3.5-1.9l0.3-0.4l0.4,0.3l0.4,0.3l-0.3,0.4c-0.8,1.1-1.9,1.9-3.2,2.3
			C-258.9,133-260.8,133.1-261.2,133.1L-261.2,133.1z M-258.2,124.8c-0.1-1.9-0.6-3.1-1.4-3.5c-1-0.5-2.1-0.1-2.6,0.9
			c-0.4,0.8-0.7,2.3-0.7,3.4l0,0.2h2.3h2.3L-258.2,124.8z M-251.9,123.9V115l0.9,0.1c1.2,0.1,1.6,0.2,2,0.6c0.6,0.6,0.6,0.2,0.6,9.2
			l0,8.1h-1.7h-1.7V123.9z M-244.9,132.2c0-0.4-0.1-4.4-0.1-8.9l0-8.3l0.5,0c0.8,0,1.7,0.1,2,0.3c0.3,0.2,0.6,0.6,0.8,1.1
			c0.1,0.3,0.1,1.2,0.2,8.4l0,8.1h-1.7h-1.7L-244.9,132.2z"/>
		<path id="path1044" class="st0" d="M-217.7,133.2c-1.2-0.2-2.2-0.8-3-1.6c-0.9-1-1.5-2.1-1.7-3.5c-0.1-0.9-0.1-2.8,0.2-3.6
			c0.4-1.7,1.5-3,2.8-3.7c1-0.5,1.6-0.6,2.8-0.6c1.3,0,1.9,0.1,3,0.7c0.6,0.3,0.9,0.5,1.4,1c1.2,1.2,1.7,2.7,1.5,4.8l-0.1,0.5h-4.1
			c-2.2,0-4.1,0-4.1,0.1c0,0.5,0.2,2,0.3,2.4c0.3,1.1,1,2,1.8,2.3c0.5,0.2,1.5,0.2,2,0c0.7-0.2,1.3-0.5,2-1.3l0.8-0.8l0.4,0.3
			c0.2,0.1,0.4,0.3,0.4,0.3c0,0.1-0.9,1.2-1.3,1.6c-0.5,0.4-1.4,0.9-2,1C-215.3,133.3-217,133.3-217.7,133.2L-217.7,133.2z
			 M-214.3,125.5c0-1.3-0.3-2.7-0.7-3.4c-0.6-0.9-1.8-1.1-2.7-0.4c-0.4,0.3-0.7,0.9-0.9,1.7c-0.2,0.6-0.4,2.4-0.3,2.5
			c0,0,1.1,0.1,2.3,0.1h2.3V125.5z M-236.9,127.8c0-4.9,0-5.3-0.2-5.6c-0.3-0.7-0.7-1-1.5-1.1l-0.5-0.1v-0.4v-0.4h1.8
			c2,0,2.4,0.1,2.9,0.6l0.3,0.3l0.3-0.2c0.4-0.3,1.3-0.7,2-0.8c0.9-0.2,2.6-0.2,3.4,0c1.6,0.4,2.7,1.3,3.1,2.9
			c0.1,0.4,0.1,1,0.2,5.2l0,4.7h-1.7h-1.7v-4.6c0-4.8,0-5-0.4-5.8c-0.2-0.4-0.7-0.9-1.1-1.1c-0.3-0.1-0.5-0.2-1.1-0.2
			c-0.9,0-1.4,0.1-2,0.5c-0.4,0.2-0.4,0.3-0.3,0.5c0,0.1,0.1,2.6,0.1,5.4l0,5.2h-1.7h-1.7L-236.9,127.8z M-209.6,133
			c0,0,1-1.3,2.2-2.8c1.3-1.6,2.2-2.8,2.2-2.9c0-0.1-0.7-1.2-1.5-2.5c-1.7-2.9-2.2-3.5-3.4-3.9c-0.1,0-0.1-0.1-0.1-0.3v-0.2h1.6
			c1.8,0,2.3,0.1,3,0.5c0.6,0.4,1.1,1,1.9,2.4c0.4,0.6,0.7,1.2,0.8,1.3c0.1,0.1,0.5-0.4,1.8-2l1.7-2.1l0.9,0c0.9,0,0.9,0,0.8,0.1
			c-0.6,0.7-4.4,5.5-4.4,5.5c0,0,0.7,1.1,1.5,2.5c1.7,2.8,2.1,3.4,3,3.8c0.5,0.2,0.6,0.3,0.6,0.5l0,0.2l-1.8,0l-1.8,0l-0.5-0.3
			c-0.8-0.4-1.3-1-2.3-2.6c-0.4-0.7-0.8-1.3-0.9-1.3c0,0-0.8,1-1.8,2.2l-1.7,2.1h-0.9C-209.2,133.1-209.6,133-209.6,133L-209.6,133z
			"/>
		<path id="path1178" class="st0" d="M-194,122.4l-0.2-0.1l0-0.9c0.1-1.6-0.3-2.4-1.3-3.5c-0.7-0.7-1.6-1.2-2.6-1.5
			c-0.5-0.1-1.8-0.2-3.1-0.1c-0.5,0-0.6,0-0.7-0.1c-0.1-0.1-0.1-0.1,0-0.2c0.4-0.3,3.2-0.5,4.3-0.4c3,0.5,5.2,2.9,5,5.6
			c0,0.3-0.1,0.7-0.1,0.7C-192.8,122.4-193.6,122.6-194,122.4z"/>
		<path id="path1245" class="st0" d="M-190,122.2c0,0-0.1-0.3-0.2-0.5c-0.8-3.8-4-7-7.8-7.8c-0.8-0.2-2.7-0.2-3.4-0.1
			c-0.7,0.1-0.9,0-0.5-0.4c0.3-0.3,0.5-0.3,1.6-0.4c2.7-0.3,5.7,0.6,7.8,2.2c0.2,0.2,0.7,0.6,1.1,1c1.3,1.4,2.1,2.8,2.6,4.7
			c0.2,0.7,0.2,0.8,0,0.9C-188.9,122.1-189.7,122.3-190,122.2z"/>
		<path id="path1312" class="st0" d="M-187,121.5c0-0.1-0.1-0.3-0.1-0.5c-1.3-5.9-6.7-10.2-12.4-10c-0.6,0-1.2,0.1-1.5,0.1
			c-1,0.2-1.3-0.3-0.3-0.6c0.8-0.2,2.3-0.3,3.2-0.2c3.6,0.2,6.6,1.5,9,3.9c1.7,1.7,2.8,3.6,3.4,5.9c0.2,0.9,0.2,1.1-0.1,1.3
			C-186.1,121.6-186.9,121.7-187,121.5z"/>
	</g>
</g>
</svg>
