<?xml version="1.0" encoding="utf-8"?>
<!-- Generator: Adobe Illustrator 26.0.1, SVG Export Plug-In . SVG Version: 6.00 Build 0)  -->
<svg version="1.1" id="Layer_1" xmlns="http://www.w3.org/2000/svg" xmlns:xlink="http://www.w3.org/1999/xlink" x="0px" y="0px"
	 viewBox="0 0 95 35" style="enable-background:new 0 0 95 35;" xml:space="preserve">
<style type="text/css">
	.st0{fill-rule:evenodd;clip-rule:evenodd;fill:#343741;}
</style>
<g id="Layer1000" transform="translate(-123.46457,-331.92016)">
	<path id="path2" class="st0" d="M215.5,352.1c1.7,0,3,1.3,3,3c0,0,0,0,0,0c0,1.7-1.3,3-3,3c-1.7,0-3-1.3-3-3
		C212.4,353.4,213.8,352.1,215.5,352.1z"/>
	<path id="path4" class="st0" d="M192.4,341.1c-0.1-0.3-0.1-2,0-2.3c1.3,0,2.6,0,3.8,0c0.9,0,2.7-0.2,2.7,1.2c0,1.4-2,1.1-2.7,1.1
		C195,341.1,193.5,341.2,192.4,341.1L192.4,341.1z M189.9,346.2c0.3,0.1,2.1,0.1,2.4,0c0-0.8,0-1.9,0-2.8c0-0.5,0.1-0.4,0.6-0.4
		c0.9,0,3-0.1,3.7,0c0.1,0.3,1.4,2,1.6,2.3c0.2,0.3,0.4,0.5,0.5,0.8l2.7,0c0-0.1-1-1.5-1.1-1.7c-0.2-0.3-0.4-0.5-0.6-0.8
		c-0.1-0.2-0.5-0.7-0.6-0.9c0.6-0.2,1-0.4,1.4-0.9c0.6-0.8,0.8-1.9,0.4-2.9c-0.3-0.8-1.1-1.5-1.9-1.8c-1.1-0.4-5.3-0.3-6.9-0.3
		c-0.7,0-1.8-0.1-2.4,0C189.9,337.5,189.9,345.8,189.9,346.2L189.9,346.2z"/>
	<path id="path6" class="st0" d="M176.1,344.3c-0.2-0.3,0-2.5,0-3c0-2.7-0.2-2.4,0.7-2.4l3.5,0c1.5,0,3,1.1,3.1,2.7
		c0,1.6-1.5,2.7-3.1,2.7C179.9,344.3,176.3,344.4,176.1,344.3L176.1,344.3z M173.6,346.1c0.3,0.1,7.2,0.1,7.9,0
		c0.4-0.1,0.6-0.1,1-0.3c1-0.4,1.7-0.8,2.4-1.6c1-1.2,1-2.8,0.5-4.2c-0.2-0.6-0.6-1.1-1.1-1.6c-2.1-1.9-6.3-1.4-9.2-1.4
		c-0.2,0-1.2,0-1.3,0c-0.2,0.1-0.1,0.7-0.1,1.1C173.6,340.6,173.6,343.8,173.6,346.1L173.6,346.1z"/>
	<path id="path8" class="st0" d="M161.9,337c-0.4,0-0.8,0-1.2,0l-0.9,0c-0.1,0-0.2,0-0.3,0.1c-0.3,0.3,0.3,5.7-0.3,6.4
		c-0.3,0.4-0.5,0.5-1,0.7c-1.3,0.5-3.3,0.5-4.4-0.1c-1.2-0.6-1-1.4-1-2.4c0-1.1,0-2.3,0-3.4c0-1.3,0.1-1.3-0.4-1.3
		c-2.5,0-2.1-0.3-2.1,1.3c0,1-0.1,4.5,0,5.1c0.1,0.6,0.2,0.9,0.6,1.3c1.3,1.6,4.3,2,6.6,1.7c1-0.1,1.9-0.3,2.7-0.8
		c0.6-0.4,1.4-1,1.6-1.8c0.2-0.8,0.1-2.4,0.1-3.3C161.9,339.6,162,337.7,161.9,337L161.9,337z"/>
	<path id="path10" class="st0" d="M212.3,342.4l-3.2,0c0-0.1,1.6-3,1.7-3.2c0.2-0.3,0-0.1,0.2-0.2c0.2,0.3,0.8,1.4,1.1,1.9
		C213.1,342.5,213.1,342.4,212.3,342.4L212.3,342.4z M204.6,346.2l2.4,0c0.2-0.3,0.9-1.8,1.1-2l5.8,0c0.2,0.1,0.5,0.8,0.7,1.2
		c0.1,0.1,0.1,0.2,0.1,0.3c0.4,0.6,0,0.5,2.4,0.5c0.2,0,0.3,0,0.3-0.2c0,0-0.2-0.3-0.2-0.3c-0.1-0.2-0.2-0.4-0.4-0.7
		c-0.3-0.5-0.5-0.9-0.7-1.4l-3-5.4c-0.9-1.6-0.2-1.2-3-1.2c-0.9,0-0.5,0.1-1.1,1c-1.1,1.7-2.7,5-3.8,6.8
		C205.1,345,204.6,346,204.6,346.2L204.6,346.2z"/>
	<path id="path12" class="st0" d="M123.6,346.1c0.2,0.1,2,0.1,2.3,0c0.1-0.5,0-2.7,0-3.4c0-0.3,0.1-0.3,0.9-0.3l3.5,0
		c0.2,0,1,0.1,1.1-0.1c0.1-0.2,0.1-1.4,0-1.8c-0.8-0.1-5.2,0.1-5.4-0.1c-0.1-0.1-0.1-1.8,0-1.6l0.1,0c0.6-0.1,7.5,0.1,7.6,0
		c0.1-0.3,0-0.9,0.1-1.3c0-0.8,0-0.6-0.7-0.6l-9.4,0c-0.2,0-0.2,0.2-0.2,0.5l0,7.4C123.5,345.2,123.4,345.9,123.6,346.1L123.6,346.1
		z"/>
	<path id="path14" class="st0" d="M137.5,346.2c0.6,0.1,6.1,0,7.2,0c0.6,0,1.9,0.1,2.4,0l0-1.5c0-0.5,0.1-0.4-1-0.4l-5.9,0
		c-0.2,0-0.2,0-0.3-0.1c0-2.2,0-4.9,0-7l0-0.2l-1.9,0c-0.3,0-0.4-0.1-0.4,0.2L137.5,346.2z"/>
	<path id="path16" class="st0" d="M166.6,346.1c0.2,0.1,2.1,0,2.4,0c0.1-0.5,0.1-8.9,0-9.1c-0.5-0.1-1.5-0.1-2.1-0.1
		c-0.5,0-0.3,0.2-0.3,1.5l0,7.4C166.6,346.1,166.6,346.1,166.6,346.1L166.6,346.1z"/>
	<path id="path18" class="st0" d="M206.8,351.4c2,0,3.6,1.6,3.6,3.6c0,0,0,0,0,0c0,2-1.6,3.6-3.6,3.6s-3.6-1.6-3.6-3.6
		C203.2,353.1,204.8,351.4,206.8,351.4z"/>
	<path id="path20" class="st0" d="M181.3,348.2c2.2,0,4.2,1,5.4,2.7l0,0l0,0l0.1,0.1c3.3,4.4,3.5,2.7,6.4,0.5
		c0.2-0.2,0.4-0.3,0.6-0.5l0,0c0.7-0.4,1.6-0.7,2.5-0.7c2.6,0,4.8,2.1,4.8,4.8c0,2.6-2.1,4.8-4.8,4.8c-1.3,0-2.4-0.5-3.3-1.3l0,0
		c-3.1-2.9-3.4-2.7-6.3,0.6l0,0c-1.2,1.7-3.3,2.8-5.5,2.8c-3.8,0-6.9-3.1-6.9-6.9C174.4,351.3,177.5,348.2,181.3,348.2L181.3,348.2z
		"/>
</g>
</svg>
