<?xml version="1.0" encoding="utf-8"?>
<!-- Generator: Adobe Illustrator 26.0.1, SVG Export Plug-In . SVG Version: 6.00 Build 0)  -->
<svg version="1.1" id="Layer_1" xmlns="http://www.w3.org/2000/svg" xmlns:xlink="http://www.w3.org/1999/xlink" x="0px" y="0px"
	 viewBox="0 0 95 35" style="enable-background:new 0 0 95 35;" xml:space="preserve">
<style type="text/css">
	.st0{fill:#CCCCCC;}
</style>
<path class="st0" d="M23.7,19.5l1.2,0l3.8,7.9l3.9-0.7l-4.4-8.1c1.8-1.1,3.1-2.7,3.1-5.5c0-3.2-2.4-5-6-5H19v19h3.8V10.6h1.9
	c1.5,0,3,0.7,3,2.9c0,1.4-0.8,3.4-3.4,3.4h-0.6L23.7,19.5L23.7,19.5z"/>
<path class="st0" d="M15.9,18.3v7.9C14,26.9,12,27.4,10,27.4c-6.1,0-10-4.4-10-10c0-5.2,3.8-9.8,10.1-9.8c1.9,0,3.9,0.7,5.1,1.5
	L14,11.3c-1-0.5-2.5-1-3.8-1c-3.8,0-6.4,2.8-6.4,7.1c0,4.5,3,7.2,6.1,7.2c1,0,1.7-0.1,2.5-0.5v-5.9H15.9z"/>
<rect x="34.7" y="8.1" class="st0" width="3.7" height="18.8"/>
<polygon class="st0" points="52.1,10.5 46,10.5 46,16.6 50.4,16.6 50.4,19.1 46,19.1 46,26.9 42.3,26.9 42.3,8.1 52.1,8.1 "/>
<path class="st0" d="M52.9,17.2c0-5.4,3.7-9.6,8.8-9.6c5.1,0,8.8,4.3,8.8,9.6c0,5.7-3.4,10.2-8.8,10.2
	C56.3,27.4,52.9,22.9,52.9,17.2 M66.8,17.2c0-3.5-1.5-7.1-5-7.1c-3.5,0-5,3.6-5,7.1c0,3.7,1.3,7.7,5,7.7
	C65.5,24.9,66.8,20.9,66.8,17.2"/>
<polygon class="st0" points="73.1,8.1 76.8,8.1 76.8,24 81.7,24 81.7,26.9 73.1,26.9 "/>
<path class="st0" d="M93.2,11.4c-0.8-0.6-1.8-1.1-2.9-1.1c-1.5,0-2.3,0.9-2.3,2c0,1.2,1.2,2.2,3.3,3.9c2.4,2,3.7,3.6,3.7,5.9
	c0,2.4-2.1,5.1-6.2,5.1c-1.9,0-3.9-0.6-5.2-1.9l1.3-2.1c0.9,0.7,2,1.5,3.6,1.5c1.5,0,2.8-0.8,2.8-2.6c0-2.1-2.4-3.4-3.8-4.6
	c-1.7-1.5-3.2-2.6-3.2-5.1c0-2.5,2.4-4.6,5.7-4.6c2,0,3.7,0.8,4.5,1.6L93.2,11.4z"/>
</svg>
