<?xml version="1.0" encoding="utf-8"?>
<!-- Generator: Adobe Illustrator 26.0.1, SVG Export Plug-In . SVG Version: 6.00 Build 0)  -->
<svg version="1.1" id="Layer_1" xmlns="http://www.w3.org/2000/svg" xmlns:xlink="http://www.w3.org/1999/xlink" x="0px" y="0px"
	 viewBox="0 0 95 35" style="enable-background:new 0 0 95 35;" xml:space="preserve">
<style type="text/css">
	.st0{fill:#CCCCCC;}
</style>
<path class="st0" d="M19.9,0c0.2,1.5,0.2,2.9,0,4.1c-0.2,0.8-0.6,2.1-1.3,3.6c-0.3-0.4-0.8-1.1-0.9-1.6h0c0,0.4,0.2,1.6,0.6,2.4
	c-0.6,1.1-1.3,2.2-2,3.2c-0.8-1.2-1.2-2.4-1.4-3.1c0,0,0,0,0,0c0,0.4,0.2,2.5,1,3.7c-0.7,1.1-1.5,2.3-2.1,3.6
	c-0.8-1.4-1.6-3.4-1.9-4.9l0,0c0,1.8,0.8,4.3,1.6,5.6c-0.5,1.1-0.9,2.3-1.1,3.7c-0.3,1.7-0.5,3.7-0.2,6l1.2-0.1
	c-0.4-2.1-0.5-3.9-0.3-5.6C18.1,22.4,26,18,19.9,0z"/>
<path class="st0" d="M27.6,0C27,8.1,17,7.5,16.9,15.2c0,1.1,0.5,2.7,1.7,4C22.9,23.5,34.8,20.9,27.6,0"/>
<path class="st0" d="M27.6,0C27,8.1,17,7.5,16.9,15.2c0,1.1,0.5,2.7,1.7,4C22.9,23.5,34.8,20.9,27.6,0"/>
<path class="st0" d="M16.9,15.2c0,1.1,0.5,2.7,1.7,4c0.2,0.2,0.3,0.3,0.5,0.4c2.2-1.8,3.6-5.4,2.7-11.7C19.3,9.7,17,11.5,16.9,15.2"
	/>
<path class="st0" d="M35.5,0c-0.6,8.1-10.6,7.5-10.7,15.2c0,1.1,0.5,2.7,1.7,4C30.8,23.5,42.6,20.9,35.5,0"/>
<path class="st0" d="M35.5,0c-0.6,8.1-10.6,7.5-10.7,15.2c0,1.1,0.5,2.7,1.7,4C30.8,23.5,42.6,20.9,35.5,0"/>
<path class="st0" d="M24.7,15.2c0,1.1,0.5,2.7,1.7,4c0.1,0.1,0.3,0.3,0.4,0.4c2.2-1.8,3.6-5.4,2.7-11.6
	C27.1,9.7,24.8,11.5,24.7,15.2"/>
<g>
	<g>
		<path class="st0" d="M59,30.9c0.7-0.2,1.8-0.8,1.8-2.3c0-1.2-0.9-2.4-2.7-2.4h-3.8v8.6H56c0,0,0-7.2,0-7.5c0.3,0,1.4,0,1.4,0
			c1.3,0,1.5,0.8,1.5,1.3c0,0.8-0.6,1.3-1.5,1.3c-0.6,0-0.9,0.2-0.9,0.6c0,0.2,0.1,0.5,0.8,0.6c0.8,0.1,1.1,0.9,1.6,1.9
			c0,0,0.4,0.9,0.5,1.1c0.1,0.3,0.2,0.6,0.9,0.6h1.4l-0.6-1.3C60.3,32.2,59.8,31.4,59,30.9"/>
		<path class="st0" d="M41.5,30.9c0.7-0.2,1.8-0.8,1.8-2.3c0-1.2-0.9-2.4-2.7-2.4h-3.8v8.6h1.8c0,0,0-7.2,0-7.5c0.3,0,1.4,0,1.4,0
			c1.3,0,1.5,0.8,1.5,1.3c0,0.8-0.6,1.3-1.5,1.3c-0.6,0-0.9,0.2-0.9,0.6c0,0.2,0.1,0.5,0.8,0.6c0.8,0.1,1.1,0.9,1.6,1.9
			c0,0,0.4,0.9,0.5,1.1c0.1,0.3,0.2,0.6,0.8,0.6h1.4l-0.6-1.3C42.8,32.2,42.3,31.4,41.5,30.9"/>
		<rect x="17" y="26.2" class="st0" width="1.8" height="8.6"/>
		<path class="st0" d="M30.8,31c0.3,0,4.2,0,4.2,0v-1.2c0,0-3.9,0-4.2,0c0-0.3,0-2.2,0-2.4c0.3,0,4.4,0,4.4,0v-1.2H29v8.6h6.2v-1.2
			c0,0-4.2,0-4.5,0C30.8,33.4,30.8,31.3,30.8,31"/>
		<path class="st0" d="M46.8,27.4c0.3,0,1.4,0,1.4,0c2,0,3.1,1.1,3.1,3.1c0,2-1.2,3.1-3.1,3.1c0,0-1.2,0-1.5,0
			C46.8,33.7,46.8,27.7,46.8,27.4 M48.5,26.2H45v8.6h3.2c3.2,0,4.9-1.5,4.9-4.3C53.2,27.9,51.4,26.2,48.5,26.2z"/>
		<path class="st0" d="M66.2,33.6c-1.8,0-2.8-1.1-2.8-3c0-1.9,1-3,2.8-3c1.8,0,2.8,1.1,2.8,3C69,32.5,68,33.6,66.2,33.6 M66.2,26.1
			c-3.2,0-4.6,2.2-4.6,4.4c0,2.2,1.4,4.4,4.6,4.4c3.2,0,4.6-2.3,4.6-4.4C70.8,28.4,69.4,26.1,66.2,26.1z"/>
		<path class="st0" d="M22.5,27.4c0.3,0,1.4,0,1.4,0c1,0,1.4,0.6,1.4,1.1c0,0.6-0.4,1.2-1.4,1.2c-0.6,0-0.9,0.2-0.9,0.6
			c0,0.2,0.1,0.6,0.9,0.6l0.4,0c1,0,1.6,0.6,1.6,1.4c0,1.2-1,1.4-2,1.4c0,0-1.3,0-1.5,0C22.5,33.7,22.5,27.7,22.5,27.4 M25.7,30.2
			c0.6-0.3,1.5-0.8,1.5-2c0-1-0.9-2-2.8-2h-3.7v8.6h4.2c2.7,0,3-1.7,3-2.4C27.9,30.9,26.6,30.4,25.7,30.2z"/>
		<path class="st0" d="M79.6,31.8c0.1-0.2,1.2-3.2,1.4-3.8c0.2,0.6,1.4,3.4,1.6,3.8C82.3,31.8,80,31.8,79.6,31.8 M82,26.2h-1.9
			l-3.5,8.6h0h1.9c0,0,0.6-1.6,0.7-1.8c0.2,0,3.9,0,4.1,0c0.1,0.2,0.5,1.2,0.5,1.2c0.1,0.3,0.2,0.6,0.8,0.6h1.3L82,26.2z"/>
		<path class="st0" d="M73.7,33.7c0-0.3,0-7.5,0-7.5h-1.8v8.6h4.5l0-1.2C76.4,33.7,73.9,33.7,73.7,33.7"/>
	</g>
</g>
</svg>
