<?xml version="1.0" encoding="utf-8"?>
<!-- Generator: Adobe Illustrator 26.0.1, SVG Export Plug-In . SVG Version: 6.00 Build 0)  -->
<svg version="1.1" id="Layer_1" xmlns="http://www.w3.org/2000/svg" xmlns:xlink="http://www.w3.org/1999/xlink" x="0px" y="0px"
	 viewBox="0 0 95 35" style="enable-background:new 0 0 95 35;" xml:space="preserve">
<style type="text/css">
	.st0{fill:#FFFFFF;}
	.st1{fill-rule:evenodd;clip-rule:evenodd;fill:#FFFFFF;}
</style>
<g id="g2876" transform="matrix(5.0183061,0,0,5.0183061,-840.28366,-1558.638)">
	<path id="path2848" class="st0" d="M167.4,313h0.8v2.2h-0.8V313z"/>
	<path id="path2850" class="st1" d="M169.4,313v2.2h0.8v-0.8l1.4,0.8V313h-0.8l0,0.8L169.4,313z"/>
	<path id="path2852" class="st0" d="M175.8,313h0.8v2.2h-0.8V313z"/>
	<path id="path2854" class="st0" d="M177.7,313h2.2v0.6h-0.7v1.5h-0.8v-1.5h-0.7V313z"/>
	<path id="path2856" class="st0" d="M181.7,313.8h0.9v0.5h-0.9v0.3h1.1v0.5h-1.1h-0.8V313h1.9v0.5h-1.1V313.8z"/>
	<path id="path2858" class="st1" d="M185.6,314.1l0.8,1.1h-1l-0.3-0.5l-0.3,0.5h-1l0.8-1.1l-0.8-1.1h1l0.3,0.5l0.3-0.5h1
		L185.6,314.1z"/>
	<path id="path2860" class="st1" d="M173.4,314.5v-0.9h0.1c0.3,0,0.5,0.2,0.5,0.5c0,0.3-0.2,0.5-0.5,0.5H173.4z M172.6,315.2l0-2.2
		h1.1c0.6,0,1.1,0.5,1.1,1.1c0,0.6-0.5,1.1-1.1,1.1H172.6z"/>
</g>
</svg>
