<?xml version="1.0" encoding="utf-8"?>
<!-- Generator: Adobe Illustrator 26.0.1, SVG Export Plug-In . SVG Version: 6.00 Build 0)  -->
<svg version="1.1" id="Layer_1" xmlns="http://www.w3.org/2000/svg" xmlns:xlink="http://www.w3.org/1999/xlink" x="0px" y="0px"
	 viewBox="0 0 95 35" style="enable-background:new 0 0 95 35;" xml:space="preserve">
<style type="text/css">
	.st0{fill:#CCCCCC;}
</style>
<g>
	<path class="st0" d="M94.4,9.7c0.1-0.1,0.3-0.2,0.3-0.2c0.1,0,0.2,0.1,0.2,0.3c0,1.3-6.4,8.8-8.3,10.5c-1.5,1.5-2.6,2.4-3.3,2.4
		c-0.2,0-0.3-0.1-0.3-0.4c0-1,1.5-3.5,1.5-3.5v-0.1l-2.7,2.4c-0.6,0.5-1.4,0.8-2.1,0.8c-1.2,0-2.3-1-2.3-3.2V6.7
		c0-0.5,0.3-0.8,0.8-0.8c0.3,0,0.5,0.1,0.8,0.3c1.9,1.2,4.3,3.5,6.2,6.6c0.3,0.5,0.4,1,0.4,1.5c0,1.6-1.3,3.2-2.6,4.6v0.1L94.4,9.7z
		"/>
	<path class="st0" d="M19.1,15.1c-1.1,0-2,0.1-2.7,0.2c-0.7,0.1-0.9,0.5-0.9,1.1c0,0.4,0,0.9,0.1,1.2c0,0.2,0.1,0.2,0.3,0.2
		c1.1-0.2,2.1-0.2,3-0.2c1.2,0,1.8,0.1,2.1,0.3c0.3,0.2,0.4,0.5,0.4,1v0.3c-0.9-0.1-1.8-0.2-2.5-0.2c-1.6,0-2.8,0.3-3.5,1
		c-0.5,0.5-0.8,1.3-0.8,2.1c0,2,1.4,3.3,4.7,3.3c1.7,0,3.2-0.3,4.2-0.6c0.5-0.2,0.7-0.5,0.7-1.1v-4.2c0-1.7-0.3-2.6-1-3.3
		C22.3,15.4,21,15.1,19.1,15.1 M21.2,22.6c0,0.2-0.1,0.3-0.4,0.4c-0.5,0.1-1.1,0.1-1.6,0.1c-1.4,0-1.9-0.4-1.9-1.1
		c0-0.3,0.1-0.5,0.2-0.6c0.2-0.2,0.6-0.3,1.3-0.3h2.5L21.2,22.6z M9.6,12.4v8.4c-2.2-3-4.6-6.2-6.1-8.3c-0.2-0.2-0.3-0.4-0.6-0.4
		c-0.3-0.1-0.8-0.1-1.1-0.1c-0.7,0-1.2,0.1-1.5,0.4c-0.2,0.2-0.3,0.5-0.3,1v11.9h2.5c0.3,0,0.4-0.1,0.4-0.4v-8.4
		c2,2.7,4.4,5.9,6.1,8.2c0.2,0.2,0.3,0.4,0.6,0.4c0.3,0.1,0.8,0.1,1.1,0.1c0.7,0,1.2-0.1,1.5-0.4c0.2-0.2,0.3-0.5,0.3-1V12h-2.5
		C9.8,12,9.6,12.1,9.6,12.4 M32.6,22.7c-0.1-0.1-0.1-0.2-0.2-0.2c0,0-0.1,0-0.2,0c-0.7,0.2-1.5,0.4-2.1,0.4c-0.5,0-0.8-0.1-1-0.3
		c-0.2-0.2-0.3-0.6-0.3-1.1v-3.6h2.6c0.4,0,0.6-0.1,0.7-0.3c0.1-0.2,0.2-0.5,0.2-1c0-0.3,0-0.8-0.1-1c0-0.2-0.1-0.2-0.3-0.2h-3.1
		v-2.9h-2.3c-0.4,0-0.5,0.2-0.5,0.5v8.9c0,1.3,0.3,2.1,0.9,2.6c0.6,0.6,1.5,1,2.8,1c0.9,0,1.9-0.2,2.6-0.5c0.6-0.2,0.7-0.5,0.7-0.8
		c0-0.1,0-0.3-0.1-0.5C32.8,23.3,32.7,22.9,32.6,22.7 M71.1,15.3c-0.3,0-0.5,0.2-0.5,0.5v4.8c0,0.8-0.1,1.3-0.5,1.7
		c-0.3,0.4-0.9,0.6-1.5,0.6c-0.6,0-1-0.2-1.3-0.5c-0.3-0.3-0.4-0.8-0.4-1.6v-5.5h-2.3c-0.4,0-0.5,0.2-0.5,0.5v5.3
		c0,1.5,0.3,2.4,1,3.1c0.7,0.7,1.6,1.1,2.9,1.1c1.1,0,2.1-0.5,2.6-1v0.3c0,0.7-0.1,1.2-0.4,1.5c-0.4,0.4-1,0.6-2.2,0.6
		c-0.7,0-1.6-0.1-2.3-0.2c-0.3,0-0.4,0.1-0.5,0.4c0,0.2-0.1,0.7-0.1,1c0,0.6,0.2,0.9,0.9,1.1c0.6,0.1,1.6,0.2,2.5,0.2
		c1.8,0,3-0.5,3.7-1.3c0.8-0.8,1.1-2,1.1-3.7v-8.8L71.1,15.3z M57.4,15.1c-3.1,0-5.1,2-5.1,5.2c0,3,1.6,5,4.4,5
		c1.2,0,2.2-0.4,2.8-1.2v0.4c0,0.7-0.1,1.2-0.4,1.5c-0.4,0.4-1.2,0.6-2.3,0.6c-0.7,0-1.7-0.1-2.5-0.2c-0.3,0-0.4,0.1-0.5,0.4
		c0,0.3-0.1,0.7-0.1,1c0,0.7,0.2,0.9,0.9,1.1c0.7,0.1,1.6,0.2,2.5,0.2c1.9,0,3.2-0.4,4-1.3c0.8-0.8,1.1-1.9,1.1-3.4v-4.5
		c0-1.5-0.4-2.7-1.2-3.4C60.2,15.6,58.8,15.1,57.4,15.1 M59.5,20.2c0,1-0.2,1.7-0.7,2.2c-0.4,0.4-0.9,0.6-1.5,0.6
		c-1.6,0-2.2-1.1-2.2-2.6c0-1.8,0.9-2.6,2.2-2.6c0.6,0,1.2,0.2,1.6,0.6c0.4,0.4,0.6,1,0.6,1.7L59.5,20.2z M40.7,15.8V21
		c0,0.7-0.1,1.1-0.4,1.4c-0.3,0.3-0.8,0.5-1.4,0.5c-0.6,0-1.1-0.2-1.4-0.5C37.1,22.1,37,21.7,37,21v-5.7h-2.2
		c-0.4,0-0.5,0.2-0.5,0.5v5.5c0,1.3,0.4,2.2,1,2.8c0.8,0.8,2,1.2,3.6,1.2c1.6,0,2.8-0.4,3.6-1.2c0.7-0.7,1-1.6,1-2.8v-6.1h-2.2
		C40.8,15.3,40.7,15.5,40.7,15.8 M51.1,15.4c-0.4-0.2-1-0.3-1.9-0.3c-1.1,0-2.1,0.3-2.8,0.9c-0.6,0.6-1,1.4-1,2.9v6
		c0,0.2,0.1,0.3,0.3,0.3h2.5v-5.8c0-0.8,0.1-1.1,0.4-1.4c0.3-0.3,0.7-0.4,1.5-0.4c0.3,0,0.7,0,1.2,0.1c0.2,0,0.3-0.1,0.3-0.2
		c0-0.2,0.1-0.7,0.1-1C51.6,15.9,51.5,15.6,51.1,15.4"/>
</g>
</svg>
