<?xml version="1.0" encoding="utf-8"?>
<!-- Generator: Adobe Illustrator 26.0.1, SVG Export Plug-In . SVG Version: 6.00 Build 0)  -->
<svg version="1.1" id="Layer_1" xmlns="http://www.w3.org/2000/svg" xmlns:xlink="http://www.w3.org/1999/xlink" x="0px" y="0px"
	 viewBox="0 0 95 35" style="enable-background:new 0 0 95 35;" xml:space="preserve">
<style type="text/css">
	.st0{fill:#343741;}
	.st1{fill-rule:evenodd;clip-rule:evenodd;fill:#343741;}
</style>
<path class="st0" d="M38.7,0.1v17.8h17.8V0.1H38.7z M52.5,10.5c-0.1,0-0.1,0-0.2,0c0,0.1,0,0.1,0,0.2c0,0.4-0.3,0.8-0.8,0.8
	c-0.2,0-0.4-0.1-0.6-0.3c-0.4,0.2-1,0.5-1.8,0.9c-0.2,0.1-0.4,0.2-0.7,0.4c0,0.1,0,0.1,0,0.2c0,0.4-0.3,0.8-0.8,0.8
	c-0.2,0-0.4-0.1-0.5-0.2c-0.9,0.6-1.8,1.2-2.7,2c0,0.1,0.1,0.2,0.1,0.3c0,0.4-0.3,0.8-0.8,0.8c-0.4,0-0.8-0.3-0.8-0.8
	c0-0.4,0.3-0.8,0.8-0.8c0.1,0,0.3,0,0.4,0.1c0.8-0.7,1.8-1.4,2.8-2c0-0.1,0-0.1,0-0.2c0-0.4,0.3-0.8,0.8-0.8c0.2,0,0.4,0.1,0.5,0.2
	c0.8-0.5,1.7-0.9,2.5-1.3c0,0,0,0,0-0.1c0-0.2,0-0.3,0.1-0.4c-0.3,0.1-0.7,0.1-1.1,0.2c-0.2,0.1-0.4,0.1-0.7,0.2
	c0,0.4-0.3,0.8-0.8,0.8c-0.3,0-0.5-0.1-0.6-0.3c-1,0.3-2.1,0.8-3.2,1.3c0,0,0,0.1,0,0.2c0,0.4-0.3,0.8-0.8,0.8
	c-0.4,0-0.8-0.3-0.8-0.8c0-0.4,0.3-0.8,0.8-0.8c0.2,0,0.4,0.1,0.5,0.2c1-0.5,2.1-1,3.3-1.4c0-0.4,0.3-0.8,0.8-0.8
	c0.3,0,0.5,0.1,0.6,0.3c0.9-0.3,1.8-0.4,2.7-0.6C51.8,9.3,52.1,9,52.5,9c0.4,0,0.8,0.3,0.8,0.8C53.2,10.2,52.9,10.5,52.5,10.5z
	 M52.5,8.5c-0.2,0-0.3,0-0.4-0.1c0,0,0,0,0,0c0,0.4-0.4,0.8-0.8,0.8c-0.3,0-0.5-0.2-0.7-0.4L48,9.3c0,0.4-0.4,0.7-0.8,0.7
	c-0.3,0-0.5-0.2-0.6-0.4l-3.1,0.7c0,0.4-0.4,0.7-0.8,0.7c-0.4,0-0.8-0.3-0.8-0.8c0-0.4,0.3-0.8,0.8-0.8c0.3,0,0.5,0.2,0.7,0.4
	l3.1-0.7c0-0.4,0.4-0.7,0.8-0.7c0.3,0,0.5,0.2,0.7,0.4l2.6-0.6c0-0.1,0.1-0.3,0.2-0.4c-0.5,0-1,0-1.5,0c-0.1,0.3-0.4,0.5-0.7,0.5
	c-0.3,0-0.6-0.2-0.7-0.5c-1.3,0-2.4,0-3.1,0c-0.1,0.3-0.4,0.5-0.7,0.5c-0.4,0-0.8-0.3-0.8-0.8c0-0.4,0.3-0.8,0.8-0.8
	c0.3,0,0.6,0.2,0.7,0.5c0.7,0,1.8,0,3.1,0c0.1-0.3,0.4-0.5,0.7-0.5c0.3,0,0.6,0.2,0.7,0.5c0.8,0,1.7,0,2.6,0C51.8,7.2,52.1,7,52.5,7
	c0.4,0,0.8,0.3,0.8,0.8C53.2,8.2,52.9,8.5,52.5,8.5z M52.7,6.6C52.4,6.6,52,6.4,52,6c-0.1,0-0.3,0-0.5-0.1c0,0.1,0,0.2,0,0.3
	c0,0.4-0.3,0.8-0.8,0.8c-0.3,0-0.6-0.2-0.7-0.4c-0.6,0.1-1.7,0.2-2.9,0.2c-0.1,0.3-0.4,0.5-0.7,0.5c-0.4,0-0.6-0.2-0.7-0.6
	c-1.2-0.1-2.4-0.2-3.8-0.5c-0.1,0.2-0.4,0.4-0.7,0.4c-0.4,0-0.8-0.3-0.8-0.8c0-0.4,0.3-0.8,0.8-0.8c0.4,0,0.7,0.3,0.8,0.7
	c1.1,0.2,2.4,0.4,3.7,0.5c0.1-0.3,0.4-0.5,0.7-0.5c0.3,0,0.6,0.2,0.7,0.5c1,0,2-0.1,2.9-0.2c0-0.2,0.1-0.3,0.2-0.4
	c-0.3-0.1-0.7-0.2-1.1-0.3c-0.1,0.2-0.4,0.3-0.6,0.3c-0.4,0-0.8-0.3-0.8-0.8c-1.1-0.3-2.3-0.8-3.5-1.4c-0.1,0.1-0.3,0.2-0.5,0.2
	c-0.4,0-0.8-0.3-0.8-0.8s0.4-0.8,0.8-0.8c0.4,0,0.8,0.3,0.8,0.8c0,0,0,0.1,0,0.1c1,0.5,2.2,1,3.4,1.4c0.1-0.2,0.4-0.3,0.6-0.3
	c0.4,0,0.8,0.3,0.8,0.8c1,0.3,1.9,0.5,2.8,0.6c0.1-0.3,0.4-0.5,0.7-0.5c0.4,0,0.8,0.3,0.8,0.8C53.5,6.3,53.2,6.6,52.7,6.6z"/>
<path id="path2662" class="st1" d="M46.3,21.7l-0.5,1.2h0.4l0.9-1.2H46.3z M52.7,23.1c-1.7,0-3,1.2-3,2.9c0,1.1,0.9,2.7,2.9,2.7
	c0.8,0,1.4-0.2,2-0.5v-0.8C54,27.8,53.3,28,52.7,28c-1.3,0-2.2-0.8-2.2-2.1c0-1.2,0.9-2.1,2.2-2.1c0.6,0,1.2,0.2,1.9,0.6v-0.8
	C53.8,23.3,53.2,23.1,52.7,23.1z M74.4,23.1c-1.7,0-3,1.2-3,2.9c0,1.1,0.9,2.7,2.9,2.7c0.8,0,1.4-0.2,2-0.5v-0.8
	C75.7,27.8,75,28,74.4,28c-1.3,0-2.2-0.8-2.2-2.1c0-1.2,0.9-2.1,2.2-2.1c0.6,0,1.2,0.2,1.9,0.6v-0.8C75.5,23.3,74.9,23.1,74.4,23.1z
	 M80.1,23.2l-2.3,5.4h0.8l0.7-1.6h2.3l0.7,1.6h0.8l-2.4-5.4H80.1z M34.7,23.2v5.4h3.2v-0.7h-2.4v-1.7h2.2v-0.7h-2.2v-1.6h2.3v-0.7
	H34.7z M39.8,23.2v5.4H43v-0.7h-2.5v-4.7H39.8z M44.8,23.2v5.4H48v-0.7h-2.4v-1.7h2.2v-0.7h-2.2v-1.6h2.3v-0.7H44.8z M56.2,23.2v0.7
	h1.9v4.7h0.8v-4.7h1.9v-0.7H56.2z M62.6,23.2v5.4h0.8v-2.3h0.3c0.4,0,0.7,0.1,1.4,1.2l0.7,1.1h0.9c-0.4-0.5-0.5-0.7-0.8-1.1
	c-0.4-0.7-0.7-1.2-1.2-1.5c0.6-0.2,0.9-0.7,0.9-1.3c0-0.9-0.7-1.5-1.8-1.5H62.6z M68.5,23.2v5.4h0.8v-5.4H68.5z M11.9,23.4v5.4h1.9
	v-2.3h0.5c0.5,0,0.8,0.5,1.2,1.5l0.3,0.8h1.8l-0.6-1.4c-0.3-0.6-0.5-1-0.9-1.2c0.6-0.3,0.9-0.7,0.9-1.2c0-0.8-0.6-1.5-2.1-1.5H11.9z
	 M19.6,23.4v5.4h4.1v-1.1h-2.2v-1h2v-1.1h-2v-1h2.2v-1.1H19.6z M25.8,23.4v5.4h3.1c1.8,0,2.6-1.4,2.6-2.6c0-1.3-0.8-2.8-2.9-2.8
	H25.8z M63.4,23.9h0.5c0.8,0,1.1,0.3,1.1,0.8c0,0.5-0.2,0.9-1.1,0.9h-0.5V23.9z M13.8,24.3h0.6c0.6,0,0.9,0.2,0.9,0.7
	s-0.4,0.7-1,0.7h-0.5V24.3z M80.3,24.4l0.9,2h-1.7L80.3,24.4z M27.7,24.7h0.5c1,0,1.4,0.7,1.4,1.4c0,1-0.4,1.4-1.4,1.4h-0.5V24.7z
	 M57.8,29.9c-0.3,0-0.5,0.3-0.5,0.6h0.2c0-0.2,0.1-0.3,0.2-0.3c0.1,0,0.3,0.1,0.5,0.2c0.2,0.1,0.4,0.2,0.5,0.2c0.1,0,0.3,0,0.4-0.2
	c0.1-0.1,0.1-0.3,0.1-0.4h-0.2c0,0.2-0.1,0.3-0.3,0.3c-0.1,0-0.3-0.1-0.5-0.2C58.2,30,58,29.9,57.8,29.9z M45.8,30.9
	c-0.6,0-1.2,0.5-1.2,1.1c0,1.3,1.9,0.8,1.9,2c0,0.5-0.4,0.8-0.9,0.8c-0.3,0-0.6-0.1-1-0.4v0.4c0.4,0.2,0.7,0.3,1,0.3
	c0.7,0,1.2-0.5,1.2-1.1c0-1.4-1.9-0.9-1.9-2c0-0.4,0.4-0.8,0.9-0.8c0.3,0,0.5,0.1,0.9,0.3v-0.3C46.4,31,46.1,30.9,45.8,30.9z
	 M53.1,31L51.3,35h0.3l0.6-1.4h2l0.6,1.4h0.3L53.3,31H53.1z M63.3,31L61.4,35h0.3l0.6-1.4h2L65,35h0.3L63.4,31H63.3z M29.8,31v4h1.5
	c1.6,0,2.2-1.1,2.2-2c0-0.9-0.5-2-2.2-2H29.8z M35,31v4h2.3v-0.3h-2v-1.7h1.8v-0.3h-1.8v-1.6h1.9V31H35z M41.1,31v4h2.3v-0.3h-1.9
	v-1.7h1.8v-0.3h-1.8v-1.6h1.9V31H41.1z M48.4,31v4h0.3v-1.9h0.8c1,0,1.4-0.6,1.4-1.1c0-0.6-0.4-1.1-1.3-1.1H48.4z M56.5,31v4h0.3
	v-3.5l3.1,3.5h0.3v-4h-0.3v3.5L56.7,31H56.5z M30.1,31.3h1.1c1.1,0,1.8,0.7,1.8,1.8c0,1.1-0.9,1.8-1.8,1.8h-1.1V31.3z M48.7,31.3
	h0.8c0.7,0,1,0.4,1,0.8c0,0.5-0.3,0.8-1,0.8h-0.8V31.3z M53.2,31.5l0.9,1.9h-1.7L53.2,31.5z M63.3,31.5l0.9,1.9h-1.7L63.3,31.5z"/>
</svg>
