<?xml version="1.0" encoding="utf-8"?>
<!-- Generator: Adobe Illustrator 26.0.1, SVG Export Plug-In . SVG Version: 6.00 Build 0)  -->
<svg version="1.1" id="Layer_1" xmlns="http://www.w3.org/2000/svg" xmlns:xlink="http://www.w3.org/1999/xlink" x="0px" y="0px"
	 viewBox="0 0 95 35" style="enable-background:new 0 0 95 35;" xml:space="preserve">
<style type="text/css">
	.st0{fill:#343741;}
</style>
<g>
	<path class="st0" d="M76.1,19.5c-0.5-2.5,1.9-5.4,4.8-6.2c3.4-0.7,6.3,0.6,6.8,3.2c0.4,2.6-1.6,5.3-4.9,6
		C79.6,23.1,76.6,22,76.1,19.5L76.1,19.5z M80.5,16.4c-1.1,1.3-1.4,3-0.7,3.8c0.8,0.8,2.3,0.4,3.5-0.9c1.1-1.3,1.4-3,0.7-3.8
		C83.2,14.7,81.6,15.1,80.5,16.4z M64.6,15.9c0-0.3-0.2-0.6-0.5-0.8c-0.3-0.2-0.8-0.3-1.3-0.3h-0.6l-0.6,2.7H62
		c0.8,0,1.5-0.1,1.9-0.4C64.4,16.8,64.6,16.4,64.6,15.9L64.6,15.9z M58,22.3c0,0-0.9,0-0.8-0.8l1.6-7.3c0.1-0.4,0.5-0.8,0.9-0.8h3.8
		c0.7,0,1.3,0,1.8,0.1c0.5,0.1,1,0.2,1.4,0.4c0.4,0.2,0.7,0.4,0.9,0.7c0.2,0.3,0.3,0.8,0.4,1.2c0.1,1-0.4,1.9-1.4,2.5
		c-1,0.6-2.4,0.9-4.3,0.9h-1l-0.7,3.1L58,22.3z M43.5,15.8c0-0.4-0.2-0.6-0.5-0.8c-0.3-0.2-0.7-0.2-1.2-0.2H41l-0.5,2.4h0.8
		c0.7,0,1.3-0.1,1.7-0.4C43.4,16.6,43.5,16.3,43.5,15.8L43.5,15.8z M39.4,22.3h-2.5c-0.2,0-0.8-0.1-0.7-0.8l1.6-7.3
		c0.1-0.4,0.5-0.8,0.9-0.8h4.3c0.6,0,1.2,0,1.6,0.1c0.5,0.1,0.9,0.2,1.2,0.4c0.3,0.2,0.6,0.3,0.8,0.7c0.2,0.4,0.3,0.6,0.3,1
		c0.1,1-0.4,1.7-1.3,2.3c-0.8,0.4-2,0.5-2.3,0.5c0,0-0.3,0.1,0,0.1c0,0,0.4,0.1,0.7,0.4c0.7,0.6,1.2,1.1,2.8,3.3h-3.8
		c0,0-0.7-1.3-2-3.3c-0.3-0.4-0.8-0.4-1-0.4L39.4,22.3z M91.9,20.6H95l-0.2,1c-0.1,0.4-0.5,0.7-0.9,0.7h-4.8c-0.2,0-0.8-0.1-0.7-0.8
		l1.6-7.3c0.1-0.4,0.5-0.8,0.9-0.8h2.7L91.9,20.6z M52.2,17.1h4L56,18c-0.1,0.4-0.5,0.8-0.9,0.8h-3.3l-0.4,1.8h4l-0.2,1
		c-0.1,0.4-0.5,0.7-0.9,0.7h-5.8c-0.2,0-0.8-0.1-0.7-0.8l1.6-7.3c0.1-0.4,0.5-0.8,0.9-0.8H57l-0.2,0.9c-0.1,0.4-0.5,0.8-0.9,0.8
		h-3.3L52.2,17.1z M76.9,13.5l-0.2,0.9c-0.1,0.4-0.4,0.7-0.9,0.8h-0.2c-1.9,0-2,0.5-2.4,2.3l-0.5,2.1c-0.6,2.7-3,2.7-3.2,2.7h-4.8
		l0.2-0.9c0.1-0.5,0.5-0.7,0.9-0.8h1.2c1.9,0,2-0.5,2.4-2.3l0.5-2.1c0.6-2.7,3.5-2.7,3.9-2.7L76.9,13.5z"/>
	<g>
		<path class="st0" d="M29.8,17.8v3.4c-0.2,0-0.4,0-0.5,0l-0.1,0c-0.4,0-0.8-0.1-0.8-0.1c0,0,0,0,0,0c0,0-0.2,0-0.4,0
			c-0.1,0-0.2,0-0.3,0c0,0-0.1,0-0.1,0c-0.2,0-0.4,0.1-0.7,0.1c-0.2,0-0.4,0-0.5-0.1l-0.1,0c0,0-0.1,0-0.2-0.1
			c-0.2-0.1-0.4-0.2-0.7-0.2c0,0-0.1,0-0.1,0c-0.1,0-0.6,0.1-0.6,0.1c-0.1,0-0.2,0-0.2,0c-0.1,0-0.1,0-0.2,0c-0.1,0-0.2,0-0.3,0
			c-0.1,0-0.1,0-0.2,0l-0.1,0c0,0,0,0-0.1,0c0,0-0.1,0-0.1,0c-0.1,0-0.2,0-0.3,0c-0.2,0-0.3,0-0.5,0.1c0,0-0.3,0-0.4,0.1
			c-0.2,0-0.4,0-0.5,0.1c0,0-0.1,0-0.1,0c-0.1,0-0.2,0-0.3-0.1c-0.1,0-0.2-0.1-0.3-0.1c0,0-0.1,0-0.1,0c-0.2,0-0.3,0.1-0.4,0.1
			c-0.1,0-0.2,0-0.3,0.1c-0.1,0.1-0.3,0.1-0.5,0.1c0,0-0.1,0-0.1,0c-0.1,0-0.2,0-0.3,0c-0.1,0-0.2,0-0.4,0c-0.2,0-0.4,0-0.6-0.1
			c-0.1,0-0.4-0.1-0.7-0.1c-0.4,0-0.6-0.1-0.7-0.1c-0.2-0.1-0.6-0.2-0.8-0.2l-0.1,0c0,0-0.1,0-0.1,0c-0.2,0-0.4,0.1-0.6,0.1
			c-0.1,0.1-0.3,0.1-0.4,0.1c0,0-0.1,0-0.1,0c-0.1,0-0.2,0-0.3,0c-0.1,0-0.2,0-0.3,0c0,0,0,0,0,0c-0.1,0-0.3,0-0.5,0.1
			c-0.2,0.1-0.4,0.1-0.6,0.1c0,0,0,0,0,0c-0.3,0-0.5-0.1-0.8-0.1c-0.2,0-0.3-0.1-0.4-0.1c0,0-0.1,0-0.1,0c-0.1,0-0.1,0-0.2,0
			c-0.1,0-0.1,0-0.2,0c-0.1,0-0.2,0-0.4,0c-0.1,0-0.1,0-0.2,0l-0.1,0c-0.2,0-0.3,0-0.4-0.1c-0.3-0.1-1-0.1-1-0.1c-0.1,0-0.1,0-0.2,0
			c-0.1,0-0.2,0-0.3,0c-0.2,0-0.4,0-0.6,0.1c-0.3,0.1-0.4,0.1-0.6,0.1l-0.1,0l-0.1,0c-0.1,0-0.2,0-0.4,0c-0.1,0-0.2,0-0.3,0l-0.1,0
			l-0.1,0c-0.1,0-0.1,0-0.2,0c-0.3,0-0.3,0-0.6,0.1l-0.3,0.1c0,0-0.1,0-0.1,0c-0.1,0-0.3,0-0.4,0c-0.2-1-0.2-2.3,0-3.5H29.8
			 M30.1,17.5H5c-0.3,1.3-0.3,2.8,0,4l0,0c0,0,0.3,0.1,0.6,0.1c0.1,0,0.1,0,0.2,0c0.6-0.1,0.5-0.1,0.9-0.1c0,0,0.1,0,0.1,0
			c0,0,0.1,0,0.1,0c0.1,0,0.2,0,0.3,0c0.2,0,0.3,0,0.5,0c0.3,0,0.4,0,0.7-0.1c0.2-0.1,0.3-0.1,0.5-0.1c0.2,0,0.4,0,0.6,0
			c0.2,0,0.8,0,0.9,0.1c0.2,0.1,0.4,0.1,0.5,0.1c0,0,0.1,0,0.1,0c0.1,0,0.1,0,0.2,0c0.1,0,0.3,0,0.4,0c0,0,0,0,0,0
			c0.1,0,0.3,0,0.4,0c0,0,0,0,0.1,0c0.3,0,0.7,0.2,1.2,0.2c0,0,0,0,0,0c0.3,0,0.8-0.2,1.1-0.2c0,0,0,0,0,0c0.2,0,0.4,0,0.6,0
			c0,0,0.1,0,0.1,0c0.4,0,0.6-0.3,1-0.3c0,0,0.1,0,0.1,0c0.1,0,0.5,0,0.7,0.2c0.1,0.1,0.5,0.1,0.8,0.2c0.3,0,0.6,0.1,0.7,0.1
			c0.2,0.1,0.5,0.1,0.7,0.1c0,0,0,0,0.1,0c0.1,0,0.2,0,0.3,0c0.2,0,0.3,0,0.4,0c0,0,0,0,0.1,0c0.3,0,0.6-0.2,0.7-0.2
			c0.1,0,0.2-0.1,0.4-0.1c0,0,0.1,0,0.1,0c0.2,0,0.4,0.1,0.6,0.1c0,0,0.1,0,0.1,0c0.2,0,0.8-0.1,0.9-0.1c0.2-0.1,0.3-0.1,0.4-0.1
			c0.1,0,0.2,0,0.3,0c0,0,0,0,0,0c0.1,0,0.1,0,0.2,0c0.1,0,0.2,0,0.3,0c0.1,0,0.2,0,0.3,0c0.1,0,0.3-0.1,0.5-0.1
			c0.3,0,0.5-0.1,0.6-0.1c0,0,0.1,0,0.1,0c0.4,0,0.7,0.2,0.9,0.2c0.2,0,0.4,0.1,0.7,0.1c0,0,0,0,0.1,0c0.3,0,0.7-0.1,0.8-0.2
			c0.1,0,0.1,0,0.2,0c0.2,0,0.3,0,0.3,0s0.4,0.1,0.9,0.1c0,0,0.1,0,0.1,0c0.1,0,0.7,0,0.7,0V17.5L30.1,17.5z"/>
	</g>
	<g>
		<g>
			<path class="st0" d="M17.2,7.5c-4.1,0-8.1,2.4-10.4,5.8H0v4.2h25.1C26.2,12,22.7,7.5,17.2,7.5z"/>
		</g>
		<g>
			<path class="st0" d="M22.8,21.3c-0.1,0-0.7,0.1-0.9,0.1c-0.3,0.1-0.6-0.1-0.8-0.1c-0.3,0-0.4,0.1-0.5,0.1c-0.1,0-0.4,0.2-0.7,0.2
				c-0.2,0-0.3,0-0.8,0c-0.2,0-0.5,0-0.7-0.1c-0.1,0-0.4-0.1-0.7-0.1c-0.3,0-0.6-0.1-0.8-0.2c-0.2-0.1-0.6-0.1-0.7-0.2
				c-0.4,0-0.6,0.2-1.1,0.3c-0.3,0-0.5,0-0.8,0c-0.2,0-0.8,0.2-1.1,0.2c-0.5,0-1-0.2-1.2-0.2c-0.1,0-0.3,0-0.4,0c-0.1,0-0.3,0-0.4,0
				c-0.3,0-0.5,0-0.8-0.1c-0.2-0.1-0.7-0.1-0.9-0.1c-0.3,0-0.7-0.1-1,0c-0.4,0.1-0.5,0.1-0.7,0.1c-0.2,0-0.3,0-0.5,0
				c-0.2,0-0.4,0-0.6,0c-0.4,0-0.3,0-0.9,0.1c-0.3,0-0.8-0.1-0.8-0.1c0.8,3.6,3.8,6,7.9,6c4.2,0,8.3-2.6,10.6-6.2
				C23.2,21.2,23.1,21.2,22.8,21.3z"/>
		</g>
	</g>
</g>
</svg>
