<?xml version="1.0" encoding="utf-8"?>
<!-- Generator: Adobe Illustrator 26.0.1, SVG Export Plug-In . SVG Version: 6.00 Build 0)  -->
<svg version="1.1" id="Layer_1" xmlns="http://www.w3.org/2000/svg" xmlns:xlink="http://www.w3.org/1999/xlink" x="0px" y="0px"
	 viewBox="0 0 95 35" style="enable-background:new 0 0 95 35;" xml:space="preserve">
<style type="text/css">
	.st0{fill:#343741;}
	.st1{font-family:'TimesNewRomanPSMT';}
	.st2{font-size:7.2922px;}
</style>
<g>
	<g>
		<text transform="matrix(1 0 0 1 17.7543 17.5224)" class="st0 st1 st2"> </text>
	</g>
	<g>
		<g>
			<path class="st0" d="M95,16.7c0,0.6,0,1.1-0.1,1.5c-0.4-0.1-0.8-0.1-1.4-0.1c-0.4,0-0.8,0.1-1.3,0.1c0,7,0,7,0,7
				c-1.8,0-1.8,0-1.8,0c0-8.1,0-8.1,0-8.1c0.7-0.3,2.1-0.6,3.1-0.6C94,16.6,94.6,16.6,95,16.7z M82.8,20.2c4.2,0,4.2,0,4.2,0
				c0-1.3-0.8-2.1-2.1-2.1C83.7,18.1,83,18.8,82.8,20.2z M88.7,21.7c-5.7,0-5.7,0-5.7,0c0.1,1.5,1,2.2,2.7,2.2c1,0,2-0.3,2.9-0.7
				c-0.1,0.6-0.3,1.1-0.3,1.7c-0.8,0.4-1.8,0.6-2.7,0.6c-3.1,0-4.6-1.7-4.6-4.5c0-2.5,1.3-4.5,4.1-4.5c2.7,0,3.8,1.7,3.8,3.8
				C88.9,20.9,88.7,21.3,88.7,21.7z M77.8,23.4c0-5.2,0-5.2,0-5.2c-0.4,0-1-0.1-1.4-0.1c-1.8,0-2.7,1.1-2.7,3.1
				c0,1.7,0.7,2.8,2.2,2.8C76.7,24,77.2,23.7,77.8,23.4z M79.6,13.8c0,11.4,0,11.4,0,11.4c-1.7,0-1.7,0-1.7,0c-0.1-1-0.1-1-0.1-1
				c-0.4,0.7-1.1,1.3-2.4,1.3c-2.1,0-3.5-1.7-3.5-4.3c0-2.9,1.5-4.6,4.5-4.6c0.6,0,1,0.1,1.4,0.1c0-2.6,0-2.6,0-2.6
				C78.4,13.8,79.1,13.8,79.6,13.8z M70.4,19.8c0,5.4,0,5.4,0,5.4c-1.8,0-1.8,0-1.8,0c0-5.2,0-5.2,0-5.2c0-1.3-0.4-1.9-2.2-1.9
				c-0.4,0-0.8,0.1-1.4,0.1c0,7,0,7,0,7c-1.8,0-1.8,0-1.8,0c0-8.1,0-8.1,0-8.1c1.1-0.3,2.4-0.6,3.4-0.6
				C69.4,16.6,70.4,17.8,70.4,19.8z M59.4,23.4c0-5.2,0-5.2,0-5.2c-0.4,0-0.8-0.1-1.3-0.1c-2,0-2.8,1.3-2.8,3.1
				c0,1.7,0.7,2.8,2.2,2.8C58.2,24,58.9,23.8,59.4,23.4z M61.2,17.1c0,8.1,0,8.1,0,8.1c-1.7,0-1.7,0-1.7,0c-0.1-1-0.1-1-0.1-1
				c-0.4,0.7-1.1,1.3-2.2,1.3c-2.2,0-3.6-1.7-3.6-4.3c0-2.9,1.5-4.6,4.6-4.6C59.2,16.6,60.2,16.7,61.2,17.1z M51.4,24
				c0.6,0,1.1-0.1,1.5-0.3c-0.1,0.4-0.1,1-0.3,1.5c-0.4,0.1-1,0.3-1.5,0.3c-1.7,0-2.8-0.8-2.8-2.8c0-8.6,0-8.6,0-8.6
				c0.6-0.1,1.1-0.3,1.7-0.3c0,3.1,0,3.1,0,3.1c2.9,0,2.9,0,2.9,0c0,0.6-0.1,1.1-0.1,1.5c-2.8,0-2.8,0-2.8,0c0,4,0,4,0,4
				C50,23.6,50.6,24,51.4,24z M46.5,19.8c0,5.4,0,5.4,0,5.4c-1.8,0-1.8,0-1.8,0c0-5.2,0-5.2,0-5.2c0-1.3-0.4-1.9-2.2-1.9
				c-0.4,0-1,0.1-1.5,0.1c0,7,0,7,0,7c-1.8,0-1.8,0-1.8,0c0-8.1,0-8.1,0-8.1c1.3-0.3,2.5-0.6,3.4-0.6C45.5,16.6,46.5,17.8,46.5,19.8
				z M35.3,23.4c0-5.2,0-5.2,0-5.2c-0.3,0-0.7-0.1-1.3-0.1c-1.8,0-2.8,1.3-2.8,3.1c0,1.7,0.7,2.8,2.4,2.8
				C34.3,24,34.9,23.8,35.3,23.4z M37.1,17.1c0,8.1,0,8.1,0,8.1c-1.7,0-1.7,0-1.7,0c0-1,0-1,0-1c-0.6,0.7-1.3,1.3-2.4,1.3
				c-2.1,0-3.6-1.7-3.6-4.3c0-2.9,1.5-4.6,4.6-4.6C35.3,16.6,36.3,16.7,37.1,17.1z M20.8,24.9c0-0.7,0.1-1.1,0.3-1.7
				c1,0.4,2.1,0.6,3.1,0.6c1.5,0,2.4-0.4,2.4-1.4c0-1-0.7-1.4-2.2-2.1c-0.8-0.3-0.8-0.3-0.8-0.3c-1.5-0.7-2.5-1.5-2.5-3.3
				c0-1.8,1.3-3.1,3.9-3.1c1.1,0,2.1,0.1,2.9,0.4c0,0.7-0.1,1.3-0.3,1.7c-0.8-0.3-2-0.4-2.7-0.4c-1.4,0-2.1,0.6-2.1,1.4
				c0,0.8,0.6,1.4,1.8,1.8c0.8,0.4,0.8,0.4,0.8,0.4c2.1,0.8,2.9,1.8,2.9,3.3c0,1.9-1.4,3.2-4.2,3.2C22.7,25.5,21.6,25.4,20.8,24.9z
				 M12.5,16.9c-0.1-0.7-0.3-1.3-0.6-1.8c-2.8-4.8-2.8-4.8-2.8-4.8C9.1,10,8.9,9.6,8.8,9.2c0,0.3,0,0.3,0,0.3
				c-0.7,1.1-0.7,2.5,0,3.8c2.1,3.8,2.1,3.8,2.1,3.8c0.7,1.1,0.7,2.6,0,3.8C10.7,21,10.7,21,10.7,21c0-0.4-0.1-0.8-0.4-1.3
				c-2-3.5-2-3.5-2-3.5c-1.3-2.1-1.3-2.1-1.3-2.1c-0.3-0.4-0.4-0.8-0.4-1.3c-0.1,0.3-0.1,0.3-0.1,0.3c-0.7,1.1-0.7,2.5,0,3.8l0,0
				c2.2,3.8,2.2,3.8,2.2,3.8c0.6,1.3,0.6,2.6,0,3.8c-0.1,0.3-0.1,0.3-0.1,0.3c-0.1-0.4-0.3-0.8-0.4-1.1C5.4,19,5.4,19,5.4,19
				c-0.4-0.7-0.6-1.4-0.6-2.1C2,17.6,0,19.3,0,21.1c0,2.6,3.9,4.8,8.8,4.8c4.8,0,8.7-2.1,8.7-4.8C17.4,19.2,15.5,17.6,12.5,16.9z"/>
		</g>
	</g>
</g>
</svg>
