<?xml version="1.0" encoding="utf-8"?>
<!-- Generator: Adobe Illustrator 26.0.1, SVG Export Plug-In . SVG Version: 6.00 Build 0)  -->
<svg version="1.1" id="Layer_1" xmlns="http://www.w3.org/2000/svg" xmlns:xlink="http://www.w3.org/1999/xlink" x="0px" y="0px"
	 viewBox="0 0 95 35" style="enable-background:new 0 0 95 35;" xml:space="preserve">
<style type="text/css">
	.st0{fill:#FFFFFF;}
</style>
<g>
	<path id="path6791" class="st0" d="M44.8,18.6c0-1.5,0-1.5,0-1.5c0.9,0.3,1.6,0.4,2.3,0.4c0.9,0,1.4-0.2,1.4-0.7
		c0-0.2-0.1-0.3-0.2-0.5c-0.1-0.1-0.5-0.3-1.1-0.5c-1-0.4-1.7-0.8-2-1.1c-0.4-0.4-0.6-0.9-0.6-1.5c0-0.8,0.3-1.3,0.9-1.7
		c0.6-0.4,1.3-0.6,2.2-0.6c0.5,0,1.2,0.1,2,0.2c0.2,0,0.2,0,0.2,0c0,1.5,0,1.5,0,1.5c-0.7-0.3-1.4-0.4-2-0.4c-0.9,0-1.3,0.2-1.3,0.7
		c0,0.2,0.1,0.3,0.3,0.4c0.1,0.1,0.5,0.3,1.2,0.6c0.9,0.4,1.6,0.8,1.9,1.1c0.4,0.4,0.5,0.8,0.5,1.4c0,0.8-0.4,1.5-1.1,1.9
		c-0.6,0.4-1.4,0.5-2.3,0.5C46.4,18.9,45.6,18.8,44.8,18.6 M36.6,18.7V11h2.5l2.6,5.2V11h1.5v7.7h-2.4l-2.7-5.2v5.2H36.6z
		 M29.6,18.7V11h5.5v1.4h-3.4v1.7h3v1.3h-3v1.8h3.5v1.5H29.6z M18.3,18.7V11H21L23,16l2-4.9h2.7v7.7h-2v-5.5l-2.3,5.5H22l-2.2-5.5
		v5.5C19.8,18.7,18.3,18.7,18.3,18.7z M11.2,18.7V11h5.5v1.4h-3.4v1.7h3v1.3h-3v1.8h3.5v1.5C16.9,18.7,11.2,18.7,11.2,18.7z
		 M7.1,18.7h2.1V11H7.1V18.7z M0.1,18.6c0-1.5,0-1.5,0-1.5c0.9,0.3,1.6,0.4,2.3,0.4c0.9,0,1.4-0.2,1.4-0.7c0-0.2-0.1-0.3-0.2-0.5
		c-0.1-0.1-0.5-0.3-1.1-0.5c-1-0.4-1.7-0.8-2-1.1C0.2,14.3,0,13.8,0,13.2c0-0.8,0.3-1.3,0.9-1.7c0.6-0.4,1.3-0.6,2.2-0.6
		c0.5,0,1.2,0.1,2.2,0.3c0,1.5,0,1.5,0,1.5c-0.7-0.3-1.4-0.4-2-0.4c-0.9,0-1.3,0.2-1.3,0.7c0,0.2,0.1,0.3,0.3,0.4
		c0.1,0.1,0.5,0.3,1.2,0.6c1,0.4,1.6,0.8,1.9,1.1c0.4,0.4,0.5,0.8,0.5,1.4c0,0.8-0.4,1.5-1.1,1.9c-0.6,0.4-1.4,0.5-2.3,0.5
		C1.7,18.9,1,18.8,0.1,18.6"/>
	<path id="path6803" class="st0" d="M84.2,15.4c-3.5,0-3.5,0-3.5,0c0,0.5,0,0.8,0,0.9c0,0.4,0,0.7,0.1,0.9c0.1,0.6,0.6,1.1,1.4,1.1
		c1.8,0,1.8,0,1.8,0c0,0.4,0,0.4,0,0.4c-2.8,0-2.8,0-2.8,0c-0.5,0-1-0.2-1.4-0.5c-0.4-0.3-0.7-0.7-0.8-1.3c-0.1-0.4-0.1-0.9-0.1-1.6
		c0.1-2,0.8-3,2-3.1c0.2,0,0.4,0,0.8,0c0.3,0,0.5,0,0.7,0C83.7,12.5,84.2,13.5,84.2,15.4 M83,14.9c0-0.3,0-0.6,0-0.8
		c0-0.4-0.1-0.7-0.3-1c-0.2-0.3-0.5-0.4-0.8-0.4c-0.7,0-1.1,0.7-1.1,2.2L83,14.9L83,14.9z M85.5,18.7c0.8,0,0.8,0,0.8,0
		c0.2,0,0.2,0,0.2,0c0,0,0,0,0,0c0.3,0,0.3,0,0.3,0c0.3,0,0.3,0,0.3,0c1.7,0,2.1-0.9,2-1.7c-0.1-1.1-0.9-1.6-1.6-2
		c-0.7-0.5-1.4-0.8-1.3-1.5c0.1-0.4,0.4-0.7,0.8-0.8c0.2,0,0.3,0,0.5,0c1.3,0,1.3,0,1.3,0c0.3,0,0.3,0,0.3,0
		c0.1-0.4,0.1-0.4,0.1-0.4c-0.4,0-0.4,0-0.4,0c-1.9,0-1.9,0-1.9,0c-1.5,0-2.1,0.9-2.1,1.8c0,0.3,0.1,0.6,0.2,0.8
		c0.6,1.2,2.5,1.2,2.3,2.5c0,0.5-0.4,0.9-1.5,0.9c-1.3,0-1.3,0-1.3,0c0,0.4,0,0.4,0,0.4 M95,18.7c-0.1-0.2-0.1-0.5-0.2-0.7
		c0,0,0-0.1,0-0.1c0,0,0-0.1,0-0.1l0,0c0-1.1,0-2,0-2.7c0-0.5,0-0.9,0-1.3l0,0c0-0.4-0.1-0.8-0.3-1c-0.2-0.2-0.5-0.4-0.9-0.4
		c-3.1,0-3.1,0-3.1,0c0,0.4,0,0.4,0,0.4c1.9,0,1.9,0,1.9,0l0,0c0.5,0,0.7,0.2,0.8,0.5c0.1,0.3,0.1,0.7,0,1.1c0,0.1,0,0.1,0,0.1
		c-0.1,0-0.1,0-0.1,0c-1,0-1.8,0.1-2.4,0.4c-0.6,0.2-1,0.6-1.2,1.1l0,0c-0.3,0.5-0.2,1.4,0.1,2c0.1,0.1,0.1,0.2,0.2,0.3
		c0.1,0.1,0.2,0.2,0.3,0.3l0,0c0.2,0.1,0.3,0.2,0.5,0.2c0.5,0.1,1.5,0.1,1.9,0c0.3,0,0.5-0.1,0.6-0.2c0.1,0,0.1,0,0.1,0
		c0,0.1,0,0.1,0,0.1c0,0.1,0,0.1,0,0.1 M94.8,17.7C94.8,17.7,94.8,17.7,94.8,17.7 M93.3,14.7L93.3,14.7
		C93.4,14.7,93.4,14.7,93.3,14.7c0.1,0.1,0.1,0.1,0.1,0.1c-0.1,2.3-0.1,2.3-0.1,2.3c0,0.2-0.1,0.4-0.2,0.6c0,0,0,0-0.1,0.1
		c0,0,0,0.1-0.1,0.1c0,0,0,0,0,0l0,0c-0.1,0.1-0.2,0.1-0.3,0.2c0,0,0,0-0.1,0c-0.1,0-0.3,0.1-0.5,0.1c-0.3,0-0.5,0-0.7-0.2
		c-0.2-0.1-0.3-0.3-0.4-0.5c-0.1-0.6-0.1-1.3,0.2-1.9c0.1-0.1,0.1-0.2,0.2-0.3c0.1-0.1,0.2-0.2,0.3-0.2l0,0l0,0l0,0
		c0.2-0.1,0.4-0.2,0.6-0.2c0,0,0.1,0,0.1,0C92.7,14.7,93,14.7,93.3,14.7 M59.7,10.6c3.5,0,3.5,0,3.5,0c0-0.7,0-0.7,0-0.7
		c-3.9,0-3.9,0-3.9,0c-0.9,0-1.9,0.2-2.7,0.8c-0.2,0.1-0.3,0.2-0.5,0.4c-0.2,0.1-0.3,0.3-0.5,0.5v0c-0.6,0.8-0.9,1.7-0.9,2.7
		c0,0.2,0,0.4,0,0.6c0,0.2,0,0.4,0.1,0.6c0.1,0.5,0.2,0.9,0.5,1.3c0.2,0.4,0.5,0.7,0.8,1c0.4,0.3,0.9,0.7,1.3,0.8
		c0.4,0.1,0.9,0.1,1.3,0.1c0,0,3.4,0,4.5,0c0-0.9,0-1.7,0-2.3c0-0.5,0-0.9,0-1.2l0,0c0-0.4-0.1-0.7-0.3-1c-0.2-0.2-0.5-0.4-1-0.4
		c-0.4,0-0.4,0-0.4,0c-1.4,0-1.4,0-1.4,0c0,0.3,0,0.3,0,0.3c0.7,0,0.7,0,0.7,0l0,0c0.4,0,0.7,0.2,0.8,0.4c0.1,0.2,0.1,0.6,0.1,1
		c0,0.4,0,0.7,0,1c0,0.2,0,0.6,0,1c0,0.1,0,0.1,0,0.1c-0.1,0-0.1,0-0.1,0c-2.4,0-2.4,0-2.4,0c-0.1,0-0.1,0-0.1,0l0,0
		c-0.2,0-0.2,0-0.2,0l0,0c0,0-0.1,0-0.2,0c-0.6-0.1-1.1-0.4-1.5-1c-0.4-0.5-0.6-1.2-0.7-2c0-0.1,0-0.3,0-0.4c0-1.5,0.5-2.7,1.6-3.3
		c0.2-0.1,0.4-0.2,0.7-0.3C59.1,10.6,59.4,10.6,59.7,10.6C59.6,10.6,59.7,10.6,59.7,10.6 M55.6,11.6L55.6,11.6L55.6,11.6L55.6,11.6
		 M55.6,11.6C55.6,11.6,55.6,11.6,55.6,11.6L55.6,11.6z M55.6,11.6L55.6,11.6z M55.6,11.6L55.6,11.6z M69.5,18.7
		c-0.1-0.3-0.1-0.5-0.2-0.7c0,0,0-0.1,0-0.1c0,0,0-0.1,0-0.1l0,0c-0.1-1.1,0-2,0-2.7c0-0.5,0-0.9,0-1.3l0,0c0-0.4-0.1-0.8-0.3-1
		c-0.2-0.2-0.5-0.4-0.9-0.4c-0.4,0-0.4,0-0.4,0c-2.6,0-2.6,0-2.6,0c0,0.3,0,0.3,0,0.3c1.9,0,1.9,0,1.9,0l0,0c0.5,0,0.7,0.2,0.8,0.5
		c0.1,0.3,0.1,0.7,0,1.1c0,0.1,0,0.1,0,0.1c-0.1,0-0.1,0-0.1,0c-1,0-1.8,0.1-2.4,0.4c-0.6,0.2-1,0.6-1.2,1.1l0,0
		c-0.2,0.5-0.2,1.4,0.2,2c0.1,0.1,0.1,0.2,0.2,0.3c0.1,0.1,0.2,0.2,0.3,0.3l0,0c0.2,0.1,0.3,0.2,0.5,0.2c0.5,0.1,1.5,0.1,1.9,0
		c0.3,0,0.5-0.1,0.6-0.2c0.1,0,0.1,0,0.1,0c0,0.1,0,0.1,0,0.1c0,0.1,0,0.1,0,0.1C68.6,18.7,69.1,18.7,69.5,18.7 M69.3,17.7
		L69.3,17.7L69.3,17.7z M69.3,17.7C69.3,17.7,69.3,17.7,69.3,17.7 M67.8,14.7L67.8,14.7c0.1,0,0.1,0,0.1,0c0,0.1,0,0.1,0,0.1
		c0,2.3,0,2.3,0,2.3c0,0.2-0.1,0.4-0.2,0.6c0,0,0,0-0.1,0.1c0,0,0,0.1-0.1,0.1l0,0c0,0,0,0,0,0l0,0l0,0c-0.1,0.1-0.2,0.1-0.3,0.2
		c0,0,0,0-0.1,0c-0.1,0-0.3,0.1-0.5,0.1c-0.3,0-0.5,0-0.7-0.2c-0.2-0.1-0.3-0.3-0.4-0.5c-0.1-0.6-0.1-1.3,0.2-1.9
		c0.1-0.1,0.1-0.2,0.2-0.3c0.1-0.1,0.2-0.2,0.3-0.2l0,0l0,0c0.2-0.1,0.4-0.2,0.6-0.2c0,0,0.1,0,0.1,0C67.2,14.7,67.5,14.7,67.8,14.7
		 M70.5,18.7c0.1-2.1,0.1-4.3,0-6.4c1.6,0,1.6,0,1.6,0c0,0.9,0,0.9,0,0.9c0.4-1,2.4-1.4,3.2-0.1c0.2-0.5,0.8-0.8,1.8-0.8
		c0.7,0.1,1.2,0.3,1.2,1.1c0,4,0,4,0,4c0,0.5,0.1,0.9,0.2,1.3c-1.6,0-1.6,0-1.6,0c0-4.6,0-4.6,0-4.6c0-0.7-0.4-1.1-0.9-1
		c-0.6,0-0.8,0.4-0.8,1c0,4.6,0,4.6,0,4.6c-1.4,0-1.4,0-1.4,0c0-4.6,0-4.6,0-4.6c0-0.5-0.2-1-0.8-1c-0.5,0-0.9,0.4-0.8,1.1
		C72,18.7,72,18.7,72,18.7"/>
	<path id="path6805" class="st0" d="M29.9,25.1c0-1.1,0-1.1,0-1.1c0.4,0,0.4,0,0.4,0c0.1,0,0.1,0,0.2,0c0,0,0.1,0,0.1,0.1
		c0,0,0.1,0.1,0.2,0.2c0.1,0.1,0.1,0.2,0.2,0.3c0.3,0.5,0.3,0.5,0.3,0.5c0.4,0,0.4,0,0.4,0c-0.5-0.7-0.5-0.7-0.5-0.7
		c-0.1-0.1-0.2-0.2-0.3-0.3c0,0-0.1-0.1-0.2-0.1c0.2,0,0.4-0.1,0.5-0.2c0.1-0.1,0.2-0.3,0.2-0.5c0-0.1,0-0.3-0.1-0.4
		c-0.1-0.1-0.2-0.2-0.3-0.2c-0.1,0-0.3-0.1-0.5-0.1c-1.1,0-1.1,0-1.1,0c0,2.5,0,2.5,0,2.5H29.9L29.9,25.1z M29.9,22.8
		c0.8,0,0.8,0,0.8,0c0.2,0,0.3,0,0.4,0.1c0.1,0.1,0.1,0.2,0.1,0.3c0,0.1,0,0.2-0.1,0.2c0,0.1-0.1,0.1-0.2,0.1c-0.1,0-0.2,0-0.4,0
		c-0.7,0-0.7,0-0.7,0V22.8L29.9,22.8z M35.9,25.1c0-0.3,0-0.3,0-0.3c-1.6,0-1.6,0-1.6,0c0-0.9,0-0.9,0-0.9c1.4,0,1.4,0,1.4,0
		c0-0.3,0-0.3,0-0.3c-1.4,0-1.4,0-1.4,0c0-0.8,0-0.8,0-0.8c1.5,0,1.5,0,1.5,0c0-0.3,0-0.3,0-0.3c-1.8,0-1.8,0-1.8,0
		c0,2.5,0,2.5,0,2.5H35.9z M38.5,25.1c0-2,0-2,0-2c1.3,2,1.3,2,1.3,2c0.3,0,0.3,0,0.3,0c0-2.5,0-2.5,0-2.5c-0.3,0-0.3,0-0.3,0
		c0,2,0,2,0,2c-1.3-2-1.3-2-1.3-2c-0.4,0-0.4,0-0.4,0c0,2.5,0,2.5,0,2.5H38.5z M44.5,25.1c0-0.3,0-0.3,0-0.3c-1.6,0-1.6,0-1.6,0
		c0-0.9,0-0.9,0-0.9c1.4,0,1.4,0,1.4,0c0-0.3,0-0.3,0-0.3c-1.4,0-1.4,0-1.4,0c0-0.8,0-0.8,0-0.8c1.5,0,1.5,0,1.5,0
		c0-0.3,0-0.3,0-0.3c-1.8,0-1.8,0-1.8,0c0,2.5,0,2.5,0,2.5H44.5z M47.6,25.1c0.5-1.9,0.5-1.9,0.5-1.9c0-0.1,0-0.2,0.1-0.3
		c0,0,0,0.1,0.1,0.3c0.5,1.9,0.5,1.9,0.5,1.9c0.3,0,0.3,0,0.3,0c0.7-2.5,0.7-2.5,0.7-2.5c-0.3,0-0.3,0-0.3,0
		c-0.4,1.6-0.4,1.6-0.4,1.6c0,0.2-0.1,0.4-0.1,0.5c0-0.3-0.1-0.6-0.2-0.9c-0.4-1.3-0.4-1.3-0.4-1.3c-0.4,0-0.4,0-0.4,0
		c-0.5,1.7-0.5,1.7-0.5,1.7c0,0,0,0.2-0.1,0.5c0-0.2-0.1-0.3-0.1-0.5c-0.4-1.7-0.4-1.7-0.4-1.7c-0.3,0-0.3,0-0.3,0
		c0.7,2.5,0.7,2.5,0.7,2.5L47.6,25.1L47.6,25.1z M51.9,25.1c0.3-0.8,0.3-0.8,0.3-0.8c1.1,0,1.1,0,1.1,0c0.3,0.8,0.3,0.8,0.3,0.8
		c0.4,0,0.4,0,0.4,0c-1.1-2.5-1.1-2.5-1.1-2.5c-0.4,0-0.4,0-0.4,0c-1,2.5-1,2.5-1,2.5H51.9L51.9,25.1z M52.6,23.3
		c0.1-0.2,0.1-0.3,0.1-0.5c0,0.1,0.1,0.3,0.2,0.5c0.3,0.7,0.3,0.7,0.3,0.7c-0.9,0-0.9,0-0.9,0L52.6,23.3z M57,25.1
		c0.2,0,0.3,0,0.4,0c0.1,0,0.2-0.1,0.3-0.1c0.1-0.1,0.1-0.1,0.2-0.2c0-0.1,0.1-0.2,0.1-0.3c0-0.2,0-0.3-0.1-0.4
		c-0.1-0.1-0.2-0.2-0.4-0.2c0.1-0.1,0.2-0.1,0.3-0.2c0-0.1,0.1-0.2,0.1-0.3c0-0.1,0-0.2-0.1-0.3c-0.1-0.1-0.2-0.2-0.3-0.2
		c-0.1,0-0.3-0.1-0.5-0.1c-1,0-1,0-1,0c0,2.5,0,2.5,0,2.5L57,25.1L57,25.1z M56.4,22.9c0.5,0,0.5,0,0.5,0c0.2,0,0.3,0,0.4,0
		c0.1,0,0.1,0.1,0.2,0.1c0,0.1,0.1,0.1,0.1,0.2c0,0.1,0,0.2-0.1,0.2c0,0.1-0.1,0.1-0.2,0.1c-0.1,0-0.2,0-0.3,0c-0.5,0-0.5,0-0.5,0
		L56.4,22.9L56.4,22.9z M56.4,23.9c0.6,0,0.6,0,0.6,0c0.2,0,0.3,0,0.4,0c0.1,0,0.2,0.1,0.2,0.1c0,0.1,0.1,0.2,0.1,0.3
		c0,0.1,0,0.1,0,0.2c0,0.1-0.1,0.1-0.1,0.1c0,0-0.1,0.1-0.2,0.1c0,0-0.1,0-0.2,0c-0.6,0-0.6,0-0.6,0V23.9L56.4,23.9z M61.8,25.1
		c0-0.3,0-0.3,0-0.3c-1.3,0-1.3,0-1.3,0c0-2.2,0-2.2,0-2.2c-0.3,0-0.3,0-0.3,0c0,2.5,0,2.5,0,2.5H61.8z M66,25.1c0-0.3,0-0.3,0-0.3
		c-1.6,0-1.6,0-1.6,0c0-0.9,0-0.9,0-0.9c1.4,0,1.4,0,1.4,0c0-0.3,0-0.3,0-0.3c-1.4,0-1.4,0-1.4,0c0-0.8,0-0.8,0-0.8
		c1.5,0,1.5,0,1.5,0c0-0.3,0-0.3,0-0.3c-1.8,0-1.8,0-1.8,0c0,2.5,0,2.5,0,2.5H66L66,25.1z M73,25.1c0-0.3,0-0.3,0-0.3
		c-1.6,0-1.6,0-1.6,0c0-0.9,0-0.9,0-0.9c1.4,0,1.4,0,1.4,0c0-0.3,0-0.3,0-0.3c-1.4,0-1.4,0-1.4,0c0-0.8,0-0.8,0-0.8
		c1.5,0,1.5,0,1.5,0c0-0.3,0-0.3,0-0.3c-1.8,0-1.8,0-1.8,0c0,2.5,0,2.5,0,2.5H73L73,25.1z M75.6,25.1c0-2,0-2,0-2c1.3,2,1.3,2,1.3,2
		c0.3,0,0.3,0,0.3,0c0-2.5,0-2.5,0-2.5c-0.3,0-0.3,0-0.3,0c0,2,0,2,0,2c-1.3-2-1.3-2-1.3-2c-0.4,0-0.4,0-0.4,0c0,2.5,0,2.5,0,2.5
		H75.6L75.6,25.1z M81.6,25.1c0-0.3,0-0.3,0-0.3c-1.6,0-1.6,0-1.6,0c0-0.9,0-0.9,0-0.9c1.4,0,1.4,0,1.4,0c0-0.3,0-0.3,0-0.3
		c-1.4,0-1.4,0-1.4,0c0-0.8,0-0.8,0-0.8c1.5,0,1.5,0,1.5,0c0-0.3,0-0.3,0-0.3c-1.8,0-1.8,0-1.8,0c0,2.5,0,2.5,0,2.5H81.6z
		 M84.2,25.1c0-1.1,0-1.1,0-1.1c0.4,0,0.4,0,0.4,0c0.1,0,0.1,0,0.2,0c0,0,0.1,0,0.1,0.1c0,0,0.1,0.1,0.2,0.2
		c0.1,0.1,0.1,0.2,0.2,0.3c0.3,0.5,0.3,0.5,0.3,0.5c0.4,0,0.4,0,0.4,0c-0.5-0.7-0.5-0.7-0.5-0.7c-0.1-0.1-0.2-0.2-0.3-0.3
		c0,0-0.1-0.1-0.2-0.1c0.2,0,0.4-0.1,0.5-0.2c0.1-0.1,0.2-0.3,0.2-0.5c0-0.1,0-0.3-0.1-0.4c-0.1-0.1-0.2-0.2-0.3-0.2
		c-0.1,0-0.3-0.1-0.5-0.1c-1.1,0-1.1,0-1.1,0c0,2.5,0,2.5,0,2.5H84.2L84.2,25.1z M84.2,22.8c0.8,0,0.8,0,0.8,0c0.2,0,0.3,0,0.4,0.1
		c0.1,0.1,0.1,0.2,0.1,0.3c0,0.1,0,0.2-0.1,0.2c0,0.1-0.1,0.1-0.2,0.1c-0.1,0-0.2,0-0.4,0c-0.7,0-0.7,0-0.7,0V22.8L84.2,22.8z
		 M90.2,24.1c0,0.5,0,0.5,0,0.5c-0.1,0.1-0.2,0.1-0.3,0.2c-0.1,0-0.3,0.1-0.4,0.1c-0.2,0-0.3,0-0.5-0.1c-0.1-0.1-0.3-0.2-0.3-0.3
		c-0.1-0.1-0.1-0.3-0.1-0.6c0-0.2,0-0.4,0.1-0.5c0-0.1,0.1-0.2,0.1-0.2c0.1-0.1,0.2-0.1,0.3-0.2c0.1,0,0.2-0.1,0.4-0.1
		c0.1,0,0.2,0,0.3,0.1c0.1,0,0.2,0.1,0.2,0.2c0.1,0.1,0.1,0.2,0.1,0.3c0.3-0.1,0.3-0.1,0.3-0.1c0-0.2-0.1-0.3-0.2-0.4
		c-0.1-0.1-0.2-0.2-0.3-0.2c-0.2-0.1-0.3-0.1-0.5-0.1c-0.3,0-0.5,0.1-0.7,0.2c-0.2,0.1-0.3,0.3-0.4,0.5c-0.1,0.2-0.2,0.4-0.2,0.7
		c0,0.3,0,0.5,0.2,0.7c0.1,0.2,0.3,0.4,0.5,0.5c0.2,0.1,0.4,0.2,0.7,0.2c0.2,0,0.4,0,0.5-0.1c0.2-0.1,0.3-0.2,0.5-0.3
		c0-0.9,0-0.9,0-0.9c-1.1,0-1.1,0-1.1,0c0,0.3,0,0.3,0,0.3S90.2,24.1,90.2,24.1z M93.9,25.1c0-1.1,0-1.1,0-1.1c1-1.5,1-1.5,1-1.5
		c-0.4,0-0.4,0-0.4,0c-0.5,0.7-0.5,0.7-0.5,0.7c-0.1,0.2-0.2,0.3-0.3,0.5c-0.1-0.1-0.2-0.3-0.3-0.4C93,22.6,93,22.6,93,22.6
		c-0.4,0-0.4,0-0.4,0c1,1.5,1,1.5,1,1.5c0,1.1,0,1.1,0,1.1H93.9L93.9,25.1z"/>
</g>
</svg>
