<?xml version="1.0" encoding="utf-8"?>
<!-- Generator: Adobe Illustrator 26.0.1, SVG Export Plug-In . SVG Version: 6.00 Build 0)  -->
<svg version="1.1" id="Layer_1" xmlns="http://www.w3.org/2000/svg" xmlns:xlink="http://www.w3.org/1999/xlink" x="0px" y="0px"
	 viewBox="0 0 95 35" style="enable-background:new 0 0 95 35;" xml:space="preserve">
<style type="text/css">
	.st0{fill:#CCCCCC;}
</style>
<g>
	<path class="st0" d="M95,29.8c0,0-0.1,0-0.1,0c-0.3,0.1-0.6,0.1-0.9,0.1C94.3,29.9,94.7,29.9,95,29.8z"/>
	<path class="st0" d="M94.9,29.8c-0.9-0.2-1.8-0.1-2.8-0.2c-2.6-0.1-5.2-0.1-7.8-0.2c-0.5,0-0.9,0-1.4,0c-1.6,0-3.3-0.1-4.9-0.1
		c-0.7,0-1.4,0-2.1,0c-2.5,0-5-0.1-7.5-0.1c-1.8,0-3.6,0-5.4,0c-2.3,0-4.6,0-7,0c-1.4,0-2.8,0-4.2,0c-2.8,0-5.7,0-8.5,0
		c-1.7,0-3.3,0-5,0c-1.4,0-2.8,0-4.1,0c-2.5,0-5.1,0-7.6,0c-7,0-13.9,0.1-20.9,0.3c-1.9,0.1-3.8,0.1-5.7,0.3v0.1
		c1.8,0.2,3.6,0.2,5.4,0.3c8.8,0.2,17.6,0.3,26.5,0.3c1.9,0,3.8,0,5.8,0l0,0l0.2,0.1h4h15.4l-0.2-0.1l0.2,0c1.7,0,3.4,0,5.1,0
		c7.5,0,15.1-0.1,22.6-0.2c2.9-0.1,5.7-0.1,8.6-0.2c0,0,0,0,0,0c0.1,0,0.2,0,0.4,0C94.3,29.9,94.6,29.9,94.9,29.8
		C94.9,29.8,94.9,29.8,94.9,29.8C94.9,29.8,94.9,29.8,94.9,29.8z M12.3,29.5c-0.3,0-0.6,0-0.8,0C11.8,29.5,12,29.5,12.3,29.5
		c0.5,0,1,0,1.5,0C13.4,29.5,12.8,29.5,12.3,29.5z M73.5,29.4c-1.3,0-2.5,0-3.8,0C71,29.3,72.3,29.4,73.5,29.4c0.4,0,0.8,0,1.2,0
		C74.3,29.4,73.9,29.4,73.5,29.4z"/>
</g>
<g>
	<path class="st0" d="M27.3,4.8c0.9,0,1.8,0,2.6-0.4C30,4.5,30,4.6,30.1,4.7c-0.3,0.4-0.8,0.8-1.3,1C28,6,27.1,6.1,26.2,6.2
		c-1.3,0-2.7,0-4,0c-0.2,0-0.3,0.1-0.4,0.2c-0.7,0.6-1.1,1.3-1.5,2.1c-0.7,1.4-1.3,2.9-1.8,4.4c-0.9,2.4-1.8,4.9-2.7,7.4
		c-0.4,1.1-0.8,2.2-1.6,3.1c-0.6,0.7-1.4,1.1-2.3,1.3c-0.4,0.1-0.9,0.1-1.4,0.1c-0.1-0.1-0.1-0.2-0.2-0.3c0.7-0.5,1.1-1.2,1.5-2
		c0.8-1.7,1.4-3.5,2.1-5.2c0.6-1.7,1.3-3.4,2-5.1c0.4-0.9,0.7-1.8,1.2-2.6c0.7-1.2,1.7-2.2,2.8-3c0.2-0.1,0.4-0.2,0.5-0.3
		c-1.7,0-3.3-0.1-5,0.1c-1.4,0.2-2.7,0.5-3.9,1.2c-0.9,0.5-1.7,1.3-2,2.3c-0.3,0.8-0.3,1.8,0.1,2.5c-0.2,0.2-0.5,0-0.7,0
		c-0.8-0.2-1.4-0.9-1.6-1.6C7.1,9.9,7.4,9,7.8,8.2c0.6-1.1,1.7-1.8,2.8-2.3c1.6-0.7,3.2-1,4.9-1C15.9,4.9,16.2,5,16.5,5
		c3.2,0,6.5,0,9.7,0c0.6,0,1.1,0,1.7,0c-0.8-0.1-1.6,0-2.4,0c-2.5,0-4.9,0-7.4,0c-0.7,0-1.4,0-2,0c0.2,0,0.4,0,0.5,0
		C20.1,4.8,23.7,4.8,27.3,4.8z"/>
	<path class="st0" d="M46.3,6.4c1.2-1,2.8-1.5,4.4-1.7c1.2-0.1,2.4-0.1,3.6,0.2c0.5,0.2,1.1,0.5,1.3,1.1c0.2,0.5,0,1-0.2,1.3
		c-0.5,0.7-1.2,1.3-2,1.6c0,0-0.1-0.1-0.2-0.2c0.5-0.5,0.8-1.1,0.8-1.8c0-0.6-0.4-1.1-1-1.3C52,5.4,51,5.4,50,5.7
		c-0.9,0.2-1.6,0.8-2.2,1.4c-0.8,0.9-1.4,1.9-1.9,3c0,0.1-0.1,0.2-0.1,0.3c0,0,0,0.1,0,0.1c0.9,0,1.8,0,2.7,0c0.8,0,1.6,0,2.4,0
		c-0.2,0-0.4-0.1-0.5-0.1c0.7,0,1.4,0,2.1-0.1c-0.1,0.2-0.2,0.5-0.3,0.7c-1,0.2-1.8,0.9-2.4,1.8c-0.9,1.2-1.5,2.6-2,4
		c-0.2,0.8-0.4,1.6-0.3,2.4c0,0.3,0.2,0.7,0.5,0.8c0.5,0.2,1-0.1,1.4-0.5c0.8-0.7,1.3-1.6,1.8-2.5c0.8-1.6,1.3-3.4,1.2-5.2
		c0-0.2,0.1-0.3,0.3-0.3c0.3-0.1,0.5-0.1,0.8-0.2c1.2-0.2,2.3-0.6,3.4-0.8c0.6-0.1,1.2-0.3,1.8-0.1c0.5,0.1,0.5,0.7,0.4,1.1
		c-0.2,1.1-0.7,2.1-1.1,3.1c0.6-0.8,1.1-1.7,1.9-2.4c0.8-0.8,1.6-1.5,2.7-1.8c0.6-0.1,1.2-0.2,1.8,0.1c0.4,0.2,0.6,0.6,0.6,1.1
		c0,0.8-0.4,1.6-0.7,2.3c-0.7,1.5-1.5,3-2.1,4.6c-0.4,1-0.8,2.1-0.7,3.2c0,0.3,0.1,0.6,0.2,0.9c-0.1,0-0.2,0.1-0.3,0.1
		c-0.7-0.2-1.3-0.5-1.7-1.1c-0.5-0.8-0.5-1.7-0.3-2.6c0.4-1.5,1.1-2.9,1.8-4.3c0.4-0.8,0.8-1.6,1-2.5c-0.1-0.2-0.3-0.3-0.5-0.3
		c-0.5,0.2-0.9,0.6-1.3,1c-1.2,1.3-2.2,2.7-3,4.3c-0.7,1.3-1.3,2.7-2,4c-0.8,0-1.6,0-2.4,0c1-2.4,2-4.9,3-7.3c0.2-0.5,0.4-1,0.5-1.5
		c0.1-0.2,0.1-0.6-0.2-0.7c-0.2,0-0.3,0-0.5,0c-0.5,0.1-1,0.2-1.5,0.3c0,0.9-0.3,1.8-0.6,2.7c-0.5,1.4-1.2,2.7-2,3.8
		c-0.8,1-1.8,2-3,2.5c-0.9,0.4-2.1,0.6-3,0.2c-0.7-0.3-1.1-1-1.1-1.7c-0.2-1.6,0.3-3.1,1-4.5c0.8-1.4,1.8-2.8,3.3-3.6
		c0.1,0,0.1-0.1,0.1-0.1l-0.1,0.1c-0.4,0-0.7,0.1-1.1,0.1c-0.3-0.1-0.6-0.1-0.9-0.1c-0.7,0-1.3,0-1.9,0c0.8,0.1,1.5,0,2.3,0.1
		c-0.7,0-1.5,0-2.2,0c-0.7,1.9-1.4,3.7-2.1,5.6c-0.5,1.5-1,2.9-1.6,4.4c-0.5,1-1,2.1-2,2.7c-0.7,0.5-1.6,0.6-2.5,0.6l0.1,0
		c0.3,0,0.7-0.1,1-0.1c-0.4,0-0.7-0.1-1.1-0.1c1-0.8,1.4-2,1.9-3.1c0.4-1,0.8-2,1.2-3c-1.3,1.3-2.7,2.4-4.5,2.9
		c-1,0.2-2,0.3-2.9-0.1c-0.7-0.4-1.1-1.2-1.2-2c-0.1-1.4,0.4-2.8,1-4c0.5-1.1,1.2-2.1,2.1-2.9c1.2-1.1,2.6-2,4.2-2.1
		c0.5,0,1,0,1.3,0.3c0.4,0.3,0.5,0.9,0.4,1.3c-0.2,0.9-0.7,1.7-1.3,2.3c-1.3,1.4-3,2.4-4.7,3.3c-0.1,0.6-0.3,1.3-0.2,1.9
		c0.1,0.4,0.4,0.7,0.8,0.8c0.7,0.1,1.4-0.1,2-0.4c1.3-0.6,2.3-1.6,3.2-2.7c0.3-0.4,0.7-0.7,0.9-1.2c0.5-1.4,1-2.8,1.6-4.2
		c-0.5,0-0.9,0-1.4,0.2c0-0.1-0.1-0.2-0.1-0.2c0.5-0.5,1.2-0.9,1.9-1C44,8.9,45,7.4,46.3,6.4 M37.5,11.4c-0.6,0.4-1,1-1.3,1.6
		c-0.6,1-1.1,2.1-1.4,3.3c1.1-0.7,2.2-1.5,3.1-2.5c0.5-0.6,0.9-1.3,1-2c0-0.3-0.1-0.6-0.4-0.6C38.1,11,37.8,11.2,37.5,11.4z"/>
	<path class="st0" d="M32.6,6.4c0.8-0.2,1.5-0.3,2.3-0.4c-0.6,1.5-1.2,2.9-1.8,4.3c-0.8,1.7-1.6,3.4-2.3,5.1
		c-0.6,1.4-1.2,2.8-1.6,4.3c-0.2,0.9-0.4,1.8-0.2,2.8c-0.1,0-0.2,0.1-0.3,0.1c-0.6-0.2-1.1-0.5-1.5-0.9c-0.3-0.4-0.5-0.8-0.5-1.2
		c0.1-0.4,0.1-0.8,0-1.2c0-0.3,0.1-0.5,0.1-0.7c-0.9,0.9-1.9,1.7-3.1,2.3c-1,0.5-2.2,0.7-3.2,0.4c-0.7-0.2-1.2-0.7-1.4-1.3
		c-0.4-1.1-0.2-2.2,0.1-3.3c0.5-1.7,1.5-3.3,2.7-4.5c1.1-1.1,2.6-2,4.2-2.1c0.5,0,1.2,0,1.5,0.5c0.3,0.4,0.3,0.9,0.2,1.3
		c-0.2,0.9-0.8,1.6-1.4,2.3c-1.3,1.3-3,2.3-4.6,3.1c-0.1,0.6-0.3,1.3-0.2,2c0,0.4,0.3,0.7,0.7,0.8c0.7,0.1,1.4-0.2,2-0.5
		c1-0.6,1.9-1.5,2.7-2.4c0.4-0.5,0.7-0.9,1-1.4c1.3-2.9,2.5-5.8,3.9-8.6C32.1,6.7,32.3,6.4,32.6,6.4 M24.9,11.4
		c-0.6,0.5-1.1,1.2-1.5,1.9c-0.5,0.9-0.9,1.9-1.2,3c1.4-0.8,2.7-1.8,3.6-3.2c0.3-0.5,0.5-1,0.5-1.6c0-0.2-0.2-0.4-0.4-0.4
		C25.5,11.1,25.1,11.2,24.9,11.4z"/>
	<path class="st0" d="M74.6,10.8c1.2-0.7,2.5-0.9,3.9-0.7c0.4,0.1,0.8,0.3,1,0.6c0.2,0.4,0.1,1-0.2,1.4c-0.5,0.7-1.3,1.1-2,1.4
		c-0.1-0.1-0.2-0.1-0.2-0.2c0.5-0.4,0.8-1,0.8-1.7c0-0.3-0.2-0.6-0.5-0.6c-0.6-0.1-1.2,0.3-1.7,0.8c-0.9,0.9-1.6,2.1-2.1,3.3
		c-0.5,1.1-0.8,2.3-0.9,3.5c0,0.4,0,0.8,0.3,1.1c0.3,0.2,0.6,0.3,1,0.2c0.7-0.1,1.4-0.5,1.9-1c0.6-0.5,1.1-1,1.5-1.6
		c0.9-2.1,2.1-4.2,3.9-5.6c1.4-1,3.1-1.5,4.9-1.5c0.8,0,1.6,0.1,2.3,0.5c-1,2.2-1.9,4.4-2.7,6.7c-0.4,1.2-0.7,2.5-0.8,3.8
		c0,0.4,0,0.8,0.1,1.2c-0.3,0.2-0.7,0-1-0.1c-0.6-0.3-1-0.8-1.2-1.5c-0.2-0.8,0-1.6,0.2-2.4c-0.5,0.7-1.1,1.4-1.8,1.9
		c-0.8,0.6-1.7,1-2.7,1c-0.5,0-1.1-0.3-1.4-0.8c-0.3-0.5-0.3-1-0.3-1.6c-1,1.1-2.3,2-3.8,2.3c-0.8,0.1-1.7,0.1-2.4-0.4
		c-0.5-0.3-0.7-0.8-0.8-1.4c-0.9,0.9-2,1.6-3.2,1.8c-0.7,0.1-1.5,0.1-2-0.5c-0.5-0.5-0.4-1.2-0.3-1.8c0.3-1.4,0.9-2.7,1.5-4
		c0.6-1.2,1.2-2.5,1.7-3.7c0.1-0.3,0.4-0.6,0.8-0.6c0.8-0.2,1.6-0.3,2.4-0.4c-1.1,2.3-2.3,4.7-3.2,7.1c-0.2,0.6-0.5,1.2-0.6,1.9
		c-0.1,0.3,0.1,0.6,0.4,0.6c0.3,0.1,0.6-0.1,0.9-0.2c0.5-0.3,1-0.7,1.4-1.2c0.1-0.1,0.2-0.2,0.2-0.3c0.2-1.5,0.8-2.8,1.5-4.1
		C72.2,12.8,73.2,11.6,74.6,10.8 M83.4,11.9c-1,0.8-1.8,1.9-2.4,3c-0.6,1.2-1.2,2.4-1.4,3.7c0,0.3-0.1,0.7,0.1,1
		c0.2,0.2,0.6,0.1,0.8,0c0.7-0.3,1.2-0.9,1.6-1.4c0.9-1.1,1.6-2.4,2.1-3.8c0.5-1.1,1-2.1,1.5-3.2C84.9,11,84.1,11.4,83.4,11.9
		L83.4,11.9z"/>
</g>
<path class="st0" d="M71,5.9c0.5-0.1,1,0.1,1.2,0.6c0.2,0.8-0.4,1.7-1.2,1.9c-0.3,0.1-0.7,0-1-0.3c-0.3-0.3-0.3-0.8-0.1-1.2
	C70.1,6.5,70.5,6,71,5.9L71,5.9z"/>
</svg>
