<?xml version="1.0" encoding="utf-8"?>
<!-- Generator: Adobe Illustrator 26.0.1, SVG Export Plug-In . SVG Version: 6.00 Build 0)  -->
<svg version="1.1" id="Layer_1" xmlns="http://www.w3.org/2000/svg" xmlns:xlink="http://www.w3.org/1999/xlink" x="0px" y="0px"
	 viewBox="0 0 95 35" style="enable-background:new 0 0 95 35;" xml:space="preserve">
<style type="text/css">
	.st0{fill:#343741;}
</style>
<g>
	<g>
		<path class="st0" d="M30,0v35h35V0H30z M42.8,15.2h-3.4V9.7c0-0.2-0.2-0.4-0.4-0.4c-0.2,0-0.4,0.1-0.4,0.3v12.2
			c0,0.3,0.2,0.4,0.4,0.4c0.2,0,0.4-0.1,0.4-0.4v-5.7l3.4,0v5.3c0,0.7-0.7,1.5-1.6,1.5h-4.5c-0.9,0-1.6-0.9-1.6-1.5V10
			c0-0.7,0.7-1.5,1.6-1.5h4.5c0.9,0,1.6,0.8,1.6,1.5V15.2z M51.3,14c0,0.5-0.4,1.7-1.4,1.7c1.4,0.2,1.4,1.4,1.4,1.6V23l-3.4,0l0-6.4
			c0-0.3-0.2-0.4-0.4-0.4c-0.2,0-0.4,0-0.4,0c0,2.8,0,6.8,0,6.8h-3.4V8.5h6.1c0.9,0,1.6,0.8,1.6,1.5V14z M59.9,23h-3.4v-6.8h-0.9V23
			h-3.4V8.5h3.4v6.7h0.9V8.5h3.4V23z"/>
		<path class="st0" d="M47.5,9.3l-0.5,0c0,0,0,3.1,0,5.9c0,0,0.1,0,0.4,0c0.3,0,0.5-0.3,0.5-0.5v-5C47.9,9.5,47.7,9.3,47.5,9.3z"/>
	</g>
	<path id="path1111" class="st0" d="M65,35H30v-1.8h35V35z"/>
</g>
</svg>
