<?xml version="1.0" encoding="utf-8"?>
<!-- Generator: Adobe Illustrator 26.0.1, SVG Export Plug-In . SVG Version: 6.00 Build 0)  -->
<svg version="1.1" id="Layer_1" xmlns="http://www.w3.org/2000/svg" xmlns:xlink="http://www.w3.org/1999/xlink" x="0px" y="0px"
	 viewBox="0 0 95 35" style="enable-background:new 0 0 95 35;" xml:space="preserve">
<style type="text/css">
	.st0{fill:#CCCCCC;}
</style>
<g id="layer1" transform="translate(-10.129762,-148.47426)">
	<g id="g39701" transform="matrix(0.26458333,0,0,0.26458333,10.156221,148.50072)">
		<rect id="rect39677" x="69.8" y="24.7" class="st0" width="14.2" height="80.8"/>
		<path id="path39679" class="st0" d="M134.8,77.9c0,2.1-0.2,4.3-0.9,6.1c-0.7,1.9-1.7,3.5-2.8,5.2c-1.2,1.4-2.6,2.6-4.3,3.3
			c-1.7,0.7-3.5,1.2-5.4,1.2c-3.1,0-5.7-0.9-7.6-3.1s-2.8-5.2-2.8-9V43.8H96.8v37.8c0,7.6,1.9,13.7,5.4,18.2c3.5,4.5,9,6.9,16.1,6.9
			c2.1,0,4.3-0.2,5.9-0.7c1.7-0.5,3.3-1.2,4.7-1.9c1.4-0.7,2.6-1.7,3.5-2.6c0.9-0.9,1.9-1.9,2.6-2.6l0.5,6.9H149V43.8h-14.2V77.9z"
			/>
		<path id="path39681" class="st0" d="M194.5,93.7c-1.4,0.7-3.1,0.9-5.2,0.9c-2.4,0-4-0.9-5.2-2.8c-1.2-1.9-1.7-4.5-1.7-8V57.1h14.9
			V43.8h-15.1V24.7h-14.2v19.1h-9.4v13h9.4v27.9c0,3.3,0.2,6.4,0.9,9.2c0.7,2.8,1.7,5.2,3.1,7.1c1.4,1.9,3.3,3.5,5.9,4.5
			c2.4,1.2,5.2,1.7,8.7,1.7c3.3,0,6.4-0.5,9-1.7c2.6-1.2,5.4-2.8,8.3-5.4l-5.9-9.4C197.1,92,195.7,93,194.5,93.7z"/>
		<path id="path39683" class="st0" d="M242.7,93.7c-1.4,0.7-3.1,0.9-5.2,0.9c-2.4,0-4-0.9-5.2-2.8c-1.2-1.9-1.7-4.5-1.7-8V57.1h15.1
			V43.8h-15.1V24.7h-14.2v19.1h-9.4v13h9.4v27.9c0,3.3,0.2,6.4,0.9,9.2c0.7,2.8,1.7,5.2,3.1,7.1c1.4,1.9,3.3,3.5,5.9,4.5
			c2.4,1.2,5.2,1.7,8.7,1.7c3.3,0,6.4-0.5,9-1.7c2.6-1.2,5.4-2.8,8.3-5.4l-5.9-9.4C245.3,92,244.2,93,242.7,93.7z"/>
		<path id="path39685" class="st0" d="M304.6,54c-2.1-3.3-5-5.9-8.5-8c-3.5-2.1-7.8-3.1-13-3.1c-4.3,0-8,0.7-11.6,2.4
			c-3.5,1.7-6.4,3.8-9,6.6c-2.6,2.8-4.5,6.1-5.9,9.9c-1.4,3.8-2.1,8-2.1,12.5c0,5,0.7,9.4,2.1,13.5s3.3,7.6,5.9,10.4
			s5.7,5.2,9.4,6.9c3.5,1.7,7.8,2.4,12.3,2.4s8-0.5,11.3-1.7c3.1-0.9,5.7-2.1,7.8-3.5c2.1-1.2,3.5-2.6,4.7-3.8
			c1.2-1.2,1.7-1.9,1.9-2.1l-7.6-9.2c-0.5,0.5-1.2,1.2-2.1,1.9s-2.1,1.7-3.5,2.4c-1.4,0.7-3.1,1.4-5.2,1.9s-4.5,0.9-7.1,0.9
			c-1.9,0-3.8-0.2-5.4-0.9c-1.9-0.7-3.5-1.7-5-3.1c-1.4-1.2-2.6-2.8-3.5-4.7s-1.4-3.8-1.4-6.1h41.6v-2.1c0-4.3-0.5-8.5-1.4-12.8
			C308.4,60.8,306.8,57.3,304.6,54z M268.7,68.9c0-1.7,0.2-3.1,0.9-4.7c0.7-1.7,1.7-2.8,2.8-4.3c1.2-1.2,2.6-2.4,4.5-3.1
			s3.8-1.2,6.1-1.2c2.1,0,4,0.5,5.7,1.2c1.7,0.7,3.1,1.9,4,3.1c1.2,1.2,1.9,2.6,2.4,4.3c0.5,1.7,0.9,3.1,0.9,4.7H268.7z"/>
		<path id="path39687" class="st0" d="M355.6,43.4c-1.2-0.2-2.4-0.2-3.5-0.2c-2.4,0-4.3,0.2-6.1,0.9c-1.9,0.7-3.3,1.4-4.7,2.1
			c-1.4,0.9-2.6,1.9-3.5,2.8c-0.9,0.9-1.9,1.9-2.4,2.8l-0.5-8h-13.5v61.7h14.2V72.2c0-2.1,0.5-4.3,1.2-6.1c0.7-1.9,1.7-3.3,3.1-4.7
			c1.2-1.2,2.8-2.4,4.5-3.1c1.7-0.7,3.5-0.9,5.4-0.9c1.4,0,2.6,0,3.5,0.2c0.9,0.2,1.9,0.5,2.8,0.9l2.8-14.4
			C357.8,43.8,356.6,43.6,355.6,43.4z"/>
		<rect id="rect39689" x="-0.1" y="24.7" class="st0" width="59.8" height="16.3"/>
		<rect id="rect39691" x="-0.1" y="57.1" class="st0" width="44.9" height="16.3"/>
		<rect id="rect39693" x="-0.1" y="89.4" class="st0" width="14.9" height="16.1"/>
		<g id="g39699">
			<path id="path39695" class="st0" d="M346.2,26.4h-2.4v-1.7h6.6v1.7h-2.4v6.4h-1.9V26.4z"/>
			<path id="path39697" class="st0" d="M351.4,24.7h1.7l1.9,3.8l1.9-3.8h1.7l0.2,8h-1.7l-0.2-5.2l-1.7,3.1h-0.9l-1.7-3.1l-0.2,5.2
				h-1.7L351.4,24.7z"/>
		</g>
	</g>
</g>
</svg>
