<?xml version="1.0" encoding="utf-8"?>
<!-- Generator: Adobe Illustrator 26.0.1, SVG Export Plug-In . SVG Version: 6.00 Build 0)  -->
<svg version="1.1" id="Layer_1" xmlns="http://www.w3.org/2000/svg" xmlns:xlink="http://www.w3.org/1999/xlink" x="0px" y="0px"
	 viewBox="0 0 95 35" style="enable-background:new 0 0 95 35;" xml:space="preserve">
<style type="text/css">
	.st0{fill:#343741;}
</style>
<g id="layer1" transform="translate(-130.81523,-480.29885)">
	<path id="path536" class="st0" d="M168.2,493.3c-0.2,0-0.4,0-0.9,0.4l-0.7,0.6c-0.5,0.4-0.5,0.5-0.5,1.3v0.4
		c-0.2,0.2-0.5,0.3-0.7,0.4v0.2l0.7-0.1v2.5c0,0.2,0,0.3,0,0.4c0,0.1-0.2,0.1-0.4,0.2l-0.4,0v0.3c0.5,0,0.9,0,1.3,0
		c0.5,0,0.8,0,1.5,0v-0.3l-0.4,0c-0.2,0-0.4-0.1-0.4-0.2c0-0.1,0-0.2,0-0.4v-2.5h1.1l0.1-0.5l0-0.1c-0.4,0-0.8,0-1.2,0v-1
		c0-0.5,0-0.8,0.6-0.8c0.2,0,0.4,0.1,0.6,0.2l0.2-0.1v-0.9C168.4,493.3,168.3,493.3,168.2,493.3z M169.9,493.4
		c-0.4,0-0.7,0.3-0.7,0.7c0,0.4,0.3,0.7,0.7,0.7s0.7-0.3,0.7-0.7C170.6,493.7,170.3,493.4,169.9,493.4z M147,493.5
		c-1.3,0-2.4,0.6-2.4,2c0,0.8,0.6,1.3,1.3,1.6l1.3,0.4c0.5,0.2,0.8,0.5,0.8,0.9c0,0.8-0.7,1.2-1.4,1.2c-0.5,0-1.2-0.3-1.4-0.7
		l-0.1-0.8h-0.4c0,0.5,0,1.1-0.1,1.6c0.6,0.3,1.3,0.4,1.9,0.4c1.4,0,2.7-0.7,2.7-2.2c0-0.8-0.5-1.4-1.4-1.6l-1.1-0.3
		c-0.7-0.2-1-0.5-1-0.9c0-0.6,0.4-1.1,1.3-1.1c0.4,0,1,0.2,1.2,0.5l0.1,0.8h0.4c0-0.5,0-1,0.1-1.3l0-0.1
		C148.2,493.6,147.6,493.5,147,493.5z M205.1,493.5c-2,0-3.7,1.1-3.7,3.2c0,2.2,1.6,3.4,3.7,3.4c1,0,1.8-0.2,2.7-0.6V498
		c0-0.2,0.1-0.3,0.4-0.3v-0.3c-0.5,0-0.9,0-1.3,0c-0.5,0-0.9,0-1.4,0v0.4l0.5,0c0.3,0,0.5,0.1,0.5,0.3v1.2c-0.4,0.1-0.8,0.2-1.2,0.2
		c-1.7,0-2.5-1.4-2.5-3c0-1.5,0.8-2.5,2.3-2.5c0.8,0,1.6,0.2,1.9,0.6l0.1,0.8h0.4c0-0.4,0.1-1.1,0.2-1.4l-0.1-0.1
		C206.8,493.6,205.9,493.5,205.1,493.5z M175.3,493.6v0.4l0.3,0c0.2,0,0.3,0.1,0.4,0.1c0.1,0.1,0.1,0.4,0.1,0.8v3.8
		c0,0.4,0,0.6-0.1,0.7c0,0.1-0.1,0.1-0.4,0.1l-0.3,0v0.4c0.4,0,0.9,0,1.4,0c0.5,0,1.1,0,1.4,0v-0.4l-0.3,0c-0.2,0-0.3-0.1-0.4-0.1
		c-0.1-0.1-0.1-0.4-0.1-0.7V497c0,0,0-0.1,0.1-0.1c0.2,0.1,0.5,0.5,0.7,0.7l1.9,2.3c0.3,0,0.6,0,0.9,0s0.6,0,0.9,0v-0.4
		c-0.4,0-0.6-0.2-0.8-0.5l-2.5-2.9l2.1-1.9c0.3-0.3,0.6-0.3,1-0.3v-0.4c-0.3,0-0.6,0-0.8,0c-0.3,0-0.6,0-0.8,0v0.2
		c0,0.1,0,0.2-0.2,0.3c-0.2,0.2-0.5,0.6-0.7,0.8l-1.7,1.7c0,0-0.1,0-0.1-0.1v-1.7c0-0.4,0-0.6,0.1-0.8c0-0.1,0.1-0.1,0.4-0.1l0.3,0
		v-0.4c-0.4,0-0.9,0-1.4,0C176.2,493.7,175.6,493.7,175.3,493.6z M172.6,494.1c-0.3,0.1-0.7,0.3-1.1,0.5c0,0.3,0,0.6,0,0.9v0.6
		l-0.6,0.4v0.2l0.6,0v2.4c0,0.8,0.3,1.2,1.2,1.2c0.3,0,0.5-0.1,0.6-0.2l0.5-0.5l-0.1-0.2c-0.1,0.1-0.2,0.1-0.4,0.1
		c-0.4,0-0.6-0.1-0.6-0.6v-2.2h1l0.1-0.6l-1.1,0.1v-0.5c0-0.4,0-0.9,0.1-1.3L172.6,494.1z M150.7,495.6c-0.5,0.2-1.1,0.4-1.7,0.4
		v0.3l0.4,0c0.2,0,0.2,0.1,0.2,0.6v2c0,0.2,0,0.3,0,0.4c0,0.1-0.1,0.1-0.3,0.2l-0.3,0v0.3c0.4,0,0.8,0,1.2,0c0.5,0,0.8,0,1.2,0v-0.3
		l-0.3,0c-0.2,0-0.3-0.1-0.3-0.2c0-0.1,0-0.2,0-0.4v-2c0-0.3,0.3-0.6,0.7-0.6c0.2,0,0.4,0.1,0.6,0.2c0.2,0.2,0.2,0.4,0.2,0.9v1.6
		c0,0.2,0,0.3,0,0.4c0,0.1-0.1,0.1-0.3,0.2l-0.3,0v0.3c0.4,0,0.7,0,1.1,0c0.5,0,0.9,0,1.2,0v-0.3l-0.3,0c-0.2,0-0.3-0.1-0.3-0.2
		c0-0.1,0-0.2,0-0.4v-2c0-0.3,0.3-0.6,0.7-0.6c0.2,0,0.4,0.1,0.6,0.2c0.2,0.2,0.2,0.4,0.2,0.9v2.5c0.3,0,0.6,0,0.9,0
		c0.3,0,0.6,0,0.9,0v-0.3l-0.3,0c-0.2,0-0.3-0.1-0.3-0.2c0-0.1,0-0.2,0-0.4v-1.7c0-1.2-0.3-1.7-1.3-1.7c-0.2,0-0.5,0-0.7,0.2
		l-0.7,0.6c-0.2-0.5-0.6-0.7-1.2-0.7c-0.2,0-0.5,0-0.7,0.2l-0.7,0.6L150.7,495.6L150.7,495.6z M158.1,495.6l-0.6,0.2
		c-0.3,0.1-0.7,0.1-1,0.2v0.3l0.4,0c0.2,0,0.2,0.1,0.2,0.6v1.7c0,0.9,0.4,1.4,1.4,1.4c0.2,0,0.5-0.1,0.6-0.2l0.7-0.7l0,0.8
		c0.4,0,0.6,0,0.8,0c0.3,0,0.6,0,1,0v-0.3l-0.3,0c-0.2,0-0.3-0.1-0.3-0.2c0-0.1,0-0.2,0-0.4v-3.4l-0.1-0.1l-0.6,0.2
		c-0.3,0.1-0.7,0.1-1,0.2v0.3l0.4,0c0.2,0,0.2,0.1,0.2,0.6v1.4c0,0.1,0,0.3-0.1,0.4c-0.2,0.3-0.5,0.5-0.8,0.5
		c-0.7,0-0.8-0.6-0.8-1.2L158.1,495.6L158.1,495.6z M163.5,495.6l-0.6,0.2c-0.3,0.1-0.7,0.1-1,0.2v0.3l0.4,0c0.2,0,0.2,0.1,0.2,0.6
		v2c0,0.2,0,0.3,0,0.4c0,0.1-0.1,0.1-0.3,0.2l-0.3,0v0.3c0.4,0,0.8,0,1.2,0c0.5,0,0.8,0,1.4,0v-0.3l-0.4,0c-0.2,0-0.4-0.1-0.4-0.2
		c0-0.1,0-0.2,0-0.4v-1.8c0-0.3,0.4-0.6,0.7-0.6c0.2,0,0.4,0.1,0.5,0.3l0.2-0.1l0-1.2c-0.1,0-0.2-0.1-0.4-0.1
		c-0.3,0-0.5,0.2-0.7,0.5l-0.4,0.4L163.5,495.6L163.5,495.6z M170.4,495.6l-0.6,0.2c-0.3,0.1-0.7,0.1-1,0.2v0.3l0.4,0
		c0.2,0,0.2,0.1,0.2,0.6v2c0,0.2,0,0.3,0,0.4c0,0.1-0.1,0.1-0.3,0.2l-0.3,0v0.3c0.4,0,0.8,0,1.2,0c0.5,0,0.9,0,1.2,0v-0.3l-0.3,0
		c-0.2,0-0.3-0.1-0.3-0.2c0-0.1,0-0.2,0-0.4L170.4,495.6L170.4,495.6z M184.1,495.6c-0.3,0-0.7,0.1-1.1,0.3l-0.5,0.3v0.6l0.3,0.1
		l0.2-0.5c0-0.1,0.4-0.1,0.5-0.1c0.7,0,1,0.4,1,1.1l-0.8,0.2c-0.4,0.1-0.8,0.2-1.2,0.4c-0.3,0.2-0.4,0.6-0.4,1c0,0.7,0.3,1.1,1,1.1
		c0.2,0,0.4,0,0.5-0.1l0.9-0.7l0,0.6l0,0.1c0.3,0,0.6,0,0.8,0c0.3,0,0.5,0,0.8,0v-0.3l-0.3,0c-0.2,0-0.2-0.1-0.2-0.4
		c0-0.4,0-0.8,0-1.1c0-0.4,0-0.8,0-1.1C185.6,495.9,184.9,495.6,184.1,495.6z M187.5,495.6l-0.6,0.2c-0.3,0.1-0.7,0.1-1,0.2v0.3
		l0.4,0c0.2,0,0.2,0.1,0.2,0.6v4.4c0,0.2,0,0.3,0,0.4c0,0.1-0.1,0.1-0.3,0.2l-0.3,0v0.3c0.4,0,0.8,0,1.2,0c0.5,0,0.9,0,1.3,0V502
		l-0.4,0c-0.2,0-0.3-0.1-0.3-0.2c0-0.1,0-0.2,0-0.4v-1.4c0.2,0.1,0.5,0.2,0.8,0.2c0.2,0,0.4-0.1,0.8-0.3c0.3-0.2,0.5-0.4,0.7-0.5
		c0.2-0.2,0.5-0.5,0.7-0.9c0.1-0.3,0.2-0.7,0.2-1.1c0-1-0.7-1.7-1.7-1.7c-0.5,0-0.7,0.2-1,0.4l-0.6,0.5L187.5,495.6L187.5,495.6z
		 M192.5,495.6l-0.6,0.2c-0.3,0.1-0.7,0.1-1,0.2v0.3l0.4,0c0.2,0,0.2,0.1,0.2,0.6v4.4c0,0.2,0,0.3,0,0.4c0,0.1-0.1,0.1-0.3,0.2
		l-0.3,0v0.3c0.4,0,0.8,0,1.2,0c0.5,0,0.8,0,1.3,0V502l-0.4,0c-0.2,0-0.3-0.1-0.3-0.2c0-0.1,0-0.2,0-0.4v-1.4
		c0.2,0.1,0.5,0.2,0.8,0.2c0.2,0,0.4-0.1,0.8-0.3c0.3-0.2,0.5-0.4,0.7-0.5c0.2-0.2,0.5-0.5,0.7-0.9c0.1-0.3,0.2-0.7,0.2-1.1
		c0-1-0.7-1.7-1.7-1.7c-0.5,0-0.7,0.2-1,0.4l-0.6,0.5L192.5,495.6L192.5,495.6z M197.9,495.6c-0.3,0-0.7,0.1-1.1,0.3l-0.5,0.3v0.6
		l0.3,0.1l0.2-0.5c0-0.1,0.4-0.1,0.5-0.1c0.7,0,1,0.4,1,1.1l-0.8,0.2c-0.4,0.1-0.8,0.2-1.2,0.4c-0.3,0.2-0.4,0.6-0.4,1
		c0,0.7,0.3,1.1,1,1.1c0.2,0,0.4,0,0.5-0.1l0.9-0.7l0,0.6l0,0.1c0.3,0,0.6,0,0.8,0c0.3,0,0.5,0,0.8,0v-0.3l-0.3,0
		c-0.2,0-0.2-0.1-0.3-0.4c0-0.4,0-0.8,0-1.1c0-0.4,0-0.8,0-1.1C199.5,495.9,198.7,495.6,197.9,495.6z M209.9,495.6l-0.6,0.2
		c-0.3,0.1-0.7,0.1-1,0.2v0.3l0.4,0c0.2,0,0.2,0.1,0.2,0.6v2c0,0.2,0,0.3,0,0.4c0,0.1-0.1,0.1-0.3,0.2l-0.3,0v0.3c0.4,0,0.8,0,1.2,0
		c0.5,0,0.8,0,1.4,0v-0.3l-0.4,0c-0.2,0-0.4-0.1-0.4-0.2c0-0.1,0-0.2,0-0.4v-1.8c0-0.3,0.4-0.6,0.7-0.6c0.2,0,0.4,0.1,0.5,0.3
		l0.2-0.1l0.1-1.2c-0.1,0-0.2-0.1-0.4-0.1c-0.3,0-0.5,0.2-0.7,0.5l-0.4,0.4L209.9,495.6L209.9,495.6z M213.8,495.6
		c-1.5,0-2.3,0.8-2.3,2.3c0,1.3,0.6,2.2,2.1,2.2c1.5,0,2.3-0.9,2.3-2.3C216,496.4,215.2,495.6,213.8,495.6z M217.6,495.6l-0.6,0.2
		c-0.3,0.1-0.7,0.1-1,0.2v0.3l0.4,0c0.2,0,0.2,0.1,0.2,0.6v1.7c0,0.9,0.4,1.4,1.4,1.4c0.2,0,0.5-0.1,0.6-0.2l0.7-0.7l-0.1,0.8
		c0.4,0,0.6,0,0.8,0c0.3,0,0.6,0,1,0v-0.3l-0.3,0c-0.2,0-0.3-0.1-0.3-0.2c0-0.1,0-0.2,0-0.4v-3.4l-0.1-0.1l-0.6,0.2
		c-0.3,0.1-0.7,0.1-1,0.2v0.3l0.4,0c0.2,0,0.2,0.1,0.2,0.6v1.4c0,0.1,0,0.3-0.1,0.4c-0.2,0.3-0.5,0.5-0.8,0.5
		c-0.7,0-0.7-0.6-0.7-1.2L217.6,495.6L217.6,495.6z M222.5,495.6l-0.6,0.2c-0.3,0.1-0.7,0.1-1,0.2v0.3l0.4,0c0.2,0,0.2,0.1,0.2,0.6
		v4.4c0,0.2,0,0.3,0,0.4c0,0.1-0.1,0.1-0.3,0.2l-0.3,0v0.3c0.4,0,0.8,0,1.2,0c0.5,0,0.9,0,1.3,0V502l-0.4,0c-0.2,0-0.3-0.1-0.3-0.2
		c0-0.1,0-0.2,0-0.4v-1.4c0.2,0.1,0.5,0.2,0.8,0.2c0.2,0,0.4-0.1,0.8-0.3c0.3-0.2,0.5-0.4,0.7-0.5c0.2-0.2,0.5-0.5,0.7-0.9
		c0.1-0.3,0.2-0.7,0.2-1.1c0-1-0.7-1.7-1.7-1.7c-0.5,0-0.7,0.2-1,0.4l-0.6,0.5L222.5,495.6L222.5,495.6z M213.7,496c1,0,1,1.4,1,2.1
		c0,0.6-0.1,1.5-0.9,1.5c-1,0-1-1.3-1-2C212.8,497,212.9,496,213.7,496z M188.5,496.4c0.8,0,1.2,0.7,1.2,1.4c0,0.7-0.2,1.6-1.1,1.6
		c-0.4,0-0.7-0.2-0.9-0.5v-2.1C187.8,496.6,188.2,496.4,188.5,496.4z M193.5,496.4c0.8,0,1.2,0.7,1.2,1.4c0,0.7-0.2,1.6-1.1,1.6
		c-0.4,0-0.7-0.2-0.9-0.5v-2.1C192.8,496.6,193.1,496.4,193.5,496.4z M223.5,496.4c0.8,0,1.2,0.7,1.2,1.4c0,0.7-0.2,1.6-1.1,1.6
		c-0.4,0-0.7-0.2-0.9-0.5v-2.1C222.8,496.6,223.2,496.4,223.5,496.4z M184.5,497.8v1.1c-0.1,0.2-0.5,0.4-0.8,0.4s-0.5-0.2-0.5-0.6
		c0-0.6,0.4-0.7,0.9-0.8L184.5,497.8z M198.3,497.8v1.1c-0.1,0.2-0.5,0.4-0.8,0.4c-0.3,0-0.5-0.2-0.5-0.6c0-0.6,0.4-0.7,0.8-0.8
		L198.3,497.8z"/>
	<path id="path576" class="st0" d="M132.6,493.5c-1.5,0-1.7,1.8-1.7,2.7c0,0.1,0,0.3,0,0.5c0,0.2,0,0.5,0,0.6
		c0.1,0.9,0.4,2.5,1.8,2.5h8.9c1.4,0,1.7-1.6,1.8-2.5c0-0.2,0-0.4,0-0.6c0-0.2,0-0.4,0-0.5c0-0.9-0.3-2.7-1.7-2.7h0h-0.1h-2.9h-3
		H132.6L132.6,493.5L132.6,493.5z M134.1,493.8L134.1,493.8C134.2,493.8,134.2,493.8,134.1,493.8h3.3h2.5c0,0,0.1,0,0.1,0
		c1.6,0,1.9,1.7,1.9,2.5c0,0.1,0,0.3,0,0.5c0,0.2,0,0.4,0,0.6c-0.1,0.9-0.4,2.3-1.9,2.3h0h-5.7c-1.6,0-1.9-1.5-2-2.3
		c0-0.1,0-0.3,0-0.6c0-0.2,0-0.4,0-0.5C132.3,495.5,132.5,493.8,134.1,493.8z M140.8,494.5l-7.6,0.8c0,0,0,0,0,0c0,0,0,0,0,0h0
		l3.4,0.7c0.3,0,0.5,0.2,0.5,0.5c0,0.2-0.2,0.3-0.4,0.4c0,0,0,0,0,0c0,0,0,0,0,0l-0.1,0l-3.4,0.6c0,0,0,0,0,0c0,0,0,0,0,0
		c0,0,0,0,0,0l7.6-0.8c0,0,0,0,0,0c0,0,0,0,0,0l-3.3-0.7c-0.2,0-0.3-0.1-0.4-0.1c-0.1-0.1-0.2-0.2-0.2-0.3c0-0.2,0.2-0.3,0.5-0.4
		L140.8,494.5C140.9,494.5,140.9,494.5,140.8,494.5C140.9,494.5,140.9,494.5,140.8,494.5z M140.8,496.8l-7.6,0.8c0,0,0,0,0,0
		c0,0,0,0,0,0l7.6,1.4c0,0,0,0,0,0c0,0,0,0,0,0l-3.4-0.8c-0.2-0.1-0.4-0.2-0.4-0.4c0-0.2,0.2-0.3,0.4-0.3L140.8,496.8
		C140.9,496.9,140.9,496.9,140.8,496.8C140.9,496.9,140.9,496.8,140.8,496.8L140.8,496.8z M138.4,498.3l2.5,0.6v-0.6H138.4z"/>
</g>
</svg>
