<?xml version="1.0" encoding="utf-8"?>
<!-- Generator: Adobe Illustrator 26.0.1, SVG Export Plug-In . SVG Version: 6.00 Build 0)  -->
<svg version="1.1" id="Layer_1" xmlns="http://www.w3.org/2000/svg" xmlns:xlink="http://www.w3.org/1999/xlink" x="0px" y="0px"
	 viewBox="0 0 95 35" style="enable-background:new 0 0 95 35;" xml:space="preserve">
<style type="text/css">
	.st0{fill:#CCCCCC;}
</style>
<g>
	<path class="st0" d="M49.27,0.03c-0.03,0.01-0.25,0.24-0.49,0.51c-0.24,0.27-0.45,0.49-0.46,0.49c-0.02,0.01-0.05-0.41-0.05-0.65
		c0-0.11-0.01-0.15-0.07-0.22c-0.06-0.07-0.09-0.08-0.19-0.08c-0.18,0-0.25,0.08-0.25,0.28c0,0.22,0.08,1.74,0.09,1.84
		c0.03,0.19,0.27,0.26,0.42,0.11l0.08-0.08l-0.01-0.28l-0.01-0.28l0.14-0.14l0.14-0.14l0.26,0.31c0.47,0.56,0.51,0.6,0.64,0.6
		c0.17,0,0.28-0.14,0.24-0.3c-0.01-0.03-0.19-0.26-0.4-0.51c-0.21-0.24-0.39-0.45-0.39-0.46s0.15-0.17,0.33-0.36
		c0.32-0.32,0.33-0.35,0.33-0.45C49.62,0.05,49.43-0.06,49.27,0.03z"/>
	<path class="st0" d="M52.62,0.33c-0.18,0.04-0.41,0.19-0.55,0.34c-0.23,0.25-0.34,0.56-0.31,0.91c0.03,0.47,0.31,0.84,0.76,1.02
		c0.12,0.05,0.21,0.06,0.44,0.06c0.28,0,0.3,0,0.47-0.08c0.21-0.1,0.27-0.18,0.25-0.31c-0.03-0.19-0.18-0.24-0.41-0.14
		c-0.48,0.2-0.94-0.06-0.98-0.56c-0.02-0.2,0.02-0.34,0.13-0.51c0.23-0.35,0.69-0.38,1.03-0.07c0.1,0.09,0.13,0.1,0.23,0.1
		c0.09,0,0.13-0.01,0.17-0.06c0.08-0.1,0.09-0.19,0.03-0.29c-0.06-0.12-0.33-0.3-0.52-0.36C53.2,0.31,52.77,0.29,52.62,0.33z"/>
	<path class="st0" d="M45.02,0.52c-0.09,0.05-0.14,0.18-0.12,0.29c0.01,0.05,0.09,0.47,0.18,0.95c0.15,0.84,0.16,0.87,0.24,0.94
		c0.05,0.04,0.1,0.07,0.12,0.07c0.09,0,1.23-0.22,1.31-0.25c0.17-0.07,0.16-0.35-0.01-0.42c-0.05-0.02-0.18-0.01-0.55,0.06
		c-0.27,0.05-0.48,0.09-0.49,0.09c-0.01-0.01-0.07-0.36-0.15-0.8c-0.08-0.44-0.16-0.81-0.17-0.84C45.3,0.49,45.15,0.45,45.02,0.52z"
		/>
	<path class="st0" d="M43.22,0.96c-0.07,0.03-0.17,0.15-0.17,0.21c0,0.03,0.12,0.46,0.27,0.98c0.3,1.02,0.31,1.05,0.5,1.05
		c0.14,0,0.24-0.1,0.24-0.23c0-0.11-0.49-1.83-0.55-1.92C43.45,0.95,43.33,0.92,43.22,0.96z"/>
	<path class="st0" d="M55.65,1.19c-0.41,0.11-0.71,0.4-0.83,0.81c-0.17,0.55,0.1,1.14,0.63,1.39c0.64,0.31,1.34,0.08,1.63-0.54
		c0.1-0.2,0.1-0.21,0.1-0.51c0-0.29-0.01-0.32-0.09-0.49C56.84,1.34,56.2,1.04,55.65,1.19z M56.19,1.67
		c0.17,0.05,0.32,0.17,0.4,0.34c0.19,0.37-0.01,0.88-0.41,1.01c-0.16,0.06-0.27,0.05-0.44-0.01c-0.4-0.15-0.56-0.58-0.36-0.98
		C55.54,1.7,55.84,1.56,56.19,1.67z"/>
	<path class="st0" d="M41.39,1.56c-0.06,0.02-0.12,0.06-0.14,0.08c-0.03,0.03-0.08,0.25-0.14,0.64C41.05,2.61,41,2.89,40.99,2.9
		c-0.01,0.01-0.22-0.14-0.47-0.32C40.27,2.39,40.03,2.22,40,2.21c-0.08-0.04-0.23-0.01-0.31,0.06c-0.14,0.11-0.13,0.15,0.26,1.12
		c0.39,0.95,0.42,1.01,0.59,1.01c0.11,0,0.25-0.12,0.25-0.22c0-0.04-0.1-0.3-0.21-0.59s-0.21-0.52-0.21-0.53
		c0-0.01,0.16,0.09,0.35,0.23c0.38,0.26,0.47,0.29,0.57,0.19c0.07-0.06,0.09-0.13,0.17-0.57c0.03-0.19,0.07-0.33,0.08-0.32
		c0.01,0.01,0.11,0.24,0.22,0.51c0.11,0.27,0.22,0.51,0.25,0.54c0.07,0.08,0.16,0.1,0.26,0.07c0.11-0.04,0.17-0.12,0.17-0.22
		c0-0.06-0.55-1.46-0.71-1.8c-0.02-0.06-0.07-0.1-0.13-0.13c-0.05-0.02-0.09-0.04-0.1-0.04C41.5,1.52,41.45,1.54,41.39,1.56z"/>
	<path class="st0" d="M58.8,2.54c-0.05,0.02-0.24,0.28-0.63,0.83c-0.49,0.7-0.56,0.81-0.56,0.9c0,0.14,0.09,0.23,0.23,0.23
		c0.05,0,0.12-0.01,0.15-0.03c0.03-0.01,0.19-0.23,0.37-0.49c0.18-0.26,0.33-0.47,0.34-0.47c0.01,0,0.01,0.2,0.01,0.46
		c-0.01,0.45-0.01,0.46,0.06,0.51c0.1,0.08,0.2,0.06,0.6-0.1c0.2-0.08,0.37-0.15,0.38-0.15c0.01,0-0.14,0.22-0.53,0.8
		c-0.08,0.11-0.12,0.2-0.12,0.26c0,0.18,0.18,0.3,0.35,0.23c0.07-0.03,0.52-0.64,1.06-1.45c0.17-0.25,0.18-0.33,0.05-0.46
		c-0.14-0.14-0.21-0.13-0.83,0.14c-0.29,0.13-0.53,0.22-0.54,0.22c-0.01-0.01-0.01-0.26,0.01-0.57c0.02-0.3,0.03-0.59,0.02-0.64
		C59.17,2.6,58.95,2.48,58.8,2.54z"/>
	<path class="st0" d="M48.75,3.19c-0.07,0.01-0.31,0.02-0.53,0.04c-2.89,0.2-6.11,1.2-8.85,2.72c-1.75,0.97-3.1,1.98-4.42,3.31
		c-1.3,1.3-2.16,2.47-2.85,3.89c-0.54,1.1-0.85,2.11-1.03,3.3c-0.07,0.48-0.1,1.7-0.05,2.26c0.32,3.85,2.89,7.48,7.1,10.03
		c2.83,1.71,6.16,2.79,9.51,3.07c1.69,0.14,3.49,0.05,5.06-0.27c1.37-0.27,2.55-0.67,3.74-1.26c2.36-1.17,4.19-2.84,5.54-5.07
		c0.25-0.42,0.72-1.37,0.92-1.86c0.51-1.27,0.81-2.55,0.97-4.06c0.05-0.46,0.05-2.49,0-2.99c-0.05-0.53-0.15-1.24-0.24-1.72
		c-0.88-4.5-3.56-8.09-7.41-9.96c-1.54-0.75-3.15-1.18-4.99-1.37C50.79,3.2,49.07,3.16,48.75,3.19z M42.61,10.02
		c1.27,0.17,2.22,0.59,2.97,1.3c0.71,0.68,1.08,1.42,1.27,2.54c0.04,0.23,0.05,0.66,0.06,3.61c0.02,3.26,0.02,3.36,0.07,3.59
		c0.17,0.73,0.49,1.24,0.92,1.45c0.34,0.17,0.56,0.14,1.12-0.14c0.98-0.5,2.5-1.66,4.29-3.28c1.57-1.42,2.3-2.62,2.43-3.95
		c0.12-1.22-0.32-2.06-1.23-2.39c-0.35-0.13-0.64-0.17-1.1-0.17c-0.76,0-1.31,0.18-2.43,0.83c-0.65,0.37-0.86,0.46-1.24,0.51
		c-0.41,0.06-0.79-0.06-1.05-0.32c-0.22-0.22-0.32-0.5-0.32-0.88c0-0.51,0.2-0.9,0.66-1.3c1.19-1.02,3.21-1.6,5.03-1.45
		c2.08,0.17,3.55,1.06,4.26,2.55c0.31,0.65,0.46,1.33,0.46,2.16c0,0.67-0.08,1.17-0.29,1.81c-0.62,1.88-2.14,3.62-4.6,5.26
		c-0.18,0.12-0.33,0.22-0.33,0.22c0,0,0.21,0.01,0.47,0.01c0.5,0,0.79,0.04,1.35,0.16c0.92,0.2,0.95,0.21,1.54,0.21h0.56l0.31-0.11
		c0.17-0.06,0.43-0.15,0.57-0.2c0.94-0.34,1.66-0.06,1.86,0.71c0.06,0.22,0.05,0.53-0.01,0.74c-0.22,0.7-1.11,1.25-2.32,1.42
		c-0.85,0.12-1.39,0.08-3.3-0.24c-1.46-0.24-1.42-0.24-2.26-0.24c-0.89,0-1.04,0.02-2.11,0.29c-0.81,0.2-1.05,0.24-1.61,0.28
		c-1.38,0.09-2.38-0.24-3.16-1.05c-0.13-0.13-0.28-0.29-0.32-0.35l-0.09-0.1l-0.13,0.11c-0.37,0.33-1.18,0.77-1.8,0.98
		c-0.73,0.25-1.34,0.36-2.12,0.36c-1.05,0-1.94-0.19-2.76-0.58c-0.72-0.35-1.23-0.78-1.62-1.36c-0.25-0.38-0.41-0.76-0.52-1.27
		c-0.05-0.24-0.06-0.34-0.06-0.88c0-0.67,0.03-0.87,0.18-1.34c0.18-0.56,0.46-1.03,0.86-1.43c0.9-0.9,2.24-1.42,4.25-1.63
		c0.36-0.04,0.69-0.05,1.46-0.05c0.55,0,1.04,0.01,1.1,0.02l0.1,0.02l-0.01-1.11c-0.01-1.04-0.01-1.13-0.07-1.31
		c-0.17-0.6-0.56-1.05-1.1-1.27c-0.36-0.15-0.73-0.21-1.22-0.21c-0.73,0-1.27,0.18-2.36,0.8c-0.73,0.42-0.98,0.52-1.4,0.55
		c-0.37,0.03-0.69-0.1-0.94-0.36c-0.23-0.24-0.34-0.58-0.31-0.96c0.04-0.43,0.17-0.7,0.51-1.03c0.83-0.82,2.3-1.42,3.9-1.58
		C41.34,9.95,42.25,9.97,42.61,10.02z"/>
	<path class="st0" d="M41.94,18.58c-0.91,0.07-1.63,0.25-2.11,0.52c-0.26,0.15-0.58,0.48-0.7,0.72c-0.14,0.29-0.19,0.49-0.18,0.9
		c0.01,1.09,0.58,1.67,1.8,1.82c0.36,0.05,1.15,0.02,1.47-0.05c0.54-0.11,1.04-0.32,1.5-0.64c0.43-0.29,0.4-0.24,0.35-0.53
		c-0.06-0.4-0.09-1.14-0.09-1.96v-0.75l-0.1-0.02C43.71,18.57,42.25,18.56,41.94,18.58z"/>
	<path class="st0" d="M37.03,3.68c-0.15,0.04-0.29,0.12-0.44,0.25c-0.29,0.26-0.39,0.71-0.18,0.81c0.17,0.07,0.31-0.01,0.36-0.2
		c0.04-0.18,0.12-0.29,0.22-0.34c0.14-0.06,0.22-0.05,0.33,0.05c0.09,0.08,0.1,0.11,0.11,0.24c0.01,0.14-0.01,0.22-0.19,0.79
		c-0.22,0.68-0.23,0.72-0.11,0.84c0.12,0.12,0.19,0.1,0.84-0.31c0.45-0.28,0.61-0.39,0.63-0.44c0.04-0.09,0.02-0.16-0.05-0.24
		c-0.1-0.1-0.19-0.08-0.56,0.15c-0.19,0.11-0.35,0.21-0.35,0.2c-0.01-0.01,0.04-0.13,0.09-0.28c0.16-0.43,0.2-0.58,0.2-0.78
		c0-0.2-0.05-0.32-0.19-0.51C37.59,3.71,37.29,3.61,37.03,3.68z"/>
	<path class="st0" d="M65.66,4.56c-0.18,0.07-0.39,0.26-0.48,0.43c-0.06,0.11-0.07,0.18-0.08,0.38c-0.01,0.22-0.01,0.26,0.06,0.4
		c0.1,0.21,0.18,0.31,0.33,0.41c0.19,0.12,0.45,0.18,0.65,0.14c0.3-0.06,0.55-0.23,0.67-0.48c0.08-0.16,0.1-0.25,0.1-0.44
		c-0.01-0.36-0.24-0.71-0.57-0.83C66.13,4.48,65.85,4.48,65.66,4.56z M66.31,4.75c0.13,0.07,0.3,0.28,0.34,0.44
		c0.08,0.28-0.02,0.64-0.22,0.8C66.32,6.08,66.11,6.15,66,6.15c-0.16,0-0.35-0.08-0.47-0.2c-0.5-0.5-0.1-1.37,0.58-1.26
		C66.17,4.7,66.26,4.73,66.31,4.75z"/>
	<path class="st0" d="M61.73,4.91c-0.04,0.02-0.39,0.32-0.76,0.68c-0.5,0.47-0.69,0.66-0.71,0.72c-0.03,0.17,0.08,0.3,0.26,0.3
		c0.09,0,0.13-0.02,0.24-0.13c0.28-0.25,0.23-0.25,0.46-0.01c0.26,0.27,0.46,0.38,0.71,0.4c0.17,0.01,0.2,0.01,0.35-0.07
		c0.18-0.09,0.32-0.23,0.4-0.4c0.03-0.07,0.05-0.16,0.05-0.31c0-0.19-0.01-0.23-0.08-0.36c-0.09-0.17-0.64-0.79-0.72-0.81
		c-0.03-0.01-0.07-0.02-0.09-0.03C61.82,4.88,61.77,4.89,61.73,4.91z M62,5.63c0.19,0.2,0.24,0.28,0.24,0.42
		c0,0.09-0.02,0.13-0.1,0.21c-0.09,0.09-0.12,0.1-0.21,0.1c-0.15,0-0.24-0.05-0.42-0.26l-0.16-0.18l0.24-0.22
		c0.13-0.12,0.25-0.22,0.26-0.22S61.93,5.55,62,5.63z"/>
	<path class="st0" d="M34.66,5.31c-0.27,0.11-0.59,0.39-0.78,0.68c-0.14,0.21-0.13,0.36,0.03,0.43c0.13,0.05,0.2,0.02,0.36-0.19
		c0.34-0.45,0.71-0.58,0.97-0.32L35.34,6l-0.18,0.09c-0.5,0.25-0.8,0.62-0.8,0.98c0,0.11,0.02,0.19,0.06,0.27
		c0.18,0.35,0.49,0.5,0.84,0.4c0.2-0.06,0.31-0.14,0.47-0.31c0.14-0.15,0.22-0.3,0.24-0.48L36,6.84l0.06,0.06
		c0.13,0.12,0.38,0.03,0.43-0.14c0.03-0.11-0.03-0.2-0.47-0.74c-0.54-0.67-0.67-0.76-1.04-0.76C34.87,5.25,34.76,5.27,34.66,5.31z
		 M35.72,6.49c0.09,0.2,0.01,0.43-0.2,0.63c-0.25,0.22-0.51,0.22-0.63-0.02c-0.13-0.25,0.09-0.57,0.52-0.77l0.15-0.07l0.06,0.07
		C35.65,6.37,35.7,6.44,35.72,6.49z"/>
	<path class="st0" d="M63.6,7.79c-0.23,0.03-0.68,0.1-1,0.14c-0.32,0.05-0.61,0.09-0.63,0.1c-0.05,0.02-0.12,0.15-0.12,0.22
		c0,0.03,0.03,0.09,0.07,0.14l0.07,0.09l0.23-0.02c0.13-0.01,0.25-0.02,0.28-0.02c0.04-0.01,0.11,0.09,0.31,0.41l0.26,0.42
		l-0.13,0.19c-0.11,0.15-0.14,0.22-0.14,0.3c0,0.14,0.09,0.22,0.22,0.23c0.13,0.01,0.16-0.02,0.34-0.27
		c0.91-1.33,1.03-1.51,1.04-1.6c0.03-0.18-0.11-0.36-0.29-0.38C64.05,7.73,63.82,7.75,63.6,7.79z M63.6,8.53
		c-0.12,0.17-0.22,0.3-0.24,0.31c-0.02,0.01-0.33-0.47-0.31-0.49c0.01-0.01,0.6-0.11,0.69-0.12C63.81,8.23,63.8,8.24,63.6,8.53z"/>
	<path class="st0" d="M31.91,7.93c-0.06,0.01-0.18,0.15-0.79,0.9c-0.21,0.26-0.23,0.35-0.1,0.48c0.14,0.15,1.45,1.2,1.51,1.2
		c0.11,0.01,0.16-0.01,0.21-0.05c0.05-0.05,0.77-0.93,0.85-1.04c0.06-0.09,0.06-0.19-0.01-0.28c-0.04-0.05-0.08-0.07-0.16-0.07
		c-0.13,0-0.14,0.01-0.54,0.52c-0.15,0.18-0.28,0.33-0.29,0.33c-0.01,0-0.1-0.06-0.19-0.13c-0.11-0.09-0.17-0.15-0.15-0.17
		c0.01-0.02,0.13-0.15,0.25-0.31c0.3-0.37,0.32-0.4,0.32-0.49c0-0.09-0.08-0.18-0.18-0.21c-0.1-0.03-0.2,0.05-0.47,0.39
		C32,9.19,31.87,9.34,31.86,9.34c-0.03,0-0.34-0.24-0.34-0.27c0-0.01,0.11-0.15,0.23-0.31c0.38-0.46,0.43-0.54,0.43-0.62
		C32.19,8,32.06,7.91,31.91,7.93z"/>
	<path class="st0" d="M64.49,10.53c-1.01,0.37-0.99,0.36-1.04,0.48c-0.03,0.08-0.03,0.1,0,0.18c0.04,0.1,0.11,0.15,0.22,0.15
		c0.05,0,0.33-0.09,0.63-0.2c0.3-0.11,0.55-0.2,0.56-0.19c0.01,0.01-0.18,0.31-0.4,0.66c-0.23,0.36-0.44,0.69-0.47,0.75
		c-0.1,0.19,0.01,0.42,0.2,0.42c0.09,0,1.54-0.51,1.81-0.64c0.12-0.06,0.19-0.17,0.16-0.28c-0.02-0.09-0.14-0.2-0.23-0.2
		c-0.04,0-0.31,0.09-0.61,0.2c-0.3,0.11-0.55,0.19-0.55,0.19c-0.01-0.01,0.19-0.32,0.43-0.71c0.47-0.73,0.49-0.78,0.42-0.96
		c-0.04-0.09-0.15-0.16-0.25-0.16C65.34,10.23,64.95,10.37,64.49,10.53z"/>
	<path class="st0" d="M29.94,10.58c-0.05,0.02-0.1,0.06-0.11,0.09c-0.04,0.07-0.04,0.2,0,0.27c0.02,0.03,0.18,0.13,0.36,0.23
		l0.33,0.18l-0.2,0.39c-0.11,0.22-0.21,0.4-0.22,0.4c-0.01,0.01-0.15-0.06-0.33-0.15c-0.18-0.09-0.36-0.17-0.4-0.17
		c-0.04,0-0.11,0.03-0.15,0.07c-0.06,0.05-0.08,0.09-0.08,0.17c0,0.17,0,0.18,0.8,0.6c0.15,0.08,0.43,0.23,0.61,0.32
		c0.41,0.22,0.5,0.24,0.61,0.13c0.06-0.06,0.08-0.1,0.08-0.19c0-0.13-0.07-0.2-0.4-0.36c-0.37-0.19-0.35-0.14-0.17-0.5
		c0.09-0.17,0.18-0.34,0.21-0.39c0.03-0.05,0.05-0.09,0.06-0.09c0.01,0,0.17,0.08,0.35,0.17c0.3,0.15,0.34,0.17,0.42,0.15
		c0.11-0.03,0.15-0.07,0.18-0.18c0.05-0.16-0.03-0.24-0.36-0.42c-0.95-0.5-1.41-0.74-1.46-0.75C30.05,10.55,29.98,10.56,29.94,10.58
		z"/>
	<path class="st0" d="M65.79,13.88l-0.48,0.49l-0.35,0.06c-0.42,0.07-0.48,0.11-0.48,0.3c0,0.13,0.06,0.21,0.18,0.24
		c0.04,0.01,0.22-0.01,0.41-0.04l0.34-0.06l0.59,0.3c0.64,0.32,0.72,0.34,0.84,0.23c0.09-0.08,0.1-0.23,0.02-0.33
		c-0.03-0.04-0.22-0.15-0.54-0.3l-0.48-0.23l0.4-0.4c0.37-0.38,0.4-0.41,0.4-0.5c0-0.14-0.12-0.26-0.26-0.26
		C66.28,13.39,66.25,13.41,65.79,13.88z"/>
	<path class="st0" d="M28.58,13.6c-0.03,0.01-0.07,0.05-0.09,0.07c-0.04,0.08-0.4,1.48-0.4,1.57c0,0.12,0.1,0.22,0.22,0.22
		c0.15,0,0.2-0.06,0.28-0.36c0.05-0.18,0.09-0.27,0.11-0.26c0.02,0,0.36,0.09,0.77,0.19c0.4,0.1,0.77,0.19,0.81,0.19
		c0.2,0,0.3-0.26,0.17-0.41c-0.05-0.06-0.18-0.1-0.85-0.27c-0.43-0.11-0.79-0.21-0.8-0.21s0.02-0.11,0.05-0.23
		c0.07-0.28,0.07-0.36,0.01-0.44C28.82,13.6,28.67,13.57,28.58,13.6z"/>
	<path class="st0" d="M28.74,17.36c-0.37,0.19-0.35,0.73,0.03,0.9c0.19,0.09,0.43,0.04,0.57-0.13c0.1-0.11,0.14-0.23,0.13-0.38
		C29.44,17.4,29.06,17.2,28.74,17.36z"/>
	<path class="st0" d="M65.68,17.36c-0.37,0.18-0.35,0.73,0.03,0.9c0.19,0.09,0.39,0.05,0.55-0.1c0.12-0.11,0.17-0.23,0.15-0.41
		C66.38,17.4,66.01,17.2,65.68,17.36z"/>
	<path class="st0" d="M29.25,20.27c-0.44,0.12-0.83,0.23-0.87,0.24c-0.19,0.05-0.27,0.27-0.15,0.43c0.07,0.09,0.19,0.09,0.57-0.01
		c0.16-0.04,0.3-0.07,0.31-0.06c0.01,0.01,0.07,0.2,0.13,0.43c0.06,0.22,0.13,0.44,0.15,0.47c0.1,0.15,0.36,0.1,0.4-0.09
		c0.01-0.05-0.1-0.52-0.22-0.92c-0.01-0.03,0.03-0.06,0.2-0.1c0.11-0.03,0.22-0.06,0.23-0.06c0.01,0,0.09,0.22,0.16,0.5
		c0.11,0.4,0.15,0.51,0.2,0.57c0.09,0.09,0.2,0.1,0.3,0.02c0.1-0.08,0.09-0.19-0.1-0.9c-0.19-0.7-0.22-0.75-0.41-0.74
		C30.09,20.05,29.69,20.15,29.25,20.27z"/>
	<path class="st0" d="M64.64,20.1c-0.05,0.05-0.09,0.2-0.18,0.69c-0.07,0.35-0.12,0.67-0.12,0.72c0,0.12,0.06,0.2,0.17,0.23
		c0.14,0.05,1.73,0.35,1.83,0.35c0.12,0,0.2-0.06,0.23-0.17c0.06-0.19,0.24-1.25,0.24-1.35c-0.01-0.15-0.11-0.22-0.24-0.2
		c-0.06,0.01-0.11,0.04-0.14,0.08c-0.02,0.03-0.09,0.29-0.14,0.56c-0.05,0.28-0.11,0.51-0.11,0.52c-0.02,0.02-0.42-0.05-0.45-0.07
		c0,0,0.03-0.19,0.07-0.42c0.04-0.23,0.08-0.45,0.08-0.49c0-0.17-0.23-0.27-0.37-0.15c-0.05,0.04-0.07,0.14-0.15,0.5
		c-0.05,0.24-0.1,0.45-0.1,0.46c-0.03,0.03-0.4-0.05-0.41-0.09c-0.01-0.02,0.03-0.26,0.08-0.54c0.09-0.47,0.1-0.51,0.06-0.58
		c-0.05-0.09-0.09-0.11-0.21-0.11C64.73,20.05,64.68,20.07,64.64,20.1z"/>
	<path class="st0" d="M30.75,22.84c-0.87,0.46-1.42,0.77-1.45,0.83c-0.02,0.03-0.03,0.09-0.04,0.13c0,0.07,0.62,1.23,0.7,1.31
		c0.03,0.03,0.09,0.05,0.14,0.05c0.19,0,0.29-0.2,0.18-0.39c-0.1-0.16-0.46-0.84-0.45-0.85c0.03-0.03,0.36-0.2,0.39-0.2
		c0.01,0,0.12,0.17,0.23,0.38c0.11,0.21,0.23,0.4,0.26,0.43c0.05,0.05,0.17,0.06,0.25,0.03c0.05-0.02,0.12-0.15,0.12-0.21
		c0-0.02-0.1-0.22-0.21-0.44c-0.12-0.22-0.21-0.4-0.21-0.42c0-0.02,0.38-0.23,0.39-0.22c0,0.01,0.12,0.21,0.25,0.46
		c0.14,0.25,0.26,0.47,0.28,0.49c0.02,0.02,0.08,0.04,0.13,0.05c0.08,0.01,0.11,0,0.17-0.05c0.13-0.13,0.1-0.2-0.26-0.86
		c-0.28-0.52-0.34-0.61-0.41-0.64c-0.05-0.02-0.1-0.03-0.11-0.03C31.06,22.68,30.91,22.75,30.75,22.84z"/>
	<path class="st0" d="M64.17,22.86c-0.19,0.1-0.4,0.36-0.51,0.64c-0.1,0.25-0.1,0.64-0.01,0.86c0.16,0.4,0.52,0.68,0.98,0.75
		c0.48,0.07,0.97-0.2,1.19-0.65c0.16-0.34,0.19-0.67,0.07-0.94c-0.09-0.19-0.29-0.22-0.41-0.06c-0.05,0.07-0.05,0.08-0.02,0.26
		c0.02,0.1,0.03,0.23,0.02,0.3c-0.08,0.48-0.56,0.72-1.02,0.49c-0.48-0.23-0.53-0.83-0.1-1.16c0.18-0.14,0.22-0.24,0.16-0.37
		C64.45,22.82,64.32,22.78,64.17,22.86z"/>
	<path class="st0" d="M32.43,25.12c-0.23,0.15-1.44,1.2-1.46,1.26c-0.02,0.04-0.02,0.1-0.01,0.14c0.01,0.04,0.22,0.31,0.46,0.6
		c0.46,0.56,0.53,0.61,0.68,0.56c0.09-0.03,0.13-0.09,0.13-0.22c0-0.08-0.05-0.15-0.35-0.51c-0.19-0.23-0.35-0.42-0.35-0.42
		c0-0.01,0.34-0.28,0.35-0.28c0.01,0,0.13,0.14,0.27,0.31c0.32,0.39,0.34,0.41,0.46,0.41c0.13,0,0.22-0.09,0.22-0.22
		c0-0.08-0.04-0.15-0.3-0.45l-0.3-0.36l0.16-0.14c0.09-0.08,0.17-0.14,0.18-0.14c0.02,0,0.18,0.18,0.36,0.4
		c0.18,0.22,0.36,0.41,0.39,0.43c0.13,0.06,0.31-0.06,0.31-0.2c0-0.05-0.03-0.12-0.06-0.16c-0.16-0.22-0.85-1.02-0.89-1.03
		C32.6,25.06,32.5,25.08,32.43,25.12z"/>
	<path class="st0" d="M62.69,25.65c-0.1,0.05-0.14,0.18-0.11,0.29c0.02,0.07,0.1,0.14,0.53,0.43c0.48,0.32,0.5,0.34,0.42,0.36
		c-0.04,0.01-0.39,0.03-0.78,0.05c-0.39,0.02-0.75,0.04-0.8,0.06c-0.11,0.03-0.23,0.18-0.23,0.28c0,0.15,0.05,0.19,0.85,0.74
		c0.7,0.48,0.82,0.55,0.91,0.55c0.14,0,0.23-0.09,0.23-0.23c0-0.06-0.02-0.13-0.05-0.16c-0.04-0.05-0.35-0.26-0.88-0.62
		c-0.08-0.05-0.14-0.1-0.14-0.11c0-0.01,0.03-0.02,0.08-0.02c0.04,0,0.43-0.02,0.86-0.04c0.54-0.03,0.8-0.05,0.85-0.08
		c0.09-0.05,0.17-0.21,0.15-0.29c-0.01-0.03-0.04-0.09-0.06-0.11c-0.09-0.11-1.58-1.1-1.67-1.11C62.8,25.61,62.73,25.63,62.69,25.65
		z"/>
	<path class="st0" d="M34.26,27.16c-0.05,0.05-0.35,0.39-0.67,0.75c-0.55,0.63-0.57,0.67-0.57,0.77c0,0.13,0.05,0.18,0.66,0.7
		c0.43,0.37,0.48,0.39,0.62,0.25c0.15-0.15,0.11-0.24-0.33-0.61c-0.2-0.17-0.36-0.31-0.36-0.32c0-0.01,0.21-0.26,0.47-0.56
		c0.65-0.75,0.62-0.7,0.62-0.82c0-0.14-0.11-0.24-0.25-0.24C34.37,27.07,34.33,27.09,34.26,27.16z"/>
	<path class="st0" d="M60.8,28.13c-0.1,0.07-0.97,0.89-1,0.96c-0.05,0.08-0.04,0.18,0.02,0.27c0.11,0.14,1.25,1.34,1.3,1.37
		c0.1,0.05,0.21,0.03,0.31-0.06c0.31-0.26,0.97-0.92,0.98-0.97c0.02-0.09-0.03-0.21-0.11-0.25c-0.15-0.07-0.18-0.04-0.57,0.32
		c-0.2,0.19-0.39,0.36-0.41,0.38c-0.04,0.03-0.12-0.04-0.26-0.21l-0.08-0.1l0.34-0.32c0.32-0.31,0.34-0.33,0.34-0.43
		c0-0.2-0.2-0.29-0.36-0.17c-0.04,0.03-0.2,0.18-0.35,0.32l-0.28,0.26l-0.16-0.17l-0.16-0.16l0.12-0.11
		c0.62-0.58,0.69-0.65,0.69-0.75c0-0.05-0.02-0.12-0.05-0.15C61.04,28.09,60.89,28.07,60.8,28.13z"/>
	<path class="st0" d="M36.44,28.87c-0.08,0.08-0.09,0.21-0.03,0.3c0.02,0.03,0.13,0.11,0.24,0.18c0.11,0.07,0.2,0.14,0.2,0.15
		c0,0.02-0.19,0.33-0.43,0.71c-0.35,0.56-0.43,0.7-0.43,0.77c0.01,0.19,0.24,0.31,0.38,0.19c0.04-0.03,0.26-0.36,0.5-0.73l0.43-0.68
		l0.23,0.15c0.14,0.09,0.26,0.14,0.31,0.14c0.09,0,0.23-0.13,0.23-0.21c0-0.14-0.05-0.18-0.71-0.6
		C36.63,28.77,36.56,28.74,36.44,28.87z"/>
	<path class="st0" d="M58.37,30.16c-0.18,0.06-0.88,0.49-0.98,0.59c-0.11,0.12-0.1,0.19,0.09,0.51c0.57,0.93,0.78,1.27,0.82,1.33
		c0.09,0.14,0.32,0.14,0.41,0.01c0.08-0.11,0.05-0.24-0.09-0.47c-0.07-0.12-0.13-0.22-0.13-0.23c0-0.03,0.3-0.2,0.35-0.2
		c0.02,0,0.2,0.06,0.4,0.14c0.42,0.16,0.53,0.17,0.64,0.06c0.1-0.1,0.1-0.21,0.02-0.31c-0.05-0.06-0.16-0.1-0.62-0.27
		c-0.02-0.01-0.01-0.05,0.03-0.14c0.19-0.37-0.04-0.9-0.44-1.03C58.71,30.1,58.54,30.1,58.37,30.16z M58.73,30.67
		c0.09,0.06,0.16,0.24,0.14,0.32c-0.03,0.12-0.1,0.19-0.33,0.33c-0.13,0.08-0.26,0.15-0.27,0.16c-0.02,0.01-0.1-0.09-0.2-0.26
		c-0.09-0.15-0.16-0.27-0.16-0.27c0.08-0.05,0.43-0.26,0.49-0.29C58.51,30.6,58.65,30.6,58.73,30.67z"/>
	<path class="st0" d="M38.86,30.27c-0.04,0.03-0.15,0.24-0.25,0.46c-0.1,0.22-0.28,0.61-0.4,0.86c-0.12,0.25-0.22,0.5-0.22,0.54
		c0,0.11,0.13,0.23,0.25,0.23c0.14,0,0.21-0.07,0.36-0.42c0.08-0.18,0.16-0.32,0.18-0.32c0.04,0,0.81,0.36,0.81,0.38
		c0,0.01-0.07,0.15-0.15,0.32c-0.08,0.18-0.15,0.35-0.15,0.4c0,0.18,0.2,0.3,0.36,0.22c0.06-0.03,0.14-0.17,0.49-0.92
		c0.45-0.96,0.47-1.03,0.34-1.14c-0.1-0.09-0.27-0.09-0.35,0c-0.03,0.04-0.12,0.2-0.2,0.37c-0.09,0.18-0.15,0.3-0.17,0.29
		c-0.04-0.01-0.77-0.35-0.79-0.37c-0.01-0.01,0.06-0.15,0.14-0.33c0.18-0.37,0.19-0.45,0.07-0.56
		C39.1,30.19,38.96,30.19,38.86,30.27z"/>
	<path class="st0" d="M55.51,31.57c-0.34,0.13-0.65,0.26-0.67,0.28c-0.11,0.1-0.1,0.17,0.26,1.09c0.19,0.49,0.36,0.9,0.39,0.94
		c0.04,0.04,0.09,0.06,0.16,0.06c0.12,0,1.29-0.44,1.38-0.51c0.07-0.06,0.08-0.22,0.02-0.3c-0.08-0.11-0.16-0.1-0.69,0.1
		c-0.27,0.1-0.51,0.19-0.52,0.19c-0.03,0-0.17-0.39-0.15-0.42c0.01-0.01,0.2-0.09,0.43-0.18c0.45-0.17,0.5-0.21,0.5-0.37
		c0-0.1-0.11-0.2-0.21-0.2c-0.04,0-0.26,0.07-0.48,0.16c-0.23,0.09-0.41,0.16-0.42,0.16c-0.02,0-0.14-0.41-0.13-0.43
		c0.01-0.01,0.23-0.1,0.49-0.2c0.26-0.1,0.48-0.19,0.51-0.22c0.12-0.11,0.01-0.38-0.16-0.38C56.17,31.33,55.85,31.44,55.51,31.57z"
		/>
	<path class="st0" d="M41.63,31.43c-0.04,0.02-0.09,0.06-0.1,0.09c-0.05,0.1-0.59,1.77-0.59,1.84c0,0.16,0.06,0.2,0.76,0.42
		c0.36,0.12,0.68,0.22,0.71,0.22c0.11,0,0.21-0.1,0.21-0.21c0-0.17-0.04-0.2-0.59-0.38c-0.28-0.09-0.52-0.17-0.52-0.17
		c-0.01-0.01,0.13-0.44,0.15-0.44c0.01,0,0.2,0.06,0.43,0.13c0.23,0.07,0.44,0.13,0.47,0.13c0.11,0,0.2-0.1,0.2-0.21
		c0-0.17-0.04-0.2-0.52-0.35c-0.24-0.07-0.44-0.15-0.44-0.17c0-0.02,0.03-0.11,0.06-0.22c0.05-0.14,0.07-0.18,0.11-0.18
		c0.02,0.01,0.24,0.07,0.49,0.15c0.24,0.08,0.48,0.15,0.52,0.15c0.17,0,0.27-0.25,0.15-0.37c-0.04-0.04-1.32-0.48-1.4-0.48
		C41.72,31.39,41.67,31.4,41.63,31.43z"/>
	<path class="st0" d="M53.36,32.24c-0.12,0.02-0.41,0.09-0.65,0.14c-0.48,0.1-0.56,0.14-0.56,0.3c0,0.06,0.28,1.51,0.36,1.85
		c0.04,0.16,0.22,0.24,0.37,0.16c0.14-0.07,0.15-0.17,0.07-0.58c-0.03-0.15-0.05-0.29-0.04-0.31c0.01-0.02,0.19-0.07,0.46-0.12
		c0.41-0.08,0.45-0.09,0.51-0.17c0.08-0.1,0.07-0.22-0.03-0.31c-0.09-0.07-0.1-0.07-0.6,0.03c-0.35,0.07-0.43,0.08-0.44,0.05
		c-0.03-0.05-0.09-0.39-0.07-0.41c0.01-0.01,0.25-0.06,0.53-0.12c0.44-0.09,0.52-0.11,0.57-0.17c0.08-0.09,0.08-0.21-0.02-0.31
		C53.72,32.17,53.67,32.17,53.36,32.24z"/>
	<path class="st0" d="M45.08,32.35c-0.05,0.02-0.1,0.06-0.11,0.09c-0.03,0.07-0.3,1.73-0.3,1.89c0,0.07,0.02,0.13,0.06,0.18
		c0.05,0.06,0.1,0.08,0.47,0.13c0.48,0.08,0.59,0.08,0.82,0.03c0.23-0.06,0.4-0.15,0.56-0.32c0.16-0.17,0.23-0.31,0.28-0.56
		c0.1-0.47-0.09-0.91-0.48-1.16c-0.2-0.13-0.41-0.19-0.82-0.25c-0.17-0.02-0.33-0.05-0.36-0.06C45.19,32.32,45.13,32.34,45.08,32.35
		z M45.74,32.88c0.47,0.08,0.72,0.43,0.6,0.86c-0.08,0.28-0.25,0.44-0.51,0.49c-0.11,0.02-0.57-0.02-0.61-0.06
		c-0.01-0.01,0.17-1.24,0.19-1.31c0.01-0.02,0.04-0.03,0.09-0.02C45.53,32.84,45.64,32.86,45.74,32.88z"/>
	<path class="st0" d="M50.17,32.67c-0.55,0.03-0.63,0.06-0.67,0.19c-0.02,0.09,0.07,1.83,0.1,1.96c0.03,0.13,0.15,0.19,0.3,0.17
		c0.17-0.03,0.19-0.09,0.17-0.52c-0.01-0.33-0.01-0.37,0.03-0.38c0.02-0.01,0.23-0.02,0.46-0.03c0.46-0.02,0.54-0.05,0.58-0.18
		c0.02-0.07,0.02-0.1-0.01-0.17c-0.06-0.13-0.1-0.14-0.71-0.1l-0.39,0.02l-0.01-0.22c-0.01-0.12-0.01-0.23,0-0.24
		c0.01-0.01,0.25-0.03,0.55-0.05c0.29-0.02,0.55-0.05,0.58-0.06c0.11-0.07,0.14-0.26,0.04-0.35C51.11,32.63,51.03,32.62,50.17,32.67
		z"/>
	<path class="st0" d="M48.05,32.72c-0.04,0.03-0.07,0.09-0.08,0.14c-0.01,0.08-0.1,1.7-0.1,1.88c0,0.13,0.12,0.24,0.25,0.24
		c0.12,0,0.23-0.09,0.24-0.19c0.02-0.1,0.09-1.61,0.09-1.84c0-0.12-0.01-0.16-0.07-0.21C48.3,32.64,48.14,32.64,48.05,32.72z"/>
	<g>
		<path class="st0" d="M65.64,5.88V4.98h0.38c0.1,0,0.17,0.01,0.21,0.02c0.04,0.02,0.08,0.04,0.11,0.09
			c0.03,0.04,0.04,0.09,0.04,0.14c0,0.07-0.02,0.12-0.06,0.17s-0.1,0.07-0.18,0.08c0.04,0.02,0.07,0.05,0.1,0.08
			c0.03,0.03,0.06,0.08,0.1,0.15l0.11,0.18h-0.22l-0.13-0.2c-0.05-0.07-0.08-0.11-0.1-0.13c-0.02-0.02-0.04-0.03-0.05-0.04
			S65.9,5.5,65.86,5.5h-0.04v0.38H65.64z M65.82,5.36h0.14c0.09,0,0.14,0,0.16-0.01c0.02-0.01,0.04-0.02,0.05-0.04
			c0.01-0.02,0.02-0.04,0.02-0.07c0-0.03-0.01-0.06-0.02-0.07s-0.04-0.03-0.07-0.04c-0.01,0-0.06,0-0.13,0h-0.14V5.36z"/>
	</g>
</g>
</svg>
