<?xml version="1.0" encoding="utf-8"?>
<!-- Generator: Adobe Illustrator 26.0.1, SVG Export Plug-In . SVG Version: 6.00 Build 0)  -->
<svg version="1.1" id="Layer_1" xmlns="http://www.w3.org/2000/svg" xmlns:xlink="http://www.w3.org/1999/xlink" x="0px" y="0px"
	 viewBox="0 0 95 35" style="enable-background:new 0 0 95 35;" xml:space="preserve">
<style type="text/css">
	.st0{fill:#FFFFFF;}
</style>
<g>
	<path class="st0" d="M17.17,2.1h0.02l0.96,3.18h-1.94L17.17,2.1z M16.16,0.22l-2.86,7.71h2.07l0.39-1.21h2.86l0.39,1.21h2.08
		l-2.93-7.71H16.16z"/>
	<path class="st0" d="M25.15,8.14c1.49,0,3.29-0.79,3.29-2.9V0.22H26.5v4.86c0,0.87-0.34,1.51-1.35,1.51c-1,0-1.34-0.64-1.34-1.51
		V0.22h-1.94v5.02C21.87,7.35,23.67,8.14,25.15,8.14"/>
	<path class="st0" d="M32.93,6.58c-0.93,0-1.57-0.36-2.24-0.96l-1.48,0.95c1.06,1.15,2.18,1.57,3.5,1.57c1.45,0,3.55-0.43,3.55-2.75
		c0-1.47-1.27-1.95-2.82-2.2l-0.74-0.12c-0.74-0.12-1.08-0.33-1.08-0.74c0-0.5,0.65-0.78,1.1-0.78c0.82,0,1.57,0.36,2.08,0.97
		l1.47-1.05C35.39,0.52,34.13,0,32.85,0c-1.65,0-3.17,0.77-3.17,2.63c0,1.14,0.78,1.89,2.22,2.12l1.61,0.26
		c0.58,0.1,0.87,0.29,0.87,0.68C34.38,6.37,33.45,6.58,32.93,6.58"/>
	<polygon class="st0" points="39.24,7.93 41.18,7.93 41.18,1.71 43.2,1.71 43.2,0.22 37.21,0.22 37.21,1.71 39.24,1.71 	"/>
	<path class="st0" d="M48.12,3.73h-1.78V1.65h1.78c0.62,0.01,1.03,0.32,1.03,1.04C49.16,3.4,48.74,3.71,48.12,3.73 M49.49,4.83
		c0.97-0.28,1.6-1.08,1.6-2.08c0-1.73-1.07-2.53-2.81-2.53h-3.88v7.71h1.94V5.15h1.23l1.52,2.77h2.17L49.49,4.83z"/>
	<path class="st0" d="M55.12,5.28l0.96-3.18h0.02l0.96,3.18H55.12z M57.07,0.22h-2L52.2,7.93h2.07l0.39-1.21h2.86l0.39,1.21H60
		L57.07,0.22z"/>
	<polygon class="st0" points="65.75,6.3 62.72,6.3 62.72,0.22 60.78,0.22 60.78,7.93 65.75,7.93 	"/>
	<rect x="66.84" y="0.22" class="st0" width="1.94" height="7.71"/>
	<path class="st0" d="M72.48,5.28l0.96-3.18h0.02l0.96,3.18H72.48z M74.43,0.22h-2l-2.86,7.71h2.07l0.39-1.21h2.86l0.39,1.21h2.08
		L74.43,0.22z"/>
	<polygon class="st0" points="82.94,0.22 82.94,5.14 82.92,5.14 80.1,0.22 78.14,0.22 78.14,7.93 79.9,7.93 79.9,3.08 79.92,3.08 
		82.77,7.93 84.71,7.93 84.71,0.22 	"/>
	<polygon class="st0" points="15.95,13.78 19.64,13.78 19.64,12.29 15.95,12.29 15.95,10.66 19.93,10.66 19.93,9.17 14.01,9.17 
		14.01,16.88 15.95,16.88 	"/>
	<path class="st0" d="M24.45,15.47c-1.52,0-1.98-1.32-1.98-2.45c0-1.73,0.85-2.45,1.98-2.45c1.44,0,1.98,1.23,1.98,2.45
		C26.43,14.21,25.89,15.47,24.45,15.47 M24.45,8.95c-2.47,0-3.92,1.91-3.92,4.07c0,2.17,1.45,4.07,3.92,4.07
		c2.47,0,3.92-1.91,3.92-4.07C28.37,10.86,26.92,8.95,24.45,8.95"/>
	<path class="st0" d="M29.43,9.17v5.02c0,2.11,1.8,2.9,3.28,2.9c1.49,0,3.29-0.79,3.29-2.9V9.17h-1.94v4.86
		c0,0.87-0.34,1.51-1.35,1.51c-1,0-1.34-0.64-1.34-1.51V9.17H29.43z"/>
	<polygon class="st0" points="38.93,12.03 38.95,12.03 41.8,16.88 43.73,16.88 43.73,9.17 41.97,9.17 41.97,14.1 41.95,14.1 
		39.13,9.17 37.17,9.17 37.17,16.88 38.93,16.88 	"/>
	<path class="st0" d="M48.12,15.25h-1.11v-4.46h1.1c1.46,0,1.98,0.99,1.98,2.23C50.09,14.27,49.57,15.25,48.12,15.25 M48.08,9.17
		h-3.01v7.71h3.01c2.36,0,3.95-1.11,3.95-3.85C52.03,10.28,50.44,9.17,48.08,9.17"/>
	<path class="st0" d="M54.85,14.24l0.96-3.18h0.02l0.96,3.18H54.85z M56.8,9.17H54.8l-2.86,7.71H54l0.39-1.21h2.86l0.39,1.21h2.08
		L56.8,9.17z"/>
	<polygon class="st0" points="63.05,16.88 63.05,10.66 65.07,10.66 65.07,9.17 59.09,9.17 59.09,10.66 61.11,10.66 61.11,16.88 	"/>
	<rect x="65.96" y="9.17" class="st0" width="1.94" height="7.71"/>
	<path class="st0" d="M72.98,15.47c-1.53,0-1.98-1.32-1.98-2.45c0-1.73,0.85-2.45,1.98-2.45c1.44,0,1.98,1.23,1.98,2.45
		C74.96,14.21,74.41,15.47,72.98,15.47 M72.98,8.95c-2.47,0-3.92,1.91-3.92,4.07c0,2.17,1.45,4.07,3.92,4.07
		c2.47,0,3.92-1.91,3.92-4.07C76.9,10.86,75.45,8.95,72.98,8.95"/>
	<polygon class="st0" points="82.87,14.1 82.84,14.1 80.02,9.17 78.06,9.17 78.06,16.88 79.83,16.88 79.83,12.03 79.85,12.03 
		82.69,16.88 84.63,16.88 84.63,9.17 82.87,9.17 	"/>
	<rect x="14.01" y="18.12" class="st0" width="1.94" height="7.71"/>
	<polygon class="st0" points="19.21,20.98 19.24,20.98 22.08,25.83 24.02,25.83 24.02,18.12 22.25,18.12 22.25,23.05 22.23,23.05 
		19.41,18.12 17.45,18.12 17.45,25.83 19.21,25.83 	"/>
	<polygon class="st0" points="30.12,18.12 28.49,23.62 28.47,23.62 26.89,18.12 24.83,18.12 27.42,25.83 29.48,25.83 32.16,18.12 	
		"/>
	<polygon class="st0" points="34.91,22.52 38.43,22.52 38.43,21.02 34.91,21.02 34.91,19.62 38.68,19.62 38.68,18.12 32.98,18.12 
		32.98,25.83 39.01,25.83 39.01,24.34 34.91,24.34 	"/>
	<path class="st0" d="M43.24,24.49c-0.93,0-1.57-0.36-2.24-0.96l-1.48,0.95c1.06,1.15,2.18,1.57,3.49,1.57
		c1.45,0,3.55-0.43,3.55-2.75c0-1.47-1.27-1.95-2.82-2.2L43,20.98c-0.74-0.12-1.08-0.33-1.08-0.74c0-0.5,0.65-0.78,1.1-0.78
		c0.82,0,1.57,0.36,2.08,0.97l1.47-1.05c-0.87-0.96-2.13-1.48-3.42-1.48c-1.66,0-3.17,0.77-3.17,2.63c0,1.14,0.78,1.9,2.22,2.12
		l1.61,0.26c0.58,0.1,0.87,0.29,0.87,0.68C44.69,24.27,43.76,24.49,43.24,24.49"/>
	<polygon class="st0" points="51.05,25.83 51.05,19.62 53.08,19.62 53.08,18.12 47.09,18.12 47.09,19.62 49.11,19.62 49.11,25.83 	
		"/>
	<polygon class="st0" points="58.15,23.85 58.13,23.85 56.76,18.12 53.91,18.12 53.91,25.83 55.68,25.83 55.68,19.84 55.7,19.84 
		57.28,25.83 58.99,25.83 60.52,19.84 60.54,19.84 60.54,25.83 62.37,25.83 62.37,18.12 59.56,18.12 	"/>
	<polygon class="st0" points="69.87,24.34 65.77,24.34 65.77,22.52 69.29,22.52 69.29,21.02 65.77,21.02 65.77,19.62 69.54,19.62 
		69.54,18.12 63.83,18.12 63.83,25.83 69.87,25.83 	"/>
	<polygon class="st0" points="75.69,23.05 75.67,23.05 72.85,18.12 70.89,18.12 70.89,25.83 72.65,25.83 72.65,20.98 72.67,20.98 
		75.52,25.83 77.45,25.83 77.45,18.12 75.69,18.12 	"/>
	<polygon class="st0" points="78.55,19.62 80.58,19.62 80.58,25.83 82.52,25.83 82.52,19.62 84.54,19.62 84.54,18.12 78.55,18.12 	
		"/>
	<path class="st0" d="M66.39,29.74l-1.64-2.66h-2.27l2.94,4.12v3.59h1.94v-3.59l2.94-4.12h-2.27L66.39,29.74z M59.95,32h-0.02
		l-2.82-4.93h-1.96v7.71h1.76v-4.85h0.02l2.84,4.85h1.94v-7.71h-1.76V32z M49.48,32.14l0.96-3.18h0.02l0.96,3.18H49.48z
		 M49.43,27.07l-2.86,7.71h2.07l0.39-1.21h2.86l0.39,1.21h2.08l-2.93-7.71H49.43z M43.79,30.86h-1.63V28.5h1.58
		c0.88,0,1.25,0.42,1.25,1.19C44.99,30.29,44.67,30.86,43.79,30.86 M44.06,27.07h-3.84v7.71h1.96v-2.49h1.51
		c2.66,0,3.23-1.58,3.23-2.61C46.92,28.16,46.15,27.07,44.06,27.07 M34.53,32.8h-0.02l-1.37-5.73H30.3v7.71h1.76v-5.99h0.02
		l1.58,5.99h1.71l1.53-5.99h0.02v5.99h1.83v-7.71h-2.81L34.53,32.8z M25.26,33.37c-1.52,0-1.98-1.32-1.98-2.45
		c0-1.73,0.85-2.45,1.98-2.45c1.44,0,1.98,1.23,1.98,2.45C27.24,32.12,26.69,33.37,25.26,33.37 M25.26,26.86
		c-2.47,0-3.92,1.91-3.92,4.07c0,2.17,1.45,4.07,3.92,4.07c2.47,0,3.92-1.91,3.92-4.07C29.18,28.76,27.73,26.86,25.26,26.86
		 M17.59,33.37c-1.52,0-1.98-1.32-1.98-2.45c0-1.73,0.85-2.45,1.92-2.45c0.67,0,1.34,0.44,1.61,1.16l1.55-0.77
		c-0.72-1.28-1.72-2.01-3.24-2.01c-2.42,0-3.77,1.91-3.77,4.07c0,2.17,1.45,4.07,3.92,4.07c1.31,0,2.46-0.77,3.13-1.97l-1.53-0.74
		C18.88,32.99,18.12,33.37,17.59,33.37"/>
	<rect x="10.29" y="0.25" class="st0" width="0.64" height="34.47"/>
</g>
</svg>
