<?xml version="1.0" encoding="utf-8"?>
<!-- Generator: Adobe Illustrator 26.0.1, SVG Export Plug-In . SVG Version: 6.00 Build 0)  -->
<svg version="1.1" id="Layer_1" xmlns="http://www.w3.org/2000/svg" xmlns:xlink="http://www.w3.org/1999/xlink" x="0px" y="0px"
	 viewBox="0 0 95 35" style="enable-background:new 0 0 95 35;" xml:space="preserve">
<style type="text/css">
	.st0{fill:#CCCCCC;}
</style>
<path class="st0" d="M49.26,11.4c-0.54,0.18-1.39,0.39-2.55,0.64c-1.16,0.25-1.92,0.49-2.28,0.73c-0.54,0.39-0.82,0.88-0.82,1.47
	c0,0.59,0.22,1.09,0.66,1.52c0.44,0.43,0.99,0.64,1.67,0.64c0.76,0,1.47-0.25,2.16-0.74c0.51-0.38,0.84-0.84,1-1.39
	c0.11-0.36,0.16-1.04,0.16-2.04V11.4z M52.2,19h-2.06c-0.11-0.28-0.24-0.69-0.4-1.24c-0.07-0.25-0.11-0.41-0.15-0.49
	c-0.72,0.7-1.48,1.22-2.3,1.57c-0.81,0.35-1.68,0.52-2.61,0.52c-0.8,0-1.52-0.11-2.16-0.32l4.78,2.58L52.2,19z M44.86,2.94
	c0.56-0.08,1.18-0.12,1.85-0.12c1.87,0,3.26,0.22,4.18,0.67c0.91,0.44,1.56,1,1.93,1.68c0.37,0.68,0.56,1.93,0.56,3.75l-0.05,4.89
	c0,1.39,0.06,2.42,0.2,3.08c0.08,0.39,0.2,0.8,0.36,1.22L66,11.65L47.41,1.58L44.86,2.94z M43.66,8.01l-3.8-0.69
	c0.26-0.91,0.62-1.68,1.09-2.31l-12.33,6.54l12.49,6.73c-0.09-0.08-0.18-0.15-0.27-0.24c-0.94-0.89-1.41-2.01-1.41-3.36
	c0-0.89,0.21-1.69,0.64-2.39c0.43-0.7,1.03-1.24,1.8-1.61c0.77-0.37,1.88-0.7,3.33-0.98c1.95-0.37,3.31-0.71,4.07-1.03V8.26
	c0-0.81-0.2-1.38-0.59-1.72c-0.4-0.34-1.15-0.51-2.25-0.51c-0.75,0-1.33,0.15-1.74,0.44C44.26,6.75,43.92,7.27,43.66,8.01 M59.07,35
	v-9.25h3.12l1.94,6.68l1.93-6.68h3.19V35h-1.83v-7.82L65,35h-1.73l-2.42-7.82V35H59.07z M51.37,35v-9.25h6.13v1.53h-4.13v2.18h3.87
	v1.51h-3.87v2.49h4.27V35H51.37z M42.93,35v-9.25h1.97v3.99l3.02-3.99h2.22l-3.25,4.14L50.45,35h-2.29l-3.27-4.79V35H42.93z
	 M35.62,35v-9.25h1.97v7.68h4.17V35H35.62z M28.84,31.49h2.67l-1.27-3.92L28.84,31.49z M25.75,35l3.36-9.25h2.33L34.67,35h-2.01
	l-0.66-1.99h-3.66L27.61,35H25.75z M25.93,11.52L47.37,0l21.2,11.64L47.25,23.16L25.93,11.52z"/>
</svg>
