<?xml version="1.0" encoding="utf-8"?>
<!-- Generator: Adobe Illustrator 26.0.1, SVG Export Plug-In . SVG Version: 6.00 Build 0)  -->
<svg version="1.1" id="Layer_1" xmlns="http://www.w3.org/2000/svg" xmlns:xlink="http://www.w3.org/1999/xlink" x="0px" y="0px"
	 viewBox="0 0 95 35" style="enable-background:new 0 0 95 35;" xml:space="preserve">
<style type="text/css">
	.st0{fill-rule:evenodd;clip-rule:evenodd;fill:#343741;}
</style>
<path class="st0" d="M56.01,29.39c2.09,0,3.42,1.17,3.42,2.78C59.44,33.74,58.1,35,56,35c-2.11,0-3.43-1.27-3.43-2.84
	C52.57,30.56,53.9,29.39,56.01,29.39L56.01,29.39z M61.98,29.56v3.73h2.96v1.53H60.1v-5.27L61.98,29.56z M50.07,29.55
	c1.39,0,2.09,0.78,2.09,1.94c0,1.1-0.74,1.89-2.19,1.96l-0.19,0h-1.47v1.37h-1.88v-5.28H50.07z M40.63,29.56l0.8,2.9l0.84-2.9h2.8
	l0.51,5.27h-1.9l-0.31-3.63l-1.07,3.63h-1.89l-1-3.61l-0.26,3.6h-1.86l0.51-5.27H40.63z M36.44,29.56v5.27h-1.85v-0.86h-1.84
	l-0.53,0.86h-2.16l3.56-5.27H36.44z M56,30.91c-0.87,0-1.42,0.51-1.42,1.26c0,0.76,0.55,1.3,1.42,1.3c0.86,0,1.41-0.54,1.41-1.3
	C57.41,31.43,56.86,30.91,56,30.91z M34.59,30.97l-1.15,1.87h1.15V30.97z M49.39,30.85h-1.08v1.41h0.98c0.62,0,0.95-0.27,0.95-0.71
	c0-0.4-0.26-0.65-0.72-0.69L49.39,30.85z M59.8,0L43.3,24.42h-6.2L53.6,0H59.8z"/>
<path class="st0" d="M59.8,24.42h5.14V0H59.8V24.42z"/>
</svg>
