<?xml version="1.0" encoding="utf-8"?>
<!-- Generator: Adobe Illustrator 26.0.1, SVG Export Plug-In . SVG Version: 6.00 Build 0)  -->
<svg version="1.1" id="Layer_1" xmlns="http://www.w3.org/2000/svg" xmlns:xlink="http://www.w3.org/1999/xlink" x="0px" y="0px"
	 viewBox="0 0 95 35" style="enable-background:new 0 0 95 35;" xml:space="preserve">
<style type="text/css">
	.st0{fill-rule:evenodd;clip-rule:evenodd;fill:#CCCCCC;}
</style>
<g>
	<path class="st0" d="M3.88,24.44c0.23-0.86,1.01-2.63,2.4-4.49c1.15-1.53,3.63-3.47,3.63-3.47v7.95L3.88,24.44L3.88,24.44z
		 M59.55,15.71l-0.01-1.73l9.39-0.02l-0.02,1.76L59.55,15.71L59.55,15.71z M23.89,31.48l0.01-14.2l-1.85-0.01l-0.01,14.21
		L23.89,31.48L23.89,31.48z M64.14,12.29c2.68,0,4.85-2.17,4.85-4.85c0-2.68-2.17-4.85-4.85-4.85c-2.68,0-4.85,2.17-4.85,4.85
		C59.29,10.12,61.46,12.29,64.14,12.29L64.14,12.29z M49.5,18.99l-0.01-1.64l-17.92-0.01l-0.01,1.65L34.6,19l0.01,12.48l1.54-0.01
		l0-12.49L49.5,18.99L49.5,18.99z M95,17.03l-8.81-0.01l0.01,1.78l3.44,0l0,12.66l1.78,0l0-12.62L95,18.84L95,17.03L95,17.03z
		 M11.74,12.75c0,0-4.78,2.91-7.74,7.28C0.9,24.61,0,31.49,0,31.49l2.06-0.01l0.61-2.93l0.61-2.35l6.73,0l-0.01,5.3l1.75-0.02
		L11.74,12.75L11.74,12.75z M16.87,17.47c-1.21-0.5-3.35-0.32-3.35-0.32l-0.01,14.33l1.82,0.01l-0.02-4.33l0.29,0l0.29,0
		c0,0,0.86,2.32,2.03,3.25c0.97,0.77,2.93,1.2,2.93,1.2l0.02-1.76c0,0-1.6-0.56-2.32-1.3c-0.58-0.59-0.84-1.02-1.1-1.8
		c1.91-0.88,2.88-2.35,2.9-4.55C20.39,19.26,18.98,18.35,16.87,17.47L16.87,17.47z M18.59,21.89c0.01,2.99-3.2,3.35-3.2,3.35l0-6.32
		C15.39,18.93,18.59,19.11,18.59,21.89L18.59,21.89z M42.18,16.94c1.4-1.31,3.28-2.12,5.35-2.12c4.32,0,7.82,3.5,7.82,7.82
		c0,4.32-3.5,7.82-7.82,7.82c-4.32,0-7.82-3.5-7.82-7.82c0-1.13,0.18-2.14,0.61-3.11l-2.15-0.01c-0.35,1-0.42,1.99-0.42,3.11
		c0,5.4,4.37,9.77,9.77,9.77c5.4,0,9.77-4.37,9.77-9.77c0-5.4-4.37-9.77-9.77-9.77c-3.28,0-6.2,1.58-7.97,4.06L42.18,16.94
		L42.18,16.94z M68.97,29.65c-0.96,0.64-2.1,1.01-3.34,1.01c-3.33,0-6.02-2.7-6.02-6.02c0-3.33,2.7-6.02,6.02-6.02
		c1.23,0,2.37,0.37,3.32,1l0-1.73c-1-0.49-2.13-0.77-3.32-0.77c-4.16,0-7.53,3.37-7.53,7.53c0,4.16,3.37,7.53,7.53,7.53
		c1.17,0,2.49-0.27,3.48-0.75L68.97,29.65L68.97,29.65z M74.75,17.41c-1.25-0.39-3.35-0.32-3.35-0.32l-0.01,14.4l1.82-0.01
		l-0.02-4.38l0.29,0l0.29,0c0,0,0.86,2.32,2.03,3.25c0.98,0.78,2.94,1.2,2.94,1.2l0.01-1.76c0,0-1.6-0.56-2.32-1.3
		c-0.58-0.59-0.84-1.02-1.1-1.8c1.91-0.88,2.88-2.35,2.9-4.55C78.27,19.19,76.69,18.01,74.75,17.41L74.75,17.41z M76.48,21.83
		c0.01,2.99-3.2,3.35-3.2,3.35l0-6.32C73.27,18.86,76.47,19.05,76.48,21.83L76.48,21.83z M79.92,17.36l-0.01,14.1l1.6,0.02
		l-0.01-3.83l4.72,0c0,0,0.07,0.42,0.17,0.7c0.19,0.55,0.16,0.9,0.22,1.49c0.06,0.65,0.06,1.63,0.06,1.63l1.76,0.01
		c0,0,0.02-2.13-0.26-3.47c-0.33-1.56-0.8-2.37-1.44-3.83C84.78,19.64,79.92,17.36,79.92,17.36L79.92,17.36z M85.42,25.79l0.03,0.14
		l-3.93,0.02l-0.01-5.59c0,0,1.41,1.17,2.29,2.45C84.54,23.87,85.42,25.79,85.42,25.79L85.42,25.79z M26.83,25.92
		c0.68,0.66,1.94,1.9,1.94,2.86c0,1.01-0.56,1.9-1.23,2.69h2.23c0.49-0.8,0.81-1.68,0.81-2.69c0-1.72-1.55-3.24-2.48-4.15
		c-0.17-0.17-0.33-0.32-0.4-0.41c-0.84-1-1.25-2.03-1.25-3.16c0-1.75,1.42-1.94,2.03-1.94c1.01,0,1.88,0.67,2.48,1.31v-2.34
		c-0.7-0.45-1.54-0.78-2.48-0.78c-2.3,0-3.84,1.51-3.84,3.75c0,1.56,0.57,3.01,1.68,4.33C26.44,25.54,26.61,25.7,26.83,25.92
		L26.83,25.92z"/>
</g>
</svg>
