<?xml version="1.0" encoding="utf-8"?>
<!-- Generator: Adobe Illustrator 26.0.1, SVG Export Plug-In . SVG Version: 6.00 Build 0)  -->
<svg version="1.1" id="Layer_1" xmlns="http://www.w3.org/2000/svg" xmlns:xlink="http://www.w3.org/1999/xlink" x="0px" y="0px"
	 viewBox="0 0 95 35" style="enable-background:new 0 0 95 35;" xml:space="preserve">
<style type="text/css">
	.st0{fill-rule:evenodd;clip-rule:evenodd;fill:#FFFFFF;}
</style>
<g>
	<polygon class="st0" points="34.62,18.54 38.59,18.54 36.64,11.82 	"/>
	<path class="st0" d="M80.14,10.61c-0.27,0-1.41,0-1.41,0v8.14c2.96,0,3.83-2.82,3.83-4.91C82.56,11.95,81.62,10.61,80.14,10.61z"/>
	<path class="st0" d="M94.26,6.44c0,0,0-0.2,0-0.34c0-0.87-0.74-1.61-1.61-1.61H10.56c-0.94,0-2.08,0.87-2.49,1.95
		C8,6.51,0.81,28.29,0.81,28.29c-0.07,0.2-0.07,0.4-0.07,0.61c0,0.87,0.74,1.61,1.61,1.61h82.43c0.94,0,2.02-0.87,2.35-1.95
		L94.26,6.44z M10.29,8.39c0.27-0.74,0.81-1.01,1.55-1.01h17.82l-0.67,2.08H9.95L10.29,8.39z M9.14,11.95h19.03l-0.67,2.08H8.4
		L9.14,11.95z M23.4,26.48c-0.27,0.81-0.87,1.01-1.55,1.01h-0.07L3.97,27.55l0.74-2.15h19.03L23.4,26.48z M24.54,23.05H5.45
		l0.74-2.15h19.03L24.54,23.05z M26.02,18.54H6.93l0.74-2.15h19.03L26.02,18.54z M69.72,27.55h-4.71c-1.21,0-1.08-1.68-1.08-1.68
		V15.05L59.7,27.55h-2.96c-0.94-0.07-1.14-0.94-1.14-0.94l-4.57-11.56v12.51h-9.35c-0.74-0.13-0.81-0.87-0.87-1.21
		c-0.13-0.27-1.48-5.45-1.48-5.45h-5.38l-1.61,5.58c0,0-0.2,1.08-0.87,1.08c-0.74,0-4.71,0-4.71,0s0.47-0.34,0.61-0.74
		c0.13-0.47,5.71-17.28,5.71-17.28h-1.82l0.34-1.01c0.27-0.74,0.74-1.14,1.61-1.14h8.14l5.98,19.36V9.53V9.47h-1.82l0.34-0.94
		c0.27-0.74,0.74-1.14,1.55-1.14c1.01,0,5.45,0,6.19,0c0.94,0,1.34,1.14,1.34,1.14l4.3,11.03L63.4,7.38h6.32V27.55z M80.68,20.29
		h-1.95v7.26c0,0-3.77,0-4.71,0c-0.94,0-1.08-1.08-1.08-1.48V9.47h-1.82l0.34-0.94c0.27-0.74,0.74-1.14,1.55-1.14h7.8
		c3.83,0,7.73,0.81,7.73,6.59C88.55,19.82,83.03,20.29,80.68,20.29z"/>
</g>
</svg>
