<?xml version="1.0" encoding="utf-8"?>
<!-- Generator: Adobe Illustrator 26.0.1, SVG Export Plug-In . SVG Version: 6.00 Build 0)  -->
<svg version="1.1" id="Layer_1" xmlns="http://www.w3.org/2000/svg" xmlns:xlink="http://www.w3.org/1999/xlink" x="0px" y="0px"
	 viewBox="0 0 95 35" style="enable-background:new 0 0 95 35;" xml:space="preserve">
<style type="text/css">
	.st0{fill:#343741;}
	.st1{clip-path:url(#SVGID_00000073701411587814662350000009702713746360175032_);fill:#343741;}
</style>
<g>
	<path class="st0" d="M44.63,16.55h6.9c0,0-1.41,1.85-2.97,3.89h8.06c1.43-1.87,2.74-3.58,2.94-3.84c0.92-1.19,1.12-2.24,1.12-3.19
		v-1.34c0-0.68-0.42-1.05-1.06-1.05H44.63c-0.62,0-1.03,0.35-1.03,1.03v3.47C43.6,16.2,44.02,16.55,44.63,16.55"/>
	<path class="st0" d="M0.11,29.99c-0.18,0.31-0.18,0.66-0.07,0.86c0.13,0.26,0.42,0.4,0.75,0.4h4.9c0.62,0,1.17-0.33,1.49-0.83
		l5.42-8.59H5.25C2.72,25.86,0.17,29.89,0.11,29.99"/>
	<path class="st0" d="M20.29,21.85h-6.87c0.17,0.95,1.45,8.04,1.52,8.46c0.11,0.64,0.51,0.97,1.1,0.97h4.74
		c0.44,0,0.66-0.13,0.84-0.39c0.15-0.17,0.2-0.42,0.13-0.81L20.29,21.85z"/>
	<path class="st0" d="M41.45,12.05c0-0.7-0.42-1.03-1.03-1.03h-4.19c-0.62,0-1.03,0.35-1.03,1.03v7.86l-3.97-7.07
		c-0.79-1.3-2.11-1.78-3.67-1.82h-3.08c-0.62,0-1.03,0.35-1.03,1.03v8.39h5.2l0.79,1.41h-5.98v8.39c0,0.7,0.42,1.03,1.03,1.03h4.19
		c0.62,0,1.03-0.35,1.03-1.03v-7.89l3.98,7.1c0.79,1.3,2.11,1.78,3.67,1.82h3.07c0.62,0,1.03-0.35,1.03-1.03v-8.39h-5.16l-0.79-1.41
		h5.95L41.45,12.05L41.45,12.05z"/>
	<path class="st0" d="M18.52,12c-0.13-0.66-0.55-0.97-1.14-0.97h-2.06c-2.13,0-4.02,1.12-5.07,2.81c0,0-1.96,3.1-4.15,6.61h13.91
		L18.52,12z"/>
	<path class="st0" d="M59.83,25.73h-7.25c0,0,1.41-1.85,2.97-3.89h-8.06c-1.47,1.91-2.79,3.63-2.86,3.74
		c-1.06,1.49-1.17,2.99-1.17,4.04v0.59c0,0.68,0.42,1.05,1.05,1.05h15.33c0.62,0,1.03-0.33,1.03-1.03v-3.45
		C60.86,26.08,60.45,25.73,59.83,25.73"/>
	<g>
		<g>
			<defs>
				<path id="SVGID_1_" d="M74.05,22.48c-1.06-1.47-2.63-2.59-3.87-3.08c-0.75-0.29-1.87-0.61-3.18-0.61
					c-0.37,0-0.75,0.02-1.14,0.09c-1.28,0.18-1.91,0.62-2.26,0.92c-0.57,0.48-0.99,1.32-0.37,2.2c0.64,0.88,6.54,7.8,8.08,9.58
					c0.24,0.26,0.7,0.61,1.32,0.48c0.77-0.17,1.65-1.06,1.98-1.73c0.24-0.48,0.42-0.86,0.59-1.54c0.15-0.64,0.2-1.27,0.2-1.87
					C75.41,25.2,74.88,23.63,74.05,22.48 M78.96,2.3c-4.79,0-8.68,3.89-8.68,8.68c0,2.04,0.7,3.93,1.89,5.42
					c1.54,1.85,3.47,2.51,4.24,2.5c1.19-0.02,0.99-0.99,0.88-1.38c-0.09-0.35-0.31-0.84-0.61-1.28c-0.44-0.66-0.75-1.4-0.75-2.33
					c0-1.67,1.6-2.9,3.01-2.9c1.41,0,3.03,1.21,3.03,2.9c0,0.94-0.31,1.67-0.75,2.33c-0.29,0.44-0.51,0.92-0.61,1.28
					c-0.09,0.4-0.31,1.36,0.88,1.38c0.77,0.02,2.68-0.66,4.22-2.5c1.19-1.49,1.89-3.38,1.89-5.42C87.64,6.2,83.75,2.3,78.96,2.3
					 M94.3,19.8c-0.35-0.29-0.97-0.73-2.26-0.92c-0.39-0.06-0.77-0.09-1.14-0.09c-1.3,0-2.42,0.31-3.18,0.61
					c-1.25,0.5-2.79,1.62-3.87,3.08c-1.12,1.54-1.71,3.87-1.16,6.3c0.17,0.68,0.33,1.06,0.57,1.54c0.35,0.66,1.23,1.56,1.98,1.73
					c0.61,0.13,1.08-0.22,1.32-0.48c1.56-1.78,7.45-8.7,8.08-9.58c0.24-0.31,0.31-0.62,0.31-0.9C94.98,20.57,94.69,20.11,94.3,19.8"
					/>
			</defs>
			<use xlink:href="#SVGID_1_"  style="overflow:visible;fill:#343741;"/>
			<clipPath id="SVGID_00000090283408388298596430000003941169553721049507_">
				<use xlink:href="#SVGID_1_"  style="overflow:visible;"/>
			</clipPath>
			<polygon style="clip-path:url(#SVGID_00000090283408388298596430000003941169553721049507_);fill:#343741;" points="62.56,2.3 
				62.6,32.24 95.04,32.19 94.98,2.25 			"/>
		</g>
	</g>
</g>
</svg>
