<?xml version="1.0" encoding="utf-8"?>
<!-- Generator: Adobe Illustrator 26.0.1, SVG Export Plug-In . SVG Version: 6.00 Build 0)  -->
<svg version="1.1" id="Layer_1" xmlns="http://www.w3.org/2000/svg" xmlns:xlink="http://www.w3.org/1999/xlink" x="0px" y="0px"
	 viewBox="0 0 95 35" style="enable-background:new 0 0 95 35;" xml:space="preserve">
<style type="text/css">
	.st0{fill:#FFFFFF;}
</style>
<g>
	<g>
		<path class="st0" d="M15.74,0.32h4.65v17.76h-4.65v-1.57c-1.29,0.98-2.86,1.58-4.54,1.66v-4.45c0.02,0,0.04,0,0.06,0
			c2.48,0,4.46-2.05,4.46-4.59c0-1.32-0.55-2.52-1.41-3.36c-0.8-0.82-1.9-1.34-3.11-1.36V0.1c1.68,0.08,3.25,0.69,4.54,1.67V0.32z
			 M11.2,18.18c-0.13,0.01-0.26,0.01-0.4,0.01c-4.72,0-8.55-4.07-8.55-9.05s3.84-9.05,8.55-9.05c0.13,0,0.27,0.01,0.4,0.01v4.32
			c-0.01,0-0.03,0-0.04,0c-2.48,0-4.48,2.07-4.48,4.62c0,1.33,0.54,2.53,1.43,3.37c0.78,0.8,1.88,1.31,3.09,1.33V18.18z"/>
		<path class="st0" d="M15.74,0.32h4.65v17.76h-4.65v-1.57c-1.39,1.06-3.1,1.67-4.94,1.67c-4.72,0-8.55-4.07-8.55-9.05
			s3.84-9.05,8.55-9.05c1.84,0,3.55,0.62,4.94,1.68V0.32L15.74,0.32z M14.31,5.77c-0.81-0.83-1.92-1.36-3.15-1.36
			c-2.48,0-4.48,2.07-4.48,4.62c0,1.33,0.54,2.53,1.43,3.37c0.79,0.82,1.91,1.33,3.15,1.33c2.48,0,4.46-2.05,4.46-4.59
			C15.72,7.81,15.18,6.61,14.31,5.77z"/>
	</g>
	<g>
		<path class="st0" d="M55.14,0.23h4.64v17.76h-4.64v-1.57c-1.3,0.98-2.86,1.58-4.55,1.66v-4.45c0.02,0,0.04,0,0.06,0
			c2.48,0,4.46-2.05,4.46-4.59c0-1.32-0.55-2.52-1.41-3.36c-0.8-0.82-1.9-1.34-3.11-1.36V0.01c1.68,0.08,3.25,0.69,4.55,1.67V0.23z
			 M50.59,18.09c-0.13,0.01-0.26,0.01-0.4,0.01c-4.72,0-8.55-4.07-8.55-9.05S45.48,0,50.2,0c0.13,0,0.27,0.01,0.4,0.01v4.32
			c-0.01,0-0.03,0-0.04,0c-2.48,0-4.48,2.07-4.48,4.62c0,1.33,0.54,2.53,1.43,3.37c0.78,0.8,1.88,1.31,3.09,1.33V18.09z"/>
		<path class="st0" d="M55.14,0.23h4.64v17.76h-4.64v-1.57c-1.4,1.06-3.11,1.67-4.95,1.67c-4.72,0-8.55-4.07-8.55-9.05
			S45.48,0,50.2,0c1.84,0,3.55,0.62,4.95,1.68V0.23L55.14,0.23z M53.7,5.68c-0.81-0.83-1.92-1.36-3.15-1.36
			c-2.48,0-4.48,2.07-4.48,4.62c0,1.33,0.54,2.53,1.43,3.37c0.79,0.82,1.91,1.33,3.15,1.33c2.48,0,4.46-2.05,4.46-4.59
			C55.12,7.73,54.57,6.52,53.7,5.68z"/>
	</g>
	<path class="st0" d="M31.78,0.09c5.08,0.24,8.92,4,8.92,8.81c0,4.82-4.05,8.98-8.92,9.26v-4.36c0.05,0.01,0.1,0.01,0.15,0.01
		c2.51,0,4.65-2.19,4.65-4.73c0-2.52-2.25-4.52-4.79-4.56V0.09z M22.6,0.2h4.54v0.84c1.18-0.6,2.56-0.96,4.12-0.96
		c0.18,0,0.35,0.01,0.52,0.02v4.42c-0.02,0-0.04,0-0.06,0c-2.58,0-4.72,2.02-4.72,4.56c0,2.49,2.34,4.64,4.79,4.72v4.36
		c-0.17,0.01-0.35,0.02-0.52,0.02c-1.53,0-2.92-0.35-4.12-1.01v4.46H22.6V9.81c-0.01-0.23-0.01-0.45-0.01-0.69
		c0-0.23,0-0.46,0.01-0.69V0.2z"/>
	<rect x="1.95" y="21.3" class="st0" width="61.78" height="4.82"/>
	<path class="st0" d="M71,12.5c-6.21,0-11.25,5.04-11.25,11.25C59.75,29.96,64.79,35,71,35c6.21,0,11.25-5.04,11.25-11.25
		C82.25,17.53,77.21,12.5,71,12.5z M71,30.1c-3.51,0-6.35-2.84-6.35-6.35c0-3.51,2.84-6.35,6.35-6.35c3.51,0,6.35,2.84,6.35,6.35
		C77.35,27.26,74.51,30.1,71,30.1z"/>
	<rect x="77.85" y="21.3" class="st0" width="15.2" height="4.82"/>
</g>
</svg>
