<?xml version="1.0" encoding="utf-8"?>
<!-- Generator: Adobe Illustrator 26.0.1, SVG Export Plug-In . SVG Version: 6.00 Build 0)  -->
<svg version="1.1" id="Layer_1" xmlns="http://www.w3.org/2000/svg" xmlns:xlink="http://www.w3.org/1999/xlink" x="0px" y="0px"
	 viewBox="0 0 269.3 99.2" style="enable-background:new 0 0 269.3 99.2;" xml:space="preserve">
<style type="text/css">
	.st0{fill:#CCCCCC;}
</style>
<path class="st0" d="M213,2.8L213,2.8H56.2c-15.6,0-28.1,12.5-28.1,28.1v37.4c0,15.6,12.5,28.1,28.1,28.1H213
	c15.6,0,28.1-12.5,28.1-28.1V31.2C241,15.6,228.6,3.1,213,2.8z M229.1,64.1c0,11.1-9.1,20.1-20.1,20.1H60.5
	c-11.1,0-20.1-9.1-20.1-20.1V35.1c0-11.1,9.1-20.1,20.1-20.1h148.3c11.1,0,20.1,9.1,20.1,20.1v28.9H229.1z"/>
<path class="st0" d="M220.3,56.4c-2.3-4-6-6.5-10.5-7.4c1.7-0.6,3.1-1.7,4.5-2.6c4-3.1,5.4-8.5,3.7-13.3
	c-2.6-6.5-8.8-11.1-15.9-11.1l-18.7-0.3h-14.2v11.6l0.3,0.6h4.3l0.6,0.3v30.3c0,0.9-1.1,0.3-1.7,0.6h-5.7c-1.7,0-3.4,0-5.1-0.9
	c-2.8-1.4-2-4.5-2.3-7.4c-0.6-2.8-2.6-5.1-5.1-5.7c2.6-1.4,4.5-3.4,6.2-5.7c2.8-5.1,2.6-11.3-0.3-16.4c-3.1-5.4-9.1-6.8-14.5-7.4
	h-37.4c-0.3,4-0.3,7.9,0,12.2c1.7,0,3.4,0,5.1,0.3v30.6l-0.3-0.3H105l-0.6-0.3l-6-21.3l-6-21.8H88H59.6l-0.3,11.3l0.3,0.6h6.2
	c0.9,0,0,0.9,0.3,1.4L59.9,57c-0.6,2-1.4,4-2.6,6c-1.1,1.4-3.1,2.3-5.1,2H52v12.5h23.2V64.6c-1.7,0.3-3.7-0.6-4.5-2
	c-0.6-1.1-0.3-2.6,0.6-3.7c3.4,0,7.7-0.3,11.3,0c0.6,1.7,0.9,3.4,1.1,5.4l-0.3,0.3l-4,0.3l-0.3,0.3v12.2l0.3,0.3h58.4h0.3V65.5
	l-0.3-0.6c-1.4-0.3-3.4,0-4.8-0.3c-0.3-3.1-0.3-6,0-9.1c2.8,0,5.7-0.9,7.4,1.7c3.1,5.1-0.9,13.3,3.4,17.9c2,1.7,4.3,2.6,6.8,2.3
	h54.7c5.7,0,11.1-2.8,14.2-7.7C222,65.8,222.3,60.7,220.3,56.4z M73.8,48.2v-0.9l3.1-10.8c1.1,4,2,7.9,2.8,11.9
	C77.8,48.2,75.8,48.2,73.8,48.2z M141,43.4c-2.3,2.3-5.4,1.1-7.9,1.4l-0.3-0.3V33.4c3.1,0.3,7.9-1.4,9.4,2.8
	C142.7,38.8,142.4,41.4,141,43.4z M193.1,34c2.3,0,5.1-0.6,6.8,1.1c0.9,1.1,1.4,2.6,1.1,4c-0.3,1.1-0.9,2.3-1.7,3.1
	c-2,1.1-4.3,1.4-6.5,1.1V34H193.1z M201.6,62.1c-0.6,1.4-2,2.6-3.7,2.6c-1.7,0-3.4,0-5.1,0c0-3.1,0-6.5,0-9.9c0.3,0,0.6-0.3,0.9-0.3
	c2.6,0.3,6.2-0.9,7.7,2.3C202.2,58.4,202.2,60.4,201.6,62.1z"/>
</svg>
