<?xml version="1.0" encoding="utf-8"?>
<!-- Generator: Adobe Illustrator 26.0.1, SVG Export Plug-In . SVG Version: 6.00 Build 0)  -->
<svg version="1.1" id="Layer_1" xmlns="http://www.w3.org/2000/svg" xmlns:xlink="http://www.w3.org/1999/xlink" x="0px" y="0px"
	 viewBox="0 0 95 35" style="enable-background:new 0 0 95 35;" xml:space="preserve">
<style type="text/css">
	.st0{fill-rule:evenodd;clip-rule:evenodd;fill:#343741;}
</style>
<g>
	<g>
		<path class="st0" d="M52.46,24.7L52.46,24.7l0.24,0.75h-0.48L52.46,24.7L52.46,24.7z M51.87,26.04h0.16l0.16-0.48h0.56l0.13,0.48
			h0.19l-0.51-1.5h-0.19L51.87,26.04L51.87,26.04z"/>
		<path class="st0" d="M54.31,25.48c0,0.21,0,0.59-0.51,0.59c-0.48,0-0.48-0.37-0.48-0.59v-0.94h0.19v0.94c0,0.19,0,0.46,0.32,0.46
			c0.29,0,0.29-0.27,0.29-0.46v-0.94h0.19V25.48L54.31,25.48z"/>
		<path class="st0" d="M55.44,24.73c-0.05-0.03-0.21-0.08-0.35-0.08c-0.16,0-0.27,0.08-0.27,0.21c0,0.21,0.27,0.27,0.48,0.4
			c0.16,0.11,0.24,0.19,0.24,0.37c0,0.29-0.24,0.43-0.54,0.43c-0.16,0-0.32-0.05-0.35-0.05v-0.19c0.08,0.03,0.24,0.11,0.38,0.11
			c0.19,0,0.32-0.11,0.32-0.27c0-0.21-0.24-0.27-0.46-0.4c-0.13-0.08-0.24-0.16-0.24-0.37c0-0.24,0.16-0.37,0.46-0.37
			c0.11,0,0.27,0.03,0.32,0.05V24.73L55.44,24.73z"/>
		<polygon class="st0" points="56.05,24.65 55.7,24.65 55.7,24.54 56.56,24.54 56.56,24.65 56.21,24.65 56.21,26.04 56.05,26.04 
			56.05,24.65 		"/>
		<path class="st0" d="M57.13,24.65h0.13c0.13,0,0.32,0.05,0.32,0.29c0,0.24-0.24,0.29-0.38,0.29h-0.08V24.65L57.13,24.65z
			 M56.94,26.04h0.19v-0.67h0.08c0.27,0,0.32,0.08,0.38,0.35l0.05,0.32h0.19l-0.08-0.37c-0.03-0.19-0.05-0.32-0.29-0.37l0,0
			c0.11,0,0.35-0.11,0.35-0.35c0-0.32-0.27-0.4-0.54-0.4h-0.32V26.04L56.94,26.04z"/>
		<path class="st0" d="M58.71,24.7L58.71,24.7l0.21,0.75h-0.46L58.71,24.7L58.71,24.7z M58.12,26.04h0.16l0.13-0.48h0.56l0.16,0.48
			h0.19l-0.51-1.5H58.6L58.12,26.04L58.12,26.04z"/>
		<polygon class="st0" points="59.65,24.54 59.83,24.54 59.83,25.91 60.34,25.91 60.34,26.04 59.65,26.04 59.65,24.54 		"/>
		<polygon class="st0" points="60.72,24.54 60.88,24.54 60.88,26.04 60.72,26.04 60.72,24.54 		"/>
		<path class="st0" d="M61.87,24.7L61.87,24.7l0.24,0.75h-0.48L61.87,24.7L61.87,24.7z M61.28,26.04h0.16l0.16-0.48h0.54l0.16,0.48
			h0.19l-0.51-1.5h-0.19L61.28,26.04L61.28,26.04z"/>
		<polygon class="st0" points="62.81,24.54 63.02,24.54 63.64,25.8 63.67,25.8 63.67,24.54 63.8,24.54 63.8,26.04 63.61,26.04 
			62.97,24.76 62.97,24.76 62.97,26.04 62.81,26.04 62.81,24.54 		"/>
		<path class="st0" d="M65.7,24.57c-0.05-0.03-0.21-0.05-0.32-0.05c-0.29,0-0.48,0.13-0.48,0.37c0,0.21,0.13,0.29,0.27,0.37
			c0.21,0.13,0.43,0.19,0.43,0.4c0,0.16-0.11,0.27-0.29,0.27c-0.16,0-0.29-0.08-0.38-0.11v0.19c0.03,0,0.16,0.05,0.35,0.05
			c0.29,0,0.51-0.13,0.51-0.43c0-0.19-0.08-0.27-0.24-0.37c-0.19-0.13-0.46-0.19-0.46-0.4c0-0.13,0.11-0.21,0.24-0.21
			c0.16,0,0.29,0.05,0.38,0.08V24.57L65.7,24.57z"/>
		<polygon class="st0" points="66.35,24.65 66,24.65 66,24.54 66.88,24.54 66.88,24.65 66.54,24.65 66.54,26.04 66.35,26.04 
			66.35,24.65 		"/>
		<path class="st0" d="M67.23,25.32c0-0.32,0.05-0.7,0.35-0.7c0.29,0,0.38,0.37,0.38,0.7c0,0.27-0.08,0.62-0.38,0.62
			C67.29,25.94,67.23,25.59,67.23,25.32L67.23,25.32z M67.61,26.07c0.4,0,0.54-0.37,0.54-0.78c0-0.4-0.13-0.78-0.54-0.78
			c-0.43,0-0.56,0.37-0.56,0.78C67.04,25.7,67.18,26.07,67.61,26.07L67.61,26.07z"/>
		<path class="st0" d="M69.38,25.96c-0.08,0.05-0.21,0.11-0.38,0.11c-0.46,0-0.59-0.4-0.59-0.8c0-0.29,0.08-0.75,0.54-0.75
			c0.32,0,0.48,0.21,0.48,0.43h-0.21c0-0.13-0.05-0.32-0.27-0.32c-0.32,0-0.35,0.4-0.35,0.62c0,0.35,0.11,0.7,0.43,0.7
			c0.19,0,0.27-0.08,0.35-0.13V25.96L69.38,25.96z"/>
		<polygon class="st0" points="69.78,24.54 69.94,24.54 69.94,25.21 69.97,25.21 70.5,24.54 70.69,24.54 70.1,25.24 70.74,26.04 
			70.53,26.04 69.97,25.32 69.94,25.32 69.94,26.04 69.78,26.04 69.78,24.54 		"/>
		<polygon class="st0" points="71.76,24.54 72.49,24.54 72.49,24.65 71.95,24.65 71.95,25.19 72.46,25.19 72.46,25.32 71.95,25.32 
			71.95,25.91 72.51,25.91 72.51,26.04 71.76,26.04 71.76,24.54 		"/>
		<polygon class="st0" points="73.21,25.27 72.78,24.54 73,24.54 73.32,25.11 73.64,24.54 73.83,24.54 73.4,25.24 73.88,26.04 
			73.67,26.04 73.29,25.4 72.92,26.04 72.76,26.04 73.21,25.27 		"/>
		<path class="st0" d="M75.03,25.8c-0.08,0.05-0.16,0.13-0.35,0.13c-0.32,0-0.43-0.35-0.43-0.7c0-0.21,0.05-0.62,0.38-0.62
			c0.19,0,0.27,0.19,0.27,0.32h0.21c0-0.21-0.19-0.43-0.48-0.43c-0.46,0-0.56,0.46-0.56,0.75c0,0.4,0.13,0.8,0.62,0.8
			c0.16,0,0.29-0.05,0.35-0.11V25.8L75.03,25.8z"/>
		<polygon class="st0" points="75.49,24.54 75.68,24.54 75.68,25.21 76.27,25.21 76.27,24.54 76.46,24.54 76.46,26.04 76.27,26.04 
			76.27,25.32 75.68,25.32 75.68,26.04 75.49,26.04 75.49,24.54 		"/>
		<path class="st0" d="M77.31,24.7L77.31,24.7l0.24,0.75H77.1L77.31,24.7L77.31,24.7z M76.72,26.04h0.16l0.16-0.48h0.56l0.13,0.48
			h0.19l-0.48-1.5h-0.21L76.72,26.04L76.72,26.04z"/>
		<polygon class="st0" points="78.22,24.54 78.44,24.54 79.06,25.8 79.06,25.8 79.06,24.54 79.22,24.54 79.22,26.04 79.03,26.04 
			78.39,24.76 78.39,24.76 78.39,26.04 78.22,26.04 78.22,24.54 		"/>
		<path class="st0" d="M80.64,25.91c-0.11,0.11-0.27,0.16-0.46,0.16c-0.46,0-0.62-0.35-0.62-0.8c0-0.37,0.13-0.75,0.56-0.75
			c0.4,0,0.51,0.29,0.51,0.43h-0.21c0-0.16-0.05-0.32-0.29-0.32c-0.29,0-0.38,0.37-0.38,0.64c0,0.32,0.08,0.67,0.43,0.67
			c0.16,0,0.21-0.05,0.27-0.08v-0.54H80.1v-0.13h0.54V25.91L80.64,25.91z"/>
		<polygon class="st0" points="81.01,24.54 81.74,24.54 81.74,24.65 81.2,24.65 81.2,25.19 81.71,25.19 81.71,25.32 81.2,25.32 
			81.2,25.91 81.76,25.91 81.76,26.04 81.01,26.04 81.01,24.54 		"/>
		<path class="st0" d="M70.32,10.75c-0.59-0.24-1.82-0.78-3.08-0.78c-1.37,0-2.28,0.78-2.28,1.9c0,1.87,2.41,2.38,4.1,3.51
			c1.42,0.94,2.12,1.53,2.12,3.21c0,2.57-2.04,3.7-4.58,3.7c-1.53,0-2.68-0.32-3-0.4v-1.61c0.67,0.32,1.98,0.88,3.24,0.88
			c1.64,0,2.65-0.78,2.65-2.25c0-1.82-1.96-2.46-3.89-3.51c-1.13-0.62-2.14-1.5-2.14-3.21c0-2.06,1.58-3.27,4.08-3.27
			c1.02,0,2.25,0.21,2.79,0.32V10.75L70.32,10.75z"/>
		<polygon class="st0" points="76.08,15.41 72.41,9.14 74.2,9.14 77.02,13.94 79.81,9.14 81.36,9.14 77.74,15.17 81.82,22.08 
			79.99,22.08 76.83,16.67 73.59,22.08 72.09,22.08 76.08,15.41 		"/>
		<path class="st0" d="M58.01,9.14h-1.72l-4.34,12.94h1.42l1.29-4.1l0.13-0.4h4.5l0.13,0.4l1.34,4.1h1.61L58.01,9.14L58.01,9.14z
			 M57.04,10.62h0.03l1.9,5.95h-3.86L57.04,10.62L57.04,10.62z"/>
	</g>
	<path class="st0" d="M30.68,0c-9.66,0-17.5,7.84-17.5,17.5c0,9.66,7.84,17.5,17.5,17.5s17.5-7.84,17.5-17.5
		C48.18,7.84,40.35,0,30.68,0z M27.73,7.22l2.44,3.24l-2.44,3.37V7.22z M24.01,27.86h-2.65v-4.29l2.65-3.67V27.86z M24.01,15.33
		l-2.76-3.67V7.14h2.76V15.33z M27.22,27.86h-2.71v-8.65l2.71-3.75V27.86z M27.22,14.53l-1.88,2.57L24.52,16V7.14h2.71V14.53z
		 M30.44,24.17l-2.71,3.7v-13.1l2.71-3.72V24.17z M33.63,27.86l-2.71-3.7V11.05l2.71,3.72V27.86z M33.63,13.83l-2.44-3.37l2.44-3.24
		V13.83z M36.85,27.86h-2.71v-12.4l2.71,3.75V27.86z M36.85,16l-0.86,1.12l-1.85-2.57V7.14h2.71V16z M40.01,27.86h-2.65v-7.95
		l2.65,3.67V27.86z M40.12,11.66l-2.76,3.67v-8.2h2.76V11.66z"/>
</g>
</svg>
