<?xml version="1.0" encoding="utf-8"?>
<!-- Generator: Adobe Illustrator 26.0.1, SVG Export Plug-In . SVG Version: 6.00 Build 0)  -->
<svg version="1.1" id="Layer_1" xmlns="http://www.w3.org/2000/svg" xmlns:xlink="http://www.w3.org/1999/xlink" x="0px" y="0px"
	 viewBox="0 0 95 35" style="enable-background:new 0 0 95 35;" xml:space="preserve">
<style type="text/css">
	.st0{fill:#FFFFFF;}
</style>
<g id="XMLID_1_">
	<polygon id="XMLID_3_" class="st0" points="14.67,5.28 24.45,15.06 29.34,10.17 24.45,5.28 	"/>
	<polygon id="XMLID_4_" class="st0" points="19.56,10.17 9.78,19.95 4.89,15.06 9.78,10.17 	"/>
	
		<rect id="XMLID_5_" x="25.88" y="11.6" transform="matrix(0.707 -0.7072 0.7072 0.707 -2.0525 25.1586)" class="st0" width="6.91" height="6.91"/>
	
		<rect id="XMLID_6_" x="1.43" y="16.49" transform="matrix(0.7073 -0.7069 0.7069 0.7073 -12.6682 9.2941)" class="st0" width="6.91" height="6.91"/>
	<polygon id="XMLID_7_" class="st0" points="14.67,24.83 24.45,15.06 24.45,24.83 	"/>
	<polygon id="XMLID_8_" class="st0" points="29.34,19.95 24.45,24.83 24.45,15.06 	"/>
	<polygon id="XMLID_9_" class="st0" points="14.67,24.83 19.56,29.72 24.45,24.83 	"/>
	<polygon id="XMLID_10_" class="st0" points="14.67,24.83 9.78,19.95 4.89,24.83 	"/>
	<path id="XMLID_21_" class="st0" d="M93.24,24.6l-4.54-5.96v5.96h-2.04v-9.38h1.91l4.39,5.77v-5.77H95v9.38H93.24z M83.44,19.91
		c0-1.61-1.18-2.95-2.84-2.95s-2.81,1.31-2.81,2.92v0.02c0,1.61,1.18,2.95,2.84,2.95c1.66,0,2.81-1.32,2.81-2.92V19.91z M80.6,24.76
		c-2.89,0-4.97-2.16-4.97-4.82v-0.03c0-2.67,2.1-4.85,5-4.85c2.89,0,4.97,2.16,4.97,4.83v0.02C85.6,22.57,83.49,24.76,80.6,24.76
		 M67.4,24.6v-1.57l5.16-6h-5v-1.81h7.65v1.57l-5.16,6h5.16v1.81H67.4z M64.14,15.22h2.07v9.38h-2.07V15.22z M60.96,18.42
		c0-0.88-0.62-1.34-1.62-1.34H57.3v2.69h2.09c1,0,1.58-0.53,1.58-1.33V18.42z M60.93,24.6l-2.01-3H57.3v3h-2.07v-9.38h4.29
		c2.21,0,3.54,1.17,3.54,3.1v0.02c0,1.52-0.82,2.47-2.01,2.91l2.29,3.35H60.93z M50.15,24.74c-2.52,0-4.06-1.4-4.06-4.17v-5.36h2.06
		v5.31c0,1.52,0.76,2.32,2.02,2.32c1.26,0,2.02-0.76,2.02-2.25v-5.37h2.06v5.29C54.27,23.35,52.67,24.74,50.15,24.74 M41.27,17.63
		l-1.25,3.05h2.49L41.27,17.63z M44.11,24.6l-0.86-2.11h-3.97l-0.86,2.11h-2.1l4.02-9.45h1.9l4.02,9.45H44.11z"/>
</g>
</svg>
