<?xml version="1.0" encoding="utf-8"?>
<!-- Generator: Adobe Illustrator 26.0.1, SVG Export Plug-In . SVG Version: 6.00 Build 0)  -->
<svg version="1.1" id="Layer_1" xmlns="http://www.w3.org/2000/svg" xmlns:xlink="http://www.w3.org/1999/xlink" x="0px" y="0px"
	 viewBox="0 0 95 35" style="enable-background:new 0 0 95 35;" xml:space="preserve">
<style type="text/css">
	.st0{fill:#CCCCCC;}
</style>
<g>
	<path class="st0" d="M93.36,11.05c0,6.1-4.95,11.05-11.05,11.05h-7.48V35h-8.6V0h16.08C88.41,0,93.36,4.95,93.36,11.05 M80.91,7.22
		h-6.09v7.22h6.09c1.91,0,3.45-1.7,3.45-3.61C84.37,8.91,82.82,7.22,80.91,7.22 M52.41,0v14.12H40.44V0h-8.6v35h8.6V22.11h11.97V35
		h8.6V0H52.41z M28.46,25.48c0,5.78-5.15,9.52-10.75,9.52H1.64V0h15.54c5.7,0,10.44,4.19,10.44,9.36c0,4.09-1.92,6.29-4.56,7.94
		C26.12,18.63,28.46,20.6,28.46,25.48 M15.99,20.88h-5.76v6.75h5.76c2.23,0,3.45-1.51,3.45-3.38C19.45,22.39,17.9,20.88,15.99,20.88
		 M15.16,7.22h-4.92v7.22h4.92c2.28,0,3.45-1.7,3.45-3.61C18.61,8.91,17.44,7.22,15.16,7.22"/>
</g>
</svg>
