<?xml version="1.0" encoding="utf-8"?>
<!-- Generator: Adobe Illustrator 26.0.1, SVG Export Plug-In . SVG Version: 6.00 Build 0)  -->
<svg version="1.1" id="Layer_1" xmlns="http://www.w3.org/2000/svg" xmlns:xlink="http://www.w3.org/1999/xlink" x="0px" y="0px"
	 viewBox="0 0 95 35" style="enable-background:new 0 0 95 35;" xml:space="preserve">
<style type="text/css">
	.st0{fill-rule:evenodd;clip-rule:evenodd;fill:#FFFFFF;}
</style>
<g>
	<path class="st0" d="M33.26,3.76c0-0.76-0.67-0.8-1.25-0.8h-0.15v1.6h0.24C32.66,4.56,33.26,4.46,33.26,3.76z"/>
	<polygon class="st0" points="56.04,3.87 56.02,3.87 55.13,6.5 56.92,6.5 	"/>
	<path class="st0" d="M40.59,7.77c1.28,0,2.34-1.04,2.34-2.47c0-1.14-1.05-2.18-2.34-2.18c-1.28,0-2.33,1.04-2.33,2.18
		C38.26,6.73,39.31,7.77,40.59,7.77z"/>
	<path class="st0" d="M33.84,7.06c0-1-1.06-0.9-1.76-0.9h-0.22v1.78h0.27C32.76,7.94,33.84,7.97,33.84,7.06z"/>
	<path class="st0" d="M28.41,0v35h38.17V0H28.41z M60.56,1.32h2.15v6.45h2.58v1.82h-4.72V1.32z M45.55,1.32h3.21
		c1.63,0,2.87,0.78,2.87,2.54C51.63,5,51,5.99,49.82,6.2l2.11,2.75l2.93-7.63h2.35l3.11,8.27h-2.29L57.5,8.15h-2.96l-0.57,1.44
		h-1.55h-0.73h-1.94L47.72,6.4H47.7v3.18h-2.15V1.32z M40.59,1.04c2.38,0,4.57,1.75,4.57,4.25c0,2.67-1.92,4.56-4.57,4.56
		c-2.65,0-4.57-1.89-4.57-4.56C36.02,2.8,38.21,1.04,40.59,1.04z M29.7,1.32h3.07c1.47,0,2.46,0.57,2.46,2.15
		c0,0.75-0.24,1.35-0.91,1.69v0.02c1.18,0.15,1.69,0.95,1.69,2.11c0,1.73-1.48,2.3-2.99,2.3H29.7V1.32z M65.31,33.74h-35.6V22.66
		h35.6V33.74z M65.31,21.98h-35.6V10.91h35.6V21.98z"/>
	<path class="st0" d="M49.4,3.99c0-0.9-0.79-1.03-1.49-1.03H47.7v2.06h0.21C48.61,5.02,49.4,4.89,49.4,3.99z"/>
</g>
</svg>
