<?xml version="1.0" encoding="utf-8"?>
<!-- Generator: Adobe Illustrator 26.0.1, SVG Export Plug-In . SVG Version: 6.00 Build 0)  -->
<svg version="1.1" id="Layer_1" xmlns="http://www.w3.org/2000/svg" xmlns:xlink="http://www.w3.org/1999/xlink" x="0px" y="0px"
	 viewBox="0 0 95 35" style="enable-background:new 0 0 95 35;" xml:space="preserve">
<style type="text/css">
	.st0{fill:#FFFFFF;}
</style>
<g>
	<path class="st0" d="M27,27.3v-5.32h2.36c1.06,0,1.76,0.43,1.76,1.21c0,0.83-0.71,1.07-1.04,1.22v0.02
		c0.62,0.03,1.38,0.51,1.38,1.25c0,0.97-0.77,1.63-2.27,1.63H27L27,27.3z M28.6,24.09h0.28c0.59,0,0.79-0.33,0.79-0.68
		c0-0.45-0.39-0.57-0.62-0.57H28.6V24.09L28.6,24.09z M28.6,26.44h0.3c0.56,0,0.92-0.28,0.92-0.8c0-0.42-0.21-0.69-0.77-0.69H28.6
		V26.44"/>
	<polyline class="st0" points="31.77,21.98 33.38,21.98 33.38,26.31 35.32,26.31 35.32,27.3 31.77,27.3 31.77,21.98 	"/>
	<path class="st0" d="M36.97,21.98v2.78c0,0.96,0.14,1.52,0.82,1.52c0.53,0,0.84-0.53,0.84-1.54v-2.76h1.38v3.22
		c0,1.59-1.08,2.2-2.3,2.2c-1.36,0-2.35-0.57-2.35-2.16v-3.25H36.97"/>
	<polyline class="st0" points="43.8,22.98 42.18,22.98 42.18,24.03 43.77,24.03 43.77,25.02 42.18,25.02 42.18,26.31 44.13,26.31 
		44.13,27.3 40.57,27.3 40.57,21.98 43.8,21.98 43.8,22.98 	"/>
	<path class="st0" d="M47.98,22.38c-0.25-0.15-0.57-0.23-0.91-0.23c-0.36,0-0.55,0.18-0.55,0.38c0,0.35,0.52,0.63,1.13,1.19
		c0.8,0.75,0.99,1.22,0.99,1.86c0,0.55-0.45,1.83-2.31,1.83c-0.73,0-1.45-0.17-1.95-0.57l0.57-1.03c0.27,0.2,0.62,0.43,1.06,0.43
		c0.37,0,0.78-0.19,0.78-0.65c0-0.5-0.6-0.86-1.09-1.29c-0.65-0.57-1.03-0.9-1.03-1.66c0-0.99,1-1.67,2.17-1.67
		c0.79,0,1.41,0.28,1.62,0.42L47.98,22.38"/>
	<path class="st0" d="M53.44,27.16c-0.3,0.11-0.8,0.24-1.28,0.24c-1.77,0-3.22-1.06-3.22-2.81c0-1.61,1.32-2.7,3.13-2.7
		c0.35,0,0.98,0.1,1.36,0.27l-0.4,0.94c-0.26-0.08-0.73-0.1-0.88-0.1c-0.77,0-1.54,0.49-1.54,1.65c0,1.13,0.78,1.64,1.62,1.64
		c0.34,0,0.66-0.06,0.9-0.12L53.44,27.16"/>
	<path class="st0" d="M53.7,24.58c0-1.49,1.12-2.69,2.64-2.69s2.64,1.2,2.64,2.69c0,1.59-1.01,2.81-2.64,2.81
		C54.71,27.39,53.7,26.17,53.7,24.58L53.7,24.58z M57.32,24.58c0-0.94-0.29-1.58-0.97-1.58c-0.68,0-0.97,0.64-0.97,1.58
		c0,1,0.26,1.7,0.97,1.7C57.06,26.28,57.32,25.59,57.32,24.58"/>
	<path class="st0" d="M61.53,24.44c0.21-0.04,0.73-0.24,0.73-0.83c0-0.48-0.39-0.63-0.77-0.63h-0.43v4.33h-1.6v-5.32h2.2
		c1.32,0,2.14,0.5,2.14,1.54c0,0.9-0.81,1.88-2.2,1.88h-0.29v-0.94L61.53,24.44"/>
	<polyline class="st0" points="67.3,22.98 65.68,22.98 65.68,24.03 67.27,24.03 67.27,25.02 65.68,25.02 65.68,26.31 67.63,26.31 
		67.63,27.3 64.07,27.3 64.07,21.98 67.3,21.98 67.3,22.98 	"/>
	<path class="st0" d="M40.33,30.69c-0.21-0.13-0.49-0.2-0.78-0.2c-0.31,0-0.47,0.15-0.47,0.33c0,0.3,0.45,0.54,0.97,1.02
		c0.68,0.64,0.85,1.04,0.85,1.6c0,0.47-0.39,1.57-1.98,1.57c-0.62,0-1.25-0.14-1.67-0.49l0.49-0.88c0.23,0.18,0.53,0.37,0.91,0.37
		c0.32,0,0.67-0.16,0.67-0.56c0-0.43-0.52-0.74-0.93-1.1c-0.55-0.49-0.88-0.77-0.88-1.42c0-0.85,0.86-1.43,1.86-1.43
		c0.68,0,1.21,0.24,1.39,0.36L40.33,30.69"/>
	<polyline class="st0" points="42.47,34.91 42.47,30.58 40.94,30.58 40.94,29.59 45.61,29.59 45.61,30.58 44.08,30.58 44.08,34.91 
		42.47,34.91 	"/>
	<polyline class="st0" points="49.06,30.58 47.43,30.58 47.43,31.63 49.02,31.63 49.02,32.63 47.43,32.63 47.43,33.91 49.38,33.91 
		49.38,34.91 45.83,34.91 45.83,29.59 49.06,29.59 49.06,30.58 	"/>
	<polyline class="st0" points="52.98,30.58 51.35,30.58 51.35,31.63 52.94,31.63 52.94,32.63 51.35,32.63 51.35,33.91 53.3,33.91 
		53.3,34.91 49.75,34.91 49.75,29.59 52.98,29.59 52.98,30.58 	"/>
	<polyline class="st0" points="53.67,29.59 55.27,29.59 55.27,33.91 57.22,33.91 57.22,34.91 53.67,34.91 53.67,29.59 	"/>
	<path class="st0" d="M50.45,11.63c4.47-1.01,8.28-3.13,11.35-6.29l-4.28-2.47c-2.57,2.52-6.2,4.88-11.23,5.93
		c-6.59,1.38-10.74,5-13.15,7.99l4.27,2.46C40.64,15.45,45.04,12.85,50.45,11.63"/>
	<path class="st0" d="M54.27,15.31c5.06-1.11,9.28-3.49,12.56-7.07l-4.28-2.47c-3.21,3.37-7.21,5.63-11.91,6.67
		c-6.02,1.33-9.42,4.4-9.42,4.4l4.25,2.45C47.71,17.58,50.6,16.1,54.27,15.31"/>
	<path class="st0" d="M42.99,0.01c-1.55,0.71-3.21,1.25-4.97,1.6c-7.23,1.41-11.7,5.45-14.18,8.58c-0.23,0.29-0.44,0.57-0.65,0.86
		l4.3,2.48c0.09-0.12,0.18-0.24,0.28-0.37c2.26-2.93,5.04-5.22,8.19-6.78c3.25-1.61,5.43-1.76,7.65-2.39
		c2.49-0.69,3.81-1.42,3.81-1.42L42.99,0.01"/>
	<path class="st0" d="M46.14,8C50.87,7,54.32,4.8,56.79,2.44L52.55,0c0,0-3.77,3.86-10.44,5.17c-9.4,1.84-13.82,8.68-13.89,8.78
		l4.21,2.42C35.24,12.84,39.62,9.36,46.14,8"/>
	<path class="st0" d="M71.81,11.1l-4.24-2.45c-2.41,2.68-5.32,4.72-8.69,6.09c-3.2,1.31-5,1.32-6.49,1.89l4.57,2.65
		C57.21,19.22,66.21,18.02,71.81,11.1"/>
</g>
</svg>
