<?xml version="1.0" encoding="utf-8"?>
<!-- Generator: Adobe Illustrator 26.0.1, SVG Export Plug-In . SVG Version: 6.00 Build 0)  -->
<svg version="1.1" id="Layer_1" xmlns="http://www.w3.org/2000/svg" xmlns:xlink="http://www.w3.org/1999/xlink" x="0px" y="0px"
	 viewBox="0 0 95 35" style="enable-background:new 0 0 95 35;" xml:space="preserve">
<style type="text/css">
	.st0{fill:#343741;}
</style>
<g>
	<path class="st0" d="M32.17,25.77c-1.15,0.53-2.96,0.9-5.22,0.9c-3.94,0-5.89-1.39-5.89-3.79c0-3.28,3.66-4.22,8.05-4.6v-0.66
		c0-1.62-1.17-2.06-2.85-2.06c-1.35,0-2.64,0.37-3.51,0.72v-1.89c0.99-0.31,2.39-0.63,4.1-0.63c2.97,0,5.32,1.08,5.32,4.3
		L32.17,25.77L32.17,25.77z M29.12,24.74v-5.12c-3.07,0.33-4.98,0.91-4.98,3.17c0,1.61,1.13,2.31,3.03,2.31
		C27.9,25.09,28.63,24.95,29.12,24.74L29.12,24.74z M66.76,19.93c0-3.72-2.33-6.1-5.67-6.1c-1.36,0-2.14,0.23-2.83,0.51V8.32h-3.24
		v17.45c0.91,0.51,2.55,0.9,4.76,0.9C64.27,26.67,66.76,24.11,66.76,19.93L66.76,19.93z M63.53,20.09c0,2.96-1.05,4.85-3.62,4.85
		c-0.61,0-1.23-0.1-1.65-0.26v-8.84c0.53-0.26,1.07-0.37,1.95-0.37C62.67,15.48,63.53,17.5,63.53,20.09L63.53,20.09z M71.48,26.44
		h-1.68c-0.88,0-1.58-0.71-1.58-1.58V8.32h3.26L71.48,26.44L71.48,26.44z M95,22.87c0-1.46-0.64-2.71-3.44-3.68
		c-1.27-0.44-2.15-0.95-2.15-1.96c0-0.88,0.73-1.65,2.06-1.65c1.02,0,1.87,0.4,2.3,0.7l0.81-1.64c-0.94-0.53-2.14-0.88-3.75-0.88
		c-2.75,0-4.57,1.61-4.57,3.6c0,1.3,0.57,2.58,3.29,3.48c1.48,0.49,2.12,1,2.12,2.05c0,1.02-0.88,1.76-2.23,1.76
		c-1.17,0-2.17-0.34-2.71-0.71l-0.85,1.8c0.86,0.51,2.3,0.9,3.99,0.9c3.15,0,5.12-1.76,5.12-3.78L95,22.87z M81.93,19.03
		c0-2.52-1.05-3.53-2.84-3.53c-1.73,0-2.97,1.1-3.12,3.54h5.86L81.93,19.03L81.93,19.03z M84.97,20.14v0.41h-9.06
		c0.37,3.02,1.79,4.16,4.17,4.16c1.13,0,2.06-0.15,2.78-0.37l0.03-0.01c0.17-0.04,0.86-0.18,1.15,0.45l0.44,1.02
		c-1.02,0.48-2.56,0.88-4.76,0.88c-4.1,0-6.69-2.29-6.69-6.49c0-4.06,2.38-6.42,6.15-6.42C83.01,13.77,85.1,15.97,84.97,20.14
		L84.97,20.14z M52.84,26.44H51.3c-0.86,0-1.57-0.71-1.57-1.58v-7.39c0-1.1-0.66-2.05-2.31-2.05c-0.95,0-1.65,0.28-2.29,0.86v10.16
		h-3.1V17.4c0-1.22-0.89-2.01-2.58-2.01c-0.91,0-1.43,0.12-2.05,0.35v10.7h-3.1V14.51c1.39-0.61,2.85-0.92,5.15-0.92
		c2.22,0,3.49,0.59,4.28,1.39c0.91-0.78,2.31-1.39,4.41-1.39c3.26,0,4.71,1.87,4.71,3.86L52.84,26.44L52.84,26.44z M17.34,16.19
		v8.71c-0.02,0.86-0.72,1.54-1.57,1.54h-1.63V14.91c1.39-0.71,4.79-1.43,7.1-1.08v2.4c-1.44-0.62-3.1-0.42-3.88-0.05H17.34z
		 M12.49,22.04c0-2.31-2.36-3.69-4.04-4.01v-0.05c1.56-0.29,3.44-1.43,3.44-3.59c0-2.36-2.2-4.11-6.65-4.11
		c-2.22,0-4.11,0.37-5.24,0.91v14.52c1.26,0.57,3.13,0.9,5.46,0.9C9.65,26.61,12.49,25.22,12.49,22.04L12.49,22.04z M8.61,14.58
		c0,1.9-1.1,2.88-4.36,2.81l-1.04-0.01v-5.15c0.61-0.18,1.23-0.27,2.03-0.27c2.23,0,3.37,0.88,3.37,2.64L8.61,14.58z M9.09,22
		c-0.01,2.05-1.56,2.82-3.75,2.82c-0.91,0-1.55-0.1-2.14-0.29v-5.71l1.04-0.01c3.48-0.07,4.83,1.01,4.83,3.21L9.09,22z"/>
</g>
</svg>
