<?xml version="1.0" encoding="utf-8"?>
<!-- Generator: Adobe Illustrator 26.0.1, SVG Export Plug-In . SVG Version: 6.00 Build 0)  -->
<svg version="1.1" id="Layer_1" xmlns="http://www.w3.org/2000/svg" xmlns:xlink="http://www.w3.org/1999/xlink" x="0px" y="0px"
	 viewBox="0 0 95 35" style="enable-background:new 0 0 95 35;" xml:space="preserve">
<style type="text/css">
	.st0{fill-rule:evenodd;clip-rule:evenodd;fill:#CCCCCC;}
	.st1{fill-rule:evenodd;clip-rule:evenodd;fill:#CCCCCC;stroke:#CCCCCC;stroke-width:0.0901;stroke-miterlimit:2.6131;}
	.st2{fill:none;stroke:#FFCB05;stroke-width:0.1375;stroke-miterlimit:2.6131;}
	.st3{fill-rule:evenodd;clip-rule:evenodd;}
</style>
<path class="st0" d="M3.56,16.3H5.4c0-1.11-0.8-2.24-2.66-2.24C0.9,14.06,0,15.39,0,16.96c0,1.66,1.08,2.85,2.86,2.85
	c1.71,0,2.54-1.08,2.54-2.24H3.59c-0.08,0.38-0.25,0.78-0.75,0.78c-0.53,0-0.93-0.4-0.93-1.44c0-1.01,0.48-1.34,0.93-1.34
	C3.31,15.57,3.51,15.97,3.56,16.3L3.56,16.3z"/>
<path class="st0" d="M10.24,19.68v-3.86h1.56v0.33c0.28-0.3,0.68-0.53,1.23-0.53c0.53,0,1.08,0.25,1.26,0.61
	c0.23-0.33,0.73-0.58,1.28-0.58c0.65,0,1.05,0.3,1.26,0.61c0.2-0.3,0.7-0.63,1.23-0.63c0.68,0,1.03,0.28,1.31,0.63
	c0.38-0.53,0.9-0.63,1.2-0.63c1.18,0,1.48,0.78,1.48,1.64c0,0.88,0,2.42,0,2.42h-1.68v-2.14c0-0.38-0.13-0.53-0.4-0.53
	c-0.28,0-0.45,0.25-0.45,0.55c0,0.33,0,2.12,0,2.12H17.8v-2.14c0-0.38-0.1-0.53-0.38-0.53c-0.28,0-0.45,0.25-0.45,0.55
	c0,0.33,0,2.12,0,2.12h-1.68v-2.14c0-0.38-0.13-0.53-0.4-0.53c-0.25,0-0.43,0.25-0.43,0.55c0,0.33,0,2.12,0,2.12h-1.68v-2.14
	c0-0.38-0.13-0.53-0.4-0.53c-0.28,0-0.45,0.25-0.45,0.55c0,0.33,0,2.12,0,2.12H10.24L10.24,19.68z"/>
<path class="st0" d="M31.17,16.93c0,0.3,0,2.75,0,2.75h-1.68v-2.14c0-0.38-0.15-0.53-0.43-0.53c-0.28,0-0.45,0.25-0.45,0.55
	c0,0.33,0,2.12,0,2.12h-1.68v-3.86h1.56v0.33c0.28-0.3,0.8-0.53,1.23-0.53C30.27,15.6,31.17,15.92,31.17,16.93L31.17,16.93z"/>
<path class="st0" d="M35.04,19.71c-0.08-0.28-0.2-0.63-0.33-1.06c-0.1-0.33-0.18-0.61-0.18-0.76c0,0.15-0.05,0.43-0.15,0.76
	c-0.13,0.38-0.23,0.78-0.33,1.03H32.3l-1.18-3.88h1.81c0.08,0.25,0.15,0.61,0.28,0.96c0.08,0.3,0.13,0.55,0.13,0.71
	c0-0.15,0.08-0.4,0.15-0.71c0.13-0.38,0.23-0.71,0.3-0.96l0,0h1.53c0.08,0.25,0.18,0.58,0.28,0.96c0.08,0.3,0.15,0.55,0.15,0.71
	c0-0.15,0.08-0.4,0.15-0.71c0.1-0.35,0.2-0.71,0.28-0.96h1.78l-1.15,3.88L35.04,19.71L35.04,19.71z"/>
<polygon class="st0" points="47.04,14.18 48.72,14.18 48.72,19.68 47.04,19.68 47.04,14.18 "/>
<path class="st0" d="M51.83,18.47v1.11c-0.08,0.05-0.43,0.2-0.98,0.2c-1.1,0-1.41-0.55-1.41-1.59v-1.39h-0.5v-1.08h0.5v-1.54h1.68
	v1.54h0.68v1.08h-0.68v1.08c0,0.33,0.1,0.43,0.23,0.55C51.45,18.57,51.73,18.52,51.83,18.47L51.83,18.47z"/>
<path class="st0" d="M56.45,16.78c0,0.33,0,2.9,0,2.9h-1.68v-2.14c0-0.38-0.18-0.53-0.43-0.53c-0.28,0-0.45,0.25-0.45,0.55
	c0,0.33,0,2.12,0,2.12h-1.73l-0.03-5.47h1.63v1.92c0.23-0.3,0.8-0.55,1.23-0.55C55.82,15.57,56.45,16.13,56.45,16.78L56.45,16.78z"
	/>
<polygon class="st0" points="70.55,17.36 69.83,18.07 69.83,19.68 69.47,19.68 69.47,14.11 69.83,14.11 69.83,17.69 71.93,15.67 
	72.34,15.67 70.83,17.13 72.51,19.68 72.13,19.68 70.55,17.36 "/>
<path class="st0" d="M67.74,15.95c-0.65,0-1.23,0.53-1.23,1.19v2.55h-0.35V15.7h0.35v0.68c0.15-0.25,0.55-0.76,1.28-0.76
	c1.05,0,1.36,0.78,1.36,1.41v2.65H68.8v-2.47C68.8,16.18,68.27,15.95,67.74,15.95L67.74,15.95z"/>
<path class="st0" d="M60.44,14.21c0.98,0,1.61,0.55,1.58,1.34c0,0.68-0.4,1.06-0.78,1.24c0.33,0.13,1.05,0.43,1.05,1.39
	c-0.03,1.11-0.85,1.51-1.66,1.51h-2.33v-5.47H60.44L60.44,14.21z M60.36,16.66c0.5,0,1.31-0.18,1.28-1.06
	c0-0.86-0.65-1.06-1.15-1.03h-1.83v2.09H60.36L60.36,16.66z M58.66,19.33h1.93c0.93,0,1.31-0.48,1.31-1.16
	c0-0.68-0.55-1.16-1.2-1.16h-2.03V19.33L58.66,19.33z"/>
<path class="st0" d="M66.01,19.43v0.23c-0.13,0.08-0.28,0.08-0.35,0.08c-0.13,0-0.45-0.08-0.45-0.71c-0.38,0.53-0.88,0.76-1.48,0.76
	c-0.63,0-1.23-0.3-1.23-1.16c0-0.83,0.68-1.03,0.95-1.08c0.28-0.05,0.95-0.15,1.13-0.18c0.18-0.05,0.63-0.05,0.63-0.45
	c0-0.1,0-0.2,0-0.35c0-0.3-0.23-0.71-1.1-0.71c-0.98,0-1.15,0.83-1.15,0.91h-0.28c0-0.48,0.35-1.19,1.38-1.19
	c1.46,0,1.51,0.78,1.51,1.26v2.27C65.56,19.38,65.71,19.5,66.01,19.43L66.01,19.43z M65.18,18.19v-0.68l-1.38,0.23
	c-0.38,0.08-0.95,0.23-0.95,0.91c0,0.68,0.53,0.83,0.98,0.83C64.5,19.48,65.18,19.03,65.18,18.19L65.18,18.19z"/>
<path class="st0" d="M7.73,15.55c1.61,0,2.36,1.01,2.36,2.14c0,1.49-1.15,2.12-2.28,2.12c-1.43,0-2.23-0.91-2.23-2.04
	C5.57,16.68,6.17,15.55,7.73,15.55L7.73,15.55z M7.81,18.72c0.45,0,0.53-0.61,0.53-1.01c0-0.38-0.08-0.98-0.53-0.98
	c-0.45,0-0.5,0.61-0.5,0.98C7.3,18.12,7.35,18.72,7.81,18.72L7.81,18.72z"/>
<path class="st0" d="M24.4,15.55c1.61,0,2.36,1.01,2.36,2.14c0,1.49-1.15,2.12-2.28,2.12c-1.43,0-2.23-0.91-2.23-2.04
	C22.24,16.68,22.84,15.55,24.4,15.55L24.4,15.55z M24.47,18.72c0.45,0,0.5-0.61,0.5-1.01c0-0.38-0.05-0.98-0.5-0.98
	s-0.53,0.61-0.53,0.98C23.94,18.12,24.02,18.72,24.47,18.72L24.47,18.72z"/>
<path class="st0" d="M39.48,18.12c0,0.33,0.23,0.58,0.53,0.58c0.2,0,0.43-0.08,0.5-0.23h1.61c-0.35,0.91-1.26,1.34-2.18,1.34
	c-1.41,0-2.23-0.91-2.23-2.04c0-1.08,0.6-2.22,2.18-2.22c1.61,0,2.33,1.01,2.33,2.14c0,0.18,0,0.28-0.03,0.43H39.48L39.48,18.12z
	 M40.46,17.11c-0.05-0.25-0.23-0.48-0.48-0.48c-0.3,0-0.45,0.2-0.48,0.48H40.46L40.46,17.11z"/>
<path class="st0" d="M45.18,19.68l-0.13-0.28c-0.25,0.28-0.93,0.45-1.23,0.45c-0.28,0-1.51-0.1-1.51-1.26
	c0-1.31,1.71-1.36,2.06-1.41c0.33-0.05,0.58-0.15,0.58-0.35c0-0.18-0.13-0.33-0.35-0.33c-0.3,0-0.48,0.25-0.48,0.5h-1.56
	c0-0.96,0.8-1.51,1.98-1.51c1.93,0,2.13,0.66,2.13,1.71c0,0,0,0.98,0,1.26c0,0.3,0,0.66,0.05,0.91l0.1,0.3H45.18L45.18,19.68z
	 M44.27,18.24c-0.2,0.1-0.23,0.23-0.13,0.38c0.1,0.15,0.38,0.18,0.63,0c0.23-0.18,0.18-0.48,0.18-0.61
	C44.65,18.12,44.45,18.17,44.27,18.24L44.27,18.24z"/>
<polygon class="st1" points="87.57,24.98 80.12,17.51 87.57,10.02 93.14,15.62 90.83,17.97 87.57,24.98 "/>
<polyline class="st2" points="93.14,15.67 90.83,17.99 87.7,24.78 "/>
<polygon class="st3" points="87.57,24.98 90.83,17.97 93.14,15.62 95,17.51 87.57,24.98 "/>
</svg>
