<?xml version="1.0" encoding="utf-8"?>
<!-- Generator: Adobe Illustrator 26.0.1, SVG Export Plug-In . SVG Version: 6.00 Build 0)  -->
<svg version="1.1" id="Layer_1" xmlns="http://www.w3.org/2000/svg" xmlns:xlink="http://www.w3.org/1999/xlink" x="0px" y="0px"
	 viewBox="0 0 95 35" style="enable-background:new 0 0 95 35;" xml:space="preserve">
<style type="text/css">
	.st0{fill:#343741;}
</style>
<g>
	<path class="st0" d="M62.48,20.05c-0.04-0.29-0.05-0.59-0.05-0.91v-3.65c0-0.42-0.1-0.77-0.29-1.03c-0.19-0.26-0.44-0.46-0.73-0.6
		c-0.3-0.14-0.63-0.24-0.99-0.29c-0.36-0.05-0.72-0.07-1.07-0.07c-0.39,0-0.78,0.04-1.16,0.12c-0.39,0.08-0.73,0.21-1.04,0.39
		c-0.31,0.18-0.56,0.42-0.76,0.72c-0.2,0.3-0.31,0.68-0.34,1.13h1.93c0.04-0.38,0.16-0.65,0.38-0.81c0.22-0.16,0.52-0.24,0.9-0.24
		c0.17,0,0.33,0.01,0.48,0.03c0.15,0.02,0.28,0.07,0.39,0.14c0.11,0.07,0.2,0.16,0.27,0.29c0.07,0.12,0.1,0.29,0.1,0.5
		c0.01,0.2-0.05,0.35-0.18,0.45c-0.13,0.1-0.3,0.19-0.52,0.24c-0.22,0.05-0.47,0.1-0.75,0.12c-0.28,0.03-0.57,0.06-0.86,0.11
		c-0.29,0.05-0.58,0.11-0.86,0.18c-0.29,0.08-0.54,0.19-0.76,0.34c-0.22,0.16-0.4,0.36-0.54,0.62c-0.14,0.26-0.21,0.59-0.21,0.98
		c0,0.36,0.06,0.68,0.19,0.94c0.12,0.26,0.29,0.48,0.51,0.65c0.22,0.17,0.47,0.3,0.76,0.38c0.29,0.08,0.6,0.12,0.94,0.12
		c0.43,0,0.86-0.06,1.27-0.19c0.42-0.13,0.78-0.35,1.08-0.67c0.01,0.12,0.03,0.23,0.05,0.35c0.02,0.11,0.05,0.22,0.09,0.33h1.95
		C62.58,20.55,62.52,20.34,62.48,20.05z M60.5,17.98c0,0.11-0.01,0.25-0.03,0.43c-0.02,0.18-0.08,0.36-0.18,0.54
		c-0.1,0.18-0.25,0.33-0.46,0.46c-0.21,0.13-0.5,0.19-0.88,0.19c-0.15,0-0.3-0.02-0.45-0.04c-0.14-0.03-0.27-0.08-0.38-0.14
		c-0.11-0.07-0.19-0.16-0.26-0.28c-0.06-0.12-0.1-0.26-0.1-0.43c0-0.18,0.03-0.33,0.1-0.45c0.06-0.12,0.15-0.22,0.25-0.29
		c0.11-0.07,0.23-0.14,0.37-0.18c0.14-0.04,0.28-0.08,0.43-0.11c0.15-0.03,0.31-0.05,0.46-0.07c0.15-0.02,0.3-0.04,0.44-0.07
		c0.14-0.03,0.27-0.06,0.39-0.1c0.12-0.04,0.22-0.1,0.3-0.17L60.5,17.98L60.5,17.98z"/>
	<rect x="65.58" y="11.01" class="st0" width="1.93" height="9.69"/>
	<polygon class="st0" points="53.28,14.73 49.35,14.73 49.35,11.01 47.22,11.01 47.22,20.7 49.35,20.7 49.35,16.52 53.28,16.52 
		53.28,20.7 55.41,20.7 55.41,11.01 53.28,11.01 	"/>
	<rect x="63.02" y="11.01" class="st0" width="1.93" height="9.69"/>
	<path class="st0" d="M23.06,20.05C23.02,19.76,23,19.45,23,19.14v-3.65c0-0.42-0.1-0.77-0.29-1.03c-0.19-0.26-0.44-0.46-0.73-0.61
		c-0.3-0.14-0.63-0.24-0.99-0.29c-0.36-0.05-0.72-0.07-1.07-0.07c-0.39,0-0.78,0.04-1.16,0.12c-0.38,0.08-0.73,0.21-1.04,0.39
		c-0.31,0.18-0.56,0.42-0.76,0.72c-0.2,0.3-0.31,0.68-0.34,1.13h1.92c0.04-0.38,0.16-0.65,0.38-0.81c0.22-0.16,0.52-0.24,0.9-0.24
		c0.17,0,0.33,0.01,0.48,0.03c0.15,0.02,0.28,0.07,0.39,0.14c0.11,0.07,0.2,0.16,0.27,0.28c0.07,0.12,0.1,0.29,0.1,0.5
		c0.01,0.2-0.05,0.35-0.18,0.46c-0.13,0.11-0.3,0.19-0.51,0.24c-0.22,0.05-0.47,0.1-0.75,0.12c-0.28,0.03-0.57,0.06-0.86,0.11
		c-0.29,0.04-0.58,0.11-0.86,0.18c-0.29,0.08-0.54,0.19-0.76,0.34c-0.22,0.16-0.4,0.36-0.54,0.62c-0.14,0.26-0.21,0.59-0.21,0.98
		c0,0.36,0.06,0.67,0.18,0.94c0.12,0.26,0.29,0.48,0.51,0.65c0.22,0.17,0.47,0.3,0.76,0.38c0.29,0.08,0.6,0.12,0.94,0.12
		c0.44,0,0.86-0.06,1.28-0.19c0.42-0.13,0.78-0.35,1.09-0.67c0.01,0.12,0.02,0.23,0.05,0.35c0.02,0.11,0.05,0.22,0.09,0.33h1.95
		C23.16,20.55,23.09,20.34,23.06,20.05z M21.07,17.98c0,0.11-0.01,0.25-0.03,0.43c-0.02,0.18-0.08,0.36-0.18,0.54
		c-0.1,0.18-0.25,0.33-0.46,0.46c-0.21,0.13-0.5,0.19-0.88,0.19c-0.15,0-0.3-0.02-0.45-0.04c-0.14-0.03-0.27-0.08-0.38-0.14
		c-0.11-0.07-0.2-0.16-0.26-0.28c-0.06-0.12-0.09-0.26-0.09-0.43c0-0.18,0.03-0.33,0.09-0.45c0.06-0.12,0.15-0.22,0.25-0.29
		c0.11-0.08,0.23-0.14,0.37-0.18c0.14-0.04,0.28-0.08,0.43-0.11c0.15-0.03,0.31-0.05,0.46-0.07c0.16-0.02,0.3-0.04,0.44-0.07
		c0.14-0.03,0.27-0.06,0.39-0.1c0.12-0.04,0.22-0.1,0.31-0.17L21.07,17.98L21.07,17.98z"/>
	<path class="st0" d="M6.29,18.54c-0.37,0.4-0.88,0.6-1.53,0.6c-0.48,0-0.89-0.09-1.22-0.28c-0.33-0.19-0.61-0.43-0.81-0.74
		c-0.21-0.31-0.36-0.65-0.45-1.04c-0.09-0.38-0.14-0.78-0.14-1.19c0-0.43,0.05-0.84,0.14-1.24c0.09-0.4,0.25-0.75,0.45-1.07
		c0.21-0.31,0.48-0.56,0.81-0.75c0.33-0.19,0.74-0.28,1.22-0.28c0.26,0,0.51,0.04,0.75,0.13c0.24,0.09,0.45,0.2,0.64,0.36
		c0.19,0.15,0.35,0.33,0.47,0.54c0.13,0.2,0.21,0.43,0.24,0.67h2.06c-0.06-0.56-0.22-1.06-0.46-1.49c-0.24-0.43-0.55-0.8-0.93-1.09
		c-0.38-0.3-0.8-0.52-1.28-0.67c-0.48-0.15-0.98-0.23-1.51-0.23c-0.74,0-1.41,0.13-2,0.39c-0.59,0.26-1.09,0.63-1.5,1.09
		c-0.41,0.46-0.72,1-0.94,1.62C0.11,14.5,0,15.17,0,15.89c0,0.71,0.11,1.36,0.33,1.97c0.22,0.61,0.53,1.14,0.94,1.6
		c0.41,0.45,0.91,0.81,1.5,1.06c0.59,0.26,1.26,0.39,2,0.39c0.6,0,1.14-0.09,1.64-0.27c0.5-0.18,0.93-0.44,1.3-0.79
		c0.37-0.34,0.67-0.76,0.9-1.25c0.23-0.49,0.37-1.04,0.42-1.64H6.96C6.88,17.62,6.66,18.14,6.29,18.54z"/>
	<path class="st0" d="M15.45,14.47c-0.19-0.25-0.45-0.44-0.78-0.58c-0.33-0.14-0.75-0.21-1.27-0.21c-0.36,0-0.73,0.09-1.11,0.28
		c-0.38,0.19-0.64,0.47-0.94,0.7H11.3v-3.04H9.38v9.08h1.93V17.2c0-0.71,0.12-1.23,0.35-1.54c0.23-0.31,0.61-0.47,1.14-0.47
		c0.46,0,0.78,0.14,0.96,0.43c0.18,0.29,0.27,0.72,0.27,1.3v3.78h1.93v-4.13c0-0.43-0.04-0.83-0.12-1.19
		C15.77,15.02,15.63,14.72,15.45,14.47z"/>
	<path class="st0" d="M26.94,13.77c-0.23,0.07-0.44,0.17-0.64,0.31c-0.2,0.13-0.38,0.29-0.53,0.48c-0.15,0.19-0.28,0.39-0.37,0.6
		h-0.03v-1.47h-1.83v7.02h1.93v-3.13c0-0.32,0.03-0.61,0.1-0.89c0.06-0.27,0.17-0.51,0.32-0.71c0.15-0.2,0.35-0.36,0.59-0.48
		c0.25-0.12,0.54-0.17,0.9-0.17c0.12,0,0.23-0.02,0.36-0.01c0.1,0,0.24-0.01,0.33,0v-1.62h-0.42C27.4,13.68,27.16,13.7,26.94,13.77z
		"/>
	<path class="st0" d="M32.22,19.26c-0.32,0-0.54-0.05-0.65-0.16c-0.11-0.11-0.17-0.33-0.17-0.65v-3.48h1.41v-1.29H31.4v-2.1h-1.93
		v2.1h-1.17v1.29h1.17v4.14c0,0.35,0.06,0.64,0.18,0.86c0.12,0.22,0.28,0.38,0.48,0.5c0.2,0.12,0.44,0.2,0.71,0.24
		c0.27,0.04,0.55,0.06,0.85,0.06c0.19,0,0.38-0.01,0.58-0.01c0.2-0.01,0.38-0.03,0.54-0.05V19.2c-0.09,0.02-0.19,0.03-0.29,0.04
		C32.43,19.26,32.33,19.26,32.22,19.26z"/>
	<path class="st0" d="M39.44,16.1c-0.13-0.5-0.33-0.94-0.62-1.33c-0.29-0.39-0.65-0.7-1.09-0.93c-0.44-0.23-0.96-0.35-1.56-0.35
		c-0.53,0-1.02,0.1-1.46,0.28c-0.44,0.19-0.82,0.45-1.13,0.78c-0.32,0.33-0.56,0.72-0.73,1.17c-0.17,0.45-0.26,0.94-0.26,1.47
		c0,0.54,0.08,1.04,0.25,1.49c0.17,0.45,0.41,0.84,0.71,1.17c0.31,0.33,0.68,0.58,1.13,0.75c0.44,0.18,0.94,0.26,1.49,0.26
		c0.79,0,1.47-0.18,2.04-0.54c0.56-0.36,0.98-0.96,1.25-1.81h-1.7c-0.06,0.22-0.23,0.42-0.52,0.62c-0.28,0.19-0.62,0.29-1,0.29
		c-0.54,0-0.96-0.14-1.25-0.42c-0.29-0.28-0.45-0.73-0.47-1.36h5.06C39.61,17.11,39.57,16.59,39.44,16.1z M34.52,16.44
		c0.01-0.14,0.04-0.29,0.08-0.46c0.05-0.17,0.14-0.33,0.26-0.49c0.12-0.15,0.28-0.28,0.49-0.39c0.2-0.11,0.46-0.16,0.77-0.16
		c0.47,0,0.82,0.13,1.05,0.38c0.23,0.25,0.39,0.62,0.48,1.11L34.52,16.44L34.52,16.44z"/>
	<path class="st0" d="M43.36,13.6c-0.23,0.07-0.44,0.17-0.64,0.31c-0.2,0.13-0.38,0.29-0.53,0.48c-0.15,0.18-0.27,0.39-0.36,0.6
		H41.8v-1.3h-1.83v7.02h1.93v-3.16c0-0.32,0.03-0.61,0.09-0.88c0.06-0.27,0.17-0.51,0.32-0.71c0.15-0.2,0.35-0.36,0.59-0.48
		c0.24-0.12,0.55-0.18,0.9-0.18c0.12,0,0.24,0.01,0.37,0.02c0.13,0.01,0.23,0.03,0.32,0.05v-1.79c-0.15-0.04-0.3-0.07-0.42-0.07
		C43.83,13.49,43.59,13.53,43.36,13.6z"/>
	<polygon class="st0" points="84.35,11.74 74.01,21.05 84.35,30.35 94.69,21.05 	"/>
	<polygon class="st0" points="73.7,20.53 84.04,11.23 84.04,4.65 73.7,13.95 	"/>
	<polygon class="st0" points="84.66,4.65 84.66,11.23 95,20.53 95,13.95 	"/>
</g>
</svg>
