<?xml version="1.0" encoding="utf-8"?>
<!-- Generator: Adobe Illustrator 26.0.1, SVG Export Plug-In . SVG Version: 6.00 Build 0)  -->
<svg version="1.1" id="Layer_1" xmlns="http://www.w3.org/2000/svg" xmlns:xlink="http://www.w3.org/1999/xlink" x="0px" y="0px"
	 viewBox="0 0 95 35" style="enable-background:new 0 0 95 35;" xml:space="preserve">
<style type="text/css">
	.st0{fill:#CCCCCC;}
</style>
<g>
	<path class="st0" d="M10.63,15.76c-0.73-2.88-3.66-4.64-6.55-3.91c-2.9,0.73-4.64,3.66-3.91,6.55c0.73,2.88,3.66,4.64,6.55,3.91
		c1.92-0.49,3.42-1.98,3.91-3.91H8.35c-0.73,1.63-2.64,2.36-4.27,1.63s-2.36-2.64-1.63-4.27s2.64-2.36,4.27-1.63
		c0.73,0.33,1.31,0.9,1.63,1.63L10.63,15.76L10.63,15.76z"/>
	<path class="st0" d="M21.9,17.09c0-2.98-2.41-5.4-5.4-5.4c-2.98,0-5.4,2.41-5.4,5.4c0,2.98,2.41,5.4,5.4,5.4l0,0
		C19.5,22.49,21.9,20.06,21.9,17.09 M19.75,17.09c0,1.79-1.46,3.23-3.23,3.23s-3.23-1.46-3.23-3.23s1.46-3.23,3.23-3.23
		C18.31,13.84,19.75,15.3,19.75,17.09"/>
	<rect x="22.62" y="8.48" class="st0" width="2.36" height="13.74"/>
	<path class="st0" d="M35.9,17.56c0.02-0.17,0.02-0.35,0.02-0.54c0-3.99-3.02-5.34-5.13-5.34l0,0c-2.09,0-5.13,1.35-5.13,5.34
		c0,3.31,2.41,5.45,5.13,5.45l0,0c2.26,0,4.26-1.5,4.88-3.67h-2.33c-0.47,0.98-1.46,1.61-2.55,1.63l0,0c-1.42,0-2.71-1.11-2.93-2.87
		h5.86l0,0L35.9,17.56z M30.8,13.64L30.8,13.64c1.3,0,2.44,0.85,2.8,2.11h-5.59C28.36,14.49,29.5,13.64,30.8,13.64"/>
	<path class="st0" d="M40.62,22.46c-2.72,0-4.29-1.31-4.29-3.61V18.8h2.14v0.05c0.09,1.22,0.85,1.82,2.34,1.82
		c1.23,0,1.99-0.51,1.99-1.31c0-0.68-0.52-0.95-1.55-1.2l-1.5-0.38c-0.85-0.16-1.66-0.51-2.36-1.03c-0.54-0.47-0.82-1.16-0.79-1.88
		c-0.03-0.89,0.36-1.73,1.04-2.28c0.84-0.62,1.87-0.92,2.91-0.87c1.08-0.05,2.15,0.27,3.02,0.9c0.73,0.57,1.12,1.44,1.11,2.36v0.02
		h-2.12v-0.02c-0.06-0.98-0.78-1.5-2.11-1.5c-1.03,0-1.68,0.41-1.68,1.06c0,0.73,0.63,1.03,1.66,1.27l1.28,0.28
		c2.11,0.49,3.25,1.11,3.25,2.99c0.03,0.97-0.38,1.88-1.14,2.47C42.9,22.2,41.76,22.52,40.62,22.46"/>
	<path class="st0" d="M47.19,17.04c-0.06,2.18,1.66,4.01,3.83,4.07c0.08,0,0.16,0,0.25,0c1.08,0.02,2.11-0.41,2.85-1.17
		c0.73-0.78,1.12-1.8,1.14-2.87c0-0.97-0.33-1.9-0.92-2.66c-0.74-0.95-1.9-1.47-3.1-1.42c-2.18-0.05-3.99,1.68-4.04,3.86
		c0,0.06,0,0.13,0,0.17L47.19,17.04z M56.59,20.95c0,1.93-0.62,3.15-1.52,4.01c-1.04,1-2.42,1.55-3.85,1.57
		c-2.53,0-4.39-1.46-5.03-3.29h1.6c0.28,0.54,0.71,1,1.2,1.35c0.66,0.46,1.44,0.73,2.25,0.74c2.17,0,3.94-1.77,3.93-3.94
		c0-0.03,0-0.06,0-0.09v-1.3c-0.78,1.55-2.37,2.5-4.1,2.44c-2.87,0.06-5.24-2.2-5.32-5.08c0-0.09,0-0.17,0-0.27
		c-0.09-2.87,2.15-5.29,5.02-5.38c0.09,0,0.19,0,0.28,0c1.71-0.06,3.31,0.87,4.12,2.37v-2.11h1.38v8.99H56.59z"/>
	<path class="st0" d="M82.9,22.12h-1.33V20.3c-0.57,1.33-1.95,2.12-3.75,2.09c-3.18-0.06-4.29-2.22-4.29-4.69v-5.75h1.38v5.49
		c0,2.18,0.98,3.67,3.28,3.64c2.12-0.02,3.32-1.28,3.32-3.4v-5.73h1.39L82.9,22.12L82.9,22.12z"/>
	<path class="st0" d="M93.61,17.03c0.05-2.18-1.68-4.01-3.86-4.07c-0.08,0-0.14,0-0.22,0c-1.08,0-2.11,0.43-2.87,1.19
		c-0.74,0.79-1.14,1.84-1.14,2.91c-0.05,2.18,1.71,4.01,3.89,4.04c0.05,0,0.09,0,0.14,0c2.2,0.05,4.01-1.71,4.04-3.89
		c0-0.05,0-0.11,0-0.16L93.61,17.03z M84.2,11.96h1.33v2.12c0.85-1.54,2.5-2.47,4.26-2.41c3.42,0,5.21,2.77,5.21,5.4
		c0,2.83-2.06,5.34-5.21,5.34c-2.25,0-3.7-1.3-4.18-2.36v5.94h-1.39L84.2,11.96z"/>
	<path class="st0" d="M67.2,11.67c-2.96,0-5.35,2.39-5.35,5.35s2.39,5.35,5.35,5.35c2.96,0,5.35-2.39,5.35-5.35l0,0
		C72.55,14.08,70.16,11.67,67.2,11.67 M67.2,13.04c2.22,0,4.01,1.79,4.01,4.01s-1.79,4.01-4.01,4.01c-2.22,0-4.01-1.79-4.01-4.01
		C63.21,14.82,65,13.04,67.2,13.04"/>
	<path class="st0" d="M63.91,11.69L63.91,11.69H62.5c-1.19,0.03-2.52,0.43-3.25,1.95v-1.68h-1.33v9.69h1.38v-5.07
		c0-2.3,1.09-3.51,3.04-3.53C62.77,12.51,63.3,12.05,63.91,11.69z"/>
	<path class="st0" d="M56.45,25.21c-0.16,0.21-0.33,0.41-0.52,0.59c-0.06,0.06-0.14,0.13-0.21,0.19h27.37v-0.78L56.45,25.21
		L56.45,25.21z"/>
</g>
</svg>
