<?xml version="1.0" encoding="utf-8"?>
<!-- Generator: Adobe Illustrator 26.0.1, SVG Export Plug-In . SVG Version: 6.00 Build 0)  -->
<svg version="1.1" id="Layer_1" xmlns="http://www.w3.org/2000/svg" xmlns:xlink="http://www.w3.org/1999/xlink" x="0px" y="0px"
	 viewBox="0 0 95 35" style="enable-background:new 0 0 95 35;" xml:space="preserve">
<style type="text/css">
	.st0{fill:#CCCCCC;}
</style>
<g>
	<path class="st0" d="M76.14,18.83c0-1.55,0.32-2.63,0.98-3.28c0.33-0.33,0.94-0.69,1.63-0.69c0.92,0,1.7,0.47,2.08,0.92l0.08,0.09
		l0.17-0.61c0.06-0.23,0.26-0.4,0.49-0.4h0.89c0.22,0,0.39,0.17,0.39,0.38c0,0,0,5.76,0,5.8c0,0.57-0.05,1.2,0.17,1.86
		c-0.15,0-1.41,0-1.41,0c-0.24,0-0.36-0.12-0.4-0.41l-0.09-0.55L81,22.07c-0.41,0.59-1.24,0.95-2.2,0.95
		C77.67,23.02,76.14,22.58,76.14,18.83 M78.27,18.94c0,1.62,0.37,2.28,1.27,2.28c0.77,0,1.14-0.74,1.14-2.28
		c0-1.6-0.37-2.38-1.14-2.38C78.49,16.57,78.27,17.52,78.27,18.94z"/>
	<path class="st0" d="M10.92,18.86c0-2.57,1.25-4.11,3.35-4.11c2.09,0,3.34,1.53,3.34,4.11c0,2.64-1.22,4.16-3.34,4.16
		C12.11,23.02,10.92,21.54,10.92,18.86 M12.96,18.85c0,1.63,0.42,2.42,1.3,2.42c0.89,0,1.32-0.79,1.32-2.42
		c0-1.61-0.43-2.39-1.32-2.39C13.38,16.46,12.96,17.24,12.96,18.85z"/>
	<path class="st0" d="M24.78,15.81c0.53-0.63,1.38-1.05,2.11-1.05c1.23,0,1.96,0.82,1.96,2.2c0,0,0,5.83,0,5.95
		c-0.12,0-1.66,0-1.66,0c-0.21,0-0.39-0.18-0.39-0.39v-5.29c0-0.5-0.33-0.76-0.66-0.76c-0.77,0-1.27,0.67-1.27,1.72
		c0,0,0,4.61,0,4.72c-0.11,0-1.66,0-1.66,0c-0.22,0-0.39-0.18-0.39-0.39v-5.29c0-0.5-0.33-0.76-0.67-0.76
		c-0.77,0-1.27,0.67-1.27,1.72c0,0,0,4.61,0,4.72c-0.11,0-1.66,0-1.66,0c-0.21,0-0.39-0.18-0.39-0.39c0,0,0-7.52,0-7.64
		c0.11,0,1.36,0,1.36,0c0.27,0,0.37,0.19,0.41,0.35l0.15,0.62l0.08-0.09c0.53-0.6,1.36-1,2.06-1c0.86,0,1.49,0.37,1.78,1.03
		l0.04,0.09L24.78,15.81"/>
	<path class="st0" d="M32.44,15.89c0.26-0.56,1.03-1.14,1.85-1.14c1.16,0,2.7,0.44,2.7,4.24c0,1.57-0.32,2.66-0.99,3.32
		c-0.34,0.34-0.95,0.7-1.65,0.7c-0.72,0-1.31-0.28-1.76-0.83l-0.11-0.13c0,0,0,4.06,0,4.18c-0.12,0-1.66,0-1.66,0
		c-0.22,0-0.39-0.17-0.39-0.39c0,0,0-10.85,0-10.97c0.11,0,1.26,0,1.26,0c0.23,0,0.43,0.17,0.49,0.4c0,0,0.13,0.6,0.13,0.6
		l0.04,0.18L32.44,15.89 M32.41,18.88c0,1.62,0.38,2.41,1.15,2.41c1.07,0,1.28-0.96,1.28-2.41c0-1.64-0.37-2.3-1.28-2.3
		C32.79,16.58,32.41,17.33,32.41,18.88z"/>
	<path class="st0" d="M43.99,14.88c0.21,0,0.39,0.17,0.39,0.39c0,0,0,7.52,0,7.64c-0.12,0-1.36,0-1.36,0
		c-0.27,0-0.37-0.19-0.41-0.35l-0.14-0.61l-0.08,0.08c-0.62,0.66-1.4,1-2.25,1c-1.24,0-2.08-0.82-2.08-2.03c0,0,0-5.99,0-6.11
		c0.12,0,1.66,0,1.66,0c0.22,0,0.39,0.17,0.39,0.39v5.29c0,0.47,0.32,0.77,0.83,0.77c0.78,0,1.38-0.76,1.38-1.72c0,0,0-4.61,0-4.72
		C42.44,14.88,43.99,14.88,43.99,14.88"/>
	<path class="st0" d="M64.88,21.36c0.5,0,0.79-0.24,0.82-0.68c0.03-0.61-0.54-0.9-1.19-1.24l-0.4-0.21
		c-0.79-0.44-1.61-1.03-1.61-2.14c0-1.45,1.02-2.38,2.6-2.38c0.99,0,1.67,0.28,2.38,0.58c0,0,0.01,0,0.02,0.01
		c-0.04,0.1-0.38,1.03-0.38,1.03c-0.05,0.12-0.19,0.39-0.44,0.3l-0.25-0.1c-0.31-0.13-0.69-0.29-1.14-0.29
		c-0.51,0-0.73,0.36-0.73,0.72c0,0.48,0.46,0.71,1.05,1.01l0.36,0.18c0.89,0.48,1.79,1.14,1.79,2.38c0,1.21-0.73,2.5-2.77,2.5
		c-0.88,0-2.16-0.4-2.81-0.66c0.03-0.1,0.39-1.25,0.39-1.25c0.05-0.14,0.12-0.24,0.21-0.28c0.07-0.03,0.15-0.03,0.24,0
		c0,0,0.37,0.14,0.37,0.14C63.87,21.16,64.37,21.36,64.88,21.36"/>
	<path class="st0" d="M70.48,11.23c0.22,0,0.39,0.18,0.39,0.4v4.13l0.11-0.12c0.25-0.27,0.94-0.88,2-0.88c1.21,0,2,0.8,2,2.03
		c0,0,0,5.99,0,6.11c-0.12,0-1.66,0-1.66,0c-0.22,0-0.39-0.18-0.39-0.39v-5.29c0-0.5-0.26-0.76-0.75-0.76c-0.77,0-1.3,0.71-1.3,1.72
		c0,0,0,4.61,0,4.72c-0.12,0-1.66,0-1.66,0c-0.22,0-0.39-0.18-0.39-0.39c0,0,0-11.16,0-11.29C68.93,11.23,70.48,11.23,70.48,11.23"
		/>
	<path class="st0" d="M86.29,15.8c0.44-0.63,0.92-1.04,1.85-1.04c0.31,0,0.42,0.2,0.42,0.4c0,0,0,1.35,0,1.47
		c-0.72-0.03-1.25,0.11-1.62,0.46c-0.43,0.4-0.63,1.06-0.63,2.06c0,0,0,3.64,0,3.76c-0.12,0-1.66,0-1.66,0
		c-0.22,0-0.39-0.18-0.39-0.39c0,0,0-6.94,0-7.64c0.11,0,1.3,0,1.3,0c0.23,0,0.43,0.17,0.49,0.4c0,0,0.17,0.63,0.17,0.63L86.29,15.8
		"/>
	<path class="st0" d="M59.75,15.8c0.44-0.63,0.92-1.04,1.85-1.04c0.31,0,0.42,0.2,0.42,0.4c0,0,0,1.35,0,1.47
		c-0.72-0.03-1.25,0.11-1.62,0.46c-0.43,0.4-0.63,1.06-0.63,2.06c0,0,0,3.64,0,3.76c-0.12,0-1.66,0-1.66,0
		c-0.21,0-0.39-0.18-0.39-0.39c0,0,0-6.94,0-7.64c0.11,0,1.3,0,1.3,0c0.23,0,0.44,0.17,0.49,0.4c0,0,0.17,0.63,0.17,0.63L59.75,15.8
		"/>
	<path class="st0" d="M47.39,12.2c0.19-0.01,0.31,0.02,0.38,0.09c0.08,0.07,0.11,0.19,0.11,0.39v2.21h1.35
		c0.22,0,0.39,0.17,0.39,0.39c0,0,0,1.1,0,1.21c-0.11,0-1.74,0-1.74,0v3.96c0,0.45,0.2,0.71,0.57,0.71c0.19,0,0.36-0.02,0.55-0.06
		c0.25-0.06,0.33,0.05,0.38,0.25c0,0,0.19,1.1,0.23,1.35c-0.55,0.21-1.27,0.34-1.89,0.34c-1.26,0-1.88-0.66-1.88-2.02
		c0,0,0-8.69,0-8.81C45.94,12.2,47.39,12.2,47.39,12.2"/>
	<path class="st0" d="M90.82,18.04v0.06H93v-0.06c0-1.13-0.36-1.7-1.07-1.7C91.42,16.34,90.82,16.64,90.82,18.04 M88.66,18.86
		c0-2.49,1.27-4.11,3.22-4.11c2.07,0,3.12,1.42,3.12,4.22c0,0.22-0.17,0.39-0.39,0.39h-3.79v0.06c0,0.97,0.08,2,1.09,2
		c0.62,0,0.97-0.36,1.06-1.08c0.1,0,1.82,0,1.95,0c-0.22,1.96-1.57,2.66-2.78,2.66C89.83,23.02,88.66,21.62,88.66,18.86z"/>
	<path class="st0" d="M52.31,18.04v0.06h2.18v-0.06c0-1.13-0.36-1.7-1.07-1.7C52.91,16.34,52.31,16.64,52.31,18.04 M50.15,18.86
		c0-2.49,1.26-4.11,3.22-4.11c2.07,0,3.12,1.42,3.12,4.22c0,0.22-0.17,0.39-0.39,0.39h-3.79v0.06c0,0.97,0.08,2,1.09,2
		c0.62,0,0.97-0.36,1.06-1.08c0.1,0,1.82,0,1.94,0c-0.22,1.96-1.57,2.66-2.78,2.66C51.32,23.02,50.15,21.62,50.15,18.86z"/>
	<path class="st0" d="M5.85,23.7c-1.56-0.7-2.43-2.34-2.43-4.23c0-0.92,0.21-1.89,0.64-2.85c1.06-2.34,3.32-3.48,4.93-3.74
		c0,0,0.46-0.08,0.56-0.1c0.02,0.11,0.19,1.19,0.21,1.29c-0.1,0.01-0.61,0.09-0.61,0.09c-1.33,0.22-3.15,1.32-4.01,3.23
		c-0.37,0.83-0.55,1.67-0.55,2.46c0,1.56,0.7,2.91,1.97,3.48c1.46,0.66,3.16,0.11,4.43-1.44c0.05,0.06,0.13,0.16,0.17,0.21
		C9.63,23.88,7.61,24.49,5.85,23.7"/>
	<path class="st0" d="M4.88,24.38c-2.03-0.92-3.17-3.02-3.17-5.42c0-1.12,0.25-2.31,0.77-3.48c1.32-2.93,4.2-4.33,6.26-4.64
		c0,0,0.38-0.06,0.48-0.08c0.06,0.36,0.18,1.1,0.21,1.32c-0.1,0.01-0.53,0.08-0.53,0.08c-1.88,0.3-4.27,1.68-5.35,4.09
		c-0.45,1.01-0.68,2.06-0.68,3.08c0,0.74,0.12,1.47,0.38,2.13c0.45,1.18,1.27,2.09,2.34,2.57c1.91,0.86,4.12,0.23,5.79-1.63
		c0.05,0.06,0.12,0.15,0.16,0.2C9.63,24.68,7.08,25.37,4.88,24.38"/>
	<path class="st0" d="M8.93,8.77c0.02,0.1,0.18,1.15,0.19,1.26c-0.1,0.01-0.51,0.07-0.51,0.07c-2.24,0.28-5.27,1.95-6.64,4.98
		c-0.56,1.24-0.83,2.52-0.83,3.72c0,2.6,1.24,4.89,3.46,5.89c2.36,1.06,5.08,0.36,7.13-1.83c0.05,0.06,0.11,0.14,0.15,0.19
		c-2.29,2.43-5.35,3.2-7.99,2.01c-3.65-1.65-4.96-6.35-3-10.72c1.49-3.31,4.89-5.16,7.6-5.53C8.51,8.81,8.8,8.78,8.93,8.77"/>
</g>
</svg>
