<?xml version="1.0" encoding="utf-8"?>
<!-- Generator: Adobe Illustrator 26.0.1, SVG Export Plug-In . SVG Version: 6.00 Build 0)  -->
<svg version="1.1" id="Layer_1" xmlns="http://www.w3.org/2000/svg" xmlns:xlink="http://www.w3.org/1999/xlink" x="0px" y="0px"
	 viewBox="0 0 95 35" style="enable-background:new 0 0 95 35;" xml:space="preserve">
<style type="text/css">
	.st0{fill:#CCCCCC;}
</style>
<g>
	<path class="st0" d="M37.66,33.69C34.79,34.56,31.89,35,29.32,35c-9.84,0-16.87-5.87-16.87-17.74C12.45,7.27,18.17,0,29.27,0
		c4.41,0,7.37,1.21,8.19,1.55l-0.48,7.46c-1.07-0.63-3.73-1.94-6.59-1.94c-5.82,0-8.53,3.78-8.53,10.37c0,5.82,3.2,10.28,8.92,10.28
		c3.25,0,5.63-1.31,6.5-1.89L37.66,33.69"/>
	<path class="st0" d="M39.98,26.27c1.11,0.63,4.41,2.04,7.66,2.04c3.44,0,4.65-1.5,4.65-3.64c0-2.23-1.5-2.86-4.12-3.88l-1.99-0.78
		c-5.57-2.18-7.27-5.19-7.27-9.98C38.91,3.64,44.05,0,51.23,0c2.57,0,5.77,0.24,8.53,1.36L59.37,8c-1.6-0.82-4.36-1.7-6.98-1.7
		c-2.71,0-4.36,1.12-4.36,3.2c0,1.74,0.87,2.52,3.88,3.88l4.07,1.84c3.05,1.41,5.72,3.54,5.72,8.58c0,7.42-5.33,11.2-13.23,11.2
		c-4.07,0-7.32-0.87-9.02-1.31L39.98,26.27"/>
	<polyline class="st0" points="63.51,0.58 72.62,0.58 72.62,27.54 82.55,27.54 82.55,34.42 63.51,34.42 63.51,0.58 	"/>
	<path class="st0" d="M74.68,1.22h-0.79v-0.6h2.31v0.6h-0.79v2.19h-0.74V1.22 M76.51,0.62h1.05l0.58,1.63h0.01l0.58-1.63h1.05v2.8
		h-0.74V1.59h-0.01l-0.59,1.83h-0.58l-0.59-1.83h-0.01v1.83h-0.74V0.62z"/>
</g>
</svg>
