<?xml version="1.0" encoding="utf-8"?>
<!-- Generator: Adobe Illustrator 26.0.1, SVG Export Plug-In . SVG Version: 6.00 Build 0)  -->
<svg version="1.1" id="Layer_1" xmlns="http://www.w3.org/2000/svg" xmlns:xlink="http://www.w3.org/1999/xlink" x="0px" y="0px"
	 viewBox="0 0 95 35" style="enable-background:new 0 0 95 35;" xml:space="preserve">
<style type="text/css">
	.st0{fill-rule:evenodd;clip-rule:evenodd;fill:#FFFFFF;}
</style>
<g>
	<g>
		<path class="st0" d="M46.33,30.46l-0.08,0.08l0.5,0.5l0.08-0.08c0.15-0.15,0.28-0.34,0.04-0.57
			C46.66,30.16,46.47,30.32,46.33,30.46z"/>
		<path class="st0" d="M54.42,23.96c-0.13,0.13-0.08,0.34,0.07,0.49c0.16,0.16,0.36,0.24,0.51,0.09c0.15-0.15,0.06-0.36-0.1-0.52
			C54.74,23.87,54.54,23.84,54.42,23.96z"/>
		<path class="st0" d="M46.25,25.47c0.12-0.12,0.1-0.34-0.06-0.5c-0.16-0.16-0.39-0.21-0.52-0.08c-0.13,0.13-0.09,0.36,0.08,0.52
			C45.91,25.58,46.13,25.6,46.25,25.47z"/>
		<path class="st0" d="M64.56,16.8l-7.31-7.31c-0.43-0.43-1.13-0.43-1.55,0L39.59,25.6c-0.43,0.43-0.43,1.13,0,1.55l7.31,7.31
			c0.43,0.43,1.13,0.43,1.55,0l16.11-16.11C64.99,17.92,64.99,17.23,64.56,16.8z M54.92,12.11l0.85,2l-0.55,0.55l-1.1-1.76
			L54.92,12.11z M53.55,15.46c0.54-0.54,1.36-0.61,2.08,0.1c0.68,0.68,0.56,1.52,0.05,2.03c-0.51,0.51-1.35,0.62-2.03-0.05
			C52.94,16.82,53.02,16,53.55,15.46z M51.27,17.83l0.3,0.36l0.02-0.02c-0.07-0.38-0.1-0.64,0.15-0.9c0.41-0.41,0.95-0.19,1.39,0.26
			l1.26,1.26l-0.79,0.79l-0.99-0.99c-0.12-0.12-0.29-0.29-0.42-0.15c-0.13,0.13,0.04,0.3,0.16,0.42l0.99,0.99l-0.79,0.79l-2.04-2.04
			L51.27,17.83z M52.18,21l-0.79,0.79l-2.04-2.04l0.79-0.79L52.18,21z M48.64,18.26c0.25-0.25,0.62-0.26,0.91,0.04
			c0.33,0.33,0.27,0.69,0.04,0.92c-0.23,0.23-0.58,0.29-0.92-0.04C48.38,18.87,48.39,18.51,48.64,18.26z M46.96,22.15l0.34,0.39
			l0.02-0.02c-0.19-0.31-0.14-0.67,0.07-0.88c0.23-0.23,0.55-0.24,0.9-0.03l0.02-0.02c-0.19-0.38-0.19-0.68,0.06-0.93
			c0.39-0.39,0.94-0.19,1.38,0.26l1.27,1.27l-0.77,0.77l-1.01-1.01c-0.12-0.12-0.27-0.27-0.39-0.16c-0.11,0.11,0.04,0.27,0.16,0.39
			l1.01,1.01l-0.77,0.77l-1.01-1.01c-0.12-0.12-0.27-0.27-0.39-0.16c-0.11,0.11,0.04,0.27,0.16,0.39l1.01,1.01l-0.77,0.77
			l-2.04-2.04L46.96,22.15z M48.07,28.55c-0.23,0.23-0.58,0.29-0.92-0.04c-0.3-0.3-0.29-0.66-0.04-0.91
			c0.25-0.25,0.62-0.26,0.91,0.04C48.36,27.97,48.29,28.33,48.07,28.55z M44.89,24.12c0.54-0.54,1.37-0.61,2.08,0.1
			c0.68,0.68,0.56,1.52,0.05,2.03c-0.51,0.51-1.35,0.62-2.03-0.05C44.28,25.48,44.36,24.66,44.89,24.12z M40.71,26.69l0.86-0.86
			c0.78-0.78,1.8-0.95,2.86,0.12c0.86,0.86,0.92,1.89,0.24,2.57l-1.07,1.07L40.71,26.69z M47.55,33.45l-2.89-2.89l1.07-1.07
			c0.54-0.54,1.29-0.59,2,0.12c0.59,0.59,0.66,1.25,0.19,1.72l-0.43,0.43l0.87,0.87L47.55,33.45z M49.86,31.14l-2.04-2.04l0.79-0.79
			l2.04,2.04L49.86,31.14z M50.91,30.09l-0.14-0.14l-0.43-1.4l-0.07-0.39l-0.02-0.02l-0.15,0.21l-0.38,0.38l-0.77-0.77l1.68-1.68
			l0.12,0.12l0.41,1.38l0.09,0.43l0.02,0.02l0.14-0.19l0.45-0.45l0.77,0.77L50.91,30.09z M52.76,28.23l-0.14-0.14l-0.43-1.4
			l-0.07-0.39l-0.02-0.02l-0.15,0.21l-0.38,0.38l-0.77-0.77l1.68-1.68l0.12,0.12l0.41,1.38l0.09,0.43l0.02,0.02l0.14-0.19l0.45-0.45
			l0.77,0.77L52.76,28.23z M55.91,25.08l-0.24-0.29l-0.02,0.02c0.05,0.34,0.04,0.59-0.18,0.81c-0.44,0.44-1.25,0.13-1.74-0.37
			c-0.51-0.51-0.83-1.32-0.37-1.78c0.2-0.2,0.45-0.27,0.76-0.19l0.02-0.02l-0.27-0.22l0.78-0.78l2.04,2.04L55.91,25.08z
			 M58.33,14.94c-0.26,0.26-0.61,0.41-0.97,0.52l-0.41-0.82l0.09-0.01c0.2-0.03,0.46-0.08,0.59-0.22c0.05-0.05,0.08-0.15,0.01-0.23
			c-0.11-0.11-0.21-0.02-0.29,0.03c-0.31,0.22-0.69,0.33-1.07-0.05c-0.51-0.51-0.3-1.13,0.05-1.48c0.2-0.2,0.5-0.4,0.81-0.46
			l0.37,0.76c-0.19,0.01-0.41,0.07-0.53,0.2c-0.05,0.05-0.09,0.13-0.02,0.21c0.1,0.1,0.19,0.02,0.33-0.07
			c0.34-0.22,0.69-0.33,1.1,0.08C58.9,13.93,58.7,14.57,58.33,14.94z"/>
		<path class="st0" d="M42.51,26.7l-0.05,0.05l1.12,1.12l0.05-0.05c0.28-0.28,0.33-0.66-0.05-1.04
			C43.17,26.38,42.81,26.39,42.51,26.7z"/>
		<path class="st0" d="M54.91,16.81c0.12-0.12,0.1-0.34-0.06-0.5c-0.17-0.17-0.39-0.21-0.52-0.08c-0.13,0.13-0.09,0.36,0.08,0.52
			C54.57,16.92,54.79,16.94,54.91,16.81z"/>
	</g>
	<path class="st0" d="M51.02,33.4c0.43,0,0.82,0.31,0.82,0.8c0,0.49-0.39,0.8-0.82,0.8c-0.43,0-0.82-0.31-0.82-0.8
		C50.2,33.72,50.59,33.4,51.02,33.4L51.02,33.4z M51.02,34.83c0.33,0,0.6-0.26,0.6-0.63c0-0.36-0.27-0.62-0.6-0.62
		c-0.33,0-0.6,0.26-0.6,0.62C50.42,34.56,50.68,34.83,51.02,34.83L51.02,34.83z M50.7,33.75h0.34c0.22,0,0.35,0.07,0.35,0.26
		c0,0.16-0.1,0.23-0.23,0.24l0.24,0.39h-0.19l-0.22-0.38h-0.11v0.38H50.7V33.75L50.7,33.75z M50.88,34.13h0.16
		c0.1,0,0.17-0.01,0.17-0.12c0-0.1-0.1-0.11-0.18-0.11h-0.15V34.13L50.88,34.13z"/>
	<path class="st0" d="M38.5,8.36l-8.06,8.06c-0.43,0.43-0.43,1.13,0,1.55l7.08,7.08c0.43,0.43,1.13,0.43,1.55,0l8.06-8.06L38.5,8.36
		z M36.75,18.92c-0.8,0.8-2.11,0.8-2.91,0c-0.8-0.8-0.8-2.11,0-2.91c0.8-0.8,2.11-0.8,2.91,0C37.55,16.82,37.55,18.12,36.75,18.92z
		 M40.02,18.92c-0.8-0.8-0.8-2.11,0-2.91c0.8-0.8,2.11-0.8,2.91,0c0.8,0.8,0.8,2.11,0,2.91C42.12,19.72,40.82,19.72,40.02,18.92z"/>
	<path class="st0" d="M55.17,7.4l-7.08-7.08c-0.43-0.43-1.13-0.43-1.55,0l-7.52,7.52l8.63,8.63l7.52-7.52
		C55.6,8.52,55.6,7.83,55.17,7.4z M48.91,9.51c-0.8,0.8-2.11,0.8-2.91,0c-0.8-0.8-0.8-2.11,0-2.91c0.8-0.8,2.11-0.8,2.91,0
		C49.71,7.4,49.71,8.71,48.91,9.51z"/>
</g>
</svg>
