<?xml version="1.0" encoding="utf-8"?>
<!-- Generator: Adobe Illustrator 26.0.1, SVG Export Plug-In . SVG Version: 6.00 Build 0)  -->
<svg version="1.1" id="Layer_1" xmlns="http://www.w3.org/2000/svg" xmlns:xlink="http://www.w3.org/1999/xlink" x="0px" y="0px"
	 viewBox="0 0 95 35" style="enable-background:new 0 0 95 35;" xml:space="preserve">
<style type="text/css">
	.st0{fill:#343741;}
</style>
<g>
	<path class="st0" d="M34.94,24.93c-0.13-0.13-0.32-0.13-0.44,0c-0.02,0.02-0.02,0.02-0.03,0.03c-0.95,1.12-2.36,1.76-3.83,1.69
		c-2.71,0-4.54-1.95-4.85-4.58h13.22c0.17,0,0.32-0.14,0.32-0.33l0,0c-0.13-6.93-4.26-9.9-8.8-9.9c-5.08,0-8.77,3.78-8.77,9.04
		s3.78,9.09,8.9,9.09c2.39,0.06,4.7-0.82,6.44-2.45c0.13-0.13,0.13-0.33,0-0.46l0,0L34.94,24.93z M30.56,15.16
		c2.36-0.02,4.32,1.77,4.51,4.12h-9.28C26.25,16.83,28.01,15.16,30.56,15.16L30.56,15.16z M14.42,26.98
		c-0.92,1.71-3.25,2.98-5.76,2.98c-5,0-8.66-3.82-8.66-9.09s3.59-9.04,8.58-9.04c2.55,0,4.96,1.3,5.92,3.01
		c-0.03-1.19-0.03-2.6-0.03-3.93V5.32c0-0.17,0.14-0.32,0.32-0.32h3.14c0.17,0,0.32,0.14,0.32,0.32v23.85
		c0,0.17-0.14,0.32-0.32,0.32h-3.18c-0.17,0-0.32-0.14-0.32-0.32V26.98z M3.9,20.87c0,3.28,2.17,5.8,5.34,5.8
		c3.14,0,5.34-2.52,5.34-5.8s-2.22-5.76-5.34-5.76C6.06,15.12,3.9,17.59,3.9,20.87L3.9,20.87z M62.76,23.25V12.61
		c0-0.17,0.14-0.32,0.32-0.32h3.18c0.17,0,0.32,0.14,0.32,0.32v10.13c0,2.71,1.79,3.93,4.04,3.93s4.04-1.22,4.04-3.93V12.61
		c0-0.17,0.14-0.32,0.32-0.32h3.14c0.17,0,0.32,0.14,0.32,0.32v10.64c0,3.63-2.87,6.71-7.82,6.71
		C65.65,29.96,62.76,26.87,62.76,23.25L62.76,23.25z M91.06,24.69c0-1.22-1-1.68-3.2-2.44l-1-0.35c-2.98-1.03-4.88-2.33-4.88-5.08
		c0-2.87,2.68-5,6.44-5c2.3-0.05,4.54,0.73,6.33,2.17c0.13,0.11,0.16,0.32,0.05,0.44l-1.69,2.17c-0.11,0.14-0.3,0.16-0.44,0.06
		c-1.19-0.98-2.68-1.55-4.21-1.65c-1.41,0-2.55,0.65-2.55,1.65c0,0.92,0.62,1.3,2.14,1.84l2.03,0.73c3.44,1.22,4.92,2.9,4.92,5.46
		c0,2.44-2.17,5.3-6.98,5.3c-2.42,0.02-4.78-0.79-6.68-2.33c-0.13-0.11-0.16-0.3-0.05-0.44l1.65-2.26c0.11-0.14,0.3-0.17,0.44-0.06
		l0,0c1.31,1.09,2.93,1.77,4.62,1.93C90.14,26.79,91.06,25.76,91.06,24.69L91.06,24.69z M59.07,26.81c0.13,0.13,0.13,0.33,0,0.44
		l-2.25,2.25c-0.13,0.13-0.33,0.13-0.44,0l-5.18-5.18c-0.16-0.14-0.24-0.33-0.22-0.54v-5.76c-0.02-0.21,0.08-0.41,0.22-0.54
		l5.18-5.18c0.13-0.13,0.33-0.13,0.46,0l2.25,2.25c0.13,0.13,0.13,0.33,0,0.44l-4.77,4.77c-0.16,0.13-0.25,0.33-0.22,0.54v1.2
		c-0.02,0.21,0.06,0.41,0.22,0.54L59.07,26.81z M46.31,22.04c0.16-0.13,0.25-0.33,0.22-0.54v-1.2c0.02-0.21-0.06-0.41-0.22-0.54
		L41.55,15c-0.13-0.13-0.13-0.33,0-0.44l2.25-2.25c0.13-0.13,0.33-0.13,0.44,0l5.18,5.18c0.16,0.14,0.24,0.33,0.22,0.54v5.76
		c0.02,0.21-0.08,0.41-0.22,0.54l-5.18,5.18c-0.13,0.13-0.33,0.13-0.46,0l-2.25-2.25c-0.13-0.13-0.13-0.33,0-0.44L46.31,22.04z"/>
</g>
</svg>
