<?xml version="1.0" encoding="utf-8"?>
<!-- Generator: Adobe Illustrator 26.0.1, SVG Export Plug-In . SVG Version: 6.00 Build 0)  -->
<svg version="1.1" id="Layer_1" xmlns="http://www.w3.org/2000/svg" xmlns:xlink="http://www.w3.org/1999/xlink" x="0px" y="0px"
	 viewBox="0 0 95 35" style="enable-background:new 0 0 95 35;" xml:space="preserve">
<style type="text/css">
	.st0{fill:#343741;}
</style>
<g>
	<path class="st0" d="M36.86,25.4c-1.75,1.37-3.57,1.34-4.77-0.03c-1.3-1.47-1.19-4.11,0.23-5.44c1.3-1.23,3.06-1.11,4.62,0.38
		c0.04-0.35,0.07-0.66,0.1-0.99c0.39,0,0.76,0,1.26,0c0,0.41,0,0.84,0,1.26c0,1.77,0.03,3.54-0.01,5.31
		c-0.06,2.88-2.33,4.38-5.02,3.36c-0.83-0.31-1.41-0.89-1.75-1.83c0.4-0.14,0.76-0.26,1.12-0.39c0.88,1.22,1.91,1.62,3.02,1.2
		C36.58,27.88,37.05,26.81,36.86,25.4z M32.58,22.77c0.01,1.38,0.91,2.4,2.14,2.41c1.28,0.01,2.3-1.1,2.27-2.49
		c-0.03-1.31-1-2.36-2.22-2.38C33.53,20.3,32.58,21.36,32.58,22.77z"/>
	<path class="st0" d="M52.07,9.48c0-1.35,0-2.64,0-3.97c0.47,0,0.87,0,1.4,0c0,3.37,0,6.74,0,10.15c-0.27,0-0.67,0-1.11,0
		c-0.07-0.27-0.14-0.55-0.23-0.92c-0.74,0.79-1.57,1.24-2.61,1.2c-1.56-0.06-2.69-1.08-3.09-2.77c-0.52-2.2,0.59-4.3,2.5-4.74
		C50.03,8.17,50.75,8.4,52.07,9.48z M52.11,12.09c-0.01-1.16-0.58-2.07-1.51-2.4c-0.87-0.31-1.85,0.01-2.4,0.77
		c-0.66,0.92-0.64,2.46,0.05,3.39c0.55,0.73,1.46,1.01,2.34,0.71C51.54,14.23,52.12,13.29,52.11,12.09z"/>
	<path class="st0" d="M61.16,25.45c0,1.39,0,2.56,0,3.78c-0.44,0-0.84,0-1.3,0c0-3.26,0-6.54,0-9.88c0.36,0,0.76,0,1.19,0
		c0.05,0.22,0.1,0.47,0.17,0.82c0.21-0.13,0.36-0.21,0.49-0.31c1.6-1.33,3.85-0.89,4.75,0.98c0.64,1.32,0.65,2.7,0.01,4.03
		c-0.95,1.97-3.31,2.41-4.93,0.94C61.48,25.74,61.4,25.67,61.16,25.45z M65.52,22.86c-0.01-1.45-0.89-2.5-2.13-2.52
		c-1.29-0.02-2.29,1.11-2.28,2.57c0.01,1.41,1.02,2.55,2.25,2.53C64.62,25.44,65.53,24.34,65.52,22.86z"/>
	<path class="st0" d="M61.21,12.56c-1.83,0-3.62,0-5.41,0c0.08,1.14,0.61,1.84,1.54,2.09c1.13,0.31,1.9-0.06,2.87-1.38
		c0.34,0.13,0.69,0.27,1.29,0.5c-0.5,0.57-0.86,1.14-1.36,1.52c-1.15,0.87-2.96,0.86-4.16,0.08c-1.27-0.83-1.88-2.48-1.53-4.11
		c0.33-1.55,1.38-2.6,2.88-2.87C59.77,7.94,61.54,9.78,61.21,12.56z M59.89,11.39c-0.15-1.29-0.93-1.98-2.07-1.92
		c-1.09,0.06-1.9,0.86-1.9,1.92c1.12,0,2.23,0,3.35,0C59.46,11.39,59.65,11.39,59.89,11.39z"/>
	<path class="st0" d="M38.08,12.52c-1.84,0-3.64,0-5.43,0c-0.05,1.01,0.46,1.77,1.38,2.09c1.15,0.4,2.09-0.01,2.97-1.34
		c0.36,0.13,0.73,0.27,1.1,0.41c-0.33,1.32-1.55,2.18-3.14,2.27c-1.45,0.08-2.82-0.69-3.38-2c-0.67-1.57-0.59-3.11,0.55-4.44
		c1.01-1.18,2.35-1.43,3.8-0.97C37.46,9.01,38.24,10.45,38.08,12.52z M36.66,11.37c-0.04-1.17-0.73-1.85-1.85-1.89
		c-1.12-0.04-2.02,0.76-2.11,1.89C34.01,11.37,35.31,11.37,36.66,11.37z"/>
	<path class="st0" d="M47.76,19.1c2.12,0.02,3.63,1.6,3.61,3.81c-0.01,2.24-1.55,3.8-3.73,3.77c-2.14-0.03-3.6-1.57-3.6-3.81
		C44.06,20.61,45.56,19.08,47.76,19.1z M49.95,22.87c-0.01-1.51-0.95-2.55-2.29-2.53c-1.3,0.03-2.2,1.06-2.22,2.53
		c-0.01,1.48,0.96,2.59,2.26,2.58C49.03,25.44,49.96,24.38,49.95,22.87z"/>
	<path class="st0" d="M63.34,10.75c-0.39-0.13-0.74-0.24-1.18-0.39c0.09-0.24,0.15-0.47,0.26-0.67c0.66-1.12,2.22-1.63,3.69-1.23
		c1.25,0.34,1.81,1.14,1.82,2.64c0.01,1.52,0,3.04,0,4.59c-0.24,0-0.62,0-1.08,0c-0.08-0.29-0.17-0.6-0.27-0.99
		c-0.8,1.08-1.85,1.42-3.11,1.15c-0.85-0.19-1.46-0.81-1.56-1.58c-0.12-0.85,0.19-1.6,1.01-1.96c0.74-0.33,1.55-0.48,2.33-0.71
		c0.41-0.12,0.81-0.26,1.17-0.37c0.28-0.87-0.01-1.37-0.72-1.66C64.79,9.19,64.03,9.56,63.34,10.75z M66.49,12.25
		c-0.85,0.25-1.71,0.42-2.48,0.78c-0.31,0.15-0.64,0.75-0.58,1.07c0.07,0.31,0.6,0.67,0.97,0.74
		C65.58,15.06,66.84,13.87,66.49,12.25z"/>
	<path class="st0" d="M82.27,12.13c0.01,2.24-1.43,3.77-3.59,3.81c-2.16,0.04-3.69-1.53-3.69-3.8c0-2.23,1.46-3.79,3.59-3.82
		C80.75,8.31,82.26,9.86,82.27,12.13z M78.66,9.61c-1.35-0.01-2.29,1.03-2.3,2.53c-0.01,1.48,0.95,2.56,2.28,2.55
		c1.3,0,2.23-1.03,2.25-2.5C80.92,10.7,79.99,9.62,78.66,9.61z"/>
	<path class="st0" d="M89.34,15.68c-0.28,0-0.68,0-1.1,0c-0.07-0.25-0.14-0.47-0.23-0.81c-0.76,0.8-1.62,1.2-2.69,1.03
		c-1.13-0.19-1.99-0.87-2.05-2c-0.1-1.76-0.03-3.53-0.03-5.32c0.4,0,0.77,0,1.27,0c0,0.82,0,1.62,0,2.43c0,0.71-0.03,1.42,0.04,2.12
		c0.09,0.93,0.64,1.48,1.41,1.55c0.8,0.08,1.55-0.39,1.83-1.21c0.13-0.38,0.18-0.8,0.19-1.2c0.02-1.2,0.01-2.4,0.01-3.66
		c0.42,0,0.82,0,1.36,0C89.34,10.94,89.34,13.29,89.34,15.68z"/>
	<path class="st0" d="M40.47,15.69c-0.49,0-0.87,0-1.29,0c0-2.36,0-4.69,0-7.08c0.38,0,0.78,0,1.22,0c0.03,0.26,0.06,0.54,0.09,0.76
		c0.57-0.32,1.11-0.75,1.73-0.93c1.63-0.47,3.08,0.56,3.16,2.24c0.08,1.63,0.02,3.27,0.02,4.97c-0.4,0-0.81,0-1.31,0
		c0-1.42,0.02-2.83-0.01-4.23c-0.02-0.77-0.29-1.48-1.11-1.74c-0.69-0.21-1.43-0.12-1.84,0.51c-0.33,0.49-0.56,1.12-0.62,1.71
		c-0.1,0.97-0.03,1.96-0.03,2.94C40.47,15.11,40.47,15.38,40.47,15.69z"/>
	<path class="st0" d="M58.44,26.42c-0.28,0-0.68,0-1.13,0c-0.06-0.24-0.13-0.49-0.17-0.64c-0.64,0.29-1.28,0.75-1.98,0.86
		c-1.66,0.26-2.84-0.75-2.9-2.42c-0.06-1.6-0.01-3.21-0.01-4.87c0.42,0,0.81,0,1.32,0c0,1.1-0.01,2.23,0,3.37
		c0.01,0.46,0.01,0.93,0.09,1.38c0.14,0.77,0.6,1.29,1.42,1.34c0.79,0.05,1.39-0.33,1.69-1.04c0.17-0.41,0.24-0.89,0.25-1.35
		c0.03-1.22,0.01-2.44,0.01-3.71c0.46,0,0.86,0,1.4,0C58.44,21.67,58.44,24.02,58.44,26.42z"/>
	<path class="st0" d="M73.71,8.59c0.52,0,0.91,0,1.4,0c-0.9,2.4-1.78,4.73-2.66,7.09c-0.51,0-0.99,0-1.58,0
		c-0.87-2.3-1.76-4.65-2.68-7.08c0.51,0,0.93,0,1.46,0c0.64,1.73,1.3,3.52,2.03,5.51C72.41,12.14,73.06,10.36,73.71,8.59z"/>
	<path class="st0" d="M40.98,26.43c-0.46,0-0.84,0-1.26,0c0-2.38,0-4.73,0-7.12c0.41,0,0.79,0,1.21,0c0.04,0.28,0.08,0.56,0.15,1.03
		c0.77-1.02,1.65-1.49,2.86-1.14c0,0.45,0,0.89,0,1.38c-0.14,0-0.27,0.01-0.4,0c-1.5-0.09-2.31,0.55-2.44,2.06
		c-0.09,1.05-0.06,2.12-0.08,3.18C41.02,26.01,40.99,26.19,40.98,26.43z"/>
	<path class="st0" d="M90.77,8.58c0.46,0,0.83,0,1.25,0c0.03,0.34,0.05,0.65,0.08,1.08c0.77-0.99,1.63-1.6,2.9-1.18
		c0,0.47,0,0.92,0,1.37c-1.95-0.2-2.86,0.59-2.92,2.56c-0.03,1.08-0.01,2.16-0.01,3.27c-0.47,0-0.87,0-1.3,0
		C90.77,13.31,90.77,10.98,90.77,8.58z"/>
	<path class="st0" d="M13.29,9.57c-0.91-0.87-0.89-4.75,0.03-5.51C14.22,4.91,14.2,8.79,13.29,9.57z"/>
	<path class="st0" d="M5.5,16.12c-1.08,0.72-4.75,0.07-5.45-0.93C0.9,14.39,4.73,15.02,5.5,16.12z"/>
	<path class="st0" d="M0,19.81c0.8-1.05,4.46-1.68,5.46-0.98C4.91,19.86,1.1,20.57,0,19.81z"/>
	<path class="st0" d="M13.28,30.94c-0.88-1.02-0.85-4.72,0-5.54C14.2,26.15,14.22,30.03,13.28,30.94z"/>
	<path class="st0" d="M21.1,16.1c0.81-1.04,4.47-1.67,5.45-0.97C26,16.16,22.18,16.87,21.1,16.1z"/>
	<path class="st0" d="M26.55,19.82c-0.97,0.75-4.81,0.06-5.41-0.97C22.13,18.1,25.94,18.78,26.55,19.82z"/>
	<path class="st0" d="M16.05,10.04c-0.62-1.01,0.69-4.69,1.84-5.16C18.52,5.84,17.21,9.51,16.05,10.04z"/>
	<path class="st0" d="M8.69,30.21c-0.47-1.36,0.71-4.64,1.88-5.35c0.55,0.9,0.06,1.74-0.21,2.52C10.01,28.39,9.79,29.54,8.69,30.21z
		"/>
	<path class="st0" d="M8.61,4.88c1.22,0.33,2.62,4.18,1.93,5.17C9.47,9.49,8.26,6.31,8.61,4.88z"/>
	<path class="st0" d="M25.02,10.82c-0.58,1.34-3.83,3.11-4.84,2.67C20.5,12.26,23.91,10.34,25.02,10.82z"/>
	<path class="st0" d="M6.48,21.51c-0.6,1.29-3.67,3-4.81,2.72C1.76,23.05,5.37,20.97,6.48,21.51z"/>
	<path class="st0" d="M20.15,21.5c0.97-0.52,4.38,1.34,4.84,2.63C24,24.65,20.6,22.8,20.15,21.5z"/>
	<path class="st0" d="M18.4,23.58c1.18-0.05,3.72,2.91,3.57,4.15C20.81,27.8,18.28,24.85,18.4,23.58z"/>
	<path class="st0" d="M16.06,24.88c1.14,0.71,2.35,4.05,1.91,5.17C16.86,29.87,15.4,26.03,16.06,24.88z"/>
	<path class="st0" d="M1.62,10.75c1.19-0.3,4.28,1.43,4.83,2.66C5.61,14.07,1.98,12.1,1.62,10.75z"/>
	<path class="st0" d="M18.38,11.43c-0.07-1.32,2.32-4.14,3.53-4.24C22.21,8.28,19.73,11.31,18.38,11.43z"/>
	<path class="st0" d="M8.26,23.57c-0.04,1.41-2.47,4.18-3.62,4.18C4.48,26.52,7,23.55,8.26,23.57z"/>
	<path class="st0" d="M4.63,7.19c1.26,0.11,3.66,2.92,3.61,4.18C7.11,11.5,4.56,8.59,4.63,7.19z"/>
</g>
</svg>
