<?xml version="1.0" encoding="utf-8"?>
<!-- Generator: Adobe Illustrator 26.0.1, SVG Export Plug-In . SVG Version: 6.00 Build 0)  -->
<svg version="1.1" id="Layer_1" xmlns="http://www.w3.org/2000/svg" xmlns:xlink="http://www.w3.org/1999/xlink" x="0px" y="0px"
	 viewBox="0 0 95 35" style="enable-background:new 0 0 95 35;" xml:space="preserve">
<style type="text/css">
	.st0{fill:#CCCCCC;}
</style>
<g>
	<g>
		<polygon class="st0" points="14.48,8.14 14.48,8.14 14.48,8.14 		"/>
		<path class="st0" d="M41.05,13.34l-0.06-1.01c0,0-0.73,0.28-1.06,0.02c-0.33-0.26-0.77-2.41-0.77-2.41L38.1,9.41l-0.42-0.35
			l-2.37-5.5l-0.66,0.23l-0.21-1.57L33.51,0l-1.16,2.65c0,0-0.67,4.61-1.05,4.64c-0.38,0.02-4.08-2.43-4.21-2.86
			c-0.13-0.43,1.39-2.71,1.39-2.71l-2.55-0.23l-0.6-0.28l-1.37-0.75l0.63,1.03l-1.52-0.02l-1.07,1.4c0,0,0.25,1.39-0.17,1.64
			c-0.41,0.26-1.04-0.31-1.04-0.31l-0.26-0.05l-0.71-0.8l-1.27-0.05l-0.53,1.28l-0.56,0.02l0.39,0.47l-1.48,0.58l0.14,1.83
			l-0.75-1.59l-0.69,0.89l0.18,0.91l-0.72,0.45l-0.04,0.02c1.02,0.63,1.84,1.55,2.37,2.63c0.41,0.85,0.66,1.79,0.66,2.8
			c0,0.72-0.13,1.41-0.35,2.05c-0.6,1.76-1.94,3.18-3.65,3.86v0c0,0,0,0,0,0v-3.16h0h2.83v-1.26h-2.83h0v-2.13h0h3.29v-1.26h-4.56
			v0.23v7.93l0,0v0.01c-0.03,0-0.05,0.01-0.07,0.01c-0.21,0.03-0.53,0.06-0.83,0.07c-0.05,0-0.11,0-0.16,0
			c-0.46,0-0.9-0.06-1.33-0.16c-0.72-0.15-1.39-0.42-2-0.79c0.03,0.1,0.06,0.21,0.09,0.31c0.56,1.73,1.16,3.63,1.25,4.18l0,0l0,0
			c0.01,0.07,0.01,0.12,0.01,0.14c-0.12,0.31-0.68,0.44-0.68,0.44l1.37,1.38c0,0,4.15-1.81,4.47-1.76c0.32,0.05,0.62,0.66,0.62,0.66
			s7.32-2.83,8.26-2.62c0.94,0.21,3.53,3.27,3.53,3.27l0.68,0.05l1.74-2.24l-0.71,2.52l0.68,0.23l0.32-1.03l0.42,0.66l-0.41,0.91
			l0.72-0.16l2.22,3.04l1.48,0.3l1.5-0.37l1.57,0.86h0.4l-0.08-0.29l1.09-1L40.24,28l1.8-4.94l0.33-0.31l1-7.51L41.05,13.34z
			 M27.58,19.85l-0.72-5.21l-2.56,5.21h-0.4l-2.59-5.25l-0.71,5.25H19.7h-0.18l1.16-8.13h0.36l3.06,6.21l3.03-6.21h0.36l1.16,8.13
			H27.58z M39.33,15.94c0,0.62-0.1,1.18-0.28,1.68c-0.19,0.5-0.47,0.94-0.83,1.31c-0.37,0.37-0.8,0.65-1.3,0.84
			c-0.49,0.19-1.04,0.28-1.65,0.28h0c-0.74,0-1.4-0.13-1.99-0.38c-0.59-0.26-1.11-0.64-1.54-1.15c-0.33-0.39-0.59-0.82-0.75-1.27
			c-0.17-0.46-0.25-0.94-0.25-1.46v0v0v0c0-0.77,0.19-1.48,0.58-2.14c0.38-0.66,0.91-1.18,1.58-1.55c0.67-0.37,1.43-0.56,2.26-0.56
			h0h0c0.68,0,1.32,0.12,1.92,0.37c0.6,0.25,1.19,0.64,1.75,1.18l0.12,0.12l-0.84,0.8L38,13.87c-0.42-0.42-0.88-0.73-1.38-0.94
			c-0.5-0.21-0.98-0.32-1.45-0.32c-0.58,0-1.14,0.14-1.67,0.43c-0.53,0.29-0.93,0.67-1.22,1.16c-0.29,0.49-0.43,1.01-0.43,1.55
			c0,0.56,0.15,1.09,0.45,1.59c0.3,0.5,0.71,0.9,1.24,1.19c0.53,0.29,1.11,0.43,1.74,0.43c0.77,0,1.4-0.22,1.93-0.64
			c0.26-0.22,0.47-0.46,0.62-0.73c0.12-0.22,0.21-0.46,0.27-0.73l0-0.01h-2.45v-1.08h3.67L39.33,15.94z"/>
	</g>
	<g id="g3043" transform="matrix(1.7344849,0,0,1.7344849,303.73544,136.59612)">
		<path id="path3045" class="st0" d="M-155.19-60.36l0.45,1.01l0.16,0.57l0.88,0.2l0.1-0.31l0.32,0.21l0.04-0.16l0.21-0.36
			l0.08-0.97l-0.99,0.09L-155.19-60.36z"/>
	</g>
	<g id="g3047" transform="matrix(1.7344849,0,0,1.7344849,-382.85695,-91.416491)">
		<g>
			<g id="g3049">
				<g id="g3055" transform="translate(335.4097,161.2639)">
					<path id="path3057" class="st0" d="M-110.2-97.78c-0.08-0.31-0.15-0.61-0.19-0.93c-0.05-0.42-0.04-0.78,0.04-1.1
						c0.17-0.76,0.67-1.24,1.29-1.59c0.36-0.21,0.77-0.37,1.17-0.52c0.21-0.08,0.41-0.15,0.61-0.22l0,0
						c0.19-0.07,0.35-0.17,0.47-0.28c0.44-0.38,0.51-0.95,0.48-1.37c0-0.02,0-0.04,0-0.07c-0.55-0.34-1.21-0.54-1.9-0.54
						c-2.02,0-3.65,1.64-3.65,3.67c0,1.32,0.69,2.47,1.73,3.12c0-0.02-0.01-0.03-0.01-0.05C-110.17-97.7-110.19-97.74-110.2-97.78"
						/>
				</g>
			</g>
		</g>
	</g>
	<g id="g3059" transform="matrix(1.7344849,0,0,1.7344849,274.67345,215.58283)">
		<path id="path3061" class="st0" d="M-142.72-117.54l-1.75,3.58l-1.76-3.58h-0.21l-0.67,4.69h0.11h0.51l0.41-3.03l1.5,3.03h0.23
			l1.48-3l0.41,3h0.63l-0.67-4.69H-142.72z"/>
	</g>
	<g id="g3063" transform="matrix(1.7344849,0,0,1.7344849,-382.85695,-91.416491)">
		<g>
			<g id="g3065">
				<g id="g3071" transform="translate(398.3276,165.3947)">
					<path id="path3073" class="st0" d="M-157.04-102.97h1.41l0,0.01c-0.03,0.15-0.08,0.29-0.15,0.42c-0.09,0.16-0.21,0.3-0.36,0.42
						c-0.3,0.25-0.67,0.37-1.11,0.37c-0.37,0-0.7-0.08-1-0.25c-0.31-0.17-0.54-0.39-0.71-0.69c-0.17-0.29-0.26-0.6-0.26-0.92
						c0-0.31,0.08-0.61,0.25-0.89c0.17-0.28,0.4-0.5,0.7-0.67c0.31-0.17,0.62-0.25,0.96-0.25c0.27,0,0.55,0.06,0.83,0.18
						c0.29,0.12,0.55,0.3,0.79,0.54l0.06,0.06l0.48-0.46l-0.07-0.07c-0.33-0.31-0.66-0.54-1.01-0.68c-0.35-0.14-0.72-0.21-1.11-0.21
						h0h0h0c-0.48,0-0.92,0.11-1.31,0.32c-0.39,0.21-0.69,0.52-0.91,0.9c-0.22,0.38-0.33,0.79-0.33,1.24v0l0,0l0,0v0
						c0,0.3,0.05,0.58,0.15,0.84c0.1,0.26,0.24,0.51,0.43,0.73c0.25,0.29,0.55,0.52,0.89,0.66c0.34,0.15,0.73,0.22,1.15,0.22h0
						c0.35,0,0.67-0.05,0.95-0.16c0.28-0.11,0.53-0.27,0.75-0.48c0.21-0.21,0.37-0.47,0.48-0.75c0.11-0.29,0.16-0.61,0.16-0.97
						l0-0.09h-2.12V-102.97z"/>
				</g>
			</g>
		</g>
	</g>
	<g id="g3075" transform="matrix(1.7344849,0,0,1.7344849,352.9988,183.25186)">
		<path id="path3077" class="st0" d="M-176.33-94.13h0.47v1.39h0.2v-1.39h0.47v-0.17h-1.15V-94.13z"/>
	</g>
	<g id="g3079" transform="matrix(1.7344849,0,0,1.7344849,-382.85695,-91.416491)">
		<g>
			<g id="g3081">
				<g id="g3087" transform="translate(431.5853,157.4055)">
					<path id="path3089" class="st0" d="M-181.79-92.94c-0.08,0-0.15,0.02-0.21,0.06c-0.06,0.03-0.11,0.09-0.14,0.14h0v-0.7h-0.2
						v1.64h0.2v-0.68c0-0.04,0-0.07,0.01-0.1c0.04-0.11,0.14-0.2,0.27-0.2c0.19,0,0.26,0.15,0.26,0.33v0.64h0.2v-0.67
						C-181.41-92.85-181.64-92.94-181.79-92.94"/>
				</g>
				<g id="g3091" transform="translate(436.1263,157.4055)">
					<path id="path3093" class="st0" d="M-185.17-92.94c-0.32,0-0.52,0.27-0.52,0.6c0,0.34,0.21,0.57,0.55,0.57
						c0.18,0,0.3-0.04,0.37-0.07l-0.03-0.15c-0.08,0.03-0.16,0.06-0.31,0.06c-0.2,0-0.38-0.11-0.38-0.39h0.78
						c0-0.02,0.01-0.05,0.01-0.1C-184.71-92.62-184.81-92.94-185.17-92.94 M-185.5-92.46c0.02-0.14,0.11-0.33,0.31-0.33
						c0.23,0,0.28,0.2,0.28,0.33H-185.5z"/>
				</g>
				<g id="g3095" transform="translate(444.6671,156.4745)">
					<path id="path3097" class="st0" d="M-191.53-91.77c0,0.24,0,0.43,0.02,0.64l0,0c-0.07-0.16-0.16-0.32-0.28-0.51l-0.5-0.79
						h-0.22v1.56h0.19v-0.67c0-0.26,0-0.45-0.02-0.64l0.01,0c0.08,0.17,0.18,0.35,0.29,0.52l0.49,0.79h0.2v-1.56h-0.19V-91.77z"/>
				</g>
				<g id="g3099" transform="translate(448.4793,157.4055)">
					<path id="path3101" class="st0" d="M-194.37-92.94c-0.32,0-0.52,0.27-0.52,0.6c0,0.34,0.2,0.57,0.55,0.57
						c0.18,0,0.3-0.04,0.37-0.07l-0.03-0.15c-0.08,0.03-0.16,0.06-0.31,0.06c-0.2,0-0.38-0.11-0.38-0.39h0.78
						c0-0.02,0.01-0.05,0.01-0.1C-193.91-92.62-194.01-92.94-194.37-92.94 M-194.7-92.46c0.02-0.14,0.11-0.33,0.31-0.33
						c0.23,0,0.28,0.2,0.28,0.33H-194.7z"/>
				</g>
				<g id="g3103" transform="translate(455.6946,155.1072)">
					<path id="path3105" class="st0" d="M-199.74-90.05c-0.04,0.13-0.07,0.25-0.08,0.36h-0.01c-0.03-0.11-0.06-0.23-0.1-0.36
						l-0.17-0.56h-0.17l-0.18,0.57c-0.04,0.12-0.07,0.24-0.1,0.36h-0.01c-0.02-0.12-0.05-0.23-0.08-0.36l-0.15-0.57H-201l0.34,1.12
						h0.18l0.18-0.53c0.04-0.12,0.07-0.24,0.1-0.37h0c0.03,0.13,0.06,0.24,0.1,0.37l0.17,0.53h0.18l0.36-1.12h-0.2L-199.74-90.05z"
						/>
				</g>
			</g>
		</g>
	</g>
	<g id="g3107" transform="matrix(1.7344849,0,0,1.7344849,414.71177,173.82979)">
		<path id="path3109" class="st0" d="M-202.82-87.31h0.2v-0.71h0.59v-0.17h-0.59v-0.52h0.64v-0.17h-0.84V-87.31z"/>
	</g>
	<g id="g3111" transform="matrix(1.7344849,0,0,1.7344849,-382.85695,-91.416491)">
		<g>
			<g id="g3113">
				<g id="g3119" transform="translate(465.687,157.4055)">
					<path id="path3121" class="st0" d="M-207.18-92.94c-0.31,0-0.55,0.22-0.55,0.59c0,0.35,0.23,0.58,0.53,0.58
						c0.27,0,0.55-0.18,0.55-0.59C-206.65-92.71-206.86-92.94-207.18-92.94 M-207.19-91.92c-0.2,0-0.34-0.19-0.34-0.43
						c0-0.21,0.1-0.43,0.34-0.43c0.24,0,0.33,0.24,0.33,0.43C-206.85-92.1-207-91.92-207.19-91.92"/>
				</g>
				<g id="g3123" transform="translate(469.5071,156.4462)">
					<path id="path3125" class="st0" d="M-210.03-91.74L-210.03-91.74l-0.02-0.22h-0.18c0.01,0.1,0.01,0.22,0.01,0.35v0.77h0.2v-0.6
						c0-0.03,0-0.07,0.01-0.09c0.03-0.15,0.13-0.26,0.27-0.26c0.03,0,0.05,0,0.07,0.01v-0.19c-0.02,0-0.03-0.01-0.06-0.01
						C-209.85-91.98-209.97-91.89-210.03-91.74"/>
				</g>
				<g id="g3127" transform="translate(473.7602,156.764)">
					<path id="path3129" class="st0" d="M-213.19-92.13c0.11,0,0.19,0.03,0.24,0.05l0.05-0.16c-0.06-0.03-0.16-0.06-0.28-0.06
						c-0.36,0-0.6,0.25-0.6,0.59c0,0.34,0.22,0.57,0.55,0.57c0.15,0,0.27-0.04,0.32-0.07l-0.03-0.15c-0.06,0.03-0.13,0.06-0.25,0.06
						c-0.22,0-0.39-0.16-0.39-0.42C-213.59-91.94-213.45-92.13-213.19-92.13"/>
				</g>
				<g id="g3131" transform="translate(477.4992,157.4055)">
					<path id="path3133" class="st0" d="M-215.97-92.94c-0.32,0-0.52,0.27-0.52,0.6c0,0.34,0.2,0.57,0.55,0.57
						c0.18,0,0.3-0.04,0.37-0.07l-0.03-0.15c-0.08,0.03-0.16,0.06-0.31,0.06c-0.2,0-0.38-0.11-0.38-0.39h0.78
						c0-0.02,0.01-0.05,0.01-0.1C-215.51-92.62-215.61-92.94-215.97-92.94 M-216.3-92.46c0.02-0.14,0.11-0.33,0.31-0.33
						c0.23,0,0.28,0.2,0.28,0.33H-216.3z"/>
				</g>
			</g>
		</g>
	</g>
	<path id="path3135" class="st0" d="M72.83,22.38h0.35v-1.94h-0.35V22.38z"/>
	<g id="g3137" transform="matrix(1.7344849,0,0,1.7344849,-382.85695,-91.416491)">
		<g>
			<g id="g3139">
				<g id="g3145" transform="translate(482.5909,159.0363)">
					<path id="path3147" class="st0" d="M-219.77-94.99c-0.07,0-0.13,0.06-0.13,0.13c0,0.07,0.05,0.12,0.12,0.12
						c0.08,0,0.13-0.06,0.13-0.12C-219.64-94.93-219.69-94.99-219.77-94.99"/>
				</g>
				<g id="g3149" transform="translate(486.4723,157.4055)">
					<path id="path3151" class="st0" d="M-222.66-92.94c-0.18,0-0.31,0.1-0.37,0.21h0l-0.01-0.19h-0.18
						c0.01,0.09,0.01,0.19,0.01,0.3v0.82h0.2v-0.67c0-0.03,0-0.07,0.01-0.09c0.04-0.11,0.14-0.21,0.27-0.21
						c0.19,0,0.26,0.15,0.26,0.33v0.65h0.2v-0.67C-222.26-92.85-222.5-92.94-222.66-92.94"/>
				</g>
			</g>
		</g>
	</g>
	<path id="path3153" class="st0" d="M76.84,22.38h0.35v-2.7h-0.35V22.38z"/>
	<g id="g3155" transform="matrix(1.7344849,0,0,1.7344849,-382.85695,-91.416491)">
		<g>
			<g id="g3157">
				<g id="g3163" transform="translate(494.085,156.4462)">
					<path id="path3165" class="st0" d="M-228.32-91.74L-228.32-91.74l-0.02-0.22h-0.18c0.01,0.1,0.01,0.22,0.01,0.35v0.77h0.2v-0.6
						c0-0.03,0-0.07,0.01-0.09c0.03-0.15,0.13-0.26,0.27-0.26c0.03,0,0.05,0,0.07,0.01v-0.19c-0.02,0-0.03-0.01-0.06-0.01
						C-228.15-91.98-228.27-91.89-228.32-91.74"/>
				</g>
				<g id="g3167" transform="translate(498.1578,157.4055)">
					<path id="path3169" class="st0" d="M-231.35-92.94c-0.31,0-0.55,0.22-0.55,0.59c0,0.35,0.23,0.58,0.53,0.58
						c0.27,0,0.55-0.18,0.55-0.59C-230.82-92.71-231.03-92.94-231.35-92.94 M-231.36-91.92c-0.2,0-0.34-0.19-0.34-0.43
						c0-0.21,0.1-0.43,0.34-0.43c0.24,0,0.33,0.24,0.33,0.43C-231.02-92.1-231.17-91.92-231.36-91.92"/>
				</g>
				<g id="g3171" transform="translate(503.4297,157.4055)">
					<path id="path3173" class="st0" d="M-235.28-92.94c-0.18,0-0.31,0.1-0.37,0.21h0l-0.01-0.19h-0.18
						c0.01,0.09,0.01,0.19,0.01,0.3v0.82h0.2v-0.67c0-0.03,0-0.07,0.01-0.09c0.03-0.11,0.14-0.21,0.27-0.21
						c0.19,0,0.26,0.15,0.26,0.33v0.65h0.2v-0.67C-234.88-92.85-235.12-92.94-235.28-92.94"/>
				</g>
				<g id="g3175" transform="translate(510.6559,159.1267)">
					<path id="path3177" class="st0" d="M-240.66-95.1c-0.41,0-0.72,0.32-0.72,0.82c0,0.47,0.29,0.79,0.7,0.79
						c0.4,0,0.72-0.28,0.72-0.82C-239.96-94.77-240.24-95.1-240.66-95.1 M-240.67-93.66c-0.32,0-0.5-0.3-0.5-0.63
						c0-0.34,0.17-0.65,0.5-0.65c0.33,0,0.5,0.32,0.5,0.63C-240.17-93.95-240.35-93.66-240.67-93.66"/>
				</g>
				<g id="g3179" transform="translate(515.0986,156.4462)">
					<path id="path3181" class="st0" d="M-243.97-91.74L-243.97-91.74l-0.02-0.22h-0.18c0.01,0.1,0.01,0.22,0.01,0.35v0.77h0.2v-0.6
						c0-0.03,0-0.07,0.01-0.09c0.03-0.15,0.13-0.26,0.27-0.26c0.03,0,0.05,0,0.07,0.01v-0.19c-0.02,0-0.03-0.01-0.06-0.01
						C-243.79-91.98-243.92-91.89-243.97-91.74"/>
				</g>
				<g id="g3183" transform="translate(519.0533,157.4055)">
					<path id="path3185" class="st0" d="M-246.91-92.94c-0.32,0-0.52,0.27-0.52,0.6c0,0.34,0.21,0.57,0.55,0.57
						c0.18,0,0.3-0.04,0.37-0.07l-0.03-0.15c-0.08,0.03-0.16,0.06-0.31,0.06c-0.2,0-0.38-0.11-0.38-0.39h0.78
						c0-0.02,0.01-0.05,0.01-0.1C-246.45-92.62-246.55-92.94-246.91-92.94 M-247.24-92.46c0.02-0.14,0.11-0.33,0.31-0.33
						c0.23,0,0.28,0.2,0.28,0.33H-247.24z"/>
				</g>
			</g>
		</g>
	</g>
	<g id="g3187" transform="matrix(1.7344849,0,0,1.7344849,353.15941,190.10169)">
		<path id="path3189" class="st0" d="M-176.4-99.09h0.75v-1.76h1.52v-0.61h-1.52v-1.14h1.63v-0.62h-2.38V-99.09z"/>
	</g>
	<g id="g3191" transform="matrix(1.7344849,0,0,1.7344849,-382.85695,-91.416491)">
		<g>
			<g id="g3193">
				<g id="g3199" transform="translate(446.5587,168.264)">
					<path id="path3201" class="st0" d="M-192.94-106.57c0-0.91-0.59-1.53-1.48-1.53c-0.9,0-1.54,0.6-1.54,1.58
						c0,0.96,0.65,1.54,1.49,1.54C-193.71-104.98-192.94-105.47-192.94-106.57 M-194.44-105.53c-0.45,0-0.74-0.44-0.74-1.01
						c0-0.5,0.21-1.02,0.75-1.02c0.51,0,0.72,0.54,0.72,1.01C-193.72-105.95-194.02-105.53-194.44-105.53"/>
				</g>
				<g id="g3203" transform="translate(448.7413,162.3065)">
					<path id="path3205" class="st0" d="M-194.57-99.09h0.75v-1.55c0-0.08,0.01-0.16,0.02-0.23c0.07-0.34,0.32-0.57,0.67-0.57
						c0.09,0,0.16,0.01,0.23,0.02v-0.71c-0.06-0.01-0.1-0.02-0.18-0.02c-0.32,0-0.67,0.21-0.82,0.63h-0.02l-0.03-0.56h-0.65
						c0.02,0.26,0.02,0.56,0.02,0.96V-99.09z"/>
				</g>
				<g id="g3207" transform="translate(463.6405,162.3546)">
					<path id="path3209" class="st0" d="M-205.66-99.15l-0.01-0.57c-0.09,0.02-0.16,0.03-0.29,0.03c-0.29,0-0.39-0.18-0.39-0.55
						v-1.32h0.71v-0.56h-0.71v-0.77l-0.74,0.21v0.56h-0.42v0.56h0.42v1.41c0,0.39,0.07,0.67,0.24,0.84
						c0.14,0.15,0.37,0.25,0.65,0.25C-205.97-99.07-205.77-99.11-205.66-99.15"/>
				</g>
				<g id="g3211" transform="translate(471.2468,164.3007)">
					<path id="path3213" class="st0" d="M-211.32-101.6c-0.48,0-0.9-0.23-0.92-0.77h1.99c0.01-0.07,0.02-0.18,0.02-0.32
						c0-0.66-0.32-1.45-1.28-1.45c-0.95,0-1.45,0.78-1.45,1.61c0,0.91,0.57,1.51,1.53,1.51c0.43,0,0.78-0.08,1.04-0.19l-0.11-0.52
						C-210.73-101.65-210.97-101.6-211.32-101.6 M-211.55-103.63c0.5,0,0.62,0.45,0.62,0.73h-1.31
						C-212.21-103.2-212.01-103.63-211.55-103.63"/>
				</g>
				<g id="g3215" transform="translate(485.2392,165.7415)">
					<path id="path3217" class="st0" d="M-221.74-103.41c-0.01-0.44-0.25-0.72-0.79-0.91c-0.38-0.14-0.52-0.23-0.52-0.42
						c0-0.18,0.15-0.32,0.42-0.32c0.26,0,0.51,0.1,0.63,0.17l0.15-0.53c-0.18-0.1-0.46-0.18-0.79-0.18c-0.69,0-1.12,0.41-1.12,0.93
						c0,0.36,0.24,0.68,0.82,0.87c0.37,0.14,0.49,0.23,0.49,0.44c0,0.2-0.15,0.34-0.48,0.34c-0.27,0-0.59-0.12-0.76-0.22l-0.15,0.55
						c0.22,0.12,0.54,0.21,0.9,0.21C-222.16-102.47-221.74-102.86-221.74-103.41"/>
				</g>
				<g id="g3219" transform="translate(493.2527,164.397)">
					<path id="path3221" class="st0" d="M-227.7-101.72c-0.51,0-0.91-0.35-0.91-0.96c-0.01-0.55,0.34-0.97,0.91-0.97
						c0.27,0,0.45,0.06,0.57,0.12l0.13-0.57c-0.17-0.07-0.45-0.13-0.73-0.13c-1.04,0-1.66,0.69-1.66,1.59c0,0.93,0.6,1.53,1.53,1.53
						c0.37,0,0.68-0.08,0.84-0.15l-0.1-0.56C-227.26-101.77-227.45-101.72-227.7-101.72"/>
				</g>
				<g id="g3223" transform="translate(508.3443,165.8145)">
					<path id="path3225" class="st0" d="M-238.94-103.5v-2.09h-0.75v1.8c0,0.09-0.01,0.17-0.04,0.23c-0.07,0.2-0.27,0.41-0.57,0.41
						c-0.4,0-0.56-0.32-0.56-0.82v-1.63h-0.75v1.76c0,0.98,0.49,1.3,1.03,1.3c0.54,0,0.83-0.31,0.96-0.52h0.02l0.04,0.45h0.65
						C-238.93-102.85-238.94-103.14-238.94-103.5"/>
				</g>
				<g id="g3227" transform="translate(516.2401,174.2689)">
					<path id="path3229" class="st0" d="M-244.82-114.11c-0.95,0-1.45,0.78-1.45,1.61c0,0.91,0.57,1.51,1.53,1.51
						c0.43,0,0.78-0.08,1.04-0.19l-0.11-0.52c-0.23,0.08-0.48,0.14-0.83,0.14c-0.48,0-0.9-0.23-0.92-0.77h1.99
						c0.01-0.07,0.02-0.18,0.02-0.32C-243.53-113.31-243.85-114.11-244.82-114.11 M-245.55-112.87c0.03-0.31,0.23-0.73,0.69-0.73
						c0.5,0,0.62,0.45,0.62,0.73H-245.55z"/>
				</g>
			</g>
		</g>
	</g>
</g>
</svg>
