<?xml version="1.0" encoding="utf-8"?>
<!-- Generator: Adobe Illustrator 26.0.1, SVG Export Plug-In . SVG Version: 6.00 Build 0)  -->
<svg version="1.1" id="Layer_1" xmlns="http://www.w3.org/2000/svg" xmlns:xlink="http://www.w3.org/1999/xlink" x="0px" y="0px"
	 viewBox="0 0 95 35" style="enable-background:new 0 0 95 35;" xml:space="preserve">
<style type="text/css">
	.st0{fill:#343741;}
</style>
<path class="st0" d="M88.56,23.2h6.41v0.68h-4.85v1.41h4.64v0.68h-4.64v1.92h4.85v0.7h-6.41V23.2z M81.81,25.56
	c1.54,0,2.25-0.13,2.25-0.82c0-0.73-0.68-0.84-2.25-0.84h-1.28v1.66H81.81z M80.51,28.6h-1.49v-5.38h3.04c1.16,0,2.04,0.1,2.72,0.3
	c0.55,0.17,1,0.6,1,1.19c0,0.98-0.84,1.41-2.47,1.5l3.66,2.39h-1.98l-3.53-2.36h-0.95V28.6z M25.62,26.52l-1.14-1.27
	c-0.13-0.14-0.33-0.36-0.48-0.54c-0.14,0.17-0.35,0.4-0.47,0.54l-1.14,1.27H25.62z M26.2,27.21h-4.42l-1.25,1.39h-1.76l5.21-5.6
	l5.21,5.6h-1.77L26.2,27.21z M62.51,23.77c1.22,0,2.33,0.28,3.31,0.71l0.09-0.84c-1.06-0.36-2.18-0.55-3.48-0.55
	c-1.62,0-3.01,0.28-4.08,0.81c-1.08,0.52-1.65,1.23-1.65,2.03c0,0.78,0.57,1.5,1.63,2.03c1.06,0.52,2.47,0.79,4.13,0.79
	c1.3,0,2.39-0.16,3.34-0.51v-0.92c-1.06,0.46-2.2,0.73-3.48,0.73c-2.15,0-3.8-0.82-3.8-2.12C58.52,24.61,60.13,23.77,62.51,23.77
	 M0.05,28.6h1.52v-2.61h5.57v2.61h1.52v-5.38H7.14v2.09H1.57V23.2H0.05C0.05,23.2,0.05,28.6,0.05,28.6z M41.18,23.9h2.96v-0.68
	h-7.46v0.68h2.98v4.7h1.52V23.9z M30.78,28.6h5.97v-0.68h-4.43V23.2H30.8v5.4H30.78z M73.83,26.52l-1.14-1.27
	c-0.13-0.14-0.33-0.36-0.47-0.54c-0.14,0.17-0.35,0.4-0.47,0.54l-1.14,1.27H73.83z M74.42,27.21H70l-1.25,1.39h-1.76l5.21-5.6
	l5.21,5.6h-1.77L74.42,27.21z M11.04,28.6h6.41v-0.7H12.6v-1.92h4.64v-0.68H12.6V23.9h4.84v-0.7h-6.41V28.6z M46.15,28.6h1.52v-2.61
	h5.57v2.61h1.52v-5.38h-1.52v2.09h-5.57V23.2h-1.52V28.6z M73.93,20.57l-0.27,0.68H95v-0.68H73.93z M0,20.57v0.68h70.25l0.28-0.68H0
	z M92.96,18.53h1.98V6.37h-1.98V18.53z M90.38,13.3c-0.17-0.9-1-1.61-2.12-1.61c-1.09,0-2.04,0.71-2.17,1.61H90.38z M85.93,14.9
	c0.14,1.06,1,2.04,2.26,2.04c1.38,0,1.8-0.67,2.03-1.12h2.04c-0.21,1.22-1.69,2.82-4.01,2.82c-2.47,0-4.35-1.77-4.35-4.24
	c0-2.52,1.84-4.37,4.39-4.37c2.42,0,4.15,1.95,4.15,4.16c0,0.32-0.03,0.55-0.06,0.71L85.93,14.9L85.93,14.9z M77.5,18.53h1.96v-2.98
	l0.68-0.73l2.83,3.7h2.14l-3.8-4.89l3.51-3.31h-2.34l-3.02,2.93V6.37H77.5V18.53z M70.95,21.27h2.06l4.24-10.94h-2.04l-1.93,5.37
	l-1.98-5.37h-2l2.98,7.73L70.95,21.27z M67.13,14.32c0-1.41-0.98-2.52-2.39-2.5c-1.46-0.02-2.47,1.12-2.47,2.6
	c0,1.52,1.11,2.6,2.44,2.58C66.15,17.01,67.13,15.9,67.13,14.32 M69,18.53h-1.82v-0.87c-0.63,0.85-1.74,1.01-2.77,1.01
	c-1.28,0-2.36-0.54-3.07-1.41c-0.65-0.81-1.03-1.9-1.03-2.93c0-0.95,0.27-1.92,1.03-2.8c0.84-0.98,1.92-1.46,3.12-1.46
	c0.82,0,2.17,0.16,2.72,0.97v-0.7H69L69,18.53L69,18.53z M52.99,18.53V6.32h3.77c1.11,0,2.17-0.05,3.15,0.59
	c0.97,0.62,1.54,1.69,1.54,2.82c0,1.11-0.48,2.17-1.38,2.87c-0.97,0.74-2.31,0.68-3.47,0.68h-1.46v5.27h-2.15V18.53z M56.56,11.25
	c0.54,0,1.16,0.03,1.66-0.13c0.63-0.19,1.06-0.73,1.06-1.38c0-0.68-0.48-1.17-1.12-1.33c-0.48-0.13-1.14-0.1-1.6-0.1h-1.43v2.91
	h1.43V11.25z M45.54,11.82c-1.35,0.7-2.82,1.74-2.82,3.52c0,1.65,1.66,2.75,3.17,2.75c1.85,0,2.91-1.42,3.02-1.58L45.54,11.82z
	 M45.73,11.1c1.06-0.57,2.22-1.35,2.22-2.64c0-1.09-0.95-1.63-1.73-1.63c-0.85,0-1.73,0.68-1.73,1.63
	C44.49,9.41,45.06,10.2,45.73,11.1 M49.24,16.98c-0.76,0.95-1.88,1.65-3.37,1.65c-2.06,0-3.77-1.33-3.77-3.36
	c0-2.06,1.76-3.18,3.1-3.91c-0.55-0.81-1.31-1.69-1.31-2.85c0-1.38,1.12-2.25,2.26-2.25s2.31,0.73,2.31,2.14
	c0,1.58-1.22,2.44-2.44,3.14l3.2,4.42c0.4-0.57,0.71-1.5,0.73-2.69h0.57c0,1.17-0.32,2.41-0.92,3.23l1.49,2.06h-0.78L49.24,16.98z
	 M36.16,18.53h1.98V14c-0.02-0.7,0.03-1.31,0.62-1.77c0.55-0.43,1.55-0.51,2-0.46v-1.58c-0.16-0.05-0.51-0.06-0.74-0.06
	c-0.59,0-1.58,0.17-2.04,0.89v-0.7h-1.81C36.16,10.31,36.16,18.53,36.16,18.53z M33.49,13.3c-0.17-0.9-1-1.61-2.12-1.61
	c-1.09,0-2.04,0.71-2.17,1.61H33.49z M29.04,14.9c0.14,1.06,1,2.04,2.26,2.04c1.38,0,1.81-0.67,2.03-1.12h2.04
	c-0.21,1.22-1.69,2.82-4.01,2.82c-2.47,0-4.35-1.77-4.35-4.24c0-2.52,1.84-4.37,4.39-4.37c2.42,0,4.15,1.95,4.15,4.16
	c0,0.32-0.03,0.55-0.06,0.71L29.04,14.9L29.04,14.9z M18.87,18.53h2v-4.07c0-0.59-0.02-1.41,0.32-2c0.32-0.54,0.95-0.79,1.55-0.79
	c1.93,0,1.84,1.5,1.84,2.77v4.1h1.95V14c0-1.12,0.03-2.2-0.78-3.07c-0.62-0.68-1.55-1.05-2.64-1.05c-0.78,0-1.79,0.29-2.23,0.9v-4.4
	h-2V18.53z M11.04,15.74c0.1,2.22,1.88,2.93,3.72,2.93c2.23,0,3.61-1.22,3.61-2.85c0-1.69-1.22-2.45-2.82-2.53
	c-1.27-0.06-2.2-0.11-2.26-0.93c-0.05-0.68,0.81-0.89,1.3-0.89c0.78,0,1.38,0.16,1.42,0.95h2.07c-0.17-1.84-1.65-2.47-3.39-2.47
	c-1.55,0-3.39,0.55-3.39,2.68c0,1.47,1.19,2.22,2.47,2.34c1.88,0.16,2.58,0.11,2.66,0.89c0.09,0.98-1.06,1.2-1.68,1.2
	c-1.14,0-1.88-0.32-1.9-1.31H11.04z M8.53,8.33h1.98V6.31H8.53V8.33z M8.53,18.53h1.98v-8.2H8.53V18.53z M0,18.53h2.28v-6.24h5.07
	v-1.96H2.28v-2h5.83V6.31H0V18.53z"/>
</svg>
