<?xml version="1.0" encoding="utf-8"?>
<!-- Generator: Adobe Illustrator 26.0.1, SVG Export Plug-In . SVG Version: 6.00 Build 0)  -->
<svg version="1.1" id="Layer_1" xmlns="http://www.w3.org/2000/svg" xmlns:xlink="http://www.w3.org/1999/xlink" x="0px" y="0px"
	 viewBox="0 0 95 35" style="enable-background:new 0 0 95 35;" xml:space="preserve">
<style type="text/css">
	.st0{fill:#FFFFFF;}
</style>
<g>
	<g>
		<path class="st0" d="M38.78,17.32c-0.55,0-0.72,0.55-0.72,1.01s0.17,1,0.72,1s0.72-0.54,0.72-1S39.33,17.32,38.78,17.32z"/>
		<path class="st0" d="M46.64,17.32c-0.54,0-0.72,0.51-0.72,0.97c0,0.49,0.18,1.04,0.72,1.04c0.58,0,0.7-0.55,0.7-1.01
			C47.35,17.8,47.16,17.32,46.64,17.32z"/>
		<path class="st0" d="M55.71,19.1c0,0.29,0.23,0.41,0.49,0.41c0.57,0,0.75-0.32,0.72-1.07c-0.17,0.11-0.47,0.13-0.73,0.2
			C55.93,18.7,55.71,18.81,55.71,19.1z"/>
		<path class="st0" d="M30,0v35h35V0H30z M36.76,20.05c0,0.05-0.05,0.09-0.1,0.1l-0.81,0.14V19.7c-0.39,0.43-0.94,0.6-1.39,0.6
			c-1.55,0-2.35-1.18-2.35-2.65c0-0.67,0.18-1.22,0.51-1.64c0.4-0.53,1.08-0.94,1.85-0.94c0.6,0,1.23,0.19,1.67,0.6
			c0.16,0.14,0.3,0.32,0.39,0.54c0.05,0.12,0.1,0.24,0.13,0.37c0,0.04-0.02,0.07-0.07,0.08l-1.18,0.09
			c-0.04-0.42-0.46-0.68-0.98-0.68c-0.83,0-1.16,0.84-1.16,1.58c0,0.74,0.32,1.58,1.16,1.58c0.64,0,1.07-0.4,1.14-0.85h-0.67v-0.86
			c0-0.05,0.05-0.1,0.1-0.1h1.75V20.05z M38.78,20.24c-1.12,0-1.9-0.82-1.9-1.91c0-1.09,0.78-1.92,1.9-1.92s1.91,0.83,1.91,1.92
			C40.69,19.41,39.9,20.24,38.78,20.24z M42.71,20.24c-1.12,0-1.9-0.82-1.9-1.91c0-1.09,0.78-1.92,1.9-1.92s1.91,0.83,1.91,1.92
			C44.61,19.41,43.83,20.24,42.71,20.24z M48.48,20.03c0,0.06-0.04,0.1-0.1,0.1h-1.03v-0.42h-0.01c-0.23,0.34-0.58,0.52-1,0.52
			c-0.79,0-1.26-0.48-1.48-1.11c0-0.01-0.01-0.03-0.02-0.05c0-0.01,0-0.01,0-0.02c-0.02-0.05-0.03-0.1-0.04-0.15v0
			c-0.05-0.21-0.08-0.44-0.08-0.67c0-0.2,0.02-0.4,0.07-0.59v0c0-0.01,0.01-0.02,0.01-0.03c0.01-0.02,0.01-0.04,0.02-0.06
			c0-0.01,0.01-0.02,0.01-0.02c0.19-0.64,0.67-1.13,1.42-1.13c0.45,0,0.79,0.17,1.03,0.49h0.01v-1.35c0-0.19,0.18-0.21,0.41-0.25
			l0.77-0.15V20.03z M54.4,20.04c0,0.05-0.05,0.09-0.09,0.09h-1.09v-2.13c0-0.39-0.19-0.62-0.49-0.62c-0.51,0-0.56,0.39-0.56,0.98
			v1.67c0,0.05-0.04,0.1-0.1,0.1h-1.08v-2.06c0-0.43-0.13-0.69-0.45-0.69c-0.42,0-0.6,0.25-0.6,0.98v1.66c0,0.05-0.05,0.1-0.1,0.1
			h-1.08v-3.22c0-0.19,0.18-0.21,0.41-0.25l0.74-0.14v0.49h0.01c0.22-0.36,0.6-0.6,1.04-0.6c0.45,0,0.86,0.14,1.05,0.58
			c0.28-0.38,0.64-0.58,1.13-0.58c1.15,0,1.27,0.87,1.27,1.56V20.04z M58.07,20.03c0,0.06-0.05,0.1-0.1,0.1h-0.95
			c-0.04-0.11-0.06-0.22-0.07-0.34c-0.31,0.32-0.76,0.45-1.19,0.45c-0.53,0-0.97-0.21-1.15-0.64c-0.01-0.01-0.01-0.02-0.02-0.04
			c-0.04-0.12-0.06-0.25-0.06-0.41c0-0.11,0.01-0.2,0.03-0.29v0c0,0,0-0.01,0-0.01c0.01-0.05,0.02-0.09,0.04-0.13c0,0,0,0,0-0.01
			c0,0,0,0,0,0c0.02-0.05,0.04-0.09,0.06-0.11c0.35-0.59,1.31-0.56,1.97-0.7c0.2-0.04,0.31-0.11,0.31-0.33
			c0-0.27-0.33-0.38-0.57-0.38c-0.33,0-0.53,0.15-0.59,0.45l-1.08-0.21c0.07-0.36,0.27-0.6,0.54-0.76c0.32-0.18,0.74-0.25,1.15-0.25
			c0.86,0,1.69,0.19,1.68,1.21V20.03z M61.89,20.04c0,0.05-0.04,0.09-0.09,0.1h-0.96h-0.09v-1.75c0-0.23,0.01-0.45-0.04-0.63
			c-0.06-0.21-0.2-0.36-0.55-0.36c-0.4,0-0.6,0.3-0.63,0.64c-0.01,0.04-0.01,0.09-0.01,0.13v1.87c0,0.05-0.05,0.1-0.1,0.1v0h-0.43
			h-0.65v-3.22c0-0.19,0.18-0.21,0.41-0.25l0.56-0.11l0.17-0.03v0.49h0.01c0.19-0.32,0.59-0.54,0.98-0.59c0.05,0,0.1-0.01,0.16-0.01
			c0.85,0,1.15,0.44,1.25,0.88v0.01c0.01,0.02,0,0.04,0.01,0.07V20.04z"/>
		<path class="st0" d="M42.71,17.32c-0.55,0-0.72,0.55-0.72,1.01s0.17,1,0.72,1s0.72-0.54,0.72-1S43.26,17.32,42.71,17.32z"/>
	</g>
	<polygon class="st0" points="63.99,4.95 63.99,3.94 63.48,3.94 63.48,4.95 62.47,4.95 62.47,5.46 63.48,5.46 63.48,6.47 
		63.99,6.47 63.99,5.46 65,5.46 65,4.95 	"/>
</g>
</svg>
