<?xml version="1.0" encoding="utf-8"?>
<!-- Generator: Adobe Illustrator 26.0.1, SVG Export Plug-In . SVG Version: 6.00 Build 0)  -->
<svg version="1.1" id="Layer_1" xmlns="http://www.w3.org/2000/svg" xmlns:xlink="http://www.w3.org/1999/xlink" x="0px" y="0px"
	 viewBox="0 0 95 35" style="enable-background:new 0 0 95 35;" xml:space="preserve">
<style type="text/css">
	.st0{fill:#343741;}
</style>
<g>
	<path class="st0" d="M74.47,0H20.53c0,0-4.34,0-4.34,4.34v26.32c0,0,0,4.34,4.34,4.34h53.94c0,0,4.34,0,4.34-4.34V4.34
		C78.81,4.34,78.81,0,74.47,0z M28.19,15.42h1.26v0.57c0.4-0.46,0.79-0.65,1.31-0.65c0.63,0,1.47,0.36,1.47,1.55v2.56h-1.27v-2.45
		c0-0.57-0.27-0.8-0.63-0.8c-0.31,0-0.55,0.17-0.88,0.66v2.6h-1.26V15.42z M25.92,13.49h1.48v5.95h-1.48V13.49z M61.91,22.21
		l-0.06,0.05c-0.15,0.12-0.47,0.38-0.75,0.56c-2.88,1.93-13.04,8.18-24.1,8.18c-0.14,0-0.28,0-0.43,0c-2.9-0.05-6.92-0.39-9.59-1.72
		c-3.04-1.54-4.6-3.32-5.06-5.8l-0.07-0.36l3.42-1.01l0.1,0.41c0.41,1.67,1.72,3.08,3.79,4.07c2.2,1.05,5.21,1.61,8.7,1.61
		c7.3,0,15.94-2.44,22.54-6.37c0.26-0.15,0.47-0.29,0.66-0.41c0.16-0.1,0.29-0.19,0.43-0.26c0.34-0.2,0.63-0.09,0.76,0.1
		C62.39,21.46,62.44,21.77,61.91,22.21z M35.22,18.62c0.31,0,0.58-0.07,1.14-0.27v0.91c-0.51,0.18-0.93,0.27-1.36,0.27
		c-1.41,0-2.33-0.82-2.33-2.08c0-1.22,0.95-2.1,2.28-2.1c0.41,0,0.93,0.11,1.35,0.26v0.95c-0.33-0.18-0.71-0.28-1.03-0.28
		c-0.76,0-1.24,0.46-1.24,1.16C34.02,18.15,34.5,18.62,35.22,18.62z M37.42,14.81c-0.38,0-0.7-0.32-0.7-0.7c0-0.39,0.32-0.7,0.7-0.7
		c0.38,0,0.7,0.32,0.7,0.7C38.12,14.5,37.81,14.81,37.42,14.81z M38.06,15.42v4.02h-1.27v-4.02H38.06z M41.58,15.42v0.86h-1.47v1.66
		c0,0.39,0.22,0.65,0.62,0.65c0.27,0,0.51-0.06,0.85-0.24v0.91c-0.45,0.18-0.78,0.25-1.17,0.25c-0.84,0-1.56-0.39-1.56-1.51v-1.73
		h-0.58v-0.24l1.68-1.89h0.16v1.27H41.58z M44.23,18.77c0.5,0,0.9-0.15,1.49-0.57v0.79c-0.72,0.54-1.48,0.54-1.79,0.54
		c-1.42,0-2.33-0.82-2.33-2.08c0-1.22,0.88-2.1,2.12-2.1c1.17,0,2.13,0.83,2.08,2.3h-2.89C42.95,18.35,43.44,18.77,44.23,18.77z
		 M48.55,18.62c0.31,0,0.57-0.07,1.13-0.27v0.91c-0.5,0.18-0.93,0.27-1.36,0.27c-1.41,0-2.32-0.82-2.32-2.08
		c0-1.22,0.95-2.1,2.28-2.1c0.4,0,0.93,0.11,1.35,0.26v0.95c-0.33-0.18-0.71-0.28-1.03-0.28c-0.76,0-1.24,0.46-1.24,1.16
		C47.35,18.15,47.84,18.62,48.55,18.62z M52.29,19.44v-5.95h2.65c1.36,0,1.97,0.96,1.97,1.76c0,0.84-0.6,1.79-1.97,1.79h-1.18v2.39
		H52.29z M58.03,14.81c-0.38,0-0.7-0.32-0.7-0.7c0-0.39,0.32-0.7,0.7-0.7c0.38,0,0.7,0.32,0.7,0.7
		C58.73,14.5,58.41,14.81,58.03,14.81z M58.67,15.42v4.02H57.4v-4.02H58.67z M58.8,15.42h1.35L61,17.64l0.87-2.22h1.34l-1.85,4.1
		h-0.71L58.8,15.42z M65.22,19.52c-1.32,0-2.28-0.83-2.28-2.1c0-1.36,1.09-2.09,2.28-2.09c0.99,0,2.25,0.55,2.25,2.09
		C67.47,19.03,66.1,19.52,65.22,19.52z M70.77,16.28h-1.46v1.66c0,0.39,0.22,0.65,0.62,0.65c0.26,0,0.5-0.06,0.85-0.24v0.91
		c-0.45,0.18-0.77,0.25-1.16,0.25c-0.84,0-1.57-0.39-1.57-1.51v-1.73h-0.57v-0.24l1.68-1.89h0.16v1.27h1.46V16.28z M69.67,12.78
		l-0.1-0.41c-0.41-1.67-1.72-3.08-3.79-4.07c-2.2-1.05-5.2-1.61-8.69-1.61c-7.32,0-15.96,2.44-22.55,6.37
		c-0.26,0.15-0.47,0.28-0.66,0.4c-0.16,0.1-0.29,0.18-0.42,0.26c-0.13,0.07-0.25,0.1-0.35,0.1c-0.18,0-0.33-0.09-0.41-0.21
		c-0.13-0.19-0.18-0.51,0.36-0.94l0.07-0.06c0.16-0.13,0.46-0.37,0.74-0.55c2.87-1.93,13.02-8.18,24.07-8.18c0.15,0,0.3,0,0.45,0
		c2.9,0.04,6.92,0.38,9.6,1.73c3.03,1.53,4.59,3.32,5.06,5.8l0.07,0.36L69.67,12.78z"/>
	<path class="st0" d="M65.22,16.09c-0.55,0-0.93,0.43-0.93,1.33c0,1.03,0.45,1.34,0.93,1.34c0.59,0,0.9-0.49,0.9-1.37
		C66.12,16.61,65.85,16.09,65.22,16.09z"/>
	<path class="st0" d="M55.38,15.27c0-0.5-0.28-0.69-1.09-0.69h-0.53v1.37h0.69C55.14,15.96,55.38,15.72,55.38,15.27z"/>
	<path class="st0" d="M43.8,16.09c-0.5,0-0.82,0.32-0.87,0.88h1.74C44.62,16.42,44.29,16.09,43.8,16.09z"/>
</g>
</svg>
