<?xml version="1.0" encoding="utf-8"?>
<!-- Generator: Adobe Illustrator 26.0.1, SVG Export Plug-In . SVG Version: 6.00 Build 0)  -->
<svg version="1.1" id="Layer_1" xmlns="http://www.w3.org/2000/svg" xmlns:xlink="http://www.w3.org/1999/xlink" x="0px" y="0px"
	 viewBox="0 0 95 35" style="enable-background:new 0 0 95 35;" xml:space="preserve">
<style type="text/css">
	.st0{fill-rule:evenodd;clip-rule:evenodd;fill:#CCCCCC;}
	.st1{fill:#CCCCCC;}
</style>
<rect x="45.63" y="26.09" class="st0" width="3.21" height="3.28"/>
<rect x="62.59" y="22.01" class="st0" width="5.13" height="11.47"/>
<polygon class="st0" points="50.19,33.48 50.19,22.01 60.84,22.01 60.84,24.88 55.33,24.88 55.33,26.28 60.05,26.28 60.05,29.26 
	55.33,29.26 55.33,33.48 "/>
<rect x="39.41" y="22.01" class="st0" width="5.13" height="11.47"/>
<polygon class="st0" points="26.27,33.48 26.27,22.01 31.42,22.01 31.42,25.97 32.57,25.97 32.57,22.01 37.71,22.01 37.71,33.48 
	32.57,33.48 32.57,29.26 31.42,29.26 31.42,33.48 "/>
<path class="st0" d="M48.46,19.62V1.41h16.41c0.73-0.02,2.52,0.48,2.52,2.71c0,2.27,0,3.76,0,3.76s0.03,2.19-1.78,2.11
	c0,0,1.78,0.28,1.78,2.27c0,1.99,0,4.46,0,4.46s-0.05,2.9-2.39,2.9H48.46z M56.02,8.51V4.72h3.26c1.86,2.11,0.02,3.79,0.02,3.79
	H56.02z M56.02,15.94v-3.79h3.26c1.86,2.11,0.02,3.79,0.02,3.79H56.02z"/>
<path class="st0" d="M26.43,16.58c0-2.47,0.02-5.68,0.02-5.68h7.79v3.92c0,0,0.23,0.92,1.15,0.82c0.89,0.05,1.4-0.03,1.4-0.03
	s0.76,0,0.92-0.81V1.41h7.51v14.74c0,0,0.23,3-1.91,3.44H28.9C28.9,19.59,26.43,19.13,26.43,16.58z"/>
<path class="st1" d="M18.09,26.64V11.28c0.03-0.94,0.78-1.82,1.87-1.82h5.63v0.99h-5.72c-0.5,0-0.77,0.3-0.79,0.75v15.51
	c0.02,0.45,0.29,0.75,0.79,0.75h5.72v0.99h-5.63C18.88,28.46,18.13,27.58,18.09,26.64z"/>
<path class="st1" d="M75.91,26.64V11.28c-0.03-0.94-0.78-1.82-1.87-1.82h-5.63v0.99h5.72c0.5,0,0.77,0.3,0.79,0.75v15.51
	c-0.02,0.45-0.29,0.75-0.79,0.75h-5.72v0.99h5.63C75.12,28.46,75.87,27.58,75.91,26.64z"/>
</svg>
