<?xml version="1.0" encoding="utf-8"?>
<!-- Generator: Adobe Illustrator 26.0.1, SVG Export Plug-In . SVG Version: 6.00 Build 0)  -->
<svg version="1.1" id="Layer_1" xmlns="http://www.w3.org/2000/svg" xmlns:xlink="http://www.w3.org/1999/xlink" x="0px" y="0px"
	 viewBox="0 0 95 35" style="enable-background:new 0 0 95 35;" xml:space="preserve">
<style type="text/css">
	.st0{fill-rule:evenodd;clip-rule:evenodd;fill:#CCCCCC;}
</style>
<g>
	<path class="st0" d="M10.29,10.67c-0.56,1.68-2.18,6.3-2.37,6.73c-0.5,1.25-1.43,2.24-3.05,1.75c-1.56-0.37-1.68-1.62-1.56-2.24
		c0.12-0.62,0.5-1.5,0.5-1.5h1.87c0,0-0.25,0.93-0.37,1.25c-0.12,0.31-0.19,0.62,0.25,0.75c0.5,0.06,0.69-0.56,1.06-1.68
		c0,0,0,0,0.06,0l1.75-5.11c-3.49,0.44-6.11,3.37-6.11,6.92c0,2.93,1.87,5.49,4.49,6.48l2.87-8.6h1.87l-1,3.12h1.5l1.06-3.12h1.87
		l-2.74,8.35c2.31-1.12,3.93-3.49,3.93-6.23C16.14,14.04,13.59,11.17,10.29,10.67z"/>
	<path class="st0" d="M0,8.37v18.26h18.26V8.37H0z M9.23,25.95c-4.61,0-8.42-3.8-8.42-8.42c0-4.68,3.8-8.42,8.42-8.42
		s8.42,3.74,8.42,8.42C17.64,22.14,13.84,25.95,9.23,25.95z"/>
	<path class="st0" d="M8.54,24.45c0.25,0,0.44,0,0.69,0c0.31,0,0.56,0,0.87-0.06l1.25-3.86h-1.5L8.54,24.45z"/>
</g>
<path class="st0" d="M23.44,17.47c0,0.75,0,1.56,0.62,1.56c0.37,0,0.62-0.31,0.62-0.87v-4.74h2.31v4.43c0,1.87-0.87,2.93-2.81,2.93
	c-2.06,0-2.99-1.12-2.81-3.3H23.44L23.44,17.47z"/>
<path class="st0" d="M30.48,19.59c-0.37,0-0.62-0.19-0.62-0.44c0-0.69,0.87-0.56,1.56-0.87C31.48,19.03,31.23,19.59,30.48,19.59
	L30.48,19.59z M33.79,20.59v-0.06c-0.31-0.25-0.31-0.37-0.31-0.69v-2.43c0-1.25-0.12-2.18-2.62-2.18c-2.06,0-2.81,0.69-2.81,1.75
	h1.99c0-0.44,0.44-0.5,0.69-0.5c0.25,0,0.69,0.06,0.69,0.44c0,1-3.68-0.12-3.68,2.24c0,1.12,0.87,1.62,1.81,1.62
	c0.81,0,1.37-0.19,1.99-0.75l0.06,0.56H33.79L33.79,20.59z"/>
<path class="st0" d="M34.72,15.41h1.93v0.75c0.25-0.37,0.87-0.94,1.62-0.94c0.93,0,1.43,0.44,1.68,1c0.5-0.62,1.06-1,1.81-1
	c1.56,0,1.99,0.87,1.99,2.31v3.05H41.7v-2.62c0-0.81-0.12-1.12-0.69-1.12c-0.62,0-0.75,0.56-0.75,1.18v2.56h-2.06v-2.62
	c0-0.81-0.12-1.12-0.69-1.12c-0.62,0-0.75,0.56-0.75,1.18v2.56h-2.06V15.41L34.72,15.41z"/>
<path class="st0" d="M46.38,17.41c0-0.56,0.31-0.87,0.94-0.87c0.5,0,0.94,0.37,0.94,0.87H46.38L46.38,17.41z M50.31,18.47
	c0-1.87-1.12-3.24-3.05-3.24c-1.68,0-2.99,1.12-2.99,2.81c0,1.75,1.31,2.74,2.99,2.74c1.18,0,2.49-0.44,2.87-1.75h-1.99
	c-0.12,0.31-0.44,0.44-0.75,0.44c-0.56,0-1-0.37-1-1H50.31L50.31,18.47z"/>
<path class="st0" d="M52.67,18.96c0,0.25,0.06,0.37,0.19,0.5c0.12,0.06,0.31,0.12,0.5,0.12c0.31,0,0.69-0.06,0.69-0.44
	c0-0.81-3.18-0.19-3.18-2.18c0-1.37,1.37-1.75,2.43-1.75c1.12,0,2.49,0.25,2.62,1.68h-1.93c0-0.19-0.06-0.31-0.19-0.37
	c-0.12-0.12-0.25-0.19-0.37-0.19c-0.37,0-0.62,0.12-0.62,0.37c0,0.75,3.3,0.25,3.3,2.18c0,1.12-0.87,1.87-2.81,1.87
	c-1.18,0-2.49-0.37-2.62-1.81H52.67L52.67,18.96z"/>
<polygon class="st0" points="60.15,20.59 60.15,13.42 62.52,13.42 62.52,15.85 64.7,15.85 64.7,13.42 67.07,13.42 67.07,20.59 
	64.7,20.59 64.7,17.84 62.52,17.84 62.52,20.59 60.15,20.59 "/>
<path class="st0" d="M70.75,19.59c-0.44,0-0.69-0.19-0.69-0.44c0-0.69,0.94-0.56,1.62-0.87C71.69,19.03,71.5,19.59,70.75,19.59
	L70.75,19.59z M73.99,20.59v-0.06c-0.25-0.25-0.25-0.37-0.25-0.69v-2.43c0-1.25-0.19-2.18-2.62-2.18c-2.06,0-2.87,0.69-2.87,1.75
	h1.99c0.06-0.44,0.44-0.5,0.75-0.5c0.19,0,0.69,0.06,0.69,0.44c0,1-3.74-0.12-3.74,2.24c0,1.12,0.87,1.62,1.87,1.62
	c0.75,0,1.37-0.19,1.93-0.75l0.12,0.56H73.99L73.99,20.59z"/>
<path class="st0" d="M74.93,15.41h1.87v1.06l0,0c0.31-0.87,0.81-1.25,1.62-1.25c0.06,0,0.12,0.06,0.25,0.06v2.06
	c-0.12,0-0.31-0.06-0.44-0.06c-0.81,0-1.25,0.37-1.25,1.5v1.81h-2.06V15.41L74.93,15.41z"/>
<path class="st0" d="M81.97,19.28c-0.62,0-0.81-0.69-0.81-1.18c0-0.62,0.19-1.25,0.87-1.25c0.69,0,0.93,0.62,0.93,1.18
	C82.97,18.65,82.72,19.28,81.97,19.28L81.97,19.28z M84.96,20.59v-7.17h-2.12v2.49c-0.44-0.5-0.87-0.69-1.5-0.69
	c-1.25,0-2.24,1.12-2.24,2.87c0,1.5,0.81,2.68,2.37,2.68c0.69,0,1.12-0.25,1.62-0.87v0.69H84.96L84.96,20.59z"/>
<path class="st0" d="M86.09,15.41h2.06v5.17h-2.06V15.41L86.09,15.41z M86.09,13.23h2.06v1.5h-2.06V13.23L86.09,13.23z"/>
<path class="st0" d="M91.07,17.41c0-0.56,0.31-0.87,0.94-0.87c0.5,0,0.94,0.37,0.94,0.87H91.07L91.07,17.41z M95,18.47
	c0-1.87-1.12-3.24-3.05-3.24c-1.68,0-2.99,1.12-2.99,2.81c0,1.75,1.31,2.74,2.99,2.74c1.18,0,2.49-0.44,2.87-1.75h-1.99
	c-0.12,0.31-0.44,0.44-0.75,0.44c-0.56,0-1-0.37-1-1H95L95,18.47z"/>
</svg>
