<?xml version="1.0" encoding="utf-8"?>
<!-- Generator: Adobe Illustrator 26.0.1, SVG Export Plug-In . SVG Version: 6.00 Build 0)  -->
<svg version="1.1" id="Layer_1" xmlns="http://www.w3.org/2000/svg" xmlns:xlink="http://www.w3.org/1999/xlink" x="0px" y="0px"
	 viewBox="0 0 95 35" style="enable-background:new 0 0 95 35;" xml:space="preserve">
<style type="text/css">
	.st0{fill:#FFFFFF;}
</style>
<path id="path6" class="st0" d="M68.43,22.37l-10.24,2.78l7.57-10.95c0.31-0.44,0.83-0.69,1.37-0.63c0.54,0.05,1,0.39,1.22,0.89
	l2.59,5.98c0.19,0.44,0.54,0.8,0.98,0.99L68.43,22.37z"/>
<path id="path8" class="st0" d="M25.31,1.42c0.08-0.5-0.05-1.01-0.34-1.42l17.52,10.16l-7.83-1.08c-0.79-0.11-1.58,0.16-2.14,0.73
	l-6.88,7.05c-0.45,0.46-1.15,0.58-1.73,0.29c-0.58-0.29-0.9-0.92-0.8-1.55L25.31,1.42z"/>
<g>
	<path class="st0" d="M50.08,18.81c0,0.25,0.22,0.39,0.54,0.39c0.15,0,0.29-0.02,0.43-0.07v-0.69h-0.5
		C50.25,18.44,50.08,18.6,50.08,18.81z"/>
	<path class="st0" d="M35.2,17.09c-0.33,0-0.49,0.24-0.49,0.58v0.06h0.97v-0.06C35.68,17.33,35.52,17.09,35.2,17.09z"/>
	<path class="st0" d="M56.98,17.09c-0.33,0-0.49,0.24-0.49,0.58v0.06h0.97v-0.06C57.46,17.33,57.3,17.09,56.98,17.09z"/>
	<path class="st0" d="M34.67,9.08c-0.79-0.11-1.58,0.16-2.14,0.73l-6.88,7.05c-0.53,0.54-1.37,0.6-1.97,0.14l21.95,16.95
		c1.06,0.82,2.4,1.18,3.73,1.01c1.33-0.17,2.53-0.86,3.35-1.92c0.05-0.07,0.11-0.14,0.16-0.21l12.87-18.63
		c0.32-0.46,0.87-0.7,1.43-0.63L34.67,9.08z M32.85,19.99c-0.56,0-0.93-0.28-0.93-0.87v-4.1h0.95v3.83c0,0.22,0.08,0.32,0.27,0.32
		c0.11-0.01,0.22-0.02,0.33-0.05l0.1,0.76C33.34,19.95,33.1,20,32.85,19.99z M36.6,18.44H34.7v0.06c0,0.41,0.24,0.67,0.66,0.67
		c0.35,0,0.6-0.1,0.89-0.25l0.26,0.75c-0.38,0.22-0.82,0.33-1.26,0.32c-0.77,0-1.5-0.41-1.5-1.47v-0.75c0-0.92,0.56-1.51,1.44-1.51
		c0.93,0,1.4,0.62,1.4,1.44V18.44z M40,19.93h-0.95v-2.24c0-0.44-0.28-0.56-0.56-0.56c-0.15,0-0.29,0.03-0.43,0.08v2.73h-0.95v-3.33
		c0.37-0.16,0.93-0.33,1.47-0.33c0.98,0,1.42,0.49,1.42,1.2V19.93z M43.47,19.68c-0.46,0.2-0.95,0.31-1.46,0.31
		c-0.99,0-1.46-0.59-1.46-1.31V17.5c0-0.71,0.48-1.23,1.3-1.23c0.23,0,0.45,0.03,0.67,0.1v-1.35h0.95V19.68z M45.02,19.99
		c-0.56,0-0.92-0.28-0.92-0.87v-4.1h0.95v3.83c0,0.22,0.08,0.32,0.27,0.32c0.11-0.01,0.22-0.02,0.33-0.05l0.1,0.76
		C45.51,19.95,45.26,20,45.02,19.99z M48.76,18.44h-1.89v0.06c0,0.41,0.24,0.67,0.66,0.67c0.35,0,0.6-0.1,0.89-0.25l0.27,0.75
		c-0.38,0.22-0.82,0.33-1.27,0.32c-0.77,0-1.5-0.41-1.5-1.47v-0.75c0-0.92,0.56-1.51,1.44-1.51c0.93,0,1.4,0.62,1.4,1.44V18.44z
		 M52,19.68c-0.45,0.2-0.94,0.3-1.43,0.31c-0.93,0-1.44-0.45-1.44-1.18c0-0.62,0.46-1.08,1.27-1.08h0.66v-0.15
		c0-0.33-0.25-0.46-0.59-0.46c-0.31,0-0.71,0.12-1.05,0.29l-0.09-0.86c0.42-0.2,0.89-0.3,1.35-0.29c0.56,0,1.33,0.24,1.33,1.14h0
		V19.68z M53.74,19.99c-0.6,0-1.09-0.18-1.35-0.34l0.41-0.76c0.28,0.17,0.6,0.27,0.93,0.28c0.32,0,0.44-0.12,0.44-0.25
		c0-0.15-0.12-0.22-0.35-0.3l-0.46-0.15c-0.43-0.14-0.9-0.42-0.9-1.08c0-0.67,0.61-1.13,1.39-1.13c0.56,0,1.07,0.19,1.29,0.32
		l-0.42,0.74c-0.26-0.15-0.56-0.23-0.86-0.24c-0.26,0-0.41,0.1-0.41,0.24c0,0.1,0.07,0.19,0.29,0.27l0.52,0.18
		c0.54,0.18,0.91,0.46,0.91,1.06C55.16,19.54,54.53,19.99,53.74,19.99z M58.37,18.44h-1.89v0.06c0,0.41,0.24,0.67,0.66,0.67
		c0.35,0,0.6-0.1,0.89-0.25l0.27,0.75c-0.38,0.22-0.82,0.33-1.26,0.32c-0.77,0-1.5-0.41-1.5-1.47v-0.75c0-0.92,0.56-1.51,1.44-1.51
		c0.92,0,1.4,0.62,1.4,1.44V18.44z"/>
	<path class="st0" d="M42.06,17.08c-0.28,0-0.56,0.16-0.56,0.61v0.86c0,0.48,0.31,0.62,0.63,0.62c0.13,0,0.26-0.02,0.39-0.07v-1.94
		l0,0C42.37,17.11,42.22,17.09,42.06,17.08z"/>
	<path class="st0" d="M47.37,17.09c-0.33,0-0.49,0.24-0.49,0.58v0.06h0.97v-0.06C47.85,17.33,47.69,17.09,47.37,17.09z"/>
</g>
</svg>
