<?xml version="1.0" encoding="utf-8"?>
<!-- Generator: Adobe Illustrator 26.0.1, SVG Export Plug-In . SVG Version: 6.00 Build 0)  -->
<svg version="1.1" id="Layer_1" xmlns="http://www.w3.org/2000/svg" xmlns:xlink="http://www.w3.org/1999/xlink" x="0px" y="0px"
	 viewBox="0 0 95 35" style="enable-background:new 0 0 95 35;" xml:space="preserve">
<style type="text/css">
	.st0{fill:#CCCCCC;}
</style>
<g>
	<path class="st0" d="M19.51,34.85l-2.19-3.95h-1.27v3.95h-1.57v-9.56h3.4c1.89,0,2.88,1.35,2.88,2.72c0,1.07-0.59,2.15-1.76,2.62
		l2.43,4.22H19.51z M19.17,28.07c0-0.68-0.53-1.35-1.53-1.35h-1.59v2.75h1.59C18.65,29.47,19.17,28.77,19.17,28.07"/>
	<path class="st0" d="M33.37,28.03l-0.34,1.53c-0.29-0.12-0.59-0.18-0.87-0.18c-0.77,0-1.41,0.46-1.41,1.65v3.81h-1.52v-6.89h1.49
		v0.83c0.37-0.67,1.08-0.93,1.75-0.93C32.79,27.87,33.11,27.94,33.37,28.03"/>
	<path class="st0" d="M40.03,32.08h-4.96c0.23,1.08,1.11,1.5,2,1.5c0.75,0,1.46-0.3,1.94-0.97l0.97,0.94
		C39.21,34.52,38.16,35,37.01,35c-1.79,0-3.58-1.27-3.58-3.63c0-2.35,1.72-3.58,3.51-3.58c1.68,0,3.14,1.11,3.14,3.43
		C40.09,31.45,40.09,31.72,40.03,32.08 M35.03,30.82h3.54c-0.03-1.13-0.82-1.68-1.69-1.68C35.99,29.14,35.16,29.7,35.03,30.82"/>
	<polygon class="st0" points="45.03,26.72 45.03,29.36 48.27,29.36 48.27,30.79 45.03,30.79 45.03,33.42 49.2,33.42 49.2,34.85 
		43.46,34.85 43.46,25.29 49.09,25.29 49.09,26.72 	"/>
	<path class="st0" d="M61.39,28.03l-0.34,1.53c-0.29-0.12-0.59-0.18-0.87-0.18c-0.77,0-1.41,0.46-1.41,1.65v3.81h-1.52v-6.89h1.49
		v0.83c0.37-0.67,1.08-0.93,1.75-0.93C60.8,27.87,61.13,27.94,61.39,28.03"/>
	<path class="st0" d="M65.65,35c-1.18,0-2.27-0.71-2.27-2.29v-3.35h-1.49v-1.39h1.49V26.2h1.5v1.76h1.93v1.39h-1.93v3.26
		c0,0.77,0.44,1.05,0.97,1.05c0.3,0,0.62-0.11,0.92-0.26l0.55,1.12C66.81,34.84,66.21,35,65.65,35"/>
	<path class="st0" d="M74.02,30.35v4.49h-1.52v-3.96c0-1.16-0.61-1.65-1.39-1.65c-0.94,0-1.74,0.72-1.74,2.05v3.56h-1.52v-9.56h1.52
		v3.68c0.51-0.82,1.31-1.17,2.16-1.17C72.81,27.79,74.02,28.63,74.02,30.35"/>
	<path class="st0" d="M77.61,35c-1.15,0-2.46-0.45-3.2-1.37l1.12-1.05c0.63,0.78,1.49,1.06,2.21,1.06c0.72,0,1.24-0.31,1.24-0.71
		c0-0.52-0.74-0.64-1.6-0.83c-1.12-0.25-2.53-0.63-2.53-2.19c0-1.48,1.3-2.13,2.75-2.13c0.96,0,1.86,0.29,2.54,0.79l-0.86,1.12
		c-0.45-0.37-1.07-0.59-1.68-0.59c-0.67,0-1.22,0.26-1.22,0.78c0,0.6,0.71,0.77,1.63,0.93c1.16,0.23,2.5,0.52,2.5,1.93
		C80.52,34.17,79.17,35,77.61,35"/>
	<path class="st0" d="M26.84,27.95v0.86c-0.47-0.77-1.38-1.02-2.16-1.02c-1.68,0-3.41,1.18-3.42,3.61c0.01,2.42,1.73,3.61,3.42,3.61
		c0.78,0,1.69-0.26,2.16-1.03v0.86l1.47,0v-6.89H26.84z M26.81,31.42c0,1.5-1.03,2.23-2.05,2.23c-1,0-2.01-0.71-2.01-2.24v-0.03
		c0-1.53,1.01-2.24,2.01-2.24c1.03,0,2.05,0.72,2.05,2.23V31.42z"/>
	<path class="st0" d="M54.85,27.95v0.86c-0.47-0.77-1.38-1.02-2.16-1.02c-1.69,0-3.41,1.18-3.42,3.61c0.01,2.42,1.73,3.61,3.42,3.61
		c0.78,0,1.69-0.26,2.16-1.03v0.86l1.47,0v-6.89H54.85z M54.83,31.42c0,1.5-1.03,2.23-2.05,2.23c-1,0-2.01-0.71-2.01-2.24v-0.03
		c0-1.53,1.01-2.24,2.01-2.24c1.03,0,2.05,0.72,2.05,2.23V31.42z"/>
	<path class="st0" d="M50.12,6.39c-0.9-0.84-2.14-1.3-3.47-1.3c-1.63,0-3.05,0.65-4,1.79V5.62V5.4h-0.22h-2.88h-0.22v0.22v13.46
		v0.22h0.22h2.93h0.22v-0.22v-6.95c0-2.26,1.26-3.78,3.13-3.78c1.57,0,2.47,1.09,2.47,3v7.72v0.22h0.22h2.93h0.22v-0.22v-8.76
		C51.67,8.69,51.14,7.33,50.12,6.39"/>
	<path class="st0" d="M34.63,5.4H34.4v0.22v6.95c0,0.08,0,0.16-0.01,0.25c-0.04,1.09-0.39,2-0.99,2.63
		c-0.55,0.58-1.31,0.89-2.13,0.89c-1.57,0-2.47-1.09-2.47-3V5.62V5.4h-0.22h-2.93h-0.22v0.22v8.77c0,1.62,0.54,2.98,1.55,3.92
		c0.9,0.84,2.14,1.3,3.47,1.3c1.59,0,2.99-0.62,3.94-1.72c-0.02,0.76-0.34,1.52-0.87,2.1c-0.57,0.61-1.31,0.94-2.09,0.94
		c-0.52,0-1.03-0.14-1.48-0.4l-0.11-0.06l-0.11,0.06L27,22.1l-0.25,0.15l0.2,0.2c1.2,1.2,2.79,1.85,4.48,1.85
		c1.77,0,3.41-0.76,4.61-2.13c1.1-1.25,1.73-2.9,1.73-4.51V5.62V5.4h-0.22H34.63z"/>
	<path class="st0" d="M78.82,12.05c-0.99-0.57-2.3-0.83-3.35-1.05c-1.75-0.31-2.99-0.61-2.99-1.6c0-0.96,1.16-1.3,2.15-1.3
		c1.14,0,2.28,0.4,3.13,1.1l0.18,0.14l0.14-0.18l1.68-2.19l0.14-0.18l-0.18-0.13c-1.38-1.03-3.19-1.59-5.08-1.59
		c-1.54,0-2.87,0.36-3.86,1.04c-1.12,0.77-1.71,1.93-1.71,3.34c0,1.42,0.59,2.52,1.74,3.28c0.99,0.65,2.25,0.96,3.35,1.2
		c0.12,0.03,0.23,0.05,0.34,0.08c1.45,0.32,2.6,0.57,2.6,1.34c0,0.65-0.97,1.17-2.2,1.17c-1.61,0-3.12-0.73-4.14-2l-0.15-0.19
		l-0.17,0.16l-2.18,2.05L68.1,16.7l0.13,0.16c0.7,0.87,1.7,1.59,2.9,2.07c1.1,0.44,2.31,0.68,3.49,0.68c1.58,0,3.03-0.43,4.1-1.2
		c1.17-0.85,1.79-2.03,1.79-3.42C80.52,13.67,79.96,12.71,78.82,12.05"/>
	<path class="st0" d="M25.82,18.91L25.82,18.91L25.82,18.91l-0.01-0.01c-0.77-0.72-1.3-1.63-1.58-2.69l-0.04-0.17h-0.17h-5.96V0.3V0
		l-0.28,0.09l-3.13,0.94l-0.16,0.05v0.16l0,17.84v0.22h0.22h10.97h0.61L25.82,18.91z"/>
	<path class="st0" d="M64.04,5.4h-0.22v0.22v1.02c-0.41-0.47-0.94-0.83-1.58-1.1c-0.71-0.3-1.55-0.46-2.42-0.46
		c-1.79,0-3.47,0.64-4.72,1.81c-1.42,1.32-2.17,3.21-2.18,5.46c0.01,2.25,0.76,4.14,2.18,5.46c1.25,1.16,2.93,1.81,4.72,1.81
		c0.87,0,1.71-0.16,2.42-0.46c0.63-0.27,1.16-0.63,1.58-1.1v1.02v0.22h0.22l2.88,0h0.22v-0.22V5.62V5.4h-0.22H64.04z M63.77,12.29
		v0.1c0,1.3-0.41,2.37-1.19,3.11c-0.68,0.65-1.61,1.01-2.6,1.01c-1.85,0-3.71-1.28-3.71-4.15v-0.05c0-2.87,1.86-4.15,3.71-4.15
		c1,0,1.92,0.36,2.6,1.01C63.36,9.92,63.77,11,63.77,12.29"/>
</g>
</svg>
