<?xml version="1.0" encoding="utf-8"?>
<!-- Generator: Adobe Illustrator 26.0.1, SVG Export Plug-In . SVG Version: 6.00 Build 0)  -->
<svg version="1.1" id="Layer_1" xmlns="http://www.w3.org/2000/svg" xmlns:xlink="http://www.w3.org/1999/xlink" x="0px" y="0px"
	 viewBox="0 0 95 35" style="enable-background:new 0 0 95 35;" xml:space="preserve">
<style type="text/css">
	.st0{fill:#CCCCCC;}
</style>
<path class="st0" d="M35.69,19.78l-0.38-3.69c-0.06-0.59-0.13-1.19-0.2-1.81c-0.08-0.62-0.16-1.28-0.26-1.97
	c-0.16,0.32-0.39,0.79-0.67,1.41c-0.29,0.62-0.64,1.38-1.07,2.28l-1.75,3.78c-0.14-0.02-0.33-0.02-0.56,0
	c-0.25-0.49-0.81-1.67-1.69-3.53l-1.93-3.96c-0.06,0.61-0.11,1.24-0.17,1.89c-0.05,0.65-0.11,1.32-0.17,2.03
	c-0.02,0.37-0.05,0.85-0.09,1.44c-0.04,0.59-0.09,1.3-0.15,2.13c-0.22-0.02-0.47-0.02-0.74,0c0.03-0.23,0.07-0.73,0.15-1.5
	c0.07-0.77,0.17-1.82,0.29-3.15c0.12-1.1,0.26-2.65,0.42-4.65c0.32,0.02,0.67,0.02,1.07,0c0.11,0.23,0.3,0.62,0.56,1.16
	c0.26,0.55,0.6,1.26,1.03,2.13c0.22,0.43,0.51,1,0.86,1.71c0.35,0.7,0.77,1.54,1.26,2.52l3.49-7.52c0.31,0.01,0.64,0.01,1.01,0
	c0.03,0.34,0.09,0.88,0.18,1.61c0.09,0.73,0.2,1.67,0.33,2.82l0.64,4.87C36.56,19.77,36.07,19.77,35.69,19.78"/>
<path class="st0" d="M45.91,19.76c-0.12,0-0.26-0.01-0.42-0.01c-0.16,0-0.3,0-0.43,0.01c-0.12,0-0.23,0.01-0.31,0.02l-1.06-2.96
	h-0.37c-0.15,0-0.34,0-0.57-0.01h-1.01c-0.39,0-0.75,0-1.07,0.01c-0.32,0-0.61,0.01-0.87,0.02l-1.16,2.95
	c-0.25-0.02-0.47-0.02-0.68,0l3.77-9.21c0.21,0.03,0.55,0.03,1.02,0l3.47,9.21C46.13,19.77,46.03,19.77,45.91,19.76 M43.34,15.86
	c-0.19-0.49-0.41-1.08-0.66-1.77c-0.26-0.69-0.55-1.47-0.87-2.34l-1.66,4.15c-0.03,0.09-0.06,0.16-0.08,0.22
	c-0.02,0.06-0.04,0.12-0.06,0.16h0.78c0.2,0.01,0.37,0.01,0.52,0.01h0.42h0.36c0.14,0,0.32,0,0.52-0.01h0.88L43.34,15.86z"/>
<path class="st0" d="M51.98,20c-1.47,0-2.65-0.44-3.56-1.32c-0.92-0.88-1.38-2.04-1.38-3.5c0-1.4,0.5-2.56,1.51-3.47
	c0.95-0.88,2.11-1.32,3.46-1.32c1.47,0,2.67,0.46,3.58,1.37l-0.28,0.36c-0.76-0.67-1.65-1.01-2.67-1.01c-1.08,0-2.01,0.33-2.79,1
	c-0.87,0.76-1.3,1.77-1.3,3.04c0,1.18,0.4,2.18,1.19,2.98c0.8,0.8,1.75,1.2,2.86,1.2c0.64,0,1.25-0.08,1.83-0.23
	c0-0.54,0-1.07-0.01-1.58c0-0.51-0.01-0.99-0.02-1.46l-1.97,0.03v-0.55h0.56c0.2,0.01,0.39,0.01,0.57,0.01h0.59h0.57
	c0.2,0,0.39,0,0.57-0.01h0.51l-0.01,1.94v0.41c0,0.14,0,0.31,0.01,0.5v0.96C54.61,19.78,53.33,20,51.98,20"/>
<path class="st0" d="M63.18,19.78c-0.16,0-0.42,0-0.78-0.01c-0.36-0.01-0.68-0.01-0.96-0.01h-0.73h-0.66c-0.27,0-0.59,0-0.96,0.01
	c-0.37,0.01-0.64,0.01-0.82,0.01h-0.23l0.04-4.48c0-0.66-0.01-2.23-0.04-4.73l2.61,0.03h0.73c0.28,0,0.6,0,0.96-0.01
	c0.36-0.01,0.62-0.01,0.78-0.01h0.22v0.56c-0.58-0.03-1.87-0.04-3.88-0.04c0,0.54,0,1.11-0.01,1.73c0,0.62-0.01,1.28-0.02,1.97h0.91
	h0.7c0.27,0,0.59,0,0.95-0.01c0.36-0.01,0.62-0.01,0.79-0.01h0.24v0.55H62.8c-0.16,0-0.42,0-0.78-0.01
	c-0.36-0.01-0.68-0.01-0.96-0.01h-0.73h-0.91c0,0.6,0.01,1.92,0.04,3.93c0.14,0.01,0.31,0.01,0.51,0.01h0.74h0.7
	c0.28,0,0.6,0,0.96-0.01c0.36-0.01,0.62-0.01,0.79-0.01h0.23v0.56H63.18z"/>
<path class="st0" d="M70.07,19.78c-0.14,0-0.37,0-0.69-0.01c-0.32-0.01-0.6-0.01-0.87-0.01h-0.7c-0.3,0-0.66,0-1.1,0.01
	c-0.43,0-0.94,0.01-1.51,0.02l0.04-4.73c0-0.65-0.01-2.14-0.04-4.48c0.51,0.02,0.98,0.02,1.42,0l-0.04,4.48v0.69
	c0,0.33,0,0.78,0.01,1.33c0.01,0.55,0.01,1,0.01,1.37v0.82c1.86,0,3.07-0.01,3.65-0.04v0.56H70.07z"/>
<path class="st0" d="M76.63,19.78c-0.14,0-0.37,0-0.69-0.01c-0.32-0.01-0.6-0.01-0.87-0.01h-0.7c-0.3,0-0.66,0-1.1,0.01
	c-0.43,0-0.94,0.01-1.51,0.02l0.04-4.73c0-0.65-0.01-2.14-0.04-4.48c0.51,0.02,0.98,0.02,1.42,0l-0.04,4.48v0.69
	c0,0.33,0,0.78,0.01,1.33c0.01,0.55,0.01,1,0.01,1.37v0.82c1.86,0,3.07-0.01,3.65-0.04v0.56H76.63z"/>
<path class="st0" d="M85.31,19.76c-0.12,0-0.26-0.01-0.42-0.01c-0.16,0-0.3,0-0.43,0.01c-0.12,0-0.23,0.01-0.31,0.02l-1.06-2.96
	h-0.37c-0.15,0-0.34,0-0.57-0.01h-1.01c-0.39,0-0.75,0-1.07,0.01c-0.32,0-0.61,0.01-0.87,0.02l-1.16,2.95
	c-0.25-0.02-0.47-0.02-0.68,0l3.77-9.21c0.21,0.03,0.55,0.03,1.02,0l3.47,9.21C85.53,19.77,85.43,19.77,85.31,19.76 M82.74,15.86
	c-0.19-0.49-0.41-1.08-0.66-1.77c-0.26-0.69-0.55-1.47-0.87-2.34l-1.66,4.15c-0.03,0.09-0.06,0.16-0.08,0.22
	c-0.02,0.06-0.04,0.12-0.06,0.16h0.78c0.2,0.01,0.37,0.01,0.52,0.01h0.42h0.36c0.14,0,0.32,0,0.52-0.01h0.88L82.74,15.86z"/>
<path class="st0" d="M93.84,19.9c-0.32-0.41-0.78-0.98-1.36-1.71c-0.58-0.73-1.3-1.62-2.15-2.69c-0.32-0.37-0.69-0.83-1.13-1.36
	c-0.44-0.53-0.95-1.15-1.54-1.85v1.64c-0.01,0.35-0.01,0.63-0.01,0.83v0.41c0,0.65,0,1.35,0.01,2.11c0.01,0.76,0.02,1.59,0.04,2.5
	c-0.23-0.01-0.45-0.01-0.66,0v-0.49c0-0.33,0-0.83,0.01-1.51v-2.61v-2.62c-0.01-0.67-0.01-1.18-0.01-1.51v-0.49
	c0.06,0.01,0.13,0.01,0.22,0.01h0.29h0.31c0.09,0,0.18,0,0.27-0.01c0.52,0.66,1.61,2.02,3.26,4.1c0.36,0.43,0.78,0.95,1.26,1.53
	c0.49,0.59,1.03,1.26,1.65,2.01c0.01-0.38,0.01-0.82,0.01-1.32v-1.71c0-2.18-0.01-3.72-0.04-4.61c0.24,0.01,0.46,0.01,0.66,0v1.98
	c-0.01,0.67-0.01,1.23-0.01,1.67v0.95v0.96c0,0.44,0,1.01,0.01,1.71v2.06H93.84z"/>
<path class="st0" d="M27.78,25.58c0,0.03,0,0.06-0.01,0.09c0,0.02-0.01,0.05-0.02,0.06c-0.01,0.02-0.02,0.03-0.03,0.04
	c-0.01,0.01-0.03,0.01-0.04,0.01h-1.71c-0.04,0-0.08-0.01-0.12-0.04c-0.04-0.03-0.06-0.08-0.06-0.15v-3.17
	c0-0.07,0.02-0.12,0.06-0.15c0.04-0.03,0.08-0.04,0.12-0.04h1.69c0.01,0,0.03,0,0.04,0.01c0.01,0.01,0.02,0.02,0.03,0.04
	c0.01,0.02,0.01,0.04,0.02,0.06c0,0.02,0.01,0.06,0.01,0.09c0,0.03,0,0.06-0.01,0.09c0,0.02-0.01,0.04-0.02,0.06
	c-0.01,0.02-0.02,0.03-0.03,0.03c-0.01,0.01-0.03,0.01-0.04,0.01h-1.39v1.12h1.19c0.01,0,0.03,0,0.04,0.01
	c0.01,0.01,0.02,0.02,0.03,0.03c0.01,0.01,0.01,0.04,0.02,0.06c0,0.03,0.01,0.06,0.01,0.09c0,0.03,0,0.06-0.01,0.09
	c0,0.02-0.01,0.04-0.02,0.06c-0.01,0.01-0.02,0.03-0.03,0.03c-0.01,0.01-0.03,0.01-0.04,0.01h-1.19v1.27h1.41
	c0.01,0,0.03,0,0.04,0.01c0.01,0.01,0.02,0.02,0.03,0.03c0.01,0.02,0.02,0.04,0.02,0.06C27.78,25.51,27.78,25.54,27.78,25.58"/>
<path class="st0" d="M30.76,25.61c0.02,0.04,0.04,0.07,0.04,0.1c0,0.02,0,0.04-0.02,0.06c-0.02,0.01-0.04,0.02-0.08,0.03
	c-0.04,0-0.09,0.01-0.15,0.01c-0.06,0-0.1,0-0.14,0c-0.03,0-0.06-0.01-0.08-0.01c-0.02-0.01-0.03-0.02-0.04-0.03
	c-0.01-0.01-0.02-0.02-0.03-0.04l-0.79-1.42l-0.8,1.42c-0.01,0.02-0.02,0.03-0.03,0.04c-0.01,0.01-0.03,0.02-0.05,0.03
	c-0.02,0.01-0.05,0.01-0.08,0.01c-0.03,0-0.08,0-0.13,0c-0.06,0-0.11,0-0.14-0.01c-0.03,0-0.06-0.01-0.07-0.03
	c-0.01-0.01-0.02-0.03-0.01-0.06c0-0.02,0.02-0.06,0.04-0.1l0.97-1.64l-0.93-1.58c-0.02-0.04-0.04-0.07-0.04-0.1
	c-0.01-0.02,0-0.04,0.01-0.06c0.01-0.01,0.04-0.02,0.08-0.03c0.04,0,0.09-0.01,0.15-0.01c0.05,0,0.1,0,0.13,0
	c0.03,0,0.06,0.01,0.08,0.01c0.02,0.01,0.03,0.02,0.04,0.03c0.01,0.01,0.02,0.03,0.03,0.04l0.76,1.33l0.76-1.33
	c0.01-0.01,0.02-0.03,0.03-0.04c0.01-0.01,0.02-0.02,0.04-0.03c0.02-0.01,0.04-0.01,0.07-0.01c0.03,0,0.07,0,0.13,0
	c0.06,0,0.1,0,0.14,0.01c0.04,0,0.06,0.01,0.08,0.03c0.02,0.01,0.02,0.03,0.02,0.06c0,0.02-0.02,0.06-0.04,0.1l-0.92,1.57
	L30.76,25.61z"/>
<path class="st0" d="M33.55,23.26c0,0.18-0.03,0.34-0.09,0.48c-0.06,0.14-0.14,0.26-0.25,0.37c-0.11,0.1-0.24,0.18-0.4,0.23
	c-0.16,0.05-0.35,0.08-0.57,0.08h-0.4v1.28c0,0.01,0,0.03-0.01,0.04c-0.01,0.01-0.02,0.02-0.04,0.03c-0.02,0.01-0.04,0.01-0.07,0.02
	c-0.03,0-0.07,0.01-0.11,0.01c-0.05,0-0.08,0-0.11-0.01c-0.03,0-0.05-0.01-0.07-0.02c-0.02-0.01-0.03-0.01-0.04-0.03
	c-0.01-0.01-0.01-0.02-0.01-0.04v-3.28c0-0.07,0.02-0.13,0.06-0.16c0.04-0.03,0.08-0.05,0.13-0.05h0.76c0.08,0,0.15,0,0.22,0.01
	c0.07,0.01,0.15,0.02,0.25,0.04c0.1,0.02,0.19,0.06,0.29,0.12c0.1,0.06,0.18,0.13,0.25,0.21c0.07,0.08,0.12,0.18,0.16,0.29
	C33.53,23,33.55,23.13,33.55,23.26 M33.05,23.3c0-0.14-0.03-0.27-0.08-0.36c-0.05-0.1-0.12-0.17-0.2-0.22
	c-0.08-0.05-0.16-0.08-0.25-0.09c-0.09-0.01-0.17-0.02-0.25-0.02h-0.44v1.43h0.43c0.14,0,0.26-0.02,0.36-0.06
	c0.09-0.04,0.17-0.09,0.24-0.15c0.06-0.06,0.11-0.14,0.15-0.23C33.03,23.5,33.05,23.4,33.05,23.3"/>
<path class="st0" d="M36.2,25.58c0,0.03,0,0.06-0.01,0.09c0,0.02-0.01,0.05-0.02,0.06c-0.01,0.02-0.02,0.03-0.03,0.04
	c-0.01,0.01-0.03,0.01-0.04,0.01h-1.71c-0.04,0-0.08-0.01-0.12-0.04c-0.04-0.03-0.06-0.08-0.06-0.15v-3.17
	c0-0.07,0.02-0.12,0.06-0.15c0.04-0.03,0.08-0.04,0.12-0.04h1.69c0.01,0,0.03,0,0.04,0.01c0.01,0.01,0.02,0.02,0.03,0.04
	c0.01,0.02,0.01,0.04,0.02,0.06c0,0.02,0.01,0.06,0.01,0.09c0,0.03,0,0.06-0.01,0.09c0,0.02-0.01,0.04-0.02,0.06
	c-0.01,0.02-0.02,0.03-0.03,0.03c-0.01,0.01-0.03,0.01-0.04,0.01h-1.39v1.12h1.19c0.01,0,0.03,0,0.04,0.01
	c0.01,0.01,0.02,0.02,0.03,0.03c0.01,0.01,0.01,0.04,0.02,0.06c0,0.03,0.01,0.06,0.01,0.09c0,0.03,0,0.06-0.01,0.09
	c0,0.02-0.01,0.04-0.02,0.06c-0.01,0.01-0.02,0.03-0.03,0.03c-0.01,0.01-0.03,0.01-0.04,0.01h-1.19v1.27h1.41
	c0.01,0,0.03,0,0.04,0.01c0.01,0.01,0.02,0.02,0.03,0.03c0.01,0.02,0.02,0.04,0.02,0.06C36.19,25.51,36.2,25.54,36.2,25.58"/>
<path class="st0" d="M39.28,25.7c0,0.01,0,0.03-0.01,0.04c-0.01,0.01-0.02,0.02-0.04,0.03c-0.02,0.01-0.04,0.01-0.08,0.02
	c-0.03,0-0.08,0.01-0.13,0.01c-0.05,0-0.09,0-0.12-0.01c-0.03,0-0.05-0.01-0.07-0.02c-0.02-0.01-0.03-0.02-0.04-0.03
	c-0.01-0.01-0.02-0.03-0.03-0.06l-0.33-0.84c-0.04-0.1-0.08-0.18-0.12-0.26c-0.04-0.08-0.09-0.15-0.15-0.21
	c-0.06-0.06-0.12-0.1-0.2-0.13c-0.08-0.03-0.17-0.05-0.28-0.05h-0.32v1.52c0,0.01,0,0.03-0.01,0.04c-0.01,0.01-0.02,0.02-0.04,0.03
	c-0.02,0.01-0.04,0.01-0.07,0.02c-0.03,0-0.07,0.01-0.11,0.01s-0.08,0-0.11-0.01c-0.03,0-0.05-0.01-0.07-0.02
	c-0.02-0.01-0.03-0.01-0.04-0.03c-0.01-0.01-0.01-0.02-0.01-0.04v-3.3c0-0.07,0.02-0.12,0.06-0.15c0.04-0.03,0.08-0.04,0.12-0.04
	h0.76c0.09,0,0.16,0,0.22,0.01c0.06,0,0.11,0.01,0.16,0.02c0.14,0.02,0.26,0.06,0.36,0.11c0.11,0.05,0.19,0.12,0.27,0.19
	c0.07,0.08,0.13,0.17,0.16,0.27c0.04,0.1,0.05,0.21,0.05,0.34c0,0.12-0.02,0.23-0.05,0.32c-0.03,0.09-0.08,0.18-0.14,0.25
	c-0.06,0.07-0.13,0.14-0.22,0.19c-0.08,0.05-0.18,0.1-0.28,0.13c0.06,0.03,0.11,0.06,0.16,0.1c0.05,0.04,0.09,0.09,0.13,0.14
	c0.04,0.05,0.08,0.12,0.12,0.19c0.04,0.07,0.07,0.15,0.11,0.24l0.32,0.78c0.03,0.07,0.04,0.11,0.05,0.14
	C39.28,25.67,39.28,25.69,39.28,25.7 M38.57,23.2c0-0.14-0.03-0.26-0.09-0.35c-0.06-0.1-0.17-0.17-0.31-0.21
	c-0.05-0.01-0.1-0.02-0.16-0.03c-0.06-0.01-0.13-0.01-0.23-0.01h-0.4v1.2h0.46c0.12,0,0.23-0.02,0.32-0.05
	c0.09-0.03,0.17-0.07,0.23-0.13c0.06-0.05,0.1-0.12,0.13-0.19C38.56,23.37,38.57,23.29,38.57,23.2"/>
<path class="st0" d="M42.09,22.42c0,0.04,0,0.07-0.01,0.09c0,0.03-0.01,0.05-0.02,0.06c-0.01,0.02-0.02,0.03-0.03,0.03
	c-0.01,0.01-0.03,0.01-0.04,0.01h-1v3.09c0,0.01,0,0.03-0.01,0.04c-0.01,0.01-0.02,0.02-0.04,0.03c-0.02,0.01-0.04,0.01-0.07,0.02
	c-0.03,0-0.07,0.01-0.11,0.01c-0.04,0-0.08,0-0.11-0.01c-0.03,0-0.06-0.01-0.07-0.02c-0.02-0.01-0.03-0.01-0.04-0.03
	c-0.01-0.01-0.01-0.02-0.01-0.04v-3.09h-1c-0.01,0-0.03,0-0.04-0.01c-0.01-0.01-0.02-0.02-0.03-0.03c-0.01-0.02-0.01-0.04-0.02-0.06
	c0-0.03-0.01-0.06-0.01-0.09c0-0.03,0-0.07,0.01-0.09c0-0.03,0.01-0.05,0.02-0.06c0.01-0.02,0.02-0.03,0.03-0.04
	c0.01-0.01,0.03-0.01,0.04-0.01H42c0.01,0,0.03,0,0.04,0.01c0.01,0.01,0.02,0.02,0.03,0.04c0.01,0.02,0.01,0.04,0.02,0.06
	C42.09,22.35,42.09,22.38,42.09,22.42"/>
<path class="st0" d="M44.43,24.78c0,0.17-0.03,0.32-0.09,0.45c-0.06,0.13-0.15,0.24-0.26,0.33c-0.11,0.09-0.24,0.16-0.39,0.21
	c-0.15,0.05-0.31,0.07-0.48,0.07c-0.12,0-0.23-0.01-0.33-0.03c-0.1-0.02-0.19-0.04-0.27-0.07c-0.08-0.03-0.15-0.06-0.2-0.09
	c-0.05-0.03-0.09-0.06-0.11-0.08c-0.02-0.02-0.04-0.05-0.05-0.08c-0.01-0.03-0.02-0.08-0.02-0.14c0-0.04,0-0.07,0.01-0.1
	c0-0.03,0.01-0.05,0.02-0.06c0.01-0.02,0.02-0.03,0.03-0.03c0.01-0.01,0.02-0.01,0.04-0.01c0.03,0,0.06,0.02,0.11,0.05
	c0.05,0.03,0.11,0.07,0.18,0.1c0.07,0.04,0.16,0.07,0.27,0.1c0.1,0.03,0.22,0.05,0.36,0.05c0.1,0,0.2-0.01,0.28-0.04
	c0.09-0.03,0.16-0.07,0.22-0.12c0.06-0.05,0.11-0.11,0.14-0.19c0.03-0.07,0.05-0.16,0.05-0.25c0-0.1-0.02-0.19-0.07-0.26
	c-0.05-0.07-0.11-0.13-0.18-0.19c-0.08-0.05-0.16-0.1-0.26-0.15c-0.1-0.05-0.19-0.09-0.3-0.14c-0.1-0.05-0.2-0.1-0.29-0.16
	c-0.1-0.06-0.18-0.12-0.26-0.2c-0.08-0.08-0.14-0.17-0.18-0.27c-0.05-0.1-0.07-0.23-0.07-0.37c0-0.15,0.03-0.28,0.08-0.4
	c0.05-0.12,0.13-0.21,0.23-0.29c0.1-0.08,0.21-0.14,0.34-0.18c0.13-0.04,0.28-0.06,0.43-0.06c0.08,0,0.16,0.01,0.24,0.02
	c0.08,0.01,0.15,0.03,0.23,0.05c0.07,0.02,0.13,0.05,0.19,0.08c0.06,0.03,0.09,0.05,0.11,0.07c0.02,0.02,0.03,0.03,0.03,0.04
	c0.01,0.01,0.01,0.02,0.01,0.04c0,0.02,0.01,0.03,0.01,0.06c0,0.02,0,0.05,0,0.09c0,0.03,0,0.06,0,0.09c0,0.03-0.01,0.05-0.01,0.06
	c-0.01,0.02-0.01,0.03-0.02,0.04c-0.01,0.01-0.02,0.01-0.03,0.01c-0.02,0-0.05-0.01-0.09-0.04c-0.04-0.03-0.1-0.05-0.16-0.09
	c-0.06-0.03-0.14-0.06-0.22-0.09c-0.09-0.03-0.18-0.04-0.29-0.04c-0.1,0-0.19,0.01-0.26,0.04c-0.07,0.03-0.13,0.06-0.18,0.11
	c-0.05,0.04-0.08,0.1-0.11,0.16c-0.02,0.06-0.04,0.12-0.04,0.19c0,0.1,0.02,0.18,0.07,0.26c0.05,0.07,0.11,0.13,0.18,0.19
	c0.08,0.06,0.16,0.11,0.26,0.15c0.1,0.05,0.2,0.09,0.3,0.14c0.1,0.05,0.2,0.1,0.3,0.15c0.1,0.06,0.18,0.12,0.26,0.2
	c0.08,0.08,0.14,0.17,0.18,0.27C44.41,24.51,44.43,24.64,44.43,24.78"/>
<path class="st0" d="M46.74,25.7c0,0.01,0,0.03-0.01,0.04c-0.01,0.01-0.02,0.02-0.04,0.03c-0.02,0.01-0.04,0.01-0.07,0.02
	c-0.03,0-0.07,0.01-0.11,0.01c-0.04,0-0.08,0-0.11-0.01c-0.03,0-0.06-0.01-0.07-0.02c-0.02-0.01-0.03-0.01-0.04-0.03
	c-0.01-0.01-0.01-0.02-0.01-0.04v-3.42c0-0.02,0-0.03,0.01-0.04c0.01-0.01,0.02-0.02,0.04-0.03c0.02-0.01,0.04-0.01,0.07-0.02
	c0.03,0,0.07-0.01,0.11-0.01c0.05,0,0.08,0,0.11,0.01c0.03,0,0.05,0.01,0.07,0.02c0.02,0.01,0.03,0.02,0.04,0.03
	c0.01,0.01,0.01,0.02,0.01,0.04V25.7z"/>
<path class="st0" d="M50.32,25.58c0,0.04-0.01,0.07-0.02,0.09c-0.01,0.03-0.03,0.05-0.05,0.06c-0.02,0.02-0.04,0.03-0.07,0.04
	c-0.02,0.01-0.05,0.01-0.07,0.01h-0.16c-0.05,0-0.09-0.01-0.13-0.02c-0.04-0.01-0.07-0.03-0.11-0.05c-0.03-0.03-0.07-0.06-0.1-0.11
	c-0.03-0.05-0.07-0.1-0.11-0.18l-1.09-2.02c-0.06-0.1-0.11-0.21-0.17-0.33c-0.06-0.11-0.11-0.23-0.16-0.33h-0.01
	c0,0.13,0.01,0.27,0.01,0.4c0,0.14,0,0.27,0,0.41v2.15c0,0.01,0,0.03-0.01,0.04c-0.01,0.01-0.02,0.02-0.04,0.03
	c-0.02,0.01-0.04,0.01-0.07,0.02c-0.03,0-0.07,0.01-0.11,0.01c-0.05,0-0.08,0-0.11-0.01c-0.03,0-0.05-0.01-0.07-0.02
	c-0.02-0.01-0.03-0.02-0.04-0.03c-0.01-0.01-0.01-0.02-0.01-0.04v-3.28c0-0.07,0.02-0.13,0.06-0.16c0.04-0.03,0.09-0.05,0.14-0.05
	h0.23c0.05,0,0.1,0,0.14,0.01c0.04,0.01,0.07,0.02,0.1,0.05c0.03,0.02,0.06,0.05,0.09,0.09c0.03,0.04,0.06,0.08,0.09,0.14l0.83,1.56
	c0.05,0.1,0.1,0.19,0.15,0.28c0.05,0.09,0.09,0.18,0.14,0.27c0.04,0.09,0.09,0.17,0.13,0.26c0.04,0.09,0.09,0.17,0.13,0.26h0
	c0-0.14-0.01-0.3-0.01-0.45c0-0.16,0-0.31,0-0.45V22.3c0-0.01,0-0.03,0.01-0.04c0.01-0.01,0.02-0.02,0.04-0.03
	c0.02-0.01,0.04-0.01,0.07-0.02c0.03,0,0.07-0.01,0.12-0.01c0.04,0,0.08,0,0.11,0.01c0.03,0,0.05,0.01,0.07,0.02
	c0.02,0.01,0.03,0.02,0.04,0.03c0.01,0.01,0.01,0.02,0.01,0.04V25.58z"/>
<path class="st0" d="M55.1,22.7c0,0.03,0,0.07-0.01,0.09c0,0.03-0.01,0.05-0.02,0.07c-0.01,0.02-0.02,0.03-0.03,0.04
	c-0.01,0.01-0.02,0.01-0.04,0.01c-0.02,0-0.06-0.02-0.11-0.05c-0.05-0.03-0.12-0.07-0.21-0.12c-0.09-0.04-0.19-0.08-0.31-0.12
	c-0.12-0.03-0.26-0.05-0.43-0.05c-0.2,0-0.37,0.04-0.53,0.11c-0.16,0.07-0.29,0.17-0.4,0.3c-0.11,0.13-0.19,0.28-0.25,0.45
	c-0.06,0.17-0.09,0.36-0.09,0.57c0,0.23,0.03,0.43,0.09,0.61c0.06,0.18,0.15,0.32,0.26,0.45c0.11,0.12,0.25,0.21,0.4,0.28
	c0.15,0.06,0.33,0.09,0.51,0.09c0.11,0,0.22-0.01,0.33-0.04c0.11-0.03,0.22-0.07,0.32-0.12v-1.04H53.8c-0.03,0-0.05-0.02-0.07-0.05
	c-0.02-0.03-0.02-0.08-0.02-0.15c0-0.03,0-0.06,0.01-0.09c0-0.02,0.01-0.04,0.02-0.06c0.01-0.02,0.02-0.03,0.03-0.03
	c0.01-0.01,0.02-0.01,0.04-0.01h1.13c0.02,0,0.04,0,0.06,0.01c0.02,0.01,0.04,0.02,0.06,0.03c0.02,0.01,0.03,0.03,0.04,0.06
	c0.01,0.03,0.01,0.05,0.01,0.09v1.36c0,0.05-0.01,0.09-0.02,0.12c-0.02,0.04-0.05,0.07-0.1,0.09c-0.05,0.03-0.12,0.06-0.21,0.09
	c-0.08,0.03-0.17,0.06-0.26,0.08c-0.09,0.02-0.18,0.04-0.27,0.05c-0.09,0.01-0.18,0.02-0.27,0.02c-0.28,0-0.52-0.04-0.74-0.13
	c-0.22-0.08-0.4-0.21-0.55-0.36c-0.15-0.16-0.26-0.35-0.34-0.57c-0.08-0.22-0.12-0.47-0.12-0.74c0-0.28,0.04-0.54,0.13-0.77
	c0.09-0.23,0.21-0.42,0.36-0.59c0.16-0.16,0.34-0.29,0.56-0.38c0.22-0.09,0.46-0.13,0.72-0.13c0.14,0,0.26,0.01,0.38,0.04
	c0.12,0.02,0.23,0.05,0.32,0.08c0.09,0.03,0.17,0.07,0.23,0.1c0.06,0.04,0.11,0.07,0.13,0.09c0.02,0.02,0.04,0.05,0.05,0.08
	C55.1,22.6,55.1,22.64,55.1,22.7"/>
<path class="st0" d="M57.77,25.57c0,0.04,0,0.07-0.01,0.09c0,0.02-0.01,0.05-0.02,0.06c-0.01,0.02-0.02,0.03-0.03,0.04
	c-0.01,0.01-0.03,0.01-0.04,0.01H56.1c-0.04,0-0.08-0.01-0.12-0.04c-0.04-0.03-0.06-0.08-0.06-0.15v-3.3c0-0.01,0-0.03,0.01-0.04
	c0.01-0.01,0.02-0.02,0.04-0.03c0.02-0.01,0.04-0.01,0.07-0.02c0.03,0,0.07-0.01,0.11-0.01c0.05,0,0.08,0,0.11,0.01
	c0.03,0,0.05,0.01,0.07,0.02c0.02,0.01,0.03,0.02,0.04,0.03c0.01,0.01,0.01,0.02,0.01,0.04v3.08h1.28c0.02,0,0.03,0,0.04,0.01
	c0.01,0.01,0.02,0.02,0.03,0.04c0.01,0.02,0.01,0.04,0.02,0.06C57.77,25.5,57.77,25.53,57.77,25.57"/>
<path class="st0" d="M61.1,23.95c0,0.29-0.03,0.55-0.1,0.78c-0.07,0.23-0.17,0.43-0.3,0.59c-0.13,0.16-0.3,0.29-0.51,0.37
	c-0.2,0.09-0.44,0.13-0.71,0.13c-0.27,0-0.5-0.04-0.69-0.12c-0.2-0.08-0.36-0.2-0.48-0.35c-0.13-0.15-0.22-0.34-0.28-0.57
	c-0.06-0.23-0.09-0.48-0.09-0.78c0-0.28,0.03-0.54,0.1-0.76c0.07-0.23,0.17-0.42,0.31-0.58c0.14-0.16,0.31-0.28,0.51-0.37
	c0.2-0.09,0.44-0.13,0.71-0.13c0.26,0,0.49,0.04,0.69,0.12c0.19,0.08,0.36,0.19,0.49,0.35c0.13,0.15,0.23,0.34,0.29,0.56
	C61.07,23.41,61.1,23.67,61.1,23.95 M60.6,23.99c0-0.2-0.02-0.39-0.05-0.56c-0.04-0.17-0.1-0.32-0.18-0.45
	c-0.08-0.13-0.19-0.23-0.33-0.3c-0.14-0.07-0.31-0.11-0.52-0.11c-0.21,0-0.38,0.04-0.52,0.12c-0.14,0.08-0.25,0.18-0.34,0.31
	c-0.09,0.13-0.15,0.28-0.19,0.45c-0.04,0.17-0.06,0.35-0.06,0.54c0,0.21,0.02,0.4,0.05,0.58c0.03,0.18,0.09,0.33,0.18,0.46
	c0.08,0.13,0.19,0.23,0.33,0.3c0.14,0.07,0.31,0.11,0.52,0.11c0.21,0,0.38-0.04,0.52-0.12c0.14-0.08,0.25-0.18,0.34-0.31
	c0.09-0.13,0.15-0.28,0.18-0.46C60.58,24.36,60.6,24.18,60.6,23.99"/>
<path class="st0" d="M64.14,24.76c0,0.11-0.01,0.22-0.04,0.31c-0.03,0.09-0.07,0.18-0.12,0.25c-0.05,0.08-0.11,0.14-0.19,0.2
	c-0.07,0.06-0.15,0.1-0.24,0.14c-0.09,0.04-0.19,0.07-0.29,0.09c-0.1,0.02-0.22,0.03-0.36,0.03h-0.93c-0.04,0-0.08-0.01-0.12-0.04
	c-0.04-0.03-0.06-0.08-0.06-0.15v-3.17c0-0.07,0.02-0.12,0.06-0.15c0.04-0.03,0.08-0.04,0.12-0.04h0.81c0.21,0,0.39,0.02,0.52,0.06
	c0.14,0.04,0.25,0.1,0.34,0.18c0.09,0.08,0.16,0.17,0.21,0.28c0.05,0.11,0.07,0.24,0.07,0.38c0,0.08-0.01,0.16-0.03,0.24
	c-0.02,0.08-0.05,0.15-0.09,0.21c-0.04,0.07-0.09,0.12-0.15,0.17c-0.06,0.05-0.13,0.09-0.21,0.13c0.1,0.02,0.19,0.05,0.27,0.1
	c0.08,0.05,0.16,0.11,0.22,0.19c0.06,0.08,0.11,0.16,0.15,0.26C64.12,24.52,64.14,24.63,64.14,24.76 M63.42,23.16
	c0-0.09-0.01-0.16-0.04-0.23c-0.02-0.07-0.06-0.13-0.11-0.18c-0.05-0.05-0.12-0.09-0.2-0.11c-0.08-0.03-0.19-0.04-0.33-0.04h-0.49
	v1.15h0.54c0.12,0,0.22-0.02,0.3-0.05c0.07-0.03,0.14-0.08,0.19-0.13c0.05-0.05,0.09-0.12,0.11-0.19
	C63.41,23.31,63.42,23.24,63.42,23.16 M63.64,24.78c0-0.11-0.02-0.2-0.05-0.28c-0.03-0.08-0.08-0.15-0.15-0.2
	c-0.06-0.05-0.15-0.1-0.24-0.13c-0.1-0.03-0.22-0.04-0.37-0.04h-0.57v1.25h0.69c0.11,0,0.2-0.01,0.28-0.04
	c0.08-0.03,0.15-0.06,0.21-0.11c0.06-0.05,0.11-0.11,0.14-0.19C63.62,24.97,63.64,24.88,63.64,24.78"/>
<path class="st0" d="M67.41,25.61c0.01,0.04,0.02,0.07,0.02,0.1c0,0.02-0.01,0.04-0.02,0.06c-0.01,0.01-0.04,0.02-0.07,0.02
	c-0.03,0-0.08,0.01-0.14,0.01c-0.06,0-0.1,0-0.14,0c-0.03,0-0.06-0.01-0.08-0.01c-0.02-0.01-0.03-0.02-0.04-0.03
	c-0.01-0.01-0.02-0.02-0.02-0.04l-0.31-0.87h-1.48l-0.29,0.86c-0.01,0.02-0.01,0.03-0.02,0.04c-0.01,0.01-0.02,0.02-0.04,0.03
	c-0.02,0.01-0.04,0.01-0.07,0.02c-0.03,0-0.07,0.01-0.13,0.01c-0.05,0-0.1,0-0.13-0.01c-0.03,0-0.06-0.01-0.07-0.03
	c-0.01-0.01-0.02-0.03-0.02-0.06c0-0.02,0.01-0.06,0.02-0.1l1.19-3.31c0.01-0.02,0.02-0.04,0.03-0.05c0.01-0.01,0.03-0.02,0.05-0.03
	c0.02-0.01,0.05-0.01,0.09-0.02c0.04,0,0.08,0,0.14,0c0.06,0,0.11,0,0.15,0c0.04,0,0.07,0.01,0.09,0.02
	c0.02,0.01,0.04,0.02,0.05,0.03c0.01,0.01,0.02,0.03,0.03,0.05L67.41,25.61z M65.88,22.69L65.88,22.69l-0.62,1.77h1.24L65.88,22.69z
	"/>
<path class="st0" d="M69.79,25.57c0,0.04,0,0.07-0.01,0.09c0,0.02-0.01,0.05-0.02,0.06c-0.01,0.02-0.02,0.03-0.03,0.04
	c-0.01,0.01-0.03,0.01-0.04,0.01h-1.57c-0.04,0-0.08-0.01-0.12-0.04c-0.04-0.03-0.06-0.08-0.06-0.15v-3.3c0-0.01,0-0.03,0.01-0.04
	c0.01-0.01,0.02-0.02,0.04-0.03c0.02-0.01,0.04-0.01,0.07-0.02c0.03,0,0.07-0.01,0.11-0.01c0.05,0,0.08,0,0.11,0.01
	c0.03,0,0.05,0.01,0.07,0.02c0.02,0.01,0.03,0.02,0.04,0.03c0.01,0.01,0.01,0.02,0.01,0.04v3.08h1.28c0.02,0,0.03,0,0.04,0.01
	c0.01,0.01,0.02,0.02,0.03,0.04c0.01,0.02,0.01,0.04,0.02,0.06C69.79,25.5,69.79,25.53,69.79,25.57"/>
<path class="st0" d="M71.95,25.7c0,0.01,0,0.03-0.01,0.04c-0.01,0.01-0.02,0.02-0.04,0.03c-0.02,0.01-0.04,0.01-0.07,0.02
	c-0.03,0-0.07,0.01-0.11,0.01c-0.04,0-0.08,0-0.11-0.01c-0.03,0-0.06-0.01-0.07-0.02c-0.02-0.01-0.03-0.01-0.04-0.03
	c-0.01-0.01-0.01-0.02-0.01-0.04v-3.42c0-0.02,0-0.03,0.01-0.04c0.01-0.01,0.02-0.02,0.04-0.03c0.02-0.01,0.04-0.01,0.07-0.02
	c0.03,0,0.07-0.01,0.11-0.01c0.05,0,0.08,0,0.11,0.01c0.03,0,0.05,0.01,0.07,0.02c0.02,0.01,0.03,0.02,0.04,0.03
	c0.01,0.01,0.01,0.02,0.01,0.04V25.7z"/>
<path class="st0" d="M75.53,25.58c0,0.04-0.01,0.07-0.02,0.09c-0.01,0.03-0.03,0.05-0.05,0.06c-0.02,0.02-0.04,0.03-0.07,0.04
	c-0.02,0.01-0.05,0.01-0.07,0.01h-0.16c-0.05,0-0.09-0.01-0.13-0.02c-0.04-0.01-0.07-0.03-0.11-0.05c-0.03-0.03-0.07-0.06-0.1-0.11
	c-0.03-0.05-0.07-0.1-0.11-0.18l-1.09-2.02c-0.06-0.1-0.11-0.21-0.17-0.33c-0.06-0.11-0.11-0.23-0.16-0.33H73.3
	c0,0.13,0.01,0.27,0.01,0.4c0,0.14,0,0.27,0,0.41v2.15c0,0.01,0,0.03-0.01,0.04c-0.01,0.01-0.02,0.02-0.04,0.03
	c-0.02,0.01-0.04,0.01-0.07,0.02c-0.03,0-0.07,0.01-0.11,0.01c-0.05,0-0.08,0-0.11-0.01c-0.03,0-0.05-0.01-0.07-0.02
	c-0.02-0.01-0.03-0.02-0.04-0.03c-0.01-0.01-0.01-0.02-0.01-0.04v-3.28c0-0.07,0.02-0.13,0.06-0.16c0.04-0.03,0.09-0.05,0.14-0.05
	h0.23c0.05,0,0.1,0,0.14,0.01c0.04,0.01,0.07,0.02,0.1,0.05c0.03,0.02,0.06,0.05,0.09,0.09c0.03,0.04,0.06,0.08,0.09,0.14l0.83,1.56
	c0.05,0.1,0.1,0.19,0.15,0.28c0.05,0.09,0.09,0.18,0.14,0.27c0.04,0.09,0.09,0.17,0.13,0.26c0.04,0.09,0.09,0.17,0.13,0.26h0
	c0-0.14-0.01-0.3-0.01-0.45c0-0.16,0-0.31,0-0.45V22.3c0-0.01,0-0.03,0.01-0.04c0.01-0.01,0.02-0.02,0.04-0.03
	c0.02-0.01,0.04-0.01,0.07-0.02c0.03,0,0.07-0.01,0.12-0.01c0.04,0,0.08,0,0.11,0.01c0.03,0,0.05,0.01,0.07,0.02
	c0.02,0.01,0.03,0.02,0.04,0.03c0.01,0.01,0.01,0.02,0.01,0.04V25.58z"/>
<path class="st0" d="M77.86,25.69c-0.01,0.02-0.02,0.04-0.03,0.05c-0.01,0.01-0.03,0.02-0.05,0.03c-0.02,0.01-0.05,0.01-0.09,0.01
	c-0.04,0-0.08,0-0.13,0c-0.04,0-0.08,0-0.11,0c-0.03,0-0.06,0-0.08-0.01c-0.02,0-0.04-0.01-0.06-0.01c-0.02,0-0.03-0.01-0.04-0.02
	c-0.01-0.01-0.02-0.02-0.03-0.03c-0.01-0.01-0.01-0.02-0.02-0.04l-1.16-3.31c-0.01-0.04-0.02-0.07-0.02-0.1
	c0-0.02,0.01-0.04,0.02-0.06c0.02-0.01,0.04-0.02,0.08-0.02c0.04,0,0.09-0.01,0.15-0.01c0.05,0,0.09,0,0.12,0
	c0.03,0,0.05,0.01,0.07,0.02c0.02,0.01,0.03,0.02,0.04,0.03c0.01,0.01,0.02,0.03,0.02,0.05l1.02,3h0l0.99-2.99
	c0.01-0.02,0.01-0.04,0.02-0.05c0.01-0.01,0.02-0.02,0.04-0.03c0.02-0.01,0.04-0.01,0.08-0.02c0.03,0,0.08,0,0.13,0
	c0.06,0,0.1,0,0.13,0.01c0.03,0,0.06,0.01,0.07,0.03c0.01,0.01,0.02,0.03,0.01,0.06c0,0.02-0.01,0.06-0.03,0.1L77.86,25.69z"/>
<path class="st0" d="M81.54,25.58c0,0.03,0,0.06-0.01,0.09c0,0.02-0.01,0.05-0.02,0.06c-0.01,0.02-0.02,0.03-0.03,0.04
	c-0.01,0.01-0.03,0.01-0.04,0.01h-1.71c-0.04,0-0.08-0.01-0.12-0.04c-0.04-0.03-0.06-0.08-0.06-0.15v-3.17
	c0-0.07,0.02-0.12,0.06-0.15c0.04-0.03,0.08-0.04,0.12-0.04h1.69c0.01,0,0.03,0,0.04,0.01c0.01,0.01,0.02,0.02,0.03,0.04
	c0.01,0.02,0.01,0.04,0.02,0.06c0,0.02,0.01,0.06,0.01,0.09c0,0.03,0,0.06-0.01,0.09c0,0.02-0.01,0.04-0.02,0.06
	c-0.01,0.02-0.02,0.03-0.03,0.03c-0.01,0.01-0.03,0.01-0.04,0.01h-1.39v1.12h1.19c0.01,0,0.03,0,0.04,0.01
	c0.01,0.01,0.02,0.02,0.03,0.03c0.01,0.01,0.01,0.04,0.02,0.06c0,0.03,0.01,0.06,0.01,0.09c0,0.03,0,0.06-0.01,0.09
	c0,0.02-0.01,0.04-0.02,0.06c-0.01,0.01-0.02,0.03-0.03,0.03c-0.01,0.01-0.03,0.01-0.04,0.01h-1.19v1.27h1.41
	c0.01,0,0.03,0,0.04,0.01c0.01,0.01,0.02,0.02,0.03,0.03c0.01,0.02,0.02,0.04,0.02,0.06C81.54,25.51,81.54,25.54,81.54,25.58"/>
<path class="st0" d="M84.11,24.78c0,0.17-0.03,0.32-0.09,0.45c-0.06,0.13-0.15,0.24-0.26,0.33c-0.11,0.09-0.24,0.16-0.39,0.21
	c-0.15,0.05-0.31,0.07-0.48,0.07c-0.12,0-0.23-0.01-0.33-0.03c-0.1-0.02-0.19-0.04-0.27-0.07c-0.08-0.03-0.15-0.06-0.2-0.09
	c-0.05-0.03-0.09-0.06-0.11-0.08c-0.02-0.02-0.04-0.05-0.05-0.08c-0.01-0.03-0.01-0.08-0.01-0.14c0-0.04,0-0.07,0.01-0.1
	c0-0.03,0.01-0.05,0.02-0.06c0.01-0.02,0.02-0.03,0.03-0.03c0.01-0.01,0.02-0.01,0.04-0.01c0.03,0,0.06,0.02,0.11,0.05
	c0.05,0.03,0.11,0.07,0.18,0.1c0.07,0.04,0.16,0.07,0.27,0.1c0.1,0.03,0.22,0.05,0.36,0.05c0.1,0,0.2-0.01,0.28-0.04
	c0.09-0.03,0.16-0.07,0.22-0.12c0.06-0.05,0.11-0.11,0.14-0.19c0.03-0.07,0.05-0.16,0.05-0.25c0-0.1-0.02-0.19-0.07-0.26
	c-0.05-0.07-0.11-0.13-0.18-0.19c-0.08-0.05-0.16-0.1-0.26-0.15c-0.1-0.05-0.19-0.09-0.3-0.14c-0.1-0.05-0.2-0.1-0.29-0.16
	c-0.1-0.06-0.18-0.12-0.26-0.2c-0.08-0.08-0.14-0.17-0.18-0.27c-0.05-0.1-0.07-0.23-0.07-0.37c0-0.15,0.03-0.28,0.08-0.4
	c0.05-0.12,0.13-0.21,0.23-0.29c0.1-0.08,0.21-0.14,0.34-0.18c0.13-0.04,0.28-0.06,0.43-0.06c0.08,0,0.16,0.01,0.24,0.02
	c0.08,0.01,0.15,0.03,0.23,0.05c0.07,0.02,0.13,0.05,0.19,0.08c0.06,0.03,0.09,0.05,0.11,0.07c0.02,0.02,0.03,0.03,0.03,0.04
	c0.01,0.01,0.01,0.02,0.01,0.04c0,0.02,0.01,0.03,0.01,0.06c0,0.02,0,0.05,0,0.09c0,0.03,0,0.06,0,0.09c0,0.03-0.01,0.05-0.01,0.06
	c-0.01,0.02-0.01,0.03-0.02,0.04c-0.01,0.01-0.02,0.01-0.03,0.01c-0.02,0-0.05-0.01-0.1-0.04c-0.04-0.03-0.1-0.05-0.16-0.09
	c-0.06-0.03-0.14-0.06-0.22-0.09c-0.09-0.03-0.18-0.04-0.29-0.04c-0.1,0-0.19,0.01-0.26,0.04c-0.07,0.03-0.13,0.06-0.18,0.11
	c-0.05,0.04-0.08,0.1-0.11,0.16c-0.02,0.06-0.04,0.12-0.04,0.19c0,0.1,0.02,0.18,0.07,0.26c0.05,0.07,0.11,0.13,0.18,0.19
	c0.08,0.06,0.16,0.11,0.26,0.15c0.1,0.05,0.2,0.09,0.3,0.14c0.1,0.05,0.2,0.1,0.3,0.15c0.1,0.06,0.18,0.12,0.26,0.2
	c0.08,0.08,0.14,0.17,0.18,0.27C84.09,24.51,84.11,24.64,84.11,24.78"/>
<path class="st0" d="M86.92,22.42c0,0.04,0,0.07-0.01,0.09c0,0.03-0.01,0.05-0.02,0.06c-0.01,0.02-0.02,0.03-0.03,0.03
	c-0.01,0.01-0.03,0.01-0.04,0.01h-1v3.09c0,0.01,0,0.03-0.01,0.04c-0.01,0.01-0.02,0.02-0.04,0.03c-0.02,0.01-0.04,0.01-0.07,0.02
	c-0.03,0-0.07,0.01-0.11,0.01c-0.04,0-0.08,0-0.11-0.01c-0.03,0-0.06-0.01-0.07-0.02c-0.02-0.01-0.03-0.01-0.04-0.03
	c-0.01-0.01-0.01-0.02-0.01-0.04v-3.09h-1c-0.01,0-0.03,0-0.04-0.01c-0.01-0.01-0.02-0.02-0.03-0.03c-0.01-0.02-0.01-0.04-0.02-0.06
	c0-0.03-0.01-0.06-0.01-0.09c0-0.03,0-0.07,0.01-0.09c0-0.03,0.01-0.05,0.02-0.06c0.01-0.02,0.02-0.03,0.03-0.04
	c0.01-0.01,0.03-0.01,0.04-0.01h2.48c0.01,0,0.03,0,0.04,0.01c0.01,0.01,0.02,0.02,0.03,0.04c0.01,0.02,0.01,0.04,0.02,0.06
	C86.92,22.35,86.92,22.38,86.92,22.42"/>
<path class="st0" d="M87.86,25.7c0,0.01,0,0.03-0.01,0.04c-0.01,0.01-0.02,0.02-0.04,0.03c-0.02,0.01-0.04,0.01-0.07,0.02
	c-0.03,0-0.07,0.01-0.11,0.01c-0.04,0-0.08,0-0.11-0.01c-0.03,0-0.06-0.01-0.07-0.02c-0.02-0.01-0.03-0.01-0.04-0.03
	c-0.01-0.01-0.01-0.02-0.01-0.04v-3.42c0-0.02,0-0.03,0.01-0.04c0.01-0.01,0.02-0.02,0.04-0.03c0.02-0.01,0.04-0.01,0.07-0.02
	c0.03,0,0.07-0.01,0.11-0.01c0.05,0,0.08,0,0.11,0.01c0.03,0,0.05,0.01,0.07,0.02c0.02,0.01,0.03,0.02,0.04,0.03
	c0.01,0.01,0.01,0.02,0.01,0.04V25.7z"/>
<path class="st0" d="M91.44,25.58c0,0.04-0.01,0.07-0.02,0.09c-0.01,0.03-0.03,0.05-0.05,0.06c-0.02,0.02-0.04,0.03-0.07,0.04
	c-0.02,0.01-0.05,0.01-0.07,0.01h-0.16c-0.05,0-0.09-0.01-0.13-0.02c-0.04-0.01-0.07-0.03-0.11-0.05c-0.03-0.03-0.07-0.06-0.1-0.11
	c-0.03-0.05-0.07-0.1-0.11-0.18l-1.09-2.02c-0.06-0.1-0.11-0.21-0.17-0.33c-0.06-0.11-0.11-0.23-0.16-0.33h-0.01
	c0,0.13,0.01,0.27,0.01,0.4c0,0.14,0,0.27,0,0.41v2.15c0,0.01,0,0.03-0.01,0.04c-0.01,0.01-0.02,0.02-0.04,0.03
	c-0.02,0.01-0.04,0.01-0.07,0.02c-0.03,0-0.07,0.01-0.11,0.01c-0.05,0-0.08,0-0.11-0.01c-0.03,0-0.05-0.01-0.07-0.02
	c-0.02-0.01-0.03-0.02-0.04-0.03c-0.01-0.01-0.01-0.02-0.01-0.04v-3.28c0-0.07,0.02-0.13,0.06-0.16c0.04-0.03,0.09-0.05,0.14-0.05
	h0.23c0.05,0,0.1,0,0.14,0.01c0.04,0.01,0.07,0.02,0.1,0.05c0.03,0.02,0.06,0.05,0.09,0.09c0.03,0.04,0.06,0.08,0.09,0.14l0.83,1.56
	c0.05,0.1,0.1,0.19,0.15,0.28c0.05,0.09,0.09,0.18,0.14,0.27c0.04,0.09,0.09,0.17,0.13,0.26c0.04,0.09,0.09,0.17,0.13,0.26h0
	c0-0.14-0.01-0.3-0.01-0.45c0-0.16,0-0.31,0-0.45V22.3c0-0.01,0-0.03,0.01-0.04c0.01-0.01,0.02-0.02,0.04-0.03
	c0.02-0.01,0.04-0.01,0.07-0.02c0.03,0,0.07-0.01,0.12-0.01c0.04,0,0.08,0,0.11,0.01c0.03,0,0.05,0.01,0.07,0.02
	c0.02,0.01,0.03,0.02,0.04,0.03c0.01,0.01,0.01,0.02,0.01,0.04V25.58z"/>
<path class="st0" d="M95,22.7c0,0.03,0,0.07-0.01,0.09c0,0.03-0.01,0.05-0.02,0.07c-0.01,0.02-0.02,0.03-0.03,0.04
	c-0.01,0.01-0.02,0.01-0.04,0.01c-0.02,0-0.06-0.02-0.11-0.05c-0.05-0.03-0.12-0.07-0.21-0.12c-0.09-0.04-0.19-0.08-0.31-0.12
	c-0.12-0.03-0.26-0.05-0.43-0.05c-0.2,0-0.37,0.04-0.53,0.11c-0.16,0.07-0.29,0.17-0.4,0.3c-0.11,0.13-0.19,0.28-0.25,0.45
	c-0.06,0.17-0.09,0.36-0.09,0.57c0,0.23,0.03,0.43,0.09,0.61c0.06,0.18,0.15,0.32,0.26,0.45c0.11,0.12,0.25,0.21,0.4,0.28
	c0.15,0.06,0.33,0.09,0.51,0.09c0.11,0,0.22-0.01,0.33-0.04c0.11-0.03,0.22-0.07,0.32-0.12v-1.04h-0.83c-0.03,0-0.05-0.02-0.07-0.05
	c-0.02-0.03-0.02-0.08-0.02-0.15c0-0.03,0-0.06,0.01-0.09c0-0.02,0.01-0.04,0.02-0.06c0.01-0.02,0.02-0.03,0.03-0.03
	c0.01-0.01,0.02-0.01,0.04-0.01h1.13c0.02,0,0.04,0,0.06,0.01c0.02,0.01,0.04,0.02,0.06,0.03c0.02,0.01,0.03,0.03,0.04,0.06
	c0.01,0.03,0.01,0.05,0.01,0.09v1.36c0,0.05-0.01,0.09-0.02,0.12c-0.02,0.04-0.05,0.07-0.1,0.09c-0.05,0.03-0.12,0.06-0.21,0.09
	c-0.08,0.03-0.17,0.06-0.26,0.08c-0.09,0.02-0.18,0.04-0.27,0.05c-0.09,0.01-0.18,0.02-0.27,0.02c-0.28,0-0.52-0.04-0.74-0.13
	c-0.22-0.08-0.4-0.21-0.55-0.36c-0.15-0.16-0.26-0.35-0.34-0.57c-0.08-0.22-0.12-0.47-0.12-0.74c0-0.28,0.04-0.54,0.13-0.77
	c0.09-0.23,0.21-0.42,0.36-0.59c0.16-0.16,0.34-0.29,0.56-0.38c0.22-0.09,0.46-0.13,0.72-0.13c0.14,0,0.26,0.01,0.38,0.04
	c0.12,0.02,0.23,0.05,0.32,0.08c0.09,0.03,0.17,0.07,0.23,0.1c0.06,0.04,0.11,0.07,0.13,0.09c0.02,0.02,0.04,0.05,0.05,0.08
	C95,22.6,95,22.64,95,22.7"/>
<g>
	<path class="st0" d="M11.56,5.94C5.18,5.94,0,11.12,0,17.5c0,6.38,5.18,11.56,11.56,11.56c6.38,0,11.56-5.18,11.56-11.56
		C23.12,11.12,17.94,5.94,11.56,5.94z M11.56,27.81c-5.68,0-10.31-4.62-10.31-10.31c0-5.68,4.62-10.31,10.31-10.31
		c5.68,0,10.31,4.62,10.31,10.31C21.87,23.18,17.24,27.81,11.56,27.81z"/>
	<path class="st0" d="M11.56,7.51c-5.51,0-9.99,4.48-9.99,9.99c0,5.51,4.48,9.98,9.99,9.98c5.51,0,9.99-4.48,9.99-9.98
		C21.55,11.99,17.07,7.51,11.56,7.51z M14.56,21.71l-3-3.21L8.54,21.7l0.63-4.35L4.8,16.98l3.79-2.21l-2.44-3.65l4.1,1.59l1.33-4.19
		l1.31,4.19l4.1-1.57l-2.46,3.64l3.78,2.23l-4.38,0.35L14.56,21.71z"/>
</g>
</svg>
