<?xml version="1.0" encoding="UTF-8" standalone="no"?>
<!-- Created with Inkscape (http://www.inkscape.org/) -->

<svg
   xmlns:dc="http://purl.org/dc/elements/1.1/"
   xmlns:cc="http://creativecommons.org/ns#"
   xmlns:rdf="http://www.w3.org/1999/02/22-rdf-syntax-ns#"
   xmlns:svg="http://www.w3.org/2000/svg"
   xmlns="http://www.w3.org/2000/svg"
   xmlns:sodipodi="http://sodipodi.sourceforge.net/DTD/sodipodi-0.dtd"
   xmlns:inkscape="http://www.inkscape.org/namespaces/inkscape"
   width="1029.2"
   height="566.20001"
   viewBox="0 0 272.30915 149.80708"
   version="1.1"
   id="svg4470"
   inkscape:version="0.92.0 r15299"
   sodipodi:docname="mirvac.svg">
  <defs
     id="defs4464">
	
	

		
		
		
		
		
		
		
		
		
		
	
			
		</defs>
  <sodipodi:namedview
     id="base"
     pagecolor="#ffffff"
     bordercolor="#666666"
     borderopacity="1.0"
     inkscape:pageopacity="0.0"
     inkscape:pageshadow="2"
     inkscape:zoom="0.78152408"
     inkscape:cx="513.10001"
     inkscape:cy="281.6"
     inkscape:document-units="mm"
     inkscape:current-layer="layer1"
     showgrid="false"
     fit-margin-top="0"
     fit-margin-left="0"
     fit-margin-right="0"
     fit-margin-bottom="0"
     units="px"
     inkscape:window-width="1280"
     inkscape:window-height="744"
     inkscape:window-x="-4"
     inkscape:window-y="-4"
     inkscape:window-maximized="1" />
  <metadata
     id="metadata4467">
    <rdf:RDF>
      <cc:Work
         rdf:about="">
        <dc:format>image/svg+xml</dc:format>
        <dc:type
           rdf:resource="http://purl.org/dc/dcmitype/StillImage" />
        <dc:title></dc:title>
      </cc:Work>
    </rdf:RDF>
  </metadata>
  <g
     inkscape:label="Layer 1"
     inkscape:groupmode="layer"
     id="layer1"
     transform="translate(348.93628,-183.14603)">
    <g
       id="g4555"
       transform="translate(0.39686873,-0.39685734)">
      <polygon
         transform="matrix(0.26458333,0,0,0.26458333,-371.90211,124.9906)"
         style="fill:#343741"
         class="st0"
         points="726,338.4 726,554.7 543.8,440.6 543.8,222.8 "
         id="polygon4474" />
      <polygon
         transform="matrix(0.26458333,0,0,0.26458333,-371.90211,124.9906)"
         style="fill:#343741"
         class="st0"
         points="737.3,338.4 737.3,554.7 919.5,440.6 919.5,222.8 "
         id="polygon4476" />
      <polygon
         transform="matrix(0.26458333,0,0,0.26458333,-371.90211,124.9906)"
         style="fill:#343741"
         class="st0"
         points="1113,338.4 1113,554.7 930.8,440.6 930.8,222.8 "
         id="polygon4478" />
      <path
         style="fill:#343741;stroke-width:0.26458332"
         inkscape:connector-curvature="0"
         class="st0"
         d="m -274.48253,331.57726 h -4.07458 c -0.71438,0 -1.21708,-0.55562 -1.21708,-1.37583 v -44.37062 c 0,-0.82021 0.44979,-1.0848 1.21708,-1.37584 l 4.07458,-1.37583 c 0.635,-0.21167 1.21709,0.55562 1.21709,1.37583 v 45.74646 c 0,0.82021 -0.47625,1.37583 -1.21709,1.37583 z"
         id="path4480" />
      <path
         style="fill:#343741;stroke-width:0.26458332"
         inkscape:connector-curvature="0"
         class="st0"
         d="m -242.09753,288.79414 c -5.37104,0 -9.8425,0.47625 -14.23458,1.905 v 39.50229 c 0,0.89958 -0.58208,1.37583 -1.16417,1.37583 0,0 -3.94229,0 -4.1275,0 -0.66146,0 -1.21708,-0.47625 -1.21708,-1.37583 v -38.1 c 0,-4.02167 0.74083,-5.21229 3.4925,-6.6675 3.57187,-1.82562 10.90083,-3.01625 14.81667,-3.01625 h 2.03729 c 0.39687,0 1.13771,0.18521 1.13771,1.37583 v 3.91584 c 0,0.635 -0.15875,1.08479 -0.74084,1.08479 z"
         id="path4482" />
      <path
         style="fill:#343741;stroke-width:0.26458332"
         inkscape:connector-curvature="0"
         class="st0"
         d="m -161.24086,331.65664 c -2.35479,0.55562 -6.27063,1.27 -10.58334,1.27 -7.01145,0 -21.51062,-0.26458 -21.51062,-15.08125 0,-12.25021 6.0325,-12.88521 14.07583,-14.34042 l 18.33563,-2.8575 v -4.28625 c 0,-2.93687 -0.15875,-5.29166 -3.01625,-6.48229 -1.56104,-0.74083 -3.83646,-1.11125 -7.40834,-1.11125 -6.27062,0 -14.57854,1.74625 -17.91229,2.64583 -0.15875,0.0265 -0.34396,0.0794 -0.50271,0.0794 -0.3175,0 -0.71437,-0.21167 -0.8202,-0.74083 0,0 -0.60855,-3.28084 -0.74084,-4.04813 -0.10583,-0.55562 0.18521,-1.08479 0.82021,-1.34937 2.61938,-1.05834 12.46188,-2.83105 19.87021,-2.83105 5.76792,0 9.525,0.89959 11.87979,2.38125 4.15396,2.46063 4.31271,6.77334 4.31271,11.05959 v 26.22021 c 0.0265,6.45583 -1.19063,7.9375 -6.79979,9.47208 z m 0.3175,-25.21479 -17.83292,2.83104 c -3.91583,0.82021 -7.91104,1.00542 -7.91104,8.22854 0,9.15458 9.55146,9.78958 14.9225,9.78958 3.57187,0 7.40833,-0.55562 10.82146,-1.82562 z"
         id="path4484" />
      <path
         style="fill:#343741;stroke-width:0.26458332"
         inkscape:connector-curvature="0"
         class="st0"
         d="m -108.72107,329.67226 c 0,0.82021 -0.47625,1.05834 -0.76729,1.19063 -2.03729,1.00542 -14.02292,2.09021 -18.83834,2.09021 -15.21354,0 -19.20875,-8.04334 -19.20875,-25.13542 0,-17.17146 3.99521,-25.21479 19.20875,-25.21479 4.81542,0 15.63688,1.66687 17.70063,2.67229 0.23812,0.15875 0.87312,0.37042 0.76729,1.19063 -0.0529,0.37041 -0.60854,3.57187 -0.60854,3.57187 -0.15875,0.74083 -0.39688,1.27 -1.48167,0.97896 -1.71979,-0.52917 -11.7475,-2.46063 -16.06021,-2.46063 -9.76312,0 -12.85875,4.65667 -12.85875,19.20875 0,14.63146 3.09563,19.28813 12.85875,19.28813 4.31271,0 15.24,-1.19063 17.19792,-1.71979 0.74083,-0.21167 1.32292,-0.0794 1.48167,0.97896 0,-0.0265 0.60854,2.80458 0.60854,3.3602 z"
         id="path4486" />
      <path
         style="fill:#343741;stroke-width:0.26458332"
         inkscape:connector-curvature="0"
         class="st0"
         d="m -289.43149,297.76351 c 0,-9.76312 -4.3127,-15.16062 -13.99645,-15.16062 h -4.97417 c -4.92125,0 -8.49313,1.00542 -10.795,3.20146 -2.30188,-2.16959 -5.87375,-3.20146 -10.795,-3.20146 h -4.94771 c -9.68375,0 -13.99646,5.3975 -13.99646,15.16062 v 32.46438 c 0,0.82021 0.50271,1.37583 1.21709,1.37583 h 4.07458 c 0.74083,0 1.21708,-0.55562 1.21708,-1.37583 v -32.30563 c 0.15875,-5.52979 2.16959,-9.47208 7.64646,-9.47208 h 4.63021 c 5.68854,0 7.72583,2.09021 7.72583,8.12271 v 33.655 c 0,0.82021 0.50271,1.37583 1.21709,1.37583 h 4.07458 c 0.74083,0 1.21708,-0.55562 1.21708,-1.37583 v -33.655 c 0,-6.0325 2.03729,-8.14917 7.64646,-8.12271 1.45521,0 3.54542,0 4.63021,0 5.47687,0 7.48771,3.96875 7.64646,9.47208 v 32.30563 c 0,0.82021 0.50271,1.37583 1.21708,1.37583 h 4.07458 c 0.74084,0 1.21709,-0.55562 1.21709,-1.37583 z"
         id="path4488" />
      <path
         style="fill:#343741;stroke-width:0.26458332"
         inkscape:connector-curvature="0"
         class="st0"
         d="m -220.42815,331.57726 c -0.82021,0 -1.45521,-0.55562 -1.69334,-1.4552 l -13.22916,-44.87334 c -0.26459,-0.9525 0.23812,-1.64041 0.71437,-1.64041 h 4.89479 c 0.82021,0 1.05834,0.55562 1.21709,1.19062 l 12.19729,41.48667 h 0.34396 l 12.19729,-41.48667 c 0.15875,-0.635 0.39687,-1.19062 1.21708,-1.19062 h 4.89479 c 0.47625,0 1.00542,0.74083 0.71438,1.64041 l -13.22917,44.87334 c -0.23812,0.89958 -0.87312,1.4552 -1.69333,1.4552 z"
         id="path4490" />
      <path
         id="path4492"
         d="m -231.03795,183.93977 c -9.92187,9.7102 -37.22687,15.58395 -46.2227,40.08437 -7.27604,19.84375 -3.12209,48.41875 -3.12209,48.41875 0,0 41.85709,-16.21896 49.34479,-30.87687 z"
         class="st0"
         inkscape:connector-curvature="0"
         style="fill:#343741;stroke-width:0.26458332" />
    </g>
  </g>
  <style
     id="style4472"
     type="text/css">
	.st0{fill:#343741;}
</style>
</svg>
