<?xml version="1.0" encoding="utf-8"?>
<!-- Generator: Adobe Illustrator 26.0.1, SVG Export Plug-In . SVG Version: 6.00 Build 0)  -->
<svg version="1.1" id="Layer_1" xmlns="http://www.w3.org/2000/svg" xmlns:xlink="http://www.w3.org/1999/xlink" x="0px" y="0px"
	 viewBox="0 0 95 35" style="enable-background:new 0 0 95 35;" xml:space="preserve">
<style type="text/css">
	.st0{fill:#CCCCCC;}
</style>
<path id="path6" class="st0" d="M68.43,22.37l-10.24,2.78l7.57-10.95c0.31-0.44,0.83-0.69,1.37-0.63c0.54,0.05,1,0.39,1.22,0.89
	l2.59,5.98c0.19,0.44,0.54,0.8,0.98,0.99L68.43,22.37z"/>
<path id="path8" class="st0" d="M25.31,1.42c0.08-0.5-0.05-1.01-0.34-1.42l17.52,10.16l-7.83-1.08c-0.79-0.11-1.58,0.16-2.14,0.73
	l-6.88,7.05c-0.45,0.46-1.15,0.58-1.73,0.29c-0.58-0.29-0.9-0.92-0.8-1.55L25.31,1.42z"/>
<g>
	<path class="st0" d="M50.08,18.81c0,0.25,0.22,0.39,0.54,0.39c0.15,0,0.29-0.02,0.43-0.07v-0.69h-0.5
		C50.25,18.44,50.08,18.6,50.08,18.81z"/>
	<path class="st0" d="M35.2,17.09c-0.33,0-0.49,0.24-0.49,0.58v0.06h0.97v-0.06C35.68,17.33,35.52,17.09,35.2,17.09z"/>
	<path class="st0" d="M56.98,17.09c-0.33,0-0.49,0.24-0.49,0.58v0.06h0.97v-0.06C57.46,17.33,57.3,17.09,56.98,17.09z"/>
	<path class="st0" d="M34.67,9.08c-0.79-0.11-1.58,0.16-2.14,0.73l-6.88,7.05c-0.53,0.54-1.37,0.6-1.97,0.14l21.95,16.95
		c1.06,0.82,2.4,1.18,3.73,1.01c1.33-0.17,2.53-0.86,3.35-1.92c0.05-0.07,0.11-0.14,0.16-0.21l12.87-18.63
		c0.32-0.46,0.87-0.7,1.43-0.63L34.67,9.08z M32.85,19.99c-0.56,0-0.93-0.28-0.93-0.87v-4.1h0.95v3.83c0,0.22,0.08,0.32,0.27,0.32
		c0.11-0.01,0.22-0.02,0.33-0.05l0.1,0.76C33.34,19.95,33.1,20,32.85,19.99z M36.6,18.44H34.7v0.06c0,0.41,0.24,0.67,0.66,0.67
		c0.35,0,0.6-0.1,0.89-0.25l0.26,0.75c-0.38,0.22-0.82,0.33-1.26,0.32c-0.77,0-1.5-0.41-1.5-1.47v-0.75c0-0.92,0.56-1.51,1.44-1.51
		c0.93,0,1.4,0.62,1.4,1.44V18.44z M40,19.93h-0.95v-2.24c0-0.44-0.28-0.56-0.56-0.56c-0.15,0-0.29,0.03-0.43,0.08v2.73h-0.95v-3.33
		c0.37-0.16,0.93-0.33,1.47-0.33c0.98,0,1.42,0.49,1.42,1.2V19.93z M43.47,19.68c-0.46,0.2-0.95,0.31-1.46,0.31
		c-0.99,0-1.46-0.59-1.46-1.31V17.5c0-0.71,0.48-1.23,1.3-1.23c0.23,0,0.45,0.03,0.67,0.1v-1.35h0.95V19.68z M45.02,19.99
		c-0.56,0-0.92-0.28-0.92-0.87v-4.1h0.95v3.83c0,0.22,0.08,0.32,0.27,0.32c0.11-0.01,0.22-0.02,0.33-0.05l0.1,0.76
		C45.51,19.95,45.26,20,45.02,19.99z M48.76,18.44h-1.89v0.06c0,0.41,0.24,0.67,0.66,0.67c0.35,0,0.6-0.1,0.89-0.25l0.27,0.75
		c-0.38,0.22-0.82,0.33-1.27,0.32c-0.77,0-1.5-0.41-1.5-1.47v-0.75c0-0.92,0.56-1.51,1.44-1.51c0.93,0,1.4,0.62,1.4,1.44V18.44z
		 M52,19.68c-0.45,0.2-0.94,0.3-1.43,0.31c-0.93,0-1.44-0.45-1.44-1.18c0-0.62,0.46-1.08,1.27-1.08h0.66v-0.15
		c0-0.33-0.25-0.46-0.59-0.46c-0.31,0-0.71,0.12-1.05,0.29l-0.09-0.86c0.42-0.2,0.89-0.3,1.35-0.29c0.56,0,1.33,0.24,1.33,1.14h0
		V19.68z M53.74,19.99c-0.6,0-1.09-0.18-1.35-0.34l0.41-0.76c0.28,0.17,0.6,0.27,0.93,0.28c0.32,0,0.44-0.12,0.44-0.25
		c0-0.15-0.12-0.22-0.35-0.3l-0.46-0.15c-0.43-0.14-0.9-0.42-0.9-1.08c0-0.67,0.61-1.13,1.39-1.13c0.56,0,1.07,0.19,1.29,0.32
		l-0.42,0.74c-0.26-0.15-0.56-0.23-0.86-0.24c-0.26,0-0.41,0.1-0.41,0.24c0,0.1,0.07,0.19,0.29,0.27l0.52,0.18
		c0.54,0.18,0.91,0.46,0.91,1.06C55.16,19.54,54.53,19.99,53.74,19.99z M58.37,18.44h-1.89v0.06c0,0.41,0.24,0.67,0.66,0.67
		c0.35,0,0.6-0.1,0.89-0.25l0.27,0.75c-0.38,0.22-0.82,0.33-1.26,0.32c-0.77,0-1.5-0.41-1.5-1.47v-0.75c0-0.92,0.56-1.51,1.44-1.51
		c0.92,0,1.4,0.62,1.4,1.44V18.44z"/>
	<path class="st0" d="M42.06,17.08c-0.28,0-0.56,0.16-0.56,0.61v0.86c0,0.48,0.31,0.62,0.63,0.62c0.13,0,0.26-0.02,0.39-0.07v-1.94
		l0,0C42.37,17.11,42.22,17.09,42.06,17.08z"/>
	<path class="st0" d="M47.37,17.09c-0.33,0-0.49,0.24-0.49,0.58v0.06h0.97v-0.06C47.85,17.33,47.69,17.09,47.37,17.09z"/>
</g>
<g>
	<polygon class="st0" points="55.33,20.63 44.01,13.54 44.01,0 55.33,7.18 	"/>
	<polygon class="st0" points="56.04,20.63 67.36,13.54 67.36,0 56.04,7.18 	"/>
	<polygon class="st0" points="79.39,20.63 68.07,13.54 68.07,0 79.39,7.18 	"/>
	<path class="st0" d="M33.1,34.68h-0.96c-0.17,0-0.29-0.13-0.29-0.32V23.93c0-0.2,0.11-0.25,0.29-0.32l0.96-0.32
		c0.15-0.05,0.29,0.13,0.29,0.32v10.74C33.39,34.54,33.28,34.68,33.1,34.68z"/>
	<path class="st0" d="M40.71,24.63c-1.26,0-2.31,0.11-3.35,0.45v9.27c0,0.21-0.14,0.32-0.27,0.32c0,0-0.92,0-0.97,0
		c-0.15,0-0.29-0.11-0.29-0.32V25.4c0-0.94,0.18-1.23,0.82-1.57c0.84-0.43,2.56-0.71,3.48-0.71h0.48c0.09,0,0.27,0.04,0.27,0.32
		v0.92C40.88,24.52,40.84,24.63,40.71,24.63z"/>
	<path class="st0" d="M59.7,34.69c-0.55,0.13-1.47,0.3-2.49,0.3c-1.65,0-5.05-0.06-5.05-3.54c0-2.88,1.41-3.02,3.3-3.37l4.31-0.67
		V26.4c0-0.69-0.03-1.25-0.71-1.53c-0.36-0.18-0.9-0.26-1.74-0.26c-1.47,0-3.42,0.41-4.21,0.62c-0.03,0.01-0.08,0.02-0.12,0.02
		c-0.08,0-0.17-0.05-0.2-0.18c0,0-0.14-0.77-0.17-0.95c-0.03-0.13,0.04-0.25,0.2-0.32c0.62-0.25,2.93-0.66,4.67-0.66
		c1.36,0,2.24,0.21,2.79,0.56c0.97,0.58,1.01,1.59,1.01,2.6v6.16C61.3,33.99,61.02,34.33,59.7,34.69z M59.77,28.77l-4.19,0.66
		c-0.92,0.2-1.85,0.24-1.85,1.93c0,2.15,2.24,2.3,3.51,2.3c0.84,0,1.74-0.13,2.54-0.43L59.77,28.77L59.77,28.77z"/>
	<path class="st0" d="M72.04,34.23c0,0.2-0.11,0.25-0.18,0.28c-0.48,0.24-3.3,0.49-4.42,0.49c-3.57,0-4.51-1.89-4.51-5.9
		c0-4.03,0.94-5.92,4.51-5.92c1.13,0,3.68,0.39,4.16,0.63c0.06,0.03,0.2,0.08,0.18,0.28c-0.01,0.08-0.14,0.84-0.14,0.84
		c-0.03,0.18-0.09,0.3-0.35,0.23c-0.41-0.13-2.76-0.58-3.77-0.58c-2.3,0-3.02,1.09-3.02,4.51c0,3.44,0.73,4.53,3.02,4.53
		c1.01,0,3.58-0.28,4.04-0.41c0.18-0.05,0.31-0.02,0.35,0.23C71.89,33.43,72.04,34.1,72.04,34.23z"/>
	<path class="st0" d="M29.59,26.73c0-2.3-1.01-3.56-3.29-3.56h-1.16c-1.16,0-1.99,0.24-2.53,0.75c-0.54-0.51-1.38-0.75-2.53-0.75
		h-1.16c-2.27,0-3.29,1.27-3.29,3.56v7.62c0,0.2,0.12,0.32,0.29,0.32h0.96c0.17,0,0.29-0.13,0.29-0.32v-7.58
		c0.03-1.3,0.51-2.23,1.8-2.23h1.08c1.34,0,1.81,0.49,1.81,1.91v7.9c0,0.2,0.12,0.32,0.29,0.32h0.96c0.17,0,0.29-0.13,0.29-0.32
		v-7.91c0-1.41,0.48-1.91,1.8-1.91c0.34,0,0.83,0,1.08,0c1.29,0,1.76,0.93,1.8,2.23v7.59c0,0.2,0.12,0.32,0.29,0.32h0.96
		c0.17,0,0.29-0.13,0.29-0.32L29.59,26.73z"/>
	<path class="st0" d="M45.8,34.68c-0.2,0-0.34-0.13-0.4-0.34l-3.11-10.54c-0.06-0.22,0.06-0.39,0.17-0.39h1.15
		c0.2,0,0.25,0.13,0.29,0.28l2.86,9.74h0.08l2.86-9.74c0.03-0.15,0.09-0.28,0.29-0.28h1.15c0.11,0,0.24,0.18,0.17,0.39L48.2,34.33
		c-0.06,0.21-0.2,0.34-0.4,0.34L45.8,34.68L45.8,34.68z"/>
	<g>
		<path class="st0" d="M43.31,0c-2.33,2.28-8.74,3.66-10.86,9.41c-1.71,4.66-0.74,11.38-0.74,11.38s9.83-3.82,11.59-7.25V0z"/>
	</g>
</g>
</svg>
