<svg version="1.2" xmlns="http://www.w3.org/2000/svg" viewBox="0 0 1589 852" width="1589" height="852">
	<title>71080481_1625438067598520_6708666490318487552_n-svg</title>
	<style>
		.s0 { fill: #ffffff } 
		.s1 { fill: #ffffff } 
		.s2 { fill: #ffffff } 
	</style>
	<g id="#000000ff">
		<path id="Layer" class="s0" d="m24 359.5c95.2-119.8 190.2-239.7 285.3-359.4q120.3 126.1 240.5 252.2l1-0.4c64.7-81.3 129.2-162.8 193.8-244.2 2.3-2.5 3.7-6 6.9-7.4 5.5 6.8 12.2 12.7 18.3 19 61.4 61.5 122.3 123.4 183.7 185 63 63.1 125.5 126.6 188.5 189.8 1.6 1.6 3.5 3.2 4.3 5.5-2.1 0.3-4.1 0.7-6.1 1.2-10.9 3.3-22.1 5.5-33.2 7.6q-3.3 0.5-6.4 0.9c-2.5 0.6-5 0.9-7.4 1.3-4.5 0.9-9.1 1.7-13.7 2.4-2.4 0.6-4.9 0.9-7.3 1.3-2.5 0.5-4.9 0.9-7.3 1.3-2.5 0.5-5 0.8-7.5 1.2-2.9 0.6-6 1-8.9 1.8-38.9-30.1-77.2-61-115.9-91.4q-89.5-70.7-179-141.4c-19.1-15.3-38.6-30.1-57.5-45.7q-64.1 61.8-128.2 123.7c-1.2 1.3-4.6 3.1-2.3 5.1 113.9 119.5 227.9 239 341.8 358.5 3.3 3.2 6.3 6.6 9.3 10.2-39.4-30.1-79.2-59.5-118.7-89.3q-135.1-101.4-270.2-202.9c-7.9-6.1-16.2-11.8-23.9-18.1-0.5 0-1.6 0.1-2.1 0.1-13.5 13.4-27.5 26.5-40.9 40.1-1.5 1.2-2.9 2.5-4.4 3.7 12.4-16.6 25.8-32.4 38.4-48.9q0.7-1.6-0.9-2.3c-74.3-55.7-148.5-111.5-222.8-167.2-5.6-4.2-11.1-8.6-17-12.5-50.6 49.5-101.9 98.3-152.6 147.6-27.6 26.3-54.7 53-82.3 79.2-1.6 1.3-3 3-4.2 4.7 1.9-4.8 5.9-8.2 8.9-12.3z"/>
	</g>
	<g id="#ef3e36ff">
		<path id="Layer" class="s1" d="m0.3 21.1c10.2-0.8 20.4-0.5 30.5-0.5 76 0.1 152-0.1 228 0.1-5.7 7-11 14.4-16.9 21.2-80.5-6.8-161-14.2-241.6-20.8zm365.1-0.5c111.6-0.1 223.1-0.3 334.7-0.3-17.3 21.7-34.4 43.7-52 65.2-81.1-8.5-162.1-17.5-243.2-26-4.9-2.3-8-7.3-12-10.9-9.1-9.4-18.4-18.6-27.5-28zm441.2 0q160.6 0 321.2 0c54.9 0.3 109.2 21.2 150.5 57.2 49.2 42.1 80.2 105.2 82.3 170.1 1.3 9.5-0.3 19-0.4 28.5-3.5 47.2-22 93.2-52 129.8-22.4 27.5-51 50-83.2 64.9 93 97.3 186.1 194.4 279.3 291.6 28.1 29.6 56.6 58.7 84.5 88.4-74.3-57.7-148.2-115.9-222.3-173.8q-144.8-113.4-289.7-226.8c-6.8-5.6-14.1-10.6-20.6-16.5 13.3-1.7 26.5-4.2 39.7-6.4 31.5-5.4 64-9.4 93.2-23.3 18-8.3 33.9-20.7 47.8-34.9 27.7-27.3 44.6-65.3 46.1-104.2 1.5-28.7-5.3-57.9-19.2-83.2-23.7-43.1-67.9-74.5-116.6-81.7-15.4-2.4-31-1.7-46.5-1.8-72.8-0.2-145.7-0.2-218.5-0.3-25.1-26-50.5-51.6-75.6-77.6z"/>
	</g>
	<g id="#919296ff">
		<path id="Layer" fill-rule="evenodd" class="s2" d="m78 446.8c13.5 0.2 27-0.3 40.4 0.3 3.2 20.6 6.9 41.1 10.9 61.6 1.9-6.3 2.4-12.9 3.7-19.2 2.5-14.2 5.3-28.4 7.4-42.6 13.4-0.3 26.8 0 40.3-0.1-0.1 35.7 0 71.5-0.1 107.2q-13 0-26 0c-0.1-19.4 0-38.8 0-58.2-0.1-6.9 0.3-13.8-0.3-20.7-5.1 26.1-9.9 52.3-14.6 78.5-6.8 0.7-13.7 0.3-20.5 0.4q-7.6-39.5-14.7-79.1c-0.7 7.8-0.2 15.5-0.3 23.3 0 18.6 0.1 37.2 0 55.8q-13.1-0.1-26.1 0c-0.2-35.7 0-71.5-0.1-107.2zm113.7 0c9.4 0 18.8-0.1 28.2 0-0.1 35.8 0.1 71.5 0 107.2-9.4 0-18.8 0-28.2 0 0-35.7 0-71.5 0-107.2zm40.3 0c10.4 0 20.8 0 31.1 0 6.3 21.6 11.7 43.4 18.2 65 0.3-21.7 0-43.4 0.1-65 8.8 0 17.5 0 26.2 0-0.1 35.7 0.1 71.5 0 107.2-10.2 0-20.4 0-30.6 0-6.4-22.1-12.9-44.2-18.5-66.5-1 22.1-0.1 44.3-0.5 66.5-8.6 0-17.3 0-25.9 0-0.2-35.7 0-71.5-0.1-107.2zm88.8 0c21.1 0 42.3 0 63.5 0 0 7.5-0.1 15.1 0 22.7-11.9-0.1-23.9-0.1-35.8 0q0 9 0 18.1c11.3 0.2 22.6-0.1 33.8 0.2 0 7.3 0 14.7 0 22-11.3 0.2-22.5 0-33.8 0.1 0.1 7 0 13.9 0 20.9 12.3 0 24.6 0 36.9 0 0 7.7 0.1 15.5 0 23.2-21.5 0-43 0-64.5 0-0.2-35.7 0-71.5-0.1-107.2zm74.5 0.1c15.8-0.2 31.5-0.1 47.2-0.1 10-0.2 20.5 5.3 24.1 14.9 3.3 9.5 3.4 20.6-1.3 29.6-2.6 5.2-8.1 7.8-13.3 9.5 5.5 0.9 11.1 3.5 13.4 9 5.2 11.8 0.6 25.1 3.6 37.4 0.8 2.5 2.7 4.5 4.1 6.8-10 0.1-20-0.2-30 0.1-5.5-12.5-0.5-26.8-4.6-39.5-3-5.3-10-3.2-14.9-3.5 0 14.3 0.1 28.6 0 42.9-8.6-0.1-17.1 0.1-25.7 0-2.3 0.4-2.7-2.4-2.5-4 0-34.3 0-68.7-0.1-103.1zm28.3 19.9c0 8.3 0.1 16.6 0 24.9 4.3-0.2 9.2 0.9 12.9-1.9 5.2-4.3 5.4-12.3 3-18.2-3.1-5.7-10.4-4.8-15.9-4.8zm75.5-19.8c12-0.3 23.9-0.3 35.9 0 5.9 25.7 12.4 51.3 18.6 76.9 2.4 10.1 5.3 20 7.1 30.1-9.8-0.4-19.8 0.7-29.4-0.5-1.9-5.9-2-12.3-3.2-18.3-7.4-0.4-14.8-0.6-22.1 0.2-0.8 6.2-1.9 12.4-2.9 18.6-9.8 0-19.6 0-29.4 0 8.2-35.7 17.3-71.3 25.4-107zm17.4 22.2c-1.7 15-4.7 29.7-7.1 44.5q7.7 0 15.3 0.1c-1.5-9.3-3.1-18.6-4.7-27.8-1-5.6-1.5-11.4-3.5-16.8zm48.8-22.4c9.4-0.1 18.8 0 28.2 0 0 28 0 56 0 84 11.5 0 23 0 34.4 0 0 7.7 0.1 15.5 0 23.2-20.9 0-41.7 0-62.5 0-0.1-35.7 0-71.4-0.1-107.2zm-302.9 144c10.8-1.6 22.5-1.7 32.6 3.2 7.9 3.9 12 12.8 12.7 21.3 0 2.5 1.6 5.6-0.3 7.8-8.5 0.3-17 0-25.5 0.1-0.2-4.2 0.2-8.9-2.9-12.2-3-3.3-8.7-2.7-11.4 0.7-3.7 4.7-2.6 12.5 2.5 15.8 9.8 7.2 23.1 8.5 31.9 17.3 10.3 9.4 11.1 25.4 6.8 37.9-3.1 9.2-12.2 14.7-21.3 16.6-10.6 2.3-21.7 2.2-32.2-0.5-8.6-2.1-15.8-9.2-17.5-18-1-4.4-0.8-8.9-0.9-13.4 8.6-1.1 17.2 0.3 25.8-0.4 2.6 1 1.1 4.5 1.7 6.7-0.1 6.1 7.1 10.5 12.4 7.6 6.8-3.2 6.7-14.1 1.1-18.4-9.8-7.8-23.8-8.6-32.3-18.3-8.4-8.6-8.4-21.8-6.2-32.8 2.3-11 12-19.4 23-21zm84.5-0.4c11.7-1.2 25.2-1.1 34.6 7 9.6 8.9 11.6 22.8 12.4 35.2 0.3 15.5 1.3 31.5-3.5 46.6-2.6 8.3-8.3 16.1-16.8 18.9-10.8 3.7-22.9 3.7-33.9 0.5-9.6-2.8-16.1-11.6-18.6-20.9-3.7-13.5-3.9-27.6-3.4-41.5 0.9-11.5 1.8-23.9 8.4-33.8 4.7-6.9 12.6-11 20.8-12zm7.6 18.5c-3.1 0.5-5.4 3.2-5.9 6.2-2.6 9.8-1.5 19.9-1.9 29.8 0.4 10.1-0.6 20.4 1.7 30.4 0.6 2.8 2.2 5.8 5.3 6.6 4.3 1.7 8.9-1.9 9.8-6.1 2.3-10.1 1.7-20.5 1.8-30.8 0-9.9 0.5-20-1.8-29.7-0.8-4-4.8-7.5-9-6.4zm374.8 1.3c2.9-11.4 13.9-19 25.2-19.9 11.3-0.9 24.1-1.1 33.5 6.1 8 6.4 9.4 17.2 9.9 26.7-8.8 0.1-17.7 0.1-26.5 0.1-0.3-4.4-0.3-9.4-3.6-12.8-3.4-2.8-9-1.7-11.3 2-3 4.8-1.9 11.8 2.8 15.1 10.1 7.4 23.9 8.6 32.8 18 9.2 9 10.1 23.3 6.8 35.1-2 7.4-7.7 13.5-14.8 16.4-11.2 4.6-23.9 4.7-35.8 2.7-7.7-1.3-15.3-5.5-18.8-12.7-3.4-6.2-3.4-13.4-3-20.2 9 1.1 18.1-1 27.1 0.6 0 4.4-0.5 10 3.6 13 3.9 3.2 10.5 2 12.8-2.6 2.5-5.1 1.5-12.2-3.4-15.6-9.9-7-23.3-8.3-31.7-17.6-8.6-9.1-8.6-23-5.6-34.4zm-146.5-12.4c7.5-7.3 18.7-8.1 28.6-7.9 9.8 0 20.4 3.1 26.4 11.3 6.3 8.4 6.3 19.5 6.2 29.5-9.1 0-18.2 0-27.3 0-0.1-6.2 0.7-12.8-2-18.6-2.6-5.2-11-3.9-12.5 1.5-2.6 8.1-2.4 16.7-2.4 25.1 0.1 11.8-0.7 23.7 1.4 35.3 0.5 3.2 2 6.7 5.3 7.8 3.2 1.5 7.3-0.4 8.6-3.5 2.9-6.9 1.5-14.4 2.2-21.5 1.2-1.6 3.4-1 5.1-1.2 7.1 0.2 14.2-0.1 21.3 0.2 0.3 0.3 0.8 0.9 1.1 1.2 0.4 11.9-0.4 25.3-8.8 34.6-7.4 8.2-19.2 9.5-29.6 9.3-8.9-0.5-18.8-1.8-25.2-8.5-7.2-7.6-8.8-18.4-9.8-28.3-0.7-12.5-0.8-25.1 0.2-37.6 1.2-10.2 3.2-21.4 11.2-28.7zm-504-4.7c0.2-0.3 0.8-1 1.1-1.4 12.8-0.3 25.6 0 38.5-0.1 7.7 0.4 16 0.3 22.6 4.7 6.3 3.7 9.9 10.7 10.8 17.7 1.1 8.8 0.4 18.6-5.3 25.7-3 3.8-7.8 5.2-12.2 6.5 5.5 0.7 11.5 2.7 14 8.1 5.8 12 0.8 25.8 4 38.3 1.1 2.4 2.6 4.5 4 6.8-10 0.1-19.9-0.2-29.9 0.1-5.9-12.4-0.2-26.8-4.7-39.5-2.8-5.4-10-3.2-14.9-3.6 0 14.3 0.1 28.7-0.1 43-8.5-0.1-17 0.2-25.5 0-2.2 0.2-2.9-2.1-2.6-3.9 0.2-34.1-0.2-68.3 0.2-102.4zm28 19.1q0 12.4 0 24.8c4.8-0.1 10.6 1 14.1-3 4-4.6 4-11.6 1.9-17-3-5.8-10.6-4.8-16-4.8zm58.2-1.8c0.1-6.3-0.5-12.6 0.6-18.9 21 0.2 42 0.1 63.1 0.1 0.1 7.7 0 15.5 0 23.3-11.8-0.1-23.7-0.1-35.6 0q0 9 0 18.1c11.1 0.1 22.2 0.1 33.3 0 0 7.4 0 14.8-0.1 22.2-11 0-22.1-0.1-33.2 0.1q0.1 10.4 0 20.8c12.3 0.1 24.6 0.1 36.9 0 0 7.8 0.1 15.6-0.1 23.3-21.4 0-42.8-0.2-64.2 0.1-1.1-10.3-0.6-20.8-0.8-31.2 0.1-19.3-0.1-38.6 0.1-57.9zm238.1 29.6c0.4-16.2 0-32.3 0.3-48.4q13.8 0 27.5 0c0.3 22.3 0.1 44.6 0.2 66.9 0.1 6-0.6 12.2 0.9 18.1 1.2 4.5 7 7.2 11 4.7 4.4-2.1 4.7-7.5 4.9-11.7 0-26-0.1-52 0.1-78 9.1 0 18.3 0.1 27.4-0.1 0.3 2.1 0.6 4.3 0.6 6.5 0 19.4 0 38.7 0 58-0.1 12 0.1 25.5-8 35.4-7 8.4-18.9 9.4-29.1 9.5-10.7-0.1-23.4-1.8-29.6-11.7-9.4-14.7-5-32.8-6.2-49.2zm84.4-47.8c6.7-1.1 13.5-0.4 20.3-0.6 11 0.2 22-0.6 32.8 1.1 8.4 1.4 16 7.4 18.5 15.6 2.6 8.6 2.6 18.2-0.8 26.6-2.7 6.2-8.9 10.1-15.4 11.3 5.7 0.7 11.9 2.8 14.4 8.5 5.1 11.3 1.6 24 3.2 36 0.6 3.2 2.8 5.8 4.4 8.7-9.3 0-18.5 0.1-27.7 0-1.9 0.3-3.2-1.2-3.4-2.9-2.7-10.3-1.2-21-1.9-31.5-0.2-3.2-1.7-6.9-4.9-8.2-3.7-0.8-7.5-0.4-11.2-0.5 0 14.4 0 28.7-0.1 43.1-9.4-0.3-18.8 0.6-28.2-0.6 0.2-35.5 0.2-71.1 0-106.6zm28.3 20q0 12.4 0 24.9c4.8-0.2 10.6 0.8 14.1-3.3 3.9-4.9 4.1-12.5 0.9-17.9-3.5-4.6-9.9-3.6-15-3.7zm138.4-18c-0.4-2.3 2.2-2.9 3.9-2.6 20 0 40 0 59.9 0 0.2 7.7 0.1 15.5 0.1 23.3-11.8-0.1-23.7-0.1-35.6 0 0.1 6.1-0.3 12.2 0.5 18.3 10.9-0.3 21.9-0.1 32.8-0.2-0.1 7.4 0 14.8-0.1 22.2-11.1 0-22.1-0.1-33.2 0.1 0 6.9 0 13.9 0 20.8 12.3 0.1 24.6 0.1 37 0.1-0.1 7.7 0 15.5-0.2 23.2-20.8 0-41.7 0-62.5 0-2.3 0.3-3-2.2-2.6-4 0.1-33.7-0.1-67.5 0-101.2z"/>
	</g>
</svg>