<?xml version="1.0" encoding="utf-8"?>
<!-- Generator: Adobe Illustrator 26.0.1, SVG Export Plug-In . SVG Version: 6.00 Build 0)  -->
<svg version="1.1" id="Layer_1" xmlns="http://www.w3.org/2000/svg" xmlns:xlink="http://www.w3.org/1999/xlink" x="0px" y="0px"
	 viewBox="0 0 95 35" style="enable-background:new 0 0 95 35;" xml:space="preserve">
<style type="text/css">
	.st0{fill:#343741;}
</style>
<g>
	<path class="st0" d="M20.76,16.46h3.67v-0.14c0-0.9-0.09-1.38-0.38-1.83c-0.31-0.47-0.76-0.71-1.4-0.71c-1.21,0-1.9,0.95-1.9,2.63
		V16.46 M26.36,20.61l1.23,1.9c-1.4,1.14-2.87,1.68-4.58,1.68c-3.49,0-5.74-2.47-5.74-6.28c0-2.18,0.45-3.63,1.52-4.81
		c1-1.11,2.2-1.64,3.82-1.64c1.4,0,2.73,0.47,3.51,1.28c1.11,1.14,1.61,2.77,1.61,5.31c0,0.26,0,0.36,0,0.73h-7.02v0.1
		c0,1.87,0.92,2.94,2.56,2.94C24.37,21.82,25.39,21.41,26.36,20.61z"/>
	<path class="st0" d="M90.28,11.64h3.82l-3.76,5.21L95,23.83h-3.75l-4.08-6.88L90.28,11.64 M83.93,23.83V6.49h3.18v17.34H83.93z"/>
	<path class="st0" d="M68.06,22.93c-0.19,0.26-0.32,0.45-0.97,0.78c-0.33,0.17-1.02,0.43-1.8,0.43c-2.7,0-4.06-1.29-4.06-3.7
		c0-2.85,1.97-4.17,5.83-4.17c0.24,0,0.38,0,0.71,0.02v-0.5c0-1.35-0.26-1.8-1.42-1.8c-1.02,0-2.21,0.5-3.51,1.38l-1.35-2.28
		c0.78-0.5,1.11-0.66,1.97-1c1.19-0.5,2.21-0.71,3.32-0.71c2.04,0,3.44,0.76,3.91,2.11c0.17,0.5,0.22,0.88,0.22,2.18l-0.07,4.08
		c0,0.07,0,1.56,0,1.53c0,1.01,0.05,2.05,0.32,2.55h-2.79C68.19,23.62,68.06,22.93,68.06,22.93 M67.73,18.38h-0.14
		c-2.21,0-2.96,0.4-2.96,1.85c0,0.95,0.59,1.59,1.4,1.59c0.59,0,1.18-0.31,1.66-0.83L67.73,18.38z"/>
	<path class="st0" d="M12.82,23.83v-8c0-1.44-0.17-1.73-0.99-1.73c-0.59,0-1.42,0.4-2.11,1.02v8.71H6.72v-7.88
		c0-1.51-0.21-1.87-1.09-1.87c-0.59,0-1.4,0.31-2.08,0.92v8.83h-3.1v-8.45c0-1.75-0.12-2.51-0.45-3.1l2.86-0.78
		c0.21,0.33,0.31,0.61,0.43,1.23c0.83-0.8,1.85-1.23,2.96-1.23c0.99,0,1.82,0.33,2.46,0.99c0.17,0.17,0.33,0.38,0.47,0.59
		c1.11-1.14,2.11-1.58,3.43-1.58c0.95,0,1.85,0.28,2.39,0.76c0.69,0.59,0.9,1.3,0.9,2.96v8.61H12.82"/>
	<path class="st0" d="M44.62,6.23c1.14,0,2,0.88,2,2.02c0,1.11-0.88,2.02-2,2.02c-1.11,0-2.02-0.91-2.02-2.02
		C42.6,7.14,43.51,6.23,44.62,6.23 M43.51,13.99c0-0.47-0.23-0.76-0.51-0.76c-0.66,0-1.19,0.94-1.98,2.86l-0.99-0.42
		c1.12-2.88,2.31-4.27,4.12-4.27c1.68,0,2.69,1.23,2.69,3.38c0,0.84-0.18,1.76-0.46,2.83l-0.58,2.25c-0.2,0.73-0.25,1.26-0.25,1.55
		c0,0.58,0.25,0.89,0.66,0.89c0.71,0,1.35-1.02,2.03-3.04l0.94,0.47c-0.79,2.96-2.13,4.43-4.09,4.43c-1.83,0-2.95-1.21-2.95-3.28
		c0-1.13,0.33-2.36,0.69-3.83l0.46-1.86C43.41,14.67,43.51,14.27,43.51,13.99z"/>
	<path class="st0" d="M72.16,12.28l2.86-0.78c0.15,0.22,0.43,0.9,0.43,1.39c0.74-0.52,0.88-0.62,1.4-0.9
		c0.64-0.33,1.47-0.52,2.18-0.52c1.35,0,2.54,0.71,2.92,1.75c0.17,0.45,0.23,0.97,0.23,1.73v8.87h-3.13v-7.9
		c0-1.38-0.24-1.78-1.07-1.78c-0.64,0-1.47,0.43-2.21,1.09v8.58h-3.18v-8.8C72.61,13.15,72.32,12.56,72.16,12.28"/>
	<path class="st0" d="M36.16,14.89c-0.59-0.52-1.16-0.78-1.73-0.78c-1.42,0-2.04,1.19-2.04,3.89c0,2.61,0.55,3.46,2.21,3.46
		c0.59,0,1.26-0.4,1.57-0.78V14.89 M36.79,23.83c-0.13-0.27-0.21-0.75-0.21-0.75c-0.69,0.56-1.78,1.06-2.7,1.06
		c-3.08,0-5.03-2.4-5.03-6.17c0-3.79,2.11-6.4,5.19-6.4c0.88,0,1.56,0.21,2.16,0.69V6.49h3.06v17.34H36.79z"/>
	<path class="st0" d="M56.72,15.55c-0.24-1.04-0.9-1.54-1.73-1.54c-0.83,0-1.4,0.52-1.8,0.97v5.6c0.43,0.38,0.93,0.78,1.78,0.78
		c0.78,0,1.28-0.31,1.54-0.95c0.28-0.66,0.36-1.3,0.36-2.8C56.86,16.52,56.84,16.07,56.72,15.55 M53.09,6.49v5.86
		c0.62-0.66,1.55-0.97,2.56-0.97c2.97,0,4.82,2.37,4.82,6.17c0,2.47-0.76,4.39-2.25,5.57c-0.83,0.66-1.66,0.95-2.66,0.95
		c-1.15-0.01-1.99-0.33-2.68-1.09c0,0-0.06,0.41-0.21,0.85h-2.69l0-4.44V6.49H53.09z"/>
	<path class="st0" d="M1.62,26.58c-0.08-0.09-0.2-0.13-0.38-0.13H0.89v0.96h0.36c0.34,0,0.49-0.16,0.49-0.48
		C1.73,26.77,1.69,26.66,1.62,26.58 M1.33,27.74H0.89v1.01H0.45V26.1h0.71c0.39,0,0.53,0.04,0.67,0.13
		c0.23,0.14,0.36,0.38,0.36,0.67C2.19,27.42,1.81,27.74,1.33,27.74z"/>
	<path class="st0" d="M16.84,26.45h-0.25v0.86h0.23c0.23,0,0.36-0.03,0.44-0.11c0.07-0.07,0.12-0.19,0.12-0.33
		C17.39,26.59,17.24,26.45,16.84,26.45 M17.45,28.75l-0.23-0.41c-0.18-0.33-0.31-0.51-0.45-0.65c-0.05-0.05-0.09-0.08-0.17-0.08
		v1.14h-0.43V26.1h0.81c0.59,0,0.86,0.35,0.86,0.76c0,0.38-0.25,0.73-0.66,0.73c0.1,0.05,0.27,0.31,0.41,0.53l0.39,0.64H17.45z"/>
	<rect x="31.94" y="26.1" class="st0" width="0.45" height="2.65"/>
	<path class="st0" d="M47.55,28.77h-0.41l-0.89-2.66h0.48l0.48,1.5c0.11,0.34,0.14,0.53,0.14,0.53h0.01c0,0,0.03-0.16,0.16-0.56
		L48,26.1h0.46L47.55,28.77"/>
	<path class="st0" d="M63,26.36L63,26.36c0,0-0.28,1.15-0.34,1.33h0.65C63.29,27.63,63.02,26.46,63,26.36 M63.63,28.75l-0.21-0.7
		h-0.86l-0.21,0.7h-0.46l0.87-2.65h0.51l0.85,2.65H63.63z"/>
	<polyline class="st0" points="79.29,26.47 78.62,26.47 78.62,28.75 78.18,28.75 78.18,26.47 77.51,26.47 77.51,26.1 79.29,26.1 
		79.29,26.47 	"/>
	<polyline class="st0" points="93.16,28.75 93.16,26.1 94.64,26.1 94.64,26.46 93.6,26.46 93.6,27.19 94.42,27.19 94.42,27.55 
		93.61,27.55 93.61,28.38 94.67,28.38 94.67,28.75 93.16,28.75 	"/>
</g>
</svg>
