<?xml version="1.0" encoding="utf-8"?>
<!-- Generator: Adobe Illustrator 26.5.0, SVG Export Plug-In . SVG Version: 6.00 Build 0)  -->
<svg version="1.1" id="Layer_1" xmlns="http://www.w3.org/2000/svg" xmlns:xlink="http://www.w3.org/1999/xlink" x="0px" y="0px"
	 viewBox="0 0 95 35" style="enable-background:new 0 0 95 35;" xml:space="preserve">
<style type="text/css">
	.st0{fill:#CCCCCC;}
</style>
<path class="st0" d="M26.6,10.2h-3.1V24h3.1v-7.7l2.8,5.5h1.8l2.8-5.5V24h3.1V10.2H34l-3.7,7L26.6,10.2z"/>
<path class="st0" d="M54.1,18.2V16c0-4.2-2.3-6-5.4-6s-5.4,1.9-5.4,6v2.2c0,4.1,2.3,6,5.4,6c1.2,0,2.3-0.3,3.2-0.9l1.9,1.6l1.7-2.1
	l-2-1.6C53.9,20.4,54.1,19.4,54.1,18.2z M46.6,16c0-2.3,0.7-3.3,2.1-3.3c1.4,0,2.1,1,2.1,3.3v2.2c0,0.2,0,0.5,0,0.7l-0.9-0.7
	l-1.7,2.1l1.3,1.1c-0.2,0.1-0.5,0.1-0.8,0.1c-1.4,0-2.1-1-2.1-3.3V16z"/>
<path class="st0" d="M65.6,16.7v2.8h1.8c-0.1,1.1-0.6,2-1.9,2c-1.4,0-2.1-1-2.1-3.3V16c0-2.3,0.7-3.3,2.1-3.3c1.2,0,1.8,0.8,1.9,1.7
	h3.2c-0.4-2.7-2.1-4.5-5.1-4.5c-3.1,0-5.4,1.9-5.4,6.3v1.9c0,4.1,2.3,6,5.4,6c3.1,0,5.1-1.9,5.1-6v-1.5H65.6z"/>
</svg>
