<?xml version="1.0" encoding="utf-8"?>
<!-- Generator: Adobe Illustrator 26.0.1, SVG Export Plug-In . SVG Version: 6.00 Build 0)  -->
<svg version="1.1" id="Layer_1" xmlns="http://www.w3.org/2000/svg" xmlns:xlink="http://www.w3.org/1999/xlink" x="0px" y="0px"
	 viewBox="0 0 95 35" style="enable-background:new 0 0 95 35;" xml:space="preserve">
<style type="text/css">
	.st0{fill:#CCCCCC;}
</style>
<g>
	<path class="st0" d="M46.05,11.17c1.57-1.57,3.14-2.13,5.09-2.13c3.7,0,5.83,2.13,5.83,6.42v9.92h-4.46v-9.16
		c0-2.33-0.76-3.53-2.33-3.53c-1.37,0-2.13,0.56-3.53,1.94v10.73h-4.46V12.3c-0.2,0-1.37-0.2-1.37-0.2V9.58l4.9-0.2
		C45.86,9.41,46.05,10.53,46.05,11.17 M84.85,12.69c-1.2,0-2.33,0.56-3.7,2.13v6.83c0.56,0.2,1.57,0.56,2.52,0.56
		c3.14,0,3.7-2.52,3.7-4.9C87.57,14.26,86.81,12.69,84.85,12.69 M81.35,3.33v7.42c1.37-1.2,2.69-1.76,4.46-1.76
		c3.89,0,6.42,2.96,6.42,7.79c0,5.66-3.14,8.99-8.6,8.99c-1.94,0-4.46-0.37-6.66-1c0,0,0-18.15,0-18.52c-0.2,0-1.57-0.2-1.57-0.2
		V3.53L81.35,3.33z M60.48,9.97c1.76-0.56,3.89-1,5.83-1c4.46,0,6.83,1.94,6.83,5.66v7.99c0.37,0,1.57,0.2,1.57,0.2v2.52l-4.9,0.2
		c0,0-0.2-0.76-0.2-1.2c-1.37,1.2-2.96,1.76-4.7,1.76c-3.53,0-5.66-1.94-5.66-5.09c0-3.53,2.69-5.27,7.99-5.27h1.57v-0.56
		c0-1.76-0.37-2.52-2.96-2.52c-1.37,0-3.14,0.37-4.46,1h-0.37l-0.76-3.33L60.48,9.97 M63.57,20.72c0,1.2,0.76,1.94,2.13,1.94
		c1.2,0,1.94-0.37,3.14-1.37v-2.52h-1.57C64.01,18.59,63.57,19.72,63.57,20.72"/>
	<g>
		<path class="st0" d="M24.01,0.44l-5.85,7.03L10,3.58c-0.2,0-0.37-0.2-0.56,0c-0.2,0-0.2,0.2,0,0.56l1.89,8.99l-8.16,3.89
			c-0.2,0-0.37,0.2-0.37,0.37s0.2,0.37,0.37,0.37l8.16,4.09l-1.94,8.99c0,0.2,0,0.37,0,0.56c0,0,0.37,0,0.56,0l8.16-3.89l5.66,7.23
			c0.2,0.2,0.37,0.37,0.56,0.2c0.2,0,0.2-0.2,0.37-0.37l2.13-8.79h9.23c0.2,0,0.37,0,0.56-0.2c0-0.2,0-0.37-0.2-0.56l-5.63-7.25
			l5.9-7.23c0.2-0.2,0.2-0.37,0.2-0.56s-0.2-0.2-0.56-0.2H34c-0.2,0-0.37,0-0.37,0.2l-8.67,9.16h-0.2c0,0,0,0,0-0.2
			c0.2-0.2,4.9-6.03,7.42-8.99v-0.2c0-0.2,0-0.2-0.2-0.2h-2.96c-0.2,0-0.56,0.2-0.56,0.37c-1.37,1.57-8.43,8.99-8.6,8.99h-0.12
			c0,0,0,0,0-0.2l7.23-8.79c0.2-0.2,0.2-0.37,0.2-0.56c0,0-1.94-8.79-1.94-8.99S25.04,0,24.87,0C24.18,0.24,24.01,0.24,24.01,0.44z"
			/>
		<path class="st0" d="M8.6,18.32c-2.13,0-4.09-0.37-5.83-1.2c0,0,0.2,0,0.2-0.2l8.16-3.89L9.19,4.04c0-0.2,0-0.37,0-0.56
			c0,0,0.37,0,0.56,0l8.16,3.89l5.83-7.03c0.2-0.2,0.37-0.2,0.37-0.2c0,0.76,0.2,1.37,0.2,2.13C24.57,11.17,17.35,18.32,8.6,18.32z
			 M30.84,10.53c0.2-0.2,0.37-0.56,0.56-0.76h-2.69c-0.2,0-0.37,0.2-0.56,0.2c0,0.37,0,1,0.37,1.2
			C28.91,11.73,30.04,11.37,30.84,10.53z M33.54,9.6c-0.2,0-0.37,0-0.37,0.2l-0.2,0.2c0,0.37,0.2,0.56,0.37,0.76
			c0.56,0.56,1.76,0.2,2.33-0.56c0.2-0.2,0.2-0.37,0.37-0.56h-0.2h-2.3C33.54,9.8,33.54,9.6,33.54,9.6z"/>
		<path class="st0" d="M35.13,10.36c0,0-1.2,0-1.57,0c-0.37,0-0.56,0.2-0.76,0.37c-2.96,3.14-7.79,8.16-7.99,8.16
			c-0.56,0.56-1,0.2-0.37-0.37c0.2-0.2,4.09-4.9,6.42-7.79c0-0.2,0.2-0.37,0-0.37s-2.13,0-2.33,0c-0.2,0-0.37,0-0.56,0.2
			c-2.96,3.14-7.99,8.43-8.16,8.43c-0.56,0.56-1,0.2-0.37-0.37c0.2-0.2,4.46-5.46,6.66-8.43c0.2-0.2,0.2-0.37,0.2-0.76l-1.89-7.86
			c0-0.2-0.2-0.37-0.37,0l-5.34,6.39c-0.2,0.2-0.56,0.37-0.76,0.2l-7.42-3.7c-0.2,0-0.37,0-0.37,0.2l1.76,8.16
			c0,0.2,0,0.56-0.37,0.76L4.1,17.22c-0.2,0-0.2,0.37,0,0.37l7.42,3.7c0.2,0,0.37,0.37,0.37,0.76l-1.94,8.03c0,0.2,0,0.37,0.37,0.2
			l7.59-3.53c0.2,0,0.56,0,0.76,0.2l5.09,6.42c0.2,0.2,0.37,0.2,0.37,0l1.94-7.99c0-0.2,0.37-0.37,0.56-0.37h8.16
			c0.2,0,0.37-0.2,0.2-0.37l-5.09-6.66c-0.2-0.2-0.2-0.56,0-0.76l5.27-6.42C35.5,10.53,35.3,10.36,35.13,10.36z"/>
	</g>
</g>
</svg>
