<?xml version="1.0" encoding="utf-8"?>
<!-- Generator: Adobe Illustrator 26.0.1, SVG Export Plug-In . SVG Version: 6.00 Build 0)  -->
<svg version="1.1" id="Layer_1" xmlns="http://www.w3.org/2000/svg" xmlns:xlink="http://www.w3.org/1999/xlink" x="0px" y="0px"
	 viewBox="0 0 95 35" style="enable-background:new 0 0 95 35;" xml:space="preserve">
<style type="text/css">
	.st0{fill:#343741;}
</style>
<g>
	<path class="st0" d="M26.29,29.79c4.51-2.87,7.5-7.9,7.5-13.64C33.79,7.23,26.55,0,17.64,0C8.9,0,1.78,6.94,1.49,15.61
		c-0.01,0.18-0.01,0.36-0.01,0.54c0,0.03,0,0.06,0,0.1c0,0.31,0.01,0.61,0.03,0.91c0.01,0.1,0.01,0.19,0.02,0.29
		c0.01,0.21,0.04,0.41,0.06,0.62c0.01,0.13,0.03,0.26,0.05,0.4c0.69,4.82,3.51,8.96,7.48,11.42v-5.52c-1.99-2.06-3.23-4.83-3.31-7.9
		c0.29-0.05,0.58-0.07,0.87-0.07c2.01,0,3.47,1.35,3.47,3.62v10.75c0,0.52-0.15,0.83-0.49,1.24c-0.34,0.41-2.88,3-2.88,3h5.07
		c0,0,1.43-1.38,2.37-2.31c0.21-0.21,0.29-0.55,0.29-1.4V18.71c0-2.69-2.02-4.02-4.42-4.02c-1.58,0-3.01,0.31-4.26,0.78
		c0.02-0.34,0.05-0.67,0.1-1C7.16,14,8.58,13.7,10.2,13.7c3.52,0,5.33,2.34,5.33,5.05v12.53V35h4.35v-4.24V17.58
		c0-3.82-2.19-6.06-6.71-6.06c-2.8,0-5.12,0.72-7.01,1.75c0.1-0.4,0.22-0.8,0.36-1.19c1.94-0.94,4.37-1.56,7.41-1.56
		c3.52,0,6.97,2.29,6.97,6.85v13.91c0,0.85,0.08,1.19,0.29,1.4c0.94,0.94,2.37,2.31,2.37,2.31h5.07c0,0-2.54-2.58-2.88-3
		c-0.35-0.41-0.49-0.72-0.49-1.24V16.41c0-5.66-4.17-7.94-9.18-7.94c-3.64,0-6.52,0.77-8.78,1.93c2.02-3.62,5.89-6.07,10.33-6.07
		c6.53,0,11.83,5.29,11.83,11.83c0,3.12-1.21,5.95-3.18,8.06L26.29,29.79L26.29,29.79z"/>
	<polygon class="st0" points="44.72,18.36 42.48,18.36 40.76,11.13 40.92,18.36 39.25,18.36 39.25,8.71 41.54,8.71 43.27,15.79 
		43.09,8.71 44.72,8.71 	"/>
	<polygon class="st0" points="46.66,8.7 51.33,8.7 51.33,10.17 48.44,10.17 48.44,12.44 51.15,12.44 51.15,13.9 48.44,13.9 
		48.44,16.87 51.46,16.87 51.46,18.36 46.66,18.36 	"/>
	<polygon class="st0" points="52.12,8.71 53.96,8.71 54.93,15.98 55.98,8.71 57.66,8.71 58.67,15.98 59.68,8.71 61.48,8.71 
		59.63,18.36 57.75,18.36 56.84,11.79 55.79,18.36 53.89,18.36 	"/>
	<path class="st0" d="M66.03,12.24v-1.23c0-0.72-0.12-1.13-0.9-1.13c-0.78,0-0.82,0.62-0.82,1.05v5.17c0,0.57,0.1,1.09,0.89,1.09
		c0.83,0,0.83-0.6,0.83-1.19v-1.26h1.76v1.37c0,0.78,0,2.46-2.62,2.46c-0.51,0-1.31-0.1-1.87-0.46c-0.76-0.51-0.76-1.26-0.76-1.79
		v-5.25c0-0.78,0.04-1.31,0.48-1.79c0.7-0.75,1.79-0.77,2.16-0.77c2.62,0,2.62,1.56,2.62,2.24v1.49L66.03,12.24L66.03,12.24z"/>
	<path class="st0" d="M69.35,8.7h3.55c1.74,0,1.74,1.16,1.74,2.05v1.04c0,1.23-0.38,1.45-1.24,1.64c0.42,0.11,1.31,0.37,1.31,1.67
		v1.97c0,0.49,0.04,1,0.41,1.3h-1.96c-0.21-0.37-0.26-0.78-0.26-1.07v-2.06c0-0.66,0-1.12-0.93-1.12h-0.85v4.25h-1.78L69.35,8.7
		L69.35,8.7z M71.13,12.73h0.93c0.81,0,0.82-0.44,0.82-0.93v-0.91c0-0.79-0.42-0.79-0.82-0.79h-0.93V12.73z"/>
	<polygon class="st0" points="76.39,8.7 81.06,8.7 81.06,10.17 78.16,10.17 78.16,12.44 80.88,12.44 80.88,13.9 78.16,13.9 
		78.16,16.87 81.18,16.87 81.18,18.36 76.39,18.36 	"/>
	<path class="st0" d="M82.41,14.96h1.78v1.12c0,0.56,0,1.12,0.86,1.12c0.88,0,0.88-0.57,0.88-1.43c0-0.68-0.14-0.97-0.6-1.28
		l-1.69-1.13c-0.9-0.62-1.15-1.28-1.15-2.27c0-0.75,0.07-1.47,0.7-1.99c0.36-0.3,1.01-0.57,1.94-0.57c1.04,0,2.46,0.42,2.46,2.08
		v0.96h-1.76v-0.7c0-0.46,0-0.98-0.78-0.98c-0.48,0-0.82,0.18-0.82,0.96c0,0.81,0.18,0.98,0.56,1.24l1.75,1.19
		c0.34,0.25,0.71,0.59,0.92,0.94c0.26,0.44,0.26,0.74,0.26,1.52c0,0.86,0,1.39-0.31,1.9c-0.53,0.86-1.64,0.96-2.3,0.96
		c-1.52,0-2.68-0.57-2.68-2.2L82.41,14.96L82.41,14.96z"/>
	<polygon class="st0" points="88.17,8.71 93.52,8.71 93.52,10.11 91.74,10.11 91.74,18.36 89.95,18.36 89.95,10.11 88.17,10.11 	"/>
	<polygon class="st0" points="42.33,27.23 41.74,27.23 41.83,22.53 41.06,27.23 40.24,27.23 39.46,22.53 39.56,27.23 38.94,27.23 
		38.94,22.03 39.91,22.03 40.64,26.67 41.35,22.03 42.33,22.03 	"/>
	<rect x="43.38" y="22.04" class="st0" width="0.64" height="5.19"/>
	<polygon class="st0" points="47.54,27.23 46.63,27.23 45.61,22.73 45.7,27.23 45.07,27.23 45.07,22.03 45.95,22.03 47,26.58 
		46.91,22.03 47.54,22.03 	"/>
	<rect x="48.58" y="22.04" class="st0" width="0.64" height="5.19"/>
	<polygon class="st0" points="52.74,27.23 51.83,27.23 50.81,22.73 50.9,27.23 50.27,27.23 50.27,22.03 51.15,22.03 52.2,26.58 
		52.11,22.03 52.74,22.03 	"/>
	<path class="st0" d="M56.32,27.23h-0.54v-0.36c-0.16,0.16-0.43,0.43-0.96,0.43c-0.23,0-0.72-0.09-0.93-0.6
		c-0.09-0.22-0.15-0.42-0.15-1.87c0-0.79,0.03-1.59,0.05-1.78c0.06-0.5,0.27-1.09,1.25-1.09c0.63,0,0.9,0.18,1.06,0.41
		c0.18,0.25,0.18,0.42,0.18,1.26h-0.61c0-0.35,0-0.6-0.03-0.74c-0.04-0.21-0.18-0.39-0.56-0.39c-0.62,0-0.64,0.43-0.66,0.85
		c-0.01,0.29-0.03,1.37-0.03,1.76c0,0.4,0.02,0.65,0.04,0.99c0.01,0.21,0.04,0.67,0.58,0.67c0.19,0,0.38-0.07,0.52-0.2
		c0.12-0.12,0.19-0.25,0.19-0.93V25.1h-0.76v-0.56h1.37L56.32,27.23L56.32,27.23z"/>
	<polygon class="st0" points="60.85,27.23 58.68,27.23 58.68,22.04 59.33,22.04 59.33,26.65 60.85,26.65 	"/>
	<rect x="61.43" y="22.04" class="st0" width="0.64" height="5.19"/>
	<polygon class="st0" points="66.51,27.23 65.92,27.23 66,22.53 65.23,27.23 64.42,27.23 63.64,22.53 63.74,27.23 63.12,27.23 
		63.12,22.03 64.09,22.03 64.81,26.67 65.53,22.03 66.51,22.03 	"/>
	<rect x="67.55" y="22.04" class="st0" width="0.64" height="5.19"/>
	<polygon class="st0" points="70.26,27.23 69.62,27.23 69.62,22.62 68.63,22.62 68.63,22.04 71.24,22.04 71.24,22.62 70.26,22.62 	
		"/>
	<polygon class="st0" points="74.02,27.23 71.68,27.23 71.68,22.04 73.96,22.04 73.96,22.62 72.33,22.62 72.33,24.16 73.76,24.16 
		73.76,24.75 72.33,24.75 72.33,26.65 74.02,26.65 	"/>
	<path class="st0" d="M74.75,27.23v-5.19h0.98c0.51,0,0.97,0,1.28,0.39c0.24,0.3,0.26,0.57,0.26,1.83c0,0.28,0,0.61-0.01,1.32
		c-0.01,0.51-0.02,0.87-0.21,1.18c-0.29,0.47-0.78,0.47-1.34,0.47H74.75z M75.39,26.65h0.42c0.41,0,0.71-0.04,0.78-0.5
		c0.04-0.24,0.04-0.97,0.04-1.24c0-0.48,0-0.66-0.01-1.16c-0.01-0.57-0.01-0.85-0.24-1.01c-0.16-0.11-0.31-0.11-0.99-0.11V26.65z"/>
</g>
</svg>
