<?xml version="1.0" encoding="utf-8"?>
<!-- Generator: Adobe Illustrator 26.0.1, SVG Export Plug-In . SVG Version: 6.00 Build 0)  -->
<svg version="1.1" id="Layer_1" xmlns="http://www.w3.org/2000/svg" xmlns:xlink="http://www.w3.org/1999/xlink" x="0px" y="0px"
	 viewBox="0 0 95 35" style="enable-background:new 0 0 95 35;" xml:space="preserve">
<style type="text/css">
	.st0{fill:#FFFFFF;}
</style>
<g>
	<path class="st0" d="M95,18.19c-0.31,0.98-1.01,1.53-1.99,1.71c-0.83,0.15-1.68,0.14-2.51-0.05c-0.42-0.1-0.8-0.29-1.1-0.61
		c-0.43-0.48-0.56-1.06-0.56-1.72c0.47,0,0.92-0.03,1.36,0.02c0.16,0.02,0.37,0.18,0.44,0.33c0.18,0.38,0.48,0.61,0.87,0.64
		c0.4,0.03,0.82,0,1.22-0.09c0.16-0.04,0.33-0.28,0.39-0.46c0.08-0.25-0.14-0.42-0.34-0.49c-0.42-0.15-0.86-0.25-1.28-0.37
		c-0.48-0.14-0.98-0.26-1.44-0.46c-1.62-0.7-1.28-2.72-0.22-3.41c0.67-0.44,1.41-0.55,2.18-0.49c0.42,0.03,0.85,0.11,1.25,0.24
		c0.95,0.32,1.41,1.04,1.52,2.05c-0.48,0-0.95,0.02-1.41-0.01c-0.14-0.01-0.33-0.15-0.41-0.29c-0.35-0.61-1.19-0.62-1.77-0.47
		c-0.26,0.06-0.38,0.25-0.39,0.5c-0.02,0.25,0.14,0.39,0.35,0.46c0.59,0.18,1.19,0.34,1.79,0.5c0.18,0.05,0.35,0.1,0.53,0.15
		c0.71,0.21,1.3,0.55,1.54,1.31C95,17.5,95,17.85,95,18.19z"/>
	<path class="st0" d="M51.14,29.88c-0.4-0.19-0.77-0.41-0.77-0.95c0.19,0,0.37,0,0.55,0c0.21,0.41,0.46,0.54,0.84,0.44
		c0.4-0.11,0.52-0.39,0.46-1.13c-0.11,0.09-0.21,0.18-0.32,0.25c-0.54,0.3-1.2,0.09-1.44-0.5c-0.33-0.83-0.33-1.69,0.01-2.52
		c0.31-0.75,1.05-0.86,1.76-0.31c0.01-0.08,0.02-0.16,0.04-0.25c0.18,0,0.36,0,0.57,0c0.01,0.1,0.02,0.2,0.02,0.31
		c0,1.05,0,2.1,0,3.14c0,0.21-0.03,0.41-0.07,0.61c-0.1,0.45-0.4,0.73-0.81,0.9C51.69,29.88,51.42,29.88,51.14,29.88z M52.3,26.72
		c-0.06-0.29-0.1-0.63-0.19-0.96c-0.07-0.27-0.28-0.42-0.57-0.42c-0.29,0-0.47,0.18-0.54,0.45c-0.16,0.61-0.17,1.22,0,1.83
		c0.08,0.27,0.23,0.47,0.56,0.47c0.33,0,0.52-0.18,0.6-0.47C52.23,27.35,52.25,27.06,52.3,26.72z"/>
	<path class="st0" d="M12.54,12.38c0.06-0.01,0.15,0.01,0.19-0.03c1.2-0.93,2.58-1.5,3.98-2.07c-0.01-0.03-0.01-0.07-0.04-0.09
		c-0.6-0.46-0.59-1.19-0.24-1.81c0.41-0.73,1-1.29,1.67-1.77c1.08-0.78,2.29-1.25,3.61-1.5c-0.69,0.5-1.38,0.97-2.04,1.48
		c-0.36,0.28-0.68,0.62-1,0.95c-0.12,0.12-0.22,0.27-0.3,0.42c-0.38,0.69-0.13,1.26,0.63,1.44c0.77,0.19,1.5,0.11,2.21-0.26
		c1.05-0.56,1.95-1.3,2.75-2.17c0.06-0.07,0.12-0.13,0.2-0.22c-0.07,1.2-1.5,3.04-3.14,4.04c1.47,1.32,2.95,2.65,4.48,4.03
		c-0.62,0.47-1.14,0.9-1.7,1.29c-0.35,0.24-0.77,0.25-1.17,0.18c-0.89-0.15-1.63,0.14-2.31,0.67c-0.95,0.74-1.6,1.71-2.2,2.73
		c-0.05,0.08-0.09,0.16-0.14,0.24c-0.01,0.02-0.04,0.02-0.03,0.02c-0.31-0.86-0.59-1.73-0.94-2.57c-0.85-2.06-2.39-3.55-4.19-4.8
		c-0.07-0.05-0.18-0.04-0.27-0.06C12.54,12.48,12.54,12.43,12.54,12.38z"/>
	<path class="st0" d="M12.54,12.38c0,0.05,0,0.09,0,0.14c-0.69,0.61-1.45,1.15-2.06,1.83c-1.44,1.6-2.52,3.43-3.03,5.54
		c-0.01,0.02-0.02,0.04-0.06,0.1c-0.09-0.14-0.18-0.27-0.26-0.39c-0.37-0.57-0.75-1.13-1.12-1.7c-0.56-0.84-1.34-1.37-2.31-1.66
		c-0.59-0.18-1.17-0.42-1.76-0.61c-0.83-0.26-1.32-0.86-1.64-1.62c-0.13-0.3-0.21-0.63-0.28-0.95c-0.04-0.22,0.09-0.34,0.32-0.35
		c1.04-0.05,1.99-0.37,2.85-0.96c0.25-0.17,0.49-0.35,0.69-0.57c0.42-0.45,0.92-0.67,1.53-0.68c0.37,0,0.74-0.02,1.11-0.01
		c0.23,0.01,0.43-0.01,0.6-0.19c0.05-0.06,0.13-0.1,0.2-0.14c0.83-0.52,1.63-0.18,1.8,0.78C10.28,11.34,11.5,11.65,12.54,12.38z"/>
	<path class="st0" d="M31.3,19.85c0-1.15,0-2.26,0-3.38c0-1.5,0-2.99,0-4.49c0-0.83,0.35-1.18,1.17-1.18c1,0,2.01-0.03,3.01,0.01
		c0.52,0.02,1.06,0.09,1.56,0.24c0.86,0.26,1.3,0.91,1.39,1.79c0.08,0.83-0.14,1.55-0.89,2.03c-0.04,0.02-0.07,0.05-0.11,0.08
		c0.01,0.02,0.01,0.05,0.02,0.06c1.1,0.54,1.37,1.36,1.26,2.48c-0.12,1.18-0.81,1.94-1.95,2.22c-0.35,0.09-0.73,0.14-1.09,0.14
		C34.23,19.86,32.79,19.85,31.3,19.85z M33.13,18.2c0.6,0,1.18,0.01,1.75,0c0.33-0.01,0.67-0.01,1-0.07
		c0.71-0.12,0.93-0.54,0.91-1.17c-0.02-0.67-0.38-1.02-1.07-1.05c-0.77-0.03-1.54-0.03-2.32-0.05c-0.09,0-0.18,0.01-0.27,0.02
		C33.13,16.66,33.13,17.4,33.13,18.2z M33.14,12.45c0,0.61,0,1.22,0,1.81c0.87,0,1.72,0.02,2.57-0.01c0.33-0.01,0.61-0.18,0.74-0.52
		c0.25-0.65-0.1-1.25-0.8-1.27C34.83,12.43,34,12.45,33.14,12.45z"/>
	<path class="st0" d="M63.22,13.56c-0.42-0.02-0.85,0.01-1.26-0.08c-0.22-0.05-0.47-0.26-0.59-0.46c-0.3-0.5-0.72-0.74-1.27-0.77
		c-0.36-0.02-0.74,0-1.09,0.08c-0.21,0.04-0.42,0.2-0.56,0.37c-0.37,0.45-0.24,1.08,0.3,1.29c0.65,0.25,1.34,0.41,2,0.62
		c0.6,0.2,1.21,0.37,1.77,0.65c0.71,0.35,1.01,0.98,1.03,1.78c0.01,0.86-0.19,1.62-0.85,2.21c-0.47,0.42-1.05,0.61-1.66,0.71
		c-0.93,0.14-1.86,0.14-2.76-0.16c-1.22-0.4-1.96-1.45-1.94-2.75c0.46,0,0.92-0.03,1.37,0.02c0.16,0.02,0.38,0.17,0.44,0.32
		c0.28,0.68,0.81,1.01,1.49,1.06c0.45,0.04,0.92,0,1.36-0.1c0.49-0.11,0.72-0.45,0.74-0.88c0.02-0.47-0.14-0.76-0.65-0.94
		c-0.77-0.26-1.56-0.46-2.35-0.68c-0.3-0.08-0.6-0.15-0.89-0.26c-0.82-0.29-1.27-0.9-1.37-1.74c-0.24-1.95,0.88-2.92,2.6-3.11
		c0.8-0.09,1.61-0.09,2.39,0.19C62.55,11.32,63.3,12.41,63.22,13.56z"/>
	<path class="st0" d="M64.19,10.8c0.35,0.02,0.69,0.01,1.03,0.05c0.44,0.06,0.74,0.41,0.74,0.86c0.01,0.56,0,1.12,0,1.72
		c0.8-0.67,1.68-0.84,2.64-0.59c1.16,0.3,2.02,1.33,2.06,2.53c0.04,1.47,0.01,2.95,0.01,4.42c0,0.02-0.02,0.04-0.03,0.06
		c-0.57,0-1.14,0-1.75,0c0-0.14,0-0.26,0-0.39c0-1.17,0-2.35-0.02-3.52c-0.01-0.28-0.1-0.56-0.2-0.83c-0.21-0.56-0.66-0.8-1.24-0.8
		c-0.57,0.01-1.02,0.25-1.2,0.8c-0.14,0.44-0.23,0.91-0.25,1.38c-0.04,1-0.01,2-0.01,3.01c0,0.11,0,0.22,0,0.35
		c-0.6,0-1.18,0-1.78,0C64.19,16.86,64.19,13.85,64.19,10.8z"/>
	<path class="st0" d="M45.66,16.87c-1.51,0-3,0-4.48,0c-0.05,0.65,0.25,1.19,0.74,1.41c0.57,0.25,1.22,0.11,1.66-0.3
		c0.15-0.14,0.36-0.27,0.56-0.28c0.48-0.04,0.96-0.01,1.44-0.01c-0.21,1.14-1.17,2.09-2.34,2.23c-0.55,0.06-1.14,0.08-1.68-0.03
		c-1.25-0.25-2.09-1.31-2.26-2.69c-0.09-0.74-0.09-1.47,0.1-2.19c0.42-1.59,1.6-2.39,3.31-2.29c1.89,0.12,2.79,1.3,2.96,2.98
		c0.03,0.25,0.04,0.5,0.05,0.76C45.72,16.57,45.68,16.7,45.66,16.87z M43.77,15.62c-0.08-1.11-0.72-1.42-1.44-1.37
		c-0.71,0.05-1.18,0.61-1.15,1.37C42.03,15.62,42.89,15.62,43.77,15.62z"/>
	<path class="st0" d="M88.48,16.87c-1.54,0-3.03,0-4.53,0c0.02,1.15,0.75,1.74,1.81,1.47c0.2-0.05,0.41-0.17,0.55-0.32
		c0.19-0.21,0.4-0.34,0.68-0.34c0.45-0.01,0.9,0,1.38,0c-0.11,0.55-0.35,1.01-0.73,1.4c-1.12,1.15-3.28,1.26-4.49,0.24
		c-0.57-0.48-0.88-1.11-1.02-1.83c-0.15-0.76-0.16-1.54,0-2.3c0.37-1.71,1.58-2.58,3.37-2.46c1.97,0.13,2.83,1.42,2.97,3.17
		C88.5,16.19,88.48,16.5,88.48,16.87z M86.55,15.62c-0.03-0.88-0.5-1.37-1.29-1.37c-0.78,0-1.27,0.51-1.31,1.37
		C84.81,15.62,85.67,15.62,86.55,15.62z"/>
	<path class="st0" d="M49.97,14.66c0.03-0.77,0.6-1.57,1.65-1.84c0.94-0.25,1.89-0.19,2.82,0.12c0.68,0.22,1.29,0.83,1.27,1.8
		c-0.03,1.59-0.01,3.18-0.01,4.77c0,0.12,0,0.25,0,0.4c-0.42,0-0.82,0.05-1.2-0.02c-0.21-0.04-0.39-0.26-0.61-0.41
		c-0.45,0.56-1.16,0.51-1.84,0.51c-0.64,0-1.24-0.19-1.71-0.62c-0.57-0.52-0.63-1.22-0.57-1.94c0.07-0.82,0.52-1.35,1.28-1.58
		c0.69-0.2,1.41-0.32,2.11-0.49c0.17-0.04,0.34-0.09,0.49-0.17c0.39-0.21,0.39-0.61,0.02-0.85c-0.44-0.27-1.38-0.24-1.77,0.09
		c-0.2,0.17-0.4,0.24-0.66,0.23C50.82,14.65,50.4,14.66,49.97,14.66z M54.02,16.39c-0.55,0.14-1.02,0.25-1.48,0.38
		c-0.23,0.06-0.46,0.15-0.67,0.26c-0.3,0.16-0.37,0.46-0.35,0.77c0.02,0.3,0.14,0.55,0.45,0.68c0.76,0.31,1.74-0.15,1.93-0.94
		C53.99,17.17,53.98,16.78,54.02,16.39z"/>
	<path class="st0" d="M77.26,19.9c-0.42,0-0.82,0.05-1.2-0.02c-0.21-0.04-0.39-0.26-0.61-0.41c-0.43,0.53-1.11,0.51-1.77,0.51
		c-0.66,0.01-1.26-0.17-1.76-0.6c-0.6-0.52-0.65-1.23-0.6-1.96c0.06-0.81,0.51-1.35,1.28-1.58c0.69-0.2,1.41-0.32,2.11-0.49
		c0.18-0.04,0.36-0.1,0.51-0.19c0.35-0.2,0.35-0.57,0.02-0.81c-0.42-0.29-1.4-0.27-1.8,0.07c-0.2,0.17-0.4,0.24-0.66,0.23
		c-0.42-0.02-0.85,0-1.28,0c0.05-0.86,0.69-1.59,1.65-1.84c0.94-0.24,1.9-0.2,2.82,0.12c0.86,0.3,1.27,0.89,1.27,1.8
		c0,1.59,0,3.18,0,4.77C77.26,19.63,77.26,19.75,77.26,19.9z M75.52,16.38c-0.34,0.09-0.65,0.18-0.97,0.27
		c-0.35,0.1-0.71,0.18-1.05,0.32c-0.34,0.14-0.49,0.48-0.43,0.85c0.06,0.41,0.25,0.64,0.65,0.7c0.76,0.1,1.66-0.18,1.8-1.3
		C75.55,16.95,75.52,16.68,75.52,16.38z"/>
	<path class="st0" d="M48.21,12.7c0.37,0,0.69,0,1.04,0c0,0.49,0,0.97,0,1.47c-0.34,0-0.67,0-1.04,0c0,0.34,0,0.66,0,0.98
		c0,0.84,0,1.68,0,2.52c0,0.6,0.13,0.73,0.72,0.73c0.1,0,0.2,0,0.32,0c0,0.48,0,0.94,0,1.43c-0.67,0.09-1.36,0.13-2.04,0.01
		c-0.49-0.09-0.84-0.6-0.85-1.2c-0.01-1-0.01-2-0.01-3.01c0-1.59,0-3.18,0-4.8c0.38,0,0.74-0.04,1.1,0.01
		c0.45,0.06,0.74,0.45,0.75,0.94C48.22,12.07,48.21,12.37,48.21,12.7z"/>
	<path class="st0" d="M79.89,19.86c-0.63,0-1.23,0-1.85,0c0-2.38,0-4.76,0-7.14c1.14-0.12,1.36-0.04,1.63,0.61
		c0.67-0.62,1.51-0.6,2.35-0.66c0,0.57,0,1.12,0,1.68c-0.29,0.03-0.58,0.05-0.87,0.1c-0.81,0.13-1.26,0.65-1.26,1.47
		C79.89,17.22,79.89,18.52,79.89,19.86z"/>
	<path class="st0" d="M31.32,23.69c0.85,0,1.69,0,2.54,0c0,0.18,0,0.35,0,0.55c-0.62,0-1.25,0-1.9,0c0,0.51,0,0.99,0,1.5
		c0.58,0,1.16,0,1.76,0c0,0.21,0,0.38,0,0.59c-0.58,0-1.17,0-1.77,0c0,0.59,0,1.15,0,1.73c0.66,0,1.31,0,1.98,0c0,0.2,0,0.37,0,0.55
		c-0.87,0-1.73,0-2.62,0C31.32,26.98,31.32,25.34,31.32,23.69z"/>
	<path class="st0" d="M68.81,25.19c0-0.29,0-0.53,0-0.77c0-0.23,0-0.46,0-0.72c0.2,0,0.39,0,0.59,0c0,1.63,0,3.25,0,4.91
		c-0.22-0.04-0.51,0.19-0.6-0.18c-0.23,0.09-0.47,0.23-0.72,0.26c-0.5,0.07-0.86-0.18-1.03-0.63c-0.34-0.85-0.32-1.73-0.02-2.59
		C67.24,24.86,68.06,24.5,68.81,25.19z M67.44,26.79c0.05,0.31,0.07,0.64,0.15,0.97c0.06,0.25,0.23,0.42,0.52,0.42
		c0.29,0,0.51-0.11,0.59-0.38c0.21-0.69,0.22-1.38-0.02-2.06c-0.09-0.26-0.3-0.41-0.59-0.4c-0.29,0.01-0.47,0.21-0.52,0.47
		C67.51,26.13,67.49,26.45,67.44,26.79z"/>
	<path class="st0" d="M75.26,25.19c0-0.29,0-0.53,0-0.77c0-0.23,0-0.46,0-0.72c0.2,0,0.39,0,0.59,0c0,1.63,0,3.26,0,4.91
		c-0.17,0-0.34,0-0.52,0c-0.02-0.07-0.03-0.16-0.06-0.26c-0.04,0.02-0.07,0.03-0.09,0.05c-0.58,0.53-1.38,0.39-1.67-0.33
		c-0.35-0.86-0.35-1.76-0.01-2.62C73.79,24.72,74.54,24.61,75.26,25.19z M73.89,26.77c0.04,0.3,0.06,0.64,0.14,0.96
		c0.06,0.26,0.23,0.44,0.54,0.45c0.31,0,0.52-0.13,0.6-0.42c0.19-0.65,0.19-1.32-0.01-1.97c-0.1-0.31-0.35-0.48-0.62-0.45
		c-0.31,0.03-0.47,0.24-0.53,0.52C73.95,26.14,73.93,26.44,73.89,26.77z"/>
	<path class="st0" d="M90.17,25.2c0-0.52,0-1,0-1.5c0.2,0,0.38,0,0.59,0c0,1.63,0,3.26,0,4.92c-0.21-0.05-0.5,0.17-0.59-0.18
		c-0.25,0.09-0.49,0.22-0.75,0.25c-0.48,0.06-0.84-0.18-1.01-0.62c-0.33-0.87-0.32-1.75-0.01-2.63
		C88.61,24.86,89.43,24.5,90.17,25.2z M88.8,26.75c0.03,0.29,0.05,0.58,0.1,0.86c0.07,0.39,0.27,0.57,0.57,0.58
		c0.32,0.01,0.54-0.15,0.63-0.52c0.16-0.61,0.15-1.22-0.03-1.83c-0.1-0.34-0.34-0.51-0.62-0.5c-0.28,0.01-0.48,0.2-0.55,0.56
		C88.85,26.18,88.83,26.47,88.8,26.75z"/>
	<path class="st0" d="M64.33,26.05c-0.21,0-0.38,0-0.55,0c-0.11-0.72,0.23-1.17,0.94-1.21c0.27-0.02,0.55,0,0.81,0.06
		c0.38,0.09,0.55,0.33,0.56,0.72c0.02,0.76,0.02,1.52,0.02,2.28c0,0.22,0.05,0.36,0.31,0.31c0,0.15,0,0.27,0,0.39
		c-0.59,0.12-0.7,0.08-0.87-0.25c-0.29,0.12-0.57,0.3-0.86,0.34c-0.82,0.09-1.1-0.51-1.07-1.17c0.03-0.52,0.31-0.84,0.83-0.96
		c0.26-0.06,0.5-0.15,0.76-0.23c0.22-0.07,0.31-0.21,0.31-0.44c0-0.23-0.06-0.43-0.29-0.54c-0.4-0.18-0.81,0.04-0.88,0.47
		C64.35,25.89,64.35,25.96,64.33,26.05z M65.5,26.69c-0.33,0.12-0.62,0.21-0.9,0.34c-0.3,0.14-0.41,0.55-0.27,0.9
		c0.1,0.24,0.35,0.35,0.63,0.27c0.31-0.08,0.53-0.35,0.53-0.68C65.5,27.27,65.5,27,65.5,26.69z"/>
	<path class="st0" d="M40.63,28.61c0-1.65,0-3.27,0-4.92c0.19,0,0.37,0,0.58,0c0,0.49,0,1,0,1.47c0.3-0.12,0.58-0.3,0.87-0.34
		c0.6-0.08,0.99,0.26,1,0.86c0.02,0.97,0.01,1.93,0.01,2.92c-0.2,0-0.39,0-0.61,0c0-0.68,0-1.36,0-2.03c0-0.21,0-0.41,0-0.62
		c-0.01-0.38-0.15-0.56-0.43-0.61c-0.31-0.05-0.65,0.14-0.74,0.43c-0.05,0.17-0.07,0.36-0.07,0.54c-0.01,0.76,0,1.51,0,2.29
		C41.03,28.61,40.85,28.61,40.63,28.61z"/>
	<path class="st0" d="M44.42,26.05c-0.2,0-0.37,0-0.54,0c-0.1-0.71,0.24-1.17,0.92-1.21c0.19-0.01,0.39-0.01,0.59,0
		c0.54,0.05,0.83,0.36,0.83,0.9c0,0.7,0.01,1.4,0,2.11c0,0.23,0.02,0.42,0.32,0.39c0,0.14,0,0.25,0,0.36
		c-0.56,0.14-0.71,0.09-0.9-0.32c-0.28,0.33-0.64,0.51-1.06,0.42c-0.23-0.05-0.49-0.18-0.63-0.36c-0.48-0.62-0.15-1.54,0.59-1.77
		c0.23-0.07,0.46-0.14,0.69-0.21c0.35-0.11,0.45-0.26,0.41-0.57c-0.04-0.3-0.2-0.45-0.49-0.47c-0.37-0.02-0.58,0.11-0.66,0.41
		C44.46,25.82,44.45,25.93,44.42,26.05z M45.61,26.69c-0.19,0.07-0.33,0.13-0.47,0.18c-0.14,0.05-0.29,0.09-0.42,0.15
		c-0.3,0.15-0.42,0.53-0.3,0.9c0.08,0.23,0.31,0.35,0.59,0.3c0.33-0.06,0.58-0.33,0.59-0.67C45.62,27.27,45.61,26.99,45.61,26.69z"
		/>
	<path class="st0" d="M78.61,28.61c0-1.65,0-3.27,0-4.91c0.85,0,1.68,0,2.54,0c0,0.18,0,0.36,0,0.56c-0.62,0-1.23,0-1.86,0
		c0,0.5,0,0.97,0,1.48c0.57,0,1.15,0,1.76,0c0,0.21,0,0.39,0,0.59c-0.58,0-1.16,0-1.78,0c0,0.77,0,1.52,0,2.28
		C79.03,28.61,78.83,28.61,78.61,28.61z"/>
	<path class="st0" d="M72.72,26.85c-0.7,0-1.32,0-1.99,0c0.04,0.31,0.06,0.61,0.13,0.89c0.09,0.35,0.3,0.5,0.61,0.49
		c0.29-0.01,0.46-0.17,0.55-0.52c0.03-0.1,0.04-0.2,0.06-0.3c0.2,0,0.39,0,0.58,0c-0.04,0.94-0.71,1.52-1.71,1.24
		c-0.41-0.12-0.61-0.43-0.72-0.81c-0.19-0.72-0.19-1.44,0.02-2.15c0.18-0.6,0.63-0.9,1.25-0.87c0.63,0.03,0.97,0.32,1.1,0.98
		C72.68,26.12,72.68,26.46,72.72,26.85z M72.06,26.35c0-0.38,0.01-0.77-0.35-0.96c-0.15-0.08-0.42-0.07-0.57,0.02
		c-0.34,0.2-0.36,0.57-0.33,0.94C71.23,26.35,71.63,26.35,72.06,26.35z"/>
	<path class="st0" d="M56.15,26.84c-0.68,0-1.31,0-1.99,0c0.04,0.3,0.05,0.57,0.1,0.84c0.07,0.36,0.29,0.55,0.6,0.55
		c0.33,0,0.49-0.16,0.58-0.56c0.02-0.09,0.04-0.18,0.06-0.27c0.19,0,0.38,0,0.56,0c0.05,0.88-0.68,1.55-1.69,1.24
		c-0.38-0.12-0.59-0.39-0.69-0.75c-0.21-0.75-0.21-1.5,0.02-2.24c0.19-0.61,0.63-0.87,1.3-0.82c0.59,0.05,0.94,0.37,1.04,1
		C56.11,26.15,56.12,26.48,56.15,26.84z M55.48,26.34c0.02-0.72-0.19-1.05-0.64-1.03c-0.42,0.01-0.66,0.42-0.61,1.03
		C54.63,26.34,55.04,26.34,55.48,26.34z"/>
	<path class="st0" d="M83.61,24.91c0.21,0,0.39,0,0.58,0c0,1.23,0,2.46,0,3.7c-0.17,0-0.34,0-0.55,0c-0.01-0.1-0.01-0.2-0.02-0.36
		c-0.29,0.37-0.64,0.47-1.04,0.45c-0.45-0.03-0.79-0.3-0.81-0.74c-0.03-1.01-0.01-2.02-0.01-3.04c0.2,0,0.38,0,0.6,0
		c0,0.51,0,1.02,0,1.52c0,0.38-0.01,0.76,0.01,1.14c0.01,0.4,0.14,0.56,0.44,0.59c0.38,0.04,0.69-0.16,0.75-0.5
		c0.04-0.19,0.04-0.39,0.05-0.58C83.62,26.37,83.61,25.66,83.61,24.91z"/>
	<path class="st0" d="M47.73,28.62c-0.22,0-0.4,0-0.59,0c0-1.23,0-2.46,0-3.7c0.18,0,0.35,0,0.53,0c0.01,0.1,0.01,0.2,0.02,0.35
		c0.31-0.39,0.68-0.5,1.12-0.44c0.42,0.06,0.72,0.31,0.73,0.73c0.02,1.01,0.01,2.02,0.01,3.05c-0.19,0-0.38,0-0.61,0
		c0-0.54,0-1.06,0-1.59c0-0.35,0-0.69,0-1.04c0-0.44-0.16-0.64-0.49-0.65c-0.38-0.01-0.7,0.27-0.71,0.65
		c-0.02,0.57-0.01,1.15-0.01,1.73C47.73,28.01,47.73,28.31,47.73,28.62z"/>
	<path class="st0" d="M87.5,28.62c-0.23,0-0.4,0-0.61,0c0-0.53,0-1.06,0-1.58c0-0.35,0.01-0.69,0-1.04
		c-0.02-0.45-0.2-0.67-0.53-0.67c-0.39,0-0.7,0.29-0.71,0.7c-0.01,0.76,0,1.52-0.01,2.28c0,0.09,0,0.18,0,0.29c-0.21,0-0.4,0-0.6,0
		c0-1.23,0-2.44,0-3.68c0.18,0,0.36,0,0.56,0c0.02,0.07,0.03,0.16,0.06,0.27c0.31-0.33,0.68-0.43,1.11-0.36
		c0.37,0.06,0.61,0.26,0.68,0.63c0.04,0.24,0.05,0.48,0.06,0.72C87.5,26.99,87.5,27.79,87.5,28.62z"/>
	<path class="st0" d="M93.81,25.99c-0.2,0-0.39,0-0.59,0c-0.01-0.08-0.01-0.17-0.03-0.26c-0.06-0.26-0.18-0.44-0.49-0.43
		c-0.33,0.01-0.54,0.13-0.59,0.41c-0.06,0.28,0.07,0.47,0.33,0.57c0.25,0.1,0.52,0.18,0.78,0.28c0.58,0.22,0.78,0.6,0.68,1.26
		c-0.08,0.5-0.5,0.86-1.04,0.87c-0.17,0-0.35,0.01-0.52-0.02c-0.62-0.11-0.93-0.57-0.89-1.28c0.18,0,0.36,0,0.56,0
		c0.02,0.1,0.05,0.22,0.08,0.34c0.09,0.34,0.28,0.48,0.62,0.47c0.28-0.01,0.49-0.12,0.57-0.41c0.09-0.33-0.03-0.57-0.37-0.72
		c-0.23-0.1-0.47-0.18-0.71-0.26c-0.53-0.2-0.77-0.58-0.71-1.11c0.06-0.5,0.43-0.84,0.99-0.88c0.2-0.02,0.42-0.02,0.62,0.02
		C93.57,24.95,93.81,25.34,93.81,25.99z"/>
	<path class="st0" d="M59.6,24.26c-0.42,0-0.81,0-1.22,0c0-0.2,0-0.36,0-0.56c1.01,0,2.03,0,3.08,0c0,0.16,0,0.34,0,0.56
		c-0.4,0-0.79,0-1.22,0c0,1.47,0,2.9,0,4.36c-0.22,0-0.41,0-0.64,0C59.6,27.17,59.6,25.73,59.6,24.26z"/>
	<path class="st0" d="M34.51,24.92c0.25,0,0.45,0,0.67,0c0.11,0.2,0.21,0.41,0.32,0.61c0.1,0.2,0.21,0.4,0.34,0.66
		c0.15-0.3,0.29-0.56,0.42-0.82c0.26-0.51,0.26-0.51,0.9-0.43c-0.27,0.5-0.53,1-0.81,1.48c-0.11,0.19-0.12,0.34-0.01,0.54
		c0.29,0.53,0.56,1.07,0.85,1.62c-0.57,0.14-0.62,0.12-0.85-0.33c-0.17-0.34-0.34-0.67-0.52-1.04c-0.24,0.5-0.47,0.95-0.69,1.42
		c-0.21,0-0.42,0-0.67,0c0.29-0.55,0.55-1.08,0.84-1.6c0.14-0.24,0.14-0.42,0-0.66C35.01,25.9,34.78,25.42,34.51,24.92z"/>
	<path class="st0" d="M39.96,26.06c-0.2,0-0.37,0-0.56,0c-0.04-0.14-0.04-0.3-0.12-0.41c-0.11-0.14-0.27-0.28-0.43-0.33
		c-0.23-0.07-0.45,0.03-0.54,0.26c-0.09,0.23-0.18,0.48-0.19,0.73c-0.02,0.43-0.01,0.88,0.06,1.3c0.06,0.43,0.3,0.62,0.62,0.61
		c0.29-0.01,0.48-0.23,0.55-0.65c0.01-0.08,0.01-0.16,0.02-0.24c0.21,0,0.4,0,0.59,0c0.01,0.62-0.27,1.12-0.74,1.3
		c-0.49,0.19-1.08,0.09-1.36-0.29c-0.16-0.21-0.28-0.48-0.33-0.74c-0.12-0.6-0.12-1.21,0.04-1.81c0.22-0.84,0.77-1.09,1.57-0.95
		C39.67,24.94,39.98,25.42,39.96,26.06z"/>
	<path class="st0" d="M62.22,28.62c-0.22,0-0.4,0-0.59,0c0-1.23,0-2.46,0-3.7c0.19,0,0.38,0,0.58,0c0.01,0.13,0.01,0.25,0.02,0.45
		c0.26-0.43,0.57-0.65,1.04-0.52c0,0.2,0,0.39,0,0.58c-0.82,0.02-1.05,0.26-1.05,1.07c0,0.6,0,1.2,0,1.8
		C62.22,28.4,62.22,28.51,62.22,28.62z"/>
	<path class="st0" d="M52.3,26.72c-0.05,0.34-0.07,0.63-0.14,0.9c-0.08,0.28-0.28,0.47-0.6,0.47c-0.32,0-0.48-0.2-0.56-0.47
		c-0.17-0.61-0.16-1.22,0-1.83c0.07-0.26,0.25-0.45,0.54-0.45c0.28,0,0.49,0.15,0.57,0.42C52.2,26.09,52.24,26.43,52.3,26.72z"/>
	<path class="st0" d="M33.13,18.2c0-0.79,0-1.54,0-2.31c0.09-0.01,0.18-0.02,0.27-0.02c0.77,0.01,1.54,0.01,2.32,0.05
		c0.69,0.03,1.05,0.38,1.07,1.05c0.02,0.63-0.2,1.04-0.91,1.17c-0.33,0.06-0.66,0.06-1,0.07C34.3,18.21,33.73,18.2,33.13,18.2z"/>
	<path class="st0" d="M33.14,12.45c0.85,0,1.68-0.02,2.51,0.01c0.7,0.02,1.05,0.62,0.8,1.27c-0.13,0.34-0.41,0.51-0.74,0.52
		c-0.85,0.02-1.7,0.01-2.57,0.01C33.14,13.67,33.14,13.05,33.14,12.45z"/>
	<path class="st0" d="M43.77,15.62c-0.88,0-1.74,0-2.6,0c-0.02-0.75,0.45-1.32,1.15-1.37C43.05,14.21,43.69,14.51,43.77,15.62z"/>
	<path class="st0" d="M86.55,15.62c-0.88,0-1.74,0-2.6,0c0.04-0.86,0.53-1.37,1.31-1.37C86.05,14.25,86.52,14.74,86.55,15.62z"/>
	<path class="st0" d="M54.02,16.39c-0.04,0.4-0.03,0.78-0.12,1.14c-0.2,0.79-1.18,1.25-1.93,0.94c-0.31-0.12-0.43-0.38-0.45-0.68
		c-0.02-0.31,0.05-0.61,0.35-0.77c0.21-0.11,0.44-0.19,0.67-0.26C53,16.63,53.47,16.52,54.02,16.39z"/>
	<path class="st0" d="M75.52,16.38c0,0.29,0.03,0.57-0.01,0.84c-0.14,1.12-1.04,1.41-1.8,1.3c-0.4-0.05-0.59-0.29-0.65-0.7
		c-0.05-0.38,0.09-0.71,0.43-0.85c0.34-0.14,0.7-0.21,1.05-0.32C74.87,16.57,75.19,16.48,75.52,16.38z"/>
	<path class="st0" d="M67.44,26.79c0.04-0.34,0.06-0.66,0.13-0.98c0.06-0.26,0.23-0.46,0.52-0.47c0.28-0.01,0.49,0.13,0.59,0.4
		c0.24,0.68,0.23,1.38,0.02,2.06c-0.08,0.27-0.31,0.38-0.59,0.38c-0.29,0-0.46-0.17-0.52-0.42C67.52,27.44,67.49,27.1,67.44,26.79z"
		/>
	<path class="st0" d="M73.89,26.77c0.04-0.33,0.06-0.63,0.12-0.92c0.06-0.27,0.21-0.49,0.53-0.52c0.27-0.02,0.52,0.14,0.62,0.45
		c0.2,0.65,0.2,1.31,0.01,1.97c-0.08,0.28-0.3,0.42-0.6,0.42c-0.31,0-0.48-0.18-0.54-0.45C73.95,27.41,73.93,27.08,73.89,26.77z"/>
	<path class="st0" d="M88.8,26.75c0.03-0.28,0.05-0.57,0.11-0.85c0.07-0.37,0.27-0.55,0.55-0.56c0.28-0.01,0.52,0.16,0.62,0.5
		c0.18,0.6,0.18,1.22,0.03,1.83c-0.1,0.37-0.31,0.53-0.63,0.52c-0.31-0.01-0.5-0.19-0.57-0.58C88.85,27.33,88.83,27.04,88.8,26.75z"
		/>
	<path class="st0" d="M65.5,26.69c0,0.31,0.01,0.57,0,0.84c-0.01,0.32-0.23,0.59-0.53,0.68c-0.29,0.08-0.54-0.03-0.63-0.27
		c-0.14-0.35-0.03-0.76,0.27-0.9C64.88,26.91,65.17,26.82,65.5,26.69z"/>
	<path class="st0" d="M45.61,26.69c0,0.3,0.01,0.58,0,0.86c-0.01,0.34-0.26,0.61-0.59,0.67c-0.28,0.05-0.51-0.06-0.59-0.3
		c-0.12-0.37,0-0.75,0.3-0.9c0.13-0.07,0.28-0.1,0.42-0.15C45.28,26.82,45.42,26.76,45.61,26.69z"/>
	<path class="st0" d="M72.06,26.35c-0.44,0-0.83,0-1.25,0c-0.03-0.37-0.01-0.74,0.33-0.94c0.15-0.09,0.42-0.09,0.57-0.02
		C72.08,25.58,72.06,25.96,72.06,26.35z"/>
	<path class="st0" d="M55.48,26.34c-0.43,0-0.84,0-1.25,0c-0.05-0.61,0.19-1.02,0.61-1.03C55.29,25.29,55.49,25.62,55.48,26.34z"/>
</g>
</svg>
