<?xml version="1.0" encoding="utf-8"?>
<!-- Generator: Adobe Illustrator 26.0.1, SVG Export Plug-In . SVG Version: 6.00 Build 0)  -->
<svg version="1.1" id="Layer_1" xmlns="http://www.w3.org/2000/svg" xmlns:xlink="http://www.w3.org/1999/xlink" x="0px" y="0px"
	 viewBox="0 0 95 35" style="enable-background:new 0 0 95 35;" xml:space="preserve">
<style type="text/css">
	.st0{fill:#FFFFFF;}
</style>
<g>
	<path class="st0" d="M95,12c0,3.7,0,7.2,0,10.8c-6.4,0-12.8,0-19.3,0c-1.1-1.7-2.3-3.6-3.6-5.4c1.2-1.8,2.4-3.6,3.5-5.4
		C82.1,12,88.4,12,95,12z"/>
	<path class="st0" d="M3,17.8c0,1.7,0,3.4,0,5.3c-1.1,0-2,0-3,0c0-3.8,0-7.4,0-11.2c0.9,0,1.8,0,2.8,0c1.2,1.6,2.5,3.3,4.1,5.4
		c0-2,0-3.7,0-5.4c1.1,0,2,0,3.1,0c0,3.7,0,7.4,0,11.2c-0.9,0-1.7,0-2.7,0c-1.3-1.8-2.6-3.6-4-5.4C3.3,17.8,3.2,17.8,3,17.8z"/>
	<path class="st0" d="M50.7,17.2c0,2.2,0,4,0,5.9c-1,0-2,0-3,0c0-3.7,0-7.4,0-11.2c1,0,1.9,0,2.9,0c1.2,1.6,2.5,3.3,4.1,5.4
		c0-2,0-3.6,0-5.4c1.1,0,2,0,3.1,0c0,3.7,0,7.4,0,11.2c-0.9,0-1.7,0.1-2.6,0.1C53.8,21.3,52.4,19.4,50.7,17.2z"/>
	<path class="st0" d="M30.5,23.1c-1.1,0-2.2,0-3.4,0c-1.3-3.7-2.6-7.4-3.9-11.2c1.3,0,2.4,0,3.7,0c0.6,2.2,1.2,4.5,2,7.2
		c0.7-2.6,1.3-4.9,2-7.2c1.1,0,2.2,0,3.6,0C33.1,15.7,31.8,19.4,30.5,23.1z"/>
	<path class="st0" d="M60.3,23.1c0-3.7,0-7.4,0-11.2c1,0,2,0,3.1,0c0,3.7,0,7.4,0,11.2C62.4,23.1,61.4,23.1,60.3,23.1z"/>
	<path class="st0" d="M68.4,17.5c-1.3-1.9-2.4-3.7-3.7-5.6c1.4,0,2.5,0,3.8,0c0.5,0.9,1.1,1.9,1.7,3.1
		C69.6,15.8,69.1,16.6,68.4,17.5z"/>
	<path class="st0" d="M71.7,22.9c-1.1,0-1.9,0-3,0c0.5-1,1-1.8,1.6-2.9C70.7,21.1,71.1,21.9,71.7,22.9z"/>
	<path class="st0" d="M21.4,13.2c-0.9-1-2.1-1.4-3.7-1.4c-1.6,0-2.9,0.5-3.7,1.4c-0.9,1-1.3,2.4-1.3,4.3c0,1.9,0.4,3.3,1.3,4.3
		c0.9,1,2.1,1.4,3.7,1.4c1.6,0,2.9-0.5,3.8-1.4c0.9-1,1.3-2.4,1.3-4.3C22.8,15.6,22.3,14.2,21.4,13.2z M17.7,20.6
		c-1.5,0-2.2-1-2.2-3.1c0-2.1,0.7-3.1,2.2-3.1c1.5,0,2.2,1,2.2,3.1C19.9,19.6,19.2,20.6,17.7,20.6z"/>
	<path class="st0" d="M44,13.2c-0.9-1-2.1-1.4-3.7-1.4c-1.6,0-2.9,0.5-3.7,1.4c-0.9,1-1.3,2.4-1.3,4.3c0,1.9,0.4,3.3,1.3,4.3
		c0.9,1,2.1,1.4,3.7,1.4c1.6,0,2.9-0.5,3.8-1.4c0.9-1,1.3-2.4,1.3-4.3C45.4,15.6,44.9,14.2,44,13.2z M40.3,20.6
		c-1.5,0-2.2-1-2.2-3.1c0-2.1,0.7-3.1,2.2-3.1c1.5,0,2.2,1,2.2,3.1C42.5,19.6,41.8,20.6,40.3,20.6z"/>
</g>
</svg>
