<?xml version="1.0" encoding="utf-8"?>
<!-- Generator: Adobe Illustrator 26.0.1, SVG Export Plug-In . SVG Version: 6.00 Build 0)  -->
<svg version="1.1" id="Layer_1" xmlns="http://www.w3.org/2000/svg" xmlns:xlink="http://www.w3.org/1999/xlink" x="0px" y="0px"
	 viewBox="0 0 95 35" style="enable-background:new 0 0 95 35;" xml:space="preserve">
<style type="text/css">
	.st0{fill-rule:evenodd;clip-rule:evenodd;fill:#343741;}
	.st1{filter:url(#Adobe_OpacityMaskFilter);}
	.st2{fill-rule:evenodd;clip-rule:evenodd;fill:#343741;}
</style>
<g id="Symbols">
	<g id="Desktop-top-menu" transform="translate(-375.000000, -33.000000)">
		<g id="MENU-Copy">
			<g id="logo-full" transform="translate(375.000000, 33.000000)">
				<polygon id="Fill-1" class="st0" points="0.06,2.06 0.06,33.72 3.63,33.72 3.63,5.62 95.06,5.62 95.06,2.06 				"/>
				<polygon id="Fill-2" class="st0" points="0.06,2.06 15.9,5.62 95.06,5.62 95.06,2.06 				"/>
				<g id="Group-5" transform="translate(10.979167, 16.715037)">
					<g id="Clip-4">
					</g>
					<defs>
						<filter id="Adobe_OpacityMaskFilter" filterUnits="userSpaceOnUse" x="-0.43" y="1.18" width="84.51" height="16.06">
							<feColorMatrix  type="matrix" values="1 0 0 0 0  0 1 0 0 0  0 0 1 0 0  0 0 0 1 0"/>
						</filter>
					</defs>
					
						<mask maskUnits="userSpaceOnUse" x="-0.43" y="1.18" width="84.51" height="16.06" id="mask-2_00000042697383934130550770000004578706793554047412_">
						<g class="st1">
							<polygon id="path-1_00000088122617296294677430000008062699035958103460_" class="st0" points="-0.43,17.25 84.08,17.25 
								84.08,1.18 -0.43,1.18 							"/>
						</g>
					</mask>
					<path id="Fill-3" class="st2" d="M62.81,17.01h2.98V1.18l-2.98,0.39V17.01z M58.21,14.46c-0.32,0.32-1.01,0.67-1.72,0.67
						c-0.95,0-1.21-0.53-1.21-1.13c0-1.05,1.03-1.32,2.45-1.36h0.47V14.46z M56.99,6.5c-2.8,0-4.03,1.15-4.35,3.08l0.03,0.01
						l2.53,0.34c0.21-0.9,0.59-1.27,1.53-1.27c1.3,0,1.46,0.71,1.46,1.88v0.38c-2.65-0.02-5.91,0.45-5.91,3.59
						c0,1.03,0.49,2.75,3.06,2.75c1.32,0,2.26-0.41,2.91-1.14l0.13,0.9h2.72l0-6.87C61.12,7.57,59.74,6.5,56.99,6.5L56.99,6.5z
						 M70.54,13.49v-4.6h2.73V6.72h-2.76V3.4L67.56,3.8v10.11c0,2.35,1.13,3.34,3.28,3.34c0.93,0,1.82-0.2,2.43-0.44V14.5
						c-0.41,0.2-1.01,0.38-1.52,0.38C70.8,14.88,70.54,14.4,70.54,13.49L70.54,13.49z M80.88,6.5c-1.46,0-2.45,0.59-3.18,1.16V1.18
						l-2.96,0.39v15.43h2.98V9.74c0.4-0.36,1.2-0.81,2.01-0.81c0.93,0,1.36,0.47,1.36,1.58v6.5h2.98V9.98
						C84.08,7.63,83.1,6.5,80.88,6.5L80.88,6.5z M45.14,10.71c0.02-1.5,0.85-2.05,1.7-2.05c0.97,0,1.5,0.57,1.5,2.05H45.14z M47,6.5
						c-2.76,0-5.04,1.68-5.04,5.39c0,2.79,1.22,5.35,5.04,5.35c2.45,0,3.99-1.24,4.36-3.16l-2.58-0.34
						c-0.22,0.72-0.65,1.19-1.61,1.19c-1.3,0-2.01-0.63-2.07-2.33h6.26c0.04-0.36,0.06-1.01,0.06-1.34C51.43,8.4,50.12,6.5,47,6.5
						L47,6.5z M37.62,13.99l-1.76-7.26h-2.9l-1.71,7.26c-0.04,0-1.41-7.26-1.41-7.26h-2.51v0h-3.39V3.4L20.98,3.8v10.11
						c0,2.35,1.13,3.34,3.28,3.34c0.93,0,1.82-0.2,2.43-0.44V14.5c-0.41,0.2-1.01,0.38-1.52,0.38c-0.95,0-1.2-0.47-1.2-1.38v-4.6
						h3.48l1.84,8.12h3.64c0,0,1.44-6.32,1.45-6.32c0.02,0,1.51,6.32,1.51,6.32h3.62L41.7,6.72h-2.77
						C38.93,6.72,37.64,13.99,37.62,13.99L37.62,13.99z M5.66,6.5c-1.4,0-2.53,0.55-3.28,1.24L2.22,6.72h-2.65v10.29h2.98V9.72
						c0.39-0.36,1.2-0.81,2.01-0.81c0.93,0,1.36,0.47,1.36,1.58v6.52h2.98V9.98C8.91,7.63,7.93,6.5,5.66,6.5L5.66,6.5z M13.4,10.71
						c0.02-1.5,0.85-2.05,1.7-2.05c0.97,0,1.5,0.57,1.5,2.05H13.4z M15.26,6.5c-2.76,0-5.04,1.68-5.04,5.39
						c0,2.79,1.22,5.35,5.04,5.35c2.45,0,3.99-1.24,4.36-3.16h0l-2.58-0.34c-0.22,0.72-0.65,1.19-1.61,1.19
						c-1.3,0-2.01-0.63-2.07-2.33h6.26c0.04-0.36,0.06-1.01,0.06-1.34C19.68,8.4,18.38,6.5,15.26,6.5L15.26,6.5z"/>
				</g>
			</g>
		</g>
	</g>
</g>
</svg>
