<?xml version="1.0" encoding="utf-8"?>
<!-- Generator: Adobe Illustrator 26.0.1, SVG Export Plug-In . SVG Version: 6.00 Build 0)  -->
<svg version="1.1" id="Layer_1" xmlns="http://www.w3.org/2000/svg" xmlns:xlink="http://www.w3.org/1999/xlink" x="0px" y="0px"
	 viewBox="0 0 95 35" style="enable-background:new 0 0 95 35;" xml:space="preserve">
<style type="text/css">
	.st0{fill:#343741;}
</style>
<path class="st0" d="M62.27,19.36c-0.27,0-0.38-0.31-0.07-0.67c0.99-0.7,1.37-0.92,1.43-0.94C64.26,17.75,63.04,19.36,62.27,19.36z
	 M94.62,15.84c-0.06-0.05-0.11-0.09-0.17-0.12c-0.01-0.01-0.02-0.02-0.04-0.03c-0.49-0.32-1.04-0.18-1.04-0.18s0.1,0.18-0.4,0.6
	c-0.03,0.03-0.05,0.05-0.07,0.07c-0.01,0.01-0.03,0.02-0.04,0.04c-1.83,1.49-4.27,2.67-6.81,3.17c0.82-0.48,2.77-2.32,1.42-3.32
	c-0.79-0.58-2.19-0.32-3.51,0.34c0.15-0.25,0.52-0.77,0.37-1.4c-0.15-0.63-1.36-0.81-2.03-0.58c-0.02,0.65-0.13,1-0.24,1.14
	c-2.96,2.6-6.84,3.99-7.16,3.67c-0.26-0.26,0.61-1.27,0.9-1.68c0.24-0.34,0.25-0.75,0.08-1.06c-0.27-0.48-0.76-0.51-1.68-0.31
	c-1.27,0.22-2.17-0.24-2.93-1.39c-0.37-0.57-1.28-0.45-1.74-0.14c0.12,0.37,0.08,0.74-0.03,1.11c-0.78,1.81-3.13,1.82-4.02,1.21
	c-0.13-0.38-0.46-1.08-1.13-1.18c-2.08-0.32-2.79,0.96-3.13,1.34c-0.74,0.84-5.73,3.02-6.9,2.08c-0.86-0.7-0.14-3.23,1.5-5.77
	c2.43-3.84,3.53-3.79,3.92-3.4c0.24,0.24,0.48,0.77-0.01,1.71c-0.04,0.07-0.07,0.13-0.1,0.19c-0.84,1.38-1.17,1.31-1.17,1.31
	c-0.27,0.83,0.08,1.28,0.34,1.49c0.28,0.28,0.68,0.18,0.81,0.14c0.41-0.14,0.67-0.5,0.9-0.87c1.18-1.82,1.91-4.72-0.02-5.76
	c-1.38-0.75-3.7,0.26-6.27,4.42c-2.28,3.69-2.93,6.6-1.28,7.98c2,1.68,6.21-0.54,7.59-1.18c-0.04,0.28,0.07,1.68,1.46,1.6
	c1.78-0.1,2.88-1.64,3.35-2.42c0.69,0.4,3.73,0.98,5.57-1.79c0.2,0.17,1.31,0.97,2.79,0.97c-0.52,0.96-1.2,2.1-0.2,2.89
	c1.4,1.1,6.18-1.55,7.57-2.37c-0.79,1.44-2.17,4.69-3.56,7.57c-0.57,1.19-1.37,2.78-0.53,3.21c0.65,0.33,1.63-0.01,1.78-0.87
	c0.19-1.12,1.27-4.24,2.04-5.92c1.46-3.24,2.77-4.91,4.98-4.91c-0.14,0.26-0.18,0.47-0.91,1.2c-0.8,0.8-1.7,0.75-1.65,1.62
	c0.03,0.51,0.55,0.65,0.69,0.69c1.15,0.31,4.35-0.64,5.62-1.1c1.46-0.53,3.44-1.51,4.91-2.44C95.12,16.96,95.19,16.32,94.62,15.84
	L94.62,15.84z M44.74,12.59c-1.23,0.09-2.72,0.5-3.27,1.73c-0.46,1.02-0.1,2.09,0.86,3.3c0.61,0.75,1.18,1.39,1.34,1.56
	c-0.44,0.09-1.4,0.06-2.37-0.12c0,0-0.01,0-0.01,0c-0.22-0.04-0.44-0.09-0.66-0.15c-0.55-0.17-0.7-0.39-0.7-0.39l-0.08,0.06v0
	l0.08-0.05c-0.37,0.05-0.68,0.31-0.89,0.59s-0.44,0.83-0.25,1.09c0.16,0.22,0.48,0.35,1.09,0.37c0.94,0.04,3.49,0.38,4.43,0.49
	c0.73,0.08,1.21-0.44,1.36-0.79c0.19-0.46-0.01-0.97-0.25-1.25c-1.21-1.39-2.9-2.92-2.29-4.19c0.28-0.58,1.64-0.47,2.09-0.33
	c0.96,0.28,1.43-0.06,1.65-0.7C47.02,13.38,46.77,12.44,44.74,12.59z M19.85,14.19c0.17,0.17-0.19,0.56-0.52,0.77
	c-0.89,0.57-1.78,0.91-2.41,1.14C17.61,14.69,19.6,13.86,19.85,14.19z M40.37,17.28c0.48-0.27,0.68-0.83,0.29-1.29
	c-0.39-0.46-1.15-0.42-1.49-0.22c-0.29,0.17-0.62,0.47-1.6,0.52c-0.93,0.05-1.3-0.35-1.88-0.35c-0.65,0-0.92,0.46-1.73,1.47
	c-0.41,0.51-1.34,1.69-1.76,1.69c-0.36,0-0.5-1.03-0.5-2.38c0-0.61-0.27-1.11-0.97-1.06c-0.58,0.04-0.68,0.79-0.98,1.14
	c-0.91,1.06-1.64,2.09-2.01,2.09c-0.46,0-0.63-1-0.63-1.77c0,0,0.14-1.21-0.96-1.43c-0.48-0.09-0.98,0.17-0.98,0.17
	c0.05,0.09,0.06,0.19,0.05,0.28c-0.14,0.51-1.1,1.24-1.1,1.24h0c-1.02,0.75-3.07,2.07-4.91,2.16c-2.15,0.11-2.53-1.02-2.61-1.51
	c1.86-0.68,3.09-1.46,3.89-2.08c0.85-0.66,1.41-1.39,1.36-2.1c-0.07-0.97-0.94-1.31-1.64-1.31c-1.5,0-3.98,0.64-5.18,3.92
	c-0.26,0.08-0.87,0.09-1.19,0c-0.43-0.11-0.43-0.3-0.43-0.3c-0.41,0.1-0.58,0.3-0.72,0.65c-0.23,0.56,0.07,1.05,0.54,1.3
	c0.34,0.19,0.87,0.3,1.62,0.22c0.11,0.99,0.77,2.81,4.29,2.67c2.8-0.11,6.08-2.41,6.37-2.59c0.12,0.57,0.52,2.63,1.71,2.63
	c1.43,0,2.9-2.13,2.9-2.13s0.37,2.14,1.81,2.14c1.2,0,2.7-1.86,3.08-2.31c0.31-0.37,0.92-1.08,1.25-1.08
	c0.32-0.05,0.97,0.37,2.81,0.01C39.13,17.69,39.96,17.51,40.37,17.28z M17.55,6.93c0.13-0.34,0.02-0.75-0.19-0.91
	c-0.7-0.53-1.34-0.23-1.81,0.29c-0.56,0.61-1.28,1.94-1.59,2.43c-2.82,4.55-4.97,9.41-4.97,9.41s-0.75-2.26-0.85-4.06
	c-0.1-1.7-0.17-3.31-0.25-4.11c-0.02-0.32-0.16-0.81-0.71-1C6.75,8.84,6.12,8.79,5.68,8.95c-0.04,0.54-0.06,0.8-0.28,1.44
	c-0.23,0.64-1.68,3.46-1.93,3.9c-1.26,2.25-2.93,5.04-3.03,5.22c-0.34,0.63-0.81,1.49,0,1.79c0.81,0.3,1.52,0.14,1.87-0.38
	c0.07-0.1,0.16-0.29,0.16-0.29s-0.23-0.19,0.27-1.37c0.15-0.31,0.33-0.67,0.53-1.07c0.04-0.07,0.08-0.14,0.12-0.22
	c0.06-0.11,0.1-0.2,0.13-0.29c0.83-1.64,1.94-3.75,2.92-5.6c-0.01,1.08,0.08,2.41,0.23,3.38c0.23,1.89,0.69,2.68,0.86,4.19
	c-0.03,1.02,0.07,1.19,0.81,1.4c0.69,0.19,1.1,0,1.36-0.64c1-2.53,3.89-8.33,6.34-11.48C16.3,8.62,17.27,7.67,17.55,6.93"/>
</svg>
