<?xml version="1.0" encoding="utf-8"?>
<!-- Generator: Adobe Illustrator 26.0.1, SVG Export Plug-In . SVG Version: 6.00 Build 0)  -->
<svg version="1.1" id="Layer_1" xmlns="http://www.w3.org/2000/svg" xmlns:xlink="http://www.w3.org/1999/xlink" x="0px" y="0px"
	 viewBox="0 0 95 35" style="enable-background:new 0 0 95 35;" xml:space="preserve">
<style type="text/css">
	.st0{fill:#CCCCCC;}
</style>
<g id="g10" transform="matrix(1.3333333,0,0,-1.3333333,0,89.76)">
	<g id="g12" transform="scale(0.1)">
		<path id="path14" class="st0" d="M261.8,524.75l-20.06,42.24l-0.14-0.15v-42.09H231.4v50.83h16.2l19.34-39.98l0.14,0.15v39.83
			h10.2v-50.83H261.8"/>
		<path id="path16" class="st0" d="M327.79,575.58h34.06v-8.45H338.7v-11.9h21.67v-8.44H338.7v-13.6h23.93v-8.44h-34.83
			L327.79,575.58"/>
		<path id="path18" class="st0" d="M421.72,524.75h-11.69l17.87,26.34l-16.67,24.49h13.45l10.27-17.25l10.97,17.25h11.69
			l-16.75-24.43l17.74-26.39h-13.37l-11.34,19.15L421.72,524.75"/>
		<path id="path20" class="st0" d="M502.83,575.58h41.17v-8.45h-15.13v-42.38h-10.91v42.38h-15.13L502.83,575.58"/>
		<path id="path22" class="st0" d="M608.37,528.98c14.28,0,20.13,8.38,20.13,21.19c0,14.99-8.81,21.6-23.24,21.17h-7.17v-42.36
			H608.37z M607.24,575.58c16.68,0,26.18-8.59,26.18-25.41c0-16.84-9.5-25.42-26.18-25.42h-13.72v50.83H607.24"/>
		<path id="path24" class="st0" d="M707.02,563.67c-0.86,6.2-6.19,8.73-11.97,8.73c-13.02,0-16.96-11.82-16.96-22.23
			c0-10.42,3.94-22.25,16.96-22.25c5.63,0,11.27,2.81,12.53,9.14h4.93c-1.47-8.5-9.29-13.36-17.45-13.36
			c-15.41,0-21.89,12.39-21.89,26.47c0,13.93,6.55,26.46,21.89,26.46c8.3,0,16.18-3.8,16.89-12.96H707.02"/>
		<path id="path26" class="st0" d="M4.34,566.3v-36.91l7.31-3.48v37.84L4.34,566.3z M0,572.41l15.99-5.58v-47.79L0,526.65V572.41"/>
		<path id="path28" class="st0" d="M52.03,549.63v-42.94l7.31-3.48v43.87L52.03,549.63z M47.69,555.74l15.98-5.59v-53.81
			l-15.98,7.61V555.74"/>
		<path id="path30" class="st0" d="M28.19,557.97v-39.93l7.31-3.48v40.85L28.19,557.97z M23.85,564.08l15.99-5.59v-50.8l-15.99,7.62
			V564.08"/>
		<path id="path32" class="st0" d="M75.88,541.29v-45.95l7.31-3.49v46.88C83.19,538.74,75.88,541.29,75.88,541.29z M71.54,547.41
			l15.99-5.59V485l-15.99,7.61V547.41"/>
		<path id="path34" class="st0" d="M87.53,598.9v-30.63l-15.99-4.99v31.22L87.53,598.9"/>
		<path id="path36" class="st0" d="M63.68,592.35v-31.52l-4.33-1.35l-11.65,4.06v24.41L63.68,592.35"/>
		<path id="path38" class="st0" d="M35.5,580.1l-7.31-2.01v-4.04l7.31-2.55C35.5,571.5,35.5,580.1,35.5,580.1z M39.84,585.79v-20.41
			l-15.99,5.59v10.43L39.84,585.79"/>
		<path id="path40" class="st0" d="M15.99,579.2v-5.48l-8.85,3.09l2.24,0.61L15.99,579.2"/>
		<path id="path42" class="st0" d="M178.52,566.3l-7.31-2.55v-37.84l7.31,3.48V566.3z M182.86,572.41v-45.76l-15.99-7.61v47.79
			L182.86,572.41"/>
		<path id="path44" class="st0" d="M135.16,555.74v-51.79l-15.99-7.61v53.81L135.16,555.74"/>
		<path id="path46" class="st0" d="M154.67,557.97l-7.32-2.56v-40.85l7.32,3.49C154.67,518.05,154.67,557.97,154.67,557.97z
			 M159.01,564.08V515.3l-16-7.62v50.8L159.01,564.08"/>
		<path id="path48" class="st0" d="M111.32,547.41V492.6L95.33,485v56.82L111.32,547.41"/>
		<path id="path50" class="st0" d="M99.67,593.21v-21.73l7.31-2.29v22.02C106.98,591.2,99.67,593.21,99.67,593.21z M95.33,598.9
			l15.99-4.4v-31.22l-15.99,4.99V598.9"/>
		<path id="path52" class="st0" d="M123.51,586.66v-22.58l7.31,2.55v18.02L123.51,586.66z M119.17,592.35l15.99-4.4v-24.41
			l-11.65-4.06l-4.34,1.35V592.35"/>
		<path id="path54" class="st0" d="M147.36,580.1v-8.6l7.32,2.55v4.04L147.36,580.1z M143.02,585.79l16-4.39v-10.43l-16-5.59V585.79
			"/>
		<path id="path56" class="st0" d="M166.87,579.2l6.61-1.77l2.24-0.61l-8.85-3.09V579.2"/>
	</g>
</g>
</svg>
