<?xml version="1.0" encoding="utf-8"?>
<!-- Generator: Adobe Illustrator 26.0.1, SVG Export Plug-In . SVG Version: 6.00 Build 0)  -->
<svg version="1.1" id="Layer_1" xmlns="http://www.w3.org/2000/svg" xmlns:xlink="http://www.w3.org/1999/xlink" x="0px" y="0px"
	 viewBox="0 0 95 35" style="enable-background:new 0 0 95 35;" xml:space="preserve">
<style type="text/css">
	.st0{fill:#CCCCCC;}
</style>
<g>
	<path class="st0" d="M39.96,16.85H38.4c-0.25,0-0.38-0.13-0.38-0.38V5.4c0-0.25,0.13-0.38,0.38-0.38h4.5
		c0.95,0,1.69,0.25,2.23,0.78c0.52,0.52,0.79,1.27,0.79,2.22v1.77c0,0.95-0.27,1.69-0.79,2.22c-0.52,0.52-1.27,0.78-2.23,0.78h-2.33
		c-0.14,0-0.22,0.06-0.22,0.21v3.48C40.36,16.72,40.22,16.85,39.96,16.85 M40.55,10.74h1.95c0.4,0,0.67-0.08,0.82-0.25
		c0.16-0.16,0.24-0.44,0.24-0.82V8.11c0-0.4-0.08-0.67-0.24-0.84c-0.16-0.16-0.44-0.25-0.82-0.25h-1.95c-0.14,0-0.21,0.06-0.21,0.21
		v3.31C40.36,10.66,40.42,10.74,40.55,10.74"/>
	<path class="st0" d="M46.76,5.86v-1.6c0-0.25,0.13-0.36,0.36-0.36h1.6c0.25,0,0.36,0.11,0.36,0.35v1.61c0,0.25-0.13,0.36-0.36,0.36
		h-1.6C46.88,6.24,46.76,6.12,46.76,5.86 M46.76,16.45V7.84c0-0.25,0.13-0.38,0.36-0.38h1.58c0.25,0,0.38,0.13,0.38,0.38v8.61
		c0,0.16-0.03,0.27-0.08,0.32s-0.16,0.08-0.28,0.08h-1.58C46.9,16.85,46.76,16.72,46.76,16.45"/>
	<path class="st0" d="M52.34,16.85h-1.57c-0.25,0-0.38-0.13-0.38-0.38V4.3c0-0.25,0.13-0.38,0.38-0.38h1.57
		c0.25,0,0.38,0.13,0.38,0.38v12.18C52.72,16.72,52.6,16.85,52.34,16.85"/>
	<path class="st0" d="M53.93,16.45V4.28c0-0.25,0.13-0.38,0.38-0.38h1.57c0.25,0,0.38,0.13,0.38,0.38v4.15h0.08
		c0.13-0.33,0.38-0.59,0.71-0.76c0.35-0.17,0.71-0.25,1.09-0.25h0.59c0.97,0,1.73,0.25,2.25,0.78c0.52,0.52,0.79,1.27,0.79,2.23
		v3.42c0,0.97-0.27,1.71-0.79,2.23c-0.52,0.52-1.28,0.78-2.25,0.78h-4.42C54.05,16.85,53.93,16.72,53.93,16.45 M56.46,14.82h1.88
		c0.4,0,0.67-0.08,0.84-0.25c0.16-0.16,0.25-0.44,0.25-0.84v-3.2c0-0.4-0.08-0.67-0.25-0.84c-0.16-0.16-0.44-0.25-0.84-0.25h-0.81
		c-0.85,0-1.27,0.46-1.27,1.39v3.78C56.27,14.76,56.33,14.82,56.46,14.82"/>
	<path class="st0" d="M65.8,16.85h-0.44c-0.97,0-1.73-0.25-2.25-0.78c-0.52-0.52-0.79-1.27-0.79-2.23v-3.39
		c0-0.97,0.27-1.71,0.79-2.23c0.52-0.52,1.28-0.78,2.25-0.78h4.26c0.27,0,0.41,0.13,0.41,0.38v8.61c0,0.25-0.14,0.38-0.41,0.38
		h-1.55c-0.25,0-0.38-0.13-0.38-0.38v-0.6h-0.08c-0.14,0.33-0.38,0.59-0.71,0.74C66.55,16.77,66.18,16.85,65.8,16.85 M67.69,13.42
		V9.68c0-0.13-0.08-0.21-0.22-0.21h-1.73c-0.4,0-0.67,0.08-0.82,0.25c-0.16,0.16-0.24,0.44-0.24,0.84v3.17
		c0,0.4,0.08,0.67,0.24,0.84c0.16,0.16,0.44,0.25,0.82,0.25h0.68C67.26,14.82,67.69,14.35,67.69,13.42"/>
	<path class="st0" d="M72.74,16.85h-1.57c-0.25,0-0.38-0.13-0.38-0.38V7.84c0-0.25,0.13-0.38,0.38-0.38h1.57
		c0.25,0,0.38,0.13,0.38,0.38v0.63h0.08c0.14-0.33,0.38-0.59,0.71-0.76c0.35-0.17,0.71-0.25,1.09-0.25h0.67
		c0.25,0,0.36,0.13,0.36,0.38v1.27c0,0.14-0.03,0.25-0.08,0.3c-0.05,0.06-0.16,0.08-0.28,0.06H74.4c-0.84,0-1.27,0.48-1.27,1.44
		v5.54C73.12,16.72,72.99,16.85,72.74,16.85"/>
	<path class="st0" d="M79.59,16.85h-0.44c-0.97,0-1.73-0.25-2.25-0.78c-0.52-0.52-0.79-1.27-0.79-2.23v-3.39
		c0-0.97,0.27-1.71,0.79-2.23c0.52-0.52,1.28-0.78,2.25-0.78h4.26c0.27,0,0.41,0.13,0.41,0.38v8.61c0,0.25-0.14,0.38-0.41,0.38
		h-1.55c-0.25,0-0.38-0.13-0.38-0.38v-0.6H81.4c-0.14,0.33-0.38,0.59-0.71,0.74C80.32,16.77,79.97,16.85,79.59,16.85 M81.46,13.42
		V9.68c0-0.13-0.08-0.21-0.22-0.21h-1.73c-0.4,0-0.67,0.08-0.82,0.25c-0.16,0.16-0.24,0.44-0.24,0.84v3.17
		c0,0.4,0.08,0.67,0.24,0.84c0.16,0.16,0.44,0.25,0.82,0.25h0.68C81.03,14.82,81.46,14.35,81.46,13.42"/>
	<path class="st0" d="M45.88,20.87h2.72c0.25,0,0.38,0.13,0.38,0.38v11.07c0,0.25-0.13,0.38-0.38,0.38h-1.52
		c-0.25,0-0.38-0.13-0.38-0.38V23.6h-0.08l-1.88,6.17c-0.08,0.25-0.22,0.36-0.46,0.36h-1.55c-0.24,0-0.38-0.13-0.46-0.36l-1.92-6.19
		h-0.08v8.76c0,0.14-0.03,0.25-0.08,0.3c-0.05,0.05-0.16,0.08-0.32,0.08h-1.5c-0.25,0-0.38-0.13-0.38-0.38V21.27
		c0-0.25,0.13-0.38,0.38-0.38h2.74c0.17,0,0.28,0.08,0.35,0.25l1.98,6.49h0.11l1.96-6.51C45.57,20.95,45.68,20.87,45.88,20.87"/>
	<path class="st0" d="M50.37,21.73v-1.6c0-0.25,0.13-0.36,0.36-0.36h1.6c0.24,0,0.36,0.11,0.36,0.35v1.62
		c0,0.25-0.13,0.36-0.36,0.36h-1.6C50.49,22.11,50.37,21.98,50.37,21.73 M50.37,32.32v-8.61c0-0.25,0.13-0.38,0.36-0.38h1.58
		c0.25,0,0.38,0.13,0.38,0.38v8.61c0,0.16-0.03,0.27-0.08,0.32c-0.05,0.05-0.16,0.08-0.28,0.08h-1.58
		C50.51,32.72,50.37,32.57,50.37,32.32"/>
	<path class="st0" d="M55.86,32.72h-1.57c-0.25,0-0.38-0.13-0.38-0.38v-8.61c0-0.25,0.13-0.38,0.38-0.38h1.57
		c0.25,0,0.38,0.13,0.38,0.38v0.6h0.08c0.27-0.67,0.87-1,1.8-1h0.59c1.93,0,2.9,1,2.9,3.01v6c0,0.25-0.14,0.38-0.41,0.38h-1.55
		c-0.25,0-0.38-0.13-0.38-0.38v-5.89c0-0.4-0.08-0.67-0.25-0.84c-0.16-0.16-0.44-0.25-0.84-0.25h-0.67c-0.84,0-1.27,0.48-1.27,1.39
		v5.57C56.26,32.59,56.11,32.72,55.86,32.72"/>
	<path class="st0" d="M69.54,32.72h-4.07c-0.97,0-1.73-0.25-2.25-0.78c-0.52-0.52-0.79-1.27-0.79-2.23v-3.39
		c0-0.97,0.27-1.71,0.79-2.23c0.52-0.52,1.28-0.78,2.25-0.78h1.46c0.97,0,1.73,0.25,2.25,0.78c0.52,0.52,0.79,1.27,0.79,2.23v2.34
		c0,0.25-0.13,0.38-0.38,0.38h-4.62c-0.14,0-0.22,0.06-0.22,0.21v0.41c0,0.38,0.08,0.65,0.25,0.82c0.16,0.16,0.44,0.25,0.84,0.25
		h3.72c0.25,0,0.38,0.14,0.38,0.41v1.22c0,0.14-0.03,0.24-0.08,0.28C69.79,32.68,69.7,32.72,69.54,32.72 M64.96,27.47h2.5
		c0.14,0,0.21-0.06,0.21-0.21v-0.89c0-0.4-0.08-0.67-0.24-0.82s-0.44-0.24-0.82-0.24h-0.78c-0.4,0-0.67,0.08-0.82,0.24
		s-0.24,0.44-0.24,0.82v0.89C64.76,27.41,64.82,27.47,64.96,27.47"/>
	<path class="st0" d="M72.75,32.72h-1.57c-0.25,0-0.38-0.13-0.38-0.38v-8.61c0-0.25,0.13-0.38,0.38-0.38h1.57
		c0.25,0,0.38,0.13,0.38,0.38v0.63h0.08c0.14-0.33,0.38-0.59,0.71-0.76c0.35-0.17,0.71-0.25,1.09-0.25h0.67
		c0.25,0,0.36,0.13,0.36,0.38v1.27c0,0.14-0.03,0.25-0.08,0.3c-0.06,0.06-0.16,0.08-0.29,0.06h-1.27c-0.84,0-1.27,0.48-1.27,1.44
		v5.54C73.13,32.59,73.01,32.72,72.75,32.72"/>
	<path class="st0" d="M79.61,32.72h-0.44c-0.97,0-1.73-0.25-2.25-0.78c-0.52-0.52-0.79-1.25-0.79-2.23v-3.39
		c0-0.97,0.27-1.71,0.79-2.23c0.52-0.52,1.28-0.78,2.25-0.78h4.26c0.27,0,0.41,0.13,0.41,0.38v8.61c0,0.25-0.14,0.38-0.41,0.38
		h-1.55c-0.25,0-0.38-0.13-0.38-0.38v-0.6h-0.08c-0.14,0.33-0.38,0.59-0.71,0.74C80.35,32.62,79.99,32.72,79.61,32.72 M81.48,29.28
		v-3.74c0-0.13-0.08-0.21-0.22-0.21h-1.73c-0.4,0-0.67,0.08-0.82,0.25c-0.16,0.16-0.24,0.44-0.24,0.84v3.17
		c0,0.4,0.08,0.67,0.24,0.84c0.16,0.16,0.44,0.25,0.82,0.25h0.68C81.07,30.69,81.48,30.21,81.48,29.28"/>
	<path class="st0" d="M86.97,32.72H85.4c-0.25,0-0.38-0.13-0.38-0.38V20.16c0-0.25,0.13-0.38,0.38-0.38h1.57
		c0.25,0,0.38,0.13,0.38,0.38v12.18C87.37,32.59,87.23,32.72,86.97,32.72"/>
	<path class="st0" d="M92.12,32.72h-3.5c-0.25,0-0.36-0.13-0.36-0.38v-1.17c0-0.14,0.03-0.24,0.08-0.28
		c0.05-0.05,0.14-0.08,0.3-0.08h3.07c0.6,0,0.9-0.19,0.9-0.55v-0.1c0-0.3-0.25-0.57-0.76-0.85l-1.82-1.01
		c-0.63-0.32-1.09-0.67-1.38-1.03c-0.3-0.36-0.44-0.84-0.44-1.42c0-0.85,0.22-1.49,0.68-1.9c0.46-0.41,1.17-0.6,2.14-0.6h3.07
		c0.24,0,0.36,0.13,0.36,0.38v1.2c0,0.14-0.03,0.24-0.08,0.28c-0.05,0.06-0.14,0.08-0.3,0.08h-2.56c-0.6,0-0.9,0.16-0.9,0.46v0.1
		c0,0.27,0.27,0.54,0.79,0.82l1.87,1.11c0.63,0.35,1.09,0.7,1.35,1.06c0.25,0.36,0.38,0.84,0.38,1.42
		C95,31.89,94.03,32.72,92.12,32.72"/>
</g>
<path class="st0" d="M12.03,29.75c1.3,0.89,2.68,1.65,4.1,2.25c1.38-0.55,2.77-1.27,4.15-2.15c-1.35-0.82-2.72-1.79-4.08-2.9
	C14.66,28.11,13.3,29.03,12.03,29.75 M25.41,26.89c-1,1.01-2.14,1.98-3.39,2.9c0.03,0.02,0.06,0.03,0.1,0.05
	c0.22,0.13,0.44,0.24,0.66,0.35c0.85,0.44,1.63,0.78,2.38,1.03c1.82-1.2,3.36-2.74,4.58-4.56c-0.25-0.76-0.57-1.55-0.95-2.31
	c-0.09-0.22-0.21-0.44-0.33-0.68c-0.02-0.05-0.05-0.08-0.06-0.13C27.49,24.7,26.49,25.83,25.41,26.89 M3.8,23.72
	c-0.06,0.13-0.13,0.24-0.19,0.36c-0.4,0.78-0.73,1.57-1.01,2.39c1.19,1.82,2.68,3.36,4.46,4.58c0.24-0.08,0.46-0.16,0.71-0.24
	c0.57-0.21,1.16-0.46,1.73-0.74c0.22-0.11,0.44-0.22,0.66-0.33l0.13-0.06c-1.16-0.87-2.26-1.84-3.39-2.96
	c-1.03-1.05-1.99-2.2-2.9-3.44C3.96,23.44,3.88,23.58,3.8,23.72 M0.68,20.92c-0.06,0.25-0.11,0.51-0.16,0.85
	c0.33,1.28,0.82,2.53,1.47,3.7c0.24-0.62,0.51-1.22,0.81-1.8l0.03-0.06c0.19-0.36,0.4-0.76,0.62-1.14c-0.79-1.17-1.49-2.42-2.12-3.8
	C1.04,19.46,0.82,20.21,0.68,20.92 M29.24,22.28c0.25,0.43,0.46,0.84,0.65,1.2c0.33,0.67,0.59,1.25,0.79,1.77
	c0.41-0.74,0.78-1.52,1.08-2.33c0.16-0.43,0.3-0.87,0.43-1.33c-0.06-0.35-0.11-0.62-0.17-0.87c-0.19-0.81-0.4-1.55-0.65-2.26
	C30.72,19.88,30.02,21.13,29.24,22.28 M21.2,22.58c-1.28,1.27-2.72,2.55-4.26,3.78c1.36,1.08,2.77,2.06,4.18,2.91
	c1.28-0.9,2.52-1.93,3.67-3.06c1.14-1.11,2.18-2.31,3.1-3.59c-0.78-1.36-1.73-2.79-2.82-4.24C23.8,19.88,22.5,21.28,21.2,22.58
	 M4.54,22.41c0.89,1.25,1.92,2.49,3.04,3.64c1.14,1.17,2.36,2.22,3.61,3.12c1.39-0.79,2.82-1.74,4.23-2.83
	c-1.47-1.22-2.88-2.52-4.2-3.86c-1.3-1.31-2.56-2.74-3.78-4.24C6.38,19.59,5.4,20.98,4.54,22.41 M0,17.12v1.11c0,0.03,0,0.06,0,0.1
	c0.02,0.38,0.05,0.76,0.1,1.14c0.21-0.68,0.44-1.38,0.73-2.07c-0.25-0.65-0.47-1.31-0.66-2C0.08,15.98,0.03,16.55,0,17.12
	 M32.06,16.74c-0.06,0.17-0.13,0.33-0.19,0.51c0.29,0.73,0.54,1.44,0.74,2.15c0.06-0.46,0.1-0.93,0.11-1.38
	c0.03-0.98-0.02-1.96-0.14-2.95C32.43,15.65,32.25,16.2,32.06,16.74 M1.82,17.42c0.55,1.39,1.28,2.77,2.15,4.13
	c0.82-1.33,1.8-2.71,2.9-4.08c-1.14-1.5-2.07-2.88-2.8-4.13C3.18,14.63,2.42,16.01,1.82,17.42 M25.81,17.33
	c1.11,1.36,2.07,2.74,2.9,4.08c0.89-1.38,1.61-2.77,2.15-4.15c-0.6-1.41-1.36-2.79-2.25-4.1C27.88,14.43,26.96,15.79,25.81,17.33
	 M0.62,13.21c0.03,0.22,0.08,0.46,0.13,0.7c0.14,0.73,0.35,1.52,0.6,2.3c0.6-1.27,1.35-2.53,2.18-3.77c-0.22-0.4-0.44-0.81-0.63-1.2
	c-0.27-0.55-0.51-1.12-0.71-1.71C1.52,10.66,1,11.91,0.62,13.21 M11.99,13.19c-1.46,1.44-2.77,2.88-3.91,4.29
	c1.25,1.57,2.52,2.99,3.85,4.35c1.38,1.41,2.82,2.74,4.26,3.93c1.63-1.3,3.06-2.55,4.35-3.85c1.49-1.46,2.8-2.88,3.93-4.26
	c-1.11-1.42-2.41-2.9-3.83-4.35c-1.54-1.55-2.95-2.83-4.29-3.93C14.96,10.44,13.54,11.7,11.99,13.19 M30.49,9.36
	c-0.21,0.57-0.46,1.14-0.73,1.71c-0.08,0.16-0.16,0.32-0.25,0.48c-0.13,0.24-0.25,0.49-0.4,0.74c0.81,1.14,1.54,2.39,2.2,3.75
	c0.25-0.76,0.46-1.54,0.6-2.3c0.06-0.3,0.11-0.6,0.16-0.9c-0.36-1.27-0.89-2.49-1.55-3.63C30.53,9.25,30.51,9.3,30.49,9.36
	 M7.77,8.89c-1.16,1.12-2.2,2.33-3.13,3.58c0.78,1.36,1.73,2.79,2.83,4.26c1.12-1.38,2.39-2.75,3.86-4.2
	c1.31-1.3,2.74-2.57,4.24-3.78c-1.36-1.08-2.75-2.06-4.18-2.91C10.15,6.72,8.93,7.75,7.77,8.89 M17.1,8.6
	c1.5,1.2,2.93,2.49,4.24,3.78c1.35,1.31,2.64,2.72,3.86,4.2c1.09-1.42,2.04-2.83,2.83-4.23c-0.9-1.25-1.95-2.45-3.12-3.61
	c-1.16-1.14-2.39-2.15-3.64-3.04C19.85,6.54,18.45,7.53,17.1,8.6 M2.82,8.52c0.25,0.76,0.55,1.52,0.93,2.28
	c0.13,0.25,0.27,0.52,0.4,0.79c0.98-1.28,1.95-2.38,2.96-3.37c1.04-1.03,2.2-2,3.42-2.9c-0.14-0.08-0.3-0.16-0.44-0.24
	C9.96,5.02,9.85,4.96,9.74,4.9c-0.78-0.4-1.52-0.71-2.2-0.97C5.67,5.15,4.08,6.69,2.82,8.52 M22.94,4.75
	c-0.11,0.06-0.24,0.13-0.36,0.19c-0.14,0.08-0.3,0.14-0.44,0.22c1.24,0.89,2.39,1.87,3.44,2.9c1.12,1.11,2.09,2.22,2.96,3.37
	l0.06-0.13c0.11-0.24,0.22-0.46,0.33-0.67c0.28-0.59,0.54-1.16,0.74-1.73c0.1-0.24,0.17-0.48,0.24-0.71
	c-1.22-1.79-2.77-3.29-4.59-4.46C24.51,4.03,23.73,4.36,22.94,4.75 M12.19,5.21c1.23,0.73,2.63,1.66,4.13,2.8
	c1.39-1.09,2.75-2.07,4.08-2.9c-1.35-0.87-2.74-1.6-4.13-2.15C14.87,3.57,13.49,4.31,12.19,5.21"/>
<path class="st0" d="M14.28,33.73c0.74,0.11,1.49,0.16,2.23,0.16h0.06c0.21,0,0.41,0,0.62-0.02c0.38-0.02,0.76-0.05,1.14-0.1
	c-0.68-0.21-1.38-0.44-2.07-0.73C15.63,33.32,14.96,33.54,14.28,33.73 M17.51,32.56c0.82,0.28,1.57,0.51,2.26,0.65
	c0.25,0.06,0.51,0.11,0.85,0.16c1.28-0.33,2.53-0.82,3.7-1.47c-0.62-0.24-1.22-0.51-1.8-0.81l-0.06-0.03
	c-0.36-0.19-0.76-0.4-1.14-0.62C20.14,31.21,18.89,31.91,17.51,32.56 M10.07,30.97c-0.55,0.27-1.12,0.51-1.71,0.71
	c1.16,0.68,2.41,1.2,3.69,1.57c0.22-0.03,0.46-0.08,0.7-0.13c0.73-0.14,1.52-0.35,2.28-0.6c-1.27-0.6-2.53-1.35-3.77-2.18
	C10.88,30.56,10.48,30.77,10.07,30.97 M8.06,3.33c0.05,0.02,0.11,0.03,0.16,0.06C8.79,3.6,9.36,3.84,9.93,4.12
	c0.16,0.08,0.32,0.16,0.48,0.25c0.24,0.13,0.49,0.25,0.74,0.4c1.14-0.79,2.39-1.54,3.75-2.2c-0.76-0.25-1.54-0.46-2.3-0.6
	C12.3,1.9,12,1.86,11.7,1.81C10.42,2.14,9.2,2.66,8.06,3.33 M19.62,1.87c-0.81,0.19-1.55,0.4-2.26,0.65
	c1.38,0.63,2.63,1.33,3.78,2.12c0.43-0.25,0.84-0.46,1.2-0.65c0.66-0.33,1.25-0.59,1.77-0.79c-0.74-0.41-1.52-0.78-2.33-1.08
	c-0.43-0.16-0.87-0.3-1.33-0.43C20.14,1.76,19.87,1.81,19.62,1.87 M16.17,1.13c-0.74,0-1.49,0.06-2.23,0.16
	c0.57,0.16,1.12,0.33,1.66,0.52C15.77,1.87,15.93,1.94,16.1,2c0.71-0.29,1.44-0.54,2.15-0.74c-0.46-0.06-0.93-0.1-1.38-0.13
	c-0.21-0.02-0.41-0.02-0.62-0.02h-0.09V1.13z"/>
</svg>
