<?xml version="1.0" encoding="utf-8"?>
<!-- Generator: Adobe Illustrator 26.0.1, SVG Export Plug-In . SVG Version: 6.00 Build 0)  -->
<svg version="1.1" id="Layer_1" xmlns="http://www.w3.org/2000/svg" xmlns:xlink="http://www.w3.org/1999/xlink" x="0px" y="0px"
	 viewBox="0 0 95 35" style="enable-background:new 0 0 95 35;" xml:space="preserve">
<style type="text/css">
	.st0{fill:#343741;}
</style>
<g>
	<path class="st0" d="M82.98,15.7c-1-0.13-5.39-1.08-9.04,2.57c-2.99,2.99-6.51,6.4-6.51,6.4h4.01c0,0,0.49-0.49,1.48-1.53h4.17
		l-0.36,1.53h4.14L82.98,15.7z M77.62,20.88h-2.53c0.13-0.13,0.26-0.26,0.39-0.4c2.48-2.65,2.9-2.46,2.9-2.46L77.62,20.88z"/>
	<path class="st0" d="M45.83,15.7c-1-0.13-5.38-1.08-9.04,2.57c-2.98,2.99-6.51,6.4-6.51,6.4h4.01c0,0,0.49-0.49,1.48-1.53h4.17
		l-0.36,1.53h4.14L45.83,15.7z M40.48,20.88h-2.53c0.13-0.13,0.26-0.26,0.39-0.4c2.48-2.65,2.9-2.46,2.9-2.46L40.48,20.88z"/>
	<path class="st0" d="M60.39,15.61c-1.7,0-2.87,0.65-3.61,1.93l-1.44,2.55l-2.02-4.48l-0.78,0c-1.7,0-3.42,1.19-4.23,2.6l-3.8,6.47
		h3.92l2.57-4.43l1.98,4.43h3.51l5.25-9.06L60.39,15.61z"/>
	<path class="st0" d="M28.78,15.42c-4.96,0-8.09,2.54-9.42,4.85c-1.27,2.21-0.04,4.91,4.74,4.7c0,0,0.97,1.25,2.96,1.32
		c1.99,0.07,3.22-1.61,3.22-1.61s-0.68,0.23-1.41,0.14c-0.92-0.11-1.23-0.63-1.23-0.63c2.63-1.1,4.13-2.47,4.96-3.92
		C33.93,17.96,33.73,15.42,28.78,15.42z M27.82,20.23c-1,1.5-2.14,2.59-3.55,2.52c-1.71-0.09-1.2-1.34-0.32-2.56
		c1.06-1.46,2.38-2.72,3.81-2.65C29.46,17.62,28.82,18.73,27.82,20.23z"/>
	<path class="st0" d="M64.99,15.61c-1.72,0-2.94,0.75-3.47,1.69l-0.44,0.76h3.9l-3.84,6.62h4.28l3.84-6.61l1.19-0.03
		c1.54,0,2.94-0.75,3.47-1.69l0.43-0.73L64.99,15.61z"/>
	<path class="st0" d="M89.57,18.48c3.07,0.86,4.43,1.62,4.26,3.01c-0.26,2.08-3.27,3.46-6.98,3.39c-3.71-0.07-5.43-1.34-5.43-1.34
		l2.29-1.89c0,0,1.61,0.86,3.82,0.9c1.41,0.03,1.58-0.31,1.61-0.41c0.09-0.29-0.3-0.4-1.28-0.73c-1.95-0.65-3.86-1.28-3.64-3.05
		c0.26-2.11,3.69-3.08,6.66-3c2.06,0.05,4.13,0.81,4.13,0.81c-0.82,1.47-2.23,1.65-2.75,1.64c-0.7-0.01-1.28-0.17-2.34-0.2
		c-0.87-0.02-1.15,0.34-1.01,0.55C89.01,18.32,89.16,18.37,89.57,18.48z"/>
</g>
<path class="st0" d="M0,7.18l0,5.34c0.01,0.16,0.03,0.5,0.09,0.68c0.89,2.8,5.96,1.69,9.27,6.41c0,0,0.63,0.07,1.05-0.69
	c0,0-0.88-0.07-0.93-0.73c0,0,1.79,0.36,2.87,1.23c0,0,0.01,0.39-1.24,0.4c-0.25,0.02-0.36,0.03-0.75,0.42c0,0-1,1.09-2.03,1.07
	c-0.31-0.01-0.55-0.13-0.56-0.22c0,0-0.04-0.13,0.19-0.08c0,0,0.55,0.15,0.8-0.09c0,0-0.23-0.33-0.64-0.33
	c-0.24-0.01-0.5,0.07-0.66,0.29c0,0-0.81,1.02,1.5,2.09c3.36,1.47,5.23,3.64,4.96,4.2c-0.33-0.24-3.06-3.63-7.76-4.02
	c0,0,0.02-0.07,0.04-0.17c0.49-2.35-0.6-3.95-1.84-4.86C3.1,17.11,0.72,16.28,0,14.04l0,13.77l22.44,0L0,7.18z"/>
</svg>
