<?xml version="1.0" encoding="utf-8"?>
<!-- Generator: Adobe Illustrator 26.0.1, SVG Export Plug-In . SVG Version: 6.00 Build 0)  -->
<svg version="1.1" id="Layer_1" xmlns="http://www.w3.org/2000/svg" xmlns:xlink="http://www.w3.org/1999/xlink" x="0px" y="0px"
	 viewBox="0 0 95 35" style="enable-background:new 0 0 95 35;" xml:space="preserve">
<style type="text/css">
	.st0{fill:#CCCCCC;}
</style>
<g>
	<path class="st0" d="M48.5,0.06c0.84-0.12,1.72-0.06,2.49,0.32c0.73,0.35,1.36,0.91,1.78,1.61c1.33,2.31,2.66,4.61,3.99,6.91
		c0.2,0.34,0.4,0.68,0.54,1.06c0.38,1.03,0.32,2.21-0.16,3.2c-0.65,1.39-2.15,2.35-3.7,2.3c-1.39,0.03-2.77-0.74-3.47-1.94
		c1.01-0.02,2.03,0,3.04-0.01c0.76,0.02,1.49-0.48,1.8-1.17c0.28-0.57,0.24-1.28-0.09-1.82c-1.34-2.33-2.68-4.65-4.02-6.97
		c-0.16-0.31-0.17-0.66-0.29-0.99C50.06,1.54,49.36,0.68,48.5,0.06z"/>
	<path class="st0" d="M42.29,2.03c0.56-1,1.57-1.72,2.7-1.95c1-0.19,2.07-0.05,2.94,0.48c1.29,0.75,2.08,2.25,2,3.74
		c-0.06,0.59-0.15,1.21-0.51,1.7c-0.51-0.84-0.98-1.7-1.48-2.54c-0.28-0.48-0.75-0.86-1.3-0.98c-0.66-0.17-1.4,0.06-1.88,0.54
		c-0.21,0.21-0.36,0.48-0.5,0.74c-1.19,2.06-2.38,4.12-3.57,6.19c-0.15,0.25-0.26,0.52-0.47,0.72c-0.91,0.78-1.57,1.9-1.63,3.11
		c0.01,0.09-0.03,0.15-0.1,0.2c-0.85-0.97-1.13-2.37-0.82-3.62c0.16-0.68,0.56-1.26,0.9-1.86C39.8,6.34,41.05,4.18,42.29,2.03z"/>
	<path class="st0" d="M45.71,3.24c0.56-0.26,1.28,0.01,1.59,0.53c1.1,1.92,2.22,3.82,3.3,5.75c-0.99,0-1.98,0.03-2.96-0.02
		c-0.88-1.48-1.73-2.97-2.59-4.47C44.67,4.39,45.02,3.49,45.71,3.24z"/>
	<path class="st0" d="M45.63,7.48c0.48,0.78,0.92,1.58,1.38,2.37c0.08,0.11,0.11,0.25,0.02,0.37c-0.81,1.42-1.63,2.82-2.44,4.24
		c-0.3,0.58-1.09,0.88-1.68,0.56c-0.54-0.23-0.85-0.87-0.72-1.44c0.05-0.19,0.14-0.36,0.23-0.52C43.49,11.19,44.56,9.34,45.63,7.48z
		"/>
	<path class="st0" d="M39.37,13.29c0.42-1.72,2.07-3.05,3.85-3.05c-0.5,0.88-1.02,1.75-1.52,2.64c-0.25,0.45-0.33,0.99-0.19,1.49
		c0.17,0.7,0.77,1.27,1.47,1.43c0.43,0.11,0.87,0.05,1.31,0.06c2.46,0.01,4.93-0.02,7.39,0.01c0.71,0.21,1.46,0.39,2.2,0.29
		c0.6-0.04,1.18-0.23,1.73-0.47c-0.55,1.56-2.09,2.72-3.76,2.74c-2.76,0.01-5.52,0-8.28,0.01c-1.37,0.08-2.76-0.56-3.56-1.68
		C39.3,15.76,39.05,14.46,39.37,13.29z"/>
	<path class="st0" d="M47.84,10.23c1.72-0.01,3.44-0.01,5.16,0c0.59-0.02,1.12,0.45,1.24,1.01c0.2,0.75-0.46,1.57-1.23,1.55
		c-2.21,0.01-4.42,0.01-6.62,0C46.84,11.92,47.36,11.09,47.84,10.23z"/>
	<path class="st0" d="M55.51,21.89c2.23,0.03,4.47,0.01,6.71,0.02c-0.01,0.57,0,1.15,0,1.72c-1.62,0-3.23,0-4.84,0
		c0,1.29,0,2.57,0,3.86c1.62,0,3.23,0,4.84,0c-0.01,0.56-0.01,1.12,0,1.68c-1.62,0.01-3.23,0-4.84,0c0,1.29,0.01,2.58-0.01,3.87
		c1.62,0.01,3.23,0,4.84,0.01c-0.01,0.59,0,1.18,0,1.78c-2.24,0.01-4.47-0.02-6.71,0.02C55.51,30.52,55.51,26.2,55.51,21.89z"/>
	<path class="st0" d="M47.03,21.9c1.08,0.01,2.16-0.01,3.24,0.01c1.03,0.05,2.13,0.31,2.87,1.07c0.75,0.74,0.96,1.85,0.86,2.87
		c-0.08,0.85-0.62,1.6-1.34,2.03c0.54,0.17,1.03,0.48,1.37,0.93c0.6,0.75,0.76,1.76,0.63,2.69c-0.14,1.1-0.73,2.19-1.71,2.76
		c-0.77,0.47-1.7,0.56-2.59,0.57c-1.11,0.01-2.22,0-3.33,0C47.03,30.51,47.03,26.2,47.03,21.9z M48.88,23.66
		c0,1.21,0.01,2.43-0.01,3.65c0.86,0,1.8,0.06,2.58-0.38c0.66-0.39,0.8-1.26,0.67-1.96c-0.08-0.48-0.41-0.89-0.85-1.08
		C50.52,23.56,49.68,23.69,48.88,23.66z M48.86,28.87c-0.01,1.4,0,2.81,0,4.21c0.53-0.01,1.06,0.01,1.59,0
		c0.66-0.02,1.38-0.11,1.89-0.57c0.54-0.5,0.58-1.32,0.46-2c-0.1-0.64-0.55-1.2-1.16-1.43C50.76,28.73,49.79,28.9,48.86,28.87z"/>
	<path class="st0" d="M37.2,22.03c1.26-0.43,2.64-0.44,3.92-0.09c1.56,0.43,2.9,1.52,3.76,2.88c0.89,1.43,1.14,3.19,0.87,4.83
		c-0.19,1.15-0.74,2.22-1.5,3.09c0.54,0.24,1.12,0.33,1.7,0.31c-0.01,0.6,0,1.2-0.01,1.8c-1.09,0.01-2.16-0.33-3.09-0.88
		c-1.11,0.71-2.43,1.09-3.76,1.03c-1.67-0.03-3.31-0.75-4.46-1.96c-2.02-2.06-2.45-5.5-1-8C34.43,23.67,35.69,22.54,37.2,22.03z
		 M38.03,23.72c-1.37,0.4-2.48,1.5-2.99,2.82c-0.4,1-0.43,2.12-0.16,3.14c0.77-0.37,1.63-0.45,2.47-0.4
		c1.99,0.11,3.82,1.11,5.26,2.44c0.27-0.32,0.52-0.66,0.73-1.02c0.55-0.97,0.68-2.13,0.53-3.21c-0.2-1.32-1.04-2.47-2.13-3.22
		C40.67,23.54,39.26,23.37,38.03,23.72z M35.53,31.11c0.76,1.09,1.97,1.88,3.3,2.02c0.81,0.12,1.62-0.07,2.37-0.37
		c-0.73-0.67-1.59-1.22-2.53-1.54C37.66,30.9,36.55,30.78,35.53,31.11z"/>
</g>
</svg>
