<?xml version="1.0" encoding="utf-8"?>
<!-- Generator: Adobe Illustrator 26.0.1, SVG Export Plug-In . SVG Version: 6.00 Build 0)  -->
<svg version="1.1" id="Layer_1" xmlns="http://www.w3.org/2000/svg" xmlns:xlink="http://www.w3.org/1999/xlink" x="0px" y="0px"
	 viewBox="0 0 95 35" style="enable-background:new 0 0 95 35;" xml:space="preserve">
<style type="text/css">
	.st0{fill:#343741;}
</style>
<g>
	<polygon class="st0" points="6.05,16.61 8.11,16.61 8.11,23.01 15.96,23.01 15.96,16.61 18.05,16.61 12.05,10.64 	"/>
	<path class="st0" d="M12.1,5.47h-0.06C5.42,5.47,0.05,10.82,0,17.44c-0.03,6.65,5.32,12.07,11.97,12.1
		c6.65,0.03,12.07-5.32,12.1-11.97C24.1,10.91,18.75,5.5,12.1,5.47z M18.84,18.5h-0.98c0,0,0,5.4,0,5.41c0,0.55-0.44,1.01-1,1.01
		H7.24c-0.55,0-1-0.46-1-1.01c0-0.02,0-5.41,0-5.41H5.26c-0.85-0.02-1.54-0.7-1.54-1.55c0-0.43,0.17-0.81,0.44-1.09l7.14-7.12
		c0.19-0.19,0.46-0.32,0.74-0.32c0.3,0,0.55,0.11,0.74,0.32l7.14,7.12c0.27,0.27,0.44,0.65,0.44,1.09
		C20.38,17.8,19.7,18.5,18.84,18.5z"/>
</g>
<path class="st0" d="M35.85,22.99h-1.82c-0.16,0-0.22-0.14-0.3-0.3l-2.15-3.99h-0.21c-0.4,0-0.98-0.05-1.33-0.06v4.05
	c0,0.16-0.13,0.3-0.29,0.3h-1.49c-0.16,0-0.3-0.14-0.3-0.3V12.42c0-0.3,0.17-0.4,0.48-0.44c0.78-0.13,1.84-0.19,2.93-0.19
	c2.3,0,4.31,0.82,4.31,3.37v0.13c0,1.58-0.79,2.56-2.01,3.06l2.34,4.37c0.03,0.05,0.03,0.1,0.03,0.13
	C36.04,22.93,35.97,22.99,35.85,22.99 M33.61,15.16c0-1.12-0.74-1.6-2.25-1.6c-0.32,0-1.06,0.03-1.33,0.06v3.36
	c0.24,0.02,1.08,0.05,1.33,0.05c1.54,0,2.25-0.41,2.25-1.73V15.16z"/>
<path class="st0" d="M43.19,22.91c-0.47,0.08-1.06,0.21-2.83,0.21c-1.95,0-3.45-0.52-3.45-3.06v-5.21c0-2.53,1.5-3.06,3.45-3.06
	c1.77,0,2.36,0.14,2.83,0.21c0.22,0.03,0.3,0.11,0.3,0.32v0.95c0,0.16-0.13,0.3-0.3,0.3h-3.06c-0.87,0-1.19,0.3-1.19,1.28v1.61H43
	c0.16,0,0.3,0.13,0.3,0.3v1.08c0,0.16-0.13,0.3-0.3,0.3h-4.05v1.93c0,0.98,0.32,1.28,1.19,1.28h3.06c0.16,0,0.3,0.13,0.3,0.3v0.95
	C43.49,22.8,43.42,22.88,43.19,22.91"/>
<path class="st0" d="M53.04,22.99h-1.58c-0.14,0-0.25-0.13-0.28-0.25l-0.68-2.83h-3.44l-0.68,2.83c-0.03,0.14-0.14,0.25-0.28,0.25
	h-1.58c-0.14,0-0.27-0.11-0.27-0.25c0-0.02,0.02-0.05,0.02-0.08l2.45-9.37c0.36-1.39,1.44-1.52,2.07-1.52
	c0.65,0,1.71,0.14,2.07,1.52l2.45,9.37c0,0.03,0.02,0.06,0.02,0.08C53.31,22.9,53.18,22.99,53.04,22.99 M49,13.76
	c-0.05-0.17-0.1-0.24-0.24-0.24s-0.19,0.06-0.24,0.24l-1.08,4.43h2.63L49,13.76z"/>
<path class="st0" d="M69.75,16.14c-0.81,0-1.44,0.21-2.06,0.54v6c0,0.16-0.14,0.32-0.3,0.32h-1.38c-0.16,0-0.3-0.14-0.3-0.32v-7.82
	c0-0.16,0.13-0.3,0.3-0.3h1.3c0.16,0,0.3,0.13,0.3,0.3v0.32c0.73-0.57,1.54-0.71,2.14-0.71c0.16,0,0.3,0.14,0.3,0.3v1.08
	C70.05,16.01,69.9,16.14,69.75,16.14"/>
<path class="st0" d="M73.99,23.12c-2.34,0-3.56-1.58-3.56-3.72v-1.2c0-2.14,1.22-3.72,3.56-3.72s3.58,1.58,3.58,3.72v1.2
	C77.55,21.54,76.33,23.12,73.99,23.12 M75.59,18.18c0-1.22-0.55-2.01-1.6-2.01s-1.6,0.79-1.6,2.01v1.2c0,1.22,0.55,2.01,1.6,2.01
	s1.6-0.79,1.6-2.01V18.18z"/>
<path class="st0" d="M85.15,22.99h-1.38c-0.16,0-0.3-0.13-0.3-0.3v-0.35c-0.78,0.51-1.39,0.74-2.34,0.74
	c-0.74,0-1.41-0.19-1.84-0.63c-0.55-0.55-0.74-1.47-0.74-2.72v-4.88c0-0.16,0.14-0.32,0.3-0.32h1.38c0.16,0,0.3,0.14,0.3,0.32v4.88
	c0,0.74,0.06,1.19,0.35,1.44c0.21,0.17,0.46,0.27,0.93,0.27c0.55,0,1.27-0.38,1.69-0.6v-5.97c0-0.16,0.13-0.32,0.3-0.32h1.38
	c0.16,0,0.3,0.14,0.3,0.32v7.82C85.44,22.87,85.31,22.99,85.15,22.99"/>
<path class="st0" d="M90.04,23.12c-0.36,0-0.89-0.03-1.44-0.11v2.64c0,0.16-0.14,0.3-0.3,0.3h-1.38c-0.16,0-0.3-0.13-0.3-0.3v-10.4
	c0-0.22,0.06-0.32,0.4-0.4c0.93-0.24,2.04-0.4,3.01-0.4c2.41,0,3.58,1.42,3.58,3.75v1.16C93.62,21.7,92.45,23.12,90.04,23.12
	 M91.64,18.21c0-1.22-0.32-2.14-1.6-2.14c-0.54,0-1.16,0.05-1.44,0.11v5.21c0.41,0.06,1.08,0.11,1.44,0.11c1.28,0,1.6-0.92,1.6-2.14
	V18.21z"/>
<path class="st0" d="M63.97,22.87c-0.74,0.14-1.71,0.25-3.26,0.25c-1.62,0-4.01-1.06-4.01-4.59v-2.14c0-3.53,2.26-4.59,4.05-4.59
	c1.42,0,2.72,0.17,3.21,0.27c0.19,0.05,0.28,0.13,0.28,0.32v1c0,0.21-0.06,0.32-0.3,0.32H63.9c-0.68-0.06-1.71-0.13-3.15-0.13
	c-1,0-1.96,0.7-1.96,2.82v2.15c0,2.12,1.03,2.8,1.92,2.8c0.55,0,1.01-0.02,1.47-0.05v-3.8c0-0.16,0.13-0.3,0.28-0.3h1.47
	c0.16,0,0.3,0.13,0.3,0.3v5.02C64.25,22.71,64.17,22.82,63.97,22.87"/>
<path class="st0" d="M94.07,14.1c-0.54,0-0.93-0.41-0.93-0.95c0-0.52,0.4-0.95,0.93-0.95c0.54,0,0.93,0.41,0.93,0.95
	C95,13.67,94.6,14.1,94.07,14.1 M94.07,12.35c-0.46,0-0.76,0.33-0.76,0.79c0,0.46,0.3,0.78,0.76,0.78c0.46,0,0.76-0.33,0.76-0.79
	C94.83,12.69,94.53,12.35,94.07,12.35 M94.29,13.62l-0.16-0.36h-0.19v0.36h-0.17v-1h0.36c0.19,0,0.35,0.11,0.35,0.32
	c0,0.13-0.06,0.24-0.17,0.28l0.19,0.4H94.29z M94.11,12.8h-0.19v0.3h0.19c0.1,0,0.17-0.05,0.17-0.16
	C94.29,12.84,94.21,12.8,94.11,12.8"/>
</svg>
