<?xml version="1.0" encoding="utf-8"?>
<!-- Generator: Adobe Illustrator 26.0.1, SVG Export Plug-In . SVG Version: 6.00 Build 0)  -->
<svg version="1.1" id="Layer_1" xmlns="http://www.w3.org/2000/svg" xmlns:xlink="http://www.w3.org/1999/xlink" x="0px" y="0px"
	 viewBox="0 0 95 35" style="enable-background:new 0 0 95 35;" xml:space="preserve">
<style type="text/css">
	.st0{fill:#343741;stroke:#343741;stroke-width:0.5208;}
	.st1{fill:#343741;}
</style>
<g>
	<path class="st0" d="M90.61,4.22h-0.82V3.96h1.91v0.26h-0.82v2.61h-0.26V4.22z"/>
	<path class="st0" d="M92.32,3.96h0.53l0.63,2.61h0.08l0.63-2.61h0.52v2.87h-0.26V4.14h-0.08l-0.63,2.69H93.3l-0.64-2.69h-0.08v2.69
		h-0.26V3.96z"/>
</g>
<g>
	<path class="st1" d="M86.07,5.2l0-0.05c-9.3-2.28-24.32-3.76-41.27-3.76h-0.59c-16.95,0-31.98,1.48-41.27,3.76l0,0.05
		C1.32,5.21,0,6.53,0,8.15v18.57c0,1.56,1.22,2.84,2.76,2.94c9.17,2.38,24.44,3.95,41.73,3.95h0.03c17.29,0,32.57-1.56,41.73-3.95
		c1.54-0.1,2.76-1.38,2.76-2.94V8.15C89.01,6.53,87.69,5.21,86.07,5.2z M19.9,15.12c-5.16-1.56-5.08,2.95-5.08,2.95v5.82h-4.67
		V11.19l4.67-0.16v2.21c1.48-3.03,5.08-2.13,5.08-2.13V15.12z M35.27,18.15l-9.84-0.07c0.24,1.81,1.47,3.19,2.95,3.19
		c1,0,1.88-0.63,2.43-1.6h4.09l-0.07,0.21c-1.05,2.59-3.71,4.42-6.82,4.42c-4.03,0-7.3-3.08-7.3-6.89c0-3.8,3.27-6.89,7.3-6.89
		s7.3,3.08,7.3,6.89C35.31,17.66,35.3,17.91,35.27,18.15z M51.17,18.15l-9.84-0.07c0.24,1.81,1.47,3.19,2.95,3.19
		c1,0,1.88-0.63,2.43-1.6h4.09l-0.07,0.21c-1.05,2.59-3.71,4.42-6.82,4.42c-4.03,0-7.3-3.08-7.3-6.89c0-3.8,3.27-6.89,7.3-6.89
		c4.03,0,7.3,3.08,7.3,6.89C51.21,17.66,51.2,17.91,51.17,18.15z M60.31,20.45c0.84,0,1.6-0.34,2.15-0.89l1.3,3.5
		c-1.18,0.78-2.63,1.24-4.18,1.24c-4.03,0-7.3-3.08-7.3-6.89c0-3.8,3.27-6.89,7.3-6.89c1.58,0,3.04,0.47,4.23,1.28l-1.35,3.47
		c-0.55-0.55-1.31-0.89-2.15-0.89c-1.68,0-3.03,1.36-3.03,3.03C57.28,19.09,58.64,20.45,60.31,20.45z M78.88,18.15l-9.84-0.07
		c0.24,1.81,1.47,3.19,2.95,3.19c1,0,1.88-0.63,2.43-1.6h4.09l-0.07,0.21c-1.05,2.59-3.71,4.42-6.82,4.42c-4.03,0-7.3-3.08-7.3-6.89
		c0-3.8,3.27-6.89,7.3-6.89c4.03,0,7.3,3.08,7.3,6.89C78.93,17.66,78.91,17.91,78.88,18.15z"/>
	<path class="st1" d="M28.38,13.56c-1.14,0-2.13,0.82-2.64,2.03L31,15.56C30.5,14.37,29.51,13.56,28.38,13.56z"/>
	<path class="st1" d="M44.29,13.56c-1.14,0-2.13,0.82-2.64,2.03l5.26-0.03C46.4,14.37,45.42,13.56,44.29,13.56z"/>
	<path class="st1" d="M72,13.56c-1.14,0-2.13,0.82-2.64,2.03l5.26-0.03C74.11,14.37,73.13,13.56,72,13.56z"/>
</g>
</svg>
