<?xml version="1.0" encoding="utf-8"?>
<!-- Generator: Adobe Illustrator 26.0.1, SVG Export Plug-In . SVG Version: 6.00 Build 0)  -->
<svg version="1.1" id="Layer_1" xmlns="http://www.w3.org/2000/svg" xmlns:xlink="http://www.w3.org/1999/xlink" x="0px" y="0px"
	 viewBox="0 0 95 35" style="enable-background:new 0 0 95 35;" xml:space="preserve">
<style type="text/css">
	.st0{fill:#CCCCCC;}
</style>
<path class="st0" d="M66.76,32.67h-2.59c0.03-0.6,0.45-1.32,1.29-1.32C66.36,31.35,66.75,32.08,66.76,32.67 M65.54,34.99
	c0.64,0,1.18-0.21,1.57-0.6l-0.29-0.4c-0.31,0.32-0.77,0.5-1.22,0.5c-0.85,0-1.37-0.62-1.42-1.36h3.2v-0.15
	c0-1.18-0.7-2.12-1.9-2.12c-1.13,0-1.95,0.92-1.95,2.07C63.53,34.15,64.37,34.99,65.54,34.99 M61.85,34.9v-2.8
	c0.18-0.32,0.69-0.63,1.07-0.63c0.1,0,0.17,0.01,0.24,0.03v-0.63c-0.54,0-0.99,0.3-1.32,0.72v-0.64h-0.62v3.95L61.85,34.9
	L61.85,34.9z M58.63,34.55c-0.57,0-0.97-0.36-0.97-0.86s0.4-0.87,0.97-0.87c0.43,0,0.85,0.16,1.08,0.49v0.75
	C59.47,34.38,59.06,34.55,58.63,34.55 M60.33,34.9v-2.72c0-0.96-0.69-1.33-1.53-1.33c-0.64,0-1.15,0.21-1.57,0.65l0.29,0.43
	c0.35-0.38,0.73-0.55,1.21-0.55c0.57,0,1,0.3,1,0.83v0.71c-0.32-0.37-0.77-0.54-1.31-0.54c-0.67,0-1.38,0.42-1.38,1.3
	c0,0.86,0.71,1.31,1.38,1.31c0.53,0,0.98-0.19,1.31-0.55v0.45L60.33,34.9L60.33,34.9z M54.37,34.99c0.97,0,1.62-0.45,2.08-1.08
	l-0.58-0.32c-0.31,0.47-0.87,0.79-1.5,0.79c-1.19,0-2.1-0.92-2.1-2.22c0-1.3,0.91-2.22,2.1-2.22c0.62,0,1.18,0.34,1.5,0.79
	l0.57-0.32c-0.43-0.62-1.11-1.08-2.07-1.08c-1.57,0-2.81,1.15-2.81,2.82C51.57,33.85,52.8,34.99,54.37,34.99 M49.24,34.9V32.1
	c0-0.86-0.43-1.26-1.26-1.26c-0.59,0-1.13,0.34-1.41,0.67v-2.07h-0.62v5.45h0.62v-2.88c0.24-0.32,0.69-0.62,1.17-0.62
	c0.53,0,0.89,0.2,0.89,0.9v2.6L49.24,34.9L49.24,34.9z M44.56,34.99c0.36,0,0.58-0.1,0.73-0.25l-0.18-0.45
	c-0.08,0.09-0.24,0.16-0.42,0.16c-0.27,0-0.4-0.21-0.4-0.5v-2.45h0.8v-0.54h-0.8v-1.09h-0.62v1.08h-0.65v0.54h0.65v2.58
	C43.69,34.66,43.98,34.99,44.56,34.99 M42.36,29.44h-0.62v5.45h0.62V29.44z M38.9,34.55c-0.57,0-0.97-0.36-0.97-0.86
	s0.4-0.87,0.97-0.87c0.43,0,0.85,0.16,1.08,0.49v0.75C39.75,34.38,39.33,34.55,38.9,34.55 M40.6,34.9v-2.72
	c0-0.96-0.69-1.33-1.53-1.33c-0.64,0-1.15,0.21-1.57,0.65l0.29,0.43c0.35-0.38,0.73-0.55,1.21-0.55c0.57,0,1,0.3,1,0.83v0.71
	c-0.32-0.37-0.77-0.54-1.31-0.54c-0.67,0-1.38,0.42-1.38,1.3c0,0.86,0.71,1.31,1.38,1.31c0.53,0,0.98-0.19,1.31-0.55v0.45L40.6,34.9
	L40.6,34.9z M36.01,32.67h-2.59c0.03-0.6,0.45-1.32,1.29-1.32C35.6,31.35,36,32.08,36.01,32.67 M34.78,34.99
	c0.64,0,1.18-0.21,1.57-0.6l-0.29-0.4c-0.31,0.32-0.77,0.5-1.22,0.5c-0.85,0-1.37-0.62-1.42-1.36h3.2v-0.15
	c0-1.18-0.7-2.12-1.9-2.12c-1.13,0-1.95,0.92-1.95,2.07C32.77,34.15,33.61,34.99,34.78,34.99 M31.76,34.9v-5.45h-0.68v2.34h-3.19
	v-2.34h-0.68v5.45h0.68v-2.5h3.19v2.5H31.76z M62.22,28.54c0.19,0.05,0.57,0.08,0.74,0.08c0.98-0.02,1.74-0.31,2.16-1.38l2.67-6.63
	h-1.62l-1.48,3.96l-1.48-3.96h-1.6l2.31,5.78l-0.21,0.48c-0.14,0.31-0.4,0.41-0.79,0.41c-0.14,0-0.34-0.03-0.47-0.09L62.22,28.54z
	 M58.57,25.44c-0.59,0-1.07-0.31-1.07-0.84c0-0.55,0.48-0.86,1.07-0.86c0.48,0,0.95,0.17,1.2,0.5v0.71
	C59.53,25.27,59.05,25.44,58.57,25.44 M61.27,26.31v-3.68c0-1.64-1.19-2.16-2.48-2.16c-0.9,0-1.79,0.28-2.48,0.9l0.57,1
	c0.48-0.45,1.05-0.67,1.67-0.67c0.76,0,1.25,0.38,1.25,0.95v0.77c-0.38-0.45-1.05-0.69-1.81-0.69c-0.91,0-1.98,0.5-1.98,1.84
	c0,1.27,1.07,1.89,1.98,1.89c0.74,0,1.41-0.27,1.81-0.73v0.59L61.27,26.31L61.27,26.31z M52.9,26.45c1.58,0,2.46-0.79,2.46-1.83
	c0-2.3-3.37-1.59-3.37-2.44c0-0.31,0.35-0.57,0.9-0.57c0.69,0,1.34,0.29,1.69,0.66l0.6-1.03c-0.57-0.45-1.33-0.78-2.3-0.78
	c-1.5,0-2.34,0.84-2.34,1.79c0,2.24,3.39,1.48,3.39,2.41c0,0.35-0.31,0.62-0.95,0.62c-0.71,0-1.55-0.39-1.97-0.78l-0.65,1.05
	C50.95,26.12,51.9,26.45,52.9,26.45 M49.49,26.31v-4.12c0-1.17-0.62-1.72-1.67-1.72c-0.87,0-1.63,0.52-1.96,1.04
	c-0.21-0.65-0.74-1.04-1.58-1.04c-0.87,0-1.63,0.54-1.86,0.88v-0.74h-1.5v5.7h1.5v-3.83c0.22-0.32,0.66-0.67,1.18-0.67
	c0.62,0,0.85,0.38,0.85,0.91v3.6h1.51v-3.84c0.21-0.31,0.65-0.66,1.18-0.66c0.62,0,0.85,0.38,0.85,0.91v3.6h1.52V26.31z
	 M36.92,25.44c-0.59,0-1.07-0.31-1.07-0.84c0-0.55,0.48-0.86,1.07-0.86c0.48,0,0.95,0.17,1.2,0.5v0.71
	C37.87,25.27,37.4,25.44,36.92,25.44 M39.62,26.31v-3.68c0-1.64-1.19-2.16-2.48-2.16c-0.9,0-1.79,0.28-2.48,0.9l0.57,1
	c0.48-0.45,1.05-0.67,1.67-0.67c0.76,0,1.25,0.38,1.25,0.95v0.77c-0.38-0.45-1.05-0.69-1.81-0.69c-0.91,0-1.98,0.5-1.98,1.84
	c0,1.27,1.07,1.89,1.98,1.89c0.74,0,1.41-0.27,1.81-0.73v0.59L39.62,26.31L39.62,26.31z M30.8,22.05h-1.76v-2.12h1.76
	c0.67,0,1.18,0.4,1.18,1.06C31.98,21.64,31.47,22.05,30.8,22.05 M33.73,26.31l-1.77-3c0.85-0.2,1.72-0.94,1.72-2.34
	c0-1.46-1-2.53-2.64-2.53h-3.67v7.87h1.67v-2.79h1.22l1.55,2.79H33.73z M46.42,0h-6.67v6.66h6.66L46.42,0L46.42,0z M53.9,0h-6.66
	v6.66h6.66V0z M46.42,7.48h-6.67v6.66h6.66L46.42,7.48L46.42,7.48z M47.23,8.06v6.09h6.09L47.23,8.06z M53.9,13.57V7.48h-6.09
	L53.9,13.57z"/>
</svg>
