<?xml version="1.0" encoding="utf-8"?>
<!-- Generator: Adobe Illustrator 26.0.1, SVG Export Plug-In . SVG Version: 6.00 Build 0)  -->
<svg version="1.1" id="Layer_1" xmlns="http://www.w3.org/2000/svg" xmlns:xlink="http://www.w3.org/1999/xlink" x="0px" y="0px"
	 viewBox="0 0 95 35" style="enable-background:new 0 0 95 35;" xml:space="preserve">
<style type="text/css">
	.st0{fill:#FFFFFF;}
</style>
<g id="g3" transform="matrix(0.982609,0,0,0.982609,1.1014418,0.2332481)">
	<path id="path5" class="st0" d="M30,12.81c-3.85,0-6.68,2.81-6.68,6.63s2.83,6.63,6.68,6.63s6.68-2.81,6.68-6.63
		C36.67,15.62,33.84,12.81,30,12.81 M30.89,24.52c-1.95,0.35-3.46-1.49-4-4.55c-0.54-3.02,0.27-5.31,2.18-5.65
		c1.95-0.35,3.47,1.53,4.01,4.55C33.62,21.92,32.84,24.17,30.89,24.52"/>
	<path id="path7" class="st0" d="M88.88,12.81c-3.85,0-6.68,2.81-6.68,6.63s2.83,6.63,6.68,6.63s6.68-2.81,6.68-6.63
		S92.73,12.81,88.88,12.81 M89.78,24.52c-1.95,0.35-3.46-1.49-4-4.55c-0.54-3.02,0.27-5.31,2.18-5.65c1.95-0.35,3.47,1.53,4.01,4.55
		C92.5,21.92,91.73,24.17,89.78,24.52"/>
	<path id="path9" class="st0" d="M68.56,16.14c0.15,0.41,0.22,0.92,0.22,1.55c0,0.97,0,6.38,0,8.13h4.86c0,0,0-0.79,0-0.89
		c-0.69,0-1.57-0.34-1.57-1.93c0-0.32,0-3.7,0-6.09c0-3.33-2.72-4.1-4.18-4.1c-2.34,0-3.61,1.39-4.03,2.25c0,0-0.05-1.65-0.05-1.96
		h-4.68v0.88c0.68,0,1.58,0.34,1.58,1.91c0,0.97,0,5.36,0,7.11c0,1.57-0.9,1.92-1.58,1.92c0,0.15,0,0.89,0,0.89h6.44
		c0,0,0-0.79,0-0.89c-0.7,0-1.57-0.34-1.57-1.93c0-0.29,0-2.46,0-4.6c0-0.91,0.14-1.63,0.43-2.19c0.5-0.95,1.4-1.4,2.16-1.4
		C67.5,14.79,68.22,15.2,68.56,16.14"/>
	<path id="path11" class="st0" d="M80.74,25.81c0,0,0-0.79,0-0.89c-0.7,0-1.57-0.34-1.57-1.93c0-0.32,0-8.54,0-8.54H81v-1.33h-1.83
		v-2.9c0,0-1.44,0-1.71,0c0,1.93-1.81,3.33-3.27,3.33v0.89l1.69,0.01c0,0.97,0,6.85,0,8.61c0,1.98,0.75,2.77,2.91,2.77
		C79.7,25.81,80.74,25.81,80.74,25.81"/>
	<path id="path13" class="st0" d="M46.79,9.44c0,0,0,12.77,0,13.41c0,1.59,0.88,1.93,1.57,1.93c0,0.11,0,1.04,0,1.04h-6.61
		c0,0,0-0.98,0-1.04c0.68,0,1.57-0.34,1.57-1.93c0-2.79,0-12.73,0-13.41c-0.36,0-0.91,0-1.61,0c-1.92,0-2.62,0.49-2.62,1.94
		c-0.19,0-1.14,0-1.14,0V7.63h14.06v3.75h-1.08c0-1.47-0.68-1.94-2.6-1.94C47.77,9.44,46.79,9.44,46.79,9.44"/>
	<path id="path15" class="st0" d="M3.91,9.43c0,1.02,0,1.85,0,4.04v4.19c0,2.71,0,4.92,0,5.19c0,1.59,0.88,1.93,1.57,1.93
		c0,0.11,0,1.04,0,1.04h-6.61c0,0,0-0.98,0-1.04c0.68,0,1.58-0.34,1.58-1.93c0-1.02,0-2.87,0-5.05v-4.2c0-2.71,0-2.74,0-3.01
		c0-1.59-0.88-1.93-1.58-1.93c0-0.11,0-1.04,0-1.04H7.1c5.02,0,6.2,2.65,6.2,4.73c0,2.35-1.69,3.93-4.04,4.36
		c2.5,0.16,3.95,6.53,5.77,8.86c0.24,0.31,0.88,0.89,1.57,0.89c0.01,0,0.06,0,0.08,0c0,0.2,0,1.05,0,1.05h-1.95
		c-1.43,0-2.89-0.63-3.53-1.5c-2.14-2.9-2.96-8.88-5.57-9.07c-0.04,0-0.19,0-0.23,0c0-0.28,0-1.09,0-1.09c0.04,0,0.19,0,0.22,0
		c3.24-0.05,3.82-1.77,3.82-3.22c0-1.67-0.6-3.2-3.55-3.2C5.42,9.43,3.91,9.43,3.91,9.43"/>
	<path id="path17" class="st0" d="M56.54,10.34c0,0.84-0.8,1.52-1.78,1.52s-1.78-0.68-1.78-1.52s0.8-1.52,1.78-1.52
		S56.54,9.5,56.54,10.34"/>
	<path id="path19" class="st0" d="M58.14,25.81c0,0,0-0.79,0-0.89c-0.69,0-1.57-0.34-1.57-1.93c0-0.64,0-9.89,0-9.89H51.7v0.88
		c0.68,0,1.57,0.34,1.57,1.91c0,0.68,0,4.3,0,7.1c0,1.59-0.9,1.93-1.57,1.93c0,0.06,0,0.89,0,0.89H58.14"/>
	<path id="path21" class="st0" d="M17.06,25.81c0-1.75,0-8.95,0-9.92c0-1.58-0.9-1.91-1.57-1.91V13.1h4.87c0,0,0,9.25,0,9.89
		c0,1.59,0.88,1.93,1.58,1.93c0,0.11,0,0.89,0,0.89H17.06"/>
	<path id="path23" class="st0" d="M20.39,10.34c0,0.84-0.8,1.52-1.78,1.52c-0.98,0-1.78-0.68-1.78-1.52s0.8-1.52,1.78-1.52
		S20.39,9.5,20.39,10.34"/>
</g>
</svg>
