<?xml version="1.0" encoding="utf-8"?>
<!-- Generator: Adobe Illustrator 26.0.1, SVG Export Plug-In . SVG Version: 6.00 Build 0)  -->
<svg version="1.1" id="Layer_1" xmlns="http://www.w3.org/2000/svg" xmlns:xlink="http://www.w3.org/1999/xlink" x="0px" y="0px"
	 viewBox="0 0 95 35" style="enable-background:new 0 0 95 35;" xml:space="preserve">
<style type="text/css">
	.st0{fill:#CCCCCC;}
</style>
<g>
	<path class="st0" d="M71.59,14.02c-0.04-0.88-0.79-1.56-1.67-1.52c-0.88,0.04-1.56,0.79-1.52,1.67c0.04,0.88,0.79,1.56,1.67,1.52
		c0.85-0.04,1.5-0.73,1.52-1.57v-0.06L71.59,14.02L71.59,14.02z"/>
	<path class="st0" d="M68.86,16.94c-0.04-0.79-0.71-1.4-1.5-1.36c-0.79,0.04-1.4,0.71-1.36,1.5c0.04,0.79,0.71,1.4,1.5,1.36
		C68.28,18.4,68.9,17.73,68.86,16.94L68.86,16.94z"/>
	<path class="st0" d="M65.85,19.09c-0.03-0.71-0.64-1.26-1.35-1.23c-0.71,0.03-1.26,0.64-1.23,1.35c0.03,0.71,0.64,1.26,1.35,1.23
		C65.33,20.41,65.88,19.8,65.85,19.09L65.85,19.09z"/>
	<path class="st0" d="M62.66,20.31c-0.03-0.64-0.57-1.14-1.22-1.11c-0.64,0.03-1.14,0.58-1.11,1.22c0.03,0.64,0.57,1.14,1.22,1.11
		C62.19,21.5,62.69,20.95,62.66,20.31L62.66,20.31z"/>
	<path class="st0" d="M59.5,20.52c-0.03-0.58-0.52-1.02-1.09-1c-0.58,0.03-1.02,0.52-0.99,1.09c0.03,0.58,0.52,1.02,1.09,0.99
		C59.08,21.58,59.52,21.09,59.5,20.52L59.5,20.52z"/>
	<path class="st0" d="M56.69,19.68c-0.03-0.52-0.47-0.92-0.99-0.9c-0.52,0.03-0.92,0.47-0.9,0.99c0.02,0.52,0.47,0.92,0.98,0.9
		C56.31,20.64,56.71,20.2,56.69,19.68L56.69,19.68z"/>
	<path class="st0" d="M54.42,18.2c-0.02-0.47-0.42-0.83-0.89-0.81c-0.47,0.02-0.83,0.42-0.81,0.89c0.02,0.47,0.42,0.83,0.89,0.81
		C54.08,19.06,54.44,18.66,54.42,18.2L54.42,18.2z"/>
	<path class="st0" d="M52.65,16.41c-0.02-0.42-0.38-0.75-0.8-0.73c-0.42,0.02-0.74,0.38-0.72,0.8c0.02,0.42,0.38,0.74,0.8,0.73
		C52.34,17.19,52.67,16.83,52.65,16.41L52.65,16.41z"/>
	<path class="st0" d="M51.25,14.53c-0.02-0.38-0.34-0.67-0.72-0.65c-0.38,0.02-0.67,0.34-0.65,0.72c0.02,0.38,0.34,0.67,0.72,0.65
		C50.97,15.23,51.26,14.91,51.25,14.53L51.25,14.53z"/>
	<path class="st0" d="M50.14,12.64c-0.02-0.34-0.31-0.6-0.65-0.59c-0.34,0.02-0.6,0.31-0.59,0.65c0.02,0.34,0.31,0.6,0.65,0.59
		C49.89,13.27,50.16,12.98,50.14,12.64L50.14,12.64z"/>
	<path class="st0" d="M49.29,10.81c0-0.31-0.25-0.56-0.56-0.56c-0.31,0-0.56,0.25-0.56,0.56c0,0.31,0.25,0.56,0.56,0.56
		C49.04,11.37,49.29,11.12,49.29,10.81L49.29,10.81z"/>
	<path class="st0" d="M23.41,11.09c0,0.99,0.8,1.79,1.79,1.79c0.99,0,1.79-0.8,1.79-1.79c0-0.99-0.8-1.79-1.79-1.79
		C24.21,9.3,23.41,10.1,23.41,11.09L23.41,11.09z"/>
	<path class="st0" d="M25.86,7.58c0.04,0.88,0.79,1.56,1.67,1.52c0.88-0.04,1.56-0.79,1.52-1.67c-0.04-0.88-0.79-1.56-1.67-1.52
		C26.5,5.96,25.82,6.71,25.86,7.58L25.86,7.58z"/>
	<path class="st0" d="M28.6,4.67c0.04,0.79,0.71,1.4,1.5,1.36c0.79-0.04,1.4-0.71,1.36-1.5c-0.04-0.79-0.71-1.4-1.5-1.36
		C29.17,3.21,28.56,3.88,28.6,4.67L28.6,4.67z"/>
	<path class="st0" d="M31.6,2.52c0.03,0.71,0.64,1.26,1.35,1.23c0.71-0.03,1.26-0.64,1.23-1.35c-0.03-0.71-0.64-1.26-1.35-1.23
		C32.12,1.2,31.57,1.81,31.6,2.52L31.6,2.52z"/>
	<path class="st0" d="M34.8,1.3c0.03,0.64,0.57,1.14,1.22,1.11c0.64-0.03,1.14-0.58,1.11-1.22c-0.03-0.64-0.57-1.14-1.22-1.11
		C35.26,0.11,34.77,0.66,34.8,1.3L34.8,1.3z"/>
	<path class="st0" d="M37.96,1.09c0.03,0.58,0.52,1.02,1.09,1c0.58-0.03,1.02-0.52,0.99-1.09c-0.03-0.55-0.48-0.99-1.03-1h-0.03
		l-0.04,0C38.38,0.03,37.93,0.52,37.96,1.09L37.96,1.09z"/>
	<path class="st0" d="M40.77,1.93c0.02,0.52,0.47,0.92,0.99,0.9c0.52-0.03,0.92-0.47,0.9-0.99c-0.02-0.52-0.47-0.92-0.98-0.9
		C41.14,0.97,40.74,1.41,40.77,1.93L40.77,1.93z"/>
	<path class="st0" d="M43.03,3.42c0.02,0.47,0.42,0.83,0.89,0.81c0.47-0.02,0.83-0.42,0.81-0.89c-0.02-0.47-0.42-0.83-0.89-0.81
		C43.37,2.55,43.01,2.95,43.03,3.42L43.03,3.42z"/>
	<path class="st0" d="M44.81,5.2c0.02,0.42,0.38,0.75,0.8,0.73c0.42-0.02,0.75-0.38,0.73-0.8c-0.02-0.42-0.38-0.75-0.8-0.73
		C45.11,4.42,44.79,4.78,44.81,5.2L44.81,5.2z"/>
	<path class="st0" d="M46.21,7.08c0.02,0.38,0.34,0.67,0.72,0.65c0.38-0.02,0.67-0.34,0.65-0.72c-0.02-0.38-0.34-0.67-0.72-0.65
		C46.48,6.38,46.19,6.7,46.21,7.08L46.21,7.08z"/>
	<path class="st0" d="M47.31,8.97c0.02,0.34,0.31,0.6,0.65,0.59c0.34-0.02,0.6-0.31,0.59-0.65c-0.02-0.34-0.31-0.6-0.65-0.59
		C47.56,8.34,47.3,8.63,47.31,8.97L47.31,8.97z"/>
	<path class="st0" d="M29.69,28.15c-0.22-0.28-0.48-0.38-1.08-0.38h-1.45l-0.54,2.35h1.81c0.05,0,0.27-0.01,0.46-0.05
		c0.38-0.08,0.62-0.28,0.8-0.61c0.17-0.32,0.18-0.57,0.18-0.72C29.87,28.65,29.87,28.38,29.69,28.15L29.69,28.15z M31.64,30.14
		c-0.15,0.26-0.34,0.5-0.57,0.68c-0.28,0.21-0.57,0.34-1.24,0.57l1.4,3.41h-2.34l-1.13-3.09h-1.5l-0.71,3.09h-2.13l1.95-8.61h3.79
		c0.18,0,0.35,0,0.54,0.01c0.24,0.02,0.81,0.07,1.37,0.46c0.38,0.27,0.95,0.84,0.95,2.02C32.01,28.95,31.97,29.55,31.64,30.14
		L31.64,30.14z"/>
	<path class="st0" d="M43.3,30.53c-0.18-0.26-0.23-0.33-0.35-0.44c-0.31-0.28-0.78-0.4-1.18-0.4c-0.52,0-0.8,0.22-0.8,0.49
		c0,0.34,0.44,0.45,0.99,0.61c0.27,0.07,0.53,0.15,0.78,0.25c0.63,0.23,1.26,0.54,1.48,1.18c0.08,0.23,0.08,0.49,0.08,0.56
		c0,0.74-0.49,1.26-0.66,1.41c-0.4,0.38-1.18,0.82-2.46,0.82c-0.45,0-1.74-0.02-2.67-1.1c-0.13-0.16-0.21-0.25-0.39-0.57l1.57-0.78
		c0.11,0.19,0.17,0.29,0.23,0.37c0.18,0.22,0.62,0.57,1.39,0.57c0.1,0,0.34-0.01,0.61-0.1c0.15-0.05,0.26-0.11,0.34-0.23
		c0.03-0.04,0.07-0.12,0.07-0.23c0-0.05-0.01-0.13-0.07-0.22c-0.15-0.21-0.41-0.28-0.85-0.41c-1.24-0.39-1.78-0.57-2.16-1.18
		C39.17,30.99,39,30.67,39,30.28c0-0.18,0.04-0.52,0.28-0.9c0.34-0.54,1.1-1.09,2.51-1.09c1.45,0,2.17,0.54,2.59,1.01
		c0.11,0.13,0.19,0.24,0.35,0.52L43.3,30.53L43.3,30.53z"/>
	<polygon class="st0" points="53.81,34.81 51.81,34.81 53.35,28.15 50.13,34.81 48.33,34.81 48.08,28.05 46.61,34.81 44.59,34.81 
		46.52,26.2 49.7,26.2 49.85,31.84 52.52,26.2 55.75,26.2 53.81,34.81 	"/>
	<path class="st0" d="M66.49,30.51c-0.16-0.46-0.56-0.74-1.04-0.72c-0.33,0.01-0.57,0.17-0.66,0.23c-0.7,0.46-1,1.48-1,2.27
		c0,0.43,0.1,0.67,0.21,0.84c0.19,0.31,0.48,0.42,0.83,0.42c0.3,0,0.82-0.1,1.23-0.72c0.31-0.48,0.5-1.25,0.5-1.79
		C66.56,30.84,66.55,30.7,66.49,30.51L66.49,30.51z M67.63,34.81h-1.88l0.09-0.44c-0.1,0.07-0.19,0.13-0.29,0.21
		c-0.23,0.15-0.68,0.4-1.39,0.4c-0.72,0-1.13-0.29-1.35-0.48c-0.4-0.33-0.89-0.94-0.89-2.17c0-0.41,0.07-1.46,0.71-2.46
		c0.85-1.34,2.04-1.55,2.63-1.55c0.22,0,0.84,0.02,1.37,0.41c0.21,0.16,0.35,0.37,0.4,0.44l0.67-2.97h1.89L67.63,34.81L67.63,34.81z
		"/>
	<path class="st0" d="M34.43,29.98c0.15-0.12,0.43-0.35,0.93-0.35c0.71,0,1.04,0.46,1.13,0.72c0.06,0.18,0.06,0.44,0.06,0.48h-2.69
		C34.09,30.32,34.22,30.17,34.43,29.98L34.43,29.98z M38.19,32c0.02-0.27,0.05-0.55,0.05-0.83c0-0.13,0-0.56-0.12-0.98
		c-0.09-0.33-0.24-0.62-0.46-0.9c-0.76-0.94-1.91-0.99-2.3-0.99c-0.32,0-1.14,0.04-1.88,0.5c-0.79,0.5-1.38,1.39-1.6,2.3
		c-0.1,0.39-0.1,0.71-0.1,0.85c0,1.22,0.59,2.32,1.71,2.78c0.56,0.23,1.13,0.24,1.35,0.24c1.55,0,2.32-0.72,2.7-1.21
		c0.11-0.14,0.21-0.29,0.31-0.45l-1.46-0.73c-0.1,0.16-0.19,0.31-0.31,0.44c-0.29,0.31-0.73,0.49-1.18,0.49c-0.13,0-0.4,0-0.71-0.17
		c-0.67-0.37-0.57-1.2-0.56-1.37H38.19L38.19,32z"/>
	<polygon class="st0" points="37.84,33.33 37.84,33.33 37.84,33.33 37.84,33.33 	"/>
	<path class="st0" d="M57.72,29.98c0.15-0.12,0.43-0.35,0.93-0.35c0.71,0,1.04,0.46,1.13,0.72c0.06,0.18,0.06,0.44,0.06,0.48h-2.69
		C57.38,30.32,57.5,30.17,57.72,29.98L57.72,29.98z M61.48,32c0.02-0.27,0.05-0.55,0.05-0.83c0-0.13,0-0.56-0.12-0.98
		c-0.09-0.33-0.24-0.62-0.46-0.9c-0.76-0.94-1.91-0.99-2.3-0.99c-0.32,0-1.14,0.04-1.88,0.5c-0.79,0.5-1.38,1.39-1.6,2.3
		c-0.1,0.39-0.1,0.71-0.1,0.85c0,1.22,0.59,2.32,1.71,2.78c0.56,0.23,1.13,0.24,1.35,0.24c1.55,0,2.32-0.72,2.7-1.21
		c0.11-0.14,0.21-0.29,0.31-0.45l-1.46-0.73c-0.1,0.16-0.19,0.31-0.31,0.44c-0.29,0.31-0.73,0.49-1.18,0.49c-0.13,0-0.4,0-0.71-0.17
		C56.8,33,56.89,32.17,56.91,32H61.48L61.48,32z"/>
	<polygon class="st0" points="61.13,33.33 61.13,33.33 61.13,33.33 61.13,33.33 	"/>
</g>
</svg>
