<?xml version="1.0" encoding="utf-8"?>
<!-- Generator: Adobe Illustrator 26.0.1, SVG Export Plug-In . SVG Version: 6.00 Build 0)  -->
<svg version="1.1" id="Layer_1" xmlns="http://www.w3.org/2000/svg" xmlns:xlink="http://www.w3.org/1999/xlink" x="0px" y="0px"
	 viewBox="0 0 95 35" style="enable-background:new 0 0 95 35;" xml:space="preserve">
<style type="text/css">
	.st0{fill:#FFFFFF;}
</style>
<path class="st0" d="M35.99,32.15c-0.24-0.34-0.6-0.46-0.95-0.46c-0.3,0-0.48,0.11-0.48,0.29c0,0.25,0.37,0.3,0.78,0.36
	c0.89,0.14,1.62,0.4,1.62,1.25c0,0.78-0.62,1.4-1.78,1.4c-0.94,0-1.67-0.41-2-1.11l0.9-0.45c0.27,0.46,0.69,0.63,1.13,0.63
	c0.38,0,0.61-0.12,0.61-0.32c0-0.29-0.46-0.31-0.79-0.37c-0.81-0.13-1.62-0.41-1.62-1.31c0-0.8,0.65-1.29,1.65-1.29
	c0.65,0,1.38,0.21,1.81,0.88L35.99,32.15z M39.34,35c-1.34,0-2.12-0.94-2.12-2.11c0-1.16,0.78-2.11,2.12-2.11
	c1.34,0,2.13,0.94,2.13,2.11C41.47,34.06,40.67,35,39.34,35 M39.36,31.84c-0.62,0-0.92,0.5-0.92,1.06c0,0.57,0.31,1.06,0.92,1.06
	c0.62,0,0.94-0.49,0.94-1.06C40.3,32.33,39.98,31.84,39.36,31.84 M43.76,35c-1.12,0-1.83-0.57-1.83-1.67v-2.47h1.16v2.47
	c0,0.43,0.22,0.63,0.67,0.63c0.45,0,0.67-0.2,0.67-0.63v-2.47h1.15v2.47C45.59,34.43,44.88,35,43.76,35 M48.44,31.89v3.05h-1.15
	v-3.05h-1.2v-1.03h3.57v1.03H48.44z M52.77,34.92v-1.61h-1.43v1.61h-1.16v-4.07h1.16v1.43h1.43v-1.43h1.17v4.07H52.77z M56.55,35
	c-0.91,0-1.47-0.46-1.77-1.15l0.94-0.37c0.13,0.33,0.41,0.56,0.84,0.56c0.36,0,0.52-0.16,0.52-0.37c0-0.24-0.2-0.36-0.56-0.36h-0.38
	v-0.88h0.36c0.36,0,0.48-0.16,0.48-0.35c0-0.22-0.17-0.33-0.46-0.33c-0.34,0-0.64,0.16-0.81,0.51l-0.85-0.43
	c0.38-0.67,0.96-1.04,1.76-1.04c0.91,0,1.48,0.47,1.48,1.13c0,0.41-0.22,0.7-0.55,0.85c0.4,0.13,0.68,0.47,0.68,0.93
	C58.24,34.38,57.64,35,56.55,35 M58.61,34.92v-0.81c1.44-1.02,1.87-1.44,1.87-1.91c0-0.26-0.2-0.43-0.46-0.43
	c-0.25,0-0.5,0.16-0.65,0.51l-0.9-0.48c0.35-0.6,0.89-1.01,1.67-1.01c0.91,0,1.55,0.5,1.55,1.35c0,0.6-0.43,1.23-1.39,1.76h1.53
	v1.03H58.61z M46.26,0H33.41v2.57h12.86L46.26,0L46.26,0z M46.26,5.14H33.41v2.57h12.86L46.26,5.14L46.26,5.14z M46.26,10.28H33.41
	v2.57h12.86L46.26,10.28L46.26,10.28z M48.83,12.85h2.57V0h-2.57V12.85z M53.97,12.85h2.57V0h-2.57V12.85z M59.12,12.85h2.57V0
	h-2.57V12.85z M48.83,28.28h12.86v-2.57H48.83V28.28z M48.83,23.14h12.86v-2.57H48.83V23.14z M48.83,18h12.86v-2.57H48.83V18z
	 M46.26,15.43h-2.57v12.86h2.57V15.43z M41.12,15.43h-2.58v12.86h2.57L41.12,15.43L41.12,15.43z M35.98,15.43h-2.57v12.86h2.57
	V15.43z"/>
</svg>
