<?xml version="1.0" encoding="utf-8"?>
<!-- Generator: Adobe Illustrator 26.0.1, SVG Export Plug-In . SVG Version: 6.00 Build 0)  -->
<svg version="1.1" id="Layer_1" xmlns="http://www.w3.org/2000/svg" xmlns:xlink="http://www.w3.org/1999/xlink" x="0px" y="0px"
	 viewBox="0 0 95 35" style="enable-background:new 0 0 95 35;" xml:space="preserve">
<style type="text/css">
	.st0{fill:#CCCCCC;}
</style>
<g>
	<path class="st0" d="M4.83,17.6L4.83,17.6c-0.27-0.14-0.54-0.27-0.82-0.38c-0.32-0.11-0.63-0.21-0.89-0.29
		c-0.29-0.08-0.59-0.17-0.86-0.29c-0.21-0.08-0.4-0.17-0.57-0.29c-0.19-0.11-0.35-0.25-0.46-0.44c-0.1-0.16-0.14-0.33-0.14-0.52
		c0-0.21,0.05-0.41,0.16-0.57c0.14-0.19,0.33-0.33,0.54-0.44c0.17-0.08,0.36-0.14,0.55-0.19c0.44-0.1,0.9-0.1,1.35,0
		c0.22,0.05,0.43,0.11,0.63,0.21c0.14,0.06,0.29,0.14,0.41,0.24c0.13,0.1,0.25,0.21,0.36,0.32l0.19,0.19l0.51-0.49l-0.21-0.21
		c-0.16-0.16-0.33-0.29-0.51-0.41c-0.17-0.13-0.36-0.22-0.55-0.32c-0.24-0.1-0.49-0.16-0.74-0.21c-0.55-0.11-1.12-0.1-1.68,0.03
		c-0.27,0.06-0.54,0.17-0.78,0.32C1.08,14,0.87,14.18,0.7,14.4c-0.22,0.3-0.33,0.65-0.32,1.01c0,0.3,0.06,0.59,0.21,0.84
		c0.16,0.25,0.38,0.48,0.63,0.65s0.54,0.32,0.84,0.41c0.29,0.11,0.59,0.19,0.84,0.27l0.13,0.03c0.19,0.06,0.4,0.11,0.59,0.17
		s0.4,0.15,0.56,0.22c0.32,0.13,0.6,0.32,0.82,0.57c0.17,0.21,0.27,0.48,0.25,0.74c0,0.22-0.06,0.46-0.17,0.65
		c-0.13,0.21-0.32,0.36-0.54,0.48c-0.22,0.11-0.44,0.21-0.68,0.25c-0.54,0.13-1.09,0.13-1.63-0.02C2,20.61,1.76,20.51,1.54,20.4
		c-0.16-0.1-0.3-0.19-0.43-0.32c-0.13-0.11-0.24-0.25-0.32-0.4L0.63,19.5L0,19.83l0.14,0.25c0.13,0.21,0.27,0.4,0.44,0.57
		s0.38,0.33,0.6,0.44c0.27,0.14,0.57,0.25,0.87,0.33c0.32,0.08,0.65,0.11,0.97,0.11c0.35,0,0.68-0.05,1.01-0.13
		c0.3-0.06,0.6-0.19,0.87-0.33c0.32-0.17,0.59-0.43,0.78-0.73c0.17-0.3,0.27-0.65,0.27-1c0-0.36-0.1-0.71-0.29-1.01
		C5.45,18.04,5.16,17.79,4.83,17.6z"/>
	<path class="st0" d="M13.35,19.79l-0.1,0.1c-0.32,0.32-0.68,0.55-1.08,0.73c-0.79,0.32-1.66,0.33-2.46,0.05
		C9.35,20.53,9,20.34,8.68,20.08c-0.36-0.32-0.67-0.71-0.87-1.16c-0.19-0.45-0.3-0.92-0.3-1.42c0-0.55,0.14-1.09,0.4-1.58
		c0.27-0.49,0.65-0.9,1.09-1.22c0.27-0.19,0.57-0.33,0.89-0.43s0.65-0.14,0.97-0.14c0.44,0,0.89,0.08,1.3,0.25s0.79,0.43,1.09,0.74
		l0.1,0.1l0.41-0.41l0.08-0.1l-0.1-0.1c-0.38-0.38-0.82-0.7-1.31-0.9c-0.49-0.21-1.03-0.32-1.57-0.32c-0.38,0-0.76,0.05-1.11,0.16
		C8,14.07,6.8,15.67,6.8,17.49c0,0.6,0.13,1.2,0.4,1.74c0.25,0.54,0.63,1.01,1.09,1.41c0.36,0.3,0.78,0.52,1.2,0.7
		c0.43,0.16,0.89,0.24,1.36,0.24c0.54,0,1.06-0.11,1.57-0.32c0.49-0.21,0.95-0.51,1.33-0.89l0.1-0.11l-0.41-0.41L13.35,19.79z"/>
	<polygon class="st0" points="22.42,13.53 22.42,21.51 23.13,21.51 23.13,14.95 27.77,21.51 28.12,21.51 28.66,21.5 23,13.53 	"/>
	<polygon class="st0" points="28.64,20.39 28.64,13.53 27.91,13.53 27.93,19.39 	"/>
	<rect x="15.3" y="13.53" class="st0" width="0.71" height="7.98"/>
	<polygon class="st0" points="16.67,21.51 20.74,21.51 20.74,20.8 17.38,20.8 	"/>
	<rect x="16.68" y="17.16" class="st0" width="4.06" height="0.71"/>
	<polygon class="st0" points="20.74,14.26 20.74,13.53 16.67,13.53 17.38,14.26 	"/>
	<rect x="29.88" y="13.53" class="st0" width="7.19" height="0.71"/>
	<rect x="33.12" y="14.92" class="st0" width="0.71" height="6.57"/>
	<path class="st0" d="M42.52,17.87c0.33,0,0.65-0.08,0.95-0.22s0.57-0.36,0.76-0.63c0.14-0.19,0.25-0.41,0.33-0.63
		s0.11-0.46,0.11-0.7c0-0.29-0.05-0.55-0.16-0.81c-0.11-0.25-0.25-0.49-0.44-0.7c-0.41-0.41-0.98-0.63-1.55-0.63h-2.77l0.7,0.71
		h2.06c0.21,0,0.41,0.05,0.6,0.13s0.36,0.21,0.49,0.36c0.11,0.13,0.21,0.29,0.27,0.44c0.06,0.16,0.1,0.33,0.1,0.51
		c0,0.17-0.03,0.33-0.08,0.49c-0.06,0.16-0.14,0.3-0.24,0.43c-0.14,0.17-0.32,0.3-0.51,0.4s-0.41,0.14-0.63,0.14h-2.76v0.71h1.73
		l2.57,3.63h0.87l-2.6-3.63C42.32,17.87,42.52,17.87,42.52,17.87z"/>
	<rect x="38.35" y="13.53" class="st0" width="0.71" height="7.98"/>
	<path class="st0" d="M78.86,14.64c-0.38-0.38-0.82-0.68-1.33-0.89c-0.49-0.21-1.03-0.32-1.57-0.32c-0.54,0.02-1.06,0.11-1.57,0.32
		c-0.49,0.21-0.95,0.51-1.33,0.89c-0.38,0.38-0.68,0.82-0.87,1.33c-0.21,0.49-0.32,1.03-0.32,1.57c0.02,0.54,0.11,1.06,0.32,1.57
		c0.21,0.49,0.51,0.93,0.87,1.31c0.38,0.38,0.82,0.68,1.33,0.87c1,0.41,2.12,0.41,3.12,0c0.49-0.21,0.95-0.51,1.33-0.87
		c0.38-0.38,0.68-0.82,0.87-1.33c0.21-0.49,0.32-1.03,0.32-1.57c-0.02-0.54-0.11-1.06-0.32-1.57
		C79.54,15.46,79.24,15.02,78.86,14.64z M79.33,17.52c0,0.44-0.08,0.87-0.25,1.27c-0.35,0.82-1,1.47-1.81,1.82
		c-0.82,0.33-1.74,0.33-2.57,0c-0.82-0.35-1.47-0.98-1.84-1.81c-0.17-0.4-0.25-0.82-0.25-1.27s0.08-0.87,0.25-1.27
		c0.35-0.82,1-1.47,1.82-1.82c0.82-0.35,1.74-0.35,2.55,0c0.82,0.35,1.47,1,1.82,1.82C79.24,16.66,79.33,17.09,79.33,17.52
		L79.33,17.52z"/>
	<path class="st0" d="M86.4,18.63c0,0.3-0.06,0.6-0.17,0.87c-0.11,0.29-0.29,0.52-0.51,0.73c-0.21,0.21-0.44,0.36-0.71,0.46
		c-0.84,0.33-1.79,0.13-2.42-0.51c-0.21-0.21-0.38-0.46-0.49-0.74c-0.11-0.27-0.17-0.57-0.17-0.86v-5.05H81.2v5.09
		c0,0.41,0.08,0.84,0.25,1.22s0.43,0.73,0.73,1c0.27,0.24,0.59,0.43,0.92,0.55c0.33,0.13,0.7,0.19,1.05,0.19
		c0.4,0,0.78-0.08,1.14-0.22s0.68-0.36,0.95-0.63c0.27-0.27,0.49-0.6,0.65-0.95c0.14-0.36,0.22-0.74,0.22-1.14v-5.12H86.4V18.63z"/>
	<rect x="64.79" y="13.53" class="st0" width="0.71" height="7.98"/>
	<rect x="88.65" y="13.53" class="st0" width="0.71" height="7.98"/>
	<path class="st0" d="M59.88,17.87h2.98c-0.03,0.38-0.14,0.73-0.32,1.06c-0.17,0.38-0.41,0.71-0.71,1c-0.3,0.3-0.67,0.52-1.06,0.67
		c-0.76,0.3-1.62,0.32-2.39,0.03c-0.36-0.13-0.7-0.32-1-0.55c-0.38-0.32-0.68-0.7-0.89-1.16c-0.21-0.44-0.32-0.93-0.32-1.43
		c0.02-0.49,0.11-0.97,0.32-1.41c0.21-0.44,0.51-0.84,0.87-1.16c0.3-0.25,0.63-0.44,1-0.59c0.87-0.32,1.85-0.25,2.68,0.16
		c0.48,0.24,0.89,0.59,1.2,1.01l0.13,0.17l0.48-0.33l0.1-0.08l-0.06-0.1c-1.05-1.5-2.96-2.14-4.7-1.54
		c-0.43,0.16-0.84,0.38-1.2,0.67c-0.48,0.38-0.87,0.87-1.14,1.43c-0.27,0.55-0.4,1.17-0.4,1.77s0.13,1.19,0.38,1.73
		c0.25,0.54,0.62,1.01,1.06,1.41c0.73,0.62,1.66,0.95,2.61,0.95c0.51,0,1.03-0.1,1.5-0.29c0.48-0.19,0.92-0.46,1.3-0.81
		c0.41-0.38,0.73-0.84,0.95-1.36c0.22-0.51,0.35-1.06,0.35-1.62v-0.36h-4.42L59.88,17.87z"/>
	<rect x="46.15" y="13.53" class="st0" width="0.71" height="7.98"/>
	<polygon class="st0" points="47.52,21.51 51.61,21.51 51.61,20.8 48.24,20.8 	"/>
	<rect x="47.56" y="17.16" class="st0" width="4.06" height="0.71"/>
	<polygon class="st0" points="51.61,14.26 51.61,13.53 47.52,13.53 48.24,14.26 	"/>
	<path class="st0" d="M68.94,17.87c0.33,0,0.65-0.08,0.95-0.22c0.3-0.14,0.57-0.36,0.76-0.63c0.14-0.19,0.25-0.41,0.33-0.63
		s0.11-0.46,0.11-0.7c0-0.29-0.05-0.55-0.16-0.81c-0.22-0.52-0.63-0.93-1.16-1.14c-0.27-0.11-0.55-0.17-0.84-0.17h-2.76l0.7,0.71
		h2.06c0.21,0,0.41,0.05,0.6,0.13s0.36,0.21,0.49,0.36c0.11,0.13,0.21,0.29,0.27,0.44c0.06,0.16,0.1,0.33,0.1,0.51
		c0,0.17-0.03,0.33-0.08,0.49c-0.06,0.16-0.14,0.3-0.24,0.43c-0.14,0.17-0.32,0.3-0.51,0.4s-0.41,0.14-0.63,0.14h-2.76v0.71h1.71
		l2.57,3.63h0.87l-2.58-3.63L68.94,17.87z"/>
	<path class="st0" d="M94.84,14.89c-0.22-0.54-0.63-0.95-1.17-1.19c-0.27-0.11-0.55-0.17-0.84-0.17h-2.77l0.7,0.71h2.08
		c0.21,0,0.41,0.05,0.6,0.13c0.19,0.08,0.36,0.21,0.49,0.36c0.11,0.13,0.21,0.29,0.27,0.44c0.06,0.16,0.1,0.33,0.1,0.51
		c0,0.17-0.03,0.33-0.08,0.49c-0.06,0.16-0.14,0.3-0.24,0.43c-0.14,0.17-0.32,0.3-0.51,0.4s-0.41,0.14-0.63,0.14h-2.77v0.71h2.77
		c0.33,0,0.65-0.08,0.95-0.22c0.3-0.14,0.57-0.36,0.76-0.63c0.14-0.19,0.25-0.41,0.33-0.63s0.13-0.44,0.13-0.68
		C95,15.43,94.95,15.16,94.84,14.89z"/>
</g>
</svg>
