<?xml version="1.0" encoding="utf-8"?>
<!-- Generator: Adobe Illustrator 26.0.1, SVG Export Plug-In . SVG Version: 6.00 Build 0)  -->
<svg version="1.1" id="Layer_1" xmlns="http://www.w3.org/2000/svg" xmlns:xlink="http://www.w3.org/1999/xlink" x="0px" y="0px"
	 viewBox="0 0 95 35" style="enable-background:new 0 0 95 35;" xml:space="preserve">
<style type="text/css">
	.st0{fill:#CCCCCC;}
</style>
<path class="st0" d="M35.95,9.17c-1.6-2.97-4.08-5.45-7.05-7.05c-3.29-1.81-7.17-2.46-10.88-1.95C12.36,0.94,7.22,4.69,4.75,9.85
	c-1.87,3.83-2.26,8.35-1.09,12.45c0.88,3.1,2.63,5.95,5.02,8.12c3.17,2.91,7.44,4.61,11.75,4.59c3.72,0.05,7.44-1.15,10.44-3.36
	c3.14-2.27,5.47-5.62,6.52-9.35C38.64,17.95,38.12,13.13,35.95,9.17z M6.36,13.85c0.23-0.36,0.8,0.04,0.54,0.38
	C6.68,14.58,6.1,14.18,6.36,13.85z M7,21.58c-0.23,0.36-0.8-0.04-0.54-0.38C6.68,20.85,7.26,21.25,7,21.58z M7,17.91
	c-0.23,0.36-0.8-0.04-0.54-0.38C6.69,17.18,7.26,17.57,7,17.91z M18.16,13.2c0.6-0.44,1.54,0.16,1.45,0.88
	c0.02,0.75-0.95,1.14-1.52,0.74C17.54,14.46,17.56,13.49,18.16,13.2z M8.53,21.9c-0.26,0-0.47-0.21-0.47-0.47
	c0-0.26,0.21-0.47,0.47-0.47c0.26,0,0.47,0.21,0.47,0.47C9.01,21.69,8.79,21.9,8.53,21.9z M8.56,18.17c-0.26,0-0.48-0.21-0.48-0.48
	c0-0.26,0.21-0.47,0.48-0.47c0.26,0,0.47,0.21,0.47,0.47C9.03,17.95,8.82,18.17,8.56,18.17z M8.56,14.49
	c-0.26,0-0.48-0.21-0.48-0.47c0-0.26,0.21-0.48,0.48-0.48c0.26,0,0.47,0.21,0.47,0.48C9.03,14.28,8.82,14.49,8.56,14.49z
	 M10.79,13.47c0.33,0,0.59,0.27,0.59,0.59c0,0.33-0.27,0.59-0.59,0.59c-0.33,0-0.59-0.27-0.59-0.59
	C10.2,13.74,10.47,13.47,10.79,13.47z M10.81,17.14c0.33,0,0.59,0.27,0.59,0.59c0,0.33-0.27,0.59-0.59,0.59
	c-0.33,0-0.59-0.27-0.59-0.59C10.21,17.4,10.48,17.14,10.81,17.14z M10.81,21.99c-0.33,0-0.59-0.27-0.59-0.59
	c0-0.33,0.27-0.59,0.59-0.59c0.33,0,0.59,0.27,0.59,0.59C11.4,21.73,11.14,21.99,10.81,21.99z M13.07,22.12
	c-0.39,0-0.71-0.32-0.71-0.71c0-0.39,0.32-0.71,0.71-0.71s0.71,0.32,0.71,0.71C13.78,21.8,13.46,22.12,13.07,22.12z M13.13,18.43
	c-0.39,0-0.71-0.32-0.71-0.71c0-0.39,0.32-0.71,0.71-0.71c0.39,0,0.71,0.32,0.71,0.71C13.84,18.11,13.53,18.43,13.13,18.43z
	 M13.13,14.75c-0.39,0-0.71-0.32-0.71-0.71c0-0.39,0.32-0.71,0.71-0.71c0.39,0,0.71,0.32,0.71,0.71
	C13.84,14.43,13.53,14.75,13.13,14.75z M15.24,22c-0.45-0.37-0.3-1.18,0.24-1.38c0.53-0.24,1.23,0.24,1.14,0.82
	C16.62,22.1,15.69,22.49,15.24,22z M15.25,18.32c-0.45-0.37-0.3-1.18,0.24-1.38c0.53-0.24,1.23,0.24,1.14,0.82
	C16.64,18.42,15.71,18.81,15.25,18.32z M15.85,14.86c-0.73,0.12-1.2-0.96-0.61-1.42c0.36-0.39,1.03-0.26,1.27,0.19
	C16.86,14.11,16.43,14.86,15.85,14.86z M18.08,22.17c-0.54-0.36-0.52-1.32,0.07-1.62c0.6-0.44,1.54,0.16,1.45,0.88
	C19.63,22.18,18.66,22.58,18.08,22.17z M19.49,18.17c-0.29,0.62-1.3,0.64-1.65,0.07c-0.26-0.45-0.16-1.14,0.35-1.36
	C18.94,16.34,20.02,17.41,19.49,18.17z M21.44,29.7c-0.75-0.43-0.62-1.7,0.21-1.95c0.63-0.23,1.43,0.21,1.47,0.9
	C23.27,29.51,22.16,30.25,21.44,29.7z M21.49,20.42c0.65-0.36,1.59,0.05,1.64,0.83c0.15,0.86-0.97,1.61-1.68,1.05
	C20.73,21.92,20.8,20.78,21.49,20.42z M21.44,25.98c-0.75-0.43-0.62-1.7,0.21-1.95c0.63-0.23,1.43,0.21,1.47,0.9
	C23.27,25.8,22.16,26.54,21.44,25.98z M21.42,18.61c-0.68-0.4-0.62-1.52,0.07-1.88c0.7-0.39,1.69,0.17,1.64,0.99
	C23.16,18.55,22.09,19.13,21.42,18.61z M23.02,14.53c-0.3,0.65-1.25,0.81-1.75,0.3c-0.58-0.53-0.34-1.63,0.43-1.84
	C22.57,12.66,23.5,13.71,23.02,14.53z M23.12,10.54c-0.1,0.78-1.11,1.2-1.73,0.71c-0.73-0.46-0.53-1.74,0.32-1.94
	C22.45,9.05,23.29,9.77,23.12,10.54z M23.09,7.01c-0.21,0.83-1.46,1.04-1.94,0.34C20.7,6.78,21,5.8,21.72,5.63
	C22.52,5.35,23.37,6.21,23.09,7.01z M24.92,20.32c0.78-0.55,1.94,0.17,1.84,1.11c-0.03,0.92-1.22,1.46-1.94,0.89
	C24.13,21.85,24.19,20.73,24.92,20.32z M24.82,26.03c-0.69-0.48-0.63-1.6,0.1-2c0.78-0.55,1.94,0.18,1.84,1.11
	C26.74,26.06,25.54,26.6,24.82,26.03z M24.88,18.69c-0.69-0.48-0.63-1.6,0.1-2c0.78-0.55,1.94,0.18,1.84,1.11
	C26.8,18.72,25.6,19.26,24.88,18.69z M24.98,13.03c0.78-0.55,1.94,0.18,1.84,1.11c-0.03,0.92-1.22,1.46-1.94,0.89
	C24.19,14.56,24.25,13.44,24.98,13.03z M24.89,11.34c-0.69-0.48-0.63-1.6,0.1-2c0.78-0.55,1.94,0.18,1.84,1.11
	C26.8,11.36,25.61,11.91,24.89,11.34z M28.58,22.54c-0.86-0.51-0.79-1.87,0.07-2.34c0.88-0.47,2.11,0.18,2.03,1.22
	C30.73,22.45,29.41,23.14,28.58,22.54z M28.43,18.75c-0.78-0.62-0.52-2,0.42-2.3c0.86-0.33,1.89,0.36,1.84,1.3
	C30.73,18.86,29.23,19.51,28.43,18.75z M30.61,14.5c-0.3,1.02-1.85,1.23-2.4,0.33c-0.54-0.68-0.17-1.8,0.65-2.06
	C29.88,12.36,31.04,13.46,30.61,14.5z M32.51,19.07c-1.09-0.45-1.08-2.19,0-2.65c0.92-0.53,2.19,0.27,2.15,1.32
	C34.73,18.79,33.42,19.62,32.51,19.07z"/>
<path class="st0" d="M87.13,16.05c1.51-1.71,3.02-3.41,4.54-5.11c-1.28,0.01-2.57,0.01-3.85,0c-1.4,1.72-2.81,3.44-4.2,5.17
	c0.01-3.27-0.01-6.53,0.01-9.8c-1.05,0-2.11,0-3.16,0c0.02,5.76,0.01,11.52,0,17.28c1.05,0,2.11,0,3.16,0
	c-0.01-1.25,0-2.49-0.01-3.74c0.45-0.5,0.89-1.01,1.33-1.52c1.05,1.74,2.07,3.51,3.11,5.25c1.32,0.01,2.63,0.01,3.95,0
	C90.37,21.09,88.76,18.56,87.13,16.05z"/>
<path class="st0" d="M52.27,16.61c-1.36-0.89-3.06-0.7-4.59-0.96c-0.48-0.06-1.01-0.37-1.02-0.9c-0.1-0.64,0.48-1.14,1.05-1.26
	c1.27-0.22,2.64,0,3.71,0.75c0.65-0.66,1.31-1.32,1.95-1.99c-0.91-0.72-1.99-1.21-3.15-1.34c-1.76-0.26-3.74-0.17-5.2,0.96
	c-1.68,1.23-1.96,4.03-0.47,5.51c1.43,1.25,3.46,0.93,5.19,1.29c0.52,0.09,0.95,0.59,0.87,1.13c-0.02,0.6-0.61,0.97-1.13,1.11
	c-1.55,0.38-3.28,0.02-4.5-1.03c-0.68,0.7-1.37,1.39-2.07,2.08c1.05,0.97,2.39,1.63,3.82,1.72c1.89,0.14,4,0.17,5.58-1.05
	C54.21,21.23,54.28,17.92,52.27,16.61z"/>
<path class="st0" d="M58.25,11.19c-2.02,0.75-3.12,2.88-3.3,4.93c-0.17,1.97-0.01,4.14,1.24,5.76c1.14,1.48,3.13,1.94,4.91,1.87
	c1.71,0.01,3.31-0.78,4.49-1.99c-0.64-0.63-1.29-1.25-1.93-1.88c-1.14,1.19-3.11,1.61-4.54,0.71c-0.8-0.49-1.04-1.45-1.17-2.32
	c2.66-0.02,5.33,0,7.99-0.01c0.07-1.95-0.04-4.1-1.37-5.66C63.1,10.77,60.38,10.41,58.25,11.19z M57.96,16.07
	c0.15-0.66,0.25-1.37,0.7-1.9c0.9-1.03,2.74-0.99,3.58,0.11c0.41,0.5,0.49,1.17,0.62,1.79C61.22,16.09,59.59,16.08,57.96,16.07z"/>
<path class="st0" d="M70.69,11.19c-1.99,0.76-3.09,2.87-3.28,4.9c-0.17,1.97-0.02,4.16,1.24,5.78c1.14,1.48,3.12,1.94,4.91,1.87
	c1.71,0.01,3.31-0.78,4.5-1.98c-0.64-0.64-1.3-1.26-1.93-1.9c-1.12,1.22-3.11,1.61-4.54,0.72c-0.8-0.49-1.03-1.46-1.16-2.32
	c2.67-0.02,5.33-0.01,7.99-0.01c0.06-1.89-0.03-3.97-1.26-5.52C75.7,10.78,72.87,10.38,70.69,11.19z M70.43,16.07
	c0.13-0.6,0.21-1.25,0.59-1.76c0.84-1.16,2.82-1.18,3.68-0.03c0.41,0.5,0.5,1.18,0.62,1.79C73.69,16.09,72.06,16.08,70.43,16.07z"/>
</svg>
