<?xml version="1.0" encoding="utf-8"?>
<!-- Generator: Adobe Illustrator 26.0.1, SVG Export Plug-In . SVG Version: 6.00 Build 0)  -->
<svg version="1.1" id="Layer_1" xmlns="http://www.w3.org/2000/svg" xmlns:xlink="http://www.w3.org/1999/xlink" x="0px" y="0px"
	 viewBox="0 0 95 35" style="enable-background:new 0 0 95 35;" xml:space="preserve">
<style type="text/css">
	.st0{fill:#FFFFFF;}
	.st1{fill-rule:evenodd;clip-rule:evenodd;fill:#FFFFFF;}
</style>
<g>
	<path class="st0" d="M36.3,12.54c-0.84-0.4-1.74-0.55-2.96-0.55c-2.26,0-3.82,1.33-3.82,2.9c0,1.33,0.71,2.26,2.15,2.91l1.27,0.54
		c1.31,0.55,1.68,1.05,1.68,1.87c0,0.79-0.74,1.43-2.04,1.43c-1.01,0-2-0.25-2.85-0.68l-0.54,1.31c0.98,0.46,2.15,0.7,3.47,0.7
		c2.19,0,3.9-1.24,3.9-3.07c0-1.46-0.7-2.36-2.33-3.06l-1.06-0.48c-1.41-0.59-1.73-1.05-1.73-1.74c0-0.76,0.67-1.3,2-1.3
		c0.92,0,1.74,0.22,2.34,0.52L36.3,12.54"/>
	<path class="st0" d="M42.3,16.66v-1.22h-2.31c0-0.7,0.03-1.49,0.13-2.26l-1.85,0.4c0.03,0.67,0.03,1.16,0.03,1.87h-1.24v1.22h1.22
		c0,1.24-0.06,2.69-0.06,3.82c0,1.62,0.97,2.49,2.25,2.49c0.89,0,1.69-0.22,2.23-0.62l-0.38-1.03c-0.36,0.24-0.74,0.33-1.25,0.33
		c-0.52,0-1.03-0.33-1.08-1.05c-0.1-1.01-0.03-2.5-0.03-3.93h2.34"/>
	<path class="st1" d="M49.21,19.12c0,1.58-0.74,2.68-2.04,2.68c-1.3,0-2.03-1.11-2.03-2.68c0-1.58,0.74-2.68,2.03-2.68
		C48.47,16.44,49.21,17.53,49.21,19.12 M43.29,19.21c0,2.22,1.47,3.75,3.88,3.75c2.31,0,3.91-1.74,3.91-3.93
		c0-2.2-1.54-3.77-3.91-3.77C44.85,15.27,43.29,16.99,43.29,19.21"/>
	<path class="st0" d="M56.02,16.5c0.63,0,1.24,0.14,1.71,0.36l0.43-1.2c-0.67-0.27-1.35-0.4-2.3-0.4c-2.28,0-3.96,1.68-3.96,3.82
		c0,2.57,1.62,3.88,3.64,3.88c1.09,0,1.93-0.24,2.69-0.76l-0.41-1.09c-0.52,0.36-1.12,0.52-1.74,0.52c-1.35,0-2.34-0.86-2.34-2.72
		C53.74,17.42,54.58,16.5,56.02,16.5"/>
	<path class="st0" d="M61.25,22.79c-0.05-1.35-0.08-2.6-0.08-3.71c0.93,1.2,2.5,2.91,3.56,3.99l1.84-0.7
		c-1.08-0.95-2.71-2.61-3.66-3.75c0.98-0.95,2.52-2.33,3.42-3.18h-2.01c-0.71,0.78-2.2,2.25-3.14,3.17c0-3.28,0.02-4.88,0.08-7.13
		h-1.9c0.08,2.25,0.1,3.55,0.1,5.84c0,2.14-0.02,3.36-0.1,5.46H61.25"/>
	<path class="st0" d="M69.26,17.33c0-2.28,0.02-3.58,0.1-5.84h-1.9c0.08,2.25,0.1,3.55,0.1,5.84c0,2.14-0.02,3.36-0.1,5.46h1.9
		C69.28,20.68,69.26,19.46,69.26,17.33"/>
	<path class="st1" d="M72.41,18.96c0-1.65,1.05-2.55,2.25-2.55c0.54,0,0.9,0.08,1.28,0.25c0.03,0.38,0.05,1.3,0.05,2.15
		c0,0.59-0.02,1.25-0.05,1.71c-0.48,0.76-1.06,1.05-1.71,1.05C73.19,21.59,72.41,20.78,72.41,18.96 M77.72,18.96
		c0-1.54,0.02-2.33,0.13-3.82l-1.27,0.38c-0.55-0.17-1.06-0.27-1.85-0.27c-2.28,0-4.15,1.63-4.15,4.05c0,2.36,1.36,3.64,2.87,3.64
		c1,0,1.95-0.43,2.52-1.36l0.14,1.2h1.73C77.72,21.19,77.72,20.53,77.72,18.96"/>
	<path class="st0" d="M81.39,15.44h-1.73c0.08,1.5,0.1,2.2,0.1,3.71c0,1.41-0.02,2.25-0.1,3.64h1.9c-0.06-1.08-0.08-1.69-0.08-2.76
		c0-0.84,0.02-1.76,0.08-2.36c0.44-0.7,1.06-1.03,1.69-1.03c0.78,0,1.28,0.48,1.35,1.44c0.03,0.49,0.05,1.41,0.05,2.26
		c0,0.97-0.02,1.5-0.08,2.44h1.88c-0.08-1-0.08-1.54-0.08-2.52c0-0.81,0.05-1.38,0.05-2.34c0-1.69-0.98-2.68-2.41-2.68
		c-1.08,0-1.88,0.46-2.49,1.38L81.39,15.44"/>
	<path class="st1" d="M89.61,18.96c0-1.65,1.06-2.55,2.26-2.55c0.54,0,0.92,0.08,1.3,0.25c0.02,0.46,0.03,1.3,0.03,2.15
		c0,0.59-0.02,1.25-0.05,1.71c-0.48,0.76-1.06,1.05-1.71,1.05C90.41,21.59,89.61,20.78,89.61,18.96 M93.13,11.48
		c0.06,1.49,0.1,2.65,0.1,3.93c-0.36-0.1-0.73-0.14-1.28-0.14c-2.28,0-4.15,1.63-4.15,4.05c0,2.36,1.36,3.64,2.85,3.64
		c1,0,1.95-0.43,2.52-1.36l0.13,1.2H95c-0.08-2.11-0.1-3.34-0.1-5.46c0-2.28,0-3.58,0.1-5.84h-1.87V11.48z"/>
	<path class="st0" d="M0,28.51h22.02V6.49H0C0,6.49,0,28.51,0,28.51z M10.45,10.04c-2.69,0.22-4.8,2.5-4.8,5.29s2.12,5.07,4.8,5.29
		v0.86c-2.84-0.21-5.13-2.38-5.56-5.16v0.05c0,3.22,2.45,5.84,5.58,6.07v1.11c-3.12-0.19-5.69-2.41-6.45-5.39
		c0.32,3.42,3.04,6.11,6.45,6.32v1.35c-4.34-0.22-7.79-3.86-7.79-8.33s3.44-8.08,7.78-8.32V10.04z M11.55,25.83v-0.86
		c2.69-0.22,4.8-2.5,4.8-5.29s-2.11-5.07-4.8-5.29v-0.86c2.84,0.21,5.13,2.38,5.58,5.16v-0.05c0-3.22-2.45-5.84-5.58-6.07v-1.11
		c3.12,0.19,5.69,2.41,6.45,5.39c-0.32-3.42-3.04-6.11-6.45-6.32V9.2c4.34,0.22,7.79,3.86,7.79,8.33
		C19.34,21.97,15.9,25.61,11.55,25.83"/>
</g>
</svg>
