<?xml version="1.0" encoding="utf-8"?>
<!-- Generator: Adobe Illustrator 26.0.1, SVG Export Plug-In . SVG Version: 6.00 Build 0)  -->
<svg version="1.1" id="Layer_1" xmlns="http://www.w3.org/2000/svg" xmlns:xlink="http://www.w3.org/1999/xlink" x="0px" y="0px"
	 viewBox="0 0 95 35" style="enable-background:new 0 0 95 35;" xml:space="preserve">
<style type="text/css">
	.st0{fill:#343741;}
</style>
<g>
	<path class="st0" d="M50.41,12.07l-3.51-1.8l1.2-3.78c0-0.08,0-0.17-0.08-0.25c-0.08-0.08-0.17-0.08-0.25-0.08l-3.78,1.2l-1.8-3.51
		c-0.08,0-0.08-0.08-0.25-0.08c-0.08,0-0.17,0.08-0.25,0.17c0,0-1.2,1.8-1.81,3.51l-3.78-1.2c-0.08,0-0.17,0-0.25,0.08
		c-0.08,0.08-0.08,0.17-0.08,0.25l1.2,3.78l-3.44,1.71c-0.08,0-0.17,0.08-0.17,0.25s0.08,0.17,0.17,0.25l3.51,1.8l-1.2,3.78
		c0,0.08,0,0.17,0.08,0.25s0.17,0.08,0.25,0.08l3.78-1.2l1.81,3.52c0,0.08,0.08,0.08,0.25,0.08c0.08,0,0.17-0.08,0.25-0.17
		c0,0,1.2-1.81,1.8-3.52l3.78,1.2c0.08,0,0.17,0,0.25-0.08c0,0,0-0.08,0-0.17l-1.2-3.78l3.51-1.8c0.08,0,0.17-0.08,0.17-0.25
		S50.51,12.16,50.41,12.07z M47.5,6.83l-1.12,3.36l-2.15-0.17l-0.17-2.15L47.5,6.83z M44.14,10.44l2.06,0.17l-1.28,1.55l-1.12-0.6
		L44.14,10.44z M43.89,13.02l0.95-0.52l1.28,1.55l-1.71,0.17C44.32,13.8,44.14,13.37,43.89,13.02z M40.38,12.85l-1.12-0.52
		l0.95-0.52c0.35,0.35,0.85,0.68,1.55,0.95c0.95,0.35,1.46,0.78,1.71,1.28l-0.78-0.25c-0.08,0-0.17,0-0.17,0.08l-0.52,1.12
		l-0.52-1.12c0-0.08-0.08-0.08-0.17-0.08c0,0,0,0-0.08,0l-1.12,0.35L40.44,13C40.45,13.02,40.45,12.92,40.38,12.85z M40.03,11.64
		l-0.95,0.52l-1.38-1.55l1.71-0.17C39.5,10.87,39.68,11.29,40.03,11.64z M42.18,11.9c-0.95-0.35-1.46-0.78-1.71-1.28l0.78,0.17
		c0.08,0,0.17,0,0.17-0.08l0.52-1.12l0.52,1.12c0,0.08,0.08,0.08,0.17,0.08l1.2-0.35l-0.35,1.12c0,0.08,0,0.17,0.08,0.17l1.12,0.6
		l-0.95,0.52C43.29,12.42,42.78,12.16,42.18,11.9z M43.89,10.09l-1.12,0.35l-0.52-1.12l1.55-1.28L43.89,10.09z M41.91,4.52
		l1.63,3.18l-1.63,1.38l-1.38-1.2C41.06,6.15,41.91,4.52,41.91,4.52z M40.38,8.73c0-0.08,0.08-0.25,0.08-0.43l1.28,1.12l-0.52,1.12
		l-0.85-0.25C40.2,9.84,40.28,9.33,40.38,8.73z M36.42,6.83l3.26,1.03C39.6,8.11,39.5,8.38,39.5,8.63
		c-0.08,0.52-0.17,1.03-0.08,1.38c-0.25,0-1.88,0.17-1.88,0.17L36.42,6.83z M34.18,12.34l3.18-1.63l1.38,1.63l-1.38,1.63
		L34.18,12.34z M36.42,17.83l1.12-3.36l2.15,0.17l0.17,2.15L36.42,17.83z M39.77,14.22l-2.06-0.17L39,12.5l1.12,0.52L39.77,14.22z
		 M40.03,14.57l1.12-0.35l0.52,1.03l-1.55,1.28L40.03,14.57z M41.91,20.14l-1.55-3.18l1.63-1.38l1.38,1.2
		C42.86,18.43,41.91,20.14,41.91,20.14z M43.54,15.93c0,0.08-0.08,0.25-0.08,0.35l-1.28-1.12l0.52-1.03l0.85,0.25
		C43.72,14.82,43.64,15.33,43.54,15.93z M47.5,17.83l-3.26-1.03c0.08-0.25,0.17-0.52,0.17-0.78c0.08-0.52,0.17-1.03,0.08-1.38
		l1.88-0.17L47.5,17.83z M46.55,13.97l-1.38-1.63l1.38-1.63l3.18,1.63L46.55,13.97z"/>
	<path class="st0" d="M0,8.13v1.2h2.49v7.2h1.38V9.31h2.41v-1.2H0 M16.4,16.53v-3.78h-3.86v3.78h-1.38V8.11h1.38v3.36h3.86V8.11
		h1.38v8.42H16.4 M28.61,9.33h-3.7v2.23h3.51v1.28h-3.51v2.41h3.78v1.28h-5.16V8.11h5.07v1.22 M56,14.13
		c0.08,0.95,1.12,1.28,1.98,1.28s1.98-0.25,1.98-1.28c0-1.12-1.12-1.2-2.15-1.28c-1.55-0.17-3.09-0.6-3.09-2.31s1.55-2.58,3.18-2.58
		c1.63,0,3.09,0.68,3.18,2.41H59.8c-0.08-0.85-1.03-1.2-1.81-1.2s-1.81,0.35-1.81,1.28s0.95,1.03,1.88,1.2
		c1.71,0.17,3.26,0.52,3.26,2.49c0,1.88-1.71,2.58-3.36,2.58c-1.65,0-3.36-0.78-3.44-2.58L56,14.13 M65.71,9.33v-1.2h6.27v1.2h-2.49
		v7.2h-1.38V9.31h-2.41 M77.22,14.82l-0.86,1.71h-1.46v-0.17l3.96-8.33h0.68l3.86,8.33v0.17h-1.46l-0.86-1.71H77.22z M77.74,13.62
		h2.91l-1.46-3.36L77.74,13.62z M94.83,16.36v0.17h-1.46l-2.06-2.91h-1.9v2.91h-1.38V8.11h3.44c1.81,0,2.91,1.2,2.91,2.75
		c0,1.2-0.68,2.15-1.81,2.49L94.83,16.36z M91.56,12.42c0.95,0,1.55-0.68,1.55-1.55s-0.68-1.55-1.55-1.55h-2.06v3.1H91.56z"/>
	<path class="st0" d="M0.55,27.52h2.36v-0.38H0.17v3.96h2.74v-0.38H0.55v-1.39h2.11V28.9H0.55C0.55,28.92,0.55,27.52,0.55,27.52z
		 M8.38,27.14H7.95v3.25l-2.6-3.25H5.02v3.96h0.43v-3.2l2.56,3.2h0.33v-3.96H8.38z M13.73,27.52v-0.38h-3.37v0.38h1.47v3.58h0.43
		v-3.58H13.73z M16.13,27.52h2.36v-0.38h-2.74v3.96h2.74v-0.38h-2.36v-1.39h2.11V28.9h-2.11C16.13,28.9,16.13,27.52,16.13,27.52z
		 M22.02,29.68l1.22,1.43h0.51l-1.27-1.47c0.68-0.13,1.09-0.59,1.09-1.22c0-0.81-0.63-1.27-1.52-1.27h-1.47v3.96h0.43v-1.43H22.02z
		 M21.06,29.3v-1.77h1.05c0.63,0,1.09,0.33,1.09,0.89s-0.46,0.89-1.09,0.89H21.06z M28.72,27.52v-0.38h-3.37v0.38h1.47v3.58h0.43
		v-3.58H28.72z M32.85,29.93l0.51,1.14h0.46l-1.81-4.01h-0.4l-1.81,4.01h0.46l0.51-1.14H32.85z M32.68,29.55h-1.73l0.89-1.98
		L32.68,29.55z M35.8,31.1h0.41v-3.96h-0.43v3.96H35.8z M41.99,27.14h-0.43v3.25l-2.61-3.25h-0.33v3.96h0.43v-3.2l2.56,3.2h0.33
		v-3.96H41.99z M48.21,27.14h-0.28l-1.6,2.69l-1.6-2.69H44.4v3.96h0.43v-3.07l1.39,2.28h0.3l1.35-2.28v3.07h0.43v-3.96H48.21z
		 M51.08,27.52h2.36v-0.38H50.7v3.96h2.74v-0.38h-2.36v-1.39h2.11V28.9h-2.11V27.52z M58.92,27.14h-0.43v3.25l-2.61-3.25h-0.33v3.96
		h0.43v-3.2l2.57,3.2h0.33v-3.96H58.92z M64.27,27.52v-0.38H60.9v0.38h1.47v3.58h0.43v-3.58H64.27z M72.72,29.12v-0.08h-1.93v0.38
		h1.52c-0.08,0.81-0.63,1.39-1.47,1.39c-0.93,0-1.65-0.76-1.65-1.65c0-0.97,0.71-1.68,1.68-1.68c0.63,0,1.22,0.33,1.43,1.01h0.46
		c-0.21-0.89-1.01-1.39-1.9-1.39c-1.14,0-2.06,0.89-2.06,2.11c0,1.14,0.89,2.03,2.06,2.03c0.76,0,1.27-0.38,1.55-0.93l0.05,0.84
		h0.33L72.72,29.12L72.72,29.12z M76.47,29.68l1.22,1.43h0.51l-1.27-1.47c0.68-0.13,1.09-0.59,1.09-1.22c0-0.81-0.63-1.27-1.52-1.27
		h-1.47v3.96h0.43v-1.43C75.46,29.68,76.47,29.68,76.47,29.68z M75.51,29.3v-1.77h1.04c0.63,0,1.09,0.33,1.09,0.89
		s-0.46,0.89-1.09,0.89H75.51z M82.11,27.06c-1.14,0-2.06,0.93-2.06,2.06c0,1.12,0.93,2.06,2.06,2.06c1.14,0,2.06-0.93,2.06-2.06
		C84.17,28,83.25,27.06,82.11,27.06z M82.11,30.8c-0.93,0-1.65-0.76-1.65-1.68c0-0.92,0.71-1.68,1.65-1.68s1.65,0.76,1.65,1.68
		C83.76,30.04,83.05,30.8,82.11,30.8z M89.7,27.14h-0.43v2.28c0,0.81-0.51,1.39-1.27,1.39c-0.76,0-1.27-0.59-1.27-1.39v-2.28h-0.43
		v2.28c0,1.05,0.68,1.77,1.68,1.77c1.01,0,1.68-0.71,1.68-1.77v-2.28H89.7z M92.09,27.14v3.96h0.43v-1.3h0.93
		c0.93,0,1.55-0.55,1.55-1.35c0-0.79-0.59-1.3-1.52-1.3C93.48,27.14,92.09,27.14,92.09,27.14z M92.51,29.42v-1.9h0.97
		c0.68,0,1.14,0.38,1.14,0.93c0,0.59-0.46,0.97-1.14,0.97H92.51z"/>
</g>
</svg>
