<?xml version="1.0" encoding="utf-8"?>
<!-- Generator: Adobe Illustrator 26.0.1, SVG Export Plug-In . SVG Version: 6.00 Build 0)  -->
<svg version="1.1" id="Layer_1" xmlns="http://www.w3.org/2000/svg" xmlns:xlink="http://www.w3.org/1999/xlink" x="0px" y="0px"
	 viewBox="0 0 95 35" style="enable-background:new 0 0 95 35;" xml:space="preserve">
<style type="text/css">
	.st0{fill:#CCCCCC;}
	.st1{fill:#134E8D;}
</style>
<g>
	<path class="st0" d="M46.97,14.18c-0.11-0.08-0.15-0.09-0.18-0.12c-1.39-1.24-2.79-2.48-4.16-3.74c-0.34-0.31-0.67-0.34-1.08-0.28
		c0,1.76,0,3.49,0,5.24c0.27,0,0.52,0,0.8,0c0-0.37,0-0.71,0-1.05c0-0.33,0-0.66,0-0.99c0-0.34-0.01-0.69,0-1.03
		c0.01-0.33-0.06-0.67,0.06-1.03c0.08,0.07,0.13,0.1,0.18,0.15c1.34,1.21,2.7,2.41,4.02,3.65c0.36,0.34,0.72,0.37,1.16,0.3
		c0-1.76,0-3.49,0-5.24c-0.27,0-0.52,0-0.81,0C46.97,11.41,46.97,12.76,46.97,14.18z"/>
	<path class="st0" d="M65.01,21.7c-1.19,0-2.32,0-3.49,0c0-0.7,0-1.38,0-2.1c-0.25,0-0.47,0-0.68,0c-0.09,0-0.19,0.02-0.28,0.02
		c-0.08,0.61-0.05,4.98,0.03,5.26c0.3,0,0.6,0,0.94,0c0-0.87,0-1.73,0-2.59c1.18,0,2.31,0,3.49,0c0,0.88,0,1.73,0,2.58
		c0.36,0,0.66,0,0.96,0c0-1.77,0-3.5,0-5.24c-0.34,0-0.64,0-0.98,0C65.01,20.33,65.01,21,65.01,21.7z"/>
	<path class="st0" d="M26.86,22.29c1.2,0,2.33,0,3.51,0c0,0.87,0,1.73,0,2.58c0.35,0,0.66,0,0.96,0c0-1.77,0-3.5,0-5.24
		c-0.33,0-0.64,0-0.98,0c0,0.7,0,1.38,0,2.08c-1.17,0-2.3,0-3.47,0c-0.02-0.71,0.01-1.4-0.01-2.08c-0.36,0-0.66,0-0.95,0
		c-0.08,0.48-0.06,4.97,0.02,5.26c0.3,0,0.6,0,0.93,0C26.86,24.02,26.86,23.18,26.86,22.29z"/>
	<path class="st0" d="M60.24,10.47c-0.1-0.06-0.17-0.1-0.25-0.14c-1.05-0.49-2.15-0.5-3.26-0.27c-0.74,0.15-1.41,0.46-1.95,1
		c-0.96,0.96-0.95,2.35,0.01,3.3c0.36,0.35,0.78,0.6,1.26,0.75c0.94,0.31,1.91,0.37,2.88,0.19c0.41-0.07,0.82-0.17,1.21-0.41
		c-0.13-0.15-0.25-0.28-0.36-0.41c-0.67,0.29-1.34,0.43-2.04,0.38c-0.7-0.05-1.35-0.24-1.89-0.72c-1.04-0.92-0.9-2.5,0.29-3.23
		c0.39-0.24,0.82-0.37,1.28-0.42c0.84-0.09,1.64,0.03,2.41,0.42C59.97,10.77,60.1,10.63,60.24,10.47z"/>
	<path class="st0" d="M38.11,24.35c-0.99,0-1.95,0-2.92,0c0-0.68,0-1.32,0-2c0.83,0,1.63,0,2.43,0c0-0.19,0-0.33,0-0.52
		c-0.82,0-1.62,0-2.43,0c0-0.59,0-1.13,0-1.7c0.84,0,1.66,0,2.48,0c0-0.19,0-0.34,0-0.5c-1.18,0-2.32,0-3.47,0
		c-0.08,0.66-0.05,4.98,0.04,5.26c1.28,0,2.57,0,3.87,0C38.11,24.71,38.11,24.55,38.11,24.35z"/>
	<path class="st0" d="M74.17,24.07c-0.16,0.06-0.27,0.11-0.38,0.15c-0.87,0.29-1.75,0.32-2.62,0.03c-0.4-0.13-0.75-0.34-1.04-0.65
		c-0.96-1-0.67-2.58,0.61-3.21c0.85-0.42,1.74-0.45,2.65-0.21c0.29,0.08,0.57,0.19,0.88,0.29c0.12-0.13,0.24-0.27,0.39-0.44
		c-0.22-0.1-0.37-0.18-0.54-0.24c-1.43-0.48-2.84-0.39-4.18,0.3c-0.31,0.16-0.6,0.4-0.84,0.65c-0.8,0.85-0.83,2.05-0.1,2.96
		c0.36,0.45,0.83,0.76,1.37,0.95c1.32,0.46,2.63,0.44,3.94-0.05c0.08-0.03,0.15-0.09,0.24-0.14C74.4,24.33,74.29,24.21,74.17,24.07z
		"/>
	<path class="st0" d="M92.07,21.83c0-0.58-0.01-1.13,0.01-1.72c0.87,0,1.69,0,2.51,0c0-0.18,0-0.33,0-0.48c-1.18,0-2.33,0-3.49,0
		c0,1.76,0,3.5,0,5.24c1.32,0,2.62,0,3.9,0c0-0.18,0-0.34,0-0.53c-0.99,0-1.94,0-2.91,0c0-0.67,0-1.31,0-1.98c0.82,0,1.63,0,2.43,0
		c0-0.2,0-0.35,0-0.53C93.69,21.83,92.9,21.83,92.07,21.83z"/>
	<path class="st0" d="M29.72,10.44c-0.21-0.11-0.37-0.22-0.54-0.29c-0.74-0.29-1.5-0.32-2.25-0.06c-0.24,0.08-0.48,0.22-0.67,0.38
		c-0.43,0.35-0.48,0.92-0.13,1.36c0.13,0.16,0.29,0.3,0.46,0.41c0.34,0.21,0.69,0.39,1.03,0.59c0.28,0.17,0.57,0.33,0.83,0.53
		c0.26,0.2,0.43,0.47,0.34,0.82c-0.09,0.35-0.34,0.51-0.66,0.6c-0.55,0.15-1.09,0.07-1.61-0.15c-0.16-0.07-0.32-0.14-0.45-0.2
		c-0.16,0.14-0.31,0.27-0.48,0.42c0.12,0.07,0.22,0.14,0.32,0.19c0.6,0.28,1.23,0.38,1.88,0.35c0.5-0.03,0.98-0.14,1.4-0.42
		c0.71-0.46,0.82-1.2,0.24-1.81c-0.18-0.19-0.39-0.35-0.6-0.49c-0.3-0.2-0.62-0.35-0.92-0.54c-0.26-0.16-0.52-0.31-0.75-0.5
		c-0.39-0.33-0.33-0.82,0.14-1.02c0.24-0.1,0.54-0.15,0.8-0.12c0.39,0.04,0.76,0.18,1.21,0.29C29.38,10.71,29.53,10.59,29.72,10.44z
		"/>
	<path class="st0" d="M52.96,19.63c0,0.18,0,0.32,0,0.52c0.76,0,1.51,0,2.28,0c0,1.61,0,3.17,0,4.73c0.34,0,0.65,0,0.99,0
		c0.01-1.59-0.01-3.16,0.01-4.76c0.79,0,1.53,0,2.28,0c0-0.18,0-0.33,0-0.49C56.66,19.63,54.83,19.63,52.96,19.63z"/>
	<path class="st0" d="M51.68,24.36c-0.98,0-1.95,0-2.95,0c0-1.6,0-3.16,0-4.74c-0.35,0-0.65,0-0.98,0c0,1.76,0,3.51,0,5.25
		c1.32,0,2.62,0,3.93,0C51.68,24.7,51.68,24.55,51.68,24.36z"/>
	<path class="st0" d="M51.58,15.29c0.08-0.6,0.05-4.98-0.03-5.25c-0.3,0-0.6,0-0.91,0c0,1.76,0,3.5,0,5.25
		C50.96,15.29,51.27,15.29,51.58,15.29z"/>
	<path class="st0" d="M21.48,10.22c-0.1,0.05-0.2,0.07-0.21,0.12c-0.03,0.09-0.02,0.19-0.02,0.28c0,4.61,0,9.21,0,13.82
		c0,0.08-0.02,0.17,0.01,0.24c0.03,0.06,0.11,0.09,0.22,0.16C21.48,19.94,21.48,15.11,21.48,10.22z"/>
	<path class="st0" d="M5.34,11.82c0.02-0.03,0.06-0.06,0.06-0.08c-0.07-0.38-0.04-0.47,0.29-0.65c0.24-0.13,0.49-0.24,0.75-0.33
		c1.44-0.48,2.89-0.94,4.33-1.42c0.22-0.08,0.41-0.01,0.59,0.06c2.97,1.11,4.88,3.19,5.6,6.29c0.86,3.71-0.96,7.62-4.32,9.39
		c-0.07,0.04-0.15,0.07-0.22,0.1c0,0,0.01-0.01,0.01-0.01c0.06-0.44,0.15-0.89,0.19-1.33c0.05-0.59-0.02-1.17-0.18-1.75
		c-0.1-0.37-0.3-0.65-0.66-0.79c-0.85-0.33-1.71-0.65-2.57-0.99c-0.31-0.12-0.6-0.12-0.91,0c-0.61,0.24-1.23,0.45-1.85,0.68
		c-0.13,0.05-0.25,0.11-0.44,0.2c0.37,0.13,0.67,0.25,0.98,0.36c1.37,0.47,2.75,0.93,4.12,1.4c0.2,0.07,0.4,0.19,0.57,0.32
		c0.21,0.17,0.21,0.35,0,0.52c-0.17,0.14-0.36,0.25-0.56,0.33c-1.25,0.44-2.51,0.87-3.77,1.3c-0.25,0.08-0.5,0.13-0.75,0.23
		c-0.3,0.12-0.58,0.08-0.87-0.03c-3.18-1.24-5.1-3.53-5.64-6.9c-0.57-3.51,1.34-7.17,4.51-8.78c0.04-0.02,0.07-0.03,0.14-0.06
		c-0.06,0.35-0.12,0.68-0.18,1c-0.11,0.67-0.03,1.34,0.12,2c0.1,0.41,0.31,0.73,0.72,0.88c0.95,0.36,1.9,0.71,2.85,1.06
		c0.09,0.03,0.22,0.03,0.31-0.01c0.8-0.28,1.6-0.57,2.39-0.86c0.02-0.01,0.04-0.04,0.1-0.1c-0.28-0.1-0.53-0.21-0.79-0.3
		c-1.28-0.43-2.57-0.85-3.86-1.29c-0.32-0.11-0.61-0.3-0.92-0.44C5.46,11.78,5.39,11.81,5.34,11.82
		C5.34,11.81,5.34,11.82,5.34,11.82z M11.06,23.75c0-0.03,0-0.06,0-0.09c-0.68-0.22-1.36-0.42-2.03-0.65
		c-1.02-0.35-2.04-0.71-3.06-1.08c-0.27-0.1-0.63-0.2-0.63-0.56c0-0.34,0.35-0.43,0.6-0.54c0.38-0.16,0.76-0.32,1.15-0.44
		c1.21-0.39,2.42-0.78,3.64-1.16c0.5-0.16,0.98-0.36,1.35-0.75c0.12-0.13,0.26-0.32,0.27-0.49c0.03-0.64,0.01-1.27,0.01-1.95
		c-0.07,0.06-0.13,0.11-0.18,0.17c-0.43,0.55-1.01,0.88-1.65,1.1c-0.7,0.24-1.41,0.44-2.11,0.68c-0.99,0.35-1.98,0.72-2.97,1.08
		c-0.46,0.17-0.7,0.54-0.8,1.01c-0.19,0.84-0.19,1.68-0.01,2.53c0.11,0.51,0.36,0.87,0.86,1.06c0.9,0.33,1.79,0.67,2.7,0.99
		c0.13,0.05,0.3,0.03,0.43-0.01c0.74-0.26,1.47-0.53,2.2-0.8C10.92,23.83,10.99,23.79,11.06,23.75z M6.01,11.31
		c0.55,0.18,1.02,0.34,1.5,0.5c1.2,0.41,2.41,0.82,3.61,1.24c0.17,0.06,0.33,0.14,0.47,0.25c0.32,0.23,0.31,0.44-0.01,0.68
		c-0.1,0.07-0.21,0.13-0.32,0.18c-0.23,0.1-0.45,0.2-0.68,0.28c-1.35,0.45-2.7,0.89-4.06,1.32c-0.53,0.17-1.04,0.36-1.43,0.77
		c-0.13,0.13-0.28,0.31-0.28,0.48c-0.03,0.64-0.01,1.27-0.01,1.91c0.02,0.01,0.04,0.02,0.04,0.01c0.04-0.04,0.09-0.07,0.12-0.11
		c0.45-0.59,1.07-0.93,1.76-1.16c0.69-0.23,1.39-0.43,2.07-0.67c0.98-0.34,1.95-0.71,2.93-1.07c0.45-0.17,0.68-0.52,0.79-0.98
		c0.19-0.87,0.2-1.74,0-2.61c-0.11-0.46-0.34-0.8-0.79-0.97c-0.92-0.34-1.84-0.7-2.77-1.03c-0.12-0.04-0.27-0.02-0.4,0.02
		c-0.75,0.26-1.5,0.53-2.24,0.8C6.22,11.19,6.15,11.23,6.01,11.31z"/>
	<path class="st0" d="M46.97,14.18c0-1.42,0-2.77,0-4.15c0.29,0,0.54,0,0.81,0c0,1.75,0,3.48,0,5.24c-0.44,0.07-0.8,0.04-1.16-0.3
		c-1.32-1.24-2.68-2.44-4.02-3.65c-0.05-0.04-0.1-0.08-0.18-0.15c-0.12,0.36-0.05,0.7-0.06,1.03c-0.01,0.34,0,0.69,0,1.03
		c0,0.33,0,0.66,0,0.99c0,0.34,0,0.68,0,1.05c-0.28,0-0.53,0-0.8,0c0-1.75,0-3.48,0-5.24c0.41-0.06,0.75-0.03,1.08,0.28
		c1.37,1.27,2.77,2.5,4.16,3.74C46.82,14.09,46.86,14.11,46.97,14.18z"/>
	<path class="st0" d="M35.36,15.42c-0.74-0.04-1.44-0.19-2.08-0.57c-0.65-0.39-1.1-0.94-1.28-1.69c-0.19-0.83,0.01-1.55,0.6-2.16
		c0.6-0.62,1.36-0.91,2.19-1.03c1-0.14,1.97-0.02,2.87,0.46c0.68,0.36,1.2,0.89,1.36,1.67c0.21,1.02-0.15,1.86-0.95,2.51
		c-0.52,0.43-1.14,0.64-1.81,0.73C35.96,15.39,35.66,15.4,35.36,15.42z M35.6,10.45c-0.28,0.02-0.47,0.03-0.66,0.05
		c-1.07,0.15-1.84,0.91-1.91,1.94c-0.05,0.83,0.31,1.92,1.55,2.29c0.65,0.19,1.3,0.19,1.94-0.03c0.94-0.32,1.48-1.16,1.45-2.25
		c-0.02-0.89-0.64-1.63-1.57-1.88C36.12,10.51,35.81,10.48,35.6,10.45z"/>
	<path class="st0" d="M65.01,21.7c0-0.71,0-1.38,0-2.07c0.33,0,0.64,0,0.98,0c0,1.74,0,3.47,0,5.24c-0.3,0-0.61,0-0.96,0
		c0-0.84,0-1.7,0-2.58c-1.18,0-2.32,0-3.49,0c0,0.86,0,1.72,0,2.59c-0.34,0-0.64,0-0.94,0c-0.08-0.28-0.11-4.65-0.03-5.26
		c0.09-0.01,0.18-0.02,0.28-0.02c0.22,0,0.43,0,0.68,0c0,0.72,0,1.4,0,2.1C62.69,21.7,63.82,21.7,65.01,21.7z"/>
	<path class="st0" d="M26.86,22.29c0,0.89,0,1.73,0,2.6c-0.33,0-0.63,0-0.93,0c-0.08-0.29-0.1-4.78-0.02-5.26c0.29,0,0.59,0,0.95,0
		c0.02,0.68,0,1.37,0.01,2.08c1.17,0,2.3,0,3.47,0c0-0.69,0-1.37,0-2.08c0.34,0,0.65,0,0.98,0c0,1.74,0,3.48,0,5.24
		c-0.31,0-0.61,0-0.96,0c0-0.85,0-1.71,0-2.58C29.19,22.29,28.06,22.29,26.86,22.29z"/>
	<path class="st0" d="M84.31,24.87c0-1.73,0-3.47,0-5.23c0.06-0.01,0.12-0.03,0.18-0.03c0.64,0,1.29-0.02,1.93,0.01
		c0.38,0.02,0.77,0.07,1.12,0.21c0.93,0.36,1.14,1.43,0.44,2.14c-0.21,0.21-0.47,0.37-0.75,0.58c0.56,0.71,1.12,1.43,1.73,2.21
		c-0.35,0.09-0.66,0.16-0.99,0.24c-0.4-0.55-0.79-1.09-1.19-1.63c-0.5-0.69-0.5-0.69-1.37-0.66c-0.03,0-0.05,0.01-0.12,0.03
		c0,0.7,0,1.4,0,2.14C84.95,24.87,84.64,24.87,84.31,24.87z M85.31,22.17c0.24,0,0.46,0.01,0.67,0c0.32-0.02,0.63-0.07,0.9-0.26
		c0.36-0.25,0.5-0.61,0.44-1.03c-0.06-0.41-0.34-0.6-0.72-0.69c-0.43-0.1-0.86-0.04-1.29-0.05C85.31,20.84,85.31,21.49,85.31,22.17z
		"/>
	<path class="st0" d="M41.18,23.37c-0.26,0.52-0.5,1.02-0.76,1.52c-0.3,0-0.59,0-0.94,0c0.07-0.14,0.12-0.26,0.18-0.37
		c0.84-1.52,1.68-3.04,2.5-4.57c0.14-0.27,0.31-0.39,0.61-0.34c0.11,0.02,0.22,0,0.35,0c0.88,1.75,1.76,3.5,2.65,5.28
		c-0.41,0-0.76,0-1.14,0c-0.23-0.49-0.48-0.99-0.73-1.52C43.02,23.37,42.12,23.37,41.18,23.37z M42.61,20.43
		c-0.37,0.79-0.73,1.57-1.1,2.36c0.73,0,1.42,0,2.15,0C43.3,21.98,42.96,21.21,42.61,20.43z"/>
	<path class="st0" d="M82.35,24.89c-0.41,0-0.75,0-1.14,0c-0.24-0.5-0.49-1.01-0.75-1.55c-0.45,0-0.9,0-1.35,0c-0.45,0-0.9,0-1.36,0
		c-0.26,0.53-0.52,1.04-0.77,1.54c-0.31,0-0.6,0-0.94,0c0.07-0.15,0.13-0.27,0.19-0.38c0.83-1.51,1.67-3.02,2.48-4.54
		c0.15-0.29,0.33-0.41,0.64-0.36c0.09,0.01,0.19,0,0.33,0C80.57,21.34,81.44,23.08,82.35,24.89z M79.17,20.43
		c-0.37,0.79-0.73,1.57-1.11,2.36c0.73,0,1.42,0,2.15,0C79.86,21.98,79.52,21.21,79.17,20.43z"/>
	<path class="st0" d="M60.24,10.47c-0.14,0.16-0.27,0.3-0.4,0.45c-0.78-0.39-1.58-0.51-2.41-0.42c-0.46,0.05-0.89,0.18-1.28,0.42
		c-1.18,0.73-1.33,2.3-0.29,3.23c0.54,0.48,1.19,0.67,1.89,0.72c0.7,0.05,1.36-0.09,2.04-0.38c0.12,0.13,0.23,0.26,0.36,0.41
		c-0.38,0.24-0.79,0.34-1.21,0.41c-0.98,0.18-1.94,0.12-2.88-0.19c-0.47-0.16-0.9-0.4-1.26-0.75c-0.96-0.95-0.97-2.35-0.01-3.3
		c0.54-0.54,1.21-0.84,1.95-1c1.11-0.23,2.21-0.22,3.26,0.27C60.07,10.37,60.14,10.41,60.24,10.47z"/>
	<path class="st0" d="M38.11,24.35c0,0.2,0,0.36,0,0.54c-1.3,0-2.59,0-3.87,0c-0.08-0.28-0.12-4.59-0.04-5.26c1.14,0,2.29,0,3.47,0
		c0,0.16,0,0.31,0,0.5c-0.82,0-1.64,0-2.48,0c0,0.58,0,1.12,0,1.7c0.81,0,1.61,0,2.43,0c0,0.19,0,0.34,0,0.52c-0.8,0-1.6,0-2.43,0
		c0,0.68,0,1.32,0,2C36.16,24.35,37.13,24.35,38.11,24.35z"/>
	<path class="st0" d="M74.17,24.07c0.12,0.14,0.23,0.26,0.37,0.41c-0.09,0.06-0.16,0.11-0.24,0.14c-1.31,0.49-2.62,0.51-3.94,0.05
		c-0.54-0.19-1.01-0.49-1.37-0.95c-0.73-0.92-0.7-2.11,0.1-2.96c0.24-0.26,0.53-0.49,0.84-0.65c1.34-0.69,2.75-0.78,4.18-0.3
		c0.17,0.06,0.32,0.14,0.54,0.24c-0.15,0.17-0.27,0.3-0.39,0.44c-0.31-0.11-0.59-0.22-0.88-0.29c-0.9-0.24-1.8-0.2-2.65,0.21
		c-1.28,0.63-1.57,2.21-0.61,3.21c0.29,0.3,0.64,0.51,1.04,0.65c0.88,0.29,1.75,0.26,2.62-0.03C73.9,24.18,74.01,24.13,74.17,24.07z
		"/>
	<path class="st0" d="M92.07,21.83c0.83,0,1.62,0,2.44,0c0,0.18,0,0.33,0,0.53c-0.8,0-1.6,0-2.43,0c0,0.68,0,1.31,0,1.98
		c0.97,0,1.93,0,2.91,0c0,0.19,0,0.34,0,0.53c-1.29,0-2.58,0-3.9,0c0-1.74,0-3.48,0-5.24c1.15,0,2.31,0,3.49,0c0,0.15,0,0.3,0,0.48
		c-0.82,0-1.63,0-2.51,0C92.06,20.7,92.06,21.25,92.07,21.83z"/>
	<path class="st0" d="M29.72,10.44c-0.19,0.15-0.34,0.27-0.42,0.34c-0.45-0.11-0.82-0.25-1.21-0.29c-0.26-0.03-0.55,0.02-0.8,0.12
		c-0.47,0.2-0.53,0.69-0.14,1.02c0.23,0.19,0.49,0.34,0.75,0.5c0.3,0.19,0.63,0.34,0.92,0.54c0.22,0.14,0.43,0.31,0.6,0.49
		c0.58,0.62,0.47,1.35-0.24,1.81c-0.43,0.28-0.9,0.39-1.4,0.42c-0.65,0.03-1.29-0.07-1.88-0.35c-0.11-0.05-0.2-0.12-0.32-0.19
		c0.17-0.15,0.31-0.27,0.48-0.42c0.13,0.06,0.29,0.14,0.45,0.2c0.52,0.22,1.05,0.3,1.61,0.15c0.32-0.09,0.58-0.26,0.66-0.6
		c0.09-0.36-0.08-0.62-0.34-0.82c-0.26-0.2-0.55-0.37-0.83-0.53c-0.34-0.2-0.7-0.38-1.03-0.59c-0.17-0.11-0.33-0.25-0.46-0.41
		c-0.35-0.44-0.3-1,0.13-1.36c0.2-0.16,0.43-0.3,0.67-0.38c0.75-0.26,1.51-0.23,2.25,0.06C29.35,10.22,29.51,10.33,29.72,10.44z"/>
	<path class="st0" d="M52.96,19.63c1.87,0,3.7,0,5.55,0c0,0.17,0,0.31,0,0.49c-0.75,0-1.48,0-2.28,0c-0.01,1.6,0,3.16-0.01,4.76
		c-0.34,0-0.65,0-0.99,0c0-1.57,0-3.12,0-4.73c-0.77,0-1.52,0-2.28,0C52.96,19.95,52.96,19.8,52.96,19.63z"/>
	<path class="st0" d="M51.68,24.36c0,0.19,0,0.34,0,0.51c-1.31,0-2.6,0-3.93,0c0-1.74,0-3.49,0-5.25c0.32,0,0.63,0,0.98,0
		c0,1.58,0,3.13,0,4.74C49.73,24.36,50.7,24.36,51.68,24.36z"/>
	<path class="st0" d="M51.58,15.29c-0.31,0-0.62,0-0.94,0c0-1.76,0-3.49,0-5.25c0.31,0,0.61,0,0.91,0
		C51.63,10.31,51.66,14.68,51.58,15.29z"/>
	<path class="st0" d="M21.48,10.22c0,4.89,0,9.72,0,14.63c-0.1-0.07-0.19-0.1-0.22-0.16c-0.03-0.07-0.01-0.16-0.01-0.24
		c0-4.61,0-9.21,0-13.82c0-0.1-0.01-0.2,0.02-0.28C21.28,10.29,21.38,10.28,21.48,10.22z"/>
	<polygon class="st1" points="12.42,25.16 12.41,25.17 12.43,25.16 	"/>
</g>
</svg>
