<?xml version="1.0" encoding="utf-8"?>
<!-- Generator: Adobe Illustrator 26.0.1, SVG Export Plug-In . SVG Version: 6.00 Build 0)  -->
<svg version="1.1" id="Layer_1" xmlns="http://www.w3.org/2000/svg" xmlns:xlink="http://www.w3.org/1999/xlink" x="0px" y="0px"
	 viewBox="0 0 95 35" style="enable-background:new 0 0 95 35;" xml:space="preserve">
<style type="text/css">
	.st0{fill:#FFFFFF;}
</style>
<path class="st0" d="M12.11,24.84H0V10.16h12.03c1.11,0,1.71,0.67,1.71,1.81v2.9c0,0.91-0.31,1.37-0.98,1.76l-1.24,0.7l1.29,0.7
	c0.7,0.36,1.01,0.85,1.01,1.73V23C13.85,24.16,13.25,24.84,12.11,24.84z M9.39,13.4H4.35v2.54c0,0,3.73,0,4.55,0
	c0.52,0,0.52-0.39,0.52-0.85C9.39,14.61,9.39,13.4,9.39,13.4z M9.52,19.4c0-0.31-0.08-0.62-0.47-0.62c-0.93,0-4.71,0-4.71,0v2.82
	h5.18C9.52,21.6,9.52,20.02,9.52,19.4z"/>
<path class="st0" d="M15.71,24.84V10.16h4.35v11.13h6.11v3.55H15.71L15.71,24.84z"/>
<path class="st0" d="M39.54,24.84H28.98c-1.11,0-1.71-0.67-1.71-1.81V12c0-1.16,0.6-1.81,1.71-1.81h10.56
	c1.11,0,1.73,0.67,1.73,1.81v11.02C41.28,24.16,40.66,24.84,39.54,24.84z M36.9,13.55h-5.28v7.92h5.28V13.55z"/>
<path class="st0" d="M54.68,24.84h-9.83c-1.11,0-1.71-0.67-1.71-1.81V12c0-1.16,0.6-1.81,1.71-1.81h9.83c1.14,0,1.76,0.67,1.76,1.81
	v3.86h-4.35v-2.3h-4.61v7.92h4.61v-2.33h4.35v3.88C56.44,24.16,55.79,24.84,54.68,24.84z"/>
<polygon class="st0" points="73.65,24.84 66.12,17.31 72.8,10.16 67.08,10.16 62.55,15.6 62.55,10.16 58.23,10.16 58.23,24.84 
	62.55,24.84 62.55,19.27 67.49,24.84 "/>
<path class="st0" d="M81.13,14.82c0.03,0,0.05,0,0.08,0c1.84,0,3.42,1.11,4.11,2.72L95,15.47v-5.31H80.15L81.13,14.82z"/>
<path class="st0" d="M85.66,19.2c0,0.03,0,0.05,0,0.08l0,0c0,2.46-1.99,4.45-4.45,4.45c-1.19,0-2.3-0.47-3.16-1.29
	c-0.85-0.83-1.32-1.97-1.32-3.16c0-1.19,0.47-2.3,1.29-3.16c0.41-0.41,0.88-0.72,1.42-0.96l-1.06-4.99h-2.92v14.67H95V17.2
	L85.66,19.2z"/>
<path class="st0" d="M81.18,16.48c-0.7,0.03-1.4,0.31-1.91,0.83s-0.8,1.22-0.8,1.94c0,0.72,0.28,1.42,0.8,1.94s1.22,0.8,1.94,0.8
	c1.53,0,2.74-1.24,2.74-2.77C83.95,17.69,82.71,16.48,81.18,16.48z M82.53,20.57h-2.64v-2.64h2.64V20.57z"/>
</svg>
