<?xml version="1.0" encoding="utf-8"?>
<!-- Generator: Adobe Illustrator 26.0.1, SVG Export Plug-In . SVG Version: 6.00 Build 0)  -->
<svg version="1.1" id="Layer_1" xmlns="http://www.w3.org/2000/svg" xmlns:xlink="http://www.w3.org/1999/xlink" x="0px" y="0px"
	 viewBox="0 0 95 35" style="enable-background:new 0 0 95 35;" xml:space="preserve">
<style type="text/css">
	.st0{fill:#CCCCCC;}
</style>
<g id="layer1" transform="translate(-342.88529,-488.99873)">
	<path id="path24" class="st0" d="M343.12,517.5h1.31l1.87-1.81c1.67,1.34,3.78,1.99,5.92,1.99c1.9,0,3.96-0.42,5.47-1.64
		c1.61-1.34,2.5-3.24,2.5-5.29c0-5.21-4.04-6.45-8.33-7.35l-1.87-0.36c-1.73-0.36-3.69-0.95-3.69-3.09c0-2.17,2.2-3.09,4.07-3.09
		c3.69,0,6.28,3.24,7.38,6.43h1.49l-0.39-7.79h-1.28l-1.61,1.46c-1.58-1.1-3.3-1.64-5.21-1.64c-4.22,0-7.88,2.2-7.88,6.78
		c0,1.93,0.98,3.78,2.53,4.91c1.84,1.37,3.72,1.78,5.92,2.2l2.14,0.42c1.78,0.33,3.18,1.13,3.18,3.12c0,2.41-2.23,3.39-4.31,3.39
		c-3.98,0-6.81-3.63-8-7.02h-1.46L343.12,517.5L343.12,517.5z"/>
	<path id="path28" class="st0" d="M343.12,517.5h1.31l1.87-1.81c1.67,1.34,3.78,1.99,5.92,1.99c1.9,0,3.96-0.42,5.47-1.64
		c1.61-1.34,2.5-3.24,2.5-5.29c0-5.21-4.04-6.45-8.33-7.35l-1.87-0.36c-1.73-0.36-3.69-0.95-3.69-3.09c0-2.17,2.2-3.09,4.07-3.09
		c3.69,0,6.28,3.24,7.38,6.42h1.49l-0.39-7.79h-1.28l-1.61,1.46c-1.58-1.1-3.3-1.64-5.21-1.64c-4.22,0-7.88,2.2-7.88,6.78
		c0,1.93,0.98,3.78,2.53,4.91c1.84,1.37,3.72,1.78,5.92,2.2l2.14,0.42c1.78,0.33,3.18,1.13,3.18,3.12c0,2.41-2.23,3.39-4.31,3.39
		c-3.98,0-6.81-3.63-8-7.02h-1.46L343.12,517.5L343.12,517.5z"/>
	<path id="path32" class="st0" d="M370.58,512.03c0,3.06-1.81,3.72-2.82,3.72c-1.31,0-1.96-0.86-1.96-2.08
		c0-2.2,1.52-2.77,4.79-3.48V512.03z M370.64,508.7c-2.91,0.65-9.73,1.31-9.73,5.41c0,1.37,0.53,2.26,1.37,2.8
		c0.83,0.56,1.99,0.77,3.18,0.77c2.05,0,4.28-0.65,5.77-2.05c0.45,1.37,1.99,2.05,3.21,2.05c1.28,0,3.15-1.04,3.15-2.35
		c0-0.54-0.33-0.48-0.45-0.48c-0.54,0-0.86,0.45-1.07,0.45c-0.59,0-0.89-0.27-0.89-2.11v-4.91v-0.92c0-1.19-0.15-4.55-6.72-4.55
		c-4.46,0-6.75,1.79-6.75,3.75c0,1.34,1.01,2.23,2.32,2.23c1.16,0,2.44-0.6,2.44-1.93c0-0.8-0.74-1.34-0.74-1.73
		c0-0.27,0.83-0.83,2.53-0.83c2.29,0,2.38,1.73,2.38,3.78V508.7L370.64,508.7z"/>
	<path id="path36" class="st0" d="M370.58,512.03c0,3.06-1.81,3.72-2.82,3.72c-1.31,0-1.96-0.86-1.96-2.08
		c0-2.2,1.52-2.77,4.79-3.48V512.03z M370.64,508.7c-2.91,0.65-9.73,1.31-9.73,5.41c0,1.37,0.53,2.26,1.37,2.8
		c0.83,0.56,1.99,0.77,3.18,0.77c2.05,0,4.28-0.65,5.77-2.05c0.45,1.37,1.99,2.05,3.21,2.05c1.28,0,3.15-1.04,3.15-2.35
		c0-0.54-0.33-0.48-0.45-0.48c-0.54,0-0.86,0.45-1.07,0.45c-0.6,0-0.89-0.27-0.89-2.11v-4.91v-0.92c0-1.19-0.15-4.55-6.72-4.55
		c-4.46,0-6.75,1.79-6.75,3.75c0,1.34,1.01,2.23,2.32,2.23c1.16,0,2.44-0.6,2.44-1.93c0-0.8-0.74-1.34-0.74-1.73
		c0-0.27,0.83-0.83,2.53-0.83c2.29,0,2.38,1.72,2.38,3.78V508.7L370.64,508.7z"/>
	<path id="path40" class="st0" d="M377.65,517.24h9.04v-1.49h-1.28c-0.36,0-0.71-0.18-0.8-0.57v-4.88c0-1.07,0.06-2.08,0.53-3.06
		c0.51-1.04,1.49-1.79,2.65-1.79c0.59,0,1.16,0.3,1.55,0.68c0.57,0.57,0.57,1.28,0.62,2.02v6.19c0,0.3,0,0.56-0.09,0.86
		c-0.03,0.09-0.06,0.18-0.12,0.27c-0.54,0.39-1.28,0.21-1.87,0.27v1.49h8.92v-1.49c-0.21,0-1.55,0.03-2.02-0.21
		c-0.18-0.15-0.21-0.3-0.21-0.53v-5.95c0-1.55,0.09-3.06-0.8-4.4c-0.92-1.37-2.59-1.84-4.13-1.84c-2.26,0-3.99,1.22-5.06,3h-0.06
		v-2.71l-6.99,0.3v1.52h0.57c1.67,0.06,1.9,0.18,1.9,1.87v7.47c0,0.48,0.09,1.19-0.51,1.34c-0.59,0.12-1.22,0.12-1.84,0.15V517.24
		L377.65,517.24z"/>
	<path id="path44" class="st0" d="M377.65,517.24h9.04v-1.49h-1.28c-0.36,0-0.71-0.18-0.8-0.57v-4.88c0-1.07,0.06-2.08,0.53-3.06
		c0.51-1.04,1.49-1.79,2.65-1.79c0.59,0,1.16,0.3,1.55,0.68c0.57,0.57,0.57,1.28,0.62,2.02v6.19c0,0.3,0,0.56-0.09,0.86
		c-0.03,0.09-0.06,0.18-0.12,0.27c-0.54,0.39-1.28,0.21-1.87,0.27v1.49h8.92v-1.49c-0.21,0-1.55,0.03-2.02-0.21
		c-0.18-0.15-0.21-0.3-0.21-0.53v-5.95c0-1.55,0.09-3.06-0.8-4.4c-0.92-1.37-2.59-1.84-4.13-1.84c-2.26,0-3.99,1.22-5.06,3h-0.06
		v-2.71l-6.99,0.3v1.52h0.57c1.67,0.06,1.9,0.18,1.9,1.87v7.46c0,0.48,0.09,1.19-0.51,1.34c-0.59,0.12-1.22,0.12-1.84,0.15V517.24
		L377.65,517.24z"/>
	<path id="path48" class="st0" d="M398.73,504.89v5.68c0,0.95-0.03,1.93,0.06,2.91c0.06,1.01,0.12,2.17,0.83,2.97
		c0.86,0.95,2.14,1.22,3.36,1.22c3.54,0,5-2.41,5-5.68v-0.24h-1.52c0.03,1.1-0.36,3.57-1.93,3.57c-0.6,0-0.95-0.27-1.1-0.86
		c-0.09-0.42-0.09-0.83-0.09-1.28v-8.3h3.92v-1.78h-3.92v-5.95h-1.81c-0.51,3.06-1.37,5.68-4.91,6.16v1.58H398.73L398.73,504.89z"/>
	<path id="path52" class="st0" d="M398.73,504.89v5.68c0,0.95-0.03,1.93,0.06,2.91c0.06,1.01,0.12,2.17,0.83,2.97
		c0.86,0.95,2.14,1.22,3.36,1.22c3.54,0,5-2.41,5-5.68v-0.24h-1.52c0.03,1.1-0.36,3.57-1.93,3.57c-0.6,0-0.95-0.27-1.1-0.86
		c-0.09-0.42-0.09-0.83-0.09-1.28v-8.3h3.92v-1.78h-3.92v-5.95h-1.81c-0.51,3.06-1.37,5.68-4.91,6.16v1.58H398.73L398.73,504.89z"/>
	<path id="path56" class="st0" d="M416.21,504.3c2.91,0,3.12,3.84,3.12,5.95c0,1.84-0.18,5.95-2.8,5.95c-3.15,0-3.27-3.63-3.27-5.92
		C413.27,508.37,413.47,504.3,416.21,504.3 M416.36,517.68c4.31,0,8.09-2.91,8.09-7.41c0-4.4-3.75-7.47-8.06-7.47
		c-2.17,0-3.99,0.6-5.65,1.93c-1.61,1.28-2.59,3.33-2.59,5.38C408.15,514.74,411.87,517.68,416.36,517.68"/>
	<path id="path60" class="st0" d="M416.21,504.3c2.91,0,3.12,3.84,3.12,5.95c0,1.84-0.18,5.95-2.8,5.95c-3.15,0-3.27-3.63-3.27-5.92
		C413.27,508.37,413.47,504.3,416.21,504.3L416.21,504.3z M416.36,517.68c4.31,0,8.09-2.91,8.09-7.41c0-4.4-3.75-7.47-8.06-7.47
		c-2.17,0-3.99,0.6-5.65,1.93c-1.61,1.28-2.59,3.33-2.59,5.38C408.15,514.74,411.87,517.68,416.36,517.68L416.36,517.68z"/>
	<path id="path64" class="st0" d="M427.65,516.67c1.04,0.65,2.97,1.01,4.19,1.01c0.62,0,1.58-0.15,2.17-0.3
		c1.25-0.36,1.84-0.62,2.74-1.58c0.8-0.86,1.13-2.05,1.13-3.15c0-1.52-0.77-2.83-2.08-3.54c-0.98-0.54-2.2-0.8-3.3-1.07l-1.4-0.36
		c-0.86-0.21-2.53-0.39-2.53-1.58c0-1.4,1.43-1.81,2.62-1.81c2.05,0,3.51,1.49,4.49,3.12c0.12,0.09,0.12,0.24,0.21,0.33h1.31
		l-0.12-4.64h-1.19l-1.13,0.68c-1.01-0.6-2.41-0.98-3.6-0.98c-2.92,0-5.8,1.52-5.8,4.73c0,1.31,0.36,2.26,1.31,3.12
		c1.07,0.98,1.99,1.22,3.36,1.52l1.87,0.39c1.46,0.33,3.12,0.77,2.35,2.71c-0.56,0.74-1.55,0.95-2.44,0.95
		c-2.65,0-4.28-1.9-5.35-4.07h-1.31l0.15,5.08h1.16L427.65,516.67z"/>
	<path id="path68" class="st0" d="M427.65,516.67c1.04,0.65,2.97,1.01,4.19,1.01c0.62,0,1.58-0.15,2.17-0.3
		c1.25-0.36,1.84-0.62,2.74-1.58c0.8-0.86,1.13-2.05,1.13-3.15c0-1.52-0.77-2.83-2.08-3.54c-0.98-0.54-2.2-0.8-3.3-1.07l-1.4-0.36
		c-0.86-0.21-2.53-0.39-2.53-1.58c0-1.4,1.43-1.81,2.62-1.81c2.05,0,3.51,1.49,4.49,3.12c0.12,0.09,0.12,0.24,0.21,0.33h1.31
		l-0.12-4.64h-1.19l-1.13,0.68c-1.01-0.6-2.41-0.98-3.6-0.98c-2.92,0-5.8,1.52-5.8,4.73c0,1.31,0.36,2.26,1.31,3.12
		c1.07,0.98,1.99,1.22,3.36,1.52l1.87,0.39c1.46,0.33,3.12,0.77,2.35,2.71c-0.56,0.74-1.55,0.95-2.44,0.95
		c-2.65,0-4.28-1.9-5.35-4.07h-1.31l0.15,5.08h1.16L427.65,516.67z"/>
</g>
</svg>
