<?xml version="1.0" encoding="utf-8"?>
<!-- Generator: Adobe Illustrator 26.0.1, SVG Export Plug-In . SVG Version: 6.00 Build 0)  -->
<svg version="1.1" id="Layer_1" xmlns="http://www.w3.org/2000/svg" xmlns:xlink="http://www.w3.org/1999/xlink" x="0px" y="0px"
	 viewBox="0 0 95 35" style="enable-background:new 0 0 95 35;" xml:space="preserve">
<style type="text/css">
	.st0{fill:#343741;}
	.st1{font-family:'ArialMT';}
	.st2{font-size:1px;}
</style>
<g>
	<path class="st0" d="M40.1,34.72c0-3.25,0-6.46,0-9.66c0.05-0.02,0.07-0.04,0.1-0.04c1.85,0.02,3.7-0.02,5.54,0.07
		c1.68,0.08,2.68,1.23,2.69,2.91c0.01,1.44-0.25,1.98-1.39,2.86c0.51,1.27,1.03,2.54,1.58,3.89c-0.28,0-0.52,0-0.76,0
		c-0.54,0-1.09-0.02-1.63,0.01c-0.29,0.01-0.41-0.1-0.5-0.35c-0.34-0.93-0.72-1.85-1.06-2.79c-0.1-0.28-0.24-0.37-0.54-0.36
		c-0.47,0.03-0.95,0.01-1.47,0.01c0,1.17,0,2.3,0,3.46C41.8,34.72,40.97,34.72,40.1,34.72z M42.7,26.95c0,0.9,0,1.76,0,2.62
		c0.79,0,1.57,0.03,2.33-0.01c0.48-0.03,0.77-0.38,0.82-0.88c0.02-0.18,0.01-0.36,0.01-0.54c-0.01-0.78-0.33-1.15-1.11-1.18
		C44.08,26.93,43.41,26.95,42.7,26.95z"/>
	<path class="st0" d="M30.66,34.71c0-3.23,0-6.43,0-9.65c0.06-0.01,0.12-0.04,0.18-0.04c1.62,0.02,3.24-0.01,4.85,0.07
		c1.81,0.1,3.27,1.22,3.51,2.86c0.18,1.28,0.17,2.61,0.01,3.89c-0.2,1.51-1.46,2.54-3.1,2.77c-0.75,0.11-1.52,0.1-2.28,0.11
		c-0.94,0.02-1.89,0-2.84,0C30.88,34.73,30.78,34.71,30.66,34.71z M33.23,26.91c0,2.01,0,3.95,0,5.88c0.62,0,1.23,0.06,1.83-0.01
		c1.15-0.13,1.65-0.74,1.65-1.9c0-0.71,0.01-1.42,0-2.13c-0.01-0.95-0.5-1.59-1.44-1.73C34.61,26.92,33.94,26.94,33.23,26.91z"/>
	<path class="st0" d="M20.99,27.8c-0.75,0-1.48,0.01-2.2-0.01c-0.09,0-0.19-0.12-0.26-0.21c-0.2-0.23-0.34-0.54-0.59-0.68
		c-0.76-0.43-1.57-0.4-2.34,0c-0.64,0.33-0.65,1.02,0.01,1.31c0.75,0.34,1.56,0.54,2.33,0.82c0.64,0.24,1.3,0.45,1.89,0.78
		c1.82,1,1.54,3.01,0.39,4.04c-1.13,1-2.5,1.23-3.95,1.12c-0.98-0.07-1.9-0.36-2.68-1c-0.65-0.54-1.02-1.22-1.04-2.12
		c0.81,0,1.6-0.01,2.38,0.01c0.08,0,0.2,0.11,0.23,0.2c0.2,0.61,0.65,0.96,1.25,1.01c0.5,0.05,1.03,0,1.52-0.1
		c0.39-0.08,0.63-0.39,0.66-0.81c0.04-0.42-0.22-0.67-0.56-0.79c-0.73-0.26-1.48-0.45-2.21-0.7c-0.63-0.22-1.28-0.42-1.87-0.73
		c-1.76-0.94-1.63-3.07-0.32-4.15c0.71-0.59,1.55-0.88,2.45-0.97c1.37-0.14,2.69,0.03,3.83,0.89C20.61,26.22,20.99,26.97,20.99,27.8
		z"/>
	<path class="st0" d="M21.79,34.7c0-3.23,0-6.43,0-9.66c0.1-0.01,0.2-0.03,0.3-0.03c1.49,0,2.98-0.02,4.46,0.01
		c0.51,0.01,1.04,0.08,1.52,0.22c1.09,0.33,1.77,1.07,1.88,2.22c0.05,0.56,0.05,1.15-0.06,1.69c-0.25,1.19-1.29,1.98-2.65,2.05
		c-0.94,0.05-1.89,0.01-2.87,0.01c0,1.2,0,2.33,0,3.49C23.5,34.7,22.67,34.7,21.79,34.7z M24.37,29.6c0.56,0,1.09,0,1.62,0
		c1.2,0,1.51-0.33,1.46-1.53c0-0.1-0.02-0.2-0.04-0.31c-0.07-0.42-0.32-0.72-0.73-0.74c-0.76-0.05-1.53-0.01-2.31-0.01
		C24.37,27.84,24.37,28.69,24.37,29.6z"/>
	<path class="st0" d="M70.48,21.41c-0.43,0-0.81-0.01-1.18,0c-0.24,0.01-0.33-0.06-0.36-0.32c-0.17-1.23-0.37-2.45-0.55-3.67
		c-0.01-0.06-0.04-0.12-0.06-0.2c-0.12,0-0.25,0-0.41,0c0,1.38,0,2.76,0,4.16c-0.5,0-0.96,0-1.45,0c0-3.23,0-6.46,0-9.72
		c0.74,0,1.48-0.04,2.21,0.01c0.85,0.06,1.35,0.51,1.53,1.35c0.21,0.95,0.19,1.92-0.02,2.88c-0.05,0.21-0.12,0.45-0.27,0.59
		c-0.31,0.28-0.23,0.58-0.16,0.91C69.99,18.72,70.23,20.04,70.48,21.41z M67.93,13.06c0,0.92,0,1.82,0,2.71
		c0.77,0.05,0.87-0.03,0.9-0.76c0.02-0.4,0.02-0.8,0-1.2C68.79,13.1,68.67,13.01,67.93,13.06z"/>
	<path class="st0" d="M28.16,16.26c0.86,0.36,1.24,0.99,1.25,1.84c0.01,0.52,0.01,1.03-0.01,1.55c-0.05,0.98-0.58,1.62-1.55,1.71
		c-0.75,0.07-1.52,0.01-2.29,0.01c0-3.23,0-6.46,0-9.69c0.78,0,1.54-0.04,2.29,0.01c0.78,0.06,1.31,0.53,1.42,1.3
		c0.09,0.64,0.09,1.31,0.01,1.96C29.2,15.57,28.79,16,28.16,16.26z M27.02,16.94c0,1.04,0,2.05,0,3.07
		c0.82,0.03,0.92-0.06,0.92-0.86c0-0.45,0-0.9,0-1.36C27.93,17.05,27.79,16.92,27.02,16.94z M27.01,15.54
		c0.72,0.03,0.86-0.09,0.9-0.77c0.02-0.33,0.02-0.67,0-1.01c-0.05-0.66-0.22-0.79-0.9-0.68C27.01,13.89,27.01,14.7,27.01,15.54z"/>
	<path class="st0" d="M45.33,21.41c0-3.27,0-6.49,0-9.79c0.87,0.04,1.74,0.01,2.58,0.13c0.76,0.11,1.26,0.84,1.28,1.81
		c0.03,1.98,0.05,3.96,0,5.93c-0.03,1.28-0.76,1.9-2.05,1.91C46.55,21.42,45.96,21.41,45.33,21.41z M46.81,20
		c0.75,0.04,0.92-0.09,0.92-0.76c0.01-1.81,0.01-3.62,0-5.43c0-0.69-0.23-0.85-0.92-0.72C46.81,15.38,46.81,17.68,46.81,20z"/>
	<path class="st0" d="M43.64,0.13c0.62,0,1.22,0,1.81,0c1.25,0.01,1.9,0.53,2.01,1.76c0.07,0.75,0.01,1.52-0.06,2.28
		c-0.02,0.29-0.17,0.6-0.35,0.84c-0.18,0.24-0.2,0.44-0.15,0.71c0.26,1.37,0.5,2.74,0.75,4.12c-0.49,0-0.97,0-1.48,0
		c-0.21-1.37-0.43-2.74-0.65-4.17c-0.12-0.01-0.26-0.01-0.42-0.02c0,1.39,0,2.77,0,4.17c-0.5,0-0.97,0-1.47,0
		C43.64,6.62,43.64,3.39,43.64,0.13z M45.11,4.26c0.79,0.02,0.92-0.1,0.92-0.85c0-0.36,0-0.72,0-1.08
		c-0.01-0.73-0.17-0.87-0.92-0.78C45.11,2.44,45.11,3.34,45.11,4.26z"/>
	<path class="st0" d="M24.59,16.53c0,1.14,0.07,2.28-0.02,3.4c-0.09,1.13-0.83,1.62-2.11,1.57c-0.94-0.04-1.65-0.72-1.67-1.74
		c-0.03-2.16-0.03-4.31,0-6.47c0.02-1.07,0.71-1.7,1.78-1.75c1.15-0.05,1.92,0.49,2,1.58C24.65,14.25,24.59,15.39,24.59,16.53z
		 M22.24,16.5C22.24,16.5,22.24,16.5,22.24,16.5c0,0.94,0,1.89,0,2.83c0,0.18,0,0.38,0.09,0.52c0.07,0.13,0.27,0.25,0.41,0.25
		c0.12,0,0.29-0.15,0.35-0.27c0.08-0.17,0.09-0.38,0.09-0.57c0.01-1.82,0.01-3.64,0-5.47c0-0.17,0-0.35-0.07-0.49
		c-0.08-0.15-0.26-0.35-0.38-0.34c-0.15,0.01-0.35,0.18-0.43,0.33c-0.08,0.14-0.05,0.35-0.05,0.53
		C22.24,14.71,22.24,15.61,22.24,16.5z"/>
	<path class="st0" d="M65.52,16.55c0,1.01,0.01,2.02,0,3.03c-0.02,1-0.5,1.72-1.35,1.88c-1.38,0.27-2.44-0.23-2.5-1.83
		c-0.07-2.05-0.05-4.11-0.01-6.17c0.03-1.51,1.35-2.34,2.76-1.77c0.8,0.32,1.07,1.01,1.09,1.81C65.54,14.5,65.52,15.52,65.52,16.55z
		 M64.05,16.55c0-0.93,0-1.86,0-2.79c0-0.15,0.01-0.33-0.06-0.45c-0.1-0.15-0.26-0.33-0.41-0.34c-0.12-0.01-0.3,0.19-0.38,0.33
		c-0.07,0.12-0.07,0.3-0.07,0.45c0,1.86,0,3.72,0,5.58c0,0.56,0.14,0.79,0.46,0.8c0.33,0,0.47-0.23,0.47-0.78
		C64.06,18.41,64.05,17.48,64.05,16.55z"/>
	<path class="st0" d="M16.42,14.41c-0.5,0-0.96,0-1.47,0c0-0.22,0.01-0.44,0-0.65c-0.01-0.18-0.01-0.38-0.09-0.53
		c-0.07-0.13-0.25-0.27-0.39-0.28c-0.12-0.01-0.29,0.14-0.36,0.26c-0.08,0.13-0.09,0.32-0.09,0.49c-0.01,1.89-0.01,3.78,0,5.66
		c0,0.15,0,0.33,0.08,0.45c0.08,0.13,0.25,0.28,0.38,0.28c0.13,0,0.29-0.15,0.39-0.28c0.07-0.09,0.08-0.25,0.08-0.37
		c0.01-0.58,0-1.16,0-1.77c-0.16-0.02-0.3-0.03-0.46-0.05c0-0.43,0-0.85,0-1.29c0.64,0,1.27,0,1.88,0c0,1.21,0.09,2.41-0.03,3.6
		c-0.12,1.2-0.86,1.66-2.18,1.57c-0.91-0.06-1.59-0.77-1.6-1.82c-0.03-2.11-0.05-4.22,0-6.32c0.04-1.52,1.58-2.34,2.93-1.61
		c0.66,0.36,0.87,0.99,0.92,1.69C16.45,13.75,16.42,14.06,16.42,14.41z"/>
	<path class="st0" d="M57.37,9.84c0-2.78,0-5.53,0-8.32c-0.42,0-0.81,0-1.22,0c0-0.47,0-0.9,0-1.37c1.3,0,2.61,0,3.94,0
		c0,0.44,0,0.88,0,1.35c-0.4,0-0.8,0-1.22,0c0,2.66,0,5.3,0,7.97c7.84,0,15.69,0,23.57,0c0.01,0.14,0.03,0.24,0.04,0.37
		C74.1,9.84,65.76,9.84,57.37,9.84z"/>
	<path class="st0" d="M34.17,21.4c-0.51,0-0.95,0-1.42,0c-0.08-0.91-0.15-1.8-0.23-2.72c-0.33,0-0.65,0-1.01,0
		c-0.08,0.89-0.15,1.8-0.23,2.72c-0.47,0-0.92,0-1.42,0c0.36-3.25,0.71-6.47,1.07-9.72c0.73,0,1.43,0,2.17,0
		C33.46,14.91,33.81,18.14,34.17,21.4z M32.05,13.07c-0.03,0-0.05,0-0.08,0c-0.12,1.38-0.23,2.76-0.35,4.16c0.28,0,0.52,0,0.79,0
		C32.28,15.83,32.17,14.45,32.05,13.07z"/>
	<path class="st0" d="M41.7,21.4c-0.48,0-0.93,0-1.42,0c0.36-3.25,0.71-6.48,1.07-9.72c0.73,0,1.43,0,2.17,0
		c0.36,3.24,0.71,6.46,1.07,9.72c-0.49,0-0.94,0-1.42,0c-0.08-0.9-0.15-1.8-0.23-2.72c-0.34,0-0.66,0-1.01,0
		C41.86,19.57,41.78,20.48,41.7,21.4z M42.48,13.08c-0.03,0-0.06,0.01-0.08,0.01c-0.12,1.38-0.23,2.77-0.35,4.15
		c0.3,0,0.54,0,0.79,0C42.71,15.84,42.59,14.46,42.48,13.08z"/>
	<path class="st0" d="M24.83,9.85c-0.49,0-0.93,0-1.42,0c-0.08-0.89-0.15-1.78-0.23-2.7c-0.33,0-0.65,0-1.01,0
		c-0.08,0.89-0.15,1.78-0.23,2.69c-0.46,0-0.91,0-1.41,0c0.35-3.22,0.71-6.44,1.06-9.68c0.71,0,1.41,0,2.17,0
		C24.12,3.36,24.47,6.59,24.83,9.85z M22.71,1.54c-0.03-0.01-0.05-0.01-0.08-0.02c-0.12,1.39-0.24,2.78-0.36,4.19
		c0.26,0,0.51,0,0.8,0C22.95,4.31,22.83,2.93,22.71,1.54z"/>
	<path class="st0" d="M52.91,21.41c-0.65,0-1.27,0.01-1.89-0.01c-0.08,0-0.23-0.13-0.23-0.21c-0.15-1.26-0.27-2.52-0.41-3.77
		c-0.17-1.58-0.34-3.16-0.51-4.74c-0.04-0.33-0.06-0.66-0.1-1.01c0.5,0,0.98,0,1.5,0c0.18,2.46,0.36,4.93,0.55,7.4
		c0.03,0,0.06,0,0.09,0c0.18-2.46,0.35-4.93,0.53-7.4c0.51,0,0.99,0,1.52,0C53.61,14.91,53.27,18.13,52.91,21.41z"/>
	<path class="st0" d="M35,6.85c0.49,0,0.95,0,1.47,0c0,0.2,0,0.4,0,0.6c0,0.19-0.01,0.39,0.01,0.58c0.04,0.27,0.1,0.57,0.46,0.56
		c0.36,0,0.42-0.3,0.45-0.57c0.1-0.9-0.05-1.72-0.73-2.39c-0.23-0.23-0.43-0.48-0.66-0.71c-0.96-1.01-1.13-2.23-0.85-3.53
		c0.21-0.98,0.91-1.44,1.98-1.39c0.9,0.04,1.54,0.65,1.66,1.59c0.06,0.47,0.06,0.95,0.1,1.48c-0.29,0-0.53,0-0.78,0
		c-0.23,0-0.46,0-0.69,0c-0.02-0.44-0.03-0.84-0.07-1.23c-0.02-0.24-0.12-0.46-0.43-0.44c-0.3,0.02-0.36,0.24-0.39,0.49
		c-0.13,0.82,0.07,1.53,0.66,2.13c0.32,0.32,0.63,0.65,0.91,1c0.92,1.16,0.95,2.48,0.58,3.82c-0.23,0.82-0.98,1.22-1.89,1.16
		c-0.92-0.06-1.52-0.54-1.71-1.4c-0.04-0.18-0.08-0.36-0.08-0.53C34.99,7.66,35,7.26,35,6.85z"/>
	<path class="st0" d="M12.64,6.85c0.5,0,0.96,0,1.47,0c0,0.25-0.01,0.49,0,0.73c0.01,0.18,0.02,0.36,0.04,0.54
		c0.04,0.27,0.15,0.49,0.46,0.48c0.31-0.01,0.4-0.26,0.43-0.51c0.1-0.92-0.03-1.78-0.74-2.47c-0.21-0.21-0.4-0.44-0.61-0.65
		c-0.97-1-1.16-2.21-0.9-3.52c0.2-0.99,0.88-1.47,1.95-1.44c0.92,0.03,1.55,0.58,1.7,1.54c0.07,0.48,0.07,0.98,0.11,1.5
		c-0.52,0-0.99,0-1.5,0c0-0.28,0.01-0.57,0-0.85c0-0.15,0.01-0.33-0.07-0.45c-0.09-0.14-0.26-0.33-0.38-0.32
		c-0.14,0.01-0.36,0.2-0.38,0.34c-0.11,0.7-0.1,1.4,0.41,1.98c0.3,0.34,0.61,0.67,0.92,1c1.08,1.15,1.17,2.52,0.85,3.95
		c-0.21,0.92-0.97,1.37-1.94,1.31c-0.98-0.07-1.58-0.61-1.74-1.56c-0.03-0.15-0.06-0.31-0.06-0.46C12.63,7.61,12.64,7.25,12.64,6.85
		z"/>
	<path class="st0" d="M59.41,14.57c-0.02-0.41-0.03-0.81-0.07-1.21c-0.02-0.24-0.13-0.43-0.41-0.42c-0.31,0.01-0.37,0.22-0.41,0.47
		c-0.11,0.81,0.05,1.53,0.66,2.13c0.35,0.35,0.68,0.71,0.98,1.1c0.87,1.14,0.88,2.43,0.51,3.72c-0.25,0.88-0.97,1.22-2.08,1.14
		c-0.76-0.05-1.38-0.59-1.52-1.42c-0.09-0.54-0.09-1.1-0.13-1.68c0.52,0,0.99,0,1.51,0c0,0.3-0.01,0.6,0,0.91
		c0.01,0.17,0,0.35,0.08,0.49c0.07,0.13,0.25,0.31,0.37,0.3c0.14-0.01,0.38-0.16,0.41-0.29c0.18-0.82,0.16-1.62-0.4-2.31
		c-0.33-0.4-0.68-0.78-1.02-1.16c-0.91-1.02-1.02-2.23-0.72-3.49c0.22-0.93,0.93-1.35,1.98-1.28c0.9,0.06,1.5,0.6,1.63,1.52
		c0.07,0.48,0.07,0.98,0.11,1.49C60.37,14.57,59.9,14.57,59.41,14.57z"/>
	<path class="st0" d="M70.97,18.38c0.51,0,0.96,0,1.47,0c0,0.28,0,0.56,0,0.84c0,0.15,0,0.31,0.03,0.46
		c0.05,0.23,0.13,0.44,0.44,0.44c0.29-0.01,0.39-0.2,0.42-0.42c0.11-0.8,0.09-1.58-0.46-2.24c-0.35-0.42-0.72-0.81-1.07-1.22
		c-0.87-1.03-0.96-2.23-0.62-3.47c0.24-0.88,0.9-1.27,1.86-1.23c0.93,0.04,1.53,0.52,1.7,1.44c0.09,0.51,0.08,1.04,0.12,1.59
		c-0.52,0-0.98,0-1.49,0c0-0.25,0.01-0.5,0-0.75c-0.01-0.19,0-0.4-0.08-0.57c-0.06-0.13-0.25-0.31-0.37-0.3
		c-0.15,0.02-0.36,0.19-0.39,0.33c-0.14,0.75-0.07,1.47,0.47,2.07c0.3,0.33,0.6,0.64,0.89,0.97c1.07,1.17,1.16,2.56,0.77,3.99
		c-0.24,0.9-0.96,1.26-2.08,1.19c-0.77-0.05-1.37-0.59-1.54-1.4c-0.04-0.18-0.07-0.36-0.08-0.54C70.96,19.18,70.97,18.8,70.97,18.38
		z"/>
	<path class="st0" d="M53.82,4.19c0.48,0,0.94,0,1.43,0c0,0.46,0,0.91,0,1.38c-0.46,0-0.93,0-1.43,0c0,0.97,0,1.9,0,2.88
		c0.56,0,1.13,0,1.73,0c0,0.48,0,0.92,0,1.39c-1.06,0-2.13,0-3.21,0c0-3.23,0-6.44,0-9.68c1.07,0,2.13,0,3.22,0
		c0,0.43,0,0.87,0,1.34c-0.57,0-1.15,0-1.74,0C53.82,2.4,53.82,3.27,53.82,4.19z"/>
	<path class="st0" d="M48.38,0.14c1.07,0,2.13,0,3.21,0c0,0.45,0,0.88,0,1.35c-0.57,0-1.15,0-1.74,0c0,0.91,0,1.78,0,2.69
		c0.47,0,0.94,0,1.44,0c0,0.48,0,0.92,0,1.4c-0.47,0-0.95,0-1.44,0c0,0.97,0,1.91,0,2.88c0.58,0,1.15,0,1.75,0c0,0.47,0,0.91,0,1.37
		c-1.06,0-2.13,0-3.21,0C48.38,6.61,48.38,3.38,48.38,0.14z"/>
	<path class="st0" d="M32.09,4.18c0,0.49,0,0.93,0,1.4c-0.49,0-0.98,0-1.47,0c0,0.97,0,1.9,0,2.87c0.58,0,1.15,0,1.75,0
		c0,0.48,0,0.93,0,1.39c-1.07,0-2.12,0-3.2,0c0-3.23,0-6.44,0-9.69c1.06,0,2.13,0,3.2,0c0,0.44,0,0.88,0,1.35c-0.58,0-1.14,0-1.74,0
		c0,0.9,0,1.78,0,2.68C31.09,4.18,31.57,4.18,32.09,4.18z"/>
	<path class="st0" d="M27.38,9.84c-0.52,0-0.98,0-1.48,0c0-2.77,0-5.53,0-8.32c-0.43,0-0.82,0-1.24,0c0-0.47,0-0.9,0-1.36
		c1.3,0,2.62,0,3.95,0c0,0.44,0,0.87,0,1.34c-0.39,0-0.79,0-1.22,0C27.38,4.29,27.38,7.05,27.38,9.84z"/>
	<path class="st0" d="M18.01,1.51c-0.44,0-0.83,0-1.24,0c0-0.46,0-0.91,0-1.37c1.31,0,2.61,0,3.93,0c0,0.45,0,0.88,0,1.35
		c-0.4,0-0.79,0-1.21,0c0,2.79,0,5.55,0,8.34c-0.5,0-0.97,0-1.48,0C18.01,7.08,18.01,4.32,18.01,1.51z"/>
	<path class="st0" d="M40.37,1.51c-0.44,0-0.83,0-1.23,0c0-0.46,0-0.91,0-1.36c1.31,0,2.61,0,3.92,0c0,0.45,0,0.88,0,1.35
		c-0.39,0-0.79,0-1.21,0c0,2.79,0,5.55,0,8.34c-0.5,0-0.97,0-1.48,0C40.37,7.08,40.37,4.32,40.37,1.51z"/>
	<path class="st0" d="M36.35,20.01c0.59,0,1.13,0,1.7,0c0,0.47,0,0.91,0,1.38c-1.05,0-2.09,0-3.15,0c0-3.24,0-6.47,0-9.72
		c0.48,0,0.94,0,1.45,0C36.35,14.44,36.35,17.21,36.35,20.01z"/>
	<path class="st0" d="M18.72,20.01c0.59,0,1.13,0,1.7,0c0,0.47,0,0.91,0,1.38c-1.04,0-2.06,0-3.12,0c0-3.22,0-6.46,0-9.71
		c0.46,0,0.92,0,1.43,0C18.72,14.44,18.72,17.21,18.72,20.01z"/>
	<path class="st0" d="M54.82,11.67c0.49,0,0.94,0,1.41,0c0,3.24,0,6.47,0,9.72c-0.48,0-0.93,0-1.41,0
		C54.82,18.15,54.82,14.92,54.82,11.67z"/>
	<path class="st0" d="M76.02,21.52c-0.43,0-0.77-0.34-0.76-0.76c0.01-0.43,0.34-0.74,0.78-0.74c0.44,0,0.76,0.33,0.76,0.76
		C76.79,21.2,76.46,21.52,76.02,21.52z M76.01,20.15c-0.34,0.01-0.61,0.28-0.6,0.62c0.01,0.34,0.28,0.6,0.63,0.6
		c0.35-0.01,0.6-0.27,0.6-0.62C76.63,20.41,76.36,20.15,76.01,20.15z"/>
	<path class="st0" d="M48.86,25.25c0.02-0.02,0.04-0.04,0.06-0.06c0.02,0.02,0.05,0.04,0.07,0.06c-0.03,0.03-0.05,0.05-0.08,0.08
		C48.9,25.3,48.88,25.28,48.86,25.25z"/>
	<path class="st0" d="M49.58,25.98c-0.11-0.06-0.19-0.11-0.29-0.16c-0.03,0.13-0.06,0.23-0.09,0.33c-0.01,0-0.03,0-0.04,0
		c0-0.26,0-0.53,0-0.88c0.2,0.07,0.45,0.08,0.51,0.19C49.73,25.57,49.62,25.79,49.58,25.98z"/>
	<text transform="matrix(1 0 0 1 75.6864 21.1245)" class="st0 st1 st2">R</text>
	<path class="st0" d="M49.43,26.53c-0.43,0-0.77-0.34-0.76-0.76c0.01-0.43,0.34-0.74,0.78-0.74c0.44,0,0.76,0.33,0.76,0.76
		C50.2,26.22,49.87,26.54,49.43,26.53z M49.43,25.17c-0.34,0.01-0.61,0.28-0.6,0.62c0.01,0.34,0.28,0.6,0.63,0.6
		c0.35-0.01,0.6-0.27,0.6-0.62C50.04,25.42,49.77,25.17,49.43,25.17z"/>
	<text transform="matrix(1 0 0 1 49.1009 26.1434)" class="st0 st1 st2">R</text>
</g>
</svg>
