<?xml version="1.0" encoding="utf-8"?>
<!-- Generator: Adobe Illustrator 26.0.1, SVG Export Plug-In . SVG Version: 6.00 Build 0)  -->
<svg version="1.1" id="Layer_1" xmlns="http://www.w3.org/2000/svg" xmlns:xlink="http://www.w3.org/1999/xlink" x="0px" y="0px"
	 viewBox="0 0 95 35" style="enable-background:new 0 0 95 35;" xml:space="preserve">
<style type="text/css">
	.st0{fill:#343741;}
</style>
<g>
	<path class="st0" d="M63.15,0h-31.3c-1.39,0-2.51,1.14-2.51,2.56v29.89c0,1.41,1.12,2.56,2.51,2.56h31.3
		c1.39,0,2.51-1.14,2.51-2.56V2.56C65.66,1.14,64.54,0,63.15,0z M50.46,17.19l7.72,3.42c-0.57,1.09-1.3,2.09-2.17,2.95L50.46,17.19z
		 M56.01,23.56c-0.77,0.76-1.64,1.41-2.59,1.93c-0.73-2.66-1.95-5.22-3.65-7.53L56.01,23.56z M50.94,16.26l8.39,0.87
		c-0.2,1.23-0.6,2.4-1.15,3.47L50.94,16.26z M51.11,15.24l8.25-1.77c0.08,0.52,0.12,1.06,0.13,1.61c0.01,0.7-0.05,1.39-0.15,2.05
		L51.11,15.24z M59.36,13.47l-8.4,0.74l7.29-4.23C58.79,11.06,59.17,12.23,59.36,13.47z M58.25,9.98l-7.76,3.3L56.12,7
		C56.98,7.87,57.7,8.88,58.25,9.98z M56.12,7l-6.35,5.54l3.42-7.71C54.27,5.4,55.26,6.14,56.12,7z M53.18,4.83l-4.34,7.23l0.87-8.39
		C50.94,3.88,52.11,4.27,53.18,4.83z M47.64,3.52c0.7-0.01,1.39,0.04,2.06,0.15l-1.89,8.22l-1.76-8.25
		C46.57,3.57,47.1,3.52,47.64,3.52z M46.05,3.65l0.74,8.4l-4.23-7.3C43.64,4.21,44.81,3.83,46.05,3.65z M42.56,4.75l3.3,7.76
		l-6.28-5.64C40.46,6.02,41.46,5.3,42.56,4.75z M39.58,6.88l5.52,6.35c-2.3-1.75-4.85-3-7.5-3.77C38.15,8.5,38.81,7.64,39.58,6.88z
		 M34.03,8.34c5.91,1.62,11.01,5.23,14.53,10.08c-5.63,2.4-9.88-0.75-9.88-0.75C33.3,14.01,34.03,8.34,34.03,8.34z M34.55,31.93
		c-0.65,0-1.2-0.1-1.71-0.32c-0.01-0.06-0.06-0.32-0.14-0.67c0,0-0.05-0.26-0.07-0.36c0.5,0.48,1.15,0.74,1.82,0.74
		c0.68,0,1.05-0.39,1.05-0.76c0-0.57-0.59-0.89-1.22-1.24c-0.71-0.39-1.44-0.79-1.44-1.58c0-0.87,0.71-1.44,1.81-1.44
		c0.55,0,0.96,0.12,1.28,0.24c0,0.03,0,0.84,0,0.94c-0.33-0.36-0.81-0.56-1.35-0.56c-0.6,0-1.02,0.3-1.02,0.72
		c0,0.5,0.51,0.77,1.11,1.07l0,0c0.72,0.37,1.55,0.79,1.55,1.76C36.22,31.32,35.52,31.93,34.55,31.93z M40.82,27.33
		c-0.31,0.11-0.3,0.53-0.29,0.83v1.96c0,0.47,0,0.94-0.35,1.33c-0.28,0.31-0.82,0.49-1.46,0.49s-1.18-0.18-1.46-0.49
		c-0.35-0.39-0.35-0.86-0.35-1.33v-1.96c0-0.3,0.01-0.71-0.29-0.83v-0.04h1.29v0.04c-0.3,0.12-0.3,0.53-0.29,0.84v1.94
		c0,0.88,0.39,1.31,1.11,1.31s1.11-0.44,1.11-1.31v-1.94c0-0.31,0.01-0.72-0.29-0.84v-0.04h1.29v0.04H40.82z M45.83,27.33
		c-0.35,0.2-0.36,0.44-0.36,0.82v3.88c-0.5-0.17-3.34-3.74-3.34-3.77c0,0,0,2.66,0,2.67c0,0.36,0.02,0.64,0.37,0.84v0.04h-1.23
		v-0.04c0.36-0.21,0.36-0.46,0.36-0.84v-2.76c0-0.38,0-0.65-0.35-0.85v-0.04h1.01c0.03,0.08,0.2,0.32,0.2,0.32s2.49,3,2.49,3.03
		c0,0,0-2.48,0-2.49c0-0.36-0.02-0.63-0.37-0.82v-0.04h1.23v0.05H45.83z M49.76,31.72c-0.29,0.14-0.64,0.21-1.04,0.21
		c-1.62,0-2.63-0.91-2.63-2.38c0-1.39,0.99-2.36,2.41-2.36c0.36,0,0.76,0.05,1.25,0.18v0.8c-0.4-0.26-0.85-0.4-1.28-0.4
		c-0.94,0-1.59,0.69-1.59,1.67c0,1.08,0.74,1.89,1.73,1.89c0.58,0,1.11-0.23,1.45-0.43h0.04C50.12,30.91,49.77,31.72,49.76,31.72z
		 M52.6,31.93c-1.43,0-2.51-1.03-2.51-2.39c0-0.62,0.25-1.2,0.71-1.65c0.49-0.48,1.16-0.74,1.87-0.72c0.69,0,1.32,0.25,1.78,0.71
		c0.44,0.44,0.68,1.01,0.68,1.62C55.13,30.87,54.02,31.93,52.6,31.93z M61.03,29.8c-0.17,0-0.31-0.03-0.42-0.08
		c-0.03-0.01-0.05-0.02-0.07-0.03c0.01,0,0,0,0,0s0.01,0,0-0.01c0.6-0.03,1.21-0.4,1.21-1.05c0-0.72-0.6-0.83-0.96-0.83
		c-0.16,0-0.32,0.01-0.47,0.03v3.11c0,0.37,0.02,0.64,0.37,0.84v0.04h-1.85c-0.37,0-0.6-0.1-0.8-0.35c-0.2-0.23-0.6-0.72-0.83-1.04
		c-0.24-0.34-0.63-0.96-0.63-0.96l0,0v-0.01c0.44-0.07,1.17-0.28,1.17-0.97c0-0.21-0.07-0.39-0.22-0.52
		c-0.16-0.16-0.39-0.24-0.66-0.23s-0.3,0.01-0.46,0.02c0,0,0,3.2,0,3.24c0,0.29,0.02,0.68,0.3,0.78v0.04H55.4v-0.04
		c0.31-0.11,0.3-0.48,0.29-0.78v-2.83c0.01-0.3,0.01-0.72-0.29-0.83V27.3h1.63c0.87,0,1.43,0.44,1.43,1.11c0,0.57-0.46,1-0.94,1.16
		c-0.05,0.02-0.09,0.03-0.14,0.04l0.98,1.24c0.13,0.16,0.29,0.32,0.47,0.48c0.13,0.12,0.37,0.31,0.48,0.34
		c0.29,0.06,0.28-0.47,0.28-0.47c0-0.08,0-0.16,0-0.24V28.2c0-0.31,0.01-0.72-0.29-0.85v-0.04h1.66c0.96,0,1.58,0.47,1.58,1.21
		C62.54,29.31,61.77,29.8,61.03,29.8z"/>
	<path class="st0" d="M52.62,27.69c-1.02,0-1.73,0.74-1.73,1.79c0,0.93,0.67,1.94,1.74,1.94c1,0,1.69-0.73,1.69-1.77
		C54.33,28.7,53.73,27.69,52.62,27.69z"/>
</g>
</svg>
