<?xml version="1.0" encoding="utf-8"?>
<!-- Generator: Adobe Illustrator 26.0.1, SVG Export Plug-In . SVG Version: 6.00 Build 0)  -->
<svg version="1.1" id="Layer_1" xmlns="http://www.w3.org/2000/svg" xmlns:xlink="http://www.w3.org/1999/xlink" x="0px" y="0px"
	 viewBox="0 0 95 35" style="enable-background:new 0 0 95 35;" xml:space="preserve">
<style type="text/css">
	.st0{fill-rule:evenodd;clip-rule:evenodd;fill:#343741;}
</style>
<g>
	<path class="st0" d="M46.24,14.66c-0.11-0.45-0.24-0.91-0.39-1.36c-0.47-1.47-1.1-2.91-1.9-4.3c-2.39-4.14-5.93-7.2-9.98-9.01
		c-0.89,2.64-1.08,5.51-0.48,8.29c3.75,0.85,7.17,3.07,9.47,6.44c0.22,0.33,0.44,0.67,0.64,1.02c0.09,0.16,0.18,0.32,0.26,0.48
		c0.7,1.32,1.2,2.7,1.5,4.1c0.09,0.45,0.17,0.89,0.23,1.34c0.01,6.46-1.65,9.17-3.54,11.97c3.81-4.6,4.67-8.26,4.82-13.05
		C46.94,18.62,46.73,16.62,46.24,14.66L46.24,14.66z"/>
	<path class="st0" d="M26.38,25.52c1.89-3.25,4.61-5.92,7.88-7.81c1.08-0.62,2.23-1.16,3.4-1.59c1.72-0.63,3.52-1.04,5.34-1.22
		c0.62-0.06,1.25-0.09,1.88-0.1c0.45,0,0.91,0.01,1.36,0.03c1.6,0.09,3.2,0.35,4.74,0.79c2.08,0.58,4.05,1.47,5.85,2.63l0.18-0.29
		c-1.84-1.18-3.84-2.08-5.95-2.68c-1.57-0.44-3.19-0.71-4.82-0.8c-0.46-0.03-0.93-0.04-1.39-0.03c-0.64,0.01-1.29,0.04-1.91,0.1
		c-1.85,0.18-3.67,0.6-5.42,1.24c-1.19,0.44-2.35,0.98-3.45,1.61c-3.32,1.92-6.13,4.71-8.05,8.01L26.38,25.52L26.38,25.52z"/>
	<path class="st0" d="M42.35,22.47c-4.58,2.69-10.68,4.05-16.06,3.02c5.45,1.52,11.49,0.93,16.78-2.13
		c6.08-3.51,9.83-9.5,10.72-15.95C52.4,13.65,48.29,18.98,42.35,22.47L42.35,22.47z"/>
	<path class="st0" d="M34.18,9.13c0.48-0.17,0.98,0.07,1.15,0.56c0.17,0.48-0.08,0.97-0.57,1.14c-0.48,0.17-0.98-0.07-1.15-0.55
		C33.45,9.79,33.7,9.3,34.18,9.13L34.18,9.13z"/>
	<path class="st0" d="M35.11,11.74c0.41-0.23,0.9-0.1,1.13,0.32c0.23,0.41,0.08,0.89-0.33,1.12c-0.41,0.23-0.9,0.1-1.12-0.31
		C34.56,12.45,34.71,11.97,35.11,11.74L35.11,11.74z"/>
	<path class="st0" d="M36.39,13.99c0.33-0.26,0.79-0.22,1.06,0.12c0.26,0.33,0.2,0.79-0.13,1.05c-0.33,0.26-0.79,0.22-1.05-0.11
		C36,14.71,36.06,14.25,36.39,13.99L36.39,13.99z"/>
	<path class="st0" d="M38.32,16.27c0.25-0.29,0.66-0.33,0.96-0.07c0.29,0.25,0.31,0.66,0.07,0.95c-0.25,0.29-0.66,0.33-0.95,0.08
		C38.1,16.97,38.07,16.56,38.32,16.27L38.32,16.27z"/>
	<path class="st0" d="M39.72,17.54c0.18-0.26,0.52-0.34,0.79-0.15c0.26,0.18,0.32,0.52,0.15,0.78c-0.18,0.26-0.52,0.33-0.78,0.16
		C39.6,18.14,39.54,17.8,39.72,17.54L39.72,17.54z"/>
	<path class="st0" d="M40.98,18.4c0.14-0.26,0.45-0.36,0.72-0.21c0.26,0.14,0.35,0.45,0.21,0.71c-0.14,0.26-0.45,0.36-0.71,0.22
		C40.93,18.97,40.84,18.66,40.98,18.4L40.98,18.4z"/>
	<path class="st0" d="M42.89,19.38c0.1-0.26,0.37-0.39,0.63-0.29c0.26,0.1,0.38,0.37,0.28,0.63c-0.1,0.26-0.37,0.39-0.63,0.29
		C42.92,19.91,42.8,19.64,42.89,19.38L42.89,19.38z"/>
	<path class="st0" d="M44.12,19.89c0.06-0.22,0.29-0.35,0.51-0.28c0.22,0.07,0.34,0.29,0.28,0.51c-0.06,0.22-0.28,0.35-0.51,0.29
		C44.18,20.34,44.06,20.11,44.12,19.89L44.12,19.89z"/>
	<path class="st0" d="M47.37,20.64c0.01-0.21,0.19-0.37,0.4-0.35c0.21,0.02,0.36,0.19,0.34,0.4c-0.02,0.21-0.19,0.37-0.4,0.35
		C47.51,21.03,47.36,20.85,47.37,20.64L47.37,20.64z"/>
	<path class="st0" d="M48.68,20.74c0-0.19,0.14-0.34,0.34-0.34c0.19,0,0.34,0.15,0.34,0.34c0,0.19-0.14,0.34-0.33,0.34
		C48.82,21.08,48.68,20.93,48.68,20.74L48.68,20.74z"/>
	<path class="st0" d="M50.15,20.72c-0.02-0.17,0.1-0.31,0.27-0.33c0.17-0.02,0.31,0.1,0.33,0.27c0.02,0.17-0.1,0.31-0.27,0.33
		C50.31,21.01,50.17,20.89,50.15,20.72L50.15,20.72z"/>
	<path class="st0" d="M51.35,20.55c-0.03-0.15,0.06-0.28,0.21-0.31c0.15-0.03,0.28,0.07,0.3,0.22c0.03,0.15-0.06,0.28-0.21,0.31
		C51.51,20.79,51.38,20.69,51.35,20.55L51.35,20.55z"/>
	<path class="st0" d="M52.53,20.34c-0.03-0.12,0.04-0.24,0.16-0.27c0.12-0.03,0.24,0.04,0.27,0.16c0.03,0.12-0.04,0.24-0.16,0.27
		C52.67,20.54,52.56,20.47,52.53,20.34L52.53,20.34z"/>
	<path class="st0" d="M53.58,20.05c-0.04-0.12,0.02-0.24,0.14-0.29c0.12-0.04,0.24,0.02,0.28,0.15c0.04,0.12-0.02,0.24-0.14,0.28
		C53.74,20.24,53.62,20.17,53.58,20.05L53.58,20.05z"/>
	<path class="st0" d="M54.54,19.71c-0.05-0.12,0.01-0.25,0.13-0.29c0.12-0.05,0.24,0.01,0.29,0.13c0.05,0.12,0,0.25-0.12,0.29
		C54.71,19.89,54.59,19.83,54.54,19.71L54.54,19.71z"/>
	<path class="st0" d="M55.44,19.33c-0.06-0.11-0.01-0.25,0.11-0.3c0.11-0.05,0.24-0.01,0.3,0.11c0.05,0.12,0.01,0.25-0.1,0.3
		C55.63,19.49,55.5,19.45,55.44,19.33L55.44,19.33z"/>
	<path class="st0" d="M56.31,18.93c-0.05-0.09-0.02-0.2,0.07-0.26c0.09-0.05,0.2-0.02,0.25,0.08c0.05,0.09,0.02,0.2-0.07,0.25
		C56.47,19.06,56.36,19.03,56.31,18.93L56.31,18.93z"/>
	<path class="st0" d="M57,18.53c-0.06-0.09-0.03-0.2,0.06-0.26c0.09-0.06,0.2-0.03,0.26,0.06c0.06,0.09,0.03,0.2-0.06,0.26
		C57.17,18.65,57.05,18.62,57,18.53L57,18.53z"/>
	<path class="st0" d="M48,11.31L47.71,11c-0.5,0.48-0.99,0.99-1.44,1.51l0.32,0.27C47.04,12.27,47.51,11.77,48,11.31L48,11.31z"/>
	<path class="st0" d="M41.79,22.12l-0.37-0.1c-0.16,0.7-0.29,1.41-0.39,2.13l0.38,0.03C41.5,23.48,41.63,22.79,41.79,22.12
		L41.79,22.12z"/>
	<path class="st0" d="M41.21,27.14c0-0.64,0.03-1.26,0.08-1.88l-0.38-0.03c-0.05,0.62-0.08,1.24-0.08,1.88c0,0.09,0,0.18,0,0.27
		l0.37-0.03C41.21,27.28,41.21,27.21,41.21,27.14L41.21,27.14z"/>
	<path class="st0" d="M45.9,13.61l-0.32-0.26c-0.44,0.56-0.86,1.15-1.25,1.76l0.36,0.18C45.07,14.71,45.47,14.15,45.9,13.61
		L45.9,13.61z"/>
	<path class="st0" d="M42.71,19.15l-0.35-0.18c-0.25,0.65-0.48,1.31-0.67,1.99l0.37,0.1C42.25,20.42,42.47,19.78,42.71,19.15
		L42.71,19.15z"/>
	<path class="st0" d="M41.25,28.44l-0.37,0.03c0.04,0.72,0.12,1.44,0.23,2.14l0.37-0.06C41.36,29.86,41.29,29.15,41.25,28.44
		L41.25,28.44z"/>
	<path class="st0" d="M41.67,31.62l-0.37,0.06c0.15,0.71,0.35,1.48,0.56,2.16l0.29-0.31C41.95,32.87,41.81,32.3,41.67,31.62
		L41.67,31.62z"/>
	<path class="st0" d="M50.48,9.27l-0.25-0.35c-0.59,0.42-1.17,0.87-1.72,1.35l0.29,0.31C49.35,10.12,49.9,9.68,50.48,9.27
		L50.48,9.27z"/>
	<path class="st0" d="M44.13,16.22l-0.36-0.18c-0.36,0.63-0.69,1.27-0.98,1.93l0.35,0.18C43.44,17.49,43.77,16.85,44.13,16.22
		L44.13,16.22z"/>
	<path class="st0" d="M53.21,7.63l-0.2-0.39c-0.64,0.33-1.27,0.69-1.87,1.07l0.25,0.36C51.98,8.29,52.58,7.95,53.21,7.63L53.21,7.63
		z"/>
	<path class="st0" d="M49.94,24.92c0.01-0.16-0.05-0.29-0.15-0.38c-0.1-0.09-0.25-0.14-0.46-0.14c-0.27,0-0.51,0.18-0.51,0.39
		c0,0.31,0.38,0.41,0.69,0.5c0.72,0.18,1.76,0.25,1.76,1.41c0,0.9-0.89,1.32-1.87,1.32c-0.99,0-1.87-0.29-1.88-1.45h1.18
		c-0.01,0.4,0.29,0.62,0.71,0.62c0.27,0,0.62-0.14,0.62-0.43c0-0.58-0.88-0.46-1.8-0.86c-0.43-0.19-0.64-0.58-0.64-1.04
		c0.05-1.01,0.93-1.29,1.83-1.29c0.88,0,1.79,0.31,1.71,1.34H49.94L49.94,24.92z"/>
	<polygon class="st0" points="54.81,24.96 53.19,29.06 52.16,29.06 52.58,28.02 51.34,24.96 52.54,24.96 53.12,27.03 53.13,27.03 
		53.77,24.96 54.81,24.96 	"/>
	<path class="st0" d="M57.16,27.49h-0.02c-0.15,0.36-0.57,0.53-0.99,0.53c-0.85,0-1.24-0.82-1.24-1.56c0-0.79,0.4-1.58,1.28-1.58
		c0.37,0,0.75,0.13,0.96,0.44h0.01v-1.65h1.12v4.27h-1.09L57.16,27.49L57.16,27.49z M56.06,26.45c0,0.39,0.09,0.92,0.55,0.92
		c0.46,0,0.55-0.53,0.55-0.92c0-0.4-0.06-0.92-0.55-0.92C56.12,25.52,56.06,26.05,56.06,26.45L56.06,26.45z"/>
	<path class="st0" d="M59.88,25.29c0.25-0.3,0.55-0.41,0.93-0.41c0.64,0,1.11,0.41,1.11,1.07v1.99H60.8v-1.74
		c-0.01-0.29-0.08-0.6-0.43-0.6c-0.56,0-0.48,0.61-0.48,0.64v1.7h-1.12v-2.2c0-0.27-0.01-0.44-0.04-0.76h1.14L59.88,25.29
		L59.88,25.29z"/>
	<path class="st0" d="M63.33,26.67c-0.01,0.38,0.09,0.72,0.51,0.72c0.31,0,0.51-0.15,0.55-0.43h1.04c-0.04,0.38-0.28,0.66-0.56,0.83
		c-0.26,0.16-0.59,0.23-0.94,0.23c-1.19,0-1.66-0.51-1.66-1.67c0-0.94,0.7-1.47,1.6-1.47c1.21,0,1.59,0.69,1.59,1.8H63.33
		L63.33,26.67z M64.4,26.07c0-0.16-0.05-0.32-0.14-0.44c-0.09-0.12-0.22-0.2-0.39-0.19c-0.39,0.02-0.48,0.3-0.51,0.63H64.4
		L64.4,26.07z"/>
	<polygon class="st0" points="68.97,24.96 67.35,29.06 66.32,29.06 66.74,28.02 65.5,24.96 66.7,24.96 67.28,27.03 67.29,27.03 
		67.93,24.96 68.97,24.96 	"/>
	<path class="st0" d="M47.32,33.87L49,29.6h1.44l1.68,4.27h-1.34l-0.28-0.83h-1.73l-0.28,0.83H47.32L47.32,33.87z M50.22,32.2
		l-0.54-1.77h-0.02l-0.58,1.77H50.22L50.22,32.2z"/>
	<path class="st0" d="M52.37,30.9h1.12v2.97h-1.12V30.9L52.37,30.9z M52.36,29.9h1.13v0.79h-1.13V29.9L52.36,29.9z"/>
	<path class="st0" d="M55.19,31.45h0.01c0.13-0.49,0.5-0.66,0.99-0.64v0.95c-0.08-0.01-0.16-0.01-0.24-0.01
		c-0.59,0.01-0.79,0.36-0.77,0.92v1.19h-1.12v-2.2c0-0.27-0.01-0.44-0.04-0.76h1.14L55.19,31.45L55.19,31.45z"/>
	<path class="st0" d="M57.52,31.32h0.01c0.22-0.35,0.53-0.51,0.96-0.51c0.88,0,1.26,0.75,1.26,1.53c0,0.87-0.44,1.61-1.39,1.61
		c-0.33,0-0.63-0.18-0.84-0.44h-0.01V35h-1.12v-4.1h1.12V31.32L57.52,31.32z M57.52,32.38c0,0.38,0.07,0.92,0.54,0.92
		c0.47,0,0.54-0.54,0.54-0.92c0-0.38-0.07-0.92-0.54-0.92C57.59,31.46,57.52,32,57.52,32.38L57.52,32.38z"/>
	<path class="st0" d="M63.47,32.38c0,1.09-0.8,1.57-1.72,1.57c-0.93,0-1.73-0.48-1.73-1.57c0-1.09,0.8-1.57,1.73-1.57
		C62.67,30.81,63.47,31.29,63.47,32.38L63.47,32.38z M61.74,33.3c0.47,0,0.57-0.5,0.57-0.92c0-0.42-0.1-0.92-0.57-0.92
		c-0.47,0-0.57,0.5-0.57,0.92C61.17,32.8,61.27,33.3,61.74,33.3L61.74,33.3z"/>
	<path class="st0" d="M64.99,31.45H65c0.13-0.49,0.5-0.66,0.99-0.64v0.95c-0.08-0.01-0.16-0.01-0.24-0.01
		c-0.59,0.01-0.79,0.36-0.77,0.92v1.19h-1.12v-2.2c0-0.27,0-0.44-0.03-0.76h1.14L64.99,31.45L64.99,31.45z"/>
	<path class="st0" d="M66.52,30.9v-0.45l1.12-0.43v0.88h0.65v0.71h-0.65v1.18c0,0.08-0.05,0.46,0.21,0.46c0.15,0,0.3,0,0.43-0.02
		v0.67c-0.25,0.05-0.44,0.06-0.6,0.06c-0.76,0-1.22-0.11-1.16-1.02v-1.33h-0.58V30.9H66.52L66.52,30.9z"/>
</g>
</svg>
