<?xml version="1.0" encoding="utf-8"?>
<!-- Generator: Adobe Illustrator 26.0.1, SVG Export Plug-In . SVG Version: 6.00 Build 0)  -->
<svg version="1.1" id="Layer_1" xmlns="http://www.w3.org/2000/svg" xmlns:xlink="http://www.w3.org/1999/xlink" x="0px" y="0px"
	 viewBox="0 0 95 35" style="enable-background:new 0 0 95 35;" xml:space="preserve">
<style type="text/css">
	.st0{fill-rule:evenodd;clip-rule:evenodd;fill:#343741;}
</style>
<path class="st0" d="M18.66,22.46l-7.25-0.55l6.29-3.62v0c-0.24-0.09-0.47-0.18-0.7-0.27C7.68,14.36,2.57,9.77,5.62,7.72
	c2-1.34,6.97-1.25,12.78,0C10.41,4.81,2.8,5.57,0.6,9.79c-2.46,4.73,2.82,12.02,11.79,16.28c1.81,0.86,3.63,1.53,5.41,2.01
	L18.66,22.46L18.66,22.46z"/>
<path class="st0" d="M22.53,24.32l-3.74,4.01c2.91,0.69,5.66,0.86,7.99,0.54L22.53,24.32L22.53,24.32z"/>
<path class="st0" d="M40.92,14.07v6.55c0,0.25,0.13,0.41,0.3,0.51h-2.39c0.17-0.1,0.3-0.26,0.3-0.51v-6.55c-0.88,0-1.8,0.1-1.8,0.1
	c-0.26,0-0.44,0.25-0.56,0.45l0.02-1.2h6.48l0.01,1.2c-0.11-0.2-0.22-0.42-0.49-0.45C42.79,14.18,41.75,14.07,40.92,14.07
	L40.92,14.07z"/>
<path class="st0" d="M47.9,19.17h-2.62c-0.3,0.69-0.55,1.3-0.57,1.38c-0.06,0.27-0.02,0.45,0.3,0.59h-1.74
	c0.32-0.22,0.41-0.34,0.54-0.56c0.24-0.43,3.29-7.45,3.29-7.45s3.17,7.02,3.36,7.45c0.12,0.22,0.2,0.34,0.58,0.56H48.2
	c0.32-0.18,0.35-0.34,0.3-0.56C48.46,20.47,48.2,19.86,47.9,19.17L47.9,19.17z M47.6,18.47c-0.48-1.09-1.04-2.37-1.04-2.37
	s-0.79,1.89-0.99,2.37H47.6L47.6,18.47z"/>
<path class="st0" d="M58.1,15.25c0,1.45-1.63,1.8-1.63,1.8s2.32,0.11,2.32,1.93c0,0.91-0.66,2.15-3.02,2.15h-3.17
	c0.18-0.1,0.32-0.26,0.32-0.51v-6.69c0-0.26-0.14-0.42-0.32-0.51h2.87C56.25,13.43,58.1,13.75,58.1,15.25L58.1,15.25z M55.16,14.07
	c-0.16,0-0.43,0.02-0.43,0.02s0,2.38,0,2.68c0,0,0.19,0,0.3,0c0.77,0,1.49-0.43,1.49-1.36C56.52,14.77,56.06,14.07,55.16,14.07
	L55.16,14.07z M55.23,17.47c-0.1,0-0.5,0.02-0.5,0.02s0,1.58,0,2.96c0,0,0.12,0.02,0.24,0.02c1.17,0,1.96-0.56,1.96-1.58
	C56.93,17.83,56.2,17.47,55.23,17.47L55.23,17.47z"/>
<path class="st0" d="M67.72,15.65c-0.64-1.45-1.9-1.61-2.46-1.61c-1.72,0-2.81,1.29-2.81,3.13c0,1.46,0.69,3.33,3,3.33
	c0.54,0,1.74-0.29,2.36-1.63c0.02-0.04-0.08,1.7-0.08,1.7c-0.97,0.49-1.9,0.68-2.92,0.68c-2.24,0-4.24-1.52-4.24-3.95
	c0-2.03,1.5-4.03,4.4-4.03c0.93,0,1.77,0.12,2.68,0.53C67.64,13.81,67.74,15.7,67.72,15.65L67.72,15.65z"/>
<path class="st0" d="M73.91,21.25c-2.39-0.01-4.26-1.69-4.24-4.03c0-2.04,1.58-3.96,4.36-3.95c1.98,0.02,4.24,1.38,4.21,4.01
	C78.22,19.99,76.1,21.27,73.91,21.25L73.91,21.25z M71.63,17.08c-0.02,2.35,1.13,3.41,2.38,3.41c1.24,0,2.28-1.07,2.28-3.14
	c0.02-2.17-0.99-3.33-2.33-3.33C72.64,14.02,71.63,15.12,71.63,17.08L71.63,17.08z"/>
<path class="st0" d="M83.8,17.22c0.91,0.06,1.28,0.59,1.47,0.86c0,0,1.48,2.23,1.79,2.61c0.22,0.27,0.75,0.45,0.75,0.45l-1.79,0.02
	c-0.46,0-0.89-0.22-1.13-0.53c-0.42-0.56-1.04-1.52-1.45-2.15c-0.3-0.45-0.56-0.94-0.99-0.94c-0.06,0-0.32,0-0.32,0v3.1
	c0,0.25,0.11,0.41,0.3,0.51h-2.41c0.19-0.1,0.32-0.26,0.32-0.51v-6.69c0-0.26-0.13-0.42-0.32-0.51h2.79c2.41,0,3.02,1.12,3.02,1.9
	C85.83,16.58,84.69,17.17,83.8,17.22L83.8,17.22z M82.14,14.1v2.78c0,0,0.27,0.02,0.38,0.02c0.67,0,1.42-0.35,1.42-1.44
	c0-0.51-0.27-1.38-1.32-1.38C82.44,14.07,82.14,14.1,82.14,14.1L82.14,14.1z"/>
<path class="st0" d="M91.29,17.67v2.96c0,0.25,0.13,0.41,0.3,0.51h-2.41c0.21-0.1,0.32-0.26,0.32-0.51v-6.69
	c0-0.26-0.11-0.42-0.32-0.51h2.95c2.32,0,2.88,1.16,2.88,2.11c0,1.24-1.09,1.85-1.45,2.01C93.19,17.7,92.19,17.94,91.29,17.67
	L91.29,17.67z M91.29,14.05v3.03c0.05,0.01,0.26,0.03,0.34,0.03c0.62,0,1.58-0.26,1.58-1.6c0-0.69-0.4-1.46-1.48-1.46
	C91.55,14.05,91.29,14.05,91.29,14.05L91.29,14.05z"/>
<path class="st0" d="M24.67,14.95l-2.15-6.92l-2.15,6.92l-6.77-2.64l4.09,5.98l0,0c5.72,2.17,11.61,3.46,15.95,3.62l-6.29-3.62
	l4.09-5.98L24.67,14.95L24.67,14.95z"/>
<path class="st0" d="M33.65,21.92C33.65,21.92,33.65,21.92,33.65,21.92l-7.25,0.55l0.95,6.32c2.7-0.49,4.76-1.68,5.74-3.57
	C33.61,24.21,33.78,23.09,33.65,21.92z"/>
</svg>
