<?xml version="1.0" encoding="utf-8"?>
<!-- Generator: Adobe Illustrator 26.0.1, SVG Export Plug-In . SVG Version: 6.00 Build 0)  -->
<svg version="1.1" id="Layer_1" xmlns="http://www.w3.org/2000/svg" xmlns:xlink="http://www.w3.org/1999/xlink" x="0px" y="0px"
	 viewBox="0 0 95 35" style="enable-background:new 0 0 95 35;" xml:space="preserve">
<style type="text/css">
	.st0{clip-path:url(#SVGID_00000068674719248475727640000000782672532804477588_);fill:#343741;}
	.st1{clip-path:url(#SVGID_00000165232654251509152510000015206335183057292684_);fill:#343741;}
	.st2{clip-path:url(#SVGID_00000132792461202825379440000001249652250953483394_);fill:#343741;}
	.st3{fill:#343741;}
</style>
<g>
	<g>
		<g>
			<defs>
				<path id="SVGID_1_" d="M4.62,19.05c-0.51,0-0.78,0.29-0.78,0.79c0,0.51,0.29,0.79,0.78,0.79h8.23c0.51,0,0.78-0.29,0.78-0.79
					c0-0.51-0.27-0.79-0.78-0.79H4.62z"/>
			</defs>
			<use xlink:href="#SVGID_1_"  style="overflow:visible;fill:#FFFFFF;"/>
			<clipPath id="SVGID_00000098930864228892429250000011568572793216657320_">
				<use xlink:href="#SVGID_1_"  style="overflow:visible;"/>
			</clipPath>
			
				<rect x="3.85" y="19.05" style="clip-path:url(#SVGID_00000098930864228892429250000011568572793216657320_);fill:#FFFFFF;" width="9.8" height="1.58"/>
		</g>
	</g>
	<g>
		<g>
			<defs>
				<path id="SVGID_00000040548500634665444880000016670466417340420233_" d="M8.47,15.06c-0.51,0-0.78,0.29-0.78,0.79
					c0,0.51,0.27,0.79,0.78,0.79h4.39c0.51,0,0.78-0.29,0.78-0.79c0-0.51-0.27-0.79-0.78-0.79H8.47z"/>
			</defs>
			<use xlink:href="#SVGID_00000040548500634665444880000016670466417340420233_"  style="overflow:visible;fill:#FFFFFF;"/>
			<clipPath id="SVGID_00000124122508934421867920000002448502071452120507_">
				<use xlink:href="#SVGID_00000040548500634665444880000016670466417340420233_"  style="overflow:visible;"/>
			</clipPath>
			
				<rect x="7.7" y="15.06" style="clip-path:url(#SVGID_00000124122508934421867920000002448502071452120507_);fill:#FFFFFF;" width="5.95" height="1.58"/>
		</g>
	</g>
	<g>
		<g>
			<defs>
				<path id="SVGID_00000037668053808436988920000008428145965462637497_" d="M0.78,23.04C0.29,23.04,0,23.33,0,23.82v0.03
					c0,0.49,0.29,0.78,0.78,0.78h12.08c0.51,0,0.78-0.29,0.78-0.79c0-0.51-0.27-0.79-0.78-0.79H0.78z"/>
			</defs>
			<use xlink:href="#SVGID_00000037668053808436988920000008428145965462637497_"  style="overflow:visible;fill:#FFFFFF;"/>
			<clipPath id="SVGID_00000114760643578591833260000000478295317086507672_">
				<use xlink:href="#SVGID_00000037668053808436988920000008428145965462637497_"  style="overflow:visible;"/>
			</clipPath>
			
				<rect x="-0.02" y="23.04" style="clip-path:url(#SVGID_00000114760643578591833260000000478295317086507672_);fill:#FFFFFF;" width="13.65" height="1.58"/>
		</g>
	</g>
	<path class="st3" d="M81.78,23.14c-1.03,0-2.14-0.44-2.14-1.68c0-0.76,0.6-1.66,2.26-1.66c1.22,0,2.49,0.59,2.49,1.55
		C84.39,22.47,83.06,23.14,81.78,23.14 M82.3,14.08c-1.12,0-2.09,0.17-2.98,0.54c-0.33,0.14-0.59,0.46-0.59,0.78
		c0,0.43,0.29,0.7,0.74,0.7c0.24,0,0.51-0.08,0.82-0.16c0.43-0.13,0.95-0.27,1.62-0.27c1.54,0,2.5,0.73,2.5,1.88V19
		c-0.6-0.44-1.54-0.71-2.52-0.71c-1.93,0-3.88,1.12-3.88,3.28c0,2.14,1.84,3.1,3.53,3.1c1.09,0,2.12-0.38,2.87-1.05
		c0,0.06,0,0.02,0.02,0.13c0.02,0.38,0.27,0.86,0.79,0.86c0.52,0,0.79-0.35,0.79-0.74v-6.45C86.02,15.39,84.56,14.08,82.3,14.08
		 M49.17,18.61c-0.17-0.08-0.35-0.14-0.54-0.22c-1.06-0.43-2.07-0.82-2.07-1.44c0-1.17,1.5-1.27,1.96-1.27
		c0.84,0,1.66,0.22,2.04,0.44c0.14,0.08,0.3,0.13,0.46,0.13c0.44,0,0.74-0.3,0.74-0.76c0-0.33-0.16-0.6-0.41-0.74
		c-0.79-0.43-1.76-0.65-2.8-0.65c-2.23,0-3.69,1.19-3.69,3.04c0,1.68,2.28,2.5,3.64,3.01c0.9,0.32,1.93,0.79,1.93,1.55
		c0,1.03-1.09,1.39-2.03,1.39c-0.78,0-1.57-0.25-2.34-0.78c-0.21-0.14-0.41-0.22-0.6-0.22c-0.35,0-0.73,0.22-0.73,0.87
		c0,0.29,0.11,0.52,0.3,0.65c1.16,0.74,2.19,1.06,3.34,1.06c1.74,0,3.78-0.82,3.78-3.12C52.18,19.86,50.64,19.23,49.17,18.61
		 M60.03,14.22c-0.49,0-0.74,0.29-0.74,0.84v4.26c0,2.39-1.35,3.69-2.61,3.69c-1.03,0-2.09-0.36-2.09-3.07l-0.02-4.92
		c0-0.52-0.27-0.81-0.79-0.81c-0.51,0-0.78,0.29-0.78,0.81v5.48c0,1.39,0.36,2.47,1.09,3.21c0.62,0.63,1.46,0.95,2.44,0.95
		c1.03,0,2-0.54,2.71-1.5v0.7c0,0.48,0.29,0.74,0.82,0.74c0.51,0,0.78-0.25,0.78-0.73v-8.84C60.81,14.52,60.53,14.22,60.03,14.22
		 M73.13,23.14c-1.92,0-2.77-1.84-2.77-3.71c0-1.82,0.87-3.78,2.77-3.78c0.93,0,2.52,0.81,2.52,3.85
		C75.65,21.21,74.98,23.14,73.13,23.14 M73.05,14.08c-1.06,0-2.17,0.67-2.76,1.55v-4.47c0-0.55-0.27-0.84-0.79-0.84
		s-0.79,0.24-0.79,0.79v12.64c0,0.55,0.27,0.87,0.78,0.87c0.46,0,0.82-0.36,0.82-0.86v-0.44c0.6,0.84,1.62,1.35,2.76,1.35
		c1.31,0,2.42-0.57,3.2-1.66c0.68-0.95,1.06-2.19,1.06-3.55C77.3,16.79,75.84,14.08,73.05,14.08 M30.5,23.14
		c-1.03,0-2.14-0.44-2.14-1.68c0-0.76,0.6-1.66,2.26-1.66c1.22,0,2.49,0.59,2.49,1.55C33.13,22.47,31.8,23.14,30.5,23.14
		 M31.04,14.08c-1.12,0-2.09,0.17-2.98,0.54c-0.33,0.14-0.59,0.46-0.59,0.78c0,0.43,0.29,0.7,0.74,0.7c0.24,0,0.51-0.08,0.82-0.16
		c0.43-0.13,0.95-0.27,1.62-0.27c1.54,0,2.5,0.73,2.5,1.88V19c-0.6-0.44-1.54-0.71-2.52-0.71c-1.93,0-3.88,1.12-3.88,3.28
		c0,2.14,1.82,3.1,3.53,3.1c1.09,0,2.12-0.38,2.87-1.05c0,0.06,0,0.02,0.02,0.13c0.02,0.38,0.27,0.86,0.79,0.86
		c0.52,0,0.79-0.35,0.79-0.74v-6.45C34.76,15.39,33.29,14.08,31.04,14.08 M66.56,14.08c-1.2,0-2.26,0.51-2.93,1.38v-0.4
		c0-0.55-0.27-0.84-0.79-0.84c-0.51,0-0.78,0.3-0.78,0.84v8.77c0,0.51,0.27,0.79,0.78,0.79c0.52,0,0.79-0.29,0.79-0.79v-5.67
		c0-1.3,1.28-2.42,2.33-2.42c0.3,0,0.48,0.03,0.65,0.06c0.16,0.03,0.32,0.06,0.55,0.06c0.46,0,0.84-0.38,0.84-0.84
		C68,14.6,67.62,14.08,66.56,14.08 M40.16,14.08c-1.03,0-1.9,0.43-2.5,1.19v-0.22c0-0.55-0.27-0.84-0.79-0.84
		c-0.51,0-0.78,0.3-0.78,0.84v8.77c0,0.51,0.27,0.79,0.78,0.79c0.51,0,0.79-0.29,0.79-0.79v-5.67c0-1.73,1.19-2.5,2.28-2.5
		c1.52,0,2.22,1.3,2.22,2.5v5.67c0,0.51,0.27,0.79,0.78,0.79c0.51,0,0.79-0.29,0.79-0.79v-6.21C43.74,15.41,41.92,14.08,40.16,14.08
		 M91.42,14.08c-1.03,0-1.9,0.43-2.49,1.19v-0.22c0-0.55-0.27-0.84-0.79-0.84c-0.51,0-0.78,0.3-0.78,0.84v8.77
		c0,0.51,0.29,0.79,0.78,0.79c0.51,0,0.79-0.29,0.79-0.79v-5.67c0-1.73,1.19-2.5,2.28-2.5c1.52,0,2.22,1.3,2.22,2.5v5.67
		c0,0.51,0.29,0.79,0.78,0.79c0.51,0,0.79-0.29,0.79-0.79v-6.21C95,15.41,93.19,14.08,91.42,14.08 M24.97,14.08
		c-1.2,0-2.26,0.51-2.93,1.38v-0.4c0-0.55-0.27-0.84-0.79-0.84c-0.51,0-0.78,0.3-0.78,0.84v8.77c0,0.51,0.29,0.79,0.79,0.79
		s0.79-0.29,0.79-0.79v-5.67c0-1.3,1.28-2.42,2.33-2.42c0.3,0,0.48,0.03,0.65,0.06c0.16,0.03,0.32,0.06,0.55,0.06
		c0.46,0,0.84-0.38,0.84-0.84C26.4,14.6,26.03,14.08,24.97,14.08 M21.17,11.07h-8.23c-0.51,0-0.78,0.29-0.78,0.79
		s0.29,0.79,0.78,0.79h3.33v11.18c0,0.51,0.29,0.79,0.79,0.79c0.51,0,0.79-0.29,0.79-0.79V12.65h3.33c0.51,0,0.78-0.29,0.78-0.79
		S21.68,11.07,21.17,11.07"/>
</g>
</svg>
