<?xml version="1.0" encoding="utf-8"?>
<!-- Generator: Adobe Illustrator 26.0.1, SVG Export Plug-In . SVG Version: 6.00 Build 0)  -->
<svg version="1.1" id="Layer_1" xmlns="http://www.w3.org/2000/svg" xmlns:xlink="http://www.w3.org/1999/xlink" x="0px" y="0px"
	 viewBox="0 0 95 35" style="enable-background:new 0 0 95 35;" xml:space="preserve">
<style type="text/css">
	.st0{fill:#343741;}
</style>
<g>
	<g>
		<path class="st0" d="M38.54,2.71h-5.61c-0.42,0-0.77,0.35-0.77,0.77v0.06c0,0.42,0.35,0.77,0.77,0.77h2.04v10.94v0.04
			c0,0.42,0.35,0.77,0.77,0.77h0.03c0.42,0,0.77-0.35,0.77-0.77v-0.04l0,0l0-10.94h2c0.42,0,0.77-0.35,0.77-0.77V3.48
			C39.31,3.05,38.97,2.71,38.54,2.71z"/>
		<path class="st0" d="M73.94,2.71h-5.61c-0.42,0-0.77,0.35-0.77,0.77v0.06c0,0.42,0.35,0.77,0.77,0.77h2.04v10.98
			c0,0.42,0.35,0.77,0.77,0.77h0.03c0.42,0,0.77-0.35,0.77-0.77V4.31h2c0.42,0,0.77-0.35,0.77-0.77V3.48
			C74.71,3.05,74.36,2.71,73.94,2.71z"/>
		<path class="st0" d="M94.97,14.74L91.45,3.09c-0.11-0.38-0.49-0.57-0.85-0.57c-0.37,0-0.74,0.19-0.85,0.57l-3.51,11.65
			c-0.03,0.08-0.04,0.17-0.03,0.25c-0.01,0.35,0.21,0.67,0.55,0.77c0.41,0.12,0.85-0.12,0.98-0.54l0.71-2.37c0,0,4.3,0,4.31,0
			l0.71,2.37c0.13,0.42,0.57,0.66,0.98,0.54c0.34-0.1,0.56-0.43,0.55-0.77C95,14.91,94.99,14.82,94.97,14.74z M88.94,11.22
			l1.66-5.51l1.66,5.51H88.94z"/>
		<path class="st0" d="M48.18,2.67l-6.02,0c-0.42,0-0.77,0.35-0.77,0.77v11.85c0,0.42,0.35,0.77,0.77,0.77h6.02
			c0.42,0,0.77-0.35,0.77-0.77v-0.06c0-0.42-0.35-0.77-0.77-0.77h-5.22V9.84h3.64c0.42,0,0.77-0.35,0.77-0.77V9.01
			c0-0.42-0.35-0.77-0.77-0.77l-3.64,0V4.27h5.22c0.42,0,0.77-0.35,0.77-0.77V3.44C48.95,3.02,48.61,2.67,48.18,2.67z"/>
		<path class="st0" d="M56.89,14.42l-4.34,0V3.44c0-0.42-0.35-0.77-0.77-0.77h-0.03c-0.42,0-0.77,0.35-0.77,0.77v11.85
			c0,0.42,0.35,0.77,0.77,0.77h5.13c0.42,0,0.77-0.35,0.77-0.77v-0.1C57.66,14.77,57.31,14.42,56.89,14.42z"/>
		<path class="st0" d="M84.43,6.46c0-1.07-0.46-2.07-1.29-2.79c-0.68-0.59-1.56-0.96-2.3-0.96h-3.31c-0.45,0-0.77,0.47-0.77,0.89
			v11.69c0,0.42,0.35,0.77,0.77,0.77h0.03c0.42,0,0.77-0.35,0.77-0.77v-4.95h1.94l2.41,5.26c0.18,0.38,0.63,0.55,1.02,0.37
			l0.03-0.01c0.29-0.14,0.46-0.43,0.44-0.74c0-0.11-0.02-0.22-0.07-0.32l-2.2-4.81C83.09,9.58,84.43,8.29,84.43,6.46z M82.01,8.09
			c-0.5,0.45-1,0.6-1.15,0.6h-2.53V4.34h2.51c0.58,0,1.95,0.72,1.95,2.12C82.8,7.22,82.37,7.77,82.01,8.09z"/>
		<path class="st0" d="M62.85,8.3c-1.58-0.75-2.37-1.5-2.37-2.25c0-0.73,0.57-1.88,2.1-1.88c1.39,0,1.91,1.26,1.96,1.49
			c0.02,0.44,0.38,0.79,0.82,0.79c0.45,0,0.82-0.37,0.82-0.82c0-0.51-0.34-1.26-0.84-1.83c-0.5-0.58-1.38-1.26-2.75-1.26
			c-1.44,0-2.32,0.64-2.81,1.18c-0.59,0.65-0.92,1.5-0.92,2.33c0,1.45,1.08,2.67,3.31,3.72c1.04,0.49,1.76,1.01,2.14,1.54
			c0.31,0.44,0.35,0.83,0.35,1.16c0,0.33-0.12,0.87-0.46,1.3c-0.38,0.49-0.95,0.73-1.69,0.73c-1.8,0-2.29-1.7-2.29-1.92
			c0-0.45-0.37-0.82-0.82-0.82s-0.82,0.37-0.82,0.82c0,0.53,0.27,1.4,0.88,2.14c0.53,0.65,1.48,1.42,3.04,1.42
			c1.59,0,2.5-0.74,2.98-1.37c0.5-0.65,0.8-1.51,0.8-2.31C66.28,10.72,65.22,9.42,62.85,8.3z"/>
	</g>
	<g>
		<path class="st0" d="M6.1,4.26C6.26,3.51,6.95,2.9,7.73,2.89c6.06,0,12.12,0,18.18,0c-0.22,1.18-0.43,2.36-0.65,3.54
			c-0.07,0.39-0.12,0.81-0.34,1.15c-0.3,0.5-0.87,0.82-1.46,0.82c-1.61,0-3.22,0-4.82,0c-0.39,2.24-0.76,4.48-1.15,6.72
			c-0.04,0.27-0.12,0.54-0.12,0.82c-0.02,0.07-0.05,0.14-0.06,0.22c-0.37,2.16-0.73,4.31-1.1,6.47c-0.08,0.44-0.27,0.88-0.62,1.17
			c-0.34,0.29-0.81,0.4-1.25,0.36c-1.73,0-3.45,0-5.18,0c0.73-4.1,1.49-8.2,2.23-12.31c0.2-1.15,0.42-2.3,0.62-3.45
			c-2.22,0-4.45,0.01-6.67-0.01C5.59,7.02,5.83,5.64,6.1,4.26z"/>
	</g>
	<g>
		<path class="st0" d="M3.04,10.43c0.94-0.27,1.93-0.32,2.9-0.22c1.89,0.21,3.71,0.85,5.44,1.63c-0.74,4.1-1.5,8.2-2.23,12.31
			c1.73,0.01,3.45,0,5.18,0c0.44,0.04,0.9-0.07,1.25-0.36c0.35-0.29,0.54-0.73,0.62-1.17c0.37-2.16,0.74-4.31,1.1-6.47
			c0.01-0.08,0.04-0.15,0.06-0.22c0.1,0.04,0.18,0.13,0.26,0.2c1.29,1.14,2.48,2.4,3.53,3.76c1.03,1.35,1.95,2.8,2.6,4.37
			c0.42,1.01,0.74,2.08,0.82,3.18c0.04,0.73,0.01,1.48-0.23,2.18c-0.23,0.72-0.69,1.36-1.29,1.82c-0.66,0.53-1.48,0.82-2.31,0.94
			c-1.02,0.15-2.07,0.06-3.08-0.13c-1.98-0.38-3.86-1.17-5.62-2.13c-2.85-1.57-5.44-3.63-7.59-6.07c-1.32-1.5-2.48-3.16-3.33-4.97
			C0.51,17.77,0.05,16.33,0,14.85c-0.03-0.99,0.2-2.01,0.78-2.82C1.31,11.25,2.14,10.69,3.04,10.43z"/>
	</g>
</g>
</svg>
