<?xml version="1.0" encoding="utf-8"?>
<!-- Generator: Adobe Illustrator 26.0.1, SVG Export Plug-In . SVG Version: 6.00 Build 0)  -->
<svg version="1.1" id="Layer_1" xmlns="http://www.w3.org/2000/svg" xmlns:xlink="http://www.w3.org/1999/xlink" x="0px" y="0px"
	 viewBox="0 0 95 35" style="enable-background:new 0 0 95 35;" xml:space="preserve">
<style type="text/css">
	.st0{fill:#CCCCCC;}
</style>
<path class="st0" d="M32.99,26.27v2.47c0,0.05,0.01,0.09,0.03,0.11c0.02,0.03,0.06,0.05,0.12,0.06v0.08h-1.02v-0.08
	c0.06-0.02,0.1-0.04,0.12-0.06c0.02-0.03,0.03-0.06,0.03-0.11v-2.47h-1.01c-0.05,0-0.08,0.01-0.11,0.03
	c-0.03,0.02-0.05,0.06-0.06,0.12h-0.08v-0.84h0.08c0.02,0.06,0.04,0.1,0.06,0.12c0.02,0.02,0.06,0.03,0.11,0.03H34
	c0.05,0,0.09-0.01,0.11-0.03c0.03-0.02,0.05-0.06,0.06-0.12h0.08v0.84h-0.08c-0.02-0.06-0.04-0.1-0.06-0.12
	c-0.03-0.02-0.06-0.03-0.11-0.03H32.99z"/>
<path class="st0" d="M36.12,27.66v1.08c0,0.05,0.01,0.08,0.03,0.11c0.02,0.03,0.06,0.05,0.12,0.06v0.08h-1.02v-0.08
	c0.06-0.02,0.1-0.04,0.12-0.06c0.02-0.03,0.03-0.06,0.03-0.11v-2.76c0-0.05-0.01-0.09-0.03-0.11c-0.02-0.03-0.06-0.05-0.12-0.06
	v-0.08h2.04c0.25,0,0.44,0.01,0.59,0.04c0.15,0.03,0.27,0.08,0.38,0.15c0.13,0.08,0.22,0.19,0.28,0.34
	c0.06,0.14,0.09,0.28,0.09,0.44c0,0.53-0.3,0.84-0.88,0.93l0.63,0.9c0.11,0.16,0.19,0.26,0.24,0.3c0.05,0.05,0.11,0.07,0.19,0.07
	v0.08h-1.18v-0.08c0.08-0.01,0.12-0.04,0.12-0.09c0-0.03-0.04-0.1-0.11-0.21l-0.66-0.96H36.12z M36.12,27.13h1.1
	c0.16,0,0.28,0,0.34-0.01s0.13-0.03,0.18-0.06c0.12-0.07,0.18-0.18,0.18-0.35c0-0.17-0.06-0.29-0.18-0.35
	c-0.06-0.03-0.12-0.05-0.18-0.06c-0.06-0.01-0.18-0.01-0.34-0.01h-1.1V27.13z"/>
<path class="st0" d="M40.67,27.56v0.89h2.09c0.05,0,0.08-0.01,0.11-0.03c0.03-0.02,0.05-0.06,0.06-0.12h0.08v0.84h-0.08
	c-0.02-0.06-0.04-0.1-0.06-0.12c-0.03-0.02-0.06-0.03-0.11-0.03h-2.96v-0.08c0.06-0.02,0.1-0.04,0.12-0.06
	c0.02-0.03,0.03-0.06,0.03-0.11v-2.75c0-0.05-0.01-0.09-0.03-0.11c-0.02-0.03-0.06-0.05-0.12-0.06v-0.08h2.9
	c0.05,0,0.08-0.01,0.11-0.03c0.03-0.02,0.05-0.06,0.06-0.12h0.08v0.84h-0.08c-0.02-0.06-0.04-0.1-0.06-0.12
	c-0.03-0.02-0.06-0.03-0.11-0.03h-2.04v0.77h1.32c0.05,0,0.08-0.01,0.11-0.03c0.03-0.02,0.05-0.06,0.06-0.12h0.08v0.82h-0.08
	c-0.02-0.06-0.04-0.1-0.06-0.12c-0.03-0.02-0.06-0.03-0.11-0.03H40.67z"/>
<path class="st0" d="M46.24,28.16h-1.48l-0.22,0.46c-0.03,0.06-0.05,0.11-0.05,0.15c0,0.07,0.05,0.12,0.16,0.15v0.08h-1.08v-0.08
	c0.06-0.01,0.11-0.03,0.15-0.07c0.03-0.03,0.07-0.09,0.11-0.19l1.2-2.5c0.04-0.08,0.06-0.14,0.06-0.19c0-0.07-0.05-0.13-0.14-0.16
	v-0.08h1.15v0.08c-0.09,0.03-0.14,0.07-0.14,0.14c0,0.05,0.02,0.1,0.05,0.16l1.24,2.51c0.05,0.11,0.1,0.18,0.14,0.22
	c0.04,0.04,0.09,0.06,0.16,0.08v0.08h-1.2v-0.08c0.11-0.02,0.16-0.07,0.16-0.15c0-0.03-0.02-0.08-0.05-0.15L46.24,28.16z
	 M46.04,27.72l-0.53-1.16l-0.54,1.16H46.04z"/>
<path class="st0" d="M51.15,26.01l-0.39,0.77l-0.07-0.04c0-0.02,0-0.03,0-0.04c0-0.05-0.05-0.11-0.14-0.17c-0.28-0.2-0.61-0.3-1-0.3
	c-0.17,0-0.32,0.02-0.45,0.06c-0.09,0.03-0.17,0.08-0.23,0.14c-0.06,0.06-0.09,0.13-0.09,0.21c0,0.12,0.07,0.21,0.22,0.25
	c0.08,0.02,0.24,0.05,0.49,0.07L49.88,27c0.22,0.02,0.4,0.06,0.54,0.1c0.14,0.04,0.26,0.1,0.37,0.17c0.11,0.08,0.19,0.18,0.26,0.31
	c0.06,0.13,0.09,0.26,0.09,0.41c0,0.23-0.07,0.43-0.22,0.61c-0.13,0.16-0.34,0.28-0.62,0.36c-0.21,0.06-0.43,0.09-0.67,0.09
	c-0.43,0-0.86-0.1-1.28-0.31c-0.09-0.04-0.14-0.06-0.16-0.06c-0.02,0-0.05,0.02-0.1,0.05l-0.07-0.04l0.35-0.8l0.07,0.03v0.03
	c0,0.07,0.03,0.14,0.1,0.2c0.1,0.09,0.26,0.17,0.48,0.24c0.22,0.07,0.42,0.1,0.61,0.1c0.21,0,0.39-0.04,0.54-0.11
	c0.08-0.04,0.15-0.09,0.2-0.16c0.05-0.07,0.07-0.13,0.07-0.21c0-0.11-0.06-0.18-0.17-0.23c-0.08-0.03-0.24-0.06-0.49-0.09
	l-0.37-0.04c-0.25-0.03-0.42-0.05-0.52-0.07c-0.1-0.02-0.2-0.06-0.3-0.11c-0.14-0.07-0.26-0.18-0.34-0.32
	c-0.07-0.13-0.11-0.28-0.11-0.44c0-0.28,0.09-0.5,0.28-0.68c0.25-0.24,0.62-0.36,1.12-0.36c0.21,0,0.4,0.02,0.58,0.06
	c0.18,0.04,0.4,0.12,0.67,0.23c0.09,0.04,0.15,0.05,0.17,0.05c0.03,0,0.07-0.02,0.12-0.05L51.15,26.01z"/>
<path class="st0" d="M55.55,25.99v1.82c0,0.34-0.06,0.6-0.19,0.77c-0.23,0.31-0.7,0.46-1.42,0.46c-0.52,0-0.91-0.08-1.19-0.25
	c-0.16-0.1-0.27-0.23-0.33-0.4c-0.06-0.17-0.09-0.36-0.09-0.59v-1.82c0-0.05-0.01-0.09-0.03-0.11s-0.06-0.05-0.12-0.06v-0.08h1.02
	v0.08c-0.06,0.01-0.1,0.03-0.12,0.06c-0.02,0.03-0.03,0.06-0.03,0.11v1.62c0,0.19,0.01,0.33,0.03,0.42
	c0.02,0.09,0.06,0.17,0.12,0.23c0.15,0.16,0.41,0.24,0.78,0.24c0.37,0,0.63-0.08,0.78-0.24c0.06-0.06,0.09-0.14,0.11-0.23
	c0.02-0.09,0.03-0.23,0.03-0.42v-1.62c0-0.05-0.01-0.09-0.03-0.11s-0.06-0.05-0.12-0.06v-0.08h0.96v0.08
	c-0.06,0.02-0.1,0.04-0.12,0.06C55.56,25.9,55.55,25.94,55.55,25.99"/>
<path class="st0" d="M57.62,27.66v1.08c0,0.05,0.01,0.08,0.03,0.11c0.02,0.03,0.06,0.05,0.12,0.06v0.08h-1.02v-0.08
	c0.06-0.02,0.1-0.04,0.12-0.06c0.02-0.03,0.03-0.06,0.03-0.11v-2.76c0-0.05-0.01-0.09-0.03-0.11c-0.02-0.03-0.06-0.05-0.12-0.06
	v-0.08h2.04c0.25,0,0.44,0.01,0.59,0.04c0.15,0.03,0.27,0.08,0.38,0.15c0.13,0.08,0.22,0.19,0.28,0.34
	c0.06,0.14,0.09,0.28,0.09,0.44c0,0.53-0.29,0.84-0.88,0.93l0.63,0.9c0.11,0.16,0.19,0.26,0.24,0.3c0.05,0.05,0.11,0.07,0.19,0.07
	v0.08h-1.18v-0.08c0.08-0.01,0.12-0.04,0.12-0.09c0-0.03-0.04-0.1-0.11-0.21l-0.66-0.96H57.62z M57.62,27.13h1.1
	c0.16,0,0.28,0,0.34-0.01s0.13-0.03,0.18-0.06c0.12-0.07,0.18-0.18,0.18-0.35c0-0.17-0.06-0.29-0.18-0.35
	c-0.06-0.03-0.12-0.05-0.18-0.06c-0.06-0.01-0.18-0.01-0.34-0.01h-1.1V27.13z"/>
<path class="st0" d="M62.87,27.63v1.11c0,0.05,0.01,0.09,0.03,0.11c0.02,0.03,0.06,0.05,0.12,0.06v0.08H62v-0.08
	c0.06-0.02,0.1-0.04,0.12-0.06c0.02-0.03,0.04-0.06,0.04-0.11v-1.11l-1.05-1.48c-0.09-0.13-0.16-0.21-0.21-0.26
	c-0.05-0.04-0.11-0.07-0.18-0.08v-0.08h1.28v0.08c-0.11,0.02-0.16,0.07-0.16,0.15c0,0.03,0.03,0.09,0.1,0.19l0.59,0.87l0.6-0.87
	c0.07-0.09,0.1-0.16,0.1-0.19c0-0.04-0.01-0.07-0.04-0.09c-0.03-0.03-0.07-0.04-0.12-0.05v-0.08h1.26v0.08
	c-0.07,0.01-0.13,0.04-0.18,0.08c-0.05,0.04-0.12,0.13-0.21,0.26L62.87,27.63z"/>
<path class="st0" d="M27.66,32.56l-0.74,1.88c-0.04,0.1-0.06,0.16-0.06,0.18c0,0.07,0.06,0.12,0.18,0.16v0.08h-1.05v-0.08
	c0.11-0.02,0.16-0.07,0.16-0.16c0-0.02-0.02-0.09-0.07-0.21L25.14,32c-0.05-0.12-0.09-0.2-0.13-0.24c-0.04-0.04-0.09-0.07-0.16-0.08
	v-0.08h1.13v0.08c-0.1,0.02-0.15,0.07-0.15,0.14c0,0.04,0.01,0.09,0.04,0.16l0.64,1.72l0.7-1.73c0.03-0.07,0.05-0.12,0.05-0.15
	c0-0.07-0.05-0.12-0.16-0.14v-0.08h1.18v0.08c-0.11,0.03-0.16,0.08-0.16,0.15c0,0.03,0.01,0.07,0.04,0.14l0.66,1.72L29.46,32
	c0.03-0.08,0.05-0.15,0.05-0.19c0-0.07-0.06-0.12-0.17-0.14v-0.08h1.12v0.08c-0.08,0.02-0.13,0.05-0.16,0.09
	c-0.03,0.03-0.07,0.12-0.12,0.24l-0.93,2.4c-0.04,0.11-0.07,0.19-0.07,0.23c0,0.08,0.06,0.13,0.17,0.15v0.08h-1.06v-0.08
	c0.11-0.02,0.17-0.07,0.17-0.16c0-0.03-0.02-0.1-0.07-0.21L27.66,32.56z"/>
<path class="st0" d="M31.36,34.6v-2.76c0-0.05-0.01-0.08-0.03-0.11c-0.02-0.03-0.06-0.05-0.12-0.06v-0.08h1.02v0.08
	c-0.06,0.01-0.1,0.03-0.12,0.06c-0.02,0.03-0.03,0.06-0.03,0.11v2.76c0,0.05,0.01,0.09,0.03,0.11c0.02,0.03,0.06,0.05,0.12,0.06
	v0.08h-1.02v-0.08c0.06-0.02,0.1-0.04,0.12-0.06C31.35,34.68,31.36,34.65,31.36,34.6"/>
<path class="st0" d="M34.12,32.62v1.98c0,0.05,0.01,0.09,0.03,0.11c0.02,0.03,0.06,0.05,0.12,0.06v0.08h-0.96v-0.08
	c0.06-0.02,0.1-0.04,0.12-0.06c0.02-0.03,0.03-0.06,0.03-0.11v-2.76c0-0.05-0.01-0.08-0.03-0.11c-0.02-0.03-0.06-0.05-0.12-0.06
	v-0.08h1.11v0.08c-0.07,0.02-0.1,0.05-0.1,0.11c0,0.04,0.02,0.08,0.07,0.13l1.79,1.87v-1.93c0-0.05-0.01-0.08-0.03-0.11
	c-0.02-0.03-0.06-0.05-0.12-0.06v-0.08h0.96v0.08c-0.06,0.02-0.1,0.04-0.12,0.06c-0.02,0.03-0.03,0.06-0.03,0.11v2.76
	c0,0.05,0.01,0.09,0.03,0.11c0.02,0.03,0.06,0.05,0.12,0.06v0.08h-1.02v-0.08c0.07-0.01,0.1-0.05,0.1-0.1
	c0-0.03-0.04-0.09-0.12-0.17L34.12,32.62z"/>
<path class="st0" d="M38.94,33.42v0.89h2.09c0.05,0,0.08-0.01,0.11-0.03c0.03-0.02,0.05-0.06,0.06-0.12h0.08V35h-0.08
	c-0.02-0.06-0.04-0.1-0.06-0.12c-0.03-0.02-0.06-0.03-0.11-0.03h-2.96v-0.08c0.06-0.02,0.1-0.04,0.12-0.06
	c0.02-0.03,0.03-0.06,0.03-0.11v-2.75c0-0.05-0.01-0.09-0.03-0.11c-0.02-0.03-0.06-0.05-0.12-0.06v-0.08h2.9
	c0.05,0,0.08-0.01,0.11-0.03c0.03-0.02,0.05-0.06,0.06-0.12h0.08v0.84h-0.08c-0.02-0.06-0.04-0.1-0.06-0.12
	c-0.03-0.02-0.06-0.03-0.11-0.03h-2.04v0.77h1.32c0.05,0,0.08-0.01,0.11-0.03c0.03-0.02,0.05-0.06,0.06-0.12h0.08v0.82h-0.08
	c-0.02-0.06-0.04-0.1-0.06-0.12c-0.03-0.02-0.06-0.03-0.11-0.03H38.94z"/>
<path class="st0" d="M44.75,33.42v0.89h2.09c0.05,0,0.08-0.01,0.11-0.03c0.03-0.02,0.05-0.06,0.06-0.12h0.08V35h-0.08
	c-0.02-0.06-0.04-0.1-0.06-0.12c-0.03-0.02-0.06-0.03-0.11-0.03h-2.96v-0.08c0.06-0.02,0.1-0.04,0.12-0.06
	c0.02-0.03,0.03-0.06,0.03-0.11v-2.75c0-0.05-0.01-0.09-0.03-0.11c-0.02-0.03-0.06-0.05-0.12-0.06v-0.08h2.9
	c0.05,0,0.08-0.01,0.11-0.03c0.03-0.02,0.05-0.06,0.06-0.12h0.08v0.84h-0.08c-0.02-0.06-0.04-0.1-0.06-0.12
	c-0.03-0.02-0.06-0.03-0.11-0.03h-2.04v0.77h1.32c0.05,0,0.08-0.01,0.11-0.03c0.03-0.02,0.05-0.06,0.06-0.12h0.08v0.82h-0.08
	c-0.02-0.06-0.04-0.1-0.06-0.12c-0.03-0.02-0.06-0.03-0.11-0.03H44.75z"/>
<path class="st0" d="M51.13,31.87l-0.39,0.77l-0.07-0.04c0-0.02,0-0.03,0-0.04c0-0.05-0.05-0.11-0.14-0.17c-0.28-0.2-0.61-0.3-1-0.3
	c-0.17,0-0.32,0.02-0.45,0.06c-0.09,0.03-0.17,0.08-0.23,0.14c-0.06,0.06-0.09,0.13-0.09,0.21c0,0.12,0.07,0.21,0.22,0.25
	c0.08,0.02,0.24,0.05,0.49,0.07l0.37,0.04c0.22,0.02,0.4,0.06,0.54,0.1c0.14,0.04,0.26,0.1,0.37,0.17c0.11,0.08,0.19,0.18,0.26,0.31
	c0.06,0.13,0.09,0.26,0.09,0.41c0,0.23-0.07,0.43-0.22,0.61c-0.13,0.16-0.34,0.28-0.62,0.36c-0.21,0.06-0.43,0.09-0.67,0.09
	c-0.43,0-0.86-0.1-1.28-0.31c-0.09-0.04-0.14-0.06-0.16-0.06c-0.02,0-0.05,0.02-0.1,0.05l-0.07-0.04l0.35-0.8l0.07,0.03v0.03
	c0,0.07,0.03,0.14,0.1,0.2c0.1,0.09,0.26,0.17,0.48,0.24c0.22,0.07,0.42,0.1,0.61,0.1c0.21,0,0.39-0.04,0.54-0.11
	c0.08-0.04,0.15-0.09,0.2-0.16c0.05-0.07,0.07-0.13,0.07-0.21c0-0.11-0.06-0.18-0.17-0.23c-0.08-0.03-0.24-0.06-0.49-0.09
	l-0.37-0.04c-0.25-0.03-0.42-0.05-0.52-0.07c-0.1-0.02-0.2-0.06-0.3-0.11c-0.14-0.07-0.26-0.18-0.34-0.32
	c-0.07-0.13-0.11-0.28-0.11-0.44c0-0.27,0.09-0.5,0.28-0.68c0.25-0.24,0.62-0.36,1.12-0.36c0.21,0,0.4,0.02,0.58,0.06
	c0.18,0.04,0.4,0.12,0.67,0.23c0.09,0.04,0.15,0.05,0.17,0.05c0.03,0,0.07-0.02,0.12-0.05L51.13,31.87z"/>
<path class="st0" d="M53.64,32.13v2.47c0,0.05,0.01,0.09,0.03,0.11c0.02,0.03,0.06,0.05,0.12,0.06v0.08h-1.02v-0.08
	c0.06-0.02,0.1-0.04,0.12-0.06c0.02-0.03,0.03-0.06,0.03-0.11v-2.47h-1.01c-0.05,0-0.08,0.01-0.11,0.03
	c-0.03,0.02-0.05,0.06-0.06,0.12h-0.08v-0.84h0.08c0.02,0.06,0.04,0.1,0.06,0.12c0.02,0.02,0.06,0.03,0.11,0.03h2.73
	c0.05,0,0.09-0.01,0.11-0.03c0.03-0.02,0.05-0.06,0.06-0.12h0.08v0.84h-0.08c-0.02-0.06-0.04-0.1-0.06-0.12
	c-0.03-0.02-0.06-0.03-0.11-0.03H53.64z"/>
<path class="st0" d="M57.6,34.02h-1.48l-0.22,0.46c-0.03,0.06-0.05,0.11-0.05,0.15c0,0.07,0.05,0.12,0.16,0.15v0.08h-1.08v-0.08
	c0.06-0.01,0.11-0.03,0.15-0.07c0.03-0.03,0.07-0.09,0.11-0.19l1.2-2.5c0.04-0.08,0.06-0.14,0.06-0.19c0-0.07-0.05-0.13-0.14-0.16
	v-0.08h1.15v0.08c-0.09,0.03-0.14,0.07-0.14,0.14c0,0.05,0.02,0.1,0.05,0.16l1.24,2.51c0.05,0.11,0.1,0.18,0.14,0.22
	c0.04,0.04,0.09,0.06,0.16,0.08v0.08h-1.2v-0.08c0.11-0.02,0.16-0.07,0.16-0.15c0-0.03-0.02-0.08-0.05-0.15L57.6,34.02z M57.4,33.57
	l-0.53-1.16l-0.54,1.16H57.4z"/>
<path class="st0" d="M60.91,32.13v2.47c0,0.05,0.01,0.09,0.03,0.11c0.02,0.03,0.06,0.05,0.12,0.06v0.08h-1.02v-0.08
	c0.06-0.02,0.1-0.04,0.12-0.06c0.02-0.03,0.03-0.06,0.03-0.11v-2.47h-1.01c-0.05,0-0.08,0.01-0.11,0.03
	c-0.03,0.02-0.05,0.06-0.06,0.12h-0.08v-0.84h0.08c0.02,0.06,0.04,0.1,0.06,0.12c0.02,0.02,0.06,0.03,0.11,0.03h2.73
	c0.05,0,0.09-0.01,0.11-0.03c0.03-0.02,0.05-0.06,0.06-0.12h0.08v0.84h-0.08c-0.02-0.06-0.04-0.1-0.06-0.12
	c-0.03-0.02-0.06-0.03-0.11-0.03H60.91z"/>
<path class="st0" d="M63.79,33.42v0.89h2.09c0.05,0,0.08-0.01,0.11-0.03c0.03-0.02,0.05-0.06,0.06-0.12h0.08V35h-0.08
	c-0.02-0.06-0.04-0.1-0.06-0.12c-0.03-0.02-0.06-0.03-0.11-0.03h-2.96v-0.08c0.06-0.02,0.1-0.04,0.12-0.06
	c0.02-0.03,0.03-0.06,0.03-0.11v-2.75c0-0.05-0.01-0.09-0.03-0.11c-0.02-0.03-0.06-0.05-0.12-0.06v-0.08h2.9
	c0.05,0,0.08-0.01,0.11-0.03c0.03-0.02,0.05-0.06,0.06-0.12h0.08v0.84H66c-0.02-0.06-0.04-0.1-0.06-0.12
	c-0.03-0.02-0.06-0.03-0.11-0.03h-2.04v0.77h1.32c0.05,0,0.08-0.01,0.11-0.03c0.03-0.02,0.05-0.06,0.06-0.12h0.08v0.82h-0.08
	c-0.02-0.06-0.04-0.1-0.06-0.12c-0.03-0.02-0.06-0.03-0.11-0.03H63.79z"/>
<path class="st0" d="M70.15,31.87l-0.39,0.77l-0.07-0.04c0-0.02,0-0.03,0-0.04c0-0.05-0.05-0.11-0.14-0.17c-0.28-0.2-0.61-0.3-1-0.3
	c-0.17,0-0.32,0.02-0.45,0.06c-0.09,0.03-0.17,0.08-0.23,0.14c-0.06,0.06-0.09,0.13-0.09,0.21c0,0.12,0.07,0.21,0.22,0.25
	c0.08,0.02,0.24,0.05,0.49,0.07l0.37,0.04c0.22,0.02,0.4,0.06,0.54,0.1c0.14,0.04,0.26,0.1,0.37,0.17c0.11,0.08,0.19,0.18,0.26,0.31
	c0.06,0.13,0.09,0.26,0.09,0.41c0,0.23-0.07,0.43-0.22,0.61c-0.13,0.16-0.34,0.28-0.62,0.36c-0.21,0.06-0.43,0.09-0.67,0.09
	c-0.43,0-0.86-0.1-1.28-0.31c-0.09-0.04-0.14-0.06-0.16-0.06c-0.02,0-0.05,0.02-0.1,0.05l-0.07-0.04l0.35-0.8l0.07,0.03v0.03
	c0,0.07,0.03,0.14,0.1,0.2c0.1,0.09,0.26,0.17,0.48,0.24c0.22,0.07,0.42,0.1,0.61,0.1c0.21,0,0.39-0.04,0.54-0.11
	c0.08-0.04,0.15-0.09,0.2-0.16c0.05-0.07,0.07-0.13,0.07-0.21c0-0.11-0.06-0.18-0.17-0.23c-0.08-0.03-0.24-0.06-0.49-0.09
	l-0.37-0.04c-0.25-0.03-0.42-0.05-0.52-0.07c-0.1-0.02-0.2-0.06-0.3-0.11c-0.14-0.07-0.26-0.18-0.34-0.32
	c-0.07-0.13-0.11-0.28-0.11-0.44c0-0.27,0.09-0.5,0.28-0.68c0.25-0.24,0.62-0.36,1.12-0.36c0.21,0,0.4,0.02,0.58,0.06
	c0.18,0.04,0.4,0.12,0.67,0.23c0.09,0.04,0.15,0.05,0.17,0.05c0.03,0,0.07-0.02,0.12-0.05L70.15,31.87z"/>
<g>
	<path class="st0" d="M47.45,11.08c0.02,0.4-0.08,0.7-0.17,1.01c0,0,0,0,0,0c0.08-0.12,0.15-0.27,0.18-0.44
		C47.49,11.47,47.49,11.25,47.45,11.08z"/>
	<path class="st0" d="M47.28,9.83C47.28,9.83,47.28,9.83,47.28,9.83c-0.17,0.05-0.34,0.09-0.5,0.14c0.07,0.04,0.18,0.06,0.27,0.04
		C47.17,10,47.26,9.94,47.28,9.83z"/>
	<path class="st0" d="M46.96,12.2C46.96,12.2,46.96,12.2,46.96,12.2c0.08-0.13,0.14-0.29,0.17-0.47c0.03-0.19,0.01-0.41-0.03-0.58
		c0.02,0.19,0,0.39-0.02,0.56C47.05,11.88,47,12.04,46.96,12.2z"/>
	<path class="st0" d="M49.51,13.92c0.32-0.01,0.64-0.04,0.96-0.01c0.19,0.01,0.37,0.04,0.54,0.09c0.03,0.01,0.07,0.01,0.1,0.02
		c0.05,0.01,0.11,0.02,0.16,0.03c0.02,0,0.04,0.01,0.05,0.01c0.01,0,0.02-0.02,0.03-0.03c0.14-0.15,0.27-0.3,0.4-0.45
		c0,0,0.01-0.01,0.01-0.02c-0.63-0.14-1.27-0.27-1.94-0.37C49.71,13.43,49.61,13.68,49.51,13.92z"/>
	<path class="st0" d="M44.43,11.17c-0.02-0.13-0.05-0.25-0.08-0.38c0.03,0,0.07,0,0.1-0.01c0.02,0.12,0.05,0.24,0.07,0.37
		c0.04-0.01,0.09-0.01,0.13-0.02c-0.02-0.11-0.05-0.23-0.07-0.34c0.12,0,0.24,0,0.37,0c-0.03,0.04-0.01,0.12,0,0.17
		c0.01,0.05,0.04,0.1,0.06,0.13c0.54-0.07,1.1-0.12,1.67-0.15c-0.07-0.29-0.24-0.5-0.48-0.63c-0.02-0.01-0.04-0.02-0.06-0.02
		c-0.19,0.02-0.38,0.04-0.56,0.07c-1.3,0.17-2.5,0.44-3.64,0.77c0.06,0.18,0.13,0.35,0.21,0.51C42.88,11.45,43.63,11.29,44.43,11.17
		z"/>
	<path class="st0" d="M49.19,11.38c0.02-0.08,0.03-0.17,0.03-0.26c-0.06,0.34-0.22,0.57-0.37,0.81c0,0,0,0,0,0
		C49.01,11.79,49.13,11.61,49.19,11.38z"/>
	<path class="st0" d="M44.57,11.85c-0.04-0.2-0.09-0.41-0.13-0.62c-0.77,0.14-1.52,0.32-2.24,0.51c0.08,0.17,0.17,0.34,0.27,0.51
		C43.14,12.1,43.84,11.96,44.57,11.85z"/>
	<path class="st0" d="M48.12,11.51c0.05-0.15,0.07-0.36,0.04-0.54c-0.01,0.38-0.14,0.65-0.25,0.93C48,11.8,48.07,11.66,48.12,11.51z
		"/>
	<path class="st0" d="M48.47,9.48C48.47,9.48,48.47,9.48,48.47,9.48c-0.17,0.05-0.34,0.1-0.51,0.16c0.08,0.04,0.21,0.06,0.32,0.03
		C48.38,9.64,48.45,9.59,48.47,9.48z"/>
	<path class="st0" d="M48.51,10.96c-0.01,0.18-0.05,0.34-0.11,0.48c-0.05,0.14-0.12,0.28-0.18,0.41c0,0,0,0,0,0
		c0.1-0.1,0.18-0.23,0.23-0.37C48.5,11.33,48.53,11.15,48.51,10.96z"/>
	<path class="st0" d="M47.87,9.66c-0.16,0.05-0.34,0.1-0.5,0.15c0.08,0.04,0.21,0.06,0.31,0.03C47.78,9.82,47.85,9.76,47.87,9.66
		C47.87,9.66,47.87,9.66,47.87,9.66z"/>
	<path class="st0" d="M47.59,11.98C47.59,11.98,47.59,11.98,47.59,11.98c0.09-0.11,0.16-0.25,0.2-0.41
		c0.04-0.16,0.05-0.38,0.02-0.55C47.81,11.41,47.69,11.69,47.59,11.98z"/>
	<path class="st0" d="M46.5,10.18c0.1-0.02,0.17-0.08,0.19-0.18h0c-0.17,0.05-0.34,0.1-0.5,0.15C46.26,10.19,46.39,10.21,46.5,10.18
		z"/>
	<path class="st0" d="M49.43,17.29c-0.1,0.07-0.2,0.14-0.3,0.2c-0.01,0.01-0.03,0.02-0.04,0.03c-0.01,0.15,0.06,0.26,0.14,0.32
		c0.04,0.03,0.1,0.06,0.17,0.06c0.08,0.01,0.14-0.01,0.19-0.05c-0.04-0.06-0.08-0.13-0.09-0.23c-0.01-0.1,0.01-0.19,0.05-0.26
		C49.5,17.35,49.47,17.32,49.43,17.29z"/>
	<path class="st0" d="M50.57,16.43c0.02,0.03,0.03,0.06,0.04,0.09c0.07-0.07,0.16-0.12,0.31-0.12c0.02-0.09,0-0.18-0.04-0.24
		C50.79,16.26,50.68,16.35,50.57,16.43z"/>
	<path class="st0" d="M49.99,17.17c0.02-0.03,0.04-0.07,0.05-0.12c-0.05-0.02-0.1-0.06-0.14-0.1c-0.13,0.09-0.26,0.19-0.39,0.28
		c0.02,0.03,0.06,0.04,0.09,0.06C49.69,17.2,49.83,17.13,49.99,17.17z"/>
	<path class="st0" d="M54.77,13.82c0-0.02-0.02-0.03-0.03-0.03c-0.1-0.05-0.21-0.09-0.32-0.11c-0.07-0.01-0.15-0.03-0.22-0.02
		c-0.07,0.01-0.13,0.03-0.18,0.07c-0.1,0.06-0.17,0.16-0.25,0.25c-0.05,0.07-0.11,0.14-0.17,0.21c-0.02,0.02-0.04,0.05-0.07,0.05
		c-0.02,0-0.03-0.05-0.03-0.08c0-0.04,0-0.07,0-0.1c0.01-0.07,0.02-0.12,0.03-0.18c0.02-0.1,0.05-0.19,0.08-0.28
		c0-0.01,0.02-0.03,0.01-0.04c-0.01-0.01-0.03,0-0.05,0c-0.11,0.03-0.2,0.07-0.3,0.11c-0.02,0.01-0.04,0.01-0.05,0.02
		c-0.01,0.01-0.02,0.02-0.02,0.03C53,14,52.77,14.29,52.54,14.55c0.08,0.09,0.19,0.16,0.29,0.24c0.03,0.03,0.07,0.06,0.08,0.1
		c0.01,0.01,0.01,0.03,0,0.05c-0.01,0.05-0.06,0.07-0.13,0.07c-0.06,0-0.12-0.01-0.17-0.01c-0.12,0-0.23,0.02-0.32,0.05
		c-0.14,0.05-0.27,0.1-0.37,0.17c-0.03,0.02-0.06,0.06-0.09,0.09c-0.03,0.03-0.06,0.06-0.09,0.09c-0.01,0.01-0.03,0.03-0.04,0.05
		c-0.03,0.06-0.05,0.13-0.05,0.22c0,0.06,0.01,0.11,0.03,0.16c0.05,0.15,0.14,0.29,0.24,0.4c0.01,0.02,0.03,0.04,0.05,0.04
		c0.03,0,0.04-0.03,0.06-0.04c0.09,0.18,0.21,0.33,0.38,0.44c0.06,0.04,0.12,0.07,0.19,0.08c0.04-0.15,0.1-0.3,0.17-0.43
		c0.02-0.04,0.05-0.09,0.1-0.11c0.01,0,0.03,0,0.04,0c0.03,0.01,0.05,0.07,0.06,0.1c0.05,0.12,0.08,0.24,0.13,0.35
		c0.1,0.22,0.24,0.42,0.53,0.44c0.1,0.01,0.2-0.01,0.29-0.03c0.15-0.03,0.3-0.08,0.43-0.13c0.02-0.01,0.04-0.02,0.05-0.04
		c0-0.03-0.02-0.04-0.02-0.06c0.25-0.05,0.46-0.15,0.63-0.28c0.02-0.01,0.05-0.03,0.06-0.05c0-0.01,0.01,0,0-0.01
		c0,0-0.02-0.01-0.03-0.01c-0.16-0.06-0.31-0.12-0.45-0.18c-0.07-0.03-0.15-0.08-0.22-0.12c-0.05-0.03-0.1-0.07-0.13-0.12
		c-0.01-0.02-0.02-0.05-0.01-0.07c0.01-0.02,0.07,0,0.09,0c0.03,0.01,0.06,0.02,0.08,0.03c0.16,0.06,0.31,0.12,0.49,0.16
		c0.12,0.02,0.28,0.03,0.39,0c0.06-0.02,0.11-0.03,0.16-0.06c0.02-0.01,0.05-0.02,0.08-0.03c0.02-0.01,0.06-0.02,0.07-0.04
		c0.02-0.03-0.01-0.08,0-0.12c0.2-0.07,0.41-0.15,0.59-0.24c-0.13-0.22-0.28-0.41-0.47-0.57c0.01-0.02,0.03-0.03,0.05-0.05
		c0.01-0.01,0.04-0.03,0.04-0.06c0-0.01-0.01-0.02-0.02-0.04c-0.05-0.08-0.1-0.15-0.16-0.22c-0.03-0.04-0.07-0.08-0.12-0.1
		c-0.05-0.03-0.12-0.03-0.19-0.03c-0.14,0.01-0.26,0.03-0.38,0.07c-0.12,0.03-0.23,0.07-0.34,0.1c0.13-0.07,0.26-0.15,0.4-0.23
		c0.12-0.06,0.23-0.13,0.34-0.2c0.01-0.01,0.04-0.02,0.04-0.04c0-0.01-0.02-0.03-0.03-0.04c-0.04-0.03-0.09-0.06-0.12-0.09
		c-0.12-0.07-0.23-0.14-0.35-0.21c-0.06-0.03-0.12-0.07-0.17-0.11C54.72,13.86,54.77,13.86,54.77,13.82z M54.97,14.27
		c-0.08,0.02-0.16,0.05-0.24,0.09c-0.23,0.1-0.46,0.2-0.69,0.3c-0.31,0.13-0.61,0.26-0.89,0.42c0.19,0.04,0.39,0.08,0.59,0.11
		c0.2,0.03,0.39,0.07,0.59,0.11c0.39,0.08,0.77,0.15,1.13,0.25c-0.45,0-0.86-0.05-1.25-0.11c-0.19-0.03-0.38-0.07-0.56-0.12
		c-0.18-0.05-0.35-0.11-0.5-0.19c0.05,0.38,0.26,0.63,0.47,0.86c0.21,0.23,0.47,0.42,0.8,0.53c-0.2-0.02-0.36-0.09-0.51-0.18
		c-0.14-0.08-0.27-0.19-0.38-0.31c-0.11-0.12-0.19-0.27-0.25-0.43c-0.07-0.16-0.13-0.32-0.19-0.49c-0.21,0.13-0.34,0.34-0.45,0.57
		c-0.11,0.23-0.18,0.51-0.22,0.81c-0.04-0.14-0.04-0.34-0.02-0.49c0.05-0.31,0.18-0.54,0.36-0.71c0.09-0.09,0.2-0.16,0.3-0.23
		c-0.04-0.12-0.07-0.28-0.08-0.44c-0.01-0.17,0.02-0.33,0.07-0.45c-0.02,0.31,0.03,0.59,0.07,0.85c0.27-0.16,0.55-0.32,0.84-0.47
		c0.14-0.07,0.29-0.14,0.46-0.2c0.08-0.03,0.16-0.05,0.25-0.07C54.78,14.26,54.88,14.24,54.97,14.27z"/>
	<path class="st0" d="M51.29,16.63c0.11,0,0.18-0.04,0.23-0.1c0.05-0.06,0.09-0.15,0.08-0.25c-0.01-0.1-0.05-0.17-0.11-0.23
		c-0.06-0.05-0.14-0.1-0.24-0.1c-0.13,0.01-0.21,0.08-0.26,0.18c0.04,0.07,0.06,0.19,0.04,0.3C51.15,16.46,51.23,16.54,51.29,16.63z
		"/>
	<path class="st0" d="M50.73,16.56c-0.02,0.01-0.04,0.03-0.05,0.05c-0.02,0.02-0.04,0.04-0.04,0.06c0,0,0,0,0,0
		c0,0.04-0.01,0.09-0.02,0.12c0,0.01-0.01,0.02-0.01,0.03c0,0.02,0,0.04,0.01,0.06c0.02,0.12,0.09,0.21,0.18,0.26
		c0.06,0.03,0.14,0.05,0.21,0.03c0.13-0.03,0.22-0.13,0.24-0.27c0.01-0.08-0.01-0.15-0.04-0.21c-0.03-0.05-0.07-0.1-0.12-0.13
		c-0.05-0.03-0.12-0.06-0.2-0.06C50.82,16.52,50.78,16.54,50.73,16.56z"/>
	<path class="st0" d="M50.16,15.17c0,0-0.03,0-0.04,0.01c-0.22,0.04-0.4,0.11-0.63,0.13c-0.13,0.01-0.26,0.01-0.39,0
		c-0.49-0.05-0.79-0.3-1.3-0.33c-0.13-0.01-0.27,0-0.39,0.01c-0.24,0.03-0.46,0.09-0.69,0.12c-0.12,0.02-0.25,0.03-0.38,0.02
		c-0.26-0.01-0.45-0.09-0.65-0.16c-0.1-0.04-0.2-0.07-0.3-0.1c-0.22-0.06-0.53-0.08-0.82-0.07c0,0,0.01,0.01,0.01,0.01
		c0.06,0.06,0.12,0.11,0.19,0.17c0.18,0.16,0.37,0.32,0.56,0.48c0.02,0.01,0.04,0.03,0.05,0.04c0.02,0.01,0.04,0.01,0.06,0.02
		c0.15,0.04,0.29,0.08,0.44,0.11c0.18,0.03,0.39,0.04,0.58,0.01c0.19-0.02,0.35-0.06,0.52-0.11c0.24-0.07,0.47-0.16,0.77-0.17
		c0.15-0.01,0.3,0.01,0.43,0.04c0.04,0.01,0.09,0.02,0.13,0.03c0.23,0.09,0.47,0.16,0.76,0.19c0.17,0.02,0.36,0.01,0.52-0.01
		c0.02,0,0.05,0,0.07-0.01c0.01,0,0.02-0.02,0.03-0.02c0.15-0.12,0.29-0.24,0.44-0.36C50.13,15.18,50.15,15.17,50.16,15.17z"/>
	<path class="st0" d="M47.4,15.84c-0.14,0.01-0.27,0.03-0.4,0.06c-0.13,0.02-0.26,0.05-0.39,0.07c-0.14,0.01-0.3,0.01-0.42-0.01
		c-0.11-0.02-0.21-0.05-0.31-0.09c-0.01-0.01-0.03-0.01-0.04-0.01c0.08,0.06,0.16,0.12,0.25,0.18c0.24,0.17,0.48,0.33,0.73,0.49
		c0.01,0.01,0.03,0.02,0.04,0.02c0.01,0,0.03-0.01,0.05-0.01c0.24-0.07,0.46-0.16,0.73-0.2c0.15-0.02,0.32-0.02,0.46,0
		c0.12,0.02,0.24,0.05,0.36,0.07c0.02,0,0.04,0.01,0.05,0.01c0.01,0,0.02-0.01,0.03-0.02c0.12-0.08,0.25-0.17,0.37-0.25
		c0,0,0.01-0.01,0.01-0.01c-0.24-0.06-0.45-0.16-0.68-0.23C47.98,15.84,47.69,15.81,47.4,15.84z"/>
	<polygon class="st0" points="45.84,15.85 45.84,15.85 45.84,15.85 	"/>
	<path class="st0" d="M47.14,16.72c0.01,0.01,0.02,0.01,0.02,0.02c0.14,0.08,0.28,0.16,0.42,0.24c0.08-0.04,0.15-0.09,0.23-0.13
		c0.07-0.04,0.15-0.09,0.22-0.14C47.76,16.65,47.41,16.67,47.14,16.72z"/>
	<path class="st0" d="M41.19,12.21c0.22,0.46,0.47,0.88,0.75,1.28c0.41,0.6,0.88,1.15,1.39,1.66c0.85,0.85,1.79,1.6,2.82,2.26
		c0.21,0.13,0.42,0.26,0.63,0.38c0.21,0.12,0.44,0.24,0.66,0.35c0.04,0.02,0.08,0.04,0.12,0.07c0.02,0.01,0.03,0.01,0.03,0.01
		c0.17-0.09,0.34-0.18,0.51-0.27c0.22-0.12,0.43-0.25,0.64-0.38c0.94-0.59,1.8-1.25,2.59-1.98c0.26-0.24,0.52-0.5,0.77-0.76
		c0.08-0.09,0.16-0.17,0.24-0.26c0.24-0.27,0.47-0.55,0.68-0.84c0.57-0.78,1.07-1.64,1.39-2.68c0.08-0.26,0.15-0.53,0.2-0.82
		c0.05-0.29,0.1-0.59,0.11-0.92c0,0,0-7.84,0-8.09c-0.07-0.02-0.11-0.04-0.18-0.06c-0.19-0.06-0.38-0.12-0.58-0.19
		c-0.26-0.08-0.52-0.15-0.79-0.22c-0.13-0.04-0.27-0.07-0.41-0.1c-0.27-0.07-0.55-0.13-0.83-0.19c-1.19-0.25-2.45-0.43-3.85-0.47
		C48,0,47.92,0,47.84,0c-0.17-0.01-0.34,0-0.5,0c-0.08,0-0.16,0-0.24,0.01c-0.08,0-0.16,0.01-0.24,0.01
		c-0.97,0.05-1.86,0.17-2.72,0.32c-0.86,0.15-1.69,0.34-2.48,0.57c-0.26,0.07-0.52,0.16-0.78,0.24c-0.13,0.04-0.27,0.08-0.4,0.12
		v8.1c0.02,0.49,0.09,0.92,0.19,1.34C40.78,11.25,40.97,11.75,41.19,12.21z M40.72,1.46c0.06-0.02,0.12-0.03,0.17-0.05
		c0.19-0.06,0.38-0.12,0.57-0.18c0.26-0.08,0.52-0.15,0.79-0.22c0.54-0.13,1.09-0.26,1.65-0.37c0.99-0.19,2.02-0.33,3.15-0.38
		c0.08,0,0.16,0,0.24-0.01c0.08,0,0.16,0,0.25,0c0.08,0,0.17,0,0.25,0c0.59,0,1.15,0.04,1.68,0.09c0.62,0.06,1.2,0.15,1.78,0.25
		c0.29,0.05,0.57,0.11,0.85,0.17c0.55,0.12,1.09,0.25,1.62,0.41c0.25,0.08,0.5,0.16,0.75,0.24v8.01c-0.02,0.46-0.11,0.88-0.21,1.27
		c-0.1,0.39-0.23,0.75-0.37,1.09c-0.36,0.85-0.86,1.58-1.4,2.25c-0.44,0.54-0.92,1.03-1.43,1.49c-0.38,0.35-0.78,0.68-1.2,0.99
		c-0.42,0.31-0.85,0.61-1.3,0.89c-0.15,0.09-0.3,0.18-0.46,0.27c-0.16,0.09-0.32,0.17-0.47,0.26c-0.01,0-0.01,0.01-0.01,0.01
		c-0.02,0-0.03-0.01-0.05-0.02c-0.14-0.07-0.28-0.15-0.42-0.22c-0.16-0.09-0.31-0.18-0.47-0.27c-0.31-0.18-0.6-0.38-0.89-0.57
		c-1.16-0.8-2.19-1.7-3.08-2.77c-0.38-0.46-0.74-0.97-1.04-1.52c-0.13-0.23-0.25-0.48-0.36-0.73c-0.07-0.17-0.14-0.34-0.2-0.53
		c-0.19-0.54-0.32-1.13-0.37-1.82C40.72,9.49,40.72,1.46,40.72,1.46z"/>
	<path class="st0" d="M54.07,3.75c0,0.25-0.01,0.5-0.01,0.75c0,0.17,0,0.33-0.01,0.5c0,0.25,0,0.5-0.01,0.75c0,0.17,0,0.33-0.01,0.5
		c0,0.08-0.01,0.17-0.01,0.25c0,0.08-0.01,0.17-0.01,0.25c0,0.16-0.01,0.33-0.01,0.5c0,0.25-0.01,0.5-0.01,0.75
		c0,0.25-0.01,0.5-0.01,0.75c0,0.25,0,0.51-0.02,0.75c-0.01,0.08-0.01,0.16-0.02,0.23c-0.07,0.61-0.21,1.14-0.4,1.63
		c-0.18,0.49-0.42,0.94-0.67,1.36c-0.26,0.42-0.54,0.81-0.85,1.18c-0.62,0.74-1.32,1.39-2.06,2.01c0.19-0.15,0.39-0.3,0.57-0.45
		c0.19-0.16,0.37-0.32,0.54-0.48c0.35-0.33,0.69-0.68,1-1.05c0.31-0.37,0.61-0.76,0.88-1.17c0.4-0.63,0.74-1.31,0.96-2.11
		c0.07-0.27,0.13-0.55,0.17-0.86c0.02-0.15,0.03-0.31,0.04-0.47c0.01-0.25,0-0.51,0-0.76c0-0.25-0.01-0.51-0.01-0.76
		c0-0.08,0-0.17,0-0.25c-0.01-0.17,0-0.34-0.01-0.5c0-0.08,0-0.17,0-0.25c0-0.17-0.01-0.33-0.01-0.5c0-0.08,0-0.17-0.01-0.25
		c0-0.17,0-0.34,0-0.51C54.08,4.93,54.07,4.34,54.07,3.75z"/>
	<path class="st0" d="M41.58,11.59c0.21,0.49,0.46,0.93,0.74,1.34c0.56,0.83,1.22,1.56,1.95,2.22c-0.71-0.66-1.35-1.37-1.89-2.22
		c-0.27-0.42-0.5-0.87-0.7-1.35c-0.24-0.61-0.43-1.28-0.48-2.08C41.2,9.33,41.2,9.17,41.2,9V1.81c0.94-0.3,1.95-0.55,3-0.75
		c0.53-0.1,1.07-0.18,1.63-0.24c0.7-0.08,1.45-0.12,2.23-0.11c0.46,0.01,0.9,0.04,1.33,0.08C49.96,0.84,50.5,0.91,51.04,1
		c0.53,0.09,1.06,0.19,1.57,0.31c0.51,0.12,1,0.24,1.47,0.4c0,0,0,0,0,0c-0.47-0.15-0.95-0.3-1.46-0.43
		c-0.25-0.06-0.5-0.12-0.76-0.18c-1.03-0.23-2.11-0.4-3.3-0.47c-0.22-0.01-0.45-0.02-0.69-0.02c-0.08,0-0.16,0-0.23,0
		c-0.04,0-0.08,0-0.12,0c-0.12,0.01-0.24,0-0.35,0.01c-0.16,0.01-0.31,0.01-0.46,0.02c-0.3,0.02-0.6,0.04-0.89,0.07
		c-1.16,0.13-2.23,0.32-3.26,0.57c-0.52,0.13-1.03,0.26-1.52,0.42V9c0,0.35,0.01,0.68,0.06,0.98C41.21,10.57,41.37,11.1,41.58,11.59
		z"/>
	<path class="st0" d="M51.74,17.54L51.74,17.54c-0.07,0.05-0.18,0.09-0.3,0.07c-0.01,0-0.04-0.01-0.04-0.01
		c-0.01,0.01,0,0.03,0,0.05c0.02,0.13-0.02,0.24-0.08,0.31c0.05,0.13,0.14,0.22,0.3,0.23c-0.06-0.08-0.11-0.22-0.08-0.37
		C51.57,17.68,51.65,17.59,51.74,17.54z"/>
	<path class="st0" d="M41.57,5.36c0.56-0.16,1.14-0.29,1.73-0.41c-0.29-0.04-0.58-0.08-0.86-0.13c0.2-0.14,0.4-0.28,0.6-0.41h0
		c-0.5,0.12-0.99,0.25-1.46,0.4V5.36z"/>
	<path class="st0" d="M41.57,6.06c0.67-0.19,1.36-0.34,2.08-0.48C43.67,5.39,43.68,5.2,43.69,5c-0.04,0-0.09-0.02-0.13-0.02
		c0,0,0,0,0,0c-0.68,0.15-1.35,0.32-1.99,0.52V6.06z"/>
	<path class="st0" d="M46.23,4.67c-0.24-0.16-0.49-0.32-0.74-0.48c-0.01-0.01-0.04-0.03-0.05-0.03c-0.01,0-0.03,0-0.05,0.01
		c-0.24,0.03-0.49,0.05-0.72,0.08C45.19,4.39,45.71,4.53,46.23,4.67C46.23,4.67,46.23,4.67,46.23,4.67z"/>
	<path class="st0" d="M41.57,6.76c1.15-0.31,2.35-0.57,3.66-0.72c0,0,0-0.01-0.01-0.01C45,5.82,44.77,5.61,44.54,5.4c0,0,0,0,0,0
		c-0.3,0.28-0.6,0.57-0.91,0.85c0,0-0.01,0.01-0.02,0.01c0.01-0.2,0.03-0.4,0.04-0.6C42.95,5.82,42.26,6,41.6,6.2
		c-0.01,0-0.02,0.01-0.03,0.01V6.76z"/>
	<path class="st0" d="M41.58,3.4c0,0.18,0,0.37,0,0.55c0.51-0.15,1.05-0.27,1.6-0.39c-0.1-0.17-0.2-0.35-0.31-0.53
		C42.43,3.15,41.99,3.27,41.58,3.4z"/>
	<path class="st0" d="M41.58,4.65c0.5-0.14,1.04-0.27,1.57-0.38c0.04-0.01,0.07-0.01,0.11-0.02c0,0,0,0,0,0
		c0.02-0.01,0.04-0.03,0.06-0.04c0.06-0.04,0.12-0.08,0.17-0.12c-0.09-0.14-0.17-0.29-0.26-0.44c-0.56,0.13-1.12,0.28-1.65,0.45
		V4.65z"/>
	<path class="st0" d="M49.51,3.59c0.07,0.01,0.14,0.02,0.22,0.03c-0.01-0.03-0.02-0.07-0.03-0.1c-0.13,0-0.28-0.01-0.38,0.03
		C49.36,3.57,49.44,3.58,49.51,3.59z"/>
	<path class="st0" d="M49.3,4.49c0.02,0.02,0.05,0.03,0.08,0.04c0.1,0.03,0.22,0.04,0.34,0.04c0-0.03,0.01-0.05,0.02-0.08
		c-0.08-0.02-0.17-0.02-0.27-0.03C49.4,4.47,49.34,4.46,49.3,4.49z"/>
	<path class="st0" d="M49.3,4.02c0.05,0.04,0.13,0.05,0.2,0.06c0.07,0.02,0.15,0.03,0.23,0.03c0-0.03,0.01-0.07,0.01-0.1
		c-0.05-0.01-0.11-0.01-0.17-0.01C49.48,4,49.37,3.99,49.3,4.02z"/>
	<path class="st0" d="M44.12,2.76c-0.4,0.08-0.81,0.17-1.19,0.26c0.37,0.12,0.75,0.23,1.13,0.34c0.08-0.2,0.16-0.41,0.24-0.62
		c0-0.01,0.01-0.02,0-0.02C44.24,2.74,44.18,2.75,44.12,2.76z"/>
	<path class="st0" d="M44.97,3.49c-0.12,0.22-0.24,0.44-0.35,0.65c0.42-0.31,0.84-0.63,1.25-0.94C45.57,3.3,45.27,3.4,44.97,3.49z"
		/>
	<path class="st0" d="M41.57,7.36c0.89-0.23,1.8-0.42,2.76-0.57c0.96-0.15,1.97-0.26,3.06-0.28v-5.4c-1.1,0.03-2.11,0.16-3.07,0.33
		c-0.48,0.09-0.95,0.19-1.41,0.29c-0.44,0.1-0.88,0.22-1.3,0.35c-0.01,0-0.03,0-0.04,0.01c0,0.15,0,0.3,0,0.45
		c1.6-0.44,3.32-0.76,5.26-0.85c-1.46,0.1-2.78,0.35-4.04,0.66c-0.42,0.1-0.82,0.22-1.22,0.34c0,0,0,0,0,0v0.55
		c0.88-0.24,1.79-0.44,2.76-0.6c0.06-0.16,0.12-0.31,0.18-0.47c0.06,0.14,0.11,0.28,0.17,0.42c0.69-0.1,1.42-0.16,2.15-0.21
		c-0.75,0.05-1.45,0.14-2.13,0.26c0.09,0.24,0.19,0.47,0.28,0.71c0.4-0.13,0.81-0.25,1.21-0.38c-0.03,0.06-0.06,0.11-0.09,0.16
		c0,0,0,0,0,0c0.24-0.02,0.49-0.04,0.73-0.05c-0.25,0.02-0.5,0.04-0.74,0.06c-0.13,0.23-0.27,0.47-0.4,0.7
		c0,0.01-0.01,0.02-0.01,0.02c0.38-0.04,0.76-0.07,1.15-0.09c-0.4,0.03-0.79,0.07-1.17,0.11c-0.03,0.06-0.07,0.11-0.1,0.17
		c0.21,0.14,0.43,0.28,0.64,0.43c0.01,0.01,0.03,0.03,0.04,0.03c0,0,0,0,0.01,0c0.18-0.01,0.39-0.03,0.58-0.04
		c-0.19,0.01-0.38,0.03-0.57,0.05c0.11,0.08,0.25,0.16,0.36,0.24c-0.42,0.07-0.84,0.13-1.25,0.2c0.01,0.11,0.02,0.22,0.03,0.33
		c0.47-0.05,0.95-0.09,1.44-0.12c-0.5,0.03-0.97,0.08-1.44,0.15c0.02,0.22,0.04,0.44,0.05,0.67c0.45-0.04,0.92-0.08,1.38-0.11
		c-0.48,0.03-0.93,0.08-1.38,0.14c0.01,0.07,0.01,0.14,0.02,0.21c-0.03-0.02-0.06-0.06-0.1-0.09c-0.02-0.02-0.05-0.05-0.08-0.07
		c-0.01-0.01-0.02-0.02-0.03-0.02c0,0,0,0,0,0c-0.02,0-0.04,0.01-0.06,0.01c-0.31,0.04-0.61,0.1-0.91,0.15
		c-0.95,0.18-1.87,0.4-2.73,0.67V7.36z"/>
	<path class="st0" d="M45.18,4.89c-0.04-0.04-0.08-0.07-0.11-0.11c-0.15-0.15-0.3-0.29-0.45-0.43c0.24,0.51,0.47,1.02,0.71,1.52
		c-0.03-0.29-0.07-0.59-0.1-0.89c0-0.02,0-0.04-0.01-0.06C45.21,4.92,45.19,4.91,45.18,4.89z"/>
	<path class="st0" d="M43.72,4.89c0.02,0,0.05,0.01,0.06,0.01c0.01,0,0.03-0.03,0.04-0.04c0.2-0.19,0.41-0.38,0.61-0.57c0,0,0,0,0,0
		c-0.54,0.16-1.08,0.32-1.62,0.48C43.11,4.81,43.42,4.85,43.72,4.89z"/>
	<path class="st0" d="M53.61,4.12c-0.32-0.1-0.64-0.19-0.97-0.28c0,0,0,0,0,0c0.02,0.19,0.01,0.4-0.02,0.57
		c0.34,0.08,0.67,0.16,0.99,0.25C53.61,4.48,53.61,4.3,53.61,4.12z"/>
	<path class="st0" d="M52.6,4.53c-0.02,0.1-0.05,0.2-0.09,0.29c-0.04,0.08-0.08,0.16-0.14,0.22c0,0-0.01,0.01-0.01,0.01
		c0.43,0.1,0.85,0.2,1.26,0.32c0-0.18,0-0.37,0-0.55C53.28,4.72,52.94,4.62,52.6,4.53C52.6,4.53,52.6,4.53,52.6,4.53z"/>
	<path class="st0" d="M44.14,3.48c0.12,0.22,0.24,0.44,0.36,0.66c0,0,0,0.01,0,0c0-0.52-0.01-1.05-0.01-1.56
		C44.37,2.87,44.26,3.17,44.14,3.48z"/>
	<path class="st0" d="M50.35,11.82c0.81,0.11,1.58,0.26,2.33,0.44c0.1-0.16,0.19-0.33,0.27-0.51c-1.05-0.29-2.16-0.53-3.34-0.69
		c0,0,0,0,0,0c-0.05,0.24-0.15,0.45-0.27,0.62c0,0-0.01,0.01-0.01,0.02c0.3,0.03,0.6,0.06,0.89,0.1c0.12-0.14,0.24-0.3,0.36-0.45
		c0.03,0.02,0.05,0.04,0.08,0.06c-0.1,0.13-0.21,0.26-0.31,0.39C50.35,11.81,50.34,11.81,50.35,11.82z"/>
	<path class="st0" d="M48.53,11.84c0.1-0.09,0.19-0.21,0.25-0.35c0.06-0.14,0.1-0.31,0.09-0.5C48.82,11.34,48.67,11.59,48.53,11.84
		C48.53,11.84,48.53,11.84,48.53,11.84z"/>
	<path class="st0" d="M53.43,10.48c-1.28-0.38-2.63-0.69-4.1-0.87c0.12,0.21,0.22,0.44,0.28,0.71c0.49,0.05,0.96,0.11,1.42,0.19
		c-0.03-0.06-0.07-0.11-0.1-0.17c0.1,0.03,0.2,0.06,0.3,0.09c0.04-0.1,0.07-0.19,0.11-0.29c0.04,0.1,0.08,0.19,0.12,0.29
		c0.1-0.03,0.2-0.06,0.3-0.09c-0.05,0.09-0.1,0.18-0.15,0.27c0.03,0.02,0.07,0.02,0.1,0.03c0.53,0.1,1.06,0.23,1.56,0.36
		C53.33,10.83,53.38,10.66,53.43,10.48z"/>
	<path class="st0" d="M53.22,11.13c-0.45-0.13-0.92-0.25-1.4-0.36c0.01,0.01,0.03,0.02,0.04,0.03c-0.1,0.02-0.2,0.03-0.31,0.05
		c0.01,0.1,0.02,0.21,0.03,0.31c-0.08-0.07-0.15-0.14-0.23-0.21c-0.07,0.06-0.13,0.13-0.2,0.19c-0.01,0.01-0.02,0.02-0.03,0.02
		c0.01-0.1,0.01-0.21,0.02-0.31c-0.1-0.02-0.21-0.03-0.31-0.05c0.07-0.05,0.15-0.11,0.22-0.16c0.01-0.01,0.02-0.01,0.03-0.02
		c-0.01-0.02-0.02-0.01-0.03-0.02c-0.47-0.09-0.95-0.17-1.44-0.24c0.04,0.2,0.05,0.47,0.01,0.67c1.21,0.12,2.32,0.34,3.39,0.61
		C53.09,11.47,53.16,11.3,53.22,11.13z"/>
	<path class="st0" d="M43.12,3.27C43.12,3.27,43.12,3.27,43.12,3.27c0.17,0.28,0.33,0.55,0.5,0.83c0.27,0.03,0.54,0.07,0.81,0.1
		C44,3.89,43.56,3.58,43.12,3.27z"/>
	<path class="st0" d="M49.06,9.3c-0.17,0.05-0.34,0.11-0.51,0.16c0.06,0.04,0.15,0.06,0.25,0.05C48.88,9.5,48.96,9.47,49,9.42
		C49.03,9.39,49.06,9.35,49.06,9.3z"/>
	<path class="st0" d="M44.47,5.31c0.01-0.01,0.04-0.03,0.04-0.04c0-0.02,0-0.04,0-0.06c0-0.28,0-0.57,0-0.84
		c-0.23,0.53-0.47,1.05-0.7,1.57c0,0,0,0,0,0C44.03,5.73,44.24,5.51,44.47,5.31z"/>
	<path class="st0" d="M41.74,10.47c0.04,0.18,0.1,0.35,0.15,0.52c0.66-0.17,1.33-0.32,2.04-0.44c0.7-0.12,1.44-0.21,2.2-0.28
		c-0.07-0.03-0.15-0.05-0.23-0.07c0.49-0.19,1-0.36,1.52-0.53c0.26-0.08,0.52-0.16,0.8-0.23c0.25-0.06,0.51-0.13,0.79-0.17
		c0.02,0,0.05-0.01,0.06-0.01c0.01,0,0.01,0.01,0.02,0.01c0.01,0-0.01,0,0,0.01c0.08,0.1,0.15,0.2,0.22,0.31
		c0.88,0.08,1.71,0.21,2.51,0.37c0,0,0,0,0,0c0.01-0.06,0.02-0.12,0.03-0.18c-0.04-0.04-0.09-0.09-0.13-0.13
		c-0.01-0.01-0.02-0.01-0.01-0.02c0.07-0.01,0.14-0.02,0.21-0.03c0.04-0.06,0.06-0.13,0.1-0.19c0.03,0.06,0.06,0.13,0.1,0.19
		c0.07,0.01,0.14,0.02,0.21,0.03c-0.01,0.01-0.02,0.03-0.04,0.04c-0.03,0.03-0.05,0.05-0.08,0.08c-0.01,0.01-0.04,0.03-0.04,0.04
		c0,0.01,0,0.02,0,0.03c0.01,0.06,0.02,0.12,0.03,0.18c-0.06-0.03-0.13-0.07-0.19-0.1c-0.05,0.03-0.1,0.05-0.15,0.08
		c0.55,0.11,1.08,0.24,1.6,0.38c0.04-0.17,0.07-0.34,0.1-0.53c0,0,0,0,0,0c-0.74-0.23-1.54-0.44-2.35-0.6
		c-0.06-0.01-0.11-0.02-0.17-0.03c0,0,0,0,0,0c-0.03,0-0.06,0.01-0.08,0.01c-0.09,0.01-0.17,0.03-0.25,0.04
		c0.01,0.12,0.02,0.24,0.03,0.37c-0.01-0.01-0.02-0.02-0.03-0.03c-0.08-0.07-0.16-0.15-0.24-0.22c-0.09,0.08-0.17,0.16-0.26,0.24
		c0,0-0.01,0.01-0.02,0.01c0.01-0.12,0.02-0.24,0.02-0.37c-0.12-0.02-0.24-0.04-0.36-0.05c0.01-0.01,0.02-0.01,0.03-0.02
		c0.07-0.05,0.14-0.09,0.2-0.14c0,0,0.01-0.01,0.01-0.01c-0.57-0.09-1.17-0.16-1.79-0.2c0.63,0.04,1.25,0.09,1.85,0.16
		c-0.06-0.1-0.13-0.21-0.19-0.32c0.12,0.04,0.24,0.07,0.35,0.11c0.04-0.12,0.09-0.23,0.13-0.34c0.05,0.11,0.09,0.23,0.14,0.34
		c0.12-0.04,0.23-0.07,0.35-0.11c-0.06,0.11-0.12,0.21-0.18,0.32c0.04,0.03,0.09,0.06,0.14,0.09c0.02,0.01,0.03,0.03,0.05,0.03
		c0.06,0.01,0.11,0.02,0.17,0.03c0.17,0.03,0.34,0.06,0.51,0.09c0.66,0.13,1.3,0.28,1.91,0.45c0.01,0,0.03,0.01,0.04,0.01
		c0.02-0.17,0.03-0.35,0.03-0.54C53.39,9.07,53.17,9,52.96,8.94c0,0,0.01,0,0.01,0.01c-0.08,0.02-0.17,0.03-0.26,0.04
		c0,0.08,0.01,0.17,0.02,0.26c-0.02-0.01-0.03-0.03-0.05-0.04c-0.05-0.04-0.1-0.09-0.15-0.13c-0.06,0.05-0.12,0.11-0.18,0.17
		c0,0-0.01,0.01-0.01,0.01c0.01-0.09,0.01-0.17,0.02-0.26c-0.09-0.01-0.17-0.03-0.26-0.04c0.07-0.05,0.14-0.1,0.21-0.15
		c-0.01-0.01-0.01-0.03-0.02-0.04c-0.01-0.01-0.04-0.01-0.06-0.01c-0.13-0.03-0.27-0.06-0.39-0.09c-0.76-0.18-1.54-0.32-2.36-0.43
		c-0.33-0.04-0.67-0.08-1.01-0.1c0.03,0.08,0.06,0.17,0.09,0.24h0.49c0.03,0.09,0.07,0.18,0.1,0.28c0.16,0.04,0.32,0.08,0.48,0.12
		c-0.17,0.01-0.34,0.03-0.5,0.04c0,0,0,0,0,0c-0.02-0.04-0.04-0.09-0.07-0.13c-0.01-0.01-0.02-0.04-0.02-0.04c-0.01,0-0.04,0-0.06,0
		h-0.43c-0.03-0.06-0.05-0.11-0.09-0.17c-0.21,0-0.43,0-0.63,0V8.1h0.64c0.01,0.01,0.01,0.02,0.01,0.03
		c1.35,0.08,2.59,0.26,3.76,0.52c-0.01-0.02-0.03-0.04-0.03-0.06c0.08,0.03,0.16,0.05,0.25,0.07c0.03-0.08,0.06-0.16,0.09-0.24
		c0.03,0.08,0.06,0.16,0.1,0.24c0.08-0.03,0.16-0.05,0.25-0.08c-0.03,0.06-0.06,0.11-0.09,0.17c0,0.01-0.01,0.02-0.01,0.02
		c0.28,0.07,0.56,0.14,0.83,0.21V8.43c-0.57-0.18-1.18-0.34-1.79-0.48c-0.02,0-0.04-0.01-0.06-0.01c0,0.01-0.01,0.01-0.01,0.02
		c0.01,0.01,0.02,0.01,0.02,0.02c0.05,0.04,0.11,0.07,0.16,0.11c0.01,0.01,0.02,0.01,0.03,0.02c-0.09,0.01-0.17,0.03-0.26,0.04
		c0.01,0.09,0.01,0.17,0.02,0.26c-0.02-0.01-0.03-0.03-0.05-0.04c-0.05-0.04-0.1-0.09-0.15-0.13c-0.06,0.06-0.12,0.11-0.18,0.17
		c0,0-0.01,0.01-0.01,0.01c0.01-0.08,0.01-0.17,0.02-0.26c-0.09-0.01-0.17-0.03-0.26-0.04c0.07-0.05,0.14-0.1,0.21-0.15
		c-0.03-0.04-0.05-0.09-0.08-0.14c-0.93-0.19-1.89-0.34-2.94-0.41c1.11,0.06,2.16,0.18,3.15,0.37c0.03-0.07,0.06-0.14,0.08-0.21
		c0.03,0.08,0.06,0.16,0.1,0.24c0.08-0.02,0.16-0.05,0.25-0.08c-0.02,0.03-0.04,0.07-0.06,0.1c0,0-0.01,0.01,0,0.01
		c0.62,0.13,1.22,0.27,1.79,0.43V7.72c0,0,0,0,0,0c-0.91-0.24-1.85-0.44-2.84-0.59c-0.99-0.15-2.04-0.26-3.17-0.26
		c-0.57,0-1.11,0.03-1.64,0.08c-1.57,0.15-3.01,0.43-4.38,0.78v0.54c0.6-0.16,1.22-0.31,1.86-0.44c0.21-0.04,0.43-0.08,0.65-0.12
		c0.44-0.08,0.88-0.14,1.35-0.19c0.46-0.05,0.93-0.09,1.42-0.11c-0.98,0.06-1.89,0.2-2.76,0.37c-0.87,0.17-1.7,0.38-2.51,0.63v0.55
		c1.1-0.3,2.26-0.55,3.51-0.7c0.57-0.07,1.15-0.12,1.76-0.15c-0.97,0.07-1.89,0.2-2.76,0.37c-0.87,0.17-1.7,0.38-2.5,0.63
		c0,0.19,0.01,0.37,0.03,0.55c0.4-0.11,0.8-0.21,1.22-0.3c0.41-0.09,0.84-0.17,1.27-0.25c0.87-0.15,1.79-0.24,2.74-0.3
		c-0.97,0.07-1.87,0.2-2.73,0.37c-0.86,0.17-1.69,0.38-2.48,0.62c0.02,0.18,0.05,0.36,0.09,0.53c1.56-0.42,3.25-0.72,5.13-0.82
		c-0.94,0.06-1.82,0.19-2.67,0.36C43.33,10.04,42.52,10.24,41.74,10.47z M47.48,8.04C47.48,8.04,47.48,8.04,47.48,8.04l0.1,0v0.65
		h-0.1V8.04z M47.87,8.82c-0.02,0.17-0.03,0.34-0.05,0.5h-0.6c-0.01-0.17-0.03-0.34-0.04-0.5H47.87z"/>
	<path class="st0" d="M43.78,14.01c0.41-0.08,0.84-0.14,1.28-0.18c-0.01-0.04-0.03-0.07-0.03-0.1c0.43,0.13,0.89,0.24,1.42,0.27
		c-0.51-0.13-1.01-0.27-1.48-0.45c-0.02-0.05-0.03-0.1-0.05-0.16c0.46,0.16,0.97,0.28,1.52,0.36c0.18,0.03,0.37,0.05,0.57,0.06
		c0.21,0.01,0.41,0.01,0.6-0.01c0.57-0.05,1.05-0.2,1.46-0.42c-0.5,0.19-1.09,0.32-1.79,0.3c0.01-0.08,0.01-0.16,0.02-0.24
		c-0.03,0-0.07-0.01-0.1-0.01c-0.01,0.08-0.01,0.16-0.02,0.24c-0.06,0-0.12-0.01-0.17-0.01c0-0.04,0.01-0.08,0.01-0.12
		c0-0.04,0.01-0.08,0.01-0.12c-0.03,0-0.07-0.01-0.1-0.01c-0.01,0.08-0.01,0.15-0.02,0.23c-0.06-0.01-0.12-0.01-0.18-0.02
		c0.01-0.08,0.01-0.16,0.02-0.25c-0.03,0-0.07-0.01-0.1-0.01c-0.01,0.08-0.01,0.16-0.02,0.24c-0.64-0.09-1.21-0.24-1.76-0.43
		c-0.02-0.06-0.04-0.13-0.06-0.19c0.25,0.09,0.51,0.17,0.79,0.23c0.28,0.06,0.57,0.11,0.89,0.12c-0.61-0.16-1.2-0.33-1.75-0.54
		c-0.01-0.02-0.02-0.05-0.02-0.07c0.28,0.06,0.55,0.12,0.83,0.17c0.28,0.05,0.56,0.11,0.87,0.13c0.21,0.19,0.5,0.31,0.87,0.33
		c0.13,0.01,0.26,0,0.39,0c0.51-0.02,0.95-0.13,1.17-0.44c0.41-0.05,0.8-0.12,1.17-0.21c-0.06,0.14-0.12,0.28-0.17,0.41
		c0,0.01-0.01,0.02-0.01,0.03c0.7,0.07,1.36,0.18,2,0.31c0.13-0.16,0.26-0.33,0.38-0.5c0,0,0.01-0.01,0.01-0.02
		c-0.69-0.17-1.4-0.31-2.13-0.43c0.01-0.01,0.01-0.03,0.02-0.04c0.77,0.09,1.48,0.22,2.19,0.38c0.11-0.16,0.22-0.32,0.32-0.49
		c0,0,0.01-0.01,0.01-0.01c-0.74-0.19-1.5-0.36-2.31-0.49c0,0,0,0,0,0c-0.03,0.04-0.07,0.08-0.1,0.13
		c-0.06,0.01-0.11,0.03-0.16,0.04c0.04-0.06,0.09-0.12,0.14-0.18c0-0.01,0.01-0.01,0-0.01c0,0-0.02,0-0.03,0
		c-0.27-0.04-0.56-0.09-0.84-0.13c-0.01,0-0.01,0.01-0.01,0.01c-0.11,0.15-0.23,0.29-0.37,0.41c-0.02,0.02-0.04,0.04-0.06,0.05
		c-0.11-0.15-0.34-0.2-0.6-0.19c-0.24,0.01-0.47,0.07-0.67,0.13c-0.41,0.12-0.78,0.29-1.13,0.46c0.13-0.35,0.23-0.74,0.25-1.21
		c0-0.15-0.01-0.29-0.04-0.41c0-0.02,0-0.02-0.02-0.02c-0.14,0.01-0.28,0.02-0.42,0.04c-0.42,0.04-0.82,0.09-1.21,0.15
		c0.02,0.04,0.05,0.09,0.06,0.16c0.01,0.07-0.02,0.13-0.05,0.17c-0.11,0-0.22,0-0.33,0c-0.02-0.09-0.04-0.18-0.06-0.27
		c-0.04,0.01-0.09,0.01-0.13,0.02c0.04,0.21,0.08,0.42,0.13,0.62c0.5-0.07,1.03-0.12,1.56-0.16c-0.54,0.05-1.06,0.12-1.55,0.21
		c0,0.03,0.01,0.06,0.02,0.08c-0.03-0.01-0.07-0.02-0.1-0.02c0-0.01,0-0.03-0.01-0.04c-0.7,0.13-1.39,0.28-2.05,0.46
		c0.08,0.13,0.16,0.26,0.24,0.38c0.03,0.04,0.05,0.09,0.09,0.12c0.57-0.13,1.16-0.24,1.78-0.32c0.01,0.02,0.02,0.04,0.02,0.05
		c-0.6,0.1-1.17,0.23-1.74,0.36c0.06,0.09,0.13,0.17,0.19,0.26c0.06,0.09,0.13,0.17,0.2,0.25c0.5-0.1,1.02-0.19,1.55-0.26
		c0.01,0.02,0.01,0.03,0.02,0.05c-0.51,0.08-1.01,0.18-1.5,0.29C43.5,13.71,43.64,13.87,43.78,14.01z M49.08,12.29
		c0.53-0.07,1.04-0.16,1.48-0.33c-0.02,0.13-0.04,0.27-0.07,0.4c-0.05,0.02-0.11,0.04-0.17,0.06c-0.41,0.13-0.87,0.21-1.34,0.27
		C49.02,12.56,49.06,12.43,49.08,12.29z M47.58,12.24L47.58,12.24l0,1.07c-0.03,0-0.07,0-0.1,0c0-0.34,0-0.69,0-1.04
		C47.51,12.26,47.54,12.25,47.58,12.24z M47.16,12.39c0.02-0.01,0.04-0.01,0.05-0.02h0c-0.04,0.31-0.08,0.61-0.12,0.92
		c-0.02,0-0.03-0.01-0.05-0.01C47.08,12.98,47.13,12.69,47.16,12.39z M46.86,12.52c0.02-0.01,0.04-0.02,0.06-0.03
		c-0.05,0.23-0.11,0.46-0.16,0.69c-0.02-0.01-0.03-0.01-0.05-0.02C46.76,12.95,46.81,12.73,46.86,12.52z M44.4,12.38
		c-0.03-0.13-0.06-0.27-0.09-0.4c0,0,0,0,0,0c0.28,0.07,0.56,0.13,0.84,0.19c0.28,0.06,0.57,0.12,0.86,0.17
		c0.02,0.16,0.08,0.3,0.15,0.42C45.56,12.65,44.98,12.52,44.4,12.38z"/>
	<path class="st0" d="M52.39,2.25c0.41,0.09,0.81,0.19,1.2,0.3c0.01,0,0.02,0.01,0.04,0.01c0-0.17,0-0.35,0-0.52c0,0,0,0,0,0
		c-0.88-0.27-1.8-0.47-2.78-0.65c-0.49-0.09-0.99-0.15-1.51-0.2c-0.52-0.05-1.06-0.08-1.63-0.08c0,0,0,0,0,0v5.4c0,0,0,0,0,0
		c1.11,0.01,2.13,0.11,3.11,0.27c0.97,0.15,1.89,0.35,2.79,0.59c0-0.15,0-0.29,0-0.44c-0.81-0.25-1.64-0.46-2.52-0.64
		c-0.88-0.17-1.8-0.31-2.78-0.38c1.22,0.07,2.36,0.21,3.43,0.42C52.38,6.46,53,6.61,53.6,6.77c0-0.18,0-0.37,0-0.55c0,0,0,0,0-0.01
		c-0.43-0.13-0.87-0.25-1.31-0.37c-0.02,0-0.03,0-0.05,0c-0.02,0-0.03,0-0.05,0.01c0,0,0,0,0,0c-0.07-0.24-0.13-0.5-0.17-0.77
		c0.04,0,0.09-0.01,0.14-0.01c0.03,0.19,0.05,0.39,0.09,0.57c0.01,0.03,0.01,0.07,0.02,0.09c0.46,0.1,0.91,0.21,1.35,0.34
		c0-0.18,0-0.37,0-0.55c-0.45-0.14-0.92-0.27-1.39-0.39c0.01-0.02,0.03-0.03,0.04-0.04c0.04-0.04,0.08-0.1,0.11-0.15
		c0.04-0.08,0.07-0.16,0.1-0.25c0.06-0.18,0.09-0.38,0.08-0.61c-0.01-0.22-0.04-0.42-0.09-0.61c-0.05-0.19-0.11-0.35-0.2-0.49
		c0.13,0.05,0.2,0.17,0.25,0.3c0.06,0.13,0.09,0.28,0.12,0.43c0.33,0.08,0.65,0.16,0.96,0.25c0.01,0,0.02,0.01,0.03,0.01
		c0-0.18,0-0.37,0-0.55c0,0,0,0,0,0c-0.39-0.12-0.78-0.23-1.19-0.34c-0.02-0.04-0.04-0.07-0.07-0.1c-0.03-0.02-0.06-0.04-0.09-0.06
		c0.46,0.1,0.91,0.22,1.35,0.34c0-0.18,0-0.37,0-0.55c-0.81-0.25-1.65-0.46-2.53-0.64c-0.88-0.18-1.8-0.32-2.79-0.38
		c0.98,0.05,1.91,0.15,2.79,0.3C51.53,2.07,51.97,2.16,52.39,2.25z M48.91,3.85c-0.2-0.02-0.4-0.04-0.61-0.05c0,0,0,0,0,0
		c0.2,0.01,0.41,0.02,0.61,0.04c0.03-0.25,0.07-0.49,0.17-0.67c-0.26-0.03-0.5-0.04-0.77-0.07c0,0,0,0,0,0c0.01,0,0.04,0,0.05,0
		c0.23,0.01,0.45,0.03,0.68,0.05c0.01,0,0.04,0.01,0.05,0c0.01,0,0.02-0.03,0.02-0.04c0.02-0.04,0.05-0.07,0.07-0.1
		c0.03-0.04,0.09-0.08,0.15-0.08C49.41,2.93,49.46,2.97,49.5,3c0.01,0,0.01,0.01,0.02,0.01c0.03,0.02,0.06,0.07,0.08,0.1
		c0.02,0.04,0.04,0.08,0.06,0.12c0.1,0.26,0.15,0.59,0.14,0.95c-0.01,0.23-0.04,0.44-0.11,0.62c-0.04,0.13-0.1,0.26-0.2,0.34
		C49.44,5.18,49.4,5.2,49.35,5.2c-0.07,0-0.12-0.03-0.15-0.07c-0.04-0.04-0.07-0.08-0.09-0.13c0.02,0,0.04-0.01,0.06,0
		c0.01,0,0.02,0.03,0.03,0.04c0.03,0.04,0.06,0.07,0.11,0.09c0.07,0.03,0.14,0,0.18-0.05c-0.03-0.05-0.07-0.11-0.09-0.17
		c0.07-0.01,0.14-0.03,0.22-0.04c0.02-0.06,0.03-0.13,0.02-0.21c-0.1-0.01-0.21-0.01-0.31-0.02c-0.06-0.24-0.08-0.57-0.05-0.86
		c0.03-0.28,0.09-0.54,0.2-0.73C49.43,3.03,49.39,3,49.33,3.01c-0.07,0.01-0.11,0.07-0.14,0.12c-0.11,0.15-0.17,0.36-0.2,0.58
		c-0.02,0.15-0.04,0.32-0.03,0.48c0.01,0.16,0.03,0.32,0.06,0.46c-0.02,0-0.04,0-0.05,0c0-0.03-0.01-0.05-0.02-0.08
		c-0.21-0.02-0.43-0.04-0.65-0.05c0.21,0.01,0.43,0.02,0.64,0.04C48.9,4.34,48.89,4.09,48.91,3.85z M50.17,3.74
		c0.16,0,0.33,0,0.48,0c0.01,0.14,0.01,0.3,0,0.44c-0.17,0-0.35,0-0.52,0c0-0.29-0.02-0.55-0.08-0.78C50,3.17,49.92,2.97,49.76,2.83
		c0.13-0.03,0.27-0.05,0.4-0.07c0.04-0.01,0.1,0.03,0.13,0.05c0.04,0.03,0.06,0.06,0.09,0.09c0.15,0.2,0.24,0.49,0.27,0.81
		c-0.17,0-0.34,0.01-0.51,0.02C50.15,3.74,50.16,3.74,50.17,3.74z M49.93,5.08c0,0,0-0.01,0.01-0.02c0.05-0.1,0.1-0.21,0.13-0.33
		c0,0,0,0,0,0c0.16,0.02,0.32,0.03,0.48,0.03c-0.03,0.12-0.08,0.22-0.13,0.32C50.26,5.08,50.09,5.08,49.93,5.08z M50.35,5.19
		c-0.02,0.03-0.05,0.06-0.07,0.08c-0.01-0.03-0.01-0.06-0.01-0.09C50.29,5.19,50.32,5.19,50.35,5.19z M50.07,4.69
		c0.03-0.14,0.05-0.3,0.06-0.46c0.17,0.02,0.33,0.03,0.51,0.04c-0.01,0.14-0.04,0.27-0.07,0.4C50.41,4.67,50.24,4.68,50.07,4.69z
		 M49.77,2.93c0.11,0.09,0.18,0.24,0.23,0.39c0.03,0.1,0.06,0.22,0.07,0.34c0.05,0.38,0,0.8-0.09,1.1c-0.05,0.15-0.12,0.29-0.21,0.4
		c-0.02,0.02-0.05,0.05-0.08,0.07c-0.01,0.01-0.03,0.02-0.03,0.02c-0.01,0-0.02-0.01-0.03-0.01c-0.03-0.01-0.06-0.02-0.09-0.02
		c0.14-0.11,0.22-0.29,0.27-0.49c0.04-0.15,0.07-0.31,0.08-0.49c0.01-0.31-0.01-0.61-0.08-0.86c-0.06-0.2-0.13-0.38-0.27-0.48
		c0.03-0.01,0.08-0.02,0.11-0.03c0,0,0,0,0,0C49.68,2.87,49.73,2.9,49.77,2.93z M49.06,4.87c0.02-0.05,0.02-0.13,0-0.18
		c0.18,0.01,0.36,0.02,0.54,0.03c0,0.02,0,0.04,0,0.06C49.41,4.81,49.23,4.84,49.06,4.87z M49.08,4.97
		c-0.01-0.02-0.02-0.03-0.03-0.05c0.01,0,0.02,0,0.02-0.01C49.08,4.93,49.08,4.96,49.08,4.97z M49.11,4.5c0.03,0,0.07,0,0.1,0
		c0,0.04-0.01,0.1-0.01,0.15c-0.03,0-0.05,0-0.08,0C49.12,4.6,49.12,4.55,49.11,4.5z M49.19,4.9c0,0.01,0,0.04,0,0.06h-0.06
		c0-0.02,0-0.03,0-0.05C49.15,4.9,49.17,4.9,49.19,4.9z M49.01,4.84c0,0.01-0.01,0.03-0.02,0.03c-0.02,0-0.03-0.05-0.03-0.08
		c0-0.04,0.01-0.09,0.03-0.09C49.02,4.72,49.03,4.79,49.01,4.84z M49.36,5.28c0.02,0,0.05,0,0.07,0.01
		c0.03,0.01,0.04,0.02,0.07,0.03c-0.39-0.05-0.78-0.09-1.2-0.11C48.65,5.22,49.01,5.25,49.36,5.28z M49.91,5.79
		c-0.02-0.05-0.03-0.1-0.07-0.14c-0.03-0.04-0.07-0.07-0.14-0.07c-0.1,0-0.14,0.07-0.17,0.14c-0.05-0.01-0.1-0.02-0.15-0.03
		c0.04-0.11,0.08-0.23,0.11-0.35c0.08,0.01,0.15,0.03,0.24,0.03c0.05,0,0.1-0.04,0.12-0.06c0.03-0.03,0.06-0.07,0.08-0.11h0.03
		c0.03,0.22,0.06,0.44,0.11,0.64C50.02,5.82,49.97,5.8,49.91,5.79z M50.18,5.85c-0.05-0.21-0.1-0.43-0.14-0.66c0,0,0,0,0,0h0.12
		c0.04,0.23,0.07,0.46,0.11,0.68C50.25,5.86,50.21,5.85,50.18,5.85z M50.44,5.37c-0.03,0.01-0.07,0-0.11,0c0,0,0,0,0-0.01
		c0.15-0.13,0.23-0.33,0.29-0.54c0.03-0.11,0.06-0.23,0.07-0.35c0.02-0.13,0.02-0.26,0.02-0.4c0-0.27-0.04-0.52-0.11-0.74
		C50.58,3.2,50.54,3.1,50.5,3c-0.04-0.09-0.09-0.17-0.16-0.24c0,0-0.01-0.01-0.01-0.01c0.01,0,0.03,0,0.05,0
		c0.07,0,0.12,0.04,0.16,0.07c0.12,0.11,0.2,0.28,0.26,0.45c0.04,0.12,0.07,0.25,0.09,0.38c0.03,0.21,0.04,0.45,0.01,0.66
		c-0.02,0.21-0.07,0.41-0.13,0.58C50.74,5,50.69,5.11,50.63,5.2c-0.03,0.04-0.07,0.09-0.11,0.12C50.5,5.34,50.47,5.36,50.44,5.37z
		 M50.98,4.27c0.29,0,0.57-0.01,0.84-0.02c0.01,0,0,0.01,0,0.01c0,0.03-0.01,0.06-0.01,0.09c-0.01,0.1-0.03,0.2-0.05,0.28
		c-0.27,0.02-0.54,0.02-0.82,0.02C50.96,4.53,50.97,4.41,50.98,4.27z M50.96,3.75c0.29,0.01,0.59,0.01,0.88,0
		c0.01,0.13,0.01,0.29,0,0.42c-0.28,0-0.57,0-0.85,0.01C50.98,4.03,50.97,3.88,50.96,3.75z M51.33,4.76
		c0.14-0.01,0.27-0.02,0.4-0.04c0.01,0,0.01,0,0.01,0c0,0.02-0.01,0.05-0.02,0.07c-0.02,0.08-0.05,0.16-0.08,0.23
		c-0.26,0.03-0.53,0.05-0.82,0.05c0.04-0.1,0.08-0.2,0.1-0.3C51.05,4.78,51.19,4.77,51.33,4.76z M51.56,5.16
		c-0.04,0.06-0.09,0.12-0.15,0.17c-0.23,0.03-0.48,0.05-0.74,0.05c-0.02,0-0.04,0-0.05,0c0,0,0,0,0-0.01
		c0.04-0.05,0.09-0.1,0.12-0.16C51.03,5.22,51.31,5.2,51.56,5.16z M51.33,5.63c-0.26-0.05-0.53-0.11-0.8-0.15
		c0.12,0,0.24,0.01,0.35,0c0.02,0,0.04,0,0.06,0.01c0.13,0.02,0.27,0.05,0.4,0.07C51.34,5.58,51.34,5.61,51.33,5.63z M52.08,5.84
		c-0.05-0.02-0.1-0.03-0.16-0.05c-0.01-0.07-0.03-0.14-0.07-0.2c-0.03-0.06-0.09-0.12-0.18-0.11c-0.08,0.01-0.12,0.06-0.15,0.11
		c0.06,0.01,0.14,0.03,0.2,0.04c0.02,0,0.05,0,0.07,0.01c0.03,0.02,0.02,0.07,0.03,0.1c-0.15-0.03-0.31-0.06-0.46-0.09
		c0.02-0.07,0.05-0.14,0.07-0.22c0.11-0.03,0.24-0.04,0.31-0.1c0.08-0.06,0.13-0.14,0.19-0.23c0.01,0,0.02,0,0.02,0
		c0.01,0,0,0.01,0.01,0.02C51.99,5.37,52.03,5.61,52.08,5.84z M52.28,4.94C52.18,4.95,52.09,4.96,52,4.98
		c0-0.01,0.01-0.02,0.01-0.03c0.03-0.08,0.06-0.17,0.08-0.27c0.1-0.02,0.2-0.03,0.3-0.05h0C52.36,4.74,52.33,4.85,52.28,4.94z
		 M52.41,4.58c-0.1,0.01-0.2,0.02-0.3,0.03c0.02-0.12,0.03-0.24,0.04-0.38c0.11-0.01,0.22-0.02,0.32-0.03c0.01,0,0,0.01,0,0.02
		C52.46,4.34,52.44,4.46,52.41,4.58z M51.82,2.84c0.03,0.01,0.07,0.02,0.1,0.03c0.03,0.01,0.07,0.02,0.1,0.03
		c0.01,0,0.01,0,0.01,0.01c0.08,0.02,0.14,0.07,0.19,0.13c0.14,0.17,0.22,0.42,0.26,0.7c-0.11,0-0.22-0.01-0.33-0.01
		c0,0.01,0,0.02,0,0.02c0.11,0,0.23,0,0.34-0.01c0.01,0.13,0.02,0.29,0.01,0.43c-0.11,0-0.22,0-0.33,0c0-0.27-0.03-0.52-0.09-0.74
		c-0.04-0.17-0.09-0.32-0.16-0.46C51.88,2.92,51.85,2.88,51.82,2.84C51.82,2.84,51.82,2.84,51.82,2.84z M51.55,2.78
		c0.02,0,0.04,0.01,0.06,0.01c0.02,0,0.04,0.01,0.06,0.01c0.02,0.01,0.04,0.02,0.05,0.04c0.05,0.04,0.08,0.09,0.12,0.14
		c0.05,0.07,0.09,0.15,0.12,0.24c0.07,0.17,0.1,0.37,0.12,0.59c0.02,0.22,0,0.46-0.04,0.66c-0.03,0.17-0.08,0.33-0.14,0.48
		C51.9,4.96,51.89,4.99,51.88,5c0,0-0.01,0-0.01,0.01c0,0-0.01,0.02-0.01,0.02c-0.03,0.05-0.06,0.1-0.1,0.15
		c-0.04,0.05-0.09,0.1-0.17,0.11c0,0,0-0.01,0.01-0.01c0.11-0.14,0.18-0.33,0.23-0.54c0.04-0.16,0.06-0.33,0.07-0.53
		c0.01-0.33-0.03-0.63-0.1-0.89C51.74,3.12,51.67,2.93,51.55,2.78C51.55,2.78,51.55,2.78,51.55,2.78
		C51.55,2.78,51.55,2.78,51.55,2.78z M50.92,2.56h0.17V2.6c-0.06,0-0.12,0-0.17,0C50.92,2.59,50.92,2.57,50.92,2.56z M50.92,2.68
		c0.05,0,0.12,0,0.17,0v0.06c-0.05,0-0.12,0-0.17,0V2.68z M51.14,2.79V2.73c0.05,0,0.1,0.01,0.14,0.01c0.01,0,0.03,0.01,0.04,0.01
		c0.02,0,0.03,0,0.05,0c0.04,0.01,0.08,0.04,0.11,0.07c0.03,0.03,0.06,0.06,0.08,0.1c0.15,0.21,0.23,0.49,0.26,0.81
		c-0.29-0.01-0.59-0.01-0.88,0c-0.05-0.29-0.12-0.56-0.24-0.79c-0.04-0.07-0.08-0.13-0.13-0.19c0,0-0.01-0.01-0.01-0.01
		c0.1-0.01,0.2-0.01,0.3-0.01v0.07C50.95,2.8,51.06,2.8,51.14,2.79z M48.34,2.4c0.43,0.03,0.86,0.06,1.27,0.1
		c0.43,0.05,0.85,0.1,1.26,0.16c-0.04,0.01-0.09,0.02-0.13,0.03c-0.01,0-0.03,0.01-0.04,0.01c-0.02,0-0.05-0.01-0.07-0.01
		c-0.35-0.06-0.72-0.12-1.09-0.17C49.14,2.46,48.75,2.43,48.34,2.4c-0.02,0-0.04,0-0.04,0C48.3,2.4,48.33,2.4,48.34,2.4z"/>
	<path class="st0" d="M52.07,16.93c-0.05-0.09-0.12-0.15-0.23-0.18c-0.06-0.01-0.13-0.01-0.18,0.02c0.11,0.05,0.19,0.14,0.23,0.26
		c0.02,0.06,0.03,0.14,0.03,0.21c-0.01,0.07-0.03,0.13-0.06,0.18c0,0,0,0,0,0c0.04-0.01,0.08-0.02,0.11-0.04
		c0.01-0.12,0.06-0.2,0.12-0.26c0.01-0.01,0.03-0.02,0.03-0.03c0-0.01,0-0.03,0-0.05C52.1,17,52.08,16.96,52.07,16.93z"/>
	<path class="st0" d="M43.54,18.44c0-0.01,0-0.02,0-0.03c0-0.01-0.03-0.03-0.04-0.03c-0.01-0.01-0.03-0.02-0.04-0.03
		c-0.03-0.02-0.07-0.03-0.11-0.03c0,0,0,0,0,0c-0.05,0.03-0.11,0.04-0.2,0.04c-0.09,0.06-0.17,0.15-0.17,0.3c0,0.02,0,0.05,0,0.06
		c0,0.01,0.01,0.01,0.02,0.02c0.04,0.05,0.07,0.1,0.08,0.17c0.05,0.05,0.13,0.08,0.23,0.08c0.02-0.2,0.12-0.32,0.26-0.4
		C43.57,18.55,43.55,18.5,43.54,18.44z"/>
	<path class="st0" d="M43.65,18.68c-0.12,0.05-0.21,0.16-0.22,0.31c-0.01,0.16,0.08,0.28,0.19,0.33c0.07,0.03,0.15,0.03,0.22,0
		c0.06-0.02,0.11-0.06,0.15-0.11c0.04-0.05,0.07-0.11,0.08-0.18c0.01-0.08,0-0.15-0.04-0.21C43.85,18.84,43.72,18.77,43.65,18.68z"
		/>
	<path class="st0" d="M42.68,18.7c-0.05,0-0.09,0.02-0.13,0.04c-0.04,0.02-0.07,0.04-0.09,0.07c-0.05,0.05-0.09,0.13-0.1,0.23
		c0,0.11,0.03,0.18,0.09,0.24c0.05,0.06,0.13,0.1,0.24,0.09c0.09-0.01,0.17-0.05,0.22-0.11c0.05-0.06,0.09-0.13,0.1-0.23
		c0-0.11-0.03-0.19-0.09-0.24C42.87,18.74,42.79,18.69,42.68,18.7z"/>
	<path class="st0" d="M44.27,18.26c-0.01-0.05-0.03-0.08-0.06-0.11c-0.01-0.01-0.02-0.03-0.03-0.03c-0.01,0-0.03,0-0.04,0
		c-0.1,0-0.16-0.03-0.22-0.07c-0.01,0-0.02,0.01-0.03,0.01c-0.05,0.08-0.12,0.15-0.21,0.19c-0.03,0.06-0.04,0.13-0.03,0.2
		c0.01,0.07,0.04,0.12,0.07,0.16c0.07,0.08,0.19,0.14,0.34,0.09c0.11-0.04,0.19-0.13,0.22-0.24C44.29,18.4,44.29,18.32,44.27,18.26z
		"/>
	<path class="st0" d="M42.41,18.71c0.02-0.02,0.02-0.05,0.03-0.08c-0.11-0.08-0.21-0.22-0.18-0.42c-0.04-0.01-0.08-0.02-0.13-0.02
		c-0.06,0-0.11,0.03-0.15,0.05c-0.04,0.03-0.07,0.06-0.1,0.1c-0.05,0.08-0.09,0.2-0.05,0.31c0.03,0.09,0.1,0.17,0.2,0.2
		c0.05,0.02,0.12,0.02,0.17,0c0.05-0.01,0.1-0.04,0.13-0.07c0.01-0.01,0.02-0.03,0.03-0.04C42.38,18.74,42.4,18.73,42.41,18.71z"/>
	<path class="st0" d="M44.7,18.27c-0.01,0-0.02,0-0.03,0c-0.12,0-0.19-0.04-0.26-0.1c-0.02,0-0.04,0.01-0.06,0.02
		c0.04,0.09,0.04,0.23,0.01,0.32c-0.03,0.09-0.09,0.16-0.15,0.22c0.05,0.06,0.12,0.11,0.22,0.12c0.1,0.01,0.19-0.04,0.24-0.09
		c0.06-0.06,0.1-0.13,0.11-0.23c0.01-0.08-0.01-0.15-0.04-0.21C44.74,18.31,44.72,18.28,44.7,18.27z"/>
	<path class="st0" d="M42.33,16.91c-0.01,0-0.02-0.01-0.02-0.01c-0.07,0.12-0.16,0.22-0.26,0.31c-0.1,0.09-0.2,0.18-0.31,0.26
		c-0.22,0.16-0.45,0.31-0.7,0.44c-0.12,0.06-0.25,0.13-0.39,0.18c-0.14,0.05-0.29,0.1-0.45,0.12c-0.08,0.01-0.18,0.02-0.26,0.01
		c-0.26-0.03-0.39-0.18-0.45-0.4c0.32-0.01,0.65-0.01,0.85-0.13c0.1-0.06,0.18-0.16,0.19-0.3c0.02-0.16-0.05-0.28-0.14-0.35
		c-0.1-0.07-0.23-0.11-0.39-0.1c-0.15,0.01-0.27,0.06-0.37,0.12c-0.21,0.12-0.37,0.3-0.39,0.6c-0.35,0-0.64,0.06-0.75,0.3
		c-0.03,0.06-0.05,0.13-0.04,0.22c0.01,0.08,0.03,0.14,0.07,0.19c0.08,0.1,0.19,0.16,0.3,0.22c0.03,0.02,0.05,0.03,0.08,0.05
		c0.02,0.02,0.05,0.04,0.06,0.08c0.01,0.08-0.05,0.14-0.09,0.17c-0.09,0.08-0.22,0.13-0.37,0.16c-0.08,0.01-0.17,0.01-0.23-0.01
		c-0.07-0.02-0.11-0.06-0.12-0.14c-0.01-0.09,0.03-0.15,0.08-0.18c0.02-0.02,0.05-0.04,0.09-0.04c0.04,0,0.06,0.01,0.09,0.04
		c0,0,0.02-0.01,0.02-0.01c0-0.02-0.01-0.04-0.02-0.05c-0.03-0.04-0.09-0.07-0.17-0.05c-0.08,0.02-0.14,0.07-0.18,0.13
		C38,18.8,37.98,18.89,38,18.98c0.03,0.16,0.17,0.24,0.35,0.27c0.09,0.01,0.2,0,0.28-0.01c0.17-0.03,0.32-0.1,0.42-0.19
		c0.05-0.05,0.1-0.11,0.13-0.18c0.03-0.08,0.03-0.18,0-0.26c-0.08-0.18-0.27-0.24-0.42-0.35c-0.03-0.02-0.06-0.05-0.07-0.08
		c-0.01-0.04,0-0.09,0.01-0.13c0.02-0.04,0.04-0.06,0.07-0.09c0.11-0.09,0.29-0.11,0.48-0.13c0.03,0.2,0.1,0.35,0.2,0.46
		c0.1,0.11,0.26,0.19,0.46,0.21c0.21,0.02,0.41-0.03,0.57-0.09c0.17-0.06,0.32-0.13,0.46-0.21c0.14-0.08,0.28-0.16,0.41-0.26
		c0.26-0.19,0.5-0.39,0.7-0.63C42.17,17.2,42.27,17.07,42.33,16.91z M39.45,17.67c-0.01-0.16,0.05-0.27,0.12-0.35
		c0.08-0.08,0.2-0.14,0.34-0.14c0.16-0.01,0.31,0.04,0.37,0.14c0.02,0.04,0.03,0.09,0.03,0.15c0,0.04-0.02,0.07-0.04,0.09
		c-0.07,0.08-0.21,0.1-0.36,0.12C39.76,17.68,39.6,17.67,39.45,17.67z"/>
	<path class="st0" d="M42.27,18.95c-0.07,0.03-0.17,0.03-0.25,0.01c-0.08-0.02-0.14-0.06-0.18-0.11c-0.05,0.04-0.09,0.09-0.12,0.15
		c-0.03,0.06-0.04,0.14-0.02,0.22c0.02,0.07,0.05,0.12,0.09,0.16c0.04,0.04,0.11,0.07,0.18,0.08c0.09,0,0.16-0.02,0.21-0.06
		c0.05-0.04,0.09-0.09,0.12-0.15C42.26,19.19,42.25,19.06,42.27,18.95z"/>
	<path class="st0" d="M45.74,17.9c0.07,0,0.13-0.03,0.17-0.06c0.09-0.07,0.15-0.17,0.15-0.32c-0.12-0.08-0.23-0.15-0.35-0.23
		c-0.03,0.03-0.07,0.06-0.11,0.08c0.04,0.07,0.06,0.16,0.05,0.26c-0.01,0.09-0.05,0.17-0.09,0.23
		C45.61,17.89,45.67,17.91,45.74,17.9z"/>
	<path class="st0" d="M45.25,17.93c0.09-0.01,0.16-0.06,0.21-0.12c0.05-0.06,0.09-0.14,0.09-0.24c0-0.1-0.04-0.18-0.09-0.23
		c-0.05-0.05-0.12-0.1-0.23-0.09c-0.04,0-0.07,0.01-0.11,0.03c-0.02,0.15-0.08,0.25-0.17,0.33c-0.01,0.01-0.04,0.02-0.04,0.03
		c-0.01,0.02,0.01,0.05,0.01,0.07c0.02,0.06,0.05,0.11,0.09,0.15C45.06,17.91,45.15,17.95,45.25,17.93z"/>
	<path class="st0" d="M45.23,16.95c-0.03,0.03-0.08,0.07-0.13,0.09c0.01,0.05,0.03,0.09,0.05,0.12c0.17-0.04,0.31,0.03,0.38,0.12
		c0.03-0.01,0.06-0.03,0.09-0.05C45.49,17.14,45.36,17.05,45.23,16.95z"/>
	<path class="st0" d="M38.43,13.09c0.12-0.01,0.23-0.04,0.34-0.06c0.08-0.02,0.16-0.04,0.25-0.04c0.03,0,0.07,0,0.08,0.02
		c0.01,0.03-0.02,0.05-0.04,0.07c-0.02,0.02-0.03,0.04-0.05,0.05c-0.11,0.11-0.23,0.18-0.36,0.27c0.07,0.08,0.17,0.16,0.27,0.21
		c0.05,0.03,0.11,0.05,0.17,0.06c0.07,0.02,0.14,0.02,0.22,0.01c0.01,0.04-0.01,0.1,0.02,0.12c0.01,0.01,0.04,0.01,0.06,0.02
		c0.02,0,0.05,0.01,0.07,0.01c0.16,0.02,0.31-0.01,0.43-0.05c0.16-0.05,0.31-0.13,0.41-0.24c0.1-0.11,0.17-0.27,0.15-0.49
		c-0.01-0.15-0.05-0.27-0.08-0.41c0-0.03-0.02-0.13,0.01-0.14c0.02,0,0.04,0.01,0.06,0.02c0.02,0.01,0.04,0.02,0.05,0.03
		c0.1,0.06,0.2,0.12,0.3,0.17c0.07,0.03,0.15,0.06,0.24,0.07c0.09,0.01,0.19,0.01,0.29-0.01c-0.06-0.12-0.13-0.24-0.19-0.36
		c-0.06-0.12-0.11-0.23-0.17-0.35c-0.02,0.01-0.04,0.03-0.05,0.04l-0.02,0.02c-0.07,0.06-0.16,0.12-0.27,0.17
		c-0.07,0.03-0.15,0.06-0.23,0.08c-0.07,0.02-0.13,0.04-0.2,0.07c-0.04,0.29-0.16,0.53-0.34,0.71c-0.09,0.09-0.21,0.17-0.31,0.21
		c-0.04,0.02-0.16,0.06-0.3,0.06c-0.05,0-0.1-0.01-0.15-0.02l-0.05-0.02l0.04,0c0,0,0,0,0,0c0.15-0.02,0.28-0.06,0.39-0.12
		c0.11-0.06,0.2-0.13,0.28-0.22c0.15-0.17,0.27-0.37,0.38-0.58c-0.18,0.07-0.41,0.15-0.67,0.16c-0.08,0-0.18,0-0.28-0.01
		c-0.16-0.02-0.32-0.06-0.47-0.12c-0.09-0.04-0.15-0.07-0.2-0.1c-0.06-0.04-0.13-0.07-0.17-0.13l-0.04-0.05l0.05,0.04
		c0.09,0.06,0.21,0.12,0.38,0.16c0.15,0.05,0.31,0.07,0.46,0.09c0.09,0.01,0.18,0.01,0.27,0.01c0.25,0,0.49-0.04,0.67-0.12
		c-0.19-0.11-0.37-0.24-0.55-0.41c-0.02-0.01-0.03-0.03-0.05-0.04c-0.04-0.04-0.08-0.08-0.12-0.12c-0.2-0.22-0.43-0.46-0.54-0.8
		l-0.01-0.04l0.03,0.03c0.11,0.11,0.22,0.22,0.33,0.34c0.09,0.1,0.18,0.19,0.26,0.29c0.22,0.24,0.44,0.5,0.68,0.73l0,0c0,0,0,0,0,0
		c0.1-0.22,0.17-0.47,0.23-0.74c0.02-0.09,0.03-0.18,0.05-0.27l0.01-0.04l0.01,0.04c0.05,0.19,0.02,0.43-0.02,0.58l-0.01,0.02
		c-0.02,0.07-0.05,0.15-0.09,0.22c-0.03,0.05-0.06,0.1-0.09,0.15c0.1-0.05,0.19-0.11,0.29-0.16c0.06-0.03,0.12-0.06,0.18-0.08
		c0.06-0.03,0.13-0.05,0.19-0.08c-0.15-0.36-0.29-0.74-0.4-1.14c0-0.01,0-0.03-0.01-0.04c0-0.01-0.02-0.02-0.02-0.02
		c-0.05-0.04-0.09-0.07-0.14-0.1c-0.02-0.01-0.05-0.02-0.08-0.01c-0.04,0.01-0.03,0.06-0.03,0.1c0,0.06-0.01,0.11-0.02,0.16
		c-0.05,0.2-0.12,0.38-0.2,0.54c0.02-0.08,0.04-0.17,0.03-0.26c0-0.09-0.02-0.17-0.05-0.24c-0.03-0.07-0.06-0.14-0.1-0.19
		c-0.02-0.02-0.05-0.05-0.08-0.07c-0.03-0.02-0.07-0.04-0.1-0.05c-0.07-0.01-0.11,0.04-0.17,0.04c-0.03,0-0.04-0.01-0.06-0.03
		c-0.05-0.02-0.1-0.04-0.15-0.05c-0.19-0.04-0.44-0.02-0.6,0.03c-0.03,0.01-0.07,0.02-0.09,0.04c-0.02,0.01-0.02,0.04-0.03,0.06
		c-0.05,0.1-0.1,0.21-0.13,0.32c-0.04,0.12-0.06,0.27-0.02,0.39c0.01,0.02,0.03,0.05,0.01,0.08c-0.01,0.03-0.04,0.05-0.05,0.08
		c-0.01,0.03-0.01,0.08,0,0.11c0.01,0.07,0.05,0.13,0.09,0.17c0.08,0.09,0.2,0.14,0.34,0.18c-0.18-0.01-0.33-0.06-0.46-0.12
		c-0.07-0.03-0.13-0.07-0.19-0.1c-0.05-0.03-0.11-0.07-0.15-0.1c-0.01,0-0.01-0.01-0.02-0.01c0.02,0.05,0,0.1-0.02,0.15
		c-0.04,0.1-0.08,0.21-0.11,0.31c-0.02,0.08-0.03,0.16-0.03,0.25c0,0.06,0.02,0.12,0.05,0.17c0,0.01,0.02,0.04,0.02,0.05
		c0,0.03-0.05,0.06-0.06,0.07c-0.02,0.02-0.05,0.05-0.06,0.08v0.02C37.9,13.1,38.17,13.12,38.43,13.09z"/>
	<path class="st0" d="M45.22,18.04c-0.01,0-0.03,0-0.04,0c-0.04,0-0.07-0.01-0.1-0.02c-0.06,0.1-0.14,0.19-0.26,0.23
		c0.06,0.08,0.09,0.23,0.05,0.36c0.03,0.01,0.07,0.02,0.11,0.02c0.15,0,0.26-0.1,0.31-0.21c0.03-0.06,0.04-0.14,0.02-0.22
		c-0.01-0.05-0.03-0.1-0.06-0.13C45.25,18.06,45.23,18.04,45.22,18.04z"/>
	<path class="st0" d="M45.24,14.58c0.13,0.02,0.25,0.06,0.37,0.1c0.12,0.04,0.25,0.07,0.39,0.09c0.29,0.04,0.61,0.01,0.85-0.05
		c0.26-0.06,0.49-0.15,0.76-0.18c0.15-0.02,0.31-0.01,0.44,0.01c0.13,0.02,0.26,0.06,0.38,0.09c0.25,0.07,0.51,0.12,0.83,0.11
		c0.29-0.01,0.54-0.09,0.78-0.17c0.12-0.04,0.24-0.08,0.38-0.09c0.15-0.01,0.31,0.01,0.44,0.02c0.01,0,0.02-0.01,0.03-0.02
		c0.11-0.11,0.22-0.22,0.32-0.33c0,0,0.01-0.01,0.01-0.01c-0.37-0.08-0.83-0.08-1.21-0.02c-0.13,0.02-0.24,0.05-0.36,0.08
		c-0.12,0.03-0.26,0.05-0.39,0.05c-0.14,0-0.27-0.01-0.4-0.04c-0.23-0.05-0.45-0.15-0.68-0.2c-0.12-0.03-0.25-0.04-0.39-0.05
		c-0.44-0.02-0.77,0.11-1.13,0.17c-0.06,0.01-0.13,0.02-0.19,0.03c-0.07,0.01-0.14,0.01-0.21,0.01c-0.14,0-0.26-0.03-0.37-0.06
		c-0.16-0.05-0.33-0.11-0.51-0.15c-0.05-0.01-0.14-0.03-0.19-0.03c-0.12,0-0.23,0.02-0.34,0.03c-0.33,0.05-0.65,0.1-0.95,0.18
		c0,0.01,0.01,0.01,0.01,0.01c0.07,0.08,0.14,0.15,0.22,0.22c0.07,0.07,0.15,0.14,0.22,0.22c0.01,0.01,0.01,0.01,0.02,0.01
		c0.02,0,0.03-0.01,0.05-0.01c0.05-0.01,0.11-0.01,0.16-0.02C44.8,14.57,45.03,14.54,45.24,14.58z"/>
	<path class="st0" d="M53.11,18.86c0.1-0.03,0.17-0.11,0.2-0.21c0.02-0.06,0.02-0.12,0.01-0.18c-0.02-0.11-0.09-0.19-0.17-0.23
		c-0.06-0.04-0.18-0.06-0.26-0.03c0.02,0.19-0.06,0.33-0.17,0.4c-0.01,0-0.02,0.01-0.02,0.02c0.01,0.03,0.02,0.05,0.03,0.07
		c0,0.01,0.01,0.01,0.02,0.02c0.01,0.01,0.03,0.03,0.04,0.04c0.01,0.01,0.01,0.02,0.02,0.02c0.01,0.01,0.02,0.02,0.03,0.02
		C52.9,18.86,53.01,18.9,53.11,18.86z"/>
	<path class="st0" d="M53.12,18.97c-0.08,0.02-0.18,0.02-0.25-0.01c0.03,0.1,0,0.23-0.04,0.31c0.03,0.06,0.07,0.11,0.12,0.15
		c0.05,0.04,0.12,0.07,0.21,0.06c0.07,0,0.13-0.04,0.18-0.08c0.05-0.04,0.08-0.1,0.09-0.17c0.04-0.16-0.05-0.3-0.14-0.37
		C53.26,18.9,53.2,18.95,53.12,18.97z"/>
	<path class="st0" d="M52.43,18.7c-0.05,0-0.09,0.02-0.13,0.04c-0.04,0.02-0.07,0.05-0.09,0.08c-0.04,0.06-0.08,0.15-0.06,0.26
		c0.01,0.09,0.06,0.16,0.11,0.22c0.06,0.05,0.14,0.09,0.24,0.09c0.1-0.01,0.17-0.05,0.21-0.11c0.05-0.06,0.08-0.15,0.07-0.26
		c-0.01-0.09-0.06-0.17-0.11-0.22C52.61,18.74,52.53,18.69,52.43,18.7z"/>
	<path class="st0" d="M52.16,18.66c0-0.12-0.06-0.21-0.13-0.27c-0.01-0.01-0.03-0.03-0.04-0.03c-0.02,0-0.04,0-0.06,0
		c-0.04,0-0.07-0.01-0.1-0.02c-0.01,0-0.03-0.02-0.05-0.02c-0.02,0-0.04,0.01-0.05,0.01c-0.04,0.01-0.06,0.02-0.09,0.04
		c-0.01,0.01-0.03,0.02-0.03,0.03c0,0.02,0,0.04,0,0.05c-0.01,0.05-0.02,0.09-0.04,0.13c0.15,0.07,0.24,0.19,0.26,0.39
		c0.08,0.01,0.14-0.01,0.19-0.04c0.01-0.01,0.04-0.02,0.04-0.03c0.01-0.01,0.01-0.04,0.02-0.05c0.01-0.04,0.03-0.06,0.05-0.09
		c0.01-0.01,0.03-0.03,0.03-0.04C52.16,18.71,52.16,18.68,52.16,18.66z"/>
	<path class="st0" d="M57.24,12.8c-0.02-0.01-0.06-0.05-0.06-0.07c0-0.01,0.02-0.04,0.02-0.05c0.02-0.05,0.04-0.1,0.05-0.17
		c0.01-0.09-0.01-0.17-0.03-0.25c-0.03-0.1-0.07-0.21-0.11-0.31c-0.02-0.05-0.04-0.1-0.02-0.15c-0.01,0-0.01,0.01-0.02,0.01
		c-0.05,0.04-0.1,0.07-0.15,0.1c-0.06,0.04-0.12,0.07-0.19,0.1c-0.13,0.06-0.28,0.11-0.46,0.12c0.14-0.04,0.26-0.09,0.34-0.18
		c0.04-0.05,0.07-0.1,0.09-0.17c0.01-0.04,0.01-0.09,0-0.11c-0.01-0.03-0.04-0.05-0.05-0.08c-0.01-0.03,0.01-0.06,0.01-0.08
		c0.04-0.12,0.02-0.27-0.02-0.39c-0.03-0.11-0.08-0.22-0.13-0.32c-0.01-0.02-0.01-0.05-0.03-0.06c-0.02-0.02-0.06-0.03-0.09-0.04
		c-0.16-0.06-0.41-0.08-0.6-0.03c-0.05,0.01-0.1,0.03-0.15,0.05c-0.02,0.01-0.04,0.03-0.06,0.03c-0.06,0-0.11-0.05-0.17-0.04
		c-0.03,0.01-0.07,0.03-0.1,0.05c-0.03,0.02-0.06,0.04-0.08,0.07c-0.05,0.05-0.08,0.12-0.1,0.19c-0.03,0.07-0.04,0.15-0.05,0.24
		c0,0.09,0.02,0.18,0.03,0.26c-0.08-0.16-0.15-0.34-0.2-0.54c-0.01-0.05-0.02-0.1-0.02-0.16c0-0.04,0-0.09-0.03-0.1
		c-0.03-0.01-0.06,0-0.08,0.01c-0.06,0.03-0.1,0.06-0.14,0.1c-0.01,0.01-0.02,0.02-0.02,0.02c0,0.01-0.01,0.03-0.01,0.04
		c-0.1,0.41-0.25,0.79-0.4,1.14c0.06,0.03,0.13,0.05,0.19,0.08c0.06,0.02,0.12,0.05,0.18,0.08c0.1,0.05,0.19,0.11,0.29,0.16
		c-0.04-0.05-0.07-0.1-0.09-0.15c-0.04-0.07-0.06-0.14-0.09-0.22l-0.01-0.02c-0.05-0.14-0.07-0.38-0.02-0.58l0.01-0.04l0.01,0.04
		c0.02,0.09,0.04,0.18,0.05,0.27c0.05,0.26,0.13,0.51,0.23,0.74c0,0,0,0,0,0l0,0c0.23-0.23,0.46-0.49,0.68-0.73
		c0.09-0.1,0.18-0.2,0.26-0.29c0.11-0.12,0.22-0.23,0.33-0.34l0.03-0.03l-0.01,0.04c-0.11,0.34-0.34,0.58-0.54,0.8
		c-0.04,0.04-0.08,0.08-0.12,0.12c-0.02,0.01-0.03,0.03-0.05,0.04c-0.18,0.17-0.36,0.31-0.55,0.41c0.18,0.08,0.42,0.12,0.67,0.12
		c0.09,0,0.18,0,0.27-0.01c0.15-0.01,0.31-0.04,0.46-0.09c0.17-0.05,0.29-0.1,0.38-0.16l0.05-0.04l-0.04,0.05
		c-0.04,0.06-0.11,0.09-0.17,0.13c-0.05,0.03-0.11,0.06-0.2,0.1c-0.15,0.06-0.31,0.1-0.47,0.12c-0.1,0.01-0.2,0.02-0.28,0.01
		c-0.27-0.01-0.49-0.09-0.67-0.16c0.1,0.21,0.23,0.41,0.38,0.58c0.08,0.09,0.18,0.16,0.29,0.22c0.11,0.06,0.24,0.1,0.39,0.12
		c0,0,0,0,0,0l0.04,0l-0.05,0.02c-0.05,0.01-0.1,0.02-0.15,0.02c-0.14,0-0.26-0.04-0.3-0.06c-0.11-0.04-0.22-0.12-0.31-0.21
		c-0.18-0.18-0.29-0.42-0.33-0.71c-0.06-0.03-0.13-0.05-0.2-0.07c-0.08-0.02-0.16-0.05-0.23-0.08c-0.11-0.05-0.2-0.11-0.27-0.17
		l-0.02-0.02c-0.02-0.01-0.04-0.03-0.05-0.04c-0.05,0.12-0.11,0.24-0.17,0.35c-0.06,0.12-0.13,0.24-0.19,0.36
		c0.1,0.02,0.2,0.02,0.29,0.01c0.09-0.01,0.17-0.04,0.24-0.07c0.1-0.05,0.2-0.11,0.3-0.17c0.02-0.01,0.03-0.02,0.05-0.03
		c0.01-0.01,0.04-0.02,0.06-0.02c0.03,0.01,0.01,0.11,0.01,0.14c-0.03,0.14-0.07,0.26-0.08,0.41c-0.02,0.22,0.05,0.38,0.15,0.49
		c0.1,0.11,0.25,0.18,0.41,0.24c0.11,0.04,0.27,0.07,0.43,0.05c0.02,0,0.05-0.01,0.07-0.01c0.02,0,0.05-0.01,0.06-0.02
		c0.03-0.02,0.02-0.08,0.02-0.12c0.08,0,0.16,0,0.22-0.01c0.06-0.02,0.12-0.04,0.17-0.06c0.11-0.05,0.2-0.13,0.27-0.21
		c-0.13-0.08-0.25-0.16-0.36-0.27c-0.02-0.02-0.03-0.03-0.05-0.05c-0.01-0.02-0.04-0.04-0.04-0.07c0-0.02,0.05-0.02,0.08-0.02
		c0.09,0.01,0.17,0.03,0.25,0.04c0.11,0.02,0.22,0.04,0.34,0.06c0.25,0.03,0.52,0.01,0.58-0.19v-0.02
		C57.29,12.85,57.27,12.82,57.24,12.8z"/>
	<path class="st0" d="M56.94,18.61c-0.07-0.02-0.14,0.01-0.17,0.05c-0.01,0.01-0.02,0.03-0.02,0.05c0,0,0.01,0.01,0.02,0.01
		c0.01,0,0,0,0.01,0c0,0,0.01-0.01,0.01-0.02c0.01-0.01,0.03-0.02,0.04-0.02c0.04-0.01,0.08,0.01,0.1,0.03
		c0.05,0.04,0.09,0.09,0.09,0.17c0,0.17-0.17,0.2-0.34,0.17c-0.14-0.02-0.28-0.08-0.37-0.15c-0.04-0.03-0.11-0.09-0.1-0.16
		c0-0.04,0.03-0.06,0.05-0.08c0.03-0.02,0.05-0.04,0.08-0.06c0.11-0.07,0.22-0.13,0.3-0.22c0.04-0.05,0.07-0.11,0.08-0.18
		c0.01-0.09-0.01-0.16-0.04-0.22c-0.11-0.24-0.39-0.31-0.75-0.3c-0.02-0.31-0.17-0.49-0.39-0.6c-0.11-0.06-0.22-0.11-0.37-0.12
		c-0.16-0.01-0.29,0.02-0.39,0.1c-0.09,0.07-0.16,0.19-0.14,0.34c0.02,0.14,0.09,0.24,0.19,0.3c0.21,0.13,0.54,0.12,0.85,0.13
		c-0.04,0.15-0.12,0.26-0.24,0.33c-0.12,0.07-0.31,0.09-0.48,0.06c-0.16-0.02-0.31-0.07-0.45-0.12c-0.14-0.05-0.27-0.11-0.39-0.18
		c-0.25-0.13-0.48-0.28-0.7-0.44c-0.22-0.16-0.43-0.34-0.57-0.57c-0.01,0-0.02,0.01-0.02,0.01c0.06,0.16,0.16,0.29,0.26,0.41
		c0.1,0.12,0.21,0.23,0.33,0.34c0.3,0.26,0.63,0.49,1.01,0.67c0.08,0.03,0.16,0.07,0.24,0.1c0.17,0.05,0.36,0.1,0.58,0.09
		c0.2-0.02,0.36-0.09,0.46-0.21c0.11-0.12,0.18-0.27,0.21-0.46c0.19,0.02,0.37,0.04,0.48,0.13c0.03,0.02,0.05,0.05,0.07,0.09
		c0.01,0.04,0.03,0.08,0.01,0.13c-0.01,0.04-0.04,0.06-0.07,0.08c-0.03,0.02-0.06,0.04-0.09,0.06c-0.13,0.08-0.26,0.15-0.33,0.29
		c-0.03,0.08-0.03,0.18,0,0.26c0.03,0.07,0.07,0.13,0.13,0.18c0.11,0.09,0.25,0.16,0.42,0.19c0.08,0.02,0.19,0.02,0.28,0.01
		c0.18-0.02,0.32-0.1,0.35-0.26c0.02-0.09-0.01-0.19-0.05-0.25C57.08,18.68,57.01,18.63,56.94,18.61z M55.11,17.65
		c-0.09-0.02-0.17-0.04-0.22-0.1c-0.03-0.03-0.05-0.06-0.05-0.11c0-0.05,0.01-0.1,0.03-0.13c0.05-0.09,0.17-0.14,0.3-0.14
		c0.17-0.01,0.3,0.05,0.39,0.13c0.09,0.08,0.15,0.19,0.14,0.37C55.51,17.67,55.3,17.69,55.11,17.65z"/>
	<path class="st0" d="M50.07,18.02c-0.03,0.01-0.07,0.02-0.11,0.02c-0.01,0-0.03,0-0.04,0c-0.01,0-0.02,0.02-0.02,0.02
		c-0.05,0.05-0.08,0.13-0.08,0.22c0,0.11,0.04,0.19,0.1,0.25c0.08,0.08,0.22,0.14,0.35,0.09c-0.04-0.13,0-0.29,0.05-0.36
		C50.2,18.21,50.12,18.13,50.07,18.02z"/>
	<path class="st0" d="M44.98,17.97c-0.09-0.07-0.16-0.15-0.18-0.29h0c-0.06,0.02-0.15,0.03-0.21,0.01
		c-0.01,0.15-0.08,0.25-0.17,0.33c0.06,0.09,0.15,0.17,0.3,0.15C44.85,18.15,44.93,18.07,44.98,17.97z"/>
	<path class="st0" d="M49.29,19.09c-0.04-0.02-0.08-0.05-0.12-0.08c-0.01-0.01-0.03-0.02-0.03-0.04c0-0.02,0.03-0.03,0.06-0.04
		c0.08-0.02,0.18-0.02,0.27-0.01c0.12,0.01,0.24,0.02,0.35,0.03c0.03-0.07,0.01-0.15-0.01-0.21c-0.04-0.12-0.1-0.22-0.17-0.32
		c-0.03-0.03-0.05-0.07-0.08-0.1c-0.01-0.01-0.02-0.02-0.03-0.04c0-0.06,0.04-0.11,0.03-0.16c0-0.02-0.02-0.04-0.04-0.05
		c-0.19-0.17-0.42-0.31-0.78-0.3c-0.02,0-0.05,0-0.07,0c0,0,0,0,0,0c-0.04,0.02-0.09,0.05-0.13,0.08c-0.13,0.08-0.26,0.16-0.4,0.23
		c-0.18,0.1-0.37,0.2-0.54,0.29c-0.34-0.18-0.69-0.35-1.02-0.55c-0.22,0-0.4,0.06-0.55,0.15C46,18,45.96,18.02,45.96,18.05
		c0,0.02,0.02,0.04,0.02,0.06c0.01,0.01,0.03,0.04,0.03,0.05c0,0-0.02,0.02-0.03,0.02c-0.11,0.07-0.22,0.14-0.32,0.23
		c-0.02,0.01-0.03,0.03-0.05,0.05c-0.01,0.01-0.05,0.04-0.04,0.06c0,0.01,0.01,0,0.03,0c0.06,0,0.13,0.01,0.18,0.02
		c0.17,0.02,0.34,0.05,0.48,0.1c0.03,0.01,0.05,0.02,0.07,0.04c-0.02,0.02-0.05,0.02-0.08,0.03c-0.08,0.02-0.18,0.03-0.26,0.04
		c-0.12,0.02-0.23,0.04-0.34,0.07c-0.1,0.03-0.2,0.08-0.23,0.18c-0.03,0.09-0.02,0.22,0,0.32c0,0.02,0,0.03,0.01,0.04
		c0.02,0.04,0.09,0.02,0.14,0.03c-0.05,0.23,0.02,0.46,0.09,0.63c0.01,0.03,0.03,0.06,0.04,0.08c0.01,0.02,0.04,0.06,0.07,0.06
		c0.02,0,0.04-0.02,0.06-0.03c0.14-0.08,0.27-0.17,0.4-0.25c0.11-0.07,0.23-0.14,0.36-0.21c0.02-0.01,0.04-0.02,0.07-0.03
		c0.02-0.01,0.07-0.03,0.08,0c0.01,0.02-0.02,0.05-0.03,0.06c-0.04,0.05-0.1,0.1-0.14,0.14c-0.06,0.06-0.12,0.13-0.17,0.21
		c-0.02,0.04-0.05,0.08-0.05,0.13c-0.02,0.1-0.01,0.25,0.01,0.35c0,0.02,0.01,0.05,0.02,0.08c0.01,0.03,0.01,0.07,0.05,0.07
		c0.03,0,0.05-0.02,0.08-0.03c0.03-0.01,0.07-0.03,0.09-0.02c0.01,0,0.02,0.03,0.03,0.05c0.1,0.18,0.25,0.32,0.42,0.43
		c0.06,0.04,0.12,0.08,0.19,0.12h0c0.28-0.1,0.51-0.25,0.69-0.46c0.01-0.01,0.03-0.04,0.05-0.04c0.05-0.01,0.1,0.04,0.14,0.01
		c0.03-0.02,0.05-0.05,0.07-0.07c0.07-0.08,0.11-0.17,0.13-0.3c0.01-0.09,0-0.19-0.01-0.27c-0.01-0.06-0.02-0.12-0.03-0.18
		c0-0.02,0-0.06,0.01-0.06c0.01-0.01,0.04,0,0.06,0.01c0.05,0.02,0.08,0.06,0.11,0.1c0.04,0.06,0.06,0.13,0.08,0.2
		c0.04,0.15,0.05,0.31,0.06,0.5c0.29-0.1,0.54-0.25,0.75-0.43c0.05-0.05,0.1-0.1,0.14-0.15c0.01-0.02,0.03-0.04,0.05-0.05
		c0.02,0.01,0.03,0.04,0.07,0.04c0.03,0,0.05-0.04,0.07-0.06c0.06-0.07,0.13-0.14,0.16-0.23c0.03-0.07,0.04-0.15,0.02-0.22
		c-0.02-0.07-0.05-0.12-0.1-0.17C49.63,19.28,49.46,19.19,49.29,19.09z M47.8,18.58c0.06-0.03,0.13-0.06,0.19-0.08
		c0.1-0.03,0.2-0.04,0.32-0.05c0.1,0,0.2,0,0.29,0.02c0.23,0.03,0.42,0.08,0.61,0.16c0.01,0.01,0.03,0.01,0.05,0.02
		c0.01,0,0.05,0.02,0.04,0.03c-0.01,0.01-0.05,0-0.06,0c-0.38-0.08-0.81-0.15-1.26-0.11c-0.07,0.01-0.14,0.02-0.22,0.03
		c-0.01,0-0.02,0.01-0.03,0C47.74,18.61,47.79,18.58,47.8,18.58z M46.29,18.4c-0.01-0.01,0.02-0.02,0.03-0.02
		c0.1-0.03,0.21-0.05,0.34-0.05c0.19-0.01,0.36,0.02,0.5,0.07c0.12,0.04,0.23,0.1,0.31,0.18c0.01,0.01,0.03,0.02,0.03,0.04
		c-0.01,0.01-0.02,0-0.03-0.01c-0.14-0.08-0.31-0.14-0.51-0.17c-0.18-0.03-0.38-0.04-0.59-0.04C46.35,18.41,46.29,18.41,46.29,18.4z
		 M47.6,19.19c-0.03,0.16-0.06,0.31-0.1,0.46c-0.03,0.15-0.07,0.3-0.1,0.45c-0.04,0.15-0.08,0.3-0.11,0.44
		c-0.05-0.14-0.04-0.34-0.02-0.5c0.04-0.33,0.12-0.61,0.21-0.89c0.04-0.14,0.09-0.28,0.11-0.44c-0.18,0.05-0.35,0.11-0.51,0.18
		c-0.16,0.08-0.29,0.17-0.43,0.26c-0.13,0.1-0.26,0.2-0.37,0.32c-0.06,0.06-0.11,0.12-0.17,0.18c-0.05,0.05-0.11,0.11-0.16,0.17
		c0,0-0.01,0.01-0.01,0.01c0.04-0.18,0.15-0.31,0.27-0.42c0.23-0.24,0.48-0.43,0.81-0.57c0.16-0.07,0.34-0.13,0.57-0.12
		c0.01,0,0,0,0.01-0.01c0,0,0.01,0,0.01,0c0,0,0,0,0,0C47.65,18.84,47.62,19.04,47.6,19.19z M48.86,20.22
		c0.01-0.11-0.01-0.21-0.04-0.3c-0.09-0.26-0.24-0.45-0.41-0.62c-0.12-0.11-0.25-0.22-0.38-0.31c-0.14-0.1-0.28-0.18-0.41-0.28
		c0,0,0,0,0,0c0.18,0.05,0.34,0.13,0.49,0.22c0.22,0.13,0.41,0.29,0.56,0.49c0.1,0.13,0.19,0.28,0.22,0.49
		C48.89,20,48.9,20.13,48.86,20.22z"/>
	<path class="st0" d="M51.5,18.68C51.5,18.68,51.5,18.68,51.5,18.68c-0.04,0.04-0.09,0.08-0.16,0.11c-0.06,0.02-0.14,0.04-0.22,0.02
		c-0.03,0.06-0.05,0.13-0.04,0.21c0.01,0.08,0.04,0.13,0.08,0.18c0.04,0.05,0.09,0.09,0.15,0.11c0.07,0.02,0.15,0.02,0.22,0
		c0.06-0.03,0.11-0.06,0.14-0.12c0.03-0.05,0.06-0.12,0.05-0.21C51.7,18.83,51.62,18.74,51.5,18.68z"/>
	<path class="st0" d="M50.79,18.19c-0.02-0.01-0.04-0.01-0.06-0.02c0,0,0,0,0,0c-0.07,0.06-0.16,0.1-0.29,0.1
		c-0.05,0.06-0.09,0.15-0.08,0.25c0.01,0.1,0.05,0.17,0.11,0.23c0.05,0.05,0.14,0.1,0.24,0.09c0.1-0.01,0.17-0.05,0.22-0.12
		c-0.06-0.06-0.12-0.13-0.15-0.22C50.75,18.42,50.75,18.28,50.79,18.19z"/>
	<path class="st0" d="M51.29,18.7c0.11-0.04,0.19-0.13,0.21-0.26c0.01-0.07,0-0.14-0.03-0.2c-0.08-0.04-0.14-0.09-0.19-0.16
		c-0.01-0.01-0.01-0.03-0.02-0.03c-0.01-0.01-0.02-0.01-0.03-0.01c0,0,0,0,0,0c-0.06,0.04-0.13,0.07-0.22,0.07
		c-0.01,0-0.03,0-0.04,0c-0.01,0-0.02,0.02-0.03,0.03c-0.03,0.03-0.05,0.07-0.06,0.11c-0.02,0.06-0.02,0.14,0,0.2
		c0.03,0.12,0.11,0.21,0.22,0.24C51.16,18.72,51.23,18.72,51.29,18.7z"/>
	<path class="st0" d="M49.84,17.92c0.06,0.02,0.14,0.02,0.2,0c0.1-0.04,0.17-0.12,0.19-0.22c0-0.01,0.01-0.04,0.01-0.05
		c0-0.01-0.03-0.02-0.04-0.03c-0.09-0.07-0.16-0.17-0.17-0.33c-0.04-0.01-0.08-0.03-0.14-0.03c-0.14,0.01-0.23,0.1-0.27,0.21
		c-0.02,0.06-0.02,0.14-0.01,0.2C49.64,17.79,49.72,17.88,49.84,17.92z"/>
	<path class="st0" d="M50.17,17.08c-0.03,0.06-0.05,0.13-0.04,0.21c0.01,0.07,0.04,0.14,0.07,0.18c0.03,0.05,0.08,0.09,0.14,0.11
		c0.06,0.03,0.14,0.04,0.22,0.01c0.02-0.11,0.07-0.19,0.14-0.25c0.02-0.02,0.05-0.03,0.08-0.05c0-0.01,0-0.02,0-0.03
		c-0.12-0.06-0.21-0.16-0.25-0.3C50.44,17.03,50.33,17.09,50.17,17.08z"/>
	<path class="st0" d="M53.63,13.15c-0.01,0-0.02,0-0.03,0c-0.01,0-0.02,0.03-0.02,0.04c-0.05,0.08-0.1,0.15-0.15,0.23
		c0,0-0.01,0.01-0.01,0.02c0.3-0.09,0.57-0.23,0.8-0.38c0.08-0.05,0.16-0.11,0.22-0.18c-0.11,0.07-0.25,0.12-0.39,0.17
		C53.93,13.08,53.79,13.12,53.63,13.15z"/>
	<path class="st0" d="M43.52,18.18c0.16-0.02,0.25-0.11,0.3-0.23c-0.05-0.08-0.09-0.18-0.08-0.31c0-0.01,0.01-0.04,0-0.05
		c0,0-0.03,0.01-0.04,0.01c-0.11,0.02-0.2-0.01-0.27-0.05c-0.01-0.01-0.02-0.01-0.03-0.02c0.09,0.06,0.17,0.15,0.2,0.28
		c0.03,0.14-0.02,0.27-0.07,0.35C43.53,18.17,43.52,18.18,43.52,18.18z"/>
	<path class="st0" d="M44.18,18.02c0.09-0.01,0.17-0.05,0.22-0.11c0.05-0.06,0.09-0.13,0.09-0.24c0-0.11-0.04-0.18-0.09-0.24
		c-0.05-0.05-0.13-0.1-0.24-0.09c-0.1,0.01-0.17,0.06-0.22,0.11c-0.05,0.05-0.09,0.14-0.09,0.24c0,0.11,0.04,0.18,0.09,0.24
		C43.99,17.98,44.07,18.03,44.18,18.02z"/>
	<path class="st0" d="M51.53,17.5c0.09-0.01,0.16-0.05,0.21-0.11c0.05-0.06,0.08-0.15,0.07-0.25c-0.01-0.09-0.05-0.16-0.11-0.22
		c-0.05-0.05-0.13-0.1-0.23-0.09c-0.05,0-0.09,0.01-0.12,0.03c0,0.17-0.07,0.27-0.16,0.34c-0.01,0-0.01,0.01-0.02,0.02
		c0,0.02,0.01,0.04,0.01,0.06c0.01,0.02,0.01,0.04,0.02,0.05c0.01,0.01,0.02,0.02,0.03,0.03c0.03,0.03,0.06,0.07,0.09,0.1
		C51.39,17.48,51.44,17.51,51.53,17.5z"/>
	<path class="st0" d="M49.99,16.88c0.05,0.05,0.11,0.08,0.2,0.09c0.09,0.01,0.17-0.02,0.22-0.07c0.05-0.04,0.1-0.1,0.12-0.17
		c0.02-0.08,0.01-0.18-0.03-0.24C50.33,16.63,50.16,16.76,49.99,16.88z"/>
	<path class="st0" d="M50.42,18.17c0.15,0.02,0.25-0.06,0.3-0.15c-0.09-0.08-0.15-0.17-0.17-0.32c-0.07,0.01-0.16,0.01-0.21-0.01
		c0,0,0,0,0,0c-0.02,0.13-0.09,0.22-0.18,0.29C50.21,18.07,50.29,18.15,50.42,18.17z"/>
	<path class="st0" d="M52.38,18.58c0.07,0.02,0.14,0.02,0.2,0c0.11-0.04,0.19-0.14,0.2-0.29c0-0.07-0.02-0.14-0.05-0.2
		c-0.06-0.11-0.19-0.2-0.36-0.17c0,0.21-0.1,0.32-0.23,0.4C52.19,18.45,52.26,18.54,52.38,18.58z"/>
	<path class="st0" d="M51.02,18.02c0.1-0.01,0.16-0.06,0.21-0.12c0.05-0.06,0.08-0.15,0.06-0.26c-0.01-0.04-0.02-0.09-0.04-0.12
		c-0.06-0.1-0.16-0.19-0.32-0.18c-0.1,0.01-0.17,0.06-0.21,0.12c-0.02,0.03-0.04,0.07-0.05,0.11c-0.04,0.16,0.03,0.29,0.11,0.36
		C50.83,17.98,50.92,18.03,51.02,18.02z"/>
	<path class="st0" d="M52.36,17.79c0.11,0.01,0.19-0.03,0.25-0.09c0.06-0.06,0.1-0.14,0.09-0.25c-0.01-0.1-0.05-0.18-0.11-0.24
		c-0.06-0.06-0.14-0.1-0.25-0.09c-0.1,0.01-0.17,0.06-0.22,0.12c-0.05,0.06-0.08,0.16-0.06,0.27C52.21,17.55,52.3,17.65,52.36,17.79
		z"/>
	<path class="st0" d="M51.98,18.26c0.1,0,0.17-0.05,0.22-0.11c0.05-0.06,0.08-0.14,0.08-0.25c-0.01-0.1-0.05-0.17-0.1-0.22
		c-0.05-0.05-0.13-0.1-0.23-0.1c-0.11,0-0.18,0.05-0.23,0.11c-0.05,0.06-0.08,0.14-0.07,0.25c0.01,0.1,0.05,0.17,0.11,0.22
		C51.8,18.22,51.88,18.26,51.98,18.26z"/>
	<path class="st0" d="M41.72,13.43c0-0.01,0-0.01-0.01-0.02c-0.05-0.08-0.1-0.15-0.15-0.23c-0.01-0.01-0.02-0.03-0.02-0.04
		c-0.01,0-0.02,0-0.03,0c-0.15-0.03-0.29-0.06-0.42-0.1c-0.15-0.05-0.28-0.1-0.39-0.17c0.06,0.07,0.14,0.13,0.22,0.18
		C41.16,13.21,41.42,13.35,41.72,13.43z"/>
	<path class="st0" d="M40.8,16.94c0.14,0.06,0.27,0.1,0.43,0.13c0.09,0.02,0.19,0.04,0.29,0.03c0.29-0.02,0.43-0.22,0.53-0.44
		c0.05-0.11,0.08-0.24,0.13-0.35c0.01-0.03,0.04-0.09,0.06-0.1c0.03-0.02,0.07,0.02,0.09,0.03c0.02,0.02,0.03,0.04,0.04,0.06
		c0.08,0.13,0.13,0.28,0.18,0.44c0.08-0.01,0.14-0.04,0.19-0.08c0.16-0.11,0.29-0.25,0.38-0.44c0.02,0.01,0.03,0.04,0.06,0.04
		c0.02,0,0.03-0.02,0.04-0.03c0.08-0.09,0.15-0.19,0.2-0.3c0.03-0.07,0.06-0.14,0.07-0.22c0.01-0.09-0.01-0.18-0.04-0.24
		c-0.07-0.07-0.14-0.14-0.21-0.21c-0.03-0.03-0.05-0.05-0.08-0.08c-0.01-0.01-0.02-0.01-0.03-0.02c-0.04-0.02-0.09-0.05-0.14-0.07
		c-0.1-0.04-0.2-0.08-0.32-0.09c-0.06-0.01-0.13-0.01-0.2,0c-0.1,0.01-0.22,0.02-0.24-0.07c-0.02-0.05,0.04-0.1,0.06-0.12
		c0.1-0.09,0.21-0.16,0.3-0.25c-0.24-0.27-0.47-0.57-0.68-0.87c-0.01-0.01-0.02-0.03-0.02-0.03c-0.01-0.01-0.03-0.01-0.05-0.02
		c-0.09-0.04-0.17-0.07-0.28-0.1c-0.02,0-0.04-0.01-0.05,0c-0.01,0.01,0,0.03,0.01,0.04c0.04,0.09,0.06,0.18,0.08,0.28
		c0.02,0.08,0.05,0.17,0.04,0.28c0,0.03-0.01,0.07-0.03,0.08c-0.01,0-0.03-0.01-0.04-0.02c-0.04-0.03-0.06-0.07-0.09-0.1
		c-0.11-0.14-0.22-0.29-0.36-0.39c-0.05-0.04-0.11-0.06-0.18-0.07c-0.08,0-0.15,0.01-0.22,0.02c-0.1,0.02-0.19,0.05-0.28,0.09
		c-0.02,0.01-0.07,0.03-0.07,0.05c0,0.02,0.02,0.04,0.03,0.05c0.02,0.01,0.03,0.02,0.04,0.04c-0.11,0.07-0.23,0.14-0.35,0.21
		c-0.09,0.05-0.17,0.1-0.26,0.16c-0.02,0.01-0.07,0.05-0.07,0.07c0,0.01,0.03,0.03,0.04,0.03c0.24,0.15,0.5,0.28,0.74,0.42
		c-0.1-0.04-0.22-0.07-0.34-0.1c-0.12-0.03-0.24-0.06-0.38-0.07c-0.07,0-0.14,0-0.19,0.03c-0.05,0.03-0.08,0.07-0.11,0.11
		c-0.06,0.07-0.11,0.14-0.16,0.22c-0.01,0.01-0.02,0.02-0.02,0.04c0,0.02,0.03,0.04,0.04,0.06c0.02,0.02,0.03,0.03,0.05,0.05
		c-0.19,0.16-0.34,0.35-0.47,0.57c0.18,0.08,0.36,0.16,0.56,0.23c0.01,0,0.03,0.01,0.04,0.02c0,0.01,0,0.04,0,0.05
		c0,0.02-0.01,0.04,0,0.05c0.01,0.02,0.02,0.02,0.04,0.03c0.09,0.04,0.17,0.08,0.28,0.1c0.12,0.03,0.27,0.02,0.39,0
		c0.12-0.02,0.23-0.06,0.34-0.1c0.08-0.03,0.16-0.06,0.24-0.09c0.02-0.01,0.08-0.02,0.09-0.01c0.01,0.01,0,0.05-0.01,0.07
		c-0.03,0.06-0.08,0.1-0.13,0.13c-0.2,0.14-0.45,0.23-0.7,0.32c0,0,0,0.01,0,0.01c0.01,0.01,0.02,0.02,0.02,0.02
		c0.18,0.15,0.4,0.25,0.67,0.31c-0.01,0.02-0.03,0.03-0.02,0.06C40.76,16.93,40.78,16.94,40.8,16.94z M40.72,16.51
		c0.32-0.12,0.59-0.3,0.8-0.53c0.21-0.23,0.42-0.47,0.47-0.86c-0.3,0.15-0.67,0.25-1.05,0.31c-0.39,0.07-0.8,0.11-1.25,0.11
		c0.36-0.11,0.74-0.18,1.13-0.25c0.19-0.04,0.39-0.07,0.59-0.11s0.39-0.07,0.58-0.11c-0.27-0.17-0.58-0.29-0.89-0.42
		c-0.23-0.1-0.46-0.2-0.69-0.3c-0.08-0.03-0.16-0.07-0.24-0.09c0.1-0.03,0.2-0.01,0.29,0.01c0.18,0.04,0.34,0.1,0.49,0.17
		c0.38,0.17,0.71,0.38,1.06,0.58c0.04-0.27,0.09-0.54,0.07-0.85c0,0,0,0,0,0c0.05,0.12,0.07,0.28,0.07,0.45
		c-0.01,0.16-0.04,0.31-0.08,0.44c0.21,0.14,0.42,0.3,0.54,0.54c0.06,0.12,0.11,0.25,0.13,0.41c0.02,0.15,0.02,0.35-0.02,0.49
		c-0.04-0.3-0.11-0.58-0.22-0.81c-0.11-0.23-0.25-0.44-0.45-0.58c-0.06,0.17-0.12,0.33-0.19,0.49c-0.07,0.16-0.14,0.31-0.25,0.43
		c-0.11,0.12-0.23,0.22-0.38,0.31C41.08,16.42,40.92,16.49,40.72,16.51z"/>
	<path class="st0" d="M44.22,16.41c0.14,0,0.23,0.04,0.3,0.11c0,0,0.01,0.01,0.01,0.01c0.01-0.03,0.02-0.05,0.03-0.08
		c-0.1-0.09-0.21-0.17-0.32-0.26C44.22,16.24,44.2,16.33,44.22,16.41z"/>
	<path class="st0" d="M44.42,17.23c-0.01,0.01-0.03,0.01-0.04,0.03c0,0.01,0,0.02,0,0.03c0.11,0.06,0.19,0.16,0.21,0.3
		c0.16,0.05,0.29-0.03,0.36-0.12c0.04-0.05,0.06-0.11,0.07-0.18c0.01-0.08-0.01-0.15-0.04-0.21c-0.16,0.01-0.26-0.05-0.34-0.12
		c0,0,0,0,0,0C44.59,17.08,44.52,17.17,44.42,17.23z"/>
	<path class="st0" d="M43.93,17.32c0.02-0.03,0.03-0.06,0.04-0.1c-0.1-0.08-0.17-0.18-0.17-0.36c-0.04-0.02-0.08-0.03-0.13-0.03
		c-0.12,0-0.2,0.06-0.25,0.13c-0.05,0.07-0.09,0.19-0.07,0.3c0.02,0.1,0.08,0.18,0.17,0.22c0.04,0.02,0.1,0.03,0.16,0.03
		c0.06-0.01,0.1-0.02,0.14-0.05c0.02-0.04,0.05-0.08,0.09-0.1C43.91,17.34,43.92,17.33,43.93,17.32z"/>
	<path class="st0" d="M44.11,16.07c-0.01-0.01-0.02-0.02-0.03-0.03c-0.02-0.02-0.05-0.05-0.07-0.06c-0.03-0.02-0.08-0.03-0.13-0.02
		c-0.09,0-0.18,0.05-0.23,0.1c-0.05,0.06-0.09,0.13-0.1,0.23c-0.01,0.1,0.03,0.18,0.08,0.24c0.05,0.06,0.12,0.1,0.23,0.1
		c0.06-0.1,0.14-0.17,0.26-0.21c-0.02-0.11,0-0.22,0.04-0.3C44.15,16.1,44.13,16.09,44.11,16.07z"/>
	<path class="st0" d="M43.4,18.16c0.06-0.05,0.1-0.13,0.1-0.23c0-0.05,0-0.1-0.02-0.14c-0.04-0.11-0.14-0.21-0.29-0.21
		c-0.1,0-0.18,0.05-0.23,0.1c-0.05,0.05-0.09,0.13-0.1,0.23c-0.01,0.1,0.03,0.19,0.08,0.25c0.05,0.06,0.13,0.1,0.23,0.1
		C43.27,18.26,43.35,18.22,43.4,18.16z"/>
	<path class="st0" d="M43.93,16.72c-0.03,0.06-0.04,0.14-0.02,0.21c0.02,0.13,0.12,0.23,0.25,0.25c0.08,0.01,0.15-0.01,0.2-0.04
		c0.08-0.04,0.14-0.11,0.17-0.21c0.01-0.02,0.02-0.07,0.02-0.11c0-0.01-0.01-0.02-0.01-0.03c-0.01-0.02-0.02-0.05-0.02-0.08
		c0-0.01,0-0.03,0-0.04c0-0.01-0.01-0.02-0.02-0.03c-0.05-0.08-0.14-0.14-0.27-0.13c-0.04,0-0.07,0.01-0.1,0.02
		C44.03,16.57,43.96,16.64,43.93,16.72z"/>
	<path class="st0" d="M44.91,16.98c0.11,0.01,0.18-0.03,0.24-0.08c-0.17-0.12-0.34-0.25-0.5-0.38c-0.03,0.05-0.04,0.11-0.04,0.17
		c0,0.06,0.02,0.11,0.05,0.15C44.71,16.91,44.8,16.97,44.91,16.98z"/>
	<path class="st0" d="M42.57,18.58c0.06,0.02,0.14,0.02,0.2,0c0.11-0.04,0.19-0.13,0.22-0.25c-0.13-0.08-0.23-0.19-0.23-0.4
		c-0.18-0.03-0.31,0.07-0.37,0.19c-0.03,0.06-0.04,0.12-0.04,0.2C42.37,18.45,42.46,18.54,42.57,18.58z"/>
	<path class="st0" d="M43.49,16.77c-0.04-0.01-0.08-0.03-0.13-0.02c-0.19,0.02-0.3,0.16-0.32,0.35c0.08,0.07,0.14,0.16,0.15,0.29
		c0.03,0.02,0.07,0.03,0.1,0.04c0-0.01-0.01-0.01-0.01-0.02c-0.03-0.05-0.04-0.1-0.05-0.16c-0.01-0.08,0-0.15,0.02-0.22
		C43.3,16.91,43.38,16.82,43.49,16.77z"/>
	<path class="st0" d="M42.77,17.11c-0.1,0.01-0.17,0.05-0.22,0.11c-0.05,0.06-0.09,0.14-0.09,0.25c0,0.1,0.04,0.18,0.1,0.23
		c0.06,0.05,0.13,0.09,0.24,0.08c0.05-0.14,0.15-0.24,0.3-0.29c0.02-0.12-0.02-0.21-0.07-0.28C42.97,17.16,42.88,17.1,42.77,17.11z"
		/>
</g>
</svg>
