<svg xmlns="http://www.w3.org/2000/svg" viewBox="0 0 95 35" xmlns:v="https://vecta.io/nano"><g fill-rule="evenodd" fill="#343741"><path d="M67.55 22.46v.32l.01 2.79c.02.97.55 1.61 1.48 1.85a2.36 2.36 0 0 0 2.1-.42l.27-.2v.69h2.69c-.35-.16-.44-.45-.48-.78l-.02-.37V21.7c0-.1-.01-.21-.02-.32l-2.67.11c.42.2.47.56.48.92v2.63c0 .21-.04.43-.11.63a.69.69 0 0 1-.65.48c-.52.04-.84-.28-.85-.87v-3.59-.3c-.11-.01-.2-.01-.29-.01h-5.92c-.7 0-1.37.11-1.97.49-1.14.71-1.31 2.16-.36 3.1.27.27.61.47.91.69l-.59.17c-.2.07-.3.21-.28.43.06.73.56 1.21 1.29 1.25l.51.01c.41.04.84.06 1.24.17.36.1.55.41.56.8.01.41-.16.71-.54.87-.5.21-1.01.24-1.52.05-.31-.11-.57-.29-.64-.63-.08-.33.07-.58.4-.76-.62-.09-1.18-.12-1.71.14-.77.38-.87 1.28-.17 1.78.29.2.62.36.95.47.93.31 1.89.26 2.84.18.67-.06 1.32-.23 1.88-.63 1.11-.8 1.03-2.42-.16-3.08-.28-.16-.61-.27-.93-.31-.62-.06-1.25-.04-1.87-.06-.21-.01-.49 0-.5-.28-.02-.29.26-.25.46-.28.74-.1 1.46-.26 2.12-.63 1.01-.58 1.25-1.72.56-2.66l-.13-.18.16-.02h1.47zm-20.17.51l1.36-.36c.38-.08.77-.06 1.11.17.32.22.33.59 0 .79-.2.12-.44.19-.67.25-.59.17-1.2.27-1.77.5-.61.24-.95.74-.98 1.41s.42 1.24 1.17 1.54c.67.26 1.37.23 2.06.22.05 0 .12-.03.14-.06l.41-.82c-.3-.04-.59-.03-.84-.12a.73.73 0 0 1-.24-1.27c.3-.26.67-.33 1.07-.41v.81c0 1.01.51 1.63 1.49 1.83a3.14 3.14 0 0 0 .61.05h3.94.28c-.41-.23-.49-.59-.5-.99v-2.73a1.24 1.24 0 0 1 .03-.27c.09-.51.45-.81.93-.77.45.03.66.3.66.87v2.97.9h2.71c-.4-.26-.51-.45-.53-.92v-.27-2.97c-.01-1.02-.59-1.7-1.58-1.9-.72-.15-1.36.02-1.95.44l-.24.18-.03-.67-2.67.11c.45.2.48.6.48.98v3.89c0 .08-.01.15-.02.22-.91.17-1.42-.25-1.43-1.15l-.02-1.8c-.02-1.14-.52-1.8-1.62-2.1-.92-.26-1.84-.19-2.76.02-.07.02-.16.09-.18.16l-.42 1.27zm33.89-1.5c.35.16.44.46.48.8.01.08.01.16.01.24l-.01 3.81c0 .09-.01.17-.02.25-.96.17-1.45-.24-1.46-1.18l-.04-1.93c-.04-.83-.38-1.48-1.19-1.81-1.05-.41-2.12-.35-3.19-.11-.06.01-.13.07-.15.13l-.42 1.31 1.35-.36c.36-.08.73-.06 1.07.13.38.23.4.63.02.85-.19.11-.41.17-.62.23l-1.5.37c-.83.27-1.27.86-1.26 1.61.01.68.48 1.23 1.28 1.51.63.22 1.29.18 1.94.18.05 0 .13-.03.16-.07l.4-.81c-.31-.04-.59-.05-.85-.12-.3-.09-.46-.33-.5-.63s.08-.55.32-.69c.3-.17.64-.27 1.02-.42v1.08c.03.71.37 1.23 1.04 1.48.3.11.64.18.96.18l4.13.01c.07 0 .14-.01.21-.02-.42-.19-.47-.55-.48-.91v-2.63c.01-.64.39-1.03 1.03-1.1.24-.03.48 0 .75 0v-1.26c.01-.19-.07-.25-.24-.27-.57-.04-1.04.14-1.38.6l-.18.21v-.76l-2.68.1zm8.77.27h-.06l-.24-.12c-.93-.46-1.82-.39-2.66.21-1.47 1.04-1.67 3.54-.42 4.86.61.64 1.34.97 2.23.87.13-.01.32-.05.38-.14.21-.3.37-.64.56-.98-.92-.01-1.35-.34-1.58-1.21a3.13 3.13 0 0 1 .01-1.69 1.68 1.68 0 0 1 .31-.61c.42-.49 1.14-.37 1.37.23.09.22.11.47.12.71l.01 3.32.01.29h2.73c-.3-.11-.42-.34-.47-.62l-.04-.45-.01-7.4v-.33l-2.72.11c.32.15.45.42.46.72l.01 2.23zm-50.78-3.06c-.01.02-.01.04-.02.06.42.21.59.6.74 1.01l1.99 5.57c.46 1.34 1.52 1.87 2.79 2.2l2.99-8.83h-2.36c.63.44.71.69.49 1.39l-.73 2.32-.8 2.55-.13-.36-1.92-5.68a.3.3 0 0 0-.34-.25l-1.88.01-.82.01z"/><path d="M67.55 22.46h-1.47c-.04 0-.09.01-.16.02a1.72 1.72 0 0 0 .13.18c.68.94.44 2.08-.56 2.66-.65.37-1.38.53-2.12.63-.19.03-.48-.01-.46.28.02.28.29.27.5.28l1.87.06c.32.03.65.15.93.31 1.2.66 1.27 2.28.16 3.08-.56.4-1.21.57-1.88.63-.95.08-1.91.13-2.84-.18a3.66 3.66 0 0 1-.95-.47c-.7-.5-.61-1.39.17-1.78.53-.26 1.09-.23 1.71-.14-.33.18-.48.43-.4.76.08.34.34.51.64.63.51.19 1.02.15 1.52-.05.38-.16.56-.46.54-.87-.01-.39-.2-.7-.56-.8-.4-.11-.82-.12-1.24-.17-.17-.02-.34 0-.51-.01-.73-.04-1.23-.52-1.29-1.25-.02-.22.07-.36.28-.43.2-.07.41-.12.59-.17-.3-.22-.64-.43-.91-.69-.95-.94-.78-2.38.36-3.1.6-.38 1.28-.49 1.97-.49h5.92l.29.01v.3 3.59c0 .58.32.9.85.87a.7.7 0 0 0 .65-.48c.07-.2.11-.42.11-.63v-2.63c0-.36-.06-.72-.48-.92l2.67-.11.02.32v4.64c0 .12.01.25.02.37.03.33.13.63.48.78h-2.69v-.69l-.27.2a2.36 2.36 0 0 1-2.1.42c-.94-.24-1.46-.88-1.48-1.85l-.01-2.79v-.32zm-3.24 1.1c-.06-.21-.09-.47-.2-.68-.23-.44-.82-.48-1.12-.11-.3.36-.33 1.21-.06 1.6.17.24.39.36.69.33.29-.03.47-.2.56-.47l.13-.67zm-16.93-.59l.41-1.28c.02-.07.11-.14.18-.16.92-.21 1.84-.28 2.76-.02 1.1.3 1.6.96 1.62 2.1l.02 1.8c0 .9.51 1.32 1.43 1.15.01-.07.02-.15.02-.22v-3.89c0-.39-.03-.78-.48-.98l2.67-.11.03.67.24-.18a2.35 2.35 0 0 1 1.95-.44c1 .2 1.57.88 1.58 1.9v2.97.27c.02.47.12.66.53.92h-2.71v-.9-2.97c0-.56-.21-.84-.66-.87-.48-.04-.84.26-.93.77a1.24 1.24 0 0 0-.03.27v2.73c0 .4.08.77.5.99h-.28-3.94a3.14 3.14 0 0 1-.61-.05c-.98-.19-1.49-.82-1.49-1.83v-.81c-.4.08-.78.15-1.07.41a.73.73 0 0 0 .24 1.27c.25.09.54.08.84.12l-.41.82c-.02.04-.09.06-.14.06-.7.01-1.39.04-2.06-.22-.75-.29-1.19-.86-1.17-1.54.03-.67.37-1.18.98-1.41.57-.22 1.18-.33 1.77-.5.23-.07.47-.13.67-.25.33-.2.32-.57 0-.79-.34-.23-.73-.25-1.11-.17l-1.35.37zm33.89-1.5l2.68-.11v.76l.18-.21c.35-.46.82-.64 1.38-.6.18.01.25.08.24.27v1.26c-.27 0-.51-.02-.75 0-.63.07-1.01.46-1.03 1.1v2.63c.01.36.06.73.48.91l-.21.02c-1.38 0-2.75.01-4.13-.01-.32 0-.66-.07-.96-.18-.67-.25-1.01-.77-1.04-1.48-.02-.33 0-.66 0-1.08-.38.15-.72.25-1.02.42a.63.63 0 0 0-.32.69c.04.31.21.55.5.63.26.08.54.08.85.12l-.4.81c-.02.04-.1.07-.16.07-.65 0-1.3.04-1.94-.18-.8-.28-1.27-.83-1.28-1.51-.01-.74.43-1.34 1.26-1.61.49-.16 1-.24 1.5-.37.21-.06.44-.12.62-.23.38-.22.36-.62-.02-.85-.33-.2-.7-.21-1.07-.13l-1.35.36.42-1.31c.02-.05.09-.12.15-.13 1.07-.24 2.14-.3 3.19.11.82.32 1.15.98 1.19 1.81l.04 1.93c.01.94.5 1.35 1.46 1.18l.02-.25.01-3.81-.01-.24c-.04-.32-.13-.63-.48-.79zm8.77.27l-.01-2.23c-.01-.31-.14-.57-.46-.72l2.72-.11v.33l.01 7.4c0 .15.01.3.04.45.05.28.17.51.47.62h-2.73l-.01-.29-.01-3.32c0-.24-.03-.49-.12-.71-.23-.59-.96-.71-1.37-.23-.15.17-.25.39-.31.61a3.23 3.23 0 0 0-.01 1.69c.23.86.67 1.2 1.58 1.21l-.56.98c-.06.09-.25.12-.38.14-.89.1-1.62-.23-2.23-.87-1.25-1.32-1.05-3.83.42-4.86.84-.59 1.73-.66 2.66-.21l.24.12h.06zm-50.78-3.06h.82l1.88-.01c.2 0 .27.07.34.25l1.92 5.68c.03.1.07.19.13.36l.8-2.55.73-2.32c.22-.71.14-.95-.49-1.39h2.36l-2.99 8.83c-1.26-.33-2.33-.86-2.79-2.2l-1.99-5.57c-.15-.41-.32-.8-.74-1.01.01-.02.02-.04.02-.07z"/></g><path fill="#fff" d="M64.31 23.56l-.14.67c-.09.26-.27.44-.56.47s-.52-.1-.69-.33c-.27-.39-.24-1.24.06-1.6.3-.37.9-.32 1.12.11.12.21.15.47.21.68z"/><g fill="#343741"><path d="M94.01 18.55c-.55 0-.99.44-.99.99s.44.99.99.99.99-.44.99-.99-.44-.99-.99-.99zm0 1.84a.85.85 0 1 1 0-1.7.85.85 0 1 1 0 1.7z" fill-rule="evenodd"/><path d="M93.62 19.98v-.88h.39c.08 0 .14.01.18.02.04.02.07.04.1.08.02.04.04.08.04.13 0 .06-.02.12-.06.16s-.1.07-.19.08c.03.01.05.03.07.04.03.03.07.07.1.12l.15.24h-.15l-.12-.18-.08-.12a.17.17 0 0 0-.06-.06c-.02-.01-.04-.02-.05-.02h-.06-.14v.39h-.12zm.12-.49h.25c.05 0 .09-.01.12-.02s.05-.03.07-.05.02-.05.02-.08c0-.04-.02-.08-.05-.1-.03-.03-.08-.04-.14-.04h-.28v.29z"/><path d="M17.94 26.19h.84l.05-.24h.33l.04.24h.86l.05-.22c.16-.1.33-.01.38.21h.85l.06-.23c.18-.02.37-.08.34.23h.88l.04-.23h.32l.06.24c.73.02 1.46.11 2.08-.51-.97.21-1.92.11-2.87.12l-17.98.01c-.29 0-.47-.05-.53-.36-.05-.23-.17-.41-.44-.44-.07-.01-.11-.11-.22-.23h1.94c.01-.03.01-.06.02-.08-.08-.02-.16-.06-.24-.06-.38-.01-.77-.01-1.15 0-.16 0-.24-.04-.29-.2-.06-.2-.16-.37-.39-.45-.06-.02-.1-.12-.18-.22h.76l-.54-.73c-.05-.06-.15-.07-.24-.09l-2.5-.33c-.09 0-.18-.02-.27-.04v-.09c.08 0 .17-.01.25 0l1.14.14c.24.04.46.03.63-.17.03-.04.08-.07.12-.1.33-.27.33-.27.18-.66-.74-1.97-.71-3.91.23-5.82.06-.12.13-.23.21-.37l1.51 1c.12.07.28.12.42.12.56-.02 1.12-.07 1.71-.16l-.39-.21c.1-.09.21-.17.31-.28.7-.79.77-1.82 1.01-2.78l.1-.45-.84-.38c.5-.5 1.07-.92 1.32-1.58l-.85-.35c.11-.09.21-.14.27-.22l1-1.37c.27.07.55.1.79.2.37.13.59.03.84-.25l3.82-4.17c.08-.09.15-.19.21-.28.15.08.31.18.49.25l7.32 3.17c.17.07.26.07.37-.09l.93-1.28 2.59 2.68 9.6 9.42c.2.2.37.35.64.13.02-.01.05-.01.07-.01-1.22 1.03-2.25 2.26-3.38 3.4l-3.35 3.47-.19.23c-.07-.04-.14-.1-.23-.13l-2.03-.49c-.25-.06-.39.06-.51.23l-.78 1.07c-.23.29-.47.56-.53.94-.01.05-.09.11-.15.13-.05.02-.12.01-.19.01H4.4h-.28c-.11-.53.26-1.06-.11-1.57h1.22l-.15.24h.89c-.01-.02-.02-.03-.03-.05.1-.07.19-.16.29-.18.06-.01.14.12.18.23h.84c.02-.06.04-.14.06-.23h.32l.04.23h.86l.06-.23h.32c.01.07.03.14.05.23h.87l.03-.23c.19-.02.39-.09.36.23h.88l.04-.21c.15-.11.33-.01.37.21h.84c-.01-.02-.02-.03-.03-.05.09-.07.17-.17.26-.18.08-.01.16.11.24.17-.01.02-.02.04-.04.07h.85l.06-.23H14l.06.23h.86c-.01-.26.14-.29.36-.23.02.06.04.14.06.23h.86l.04-.23h.32c.02.07.03.15.05.23h.85c-.01-.02-.02-.05-.03-.07.09-.06.19-.15.29-.16.06-.01.14.11.21.17.02.04.01.06.01.09zm11.32-4.53c.13.02.28.1.38.06l1.43-.7-.03-.06-1.78.7-.7.28.14.25c.52-.2.55-.23.56-.53zm-3.42 2.81l.63-.13v.46c.35-.1.45-.41.66-.61-.23 0-.45.01-.66.06-.22.05-.43.14-.63.22l-1.42.72c.63.08.97-.11 1.42-.72zM12.48 6.24c-.03.02-.07.03-.09.05L9.8 9.11c-.02.02-.02.04-.03.08l1.22.28c.62.14.62.14.94-.41.04-.07.02-.18.03-.29.43-.05 1.3-1.29 1.4-2.15-.38.08-.62-.19-.88-.38l.84-.03c.07 0 .19-.06.2-.11l.37-1.38c-.3.25-.56.53-.82.81l-.59.71zm6.39 18.47l.15-2.43c0-.08-.08-.19-.16-.25l-1.47-1.29c-.42-.42-.85-.54-1.44-.52-.79.03-1.56.04-2.24.52-.01.01-.02.01-.02.01-.14.04-.19.13-.18.28v1.31 2.08c.11.05.21.08.29.13s.15.13.23.18c.07.04.16.08.24.08 1.52-.04 3.05.13 4.6-.1zm6.31-8.79l1.33 2.4c.17.34.37.52.76.44.05-.01.11.01.17.02 0 .02.01.04.01.05l-.39.19c.01.09-.02.21.03.29l1.42 2.54 3.58-1.4-8.71-8.17 1.85 2.47c.25.33.49.61.95.51.01 0 .02.02.02.03l-1.02.63zm-.41-5.19l.27.31 7.42 8.63c.4.46.4.46.95.19l1.59-.78c-.08-.08-.14-.13-.2-.18l-9.49-8.19c-.19-.17-.34-.18-.54.02zm7.99 9.45l-8.01-9.32-1.4.43c-.08.03-.2.09-.21.15-.01.08.07.17.1.26.01.01 0 .03 0 .09-.04.03-.1.06-.16.1l.15.15 8.59 8.07c.42.36.42.36.94.07zm-10.2 4.51c.27-.01.53.02.76-.05.42-.13.84-.29 1.23-.51l2.92-1.75-.23-.19-2.01-1.8c-.27-.25-.52-.36-.87-.23-.14.05-.3.06-.45.07l-1.35.16v4.3zm.88-15.72l.13.12 11.36 9.8c.23.2.37.07.55-.06L23.84 7.42l-.05.05c.28.3.44.69.84.96l-1.19.54zm-8.8 1.43c.03.02.05.03.06.03 1.99.5 4 .59 6.02.18.18-.04.38-.08.51-.19.37-.33.71-.7 1.05-1.07.05-.05.07-.14.11-.24l-.5.03c-.78-.03-1.57 0-2.34-.11-1.62-.22-3.11-.84-4.51-1.68-.07-.04-.15-.05-.23-.07.03.08.05.18.1.24l.88 1.04c.08.09.2.15.27.21l-1.42 1.63zm5.24 4.86c.01-.02.01-.04.02-.06l-5.6-4.44a.43.43 0 0 0 .09.23l1.92 2.9c.21.33.41.6.85.5.01 0 .03.01.03.02l-2.36 1.52 1.52 1.37c.04.04.14.05.19.04 1.23-.31 2.32-.9 3.31-1.68-.06-.09-.1-.19-.17-.24-.08-.05-.18-.06-.28-.09 0-.02.01-.04.01-.06l.47-.01zm-4.86-8.24c.06.03.11.07.17.09 1.11.51 2.27.92 3.48 1.1.82.13 1.67.16 2.5.2.32.02.64-.06.76-.47l-7.64-3.31c.18.32.38.61.6.88.22.26.33.6.67.75-.04.03-.09.05-.12.09l-.42.67zM2.81 15.67c-1.19 1.96-1.1 4.63-.2 6.33l.76-.6c.14-.1.18-.23.17-.4l-.16-4.41c-.01-.46-.15-.74-.57-.92zm11.91-4.78l-.03.06 5.46 4.32 1.02-1.38-6.45-3zm.24 0l6.31 2.93.54-2.25c-2.37.3-4.63.09-6.85-.68zM3.63 16.23l.42 4.63 1.68-1.34-1.2-.54c.01-.02.01-.04.02-.07.09 0 .19.01.28 0 .13-.01.31.02.38-.05.31-.29.59-.61.89-.93l-2.47-1.7zm19.84 8.84H5.13l.21.36c.06-.07.11-.15.18-.25h.27a2.4 2.4 0 0 1 .04.24h.85c.02-.09.05-.17.07-.24h.31l.05.24h.86l.05-.24h.31a4.19 4.19 0 0 0 .06.24h.85a4.19 4.19 0 0 1 .06-.24h.32l.03.24h.87l.05-.23h.33l.04.23h.86a4.19 4.19 0 0 1 .06-.24h.32c.02.08.03.16.04.24h.86l.05-.23h.3l.06.24h.86l.06-.24h.3l.05.24h.86l.05-.23h.32l.05.23h.86l.05-.24h.32a4.19 4.19 0 0 0 .06.24h.86l.03-.24h.34l.03.24h.87l.05-.24h.31l.05.24h.86l.05-.24h.31l.07.24H22l.06-.24h.32a4.19 4.19 0 0 0 .06.24h1.1l-.07-.36zm-6.95-10.69l-2.36-3.54h-.09c-.04.12-.11.24-.12.36l.02 1.69v1.66h1.08c.04 0 .12 0 .13-.02.11-.22.3-.13.47-.14.27-.02.54-.01.87-.01zm4.24 1.61l-.77-.34c-1.01.82-2.15 1.44-3.46 1.78.31.33.57.62 1.05.55.39-.06.78-.04 1.17-.07.2-.01.39-.05.64-.08l-.59-.51c.02-.02.04-.05.06-.07l.66.52.88-.63c.05-.04.1-.1.12-.16a17.8 17.8 0 0 0 .24-.99zm14.54 3.12c-.07.01-.1.01-.12.02l-2.13 1.12c-.08.04-.14.11-.2.18l-3.58 4.44c-.14.18-.14.35-.1.6l6.13-6.36zm-10.31.96l2.46 2.18c.04.04.15.05.2.02.25-.12.48-.26.73-.4l-1.23-2.19c-.28-.49-.27-.49-.73-.2-.14.09-.29.17-.45.23l-.98.36zM23 18.21c.01.03 0 .07.02.09.35.33.66.74 1.24.62.17-.03.36 0 .53-.01.05 0 .14.01.15-.02.16-.24.4-.13.6-.14.29-.02.57 0 .86 0a72.26 72.26 0 0 0-2.49-1.99c-.05-.04-.14-.07-.19-.06a7.21 7.21 0 0 0-.64.27c-.04.02-.08.08-.08.12v.78l.32.07c.01.02.01.05.02.07l-.34.2zm-1.08-7.18c-.22-.08-.45-.11-.61-.23-.16-.13-.3-.15-.48-.1-1.56.35-3.13.36-4.71.13l-1.56-.28.26.12c2.13.85 4.34 1.11 6.62.86.44-.06.44-.07.48-.5zm.53-2.21l-.61-.2c-.13-.04-.27-.12-.4-.12-.38-.01-.77.03-1.15.01-1.79-.09-3.47-.57-5.1-1.3l-.23-.09a.39.39 0 0 0 .19.19l1.62.82c1.73.75 3.53 1.1 5.43.9.15-.02.27-.04.25-.21zM9.46 20.05c-.31.29-.59.61-.93.85-.45.31-.61.69-.54 1.21.03.22.01.44.01.69l.85-.25a.38.38 0 0 0 .32-.31 29.87 29.87 0 0 1 .49-1.61c.07-.25.04-.43-.2-.58zm-3.61-.51l-1.03.82c-.25.2-.6.36-.71.63-.11.26.01.63.03.95l.1.96c.7-1.1 1.62-2 1.61-3.36zm13.18 2.5l.16-2.01c-.22-.05-.4-.14-.58-.12l-1.71.3 2.13 1.83zm3.94-9.85l.01 2.26c0 .08.08.19.16.23l1.04.49c.14.06.3.07.53.12l-1.74-3.1zm.94 4.44l2.63 2.04c.01-.01.03-.02.04-.04l-1.48-2.64-1.19.64zm-15.56-.48l1.49-.36-1.49-2.29v2.65zm5.83 1.27c.7.12 1.38.12 2.1-.05l-.79-.72-.74-.67c-.78.48-.78.48-.68 1.07l.38.05-.27.32zM13.52 20c.93.36 1.65-.02 2.32-.54-.2-.29-.47-.39-.81-.36-.3.03-.61.01-.91.01h-.61l.01.89zm-3.29 2.2l-.96.32c-.06.02-.12.08-.14.14l-.45 1.48 1.02.07.53-2.01zM8.68 10.77l1.04.94c.05.04.15.05.22.03.55-.15.58-.72.94-1.06l-1.24-.19c-.04-.01-.09-.01-.13.01l-.83.27zm20.48 14c.02.01.04.01.05.02l3.08-3.83a116.66 116.66 0 0 0-3.02 2.85c-.04.04-.07.11-.07.16l-.04.8zM11.54 13.51c-.12-.11-.24-.2-.34-.32-.13-.15-.25-.13-.41-.06-.36.17-.74.31-1.11.45l-.57.18 1.73.5a.26.26 0 0 0 .22-.07c.16-.2.31-.44.48-.68zm15.48 11.31l2.01.18v-1.02c-.82-.09-1.46.24-2.01.84zM12.73 14.46l.64-2.9c-.02-.02-.05-.04-.07-.05-.2.2-.5.36-.58.6-.2.57-.3 1.17-.43 1.76-.01.06.01.16.05.21.09.13.23.24.39.38zM11.5 9.68l-1.76-.39c-.04-.01-.12.01-.16.05l-.45.49a3.83 3.83 0 0 0 .32.42c.04.04.12.08.18.07.64-.1 1.23-.33 1.87-.64zm3.2-2.23c-.4.36-.78.69-.55 1.29h1.63L14.7 7.45zm-3.99 7.78l-2.1-1.6c.35.64.74 1.24 1.13 1.84.2.31.29.36.62.19.14-.08.22-.27.35-.43zm17.04 7.45c-.12-.2-.24-.22-.42-.1l-1.51.91-1.36.82c.01.02.01.05.02.07.27-.04.58-.03.82-.14l1.91-1.02-.05-.23.59-.31zm-7.74.25c.03 0 .06-.01.09-.01l1.07-2.54c-.4.05-.19.46-.45.66l.13-.71-.41-.05c-.02.04-.04.06-.05.09l-.5 2.25c-.01.09.09.2.12.31zm-.22-.28l.53-2.39a6.41 6.41 0 0 1-.43-.07l-.27 1.14c-.03-.01-.05-.01-.08-.02l.24-1.15-.32-.04-.01 1.95c0 .27.05.45.34.58zM9.8 20.41l-.6 2.01c.09-.02.13-.03.17-.05.9-.28.9-.28.92-1.22 0-.08-.02-.18-.07-.24-.11-.16-.25-.3-.42-.5zm1.32 1.32l.31-1.41c.13-.6.13-.6-.5-.79l-.22 1.12c-.06.4-.06.81.41 1.08zM10.97 13l-.59-.55c-.14-.15-.26-.12-.4-.03-.44.3-.63.79-.94 1.19l.06.09 1.87-.7zm5.09 6.47l.64.55c.04.04.11.06.17.06l1.5-.21-1.69-.72c-.05-.02-.12 0-.17.03a8.38 8.38 0 0 0-.45.29zm-8.04 1.76l1.39-1.27-.34-.4c-1.06.5-1.12.58-1.08 1.57.01.01.01.02.03.1zm-.03 2.84c.58.11.58.11.73-.41l.11-.38.2-.68-.89.27c-.06.01-.14.09-.14.14l-.01 1.06zm7.6-14.85h-1.47c0 .28-.02.53.01.77.01.12.11.25.19.35.03.03.19.02.23-.03l1.04-1.09zm8.85 1.27l-1.31-1.52v1.52h1.31zm1.01 4.72l-2.2-2.84c0 .09.03.16.07.23l1.2 2.17c.2.41.45.6.93.44zM10.38 11.6c.01.02.03.04.04.06l1.47-.45c.29-.08.43-.25.42-.53h-1.22c-.05 0-.11.03-.13.07-.21.27-.39.56-.58.85zM5.19 23.11c.27-.08.47-.13.52-.4L6 21.35l.23-1.1c-.23.25-.46.5-.55.79-.2.66-.32 1.33-.49 2.07zm1.07-.62c.28-.12.43-.27.46-.55.03-.29.12-.58.18-.86l.33-1.58c-.02-.02-.04-.05-.07-.07-.1.06-.27.11-.29.19l-.61 2.87zM23.12 6.74v1.58h1.21l-1.21-1.58zM14.1 6.2h1.18L14.1 4.62V6.2zm-3.72 6.12l.58.52c.03.03.1.04.14.03.56-.14.9-.6.91-1.18l-1.63.63zm21.63 8.72c-.01-.02-.02-.03-.03-.04l-2.4 1.81c-.33.23-.38.51-.34.9l2.77-2.67zM6.78 19.49l-.09-.06c-.02.05-.03.1-.07.14-.26.28-.28.64-.36.99l-.47 2.22a.54.54 0 0 0 .42-.46l.5-2.46.07-.37zm-3.21 1.87l-.94.75c.32.73.39.79.94.74v-1.49zm6.71-4.66c.02-.02.03-.05.05-.07l.36.23.18-.71-.35.11c-.13.05-.31.07-.37.16-.24.37-.44.77-.66 1.16l.22.18.96-.74-.39-.32zM8.37 18l.25.06c.14.02.33.11.4.05.14-.12.21-.32.3-.49.01-.02-.03-.06-.05-.09l-.9-.84V18zm16.33 2.03c.01-.03.01-.06.02-.09-.1-.06-.2-.17-.3-.17l-1.84-.01v.56l2.12-.29zm-13.66-9.44l1.19-.06a.21.21 0 0 0 .15-.11c.06-.16.09-.32.13-.5l-.77-.18c-.05-.01-.14.03-.18.08l-.52.77zm.82 5.57c-.08.15-.17.29-.23.45-.06.15-.05.32-.12.46-.12.28-.02.44.22.59.19.12.27.08.32-.12l.17-.75c.11-.31 0-.49-.36-.63zm20.12 4.71c-.01-.01-.02-.03-.03-.04l-2.06 1.08c-.41.22-.44.28-.32.79l2.41-1.83zm-17.23-5.01l1.12-.75h-1.86c0 .02-.01.04-.01.06l.75.69zM5.5 21.31c-.02-.01-.03-.01-.05-.02l-1.14 1.68.79.1.4-1.76zm4.56-9.33l.03.14c.12.02.26.08.36.04a36.04 36.04 0 0 0 1.45-.55c.18-.07.26-.19.25-.38l-1.64.49c-.17.05-.3.17-.45.26zm-6.55 4.16c-.03 0-.05.01-.08.01l.26 4.92c.03.01.07.01.1.02.03-.09.1-.19.09-.28l-.33-4.45c-.01-.08-.02-.15-.04-.22zm6.4.46h-1.4c-.01.02-.01.05-.02.07l.91.85.51-.92zm8.99 3.14l-.68-.26s-.39-.22-.55-.3l-.5-.36c.37-.11.76.09 1.07-.16-.54-.02-1.12-.16-1.52.45l1.85.66c.09.01.18-.02.33-.03zM8.52 13.27l-.09.09.43.33.67-1.01H8.42l.1.59zm-.54.45c-.63.7-.53 1.63-.81 2.45.19.06.3.07.34-.14l.47-2.31zm3.09 8.21c-.02-.02-.05-.04-.07-.06-.11.09-.31.17-.31.26l-.01 1.94.62-1.84c.02-.05-.06-.13-.12-.25l-.29 1.25c-.03-.01-.05-.01-.08-.02l.26-1.28zm11.5-9.73c-.27.28-.54.55-.58.96-.02.2-.08.4-.12.6-.08.35-.08.34.3.43l.4-1.99zm-11.34 9.45c.02.02.05.03.07.05.07-.06.19-.1.21-.17l.56-1.62-.43-.12-.41 1.86zm-2.79-9.63l.98-.17-.98-1.09v1.26zm4.49-3.22c.26-.12.47-.2.54-.44l.36-1.47c-.63.47-.73 1.16-.9 1.91zm13.86 16.1c0 .03-.01.07-.01.1l2.26.54v-.44l-2.25-.2zm-9.74-6.76v-.05l-1.47-.16-1.46-.29c.33.23.67.44 1.03.62.13.06.41.09.45.02.13-.2.29-.13.44-.13.33-.02.67-.01 1.01-.01zm-6.11-3.38l-.6-.37.3-.01c0-.01.01-.03.01-.04l-1.35-.39c-.01.01-.02.03-.03.05l1.47 1.12.2-.36zm-6.23 1.98c0 .02-.01.04-.01.06l.56.37c.06.03.16.05.22.03l.97-.39c.06-.02.12-.03.18-.05l-.09-.13-1.83.11zm18.45-.77c-.01.02-.02.04-.02.06l.59.45c.04.03.11.06.14.04l1.02-.52c-.01-.01-.02-.02-.03-.04l-1.7.01zm-9.48-4.69c-.2.12-.81 2.52-.81 3.25.07-.05.14-.11.15-.18l.43-2.31.06-.25c.02.01.04.01.07.02l-.12.74.08.05c.05-.05.13-.11.13-.16l.01-1.16zM16.85 18c-.23-.41-.52-.63-.96-.45-.04.02-.09.01-.13.01h-1.31c0 .03-.01.05-.01.08l2.41.36zm-.28 2.13c.01-.02.01-.04.02-.06l-.56-.48c-.03-.03-.1-.04-.14-.02l-.95.56h1.63zm3.09 3.5c-.03-.01-.05-.01-.08-.02.04-.18.06-.38.12-.55.08-.25-.02-.38-.27-.49v1.95l.56-1.36c.03-.07-.05-.17-.08-.26-.03.01-.05.01-.08.02l-.17.71zm-9.33-2.83l.12-1.44c-.2.03-.34.03-.42.25-.17.47-.25.89.3 1.19zm11.92-9.24c-.02-.03-.04-.05-.06-.08-.1.07-.27.12-.29.21l-.4 1.67c.59-.48.58-1.18.75-1.8zM7.62 19.41c-.12.07-.28.1-.3.17-.11.4-.18.81-.26 1.22.03.01.06.02.09.04.29-.1.08-.48.29-.7l-.05.67c.03.01.06.03.09.05.05-.06.14-.12.14-.18v-1.27zm5.07.87l.14-1.23c-.18.06-.37.08-.4.15-.15.34-.25.71-.37 1.06.2.07.27 0 .3-.17.03-.19.09-.37.13-.56.03.01.05.01.08.02l-.14.72a2.35 2.35 0 0 0 .26.01zm.44-5.18c-.45.02-.48.05-.5.39l.41-.28c.01.02.03.04.04.05-.05.04-.09.1-.15.13-.32.17-.44.46-.49.8-.03.2.03.29.21.35l.2-.92c.02 0 .04.01.07.01l-.04.34h.25v-.87zm-5.31-2.39c-.02-.02-.04-.05-.06-.07-.07.05-.2.08-.22.14l-.46 1.99c.6-.61.53-1.38.74-2.06zm4.71-.38c-.01-.01-.03-.02-.04-.02l-.82 1.19.48.44.38-1.61zm4.79 5.77c0 .02-.01.03-.01.05h.78c.01.02.01.04.02.06l-.46.26c.65.17 1.12-.04 1.53-.48l-1.86.11zm4.6-2.7l.22-1.07-.36-.17-.27 1.23.41.01zm2.29-.01l.03-.08-1.24-.58v.66h1.21zM6.5 16.88l-1.04.43.82.54.22-.97zm14.84-2.89l-.29 1.24.38.05.2-.87c.08-.27-.02-.38-.29-.42zm7.08 8.96l-.96 1.06c.57.04.82-.37 1.2-.61l-.24-.45zm-15.47-5.64c-.44.04-.66.34-.99.51l.66.48.33-.99zm-6.19-1.05c.15-.07.31-.1.33-.17l.34-1.56c-.48.48-.54 1.07-.67 1.73zm1.14-1.25h.07l-.04.45c.1-.09.19-.12.19-.16l.01-1.48h-.06l-.48 2.35c.03.01.07.01.1.02a24.32 24.32 0 0 1 .21-1.18zm13.32-.96c-.02-.01-.03-.02-.05-.04l-.89 1.22h.66l.28-1.18zM10.38 24.27c.03-.02.07-.03.1-.05v-2.14c-.05.07-.12.12-.13.17a56.79 56.79 0 0 0-.12 1.84c.01.06.1.12.15.18zm-.5-13.86c0 .01-.01.03-.01.04l1.02.1c.03 0 .08-.04.11-.07l.4-.61-1.52.54zm12.93-1.4c-.57.4-.46.99-.61 1.49.12-.01.28-.02.3-.08l.31-1.41zm-12.04 7.93l.76-.59c.15-.12.15-.46.06-.43-.22.07-.49.15-.62.31s-.13.43-.2.71zm11.48-7.26l-.91.83c.21 0 .39.02.56-.01.07-.01.16-.09.18-.16.09-.25.14-.51.17-.66zM9 9.82l-.55-.73v1.33l.55-.6zm12.7 6.57c-.57.19-.58.66-.64 1.1.31 0 .48-.11.51-.43.01-.21.07-.43.13-.67zm-9.54 7.97l.11-.63h-.64l-.11.58.64.05zM4.05 22.9l-.14-1.76c-.03-.01-.06-.01-.09-.02-.04.09-.11.19-.11.28l.07 1.34c.02.18.09.21.27.16zm20.98-12.42l-1.6-1.38c.3.42.64.8.95 1.19.18.22.36.26.65.19zm-13.02 1.83c.49-.19.77-.51.74-1.04-.56.24-.63.34-.74 1.04zm-4.65-1.95c.2 0 .33.02.46-.01.07-.01.18-.08.19-.15l.23-.97c-.07 0-.09.04-.11.08l-.77 1.05zm4.15 13.38c-.7-.03-.62-.13-.76.5.8.12.61.13.76-.5zm10.79-9.43h.09l.17-1.11c.02 0 .05.01.07.01l-.05.59c.17-.12.21-1.57.08-1.79l-.03.34-.34 1.73a.87.87 0 0 0 .01.23zm-.18-6.4l.5.22.28-1.19c-.02-.01-.03-.01-.05-.02l-.73.99zm-2.86 14.43c-.03.01-.05.01-.08.02l-.12 2.18c0 .05.05.09.08.14.03-.06.1-.12.1-.18l.07-1.92c-.01-.08-.04-.16-.05-.24zm-8.69-5.06c-.02-.01-.03-.02-.05-.03l-.76.59c.1.1.18.19.27.25.12.07.28.13.34-.07.08-.24.13-.49.2-.74zm.26-.09v.9a5.56 5.56 0 0 1 .28.16c.27-.68.24-.79-.28-1.06zm1.55 6.55l-.06.62a11.42 11.42 0 0 0 .51.04c.04 0 .09-.01.13-.01.06-.35-.22-.68-.58-.65zm14.06.36c.72.13 1.13-.24 1.49-.81l-1.49.81zm-6.33-4.86c.06.13.1.29.15.3a2.89 2.89 0 0 0 .72 0c.05-.01.08-.17.12-.29l-.99-.01zm1.13-3.26h-.37l-.22.94c.48-.15.57-.51.59-.94zm.21 1.56c-.5.06-.53.12-.58.79.4.03.41.02.48-.33a4.57 4.57 0 0 0 .1-.46zm3.05 1.71h-1c.07.13.11.29.16.3a3.45 3.45 0 0 0 .72-.02c.05-.01.07-.17.12-.28zm.02-.02c.07.14.1.31.15.31.24.03.48.02.73 0 .03 0 .08-.13.08-.19 0-.04-.09-.11-.14-.11-.25-.02-.5-.01-.82-.01zm-12.18-.12h-.54l-.13.58.44.13.23-.71zm10.15.12c.08.15.11.32.17.32.23.02.47.01.7-.01.04 0 .08-.14.08-.22 0-.03-.1-.08-.16-.09-.23-.01-.46 0-.79 0zm-11.05-4.82c.24-.11.5.13.64-.17.09-.2-.05-.38-.44-.59l-.2.76zM8.59 9.02c-.01.02-.02.03-.03.05l.51.68.47-.51-.95-.22zm4.51.93l.16-.7c-.46-.1-.5-.06-.59.59l.43.11zM6.22 18.1c-.02-.01-.03-.01-.05-.02l-.78.82.52-.01c.06-.01.13-.08.15-.13.07-.21.11-.43.16-.66zm7.45-8.87c-.33-.03-.41.11-.45.74l.45.09v-.83zm.46 9.38c.06.13.1.3.15.3.25.02.5.01.75-.02.04 0 .06-.16.1-.3h-.81c-.03 0-.07.01-.19.02zm-6.84-1.57c-.35.24-.35.26-.49.92-.04.2.01.3.22.35l.27-1.27zm7.09 1.25c.01-.02.02-.04.03-.07-.31-.1-.43-.58-.88-.38v.45h.85zm-3.86.32c.06.13.09.28.13.28a3.67 3.67 0 0 0 .74.01c.04 0 .07-.17.11-.29h-.98zm1.02 0c.07.13.1.29.16.3.24.02.49.02.73-.01.04-.01.06-.18.1-.29h-.99zm12.18-2.01l-.7-.55v.84l.7-.29zm-9.1-9.24l-.5-.58V7.9l.5-.54zm.05 8.55l-.63-.57v.98l.63-.41zm-8.9 4.64c.25-.33.59-.6.6-1.13-.14.05-.34.06-.36.13-.1.33-.16.67-.24 1zm15.09-2.86c-.44.04-.53.16-.51.71.43.02.48-.04.51-.71zm-9.18 5.45c-.58-.08-.62-.05-.72.47h.61l.11-.47zm9.53-4.22h.91v-.58l-.91.58zm.86 1.35c.03-.19-.2-.51-.39-.51-.31.01-.22.32-.37.51h.76zm-8.55.46l.9-.45c0-.02-.01-.03-.01-.05l-.89-.08v.58zm9.41-11.62c-.01 0-.02-.01-.03-.01l-.31 1.41.34-.02V9.11zm6.11 14.13l-.86.65c.01.02.01.03.02.05l.84-.1v-.6zm-6.1-4.87c-.1.21-.52.14-.36.51h.93l-.57-.51zm-.86-1.83h.08l.02-.52c-.6.32-.4.89-.54 1.33.27-.24.17-.62.33-.92.05.03.08.07.11.11zm-9.8-7.79c.18 0 .28.02.38-.01.07-.01.17-.07.19-.12.09-.25.15-.52.24-.84l-.17.18-.64.79zm-.58 10.36c-.1-.01-.17-.01-.24-.01h-.39c-.14.34-.1.38.51.54l.12-.53zm-1.9-6.87c-.15-.12-.26-.29-.36-.28-.32.02-.64.1-.96.16-.02 0-.03.06-.06.12H9.8zm9.61 7.85c-.04 0-.08 0-.12-.01l-.09 2.14h.12l.09-2.13zM2.53 22.18l-.62.5.94.11-.32-.61zm17.98-4.56c.45-.04.51-.13.54-.78-.34.14-.56.37-.54.78zM7.7 12.05c.03.02.05.05.08.07.07-.06.18-.1.19-.17l.23-1.09c-.44.33-.37.8-.5 1.19zm4.85-2.23l.15-.59c-.02-.01-.04-.03-.05-.04l-.82.47a15.2 15.2 0 0 1 .72.16zm-3.78 6.33c0 .01.01.03.01.04h1.26c.01-.02.03-.04.04-.06-.1-.08-.21-.23-.29-.22-.34.05-.68.16-1.02.24zm2.77.39c-.02-.01-.03-.02-.05-.04l-.63.49.49.36.19-.81zm.14 7.08h.47c.18.01.22-.14.17-.22-.07-.12-.2-.23-.33-.28-.19-.07-.23.09-.25.24l-.06.26zm.69-7.09l-.23 1.06.34-.22.08-.36c.05-.19.11-.38-.19-.48zM7.75 11.4c-.01-.01-.03-.01-.04-.02l-.75.82.51-.06c.05-.01.12-.07.14-.12l.14-.62zm5.32 7.72c-.04-.01-.07-.01-.11-.02-.11.38-.12.77-.12 1.2.1-.03.21-.09.22-.15l.01-1.03zm-6.74-1.01l-.18.79c.17-.03.33.1.39-.14.13-.47.14-.47-.21-.65zm13.18 6.55c.53.06.57.03.63-.43-.48-.07-.51-.05-.63.43zm-6.52-1.07v-.46h-.53c-.03.35.16.52.53.46zm9.76-12.08l-.11-.12c-.1.08-.26.14-.3.24-.09.26-.13.54-.2.85.39-.38.47-.55.4-.76a2.07 2.07 0 0 0 .21-.21zM6.92 24.03l.05-.51-.46-.05-.09.51.5.05zm4.89-11.44l-.7.4.47.43.23-.83zm1.82 2.51c-.13.08-.19.96-.09 1.52.15-.09.21-1.12.09-1.52zm1.64 3.45c-.03.03-.06.07-.09.1.04.09.06.23.13.27.24.12.5.1.75-.09l-.79-.28zm6.03 6.13l.07-.46c-.52-.04-.52-.04-.54.45l.21.01c.07.01.15 0 .26 0zM12.49 10.5c.5-.04.5-.04.56-.46l-.43-.11-.12.44c-.01.03-.01.07-.01.13zm-2.19 5.67c.52-.01.67-.14.66-.54-.47.06-.52.11-.66.54zm-3.85 1.45c.43-.31.48-.42.49-.91-.54.1-.34.61-.49.91zm2.46.77c-.21-.07-.42-.31-.57-.05s.17.35.3.53l.27-.48zm.06.1a10.88 10.88 0 0 1-.21.38h.95c.01-.02.01-.05.02-.07a17.23 17.23 0 0 1-.76-.31zm-2.84 4.77c.15-.06.31-.08.34-.15.08-.2.1-.43.14-.65-.4.08-.45.38-.48.8zm.9.77h.52v-.43l-.46-.06-.06.49zm13.71.2c-.47-.06-.49-.04-.54.43.47.07.49.05.54-.43zM13 23v-.41h-.49l-.03.41H13zm-1.83-.01c.46.08.56.06.57-.16 0-.08-.08-.22-.15-.24-.29-.08-.35-.02-.42.4zm-3.08-6.37c-.02 0-.05.01-.07.01v1.39h.07v-1.4zm4.5 5.42l-.05.42h.48v-.42h-.43zm-.16.42l.05-.41c-.45-.09-.5-.05-.52.41h.47zm13.11-3.22c.06.12.07.24.14.27.19.1.58-.06.72-.27h-.86zM6.6 23.16c.47-.1.51-.14.44-.57-.4-.03-.44.03-.44.57zm1.08-9.33c.09-.21.46-.31.31-.56.05-.16.11-.27.12-.39.01-.06-.06-.14-.09-.21-.04.06-.11.11-.13.17l-.21.99zm14.22-.71c-.01-.01-.03-.02-.04-.03l-.34.47c-.22.3-.2.34.19.44l.19-.88zm-10.61 1.84l-.12.46c.24-.1.59.03.71-.32l-.59-.14zm7.81 4.28h-.87c.13.21.48.36.69.28.07-.03.1-.15.18-.28zm.34-1.28l-.7.5c.01.02.02.04.02.06l.67-.04.01-.52zm2.58 6.14v-.42h-.46l-.05.42h.51zm-1.87-5.56c-.14.01-.26 0-.37.03-.09.02-.17.08-.25.12.07.11.07.24.27.26.31.01.33-.16.35-.41zm-8.88-.26h1.04l-.48-.37-.56.37zm8.26.96v.36c.41.06.56-.05.49-.36h-.49zm.81 4.44c-.49-.05-.51-.03-.58.41.47.07.48.06.58-.41zM13.92 6.2V5.15c-.01 0-.01-.01-.02-.01l-.28 1.05c.1.01.18.01.3.01zm6.61 13.56l-.08.41.43.06.09-.47h-.44zm-8.04 2.16l.05-.42c-.42-.07-.45-.04-.46.42h.41zm-1.89-2.58c-.16.43-.18 1.63 0 1.74v-1.74zm11.43 3.74l-.4.02a9.29 9.29 0 0 0-.04.45h.44v-.47zm-7.95-4.45h-.55v.35c.44.02.56-.05.55-.35zm7.4 4.92l.03-.24s.02-.13.02-.2c-.41-.06-.42-.05-.46.44h.41zm-8.39-5.26v-.93h-.05l-.31.94.36-.01zm.57-4.08c-.5-.08-.56-.04-.5.32h.5v-.32zm4.72 4.49c.01.02.02.05.02.07h.85c.06 0 .12-.06.19-.09-.07-.03-.13-.09-.2-.09a3.75 3.75 0 0 0-.58.02c-.1.01-.19.06-.28.09zm-5.37 3.22v-.44h-.36l-.06.44h.42zM6.08 23.4l-.12.56.35.02.09-.52-.32-.06zm14.25.72c.22-.05.46.14.53-.2.03-.14.01-.23-.14-.25-.34-.07-.3.21-.39.45zm-9.8-5.49h-.88c.19.22.55.35.73.25.06-.03.08-.14.15-.25zm11.49-3.27c.02.02.04.04.06.07.06-.04.15-.07.17-.12.13-.33.12-.81-.02-.91l-.21.96zM7.69 16.84c-.01 0-.02 0-.03-.01L7.46 18c.02.02.04.04.07.06.06-.05.16-.11.16-.16v-1.06zm-.16-.05c-.2.38-.23.81-.28 1.23.22-.38.24-.8.28-1.23zm5.73-3.12a5.58 5.58 0 0 0-.07.4h.46v-.4h-.39zm.64-6.5c-.01 0-.03 0-.04-.01l-.27 1.13.06.03c.08-.1.22-.19.23-.3.04-.27.02-.56.02-.85zm8.01 8.42c-.19 0-.37-.01-.54.01-.05 0-.08.09-.13.14.14.04.27.11.41.12.13 0 .3-.01.26-.27zm-.22 4.82c-.42-.09-.43-.09-.53.33.47.08.48.07.53-.33zm.06-2.94c-.03-.01-.06-.03-.09-.04-.19.24-.17.55-.25.86l.56-.12c-.25-.06-.48-.07-.27-.37.04-.08.03-.21.05-.33zM7.58 22.04h-.34l-.05.42h.39v-.42zm13.8-2.8c.15.12.23.21.33.25.09.04.22.07.3.04.06-.03.07-.17.11-.29h-.74zm2.68-3.7c-.01.01-.01.03-.02.04-.04 0-.09-.01-.13 0-.08.03-.15.07-.22.11.07.05.13.11.21.15.03.02.09.03.13.02.12-.05.23-.11.34-.17l-.31-.15zM9.39 10.36l-.33-.45-.4.45h.73zm12.69 10.53c-.4-.06-.41-.05-.45.36h.45v-.36zm-5.03-2.27h-.88c.08.12.11.23.17.26.18.09.51-.03.71-.26zm-12.75 5l.65-.32c-.01-.02-.01-.04-.01-.06l-.67-.07a3.64 3.64 0 0 0 .03.45zm-.67-.54L3.09 23l.54.7v-.62zM14.38 6.64c-.01.02-.01.03-.02.05l.56.29.25-.38-.79.04zm6.38 11.84c.04.13.05.25.1.34.03.04.18.07.2.04.09-.12.16-.26.26-.46l-.56.08zm.53-1.96c.18-.19.47-.21.47-.53-.43-.05-.46-.01-.47.53zm-6.59-1.8c-.04.28.16.26.32.26s.37.04.36-.26h-.68zm6.35 8.38c-.22-.02-.44-.08-.45.2-.01.18.14.25.34.27l.11-.47zm-.62-3.33c-.47-.05-.5-.03-.47.33l.38.05.09-.38zM7.18 22.59l-.05.43c.48-.08.48-.08.42-.43h-.37zm15.39-5.56c.03 0 .05.01.08.01.15-.25.04-.54.07-.81.01-.08-.03-.17-.05-.26-.03.01-.06.01-.09.02l-.01 1.04zm1.49 8.53c.14-.31-.19-.42-.23-.65-.25.27-.17.48.23.65zM12.42 22.6h-.52c.1.32.23.42.47.38l.05-.38zm7.26-4.7l.54.42.11-.53a17.31 17.31 0 0 1-.65.11zm1.98 5.07h.38v-.42h-.31l-.07.42zm-9.74-.95c-.14 0-.25-.02-.35.01a.23.23 0 0 0-.11.14c.09.12.19.23.34.39l.12-.54zm-5.59-2.95c-.04.26.15.26.3.26.16 0 .36.03.33-.26h-.63zm14.38 3.48c-.36-.05-.41-.01-.48.41.4.05.4.05.48-.41zM7.69 19.14l-.05-.08c-.17 0-.33-.01-.5.01-.04 0-.07.1-.1.16.15.03.3.09.44.09.08-.01.14-.12.21-.18zm.93-.06H8c-.01.29.19.25.35.25.13 0 .32.01.27-.25zm3.91-3.52c-.02-.03-.04-.06-.07-.09l-.57.27c-.05.03-.07.12-.07.19 0 .02.12.08.14.06.2-.13.38-.28.57-.43zm16.48 7.14l-.42.23.18.34c.31-.1.3-.3.24-.57zm-16.14-7.98h-.66c-.02.29.19.25.34.25.15.01.35.03.32-.25zm-.04-3.09l.71-.99c-.29.28-.76.42-.71.99zm-2.69 11.53h-.05l-.27 1.02.06.06c.06-.05.17-.1.17-.15l.09-.93zM21.83 8.31h.74c.01-.02.01-.05.02-.07L22.07 8l-.24.31zm-9.42 3.94c-.46.12-.58.44-.62.89l.62-.89zm-3.37 6.76l-.33.16c.1.06.21.16.31.16.11 0 .22-.11.33-.17-.09-.05-.19-.1-.31-.15zm11.69 3.94c.37.08.39.06.43-.4-.34-.06-.35-.05-.43.4zm-16.93.18l.04.6c.24.02.28-.09.24-.26-.03-.14.09-.4-.28-.34zM5.97 19l-.33.16c.1.06.2.16.31.17.1 0 .2-.09.3-.15-.08-.06-.17-.11-.28-.18zm14.45 3.41c.39.03.41.02.48-.44-.4-.12-.35.23-.48.44zm-7.51-11.84c-.49.03-.49.03-.54.4.4-.1.53-.19.54-.4zm10.05-2.34v-.98c-.09.24-.14.49-.21.74-.05.17.02.24.21.24zm-.61 2.76c-.33-.04-.37.01-.36.44.32-.01.33-.01.36-.44zM11.71 21.35c.38.05.38.05.43-.39-.32-.06-.32-.06-.43.39zM22.7 15.4v-.42c-.33-.04-.36 0-.32.42h.32zm-2.25 1.83l-.72.52c.62 0 .65-.02.72-.52zm3.62 7.7l.85-.46c-.52-.04-.8.06-.85.46zM13.35 13.17l-.05.39h.36v-.39h-.31zm-7.01 2.98c.01.03.03.06.04.09.1-.05.26-.08.29-.17.08-.17.09-.37.13-.56-.02-.01-.04-.03-.06-.04-.01.03-.02.07-.04.1-.11.2-.24.39-.36.58zm14.99 5.83c-.32-.04-.35-.01-.41.43h.3l.11-.43zM9.44 19.07c-.02.31.2.26.36.26.15 0 .28-.06.21-.26h-.57zm2.09 2.83c.43.08.5.02.46-.39-.18.11-.45.09-.46.39zm2.48-7.17c.06.28.26.29.45.23.07-.02.13-.12.23-.23h-.68zm7.58 7.81c-.34-.03-.36-.01-.37.42.37.05.38.04.37-.42zM5.52 23.57c-.42-.01-.47.03-.47.33l.39.03a3.47 3.47 0 0 0 .08-.36zm16.54-1.16v-.44c-.28-.02-.31.03-.27.44h.27zm-11.34-5.2c-.01 0-.02 0-.02-.01l-.25.94.27-.02v-.91zm5.75 1.82l-.8.07c.31.36.36.36.8-.07zM5.58 23.9c.3.06.37-.03.34-.45-.32.04-.33.05-.34.45zm2.6-3.93l.78-.48c-.55-.07-.58-.05-.78.48zm11.38-2v.5l.58-.03-.58-.47zM6.85 21.91c.34.04.39-.03.31-.42-.27-.01-.27-.01-.31.42zm14.14-1.67c.38.01.31-.3.44-.48h-.35l-.09.48zM23 15.59c.13.24.29.33.51.24.04-.02.08-.09.09-.14.01-.03-.06-.09-.09-.09-.17-.02-.34-.01-.51-.01zM11.78 9.48l.05.05.6-.34-.32-.21-.33.5zm9.56 12.93h.3c.01-.08.03-.15.04-.22s.01-.14.02-.2c-.29-.04-.29-.04-.36.42zm3.69-6.82c-.19 0-.34-.01-.48 0-.04 0-.1.05-.1.08-.01.04.02.1.05.13.14.11.41.02.53-.21zm-15.2 3.89h-.69l.34.39.35-.39zm5.08-1.23l-.94-.55c-.01.02-.02.04-.04.06.33.16.52.58.98.49zm5.65-2.66c.14.23.41.32.55.22.03-.03.06-.09.06-.13-.01-.03-.07-.08-.11-.08-.15-.02-.3-.01-.5-.01zm-5.57-9.2h-.91c.16.18.68.19.91 0zm8.17 4.84a27.87 27.87 0 0 0 .78-.21c0-.02-.01-.03-.01-.05h-.77v.26zm-3.2 12.29c.02.02.03.05.05.07l.42-.12-.28-.41-.19.46zm-6.92-2.7v-.41h-.27l-.03.41h.3zm13.8 3.87c.01.02.03.04.04.06l.83-.63c-.5-.04-.61.36-.87.57zM12.39 20.4l-.09.43.33-.01.04-.42h-.28zm.45-9.47c-.22.13-.57.08-.6.52.23-.18.51-.24.6-.52zm2.62 3.79c-.07.19.06.24.19.24.15 0 .35.02.38-.24h-.57zm-8.74 3.67l-.09.51h.27c.07-.21.16-.42-.18-.51zm6.74-9.71c.03.02.05.04.08.06h.33v-.52l-.41.46zM11.88 20.8c.35.04.37.02.37-.4-.34-.08-.27.22-.37.4zm1.46-13.53l.49-.62c-.36-.04-.36-.04-.49.62zm14.69 14.89l-.37.23c.17.29.34.2.52.05-.05-.08-.09-.17-.15-.28zm-16.29-4.31l-.35-.26-.13.58.48-.32zm-3.5-6.7l-.18.88c.24-.02.24-.02.18-.88zm2.14 10.84c.02.01.05.02.07.03.03-.06.1-.12.1-.18-.01-.2.1-.44-.13-.61l-.04.76zm2.74-5.87c-.36-.11-.29.16-.34.35h.34v-.35zm-1.24-.47l.67-.35c-.55-.01-.63.04-.67.35zm-.3-.93c.04.19.2.28.39.23.07-.02.12-.12.18-.18-.02-.02-.04-.03-.05-.05h-.52zM6.69 22.4c.02.02.03.04.05.06h.36l.04-.38c-.02-.01-.04-.02-.05-.03l-.4.35zm4.13-7.22l.25.19c.15-.45.15-.45-.04-.55-.07.1-.13.21-.21.36zm14.78 4.54l-.9.04c.19.23.5.2.9-.04zm-4.93 2.11c.41.1.34-.22.43-.4-.37-.09-.32.21-.43.4zm1.41-1.43c-.34-.08-.3.15-.33.35h.33v-.35zm.54-2.52c.14-.23.09-.48.04-.73-.16.22-.09.47-.04.73zM9.96 19.55c-.01-.01-.03-.01-.04-.02l-.38.42.22.25.2-.65zm2.67-1c-.05.37.08.47.51.38l-.51-.38zm-5.18-1.91c-.39-.03-.44.05-.41.5l.41-.5zm15.25-.95c0-.02.01-.05.01-.07H22v.07h.7zM6.68 18.11l.12-.58c-.01-.01-.03-.02-.04-.03l-.37.42c.08.06.16.11.29.19zm.88 4.85l-.44.28.44.15v-.43zm13.52-1.14c.3.06.33.02.34-.41-.34-.04-.23.27-.34.41zm1.7-10.52c-.07-.13-.13-.32-.18-.32-.25.02-.14.23-.2.4a8.11 8.11 0 0 1 .38-.08zM7.6 21.37v-.45c-.1.04-.22.05-.23.09-.04.11-.03.23-.04.36h.27zm13.8 2.71a10.73 10.73 0 0 0 .04-.4h-.49l.45.4zM7.29 20.93c-.39 0-.28.25-.33.43.41.07.23-.25.33-.43zm4.98.01l-.07.37c.4-.14.4-.14.37-.37h-.3zm.72-9.35c.3-.14.53-.31.49-.71l-.49.71zm-4.9-1.25c.23-.01.28-.22.19-.82l-.19.82zm12.18 8.23l-.08.35h.5l-.23-.2a4.28 4.28 0 0 0-.19-.15zm1.7-.26c-.61.05-.65.07-.6.39l.6-.39zm2.18-7.63h-.58c.16.23.36.24.58 0zm-1.92 6.81l-.19-.4-.26.4h.45zM4.34 23.77c.42.17.57.14.6-.12l-.6.12zm17.13-1.94c.28.04.32-.03.26-.42-.3.01-.19.26-.26.42zm-.17-.95c-.35-.02-.29.25-.4.41.38.07.28-.24.4-.41zm.58-10.21l-.03.11c.12.02.24.06.36.06.06 0 .11-.08.17-.12l-.03-.06-.47.01zm-10.06 4.79l-.05-.05a6.78 6.78 0 0 1-.43.11c-.01.02-.01.04-.02.06.11.05.22.14.33.13.06 0 .11-.16.17-.25zm9.62 9.2h.49l-.44-.37-.05.37zM8.45 18.89c.01-.02.02-.05.04-.07-.11-.06-.21-.16-.33-.18-.05-.01-.13.12-.19.19.02.02.03.04.05.06h.43zm0-8.37v.07h.69v-.07h-.69zm13.6 10.89c-.29.03-.15.28-.23.41.28.05.29.03.23-.41zm-.47 2.8a16.72 16.72 0 0 1 .43.39v-.39h-.43zm-14.53.4v-.23c-.35-.04-.35-.04-.31.23h.31zm12.48-4.85c-.07.3.1.28.29.28l.05-.28h-.34zm-5.86-7.07c-.33-.04-.24.19-.28.35h.28v-.35zm9.13 2.16l-.26-.37c-.02.01-.05.02-.07.03l-.06.34h.39zM6.11 22.71c-.17.17-.41.16-.37.43a2.45 2.45 0 0 0 .27.02c.04-.13.06-.25.1-.45zm2.26 1.91c-.03-.1-.04-.21-.08-.23-.07-.03-.18-.03-.25.01-.04.01-.04.13-.05.22h.38zm-2.62.06c.07-.25.02-.34-.15-.3-.06.01-.11.09-.16.14.09.04.19.09.31.16zm22.61-2.29l.24-.15-.15-.27a5.92 5.92 0 0 0-.25.12c.05.11.1.19.16.3zM9.29 24.61h.32l.05-.08c-.07-.05-.12-.14-.2-.16-.18-.04-.22.06-.17.24zm10.03-4.99l.09-.06v-.31h-.35a4.28 4.28 0 0 0 .26.37zm1.93 1.68c.37 0 .26-.26.35-.45-.31.04-.25.27-.35.45zm-13.5-5.19c.02.02.04.05.05.07h.3c.02-.02.04-.04.06-.07-.06-.06-.13-.19-.18-.18-.08.02-.15.12-.23.18zm-2.62 2.95l-.03.09.32.12c.04.01.1-.06.15-.09-.04-.04-.08-.1-.13-.11-.1-.02-.21-.01-.31-.01zm2.29-.48l.06-.29-.32-.08c-.04.23-.04.23.26.37zm5.4-12.2c.43.22.58.21.66 0h-.66zm-1.35 9.43l-.35-.26-.1.43.45-.17zm.55.29l.3.21.11-.53-.41.32zm1.15-6.04l-.06.36.41-.16v-.08l-.35-.12zm-5.15 9.41V20l.29-.53h-.29zm3.04-5.09c.45 0 .29-.35.37-.54l-.37.54zm1.58.14l-.41-.37c-.07.24.09.39.41.37zm9.49 3.36v-.26h-.3l-.04.26h.34zm-14.5-1.44c-.01-.04-.02-.09-.02-.13l-.48.06c.01.05.01.1.02.15l.48-.08zm14.83-2.2c.29.08.27-.07.26-.19 0-.06-.05-.11-.08-.16l-.18.35zm-11.89 4.92c-.01-.03-.01-.07-.02-.1-.11 0-.23-.01-.34.01-.04.01-.07.07-.11.11.04.03.08.09.11.09a4.94 4.94 0 0 0 .36-.11zM8.8 16.35c.23.22.37.21.53 0H8.8zm-.98-.61l.12.11c.06-.05.15-.1.18-.18.02-.03-.06-.11-.1-.17a5.08 5.08 0 0 1-.2.24zm5.28 1.19v-.32h-.42l.42.32zm-2.11 4.88l-.3-.36v.45l.3-.09zm11.18-5.12a.55.55 0 0 1-.09-.07l-.16.36c.33.03.22-.17.25-.29zm-9.05.38l-.4-.31a6.28 6.28 0 0 0-.07.31h.47zm-9.5 7.02c-.03.02-.06.05-.09.07.05.12-.01.33.31.26-.09-.12-.15-.23-.22-.33zM14.71 8.93c-.02.02-.04.04-.05.07.07.03.14.1.21.1.1 0 .21-.04.31-.07-.01-.03-.01-.06-.02-.1h-.45zm-1.05 5.88v-.07h-.69v.07h.69zm-6.64 4.07h.47l-.41-.28c-.03.11-.04.2-.06.28zm6.01 2.17l-.38.23c.01.02.02.05.04.07h.35c-.01-.09-.01-.17-.01-.3zm-.21-12.13c-.01.04-.02.07-.02.11.11.02.23.06.34.06.06 0 .12-.07.18-.11l-.03-.06h-.47zm11.61 16.79c.09-.34.09-.34-.26-.33l.26.33zM4 24.09c-.03.03-.06.05-.09.08.06.1.01.32.33.25a8.34 8.34 0 0 1-.24-.33zm.38 0c-.03.03-.06.05-.09.08.07.1.01.32.33.25l-.24-.33zm1.18-.69c-.38-.16-.39-.15-.42.1l.42-.1zm8.5-14.48c.37.23.44.23.53 0h-.53z" fill-rule="evenodd"/></g></svg>