<?xml version="1.0" encoding="utf-8"?>
<!-- Generator: Adobe Illustrator 26.0.1, SVG Export Plug-In . SVG Version: 6.00 Build 0)  -->
<svg version="1.1" id="Layer_1" xmlns="http://www.w3.org/2000/svg" xmlns:xlink="http://www.w3.org/1999/xlink" x="0px" y="0px"
	 viewBox="0 0 95 35" style="enable-background:new 0 0 95 35;" xml:space="preserve">
<style type="text/css">
	.st0{fill:#FFFFFF;}
</style>
<g>
	<path class="st0" d="M23.03,21.5l3.5-10.81c0.5-1.65,1.34-2.12,2.62-2.12h6.51c-0.51,0.21-0.85,1.52-0.85,1.52l-3.14,10.85
		c-0.36,1.36-1.5,2.08-2.78,2.08H22C22.49,22.94,23.03,21.5,23.03,21.5 M12.64,21.5L9.13,10.69c-0.5-1.65-1.34-2.12-2.62-2.12H0
		c0.51,0.21,0.85,1.52,0.85,1.52l3.14,10.85c0.36,1.36,1.5,2.08,2.78,2.08h6.9C13.18,22.94,12.64,21.5,12.64,21.5"/>
	<rect x="14.02" y="8.66" class="st0" width="7.66" height="14.37"/>
	<path class="st0" d="M95,22.83c-1.24,0.28-2.39,0.42-3.46,0.42c-1.89,0-3.31-0.47-4.27-1.42c-0.95-0.94-1.43-2.1-1.43-3.48
		c0-1.44,0.51-2.61,1.52-3.51c1-0.9,2.48-1.36,4.43-1.36c0.9,0,1.94,0.13,3.11,0.38v1.83c-1.2-0.34-2.17-0.51-2.89-0.51
		c-1.03,0-1.77,0.33-2.24,0.98c-0.48,0.66-0.72,1.38-0.72,2.17c0,0.61,0.14,1.17,0.41,1.7c0.27,0.53,0.66,0.91,1.15,1.15
		c0.49,0.24,1.04,0.36,1.64,0.36c0.88,0,1.8-0.15,2.74-0.46V22.83 M80.26,21.32c-0.36,0.14-0.72,0.21-1.07,0.21
		c-0.39,0-0.73-0.11-1.02-0.34c-0.29-0.23-0.44-0.52-0.44-0.88c0-0.43,0.24-0.79,0.72-1.08c0.48-0.29,1.21-0.43,2.19-0.43h0.71v1.88
		C80.97,20.96,80.61,21.17,80.26,21.32 M81.48,22.04c0.22,0.49,0.53,0.82,0.94,0.98c0.4,0.16,0.88,0.23,1.43,0.23
		c0.5,0,1.06-0.08,1.7-0.24l-0.04-1.42c-0.17,0.02-0.3,0.03-0.41,0.03c-0.19,0-0.38-0.06-0.56-0.17c-0.19-0.11-0.29-0.42-0.29-0.93
		V16.4c0-0.78-0.19-1.36-0.58-1.75c-0.4-0.39-0.92-0.68-1.57-0.87c-0.65-0.19-1.39-0.28-2.22-0.28c-1.35,0-2.71,0.22-4.07,0.65v1.75
		c1.2-0.55,2.37-0.83,3.52-0.83c0.58,0,1.06,0.1,1.44,0.3c0.38,0.2,0.57,0.58,0.57,1.16v0.84h-0.81c-2.01,0-3.46,0.31-4.36,0.92
		c-0.9,0.61-1.35,1.38-1.35,2.3c0,0.75,0.3,1.39,0.9,1.91c0.6,0.52,1.4,0.78,2.39,0.78c0.39,0,0.75-0.04,1.1-0.11
		c0.35-0.08,0.68-0.19,1-0.35c0.31-0.15,0.69-0.4,1.13-0.75H81.48z M66.35,16.91c0.37-0.44,0.77-0.79,1.2-1.04
		c0.44-0.25,0.87-0.38,1.3-0.38c0.69,0,1.22,0.25,1.59,0.76c0.37,0.51,0.56,1.2,0.56,2.08c0,0.85-0.19,1.61-0.58,2.27
		c-0.39,0.66-0.99,0.99-1.79,0.99c-0.38,0-0.75-0.07-1.11-0.21c-0.36-0.14-0.75-0.41-1.17-0.81V16.91 M66.35,26.42v-4.36
		c0.41,0.34,0.77,0.59,1.08,0.74c0.3,0.15,0.62,0.26,0.97,0.34c0.34,0.07,0.7,0.11,1.1,0.11c1.49,0,2.65-0.49,3.48-1.47
		c0.83-0.98,1.25-2.2,1.25-3.67c0-1.38-0.38-2.5-1.12-3.35c-0.74-0.85-1.79-1.28-3.14-1.28c-0.82,0-1.53,0.17-2.13,0.5
		c-0.6,0.33-1.09,0.83-1.48,1.5v-1.81h-3.01v12.73H66.35z M61.89,22.99c-0.72,0.18-1.28,0.26-1.7,0.26c-0.99,0-1.74-0.12-2.28-0.35
		c-0.54-0.24-0.95-0.55-1.22-0.95c-0.27-0.4-0.4-0.98-0.4-1.76v-4.91h-1.24v-1.59h1.24v-1.59l3.01-0.29v1.88h2.39v1.59H59.3v4.57
		c0,0.67,0.14,1.12,0.43,1.36c0.28,0.23,0.7,0.35,1.25,0.35c0.25,0,0.57-0.04,0.92-0.11V22.99 M45.77,22.74v-1.85
		c1.49,0.51,2.77,0.77,3.82,0.77c0.56,0,1.01-0.1,1.35-0.3c0.34-0.2,0.5-0.45,0.5-0.75c0-0.27-0.12-0.49-0.37-0.67
		c-0.25-0.17-0.63-0.35-1.15-0.51l-1.01-0.34c-1.05-0.35-1.83-0.74-2.34-1.17c-0.5-0.42-0.75-0.96-0.75-1.64c0-0.8,0.38-1.47,1.14-2
		c0.76-0.53,1.91-0.79,3.47-0.79c0.91,0,2,0.11,3.25,0.33v1.74c-1.21-0.32-2.22-0.48-3.02-0.48c-0.62,0-1.1,0.09-1.41,0.27
		c-0.31,0.18-0.47,0.41-0.47,0.69c0,0.22,0.1,0.42,0.3,0.59c0.2,0.17,0.56,0.33,1.08,0.49l0.88,0.28c1.45,0.46,2.39,0.91,2.84,1.34
		c0.44,0.44,0.66,0.95,0.66,1.56c0,0.78-0.4,1.47-1.21,2.07c-0.81,0.59-1.98,0.89-3.53,0.89C48.48,23.25,47.14,23.08,45.77,22.74
		 M38.37,15.68c0.37-0.4,0.85-0.6,1.43-0.6c0.53,0,0.97,0.18,1.31,0.55c0.34,0.37,0.5,0.97,0.5,1.81h-3.94
		C37.76,16.66,37.99,16.08,38.37,15.68 M44.58,20.98c-1.26,0.37-2.39,0.55-3.39,0.55c-0.78,0-1.4-0.1-1.86-0.32
		c-0.47-0.21-0.83-0.5-1.11-0.86c-0.27-0.36-0.44-0.86-0.51-1.49h6.91c-0.03-2.07-0.46-3.48-1.32-4.24
		c-0.85-0.76-1.98-1.14-3.41-1.14c-1.16,0-2.14,0.21-2.93,0.64c-0.79,0.43-1.4,1.01-1.81,1.75c-0.41,0.74-0.62,1.55-0.62,2.41
		c0,0.95,0.24,1.82,0.73,2.62c0.49,0.8,1.19,1.39,2.09,1.77c0.91,0.38,1.96,0.57,3.17,0.57c1.28,0,2.63-0.18,4.05-0.53V20.98z"/>
</g>
</svg>
