<?xml version="1.0" encoding="utf-8"?>
<!-- Generator: Adobe Illustrator 26.0.1, SVG Export Plug-In . SVG Version: 6.00 Build 0)  -->
<svg version="1.1" id="Layer_1" xmlns="http://www.w3.org/2000/svg" xmlns:xlink="http://www.w3.org/1999/xlink" x="0px" y="0px"
	 viewBox="0 0 95 35" style="enable-background:new 0 0 95 35;" xml:space="preserve">
<style type="text/css">
	.st0{fill-rule:evenodd;clip-rule:evenodd;fill:#FFFFFF;}
	.st1{fill:#FFFFFF;}
</style>
<g>
	<path class="st0" d="M12.75,24.43h6.11c0,0,1.18,0.18,1.93-0.98c0.97-1.51,4.01-5.91,4.01-5.91s0.95-0.99,0.02-2.46
		c-0.79-1.24-3.02-4.41-3.02-4.41s0.54,1.01-0.24,2.14c-1.09,1.59-7.24,10.88-7.24,10.88s-0.48,0.71-1.09,0.31
		c-0.32-0.21-0.26-0.48,0-0.96c0.26-0.48,3.08-4.49,3.08-4.49s0.5-0.62,0.5-1.32c0.01-0.57,0.05-0.61-0.35-1.27
		c-0.45-0.75-3.84-5.46-3.84-5.46s-3.39,4.71-3.85,5.46c-0.4,0.66-0.36,0.7-0.35,1.27c0.01,0.7,0.5,1.32,0.5,1.32
		s2.81,4.01,3.08,4.49c0.26,0.48,0.32,0.75,0,0.96c-0.61,0.4-1.09-0.31-1.09-0.31S4.76,14.4,3.66,12.81
		c-0.77-1.13-0.24-2.14-0.24-2.14s-2.23,3.17-3.02,4.41c-0.93,1.47,0.02,2.46,0.02,2.46s3.04,4.41,4.01,5.91
		c0.75,1.17,1.93,0.98,1.93,0.98H12.75"/>
	<path class="st0" d="M41.41,19.99c0.07-0.53,0.38-0.97,0.97-0.97c0.63,0,0.89,0.45,0.89,0.97H41.41 M45.58,22.4
		c-0.66,0.34-1.48,0.67-2.22,0.67c-1.18,0-1.94-0.82-1.94-1.96h4.1c-0.04-2.04-1.05-3.24-3.14-3.24c-1.84,0-3.24,1.34-3.24,3.19
		c0,0.99,0.36,1.98,1.2,2.59c0.74,0.54,1.75,0.65,2.65,0.65c0.7,0,1.44-0.13,2.08-0.41L45.58,22.4z"/>
	<path class="st0" d="M46.08,24c0.73,0.16,1.48,0.3,2.22,0.3c1.4,0,3.37-0.4,3.37-2.17c0-0.68-0.45-1.19-1.01-1.55
		c-0.42-0.28-0.97-0.42-1.44-0.57c-0.32-0.09-0.75-0.2-0.75-0.61c0-0.36,0.52-0.42,0.78-0.42c0.59,0,1.19,0.18,1.69,0.52v-1.38
		c-0.67-0.16-1.36-0.25-2.05-0.25c-0.69,0-1.4,0.07-2.01,0.42c-0.61,0.34-0.98,0.89-0.98,1.6c0,1.79,3.16,1.84,3.16,2.73
		c0,0.49-0.57,0.58-0.94,0.58c-0.83,0-1.64-0.3-2.34-0.73L46.08,24"/>
	<path class="st0" d="M54.36,19.28h0.37c0.49,0,0.77-0.05,1.09,0.26h0.04V18h-1.49v-0.28c0-0.56-0.07-1.2,0.7-1.2
		c0.22,0,0.37,0.09,0.54,0.22l0.89-1.35c-0.46-0.16-0.98-0.18-1.6-0.18c-0.75,0-1.44,0.11-2.06,0.62c-0.66,0.54-0.75,1.18-0.75,2V18
		l-0.89,1.27h0.89v3.39c-0.01,0.63,0.04,1.02-0.45,1.43v0.04h3.2v-0.04c-0.48-0.41-0.45-0.79-0.46-1.43V19.28"/>
	<path class="st0" d="M64.99,17.85h-0.04c-0.25,0.15-0.54,0.2-0.85,0.2h-1.85v0.04c0.49,0.41,0.45,0.81,0.45,1.42v3.18
		c0,0.62,0.04,1.01-0.45,1.41v0.04h3.19v-0.04c-0.49-0.41-0.45-0.81-0.45-1.41v-2c0-0.33-0.04-0.56,0.19-0.81
		c0.28-0.3,0.65-0.45,1.05-0.45c0.23,0,0.46,0.05,0.69,0.11v-1.61l-0.49-0.04c-0.67,0-1.23,0.33-1.43,0.94V17.85"/>
	<path class="st0" d="M69.99,17.85h-0.04c-0.26,0.13-0.57,0.2-0.86,0.2h-1.84v0.04c0.49,0.41,0.45,0.79,0.45,1.42v3.18
		c0,0.62,0.04,0.99-0.45,1.41v0.04h3.2v-0.04c-0.5-0.42-0.46-0.81-0.46-1.41v-1.98c0-0.54-0.12-1.44,0.7-1.44
		c0.81,0,0.71,0.89,0.71,1.44v1.98c0,0.62,0.04,0.99-0.45,1.41v0.04h3.2v-0.04c-0.5-0.42-0.46-0.81-0.46-1.41v-2.18
		c0-0.5-0.04-1.24,0.73-1.24c0.75,0,0.69,0.71,0.69,1.24v2.18c0,0.62,0.04,0.99-0.45,1.41v0.04h3.2v-0.04
		c-0.5-0.42-0.46-0.81-0.46-1.41v-2.66c0-0.69-0.11-1.19-0.67-1.64c-0.45-0.36-1.04-0.5-1.61-0.5c-0.74,0-1.43,0.21-1.93,0.77
		c-0.41-0.5-0.95-0.77-1.59-0.77c-0.68,0-1.22,0.25-1.6,0.77V17.85"/>
	<path class="st0" d="M80.17,19.99c0.07-0.53,0.38-0.97,0.97-0.97c0.63,0,0.89,0.45,0.89,0.97H80.17 M84.33,22.4
		c-0.66,0.34-1.48,0.67-2.22,0.67c-1.18,0-1.94-0.82-1.94-1.96h4.1c-0.04-2.04-1.04-3.24-3.14-3.24c-1.84,0-3.24,1.34-3.24,3.19
		c0,0.99,0.36,1.98,1.2,2.59c0.74,0.54,1.75,0.65,2.65,0.65c0.7,0,1.44-0.13,2.08-0.41L84.33,22.4z"/>
	<path class="st0" d="M87.04,17.85H87c-0.25,0.15-0.54,0.2-0.85,0.2H84.3v0.04c0.49,0.41,0.45,0.81,0.45,1.42v3.18
		c0,0.62,0.04,1.01-0.45,1.41v0.04h3.19v-0.04c-0.49-0.41-0.45-0.81-0.45-1.41v-2c0-0.33-0.04-0.56,0.19-0.81
		c0.28-0.3,0.65-0.45,1.05-0.45c0.22,0,0.46,0.05,0.69,0.11v-1.61l-0.49-0.04c-0.67,0-1.23,0.33-1.43,0.94V17.85"/>
	<path class="st0" d="M89.4,24c0.73,0.16,1.48,0.3,2.22,0.3c1.4,0,3.37-0.4,3.37-2.17c0-0.68-0.45-1.19-1-1.55
		c-0.42-0.28-0.97-0.42-1.44-0.57c-0.32-0.09-0.75-0.2-0.75-0.61c0-0.36,0.52-0.42,0.78-0.42c0.6,0,1.19,0.18,1.69,0.52v-1.38
		c-0.68-0.16-1.36-0.25-2.05-0.25c-0.69,0-1.4,0.07-2.01,0.42c-0.61,0.34-0.98,0.89-0.98,1.6c0,1.79,3.16,1.84,3.16,2.73
		c0,0.49-0.57,0.58-0.94,0.58c-0.83,0-1.64-0.3-2.34-0.73L89.4,24"/>
	<path class="st1" d="M33.99,19.02c0,0,1.88,5.44,1.9,5.47c0,0,1.43,0,1.46,0l2.8-9.03v-0.04h-2.24v0.04
		c0.25,0.26,0.45,0.6,0.45,0.99c0,0.33-0.13,0.74-0.23,1.06l-1.11,3.94h-0.04l-1.27-4.34c-0.15-0.48-0.3-0.93-0.3-1.43
		c0-0.08,0.03-0.17,0.05-0.23v-0.04h-2.78v0.04c0.32,0.25,0.6,0.97,0.6,1.36c0,0.26-0.13,0.74-0.2,1.01l-0.93,3.62h-0.04l-1.61-6.02
		v-0.01h-2.87v0.04c0.48,0.38,0.69,0.85,0.86,1.44l1.44,4.95c0.26,0.9,0.85,2.56,0.88,2.61c0.01,0.03,1.33-0.05,1.79,0L33.99,19.02"
		/>
	<path class="st0" d="M59,23.26c-0.25-0.01-0.73-0.04-0.81-0.06c-0.33-0.06-0.59-0.46-0.59-0.92c0-0.44,0.42-0.63,0.75-0.79
		l0.42-0.2v0.44C58.78,22.31,58.75,22.8,59,23.26 M60.06,24.13c0.34,0.13,0.7,0.18,1.09,0.18l0.53-0.04l0.54-1.15
		c-1.14-0.03-1.1-0.75-1.1-1.64v-1.06c0-0.77-0.07-1.53-0.73-2.04c-0.52-0.38-1.22-0.5-1.84-0.5c-0.57,0-1.12,0.04-1.67,0.18
		l-0.62,1.51c0.49-0.25,1.13-0.44,1.67-0.44c0.33,0,0.85,0.15,0.85,0.56c0,1.11-3.64,0.3-3.64,2.75c0,0.61,0.34,1.23,0.87,1.55
		c0.38,0.24,0.97,0.32,1.42,0.32L60.06,24.13z"/>
</g>
</svg>
