<?xml version="1.0" encoding="utf-8"?>
<!-- Generator: Adobe Illustrator 26.0.1, SVG Export Plug-In . SVG Version: 6.00 Build 0)  -->
<svg version="1.1" id="Layer_1" xmlns="http://www.w3.org/2000/svg" xmlns:xlink="http://www.w3.org/1999/xlink" x="0px" y="0px"
	 viewBox="0 0 95 35" style="enable-background:new 0 0 95 35;" xml:space="preserve">
<style type="text/css">
	.st0{fill:#FFFFFF;}
</style>
<path class="st0" d="M0.03,23.32h19v2.79h-19V23.32z"/>
<path class="st0" d="M19.03,23.32h19v2.79h-19V23.32z"/>
<path class="st0" d="M38.03,23.32h19v2.79h-19V23.32z"/>
<path class="st0" d="M57.03,23.32h19v2.79h-19V23.32z"/>
<path class="st0" d="M76,23.32h19v2.79H76V23.32z"/>
<path class="st0" d="M2.52,17.02l-0.5-2.32l-1.09-4.54C0.86,9.82,0.76,9.66,0.7,9.59C0.63,9.53,0.4,9.49,0,9.43V9.09
	c0.63,0.03,1.09,0.03,1.43,0.03c0.3,0,0.76,0,1.46-0.03v0.33c-0.5,0.03-0.76,0.03-0.83,0.1c-0.07,0.03-0.07,0.1-0.07,0.17
	c0,0.17,0.03,0.33,0.07,0.5c0.13,0.66,0.2,1.09,0.23,1.26l0.86,3.81l1.39-3.42c0.36-0.9,0.73-1.86,1.06-2.85h0.36
	c0.33,1.06,0.66,1.96,0.93,2.72l1.33,3.61l0.96-3.32c0.17-0.6,0.33-1.19,0.46-1.86l0.1-0.5c0-0.07-0.03-0.13-0.1-0.17
	c-0.07-0.03-0.36-0.07-0.9-0.07V9.09c0.56,0.03,0.96,0.03,1.19,0.03c0.23,0,0.63,0,1.19-0.03v0.33c-0.27,0-0.43,0.03-0.5,0.07
	c-0.09,0.06-0.16,0.16-0.2,0.27c-0.07,0.13-0.2,0.63-0.46,1.46l-0.56,1.86c-0.07,0.2-0.17,0.6-0.36,1.26l-0.73,2.69h-0.6
	c-0.4-1.23-0.73-2.16-0.96-2.75L5.5,10.85L4.38,13.6l-0.7,1.82c-0.1,0.23-0.17,0.46-0.23,0.66c-0.07,0.2-0.17,0.53-0.33,0.96
	L2.52,17.02L2.52,17.02z M10.15,14.13c0-0.4,0.07-0.8,0.2-1.16c0.13-0.36,0.36-0.7,0.63-0.96c0.3-0.3,0.63-0.5,0.99-0.66
	c0.4-0.17,0.86-0.23,1.29-0.23c0.43,0,0.83,0.07,1.23,0.2c0.33,0.1,0.64,0.27,0.9,0.5c0.23,0.2,0.4,0.43,0.56,0.66
	c0.1,0.2,0.2,0.43,0.23,0.63c0.07,0.27,0.1,0.53,0.1,0.8c0,0.9-0.3,1.66-0.93,2.25c-0.63,0.6-1.39,0.9-2.32,0.9
	c-0.4,0-0.8-0.07-1.19-0.2c-0.36-0.13-0.66-0.33-0.93-0.6c-0.27-0.3-0.46-0.63-0.6-0.99C10.2,14.9,10.15,14.52,10.15,14.13
	L10.15,14.13z M11.01,13.8c0,0.27,0.03,0.53,0.07,0.76c0.03,0.23,0.1,0.46,0.2,0.7c0.13,0.3,0.3,0.56,0.5,0.8
	c0.2,0.2,0.44,0.37,0.7,0.5c0.27,0.1,0.56,0.17,0.86,0.17c0.4,0,0.8-0.1,1.13-0.33c0.33-0.2,0.56-0.53,0.73-0.9
	c0.17-0.43,0.23-0.86,0.23-1.33c0-0.4-0.07-0.8-0.17-1.19c-0.07-0.2-0.17-0.4-0.27-0.6c-0.1-0.17-0.27-0.33-0.43-0.46
	c-0.2-0.13-0.4-0.27-0.63-0.33c-0.27-0.1-0.56-0.13-0.83-0.13c-0.4,0-0.8,0.1-1.13,0.3c-0.33,0.2-0.6,0.46-0.73,0.83
	C11.08,12.97,10.98,13.4,11.01,13.8L11.01,13.8z M16.68,14.13c0-0.4,0.07-0.8,0.2-1.16c0.13-0.36,0.36-0.7,0.63-0.96
	c0.3-0.3,0.63-0.5,1.03-0.66c0.4-0.17,0.86-0.23,1.29-0.23s0.83,0.07,1.23,0.2c0.33,0.1,0.64,0.27,0.9,0.5
	c0.23,0.2,0.4,0.43,0.56,0.66c0.1,0.2,0.2,0.43,0.23,0.63c0.07,0.27,0.1,0.53,0.1,0.8c0,0.9-0.3,1.66-0.93,2.25
	c-0.63,0.6-1.39,0.9-2.32,0.9c-0.4,0-0.8-0.07-1.19-0.2c-0.36-0.13-0.66-0.33-0.93-0.6c-0.27-0.27-0.46-0.63-0.6-0.99
	C16.78,14.93,16.71,14.53,16.68,14.13L16.68,14.13z M17.54,13.8c0,0.27,0.03,0.53,0.07,0.76c0.03,0.23,0.1,0.46,0.2,0.7
	c0.13,0.3,0.3,0.56,0.5,0.8c0.2,0.2,0.44,0.37,0.7,0.5c0.27,0.1,0.56,0.17,0.86,0.17c0.4,0,0.8-0.1,1.13-0.33
	c0.33-0.2,0.56-0.53,0.73-0.9c0.17-0.43,0.27-0.86,0.23-1.33c0-0.4-0.07-0.8-0.17-1.19c-0.07-0.2-0.17-0.4-0.27-0.6
	c-0.1-0.17-0.27-0.33-0.43-0.46c-0.2-0.13-0.4-0.27-0.63-0.33c-0.27-0.1-0.56-0.13-0.83-0.13c-0.4,0-0.8,0.1-1.13,0.3
	c-0.33,0.2-0.6,0.46-0.73,0.83C17.61,12.97,17.54,13.4,17.54,13.8L17.54,13.8z M23.24,16.99v-0.2c0.1-0.03,0.23-0.1,0.33-0.2
	c0.03-0.03,0.03-0.07,0.07-0.1c0.03-0.17,0.07-0.33,0.03-0.5c0-0.36,0.03-0.6,0.03-0.66v-2.16v-1.06c0-0.27-0.03-0.4-0.07-0.46
	c-0.03-0.06-0.1-0.1-0.17-0.1c-0.2-0.03-0.4-0.03-0.6-0.03v-0.27c0.66,0.03,1.06,0.03,1.23,0.03c0.17,0,0.56,0,1.16-0.03v0.27
	c-0.2,0-0.4,0-0.6,0.03c-0.07,0-0.1,0.03-0.13,0.1c-0.03,0.07-0.07,0.2-0.07,0.4c0,0.07,0,0.43-0.03,1.13v2.72
	c0,0.27,0,0.5,0.03,0.7c0.3,0.03,0.63,0.03,0.93,0.03c0.76,0,1.29-0.03,1.59-0.13c0.03-0.1,0.07-0.17,0.1-0.27l0.17-0.66h0.27
	c-0.07,0.4-0.13,0.86-0.17,1.43c-0.1,0.03-0.2,0.03-0.27,0.03h-0.66l-2.42-0.03C23.77,16.95,23.51,16.95,23.24,16.99L23.24,16.99z
	 M28.88,17.02l-0.36-1.69l-0.8-3.32c-0.07-0.23-0.1-0.36-0.17-0.43c-0.07-0.03-0.23-0.07-0.5-0.1v-0.23
	c0.46,0.03,0.8,0.03,1.03,0.03c0.2,0,0.56,0,1.06-0.03v0.23c-0.36,0-0.56,0.03-0.6,0.07c-0.03,0.03-0.07,0.07-0.07,0.1
	c0,0.13,0.03,0.23,0.03,0.36c0.1,0.5,0.13,0.8,0.17,0.93l0.63,2.79l0.99-2.49c0.27-0.66,0.53-1.33,0.76-2.06h0.27
	c0.27,0.76,0.46,1.43,0.66,1.96l0.96,2.62l0.7-2.39c0.13-0.43,0.23-0.86,0.33-1.33c0.03-0.13,0.07-0.23,0.07-0.36
	c0-0.07-0.03-0.1-0.07-0.13c-0.03-0.03-0.27-0.03-0.66-0.07v-0.23c0.43,0.03,0.7,0.03,0.86,0.03c0.17,0,0.46,0,0.86-0.03v0.23
	c-0.13,0-0.27,0-0.36,0.07c-0.07,0.03-0.13,0.1-0.17,0.2c-0.03,0.1-0.17,0.43-0.33,1.06l-0.43,1.36c-0.03,0.13-0.13,0.43-0.27,0.93
	l-0.53,1.96h-0.43c-0.3-0.9-0.53-1.56-0.7-1.99l-0.93-2.49l-0.8,1.99l-0.5,1.33c-0.07,0.17-0.13,0.33-0.17,0.5
	c-0.07,0.13-0.13,0.36-0.27,0.7h-0.3L28.88,17.02L28.88,17.02z M35.02,14.13c0-0.4,0.07-0.8,0.2-1.16c0.13-0.36,0.36-0.7,0.63-0.96
	c0.3-0.3,0.63-0.5,1.03-0.66c0.4-0.17,0.86-0.23,1.29-0.23s0.83,0.07,1.23,0.2c0.33,0.1,0.64,0.27,0.9,0.5
	c0.23,0.2,0.4,0.43,0.56,0.66c0.1,0.2,0.2,0.43,0.23,0.63c0.07,0.27,0.1,0.53,0.1,0.8c0,0.9-0.3,1.66-0.93,2.25
	c-0.63,0.6-1.39,0.9-2.32,0.9c-0.4,0-0.8-0.07-1.19-0.2c-0.36-0.13-0.66-0.33-0.93-0.6c-0.27-0.3-0.46-0.63-0.6-0.99
	C35.08,14.93,35.02,14.53,35.02,14.13L35.02,14.13z M35.84,13.8c0,0.27,0.03,0.53,0.07,0.76c0.03,0.23,0.1,0.46,0.2,0.7
	c0.13,0.3,0.3,0.56,0.5,0.8c0.2,0.2,0.44,0.37,0.7,0.5c0.27,0.1,0.56,0.17,0.86,0.17c0.4,0,0.8-0.1,1.13-0.33
	c0.33-0.2,0.56-0.53,0.73-0.9c0.17-0.43,0.23-0.86,0.23-1.33c0-0.4-0.07-0.8-0.17-1.19c-0.07-0.2-0.17-0.4-0.27-0.6
	c-0.1-0.17-0.27-0.33-0.43-0.46c-0.2-0.13-0.4-0.27-0.63-0.33c-0.27-0.1-0.56-0.13-0.83-0.13c-0.4,0-0.8,0.1-1.13,0.3
	c-0.33,0.2-0.6,0.46-0.73,0.83C35.91,12.97,35.84,13.4,35.84,13.8L35.84,13.8z M77.79,14.13c0-0.4,0.07-0.8,0.2-1.16
	c0.13-0.36,0.36-0.7,0.63-0.96c0.3-0.3,0.63-0.5,1.03-0.66c0.4-0.17,0.86-0.23,1.29-0.23c0.43,0,0.83,0.07,1.23,0.2
	c0.33,0.1,0.64,0.27,0.9,0.5c0.23,0.2,0.4,0.43,0.56,0.66c0.1,0.2,0.2,0.43,0.23,0.63c0.07,0.27,0.1,0.53,0.1,0.8
	c0,0.9-0.3,1.66-0.93,2.25c-0.63,0.6-1.39,0.9-2.32,0.9c-0.4,0-0.8-0.07-1.19-0.2c-0.36-0.13-0.66-0.33-0.93-0.6
	c-0.27-0.3-0.46-0.63-0.6-0.99C77.86,14.93,77.79,14.53,77.79,14.13z M78.65,13.8c0,0.27,0.03,0.53,0.07,0.76
	c0.03,0.23,0.1,0.46,0.2,0.7c0.13,0.3,0.3,0.56,0.5,0.8c0.2,0.2,0.44,0.37,0.7,0.5c0.27,0.1,0.56,0.17,0.86,0.17
	c0.4,0,0.8-0.1,1.13-0.33c0.33-0.2,0.56-0.53,0.73-0.9c0.17-0.43,0.23-0.86,0.23-1.33c0-0.4-0.07-0.8-0.17-1.19
	c-0.07-0.2-0.17-0.4-0.27-0.6c-0.1-0.17-0.27-0.33-0.43-0.46c-0.2-0.13-0.4-0.27-0.63-0.33c-0.27-0.1-0.56-0.13-0.83-0.13
	c-0.4,0-0.8,0.1-1.13,0.3c-0.33,0.2-0.6,0.46-0.73,0.83C78.72,12.97,78.62,13.4,78.65,13.8L78.65,13.8z"/>
<path class="st0" d="M41.22,11.51v-0.27h0.46l0.76,0.03c0.17,0,0.4,0,0.7-0.03c0.43,0,0.66-0.03,0.73-0.03c0.5,0,0.9,0.03,1.13,0.13
	c0.23,0.1,0.43,0.23,0.53,0.43c0.13,0.2,0.2,0.43,0.2,0.66c0,0.23-0.07,0.46-0.17,0.66c-0.13,0.23-0.3,0.43-0.53,0.56
	c-0.27,0.17-0.56,0.3-0.9,0.33c0.07,0.1,0.23,0.3,0.46,0.63l1.03,1.36c0.3,0.36,0.46,0.6,0.5,0.63c0.03,0.03,0.03,0.03,0.07,0.03
	c0.1,0.03,0.17,0.03,0.27,0.03v0.27c-0.2,0-0.4-0.03-0.53-0.03c-0.13,0-0.33,0-0.6,0.03c-0.17-0.2-0.46-0.6-0.86-1.19
	c-0.23-0.33-0.43-0.6-0.6-0.83c-0.27-0.36-0.56-0.7-0.8-0.99l0.03-0.13h0.33c0.5,0,0.86-0.13,1.09-0.36
	c0.27-0.23,0.4-0.56,0.36-0.93c0-0.3-0.1-0.6-0.33-0.8c-0.23-0.2-0.53-0.3-0.99-0.3c-0.27,0-0.56,0.03-0.83,0.13
	c0,0.13-0.03,0.27-0.03,0.4c0,0.03,0,0.43-0.03,1.16v1.79c0,0.36,0,0.73,0.03,1.06c0,0.27,0.03,0.4,0.07,0.46
	c0.03,0.07,0.1,0.1,0.17,0.1c0.2,0.03,0.4,0.03,0.56,0.03v0.27c-0.4-0.03-0.73-0.03-1.06-0.03c-0.27,0-0.7,0-1.29,0.03v-0.27
	c0.2,0,0.4,0,0.56-0.03c0.07,0,0.1-0.03,0.13-0.1c0.03-0.13,0.07-0.27,0.07-0.4c0-0.07,0-0.43,0.03-1.13v-1.86v-1.06
	c0-0.27-0.03-0.4-0.07-0.46c-0.03-0.07-0.1-0.1-0.13-0.1C41.61,11.51,41.42,11.51,41.22,11.51L41.22,11.51z M46.56,12.58h-0.27
	c0-0.63-0.03-1.09-0.03-1.33c0.3,0,0.76,0.03,1.39,0.03h1.03c0.2,0,0.6,0,1.29-0.03c0.5,0,0.83-0.03,1.06-0.03
	c-0.03,0.3-0.07,0.73-0.07,1.33H50.7l-0.03-0.4c-0.03-0.23-0.03-0.36-0.03-0.4c0-0.03-0.03-0.03-0.03-0.07
	c-0.03,0-0.03-0.03-0.07-0.03c-0.03,0-0.17-0.03-0.4-0.03c-0.23,0-0.43-0.03-0.56-0.03h-0.5c-0.03,0.27-0.03,0.6-0.03,1.03v3.42
	c0,0.27,0.03,0.4,0.07,0.46c0.03,0.07,0.1,0.1,0.17,0.1c0.2,0.03,0.4,0.03,0.6,0.03v0.27c-0.5-0.03-0.86-0.03-1.09-0.03
	c-0.1,0-0.53,0-1.26,0.03v-0.27c0.2,0,0.4,0,0.6-0.03c0.07,0,0.1-0.03,0.13-0.1c0.03-0.07,0.07-0.2,0.07-0.4
	c0-0.07,0-0.43,0.03-1.13v-2.35v-0.36l-0.03-0.7h-0.6c-0.27,0-0.56,0-0.83,0.03c-0.03,0-0.1,0.03-0.13,0.07
	c-0.03,0.03-0.07,0.2-0.07,0.43L46.56,12.58L46.56,12.58z M51.4,11.51v-0.27l1.26,0.03l1.16-0.03v0.27c-0.2,0-0.4,0-0.6,0.03
	c-0.07,0-0.1,0.03-0.13,0.1c-0.03,0.07-0.07,0.2-0.07,0.4c0,0.07,0,0.43-0.03,1.13v0.56c0.53,0.03,1.19,0.03,1.96,0.03
	c0.6,0,1.06,0,1.43-0.03v-0.56c0-0.36,0-0.73-0.03-1.06c0-0.27-0.03-0.4-0.07-0.46c-0.03-0.06-0.1-0.1-0.17-0.1
	c-0.2-0.03-0.4-0.03-0.6-0.03v-0.27c0.6,0,0.99,0.03,1.19,0.03c0.07,0,0.46,0,1.19-0.03v0.27c-0.2,0-0.4,0-0.6,0.03
	c-0.07,0-0.1,0.03-0.13,0.1c-0.03,0.07-0.07,0.2-0.07,0.4c0,0.07,0,0.43-0.03,1.13v1.86c0,0.36,0,0.73,0.03,1.06
	c0,0.27,0.03,0.4,0.07,0.46c0.03,0.07,0.1,0.1,0.17,0.1c0.2,0.03,0.4,0.03,0.6,0.03v0.27c-0.53-0.03-0.96-0.03-1.29-0.03
	c-0.36,0-0.73,0-1.09,0.03v-0.27c0.2,0,0.4,0,0.6-0.03c0.07,0,0.1-0.03,0.13-0.1s0.07-0.2,0.07-0.4c0-0.07,0-0.43,0.03-1.13V14.1
	c-0.76,0-1.33-0.03-1.72-0.03c-0.43,0-0.96,0-1.62,0.03v1.99c0,0.27,0.03,0.4,0.07,0.46c0.03,0.07,0.1,0.1,0.17,0.1
	c0.2,0.03,0.4,0.03,0.6,0.03v0.27c-0.36-0.03-0.73-0.03-1.13-0.03c-0.43,0-0.83,0-1.26,0.03v-0.27c0.2,0,0.4,0,0.6-0.03
	c0.07,0,0.1-0.03,0.13-0.1c0.03-0.07,0.07-0.2,0.07-0.4c0-0.07,0-0.43,0.03-1.13v-1.86v-1.06c0-0.27-0.03-0.4-0.07-0.46
	c-0.03-0.07-0.1-0.1-0.17-0.1C51.79,11.51,51.6,11.51,51.4,11.51L51.4,11.51z M58.23,16.79c0.07-0.43,0.07-0.83,0.07-1.26h0.27
	c0,0.4,0.03,0.63,0.07,0.7c0.06,0.09,0.14,0.17,0.23,0.23c0.17,0.1,0.3,0.17,0.5,0.2c0.19,0.07,0.39,0.1,0.6,0.1
	c0.27,0,0.53-0.07,0.76-0.2c0.2-0.1,0.4-0.27,0.5-0.5c0.1-0.2,0.17-0.43,0.17-0.66c0-0.17-0.03-0.3-0.07-0.46
	c-0.07-0.13-0.13-0.23-0.23-0.3c-0.13-0.1-0.27-0.13-0.4-0.17c-0.1,0-0.3-0.03-0.6-0.07c-0.3-0.03-0.56-0.07-0.76-0.13
	c-0.23-0.07-0.43-0.17-0.63-0.3c-0.13-0.13-0.27-0.27-0.33-0.46c-0.1-0.2-0.13-0.4-0.13-0.6c0-0.33,0.1-0.63,0.27-0.9
	c0.17-0.3,0.43-0.53,0.73-0.66c0.33-0.17,0.7-0.23,1.06-0.23c0.27,0,0.5,0.03,0.76,0.1c0.27,0.07,0.53,0.13,0.76,0.27
	c-0.03,0.17-0.07,0.3-0.07,0.46c-0.03,0.13-0.03,0.36-0.03,0.63h-0.27c0-0.4-0.03-0.63-0.03-0.66c-0.07-0.1-0.16-0.19-0.27-0.27
	c-0.27-0.17-0.56-0.23-0.9-0.23c-0.4,0-0.7,0.13-0.96,0.36c-0.23,0.23-0.36,0.6-0.36,0.93c0,0.2,0.03,0.36,0.13,0.53
	c0.1,0.13,0.27,0.27,0.46,0.3c0.23,0.07,0.5,0.13,0.73,0.13c0.33,0.03,0.63,0.1,0.93,0.13c0.2,0.07,0.4,0.13,0.56,0.27
	c0.13,0.1,0.23,0.27,0.3,0.4c0.07,0.2,0.13,0.4,0.13,0.6c0,0.53-0.23,0.99-0.66,1.39c-0.46,0.4-1.03,0.6-1.76,0.6
	C59.16,17.09,58.66,16.99,58.23,16.79L58.23,16.79z M71.89,16.52c-0.45,0.16-0.92,0.3-1.39,0.4c-0.6,0.13-1.19,0.17-1.82,0.2
	c-0.8,0-1.59-0.17-2.29-0.5c-0.63-0.3-1.19-0.8-1.56-1.39c-0.36-0.6-0.53-1.33-0.53-2.12c0-0.73,0.13-1.33,0.4-1.86
	c0.24-0.48,0.58-0.91,0.99-1.26c0.36-0.3,0.76-0.53,1.16-0.73c0.6-0.23,1.33-0.36,2.22-0.36c0.43,0,0.86,0.07,1.29,0.13
	c0.46,0.1,0.96,0.23,1.56,0.36c-0.07,0.2-0.1,0.36-0.13,0.56c-0.03,0.17-0.07,0.56-0.13,1.13h-0.33l-0.03-0.63v-0.23
	c0-0.07-0.03-0.17-0.07-0.23c-0.13-0.17-0.3-0.27-0.46-0.36c-0.3-0.13-0.63-0.23-0.93-0.3c-0.3-0.07-0.6-0.07-0.9-0.07
	c-0.7,0-1.33,0.17-1.82,0.46c-0.53,0.3-0.93,0.76-1.16,1.29c-0.27,0.56-0.4,1.19-0.4,1.82c0,0.7,0.17,1.36,0.46,1.96
	c0.3,0.56,0.73,1.03,1.26,1.33c0.56,0.33,1.19,0.46,1.82,0.46c0.33,0,0.63-0.03,0.96-0.1c0.27-0.07,0.53-0.13,0.8-0.27
	c0.03-0.23,0.07-0.46,0.07-0.7V14.9c0-0.33-0.03-0.53-0.07-0.56c-0.03-0.07-0.13-0.1-0.27-0.13c-0.33-0.03-0.66-0.07-1.03-0.07V13.8
	l1.76,0.03c0.33,0,0.7,0,1.03-0.03l0.03,0.27l-0.43,0.23c-0.03,0.36-0.07,0.73-0.07,1.09C71.82,15.83,71.86,16.19,71.89,16.52
	L71.89,16.52z M83.89,11.51v-0.27c0.43,0.03,0.86,0.03,1.23,0.03c0.36,0,0.76,0,1.13-0.03v0.27c-0.2,0-0.4,0-0.6,0.03
	c-0.07,0-0.1,0.03-0.13,0.1c-0.03,0.07-0.07,0.2-0.07,0.4v2.62c0,0.56,0.03,0.96,0.1,1.13c0.07,0.17,0.2,0.33,0.36,0.46
	c0.17,0.1,0.33,0.17,0.5,0.23c0.23,0.07,0.46,0.1,0.7,0.07c0.27,0,0.53-0.03,0.8-0.1c0.2-0.07,0.36-0.13,0.53-0.27
	c0.11-0.11,0.2-0.23,0.27-0.36c0.07-0.17,0.1-0.36,0.13-0.53c0.03-0.3,0.03-0.6,0.03-0.86v-1.23c0-0.36,0-0.73-0.03-1.06
	c0-0.27-0.03-0.4-0.07-0.46c-0.03-0.06-0.1-0.1-0.17-0.1c-0.2-0.03-0.4-0.03-0.6-0.03v-0.27c0.43,0.03,0.76,0.03,0.96,0.03
	c0.2,0,0.53,0,0.99-0.03v0.27c-0.2,0-0.4,0-0.6,0.03c-0.07,0-0.1,0.03-0.13,0.1c-0.03,0.07-0.07,0.2-0.07,0.4v2.49
	c0,0.66-0.03,1.13-0.13,1.39c-0.1,0.27-0.27,0.53-0.5,0.7c-0.2,0.17-0.46,0.3-0.73,0.36c-0.66,0.17-1.39,0.17-2.06-0.03
	c-0.27-0.07-0.5-0.2-0.7-0.4c-0.13-0.13-0.27-0.3-0.33-0.5c-0.07-0.23-0.1-0.6-0.1-1.09v-1.79v-1.06c0-0.27-0.03-0.4-0.07-0.46
	c-0.03-0.07-0.1-0.1-0.17-0.1C84.29,11.51,84.09,11.51,83.89,11.51L83.89,11.51z M90.39,11.51v-0.27c0.53,0,0.96,0.03,1.29,0.03
	h0.66l0.63-0.03h0.2c0.43,0,0.76,0.03,1.03,0.13c0.23,0.1,0.43,0.23,0.56,0.46c0.13,0.2,0.2,0.46,0.2,0.7s-0.07,0.5-0.17,0.7
	c-0.13,0.23-0.3,0.43-0.5,0.6c-0.2,0.17-0.43,0.27-0.7,0.36c-0.17,0.07-0.36,0.07-0.56,0.07c-0.2,0-0.36-0.03-0.56-0.07l-0.1-0.3
	c0.2,0.03,0.36,0.07,0.56,0.07s0.4-0.07,0.56-0.13c0.2-0.1,0.33-0.27,0.43-0.43c0.1-0.2,0.17-0.43,0.17-0.66
	c0-0.23-0.03-0.43-0.13-0.63c-0.1-0.2-0.27-0.33-0.46-0.43c-0.23-0.1-0.46-0.17-0.73-0.13c-0.27,0-0.56,0.07-0.83,0.13
	c-0.03,0.3-0.03,0.73-0.03,1.33v3.08c0,0.27,0.03,0.4,0.07,0.46c0.03,0.07,0.1,0.1,0.17,0.1c0.2,0.03,0.4,0.03,0.6,0.03v0.27
	c-0.5-0.03-0.86-0.03-1.09-0.03c-0.1,0-0.53,0-1.26,0.03v-0.27c0.2,0,0.4,0,0.6-0.03c0.07,0,0.1-0.03,0.13-0.1
	c0.03-0.07,0.07-0.2,0.07-0.4c0-0.07,0-0.43,0.03-1.13v-1.86v-1.06c0-0.27-0.03-0.4-0.07-0.46c-0.03-0.06-0.1-0.1-0.17-0.1
	C90.79,11.51,90.59,11.51,90.39,11.51z M72.65,11.51v-0.27h0.46l0.76,0.03c0.17,0,0.4,0,0.7-0.03c0.43,0,0.66-0.03,0.73-0.03
	c0.5,0,0.9,0.03,1.13,0.13c0.23,0.1,0.43,0.23,0.53,0.43c0.13,0.2,0.2,0.43,0.2,0.66c0,0.23-0.07,0.46-0.17,0.66
	c-0.13,0.23-0.3,0.43-0.53,0.56c-0.27,0.17-0.56,0.3-0.9,0.36c0.07,0.1,0.23,0.3,0.46,0.63l0.99,1.33c0.3,0.36,0.46,0.6,0.5,0.63
	c0.03,0.03,0.03,0.03,0.07,0.03c0.1,0.03,0.17,0.03,0.27,0.03v0.27c-0.2,0-0.4-0.03-0.53-0.03c-0.17,0-0.33,0-0.6,0.03
	c-0.17-0.2-0.46-0.6-0.86-1.19c-0.23-0.33-0.43-0.6-0.6-0.83c-0.27-0.36-0.56-0.7-0.8-0.99l0.03-0.13h0.33
	c0.5,0,0.86-0.13,1.09-0.36c0.27-0.23,0.4-0.56,0.4-0.93c0-0.3-0.1-0.6-0.33-0.8c-0.23-0.2-0.53-0.3-0.99-0.3
	c-0.27,0-0.56,0.03-0.83,0.13c0,0.13-0.03,0.27-0.03,0.4c0,0.03,0,0.43-0.03,1.16v1.79c0,0.36,0,0.73,0.03,1.06
	c0,0.27,0.03,0.4,0.07,0.46c0.03,0.07,0.1,0.1,0.17,0.1c0.2,0.03,0.4,0.03,0.56,0.03v0.27c-0.4-0.03-0.73-0.03-1.06-0.03
	c-0.27,0-0.7,0-1.29,0.03v-0.27c0.2,0,0.4,0,0.56-0.03c0.07,0,0.1-0.03,0.13-0.1c0.03-0.13,0.07-0.27,0.07-0.4
	c0-0.07,0-0.43,0.03-1.13v-1.86v-1.06c0-0.27-0.03-0.4-0.07-0.46c-0.03-0.07-0.1-0.1-0.13-0.1C73.05,11.51,72.85,11.51,72.65,11.51
	L72.65,11.51z"/>
</svg>
