<?xml version="1.0" encoding="utf-8"?>
<!-- Generator: Adobe Illustrator 26.0.1, SVG Export Plug-In . SVG Version: 6.00 Build 0)  -->
<svg version="1.1" id="Layer_1" xmlns="http://www.w3.org/2000/svg" xmlns:xlink="http://www.w3.org/1999/xlink" x="0px" y="0px"
	 viewBox="0 0 95 35" style="enable-background:new 0 0 95 35;" xml:space="preserve">
<style type="text/css">
	.st0{fill:#CCCCCC;}
</style>
<g>
	<path class="st0" d="M39.34,15.11h-1.69l-2.17,9.69l-2.83-9.62l-0.03-0.08h-1.69l-2.72,9.67l-2.14-9.59l-0.03-0.08h-1.77
		l2.88,12.57l0.03,0.08h1.9l2.72-9.77l2.77,9.69l0.03,0.08h1.85l2.91-12.6L39.34,15.11z"/>
	<path class="st0" d="M85.54,25.54V15.06h-1.66v4.41c-0.24-0.21-0.53-0.42-0.82-0.55c-0.55-0.29-1.19-0.42-1.82-0.42
		c-0.66,0-1.27,0.13-1.77,0.42c-0.69,0.37-1.24,1-1.58,1.82c-0.32,0.71-0.48,1.56-0.48,2.48c0,1.22,0.32,2.35,0.85,3.2
		c0.32,0.5,0.71,0.87,1.19,1.14c0.53,0.29,1.11,0.45,1.77,0.45c0.63,0,1.24-0.16,1.8-0.45c0.32-0.16,0.61-0.37,0.87-0.63l0.03,0.82
		h1.72l-0.05-0.69C85.57,26.6,85.54,26.07,85.54,25.54 M83.83,23.03c0,1-0.18,1.82-0.58,2.4c-0.21,0.32-0.45,0.55-0.77,0.71
		c-0.34,0.18-0.77,0.26-1.24,0.26c-0.4,0-0.74-0.11-1.03-0.29c-0.18-0.13-0.34-0.32-0.5-0.55c-0.21-0.32-0.34-0.71-0.45-1.19
		c-0.08-0.4-0.13-0.85-0.13-1.32c0-0.85,0.18-1.58,0.5-2.11c0.18-0.29,0.42-0.53,0.69-0.69C80.6,20.08,80.97,20,81.37,20
		c0.42,0,0.79,0.08,1.14,0.24c0.42,0.21,0.77,0.58,1,1.08C83.72,21.85,83.83,22.4,83.83,23.03"/>
	<path class="st0" d="M45,18.89c-0.55-0.29-1.22-0.42-1.93-0.42c-0.71,0-1.35,0.13-1.93,0.42c-0.77,0.37-1.4,1-1.82,1.82
		c-0.37,0.74-0.58,1.61-0.58,2.51c0,1.24,0.37,2.38,1.03,3.25c0.37,0.48,0.82,0.85,1.35,1.11c0.55,0.26,1.22,0.42,1.93,0.42
		c0.71,0,1.35-0.13,1.93-0.42c0.77-0.37,1.4-1,1.82-1.82c0.37-0.74,0.58-1.61,0.58-2.51c0-1.24-0.37-2.38-1.03-3.25
		C45.97,19.49,45.52,19.13,45,18.89 M44.23,26.15c-0.34,0.18-0.74,0.29-1.16,0.29c-0.42,0-0.82-0.11-1.16-0.29
		c-0.45-0.26-0.82-0.69-1.06-1.24c-0.21-0.5-0.34-1.08-0.34-1.66c0-0.79,0.21-1.58,0.61-2.17c0.21-0.32,0.48-0.58,0.79-0.74
		c0.34-0.18,0.74-0.29,1.16-0.29c0.42,0,0.82,0.11,1.16,0.29c0.45,0.26,0.82,0.69,1.06,1.24c0.21,0.5,0.34,1.08,0.34,1.66
		c0,0.79-0.21,1.58-0.61,2.17C44.81,25.73,44.55,25.97,44.23,26.15"/>
	<path class="st0" d="M54.37,18.94c-0.58-0.29-1.22-0.42-1.93-0.42c-0.71,0-1.35,0.13-1.93,0.42c-0.77,0.37-1.4,1-1.82,1.82
		c-0.37,0.74-0.58,1.61-0.58,2.51c0,1.24,0.37,2.38,1.03,3.25c0.37,0.48,0.82,0.85,1.35,1.11c0.58,0.26,1.22,0.42,1.93,0.42
		c0.71,0,1.35-0.13,1.93-0.42c0.77-0.37,1.4-1,1.82-1.82c0.37-0.74,0.58-1.61,0.58-2.51c0-1.24-0.37-2.38-1.03-3.25
		C55.35,19.55,54.9,19.18,54.37,18.94 M55.01,23.27c0,0.79-0.24,1.61-0.61,2.17c-0.21,0.32-0.48,0.58-0.79,0.74
		c-0.34,0.18-0.74,0.29-1.16,0.29c-0.42,0-0.82-0.11-1.16-0.29c-0.45-0.26-0.82-0.69-1.06-1.24c-0.21-0.5-0.34-1.11-0.34-1.66
		c0-0.79,0.24-1.58,0.61-2.17c0.21-0.32,0.48-0.58,0.79-0.74c0.34-0.18,0.71-0.29,1.16-0.29c0.42,0,0.82,0.11,1.16,0.29
		c0.45,0.26,0.82,0.69,1.06,1.24C54.87,22.11,55.01,22.69,55.01,23.27"/>
	<path class="st0" d="M65.65,25.57V15.08h-1.66v4.41c-0.24-0.21-0.53-0.42-0.82-0.55c-0.55-0.29-1.19-0.42-1.82-0.42
		c-0.66,0-1.27,0.13-1.77,0.42c-0.69,0.37-1.24,1-1.58,1.82c-0.32,0.71-0.48,1.56-0.48,2.48c0,1.22,0.32,2.35,0.85,3.2
		c0.32,0.5,0.71,0.87,1.19,1.14c0.53,0.29,1.14,0.45,1.77,0.45c0.66,0,1.24-0.16,1.8-0.45c0.32-0.16,0.61-0.37,0.87-0.63l0.03,0.82
		h1.72l-0.03-0.58C65.71,26.71,65.65,26.13,65.65,25.57 M63.96,23.09c0,1-0.18,1.82-0.58,2.4c-0.21,0.32-0.45,0.55-0.79,0.71
		c-0.34,0.18-0.77,0.26-1.24,0.26c-0.4,0-0.74-0.11-1.03-0.29c-0.18-0.13-0.37-0.32-0.5-0.55c-0.18-0.32-0.34-0.74-0.45-1.19
		c-0.08-0.4-0.13-0.87-0.13-1.32c0-0.85,0.18-1.58,0.5-2.11c0.18-0.29,0.42-0.53,0.69-0.69c0.29-0.18,0.66-0.26,1.06-0.26
		c0.42,0,0.82,0.08,1.14,0.24c0.42,0.21,0.77,0.58,1,1.08C63.86,21.87,63.96,22.45,63.96,23.09"/>
	<path class="st0" d="M72.28,22.72c-0.71-0.24-1.35-0.4-1.9-0.55c-0.37-0.08-0.69-0.16-0.95-0.26c-0.34-0.11-0.55-0.21-0.71-0.34
		c-0.05-0.05-0.11-0.13-0.13-0.18c-0.03-0.08-0.05-0.16-0.05-0.29c0-0.18,0.03-0.32,0.13-0.48c0.11-0.18,0.29-0.32,0.58-0.42
		c0.26-0.11,0.58-0.16,0.92-0.16c0.5,0,0.95,0.08,1.24,0.26c0.16,0.08,0.29,0.21,0.37,0.34c0.11,0.16,0.16,0.32,0.18,0.53l0.03,0.29
		h1.74l-0.03-0.34c-0.03-0.48-0.16-0.9-0.37-1.24c-0.29-0.5-0.71-0.85-1.29-1.08c-0.5-0.18-1.08-0.29-1.8-0.29
		c-0.63,0-1.53,0.11-2.3,0.55c-0.37,0.21-0.63,0.5-0.85,0.82c-0.21,0.37-0.32,0.79-0.32,1.27c0,0.42,0.11,0.79,0.26,1.11
		c0.13,0.21,0.29,0.42,0.5,0.58c0.26,0.21,0.61,0.4,1.03,0.53c0.37,0.13,0.77,0.24,1.16,0.32l0.24,0.05
		c0.58,0.13,1.14,0.24,1.56,0.42c0.21,0.11,0.4,0.24,0.5,0.37c0.11,0.16,0.16,0.32,0.16,0.53c0,0.24-0.05,0.42-0.16,0.61
		c-0.13,0.24-0.37,0.42-0.69,0.55c-0.29,0.13-0.69,0.18-1.08,0.18c-0.58,0-1.08-0.11-1.43-0.29c-0.18-0.11-0.32-0.24-0.42-0.4
		c-0.11-0.18-0.18-0.37-0.18-0.63l-0.03-0.29h-1.74v0.32c0,0.5,0.13,0.95,0.34,1.32c0.29,0.53,0.77,0.92,1.4,1.19
		c0.53,0.21,1.14,0.34,1.8,0.34c1.03,0,1.95-0.26,2.67-0.71c0.4-0.26,0.69-0.58,0.92-0.95c0.24-0.4,0.34-0.87,0.34-1.37
		c0-0.5-0.16-0.98-0.45-1.4C73.21,23.19,72.78,22.9,72.28,22.72"/>
	<path class="st0" d="M74.74,15.11h1.82v1.88h-1.82V15.11z"/>
	<path class="st0" d="M74.82,18.78h1.66v9.03h-1.66V18.78z"/>
	<path class="st0" d="M93.18,24.7c-0.11,0.48-0.37,0.92-0.77,1.22c-0.4,0.32-0.87,0.5-1.37,0.5c-0.45,0-0.87-0.08-1.22-0.24
		c-0.48-0.21-0.82-0.55-1.06-1.06c-0.18-0.37-0.32-0.85-0.34-1.37H95v-0.32c0-1.48-0.32-2.64-0.92-3.49
		c-0.34-0.48-0.79-0.85-1.32-1.08c-0.55-0.26-1.22-0.4-1.95-0.4c-0.66,0-1.27,0.13-1.82,0.4c-0.74,0.37-1.35,1-1.74,1.8
		c-0.37,0.74-0.58,1.61-0.58,2.54c0,1.27,0.34,2.4,0.98,3.25c0.34,0.48,0.77,0.82,1.27,1.08c0.53,0.26,1.14,0.4,1.8,0.4
		c1.11,0,2.01-0.26,2.69-0.77c0.69-0.53,1.19-1.32,1.48-2.38l0.03-0.13h-1.72V24.7z M89.14,20.79c0.21-0.24,0.45-0.42,0.71-0.55
		c0.29-0.13,0.61-0.21,0.95-0.21c0.4,0,0.74,0.05,1.03,0.18c0.42,0.18,0.74,0.48,1,0.87c0.18,0.32,0.32,0.69,0.37,1.14h-4.73
		C88.58,21.66,88.82,21.16,89.14,20.79"/>
	<path class="st0" d="M21.46,10.06c-1.14-0.95-4.99,2.46-6.58,3.99c0.42,2.93-0.13,5.26-1.58,7.5c-0.16,0.24-0.32,0.45-0.5,0.66
		c1.56,0.18,3.91-1.24,6.76-5.23C21.14,14.74,22.83,11.2,21.46,10.06"/>
	<path class="st0" d="M8.78,23.96c-2.38-0.48-2.85-3.12-2.69-5.63c0-0.08,0-0.16,0-0.26c-2.01-1.56-4.75-3.38-5.63-2.54
		c-1.37,1.29,0.61,4.86,2.4,7.11c4.07,5.07,7.03,5.89,8.45,4.52c0.48-0.45,0.85-1.64-0.21-3.65c-0.03,0-0.03,0.03-0.05,0.03
		C10.15,24.01,9.28,24.06,8.78,23.96"/>
	<path class="st0" d="M14.88,14.05c-0.55-3.35-2.77-7.19-4.54-7.11c-1.85,0.11-4.07,6.68-4.25,11.15c1.14,0.87,2.03,1.69,2.22,1.88
		c1.4,1.4,2.3,2.59,2.83,3.57c0.55-0.29,1.14-0.71,1.66-1.32c-0.4-0.05-0.77-0.21-1.06-0.45c-0.71-0.61-1.32-2.8,2.48-7.05
		C14.3,14.61,14.54,14.37,14.88,14.05"/>
</g>
</svg>
