<?xml version="1.0" encoding="utf-8"?>
<!-- Generator: Adobe Illustrator 26.0.1, SVG Export Plug-In . SVG Version: 6.00 Build 0)  -->
<svg version="1.1" id="Layer_1" xmlns="http://www.w3.org/2000/svg" xmlns:xlink="http://www.w3.org/1999/xlink" x="0px" y="0px"
	 viewBox="0 0 95 35" style="enable-background:new 0 0 95 35;" xml:space="preserve">
<style type="text/css">
	.st0{fill:#FFFFFF;}
</style>
<g>
	<g>
		<g>
			<path class="st0" d="M32.1,6.43l1.73,0.02l1.81,5.64l2.08-5.64h1.69l2.05,5.64l1.88-5.64h1.73l-2.76,7.95h-1.64l-2.11-5.68
				l-2.15,5.68h-1.67L32.1,6.43z"/>
			<path class="st0" d="M46.75,2.94C47.36,2.92,47.87,3.39,47.9,4c0,0.03,0,0.06,0,0.09c-0.02,0.63-0.55,1.13-1.19,1.1
				c-0.6-0.02-1.08-0.5-1.1-1.1c-0.02-0.61,0.45-1.12,1.06-1.14C46.69,2.94,46.72,2.94,46.75,2.94z M45.89,6.45h1.72v7.95h-1.72
				V6.45z"/>
			<path class="st0" d="M48.42,12.76l1.53-0.83c0.46,0.75,1.14,1.14,2.1,1.14c0.99,0,1.5-0.48,1.5-1.03c0-0.65-0.95-0.79-1.97-1.02
				c-1.35-0.27-2.78-0.72-2.78-2.35c0-1.26,1.21-2.42,3.1-2.4c1.53,0,2.57,0.57,3.24,1.53l-1.43,0.78
				c-0.38-0.57-0.97-0.91-1.81-0.91c-0.94,0-1.38,0.43-1.38,0.96c0,0.57,0.68,0.7,1.89,0.97c1.34,0.29,2.85,0.73,2.85,2.4
				c0,1.19-1.07,2.56-3.27,2.54C50.24,14.55,49.1,13.93,48.42,12.76z"/>
			<path class="st0" d="M55.88,10.45c0-2.34,1.8-4.16,4.13-4.16c2.34,0,4.09,1.7,4.09,4.05v0.67h-6.58
				c0.22,1.23,1.18,2.04,2.56,2.04c0.99,0.03,1.9-0.54,2.32-1.43l1.4,0.78c-0.7,1.3-1.96,2.16-3.72,2.16
				C57.57,14.55,55.88,12.76,55.88,10.45z M57.6,9.56h4.77c-0.25-1.14-1.13-1.78-2.35-1.78C58.9,7.76,57.91,8.49,57.6,9.56z"/>
			<path class="st0" d="M64.52,6.45h1.35V4.57l1.72-0.94v2.81h1.69v1.53h-1.69v3.16c0,1.43,0.22,1.65,1.69,1.65v1.61h-0.25
				c-2.42,0-3.15-0.77-3.15-3.24V7.97h-1.35L64.52,6.45z"/>
			<path class="st0" d="M69.75,10.45c0-2.34,1.8-4.16,4.13-4.16c2.34,0,4.09,1.7,4.09,4.05v0.67h-6.58
				c0.22,1.23,1.18,2.04,2.56,2.04c0.99,0.03,1.9-0.54,2.32-1.43l1.4,0.78c-0.7,1.3-1.96,2.16-3.72,2.16
				C71.44,14.55,69.75,12.76,69.75,10.45z M71.47,9.56h4.77c-0.25-1.14-1.13-1.78-2.35-1.78C72.77,7.76,71.78,8.49,71.47,9.56z"/>
			<path class="st0" d="M78.71,10.42c-0.02-2.26,1.78-4.11,4.04-4.13c0.03,0,0.07,0,0.1,0c1.76,0,3.16,1,3.77,2.43L85.1,9.37
				c-0.36-0.92-1.26-1.51-2.24-1.49c-1.42,0-2.48,1.13-2.48,2.54c-0.02,1.38,1.08,2.52,2.46,2.54c0.02,0,0.03,0,0.05,0
				c1.07,0,1.88-0.67,2.24-1.56l1.53,0.65c-0.64,1.46-1.96,2.49-3.81,2.49c-2.26,0.02-4.12-1.79-4.14-4.06
				C78.71,10.47,78.71,10.44,78.71,10.42z"/>
			<path class="st0" d="M87.64,2.79h1.69v4.66c0.59-0.75,1.5-1.18,2.45-1.16c2,0,3.22,1.3,3.22,3.46v4.64h-1.74V9.91
				c0-1.32-0.64-2.15-1.92-2.15c-1.13,0-2,0.86-2,2.26v4.37h-1.7V2.79z"/>
		</g>
	</g>
	<path class="st0" d="M0,23.69h2.32v-6.97H0V23.69z M9.29,28.34h2.32v-6.97H9.29V28.34z M23.23,16.72v6.97h2.32v-6.97H23.23z
		 M0,14.4h2.32V2.79H0V14.4z M4.64,14.4h2.32V2.79H4.64V14.4z M9.29,14.4h2.32V2.79H9.29V14.4z M13.94,28.34h2.32V16.73h-2.32V28.34
		z M18.58,14.42h2.32V2.81h-2.32V14.42z"/>
	<g>
		<g>
			<path class="st0" d="M32.52,24.36c0-2.54,1.89-4.14,3.98-4.14c1.02-0.01,1.99,0.45,2.64,1.24v-1.07h1.7v7.76
				c0,2.34-1.46,4.06-4.01,4.06c-2,0-3.34-0.95-3.94-2.24l1.58-0.75c0.4,0.87,1.16,1.43,2.37,1.43c1.45,0,2.32-1.07,2.32-2.43v-1
				c-0.65,0.82-1.63,1.29-2.67,1.29C34.46,28.5,32.52,26.88,32.52,24.36z M39.23,24.35c0-1.42-1.07-2.58-2.51-2.58
				c-1.42,0-2.51,1.13-2.51,2.58c0,1.45,1.1,2.59,2.51,2.59C38.17,26.94,39.23,25.78,39.23,24.35z"/>
			<path class="st0" d="M42.34,16.73h1.71v11.61h-1.71V16.73z"/>
			<path class="st0" d="M45.16,24.36c0-2.28,1.86-4.13,4.14-4.12c2.28,0,4.13,1.86,4.12,4.14c0,2.28-1.86,4.13-4.14,4.12
				c-2.26,0.01-4.11-1.81-4.12-4.07C45.16,24.41,45.16,24.38,45.16,24.36z M51.73,24.36c0-1.4-1.08-2.54-2.46-2.54
				c-1.37,0-2.43,1.14-2.43,2.54c0,1.4,1.07,2.55,2.43,2.55C50.65,26.91,51.73,25.76,51.73,24.36z"/>
			<path class="st0" d="M56.21,27.26v1.07h-1.67V16.73h1.69v4.72c0.65-0.79,1.62-1.24,2.64-1.23c2.08,0,3.96,1.59,3.96,4.14
				c0,2.55-1.92,4.14-3.94,4.14C57.82,28.5,56.8,28.04,56.21,27.26z M61.14,24.34c0-1.45-1.1-2.58-2.51-2.58
				c-1.42,0-2.5,1.16-2.5,2.58c0,1.42,1.07,2.59,2.5,2.59C60.06,26.93,61.14,25.79,61.14,24.34L61.14,24.34z"/>
			<path class="st0" d="M63.56,24.36c0-2.54,1.89-4.14,3.98-4.14c1.05,0,2.05,0.46,2.64,1.19v-1.03h1.7v7.95h-1.7v-1.1
				c-0.65,0.8-1.63,1.27-2.66,1.26C65.5,28.5,63.56,26.88,63.56,24.36z M70.27,24.35c0-1.42-1.07-2.58-2.51-2.58
				c-1.42,0-2.51,1.13-2.51,2.58c0,1.45,1.1,2.59,2.51,2.59C69.21,26.94,70.27,25.78,70.27,24.35L70.27,24.35z"/>
			<path class="st0" d="M73.37,16.73h1.7v11.61h-1.7V16.73z"/>
		</g>
	</g>
	<path class="st0" d="M0,23.69h2.32v-6.97H0V23.69z M9.29,28.34h2.32v-6.97H9.29V28.34z M23.23,16.72v6.97h2.32v-6.97H23.23z
		 M0,14.4h2.32V2.79H0V14.4z M4.64,14.4h2.32V2.79H4.64V14.4z M9.29,14.4h2.32V2.79H9.29V14.4z M13.94,28.34h2.32V16.73h-2.32V28.34
		z M18.58,14.42h2.32V2.81h-2.32V14.42z"/>
</g>
</svg>
