<?xml version="1.0" encoding="utf-8"?>
<!-- Generator: Adobe Illustrator 26.0.1, SVG Export Plug-In . SVG Version: 6.00 Build 0)  -->
<svg version="1.1" id="Layer_1" xmlns="http://www.w3.org/2000/svg" xmlns:xlink="http://www.w3.org/1999/xlink" x="0px" y="0px"
	 viewBox="0 0 95 35" style="enable-background:new 0 0 95 35;" xml:space="preserve">
<style type="text/css">
	.st0{fill:#CCCCCC;}
</style>
<g>
	<path class="st0" d="M46.3,14.79c-0.81-0.29-1.75-0.17-2.47,0.3c-0.6,0.39-1.03,1.01-1.21,1.7c1.83,0,3.67,0,5.5,0
		C47.9,15.87,47.2,15.09,46.3,14.79z"/>
	<path class="st0" d="M58.29,14.91c-0.52-0.25-1.13-0.33-1.7-0.22c-0.69,0.12-1.32,0.52-1.74,1.08c-0.47,0.62-0.67,1.46-0.5,2.22
		c0.16,0.83,0.72,1.57,1.48,1.95c0.56,0.29,1.23,0.38,1.85,0.25c0.69-0.14,1.32-0.56,1.72-1.14c0.45-0.63,0.62-1.47,0.44-2.23
		C59.66,16,59.06,15.27,58.29,14.91z M57.4,18.38c-0.37,0.12-0.82,0-1.06-0.31c-0.21-0.25-0.27-0.62-0.17-0.93
		c0.1-0.31,0.36-0.55,0.67-0.63c0.57-0.17,1.22,0.28,1.23,0.88C58.12,17.82,57.82,18.25,57.4,18.38z"/>
	<path class="st0" d="M64.34,12.74c-0.52-1.86-1.36-3.63-2.46-5.22c-2.1-3.04-5.2-5.39-8.7-6.58c-2.31-0.8-4.78-1.09-7.22-0.88
		C42.17,0.38,38.51,2,35.7,4.57c-2.41,2.19-4.19,5.07-5.06,8.21c-0.66,2.36-0.81,4.86-0.46,7.28c0.3,2.07,0.98,4.08,2,5.91
		c1.76,3.19,4.54,5.8,7.83,7.35c3.58,1.71,7.74,2.12,11.59,1.19c2.96-0.71,5.71-2.21,7.91-4.3c2.02-1.91,3.58-4.31,4.5-6.94
		C65.21,19.91,65.32,16.17,64.34,12.74z M41.13,21.34c-0.2,0.06-0.41-0.02-0.55-0.16c-0.99-0.98-1.97-1.97-2.96-2.96
		c-0.93,0.93-1.85,1.86-2.79,2.78c-0.14,0.14-0.27,0.32-0.48,0.35c-0.25,0.05-0.54-0.11-0.61-0.36c-0.07-0.19-0.02-0.41,0.12-0.55
		c0.99-1,1.99-1.98,2.97-2.98c-0.01-0.01-0.02-0.04-0.02-0.05c-0.91-0.91-1.82-1.82-2.73-2.73c-0.15-0.15-0.34-0.3-0.36-0.53
		c-0.04-0.28,0.16-0.56,0.44-0.6c0.19-0.04,0.39,0.04,0.52,0.18c0.98,0.98,1.97,1.97,2.96,2.95c1-1,1.99-1.99,2.99-2.99
		c0.23-0.23,0.67-0.18,0.83,0.11c0.14,0.21,0.1,0.51-0.08,0.69c-0.99,0.99-1.98,1.98-2.97,2.97c0.96,0.96,1.92,1.92,2.88,2.88
		c0.12,0.12,0.25,0.26,0.25,0.44C41.55,21.03,41.38,21.28,41.13,21.34z M48.83,17.7c-0.24,0.15-0.54,0.19-0.82,0.18
		c-1.81,0-3.62,0-5.43,0c0.1,0.68,0.48,1.31,1.01,1.75c0.69,0.59,1.68,0.79,2.55,0.55c0.52-0.14,0.98-0.45,1.33-0.85
		c0.13-0.14,0.21-0.33,0.39-0.42c0.27-0.16,0.68-0.01,0.77,0.29c0.05,0.2,0.03,0.42-0.1,0.58c-0.3,0.39-0.65,0.75-1.07,1.01
		c-0.53,0.33-1.15,0.53-1.78,0.59c-0.88,0.07-1.79-0.17-2.52-0.68c-0.75-0.52-1.33-1.3-1.57-2.18c-0.44-1.53,0.16-3.29,1.45-4.23
		c0.82-0.61,1.88-0.87,2.89-0.73c0.83,0.11,1.62,0.5,2.21,1.09c0.57,0.55,0.94,1.29,1.09,2.07C49.31,17.1,49.15,17.5,48.83,17.7z
		 M51.94,14.88c-0.25,0.14-0.41,0.41-0.46,0.69c-0.1,0.46-0.08,0.94-0.08,1.41c0,1.26,0,2.53,0,3.79c0.01,0.29-0.25,0.55-0.54,0.54
		c-0.31,0.01-0.57-0.28-0.55-0.58c0-2.18,0-4.35,0-6.53c-0.01-0.25,0.15-0.49,0.39-0.55c0.29-0.09,0.6,0.1,0.68,0.39
		c0.47-0.35,1.07-0.5,1.65-0.43c0.3,0.06,0.48,0.4,0.39,0.68c-0.06,0.21-0.27,0.36-0.49,0.36C52.59,14.67,52.24,14.72,51.94,14.88z
		 M60.9,18.45c-0.22,0.84-0.72,1.59-1.41,2.12c-0.67,0.52-1.52,0.81-2.37,0.81c-0.85,0.01-1.71-0.27-2.39-0.79
		c-0.63-0.47-1.11-1.14-1.36-1.89c-0.33-0.97-0.26-2.07,0.2-2.99c0.56-1.16,1.72-2,3-2.16c0.84-0.11,1.71,0.05,2.44,0.47
		c0.79,0.44,1.42,1.16,1.74,2C61.06,16.79,61.11,17.65,60.9,18.45z"/>
</g>
</svg>
