<?xml version="1.0" encoding="utf-8"?>
<!-- Generator: Adobe Illustrator 26.0.1, SVG Export Plug-In . SVG Version: 6.00 Build 0)  -->
<svg version="1.1" id="Layer_1" xmlns="http://www.w3.org/2000/svg" xmlns:xlink="http://www.w3.org/1999/xlink" x="0px" y="0px"
	 viewBox="0 0 95 35" style="enable-background:new 0 0 95 35;" xml:space="preserve">
<style type="text/css">
	.st0{fill:#FFFFFF;}
</style>
<polygon class="st0" points="0,5.8 0,20.4 8.7,29.2 8.7,11.6 17.5,20.4 17.5,5.8 "/>
<path id="path653" class="st0" d="M91.5,7.1c-3.5,0-3.5,2.6-3.5,5.3s0,5.3,3.5,5.3s3.5-2.6,3.5-5.3S95,7.1,91.5,7.1L91.5,7.1z
	 M26.4,7.3l-2.8,10.2h2.1l0.6-2.3h2.9l0.6,2.3h2.3L29.3,7.3H26.4z M33.8,7.3v10.2h3.7c0.9,0,3.2-0.1,3.2-2.7c0-1.4-0.4-2.4-1.9-2.6
	c1.2-0.2,1.8-1.1,1.8-2.3c0-2.2-1.3-2.6-2.9-2.6H33.8z M43.2,7.3v10.2h2V10h0.1l2.8,7.5h2.8V7.3h-2v7.1l-2.7-7.1H43.2z M59.1,7.3
	l-2.8,10.2h2.1l0.6-2.3h2.9l0.6,2.3h2.3L61.9,7.3H59.1z M66.5,7.3v10.2h2.1V9.6h0.1l1.8,7.9h2.1l2-7.9v7.9h2.1V7.3h-3.3l-1.7,7
	l-1.6-7H66.5z M79.3,7.4v10.1h2.1v-4.3h0.6c1.6,0,1.5,1,1.5,2.3c0,0.7-0.1,1.3,0.2,2h2.1c-0.2-0.4-0.2-2.4-0.2-3c0-1.8-1.4-2-1.8-2
	c1.4-0.2,1.9-1.2,1.9-2.5c0-1.8-1-2.6-2.4-2.6L79.3,7.4z M91.5,8.7c1.2,0,1.3,1.1,1.3,3.7s-0.1,3.7-1.3,3.7c-1.2,0-1.3-1.1-1.3-3.7
	S90.3,8.7,91.5,8.7z M36,8.8h1.3c0.7,0,1.2,0.6,1.2,1.3c0,1-0.7,1.3-1.1,1.3H36V8.8z M81.5,8.8h1c0.7,0,1.1,0.4,1.1,1.3
	c0,0.7-0.2,1.5-1.1,1.5h-1V8.8z M27.6,9.3l1.1,4.4h-2.1L27.6,9.3z M60.4,9.3l1.1,4.4h-2.1L60.4,9.3z M54.3,10.2l-1.4,1.4l1.4,1.4
	l1.4-1.4L54.3,10.2z M36,13h1.2c1.1,0,1.4,0.6,1.4,1.5c0,1.4-1,1.5-1.5,1.5H36V13z"/>
</svg>
