<?xml version="1.0" encoding="utf-8"?>
<!-- Generator: Adobe Illustrator 26.0.1, SVG Export Plug-In . SVG Version: 6.00 Build 0)  -->
<svg version="1.1" id="Layer_1" xmlns="http://www.w3.org/2000/svg" xmlns:xlink="http://www.w3.org/1999/xlink" x="0px" y="0px"
	 viewBox="0 0 95 35" style="enable-background:new 0 0 95 35;" xml:space="preserve">
<style type="text/css">
	.st0{fill:#343741;}
</style>
<g>
	<path class="st0" d="M88.1,27.4l0-0.2c0.3-1.2,1.3-2,2.5-2c1.3,0,2.2,0.7,2.4,2l0,0.2L88.1,27.4L88.1,27.4z M90.8,23.7
		c-2.6,0-4.5,1.9-4.5,4.5c0,2.6,1.9,4.5,4.5,4.5c1.4,0,2.7-0.5,3.5-1.4l-1.1-1.2c-0.4,0.4-1.2,1-2.4,1c-1.4,0-2.5-0.9-2.8-2.3l0-0.2
		H95v-0.4C94.8,25.4,93.2,23.7,90.8,23.7"/>
	<path class="st0" d="M43.2,27.4l0-0.2c0.3-1.2,1.3-2,2.5-2c1.3,0,2.2,0.7,2.4,2l0,0.2L43.2,27.4L43.2,27.4z M45.9,23.7
		c-2.6,0-4.5,1.9-4.5,4.5c0,2.6,1.9,4.5,4.5,4.5c1.4,0,2.7-0.5,3.5-1.4l-1.1-1.2c-0.4,0.4-1.2,1-2.4,1c-1.4,0-2.5-0.9-2.8-2.3l0-0.2
		h6.9v-0.4C50,25.4,48.4,23.7,45.9,23.7"/>
	<path class="st0" d="M75.8,19.9c-0.7,0-1.2,0.6-1.2,1.2c0,0.7,0.6,1.2,1.2,1.2c0.7,0,1.2-0.6,1.2-1.2
		C77.1,20.4,76.5,19.9,75.8,19.9"/>
	<rect x="51.6" y="20.1" class="st0" width="1.7" height="12.5"/>
	<rect x="75" y="23.8" class="st0" width="1.7" height="8.8"/>
	<polygon class="st0" points="78.4,23.8 78.4,25.3 83.2,25.3 78.4,32 78.4,32.6 85.6,32.6 85.6,31.1 80.8,31.1 85.6,24.4 85.6,23.8 
			"/>
	<path class="st0" d="M71.5,26.6L71.5,26.6l0,3.2l0,0C71,30.6,70,31.1,69,31.1c-1.6,0-2.8-1.2-2.8-2.9s1.2-2.9,2.8-2.9
		C70,25.3,71,25.8,71.5,26.6 M64.5,28.2c0,2.6,1.9,4.5,4.5,4.5c0.9,0,1.7-0.3,2.3-0.8l0.3-0.2v0.8h1.7v-8.8h-1.7v0.9l-0.3-0.2
		c-0.6-0.5-1.4-0.8-2.3-0.8C66.4,23.7,64.5,25.6,64.5,28.2"/>
	<path class="st0" d="M59.5,23.7c-1,0-1.9,0.3-2.4,0.9L56.8,25v-4.9h-1.7v12.5h1.7V27v0c0.4-1.1,1.2-1.7,2.3-1.7
		c1.4,0,2.2,1.1,2.2,2.2v5.1H63v-5.2C63,25.2,61.7,23.7,59.5,23.7"/>
	<path class="st0" d="M33.9,30.9h-2.1v-9.3h2.1c2.8,0,4.8,1.9,4.8,4.6C38.6,29,36.6,30.9,33.9,30.9 M33.9,20.1h-3.9v12.5h3.9
		c3.8,0,6.6-2.7,6.6-6.3S37.6,20.1,33.9,20.1"/>
	<rect x="62.6" y="4.6" class="st0" width="1.7" height="12.5"/>
	<path class="st0" d="M33.1,12.7l2.2-5.5l2.2,5.5H33.1z M34.6,4.6l-5.2,12.5h1.9l1.2-2.9h5.6l1.2,2.9h1.9L36.1,4.6
		C36.1,4.6,34.6,4.6,34.6,4.6z"/>
	<path class="st0" d="M47.1,8.3c-1,0-1.9,0.3-2.4,0.9l-0.3,0.3V4.6h-1.7v12.5h1.7v-5.6l0,0c0.4-1.1,1.2-1.7,2.3-1.7
		C48.2,9.9,49,11,49,12v5.1h1.7V12C50.6,9.7,49.2,8.3,47.1,8.3"/>
	<path class="st0" d="M56.6,15.7c-1.6,0-2.8-1.2-2.8-2.9s1.2-2.9,2.8-2.9c1.6,0,2.8,1.3,2.8,2.9C59.4,14.5,58.2,15.7,56.6,15.7
		 M56.6,8.3c-2.6,0-4.5,1.9-4.5,4.5c0,2.6,1.9,4.5,4.5,4.5c2.6,0,4.5-1.9,4.5-4.5C61.1,10.2,59.2,8.3,56.6,8.3"/>
	<path class="st0" d="M72.7,11.2v3.2l0,0c-0.5,0.8-1.5,1.3-2.5,1.3c-1.6,0-2.8-1.2-2.8-2.9s1.2-2.9,2.8-2.9
		C71.2,9.8,72.2,10.4,72.7,11.2L72.7,11.2z M70.2,8.3c-2.6,0-4.5,1.9-4.5,4.5c0,2.6,1.9,4.5,4.5,4.5c0.9,0,1.7-0.3,2.3-0.8l0.3-0.2
		v0.8h1.7V4.6h-1.7v4.6L72.5,9C71.8,8.5,71,8.3,70.2,8.3"/>
	<path class="st0" d="M11.7,3.8c0.4,0,0.8-0.4,0.8-0.8s-0.4-0.8-0.8-0.8c-0.4,0-0.8,0.4-0.8,0.8C10.9,3.5,11.3,3.8,11.7,3.8"/>
	<path class="st0" d="M11.7,3.8c0.4,0,0.8-0.4,0.8-0.8s-0.4-0.8-0.8-0.8c-0.4,0-0.8,0.4-0.8,0.8C10.9,3.5,11.3,3.8,11.7,3.8"/>
	<path class="st0" d="M5.8,8.1h1.6c0,0-0.3-0.3-1.3-1.3C5.6,6.1,5.6,5.7,6.3,5.7h0.2l0.8-1.3c0,0-0.7,0-1,0C4.3,4.4,4,6.3,5,7.3
		C5.7,7.9,5.8,8.1,5.8,8.1"/>
	<path class="st0" d="M5.8,8.1h1.6c0,0-0.3-0.3-1.3-1.3C5.6,6.1,5.6,5.7,6.3,5.7h0.2l0.8-1.3c0,0-0.7,0-1,0C4.3,4.4,4,6.3,5,7.3
		C5.7,7.9,5.8,8.1,5.8,8.1"/>
	<path class="st0" d="M17.2,5.6c0.7,0,0.7,0.5,0.1,1.1c-1,1.1-1.3,1.3-1.3,1.3h1.6c0,0,0.1-0.1,0.9-0.9c1-0.9,0.6-2.9-1.3-2.9
		c-0.3,0-1,0-1,0L17,5.6L17.2,5.6L17.2,5.6z"/>
	<path class="st0" d="M17.2,5.6c0.7,0,0.7,0.5,0.1,1.1c-1,1.1-1.3,1.3-1.3,1.3h1.6c0,0,0.1-0.1,0.9-0.9c1-0.9,0.6-2.9-1.3-2.9
		c-0.3,0-1,0-1,0L17,5.6L17.2,5.6L17.2,5.6z"/>
	<polygon class="st0" points="11.1,7.5 11.8,8 12.4,7.5 12.4,4.4 11.1,4.4 	"/>
	<polygon class="st0" points="11.1,7.5 11.8,8 12.4,7.5 12.4,4.4 11.1,4.4 	"/>
	<path class="st0" d="M21.7,21c0.3,1.5,0.2,3-0.3,4.5c-0.6,1.8-1.6,3-2.9,3.5c-0.3,0.1-0.8,0.3-1.4,0.3c-0.4,0-1-0.1-1.3-0.3
		c-0.2-0.1-0.6-0.3-0.6-0.3c-1.1-0.6-2.7-1.9-2.7-2.7c0-0.3,0.6-0.7,1.2-0.8c0.8,0,1.4-0.6,1.4-1.4v-0.1l-0.3-1.2l0,0
		c-0.2-0.7-0.7-2.9,1-3.9l1.5-0.7l-0.6-1.2l-1.6,0.7l0,0c-1.7,1-2.4,3-1.7,5.4l0.2,1c0,0,0,0.1-0.1,0.1c-0.5,0-1.1,0.2-1.6,0.5
		c-0.1,0.1-0.2,0.1-0.3,0.2c-0.5-0.5-1.3-0.7-1.9-0.7c0,0-0.1,0-0.1-0.1l0.2-1c0.7-2.4,0-4.4-1.7-5.4l-1.6-0.7l-0.5,1.2l1.5,0.7
		c1.8,1,1.3,3.3,1.1,3.9l-0.3,1.3v0.1c0,0.8,0.6,1.4,1.4,1.4c0.5,0,1.2,0.4,1.2,0.7c0,0.8-1.6,2.1-2.7,2.7c-0.1,0-0.2,0.1-0.3,0.2
		c-0.4,0.2-0.9,0.4-1.6,0.4c-0.2,0-0.8,0-1.5-0.3c-1.3-0.5-2.3-1.7-2.9-3.5c-0.6-1.7-0.7-3.5-0.1-5.2C2.2,19.8,2.5,19,2.5,19
		c0.8-1.7,2.2-3.4,3.9-4.8c0,0,2.6-2,4.7-3.4l-2.9-2H6.5c0,0-0.1,0-0.2,0l0,0l0,0C4.5,9,3,9.6,1.8,10.8C0.6,11.9-0.1,14,0,16
		c0.1,0.9,0.3,1.6,0.6,2.4c0.2-0.4,0.5-0.9,0.8-1.5c-0.1-0.3-0.1-0.6-0.1-0.9c-0.1-1.6,0.4-3.3,1.4-4.2c1-0.9,2.2-1.5,3.6-1.6l3.6,0
		c-2,1.4-4.2,3.1-4.3,3.1C4.2,14.3,3,15.6,2.1,17c-0.6,0.9-1.1,2.1-1.1,2.1c-0.9,2.3-0.9,4.6-0.1,6.8c1,2.7,2.5,3.8,3.7,4.2
		c0.6,0.2,1.2,0.3,1.7,0.3c0.9,0,1.7-0.3,1.7-0.3c0.3-0.1,0.8-0.3,1-0.4l0,0c0.2-0.1,1.8-1,2.7-2.2c0.9,1.2,2.4,2,2.7,2.2
		c0,0,0.7,0.4,1.2,0.6c0.6,0.2,1.3,0.2,1.5,0.2c0.6,0,1.2-0.1,1.7-0.3c1.1-0.4,2.7-1.5,3.6-4.2c0.7-1.9,0.7-4,0.1-6
		C22.4,20.2,22.1,20.6,21.7,21"/>
	<path class="st0" d="M21.7,21c0.3,1.5,0.2,3-0.3,4.5c-0.6,1.8-1.6,3-2.9,3.5c-0.3,0.1-0.8,0.3-1.4,0.3c-0.4,0-1-0.1-1.3-0.3
		c-0.2-0.1-0.6-0.3-0.6-0.3c-1.1-0.6-2.7-1.9-2.7-2.7c0-0.3,0.6-0.7,1.2-0.8c0.8,0,1.4-0.6,1.4-1.4v-0.1l-0.3-1.2l0,0
		c-0.2-0.7-0.7-2.9,1-3.9l1.5-0.7l-0.6-1.2l-1.6,0.7l0,0c-1.7,1-2.4,3-1.7,5.4l0.2,1c0,0,0,0.1-0.1,0.1c-0.5,0-1.1,0.2-1.6,0.5
		c-0.1,0.1-0.2,0.1-0.3,0.2c-0.5-0.5-1.3-0.7-1.9-0.7c0,0-0.1,0-0.1-0.1l0.2-1c0.7-2.4,0-4.4-1.7-5.4l-1.6-0.7l-0.5,1.2l1.5,0.7
		c1.8,1,1.3,3.3,1.1,3.9l-0.3,1.3v0.1c0,0.8,0.6,1.4,1.4,1.4c0.5,0,1.2,0.4,1.2,0.7c0,0.8-1.6,2.1-2.7,2.7c-0.1,0-0.2,0.1-0.3,0.2
		c-0.4,0.2-0.9,0.4-1.6,0.4c-0.2,0-0.8,0-1.5-0.3c-1.3-0.5-2.3-1.7-2.9-3.5c-0.6-1.7-0.7-3.5-0.1-5.2C2.2,19.8,2.5,19,2.5,19
		c0.8-1.7,2.2-3.4,3.9-4.8c0,0,2.6-2,4.7-3.4l-2.9-2H6.5c0,0-0.1,0-0.2,0l0,0l0,0C4.5,9,3,9.6,1.8,10.8C0.6,11.9-0.1,14,0,16
		c0.1,0.9,0.3,1.6,0.6,2.4c0.2-0.4,0.5-0.9,0.8-1.5c-0.1-0.3-0.1-0.6-0.1-0.9c-0.1-1.6,0.4-3.3,1.4-4.2c1-0.9,2.2-1.5,3.6-1.6l3.6,0
		c-2,1.4-4.2,3.1-4.3,3.1C4.2,14.3,3,15.6,2.1,17c-0.6,0.9-1.1,2.1-1.1,2.1c-0.9,2.3-0.9,4.6-0.1,6.8c1,2.7,2.5,3.8,3.7,4.2
		c0.6,0.2,1.2,0.3,1.7,0.3c0.9,0,1.7-0.3,1.7-0.3c0.3-0.1,0.8-0.3,1-0.4l0,0c0.2-0.1,1.8-1,2.7-2.2c0.9,1.2,2.4,2,2.7,2.2
		c0,0,0.7,0.4,1.2,0.6c0.6,0.2,1.3,0.2,1.5,0.2c0.6,0,1.2-0.1,1.7-0.3c1.1-0.4,2.7-1.5,3.6-4.2c0.7-1.9,0.7-4,0.1-6
		C22.4,20.2,22.1,20.6,21.7,21"/>
	<path class="st0" d="M9,8.4l4,2.9c0,0,0.3,0.2,0.3,0.2c1.9,1.3,3.6,2.6,3.7,2.6c1.5,1.2,2.7,2.6,3.6,4.1c0.3-0.5,0.6-1,0.6-1.4
		c-0.9-1.3-2-2.6-3.5-3.7c0,0-1.6-1.2-3.4-2.4c-0.7-0.4-2.9-1.9-2.9-1.9c-1-0.7-2.5-2-2.5-2c-0.6-0.5-0.6-1.1,0-1.1h1.3V4.4H9.1
		C7,4.4,6.7,6.1,7.8,7.3C8.3,7.8,9,8.4,9,8.4"/>
	<path class="st0" d="M9,8.4l4,2.9c0,0,0.3,0.2,0.3,0.2c1.9,1.3,3.6,2.6,3.7,2.6c1.5,1.2,2.7,2.6,3.6,4.1c0.3-0.5,0.6-1,0.6-1.4
		c-0.9-1.3-2-2.6-3.5-3.7c0,0-1.6-1.2-3.4-2.4c-0.7-0.4-2.9-1.9-2.9-1.9c-1-0.7-2.5-2-2.5-2c-0.6-0.5-0.6-1.1,0-1.1h1.3V4.4H9.1
		C7,4.4,6.7,6.1,7.8,7.3C8.3,7.8,9,8.4,9,8.4"/>
	<path class="st0" d="M14.8,30.6c-0.8,0.6-1.9,0.9-3,0.9c-1,0-2.2-0.3-2.9-0.9C8.5,30.8,8,31,7.5,31.1c0.5,0.6,1.1,1,1.9,1.3
		c0.9,0.3,1.7,0.4,2.2,0.4l0,0c0,0,0.1,0,0.1,0s0.1,0,0.1,0l0,0c0.6,0,1.4-0.1,2.2-0.4c0.8-0.3,1.5-0.7,1.9-1.3
		C15.6,30.9,15.1,30.7,14.8,30.6"/>
	<path class="st0" d="M14.8,30.6c-0.8,0.6-1.9,0.9-3,0.9c-1,0-2.2-0.3-2.9-0.9C8.5,30.8,8,31,7.5,31.1c0.5,0.6,1.1,1,1.9,1.3
		c0.9,0.3,1.7,0.4,2.2,0.4l0,0c0,0,0.1,0,0.1,0s0.1,0,0.1,0l0,0c0.6,0,1.4-0.1,2.2-0.4c0.8-0.3,1.5-0.7,1.9-1.3
		C15.6,30.9,15.1,30.7,14.8,30.6"/>
	<path class="st0" d="M21.6,10.7c-1.2-1.1-2.6-1.7-4.3-1.9l-0.1,0c-0.1,0-0.2,0-0.2,0l-2.9,0c0.3-0.2,0.6-0.5,0.9-0.7
		c0,0,0,0,0.2-0.1c0.1-0.1,0.4-0.4,0.4-0.4c0.1-0.1,0.1-0.1,0.2-0.2c1.2-1.2,0.8-2.9-1.3-2.9h-1.3v1.3h1.3c0.7,0,0.5,0.6,0,1.2
		c-0.6,0.6-1.3,1.1-2.1,1.6c0.9,0.6,1.8,1.2,2.4,1.6l2.4,0c1.4,0.1,2.6,0.7,3.7,1.6c0.9,0.9,1.5,2.5,1.4,4.1c0,0.5-0.1,1.1-0.3,1.6
		c-0.2,0.6-0.6,1.4-1.4,2l0,0c-0.2,0.2-0.4,0.3-0.6,0.5c-3.3,2.3-3.6,5.3-3.7,6.9c0,0.1,0,0.3,0,0.4c0,0.1,0,0.1,0,0.2
		c0,0.2,0,0.4-0.1,0.7c0.3,0.2,0.8,0.3,1.3,0.3c0-0.3,0.1-0.6,0.1-0.9c0-0.1,0-0.1,0-0.2c0-0.1,0-0.3,0-0.4c0.1-1.6,0.3-4,3.2-6
		c0,0,0,0,0.1-0.1c1.6-1.1,2.2-2.5,2.2-2.5c0,0,0,0,0-0.1c0.4-0.8,0.6-1.6,0.7-2.5C23.6,13.9,22.8,11.8,21.6,10.7"/>
	<path class="st0" d="M21.6,10.7c-1.2-1.1-2.6-1.7-4.3-1.9l-0.1,0c-0.1,0-0.2,0-0.2,0l-2.9,0c0.3-0.2,0.6-0.5,0.9-0.7
		c0,0,0,0,0.2-0.1c0.1-0.1,0.4-0.4,0.4-0.4c0.1-0.1,0.1-0.1,0.2-0.2c1.2-1.2,0.8-2.9-1.3-2.9h-1.3v1.3h1.3c0.7,0,0.5,0.6,0,1.2
		c-0.6,0.6-1.3,1.1-2.1,1.6c0.9,0.6,1.8,1.2,2.4,1.6l2.4,0c1.4,0.1,2.6,0.7,3.7,1.6c0.9,0.9,1.5,2.5,1.4,4.1c0,0.5-0.1,1.1-0.3,1.6
		c-0.2,0.6-0.6,1.4-1.4,2l0,0c-0.2,0.2-0.4,0.3-0.6,0.5c-3.3,2.3-3.6,5.3-3.7,6.9c0,0.1,0,0.3,0,0.4c0,0.1,0,0.1,0,0.2
		c0,0.2,0,0.4-0.1,0.7c0.3,0.2,0.8,0.3,1.3,0.3c0-0.3,0.1-0.6,0.1-0.9c0-0.1,0-0.1,0-0.2c0-0.1,0-0.3,0-0.4c0.1-1.6,0.3-4,3.2-6
		c0,0,0,0,0.1-0.1c1.6-1.1,2.2-2.5,2.2-2.5c0,0,0,0,0-0.1c0.4-0.8,0.6-1.6,0.7-2.5C23.6,13.9,22.8,11.8,21.6,10.7"/>
	<path class="st0" d="M7.6,28.3c0-0.3-0.1-0.5-0.1-0.7c0-0.1,0-0.1,0-0.2c0-0.1,0-0.3,0-0.4c-0.1-1.6-0.4-4.6-3.8-6.9
		c-0.2-0.1-0.4-0.3-0.6-0.5c-0.2,0.5-0.3,1-0.4,1.3C2.8,20.9,2.9,21,3,21.1c2.9,2,3.1,4.4,3.2,6c0,0.1,0,0.3,0,0.4
		c0,0.1,0,0.1,0,0.2c0,0.2,0,0.5,0.1,0.9C6.9,28.6,7.3,28.4,7.6,28.3"/>
	<path class="st0" d="M7.6,28.3c0-0.3-0.1-0.5-0.1-0.7c0-0.1,0-0.1,0-0.2c0-0.1,0-0.3,0-0.4c-0.1-1.6-0.4-4.6-3.8-6.9
		c-0.2-0.1-0.4-0.3-0.6-0.5c-0.2,0.5-0.3,1-0.4,1.3C2.8,20.9,2.9,21,3,21.1c2.9,2,3.1,4.4,3.2,6c0,0.1,0,0.3,0,0.4
		c0,0.1,0,0.1,0,0.2c0,0.2,0,0.5,0.1,0.9C6.9,28.6,7.3,28.4,7.6,28.3"/>
</g>
</svg>
