<?xml version="1.0" encoding="utf-8"?>
<!-- Generator: Adobe Illustrator 26.0.1, SVG Export Plug-In . SVG Version: 6.00 Build 0)  -->
<svg version="1.1" id="Layer_1" xmlns="http://www.w3.org/2000/svg" xmlns:xlink="http://www.w3.org/1999/xlink" x="0px" y="0px"
	 viewBox="0 0 95 35" style="enable-background:new 0 0 95 35;" xml:space="preserve">
<style type="text/css">
	.st0{fill:#343741;}
</style>
<g>
	<g>
		<path class="st0" d="M13.4,9.2H0.3v4.2h8.6c0.6,0,0.9,0.5,0.9,0.9v7.4H7.9c-0.6,0-0.9-0.5-0.9-0.9v-5.3H3.4
			c-1.9,0-3.4,1.5-3.4,3.4v3.7c0,1.9,1.5,3.4,3.4,3.4h13.4V12.5C16.7,10.7,15.2,9.2,13.4,9.2z"/>
	</g>
	<g>
		<path class="st0" d="M29.3,21.7h-1.9c-0.6,0-0.9-0.5-0.9-0.9V9.2h-3.6c-1.9,0-3.4,1.5-3.4,3.4v10c0,1.9,1.5,3.4,3.4,3.4h13.4V2.2
			h-7L29.3,21.7z"/>
	</g>
	<g>
		<path class="st0" d="M48.9,21.7H47c-0.6,0-0.9-0.5-0.9-0.9V9.2h-7v13.4c0,1.9,1.5,3.4,3.4,3.4h6.4V28h-9.5v4.9h13.2
			c1.9,0,3.4-1.5,3.4-3.4V9.2h-7C48.9,9.2,48.9,21.7,48.9,21.7z"/>
	</g>
	<g>
		<path class="st0" d="M72,9.2H58.6v13.4c0,1.9,1.5,3.4,3.4,3.4h13.2v-4.2h-8.6c-0.6,0-0.9-0.5-0.9-0.9v-7.4h1.9
			c0.6,0,0.9,0.5,0.9,0.9v5.3H72c1.9,0,3.4-1.5,3.4-3.4v-3.7C75.4,10.7,73.9,9.2,72,9.2z"/>
	</g>
	<g>
		<path class="st0" d="M91.5,9.2H78.2v16.7h7V13.4h1.9c0.6,0,0.9,0.5,0.9,0.9v11.6h7V12.5C94.9,10.7,93.4,9.2,91.5,9.2z"/>
	</g>
</g>
</svg>
