<?xml version="1.0" encoding="utf-8"?>
<!-- Generator: Adobe Illustrator 26.0.1, SVG Export Plug-In . SVG Version: 6.00 Build 0)  -->
<svg version="1.1" id="Layer_1" xmlns="http://www.w3.org/2000/svg" xmlns:xlink="http://www.w3.org/1999/xlink" x="0px" y="0px"
	 viewBox="0 0 95 35" style="enable-background:new 0 0 95 35;" xml:space="preserve">
<style type="text/css">
	.st0{fill:#CCCCCC;}
</style>
<g>
	<path class="st0" d="M28.1,18.1L25.5,10l-2.6,8.1H28.1z"/>
	<path class="st0" d="M21.8,21.1l-0.9,2.8h-3.5l5.9-18.3h4.1l-1.7-5.3L0,8.8l8.4,25.8l22.7-7.4l-2-6.1H21.8z"/>
	<path class="st0" d="M56.6,11.9c-0.4-1.5-1.5-3.5-4.4-3.5c-3.5,0-4.9,3.2-4.9,6.4c0,3.2,1.4,6.4,4.9,6.4c2.3,0,4.4-1.7,4.4-4.2
		h-4.3v-3h7.3v10h-2.8v-1.6c-1.2,1.4-3.1,2-4.6,2c-5.6,0-8.4-4.4-8.4-9.6c0-5.2,3.1-9.6,8.4-9.6c3.6,0,6.1,1.9,7.4,5.4L56.6,11.9z"
		/>
	<path class="st0" d="M78.8,14.8c0,5.2-3.2,9.6-8.5,9.6c-5.3,0-8.5-4.4-8.5-9.6c0-5.2,3.2-9.6,8.5-9.6C75.6,5.2,78.8,9.7,78.8,14.8
		 M65.2,14.8c0,3.2,1.5,6.4,5,6.4c3.6,0,5-3.2,5-6.4c0-3.2-1.5-6.4-5-6.4C66.7,8.4,65.2,11.6,65.2,14.8z"/>
	<path class="st0" d="M43.6,20.8h-9.8V16h6.9v-3h-6.9V8.9h9.1V5.7H30.3v8.6l3.1,9.6h10.1V20.8z"/>
	<path class="st0" d="M91.9,5.7V18L84.3,5.7H81v18.3h3.1V11.4l7.7,12.5H95V5.7L91.9,5.7z"/>
	<path class="st0" d="M84.1,28.3H34.9l0.6,1.9h48.6V28.3z"/>
</g>
</svg>
