<?xml version="1.0" encoding="utf-8"?>
<!-- Generator: Adobe Illustrator 26.0.1, SVG Export Plug-In . SVG Version: 6.00 Build 0)  -->
<svg version="1.1" id="Layer_1" xmlns="http://www.w3.org/2000/svg" xmlns:xlink="http://www.w3.org/1999/xlink" x="0px" y="0px"
	 viewBox="0 0 95 35" style="enable-background:new 0 0 95 35;" xml:space="preserve">
<style type="text/css">
	.st0{fill:#CCCCCC;}
</style>
<g>
	<path class="st0" d="M24.5,24.2h7.4c0.6,0,1.1-0.5,1.1-1.2v-0.6c-0.4,0.1-0.9,0.1-1.9,0.1h-2.4l4.2-8.1h-8.3v1.6h3.7l-3.5,6.7
		C24.4,23.4,24.4,23.8,24.5,24.2"/>
	<path class="st0" d="M17.2,19l1.9,3.7c0.5,1.1,0.8,1.5,2,1.5h2.7c-0.2-0.1-0.3-0.4-0.6-0.9l-2.8-5.1l3.2-3.8h-2.9L17.2,19z"/>
	<path class="st0" d="M13.6,24.2H17V12.6c0-1.2-0.9-2-2.1-2h-1.3V24.2z"/>
	<path class="st0" d="M12.1,23.3l-3.4-10c-0.4-1.2-0.8-1.7-2.5-1.7H4.7L0,24.2h2.1l1.1-3.1h4.5l0.6,2c0.2,0.7,0.5,1.1,1.3,1.1h2.8
		C12.4,24,12.3,23.8,12.1,23.3z M3.7,19.6l1.8-5.3l1.7,5.3H3.7z"/>
	<path class="st0" d="M38.6,24.4c2.8,0,5.2-2,5.2-5.3c0-2.8-2.3-4.9-5.1-4.9c-2.8,0-5.2,2.1-5.2,5.4C33.5,22.5,35.9,24.4,38.6,24.4
		 M38.7,22.6c-1.1,0-1.6-1.3-1.6-3.4c0-2,0.4-3.3,1.6-3.3c1.1,0,1.5,1.4,1.5,3.5C40.2,21.4,39.8,22.6,38.7,22.6"/>
	<path class="st0" d="M45.3,24.2h2.1v-8.1l5.4,6.4c0.7,0.9,1.2,1.6,2,1.6h1.5V12.6c0-0.7-0.5-1.1-1.1-1.1h-0.9v7.6L49.2,13
		c-0.8-0.9-1.2-1.5-2.3-1.5h-1.5V24.2z"/>
	<path class="st0" d="M63,24.4c2.8,0,5.2-2,5.2-5.3c0-2.8-2.3-4.9-5.1-4.9c-2.8,0-5.2,2.1-5.2,5.4C57.8,22.5,60.2,24.4,63,24.4
		 M63,22.6c-1.1,0-1.6-1.3-1.6-3.4c0-2,0.4-3.3,1.6-3.3c1.1,0,1.5,1.4,1.5,3.5C64.5,21.4,64.1,22.6,63,22.6"/>
	<path class="st0" d="M90.2,19.5c0.1-0.4,0.1-0.8,0.1-1.1c0-2.3-1.7-4.2-4.6-4.2c-2.9,0-5,2-5,5.1c0,3,1.9,5.1,4.9,5.1
		c3.1,0,4.2-1.6,4.2-3.1c-0.7,0.5-1.7,0.7-2.8,0.7c-1.7,0-2.8-1-3-2.6H90.2z M84,18.2c0.1-1.4,0.7-2.3,1.6-2.3
		c1.3,0,1.6,2.3,1.6,2.3H84z"/>
	<path class="st0" d="M75.5,14.3c-1.1,0-2.1,0.4-2.6,0.9v-2.6c0-1.2-0.9-2-2.1-2h-1.3v13.6h3.9c3.8,0,5.8-2,5.8-5.6
		C79.4,16.1,77.7,14.3,75.5,14.3z M73.5,22.6h-0.5v-6.3c0.2,0,0.4,0,0.7,0c1.3,0,2.2,1.2,2.2,2.8C75.9,21.3,75,22.6,73.5,22.6z"/>
	<path class="st0" d="M91.7,24.2H95V12.6c0-1.2-0.9-2-2.1-2h-1.2V24.2z"/>
</g>
</svg>
