<?xml version="1.0" encoding="utf-8"?>
<!-- Generator: Adobe Illustrator 26.0.1, SVG Export Plug-In . SVG Version: 6.00 Build 0)  -->
<svg version="1.1" id="Layer_1" xmlns="http://www.w3.org/2000/svg" xmlns:xlink="http://www.w3.org/1999/xlink" x="0px" y="0px"
	 viewBox="0 0 95 35" style="enable-background:new 0 0 95 35;" xml:space="preserve">
<style type="text/css">
	.st0{fill:#CCCCCC;}
</style>
<g id="layer1" transform="translate(0,-752.36216)">
	<g id="g3337" transform="translate(-353.3275,478.58303)">
		<g id="g3339">
			<polygon id="polygon3341" class="st0" points="416.9,304.1 420.2,288.1 421.5,304.1 428.6,304.1 425.3,278.7 417.7,278.7 
				414.1,293.9 410.6,278.7 403,278.7 399.7,304.1 406.8,304.1 408,288.1 411.3,304.1 			"/>
			<g id="g3343">
				<polygon id="polygon3345" class="st0" points="439,278.7 432.1,278.7 432.1,304.1 448.3,304.1 448.3,298.8 439,298.8 				"/>
			</g>
			<g id="g3347">
				<path id="path3349" class="st0" d="M369.5,278.7h-8.6l-7.6,25.3h7.6l1-4.6h6.6l1,4.6h7.6L369.5,278.7L369.5,278.7z M365.2,284.3
					l2.3,10.4l-4.6,0L365.2,284.3z"/>
			</g>
		</g>
		<g id="g3351">
			<path id="path3353" class="st0" d="M395.4,285.8c-6.3-5.5-16.1-3.3-16.2,1.8c-1.4-9.4,9.9-11.3,16.2-8.4
				C395.5,280.7,395.6,282.4,395.4,285.8L395.4,285.8z"/>
			<path id="path3355" class="st0" d="M390.2,288.8c-1.6-0.6-3.9-1.2-3.9-3c0-0.7,0.3-1.5,1.8-2c-5.1,0.5-6.8,6.7-1.2,9.7
				c1,0.5,2.7,1.1,2.7,2.9c0,2.1-2.4,2.9-3.9,2.9c-2.6-0.1-4.6-1-7-2.6v6.1c2.8,1.2,7.3,2.6,11.9,1.2c3.7-1.1,6.9-4.2,6.9-7.5
				C397.4,291.1,392.8,289.8,390.2,288.8L390.2,288.8z"/>
		</g>
	</g>
</g>
</svg>
