<?xml version="1.0" encoding="utf-8"?>
<!-- Generator: Adobe Illustrator 26.0.1, SVG Export Plug-In . SVG Version: 6.00 Build 0)  -->
<svg version="1.1" id="Layer_1" xmlns="http://www.w3.org/2000/svg" xmlns:xlink="http://www.w3.org/1999/xlink" x="0px" y="0px"
	 viewBox="0 0 95 35" style="enable-background:new 0 0 95 35;" xml:space="preserve">
<style type="text/css">
	.st0{fill:#CCCCCC;}
</style>
<path class="st0" d="M53.5,32.7c0,1.9-1.4,2.2-2.8,2.2h-3.2v-8.4H50c1.7,0,3,0.1,3,2.1v0.3c0,0.7-0.2,1.4-1,1.6
	c1,0.2,1.4,0.9,1.4,1.7L53.5,32.7L53.5,32.7z M51.5,28.7c0-0.7-0.2-0.9-1.2-0.9h-1.4V30h1.4c1,0,1.2-0.3,1.2-0.9V28.7z M51.9,32.2
	c0-0.8-0.3-1-1.5-1h-1.5v2.5h1.6c1.2,0,1.5-0.3,1.5-1V32.2z"/>
<path class="st0" d="M60.3,34.5c-0.5,0.2-1.6,0.5-2.9,0.5c-1.6,0-2.5-0.5-2.5-2.1v-1.6c0-1.5,0.7-2.3,2.5-2.3h0.5
	c1.7,0,2.4,0.9,2.4,2.3v1.1h-3.8v0.5c0,0.7,0.3,0.9,1,0.9c0.9,0,1.8-0.2,2.5-0.4L60.3,34.5z M58.8,31c0-0.6-0.3-0.9-1-0.9h-0.2
	c-0.8,0-1.1,0.3-1.1,0.9v0.4h2.3L58.8,31L58.8,31z"/>
<path class="st0" d="M66.8,33.2c0,0.9-0.7,1.8-2.5,1.8c-1.2,0-2-0.2-2.6-0.4l0.4-1.1c0.8,0.2,1.5,0.3,2.2,0.3c0.7,0,1.1-0.2,1.1-0.7
	c0-0.5-0.3-0.6-0.8-0.6h-0.9c-1,0-1.9-0.4-1.9-1.6v-0.1c0-1.4,1-1.8,2.1-1.8c1,0,2.1,0.1,2.9,0.2l-0.4,1.2c-0.8-0.1-1.6-0.2-2.3-0.2
	c-0.6,0-0.8,0.2-0.8,0.6s0.1,0.6,0.7,0.6h0.9c1,0,2.1,0.2,2.1,1.7L66.8,33.2L66.8,33.2z"/>
<rect x="68.2" y="26.5" class="st0" width="1.6" height="1.3"/>
<rect x="68.3" y="29.1" class="st0" width="1.5" height="5.8"/>
<path class="st0" d="M37.9,0L25.3,7.3v14.5l12.6,7.3l12.6-7.3V7.3L37.9,0z M41.9,16.9l-8.4,4.8l-4.2-2.4V9.6l4.2-2.4l8.4,4.8
	l-4.2,2.4L41.9,16.9z"/>
</svg>
