<?xml version="1.0" encoding="utf-8"?>
<!-- Generator: Adobe Illustrator 26.0.1, SVG Export Plug-In . SVG Version: 6.00 Build 0)  -->
<svg version="1.1" id="Layer_1" xmlns="http://www.w3.org/2000/svg" xmlns:xlink="http://www.w3.org/1999/xlink" x="0px" y="0px"
	 viewBox="0 0 95 35" style="enable-background:new 0 0 95 35;" xml:space="preserve">
<style type="text/css">
	.st0{fill:#343741;}
	.st1{clip-path:url(#SVGID_00000079458197387654709760000011065271665495325078_);}
	.st2{clip-path:url(#SVGID_00000093872453989103966340000009543008580262311312_);}
</style>
<g id="g221">
	<g id="g227" transform="translate(499.165,148.077)">
		<path id="path229" class="st0" d="M-414.5-135.1v12c0,0.1,0,0.2-0.1,0.2c-0.1,0.1-0.1,0.1-0.2,0.1l-2.8,0c0,0,0-5,0-5.9
			c0-0.7,0.2-2.6,0.3-3c0,0,0,0,0,0c0-0.1-0.1,0-0.1,0c0,0,0,0,0,0l-3.2,5.2c0,0,0,0.1-0.1,0.1c-0.1,0.1-0.1,0.1-0.2,0.1l-0.8,0h0
			l-0.8,0c-0.1,0-0.2,0-0.2-0.1c0,0,0-0.1-0.1-0.1l-3.2-5.2c0,0,0,0,0,0c0,0-0.1,0-0.1,0c0,0,0,0,0,0c0.1,0.3,0.3,2.3,0.3,3
			c0,1,0,5.9,0,5.9l-2.8,0c-0.1,0-0.2,0-0.2-0.1c-0.1-0.1-0.1-0.1-0.1-0.2v-12c0-0.2,0.2-0.3,0.3-0.3h3.4c0.1,0,0.3,0.1,0.3,0.2
			c0,0,2.4,4.1,2.7,4.6c0.2,0.3,0.5,1,0.5,1.1v0c0,0,0,0,0,0h0c0,0,0,0,0,0c0,0,0,0,0,0c0,0,0,0,0,0c0,0,0,0,0,0h0c0,0,0,0,0,0v0
			c0,0,0.3-0.8,0.5-1.1c0.3-0.5,2.7-4.6,2.7-4.6c0.1-0.1,0.2-0.2,0.3-0.2h3.4C-414.7-135.5-414.5-135.3-414.5-135.1z M-434.7-130.6
			c-0.1,0-0.1,0-0.2,0c-0.9-0.3-1.6-0.8-1.7-1.4c0-0.3,0.1-0.6,0.3-0.8c0.3-0.3,0.7-0.4,1-0.4c1.4,0,2.7,0.7,2.7,0.7l0.8-2.1
			c0-0.1,0-0.2,0-0.3c0-0.1-0.1-0.1-0.2-0.2l0,0c-0.7-0.3-1.9-0.6-3.3-0.7c-2.8,0-4.4,1.4-4.4,3.6c0,2.7,2.3,3.6,3,3.9
			c0.1,0.1,0.3,0.1,0.4,0.2c0.5,0.2,1,0.4,1.5,0.7c0.5,0.3,0.6,0.8,0.5,1.2c-0.2,1-1.3,1.2-2.2,1.1c-1.7-0.2-2.5-0.7-2.5-0.7
			l-0.7,2.1c-0.1,0.2,0,0.3,0.2,0.4c0,0,1.5,0.8,3.5,0.8c2.2,0,4.8-1.1,4.8-4.1C-431.3-129.4-433.7-130.3-434.7-130.6z
			 M-448.1-125.3c-1.1,0-1.7,0-2.1-0.1l0-7.4c0.3-0.1,1.1-0.1,2.1-0.1c1.3,0,3.4,0.5,3.4,3.4C-444.6-126.4-446.8-125.4-448.1-125.3z
			 M-444.8-134.9c-1.8-0.8-4-0.8-5.2-0.8c-2.5,0.1-3.3,0.3-3.3,0.3v12.2c0,0.1,0.1,0.3,0.2,0.3c0,0,1.1,0.3,3.1,0.4
			c2.6,0.1,4.4-0.3,5.8-1.2c1.9-1.2,2.8-3,2.8-5.6C-441.4-132.1-442.6-133.9-444.8-134.9"/>
	</g>
	<g id="g231">
		<g id="g233">
			<g id="g239">
				<path id="path251" class="st0" d="M39.2,1c-4.2,1.2-6.1,3.2-5.5,8.6c0.5,3.5,0.2,6.5-0.3,8.5c-0.1,0.4-0.2,0.8-0.3,1.1
					c0,0.1-0.1,0.2-0.1,0.4c-0.3,0.6-1,2-1.3,2.5c-0.2,0.4-0.8,1-1.6,1c-0.7,0-2.3-0.1-2.7-0.1c-0.4,0-1.1,0-1.1,0
					c1.1,1.1,2.9,2.2,5.4,2.2c1.9,0,4-0.5,6-2C44.8,18.1,43,4.7,39.2,1"/>
			</g>
		</g>
	</g>
	<g id="g253">
		<g>
			<defs>
				<path id="SVGID_1_" d="M24,14c-5.1,1.6-7.8,8-5.5,14.3c0.2,0.5,0.4,1,0.6,1.5c3.2,6.5,9.5,5,9.5,5s2.3-4.3-1.9-7.7
					c-2.9-2.3-4.5-4.7-3.1-8.3c0.1-0.2,0.2-0.4,0.3-0.6c0,0,0-0.1,0-0.1c0.5-1.1,1.2-2.2,1.7-2.8c0.3-0.4,0.7-0.7,1.5-0.7
					c0.7-0.1,2.5,0,3,0c0.7,0.1,1,0.2,1.3,0.7c0,0,0,0,0,0C30.4,13.4,27.1,13,24,14"/>
			</defs>
			<use xlink:href="#SVGID_1_"  style="overflow:visible;fill:#343741;"/>
			<clipPath id="SVGID_00000075867921754205011360000016242614557154293889_">
				<use xlink:href="#SVGID_1_"  style="overflow:visible;"/>
			</clipPath>
			<g id="g255" style="clip-path:url(#SVGID_00000075867921754205011360000016242614557154293889_);">
				<g id="g261">
					<g id="g267">
						<path id="path277" class="st0" d="M10.3,0h74.3v35H10.3V0z"/>
					</g>
				</g>
			</g>
		</g>
	</g>
	<g id="g279">
		<g id="g281">
			<g id="g287">
				<path id="path299" class="st0" d="M27.5,23.1c-0.5-0.1-1-0.1-1.3-0.2l0,0c-0.2-0.1-0.5-0.3-0.7-0.5c-0.4-0.6-1.3-2.2-1.6-2.8
					c-0.3-0.7-0.3-1-0.1-1.5c0.5-1.1,1.2-2.2,1.7-2.8c0,0,0,0,0,0c-0.2,0.2-2,1.7-3.1,3.3c-2.1,2.9-1.5,7,0.9,9.5
					c1.8,1.8,3.9,2.2,5.5,2.2c2.9-0.1,5.6-2.4,5.6-2.4C33.5,25.1,30.7,23.5,27.5,23.1"/>
			</g>
		</g>
	</g>
	<g id="g301">
		<g id="g303">
			<g id="g309">
				<path id="path319" class="st0" d="M28.8,30.3C28.8,30.3,28.9,30.3,28.8,30.3c-0.2-1-0.9-2.1-2.2-3.1c-2.9-2.3-4.5-4.7-3.1-8.3
					c0.1-0.2,0.2-0.4,0.3-0.6c0,0,0-0.1,0-0.1c0.5-1.1,1.2-2.2,1.7-2.8c0,0,0,0,0,0c-0.2,0.2-2,1.7-3.1,3.3c-2.1,2.9-1.5,7,0.9,9.5
					C25.1,29.9,27.2,30.3,28.8,30.3"/>
			</g>
		</g>
	</g>
	<g id="g321">
		<g>
			<defs>
				<path id="SVGID_00000156584273899378371950000014122967563456615871_" d="M36.4,9.3c-1.4-4-4.8-7.4-9.2-8.6
					c-7.3-2-13.5,0.7-16.8,5.2c0,0,2.4,3.9,8.7,3.6c4.1-0.2,8.3,0.2,11.3,4.4c0.3,0.5,0.6,0.9,0.9,1.3c0,0,0.1,0.1,0.1,0.1
					c0.3,0.5,0.8,1.2,1.6,2.6c0.3,0.5,0.3,1.1,0,1.7c-0.3,0.6-1,2-1.3,2.5c-0.2,0.4-0.8,0.9-1.5,1c0,0,0,0,0,0
					c2.4-0.1,4.5-1.7,5.8-4C37.4,16.3,37.5,12.5,36.4,9.3"/>
			</defs>
			<use xlink:href="#SVGID_00000156584273899378371950000014122967563456615871_"  style="overflow:visible;fill:#FFFFFF;"/>
			<clipPath id="SVGID_00000071547745539995383060000000564094244552092811_">
				<use xlink:href="#SVGID_00000156584273899378371950000014122967563456615871_"  style="overflow:visible;"/>
			</clipPath>
			<g id="g323" style="clip-path:url(#SVGID_00000071547745539995383060000000564094244552092811_);">
				<g id="g329">
					<g id="g335">
						<path id="path347" class="st0" d="M10.3,0h74.3v35H10.3V0z"/>
					</g>
				</g>
			</g>
		</g>
	</g>
	<g id="g349">
		<g id="g351">
			<g id="g357">
				<path id="path369" class="st0" d="M33.5,10.9c-1.4-2.6-4.6-5.5-10.2-5.5c-7.9,0-12.1,5.9-12.1,11.7c0,4.6,2.5,9.1,7.2,11.3
					c-1.7-7,1.4-13.3,8.5-13.7c0,0,0.1,0,0.1,0c0.7-0.1,2.5,0,3,0c0.7,0.1,1,0.2,1.3,0.7c0.3,0.5,0.8,1.2,1.6,2.6
					c0.3,0.5,0.3,1.1,0,1.7c-0.3,0.6-0.8,1.7-1.2,2.3c0.1-0.1,1.7-2,2.2-3.3C35.2,15.5,34.3,12.2,33.5,10.9"/>
			</g>
		</g>
	</g>
	<g id="g371">
		<g id="g373">
			<g id="g379">
				<path id="path387" class="st0" d="M30.1,23.1c2.4-0.1,4.5-1.7,5.8-4c1.5-2.8,1.7-6.6,0.5-9.8C35.8,7.7,35,6.3,34,5.1
					c-0.4,1.2-0.5,2.6-0.3,4.5c0.5,3.5,0.2,6.5-0.3,8.5c-0.1,0.4-0.2,0.8-0.3,1.1c0,0.1-0.1,0.2-0.1,0.4c-0.3,0.6-1,2-1.3,2.5
					C31.3,22.5,30.8,23,30.1,23.1L30.1,23.1"/>
			</g>
		</g>
	</g>
	<g id="g389">
		<g id="g391">
			<g id="g397">
				<path id="path405" class="st0" d="M34,18.5c1.2-3,0.3-6.3-0.4-7.7c-1.4-2.6-4.6-5.5-10.2-5.5c-3.8,0-6.8,1.4-8.8,3.5
					c1.2,0.4,2.7,0.7,4.6,0.6c4.1-0.2,8.3,0.2,11.3,4.4c0.3,0.5,0.6,0.9,0.9,1.3h0c0,0,0,0,0,0.1c0,0,0,0.1,0.1,0.1
					c0.3,0.5,0.8,1.2,1.6,2.6c0.3,0.5,0.3,1.1,0,1.7c-0.3,0.6-0.8,1.7-1.2,2.3C31.8,21.8,33.4,19.8,34,18.5"/>
			</g>
		</g>
	</g>
	<g id="g407">
		<g id="g409">
			<g id="g415">
				<path id="path423" class="st0" d="M38.6,24.4c-1-0.7-1.6-2.1-1.5-3.5c0.1-1.5-0.9-1.3-0.9-1.3s-1.9,3.4-6.2,3.5c0,0,0,0,0,0
					c-0.8,0-2.2-0.1-2.7-0.1c-2.8,0-5.4,0.6-7.6,3.3c0,0,2.3-0.1,6.8,1.3C34.8,30.2,39,25.4,38.6,24.4"/>
			</g>
		</g>
	</g>
	<g id="g425">
		<g id="g427">
			<g id="g433">
				<path id="path443" class="st0" d="M36.2,19.6c0,0-1.9,3.4-6.1,3.5c0,0,0,0-0.1,0c-0.2,0-0.5,0-0.8,0c-0.7,0-1.5,0-1.9,0
					c-0.2,0-0.3,0-0.4,0c-0.2,0-0.5,0-0.6,0c0,0-0.1,0-0.1,0c1.1,1.1,2.9,2.2,5.4,2.2c1.9,0,4-0.5,6-2c0,0,0,0,0,0
					c-0.4-0.7-0.6-1.6-0.5-2.4C37.1,19.4,36.2,19.6,36.2,19.6"/>
			</g>
		</g>
	</g>
	<g id="g445" transform="translate(91.669,141.163)">
		<path id="path447" class="st0" d="M-67.7-127.2c-5.1,1.6-7.8,8-5.5,14.3c-1.7-7,1.4-13.3,8.5-13.7c0,0,0.1,0,0.1,0
			c0.7-0.1,2.5,0,3,0c0.7,0.1,1,0.2,1.3,0.7c0,0,0,0,0,0C-61.3-127.7-64.6-128.2-67.7-127.2"/>
	</g>
	<g id="g449">
		<g id="g451">
			<g id="g457">
				<path id="path465" class="st0" d="M34.4,27.9c-1-2.8-3.7-4.4-6.9-4.8c-0.2,0-0.4,0-0.6-0.1c-2.6,0.1-5.2,0.7-7.3,3.3
					c0,0,2.3-0.1,6.8,1.3C29.8,28.7,32.4,28.5,34.4,27.9"/>
			</g>
		</g>
	</g>
	<g id="g467" transform="translate(158.291,156.465)">
		<path id="path469" class="st0" d="M-124.4-144.8c0.2,2.6-0.1,4.8-0.5,6.4c-0.1,0.4-0.2,0.8-0.3,1.1c0,0,0,0,0,0
			c0,0.1,0,0.1-0.1,0.2c0,0,0,0,0,0c0,0,0,0.1-0.1,0.1c0,0,0,0,0,0c-0.3,0.6-0.8,1.7-1.2,2.3c0.1-0.1,1.7-2,2.2-3.3
			C-123.3-140.4-123.8-143.2-124.4-144.8"/>
	</g>
	<g id="g471" transform="translate(114.883,47.674)">
		<path id="path473" class="st0" d="M-87.4-19.8c-0.2-0.2-0.5-0.5-0.9-0.7c-1.4-1.1-2.5-2.3-3.1-3.6c-1.4,0.5-2.8,1.3-3.9,2.8
			c0,0,2.3-0.1,6.8,1.3C-88.1-19.9-87.8-19.9-87.4-19.8"/>
	</g>
	<g id="g475" transform="translate(132.213,79.887)">
		<path id="path477" class="st0" d="M-102.2-56.8C-102.2-56.8-102.2-56.8-102.2-56.8C-102.2-56.8-102.2-56.8-102.2-56.8
			c-0.3,0-0.6,0-0.9,0C-102.8-56.8-102.5-56.8-102.2-56.8C-102.2-56.8-102.2-56.8-102.2-56.8"/>
	</g>
	<g id="g479" transform="translate(105.876,79.995)">
		<path id="path481" class="st0" d="M-79.8-56.9C-79.7-56.9-79.7-56.9-79.8-56.9C-79.7-56.9-79.8-56.9-79.8-56.9L-79.8-56.9"/>
	</g>
	<g id="g483" transform="translate(105.876,79.995)">
		<path id="path485" class="st0" d="M-79.8-56.9C-79.7-56.9-79.7-56.9-79.8-56.9C-79.7-56.9-79.8-56.9-79.8-56.9L-79.8-56.9"/>
	</g>
	<g id="g487" transform="translate(111.271,80.26)">
		<path id="path489" class="st0" d="M-84.4-57.2C-84.4-57.2-84.4-57.2-84.4-57.2c0,0-0.1,0-0.1,0C-84.4-57.2-84.4-57.2-84.4-57.2"/>
	</g>
	<g id="g491" transform="translate(111.271,80.26)">
		<path id="path493" class="st0" d="M-84.4-57.2C-84.4-57.2-84.4-57.2-84.4-57.2c0,0-0.1,0-0.1,0C-84.4-57.2-84.4-57.2-84.4-57.2"/>
	</g>
	<g id="g495" transform="translate(111.271,80.26)">
		<path id="path497" class="st0" d="M-84.4-57.2c0,0-0.1,0-0.1,0c-0.2,0-0.4,0-0.6,0c0,0-0.1,0-0.1,0c1.1,1.1,2.9,2.2,5.4,2.2
			c0.4,0,0.7,0,1.1-0.1c-1.3-1.2-3.1-1.9-5.1-2.1C-84-57.2-84.2-57.2-84.4-57.2"/>
	</g>
</g>
</svg>
