<?xml version="1.0" encoding="utf-8"?>
<!-- Generator: Adobe Illustrator 26.0.1, SVG Export Plug-In . SVG Version: 6.00 Build 0)  -->
<svg version="1.1" id="Layer_1" xmlns="http://www.w3.org/2000/svg" xmlns:xlink="http://www.w3.org/1999/xlink" x="0px" y="0px"
	 viewBox="0 0 95 35" style="enable-background:new 0 0 95 35;" xml:space="preserve">
<style type="text/css">
	.st0{fill-rule:evenodd;clip-rule:evenodd;fill:#FFFFFF;}
</style>
<g>
	<path class="st0" d="M95,16.7v0.4c0,0-0.5,0.2-0.5,0.8v10c0,0.4-0.3,0.6-0.6,0.6h-2l-4.3-6.8c0,0,0.1,0.6,0.1,1.3v5.6h-2.4V16.7
		h1.6c0.8,0,1.4,0.3,1.8,0.9l3.6,5.7c0,0-0.1-0.4-0.1-1.3v-5.4H95z M48.9,16.7V28c0,0.4-0.3,0.6-0.6,0.6h-2l-4.3-6.8
		c0,0,0.1,0.6,0.1,1.3v5.6h-2.4V16.7h1.6c0.8,0,1.4,0.3,1.8,0.9l3.6,5.7c0,0-0.1-0.4-0.1-1.3v-5.4C46.5,16.7,48.9,16.7,48.9,16.7z
		 M19.1,16.7h-3.2v4.6h-2.8v-4.6H9.4v0.4c0,0,0.5,0.2,0.5,0.8v10.6h3.2v-5.1h2.8v5.1h3.2V16.7L19.1,16.7z M29.6,16.7h-7.2v10.8
		c0,0.6,0.6,1.1,1.2,1.1h6c0.4,0,0.6-0.3,0.6-0.6v-1.5h-4.1c-0.3,0-0.5-0.2-0.5-0.5v-2.5h3.7v-2.2h-3.7v-2.4h4.6v-1.5
		C30.2,17.1,29.9,16.7,29.6,16.7z M36.4,16.7h-3.2V28c0,0.4,0.3,0.6,0.6,0.6h2.6V16.7L36.4,16.7z M81.9,16.7h-7.2v10.8
		c0,0.6,0.6,1.1,1.2,1.1h6c0.4,0,0.6-0.3,0.6-0.6v-1.5h-4.1c-0.3,0-0.5-0.2-0.5-0.5v-2.5h3.7v-2.2h-3.7v-2.4h4.6v-1.5
		C82.5,17.1,82.2,16.7,81.9,16.7z M59.3,16.7h-7.2v10.8c0,0.6,0.6,1.1,1.2,1.1h6c0.4,0,0.6-0.3,0.6-0.6v-1.5h-4.1
		c-0.3,0-0.5-0.2-0.5-0.5v-2.5H59v-2.2h-3.7v-2.4h4.6v-1.5C59.9,17.1,59.6,16.7,59.3,16.7L59.3,16.7z M72.8,16.7h-2.3
		c-0.6,0-1,0.1-1.5,0.6l-3.3,3.7v-4.4h-3.2v11.3c0,0.4,0.3,0.6,0.6,0.6h2.6v-5.4l2.8,4.4c0.4,0.6,0.8,1,1.8,1h2.7l-4.5-7L72.8,16.7
		L72.8,16.7z"/>
	<path class="st0" d="M3.2,21.2c-0.1,0.1-0.2,0.1-0.3-0.1c-0.1-0.1-0.1-0.1,0-0.2c0.1-0.3,1.7-5.4,1.7-5.4l-4.6-3.3
		c-0.1-0.1-0.1-0.4,0.1-0.4c0.3,0,5.6,0,5.6,0s1.6-5.1,1.7-5.4c0.1-0.1,0.1-0.1,0.3-0.1c0.1,0,0.1,0.1,0.1,0.1
		c0.1,0.3,1.7,5.4,1.7,5.4s5.3,0,5.6,0c0.2,0,0.3,0.3,0.1,0.4l-2.7,2H9.4l-0.9-3l-0.9,3H4.4L7,16.1l-0.9,3L3.2,21.2"/>
</g>
</svg>
