<?xml version="1.0" encoding="utf-8"?>
<!-- Generator: Adobe Illustrator 26.0.1, SVG Export Plug-In . SVG Version: 6.00 Build 0)  -->
<svg version="1.1" id="Layer_1" xmlns="http://www.w3.org/2000/svg" xmlns:xlink="http://www.w3.org/1999/xlink" x="0px" y="0px"
	 viewBox="0 0 95 35" style="enable-background:new 0 0 95 35;" xml:space="preserve">
<style type="text/css">
	.st0{fill-rule:evenodd;clip-rule:evenodd;fill:#CCCCCC;}
</style>
<g id="g11">
	<path id="path13" class="st0" d="M0.6,12.1c0.7,0,1.2,0.2,1.5,0.5c0.3,0.3,0.5,0.9,0.5,1.8v11.7c0,1.6-0.3,2.3-2.3,2.3H0v0.7h9
		v-0.7l-0.3,0c-2,0-2.3-0.7-2.3-2.3V14.4c0-0.9,0.2-1.5,0.5-1.8c0.3-0.3,0.8-0.5,1.5-0.5H9v-0.7H0v0.7L0.6,12.1L0.6,12.1z"/>
	<path id="path15" class="st0" d="M29.3,23.2c0,0-0.2-0.7-0.2-1.1v-5.3c0-3.1,0.4-4.7-2.3-4.6v-0.7h6.3v0.7c-2.8,0-2.4,1.5-2.5,4.6
		v12.4l-0.9,0L16.2,15c0,0,0.2,0.7,0.2,1.1v8.7c-0.1,3.2,0.3,3.6,2.4,3.5v0.7h-6.5v-0.7c2.1,0,2.5-0.3,2.5-3.8v0.2v-8.6l0-1.4
		c0.1-1.8-0.6-2.8-2.6-2.8v-0.7h6C18.1,11.4,29.3,23.2,29.3,23.2z"/>
	<path id="path17" class="st0" d="M51.9,11.1h-0.7l0,0.2c0,0.4-0.2,0.9-0.6,0.9c-0.1,0-0.4-0.1-0.7-0.2c-1.4-0.6-3.2-1-4.7-1
		c-3,0-5.6,1.1-7.6,3c-1.8,1.8-2.7,4.2-2.7,6.8c0,2.5,1,4.5,3,6.3c2,1.7,4.3,2.5,7.6,2.5c2.7,0,4.3-0.4,6.7-1.7l0.4-0.2V23
		c0-2,0.2-2.3,1.9-2.4l0.3,0v-0.7h-7.9v0.7l0.3,0c1.8,0.1,2.1,0.4,2.1,2V27c-1.3,0.9-2.3,1.2-3.5,1.2c-1.8,0-3.4-0.7-4.7-1.9
		c-1.4-1.4-2.2-3.6-2.2-5.9c0-2.6,0.7-4.8,2.1-6.2c1.1-1.1,2.6-1.7,4.3-1.7c1.5,0,3.3,0.7,4.5,1.6c1,0.8,1.5,1.6,1.9,2.9l0.1,0.2
		h0.7L51.9,11.1z"/>
</g>
<path id="path159" class="st0" d="M68.9,28c0.2-0.1,0.6-0.2,0.6-0.5c-0.1-0.1-0.2-0.2-0.3-0.2L69,27.4c0-0.1,0.1-0.3,0.1-0.4
	l0.7-0.2c-0.1,0.3-0.1,0.7-0.2,1.1c0.1,0.6,0.1,1.2,0.4,1.6h-0.8C69.3,29,68.7,28.6,68.9,28L68.9,28z"/>
<path id="path161" class="st0" d="M70.6,27.3L70.6,27.3l0.6,0.5l0.1,0c0,0.6-0.1,1.1-0.1,1.7h-0.6c-0.1-0.5-0.3-1.1-0.3-1.7
	C70.4,27.7,70.5,27.5,70.6,27.3L70.6,27.3z"/>
<path id="path163" class="st0" d="M71.8,27.9c0.1-0.1,0.1-0.4,0.4-0.4c0.1,0,0.3,0,0.4,0.1c0.2,0.2,0,0.6-0.1,0.8
	c-0.1,0.4-0.2,0.8-0.3,1.1h-0.6L71.8,27.9L71.8,27.9z"/>
<path id="path165" class="st0" d="M80.2,27.7c0.1,0.2,0.2,0.4,0.3,0.5c0.2-0.2,0.2-0.6,0.1-0.8l-0.2-0.2c0.2,0,0.4-0.1,0.6-0.1
	c-0.1,0.3-0.3,0.6-0.2,0.9c0,0.5,0.1,1,0.1,1.5h-0.6C80.2,29,80,28.6,80,28C80.1,27.9,80.1,27.8,80.2,27.7L80.2,27.7z"/>
<path class="st0" d="M94.4,17.7c-0.1-0.3-0.2-0.7-0.4-1c-0.8-1.6-1.8-3.4-3.5-4.4c-0.9-0.6-1.8-1.5-2.3-2.4
	c-0.3-0.3-0.6-0.6-0.9-0.7c0.1,0.2,0.2,0.3,0.2,0.5l0,0c-0.4,0-0.7-0.2-1-0.4l0.3-0.3c-0.1-0.1-0.2-0.1-0.4-0.1
	c-1.1-0.1-2,0.4-3,0.6l0,0.1c0.6,0.3,0.7,0.9,1.1,1.4c0.1-0.1,0.2,0,0.4,0c0.2,0,0.3,0.1,0.5,0.1c0-0.1-0.1-0.3-0.1-0.4
	c0.1-0.1,0.2,0,0.3,0c0.3,0.2,0.8,0,1,0.4c-0.4,0-0.7,0.1-1.1,0.2c0,0.1,0.2,0.2,0.2,0.4c-0.3-0.1-0.6-0.2-0.9-0.2l0,0
	c0.4,0.5,1,0.8,1.6,0.9c0.8,0.2,1.6-0.2,2.4-0.1c2,0.9,3.7,3,4.4,5c0,0.1,0.1,0.2,0.1,0.3c0.6,1.8,0.7,4,0.1,5.9
	c-0.3,0.8-0.7,1.5-1.3,2.2c-0.2,0.3-0.5,0.5-0.7,0.7c-0.8,0.6-1.9,0.9-2.9,0.6c-0.1,0-0.2-0.1-0.2-0.2c0-0.2,0.1-0.3,0.1-0.5
	c0.2-0.9,0.3-1.8,0.2-2.8c0,0,0-0.1,0-0.1c-0.1-1.4-0.3-2.6-0.8-3.8c-0.3-0.7-0.7-1.4-1.2-2.1c-0.6-0.8-1.3-1.5-2.2-1.8
	c-0.6-0.1-1.3-0.2-1.7,0.3c-0.3,0.3-0.4,0.6-0.4,1c-0.5,0.3-1,0.5-1.6,0.5c-0.1,0-0.3,0.1-0.4,0.1c-0.1,0-0.3,0-0.4,0
	c-0.7-0.1-1.4-0.5-2-0.9c0-0.3,0-0.6,0-0.9c-0.3-0.2-0.6-0.5-0.6-0.8l0,0c0.2,0.1,0.3,0.1,0.5,0.2c-0.1-0.4-0.2-0.9-0.4-1.2
	C77.2,14,77,14,76.8,13.9c-0.2-0.1-0.4-0.4-0.4-0.6c0.2,0.2,0.5,0.1,0.7,0.3c-0.3-0.8-0.3-1.7-0.7-2.4c-0.2-0.5-0.8-0.8-1.2-1.1
	c-0.2-0.2-0.2-0.4-0.5-0.5c-0.2-0.1-0.2-0.3-0.3-0.5c0.1,0,0.3,0.1,0.4,0.1c-0.3-0.9-0.6-1.8-1.5-2.3L73.2,7c-0.3,0.1-0.7,0.1-1,0.1
	c0.2-0.2,0.4-0.3,0.6-0.4c-0.2-0.2-0.4-0.2-0.8-0.3c-0.2,0.2-0.5,0.3-0.7,0.3l0,0c0-0.2-0.1-0.4,0.2-0.5c-0.3-0.1-0.8-0.1-1.1,0
	c-0.1,0.2-0.3,0.4-0.3,0.7C70,7,69.9,7.3,69.7,7.4c0-0.4,0.2-0.8,0.3-1.2c-0.2,0.1-0.5,0.2-0.7,0.3c-0.4-0.2-0.8-0.5-1.2-0.6
	c0,0-0.1,0-0.1,0c0.4,0.3,0.2,0.7,0.3,1.1l-0.2-0.2c-0.1-0.3-0.4-0.5-0.5-0.8c-0.4,0.1-0.6,0.2-1,0.3l0,0c0.3,0,0.5,0.2,0.6,0.4
	c-0.4,0-0.7-0.1-1.1-0.2c0,0-0.1-0.1-0.1-0.1c-0.2,0.1-0.4,0.2-0.5,0.3c-0.4,0.4-0.8,0.8-1,1.3c0.1,0,0.3,0,0.4,0.1
	c-0.2,0.1-0.4,0.3-0.6,0.5C64,9.1,64,9.4,64,9.7c-0.2,0.2-0.4,0.5-0.5,0.7c-0.3,1.1-0.4,2.3-0.4,3.6c-0.1,0.1-0.3,0.2-0.4,0.3l0,1.1
	h0c0.1-0.2,0.3-0.4,0.5-0.5h0.1c0,0.3-0.1,0.5-0.1,0.8L63,16c-0.3,0.3,0,0.7-0.1,1.1c0,0.1,0,0.2,0.1,0.3c0-0.1,0.2-0.2,0.2-0.4
	c0.1,0,0.3-0.1,0.4-0.2c-0.1,0.3-0.2,0.5-0.3,0.8c-0.1,0-0.1,0.1-0.2,0.1c-0.1,0.1-0.1,0.1-0.1,0.2c0.2,1.3,0.6,2.6,1.1,3.8
	c-0.3,0.5-0.5,1.1-0.7,1.7c0,0.1-0.1,0.1-0.1,0.2c-0.3,0.6-0.3,1.4-0.6,2c-0.1-0.1-0.3-0.2-0.4-0.2c-0.6-0.2-1.3-0.1-1.7,0.4
	c-0.4-0.1-0.8,0-1.1,0.2c-0.2,0.2-0.4,0.4-0.5,0.6c-0.1,0.2-0.1,0.3-0.1,0.5c-0.3,0.2-0.4,0.4-0.5,0.7c-0.1,0.6,0.1,1.2,0.4,1.7h9.8
	c-0.1-0.2-0.3-0.4-0.4-0.6c-0.2-0.3-0.1-0.8-0.1-1.1c0.2-0.4,0.4-0.8,0.6-1.2c0-0.1,0.1-0.2,0.1-0.2l0.4-0.2c0.2,0,0.4-0.2,0.7-0.1
	c0.3,0.3,0.3-0.3,0.6-0.3c0.7-0.1,1.4,0,1.8,0.6c0,0.1,0.1,0.1,0.1,0.1c-0.1,0-0.2,0-0.3,0c-0.4-0.1-0.9-0.4-1.3-0.1
	c0,0.1,0,0.2-0.1,0.3c0,0.1,0,0.2,0,0.3c0.3,0.1,0.5,0.3,0.7,0.5c0.1-0.3,0.4-0.4,0.7-0.5c0.2,0,0.5,0.1,0.7,0.2
	c0.3,0.3,0.2,0.9,0.1,1.3c0.3,0.2,0.7,0.3,1,0.4c-0.2,0.1-0.3,0.2-0.5,0.3L73,29c-0.1,0-0.2,0-0.2-0.1c-0.2,0.2-0.4,0.4-0.5,0.7h7.6
	c-0.1-0.2-0.2-0.4-0.4-0.6c-0.2-0.3-0.1-0.8-0.1-1.1l0.7-1.1c0.4,0,0.8-0.1,1.2-0.1c0,0,0,0,0.1,0c0.2-0.1,0.2-0.4,0.5-0.4
	c0.5-0.1,0.8,0.1,1.2,0.3c0,0,0,0.1,0,0.1c-0.1,0.2-0.4,0-0.6,0c-0.1,0.1,0,0.2,0.1,0.3c0.1,0.1-0.1,0.1-0.1,0.1
	c-0.1,0-0.2,0-0.3-0.1c0,0,0-0.1,0-0.1c-0.1,0.2-0.2,0.3-0.3,0.5c0.1,0.1,0.3,0.2,0.4,0.4c0.1,0.2-0.1,0.3-0.1,0.5c0,0-0.1,0-0.1,0
	c-0.1-0.1-0.2-0.2-0.3-0.2c-0.1,0.5,0,1,0,1.5c0.2,0.1,0.5,0,0.7,0l0.1-1c0.1-0.7,0.5-1.2,1-1.8c0.5-0.3,0.8,0.3,1.2,0.6
	c0.1,0,0,0.1,0.1,0.1c0,0.1-0.1,0.2-0.2,0.2c-0.2,0.1-0.4-0.2-0.5-0.3c-0.1,0.1-0.2,0.3-0.4,0.5l0.1,0c0.2,0.2,0.4,0.4,0.4,0.6
	c0,0.2-0.1,0.4-0.3,0.5c-0.1-0.3-0.3-0.5-0.4-0.8c0,0,0,0,0,0c-0.3,0.1-0.4,0.4-0.4,0.7c0,0.3-0.2,0.4-0.1,0.7h4
	c0.4-0.1,0.9-0.1,1.3-0.4c1.5,0.2,3-0.1,4.1-1c0.6-0.5,1.2-1.1,1.6-1.7c0.4-0.6,0.7-1.1,0.9-1.7c0.1-0.4,0.3-0.8,0.4-1.2
	C95.2,21.7,95,19.6,94.4,17.7z M85.6,10.1c-0.1,0-0.3,0-0.4,0.1c-0.2,0-0.3-0.1-0.5-0.1c0.3-0.1,0.6-0.3,0.9-0.4
	c0.2,0.1,0.5,0.2,0.7,0.4C86.1,10.1,85.8,10.3,85.6,10.1z M87.6,11.1c-0.2-0.2-0.4-0.5-0.7-0.5c0.2-0.1,0.5-0.1,0.8-0.1
	c0.2,0.2,0.4,0.5,0.4,0.8l0.1,0.3C88.1,11.3,87.9,11.1,87.6,11.1z M60.1,27.9c-0.1-0.1-0.3-0.1-0.4-0.2c-0.2,0.3,0,0.8-0.1,1.1
	l0,0.3c-0.2,0-0.3-0.2-0.4-0.3c0-0.4-0.1-0.8,0-1.2l0.6-0.7C60,27.1,60.1,27.6,60.1,27.9z M61.5,27.9c-0.1-0.3-0.3-0.5-0.6-0.6
	c-0.3,0.4-0.2,1-0.2,1.5c-0.1,0.1-0.3,0.2-0.4,0.3c-0.3-0.7-0.1-1.5,0.1-2.1c0.1-0.3,0.3-0.5,0.5-0.8l0.7-0.1
	c-0.2,0.1-0.2,0.4-0.3,0.6c0.1,0.1,0.4,0,0.4,0.3C61.8,27.3,61.7,27.7,61.5,27.9z M77,19.7c0,0.1-0.1,0.1-0.2,0.1
	c-0.5,0.1-1-0.1-1.4-0.4c0,0-0.1-0.1-0.1-0.2c0.2,0,0.5-0.3,0.7,0C76.3,19.2,76.7,19.5,77,19.7z M75.1,23.4c0.4,0.1,0.5,0.5,0.7,0.8
	c-0.2-0.1-0.5,0-0.7-0.3c-0.1-0.1-0.2-0.2-0.3-0.1c-0.3,0.3-0.6-0.2-1,0c-0.2,0.1-0.5,0.2-0.7,0.3L73,24c0-0.2,0.2-0.4,0.4-0.6
	c0.5,0.2,0.7-0.6,1.2-0.2C74.8,23.3,75,23.3,75.1,23.4z M73.8,19.9c0.2-0.2,0.5-0.2,0.8-0.2c0.1,0.1,0.1,0.2,0.2,0.3
	c0.2,0.2,0.4,0.5,0.7,0.6c-0.3,0.1-0.6,0-0.8-0.1C74.4,20.4,74,20.2,73.8,19.9z M76.3,17.3c-0.2,0.1-0.3-0.1-0.4,0
	c-0.2,0-0.4,0-0.6-0.1c-0.1-0.1-0.1-0.3-0.2-0.4c0.2,0,0.5-0.2,0.7,0C76,16.9,76.1,17.1,76.3,17.3z M75.1,14.5
	c0.1,0.1,0.1,0.3,0.3,0.4c0.2-0.1,0.2,0.2,0.3,0.3c0.1,0.1,0.1,0.3,0.2,0.4c-0.4,0.1-0.6-0.3-0.8-0.5C75.1,15,75,14.7,75.1,14.5z
	 M74.6,17.6l0.6,0.5v0c-0.4,0-0.8,0.1-1-0.2C74.3,17.8,74.4,17.7,74.6,17.6z M74.4,13l-0.1,0.3l-0.5,0.1l0.2-1.3
	C74.3,12.4,74.6,12.6,74.4,13z M65.4,8c0.1-0.1,0.2-0.1,0.4-0.1c0.3-0.2,0.5-0.4,0.9-0.3c0.2,0,0.4,0.2,0.7,0.2c0,0.1,0,0.3,0.2,0.3
	c0.4,0.1,0.4,0.5,0.6,0.7c0.1,0.1,0.4,0,0.6,0.1C69,9,69.2,9,69.5,9.2c0.4-0.3,1-0.4,1.6-0.3c0.1-0.2,0.2-0.4,0.2-0.7
	c0.1,0,0.1-0.2,0.2-0.2c0.3-0.2,0.6-0.5,1-0.3c0.3,0.1,0.7,0.1,0.9,0.4l0,0c0.3,0.3,0.3,0.6,0.5,0.9c-0.1,0.4,0,0.9-0.4,1.2
	l-0.3,0.3l0,0c-0.1,0.1-0.2,0.1-0.4,0.1c0.2,0.5,0.1,1.1-0.2,1.5c0.1,0,0.3-0.1,0.4-0.2c0,0.1,0,0.2,0,0.3c0,0,0,0.1,0,0.1
	c0.1,0.4-0.2,0.7-0.5,0.9c-0.1,0.4-0.4,0.9-0.9,0.9c0,0,0,0.1,0,0.2c0.9,0,1.8,0.3,2.5,0.7l0,0.4c-0.7-0.4-1.6-0.7-2.4-0.7
	c0,0.2,0,0.3-0.1,0.5c0.7,0.3,1.5,0.7,2.1,1.3l0,0.5c-0.7-0.6-1.4-1.2-2.2-1.5c-0.1,0.2-0.2,0.3-0.4,0.5c-0.5-0.3-0.9-0.6-1.5-0.7
	c-0.2,0.1-0.2-0.2-0.3-0.3l0-0.3c0.3-0.1,0.5-0.4,0.5-0.7c0.1,0.1,0.2,0.1,0.4,0.1c0.1-0.1,0.1-0.2,0.1-0.3
	c-0.1-0.4-0.6-0.4-0.9-0.4c-0.5,0-0.9,0-1.3,0.2c-0.1,0.1-0.1,0.2-0.1,0.4c0,0.1,0.1,0.1,0.2,0.1c0.1,0,0.2,0,0.3-0.1
	c0,0.3,0.1,0.6,0.4,0.7c0,0,0,0,0.1,0l-0.1,0.5c-0.1,0.2-0.5,0.1-0.7,0.3c-0.4,0.1-0.8,0.3-1.1,0.5c-0.2-0.1-0.4-0.3-0.5-0.5
	c-0.6,0.2-1.1,0.5-1.6,0.9l-0.5,0.4c0-0.1,0-0.3,0-0.5c0.6-0.6,1.3-0.8,1.9-1.1l0-0.5c-0.2-0.1-0.5,0-0.8,0
	c-0.6,0.1-1.1,0.3-1.6,0.7c0-0.2-0.1-0.4,0.1-0.5c0.7-0.4,1.5-0.6,2.3-0.6c0,0,0-0.1,0-0.2c-0.1-0.1,0-0.3-0.2-0.3
	c-0.4-0.4-0.7-0.9-0.7-1.4h0c0,0,0.1,0,0.2,0c0,0,0,0,0,0c0,0,0,0,0,0c-0.2-0.6-0.2-1.2,0-1.8c-0.3-0.1-0.7-0.4-0.9-0.8
	C65,9.5,64.9,9.2,64.9,9C65,8.6,65.2,8.3,65.4,8z M72.8,18.5c-0.2-0.3-0.2-0.7-0.3-1c0.3,0.3,0.8,0.3,0.8,0.8c0,0.3,0.2,0.5,0.4,0.6
	C73.3,19,73,18.7,72.8,18.5z M72.9,19.7c-0.2,0.1-0.7,0.2-0.9-0.1c-0.3-0.5-0.1-1.1,0.1-1.5c0.1,0.3,0.2,0.7,0.2,1.1
	C72.4,19.4,72.8,19.5,72.9,19.7z M71.3,20c-0.2-0.2-0.8-0.3-0.8-0.7c0.2-0.2,0.3-0.3,0.5-0.5C71.1,19.2,71.2,19.6,71.3,20z
	 M67.3,18.1L67.3,19c-0.2-0.4-0.4-0.8-0.5-1.2L67.3,18.1z M65.9,19.9c0,0.3-0.2,0.6-0.5,0.9L65.2,21c0-0.4,0.1-0.7,0.2-1.1
	C65.5,19.9,65.7,19.8,65.9,19.9z M65.4,17.5c0.2,0.1,0.4,0.2,0.5,0.3l0,0.1c0.2,0.4,0.6,0.7,0.7,1.2c-0.4-0.1-0.8-0.5-1.1-0.9
	C65.4,18,65.3,17.8,65.4,17.5z M66.4,20.7c0.1,0,0.2,0,0.3,0l-0.3,1c-0.3,0.2-0.7,0.1-1.1,0.1C65.8,21.6,66.2,21.1,66.4,20.7z
	 M64.2,10.5c0.1-0.1,0.2-0.3,0.4-0.4v0.6L64.2,11L64.2,10.5z M64.2,11.9l0.5-0.2l-0.2,0.4c0.1,0.6-0.2,1-0.2,1.6l-0.3-1
	C63.9,12.4,64.1,12.1,64.2,11.9z M64.2,19.2c0-0.2,0.2-0.3,0.4-0.4v0c0.2,0,0.4,0.1,0.5,0.2c-0.3,0.3-0.6,0.4-0.7,0.8
	C64.3,19.6,64.2,19.4,64.2,19.2z M63.9,27.9c-0.2,0.4-0.4,0.7-0.7,1h0c0-0.4,0.1-0.7,0.2-1.1c0-0.1,0.1-0.1,0-0.1
	c-0.2,0-0.4-0.2-0.6-0.2c-0.2,0.1-0.2,0.3-0.3,0.4c-0.2,0.4-0.6,0.7-0.7,1.2c-0.1,0,0-0.1-0.1-0.1c0-0.8,0.1-1.5,0.4-2.1
	c0.3-0.3,0.6-0.5,1-0.5l0.3,0.1l-0.2,0.3c0.3,0.2,0.7,0.4,0.6,0.8L63.9,27.9z M65.6,27.6l-0.5-1.2c-0.4-0.4-0.9-0.6-1.4-0.8
	c-0.1-0.1-0.2,0-0.4,0c0-0.2,0.1-0.4,0.3-0.6l0.1,0c0,0,0,0,0,0.1c0,0,0.1,0,0.2,0l0.1,0.1c0.2,0,0.5-0.1,0.4,0.2
	c0.2,0.2,0.7,0.1,0.6,0.5c0,0.1-0.1,0.2,0,0.3c0.2,0,0.6,0,0.7,0.3l0.1,0.4L65.6,27.6z M66.3,26.5c-0.2-0.2-0.1-0.5-0.3-0.7
	c0-0.1,0.2-0.2,0.1-0.4c-0.1-0.1-0.2-0.1-0.3-0.1l-0.2,0c-0.4-0.2-0.8-0.5-1.2-0.8c-0.3-0.1-0.5,0.1-0.8,0.1c-0.1,0-0.1-0.1-0.1-0.2
	c0.2-0.2,0.3-0.6,0.7-0.6c0.2,0,0.4,0.1,0.6,0.2c0.2,0.1,0.4,0.3,0.6,0.4c0.2,0.2,0.5,0.3,0.8,0.5c0,0.1,0.1,0.3,0.2,0.3
	c0.4,0,0.3,0.4,0.4,0.7L66.3,26.5z M67,24.7v0.2c-0.2-0.4-0.4-0.8-0.9-0.9c-0.2-0.1-0.4-0.4-0.5-0.6c-0.2-0.1-0.4-0.1-0.6-0.2
	c-0.3,0-0.5,0.1-0.8,0.1l-0.1-0.1l0.4-0.6c0.4,0.1,1,0,1.3,0.4c0.2,0.1,0.5,0.2,0.6,0.4c0,0.1,0,0.1,0,0.2c0.1,0.1,0.3,0.2,0.4,0.3
	C67,24.2,67.1,24.5,67,24.7z M67.7,21.8c-0.3,0.1-0.6,0.1-0.9,0.1c0.2-0.2,0.4-0.3,0.6-0.4l0.5-0.5h0.5
	C68.3,21.2,68.1,21.7,67.7,21.8z M67.9,18.8c0.2,0.1,0.4,0.1,0.6,0.2c0,0.3,0.1,0.6,0.1,0.9C68.2,19.6,67.9,19.3,67.9,18.8z
	 M68.1,22.7c0.1-0.1,0.3-0.3,0.3-0.5c0.3-0.2,0.4-0.5,0.5-0.7c0.2-0.1,0.5,0,0.7-0.1c0,0.3-0.4,0.6-0.6,0.9
	C68.7,22.5,68.4,22.6,68.1,22.7z M69,24l-0.4-0.5c0.3,0.1,0.7,0.1,1,0l0.1,0.5C69.5,24,69.2,24,69,24z M69.5,20.2l-0.2-0.7
	c0.3-0.1,0.4-0.3,0.6-0.5C69.9,19.4,69.8,19.9,69.5,20.2z M70.2,16.9c-0.1,0,0,0.1-0.1,0.2c0,0.2-0.1,0.4-0.1,0.6
	c-0.2,0.1-0.4,0.2-0.7,0.1c0-0.1,0-0.2,0-0.3c-0.1-0.2-0.1-0.4-0.1-0.5l0,0c-0.1,0.1-0.1,0.3-0.1,0.4c-0.1,0.1-0.2,0.3-0.2,0.4
	c-0.2,0-0.4-0.1-0.6-0.2l0-0.6c0,0,0,0-0.1,0l-0.3,0.3c-0.2-0.3-0.3-0.7-0.3-1.1c0.9-0.5,2.1-0.4,3.1-0.1c0.1,0.1,0.3,0.1,0.3,0.2
	c-0.1,0.4-0.2,0.9-0.5,1.2C70.4,17.2,70.3,17.1,70.2,16.9z M71.4,23.8c-0.3-0.1-0.5-0.2-0.7-0.4c0-0.1-0.1-0.2-0.1-0.4
	c0.2,0,0.3,0,0.5,0L71.4,23.8C71.5,23.8,71.4,23.7,71.4,23.8z M71.4,21.9c-0.4-0.2-0.4-0.7-0.9-0.9c-0.1-0.1-0.1-0.2-0.1-0.3l1,0.2
	c0,0.1,0.1,0.2,0.2,0.3c0.2,0.2,0.4,0.3,0.5,0.5C71.9,21.9,71.6,22.1,71.4,21.9z M73.3,20.6h0.1l0.3,0.4c0.2,0.1,0.5,0.2,0.7,0.4
	c0,0.1-0.1,0.1-0.2,0.1c-0.8,0.2-1.3-0.3-1.9-0.7C72.7,20.7,73,20.7,73.3,20.6z M72.4,25.3L72.4,25.3c0-0.2,0.1-0.5,0.2-0.7
	c0.2-0.1,0.5-0.2,0.7-0.2c0.2-0.1,0.4-0.1,0.5-0.1l0,0.1c0.7,0,1.5,0,2.1,0.6l0,0.4c-0.2-0.2-0.6-0.1-0.8-0.4
	c-0.2-0.1-0.5-0.1-0.8-0.1c-0.2,0.1-0.5,0.1-0.8,0.2c-0.1,0,0-0.2-0.1-0.2C73.1,24.9,72.7,25,72.4,25.3z M74.4,27.7L74.4,27.7
	L74.4,27.7l-0.2,0.2c-0.2-0.2,0-0.7-0.4-0.9c-0.3,0-0.5-0.2-0.6-0.4l0.2-0.1c0.1,0,0.2-0.1,0.3,0c0.1,0.1,0.2,0.2,0.3,0.4
	c0.1,0.1,0.3,0,0.4,0.1C74.4,27.2,74.5,27.5,74.4,27.7L74.4,27.7z M76.4,27.5c-0.2-0.3-0.3-0.9-0.7-0.9c-0.1-0.2-0.1-0.4-0.3-0.5
	l-0.6-0.1l0,0c0.1,0.2,0.5,0.3,0.3,0.6c0.1,0.2,0.4,0.2,0.5,0.5c0.1,0.2,0,0.4,0.1,0.7L75.2,28c0-0.4,0.1-1-0.4-1.2
	c-0.4,0.1-0.4-0.4-0.7-0.5C74,26.2,74,25.9,73.8,26c-0.3,0.2-0.7,0.1-1,0.2h-0.1c0.1-0.2,0.1-0.5,0.4-0.5c0.2-0.2,0.5-0.1,0.7-0.2
	l0.5-0.1c0.6,0,1,0.3,1.5,0.4c0.2,0.2,0.4,0.4,0.4,0.7c0.1,0.1,0.4,0.1,0.4,0.3C76.5,27,76.5,27.3,76.4,27.5z M77.3,26.6L77.3,26.6
	c-0.1-0.2-0.2-0.3-0.3-0.5c0.2-0.6-0.2-1.2-0.2-1.7l-0.1-0.2c0.3,0.2,0.7,0.5,0.7,0.9C77.3,25.7,77.4,26.2,77.3,26.6z M76.7,18.6
	l0.5-0.3c0.2,0.2,0.4,0.3,0.6,0.4C77.4,18.8,77,18.8,76.7,18.6z M81,19.6c0.1,0.1,0.3,0.2,0.3,0.4c0,0.2,0,0.4,0,0.6
	c-0.5-0.5-0.9-1-1.4-1.5C80.4,19,80.6,19.5,81,19.6z M78.1,20.3c0-0.2,0-0.3,0.1-0.5c0.2,0.2,0.3,0.4,0.4,0.6c0,0.2-0.1,0.3-0.2,0.4
	C78.2,20.7,78,20.5,78.1,20.3L78.1,20.3z M78.7,24.5c0-0.4-0.1-0.7-0.3-0.9c0-0.1,0.2-0.2,0.1-0.3c-0.1-0.1-0.4-0.2-0.4-0.4
	c0-0.3,0.2-0.4,0.3-0.7c0,0,0.1,0.1,0.1,0.1c0.1,0.3,0.2,0.5,0.1,0.8c-0.1,0.3,0.3,0.2,0.3,0.5C78.9,23.9,78.8,24.2,78.7,24.5z
	 M79.4,21.8c-0.1,0.1-0.2,0.2-0.3,0.2l-0.3-0.6l0.1-0.8c0.1,0,0.2,0,0.2,0.1c0.1,0.1,0,0.3,0.1,0.4C79.3,21.4,79.5,21.6,79.4,21.8z
	 M80.4,24.4c-0.1,0.2-0.3,0.4-0.4,0.7c0.1-0.3,0.2-0.6,0-0.9c-0.1-0.1-0.3,0-0.3-0.2c0-0.3,0.1-0.7-0.2-1c-0.1-0.4,0.4-0.5,0.6-0.7
	c0.1,0.2,0,0.5,0.1,0.7c0.1,0.3,0.2,0.6,0,0.9c0,0.1,0,0.1,0.1,0.1c0.1,0,0.3-0.1,0.2,0.1C80.5,24.3,80.4,24.3,80.4,24.4z M81,23.6
	c-0.2,0-0.1-0.2-0.2-0.3c-0.1-0.4-0.2-0.7-0.3-1.1c-0.2-0.5-0.5-1.1-0.7-1.6c-0.1-0.2-0.4-0.4-0.6-0.6c0.3,0,0.6,0.1,0.8,0.3
	c0,0.2,0.1,0.3,0.2,0.4c0.5,0.1,0.4,0.6,0.7,0.9c0.1,0.1-0.1,0.2-0.1,0.2c-0.1,0-0.2,0.1-0.2,0.2v0c0.2,0.1,0.4,0.2,0.5,0.4
	C81.1,22.8,81,23.2,81,23.6z M81.9,23c-0.1-0.4-0.4-0.7-0.6-1.1c0,0,0-0.1-0.1-0.1l0.2-0.1c0.1,0,0.3-0.1,0.3,0.1
	C82.1,22.1,81.9,22.6,81.9,23z M85,22.2c-0.4-0.2-0.8-0.1-1.2,0.1c-0.1,0-0.2-0.3-0.3-0.4c0,0,0-0.1,0-0.1c0.2,0,0.3,0,0.5-0.1
	c0.4-0.1,0.8-0.1,1.2,0.1c0,0.4,0.5,0.4,0.5,0.7l0.1,0.3c-0.2-0.1-0.4-0.2-0.6-0.3C85.2,22.4,85.2,22.2,85,22.2z M85.5,21.1
	c-0.1-0.1-0.3-0.2-0.2-0.3c0,0,0-0.1,0-0.1c-0.2-0.2-0.5,0.1-0.7,0.1c-0.2,0.1-0.3,0-0.5,0.1c0,0.1,0.1,0.1,0.1,0.2l-0.5,0.2
	c-0.2,0-0.4,0-0.5-0.1c-0.1-0.2-0.1-0.4-0.1-0.5c0.2-0.1,0.5,0,0.6-0.2c0.4-0.3,0.9,0,1.4,0.1c0.1,0,0.2-0.1,0.3-0.1
	c0.2,0.1,0.4,0.3,0.6,0.3c0.1,0.2,0.1,0.4,0.1,0.7C86,21.4,85.7,21.2,85.5,21.1z M85.1,19.3c0.1-0.1,0.3-0.2,0.4-0.1
	c0.3,0.2,0.6,0.5,0.7,0.8c-0.5-0.3-1.1-0.4-1.7-0.5c-0.4,0-0.6,0.4-1,0.4c-0.1,0.1-0.3,0.2-0.4,0.3c-0.1,0,0-0.1-0.1-0.2
	c0,0,0,0,0,0c-0.1-0.2,0-0.4,0-0.6c0.2,0,0.4-0.2,0.6-0.3c0.4,0,0.7-0.1,1.1-0.2C84.9,18.9,84.7,19.5,85.1,19.3z M83,18.3
	c0.3-0.2,0.5-0.6,0.9-0.3c0.2,0,0.3,0.1,0.5,0.1c0.1,0.1,0.2,0.3,0.3,0.4c-0.4,0-1-0.2-1.3,0.1c-0.1,0.1-0.3,0.1-0.4,0.2
	C82.9,18.7,83,18.4,83,18.3z M82.8,17.1c0.1-0.2,0.2-0.3,0.4-0.4c0.2,0,0.4-0.1,0.6,0c0,0.4,0.4,0.2,0.7,0.3
	c0.1,0.2,0.2,0.4,0.3,0.6c-0.5-0.1-0.9-0.3-1.4-0.2c-0.2,0.1-0.4,0.1-0.5,0.2C82.7,17.4,82.8,17.2,82.8,17.1z M84.4,26.4
	c-0.3-0.2-0.6-0.3-1-0.4c0-0.1,0-0.2,0-0.3c-0.1-0.1-0.2-0.1-0.4-0.1c-0.2,0.1-0.3,0.2-0.5,0.1c0.3-0.1,0.3-0.4,0.6-0.6
	c0.1-0.1,0.2,0,0.3,0c0.1,0.1,0.3,0.1,0.4,0.1c0,0.1,0,0.2,0,0.3c0.1,0.1,0.3,0.1,0.4,0.1C84.4,25.9,84.6,26.1,84.4,26.4L84.4,26.4z
	 M85.1,25.6l-0.5-0.4c0-0.1,0.1-0.2,0-0.3c-0.3-0.3-0.7-0.1-1.1-0.1c-0.2,0-0.1-0.2,0-0.3c0.1-0.1,0.1-0.2,0.2-0.3
	c0.2,0,0.3-0.2,0.5-0.1c0.3,0,0.5,0.3,0.8,0.3c0.2,0.1,0.2,0.3,0.3,0.5C85.2,25.1,85.1,25.3,85.1,25.6z M85.4,24.1
	c-0.2,0-0.1-0.2-0.3-0.3c-0.2-0.3-0.5-0.5-0.9-0.5c-0.2,0-0.4,0.3-0.6,0.3c0-0.1,0.1-0.1,0.1-0.2c0-0.2,0-0.6,0.3-0.6l0.4,0
	c0.2,0.5,0.8,0.2,1,0.5C85.5,23.6,85.4,23.8,85.4,24.1z M86.3,27.1c0-0.4-0.4-0.7-0.6-1l0.2-0.5c0.2,0.1,0.4,0.3,0.4,0.5
	c0,0.1-0.1,0.3,0,0.4c0,0.1,0.2,0.1,0.2,0.2C86.5,26.9,86.4,27,86.3,27.1z M86.8,25.8l-0.4-0.5c0.1-0.2,0.1-0.4,0.3-0.6
	c0.1,0,0.2,0.1,0.2,0.1C87,25.1,87,25.5,86.8,25.8z"/>
<path id="path283" class="st0" d="M66.2,8.1l0.2,0c0.4,0.2,1.1,0.3,1.2,1c-0.4,0.2-0.9,0.4-1.2,0.8c-0.3-0.3-0.8-0.1-0.9-0.6
	C65.5,8.8,65.7,8.2,66.2,8.1z"/>
<path id="path285" class="st0" d="M66.7,10.9c0.5,0,1,0,1.5,0c0.1,0.1,0.3,0.2,0.3,0.3c0,0.6-0.2,1.2-0.2,1.8
	c-0.2,0.1-0.4,0.3-0.5,0.5c-0.2,0.1-0.4,0.2-0.6,0.3c-0.1-0.2-0.1-0.5,0.1-0.6c0.2-0.3,0.8-0.2,0.7-0.7c0.1-0.2,0-0.5,0-0.8
	c-0.1-0.2-0.1,0.1-0.2,0.1c-0.2,0-0.4,0-0.5,0c-0.1-0.1-0.3-0.2-0.3-0.4C66.8,11.2,66.6,11.1,66.7,10.9L66.7,10.9L66.7,10.9z"/>
<path id="path287" class="st0" d="M67.3,14.6c0.2,0,0.5-0.1,0.7,0c0,0.1-0.2,0.1-0.3,0.1l-0.4,0.2C67.2,14.9,67.3,14.6,67.3,14.6z"
	/>
<path id="path289" class="st0" d="M68.2,9.9c0.2-0.1,0.5-0.2,0.7-0.2c-0.2,0.2-0.3,0.4-0.5,0.6l-0.8,0C67.8,10.2,68.1,10,68.2,9.9z"
	/>
<path id="path291" class="st0" d="M70.5,9.7c0.3-0.1,0.3,0.4,0.6,0.4c0.1,0.1,0.1,0.1,0.1,0.2c-0.2,0.1-0.4,0-0.6,0.1
	c-0.3-0.1-0.1-0.6-0.5-0.5c0,0-0.1-0.1,0-0.1C70.2,9.7,70.3,9.7,70.5,9.7z"/>
<path id="path293" class="st0" d="M70.3,11.2c0.1-0.2,0.3-0.2,0.5-0.2l1.4,0c0.1,0.1-0.1,0.1-0.1,0.2c-0.1,0.1-0.2,0.1-0.3,0.2
	c-0.2,0-0.2,0.2-0.3,0.3c-0.2,0.2-0.5,0.1-0.7,0.1c-0.1-0.1-0.2-0.1-0.2-0.2l-0.1,0.1c0.1,0.3,0.1,0.7,0.1,1l0.3,0.2
	c0,0.5,0.6,0.4,0.9,0.7c-0.1,0.2-0.2,0.3-0.3,0.5c-0.2-0.2-0.4-0.3-0.7-0.4c0-0.3-0.3-0.5-0.5-0.6C70.3,12.3,70.3,11.8,70.3,11.2
	L70.3,11.2z"/>
<path id="path295" class="st0" d="M70.8,14.6h0.7L71.4,15L70.8,14.6C70.7,14.7,70.7,14.6,70.8,14.6L70.8,14.6z"/>
<path id="path297" class="st0" d="M72,8.4l0.5-0.2c0.3,0.1,0.5,0.3,0.8,0.5c0.2,0.4,0.2,0.9,0.1,1.3c-0.1,0.2-0.5,0-0.6,0.3h0
	c-0.2-0.5-0.7-1-1.2-1.2C71.6,8.8,71.7,8.5,72,8.4L72,8.4z"/>
</svg>
