<?xml version="1.0" encoding="utf-8"?>
<!-- Generator: Adobe Illustrator 26.0.1, SVG Export Plug-In . SVG Version: 6.00 Build 0)  -->
<svg version="1.1" id="Layer_1" xmlns="http://www.w3.org/2000/svg" xmlns:xlink="http://www.w3.org/1999/xlink" x="0px" y="0px"
	 viewBox="0 0 95 35" style="enable-background:new 0 0 95 35;" xml:space="preserve">
<style type="text/css">
	.st0{fill-rule:evenodd;clip-rule:evenodd;fill:#CCCCCC;}
</style>
<g>
	<path class="st0" d="M47.6,20.3c-0.4,0-0.8,0.1-1.1,0.2v3.9c0.3,0.1,0.7,0.2,1.1,0.2c1.3,0,1.8-0.7,1.8-2.2
		C49.3,20.9,48.6,20.3,47.6,20.3z"/>
	<path class="st0" d="M47.5,0L24.1,23.3L35.8,35l5.9-5.8l5.9,5.8l5.9-5.8l5.8,5.8l0.1,0.1l11.7-11.7L47.5,0z M51.1,8.6
		c0,0.9-0.3,1.8-1.6,3.8c-0.5-0.1-1-0.1-1.5-0.1c1.1-2.1,1.4-2.8,1.4-3.3C49.4,8.3,49,8,48.3,8c-0.1,0-0.2,0-0.3,0V6.8
		c0.3-0.1,0.6-0.1,1-0.1C50.4,6.6,51.1,7.6,51.1,8.6z M47.5,3.3l1.3,1.3l-1.3,1.3l-1.3-1.3L47.5,3.3z M46,6.6c0.3,0,0.7,0,1,0.1V8
		c-0.1,0-0.2,0-0.3,0c-0.7,0-1.1,0.3-1.1,0.9c0,0.5,0.3,1.3,1.4,3.3c-0.5,0-1,0.1-1.5,0.1c-1.3-2-1.6-2.9-1.6-3.8
		C43.9,7.6,44.6,6.6,46,6.6z M39.4,26.1l-2.8-3.4v3.4h-2.3V15.8h2.3v5.6l2.2-2.6h2.9l-3,3.1l3.7,4.3H39.4z M40.9,10.3
		c0-0.9,0.9-1.6,2-1.5c0,0.3,0.1,0.8,0.2,1.1c-0.4,0.1-0.6,0.3-0.6,0.6c0,0.4,0.2,0.8,1.8,2.2c-0.5,0.1-1,0.3-1.4,0.4
		C41.3,11.6,40.9,11,40.9,10.3z M43.6,14.1c1.4-0.4,2.7-0.6,3.9-0.6c1.2,0,2.6,0.2,3.9,0.6L51,15.5c-1.2-0.4-2.4-0.5-3.5-0.5
		s-2.3,0.2-3.5,0.5L43.6,14.1z M47.8,26.3c-0.5,0-0.9,0-1.3-0.1l0,2.8h-2.3v-9.9c1-0.4,2.2-0.7,3.5-0.7c2.8,0,4.1,1.4,4.1,3.9
		C51.7,24.8,50.4,26.3,47.8,26.3z M52.2,13c-0.4-0.1-0.9-0.3-1.4-0.4c1.5-1.4,1.8-1.8,1.8-2.2c0-0.3-0.2-0.5-0.6-0.6
		c0.1-0.3,0.2-0.7,0.2-1.1c1.1,0,2,0.6,2,1.5C54.1,11,53.7,11.6,52.2,13z M59.3,26.1v-3.6c0-0.3,0-0.7-0.1-0.9
		c-0.1-0.9-0.6-1.3-1.5-1.3c-0.4,0-0.8,0.1-1.2,0.2l0,5.6h-2.3v-7c1.1-0.4,2.3-0.7,3.6-0.7c2.2,0,3.5,0.7,3.8,2.6
		c0,0.3,0.1,0.6,0.1,1v4H59.3z"/>
</g>
</svg>
