<?xml version="1.0" encoding="utf-8"?>
<!-- Generator: Adobe Illustrator 26.0.1, SVG Export Plug-In . SVG Version: 6.00 Build 0)  -->
<svg version="1.1" id="Layer_1" xmlns="http://www.w3.org/2000/svg" xmlns:xlink="http://www.w3.org/1999/xlink" x="0px" y="0px"
	 viewBox="0 0 95 35" style="enable-background:new 0 0 95 35;" xml:space="preserve">
<style type="text/css">
	.st0{fill:#CCCCCC;}
</style>
<path class="st0" d="M62.6,0.3c0.6-0.2,1.3-0.3,2-0.3c1.3,0,2.5,0.2,3.8,0.5c2.1,0.5,4.1,1.2,6.1,2c4.1,1.8,8,4,11.7,6.5
	c1,0.7,2,1.4,2.9,2.2c0.4,0.4,0.8,0.8,1,1.4c0.1,0.6-0.1,1.2-0.5,1.5c-0.4,0.4-1.1,0.5-1.6,0.4c-0.6-0.1-1-0.4-1.5-0.6
	c-2.1-1-4.2-1.9-6.4-2.6c-1-0.3-2-0.6-2.9-0.8c-2.4-0.5-4.9-0.9-7.4-1c-1.1-0.1-2.2,0-3.2,0.1c1.4,2.2,3,4.4,4.7,6.4
	c0.3,0.4,0.5,1,0.3,1.5c-0.3,0.7-1.2,1.1-2,0.9c-0.4-0.1-0.6-0.4-0.9-0.7c-0.7-0.8-1.3-1.6-1.9-2.4c-0.8-1.1-1.6-2.2-2.4-3.3
	c-0.4-0.6-0.9-1.2-1.2-1.9c-3.9,0.7-7.7,2.3-11.2,4.2c-1.2,0.7-2.3,1.3-3.5,2.1c-0.8,0.5-1.5,1.1-2.3,1.7c-0.4,0.3-0.8,0.3-1.3,0.3
	c-0.6-0.2-1.1-0.6-1.2-1.2c-0.1-0.3,0-0.7,0.1-1c0.2-0.3,0.4-0.5,0.6-0.7c2.1-1.7,4.3-3.2,6.7-4.4c4.8-2.5,10-4.2,15.3-4.5
	c1.2,0,2.4,0,3.7,0.1c2.5,0.2,4.9,0.6,7.3,1.2c2,0.5,3.9,1.3,5.8,2c-2.6-1.5-5.3-2.9-8.1-4.1c-1.9-0.8-3.9-1.5-5.9-2
	c-1.3-0.3-2.7-0.6-4.1-0.5c-0.2,0-0.5,0.1-0.7,0.1c-0.2,0.1-0.4,0.2-0.6,0.4c-0.3,0.4-0.2,0.8-0.1,1.2c0.1,0.3,0.3,0.6,0.4,0.9
	c0.1,0.1,0.1,0.2,0.1,0.3c-1,0.1-2.1,0.3-3.1,0.5c-0.4-0.7-0.7-1.5-0.8-2.4c0-0.6-0.1-1.3,0.2-1.9C60.8,1.4,61.7,0.6,62.6,0.3z"/>
<g>
	<path class="st0" d="M10.3,26c-0.1-0.3-0.2-0.6-0.4-0.9C9.6,24.8,9,24.7,8.6,25c-0.2,0.2-0.3,0.4-0.4,0.6c-1,2.8-2.1,5.5-3.1,8.3
		c-0.1,0.3-0.2,0.6,0,0.8c0.3,0.4,1,0.3,1.1-0.2C6.5,33.8,6.8,33,7,32.2c0.3,0,0.6,0,0.9,0c1.1,0,2.2,0,3.3,0
		c0.2,0.7,0.5,1.4,0.7,2.1c0.1,0.2,0.1,0.4,0.3,0.6c0.3,0.2,0.7,0.2,0.9-0.1c0.2-0.2,0.1-0.6,0-0.8C12.2,31.3,11.3,28.7,10.3,26z
		 M10.8,31.1c-1.1,0-2.2,0-3.3,0c0.6-1.6,1.2-3.2,1.7-4.9c0.5,1.6,1.1,3.2,1.7,4.7C10.9,31,10.9,31.1,10.8,31.1z"/>
	<path class="st0" d="M32.5,24.9c-0.3,0.1-0.4,0.4-0.4,0.7c0,2.9,0,5.8,0,8.7c0,0.2,0,0.4,0.2,0.6c0.2,0.2,0.5,0.2,0.8,0.1
		c0.2-0.1,0.3-0.4,0.3-0.6c0-2.9,0-5.8,0-8.7c0-0.2,0-0.4-0.1-0.5C33,24.8,32.7,24.8,32.5,24.9z"/>
	<path class="st0" d="M56,26c0-0.3-0.1-0.6-0.3-0.9c-0.3-0.4-0.9-0.4-1.3-0.1c-0.2,0.2-0.3,0.4-0.4,0.7c-0.3,1.1-0.6,2.2-0.9,3.2
		c-0.4,1.3-0.8,2.7-1.1,4c-0.2-0.9-0.4-1.8-0.7-2.6c-0.4-1.6-0.9-3.1-1.3-4.7c-0.1-0.3-0.3-0.6-0.6-0.7c-0.3-0.1-0.7-0.1-1,0.2
		c-0.2,0.2-0.3,0.5-0.3,0.7c-0.5,2.7-0.9,5.5-1.4,8.2c0,0.2-0.1,0.5,0.1,0.7c0.2,0.3,0.5,0.3,0.8,0.1c0.3-0.1,0.3-0.5,0.3-0.7
		c0.4-2.6,0.8-5.1,1.2-7.7c0.3,1.4,0.7,2.7,1.1,4c0.4,1.3,0.8,2.6,1.1,3.9c0,0.1,0.1,0.3,0.2,0.4c0.3,0.3,1,0.2,1.1-0.3
		c0.6-2,1.1-3.9,1.7-5.9c0.2-0.7,0.4-1.4,0.6-2.1c0.4,2.6,0.8,5.2,1.2,7.8c0,0.2,0.1,0.5,0.3,0.6c0.2,0.1,0.6,0.1,0.7-0.1
		c0.2-0.2,0.1-0.5,0.1-0.8C56.9,31.4,56.4,28.7,56,26z"/>
	<path class="st0" d="M78.7,25.5c0-0.4-0.4-0.7-0.8-0.6c-0.4,0.1-0.5,0.5-0.4,0.8c0,2.9,0,5.7,0,8.6c0,0.1,0,0.3,0.1,0.4
		c0.2,0.4,0.8,0.4,1,0.1c0.2-0.2,0.1-0.4,0.2-0.6C78.7,31.3,78.7,28.4,78.7,25.5z"/>
	<path class="st0" d="M59.3,25.2c-0.2,0.1-0.4,0.2-0.5,0.4c-0.2,0.4,0,0.9,0.4,1.1c0.4,0.2,1-0.2,1-0.7
		C60.3,25.5,59.8,25.1,59.3,25.2z"/>
	<path class="st0" d="M64.4,27.5c-0.3-0.1-0.6-0.1-0.8-0.1c0-0.5,0-1,0-1.5c0-0.2,0-0.5-0.2-0.6c-0.3-0.3-0.9-0.1-1,0.4
		c0,0.6,0,1.2,0,1.8c-0.3,0-0.5,0-0.8,0.1c-0.4,0.2-0.4,0.8,0,1c0.3,0.1,0.5,0,0.8,0.1c0,1.9,0,3.9,0,5.8c0,0.3,0.1,0.6,0.4,0.6
		c0.4,0.1,0.9-0.1,0.8-0.6c0-2,0-3.9,0-5.9c0.3,0,0.5,0,0.8,0C64.8,28.3,64.8,27.7,64.4,27.5z"/>
	<path class="st0" d="M67.5,27.4c0-0.5,0-0.9,0-1.4c0-0.2,0-0.5-0.2-0.7c-0.3-0.3-1-0.2-1.1,0.3c0,0.6,0,1.2,0,1.8
		c-0.3,0-0.7,0-1,0.2c-0.1,0.2-0.2,0.5,0,0.8c0.3,0.2,0.6,0.2,0.9,0.2c0,1.8,0,3.6,0,5.4c0,0.2,0,0.5,0.1,0.7c0.2,0.4,0.7,0.4,1,0.1
		c0.1-0.1,0.2-0.3,0.2-0.5c0-1.9,0-3.9,0-5.8c0.3,0,0.6,0,0.9-0.1c0.3-0.2,0.3-0.7,0-0.9C68.1,27.4,67.8,27.4,67.5,27.4z"/>
	<path class="st0" d="M17.8,27.4c-0.3-0.1-0.7,0-1,0.2c-0.4,0.3-0.8,0.7-1,1.1c0-0.4,0.1-0.7-0.1-1.1c-0.3-0.5-1.1-0.3-1.1,0.3
		c0,2.2,0,4.3,0,6.5c0,0.5,0.7,0.8,1,0.5c0.2-0.1,0.2-0.4,0.2-0.6c0-1.2,0-2.3,0-3.5c0-0.4,0.1-0.9,0.3-1.3c0.3-0.4,0.7-0.6,1.1-0.8
		c0.2-0.1,0.5-0.1,0.7-0.3C18.2,28.1,18.2,27.6,17.8,27.4z"/>
	<path class="st0" d="M23.1,33.5c-0.3,0.1-0.6,0.3-0.9,0.3c-0.5,0.1-1.1,0.1-1.5-0.2c-0.5-0.3-0.8-0.8-1-1.3
		c-0.2-0.6-0.2-1.2-0.1-1.9c0.1-0.6,0.4-1.2,0.9-1.6c0.5-0.4,1.3-0.5,1.9-0.3c0.3,0.1,0.5,0.3,0.8,0.2c0.4,0,0.6-0.5,0.3-0.8
		c-0.2-0.2-0.4-0.4-0.7-0.5c-0.5-0.2-1.1-0.2-1.6-0.2c-0.7,0.1-1.4,0.4-1.9,0.9c-0.7,0.7-1,1.7-1.1,2.7c0,1,0.2,2.1,0.9,2.9
		c0.6,0.7,1.5,1.1,2.4,1.1c0.7,0,1.4-0.1,1.9-0.5c0.2-0.1,0.3-0.4,0.3-0.6C23.6,33.6,23.3,33.5,23.1,33.5z"/>
	<path class="st0" d="M45.4,27.4c-0.8,0-1.4,0.7-1.8,1.3c0-0.3,0.1-0.7-0.1-1c-0.1-0.3-0.4-0.4-0.7-0.3c-0.3,0-0.5,0.4-0.5,0.7
		c0,2.1,0,4.1,0,6.2c0,0.2,0,0.4,0.2,0.6c0.3,0.3,0.8,0.3,1-0.1c0.1-0.1,0.1-0.3,0.1-0.5c0-1.1,0-2.3,0-3.4c0-0.5,0.1-0.9,0.3-1.3
		c0.3-0.5,0.8-0.7,1.3-0.9c0.3-0.1,0.6-0.2,0.7-0.6C46,27.7,45.8,27.3,45.4,27.4z"/>
	<path class="st0" d="M59.4,27.4c-0.2,0-0.4,0.2-0.4,0.5c0,0.2,0,0.5,0,0.7c0,1.9,0,3.8,0,5.7c0,0.2,0,0.4,0.2,0.6
		c0.2,0.2,0.5,0.2,0.7,0.1c0.2-0.1,0.3-0.4,0.3-0.6c0-2.1,0-4.1,0-6.2c0-0.2,0-0.4-0.2-0.6C59.9,27.4,59.6,27.3,59.4,27.4z"/>
	<path class="st0" d="M74.7,27.5c-0.3,0.3-0.2,0.7-0.2,1.1c-0.3-0.4-0.6-0.7-1-1c-0.7-0.3-1.6-0.3-2.3,0c-0.8,0.3-1.4,1-1.7,1.8
		c-0.3,0.9-0.4,1.8-0.2,2.7c0.2,1,0.7,1.9,1.5,2.5c0.8,0.5,1.9,0.6,2.7,0.2c0.4-0.2,0.7-0.5,1-0.9c0,0.3,0,0.6,0.1,0.8
		c0.1,0.3,0.6,0.4,0.9,0.3c0.2-0.1,0.3-0.4,0.3-0.6c0-2.1,0-4.2,0-6.3c0-0.2-0.1-0.4-0.2-0.6C75.3,27.3,75,27.3,74.7,27.5z
		 M74.1,32.9c-0.2,0.4-0.5,0.7-0.9,0.8c-0.7,0.3-1.6,0.2-2.1-0.4c-0.5-0.5-0.7-1.2-0.7-1.9c0-0.7,0.1-1.5,0.4-2.1
		c0.2-0.4,0.7-0.7,1.1-0.9c0.6-0.2,1.3,0,1.7,0.5c0.4,0.4,0.6,1,0.7,1.6C74.6,31.4,74.5,32.2,74.1,32.9z"/>
	<path class="st0" d="M27.8,27.4c-0.9-0.1-1.8,0.2-2.4,0.8c-0.6,0.6-1,1.5-1.1,2.4c-0.1,1.1,0,2.2,0.6,3.1c0.5,0.7,1.3,1.2,2.1,1.3
		c1,0.1,2.2,0,3-0.7c0.3-0.2,0.5-0.5,0.4-0.8c0-0.3-0.3-0.4-0.6-0.4c-0.3,0.1-0.5,0.3-0.8,0.5c-0.5,0.3-1,0.4-1.5,0.3
		c-0.6,0-1.2-0.3-1.5-0.7c-0.4-0.4-0.5-1-0.5-1.5c1.4,0,2.8,0,4.2,0c0.3,0,0.6,0,0.9-0.1c0.2-0.1,0.3-0.3,0.3-0.5c0-1-0.3-2-1-2.7
		C29.3,27.8,28.6,27.4,27.8,27.4z M25.5,30.7c0-0.5,0.2-1.1,0.5-1.5c0.7-0.9,2.1-1,2.9-0.2c0.5,0.5,0.6,1.1,0.7,1.7
		C28.2,30.7,26.8,30.7,25.5,30.7z"/>
	<path class="st0" d="M39.5,27.8c-0.7-0.4-1.6-0.5-2.5-0.3c-1.1,0.3-1.9,1.2-2.2,2.3c-0.3,1.1-0.3,2.4,0.2,3.5
		c0.4,0.8,1.1,1.4,1.9,1.7c0.9,0.3,1.8,0.2,2.6-0.3c0.6-0.4,1.1-1,1.4-1.7c0.3-1,0.4-2,0.1-3C40.7,29,40.2,28.2,39.5,27.8z
		 M39.6,32.6c-0.2,0.4-0.5,0.9-0.9,1.1c-0.7,0.4-1.7,0.2-2.2-0.4c-0.4-0.5-0.6-1.1-0.7-1.7c-0.1-0.7,0-1.5,0.4-2.2
		c0.2-0.4,0.6-0.8,1.1-0.9c0.5-0.1,1.1-0.1,1.6,0.3c0.5,0.4,0.8,0.9,0.9,1.5C39.9,31,39.9,31.9,39.6,32.6z"/>
</g>
</svg>
