<?xml version="1.0" encoding="utf-8"?>
<!-- Generator: Adobe Illustrator 26.0.1, SVG Export Plug-In . SVG Version: 6.00 Build 0)  -->
<svg version="1.1" id="Layer_1" xmlns="http://www.w3.org/2000/svg" xmlns:xlink="http://www.w3.org/1999/xlink" x="0px" y="0px"
	 viewBox="0 0 95 35" style="enable-background:new 0 0 95 35;" xml:space="preserve">
<style type="text/css">
	.st0{fill:#FFFFFF;}
	.st1{fill-rule:evenodd;clip-rule:evenodd;fill:#FFFFFF;}
</style>
<path class="st0" d="M46.6,8.5c-2.6-4.3-6.9-7.4-12-8.2c-1-0.2-2-0.3-3-0.3c-5.4,0-10.2,2.4-13.4,6.3c-0.6,0.8-0.7,1.1,0.1,1.1h7.4
	h13.6c0.3,0,0.7,0.2,0.8,0.5l2.9,4.5c0.2,0.3,0.2,0.7,0.2,1l-1.7,8.5l-1,4.7C40.3,26.8,40,27,39.7,27H35c-0.3,0-0.7-0.2-0.8-0.5
	l-5.8-8.7L28,19.9l-1.3,6.6C26.6,26.8,26.3,27,26,27h-0.6h-2.9c-0.3,0-0.5-0.2-0.4-0.5l2.4-11.7h0l0.1-0.6c0.1-0.3,0.4-0.5,0.7-0.5
	h0.2h0H30c0.3,0,0.7,0.2,0.8,0.5l5.8,8.7l2.3-11.4v0H25.5h0H24c-4.7,0-9.2,2.1-9.2,8.7c0,6.6,6.8,14.9,16.8,14.9
	c2.9,0,5.6-0.7,8-1.9c5.6-2.9,9.5-8.8,9.5-15.6C49.1,14.2,48.2,11.1,46.6,8.5z M33.4,0.2c-0.1,0-0.3,0-0.4,0
	C33.1,0.2,33.3,0.2,33.4,0.2z M32.2,0.3c-0.2,0-0.3,0-0.5,0.1C31.9,0.3,32.1,0.3,32.2,0.3z M27.1,2.2c-0.1,0.1-0.2,0.1-0.3,0.2
	C26.9,2.4,27,2.3,27.1,2.2z M31.1,0.5c-0.2,0-0.3,0.1-0.5,0.1C30.8,0.5,30.9,0.5,31.1,0.5z M30,0.7c-0.1,0-0.3,0.1-0.4,0.1
	C29.7,0.8,29.8,0.8,30,0.7z M28.9,1.1c-0.1,0.1-0.3,0.1-0.4,0.2C28.7,1.2,28.8,1.2,28.9,1.1z M28,1.6c-0.1,0.1-0.2,0.1-0.4,0.2
	C27.7,1.7,27.9,1.7,28,1.6z"/>
<path class="st1" d="M67.6,14.2c0,0,0,0,0,10.5c0,0,0,0-2,0c-0.5,0-1.1-0.3-1.3-0.7c0,0,0,0-4.5-6.2c0,0,0,0,0,6.8c0,0,0,0-2.4,0
	c0,0,0,0,0-8.5c0-0.7-0.2-1-0.4-1.1c0,0,0,0-0.5-0.1c0,0,0,0,0.1-0.9c0,0,0,0,2.7,0c0.5,0,1.2,0.3,1.5,0.8c0,0,0,0,4.4,6.1
	c0,0,0,0,0-6.8H67.6z M77.9,14.2c0,6.8,0,6.8,0,6.8c-4.3-6.1-4.3-6.1-4.3-6.1c-0.3-0.4-1-0.8-1.5-0.8c-2.7,0-2.7,0-2.7,0
	C69.3,15,69.3,15,69.3,15c0.5,0.1,0.5,0.1,0.5,0.1c0.2,0.1,0.4,0.4,0.4,1.1c0,8.5,0,8.5,0,8.5c2.4,0,2.4,0,2.4,0c0-6.8,0-6.8,0-6.8
	c4.4,6.2,4.4,6.2,4.4,6.2c0.2,0.3,0.9,0.7,1.3,0.7c1.9,0,1.9,0,1.9,0c0-10.5,0-10.5,0-10.5H77.9z"/>
</svg>
