<?xml version="1.0" encoding="utf-8"?>
<!-- Generator: Adobe Illustrator 26.0.1, SVG Export Plug-In . SVG Version: 6.00 Build 0)  -->
<svg version="1.1" id="Layer_1" xmlns="http://www.w3.org/2000/svg" xmlns:xlink="http://www.w3.org/1999/xlink" x="0px" y="0px"
	 viewBox="0 0 95 35" style="enable-background:new 0 0 95 35;" xml:space="preserve">
<style type="text/css">
	.st0{fill:#FFFFFF;}
</style>
<g>
	<path class="st0" d="M38.2,4.9c0-0.5-0.3-0.8-0.9-0.8c-0.1,0-0.1,0-0.2,0v1.7h0.2C37.9,5.8,38.2,5.4,38.2,4.9z"/>
	<path class="st0" d="M54.6,4.9c0-0.5-0.3-0.8-0.9-0.8c-0.1,0-0.1,0-0.2,0v1.7h0.2C54.4,5.8,54.6,5.4,54.6,4.9z"/>
	<path class="st0" d="M47.6,0c-8.2,0-13.8,0.8-13.8,0.8v20.5C33.8,29,39.9,35,47.5,35c7.5,0,13.7-5.9,13.7-13.9V0.8
		C61.2,0.8,55.8,0,47.6,0z M52.2,3.3c0.4-0.1,1-0.1,1.6-0.1c1.3,0,2.1,0.4,2.1,1.6c0,1.1-0.8,1.7-1.9,1.7h-0.5v1h-1.3V3.3z M50,3.3
		h1.3v4.2H50V3.3z M47,3.3h1.3v3.3h1.2l-0.2,0.8H47V3.3z M44.8,3.3h1.3v4.2h-1.3V3.3z M47.5,9.4c6.6,0,10.5,5,11.5,8.6
		c-1-0.6-3-1.6-5.5-1.6c-5,0-7.5,3.2-11.8,4l0.3-2.7c0.2-1.3,0.4-1.7,1.5-1.9l3.2-0.4v-0.2l-2-0.2l0.2-1.6c0.1-0.5,0.3-0.7,0.8-0.7
		l1.7-0.2v-0.1l-1.8-0.2c-0.5-0.1-0.7-0.3-0.7-0.8l-0.2-1.6C44.6,9.7,45.8,9.4,47.5,9.4z M41.9,12.4l1.6,0.2
		c0.5,0.1,0.7,0.3,0.8,0.9l0.2,1.4l-1.3-0.2c-0.6-0.1-1-0.6-1.1-1.3L41.9,12.4z M44.2,11.3c-0.1,0.5-0.3,0.7-0.8,0.7l-1.5,0.2
		l-0.2-1.4c0.7-0.4,1.7-0.8,2.7-1.1L44.2,11.3z M40,3.3h1.3V5h1.3V3.3h1.3v4.2h-1.3V5.9h-1.3v1.6H40V3.3z M41.3,11.1L41,13.3
		c-0.1,0.5-0.1,0.7-0.4,1c-0.2,0.2-0.6,0.3-1,0.4l-2.3,0.3C38.2,13.6,39.5,12.2,41.3,11.1z M35.8,3.3c0.4-0.1,1-0.1,1.6-0.1
		c1.3,0,2.1,0.4,2.1,1.6c0,1.1-0.8,1.7-1.9,1.7h-0.5v1h-1.3V3.3z M37.1,15.5l2.5,0.3c0.5,0.1,0.8,0.2,1,0.4c0.2,0.2,0.3,0.4,0.4,1.3
		l0.4,2.9c0,0-0.8,0.1-1.7,0.1c-1.6,0-3.1-0.4-4-0.8C35.9,18.1,36.3,16.9,37.1,15.5z M51.3,27.7c1,0.1,1.5,0.4,1.6,1.4l0.3,2.6
		c-1,0.6-3.1,1.5-5.8,1.5c-5,0-9.8-3.1-11.5-8.7c1.5,0.9,3.5,1.6,5.6,1.6c5.3,0,7.8-3.3,11.7-4l-0.4,3.3c-0.1,0.8-0.4,1.2-1.4,1.4
		l-3.2,0.4v0.2L51.3,27.7z M53.7,31.5l0.3-2c0.2-1.2,0.4-1.6,1.5-1.7l2.3-0.3C56.5,29.3,55.2,30.5,53.7,31.5z M57.9,27l-2.3-0.3
		c-1.2-0.1-1.5-0.4-1.7-1.6L53.5,22c0,0,0.8-0.1,1.7-0.1c1.4,0,3.2,0.4,4.1,0.8C59.1,24.1,58.9,25.3,57.9,27z M54.6,20.1
		c-5.6,0-7.9,4.1-13.5,4.1c-2.2,0-4-0.6-5.4-1.4c0-0.3-0.1-1-0.1-1.5c1,0.5,2.6,1.2,4.8,1.2c5.5,0,8-4.1,13.5-4.1
		c2.2,0,4.1,0.6,5.4,1.4c0.1,0.5,0.1,1,0.1,1.5C57.9,20.5,56.4,20.1,54.6,20.1z M57.6,7.6c-0.4,0-0.9-0.1-1.3-0.2l-0.1-1
		c0.4,0.2,1,0.3,1.5,0.3c0.5,0,0.7-0.1,0.7-0.4c0-0.7-2-0.4-2-1.9c0-0.9,0.7-1.3,1.7-1.3c0.5,0,0.8,0.1,1.2,0.1l0.1,0.9
		c-0.3-0.1-0.7-0.2-1.1-0.2c-0.4,0-0.6,0.1-0.6,0.3c0,0.7,2,0.4,2,1.8C59.6,7.3,58.7,7.6,57.6,7.6z"/>
</g>
<path id="path3098" class="st0" d="M50.4,32.3L50.4,32.3l0.3-1.3c0.1-0.5,0.3-0.6,0.7-0.6l1.3-0.2v-0.1l-1.4-0.2
	c-0.4-0.1-0.5-0.2-0.6-0.6L50.5,28h-0.1l-0.2,1.4c-0.1,0.3-0.2,0.5-0.6,0.5l-1.4,0.2v0.1l1.3,0.2c0.4,0.1,0.6,0.3,0.6,0.7L50.4,32.3
	z"/>
</svg>
