<?xml version="1.0" encoding="utf-8"?>
<!-- Generator: Adobe Illustrator 26.0.1, SVG Export Plug-In . SVG Version: 6.00 Build 0)  -->
<svg version="1.1" id="Layer_1" xmlns="http://www.w3.org/2000/svg" xmlns:xlink="http://www.w3.org/1999/xlink" x="0px" y="0px"
	 viewBox="0 0 95 35" style="enable-background:new 0 0 95 35;" xml:space="preserve">
<style type="text/css">
	.st0{fill-rule:evenodd;clip-rule:evenodd;fill:#CCCCCC;}
</style>
<g>
	<path id="path1551" class="st0" d="M30.7,27.4v3.8h2c1.1,0,1.9-0.9,1.9-1.9c0-1.1-0.9-1.9-1.9-1.9H30.7z M44.2,27.4
		c-1.1,0-2,0.9-2,2c0,1.1,0.9,2,2,2s2-0.9,2-2C46.2,28.3,45.3,27.4,44.2,27.4 M62.8,26.4c0.9,0,1.5,0.2,2.1,0.8l0.1,0.1l-0.6,0.7
		l-0.1-0.1c-0.4-0.4-0.9-0.6-1.4-0.6c-0.6,0-1,0.2-1,0.6c0,0.3,0.1,0.5,1.2,0.8c0.7,0.2,1.2,0.3,1.6,0.6c0.4,0.3,0.6,0.7,0.7,1.3
		c0,1-0.9,1.7-2.3,1.7c-1,0-1.8-0.4-2.3-1l-0.1-0.1l0.7-0.6l0.1,0.1c0.4,0.5,0.9,0.7,1.5,0.7c0.5,0,1.2-0.1,1.2-0.8
		c0-0.4-0.2-0.7-1.3-0.9c-1.3-0.3-2-0.7-2-1.7C60.8,27.1,61.6,26.4,62.8,26.4 M53.8,26.4h1v3.1c0,1,0.8,1.8,1.8,1.8
		c1,0,1.8-0.8,1.8-1.8v-3.1h1v3.1c0,1.5-1.3,2.8-2.8,2.8c-1.5,0-2.8-1.3-2.8-2.8V26.4z M50.3,26.4c0.9,0,1.5,0.2,2.1,0.8l0.1,0.1
		l-0.6,0.7l-0.1-0.1c-0.4-0.4-0.9-0.6-1.4-0.6c-0.6,0-1,0.2-1,0.6c0,0.3,0.1,0.5,1.2,0.8c0.7,0.2,1.2,0.3,1.6,0.6
		c0.4,0.3,0.6,0.7,0.7,1.3c0,1-0.9,1.7-2.3,1.7c-1,0-1.8-0.4-2.3-1l-0.1-0.1l0.7-0.6l0.1,0.1c0.4,0.5,0.9,0.7,1.5,0.7
		c0.5,0,1.2-0.1,1.2-0.8c0-0.4-0.2-0.7-1.3-0.9c-1.3-0.3-2-0.7-2-1.7C48.3,27.1,49.1,26.4,50.3,26.4 M29.8,26.4h2.9
		c1.6,0,2.9,1.3,2.9,2.9c0,1.6-1.3,2.9-2.9,2.9h-2V35h-1V26.4z M44.2,26.4c1.6,0,3,1.3,2.9,2.9c0,1.6-1.3,2.9-2.9,2.9
		s-2.9-1.3-2.9-2.9C41.3,27.7,42.6,26.4,44.2,26.4 M39.6,26.4c0.1,0,0.3,0,0.4,0c0.1,0,0.2,0,0.4,0v1c-0.2-0.1-0.5-0.1-0.7-0.1
		c-1.1,0-2,0.7-2,2v2.2v0.7h-1v-2.9C36.8,27.6,38.1,26.4,39.6,26.4 M57.8,4.8C57.8,4.8,57.8,4.8,57.8,4.8L57.8,4.8l0,5.5
		c0,1.2-0.4,2.2-1.1,3c-0.3,0.4-0.7,0.8-1.2,1.2c0,0,0,0-0.1,0.1c-1.4-1-2.8-2.1-4.2-3.1c0.1-0.1,0.2-0.2,0.4-0.3
		c1.3-1,2.6-1.9,3.9-2.8c1-0.7,1.6-1.6,2-2.7c0.1-0.2,0.1-0.5,0.2-0.7C57.7,4.9,57.7,4.9,57.8,4.8 M36.9,4.1
		c0.4,0.3,0.8,0.6,1.1,0.8c1.9,1.4,3.8,2.8,5.7,4.1c2.2,1.6,4.4,3.2,6.5,4.8c1.5,1.1,4.7,3.4,4.7,3.4l2-1.4V22l-2,1.4l-18-13.2V4.1z
		 M47.9,0.1c0.7-0.1,1.5-0.1,2.2,0c0.8,0.1,1.5,0.3,2.2,0.6c0.4,0.2,0.9,0.5,1.2,0.8c0.7,0.6,1.2,1.3,1.3,2.1c0.2,0.9,0,1.7-0.5,2.5
		c-0.3,0.5-0.7,0.9-1.2,1.2l0,0l0,0c-1.4-0.9-3-1.2-4.7-1.1c-0.9,0.1-1.8,0.3-2.5,0.7C45.6,7,45.4,7,45.3,7.1c0,0-0.1,0-0.1,0
		L41,4.1c0.1-0.1,0.3-0.2,0.5-0.3c1.2-0.8,2.3-1.7,3.4-2.5C45.8,0.6,46.9,0.2,47.9,0.1"/>
</g>
</svg>
