<?xml version="1.0" encoding="utf-8"?>
<!-- Generator: Adobe Illustrator 26.0.1, SVG Export Plug-In . SVG Version: 6.00 Build 0)  -->
<svg version="1.1" id="Layer_1" xmlns="http://www.w3.org/2000/svg" xmlns:xlink="http://www.w3.org/1999/xlink" x="0px" y="0px"
	 viewBox="0 0 95 35" style="enable-background:new 0 0 95 35;" xml:space="preserve">
<style type="text/css">
	.st0{fill:#FFFFFF;}
</style>
<g id="layer1" transform="translate(116.92129,-338.61963)">
	<g id="g31225" transform="translate(35.40372,35.392161)">
		<path id="path38" class="st0" d="M-143.2,321.6c0,0-3.1-3.1-3.1-3.1c-0.2-0.2-0.4-0.3-0.7-0.3h-5.3v2h5.8c0.4,0,0.9,0.2,1.2,0.5
			c0.3,0.3,0.5,0.7,0.5,1.2v5.8h2v-5.3C-142.9,322-143,321.8-143.2,321.6"/>
		<path id="path42" class="st0" d="M-137.6,318.1c-0.3,0-0.5,0.1-0.7,0.3l-3.1,3.1c-0.2,0.2-0.3,0.4-0.3,0.7v5.3h2v-5.8
			c0-0.9,0.7-1.6,1.6-1.6h5.8v-2H-137.6"/>
		<path id="path46" class="st0" d="M-118.6,317.9c-1,0-2,0.7-2.4,1.7l0,0h-0.1v-1.5h-1.5v9.4h1.6v-4.3c0-2.4,1-3.9,2.6-3.9
			c0.3,0,0.7,0.1,0.9,0.2V318C-117.9,318-118.1,317.9-118.6,317.9"/>
		<path id="path50" class="st0" d="M-68.5,318.8c-0.6-0.6-1.5-0.9-2.8-0.9c-1.1,0-2.1,0.3-3.1,0.9l0.1,1.4c0.7-0.6,1.7-0.9,2.7-0.9
			c0.8,0,1.4,0.2,1.8,0.6c0.4,0.4,0.6,1,0.6,2v0.1l-0.1,0c-0.7,0-1.2,0-1.9,0c-1.2,0-2.7,0.3-3.6,1.2c-0.5,0.5-0.7,1.1-0.7,1.9
			c0,0.9,0.2,1.5,0.7,2c0.6,0.6,1.5,0.9,2.7,0.9c1.7,0,2.6-1,2.9-1.4l0,0h0.1v1.2h1.4v-5.8C-67.5,320.4-67.8,319.5-68.5,318.8z
			 M-69.2,323v0.9c0,0.7-0.2,1.4-0.7,1.8c-0.5,0.5-1.2,0.7-2,0.7c-0.5,0-1-0.2-1.4-0.6c-0.3-0.3-0.4-0.7-0.4-1.1
			c0-1.7,2.3-1.9,3.4-1.9c0.2,0,0.4,0,0.6,0C-69.6,323-69.4,323-69.2,323L-69.2,323"/>
		<path id="path54" class="st0" d="M-110.8,318.8c-0.6-0.6-1.5-0.9-2.8-0.9c-1.1,0-2.1,0.3-3.1,0.9l0.1,1.4c0.7-0.6,1.7-0.9,2.7-0.9
			c0.8,0,1.4,0.2,1.8,0.6c0.4,0.4,0.6,1,0.6,2v0.1l-0.1,0c-0.7,0-1.2,0-1.9,0c-1.2,0-2.7,0.3-3.6,1.2c-0.5,0.5-0.8,1.1-0.8,1.9
			c0,0.9,0.2,1.5,0.7,2c0.6,0.6,1.5,0.9,2.7,0.9c1.7,0,2.6-1,2.9-1.4l0,0h0.1v1.2h1.4v-5.8C-109.8,320.4-110.2,319.5-110.8,318.8z
			 M-111.5,323v0.9c0,0.7-0.2,1.4-0.7,1.8c-0.5,0.5-1.2,0.7-2,0.7c-0.5,0-1-0.2-1.4-0.6c-0.3-0.3-0.4-0.7-0.4-1.1
			c0-1.7,2.3-1.9,3.4-1.9c0.2,0,0.4,0,0.6,0C-111.9,323-111.7,323-111.5,323L-111.5,323"/>
		<path id="path58" class="st0" d="M-101,318.8c-0.6-0.6-1.4-0.9-2.5-0.9c-1.3,0-2.6,0.7-3.1,1.7l0,0h-0.1v-1.5h-1.6v9.4h1.6v-4.3
			c0-1.2,0.2-2.2,0.7-2.9c0.5-0.7,1.3-1.1,2.2-1.1c1.5,0.1,2.1,1.1,2.1,3.5v4.9h1.6v-5.6C-100,320.5-100.4,319.5-101,318.8"/>
		<path id="path62" class="st0" d="M-85.2,322.1c-0.9-0.4-1.7-0.8-1.7-1.7c0-0.7,0.7-1.2,1.7-1.2c0.4,0,1.3,0.2,1.8,0.5l0.1-1.4
			c-0.7-0.2-1.4-0.4-2.1-0.4c-1.1,0-2,0.3-2.6,0.9c-0.5,0.5-0.7,1.2-0.7,2c0,1.4,1.3,2.1,2.4,2.6c0.9,0.4,1.8,0.9,1.8,1.7
			c0,0.4-0.1,0.7-0.4,0.9c-0.5,0.5-1.2,0.5-1.5,0.5c-0.5,0-1.4-0.2-2.1-0.6l-0.1,1.4c0.8,0.4,1.8,0.5,2.5,0.5c0.9,0,1.7-0.2,2.3-0.7
			c0.7-0.5,1-1.3,1-2.2C-82.8,323.2-84,322.6-85.2,322.1"/>
		<path id="path66" class="st0" d="M-77.1,326.5c-0.4,0-0.8-0.1-1-0.4c-0.3-0.3-0.5-0.8-0.5-1.3v-5.3h2.5v-1.3h-2.5v-2.7l-1.6,0.5
			v2.2h-2.1v1.3h2.1v5.6c0,0.9,0.2,1.5,0.7,2c0.5,0.5,1.2,0.7,2.2,0.7c0.6,0,1.1-0.1,1.4-0.2v-1.3
			C-76.3,326.4-76.7,326.5-77.1,326.5"/>
		<path id="path70" class="st0" d="M-59,313.7v5.8h-0.1l0,0c-0.6-1-1.7-1.5-3.1-1.5c-1.1,0-2,0.4-2.7,1.1c-0.9,0.9-1.3,2.2-1.3,3.7
			c0,1.7,0.5,3.2,1.4,4.1c0.7,0.7,1.6,1,2.6,1c1.6,0,2.7-0.8,3.2-1.5l0,0h0.1v1.3h1.6v-13.9H-59z M-59,322.9c0,1.2-0.4,2.2-1.1,2.9
			c-0.5,0.5-1.1,0.7-1.8,0.7c-0.6,0-1.2-0.2-1.6-0.7c-0.8-0.8-1.1-2.1-1-3c0-1.2,0.3-2.3,0.9-2.9c0.5-0.5,1-0.7,1.7-0.7
			c0.7,0,1.3,0.2,1.8,0.7C-59.3,320.6-59,321.7-59,322.9"/>
		<path id="path74" class="st0" d="M-91.4,313.7v5.8h-0.1l0,0c-0.6-1-1.7-1.5-3.1-1.5c-1.1,0-2,0.4-2.7,1.1
			c-0.9,0.9-1.3,2.2-1.3,3.7c0,1.7,0.5,3.2,1.4,4.1c0.7,0.7,1.6,1,2.6,1c1.6,0,2.7-0.8,3.2-1.5l0,0h0.1v1.3h1.6v-13.9H-91.4z
			 M-91.4,322.9c0,1.2-0.4,2.2-1.1,2.9c-0.5,0.5-1.1,0.7-1.8,0.7c-0.6,0-1.2-0.2-1.6-0.7c-0.8-0.8-1.1-2.1-1-3
			c0-1.2,0.3-2.3,0.9-2.9c0.5-0.5,1-0.7,1.7-0.7c0.7,0,1.3,0.2,1.8,0.7C-91.8,320.6-91.4,321.7-91.4,322.9"/>
	</g>
</g>
</svg>
