<?xml version="1.0" encoding="utf-8"?>
<!-- Generator: Adobe Illustrator 26.0.1, SVG Export Plug-In . SVG Version: 6.00 Build 0)  -->
<svg version="1.1" id="Layer_1" xmlns="http://www.w3.org/2000/svg" xmlns:xlink="http://www.w3.org/1999/xlink" x="0px" y="0px"
	 viewBox="0 0 95 35" style="enable-background:new 0 0 95 35;" xml:space="preserve">
<style type="text/css">
	.st0{fill-rule:evenodd;clip-rule:evenodd;fill:#CCCCCC;}
</style>
<path class="st0" d="M59.6,6.1c-2.5-3.4-6.9-6-12-6.1c-5.2,0-9.5,2.5-12.1,6c-2.2,3-3.6,6.2-2.8,12.1c1.7,1.2,3.1,2.3,4.9,3.6
	l0.7,5.6h7.3c0.5,0.4,1.1,0.7,2.1,0.7c1,0,1.6-0.4,2.1-0.7H57l0.7-5.6l4.6-3.4C63.3,13.4,62,9.3,59.6,6.1z M60,16.6l-5,3.7l-0.6,4.2
	h-5.6c-0.2,0.3-0.5,0.7-1.2,0.8c-0.7,0-0.8-0.3-1.2-0.8l-5.6,0l-0.5-4.2l-5.1-3.8c-0.2-0.6-0.3-1.6-0.2-2.4c0.1-0.8,0.2-1.3,0.5-1.8
	c2.6,2.5,5.8,5.8,8.5,8.3c-2.5-3-5.5-6.7-8-9.8c0.1-0.7,0.3-1.4,0.6-2c0.4-0.8,0.8-1,1.2-1.4c2.3,3.7,5.1,8.7,7.3,12.5
	c-2-4.1-4.3-9.5-6.3-13.6c0.4-0.7,0.7-1,1.2-1.3c0.5-0.4,1.1-0.7,1.7-0.9c1.3,4.7,3.2,10.7,4.5,15.4c-1-4.9-2.2-11.2-3.2-16.1
	c0.6-0.3,1-0.5,1.7-0.7c0.6-0.1,1.4-0.1,2,0c0.3,5.1,0.4,11.5,0.8,16.7C48,14.3,48,7.9,48.4,2.7c0.6-0.1,1.3-0.1,2,0.1
	C51,3,51.5,3.2,52,3.5c-1,4.9-2.2,11.1-3.1,16c1.4-4.7,3.1-10.7,4.5-15.4C54,4.2,54.7,4.6,55.2,5c0.4,0.4,0.7,0.7,1.2,1.3
	c-2,4.1-4.3,9.4-6.3,13.6c2.3-3.7,5.1-8.8,7.4-12.5c0.4,0.4,0.7,0.7,1.2,1.4c0.4,0.6,0.6,1.3,0.7,2c-2.5,3.1-5.5,6.8-8,9.8
	c2.6-2.5,5.8-5.8,8.5-8.3c0.2,0.5,0.4,0.9,0.5,1.8C60.3,15,60.1,15.9,60,16.6z"/>
<path class="st0" d="M32.2,33.1h2.6c0,0.6,0.2,0.7,0.4,0.8c0.1,0.1,1.2,0.1,1.8,0c0.2,0,0.4-0.1,0.4-0.8c0-0.3-0.1-0.6-0.4-0.7
	c-1.1-0.1-2.3,0-3.4-0.1c-1.1-0.3-1.3-0.6-1.4-1.5c0.1-1.3,0.5-1.6,1.8-1.7c1.3,0,2.7,0,4,0c1.4,0,1.8,0.5,1.8,1.7h-2.4
	c0-0.6-0.1-0.8-0.4-0.8c-0.6,0-1.2,0-1.8,0c-0.2,0-0.5,0.1-0.5,0.6c0,0.5,0.1,0.6,0.4,0.6c1,0,2,0.1,2.9,0.1
	c1.6,0.1,1.7,0.8,1.7,1.6c0,1.1-0.4,1.5-0.6,1.6c-0.3,0.1-1.6,0.3-1.8,0.3h-2.6c-0.6,0-1.3-0.1-1.9-0.3
	C32.2,34.6,32.2,33.8,32.2,33.1L32.2,33.1z M56.7,35H59v-5.7h-2.3V35z M60.6,35h2.3v-5.7h-2.3V35z M55.4,32c0-0.2-0.1-0.4-0.2-0.5
	c-0.4-0.6-1.7-0.6-3-0.7c-1,0-2.5,0-2.9,0.4C49.1,31.5,49,31.7,49,32c-0.1,0.3-0.1,0.7-0.1,0.8c0,0.3,0,1.4,0.6,1.7
	c0.5,0.3,2.1,0.4,2.7,0.4c0.6,0,2.4-0.1,2.6-0.4c0.5-0.2,0.6-0.7,0.7-1.2h-2.2c0,0.4-0.4,0.7-1.1,0.7c-0.6,0-1-0.1-1-0.9l4.3,0
	C55.5,32.8,55.5,32.4,55.4,32L55.4,32z M53.2,32.4h-2c0-0.2,0-0.3,0.1-0.4c0.1-0.4,0.5-0.4,0.9-0.4c0.6,0,0.9,0.1,1,0.4
	C53.2,32.1,53.2,32.3,53.2,32.4L53.2,32.4z M41.2,35h2.2v-2.4c0.1-0.3,0.1-0.6,1-0.6c0.8,0,1,0.2,1,0.6V35h2.2v-2.4
	c0-0.8,0-1.2-0.5-1.5c-0.5-0.3-1.1-0.3-1.7-0.3c-0.6,0-1.4,0.1-1.9,0.4v-1.9h-2.2V35L41.2,35z"/>
</svg>
