<?xml version="1.0" encoding="utf-8"?>
<!-- Generator: Adobe Illustrator 26.0.1, SVG Export Plug-In . SVG Version: 6.00 Build 0)  -->
<svg version="1.1" id="Layer_1" xmlns="http://www.w3.org/2000/svg" xmlns:xlink="http://www.w3.org/1999/xlink" x="0px" y="0px"
	 viewBox="0 0 95 35" style="enable-background:new 0 0 95 35;" xml:space="preserve">
<style type="text/css">
	.st0{fill:#343741;}
</style>
<g>
	<path id="House_1_" class="st0" d="M11,17.3c-0.4-0.6-0.8-1.2-1.2-1.7l0,0l0,0c0,0-0.1-0.1-0.1-0.1c-0.2-0.3-0.4-2.5-0.5-2.6
		c0-0.2-0.1-0.4-0.4-0.4c-0.2,0-0.6-0.1-0.9-0.1c-0.2,0-0.3,0.1-0.3,0.2c0,0.1,0,0.1,0,0.2c0,0.3,0,0.4,0,0.5c0,0,0,0,0,0
		c0,0,0,0,0,0c0,0-0.1,0-0.1,0c-0.2-0.1-1.1-0.8-1.6-1.1c0,0,0,0-0.1,0c-0.2-0.1-0.4-0.1-0.6,0c0,0,0,0,0,0c-0.2,0.1-3,1.7-5.1,5.3
		c0,0-0.1,0.2,0,0.4c0.1,0.2,1,0.3,1.2,0.3c0.2,0,0.2,0.2,0.2,0.2c0,1.5,0,2.2,0.3,4.6c0,0,0,0.3,0.3,0.3c0.1,0,0.5,0,1.5,0
		c0,0,0.1,0,0.1-0.1c0,0,0,0,0,0c-0.1-1-0.1-1.9-0.1-1.9c0,0,0-0.1-0.1-0.1c-0.4-0.2-0.6-0.6-0.6-1c0-2,0.1-3.5,0.1-3.5
		s0-0.2,0.2-0.2c0.2,0,0.2,0.2,0.2,0.2c-0.1,0.9-0.1,2.4-0.1,2.4s0,0.3,0.3,0.3c0.3,0,0.3-0.3,0.3-0.3c0-1.2,0.1-2.4,0.1-2.4
		s0-0.2,0.2-0.2c0.1,0,0.1,0.1,0.2,0.1c0,0,0,0.1,0,0.1C4.1,17.4,4,18.7,4,18.7S4,19,4.3,19c0.3,0,0.3-0.3,0.3-0.3
		c0-1,0.1-2.4,0.1-2.4c0-0.1,0.1-0.2,0.2-0.2c0.2,0,0.2,0.2,0.2,0.2C5,17.4,5,19.1,5,19.8c0,0.4-0.2,0.8-0.6,1.1c0,0-0.1,0.1,0,0.1
		c0,0.7,0.1,1.4,0.1,1.9c0,0,0,0.1,0.1,0.1c0.3,0,0.8,0,1.2,0c0.5,0,0.8,0,1.2,0c0,0,0.1,0,0.1-0.1c0.1-1,0.1-1.6,0.1-1.7
		c0-0.1-0.1-0.1-0.1-0.1c-0.1,0-0.4-0.1-0.7-0.1c-0.2,0-0.3-0.3-0.3-0.3c-0.2-3,1.4-4.8,1.4-4.8s0.2-0.2,0.4-0.1
		c0.2,0.1,0.2,0.6,0.2,0.7c0.2,2.5,0,5.3-0.2,6.5c0,0,0,0.1,0.1,0.1c0.1,0,1,0,1.1,0c0.2,0,0.3-0.1,0.3-0.3c0.3-2.3,0.3-4.6,0.3-4.6
		C9.7,18,9.7,18,9.8,18l0.9-0.1c0.1,0,0.2-0.1,0.3-0.2C11,17.6,11,17.4,11,17.3"/>
	<path id="path7" class="st0" d="M15.8,15.8h-1.4c-0.5,0-0.5,0-0.6,0.5c-0.1,0.5-0.1,0.6,0.3,0.6H15l-0.5,2.8
		c-0.1,0.6-0.4,1-1.2,1.3C13.1,21,13,21,13,21.1c0,0.1,0,0.2,0.1,0.4c0.1,0.3,0.2,0.4,0.3,0.4s0.3-0.1,0.4-0.1
		c1.2-0.4,1.7-1.3,1.8-2.4l0.5-3.1C16.4,15.8,16.4,15.8,15.8,15.8"/>
	<path id="path9" class="st0" d="M20.6,15.8c-0.6,0-0.6,0-0.7,0.5l-0.4,2.5c-0.1,0.7-0.3,1.2-1,1.2c-0.7,0-0.9-0.4-0.8-1.1l0.4-2.4
		c0.1-0.7,0.1-0.7-0.5-0.7c-0.6,0-0.6,0-0.7,0.5l-0.4,2.5c-0.3,1.4,0.6,2.3,1.9,2.3c1.4,0,2.1-0.6,2.4-2.1l0.4-2.5
		C21.2,15.8,21.2,15.8,20.6,15.8"/>
	<path id="path11" class="st0" d="M23.2,19.9c0.5,0,0.7-0.2,0.7-0.4c0-0.3-0.3-0.4-0.8-0.5c-0.9-0.3-1.7-0.6-1.7-1.5
		c0-1.1,0.9-1.7,2-1.7c0.5,0,1,0,1.4,0.1c0.3,0,0.4,0.1,0.3,0.6c-0.1,0.5-0.2,0.5-0.5,0.5c-0.3,0-0.8-0.1-1.3-0.1
		c-0.6,0-0.8,0.2-0.8,0.4c0,0.3,0.2,0.4,0.8,0.5c1,0.3,1.7,0.7,1.7,1.6c0,1-0.8,1.6-2,1.7c-0.7,0-1.2,0-1.7-0.1
		c-0.4-0.1-0.4-0.1-0.3-0.6c0.1-0.5,0.1-0.5,0.5-0.5C22.3,19.9,22.8,19.9,23.2,19.9"/>
	<path id="path13" class="st0" d="M29.5,15.8h-3.3c-0.5,0-0.5,0-0.6,0.6c-0.1,0.6-0.1,0.6,0.3,0.6h1.1l-0.6,3.4
		C26.4,21,26.4,21,27,21c0.6,0,0.6,0,0.7-0.5l0.6-3.6h1c0.5,0,0.5,0,0.6-0.6C30,15.8,30,15.8,29.5,15.8"/>
	<path id="path15" class="st0" d="M35.3,16.9c0.5,0,0.5,0,0.6-0.6c0.1-0.6,0.1-0.6-0.3-0.6h-2.3c-0.8,0-0.8,0-0.9,0.8l-0.6,3.5
		C31.5,21,31.5,21,32.3,21h2.3c0.5,0,0.5,0,0.6-0.5c0.1-0.6,0.1-0.6-0.3-0.6h-2l0.2-1h1.6c0.4,0,0.4,0,0.5-0.5
		c0.1-0.5,0.1-0.5-0.5-0.5h-1.4l0.2-0.9L35.3,16.9z"/>
	<path id="path17" class="st0" d="M37.8,18.7l0.8-1.7c0.1-0.1,0.1-0.1,0.2-0.1c0.1,0,0.1,0,0.1,0.2l0.2,1.6L37.8,18.7L37.8,18.7z
		 M39.8,16.4c-0.1-0.7-0.1-0.7-1-0.7c-0.9,0-0.8,0-1.1,0.5l-1.9,4.1c-0.3,0.6-0.2,0.6,0.5,0.6c0.6,0,0.6,0,0.8-0.5l0.3-0.7h1.9
		l0.1,0.7c0.1,0.5,0.1,0.5,0.7,0.5c0.6,0,0.7,0,0.6-0.7L39.8,16.4z"/>
	<path id="path19" class="st0" d="M44.4,15.8h-3.3c-0.5,0-0.5,0-0.6,0.6s-0.1,0.6,0.3,0.6H42l-0.6,3.4C41.2,21,41.3,21,41.9,21
		c0.6,0,0.6,0,0.7-0.5l0.6-3.6h1c0.5,0,0.5,0,0.6-0.6C44.8,15.8,44.8,15.8,44.4,15.8"/>
	<path id="path23" class="st0" d="M48.5,16.8h-1.2c-0.1,0-0.2-0.1-0.2-0.2v-0.7c0-0.1,0.1-0.2,0.2-0.2h3.9c0.1,0,0.2,0.1,0.2,0.2
		v0.7c0,0.1-0.1,0.2-0.2,0.2h-1.2c0,0-0.1,0-0.1,0.1v3.8c0,0.1-0.1,0.2-0.2,0.2h-0.9c-0.1,0-0.2-0.1-0.2-0.2L48.5,16.8
		C48.6,16.9,48.6,16.8,48.5,16.8L48.5,16.8z"/>
	<path id="path25" class="st0" d="M50.5,19.8c0-0.7,0.5-1.1,1.6-1.2l1,0v0c0-0.5-0.3-0.6-0.8-0.6c-0.3,0-0.6,0.1-0.8,0.2
		c0,0-0.1,0-0.1,0c-0.1-0.1-0.4-0.4-0.5-0.5c-0.1-0.1-0.1-0.2,0-0.2c0.3-0.3,0.9-0.5,1.6-0.5c1.2,0,1.8,0.6,1.8,1.6v2.2
		c0,0.1-0.1,0.2-0.2,0.2h-0.8c-0.1,0-0.2-0.1-0.2-0.2v-0.2h0C52.9,20.8,52.5,21,52,21C51.2,21,50.5,20.6,50.5,19.8L50.5,19.8z
		 M53.1,19.5L53.1,19.5c0-0.1,0-0.1-0.1-0.1l-0.7,0c-0.4,0-0.6,0.1-0.6,0.4c0,0.3,0.3,0.4,0.6,0.4C52.8,20.2,53.1,19.9,53.1,19.5
		L53.1,19.5z"/>
	<path id="path27" class="st0" d="M55.7,20.9h-0.9c-0.1,0-0.2-0.1-0.2-0.2v-5.2c0-0.1,0.1-0.2,0.2-0.2h0.9c0.1,0,0.2,0.1,0.2,0.2
		v2.8c0,0.1,0.1,0.1,0.1,0.1l1.2-1.3c0,0,0.1,0,0.1,0h1c0.1,0,0.2,0.2,0.1,0.3l-1.3,1.4c0,0,0,0.1,0,0.1l1.4,1.9
		c0.1,0.1,0,0.3-0.1,0.3h-1c0,0-0.1,0-0.1-0.1l-0.9-1.2c-0.1-0.1-0.2-0.1-0.2,0l-0.3,0.3c0,0,0,0.1,0,0.1v0.7
		C55.9,20.8,55.8,20.9,55.7,20.9L55.7,20.9z"/>
	<path id="path29" class="st0" d="M58.4,19c0-1,0.6-2,2-2c1.4,0,2,1.1,2,2c0,0.1,0,0.2,0,0.3c0,0.1-0.1,0.1-0.2,0.1h-2.5
		c-0.1,0-0.1,0.1-0.1,0.1c0.2,0.3,0.5,0.5,0.9,0.5c0.3,0,0.6-0.1,0.8-0.2c0.1,0,0.1,0,0.2,0l0.5,0.5c0.1,0.1,0.1,0.2,0,0.2
		c-0.3,0.3-0.9,0.5-1.5,0.5C59,21,58.4,19.9,58.4,19L58.4,19z M59.6,18.6h1.4c0.1,0,0.1-0.1,0.1-0.1c-0.1-0.4-0.4-0.6-0.8-0.6
		c-0.4,0-0.7,0.2-0.8,0.6C59.5,18.5,59.6,18.6,59.6,18.6L59.6,18.6z"/>
	<path id="path31" class="st0" d="M66.4,17h1c0.1,0,0.1,0,0.2,0.1l0.7,2.3h0l0.7-2.3c0-0.1,0.1-0.1,0.2-0.1h1c0.1,0,0.1,0,0.1,0.1
		l0.7,2.3h0l0.7-2.3c0-0.1,0.1-0.1,0.2-0.1h1c0.1,0,0.2,0.1,0.1,0.2l-1.3,3.6c0,0.1-0.1,0.1-0.1,0.1h-1c-0.1,0-0.1,0-0.1-0.1l-0.7-2
		c0-0.1-0.1-0.1-0.1,0l-0.7,2c0,0.1-0.1,0.1-0.1,0.1h-1c-0.1,0-0.1,0-0.1-0.1l-1.3-3.6C66.2,17.1,66.3,17,66.4,17z"/>
	<path id="path33" class="st0" d="M77,22.3v-0.7c0-0.1,0.1-0.2,0.2-0.2c0.1,0,0.1,0,0.2,0c0.4,0,0.5-0.1,0.7-0.4c0,0,0-0.1,0-0.1
		l-1.4-3.6c0-0.1,0-0.2,0.1-0.2h0.9c0.1,0,0.1,0,0.1,0.1l0.8,2.4h0l0.8-2.4c0-0.1,0.1-0.1,0.1-0.1h0.9c0.1,0,0.2,0.1,0.1,0.2
		l-1.5,3.7c-0.4,1-0.8,1.5-1.8,1.5c-0.1,0-0.2,0-0.3,0C77,22.4,77,22.3,77,22.3L77,22.3z"/>
	<path id="path35" class="st0" d="M81,19c0-1,0.6-2,2-2c0.6,0,1,0.2,1.3,0.5c0.1,0.1,0.1,0.2,0,0.2l-0.2,0.2c-0.1,0.1-0.2,0.1-0.2,0
		c-0.2-0.2-0.6-0.3-0.9-0.3c-0.7,0-1.3,0.6-1.3,1.4c0,0.8,0.5,1.4,1.3,1.4c0.3,0,0.6-0.1,0.9-0.3c0.1,0,0.2,0,0.2,0l0.2,0.2
		c0.1,0.1,0.1,0.2,0,0.2C84,20.8,83.5,21,83,21C81.6,21,81,19.9,81,19z"/>
	<path id="path37" class="st0" d="M84.5,19c0-1,0.6-2,2-2s2,1.1,2,2c0,1-0.6,2-2,2C85.1,21,84.5,19.9,84.5,19z M86.5,20.4
		c0.8,0,1.3-0.6,1.3-1.4c0-0.8-0.6-1.4-1.3-1.4c-0.8,0-1.3,0.6-1.3,1.4C85.2,19.8,85.8,20.4,86.5,20.4z"/>
	<path id="path39" class="st0" d="M89,17h0.3c0.1,0,0.2,0.1,0.2,0.2v0.2h0c0.2-0.3,0.6-0.5,1.2-0.5c0.6,0,1,0.2,1.3,0.6
		c0,0,0.1,0,0.1,0c0.3-0.4,0.8-0.6,1.3-0.6c1,0,1.6,0.6,1.6,1.6v2.2c0,0.1-0.1,0.2-0.2,0.2h-0.4c-0.1,0-0.2-0.1-0.2-0.2v-2.1
		c0-0.7-0.4-1.2-1-1.2c-0.6,0-1,0.4-1,1.2v2.1c0,0.1-0.1,0.2-0.2,0.2h-0.4c-0.1,0-0.2-0.1-0.2-0.2v-2.1c0-0.7-0.4-1.2-1-1.2
		c-0.6,0-1,0.4-1,1.2v2.1c0,0.1-0.1,0.2-0.2,0.2H89c-0.1,0-0.2-0.1-0.2-0.2v-3.6C88.8,17.1,88.9,17,89,17L89,17z"/>
	<path id="path41" class="st0" d="M62.4,19.8c0-0.7,0.5-1.1,1.6-1.2l1,0v0c0-0.5-0.3-0.6-0.8-0.6c-0.3,0-0.6,0.1-0.8,0.2
		c0,0-0.1,0-0.1,0c-0.1-0.1-0.4-0.4-0.5-0.5c-0.1-0.1-0.1-0.2,0-0.2c0.3-0.3,0.9-0.5,1.6-0.5c1.2,0,1.8,0.6,1.8,1.6v2.2
		c0,0.1-0.1,0.2-0.2,0.2h-0.8c-0.1,0-0.2-0.1-0.2-0.2v-0.2h0c-0.2,0.3-0.7,0.5-1.2,0.5C63.1,21,62.4,20.6,62.4,19.8L62.4,19.8z
		 M65,19.5L65,19.5c0-0.1,0-0.1-0.1-0.1l-0.7,0c-0.4,0-0.6,0.1-0.6,0.4c0,0.3,0.3,0.4,0.6,0.4C64.7,20.2,65,19.9,65,19.5L65,19.5z"
		/>
	<path id="path43" class="st0" d="M72.8,19.8c0-0.7,0.5-1.1,1.6-1.2l1,0v0c0-0.5-0.3-0.6-0.8-0.6c-0.3,0-0.6,0.1-0.8,0.2
		c0,0-0.1,0-0.1,0c-0.1-0.1-0.4-0.4-0.5-0.5c-0.1-0.1-0.1-0.2,0-0.2c0.3-0.3,0.9-0.5,1.6-0.5c1.2,0,1.8,0.6,1.8,1.6v2.2
		c0,0.1-0.1,0.2-0.2,0.2h-0.8c-0.1,0-0.2-0.1-0.2-0.2v-0.2h0c-0.2,0.3-0.7,0.5-1.2,0.5C73.5,21,72.8,20.6,72.8,19.8L72.8,19.8z
		 M75.4,19.5L75.4,19.5c0-0.1,0-0.1-0.1-0.1l-0.7,0c-0.4,0-0.6,0.1-0.6,0.4c0,0.3,0.3,0.4,0.6,0.4C75.1,20.2,75.4,19.9,75.4,19.5
		L75.4,19.5z"/>
	<circle id="circle45" class="st0" cx="80.4" cy="20.5" r="0.5"/>
</g>
</svg>
