<?xml version="1.0" encoding="utf-8"?>
<!-- Generator: Adobe Illustrator 26.0.1, SVG Export Plug-In . SVG Version: 6.00 Build 0)  -->
<svg version="1.1" id="Layer_1" xmlns="http://www.w3.org/2000/svg" xmlns:xlink="http://www.w3.org/1999/xlink" x="0px" y="0px"
	 viewBox="0 0 95 35" style="enable-background:new 0 0 95 35;" xml:space="preserve">
<style type="text/css">
	.st0{fill-rule:evenodd;clip-rule:evenodd;fill:#343741;}
	.st1{fill:#343741;}
</style>
<g>
	<path class="st0" d="M59.8,16.6c-1.6,5-6.2,8.9-12.1,8.9c-6.2,0-10.4-3.9-12-8.8c1.7,4.6,6.5,8,12,8C53.4,24.6,58.1,21.3,59.8,16.6
		 M35.7,8.9c1.6-5,5.5-8.9,12.1-8.9c6.1,0,10.5,3.9,12.1,9c-1.7-4.7-6.5-8.1-12.1-8.1C42.2,0.9,37.4,4.2,35.7,8.9"/>
	<path class="st0" d="M48,7.7c0.1-0.1,0.3,0,0.5,0c0.2,0,0.2,0.3,0.5,0.3c0.3-0.1,0.3,0.3,0.8,0.3c0.4,0-0.1,0.2-0.1,0.2
		s-0.3-0.1-0.5,0c-0.1,0,0,0-0.1-0.2c-0.2-0.2-0.2,0-0.6-0.3C48.2,7.6,47.9,7.8,48,7.7 M50.2,16.6c0.2,0.1,0.4,0.2,0.5,0.5
		c0.2,0.6-0.1,0.1-0.1,1.1c0,0.9-0.2,0.7-0.2,0.7s-0.1,1-0.6,1.6c-0.3,0.3-0.1,0.6-0.1,0.6s-0.1,0.1-0.3,0.8
		c-0.1,0.2,0.3,0.6,0.5,0.5c0.2-0.1-0.5-0.1,0.3-0.4c0.3-0.1,0.1-0.3,0.1-0.3s0.5,0,0.8-0.8c0.5,0.1,0.3-0.2,1.3-0.4
		c0.3-0.1,0.3-0.1,0.3-0.4c0-0.2,0.3,0,1.3-1c0.8-0.8,0.5-1,1-1.2c0.6-0.3,0.6,0,0.8-0.2c0.4-0.6,0.3-0.5,0.5-0.9l0.1-0.2L50.2,16.6
		z M44.7,8.3c-0.2-0.4-0.2-1,0.2-1.6c0.2-0.4,0.8-0.5,1.3-0.3c0.6-0.4,0.7,0,1.2-0.2c0.7-0.3,0.3,0.7,0.9,1c0.3-0.7-0.6-1.2-0.1-1.5
		c0.4-0.2,0.7-0.4,0.8-0.7c0.2-0.4,0.3-0.8,0.5-0.8C50,4,50,3.6,50,3.6s0.4,0.1,0.8-0.2c-0.3-0.1-0.6-0.3-0.5-0.5
		c0.1-0.3,1,0.3,1.2-0.2c-0.5-0.2-1-0.7-1.3-0.8c-0.2,0.2-0.3,0.1-0.6-0.1c-0.5-0.4-0.5,0-0.8-0.3C48.4,2,48.8,2,48.9,2.1
		c0.3,0.3-0.3-0.3-0.2,0.5c0,0.2-0.3,0.3-0.5-0.2C48,2.1,47,2.2,46.8,2c0.1-0.3,1.3-1.2,3.1-1c-2.6-1-6.1,0.1-6.2,0.5
		c-0.4,0.2-0.2,0.5-0.4,0.5c-0.3,0.1-0.6,1-0.6,1s0.2,0.1-0.4,0.8c-0.5,0.5-0.6,1.4-0.6,1.4s0.3,0.6,0.3,1.2c0,0.5-0.1,0.1,0.2,0.5
		c0.1,0.2,0.3,1,0.4,0.7c0.2-0.6-0.3-1.1-0.2-1.6c0,0.1,0.2-0.2,0.2,0c0,0.7,0.9,2,0.9,2s-0.3,0.3,0,0.3L44.7,8.3z"/>
	<path class="st1" d="M26,10.1h-2l0.3,0.3v2.6c0,0.6-0.4,0.8-1,0.8c-0.6,0-1-0.2-1-0.8v-2.6l0.3-0.3h-2l0.3,0.3v2.6
		c0,1.3,0.7,1.8,2.4,1.8c1.6,0,2.4-0.5,2.4-1.8v-2.6L26,10.1z"/>
	<polygon class="st1" points="32.9,10.1 31.2,10.1 31.5,10.5 31.5,12.8 29.1,10.1 27.6,10.1 27.9,10.5 27.9,14.4 27.6,14.8 
		29.3,14.8 29,14.4 29,12.1 31.5,14.8 32.6,14.8 32.6,10.5 	"/>
	<polygon class="st1" points="36.8,14.8 36.5,14.4 36.5,10.5 36.8,10.1 34.8,10.1 35,10.5 35,14.4 34.8,14.8 	"/>
	<polygon class="st1" points="43.3,10.1 41.7,10.1 42,10.5 40.8,13 39.6,10.5 39.9,10.1 37.9,10.1 40.1,14.8 41.1,14.8 	"/>
	<polygon class="st1" points="49,14.8 49,13.5 48.6,13.8 46.2,13.8 46.2,12.9 47.7,12.9 48.1,13.2 48.1,11.7 47.7,12 46.2,12 
		46.2,11.1 48.6,11.1 49,11.4 49,10.1 44.5,10.1 44.8,10.5 44.8,14.4 44.5,14.8 	"/>
	<path class="st0" d="M55.7,14.8L54.4,13c0.6-0.3,1.1-0.7,1.1-1.4c0-0.8-0.5-1.4-1.8-1.4h-2.9l0.3,0.3v3.9l-0.3,0.3h2l-0.3-0.3v-1.3
		H53l0.9,1.3l-0.3,0.3L55.7,14.8L55.7,14.8z M54.1,11.6c0,0.3-0.3,0.6-0.8,0.6h-0.9v-1.1h1.1C53.8,11.1,54.1,11.3,54.1,11.6"/>
	<path class="st1" d="M61.7,13.4c0-0.7-0.6-1.1-1.5-1.4c-0.6-0.2-1.4-0.3-1.4-0.7c0-0.2,0.2-0.3,0.6-0.3c0.5,0,1.3,0.2,2,0.5V10
		l-0.4,0.4C60.7,10.2,60,10,59.5,10c-1.6,0-2.1,0.7-2.1,1.3c0,0.9,0.6,1.2,1.5,1.6c0.7,0.2,1.3,0.3,1.3,0.6c0,0.3-0.4,0.4-0.6,0.4
		c-0.5,0-1.4-0.2-2.2-0.7v1.7l0.4-0.4c0.4,0.1,1.2,0.4,1.9,0.4C61.1,14.9,61.7,14.3,61.7,13.4"/>
	<path class="st0" d="M68.7,14.8l-2.3-4.6h-1.6l0.2,0.3l-2.1,4.3h1.7l-0.3-0.3l0.2-0.5h2.2l0.2,0.5l-0.3,0.3H68.7z M66.5,13.1h-1.6
		l0.8-1.7L66.5,13.1z"/>
	<polygon class="st1" points="74.3,14.8 74.3,13.5 74,13.8 71.7,13.8 71.7,10.5 72,10.1 70,10.1 70.3,10.5 70.3,14.4 70,14.8 	"/>
	<path class="st1" d="M73.1,10.8c0,0.3,0.3,0.6,0.6,0.6c0.3,0,0.6-0.3,0.6-0.6c0-0.3-0.3-0.6-0.6-0.6C73.3,10.2,73.1,10.5,73.1,10.8
		 M73,10.8c0-0.4,0.3-0.6,0.7-0.6c0.4,0,0.7,0.3,0.7,0.6c0,0.4-0.3,0.6-0.7,0.6C73.3,11.4,73,11.1,73,10.8"/>
	<path class="st0" d="M73.9,10.5c-0.1-0.1-0.1-0.1-0.2-0.1c-0.2,0-0.3,0.1-0.3,0.3c0,0.2,0.1,0.3,0.3,0.3c0.1,0,0.2,0,0.2-0.1v-0.1
		c-0.1,0.1-0.1,0.1-0.2,0.1c-0.2,0-0.3-0.1-0.3-0.3c0-0.1,0.1-0.3,0.3-0.3C73.8,10.5,73.8,10.5,73.9,10.5L73.9,10.5L73.9,10.5z"/>
	<g>
		<path class="st1" d="M3.9,31.8L3.7,32v1.8c0,0.2,0,0.4-0.1,0.6c-0.1,0.2-0.2,0.3-0.3,0.4c-0.1,0.1-0.3,0.2-0.5,0.2
			c-0.2,0-0.4,0.1-0.7,0.1c-0.3,0-0.5,0-0.7-0.1c-0.2,0-0.4-0.1-0.5-0.2c-0.1-0.1-0.2-0.2-0.3-0.4c-0.1-0.2-0.1-0.3-0.1-0.6V32
			l-0.2-0.2h1.4L1.4,32v1.7c0,0.2,0.1,0.3,0.2,0.4c0.1,0.1,0.3,0.1,0.5,0.1s0.4,0,0.5-0.1c0.1-0.1,0.2-0.2,0.2-0.4V32l-0.2-0.2
			L3.9,31.8L3.9,31.8z"/>
		<path class="st1" d="M9.2,31.8L9,32v2.9H8.3l-1.8-1.8v1.6l0.2,0.2H5.5l0.2-0.2V32l-0.2-0.2h1l1.7,1.8V32L8,31.8H9.2z"/>
		<path class="st1" d="M12.4,34.9H11l0.2-0.2V32L11,31.8h1.4L12.1,32v2.7L12.4,34.9z"/>
		<path class="st1" d="M17.4,31.8l-1.5,3.1h-0.7l-1.5-3.1h1.4L14.9,32l0.8,1.7l0.8-1.7l-0.2-0.2H17.4z"/>
		<path class="st1" d="M21.8,34.9h-3.1l0.2-0.2V32l-0.2-0.2h3.1v0.9l-0.2-0.2h-1.7V33h1.1l0.2-0.2v1l-0.2-0.2h-1.1v0.6h1.7l0.2-0.2
			V34.9L21.8,34.9z"/>
		<path class="st1" d="M27,34.9h-1.4l0.2-0.2l-0.6-0.9h-0.4v0.9l0.2,0.2h-1.4l0.2-0.2V32l-0.2-0.2h2c0.4,0,0.8,0.1,1,0.3
			c0.2,0.2,0.3,0.4,0.3,0.7c0,0.2-0.1,0.4-0.2,0.6c-0.1,0.2-0.3,0.3-0.5,0.4L27,34.9z M25.8,32.8c0-0.1,0-0.2-0.1-0.2
			c0-0.1-0.1-0.1-0.2-0.1c-0.1,0-0.1,0-0.2,0h-0.7v0.8h0.6c0.2,0,0.3,0,0.4-0.1C25.8,33,25.8,32.9,25.8,32.8z"/>
		<path class="st1" d="M31.6,34c0,0.2,0,0.3-0.1,0.4c-0.1,0.1-0.1,0.2-0.3,0.3c-0.1,0.1-0.3,0.2-0.4,0.2c-0.2,0-0.4,0.1-0.6,0.1
			c-0.1,0-0.3,0-0.5,0c-0.2,0-0.3-0.1-0.5-0.1c-0.2,0-0.3-0.1-0.3-0.1L28.6,35v-1.2c0.2,0.2,0.5,0.3,0.8,0.3
			c0.3,0.1,0.5,0.1,0.7,0.1c0.1,0,0.2,0,0.3-0.1c0.1,0,0.1-0.1,0.1-0.2c0-0.1,0-0.1-0.1-0.2c-0.1,0-0.2-0.1-0.4-0.1
			c-0.2-0.1-0.3-0.1-0.4-0.1c-0.3-0.1-0.6-0.3-0.8-0.4c-0.2-0.2-0.3-0.4-0.3-0.6c0-0.2,0-0.3,0.1-0.4s0.3-0.2,0.5-0.3
			c0.2-0.1,0.5-0.1,0.8-0.1c0.1,0,0.2,0,0.3,0c0.1,0,0.2,0,0.3,0.1c0.1,0,0.2,0,0.3,0.1c0.1,0,0.2,0.1,0.2,0.1l0.3-0.2v1.1
			c-0.2-0.1-0.3-0.1-0.5-0.2c-0.2-0.1-0.3-0.1-0.5-0.1c-0.2,0-0.3,0-0.4,0c-0.1,0-0.2,0-0.3,0.1c-0.1,0-0.1,0.1-0.1,0.1
			c0,0.1,0,0.1,0.1,0.2c0.1,0,0.1,0.1,0.2,0.1c0.1,0,0.2,0.1,0.3,0.1c0.1,0,0.2,0.1,0.3,0.1c0.3,0.1,0.6,0.2,0.8,0.4
			C31.5,33.5,31.6,33.7,31.6,34z"/>
		<path class="st1" d="M37,34.9h-1.4l0.2-0.2l-0.2-0.3h-1.6l-0.2,0.3l0.2,0.2h-1.2l1.4-2.9l-0.1-0.2h1.1L37,34.9z M35.4,33.8
			l-0.5-1.1l-0.5,1.1H35.4z"/>
		<path class="st1" d="M41.3,34.9h-3l0.2-0.2V32l-0.2-0.2h1.4L39.5,32v2.3h1.6l0.2-0.2L41.3,34.9L41.3,34.9z"/>
		<path class="st1" d="M49.5,34.9h-1.3l0.2-0.2v-1.5l-0.9,1.7H47l-1-1.8v1.5l0.2,0.2h-1.1l0.2-0.2V32l-0.2-0.2h1.1l1.1,1.9l1-1.9
			h1.2L49.3,32v2.7L49.5,34.9z"/>
		<path class="st1" d="M54.7,31.8L54.5,32v1.8c0,0.2,0,0.4-0.1,0.6c-0.1,0.2-0.2,0.3-0.3,0.4c-0.1,0.1-0.3,0.2-0.5,0.2
			c-0.2,0-0.4,0.1-0.7,0.1c-0.3,0-0.5,0-0.7-0.1c-0.2,0-0.4-0.1-0.5-0.2c-0.1-0.1-0.2-0.2-0.3-0.4c-0.1-0.2-0.1-0.3-0.1-0.6V32
			l-0.2-0.2h1.4L52.2,32v1.7c0,0.2,0.1,0.3,0.2,0.4c0.1,0.1,0.3,0.1,0.5,0.1c0.2,0,0.4,0,0.5-0.1c0.1-0.1,0.2-0.2,0.2-0.4V32
			l-0.2-0.2L54.7,31.8L54.7,31.8z"/>
		<path class="st1" d="M59.3,34c0,0.2,0,0.3-0.1,0.4c-0.1,0.1-0.1,0.2-0.3,0.3c-0.1,0.1-0.3,0.2-0.4,0.2c-0.2,0-0.4,0.1-0.6,0.1
			c-0.1,0-0.3,0-0.5,0c-0.2,0-0.3-0.1-0.5-0.1c-0.2,0-0.3-0.1-0.3-0.1L56.3,35v-1.2c0.2,0.2,0.5,0.3,0.8,0.3
			c0.3,0.1,0.5,0.1,0.7,0.1c0.1,0,0.2,0,0.3-0.1c0.1,0,0.1-0.1,0.1-0.2c0-0.1,0-0.1-0.1-0.2c-0.1,0-0.2-0.1-0.4-0.1
			c-0.2-0.1-0.3-0.1-0.4-0.1c-0.3-0.1-0.6-0.3-0.8-0.4c-0.2-0.2-0.3-0.4-0.3-0.6c0-0.2,0-0.3,0.1-0.4c0.1-0.1,0.3-0.2,0.5-0.3
			c0.2-0.1,0.5-0.1,0.8-0.1c0.1,0,0.2,0,0.3,0c0.1,0,0.2,0,0.3,0.1c0.1,0,0.2,0,0.3,0.1c0.1,0,0.2,0.1,0.2,0.1l0.3-0.2v1.1
			c-0.2-0.1-0.3-0.1-0.5-0.2c-0.2-0.1-0.3-0.1-0.5-0.1c-0.2,0-0.3,0-0.4,0c-0.1,0-0.2,0-0.3,0.1c-0.1,0-0.1,0.1-0.1,0.1
			c0,0.1,0,0.1,0.1,0.2c0.1,0,0.1,0.1,0.2,0.1c0.1,0,0.2,0.1,0.3,0.1c0.1,0,0.2,0.1,0.3,0.1c0.3,0.1,0.6,0.2,0.8,0.4
			C59.2,33.5,59.3,33.7,59.3,34z"/>
		<path class="st1" d="M62.4,34.9H61l0.2-0.2V32L61,31.8h1.4L62.2,32v2.7L62.4,34.9z"/>
		<path class="st1" d="M67.1,34.7c-0.1,0-0.1,0.1-0.2,0.1c-0.1,0-0.2,0.1-0.3,0.1c-0.1,0-0.2,0-0.4,0.1c-0.1,0-0.3,0-0.4,0
			c-0.3,0-0.5,0-0.7-0.1c-0.2-0.1-0.4-0.2-0.6-0.3c-0.2-0.1-0.3-0.3-0.4-0.5C64,33.8,64,33.6,64,33.3c0-0.2,0-0.4,0.1-0.6
			c0.1-0.2,0.2-0.4,0.4-0.5c0.2-0.1,0.4-0.3,0.6-0.3c0.2-0.1,0.5-0.1,0.8-0.1c0.1,0,0.2,0,0.4,0c0.1,0,0.2,0,0.3,0.1
			c0.1,0,0.2,0.1,0.3,0.1l0.2-0.2v1c-0.1-0.1-0.2-0.1-0.4-0.2c-0.1,0-0.3-0.1-0.4-0.1c-0.1,0-0.3,0-0.4,0c-0.3,0-0.6,0.1-0.7,0.3
			C65.1,32.8,65,33,65,33.3c0,0.2,0,0.4,0.1,0.5c0.1,0.1,0.2,0.3,0.3,0.3c0.2,0.1,0.3,0.1,0.5,0.1c0.2,0,0.3,0,0.5-0.1
			c0.1,0,0.3-0.1,0.4-0.1c0.1,0,0.2-0.1,0.3-0.2L67.1,34.7L67.1,34.7z"/>
		<path class="st1" d="M73.5,33.6l-0.2-0.2h1.2v1.3c-0.1,0-0.2,0.1-0.3,0.1c-0.1,0-0.2,0.1-0.4,0.1c-0.1,0-0.3,0.1-0.4,0.1
			c-0.1,0-0.3,0-0.4,0c-0.3,0-0.7-0.1-1-0.2c-0.3-0.1-0.5-0.3-0.7-0.5C71.1,34,71,33.7,71,33.3c0-0.4,0.1-0.7,0.3-0.9
			c0.2-0.2,0.4-0.4,0.7-0.5c0.3-0.1,0.6-0.2,0.9-0.2c0.2,0,0.4,0,0.6,0.1c0.1,0,0.3,0.1,0.5,0.1l0.3-0.2v1.1
			c-0.2-0.1-0.4-0.2-0.6-0.3c-0.2-0.1-0.4-0.1-0.7-0.1c-0.1,0-0.3,0-0.4,0.1c-0.1,0-0.2,0.1-0.3,0.2c-0.1,0.1-0.1,0.2-0.2,0.3
			c0,0.1-0.1,0.2-0.1,0.4c0,0.3,0.1,0.5,0.3,0.7c0.2,0.2,0.4,0.3,0.7,0.3c0.1,0,0.3,0,0.5-0.1V33.6z"/>
		<path class="st1" d="M79.5,34.9H78l0.2-0.2l-0.6-0.9h-0.4v0.9l0.2,0.2H76l0.2-0.2V32L76,31.8h2c0.4,0,0.8,0.1,1,0.3
			c0.2,0.2,0.3,0.4,0.3,0.7c0,0.2-0.1,0.4-0.2,0.6c-0.1,0.2-0.3,0.3-0.5,0.4L79.5,34.9z M78.3,32.8c0-0.1,0-0.2-0.1-0.2
			c0-0.1-0.1-0.1-0.2-0.1c-0.1,0-0.1,0-0.2,0h-0.7v0.8h0.6c0.2,0,0.3,0,0.4-0.1C78.3,33,78.3,32.9,78.3,32.8z"/>
		<path class="st1" d="M84.7,33.3c0,0.4-0.1,0.7-0.3,0.9c-0.2,0.2-0.4,0.4-0.7,0.5c-0.3,0.1-0.6,0.2-0.9,0.2c-0.3,0-0.6-0.1-0.9-0.2
			c-0.3-0.1-0.5-0.3-0.7-0.5C81.1,34,81,33.7,81,33.3c0-0.3,0.1-0.5,0.2-0.7c0.1-0.2,0.2-0.4,0.4-0.5c0.2-0.1,0.4-0.2,0.6-0.3
			c0.2-0.1,0.5-0.1,0.7-0.1c0.2,0,0.5,0,0.7,0.1c0.2,0.1,0.4,0.2,0.6,0.3c0.2,0.1,0.3,0.3,0.4,0.5C84.7,32.8,84.7,33,84.7,33.3z
			 M83.7,33.3c0-0.3-0.1-0.5-0.2-0.7c-0.1-0.2-0.4-0.3-0.6-0.3c-0.2,0-0.4,0-0.5,0.1c-0.1,0.1-0.2,0.2-0.3,0.3
			C82,33,82,33.1,82,33.3c0,0.1,0,0.3,0,0.4c0,0.1,0.1,0.2,0.2,0.3c0.1,0.1,0.2,0.2,0.3,0.2c0.1,0,0.2,0.1,0.4,0.1
			c0.1,0,0.3,0,0.4-0.1c0.1,0,0.2-0.1,0.3-0.2s0.1-0.2,0.2-0.3C83.7,33.6,83.7,33.5,83.7,33.3z"/>
		<path class="st1" d="M89.8,31.8L89.6,32v1.8c0,0.2,0,0.4-0.1,0.6c-0.1,0.2-0.2,0.3-0.3,0.4c-0.1,0.1-0.3,0.2-0.5,0.2
			c-0.2,0-0.4,0.1-0.7,0.1c-0.3,0-0.5,0-0.7-0.1c-0.2,0-0.4-0.1-0.5-0.2c-0.1-0.1-0.2-0.2-0.3-0.4c-0.1-0.2-0.1-0.3-0.1-0.6V32
			l-0.2-0.2h1.4L87.3,32v1.7c0,0.2,0.1,0.3,0.2,0.4c0.1,0.1,0.3,0.1,0.5,0.1c0.2,0,0.4,0,0.5-0.1c0.1-0.1,0.2-0.2,0.2-0.4V32
			l-0.2-0.2L89.8,31.8L89.8,31.8z"/>
		<path class="st1" d="M94.7,32.8c0,0.5-0.1,0.8-0.4,0.9C94,33.9,93.6,34,93.2,34h-0.6v0.7l0.2,0.2h-1.4l0.2-0.2V32l-0.2-0.2h1.8
			c0.3,0,0.5,0,0.7,0.1c0.2,0.1,0.4,0.2,0.6,0.3C94.7,32.3,94.7,32.5,94.7,32.8z M93.7,32.9c0-0.2-0.1-0.3-0.2-0.3
			c-0.1-0.1-0.2-0.1-0.4-0.1h-0.5v0.9h0.5c0.2,0,0.4,0,0.5-0.1C93.7,33.2,93.7,33,93.7,32.9z"/>
	</g>
</g>
</svg>
