<?xml version="1.0" encoding="utf-8"?>
<!-- Generator: Adobe Illustrator 26.0.1, SVG Export Plug-In . SVG Version: 6.00 Build 0)  -->
<svg version="1.1" id="Layer_1" xmlns="http://www.w3.org/2000/svg" xmlns:xlink="http://www.w3.org/1999/xlink" x="0px" y="0px"
	 viewBox="0 0 95 35" style="enable-background:new 0 0 95 35;" xml:space="preserve">
<style type="text/css">
	.st0{fill:#FFFFFF;}
</style>
<g>
	<path class="st0" d="M0,28.2v-4.9h0.6v4.8c0,0.6,0.4,0.9,0.8,0.9c0.6,0,0.8-0.4,0.8-0.9v-4.9h0.6v4.8c0,0.9-0.5,1.4-1.4,1.4
		C0.6,29.6,0,29.1,0,28.2"/>
	<polygon class="st0" points="4.5,23.3 5.2,23.3 6.8,27.9 6.8,27.9 6.8,23.3 7.4,23.3 7.4,29.5 6.8,29.5 5.1,24.5 5.1,24.5 
		5.1,29.5 4.5,29.5 	"/>
	<rect x="9.1" y="23.3" class="st0" width="0.6" height="6.2"/>
	<path class="st0" d="M11.5,23.3h1.4c0.9,0,1.2,0.6,1.2,1.5c0,0.8-0.3,1.3-0.8,1.4v0c0.6,0.1,0.9,0.7,0.9,1.5c0,1.3-0.5,1.7-1.2,1.7
		h-1.4L11.5,23.3L11.5,23.3z M12.7,26.1c0.5,0,0.8-0.3,0.8-1.2c0-0.8-0.3-1.1-0.7-1.1h-0.7v2.3H12.7z M12.8,29
		c0.5,0,0.8-0.4,0.8-1.3c0-0.8-0.4-1.2-0.9-1.2h-0.6V29L12.8,29L12.8,29z"/>
	<path class="st0" d="M16.7,23.3h0.8l1.3,6.2h-0.6l-0.4-2h-1.4l-0.4,2h-0.5L16.7,23.3z M17.6,27L17,24h0L16.4,27H17.6z"/>
	<rect x="20.2" y="23.3" class="st0" width="0.6" height="6.2"/>
	<polygon class="st0" points="22.5,23.3 23.1,23.3 23.1,29 24.8,29 24.8,29.5 22.5,29.5 	"/>
	<rect x="25.7" y="26.7" class="st0" width="1.5" height="0.5"/>
	<path class="st0" d="M28.7,23.3h1.3c1,0,1.4,0.6,1.4,1.7c0,0.9-0.3,1.5-0.9,1.6l0.9,2.9h-0.6l-0.9-2.8h-0.7v2.8h-0.6V23.3z
		 M29.9,26.3c0.6,0,0.8-0.5,0.8-1.2c0-0.6-0.2-1.2-0.9-1.2h-0.6v2.5H29.9z"/>
	<path class="st0" d="M32.8,28.1v-3.5c0-0.9,0.6-1.4,1.5-1.4c0.8,0,1.4,0.4,1.4,1.3v3.6c0,1-0.6,1.5-1.5,1.5
		C33.4,29.6,32.8,29.1,32.8,28.1 M35.1,28.1v-3.6c0-0.5-0.3-0.8-0.9-0.8c-0.6,0-0.8,0.4-0.8,0.9v3.6c0,0.5,0.3,0.9,0.9,0.9
		C34.9,29.1,35.1,28.6,35.1,28.1"/>
	<path class="st0" d="M37.4,23.3h1.4c0.8,0,1.4,0.4,1.4,1.3v3.6c0,0.9-0.6,1.4-1.4,1.4h-1.4V23.3z M38.7,29c0.6,0,0.8-0.5,0.8-0.9
		v-3.5c0-0.4-0.3-0.8-0.8-0.8H38V29H38.7z"/>
	<path class="st0" d="M42.7,23.3h0.8l1.3,6.2h-0.6l-0.4-2h-1.4l-0.4,2h-0.5L42.7,23.3z M43.6,27L43,24h0L42.4,27H43.6z"/>
	<polygon class="st0" points="46.2,23.3 46.9,23.3 47.9,26 47.9,26 48.9,23.3 49.6,23.3 49.6,29.5 49,29.5 49,24.4 49,24.4 48.1,27 
		47.7,27 46.7,24.5 46.7,24.5 46.7,29.5 46.2,29.5 	"/>
	<path class="st0" d="M51.2,28.2v-3.7c0-0.8,0.6-1.4,1.4-1.4c0.9,0,1.3,0.5,1.3,1.2v0.7h-0.5v-0.6c0-0.5-0.3-0.8-0.8-0.8
		c-0.6,0-0.8,0.4-0.8,0.9v3.5c0,0.6,0.3,0.9,0.9,0.9c0.5,0,0.8-0.3,0.8-0.8v-0.6H54v0.6c0,0.8-0.5,1.3-1.3,1.3
		C51.8,29.6,51.2,29.1,51.2,28.2"/>
	<path class="st0" d="M55.5,28.1v-3.5c0-0.9,0.6-1.4,1.5-1.4c0.8,0,1.4,0.4,1.4,1.3v3.6c0,1-0.6,1.5-1.5,1.5
		C56.1,29.6,55.5,29.1,55.5,28.1 M57.8,28.1v-3.6c0-0.5-0.3-0.8-0.9-0.8c-0.6,0-0.8,0.4-0.8,0.9v3.6c0,0.5,0.3,0.9,0.9,0.9
		C57.6,29.1,57.8,28.6,57.8,28.1"/>
	<rect x="59.8" y="26.7" class="st0" width="1.5" height="0.5"/>
	<polygon class="st0" points="62.3,23.3 62.8,23.3 63.4,28 63.4,28 64.2,23.3 64.8,23.3 65.5,28 65.5,28 66.1,23.3 66.6,23.3 
		65.8,29.5 65.2,29.5 64.5,24.6 64.4,24.6 63.7,29.5 63.1,29.5 	"/>
	<polygon class="st0" points="68.1,23.3 70.4,23.3 70.4,23.8 68.7,23.8 68.7,26 70.1,26 70.1,26.5 68.7,26.5 68.7,29 70.4,29 
		70.4,29.5 68.1,29.5 	"/>
	<path class="st0" d="M71.3,28.1l0.6,0c0.1,0.6,0.3,1,0.8,1c0.6,0,0.7-0.5,0.7-0.9c0-0.4-0.2-0.8-0.5-1.2L72.1,26
		c-0.4-0.5-0.7-0.9-0.7-1.5c0-0.8,0.4-1.3,1.3-1.3c0.7,0,1.2,0.4,1.2,1.4l-0.5,0c-0.1-0.6-0.3-0.9-0.7-0.9c-0.4,0-0.7,0.3-0.7,0.8
		c0,0.4,0.3,0.8,0.6,1.2l0.7,0.8c0.5,0.5,0.7,1,0.7,1.7c0,0.9-0.5,1.5-1.3,1.5C71.9,29.6,71.4,29.1,71.3,28.1"/>
	<polygon class="st0" points="76,23.8 74.8,23.8 74.8,23.3 77.7,23.3 77.7,23.8 76.6,23.8 76.6,29.5 76,29.5 	"/>
	<polygon class="st0" points="79.1,23.3 81.4,23.3 81.4,23.8 79.7,23.8 79.7,26 81.1,26 81.1,26.5 79.7,26.5 79.7,29.5 79.1,29.5 	
		"/>
	<rect x="82.8" y="23.3" class="st0" width="0.6" height="6.2"/>
	<polygon class="st0" points="85.1,23.3 87.4,23.3 87.4,23.8 85.7,23.8 85.7,26 87.1,26 87.1,26.5 85.7,26.5 85.7,29 87.4,29 
		87.4,29.5 85.1,29.5 	"/>
	<polygon class="st0" points="89,23.3 89.6,23.3 89.6,29 91.3,29 91.3,29.5 89,29.5 	"/>
	<path class="st0" d="M92.2,23.3h1.4c0.8,0,1.4,0.4,1.4,1.3v3.6c0,0.9-0.6,1.4-1.4,1.4h-1.4V23.3z M93.6,29c0.6,0,0.8-0.5,0.8-0.9
		v-3.5c0-0.4-0.3-0.8-0.8-0.8h-0.7V29H93.6z"/>
	<path class="st0" d="M55.9,8.6c-0.3-1.8-0.5-3.2-0.5-3.2l-4.7,1.9l0,0l0.1,0.3c0,0,1.2-0.5,1.6,0c0,0.1,0.1,0.1,0.2,0.3
		c0.1,0.3,0.3,1.1,0.6,2.7c0.1,0.3-0.1,0.6-0.1,0.7c0,0,0,0,0,0l-2.1,2.1c-0.1-0.5-0.1-0.4,0,0l0,0c-0.5-3.1-1.3-8-1.3-8l-4.7,1.9
		L45,7.7c0,0,1.2-0.5,1.6,0c0,0.1,0.1,0.1,0.2,0.3c0.1,0.3,0.3,1.1,0.6,2.7c0.1,0.5-0.2,0.7-0.2,0.7L45,13.5c-0.5-3.1-1.3-8-1.3-8
		l-4.7,1.9l0.1,0.3c0,0,1.2-0.5,1.6,0c0.2,0.2,0.3,0.1,1.9,9.4v0c0,0.2,0.1,1.3-1.1,2.3l0.4,0.4c0,0,3.7-2.5,3.4-5.1
		c0-0.1,0-0.1,0-0.2l2.4-2.4c0.2,1.2,0.5,2.8,0.8,4.8v0c0,0.2,0.1,1.3-1.1,2.3l0.4,0.4c0,0,3.7-2.5,3.4-5.1c0-0.1,0-0.1,0-0.2l0,0
		l2.4-2.4l1.9-1.9C55.3,10.4,56,9.6,55.9,8.6"/>
</g>
</svg>
