<?xml version="1.0" encoding="utf-8"?>
<!-- Generator: Adobe Illustrator 26.0.1, SVG Export Plug-In . SVG Version: 6.00 Build 0)  -->
<svg version="1.1" id="Layer_1" xmlns="http://www.w3.org/2000/svg" xmlns:xlink="http://www.w3.org/1999/xlink" x="0px" y="0px"
	 viewBox="0 0 95 35" style="enable-background:new 0 0 95 35;" xml:space="preserve">
<style type="text/css">
	.st0{fill:#CCCCCC;}
</style>
<path id="path2750" class="st0" d="M27.6,22.9h-0.7l-1.6-4.4c-0.1-0.4-0.3-0.8-0.4-1.3h0c-0.2,0.5-0.3,0.9-0.4,1.3l-1.6,4.4h-0.7
	l-2.9-8.5h1l1.9,5.7c0.2,0.5,0.3,0.9,0.4,1.3h0c0.1-0.4,0.3-0.8,0.4-1.3l1.5-4l-0.6-1.7h1l1.9,5.6c0.2,0.5,0.3,0.9,0.4,1.3h0
	c0.1-0.4,0.2-0.8,0.4-1.3l1.8-5.6h1L27.6,22.9"/>
<path id="path2754" class="st0" d="M33.2,17.4c-1.1,0-1.8,0.9-1.8,2.4c0,1.4,0.7,2.4,1.8,2.4c1.1,0,1.8-1,1.8-2.4
	C35.1,18.3,34.4,17.4,33.2,17.4z M35.1,22.2C34.7,22.7,34,23,33.2,23c-0.8,0-1.4-0.3-1.9-0.7c-0.6-0.6-0.8-1.4-0.8-2.4
	c0-1,0.3-1.8,0.8-2.4c0.5-0.5,1.1-0.8,1.9-0.8c0.8,0,1.4,0.3,1.9,0.8c0.5,0.6,0.8,1.4,0.8,2.4C36,20.8,35.7,21.6,35.1,22.2"/>
<path id="path2758" class="st0" d="M38.3,23c-0.7,0-1.1-0.5-1.1-1.1v-8.1h0.9v7.7c0,0.6,0.1,0.7,0.5,0.7c0.1,0,0.2,0,0.3,0l0.1,0.7
	C38.8,22.9,38.6,23,38.3,23"/>
<path id="path2762" class="st0" d="M41.7,23c-0.9,0-1.3-0.5-1.3-1.3v-4.1h-1v-0.8h1v-1.3l0.9-0.3v1.7h1.9l-0.3,0.8h-1.5v3.8
	c0,0.5,0.2,0.7,0.6,0.7c0.4,0,0.8-0.2,1.1-0.4l0.3,0.7C42.9,22.7,42.3,23,41.7,23"/>
<path id="path2766" class="st0" d="M46.1,17.4c-0.9,0-1.5,0.8-1.5,1.8h2.9C47.5,18.3,47.1,17.4,46.1,17.4z M44.6,20
	c0,1.2,0.7,2.2,2,2.2c0.5,0,1.1-0.2,1.4-0.4l0.3,0.6C48,22.7,47.2,23,46.5,23c-1.9,0-2.8-1.6-2.8-3.3c0-1.8,1-3.1,2.5-3.1
	c1.6,0,2.4,1.2,2.4,3.1c0,0.1,0,0.1,0,0.2H44.6"/>
<path id="path2770" class="st0" d="M52.8,17.7c-0.1-0.1-0.3-0.1-0.6-0.1c-0.4,0-1,0.3-1.3,0.7v4.5H50v-6.1h0.8l0.1,0.7
	c0.8-0.8,1.3-0.8,1.7-0.8c0.3,0,0.5,0.1,0.6,0.2L52.8,17.7"/>
<path id="path2774" class="st0" d="M55.2,23c-0.9,0-1.4-0.2-1.8-0.5l0.4-0.7c0.3,0.2,0.8,0.4,1.5,0.4c0.7,0,1.3-0.3,1.3-0.9
	c0-1.5-2.8-1-2.8-3.1c0-0.9,0.6-1.6,2-1.6c0.6,0,1.1,0.1,1.5,0.3v0.8c-0.4-0.2-0.9-0.4-1.5-0.4c-0.6,0-1.1,0.2-1.1,0.8
	c0,1.4,2.8,1,2.8,3C57.5,22.4,56.4,23,55.2,23"/>
<path id="path2778" class="st0" d="M65.8,22.8L62.4,19h0v3.8h-0.9v-8.5h0.9v3.9h0l3.1-3.9h1.2l-3.5,4.2l3.8,4.3H65.8"/>
<path id="path2782" class="st0" d="M69,23c-0.7,0-1.1-0.5-1.1-1.1v-8.1h0.9v7.7c0,0.6,0.1,0.7,0.5,0.7c0.1,0,0.2,0,0.3,0l0.1,0.7
	C69.5,22.9,69.3,23,69,23"/>
<path id="path2786" class="st0" d="M74.8,22.8l-0.2-0.6c-0.4,0.4-1.2,0.8-2,0.8c-0.8,0-1.8-0.4-1.8-2.1v-4.1h0.9v4
	c0,1,0.4,1.4,1.2,1.4c0.8,0,1.4-0.5,1.6-0.8v-4.6h0.9v3.5c0,1.9,0,2.3,0.1,2.5H74.8"/>
<path id="path2790" class="st0" d="M83.1,22.9h-0.8L80.8,18h0l-1.5,4.9h-0.8l-2-6.1h1l1.5,4.8h0l1.5-4.8h0.8l1.5,4.8h0l1.5-4.8h0.9
	L83.1,22.9"/>
<path id="path2794" class="st0" d="M88.1,17.4c-0.9,0-1.5,0.8-1.5,1.8h2.9C89.5,18.3,89,17.4,88.1,17.4z M86.6,20
	c0,1.2,0.7,2.2,2,2.2c0.5,0,1.1-0.2,1.4-0.4l0.3,0.6c-0.4,0.4-1.2,0.6-1.9,0.6c-1.9,0-2.8-1.6-2.8-3.3c0-1.8,1-3.1,2.5-3.1
	c1.6,0,2.4,1.2,2.4,3.1c0,0.1,0,0.1,0,0.2H86.6"/>
<path id="path2798" class="st0" d="M94.6,17.7c-0.1-0.1-0.3-0.1-0.6-0.1c-0.4,0-1,0.3-1.3,0.7v4.5h-0.9v-6.1h0.8l0.1,0.7
	c0.8-0.8,1.3-0.8,1.7-0.8c0.3,0,0.5,0.1,0.6,0.2L94.6,17.7"/>
<path id="path2802" class="st0" d="M15,22.1h-0.3v0.8h-0.2v-0.8h-0.3v-0.2h0.8L15,22.1"/>
<path id="path2806" class="st0" d="M16,22.8v-0.5c0,0,0-0.1,0-0.1h0c0,0,0,0.1-0.1,0.1l-0.2,0.2h-0.1l-0.2-0.2c0,0,0-0.1-0.1-0.1h0
	c0,0,0,0.1,0,0.1v0.5h-0.2v-0.9h0.2l0.2,0.3c0,0,0.1,0.1,0.1,0.1h0c0,0,0-0.1,0.1-0.1l0.2-0.3h0.2v0.9H16"/>
<g>
	<path class="st0" d="M0.2,19.3c0.3,1.4,1,2.6,2,3.5v-3.5H0.2z"/>
	<path class="st0" d="M2.2,12.2h3.6v-2C3,10.8,0.9,13,0.2,15.7h2V12.2z"/>
	<path class="st0" d="M0.1,16.2c0-0.1,0-0.2,0.1-0.4C0.2,16,0.1,16.1,0.1,16.2z"/>
	<path class="st0" d="M0,16.9c0-0.1,0-0.2,0-0.2C0,16.8,0,16.9,0,16.9z"/>
	<path class="st0" d="M15,18.4c0-0.3,0.1-0.6,0.1-0.9c0-0.6-0.1-1.2-0.2-1.7c0.1,0.6,0.2,1.1,0.2,1.7C15.1,17.8,15.1,18.1,15,18.4z"
		/>
	<rect x="2.2" y="15.7" class="st0" width="3.6" height="3.6"/>
	<rect x="5.8" y="19.3" class="st0" width="3.6" height="3.6"/>
	<path class="st0" d="M15,18.5c0,0.2-0.1,0.5-0.1,0.7C14.9,19,15,18.7,15,18.5z"/>
	<rect x="5.8" y="12.2" class="st0" width="3.6" height="3.6"/>
	<path class="st0" d="M12.9,15.7h2c-0.8-3.3-3.8-5.8-7.3-5.8c-0.6,0-1.2,0.1-1.7,0.2C6.4,10,7,10,7.6,10c0.6,0,1.2,0.1,1.8,0.2v2
		h3.6L12.9,15.7H9.3v3.6h3.6v3.6c1-1,1.7-2.2,2-3.6h-2V15.7z"/>
	<path class="st0" d="M6,24.9C6,24.9,6,24.9,6,24.9C6,24.9,6,24.9,6,24.9z"/>
	<path class="st0" d="M0,18.3C0,18.2,0,18.2,0,18.3C0,18.2,0,18.2,0,18.3z"/>
	<path class="st0" d="M9.3,24.8c1.4-0.3,2.6-1,3.6-2H9.3V24.8z"/>
	<path class="st0" d="M9.1,24.9C9.1,24.9,9,24.9,9.1,24.9C9,24.9,9.1,24.9,9.1,24.9z"/>
	<path class="st0" d="M0.2,19c0-0.1,0-0.1,0-0.2C0.2,18.9,0.2,19,0.2,19z"/>
	<path class="st0" d="M2.2,22.8c1,1,2.2,1.7,3.5,2v-2H2.2z"/>
	<path class="st0" d="M5.8,10.2L5.8,10.2C5.8,10.2,5.8,10.2,5.8,10.2C5.8,10.2,5.8,10.2,5.8,10.2z"/>
	<path class="st0" d="M9.3,24.8L9.3,24.8c-0.1,0-0.2,0-0.2,0C9.2,24.9,9.2,24.9,9.3,24.8z"/>
	<path class="st0" d="M5.8,24.8c0.1,0,0.2,0,0.3,0C5.9,24.9,5.9,24.8,5.8,24.8L5.8,24.8z"/>
	<path class="st0" d="M6,24.9C6.5,25,7,25,7.5,25C8,25,8.5,25,9,24.9C8.5,25,8.1,25,7.6,25C7,25,6.5,25,6,24.9z"/>
	<path class="st0" d="M14.9,19.2C14.9,19.2,14.9,19.3,14.9,19.2L14.9,19.2C14.9,19.3,14.9,19.2,14.9,19.2z"/>
	<path class="st0" d="M14.9,15.7L14.9,15.7C14.9,15.7,14.9,15.7,14.9,15.7C14.9,15.7,14.9,15.7,14.9,15.7z"/>
	<path class="st0" d="M15,18.4C15,18.4,15,18.4,15,18.4C15,18.4,15,18.4,15,18.4z"/>
	<path class="st0" d="M0,16.9c0,0.2,0,0.4,0,0.6c0,0.2,0,0.5,0,0.7c0-0.2,0-0.5,0-0.7C0,17.3,0,17.1,0,16.9z"/>
	<path class="st0" d="M0.1,18.9c0-0.2-0.1-0.4-0.1-0.6C0.1,18.5,0.1,18.7,0.1,18.9z"/>
	<path class="st0" d="M0.2,15.7c0,0,0,0.1,0,0.1C0.2,15.8,0.2,15.8,0.2,15.7L0.2,15.7z"/>
	<path class="st0" d="M0,16.7c0-0.2,0-0.3,0.1-0.5C0.1,16.4,0.1,16.5,0,16.7z"/>
	<path class="st0" d="M0.2,19.3L0.2,19.3c0-0.1,0-0.2,0-0.2C0.2,19.1,0.2,19.2,0.2,19.3z"/>
	<path class="st0" d="M2.2,22.8L2.2,22.8L2.2,22.8C2.2,22.8,2.2,22.8,2.2,22.8z"/>
	<polygon class="st0" points="12.9,22.8 12.9,22.8 12.9,22.8 	"/>
</g>
</svg>
