<svg width="94" height="30" viewBox="0 0 94 30" fill="none" xmlns="http://www.w3.org/2000/svg">
<rect x="0.681641" y="0.353943" width="92.4063" height="28.8625" rx="14.4313" fill="#2C2F33"/>
<path d="M14.8164 17.9936V12.0494H15.2833V17.6119H18.1702V17.9936H14.8164ZM18.9879 15.058V14.9931C18.9879 14.5762 19.061 14.1824 19.2072 13.8115C19.3533 13.4407 19.5523 13.1213 19.804 12.8533C20.0558 12.5853 20.3616 12.3728 20.7216 12.2158C21.0816 12.0588 21.4674 11.9803 21.8788 11.9803C22.2902 11.9803 22.676 12.0588 23.036 12.2158C23.3987 12.3701 23.7059 12.5813 23.9577 12.8492C24.2121 13.1172 24.4111 13.4353 24.5545 13.8034C24.7007 14.1715 24.7738 14.5627 24.7738 14.9768V15.0418C24.7738 15.5967 24.6506 16.1042 24.4043 16.5644C24.158 17.0245 23.8142 17.3886 23.373 17.6566C22.9318 17.9246 22.4391 18.0586 21.895 18.0586C21.3401 18.0586 20.8394 17.9246 20.3928 17.6566C19.9488 17.3886 19.6037 17.0272 19.3574 16.5725C19.1111 16.115 18.9879 15.6102 18.9879 15.058ZM19.4589 15.0499C19.4589 15.5453 19.5645 15.9932 19.7756 16.3938C19.9894 16.7945 20.2818 17.1071 20.6526 17.3318C21.0262 17.5564 21.4403 17.6688 21.895 17.6688C22.3606 17.6688 22.7761 17.5564 23.1415 17.3318C23.507 17.1044 23.7898 16.7904 23.9901 16.3898C24.1904 15.9892 24.2906 15.5371 24.2906 15.0337V14.9687C24.2906 14.4869 24.1918 14.0497 23.9942 13.6572C23.7966 13.262 23.5124 12.948 23.1415 12.7153C22.7734 12.4825 22.3525 12.3661 21.8788 12.3661C21.4024 12.3661 20.9788 12.4798 20.6079 12.7071C20.2398 12.9345 19.9556 13.2471 19.7553 13.6451C19.5577 14.0403 19.4589 14.4869 19.4589 14.9849V15.0499ZM26.0625 15.058V14.9931C26.0625 14.4219 26.1843 13.9063 26.4279 13.4461C26.6742 12.9832 27.0126 12.6219 27.443 12.362C27.8761 12.1022 28.3606 11.9722 28.8966 11.9722C29.1889 11.9722 29.4636 12.0074 29.7208 12.0778C29.9779 12.1482 30.2148 12.2537 30.4313 12.3945C30.6479 12.5325 30.8306 12.7166 30.9795 12.9467C31.1283 13.1768 31.2299 13.442 31.284 13.7425H30.8171C30.7142 13.2688 30.4936 12.9183 30.1552 12.6909C29.8169 12.4608 29.4 12.3458 28.9047 12.3458C28.1955 12.3458 27.623 12.5907 27.1872 13.0807C26.7514 13.5706 26.5335 14.2054 26.5335 14.9849V15.0499C26.5335 15.8538 26.7419 16.4926 27.1588 16.9663C27.5756 17.44 28.1603 17.6769 28.9128 17.6769C29.5922 17.6769 30.1106 17.4847 30.4679 17.1003C30.8252 16.716 31.0079 16.1881 31.016 15.5168V15.4844H29.1889V15.0905H31.4667V15.4316C31.4667 16.2707 31.2366 16.919 30.7765 17.3764C30.3163 17.8312 29.6951 18.0586 28.9128 18.0586C28.3281 18.0586 27.8192 17.93 27.3861 17.6728C26.953 17.413 26.6242 17.0584 26.3995 16.609C26.1748 16.157 26.0625 15.64 26.0625 15.058ZM32.7635 15.058V14.9931C32.7635 14.5762 32.8366 14.1824 32.9828 13.8115C33.129 13.4407 33.3279 13.1213 33.5797 12.8533C33.8314 12.5853 34.1373 12.3728 34.4973 12.2158C34.8573 12.0588 35.243 11.9803 35.6545 11.9803C36.0659 11.9803 36.4516 12.0588 36.8116 12.2158C37.1743 12.3701 37.4816 12.5813 37.7333 12.8492C37.9877 13.1172 38.1867 13.4353 38.3302 13.8034C38.4763 14.1715 38.5494 14.5627 38.5494 14.9768V15.0418C38.5494 15.5967 38.4263 16.1042 38.1799 16.5644C37.9336 17.0245 37.5898 17.3886 37.1486 17.6566C36.7074 17.9246 36.2148 18.0586 35.6707 18.0586C35.1158 18.0586 34.615 17.9246 34.1684 17.6566C33.7245 17.3886 33.3794 17.0272 33.133 16.5725C32.8867 16.115 32.7635 15.6102 32.7635 15.058ZM33.2345 15.0499C33.2345 15.5453 33.3401 15.9932 33.5512 16.3938C33.7651 16.7945 34.0574 17.1071 34.4283 17.3318C34.8018 17.5564 35.2159 17.6688 35.6707 17.6688C36.1363 17.6688 36.5518 17.5564 36.9172 17.3318C37.2826 17.1044 37.5655 16.7904 37.7658 16.3898C37.9661 15.9892 38.0662 15.5371 38.0662 15.0337V14.9687C38.0662 14.4869 37.9674 14.0497 37.7698 13.6572C37.5722 13.262 37.288 12.948 36.9172 12.7153C36.5491 12.4825 36.1281 12.3661 35.6545 12.3661C35.178 12.3661 34.7544 12.4798 34.3836 12.7071C34.0155 12.9345 33.7312 13.2471 33.5309 13.6451C33.3333 14.0403 33.2345 14.4869 33.2345 14.9849V15.0499ZM42.6292 17.9936V12.0494H44.2005C44.4982 12.0494 44.7676 12.0805 45.0085 12.1428C45.2494 12.205 45.4619 12.3011 45.6459 12.431C45.8327 12.5583 45.9762 12.7315 46.0763 12.9508C46.1792 13.17 46.2306 13.4258 46.2306 13.7181V13.7547C46.2306 14.0524 46.1805 14.3123 46.0804 14.5343C45.9802 14.7535 45.8381 14.9294 45.6541 15.0621C45.47 15.192 45.2575 15.2895 45.0166 15.3544C44.7784 15.4167 44.5104 15.4478 44.2127 15.4478H43.0961V17.9936H42.6292ZM43.0961 15.0743H44.2451C44.7378 15.0743 45.114 14.966 45.3739 14.7494C45.6365 14.5329 45.7677 14.2013 45.7677 13.7547V13.7181C45.7677 13.258 45.6351 12.9291 45.3698 12.7315C45.1046 12.5312 44.7243 12.431 44.2289 12.431H43.0961V15.0743ZM47.7711 17.9936V12.0494H51.1898V12.431H48.238V14.7494H50.6336V15.1311H48.238V17.6119H51.34V17.9936H47.7711ZM52.8967 17.9936V12.0494H53.5301L56.8555 17.3521V12.0494H57.2981V17.9936H56.7499L53.3474 12.565V17.9936H52.8967ZM59.2405 17.9936V12.0494H60.7874C61.2666 12.0494 61.6956 12.1238 62.0746 12.2727C62.4535 12.4189 62.7634 12.6246 63.0043 12.8898C63.248 13.1524 63.432 13.461 63.5565 13.8156C63.6838 14.1675 63.7474 14.5518 63.7474 14.9687V15.0418C63.7474 15.3747 63.7095 15.6887 63.6337 15.9838C63.5579 16.2761 63.4402 16.5468 63.2804 16.7958C63.1235 17.0421 62.9286 17.2546 62.6958 17.4333C62.4657 17.6092 62.1869 17.7473 61.8594 17.8474C61.5318 17.9449 61.1691 17.9936 60.7712 17.9936H59.2405ZM59.7074 17.6119H60.755C61.1691 17.6119 61.5359 17.5497 61.8553 17.4252C62.1774 17.2979 62.4413 17.1193 62.647 16.8892C62.8528 16.6591 63.0071 16.3884 63.1099 16.0771C63.2155 15.7632 63.2683 15.4153 63.2683 15.0337V14.9687C63.2683 14.5979 63.2182 14.2609 63.118 13.9577C63.0179 13.6518 62.8663 13.3838 62.6633 13.1538C62.463 12.9237 62.1991 12.7464 61.8715 12.6219C61.5467 12.4946 61.1718 12.431 60.7468 12.431H59.7074V17.6119ZM65.4015 17.9936V12.0494H65.8644V17.9936H65.4015ZM67.8515 17.9936V12.0494H68.4849L71.8102 17.3521V12.0494H72.2528V17.9936H71.7047L68.3022 12.565V17.9936H67.8515ZM73.8745 15.058V14.9931C73.8745 14.4219 73.9963 13.9063 74.2399 13.4461C74.4862 12.9832 74.8246 12.6219 75.255 12.362C75.6881 12.1022 76.1726 11.9722 76.7085 11.9722C77.0009 11.9722 77.2756 12.0074 77.5328 12.0778C77.7899 12.1482 78.0268 12.2537 78.2433 12.3945C78.4599 12.5325 78.6426 12.7166 78.7914 12.9467C78.9403 13.1768 79.0418 13.442 79.096 13.7425H78.629C78.5262 13.2688 78.3056 12.9183 77.9672 12.6909C77.6289 12.4608 77.212 12.3458 76.7167 12.3458C76.0075 12.3458 75.435 12.5907 74.9992 13.0807C74.5634 13.5706 74.3455 14.2054 74.3455 14.9849V15.0499C74.3455 15.8538 74.5539 16.4926 74.9707 16.9663C75.3876 17.44 75.9723 17.6769 76.7248 17.6769C77.4042 17.6769 77.9226 17.4847 78.2799 17.1003C78.6372 16.716 78.8199 16.1881 78.828 15.5168V15.4844H77.0009V15.0905H79.2787V15.4316C79.2787 16.2707 79.0486 16.919 78.5884 17.3764C78.1283 17.8312 77.5071 18.0586 76.7248 18.0586C76.1401 18.0586 75.6312 17.93 75.1981 17.6728C74.765 17.413 74.4361 17.0584 74.2115 16.609C73.9868 16.157 73.8745 15.64 73.8745 15.058Z" fill="white"/>
</svg>
