<?xml version="1.0" standalone="no"?>
<!DOCTYPE svg PUBLIC "-//W3C//DTD SVG 20010904//EN"
 "http://www.w3.org/TR/2001/REC-SVG-20010904/DTD/svg10.dtd">
<svg version="1.0" xmlns="http://www.w3.org/2000/svg"
 width="98.000000pt" height="120.000000pt" viewBox="0 0 98.000000 120.000000"
 preserveAspectRatio="xMidYMid meet">

<g transform="translate(0.000000,120.000000) scale(0.100000,-0.100000)" stroke="none">
<path d="M243 1117 l-243 -82 0 -321 c0 -363 4 -393 68 -463 26 -29 91 -70
223 -141 102 -55 192 -100 199 -100 7 0 97 45 199 101 129 69 198 113 223 141
64 68 68 99 68 462 l0 321 -237 79 c-131 43 -242 80 -248 82 -5 1 -119 -34
-252 -79z m469 -39 l218 -73 0 -318 c0 -346 -2 -357 -57 -412 -29 -30 -360
-215 -383 -215 -23 0 -353 185 -383 215 -55 55 -57 66 -57 412 l0 318 212 72
c117 39 217 72 223 72 5 1 107 -32 227 -71z"/>
</g>
</svg>
