<svg width="18" height="18" viewBox="0 0 18 18" fill="none" xmlns="http://www.w3.org/2000/svg">
<path fill-rule="evenodd" clip-rule="evenodd" d="M9.00041 12.7108C9.73068 12.7108 10.4446 12.4942 11.0518 12.0885C11.6589 11.6828 12.1322 11.1061 12.4117 10.4314C12.6911 9.75677 12.7642 9.01437 12.6218 8.29813C12.4793 7.5819 12.1276 6.92399 11.6113 6.40761C11.0949 5.89124 10.437 5.53959 9.72074 5.39713C9.00451 5.25466 8.26211 5.32776 7.58743 5.60722C6.91275 5.88668 6.3361 6.35993 5.93038 6.96713C5.52467 7.57432 5.30811 8.2882 5.30811 9.01847C5.30811 9.99773 5.69713 10.9369 6.38957 11.6293C7.08201 12.3218 8.02115 12.7108 9.00041 12.7108Z" fill="white"/>
<path d="M9.00048 15C10.1872 15 11.3472 14.6481 12.3339 13.9888C13.3206 13.3295 14.0896 12.3924 14.5438 11.2961C14.9979 10.1997 15.1167 8.99334 14.8852 7.82946C14.6537 6.66557 14.0822 5.59649 13.2431 4.75737C12.404 3.91826 11.3349 3.3468 10.171 3.11529C9.00715 2.88378 7.80074 3.00261 6.70438 3.45674C5.60803 3.91086 4.67097 4.6799 4.01168 5.66659C3.35239 6.65328 3.00049 7.81332 3.00049 9.00001C3.00049 10.5913 3.63263 12.1174 4.75785 13.2426C5.88306 14.3679 7.40918 15 9.00048 15Z" stroke="url(#paint0_linear_2260_6819)" stroke-opacity="0.46" stroke-width="5"/>
<defs>
<linearGradient id="paint0_linear_2260_6819" x1="12.2036" y1="8.86154" x2="6.48972" y2="9.10154" gradientUnits="userSpaceOnUse">
<stop stop-color="#C1C1C6"/>
<stop offset="1" stop-color="white"/>
</linearGradient>
</defs>
</svg>
