<svg width="224" height="140" viewBox="0 0 224 140" fill="none" xmlns="http://www.w3.org/2000/svg">
      <path d="M1 1L0.999964 139L112 70L223 1.00008L1 1Z" fill="white" fill-opacity="0.05"/>
      <path d="M1 1L0.999964 139L112 70L223 1.00008L1 1Z" fill="url(#paint0_radial_1733_5058)" fill-opacity="0.3"/>
      <path d="M1 1L0.999964 139L112 70L223 1.00008L1 1Z" stroke="url(#paint1_linear_1733_5058)" stroke-width="0.5"/>
      <defs>
      <radialGradient id="paint0_radial_1733_5058" cx="0" cy="0" r="1" gradientUnits="userSpaceOnUse" gradientTransform="translate(206.5 14.0001) rotate(146.258) scale(306.056 492.351)">
      <stop stop-color="white"/>
      <stop offset="1" stop-opacity="0"/>
      </radialGradient>
      <linearGradient id="paint1_linear_1733_5058" x1="112" y1="1.00003" x2="112" y2="139" gradientUnits="userSpaceOnUse">
      <stop stop-color="#E5E5E5"/>
      <stop offset="1" stop-color="white" stop-opacity="0"/>
      </linearGradient>
      </defs>
      <path d="M223 139L223 1L112 70L1 139L223 139Z" fill="white" fill-opacity="0.05"/>
      <path d="M223 139L223 1L112 70L1 139L223 139Z" fill="url(#paint0_radial_1733_5060)" fill-opacity="0.3"/>
      <path d="M223 139L223 1L112 70L1 139L223 139Z" stroke="url(#paint1_linear_1733_5060)" stroke-width="0.5"/>
      <defs>
      <radialGradient id="paint0_radial_1733_5060" cx="0" cy="0" r="1" gradientUnits="userSpaceOnUse" gradientTransform="translate(17.5 126) rotate(-33.742) scale(306.056 492.351)">
      <stop stop-color="white"/>
      <stop offset="1" stop-opacity="0"/>
      </radialGradient>
      <linearGradient id="paint1_linear_1733_5060" x1="112" y1="139" x2="112" y2="1" gradientUnits="userSpaceOnUse">
      <stop stop-color="#E5E5E5"/>
      <stop offset="1" stop-color="white" stop-opacity="0"/>
      </linearGradient>
      </defs>
    </svg>