<svg width="100%" height="45" viewBox="0 0 586 45" fill="none" xmlns="http://www.w3.org/2000/svg" preserveAspectRatio="none">
  <g filter="url(#filter0_i_832_92)">
  <path d="M16.842 33.7025L2.33301 1.11622L584.123 1.11626L569.614 33.7025C568.276 36.7023 565.846 39.2922 562.652 41.1214C559.459 42.9506 555.657 43.9305 551.762 43.9285L34.6943 43.9284C30.7989 43.9305 26.997 42.9505 23.8037 41.1213C20.6104 39.2922 18.18 36.7022 16.842 33.7025Z" fill="#2C2F33"/>
  <path d="M16.842 33.7025L2.33301 1.11622L584.123 1.11626L569.614 33.7025C568.276 36.7023 565.846 39.2922 562.652 41.1214C559.459 42.9506 555.657 43.9305 551.762 43.9285L34.6943 43.9284C30.7989 43.9305 26.997 42.9505 23.8037 41.1213C20.6104 39.2922 18.18 36.7022 16.842 33.7025Z" fill="url(#paint0_linear_832_92)" fill-opacity="0.2"/>
  </g>
  <defs>
    <filter id="filter0_i_832_92" x="0.793091" y="-1.88379" width="584.87" height="46.8123" filterUnits="userSpaceOnUse" color-interpolation-filters="sRGB">
    <feFlood flood-opacity="0" result="BackgroundImageFix"/>
    <feBlend mode="normal" in="SourceGraphic" in2="BackgroundImageFix" result="shape"/>
    <feColorMatrix in="SourceAlpha" type="matrix" values="0 0 0 0 0 0 0 0 0 0 0 0 0 0 0 0 0 0 127 0" result="hardAlpha"/>
    <feOffset dy="-2"/>
    <feGaussianBlur stdDeviation="1"/>
    <feComposite in2="hardAlpha" operator="arithmetic" k2="-1" k3="1"/>
    <feColorMatrix type="matrix" values="0 0 0 0 0 0 0 0 0 0 0 0 0 0 0 0 0 0 0.3 0"/>
    <feBlend mode="normal" in2="shape" result="effect1_innerShadow_832_92"/>
    </filter>
    <linearGradient id="paint0_linear_832_92" x1="319.123" y1="6.11103" x2="255.862" y2="73.0497" gradientUnits="userSpaceOnUse">
    <stop stop-color="white" stop-opacity="0.4"/>
    <stop offset="1" stop-color="white" stop-opacity="0"/>
    </linearGradient>
    <radialGradient id="paint1_radial_832_92" cx="0" cy="0" r="1" gradientUnits="userSpaceOnUse" gradientTransform="translate(274.728 27.5171) rotate(-23.8974) scale(67.4259 38.884)">
    <stop stop-color="white"/>
    <stop offset="1" stop-color="white" stop-opacity="0"/>
    </radialGradient>
    <radialGradient id="paint2_radial_832_92" cx="0" cy="0" r="1" gradientUnits="userSpaceOnUse" gradientTransform="translate(274.728 27.5171) rotate(150.709) scale(52.5032 32.5541)">
    <stop stop-color="white"/>
    <stop offset="1" stop-color="white"/>
    </radialGradient>
    <radialGradient id="paint3_radial_832_92" cx="0" cy="0" r="1" gradientUnits="userSpaceOnUse" gradientTransform="translate(274.728 27.5171) rotate(-153.501) scale(52.5828 31.383)">
    <stop stop-color="#151515"/>
    <stop offset="1" stop-color="#151515" stop-opacity="0"/>
    </radialGradient>
  </defs>
</svg>
