<svg width="29" height="33" viewBox="0 0 29 33" fill="none" xmlns="http://www.w3.org/2000/svg">
<path d="M13.8057 1.45044C14.2885 1.17171 14.8833 1.1717 15.3661 1.45043L27.3035 8.34251C27.7863 8.62124 28.0837 9.13635 28.0837 9.69381V23.478C28.0837 24.0354 27.7863 24.5505 27.3035 24.8293L15.3661 31.7213C14.8833 32.0001 14.2885 32.0001 13.8057 31.7213L1.86829 24.8293C1.38552 24.5505 1.08811 24.0354 1.08811 23.478V9.69381C1.08811 9.13635 1.38551 8.62124 1.86829 8.34251L13.8057 1.45044Z" fill="#A94447" fill-opacity="0.15"/>
<path d="M13.8057 1.45044C14.2885 1.17171 14.8833 1.1717 15.3661 1.45043L27.3035 8.34251C27.7863 8.62124 28.0837 9.13635 28.0837 9.69381V23.478C28.0837 24.0354 27.7863 24.5505 27.3035 24.8293L15.3661 31.7213C14.8833 32.0001 14.2885 32.0001 13.8057 31.7213L1.86829 24.8293C1.38552 24.5505 1.08811 24.0354 1.08811 23.478V9.69381C1.08811 9.13635 1.38551 8.62124 1.86829 8.34251L13.8057 1.45044Z" fill="url(#paint0_radial_1733_5087)" fill-opacity="0.3"/>
<path d="M13.8057 1.45044C14.2885 1.17171 14.8833 1.1717 15.3661 1.45043L27.3035 8.34251C27.7863 8.62124 28.0837 9.13635 28.0837 9.69381V23.478C28.0837 24.0354 27.7863 24.5505 27.3035 24.8293L15.3661 31.7213C14.8833 32.0001 14.2885 32.0001 13.8057 31.7213L1.86829 24.8293C1.38552 24.5505 1.08811 24.0354 1.08811 23.478V9.69381C1.08811 9.13635 1.38551 8.62124 1.86829 8.34251L13.8057 1.45044Z" stroke="#A94447" stroke-width="0.5"/>
<defs>
<radialGradient id="paint0_radial_1733_5087" cx="0" cy="0" r="1" gradientUnits="userSpaceOnUse" gradientTransform="translate(1.31682 3.93647) rotate(47.0586) scale(52.4554 91.1122)">
<stop stop-color="white"/>
<stop offset="1" stop-opacity="0"/>
</radialGradient>
</defs>
</svg>
