<?xml version="1.0" encoding="utf-8"?>
<!-- Generator: Adobe Illustrator 26.0.1, SVG Export Plug-In . SVG Version: 6.00 Build 0)  -->
<svg version="1.1" id="Layer_1" xmlns="http://www.w3.org/2000/svg" xmlns:xlink="http://www.w3.org/1999/xlink" x="0px" y="0px"
	 viewBox="0 0 95 35" style="enable-background:new 0 0 95 35;" xml:space="preserve">
<style type="text/css">
	.st0{fill-rule:evenodd;clip-rule:evenodd;fill:#CCCCCC;}
</style>
<g>
	<path class="st0" d="M41.1,19c-0.6,0-1.2,0.3-1.2,1.1c0,0.6,0.5,1,1,1c0.4,0,0.7-0.1,0.9-0.2l0-1.9C41.6,19.1,41.4,19,41.1,19z"/>
	<path class="st0" d="M29.8,13.4c-0.4,0-0.8,0-1.3,0.1c0,1.2-0.1,2.2-0.1,3.3v4.6c0.6,0.1,1.1,0.1,1.6,0.1c2.5,0,3.7-1.5,3.7-4
		C33.7,15,32.1,13.4,29.8,13.4z"/>
	<path class="st0" d="M52.6,16.9c-1.2,0-1.6,1.1-1.6,2.3c0,1.2,0.4,2.3,1.6,2.3c1.2,0,1.6-1.1,1.6-2.3C54.2,18,53.8,16.9,52.6,16.9z
		"/>
	<path class="st0" d="M24.3,0v35h46.4V0H24.3z M61.5,14.1c0.4,0,0.7,0.3,0.7,0.7c0,0.4-0.3,0.7-0.7,0.7c-0.4,0-0.7-0.3-0.7-0.7
		C60.8,14.4,61.1,14.1,61.5,14.1z M37.1,14.1c0.4,0,0.7,0.3,0.7,0.7c0,0.4-0.3,0.7-0.7,0.7c-0.4,0-0.7-0.3-0.7-0.7
		C36.4,14.4,36.8,14.1,37.1,14.1z M30.2,22c-0.6,0-1.3-0.1-1.9-0.1c-0.6,0-1.3,0.1-1.9,0.1v-0.3c0.5-0.1,0.7-0.4,0.7-0.9v-3.8
		c0-1.1-0.1-2.2-0.1-2.8c0-0.5-0.2-0.9-0.7-1.1v-0.2c0.6,0,1.2,0.1,1.8,0.1c0.6,0,1.2-0.1,1.8-0.1c3.5,0,5.7,1.6,5.7,4.5
		C35.5,20.3,33.8,22,30.2,22z M38.3,21.8c-0.4,0-0.8,0-1.1,0c-0.3,0-0.7,0-1,0v-0.3c0.3-0.1,0.4-0.1,0.4-0.6v-1.6
		c0-0.9-0.1-1.4-0.2-1.7c-0.1-0.3-0.2-0.3-0.5-0.4V17c0.6-0.1,1.2-0.4,1.6-0.6h0.3c0,0.5,0,1.7,0,2.7v1.9c0,0.4,0.2,0.5,0.5,0.6
		V21.8z M46.2,22.2c-0.9,0-1.9-0.3-2.3-0.6l0-0.3l-1,0.8c-0.5-0.1-0.9-0.3-1-0.6C41.4,21.7,41,22,40.4,22c-0.9,0-1.8-0.5-1.8-1.5
		c0-1.4,1.3-1.9,2.5-1.9c0.2,0,0.4,0,0.6,0c0-0.7-0.1-1.5-0.9-1.5c-0.6,0-1,0.2-1.3,0.7h-0.3v-1.2c0.5-0.2,1.1-0.2,1.7-0.2
		c1.2,0,2.1,0.3,2.1,1.6c0,0.5,0,1.1-0.1,1.9v0.4c0,0.6,0.1,0.8,0.4,0.8c0.1,0,0.2,0,0.3-0.1l0.2,0.2l-0.1-1h0.5
		c0.2,0.9,1.1,1.5,2,1.5c1,0,1.8-0.7,1.8-1.7c0-2.3-4.5-1-4.5-4.4c0-1.7,1.4-2.9,3.1-2.9c0.9,0,1.8,0.1,2.6,0.5v1.4h-0.5
		c-0.4-1-1.2-1.4-2.2-1.4c-0.9,0-1.7,0.7-1.7,1.6c0,2.8,4.5,1.1,4.5,4.6C49.3,21.2,47.8,22.2,46.2,22.2z M52.6,22
		c-2.1,0-3-1.6-3-2.8c0-1.2,0.9-2.8,3-2.8c2.1,0,3,1.6,3,2.8C55.6,20.4,54.7,22,52.6,22z M59.9,17.9h-0.3c-0.2-0.2-0.4-0.4-0.8-0.4
		c-0.5,0-0.9,0.7-0.9,1.1c0,0.3-0.1,0.8-0.1,1.3v1.2c0,0.4,0.1,0.6,0.5,0.6V22c-0.4,0-0.7,0-1.1,0c-0.3,0-0.7,0-1,0v-0.3
		c0.3-0.1,0.4-0.2,0.4-0.6v-1.4c0-0.6-0.1-1.2-0.1-1.6c0-0.4-0.2-0.6-0.6-0.7v-0.3c0.6-0.1,1.2-0.5,1.5-0.7h0.3l0,1.1h0
		c0.3-0.4,0.7-1.1,1.3-1.1c0.2,0,0.6,0.1,0.8,0.3V17.9z M62.7,21.8c-0.4,0-0.8,0-1.1,0c-0.3,0-0.7,0-1,0v-0.3
		c0.3-0.1,0.4-0.1,0.4-0.6v-1.6c0-0.9-0.1-1.4-0.2-1.7c-0.1-0.3-0.2-0.3-0.5-0.4V17c0.6-0.1,1.2-0.4,1.6-0.6h0.3c0,0.5,0,1.7,0,2.7
		v1.9c0,0.4,0.2,0.5,0.5,0.6V21.8z M68.8,22c-0.3,0-0.6,0-1,0c-0.4,0-0.8,0-1.2,0v-0.3c0.4-0.1,0.5-0.2,0.5-0.6v-2.3
		c0-0.7-0.1-1.7-1.1-1.7c-0.3,0-1.1,0.1-1.1,0.6c0,0.5,0,1.2,0,2.3v1.1c0,0.5,0.1,0.6,0.5,0.6V22c-0.4,0-0.7,0-1.1,0
		c-0.4,0-0.7,0-1.1,0v-0.3c0.3-0.1,0.5-0.2,0.5-0.6v-1.3c0-0.8-0.1-1.5-0.1-1.9c0-0.4-0.2-0.6-0.6-0.6l0-0.3
		c0.8-0.1,1.2-0.3,1.7-0.7H65c0,0.2,0,0.4,0,0.7c0.5-0.3,1-0.6,1.6-0.6c1.3,0,1.8,0.8,1.8,1.9v2.8c0,0.4,0.1,0.5,0.5,0.6V22z"/>
</g>
</svg>
