<?xml version="1.0" encoding="utf-8"?>
<!-- Generator: Adobe Illustrator 26.0.1, SVG Export Plug-In . SVG Version: 6.00 Build 0)  -->
<svg version="1.1" id="Layer_1" xmlns="http://www.w3.org/2000/svg" xmlns:xlink="http://www.w3.org/1999/xlink" x="0px" y="0px"
	 viewBox="0 0 95 35" style="enable-background:new 0 0 95 35;" xml:space="preserve">
<style type="text/css">
	.st0{fill:#FFFFFF;}
</style>
<g id="g4940" transform="matrix(6.145011,0,0,-6.145011,553.18031,861.46444)">
</g>
<g id="g4944" transform="matrix(6.145011,0,0,-6.145011,1380.5524,469.87979)">
</g>
<g id="g4952" transform="matrix(6.145011,0,0,-6.145011,2069.1151,861.46444)">
</g>
<g>
	<path class="st0" d="M87.2,26.3c0,4.6,2.7,6.9,5.2,8.7l2.2-3.3c-2.1-1.5-3.6-2.6-3.6-5.4V0h-3.9V26.3L87.2,26.3z"/>
	<path class="st0" d="M68.9,23.5h14.3v-3.9c-1.1-6.2-6.6-10.8-12.9-10.8c-7.1,0-12.9,5.9-12.9,13.1c0,7.2,5.8,13.1,12.9,13.1
		c3.4,0,6.6-1.3,9.1-3.8c0.4-0.4,0.9-0.9,1.2-1.4l-3.1-2.3c-0.3,0.4-0.6,0.7-0.9,1C75,30.1,72.7,31,70.4,31c-5,0-9-4.1-9-9.2
		c0-5.1,4-9.2,9-9.2c4.2,0,7.9,3,8.9,6.9H68.9V23.5L68.9,23.5z"/>
	<path class="st0" d="M43,8.7c-3.5,0-6.7,1.4-9,3.7V9.1h-3.9v14.4H34v-3.7c1-4.1,4.7-7.1,9-7.1c3.7,0,6.6,3,6.6,6.6v0.9v14.4h3.9
		V20.2v-0.9C53.5,13.5,48.8,8.7,43,8.7"/>
	<path class="st0" d="M11.8,23.5h14.4v-3.9c-1.1-6.2-6.6-10.8-12.9-10.8c-7.1,0-12.9,5.9-12.9,13.1c0,7.2,5.8,13.1,12.9,13.1
		c3.4,0,6.6-1.3,9.1-3.8c0.4-0.4,0.9-0.9,1.2-1.4l-3.1-2.3c-0.3,0.4-0.6,0.7-0.9,1c-1.7,1.7-3.9,2.6-6.3,2.6c-5,0-9-4.1-9-9.2
		c0-5.1,4-9.2,9-9.2c4.2,0,7.9,3,8.9,6.9H11.8V23.5L11.8,23.5z"/>
</g>
</svg>
