<?xml version="1.0" encoding="utf-8"?>
<!-- Generator: Adobe Illustrator 26.0.1, SVG Export Plug-In . SVG Version: 6.00 Build 0)  -->
<svg version="1.1" id="Layer_1" xmlns="http://www.w3.org/2000/svg" xmlns:xlink="http://www.w3.org/1999/xlink" x="0px" y="0px"
	 viewBox="0 0 95 35" style="enable-background:new 0 0 95 35;" xml:space="preserve">
<style type="text/css">
	.st0{fill:#CCCCCC;}
</style>
<path class="st0" d="M50.3,2.7c0-0.1-0.2-0.3-0.3-0.4c-0.7-0.4-1.4,0.1-2.2,0.1c-0.3,0-0.5,0.1-0.8-0.1c0-0.1,0.1-0.2,0.1-0.3
	c-0.2,0-0.4-0.1-0.6-0.1c0,0-0.5,0-0.7-0.1c-1-0.4-1.9-0.6-3.1-0.1c-0.4,0.2-0.7,0.3-1.1,0.3c-0.2,0,0.3,0.4,0.2,0.5
	c-0.6,0.1-1.1,0.3-1.7,0.8v0C40.6,3.9,41.2,4,41.7,4c0.2,0,0.5,0.4,1.4,0.5c1.2,0.2,2-0.5,2.8-0.1c-0.1-0.1-0.1-0.2-0.1-0.4
	c1,0.3,1.8,0.2,2.6-0.1C49.2,3.7,49.5,2.7,50.3,2.7"/>
<g>
	<path class="st0" d="M60.7,11.1h-4.2c0,0.1,0.1,0.1,0.2,0.2c0.3,0.2,0.7,0.4,1.1,0.5c0.1,0.1-0.2,0.3,0,0.4c0.1,0.1,0.4,0.1,0.5,0
		c0.1,0.5-0.4,0.6-0.4,0.7c0.1,0.1,0.3,0.1,0.4,0.2c0.1,0,0.2,0.1,0.2,0.2c-0.2,0.1-0.4,0.1-0.4,0.3c0.2,0.1,0.3,0.2,0.4,0.4
		c0,0.4-0.6,0.2-0.4,0.8c0.1,0.2,0.2,0.6,0.5,0.8c0.2,0.1,0.4,0.2,0.5,0.4c-0.1,0.2-0.4,0.2-0.5,0.4c0.1,0.4-0.1,0.7-0.1,1.1
		c0,0.1-0.1,0.1-0.1,0.1L57,18c-0.1,0-0.3-0.1-0.2-0.4c0.4-0.5,0.8-0.8,1.1-1.2c0-0.2-0.1-0.3-0.2-0.5c-0.5-0.8-1-1.6-1.5-2.4
		c-0.1-0.1-0.2-0.1-0.2-0.1c-1.2-0.2-2.3-0.5-3.5-0.9c-0.1,0-0.1,0.1-0.1,0.1c0,0.2,0.1,0.5,0.2,0.6c0.1,0.2,0.6,0.2,0.7,0.2
		c0.1,0,0.3-0.1,0.4,0c0,0.3-0.2,0.5-0.5,0.7c0.1,0.2,0.3,0.2,0.4,0.4c-0.1,0.1-0.3,0.1-0.3,0.3c0.1,0.1,0.1,0.1,0.2,0.2
		c-0.2,0.2-0.4,0.3-0.6,0.5l0.1,1.1l0,0.1l-0.1,0l-1.5,0.4c-0.1,0-0.1-0.1-0.1-0.1c0,0,0-0.1,0-0.1l1-1.4c0.1-0.3-0.2-0.5-0.3-0.8
		c-0.3-0.4-0.7-0.8-1.1-1c-0.1-0.1-0.1-0.3-0.1-0.5c-0.2-0.2-0.2-0.4-0.3-0.7c0-0.1-0.1-0.1-0.2,0c-0.2,0.2-0.5,0.4-0.5,0.7
		c0,0.2,0.1,0.3,0.3,0.3c0.1,0,0.2,0.1,0.4,0c0,0,0.1,0,0,0.1c-0.1,0.3-0.2,0.3-0.4,0.5c0.2,0.1,0.4-0.1,0.5,0
		c-0.1,0.2-0.3,0.3-0.3,0.5c0.1,0.1,0.3,0.2,0.3,0.3c-0.3,0-0.5,0.4-0.8,0.6c-0.1,0.4-0.1,0.9-0.1,1.4c0,0.1-0.1,0.1-0.2,0.2
		L47.8,17c-0.1,0-0.1-0.1,0-0.2l1.1-1.4c0-0.1,0-0.2,0-0.2c-0.5-0.7-1-1.4-1.3-2.1c-0.2,0-0.5,0.2-0.6,0.4c0.1,0.2,0.3,0.3,0.5,0.3
		c0,0.2-0.2,0.5-0.5,0.6c0,0-0.1,0-0.1,0.1c0,0.1,0.1,0.1,0.1,0.1c-0.2,0.3-0.6,0.4-1,0.5c0,0.1,0.1,0.1,0.1,0.1h0.2
		c0,0.1-0.2,0.3-0.3,0.4c-0.2,0.1-0.5,0.1-0.7,0.1c0.1,0.2,0.4,0.3,0.3,0.6c-0.2,0-0.5,0.1-0.8,0.1c-0.1,0.1-0.1,0.3-0.1,0.4
		c-0.2,0.3-0.4,0.7-0.6,1l-1.2-1c0.1-0.3,0.4-0.3,0.6-0.5c0.3-0.2,0.6-0.4,0.9-0.7c0.1-0.8,0.4-1.5,0.6-2.3c0-0.2-0.2-0.2-0.2-0.2
		c-0.6,0.1-1.3,0.1-1.9,0c-0.1,0-0.2,0.1-0.2,0.2c0,0.2-0.1,0.4-0.1,0.6c0.2,0.1,0.4,0.1,0.5,0.2c-0.1,0.4-0.5,0.6-0.7,0.8
		c0,0.2,0.3,0.4,0.5,0.5c-0.1,0.1-0.2,0.2-0.3,0.2c-0.2,0-0.4,0-0.5,0.2c0.2,0.2,0.5,0.3,0.6,0.6c-0.1,0.1-0.2,0.1-0.4,0.1
		c-0.2,0.1-0.3,0.1-0.5,0.2c-0.2,0.3-0.3,0.8-0.6,1.1c-0.3-0.3-0.8-0.6-1-0.9c0-0.2,0.2-0.3,0.3-0.3c0.2-0.2,0.6-0.4,0.7-0.7
		c0.1-0.6-0.3-0.9-0.3-1.4c-0.1-0.3-0.2-0.7-0.1-1c-0.4-0.2-0.7-0.3-1.1-0.5c0,0-0.1-0.1-0.1,0v0.6c0.3,0,0.7,0.1,0.9,0.4
		c-0.3,0.1-0.5,0.5-0.6,0.8c0.2,0.2,0.4,0.1,0.6,0.3c0.2,0.2-0.2,0.3-0.3,0.4c-0.1,0.1-0.1,0.2-0.1,0.3c0,0.1,0.3,0.2,0.2,0.4
		c-0.1,0.2-0.4,0.4-0.5,0.5c0,0.2,0.3,0.2,0.3,0.4c-0.5,0.3-0.6,0.9-1.1,1c-0.2,0.5-0.2,1.1-0.3,1.6c0,0.2-0.2,0.3-0.4,0.3
		c-0.5,0-1,0-1.4,0c0.4-0.9,1.6-1.5,1.4-2.6c-0.4-2.5-1.1-4-1.6-6h-2.4c-0.6,0-1.1,0.5-1.1,1.1v21.7c0,0.6,0.5,1.1,1.1,1.1h26.5
		c0.6,0,1.1-0.5,1.1-1.1V12.2C61.8,11.6,61.3,11.1,60.7,11.1z M42.7,31.4l-4.1,0.2c0.1,1.7,1.3,2.7,3.6,2.7h1.5l0,0.7h-1.5
		c-2.4,0-4.4-1-4.5-4l4.4-0.2c1.3,0,1.4-0.7,1.3-1.7c-0.2-1.4-1.2-2.2-2.7-2.2c-2.1,0-3.4,1.7-3.5,4c0,2.1,0.8,3.6,2.3,4.2h-1.3
		c-1.2-0.9-1.7-2.5-1.7-4.2c0-3.1,2-4.7,4.3-4.7c2.5,0,3.6,1.8,3.6,3.8C44.2,30.9,43.6,31.3,42.7,31.4z M37.7,30.5
		c0.2-2,1.3-3.2,2.9-3.2c1.3,0,2,0.7,2.2,1.8c0.1,0.9-0.1,1.1-0.9,1.2L37.7,30.5z M52.3,35h-0.9l0-5.6c0-1-0.4-1.3-1.2-1.3
		c-0.7,0-1.6,0.5-2.1,1.1V35h-0.9v-6.2c1.2-1,2.2-1.5,3.1-1.5c1.5,0,2.1,0.7,2.1,2V35z M53.7,35h-0.9v-5.8c0-1.7-0.9-2.5-2.5-2.5
		c-1.3,0-2.5,0.7-3.8,1.7V35h-0.9l0-6.7c1.7-1.5,3.4-2.2,4.8-2.2c2.3,0,3.3,1.3,3.2,3.1V35z M57.3,35v-8l-0.6,0.1l0,7.8h-0.9l0-8.4
		l1.8-0.5c0.3-0.1,0.4,0,0.4,0.3l0,8.6H57.3z M57,24.1c-0.7,0-1.2-0.5-1.2-1.2s0.5-1.2,1.2-1.2c0.7,0,1.2,0.5,1.2,1.2
		S57.7,24.1,57,24.1z"/>
	<path class="st0" d="M40.5,28c-1.1,0-1.8,0.8-1.8,1.8l2.8-0.1c0.5,0,0.6-0.2,0.6-0.5C42,28.7,41.7,28,40.5,28z"/>
	<path class="st0" d="M35.1,4c0.2,0.1,0.3,0,0.5,0.1c0,0.1,0,0.1-0.1,0.2c-0.4,0.7,0.2,1.6-0.5,2.1c0.3,0.1,0.7,0,1-0.3l0.1,0
		c-0.2,0.5-0.3,1-0.3,1.6c0,0,0,0.1,0,0.3c0,0-0.1,0.2-0.1,0.3c1-0.2,1.3-1.4,1.4-1.6l0,0l0,0c0,0-0.3,0.9,0,1.3
		c0.1,0.1,0.2,0.2,0.3,0.2c0.1-0.4,0.4-1,0.7-1.3c0.4,0,0.7,0.2,1.1,0.4C39.3,6.7,38.9,6,38.9,6l0,0l0,0c0,0,0.3,0.3,0.5,0.5
		c0.2,0.1,0.7,0.2,1,0.1c0.1-0.1,0.3-0.2,0.3-0.3c-1,0.1-1-1.1-1.5-1.7l0,0c0.2,0.1,0.4,0.5,0.6,0.6c0,0,1.3,0.3,1.3,0.3
		c0.1,0,0.1-0.1,0.1-0.1c0,0,0.1-0.5,0.1-0.8c-0.1-0.1-0.2,0.1-0.3,0.1c-0.3-0.1-0.5-0.1-0.9-0.3l-0.6-1.2c0-0.1,0-0.1,0-0.1l0,0
		l0.8-0.5c0.1,0,0.1,0.2,0.2,0.3c0.2-0.1,0.1-0.4,0.2-0.5c0.1,0,0.1,0.2,0.2,0.3c0.2,0,0.1-0.3,0.2-0.5c0.1-0.2,0.4-0.1,0.4-0.4
		l-0.3-1.4c0-0.2-0.1-0.2-0.2-0.2c-1.1,0.4-1.9,0.8-2.9,1.1c-0.1,0-0.2,0-0.3,0L36.3,0c0.1,0.7,0.2,1.4,0.2,1.8c0,0.1,0,0.1-0.1,0.1
		c-0.3,0-0.6,0.3-0.8,0.6c-0.2,0.5-0.5,0.9-1,1.1C34.7,3.9,34.9,4,35.1,4z M38.7,1.8c0.2,0,0.4,0.1,0.4,0.4c0,0.2-0.2,0.4-0.4,0.4
		c-0.2,0-0.3-0.2-0.3-0.4C38.4,2,38.6,1.8,38.7,1.8z"/>
	<path class="st0" d="M56.2,10.6c-0.4-1.1-0.8-2.1-1.5-3c-0.2-0.2-0.2-0.2-0.5-0.4c-0.1-0.1,0-0.2,0.1-0.3c0.2-0.1,0.3-0.3,0.4-0.5
		c0.3-0.7,0.3-1.6-0.1-2.3c-0.4-0.8-1-1.1-1.7-1.1c-1.1,0-1.8,0.9-2.2,1.8c-0.5,1.2-0.3,1.8-1.1,2.3c-0.1,0.1-0.4,0.1-0.7-0.1
		c-0.1-0.1-0.3-0.4-0.2-0.6c0.1,0.1,0.2,0.2,0.3,0.3c0.1,0.1,0.3,0.1,0.4,0c0.2-0.1,0.2-0.3,0.2-0.4c0-0.2-0.1-0.4-0.3-0.5
		c-0.2-0.2-0.6-0.2-0.9,0c-0.4,0.2-0.6,0.6-0.5,1c0,0.3,0.2,0.5,0.3,0.8c0,0.1,0,0.2-0.1,0.2c-0.2,0-0.4-0.1-0.5-0.2v0
		c-0.1-0.1-0.1-0.4-0.2-0.2c-0.2,0.2-0.2,0.6-0.2,0.9c0,0.1-0.1,0.1-0.1,0.1c-0.3-0.2-0.4-0.4-0.5-0.8c-0.3,0.1-0.3,0.3-0.3,0.6
		c0,0.2,0.2,0.5,0,0.5c-0.3-0.1-0.5-0.6-0.5-1c-0.1,0-0.2,0.1-0.3,0.3c-0.1,0.2-0.1,0.5-0.4,0.4c-0.3,0-0.4-0.4-0.4-0.7
		c0-0.2-0.2,0-0.2,0.1c-0.1,0.1-0.3,0.4-0.5,0.7c-0.2-0.2-0.2-0.6-0.2-1l0,0c-0.3,0.2-0.7,1.2-1.2,1.2c-0.1,0-0.1-0.1-0.1-0.1
		c0.2-0.3,0.2-0.7,0.2-1.1c0-0.1-0.1-0.4-0.2-0.3c0,0-0.4,0.4-0.6,0.6c-0.1,0.1-0.4,0.4-0.7,0.4c0-0.2,0.5-0.8,0.2-1.7
		c-0.2,0.2-0.3,0.4-0.9,0.6c-0.4,0.1-0.6,0-0.9-0.1c0,0.3-0.1,0.6-0.3,0.8c0,0-0.8-0.4-1.1-0.4c-0.2,0-0.5,0.9-0.7,1.4
		c-0.4,0-0.8-0.3-0.9-0.7c-0.3,0.8-0.3,1.7-0.1,2.6c0,0.2,0.1,0.4,0.1,0.6h19.9C56.4,11,56.3,10.7,56.2,10.6z M53.9,6
		c-0.2,0.4-0.7,0.4-1.1,0.4c-0.2-0.1-0.4-0.2-0.6-0.4c-0.3,0.4-0.6,0.9-1.1,1.2c-0.3,0.2-0.7,0.4-1,0.4l0-0.1l0,0
		c0.7-0.7,1.1-1.9,1.4-2.5c0.4-0.7,0.7-1,1.3-1c0.5,0,1.1,0.4,1.2,0.8C54.3,5.2,54.1,5.7,53.9,6z"/>
</g>
</svg>
