<?xml version="1.0" encoding="utf-8"?>
<!-- Generator: Adobe Illustrator 26.0.1, SVG Export Plug-In . SVG Version: 6.00 Build 0)  -->
<svg version="1.1" id="Layer_1" xmlns="http://www.w3.org/2000/svg" xmlns:xlink="http://www.w3.org/1999/xlink" x="0px" y="0px"
	 viewBox="0 0 95 35" style="enable-background:new 0 0 95 35;" xml:space="preserve">
<style type="text/css">
	.st0{fill:#CCCCCC;}
</style>
<g>
	<path class="st0" d="M17.7,32.2c0.1-0.1,0.2-0.2,0.3-0.3c0.1-0.2,0.2-0.4,0.2-0.8c0-0.3-0.1-0.6-0.2-0.8c-0.2-0.4-0.6-0.6-1.1-0.6
		c-0.3,0-0.7,0-1.2,0h-3.5V35h3.5c0.4,0,0.8,0,1.1,0c0.6,0,1-0.2,1.2-0.4c0.2-0.2,0.3-0.6,0.3-1.1c0-0.4-0.1-0.7-0.2-0.9
		C18.1,32.4,17.9,32.3,17.7,32.2 M17,31.8c-0.1,0-0.3,0.1-1.2,0.1h-2.6v-1.3h2.6c0.5,0,0.8,0,1.1,0c0.1,0,0.2,0,0.3,0.1
		c0.1,0.1,0.2,0.3,0.2,0.5C17.2,31.5,17.2,31.7,17,31.8 M17.4,33.4c0,0.3-0.1,0.5-0.2,0.6c-0.1,0.1-0.2,0.1-0.4,0.1
		c-0.2,0-0.6,0-1.1,0h-2.6v-1.5h2.6c0.6,0,1,0,1.2,0c0.1,0,0.2,0,0.3,0.1C17.4,32.9,17.4,33.1,17.4,33.4"/>
	<path class="st0" d="M36.4,29.7l-3,5.3h1l0.6-1.1h3.9l0.6,1.1h1l-3-5.3H36.4z M37,30.6l1.4,2.6h-3l1.5-2.6H37z"/>
	<polygon class="st0" points="61.2,34.1 56.8,29.7 55.5,29.7 55.5,35 56.4,35 56.4,30.6 60.8,35 62.1,35 62.1,29.7 61.2,29.7 	"/>
	<polygon class="st0" points="79.7,32.3 83.6,29.7 82,29.7 78.8,31.9 78,31.9 78,29.7 77.1,29.7 77.1,35 78,35 78,32.7 78.8,32.7 
		82.2,35 83.8,35 	"/>
</g>
<g>
	<path class="st0" d="M76.6,7.4c-2.8,0-5.1,1.5-5.1,4.7c0,3.2,2.3,4.7,5.1,4.7c2.8,0,5.1-2.1,5.1-4.7C81.6,9.5,79.4,7.4,76.6,7.4z"
		/>
	<path class="st0" d="M85,0H10C6.5,0,3.8,2.8,3.8,6.2V18c0,3.4,2.8,6.2,6.2,6.2H85c3.4,0,6.2-2.8,6.2-6.2V6.2C91.2,2.8,88.5,0,85,0z
		 M21.5,7.6h-7v3.5h6.6V13h-6.6v5.4h-2.4V5.7h9.4V7.6z M26.6,18.5h-2.4V5.7h2.4V18.5z M41.4,18.5h-2.7l-4-5.6c-1-1.4-2-3-2.8-4.4
		l-0.1,0c0.1,1.7,0.1,3.3,0.1,5.4v4.6h-2.4V5.7h3l4,5.5c1,1.4,1.9,2.9,2.6,4.3h0c-0.2-1.7-0.3-3.4-0.3-5.3V5.7h2.4V18.5z M53.6,7.6
		h-7v3.5h6.6v1.9h-6.6v3.5l7,0v1.9h-9.4V5.7h9.4V7.6z M64.3,16.7c1,0,2-0.2,2.9-0.5l0.6,1.9c-1.1,0.3-2.2,0.5-3.4,0.5
		c-5.5,0-9-2.1-9-6.6c0-4.1,4-6.6,9-6.6c1.2,0,2.4,0.2,3.5,0.5l-0.6,1.9c-0.9-0.3-1.9-0.5-2.9-0.5c-3.6,0-6.5,1.5-6.5,4.7
		C57.8,15.3,60.7,16.7,64.3,16.7z M76.6,18.7c-4.1,0-7.5-2.5-7.5-6.6c0-4.1,3.4-6.6,7.5-6.6c4.1,0,7.5,3,7.5,6.6
		C84.1,15.7,80.7,18.7,76.6,18.7z"/>
</g>
</svg>
