<?xml version="1.0" encoding="utf-8"?>
<!-- Generator: Adobe Illustrator 26.0.1, SVG Export Plug-In . SVG Version: 6.00 Build 0)  -->
<svg version="1.1" id="Layer_1" xmlns="http://www.w3.org/2000/svg" xmlns:xlink="http://www.w3.org/1999/xlink" x="0px" y="0px"
	 viewBox="0 0 95 35" style="enable-background:new 0 0 95 35;" xml:space="preserve">
<style type="text/css">
	.st0{fill-rule:evenodd;clip-rule:evenodd;fill:#343741;}
	.st1{fill:#343741;}
</style>
<path class="st0" d="M18.8,6.8H2.6C1.2,6.8,0,8,0,9.5v16c0,1.5,1.2,2.6,2.6,2.6h16.2c1.5,0,2.6-1.2,2.6-2.6v-16
	C21.5,8,20.3,6.8,18.8,6.8z M20.9,25.3c0,1.3-1,2.3-2.3,2.3H2.9c-1.3,0-2.3-1-2.3-2.3V9.7c0-1.3,1-2.3,2.3-2.3h15.7
	c1.3,0,2.3,1,2.3,2.3V25.3z"/>
<path class="st0" d="M3.7,14.8l-2.5,0.4v4.2l2.5-0.5l2.4,0.5v-4.2L3.7,14.8z M5.7,19l-2-0.5l-2.1,0.4v-3.4l2.1-0.4l2,0.4V19z"/>
<polygon class="st1" points="0.9,19.4 20.8,19.4 20.8,19.6 0.9,19.6 0.9,19.4 "/>
<path class="st0" d="M20,18.5c0,0-0.3-0.6-1.4-0.4c0,0-0.8-0.8-1.2-1.6c0,0-1.1-1.7-1.1-1.7s-0.6-1.2-2.5-1.3c0,0-1.7-0.1-2-0.1
	c0,0,0-0.4,0-0.4s2.2,0.2,2.7-0.8c0,0,1.6,0.1,2.1-0.8c0,0,1.5,0,2-1.3c0,0,0,0,0,0c0,0-0.4,0-1.2,0c0,0-3.8,0-6.9,0
	c0,0-0.5,0-0.9,0.5c0,0-0.2,0.2-0.2,0.2C8.8,10,7.7,9.7,7.7,9.7C7,9.4,6.4,9.7,6.4,9.7c-0.5,0.2-0.6,0.8-0.6,0.8s-0.5,0.3-0.4,0.6
	c0,0-0.6,0.7-0.6,0.7S4.6,12,5,12.3c0,0-0.2,0.4,0.2,0.7c0,0-0.3,0.4,0.1,0.7c0,0-0.2,0.4-0.2,0.5c0,0-1.1-0.8-1.6-0.2
	c0,0-1-0.1-0.7,0.9c0,0,0.2,0.4,0.6,0.5l0.2-0.3c0,0-0.3-0.2-0.3-0.4c-0.1-0.2,0-0.5,0.4-0.4c0,0,0.7-0.9,1.7,0.7
	c0,0,0.3-0.3,0.3-0.3s-0.4-0.5,0.1-0.9c0,0,0.8,0.2,1.2-0.2c0,0,0.6-0.4,0.3-1.4c0,0-0.2-0.5,0.4-0.5c0,0-0.1-0.7-0.1-0.7
	S7.9,11,8,10.2c0,0,0.9,0.3,1.1,0.9c0,0-0.1,0.5-0.2,1c0,0-0.3,1.1-0.4,1.1c0,0,0.5,0,0.5,0.7c0,0,0,0.7-0.7,0.6
	c0,0-0.1,0.3-0.1,0.3s0.4,0.2,0.3,0.5c0,0-0.1,0.5-0.6,0.4c0,0-0.2,1-0.9,1c0,0,0.3-0.7,0-1c0,0-0.5,0.4-0.8,0.5c0,0,0,0.5,0,0.5
	s0.5-0.2,0.5-0.2c0,0,0,0.4-0.2,0.6c0,0,0.5,0.2,1,0v-0.2l0.5-0.3c0,0,0,0.1,0,0.2c0.1-0.1,0.3-0.3,0.4-0.6c0,0,0.7-0.1,0.7-0.7
	c0,0,0-0.2-0.1-0.6c0,0,0.7-0.3,0.7-1c0,0-0.1-0.6-0.5-0.8c0,0,0.3-0.4,0.3-0.9c0,0,0.3-1.8,1.3-1.7c0,0,1.5,0,1.5,0h1.9
	c0,0,0,0.3-0.5,0.5c0,0-2.9,0-2.9,0s-0.6,0.3-0.1,0.3c0,0,2.5,0,2.5,0s0,0.3-0.6,0.5h-2.1c0,0-0.5,0.3-0.2,0.3c0,0,1.6,0,1.6,0
	s0,0.3-0.7,0.5c0,0-1,0-1,0s-0.5,0.3-0.1,0.3c0,0,1.6,0,1.6,0s0,0.3-0.1,0.4c0,0-0.3,0.5-0.7-0.2c0,0-0.3,0.1-0.3,0.1
	s0.1,0.9,1.2,0.5c0,0,1.2-0.1,2.6,0.1c0,0,0.6,1.8,2.2,2.3c0,0,0.5,0.2,0.5,0.6c0,0,0.1,0.9,0.1,1.8c0,0,0,0.3-0.4,0.3
	c0,0-0.3-0.1-0.8,0.2c0,0-0.4,0.1-0.5-0.2c0,0,0-0.2,0.2-0.3c0,0,0-0.5,0.4-0.3c0,0,0.1,0.1,0.1,0.1l0.5-0.2c0,0,0.1-1.1-0.2-1.3
	c0,0-0.3-0.3-1.5-0.5c0,0-1.2-0.1-1.8-0.7c0,0-0.3-0.4-1.5-0.1c0,0-2.2,0.6-2.9,0.4c0,0-0.2,0.5-0.1,1.9l-0.2,0.2c0,0,0,0.8-0.8,0.5
	c0,0-0.6,0.7-0.8,0.1c0,0-0.1-0.5,0.6-0.4c0,0,0.5,0.1,0.6-0.5c0,0,0-0.9,0.1-1.4c-0.1,0.1-0.3,0.2-0.4,0.3v0.7c0,0,0.1,0.6-0.5,0.4
	c0,0-0.7-0.1-0.7,0.7c0,0,0.1,1.3,1.4,0.4c0,0,0.9,0.2,1-0.8c0,0,0.2-0.2,0.2-0.2s-0.2-0.7,0-1.7c0,0,1.6,0,2.5-0.4c0,0,1,1.3,1,1.3
	s0.3,0.2-0.3,0.8c0,0-0.7-0.5-1.2,0.2c0,0.1-0.3,0.3,0.1,1c0,0,0.6-0.3,1,0c0,0,0.4-0.2,0.6,0c0.1,0,1.3-1.4,1.3-1.4s0.2-0.2,0-0.5
	c0,0-0.2-0.8-0.2-0.8s1,0.2,1.9,0.4c0,0,0.8,0,0.6,0.9c0,0-0.8-0.3-0.9,0.5c0,0-0.7,0.7,0.3,1.1c0,0,0.3-0.1,0.9-0.3
	c0,0,1,0.3,0.9-0.7c0,0,0-1.3,0-1.3s2.3,3.2,3.5,1.5C20.9,18.7,20.4,18.9,20,18.5z M7.1,10c0,0-0.3,0.1-0.4,0.3c0,0-0.3,0-0.3,0
	S6.4,10,7.1,10z M7.1,11l0.1,0.5c0,0-0.4,0.1-0.4,0.7c0,0,0.4,1-0.4,1.3c0,0-0.5,0.2-0.8-0.1c0,0,0.5,0,0.8-0.2c0,0,0.4-0.4,0.1-0.8
	c0,0-0.3-0.4-0.9,0.1c0,0-0.3,0.2-0.3-0.1c0,0,0.1-0.1,0.2-0.2c0,0-0.3-0.3-0.3-0.3l0.3-0.3c0,0,0.2-0.2,0.3,0.1c0,0,0,0.1,0,0.1
	s0.2,0.1,0.3,0c0,0,0.2-0.3,0.1-0.4c0,0-0.3,0-0.3,0s-0.3,0,0-0.5c0,0,0.2-0.3,0.9-0.3c0,0,0.4-0.4,0.7-0.4
	C7.5,10.3,7.7,10.6,7.1,11z M5.6,13C5.6,13,5.7,12.9,5.6,13C5.9,12.9,6,12.7,6,12.7c0.3-0.1,0.2,0.1,0.3,0.1C6.2,13.1,5.6,13,5.6,13
	z M14.2,10.8l0.1-0.2l0.1-0.2c0,0,3,0,3.5,0c0,0,0.1,0.3-1,0.6c-1.2,0-2.9,0-2.9,0L14.2,10.8z M12.9,11.7l0.2-0.3l0.1-0.1
	c0,0,2.3,0,2.9,0c0,0-0.1,0.4-1.1,0.6c-1.2,0-2.3,0-2.3,0L12.9,11.7z M11.6,12.5l0.2-0.2l0.1-0.1c0,0,1.6,0,2,0c0,0,0,0.3-1,0.5
	c-1.2,0-1.5,0-1.5,0L11.6,12.5z M15.3,15c-0.5-0.5-0.7-0.9-0.6-1c0.1-0.1,0.5,0.1,0.9,0.6c0.5,0.5,0.8,1.1,0.8,1.1
	C16.3,15.8,15.7,15.5,15.3,15z M13.3,18c0,0-0.4,0.5-0.8,1c-0.4-0.1-0.6,0.1-0.6,0.1c-0.3-0.3-0.8,0-0.8,0c-0.1-0.3,0.1-0.4,0.1-0.4
	c0.3-0.3,0.8,0.2,0.8,0.2s0.7-0.9,0.7-0.9c0.1-0.2,0-0.3,0-0.3s-0.9-1.4-0.9-1.4c-0.2-0.3,0.4-0.2,0.4-0.2c0.5,0.1,0.7,0.3,0.7,0.3
	s0.4,1,0.4,1C13.5,17.8,13.3,18,13.3,18z M19.2,18.7c-0.2-0.1-0.2-0.1-0.2-0.2c0,0,0.3,0,0.4,0.1c0.2,0.1,0.3,0.2,0.2,0.2
	C19.7,18.8,19.4,18.7,19.2,18.7z"/>
<path class="st0" d="M2.1,17C2.1,17,2.1,16.9,2.1,17l0.1-0.3c0,0-0.1-0.1-0.1,0v-0.1l0.4-0.1v0.1c0,0,0-0.1-0.1,0v0.3c0,0,0,0,0.1,0
	C2.3,16.9,2.1,17,2.1,17L2.1,17z"/>
<path class="st0" d="M2.4,16.9C2.4,16.9,2.5,16.9,2.4,16.9l0.1-0.4c0,0,0-0.1,0-0.1l0.2,0c0,0,0,0,0,0.1c0,0,0,0.3,0,0.3s0,0,0.1,0
	C2.6,16.8,2.4,16.9,2.4,16.9L2.4,16.9z"/>
<path class="st0" d="M3.1,16.7C3.1,16.7,3.2,16.7,3.1,16.7l0.1-0.3c0,0,0-0.1,0-0.1l0.2,0c0,0,0,0,0,0.1c0,0,0,0.3,0,0.3s0,0,0.1,0
	L3.1,16.7L3.1,16.7z"/>
<path class="st0" d="M2.6,17.4C2.6,17.4,2.5,17.5,2.6,17.4c-0.1,0-0.1-0.2-0.1-0.2s0-0.1,0-0.1l-0.1,0c0,0-0.1,0.1-0.1,0.2
	c0,0,0-0.1-0.1-0.1c0,0,0,0-0.1,0c0,0-0.1,0-0.1,0s0.1,0,0.1,0.1c0,0,0,0.3,0,0.3s0,0-0.1,0.1c0,0,0.2,0,0.2,0s0,0-0.1,0
	c0,0,0-0.3,0-0.3s0.1,0,0.1,0.2c0,0,0-0.2,0.1-0.2l0,0.2c0,0,0,0.1-0.1,0.1C2.4,17.6,2.6,17.5,2.6,17.4L2.6,17.4L2.6,17.4z"/>
<path class="st0" d="M2.4,17.9c0,0-0.1-0.1,0-0.2c0,0,0,0-0.2,0c0,0-0.2,0-0.2,0.3c0,0,0,0.1,0.1,0.2c0,0,0.1,0.1,0.3,0
	c0,0,0.1-0.2,0-0.1c0,0-0.2,0.2-0.3-0.1c0,0,0-0.2,0.2-0.2C2.3,17.8,2.3,17.8,2.4,17.9C2.4,17.9,2.4,17.9,2.4,17.9L2.4,17.9z"/>
<path class="st0" d="M2.5,18.2C2.5,18.2,2.5,18.2,2.5,18.2c0-0.1,0-0.4,0-0.4s0-0.1-0.1-0.1l0.2-0.1c0,0,0.1,0,0.1,0.1
	c0,0,0-0.1-0.2,0c0,0,0,0.1,0,0.1h0.1c0,0,0,0,0.1,0V18c0,0,0,0-0.1,0c0,0-0.1,0-0.1,0v0.1c0,0,0,0.1,0.2-0.1c0,0,0,0.1-0.1,0.1
	L2.5,18.2L2.5,18.2z"/>
<path class="st0" d="M3.1,18.1C3.1,18.1,3.1,18,3.1,18.1c0.1-0.1,0.1-0.4,0.1-0.4s0-0.1-0.1-0.1l0.2-0.1c0,0,0.1,0,0.1,0.1
	c0,0,0-0.1-0.2,0c0,0,0,0.1,0,0.1h0.1c0,0,0,0,0.1,0v0.1c0,0,0,0-0.1,0c0,0-0.1,0-0.1,0V18c0,0,0,0.1,0.2-0.1c0,0,0,0.1-0.1,0.1
	L3.1,18.1L3.1,18.1z"/>
<path class="st0" d="M3.9,18c0,0,0.1-0.3,0.1-0.3s0-0.1,0-0.1l0.1,0c0,0,0.1,0.1,0.1,0.2c0,0,0-0.1,0.1-0.1c0,0,0,0,0.1,0
	c0,0,0.1,0,0.1,0s0,0-0.1,0.1V18c0,0,0,0.1,0.1,0.1l-0.2,0c0,0,0.1,0,0.1-0.1v-0.3c0,0-0.1,0-0.1,0.2c0,0-0.1-0.2-0.1-0.2L3.9,18
	C4,18,4,18,4,18C4,18.1,3.8,18,3.9,18C3.8,18,3.9,18,3.9,18L3.9,18z"/>
<path class="st0" d="M4.3,18.1c0,0,0.1,0,0.2,0v-0.3c0,0,0-0.1,0-0.1l0.2,0c0,0,0.1,0,0,0.1c0,0-0.1-0.1-0.2-0.1c0,0,0,0.1,0,0.1
	h0.1c0,0,0,0,0,0V18c0,0,0,0,0,0l-0.1,0v0.1c0,0,0,0.1,0.2,0c0,0,0,0.1-0.1,0.1L4.3,18.1L4.3,18.1z"/>
<path class="st0" d="M5.5,18c0,0-0.1-0.1-0.2-0.1c0,0,0,0,0,0.1c0,0,0.2,0.1,0.2,0.1c0,0,0.1,0.2-0.2,0.2c0,0-0.1,0-0.1-0.1
	c0,0,0-0.1,0.1-0.1c0,0,0,0.1,0,0.1c0,0,0.1,0,0.1,0c0,0,0.1-0.1-0.1-0.1c0,0,0,0-0.1,0c0,0,0-0.1,0.1-0.2c0,0,0.1,0,0.1,0
	c0,0,0,0,0.1,0C5.5,17.9,5.4,17.9,5.5,18L5.5,18z"/>
<path class="st0" d="M4.5,17.5C4.5,17.5,4.5,17.4,4.5,17.5l0-0.4c0,0,0.1-0.1,0.1,0V17l-0.4-0.1v0.1c0,0,0-0.1,0.1,0v0.3
	c0,0,0,0-0.1,0L4.5,17.5L4.5,17.5z"/>
<path class="st0" d="M4.2,17.1c0,0-0.1-0.1-0.2-0.1c0,0,0,0,0,0.1c0,0,0.2,0.1,0.2,0.1c0,0,0.1,0.2-0.2,0.2c0,0-0.1,0-0.1-0.1
	c0,0,0-0.1,0.1-0.1c0,0,0,0.1,0,0.1c0,0,0.1,0,0.1,0c0,0,0.1-0.1-0.1-0.2c0,0,0,0-0.1,0c0,0,0-0.1,0.1-0.2c0,0,0.1,0,0.1,0
	c0,0,0,0,0.1,0C4.2,17,4.2,17,4.2,17.1L4.2,17.1z"/>
<path class="st0" d="M4.3,16.5c0,0,0-0.1,0-0.2c0,0-0.1,0-0.1,0c0,0,0,0-0.1,0c0,0-0.2,0-0.2,0.2c0,0,0,0.1,0.1,0.2
	c0,0,0.2,0.1,0.3-0.1C4.3,16.6,4.3,16.6,4.3,16.5c0,0.1,0,0.1-0.1,0c0,0,0.1,0.1,0,0.1c0,0-0.1,0-0.1-0.1c0,0,0-0.1,0-0.2
	C4.1,16.4,4.1,16.3,4.3,16.5L4.3,16.5L4.3,16.5z"/>
<path class="st0" d="M4.3,16.8C4.3,16.8,4.4,16.8,4.3,16.8c0.1,0,0.1-0.3,0.1-0.3s0-0.1,0-0.1l0.2,0c0,0,0.1,0,0,0.1
	c0,0,0-0.1-0.2-0.1c0,0,0,0.1,0,0.1h0.1c0,0,0,0,0,0v0.1c0,0,0,0,0,0c0,0-0.1,0-0.1,0v0.1c0,0,0,0.1,0.2,0c0,0,0,0.1-0.1,0.1
	L4.3,16.8L4.3,16.8z"/>
<path class="st0" d="M5.3,17C5.3,17,5.2,16.9,5.3,17l-0.1-0.4c0,0,0-0.1,0-0.1l-0.2,0c0,0,0,0,0,0.1v0.3c0,0,0,0-0.1,0L5.3,17
	L5.3,17z"/>
<path class="st0" d="M5,16.9C5,16.9,5,16.9,5,16.9c0.1-0.1,0,0-0.1-0.1v-0.3c0,0,0-0.1,0-0.1l-0.2,0c0,0,0,0,0,0.1c0,0,0,0.3,0,0.3
	s0,0-0.1,0L5,16.9L5,16.9z"/>
<path class="st0" d="M3.9,15.6C3.9,15.6,3.9,15.6,3.9,15.6c0,0.1,0.1,0.3,0.1,0.4c0,0,0,0.1,0.1,0c0.1-0.1,0.2-0.3,0.2-0.3
	s0-0.1,0.1-0.1l-0.2,0c0,0,0.1,0.1,0,0.1L4.1,16c0,0-0.1-0.1-0.1-0.3c0,0,0-0.1,0.1-0.1C4.1,15.7,3.9,15.6,3.9,15.6L3.9,15.6z"/>
<path class="st0" d="M4.8,15.9v0.3c0,0,0,0,0,0.1c0,0-0.1,0-0.1,0s0,0,0,0C4.8,16.2,4.8,15.9,4.8,15.9c-0.1-0.1-0.1-0.1-0.1-0.2
	C4.7,15.8,4.8,15.8,4.8,15.9c0-0.1,0.2,0.2,0.2,0.2v-0.3c0,0,0,0,0,0l0.1,0c0,0,0,0,0,0c0,0,0,0.5-0.1,0.4L4.8,15.9L4.8,15.9z"/>
<path class="st0" d="M4.8,17.7C4.8,17.7,4.8,17.8,4.8,17.7c0,0.1,0,0.3,0.1,0.4c0,0,0,0.1,0.1,0c0.1-0.1,0.2-0.3,0.2-0.3
	s0,0,0.1-0.1l-0.2,0c0,0,0.1,0.1,0,0.1L5,18.1c0,0-0.1-0.1-0.1-0.3c0,0,0-0.1,0.1-0.1L4.8,17.7L4.8,17.7z"/>
<path class="st0" d="M2.6,16c0,0,0-0.1,0-0.1c0,0,0,0,0.1,0.1L2.6,16L2.6,16z M2.6,16.2l-0.2,0C2.4,16.3,2.5,16.2,2.6,16.2
	c-0.1-0.1,0-0.4,0-0.4s0-0.2,0.1,0c0,0,0.2,0.3,0.2,0.3s0,0.1,0.1,0C2.9,16.1,3,16,3,16l-0.1-0.2c0,0-0.1,0-0.1,0c0,0,0.2,0,0.2,0
	s0,0,0,0.1L3,15.9l0-0.1c0,0,0,0,0-0.1c0,0,0.1,0,0.1,0l-0.1,0.1l-0.1,0.1l0.1,0.2c0,0,0,0,0.1,0c0,0-0.2,0-0.2,0s0,0,0,0
	C3.1,16.1,3,16,3,16L3,16.1c0,0,0,0,0.1,0l-0.3,0.1c0,0,0.1,0,0,0l-0.1-0.1c0,0-0.1,0-0.1,0L2.6,16.2L2.6,16.2L2.6,16.2z"/>
<path class="st0" d="M3,16.6c0,0,0.1,0,0,0.1c0,0-0.1,0-0.1,0v-0.1L3,16.6L3,16.6z M2.9,16.6v-0.1l0.1,0c0,0,0.1,0,0,0.1L2.9,16.6
	L2.9,16.6z M2.7,16.8C2.7,16.8,2.8,16.8,2.7,16.8c0-0.1,0-0.3,0-0.3s0-0.1,0-0.1l0.3,0c0,0,0.2,0,0.1,0.2c0,0,0.2,0.1-0.1,0.2
	C3,16.8,2.7,16.8,2.7,16.8L2.7,16.8z"/>
<path class="st0" d="M2.2,16.1V16l0.1,0c0,0,0.1,0,0,0.1C2.3,16,2.3,16.1,2.2,16.1L2.2,16.1L2.2,16.1z M2.2,16.3c-0.1,0-0.2,0-0.2,0
	s0.1,0,0.1-0.1V16c0,0,0-0.1,0-0.1l0.3,0c0,0,0.1,0,0.1,0.2c0,0,0,0.1-0.2,0.1C2.2,16.2,2.2,16.3,2.2,16.3
	C2.2,16.3,2.2,16.3,2.2,16.3L2.2,16.3z"/>
<path class="st0" d="M2.7,17.3c0,0,0-0.1,0-0.1c0,0,0,0,0.1,0.1L2.7,17.3L2.7,17.3z M2.7,17.5l-0.2,0c0,0,0,0,0.1-0.1
	c0,0,0.1-0.3,0.1-0.3s0-0.2,0.1,0c0,0,0.2,0.3,0.2,0.3s0,0.1,0.1,0V17c0,0,0,0,0-0.1c0,0,0.3-0.1,0.3-0.1s0.1,0,0.1,0.1
	c0,0.1,0,0.1,0,0.1c0,0-0.1,0.1-0.1,0.1l0.1,0.1c0,0,0,0,0.1,0c0,0-0.2,0-0.2,0s0,0,0-0.1c0,0-0.1-0.1-0.1-0.1v0.1c0,0,0,0,0.1,0.1
	c0,0-0.3,0.1-0.3,0.1s0.1,0,0-0.1l-0.1-0.1c0,0-0.1,0-0.1,0L2.7,17.5L2.7,17.5L2.7,17.5z M3.1,17.2V17l0.1,0c0,0,0.1,0,0,0.1
	C3.2,17.1,3.1,17.2,3.1,17.2L3.1,17.2z"/>
<path class="st0" d="M4.5,16c0,0,0-0.1,0-0.1C4.5,15.8,4.5,15.9,4.5,16L4.5,16L4.5,16z M4.7,16.2C4.7,16.2,4.6,16.2,4.7,16.2
	l-0.1-0.4c0,0,0-0.2-0.1,0c0,0-0.1,0.3-0.1,0.3s0,0.1-0.1,0.1c0,0,0.2,0,0.2,0s0,0,0-0.1L4.4,16c0,0,0.1,0,0.1,0
	C4.5,16,4.6,16.1,4.7,16.2c-0.1-0.1-0.1,0-0.1,0C4.5,16.2,4.7,16.2,4.7,16.2L4.7,16.2z"/>
<path class="st0" d="M4.9,17.3c0,0,0-0.1,0-0.1C4.8,17.2,4.8,17.2,4.9,17.3L4.9,17.3L4.9,17.3z M5,17.6C5,17.6,5,17.5,5,17.6
	l-0.1-0.4c0,0,0-0.2-0.1,0c0,0-0.1,0.3-0.1,0.3s0,0-0.1,0.1c0,0,0.2,0,0.2,0s0,0,0-0.1l0.1-0.1c0,0,0.1,0,0.1,0
	C4.9,17.4,4.9,17.5,5,17.6c-0.1-0.1-0.1,0-0.1,0C4.9,17.5,5,17.6,5,17.6L5,17.6z"/>
<path class="st0" d="M34.7,24.1v-0.7h-0.2l-0.1,0.1c-0.2-0.1-0.4-0.2-0.6-0.2c-0.5,0-0.9,0.4-0.9,0.9c0,0.5,0.3,0.8,1,0.9
	c0.3,0.1,0.7,0.1,0.7,0.4c0,0.4-0.3,0.6-0.7,0.6c-0.5,0-0.6-0.4-0.8-0.8H33l0,0.9l0.1,0l0.2-0.1c0.2,0.2,0.4,0.2,0.6,0.2
	c0.6,0,1-0.3,1-1c0-0.6-0.4-0.8-1-0.9c-0.6-0.1-0.6-0.2-0.6-0.4c0-0.3,0.3-0.5,0.5-0.5c0.4,0,0.6,0.3,0.7,0.7L34.7,24.1L34.7,24.1z"
	/>
<path class="st0" d="M94.1,25.9c0-0.2,0.2-0.4,0.4-0.4c0.2,0,0.4,0.2,0.4,0.4c0,0.2-0.2,0.4-0.4,0.4C94.3,26.3,94.1,26.1,94.1,25.9
	L94.1,25.9z"/>
<path class="st0" d="M88.7,25.9c0-0.2,0.2-0.4,0.4-0.4c0.2,0,0.4,0.2,0.4,0.4c0,0.2-0.2,0.4-0.4,0.4C88.9,26.3,88.7,26.1,88.7,25.9
	L88.7,25.9z"/>
<path class="st0" d="M84.5,25.9c0-0.2,0.2-0.4,0.4-0.4c0.2,0,0.4,0.2,0.4,0.4c0,0.2-0.2,0.4-0.4,0.4C84.7,26.3,84.5,26.1,84.5,25.9
	L84.5,25.9z"/>
<path class="st0" d="M81.8,26.1c0.2,0.2,0.7,0.3,1,0.3c0.9,0,1.6-0.7,1.6-1.5c0-0.6-0.3-1.1-0.9-1.4c-0.1-0.1-1.5-0.2-1.6-0.8
	c-0.1-0.5,0.3-0.9,0.8-0.9c0.7,0,1.1,0.4,1.2,1.1h0.3v-1.2h-0.2l-0.2,0.2l-0.1,0.1c-0.3-0.3-0.5-0.4-1-0.4c-0.7,0-1.3,0.6-1.3,1.4
	c0,0.7,0.4,1.1,1.3,1.3c0.6,0.1,1.2,0.4,1.2,1.1c0,0.6-0.6,1-1.1,1c-0.7,0-1.1-0.7-1.3-1.2h-0.2v1.3h0.2L81.8,26.1L81.8,26.1z"/>
<path class="st0" d="M54.4,23.5c-0.4,0-0.7,0-1,0v0.2l0.2,0l0.1,0l0.1,0V26l-0.1,0.1l-0.1,0h-0.1v0.2h1.2l0-0.2h-0.2L54.4,26l0-0.1
	l0-0.8c0-0.3,0-0.7,0.1-0.9c0.1-0.3,0.3-0.6,0.6-0.6c0.4,0,0.4,0.5,0.4,1.2V26l0,0.1l-0.1,0l-0.1,0h-0.1v0.2h1.3v-0.2h-0.1l-0.1,0
	l-0.1,0v-2c-0.1-0.4-0.4-0.7-0.9-0.7c-0.4,0-0.4,0.1-0.7,0.4l-0.1-0.1L54.4,23.5L54.4,23.5z"/>
<path class="st0" d="M79.5,26.3v-0.1l-0.4-0.1v-2.7c-0.4,0-0.6,0-1,0v0.2l0.4,0.1v2.5l-0.4,0.1v0.1H79.5L79.5,26.3z"/>
<path class="st0" d="M78,26.3v-0.2h-0.3c0,0-0.1,0-0.1,0c0,0,0-0.1,0-0.1v-4.3l0-0.2c0,0-0.1,0-0.2,0c-0.4,0.1-0.5,0.1-0.9,0.1v0.2
	l0.3,0c0,0,0.1,0,0.1,0c0,0,0,0.1,0,0.1l0,4.2c0,0,0,0.1,0,0.1c-0.1,0-0.1,0-0.1,0h-0.2v0.2H78L78,26.3z"/>
<path class="st0" d="M67.2,23.4c-0.4,0-0.7,0-1,0v0.2l0.2,0l0.1,0l0.1,0V26l-0.1,0.1l-0.1,0h-0.1v0.2h1.2l0-0.2h-0.2L67.3,26l0-0.1
	l0-0.8c0-0.3,0-0.7,0.1-0.9c0.1-0.3,0.3-0.6,0.6-0.6c0.4,0,0.4,0.5,0.4,1.2v1.1l0,0.1l-0.1,0l-0.1,0h-0.1v0.2h1.3v-0.2h-0.1l-0.1,0
	l-0.1,0v-2c-0.1-0.4-0.4-0.7-0.9-0.7c-0.4,0-0.4,0.1-0.7,0.4l-0.1-0.1L67.2,23.4L67.2,23.4z"/>
<path class="st0" d="M62.9,22.7l0-0.1v-1.1l0-0.1l-0.1,0l-0.3,0.2c-0.4-0.3-0.6-0.4-1-0.4c-0.6,0-1,0.3-1.4,0.8
	c-0.4,0.5-0.6,1.1-0.6,1.7c0,0.6,0.1,1.2,0.5,1.6c0.5,0.6,0.9,0.9,1.6,0.9c0.9,0,1.6-0.5,1.6-1.7h0.4v-0.2h-1.8v0.2h0.6
	c0,0.7,0,1.4-0.8,1.4c-1.1,0-1.1-1.4-1.1-2.3c0-1.1,0.1-2.2,1.2-2.2c0.7,0,1,0.6,1.1,1.2L62.9,22.7L62.9,22.7L62.9,22.7z"/>
<path class="st0" d="M57.9,26.3v-0.1l-0.4-0.1v-2.7c-0.4,0-0.6,0-1,0v0.3l0.4,0.1v2.4l-0.4,0.1v0.1H57.9L57.9,26.3z"/>
<path class="st0" d="M50.7,26.3v-0.1l-0.4-0.1v-2.7c-0.4,0-0.6,0-1,0v0.2l0.4,0.1v2.5l-0.4,0.1v0.1H50.7L50.7,26.3z"/>
<path class="st0" d="M47.1,24.4h0.2c0-0.2,0-0.2,0.1-0.4c0.2-0.4,0.5-0.3,1-0.3l-1.5,2.4v0.2h2.1l0.1,0l0.1-0.1l0-0.1v-0.8l0-0.1
	l-0.1,0h-0.1c0,0.3-0.1,0.8-0.8,0.8l-0.4,0l1.5-2.4v-0.2l-2,0l-0.1,0l0,0.1V24.4L47.1,24.4z"/>
<path class="st0" d="M43.1,23.4c-0.4,0-0.7,0-1,0v0.2h0.3l0.1,0l0,0.1v0.1l0,2.2l0,0.1h-0.3v0.2h1.4v-0.2h-0.3l-0.1,0l0-0.1l0-0.8
	c0-0.8,0-1.1,0.4-1.4c0.1-0.1,0.1,0.1,0.1,0.1c0,0.2,0.1,0.3,0.3,0.3c0.2,0,0.4-0.1,0.4-0.3c0-0.3-0.2-0.4-0.5-0.4
	c-0.2,0-0.3,0.1-0.5,0.2c-0.1,0.1-0.2,0.2-0.3,0.1l0-0.1L43.1,23.4L43.1,23.4z"/>
<path class="st0" d="M40.9,26.3c0,0,0.1,0,0.1,0c0.3,0,0.5,0,0.8,0c0,0,0,0,0.1,0l0-0.1l0-0.1l-0.1,0L41.5,26v-2.4l0-0.1
	c-0.1-0.1-0.1-0.1-0.2-0.1c-0.3,0-0.5,0-0.8,0l-0.1,0.1v0.1l0.1,0.1h0.2l0.1,0l0,0.1V25c0,1-0.4,1.1-0.6,1.1c-0.3,0-0.4-0.2-0.4-0.5
	v-2c0,0,0-0.1-0.1-0.1c-0.2,0-0.5,0-0.8,0l-0.1,0.1l0,0.1l0.1,0h0.2l0.1,0l0,0.1v1.7c0,0.5,0.3,0.9,0.8,0.9c0.4,0,0.5,0,0.8-0.3h0.1
	L40.9,26.3L40.9,26.3z"/>
<path class="st0" d="M37.2,24.7c0-0.5,0.2-1.2,0.6-1.2c0.1,0,0.4,0,0.5,0.2c0,0.2-0.1,0.1-0.1,0.4c0,0.2,0.2,0.3,0.3,0.3
	c0.2,0,0.3-0.1,0.3-0.3c0-0.5-0.4-0.8-1-0.8c-0.4,0-0.6,0.2-0.9,0.4c-0.2,0.2-0.4,0.6-0.4,1.1c0,0.8,0.6,1.6,1.2,1.6
	c0.5,0,1-0.2,1.1-1l-0.1-0.1l-0.1,0c-0.2,0.6-0.4,0.8-0.9,0.8c-0.4,0-0.6-0.5-0.6-0.8V24.7L37.2,24.7z"/>
<path class="st0" d="M36.5,26.3v-0.2L36.1,26v-2.6c-0.4,0-0.6,0-1,0v0.2l0.4,0.1V26l-0.4,0.1v0.2H36.5L36.5,26.3z"/>
<path class="st0" d="M32.5,24.1v-0.7h-0.2l-0.1,0.1c-0.2-0.1-0.4-0.2-0.6-0.2c-0.5,0-0.9,0.4-0.9,0.9c0,0.5,0.3,0.8,1,0.9
	c0.3,0.1,0.7,0.1,0.7,0.4c0,0.4-0.3,0.6-0.7,0.6c-0.5,0-0.6-0.4-0.8-0.8h-0.2l0,0.9l0.1,0l0.2-0.1c0.2,0.2,0.4,0.2,0.6,0.2
	c0.6,0,1-0.3,1-1c0-0.6-0.4-0.8-1-0.9c-0.6-0.1-0.6-0.2-0.6-0.4c0-0.3,0.3-0.5,0.5-0.5c0.4,0,0.6,0.3,0.7,0.7L32.5,24.1L32.5,24.1z"
	/>
<path class="st0" d="M72.7,23.4c-0.4,0-0.7,0-1,0v0.2H72l0.1,0l0,0v0.1l0,2.2l0,0.1h-0.3v0.2h1.4v-0.2h-0.3l-0.1,0l0-0.1l0-0.8
	c0-0.8,0-1.1,0.4-1.4c0.1-0.1,0.1,0.1,0.1,0.1c0,0.2,0.1,0.3,0.3,0.3c0.2,0,0.4-0.1,0.4-0.3c0-0.3-0.2-0.4-0.5-0.4
	c-0.2,0-0.3,0.1-0.5,0.2c-0.1,0.1-0.2,0.2-0.3,0.1l0-0.1L72.7,23.4L72.7,23.4z"/>
<path class="st0" d="M78.3,22c0-0.2,0.2-0.4,0.4-0.4c0.2,0,0.4,0.2,0.4,0.4c0,0.2-0.2,0.4-0.4,0.4C78.5,22.4,78.3,22.2,78.3,22
	L78.3,22z"/>
<path class="st0" d="M56.8,22c0-0.2,0.2-0.4,0.4-0.4c0.2,0,0.4,0.2,0.4,0.4c0,0.2-0.2,0.4-0.4,0.4C57,22.4,56.8,22.2,56.8,22
	L56.8,22z"/>
<path class="st0" d="M49.6,22c0-0.2,0.2-0.4,0.4-0.4c0.2,0,0.4,0.2,0.4,0.4c0,0.2-0.2,0.4-0.4,0.4C49.8,22.4,49.6,22.3,49.6,22
	L49.6,22z"/>
<path class="st0" d="M35.3,22c0-0.2,0.2-0.4,0.4-0.4c0.2,0,0.4,0.2,0.4,0.4c0,0.2-0.2,0.4-0.4,0.4C35.5,22.4,35.3,22.3,35.3,22
	L35.3,22z"/>
<path class="st0" d="M27.9,24.3h1l-0.4-1.2c-0.1-0.1-0.2,0-0.2,0L27.9,24.3L27.9,24.3z M28.5,21.6l-1.4,4.5h-0.5v0.2h1.3v-0.2h-0.5
	l0.4-1.4H29l0.5,1.4H29v0.2h1.7v-0.2h-0.5l-1.4-4.5C28.8,21.6,28.6,21.3,28.5,21.6L28.5,21.6L28.5,21.6z"/>
<path class="st0" d="M45.7,25.3c0,0.1,0,0.3,0,0.4c-0.1,0.2-0.3,0.4-0.5,0.4c-0.3,0-0.5-0.2-0.5-0.5c0-0.6,0.6-0.6,1-0.6L45.7,25.3
	L45.7,25.3z M45.6,24.6c-0.5,0.1-1.5,0.2-1.5,1.1c0,0.5,0.4,0.7,0.7,0.7c0.3,0,0.6-0.1,0.8-0.4c0.1,0.2,0.2,0.4,0.5,0.4
	c0.2,0,0.4-0.2,0.6-0.5c0,0,0-0.2-0.1-0.1c0,0-0.2,0.2-0.3,0.2c-0.1,0-0.1,0-0.1-0.1l0-1.9c0-0.2-0.1-0.4-0.3-0.5
	c-0.2-0.1-0.5-0.2-0.7-0.2c-0.2,0-0.9,0.3-0.9,0.7c0,0.2,0.1,0.3,0.3,0.3c0.1,0,0.3-0.1,0.3-0.3c0-0.1-0.1-0.2-0.1-0.2
	c-0.1-0.1,0.2-0.3,0.4-0.3c0.1,0,0.4,0,0.4,0.3V24.6L45.6,24.6z"/>
<path class="st0" d="M52.6,24.8c0,1-0.1,1.3-0.6,1.3c-0.5,0-0.6-0.3-0.6-1.3c0-0.8,0.1-1.3,0.6-1.3C52.6,23.6,52.6,24,52.6,24.8
	L52.6,24.8z M50.7,24.8c0,0.8,0.6,1.5,1.4,1.5c0.7,0,1.4-0.7,1.4-1.5c0-0.8-0.6-1.6-1.4-1.6C51.3,23.3,50.7,24,50.7,24.8L50.7,24.8z
	"/>
<path class="st0" d="M64.4,24.3c0-0.5,0.1-0.8,0.5-0.8c0.5,0,0.5,0.3,0.5,0.8H64.4L64.4,24.3z M66,24.6c0.1,0,0.2,0,0.2-0.1
	c0-0.7-0.5-1.2-1.1-1.2c-0.7,0-1.3,0.7-1.3,1.6c0,0.8,0.6,1.5,1.3,1.5c0.6,0,1-0.4,1.2-1.1H66c-0.1,0.5-0.4,0.8-0.9,0.8
	c-0.5,0-0.6-0.4-0.6-0.9v-0.6H66L66,24.6z"/>
<path class="st0" d="M69.9,24.3c0-0.5,0.1-0.8,0.5-0.8c0.5,0,0.5,0.3,0.5,0.8H69.9L69.9,24.3z M71.4,24.6c0.1,0,0.2,0,0.2-0.1
	c0-0.7-0.5-1.2-1.1-1.2c-0.7,0-1.3,0.7-1.3,1.6c0,0.8,0.6,1.5,1.3,1.5c0.6,0,1-0.4,1.2-1.1h-0.2c-0.1,0.5-0.4,0.8-0.9,0.8
	c-0.5,0-0.6-0.4-0.6-0.9v-0.6H71.4L71.4,24.6z"/>
<path class="st0" d="M75.4,25.3c0,0.1,0,0.3,0,0.4c-0.1,0.2-0.3,0.4-0.5,0.4c-0.3,0-0.5-0.2-0.5-0.5c0-0.6,0.6-0.6,1-0.6L75.4,25.3
	L75.4,25.3z M75.4,24.6c-0.5,0.1-1.5,0.2-1.5,1.1c0,0.5,0.4,0.7,0.7,0.7c0.3,0,0.6-0.1,0.8-0.4c0.1,0.2,0.2,0.4,0.5,0.4
	c0.2,0,0.4-0.2,0.6-0.5c0,0,0-0.2-0.1-0.1c0,0-0.2,0.2-0.3,0.2c-0.1,0-0.1,0-0.1-0.1l0-1.9c0-0.2-0.1-0.4-0.3-0.5
	c-0.2-0.1-0.5-0.2-0.7-0.2c-0.2,0-0.9,0.3-0.9,0.7c0,0.2,0.1,0.3,0.3,0.3c0.1,0,0.3-0.1,0.3-0.3c0-0.1-0.1-0.2-0.1-0.2
	c-0.1-0.1,0.2-0.3,0.4-0.3c0.1,0,0.4,0,0.4,0.3V24.6L75.4,24.6z"/>
<path class="st0" d="M87.8,25.5c0,0.4-0.2,0.6-0.5,0.6c-0.4,0-0.7-0.4-0.7-0.9v-0.8c0-0.3,0.3-0.8,0.7-0.8c0.4,0,0.5,0.2,0.5,0.6
	V25.5L87.8,25.5z M86.6,23.6L86.6,23.6l-0.1-0.2c-0.4,0-0.6,0.1-0.9,0.1v0.1H86v4.2l0,0.1l-0.1,0h-0.2v0.2H87V28h-0.3l-0.1,0l0-0.1
	v-1.6l0.1-0.1c0.2,0.1,0.4,0.1,0.6,0.1c0.7,0,1.2-0.8,1.2-1.5c0-0.8-0.5-1.5-1.2-1.5C87,23.3,86.8,23.4,86.6,23.6L86.6,23.6
	L86.6,23.6z"/>
<path class="st0" d="M91.2,24.3h1l-0.4-1.2c-0.1-0.1-0.2,0-0.2,0L91.2,24.3L91.2,24.3z M91.8,21.6l-1.4,4.5h-0.5v0.2h1.3v-0.2h-0.5
	l0.4-1.4h1.2l0.5,1.4h-0.5v0.2H94v-0.2h-0.5l-1.4-4.5C92.1,21.6,91.9,21.3,91.8,21.6L91.8,21.6L91.8,21.6z"/>
<path class="st0" d="M35.1,7.5c-0.2,0-0.3,0-0.3,0l-1.1,1c-0.9-0.9-2.2-0.9-2.2-0.9c-4.7,0.3-4.8,5.7-4.8,5.7c0.2,6,4.7,6.1,4.7,6.1
	c1.7,0.1,2.5-1.3,2.5-1.3l1,1.2c0.3,0.1,0.3,0,0.3,0l0-5.7h1.1v-0.6h-4v0.6h1.2l0,3.5c-0.1,0.4-0.4,1.2-1,1.5
	c-4.2,1.7-3.8-5.2-3.8-5.2c0.1-7.4,4.1-5.1,4.1-5.1c1.3,0.5,2,3.4,2,3.4c0,0,0.4,0,0.4,0L35.1,7.5L35.1,7.5z"/>
<polygon class="st0" points="90.2,8.2 91.7,8.2 91.7,18.8 90.8,18.8 90.8,19.4 94.9,19.4 94.9,18.8 93.5,18.8 93.5,8.2 94.8,8.2 
	94.8,7.6 90.2,7.6 90.2,8.2 "/>
<path class="st0" d="M36,7.6c0,0,0,0.6,0,0.6h1.5l0,10.6H36c0,0,0,0.6,0,0.6l8.4,0l0-4.4h-0.4c-0.2,3.7-2.3,3.8-2.3,3.8l-2.2,0l0-5
	l0.9,0c1.5,0.2,1.5,2.5,1.5,2.5c0,0,0.5,0,0.5,0V11h-0.5c0,2-1.5,2.2-1.5,2.2h-0.9l0-4.9h2.2c2.4,0.3,2.3,3.6,2.3,3.6h0.5V7.6H36
	L36,7.6z"/>
<path class="st0" d="M44.5,7.6c0,0,0,0.6,0,0.6c0,0,1,0,1.4,0.2c0.5,0.2,0.8,1.3,0.8,1.3l0,0.1l0,7.9c0.1,1.1-1.2,1.1-1.2,1.1h-0.8
	c0,0,0,0.6,0,0.6h4.5c0,0,0-0.6,0-0.6h-0.7c-1.2-0.1-1.2-1.1-1.2-1.1l0-7.4c0,0,0.2,0.2,0.2,0.2l6,8.8c0.2,0.3,0.5,0.1,0.5,0.1l0-10
	C54,8.4,55,8.2,55,8.2h1.5v10.6h-1.4c0,0.4,0,0.6,0,0.6h8.5c0,0,0-4.4,0-4.4c0,0-0.5,0-0.5,0c-0.1,3.7-2.3,3.8-2.3,3.8l-2.3,0l0-5
	h1.1c1.3,0.2,1.1,2.5,1.1,2.5c0,0,0.4,0,0.4,0V11h-0.4c0,2.4-1.2,2.2-1.2,2.2h-1.1l0-4.9h2.3c2.1,0.2,2.3,3.6,2.3,3.6
	c0,0,0.5,0,0.5,0l0-4.2H51.3c0,0,0,0.6,0,0.6h0.9c1,0,1.2,1.2,1.2,1.2v6.4c0,0-0.4-0.5-0.4-0.5l-5.1-7.7H44.5L44.5,7.6z"/>
<path class="st0" d="M67.7,13.2V8.2h2.5c1.6,0.4,1.5,2.2,1.5,2.2c0.1,2.5-1.8,2.7-1.8,2.7H67.7L67.7,13.2z M78.1,10.4l-1.5,4.6h3.3
	L78.1,10.4L78.1,10.4z M64.2,7.6c0,0,0,0.6,0,0.6h1.7l0,10.6h-1.5c0,0,0,0.6,0,0.6h4.6v-0.6l-1.2,0v-5.1h2.5
	c1.2,0.3,1.1,1.5,1.1,1.5v1.5c0.1,2.7,2.3,2.7,2.3,2.7h4.1c0,0,0-0.6,0-0.6h-1.3c-0.9-0.2-0.7-1-0.7-1l0.6-2.1H80l1,2.4
	c0.4,0.7-0.1,0.6-0.1,0.6H80c0,0,0,0.6,0,0.6h10.6l0-4.2c0,0-0.4,0-0.4,0l-0.1,1.4c-0.3,2-1.8,2.2-1.8,2.2l-1.9,0l0-10.6h1.3
	c0,0,0-0.6,0-0.6H83v0.6h1.5l0,10.6h-1.2L78.9,7.5c-0.3,0-0.6,0-0.6,0l-3.1,9.9c-0.4,1.1-0.9,1.6-1.5,1.4c-0.5-0.1-0.4-0.7-0.4-0.7
	l0-1.6c-0.1-2.3-2-2.9-2-2.9l0.1,0c1.3-0.1,2.1-1.8,2.1-1.8c0.4-1.2-0.1-2.4-0.1-2.4c-0.6-1-1.4-1.4-1.4-1.4c-0.8-0.5-2-0.5-2-0.5
	H64.2L64.2,7.6z"/>
<path class="st0" d="M4,21.6C4,21.6,3.9,21.6,4,21.6l-0.4,0.3C3.4,21.6,3,21.6,3,21.6c-1.2,0.1-1.3,1.5-1.3,1.5
	C1.8,24.7,3,24.7,3,24.7c0.4,0,0.7-0.4,0.7-0.4l0.3,0.3c0.1,0,0.1,0,0.1,0l0-1.5h0.3V23H3.2v0.2h0.3l0,0.9c0,0.1-0.1,0.3-0.3,0.4
	c-1.1,0.4-1-1.4-1-1.4c0-1.9,1.1-1.3,1.1-1.3c0.3,0.1,0.5,0.9,0.5,0.9c0,0,0.1,0,0.1,0L4,21.6L4,21.6z M12.6,23.1v-1.3h0.7
	c0.4,0.1,0.4,0.6,0.4,0.6c0,0.7-0.5,0.7-0.5,0.7H12.6L12.6,23.1z M15.3,22.4L15,23.6h0.9L15.3,22.4L15.3,22.4z M11.7,21.6
	c0,0,0,0.2,0,0.2h0.4l0,2.8h-0.4c0,0,0,0.2,0,0.2h1.2v-0.2l-0.3,0v-1.3h0.7c0.3,0.1,0.3,0.4,0.3,0.4V24c0,0.7,0.6,0.7,0.6,0.7h1.1
	c0,0,0-0.2,0-0.2h-0.3c-0.2-0.1-0.2-0.3-0.2-0.3l0.2-0.5h1l0.3,0.6c0.1,0.2,0,0.2,0,0.2h-0.2c0,0,0,0.2,0,0.2h2.8l0-1.1
	c0,0-0.1,0-0.1,0l0,0.4c-0.1,0.5-0.5,0.6-0.5,0.6l-0.5,0l0-2.8h0.3c0,0,0-0.2,0-0.2h-1.2v0.2H17l0,2.8h-0.3l-1.1-3
	c-0.1,0-0.2,0-0.2,0l-0.8,2.6c-0.1,0.3-0.2,0.4-0.4,0.4c-0.1,0-0.1-0.2-0.1-0.2l0-0.4c0-0.6-0.5-0.8-0.5-0.8l0,0
	c0.3,0,0.5-0.5,0.5-0.5c0.1-0.3,0-0.6,0-0.6c-0.2-0.3-0.4-0.4-0.4-0.4c-0.2-0.1-0.5-0.1-0.5-0.1H11.7L11.7,21.6z M6.5,21.6
	c0,0,0,0.2,0,0.2c0,0,0.3,0,0.4,0.1c0.1,0.1,0.2,0.3,0.2,0.3l0,0l0,2.1c0,0.3-0.3,0.3-0.3,0.3H6.5c0,0,0,0.2,0,0.2h1.2
	c0,0,0-0.2,0-0.2H7.5c-0.3,0-0.3-0.3-0.3-0.3l0-2c0,0,0,0.1,0,0.1l1.6,2.3c0,0.1,0.1,0,0.1,0l0-2.6c0-0.3,0.3-0.3,0.3-0.3h0.4v2.8
	H9.3c0,0.1,0,0.2,0,0.2h2.2c0,0,0-1.2,0-1.2c0,0-0.1,0-0.1,0c0,1-0.6,1-0.6,1l-0.6,0l0-1.3h0.3c0.4,0,0.3,0.7,0.3,0.7
	c0,0,0.1,0,0.1,0v-1.4h-0.1c0,0.6-0.3,0.6-0.3,0.6h-0.3l0-1.3h0.6c0.6,0,0.6,0.9,0.6,0.9c0,0,0.1,0,0.1,0l0-1.1H8.3c0,0,0,0.2,0,0.2
	h0.2c0.3,0,0.3,0.3,0.3,0.3v1.7c0,0-0.1-0.1-0.1-0.1l-1.3-2H6.5L6.5,21.6z M4.2,21.6c0,0,0,0.2,0,0.2h0.4l0,2.8H4.2c0,0,0,0.2,0,0.2
	h2.2l0-1.2H6.3c-0.1,1-0.6,1-0.6,1l-0.6,0l0-1.3l0.2,0c0.4,0,0.4,0.7,0.4,0.7c0,0,0.1,0,0.1,0v-1.4H5.8c0,0.5-0.4,0.6-0.4,0.6H5.1
	l0-1.3h0.6c0.6,0.1,0.6,0.9,0.6,0.9h0.1v-1.1H4.2L4.2,21.6z M18.5,21.8h0.4l0,2.8h-0.2v0.2h1.1v-0.2h-0.4v-2.8h0.3v-0.2h-1.2V21.8
	L18.5,21.8z"/>
</svg>
