<?xml version="1.0" encoding="utf-8"?>
<!-- Generator: Adobe Illustrator 26.0.1, SVG Export Plug-In . SVG Version: 6.00 Build 0)  -->
<svg version="1.1" id="Layer_1" xmlns="http://www.w3.org/2000/svg" xmlns:xlink="http://www.w3.org/1999/xlink" x="0px" y="0px"
	 viewBox="0 0 95 35" style="enable-background:new 0 0 95 35;" xml:space="preserve">
<style type="text/css">
	.st0{fill:#343741;}
</style>
<g>
	<path class="st0" d="M79.6,13.6c-2.7,0-3.8,2.2-3.8,3.9c0,1.8,1.1,3.9,3.7,3.9c2.3,0,3.8-1.8,3.8-4.1C83.3,15,81.9,13.6,79.6,13.6
		 M79.9,20.9c-1.7,0-2.7-1.6-2.7-3.7c0-2.5,1.1-3.1,2.1-3.1c1.4,0,2.5,1.4,2.5,3.6C81.9,20.6,80.5,20.9,79.9,20.9z"/>
	<path class="st0" d="M51,21.5c0.6,0,1.3-0.1,1.8-0.4c0.8-0.5,1-1.2,1-1.8c0-1-0.6-1.6-2-2.6l-0.3-0.2c-1-0.6-1.3-1-1.3-1.5
		c0-0.6,0.5-1,1.3-1c0.7,0,1.1,0.3,1.3,0.5c0.2,0.3,0.3,0.6,0.3,0.7c0,0.1,0,0.2,0.1,0.2c0.1,0,0.1-0.1,0.1-0.3c0-0.8,0-1.1,0-1.2
		c0-0.1-0.1-0.1-0.2-0.1c-0.3-0.1-0.8-0.2-1.5-0.2c-1.6,0-2.6,0.8-2.6,1.9c0,0.8,0.5,1.5,1.8,2.4l0.5,0.4c1,0.6,1.2,1.1,1.2,1.6
		c0,0.5-0.5,1.1-1.5,1.1c-0.7,0-1.4-0.3-1.7-1c-0.1-0.2-0.1-0.4-0.1-0.5c0-0.1,0-0.2-0.1-0.2c-0.1,0-0.1,0.1-0.1,0.3
		c0,0.2,0,0.8,0,1.3c0,0.2,0,0.3,0.2,0.3C49.8,21.4,50.3,21.5,51,21.5"/>
	<path class="st0" d="M76.1,21.1c-0.1,0-0.3,0-0.4,0c-0.2,0-0.4-0.3-0.5-1.2c-0.1-1.5-0.4-5.6-0.5-6.1c0-0.2-0.2-0.2-0.3-0.1
		c-0.1,0.1-0.2,0.2-0.3,0.4c-1.8,2.4-2.8,3.7-4.6,6.2c-0.3,0.4-0.6,0.9-1.2,0.9c-0.3,0-0.4-0.3-0.4-0.5c0-0.4,0-1.2,0-2.1v-4
		c0-0.1,0-0.2,0.1-0.2c0.1,0,0.2,0,0.4,0c0.2,0,0.8,0,1.2,0.4c0.6,0.5,0.5,1.2,0.5,1.5c0,1-0.8,1.7-1.4,1.7c-0.2,0-0.4,0-0.4,0.1
		c0,0.1,0.1,0.1,0.1,0.1c0.1,0,0.5,0,0.5,0c1.4,0,2.4-0.8,2.4-2.4c0-0.5-0.3-1-0.5-1.2c-0.3-0.3-0.9-0.6-2.2-0.6c-0.5,0-1,0-1.4,0
		c-0.2,0-1.6-0.1-1.7-0.1c-0.3,0-0.7,0-0.9,0c-0.2,0-0.6,0-1.1,0c-0.1,0-0.2,0-0.2,0.1c0,0.1,0,0.1,0.1,0.1c0.1,0,0.3,0,0.5,0.1
		c0.2,0.1,0.3,0.3,0.3,0.9l0,3.9c-0.2-0.2-4.5-5-4.7-5.1c-0.2-0.1-0.3,0-0.3,0.1l-0.2,5c-1.6-1.9-4-5-4.1-5.1
		c-0.1-0.1-0.3-0.1-0.4,0.1c0,0.3-0.4,6.4-0.4,6.4c0,0.5-0.1,0.8-0.5,0.9c-0.1,0-0.2,0-0.3,0c-0.1,0-0.1,0-0.1,0.1
		c0,0.1,0.1,0.1,0.2,0.1c0.5,0,1.1,0,1.2,0c0.3,0,0.8,0,1.1,0c0.1,0,0.2,0,0.1-0.1c0-0.1-0.1-0.1-0.2-0.1h-0.2
		c-0.3,0-0.4-0.1-0.5-0.3c0-0.1-0.1-0.4-0.1-0.6l0-1.4c0-0.1,0-0.1,0.1-0.1h2.1c0,0,0.1,0,0.1,0.1l1.6,1.9c0,0.1,0.1,0.1,0,0.2
		c0,0-0.1,0-0.1,0.1c-0.1,0-0.3,0-0.4,0c-0.1,0-0.1,0.1-0.1,0.1c0,0.1,0.1,0.1,0.2,0.1c0.5,0,0.9,0,1,0l1,0c0.3,0,0.6,0,0.8,0
		c0.4,0,0.5,0,0.4-0.1c0-0.1,0-0.1-0.1-0.1c-0.1,0-0.1,0-0.3,0c-0.2,0-0.5-0.3-1.2-1.2L60,19.6L60,16.1c0.2,0.2,4.1,4.5,4.7,5.1
		c0.1,0.1,0.2,0.2,0.3,0.2c0.1,0,0.1-0.1,0.1-0.3l0.1-6.2c0-0.6,0.1-0.8,0.3-0.8c0.1,0,0.4,0,0.5,0c0.3,0.1,0.4,0.2,0.4,0.6
		c0,0.3,0,0.6,0,2.1l0,1.7c0,0.9,0,1.7-0.1,2.1c0,0.3-0.1,0.5-0.3,0.5c-0.1,0-0.2,0-0.4,0c-0.1,0-0.2,0-0.2,0.1
		c0,0.1,0.1,0.1,0.2,0.1c0.4,0,1.3,0,1.4,0c0.9,0,1.7,0,2.1,0c0.4,0,0.9,0,1,0c0.1,0,0.2,0,0.2-0.1c0,0,0-0.1-0.1-0.1h-0.1
		c-0.3,0-0.3-0.1-0.2-0.3l1.4-2c0-0.1,0.1-0.1,0.1-0.1l2,0c0,0,0.1,0,0.1,0.1l0.1,2.1c0,0.1-0.1,0.2-0.2,0.2c-0.1,0-0.2,0-0.2,0.1
		c0,0.1,0.1,0.1,0.3,0.1c0.4,0,0.6,0,1,0c0.4,0,0.7,0,0.9,0c0.4,0,0.5,0,0.5-0.1C76.2,21.1,76.2,21.1,76.1,21.1 M57,18.2h-1.7
		c0,0-0.1,0-0.1-0.1l0.1-2c0,0,0-0.1,0-0.1c0,0,0,0,0.1,0.1C55.4,16.2,57,18.2,57,18.2C57,18.2,57,18.2,57,18.2z M73.6,18.2l-1.6,0
		c0,0-0.1,0,0-0.1c0.2-0.2,1.1-1.6,1.5-2.2c0,0,0.1,0,0.1,0C73.6,16.3,73.7,18.2,73.6,18.2C73.7,18.2,73.7,18.2,73.6,18.2z"/>
	<path class="st0" d="M91.3,13.6c-2.7,0-3.8,2.2-3.8,3.9c0,0.8,0.2,1.7,0.7,2.5c0,0.2-0.1,0.4-0.2,0.5c-0.2,0.3-0.9,0.3-1.4,0.3
		c-0.8,0-0.8-0.1-1-0.2c-0.2-0.2-0.2-0.9-0.2-2.1v-1.7c0-1.5,0-1.8,0-2.1c0-0.3,0.1-0.5,0.4-0.6c0.1,0,0.3,0,0.4,0
		c0.1,0,0.2,0,0.2-0.1c0-0.1-0.1-0.1-0.2-0.1c-0.4,0-1.3,0-1.6,0c-0.3,0-0.9,0-1.4,0c-0.1,0-0.2,0-0.2,0.1c0,0.1,0.1,0.1,0.2,0.1
		c0.1,0,0.2,0,0.3,0c0.3,0.1,0.4,0.2,0.4,0.6c0,0.3,0,0.6,0,2.1v1.7c0,0.9,0,1.7,0,2.1c0,0.3-0.1,0.5-0.3,0.5c-0.1,0-0.2,0-0.4,0
		c-0.1,0-0.2,0-0.2,0.1c0,0.1,0.1,0.1,0.2,0.1c0.4,0,1,0,1.3,0c0.8,0,1.7,0.1,3.1,0.1c0.5,0,0.6,0,0.6-0.3c0-0.2,0.1-0.5,0.1-0.8
		c0.6,0.7,1.5,1.2,2.8,1.2c2.3,0,3.8-1.8,3.8-4.1C95,15,93.6,13.6,91.3,13.6 M91.6,20.9c-1.7,0-2.7-1.6-2.7-3.7
		c0-2.5,1.1-3.1,2.1-3.1c1.4,0,2.5,1.4,2.5,3.6C93.6,20.6,92.2,20.9,91.6,20.9z"/>
	<path class="st0" d="M31.7,21.2c-0.1,0-0.3,0-0.4,0c-0.2,0-0.4-0.3-0.5-1.2c-0.1-1.5-0.4-5.6-0.5-6.1c0-0.2-0.2-0.2-0.3-0.1
		c-0.1,0.1-0.2,0.2-0.3,0.4c-1.4,1.9-2.3,3.1-3.4,4.7c-0.2-0.7-0.7-1.3-1.9-2.1l-0.3-0.2c-1-0.6-1.3-1-1.3-1.4c0-0.6,0.5-1,1.3-1
		c0.7,0,1.1,0.3,1.3,0.5c0.2,0.3,0.3,0.6,0.3,0.7c0,0.1,0,0.2,0.1,0.2c0.1,0,0.1-0.1,0.1-0.3c0-0.8,0-1.1,0-1.2
		c0-0.1-0.1-0.1-0.2-0.1c-0.3-0.1-0.8-0.2-1.5-0.2c-1.6,0-2.6,0.8-2.6,1.9c0,0.8,0.5,1.5,1.8,2.4l0.5,0.4c1,0.6,1.2,1.1,1.2,1.6
		c0,0.5-0.5,1.1-1.5,1.1c-0.7,0-1.4-0.3-1.7-1c-0.1-0.2-0.1-0.4-0.1-0.5c0-0.1,0-0.2-0.1-0.2c-0.1,0-0.1,0.1-0.1,0.3
		c0,0.1,0,0.3-0.1,0.4c-0.1,0.4-0.2,0.6-0.5,0.7c-0.3,0.1-0.7,0.1-0.9,0.1c-1,0-1.8-0.2-1.8-0.8c0-0.3,0-1.2,0-1.6v-0.8
		c0-0.1,0-0.1,0.1-0.1c0.2,0,1.7,0,1.9,0c0.4,0,0.5,0.2,0.6,0.4c0,0.1,0,0.3,0,0.4c0,0.1,0,0.1,0.1,0.1c0.1,0,0.1-0.1,0.1-0.2
		c0-0.1,0-0.5,0-0.7c0-0.5,0.1-0.7,0.1-0.7c0-0.1,0-0.1-0.1-0.1c-0.1,0-0.1,0-0.2,0.1c-0.1,0.1-0.2,0.1-0.5,0.2c-0.2,0-1.8,0-2,0
		c-0.1,0-0.1,0-0.1-0.1v-2.5c0-0.1,0-0.1,0.1-0.1c0.2,0,1.7,0,1.9,0c0.5,0.1,0.6,0.2,0.7,0.4C21,14.8,21,15,21,15
		c0,0.1,0,0.1,0.1,0.1c0.1,0,0.1-0.1,0.1-0.1c0-0.1,0-0.6,0-0.7c0-0.5,0.1-0.6,0.1-0.7c0-0.1,0-0.1-0.1-0.1c-0.1,0-0.1,0-0.2,0
		c-0.1,0-0.2,0-0.4,0.1c-0.2,0-2.6,0-2.9,0c-0.1,0-0.4,0-0.6,0c-0.2,0-0.4,0-0.7,0c0-0.1,0-0.1-0.1-0.1c-0.1,0-0.3,0.1-1,0.1h-3.4
		c-0.3,0-0.7,0-1,0c-0.2,0-0.3-0.1-0.4-0.1c-0.1,0-0.1,0-0.1,0.1h-0.1c-0.1,0-0.3,0-0.4,0c-0.2,0-0.4,0-0.5,0c-0.2,0-0.6,0-1,0
		c-0.1,0-0.2,0-0.2,0.1c0,0.1,0,0.1,0.1,0.1c0.1,0,0.3,0,0.5,0.1c0.2,0.1,0.3,0.2,0.3,0.7l0,4c-0.1-0.2-4.5-5-4.6-5.1
		c-0.2-0.1-0.3,0-0.3,0.1l-0.1,2.6L4,19.8c0,0.9-0.2,1-0.4,1.2c-0.1,0.1-0.3,0.1-0.4,0.1c0,0-0.4,0-0.6,0c-0.3-0.1-0.4-0.2-0.5-0.5
		c0-0.4,0-1.2,0-2.2v-1.7c0-1.5,0-1.8,0-2.1c0-0.3,0.1-0.5,0.4-0.6c0.1,0,0.2,0,0.3,0c0.1,0,0.2,0,0.2-0.1c0-0.1-0.1-0.1-0.2-0.1
		c-0.4,0-1,0-1.2,0c-0.3,0-0.9,0-1.3,0c-0.2,0-0.2,0-0.2,0.1c0,0.1,0.1,0.1,0.2,0.1c0.1,0,0.2,0,0.4,0c0.2,0,0.3,0.2,0.3,0.6
		c0,0.3,0,0.6,0,2.1v1.7c0,1,0,1.7,0,2.2c0,0.3-0.1,0.5-0.3,0.5c-0.1,0-0.2,0-0.4,0c-0.1,0-0.2,0-0.2,0.1c0,0.1,0.1,0.1,0.2,0.1
		c0.4,0,1,0,1.2,0c0.3,0,1.8,0,1.8,0c0.5,0,1,0,1.1,0c0.2,0,0.6,0,1.2,0c0.1,0,0.2,0,0.2-0.1c0-0.1-0.1-0.1-0.2-0.1
		c-0.2,0-0.3,0-0.5-0.1C5,21,4.8,20.7,4.8,19.9l0-1.9l0-1.9c0.2,0.2,4.1,4.5,4.7,5.1c0.1,0.1,0.2,0.2,0.3,0.2c0.1,0,0.1-0.1,0.1-0.3
		l0.1-6.2c0-0.1,0-0.1,0-0.2c0-0.4,0.1-0.5,0.3-0.6c0.1,0,0.2-0.1,0.3-0.1c0,0.3,0,0.9,0,1c0,0.1,0,0.2,0.1,0.2c0.1,0,0.1,0,0.1-0.1
		c0-0.1,0.1-0.2,0.2-0.3c0.1-0.2,0.4-0.3,1-0.3l1,0v4.1c0,0.9,0,1.7,0,2.1c0,0.3-0.1,0.5-0.3,0.5c-0.1,0-0.4,0-0.6,0
		c-0.1,0-0.2,0-0.2,0.1c0,0.1,0.1,0.1,0.2,0.1c0.4,0,1.3,0,1.5,0c0.3,0,0.9,0,1.6,0c0.1,0,0.2,0,0.2-0.1c0-0.1-0.1-0.1-0.2-0.1
		c-0.1,0-0.4,0-0.5,0c-0.3,0-0.4-0.3-0.4-0.5c-0.1-0.4-0.1-1.2-0.1-2.1v-4.1l1,0c0.9,0,1.2,0.3,1.2,0.6l0,0.1c0,0.2,0,0.2,0.1,0.2
		c0.1,0,0.1-0.1,0.1-0.2c0-0.2,0-0.9,0-1.1c0.1,0,0.1,0,0.2,0c0.3,0.1,0.4,0.2,0.4,0.6c0,0.3,0,0.6,0,2.1v1.8c0,0.9,0,1.7,0,2.1
		c0,0.3-0.1,0.5-0.3,0.5c-0.1,0-0.2,0-0.4,0c-0.1,0-0.2,0-0.2,0.1c0,0.1,0.1,0.1,0.2,0.1c0.2,0,0.5,0,0.7,0c0.2,0,0.5,0,0.6,0
		c0.3,0,0.6,0,1,0c0.4,0,1.6,0,2.3,0c0.4,0,0.5,0,0.5-0.3c0,0,0,0,0,0c0,0.1,0.1,0.1,0.2,0.2c0.5,0.2,1,0.3,1.7,0.3
		c0.2,0,0.4,0,0.7,0c0.3,0,0.5,0,0.7,0c0.4,0,0.9,0,1,0c0.1,0,0.2,0,0.2-0.1c0,0,0-0.1-0.1-0.1h-0.1c-0.3,0-0.3-0.1-0.2-0.3l1.4-2
		c0-0.1,0.1-0.1,0.1-0.1l2,0c0,0,0.1,0,0.1,0.1l0.1,2.1c0,0.1-0.1,0.2-0.2,0.2c-0.1,0-0.2,0-0.2,0.1c0,0.1,0.1,0.1,0.3,0.1
		c0.4,0,0.6,0,1,0c0.4,0,0.7,0,0.9,0c0.4,0,0.5,0,0.5-0.1C31.8,21.2,31.8,21.2,31.7,21.2 M29.2,18.4l-1.6,0c0,0-0.1,0,0-0.1
		c0.2-0.2,1.1-1.6,1.5-2.2c0,0,0.1,0,0.1,0C29.2,16.4,29.3,18.3,29.2,18.4C29.3,18.3,29.3,18.4,29.2,18.4z"/>
	<path class="st0" d="M44.7,15.2L44.7,15.2L44.7,15.2c-0.1,0-0.2-0.1-0.2,0c-0.4,0-0.8,0-1.3,0h0l0,0c-0.2,0-0.4,0-0.7,0
		c-1.8,0-1.8,0-1.8,0c-0.4,0-0.9,0-1.3,0c-0.3,0-0.7,0-1,0c-0.3,0-1.2,0-1.7,0c-0.3,0-0.4,0-0.4,0c-0.1,0-0.1,0.1-0.1,0.1
		c0,0,0,0.1,0.1,0.1c0,0,0.3,0,0.9,0l0.5,0c0.1,0,0.2,0,0.2,0h0c0.4,0,0.8,0,1.2,0h0c0.3,0,0.5,0,0.8,0c0.1,0,0.1,0,0.2,0l0,0
		c0,0,0.1,0,0.1,0c0.1,0,0.1,0,0.2,0c0.1,0,0.1,0,0.2,0l0,0l0,0v0c0.1,0,0.1,0,0.2,0c0,0,0,0,0,0c0,0,0.1,0,0.1,0
		c0.5,0,1.1,0,1.8,0.1c0,0,0.3,0,0.3,0v0v0h0c0.3,0,0.6,0,0.9,0c0,0,0,0,0,0c0.2,0,0.4,0,0.6,0l0,0l0,0l0,0l0.1-0.1l0,0l0,0l0,0
		C44.8,15.3,44.8,15.2,44.7,15.2"/>
	<path class="st0" d="M41.8,19L41.8,19L41.8,19l0-0.7v0l0,0c0-0.1,0-0.2,0-0.3c0-0.1,0-0.3,0-0.4c0-0.2,0-0.4-0.1-0.6l0-0.1l0,0l0,0
		c0,0,0-0.1,0-0.1c0,0,0-0.1,0-0.1c0-0.1-0.1-0.2-0.2-0.2l0,0c0,0,0,0-0.1,0c0,0,0,0,0,0l0,0l0,0l0,0c-0.1,0-0.1-0.1-0.2-0.1l0,0
		c0,0-0.1,0-0.1,0v0l0,0l-0.2,0l0,0l0,0c0,0,0,0,0,0c0,0,0,0,0,0l0,0l0,0c0,0,0,0,0,0l-0.1,0l0,0c0,0-0.1,0-0.1,0h-0.1l-0.1,0l0,0
		l0,0c0,0-0.1,0-0.1,0c0,0,0,0,0,0c0,0-0.1,0-0.1,0c0,0,0,0,0,0l0,0l0,0c0,0-0.1,0-0.1,0l-0.1,0l0,0c0,0,0,0,0,0h-0.1v0c0,0,0,0,0,0
		l0,0c0,0,0,0,0,0c0,0-0.1,0.1-0.1,0.1c0,0.1-0.1,0.1-0.1,0.2l0,0l0,0c0,0,0,0,0,0c0,0,0,0,0,0.1c0,0,0,0,0,0c0,0,0,0,0,0.1
		c0,0,0,0,0,0l0,0l0,0c0,0,0,0,0,0.1c0,0,0,0,0,0l0,0l0,0c0,0,0,0.1,0,0.1c0,0,0,0.1,0,0.1c0,0,0,0.1,0,0.1c0,0,0,0,0,0l0,0l0,0
		c0,0,0,0.1,0,0.1c0,0,0,0.1,0,0.1c0,0,0,0,0,0c0,0,0,0,0,0c0,0,0,0,0,0l0,0l0,0l0,0c0,0,0,0,0,0.1c0,0,0,0,0,0l0,0l0,0c0,0,0,0,0,0
		c0,0,0,0,0,0.1c0,0,0,0,0,0l0,0l0,0.1c0,0,0,0,0,0c0,0,0,0,0,0.1c0,0,0,0.1,0,0.1c0,0,0,0,0,0c0,0,0,0.1,0,0.1c0,0,0,0.1,0,0.1l0,0
		l0,0.1c0,0,0,0,0,0c0,0,0,0,0,0l0,0c0,0,0,0,0,0l0,0l0,0l0,0c0,0,0,0.1,0,0.1c0,0,0,0,0,0l0,0l0,0c0,0,0,0,0,0.1c0,0,0,0.1,0,0.1
		l0,0l0,0c0,0,0,0,0,0c0,0,0,0,0,0.1l0,0c0,0,0,0,0,0.1c0,0,0,0.1,0,0.1l0,0l0,0c0,0,0,0,0,0l0,0l0,0c0,0,0,0.1,0,0.1
		c0,0.1,0,0.2,0.1,0.3l0,0l0,0c0.1,0,0.1-0.1,0.1-0.1c0,0,0,0,0,0l0,0l0,0c0-0.1,0-0.2,0-0.3c0,0,0,0,0-0.1l0,0l0,0c0,0,0-0.1,0-0.1
		c0,0,0-0.1,0-0.1c0-0.2,0-0.4,0-0.5c0-0.1,0-0.1,0-0.2v0v0c0-0.1,0-0.2,0-0.3c0-0.1,0-0.2,0-0.2c0-0.1,0-0.2,0-0.2c0,0,0-0.1,0-0.1
		l0,0l0,0c0,0,0,0,0-0.1c0,0,0-0.1,0-0.1c0,0,0,0,0-0.1l0,0l0,0c0,0,0,0,0-0.1c0,0,0-0.1,0-0.1c0-0.1,0-0.1,0-0.2l0,0c0,0,0,0,0,0
		c0,0,0,0,0,0c0,0,0-0.1,0-0.1c0,0,0-0.1,0.1-0.1l0,0l0,0c0,0,0,0,0,0c0,0,0,0,0-0.1c0,0,0,0,0,0c0,0,0-0.1,0.1-0.1
		c0,0,0-0.1,0.1-0.1l0,0l0,0c0,0,0,0,0.1-0.1c0,0,0.1,0,0.1-0.1c0,0,0,0,0.1,0c0,0,0.1,0,0.1,0c0,0,0,0,0.1,0l0,0l0,0c0,0,0,0,0,0
		c0,0,0,0,0,0c0,0,0,0,0,0c0,0,0,0,0,0c0,0,0,0,0,0l0,0l0,0l0,0c0.1,0,0.2,0,0.3,0l0,0l0,0c0,0,0,0,0,0c0,0,0.1,0.1,0.1,0.1
		c0,0,0,0,0,0c0,0,0,0,0,0v0l0,0c0,0,0.1,0,0.1,0c0.1,0.1,0.1,0.2,0.1,0.2v0h0c0,0,0,0,0,0c0,0.1,0,0.1,0.1,0.2c0,0,0,0.1,0,0.1
		c0,0,0,0,0,0l0,0l0,0l0,0c0,0,0,0.1,0,0.1c0,0,0,0,0,0l0,0c0,0.1,0,0.1,0,0.1c0,0,0,0,0,0c0,0,0,0,0,0.1l0,0l0,0c0,0,0,0,0,0
		c0,0,0,0,0,0c0,0,0,0,0,0l0,0l0,0l0,0l0,0c0,0,0,0,0,0c0,0,0,0,0,0l0,0c0,0.1,0,0.1,0,0.2c0,0,0,0,0,0c0,0,0,0.1,0,0.1c0,0,0,0,0,0
		l0,0c0,0,0,0,0,0c0,0,0,0,0,0l0,0h0c0,0,0,0,0,0c0,0,0,0,0,0.1l0,0l0,0c0,0,0,0.1,0,0.1c0,0,0,0,0,0c0,0,0,0,0,0c0,0,0,0,0,0l0,0
		l0,0c0,0,0,0,0,0l0,0c0,0,0,0,0,0v0l0,0l0,0c0,0,0,0,0,0l0,0c0,0,0,0,0,0c0,0.1,0,0.1,0,0.1c0,0,0,0,0,0h0l0,0.1v0c0,0,0,0,0,0l0,0
		l0,0l0,0c0,0,0,0,0,0c0,0,0,0,0,0c0,0,0,0,0,0.1l0,0l0,0c0,0,0,0,0,0c0,0,0,0,0,0v0c0,0,0,0,0,0l0.1,0c0,0,0,0,0,0c0,0,0,0,0,0
		c0,0,0,0,0,0l0,0l0,0.1c0,0,0,0,0,0c0,0,0,0,0,0v0.1c0,0,0,0,0,0l0,0l0,0c0,0,0,0,0,0c0,0,0,0,0,0l0,0l0,0l0,0c0,0,0,0,0,0h0
		l0.1,0.1c0,0,0,0,0,0c0,0,0,0,0,0c0,0,0,0.1,0,0.1c0,0,0,0,0,0c0,0,0,0,0,0l0,0c0,0,0,0,0,0c0,0,0,0,0,0h-0.1l0,0l0,0l0,0v0.1
		c0,0,0,0,0,0c0,0,0,0,0,0c0,0,0,0,0.1,0v0l0.1,0c0,0,0.1,0,0.1,0l0,0l0,0c0-0.2,0-0.3,0-0.4C41.7,19.3,41.7,19.2,41.8,19
		C41.8,19,41.8,19,41.8,19"/>
	<path class="st0" d="M38.8,19L38.8,19L38.8,19l0-0.7v0v0c0-0.1,0-0.2,0-0.3c0-0.1,0-0.3,0-0.4c0-0.2,0-0.4-0.1-0.6l0-0.1l0,0l0,0
		c0,0,0-0.1,0-0.1c0,0,0-0.1,0-0.1c0-0.1-0.1-0.2-0.2-0.2l0,0c0,0,0,0-0.1,0c0,0,0,0,0,0l0,0l0,0l0,0c-0.1,0-0.1-0.1-0.2-0.1l0,0
		c0,0-0.1,0-0.1,0v0l0,0l-0.2,0l0,0l0,0c0,0,0,0,0,0c0,0,0,0,0,0l0,0l0,0c0,0,0,0,0,0l-0.1,0l0,0c0,0-0.1,0-0.1,0h-0.1l-0.1,0l0,0
		l0,0c0,0-0.1,0-0.1,0c0,0,0,0,0,0c0,0-0.1,0-0.1,0c0,0,0,0,0,0l0,0l0,0c0,0-0.1,0-0.1,0l-0.1,0l0,0c0,0,0,0,0,0h-0.1v0c0,0,0,0,0,0
		l0,0c0,0,0,0,0,0c0,0-0.1,0.1-0.1,0.1c0,0.1-0.1,0.1-0.1,0.2l0,0l0,0c0,0,0,0,0,0c0,0,0,0,0,0.1c0,0,0,0,0,0c0,0,0,0,0,0.1
		c0,0,0,0,0,0l0,0l0,0c0,0,0,0,0,0.1c0,0,0,0,0,0l0,0l0,0c0,0,0,0.1,0,0.1c0,0,0,0.1,0,0.1c0,0,0,0.1,0,0.1c0,0,0,0,0,0l0,0l0,0
		c0,0,0,0.1,0,0.1c0,0,0,0.1,0,0.1c0,0,0,0,0,0c0,0,0,0,0,0c0,0,0,0,0,0l0,0l0,0l0,0c0,0,0,0,0,0.1c0,0,0,0,0,0l0,0l0,0c0,0,0,0,0,0
		c0,0,0,0,0,0.1c0,0,0,0,0,0l0,0l0,0.1c0,0,0,0,0,0c0,0,0,0,0,0.1c0,0,0,0.1,0,0.1c0,0,0,0,0,0c0,0,0,0.1,0,0.1c0,0,0,0.1,0,0.1l0,0
		l0,0.1c0,0,0,0,0,0c0,0,0,0,0,0l0,0c0,0,0,0,0,0h0l0,0l0,0c0,0,0,0.1,0,0.1c0,0,0,0,0,0l0,0l0,0c0,0,0,0,0,0.1c0,0,0,0.1,0,0.1l0,0
		l0,0c0,0,0,0,0,0c0,0,0,0,0,0.1l0,0c0,0,0,0,0,0.1c0,0,0,0.1,0,0.1l0,0l0,0c0,0,0,0,0,0l0,0l0,0c0,0,0,0.1,0,0.1
		c0,0.1,0,0.2,0.1,0.3l0,0l0,0c0.1,0,0.1-0.1,0.1-0.1c0,0,0,0,0,0l0,0l0,0c0-0.1,0-0.2,0-0.3c0,0,0,0,0-0.1l0,0l0,0c0,0,0-0.1,0-0.1
		c0,0,0-0.1,0-0.1c0-0.2,0-0.4,0-0.5c0-0.1,0-0.1,0-0.2v0l0,0c0-0.1,0-0.2,0-0.3c0-0.1,0-0.2,0-0.2c0-0.1,0-0.2,0-0.2
		c0,0,0-0.1,0-0.1v0l0,0c0,0,0,0,0-0.1c0,0,0-0.1,0-0.1c0,0,0,0,0-0.1l0,0l0,0c0,0,0,0,0-0.1c0,0,0-0.1,0-0.1c0-0.1,0-0.1,0-0.2l0,0
		c0,0,0,0,0,0c0,0,0,0,0,0c0,0,0-0.1,0-0.1c0,0,0-0.1,0.1-0.1l0,0l0,0c0,0,0,0,0,0c0,0,0,0,0-0.1c0,0,0,0,0,0c0,0,0-0.1,0.1-0.1
		c0,0,0-0.1,0.1-0.1l0,0l0,0c0,0,0,0,0.1-0.1c0,0,0.1,0,0.1-0.1c0,0,0,0,0.1,0c0,0,0.1,0,0.1,0c0,0,0,0,0.1,0l0,0l0,0c0,0,0,0,0,0
		c0,0,0,0,0,0c0,0,0,0,0,0c0,0,0,0,0,0c0,0,0,0,0,0l0,0l0,0l0,0c0.1,0,0.2,0,0.3,0l0,0l0,0c0,0,0,0,0,0c0,0,0.1,0.1,0.1,0.1
		c0,0,0,0,0,0c0,0,0,0,0,0v0l0,0c0,0,0.1,0,0.1,0c0.1,0.1,0.1,0.2,0.1,0.2v0h0c0,0,0,0,0,0c0,0.1,0,0.1,0.1,0.2c0,0,0,0.1,0,0.1
		c0,0,0,0,0,0l0,0l0,0l0,0c0,0,0,0.1,0,0.1c0,0,0,0,0,0l0,0c0,0.1,0,0.1,0,0.1c0,0,0,0,0,0c0,0,0,0,0,0.1l0,0l0,0c0,0,0,0,0,0
		c0,0,0,0,0,0c0,0,0,0,0,0l0,0l0,0l0,0l0,0c0,0,0,0,0,0c0,0,0,0,0,0l0,0c0,0.1,0,0.1,0,0.2c0,0,0,0,0,0c0,0,0,0.1,0,0.1c0,0,0,0,0,0
		l0,0c0,0,0,0,0,0c0,0,0,0,0,0l0,0h0c0,0,0,0,0,0c0,0,0,0,0,0.1l0,0l0,0c0,0,0,0.1,0,0.1c0,0,0,0,0,0c0,0,0,0,0,0c0,0,0,0,0,0l0,0
		l0,0c0,0,0,0,0,0l0,0c0,0,0,0,0,0v0l0,0l0,0c0,0,0,0,0,0l0,0c0,0,0,0,0,0c0,0.1,0,0.1,0,0.1c0,0,0,0,0,0h0l0,0.1l0,0c0,0,0,0,0,0
		l0,0l0,0l0,0c0,0,0,0,0,0c0,0,0,0,0,0c0,0,0,0,0,0.1l0,0l0,0c0,0,0,0,0,0c0,0,0,0,0,0l0,0c0,0,0,0,0,0l0.1,0c0,0,0,0,0,0
		c0,0,0,0,0,0c0,0,0,0,0,0l0,0l0,0.1c0,0,0,0,0,0c0,0,0,0,0,0v0.1c0,0,0,0,0,0l0,0l0,0c0,0,0,0,0,0c0,0,0,0,0,0l0,0l0,0c0,0,0,0,0,0
		c0,0,0,0,0,0h0l0.1,0.1c0,0,0,0,0,0c0,0,0,0,0,0c0,0,0,0.1,0,0.1c0,0,0,0,0,0c0,0,0,0,0,0l0,0c0,0,0,0,0,0c0,0,0,0,0,0h-0.1l0,0
		l0,0l0,0v0.1c0,0,0,0,0,0c0,0,0,0,0,0c0,0,0,0,0.1,0v0l0,0c0,0,0.1,0,0.1,0l0,0l0,0c0-0.2,0-0.3,0-0.4C38.8,19.3,38.8,19.2,38.8,19
		C38.8,19,38.8,19,38.8,19"/>
	<path class="st0" d="M44.7,19L44.7,19L44.7,19l0-0.7v0v0c0-0.1,0-0.2,0-0.3c0-0.1,0-0.3,0-0.4c0-0.2,0-0.4-0.1-0.6l0-0.1l0,0l0,0
		c0,0,0-0.1,0-0.1c0,0,0-0.1,0-0.1c0-0.1-0.1-0.2-0.2-0.2l0,0c0,0,0,0-0.1,0c0,0,0,0,0,0l0,0l0,0l0,0c-0.1,0-0.1-0.1-0.2-0.1l0,0
		c0,0-0.1,0-0.1,0v0l0,0l-0.2,0l0,0l0,0c0,0,0,0,0,0c0,0,0,0,0,0l0,0l0,0c0,0,0,0,0,0l-0.1,0l0,0c0,0-0.1,0-0.1,0h-0.1l-0.1,0l0,0
		c0,0,0,0,0,0c0,0-0.1,0-0.1,0c0,0,0,0,0,0c0,0-0.1,0-0.1,0c0,0,0,0,0,0l0,0l0,0c0,0-0.1,0-0.1,0l-0.1,0l0,0c0,0,0,0,0,0h-0.1v0
		c0,0,0,0,0,0l0,0c0,0,0,0,0,0c0,0-0.1,0.1-0.1,0.1c0,0.1-0.1,0.1-0.1,0.2l0,0l0,0c0,0,0,0,0,0c0,0,0,0,0,0.1c0,0,0,0,0,0
		c0,0,0,0.1,0,0.1c0,0,0,0,0,0l0,0l0,0c0,0,0,0,0,0.1c0,0,0,0,0,0l0,0l0,0c0,0,0,0.1,0,0.1c0,0,0,0.1,0,0.1c0,0,0,0.1,0,0.1
		c0,0,0,0,0,0l0,0l0,0c0,0,0,0.1,0,0.1c0,0,0,0.1,0,0.1c0,0,0,0,0,0c0,0,0,0,0,0c0,0,0,0,0,0l0,0l0,0l0,0c0,0,0,0,0,0.1c0,0,0,0,0,0
		l0,0l0,0c0,0,0,0,0,0c0,0,0,0,0,0.1c0,0,0,0,0,0l0,0l0,0.1c0,0,0,0,0,0c0,0,0,0,0,0.1c0,0,0,0.1,0,0.1c0,0,0,0,0,0c0,0,0,0.1,0,0.1
		c0,0,0,0.1,0,0.1l0,0l0,0.1c0,0,0,0,0,0c0,0,0,0,0,0l0,0c0,0,0,0,0,0h0l0,0l0,0c0,0,0,0.1,0,0.1c0,0,0,0,0,0l0,0l0,0c0,0,0,0,0,0.1
		c0,0,0,0.1,0,0.1l0,0l0,0c0,0,0,0,0,0c0,0,0,0,0,0.1l0,0c0,0,0,0,0,0.1c0,0,0,0.1,0,0.1l0,0l0,0c0,0,0,0,0,0l0,0l0,0
		c0,0,0,0.1,0,0.1c0,0.1,0,0.2,0.1,0.3l0,0l0,0c0.1,0,0.1-0.1,0.1-0.1c0,0,0,0,0,0l0,0l0,0c0-0.1,0-0.2,0-0.3c0,0,0,0,0-0.1l0,0l0,0
		c0,0,0-0.1,0-0.1c0,0,0-0.1,0-0.1c0-0.2,0-0.4,0-0.5c0-0.1,0-0.1,0-0.2l0,0v0c0-0.1,0-0.2,0-0.2c0-0.1,0-0.2,0-0.2
		c0-0.1,0-0.2,0-0.2c0,0,0-0.1,0-0.1v0l0,0c0,0,0,0,0-0.1c0,0,0-0.1,0-0.1c0,0,0,0,0-0.1l0,0l0,0c0,0,0,0,0-0.1c0,0,0-0.1,0-0.1
		c0-0.1,0-0.1,0-0.2l0,0c0,0,0,0,0,0v0c0,0,0-0.1,0-0.1c0,0,0-0.1,0.1-0.1l0,0l0,0c0,0,0,0,0,0c0,0,0,0,0-0.1c0,0,0,0,0,0
		c0,0,0-0.1,0.1-0.1c0,0,0-0.1,0.1-0.1l0,0l0,0c0,0,0,0,0.1-0.1c0,0,0.1,0,0.1-0.1c0,0,0,0,0.1,0c0,0,0.1,0,0.1,0c0,0,0,0,0.1,0l0,0
		l0,0c0,0,0,0,0,0c0,0,0,0,0,0c0,0,0,0,0,0c0,0,0,0,0,0c0,0,0,0,0,0l0,0l0,0l0,0c0.1,0,0.2,0,0.3,0l0,0l0,0c0,0,0,0,0,0
		c0,0,0.1,0.1,0.1,0.1c0,0,0,0,0,0c0,0,0,0,0,0v0l0,0c0,0,0.1,0,0.1,0c0.1,0.1,0.1,0.2,0.1,0.2v0h0l0,0c0,0.1,0,0.1,0.1,0.2
		c0,0,0,0.1,0,0.1c0,0,0,0,0,0l0,0l0,0l0,0c0,0,0,0.1,0,0.1c0,0,0,0,0,0l0,0c0,0.1,0,0.1,0,0.1c0,0,0,0,0,0c0,0,0,0,0,0.1l0,0l0,0
		l0,0c0,0,0,0,0,0c0,0,0,0,0,0l0,0l0,0l0,0l0,0c0,0,0,0,0,0c0,0,0,0,0,0l0,0c0,0.1,0,0.1,0,0.2c0,0,0,0,0,0c0,0,0,0.1,0,0.1
		c0,0,0,0,0,0l0,0c0,0,0,0,0,0c0,0,0,0,0,0l0,0h0c0,0,0,0,0,0c0,0,0,0,0,0.1l0,0l0,0c0,0,0,0.1,0,0.1c0,0,0,0,0,0c0,0,0,0,0,0
		c0,0,0,0,0,0l0,0l0,0c0,0,0,0,0,0l0,0c0,0,0,0,0,0v0l0,0l0,0c0,0,0,0,0,0l0,0c0,0,0,0,0,0c0,0.1,0,0.1,0,0.1c0,0,0,0,0,0h0l0,0l0,0
		c0,0,0,0,0,0l0,0l0,0l0,0c0,0,0,0,0,0c0,0,0,0,0,0c0,0,0,0,0,0.1l0,0l0,0c0,0,0,0,0,0c0,0,0,0,0,0h0c0,0,0,0,0,0l0.1,0c0,0,0,0,0,0
		c0,0,0,0,0,0c0,0,0,0,0,0l0,0l0,0.1c0,0,0,0,0,0c0,0,0,0,0,0v0.1c0,0,0,0,0,0l0,0l0,0c0,0,0,0,0,0c0,0,0,0,0,0l0,0l0,0c0,0,0,0,0,0
		c0,0,0,0,0,0h0l0.1,0.1c0,0,0,0,0,0c0,0,0,0,0,0c0,0,0,0.1,0,0.1c0,0,0,0,0,0v0l0,0c0,0,0,0,0,0c0,0,0,0,0,0h-0.1l0,0l0,0l0,0v0.1
		c0,0,0,0,0,0c0,0,0,0,0,0c0,0,0,0,0.1,0v0l0,0c0,0,0.1,0,0.1,0l0,0l0,0c0-0.2,0-0.3,0-0.4C44.7,19.4,44.7,19.2,44.7,19
		C44.7,19.1,44.7,19,44.7,19"/>
	<path class="st0" d="M45.8,12.2H35.2v10.7h10.7L45.8,12.2z M45.3,22.3h-9.5v-9.5h9.5V22.3z"/>
</g>
</svg>
