<?xml version="1.0" encoding="utf-8"?>
<!-- Generator: Adobe Illustrator 26.0.1, SVG Export Plug-In . SVG Version: 6.00 Build 0)  -->
<svg version="1.1" id="Layer_1" xmlns="http://www.w3.org/2000/svg" xmlns:xlink="http://www.w3.org/1999/xlink" x="0px" y="0px"
	 viewBox="0 0 95 35" style="enable-background:new 0 0 95 35;" xml:space="preserve">
<style type="text/css">
	.st0{fill:#CCCCCC;}
</style>
<g>
	<path class="st0" d="M11.2,29.7C11.1,29.7,11,29.6,11.2,29.7c-0.1-0.1,0-0.1,0-0.1c0-0.1,0.1-1.1,0.1-1.5c0-0.1,0-0.2-0.1-0.2
		c-0.2-0.1-0.1-0.1,0.2-0.1c0.3,0,0.4,0.1,0.2,0.1c0,0-0.1,0-0.1,0.1c0,0.1-0.1,1.2-0.1,1.4c0,0.2,0,0.2,0.1,0.2c0,0,0.1,0,0.1,0
		C11.7,29.7,11.6,29.7,11.2,29.7 M12.6,29.7C12.6,29.6,12.6,29.6,12.6,29.7c0.2,0,0.2-0.1,0.1-0.7c0-0.3,0-0.7-0.1-0.8l0-0.2l-0.2,0
		c-0.3,0-0.3,0-0.4,0.1c0,0.1,0,0.1-0.1,0c0,0,0-0.1,0-0.2l0-0.1l0.1,0c0.1,0,1.1,0,1.4-0.1c0,0,0.1,0,0.1,0.2c0,0.2,0,0.2-0.1,0.1
		c-0.1-0.1-0.1-0.1-0.4-0.1l-0.2,0l0,0.1c0,0.1,0,0.3,0,0.6c0.1,0.9,0.1,0.9,0.2,0.9c0,0,0.1,0,0.1,0c0,0-0.1,0-0.3,0
		C12.7,29.7,12.6,29.7,12.6,29.7L12.6,29.7z M9.3,29.4c-0.1,0-0.3-0.1-0.4-0.1c-0.2,0-0.3-0.1-0.1-0.1c0.1,0,0.1,0,0.1-0.1
		c0.1-0.1,0.4-1.5,0.3-1.5c0,0,0-0.1-0.1-0.1c-0.1,0-0.1-0.1,0-0.1c0,0,0.2,0,0.4,0.1c0.5,0.1,0.7,0.2,0.9,0.4
		c0.2,0.2,0.3,0.4,0.2,0.7c0,0.4-0.2,0.7-0.5,0.8C10,29.5,9.6,29.5,9.3,29.4 M9.9,29.3c0.2-0.1,0.3-0.2,0.4-0.4c0.2-0.4,0-1-0.4-1.1
		c-0.2-0.1-0.5-0.2-0.5-0.1c0,0-0.1,0.3-0.2,0.7c-0.1,0.4-0.1,0.7-0.2,0.7c0,0.1,0.1,0.2,0.3,0.3C9.6,29.4,9.8,29.4,9.9,29.3
		 M14.4,29.4c-0.5-0.2-0.7-0.7-0.6-1.2c0.1-0.4,0.5-0.7,1-0.7c0.3,0,0.5,0.1,0.7,0.2c0.2,0.2,0.3,0.4,0.3,0.7c0,0.2,0,0.3-0.1,0.4
		c-0.2,0.3-0.5,0.5-0.9,0.5C14.6,29.4,14.5,29.4,14.4,29.4 M15.1,29.3c0.2-0.1,0.4-0.2,0.4-0.4c0-0.2,0-0.5-0.1-0.7
		c-0.1-0.3-0.4-0.5-0.6-0.5c-0.3,0-0.6,0.1-0.7,0.3c-0.2,0.4,0,1,0.4,1.2C14.7,29.3,14.9,29.3,15.1,29.3 M7.6,28.8
		c-0.2-0.1-0.4-0.2-0.4-0.2l-0.1,0l0.1,0c0.1,0,0.1,0,0.1-0.1c0.1-0.1,0.6-1.4,0.6-1.5c0,0,0-0.1-0.1-0.1c-0.1-0.1-0.1-0.1,0-0.1
		c0,0,0.2,0.1,0.5,0.2c0.2,0.1,0.4,0.2,0.4,0.2c0,0-0.1,0.3-0.2,0.3c0,0,0,0,0-0.1c0-0.1,0-0.1,0-0.1c-0.1,0-0.4-0.2-0.4-0.2
		c0,0-0.1,0.1-0.1,0.3l-0.1,0.3L8,27.9c0.1,0,0.2,0.1,0.3,0.1h0.1l-0.1,0.2c-0.1,0.2-0.1,0.2-0.1,0.1c0-0.1,0-0.1-0.1-0.2
		c-0.3-0.1-0.2-0.1-0.4,0.2c-0.1,0.2-0.1,0.3-0.1,0.4c0,0.1,0.1,0.1,0.3,0.2l0.2,0l0.1-0.1c0,0,0.1-0.1,0.1-0.1c0,0-0.1,0.3-0.2,0.3
		C8,29,7.8,28.9,7.6,28.8 M6.7,28.5c-0.3-0.2-0.3-0.2-0.4-0.7c0-0.5,0-0.5-0.2-0.5c-0.1,0-0.1-0.1-0.1-0.1c0,0-0.3,0.5-0.3,0.6
		c0,0,0,0.1,0.1,0.1c0.1,0.1,0.1,0.1,0,0.1c0,0-0.5-0.3-0.5-0.3c0,0,0,0,0.1,0c0.1,0,0.1,0,0.2-0.1c0.1-0.2,0.8-1.3,0.8-1.3
		c0,0,0-0.1-0.1-0.1c-0.1,0-0.1-0.1,0-0.1c0,0,0.7,0.4,0.8,0.5c0.2,0.2,0.2,0.4,0,0.6c-0.1,0.1-0.3,0.2-0.4,0.2
		c-0.1,0-0.1,0-0.1,0.4C6.6,28.1,6.7,28.3,6.7,28.5C6.9,28.6,6.9,28.6,6.7,28.5 M6.6,27.2c0.1-0.1,0.2-0.3,0.2-0.5
		c0-0.1-0.1-0.3-0.2-0.3c-0.1,0-0.1-0.1-0.1-0.1C6.5,26.4,6.1,27,6.1,27c0,0,0.1,0.1,0.2,0.2C6.4,27.2,6.5,27.2,6.6,27.2 M17.4,28.5
		C17.4,28.5,17.4,28.5,17.4,28.5c0.1-0.1,0.1-0.1,0.1-0.2c0-0.1-0.6-1.3-0.7-1.4c0,0-0.1,0-0.1,0c-0.2,0-0.1,0,0.3-0.3
		c0.2-0.1,0.4-0.2,0.5-0.3c0.1-0.1,0.1,0,0.1,0c0,0,0,0.1,0.1,0.2c0,0.1,0,0.1-0.1,0.1c0,0-0.1-0.1-0.1-0.1c0,0-0.4,0.2-0.4,0.2
		c0,0,0.1,0.1,0.2,0.3l0.2,0.3l0.2-0.1c0.1,0,0.2-0.1,0.2-0.2l0.1-0.1l0,0.1c0,0,0,0.1,0.1,0.2c0.1,0.1,0,0.2,0,0.1
		c0,0-0.1-0.1-0.1-0.1c-0.1,0-0.4,0.1-0.4,0.2c0,0,0.3,0.6,0.4,0.7c0,0,0.1,0.1,0.1,0c0.1,0,0.1,0,0.1,0
		C17.9,28.3,17.4,28.5,17.4,28.5C17.4,28.5,17.4,28.5,17.4,28.5 M18.8,27.7C18.8,27.7,18.8,27.7,18.8,27.7c0.1-0.1,0.1-0.1-0.4-0.8
		c-0.2-0.2-0.3-0.5-0.4-0.6c-0.1-0.1-0.1-0.1-0.2-0.1c-0.1,0-0.1,0-0.1,0c0,0,0.5-0.4,0.5-0.3c0,0,0,0,0,0.1c0,0.1,0,0.1,0,0.1
		c0.1,0.1,0.8,1.2,0.9,1.2c0.1,0.1,0.1,0.1,0.2,0c0,0,0.1,0,0.1,0c0,0,0,0,0,0C19.3,27.4,18.9,27.7,18.8,27.7
		C18.8,27.7,18.8,27.7,18.8,27.7L18.8,27.7z M4.6,27.1c-0.1,0-0.2-0.2-0.3-0.3C4,26.5,3.9,26.4,3.9,26c0-0.2,0-0.2,0.1-0.4
		c0.2-0.5,0.8-0.7,1.3-0.5c0.1,0.1,0.5,0.4,0.6,0.6L6,25.9L5.8,26c-0.1,0.1-0.2,0.2-0.2,0.2c0,0,0-0.1,0-0.1c0.1-0.1,0.1-0.1,0-0.3
		c-0.1-0.2-0.3-0.4-0.5-0.5c-0.3-0.1-0.5-0.1-0.8,0.2c-0.2,0.2-0.3,0.4-0.3,0.7c0,0.3,0.1,0.5,0.4,0.7C4.7,27,4.8,27,4.9,26.9
		c0.1,0,0.1-0.1,0.1,0c0,0-0.3,0.3-0.3,0.3C4.7,27.1,4.6,27.1,4.6,27.1 M19.8,27C19.8,27,19.8,27,19.8,27c0.1-0.1,0.1-0.2,0-0.2
		c0,0-0.3-0.3-0.6-0.7c-0.3-0.3-0.6-0.6-0.6-0.6s0,0,0,0c0.1,0,1.8,0.1,1.9,0.1l0.1,0l-0.4-0.4c-0.2-0.2-0.4-0.5-0.5-0.5
		c-0.1-0.1-0.1-0.1-0.2,0c-0.2,0.1-0.1,0,0.1-0.2c0.2-0.2,0.3-0.2,0.2-0.1c0,0,0,0.1,0,0.1c0,0,0.3,0.3,0.6,0.7
		c0.3,0.3,0.6,0.6,0.6,0.6c0,0-0.1,0-0.5,0c-0.5,0-1.3-0.1-1.4-0.1l-0.1,0l0.5,0.5c0.3,0.3,0.5,0.5,0.5,0.5c0,0,0.1,0,0.1,0
		c0.1-0.1,0.1,0-0.1,0.2C19.9,27,19.8,27.1,19.8,27 M13.2,26.7c-0.1,0-0.6,0-1.1,0c-1,0-1.7-0.1-2-0.2c-0.1,0-0.2,0-0.3-0.1
		c-0.1,0-0.3,0-0.4-0.1c-0.1,0-0.3-0.1-0.4-0.1c-0.2,0-0.8-0.3-1-0.4c-0.1,0-0.1-0.1-0.2-0.1c0,0-0.2-0.1-0.3-0.2
		c-0.2-0.2-0.5-0.3-1.1-0.6c-0.1,0-0.2-0.1-0.3-0.2c-0.1-0.1-0.3-0.2-0.4-0.3c-0.5-0.4-1-0.9-1.4-1.4c-0.1-0.1-0.2-0.3-0.3-0.5
		c-0.1-0.2-0.2-0.4-0.2-0.4c0,0-0.1-0.1-0.1-0.2c0,0-0.1-0.1-0.1-0.2c-0.1-0.2-0.2-0.3-0.2-0.5c0-0.1-0.1-0.2-0.1-0.2
		c0,0-0.1-0.1-0.1-0.1c0,0,0-0.1-0.1-0.1c0-0.1-0.1-0.1-0.1-0.1c0,0,0-0.1-0.1-0.1c0-0.1-0.1-0.2-0.1-0.3c-0.1-0.3-0.2-1.5-0.2-2.7
		c0-0.9,0-1,0-1.2c0-0.1,0-0.3,0-0.5c0-0.3,0-0.4,0.1-0.4C3,15.3,3,15.2,3,15.1c0-0.1,0.1-0.3,0.1-0.4c0.1-0.2,0.1-0.3,0.1-0.4
		c0-0.1,0-0.2,0.1-0.3c0-0.1,0.1-0.2,0.1-0.3c0,0,0-0.1,0-0.1c0,0,0-0.1,0-0.1c0,0,0-0.1,0.1-0.2c0.6-1,0.7-1.2,1.1-1.7
		c0.4-0.5,0.6-0.7,1.1-1c0.3-0.2,0.6-0.4,0.7-0.5C6.8,9.8,6.8,9.8,7,9.8c0.1,0,0.2-0.1,0.3-0.1c0.2-0.1,0.4-0.2,1-0.3
		C8.6,9.2,9,9.1,9.1,9.1C9.2,9,9.3,9,9.3,9c0,0,0.1,0,0.1-0.1c0.1,0,0.1-0.1,0.2-0.1c0,0,0.1,0,0.1-0.1c0,0,0.1,0,0.1,0
		s0.1,0,0.2-0.1c0,0,0.1-0.1,0.2-0.1c0.1,0,0.1,0,0.2-0.1c0,0,0.1,0,0.2-0.1c0.1,0,0.2,0,0.4-0.1c0.2-0.1,0.2-0.1,1.3,0
		c0.6,0,1.1,0,1.2,0c0.1,0,0.2,0,0.3,0c0.1,0,0.3,0,0.5,0.1c0.1,0,0.3,0.1,0.3,0.1c0,0,0.1,0,0.1,0c0,0,0.1,0.1,0.1,0.1
		c0.1,0,0.1,0.1,0.2,0.1c0,0,0.1,0,0.2,0.1c0.1,0,0.2,0,0.3,0.1C15.5,9,15.6,9,15.6,9c0.1,0,0.6,0.3,1.4,0.8
		c0.3,0.2,0.7,0.4,0.9,0.6c0.4,0.2,0.6,0.4,0.9,0.7c0.2,0.2,1,1.2,1.2,1.4c0.1,0.1,0.1,0.2,0.2,0.3c0.1,0.1,0.1,0.2,0.2,0.6
		c0,0.1,0.1,0.3,0.2,0.5c0.1,0.1,0.2,0.4,0.3,0.6c0.1,0.2,0.2,0.4,0.2,0.5c0.1,0.2,0.3,0.8,0.3,1c0,0.1,0.1,0.3,0.1,0.4
		c0,0.1,0.1,0.2,0.1,0.3c0,0.1,0,0.2,0.1,0.3c0,0.1,0,0.2,0,0.7c0,0.8,0,1.1-0.1,1.2c0,0,0,0.2-0.1,0.3c0,0.1,0,0.2-0.1,0.3
		c0,0,0,0.1,0,0.2c0,0.1,0,0.2-0.1,0.2c0,0.1-0.1,0.2-0.1,0.3c0,0.1-0.1,0.3-0.2,0.5s-0.2,0.5-0.2,0.5c0,0.1-0.1,0.2-0.1,0.2
		c0,0.1-0.1,0.1-0.1,0.2c0,0,0,0.1,0,0.1c-0.1,0-0.1,0.2-0.1,0.2c0,0,0,0,0,0c0,0-0.1,0.1-0.1,0.1c-0.1,0.1-0.1,0.2-0.2,0.3
		c0,0-0.1,0.2-0.2,0.4c-0.1,0.2-0.2,0.4-0.3,0.5c-0.1,0.1-0.2,0.3-0.2,0.4c-0.1,0.1-0.2,0.3-0.3,0.4c-0.1,0.2-0.3,0.4-0.3,0.5
		c-0.2,0.2-0.3,0.4-0.7,0.7c-0.3,0.2-0.3,0.2-0.5,0.3c-0.1,0-0.2,0.1-0.2,0.1c0,0-0.1,0-0.2,0c-0.1,0-0.2,0-0.3,0.1
		c-0.1,0.1-0.2,0.1-0.2,0.1c0,0-0.1,0-0.2,0.1c-0.2,0.1-0.4,0.3-0.6,0.4c-0.1,0-0.2,0.1-0.2,0.1c0,0-0.1,0.1-0.2,0.1
		c-0.1,0-0.1,0-0.2,0.1c0,0-0.1,0-0.2,0c-0.1,0-0.2,0-0.2,0.1c0,0-0.1,0.1-0.1,0.1s-0.1,0-0.2,0.1c-0.1,0.1-0.2,0.1-0.7,0.1
		C13.6,26.7,13.3,26.7,13.2,26.7 M12.8,26.4c1.1,0,1.3,0,1.5,0c0.1,0,0.4,0,0.6-0.1c0.1,0,0.2-0.1,0.3-0.1c0.2,0,0.5-0.1,0.6-0.2
		c0,0,0.1,0,0.1,0c0,0,0.1,0,0.1-0.1c0,0,0.1-0.1,0.1-0.1c0.1,0,0.6-0.3,0.6-0.4c0-0.1,0-0.1,0-0.1l-0.1-0.1l-0.1,0.1
		c-0.3,0.1-0.5,0.2-0.6,0.2c-0.1,0-0.1,0-0.2,0.1c0,0-0.1,0.1-0.1,0.1c0,0-0.1,0-0.1,0.1c0,0-0.1,0.1-0.2,0.1c-0.1,0-0.2,0-0.2,0.1
		c0,0-0.1,0-0.1,0c0,0-0.1,0-0.2,0.1c-0.1,0-0.2,0.1-0.3,0.1c-0.1,0-0.1,0-0.2,0c0,0-0.2,0-0.3,0.1c-0.1,0-0.3,0-0.3,0
		c0,0-1,0.1-1.3,0.1c-0.3,0-0.4,0-0.8,0c-0.4,0-0.7,0-1-0.1c-0.1,0-0.2,0-0.3,0c-0.1,0-0.2,0-0.2,0c-0.1,0-0.2,0-0.2-0.1
		c-0.1,0-0.2,0-0.3-0.1c-0.1,0-0.2-0.1-0.3-0.1c0,0-0.1,0-0.2-0.1c-0.1,0-0.2-0.1-0.3-0.1c-0.1,0-0.2-0.1-0.3-0.1
		c-0.2-0.2-0.4-0.3-1-0.6c-0.7-0.4-1.1-0.6-1.1-0.7c0-0.1,0.1-0.1,0.4,0.1c0.3,0.2,1.1,0.6,1.2,0.6c0.1,0,0.2-0.2,0.2-0.3
		c0.1-0.2,0.3-0.5,0.5-0.6c0.1-0.1,0.1-0.1-0.2-0.3c-0.1-0.1-0.4-0.3-0.5-0.4c-0.1-0.1-0.2-0.2-0.2-0.2S7.7,23,7.6,23
		c-0.1-0.1-0.2-0.1-0.2-0.1c-0.1,0-0.4,0.3-0.4,0.4c0,0,0,0.1,0,0.1l0,0.1l0.1,0c0.2,0,0.4,0,0.5,0c0.1,0,0.3,0.1,0.3,0.2
		c0,0.1,0,0.1-0.1,0.1c-0.2,0-0.5,0-0.5,0.1c0,0,0,0,0.1,0.1c0.1,0.1,0.1,0.1,0.1,0.2c0,0.1-0.1,0.3-0.2,0.3c-0.1,0-0.4-0.2-0.4-0.3
		c0,0,0-0.1,0-0.2l0-0.1l-0.1,0c-0.1,0-0.3,0.3-0.3,0.3c0,0,0,0.1,0,0.1c0,0,0,0.1,0,0.1c0,0-0.3-0.1-0.5-0.4
		c-0.1-0.1-0.3-0.3-0.4-0.4c-0.1-0.1-0.2-0.2-0.2-0.3c-0.1-0.1-0.2-0.4-0.3-0.6c-0.1-0.2-0.2-0.4-0.2-0.5c0-0.1-0.1-0.2-0.1-0.3
		c-0.1-0.1-0.1-0.2-0.1-0.2c0-0.1-0.2-0.4-0.4-0.7c-0.1-0.2-0.2-0.4-0.2-0.4c0,0,0-0.1-0.1-0.2c0-0.1-0.1-0.2-0.1-0.2
		c0,0,0-0.1,0-0.1c0,0-0.1-0.2-0.1-0.3c0-0.1-0.1-0.2-0.1-0.3c0,0,0-0.2,0-0.3c0-0.1,0-0.2,0-0.3c0-0.1,0-0.1,0-0.2
		c0-0.1,0-0.2,0-0.3c-0.1-0.6-0.1-0.9,0-1.1c0.1-0.4,0.1-0.5,0.1-0.8c-0.1-0.3-0.1-0.5,0-1c0.1-0.5,0.4-1.2,0.5-1.4
		c0,0,0.1-0.1,0.1-0.2c0.1-0.3,0.4-0.7,1.2-1.5c0.3-0.3,0.6-0.7,0.8-0.9c0.3-0.3,0.5-0.6,0.7-0.7c0.1-0.1,0.4-0.2,0.5-0.2
		c0,0,0.1,0,0.1,0c0,0,0.1-0.1,0.2-0.1c0.1,0,0.2,0,0.2-0.1c0,0,0.1,0,0.1,0c0,0,0.2-0.1,0.3-0.1c0.1-0.1,0.3-0.1,0.4-0.1
		c0.1,0,0.1,0,0.2-0.1c0,0,0.1,0,0.1,0c0.1,0,0.4-0.1,0.8-0.3c0.4-0.2,0.8-0.3,1-0.3c0.1,0,0.1,0,0.1,0c0,0,0.1,0,0.1-0.1
		c0,0,0.1,0,0.2-0.1c0.1,0,0.1-0.1,0.2-0.1c0.2,0,0.5-0.1,0.6-0.2c0,0,0.2-0.1,0.3-0.2c0.2-0.1,0.2-0.1,0.2-0.2c0,0-0.1,0-0.2,0
		c-0.1,0-0.3,0-0.3,0c-0.1,0-0.2,0-0.3,0c-0.1,0-0.2,0-0.4,0.1c-0.4,0.1-0.6,0.1-0.8,0.2C10,9,9.8,9.1,9.7,9.1
		c-0.1,0-0.4,0.1-0.5,0.2C8.9,9.4,8.8,9.5,8.6,9.5c-0.1,0-0.4,0.1-0.7,0.2c-0.1,0-0.2,0.1-0.2,0.1c-0.1,0-0.1,0-0.2,0.1
		c0,0-0.2,0.1-0.3,0.1c-0.2,0.1-0.3,0.1-0.5,0.3c-0.4,0.3-0.7,0.5-0.8,0.6c-0.3,0.2-0.8,0.7-1.3,1.4c-0.2,0.3-0.4,0.6-0.4,0.6
		c0,0-0.1,0.1-0.1,0.2c-0.1,0.1-0.1,0.2-0.1,0.2c0,0,0,0.1-0.1,0.2c0,0.1-0.1,0.3-0.1,0.4c0,0.2-0.1,0.4-0.2,0.5
		c-0.1,0.1-0.1,0.3-0.1,0.4c0,0.1,0,0.2-0.1,0.3c0,0.1-0.1,0.2-0.1,0.4c-0.1,0.3-0.1,0.5-0.1,2l0,1.7l0.1,0.3c0,0.2,0.1,0.4,0.1,0.4
		c0,0.1,0,0.2,0.1,0.3c0,0.1,0.1,0.2,0.1,0.3c0,0,0,0.1,0.1,0.1c0.1,0.1,0.3,0.4,0.3,0.6c0,0.1,0.1,0.2,0.2,0.4
		C3.9,21.6,4,21.8,4,21.9c0,0.2,0.6,1,0.9,1.3c0.1,0.1,0.3,0.3,0.4,0.5c0.3,0.3,1.3,1.1,1.5,1.2c0.1,0,0.2,0.1,0.3,0.2
		c0.1,0.1,0.3,0.1,0.3,0.2c0.1,0,0.3,0.2,0.4,0.2c0.5,0.4,1.1,0.6,2.4,0.8c0.4,0.1,0.7,0.1,0.8,0.1c0.1,0,0.2,0,0.3,0
		C11.6,26.4,12.2,26.4,12.8,26.4 M11.6,26c0-0.1,0.1-0.1,0.1,0c0.1,0.1,0.2,0.1,0.3,0.1c0.3,0,0.5,0,0.6,0c0,0,0.1-0.1,0.1-0.2
		c0.1-0.2,0.2-0.3,0.3-0.2c0,0,0.4,0.1,0.5,0.1c0.1,0,0.2,0,0.2-0.1c0-0.1-0.2-0.2-0.3-0.2c-0.1,0-0.3-0.1-0.5-0.2
		c-0.1-0.1-0.1-0.1-0.1-0.3l0-0.2l-0.1,0c0,0-0.1,0-0.1-0.1c0,0-0.1,0-0.3,0c-0.1,0-0.2,0.1-0.2,0.2c0,0.1,0.1,0.1,0.2,0.1
		c0.2,0,0.3,0.1,0.2,0.2c-0.1,0.1-0.1,0.2,0,0.3c0,0.1,0,0.1,0,0.1c0,0-0.1,0.1-0.2,0.1c-0.1,0-0.2,0.1-0.3,0.1
		c-0.1,0.1-0.2,0.1-0.3-0.1c-0.1-0.2-0.2-0.1-0.2,0.1c0,0.1,0,0.1,0,0.1c0,0,0-0.1,0-0.4c0-0.3,0-0.4,0-0.4c0,0-0.3-0.1-0.4-0.1
		c-0.1,0-0.1,0.1-0.2,0.3c-0.1,0.2-0.1,0.3-0.2,0.3c0,0-0.1,0-0.2-0.1c-0.2-0.1-0.3-0.1-0.5,0c-0.1,0-0.3,0.1-0.4,0.1l-0.2,0v-0.1
		c0-0.1,0.1-0.2,0.3-0.5c0.1-0.1,0.1-0.2,0.1-0.2c0-0.1-0.3-0.2-0.5-0.3c-0.1,0-0.2,0-0.2,0.2c0,0.2-0.2,0.6-0.4,0.8
		c-0.1,0.1-0.2,0.2-0.1,0.2c0,0,0.3,0.2,0.5,0.2c0.1,0,0.2,0,0.3,0.1c0.3,0.1,0.4,0.1,0.4,0c0,0,0.1-0.1,0.2-0.1
		c0.1,0,0.2-0.1,0.2-0.1c0.1-0.1,0.3,0,0.4,0.2c0.2,0.3,0.2,0.3,0.5,0.3C11.6,26.1,11.6,26.1,11.6,26L11.6,26z M13.5,26
		c0.1-0.1,0-0.1-0.1-0.1c-0.1,0-0.2,0-0.2,0.1c0,0,0,0.1,0,0.1C13.2,26.1,13.4,26.1,13.5,26 M10.7,25.9c0.1-0.1,0-0.1-0.1-0.1
		c-0.1,0-0.2,0.1-0.1,0.1C10.5,26,10.7,26,10.7,25.9 M14.2,25.8c0.2-0.2,0.2-0.4,0.1-0.6c0,0-0.1-0.1-0.3-0.1c-0.2,0-0.3,0-0.3-0.1
		c-0.1-0.1-0.1-0.2,0-0.3c0-0.1,0-0.1,0-0.1c-0.1-0.1-0.4,0-0.5,0.2c0,0.1,0,0.1,0,0.2c0,0.1,0.1,0.1,0.3,0.2
		c0.1,0.1,0.3,0.1,0.4,0.2c0.2,0.1,0.2,0.1,0.2,0.2c0,0.1,0,0.1-0.1,0.2c-0.1,0.1-0.1,0.2,0.1,0.2C14.1,25.9,14.1,25.9,14.2,25.8
		 M14.8,25.6c0.1-0.1,0.2-0.2,0.2-0.3c0-0.1,0-0.2,0.1-0.3c0-0.1,0.1-0.2,0.1-0.2c0,0,0-0.1,0.1-0.2c0.1-0.2,0-0.3-0.2-0.3
		c-0.2,0-0.3,0.1-0.3,0.3c0,0.2-0.1,0.3-0.2,0.3c0,0-0.1,0-0.1,0c-0.1,0-0.1,0.1,0,0.1c0.1,0,0.2,0.1,0.3,0.2
		c0.1,0.1,0.1,0.2,0.1,0.2c0,0.1,0,0.1,0,0.1C14.6,25.7,14.7,25.7,14.8,25.6L14.8,25.6z M15.5,25.5c0,0,0.1,0,0.2-0.1
		c0.3,0,0.3-0.1,0.2-0.4c-0.1-0.3-0.1-0.7,0.1-0.7c0.1,0,0.5,0.3,0.7,0.5c0.1,0.1,0.1,0.2,0.1,0.2c0.1,0,0.4-0.2,0.4-0.3
		c0,0-0.1-0.1-0.2-0.1c0,0-0.1-0.1-0.2-0.1c0,0-0.1-0.1-0.2-0.1c0,0-0.2-0.1-0.2-0.1c-0.1-0.1-0.2-0.1-0.2-0.1
		c-0.1,0-0.1-0.1-0.2-0.1c0,0-0.1-0.1-0.2-0.1c-0.2,0-0.3,0-0.4,0.2c0,0.1,0,0.2-0.1,0.3c0,0.1,0,0.2,0,0.2c0,0,0,0.1-0.1,0.3
		c-0.1,0.1-0.1,0.2-0.1,0.3c0,0,0,0.1,0,0.2c-0.1,0.1-0.1,0.1,0,0.2C15.3,25.6,15.4,25.6,15.5,25.5 M12.3,25.4c0,0,0.1-0.2,0.1-0.2
		c0-0.1-0.1-0.2-0.2-0.2c-0.1,0-0.2,0.2-0.1,0.3C12.2,25.5,12.3,25.5,12.3,25.4 M8.8,25.2C9,25.1,9,24.9,9.1,24.5c0-0.2,0-0.2,0-0.3
		c0,0-0.1,0-0.2,0c-0.2,0-0.3,0.1-0.5,0.4c-0.1,0.2-0.1,0.2-0.1,0.4c0,0.2,0,0.2,0.1,0.2C8.4,25.3,8.6,25.3,8.8,25.2 M16.5,25.2
		c0,0,0-0.1,0-0.2c0-0.1,0-0.2-0.1-0.3c-0.1-0.1-0.1-0.1-0.2-0.1c-0.1,0-0.1,0-0.1,0.1c-0.1,0.2,0,0.5,0.1,0.5
		C16.3,25.2,16.4,25.2,16.5,25.2 M17.6,25.1c0.1,0,0.2-0.1,0.2-0.1c0.1,0,0.4-0.3,0.6-0.5c0.3-0.3,1.1-1.5,1.4-2.1
		c0.1-0.2,0.3-0.6,0.5-0.9c0.1-0.2,0.2-0.4,0.2-0.4c0,0,0-0.1,0.1-0.2c0.1-0.1,0.1-0.3,0.2-0.4c0-0.2,0.2-0.7,0.3-1
		c0-0.1,0.1-0.4,0.1-0.6c0-0.2,0.1-0.5,0.1-0.6s0-0.5,0-0.8c0-0.8,0-0.8-0.3-1.8c0-0.1-0.1-0.3-0.1-0.4c0-0.1-0.1-0.3-0.1-0.3
		c0,0-0.1-0.1-0.1-0.1c0,0,0-0.2-0.1-0.3c-0.1-0.1-0.2-0.4-0.3-0.6c-0.1-0.2-0.2-0.4-0.2-0.5c0-0.1-0.1-0.2-0.2-0.3
		c-0.2-0.6-1.3-1.9-2-2.4c-0.4-0.3-0.6-0.4-0.7-0.5c0,0-0.1-0.1-0.1-0.1c0,0-0.1-0.1-0.2-0.1C17,10.1,17,10,16.9,10
		c0,0-0.1-0.1-0.1-0.1c-0.1,0-0.6-0.3-0.9-0.5c-0.2-0.1-0.3-0.2-0.4-0.2c-0.1,0-0.2-0.1-0.3-0.1c-0.1,0-0.2-0.1-0.3-0.1
		c-0.1,0-0.2-0.1-0.3-0.1c-0.5-0.2-0.6-0.2-1-0.3c-0.7,0-1.3,0-1.3,0c0,0,0.1,0,0.4,0c0.3,0,0.4,0,0.5,0c0.1,0,0.2,0.1,0.2,0.1
		c0.2,0.1,0.3,0.1,0.4,0.2c0.1,0.1,0.2,0.1,0.2,0.1c0,0,0.1,0,0.2,0.1c0,0,0.1,0.1,0.2,0.1c0.1,0,0.2,0.1,0.2,0.1
		c0.1,0.1,0.5,0.1,0.7,0.1c0.2,0,0.5,0,0.7,0c0.1,0,0.1,0.1,0.2,0.1c0,0,0.1,0.1,0.2,0.1c0.1,0,0.2,0.1,0.6,0.4
		c0.1,0.1,0.2,0.2,0.3,0.2c0.1,0,0.2,0.1,0.3,0.1c0.1,0.1,0.4,0.5,0.6,0.7c0.1,0.2,0.3,0.4,0.4,0.4c0.1,0,0.2,0.2,0.3,0.3
		c0.2,0.2,0.3,0.3,0.4,0.5c0.1,0.2,0.1,0.3,0.2,0.3c0,0,0,0.1,0.1,0.1c0,0.1,0.2,0.3,0.4,0.5c0.3,0.2,0.6,0.6,0.7,1.1
		c0,0.1,0.1,0.3,0.1,0.3c0,0.1,0.1,0.2,0.1,0.3c0,0.1,0,0.2,0.1,0.2c0,0,0.1,0.2,0.1,0.4c0,0.2,0.1,0.4,0.2,0.6l0.1,0.3l0,0.7
		c0,0.5,0,0.8,0,0.8c0,0,0,0.2-0.1,0.5c0,0.3,0,0.4-0.1,0.5c0,0.1-0.1,0.2-0.1,0.3c0,0.1,0,0.3-0.1,0.4c0,0.2-0.2,0.5-0.2,0.6
		c0,0,0,0.1-0.1,0.1c0,0.1,0,0.1-0.1,0.1c0,0,0,0.1-0.1,0.1c0,0.1-0.1,0.4-0.3,0.7c-0.1,0.2-0.3,0.5-0.4,0.7
		c-0.1,0.2-0.3,0.5-0.3,0.6c-0.1,0.1-0.2,0.3-0.3,0.5c-0.1,0.2-0.2,0.3-0.3,0.4c-0.1,0.1-0.2,0.1-0.2,0.1c-0.1,0-0.2-0.3-0.2-0.4
		c0-0.1-0.1-0.1-0.3-0.1c-0.1,0-0.2,0-0.3,0c-0.2-0.1-0.4-0.2-0.4-0.3c0,0,0-0.1-0.1-0.1c0-0.1-0.1-0.1-0.1,0c-0.1,0-0.1,0.4,0,0.5
		c0,0,0.1,0.1,0.1,0.1c0,0,0,0.1,0.1,0.2c0.2,0.3,0.4,0.4,0.5,0.5c0.2,0,0.3,0.1,0.3,0.1c0,0.1-0.2,0.3-0.5,0.5
		c-0.3,0.2-0.5,0.5-0.5,0.5c0,0.1,0.1,0.1,0.1,0.1C17.4,25.2,17.5,25.2,17.6,25.1L17.6,25.1L17.6,25.1z M10.4,25l0.2-0.1l0.1,0.1
		c0.1,0.1,0.1,0.1,0.2,0c0.1-0.1,0-0.1,0-0.2c-0.1-0.1-0.2-0.1-0.4-0.1C10.1,24.9,10,24.9,10,25c0,0,0,0.1,0.1,0.1
		C10.2,25.1,10.3,25.1,10.4,25 M14,24.9c0-0.1-0.1-0.1-0.1,0c0,0,0,0,0,0.1C14,25,14,25,14,24.9 M11.8,24.7
		C11.9,24.7,11.9,24.6,11.8,24.7c0-0.2-0.2-0.2-0.3-0.1c0,0.1,0,0.1,0.1,0.1C11.8,24.8,11.8,24.8,11.8,24.7 M14.2,24.6
		c0-0.1,0-0.1,0-0.1c-0.1,0-0.4,0-0.4,0.1c0,0.1,0.1,0.1,0.3,0.1C14.2,24.7,14.2,24.7,14.2,24.6 M11.4,24.6c0.1-0.1,0-0.1-0.1-0.2
		c-0.1,0-0.2,0-0.2-0.1c0,0-0.2-0.1-0.3-0.1c-0.1,0-0.3-0.1-0.3-0.1c0,0-0.1-0.1-0.2-0.1c0,0-0.1,0-0.1-0.1c0,0-0.1,0-0.1,0
		c0,0-0.1,0-0.1-0.1c0,0-0.1-0.1-0.1-0.1s-0.1,0-0.1-0.1c0,0-0.1-0.1-0.2-0.1c-0.1,0-0.2,0-0.2-0.1c0,0-0.1,0-0.2-0.1
		c-0.1,0-0.1,0-0.2-0.1c0,0-0.1-0.1-0.2-0.1c-0.2-0.1-0.3-0.2-0.5-0.4c-0.2-0.3-0.4-0.4-0.6-0.5c-0.3,0-0.1,0.2,0.5,0.6
		c0.2,0.2,0.4,0.3,0.5,0.4c0.1,0.1,0.2,0.1,0.2,0.1c0,0,0.1,0.1,0.2,0.1C9,23.8,9.3,23.9,9.5,24c0.2,0.1,0.4,0.2,0.4,0.2
		c0,0,0.1,0.1,0.2,0.1c0.1,0,0.2,0.1,0.2,0.1c0,0,0.1,0,0.1,0c0,0,0.1,0,0.2,0c0.1,0,0.2,0.1,0.3,0.1C11.2,24.6,11.3,24.6,11.4,24.6
		 M13.6,24.5c0.2,0,0.4,0,0.4-0.1c0,0,0.1,0,0.2,0s0.2,0,0.3-0.1c0.1,0,0.3-0.1,0.4-0.1c0.1,0,0.1,0,0.2-0.1c0,0,0.1-0.1,0.2-0.1
		c0.1,0,0.2-0.1,0.3-0.1c0,0,0.1-0.1,0.1-0.1c0.1,0,0.5-0.3,0.8-0.6c0.6-0.6,1.1-1.3,1.1-1.4c0,0,0-0.1,0.1-0.1c0,0,0.1-0.1,0.1-0.1
		c0,0,0-0.1,0-0.1c0,0,0-0.1,0.1-0.1c0-0.1,0.1-0.2,0.3-0.6c0.1-0.1,0.2-0.3,0.2-0.3c0,0,0-0.1,0.1-0.2c0.1-0.1,0.1-0.1,0.1-0.2
		c0,0,0-0.1,0-0.1c0,0,0-0.1,0.1-0.2c0-0.1,0.1-0.2,0.1-0.3c0.1-0.2,0.2-0.7,0.2-0.8c0,0,0-0.1,0-0.2c0-0.1,0.1-0.3,0.1-0.4
		c0-0.2,0-0.3,0.1-0.3c0,0,0-0.1,0-0.2c0-0.1,0-0.3,0.1-0.4c0.1-0.6,0.1-0.7,0-0.8c0-0.1-0.1-0.2-0.1-0.2c0-0.1,0-0.1-0.1-0.1
		c-0.1,0-0.2,0-0.3,0c0,0,0,0.4,0,0.5c0,0.1,0,0.2,0,0.7c0,0.3,0,0.7-0.1,1c0,0.2-0.1,0.5-0.1,0.7c0,0.1,0,0.2,0,0.3
		c0,0,0,0.1-0.1,0.2c0,0.1,0,0.2-0.1,0.2c-0.1,0.1-0.3,0.6-0.4,0.8c0,0.1-0.2,0.3-0.3,0.4c-0.2,0.2-0.3,0.3-0.3,0.4
		c0,0.1-0.1,0.1-0.1,0.2c0,0-0.1,0.1-0.1,0.2c-0.1,0.2-0.7,1-1,1.3c-0.2,0.2-0.4,0.3-0.6,0.5c-0.3,0.2-0.9,0.5-0.9,0.5
		c0,0-0.1,0-0.2,0.1c-0.1,0.1-0.2,0.1-0.3,0.1c0,0-0.1,0-0.2,0.1c-0.1,0.1-0.2,0.1-0.5,0.1c-0.2,0-0.3,0-0.3,0
		c0-0.1-0.2-0.1-0.3-0.1c-0.1,0-0.2,0-0.3-0.1c-0.1-0.1-0.2-0.1-0.7-0.1c-0.5,0-0.6,0-0.8-0.1c-0.1,0-0.2-0.1-0.3-0.1h-0.2l-0.2-0.2
		c-0.1-0.1-0.3-0.2-0.3-0.3c-0.2-0.1-0.2-0.1-0.4-0.1c-0.2,0-0.3,0-0.4-0.1C9.1,23,9,22.9,8.9,22.8c0-0.1-0.1-0.2-0.2-0.3
		c-0.1-0.1-0.2-0.2-0.2-0.2c-0.1-0.2-0.3-0.4-0.6-0.6C7.5,21.3,7.3,21,7.3,21c0,0,0-0.1-0.1-0.1c0,0-0.1-0.1-0.1-0.2
		c0-0.1,0-0.2-0.1-0.2c0-0.1-0.1-0.2-0.2-0.3c-0.1-0.1-0.1-0.3-0.2-0.3c0,0-0.1-0.1-0.1-0.1c0,0-0.1-0.2-0.1-0.3
		c-0.1-0.1-0.1-0.3-0.1-0.3c0,0,0-0.1,0-0.1c0,0-0.1-0.1-0.1-0.2c0-0.1,0-0.2-0.1-0.3c-0.1-0.1-0.1-0.5,0-0.7c0-0.1,0.1-0.2,0.1-0.3
		c0-0.1,0.1-0.2,0.1-0.3c0-0.1,0-0.1,0.1-0.2c0,0,0-0.1,0.1-0.2c0-0.1,0.1-0.2,0.1-0.2c0,0,0-0.1,0-0.1c0,0,0-0.1,0.1-0.2
		c0-0.1,0.1-0.2,0.1-0.2c0,0,0-0.1,0-0.1c0,0,0-0.1,0.1-0.2c0-0.1,0.1-0.2,0.1-0.2c0-0.1,0.1-0.1,0.1-0.1c0-0.1,0.3-0.6,0.3-0.7
		c0,0,0.1-0.1,0.1-0.1c0,0,0-0.1,0.1-0.1c0,0,0.1-0.1,0.1-0.2c0-0.1,0.1-0.2,0.3-0.4c0.1-0.1,0.3-0.3,0.4-0.4
		c0.1-0.1,0.2-0.2,0.4-0.4C8.9,13,9,12.9,9.2,12.9c0.1,0,0.3-0.1,0.5-0.2c0.2-0.1,0.5-0.2,0.6-0.3c0.3-0.1,0.4-0.1,0.3-0.3
		c0-0.1,0-0.1-0.1-0.1c-0.1,0-0.4,0.1-0.7,0.2c-0.1,0-0.2,0.1-0.3,0.1c-0.2,0.1-0.6,0.3-0.8,0.5c-0.1,0.1-0.3,0.2-0.3,0.3
		c-0.1,0.1-0.6,0.6-0.8,0.8c-0.1,0.1-0.2,0.2-0.3,0.4c-0.1,0.1-0.2,0.3-0.3,0.4c-0.1,0.1-0.1,0.1-0.1,0.2c0,0-0.1,0.1-0.1,0.3
		c-0.1,0.1-0.1,0.2-0.1,0.2c0,0,0,0.1-0.1,0.1c-0.1,0.1-0.1,0.2-0.1,0.3c0,0.1-0.1,0.2-0.1,0.2c0,0-0.1,0.1-0.1,0.1
		c0,0,0,0.1-0.1,0.2C6,16.4,5.9,16.8,5.9,17c0,0.1,0,0.2-0.1,0.3c0,0.1,0,0.2,0,0.7c0,0.3,0,0.5,0.1,0.6c0,0.1,0,0.2,0,0.3
		c0,0.2,0.1,0.4,0.2,0.6c0,0.1,0.1,0.2,0.1,0.2c0,0.1,0.1,0.3,0.2,0.5c0,0.1,0.1,0.1,0.1,0.2c0,0,0,0.1,0.1,0.2c0,0,0.1,0.1,0.1,0.2
		c0,0.1,0,0.2,0.1,0.2c0,0,0,0.1,0,0.1c0,0,0,0.2,0.1,0.3c0.1,0.1,0.1,0.3,0.2,0.4c0.1,0.2,0.3,0.4,0.5,0.5c0.1,0,0.2,0.1,0.3,0.1
		c0.1,0,0.2,0.1,0.2,0.1c0.1,0,0.2,0.1,0.6,0.6c0.2,0.2,0.2,0.2,0.3,0.2c0.1,0,0.3,0.1,0.4,0.2c0.2,0.1,0.3,0.2,0.4,0.2
		c0,0,0.1,0,0.2,0.1c0.6,0.3,0.9,0.4,1,0.4c0,0,0.1,0,0.1,0.1c0.1,0,0.1,0.1,0.2,0.1s0.1,0,0.2,0.1c0.1,0.1,0.7,0.1,0.9,0.1
		c0.1,0,0.2,0,0.3,0C12.7,24.5,13.1,24.5,13.6,24.5 M17.7,24.5c0.1,0,0.2-0.1,0.2-0.2c0-0.1,0-0.1-0.1-0.2c-0.1-0.1-0.5-0.4-0.5-0.5
		c0,0,0-0.1-0.1-0.1c0-0.1-0.1-0.1-0.1-0.2c0-0.1-0.1-0.2-0.1-0.2c-0.1,0-0.3,0.2-0.4,0.3c-0.1,0.1,0,0.2,0.1,0.2
		c0.2,0.1,0.4,0.4,0.6,0.8C17.4,24.5,17.5,24.5,17.7,24.5 M17.1,24.4c0.1,0,0.1-0.2,0-0.3c-0.1-0.1-0.3-0.3-0.4-0.4
		c-0.1-0.1-0.4-0.1-0.5,0c-0.1,0.1,0,0.2,0.1,0.2c0.1,0,0.2,0.1,0.2,0.2c0.1,0.1,0.2,0.1,0.2,0.1c0.1,0,0.1,0.1,0.2,0.1
		C17,24.5,17,24.5,17.1,24.4 M13.8,23.9c0,0,0.1-0.1,0.1-0.1c0,0,0.1,0,0.1,0c0,0,0.1-0.1,0.2-0.1c0.1,0,0.2,0,0.3-0.1l0.1-0.1
		l0-0.2c0-0.1-0.1-0.2-0.2-0.3C14.2,23,14,23,13.7,23.3c-0.1,0.1-0.2,0.2-0.3,0.2C13,23.7,13,23.7,13,23.8c0,0.1,0,0.1,0.3,0.1
		C13.6,24,13.7,24,13.8,23.9 M6.7,23.3c0.2-0.2,0.4-0.5,0.5-0.5c0.1-0.2,0-0.4-0.2-0.5c-0.1-0.1-0.1-0.1-0.4,0
		c-0.5,0.1-0.8,0.2-0.9,0.4c-0.2,0.2-0.2,0.3-0.2,0.4c0,0,0,0.1,0.1,0.1c0,0,0,0.1,0.1,0.1c0,0.1,0.4,0.4,0.5,0.4
		C6.2,23.8,6.2,23.8,6.7,23.3 M12.8,23.7c0.1-0.1,0.2-0.2,0-0.4c0-0.1-0.1-0.2-0.1-0.2c0,0-0.1-0.1-0.2-0.2
		c-0.1-0.1-0.2-0.3-0.3-0.3c0-0.1-0.1-0.1-0.1-0.1c-0.1,0-0.1,0-0.1,0c-0.1,0.1,0,0.1,0,0.3c0,0.1,0.1,0.2,0.1,0.3
		c0,0.1,0,0.1,0.1,0.2c0,0.1,0.1,0.1,0.1,0.2c0,0.1,0.1,0.2,0.1,0.2C12.5,23.7,12.6,23.8,12.8,23.7 M12.1,23.5
		c0-0.1-0.1-0.4-0.2-0.7c0-0.1-0.1-0.3-0.1-0.5c0-0.4,0-0.4-0.1-0.5c0,0-0.1-0.1-0.1-0.1c-0.1,0-0.5,0.3-0.6,0.3
		c0,0-0.1,0.1-0.1,0.1c-0.1,0-0.1,0.1-0.1,0.1c0,0.1,0,0.1,0.1,0.2c0.2,0,0.4,0.3,0.6,0.7c0.1,0.1,0.1,0.3,0.2,0.3
		c0.1,0.1,0.2,0.1,0.3,0.1C12.1,23.6,12.1,23.6,12.1,23.5 M11.4,23.6c0.1,0,0.1,0,0-0.1c0-0.1,0-0.1-0.1-0.2c0,0-0.1-0.2-0.1-0.3
		c0-0.2-0.1-0.2-0.2-0.3c-0.2-0.2-0.3-0.2-0.5-0.2c-0.2,0-0.2,0-0.2,0.2l0,0.1l-0.2,0c-0.2,0-0.2,0-0.3,0c-0.1,0.1-0.1,0.1-0.1,0
		c0-0.1,0.1-0.2,0.3-0.3c0.1,0,0.3-0.1,0.5-0.2c0.2-0.1,0.4-0.2,0.5-0.3c0.4-0.2,1.2-0.9,1.3-1c0-0.1,0-0.2-0.1-0.2
		c0,0-0.2,0.1-0.3,0.2c-0.5,0.4-1.3,0.9-1.3,0.9c0,0-0.1,0.1-0.3,0.2c-0.2,0.1-0.3,0.2-0.4,0.2c0,0-0.1,0-0.1,0.1
		c-0.1,0.1-0.1,0-0.1,0c0-0.1,0.6-0.5,1.3-0.9c0.1-0.1,0.1-0.1,0.1-0.2c0-0.1,0-0.2,0-0.2c0-0.1-0.1-0.1-0.1-0.2
		c0,0-0.1-0.2-0.1-0.3c-0.1-0.1-0.1-0.2-0.1-0.3c0-0.1,0-0.2,0.1-0.2c0.1,0,0.2-0.1,0.2-0.2c0,0,0-0.1-0.1-0.1
		c-0.1-0.1-0.1-0.1-0.1-0.2c0-0.1,0-0.2-0.1-0.2c-0.1-0.2-0.1-0.3,0.1-0.4c0.1-0.1,0.1-0.1,0.2-0.1c0,0,0.1,0,0.1-0.1
		c0-0.1,0.1-0.1,0.2-0.2c0.1-0.1,0.2-0.1,0.2-0.2c0.1-0.1,0.1-0.3,0-0.4c0-0.1,0-0.1,0.1-0.1c0.1,0,0.2,0,0.2,0l0.1,0l0,0.1
		c0,0.1,0,0.1,0,0.2c0,0,0,0,0.2,0c0.2-0.1,0.2-0.1,0.2-0.2c0-0.1-0.1-0.1-0.2-0.1c0,0-0.1,0-0.1,0c0-0.1,0.2-0.1,0.3-0.1
		c0.1,0,0.1,0,0.2,0.1l0.1,0.1l0.2,0c0.2,0,0.2,0,0.3-0.2c0.1-0.1,0.3-0.3,0.4-0.4c0.2-0.3,0.2-0.3,0.2-0.5c0-0.2,0-0.4-0.1-0.4
		c-0.1,0-0.2,0.1-0.2,0.2c0,0-0.1,0.1-0.2,0.2C13,17,12.9,17,12.7,16.9c-0.1,0-0.2-0.1-0.2-0.1c0,0-0.1,0-0.1,0
		c-0.1,0-0.2-0.1-0.3-0.1c-0.2,0-0.3-0.1-0.4-0.2c0,0-0.1-0.1-0.1-0.2c-0.1-0.1-0.1-0.2-0.1-0.2c0-0.1,0-0.1-0.1-0.1
		c-0.1,0-0.1,0-0.2,0.1c-0.1,0.2-0.1,0.3,0.1,0.5c0.2,0.2,0.2,0.3,0.2,0.5c0,0,0,0.1-0.1,0.1c-0.1,0.1-0.1,0.2,0,0.3
		c0.1,0.1,0.1,0.2,0,0.1c-0.1,0-0.2-0.2-0.2-0.5v-0.3l-0.2-0.2c-0.3-0.3-0.3-0.4-0.2-0.7c0.2-0.3,0.1-0.4-0.2-0.2
		c-0.2,0.2-0.4,0.4-0.5,0.6c-0.1,0.1-0.1,0.2-0.1,0.4c0,0.3,0.1,0.4,0.2,0.5c0.1,0.1,0.2,0.4,0.2,0.6c0,0.1,0,0.1,0.1,0.2
		c0.1,0.1,0.1,0.2,0,0.2c-0.1,0-0.1-0.1-0.1-0.3c0-0.1,0-0.1-0.1-0.2c-0.1,0-1,0-1.1,0c-0.1,0-0.2,0.1-0.2,0.2c0,0-0.1,0.1-0.1,0.2
		c-0.1,0.1-0.1,0.1-0.1,0.1c0,0,0.1,0.1,0.2,0.1c0.2,0.1,0.3,0.1,0.5,0c0.1-0.1,0.2-0.1,0.3-0.1c0.2,0,0.3,0,0.5,0.2
		c0.1,0.1,0.1,0.1,0.1,0.3c0,0.2-0.1,0.2-0.1,0.1c-0.2-0.2-0.2-0.3-0.4-0.3c-0.1,0-0.2,0-0.2,0c0,0-0.1,0-0.1,0c0,0-0.1,0-0.1,0
		c0,0.1-0.1,0.1-0.2,0c-0.1,0-0.1,0-0.2,0c0,0-0.1,0-0.2-0.1c-0.1,0-0.2-0.1-0.2-0.1c-0.1-0.1-0.2-0.1-0.2,0.2l0,0.2l0.2,0.3
		c0.2,0.3,0.4,0.6,0.6,0.6c0,0,0.1,0,0.1,0c0,0,0.1,0,0.1,0c0,0,0.1,0,0.1,0c0,0,0.1,0,0.2,0.1c0.1,0.1,0.2,0.1,0.2,0.1
		c0.1,0,0.2,0.1,0.3,0.2c0,0.1-0.2,0-0.2,0c0,0-0.1-0.1-0.1-0.1c-0.1,0-0.5-0.1-0.7-0.2c-0.3-0.2-0.5-0.3-0.6-0.6
		c-0.2-0.3-0.2-0.3-0.4-0.3c-0.1,0-0.3,0-0.4,0c-0.2,0-0.2,0-0.3,0c-0.1,0-0.1,0.1,0,0.2c0,0,0.1,0.1,0.2,0.1
		c0.1,0.1,0.3,0.2,0.4,0.1c0.1,0,0.1,0,0.1,0c0,0-0.1,0.1-0.2,0.1c-0.2,0-0.2,0-0.3-0.1c-0.2-0.1-0.4-0.2-0.5-0.1
		c-0.1,0-0.3,0.2-0.3,0.3c0,0.1,0.1,0.2,0.2,0.2c0.1,0,0.2,0,0.3,0c0.1,0,0.3,0,0.4,0c0.2,0,0.2,0,0.2,0c0,0,0,0-0.1,0
		c0,0-0.1,0-0.1,0c-0.1,0.1-0.2,0.1-0.4,0c-0.2-0.1-0.3-0.1-0.4,0c-0.1,0.2,0,0.2,0.3,0.2c0.1,0,0.2,0,0.2,0c0.1,0,0.1,0,0,0.1
		c-0.1,0.1-0.2,0.1-0.3,0.1c-0.1,0-0.1,0-0.1,0.1c0,0,0,0.1,0.1,0.3C7.5,21,7.6,21,7.8,21C8,21,8,21,8.1,20.8
		c0.1-0.1,0.2-0.2,0.2-0.2c0.1,0,0,0.1-0.1,0.3c-0.1,0.1-0.2,0.2-0.2,0.3c0,0.1,0,0.1,0.1,0.1c0.1,0,0.3-0.1,0.5-0.3
		c0,0,0.1-0.1,0.2-0.1c0.1,0,0.1,0,0.1,0.1c0,0.1-0.2,0.3-0.5,0.4c-0.1,0-0.2,0.1-0.2,0.2c0,0.1,0,0.1,0.1,0.1
		c0.2,0,0.6-0.2,0.9-0.5c0.1-0.1,0.2-0.2,0.2-0.1c0,0.1-0.4,0.4-0.6,0.6c-0.1,0.1-0.2,0.1-0.2,0.2c-0.1,0.1,0,0.2,0.1,0.2
		c0.1,0,0.1,0,0.2,0c0.2-0.1,0.4-0.3,0.5-0.4c0.1-0.1,0.2-0.2,0.3,0c0.1,0.1,0.1,0.1,0.1,0.4c0,0.2,0,0.3,0,0.3c0,0,0,0-0.1,0
		c-0.1,0-0.1-0.1,0-0.3c0.1-0.2,0-0.4-0.2-0.2c-0.1,0.1-0.2,0.1-0.3,0.2C8.9,22,8.8,22,8.8,22.1c-0.1,0.1,0,0.3,0.3,0.6
		c0.1,0.1,0.2,0.2,0.2,0.2c0,0,0.2,0,0.4,0c0.4,0,0.5,0.1,0.7,0.3c0.2,0.1,0.2,0.2,0.3,0.2c0.1,0,0.1,0,0.1-0.1
		c0-0.1-0.2-0.4-0.2-0.5c-0.1-0.1-0.1-0.1,0-0.1c0.1,0,0.3,0.3,0.3,0.4c0,0,0,0.1,0,0.1c0,0.1,0.2,0.3,0.3,0.4
		C11.2,23.6,11.3,23.6,11.4,23.6C11.3,23.6,11.3,23.6,11.4,23.6L11.4,23.6z M10.4,19.8c-0.1,0-0.2-0.1-0.3-0.1
		c-0.1,0-0.2-0.1-0.3-0.2c-0.2-0.1-0.4-0.2-0.6-0.4c-0.1-0.2-0.1-0.2,0-0.1c0.1,0,0.1,0.1,0.2,0c0.1,0,0.1,0,0.1-0.1
		c0.1-0.1,0.2-0.1,0.4-0.1c0.1,0,0.2,0.1,0.2,0.1c0,0,0,0.1,0.1,0.1c0.1,0.1,0.1,0.2,0.1,0.2c0,0-0.1-0.1-0.2-0.2
		C9.9,19,9.8,18.9,9.7,19c0,0-0.1,0-0.1,0.1c0,0-0.1,0.1-0.1,0.1c0,0.1,0.1,0.2,0.1,0.2c0.1,0,0.2,0.1,0.3,0.1c0,0,0.1,0.1,0.1,0.1
		c0,0,0.1,0,0.2,0.1C10.3,19.7,10.3,19.7,10.4,19.8c0.2-0.1,0.3,0,0.3,0C10.7,19.9,10.5,19.9,10.4,19.8 M10.7,17.2
		c-0.1-0.1-0.1-0.3-0.1-0.4c0-0.1,0-0.2,0.1-0.2c0.1-0.1,0.1,0,0.1,0.3c0,0.2,0,0.3,0.1,0.3l0.1,0.1L10.7,17.2
		C10.8,17.2,10.7,17.2,10.7,17.2 M13.3,23.4c0.1-0.1,0-0.2-0.4-0.7c-0.1-0.2-0.2-0.3-0.3-0.4c0-0.1-0.1-0.2-0.2-0.3
		c-0.1-0.1-0.1-0.2-0.1-0.2c0,0,0-0.1-0.1-0.1c0,0-0.1-0.1-0.1-0.1c0-0.1-0.1-0.1-0.3-0.1c-0.1,0-0.1,0-0.1,0.1c0,0.1,0,0.1,0,0.2
		c0.1,0.1,0.3,0.4,0.3,0.5c0,0.1,0.1,0.2,0.2,0.3c0.1,0.1,0.2,0.2,0.2,0.3c0,0.1,0.1,0.1,0.1,0.2c0,0,0.1,0.1,0.1,0.2
		C13.1,23.5,13.2,23.5,13.3,23.4 M15.1,23.4c0.1-0.1,0.1-0.2-0.2-0.4c-0.1-0.1-0.2-0.2-0.3-0.3s-0.1-0.1-0.1-0.1
		c-0.1,0-0.5-0.2-0.5-0.3c-0.1-0.1,0-0.3,0-0.3c0,0,0-0.1,0-0.1c0,0,0-0.2,0-0.3c0.1-0.3,0.1-0.4,0-0.6L14.1,21l-0.2,0
		c-0.1,0-0.5,0-0.9,0c-0.4,0-0.7,0-0.7,0.1c0,0,0,0.1-0.1,0.1c0,0.1,0,0.1,0.1,0.2c0.1,0.1,0.2,0.2,0.3,0.4c0.1,0.1,0.2,0.3,0.3,0.5
		c0.1,0.1,0.2,0.3,0.2,0.3c0,0,0,0,0,0.1c0,0,0.1,0.1,0.2,0.2c0.1,0.1,0.2,0.2,0.2,0.2c0.1,0,0.2,0,0.3-0.1c0,0,0.1-0.1,0.1-0.1
		c0,0,0.1,0,0.1-0.1c0,0,0.1-0.1,0.1-0.1c0.1,0,0.1,0,0.2,0.2c0.1,0.1,0.2,0.2,0.2,0.3c0,0.1,0.1,0.2,0.1,0.2
		C14.9,23.5,15,23.5,15.1,23.4 M18.9,23.2c0,0,0.1-0.2,0.2-0.2c0.2-0.2,0.2-0.3,0.2-0.4c-0.1-0.2-0.2-0.1-0.7,0
		c-0.1,0-0.2,0.1-0.2,0.1c0,0-0.1,0-0.1-0.1c-0.2-0.1-0.1-0.3,0.1-0.5c0.1,0,0.1-0.1,0.2-0.1c0-0.1,0-0.3,0-0.3c0,0-0.1-0.1-0.1-0.1
		c0-0.1-0.1-0.2-0.1-0.2c-0.1,0-0.2,0.1-0.3,0.3c-0.1,0.1-0.1,0.2-0.1,0.2s0,0.1-0.1,0.1c0,0.1-0.1,0.1-0.1,0.1c0,0,0,0.1-0.1,0.1
		c-0.1,0.1-0.1,0.1-0.1,0.4l0,0.3l0.1,0.1c0.1,0.1,0.1,0.1,0.3,0.1c0.2,0,0.2,0,0.3-0.1c0.1-0.1,0.4-0.1,0.5,0
		c0.1,0.1,0.1,0.2,0,0.2c0,0-0.1,0.1,0,0.2C18.7,23.3,18.8,23.3,18.9,23.2 M15.6,23.1c0.1-0.1,0.1-0.1,0.2-0.1c0,0,0.1,0,0.1-0.1
		c0-0.1,0-0.1-0.1-0.1c-0.3-0.2-0.3-0.3-0.2-0.6l0.1-0.2l0-0.3c0-0.2,0-0.6,0-0.9c0-0.3,0-0.6,0-0.6c0-0.1-0.1-0.1-0.2,0
		c0,0-0.1,0.1-0.1,0.2c0,0.1-0.1,0.2-0.1,0.2c-0.1,0.1-0.1,0.1-0.1,0.3c0,0.2,0,0.4,0.1,0.6c0,0.2,0.1,0.4,0.1,0.6l0,0.2l-0.1,0.1
		c-0.1,0.1-0.1,0.1-0.1,0.1c-0.1,0-0.2-0.1-0.3-0.2c-0.1-0.1-0.2-0.1-0.2-0.1c-0.1,0,0-0.1,0.1-0.1c0.1,0,0.1,0,0.2,0.1
		c0.2,0.2,0.3,0.2,0.3,0.1c0-0.1,0-0.3-0.1-0.4c0-0.1,0-0.2,0-0.4c0-0.4,0-0.4-0.1-0.4c-0.1,0-0.3,0.2-0.3,0.3c0,0,0,0.1-0.1,0.2
		c0,0.1-0.1,0.1-0.1,0.2c0,0.1,0,0.1-0.2,0.4c-0.1,0.1-0.1,0.2-0.1,0.2c0,0.2,0,0.2,0.2,0.2c0.2,0,0.3,0.1,0.5,0.4
		C15.3,23.3,15.4,23.3,15.6,23.1L15.6,23.1z M5.5,22.6c0.2-0.2,0.4-0.3,0.7-0.4c0.1,0,0.2,0,0.2-0.1c0,0,0.1-0.1,0.2-0.1
		c0.3,0,0.3-0.1,0.2-0.4c-0.1-0.2-0.2-0.4-0.3-0.4c0,0-0.1-0.1-0.2-0.1c-0.1-0.1-0.2-0.1-0.5-0.1c-0.3,0-0.7,0.1-0.8,0.2
		c-0.1,0.1-0.2,0.3-0.2,0.5c0,0.2,0,0.2,0.1,0.4C5,22.2,5,22.3,5,22.4c0.1,0.2,0.2,0.4,0.3,0.4C5.3,22.8,5.4,22.7,5.5,22.6
		 M5.3,21.9c-0.1-0.1-0.1-0.2,0-0.3c0.2-0.3,0.9-0.3,0.9,0c0,0.1-0.2,0.2-0.2,0.2c0,0-0.1,0-0.1,0.1c0,0-0.1,0.1-0.2,0.1
		c-0.1,0-0.1,0-0.2,0C5.3,22,5.3,22,5.3,21.9L5.3,21.9z M5.7,21.8c0.2-0.1,0.2-0.1,0.1-0.2c0,0-0.1-0.1-0.1-0.1c0,0-0.2,0.1-0.2,0.2
		C5.3,21.8,5.4,21.9,5.7,21.8 M16.3,22.5c0.3-0.2,0.4-0.4,0.3-0.5c0,0-0.1,0-0.1,0c0,0-0.2,0-0.3,0.1c-0.2,0-0.3,0-0.3,0.1
		c-0.1,0.1-0.1,0.1-0.1,0.2c0,0.2,0,0.2,0.1,0.2C16,22.7,16.1,22.6,16.3,22.5 M18.5,22.4c0-0.1,0.4-0.2,0.5-0.2c0.1,0,0.2,0,0.2,0
		c0.1,0.1,0.2,0,0.3-0.1c0.1-0.1,0.1-0.2,0.1-0.3l0-0.1l-0.3-0.1c-0.5-0.1-0.8-0.3-1-0.6c-0.1-0.1-0.1-0.1-0.1,0
		c-0.1,0.1-0.1,0.2,0,0.2c0,0,0.1,0.1,0.1,0.2c0,0.1,0.1,0.2,0.2,0.3c0.1,0.1,0.1,0.2,0.1,0.2c0,0.1-0.1,0.1-0.2,0.1
		c-0.1,0-0.1,0-0.2,0.1c-0.1,0.2-0.1,0.2-0.1,0.3C18.3,22.5,18.5,22.5,18.5,22.4L18.5,22.4L18.5,22.4z M16.3,21.9
		c0,0,0.2-0.1,0.3-0.1c0.2,0,0.3,0,0.3-0.1c0-0.1,0-0.1-0.2-0.1c-0.3,0.1-0.4,0.1-0.6-0.2C16,21.3,16,21.2,16,21.2
		c0-0.1,0-0.2-0.1-0.2c-0.1,0-0.1,0.2-0.1,0.4c0,0.2,0,0.3,0.1,0.3c0.1,0.1,0.3,0.2,0.3,0.2C16.3,22,16.3,22,16.3,21.9 M16.6,21.6
		c0,0,0.1-0.1,0.3-0.1c0.2,0,0.2-0.1,0.3-0.2c0-0.1,0.1-0.2,0.1-0.2c0,0,0.1-0.2,0.1-0.3c0-0.2,0-0.2,0-0.3c0,0,0-0.1-0.1-0.2
		c0-0.1,0-0.1-0.1-0.2c-0.1-0.1-0.2-0.1-0.2,0c0,0,0,0-0.1,0c-0.1,0-0.2,0.1-0.2,0.1c0,0,0,0.1,0.1,0.2c0.1,0.3,0.1,0.5-0.1,0.7
		c-0.1,0.1-0.2,0.1-0.2,0c0-0.1,0-0.1-0.2-0.2c-0.2-0.1-0.2-0.1-0.3-0.1c-0.1,0.1,0,0.2,0,0.3c0,0.1,0.1,0.1,0.1,0.2
		c0,0.1,0.1,0.2,0.2,0.3C16.5,21.6,16.6,21.7,16.6,21.6 M19.8,21.5c0.1,0,0.2-0.1,0.3-0.3c0-0.1,0-0.1,0-0.3
		c-0.1-0.2-0.3-0.4-0.5-0.4c-0.1,0-0.2,0-0.3-0.1c-0.2,0-0.2-0.1-0.3,0c-0.2,0-0.3,0.1-0.4,0.2c0,0,0,0.1-0.1,0.1c0,0.1,0,0.1,0,0.2
		c0,0.1,0.1,0.2,0.2,0.3c0.2,0.2,0.2,0.2,0.4,0.2c0.1,0,0.2,0,0.2,0.1c0,0,0.1,0,0.2,0.1C19.6,21.5,19.7,21.5,19.8,21.5L19.8,21.5
		L19.8,21.5z M19.2,21.1c-0.2-0.2-0.3-0.3,0-0.4l0.1-0.1l0.2,0.1c0.2,0.1,0.3,0.2,0.3,0.3c0,0,0,0.1-0.1,0.1
		C19.6,21.2,19.4,21.2,19.2,21.1 M19.5,20.9c0,0,0-0.1-0.1-0.1c-0.2-0.1-0.2,0-0.2,0.1c0,0.1,0.1,0.1,0.2,0.1
		C19.5,21,19.5,21,19.5,20.9 M4.8,21.2C4.9,21.1,5,21,5.1,21c0,0,0.1,0,0.2,0c0.1,0,0.2,0,0.3-0.1c0.1-0.1,0.4-0.1,0.5,0
		C6.2,21,6.3,21,6.3,21c0.1,0,0.1-0.1,0-0.2c0-0.1-0.1-0.1-0.1-0.2c0,0,0,0-0.1,0c0,0-0.1,0-0.1,0c-0.1,0-0.7-0.2-0.8-0.2
		c-0.1,0-0.2,0-0.4,0.1c-0.3,0.1-0.3,0.1-0.4,0.2c-0.2,0.2-0.2,0.2-0.1,0.4c0,0.1,0.1,0.1,0.1,0.1c0,0,0.1,0.2,0.2,0.2
		C4.7,21.3,4.8,21.3,4.8,21.2 M14.5,21.2c0-0.1,0-0.2-0.1-0.2c0,0-0.1,0-0.1,0.1c0,0.1,0,0.1,0,0.1C14.4,21.3,14.4,21.3,14.5,21.2
		 M11.6,21c0.2-0.1,0.5-0.4,0.5-0.5c0,0,0-0.1-0.1-0.2c0-0.1-0.1-0.2-0.1-0.3c0-0.2-0.1-0.3-0.3-0.3c-0.2,0-0.3,0-0.4,0.1
		c-0.1,0.1-0.1,0.1-0.1,0.2l0,0.1l-0.2,0c-0.2,0-0.2,0-0.2,0.1c0,0,0,0.1,0,0.1c0,0,0.1,0.1,0.1,0.2c0,0.1,0.1,0.1,0.1,0.2
		c0,0,0,0.1,0,0.1c0,0.1,0,0.2,0.1,0.3C11.4,21.1,11.4,21.1,11.6,21 M11.5,20.7c0,0-0.1-0.1-0.1-0.2c0-0.1-0.1-0.2-0.1-0.2
		c0,0,0,0,0-0.1c0-0.1,0-0.1,0.1,0c0.1,0,0.3,0.4,0.3,0.5C11.6,20.7,11.6,20.7,11.5,20.7 M12.8,21c0.2,0,1.1-0.1,1.6-0.1
		c0,0,0.1,0,0.2-0.1c0.1-0.1,0.2-0.2,0.3-0.2c0.2-0.1,0.3-0.3,0.4-0.4c0-0.1,0.1-0.1,0.2-0.2c0.1-0.1,0.1-0.1,0.2-0.2
		c0-0.1,0.1-0.2,0.1-0.2l0.1,0l0,0.2c0,0.1,0,0.2,0,0.3c0,0.1,0.2,0.3,0.2,0.3c0,0,0.1,0.1,0.2,0.2c0.1,0.1,0.2,0.2,0.3,0.2
		c0.1,0,0.1,0,0.1-0.1c0-0.1,0-0.3-0.1-0.3c0,0-0.1-0.1-0.1-0.1c0,0,0-0.1,0-0.1c0,0,0-0.1,0-0.2c0-0.1,0-0.2,0-0.2c0,0,0-0.1,0-0.1
		c0,0,0-0.1-0.1-0.1c0,0-0.1-0.1-0.1-0.2c0-0.2-0.2-0.3-0.4-0.3c-0.1,0-0.2,0-0.2-0.1c-0.1-0.1-0.3-0.3-0.3-0.5
		c-0.1-0.4-0.4-0.7-0.6-0.7c-0.3,0-0.8,0.3-1.1,0.7c-0.1,0.1-0.2,0.2-0.5,0.2c-0.2,0-0.2,0.1-0.2,0.1c0,0-0.1,0.1-0.2,0.1
		c-0.3,0.1-0.3,0.2-0.2,0.3c0,0,0.1,0.1,0.1,0.2c0,0.1,0,0.2,0.1,0.2c0,0,0,0.2,0,0.4c0,0.3,0.1,0.4,0.2,0.5c0.1,0,0.1,0.1,0.4,0.1
		c0.3,0,0.5,0,0.5-0.1c0-0.1-0.1-0.2-0.2-0.2c-0.1,0-0.2-0.1-0.1-0.1c0,0,0.1,0,0.2,0.1c0.2,0.1,0.3,0.1,0.3-0.1V20l0.1,0
		c0.1,0,0.2,0,0.3,0c0.1,0,0.2,0,0.3-0.1c0.1-0.1,0.1-0.1,0.1-0.2s0-0.1-0.1-0.1c-0.1-0.1-0.2-0.2-0.2-0.4c-0.1-0.2-0.2-0.4-0.2-0.4
		c-0.1,0-0.2-0.2-0.1-0.2c0.2,0,0.5,0.3,0.5,0.6c0,0.2,0,0.2,0.2,0.3c0.1,0.1,0.2,0.1,0.2,0.1c0,0.1-0.2,0.3-0.4,0.4
		c-0.2,0.1-0.7,0.4-1,0.6c-0.2,0.1-0.2,0.1-0.5,0.1c-0.2,0-0.3,0-0.4-0.1c-0.3-0.1-0.4-0.3-0.3-0.6c0-0.2,0-0.3-0.2-0.3
		c-0.1,0-0.1-0.1,0-0.2c0-0.1,0-0.1,0-0.1c0-0.1-0.1-0.1-0.2-0.1c-0.1,0-0.1,0.1-0.1,0.2c0,0.1,0,0.2-0.1,0.2
		c-0.1,0.1-0.1,0.2,0,0.2c0,0,0.1,0.1,0.1,0.2c0,0.1,0,0.1,0.1,0.2c0,0,0,0.1,0,0.1c0,0,0,0.1,0.1,0.2c0,0.1,0.1,0.2,0.1,0.2
		c0,0.1,0.2,0.3,0.2,0.3C12.6,21,12.7,21,12.8,21 M13.5,20c-0.2-0.1-0.3-0.5-0.3-0.9c0-0.1,0-0.1,0-0.1c0.1,0.1,0.1,0.2,0.2,0.4
		C13.4,19.6,13.5,19.9,13.5,20C13.6,20.1,13.6,20.1,13.5,20 M14,20c-0.1-0.1-0.2-0.2-0.3-0.4c0-0.1-0.1-0.3-0.1-0.4
		c0-0.1-0.1-0.2-0.1-0.2c0,0,0.1,0,0.1,0.1c0.1,0.1,0.2,0.4,0.3,0.6C14,19.8,14,19.9,14,20C14.2,20.1,14.2,20.1,14,20 M14.4,19.5
		c-0.1-0.1-0.2-0.2-0.2-0.4c0-0.1-0.1-0.2-0.1-0.3s0-0.1,0-0.1c0,0-0.1-0.1-0.1-0.2c0,0,0-0.1,0-0.1c0,0,0.2,0.3,0.2,0.5
		c0.1,0.3,0.2,0.5,0.4,0.6c0.1,0.1,0.1,0.1,0,0.1C14.6,19.7,14.5,19.6,14.4,19.5 M20.3,20.6c0,0,0.1-0.1,0.1-0.1c0,0,0-0.1,0.1-0.1
		c0,0,0.1-0.1,0.1-0.1c0-0.1-0.1-0.2-0.3-0.2c-0.2,0-0.2,0-0.4-0.1l-0.2-0.1l-0.2,0c-0.2,0-0.5,0.2-0.5,0.2c0,0,0,0,0.1,0
		c0.1,0,0.6,0.1,0.9,0.2c0.2,0.1,0.4,0.3,0.4,0.4C20.2,20.8,20.3,20.7,20.3,20.6L20.3,20.6z M4.5,20.4c0.1-0.1,0.3-0.1,0.3-0.1
		c0.1,0,0.2,0,0.2-0.1c0.1,0,0.2,0,0.3,0c0.3,0,0.4-0.1,0.4-0.3c0-0.1-0.1-0.2-0.3-0.1c-0.3,0.1-1.2,0.1-1.3,0.1c-0.1,0-0.1,0-0.2,0
		c-0.1,0.1-0.1,0.1,0,0.3c0,0.1,0.1,0.2,0.1,0.2s0,0.1,0.1,0.1C4.1,20.5,4.2,20.5,4.5,20.4L4.5,20.4z M17.9,20.4
		c0.1-0.2,0.2-0.3,0.2-0.3c0,0,0-0.1,0.1-0.2c0.1-0.1,0.1-0.2,0.1-0.3c0-0.1,0.1-0.2,0.1-0.4c0.1-0.2,0.1-0.3,0.1-0.8
		c0-0.3,0-0.9,0-1.4c0-0.9,0-0.9-0.1-1c0-0.1-0.1-0.1-0.1-0.2c0,0,0-0.1,0-0.1c0,0-0.1-0.1-0.1-0.2c0-0.1-0.1-0.2-0.1-0.2
		c0,0-0.1-0.1-0.1-0.2c0-0.1-0.1-0.2-0.1-0.2c0,0-0.1-0.1-0.1-0.2c0-0.1-0.1-0.2-0.1-0.2c0,0-0.1-0.1-0.1-0.2c0,0-0.1-0.1-0.1-0.2
		c0-0.1-0.1-0.2-0.2-0.3c-0.1-0.3-0.5-0.5-0.8-0.5c-0.1,0-0.2,0-0.2-0.1c-0.1-0.1-0.4-0.3-0.7-0.4c-0.2-0.2-0.4-0.1-0.4,0
		c0,0.1,0.1,0.2,0.3,0.2c0.1,0,0.2,0.1,0.3,0.1c0.1,0,0.1,0.1,0.1,0.1c0,0,0.1,0,0.2,0.1c0.1,0.1,0.1,0.1,0.2,0.1c0,0,0.1,0,0.1,0
		c0,0,0.1,0.1,0.1,0.1c0.1,0,0.2,0.1,0.2,0.2c0,0,0.1,0.2,0.2,0.3c0.1,0.1,0.2,0.3,0.3,0.4c0,0.1,0.2,0.3,0.3,0.4
		c0.3,0.3,0.4,0.5,0.4,0.7c0,0.1,0,0.2,0.1,0.2c0,0,0,0.1,0.1,0.2c0,0.1,0,0.2,0.1,0.2c0.1,0.1,0.1,0.4,0.1,1.3c0,0.5,0,0.8,0,0.9
		c0,0,0,0.1,0,0.2c0,0.2,0,0.4-0.2,0.6c-0.1,0.2-0.1,0.3-0.1,0.4c0,0.2-0.1,0.3-0.2,0.4c-0.1,0.1-0.1,0.1-0.1,0.2c0,0.1,0,0.2,0,0.2
		C17.8,20.5,17.9,20.5,17.9,20.4L17.9,20.4z M6.1,20.2C6.2,20.2,6.2,20.2,6.1,20.2c0-0.1-0.1-0.1-0.1-0.2c0-0.2-0.2-0.2-0.3,0
		c0,0.1,0,0.2,0.1,0.2C5.9,20.3,6.1,20.3,6.1,20.2 M17.8,20.1c0,0,0.1-0.1,0.1-0.2c0-0.1,0-0.2,0.1-0.2c0,0,0-0.1,0.1-0.2
		c0-0.1,0.1-0.2,0.1-0.4c0.1-0.2,0.1-0.3,0.1-0.6c0-0.2,0-0.7,0-1.2c0-0.7,0-0.8-0.1-0.9c0,0,0-0.1,0-0.1c0,0,0-0.1-0.1-0.2
		c0-0.1-0.1-0.2-0.1-0.2c0-0.1-0.1-0.4-0.2-0.4c-0.1-0.1-0.3,0.1-0.2,0.2c0.1,0.1,0.1,0.2,0,0.3c-0.1,0.1-0.1,0.2-0.1,0.2
		c0,0.1,0,0.1-0.1,0.2c-0.1,0.1-0.1,0.1-0.2,0.1c0,0-0.1,0-0.1,0.1c0,0-0.2,0.1-0.2,0.2c-0.2,0.1-0.2,0.2-0.2,0.4
		c0,0.1,0,0.1,0.2,0.4c0.2,0.2,0.3,0.4,0.3,0.5c0,0.1,0,0.2,0.1,0.2c0,0,0,0.3,0.1,0.6c0,0.7,0.1,0.9,0.2,1.1
		C17.6,20.2,17.7,20.3,17.8,20.1 M20.5,19.9c0,0,0.1-0.1,0.1-0.2c0-0.1,0.1-0.2,0.1-0.2c0-0.1,0.1-0.5,0.1-0.6c0,0,0-0.1-0.1-0.1
		c0,0,0,0-0.1,0c-0.2,0.1-0.8,0-1-0.2c-0.1,0-0.1-0.1-0.1-0.1s-0.1,0-0.1-0.1c0,0-0.1-0.1-0.1-0.1c-0.1,0-0.1,0-0.1,0.1
		c0,0.1,0.1,0.3,0.4,0.4c0.1,0.1,0.2,0.1,0.2,0.1c0.1,0.1,0.1,0.2,0,0.2c-0.1,0.1-0.1,0.1-0.3,0.1c-0.2,0-0.3,0-0.4,0.1
		c-0.1,0.1-0.1,0.1-0.1,0.1c0,0.1,0.3,0.2,0.5,0.1c0.2-0.1,0.2-0.1,0.5,0.1c0.1,0.1,0.3,0.1,0.3,0.1C20.2,19.9,20.4,19.9,20.5,19.9
		L20.5,19.9L20.5,19.9z M20.2,19.5c-0.1-0.1-0.1-0.3,0-0.4c0.1-0.1,0.2-0.1,0.3,0c0.1,0.1,0.1,0.2,0.1,0.3
		C20.4,19.6,20.3,19.6,20.2,19.5 M20.4,19.3C20.4,19.3,20.4,19.3,20.4,19.3C20.3,19.3,20.3,19.3,20.4,19.3
		C20.3,19.3,20.3,19.4,20.4,19.3C20.3,19.3,20.4,19.3,20.4,19.3 M17.2,19.9c0,0,0.1-0.1,0.1-0.2c0-0.1,0-0.2,0-0.3
		c0-0.2-0.1-0.5-0.1-1c0-0.2,0-0.3-0.1-0.4c0,0-0.1-0.1-0.2-0.2c-0.1-0.2-0.3-0.3-0.4-0.3c-0.1,0-0.1,0-0.2,0.1c0,0-0.1,0.1-0.1,0.1
		c-0.1,0.1-0.1,0.1,0,0.2c0,0,0,0.1-0.1,0.1c-0.1,0-0.1,0.1-0.1,0.2c0,0,0,0.1,0,0.2c-0.1,0.1,0,0.2,0.2,0.4
		c0.2,0.2,0.2,0.2,0.2,0.3c0,0.1,0.1,0.2,0.1,0.2c0,0,0,0,0,0.1c0,0.1,0,0.2,0.2,0.3c0.1,0.2,0.2,0.2,0.3,0.2
		C17.1,19.9,17.1,19.9,17.2,19.9 M5.4,19.6c0.1,0,0.2-0.1,0.2-0.2c0.1-0.1,0.1-0.1,0-0.1c0-0.1-0.1,0-0.2,0
		c-0.1,0.1-0.2,0.1-0.4,0.1c-0.4,0-0.8-0.1-1-0.2L3.8,19l-0.1,0.1c-0.1,0.1,0,0.3,0.2,0.4c0.1,0,0.1,0,0.1,0.1
		c0.1,0,0.3,0.1,0.8,0.1C5.2,19.6,5.3,19.6,5.4,19.6 M11.3,19.6c0,0,0.1-0.1,0.1-0.1c0-0.1,0.1-0.1,0.1-0.1c0.1,0,0.2,0.1,0.3,0.2
		c0.1,0.1,0.1,0.1,0.2,0c0.1-0.1,0-0.2-0.1-0.2c0,0-0.1-0.1-0.2-0.1c-0.1-0.1-0.2-0.1-0.3-0.1c-0.1,0-0.2,0.1-0.2,0.1
		c-0.1,0-0.2,0.1-0.2,0.2C11,19.6,11.2,19.7,11.3,19.6 M7,19.3c0,0,0.1-0.1,0.2-0.1c0.1-0.1,0.1-0.1,0-0.2c-0.1,0-0.1,0-0.2,0
		c0,0-0.1,0-0.2,0.1c-0.1,0-0.1,0-0.1,0.1c0,0.1,0,0.1,0.1,0.1C6.8,19.4,6.9,19.4,7,19.3 M19.4,19.2c0.2,0,0.2,0,0.2-0.1
		c0-0.1-0.2-0.3-0.3-0.3l-0.1-0.1L19,18.9c-0.1,0.2-0.1,0.2,0,0.3c0,0,0.1,0,0.2,0C19.2,19.2,19.3,19.2,19.4,19.2 M5.3,19.1
		c0.2-0.1,0.2-0.2,0.3-0.4c0-0.2,0-0.2-0.2-0.4C5.2,18.1,4.9,18,4.3,18c-0.5,0-0.6,0-0.7,0.2c-0.1,0.1-0.1,0.2-0.1,0.2
		c0,0,0.1,0.1,0.1,0.2c0.1,0.2,0.2,0.4,0.4,0.4C4,19,4.1,19,4.2,19c0.1,0.1,0.1,0.1,0.5,0.1c0.2,0,0.4,0,0.4,0
		C5.1,19.2,5.2,19.2,5.3,19.1 M4.6,18.8c-0.1,0-0.2,0-0.2,0c0,0-0.1,0-0.2-0.1c-0.1,0-0.3-0.2-0.3-0.3c0-0.1,0-0.1,0-0.1
		c0,0,0.1,0,0.3,0c0.3,0,0.5,0,0.7,0.1c0.1,0,0.1,0.1,0.2,0.2c0,0.1,0,0.1,0,0.2c0,0-0.1,0.1-0.1,0.1C5,18.9,4.9,18.9,4.6,18.8
		L4.6,18.8z M5,18.7c0-0.1-0.2-0.2-0.4-0.2c-0.1,0-0.1,0-0.1,0.1c0,0.1,0.1,0.2,0.3,0.2C4.9,18.7,4.9,18.7,5,18.7 M11.2,19.1
		c0,0,0.1-0.2,0.1-0.2c0,0-0.1,0-0.1,0c-0.2,0-0.4,0.2-0.2,0.3C11,19.2,11.2,19.2,11.2,19.1 M12,19.1c0.1,0,0.1-0.2,0-0.3
		c-0.1-0.1-0.1-0.1-0.2,0c-0.2,0.1-0.1,0.3,0.1,0.3C11.9,19.2,12,19.1,12,19.1 M12.4,19c0-0.1,0-0.1,0-0.2c0-0.2,0-0.2,0.1-0.2
		c0.1,0,0.1,0,0.2,0c0.1,0,0.2-0.1,0.4-0.1c0.3-0.1,0.4-0.1,0.5-0.3c0.1-0.2,0.4-0.5,0.6-0.5l0.1-0.1l0-0.2c0-0.1,0-0.2-0.1-0.2
		c-0.1,0-0.1-0.3-0.1-0.6c0-0.3-0.1-0.4-0.2-0.4c-0.1,0-0.1,0-0.1,0.3c0,0.2,0,0.3-0.1,0.4c0,0-0.1,0.1-0.1,0.2
		c0,0.1-0.4,0.6-0.7,0.8c-0.2,0.2-0.4,0.2-0.5,0.3c-0.1,0-0.1,0-0.1,0.1c0,0.1-0.2,0.3-0.2,0.3c0,0,0,0,0-0.1c0-0.2,0-0.2-0.2-0.2
		c-0.1,0-0.2,0-0.2,0.2c0,0.1,0,0.1-0.1,0.1c-0.3,0-0.3,0-0.3,0.2c0,0.1,0,0.1,0,0.2c0.1,0.1,0.2,0,0.3-0.1c0.1-0.1,0.2-0.1,0.2,0
		c0,0.1,0.3,0.4,0.3,0.4C12.4,19.1,12.4,19.1,12.4,19L12.4,19z M8.3,18.9c0.1-0.1,0.1-0.1,0.2-0.3c0.1-0.2,0.1-0.3,0.3-0.4
		c0.1,0,0.1-0.1,0.1-0.1C9,18,9.4,17.6,9.6,17.5c0.1,0,0.2,0,0.3,0c0.4,0.1,0.5-0.1,0.2-0.2L10,17.2l-0.2,0c-0.2,0-0.5,0.1-0.7,0.3
		c-0.1,0-0.3,0.2-0.6,0.5c-0.5,0.5-0.7,0.5-0.9,0.5c-0.1,0-0.2,0-0.1,0c0,0,0.1,0,0.1,0c0.1,0,0.1,0,0.1-0.2c0-0.1,0-0.3,0-0.5
		l0-0.4l-0.1-0.1C7.8,17,7.7,17,7.7,17c0,0,0,0.1,0,0.1c0,0.1,0,0.1-0.1,0.2c-0.1,0.1-0.2,0.1-0.2,0.3c0,0.1-0.1,0.2-0.2,0.1
		c-0.1-0.1-0.2-0.1-0.2-0.1c-0.1,0-0.1,0.2,0,0.3c0.1,0.1,0.1,0.2,0.2,0.3c0,0.1,0.1,0.2,0.1,0.2c0.1,0.1,0.1,0.1,0,0.1
		c0,0-0.2,0-0.3,0c-0.3,0-0.4,0.1-0.5,0.2c0,0.1,0,0.1,0.7,0.1c0.5,0,0.6,0,0.7,0C8,19,8.1,19,8.2,19C8.2,19,8.3,19,8.3,18.9
		 M20.8,18.6c0.1-0.1,0.1-0.2,0-0.3c-0.1-0.1-0.2-0.2-0.4-0.2c-0.2,0-0.2,0-0.4,0c-0.1,0.1-0.4,0.1-0.5,0c-0.1,0-0.1,0,0,0.1
		c0,0,0.1,0.1,0.1,0.1c0,0.1,0.6,0.3,0.9,0.3C20.7,18.7,20.8,18.7,20.8,18.6 M7,18.5c0,0,0.1-0.1,0.1-0.1c0-0.1,0-0.1-0.2-0.3
		c-0.1-0.1-0.2-0.2-0.2-0.2c0,0,0,0,0-0.1c-0.1-0.1-0.2,0-0.2,0.4c0,0.2,0,0.3,0,0.3C6.5,18.5,7,18.5,7,18.5 M15.7,18.4
		c0.1-0.1,0-0.3,0-0.3c-0.1-0.1-0.2-0.3-0.3-0.7c-0.1-0.2-0.1-0.4-0.2-0.4c-0.1-0.1-0.5-0.1-0.7,0c-0.1,0-0.1,0.1,0,0.3
		c0,0.2,0,0.2,0.1,0.3c0,0,0.1,0.1,0.1,0.1c0,0,0.1,0.1,0.2,0.1c0.1,0.1,0.2,0.1,0.2,0.2c0.1,0,0.2,0.2,0.3,0.4
		C15.6,18.4,15.6,18.4,15.7,18.4 M8.4,17.9c0.3-0.4,1-0.8,1.3-0.9c0.2-0.1,0.2-0.1,0.3-0.3c0-0.1,0.1-0.2,0.2-0.4
		c0.2-0.2,0.2-0.3,0.4-0.5c0.1-0.1,0.3-0.2,0.3-0.2c0,0,0.1,0,0.1-0.1c0,0,0.1-0.1,0.2-0.1c0.2,0,0.2,0,0.2-0.1c0-0.1,0-0.6,0.1-0.7
		c0-0.1,0.1-0.3,0.1-0.5c0-0.1,0-0.1-0.1-0.1c-0.1,0-0.2,0.1-0.2,0.3c-0.1,0.4-0.1,0.6,0,0.7c0,0,0,0.1,0,0.1c0,0.1-0.1,0-0.3-0.1
		c-0.2-0.1-0.2-0.1-0.4-0.3c-0.1-0.1-0.2-0.3-0.2-0.3c0,0-0.1-0.1-0.1-0.2c0-0.1-0.1-0.1-0.1-0.2c0,0,0-0.1,0-0.2
		c0-0.1-0.1-0.6,0-0.6c0,0,0.1-0.2,0.1-0.2c0,0,0-0.1,0.1-0.1c0,0,0.1-0.1,0.1-0.3c0-0.2,0-0.2,0-0.2c0,0-0.1,0-0.1,0
		c-0.3,0.1-0.4,0.2-0.5,0.2c0,0-0.1,0-0.1,0.1c0,0-0.1,0.1-0.2,0.2c-0.2,0.1-0.3,0.2-0.4,0.3c0,0.1,0,0.1,0.1,0.1c0,0,0.1,0,0.1,0
		c0,0,0.2,0.1,0.3,0.1c0.1,0,0.2,0,0.3,0.1c0.1,0.1,0.2,0.4,0.1,0.5c-0.1,0.1-0.2,0.4-0.2,0.6l0,0.3h0.1c0.1,0,0.1,0,0.2,0
		c0.1,0,0.1,0,0.1,0c0,0,0.1,0.1,0.2,0.1c0.1,0,0.1,0.1,0.2,0.2l0.1,0.1l-0.1,0.1c-0.1,0.2-0.2,0.2-0.4,0.1c-0.2,0-0.3,0-0.3,0.1
		c0,0-0.1,0.2-0.3,0.3c-0.2,0.2-0.3,0.3-0.3,0.4c-0.1,0.2-0.3,0.5-0.6,0.6c-0.2,0.1-0.2,0.2-0.2,0.7c0,0.2,0,0.4,0,0.4
		c0,0,0,0,0.1,0C8.2,18.1,8.2,18.1,8.4,17.9 M5.6,17.9c0-0.1,0-0.1-0.1-0.2c-0.1-0.1-0.1-0.1-0.3-0.1c-0.1,0-0.2,0-0.3-0.1
		c-0.3-0.1-0.5-0.1-0.9-0.1c-0.4,0-0.4,0-0.5,0.1c-0.1,0.1-0.1,0.2-0.1,0.3c0,0.1,0.2,0.1,0.2,0c0,0,0.1,0,0.7,0h0.6l0.2,0.1
		C5.3,18,5.4,18,5.6,17.9C5.5,18,5.6,18,5.6,17.9 M20.1,18c0.1,0,0.1-0.1,0.2-0.1c0-0.1,0.1-0.1,0.2,0c0,0.1,0.2,0.2,0.3,0.2
		c0.1,0,0.2-0.1,0.2-0.1c0,0,0-0.1,0-0.2c0-0.2,0-0.2-0.2-0.2c-0.2,0-0.2,0-0.2-0.2c0-0.1-0.1-0.2-0.2-0.2c-0.1,0-0.1,0.1-0.1,0.3
		c0,0.2-0.1,0.3-0.2,0.3c-0.2,0-0.2,0-0.3-0.2c0-0.1,0-0.2,0-0.3c0-0.1,0-0.1-0.1-0.2c-0.1-0.1-0.2-0.1-0.2-0.1c0,0-0.1,0.1-0.1,0.4
		c0,0.4,0,0.5,0.2,0.6c0.1,0.1,0.1,0.1,0.3,0.1C19.9,18,20,18,20.1,18 M15.8,17.6c0.1-0.1,0.2-0.3,0.2-0.5c0-0.1,0.1-0.2,0.1-0.2
		c0-0.1,0.1-0.1,0.1-0.3l0-0.2l0.2-0.2c0.1-0.1,0.2-0.2,0.2-0.2c0,0,0-0.1,0.1-0.1c0.1-0.1,0.1-0.2,0-0.3l-0.1-0.1l0.1-0.1
		c0.1-0.1,0.1-0.1,0.2-0.1c0.1,0,0.1,0.1,0,0.3c0,0.1-0.1,0.2-0.1,0.2c0,0.1,0,0.2-0.2,0.4c-0.1,0.1-0.2,0.2-0.2,0.2
		c0,0.2,0.2,0.3,0.4,0.2c0.1,0,0.2-0.1,0.2-0.3c0-0.1,0-0.2,0.1-0.2c0,0,0-0.1,0-0.1c0,0,0-0.1,0.1-0.2c0.1-0.2,0.2-0.4,0.1-0.6
		c0-0.1,0-0.2,0-0.2c0-0.1-0.2-0.4-0.3-0.5c-0.1,0-0.1,0-0.2,0c-0.1,0-0.2,0.1-0.3,0.1c-0.5,0-0.6,0.1-0.6,0.4c0,0.3,0,0.3,0.3,0.5
		c0.1,0.1,0.2,0.1,0.3,0.1c0.1,0,0.1,0,0,0.1c-0.1,0.2-0.2,0.3-0.4,0.3c-0.1,0-0.3-0.2-0.3-0.2c0,0,0,0-0.1,0c-0.1,0-0.1,0-0.1-0.1
		c0-0.1-0.1-0.3-0.2-0.4c-0.2-0.2-0.2-0.3,0-0.4c0.1,0,0.1-0.1,0.1-0.2c0-0.1,0.1-0.2,0.3-0.3c0.2-0.2,0.3-0.3,0.5-0.2
		c0.1,0,0.1,0.1,0.2,0c0.1,0,0.1,0,0.1,0c0,0.1,0.1,0.1,0.1,0.1c0,0,0.1-0.1,0.1-0.1c0-0.1,0-0.1,0-0.1c0.1,0,0.3,0,0.3,0
		c0,0,0-0.1,0-0.1c0-0.1-0.2-0.3-0.3-0.4c0,0-0.1-0.1-0.2-0.1c-0.1,0-0.1-0.1-0.1-0.1c0,0-0.1,0-0.2-0.1c-0.2-0.1-0.5-0.2-0.5-0.1
		c-0.1,0.1-0.1,0.3-0.1,0.4c0,0.1,0,0.2,0,0.2c0,0,0,0.1-0.1,0.2c0,0.1-0.1,0.2-0.1,0.3c0,0.1-0.1,0.1-0.1,0.2
		c0,0.1-0.3,0.4-0.5,0.6c-0.2,0.1-0.2,0.2-0.2,0.3c0,0-0.1,0.1-0.1,0.3c-0.2,0.2-0.2,0.3,0,0.6c0.2,0.4,0.2,0.3,0.5,0.4
		c0.3,0,0.5,0.1,0.6,0.2c0,0,0.1,0.1,0.1,0.1c0,0,0,0.2,0.1,0.3c0,0.1,0.1,0.2,0.1,0.3C15.6,17.7,15.7,17.7,15.8,17.6 M16.2,15.2
		c0,0-0.1-0.1-0.1-0.1C16,15,16,15,16.1,14.9c0.1-0.1,0.1-0.1,0.1,0.1C16.2,15.1,16.2,15.1,16.2,15.2c0.1-0.1,0.2-0.1,0.2-0.1
		c0.1-0.1,0.1,0,0,0.1C16.3,15.2,16.3,15.2,16.2,15.2 M6.9,17.5c0-0.2,0-0.3,0.1-0.2c0,0,0.1,0,0.1,0.1c0.1,0.1,0.2,0.1,0.2,0
		c0,0,0-0.1,0.1-0.1c0.1-0.1,0.1-0.2,0-0.2c-0.1,0-0.5,0-0.6,0.1c-0.1,0.1-0.1,0.1-0.1,0.2c0,0.1,0,0.1,0.1,0.2
		C6.8,17.6,6.9,17.5,6.9,17.5 M5.5,17.5C5.5,17.5,5.6,17.4,5.5,17.5c0-0.1,0.1-0.3,0.1-0.4c0-0.1,0.1-0.3,0.1-0.4c0-0.1,0-0.2,0-0.2
		c0.1-0.1,0.1-0.3,0-0.4c-0.1-0.2-0.4-0.4-0.5-0.3c-0.1,0-0.1,0,0,0.1c0,0.1,0,0.2,0.1,0.2c0,0.1,0.1,0.1,0,0.3
		c0,0.3-0.1,0.4-0.2,0.5C5.1,17,5.1,17,4.9,17c-0.3,0-0.7-0.2-0.9-0.4c-0.2-0.1-0.2-0.2-0.3-0.1c0,0-0.1,0,0,0.2c0,0.1,0,0.2,0,0.3
		c-0.1,0.3-0.1,0.3,0.5,0.3c0.5,0,0.5,0,0.6,0.1c0,0,0.2,0.1,0.3,0.1c0.1,0,0.3,0,0.3,0.1C5.5,17.5,5.5,17.5,5.5,17.5 M20,17.4
		c0.1-0.1,0-0.3-0.1-0.3c-0.1,0-0.1,0.1-0.1,0.2C19.9,17.5,20,17.5,20,17.4 M20.8,17.2c0-0.1,0-0.1-0.1-0.1c-0.1,0-0.2,0-0.1,0.1
		c0,0.1,0.1,0.1,0.2,0.1C20.8,17.3,20.8,17.3,20.8,17.2 M16.5,17.2c0,0,0.1-0.1,0.1-0.2c0-0.1,0-0.1-0.1-0.1c-0.1,0-0.1,0-0.1,0
		c-0.1,0.1-0.1,0.3,0,0.3C16.4,17.3,16.5,17.2,16.5,17.2 M20.4,16.9c0.4-0.1,0.6-0.2,0.6-0.5c0-0.1-0.1-0.2-0.2-0.2
		c0,0-0.2,0.1-0.3,0.2l-0.3,0.2l-0.3,0c-0.2,0-0.3,0-0.3,0c0,0,0,0,0.2,0c0.2,0,0.3,0,0.3-0.1c0,0,0.1-0.1,0.2-0.1
		c0.2-0.1,0.3-0.3,0.2-0.3c0,0-0.2,0-0.3,0c-0.2,0-0.3,0-0.3,0c0,0-0.1,0.1-0.2,0.1c-0.2,0.1-0.2,0.1-0.2,0.2
		c0.1,0.1,0.1,0.1-0.1,0.1h-0.1v0.2c0,0.2,0,0.2,0.1,0.2c0.1,0,0.1,0,0.2,0c0,0,0.1,0,0.2,0C20,16.9,20.1,16.9,20.4,16.9 M7.1,16.9
		c0,0,0.1-0.1,0.3-0.1c0.1,0,0.3-0.2,0.4-0.2c0,0,0-0.1,0-0.2C7.8,16.1,7.9,16,8,16c0,0,0.1-0.1,0.1-0.1c0.1-0.1,0.1-0.1,0.1-0.3
		c0-0.2,0-0.3,0.1-0.5c0.1-0.3,0.1-0.4,0-0.7c-0.1-0.1-0.1-0.3-0.2-0.3c-0.1,0-0.2,0.1-0.3,0.3c-0.1,0.1-0.1,0.2-0.1,0.2
		c0,0,0,0.1-0.1,0.1c0,0-0.1,0.1-0.1,0.2c0,0.1-0.1,0.2-0.1,0.3c0,0.1-0.1,0.1-0.1,0.2c0,0,0,0.1-0.1,0.2c0,0.1-0.1,0.2-0.1,0.2
		c0,0,0,0.1,0,0.2C7.1,16,7,16.1,7,16.3c0,0.1-0.1,0.3-0.1,0.4c-0.1,0.1-0.1,0.2,0,0.2C6.9,16.9,7.1,16.9,7.1,16.9 M8.4,16.8
		c0.2-0.1,0.2-0.2,0.2-0.3c0-0.1,0-0.2,0-0.3l0-0.1h0.1c0.2,0,0.4-0.1,0.5-0.3c0.1-0.1,0.4-0.5,0.4-0.5c0.1,0,0.2,0,0.1-0.1
		c0-0.1-0.1-0.1-0.2,0c0,0-0.1,0.1-0.2,0.1c-0.2,0-0.2,0-0.1-0.2c0.1-0.1,0.1-0.2,0-0.2c-0.1,0-0.3,0.2-0.3,0.3
		c0,0.2-0.1,0.2-0.2,0.2c-0.1,0-0.1,0-0.1,0.1c0,0.1-0.1,0.2-0.2,0.1c0-0.1-0.1-0.1-0.1-0.1c-0.1,0-0.1,0.1,0,0.2
		c0.1,0.1,0.1,0.2,0,0.3c-0.1,0-0.1,0.1-0.2,0.1c-0.1,0-0.1,0.1,0,0.3c0.1,0.2,0.1,0.2,0,0.3C8,16.8,8,16.8,8,16.9c0,0,0.1,0,0.1,0
		C8.2,16.9,8.2,16.9,8.4,16.8 M13.1,16.8c0.2-0.2,0.1-0.5-0.3-0.7c-0.1-0.1-0.1-0.1-0.2,0c-0.1,0.1-0.3,0-0.4,0
		c-0.1,0-0.2-0.1-0.3,0c-0.1,0-0.1,0.4-0.1,0.5c0,0.1,0,0.1,0.3,0.1c0.4,0,0.5,0.1,0.6,0.2C12.9,16.9,13,16.9,13.1,16.8 M5.2,16.5
		c0.1-0.1,0.1-0.4,0-0.5c0,0-0.1-0.1-0.1-0.1s0-0.1,0-0.1c0,0,0-0.1-0.1-0.1c0-0.1-0.1-0.2-0.1-0.2c-0.1-0.1-0.1-0.2-0.1-0.3
		c0,0,0.4,0.1,0.4,0.1c0,0,0,0,0.1,0c0,0,0.1,0,0.2,0.1c0.1,0.1,0.2,0.1,0.2,0c0-0.1,0.1-0.2,0-0.2c0,0-0.1-0.1-0.1-0.2
		c0-0.1-0.1-0.2-0.1-0.2c0,0,0,0,0-0.1c0,0,0-0.1-0.1-0.2c0-0.1-0.1-0.2-0.1-0.3c0-0.1-0.1-0.2-0.1-0.2c0,0-0.2,0.2-0.2,0.3
		c0,0.1-0.1,0.1-0.4,0c-0.2-0.1-0.4-0.2-0.4-0.3c0,0,0.1-0.1,0.1-0.2C4.5,14,4.8,13.7,5,13.5c0.2-0.3,0.4-0.6,0.5-0.6
		c0.2-0.2,0.2-0.2,0.4,0C5.9,12.9,6,12.9,6.1,13c0.1,0,0.1,0.1,0,0.3c-0.1,0.2-0.1,0.2,0,0.3c0.1,0,0.2,0,0.3,0.1
		c0.1,0,0.2,0.1,0.3,0.1c0.1,0,0.2,0,0.2,0c0.3,0.1,0.4,0,0.2-0.3c0-0.1-0.1-0.2-0.1-0.2c0,0,0-0.1-0.1-0.1C7,13.1,7,13,7,13
		c0,0-0.1-0.1-0.2-0.2c-0.2-0.2-0.2-0.2-0.4-0.2c-0.2-0.1-0.3-0.1-0.3-0.2c0-0.1,0.2-0.2,0.5-0.5c0.2-0.2,0.2-0.2,0.3-0.1
		c0.1,0,0.2,0,0.3-0.2c0.1-0.2,0.2-0.3,0.3-0.3c0,0,0.1,0,0.2-0.1C7.7,11.1,7.9,11,8,11c0.1,0,0.2-0.1,0.2-0.1c0.1-0.1,0.2,0,0.2,0
		c0,0,0,0.1,0,0.2c0,0.1,0.1,0.2,0.1,0.2c0.1,0.1,0.1,0.1,0.1,0.2c0,0.1,0,0.1,0.1,0.1c0,0,0.1,0.1,0.1,0.2c0.2,0.2,0.5,0.4,0.6,0.3
		c0.1-0.1,0-0.5-0.1-0.6c0,0-0.1-0.1-0.1-0.1c0,0-0.1-0.1-0.1-0.3c-0.1-0.2-0.1-0.3-0.2-0.3c-0.1-0.1-0.2-0.1-0.1-0.2
		c0-0.1,0.1-0.1,0.2-0.1c0.1,0,0.2,0,0.2,0c0.1,0,0.2-0.1,0.3-0.1c0.4-0.1,1-0.3,1.1-0.4c0.2-0.1,0.2-0.1,0.2-0.2
		c0-0.1-0.1-0.1-0.3,0c-0.1,0-0.2,0.1-0.3,0.1c-0.1,0-0.1,0-0.2,0.1c0,0-0.1,0.1-0.1,0.1S9.8,10,9.7,10c-0.1,0-0.2,0.1-0.3,0.1
		c-0.1,0-0.2,0.1-0.2,0.1c0,0-0.1,0.1-0.2,0.1c-0.1,0-0.1,0.1-0.2,0.1c0,0-0.1,0.1-0.1,0.1s-0.1,0-0.2,0.1c-0.1,0-0.2,0.1-0.2,0.1
		c0,0-0.1,0-0.1,0c0,0-0.1,0.1-0.1,0.1c-0.1,0-0.2,0-0.2,0.1c0,0-0.1,0-0.2,0.1c-0.1,0-0.4,0.1-0.9,0.3c-0.1,0-0.8,0.7-1,0.9
		c-0.1,0.1-0.3,0.3-0.4,0.5C5.2,12.7,5.1,12.9,5,13c-0.1,0.1-0.2,0.3-0.4,0.4c-0.1,0.1-0.3,0.3-0.3,0.4c-0.1,0.1-0.1,0.2-0.1,0.2
		c0,0-0.1,0.2-0.1,0.3c0,0.1-0.1,0.3-0.2,0.4c-0.1,0.1-0.1,0.2-0.1,0.3c0,0,0,0.1,0,0.2c0,0.1-0.1,0.1-0.1,0.2c0,0.1,0,0.1,0,0.2
		c-0.1,0.1-0.1,0.4,0,0.5c0,0.1,0.1,0.1,0.2,0.1c0.1,0,0.2,0.1,0.2,0.1c0.1,0,0.1,0.1,0.1,0.1c0,0,0.1,0,0.1,0.1
		c0.1,0.1,0.4,0.2,0.6,0.2c0.1,0,0.1,0,0.2,0C5.1,16.6,5.1,16.6,5.2,16.5 M13.4,16.2c0-0.1,0-0.2,0-0.3c0,0-0.1-0.1-0.1-0.2
		c-0.1-0.3-0.2-0.3-0.4-0.3c-0.1,0-0.3,0-0.4,0.1c-0.2,0-0.2,0-0.2,0c0,0,0-0.1,0-0.1l0-0.1l-0.2,0c-0.2,0-0.2,0-0.1-0.1
		c0.1-0.1,0.3-0.1,0.4,0c0.1,0.1,0.2,0.1,0.2,0.1c0.1,0,0.1,0,0.2,0c0.2-0.1,0.3-0.1,0.4,0c0.1,0,0.1,0.1,0.2,0.1
		c0.1,0,0.2,0.1,0.2,0.4c0,0.3,0,0.3,0.1,0.3c0.1,0,0.1,0,0.2-0.1c0.1-0.1,0.1-0.1,0-0.2c0,0,0-0.3,0-0.6c0-0.5,0-0.5-0.1-0.7
		c-0.1-0.2-0.2-0.2-0.4-0.3C13.1,14,13.1,14,12.5,14l-0.6,0l-0.1,0.1c0,0-0.1,0.1-0.1,0.2c0,0.1-0.1,0.2-0.1,0.2
		c0,0.1-0.1,0.2-0.1,0.4c0,0.2,0,0.2,0,0.4c0,0.1,0.1,0.2,0.1,0.2c0,0,0.1,0,0.2,0c0.1,0,0.1,0,0.2,0c0,0,0,0.1-0.1,0.1
		c-0.1,0-0.2,0.2-0.2,0.3c0,0,0.2,0,0.3-0.1c0.1,0,0.1-0.1,0.4-0.1l0.3,0l0.2,0.2c0.1,0.1,0.2,0.2,0.2,0.2
		C13.2,16.2,13.3,16.3,13.4,16.2 M13.2,14.9C13.1,14.9,13.1,14.8,13.2,14.9C13.2,14.8,13.2,14.9,13.2,14.9
		C13.2,15,13.2,15,13.2,14.9L13.2,14.9z M12,14.7C12,14.7,12,14.7,12,14.7c0-0.1,0.3,0,0.3,0C12.2,14.8,12,14.8,12,14.7 M12.3,14.5
		c-0.1-0.1-0.1-0.1-0.3-0.1c-0.1,0-0.1,0-0.1,0c0.1-0.1,0.3,0,0.4,0c0.1,0.1,0.2,0.1,0.2,0l0.1-0.1l0,0.1c0,0.1,0.1,0.1,0.3,0.1
		c0.2-0.1,0.3,0,0.4,0.1c0.1,0.1,0.1,0.1,0,0.1c0,0-0.1,0-0.1,0c-0.1-0.1-0.3-0.1-0.4,0c-0.1,0-0.1,0.1-0.3,0.1
		C12.4,14.6,12.4,14.6,12.3,14.5 M19.5,16c0.1-0.1,0.2-0.1,0.2-0.1c0,0,0.1,0,0.1,0c0,0,0.2,0,0.3-0.1c0.2-0.1,0.4-0.1,0.4-0.2
		c0,0,0-0.1,0-0.3c0-0.2,0-0.2-0.1-0.3c-0.1-0.1-0.1-0.1-0.1-0.1c0,0-0.1,0-0.1,0c0,0-0.1-0.1-0.2-0.1l-0.2-0.1l0-0.2
		c0-0.1,0-0.2,0.1-0.4C20,14,20,13.9,20,13.9c0-0.1-0.3-0.4-0.4-0.4c-0.1,0-0.2,0.1-0.3,0.2c0,0.1-0.1,0.1-0.2,0.1
		c0,0-0.1,0.1-0.2,0.1C18.9,14,18.8,14,18.8,14c-0.1,0-0.1,0-0.1,0.1c0,0-0.1,0-0.1,0.1c0,0-0.1,0.1-0.2,0.1l-0.1,0.1l0.1,0.1
		c0,0.1,0.1,0.1,0.1,0.2c0,0.1,0.1,0.3,0.1,0.3c0,0,0.1-0.1,0.1-0.1c0.1-0.1,0.1-0.2,0.3-0.3c0.2-0.1,0.3-0.1,0.3-0.1
		c0,0,0,0.1,0,0.2c0,0.1,0.1,0.3,0.2,0.3c0,0,0,0,0,0c0,0,0.1,0.1,0.1,0.1c0.3,0.1,0.2,0.2-0.1,0.4c-0.1,0.1-0.2,0.1-0.4,0.1
		c-0.2,0-0.2,0-0.2,0.1c0,0,0,0.1,0.1,0.3c0.1,0.1,0.1,0.2,0.1,0.2C19.2,16.1,19.3,16.1,19.5,16 M12.6,16c0-0.1-0.2-0.1-0.2,0
		C12.4,16,12.4,16,12.6,16C12.6,16,12.6,16,12.6,16 M17.5,15.8C17.5,15.8,17.5,15.8,17.5,15.8C17.5,15.8,17.5,15.8,17.5,15.8
		C17.5,15.9,17.5,15.9,17.5,15.8C17.5,15.9,17.5,15.9,17.5,15.8 M16,15.8c0.1,0,0.1-0.1,0-0.2c-0.1,0-0.1,0-0.1,0
		C15.8,15.7,15.9,15.8,16,15.8 M18.6,15.6c0,0,0-0.1,0-0.1c0-0.1,0-0.1-0.2-0.3c-0.1-0.1-0.2-0.2-0.2-0.2c0-0.1-0.1-0.3-0.2-0.5
		c-0.1-0.1-0.1-0.2-0.1-0.2c0-0.1-0.3-0.4-0.3-0.5c0,0,0-0.1,0-0.1c0-0.1-0.3-0.4-0.8-0.8c-0.1-0.1-0.3-0.3-0.4-0.3
		c-0.2-0.2-0.4-0.3-0.7-0.3c-0.2,0-0.2,0-0.3-0.1c0,0-0.1-0.1-0.2-0.1c-0.1,0-0.1,0-0.1,0.1c0,0,0,0.1,0,0.1c0,0,0.1,0.1,0.1,0.1
		c0,0,0.1,0.1,0.1,0.1c0,0,0.1,0,0.1,0.1c0,0,0.1,0,0.1,0c0,0,0.1,0,0.2,0.1c0.1,0,0.1,0.1,0.2,0.1s0.1,0,0.1,0.1
		c0,0,0.1,0.1,0.2,0.2c0.1,0.1,0.2,0.1,0.3,0.1c0.2,0,0.5,0.2,0.7,0.4c0.2,0.2,0.2,0.2,0.3,0.4c0,0.1,0.1,0.3,0.2,0.4
		c0.1,0.2,0.2,0.4,0.2,0.4c0,0.1,0.1,0.2,0.1,0.2s0,0,0,0.1c0,0,0,0.1,0.1,0.1c0,0,0.1,0.1,0.1,0.2C18.4,15.6,18.6,15.7,18.6,15.6
		L18.6,15.6z M14.2,15.5L14.2,15.5l0.1-0.5v-0.4l-0.1-0.1c-0.1-0.1-0.2-0.1-0.2-0.1c-0.1,0-0.1,0.1-0.1,0.1c0,0,0,0.1,0,0.1
		c0,0.1,0,0.2,0.1,0.2c0,0.1,0,0.3,0,0.6C13.8,15.5,14,15.6,14.2,15.5 M6.1,15.4c0,0,0.1-0.2,0.1-0.4c0-0.1,0-0.2-0.1-0.4
		c-0.2-0.3-0.2-0.5-0.2-0.6C6,14,6.3,14,6.5,14.1c0,0,0.1,0,0.2,0.1c0.1,0,0.2,0,0.2,0c0,0,0-0.1,0-0.1c0-0.1-0.1-0.1-0.2-0.1
		c0,0-0.1,0-0.2-0.1c-0.1,0-0.2-0.1-0.3-0.1c-0.5,0-0.6-0.2-0.5-0.5c0.1-0.1,0.1-0.2,0-0.3c-0.1-0.1-0.2,0-0.5,0.3
		c-0.4,0.6-0.6,0.8-0.6,0.9c0,0.1,0,0.2,0.1,0.2c0.1,0,0.1-0.1,0.3-0.2c0-0.1,0.1-0.1,0.2-0.2c0.1,0,0.1,0,0.1,0
		c0.1,0.1,0.2,0.3,0.2,0.5c0,0.1,0.1,0.3,0.1,0.3c0,0.1,0.1,0.2,0.1,0.3C5.9,15.4,6,15.5,6.1,15.4 M19.4,15.3c0.1-0.1,0.1-0.1,0-0.2
		c0,0-0.1-0.1-0.1-0.1c0,0,0-0.1-0.1-0.2c-0.1-0.1-0.1-0.1-0.2-0.1c0,0-0.1,0.1-0.2,0.2c-0.2,0.2-0.2,0.2-0.1,0.3
		C18.9,15.3,19.2,15.4,19.4,15.3 M15.5,15c0-0.1,0-0.1-0.1-0.1c-0.1,0-0.1,0-0.1,0.1c0,0.1,0.1,0.2,0.1,0.2
		C15.5,15.1,15.5,15.1,15.5,15 M8.7,14.9c0-0.1,0-0.3-0.1-0.4c0-0.1-0.1-0.2-0.1-0.3C8.5,14,8.5,14,8.4,14c-0.1,0-0.1,0.1,0,0.3
		c0,0.1,0.1,0.2,0.1,0.2c0,0,0,0.1,0,0.2C8.5,14.8,8.6,15,8.7,14.9C8.7,14.9,8.7,14.9,8.7,14.9 M14.7,14.9c0,0,0.2-0.2,0.2-0.3
		c0.2-0.2,0.2-0.2,0.2-0.6c0.1-0.8,0.1-1.2,0-1.5c0-0.1-0.1-0.1-0.1-0.1c0,0,0-0.1-0.1-0.1c0-0.1-0.1-0.2-0.1-0.2
		c0-0.1-0.1-0.2-0.1-0.2c0,0-0.2-0.1-0.3-0.3c-0.4-0.3-0.7-0.5-0.9-0.4c-0.1,0.1,0,0.1,0.3,0.3c0.3,0.2,0.4,0.3,0.6,0.5
		c0.2,0.2,0.3,0.4,0.3,0.6c0,0.1,0,0.1,0.1,0.1c0,0,0.1,0.1,0.1,0.2c0,0.2,0,0.8,0,0.9c0,0,0,0.2-0.1,0.3c0,0.2-0.1,0.3-0.2,0.5
		c-0.1,0.1-0.1,0.2-0.2,0.2C14.4,14.9,14.6,15,14.7,14.9 M11,14.9c0,0,0-0.1,0-0.2c0-0.1,0-0.2-0.1-0.2c-0.1-0.1-0.3-0.3-0.3-0.4
		c0,0,0-0.1,0-0.2c-0.1-0.3,0-0.5,0.2-1c0,0,0.1-0.1,0.1-0.2c0.1-0.2,0.2-0.5,0.5-0.8c0.2-0.2,0.2-0.2,0.3-0.2c0.1,0,0.1,0,0.2-0.1
		c0.2-0.2,0.2-0.2,0.5-0.2c0.2,0,0.3,0,0.4-0.2c0-0.1,0-0.1,0-0.1c-0.1-0.1-0.1-0.1-0.3,0c-0.1,0-0.2,0.1-0.2,0.1c0,0-0.1,0-0.1,0
		c0,0-0.2,0.1-0.3,0.1c-0.1,0-0.2,0-0.3,0.1c0,0-0.1,0.1-0.1,0.1c-0.1,0-0.2,0.2-0.5,0.4c-0.2,0.3-0.3,0.4-0.3,0.5
		c0,0,0,0.1-0.1,0.1c0,0.1-0.1,0.1-0.1,0.2c0,0,0,0.1,0,0.1c0,0-0.1,0.1-0.1,0.2c0,0.1,0,0.2-0.1,0.2c0,0.1-0.1,0.1-0.1,0.6
		c0,0.5,0,0.5,0.1,0.6c0,0,0.1,0.1,0.1,0.2c0,0.1,0.2,0.3,0.3,0.4C10.8,14.9,10.9,14.9,11,14.9 M6.5,14.7c0.1-0.1,0-0.3-0.1-0.4
		c-0.1,0-0.2,0.2-0.1,0.3C6.4,14.7,6.5,14.7,6.5,14.7 M20.3,14.7c0,0,0-0.4,0-0.4c0,0-0.1,0-0.2,0c-0.1,0.1-0.1,0.4,0,0.4
		C20.2,14.7,20.3,14.7,20.3,14.7 M9.2,14.6c0.1,0,0.1-0.1,0.1-0.1c0,0,0,0,0-0.1c0,0,0-0.1,0.1-0.2C9.5,14.1,9.6,14,9.6,14
		c0-0.1-0.1-0.2-0.1-0.2c-0.1,0-0.3,0.2-0.3,0.3c0,0,0,0.1-0.1,0.2C9,14.5,9,14.6,9.1,14.6C9.1,14.7,9.1,14.7,9.2,14.6 M15.8,14.5
		c0,0,0.1-0.1,0.1-0.1c0.1,0,0.1-0.1,0.1-0.2c0,0-0.1,0-0.1,0c0,0-0.1,0.1-0.1,0.1C15.5,14.5,15.5,14.6,15.8,14.5
		C15.7,14.6,15.8,14.6,15.8,14.5 M8.9,14.2c0-0.1,0-0.2,0.1-0.2c0.1-0.2,0.1-0.3,0-0.3c0,0-0.1,0-0.1,0c-0.1,0.1-0.2,0.2-0.2,0.4
		c0,0.1,0,0.2,0,0.2C8.8,14.4,8.9,14.3,8.9,14.2 M14.6,14.2c0-0.1,0.1-0.2,0.1-0.3c0-0.1,0.1-0.2,0.1-0.2c0.1-0.1,0.1-0.7,0-1
		c0-0.2-0.1-0.3-0.2-0.3l-0.1,0l0,0.2c0,0.1,0,0.3,0,0.3c0,0.1,0,0.1-0.1,1c0,0.1,0,0.3,0,0.3C14.5,14.4,14.6,14.3,14.6,14.2
		 M11.1,14.1c0,0,0.1-0.1,0.1-0.2c0-0.1,0-0.2,0.1-0.3c0,0,0.1-0.1,0.1-0.2c0-0.2,0.3-0.6,0.4-0.9c0.1-0.2,0.1-0.3,0.1-0.3
		c-0.1-0.1-0.2,0-0.4,0.1l-0.2,0.1l-0.1,0.2c0,0.1-0.1,0.3-0.2,0.5c-0.1,0.3-0.1,0.3-0.1,0.5c0,0.2,0,0.4,0.1,0.5
		C10.9,14.2,11,14.2,11.1,14.1 M14.2,14.1c0.1-0.1,0.1-0.1,0.1-0.5c0.1-0.5,0.1-0.7,0-0.8c0-0.1-0.1-0.2-0.1-0.3c0-0.1,0-0.2,0-0.3
		c0,0-0.1-0.1-0.1-0.2c0-0.1-0.1-0.2-0.3-0.2c-0.1,0-0.3-0.1-0.3-0.1c0-0.1-0.2-0.1-0.4-0.1c-0.4,0-0.3,0-0.6,0
		c-0.1,0-0.3,0-0.4,0.1c0,0-0.1,0-0.1,0c-0.1,0-0.5,0.3-0.5,0.4c0,0.1,0.4,0,0.7-0.1c0.1-0.1,0.3-0.1,0.3-0.1c0,0-0.1,0.1-0.3,0.3
		c-0.3,0.3-0.3,0.3-0.3,0.7l0,0.2h-0.1c-0.1,0-0.2,0.1-0.2,0.2c0,0.1,0,0.1,0.1,0.1c0.2,0,0.3,0.1,0.3,0.4c0,0.1,0,0.1,0,0.2
		c0,0,0.1,0,0.2,0c0.1,0,0.3,0,0.3,0c0.1,0,0.3,0.1,0.5,0.1c0.4,0,0.6,0.1,0.7,0.2C14,14.2,14.1,14.2,14.2,14.1 M13.9,13.6
		c-0.1-0.1-0.2-0.1-0.4,0c-0.1,0-0.1,0-0.1-0.1c-0.1-0.1-0.1-0.2,0-0.1c0.1,0.1,0.1,0.1,0.3,0.1c0.2,0,0.3,0,0.3,0.1
		c0.1,0.1,0.1,0.1,0,0.1C14,13.6,14,13.6,13.9,13.6 M13.1,13.2c0,0,0-0.1,0.1-0.2c0-0.1,0.1-0.1,0.1-0.2c0-0.1,0.1,0,0.1,0
		c0,0.1,0,0.1,0,0.1c0,0-0.1,0-0.1,0.1C13.2,13.2,13.2,13.2,13.1,13.2C13.1,13.2,13.1,13.2,13.1,13.2 M12.1,13.1
		c0,0-0.1-0.1-0.1-0.1c0,0-0.1,0-0.1-0.1c0,0,0.1,0,0.2,0c0.1,0,0.1,0,0.2,0c0.1-0.1,0.1,0,0,0.1C12.3,13.1,12.2,13.2,12.1,13.1z
		 M12.5,12.7c0-0.2,0-0.2-0.2-0.2c-0.1,0-0.1-0.1,0-0.1C12.5,12.5,12.6,12.5,12.5,12.7c0.1,0,0,0.1,0,0.1
		C12.5,12.9,12.5,12.8,12.5,12.7 M13.7,12.5c0,0,0-0.1,0-0.2c0-0.1,0-0.2,0-0.2c0,0,0-0.1,0-0.1c0.1,0,0.1,0.1,0.2,0.2
		C13.8,12.5,13.8,12.6,13.7,12.5C13.7,12.6,13.7,12.6,13.7,12.5L13.7,12.5z M13.1,12.2c0-0.1-0.1-0.2,0-0.2c0,0,0,0,0.1,0.1
		c0,0,0.1,0.1,0.1,0.1c0,0,0,0,0,0.1C13.2,12.2,13.1,12.2,13.1,12.2 M18.6,14c0.1,0,0.2-0.1,0.2-0.1c0.1-0.1,0.2-0.1,0.2-0.1
		c0.1,0,0.3-0.2,0.4-0.3c0-0.1,0-0.2-0.2-0.4c0-0.1-0.1-0.1-0.1-0.2c0,0,0-0.1-0.1-0.2c-0.1-0.1-0.1-0.1-0.2,0c0,0-0.1,0-0.1,0
		c-0.2,0-0.5,0.3-0.5,0.5c0,0-0.1,0.1-0.1,0.2c-0.1,0.1-0.1,0.2-0.1,0.3c0,0.3,0,0.4,0.3,0.4C18.4,14,18.5,14,18.6,14 M11.8,13.9
		c0.1,0,0.2-0.2,0.2-0.3c0-0.1-0.1-0.1-0.3-0.2c-0.2,0-0.3,0.1-0.3,0.3c-0.1,0.2,0,0.2,0.2,0.2C11.6,13.9,11.8,13.9,11.8,13.9
		 M18,13.5c0-0.1,0.1-0.3,0.2-0.4c0.1-0.2,0.2-0.4,0.2-0.5c0-0.1-0.1-0.3-0.3-0.5c-0.1-0.1-0.2-0.1-0.3-0.1c-0.1,0-0.2,0.1-0.2,0.1
		c0,0.1-0.2,0.1-0.4,0.1c-0.2,0-0.4,0-0.5,0.1c-0.1,0.1-0.1,0.1,0.1,0.3c0.1,0.1,0.1,0.1,0.3,0.1c0.1,0,0.2,0,0.2,0
		c0.1,0,0.1,0,0.2,0c0.1,0,0.2,0.1,0.2,0.1c0.1,0.1,0.1,0.1,0,0.1c-0.1,0.1-0.1,0.3-0.1,0.3c0,0.1,0.2,0.3,0.3,0.3
		C17.9,13.6,17.9,13.6,18,13.5 M17.7,12.6L17.7,12.6l0-0.2c0.1-0.1,0.2-0.1,0.2,0C17.9,12.4,17.8,12.6,17.7,12.6
		C17.8,12.6,17.7,12.6,17.7,12.6 M7.6,13.3c0.1-0.1,0.1-0.1,0.1-0.1c0,0-0.1-0.1-0.1-0.2c-0.3-0.4-0.4-0.6-0.2-0.7
		c0,0,0.1-0.1,0.1-0.1c0-0.1,0.3-0.6,0.4-0.6c0,0,0.1,0,0.1,0.1c0.2,0.1,0.4,0.5,0.5,0.7c0.1,0.2,0.2,0.2,0.4,0.1
		c0.1-0.1,0.1-0.1,0.1-0.2c0-0.1,0-0.1-0.2-0.2c-0.1-0.1-0.2-0.2-0.3-0.4c0,0-0.1-0.1-0.1-0.2c-0.1-0.1-0.1-0.1-0.2-0.1
		c-0.1,0-0.1,0-0.2,0.1c0,0-0.1,0.1-0.1,0.1c-0.1,0-0.3,0.1-0.3,0.2c0,0.1-0.1,0.2-0.2,0.4c-0.2,0.3-0.2,0.4-0.4,0.3l-0.1-0.1
		l-0.1,0.1c-0.1,0-0.1,0.1-0.1,0.1c0,0.1,0.1,0.2,0.2,0.2c0.1,0,0.3,0.3,0.5,0.4c0,0.1,0.1,0.2,0.2,0.3c0.1,0.2,0.1,0.3,0.2,0.3
		C7.5,13.4,7.5,13.4,7.6,13.3 M17.5,13c0.1-0.1,0-0.2-0.1-0.2c-0.1,0-0.2,0.1-0.1,0.2C17.3,13.1,17.4,13.1,17.5,13 M8.1,12.9
		c0.1,0,0.1-0.1,0.1-0.2c0-0.2,0-0.4-0.1-0.5C7.9,12,7.8,11.9,7.8,12c0,0-0.1,0.1-0.1,0.2c0,0.1-0.1,0.2-0.1,0.2c0,0,0,0.2,0,0.3
		c0,0.1,0.1,0.2,0.2,0.3C7.9,13,8,13,8.1,12.9 M18.8,12.4c0-0.1,0-0.2-0.3-0.4c-0.3-0.3-0.5-0.4-0.6-0.3c-0.1,0.1,0,0.2,0.2,0.4
		c0.1,0.1,0.2,0.3,0.3,0.3c0.1,0.1,0.1,0.1,0.2,0.2C18.7,12.5,18.8,12.5,18.8,12.4 M16.5,12.2c0.1-0.1,0.4-0.1,0.6-0.1
		c0.1,0,0.2,0,0.3-0.1c0.2-0.1,0.2-0.1,0.3-0.3c0.1-0.3,0.2-0.4,0-0.6c-0.1-0.1-0.1-0.2-0.2-0.3c-0.1-0.1-0.5-0.4-0.6-0.4
		c-0.1,0-0.3,0-0.4,0.3c-0.1,0.2-0.2,0.2-0.2,0.2c-0.1,0-0.1,0-0.1-0.1c0-0.1-0.1-0.1-0.1-0.1c0,0,0,0.1,0,0.2
		c0.1,0.1,0.1,0.4,0,0.5c-0.1,0.1-0.2,0.3-0.4,0.3c-0.1,0.1-0.3,0.1-0.4,0c-0.2-0.1-0.3-0.1-0.3,0.1c0,0.2,0.2,0.3,0.8,0.4
		C16.2,12.3,16.3,12.3,16.5,12.2 M17,11.8c0,0-0.1,0-0.3,0l-0.2,0l-0.1-0.3c-0.1-0.3-0.1-0.3,0-0.3c0.1,0,0.2-0.1,0.4-0.2
		c0.1-0.1,0.2-0.1,0.2-0.1c0,0,0.1,0.1,0.2,0.1c0.1,0.1,0.2,0.1,0.2,0.1c0,0,0.1,0,0.1,0.1c0.1,0.1,0.1,0.1,0,0.1c0,0,0,0.1-0.1,0.1
		c-0.1,0-0.1,0.1-0.1,0.2c0,0.2,0,0.2-0.1,0.2C17.1,11.8,17.1,11.8,17,11.8 M17.2,11.5c0.1,0,0.1-0.1,0.1-0.1c0,0-0.3-0.2-0.3-0.2
		c0,0-0.1,0-0.1,0c0,0-0.1,0.1-0.1,0.1c-0.1,0-0.2,0.1-0.1,0.2c0,0.1,0,0.1,0.3,0.1C17.1,11.6,17.1,11.6,17.2,11.5 M14.5,12.1
		c0-0.2-0.4-0.5-0.5-0.5c-0.1,0-0.1,0-0.1,0c0,0,0.1,0.1,0.2,0.3C14.4,12.1,14.5,12.2,14.5,12.1 M10.1,11.9c0.1,0,0.2-0.1,0.2-0.1
		c0,0,0-0.1,0-0.1c0,0-0.1-0.1-0.1-0.2c0-0.1,0-0.1-0.1-0.1c0,0,0-0.1,0-0.1c0,0-0.1-0.2-0.1-0.3c-0.1-0.1-0.1-0.2-0.1-0.2
		c0,0-0.1-0.1-0.2-0.1c-0.1,0-0.3,0.1-0.3,0.1c0,0.1,0,0.3,0.1,0.3c0,0,0.1,0.1,0.1,0.1c0,0,0,0.1,0.1,0.1c0,0,0,0.1,0,0.1
		c0,0,0,0.1,0.1,0.2c0,0.1,0.1,0.2,0.1,0.3C9.7,12,9.8,12,10.1,11.9 M10.8,11.7c0,0,0.1-0.1,0.2-0.2c0.2-0.2,0.5-0.4,0.6-0.4
		c0.1,0,0.2,0,0.2-0.1c0,0,0.1,0,0.2-0.1c0.2,0,0.4-0.1,0.4-0.2c0-0.1,0-0.1,0-0.2c0-0.1-0.1-0.2-0.1-0.2c0,0-0.1-0.1-0.1-0.2
		c0-0.1-0.1-0.2-0.1-0.2s0-0.1-0.1-0.2C12,9.7,12,9.6,12,9.5c0-0.1-0.1-0.2-0.2-0.2c-0.1,0-0.2,0-0.4,0.2c-0.1,0.1-0.1,0.1-0.1,0.2
		c0,0.2,0.1,0.2,0.3,0.2c0.1,0,0.2,0,0.2,0.1c0,0.1,0,0.1,0,0.2c-0.1,0.1-0.1,0.1-0.1,0.4c0,0.2,0,0.2-0.1,0.2c-0.1,0-0.1,0-0.3,0
		c-0.2,0-0.3,0-0.3,0.1c0,0-0.1,0.1-0.1,0.1c0,0-0.1,0-0.1,0c-0.1,0-0.2-0.1-0.2-0.2c0-0.2,0-0.3-0.2-0.3c-0.2,0-0.4,0-0.3,0.2
		c0,0,0,0.1,0.1,0.2c0,0.1,0.1,0.2,0.1,0.2c0,0.1,0.1,0.2,0.1,0.2c0,0,0,0.1,0,0.1c0,0,0,0.1,0.1,0.1c0,0,0,0.1,0,0.2
		C10.5,11.7,10.7,11.8,10.8,11.7 M13.8,11.6c0,0,0-0.1-0.1-0.1c-0.1,0-0.2,0-0.1,0.1C13.6,11.6,13.7,11.6,13.8,11.6 M13.4,11.4
		c0-0.1,0-0.1-0.1-0.1c-0.1,0-0.1,0-0.1,0.1C13.2,11.5,13.4,11.5,13.4,11.4 M15.8,11.3c0.1-0.1,0.1-0.1,0.1-0.3c0-0.3,0-0.3-0.2-0.6
		c-0.1-0.1-0.2-0.2-0.2-0.3c0-0.2,0-0.2,0.2-0.2c0.2,0,0.2,0.1,0.4,0.3c0.1,0.1,0.2,0.2,0.2,0.2c0.1,0,0.2-0.1,0.2-0.2
		c0-0.1-0.1-0.2-0.2-0.2c0,0-0.1,0-0.1-0.1c-0.1,0-0.2-0.1-0.2-0.1c-0.1,0-0.2-0.1-0.2-0.1c-0.2-0.1-0.4,0-0.5,0.1
		c-0.1,0.1-0.1,0.1-0.1,0.2c0,0.1,0,0.1,0.1,0.2c0,0,0.1,0.2,0.2,0.3c0.1,0.2,0.1,0.2,0.1,0.3c0,0.1,0,0.1,0,0.2
		c0,0.1-0.1,0.1-0.3,0.1H15l-0.2-0.2c-0.2-0.2-0.3-0.3-0.4-0.2c-0.1,0-0.2,0.1-0.2,0.3c0,0.1,0,0.1,0.1,0.2c0.4,0.2,0.6,0.3,1,0.3
		L15.8,11.3L15.8,11.3z M13.5,10.8c0.2-0.2,0.3-0.4,0.3-0.4c0,0,0.1-0.1,0.1-0.2c0.1-0.1,0.1-0.2,0.1-0.2c0,0,0-0.1,0-0.1
		c0.2-0.2,0.1-0.3,0-0.3c-0.1,0-0.1,0-0.1-0.1c0-0.1,0-0.1-0.1-0.1c-0.1,0-0.1,0-0.1,0.1c0,0.1,0,0.1,0.1,0.1c0,0,0,0.1-0.1,0.3
		c-0.1,0.2-0.2,0.3-0.2,0.3c-0.1,0,0-0.1,0-0.2c0.1-0.1,0.1-0.1,0-0.2c0-0.1-0.1,0-0.3,0.1c-0.2,0.2-0.3,0.3-0.5,0.2
		c-0.1,0-0.1,0-0.2,0.1c0,0.1,0,0.1-0.1,0.1c0,0-0.2-0.2-0.2-0.4c0-0.1-0.1-0.2-0.1-0.3c-0.1-0.1-0.1-0.1-0.1-0.3c0-0.2,0-0.2,0-0.2
		c-0.1-0.1-0.1-0.1-0.2,0c-0.1,0.1-0.1,0.1,0,0.3c0,0.1,0,0.2,0,0.3c0,0.1,0,0.1,0,0.2c0,0,0.1,0.1,0.1,0.2c0.1,0.2,0.2,0.4,0.3,0.6
		c0.1,0.1,0.1,0.2,0.2,0.3c0,0.1,0.1,0.2,0.3,0.2C13.2,11.1,13.2,11,13.5,10.8 M13,10.6C12.9,10.5,12.9,10.4,13,10.6
		c0.1,0,0.3,0,0.4-0.2c0.1-0.1,0.1-0.1,0.1-0.1c0,0,0,0,0,0c0.1,0.1-0.2,0.4-0.3,0.4C13.2,10.7,13.1,10.6,13,10.6 M13.9,10.9
		c0,0,0.1-0.1,0.1-0.2c0.1-0.3,0.2-0.3,0.4-0.3c0.1,0,0.2,0,0.4,0.3c0.2,0.3,0.4,0.3,0.4,0.1c0-0.1,0-0.1-0.2-0.3
		c-0.2-0.2-0.3-0.3-0.3-0.5c0-0.2,0-0.2-0.2-0.2c-0.1,0-0.2,0-0.4,0.4c-0.1,0.2-0.3,0.4-0.3,0.5c-0.1,0.1-0.1,0.2-0.1,0.3
		C13.7,11,13.8,11,13.9,10.9 M10.9,10.6c0.1,0,0.2-0.1,0.2-0.1c0.2,0,0.2,0,0.2-0.2c0-0.1,0-0.2-0.1-0.2c0,0-0.1-0.1-0.1-0.1
		c0,0-0.1,0-0.2-0.1c-0.1-0.1-0.1-0.1-0.2,0c0,0-0.1,0.1-0.1,0.1c0,0.1-0.1,0.1-0.1,0.1c-0.1,0-0.1,0.1-0.1,0.1c0,0.1,0,0.1,0.1,0.1
		c0.1,0,0.1,0.1,0.1,0.1C10.7,10.7,10.8,10.7,10.9,10.6 M15.9,10.3c-0.1-0.1-0.1-0.1-0.1-0.1C15.7,10.3,15.9,10.4,15.9,10.3
		C15.9,10.4,15.9,10.4,15.9,10.3 M13.2,9.9C13.2,9.9,13.2,9.9,13.2,9.9c-0.1,0-0.1,0-0.1,0C13.1,9.9,13.1,9.9,13.2,9.9
		C13.2,9.9,13.2,9.9,13.2,9.9 M13,9.6c0.1-0.1,0.2-0.2,0.2-0.2c-0.3-0.2-0.4-0.2-0.5-0.1c-0.1,0.1-0.1,0.2,0,0.3
		c0.1,0.1,0.1,0.1,0.1,0.1C12.8,9.7,12.9,9.7,13,9.6 M13.6,9.6c0-0.1,0-0.1-0.1-0.2c-0.1,0-0.2,0-0.2,0.1c0,0.1,0,0.1,0.1,0.1
		C13.6,9.6,13.6,9.6,13.6,9.6 M13.2,9.1C13.2,9,13.2,9,13.2,9.1c-0.1-0.1-0.2,0-0.1,0C13.1,9.1,13.2,9.1,13.2,9.1 M21.4,25.4
		C21.4,25.4,21.4,25.3,21.4,25.4c0.1-0.2,0.1-0.2,0.1-0.2c0,0-0.2-0.4-0.5-0.8c-0.3-0.4-0.5-0.7-0.5-0.8c0,0,0,0,0,0
		c0,0,0.4,0.1,0.8,0.2c1,0.3,1,0.3,1.1,0.2c0.1-0.1,0.1-0.1,0.1,0c0,0-0.2,0.4-0.3,0.4c0,0,0,0-0.1,0c0,0-0.6-0.2-0.6-0.2
		c0,0-0.1,0.1-0.2,0.2l-0.2,0.2l0.2,0.2c0.2,0.3,0.2,0.3,0.3,0.3c0.1-0.1,0.1,0-0.1,0.2C21.5,25.4,21.4,25.5,21.4,25.4 M21.4,24
		c0,0-0.6-0.2-0.6-0.2c0,0,0.1,0.1,0.2,0.3l0.2,0.2l0.1-0.2C21.4,24.1,21.4,24,21.4,24 M2.4,24.8c-0.1-0.1-0.2-0.3-0.2-0.3
		c0,0,0,0,0.1,0c0.1,0,0.2,0,0.9-0.5l0.5-0.4l0-0.1c0-0.1,0-0.1,0-0.1c0,0,0.3,0.4,0.3,0.4c0,0,0,0-0.1,0c0,0-0.1,0-0.1,0
		c-0.1,0.1-1.1,0.8-1.2,0.9c-0.1,0.1-0.1,0.1,0,0.1c0,0.1,0.1,0.1,0,0.1C2.6,25,2.5,24.9,2.4,24.8 M1.9,23.7
		c-0.3-0.1-0.4-0.3-0.6-0.7c-0.1-0.2-0.2-0.4-0.2-0.4c-0.1-0.2-0.1-0.2,0-0.1c0.1,0.1,0.1,0.1,0.8-0.3c0.7-0.4,0.8-0.4,0.7-0.5
		c0-0.1,0-0.1,0-0.1c0,0,0.1,0.2,0.3,0.5c0.3,0.5,0.3,0.7,0.3,1c-0.1,0.3-0.2,0.5-0.5,0.6C2.4,23.7,2.1,23.7,1.9,23.7 M2.4,23.5
		c0.4-0.1,0.6-0.6,0.6-1c0-0.2-0.2-0.5-0.3-0.5c0,0-1.2,0.6-1.3,0.7c-0.1,0-0.1,0.1-0.1,0.2c0,0.1,0,0.2,0.1,0.2
		c0.1,0.3,0.3,0.4,0.5,0.5C2.1,23.5,2.2,23.5,2.4,23.5 M22.7,23.6C22.7,23.6,22.7,23.6,22.7,23.6c0-0.1,0-0.2,0-0.2
		c0,0-0.4-0.2-0.8-0.4c-0.7-0.3-0.9-0.4-0.8-0.5c0.1,0,1.2-0.4,1.6-0.5c0.2-0.1,0.4-0.1,0.3-0.1c0,0-1.2-0.5-1.2-0.5
		c0,0-0.1,0-0.1,0.1c-0.1,0.1-0.1,0.1,0-0.2c0.1-0.3,0.2-0.3,0.2-0.2c0,0.1,0,0.1,0,0.1c0,0,0.4,0.2,0.8,0.4
		c0.4,0.2,0.8,0.4,0.8,0.4c0,0-0.4,0.2-1.3,0.5c-0.3,0.1-0.6,0.2-0.7,0.2c0,0,0,0,0.1,0c0.1,0,0.3,0.1,0.6,0.3
		c0.3,0.1,0.5,0.2,0.5,0.2c0,0,0.1,0,0.1-0.1c0.1-0.1,0.1,0,0,0.2C22.7,23.6,22.7,23.6,22.7,23.6z M23.3,20.8c-0.5-0.5-0.9-1-1-1
		c0,0-0.2,0.6-0.2,0.7c0,0.1,0,0.1,0.1,0.2c0,0,0.1,0.1,0.1,0.1s0,0,0,0c0,0-0.1,0-0.3,0c-0.1-0.1-0.2-0.1-0.1-0.1
		c0-0.2,0.2-0.6,0.2-0.9c0.1-0.2,0.1-0.3,0.1-0.3c0,0,0.1,0,0.1,0.1c0.4,0.4,1.2,1.3,1.3,1.3c0,0,0.2-0.7,0.2-0.8c0,0,0-0.1-0.1-0.2
		c-0.1-0.1-0.1-0.1,0-0.1c0.1,0,0.3,0.1,0.3,0.2c0,0.1-0.3,1.3-0.4,1.3C23.7,21.3,23.5,21.1,23.3,20.8 M0.5,21.1
		c0,0-0.1-0.4-0.1-0.5c0,0,0,0,0.1,0c0,0,0.5-0.3,0.6-0.3c0,0-0.1-0.5-0.1-0.5c0,0-0.1,0-0.3,0l-0.3,0l0,0.1c0,0.1,0,0.1-0.1-0.2
		c-0.1-0.3-0.1-0.3,0-0.3c0,0,0,0,0.1,0.1c0,0,0.1,0.1,0.1,0.1c0,0,0.4,0.1,0.9,0.1c1,0.1,1,0.1,1,0.2c0,0-0.3,0.2-0.7,0.5
		C0.6,20.9,0.5,20.9,0.5,21.1C0.6,21.2,0.5,21.2,0.5,21.1 M1.4,19.8c-0.2,0-0.3,0-0.3,0c0,0,0,0.1,0,0.2l0,0.2L1.4,20l0.3-0.2
		L1.4,19.8z M58.1,19.9c-1.4-0.1-2.3-1.2-2.5-2.8c-0.1-1,0.3-2.1,0.9-2.8c0.5-0.5,1.1-0.7,1.8-0.8c0.8,0,1.6,0.2,2.1,0.7
		c0.7,0.6,1,1.6,0.9,2.7c-0.1,1.6-1.2,2.8-2.6,2.9C58.4,19.9,58.4,19.9,58.1,19.9 M59.1,19.5c0.3-0.1,0.6-0.2,0.8-0.5
		c0.5-0.5,0.7-1.2,0.7-2.2c0-0.7-0.1-1.1-0.3-1.7c-0.4-0.9-1.1-1.4-2-1.3c-0.6,0-0.9,0.2-1.3,0.6c-0.2,0.2-0.3,0.3-0.4,0.5
		c-0.4,0.8-0.4,1.9-0.1,2.9C56.9,19.1,58,19.8,59.1,19.5 M85.8,19.9c-1.5-0.1-2.6-0.8-3-2c-0.5-1.3-0.1-2.8,0.9-3.7
		c0.8-0.6,2-0.8,3.6-0.5c0.2,0,0.5,0.1,0.6,0.1c0.1,0,0.2,0,0.2,0.1c0,0,0,0.2,0,0.3c0,0.1,0,0.4,0,0.6c0,0.5,0,0.6-0.1,0.6
		c-0.1,0-0.1,0-0.1-0.2c0-0.3-0.1-0.6-0.3-0.7c-0.3-0.3-1-0.5-1.6-0.5c-0.8,0-1.4,0.2-1.8,0.6c-0.5,0.4-0.7,1-0.7,1.8
		c-0.1,0.9,0.2,1.7,0.8,2.3c0.5,0.5,1,0.8,1.6,0.9c0.3,0,1,0,1.2,0c0.5-0.1,0.7-0.4,0.9-0.9c0-0.2,0.1-0.2,0.1-0.2
		c0.1,0,0.1,0,0.1,0.2c0,0.2-0.1,0.9-0.2,1c-0.1,0.2-0.5,0.3-1.2,0.3C86.3,19.9,86.3,19.9,85.8,19.9 M46.2,19.8
		c-0.2,0-1.3,0-1.8-0.1c-0.1,0-0.1-0.1,0-0.1c0,0,0.1,0,0.1,0c0.1,0,0.3-0.1,0.3-0.1c0.1-0.2,0.1-0.3,0.1-2.9c0-2.2,0-2.5,0-2.6
		c-0.1-0.1-0.2-0.2-0.4-0.2c-0.2,0-0.2,0-0.2-0.1c0-0.1,0-0.1,1.6-0.1c1.4,0,1.6,0,1.9,0c0.8,0.1,1.4,0.4,1.8,0.9
		c0.6,0.6,0.8,1.4,0.8,2.3c-0.1,1.3-0.8,2.3-1.9,2.8c-0.4,0.2-0.7,0.2-1.4,0.2C46.7,19.8,46.3,19.8,46.2,19.8 M47.8,19.5
		c0.8-0.2,1.3-0.6,1.6-1.2c0.1-0.2,0.2-0.6,0.2-0.9c0.1-1-0.2-1.9-0.9-2.6c-0.2-0.2-0.4-0.3-0.7-0.5c-0.5-0.2-0.9-0.3-1.7-0.3
		c-0.7,0-0.7,0-0.7,0.2c0,0.1,0,3.8,0,4.4c0,0.6,0,0.7,0.2,0.8c0.1,0.1,0.4,0.1,0.6,0.2c0.1,0,0.3,0,0.6,0
		C47.5,19.5,47.6,19.5,47.8,19.5 M80.4,19.8c-0.2-0.1-2.5-2.6-4.2-4.4c-0.3-0.3-0.5-0.5-0.5-0.5c0,0,0.1,4,0.1,4.2
		c0,0.4,0.1,0.6,0.5,0.6c0.1,0,0.2,0,0.2,0c0.1,0,0.1,0.1,0,0.1c0,0-1.5,0-1.8,0c0,0,0,0,0-0.1c0-0.1,0-0.1,0.3-0.1
		c0.2,0,0.3-0.1,0.3-0.2c0-0.1,0-0.4,0.1-3c0-2.1,0-2.8,0-2.8c0.1-0.1,0.1,0,0.3,0.2c0.1,0.1,0.9,0.9,1.7,1.8
		c0.8,0.9,1.8,1.9,2.1,2.3l0.6,0.7l0-0.1c0-0.2-0.1-4.2-0.1-4.3c0-0.3-0.1-0.3-0.5-0.4c-0.3,0-0.3-0.1-0.3-0.1c0,0,0.2,0,0.9,0
		c0.9,0,0.9,0,0.9,0.1c0,0,0,0.1-0.1,0.1c-0.2,0-0.3,0.1-0.4,0.2c0,0.1,0,0.4-0.1,3c0,1.6,0,2.8,0,2.9
		C80.5,19.8,80.5,19.8,80.4,19.8 M29.8,19.8c-0.1,0-0.1-0.1,0-0.1c0,0,0.1,0,0.2,0s0.1,0,0.2,0c0.2-0.1,0.2,0,0.5-3.1
		c0.2-1.6,0.3-2.9,0.3-2.9c0,0,0,0,0.1,0c0,0,0.1,0,0.1,0c0,0,0.6,1.2,1.3,2.6c0.7,1.4,1.2,2.5,1.2,2.5c0,0,0.5-1.1,1.2-2.5
		c0.6-1.4,1.2-2.5,1.2-2.6c0.1-0.1,0.1-0.1,0.2,0c0,0,0.2,1.2,0.3,2.7c0.2,1.4,0.3,2.7,0.3,2.8c0.1,0.4,0.3,0.5,0.7,0.6
		c0.2,0,0.2,0,0.2,0.1c0,0,0,0.1-0.1,0.1c-0.1,0-1.5,0-1.6-0.1c-0.1,0-0.1-0.1-0.1-0.2c0,0,0-0.1,0-0.1c0-0.2-0.4-4.2-0.4-4.2
		c0,0-0.5,1-1.1,2.2c-0.6,1.2-1.1,2.3-1.1,2.3c-0.1,0.1-0.1,0-0.2-0.1c-0.1-0.2-1.3-2.6-1.7-3.5c-0.3-0.6-0.4-0.8-0.4-0.8
		c0,0.1-0.3,3.7-0.3,3.9c0,0.3,0.1,0.4,0.4,0.4c0.1,0,0.1,0,0.1,0c0.1,0,0,0.1-0.1,0.1C31,19.8,29.8,19.8,29.8,19.8 M39.1,19.8
		c-0.1,0-0.1-0.1,0-0.1c0,0,0.1,0,0.2,0c0.2,0,0.2-0.1,0.3-0.3c0-0.1,0-0.5,0.1-2.6c0-1.7,0-2.5,0-2.6c0-0.1-0.1-0.2-0.1-0.2
		c-0.1-0.1-0.3-0.1-0.4-0.1c-0.1,0-0.1-0.1-0.1-0.1c0,0,0.7,0,1.4,0c1.3,0,1.6,0,1.9-0.1l0.1,0l0,0.1c0,0.1,0,0.3-0.1,0.5
		c0,0.2,0,0.4,0,0.4c0,0,0,0-0.1,0c-0.1,0-0.1,0-0.1-0.2c0-0.4-0.2-0.5-1.2-0.5l-0.5,0l0,1.2l0,1.2l0.7,0c0.4,0,0.8,0,0.8,0
		c0,0,0.1-0.1,0.2-0.1c0.1-0.1,0.2-0.1,0.2-0.1c0,0,0,0.1,0,0.2c0,0.1,0,0.3-0.1,0.6c0,0.4,0,0.4-0.1,0.4c0,0-0.1,0-0.1-0.2
		c0-0.4-0.2-0.5-1.1-0.5l-0.5,0l0,0.9c0,1.3,0,1.6,0.2,1.7c0.1,0.1,0.5,0.1,0.9,0.1c0.7,0,0.8-0.1,0.9-0.6c0-0.1,0-0.2,0.1-0.2
		c0.1,0,0.1,0,0.1,0.1c0,0.3-0.1,0.9-0.2,0.9l-0.1,0.1l-1.6,0C39.8,19.8,39.1,19.8,39.1,19.8L39.1,19.8z M52.1,19.8
		C52.1,19.8,52.1,19.8,52.1,19.8c0-0.1,0-0.1,0.1-0.1c0.2,0,0.2,0,0.3-0.2c0.1-0.2,0.1-0.5,0.1-3c0-2.2,0-2.4-0.1-2.5
		c-0.1-0.1-0.2-0.2-0.4-0.2c-0.1,0-0.2,0-0.1-0.1c0-0.1,0-0.1,0.9-0.1c0.7,0,0.9,0,0.9,0c0,0.1,0,0.1-0.1,0.1
		c-0.2,0-0.3,0.1-0.4,0.2c0,0.1,0,0.3-0.1,2.4c0,1.4,0,2.4,0,2.6c0,0.4,0.1,0.5,0.4,0.6c0.1,0,0.2,0,0.3,0c0.1,0,0.1,0.1,0,0.1
		C54,19.8,52.2,19.8,52.1,19.8 M63.1,19.8c-0.1,0,0-0.1,0.1-0.1c0.1,0,0.3-0.1,0.3-0.1c0.1-0.2,0.1-0.3,0.1-2.9c0-2.2,0-2.5,0-2.6
		c-0.1-0.1-0.2-0.2-0.4-0.2c-0.2,0-0.2,0-0.2-0.1c0-0.1,0-0.1,1.1-0.1c0.8,0,1.1,0,1.3,0c0.5,0.1,0.9,0.3,1,0.7
		c0.1,0.2,0.1,0.2,0.1,0.4c0,0.3,0,0.5-0.1,0.7c-0.1,0.2-0.3,0.5-0.5,0.7l-0.1,0.1l0.2,0.1c0.8,0.4,1.2,1,1.1,1.7
		c0,0.3-0.1,0.6-0.3,0.8c-0.2,0.3-0.4,0.4-0.7,0.6c-0.5,0.2-0.4,0.2-1.8,0.2C63.7,19.8,63.1,19.8,63.1,19.8 M65.6,19.5
		c0.4-0.1,0.6-0.3,0.7-0.7c0.1-0.2,0.1-0.2,0-0.5c0-0.5-0.2-1-0.5-1.3c-0.3-0.3-0.6-0.4-1.2-0.4l-0.3,0v1.3c0,1.2,0,1.3,0.1,1.4
		c0,0.1,0.1,0.1,0.2,0.2C64.8,19.5,65.3,19.6,65.6,19.5 M65.3,16.2c0.1,0,0.1-0.1,0.2-0.2c0.2-0.2,0.2-0.5,0.2-0.8
		c0-0.6-0.2-1-0.6-1.2c-0.2-0.1-0.2-0.1-0.5-0.1c-0.2,0-0.3,0-0.4,0l-0.1,0v1.1c0,0.9,0,1.1,0,1.1C64.4,16.3,65.1,16.3,65.3,16.2
		 M67.9,19.8c-0.1,0-0.1-0.1-0.1-0.1c0,0,0.1,0,0.2,0c0.3,0,0.5-0.1,0.7-0.5c0-0.1,0.5-1.4,1.1-2.8c0.5-1.5,1-2.7,1-2.7
		c0.1-0.1,0.1-0.1,0.2,0c0,0,0.4,1,0.8,2.1c1.3,3.3,1.3,3.4,1.5,3.7c0.1,0.1,0.3,0.2,0.5,0.2c0.2,0,0.3,0,0.3,0.1c0,0,0,0.1-0.1,0.1
		c-0.2,0-1.5,0-1.5,0c-0.1,0-0.1-0.1,0-0.1c0,0,0.1-0.1,0.1-0.1c0-0.1-0.8-2.1-0.8-2.1c0,0-0.2,0-0.9,0c-0.5,0-0.9,0-0.9,0
		c0,0-0.2,0.4-0.3,0.9c-0.3,1-0.4,1.1-0.2,1.2c0.1,0,0.1,0.1,0.2,0.1c0.1,0,0.1,0,0.2,0c0.1,0,0.1,0.1,0,0.1
		C69.1,19.8,68,19.8,67.9,19.8 M71.5,17.1c0,0-0.2-0.5-0.4-1.1c-0.2-0.6-0.4-1.1-0.4-1.1c0,0,0,0,0,0c0,0-0.6,1.8-0.7,2.2l0,0.1h0.8
		C71.2,17.1,71.5,17.1,71.5,17.1 M88.9,19.8C88.9,19.8,88.8,19.8,88.9,19.8c-0.1-0.1,0-0.1,0.1-0.1c0.3,0,0.5-0.1,0.6-0.4
		c0-0.1,0.5-1.4,1.1-2.9c0.5-1.5,1-2.7,1-2.8c0-0.1,0.1-0.1,0.2,0c0,0,0.4,1,0.8,2.1c1.3,3.4,1.3,3.5,1.6,3.7
		c0.1,0.1,0.3,0.2,0.5,0.2c0.1,0,0.2,0,0.2,0.1c0,0.1,0,0.1-0.8,0c-0.9,0-0.9,0-0.8-0.2c0.1,0,0.1-0.1,0.1-0.1c0-0.1-0.7-1.9-0.7-2
		l0-0.1h-0.9c-0.8,0-0.9,0-0.9,0c-0.1,0.1-0.6,1.7-0.6,1.9c0,0.1,0,0.2,0.1,0.2c0.1,0.1,0.1,0.1,0.2,0.1c0.1,0,0.1,0,0.2,0
		c0,0,0,0.1,0,0.1C90.2,19.8,89,19.8,88.9,19.8L88.9,19.8z M92.5,17c-0.1-0.3-0.8-2.2-0.8-2.2c0,0-0.2,0.4-0.4,1
		C91.1,16.5,91,17,91,17l0,0.1h0.8L92.5,17L92.5,17z M24.1,19.3c0-0.1,0-0.1-0.1-0.1c-0.1,0-1.5-0.2-1.6-0.2c0,0-0.1,0-0.1,0.1
		c0,0.1-0.1,0.1-0.1,0c0,0,0-0.1,0-0.2c0-0.2,0-0.3,0.1-0.3c0,0,0,0,0,0.1c0,0,0,0.1,0.1,0.1c0.1,0,1.4,0.2,1.5,0.2
		c0.1,0,0.2,0,0.2-0.1c0,0,0-0.1,0.1-0.1C24.3,18.7,24.2,19.2,24.1,19.3C24.2,19.4,24.1,19.4,24.1,19.3 M0.3,19
		c-0.3,0-0.3,0-0.3-0.2c0-0.1,0-0.2,0-0.5C0,18,0,18,0.1,17.8c0.1-0.2,0.3-0.4,0.6-0.5c0.5-0.2,1.1,0.1,1.2,0.6
		c0.1,0.2,0.1,0.5,0,0.8l0,0.2H1.6c-0.2,0-0.2,0-0.2,0c0,0,0,0,0.1-0.1c0.1,0,0.2-0.1,0.3-0.2c0.1-0.2,0.1-0.5,0-0.7
		c-0.1-0.2-0.3-0.3-0.4-0.4c-0.1,0-0.2,0-0.3,0c-0.3,0-0.4,0.1-0.6,0.3c-0.2,0.2-0.2,0.4-0.2,0.6C0.2,18.8,0.2,18.9,0.3,19
		C0.6,19,0.5,19,0.3,19L0.3,19z M24.3,18.3c0,0,0-0.1-0.1-0.1c0,0-0.4-0.2-0.9-0.4c-0.8-0.3-0.9-0.3-0.9-0.4c0,0,0.4-0.2,0.8-0.3
		c0.4-0.2,0.8-0.3,0.9-0.4c0.1-0.1,0.2-0.1,0.2-0.2c0,0,0-0.1,0-0.1c0,0,0,0.1,0,0.3c0,0.2,0,0.3,0,0.3c0,0-0.1,0-0.3,0.1l-0.3,0.1
		v0.3v0.3l0.3,0.1c0.2,0.1,0.3,0.1,0.3,0.1c0,0,0,0,0-0.1c0,0,0,0,0,0c0,0,0,0.1,0,0.3S24.3,18.4,24.3,18.3
		C24.3,18.4,24.3,18.4,24.3,18.3 M23.5,17.3c0,0-0.2,0-0.3,0.1c-0.2,0.1-0.3,0.1-0.3,0.1c0,0,0.2,0.1,0.3,0.1l0.3,0.1l0-0.2
		C23.5,17.4,23.5,17.3,23.5,17.3 M1.8,17c0,0,0-0.1,0-0.1c0,0-1.6-0.3-1.7-0.3c0,0,0,0,0,0c0-0.1,0.3-0.3,1-0.8
		c0.5-0.3,0.6-0.4,0.5-0.4c-0.1,0-1-0.1-1.2-0.1c-0.1,0-0.1,0-0.2,0.1c0,0.1,0,0.1-0.1,0.1c0,0,0-0.6,0.1-0.6c0,0,0,0,0,0.1
		c0,0.1,0.1,0.2,0.1,0.2c0,0,1.6,0.2,1.6,0.2c0,0,0.1,0,0.1,0c0,0-0.4,0.3-0.9,0.6c-0.5,0.3-0.8,0.6-0.8,0.6c0,0,0.3,0,0.7,0.1
		c0.7,0.1,0.7,0.1,0.7,0c0,0,0-0.1,0.1-0.1c0,0,0,0.1,0,0.2C1.9,16.7,1.9,16.8,1.8,17C1.8,17,1.8,17.1,1.8,17 M22.3,16.1
		c-0.1-0.5-0.1-0.7,0.1-0.9c0.1-0.1,0.4-0.1,0.6,0l0.2,0.1l0.2-0.2c0.3-0.3,0.4-0.5,0.4-0.6c0-0.1,0-0.1,0-0.1c0,0,0,0.1,0.1,0.2
		c0,0.3,0,0.4-0.3,0.7l-0.3,0.3l0,0.1c0,0.1,0,0.1,0,0.2c0,0,0.5-0.1,0.6-0.1c0.1,0,0.1-0.1,0.1-0.1c0-0.2,0.1-0.1,0.1,0.2
		c0,0.2,0,0.3,0,0.3c0,0-0.1,0-0.1,0c0,0,0-0.1-0.1-0.1c0,0-1.4,0.2-1.5,0.2c-0.1,0-0.1,0.1-0.1,0.2c0,0,0,0.1,0,0.1
		C22.4,16.5,22.4,16.3,22.3,16.1 M22.8,16c0.5-0.1,0.5-0.1,0.5-0.2c0-0.3-0.1-0.4-0.4-0.4c-0.3,0-0.5,0.2-0.5,0.4
		c0,0.1,0,0.3,0.1,0.3C22.5,16.1,22.6,16,22.8,16 M22,14.7c-0.1-0.2-0.2-0.5-0.2-0.5c0,0,0,0,0,0c0,0,0,0,0,0c0,0,0,0,0,0.1
		c0,0,0.1,0,0.2,0c0.3-0.1,1.3-0.4,1.4-0.4c0.1-0.1,0.1-0.1,0.1-0.1c0-0.1,0-0.1,0-0.1c0,0,0,0,0,0c0,0,0,0.2,0.1,0.3
		c0,0.1,0.1,0.3,0.1,0.3c0,0,0,0-0.1,0c0,0-0.1-0.1-0.1-0.1c-0.1,0-1.4,0.4-1.5,0.5C22.1,14.6,22.1,14.6,22,14.7
		C22.1,14.7,22.1,14.8,22,14.7 M0.4,14.5c0-0.1,0.1-0.5,0.2-0.5c0,0,0,0,0,0c0,0,0.1,0,0.3,0h0.3l0.1-0.3c0-0.1,0.1-0.3,0.1-0.3
		c0,0-0.5-0.4-0.5-0.4c0,0,0,0-0.1,0.1c0,0.1-0.1,0.1-0.1,0c0-0.1,0.2-0.5,0.2-0.5c0,0,0,0,0,0.1c0,0.1,0,0.1,0,0.2
		c0,0,0.4,0.3,0.7,0.6c0.4,0.3,0.7,0.6,0.7,0.6c0,0-0.1,0.1-1,0.1C0.6,14.3,0.5,14.3,0.4,14.5C0.4,14.5,0.4,14.5,0.4,14.5 M2.1,14
		c-0.1-0.1-0.5-0.4-0.5-0.3c0,0-0.1,0.3-0.1,0.4c0,0,0.2,0,0.3,0C1.9,14,2.1,14,2.1,14 M21.9,13.5c-0.2-0.1-0.4-0.2-0.5-0.5
		c-0.1-0.2-0.1-0.2-0.1-0.5c0-0.2,0-0.3,0.1-0.4c0.1-0.3,0.4-0.5,0.7-0.5c0.4-0.1,0.9,0.1,1.1,0.5c0.1,0.1,0.1,0.2,0.1,0.4
		c0,0.2,0,0.3-0.1,0.4c-0.1,0.2-0.3,0.4-0.5,0.5C22.5,13.6,22.1,13.6,21.9,13.5 M22.5,13.3c0.2-0.1,0.4-0.3,0.5-0.4
		c0.1-0.2,0.1-0.5,0-0.7c-0.1-0.3-0.4-0.4-0.7-0.3c-0.4,0.1-0.7,0.3-0.8,0.6c-0.1,0.3,0,0.7,0.3,0.9C22,13.4,22.3,13.4,22.5,13.3
		 M2.6,13c-0.1,0-0.2-0.2-0.3-0.3c0-0.1-0.1-0.1-0.1-0.1c-0.2,0.2-0.6,0.2-0.8-0.1c-0.2-0.2-0.1-0.5,0-0.8c0.1-0.1,0.1-0.2,0.2-0.3
		c0.1-0.1,0.1-0.2,0.1-0.1c0,0.1,0,0.1,0.1,0.1c0.1,0.1,1.4,0.8,1.4,0.7c0,0,0.1,0,0.1-0.1c0-0.1,0.1-0.1,0.1,0c0,0-0.1,0.2-0.2,0.4
		C3,12.8,3,12.9,2.9,12.9C2.8,13,2.7,13,2.6,13 M2.9,12.7c0.1,0,0.2-0.2,0.1-0.2c0,0-0.6-0.3-0.6-0.3c0,0-0.1,0.1-0.1,0.1
		c-0.1,0.1-0.1,0.1,0,0.2c0,0.1,0.1,0.1,0.3,0.2C2.7,12.8,2.8,12.8,2.9,12.7 M2.1,12.4c0.1,0,0.2-0.2,0.2-0.3c0,0-0.6-0.3-0.7-0.4
		c-0.1,0-0.2,0.1-0.2,0.2c0,0.1,0,0.1,0,0.2c0.1,0.1,0.2,0.2,0.3,0.2C1.9,12.5,2,12.5,2.1,12.4L2.1,12.4z M20.1,10.9
		c-0.2-0.2-0.2-0.2-0.1-0.2c0,0,0.1-0.1,0.2-0.3l0.1-0.3l-0.2-0.2l-0.2-0.2l-0.3,0.1c-0.3,0.1-0.3,0.2-0.3,0.2c0,0,0,0.1,0,0.1
		c0,0-0.4-0.3-0.4-0.4c0,0,0.1,0,0.1,0c0.1,0.1,0.2,0,1-0.3C20.6,9.2,21,9.1,21,9.1c0.1,0,0,0.1-0.3,0.8c-0.4,0.9-0.4,0.9-0.4,1.1
		C20.4,11.1,20.3,11.1,20.1,10.9L20.1,10.9z M20.5,9.6c0.1-0.2,0.1-0.3,0.1-0.3c0,0-0.1,0.1-0.3,0.1l-0.3,0.1l0.1,0.1
		c0.1,0.1,0.2,0.1,0.2,0.1S20.5,9.8,20.5,9.6 M4.1,10.8c0.1-0.1,0.1,0-0.5-0.9C3.3,9.6,3,9.3,3,9.3c0,0,0,0,0,0c0,0,0.4,0.1,0.8,0.3
		c0.4,0.2,0.8,0.3,0.8,0.3c0,0-0.1-0.4-0.3-0.8C4.2,8.3,4.1,8.2,4.2,8.2c0,0,0.3,0.2,0.7,0.5C5.2,9,5.5,9.3,5.6,9.3
		c0.1,0,0.1,0,0.2,0c0.2-0.1,0.1,0,0,0.2C5.5,9.5,5.4,9.6,5.4,9.5c0,0-0.9-0.8-0.9-0.8c0,0,0.1,0.3,0.2,0.7c0.2,0.6,0.2,0.8,0.2,0.8
		c0,0-0.9-0.3-1.2-0.4L3.5,9.6l0.4,0.5c0.2,0.3,0.4,0.5,0.4,0.5c0,0,0.1,0,0.1,0c0.1-0.1,0.1,0-0.1,0.2C4.1,10.9,4,11,4.1,10.8
		 M18.7,9.5c-0.2-0.1-0.5-0.4-0.6-0.6C18,8.8,18,8.7,18,8.5c0-0.3,0.1-0.5,0.3-0.7c0.2-0.2,0.4-0.3,0.7-0.3c0.3,0,0.5,0.1,0.8,0.4
		l0.2,0.2l-0.1,0.2c-0.2,0.2-0.3,0.2-0.2,0.1c0.1-0.1,0.1-0.1,0-0.2c0-0.1-0.3-0.4-0.5-0.5c-0.3-0.1-0.6-0.1-0.8,0.2
		c-0.2,0.2-0.3,0.4-0.3,0.7c0,0.2,0,0.2,0.1,0.4c0.1,0.2,0.4,0.5,0.6,0.5c0,0,0.1,0,0.2-0.1c0.1-0.1,0.1-0.1,0.1,0
		c0,0-0.1,0.1-0.1,0.2C19,9.6,18.9,9.6,18.7,9.5 M6.1,9.1c0-0.1,0-0.1,0-0.2c0-0.1-0.2-0.4-0.4-0.7C5.2,7.6,5.2,7.6,5.1,7.6
		c0,0,0,0,0,0c0,0,0.7-0.5,0.8-0.6C5.9,7,6,7.3,6,7.3c0,0-0.1,0-0.1,0c0,0-0.1,0-0.1,0c-0.1,0-0.4,0.2-0.4,0.2c0,0,0.3,0.5,0.4,0.6
		c0,0,0.3-0.2,0.4-0.3c0,0,0-0.1,0.1-0.1c0,0,0.1,0.2,0.2,0.3c0,0-0.1,0-0.1,0c0,0-0.1,0-0.1,0c-0.1,0-0.3,0.2-0.3,0.2
		c0,0,0.3,0.5,0.4,0.6c0,0,0.1,0,0.2,0c0.1,0,0.2-0.1,0.2-0.2c0.1-0.1,0.1-0.1,0.1-0.2c0-0.1,0-0.1,0-0.1c0,0,0.2,0.3,0.2,0.3
		c0,0-0.1,0.1-0.3,0.2C6.5,8.9,6.3,9,6.2,9C6.1,9.2,6,9.2,6.1,9.1 M17.2,8.4c0-0.1-0.3-0.9-0.5-1.5c-0.1-0.2-0.1-0.4-0.2-0.4
		c0,0.1-0.5,1.2-0.5,1.2c0,0,0,0.1,0.1,0.1c0,0,0.1,0,0.1,0.1s0,0,0,0c0,0-0.1-0.1-0.3-0.1c-0.1-0.1-0.4-0.1-0.5-0.2
		c-0.3-0.1-0.3-0.1-0.3-0.1c0,0,0-0.1,0-0.4l0-0.3l-0.1,0c-0.1,0-0.2,0-0.3-0.1l-0.2,0l-0.1,0.2c-0.2,0.3-0.2,0.4-0.1,0.4
		c0,0,0.1,0,0.1,0.1c0,0,0,0,0,0c0,0-0.1,0-0.2-0.1c-0.1,0-0.2,0-0.2-0.1c-0.1,0-0.1-0.1,0.1-0.1c0.1,0,0.1,0,0.7-0.9
		c0.3-0.4,0.5-0.7,0.5-0.7c0,0,0.1,0.3,0.1,0.8c0.1,0.9,0.1,1.1,0.2,1.1c0.1,0.1,0.3,0.1,0.4,0.1c0,0,0.2-0.4,0.4-0.8
		c0.2-0.4,0.4-0.8,0.4-0.8c0,0,0.2,0.4,0.4,1c0.2,0.5,0.3,1,0.3,1c0,0,0.5-1.2,0.5-1.2c0,0,0-0.1-0.1-0.1c-0.1,0-0.1-0.1,0-0.1
		c0.1,0,0.5,0.2,0.5,0.2c0,0,0,0-0.1,0c-0.1,0-0.1,0-0.5,0.8C17.4,8.1,17.2,8.5,17.2,8.4C17.2,8.5,17.2,8.5,17.2,8.4 M15,6.5
		c0-0.1,0-0.2,0-0.3l0-0.2l-0.2,0.3c-0.1,0.1-0.2,0.3-0.2,0.3c0,0,0.1,0.1,0.2,0.1C15,6.7,15,6.7,15,6.5 M7.3,8.3
		C7.3,8.3,7.3,8.3,7.3,8.3c0.1-0.1,0.1-0.2-0.2-0.9C6.7,6.6,6.8,6.6,6.6,6.7c-0.2,0-0.1,0,0.3-0.2c0.6-0.2,0.7-0.3,0.9-0.3
		c0.2,0,0.2,0,0.4,0.1c0.2,0.1,0.3,0.3,0.4,0.5c0.1,0.1,0.1,0.2,0.1,0.4c0,0.2,0,0.3-0.1,0.4C8.5,7.8,8.3,8,7.8,8.2
		c-0.1,0-0.3,0.1-0.3,0.1C7.4,8.3,7.3,8.3,7.3,8.3 M8,8c0.3-0.1,0.5-0.4,0.5-0.7c0-0.2-0.1-0.5-0.3-0.7C8,6.4,7.8,6.4,7.6,6.4
		C7.4,6.4,7,6.5,7,6.6c0,0,0.4,1,0.5,1.3C7.6,8,7.6,8,7.7,8C7.8,8,7.9,8,8,8 M9.3,7.5C9.3,7.5,9.3,7.5,9.3,7.5
		c0.1-0.1,0.1-0.1,0.1-0.2c0-0.1-0.3-1.4-0.4-1.5c0,0-0.1-0.1-0.1-0.1c-0.1,0-0.1,0,0.2-0.1c0.3-0.1,0.4-0.1,0.3,0
		c0,0-0.1,0.1-0.1,0.1c0,0.1,0.3,1.4,0.4,1.5c0,0.1,0,0.1,0.1,0.1c0.1,0,0.1,0,0.1,0C9.9,7.4,9.5,7.5,9.3,7.5
		C9.3,7.6,9.3,7.6,9.3,7.5 M10.7,7.2c-0.2-0.1-0.4-0.3-0.5-0.5c-0.1-0.1-0.1-0.2-0.1-0.4c0-0.2,0-0.3,0.1-0.4
		c0.1-0.2,0.3-0.4,0.5-0.5c0.2-0.1,0.6-0.1,0.8,0C11.8,5.5,12,5.7,12,6.1c0.1,0.5-0.1,1-0.6,1.1C11.3,7.3,10.9,7.3,10.7,7.2
		 M11.3,7.1c0.2,0,0.3-0.2,0.4-0.4c0.1-0.1,0.1-0.2,0.1-0.4c0-0.5-0.3-0.9-0.7-0.9c-0.3,0-0.5,0.1-0.6,0.4c-0.1,0.1-0.1,0.2-0.1,0.4
		c0,0.2,0,0.3,0.1,0.4c0.1,0.3,0.3,0.4,0.5,0.5C11.1,7.2,11.1,7.2,11.3,7.1 M12.8,7.2c-0.1,0-0.2,0-0.3,0c-0.2,0-0.2,0-0.1-0.1
		c0.1,0,0.1,0,0.1-0.1c0-0.1,0.1-1.5,0.1-1.6c0,0-0.1-0.1-0.1-0.1c0,0-0.1,0-0.1,0c0-0.1,0.7,0,0.8,0.1c0.1,0.1,0.2,0.2,0.2,0.3
		c0,0.1,0,0.2-0.1,0.3c-0.1,0.1-0.1,0.1-0.1,0.1c0.1,0,0.2,0.2,0.3,0.3c0,0.1,0,0.2,0,0.2C13.7,7.1,13.4,7.3,12.8,7.2 M13.4,7
		c0.1-0.1,0.1-0.1,0.1-0.3c0-0.1,0-0.2,0-0.2c-0.1-0.2-0.3-0.3-0.4-0.3c-0.1,0-0.1,0-0.1,0.1c0,0.2-0.1,0.6,0,0.7
		c0,0.1,0.1,0.1,0.3,0.1C13.2,7.1,13.3,7.1,13.4,7 M13.2,6.1c0.2-0.1,0.2-0.4,0-0.6c-0.1-0.1-0.2-0.1-0.3-0.1c0,0,0,0.1-0.1,0.3
		c0,0.1,0,0.3,0,0.3c0,0.1,0,0.1,0.1,0.1C13.1,6.2,13.2,6.2,13.2,6.1"/>
</g>
</svg>
