<?xml version="1.0" encoding="utf-8"?>
<!-- Generator: Adobe Illustrator 26.0.1, SVG Export Plug-In . SVG Version: 6.00 Build 0)  -->
<svg version="1.1" id="Layer_1" xmlns="http://www.w3.org/2000/svg" xmlns:xlink="http://www.w3.org/1999/xlink" x="0px" y="0px"
	 viewBox="0 0 95 35" style="enable-background:new 0 0 95 35;" xml:space="preserve">
<style type="text/css">
	.st0{fill:#343741;}
</style>
<g>
	<path id="path8053" class="st0" d="M79.9,10.6c0-2-0.1-3.8-0.2-5.6c0.5,0.1,1.1,0.1,1.6,0.1c0.5,0,1.1,0,1.6-0.1v1.6
		c1-1.3,2.1-1.9,3.6-1.9c1.2,0,2.1,0.4,2.8,1.1C90,6.8,90,7.9,90,9.4c0,0.6,0,1.6,0,2.9c0,1.3,0,2.6,0.2,3.9
		c-0.6-0.1-1.2-0.1-1.8-0.1c-0.6,0-1.1,0-1.7,0.1c0.1-1.3,0.2-3.1,0.2-5.4c0-2.7-0.2-4-1.9-4c-1.5,0-2,1.3-2,3.8
		c0,1.3,0,3.2,0.2,5.6c-0.6-0.1-1.1-0.1-1.7-0.1c-0.6,0-1.1,0-1.7,0.1C79.9,14.3,79.9,12.4,79.9,10.6 M71.4,12.9c0,1.3,0.5,2,1.5,2
		c1,0,1.6-0.7,1.6-2.2v-2.7C72.3,10.5,71.4,11.3,71.4,12.9L71.4,12.9z M71.4,16.5c-2,0-3.2-1.2-3.2-3.2c0-1.5,0.8-2.4,2.5-2.9
		c1.4-0.5,2.8-0.7,3.7-1.4c0-0.1,0-0.3,0-0.4c0-1.4-0.9-2.3-2.2-2.3c-1.1,0-1.9,0.6-2.6,1.8c-0.1-0.4-0.3-1-0.5-1.5
		c1.4-1.2,2.7-1.8,4.2-1.8c2.8,0,4.3,1.3,4.3,3.7c0,0,0,0.1,0,0.1l-0.1,4c0,0.2,0,0.3,0,0.4c0,1.6,0.2,2.2,1.5,2.2c0,0,0,0,0.1,0
		v0.6c-0.8,0.3-1.7,0.5-2.5,0.5c-1.1,0-1.8-0.6-2.1-1.7C73.9,15.8,72.8,16.5,71.4,16.5 M63.6,10.6c0-2-0.1-3.8-0.2-5.6
		c0.6,0.1,1.2,0.1,1.8,0.1c0.6,0,1.2,0,1.8-0.1c-0.1,1.7-0.2,3.6-0.2,5.6c0,1.8,0.1,3.6,0.2,5.5c-0.6-0.1-1.1-0.1-1.8-0.1
		c-0.6,0-1.2,0-1.8,0.1C63.5,14.3,63.6,12.4,63.6,10.6z M65.1,0c1,0,1.8,0.8,1.8,1.8c0,1-0.8,1.7-1.8,1.7c-1,0-1.8-0.8-1.8-1.7
		C63.4,0.8,64.1,0,65.1,0 M44.6,10.6c0-1.2,0-3.1-0.1-5.5c0.6,0.1,1.1,0.1,1.6,0.1c0.6,0,1.1,0,1.6-0.1v1.6c0.9-1.1,1.9-1.8,3.4-1.8
		c1.6,0,2.7,0.7,3.3,2.2c0.9-1.5,2.1-2.2,3.7-2.2c1.1,0,2.1,0.4,2.7,1.1c0.8,1,0.9,2.4,0.9,4.6c0,0.5,0,1,0,1.4c0,1.4,0,2.9,0.1,4.2
		c-0.6-0.1-1.2-0.1-1.8-0.1s-1.1,0-1.7,0.1c0.1-2,0.2-3.7,0.2-5.2c0-2.8-0.2-4.2-1.9-4.2c-1.5,0-1.9,1.2-1.9,3.6v3.7
		c0,0.6,0,1.3,0.1,2.1c-0.6-0.1-1.2-0.1-1.8-0.1c-0.6,0-1.1,0-1.7,0.1c0.1-2,0.2-3.6,0.2-4.8c0-3.1-0.1-4.6-1.9-4.6
		c-1.5,0-1.9,1.3-1.9,3.6v3.7c0,0.6,0,1.3,0.1,2.1c-0.5-0.1-1.1-0.1-1.7-0.1c-0.6,0-1.1,0-1.7,0.1C44.5,13.7,44.6,11.8,44.6,10.6
		 M36,13c0.5,1.5,1.6,2.4,3,2.4c1.1,0,1.8-0.6,1.8-1.6c0-1-1-1.3-2.7-2.1c-1.9-0.8-2.8-1.6-2.8-3.2c0-2.2,1.6-3.8,4.3-3.8
		c1.2,0,2.3,0.3,3.4,1c-0.3,0.7-0.5,1.4-0.7,2.2h-0.2c-0.7-1.4-1.6-2.1-2.8-2.1c-1,0-1.7,0.6-1.7,1.4c0,0.9,0.7,1.2,2,1.7
		c2.5,1,3.8,1.5,3.8,3.5c0,2.3-1.8,3.9-4.4,3.9c-1.4,0-2.5-0.3-3.5-0.9c0.1-0.5,0.2-1.3,0.3-2.6L36,13 M28.7,16.1L24,5.1
		c0.6,0.1,1.2,0.1,1.8,0.1c0.6,0,1.2,0,1.8-0.1c0.8,2.3,1.7,4.7,2.8,7.2l2.7-7.2c0.3,0.1,0.7,0.1,1,0.1c0.3,0,0.7,0,1-0.1
		c-2.8,6.1-5.3,11.9-7.5,17.4c-0.3,0-0.6-0.1-1-0.1c-0.4,0-0.7,0-1.1,0.1c0.5-0.8,1-1.7,1.5-2.8L28.7,16.1 M16.6,10.6
		c0-2.2,0-4-0.2-5.5c0.5,0.1,1.1,0.1,1.6,0.1c0.5,0,1.1,0,1.6-0.1c-0.1,1.2-0.1,2.2-0.1,3h0.1c0.6-2.1,1.8-3.2,3.6-3.2
		c0,0,0.1,0,0.1,0c-0.1,0.6-0.1,1.1-0.1,1.7c0,0.6,0,1.2,0.1,1.7c-0.6-0.2-1.1-0.3-1.5-0.3c-1.6,0-2.2,1.1-2.2,3.3
		c0,2,0.1,3.7,0.2,5c-0.6-0.1-1.1-0.1-1.7-0.1c-0.6,0-1.1,0-1.7,0.1C16.6,14.5,16.6,12.7,16.6,10.6 M11.9,4.6c0-2-0.9-3-2.6-3
		c-0.2,0-0.5,0-0.7,0C8.4,2.5,8.4,3.4,8.4,4.2v3.8C10.9,8.1,11.9,7.1,11.9,4.6L11.9,4.6z M5,8.3C5,5.4,5,2.7,4.8,0.3
		c0.6,0.1,1.2,0.1,1.6,0.1c1.1,0,2.4-0.1,3.9-0.1c3.6,0,5.3,1.3,5.3,4.2c0,3.3-2.1,4.8-6.4,4.8c-0.3,0-0.5,0-0.8,0v3.4
		c0,0.4,0.1,1.6,0.3,3.5c-0.7-0.1-1.3-0.1-2-0.1c-0.7,0-1.3,0-1.9,0.1C5,13.7,5,11.1,5,8.3"/>
	<path id="path8073" class="st0" d="M86,22.2c-1.5,0-2.5,1.3-2.5,3.6c0,2.4,1,3.7,2.5,3.7c1.5,0,2.4-1.3,2.4-3.6
		C88.4,23.4,87.4,22.2,86,22.2z M82,29.9c0-4.2,0-7-0.1-8.6c0.3,0.1,0.6,0.1,0.9,0.1c0.3,0,0.6,0,0.9-0.1c-0.1,0.5-0.1,1.1-0.1,1.6
		c0.7-1.3,1.6-1.8,3-1.8c2.3,0,3.7,1.7,3.7,4.6c0,2.8-1.5,4.5-3.7,4.5c-1.4,0-2.3-0.5-2.9-1.5v2.6c0,1.3,0,2.5,0.1,3.6
		c-0.3-0.1-0.6-0.1-0.9-0.1c-0.3,0-0.6,0-0.9,0.1C82,33.2,82,31.5,82,29.9 M80.4,26.6c0,1.2,0,2.4,0.1,3.5C80.3,30,80,30,79.7,30
		c-0.3,0-0.6,0-0.9,0.1c0-0.5,0.1-1,0.1-1.6c-0.8,1.2-1.7,1.8-3,1.8c-2,0-2.9-1.1-2.9-3.3v-1.6c0-0.3,0-0.6,0-0.9c0-0.9,0-1.9-0.1-3
		c0.3,0.1,0.6,0.1,0.9,0.1c0.3,0,0.6,0,0.9-0.1c-0.1,2.7-0.2,4.5-0.2,5.4c0,1.6,0.6,2.4,2,2.4c1.7,0,2.3-1.2,2.3-3.6
		c0-1.4,0-2.8-0.1-4.2c0.3,0.1,0.6,0.1,0.9,0.1c0.3,0,0.6,0,0.9-0.1C80.4,22.5,80.4,24.2,80.4,26.6 M67.4,21.8
		c-1.6,0-2.6,1.4-2.6,3.9c0,2.5,1,3.9,2.6,3.9c1.6,0,2.6-1.4,2.6-3.9C70,23.2,69,21.8,67.4,21.8z M67.4,30.3c-2.8,0-4.5-1.7-4.5-4.6
		c0-2.8,1.8-4.6,4.5-4.6c2.8,0,4.5,1.7,4.5,4.6C71.9,28.5,70.1,30.3,67.4,30.3 M57.6,24.3c0-0.9,0-1.9-0.1-2.9
		c0.3,0.1,0.6,0.1,1,0.1c0.3,0,0.6,0,1-0.1c-0.1,0.6-0.1,1.1-0.1,1.6c0,0.1,0,0.1,0,0.2c0.7-1.4,1.6-2,2.9-2c0.1,0,0.3,0,0.4,0
		c0,0.3-0.1,0.6-0.1,0.9c0,0.3,0,0.6,0.1,0.9c-0.5-0.1-0.9-0.2-1.2-0.2c-0.6,0-1.1,0.2-1.4,0.6c-0.6,0.7-0.7,1.4-0.7,2.2
		c0,0.1,0,0.2,0,0.4v1.5c0,0.7,0,1.6,0.1,2.6C59,30,58.7,30,58.4,30c-0.3,0-0.6,0-0.9,0.1C57.6,29.1,57.6,27.2,57.6,24.3 M51.2,30.3
		c-4.4,0-6.9-2.4-6.9-6.5c0-3.9,2.7-6.4,7.1-6.4c1.8,0,3.4,0.4,4.7,1.1c-0.3,0.5-0.5,1.1-0.5,1.7h-0.3c-0.9-1.3-2.2-2.1-4-2.1
		c-2.9,0-4.9,2.2-4.9,5.6c0,3.6,1.9,5.7,5,5.7c1,0,1.9-0.2,2.9-0.7c0-0.6,0.1-1.2,0.1-1.8c0-0.9,0-1.7-0.1-2.6
		c0.3,0.1,0.6,0.1,1,0.1c0.4,0,0.7,0,1.1-0.1c-0.1,0.9-0.1,1.8-0.1,2.6c0,0.9,0,1.7,0.1,2.5C54.4,30.1,52.7,30.3,51.2,30.3"/>
</g>
</svg>
