<?xml version="1.0" encoding="utf-8"?>
<!-- Generator: Adobe Illustrator 26.0.1, SVG Export Plug-In . SVG Version: 6.00 Build 0)  -->
<svg version="1.1" id="Layer_1" xmlns="http://www.w3.org/2000/svg" xmlns:xlink="http://www.w3.org/1999/xlink" x="0px" y="0px"
	 viewBox="0 0 95 35" style="enable-background:new 0 0 95 35;" xml:space="preserve">
<style type="text/css">
	.st0{fill-rule:evenodd;clip-rule:evenodd;fill:#CCCCCC;}
</style>
<g id="g10" transform="matrix(0.28623924,0,0,-0.28573313,-35.053431,71.300443)">
	<g id="g12" transform="scale(0.1)">
		<path id="path16" class="st0" d="M2602.9,1800c-0.6-37.6,9.3-70,50.3-70c30.6,0,49.7,14.5,53.8,41.7h101.8
			c-3.5-37.6-27.2-64.8-55-81c-25.5-16.2-57.8-22.6-92-22.6c-116.2,0-162.5,49.7-162.5,163.7c0,92,68.8,144,156.2,144
			c118,0,155.6-67.7,155.6-175.8L2602.9,1800z M2707,1859c0,15.6-4.6,31.2-13.3,43.4c-8.7,12.1-21.4,19.7-38.2,18.5
			c-38.2-1.7-47.4-28.9-50.3-61.9H2707"/>
		<path id="path18" class="st0" d="M1224.6,1676.8v417.6h192c102.4,0,169.5-33,169.5-134.2c0-101.2-67.1-134.2-169.5-134.2h-76.3
			v-149.2H1224.6z M1399.9,1907c45.7,1.7,64.8,22.6,64.8,53.2c0,30.6-19.1,51.5-64.8,53.2h-59.6V1907H1399.9"/>
		<path id="path20" class="st0" d="M1927.8,1821.9c0-107-78.1-153.8-168.9-153.8c-90.8,0-168.9,46.9-168.9,153.8
			c0,107,78.1,153.9,168.9,153.9C1849.7,1975.8,1927.8,1928.9,1927.8,1821.9z M1758.9,1731.7c46.3,0,56.1,49.2,56.1,90.2
			c0,41.1-9.8,90.2-56.1,90.2c-46.3,0-56.1-49.2-56.1-90.2C1702.8,1780.9,1712.6,1731.7,1758.9,1731.7"/>
		<path id="path22" class="st0" d="M2119.2,1877.5c0,9.8-1.7,18.5-6.9,24.3c-5.8,6.4-15,10.4-30.1,10.4c-16.2,0-26-9.2-26-26
			c0-21.4,44.5-20.2,113.4-41.6c34.7-11,58.4-32.4,58.4-79.8c0-76.9-72.3-96.6-138.8-96.6c-71.1,0-140.5,14.4-140,103h104.1
			c-1.7-8.7,1.2-18.5,7.5-26c6.4-7.5,15.6-13.3,26-13.3c21.4,0,37,8.1,37,26.6c0,51.5-171.8,20.8-171.8,126.1
			c0,71.7,76.3,91.4,134.2,91.4c68.8,0,132.5-17.9,137.1-98.3L2119.2,1877.5"/>
		<path id="path24" class="st0" d="M2300.4,1967.1v44l109.9,41.6v-85.6h63.6v-69.4h-63.6v-115.1c0-7.5-4.6-45.1,20.8-45.1
			c14.4,0,29.5,0,42.2,1.7v-65.3c-24.9-4.6-42.8-5.8-59-5.8c-74.6,0-119.7,10.4-113.9,99.5v130.1h-56.7v69.4H2300.4"/>
		<path id="path26" class="st0" d="M2858.5,1970h55.1v-291.3h-55.1V1970z M2853.3,2097.7h65.6v-59.8h-65.6V2097.7"/>
		<path id="path28" class="st0" d="M3002.1,1970v62.1l55.1,17.4V1970l67.3,1.7v-41.2l-67.3,0.6v-188c0-20.9,16.3-30.7,36-30.7
			c8.7,0,20.3,1.1,29,3.5v-42.4c-12.8-0.6-25-3.5-37.7-3.5c-13.3,0-23.8,0.6-37.1,2.9c-8.7,1.7-23.2,6.4-32.5,19.2
			c-9.9,13.9-12.7,15.1-12.7,54v185.1l-49.9-0.6v41.2L3002.1,1970"/>
		<path id="path30" class="st0" d="M3340.9,1858.6c0,50.5-2.9,80.1-61.5,80.1c-27.8,0-54-16.3-54.5-46.4h-58
			c2.9,63.8,52.8,86.5,110.2,86.5c59.8,0,119-18,119-99.2v-139.3c0-12.8,0.6-37.1,2.3-61.5h-37.1c-5.2,0-15.1-2.9-15.7,4.1
			c-1.2,13.3-2.3,26.1-2.9,39.5h-1.2c-18-36.6-50.5-52.3-90.5-52.3c-50.5,0-101.5,26.1-101.5,83c0,81.8,72.6,105.6,141.6,105.6
			H3340.9z M3285.8,1820.3c-33.7-1.7-78.4-13.9-78.4-56.3c0-36,24.9-54,57.4-54c65,0,77.2,56.3,76,110.2H3285.8"/>
		<path id="path32" class="st0" d="M3450.8,2097.7h55.1v-418.9h-55.1V2097.7"/>
		<path id="path34" class="st0" d="M3574.5,1970h55.1v-291.3h-55.1V1970z M3569.2,2097.7h65.6v-59.8h-65.6V2097.7"/>
		<path id="path36" class="st0" d="M3870.8,1858.6c0,50.5-2.9,80.1-61.5,80.1c-27.9,0-54-16.3-54.5-46.4h-58.1
			c2.9,63.8,52.8,86.5,110.2,86.5c59.8,0,119-18,119-99.2v-139.3c0-12.8,0.6-37.1,2.3-61.5h-37.1c-5.2,0-15.1-2.9-15.7,4.1
			c-1.2,13.3-2.3,26.1-2.9,39.5h-1.2c-18-36.6-50.5-52.3-90.5-52.3c-50.5,0-101.5,26.1-101.5,83c0,81.8,72.5,105.6,141.6,105.6
			H3870.8z M3815.7,1820.3c-33.7-1.7-78.3-13.9-78.3-56.3c0-36,24.9-54,57.4-54c65,0,77.2,56.3,76,110.2H3815.7"/>
		<path id="path38" class="st0" d="M4036.9,1927.1h1.2c18.6,36.6,59.2,51.7,88.2,51.7c20.3,0,110.2-5.2,110.2-98.6v-201.3h-55.1
			v183.3c0,48.2-20.3,74.3-66.7,74.3c0,0-30.2,1.7-53.4-21.5c-8.1-8.1-23.2-20.9-23.2-77.7v-158.4H3983V1970h54L4036.9,1927.1"/>
		<path id="path40" class="st0" d="M4338.1,1814c-4.1-51.1,16.8-103.8,73.1-103.8c42.9,0,64.4,16.8,70.8,59.2h58
			c-8.7-66.1-59.8-99.2-129.4-99.2c-93.4,0-130.5,66.1-130.5,152c0,85.3,42.9,156.7,135.2,156.7c87-1.8,128.2-56.9,128.2-137.5V1814
			L4338.1,1814z M4485.5,1852.2c1.2,48.8-20.9,86.5-74.3,86.5c-45.8,0-73.1-38.9-73.1-86.5H4485.5"/>
	</g>
</g>
</svg>
