<?xml version="1.0" encoding="utf-8"?>
<!-- Generator: Adobe Illustrator 26.0.1, SVG Export Plug-In . SVG Version: 6.00 Build 0)  -->
<svg version="1.1" id="Layer_1" xmlns="http://www.w3.org/2000/svg" xmlns:xlink="http://www.w3.org/1999/xlink" x="0px" y="0px"
	 viewBox="0 0 95 35" style="enable-background:new 0 0 95 35;" xml:space="preserve">
<style type="text/css">
	.st0{fill:#CCCCCC;}
</style>
<g>
	<path class="st0" d="M60.8,28.9c1.6-1.9,2.8-4.1,3.5-6.5h-5.9L60.8,28.9z"/>
	<path class="st0" d="M52,22.4l2.9,11c0,0,0,0,0,0l0,0c1.7-0.8,3.3-1.9,4.7-3.2l-2.8-7.7H52z"/>
	<path class="st0" d="M46.5,22.4l-3.3,12.1c0,0,0,0,0,0l0,0c3.4,0.9,7,0.7,10.4-0.5l-3.1-11.6H46.5z"/>
	<path class="st0" d="M40.1,22.4l-3.3,9c0,0,0,0,0,0l0,0c1.5,1.1,3.1,2,4.9,2.7l3.1-11.7H40.1z"/>
	<path class="st0" d="M30.7,22.4c0.9,3,2.6,5.8,4.9,7.9l2.9-7.9H30.7z"/>
	<path class="st0" d="M48.6,15.4c-0.2,0-0.3,0-0.5,0c-0.2,0-0.3,0.1-0.5,0.1c-0.1,0.1-0.2,0.2-0.3,0.3c-0.1,0.1-0.1,0.3-0.1,0.5
		c0,0.4,0.1,0.6,0.3,0.8c0.3,0.2,0.6,0.2,0.9,0.2v0c0.4,0,0.7,0,1.1-0.1v-1.7c-0.1,0-0.2-0.1-0.4-0.1C48.9,15.4,48.7,15.4,48.6,15.4
		z"/>
	<path class="st0" d="M64.7,14C62.7,4.6,53.5-1.6,44,0.3C34.6,2.3,28.4,11.5,30.3,21h0c0,0,0,0,0,0h34.3c0,0,0,0,0,0h0
		C65.1,18.7,65.1,16.3,64.7,14z M37.1,18c-0.5,0.3-1.1,0.5-2,0.5c-0.5,0-0.9,0-1.4-0.1c-0.3-0.1-0.5-0.1-0.7-0.2l0.3-1.3
		c0.3,0.1,0.5,0.2,0.8,0.3c0.4,0.1,0.7,0.1,1.1,0.1l0,0c0.4,0,0.7,0,0.9-0.1c0.2-0.1,0.3-0.3,0.3-0.5c0-0.2-0.1-0.4-0.3-0.5
		c-0.3-0.2-0.6-0.4-1-0.5c-0.3-0.1-0.5-0.2-0.8-0.3c-0.2-0.1-0.4-0.2-0.6-0.4c-0.2-0.2-0.3-0.3-0.4-0.5c-0.1-0.2-0.2-0.5-0.1-0.8
		c0-0.6,0.2-1.1,0.7-1.4c0.4-0.3,1.1-0.5,1.8-0.5c0.4,0,0.7,0,1.1,0.1c0.3,0,0.5,0.1,0.8,0.2l-0.3,1.2c-0.2-0.1-0.4-0.2-0.6-0.2
		c-0.3-0.1-0.6-0.1-0.9-0.1c-0.3,0-0.5,0-0.8,0.2c-0.2,0.1-0.3,0.3-0.3,0.5c0,0.1,0,0.2,0.1,0.3c0,0.1,0.1,0.2,0.2,0.2
		c0.1,0.1,0.2,0.2,0.4,0.2c0.2,0.1,0.4,0.2,0.6,0.2c0.3,0.1,0.6,0.2,0.9,0.4c0.2,0.1,0.4,0.3,0.6,0.4c0.2,0.2,0.3,0.4,0.4,0.6
		c0.1,0.2,0.1,0.5,0.1,0.8C37.8,17.2,37.6,17.7,37.1,18z M44.5,18.3H43v-3.5c0-0.3,0-0.6-0.1-0.9c0-0.2-0.1-0.4-0.2-0.6
		c-0.1-0.2-0.3-0.3-0.4-0.3c-0.2-0.1-0.4-0.1-0.7-0.1c-0.2,0-0.4,0-0.6,0c-0.2,0-0.4,0-0.5,0.1v5.3H39V12c0.4-0.1,0.8-0.2,1.1-0.2
		c0.5-0.1,1-0.1,1.6-0.1c0.5,0,0.9,0.1,1.4,0.2c0.3,0.1,0.6,0.3,0.9,0.6c0.2,0.3,0.4,0.6,0.5,1c0.1,0.4,0.1,0.8,0.1,1.2V18.3z
		 M50.9,18.2c-0.2,0-0.6,0.1-1.1,0.2c-0.5,0.1-1.1,0.1-1.6,0.1c-0.4,0-0.7,0-1.1-0.1c-0.3-0.1-0.6-0.2-0.8-0.4
		c-0.2-0.2-0.4-0.4-0.5-0.7c-0.1-0.3-0.2-0.7-0.2-1c0-0.3,0.1-0.7,0.2-1c0.1-0.3,0.4-0.5,0.6-0.6c0.3-0.2,0.6-0.3,0.9-0.4
		c0.3-0.1,0.7-0.1,1-0.1c0.2,0,0.4,0,0.5,0c0.2,0,0.4,0.1,0.6,0.1v-0.2c0-0.2,0-0.3-0.1-0.5c0-0.2-0.1-0.3-0.2-0.4
		c-0.1-0.1-0.3-0.2-0.4-0.3c-0.2-0.1-0.4-0.1-0.6-0.1c-0.3,0-0.6,0-1,0.1c-0.2,0-0.5,0.1-0.7,0.2l-0.2-1.2c0.3-0.1,0.6-0.2,0.8-0.2
		c0.4-0.1,0.8-0.1,1.2-0.1v0c0.4,0,0.9,0.1,1.3,0.2c0.3,0.1,0.6,0.3,0.8,0.5c0.2,0.2,0.4,0.5,0.4,0.8c0.1,0.3,0.1,0.7,0.1,1.1V18.2z
		 M61.6,18.3H60v-3.5c0-0.7-0.1-1.2-0.2-1.5c-0.2-0.3-0.5-0.5-1-0.5c-0.2,0-0.5,0-0.7,0.1c-0.2,0.1-0.3,0.1-0.5,0.2
		c0.1,0.2,0.1,0.4,0.1,0.7c0,0.3,0,0.5,0,0.8v3.6h-1.5v-3.5c0-0.7-0.1-1.2-0.3-1.5c-0.2-0.3-0.5-0.5-1-0.5c-0.2,0-0.4,0-0.6,0
		c-0.2,0-0.4,0-0.5,0.1v5.3h-1.5V12c0.4-0.1,0.8-0.2,1.2-0.2c0.5-0.1,1-0.1,1.5-0.1c0.4,0,0.8,0,1.1,0.2c0.3,0.1,0.5,0.3,0.7,0.5
		c0.1-0.1,0.2-0.2,0.4-0.2c0.2-0.1,0.3-0.2,0.5-0.2c0.2-0.1,0.4-0.1,0.6-0.2c0.2,0,0.4-0.1,0.6-0.1c0.4,0,0.9,0.1,1.3,0.2
		c0.3,0.1,0.6,0.3,0.8,0.6c0.2,0.3,0.3,0.6,0.4,1c0.1,0.4,0.1,0.8,0.1,1.2V18.3z"/>
</g>
</svg>
