<?xml version="1.0" encoding="utf-8"?>
<!-- Generator: Adobe Illustrator 26.0.1, SVG Export Plug-In . SVG Version: 6.00 Build 0)  -->
<svg version="1.1" id="Layer_1" xmlns="http://www.w3.org/2000/svg" xmlns:xlink="http://www.w3.org/1999/xlink" x="0px" y="0px"
	 viewBox="0 0 95 35" style="enable-background:new 0 0 95 35;" xml:space="preserve">
<style type="text/css">
	.st0{fill:#CCCCCC;}
</style>
<g>
	<path class="st0" d="M65,14.7c0.1,0,0.2-0.1,0.1-0.2c0,0,0,0,0,0c0-0.1-0.1-0.2-0.2-0.1c-0.1,0-0.2,0.1-0.1,0.2l0,0
		C64.9,14.7,64.9,14.7,65,14.7 M55.1,9.6c0,0.3,0.2,0.5,0.5,0.5S56,9.9,56,9.6c0-0.3-0.2-0.5-0.5-0.5S55.1,9.4,55.1,9.6
		C55.1,9.6,55.1,9.6,55.1,9.6L55.1,9.6 M58,10.6c0,0.3,0.2,0.5,0.5,0.5c0.3,0,0.5-0.2,0.5-0.5s-0.2-0.5-0.5-0.5l0,0l0,0
		C58.2,10.2,58,10.4,58,10.6C58,10.6,58,10.6,58,10.6L58,10.6 M47.1,22.5c0,0.3,0.2,0.5,0.5,0.5c0.3,0,0.5-0.2,0.5-0.5
		c0-0.3-0.2-0.5-0.5-0.5l0,0C47.3,22.1,47.1,22.3,47.1,22.5C47.1,22.5,47.1,22.5,47.1,22.5L47.1,22.5 M49.3,24.4
		c0,0.3,0.2,0.5,0.5,0.5c0.3,0,0.5-0.2,0.5-0.5S50,24,49.8,24l0,0l0,0C49.5,24,49.3,24.2,49.3,24.4 M52.2,25.3
		c0,0.3,0.2,0.5,0.5,0.5c0.3,0,0.5-0.2,0.5-0.5s-0.2-0.5-0.5-0.5l0,0l0,0C52.4,24.9,52.2,25.1,52.2,25.3
		C52.2,25.3,52.2,25.3,52.2,25.3 M55.1,25.3c0,0.3,0.2,0.5,0.5,0.4c0.3,0,0.5-0.2,0.4-0.5c0-0.2-0.2-0.4-0.5-0.4
		C55.4,24.8,55.1,25,55.1,25.3C55.1,25.3,55.1,25.3,55.1,25.3L55.1,25.3 M58,24.4c0,0.3,0.2,0.5,0.5,0.5c0.3,0,0.5-0.2,0.5-0.5
		c0-0.2-0.2-0.4-0.5-0.5l0,0C58.2,23.9,58,24.1,58,24.4C58,24.4,58,24.4,58,24.4 M60.2,22.6c0,0.3,0.2,0.5,0.5,0.5
		c0.3,0,0.5-0.2,0.5-0.5c0-0.3-0.2-0.5-0.5-0.5l0,0l0,0C60.4,22.1,60.2,22.3,60.2,22.6C60.2,22.6,60.2,22.6,60.2,22.6 M60.2,12.4
		c0,0.3,0.2,0.5,0.5,0.5s0.5-0.2,0.5-0.5c0-0.3-0.2-0.5-0.5-0.5C60.4,12,60.2,12.2,60.2,12.4C60.2,12.4,60.2,12.4,60.2,12.4
		L60.2,12.4 M57,11.2c0-0.3-0.3-0.6-0.6-0.6c-0.3,0-0.6,0.3-0.6,0.6c0,0.3,0.3,0.6,0.6,0.6C56.7,11.8,57,11.5,57,11.2
		C57,11.2,57,11.2,57,11.2L57,11.2 M59,12.4c0-0.3-0.3-0.6-0.6-0.6c-0.3,0-0.6,0.3-0.6,0.6c0,0.3,0.3,0.6,0.6,0.6
		C58.7,13,59,12.8,59,12.4C59,12.4,59,12.4,59,12.4L59,12.4 M60.5,14.1c0-0.3-0.3-0.6-0.6-0.6c-0.3,0-0.6,0.3-0.6,0.6
		c0,0.3,0.3,0.6,0.6,0.6l0,0l0,0C60.2,14.7,60.5,14.5,60.5,14.1C60.5,14.2,60.5,14.1,60.5,14.1L60.5,14.1 M56.3,7.6
		c0-0.1-0.1-0.2-0.1-0.2c-0.1,0-0.2,0.1-0.2,0.1c0,0.1,0.1,0.2,0.1,0.2C56.2,7.8,56.3,7.7,56.3,7.6C56.3,7.6,56.3,7.6,56.3,7.6
		L56.3,7.6 M60.2,9c0-0.1-0.1-0.2-0.1-0.2c0,0,0,0,0,0l0,0c-0.1,0-0.2,0.1-0.2,0.2c0,0.1,0.1,0.1,0.1,0.2C60.1,9.2,60.2,9.1,60.2,9
		 M63.3,11.2c0-0.1-0.1-0.2-0.1-0.2c0,0,0,0,0,0l0,0c-0.1,0-0.2,0.1-0.2,0.1c0,0,0,0,0,0l0,0c0,0.1,0,0.2,0.1,0.2
		C63.2,11.4,63.2,11.3,63.3,11.2C63.3,11.2,63.3,11.2,63.3,11.2 M58,9.2c0-0.2-0.1-0.3-0.3-0.3c-0.2,0-0.3,0.1-0.3,0.3
		c0,0.2,0.1,0.3,0.3,0.3C57.8,9.5,57.9,9.4,58,9.2C58,9.2,58,9.2,58,9.2L58,9.2 M60.9,10.7c0-0.2-0.1-0.3-0.3-0.3c0,0,0,0,0,0l0,0
		c-0.2,0-0.3,0.1-0.3,0.2c0,0.2,0.1,0.3,0.2,0.3c0,0,0,0,0,0h0C60.8,11,60.9,10.8,60.9,10.7C60.9,10.7,60.9,10.7,60.9,10.7
		L60.9,10.7 M63,12.8c-0.2,0-0.3,0.1-0.3,0.3c0,0.2,0.1,0.3,0.3,0.3c0.2,0,0.3-0.1,0.3-0.3C63.2,12.9,63.1,12.8,63,12.8
		C63,12.8,63,12.8,63,12.8L63,12.8 M54.1,8.4c-0.2,0-0.3,0.1-0.3,0.3c0,0.2,0.1,0.3,0.3,0.3c0.2,0,0.3-0.1,0.3-0.3l0,0
		C54.4,8.5,54.3,8.4,54.1,8.4C54.1,8.4,54.1,8.4,54.1,8.4 M52.7,9.2c-0.3,0-0.5,0.2-0.5,0.5c0,0.3,0.2,0.5,0.5,0.5
		c0.3,0,0.5-0.2,0.5-0.5l0,0C53.1,9.4,52.9,9.2,52.7,9.2L52.7,9.2L52.7,9.2 M49.8,10.2c-0.3,0-0.5,0.2-0.5,0.5
		c0,0.3,0.2,0.5,0.5,0.5c0.3,0,0.5-0.2,0.5-0.5l0,0C50.2,10.4,50,10.2,49.8,10.2 M45.5,17.1c-0.3,0-0.5,0.2-0.5,0.5
		c0,0.3,0.2,0.5,0.5,0.5c0.3,0,0.5-0.2,0.5-0.5l0,0C46,17.3,45.8,17.1,45.5,17.1L45.5,17.1L45.5,17.1 M46.1,14.4
		c-0.3,0-0.5,0.2-0.5,0.5c0,0.3,0.2,0.5,0.5,0.5c0.3,0,0.5-0.2,0.5-0.5l0,0C46.5,14.6,46.4,14.4,46.1,14.4L46.1,14.4 M47.6,12
		c-0.3,0-0.5,0.2-0.5,0.5s0.2,0.5,0.5,0.5c0.3,0,0.5-0.2,0.5-0.5l0,0C48,12.2,47.8,12,47.6,12 M54.1,24.7c0.3,0,0.6-0.3,0.6-0.6
		c0-0.3-0.3-0.6-0.6-0.6c-0.3,0-0.6,0.3-0.6,0.6l0,0C53.5,24.5,53.8,24.7,54.1,24.7 M54.1,11.5c0.3,0,0.6-0.3,0.6-0.6
		c0-0.3-0.3-0.6-0.6-0.6c-0.3,0-0.6,0.3-0.6,0.6l0,0C53.5,11.2,53.8,11.5,54.1,11.5 M51.8,11.8c0.3,0,0.6-0.3,0.6-0.6
		c0-0.3-0.3-0.6-0.6-0.6c-0.3,0-0.6,0.3-0.6,0.6l0,0C51.2,11.5,51.5,11.8,51.8,11.8C51.8,11.8,51.8,11.8,51.8,11.8L51.8,11.8
		 M49.8,13c0.3,0,0.6-0.3,0.6-0.6c0-0.3-0.3-0.6-0.6-0.6c-0.3,0-0.6,0.3-0.6,0.6l0,0C49.2,12.7,49.5,13,49.8,13
		C49.8,13,49.8,13,49.8,13L49.8,13 M48.3,14.7c0.3,0,0.6-0.2,0.6-0.6c0-0.3-0.2-0.6-0.6-0.6c-0.3,0-0.6,0.2-0.6,0.6c0,0,0,0,0,0l0,0
		C47.7,14.5,48,14.7,48.3,14.7C48.3,14.7,48.3,14.7,48.3,14.7L48.3,14.7 M47.7,16.9c0.3,0,0.6-0.3,0.6-0.6c0-0.3-0.3-0.6-0.6-0.6
		c-0.3,0-0.6,0.3-0.6,0.6l0,0C47.1,16.6,47.3,16.9,47.7,16.9L47.7,16.9L47.7,16.9 M52.1,7.8c0.1,0,0.1-0.1,0.1-0.2
		c0-0.1-0.1-0.1-0.2-0.1c-0.1,0-0.1,0.1-0.1,0.2c0,0,0,0,0,0C51.9,7.7,52,7.8,52.1,7.8C52.1,7.8,52.1,7.8,52.1,7.8L52.1,7.8
		 M48.2,9.2c0.1,0,0.1-0.1,0.1-0.2c0,0,0,0,0,0l0,0c0-0.1-0.1-0.1-0.2-0.1C48.1,8.9,48,8.9,48,9c0,0,0,0,0,0l0,0
		C48,9.1,48.1,9.2,48.2,9.2 M65,21.4c0.1,0,0.2-0.1,0.2-0.2c0-0.1-0.1-0.2-0.2-0.2h0c-0.1,0-0.1,0.1-0.1,0.2c0,0,0,0,0,0l0,0
		C64.9,21.3,64.9,21.4,65,21.4 M63.2,24c0.1,0,0.1-0.1,0.1-0.2c0-0.1-0.1-0.1-0.2-0.1c-0.1,0-0.1,0.1-0.1,0.2
		C63,23.9,63.1,24,63.2,24C63.2,24,63.2,24,63.2,24 M60.1,26.2c0.1,0,0.1-0.1,0.1-0.2c0,0,0,0,0,0l0,0c0-0.1-0.1-0.2-0.2-0.2
		s-0.2,0.1-0.2,0.2c0,0,0,0,0,0c0,0,0,0,0,0C59.9,26.1,60,26.2,60.1,26.2C60,26.2,60,26.2,60.1,26.2L60.1,26.2 M56.2,27.6
		c0.1,0,0.2-0.1,0.1-0.2c0-0.1-0.1-0.2-0.2-0.1l0,0l0,0c-0.1,0-0.2,0.1-0.1,0.2C56,27.5,56.1,27.6,56.2,27.6 M52.1,27.6
		c0.1,0,0.2-0.1,0.1-0.2c0-0.1-0.1-0.2-0.2-0.1l0,0l0,0c-0.1,0-0.2,0.1-0.1,0.2C51.9,27.5,52,27.6,52.1,27.6L52.1,27.6 M48.2,26.1
		c0.1,0,0.1-0.1,0.1-0.2c0,0,0,0,0,0l0,0c0-0.1-0.1-0.1-0.2-0.1c-0.1,0-0.1,0.1-0.1,0.2c0,0,0,0,0,0l0,0
		C48,26.1,48.1,26.1,48.2,26.1 M45.1,23.9c0.1,0,0.2-0.1,0.1-0.2c0,0,0,0,0,0c0-0.1-0.1-0.2-0.2-0.1c-0.1,0-0.2,0.1-0.1,0.2l0,0l0,0
		C44.9,23.9,45,24,45.1,23.9 M43.2,21.4c0.1,0,0.2-0.1,0.2-0.2c0-0.1-0.1-0.2-0.2-0.2h0c-0.1,0-0.1,0.1-0.1,0.2
		C43,21.3,43.1,21.4,43.2,21.4 M45.1,11.4c0.1,0,0.2-0.1,0.1-0.2c0,0,0,0,0,0c0-0.1-0.1-0.2-0.2-0.1c-0.1,0-0.2,0.1-0.1,0.2l0,0l0,0
		C44.9,11.3,45,11.4,45.1,11.4 M50.5,9.4c0.2,0,0.3-0.2,0.3-0.3c0-0.2-0.2-0.3-0.3-0.3c-0.2,0-0.3,0.2-0.3,0.3
		C50.3,9.3,50.4,9.4,50.5,9.4L50.5,9.4 M47.6,10.9c0.2,0,0.3-0.1,0.3-0.3c0-0.2-0.1-0.3-0.3-0.3c-0.2,0-0.3,0.1-0.3,0.3
		C47.3,10.8,47.4,10.9,47.6,10.9L47.6,10.9 M44.9,13.1c0,0.2,0.1,0.3,0.3,0.3h0c0.2,0,0.3-0.1,0.3-0.3c0-0.2-0.1-0.3-0.3-0.3
		c0,0,0,0,0,0C45.1,12.8,44.9,12.9,44.9,13.1 M64.1,18.7c-0.2,0-0.3,0.2-0.3,0.3c0,0.2,0.2,0.3,0.3,0.3l0,0c0.2,0,0.3-0.2,0.3-0.3
		C64.4,18.8,64.3,18.7,64.1,18.7L64.1,18.7L64.1,18.7 M63,21.6c-0.2,0-0.3,0.2-0.3,0.3c0,0.2,0.2,0.3,0.3,0.3c0.2,0,0.3-0.2,0.3-0.3
		C63.3,21.7,63.1,21.6,63,21.6L63,21.6 M60.7,24.1c-0.2,0-0.3,0.1-0.3,0.3s0.1,0.3,0.3,0.3c0,0,0,0,0,0c0.2,0,0.3-0.1,0.3-0.3
		C61,24.2,60.9,24.1,60.7,24.1L60.7,24.1 M57.6,25.5c-0.2,0-0.3,0.1-0.3,0.3l0,0c0,0.2,0.1,0.3,0.3,0.3c0.2,0,0.3-0.1,0.3-0.3l0,0
		c0,0,0,0,0,0C57.9,25.6,57.8,25.5,57.6,25.5C57.6,25.5,57.6,25.5,57.6,25.5L57.6,25.5 M54.1,26c-0.2,0-0.3,0.1-0.3,0.3
		c0,0.2,0.1,0.3,0.3,0.3h0c0.2,0,0.3-0.2,0.3-0.3C54.3,26.1,54.2,26,54.1,26 M50.6,25.6c-0.2,0-0.3,0.2-0.3,0.3
		c0,0.2,0.2,0.3,0.3,0.3c0.2,0,0.3-0.2,0.3-0.3C50.9,25.7,50.8,25.6,50.6,25.6C50.6,25.6,50.6,25.6,50.6,25.6L50.6,25.6 M47.5,24.1
		c-0.2,0-0.3,0.1-0.3,0.3c0,0.2,0.1,0.3,0.3,0.3l0,0h0c0.2,0,0.3-0.2,0.3-0.3C47.8,24.2,47.7,24.1,47.5,24.1 M45.2,21.6
		c-0.2,0-0.3,0.2-0.3,0.3c0,0.2,0.2,0.3,0.3,0.3c0.2,0,0.3-0.2,0.3-0.3C45.5,21.7,45.4,21.6,45.2,21.6L45.2,21.6 M43.9,15.9
		c-0.2,0-0.3,0.2-0.3,0.3c0,0.2,0.2,0.3,0.3,0.3c0.2,0,0.3-0.2,0.3-0.3C44.2,16.1,44.1,15.9,43.9,15.9L43.9,15.9 M52.4,23.8
		c0-0.3-0.3-0.6-0.6-0.6c-0.3,0-0.6,0.3-0.6,0.6s0.3,0.6,0.6,0.6l0,0C52.1,24.3,52.4,24.1,52.4,23.8L52.4,23.8L52.4,23.8 M56.4,23.2
		c-0.3,0-0.6,0.3-0.6,0.6c0,0.3,0.3,0.6,0.6,0.6c0.3,0,0.6-0.3,0.6-0.6l0,0C57,23.4,56.7,23.2,56.4,23.2
		C56.4,23.2,56.4,23.2,56.4,23.2L56.4,23.2 M58.4,22c-0.3,0-0.6,0.2-0.6,0.6c0,0.3,0.2,0.6,0.6,0.6c0.3,0,0.6-0.2,0.6-0.6
		c0,0,0,0,0,0C59,22.3,58.7,22,58.4,22C58.4,22,58.4,22,58.4,22 M60.5,20.9c0-0.3-0.3-0.6-0.6-0.6c-0.3,0-0.6,0.3-0.6,0.6
		c0,0.3,0.3,0.6,0.6,0.6C60.2,21.4,60.5,21.2,60.5,20.9C60.5,20.9,60.5,20.9,60.5,20.9L60.5,20.9 M49.8,22c-0.3,0-0.6,0.3-0.6,0.6
		c0,0.3,0.3,0.6,0.6,0.6c0.3,0,0.6-0.3,0.6-0.6l0,0C50.4,22.3,50.2,22,49.8,22C49.8,22,49.8,22,49.8,22L49.8,22 M48.3,20.3
		c-0.3,0-0.6,0.3-0.6,0.6c0,0.3,0.3,0.6,0.6,0.6c0.3,0,0.6-0.3,0.6-0.6c0,0,0,0,0,0l0,0C48.9,20.5,48.6,20.3,48.3,20.3L48.3,20.3
		L48.3,20.3 M71.6,15.3h3.6v4.8h1.3v-4.8h3.3l0.3-0.8h-8.2L71.6,15.3z M42.4,14.4h-1.3v5.6h5.8l0.3-0.8h-4.8V14.4z M54.2,14.4
		l3.1,5.6h1.4l-3.1-5.6L54.2,14.4z M49.6,20h1.4l3-5.6h-1.4L49.6,20z M67.8,18.6l-5.3-4.2h-1.3V20h1.3v-4.2l5.3,4.2H69v-5.6h-1.3
		L67.8,18.6z M93.3,16.8h-3.9c-0.4,0-0.7-0.3-0.8-0.6c0,0,0,0,0,0c0,0,0,0,0-0.1v-0.2c0-0.4,0.3-0.7,0.7-0.7c0,0,0,0,0,0h5.3
		l0.3-0.8h-5.9c-1.1,0-1.6,0.7-1.6,1.4v0.4c0,0.7,0.6,1.5,1.7,1.5H93c0.4,0,0.7,0.3,0.8,0.6c0,0,0,0,0,0c0,0,0,0,0,0.1v0.2
		c0,0.4-0.3,0.7-0.7,0.7c0,0,0,0,0,0h-5.3l-0.3,0.8h5.9c1.1,0,1.6-0.7,1.6-1.4v-0.4C95,17.5,94.4,16.8,93.3,16.8 M5.9,16.8H2
		c-0.4,0-0.7-0.3-0.8-0.6c0,0,0,0,0,0c0,0,0,0,0-0.1v-0.2c0-0.4,0.3-0.7,0.7-0.7c0,0,0,0,0,0h5.3l0.3-0.8H1.6
		c-1.1,0-1.6,0.7-1.6,1.4v0.4c0,0.7,0.6,1.5,1.7,1.5h3.9c0.4,0,0.7,0.3,0.8,0.6c0,0,0,0,0,0c0,0,0,0,0,0.1v0.2
		c0,0.4-0.3,0.7-0.7,0.7c0,0,0,0,0,0H0.3L0,20.1h5.9c1.1,0,1.6-0.7,1.6-1.4v-0.4C7.5,17.5,7,16.8,5.9,16.8 M82.8,20H84v-5.6h-1.3V20
		z M10.3,15.3h3.6v4.8h1.3v-4.8h3.3l0.3-0.8h-8.2L10.3,15.3z M27.6,15.3l0.3-0.8h-6.4v5.6h6.1l0.3-0.8h-5.1v-1.6h3.6l0.3-0.8h-3.9
		v-1.6H27.6z M33,19.2h4.8l-0.3,0.8h-5.8v-5.6H33V19.2z"/>
</g>
</svg>
