<?xml version="1.0" encoding="utf-8"?>
<!-- Generator: Adobe Illustrator 26.0.1, SVG Export Plug-In . SVG Version: 6.00 Build 0)  -->
<svg version="1.1" id="Layer_1" xmlns="http://www.w3.org/2000/svg" xmlns:xlink="http://www.w3.org/1999/xlink" x="0px" y="0px"
	 viewBox="0 0 95 35" style="enable-background:new 0 0 95 35;" xml:space="preserve">
<style type="text/css">
	.st0{fill:#343741;}
</style>
<g>
	<polygon class="st0" points="35,12.4 22.5,12.4 22.5,15.8 26.9,15.8 26.9,28.6 30.6,28.6 30.6,15.8 35,15.8 	"/>
	<g>
		<path class="st0" d="M36.4,21.1c0.1-0.5,0.2-1.1,0.7-1.6c0.3-0.4,0.9-0.8,1.8-0.8c0.6,0,1.3,0.2,1.7,0.7c0.5,0.5,0.6,1.2,0.7,1.7
			L36.4,21.1L36.4,21.1z M42.1,24.2c-0.4,0.9-1.1,2.1-3,2.1c-1.9,0-2.8-1.5-2.7-3h8.6c0-1.3-0.1-3.7-1.7-5.4
			c-1.5-1.6-3.6-1.7-4.3-1.7c-4.7,0-6.1,3.7-6.1,6.6c0,3.9,2.5,6.2,6.1,6.2c1.9,0,3.5-0.7,4.5-1.7c0.6-0.6,1-1.2,1.4-1.8L42.1,24.2z
			"/>
		<path class="st0" d="M49.9,17.7c0.3-0.4,0.6-0.6,1.2-0.9c0.6-0.2,1.3-0.4,2.2-0.4c0.7,0,1.5,0.1,2.1,0.5c1.3,0.7,1.6,1.7,1.6,3.6
			v8.2h-3.5v-6.7c0-1.1,0-1.5-0.2-1.8c-0.3-0.6-0.9-0.9-1.6-0.9c-1.9,0-1.9,1.5-1.9,3v6.5h-3.5v-12h3.6L49.9,17.7L49.9,17.7z"/>
		<path class="st0" d="M65.6,22.9c0,1.2-0.1,2.3-1.2,3.1c-0.4,0.2-0.8,0.4-1.2,0.4c-0.8,0-1.3-0.6-1.3-1.2c0-0.9,0.9-1.3,1.5-1.5
			L65.6,22.9z M62.3,20c0.1-0.4,0.3-1.4,1.9-1.4c1.3,0,1.3,0.9,1.4,1.5v0.6c-1.5,0.3-3.8,0.7-4.7,1.1c-1,0.4-2.5,1.5-2.5,3.4
			c0,1.7,1.2,3.6,3.9,3.6c1.8,0,2.8-0.8,3.7-1.4v1.1h3.5C69.1,28.2,69,28,69,26.7v-7c0-3.1-3.6-3.4-5-3.4c-1.4,0-2.8,0.2-3.9,1.1
			c-1.1,0.9-1.2,1.8-1.3,2.7L62.3,20L62.3,20z"/>
		<path class="st0" d="M74.4,17.8c0.8-0.7,1.6-1.2,3.5-1.4v3.1l-1.2,0.2c-1.7,0.3-2.2,0.6-2.2,2.1v6.7H71v-12h3.4L74.4,17.8
			L74.4,17.8z"/>
		<path class="st0" d="M79.3,12.4h3.5v2.7h-3.5V12.4z M79.3,16.6h3.5v12h-3.5V16.6z"/>
		<path class="st0" d="M85.8,24.5c1,0.9,2.2,1.6,3.5,1.6c0.9,0,2.1-0.3,2.1-1.2c0-0.4-0.3-0.6-0.5-0.7c-0.5-0.3-1.3-0.3-2-0.5
			c-0.5-0.1-1.1-0.2-1.6-0.4c-0.7-0.2-1.5-0.5-2-1c-0.5-0.5-0.9-1.4-0.9-2.2c0-2,1.7-4,5.1-4c2.8,0,4.5,1.2,5.4,1.8l-2.2,2
			c-1.1-0.9-2.2-1.2-3-1.2c-1.4,0-1.7,0.6-1.7,0.9c0,0.7,0.8,0.8,1.9,1c2.4,0.4,5.2,1.1,5.2,3.9c0,2.8-2.8,4.2-5.7,4.2
			c-3.3,0-5.1-1.6-5.8-2.3L85.8,24.5z"/>
		<rect y="21.6" class="st0" width="18.1" height="0.6"/>
		<rect y="12.4" class="st0" width="18.1" height="3.4"/>
		<rect y="7.2" class="st0" width="18.1" height="0.9"/>
		<rect y="20" class="st0" width="18.1" height="0.9"/>
		<rect y="9.1" class="st0" width="18.1" height="1.7"/>
		<rect y="17.3" class="st0" width="18.1" height="1.7"/>
		<rect y="6" class="st0" width="18.1" height="0.6"/>
	</g>
</g>
</svg>
