<?xml version="1.0" encoding="utf-8"?>
<!-- Generator: Adobe Illustrator 26.0.1, SVG Export Plug-In . SVG Version: 6.00 Build 0)  -->
<svg version="1.1" id="Layer_1" xmlns="http://www.w3.org/2000/svg" xmlns:xlink="http://www.w3.org/1999/xlink" x="0px" y="0px"
	 viewBox="0 0 95 35" style="enable-background:new 0 0 95 35;" xml:space="preserve">
<style type="text/css">
	.st0{fill-rule:evenodd;clip-rule:evenodd;fill:#FFFFFF;}
</style>
<g>
	<path class="st0" d="M51.7,15.3c-1.4,0.5-3.3,0.6-5.8,0c-2.5-0.6-4.5-1.7-6.3-3.2l-7.3,2.7l5-5.4c-0.9-1.5-1.1-2.8-0.7-4
		c0.4-1.1,1.3-1.8,2.5-2.2L36,0l5.5,2.8c1.3,0,2.7,0.2,4.4,0.7C47.4,4,48.7,4.7,50,5.6l2.7-0.8L52,7.3c1,1.1,1.8,2.2,2.1,3.4
		c0.3,1.3,0.2,2.3-0.5,3.3l5.5,5.1L51.7,15.3L51.7,15.3z M42.1,4.7C41,4.9,40.2,5.5,40,6.4c-0.2,1,0.3,2.2,1.3,3.3
		c1.1,1.1,2.7,2.1,4.5,2.7c1.8,0.5,3.3,0.4,4.3-0.1c0.9-0.5,1.4-1.3,1.2-2.4C51,8,48.5,5.9,45.9,5c-0.9-0.3-1.8-0.4-2.6-0.4
		C42.9,4.5,42.5,4.6,42.1,4.7L42.1,4.7z M39.6,18.7c0-0.3-0.1-0.3-0.2-0.3c-0.2,0-0.3,0.1-0.3,0.3c-0.1,0.5,0.9,0.8,0.7,1.6
		c-0.1,0.5-0.5,0.8-1,0.8c-0.5,0-0.7-0.4-0.6-0.8l0.5-0.1c0,0.3,0,0.5,0.2,0.5c0.2,0,0.3-0.1,0.4-0.3c0.1-0.6-0.9-0.8-0.7-1.6
		c0.1-0.5,0.5-0.8,1-0.8c0.2,0,0.3,0.1,0.4,0.2c0.1,0.1,0.1,0.3,0.1,0.5L39.6,18.7L39.6,18.7z M40.7,17.9h1.4c0,0-0.1,0.5-0.1,0.5
		h-0.9L41,19.2h0.7l-0.1,0.5h-0.7l-0.2,0.9h0.9L41.5,21h-1.8l0-0.1c0.2,0,0.4,0,0.4-0.3l0.1-0.3L40.7,17.9L40.7,17.9z M43,18.3h0.2
		c0.3,0,0.4,0.1,0.3,0.5c-0.1,0.4-0.2,0.5-0.5,0.5h-0.2L43,18.3z M41.9,21h0.5l0.3-1.2c0.1,0,0.2,0,0.3,0l0.1,1.3l0.5,0h0.3l0-0.1
		c-0.3,0-0.4-0.3-0.4-0.3l-0.1-1c0.2-0.1,0.4-0.3,0.5-0.8c0.1-0.6-0.1-0.9-0.7-0.9h-0.7l-0.4,2L42,20.6c-0.1,0.3-0.2,0.3-0.4,0.3
		l0,0.1L41.9,21L41.9,21L41.9,21z M44.4,17.9H45L44.9,20h0l0.8-2.1h0.5L45,21h-1l0-0.1c0.2,0,0.4,0,0.4-0.3
		C44.5,20.5,44.4,17.9,44.4,17.9L44.4,17.9z M46.6,17.9h0.5l-0.4,2l-0.1,0.6c-0.1,0.3,0.1,0.3,0.4,0.3l0,0.1h-1.4l0-0.1
		c0.2,0,0.4,0,0.4-0.3l0.1-0.4L46.6,17.9L46.6,17.9z M48.3,20.5c0.2-0.1,0.2-0.1,0.5-0.4h0.1c0,0-0.4,0.9-0.4,0.9H47l0.1-0.5
		l1.4-2.1h-0.9l0.1-0.5h1.4L49,18.4l-1.4,2.1C47.6,20.5,48.3,20.5,48.3,20.5L48.3,20.5z M49.6,17.9h0.5l-0.4,2l-0.1,0.6
		c-0.1,0.3,0.1,0.3,0.4,0.3l0,0.1h-1.4l0-0.1c0.2,0,0.4,0,0.4-0.3l0.1-0.4L49.6,17.9L49.6,17.9z M38.4,22.3h0.2
		c0.3,0,0.4,0.1,0.3,0.5c-0.1,0.4-0.2,0.5-0.5,0.5h-0.2L38.4,22.3z M37.3,24.9h0.5l0.3-1.2c0.1,0,0.2,0,0.3,0l0.1,1.3l0.5,0h0.3
		l0-0.1c-0.3,0-0.4-0.3-0.4-0.3l-0.1-1c0.2-0.1,0.4-0.3,0.5-0.8c0.1-0.6-0.1-0.9-0.7-0.9H38l-0.4,2l-0.1,0.7
		c-0.1,0.3-0.2,0.3-0.4,0.3l0,0.1L37.3,24.9L37.3,24.9z"/>
	<path class="st0" d="M40.6,22.5L40.6,22.5l-0.1,1.3h-0.4L40.6,22.5L40.6,22.5z M41,24.9h0.4l0-0.1c-0.3,0-0.4,0-0.4-0.3l0.1-2.6
		h-0.6l-1.2,3h0.5l0.2-0.7h0.6l0,0.7L41,24.9L41,24.9z"/>
	<path class="st0" d="M42.4,22.3h0.2c0.3,0,0.4,0.1,0.3,0.4l-0.3,1.3c-0.1,0.3-0.2,0.4-0.5,0.4h-0.2L42.4,22.3L42.4,22.3z
		 M41.3,24.9h0.8c0.5,0,0.9-0.3,1-0.9l0.3-1.2c0.1-0.6-0.1-0.9-0.6-0.9H42l-0.3,1.7l-0.2,1c0,0.2-0.1,0.3-0.4,0.3l0,0.1L41.3,24.9
		L41.3,24.9L41.3,24.9z M44.1,21.9h0.5l-0.4,2l-0.1,0.6c-0.1,0.3,0.1,0.3,0.4,0.3l0,0.1h-1.4l0-0.1c0.2,0,0.4,0,0.4-0.3l0.1-0.4
		L44.1,21.9z M45.6,22.6c0-0.2,0.1-0.3,0.3-0.3c0.2,0,0.3,0.1,0.2,0.3l-0.3,1.5c0,0.2-0.1,0.3-0.3,0.3c-0.2,0-0.3-0.1-0.2-0.3
		L45.6,22.6z M44.8,24.2c-0.1,0.4,0.1,0.8,0.6,0.8c0.5,0,0.9-0.3,1-0.8l0.3-1.6c0.1-0.4-0.1-0.8-0.6-0.8c-0.5,0-0.9,0.3-1,0.8
		L44.8,24.2L44.8,24.2z M48.9,24.5c-0.1,0.3,0.1,0.3,0.4,0.3l0,0.1c0,0-0.4,0-0.4,0h-0.5l0.5-2.4h0l-1,2.4h-0.3l0-2.4h0l-0.5,2.4
		l-0.5,0c0,0-0.3,0-0.3,0l0-0.1c0.2,0,0.4,0,0.4-0.3l0.1-0.5l0.5-2.2H48l0,1.8h0l0.7-1.8h0.7l-0.4,2L48.9,24.5L48.9,24.5z"/>
	<path class="st0" d="M50.5,22.5L50.5,22.5l-0.1,1.3H50L50.5,22.5z M50.8,24.9h0.4l0-0.1c-0.3,0-0.4,0-0.4-0.3l0.1-2.6h-0.6l-1.2,3
		h0.5l0.2-0.7h0.6l0,0.7L50.8,24.9L50.8,24.9z"/>
	<path class="st0" d="M52.2,22.3h0.2c0.3,0,0.4,0.1,0.3,0.5c-0.1,0.4-0.2,0.5-0.5,0.5H52L52.2,22.3z M51.1,24.9h0.5l0.3-1.2
		c0.1,0,0.2,0,0.3,0l0.1,1.3l0.5,0h0.3l0-0.1c-0.3,0-0.4-0.3-0.4-0.3l-0.1-1c0.2-0.1,0.4-0.3,0.5-0.8c0.1-0.6-0.1-0.9-0.7-0.9h-0.7
		l-0.4,2l-0.1,0.7c-0.1,0.3-0.2,0.3-0.4,0.3l0,0.1L51.1,24.9L51.1,24.9L51.1,24.9z"/>
	<path class="st0" d="M54,21.9h0.5l-0.4,2l-0.1,0.6c-0.1,0.3,0.1,0.3,0.4,0.3l0,0.1H53l0-0.1c0.2,0,0.4,0,0.4-0.3l0.1-0.4L54,21.9
		L54,21.9z M55.3,22.3h-0.5l0.1-0.5h1.5l-0.1,0.5h-0.5l-0.5,2.6h-0.9l0-0.1c0.2,0,0.4,0,0.4-0.3l0.1-0.4L55.3,22.3L55.3,22.3z
		 M56.9,22.3h-0.5l0.1-0.5H58l-0.1,0.5h-0.5l-0.5,2.6H56l0-0.1c0.2,0,0.4,0,0.4-0.3l0.1-0.4L56.9,22.3L56.9,22.3z M58.4,21.9h0.5
		l-0.4,2l-0.1,0.6c-0.1,0.3,0.1,0.3,0.4,0.3l0,0.1h-1.4l0-0.1c0.2,0,0.4,0,0.4-0.3l0.1-0.4L58.4,21.9z"/>
	<path class="st0" d="M61,24.5c-0.1,0.3,0.1,0.3,0.4,0.3l0,0.1c0,0-0.4,0-0.4,0h-0.5l0.5-2.4h0l-1,2.4h-0.3l0-2.4h0l-0.5,2.4l-0.5,0
		c0,0-0.3,0-0.3,0l0-0.1c0.2,0,0.4,0,0.4-0.3l0.1-0.5l0.5-2.2h0.7l0,1.8h0l0.7-1.8h0.7l-0.4,2L61,24.5L61,24.5z"/>
	<path class="st0" d="M62.1,21.9h0.5l-0.4,2l-0.1,0.6c-0.1,0.3,0.1,0.3,0.4,0.3l0,0.1h-1.4l0-0.1c0.2,0,0.4,0,0.4-0.3l0.1-0.4
		L62.1,21.9L62.1,21.9z M37.2,25.9h1.4c0,0-0.1,0.5-0.1,0.5h-0.9l-0.2,0.8h0.7L38,27.6h-0.7l-0.2,0.9h0.9L38,28.9h-1.8l0-0.1
		c0.2,0,0.4,0,0.4-0.3l0.1-0.3L37.2,25.9L37.2,25.9z M40.8,26.6c0-0.3-0.1-0.3-0.2-0.3c-0.2,0-0.3,0.1-0.3,0.3
		c-0.1,0.5,0.9,0.8,0.7,1.6c-0.1,0.5-0.5,0.8-1,0.8c-0.5,0-0.7-0.4-0.6-0.8l0.5-0.1c0,0.3,0,0.5,0.2,0.5c0.2,0,0.3-0.1,0.4-0.3
		c0.1-0.6-0.9-0.8-0.7-1.6c0.1-0.5,0.5-0.8,1-0.8c0.2,0,0.3,0.1,0.4,0.2c0.1,0.1,0.1,0.3,0.1,0.5L40.8,26.6L40.8,26.6z M42.4,26.5
		L42.4,26.5l-0.1,1.3h-0.4L42.4,26.5z M42.7,28.9h0.4l0-0.1c-0.3,0-0.4,0-0.4-0.3l0.1-2.6h-0.6l-1.2,3h0.5l0.2-0.7h0.6l0,0.7
		L42.7,28.9L42.7,28.9z"/>
	<path class="st0" d="M43.9,26.3h-0.5l0.1-0.5H45l-0.1,0.5h-0.5l-0.5,2.6H43l0-0.1c0.2,0,0.4,0,0.4-0.3l0.1-0.4L43.9,26.3L43.9,26.3
		z M45.3,25.9h1.4c0,0-0.1,0.5-0.1,0.5h-0.9l-0.2,0.8h0.7l-0.1,0.5h-0.7l-0.2,0.9h0.9l-0.1,0.5h-1.8l0-0.1c0.2,0,0.4,0,0.4-0.3
		l0.1-0.3L45.3,25.9L45.3,25.9z M47.2,25.9h0.5l-0.5,2.6H48l-0.1,0.5h-1.7l0-0.1c0.2,0,0.4,0,0.4-0.3l0.1-0.4L47.2,25.9z"/>
	<path class="st0" d="M48.8,25.9h0.5l-0.5,2.6h0.8l-0.1,0.5h-1.7l0-0.1c0.2,0,0.4,0,0.4-0.3l0.1-0.4L48.8,25.9z M50.5,25.9h0.5
		l-0.4,2l-0.1,0.6c-0.1,0.3,0.1,0.3,0.4,0.3l0,0.1h-1.4l0-0.1c0.2,0,0.4,0,0.4-0.3l0.1-0.4L50.5,25.9L50.5,25.9z M51.9,26.3h-0.5
		l0.1-0.5H53l-0.1,0.5h-0.5l-0.5,2.6h-0.9l0-0.1c0.2,0,0.4,0,0.4-0.3l0.1-0.4L51.9,26.3L51.9,26.3z M53.8,26.5L53.8,26.5l-0.1,1.3
		h-0.4L53.8,26.5z M54.2,28.9h0.4l0-0.1c-0.3,0-0.4,0-0.4-0.3l0.1-2.6h-0.6l-1.2,3H53l0.2-0.7h0.6l-0.1,0.7L54.2,28.9L54.2,28.9
		L54.2,28.9z"/>
	<path class="st0" d="M55.6,26.3h0.2c0.3,0,0.4,0.1,0.3,0.5c-0.1,0.4-0.2,0.5-0.5,0.5h-0.2L55.6,26.3L55.6,26.3z M54.5,28.9H55
		l0.3-1.2c0.1,0,0.2,0,0.3,0l0.1,1.3l0.5,0h0.3l0-0.1c-0.3,0-0.4-0.3-0.4-0.3l-0.1-1c0.2-0.1,0.4-0.3,0.5-0.8
		c0.1-0.6-0.1-0.9-0.7-0.9h-0.7l-0.4,2l-0.1,0.7c-0.1,0.3-0.2,0.3-0.4,0.3l0,0.1L54.5,28.9L54.5,28.9L54.5,28.9z"/>
	<path class="st0" d="M57.3,25.9h0.5l-0.4,2l-0.1,0.6c-0.1,0.3,0.1,0.3,0.4,0.3l0,0.1h-1.4l0-0.1c0.2,0,0.4,0,0.4-0.3l0.1-0.4
		L57.3,25.9z"/>
	<path class="st0" d="M42.5,32.2c0,0-0.3,0-0.6-0.3c-0.2-0.2-0.4-0.6-0.4-0.6s-1.4,0.5-1.9,0.6c-0.8,0.2-1.4,0.2-1.6,0.2h-2.1
		l-0.2,1h2.1c0.2,0,1,0,1.6-0.2c0.5-0.2,2.2-0.8,2.2-0.8l0.5,0.7c0,0,0.2,0.3,0.8,0.3h1l0.2-1H42.5L42.5,32.2z"/>
	<path class="st0" d="M42.1,34c0,0-0.3,0-0.6-0.3c-0.2-0.2-0.4-0.6-0.4-0.6s-1.4,0.5-1.9,0.6C38.4,34,37.9,34,37.6,34h-2.1l-0.2,1
		h2.1c0.2,0,1,0,1.6-0.2c0.5-0.2,2.2-0.8,2.2-0.8l0.5,0.7c0,0,0.2,0.3,0.8,0.3h11.9l0.2-1L42.1,34L42.1,34z M42.8,30.5
		c0,0-0.3,0-0.6-0.3c-0.2-0.2-0.4-0.6-0.4-0.6s-1.4,0.5-1.9,0.6c-0.8,0.2-1.4,0.2-1.6,0.2h-2.1l-0.2,1h2.1c0.2,0,1,0,1.6-0.2
		c0.5-0.2,2.2-0.8,2.2-0.8l0.5,0.7c0,0,0.2,0.3,0.8,0.3h1l0.2-1H42.8z"/>
	<path class="st0" d="M50.6,33.3H49l0.6-2.7h0.7l-0.5,2.2h0.9L50.6,33.3z M50.9,33.3l0.6-2.7h1.6L53,31.1h-0.9L52,31.6h0.7l-0.1,0.6
		h-0.7l-0.1,0.6h0.9l-0.1,0.6L50.9,33.3L50.9,33.3z M54,33.3c-0.6,0-1-0.4-1-0.9c0-0.5,0.2-1.2,0.6-1.6c0.2-0.2,0.6-0.4,1-0.4
		c0.3,0,0.6,0.1,0.7,0.2l-0.4,0.5c-0.1-0.1-0.2-0.1-0.4-0.1c-0.1,0-0.3,0-0.4,0.2c-0.2,0.2-0.3,0.7-0.3,1.1c0,0.3,0.2,0.4,0.4,0.4
		c0.2,0,0.3-0.1,0.5-0.2l0.2,0.5C54.7,33.2,54.4,33.3,54,33.3L54,33.3z M56.3,32.8c-0.2,0-0.3-0.1-0.3-0.4c0-0.4,0.2-1.3,0.7-1.3
		c0.2,0,0.3,0.1,0.3,0.4C57,31.7,56.8,32.8,56.3,32.8z M56.1,33.3c1.4,0,1.6-1.4,1.6-1.8c0-0.6-0.2-1-1-1c-1.3,0-1.6,1.2-1.6,1.9
		C55.2,32.9,55.5,33.3,56.1,33.3L56.1,33.3z M60,33.3l0.1-1.1c0-0.2,0-0.3,0.1-0.6h0C60.1,31.8,60,32,60,32.1l-0.6,1.1h-0.6l0-1.1
		c0-0.2,0-0.3,0-0.6h0c-0.1,0.3-0.1,0.4-0.2,0.6l-0.3,1.1h-0.7l0.9-2.7h0.9l0,1.1c0,0.2,0,0.3,0,0.5h0c0.1-0.2,0.1-0.3,0.2-0.6
		l0.5-1h0.8l-0.3,2.7L60,33.3L60,33.3z M55.6,34l-0.3,1h-0.3l0.3-1H55.6z M56.8,34l-0.1,0.2h-0.3L56.2,35h-0.3l0.2-0.9h-0.3l0-0.2
		H56.8z M58.4,34l-0.2,0.9h0.5L58.5,35h-0.7l0.3-1H58.4z M59.3,34L59,35h-0.3l0.3-1H59.3z M47.1,31.1h-0.7l-0.5,2.2h-0.7l0.5-2.2H45
		l0.1-0.6h2.1L47.1,31.1z M46.9,33.3l0.6-2.7h1.6l-0.1,0.6h-0.9L48,31.6h0.7l-0.1,0.6h-0.7l-0.1,0.6h0.9l-0.1,0.6L46.9,33.3
		L46.9,33.3z M57.3,35h0.3l-0.1-1h-0.3l-0.7,1h0.3l0.1-0.2h0.4L57.3,35L57.3,35z M57.2,34.4c0-0.1,0.1-0.2,0.1-0.2s0,0.1,0,0.2
		l0,0.2l0,0.1H57l0-0.1L57.2,34.4z M60.1,35h0.3l-0.1-1H60l-0.7,1h0.3l0.1-0.2h0.4L60.1,35L60.1,35z M59.9,34.4
		c0-0.1,0.1-0.2,0.1-0.2s0,0.1,0,0.2l0,0.2l0,0.1h-0.3l0-0.1L59.9,34.4z"/>
</g>
</svg>
