<?xml version="1.0" encoding="utf-8"?>
<!-- Generator: Adobe Illustrator 26.0.1, SVG Export Plug-In . SVG Version: 6.00 Build 0)  -->
<svg version="1.1" id="Layer_1" xmlns="http://www.w3.org/2000/svg" xmlns:xlink="http://www.w3.org/1999/xlink" x="0px" y="0px"
	 viewBox="0 0 95 35" style="enable-background:new 0 0 95 35;" xml:space="preserve">
<style type="text/css">
	.st0{fill:#343741;}
	.st1{fill-rule:evenodd;clip-rule:evenodd;fill:#343741;}
</style>
<path id="path23713" class="st0" d="M31.8,9.8v11.6c0,2.5-2.2,4.5-5.2,4.5s-5.2-1.9-5.2-4.5v-8.8c0-1.5,1.2-2.7,2.7-2.7h0.2v11.5
	c0,1.4,1.2,2.2,2.4,2.2c1.1,0,2.4-0.8,2.4-2.2v-9c0-1.4,1.2-2.6,2.6-2.6H31.8z"/>
<path id="path23717" class="st0" d="M37.5,13.9c3.9,0,4.6,2.2,4.6,3.5v8.3H42c-1.5,0-2.7-1.2-2.7-2.7v-5.5c0-0.8-0.3-1.7-1.9-1.7
	c-0.7,0-1.1,0.1-1.6,0.3v9.7H33V14.8C34.2,14.3,36.1,13.9,37.5,13.9"/>
<path id="path23721" class="st0" d="M46.1,13.9v9.1c0,1.5-1.2,2.7-2.7,2.7h-0.1V13.9L46.1,13.9z M44.7,9.8c0.8,0,1.5,0.6,1.5,1.4
	c0,0.8-0.7,1.4-1.5,1.4c-0.8,0-1.5-0.6-1.5-1.4C43.2,10.5,43.9,9.8,44.7,9.8"/>
<path id="path23725" class="st0" d="M54.1,9.6c1.3,0,2.6,0.3,3.6,0.9v2.8c-0.6-0.8-1.5-1.4-3-1.4c-2.9,0-4.6,2.8-4.6,5.7
	c0,2.8,1.9,5.8,4.6,5.8c1.2,0,2.3-0.4,3-1.2v2.7c-0.8,0.6-2.1,0.9-3.6,0.9c-4.5,0-6.9-4.2-6.9-8.2C47.2,13.7,49.6,9.6,54.1,9.6"/>
<path id="path23729" class="st0" d="M62.7,13.9c0.5,0,1.1,0,1.6,0.1v2.3c-1-0.7-2.3-0.5-2.8-0.2v6.9c0,1.5-1.2,2.7-2.7,2.7h-0.1
	V14.8C59.8,14.3,60.9,13.9,62.7,13.9"/>
<path id="path23733" class="st0" d="M71.6,18.3c-0.1-2.3-1.5-2.6-2.3-2.6h-0.1c-1.6,0-2.3,1.2-2.3,3.2L71.6,18.3z M74.1,19.9l-7,1
	c0.2,1.9,1.2,2.9,3,2.9c2,0,2.9-0.6,3.7-1.1V25c-0.7,0.4-2,0.8-3.9,0.8c-3.4,0-5.5-2.3-5.5-6c0-3.6,1.9-5.9,5-5.9
	c3.1,0,4.8,2,4.8,5.6L74.1,19.9z"/>
<path id="path23737" class="st0" d="M81.4,16.2c-0.3-0.1-0.6-0.1-1-0.1c-2.3,0-2.8,2.2-2.8,4.1c0,2.6,0.9,3.9,2.6,3.9
	c0.3,0,0.9-0.1,1.2-0.1V16.2z M84.2,9.8v15.7c-0.7,0.1-2.9,0.3-3.8,0.3h-0.2c-3.4,0-5.3-2-5.3-5.6c0-3.6,2-5.9,5-5.9
	c0.6,0,1.1,0.1,1.5,0.2v-2c0-1.5,1.2-2.7,2.7-2.7L84.2,9.8z"/>
<path id="path23741" class="st0" d="M88.3,13.9v9.1c0,1.5-1.2,2.7-2.7,2.7h-0.1V13.9L88.3,13.9z M86.9,9.8c0.8,0,1.5,0.6,1.5,1.4
	c0,0.8-0.7,1.4-1.5,1.4c-0.8,0-1.5-0.6-1.5-1.4C85.3,10.5,86,9.8,86.9,9.8"/>
<path id="path23745" class="st0" d="M93.2,9.8v4.1H95v2.3h-1.8v6.3c0,0.8,0.3,1,1.1,1c0.2,0,0.5-0.1,0.7-0.1v2.3
	c-0.1,0-0.7,0.3-1.4,0.3c-2.1,0-3.2-1-3.2-2.8v-6.9h-1.2v-2.3h1.2v-1.4c0-1.5,1.2-2.7,2.6-2.7L93.2,9.8z"/>
<path class="st1" d="M9.4,13.3c0,0,0,0,0.2-0.2v0c0.1-0.2,0.1-0.4,0-0.4l-1.5-0.9c-0.1-0.1-0.2-0.2-0.2-0.3c0-0.2,0.1-0.4,0.4-0.4
	c0.4-0.1,1.4-0.2,2.4-0.3c1.1-0.1,2.3-0.1,2.8-0.1c0.3,0,0.6,0,1,0c0,0,0,0,0,0c0.2,0,0.4,0,0.6,0l0,0c-1.6-1.4-3.7-2.2-6-2.2
	C4.1,8.3,0,12.4,0,17.5c0,2.2,0.8,4.3,2.1,5.9c1.2-1.7,4-5.7,4.6-6.6C7.5,15.7,9.4,13.3,9.4,13.3z"/>
<path class="st1" d="M17.3,13.3L17.3,13.3c0.3-0.3,0.7-0.8,0.4-1.4c-0.1-0.2-0.4-0.6-0.5-0.7l0,0c0,0,0,0.1,0,0.1c0,0,0,0,0,0.1
	c0,0.1,0,0.1,0,0.2c0,0,0,0,0,0.1c0,0.1,0,0.1,0,0.2c0,0,0,0,0,0c0,0.1,0,0.1-0.1,0.2c0,0,0,0,0,0c0,0.1-0.1,0.1-0.1,0.2
	c0,0,0,0,0,0c-0.1,0.2-0.3,0.3-0.4,0.4c-0.2,0.2-2.5,2.4-5.2,4.7c-2.1,1.8-4.4,3.7-6,4.9c-0.2,0.2-0.4,0.3-0.6,0.5
	c-0.1,0.1-0.2,0.2-0.4,0.3c-1.4,1-2,1.4-2.2,1.5c-0.1,0-0.1,0.1-0.1,0.1c-0.1,0-0.2,0.1-0.2,0.1c-0.1,0-0.1,0-0.2,0c0,0,0,0,0,0
	c0,0-0.1-0.1-0.1-0.1c0,0,0,0,0,0l0,0l0,0.1c0.2,0.4,0.6,0.8,0.9,0.8c0.1,0,0.2,0,0.2-0.1c0,0,0.2-0.1,0.9-0.6l0,0
	c1.5,1.2,3.5,1.9,5.6,1.9c5.1,0,9.2-4.1,9.2-9.2C18.3,16,18,14.5,17.3,13.3z"/>
</svg>
