<?xml version="1.0" encoding="utf-8"?>
<!-- Generator: Adobe Illustrator 26.0.1, SVG Export Plug-In . SVG Version: 6.00 Build 0)  -->
<svg version="1.1" id="Layer_1" xmlns="http://www.w3.org/2000/svg" xmlns:xlink="http://www.w3.org/1999/xlink" x="0px" y="0px"
	 viewBox="0 0 95 35" style="enable-background:new 0 0 95 35;" xml:space="preserve">
<style type="text/css">
	.st0{fill:#FFFFFF;}
</style>
<g id="g6033" transform="translate(-18.9 -19.8)">
	<path id="path6019" class="st0" d="M46.8,36.2c2.3-0.9,3.1-2.1,3.1-3.7c0-2.7-2.3-3.8-6.1-3.8H37c0.4,0.7,0.8,1.3,0.8,2.4v5.3
		c-2,0.4-3.8,0.7-5.5,1.1c-1.5-4.2-3.2-8.8-3.2-8.8h-4.2c0.1,0.6,0,1.2-0.3,2l-4.7,13.2c0,0-0.3,0.9-1,1.8h3.5
		c-0.1-0.5,0-1.1,0.1-1.4c0.3-1,1.3-1.7,2.3-2.2c1.3-0.6,3.6-1.3,4.6-1.6l1.1,3.2c0,0,0.5,1.2,0.2,2h4.9c-0.7-1-1-1.7-1-1.8
		c-0.1-0.3-0.8-2.1-1.6-4.4c1.5-0.4,3.1-0.7,4.7-1v4.7c0,0.9-0.4,1.7-0.8,2.4h6.5c1.1,0,2-0.1,2.7-0.2c2.8-0.5,4.8-1.9,4.8-4.9
		C50.9,38.2,49.4,36.9,46.8,36.2 M25,39.7c-0.4,0.2-0.9,0.5-1.2,0.8c0.9-2.7,2.2-6.5,2.8-8.2l2.1,6.1C27.6,38.7,26,39.2,25,39.7z
		 M41.6,30.8c0.7,0,0.9,0,1.3,0c2.1,0,3.1,0.9,3.1,2.1c0,1.2-0.8,1.9-2.1,2.3c-0.5,0.2-1.4,0.3-2.3,0.5
		C41.6,35.6,41.6,30.8,41.6,30.8z M43.2,43.5h-1.6v-5.7c0.6-0.1,1.5-0.3,2.1-0.4c1.9,0.4,3.3,1.2,3.3,3.1
		C47,42.9,45.4,43.5,43.2,43.5"/>
	<g id="g6031">
		<path id="path6021" class="st0" d="M52.7,45.7c0.8-1.3,0.8-2.4,0.8-2.4V31.1c0,0,0-1.1-0.8-2.4h5.5c-0.8,1.3-0.8,2.4-0.8,2.4v12.2
			c0,0,0,1.2,0.8,2.4H52.7z"/>
		<path id="path6023" class="st0" d="M113.9,33.7h-3.7c0.3,0.5,0.2,1.3-0.1,2.1l-2.4,6.3l-2.5-6.3c-0.3-0.8-0.4-1.6-0.1-2.1h-4.7
			c0.7,0.7,1.1,1.6,1.3,2.1l4.1,9.9h3.2c0,0,0.1-0.8,0.4-1.7l3.3-8.1C112.9,35.2,113.3,34.3,113.9,33.7"/>
		<path id="path6025" class="st0" d="M100.9,40c0.2-2.5-0.5-6.9-6-6.9c-4.5,0-6.2,3.1-6.2,6.2c0,3.9,2.1,6.6,7.2,6.6
			c2.1,0,3.7-0.6,4.7-1.2l-1-2.3c-1,0.5-2.1,0.9-3.4,0.9c-2.3,0-3.7-0.8-4-3h4.9C99,40.4,100.4,40.3,100.9,40 M92.2,38.3
			c0.2-1.9,1.1-2.9,2.7-2.9c1.6,0,2.4,1.3,2.5,2.9c0,0-0.7,0-1.7,0H92.2z"/>
		<path id="path6027" class="st0" d="M67.5,45.7h4.8c-0.7-1.1-0.7-2.1-0.7-2.1v-6.4c0-2.3-1.2-3.7-3.8-3.7c-1.7,0-3,0.7-4,1.7v-1.4
			h-4.1c0.7,1.1,0.7,2.1,0.7,2.1v7.7c0,0,0,1-0.7,2.1h4.9c-0.7-1.1-0.7-2.1-0.7-2.1v-6.4c0.6-0.6,1.5-1.1,2.5-1.1c1.5,0,2,0.8,2,2.1
			v5.4C68.3,43.5,68.3,44.5,67.5,45.7"/>
		<path id="path6029" class="st0" d="M80.1,37.6c2.4,0,3.7,1.2,3.7,3c0,1.7-1,2.9-3.8,2.9h-1.6v-6L80.1,37.6z M79.7,30.7
			c2.1,0,3.1,0.8,3.1,2.4c0,1.5-0.9,2.4-2.9,2.4c-0.4,0-1.1,0-1.5,0v-4.8H79.7z M80.2,45.7c1.1,0,2-0.1,2.7-0.2
			c2.7-0.5,4.7-1.9,4.7-4.9c0-2.4-1.5-3.7-4-4.4c2.2-0.8,2.9-2,2.9-3.6c0-2.7-2.2-4-6.1-4H74c0.5,0.7,0.6,1.7,0.6,2.4v12.2
			c0,0.8-0.1,1.6-0.6,2.4H80.2z"/>
	</g>
</g>
</svg>
