<?xml version="1.0" encoding="utf-8"?>
<!-- Generator: Adobe Illustrator 26.0.1, SVG Export Plug-In . SVG Version: 6.00 Build 0)  -->
<svg version="1.1" id="Layer_1" xmlns="http://www.w3.org/2000/svg" xmlns:xlink="http://www.w3.org/1999/xlink" x="0px" y="0px"
	 viewBox="0 0 95 35" style="enable-background:new 0 0 95 35;" xml:space="preserve">
<style type="text/css">
	.st0{fill:#CCCCCC;}
</style>
<g>
	<path class="st0" d="M27.4,20.5c-4.6,0-5.3-4-5.3-7.9s0.7-8,5.3-8c4.6,0,5.3,4,5.3,8S32,20.5,27.4,20.5z M32.7,4.6
		c-1.7-2.2-3.6-2.8-6-2.8c-2.2,0-4.1,0.7-5.2,1.9C19.4,5.8,19,9.1,19,12.6s0.5,6.7,2.6,8.9c1.1,1.1,3,1.9,5.1,1.9
		c2.3,0,4.2-0.6,6-2.8c0,3.3,0,3.3,0,3.3c0,3.6-1.7,6.5-5.8,6.5c-2.5,0-3.5-0.7-5.1-2.1c-2,2-2,2-2,2c2.2,2,4,2.9,7.2,2.9
		c5.6,0,8.9-3.9,8.9-9.1c0-21.9,0-21.9,0-21.9c-3.1,0-3.1,0-3.1,0L32.7,4.6L32.7,4.6z M13.8,15.9c0,1.8-0.3,3-1.1,3.7
		C11.3,20.8,9.7,21,7.9,21C4.6,21,3,19.8,3,17.3s1.6-3.8,4.8-3.8c6,0,6,0,6,0V15.9z M8.3,1.8C4.9,1.8,2.7,2.5,0.8,5
		C2.9,7,2.9,7,2.9,7c1.3-1.8,2.6-2.4,5.4-2.4c3.9,0,5.4,1.6,5.4,4.7c0,2,0,2,0,2c-6.4,0-6.4,0-6.4,0c-4.8,0-7.3,2.4-7.3,6.1
		c0,1.7,0.6,3.3,1.6,4.3c1.3,1.4,3.1,1.9,6,1.9c2.9,0,4.4-0.6,6.1-2.3c0,2,0,2,0,2c3.1,0,3.1,0,3.1,0c0-14.4,0-14.4,0-14.4
		C16.9,4.3,14,1.8,8.3,1.8z M85.4,11.4c-3.4-0.3-3.4-0.3-3.4-0.3c-2.7-0.2-3.7-1.3-3.7-3.1c0-2.2,1.6-3.5,4.8-3.5
		c2.2,0,4.2,0.5,5.7,1.7c2-2,2-2,2-2c-1.9-1.6-4.6-2.3-7.6-2.3c-4.6,0-7.8,2.3-7.8,6.2c0,3.5,2.2,5.4,6.4,5.7
		c3.5,0.3,3.5,0.3,3.5,0.3c2.5,0.2,3.5,1.3,3.5,3.1c0,2.5-2.2,3.8-5.7,3.8c-2.6,0-4.9-0.7-6.6-2.5c-2.1,2.1-2.1,2.1-2.1,2.1
		c2.3,2.2,5.1,3.1,8.7,3.1c5.1,0,8.6-2.4,8.6-6.5C91.6,13.2,89.1,11.8,85.4,11.4z M69.9,15.9c0,1-0.1,2-0.5,2.8
		c-0.4,0.8-1.1,1.4-1.9,1.7c-0.9,0.4-1.9,0.5-2.8,0.5c-1,0-1.9,0-2.8-0.2c-1.3-0.3-2.4-1.1-2.6-2.5c-0.2-1.3,0-2.9,1.2-3.7
		c1-0.8,2.4-0.9,3.7-0.9c1,0,2,0,3,0c0.9,0,1.8,0,2.8,0C70,13.6,69.9,15.6,69.9,15.9z M41.9,7.7c1.1-2.6,4.2-3.8,6.9-2.9
		c1.3,0.4,2.3,1.4,2.9,2.6c0.6,1.2,0.7,2.5,0.8,3.8c-3.7,0-7.4,0-11.1,0c0,0-0.1,0-0.2,0C41.3,10,41.4,8.8,41.9,7.7z M72.8,6.8
		c-0.4-1.5-1.3-2.8-2.6-3.7c-1.7-1-3.7-1.3-5.7-1.3c-2.4,0-4.8,0.4-6.6,2.1c-0.1,0.1-1,1-0.9,1.1c0.2,0.2,0.4,0.4,0.6,0.6
		c0.5,0.4,1,0.9,1.5,1.3c0.9-1.3,2.2-2.1,3.8-2.4c1.6-0.2,3.6-0.2,5,0.6c1.2,0.6,1.8,1.8,1.9,3.2c0,0.3,0.1,2.9,0,2.9
		c-2,0-3.9,0-5.9,0c-1.3,0-2.7,0.1-4,0.6c-1.9,0.7-3.3,2.2-4.5,3.7c-1.1,1.3-2,2.6-3.3,3.7c-0.8,0.7-1.7,1.2-2.8,1.5
		c-1,0.3-2,0.3-3,0.2c-1.4-0.2-2.8-0.8-3.7-1.9c-1-1.2-1.4-2.8-1.5-4.4c0-0.3,0-0.7,0-1c3.9,0,7.8,0,11.7,0c0.8,0,1.5,0,2.3,0
		c0,0,0.3,0,0.3,0s0-0.5,0-0.6c0-0.3,0-0.5,0-0.8c0-3.1-0.8-6.5-3.3-8.5c-2.3-1.9-5.8-2.3-8.6-1.2c-2.9,1.1-4.6,3.8-5.2,6.7
		C38.1,11,38,13,38.2,14.9c0.2,1.6,0.6,3.2,1.4,4.7c1.4,2.5,3.9,3.8,6.7,4.1c1.9,0.2,4,0,5.7-0.9c1.7-0.8,3.6-2.8,4.7-4.2
		c0.2,1.4,0.8,3.2,2,4c1.1,0.7,2.3,1,3.6,1.1c1.5,0.1,3,0.1,4.5-0.3c1.2-0.3,2.3-1.1,3.2-2c0,0.5,0,1,0,1.4c0,0.2,0,0.4,0,0.6
		c0,0,0.2,0,0.3,0c0.2,0,2.8,0,2.8,0c0-1.5,0-2.9,0-4.4c0-2.5,0-4.9,0-7.4C73,10,73.2,8.3,72.8,6.8z M93.4,21.2c-0.3,0-0.3,0-0.3,0
		c0,0.6,0,0.6,0,0.6c0.3,0,0.3,0,0.3,0c0.2,0,0.3-0.1,0.3-0.3C93.7,21.4,93.6,21.2,93.4,21.2z M93.7,22.9c-0.4-0.7-0.4-0.7-0.4-0.7
		c-0.3,0-0.3,0-0.3,0c0,0.7,0,0.7,0,0.7c-0.3,0-0.3,0-0.3,0c0-1.9,0-1.9,0-1.9c0.6,0,0.6,0,0.6,0c0.3,0,0.6,0.3,0.6,0.6
		c0,0.3-0.2,0.4-0.4,0.5c0.4,0.8,0.4,0.8,0.4,0.8H93.7z M93.3,20.5c-0.8,0-1.4,0.6-1.4,1.5c0,0.8,0.6,1.4,1.4,1.4
		c0.8,0,1.4-0.6,1.4-1.4C94.7,21.1,94.1,20.5,93.3,20.5z M93.3,23.7c-0.9,0-1.7-0.8-1.7-1.7c0-0.9,0.8-1.7,1.7-1.7
		c1,0,1.7,0.8,1.7,1.7C95,22.9,94.2,23.7,93.3,23.7z"/>
</g>
</svg>
