<?xml version="1.0" encoding="utf-8"?>
<!-- Generator: Adobe Illustrator 26.0.1, SVG Export Plug-In . SVG Version: 6.00 Build 0)  -->
<svg version="1.1" id="Layer_1" xmlns="http://www.w3.org/2000/svg" xmlns:xlink="http://www.w3.org/1999/xlink" x="0px" y="0px"
	 viewBox="0 0 95 35" style="enable-background:new 0 0 95 35;" xml:space="preserve">
<style type="text/css">
	.st0{fill:#343741;}
</style>
<g id="g2701" transform="translate(17.716533,17.662317)">
	<path id="path106" class="st0" d="M7.6-17.2c1.4,0.3,2.8,0.7,2.8,0.7c0.4,0.1,1.9,0.7,2.2,0.8c0.9,0.4,1.9,0.9,2.7,1.5
		c0.1,0,1.9,1.4,2.6,2.2c0,1.2,0,3.7,0,3.7c-1.9-2.1-4.3-3.4-6.8-4.5c-0.2,0-3.2-0.9-4.5-1c-0.7-0.1-2.2-0.1-2.2,0
		C3.1-13.7,2.1-13.4,1-13c-0.8,0.5-1.5,1-2.2,1.6c-1.1,1-2,2.4-2.5,3.4c-0.5,1-0.9,2.4-1.2,3.6c-0.2,0.9-0.2,1.7-0.3,2.6
		c-0.1,1.2-0.1,2.7,0,3.9c0,0.8,0.2,2,0.5,2.9c0.1,0.5,0.3,0.9,0.5,1.3C-4.1,6.5-4.1,6.8-4,7c0.8,1.9,2.5,4.4,3.1,5.1
		c0.7,0.7,2,1.5,2.9,1.9c0.6,0.2,1.3,0.4,2,0.4c0.7,0,0.7,0,1.3-0.1c0.2-0.1,1.3-0.3,1.7-0.4c0-4.1,0.1-8.5,0-13
		C7,0.3,6.7-0.4,6.1-0.7c0,0-0.2,0-0.2-0.1C5.7-0.7,5.8-1,5.7-1.1c0-0.1,0.1-0.2,0.2-0.2c4.5,0,8.9,0.1,13.2,0.1l0.1,0.2
		c-0.1,0.1,0,0.3-0.2,0.2c-0.8,0.3-1.2,1.1-1.3,1.9c0,4.1,0,8.7,0,12.8c-1.2,0.5-3.7,1.2-3.7,1.2c-0.5,0.2-0.6,0.2-0.9,0.3
		c-0.6,0.2-1.1,0.3-1.9,0.5C11,16.1,8.5,16.8,7,17c-1.1,0.2-0.6,0.1-1.4,0.2c-0.5,0.1-1.2,0.1-2.4,0.1C1.3,17.4-2.2,17.1-3,17
		c-2.3-0.5-4.7-1.1-6.8-2.2c-0.6-0.4-1.6-1.2-1.6-1.2c-1.4-1.6-2.5-3-3.3-4.8c-0.3-0.6-0.5-1.1-0.6-1.6c-0.4-1.3-0.6-2.4-0.8-3.7
		c-0.2-1.7-0.2-2.6-0.1-4.7c0-0.8,0.2-2.3,0.4-3.2c0.2-1.2,0.6-2.4,1-3.4c0.2-0.6,1-1.8,1-1.8c1.2-2.1,3.1-4,5.1-5.3
		c0.2-0.1,1.2-0.7,1.5-0.9c0.4-0.2,1.3-0.6,1.7-0.7c0.1-0.1,0.6-0.2,0.7-0.2c1.2-0.3,2.4-0.5,3.5-0.6c1.2-0.1,2.8-0.1,4.5-0.1
		C3.3-17.6,5.8-17.5,7.6-17.2"/>
	<path id="path120" class="st0" d="M63.1-16.7c0,10.5,0,20.5,0,30.8c1.2,0,2.5,0,3.9-0.1c1.3-0.2,2.2-0.3,3-0.6
		c0.8-0.2,1.6-0.6,2.1-0.9c0.5-0.3,1.5-1.1,2-1.6c0.5-0.5,1.9-3.2,1.9-3.2l0,9.3c-6.7-0.1-22.6,0-24.1,0c0-9.5,0-30.6,0-31.9
		c-0.5-0.7-1-0.9-1.4-1.2c-0.1-0.2,0.1-0.3,0.2-0.4C54.9-16.7,58.7-16.7,63.1-16.7"/>
	<path id="path134" class="st0" d="M33.5,1.5c-0.2,0.1-0.3,0.1-0.7,0.2c-0.5,0.2-1.2,0.5-1.4,1l0,10.9c0.3,0.1,0.6,0.2,0.9,0.3
		c0.2,0,0.3,0.1,0.4,0.1c0.6,0,1.2,0.1,1.7-0.1c0.7-0.1,1.1-0.3,1.5-0.6c2-1.7,2.4-4.6,2.1-7.1c-0.2-1.1-0.5-2-1.1-2.9
		c-0.5-0.5-1-1-1.5-1.3C34.9,1.8,34.2,1.5,33.5,1.5z M35-13.5c-1.2-0.5-2.6-0.1-3.5,0.8v11l0.2,0.1c0.4,0.2,0.8,0.3,1.2,0.3
		c0.3,0.1,0.3,0,0.6,0.1c0.3,0,0.5-0.1,0.7-0.1c0.8-0.2,1.2-0.4,1.5-0.6C35.8-1.9,36-2,36-2.1c0.2-0.1,0.4-0.4,0.5-0.6l0,0
		c0.9-1.2,1.4-2.5,1.6-3.9c0.1-0.9,0.1-2-0.1-2.8c-0.2-1.2-0.8-2.3-1.7-3.2C35.9-13,35.4-13.2,35-13.5z M20-16.7
		c1.8,0,22.6,0,23.5,0c0.8,0.2,0.5,0.2,0.7,0.2c0.4,0.2,0.5,0.2,0.8,0.3c0.4,0.2,0.9,0.5,1.2,0.8c0.3,0.4,0.6,0.7,0.9,1.1
		c0.5,0.6,1,1.6,1.2,2.1c0.5,1.3,0.8,2.3,1,3.5c0.1,0.9,0,1.7-0.1,2.6c-0.2,1-0.5,1.9-0.9,2.9c-0.4,0.7-0.8,1.4-1.4,2
		c-0.4,0.4-0.7,0.7-1.1,1.1l-0.4,0.3v0.1c0.5,0.4,1,0.8,1.5,1.3c0.1,0.2,0.2,0.2,0.4,0.4c0.5,0.6,0.9,1.5,1.3,2.2
		c0.5,1.5,0.9,3.3,0.7,5.1c-0.3,2.2-0.9,4-2.1,5.7c-0.4,0.5-1.7,1.7-2.6,1.8c-1.6,0-25,0-25,0c-0.1,0-0.3,0-0.5-0.2
		c-0.4-0.4,1-0.8,1.3-1.2c0.1-0.1,0.2-0.3,0.3-0.5v-0.4c0-9.5,0-19.4,0-28.9c-0.1-0.7-0.2-1.4-0.9-1.7c-0.2-0.2-0.6-0.2-0.5-0.6
		L20-16.7"/>
</g>
</svg>
