<?xml version="1.0" encoding="utf-8"?>
<!-- Generator: Adobe Illustrator 26.0.1, SVG Export Plug-In . SVG Version: 6.00 Build 0)  -->
<svg version="1.1" id="Layer_1" xmlns="http://www.w3.org/2000/svg" xmlns:xlink="http://www.w3.org/1999/xlink" x="0px" y="0px"
	 viewBox="0 0 95 35" style="enable-background:new 0 0 95 35;" xml:space="preserve">
<style type="text/css">
	.st0{fill:#CCCCCC;}
</style>
<g>
	<g>
		
			<ellipse transform="matrix(0.9998 -1.854910e-02 1.854910e-02 0.9998 -0.1355 0.8872)" class="st0" cx="47.8" cy="7.7" rx="7.7" ry="7.7"/>
		<path class="st0" d="M53.5,14c-1.5,1.6-4.1,3.2-7.4,3.2c-2.6,0-4.8-1-6.2-2.1c-8.5,0.9-14.7,2.1-14.7,2.1v3.4l44.9,0v-7.1
			C69.9,13.6,62.2,13.5,53.5,14z"/>
	</g>
	<g>
		<path class="st0" d="M30.4,30.7v4.2h-5.3V23.7h5.3v5h0l3.1-5H40l-4.7,5.7l4.4,5.4h-6.1L30.4,30.7L30.4,30.7z"/>
		<path class="st0" d="M69.9,34.4C68.7,34.8,67,35,65.5,35c-5.3,0-9.1-1.5-9.1-5.9c0-3.9,3.8-5.7,8.9-5.7c1.4,0,3.2,0.2,4.7,0.6
			l0,3.8c-1-0.6-2.1-1-3.6-1c-2,0-3.9,1-3.9,2.4c0,1.4,1.9,2.4,3.9,2.4c1.5,0,2.6-0.4,3.6-1L69.9,34.4z"/>
		<path class="st0" d="M40.8,23.7h10.8c2.8,0,3.7,1.1,3.7,2.8c0,1.9-1.7,2.7-3.4,2.8v0c1.8,0.1,3.5,0.3,3.5,2.6c0,1.5-0.9,2.9-4,2.9
			H40.8V23.7z M46.2,32.6h2.8c1,0,1.4-0.4,1.4-1.1c0-0.6-0.4-1.1-1.4-1.1h-2.8L46.2,32.6z M46.2,28.5h2.7c1,0,1.4-0.4,1.4-1.1
			c0-0.7-0.4-1.1-1.4-1.1h-2.7L46.2,28.5z"/>
	</g>
</g>
</svg>
