<?xml version="1.0" encoding="utf-8"?>
<!-- Generator: Adobe Illustrator 26.0.1, SVG Export Plug-In . SVG Version: 6.00 Build 0)  -->
<svg version="1.1" id="Layer_1" xmlns="http://www.w3.org/2000/svg" xmlns:xlink="http://www.w3.org/1999/xlink" x="0px" y="0px"
	 viewBox="0 0 95 35" style="enable-background:new 0 0 95 35;" xml:space="preserve">
<style type="text/css">
	.st0{fill:#343741;}
</style>
<path id="path2" class="st0" d="M62.7,22.1c-0.5,0.1-1.9,0.2-2.7,0.2c-2.1,0-3.7-0.6-3.7-3.3v-6.5c0-0.2,0.1-0.3,0.3-0.3h1.6
	c0.2,0,0.3,0.1,0.3,0.3V19c0,1.1,0.3,1.4,1.2,1.4h2.9c0.2,0,0.3,0.1,0.3,0.3v1C63,22,62.9,22,62.7,22.1"/>
<path id="path4" class="st0" d="M44.3,19.5c0-1.1-0.5-1.9-2.2-2.7l-1.9-0.9c-1-0.5-1.3-0.8-1.3-1.2c0-0.6,0.5-0.8,1.6-0.8
	c1,0,2,0.1,3.1,0.1h0c0.2,0,0.3-0.1,0.3-0.2v-1.1c0-0.1-0.1-0.2-0.3-0.3c-0.5-0.1-2-0.2-3-0.2c-2.9,0-3.9,1.1-3.9,2.6
	c0,0.9,0.4,1.7,1.8,2.5l2.1,1.1c0.9,0.5,1.3,0.8,1.3,1.2c0,0.7-0.5,1.1-1.7,1.1c-0.6,0-2.2-0.1-2.8-0.2h0c-0.2,0-0.3,0.1-0.3,0.3
	v1.1c0,0.2,0.1,0.3,0.3,0.3c0.7,0.2,1.6,0.3,2.7,0.3c0,0,0.1,0,0.1,0c0.7,0,1.3-0.1,1.8-0.2C43.8,21.6,44.3,20.5,44.3,19.5"/>
<path id="path6" class="st0" d="M90,12.2h-1.8c-0.1,0-0.2,0.1-0.3,0.2c0,0.1-0.1,0.2-0.1,0.2c-0.6,1.5-1.2,2.8-2,4.4
	c-1.1-1.3-2.1-2.9-3-4.6c-0.1-0.2-0.1-0.2-0.3-0.2h-1.9c-0.2,0-0.2,0.1-0.1,0.4c1.2,2.4,2.6,4.6,4.2,6.2c-0.7,1.2-1.3,2.1-1.9,2.9
	l0,0c-0.2,0.2-0.2,0.5,0.2,0.5h1.8c0.3,0,0.4-0.1,0.5-0.2c1.8-2.7,3.8-6.6,4.8-9.6C90.1,12.3,90.1,12.2,90,12.2"/>
<path id="path8" class="st0" d="M74.8,18.7l1.3-4.5c0-0.2,0.1-0.2,0.2-0.2c0.2,0,0.2,0.1,0.2,0.2l1.3,4.5H74.8z M81.1,21.9l-2.6-8.4
	c-0.4-1.3-1.5-1.4-2.2-1.4s-1.8,0.1-2.2,1.4l-2.6,8.4c0,0,0,0.1,0,0.1c0,0.1,0.1,0.2,0.3,0.2h1.7c0.1,0,0.3-0.1,0.3-0.2l0.5-1.6h4.1
	l0.5,1.6c0,0.1,0.2,0.2,0.3,0.2h1.7C81,22.2,81.1,22.1,81.1,21.9C81.1,21.9,81.1,21.9,81.1,21.9"/>
<path id="path10" class="st0" d="M52.3,16.5c0-1.8-0.7-2.6-2.2-2.6c-1.5,0-2.2,0.8-2.2,2.6v1.6c0,1.8,0.7,2.3,2.2,2.3
	c1.5,0,2.2-0.5,2.2-2.3V16.5z M50.1,22.3c-2.6,0-4.4-1.2-4.4-4.2v-1.8c0-3,1.9-4.2,4.4-4.2c2.6,0,4.4,1.2,4.4,4.2v1.8
	C54.5,21,52.6,22.3,50.1,22.3"/>
<path id="path12" class="st0" d="M69.7,12.4c0-0.1,0.2-0.2,0.3-0.2h1.7c0.2,0,0.3,0.1,0.3,0.2c0,0,0,0,0,0.1l-2.6,8.4
	c-0.4,1.2-1.5,1.4-2.2,1.4s-1.8-0.1-2.2-1.4l-2.6-8.4c0,0,0-0.1,0-0.1c0-0.1,0.1-0.2,0.3-0.2h1.7c0.1,0,0.3,0.1,0.3,0.2l2.3,7.7
	c0,0.2,0.1,0.2,0.2,0.2c0.2,0,0.2-0.1,0.2-0.2L69.7,12.4z"/>
<path class="st0" d="M25.7,17.4c-2.5-2.6-6.7-3.8-10.2-6.3c0,0,0.2,0.2,0.5,0.4c-0.3-0.2-0.6-0.5-0.9-0.7c1.3-2.8,8.1-6.8,10.1-8
	c2-1.1,1.8-0.7,1.8-2.3l0,0l0,0l0,0L27,0C27,0,8.7,2.9,6.6,11c-0.1,0.2-0.1,0.4-0.1,0.6c0,0.1,0,0.1,0,0.2c0,0.2,0,0.3,0,0.4
	c0,0,0,0.1,0,0.1c0.2,4.4,7.5,6.1,11.4,8.8c0,0,0,0,0-0.1c1.5,1,2.4,2.2,2.4,3.7c0,0.3,0,0.5-0.1,0.8c0,0,0,0,0,0
	c0,0-0.1,0.1-0.1,0.1c-0.3,0.3-0.6,0.5-1,0.8C15.1,28.9,8.3,27.6,6.8,25c-1.8-3.1,2-7.9,2-7.9c0,0,0,0,0-0.1c0,0,0,0,0,0
	c0,0-0.1,0-0.1,0.1c0,0-4.3,4.2-3.7,9.2c0.9,6.8,8,9.2,13.7,8.5C25,34.1,33.3,25.1,25.7,17.4z M26,0.8c0.4-0.1,0.7-0.2,0.9-0.3
	C26.6,0.6,26.3,0.7,26,0.8z"/>
</svg>
