<?xml version="1.0" encoding="utf-8"?>
<!-- Generator: Adobe Illustrator 26.0.1, SVG Export Plug-In . SVG Version: 6.00 Build 0)  -->
<svg version="1.1" id="Layer_1" xmlns="http://www.w3.org/2000/svg" xmlns:xlink="http://www.w3.org/1999/xlink" x="0px" y="0px"
	 viewBox="0 0 95 35" style="enable-background:new 0 0 95 35;" xml:space="preserve">
<style type="text/css">
	.st0{fill:#343741;}
</style>
<g id="XMLID_1_">
	<path id="XMLID_2_" class="st0" d="M30.2,19.4C31,27.5,37.4,34.1,45.6,35H30.2V19.4z"/>
	<path id="XMLID_3_" class="st0" d="M64.8,19.4c-0.9,8.2-7.3,14.7-15.4,15.6h15.4L64.8,19.4z"/>
	<path id="XMLID_4_" class="st0" d="M30.2,15.6C31,7.5,37.4,0.9,45.6,0H30.2V15.6z"/>
	<path id="XMLID_5_" class="st0" d="M64.8,15.6C63.9,7.5,57.5,0.9,49.4,0h15.4L64.8,15.6z"/>
	<rect id="XMLID_6_" x="46.8" y="0.9" class="st0" width="0.3" height="33.3"/>
	<polygon id="XMLID_7_" class="st0" points="42.1,14.6 42.1,21.4 49.1,21.4 49.1,14.6 46.8,14.6 46.8,19 44.5,19 44.5,14.6 	"/>
	<polygon id="XMLID_8_" class="st0" points="50.2,14.6 50.2,21.4 55.5,21.4 55.5,19 52.6,19 52.6,17.2 55.5,17.2 55.5,14.6 	"/>
	<path id="XMLID_9_" class="st0" d="M56.8,21.4V10.2h2.4v4.4h4.5v6.8H56.8z M59.2,19.4h2v-2.2h-2V19.4z"/>
</g>
</svg>
