<?xml version="1.0" encoding="utf-8"?>
<!-- Generator: Adobe Illustrator 26.0.1, SVG Export Plug-In . SVG Version: 6.00 Build 0)  -->
<svg version="1.1" id="Layer_1" xmlns="http://www.w3.org/2000/svg" xmlns:xlink="http://www.w3.org/1999/xlink" x="0px" y="0px"
	 viewBox="0 0 95 35" style="enable-background:new 0 0 95 35;" xml:space="preserve">
<style type="text/css">
	.st0{fill:#CCCCCC;}
	.st1{clip-path:url(#SVGID_00000068672572821296668920000015198295125439171250_);fill:#CCCCCC;}
</style>
<g>
	<path class="st0" d="M80.3,27.4c0.1-3.9-1.8-6.2-5.3-6.2c-3.4,0-5.7,2.2-5.7,6c0,3.9,2.5,6.2,6.2,6.2c2,0,3.4-0.5,4.3-0.9l-0.7-1.8
		c-0.7,0.3-1.8,0.6-3.3,0.6c-2.2,0-3.1-0.8-3.4-2.9L80.3,27.4z M77.5,26.1l-5.1,0.8c-0.1-2.7,0.8-3.9,2.5-3.9
		C76.5,23,77.4,23.8,77.5,26.1 M68.2,23.4l1.2-2.1c-3.4-0.5-5.6,0.4-6.9,1V33h3v-9.5C66.1,23.2,67.2,23.1,68.2,23.4 M60.1,27.3
		c0-3.5-1.8-6-5.5-6c-3.7,0-5.5,2.6-5.5,6c0,3.4,1.8,6,5.5,6C58.3,33.4,60.1,30.8,60.1,27.3 M57.1,27.3c0,2.2-0.4,4.2-2.5,4.2
		c-2,0-2.5-2.1-2.5-4.2c0-2.2,0.4-4.4,2.5-4.4C56.7,22.9,57.1,25,57.1,27.3 M42.3,27.2c0-2.5,0.8-3.9,2.8-4.1c1-0.1,1.8,0.3,2.2,0.6
		l0.6-1.6c-1-0.5-1.8-0.9-3.4-0.9c-2.9,0-5.4,2.1-5.4,6c0,3.8,2,6,5.4,6.2c1.6,0.1,2.6-0.3,3.8-0.9l-0.7-1.7
		c-0.8,0.4-1.3,0.7-2.3,0.6C43.4,31.3,42.3,29.8,42.3,27.2 M37.1,17.3c0-1-0.8-1.7-1.7-1.7c-1,0-1.7,0.8-1.8,1.7
		c0,1,0.8,1.7,1.7,1.7C36.3,19.1,37.1,18.3,37.1,17.3 M27.6,33h3v-8.2c0-1.8-1.3-3.6-4.4-3.6c-2,0-3,0.3-4.1,1.2
		c-1-0.8-1.9-1.2-4-1.2c-2.2,0-3.5,0.5-4.8,1.1V33h2.9v-9.4c0.6-0.2,1.1-0.4,1.9-0.4c1.6,0,2.4,0.7,2.3,1.8v8h2.9v-8.9
		c0.6-0.5,1.4-0.9,2.3-0.9c1.6,0,2,0.8,2,1.8L27.6,33L27.6,33z M5.1,33.4c2.2,0,3.6-0.5,5.1-1.2V21.6H7.2l0,9.3
		c-0.5,0.3-1.2,0.6-2,0.6c-1.5,0-2.2-0.9-2.2-2v-7.9H0v7.7C0,31.9,2,33.4,5.1,33.4 M36.8,21.6h-3V33h3V21.6z"/>
</g>
<g>
	<g>
		<g>
			<defs>
				<path id="SVGID_1_" d="M83.2,5.8c-1.6,0.4-2.5,2-2.1,3.6c0.3-0.1,0.5-0.3,0.8-0.4c-0.2-0.9,0.2-1.8,1-2.2c1-0.4,2.1,0,2.6,0.9
					C84.2,8.1,83,8.5,81.9,9c0,0.1,0.1,0.2,0.1,0.3c0.4,1,1.6,1.4,2.6,0.9c1-0.4,1.4-1.6,0.9-2.6l0,0c0.4-0.1,0.8-0.2,1.2-0.3
					c-0.5-1.1-1.6-1.7-2.7-1.7C83.7,5.7,83.5,5.7,83.2,5.8 M83.2,4c-2.7,0.7-4.3,3.5-3.7,6.2c0.3-0.1,0.5-0.3,0.8-0.4
					c-0.5-2.1,0.8-4.3,2.9-4.9c2-0.5,4,0.5,4.8,2.3c-0.4,0.1-0.8,0.1-1.3,0.2c0.1,0.2,0.1,0.3,0.2,0.5c0.4,1.6-0.5,3.2-2.1,3.7
					c-1.6,0.4-3.2-0.5-3.7-2.1c0,0,0,0,0-0.1c-0.3,0.1-0.5,0.3-0.8,0.4c0,0,0,0.1,0,0.1c0.6,2.2,2.8,3.5,5,2.9
					c2.2-0.6,3.5-2.8,2.9-5c0-0.2-0.1-0.4-0.2-0.6c0.4-0.1,0.9-0.1,1.3-0.2c-0.8-1.9-2.7-3.2-4.8-3.2C84.1,3.9,83.6,3.9,83.2,4
					 M83,1.9c-4.1,1.1-6.6,5.3-5.5,9.5c0,0.1,0,0.1,0.1,0.2c-0.4,0.3-0.7,0.6-1.1,0.9c1.5,4.9,6.5,7.7,11.5,6.4
					c5-1.3,8-6.5,6.7-11.6c0,0,0,0,0,0C93.9,7,93.1,7,92.4,6.9c0,0.1,0.1,0.2,0.1,0.4c1.1,4.1-1.3,8.3-5.5,9.5
					c-4.1,1.1-8.2-1.3-9.4-5.3c0.4-0.3,0.7-0.5,1.1-0.8c-0.9-3.3,1.1-6.7,4.4-7.6c3.1-0.8,6.3,0.9,7.4,3.8c-0.4,0-0.9,0-1.3,0.1
					c0.1,0.2,0.2,0.4,0.2,0.6c0.7,2.7-0.9,5.6-3.6,6.3c-2.7,0.7-5.6-0.9-6.3-3.6c0,0,0-0.1,0-0.1c-0.3,0.2-0.5,0.3-0.8,0.5
					c0,0,0,0,0,0c0.9,3.3,4.3,5.3,7.6,4.4c3.3-0.9,5.3-4.3,4.4-7.6c0-0.2-0.1-0.4-0.2-0.6c0.6,0,1.2,0,1.8,0c-1-3.2-4.1-5.4-7.3-5.4
					C84.4,1.6,83.7,1.7,83,1.9"/>
			</defs>
			<use xlink:href="#SVGID_1_"  style="overflow:visible;fill:#CCCCCC;"/>
			<clipPath id="SVGID_00000091010713550573990550000002992366397276941236_">
				<use xlink:href="#SVGID_1_"  style="overflow:visible;"/>
			</clipPath>
			<polygon style="clip-path:url(#SVGID_00000091010713550573990550000002992366397276941236_);fill:#CCCCCC;" points="71.9,18.8
				77.8,-3.3 100.6,2.8 94.7,25 			"/>
		</g>
	</g>
</g>
</svg>
